<?xml version="1.0" encoding="UTF-8"?>
<!DOCTYPE svg PUBLIC "-//W3C//DTD SVG 1.1//EN"
    "http://www.w3.org/Graphics/SVG/1.1/DTD/svg11.dtd">
<svg xmlns="http://www.w3.org/2000/svg" height="400.0000" stroke-opacity="1" viewBox="0 0 600 400" font-size="1" width="600.0000" xmlns:xlink="http://www.w3.org/1999/xlink" stroke="rgb(0,0,0)" version="1.1">
  <defs>
  </defs>
  <g stroke-linejoin="miter" stroke-opacity="0.0" fill-opacity="0.0" stroke="rgb(0,0,0)" fill-rule="evenodd" stroke-width="0.0" fill="rgb(0,0,0)" stroke-linecap="butt" stroke-miterlimit="10.0">
    <path d="M 417.7335,68.2236 l -0.0000,-20.8686 h -31.3030 l -0.0000,20.8686 Z"/>
  </g>
  <g stroke-linejoin="miter" stroke-opacity="1.0" fill-opacity="0.33" font-size="18.9714860186634px" stroke="rgb(0,0,0)" fill-rule="evenodd" stroke-width="0.0" fill="rgb(0,0,0)" stroke-linecap="butt" stroke-miterlimit="10.0">
    <text dominant-baseline="middle" transform="matrix(1.0000,-0.0000,0.0000,1.0000,402.0820,57.7893)" stroke="none" text-anchor="middle">5,5
    </text>
  </g>
  <g stroke-linejoin="miter" stroke-opacity="1.0" fill-opacity="1.0" stroke="rgb(102,102,102)" stroke-width="0.0" fill="rgb(0,0,0)" stroke-linecap="butt" stroke-miterlimit="10.0">
    <path d="M 403.0954,72.2773 c 0.0000,-0.5597 -0.4537,-1.0134 -1.0134 -1.0134c -0.5597,-0.0000 -1.0134,0.4537 -1.0134 1.0134c -0.0000,0.5597 0.4537,1.0134 1.0134 1.0134c 0.5597,0.0000 1.0134,-0.4537 1.0134 -1.0134Z"/>
  </g>
  <g stroke-linejoin="miter" stroke-opacity="0.0" fill-opacity="0.0" stroke="rgb(0,0,0)" fill-rule="evenodd" stroke-width="0.0" fill="rgb(0,0,0)" stroke-linecap="butt" stroke-miterlimit="10.0">
    <path d="M 417.7335,108.7609 l -0.0000,-20.8686 h -31.3030 l -0.0000,20.8686 Z"/>
  </g>
  <g stroke-linejoin="miter" stroke-opacity="1.0" fill-opacity="0.33" font-size="18.9714860186634px" stroke="rgb(0,0,0)" fill-rule="evenodd" stroke-width="0.0" fill="rgb(0,0,0)" stroke-linecap="butt" stroke-miterlimit="10.0">
    <text dominant-baseline="middle" transform="matrix(1.0000,-0.0000,0.0000,1.0000,402.0820,98.3266)" stroke="none" text-anchor="middle">5,4
    </text>
  </g>
  <g stroke-linejoin="miter" stroke-opacity="1.0" fill-opacity="1.0" stroke="rgb(102,102,102)" stroke-width="0.0" fill="rgb(0,0,0)" stroke-linecap="butt" stroke-miterlimit="10.0">
    <path d="M 403.0954,112.8147 c 0.0000,-0.5597 -0.4537,-1.0134 -1.0134 -1.0134c -0.5597,-0.0000 -1.0134,0.4537 -1.0134 1.0134c -0.0000,0.5597 0.4537,1.0134 1.0134 1.0134c 0.5597,0.0000 1.0134,-0.4537 1.0134 -1.0134Z"/>
  </g>
  <g stroke-linejoin="miter" stroke-opacity="0.0" fill-opacity="0.0" stroke="rgb(0,0,0)" fill-rule="evenodd" stroke-width="0.0" fill="rgb(0,0,0)" stroke-linecap="butt" stroke-miterlimit="10.0">
    <path d="M 417.7335,149.2983 l -0.0000,-20.8686 h -31.3030 l -0.0000,20.8686 Z"/>
  </g>
  <g stroke-linejoin="miter" stroke-opacity="1.0" fill-opacity="0.33" font-size="18.9714860186634px" stroke="rgb(0,0,0)" fill-rule="evenodd" stroke-width="0.0" fill="rgb(0,0,0)" stroke-linecap="butt" stroke-miterlimit="10.0">
    <text dominant-baseline="middle" transform="matrix(1.0000,-0.0000,0.0000,1.0000,402.0820,138.8640)" stroke="none" text-anchor="middle">5,3
    </text>
  </g>
  <g stroke-linejoin="miter" stroke-opacity="1.0" fill-opacity="1.0" stroke="rgb(102,102,102)" stroke-width="0.0" fill="rgb(0,0,0)" stroke-linecap="butt" stroke-miterlimit="10.0">
    <path d="M 403.0954,153.3520 c 0.0000,-0.5597 -0.4537,-1.0134 -1.0134 -1.0134c -0.5597,-0.0000 -1.0134,0.4537 -1.0134 1.0134c -0.0000,0.5597 0.4537,1.0134 1.0134 1.0134c 0.5597,0.0000 1.0134,-0.4537 1.0134 -1.0134Z"/>
  </g>
  <g stroke-linejoin="miter" stroke-opacity="0.0" fill-opacity="0.0" stroke="rgb(0,0,0)" fill-rule="evenodd" stroke-width="0.0" fill="rgb(0,0,0)" stroke-linecap="butt" stroke-miterlimit="10.0">
    <path d="M 417.7335,189.8357 l -0.0000,-20.8686 h -31.3030 l -0.0000,20.8686 Z"/>
  </g>
  <g stroke-linejoin="miter" stroke-opacity="1.0" fill-opacity="0.33" font-size="18.9714860186634px" stroke="rgb(0,0,0)" fill-rule="evenodd" stroke-width="0.0" fill="rgb(0,0,0)" stroke-linecap="butt" stroke-miterlimit="10.0">
    <text dominant-baseline="middle" transform="matrix(1.0000,-0.0000,0.0000,1.0000,402.0820,179.4013)" stroke="none" text-anchor="middle">5,2
    </text>
  </g>
  <g stroke-linejoin="miter" stroke-opacity="1.0" fill-opacity="1.0" stroke="rgb(102,102,102)" stroke-width="0.0" fill="rgb(0,0,0)" stroke-linecap="butt" stroke-miterlimit="10.0">
    <path d="M 403.0954,193.8894 c 0.0000,-0.5597 -0.4537,-1.0134 -1.0134 -1.0134c -0.5597,-0.0000 -1.0134,0.4537 -1.0134 1.0134c -0.0000,0.5597 0.4537,1.0134 1.0134 1.0134c 0.5597,0.0000 1.0134,-0.4537 1.0134 -1.0134Z"/>
  </g>
  <g stroke-linejoin="miter" stroke-opacity="0.0" fill-opacity="0.0" stroke="rgb(0,0,0)" fill-rule="evenodd" stroke-width="0.0" fill="rgb(0,0,0)" stroke-linecap="butt" stroke-miterlimit="10.0">
    <path d="M 417.7335,230.3730 l -0.0000,-20.8686 h -31.3030 l -0.0000,20.8686 Z"/>
  </g>
  <g stroke-linejoin="miter" stroke-opacity="1.0" fill-opacity="0.33" font-size="18.9714860186634px" stroke="rgb(0,0,0)" fill-rule="evenodd" stroke-width="0.0" fill="rgb(0,0,0)" stroke-linecap="butt" stroke-miterlimit="10.0">
    <text dominant-baseline="middle" transform="matrix(1.0000,-0.0000,0.0000,1.0000,402.0820,219.9387)" stroke="none" text-anchor="middle">5,1
    </text>
  </g>
  <g stroke-linejoin="miter" stroke-opacity="1.0" fill-opacity="1.0" stroke="rgb(102,102,102)" stroke-width="0.0" fill="rgb(0,0,0)" stroke-linecap="butt" stroke-miterlimit="10.0">
    <path d="M 403.0954,234.4268 c 0.0000,-0.5597 -0.4537,-1.0134 -1.0134 -1.0134c -0.5597,-0.0000 -1.0134,0.4537 -1.0134 1.0134c -0.0000,0.5597 0.4537,1.0134 1.0134 1.0134c 0.5597,0.0000 1.0134,-0.4537 1.0134 -1.0134Z"/>
  </g>
  <g stroke-linejoin="miter" stroke-opacity="0.0" fill-opacity="0.0" stroke="rgb(0,0,0)" fill-rule="evenodd" stroke-width="0.0" fill="rgb(0,0,0)" stroke-linecap="butt" stroke-miterlimit="10.0">
    <path d="M 417.7335,270.9104 l -0.0000,-20.8686 h -31.3030 l -0.0000,20.8686 Z"/>
  </g>
  <g stroke-linejoin="miter" stroke-opacity="1.0" fill-opacity="0.33" font-size="18.9714860186634px" stroke="rgb(0,0,0)" fill-rule="evenodd" stroke-width="0.0" fill="rgb(0,0,0)" stroke-linecap="butt" stroke-miterlimit="10.0">
    <text dominant-baseline="middle" transform="matrix(1.0000,-0.0000,0.0000,1.0000,402.0820,260.4761)" stroke="none" text-anchor="middle">5,0
    </text>
  </g>
  <g stroke-linejoin="miter" stroke-opacity="1.0" fill-opacity="1.0" stroke="rgb(102,102,102)" stroke-width="0.0" fill="rgb(0,0,0)" stroke-linecap="butt" stroke-miterlimit="10.0">
    <path d="M 403.0954,274.9641 c 0.0000,-0.5597 -0.4537,-1.0134 -1.0134 -1.0134c -0.5597,-0.0000 -1.0134,0.4537 -1.0134 1.0134c -0.0000,0.5597 0.4537,1.0134 1.0134 1.0134c 0.5597,0.0000 1.0134,-0.4537 1.0134 -1.0134Z"/>
  </g>
  <g stroke-linejoin="miter" stroke-opacity="0.0" fill-opacity="0.0" stroke="rgb(0,0,0)" fill-rule="evenodd" stroke-width="0.0" fill="rgb(0,0,0)" stroke-linecap="butt" stroke-miterlimit="10.0">
    <path d="M 356.9274,68.2236 l -0.0000,-20.8686 h -31.3030 l -0.0000,20.8686 Z"/>
  </g>
  <g stroke-linejoin="miter" stroke-opacity="1.0" fill-opacity="0.33" font-size="18.9714860186634px" stroke="rgb(0,0,0)" fill-rule="evenodd" stroke-width="0.0" fill="rgb(0,0,0)" stroke-linecap="butt" stroke-miterlimit="10.0">
    <text dominant-baseline="middle" transform="matrix(1.0000,-0.0000,0.0000,1.0000,341.2760,57.7893)" stroke="none" text-anchor="middle">4,5
    </text>
  </g>
  <g stroke-linejoin="miter" stroke-opacity="1.0" fill-opacity="1.0" stroke="rgb(102,102,102)" stroke-width="0.0" fill="rgb(0,0,0)" stroke-linecap="butt" stroke-miterlimit="10.0">
    <path d="M 342.2894,72.2773 c 0.0000,-0.5597 -0.4537,-1.0134 -1.0134 -1.0134c -0.5597,-0.0000 -1.0134,0.4537 -1.0134 1.0134c -0.0000,0.5597 0.4537,1.0134 1.0134 1.0134c 0.5597,0.0000 1.0134,-0.4537 1.0134 -1.0134Z"/>
  </g>
  <g stroke-linejoin="miter" stroke-opacity="0.0" fill-opacity="0.0" stroke="rgb(0,0,0)" fill-rule="evenodd" stroke-width="0.0" fill="rgb(0,0,0)" stroke-linecap="butt" stroke-miterlimit="10.0">
    <path d="M 356.9274,108.7609 l -0.0000,-20.8686 h -31.3030 l -0.0000,20.8686 Z"/>
  </g>
  <g stroke-linejoin="miter" stroke-opacity="1.0" fill-opacity="0.33" font-size="18.9714860186634px" stroke="rgb(0,0,0)" fill-rule="evenodd" stroke-width="0.0" fill="rgb(0,0,0)" stroke-linecap="butt" stroke-miterlimit="10.0">
    <text dominant-baseline="middle" transform="matrix(1.0000,-0.0000,0.0000,1.0000,341.2760,98.3266)" stroke="none" text-anchor="middle">4,4
    </text>
  </g>
  <g stroke-linejoin="miter" stroke-opacity="1.0" fill-opacity="1.0" stroke="rgb(102,102,102)" stroke-width="0.0" fill="rgb(0,0,0)" stroke-linecap="butt" stroke-miterlimit="10.0">
    <path d="M 342.2894,112.8147 c 0.0000,-0.5597 -0.4537,-1.0134 -1.0134 -1.0134c -0.5597,-0.0000 -1.0134,0.4537 -1.0134 1.0134c -0.0000,0.5597 0.4537,1.0134 1.0134 1.0134c 0.5597,0.0000 1.0134,-0.4537 1.0134 -1.0134Z"/>
  </g>
  <g stroke-linejoin="miter" stroke-opacity="0.0" fill-opacity="0.0" stroke="rgb(0,0,0)" fill-rule="evenodd" stroke-width="0.0" fill="rgb(0,0,0)" stroke-linecap="butt" stroke-miterlimit="10.0">
    <path d="M 356.9274,149.2983 l -0.0000,-20.8686 h -31.3030 l -0.0000,20.8686 Z"/>
  </g>
  <g stroke-linejoin="miter" stroke-opacity="1.0" fill-opacity="0.33" font-size="18.9714860186634px" stroke="rgb(0,0,0)" fill-rule="evenodd" stroke-width="0.0" fill="rgb(0,0,0)" stroke-linecap="butt" stroke-miterlimit="10.0">
    <text dominant-baseline="middle" transform="matrix(1.0000,-0.0000,0.0000,1.0000,341.2760,138.8640)" stroke="none" text-anchor="middle">4,3
    </text>
  </g>
  <g stroke-linejoin="miter" stroke-opacity="1.0" fill-opacity="1.0" stroke="rgb(102,102,102)" stroke-width="0.0" fill="rgb(0,0,0)" stroke-linecap="butt" stroke-miterlimit="10.0">
    <path d="M 342.2894,153.3520 c 0.0000,-0.5597 -0.4537,-1.0134 -1.0134 -1.0134c -0.5597,-0.0000 -1.0134,0.4537 -1.0134 1.0134c -0.0000,0.5597 0.4537,1.0134 1.0134 1.0134c 0.5597,0.0000 1.0134,-0.4537 1.0134 -1.0134Z"/>
  </g>
  <g stroke-linejoin="miter" stroke-opacity="0.0" fill-opacity="0.0" stroke="rgb(0,0,0)" fill-rule="evenodd" stroke-width="0.0" fill="rgb(0,0,0)" stroke-linecap="butt" stroke-miterlimit="10.0">
    <path d="M 356.9274,189.8357 l -0.0000,-20.8686 h -31.3030 l -0.0000,20.8686 Z"/>
  </g>
  <g stroke-linejoin="miter" stroke-opacity="1.0" fill-opacity="0.33" font-size="18.9714860186634px" stroke="rgb(0,0,0)" fill-rule="evenodd" stroke-width="0.0" fill="rgb(0,0,0)" stroke-linecap="butt" stroke-miterlimit="10.0">
    <text dominant-baseline="middle" transform="matrix(1.0000,-0.0000,0.0000,1.0000,341.2760,179.4013)" stroke="none" text-anchor="middle">4,2
    </text>
  </g>
  <g stroke-linejoin="miter" stroke-opacity="1.0" fill-opacity="1.0" stroke="rgb(102,102,102)" stroke-width="0.0" fill="rgb(0,0,0)" stroke-linecap="butt" stroke-miterlimit="10.0">
    <path d="M 342.2894,193.8894 c 0.0000,-0.5597 -0.4537,-1.0134 -1.0134 -1.0134c -0.5597,-0.0000 -1.0134,0.4537 -1.0134 1.0134c -0.0000,0.5597 0.4537,1.0134 1.0134 1.0134c 0.5597,0.0000 1.0134,-0.4537 1.0134 -1.0134Z"/>
  </g>
  <g stroke-linejoin="miter" stroke-opacity="0.0" fill-opacity="0.0" stroke="rgb(0,0,0)" fill-rule="evenodd" stroke-width="0.0" fill="rgb(0,0,0)" stroke-linecap="butt" stroke-miterlimit="10.0">
    <path d="M 356.9274,230.3730 l -0.0000,-20.8686 h -31.3030 l -0.0000,20.8686 Z"/>
  </g>
  <g stroke-linejoin="miter" stroke-opacity="1.0" fill-opacity="0.33" font-size="18.9714860186634px" stroke="rgb(0,0,0)" fill-rule="evenodd" stroke-width="0.0" fill="rgb(0,0,0)" stroke-linecap="butt" stroke-miterlimit="10.0">
    <text dominant-baseline="middle" transform="matrix(1.0000,-0.0000,0.0000,1.0000,341.2760,219.9387)" stroke="none" text-anchor="middle">4,1
    </text>
  </g>
  <g stroke-linejoin="miter" stroke-opacity="1.0" fill-opacity="1.0" stroke="rgb(102,102,102)" stroke-width="0.0" fill="rgb(0,0,0)" stroke-linecap="butt" stroke-miterlimit="10.0">
    <path d="M 342.2894,234.4268 c 0.0000,-0.5597 -0.4537,-1.0134 -1.0134 -1.0134c -0.5597,-0.0000 -1.0134,0.4537 -1.0134 1.0134c -0.0000,0.5597 0.4537,1.0134 1.0134 1.0134c 0.5597,0.0000 1.0134,-0.4537 1.0134 -1.0134Z"/>
  </g>
  <g stroke-linejoin="miter" stroke-opacity="0.0" fill-opacity="0.0" stroke="rgb(0,0,0)" fill-rule="evenodd" stroke-width="0.0" fill="rgb(0,0,0)" stroke-linecap="butt" stroke-miterlimit="10.0">
    <path d="M 356.9274,270.9104 l -0.0000,-20.8686 h -31.3030 l -0.0000,20.8686 Z"/>
  </g>
  <g stroke-linejoin="miter" stroke-opacity="1.0" fill-opacity="0.33" font-size="18.9714860186634px" stroke="rgb(0,0,0)" fill-rule="evenodd" stroke-width="0.0" fill="rgb(0,0,0)" stroke-linecap="butt" stroke-miterlimit="10.0">
    <text dominant-baseline="middle" transform="matrix(1.0000,-0.0000,0.0000,1.0000,341.2760,260.4761)" stroke="none" text-anchor="middle">4,0
    </text>
  </g>
  <g stroke-linejoin="miter" stroke-opacity="1.0" fill-opacity="1.0" stroke="rgb(102,102,102)" stroke-width="0.0" fill="rgb(0,0,0)" stroke-linecap="butt" stroke-miterlimit="10.0">
    <path d="M 342.2894,274.9641 c 0.0000,-0.5597 -0.4537,-1.0134 -1.0134 -1.0134c -0.5597,-0.0000 -1.0134,0.4537 -1.0134 1.0134c -0.0000,0.5597 0.4537,1.0134 1.0134 1.0134c 0.5597,0.0000 1.0134,-0.4537 1.0134 -1.0134Z"/>
  </g>
  <g stroke-linejoin="miter" stroke-opacity="0.0" fill-opacity="0.0" stroke="rgb(0,0,0)" fill-rule="evenodd" stroke-width="0.0" fill="rgb(0,0,0)" stroke-linecap="butt" stroke-miterlimit="10.0">
    <path d="M 296.1214,68.2236 l -0.0000,-20.8686 h -31.3030 l -0.0000,20.8686 Z"/>
  </g>
  <g stroke-linejoin="miter" stroke-opacity="1.0" fill-opacity="0.33" font-size="18.9714860186634px" stroke="rgb(0,0,0)" fill-rule="evenodd" stroke-width="0.0" fill="rgb(0,0,0)" stroke-linecap="butt" stroke-miterlimit="10.0">
    <text dominant-baseline="middle" transform="matrix(1.0000,-0.0000,0.0000,1.0000,280.4699,57.7893)" stroke="none" text-anchor="middle">3,5
    </text>
  </g>
  <g stroke-linejoin="miter" stroke-opacity="1.0" fill-opacity="1.0" stroke="rgb(102,102,102)" stroke-width="0.0" fill="rgb(0,0,0)" stroke-linecap="butt" stroke-miterlimit="10.0">
    <path d="M 281.4833,72.2773 c 0.0000,-0.5597 -0.4537,-1.0134 -1.0134 -1.0134c -0.5597,-0.0000 -1.0134,0.4537 -1.0134 1.0134c -0.0000,0.5597 0.4537,1.0134 1.0134 1.0134c 0.5597,0.0000 1.0134,-0.4537 1.0134 -1.0134Z"/>
  </g>
  <g stroke-linejoin="miter" stroke-opacity="0.0" fill-opacity="0.0" stroke="rgb(0,0,0)" fill-rule="evenodd" stroke-width="0.0" fill="rgb(0,0,0)" stroke-linecap="butt" stroke-miterlimit="10.0">
    <path d="M 296.1214,108.7609 l -0.0000,-20.8686 h -31.3030 l -0.0000,20.8686 Z"/>
  </g>
  <g stroke-linejoin="miter" stroke-opacity="1.0" fill-opacity="0.33" font-size="18.9714860186634px" stroke="rgb(0,0,0)" fill-rule="evenodd" stroke-width="0.0" fill="rgb(0,0,0)" stroke-linecap="butt" stroke-miterlimit="10.0">
    <text dominant-baseline="middle" transform="matrix(1.0000,-0.0000,0.0000,1.0000,280.4699,98.3266)" stroke="none" text-anchor="middle">3,4
    </text>
  </g>
  <g stroke-linejoin="miter" stroke-opacity="1.0" fill-opacity="1.0" stroke="rgb(102,102,102)" stroke-width="0.0" fill="rgb(0,0,0)" stroke-linecap="butt" stroke-miterlimit="10.0">
    <path d="M 281.4833,112.8147 c 0.0000,-0.5597 -0.4537,-1.0134 -1.0134 -1.0134c -0.5597,-0.0000 -1.0134,0.4537 -1.0134 1.0134c -0.0000,0.5597 0.4537,1.0134 1.0134 1.0134c 0.5597,0.0000 1.0134,-0.4537 1.0134 -1.0134Z"/>
  </g>
  <g stroke-linejoin="miter" stroke-opacity="0.0" fill-opacity="0.0" stroke="rgb(0,0,0)" fill-rule="evenodd" stroke-width="0.0" fill="rgb(0,0,0)" stroke-linecap="butt" stroke-miterlimit="10.0">
    <path d="M 296.1214,149.2983 l -0.0000,-20.8686 h -31.3030 l -0.0000,20.8686 Z"/>
  </g>
  <g stroke-linejoin="miter" stroke-opacity="1.0" fill-opacity="0.33" font-size="18.9714860186634px" stroke="rgb(0,0,0)" fill-rule="evenodd" stroke-width="0.0" fill="rgb(0,0,0)" stroke-linecap="butt" stroke-miterlimit="10.0">
    <text dominant-baseline="middle" transform="matrix(1.0000,-0.0000,0.0000,1.0000,280.4699,138.8640)" stroke="none" text-anchor="middle">3,3
    </text>
  </g>
  <g stroke-linejoin="miter" stroke-opacity="1.0" fill-opacity="1.0" stroke="rgb(102,102,102)" stroke-width="0.0" fill="rgb(0,0,0)" stroke-linecap="butt" stroke-miterlimit="10.0">
    <path d="M 281.4833,153.3520 c 0.0000,-0.5597 -0.4537,-1.0134 -1.0134 -1.0134c -0.5597,-0.0000 -1.0134,0.4537 -1.0134 1.0134c -0.0000,0.5597 0.4537,1.0134 1.0134 1.0134c 0.5597,0.0000 1.0134,-0.4537 1.0134 -1.0134Z"/>
  </g>
  <g stroke-linejoin="miter" stroke-opacity="0.0" fill-opacity="0.0" stroke="rgb(0,0,0)" fill-rule="evenodd" stroke-width="0.0" fill="rgb(0,0,0)" stroke-linecap="butt" stroke-miterlimit="10.0">
    <path d="M 296.1214,189.8357 l -0.0000,-20.8686 h -31.3030 l -0.0000,20.8686 Z"/>
  </g>
  <g stroke-linejoin="miter" stroke-opacity="1.0" fill-opacity="0.33" font-size="18.9714860186634px" stroke="rgb(0,0,0)" fill-rule="evenodd" stroke-width="0.0" fill="rgb(0,0,0)" stroke-linecap="butt" stroke-miterlimit="10.0">
    <text dominant-baseline="middle" transform="matrix(1.0000,-0.0000,0.0000,1.0000,280.4699,179.4013)" stroke="none" text-anchor="middle">3,2
    </text>
  </g>
  <g stroke-linejoin="miter" stroke-opacity="1.0" fill-opacity="1.0" stroke="rgb(102,102,102)" stroke-width="0.0" fill="rgb(0,0,0)" stroke-linecap="butt" stroke-miterlimit="10.0">
    <path d="M 281.4833,193.8894 c 0.0000,-0.5597 -0.4537,-1.0134 -1.0134 -1.0134c -0.5597,-0.0000 -1.0134,0.4537 -1.0134 1.0134c -0.0000,0.5597 0.4537,1.0134 1.0134 1.0134c 0.5597,0.0000 1.0134,-0.4537 1.0134 -1.0134Z"/>
  </g>
  <g stroke-linejoin="miter" stroke-opacity="0.0" fill-opacity="0.0" stroke="rgb(0,0,0)" fill-rule="evenodd" stroke-width="0.0" fill="rgb(0,0,0)" stroke-linecap="butt" stroke-miterlimit="10.0">
    <path d="M 296.1214,230.3730 l -0.0000,-20.8686 h -31.3030 l -0.0000,20.8686 Z"/>
  </g>
  <g stroke-linejoin="miter" stroke-opacity="1.0" fill-opacity="0.33" font-size="18.9714860186634px" stroke="rgb(0,0,0)" fill-rule="evenodd" stroke-width="0.0" fill="rgb(0,0,0)" stroke-linecap="butt" stroke-miterlimit="10.0">
    <text dominant-baseline="middle" transform="matrix(1.0000,-0.0000,0.0000,1.0000,280.4699,219.9387)" stroke="none" text-anchor="middle">3,1
    </text>
  </g>
  <g stroke-linejoin="miter" stroke-opacity="1.0" fill-opacity="1.0" stroke="rgb(102,102,102)" stroke-width="0.0" fill="rgb(0,0,0)" stroke-linecap="butt" stroke-miterlimit="10.0">
    <path d="M 281.4833,234.4268 c 0.0000,-0.5597 -0.4537,-1.0134 -1.0134 -1.0134c -0.5597,-0.0000 -1.0134,0.4537 -1.0134 1.0134c -0.0000,0.5597 0.4537,1.0134 1.0134 1.0134c 0.5597,0.0000 1.0134,-0.4537 1.0134 -1.0134Z"/>
  </g>
  <g stroke-linejoin="miter" stroke-opacity="0.0" fill-opacity="0.0" stroke="rgb(0,0,0)" fill-rule="evenodd" stroke-width="0.0" fill="rgb(0,0,0)" stroke-linecap="butt" stroke-miterlimit="10.0">
    <path d="M 296.1214,270.9104 l -0.0000,-20.8686 h -31.3030 l -0.0000,20.8686 Z"/>
  </g>
  <g stroke-linejoin="miter" stroke-opacity="1.0" fill-opacity="0.33" font-size="18.9714860186634px" stroke="rgb(0,0,0)" fill-rule="evenodd" stroke-width="0.0" fill="rgb(0,0,0)" stroke-linecap="butt" stroke-miterlimit="10.0">
    <text dominant-baseline="middle" transform="matrix(1.0000,-0.0000,0.0000,1.0000,280.4699,260.4761)" stroke="none" text-anchor="middle">3,0
    </text>
  </g>
  <g stroke-linejoin="miter" stroke-opacity="1.0" fill-opacity="1.0" stroke="rgb(102,102,102)" stroke-width="0.0" fill="rgb(0,0,0)" stroke-linecap="butt" stroke-miterlimit="10.0">
    <path d="M 281.4833,274.9641 c 0.0000,-0.5597 -0.4537,-1.0134 -1.0134 -1.0134c -0.5597,-0.0000 -1.0134,0.4537 -1.0134 1.0134c -0.0000,0.5597 0.4537,1.0134 1.0134 1.0134c 0.5597,0.0000 1.0134,-0.4537 1.0134 -1.0134Z"/>
  </g>
  <g stroke-linejoin="miter" stroke-opacity="0.0" fill-opacity="0.0" stroke="rgb(0,0,0)" fill-rule="evenodd" stroke-width="0.0" fill="rgb(0,0,0)" stroke-linecap="butt" stroke-miterlimit="10.0">
    <path d="M 235.3153,68.2236 l -0.0000,-20.8686 h -31.3030 l -0.0000,20.8686 Z"/>
  </g>
  <g stroke-linejoin="miter" stroke-opacity="1.0" fill-opacity="0.33" font-size="18.9714860186634px" stroke="rgb(0,0,0)" fill-rule="evenodd" stroke-width="0.0" fill="rgb(0,0,0)" stroke-linecap="butt" stroke-miterlimit="10.0">
    <text dominant-baseline="middle" transform="matrix(1.0000,-0.0000,0.0000,1.0000,219.6639,57.7893)" stroke="none" text-anchor="middle">2,5
    </text>
  </g>
  <g stroke-linejoin="miter" stroke-opacity="1.0" fill-opacity="1.0" stroke="rgb(102,102,102)" stroke-width="0.0" fill="rgb(0,0,0)" stroke-linecap="butt" stroke-miterlimit="10.0">
    <path d="M 220.6773,72.2773 c 0.0000,-0.5597 -0.4537,-1.0134 -1.0134 -1.0134c -0.5597,-0.0000 -1.0134,0.4537 -1.0134 1.0134c -0.0000,0.5597 0.4537,1.0134 1.0134 1.0134c 0.5597,0.0000 1.0134,-0.4537 1.0134 -1.0134Z"/>
  </g>
  <g stroke-linejoin="miter" stroke-opacity="0.0" fill-opacity="0.0" stroke="rgb(0,0,0)" fill-rule="evenodd" stroke-width="0.0" fill="rgb(0,0,0)" stroke-linecap="butt" stroke-miterlimit="10.0">
    <path d="M 235.3153,108.7609 l -0.0000,-20.8686 h -31.3030 l -0.0000,20.8686 Z"/>
  </g>
  <g stroke-linejoin="miter" stroke-opacity="1.0" fill-opacity="0.33" font-size="18.9714860186634px" stroke="rgb(0,0,0)" fill-rule="evenodd" stroke-width="0.0" fill="rgb(0,0,0)" stroke-linecap="butt" stroke-miterlimit="10.0">
    <text dominant-baseline="middle" transform="matrix(1.0000,-0.0000,0.0000,1.0000,219.6639,98.3266)" stroke="none" text-anchor="middle">2,4
    </text>
  </g>
  <g stroke-linejoin="miter" stroke-opacity="1.0" fill-opacity="1.0" stroke="rgb(102,102,102)" stroke-width="0.0" fill="rgb(0,0,0)" stroke-linecap="butt" stroke-miterlimit="10.0">
    <path d="M 220.6773,112.8147 c 0.0000,-0.5597 -0.4537,-1.0134 -1.0134 -1.0134c -0.5597,-0.0000 -1.0134,0.4537 -1.0134 1.0134c -0.0000,0.5597 0.4537,1.0134 1.0134 1.0134c 0.5597,0.0000 1.0134,-0.4537 1.0134 -1.0134Z"/>
  </g>
  <g stroke-linejoin="miter" stroke-opacity="0.0" fill-opacity="0.0" stroke="rgb(0,0,0)" fill-rule="evenodd" stroke-width="0.0" fill="rgb(0,0,0)" stroke-linecap="butt" stroke-miterlimit="10.0">
    <path d="M 235.3153,149.2983 l -0.0000,-20.8686 h -31.3030 l -0.0000,20.8686 Z"/>
  </g>
  <g stroke-linejoin="miter" stroke-opacity="1.0" fill-opacity="0.33" font-size="18.9714860186634px" stroke="rgb(0,0,0)" fill-rule="evenodd" stroke-width="0.0" fill="rgb(0,0,0)" stroke-linecap="butt" stroke-miterlimit="10.0">
    <text dominant-baseline="middle" transform="matrix(1.0000,-0.0000,0.0000,1.0000,219.6639,138.8640)" stroke="none" text-anchor="middle">2,3
    </text>
  </g>
  <g stroke-linejoin="miter" stroke-opacity="1.0" fill-opacity="1.0" stroke="rgb(102,102,102)" stroke-width="0.0" fill="rgb(0,0,0)" stroke-linecap="butt" stroke-miterlimit="10.0">
    <path d="M 220.6773,153.3520 c 0.0000,-0.5597 -0.4537,-1.0134 -1.0134 -1.0134c -0.5597,-0.0000 -1.0134,0.4537 -1.0134 1.0134c -0.0000,0.5597 0.4537,1.0134 1.0134 1.0134c 0.5597,0.0000 1.0134,-0.4537 1.0134 -1.0134Z"/>
  </g>
  <g stroke-linejoin="miter" stroke-opacity="0.0" fill-opacity="0.0" stroke="rgb(0,0,0)" fill-rule="evenodd" stroke-width="0.0" fill="rgb(0,0,0)" stroke-linecap="butt" stroke-miterlimit="10.0">
    <path d="M 235.3153,189.8357 l -0.0000,-20.8686 h -31.3030 l -0.0000,20.8686 Z"/>
  </g>
  <g stroke-linejoin="miter" stroke-opacity="1.0" fill-opacity="0.33" font-size="18.9714860186634px" stroke="rgb(0,0,0)" fill-rule="evenodd" stroke-width="0.0" fill="rgb(0,0,0)" stroke-linecap="butt" stroke-miterlimit="10.0">
    <text dominant-baseline="middle" transform="matrix(1.0000,-0.0000,0.0000,1.0000,219.6639,179.4013)" stroke="none" text-anchor="middle">2,2
    </text>
  </g>
  <g stroke-linejoin="miter" stroke-opacity="1.0" fill-opacity="1.0" stroke="rgb(102,102,102)" stroke-width="0.0" fill="rgb(0,0,0)" stroke-linecap="butt" stroke-miterlimit="10.0">
    <path d="M 220.6773,193.8894 c 0.0000,-0.5597 -0.4537,-1.0134 -1.0134 -1.0134c -0.5597,-0.0000 -1.0134,0.4537 -1.0134 1.0134c -0.0000,0.5597 0.4537,1.0134 1.0134 1.0134c 0.5597,0.0000 1.0134,-0.4537 1.0134 -1.0134Z"/>
  </g>
  <g stroke-linejoin="miter" stroke-opacity="0.0" fill-opacity="0.0" stroke="rgb(0,0,0)" fill-rule="evenodd" stroke-width="0.0" fill="rgb(0,0,0)" stroke-linecap="butt" stroke-miterlimit="10.0">
    <path d="M 235.3153,230.3730 l -0.0000,-20.8686 h -31.3030 l -0.0000,20.8686 Z"/>
  </g>
  <g stroke-linejoin="miter" stroke-opacity="1.0" fill-opacity="0.33" font-size="18.9714860186634px" stroke="rgb(0,0,0)" fill-rule="evenodd" stroke-width="0.0" fill="rgb(0,0,0)" stroke-linecap="butt" stroke-miterlimit="10.0">
    <text dominant-baseline="middle" transform="matrix(1.0000,-0.0000,0.0000,1.0000,219.6639,219.9387)" stroke="none" text-anchor="middle">2,1
    </text>
  </g>
  <g stroke-linejoin="miter" stroke-opacity="1.0" fill-opacity="1.0" stroke="rgb(102,102,102)" stroke-width="0.0" fill="rgb(0,0,0)" stroke-linecap="butt" stroke-miterlimit="10.0">
    <path d="M 220.6773,234.4268 c 0.0000,-0.5597 -0.4537,-1.0134 -1.0134 -1.0134c -0.5597,-0.0000 -1.0134,0.4537 -1.0134 1.0134c -0.0000,0.5597 0.4537,1.0134 1.0134 1.0134c 0.5597,0.0000 1.0134,-0.4537 1.0134 -1.0134Z"/>
  </g>
  <g stroke-linejoin="miter" stroke-opacity="0.0" fill-opacity="0.0" stroke="rgb(0,0,0)" fill-rule="evenodd" stroke-width="0.0" fill="rgb(0,0,0)" stroke-linecap="butt" stroke-miterlimit="10.0">
    <path d="M 235.3153,270.9104 l -0.0000,-20.8686 h -31.3030 l -0.0000,20.8686 Z"/>
  </g>
  <g stroke-linejoin="miter" stroke-opacity="1.0" fill-opacity="0.33" font-size="18.9714860186634px" stroke="rgb(0,0,0)" fill-rule="evenodd" stroke-width="0.0" fill="rgb(0,0,0)" stroke-linecap="butt" stroke-miterlimit="10.0">
    <text dominant-baseline="middle" transform="matrix(1.0000,-0.0000,0.0000,1.0000,219.6639,260.4761)" stroke="none" text-anchor="middle">2,0
    </text>
  </g>
  <g stroke-linejoin="miter" stroke-opacity="1.0" fill-opacity="1.0" stroke="rgb(102,102,102)" stroke-width="0.0" fill="rgb(0,0,0)" stroke-linecap="butt" stroke-miterlimit="10.0">
    <path d="M 220.6773,274.9641 c 0.0000,-0.5597 -0.4537,-1.0134 -1.0134 -1.0134c -0.5597,-0.0000 -1.0134,0.4537 -1.0134 1.0134c -0.0000,0.5597 0.4537,1.0134 1.0134 1.0134c 0.5597,0.0000 1.0134,-0.4537 1.0134 -1.0134Z"/>
  </g>
  <g stroke-linejoin="miter" stroke-opacity="0.0" fill-opacity="0.0" stroke="rgb(0,0,0)" fill-rule="evenodd" stroke-width="0.0" fill="rgb(0,0,0)" stroke-linecap="butt" stroke-miterlimit="10.0">
    <path d="M 174.5093,68.2236 l -0.0000,-20.8686 h -31.3030 l -0.0000,20.8686 Z"/>
  </g>
  <g stroke-linejoin="miter" stroke-opacity="1.0" fill-opacity="0.33" font-size="18.9714860186634px" stroke="rgb(0,0,0)" fill-rule="evenodd" stroke-width="0.0" fill="rgb(0,0,0)" stroke-linecap="butt" stroke-miterlimit="10.0">
    <text dominant-baseline="middle" transform="matrix(1.0000,-0.0000,0.0000,1.0000,158.8578,57.7893)" stroke="none" text-anchor="middle">1,5
    </text>
  </g>
  <g stroke-linejoin="miter" stroke-opacity="1.0" fill-opacity="1.0" stroke="rgb(102,102,102)" stroke-width="0.0" fill="rgb(0,0,0)" stroke-linecap="butt" stroke-miterlimit="10.0">
    <path d="M 159.8713,72.2773 c 0.0000,-0.5597 -0.4537,-1.0134 -1.0134 -1.0134c -0.5597,-0.0000 -1.0134,0.4537 -1.0134 1.0134c -0.0000,0.5597 0.4537,1.0134 1.0134 1.0134c 0.5597,0.0000 1.0134,-0.4537 1.0134 -1.0134Z"/>
  </g>
  <g stroke-linejoin="miter" stroke-opacity="0.0" fill-opacity="0.0" stroke="rgb(0,0,0)" fill-rule="evenodd" stroke-width="0.0" fill="rgb(0,0,0)" stroke-linecap="butt" stroke-miterlimit="10.0">
    <path d="M 174.5093,108.7609 l -0.0000,-20.8686 h -31.3030 l -0.0000,20.8686 Z"/>
  </g>
  <g stroke-linejoin="miter" stroke-opacity="1.0" fill-opacity="0.33" font-size="18.9714860186634px" stroke="rgb(0,0,0)" fill-rule="evenodd" stroke-width="0.0" fill="rgb(0,0,0)" stroke-linecap="butt" stroke-miterlimit="10.0">
    <text dominant-baseline="middle" transform="matrix(1.0000,-0.0000,0.0000,1.0000,158.8578,98.3266)" stroke="none" text-anchor="middle">1,4
    </text>
  </g>
  <g stroke-linejoin="miter" stroke-opacity="1.0" fill-opacity="1.0" stroke="rgb(102,102,102)" stroke-width="0.0" fill="rgb(0,0,0)" stroke-linecap="butt" stroke-miterlimit="10.0">
    <path d="M 159.8713,112.8147 c 0.0000,-0.5597 -0.4537,-1.0134 -1.0134 -1.0134c -0.5597,-0.0000 -1.0134,0.4537 -1.0134 1.0134c -0.0000,0.5597 0.4537,1.0134 1.0134 1.0134c 0.5597,0.0000 1.0134,-0.4537 1.0134 -1.0134Z"/>
  </g>
  <g stroke-linejoin="miter" stroke-opacity="0.0" fill-opacity="0.0" stroke="rgb(0,0,0)" fill-rule="evenodd" stroke-width="0.0" fill="rgb(0,0,0)" stroke-linecap="butt" stroke-miterlimit="10.0">
    <path d="M 174.5093,149.2983 l -0.0000,-20.8686 h -31.3030 l -0.0000,20.8686 Z"/>
  </g>
  <g stroke-linejoin="miter" stroke-opacity="1.0" fill-opacity="0.33" font-size="18.9714860186634px" stroke="rgb(0,0,0)" fill-rule="evenodd" stroke-width="0.0" fill="rgb(0,0,0)" stroke-linecap="butt" stroke-miterlimit="10.0">
    <text dominant-baseline="middle" transform="matrix(1.0000,-0.0000,0.0000,1.0000,158.8578,138.8640)" stroke="none" text-anchor="middle">1,3
    </text>
  </g>
  <g stroke-linejoin="miter" stroke-opacity="1.0" fill-opacity="1.0" stroke="rgb(102,102,102)" stroke-width="0.0" fill="rgb(0,0,0)" stroke-linecap="butt" stroke-miterlimit="10.0">
    <path d="M 159.8713,153.3520 c 0.0000,-0.5597 -0.4537,-1.0134 -1.0134 -1.0134c -0.5597,-0.0000 -1.0134,0.4537 -1.0134 1.0134c -0.0000,0.5597 0.4537,1.0134 1.0134 1.0134c 0.5597,0.0000 1.0134,-0.4537 1.0134 -1.0134Z"/>
  </g>
  <g stroke-linejoin="miter" stroke-opacity="0.0" fill-opacity="0.0" stroke="rgb(0,0,0)" fill-rule="evenodd" stroke-width="0.0" fill="rgb(0,0,0)" stroke-linecap="butt" stroke-miterlimit="10.0">
    <path d="M 174.5093,189.8357 l -0.0000,-20.8686 h -31.3030 l -0.0000,20.8686 Z"/>
  </g>
  <g stroke-linejoin="miter" stroke-opacity="1.0" fill-opacity="0.33" font-size="18.9714860186634px" stroke="rgb(0,0,0)" fill-rule="evenodd" stroke-width="0.0" fill="rgb(0,0,0)" stroke-linecap="butt" stroke-miterlimit="10.0">
    <text dominant-baseline="middle" transform="matrix(1.0000,-0.0000,0.0000,1.0000,158.8578,179.4013)" stroke="none" text-anchor="middle">1,2
    </text>
  </g>
  <g stroke-linejoin="miter" stroke-opacity="1.0" fill-opacity="1.0" stroke="rgb(102,102,102)" stroke-width="0.0" fill="rgb(0,0,0)" stroke-linecap="butt" stroke-miterlimit="10.0">
    <path d="M 159.8713,193.8894 c 0.0000,-0.5597 -0.4537,-1.0134 -1.0134 -1.0134c -0.5597,-0.0000 -1.0134,0.4537 -1.0134 1.0134c -0.0000,0.5597 0.4537,1.0134 1.0134 1.0134c 0.5597,0.0000 1.0134,-0.4537 1.0134 -1.0134Z"/>
  </g>
  <g stroke-linejoin="miter" stroke-opacity="0.0" fill-opacity="0.0" stroke="rgb(0,0,0)" fill-rule="evenodd" stroke-width="0.0" fill="rgb(0,0,0)" stroke-linecap="butt" stroke-miterlimit="10.0">
    <path d="M 174.5093,230.3730 l -0.0000,-20.8686 h -31.3030 l -0.0000,20.8686 Z"/>
  </g>
  <g stroke-linejoin="miter" stroke-opacity="1.0" fill-opacity="0.33" font-size="18.9714860186634px" stroke="rgb(0,0,0)" fill-rule="evenodd" stroke-width="0.0" fill="rgb(0,0,0)" stroke-linecap="butt" stroke-miterlimit="10.0">
    <text dominant-baseline="middle" transform="matrix(1.0000,-0.0000,0.0000,1.0000,158.8578,219.9387)" stroke="none" text-anchor="middle">1,1
    </text>
  </g>
  <g stroke-linejoin="miter" stroke-opacity="1.0" fill-opacity="1.0" stroke="rgb(102,102,102)" stroke-width="0.0" fill="rgb(0,0,0)" stroke-linecap="butt" stroke-miterlimit="10.0">
    <path d="M 159.8713,234.4268 c 0.0000,-0.5597 -0.4537,-1.0134 -1.0134 -1.0134c -0.5597,-0.0000 -1.0134,0.4537 -1.0134 1.0134c -0.0000,0.5597 0.4537,1.0134 1.0134 1.0134c 0.5597,0.0000 1.0134,-0.4537 1.0134 -1.0134Z"/>
  </g>
  <g stroke-linejoin="miter" stroke-opacity="0.0" fill-opacity="0.0" stroke="rgb(0,0,0)" fill-rule="evenodd" stroke-width="0.0" fill="rgb(0,0,0)" stroke-linecap="butt" stroke-miterlimit="10.0">
    <path d="M 174.5093,270.9104 l -0.0000,-20.8686 h -31.3030 l -0.0000,20.8686 Z"/>
  </g>
  <g stroke-linejoin="miter" stroke-opacity="1.0" fill-opacity="0.33" font-size="18.9714860186634px" stroke="rgb(0,0,0)" fill-rule="evenodd" stroke-width="0.0" fill="rgb(0,0,0)" stroke-linecap="butt" stroke-miterlimit="10.0">
    <text dominant-baseline="middle" transform="matrix(1.0000,-0.0000,0.0000,1.0000,158.8578,260.4761)" stroke="none" text-anchor="middle">1,0
    </text>
  </g>
  <g stroke-linejoin="miter" stroke-opacity="1.0" fill-opacity="1.0" stroke="rgb(102,102,102)" stroke-width="0.0" fill="rgb(0,0,0)" stroke-linecap="butt" stroke-miterlimit="10.0">
    <path d="M 159.8713,274.9641 c 0.0000,-0.5597 -0.4537,-1.0134 -1.0134 -1.0134c -0.5597,-0.0000 -1.0134,0.4537 -1.0134 1.0134c -0.0000,0.5597 0.4537,1.0134 1.0134 1.0134c 0.5597,0.0000 1.0134,-0.4537 1.0134 -1.0134Z"/>
  </g>
  <g stroke-linejoin="miter" stroke-opacity="0.0" fill-opacity="0.0" stroke="rgb(0,0,0)" fill-rule="evenodd" stroke-width="0.0" fill="rgb(0,0,0)" stroke-linecap="butt" stroke-miterlimit="10.0">
    <path d="M 113.7033,68.2236 l -0.0000,-20.8686 h -31.3030 l -0.0000,20.8686 Z"/>
  </g>
  <g stroke-linejoin="miter" stroke-opacity="1.0" fill-opacity="0.33" font-size="18.9714860186634px" stroke="rgb(0,0,0)" fill-rule="evenodd" stroke-width="0.0" fill="rgb(0,0,0)" stroke-linecap="butt" stroke-miterlimit="10.0">
    <text dominant-baseline="middle" transform="matrix(1.0000,-0.0000,0.0000,1.0000,98.0518,57.7893)" stroke="none" text-anchor="middle">0,5
    </text>
  </g>
  <g stroke-linejoin="miter" stroke-opacity="1.0" fill-opacity="1.0" stroke="rgb(102,102,102)" stroke-width="0.0" fill="rgb(0,0,0)" stroke-linecap="butt" stroke-miterlimit="10.0">
    <path d="M 99.0652,72.2773 c 0.0000,-0.5597 -0.4537,-1.0134 -1.0134 -1.0134c -0.5597,-0.0000 -1.0134,0.4537 -1.0134 1.0134c -0.0000,0.5597 0.4537,1.0134 1.0134 1.0134c 0.5597,0.0000 1.0134,-0.4537 1.0134 -1.0134Z"/>
  </g>
  <g stroke-linejoin="miter" stroke-opacity="0.0" fill-opacity="0.0" stroke="rgb(0,0,0)" fill-rule="evenodd" stroke-width="0.0" fill="rgb(0,0,0)" stroke-linecap="butt" stroke-miterlimit="10.0">
    <path d="M 113.7033,108.7609 l -0.0000,-20.8686 h -31.3030 l -0.0000,20.8686 Z"/>
  </g>
  <g stroke-linejoin="miter" stroke-opacity="1.0" fill-opacity="0.33" font-size="18.9714860186634px" stroke="rgb(0,0,0)" fill-rule="evenodd" stroke-width="0.0" fill="rgb(0,0,0)" stroke-linecap="butt" stroke-miterlimit="10.0">
    <text dominant-baseline="middle" transform="matrix(1.0000,-0.0000,0.0000,1.0000,98.0518,98.3266)" stroke="none" text-anchor="middle">0,4
    </text>
  </g>
  <g stroke-linejoin="miter" stroke-opacity="1.0" fill-opacity="1.0" stroke="rgb(102,102,102)" stroke-width="0.0" fill="rgb(0,0,0)" stroke-linecap="butt" stroke-miterlimit="10.0">
    <path d="M 99.0652,112.8147 c 0.0000,-0.5597 -0.4537,-1.0134 -1.0134 -1.0134c -0.5597,-0.0000 -1.0134,0.4537 -1.0134 1.0134c -0.0000,0.5597 0.4537,1.0134 1.0134 1.0134c 0.5597,0.0000 1.0134,-0.4537 1.0134 -1.0134Z"/>
  </g>
  <g stroke-linejoin="miter" stroke-opacity="0.0" fill-opacity="0.0" stroke="rgb(0,0,0)" fill-rule="evenodd" stroke-width="0.0" fill="rgb(0,0,0)" stroke-linecap="butt" stroke-miterlimit="10.0">
    <path d="M 113.7033,149.2983 l -0.0000,-20.8686 h -31.3030 l -0.0000,20.8686 Z"/>
  </g>
  <g stroke-linejoin="miter" stroke-opacity="1.0" fill-opacity="0.33" font-size="18.9714860186634px" stroke="rgb(0,0,0)" fill-rule="evenodd" stroke-width="0.0" fill="rgb(0,0,0)" stroke-linecap="butt" stroke-miterlimit="10.0">
    <text dominant-baseline="middle" transform="matrix(1.0000,-0.0000,0.0000,1.0000,98.0518,138.8640)" stroke="none" text-anchor="middle">0,3
    </text>
  </g>
  <g stroke-linejoin="miter" stroke-opacity="1.0" fill-opacity="1.0" stroke="rgb(102,102,102)" stroke-width="0.0" fill="rgb(0,0,0)" stroke-linecap="butt" stroke-miterlimit="10.0">
    <path d="M 99.0652,153.3520 c 0.0000,-0.5597 -0.4537,-1.0134 -1.0134 -1.0134c -0.5597,-0.0000 -1.0134,0.4537 -1.0134 1.0134c -0.0000,0.5597 0.4537,1.0134 1.0134 1.0134c 0.5597,0.0000 1.0134,-0.4537 1.0134 -1.0134Z"/>
  </g>
  <g stroke-linejoin="miter" stroke-opacity="0.0" fill-opacity="0.0" stroke="rgb(0,0,0)" fill-rule="evenodd" stroke-width="0.0" fill="rgb(0,0,0)" stroke-linecap="butt" stroke-miterlimit="10.0">
    <path d="M 113.7033,189.8357 l -0.0000,-20.8686 h -31.3030 l -0.0000,20.8686 Z"/>
  </g>
  <g stroke-linejoin="miter" stroke-opacity="1.0" fill-opacity="0.33" font-size="18.9714860186634px" stroke="rgb(0,0,0)" fill-rule="evenodd" stroke-width="0.0" fill="rgb(0,0,0)" stroke-linecap="butt" stroke-miterlimit="10.0">
    <text dominant-baseline="middle" transform="matrix(1.0000,-0.0000,0.0000,1.0000,98.0518,179.4013)" stroke="none" text-anchor="middle">0,2
    </text>
  </g>
  <g stroke-linejoin="miter" stroke-opacity="1.0" fill-opacity="1.0" stroke="rgb(102,102,102)" stroke-width="0.0" fill="rgb(0,0,0)" stroke-linecap="butt" stroke-miterlimit="10.0">
    <path d="M 99.0652,193.8894 c 0.0000,-0.5597 -0.4537,-1.0134 -1.0134 -1.0134c -0.5597,-0.0000 -1.0134,0.4537 -1.0134 1.0134c -0.0000,0.5597 0.4537,1.0134 1.0134 1.0134c 0.5597,0.0000 1.0134,-0.4537 1.0134 -1.0134Z"/>
  </g>
  <g stroke-linejoin="miter" stroke-opacity="0.0" fill-opacity="0.0" stroke="rgb(0,0,0)" fill-rule="evenodd" stroke-width="0.0" fill="rgb(0,0,0)" stroke-linecap="butt" stroke-miterlimit="10.0">
    <path d="M 113.7033,230.3730 l -0.0000,-20.8686 h -31.3030 l -0.0000,20.8686 Z"/>
  </g>
  <g stroke-linejoin="miter" stroke-opacity="1.0" fill-opacity="0.33" font-size="18.9714860186634px" stroke="rgb(0,0,0)" fill-rule="evenodd" stroke-width="0.0" fill="rgb(0,0,0)" stroke-linecap="butt" stroke-miterlimit="10.0">
    <text dominant-baseline="middle" transform="matrix(1.0000,-0.0000,0.0000,1.0000,98.0518,219.9387)" stroke="none" text-anchor="middle">0,1
    </text>
  </g>
  <g stroke-linejoin="miter" stroke-opacity="1.0" fill-opacity="1.0" stroke="rgb(102,102,102)" stroke-width="0.0" fill="rgb(0,0,0)" stroke-linecap="butt" stroke-miterlimit="10.0">
    <path d="M 99.0652,234.4268 c 0.0000,-0.5597 -0.4537,-1.0134 -1.0134 -1.0134c -0.5597,-0.0000 -1.0134,0.4537 -1.0134 1.0134c -0.0000,0.5597 0.4537,1.0134 1.0134 1.0134c 0.5597,0.0000 1.0134,-0.4537 1.0134 -1.0134Z"/>
  </g>
  <g stroke-linejoin="miter" stroke-opacity="0.0" fill-opacity="0.0" stroke="rgb(0,0,0)" fill-rule="evenodd" stroke-width="0.0" fill="rgb(0,0,0)" stroke-linecap="butt" stroke-miterlimit="10.0">
    <path d="M 113.7033,270.9104 l -0.0000,-20.8686 h -31.3030 l -0.0000,20.8686 Z"/>
  </g>
  <g stroke-linejoin="miter" stroke-opacity="1.0" fill-opacity="0.33" font-size="18.9714860186634px" stroke="rgb(0,0,0)" fill-rule="evenodd" stroke-width="0.0" fill="rgb(0,0,0)" stroke-linecap="butt" stroke-miterlimit="10.0">
    <text dominant-baseline="middle" transform="matrix(1.0000,-0.0000,0.0000,1.0000,98.0518,260.4761)" stroke="none" text-anchor="middle">0,0
    </text>
  </g>
  <g stroke-linejoin="miter" stroke-opacity="1.0" fill-opacity="1.0" stroke="rgb(102,102,102)" stroke-width="0.0" fill="rgb(0,0,0)" stroke-linecap="butt" stroke-miterlimit="10.0">
    <path d="M 99.0652,274.9641 c 0.0000,-0.5597 -0.4537,-1.0134 -1.0134 -1.0134c -0.5597,-0.0000 -1.0134,0.4537 -1.0134 1.0134c -0.0000,0.5597 0.4537,1.0134 1.0134 1.0134c 0.5597,0.0000 1.0134,-0.4537 1.0134 -1.0134Z"/>
  </g>
  <g stroke-linejoin="miter" stroke-opacity="0.0" fill-opacity="0.0" stroke="rgb(0,0,0)" fill-rule="evenodd" stroke-width="0.0" fill="rgb(0,0,0)" stroke-linecap="butt" stroke-miterlimit="10.0">
    <path d="M 402.0820,336.3701 l -0.0000,-20.8686 h -365.2011 l -0.0000,20.8686 Z"/>
  </g>
  <g stroke-linejoin="miter" stroke-opacity="1.0" fill-opacity="1.0" font-size="18.9714860186634px" stroke="rgb(0,0,0)" fill-rule="evenodd" stroke-width="0.0" fill="rgb(31,119,180)" stroke-linecap="butt" stroke-miterlimit="10.0">
    <text dominant-baseline="middle" transform="matrix(1.0000,-0.0000,0.0000,1.0000,402.0820,325.9358)" stroke="none" text-anchor="end">A GLine is a glyph-line combination
    </text>
  </g>
  <g stroke-linejoin="miter" stroke-opacity="0.0" fill-opacity="0.0" stroke="rgb(0,0,0)" fill-rule="evenodd" stroke-width="0.0" fill="rgb(0,0,0)" stroke-linecap="butt" stroke-miterlimit="10.0">
    <path d="M 57.5144,83.6683 l -34.7811,0.0000 l -0.0000,191.2958 l 34.7811,0.0000 Z"/>
  </g>
  <g stroke-linejoin="miter" stroke-opacity="1.0" fill-opacity="1.0" font-size="31.619143364439005px" stroke="rgb(0,0,0)" fill-rule="evenodd" stroke-width="0.0" fill="rgb(31,119,180)" stroke-linecap="butt" stroke-miterlimit="10.0">
    <text dominant-baseline="middle" transform="matrix(0.0000,-1.0000,1.0000,0.0000,40.1239,274.9641)" stroke="none" text-anchor="start">Gline Chart
    </text>
  </g>
  <g stroke-linejoin="miter" stroke-opacity="0.0" fill-opacity="0.0" stroke="rgb(0,0,0)" fill-rule="evenodd" stroke-width="0.0" fill="rgb(0,0,0)" stroke-linecap="butt" stroke-miterlimit="10.0">
    <path d="M 545.0897,271.5358 l -0.0000,-17.3905 h -52.1716 l -0.0000,17.3905 Z"/>
  </g>
  <g stroke-linejoin="miter" stroke-opacity="1.0" fill-opacity="0.63" font-size="15.809571682219502px" stroke="rgb(0,0,0)" fill-rule="evenodd" stroke-width="0.0" fill="rgb(0,0,0)" stroke-linecap="butt" stroke-miterlimit="10.0">
    <text dominant-baseline="middle" transform="matrix(1.0000,-0.0000,0.0000,1.0000,519.0039,262.8405)" stroke="none" text-anchor="middle">circle
    </text>
  </g>
  <g stroke-linejoin="miter" stroke-opacity="1.0" fill-opacity="0.0" stroke="rgb(52,41,137)" stroke-width="4.27988405853979" fill="rgb(0,0,0)" stroke-linecap="butt" stroke-miterlimit="10.0">
    <path d="M 448.3270,261.2596 h 40.5374 "/>
  </g>
  <g stroke-linejoin="miter" stroke-opacity="1.0" fill-opacity="0.2" stroke="rgb(44,160,44)" stroke-width="2.139942029269895" fill="rgb(16,75,16)" stroke-linecap="butt" stroke-miterlimit="10.0">
    <path d="M 476.7032,261.2596 c 0.0000,-4.4776 -3.6298,-8.1075 -8.1075 -8.1075c -4.4776,-0.0000 -8.1075,3.6298 -8.1075 8.1075c -0.0000,4.4776 3.6298,8.1075 8.1075 8.1075c 4.4776,0.0000 8.1075,-3.6298 8.1075 -8.1075Z"/>
  </g>
  <g stroke-linejoin="miter" stroke-opacity="0.0" fill-opacity="0.0" stroke="rgb(0,0,0)" fill-rule="evenodd" stroke-width="0.0" fill="rgb(0,0,0)" stroke-linecap="butt" stroke-miterlimit="10.0">
    <path d="M 545.0897,247.0715 l -0.0000,-17.3905 h -52.1716 l -0.0000,17.3905 Z"/>
  </g>
  <g stroke-linejoin="miter" stroke-opacity="1.0" fill-opacity="0.63" font-size="15.809571682219502px" stroke="rgb(0,0,0)" fill-rule="evenodd" stroke-width="0.0" fill="rgb(0,0,0)" stroke-linecap="butt" stroke-miterlimit="10.0">
    <text dominant-baseline="middle" transform="matrix(1.0000,-0.0000,0.0000,1.0000,519.0039,238.3762)" stroke="none" text-anchor="middle">square
    </text>
  </g>
  <g stroke-linejoin="miter" stroke-opacity="0.6" fill-opacity="0.0" stroke="rgb(60,127,43)" stroke-width="12.839652175619369" fill="rgb(0,0,0)" stroke-linecap="butt" stroke-miterlimit="10.0">
    <path d="M 448.3270,236.7953 h 40.5374 "/>
  </g>
  <g stroke-linejoin="miter" stroke-opacity="1.0" fill-opacity="0.2" stroke="rgb(188,189,34)" stroke-width="2.139942029269895" fill="rgb(89,90,11)" stroke-linecap="butt" stroke-miterlimit="10.0">
    <path d="M 476.7032,244.9028 l -0.0000,-16.2149 h -16.2149 l -0.0000,16.2149 Z"/>
  </g>
  <g stroke-linejoin="miter" stroke-opacity="0.0" fill-opacity="0.0" stroke="rgb(0,0,0)" fill-rule="evenodd" stroke-width="0.0" fill="rgb(0,0,0)" stroke-linecap="butt" stroke-miterlimit="10.0">
    <path d="M 562.4802,222.6072 l -0.0000,-17.3905 h -69.5621 l -0.0000,17.3905 Z"/>
  </g>
  <g stroke-linejoin="miter" stroke-opacity="1.0" fill-opacity="0.63" font-size="15.809571682219502px" stroke="rgb(0,0,0)" fill-rule="evenodd" stroke-width="0.0" fill="rgb(0,0,0)" stroke-linecap="butt" stroke-miterlimit="10.0">
    <text dominant-baseline="middle" transform="matrix(1.0000,-0.0000,0.0000,1.0000,527.6992,213.9119)" stroke="none" text-anchor="middle">triangle
    </text>
  </g>
  <g stroke-linejoin="miter" stroke-opacity="0.6" fill-opacity="0.0" stroke="rgb(197,130,75)" stroke-width="6.4198260878096844" fill="rgb(0,0,0)" stroke-linecap="butt" stroke-miterlimit="10.0">
    <path d="M 448.3270,212.3310 h 40.5374 "/>
  </g>
  <g stroke-linejoin="miter" stroke-opacity="1.0" fill-opacity="0.2" stroke="rgb(227,119,194)" stroke-width="2.139942029269895" fill="rgb(109,54,92)" stroke-linecap="butt" stroke-miterlimit="10.0">
    <path d="M 476.7032,217.0118 l -8.1075,-14.0426 l -8.1075,14.0426 Z"/>
  </g>
  <g stroke-linejoin="miter" stroke-opacity="0.2" fill-opacity="0.0" stroke="rgb(0,0,0)" stroke-width="0.8559768117079579" fill="rgb(0,0,0)" stroke-linecap="butt" stroke-miterlimit="10.0">
    <path d="M 568.1879,274.9641 l -0.0000,-75.4232 h -125.5685 l -0.0000,75.4232 Z"/>
  </g>
  <g stroke-linejoin="miter" stroke-opacity="0.0" fill-opacity="0.0" stroke="rgb(0,0,0)" stroke-width="0.0" fill="rgb(0,0,0)" stroke-linecap="butt" stroke-miterlimit="10.0">
    <path d="M 402.0820,274.9641 l -0.0000,-202.6868 h -304.0302 l -0.0000,202.6868 Z"/>
  </g>
  <g stroke-linejoin="miter" stroke-opacity="1.0" fill-opacity="0.0" stroke="rgb(52,41,137)" stroke-width="4.27988405853979" fill="rgb(0,0,0)" stroke-linecap="butt" stroke-miterlimit="10.0">
    <path d="M 128.4548,112.8147 v 162.1495 "/>
  </g>
  <g stroke-linejoin="miter" stroke-opacity="1.0" fill-opacity="0.2" stroke="rgb(44,160,44)" stroke-width="2.139942029269895" fill="rgb(16,75,16)" stroke-linecap="butt" stroke-miterlimit="10.0">
    <path d="M 136.5623,274.9641 c 0.0000,-4.4776 -3.6298,-8.1075 -8.1075 -8.1075c -4.4776,-0.0000 -8.1075,3.6298 -8.1075 8.1075c -0.0000,4.4776 3.6298,8.1075 8.1075 8.1075c 4.4776,0.0000 8.1075,-3.6298 8.1075 -8.1075Z"/>
  </g>
  <g stroke-linejoin="miter" stroke-opacity="1.0" fill-opacity="0.2" stroke="rgb(44,160,44)" stroke-width="2.139942029269895" fill="rgb(16,75,16)" stroke-linecap="butt" stroke-miterlimit="10.0">
    <path d="M 136.5623,112.8147 c 0.0000,-4.4776 -3.6298,-8.1075 -8.1075 -8.1075c -4.4776,-0.0000 -8.1075,3.6298 -8.1075 8.1075c -0.0000,4.4776 3.6298,8.1075 8.1075 8.1075c 4.4776,0.0000 8.1075,-3.6298 8.1075 -8.1075Z"/>
  </g>
  <g stroke-linejoin="miter" stroke-opacity="0.6" fill-opacity="0.0" stroke="rgb(60,127,43)" stroke-width="12.839652175619369" fill="rgb(0,0,0)" stroke-linecap="butt" stroke-miterlimit="10.0">
    <path d="M 98.0518,274.9641 l 182.4181,-121.6121 "/>
  </g>
  <g stroke-linejoin="miter" stroke-opacity="1.0" fill-opacity="0.2" stroke="rgb(188,189,34)" stroke-width="2.139942029269895" fill="rgb(89,90,11)" stroke-linecap="butt" stroke-miterlimit="10.0">
    <path d="M 288.5774,161.4595 l -0.0000,-16.2149 h -16.2149 l -0.0000,16.2149 Z"/>
  </g>
  <g stroke-linejoin="miter" stroke-opacity="1.0" fill-opacity="0.2" stroke="rgb(188,189,34)" stroke-width="2.139942029269895" fill="rgb(89,90,11)" stroke-linecap="butt" stroke-miterlimit="10.0">
    <path d="M 106.1592,283.0716 l -0.0000,-16.2149 h -16.2149 l -0.0000,16.2149 Z"/>
  </g>
  <g stroke-linejoin="miter" stroke-opacity="0.6" fill-opacity="0.0" stroke="rgb(197,130,75)" stroke-width="6.4198260878096844" fill="rgb(0,0,0)" stroke-linecap="butt" stroke-miterlimit="10.0">
    <path d="M 98.0518,234.4268 h 60.8060 l 60.8060,-162.1495 "/>
  </g>
  <g stroke-linejoin="miter" stroke-opacity="1.0" fill-opacity="0.2" stroke="rgb(227,119,194)" stroke-width="2.139942029269895" fill="rgb(109,54,92)" stroke-linecap="butt" stroke-miterlimit="10.0">
    <path d="M 227.7713,76.9582 l -8.1075,-14.0426 l -8.1075,14.0426 Z"/>
  </g>
  <g stroke-linejoin="miter" stroke-opacity="1.0" fill-opacity="0.2" stroke="rgb(227,119,194)" stroke-width="2.139942029269895" fill="rgb(109,54,92)" stroke-linecap="butt" stroke-miterlimit="10.0">
    <path d="M 166.9653,239.1076 l -8.1075,-14.0426 l -8.1075,14.0426 Z"/>
  </g>
  <g stroke-linejoin="miter" stroke-opacity="1.0" fill-opacity="0.2" stroke="rgb(227,119,194)" stroke-width="2.139942029269895" fill="rgb(109,54,92)" stroke-linecap="butt" stroke-miterlimit="10.0">
    <path d="M 106.1592,239.1076 l -8.1075,-14.0426 l -8.1075,14.0426 Z"/>
  </g>
</svg>