<?xml version="1.0" encoding="UTF-8"?>
<!DOCTYPE svg PUBLIC "-//W3C//DTD SVG 1.1//EN"
    "http://www.w3.org/Graphics/SVG/1.1/DTD/svg11.dtd">
<svg xmlns="http://www.w3.org/2000/svg" height="400.0000" stroke-opacity="1" viewBox="0 0 600 400" font-size="1" width="600.0000" xmlns:xlink="http://www.w3.org/1999/xlink" stroke="rgb(0,0,0)" version="1.1">
  <defs>
  </defs>
  <g stroke-linejoin="miter" stroke-opacity="1.0" fill-opacity="0.4" stroke="rgb(102,102,102)" stroke-width="0.3841076308332894" fill="rgb(170,154,0)" stroke-linecap="butt" stroke-miterlimit="10.0">
    <path d="M 517.7711,89.1887 l -7.0077,-12.1376 l -7.0077,12.1376 Z"/>
  </g>
  <g stroke-linejoin="miter" stroke-opacity="1.0" fill-opacity="0.4" stroke="rgb(102,102,102)" stroke-width="0.3841076308332894" fill="rgb(170,154,0)" stroke-linecap="butt" stroke-miterlimit="10.0">
    <path d="M 503.7558,90.7201 l -7.0077,-12.1376 l -7.0077,12.1376 Z"/>
  </g>
  <g stroke-linejoin="miter" stroke-opacity="1.0" fill-opacity="0.4" stroke="rgb(102,102,102)" stroke-width="0.3841076308332894" fill="rgb(170,154,0)" stroke-linecap="butt" stroke-miterlimit="10.0">
    <path d="M 489.7405,95.2472 l -7.0077,-12.1376 l -7.0077,12.1376 Z"/>
  </g>
  <g stroke-linejoin="miter" stroke-opacity="1.0" fill-opacity="0.4" stroke="rgb(102,102,102)" stroke-width="0.3841076308332894" fill="rgb(170,154,0)" stroke-linecap="butt" stroke-miterlimit="10.0">
    <path d="M 475.7251,102.5722 l -7.0077,-12.1376 l -7.0077,12.1376 Z"/>
  </g>
  <g stroke-linejoin="miter" stroke-opacity="1.0" fill-opacity="0.4" stroke="rgb(102,102,102)" stroke-width="0.3841076308332894" fill="rgb(170,154,0)" stroke-linecap="butt" stroke-miterlimit="10.0">
    <path d="M 461.7098,112.3750 l -7.0077,-12.1376 l -7.0077,12.1376 Z"/>
  </g>
  <g stroke-linejoin="miter" stroke-opacity="1.0" fill-opacity="0.4" stroke="rgb(102,102,102)" stroke-width="0.3841076308332894" fill="rgb(170,154,0)" stroke-linecap="butt" stroke-miterlimit="10.0">
    <path d="M 447.6945,124.2271 l -7.0077,-12.1376 l -7.0077,12.1376 Z"/>
  </g>
  <g stroke-linejoin="miter" stroke-opacity="1.0" fill-opacity="0.4" stroke="rgb(102,102,102)" stroke-width="0.3841076308332894" fill="rgb(170,154,0)" stroke-linecap="butt" stroke-miterlimit="10.0">
    <path d="M 433.6791,137.6105 l -7.0077,-12.1376 l -7.0077,12.1376 Z"/>
  </g>
  <g stroke-linejoin="miter" stroke-opacity="1.0" fill-opacity="0.4" stroke="rgb(102,102,102)" stroke-width="0.3841076308332894" fill="rgb(170,154,0)" stroke-linecap="butt" stroke-miterlimit="10.0">
    <path d="M 419.6638,151.9404 l -7.0077,-12.1376 l -7.0077,12.1376 Z"/>
  </g>
  <g stroke-linejoin="miter" stroke-opacity="1.0" fill-opacity="0.4" stroke="rgb(102,102,102)" stroke-width="0.3841076308332894" fill="rgb(170,154,0)" stroke-linecap="butt" stroke-miterlimit="10.0">
    <path d="M 405.6485,166.5904 l -7.0077,-12.1376 l -7.0077,12.1376 Z"/>
  </g>
  <g stroke-linejoin="miter" stroke-opacity="1.0" fill-opacity="0.4" stroke="rgb(102,102,102)" stroke-width="0.3841076308332894" fill="rgb(170,154,0)" stroke-linecap="butt" stroke-miterlimit="10.0">
    <path d="M 391.6331,180.9203 l -7.0077,-12.1376 l -7.0077,12.1376 Z"/>
  </g>
  <g stroke-linejoin="miter" stroke-opacity="1.0" fill-opacity="0.4" stroke="rgb(102,102,102)" stroke-width="0.3841076308332894" fill="rgb(170,154,0)" stroke-linecap="butt" stroke-miterlimit="10.0">
    <path d="M 377.6178,194.3038 l -7.0077,-12.1376 l -7.0077,12.1376 Z"/>
  </g>
  <g stroke-linejoin="miter" stroke-opacity="1.0" fill-opacity="0.4" stroke="rgb(102,102,102)" stroke-width="0.3841076308332894" fill="rgb(170,154,0)" stroke-linecap="butt" stroke-miterlimit="10.0">
    <path d="M 363.6025,206.1559 l -7.0077,-12.1376 l -7.0077,12.1376 Z"/>
  </g>
  <g stroke-linejoin="miter" stroke-opacity="1.0" fill-opacity="0.4" stroke="rgb(102,102,102)" stroke-width="0.3841076308332894" fill="rgb(170,154,0)" stroke-linecap="butt" stroke-miterlimit="10.0">
    <path d="M 349.5871,215.9586 l -7.0077,-12.1376 l -7.0077,12.1376 Z"/>
  </g>
  <g stroke-linejoin="miter" stroke-opacity="1.0" fill-opacity="0.4" stroke="rgb(102,102,102)" stroke-width="0.3841076308332894" fill="rgb(170,154,0)" stroke-linecap="butt" stroke-miterlimit="10.0">
    <path d="M 335.5718,223.2836 l -7.0077,-12.1376 l -7.0077,12.1376 Z"/>
  </g>
  <g stroke-linejoin="miter" stroke-opacity="1.0" fill-opacity="0.4" stroke="rgb(102,102,102)" stroke-width="0.3841076308332894" fill="rgb(170,154,0)" stroke-linecap="butt" stroke-miterlimit="10.0">
    <path d="M 321.5565,227.8107 l -7.0077,-12.1376 l -7.0077,12.1376 Z"/>
  </g>
  <g stroke-linejoin="miter" stroke-opacity="1.0" fill-opacity="0.4" stroke="rgb(102,102,102)" stroke-width="0.3841076308332894" fill="rgb(170,154,0)" stroke-linecap="butt" stroke-miterlimit="10.0">
    <path d="M 307.5411,229.3421 l -7.0077,-12.1376 l -7.0077,12.1376 Z"/>
  </g>
  <g stroke-linejoin="miter" stroke-opacity="1.0" fill-opacity="0.4" stroke="rgb(102,102,102)" stroke-width="0.3841076308332894" fill="rgb(170,154,0)" stroke-linecap="butt" stroke-miterlimit="10.0">
    <path d="M 293.5258,227.8107 l -7.0077,-12.1376 l -7.0077,12.1376 Z"/>
  </g>
  <g stroke-linejoin="miter" stroke-opacity="1.0" fill-opacity="0.4" stroke="rgb(102,102,102)" stroke-width="0.3841076308332894" fill="rgb(170,154,0)" stroke-linecap="butt" stroke-miterlimit="10.0">
    <path d="M 279.5104,223.2836 l -7.0077,-12.1376 l -7.0077,12.1376 Z"/>
  </g>
  <g stroke-linejoin="miter" stroke-opacity="1.0" fill-opacity="0.4" stroke="rgb(102,102,102)" stroke-width="0.3841076308332894" fill="rgb(170,154,0)" stroke-linecap="butt" stroke-miterlimit="10.0">
    <path d="M 265.4951,215.9586 l -7.0077,-12.1376 l -7.0077,12.1376 Z"/>
  </g>
  <g stroke-linejoin="miter" stroke-opacity="1.0" fill-opacity="0.4" stroke="rgb(102,102,102)" stroke-width="0.3841076308332894" fill="rgb(170,154,0)" stroke-linecap="butt" stroke-miterlimit="10.0">
    <path d="M 251.4798,206.1559 l -7.0077,-12.1376 l -7.0077,12.1376 Z"/>
  </g>
  <g stroke-linejoin="miter" stroke-opacity="1.0" fill-opacity="0.4" stroke="rgb(102,102,102)" stroke-width="0.3841076308332894" fill="rgb(170,154,0)" stroke-linecap="butt" stroke-miterlimit="10.0">
    <path d="M 237.4644,194.3038 l -7.0077,-12.1376 l -7.0077,12.1376 Z"/>
  </g>
  <g stroke-linejoin="miter" stroke-opacity="1.0" fill-opacity="0.4" stroke="rgb(102,102,102)" stroke-width="0.3841076308332894" fill="rgb(170,154,0)" stroke-linecap="butt" stroke-miterlimit="10.0">
    <path d="M 223.4491,180.9203 l -7.0077,-12.1376 l -7.0077,12.1376 Z"/>
  </g>
  <g stroke-linejoin="miter" stroke-opacity="1.0" fill-opacity="0.4" stroke="rgb(102,102,102)" stroke-width="0.3841076308332894" fill="rgb(170,154,0)" stroke-linecap="butt" stroke-miterlimit="10.0">
    <path d="M 209.4338,166.5904 l -7.0077,-12.1376 l -7.0077,12.1376 Z"/>
  </g>
  <g stroke-linejoin="miter" stroke-opacity="1.0" fill-opacity="0.4" stroke="rgb(102,102,102)" stroke-width="0.3841076308332894" fill="rgb(170,154,0)" stroke-linecap="butt" stroke-miterlimit="10.0">
    <path d="M 195.4184,151.9404 l -7.0077,-12.1376 l -7.0077,12.1376 Z"/>
  </g>
  <g stroke-linejoin="miter" stroke-opacity="1.0" fill-opacity="0.4" stroke="rgb(102,102,102)" stroke-width="0.3841076308332894" fill="rgb(170,154,0)" stroke-linecap="butt" stroke-miterlimit="10.0">
    <path d="M 181.4031,137.6105 l -7.0077,-12.1376 l -7.0077,12.1376 Z"/>
  </g>
  <g stroke-linejoin="miter" stroke-opacity="1.0" fill-opacity="0.4" stroke="rgb(102,102,102)" stroke-width="0.3841076308332894" fill="rgb(170,154,0)" stroke-linecap="butt" stroke-miterlimit="10.0">
    <path d="M 167.3878,124.2271 l -7.0077,-12.1376 l -7.0077,12.1376 Z"/>
  </g>
  <g stroke-linejoin="miter" stroke-opacity="1.0" fill-opacity="0.4" stroke="rgb(102,102,102)" stroke-width="0.3841076308332894" fill="rgb(170,154,0)" stroke-linecap="butt" stroke-miterlimit="10.0">
    <path d="M 153.3724,112.3750 l -7.0077,-12.1376 l -7.0077,12.1376 Z"/>
  </g>
  <g stroke-linejoin="miter" stroke-opacity="1.0" fill-opacity="0.4" stroke="rgb(102,102,102)" stroke-width="0.3841076308332894" fill="rgb(170,154,0)" stroke-linecap="butt" stroke-miterlimit="10.0">
    <path d="M 139.3571,102.5722 l -7.0077,-12.1376 l -7.0077,12.1376 Z"/>
  </g>
  <g stroke-linejoin="miter" stroke-opacity="1.0" fill-opacity="0.4" stroke="rgb(102,102,102)" stroke-width="0.3841076308332894" fill="rgb(170,154,0)" stroke-linecap="butt" stroke-miterlimit="10.0">
    <path d="M 125.3418,95.2472 l -7.0077,-12.1376 l -7.0077,12.1376 Z"/>
  </g>
  <g stroke-linejoin="miter" stroke-opacity="1.0" fill-opacity="0.4" stroke="rgb(102,102,102)" stroke-width="0.3841076308332894" fill="rgb(170,154,0)" stroke-linecap="butt" stroke-miterlimit="10.0">
    <path d="M 111.3264,90.7201 l -7.0077,-12.1376 l -7.0077,12.1376 Z"/>
  </g>
  <g stroke-linejoin="miter" stroke-opacity="1.0" fill-opacity="0.4" stroke="rgb(102,102,102)" stroke-width="0.3841076308332894" fill="rgb(170,154,0)" stroke-linecap="butt" stroke-miterlimit="10.0">
    <path d="M 97.3111,89.1887 l -7.0077,-12.1376 l -7.0077,12.1376 Z"/>
  </g>
  <g stroke-linejoin="miter" stroke-opacity="1.0" fill-opacity="0.5" stroke="rgb(102,102,102)" stroke-width="0.3841076308332894" fill="rgb(93,165,218)" stroke-linecap="butt" stroke-miterlimit="10.0">
    <path d="M 517.7711,155.2195 c 0.0000,-3.8702 -3.1374,-7.0077 -7.0077 -7.0077c -3.8702,-0.0000 -7.0077,3.1374 -7.0077 7.0077c -0.0000,3.8702 3.1374,7.0077 7.0077 7.0077c 3.8702,0.0000 7.0077,-3.1374 7.0077 -7.0077Z"/>
  </g>
  <g stroke-linejoin="miter" stroke-opacity="1.0" fill-opacity="0.5" stroke="rgb(102,102,102)" stroke-width="0.3841076308332894" fill="rgb(93,165,218)" stroke-linecap="butt" stroke-miterlimit="10.0">
    <path d="M 503.7558,169.7893 c 0.0000,-3.8702 -3.1374,-7.0077 -7.0077 -7.0077c -3.8702,-0.0000 -7.0077,3.1374 -7.0077 7.0077c -0.0000,3.8702 3.1374,7.0077 7.0077 7.0077c 3.8702,0.0000 7.0077,-3.1374 7.0077 -7.0077Z"/>
  </g>
  <g stroke-linejoin="miter" stroke-opacity="1.0" fill-opacity="0.5" stroke="rgb(102,102,102)" stroke-width="0.3841076308332894" fill="rgb(93,165,218)" stroke-linecap="butt" stroke-miterlimit="10.0">
    <path d="M 489.7405,183.7223 c 0.0000,-3.8702 -3.1374,-7.0077 -7.0077 -7.0077c -3.8702,-0.0000 -7.0077,3.1374 -7.0077 7.0077c -0.0000,3.8702 3.1374,7.0077 7.0077 7.0077c 3.8702,0.0000 7.0077,-3.1374 7.0077 -7.0077Z"/>
  </g>
  <g stroke-linejoin="miter" stroke-opacity="1.0" fill-opacity="0.5" stroke="rgb(102,102,102)" stroke-width="0.3841076308332894" fill="rgb(93,165,218)" stroke-linecap="butt" stroke-miterlimit="10.0">
    <path d="M 475.7251,196.4096 c 0.0000,-3.8702 -3.1374,-7.0077 -7.0077 -7.0077c -3.8702,-0.0000 -7.0077,3.1374 -7.0077 7.0077c -0.0000,3.8702 3.1374,7.0077 7.0077 7.0077c 3.8702,0.0000 7.0077,-3.1374 7.0077 -7.0077Z"/>
  </g>
  <g stroke-linejoin="miter" stroke-opacity="1.0" fill-opacity="0.5" stroke="rgb(102,102,102)" stroke-width="0.3841076308332894" fill="rgb(93,165,218)" stroke-linecap="butt" stroke-miterlimit="10.0">
    <path d="M 461.7098,207.2967 c 0.0000,-3.8702 -3.1374,-7.0077 -7.0077 -7.0077c -3.8702,-0.0000 -7.0077,3.1374 -7.0077 7.0077c -0.0000,3.8702 3.1374,7.0077 7.0077 7.0077c 3.8702,0.0000 7.0077,-3.1374 7.0077 -7.0077Z"/>
  </g>
  <g stroke-linejoin="miter" stroke-opacity="1.0" fill-opacity="0.5" stroke="rgb(102,102,102)" stroke-width="0.3841076308332894" fill="rgb(93,165,218)" stroke-linecap="butt" stroke-miterlimit="10.0">
    <path d="M 447.6945,215.9077 c 0.0000,-3.8702 -3.1374,-7.0077 -7.0077 -7.0077c -3.8702,-0.0000 -7.0077,3.1374 -7.0077 7.0077c -0.0000,3.8702 3.1374,7.0077 7.0077 7.0077c 3.8702,0.0000 7.0077,-3.1374 7.0077 -7.0077Z"/>
  </g>
  <g stroke-linejoin="miter" stroke-opacity="1.0" fill-opacity="0.5" stroke="rgb(102,102,102)" stroke-width="0.3841076308332894" fill="rgb(93,165,218)" stroke-linecap="butt" stroke-miterlimit="10.0">
    <path d="M 433.6791,221.8664 c 0.0000,-3.8702 -3.1374,-7.0077 -7.0077 -7.0077c -3.8702,-0.0000 -7.0077,3.1374 -7.0077 7.0077c -0.0000,3.8702 3.1374,7.0077 7.0077 7.0077c 3.8702,0.0000 7.0077,-3.1374 7.0077 -7.0077Z"/>
  </g>
  <g stroke-linejoin="miter" stroke-opacity="1.0" fill-opacity="0.5" stroke="rgb(102,102,102)" stroke-width="0.3841076308332894" fill="rgb(93,165,218)" stroke-linecap="butt" stroke-miterlimit="10.0">
    <path d="M 419.6638,224.9123 c 0.0000,-3.8702 -3.1374,-7.0077 -7.0077 -7.0077c -3.8702,-0.0000 -7.0077,3.1374 -7.0077 7.0077c -0.0000,3.8702 3.1374,7.0077 7.0077 7.0077c 3.8702,0.0000 7.0077,-3.1374 7.0077 -7.0077Z"/>
  </g>
  <g stroke-linejoin="miter" stroke-opacity="1.0" fill-opacity="0.5" stroke="rgb(102,102,102)" stroke-width="0.3841076308332894" fill="rgb(93,165,218)" stroke-linecap="butt" stroke-miterlimit="10.0">
    <path d="M 405.6485,224.9123 c 0.0000,-3.8702 -3.1374,-7.0077 -7.0077 -7.0077c -3.8702,-0.0000 -7.0077,3.1374 -7.0077 7.0077c -0.0000,3.8702 3.1374,7.0077 7.0077 7.0077c 3.8702,0.0000 7.0077,-3.1374 7.0077 -7.0077Z"/>
  </g>
  <g stroke-linejoin="miter" stroke-opacity="1.0" fill-opacity="0.5" stroke="rgb(102,102,102)" stroke-width="0.3841076308332894" fill="rgb(93,165,218)" stroke-linecap="butt" stroke-miterlimit="10.0">
    <path d="M 391.6331,221.8664 c 0.0000,-3.8702 -3.1374,-7.0077 -7.0077 -7.0077c -3.8702,-0.0000 -7.0077,3.1374 -7.0077 7.0077c -0.0000,3.8702 3.1374,7.0077 7.0077 7.0077c 3.8702,0.0000 7.0077,-3.1374 7.0077 -7.0077Z"/>
  </g>
  <g stroke-linejoin="miter" stroke-opacity="1.0" fill-opacity="0.5" stroke="rgb(102,102,102)" stroke-width="0.3841076308332894" fill="rgb(93,165,218)" stroke-linecap="butt" stroke-miterlimit="10.0">
    <path d="M 377.6178,215.9077 c 0.0000,-3.8702 -3.1374,-7.0077 -7.0077 -7.0077c -3.8702,-0.0000 -7.0077,3.1374 -7.0077 7.0077c -0.0000,3.8702 3.1374,7.0077 7.0077 7.0077c 3.8702,0.0000 7.0077,-3.1374 7.0077 -7.0077Z"/>
  </g>
  <g stroke-linejoin="miter" stroke-opacity="1.0" fill-opacity="0.5" stroke="rgb(102,102,102)" stroke-width="0.3841076308332894" fill="rgb(93,165,218)" stroke-linecap="butt" stroke-miterlimit="10.0">
    <path d="M 363.6025,207.2967 c 0.0000,-3.8702 -3.1374,-7.0077 -7.0077 -7.0077c -3.8702,-0.0000 -7.0077,3.1374 -7.0077 7.0077c -0.0000,3.8702 3.1374,7.0077 7.0077 7.0077c 3.8702,0.0000 7.0077,-3.1374 7.0077 -7.0077Z"/>
  </g>
  <g stroke-linejoin="miter" stroke-opacity="1.0" fill-opacity="0.5" stroke="rgb(102,102,102)" stroke-width="0.3841076308332894" fill="rgb(93,165,218)" stroke-linecap="butt" stroke-miterlimit="10.0">
    <path d="M 349.5871,196.4096 c 0.0000,-3.8702 -3.1374,-7.0077 -7.0077 -7.0077c -3.8702,-0.0000 -7.0077,3.1374 -7.0077 7.0077c -0.0000,3.8702 3.1374,7.0077 7.0077 7.0077c 3.8702,0.0000 7.0077,-3.1374 7.0077 -7.0077Z"/>
  </g>
  <g stroke-linejoin="miter" stroke-opacity="1.0" fill-opacity="0.5" stroke="rgb(102,102,102)" stroke-width="0.3841076308332894" fill="rgb(93,165,218)" stroke-linecap="butt" stroke-miterlimit="10.0">
    <path d="M 335.5718,183.7223 c 0.0000,-3.8702 -3.1374,-7.0077 -7.0077 -7.0077c -3.8702,-0.0000 -7.0077,3.1374 -7.0077 7.0077c -0.0000,3.8702 3.1374,7.0077 7.0077 7.0077c 3.8702,0.0000 7.0077,-3.1374 7.0077 -7.0077Z"/>
  </g>
  <g stroke-linejoin="miter" stroke-opacity="1.0" fill-opacity="0.5" stroke="rgb(102,102,102)" stroke-width="0.3841076308332894" fill="rgb(93,165,218)" stroke-linecap="butt" stroke-miterlimit="10.0">
    <path d="M 321.5565,169.7893 c 0.0000,-3.8702 -3.1374,-7.0077 -7.0077 -7.0077c -3.8702,-0.0000 -7.0077,3.1374 -7.0077 7.0077c -0.0000,3.8702 3.1374,7.0077 7.0077 7.0077c 3.8702,0.0000 7.0077,-3.1374 7.0077 -7.0077Z"/>
  </g>
  <g stroke-linejoin="miter" stroke-opacity="1.0" fill-opacity="0.5" stroke="rgb(102,102,102)" stroke-width="0.3841076308332894" fill="rgb(93,165,218)" stroke-linecap="butt" stroke-miterlimit="10.0">
    <path d="M 307.5411,155.2195 c 0.0000,-3.8702 -3.1374,-7.0077 -7.0077 -7.0077c -3.8702,-0.0000 -7.0077,3.1374 -7.0077 7.0077c -0.0000,3.8702 3.1374,7.0077 7.0077 7.0077c 3.8702,0.0000 7.0077,-3.1374 7.0077 -7.0077Z"/>
  </g>
  <g stroke-linejoin="miter" stroke-opacity="1.0" fill-opacity="0.5" stroke="rgb(102,102,102)" stroke-width="0.3841076308332894" fill="rgb(93,165,218)" stroke-linecap="butt" stroke-miterlimit="10.0">
    <path d="M 293.5258,140.6498 c 0.0000,-3.8702 -3.1374,-7.0077 -7.0077 -7.0077c -3.8702,-0.0000 -7.0077,3.1374 -7.0077 7.0077c -0.0000,3.8702 3.1374,7.0077 7.0077 7.0077c 3.8702,0.0000 7.0077,-3.1374 7.0077 -7.0077Z"/>
  </g>
  <g stroke-linejoin="miter" stroke-opacity="1.0" fill-opacity="0.5" stroke="rgb(102,102,102)" stroke-width="0.3841076308332894" fill="rgb(93,165,218)" stroke-linecap="butt" stroke-miterlimit="10.0">
    <path d="M 279.5104,126.7168 c 0.0000,-3.8702 -3.1374,-7.0077 -7.0077 -7.0077c -3.8702,-0.0000 -7.0077,3.1374 -7.0077 7.0077c -0.0000,3.8702 3.1374,7.0077 7.0077 7.0077c 3.8702,0.0000 7.0077,-3.1374 7.0077 -7.0077Z"/>
  </g>
  <g stroke-linejoin="miter" stroke-opacity="1.0" fill-opacity="0.5" stroke="rgb(102,102,102)" stroke-width="0.3841076308332894" fill="rgb(93,165,218)" stroke-linecap="butt" stroke-miterlimit="10.0">
    <path d="M 265.4951,114.0295 c 0.0000,-3.8702 -3.1374,-7.0077 -7.0077 -7.0077c -3.8702,-0.0000 -7.0077,3.1374 -7.0077 7.0077c -0.0000,3.8702 3.1374,7.0077 7.0077 7.0077c 3.8702,0.0000 7.0077,-3.1374 7.0077 -7.0077Z"/>
  </g>
  <g stroke-linejoin="miter" stroke-opacity="1.0" fill-opacity="0.5" stroke="rgb(102,102,102)" stroke-width="0.3841076308332894" fill="rgb(93,165,218)" stroke-linecap="butt" stroke-miterlimit="10.0">
    <path d="M 251.4798,103.1424 c 0.0000,-3.8702 -3.1374,-7.0077 -7.0077 -7.0077c -3.8702,-0.0000 -7.0077,3.1374 -7.0077 7.0077c -0.0000,3.8702 3.1374,7.0077 7.0077 7.0077c 3.8702,0.0000 7.0077,-3.1374 7.0077 -7.0077Z"/>
  </g>
  <g stroke-linejoin="miter" stroke-opacity="1.0" fill-opacity="0.5" stroke="rgb(102,102,102)" stroke-width="0.3841076308332894" fill="rgb(93,165,218)" stroke-linecap="butt" stroke-miterlimit="10.0">
    <path d="M 237.4644,94.5314 c 0.0000,-3.8702 -3.1374,-7.0077 -7.0077 -7.0077c -3.8702,-0.0000 -7.0077,3.1374 -7.0077 7.0077c -0.0000,3.8702 3.1374,7.0077 7.0077 7.0077c 3.8702,0.0000 7.0077,-3.1374 7.0077 -7.0077Z"/>
  </g>
  <g stroke-linejoin="miter" stroke-opacity="1.0" fill-opacity="0.5" stroke="rgb(102,102,102)" stroke-width="0.3841076308332894" fill="rgb(93,165,218)" stroke-linecap="butt" stroke-miterlimit="10.0">
    <path d="M 223.4491,88.5727 c 0.0000,-3.8702 -3.1374,-7.0077 -7.0077 -7.0077c -3.8702,-0.0000 -7.0077,3.1374 -7.0077 7.0077c -0.0000,3.8702 3.1374,7.0077 7.0077 7.0077c 3.8702,0.0000 7.0077,-3.1374 7.0077 -7.0077Z"/>
  </g>
  <g stroke-linejoin="miter" stroke-opacity="1.0" fill-opacity="0.5" stroke="rgb(102,102,102)" stroke-width="0.3841076308332894" fill="rgb(93,165,218)" stroke-linecap="butt" stroke-miterlimit="10.0">
    <path d="M 209.4338,85.5268 c 0.0000,-3.8702 -3.1374,-7.0077 -7.0077 -7.0077c -3.8702,-0.0000 -7.0077,3.1374 -7.0077 7.0077c -0.0000,3.8702 3.1374,7.0077 7.0077 7.0077c 3.8702,0.0000 7.0077,-3.1374 7.0077 -7.0077Z"/>
  </g>
  <g stroke-linejoin="miter" stroke-opacity="1.0" fill-opacity="0.5" stroke="rgb(102,102,102)" stroke-width="0.3841076308332894" fill="rgb(93,165,218)" stroke-linecap="butt" stroke-miterlimit="10.0">
    <path d="M 195.4184,85.5268 c 0.0000,-3.8702 -3.1374,-7.0077 -7.0077 -7.0077c -3.8702,-0.0000 -7.0077,3.1374 -7.0077 7.0077c -0.0000,3.8702 3.1374,7.0077 7.0077 7.0077c 3.8702,0.0000 7.0077,-3.1374 7.0077 -7.0077Z"/>
  </g>
  <g stroke-linejoin="miter" stroke-opacity="1.0" fill-opacity="0.5" stroke="rgb(102,102,102)" stroke-width="0.3841076308332894" fill="rgb(93,165,218)" stroke-linecap="butt" stroke-miterlimit="10.0">
    <path d="M 181.4031,88.5727 c 0.0000,-3.8702 -3.1374,-7.0077 -7.0077 -7.0077c -3.8702,-0.0000 -7.0077,3.1374 -7.0077 7.0077c -0.0000,3.8702 3.1374,7.0077 7.0077 7.0077c 3.8702,0.0000 7.0077,-3.1374 7.0077 -7.0077Z"/>
  </g>
  <g stroke-linejoin="miter" stroke-opacity="1.0" fill-opacity="0.5" stroke="rgb(102,102,102)" stroke-width="0.3841076308332894" fill="rgb(93,165,218)" stroke-linecap="butt" stroke-miterlimit="10.0">
    <path d="M 167.3878,94.5314 c 0.0000,-3.8702 -3.1374,-7.0077 -7.0077 -7.0077c -3.8702,-0.0000 -7.0077,3.1374 -7.0077 7.0077c -0.0000,3.8702 3.1374,7.0077 7.0077 7.0077c 3.8702,0.0000 7.0077,-3.1374 7.0077 -7.0077Z"/>
  </g>
  <g stroke-linejoin="miter" stroke-opacity="1.0" fill-opacity="0.5" stroke="rgb(102,102,102)" stroke-width="0.3841076308332894" fill="rgb(93,165,218)" stroke-linecap="butt" stroke-miterlimit="10.0">
    <path d="M 153.3724,103.1424 c 0.0000,-3.8702 -3.1374,-7.0077 -7.0077 -7.0077c -3.8702,-0.0000 -7.0077,3.1374 -7.0077 7.0077c -0.0000,3.8702 3.1374,7.0077 7.0077 7.0077c 3.8702,0.0000 7.0077,-3.1374 7.0077 -7.0077Z"/>
  </g>
  <g stroke-linejoin="miter" stroke-opacity="1.0" fill-opacity="0.5" stroke="rgb(102,102,102)" stroke-width="0.3841076308332894" fill="rgb(93,165,218)" stroke-linecap="butt" stroke-miterlimit="10.0">
    <path d="M 139.3571,114.0295 c 0.0000,-3.8702 -3.1374,-7.0077 -7.0077 -7.0077c -3.8702,-0.0000 -7.0077,3.1374 -7.0077 7.0077c -0.0000,3.8702 3.1374,7.0077 7.0077 7.0077c 3.8702,0.0000 7.0077,-3.1374 7.0077 -7.0077Z"/>
  </g>
  <g stroke-linejoin="miter" stroke-opacity="1.0" fill-opacity="0.5" stroke="rgb(102,102,102)" stroke-width="0.3841076308332894" fill="rgb(93,165,218)" stroke-linecap="butt" stroke-miterlimit="10.0">
    <path d="M 125.3418,126.7168 c 0.0000,-3.8702 -3.1374,-7.0077 -7.0077 -7.0077c -3.8702,-0.0000 -7.0077,3.1374 -7.0077 7.0077c -0.0000,3.8702 3.1374,7.0077 7.0077 7.0077c 3.8702,0.0000 7.0077,-3.1374 7.0077 -7.0077Z"/>
  </g>
  <g stroke-linejoin="miter" stroke-opacity="1.0" fill-opacity="0.5" stroke="rgb(102,102,102)" stroke-width="0.3841076308332894" fill="rgb(93,165,218)" stroke-linecap="butt" stroke-miterlimit="10.0">
    <path d="M 111.3264,140.6498 c 0.0000,-3.8702 -3.1374,-7.0077 -7.0077 -7.0077c -3.8702,-0.0000 -7.0077,3.1374 -7.0077 7.0077c -0.0000,3.8702 3.1374,7.0077 7.0077 7.0077c 3.8702,0.0000 7.0077,-3.1374 7.0077 -7.0077Z"/>
  </g>
  <g stroke-linejoin="miter" stroke-opacity="1.0" fill-opacity="0.5" stroke="rgb(102,102,102)" stroke-width="0.3841076308332894" fill="rgb(93,165,218)" stroke-linecap="butt" stroke-miterlimit="10.0">
    <path d="M 97.3111,155.2195 c 0.0000,-3.8702 -3.1374,-7.0077 -7.0077 -7.0077c -3.8702,-0.0000 -7.0077,3.1374 -7.0077 7.0077c -0.0000,3.8702 3.1374,7.0077 7.0077 7.0077c 3.8702,0.0000 7.0077,-3.1374 7.0077 -7.0077Z"/>
  </g>
  <g stroke-linejoin="miter" stroke-opacity="0.0" fill-opacity="0.0" stroke="rgb(0,0,0)" fill-rule="evenodd" stroke-width="0.0" fill="rgb(0,0,0)" stroke-linecap="butt" stroke-miterlimit="10.0">
    <path d="M 510.7635,307.7008 l -0.0000,-14.4302 h -303.0340 l -0.0000,14.4302 Z"/>
  </g>
  <g stroke-linejoin="miter" stroke-opacity="1.0" fill-opacity="1.0" font-size="13.11835312287615px" stroke="rgb(0,0,0)" fill-rule="evenodd" stroke-width="0.0" fill="rgb(31,119,180)" stroke-linecap="butt" stroke-miterlimit="10.0">
    <text dominant-baseline="middle" transform="matrix(1.0000,-0.0000,0.0000,1.0000,510.7635,300.4857)" stroke="none" text-anchor="end">text elements cab be svg paths or svg text
    </text>
  </g>
  <g stroke-linejoin="miter" stroke-opacity="0.0" fill-opacity="0.0" stroke="rgb(0,0,0)" fill-rule="evenodd" stroke-width="0.0" fill="rgb(0,0,0)" stroke-linecap="butt" stroke-miterlimit="10.0">
    <path d="M 51.3715,93.0195 l -24.0503,0.0000 l -0.0000,132.2767 l 24.0503,0.0000 Z"/>
  </g>
  <g stroke-linejoin="miter" stroke-opacity="1.0" fill-opacity="1.0" font-size="21.863921871460253px" stroke="rgb(0,0,0)" fill-rule="evenodd" stroke-width="0.0" fill="rgb(31,119,180)" stroke-linecap="butt" stroke-miterlimit="10.0">
    <text dominant-baseline="middle" transform="matrix(0.0000,-1.0000,1.0000,0.0000,39.3464,225.2962)" stroke="none" text-anchor="start">Glyph Chart
    </text>
  </g>
  <g stroke-linejoin="miter" stroke-opacity="0.0" fill-opacity="0.0" stroke="rgb(0,0,0)" fill-rule="evenodd" stroke-width="0.0" fill="rgb(0,0,0)" stroke-linecap="butt" stroke-miterlimit="10.0">
    <path d="M 571.0330,120.3342 l -0.0000,-12.0252 h -18.0377 l -0.0000,12.0252 Z"/>
  </g>
  <g stroke-linejoin="miter" stroke-opacity="1.0" fill-opacity="0.63" font-size="10.931960935730126px" stroke="rgb(0,0,0)" fill-rule="evenodd" stroke-width="0.0" fill="rgb(0,0,0)" stroke-linecap="butt" stroke-miterlimit="10.0">
    <text dominant-baseline="middle" transform="matrix(1.0000,-0.0000,0.0000,1.0000,562.0141,114.3216)" stroke="none" text-anchor="middle">cos
    </text>
  </g>
  <g stroke-linejoin="miter" stroke-opacity="1.0" fill-opacity="0.4" stroke="rgb(102,102,102)" stroke-width="0.3841076308332894" fill="rgb(170,154,0)" stroke-linecap="butt" stroke-miterlimit="10.0">
    <path d="M 550.1922,117.2743 l -7.0077,-12.1376 l -7.0077,12.1376 Z"/>
  </g>
  <g stroke-linejoin="miter" stroke-opacity="0.0" fill-opacity="0.0" stroke="rgb(0,0,0)" fill-rule="evenodd" stroke-width="0.0" fill="rgb(0,0,0)" stroke-linecap="butt" stroke-miterlimit="10.0">
    <path d="M 571.0330,100.9321 l -0.0000,-12.0252 h -18.0377 l -0.0000,12.0252 Z"/>
  </g>
  <g stroke-linejoin="miter" stroke-opacity="1.0" fill-opacity="0.63" font-size="10.931960935730126px" stroke="rgb(0,0,0)" fill-rule="evenodd" stroke-width="0.0" fill="rgb(0,0,0)" stroke-linecap="butt" stroke-miterlimit="10.0">
    <text dominant-baseline="middle" transform="matrix(1.0000,-0.0000,0.0000,1.0000,562.0141,94.9195)" stroke="none" text-anchor="middle">sin
    </text>
  </g>
  <g stroke-linejoin="miter" stroke-opacity="1.0" fill-opacity="0.5" stroke="rgb(102,102,102)" stroke-width="0.3841076308332894" fill="rgb(93,165,218)" stroke-linecap="butt" stroke-miterlimit="10.0">
    <path d="M 550.1922,93.8263 c 0.0000,-3.8702 -3.1374,-7.0077 -7.0077 -7.0077c -3.8702,-0.0000 -7.0077,3.1374 -7.0077 7.0077c -0.0000,3.8702 3.1374,7.0077 7.0077 7.0077c 3.8702,0.0000 7.0077,-3.1374 7.0077 -7.0077Z"/>
  </g>
  <g stroke-linejoin="miter" stroke-opacity="0.2" fill-opacity="0.0" stroke="rgb(0,0,0)" stroke-width="0.7682152616665788" fill="rgb(0,0,0)" stroke-linecap="butt" stroke-miterlimit="10.0">
    <path d="M 572.7758,122.0100 l -0.0000,-36.8671 h -38.3418 l -0.0000,36.8671 Z"/>
  </g>
  <g stroke-linejoin="miter" stroke-opacity="0.0" fill-opacity="0.1" stroke="rgb(0,0,0)" stroke-width="0.0" fill="rgb(0,0,0)" stroke-linecap="butt" stroke-miterlimit="10.0">
    <path d="M 510.7635,242.1146 l -0.0000,-2.8031 h -420.4600 l -0.0000,2.8031 Z"/>
  </g>
  <g stroke-linejoin="miter" stroke-opacity="1.0" fill-opacity="0.6" stroke="rgb(0,0,0)" fill-rule="evenodd" stroke-width="0.0" fill="rgb(0,0,0)" stroke-linecap="butt" stroke-miterlimit="10.0">
    <path d="M 494.1006,275.0562 ZM 496.1279,275.0562 v -1.3608 c 2.2495,-1.9995 3.9852,-3.6103 3.9852 -3.6103c 1.7357,-1.6107 2.9160,-2.9577 2.9160 -2.9577c 1.1803,-1.3469 1.7913,-2.5133 1.7913 -2.5133c 0.6110,-1.1664 0.6110,-2.2773 0.6110 -2.2773c 0.0000,-1.5274 -0.9442,-2.4994 -0.9442 -2.4994c -0.9442,-0.9720 -2.9160,-0.9720 -2.9160 -0.9720c -1.2497,-0.0000 -2.3189,0.6249 -2.3189 0.6249c -1.0692,0.6249 -1.9301,1.5135 -1.9301 1.5135l -1.3053,-1.3053 c 1.1942,-1.2219 2.5689,-1.9579 2.5689 -1.9579c 1.3747,-0.7359 3.2631,-0.7359 3.2631 -0.7359c 1.3330,-0.0000 2.4022,0.3749 2.4022 0.3749c 1.0692,0.3749 1.8190,1.0553 1.8190 1.0553c 0.7498,0.6804 1.1525,1.6524 1.1525 1.6524c 0.4027,0.9720 0.4027,2.1384 0.4027 2.1384c 0.0000,1.2497 -0.5971,2.5133 -0.5971 2.5133c -0.5971,1.2636 -1.6802,2.6105 -1.6802 2.6105c -1.0831,1.3469 -2.5827,2.8049 -2.5827 2.8049c -1.4997,1.4580 -3.3048,3.0965 -3.3048 3.0965l 1.6663,-0.1111 c 0.0000,-0.0000 1.6385,-0.0555 1.6385 -0.0555h 5.8320 v 1.9718 h -12.4694 ZM 510.7635,275.0562 ZM 524.7325,275.3895 c -1.6107,-0.0000 -2.2773,-0.8609 -2.2773 -0.8609c -0.6665,-0.8609 -0.6665,-2.5272 -0.6665 -2.5272c 0.0000,-0.5277 0.0139,-1.5135 0.0139 -1.5135c 0.0139,-0.9859 0.0417,-2.1801 0.0417 -2.1801c 0.0278,-1.1942 0.0555,-2.4717 0.0555 -2.4717c 0.0278,-1.2775 0.0278,-2.3883 0.0278 -2.3883h -5.4710 c 0.0000,2.8605 -0.0972,5.8181 -0.0972 5.8181c -0.0972,2.9577 -0.3194,5.9292 -0.3194 5.9292l -2.2773,-0.1389 c 0.3333,-2.9993 0.4443,-5.9292 0.4443 -5.9292c 0.1111,-2.9299 0.1111,-5.6793 0.1111 -5.6793h -2.8049 v -1.7496 l 1.9162,-0.1389 h 13.2470 v 1.8885 h -2.5550 c -0.0555,1.1386 -0.0972,2.4578 -0.0972 2.4578c -0.0417,1.3191 -0.0694,2.5550 -0.0694 2.5550c -0.0278,1.2358 -0.0278,2.2217 -0.0278 2.2217v 1.4858 c 0.0000,0.7221 0.3055,1.0275 0.3055 1.0275c 0.3055,0.3055 0.9442,0.3055 0.9442 0.3055c 0.1389,-0.0000 0.3055,-0.0417 0.3055 -0.0417c 0.1666,-0.0417 0.4443,-0.1250 0.4443 -0.1250l 0.3333,1.7496 c -0.3055,0.1389 -0.6665,0.2222 -0.6665 0.2222c -0.3610,0.0833 -0.8609,0.0833 -0.8609 0.0833Z"/>
  </g>
  <g stroke-linejoin="miter" stroke-opacity="0.6" fill-opacity="0.0" stroke="rgb(0,0,0)" stroke-width="1.9205381541664472" fill="rgb(0,0,0)" stroke-linecap="butt" stroke-miterlimit="10.0">
    <path d="M 510.7635,239.3115 v 4.2046 "/>
  </g>
  <g stroke-linejoin="miter" stroke-opacity="1.0" fill-opacity="0.6" stroke="rgb(0,0,0)" fill-rule="evenodd" stroke-width="0.0" fill="rgb(0,0,0)" stroke-linecap="butt" stroke-miterlimit="10.0">
    <path d="M 372.3227,275.0562 ZM 380.2931,275.3895 c -2.3050,-0.0000 -3.8602,-0.7637 -3.8602 -0.7637c -1.5552,-0.7637 -2.5272,-1.7357 -2.5272 -1.7357l 1.1664,-1.4997 c 0.8887,0.8331 2.1245,1.4719 2.1245 1.4719c 1.2358,0.6387 2.9577,0.6387 2.9577 0.6387c 0.9165,-0.0000 1.6941,-0.2361 1.6941 -0.2361c 0.7776,-0.2361 1.3469,-0.6526 1.3469 -0.6526c 0.5693,-0.4166 0.8887,-1.0137 0.8887 -1.0137c 0.3194,-0.5971 0.3194,-1.3469 0.3194 -1.3469c 0.0000,-0.7776 -0.3471,-1.4302 -0.3471 -1.4302c -0.3471,-0.6526 -1.1247,-1.1247 -1.1247 -1.1247c -0.7776,-0.4721 -1.9995,-0.7221 -1.9995 -0.7221c -1.2219,-0.2499 -2.9715,-0.2499 -2.9715 -0.2499v -1.7496 c 1.5830,-0.0000 2.6799,-0.2499 2.6799 -0.2499c 1.0970,-0.2499 1.7913,-0.6943 1.7913 -0.6943c 0.6943,-0.4443 1.0137,-1.0553 1.0137 -1.0553c 0.3194,-0.6110 0.3194,-1.3053 0.3194 -1.3053c 0.0000,-1.3053 -0.9859,-2.0551 -0.9859 -2.0551c -0.9859,-0.7498 -2.6244,-0.7498 -2.6244 -0.7498c -1.2497,-0.0000 -2.3606,0.4999 -2.3606 0.4999c -1.1109,0.4999 -1.9995,1.3053 -1.9995 1.3053l -1.2219,-1.4441 c 1.1109,-0.9720 2.5272,-1.5969 2.5272 -1.5969c 1.4163,-0.6249 3.1382,-0.6249 3.1382 -0.6249c 1.2497,-0.0000 2.3189,0.3055 2.3189 0.3055c 1.0692,0.3055 1.8607,0.8748 1.8607 0.8748c 0.7915,0.5693 1.2358,1.4025 1.2358 1.4025c 0.4443,0.8331 0.4443,1.9162 0.4443 1.9162c 0.0000,1.6107 -1.0553,2.6383 -1.0553 2.6383c -1.0553,1.0275 -2.7216,1.5830 -2.7216 1.5830v 0.1111 c 0.8887,0.1944 1.6802,0.5693 1.6802 0.5693c 0.7915,0.3749 1.4025,0.9442 1.4025 0.9442c 0.6110,0.5693 0.9581,1.3191 0.9581 1.3191c 0.3471,0.7498 0.3471,1.6663 0.3471 1.6663c 0.0000,1.1664 -0.4999,2.1106 -0.4999 2.1106c -0.4999,0.9442 -1.3747,1.5969 -1.3747 1.5969c -0.8748,0.6526 -2.0412,0.9998 -2.0412 0.9998c -1.1664,0.3471 -2.4994,0.3471 -2.4994 0.3471ZM 388.9856,275.0562 ZM 402.9546,275.3895 c -1.6107,-0.0000 -2.2773,-0.8609 -2.2773 -0.8609c -0.6665,-0.8609 -0.6665,-2.5272 -0.6665 -2.5272c 0.0000,-0.5277 0.0139,-1.5135 0.0139 -1.5135c 0.0139,-0.9859 0.0417,-2.1801 0.0417 -2.1801c 0.0278,-1.1942 0.0555,-2.4717 0.0555 -2.4717c 0.0278,-1.2775 0.0278,-2.3883 0.0278 -2.3883h -5.4710 c 0.0000,2.8605 -0.0972,5.8181 -0.0972 5.8181c -0.0972,2.9577 -0.3194,5.9292 -0.3194 5.9292l -2.2773,-0.1389 c 0.3333,-2.9993 0.4443,-5.9292 0.4443 -5.9292c 0.1111,-2.9299 0.1111,-5.6793 0.1111 -5.6793h -2.8049 v -1.7496 l 1.9162,-0.1389 h 13.2470 v 1.8885 h -2.5550 c -0.0555,1.1386 -0.0972,2.4578 -0.0972 2.4578c -0.0417,1.3191 -0.0694,2.5550 -0.0694 2.5550c -0.0278,1.2358 -0.0278,2.2217 -0.0278 2.2217v 1.4858 c 0.0000,0.7221 0.3055,1.0275 0.3055 1.0275c 0.3055,0.3055 0.9442,0.3055 0.9442 0.3055c 0.1389,-0.0000 0.3055,-0.0417 0.3055 -0.0417c 0.1666,-0.0417 0.4443,-0.1250 0.4443 -0.1250l 0.3333,1.7496 c -0.3055,0.1389 -0.6665,0.2222 -0.6665 0.2222c -0.3610,0.0833 -0.8609,0.0833 -0.8609 0.0833ZM 405.6485,275.0562 ZM 408.3978,279.4996 l 9.1090,-24.1612 h 2.0551 l -9.1090,24.1612 h -2.0551 ZM 422.3113,275.0562 ZM 424.3387,275.0562 v -1.3608 c 2.2495,-1.9995 3.9852,-3.6103 3.9852 -3.6103c 1.7357,-1.6107 2.9160,-2.9577 2.9160 -2.9577c 1.1803,-1.3469 1.7913,-2.5133 1.7913 -2.5133c 0.6110,-1.1664 0.6110,-2.2773 0.6110 -2.2773c 0.0000,-1.5274 -0.9442,-2.4994 -0.9442 -2.4994c -0.9442,-0.9720 -2.9160,-0.9720 -2.9160 -0.9720c -1.2497,-0.0000 -2.3189,0.6249 -2.3189 0.6249c -1.0692,0.6249 -1.9301,1.5135 -1.9301 1.5135l -1.3053,-1.3053 c 1.1942,-1.2219 2.5689,-1.9579 2.5689 -1.9579c 1.3747,-0.7359 3.2631,-0.7359 3.2631 -0.7359c 1.3330,-0.0000 2.4022,0.3749 2.4022 0.3749c 1.0692,0.3749 1.8190,1.0553 1.8190 1.0553c 0.7498,0.6804 1.1525,1.6524 1.1525 1.6524c 0.4027,0.9720 0.4027,2.1384 0.4027 2.1384c 0.0000,1.2497 -0.5971,2.5133 -0.5971 2.5133c -0.5971,1.2636 -1.6802,2.6105 -1.6802 2.6105c -1.0831,1.3469 -2.5827,2.8049 -2.5827 2.8049c -1.4997,1.4580 -3.3048,3.0965 -3.3048 3.0965l 1.6663,-0.1111 c 0.0000,-0.0000 1.6385,-0.0555 1.6385 -0.0555h 5.8320 v 1.9718 h -12.4694 Z"/>
  </g>
  <g stroke-linejoin="miter" stroke-opacity="0.6" fill-opacity="0.0" stroke="rgb(0,0,0)" stroke-width="1.9205381541664472" fill="rgb(0,0,0)" stroke-linecap="butt" stroke-miterlimit="10.0">
    <path d="M 405.6485,239.3115 v 4.2046 "/>
  </g>
  <g stroke-linejoin="miter" stroke-opacity="1.0" fill-opacity="0.6" stroke="rgb(0,0,0)" fill-rule="evenodd" stroke-width="0.0" fill="rgb(0,0,0)" stroke-linecap="butt" stroke-miterlimit="10.0">
    <path d="M 292.2020,275.0562 ZM 306.1711,275.3895 c -1.6107,-0.0000 -2.2773,-0.8609 -2.2773 -0.8609c -0.6665,-0.8609 -0.6665,-2.5272 -0.6665 -2.5272c 0.0000,-0.5277 0.0139,-1.5135 0.0139 -1.5135c 0.0139,-0.9859 0.0417,-2.1801 0.0417 -2.1801c 0.0278,-1.1942 0.0555,-2.4717 0.0555 -2.4717c 0.0278,-1.2775 0.0278,-2.3883 0.0278 -2.3883h -5.4710 c 0.0000,2.8605 -0.0972,5.8181 -0.0972 5.8181c -0.0972,2.9577 -0.3194,5.9292 -0.3194 5.9292l -2.2773,-0.1389 c 0.3333,-2.9993 0.4443,-5.9292 0.4443 -5.9292c 0.1111,-2.9299 0.1111,-5.6793 0.1111 -5.6793h -2.8049 v -1.7496 l 1.9162,-0.1389 h 13.2470 v 1.8885 h -2.5550 c -0.0555,1.1386 -0.0972,2.4578 -0.0972 2.4578c -0.0417,1.3191 -0.0694,2.5550 -0.0694 2.5550c -0.0278,1.2358 -0.0278,2.2217 -0.0278 2.2217v 1.4858 c 0.0000,0.7221 0.3055,1.0275 0.3055 1.0275c 0.3055,0.3055 0.9442,0.3055 0.9442 0.3055c 0.1389,-0.0000 0.3055,-0.0417 0.3055 -0.0417c 0.1666,-0.0417 0.4443,-0.1250 0.4443 -0.1250l 0.3333,1.7496 c -0.3055,0.1389 -0.6665,0.2222 -0.6665 0.2222c -0.3610,0.0833 -0.8609,0.0833 -0.8609 0.0833Z"/>
  </g>
  <g stroke-linejoin="miter" stroke-opacity="0.6" fill-opacity="0.0" stroke="rgb(0,0,0)" stroke-width="1.9205381541664472" fill="rgb(0,0,0)" stroke-linecap="butt" stroke-miterlimit="10.0">
    <path d="M 300.5335,239.3115 v 4.2046 "/>
  </g>
  <g stroke-linejoin="miter" stroke-opacity="1.0" fill-opacity="0.6" stroke="rgb(0,0,0)" fill-rule="evenodd" stroke-width="0.0" fill="rgb(0,0,0)" stroke-linecap="butt" stroke-miterlimit="10.0">
    <path d="M 170.4241,275.0562 ZM 184.3932,275.3895 c -1.6107,-0.0000 -2.2773,-0.8609 -2.2773 -0.8609c -0.6665,-0.8609 -0.6665,-2.5272 -0.6665 -2.5272c 0.0000,-0.5277 0.0139,-1.5135 0.0139 -1.5135c 0.0139,-0.9859 0.0417,-2.1801 0.0417 -2.1801c 0.0278,-1.1942 0.0555,-2.4717 0.0555 -2.4717c 0.0278,-1.2775 0.0278,-2.3883 0.0278 -2.3883h -5.4710 c 0.0000,2.8605 -0.0972,5.8181 -0.0972 5.8181c -0.0972,2.9577 -0.3194,5.9292 -0.3194 5.9292l -2.2773,-0.1389 c 0.3333,-2.9993 0.4443,-5.9292 0.4443 -5.9292c 0.1111,-2.9299 0.1111,-5.6793 0.1111 -5.6793h -2.8049 v -1.7496 l 1.9162,-0.1389 h 13.2470 v 1.8885 h -2.5550 c -0.0555,1.1386 -0.0972,2.4578 -0.0972 2.4578c -0.0417,1.3191 -0.0694,2.5550 -0.0694 2.5550c -0.0278,1.2358 -0.0278,2.2217 -0.0278 2.2217v 1.4858 c 0.0000,0.7221 0.3055,1.0275 0.3055 1.0275c 0.3055,0.3055 0.9442,0.3055 0.9442 0.3055c 0.1389,-0.0000 0.3055,-0.0417 0.3055 -0.0417c 0.1666,-0.0417 0.4443,-0.1250 0.4443 -0.1250l 0.3333,1.7496 c -0.3055,0.1389 -0.6665,0.2222 -0.6665 0.2222c -0.3610,0.0833 -0.8609,0.0833 -0.8609 0.0833ZM 187.0870,275.0562 ZM 189.8364,279.4996 l 9.1090,-24.1612 h 2.0551 l -9.1090,24.1612 h -2.0551 ZM 203.7499,275.0562 ZM 205.7772,275.0562 v -1.3608 c 2.2495,-1.9995 3.9852,-3.6103 3.9852 -3.6103c 1.7357,-1.6107 2.9160,-2.9577 2.9160 -2.9577c 1.1803,-1.3469 1.7913,-2.5133 1.7913 -2.5133c 0.6110,-1.1664 0.6110,-2.2773 0.6110 -2.2773c 0.0000,-1.5274 -0.9442,-2.4994 -0.9442 -2.4994c -0.9442,-0.9720 -2.9160,-0.9720 -2.9160 -0.9720c -1.2497,-0.0000 -2.3189,0.6249 -2.3189 0.6249c -1.0692,0.6249 -1.9301,1.5135 -1.9301 1.5135l -1.3053,-1.3053 c 1.1942,-1.2219 2.5689,-1.9579 2.5689 -1.9579c 1.3747,-0.7359 3.2631,-0.7359 3.2631 -0.7359c 1.3330,-0.0000 2.4022,0.3749 2.4022 0.3749c 1.0692,0.3749 1.8190,1.0553 1.8190 1.0553c 0.7498,0.6804 1.1525,1.6524 1.1525 1.6524c 0.4027,0.9720 0.4027,2.1384 0.4027 2.1384c 0.0000,1.2497 -0.5971,2.5133 -0.5971 2.5133c -0.5971,1.2636 -1.6802,2.6105 -1.6802 2.6105c -1.0831,1.3469 -2.5827,2.8049 -2.5827 2.8049c -1.4997,1.4580 -3.3048,3.0965 -3.3048 3.0965l 1.6663,-0.1111 c 0.0000,-0.0000 1.6385,-0.0555 1.6385 -0.0555h 5.8320 v 1.9718 h -12.4694 Z"/>
  </g>
  <g stroke-linejoin="miter" stroke-opacity="0.6" fill-opacity="0.0" stroke="rgb(0,0,0)" stroke-width="1.9205381541664472" fill="rgb(0,0,0)" stroke-linecap="butt" stroke-miterlimit="10.0">
    <path d="M 195.4184,239.3115 v 4.2046 "/>
  </g>
  <g stroke-linejoin="miter" stroke-opacity="1.0" fill-opacity="0.6" stroke="rgb(0,0,0)" fill-rule="evenodd" stroke-width="0.0" fill="rgb(0,0,0)" stroke-linecap="butt" stroke-miterlimit="10.0">
    <path d="M 56.9777,275.0562 ZM 58.9494,275.0562 v -1.2219 l 9.2479,-10.4143 h -8.2204 v -1.8607 h 11.4974 v 1.2219 l -9.2757,10.4143 h 9.5256 v 1.8607 h -12.7749 ZM 73.6406,275.0562 ZM 82.8051,275.3895 c -1.5274,-0.0000 -2.8466,-0.4721 -2.8466 -0.4721c -1.3191,-0.4721 -2.3050,-1.3886 -2.3050 -1.3886c -0.9859,-0.9165 -1.5552,-2.2356 -1.5552 -2.2356c -0.5693,-1.3191 -0.5693,-3.0132 -0.5693 -3.0132c 0.0000,-1.6385 0.5693,-2.9438 0.5693 -2.9438c 0.5693,-1.3053 1.5274,-2.2217 1.5274 -2.2217c 0.9581,-0.9165 2.1939,-1.4025 2.1939 -1.4025c 1.2358,-0.4860 2.5966,-0.4860 2.5966 -0.4860c 1.4441,-0.0000 2.5966,0.4582 2.5966 0.4582c 1.1525,0.4582 1.9440,1.2914 1.9440 1.2914c 0.7915,0.8331 1.2081,1.9995 1.2081 1.9995c 0.4166,1.1664 0.4166,2.5827 0.4166 2.5827c 0.0000,0.3888 -0.0278,0.7498 -0.0278 0.7498c -0.0278,0.3610 -0.0833,0.6387 -0.0833 0.6387h -10.6365 c 0.2222,2.3050 1.6802,3.4575 1.6802 3.4575c 1.4580,1.1525 3.5686,1.1525 3.5686 1.1525c 1.2219,-0.0000 2.2078,-0.3471 2.2078 -0.3471c 0.9859,-0.3471 1.9023,-0.9303 1.9023 -0.9303l 0.8331,1.4997 c -0.9998,0.6665 -2.2911,1.1386 -2.2911 1.1386c -1.2914,0.4721 -2.9299,0.4721 -2.9299 0.4721ZM 82.8051,275.3895 ZM 82.4719,263.0312 c -0.8331,-0.0000 -1.5969,0.2777 -1.5969 0.2777c -0.7637,0.2777 -1.3747,0.7915 -1.3747 0.7915c -0.6110,0.5138 -1.0275,1.2914 -1.0275 1.2914c -0.4166,0.7776 -0.5832,1.7774 -0.5832 1.7774h 8.6092 c -0.1389,-2.0829 -1.2081,-3.1104 -1.2081 -3.1104c -1.0692,-1.0275 -2.8188,-1.0275 -2.8188 -1.0275ZM 90.3034,275.0562 ZM 94.3581,275.0562 v -13.4969 h 1.8885 l 0.1944,3.1937 h 0.0833 c 1.0553,-1.6385 2.5966,-2.5827 2.5966 -2.5827c 1.5413,-0.9442 3.4298,-0.9442 3.4298 -0.9442c 0.7498,-0.0000 1.3886,0.1250 1.3886 0.1250c 0.6387,0.1250 1.2775,0.4305 1.2775 0.4305l -0.5277,1.9718 c -0.7221,-0.2499 -1.2081,-0.3610 -1.2081 -0.3610c -0.4860,-0.1111 -1.2914,-0.1111 -1.2914 -0.1111c -1.5274,-0.0000 -2.9299,0.8748 -2.9299 0.8748c -1.4025,0.8748 -2.6244,2.9854 -2.6244 2.9854v 7.9149 h -2.2773 ZM 106.9663,275.0562 ZM 115.2978,275.3895 c -1.3330,-0.0000 -2.5411,-0.4721 -2.5411 -0.4721c -1.2081,-0.4721 -2.1245,-1.3747 -2.1245 -1.3747c -0.9165,-0.9026 -1.4580,-2.2217 -1.4580 -2.2217c -0.5415,-1.3191 -0.5415,-2.9854 -0.5415 -2.9854c 0.0000,-1.6941 0.5415,-3.0132 0.5415 -3.0132c 0.5415,-1.3191 1.4580,-2.2356 1.4580 -2.2356c 0.9165,-0.9165 2.1245,-1.3886 2.1245 -1.3886c 1.2081,-0.4721 2.5411,-0.4721 2.5411 -0.4721c 1.3330,-0.0000 2.5411,0.4721 2.5411 0.4721c 1.2081,0.4721 2.1245,1.3886 2.1245 1.3886c 0.9165,0.9165 1.4580,2.2356 1.4580 2.2356c 0.5415,1.3191 0.5415,3.0132 0.5415 3.0132c 0.0000,1.6663 -0.5415,2.9854 -0.5415 2.9854c -0.5415,1.3191 -1.4580,2.2217 -1.4580 2.2217c -0.9165,0.9026 -2.1245,1.3747 -2.1245 1.3747c -1.2081,0.4721 -2.5411,0.4721 -2.5411 0.4721ZM 115.2978,275.3895 ZM 115.2978,273.5010 c 0.9720,-0.0000 1.7635,-0.3749 1.7635 -0.3749c 0.7915,-0.3749 1.3608,-1.0553 1.3608 -1.0553c 0.5693,-0.6804 0.8748,-1.6246 0.8748 -1.6246c 0.3055,-0.9442 0.3055,-2.1106 0.3055 -2.1106c 0.0000,-1.1664 -0.3055,-2.1245 -0.3055 -2.1245c -0.3055,-0.9581 -0.8748,-1.6524 -0.8748 -1.6524c -0.5693,-0.6943 -1.3608,-1.0692 -1.3608 -1.0692c -0.7915,-0.3749 -1.7635,-0.3749 -1.7635 -0.3749c -0.9720,-0.0000 -1.7635,0.3749 -1.7635 0.3749c -0.7915,0.3749 -1.3608,1.0692 -1.3608 1.0692c -0.5693,0.6943 -0.8748,1.6524 -0.8748 1.6524c -0.3055,0.9581 -0.3055,2.1245 -0.3055 2.1245c 0.0000,1.1664 0.3055,2.1106 0.3055 2.1106c 0.3055,0.9442 0.8748,1.6246 0.8748 1.6246c 0.5693,0.6804 1.3608,1.0553 1.3608 1.0553c 0.7915,0.3749 1.7635,0.3749 1.7635 0.3749Z"/>
  </g>
  <g stroke-linejoin="miter" stroke-opacity="0.6" fill-opacity="0.0" stroke="rgb(0,0,0)" stroke-width="1.9205381541664472" fill="rgb(0,0,0)" stroke-linecap="butt" stroke-miterlimit="10.0">
    <path d="M 90.3034,239.3115 v 4.2046 "/>
  </g>
  <g stroke-linejoin="miter" stroke-opacity="0.0" fill-opacity="0.0" stroke="rgb(0,0,0)" stroke-width="0.0" fill="rgb(0,0,0)" stroke-linecap="butt" stroke-miterlimit="10.0">
    <path d="M 510.7635,225.2962 l -0.0000,-140.1533 h -420.4600 l -0.0000,140.1533 Z"/>
  </g>
</svg>