<?xml version="1.0" encoding="UTF-8"?>
<!DOCTYPE svg PUBLIC "-//W3C//DTD SVG 1.1//EN"
    "http://www.w3.org/Graphics/SVG/1.1/DTD/svg11.dtd">
<svg xmlns="http://www.w3.org/2000/svg" height="400.0000" stroke-opacity="1" viewBox="0 0 600 400" font-size="1" width="600.0000" xmlns:xlink="http://www.w3.org/1999/xlink" stroke="rgb(0,0,0)" version="1.1">
  <defs>
  </defs>
  <g stroke-linejoin="miter" stroke-opacity="1.0" fill-opacity="0.4" stroke="rgb(102,102,102)" stroke-width="0.3773064596361484" fill="rgb(170,154,0)" stroke-linecap="butt" stroke-miterlimit="10.0">
    <path d="M 499.5977,93.0781 l -6.7617,-11.7116 l -6.7617,11.7116 Z"/>
  </g>
  <g stroke-linejoin="miter" stroke-opacity="1.0" fill-opacity="0.4" stroke="rgb(102,102,102)" stroke-width="0.3773064596361484" fill="rgb(170,154,0)" stroke-linecap="butt" stroke-miterlimit="10.0">
    <path d="M 486.0743,94.5557 l -6.7617,-11.7116 l -6.7617,11.7116 Z"/>
  </g>
  <g stroke-linejoin="miter" stroke-opacity="1.0" fill-opacity="0.4" stroke="rgb(102,102,102)" stroke-width="0.3773064596361484" fill="rgb(170,154,0)" stroke-linecap="butt" stroke-miterlimit="10.0">
    <path d="M 472.5509,98.9239 l -6.7617,-11.7116 l -6.7617,11.7116 Z"/>
  </g>
  <g stroke-linejoin="miter" stroke-opacity="1.0" fill-opacity="0.4" stroke="rgb(102,102,102)" stroke-width="0.3773064596361484" fill="rgb(170,154,0)" stroke-linecap="butt" stroke-miterlimit="10.0">
    <path d="M 459.0275,105.9918 l -6.7617,-11.7116 l -6.7617,11.7116 Z"/>
  </g>
  <g stroke-linejoin="miter" stroke-opacity="1.0" fill-opacity="0.4" stroke="rgb(102,102,102)" stroke-width="0.3773064596361484" fill="rgb(170,154,0)" stroke-linecap="butt" stroke-miterlimit="10.0">
    <path d="M 445.5041,115.4505 l -6.7617,-11.7116 l -6.7617,11.7116 Z"/>
  </g>
  <g stroke-linejoin="miter" stroke-opacity="1.0" fill-opacity="0.4" stroke="rgb(102,102,102)" stroke-width="0.3773064596361484" fill="rgb(170,154,0)" stroke-linecap="butt" stroke-miterlimit="10.0">
    <path d="M 431.9807,126.8867 l -6.7617,-11.7116 l -6.7617,11.7116 Z"/>
  </g>
  <g stroke-linejoin="miter" stroke-opacity="1.0" fill-opacity="0.4" stroke="rgb(102,102,102)" stroke-width="0.3773064596361484" fill="rgb(170,154,0)" stroke-linecap="butt" stroke-miterlimit="10.0">
    <path d="M 418.4573,139.8004 l -6.7617,-11.7116 l -6.7617,11.7116 Z"/>
  </g>
  <g stroke-linejoin="miter" stroke-opacity="1.0" fill-opacity="0.4" stroke="rgb(102,102,102)" stroke-width="0.3773064596361484" fill="rgb(170,154,0)" stroke-linecap="butt" stroke-miterlimit="10.0">
    <path d="M 404.9339,153.6273 l -6.7617,-11.7116 l -6.7617,11.7116 Z"/>
  </g>
  <g stroke-linejoin="miter" stroke-opacity="1.0" fill-opacity="0.4" stroke="rgb(102,102,102)" stroke-width="0.3773064596361484" fill="rgb(170,154,0)" stroke-linecap="butt" stroke-miterlimit="10.0">
    <path d="M 391.4105,167.7631 l -6.7617,-11.7116 l -6.7617,11.7116 Z"/>
  </g>
  <g stroke-linejoin="miter" stroke-opacity="1.0" fill-opacity="0.4" stroke="rgb(102,102,102)" stroke-width="0.3773064596361484" fill="rgb(170,154,0)" stroke-linecap="butt" stroke-miterlimit="10.0">
    <path d="M 377.8871,181.5900 l -6.7617,-11.7116 l -6.7617,11.7116 Z"/>
  </g>
  <g stroke-linejoin="miter" stroke-opacity="1.0" fill-opacity="0.4" stroke="rgb(102,102,102)" stroke-width="0.3773064596361484" fill="rgb(170,154,0)" stroke-linecap="butt" stroke-miterlimit="10.0">
    <path d="M 364.3637,194.5037 l -6.7617,-11.7116 l -6.7617,11.7116 Z"/>
  </g>
  <g stroke-linejoin="miter" stroke-opacity="1.0" fill-opacity="0.4" stroke="rgb(102,102,102)" stroke-width="0.3773064596361484" fill="rgb(170,154,0)" stroke-linecap="butt" stroke-miterlimit="10.0">
    <path d="M 350.8403,205.9398 l -6.7617,-11.7116 l -6.7617,11.7116 Z"/>
  </g>
  <g stroke-linejoin="miter" stroke-opacity="1.0" fill-opacity="0.4" stroke="rgb(102,102,102)" stroke-width="0.3773064596361484" fill="rgb(170,154,0)" stroke-linecap="butt" stroke-miterlimit="10.0">
    <path d="M 337.3169,215.3985 l -6.7617,-11.7116 l -6.7617,11.7116 Z"/>
  </g>
  <g stroke-linejoin="miter" stroke-opacity="1.0" fill-opacity="0.4" stroke="rgb(102,102,102)" stroke-width="0.3773064596361484" fill="rgb(170,154,0)" stroke-linecap="butt" stroke-miterlimit="10.0">
    <path d="M 323.7934,222.4664 l -6.7617,-11.7116 l -6.7617,11.7116 Z"/>
  </g>
  <g stroke-linejoin="miter" stroke-opacity="1.0" fill-opacity="0.4" stroke="rgb(102,102,102)" stroke-width="0.3773064596361484" fill="rgb(170,154,0)" stroke-linecap="butt" stroke-miterlimit="10.0">
    <path d="M 310.2700,226.8346 l -6.7617,-11.7116 l -6.7617,11.7116 Z"/>
  </g>
  <g stroke-linejoin="miter" stroke-opacity="1.0" fill-opacity="0.4" stroke="rgb(102,102,102)" stroke-width="0.3773064596361484" fill="rgb(170,154,0)" stroke-linecap="butt" stroke-miterlimit="10.0">
    <path d="M 296.7466,228.3122 l -6.7617,-11.7116 l -6.7617,11.7116 Z"/>
  </g>
  <g stroke-linejoin="miter" stroke-opacity="1.0" fill-opacity="0.4" stroke="rgb(102,102,102)" stroke-width="0.3773064596361484" fill="rgb(170,154,0)" stroke-linecap="butt" stroke-miterlimit="10.0">
    <path d="M 283.2232,226.8346 l -6.7617,-11.7116 l -6.7617,11.7116 Z"/>
  </g>
  <g stroke-linejoin="miter" stroke-opacity="1.0" fill-opacity="0.4" stroke="rgb(102,102,102)" stroke-width="0.3773064596361484" fill="rgb(170,154,0)" stroke-linecap="butt" stroke-miterlimit="10.0">
    <path d="M 269.6998,222.4664 l -6.7617,-11.7116 l -6.7617,11.7116 Z"/>
  </g>
  <g stroke-linejoin="miter" stroke-opacity="1.0" fill-opacity="0.4" stroke="rgb(102,102,102)" stroke-width="0.3773064596361484" fill="rgb(170,154,0)" stroke-linecap="butt" stroke-miterlimit="10.0">
    <path d="M 256.1764,215.3985 l -6.7617,-11.7116 l -6.7617,11.7116 Z"/>
  </g>
  <g stroke-linejoin="miter" stroke-opacity="1.0" fill-opacity="0.4" stroke="rgb(102,102,102)" stroke-width="0.3773064596361484" fill="rgb(170,154,0)" stroke-linecap="butt" stroke-miterlimit="10.0">
    <path d="M 242.6530,205.9398 l -6.7617,-11.7116 l -6.7617,11.7116 Z"/>
  </g>
  <g stroke-linejoin="miter" stroke-opacity="1.0" fill-opacity="0.4" stroke="rgb(102,102,102)" stroke-width="0.3773064596361484" fill="rgb(170,154,0)" stroke-linecap="butt" stroke-miterlimit="10.0">
    <path d="M 229.1296,194.5037 l -6.7617,-11.7116 l -6.7617,11.7116 Z"/>
  </g>
  <g stroke-linejoin="miter" stroke-opacity="1.0" fill-opacity="0.4" stroke="rgb(102,102,102)" stroke-width="0.3773064596361484" fill="rgb(170,154,0)" stroke-linecap="butt" stroke-miterlimit="10.0">
    <path d="M 215.6062,181.5900 l -6.7617,-11.7116 l -6.7617,11.7116 Z"/>
  </g>
  <g stroke-linejoin="miter" stroke-opacity="1.0" fill-opacity="0.4" stroke="rgb(102,102,102)" stroke-width="0.3773064596361484" fill="rgb(170,154,0)" stroke-linecap="butt" stroke-miterlimit="10.0">
    <path d="M 202.0828,167.7631 l -6.7617,-11.7116 l -6.7617,11.7116 Z"/>
  </g>
  <g stroke-linejoin="miter" stroke-opacity="1.0" fill-opacity="0.4" stroke="rgb(102,102,102)" stroke-width="0.3773064596361484" fill="rgb(170,154,0)" stroke-linecap="butt" stroke-miterlimit="10.0">
    <path d="M 188.5594,153.6273 l -6.7617,-11.7116 l -6.7617,11.7116 Z"/>
  </g>
  <g stroke-linejoin="miter" stroke-opacity="1.0" fill-opacity="0.4" stroke="rgb(102,102,102)" stroke-width="0.3773064596361484" fill="rgb(170,154,0)" stroke-linecap="butt" stroke-miterlimit="10.0">
    <path d="M 175.0360,139.8004 l -6.7617,-11.7116 l -6.7617,11.7116 Z"/>
  </g>
  <g stroke-linejoin="miter" stroke-opacity="1.0" fill-opacity="0.4" stroke="rgb(102,102,102)" stroke-width="0.3773064596361484" fill="rgb(170,154,0)" stroke-linecap="butt" stroke-miterlimit="10.0">
    <path d="M 161.5126,126.8867 l -6.7617,-11.7116 l -6.7617,11.7116 Z"/>
  </g>
  <g stroke-linejoin="miter" stroke-opacity="1.0" fill-opacity="0.4" stroke="rgb(102,102,102)" stroke-width="0.3773064596361484" fill="rgb(170,154,0)" stroke-linecap="butt" stroke-miterlimit="10.0">
    <path d="M 147.9892,115.4505 l -6.7617,-11.7116 l -6.7617,11.7116 Z"/>
  </g>
  <g stroke-linejoin="miter" stroke-opacity="1.0" fill-opacity="0.4" stroke="rgb(102,102,102)" stroke-width="0.3773064596361484" fill="rgb(170,154,0)" stroke-linecap="butt" stroke-miterlimit="10.0">
    <path d="M 134.4658,105.9918 l -6.7617,-11.7116 l -6.7617,11.7116 Z"/>
  </g>
  <g stroke-linejoin="miter" stroke-opacity="1.0" fill-opacity="0.4" stroke="rgb(102,102,102)" stroke-width="0.3773064596361484" fill="rgb(170,154,0)" stroke-linecap="butt" stroke-miterlimit="10.0">
    <path d="M 120.9424,98.9239 l -6.7617,-11.7116 l -6.7617,11.7116 Z"/>
  </g>
  <g stroke-linejoin="miter" stroke-opacity="1.0" fill-opacity="0.4" stroke="rgb(102,102,102)" stroke-width="0.3773064596361484" fill="rgb(170,154,0)" stroke-linecap="butt" stroke-miterlimit="10.0">
    <path d="M 107.4190,94.5557 l -6.7617,-11.7116 l -6.7617,11.7116 Z"/>
  </g>
  <g stroke-linejoin="miter" stroke-opacity="1.0" fill-opacity="0.4" stroke="rgb(102,102,102)" stroke-width="0.3773064596361484" fill="rgb(170,154,0)" stroke-linecap="butt" stroke-miterlimit="10.0">
    <path d="M 93.8955,93.0781 l -6.7617,-11.7116 l -6.7617,11.7116 Z"/>
  </g>
  <g stroke-linejoin="miter" stroke-opacity="1.0" fill-opacity="0.5" stroke="rgb(102,102,102)" stroke-width="0.3773064596361484" fill="rgb(93,165,218)" stroke-linecap="butt" stroke-miterlimit="10.0">
    <path d="M 499.5977,156.7913 c 0.0000,-3.7344 -3.0273,-6.7617 -6.7617 -6.7617c -3.7344,-0.0000 -6.7617,3.0273 -6.7617 6.7617c -0.0000,3.7344 3.0273,6.7617 6.7617 6.7617c 3.7344,0.0000 6.7617,-3.0273 6.7617 -6.7617Z"/>
  </g>
  <g stroke-linejoin="miter" stroke-opacity="1.0" fill-opacity="0.5" stroke="rgb(102,102,102)" stroke-width="0.3773064596361484" fill="rgb(93,165,218)" stroke-linecap="butt" stroke-miterlimit="10.0">
    <path d="M 486.0743,170.8497 c 0.0000,-3.7344 -3.0273,-6.7617 -6.7617 -6.7617c -3.7344,-0.0000 -6.7617,3.0273 -6.7617 6.7617c -0.0000,3.7344 3.0273,6.7617 6.7617 6.7617c 3.7344,0.0000 6.7617,-3.0273 6.7617 -6.7617Z"/>
  </g>
  <g stroke-linejoin="miter" stroke-opacity="1.0" fill-opacity="0.5" stroke="rgb(102,102,102)" stroke-width="0.3773064596361484" fill="rgb(93,165,218)" stroke-linecap="butt" stroke-miterlimit="10.0">
    <path d="M 472.5509,184.2936 c 0.0000,-3.7344 -3.0273,-6.7617 -6.7617 -6.7617c -3.7344,-0.0000 -6.7617,3.0273 -6.7617 6.7617c -0.0000,3.7344 3.0273,6.7617 6.7617 6.7617c 3.7344,0.0000 6.7617,-3.0273 6.7617 -6.7617Z"/>
  </g>
  <g stroke-linejoin="miter" stroke-opacity="1.0" fill-opacity="0.5" stroke="rgb(102,102,102)" stroke-width="0.3773064596361484" fill="rgb(93,165,218)" stroke-linecap="butt" stroke-miterlimit="10.0">
    <path d="M 459.0275,196.5356 c 0.0000,-3.7344 -3.0273,-6.7617 -6.7617 -6.7617c -3.7344,-0.0000 -6.7617,3.0273 -6.7617 6.7617c -0.0000,3.7344 3.0273,6.7617 6.7617 6.7617c 3.7344,0.0000 6.7617,-3.0273 6.7617 -6.7617Z"/>
  </g>
  <g stroke-linejoin="miter" stroke-opacity="1.0" fill-opacity="0.5" stroke="rgb(102,102,102)" stroke-width="0.3773064596361484" fill="rgb(93,165,218)" stroke-linecap="butt" stroke-miterlimit="10.0">
    <path d="M 445.5041,207.0405 c 0.0000,-3.7344 -3.0273,-6.7617 -6.7617 -6.7617c -3.7344,-0.0000 -6.7617,3.0273 -6.7617 6.7617c -0.0000,3.7344 3.0273,6.7617 6.7617 6.7617c 3.7344,0.0000 6.7617,-3.0273 6.7617 -6.7617Z"/>
  </g>
  <g stroke-linejoin="miter" stroke-opacity="1.0" fill-opacity="0.5" stroke="rgb(102,102,102)" stroke-width="0.3773064596361484" fill="rgb(93,165,218)" stroke-linecap="butt" stroke-miterlimit="10.0">
    <path d="M 431.9807,215.3494 c 0.0000,-3.7344 -3.0273,-6.7617 -6.7617 -6.7617c -3.7344,-0.0000 -6.7617,3.0273 -6.7617 6.7617c -0.0000,3.7344 3.0273,6.7617 6.7617 6.7617c 3.7344,0.0000 6.7617,-3.0273 6.7617 -6.7617Z"/>
  </g>
  <g stroke-linejoin="miter" stroke-opacity="1.0" fill-opacity="0.5" stroke="rgb(102,102,102)" stroke-width="0.3773064596361484" fill="rgb(93,165,218)" stroke-linecap="butt" stroke-miterlimit="10.0">
    <path d="M 418.4573,221.0989 c 0.0000,-3.7344 -3.0273,-6.7617 -6.7617 -6.7617c -3.7344,-0.0000 -6.7617,3.0273 -6.7617 6.7617c -0.0000,3.7344 3.0273,6.7617 6.7617 6.7617c 3.7344,0.0000 6.7617,-3.0273 6.7617 -6.7617Z"/>
  </g>
  <g stroke-linejoin="miter" stroke-opacity="1.0" fill-opacity="0.5" stroke="rgb(102,102,102)" stroke-width="0.3773064596361484" fill="rgb(93,165,218)" stroke-linecap="butt" stroke-miterlimit="10.0">
    <path d="M 404.9339,224.0379 c 0.0000,-3.7344 -3.0273,-6.7617 -6.7617 -6.7617c -3.7344,-0.0000 -6.7617,3.0273 -6.7617 6.7617c -0.0000,3.7344 3.0273,6.7617 6.7617 6.7617c 3.7344,0.0000 6.7617,-3.0273 6.7617 -6.7617Z"/>
  </g>
  <g stroke-linejoin="miter" stroke-opacity="1.0" fill-opacity="0.5" stroke="rgb(102,102,102)" stroke-width="0.3773064596361484" fill="rgb(93,165,218)" stroke-linecap="butt" stroke-miterlimit="10.0">
    <path d="M 391.4105,224.0379 c 0.0000,-3.7344 -3.0273,-6.7617 -6.7617 -6.7617c -3.7344,-0.0000 -6.7617,3.0273 -6.7617 6.7617c -0.0000,3.7344 3.0273,6.7617 6.7617 6.7617c 3.7344,0.0000 6.7617,-3.0273 6.7617 -6.7617Z"/>
  </g>
  <g stroke-linejoin="miter" stroke-opacity="1.0" fill-opacity="0.5" stroke="rgb(102,102,102)" stroke-width="0.3773064596361484" fill="rgb(93,165,218)" stroke-linecap="butt" stroke-miterlimit="10.0">
    <path d="M 377.8871,221.0989 c 0.0000,-3.7344 -3.0273,-6.7617 -6.7617 -6.7617c -3.7344,-0.0000 -6.7617,3.0273 -6.7617 6.7617c -0.0000,3.7344 3.0273,6.7617 6.7617 6.7617c 3.7344,0.0000 6.7617,-3.0273 6.7617 -6.7617Z"/>
  </g>
  <g stroke-linejoin="miter" stroke-opacity="1.0" fill-opacity="0.5" stroke="rgb(102,102,102)" stroke-width="0.3773064596361484" fill="rgb(93,165,218)" stroke-linecap="butt" stroke-miterlimit="10.0">
    <path d="M 364.3637,215.3494 c 0.0000,-3.7344 -3.0273,-6.7617 -6.7617 -6.7617c -3.7344,-0.0000 -6.7617,3.0273 -6.7617 6.7617c -0.0000,3.7344 3.0273,6.7617 6.7617 6.7617c 3.7344,0.0000 6.7617,-3.0273 6.7617 -6.7617Z"/>
  </g>
  <g stroke-linejoin="miter" stroke-opacity="1.0" fill-opacity="0.5" stroke="rgb(102,102,102)" stroke-width="0.3773064596361484" fill="rgb(93,165,218)" stroke-linecap="butt" stroke-miterlimit="10.0">
    <path d="M 350.8403,207.0405 c 0.0000,-3.7344 -3.0273,-6.7617 -6.7617 -6.7617c -3.7344,-0.0000 -6.7617,3.0273 -6.7617 6.7617c -0.0000,3.7344 3.0273,6.7617 6.7617 6.7617c 3.7344,0.0000 6.7617,-3.0273 6.7617 -6.7617Z"/>
  </g>
  <g stroke-linejoin="miter" stroke-opacity="1.0" fill-opacity="0.5" stroke="rgb(102,102,102)" stroke-width="0.3773064596361484" fill="rgb(93,165,218)" stroke-linecap="butt" stroke-miterlimit="10.0">
    <path d="M 337.3169,196.5356 c 0.0000,-3.7344 -3.0273,-6.7617 -6.7617 -6.7617c -3.7344,-0.0000 -6.7617,3.0273 -6.7617 6.7617c -0.0000,3.7344 3.0273,6.7617 6.7617 6.7617c 3.7344,0.0000 6.7617,-3.0273 6.7617 -6.7617Z"/>
  </g>
  <g stroke-linejoin="miter" stroke-opacity="1.0" fill-opacity="0.5" stroke="rgb(102,102,102)" stroke-width="0.3773064596361484" fill="rgb(93,165,218)" stroke-linecap="butt" stroke-miterlimit="10.0">
    <path d="M 323.7934,184.2936 c 0.0000,-3.7344 -3.0273,-6.7617 -6.7617 -6.7617c -3.7344,-0.0000 -6.7617,3.0273 -6.7617 6.7617c -0.0000,3.7344 3.0273,6.7617 6.7617 6.7617c 3.7344,0.0000 6.7617,-3.0273 6.7617 -6.7617Z"/>
  </g>
  <g stroke-linejoin="miter" stroke-opacity="1.0" fill-opacity="0.5" stroke="rgb(102,102,102)" stroke-width="0.3773064596361484" fill="rgb(93,165,218)" stroke-linecap="butt" stroke-miterlimit="10.0">
    <path d="M 310.2700,170.8497 c 0.0000,-3.7344 -3.0273,-6.7617 -6.7617 -6.7617c -3.7344,-0.0000 -6.7617,3.0273 -6.7617 6.7617c -0.0000,3.7344 3.0273,6.7617 6.7617 6.7617c 3.7344,0.0000 6.7617,-3.0273 6.7617 -6.7617Z"/>
  </g>
  <g stroke-linejoin="miter" stroke-opacity="1.0" fill-opacity="0.5" stroke="rgb(102,102,102)" stroke-width="0.3773064596361484" fill="rgb(93,165,218)" stroke-linecap="butt" stroke-miterlimit="10.0">
    <path d="M 296.7466,156.7913 c 0.0000,-3.7344 -3.0273,-6.7617 -6.7617 -6.7617c -3.7344,-0.0000 -6.7617,3.0273 -6.7617 6.7617c -0.0000,3.7344 3.0273,6.7617 6.7617 6.7617c 3.7344,0.0000 6.7617,-3.0273 6.7617 -6.7617Z"/>
  </g>
  <g stroke-linejoin="miter" stroke-opacity="1.0" fill-opacity="0.5" stroke="rgb(102,102,102)" stroke-width="0.3773064596361484" fill="rgb(93,165,218)" stroke-linecap="butt" stroke-miterlimit="10.0">
    <path d="M 283.2232,142.7329 c 0.0000,-3.7344 -3.0273,-6.7617 -6.7617 -6.7617c -3.7344,-0.0000 -6.7617,3.0273 -6.7617 6.7617c -0.0000,3.7344 3.0273,6.7617 6.7617 6.7617c 3.7344,0.0000 6.7617,-3.0273 6.7617 -6.7617Z"/>
  </g>
  <g stroke-linejoin="miter" stroke-opacity="1.0" fill-opacity="0.5" stroke="rgb(102,102,102)" stroke-width="0.3773064596361484" fill="rgb(93,165,218)" stroke-linecap="butt" stroke-miterlimit="10.0">
    <path d="M 269.6998,129.2890 c 0.0000,-3.7344 -3.0273,-6.7617 -6.7617 -6.7617c -3.7344,-0.0000 -6.7617,3.0273 -6.7617 6.7617c -0.0000,3.7344 3.0273,6.7617 6.7617 6.7617c 3.7344,0.0000 6.7617,-3.0273 6.7617 -6.7617Z"/>
  </g>
  <g stroke-linejoin="miter" stroke-opacity="1.0" fill-opacity="0.5" stroke="rgb(102,102,102)" stroke-width="0.3773064596361484" fill="rgb(93,165,218)" stroke-linecap="butt" stroke-miterlimit="10.0">
    <path d="M 256.1764,117.0470 c 0.0000,-3.7344 -3.0273,-6.7617 -6.7617 -6.7617c -3.7344,-0.0000 -6.7617,3.0273 -6.7617 6.7617c -0.0000,3.7344 3.0273,6.7617 6.7617 6.7617c 3.7344,0.0000 6.7617,-3.0273 6.7617 -6.7617Z"/>
  </g>
  <g stroke-linejoin="miter" stroke-opacity="1.0" fill-opacity="0.5" stroke="rgb(102,102,102)" stroke-width="0.3773064596361484" fill="rgb(93,165,218)" stroke-linecap="butt" stroke-miterlimit="10.0">
    <path d="M 242.6530,106.5421 c 0.0000,-3.7344 -3.0273,-6.7617 -6.7617 -6.7617c -3.7344,-0.0000 -6.7617,3.0273 -6.7617 6.7617c -0.0000,3.7344 3.0273,6.7617 6.7617 6.7617c 3.7344,0.0000 6.7617,-3.0273 6.7617 -6.7617Z"/>
  </g>
  <g stroke-linejoin="miter" stroke-opacity="1.0" fill-opacity="0.5" stroke="rgb(102,102,102)" stroke-width="0.3773064596361484" fill="rgb(93,165,218)" stroke-linecap="butt" stroke-miterlimit="10.0">
    <path d="M 229.1296,98.2332 c 0.0000,-3.7344 -3.0273,-6.7617 -6.7617 -6.7617c -3.7344,-0.0000 -6.7617,3.0273 -6.7617 6.7617c -0.0000,3.7344 3.0273,6.7617 6.7617 6.7617c 3.7344,0.0000 6.7617,-3.0273 6.7617 -6.7617Z"/>
  </g>
  <g stroke-linejoin="miter" stroke-opacity="1.0" fill-opacity="0.5" stroke="rgb(102,102,102)" stroke-width="0.3773064596361484" fill="rgb(93,165,218)" stroke-linecap="butt" stroke-miterlimit="10.0">
    <path d="M 215.6062,92.4837 c 0.0000,-3.7344 -3.0273,-6.7617 -6.7617 -6.7617c -3.7344,-0.0000 -6.7617,3.0273 -6.7617 6.7617c -0.0000,3.7344 3.0273,6.7617 6.7617 6.7617c 3.7344,0.0000 6.7617,-3.0273 6.7617 -6.7617Z"/>
  </g>
  <g stroke-linejoin="miter" stroke-opacity="1.0" fill-opacity="0.5" stroke="rgb(102,102,102)" stroke-width="0.3773064596361484" fill="rgb(93,165,218)" stroke-linecap="butt" stroke-miterlimit="10.0">
    <path d="M 202.0828,89.5447 c 0.0000,-3.7344 -3.0273,-6.7617 -6.7617 -6.7617c -3.7344,-0.0000 -6.7617,3.0273 -6.7617 6.7617c -0.0000,3.7344 3.0273,6.7617 6.7617 6.7617c 3.7344,0.0000 6.7617,-3.0273 6.7617 -6.7617Z"/>
  </g>
  <g stroke-linejoin="miter" stroke-opacity="1.0" fill-opacity="0.5" stroke="rgb(102,102,102)" stroke-width="0.3773064596361484" fill="rgb(93,165,218)" stroke-linecap="butt" stroke-miterlimit="10.0">
    <path d="M 188.5594,89.5447 c 0.0000,-3.7344 -3.0273,-6.7617 -6.7617 -6.7617c -3.7344,-0.0000 -6.7617,3.0273 -6.7617 6.7617c -0.0000,3.7344 3.0273,6.7617 6.7617 6.7617c 3.7344,0.0000 6.7617,-3.0273 6.7617 -6.7617Z"/>
  </g>
  <g stroke-linejoin="miter" stroke-opacity="1.0" fill-opacity="0.5" stroke="rgb(102,102,102)" stroke-width="0.3773064596361484" fill="rgb(93,165,218)" stroke-linecap="butt" stroke-miterlimit="10.0">
    <path d="M 175.0360,92.4837 c 0.0000,-3.7344 -3.0273,-6.7617 -6.7617 -6.7617c -3.7344,-0.0000 -6.7617,3.0273 -6.7617 6.7617c -0.0000,3.7344 3.0273,6.7617 6.7617 6.7617c 3.7344,0.0000 6.7617,-3.0273 6.7617 -6.7617Z"/>
  </g>
  <g stroke-linejoin="miter" stroke-opacity="1.0" fill-opacity="0.5" stroke="rgb(102,102,102)" stroke-width="0.3773064596361484" fill="rgb(93,165,218)" stroke-linecap="butt" stroke-miterlimit="10.0">
    <path d="M 161.5126,98.2332 c 0.0000,-3.7344 -3.0273,-6.7617 -6.7617 -6.7617c -3.7344,-0.0000 -6.7617,3.0273 -6.7617 6.7617c -0.0000,3.7344 3.0273,6.7617 6.7617 6.7617c 3.7344,0.0000 6.7617,-3.0273 6.7617 -6.7617Z"/>
  </g>
  <g stroke-linejoin="miter" stroke-opacity="1.0" fill-opacity="0.5" stroke="rgb(102,102,102)" stroke-width="0.3773064596361484" fill="rgb(93,165,218)" stroke-linecap="butt" stroke-miterlimit="10.0">
    <path d="M 147.9892,106.5421 c 0.0000,-3.7344 -3.0273,-6.7617 -6.7617 -6.7617c -3.7344,-0.0000 -6.7617,3.0273 -6.7617 6.7617c -0.0000,3.7344 3.0273,6.7617 6.7617 6.7617c 3.7344,0.0000 6.7617,-3.0273 6.7617 -6.7617Z"/>
  </g>
  <g stroke-linejoin="miter" stroke-opacity="1.0" fill-opacity="0.5" stroke="rgb(102,102,102)" stroke-width="0.3773064596361484" fill="rgb(93,165,218)" stroke-linecap="butt" stroke-miterlimit="10.0">
    <path d="M 134.4658,117.0470 c 0.0000,-3.7344 -3.0273,-6.7617 -6.7617 -6.7617c -3.7344,-0.0000 -6.7617,3.0273 -6.7617 6.7617c -0.0000,3.7344 3.0273,6.7617 6.7617 6.7617c 3.7344,0.0000 6.7617,-3.0273 6.7617 -6.7617Z"/>
  </g>
  <g stroke-linejoin="miter" stroke-opacity="1.0" fill-opacity="0.5" stroke="rgb(102,102,102)" stroke-width="0.3773064596361484" fill="rgb(93,165,218)" stroke-linecap="butt" stroke-miterlimit="10.0">
    <path d="M 120.9424,129.2890 c 0.0000,-3.7344 -3.0273,-6.7617 -6.7617 -6.7617c -3.7344,-0.0000 -6.7617,3.0273 -6.7617 6.7617c -0.0000,3.7344 3.0273,6.7617 6.7617 6.7617c 3.7344,0.0000 6.7617,-3.0273 6.7617 -6.7617Z"/>
  </g>
  <g stroke-linejoin="miter" stroke-opacity="1.0" fill-opacity="0.5" stroke="rgb(102,102,102)" stroke-width="0.3773064596361484" fill="rgb(93,165,218)" stroke-linecap="butt" stroke-miterlimit="10.0">
    <path d="M 107.4190,142.7329 c 0.0000,-3.7344 -3.0273,-6.7617 -6.7617 -6.7617c -3.7344,-0.0000 -6.7617,3.0273 -6.7617 6.7617c -0.0000,3.7344 3.0273,6.7617 6.7617 6.7617c 3.7344,0.0000 6.7617,-3.0273 6.7617 -6.7617Z"/>
  </g>
  <g stroke-linejoin="miter" stroke-opacity="1.0" fill-opacity="0.5" stroke="rgb(102,102,102)" stroke-width="0.3773064596361484" fill="rgb(93,165,218)" stroke-linecap="butt" stroke-miterlimit="10.0">
    <path d="M 93.8955,156.7913 c 0.0000,-3.7344 -3.0273,-6.7617 -6.7617 -6.7617c -3.7344,-0.0000 -6.7617,3.0273 -6.7617 6.7617c -0.0000,3.7344 3.0273,6.7617 6.7617 6.7617c 3.7344,0.0000 6.7617,-3.0273 6.7617 -6.7617Z"/>
  </g>
  <g stroke-linejoin="miter" stroke-opacity="0.0" fill-opacity="0.0" stroke="rgb(0,0,0)" fill-rule="evenodd" stroke-width="0.0" fill="rgb(0,0,0)" stroke-linecap="butt" stroke-miterlimit="10.0">
    <path d="M 492.8360,303.9205 l -0.0000,-13.9237 h -250.6266 l -0.0000,13.9237 Z"/>
  </g>
  <g stroke-linejoin="miter" stroke-opacity="1.0" fill-opacity="1.0" font-size="12.65790780268232px" stroke="rgb(0,0,0)" fill-rule="evenodd" stroke-width="0.0" fill="rgb(31,119,180)" stroke-linecap="butt" stroke-miterlimit="10.0">
    <text dominant-baseline="middle" transform="matrix(1.0000,-0.0000,0.0000,1.0000,492.8360,296.9587)" stroke="none" text-anchor="end">text elements are paths not svg text
    </text>
  </g>
  <g stroke-linejoin="miter" stroke-opacity="0.0" fill-opacity="0.0" stroke="rgb(0,0,0)" fill-rule="evenodd" stroke-width="0.0" fill="rgb(0,0,0)" stroke-linecap="butt" stroke-miterlimit="10.0">
    <path d="M 49.5684,96.7744 l -23.2062,0.0000 l -0.0000,127.6339 l 23.2062,0.0000 Z"/>
  </g>
  <g stroke-linejoin="miter" stroke-opacity="1.0" fill-opacity="1.0" font-size="21.096513004470538px" stroke="rgb(0,0,0)" fill-rule="evenodd" stroke-width="0.0" fill="rgb(31,119,180)" stroke-linecap="butt" stroke-miterlimit="10.0">
    <text dominant-baseline="middle" transform="matrix(0.0000,-1.0000,1.0000,0.0000,37.9653,224.4083)" stroke="none" text-anchor="start">Glyph Chart
    </text>
  </g>
  <g stroke-linejoin="miter" stroke-opacity="0.0" fill-opacity="0.0" stroke="rgb(0,0,0)" fill-rule="evenodd" stroke-width="0.0" fill="rgb(0,0,0)" stroke-linecap="butt" stroke-miterlimit="10.0">
    <path d="M 569.2649,142.1671 l -0.0000,-23.2062 h -34.8092 l -0.0000,23.2062 Z"/>
  </g>
  <g stroke-linejoin="miter" stroke-opacity="1.0" fill-opacity="0.63" font-size="21.096513004470538px" stroke="rgb(0,0,0)" fill-rule="evenodd" stroke-width="0.0" fill="rgb(0,0,0)" stroke-linecap="butt" stroke-miterlimit="10.0">
    <text dominant-baseline="middle" transform="matrix(1.0000,-0.0000,0.0000,1.0000,551.8603,130.5640)" stroke="none" text-anchor="middle">cos
    </text>
  </g>
  <g stroke-linejoin="miter" stroke-opacity="1.0" fill-opacity="0.4" stroke="rgb(102,102,102)" stroke-width="0.3773064596361484" fill="rgb(170,154,0)" stroke-linecap="butt" stroke-miterlimit="10.0">
    <path d="M 531.7510,132.3582 l -6.7617,-11.7116 l -6.7617,11.7116 Z"/>
  </g>
  <g stroke-linejoin="miter" stroke-opacity="0.0" fill-opacity="0.0" stroke="rgb(0,0,0)" fill-rule="evenodd" stroke-width="0.0" fill="rgb(0,0,0)" stroke-linecap="butt" stroke-miterlimit="10.0">
    <path d="M 569.2649,114.9039 l -0.0000,-23.2062 h -34.8092 l -0.0000,23.2062 Z"/>
  </g>
  <g stroke-linejoin="miter" stroke-opacity="1.0" fill-opacity="0.63" font-size="21.096513004470538px" stroke="rgb(0,0,0)" fill-rule="evenodd" stroke-width="0.0" fill="rgb(0,0,0)" stroke-linecap="butt" stroke-miterlimit="10.0">
    <text dominant-baseline="middle" transform="matrix(1.0000,-0.0000,0.0000,1.0000,551.8603,103.3008)" stroke="none" text-anchor="middle">sin
    </text>
  </g>
  <g stroke-linejoin="miter" stroke-opacity="1.0" fill-opacity="0.5" stroke="rgb(102,102,102)" stroke-width="0.3773064596361484" fill="rgb(93,165,218)" stroke-linecap="butt" stroke-miterlimit="10.0">
    <path d="M 531.7510,101.1912 c 0.0000,-3.7344 -3.0273,-6.7617 -6.7617 -6.7617c -3.7344,-0.0000 -6.7617,3.0273 -6.7617 6.7617c -0.0000,3.7344 3.0273,6.7617 6.7617 6.7617c 3.7344,0.0000 6.7617,-3.0273 6.7617 -6.7617Z"/>
  </g>
  <g stroke-linejoin="miter" stroke-opacity="0.2" fill-opacity="0.0" stroke="rgb(0,0,0)" stroke-width="0.7546129192722968" fill="rgb(0,0,0)" stroke-linecap="butt" stroke-miterlimit="10.0">
    <path d="M 571.8168,144.6906 l -0.0000,-55.5163 h -56.1411 l -0.0000,55.5163 Z"/>
  </g>
  <g stroke-linejoin="miter" stroke-opacity="0.0" fill-opacity="0.1" stroke="rgb(0,0,0)" stroke-width="0.0" fill="rgb(0,0,0)" stroke-linecap="butt" stroke-miterlimit="10.0">
    <path d="M 492.8360,240.6364 l -0.0000,-2.7047 h -405.7022 l -0.0000,2.7047 Z"/>
  </g>
  <g stroke-linejoin="miter" stroke-opacity="1.0" fill-opacity="0.6" stroke="rgb(0,0,0)" fill-rule="evenodd" stroke-width="0.0" fill="rgb(0,0,0)" stroke-linecap="butt" stroke-miterlimit="10.0">
    <path d="M 476.7580,272.4218 ZM 478.7142,272.4218 v -1.3130 c 2.1705,-1.9294 3.8453,-3.4836 3.8453 -3.4836c 1.6748,-1.5542 2.8137,-2.8538 2.8137 -2.8538c 1.1389,-1.2996 1.7284,-2.4251 1.7284 -2.4251c 0.5895,-1.1255 0.5895,-2.1973 0.5895 -2.1973c 0.0000,-1.4738 -0.9111,-2.4117 -0.9111 -2.4117c -0.9111,-0.9379 -2.8137,-0.9379 -2.8137 -0.9379c -1.2059,-0.0000 -2.2375,0.6029 -2.2375 0.6029c -1.0317,0.6029 -1.8624,1.4604 -1.8624 1.4604l -1.2594,-1.2594 c 1.1523,-1.1791 2.4787,-1.8892 2.4787 -1.8892c 1.3264,-0.7101 3.1486,-0.7101 3.1486 -0.7101c 1.2862,-0.0000 2.3179,0.3618 2.3179 0.3618c 1.0317,0.3618 1.7552,1.0183 1.7552 1.0183c 0.7235,0.6565 1.1121,1.5944 1.1121 1.5944c 0.3886,0.9379 0.3886,2.0633 0.3886 2.0633c 0.0000,1.2059 -0.5761,2.4251 -0.5761 2.4251c -0.5761,1.2193 -1.6212,2.5189 -1.6212 2.5189c -1.0451,1.2996 -2.4921,2.7065 -2.4921 2.7065c -1.4470,1.4068 -3.1888,2.9878 -3.1888 2.9878l 1.6078,-0.1072 c 0.0000,-0.0000 1.5810,-0.0536 1.5810 -0.0536h 5.6273 v 1.9026 h -12.0317 ZM 492.8360,272.4218 ZM 506.3148,272.7433 c -1.5542,-0.0000 -2.1973,-0.8307 -2.1973 -0.8307c -0.6431,-0.8307 -0.6431,-2.4385 -0.6431 -2.4385c 0.0000,-0.5091 0.0134,-1.4604 0.0134 -1.4604c 0.0134,-0.9513 0.0402,-2.1035 0.0402 -2.1035c 0.0268,-1.1523 0.0536,-2.3849 0.0536 -2.3849c 0.0268,-1.2326 0.0268,-2.3045 0.0268 -2.3045h -5.2790 c 0.0000,2.7601 -0.0938,5.6139 -0.0938 5.6139c -0.0938,2.8538 -0.3082,5.7211 -0.3082 5.7211l -2.1973,-0.1340 c 0.3216,-2.8940 0.4287,-5.7211 0.4287 -5.7211c 0.1072,-2.8271 0.1072,-5.4799 0.1072 -5.4799h -2.7065 v -1.6882 l 1.8490,-0.1340 h 12.7820 v 1.8222 h -2.4653 c -0.0536,1.0987 -0.0938,2.3715 -0.0938 2.3715c -0.0402,1.2728 -0.0670,2.4653 -0.0670 2.4653c -0.0268,1.1925 -0.0268,2.1437 -0.0268 2.1437v 1.4336 c 0.0000,0.6967 0.2948,0.9915 0.2948 0.9915c 0.2948,0.2948 0.9111,0.2948 0.9111 0.2948c 0.1340,-0.0000 0.2948,-0.0402 0.2948 -0.0402c 0.1608,-0.0402 0.4287,-0.1206 0.4287 -0.1206l 0.3216,1.6882 c -0.2948,0.1340 -0.6431,0.2144 -0.6431 0.2144c -0.3484,0.0804 -0.8307,0.0804 -0.8307 0.0804Z"/>
  </g>
  <g stroke-linejoin="miter" stroke-opacity="0.6" fill-opacity="0.0" stroke="rgb(0,0,0)" stroke-width="1.8865322981807418" fill="rgb(0,0,0)" stroke-linecap="butt" stroke-miterlimit="10.0">
    <path d="M 492.8360,237.9317 v 4.0570 "/>
  </g>
  <g stroke-linejoin="miter" stroke-opacity="1.0" fill-opacity="0.6" stroke="rgb(0,0,0)" fill-rule="evenodd" stroke-width="0.0" fill="rgb(0,0,0)" stroke-linecap="butt" stroke-miterlimit="10.0">
    <path d="M 359.2544,272.4218 ZM 366.9451,272.7433 c -2.2241,-0.0000 -3.7247,-0.7369 -3.7247 -0.7369c -1.5006,-0.7369 -2.4385,-1.6748 -2.4385 -1.6748l 1.1255,-1.4470 c 0.8575,0.8039 2.0499,1.4202 2.0499 1.4202c 1.1925,0.6163 2.8538,0.6163 2.8538 0.6163c 0.8843,-0.0000 1.6346,-0.2278 1.6346 -0.2278c 0.7503,-0.2278 1.2996,-0.6297 1.2996 -0.6297c 0.5493,-0.4020 0.8575,-0.9781 0.8575 -0.9781c 0.3082,-0.5761 0.3082,-1.2996 0.3082 -1.2996c 0.0000,-0.7503 -0.3350,-1.3800 -0.3350 -1.3800c -0.3350,-0.6297 -1.0853,-1.0853 -1.0853 -1.0853c -0.7503,-0.4555 -1.9294,-0.6967 -1.9294 -0.6967c -1.1791,-0.2412 -2.8672,-0.2412 -2.8672 -0.2412v -1.6882 c 1.5274,-0.0000 2.5859,-0.2412 2.5859 -0.2412c 1.0585,-0.2412 1.7284,-0.6699 1.7284 -0.6699c 0.6699,-0.4287 0.9781,-1.0183 0.9781 -1.0183c 0.3082,-0.5895 0.3082,-1.2594 0.3082 -1.2594c 0.0000,-1.2594 -0.9513,-1.9830 -0.9513 -1.9830c -0.9513,-0.7235 -2.5323,-0.7235 -2.5323 -0.7235c -1.2059,-0.0000 -2.2777,0.4823 -2.2777 0.4823c -1.0719,0.4823 -1.9294,1.2594 -1.9294 1.2594l -1.1791,-1.3934 c 1.0719,-0.9379 2.4385,-1.5408 2.4385 -1.5408c 1.3666,-0.6029 3.0280,-0.6029 3.0280 -0.6029c 1.2059,-0.0000 2.2375,0.2948 2.2375 0.2948c 1.0317,0.2948 1.7954,0.8441 1.7954 0.8441c 0.7637,0.5493 1.1925,1.3532 1.1925 1.3532c 0.4287,0.8039 0.4287,1.8490 0.4287 1.8490c 0.0000,1.5542 -1.0183,2.5457 -1.0183 2.5457c -1.0183,0.9915 -2.6261,1.5274 -2.6261 1.5274v 0.1072 c 0.8575,0.1876 1.6212,0.5493 1.6212 0.5493c 0.7637,0.3618 1.3532,0.9111 1.3532 0.9111c 0.5895,0.5493 0.9245,1.2728 0.9245 1.2728c 0.3350,0.7235 0.3350,1.6078 0.3350 1.6078c 0.0000,1.1255 -0.4823,2.0365 -0.4823 2.0365c -0.4823,0.9111 -1.3264,1.5408 -1.3264 1.5408c -0.8441,0.6297 -1.9696,0.9647 -1.9696 0.9647c -1.1255,0.3350 -2.4117,0.3350 -2.4117 0.3350ZM 375.3324,272.4218 ZM 388.8112,272.7433 c -1.5542,-0.0000 -2.1973,-0.8307 -2.1973 -0.8307c -0.6431,-0.8307 -0.6431,-2.4385 -0.6431 -2.4385c 0.0000,-0.5091 0.0134,-1.4604 0.0134 -1.4604c 0.0134,-0.9513 0.0402,-2.1035 0.0402 -2.1035c 0.0268,-1.1523 0.0536,-2.3849 0.0536 -2.3849c 0.0268,-1.2326 0.0268,-2.3045 0.0268 -2.3045h -5.2790 c 0.0000,2.7601 -0.0938,5.6139 -0.0938 5.6139c -0.0938,2.8538 -0.3082,5.7211 -0.3082 5.7211l -2.1973,-0.1340 c 0.3216,-2.8940 0.4287,-5.7211 0.4287 -5.7211c 0.1072,-2.8271 0.1072,-5.4799 0.1072 -5.4799h -2.7065 v -1.6882 l 1.8490,-0.1340 h 12.7820 v 1.8222 h -2.4653 c -0.0536,1.0987 -0.0938,2.3715 -0.0938 2.3715c -0.0402,1.2728 -0.0670,2.4653 -0.0670 2.4653c -0.0268,1.1925 -0.0268,2.1437 -0.0268 2.1437v 1.4336 c 0.0000,0.6967 0.2948,0.9915 0.2948 0.9915c 0.2948,0.2948 0.9111,0.2948 0.9111 0.2948c 0.1340,-0.0000 0.2948,-0.0402 0.2948 -0.0402c 0.1608,-0.0402 0.4287,-0.1206 0.4287 -0.1206l 0.3216,1.6882 c -0.2948,0.1340 -0.6431,0.2144 -0.6431 0.2144c -0.3484,0.0804 -0.8307,0.0804 -0.8307 0.0804ZM 391.4105,272.4218 ZM 394.0633,276.7093 l 8.7893,-23.3131 h 1.9830 l -8.7893,23.3131 h -1.9830 ZM 407.4885,272.4218 ZM 409.4447,272.4218 v -1.3130 c 2.1705,-1.9294 3.8453,-3.4836 3.8453 -3.4836c 1.6748,-1.5542 2.8137,-2.8538 2.8137 -2.8538c 1.1389,-1.2996 1.7284,-2.4251 1.7284 -2.4251c 0.5895,-1.1255 0.5895,-2.1973 0.5895 -2.1973c 0.0000,-1.4738 -0.9111,-2.4117 -0.9111 -2.4117c -0.9111,-0.9379 -2.8137,-0.9379 -2.8137 -0.9379c -1.2059,-0.0000 -2.2375,0.6029 -2.2375 0.6029c -1.0317,0.6029 -1.8624,1.4604 -1.8624 1.4604l -1.2594,-1.2594 c 1.1523,-1.1791 2.4787,-1.8892 2.4787 -1.8892c 1.3264,-0.7101 3.1486,-0.7101 3.1486 -0.7101c 1.2862,-0.0000 2.3179,0.3618 2.3179 0.3618c 1.0317,0.3618 1.7552,1.0183 1.7552 1.0183c 0.7235,0.6565 1.1121,1.5944 1.1121 1.5944c 0.3886,0.9379 0.3886,2.0633 0.3886 2.0633c 0.0000,1.2059 -0.5761,2.4251 -0.5761 2.4251c -0.5761,1.2193 -1.6212,2.5189 -1.6212 2.5189c -1.0451,1.2996 -2.4921,2.7065 -2.4921 2.7065c -1.4470,1.4068 -3.1888,2.9878 -3.1888 2.9878l 1.6078,-0.1072 c 0.0000,-0.0000 1.5810,-0.0536 1.5810 -0.0536h 5.6273 v 1.9026 h -12.0317 Z"/>
  </g>
  <g stroke-linejoin="miter" stroke-opacity="0.6" fill-opacity="0.0" stroke="rgb(0,0,0)" stroke-width="1.8865322981807418" fill="rgb(0,0,0)" stroke-linecap="butt" stroke-miterlimit="10.0">
    <path d="M 391.4105,237.9317 v 4.0570 "/>
  </g>
  <g stroke-linejoin="miter" stroke-opacity="1.0" fill-opacity="0.6" stroke="rgb(0,0,0)" fill-rule="evenodd" stroke-width="0.0" fill="rgb(0,0,0)" stroke-linecap="butt" stroke-miterlimit="10.0">
    <path d="M 281.9459,272.4218 ZM 295.4247,272.7433 c -1.5542,-0.0000 -2.1973,-0.8307 -2.1973 -0.8307c -0.6431,-0.8307 -0.6431,-2.4385 -0.6431 -2.4385c 0.0000,-0.5091 0.0134,-1.4604 0.0134 -1.4604c 0.0134,-0.9513 0.0402,-2.1035 0.0402 -2.1035c 0.0268,-1.1523 0.0536,-2.3849 0.0536 -2.3849c 0.0268,-1.2326 0.0268,-2.3045 0.0268 -2.3045h -5.2790 c 0.0000,2.7601 -0.0938,5.6139 -0.0938 5.6139c -0.0938,2.8538 -0.3082,5.7211 -0.3082 5.7211l -2.1973,-0.1340 c 0.3216,-2.8940 0.4287,-5.7211 0.4287 -5.7211c 0.1072,-2.8271 0.1072,-5.4799 0.1072 -5.4799h -2.7065 v -1.6882 l 1.8490,-0.1340 h 12.7820 v 1.8222 h -2.4653 c -0.0536,1.0987 -0.0938,2.3715 -0.0938 2.3715c -0.0402,1.2728 -0.0670,2.4653 -0.0670 2.4653c -0.0268,1.1925 -0.0268,2.1437 -0.0268 2.1437v 1.4336 c 0.0000,0.6967 0.2948,0.9915 0.2948 0.9915c 0.2948,0.2948 0.9111,0.2948 0.9111 0.2948c 0.1340,-0.0000 0.2948,-0.0402 0.2948 -0.0402c 0.1608,-0.0402 0.4287,-0.1206 0.4287 -0.1206l 0.3216,1.6882 c -0.2948,0.1340 -0.6431,0.2144 -0.6431 0.2144c -0.3484,0.0804 -0.8307,0.0804 -0.8307 0.0804Z"/>
  </g>
  <g stroke-linejoin="miter" stroke-opacity="0.6" fill-opacity="0.0" stroke="rgb(0,0,0)" stroke-width="1.8865322981807418" fill="rgb(0,0,0)" stroke-linecap="butt" stroke-miterlimit="10.0">
    <path d="M 289.9849,237.9317 v 4.0570 "/>
  </g>
  <g stroke-linejoin="miter" stroke-opacity="1.0" fill-opacity="0.6" stroke="rgb(0,0,0)" fill-rule="evenodd" stroke-width="0.0" fill="rgb(0,0,0)" stroke-linecap="butt" stroke-miterlimit="10.0">
    <path d="M 164.4423,272.4218 ZM 177.9211,272.7433 c -1.5542,-0.0000 -2.1973,-0.8307 -2.1973 -0.8307c -0.6431,-0.8307 -0.6431,-2.4385 -0.6431 -2.4385c 0.0000,-0.5091 0.0134,-1.4604 0.0134 -1.4604c 0.0134,-0.9513 0.0402,-2.1035 0.0402 -2.1035c 0.0268,-1.1523 0.0536,-2.3849 0.0536 -2.3849c 0.0268,-1.2326 0.0268,-2.3045 0.0268 -2.3045h -5.2790 c 0.0000,2.7601 -0.0938,5.6139 -0.0938 5.6139c -0.0938,2.8538 -0.3082,5.7211 -0.3082 5.7211l -2.1973,-0.1340 c 0.3216,-2.8940 0.4287,-5.7211 0.4287 -5.7211c 0.1072,-2.8271 0.1072,-5.4799 0.1072 -5.4799h -2.7065 v -1.6882 l 1.8490,-0.1340 h 12.7820 v 1.8222 h -2.4653 c -0.0536,1.0987 -0.0938,2.3715 -0.0938 2.3715c -0.0402,1.2728 -0.0670,2.4653 -0.0670 2.4653c -0.0268,1.1925 -0.0268,2.1437 -0.0268 2.1437v 1.4336 c 0.0000,0.6967 0.2948,0.9915 0.2948 0.9915c 0.2948,0.2948 0.9111,0.2948 0.9111 0.2948c 0.1340,-0.0000 0.2948,-0.0402 0.2948 -0.0402c 0.1608,-0.0402 0.4287,-0.1206 0.4287 -0.1206l 0.3216,1.6882 c -0.2948,0.1340 -0.6431,0.2144 -0.6431 0.2144c -0.3484,0.0804 -0.8307,0.0804 -0.8307 0.0804ZM 180.5204,272.4218 ZM 183.1732,276.7093 l 8.7893,-23.3131 h 1.9830 l -8.7893,23.3131 h -1.9830 ZM 196.5984,272.4218 ZM 198.5546,272.4218 v -1.3130 c 2.1705,-1.9294 3.8453,-3.4836 3.8453 -3.4836c 1.6748,-1.5542 2.8137,-2.8538 2.8137 -2.8538c 1.1389,-1.2996 1.7284,-2.4251 1.7284 -2.4251c 0.5895,-1.1255 0.5895,-2.1973 0.5895 -2.1973c 0.0000,-1.4738 -0.9111,-2.4117 -0.9111 -2.4117c -0.9111,-0.9379 -2.8137,-0.9379 -2.8137 -0.9379c -1.2059,-0.0000 -2.2375,0.6029 -2.2375 0.6029c -1.0317,0.6029 -1.8624,1.4604 -1.8624 1.4604l -1.2594,-1.2594 c 1.1523,-1.1791 2.4787,-1.8892 2.4787 -1.8892c 1.3264,-0.7101 3.1486,-0.7101 3.1486 -0.7101c 1.2862,-0.0000 2.3179,0.3618 2.3179 0.3618c 1.0317,0.3618 1.7552,1.0183 1.7552 1.0183c 0.7235,0.6565 1.1121,1.5944 1.1121 1.5944c 0.3886,0.9379 0.3886,2.0633 0.3886 2.0633c 0.0000,1.2059 -0.5761,2.4251 -0.5761 2.4251c -0.5761,1.2193 -1.6212,2.5189 -1.6212 2.5189c -1.0451,1.2996 -2.4921,2.7065 -2.4921 2.7065c -1.4470,1.4068 -3.1888,2.9878 -3.1888 2.9878l 1.6078,-0.1072 c 0.0000,-0.0000 1.5810,-0.0536 1.5810 -0.0536h 5.6273 v 1.9026 h -12.0317 Z"/>
  </g>
  <g stroke-linejoin="miter" stroke-opacity="0.6" fill-opacity="0.0" stroke="rgb(0,0,0)" stroke-width="1.8865322981807418" fill="rgb(0,0,0)" stroke-linecap="butt" stroke-miterlimit="10.0">
    <path d="M 188.5594,237.9317 v 4.0570 "/>
  </g>
  <g stroke-linejoin="miter" stroke-opacity="1.0" fill-opacity="0.6" stroke="rgb(0,0,0)" fill-rule="evenodd" stroke-width="0.0" fill="rgb(0,0,0)" stroke-linecap="butt" stroke-miterlimit="10.0">
    <path d="M 54.9778,272.4218 ZM 56.8804,272.4218 v -1.1791 l 8.9233,-10.0488 h -7.9318 v -1.7954 h 11.0938 v 1.1791 l -8.9501,10.0488 h 9.1913 v 1.7954 h -12.3265 ZM 71.0558,272.4218 ZM 79.8987,272.7433 c -1.4738,-0.0000 -2.7467,-0.4555 -2.7467 -0.4555c -1.2728,-0.4555 -2.2241,-1.3398 -2.2241 -1.3398c -0.9513,-0.8843 -1.5006,-2.1571 -1.5006 -2.1571c -0.5493,-1.2728 -0.5493,-2.9074 -0.5493 -2.9074c 0.0000,-1.5810 0.5493,-2.8405 0.5493 -2.8405c 0.5493,-1.2594 1.4738,-2.1437 1.4738 -2.1437c 0.9245,-0.8843 2.1169,-1.3532 2.1169 -1.3532c 1.1925,-0.4689 2.5055,-0.4689 2.5055 -0.4689c 1.3934,-0.0000 2.5055,0.4421 2.5055 0.4421c 1.1121,0.4421 1.8758,1.2460 1.8758 1.2460c 0.7637,0.8039 1.1657,1.9294 1.1657 1.9294c 0.4020,1.1255 0.4020,2.4921 0.4020 2.4921c 0.0000,0.3752 -0.0268,0.7235 -0.0268 0.7235c -0.0268,0.3484 -0.0804,0.6163 -0.0804 0.6163h -10.2631 c 0.2144,2.2241 1.6212,3.3362 1.6212 3.3362c 1.4068,1.1121 3.4434,1.1121 3.4434 1.1121c 1.1791,-0.0000 2.1303,-0.3350 2.1303 -0.3350c 0.9513,-0.3350 1.8356,-0.8977 1.8356 -0.8977l 0.8039,1.4470 c -0.9647,0.6431 -2.2107,1.0987 -2.2107 1.0987c -1.2460,0.4555 -2.8271,0.4555 -2.8271 0.4555ZM 79.8987,272.7433 ZM 79.5772,260.8188 c -0.8039,-0.0000 -1.5408,0.2680 -1.5408 0.2680c -0.7369,0.2680 -1.3264,0.7637 -1.3264 0.7637c -0.5895,0.4957 -0.9915,1.2460 -0.9915 1.2460c -0.4020,0.7503 -0.5627,1.7150 -0.5627 1.7150h 8.3070 c -0.1340,-2.0098 -1.1657,-3.0012 -1.1657 -3.0012c -1.0317,-0.9915 -2.7199,-0.9915 -2.7199 -0.9915ZM 87.1338,272.4218 ZM 91.0462,272.4218 v -13.0232 h 1.8222 l 0.1876,3.0816 h 0.0804 c 1.0183,-1.5810 2.5055,-2.4921 2.5055 -2.4921c 1.4872,-0.9111 3.3094,-0.9111 3.3094 -0.9111c 0.7235,-0.0000 1.3398,0.1206 1.3398 0.1206c 0.6163,0.1206 1.2326,0.4153 1.2326 0.4153l -0.5091,1.9026 c -0.6967,-0.2412 -1.1657,-0.3484 -1.1657 -0.3484c -0.4689,-0.1072 -1.2460,-0.1072 -1.2460 -0.1072c -1.4738,-0.0000 -2.8271,0.8441 -2.8271 0.8441c -1.3532,0.8441 -2.5323,2.8806 -2.5323 2.8806v 7.6371 h -2.1973 ZM 103.2119,272.4218 ZM 111.2509,272.7433 c -1.2862,-0.0000 -2.4519,-0.4555 -2.4519 -0.4555c -1.1657,-0.4555 -2.0499,-1.3264 -2.0499 -1.3264c -0.8843,-0.8709 -1.4068,-2.1437 -1.4068 -2.1437c -0.5225,-1.2728 -0.5225,-2.8806 -0.5225 -2.8806c 0.0000,-1.6346 0.5225,-2.9074 0.5225 -2.9074c 0.5225,-1.2728 1.4068,-2.1571 1.4068 -2.1571c 0.8843,-0.8843 2.0499,-1.3398 2.0499 -1.3398c 1.1657,-0.4555 2.4519,-0.4555 2.4519 -0.4555c 1.2862,-0.0000 2.4519,0.4555 2.4519 0.4555c 1.1657,0.4555 2.0499,1.3398 2.0499 1.3398c 0.8843,0.8843 1.4068,2.1571 1.4068 2.1571c 0.5225,1.2728 0.5225,2.9074 0.5225 2.9074c 0.0000,1.6078 -0.5225,2.8806 -0.5225 2.8806c -0.5225,1.2728 -1.4068,2.1437 -1.4068 2.1437c -0.8843,0.8709 -2.0499,1.3264 -2.0499 1.3264c -1.1657,0.4555 -2.4519,0.4555 -2.4519 0.4555ZM 111.2509,272.7433 ZM 111.2509,270.9212 c 0.9379,-0.0000 1.7016,-0.3618 1.7016 -0.3618c 0.7637,-0.3618 1.3130,-1.0183 1.3130 -1.0183c 0.5493,-0.6565 0.8441,-1.5676 0.8441 -1.5676c 0.2948,-0.9111 0.2948,-2.0365 0.2948 -2.0365c 0.0000,-1.1255 -0.2948,-2.0499 -0.2948 -2.0499c -0.2948,-0.9245 -0.8441,-1.5944 -0.8441 -1.5944c -0.5493,-0.6699 -1.3130,-1.0317 -1.3130 -1.0317c -0.7637,-0.3618 -1.7016,-0.3618 -1.7016 -0.3618c -0.9379,-0.0000 -1.7016,0.3618 -1.7016 0.3618c -0.7637,0.3618 -1.3130,1.0317 -1.3130 1.0317c -0.5493,0.6699 -0.8441,1.5944 -0.8441 1.5944c -0.2948,0.9245 -0.2948,2.0499 -0.2948 2.0499c 0.0000,1.1255 0.2948,2.0365 0.2948 2.0365c 0.2948,0.9111 0.8441,1.5676 0.8441 1.5676c 0.5493,0.6565 1.3130,1.0183 1.3130 1.0183c 0.7637,0.3618 1.7016,0.3618 1.7016 0.3618Z"/>
  </g>
  <g stroke-linejoin="miter" stroke-opacity="0.6" fill-opacity="0.0" stroke="rgb(0,0,0)" stroke-width="1.8865322981807418" fill="rgb(0,0,0)" stroke-linecap="butt" stroke-miterlimit="10.0">
    <path d="M 87.1338,237.9317 v 4.0570 "/>
  </g>
  <g stroke-linejoin="miter" stroke-opacity="0.0" fill-opacity="0.0" stroke="rgb(0,0,0)" stroke-width="0.0" fill="rgb(0,0,0)" stroke-linecap="butt" stroke-miterlimit="10.0">
    <path d="M 492.8360,224.4083 l -0.0000,-135.2341 h -405.7022 l -0.0000,135.2341 Z"/>
  </g>
</svg>