<?xml version="1.0" encoding="UTF-8"?>
<!DOCTYPE svg PUBLIC "-//W3C//DTD SVG 1.1//EN"
    "http://www.w3.org/Graphics/SVG/1.1/DTD/svg11.dtd">
<svg xmlns="http://www.w3.org/2000/svg" height="400.0000" stroke-opacity="1" viewBox="0 0 600 400" font-size="1" width="600.0000" xmlns:xlink="http://www.w3.org/1999/xlink" stroke="rgb(0,0,0)" version="1.1">
  <defs>
  </defs>
  <g stroke-linejoin="miter" stroke-opacity="0.0" fill-opacity="0.0" stroke="rgb(0,0,0)" fill-rule="evenodd" stroke-width="0.0" fill="rgb(0,0,0)" stroke-linecap="butt" stroke-miterlimit="10.0">
    <path d="M 588.2257,94.8196 l -0.0000,-16.6568 h -24.9852 l -0.0000,16.6568 Z"/>
  </g>
  <g stroke-linejoin="miter" stroke-opacity="1.0" fill-opacity="0.33" font-size="15.14252742156408px" stroke="rgb(0,0,0)" fill-rule="evenodd" stroke-width="0.0" fill="rgb(0,0,0)" stroke-linecap="butt" stroke-miterlimit="10.0">
    <text dominant-baseline="middle" transform="matrix(1.0000,-0.0000,0.0000,1.0000,575.7331,86.4912)" stroke="none" text-anchor="middle">5,5
    </text>
  </g>
  <g stroke-linejoin="miter" stroke-opacity="1.0" fill-opacity="1.0" stroke="rgb(102,102,102)" stroke-width="0.0" fill="rgb(0,0,0)" stroke-linecap="butt" stroke-miterlimit="10.0">
    <path d="M 576.5420,98.0552 c 0.0000,-0.4467 -0.3622,-0.8089 -0.8089 -0.8089c -0.4467,-0.0000 -0.8089,0.3622 -0.8089 0.8089c -0.0000,0.4467 0.3622,0.8089 0.8089 0.8089c 0.4467,0.0000 0.8089,-0.3622 0.8089 -0.8089Z"/>
  </g>
  <g stroke-linejoin="miter" stroke-opacity="0.0" fill-opacity="0.0" stroke="rgb(0,0,0)" fill-rule="evenodd" stroke-width="0.0" fill="rgb(0,0,0)" stroke-linecap="butt" stroke-miterlimit="10.0">
    <path d="M 588.2257,127.1754 l -0.0000,-16.6568 h -24.9852 l -0.0000,16.6568 Z"/>
  </g>
  <g stroke-linejoin="miter" stroke-opacity="1.0" fill-opacity="0.33" font-size="15.14252742156408px" stroke="rgb(0,0,0)" fill-rule="evenodd" stroke-width="0.0" fill="rgb(0,0,0)" stroke-linecap="butt" stroke-miterlimit="10.0">
    <text dominant-baseline="middle" transform="matrix(1.0000,-0.0000,0.0000,1.0000,575.7331,118.8471)" stroke="none" text-anchor="middle">5,4
    </text>
  </g>
  <g stroke-linejoin="miter" stroke-opacity="1.0" fill-opacity="1.0" stroke="rgb(102,102,102)" stroke-width="0.0" fill="rgb(0,0,0)" stroke-linecap="butt" stroke-miterlimit="10.0">
    <path d="M 576.5420,130.4110 c 0.0000,-0.4467 -0.3622,-0.8089 -0.8089 -0.8089c -0.4467,-0.0000 -0.8089,0.3622 -0.8089 0.8089c -0.0000,0.4467 0.3622,0.8089 0.8089 0.8089c 0.4467,0.0000 0.8089,-0.3622 0.8089 -0.8089Z"/>
  </g>
  <g stroke-linejoin="miter" stroke-opacity="0.0" fill-opacity="0.0" stroke="rgb(0,0,0)" fill-rule="evenodd" stroke-width="0.0" fill="rgb(0,0,0)" stroke-linecap="butt" stroke-miterlimit="10.0">
    <path d="M 588.2257,159.5313 l -0.0000,-16.6568 h -24.9852 l -0.0000,16.6568 Z"/>
  </g>
  <g stroke-linejoin="miter" stroke-opacity="1.0" fill-opacity="0.33" font-size="15.14252742156408px" stroke="rgb(0,0,0)" fill-rule="evenodd" stroke-width="0.0" fill="rgb(0,0,0)" stroke-linecap="butt" stroke-miterlimit="10.0">
    <text dominant-baseline="middle" transform="matrix(1.0000,-0.0000,0.0000,1.0000,575.7331,151.2029)" stroke="none" text-anchor="middle">5,3
    </text>
  </g>
  <g stroke-linejoin="miter" stroke-opacity="1.0" fill-opacity="1.0" stroke="rgb(102,102,102)" stroke-width="0.0" fill="rgb(0,0,0)" stroke-linecap="butt" stroke-miterlimit="10.0">
    <path d="M 576.5420,162.7669 c 0.0000,-0.4467 -0.3622,-0.8089 -0.8089 -0.8089c -0.4467,-0.0000 -0.8089,0.3622 -0.8089 0.8089c -0.0000,0.4467 0.3622,0.8089 0.8089 0.8089c 0.4467,0.0000 0.8089,-0.3622 0.8089 -0.8089Z"/>
  </g>
  <g stroke-linejoin="miter" stroke-opacity="0.0" fill-opacity="0.0" stroke="rgb(0,0,0)" fill-rule="evenodd" stroke-width="0.0" fill="rgb(0,0,0)" stroke-linecap="butt" stroke-miterlimit="10.0">
    <path d="M 588.2257,191.8871 l -0.0000,-16.6568 h -24.9852 l -0.0000,16.6568 Z"/>
  </g>
  <g stroke-linejoin="miter" stroke-opacity="1.0" fill-opacity="0.33" font-size="15.14252742156408px" stroke="rgb(0,0,0)" fill-rule="evenodd" stroke-width="0.0" fill="rgb(0,0,0)" stroke-linecap="butt" stroke-miterlimit="10.0">
    <text dominant-baseline="middle" transform="matrix(1.0000,-0.0000,0.0000,1.0000,575.7331,183.5587)" stroke="none" text-anchor="middle">5,2
    </text>
  </g>
  <g stroke-linejoin="miter" stroke-opacity="1.0" fill-opacity="1.0" stroke="rgb(102,102,102)" stroke-width="0.0" fill="rgb(0,0,0)" stroke-linecap="butt" stroke-miterlimit="10.0">
    <path d="M 576.5420,195.1227 c 0.0000,-0.4467 -0.3622,-0.8089 -0.8089 -0.8089c -0.4467,-0.0000 -0.8089,0.3622 -0.8089 0.8089c -0.0000,0.4467 0.3622,0.8089 0.8089 0.8089c 0.4467,0.0000 0.8089,-0.3622 0.8089 -0.8089Z"/>
  </g>
  <g stroke-linejoin="miter" stroke-opacity="0.0" fill-opacity="0.0" stroke="rgb(0,0,0)" fill-rule="evenodd" stroke-width="0.0" fill="rgb(0,0,0)" stroke-linecap="butt" stroke-miterlimit="10.0">
    <path d="M 588.2257,224.2429 l -0.0000,-16.6568 h -24.9852 l -0.0000,16.6568 Z"/>
  </g>
  <g stroke-linejoin="miter" stroke-opacity="1.0" fill-opacity="0.33" font-size="15.14252742156408px" stroke="rgb(0,0,0)" fill-rule="evenodd" stroke-width="0.0" fill="rgb(0,0,0)" stroke-linecap="butt" stroke-miterlimit="10.0">
    <text dominant-baseline="middle" transform="matrix(1.0000,-0.0000,0.0000,1.0000,575.7331,215.9145)" stroke="none" text-anchor="middle">5,1
    </text>
  </g>
  <g stroke-linejoin="miter" stroke-opacity="1.0" fill-opacity="1.0" stroke="rgb(102,102,102)" stroke-width="0.0" fill="rgb(0,0,0)" stroke-linecap="butt" stroke-miterlimit="10.0">
    <path d="M 576.5420,227.4785 c 0.0000,-0.4467 -0.3622,-0.8089 -0.8089 -0.8089c -0.4467,-0.0000 -0.8089,0.3622 -0.8089 0.8089c -0.0000,0.4467 0.3622,0.8089 0.8089 0.8089c 0.4467,0.0000 0.8089,-0.3622 0.8089 -0.8089Z"/>
  </g>
  <g stroke-linejoin="miter" stroke-opacity="0.0" fill-opacity="0.0" stroke="rgb(0,0,0)" fill-rule="evenodd" stroke-width="0.0" fill="rgb(0,0,0)" stroke-linecap="butt" stroke-miterlimit="10.0">
    <path d="M 588.2257,256.5988 l -0.0000,-16.6568 h -24.9852 l -0.0000,16.6568 Z"/>
  </g>
  <g stroke-linejoin="miter" stroke-opacity="1.0" fill-opacity="0.33" font-size="15.14252742156408px" stroke="rgb(0,0,0)" fill-rule="evenodd" stroke-width="0.0" fill="rgb(0,0,0)" stroke-linecap="butt" stroke-miterlimit="10.0">
    <text dominant-baseline="middle" transform="matrix(1.0000,-0.0000,0.0000,1.0000,575.7331,248.2704)" stroke="none" text-anchor="middle">5,0
    </text>
  </g>
  <g stroke-linejoin="miter" stroke-opacity="1.0" fill-opacity="1.0" stroke="rgb(102,102,102)" stroke-width="0.0" fill="rgb(0,0,0)" stroke-linecap="butt" stroke-miterlimit="10.0">
    <path d="M 576.5420,259.8343 c 0.0000,-0.4467 -0.3622,-0.8089 -0.8089 -0.8089c -0.4467,-0.0000 -0.8089,0.3622 -0.8089 0.8089c -0.0000,0.4467 0.3622,0.8089 0.8089 0.8089c 0.4467,0.0000 0.8089,-0.3622 0.8089 -0.8089Z"/>
  </g>
  <g stroke-linejoin="miter" stroke-opacity="0.0" fill-opacity="0.0" stroke="rgb(0,0,0)" fill-rule="evenodd" stroke-width="0.0" fill="rgb(0,0,0)" stroke-linecap="butt" stroke-miterlimit="10.0">
    <path d="M 491.1582,94.8196 l -0.0000,-16.6568 h -24.9852 l -0.0000,16.6568 Z"/>
  </g>
  <g stroke-linejoin="miter" stroke-opacity="1.0" fill-opacity="0.33" font-size="15.14252742156408px" stroke="rgb(0,0,0)" fill-rule="evenodd" stroke-width="0.0" fill="rgb(0,0,0)" stroke-linecap="butt" stroke-miterlimit="10.0">
    <text dominant-baseline="middle" transform="matrix(1.0000,-0.0000,0.0000,1.0000,478.6656,86.4912)" stroke="none" text-anchor="middle">4,5
    </text>
  </g>
  <g stroke-linejoin="miter" stroke-opacity="1.0" fill-opacity="1.0" stroke="rgb(102,102,102)" stroke-width="0.0" fill="rgb(0,0,0)" stroke-linecap="butt" stroke-miterlimit="10.0">
    <path d="M 479.4745,98.0552 c 0.0000,-0.4467 -0.3622,-0.8089 -0.8089 -0.8089c -0.4467,-0.0000 -0.8089,0.3622 -0.8089 0.8089c -0.0000,0.4467 0.3622,0.8089 0.8089 0.8089c 0.4467,0.0000 0.8089,-0.3622 0.8089 -0.8089Z"/>
  </g>
  <g stroke-linejoin="miter" stroke-opacity="0.0" fill-opacity="0.0" stroke="rgb(0,0,0)" fill-rule="evenodd" stroke-width="0.0" fill="rgb(0,0,0)" stroke-linecap="butt" stroke-miterlimit="10.0">
    <path d="M 491.1582,127.1754 l -0.0000,-16.6568 h -24.9852 l -0.0000,16.6568 Z"/>
  </g>
  <g stroke-linejoin="miter" stroke-opacity="1.0" fill-opacity="0.33" font-size="15.14252742156408px" stroke="rgb(0,0,0)" fill-rule="evenodd" stroke-width="0.0" fill="rgb(0,0,0)" stroke-linecap="butt" stroke-miterlimit="10.0">
    <text dominant-baseline="middle" transform="matrix(1.0000,-0.0000,0.0000,1.0000,478.6656,118.8471)" stroke="none" text-anchor="middle">4,4
    </text>
  </g>
  <g stroke-linejoin="miter" stroke-opacity="1.0" fill-opacity="1.0" stroke="rgb(102,102,102)" stroke-width="0.0" fill="rgb(0,0,0)" stroke-linecap="butt" stroke-miterlimit="10.0">
    <path d="M 479.4745,130.4110 c 0.0000,-0.4467 -0.3622,-0.8089 -0.8089 -0.8089c -0.4467,-0.0000 -0.8089,0.3622 -0.8089 0.8089c -0.0000,0.4467 0.3622,0.8089 0.8089 0.8089c 0.4467,0.0000 0.8089,-0.3622 0.8089 -0.8089Z"/>
  </g>
  <g stroke-linejoin="miter" stroke-opacity="0.0" fill-opacity="0.0" stroke="rgb(0,0,0)" fill-rule="evenodd" stroke-width="0.0" fill="rgb(0,0,0)" stroke-linecap="butt" stroke-miterlimit="10.0">
    <path d="M 491.1582,159.5313 l -0.0000,-16.6568 h -24.9852 l -0.0000,16.6568 Z"/>
  </g>
  <g stroke-linejoin="miter" stroke-opacity="1.0" fill-opacity="0.33" font-size="15.14252742156408px" stroke="rgb(0,0,0)" fill-rule="evenodd" stroke-width="0.0" fill="rgb(0,0,0)" stroke-linecap="butt" stroke-miterlimit="10.0">
    <text dominant-baseline="middle" transform="matrix(1.0000,-0.0000,0.0000,1.0000,478.6656,151.2029)" stroke="none" text-anchor="middle">4,3
    </text>
  </g>
  <g stroke-linejoin="miter" stroke-opacity="1.0" fill-opacity="1.0" stroke="rgb(102,102,102)" stroke-width="0.0" fill="rgb(0,0,0)" stroke-linecap="butt" stroke-miterlimit="10.0">
    <path d="M 479.4745,162.7669 c 0.0000,-0.4467 -0.3622,-0.8089 -0.8089 -0.8089c -0.4467,-0.0000 -0.8089,0.3622 -0.8089 0.8089c -0.0000,0.4467 0.3622,0.8089 0.8089 0.8089c 0.4467,0.0000 0.8089,-0.3622 0.8089 -0.8089Z"/>
  </g>
  <g stroke-linejoin="miter" stroke-opacity="0.0" fill-opacity="0.0" stroke="rgb(0,0,0)" fill-rule="evenodd" stroke-width="0.0" fill="rgb(0,0,0)" stroke-linecap="butt" stroke-miterlimit="10.0">
    <path d="M 491.1582,191.8871 l -0.0000,-16.6568 h -24.9852 l -0.0000,16.6568 Z"/>
  </g>
  <g stroke-linejoin="miter" stroke-opacity="1.0" fill-opacity="0.33" font-size="15.14252742156408px" stroke="rgb(0,0,0)" fill-rule="evenodd" stroke-width="0.0" fill="rgb(0,0,0)" stroke-linecap="butt" stroke-miterlimit="10.0">
    <text dominant-baseline="middle" transform="matrix(1.0000,-0.0000,0.0000,1.0000,478.6656,183.5587)" stroke="none" text-anchor="middle">4,2
    </text>
  </g>
  <g stroke-linejoin="miter" stroke-opacity="1.0" fill-opacity="1.0" stroke="rgb(102,102,102)" stroke-width="0.0" fill="rgb(0,0,0)" stroke-linecap="butt" stroke-miterlimit="10.0">
    <path d="M 479.4745,195.1227 c 0.0000,-0.4467 -0.3622,-0.8089 -0.8089 -0.8089c -0.4467,-0.0000 -0.8089,0.3622 -0.8089 0.8089c -0.0000,0.4467 0.3622,0.8089 0.8089 0.8089c 0.4467,0.0000 0.8089,-0.3622 0.8089 -0.8089Z"/>
  </g>
  <g stroke-linejoin="miter" stroke-opacity="0.0" fill-opacity="0.0" stroke="rgb(0,0,0)" fill-rule="evenodd" stroke-width="0.0" fill="rgb(0,0,0)" stroke-linecap="butt" stroke-miterlimit="10.0">
    <path d="M 491.1582,224.2429 l -0.0000,-16.6568 h -24.9852 l -0.0000,16.6568 Z"/>
  </g>
  <g stroke-linejoin="miter" stroke-opacity="1.0" fill-opacity="0.33" font-size="15.14252742156408px" stroke="rgb(0,0,0)" fill-rule="evenodd" stroke-width="0.0" fill="rgb(0,0,0)" stroke-linecap="butt" stroke-miterlimit="10.0">
    <text dominant-baseline="middle" transform="matrix(1.0000,-0.0000,0.0000,1.0000,478.6656,215.9145)" stroke="none" text-anchor="middle">4,1
    </text>
  </g>
  <g stroke-linejoin="miter" stroke-opacity="1.0" fill-opacity="1.0" stroke="rgb(102,102,102)" stroke-width="0.0" fill="rgb(0,0,0)" stroke-linecap="butt" stroke-miterlimit="10.0">
    <path d="M 479.4745,227.4785 c 0.0000,-0.4467 -0.3622,-0.8089 -0.8089 -0.8089c -0.4467,-0.0000 -0.8089,0.3622 -0.8089 0.8089c -0.0000,0.4467 0.3622,0.8089 0.8089 0.8089c 0.4467,0.0000 0.8089,-0.3622 0.8089 -0.8089Z"/>
  </g>
  <g stroke-linejoin="miter" stroke-opacity="0.0" fill-opacity="0.0" stroke="rgb(0,0,0)" fill-rule="evenodd" stroke-width="0.0" fill="rgb(0,0,0)" stroke-linecap="butt" stroke-miterlimit="10.0">
    <path d="M 491.1582,256.5988 l -0.0000,-16.6568 h -24.9852 l -0.0000,16.6568 Z"/>
  </g>
  <g stroke-linejoin="miter" stroke-opacity="1.0" fill-opacity="0.33" font-size="15.14252742156408px" stroke="rgb(0,0,0)" fill-rule="evenodd" stroke-width="0.0" fill="rgb(0,0,0)" stroke-linecap="butt" stroke-miterlimit="10.0">
    <text dominant-baseline="middle" transform="matrix(1.0000,-0.0000,0.0000,1.0000,478.6656,248.2704)" stroke="none" text-anchor="middle">4,0
    </text>
  </g>
  <g stroke-linejoin="miter" stroke-opacity="1.0" fill-opacity="1.0" stroke="rgb(102,102,102)" stroke-width="0.0" fill="rgb(0,0,0)" stroke-linecap="butt" stroke-miterlimit="10.0">
    <path d="M 479.4745,259.8343 c 0.0000,-0.4467 -0.3622,-0.8089 -0.8089 -0.8089c -0.4467,-0.0000 -0.8089,0.3622 -0.8089 0.8089c -0.0000,0.4467 0.3622,0.8089 0.8089 0.8089c 0.4467,0.0000 0.8089,-0.3622 0.8089 -0.8089Z"/>
  </g>
  <g stroke-linejoin="miter" stroke-opacity="0.0" fill-opacity="0.0" stroke="rgb(0,0,0)" fill-rule="evenodd" stroke-width="0.0" fill="rgb(0,0,0)" stroke-linecap="butt" stroke-miterlimit="10.0">
    <path d="M 394.0907,94.8196 l -0.0000,-16.6568 h -24.9852 l -0.0000,16.6568 Z"/>
  </g>
  <g stroke-linejoin="miter" stroke-opacity="1.0" fill-opacity="0.33" font-size="15.14252742156408px" stroke="rgb(0,0,0)" fill-rule="evenodd" stroke-width="0.0" fill="rgb(0,0,0)" stroke-linecap="butt" stroke-miterlimit="10.0">
    <text dominant-baseline="middle" transform="matrix(1.0000,-0.0000,0.0000,1.0000,381.5982,86.4912)" stroke="none" text-anchor="middle">3,5
    </text>
  </g>
  <g stroke-linejoin="miter" stroke-opacity="1.0" fill-opacity="1.0" stroke="rgb(102,102,102)" stroke-width="0.0" fill="rgb(0,0,0)" stroke-linecap="butt" stroke-miterlimit="10.0">
    <path d="M 382.4071,98.0552 c 0.0000,-0.4467 -0.3622,-0.8089 -0.8089 -0.8089c -0.4467,-0.0000 -0.8089,0.3622 -0.8089 0.8089c -0.0000,0.4467 0.3622,0.8089 0.8089 0.8089c 0.4467,0.0000 0.8089,-0.3622 0.8089 -0.8089Z"/>
  </g>
  <g stroke-linejoin="miter" stroke-opacity="0.0" fill-opacity="0.0" stroke="rgb(0,0,0)" fill-rule="evenodd" stroke-width="0.0" fill="rgb(0,0,0)" stroke-linecap="butt" stroke-miterlimit="10.0">
    <path d="M 394.0907,127.1754 l -0.0000,-16.6568 h -24.9852 l -0.0000,16.6568 Z"/>
  </g>
  <g stroke-linejoin="miter" stroke-opacity="1.0" fill-opacity="0.33" font-size="15.14252742156408px" stroke="rgb(0,0,0)" fill-rule="evenodd" stroke-width="0.0" fill="rgb(0,0,0)" stroke-linecap="butt" stroke-miterlimit="10.0">
    <text dominant-baseline="middle" transform="matrix(1.0000,-0.0000,0.0000,1.0000,381.5982,118.8471)" stroke="none" text-anchor="middle">3,4
    </text>
  </g>
  <g stroke-linejoin="miter" stroke-opacity="1.0" fill-opacity="1.0" stroke="rgb(102,102,102)" stroke-width="0.0" fill="rgb(0,0,0)" stroke-linecap="butt" stroke-miterlimit="10.0">
    <path d="M 382.4071,130.4110 c 0.0000,-0.4467 -0.3622,-0.8089 -0.8089 -0.8089c -0.4467,-0.0000 -0.8089,0.3622 -0.8089 0.8089c -0.0000,0.4467 0.3622,0.8089 0.8089 0.8089c 0.4467,0.0000 0.8089,-0.3622 0.8089 -0.8089Z"/>
  </g>
  <g stroke-linejoin="miter" stroke-opacity="0.0" fill-opacity="0.0" stroke="rgb(0,0,0)" fill-rule="evenodd" stroke-width="0.0" fill="rgb(0,0,0)" stroke-linecap="butt" stroke-miterlimit="10.0">
    <path d="M 394.0907,159.5313 l -0.0000,-16.6568 h -24.9852 l -0.0000,16.6568 Z"/>
  </g>
  <g stroke-linejoin="miter" stroke-opacity="1.0" fill-opacity="0.33" font-size="15.14252742156408px" stroke="rgb(0,0,0)" fill-rule="evenodd" stroke-width="0.0" fill="rgb(0,0,0)" stroke-linecap="butt" stroke-miterlimit="10.0">
    <text dominant-baseline="middle" transform="matrix(1.0000,-0.0000,0.0000,1.0000,381.5982,151.2029)" stroke="none" text-anchor="middle">3,3
    </text>
  </g>
  <g stroke-linejoin="miter" stroke-opacity="1.0" fill-opacity="1.0" stroke="rgb(102,102,102)" stroke-width="0.0" fill="rgb(0,0,0)" stroke-linecap="butt" stroke-miterlimit="10.0">
    <path d="M 382.4071,162.7669 c 0.0000,-0.4467 -0.3622,-0.8089 -0.8089 -0.8089c -0.4467,-0.0000 -0.8089,0.3622 -0.8089 0.8089c -0.0000,0.4467 0.3622,0.8089 0.8089 0.8089c 0.4467,0.0000 0.8089,-0.3622 0.8089 -0.8089Z"/>
  </g>
  <g stroke-linejoin="miter" stroke-opacity="0.0" fill-opacity="0.0" stroke="rgb(0,0,0)" fill-rule="evenodd" stroke-width="0.0" fill="rgb(0,0,0)" stroke-linecap="butt" stroke-miterlimit="10.0">
    <path d="M 394.0907,191.8871 l -0.0000,-16.6568 h -24.9852 l -0.0000,16.6568 Z"/>
  </g>
  <g stroke-linejoin="miter" stroke-opacity="1.0" fill-opacity="0.33" font-size="15.14252742156408px" stroke="rgb(0,0,0)" fill-rule="evenodd" stroke-width="0.0" fill="rgb(0,0,0)" stroke-linecap="butt" stroke-miterlimit="10.0">
    <text dominant-baseline="middle" transform="matrix(1.0000,-0.0000,0.0000,1.0000,381.5982,183.5587)" stroke="none" text-anchor="middle">3,2
    </text>
  </g>
  <g stroke-linejoin="miter" stroke-opacity="1.0" fill-opacity="1.0" stroke="rgb(102,102,102)" stroke-width="0.0" fill="rgb(0,0,0)" stroke-linecap="butt" stroke-miterlimit="10.0">
    <path d="M 382.4071,195.1227 c 0.0000,-0.4467 -0.3622,-0.8089 -0.8089 -0.8089c -0.4467,-0.0000 -0.8089,0.3622 -0.8089 0.8089c -0.0000,0.4467 0.3622,0.8089 0.8089 0.8089c 0.4467,0.0000 0.8089,-0.3622 0.8089 -0.8089Z"/>
  </g>
  <g stroke-linejoin="miter" stroke-opacity="0.0" fill-opacity="0.0" stroke="rgb(0,0,0)" fill-rule="evenodd" stroke-width="0.0" fill="rgb(0,0,0)" stroke-linecap="butt" stroke-miterlimit="10.0">
    <path d="M 394.0907,224.2429 l -0.0000,-16.6568 h -24.9852 l -0.0000,16.6568 Z"/>
  </g>
  <g stroke-linejoin="miter" stroke-opacity="1.0" fill-opacity="0.33" font-size="15.14252742156408px" stroke="rgb(0,0,0)" fill-rule="evenodd" stroke-width="0.0" fill="rgb(0,0,0)" stroke-linecap="butt" stroke-miterlimit="10.0">
    <text dominant-baseline="middle" transform="matrix(1.0000,-0.0000,0.0000,1.0000,381.5982,215.9145)" stroke="none" text-anchor="middle">3,1
    </text>
  </g>
  <g stroke-linejoin="miter" stroke-opacity="1.0" fill-opacity="1.0" stroke="rgb(102,102,102)" stroke-width="0.0" fill="rgb(0,0,0)" stroke-linecap="butt" stroke-miterlimit="10.0">
    <path d="M 382.4071,227.4785 c 0.0000,-0.4467 -0.3622,-0.8089 -0.8089 -0.8089c -0.4467,-0.0000 -0.8089,0.3622 -0.8089 0.8089c -0.0000,0.4467 0.3622,0.8089 0.8089 0.8089c 0.4467,0.0000 0.8089,-0.3622 0.8089 -0.8089Z"/>
  </g>
  <g stroke-linejoin="miter" stroke-opacity="0.0" fill-opacity="0.0" stroke="rgb(0,0,0)" fill-rule="evenodd" stroke-width="0.0" fill="rgb(0,0,0)" stroke-linecap="butt" stroke-miterlimit="10.0">
    <path d="M 394.0907,256.5988 l -0.0000,-16.6568 h -24.9852 l -0.0000,16.6568 Z"/>
  </g>
  <g stroke-linejoin="miter" stroke-opacity="1.0" fill-opacity="0.33" font-size="15.14252742156408px" stroke="rgb(0,0,0)" fill-rule="evenodd" stroke-width="0.0" fill="rgb(0,0,0)" stroke-linecap="butt" stroke-miterlimit="10.0">
    <text dominant-baseline="middle" transform="matrix(1.0000,-0.0000,0.0000,1.0000,381.5982,248.2704)" stroke="none" text-anchor="middle">3,0
    </text>
  </g>
  <g stroke-linejoin="miter" stroke-opacity="1.0" fill-opacity="1.0" stroke="rgb(102,102,102)" stroke-width="0.0" fill="rgb(0,0,0)" stroke-linecap="butt" stroke-miterlimit="10.0">
    <path d="M 382.4071,259.8343 c 0.0000,-0.4467 -0.3622,-0.8089 -0.8089 -0.8089c -0.4467,-0.0000 -0.8089,0.3622 -0.8089 0.8089c -0.0000,0.4467 0.3622,0.8089 0.8089 0.8089c 0.4467,0.0000 0.8089,-0.3622 0.8089 -0.8089Z"/>
  </g>
  <g stroke-linejoin="miter" stroke-opacity="0.0" fill-opacity="0.0" stroke="rgb(0,0,0)" fill-rule="evenodd" stroke-width="0.0" fill="rgb(0,0,0)" stroke-linecap="butt" stroke-miterlimit="10.0">
    <path d="M 297.0233,94.8196 l -0.0000,-16.6568 h -24.9852 l -0.0000,16.6568 Z"/>
  </g>
  <g stroke-linejoin="miter" stroke-opacity="1.0" fill-opacity="0.33" font-size="15.14252742156408px" stroke="rgb(0,0,0)" fill-rule="evenodd" stroke-width="0.0" fill="rgb(0,0,0)" stroke-linecap="butt" stroke-miterlimit="10.0">
    <text dominant-baseline="middle" transform="matrix(1.0000,-0.0000,0.0000,1.0000,284.5307,86.4912)" stroke="none" text-anchor="middle">2,5
    </text>
  </g>
  <g stroke-linejoin="miter" stroke-opacity="1.0" fill-opacity="1.0" stroke="rgb(102,102,102)" stroke-width="0.0" fill="rgb(0,0,0)" stroke-linecap="butt" stroke-miterlimit="10.0">
    <path d="M 285.3396,98.0552 c 0.0000,-0.4467 -0.3622,-0.8089 -0.8089 -0.8089c -0.4467,-0.0000 -0.8089,0.3622 -0.8089 0.8089c -0.0000,0.4467 0.3622,0.8089 0.8089 0.8089c 0.4467,0.0000 0.8089,-0.3622 0.8089 -0.8089Z"/>
  </g>
  <g stroke-linejoin="miter" stroke-opacity="0.0" fill-opacity="0.0" stroke="rgb(0,0,0)" fill-rule="evenodd" stroke-width="0.0" fill="rgb(0,0,0)" stroke-linecap="butt" stroke-miterlimit="10.0">
    <path d="M 297.0233,127.1754 l -0.0000,-16.6568 h -24.9852 l -0.0000,16.6568 Z"/>
  </g>
  <g stroke-linejoin="miter" stroke-opacity="1.0" fill-opacity="0.33" font-size="15.14252742156408px" stroke="rgb(0,0,0)" fill-rule="evenodd" stroke-width="0.0" fill="rgb(0,0,0)" stroke-linecap="butt" stroke-miterlimit="10.0">
    <text dominant-baseline="middle" transform="matrix(1.0000,-0.0000,0.0000,1.0000,284.5307,118.8471)" stroke="none" text-anchor="middle">2,4
    </text>
  </g>
  <g stroke-linejoin="miter" stroke-opacity="1.0" fill-opacity="1.0" stroke="rgb(102,102,102)" stroke-width="0.0" fill="rgb(0,0,0)" stroke-linecap="butt" stroke-miterlimit="10.0">
    <path d="M 285.3396,130.4110 c 0.0000,-0.4467 -0.3622,-0.8089 -0.8089 -0.8089c -0.4467,-0.0000 -0.8089,0.3622 -0.8089 0.8089c -0.0000,0.4467 0.3622,0.8089 0.8089 0.8089c 0.4467,0.0000 0.8089,-0.3622 0.8089 -0.8089Z"/>
  </g>
  <g stroke-linejoin="miter" stroke-opacity="0.0" fill-opacity="0.0" stroke="rgb(0,0,0)" fill-rule="evenodd" stroke-width="0.0" fill="rgb(0,0,0)" stroke-linecap="butt" stroke-miterlimit="10.0">
    <path d="M 297.0233,159.5313 l -0.0000,-16.6568 h -24.9852 l -0.0000,16.6568 Z"/>
  </g>
  <g stroke-linejoin="miter" stroke-opacity="1.0" fill-opacity="0.33" font-size="15.14252742156408px" stroke="rgb(0,0,0)" fill-rule="evenodd" stroke-width="0.0" fill="rgb(0,0,0)" stroke-linecap="butt" stroke-miterlimit="10.0">
    <text dominant-baseline="middle" transform="matrix(1.0000,-0.0000,0.0000,1.0000,284.5307,151.2029)" stroke="none" text-anchor="middle">2,3
    </text>
  </g>
  <g stroke-linejoin="miter" stroke-opacity="1.0" fill-opacity="1.0" stroke="rgb(102,102,102)" stroke-width="0.0" fill="rgb(0,0,0)" stroke-linecap="butt" stroke-miterlimit="10.0">
    <path d="M 285.3396,162.7669 c 0.0000,-0.4467 -0.3622,-0.8089 -0.8089 -0.8089c -0.4467,-0.0000 -0.8089,0.3622 -0.8089 0.8089c -0.0000,0.4467 0.3622,0.8089 0.8089 0.8089c 0.4467,0.0000 0.8089,-0.3622 0.8089 -0.8089Z"/>
  </g>
  <g stroke-linejoin="miter" stroke-opacity="0.0" fill-opacity="0.0" stroke="rgb(0,0,0)" fill-rule="evenodd" stroke-width="0.0" fill="rgb(0,0,0)" stroke-linecap="butt" stroke-miterlimit="10.0">
    <path d="M 297.0233,191.8871 l -0.0000,-16.6568 h -24.9852 l -0.0000,16.6568 Z"/>
  </g>
  <g stroke-linejoin="miter" stroke-opacity="1.0" fill-opacity="0.33" font-size="15.14252742156408px" stroke="rgb(0,0,0)" fill-rule="evenodd" stroke-width="0.0" fill="rgb(0,0,0)" stroke-linecap="butt" stroke-miterlimit="10.0">
    <text dominant-baseline="middle" transform="matrix(1.0000,-0.0000,0.0000,1.0000,284.5307,183.5587)" stroke="none" text-anchor="middle">2,2
    </text>
  </g>
  <g stroke-linejoin="miter" stroke-opacity="1.0" fill-opacity="1.0" stroke="rgb(102,102,102)" stroke-width="0.0" fill="rgb(0,0,0)" stroke-linecap="butt" stroke-miterlimit="10.0">
    <path d="M 285.3396,195.1227 c 0.0000,-0.4467 -0.3622,-0.8089 -0.8089 -0.8089c -0.4467,-0.0000 -0.8089,0.3622 -0.8089 0.8089c -0.0000,0.4467 0.3622,0.8089 0.8089 0.8089c 0.4467,0.0000 0.8089,-0.3622 0.8089 -0.8089Z"/>
  </g>
  <g stroke-linejoin="miter" stroke-opacity="0.0" fill-opacity="0.0" stroke="rgb(0,0,0)" fill-rule="evenodd" stroke-width="0.0" fill="rgb(0,0,0)" stroke-linecap="butt" stroke-miterlimit="10.0">
    <path d="M 297.0233,224.2429 l -0.0000,-16.6568 h -24.9852 l -0.0000,16.6568 Z"/>
  </g>
  <g stroke-linejoin="miter" stroke-opacity="1.0" fill-opacity="0.33" font-size="15.14252742156408px" stroke="rgb(0,0,0)" fill-rule="evenodd" stroke-width="0.0" fill="rgb(0,0,0)" stroke-linecap="butt" stroke-miterlimit="10.0">
    <text dominant-baseline="middle" transform="matrix(1.0000,-0.0000,0.0000,1.0000,284.5307,215.9145)" stroke="none" text-anchor="middle">2,1
    </text>
  </g>
  <g stroke-linejoin="miter" stroke-opacity="1.0" fill-opacity="1.0" stroke="rgb(102,102,102)" stroke-width="0.0" fill="rgb(0,0,0)" stroke-linecap="butt" stroke-miterlimit="10.0">
    <path d="M 285.3396,227.4785 c 0.0000,-0.4467 -0.3622,-0.8089 -0.8089 -0.8089c -0.4467,-0.0000 -0.8089,0.3622 -0.8089 0.8089c -0.0000,0.4467 0.3622,0.8089 0.8089 0.8089c 0.4467,0.0000 0.8089,-0.3622 0.8089 -0.8089Z"/>
  </g>
  <g stroke-linejoin="miter" stroke-opacity="0.0" fill-opacity="0.0" stroke="rgb(0,0,0)" fill-rule="evenodd" stroke-width="0.0" fill="rgb(0,0,0)" stroke-linecap="butt" stroke-miterlimit="10.0">
    <path d="M 297.0233,256.5988 l -0.0000,-16.6568 h -24.9852 l -0.0000,16.6568 Z"/>
  </g>
  <g stroke-linejoin="miter" stroke-opacity="1.0" fill-opacity="0.33" font-size="15.14252742156408px" stroke="rgb(0,0,0)" fill-rule="evenodd" stroke-width="0.0" fill="rgb(0,0,0)" stroke-linecap="butt" stroke-miterlimit="10.0">
    <text dominant-baseline="middle" transform="matrix(1.0000,-0.0000,0.0000,1.0000,284.5307,248.2704)" stroke="none" text-anchor="middle">2,0
    </text>
  </g>
  <g stroke-linejoin="miter" stroke-opacity="1.0" fill-opacity="1.0" stroke="rgb(102,102,102)" stroke-width="0.0" fill="rgb(0,0,0)" stroke-linecap="butt" stroke-miterlimit="10.0">
    <path d="M 285.3396,259.8343 c 0.0000,-0.4467 -0.3622,-0.8089 -0.8089 -0.8089c -0.4467,-0.0000 -0.8089,0.3622 -0.8089 0.8089c -0.0000,0.4467 0.3622,0.8089 0.8089 0.8089c 0.4467,0.0000 0.8089,-0.3622 0.8089 -0.8089Z"/>
  </g>
  <g stroke-linejoin="miter" stroke-opacity="0.0" fill-opacity="0.0" stroke="rgb(0,0,0)" fill-rule="evenodd" stroke-width="0.0" fill="rgb(0,0,0)" stroke-linecap="butt" stroke-miterlimit="10.0">
    <path d="M 199.9558,94.8196 l -0.0000,-16.6568 h -24.9852 l -0.0000,16.6568 Z"/>
  </g>
  <g stroke-linejoin="miter" stroke-opacity="1.0" fill-opacity="0.33" font-size="15.14252742156408px" stroke="rgb(0,0,0)" fill-rule="evenodd" stroke-width="0.0" fill="rgb(0,0,0)" stroke-linecap="butt" stroke-miterlimit="10.0">
    <text dominant-baseline="middle" transform="matrix(1.0000,-0.0000,0.0000,1.0000,187.4632,86.4912)" stroke="none" text-anchor="middle">1,5
    </text>
  </g>
  <g stroke-linejoin="miter" stroke-opacity="1.0" fill-opacity="1.0" stroke="rgb(102,102,102)" stroke-width="0.0" fill="rgb(0,0,0)" stroke-linecap="butt" stroke-miterlimit="10.0">
    <path d="M 188.2721,98.0552 c 0.0000,-0.4467 -0.3622,-0.8089 -0.8089 -0.8089c -0.4467,-0.0000 -0.8089,0.3622 -0.8089 0.8089c -0.0000,0.4467 0.3622,0.8089 0.8089 0.8089c 0.4467,0.0000 0.8089,-0.3622 0.8089 -0.8089Z"/>
  </g>
  <g stroke-linejoin="miter" stroke-opacity="0.0" fill-opacity="0.0" stroke="rgb(0,0,0)" fill-rule="evenodd" stroke-width="0.0" fill="rgb(0,0,0)" stroke-linecap="butt" stroke-miterlimit="10.0">
    <path d="M 199.9558,127.1754 l -0.0000,-16.6568 h -24.9852 l -0.0000,16.6568 Z"/>
  </g>
  <g stroke-linejoin="miter" stroke-opacity="1.0" fill-opacity="0.33" font-size="15.14252742156408px" stroke="rgb(0,0,0)" fill-rule="evenodd" stroke-width="0.0" fill="rgb(0,0,0)" stroke-linecap="butt" stroke-miterlimit="10.0">
    <text dominant-baseline="middle" transform="matrix(1.0000,-0.0000,0.0000,1.0000,187.4632,118.8471)" stroke="none" text-anchor="middle">1,4
    </text>
  </g>
  <g stroke-linejoin="miter" stroke-opacity="1.0" fill-opacity="1.0" stroke="rgb(102,102,102)" stroke-width="0.0" fill="rgb(0,0,0)" stroke-linecap="butt" stroke-miterlimit="10.0">
    <path d="M 188.2721,130.4110 c 0.0000,-0.4467 -0.3622,-0.8089 -0.8089 -0.8089c -0.4467,-0.0000 -0.8089,0.3622 -0.8089 0.8089c -0.0000,0.4467 0.3622,0.8089 0.8089 0.8089c 0.4467,0.0000 0.8089,-0.3622 0.8089 -0.8089Z"/>
  </g>
  <g stroke-linejoin="miter" stroke-opacity="0.0" fill-opacity="0.0" stroke="rgb(0,0,0)" fill-rule="evenodd" stroke-width="0.0" fill="rgb(0,0,0)" stroke-linecap="butt" stroke-miterlimit="10.0">
    <path d="M 199.9558,159.5313 l -0.0000,-16.6568 h -24.9852 l -0.0000,16.6568 Z"/>
  </g>
  <g stroke-linejoin="miter" stroke-opacity="1.0" fill-opacity="0.33" font-size="15.14252742156408px" stroke="rgb(0,0,0)" fill-rule="evenodd" stroke-width="0.0" fill="rgb(0,0,0)" stroke-linecap="butt" stroke-miterlimit="10.0">
    <text dominant-baseline="middle" transform="matrix(1.0000,-0.0000,0.0000,1.0000,187.4632,151.2029)" stroke="none" text-anchor="middle">1,3
    </text>
  </g>
  <g stroke-linejoin="miter" stroke-opacity="1.0" fill-opacity="1.0" stroke="rgb(102,102,102)" stroke-width="0.0" fill="rgb(0,0,0)" stroke-linecap="butt" stroke-miterlimit="10.0">
    <path d="M 188.2721,162.7669 c 0.0000,-0.4467 -0.3622,-0.8089 -0.8089 -0.8089c -0.4467,-0.0000 -0.8089,0.3622 -0.8089 0.8089c -0.0000,0.4467 0.3622,0.8089 0.8089 0.8089c 0.4467,0.0000 0.8089,-0.3622 0.8089 -0.8089Z"/>
  </g>
  <g stroke-linejoin="miter" stroke-opacity="0.0" fill-opacity="0.0" stroke="rgb(0,0,0)" fill-rule="evenodd" stroke-width="0.0" fill="rgb(0,0,0)" stroke-linecap="butt" stroke-miterlimit="10.0">
    <path d="M 199.9558,191.8871 l -0.0000,-16.6568 h -24.9852 l -0.0000,16.6568 Z"/>
  </g>
  <g stroke-linejoin="miter" stroke-opacity="1.0" fill-opacity="0.33" font-size="15.14252742156408px" stroke="rgb(0,0,0)" fill-rule="evenodd" stroke-width="0.0" fill="rgb(0,0,0)" stroke-linecap="butt" stroke-miterlimit="10.0">
    <text dominant-baseline="middle" transform="matrix(1.0000,-0.0000,0.0000,1.0000,187.4632,183.5587)" stroke="none" text-anchor="middle">1,2
    </text>
  </g>
  <g stroke-linejoin="miter" stroke-opacity="1.0" fill-opacity="1.0" stroke="rgb(102,102,102)" stroke-width="0.0" fill="rgb(0,0,0)" stroke-linecap="butt" stroke-miterlimit="10.0">
    <path d="M 188.2721,195.1227 c 0.0000,-0.4467 -0.3622,-0.8089 -0.8089 -0.8089c -0.4467,-0.0000 -0.8089,0.3622 -0.8089 0.8089c -0.0000,0.4467 0.3622,0.8089 0.8089 0.8089c 0.4467,0.0000 0.8089,-0.3622 0.8089 -0.8089Z"/>
  </g>
  <g stroke-linejoin="miter" stroke-opacity="0.0" fill-opacity="0.0" stroke="rgb(0,0,0)" fill-rule="evenodd" stroke-width="0.0" fill="rgb(0,0,0)" stroke-linecap="butt" stroke-miterlimit="10.0">
    <path d="M 199.9558,224.2429 l -0.0000,-16.6568 h -24.9852 l -0.0000,16.6568 Z"/>
  </g>
  <g stroke-linejoin="miter" stroke-opacity="1.0" fill-opacity="0.33" font-size="15.14252742156408px" stroke="rgb(0,0,0)" fill-rule="evenodd" stroke-width="0.0" fill="rgb(0,0,0)" stroke-linecap="butt" stroke-miterlimit="10.0">
    <text dominant-baseline="middle" transform="matrix(1.0000,-0.0000,0.0000,1.0000,187.4632,215.9145)" stroke="none" text-anchor="middle">1,1
    </text>
  </g>
  <g stroke-linejoin="miter" stroke-opacity="1.0" fill-opacity="1.0" stroke="rgb(102,102,102)" stroke-width="0.0" fill="rgb(0,0,0)" stroke-linecap="butt" stroke-miterlimit="10.0">
    <path d="M 188.2721,227.4785 c 0.0000,-0.4467 -0.3622,-0.8089 -0.8089 -0.8089c -0.4467,-0.0000 -0.8089,0.3622 -0.8089 0.8089c -0.0000,0.4467 0.3622,0.8089 0.8089 0.8089c 0.4467,0.0000 0.8089,-0.3622 0.8089 -0.8089Z"/>
  </g>
  <g stroke-linejoin="miter" stroke-opacity="0.0" fill-opacity="0.0" stroke="rgb(0,0,0)" fill-rule="evenodd" stroke-width="0.0" fill="rgb(0,0,0)" stroke-linecap="butt" stroke-miterlimit="10.0">
    <path d="M 199.9558,256.5988 l -0.0000,-16.6568 h -24.9852 l -0.0000,16.6568 Z"/>
  </g>
  <g stroke-linejoin="miter" stroke-opacity="1.0" fill-opacity="0.33" font-size="15.14252742156408px" stroke="rgb(0,0,0)" fill-rule="evenodd" stroke-width="0.0" fill="rgb(0,0,0)" stroke-linecap="butt" stroke-miterlimit="10.0">
    <text dominant-baseline="middle" transform="matrix(1.0000,-0.0000,0.0000,1.0000,187.4632,248.2704)" stroke="none" text-anchor="middle">1,0
    </text>
  </g>
  <g stroke-linejoin="miter" stroke-opacity="1.0" fill-opacity="1.0" stroke="rgb(102,102,102)" stroke-width="0.0" fill="rgb(0,0,0)" stroke-linecap="butt" stroke-miterlimit="10.0">
    <path d="M 188.2721,259.8343 c 0.0000,-0.4467 -0.3622,-0.8089 -0.8089 -0.8089c -0.4467,-0.0000 -0.8089,0.3622 -0.8089 0.8089c -0.0000,0.4467 0.3622,0.8089 0.8089 0.8089c 0.4467,0.0000 0.8089,-0.3622 0.8089 -0.8089Z"/>
  </g>
  <g stroke-linejoin="miter" stroke-opacity="0.0" fill-opacity="0.0" stroke="rgb(0,0,0)" fill-rule="evenodd" stroke-width="0.0" fill="rgb(0,0,0)" stroke-linecap="butt" stroke-miterlimit="10.0">
    <path d="M 102.8883,94.8196 l -0.0000,-16.6568 h -24.9852 l -0.0000,16.6568 Z"/>
  </g>
  <g stroke-linejoin="miter" stroke-opacity="1.0" fill-opacity="0.33" font-size="15.14252742156408px" stroke="rgb(0,0,0)" fill-rule="evenodd" stroke-width="0.0" fill="rgb(0,0,0)" stroke-linecap="butt" stroke-miterlimit="10.0">
    <text dominant-baseline="middle" transform="matrix(1.0000,-0.0000,0.0000,1.0000,90.3957,86.4912)" stroke="none" text-anchor="middle">0,5
    </text>
  </g>
  <g stroke-linejoin="miter" stroke-opacity="1.0" fill-opacity="1.0" stroke="rgb(102,102,102)" stroke-width="0.0" fill="rgb(0,0,0)" stroke-linecap="butt" stroke-miterlimit="10.0">
    <path d="M 91.2046,98.0552 c 0.0000,-0.4467 -0.3622,-0.8089 -0.8089 -0.8089c -0.4467,-0.0000 -0.8089,0.3622 -0.8089 0.8089c -0.0000,0.4467 0.3622,0.8089 0.8089 0.8089c 0.4467,0.0000 0.8089,-0.3622 0.8089 -0.8089Z"/>
  </g>
  <g stroke-linejoin="miter" stroke-opacity="0.0" fill-opacity="0.0" stroke="rgb(0,0,0)" fill-rule="evenodd" stroke-width="0.0" fill="rgb(0,0,0)" stroke-linecap="butt" stroke-miterlimit="10.0">
    <path d="M 102.8883,127.1754 l -0.0000,-16.6568 h -24.9852 l -0.0000,16.6568 Z"/>
  </g>
  <g stroke-linejoin="miter" stroke-opacity="1.0" fill-opacity="0.33" font-size="15.14252742156408px" stroke="rgb(0,0,0)" fill-rule="evenodd" stroke-width="0.0" fill="rgb(0,0,0)" stroke-linecap="butt" stroke-miterlimit="10.0">
    <text dominant-baseline="middle" transform="matrix(1.0000,-0.0000,0.0000,1.0000,90.3957,118.8471)" stroke="none" text-anchor="middle">0,4
    </text>
  </g>
  <g stroke-linejoin="miter" stroke-opacity="1.0" fill-opacity="1.0" stroke="rgb(102,102,102)" stroke-width="0.0" fill="rgb(0,0,0)" stroke-linecap="butt" stroke-miterlimit="10.0">
    <path d="M 91.2046,130.4110 c 0.0000,-0.4467 -0.3622,-0.8089 -0.8089 -0.8089c -0.4467,-0.0000 -0.8089,0.3622 -0.8089 0.8089c -0.0000,0.4467 0.3622,0.8089 0.8089 0.8089c 0.4467,0.0000 0.8089,-0.3622 0.8089 -0.8089Z"/>
  </g>
  <g stroke-linejoin="miter" stroke-opacity="0.0" fill-opacity="0.0" stroke="rgb(0,0,0)" fill-rule="evenodd" stroke-width="0.0" fill="rgb(0,0,0)" stroke-linecap="butt" stroke-miterlimit="10.0">
    <path d="M 102.8883,159.5313 l -0.0000,-16.6568 h -24.9852 l -0.0000,16.6568 Z"/>
  </g>
  <g stroke-linejoin="miter" stroke-opacity="1.0" fill-opacity="0.33" font-size="15.14252742156408px" stroke="rgb(0,0,0)" fill-rule="evenodd" stroke-width="0.0" fill="rgb(0,0,0)" stroke-linecap="butt" stroke-miterlimit="10.0">
    <text dominant-baseline="middle" transform="matrix(1.0000,-0.0000,0.0000,1.0000,90.3957,151.2029)" stroke="none" text-anchor="middle">0,3
    </text>
  </g>
  <g stroke-linejoin="miter" stroke-opacity="1.0" fill-opacity="1.0" stroke="rgb(102,102,102)" stroke-width="0.0" fill="rgb(0,0,0)" stroke-linecap="butt" stroke-miterlimit="10.0">
    <path d="M 91.2046,162.7669 c 0.0000,-0.4467 -0.3622,-0.8089 -0.8089 -0.8089c -0.4467,-0.0000 -0.8089,0.3622 -0.8089 0.8089c -0.0000,0.4467 0.3622,0.8089 0.8089 0.8089c 0.4467,0.0000 0.8089,-0.3622 0.8089 -0.8089Z"/>
  </g>
  <g stroke-linejoin="miter" stroke-opacity="0.0" fill-opacity="0.0" stroke="rgb(0,0,0)" fill-rule="evenodd" stroke-width="0.0" fill="rgb(0,0,0)" stroke-linecap="butt" stroke-miterlimit="10.0">
    <path d="M 102.8883,191.8871 l -0.0000,-16.6568 h -24.9852 l -0.0000,16.6568 Z"/>
  </g>
  <g stroke-linejoin="miter" stroke-opacity="1.0" fill-opacity="0.33" font-size="15.14252742156408px" stroke="rgb(0,0,0)" fill-rule="evenodd" stroke-width="0.0" fill="rgb(0,0,0)" stroke-linecap="butt" stroke-miterlimit="10.0">
    <text dominant-baseline="middle" transform="matrix(1.0000,-0.0000,0.0000,1.0000,90.3957,183.5587)" stroke="none" text-anchor="middle">0,2
    </text>
  </g>
  <g stroke-linejoin="miter" stroke-opacity="1.0" fill-opacity="1.0" stroke="rgb(102,102,102)" stroke-width="0.0" fill="rgb(0,0,0)" stroke-linecap="butt" stroke-miterlimit="10.0">
    <path d="M 91.2046,195.1227 c 0.0000,-0.4467 -0.3622,-0.8089 -0.8089 -0.8089c -0.4467,-0.0000 -0.8089,0.3622 -0.8089 0.8089c -0.0000,0.4467 0.3622,0.8089 0.8089 0.8089c 0.4467,0.0000 0.8089,-0.3622 0.8089 -0.8089Z"/>
  </g>
  <g stroke-linejoin="miter" stroke-opacity="0.0" fill-opacity="0.0" stroke="rgb(0,0,0)" fill-rule="evenodd" stroke-width="0.0" fill="rgb(0,0,0)" stroke-linecap="butt" stroke-miterlimit="10.0">
    <path d="M 102.8883,224.2429 l -0.0000,-16.6568 h -24.9852 l -0.0000,16.6568 Z"/>
  </g>
  <g stroke-linejoin="miter" stroke-opacity="1.0" fill-opacity="0.33" font-size="15.14252742156408px" stroke="rgb(0,0,0)" fill-rule="evenodd" stroke-width="0.0" fill="rgb(0,0,0)" stroke-linecap="butt" stroke-miterlimit="10.0">
    <text dominant-baseline="middle" transform="matrix(1.0000,-0.0000,0.0000,1.0000,90.3957,215.9145)" stroke="none" text-anchor="middle">0,1
    </text>
  </g>
  <g stroke-linejoin="miter" stroke-opacity="1.0" fill-opacity="1.0" stroke="rgb(102,102,102)" stroke-width="0.0" fill="rgb(0,0,0)" stroke-linecap="butt" stroke-miterlimit="10.0">
    <path d="M 91.2046,227.4785 c 0.0000,-0.4467 -0.3622,-0.8089 -0.8089 -0.8089c -0.4467,-0.0000 -0.8089,0.3622 -0.8089 0.8089c -0.0000,0.4467 0.3622,0.8089 0.8089 0.8089c 0.4467,0.0000 0.8089,-0.3622 0.8089 -0.8089Z"/>
  </g>
  <g stroke-linejoin="miter" stroke-opacity="0.0" fill-opacity="0.0" stroke="rgb(0,0,0)" fill-rule="evenodd" stroke-width="0.0" fill="rgb(0,0,0)" stroke-linecap="butt" stroke-miterlimit="10.0">
    <path d="M 102.8883,256.5988 l -0.0000,-16.6568 h -24.9852 l -0.0000,16.6568 Z"/>
  </g>
  <g stroke-linejoin="miter" stroke-opacity="1.0" fill-opacity="0.33" font-size="15.14252742156408px" stroke="rgb(0,0,0)" fill-rule="evenodd" stroke-width="0.0" fill="rgb(0,0,0)" stroke-linecap="butt" stroke-miterlimit="10.0">
    <text dominant-baseline="middle" transform="matrix(1.0000,-0.0000,0.0000,1.0000,90.3957,248.2704)" stroke="none" text-anchor="middle">0,0
    </text>
  </g>
  <g stroke-linejoin="miter" stroke-opacity="1.0" fill-opacity="1.0" stroke="rgb(102,102,102)" stroke-width="0.0" fill="rgb(0,0,0)" stroke-linecap="butt" stroke-miterlimit="10.0">
    <path d="M 91.2046,259.8343 c 0.0000,-0.4467 -0.3622,-0.8089 -0.8089 -0.8089c -0.4467,-0.0000 -0.8089,0.3622 -0.8089 0.8089c -0.0000,0.4467 0.3622,0.8089 0.8089 0.8089c 0.4467,0.0000 0.8089,-0.3622 0.8089 -0.8089Z"/>
  </g>
  <g stroke-linejoin="miter" stroke-opacity="0.0" fill-opacity="0.0" stroke="rgb(0,0,0)" fill-rule="evenodd" stroke-width="0.0" fill="rgb(0,0,0)" stroke-linecap="butt" stroke-miterlimit="10.0">
    <path d="M 575.7331,308.8469 l -0.0000,-16.6568 h -233.1949 l -0.0000,16.6568 Z"/>
  </g>
  <g stroke-linejoin="miter" stroke-opacity="1.0" fill-opacity="1.0" font-size="15.14252742156408px" stroke="rgb(0,0,0)" fill-rule="evenodd" stroke-width="0.0" fill="rgb(31,119,180)" stroke-linecap="butt" stroke-miterlimit="10.0">
    <text dominant-baseline="middle" transform="matrix(1.0000,-0.0000,0.0000,1.0000,575.7331,300.5186)" stroke="none" text-anchor="end">A LGlyph is a labelled glyph
    </text>
  </g>
  <g stroke-linejoin="miter" stroke-opacity="0.0" fill-opacity="0.0" stroke="rgb(0,0,0)" fill-rule="evenodd" stroke-width="0.0" fill="rgb(0,0,0)" stroke-linecap="butt" stroke-miterlimit="10.0">
    <path d="M 58.0399,93.2665 l -27.7613,0.0000 l -0.0000,166.5678 l 27.7613,0.0000 Z"/>
  </g>
  <g stroke-linejoin="miter" stroke-opacity="1.0" fill-opacity="1.0" font-size="25.237545702606806px" stroke="rgb(0,0,0)" fill-rule="evenodd" stroke-width="0.0" fill="rgb(31,119,180)" stroke-linecap="butt" stroke-miterlimit="10.0">
    <text dominant-baseline="middle" transform="matrix(0.0000,-1.0000,1.0000,0.0000,44.1592,259.8343)" stroke="none" text-anchor="start">LGlyph Chart
    </text>
  </g>
  <g stroke-linejoin="miter" stroke-opacity="0.0" fill-opacity="0.0" stroke="rgb(0,0,0)" stroke-width="0.0" fill="rgb(0,0,0)" stroke-linecap="butt" stroke-miterlimit="10.0">
    <path d="M 575.7331,259.8343 l -0.0000,-161.7791 h -485.3374 l -0.0000,161.7791 Z"/>
  </g>
</svg>