<?xml version="1.0" encoding="UTF-8"?>
<!DOCTYPE svg PUBLIC "-//W3C//DTD SVG 1.1//EN"
    "http://www.w3.org/Graphics/SVG/1.1/DTD/svg11.dtd">
<svg xmlns="http://www.w3.org/2000/svg" height="200.0000" stroke-opacity="1" viewBox="0 0 300 200" font-size="1" width="300.0000" xmlns:xlink="http://www.w3.org/1999/xlink" stroke="rgb(0,0,0)" version="1.1">
  <defs>
  </defs>
  <g stroke-linejoin="miter" stroke-opacity="0.0" fill-opacity="0.0" stroke="rgb(0,0,0)" fill-rule="evenodd" stroke-width="0.0" fill="rgb(0,0,0)" stroke-linecap="butt" stroke-miterlimit="10.0">
    <path d="M 258.7363,8.5316 l -0.0000,-8.5316 h -46.9240 l -0.0000,8.5316 Z"/>
  </g>
  <g stroke-linejoin="miter" stroke-opacity="1.0" fill-opacity="0.33" font-size="7.756030408563539px" stroke="rgb(0,0,0)" fill-rule="evenodd" stroke-width="0.0" fill="rgb(0,0,0)" stroke-linecap="butt" stroke-miterlimit="10.0">
    <text dominant-baseline="middle" transform="matrix(1.0000,-0.0000,0.0000,1.0000,235.2743,4.2658)" stroke="none" text-anchor="middle">Thu, 28 Feb
    </text>
  </g>
  <g stroke-linejoin="miter" stroke-opacity="1.0" fill-opacity="1.0" stroke="rgb(102,102,102)" stroke-width="0.0" fill="rgb(0,0,255)" stroke-linecap="butt" stroke-miterlimit="10.0">
    <path d="M 237.7602,19.7182 l -0.0000,-4.9718 h -4.9718 l -0.0000,4.9718 Z"/>
  </g>
  <g stroke-linejoin="miter" stroke-opacity="0.0" fill-opacity="0.0" stroke="rgb(0,0,0)" fill-rule="evenodd" stroke-width="0.0" fill="rgb(0,0,0)" stroke-linecap="butt" stroke-miterlimit="10.0">
    <path d="M 232.2905,26.0204 l -0.0000,-8.5316 h -46.9240 l -0.0000,8.5316 Z"/>
  </g>
  <g stroke-linejoin="miter" stroke-opacity="1.0" fill-opacity="0.33" font-size="7.756030408563539px" stroke="rgb(0,0,0)" fill-rule="evenodd" stroke-width="0.0" fill="rgb(0,0,0)" stroke-linecap="butt" stroke-miterlimit="10.0">
    <text dominant-baseline="middle" transform="matrix(1.0000,-0.0000,0.0000,1.0000,208.8285,21.7546)" stroke="none" text-anchor="middle">Thu, 31 Jan
    </text>
  </g>
  <g stroke-linejoin="miter" stroke-opacity="1.0" fill-opacity="1.0" stroke="rgb(102,102,102)" stroke-width="0.0" fill="rgb(0,0,255)" stroke-linecap="butt" stroke-miterlimit="10.0">
    <path d="M 211.3144,37.2070 l -0.0000,-4.9718 h -4.9718 l -0.0000,4.9718 Z"/>
  </g>
  <g stroke-linejoin="miter" stroke-opacity="0.0" fill-opacity="0.0" stroke="rgb(0,0,0)" fill-rule="evenodd" stroke-width="0.0" fill="rgb(0,0,0)" stroke-linecap="butt" stroke-miterlimit="10.0">
    <path d="M 201.8778,45.3830 l -0.0000,-8.5316 h -46.9240 l -0.0000,8.5316 Z"/>
  </g>
  <g stroke-linejoin="miter" stroke-opacity="1.0" fill-opacity="0.33" font-size="7.756030408563539px" stroke="rgb(0,0,0)" fill-rule="evenodd" stroke-width="0.0" fill="rgb(0,0,0)" stroke-linecap="butt" stroke-miterlimit="10.0">
    <text dominant-baseline="middle" transform="matrix(1.0000,-0.0000,0.0000,1.0000,178.4158,41.1172)" stroke="none" text-anchor="middle">Mon, 31 Dec
    </text>
  </g>
  <g stroke-linejoin="miter" stroke-opacity="1.0" fill-opacity="1.0" stroke="rgb(102,102,102)" stroke-width="0.0" fill="rgb(0,0,255)" stroke-linecap="butt" stroke-miterlimit="10.0">
    <path d="M 180.9017,56.5696 l -0.0000,-4.9718 h -4.9718 l -0.0000,4.9718 Z"/>
  </g>
  <g stroke-linejoin="miter" stroke-opacity="0.0" fill-opacity="0.0" stroke="rgb(0,0,0)" fill-rule="evenodd" stroke-width="0.0" fill="rgb(0,0,0)" stroke-linecap="butt" stroke-miterlimit="10.0">
    <path d="M 174.1097,64.7456 l -0.0000,-8.5316 h -46.9240 l -0.0000,8.5316 Z"/>
  </g>
  <g stroke-linejoin="miter" stroke-opacity="1.0" fill-opacity="0.33" font-size="7.756030408563539px" stroke="rgb(0,0,0)" fill-rule="evenodd" stroke-width="0.0" fill="rgb(0,0,0)" stroke-linecap="butt" stroke-miterlimit="10.0">
    <text dominant-baseline="middle" transform="matrix(1.0000,-0.0000,0.0000,1.0000,150.6477,60.4798)" stroke="none" text-anchor="middle">Fri, 30 Nov
    </text>
  </g>
  <g stroke-linejoin="miter" stroke-opacity="1.0" fill-opacity="1.0" stroke="rgb(102,102,102)" stroke-width="0.0" fill="rgb(0,0,255)" stroke-linecap="butt" stroke-miterlimit="10.0">
    <path d="M 153.1336,75.9322 l -0.0000,-4.9718 h -4.9718 l -0.0000,4.9718 Z"/>
  </g>
  <g stroke-linejoin="miter" stroke-opacity="0.0" fill-opacity="0.0" stroke="rgb(0,0,0)" fill-rule="evenodd" stroke-width="0.0" fill="rgb(0,0,0)" stroke-linecap="butt" stroke-miterlimit="10.0">
    <path d="M 145.0193,83.4836 l -0.0000,-8.5316 h -46.9240 l -0.0000,8.5316 Z"/>
  </g>
  <g stroke-linejoin="miter" stroke-opacity="1.0" fill-opacity="0.33" font-size="7.756030408563539px" stroke="rgb(0,0,0)" fill-rule="evenodd" stroke-width="0.0" fill="rgb(0,0,0)" stroke-linecap="butt" stroke-miterlimit="10.0">
    <text dominant-baseline="middle" transform="matrix(1.0000,-0.0000,0.0000,1.0000,121.5573,79.2178)" stroke="none" text-anchor="middle">Wed, 31 Oct
    </text>
  </g>
  <g stroke-linejoin="miter" stroke-opacity="1.0" fill-opacity="1.0" stroke="rgb(102,102,102)" stroke-width="0.0" fill="rgb(0,0,255)" stroke-linecap="butt" stroke-miterlimit="10.0">
    <path d="M 124.0432,94.6702 l -0.0000,-4.9718 h -4.9718 l -0.0000,4.9718 Z"/>
  </g>
  <g stroke-linejoin="miter" stroke-opacity="0.0" fill-opacity="0.0" stroke="rgb(0,0,0)" fill-rule="evenodd" stroke-width="0.0" fill="rgb(0,0,0)" stroke-linecap="butt" stroke-miterlimit="10.0">
    <path d="M 114.6066,104.0954 l -0.0000,-8.5316 h -46.9240 l -0.0000,8.5316 Z"/>
  </g>
  <g stroke-linejoin="miter" stroke-opacity="1.0" fill-opacity="0.33" font-size="7.756030408563539px" stroke="rgb(0,0,0)" fill-rule="evenodd" stroke-width="0.0" fill="rgb(0,0,0)" stroke-linecap="butt" stroke-miterlimit="10.0">
    <text dominant-baseline="middle" transform="matrix(1.0000,-0.0000,0.0000,1.0000,91.1446,99.8296)" stroke="none" text-anchor="middle">Fri, 28 Sep
    </text>
  </g>
  <g stroke-linejoin="miter" stroke-opacity="1.0" fill-opacity="1.0" stroke="rgb(102,102,102)" stroke-width="0.0" fill="rgb(0,0,255)" stroke-linecap="butt" stroke-miterlimit="10.0">
    <path d="M 93.6305,115.2820 l -0.0000,-4.9718 h -4.9718 l -0.0000,4.9718 Z"/>
  </g>
  <g stroke-linejoin="miter" stroke-opacity="0.0" fill-opacity="0.0" stroke="rgb(0,0,0)" fill-rule="evenodd" stroke-width="0.0" fill="rgb(0,0,0)" stroke-linecap="butt" stroke-miterlimit="10.0">
    <path d="M 88.1608,121.5842 l -0.0000,-8.5316 h -46.9240 l -0.0000,8.5316 Z"/>
  </g>
  <g stroke-linejoin="miter" stroke-opacity="1.0" fill-opacity="0.33" font-size="7.756030408563539px" stroke="rgb(0,0,0)" fill-rule="evenodd" stroke-width="0.0" fill="rgb(0,0,0)" stroke-linecap="butt" stroke-miterlimit="10.0">
    <text dominant-baseline="middle" transform="matrix(1.0000,-0.0000,0.0000,1.0000,64.6988,117.3184)" stroke="none" text-anchor="middle">Fri, 31 Aug
    </text>
  </g>
  <g stroke-linejoin="miter" stroke-opacity="1.0" fill-opacity="1.0" stroke="rgb(102,102,102)" stroke-width="0.0" fill="rgb(0,0,255)" stroke-linecap="butt" stroke-miterlimit="10.0">
    <path d="M 67.1847,132.7708 l -0.0000,-4.9718 h -4.9718 l -0.0000,4.9718 Z"/>
  </g>
  <g stroke-linejoin="miter" stroke-opacity="1.0" fill-opacity="1.0" stroke="rgb(102,102,102)" stroke-width="0.0" fill="rgb(255,0,0)" stroke-linecap="butt" stroke-miterlimit="10.0">
    <path d="M 238.5404,14.7339 c 0.0000,-0.3432 -0.2782,-0.6215 -0.6215 -0.6215c -0.3432,-0.0000 -0.6215,0.2782 -0.6215 0.6215c -0.0000,0.3432 0.2782,0.6215 0.6215 0.6215c 0.3432,0.0000 0.6215,-0.2782 0.6215 -0.6215Z"/>
  </g>
  <g stroke-linejoin="miter" stroke-opacity="1.0" fill-opacity="1.0" stroke="rgb(102,102,102)" stroke-width="0.0" fill="rgb(255,0,0)" stroke-linecap="butt" stroke-miterlimit="10.0">
    <path d="M 237.2181,16.6077 c 0.0000,-0.3432 -0.2782,-0.6215 -0.6215 -0.6215c -0.3432,-0.0000 -0.6215,0.2782 -0.6215 0.6215c -0.0000,0.3432 0.2782,0.6215 0.6215 0.6215c 0.3432,0.0000 0.6215,-0.2782 0.6215 -0.6215Z"/>
  </g>
  <g stroke-linejoin="miter" stroke-opacity="1.0" fill-opacity="1.0" stroke="rgb(102,102,102)" stroke-width="0.0" fill="rgb(255,0,0)" stroke-linecap="butt" stroke-miterlimit="10.0">
    <path d="M 235.8958,17.2323 c 0.0000,-0.3432 -0.2782,-0.6215 -0.6215 -0.6215c -0.3432,-0.0000 -0.6215,0.2782 -0.6215 0.6215c -0.0000,0.3432 0.2782,0.6215 0.6215 0.6215c 0.3432,0.0000 0.6215,-0.2782 0.6215 -0.6215Z"/>
  </g>
  <g stroke-linejoin="miter" stroke-opacity="1.0" fill-opacity="1.0" stroke="rgb(102,102,102)" stroke-width="0.0" fill="rgb(255,0,0)" stroke-linecap="butt" stroke-miterlimit="10.0">
    <path d="M 234.5735,17.8569 c 0.0000,-0.3432 -0.2782,-0.6215 -0.6215 -0.6215c -0.3432,-0.0000 -0.6215,0.2782 -0.6215 0.6215c -0.0000,0.3432 0.2782,0.6215 0.6215 0.6215c 0.3432,0.0000 0.6215,-0.2782 0.6215 -0.6215Z"/>
  </g>
  <g stroke-linejoin="miter" stroke-opacity="1.0" fill-opacity="1.0" stroke="rgb(102,102,102)" stroke-width="0.0" fill="rgb(255,0,0)" stroke-linecap="butt" stroke-miterlimit="10.0">
    <path d="M 233.2512,18.4815 c 0.0000,-0.3432 -0.2782,-0.6215 -0.6215 -0.6215c -0.3432,-0.0000 -0.6215,0.2782 -0.6215 0.6215c -0.0000,0.3432 0.2782,0.6215 0.6215 0.6215c 0.3432,0.0000 0.6215,-0.2782 0.6215 -0.6215Z"/>
  </g>
  <g stroke-linejoin="miter" stroke-opacity="1.0" fill-opacity="1.0" stroke="rgb(102,102,102)" stroke-width="0.0" fill="rgb(255,0,0)" stroke-linecap="butt" stroke-miterlimit="10.0">
    <path d="M 231.9289,19.1061 c 0.0000,-0.3432 -0.2782,-0.6215 -0.6215 -0.6215c -0.3432,-0.0000 -0.6215,0.2782 -0.6215 0.6215c -0.0000,0.3432 0.2782,0.6215 0.6215 0.6215c 0.3432,0.0000 0.6215,-0.2782 0.6215 -0.6215Z"/>
  </g>
  <g stroke-linejoin="miter" stroke-opacity="1.0" fill-opacity="1.0" stroke="rgb(102,102,102)" stroke-width="0.0" fill="rgb(255,0,0)" stroke-linecap="butt" stroke-miterlimit="10.0">
    <path d="M 230.6067,20.9799 c 0.0000,-0.3432 -0.2782,-0.6215 -0.6215 -0.6215c -0.3432,-0.0000 -0.6215,0.2782 -0.6215 0.6215c -0.0000,0.3432 0.2782,0.6215 0.6215 0.6215c 0.3432,0.0000 0.6215,-0.2782 0.6215 -0.6215Z"/>
  </g>
  <g stroke-linejoin="miter" stroke-opacity="1.0" fill-opacity="1.0" stroke="rgb(102,102,102)" stroke-width="0.0" fill="rgb(255,0,0)" stroke-linecap="butt" stroke-miterlimit="10.0">
    <path d="M 229.2844,21.6045 c 0.0000,-0.3432 -0.2782,-0.6215 -0.6215 -0.6215c -0.3432,-0.0000 -0.6215,0.2782 -0.6215 0.6215c -0.0000,0.3432 0.2782,0.6215 0.6215 0.6215c 0.3432,0.0000 0.6215,-0.2782 0.6215 -0.6215Z"/>
  </g>
  <g stroke-linejoin="miter" stroke-opacity="1.0" fill-opacity="1.0" stroke="rgb(102,102,102)" stroke-width="0.0" fill="rgb(255,0,0)" stroke-linecap="butt" stroke-miterlimit="10.0">
    <path d="M 227.9621,22.2291 c 0.0000,-0.3432 -0.2782,-0.6215 -0.6215 -0.6215c -0.3432,-0.0000 -0.6215,0.2782 -0.6215 0.6215c -0.0000,0.3432 0.2782,0.6215 0.6215 0.6215c 0.3432,0.0000 0.6215,-0.2782 0.6215 -0.6215Z"/>
  </g>
  <g stroke-linejoin="miter" stroke-opacity="1.0" fill-opacity="1.0" stroke="rgb(102,102,102)" stroke-width="0.0" fill="rgb(255,0,0)" stroke-linecap="butt" stroke-miterlimit="10.0">
    <path d="M 226.6398,22.8537 c 0.0000,-0.3432 -0.2782,-0.6215 -0.6215 -0.6215c -0.3432,-0.0000 -0.6215,0.2782 -0.6215 0.6215c -0.0000,0.3432 0.2782,0.6215 0.6215 0.6215c 0.3432,0.0000 0.6215,-0.2782 0.6215 -0.6215Z"/>
  </g>
  <g stroke-linejoin="miter" stroke-opacity="1.0" fill-opacity="1.0" stroke="rgb(102,102,102)" stroke-width="0.0" fill="rgb(255,0,0)" stroke-linecap="butt" stroke-miterlimit="10.0">
    <path d="M 225.3175,23.4783 c 0.0000,-0.3432 -0.2782,-0.6215 -0.6215 -0.6215c -0.3432,-0.0000 -0.6215,0.2782 -0.6215 0.6215c -0.0000,0.3432 0.2782,0.6215 0.6215 0.6215c 0.3432,0.0000 0.6215,-0.2782 0.6215 -0.6215Z"/>
  </g>
  <g stroke-linejoin="miter" stroke-opacity="1.0" fill-opacity="1.0" stroke="rgb(102,102,102)" stroke-width="0.0" fill="rgb(255,0,0)" stroke-linecap="butt" stroke-miterlimit="10.0">
    <path d="M 223.9952,25.3521 c 0.0000,-0.3432 -0.2782,-0.6215 -0.6215 -0.6215c -0.3432,-0.0000 -0.6215,0.2782 -0.6215 0.6215c -0.0000,0.3432 0.2782,0.6215 0.6215 0.6215c 0.3432,0.0000 0.6215,-0.2782 0.6215 -0.6215Z"/>
  </g>
  <g stroke-linejoin="miter" stroke-opacity="1.0" fill-opacity="1.0" stroke="rgb(102,102,102)" stroke-width="0.0" fill="rgb(255,0,0)" stroke-linecap="butt" stroke-miterlimit="10.0">
    <path d="M 222.6729,25.9767 c 0.0000,-0.3432 -0.2782,-0.6215 -0.6215 -0.6215c -0.3432,-0.0000 -0.6215,0.2782 -0.6215 0.6215c -0.0000,0.3432 0.2782,0.6215 0.6215 0.6215c 0.3432,0.0000 0.6215,-0.2782 0.6215 -0.6215Z"/>
  </g>
  <g stroke-linejoin="miter" stroke-opacity="1.0" fill-opacity="1.0" stroke="rgb(102,102,102)" stroke-width="0.0" fill="rgb(255,0,0)" stroke-linecap="butt" stroke-miterlimit="10.0">
    <path d="M 221.3506,26.6013 c 0.0000,-0.3432 -0.2782,-0.6215 -0.6215 -0.6215c -0.3432,-0.0000 -0.6215,0.2782 -0.6215 0.6215c -0.0000,0.3432 0.2782,0.6215 0.6215 0.6215c 0.3432,0.0000 0.6215,-0.2782 0.6215 -0.6215Z"/>
  </g>
  <g stroke-linejoin="miter" stroke-opacity="1.0" fill-opacity="1.0" stroke="rgb(102,102,102)" stroke-width="0.0" fill="rgb(255,0,0)" stroke-linecap="butt" stroke-miterlimit="10.0">
    <path d="M 220.0283,27.2259 c 0.0000,-0.3432 -0.2782,-0.6215 -0.6215 -0.6215c -0.3432,-0.0000 -0.6215,0.2782 -0.6215 0.6215c -0.0000,0.3432 0.2782,0.6215 0.6215 0.6215c 0.3432,0.0000 0.6215,-0.2782 0.6215 -0.6215Z"/>
  </g>
  <g stroke-linejoin="miter" stroke-opacity="1.0" fill-opacity="1.0" stroke="rgb(102,102,102)" stroke-width="0.0" fill="rgb(255,0,0)" stroke-linecap="butt" stroke-miterlimit="10.0">
    <path d="M 218.7060,27.8505 c 0.0000,-0.3432 -0.2782,-0.6215 -0.6215 -0.6215c -0.3432,-0.0000 -0.6215,0.2782 -0.6215 0.6215c -0.0000,0.3432 0.2782,0.6215 0.6215 0.6215c 0.3432,0.0000 0.6215,-0.2782 0.6215 -0.6215Z"/>
  </g>
  <g stroke-linejoin="miter" stroke-opacity="1.0" fill-opacity="1.0" stroke="rgb(102,102,102)" stroke-width="0.0" fill="rgb(255,0,0)" stroke-linecap="butt" stroke-miterlimit="10.0">
    <path d="M 217.3837,29.7243 c 0.0000,-0.3432 -0.2782,-0.6215 -0.6215 -0.6215c -0.3432,-0.0000 -0.6215,0.2782 -0.6215 0.6215c -0.0000,0.3432 0.2782,0.6215 0.6215 0.6215c 0.3432,0.0000 0.6215,-0.2782 0.6215 -0.6215Z"/>
  </g>
  <g stroke-linejoin="miter" stroke-opacity="1.0" fill-opacity="1.0" stroke="rgb(102,102,102)" stroke-width="0.0" fill="rgb(255,0,0)" stroke-linecap="butt" stroke-miterlimit="10.0">
    <path d="M 216.0615,30.3489 c 0.0000,-0.3432 -0.2782,-0.6215 -0.6215 -0.6215c -0.3432,-0.0000 -0.6215,0.2782 -0.6215 0.6215c -0.0000,0.3432 0.2782,0.6215 0.6215 0.6215c 0.3432,0.0000 0.6215,-0.2782 0.6215 -0.6215Z"/>
  </g>
  <g stroke-linejoin="miter" stroke-opacity="1.0" fill-opacity="1.0" stroke="rgb(102,102,102)" stroke-width="0.0" fill="rgb(255,0,0)" stroke-linecap="butt" stroke-miterlimit="10.0">
    <path d="M 214.7392,30.9735 c 0.0000,-0.3432 -0.2782,-0.6215 -0.6215 -0.6215c -0.3432,-0.0000 -0.6215,0.2782 -0.6215 0.6215c -0.0000,0.3432 0.2782,0.6215 0.6215 0.6215c 0.3432,0.0000 0.6215,-0.2782 0.6215 -0.6215Z"/>
  </g>
  <g stroke-linejoin="miter" stroke-opacity="1.0" fill-opacity="1.0" stroke="rgb(102,102,102)" stroke-width="0.0" fill="rgb(255,0,0)" stroke-linecap="butt" stroke-miterlimit="10.0">
    <path d="M 213.4169,31.5981 c 0.0000,-0.3432 -0.2782,-0.6215 -0.6215 -0.6215c -0.3432,-0.0000 -0.6215,0.2782 -0.6215 0.6215c -0.0000,0.3432 0.2782,0.6215 0.6215 0.6215c 0.3432,0.0000 0.6215,-0.2782 0.6215 -0.6215Z"/>
  </g>
  <g stroke-linejoin="miter" stroke-opacity="1.0" fill-opacity="1.0" stroke="rgb(102,102,102)" stroke-width="0.0" fill="rgb(255,0,0)" stroke-linecap="butt" stroke-miterlimit="10.0">
    <path d="M 212.0946,32.2227 c 0.0000,-0.3432 -0.2782,-0.6215 -0.6215 -0.6215c -0.3432,-0.0000 -0.6215,0.2782 -0.6215 0.6215c -0.0000,0.3432 0.2782,0.6215 0.6215 0.6215c 0.3432,0.0000 0.6215,-0.2782 0.6215 -0.6215Z"/>
  </g>
  <g stroke-linejoin="miter" stroke-opacity="1.0" fill-opacity="1.0" stroke="rgb(102,102,102)" stroke-width="0.0" fill="rgb(255,0,0)" stroke-linecap="butt" stroke-miterlimit="10.0">
    <path d="M 210.7723,34.0965 c 0.0000,-0.3432 -0.2782,-0.6215 -0.6215 -0.6215c -0.3432,-0.0000 -0.6215,0.2782 -0.6215 0.6215c -0.0000,0.3432 0.2782,0.6215 0.6215 0.6215c 0.3432,0.0000 0.6215,-0.2782 0.6215 -0.6215Z"/>
  </g>
  <g stroke-linejoin="miter" stroke-opacity="1.0" fill-opacity="1.0" stroke="rgb(102,102,102)" stroke-width="0.0" fill="rgb(255,0,0)" stroke-linecap="butt" stroke-miterlimit="10.0">
    <path d="M 209.4500,34.7211 c 0.0000,-0.3432 -0.2782,-0.6215 -0.6215 -0.6215c -0.3432,-0.0000 -0.6215,0.2782 -0.6215 0.6215c -0.0000,0.3432 0.2782,0.6215 0.6215 0.6215c 0.3432,0.0000 0.6215,-0.2782 0.6215 -0.6215Z"/>
  </g>
  <g stroke-linejoin="miter" stroke-opacity="1.0" fill-opacity="1.0" stroke="rgb(102,102,102)" stroke-width="0.0" fill="rgb(255,0,0)" stroke-linecap="butt" stroke-miterlimit="10.0">
    <path d="M 208.1277,35.3457 c 0.0000,-0.3432 -0.2782,-0.6215 -0.6215 -0.6215c -0.3432,-0.0000 -0.6215,0.2782 -0.6215 0.6215c -0.0000,0.3432 0.2782,0.6215 0.6215 0.6215c 0.3432,0.0000 0.6215,-0.2782 0.6215 -0.6215Z"/>
  </g>
  <g stroke-linejoin="miter" stroke-opacity="1.0" fill-opacity="1.0" stroke="rgb(102,102,102)" stroke-width="0.0" fill="rgb(255,0,0)" stroke-linecap="butt" stroke-miterlimit="10.0">
    <path d="M 206.8054,35.9703 c 0.0000,-0.3432 -0.2782,-0.6215 -0.6215 -0.6215c -0.3432,-0.0000 -0.6215,0.2782 -0.6215 0.6215c -0.0000,0.3432 0.2782,0.6215 0.6215 0.6215c 0.3432,0.0000 0.6215,-0.2782 0.6215 -0.6215Z"/>
  </g>
  <g stroke-linejoin="miter" stroke-opacity="1.0" fill-opacity="1.0" stroke="rgb(102,102,102)" stroke-width="0.0" fill="rgb(255,0,0)" stroke-linecap="butt" stroke-miterlimit="10.0">
    <path d="M 205.4831,36.5949 c 0.0000,-0.3432 -0.2782,-0.6215 -0.6215 -0.6215c -0.3432,-0.0000 -0.6215,0.2782 -0.6215 0.6215c -0.0000,0.3432 0.2782,0.6215 0.6215 0.6215c 0.3432,0.0000 0.6215,-0.2782 0.6215 -0.6215Z"/>
  </g>
  <g stroke-linejoin="miter" stroke-opacity="1.0" fill-opacity="1.0" stroke="rgb(102,102,102)" stroke-width="0.0" fill="rgb(255,0,0)" stroke-linecap="butt" stroke-miterlimit="10.0">
    <path d="M 204.1608,38.4687 c 0.0000,-0.3432 -0.2782,-0.6215 -0.6215 -0.6215c -0.3432,-0.0000 -0.6215,0.2782 -0.6215 0.6215c -0.0000,0.3432 0.2782,0.6215 0.6215 0.6215c 0.3432,0.0000 0.6215,-0.2782 0.6215 -0.6215Z"/>
  </g>
  <g stroke-linejoin="miter" stroke-opacity="1.0" fill-opacity="1.0" stroke="rgb(102,102,102)" stroke-width="0.0" fill="rgb(255,0,0)" stroke-linecap="butt" stroke-miterlimit="10.0">
    <path d="M 202.8385,39.0933 c 0.0000,-0.3432 -0.2782,-0.6215 -0.6215 -0.6215c -0.3432,-0.0000 -0.6215,0.2782 -0.6215 0.6215c -0.0000,0.3432 0.2782,0.6215 0.6215 0.6215c 0.3432,0.0000 0.6215,-0.2782 0.6215 -0.6215Z"/>
  </g>
  <g stroke-linejoin="miter" stroke-opacity="1.0" fill-opacity="1.0" stroke="rgb(102,102,102)" stroke-width="0.0" fill="rgb(255,0,0)" stroke-linecap="butt" stroke-miterlimit="10.0">
    <path d="M 201.5163,39.7179 c 0.0000,-0.3432 -0.2782,-0.6215 -0.6215 -0.6215c -0.3432,-0.0000 -0.6215,0.2782 -0.6215 0.6215c -0.0000,0.3432 0.2782,0.6215 0.6215 0.6215c 0.3432,0.0000 0.6215,-0.2782 0.6215 -0.6215Z"/>
  </g>
  <g stroke-linejoin="miter" stroke-opacity="1.0" fill-opacity="1.0" stroke="rgb(102,102,102)" stroke-width="0.0" fill="rgb(255,0,0)" stroke-linecap="butt" stroke-miterlimit="10.0">
    <path d="M 200.1940,40.3425 c 0.0000,-0.3432 -0.2782,-0.6215 -0.6215 -0.6215c -0.3432,-0.0000 -0.6215,0.2782 -0.6215 0.6215c -0.0000,0.3432 0.2782,0.6215 0.6215 0.6215c 0.3432,0.0000 0.6215,-0.2782 0.6215 -0.6215Z"/>
  </g>
  <g stroke-linejoin="miter" stroke-opacity="1.0" fill-opacity="1.0" stroke="rgb(102,102,102)" stroke-width="0.0" fill="rgb(255,0,0)" stroke-linecap="butt" stroke-miterlimit="10.0">
    <path d="M 198.8717,40.9671 c 0.0000,-0.3432 -0.2782,-0.6215 -0.6215 -0.6215c -0.3432,-0.0000 -0.6215,0.2782 -0.6215 0.6215c -0.0000,0.3432 0.2782,0.6215 0.6215 0.6215c 0.3432,0.0000 0.6215,-0.2782 0.6215 -0.6215Z"/>
  </g>
  <g stroke-linejoin="miter" stroke-opacity="1.0" fill-opacity="1.0" stroke="rgb(102,102,102)" stroke-width="0.0" fill="rgb(255,0,0)" stroke-linecap="butt" stroke-miterlimit="10.0">
    <path d="M 197.5494,42.8409 c 0.0000,-0.3432 -0.2782,-0.6215 -0.6215 -0.6215c -0.3432,-0.0000 -0.6215,0.2782 -0.6215 0.6215c -0.0000,0.3432 0.2782,0.6215 0.6215 0.6215c 0.3432,0.0000 0.6215,-0.2782 0.6215 -0.6215Z"/>
  </g>
  <g stroke-linejoin="miter" stroke-opacity="1.0" fill-opacity="1.0" stroke="rgb(102,102,102)" stroke-width="0.0" fill="rgb(255,0,0)" stroke-linecap="butt" stroke-miterlimit="10.0">
    <path d="M 196.2271,43.4655 c 0.0000,-0.3432 -0.2782,-0.6215 -0.6215 -0.6215c -0.3432,-0.0000 -0.6215,0.2782 -0.6215 0.6215c -0.0000,0.3432 0.2782,0.6215 0.6215 0.6215c 0.3432,0.0000 0.6215,-0.2782 0.6215 -0.6215Z"/>
  </g>
  <g stroke-linejoin="miter" stroke-opacity="1.0" fill-opacity="1.0" stroke="rgb(102,102,102)" stroke-width="0.0" fill="rgb(255,0,0)" stroke-linecap="butt" stroke-miterlimit="10.0">
    <path d="M 194.9048,44.0901 c 0.0000,-0.3432 -0.2782,-0.6215 -0.6215 -0.6215c -0.3432,-0.0000 -0.6215,0.2782 -0.6215 0.6215c -0.0000,0.3432 0.2782,0.6215 0.6215 0.6215c 0.3432,0.0000 0.6215,-0.2782 0.6215 -0.6215Z"/>
  </g>
  <g stroke-linejoin="miter" stroke-opacity="1.0" fill-opacity="1.0" stroke="rgb(102,102,102)" stroke-width="0.0" fill="rgb(255,0,0)" stroke-linecap="butt" stroke-miterlimit="10.0">
    <path d="M 193.5825,44.7147 c 0.0000,-0.3432 -0.2782,-0.6215 -0.6215 -0.6215c -0.3432,-0.0000 -0.6215,0.2782 -0.6215 0.6215c -0.0000,0.3432 0.2782,0.6215 0.6215 0.6215c 0.3432,0.0000 0.6215,-0.2782 0.6215 -0.6215Z"/>
  </g>
  <g stroke-linejoin="miter" stroke-opacity="1.0" fill-opacity="1.0" stroke="rgb(102,102,102)" stroke-width="0.0" fill="rgb(255,0,0)" stroke-linecap="butt" stroke-miterlimit="10.0">
    <path d="M 192.2602,45.3393 c 0.0000,-0.3432 -0.2782,-0.6215 -0.6215 -0.6215c -0.3432,-0.0000 -0.6215,0.2782 -0.6215 0.6215c -0.0000,0.3432 0.2782,0.6215 0.6215 0.6215c 0.3432,0.0000 0.6215,-0.2782 0.6215 -0.6215Z"/>
  </g>
  <g stroke-linejoin="miter" stroke-opacity="1.0" fill-opacity="1.0" stroke="rgb(102,102,102)" stroke-width="0.0" fill="rgb(255,0,0)" stroke-linecap="butt" stroke-miterlimit="10.0">
    <path d="M 190.9379,47.2131 c 0.0000,-0.3432 -0.2782,-0.6215 -0.6215 -0.6215c -0.3432,-0.0000 -0.6215,0.2782 -0.6215 0.6215c -0.0000,0.3432 0.2782,0.6215 0.6215 0.6215c 0.3432,0.0000 0.6215,-0.2782 0.6215 -0.6215Z"/>
  </g>
  <g stroke-linejoin="miter" stroke-opacity="1.0" fill-opacity="1.0" stroke="rgb(102,102,102)" stroke-width="0.0" fill="rgb(255,0,0)" stroke-linecap="butt" stroke-miterlimit="10.0">
    <path d="M 189.6156,47.8377 c 0.0000,-0.3432 -0.2782,-0.6215 -0.6215 -0.6215c -0.3432,-0.0000 -0.6215,0.2782 -0.6215 0.6215c -0.0000,0.3432 0.2782,0.6215 0.6215 0.6215c 0.3432,0.0000 0.6215,-0.2782 0.6215 -0.6215Z"/>
  </g>
  <g stroke-linejoin="miter" stroke-opacity="1.0" fill-opacity="1.0" stroke="rgb(102,102,102)" stroke-width="0.0" fill="rgb(255,0,0)" stroke-linecap="butt" stroke-miterlimit="10.0">
    <path d="M 188.2933,48.4623 c 0.0000,-0.3432 -0.2782,-0.6215 -0.6215 -0.6215c -0.3432,-0.0000 -0.6215,0.2782 -0.6215 0.6215c -0.0000,0.3432 0.2782,0.6215 0.6215 0.6215c 0.3432,0.0000 0.6215,-0.2782 0.6215 -0.6215Z"/>
  </g>
  <g stroke-linejoin="miter" stroke-opacity="1.0" fill-opacity="1.0" stroke="rgb(102,102,102)" stroke-width="0.0" fill="rgb(255,0,0)" stroke-linecap="butt" stroke-miterlimit="10.0">
    <path d="M 186.9710,49.0869 c 0.0000,-0.3432 -0.2782,-0.6215 -0.6215 -0.6215c -0.3432,-0.0000 -0.6215,0.2782 -0.6215 0.6215c -0.0000,0.3432 0.2782,0.6215 0.6215 0.6215c 0.3432,0.0000 0.6215,-0.2782 0.6215 -0.6215Z"/>
  </g>
  <g stroke-linejoin="miter" stroke-opacity="1.0" fill-opacity="1.0" stroke="rgb(102,102,102)" stroke-width="0.0" fill="rgb(255,0,0)" stroke-linecap="butt" stroke-miterlimit="10.0">
    <path d="M 185.6488,49.7115 c 0.0000,-0.3432 -0.2782,-0.6215 -0.6215 -0.6215c -0.3432,-0.0000 -0.6215,0.2782 -0.6215 0.6215c -0.0000,0.3432 0.2782,0.6215 0.6215 0.6215c 0.3432,0.0000 0.6215,-0.2782 0.6215 -0.6215Z"/>
  </g>
  <g stroke-linejoin="miter" stroke-opacity="1.0" fill-opacity="1.0" stroke="rgb(102,102,102)" stroke-width="0.0" fill="rgb(255,0,0)" stroke-linecap="butt" stroke-miterlimit="10.0">
    <path d="M 184.3265,51.5853 c 0.0000,-0.3432 -0.2782,-0.6215 -0.6215 -0.6215c -0.3432,-0.0000 -0.6215,0.2782 -0.6215 0.6215c -0.0000,0.3432 0.2782,0.6215 0.6215 0.6215c 0.3432,0.0000 0.6215,-0.2782 0.6215 -0.6215Z"/>
  </g>
  <g stroke-linejoin="miter" stroke-opacity="1.0" fill-opacity="1.0" stroke="rgb(102,102,102)" stroke-width="0.0" fill="rgb(255,0,0)" stroke-linecap="butt" stroke-miterlimit="10.0">
    <path d="M 183.0042,52.2099 c 0.0000,-0.3432 -0.2782,-0.6215 -0.6215 -0.6215c -0.3432,-0.0000 -0.6215,0.2782 -0.6215 0.6215c -0.0000,0.3432 0.2782,0.6215 0.6215 0.6215c 0.3432,0.0000 0.6215,-0.2782 0.6215 -0.6215Z"/>
  </g>
  <g stroke-linejoin="miter" stroke-opacity="1.0" fill-opacity="1.0" stroke="rgb(102,102,102)" stroke-width="0.0" fill="rgb(255,0,0)" stroke-linecap="butt" stroke-miterlimit="10.0">
    <path d="M 181.6819,52.8345 c 0.0000,-0.3432 -0.2782,-0.6215 -0.6215 -0.6215c -0.3432,-0.0000 -0.6215,0.2782 -0.6215 0.6215c -0.0000,0.3432 0.2782,0.6215 0.6215 0.6215c 0.3432,0.0000 0.6215,-0.2782 0.6215 -0.6215Z"/>
  </g>
  <g stroke-linejoin="miter" stroke-opacity="1.0" fill-opacity="1.0" stroke="rgb(102,102,102)" stroke-width="0.0" fill="rgb(255,0,0)" stroke-linecap="butt" stroke-miterlimit="10.0">
    <path d="M 180.3596,53.4591 c 0.0000,-0.3432 -0.2782,-0.6215 -0.6215 -0.6215c -0.3432,-0.0000 -0.6215,0.2782 -0.6215 0.6215c -0.0000,0.3432 0.2782,0.6215 0.6215 0.6215c 0.3432,0.0000 0.6215,-0.2782 0.6215 -0.6215Z"/>
  </g>
  <g stroke-linejoin="miter" stroke-opacity="1.0" fill-opacity="1.0" stroke="rgb(102,102,102)" stroke-width="0.0" fill="rgb(255,0,0)" stroke-linecap="butt" stroke-miterlimit="10.0">
    <path d="M 179.0373,54.0837 c 0.0000,-0.3432 -0.2782,-0.6215 -0.6215 -0.6215c -0.3432,-0.0000 -0.6215,0.2782 -0.6215 0.6215c -0.0000,0.3432 0.2782,0.6215 0.6215 0.6215c 0.3432,0.0000 0.6215,-0.2782 0.6215 -0.6215Z"/>
  </g>
  <g stroke-linejoin="miter" stroke-opacity="1.0" fill-opacity="1.0" stroke="rgb(102,102,102)" stroke-width="0.0" fill="rgb(255,0,0)" stroke-linecap="butt" stroke-miterlimit="10.0">
    <path d="M 177.7150,55.9575 c 0.0000,-0.3432 -0.2782,-0.6215 -0.6215 -0.6215c -0.3432,-0.0000 -0.6215,0.2782 -0.6215 0.6215c -0.0000,0.3432 0.2782,0.6215 0.6215 0.6215c 0.3432,0.0000 0.6215,-0.2782 0.6215 -0.6215Z"/>
  </g>
  <g stroke-linejoin="miter" stroke-opacity="1.0" fill-opacity="1.0" stroke="rgb(102,102,102)" stroke-width="0.0" fill="rgb(255,0,0)" stroke-linecap="butt" stroke-miterlimit="10.0">
    <path d="M 176.3927,56.5821 c 0.0000,-0.3432 -0.2782,-0.6215 -0.6215 -0.6215c -0.3432,-0.0000 -0.6215,0.2782 -0.6215 0.6215c -0.0000,0.3432 0.2782,0.6215 0.6215 0.6215c 0.3432,0.0000 0.6215,-0.2782 0.6215 -0.6215Z"/>
  </g>
  <g stroke-linejoin="miter" stroke-opacity="1.0" fill-opacity="1.0" stroke="rgb(102,102,102)" stroke-width="0.0" fill="rgb(255,0,0)" stroke-linecap="butt" stroke-miterlimit="10.0">
    <path d="M 175.0704,57.2067 c 0.0000,-0.3432 -0.2782,-0.6215 -0.6215 -0.6215c -0.3432,-0.0000 -0.6215,0.2782 -0.6215 0.6215c -0.0000,0.3432 0.2782,0.6215 0.6215 0.6215c 0.3432,0.0000 0.6215,-0.2782 0.6215 -0.6215Z"/>
  </g>
  <g stroke-linejoin="miter" stroke-opacity="1.0" fill-opacity="1.0" stroke="rgb(102,102,102)" stroke-width="0.0" fill="rgb(255,0,0)" stroke-linecap="butt" stroke-miterlimit="10.0">
    <path d="M 173.7481,57.8313 c 0.0000,-0.3432 -0.2782,-0.6215 -0.6215 -0.6215c -0.3432,-0.0000 -0.6215,0.2782 -0.6215 0.6215c -0.0000,0.3432 0.2782,0.6215 0.6215 0.6215c 0.3432,0.0000 0.6215,-0.2782 0.6215 -0.6215Z"/>
  </g>
  <g stroke-linejoin="miter" stroke-opacity="1.0" fill-opacity="1.0" stroke="rgb(102,102,102)" stroke-width="0.0" fill="rgb(255,0,0)" stroke-linecap="butt" stroke-miterlimit="10.0">
    <path d="M 172.4258,58.4559 c 0.0000,-0.3432 -0.2782,-0.6215 -0.6215 -0.6215c -0.3432,-0.0000 -0.6215,0.2782 -0.6215 0.6215c -0.0000,0.3432 0.2782,0.6215 0.6215 0.6215c 0.3432,0.0000 0.6215,-0.2782 0.6215 -0.6215Z"/>
  </g>
  <g stroke-linejoin="miter" stroke-opacity="1.0" fill-opacity="1.0" stroke="rgb(102,102,102)" stroke-width="0.0" fill="rgb(255,0,0)" stroke-linecap="butt" stroke-miterlimit="10.0">
    <path d="M 171.1036,60.3297 c 0.0000,-0.3432 -0.2782,-0.6215 -0.6215 -0.6215c -0.3432,-0.0000 -0.6215,0.2782 -0.6215 0.6215c -0.0000,0.3432 0.2782,0.6215 0.6215 0.6215c 0.3432,0.0000 0.6215,-0.2782 0.6215 -0.6215Z"/>
  </g>
  <g stroke-linejoin="miter" stroke-opacity="1.0" fill-opacity="1.0" stroke="rgb(102,102,102)" stroke-width="0.0" fill="rgb(255,0,0)" stroke-linecap="butt" stroke-miterlimit="10.0">
    <path d="M 169.7813,60.9543 c 0.0000,-0.3432 -0.2782,-0.6215 -0.6215 -0.6215c -0.3432,-0.0000 -0.6215,0.2782 -0.6215 0.6215c -0.0000,0.3432 0.2782,0.6215 0.6215 0.6215c 0.3432,0.0000 0.6215,-0.2782 0.6215 -0.6215Z"/>
  </g>
  <g stroke-linejoin="miter" stroke-opacity="1.0" fill-opacity="1.0" stroke="rgb(102,102,102)" stroke-width="0.0" fill="rgb(255,0,0)" stroke-linecap="butt" stroke-miterlimit="10.0">
    <path d="M 168.4590,61.5789 c 0.0000,-0.3432 -0.2782,-0.6215 -0.6215 -0.6215c -0.3432,-0.0000 -0.6215,0.2782 -0.6215 0.6215c -0.0000,0.3432 0.2782,0.6215 0.6215 0.6215c 0.3432,0.0000 0.6215,-0.2782 0.6215 -0.6215Z"/>
  </g>
  <g stroke-linejoin="miter" stroke-opacity="1.0" fill-opacity="1.0" stroke="rgb(102,102,102)" stroke-width="0.0" fill="rgb(255,0,0)" stroke-linecap="butt" stroke-miterlimit="10.0">
    <path d="M 167.1367,62.2035 c 0.0000,-0.3432 -0.2782,-0.6215 -0.6215 -0.6215c -0.3432,-0.0000 -0.6215,0.2782 -0.6215 0.6215c -0.0000,0.3432 0.2782,0.6215 0.6215 0.6215c 0.3432,0.0000 0.6215,-0.2782 0.6215 -0.6215Z"/>
  </g>
  <g stroke-linejoin="miter" stroke-opacity="1.0" fill-opacity="1.0" stroke="rgb(102,102,102)" stroke-width="0.0" fill="rgb(255,0,0)" stroke-linecap="butt" stroke-miterlimit="10.0">
    <path d="M 165.8144,62.8281 c 0.0000,-0.3432 -0.2782,-0.6215 -0.6215 -0.6215c -0.3432,-0.0000 -0.6215,0.2782 -0.6215 0.6215c -0.0000,0.3432 0.2782,0.6215 0.6215 0.6215c 0.3432,0.0000 0.6215,-0.2782 0.6215 -0.6215Z"/>
  </g>
  <g stroke-linejoin="miter" stroke-opacity="1.0" fill-opacity="1.0" stroke="rgb(102,102,102)" stroke-width="0.0" fill="rgb(255,0,0)" stroke-linecap="butt" stroke-miterlimit="10.0">
    <path d="M 164.4921,64.7019 c 0.0000,-0.3432 -0.2782,-0.6215 -0.6215 -0.6215c -0.3432,-0.0000 -0.6215,0.2782 -0.6215 0.6215c -0.0000,0.3432 0.2782,0.6215 0.6215 0.6215c 0.3432,0.0000 0.6215,-0.2782 0.6215 -0.6215Z"/>
  </g>
  <g stroke-linejoin="miter" stroke-opacity="1.0" fill-opacity="1.0" stroke="rgb(102,102,102)" stroke-width="0.0" fill="rgb(255,0,0)" stroke-linecap="butt" stroke-miterlimit="10.0">
    <path d="M 163.1698,65.3265 c 0.0000,-0.3432 -0.2782,-0.6215 -0.6215 -0.6215c -0.3432,-0.0000 -0.6215,0.2782 -0.6215 0.6215c -0.0000,0.3432 0.2782,0.6215 0.6215 0.6215c 0.3432,0.0000 0.6215,-0.2782 0.6215 -0.6215Z"/>
  </g>
  <g stroke-linejoin="miter" stroke-opacity="1.0" fill-opacity="1.0" stroke="rgb(102,102,102)" stroke-width="0.0" fill="rgb(255,0,0)" stroke-linecap="butt" stroke-miterlimit="10.0">
    <path d="M 161.8475,65.9511 c 0.0000,-0.3432 -0.2782,-0.6215 -0.6215 -0.6215c -0.3432,-0.0000 -0.6215,0.2782 -0.6215 0.6215c -0.0000,0.3432 0.2782,0.6215 0.6215 0.6215c 0.3432,0.0000 0.6215,-0.2782 0.6215 -0.6215Z"/>
  </g>
  <g stroke-linejoin="miter" stroke-opacity="1.0" fill-opacity="1.0" stroke="rgb(102,102,102)" stroke-width="0.0" fill="rgb(255,0,0)" stroke-linecap="butt" stroke-miterlimit="10.0">
    <path d="M 160.5252,66.5757 c 0.0000,-0.3432 -0.2782,-0.6215 -0.6215 -0.6215c -0.3432,-0.0000 -0.6215,0.2782 -0.6215 0.6215c -0.0000,0.3432 0.2782,0.6215 0.6215 0.6215c 0.3432,0.0000 0.6215,-0.2782 0.6215 -0.6215Z"/>
  </g>
  <g stroke-linejoin="miter" stroke-opacity="1.0" fill-opacity="1.0" stroke="rgb(102,102,102)" stroke-width="0.0" fill="rgb(255,0,0)" stroke-linecap="butt" stroke-miterlimit="10.0">
    <path d="M 159.2029,67.2003 c 0.0000,-0.3432 -0.2782,-0.6215 -0.6215 -0.6215c -0.3432,-0.0000 -0.6215,0.2782 -0.6215 0.6215c -0.0000,0.3432 0.2782,0.6215 0.6215 0.6215c 0.3432,0.0000 0.6215,-0.2782 0.6215 -0.6215Z"/>
  </g>
  <g stroke-linejoin="miter" stroke-opacity="1.0" fill-opacity="1.0" stroke="rgb(102,102,102)" stroke-width="0.0" fill="rgb(255,0,0)" stroke-linecap="butt" stroke-miterlimit="10.0">
    <path d="M 157.8806,69.0741 c 0.0000,-0.3432 -0.2782,-0.6215 -0.6215 -0.6215c -0.3432,-0.0000 -0.6215,0.2782 -0.6215 0.6215c -0.0000,0.3432 0.2782,0.6215 0.6215 0.6215c 0.3432,0.0000 0.6215,-0.2782 0.6215 -0.6215Z"/>
  </g>
  <g stroke-linejoin="miter" stroke-opacity="1.0" fill-opacity="1.0" stroke="rgb(102,102,102)" stroke-width="0.0" fill="rgb(255,0,0)" stroke-linecap="butt" stroke-miterlimit="10.0">
    <path d="M 156.5584,69.6987 c 0.0000,-0.3432 -0.2782,-0.6215 -0.6215 -0.6215c -0.3432,-0.0000 -0.6215,0.2782 -0.6215 0.6215c -0.0000,0.3432 0.2782,0.6215 0.6215 0.6215c 0.3432,0.0000 0.6215,-0.2782 0.6215 -0.6215Z"/>
  </g>
  <g stroke-linejoin="miter" stroke-opacity="1.0" fill-opacity="1.0" stroke="rgb(102,102,102)" stroke-width="0.0" fill="rgb(255,0,0)" stroke-linecap="butt" stroke-miterlimit="10.0">
    <path d="M 155.2361,70.3233 c 0.0000,-0.3432 -0.2782,-0.6215 -0.6215 -0.6215c -0.3432,-0.0000 -0.6215,0.2782 -0.6215 0.6215c -0.0000,0.3432 0.2782,0.6215 0.6215 0.6215c 0.3432,0.0000 0.6215,-0.2782 0.6215 -0.6215Z"/>
  </g>
  <g stroke-linejoin="miter" stroke-opacity="1.0" fill-opacity="1.0" stroke="rgb(102,102,102)" stroke-width="0.0" fill="rgb(255,0,0)" stroke-linecap="butt" stroke-miterlimit="10.0">
    <path d="M 153.9138,70.9479 c 0.0000,-0.3432 -0.2782,-0.6215 -0.6215 -0.6215c -0.3432,-0.0000 -0.6215,0.2782 -0.6215 0.6215c -0.0000,0.3432 0.2782,0.6215 0.6215 0.6215c 0.3432,0.0000 0.6215,-0.2782 0.6215 -0.6215Z"/>
  </g>
  <g stroke-linejoin="miter" stroke-opacity="1.0" fill-opacity="1.0" stroke="rgb(102,102,102)" stroke-width="0.0" fill="rgb(255,0,0)" stroke-linecap="butt" stroke-miterlimit="10.0">
    <path d="M 152.5915,71.5725 c 0.0000,-0.3432 -0.2782,-0.6215 -0.6215 -0.6215c -0.3432,-0.0000 -0.6215,0.2782 -0.6215 0.6215c -0.0000,0.3432 0.2782,0.6215 0.6215 0.6215c 0.3432,0.0000 0.6215,-0.2782 0.6215 -0.6215Z"/>
  </g>
  <g stroke-linejoin="miter" stroke-opacity="1.0" fill-opacity="1.0" stroke="rgb(102,102,102)" stroke-width="0.0" fill="rgb(255,0,0)" stroke-linecap="butt" stroke-miterlimit="10.0">
    <path d="M 151.2692,73.4463 c 0.0000,-0.3432 -0.2782,-0.6215 -0.6215 -0.6215c -0.3432,-0.0000 -0.6215,0.2782 -0.6215 0.6215c -0.0000,0.3432 0.2782,0.6215 0.6215 0.6215c 0.3432,0.0000 0.6215,-0.2782 0.6215 -0.6215Z"/>
  </g>
  <g stroke-linejoin="miter" stroke-opacity="1.0" fill-opacity="1.0" stroke="rgb(102,102,102)" stroke-width="0.0" fill="rgb(255,0,0)" stroke-linecap="butt" stroke-miterlimit="10.0">
    <path d="M 149.9469,74.0709 c 0.0000,-0.3432 -0.2782,-0.6215 -0.6215 -0.6215c -0.3432,-0.0000 -0.6215,0.2782 -0.6215 0.6215c -0.0000,0.3432 0.2782,0.6215 0.6215 0.6215c 0.3432,0.0000 0.6215,-0.2782 0.6215 -0.6215Z"/>
  </g>
  <g stroke-linejoin="miter" stroke-opacity="1.0" fill-opacity="1.0" stroke="rgb(102,102,102)" stroke-width="0.0" fill="rgb(255,0,0)" stroke-linecap="butt" stroke-miterlimit="10.0">
    <path d="M 148.6246,74.6955 c 0.0000,-0.3432 -0.2782,-0.6215 -0.6215 -0.6215c -0.3432,-0.0000 -0.6215,0.2782 -0.6215 0.6215c -0.0000,0.3432 0.2782,0.6215 0.6215 0.6215c 0.3432,0.0000 0.6215,-0.2782 0.6215 -0.6215Z"/>
  </g>
  <g stroke-linejoin="miter" stroke-opacity="1.0" fill-opacity="1.0" stroke="rgb(102,102,102)" stroke-width="0.0" fill="rgb(255,0,0)" stroke-linecap="butt" stroke-miterlimit="10.0">
    <path d="M 147.3023,75.3201 c 0.0000,-0.3432 -0.2782,-0.6215 -0.6215 -0.6215c -0.3432,-0.0000 -0.6215,0.2782 -0.6215 0.6215c -0.0000,0.3432 0.2782,0.6215 0.6215 0.6215c 0.3432,0.0000 0.6215,-0.2782 0.6215 -0.6215Z"/>
  </g>
  <g stroke-linejoin="miter" stroke-opacity="1.0" fill-opacity="1.0" stroke="rgb(102,102,102)" stroke-width="0.0" fill="rgb(255,0,0)" stroke-linecap="butt" stroke-miterlimit="10.0">
    <path d="M 145.9800,75.9447 c 0.0000,-0.3432 -0.2782,-0.6215 -0.6215 -0.6215c -0.3432,-0.0000 -0.6215,0.2782 -0.6215 0.6215c -0.0000,0.3432 0.2782,0.6215 0.6215 0.6215c 0.3432,0.0000 0.6215,-0.2782 0.6215 -0.6215Z"/>
  </g>
  <g stroke-linejoin="miter" stroke-opacity="1.0" fill-opacity="1.0" stroke="rgb(102,102,102)" stroke-width="0.0" fill="rgb(255,0,0)" stroke-linecap="butt" stroke-miterlimit="10.0">
    <path d="M 144.6577,77.8185 c 0.0000,-0.3432 -0.2782,-0.6215 -0.6215 -0.6215c -0.3432,-0.0000 -0.6215,0.2782 -0.6215 0.6215c -0.0000,0.3432 0.2782,0.6215 0.6215 0.6215c 0.3432,0.0000 0.6215,-0.2782 0.6215 -0.6215Z"/>
  </g>
  <g stroke-linejoin="miter" stroke-opacity="1.0" fill-opacity="1.0" stroke="rgb(102,102,102)" stroke-width="0.0" fill="rgb(255,0,0)" stroke-linecap="butt" stroke-miterlimit="10.0">
    <path d="M 143.3354,78.4431 c 0.0000,-0.3432 -0.2782,-0.6215 -0.6215 -0.6215c -0.3432,-0.0000 -0.6215,0.2782 -0.6215 0.6215c -0.0000,0.3432 0.2782,0.6215 0.6215 0.6215c 0.3432,0.0000 0.6215,-0.2782 0.6215 -0.6215Z"/>
  </g>
  <g stroke-linejoin="miter" stroke-opacity="1.0" fill-opacity="1.0" stroke="rgb(102,102,102)" stroke-width="0.0" fill="rgb(255,0,0)" stroke-linecap="butt" stroke-miterlimit="10.0">
    <path d="M 142.0132,79.0677 c 0.0000,-0.3432 -0.2782,-0.6215 -0.6215 -0.6215c -0.3432,-0.0000 -0.6215,0.2782 -0.6215 0.6215c -0.0000,0.3432 0.2782,0.6215 0.6215 0.6215c 0.3432,0.0000 0.6215,-0.2782 0.6215 -0.6215Z"/>
  </g>
  <g stroke-linejoin="miter" stroke-opacity="1.0" fill-opacity="1.0" stroke="rgb(102,102,102)" stroke-width="0.0" fill="rgb(255,0,0)" stroke-linecap="butt" stroke-miterlimit="10.0">
    <path d="M 140.6909,79.6923 c 0.0000,-0.3432 -0.2782,-0.6215 -0.6215 -0.6215c -0.3432,-0.0000 -0.6215,0.2782 -0.6215 0.6215c -0.0000,0.3432 0.2782,0.6215 0.6215 0.6215c 0.3432,0.0000 0.6215,-0.2782 0.6215 -0.6215Z"/>
  </g>
  <g stroke-linejoin="miter" stroke-opacity="1.0" fill-opacity="1.0" stroke="rgb(102,102,102)" stroke-width="0.0" fill="rgb(255,0,0)" stroke-linecap="butt" stroke-miterlimit="10.0">
    <path d="M 139.3686,80.3169 c 0.0000,-0.3432 -0.2782,-0.6215 -0.6215 -0.6215c -0.3432,-0.0000 -0.6215,0.2782 -0.6215 0.6215c -0.0000,0.3432 0.2782,0.6215 0.6215 0.6215c 0.3432,0.0000 0.6215,-0.2782 0.6215 -0.6215Z"/>
  </g>
  <g stroke-linejoin="miter" stroke-opacity="1.0" fill-opacity="1.0" stroke="rgb(102,102,102)" stroke-width="0.0" fill="rgb(255,0,0)" stroke-linecap="butt" stroke-miterlimit="10.0">
    <path d="M 138.0463,82.1907 c 0.0000,-0.3432 -0.2782,-0.6215 -0.6215 -0.6215c -0.3432,-0.0000 -0.6215,0.2782 -0.6215 0.6215c -0.0000,0.3432 0.2782,0.6215 0.6215 0.6215c 0.3432,0.0000 0.6215,-0.2782 0.6215 -0.6215Z"/>
  </g>
  <g stroke-linejoin="miter" stroke-opacity="1.0" fill-opacity="1.0" stroke="rgb(102,102,102)" stroke-width="0.0" fill="rgb(255,0,0)" stroke-linecap="butt" stroke-miterlimit="10.0">
    <path d="M 136.7240,82.8153 c 0.0000,-0.3432 -0.2782,-0.6215 -0.6215 -0.6215c -0.3432,-0.0000 -0.6215,0.2782 -0.6215 0.6215c -0.0000,0.3432 0.2782,0.6215 0.6215 0.6215c 0.3432,0.0000 0.6215,-0.2782 0.6215 -0.6215Z"/>
  </g>
  <g stroke-linejoin="miter" stroke-opacity="1.0" fill-opacity="1.0" stroke="rgb(102,102,102)" stroke-width="0.0" fill="rgb(255,0,0)" stroke-linecap="butt" stroke-miterlimit="10.0">
    <path d="M 135.4017,83.4399 c 0.0000,-0.3432 -0.2782,-0.6215 -0.6215 -0.6215c -0.3432,-0.0000 -0.6215,0.2782 -0.6215 0.6215c -0.0000,0.3432 0.2782,0.6215 0.6215 0.6215c 0.3432,0.0000 0.6215,-0.2782 0.6215 -0.6215Z"/>
  </g>
  <g stroke-linejoin="miter" stroke-opacity="1.0" fill-opacity="1.0" stroke="rgb(102,102,102)" stroke-width="0.0" fill="rgb(255,0,0)" stroke-linecap="butt" stroke-miterlimit="10.0">
    <path d="M 134.0794,84.0645 c 0.0000,-0.3432 -0.2782,-0.6215 -0.6215 -0.6215c -0.3432,-0.0000 -0.6215,0.2782 -0.6215 0.6215c -0.0000,0.3432 0.2782,0.6215 0.6215 0.6215c 0.3432,0.0000 0.6215,-0.2782 0.6215 -0.6215Z"/>
  </g>
  <g stroke-linejoin="miter" stroke-opacity="1.0" fill-opacity="1.0" stroke="rgb(102,102,102)" stroke-width="0.0" fill="rgb(255,0,0)" stroke-linecap="butt" stroke-miterlimit="10.0">
    <path d="M 132.7571,84.6891 c 0.0000,-0.3432 -0.2782,-0.6215 -0.6215 -0.6215c -0.3432,-0.0000 -0.6215,0.2782 -0.6215 0.6215c -0.0000,0.3432 0.2782,0.6215 0.6215 0.6215c 0.3432,0.0000 0.6215,-0.2782 0.6215 -0.6215Z"/>
  </g>
  <g stroke-linejoin="miter" stroke-opacity="1.0" fill-opacity="1.0" stroke="rgb(102,102,102)" stroke-width="0.0" fill="rgb(255,0,0)" stroke-linecap="butt" stroke-miterlimit="10.0">
    <path d="M 131.4348,86.5629 c 0.0000,-0.3432 -0.2782,-0.6215 -0.6215 -0.6215c -0.3432,-0.0000 -0.6215,0.2782 -0.6215 0.6215c -0.0000,0.3432 0.2782,0.6215 0.6215 0.6215c 0.3432,0.0000 0.6215,-0.2782 0.6215 -0.6215Z"/>
  </g>
  <g stroke-linejoin="miter" stroke-opacity="1.0" fill-opacity="1.0" stroke="rgb(102,102,102)" stroke-width="0.0" fill="rgb(255,0,0)" stroke-linecap="butt" stroke-miterlimit="10.0">
    <path d="M 130.1125,87.1875 c 0.0000,-0.3432 -0.2782,-0.6215 -0.6215 -0.6215c -0.3432,-0.0000 -0.6215,0.2782 -0.6215 0.6215c -0.0000,0.3432 0.2782,0.6215 0.6215 0.6215c 0.3432,0.0000 0.6215,-0.2782 0.6215 -0.6215Z"/>
  </g>
  <g stroke-linejoin="miter" stroke-opacity="1.0" fill-opacity="1.0" stroke="rgb(102,102,102)" stroke-width="0.0" fill="rgb(255,0,0)" stroke-linecap="butt" stroke-miterlimit="10.0">
    <path d="M 128.7902,87.8121 c 0.0000,-0.3432 -0.2782,-0.6215 -0.6215 -0.6215c -0.3432,-0.0000 -0.6215,0.2782 -0.6215 0.6215c -0.0000,0.3432 0.2782,0.6215 0.6215 0.6215c 0.3432,0.0000 0.6215,-0.2782 0.6215 -0.6215Z"/>
  </g>
  <g stroke-linejoin="miter" stroke-opacity="1.0" fill-opacity="1.0" stroke="rgb(102,102,102)" stroke-width="0.0" fill="rgb(255,0,0)" stroke-linecap="butt" stroke-miterlimit="10.0">
    <path d="M 127.4680,88.4367 c 0.0000,-0.3432 -0.2782,-0.6215 -0.6215 -0.6215c -0.3432,-0.0000 -0.6215,0.2782 -0.6215 0.6215c -0.0000,0.3432 0.2782,0.6215 0.6215 0.6215c 0.3432,0.0000 0.6215,-0.2782 0.6215 -0.6215Z"/>
  </g>
  <g stroke-linejoin="miter" stroke-opacity="1.0" fill-opacity="1.0" stroke="rgb(102,102,102)" stroke-width="0.0" fill="rgb(255,0,0)" stroke-linecap="butt" stroke-miterlimit="10.0">
    <path d="M 126.1457,89.0613 c 0.0000,-0.3432 -0.2782,-0.6215 -0.6215 -0.6215c -0.3432,-0.0000 -0.6215,0.2782 -0.6215 0.6215c -0.0000,0.3432 0.2782,0.6215 0.6215 0.6215c 0.3432,0.0000 0.6215,-0.2782 0.6215 -0.6215Z"/>
  </g>
  <g stroke-linejoin="miter" stroke-opacity="1.0" fill-opacity="1.0" stroke="rgb(102,102,102)" stroke-width="0.0" fill="rgb(255,0,0)" stroke-linecap="butt" stroke-miterlimit="10.0">
    <path d="M 124.8234,90.9351 c 0.0000,-0.3432 -0.2782,-0.6215 -0.6215 -0.6215c -0.3432,-0.0000 -0.6215,0.2782 -0.6215 0.6215c -0.0000,0.3432 0.2782,0.6215 0.6215 0.6215c 0.3432,0.0000 0.6215,-0.2782 0.6215 -0.6215Z"/>
  </g>
  <g stroke-linejoin="miter" stroke-opacity="1.0" fill-opacity="1.0" stroke="rgb(102,102,102)" stroke-width="0.0" fill="rgb(255,0,0)" stroke-linecap="butt" stroke-miterlimit="10.0">
    <path d="M 123.5011,91.5597 c 0.0000,-0.3432 -0.2782,-0.6215 -0.6215 -0.6215c -0.3432,-0.0000 -0.6215,0.2782 -0.6215 0.6215c -0.0000,0.3432 0.2782,0.6215 0.6215 0.6215c 0.3432,0.0000 0.6215,-0.2782 0.6215 -0.6215Z"/>
  </g>
  <g stroke-linejoin="miter" stroke-opacity="1.0" fill-opacity="1.0" stroke="rgb(102,102,102)" stroke-width="0.0" fill="rgb(255,0,0)" stroke-linecap="butt" stroke-miterlimit="10.0">
    <path d="M 122.1788,92.1843 c 0.0000,-0.3432 -0.2782,-0.6215 -0.6215 -0.6215c -0.3432,-0.0000 -0.6215,0.2782 -0.6215 0.6215c -0.0000,0.3432 0.2782,0.6215 0.6215 0.6215c 0.3432,0.0000 0.6215,-0.2782 0.6215 -0.6215Z"/>
  </g>
  <g stroke-linejoin="miter" stroke-opacity="1.0" fill-opacity="1.0" stroke="rgb(102,102,102)" stroke-width="0.0" fill="rgb(255,0,0)" stroke-linecap="butt" stroke-miterlimit="10.0">
    <path d="M 120.8565,92.8089 c 0.0000,-0.3432 -0.2782,-0.6215 -0.6215 -0.6215c -0.3432,-0.0000 -0.6215,0.2782 -0.6215 0.6215c -0.0000,0.3432 0.2782,0.6215 0.6215 0.6215c 0.3432,0.0000 0.6215,-0.2782 0.6215 -0.6215Z"/>
  </g>
  <g stroke-linejoin="miter" stroke-opacity="1.0" fill-opacity="1.0" stroke="rgb(102,102,102)" stroke-width="0.0" fill="rgb(255,0,0)" stroke-linecap="butt" stroke-miterlimit="10.0">
    <path d="M 119.5342,93.4335 c 0.0000,-0.3432 -0.2782,-0.6215 -0.6215 -0.6215c -0.3432,-0.0000 -0.6215,0.2782 -0.6215 0.6215c -0.0000,0.3432 0.2782,0.6215 0.6215 0.6215c 0.3432,0.0000 0.6215,-0.2782 0.6215 -0.6215Z"/>
  </g>
  <g stroke-linejoin="miter" stroke-opacity="1.0" fill-opacity="1.0" stroke="rgb(102,102,102)" stroke-width="0.0" fill="rgb(255,0,0)" stroke-linecap="butt" stroke-miterlimit="10.0">
    <path d="M 118.2119,95.3073 c 0.0000,-0.3432 -0.2782,-0.6215 -0.6215 -0.6215c -0.3432,-0.0000 -0.6215,0.2782 -0.6215 0.6215c -0.0000,0.3432 0.2782,0.6215 0.6215 0.6215c 0.3432,0.0000 0.6215,-0.2782 0.6215 -0.6215Z"/>
  </g>
  <g stroke-linejoin="miter" stroke-opacity="1.0" fill-opacity="1.0" stroke="rgb(102,102,102)" stroke-width="0.0" fill="rgb(255,0,0)" stroke-linecap="butt" stroke-miterlimit="10.0">
    <path d="M 116.8896,95.9319 c 0.0000,-0.3432 -0.2782,-0.6215 -0.6215 -0.6215c -0.3432,-0.0000 -0.6215,0.2782 -0.6215 0.6215c -0.0000,0.3432 0.2782,0.6215 0.6215 0.6215c 0.3432,0.0000 0.6215,-0.2782 0.6215 -0.6215Z"/>
  </g>
  <g stroke-linejoin="miter" stroke-opacity="1.0" fill-opacity="1.0" stroke="rgb(102,102,102)" stroke-width="0.0" fill="rgb(255,0,0)" stroke-linecap="butt" stroke-miterlimit="10.0">
    <path d="M 115.5673,96.5565 c 0.0000,-0.3432 -0.2782,-0.6215 -0.6215 -0.6215c -0.3432,-0.0000 -0.6215,0.2782 -0.6215 0.6215c -0.0000,0.3432 0.2782,0.6215 0.6215 0.6215c 0.3432,0.0000 0.6215,-0.2782 0.6215 -0.6215Z"/>
  </g>
  <g stroke-linejoin="miter" stroke-opacity="1.0" fill-opacity="1.0" stroke="rgb(102,102,102)" stroke-width="0.0" fill="rgb(255,0,0)" stroke-linecap="butt" stroke-miterlimit="10.0">
    <path d="M 114.2450,97.1811 c 0.0000,-0.3432 -0.2782,-0.6215 -0.6215 -0.6215c -0.3432,-0.0000 -0.6215,0.2782 -0.6215 0.6215c -0.0000,0.3432 0.2782,0.6215 0.6215 0.6215c 0.3432,0.0000 0.6215,-0.2782 0.6215 -0.6215Z"/>
  </g>
  <g stroke-linejoin="miter" stroke-opacity="1.0" fill-opacity="1.0" stroke="rgb(102,102,102)" stroke-width="0.0" fill="rgb(255,0,0)" stroke-linecap="butt" stroke-miterlimit="10.0">
    <path d="M 112.9228,97.8057 c 0.0000,-0.3432 -0.2782,-0.6215 -0.6215 -0.6215c -0.3432,-0.0000 -0.6215,0.2782 -0.6215 0.6215c -0.0000,0.3432 0.2782,0.6215 0.6215 0.6215c 0.3432,0.0000 0.6215,-0.2782 0.6215 -0.6215Z"/>
  </g>
  <g stroke-linejoin="miter" stroke-opacity="1.0" fill-opacity="1.0" stroke="rgb(102,102,102)" stroke-width="0.0" fill="rgb(255,0,0)" stroke-linecap="butt" stroke-miterlimit="10.0">
    <path d="M 111.6005,99.6795 c 0.0000,-0.3432 -0.2782,-0.6215 -0.6215 -0.6215c -0.3432,-0.0000 -0.6215,0.2782 -0.6215 0.6215c -0.0000,0.3432 0.2782,0.6215 0.6215 0.6215c 0.3432,0.0000 0.6215,-0.2782 0.6215 -0.6215Z"/>
  </g>
  <g stroke-linejoin="miter" stroke-opacity="1.0" fill-opacity="1.0" stroke="rgb(102,102,102)" stroke-width="0.0" fill="rgb(255,0,0)" stroke-linecap="butt" stroke-miterlimit="10.0">
    <path d="M 110.2782,100.3041 c 0.0000,-0.3432 -0.2782,-0.6215 -0.6215 -0.6215c -0.3432,-0.0000 -0.6215,0.2782 -0.6215 0.6215c -0.0000,0.3432 0.2782,0.6215 0.6215 0.6215c 0.3432,0.0000 0.6215,-0.2782 0.6215 -0.6215Z"/>
  </g>
  <g stroke-linejoin="miter" stroke-opacity="1.0" fill-opacity="1.0" stroke="rgb(102,102,102)" stroke-width="0.0" fill="rgb(255,0,0)" stroke-linecap="butt" stroke-miterlimit="10.0">
    <path d="M 108.9559,100.9287 c 0.0000,-0.3432 -0.2782,-0.6215 -0.6215 -0.6215c -0.3432,-0.0000 -0.6215,0.2782 -0.6215 0.6215c -0.0000,0.3432 0.2782,0.6215 0.6215 0.6215c 0.3432,0.0000 0.6215,-0.2782 0.6215 -0.6215Z"/>
  </g>
  <g stroke-linejoin="miter" stroke-opacity="1.0" fill-opacity="1.0" stroke="rgb(102,102,102)" stroke-width="0.0" fill="rgb(255,0,0)" stroke-linecap="butt" stroke-miterlimit="10.0">
    <path d="M 107.6336,101.5533 c 0.0000,-0.3432 -0.2782,-0.6215 -0.6215 -0.6215c -0.3432,-0.0000 -0.6215,0.2782 -0.6215 0.6215c -0.0000,0.3432 0.2782,0.6215 0.6215 0.6215c 0.3432,0.0000 0.6215,-0.2782 0.6215 -0.6215Z"/>
  </g>
  <g stroke-linejoin="miter" stroke-opacity="1.0" fill-opacity="1.0" stroke="rgb(102,102,102)" stroke-width="0.0" fill="rgb(255,0,0)" stroke-linecap="butt" stroke-miterlimit="10.0">
    <path d="M 106.3113,102.1779 c 0.0000,-0.3432 -0.2782,-0.6215 -0.6215 -0.6215c -0.3432,-0.0000 -0.6215,0.2782 -0.6215 0.6215c -0.0000,0.3432 0.2782,0.6215 0.6215 0.6215c 0.3432,0.0000 0.6215,-0.2782 0.6215 -0.6215Z"/>
  </g>
  <g stroke-linejoin="miter" stroke-opacity="1.0" fill-opacity="1.0" stroke="rgb(102,102,102)" stroke-width="0.0" fill="rgb(255,0,0)" stroke-linecap="butt" stroke-miterlimit="10.0">
    <path d="M 104.9890,104.0517 c 0.0000,-0.3432 -0.2782,-0.6215 -0.6215 -0.6215c -0.3432,-0.0000 -0.6215,0.2782 -0.6215 0.6215c -0.0000,0.3432 0.2782,0.6215 0.6215 0.6215c 0.3432,0.0000 0.6215,-0.2782 0.6215 -0.6215Z"/>
  </g>
  <g stroke-linejoin="miter" stroke-opacity="1.0" fill-opacity="1.0" stroke="rgb(102,102,102)" stroke-width="0.0" fill="rgb(255,0,0)" stroke-linecap="butt" stroke-miterlimit="10.0">
    <path d="M 103.6667,104.6763 c 0.0000,-0.3432 -0.2782,-0.6215 -0.6215 -0.6215c -0.3432,-0.0000 -0.6215,0.2782 -0.6215 0.6215c -0.0000,0.3432 0.2782,0.6215 0.6215 0.6215c 0.3432,0.0000 0.6215,-0.2782 0.6215 -0.6215Z"/>
  </g>
  <g stroke-linejoin="miter" stroke-opacity="1.0" fill-opacity="1.0" stroke="rgb(102,102,102)" stroke-width="0.0" fill="rgb(255,0,0)" stroke-linecap="butt" stroke-miterlimit="10.0">
    <path d="M 102.3444,105.3009 c 0.0000,-0.3432 -0.2782,-0.6215 -0.6215 -0.6215c -0.3432,-0.0000 -0.6215,0.2782 -0.6215 0.6215c -0.0000,0.3432 0.2782,0.6215 0.6215 0.6215c 0.3432,0.0000 0.6215,-0.2782 0.6215 -0.6215Z"/>
  </g>
  <g stroke-linejoin="miter" stroke-opacity="1.0" fill-opacity="1.0" stroke="rgb(102,102,102)" stroke-width="0.0" fill="rgb(255,0,0)" stroke-linecap="butt" stroke-miterlimit="10.0">
    <path d="M 101.0221,105.9255 c 0.0000,-0.3432 -0.2782,-0.6215 -0.6215 -0.6215c -0.3432,-0.0000 -0.6215,0.2782 -0.6215 0.6215c -0.0000,0.3432 0.2782,0.6215 0.6215 0.6215c 0.3432,0.0000 0.6215,-0.2782 0.6215 -0.6215Z"/>
  </g>
  <g stroke-linejoin="miter" stroke-opacity="1.0" fill-opacity="1.0" stroke="rgb(102,102,102)" stroke-width="0.0" fill="rgb(255,0,0)" stroke-linecap="butt" stroke-miterlimit="10.0">
    <path d="M 99.6998,106.5501 c 0.0000,-0.3432 -0.2782,-0.6215 -0.6215 -0.6215c -0.3432,-0.0000 -0.6215,0.2782 -0.6215 0.6215c -0.0000,0.3432 0.2782,0.6215 0.6215 0.6215c 0.3432,0.0000 0.6215,-0.2782 0.6215 -0.6215Z"/>
  </g>
  <g stroke-linejoin="miter" stroke-opacity="1.0" fill-opacity="1.0" stroke="rgb(102,102,102)" stroke-width="0.0" fill="rgb(255,0,0)" stroke-linecap="butt" stroke-miterlimit="10.0">
    <path d="M 98.3775,108.4239 c 0.0000,-0.3432 -0.2782,-0.6215 -0.6215 -0.6215c -0.3432,-0.0000 -0.6215,0.2782 -0.6215 0.6215c -0.0000,0.3432 0.2782,0.6215 0.6215 0.6215c 0.3432,0.0000 0.6215,-0.2782 0.6215 -0.6215Z"/>
  </g>
  <g stroke-linejoin="miter" stroke-opacity="1.0" fill-opacity="1.0" stroke="rgb(102,102,102)" stroke-width="0.0" fill="rgb(255,0,0)" stroke-linecap="butt" stroke-miterlimit="10.0">
    <path d="M 97.0553,109.0485 c 0.0000,-0.3432 -0.2782,-0.6215 -0.6215 -0.6215c -0.3432,-0.0000 -0.6215,0.2782 -0.6215 0.6215c -0.0000,0.3432 0.2782,0.6215 0.6215 0.6215c 0.3432,0.0000 0.6215,-0.2782 0.6215 -0.6215Z"/>
  </g>
  <g stroke-linejoin="miter" stroke-opacity="1.0" fill-opacity="1.0" stroke="rgb(102,102,102)" stroke-width="0.0" fill="rgb(255,0,0)" stroke-linecap="butt" stroke-miterlimit="10.0">
    <path d="M 95.7330,109.6731 c 0.0000,-0.3432 -0.2782,-0.6215 -0.6215 -0.6215c -0.3432,-0.0000 -0.6215,0.2782 -0.6215 0.6215c -0.0000,0.3432 0.2782,0.6215 0.6215 0.6215c 0.3432,0.0000 0.6215,-0.2782 0.6215 -0.6215Z"/>
  </g>
  <g stroke-linejoin="miter" stroke-opacity="1.0" fill-opacity="1.0" stroke="rgb(102,102,102)" stroke-width="0.0" fill="rgb(255,0,0)" stroke-linecap="butt" stroke-miterlimit="10.0">
    <path d="M 94.4107,110.2977 c 0.0000,-0.3432 -0.2782,-0.6215 -0.6215 -0.6215c -0.3432,-0.0000 -0.6215,0.2782 -0.6215 0.6215c -0.0000,0.3432 0.2782,0.6215 0.6215 0.6215c 0.3432,0.0000 0.6215,-0.2782 0.6215 -0.6215Z"/>
  </g>
  <g stroke-linejoin="miter" stroke-opacity="1.0" fill-opacity="1.0" stroke="rgb(102,102,102)" stroke-width="0.0" fill="rgb(255,0,0)" stroke-linecap="butt" stroke-miterlimit="10.0">
    <path d="M 93.0884,110.9223 c 0.0000,-0.3432 -0.2782,-0.6215 -0.6215 -0.6215c -0.3432,-0.0000 -0.6215,0.2782 -0.6215 0.6215c -0.0000,0.3432 0.2782,0.6215 0.6215 0.6215c 0.3432,0.0000 0.6215,-0.2782 0.6215 -0.6215Z"/>
  </g>
  <g stroke-linejoin="miter" stroke-opacity="1.0" fill-opacity="1.0" stroke="rgb(102,102,102)" stroke-width="0.0" fill="rgb(255,0,0)" stroke-linecap="butt" stroke-miterlimit="10.0">
    <path d="M 91.7661,112.7961 c 0.0000,-0.3432 -0.2782,-0.6215 -0.6215 -0.6215c -0.3432,-0.0000 -0.6215,0.2782 -0.6215 0.6215c -0.0000,0.3432 0.2782,0.6215 0.6215 0.6215c 0.3432,0.0000 0.6215,-0.2782 0.6215 -0.6215Z"/>
  </g>
  <g stroke-linejoin="miter" stroke-opacity="1.0" fill-opacity="1.0" stroke="rgb(102,102,102)" stroke-width="0.0" fill="rgb(255,0,0)" stroke-linecap="butt" stroke-miterlimit="10.0">
    <path d="M 90.4438,113.4207 c 0.0000,-0.3432 -0.2782,-0.6215 -0.6215 -0.6215c -0.3432,-0.0000 -0.6215,0.2782 -0.6215 0.6215c -0.0000,0.3432 0.2782,0.6215 0.6215 0.6215c 0.3432,0.0000 0.6215,-0.2782 0.6215 -0.6215Z"/>
  </g>
  <g stroke-linejoin="miter" stroke-opacity="1.0" fill-opacity="1.0" stroke="rgb(102,102,102)" stroke-width="0.0" fill="rgb(255,0,0)" stroke-linecap="butt" stroke-miterlimit="10.0">
    <path d="M 89.1215,114.0453 c 0.0000,-0.3432 -0.2782,-0.6215 -0.6215 -0.6215c -0.3432,-0.0000 -0.6215,0.2782 -0.6215 0.6215c -0.0000,0.3432 0.2782,0.6215 0.6215 0.6215c 0.3432,0.0000 0.6215,-0.2782 0.6215 -0.6215Z"/>
  </g>
  <g stroke-linejoin="miter" stroke-opacity="1.0" fill-opacity="1.0" stroke="rgb(102,102,102)" stroke-width="0.0" fill="rgb(255,0,0)" stroke-linecap="butt" stroke-miterlimit="10.0">
    <path d="M 87.7992,114.6699 c 0.0000,-0.3432 -0.2782,-0.6215 -0.6215 -0.6215c -0.3432,-0.0000 -0.6215,0.2782 -0.6215 0.6215c -0.0000,0.3432 0.2782,0.6215 0.6215 0.6215c 0.3432,0.0000 0.6215,-0.2782 0.6215 -0.6215Z"/>
  </g>
  <g stroke-linejoin="miter" stroke-opacity="1.0" fill-opacity="1.0" stroke="rgb(102,102,102)" stroke-width="0.0" fill="rgb(255,0,0)" stroke-linecap="butt" stroke-miterlimit="10.0">
    <path d="M 86.4769,115.2945 c 0.0000,-0.3432 -0.2782,-0.6215 -0.6215 -0.6215c -0.3432,-0.0000 -0.6215,0.2782 -0.6215 0.6215c -0.0000,0.3432 0.2782,0.6215 0.6215 0.6215c 0.3432,0.0000 0.6215,-0.2782 0.6215 -0.6215Z"/>
  </g>
  <g stroke-linejoin="miter" stroke-opacity="1.0" fill-opacity="1.0" stroke="rgb(102,102,102)" stroke-width="0.0" fill="rgb(255,0,0)" stroke-linecap="butt" stroke-miterlimit="10.0">
    <path d="M 85.1546,117.1683 c 0.0000,-0.3432 -0.2782,-0.6215 -0.6215 -0.6215c -0.3432,-0.0000 -0.6215,0.2782 -0.6215 0.6215c -0.0000,0.3432 0.2782,0.6215 0.6215 0.6215c 0.3432,0.0000 0.6215,-0.2782 0.6215 -0.6215Z"/>
  </g>
  <g stroke-linejoin="miter" stroke-opacity="1.0" fill-opacity="1.0" stroke="rgb(102,102,102)" stroke-width="0.0" fill="rgb(255,0,0)" stroke-linecap="butt" stroke-miterlimit="10.0">
    <path d="M 83.8323,117.7929 c 0.0000,-0.3432 -0.2782,-0.6215 -0.6215 -0.6215c -0.3432,-0.0000 -0.6215,0.2782 -0.6215 0.6215c -0.0000,0.3432 0.2782,0.6215 0.6215 0.6215c 0.3432,0.0000 0.6215,-0.2782 0.6215 -0.6215Z"/>
  </g>
  <g stroke-linejoin="miter" stroke-opacity="1.0" fill-opacity="1.0" stroke="rgb(102,102,102)" stroke-width="0.0" fill="rgb(255,0,0)" stroke-linecap="butt" stroke-miterlimit="10.0">
    <path d="M 82.5101,118.4175 c 0.0000,-0.3432 -0.2782,-0.6215 -0.6215 -0.6215c -0.3432,-0.0000 -0.6215,0.2782 -0.6215 0.6215c -0.0000,0.3432 0.2782,0.6215 0.6215 0.6215c 0.3432,0.0000 0.6215,-0.2782 0.6215 -0.6215Z"/>
  </g>
  <g stroke-linejoin="miter" stroke-opacity="1.0" fill-opacity="1.0" stroke="rgb(102,102,102)" stroke-width="0.0" fill="rgb(255,0,0)" stroke-linecap="butt" stroke-miterlimit="10.0">
    <path d="M 81.1878,119.0421 c 0.0000,-0.3432 -0.2782,-0.6215 -0.6215 -0.6215c -0.3432,-0.0000 -0.6215,0.2782 -0.6215 0.6215c -0.0000,0.3432 0.2782,0.6215 0.6215 0.6215c 0.3432,0.0000 0.6215,-0.2782 0.6215 -0.6215Z"/>
  </g>
  <g stroke-linejoin="miter" stroke-opacity="1.0" fill-opacity="1.0" stroke="rgb(102,102,102)" stroke-width="0.0" fill="rgb(255,0,0)" stroke-linecap="butt" stroke-miterlimit="10.0">
    <path d="M 79.8655,119.6667 c 0.0000,-0.3432 -0.2782,-0.6215 -0.6215 -0.6215c -0.3432,-0.0000 -0.6215,0.2782 -0.6215 0.6215c -0.0000,0.3432 0.2782,0.6215 0.6215 0.6215c 0.3432,0.0000 0.6215,-0.2782 0.6215 -0.6215Z"/>
  </g>
  <g stroke-linejoin="miter" stroke-opacity="1.0" fill-opacity="1.0" stroke="rgb(102,102,102)" stroke-width="0.0" fill="rgb(255,0,0)" stroke-linecap="butt" stroke-miterlimit="10.0">
    <path d="M 78.5432,121.5405 c 0.0000,-0.3432 -0.2782,-0.6215 -0.6215 -0.6215c -0.3432,-0.0000 -0.6215,0.2782 -0.6215 0.6215c -0.0000,0.3432 0.2782,0.6215 0.6215 0.6215c 0.3432,0.0000 0.6215,-0.2782 0.6215 -0.6215Z"/>
  </g>
  <g stroke-linejoin="miter" stroke-opacity="1.0" fill-opacity="1.0" stroke="rgb(102,102,102)" stroke-width="0.0" fill="rgb(255,0,0)" stroke-linecap="butt" stroke-miterlimit="10.0">
    <path d="M 77.2209,122.1651 c 0.0000,-0.3432 -0.2782,-0.6215 -0.6215 -0.6215c -0.3432,-0.0000 -0.6215,0.2782 -0.6215 0.6215c -0.0000,0.3432 0.2782,0.6215 0.6215 0.6215c 0.3432,0.0000 0.6215,-0.2782 0.6215 -0.6215Z"/>
  </g>
  <g stroke-linejoin="miter" stroke-opacity="1.0" fill-opacity="1.0" stroke="rgb(102,102,102)" stroke-width="0.0" fill="rgb(255,0,0)" stroke-linecap="butt" stroke-miterlimit="10.0">
    <path d="M 75.8986,122.7897 c 0.0000,-0.3432 -0.2782,-0.6215 -0.6215 -0.6215c -0.3432,-0.0000 -0.6215,0.2782 -0.6215 0.6215c -0.0000,0.3432 0.2782,0.6215 0.6215 0.6215c 0.3432,0.0000 0.6215,-0.2782 0.6215 -0.6215Z"/>
  </g>
  <g stroke-linejoin="miter" stroke-opacity="1.0" fill-opacity="1.0" stroke="rgb(102,102,102)" stroke-width="0.0" fill="rgb(255,0,0)" stroke-linecap="butt" stroke-miterlimit="10.0">
    <path d="M 74.5763,123.4143 c 0.0000,-0.3432 -0.2782,-0.6215 -0.6215 -0.6215c -0.3432,-0.0000 -0.6215,0.2782 -0.6215 0.6215c -0.0000,0.3432 0.2782,0.6215 0.6215 0.6215c 0.3432,0.0000 0.6215,-0.2782 0.6215 -0.6215Z"/>
  </g>
  <g stroke-linejoin="miter" stroke-opacity="1.0" fill-opacity="1.0" stroke="rgb(102,102,102)" stroke-width="0.0" fill="rgb(255,0,0)" stroke-linecap="butt" stroke-miterlimit="10.0">
    <path d="M 73.2540,124.0389 c 0.0000,-0.3432 -0.2782,-0.6215 -0.6215 -0.6215c -0.3432,-0.0000 -0.6215,0.2782 -0.6215 0.6215c -0.0000,0.3432 0.2782,0.6215 0.6215 0.6215c 0.3432,0.0000 0.6215,-0.2782 0.6215 -0.6215Z"/>
  </g>
  <g stroke-linejoin="miter" stroke-opacity="1.0" fill-opacity="1.0" stroke="rgb(102,102,102)" stroke-width="0.0" fill="rgb(255,0,0)" stroke-linecap="butt" stroke-miterlimit="10.0">
    <path d="M 71.9317,125.9127 c 0.0000,-0.3432 -0.2782,-0.6215 -0.6215 -0.6215c -0.3432,-0.0000 -0.6215,0.2782 -0.6215 0.6215c -0.0000,0.3432 0.2782,0.6215 0.6215 0.6215c 0.3432,0.0000 0.6215,-0.2782 0.6215 -0.6215Z"/>
  </g>
  <g stroke-linejoin="miter" stroke-opacity="1.0" fill-opacity="1.0" stroke="rgb(102,102,102)" stroke-width="0.0" fill="rgb(255,0,0)" stroke-linecap="butt" stroke-miterlimit="10.0">
    <path d="M 70.6094,126.5373 c 0.0000,-0.3432 -0.2782,-0.6215 -0.6215 -0.6215c -0.3432,-0.0000 -0.6215,0.2782 -0.6215 0.6215c -0.0000,0.3432 0.2782,0.6215 0.6215 0.6215c 0.3432,0.0000 0.6215,-0.2782 0.6215 -0.6215Z"/>
  </g>
  <g stroke-linejoin="miter" stroke-opacity="1.0" fill-opacity="1.0" stroke="rgb(102,102,102)" stroke-width="0.0" fill="rgb(255,0,0)" stroke-linecap="butt" stroke-miterlimit="10.0">
    <path d="M 69.2871,127.1619 c 0.0000,-0.3432 -0.2782,-0.6215 -0.6215 -0.6215c -0.3432,-0.0000 -0.6215,0.2782 -0.6215 0.6215c -0.0000,0.3432 0.2782,0.6215 0.6215 0.6215c 0.3432,0.0000 0.6215,-0.2782 0.6215 -0.6215Z"/>
  </g>
  <g stroke-linejoin="miter" stroke-opacity="1.0" fill-opacity="1.0" stroke="rgb(102,102,102)" stroke-width="0.0" fill="rgb(255,0,0)" stroke-linecap="butt" stroke-miterlimit="10.0">
    <path d="M 67.9649,127.7865 c 0.0000,-0.3432 -0.2782,-0.6215 -0.6215 -0.6215c -0.3432,-0.0000 -0.6215,0.2782 -0.6215 0.6215c -0.0000,0.3432 0.2782,0.6215 0.6215 0.6215c 0.3432,0.0000 0.6215,-0.2782 0.6215 -0.6215Z"/>
  </g>
  <g stroke-linejoin="miter" stroke-opacity="1.0" fill-opacity="1.0" stroke="rgb(102,102,102)" stroke-width="0.0" fill="rgb(255,0,0)" stroke-linecap="butt" stroke-miterlimit="10.0">
    <path d="M 66.6426,128.4111 c 0.0000,-0.3432 -0.2782,-0.6215 -0.6215 -0.6215c -0.3432,-0.0000 -0.6215,0.2782 -0.6215 0.6215c -0.0000,0.3432 0.2782,0.6215 0.6215 0.6215c 0.3432,0.0000 0.6215,-0.2782 0.6215 -0.6215Z"/>
  </g>
  <g stroke-linejoin="miter" stroke-opacity="1.0" fill-opacity="1.0" stroke="rgb(102,102,102)" stroke-width="0.0" fill="rgb(255,0,0)" stroke-linecap="butt" stroke-miterlimit="10.0">
    <path d="M 65.3203,130.2849 c 0.0000,-0.3432 -0.2782,-0.6215 -0.6215 -0.6215c -0.3432,-0.0000 -0.6215,0.2782 -0.6215 0.6215c -0.0000,0.3432 0.2782,0.6215 0.6215 0.6215c 0.3432,0.0000 0.6215,-0.2782 0.6215 -0.6215Z"/>
  </g>
  <g stroke-linejoin="miter" stroke-opacity="1.0" fill-opacity="1.0" stroke="rgb(102,102,102)" stroke-width="0.0" fill="rgb(255,0,0)" stroke-linecap="butt" stroke-miterlimit="10.0">
    <path d="M 63.9980,130.9095 c 0.0000,-0.3432 -0.2782,-0.6215 -0.6215 -0.6215c -0.3432,-0.0000 -0.6215,0.2782 -0.6215 0.6215c -0.0000,0.3432 0.2782,0.6215 0.6215 0.6215c 0.3432,0.0000 0.6215,-0.2782 0.6215 -0.6215Z"/>
  </g>
  <g stroke-linejoin="miter" stroke-opacity="1.0" fill-opacity="1.0" stroke="rgb(102,102,102)" stroke-width="0.0" fill="rgb(255,0,0)" stroke-linecap="butt" stroke-miterlimit="10.0">
    <path d="M 62.6757,131.5341 c 0.0000,-0.3432 -0.2782,-0.6215 -0.6215 -0.6215c -0.3432,-0.0000 -0.6215,0.2782 -0.6215 0.6215c -0.0000,0.3432 0.2782,0.6215 0.6215 0.6215c 0.3432,0.0000 0.6215,-0.2782 0.6215 -0.6215Z"/>
  </g>
  <g stroke-linejoin="miter" stroke-opacity="1.0" fill-opacity="1.0" stroke="rgb(102,102,102)" stroke-width="0.0" fill="rgb(255,0,0)" stroke-linecap="butt" stroke-miterlimit="10.0">
    <path d="M 61.3534,132.1587 c 0.0000,-0.3432 -0.2782,-0.6215 -0.6215 -0.6215c -0.3432,-0.0000 -0.6215,0.2782 -0.6215 0.6215c -0.0000,0.3432 0.2782,0.6215 0.6215 0.6215c 0.3432,0.0000 0.6215,-0.2782 0.6215 -0.6215Z"/>
  </g>
  <g stroke-linejoin="miter" stroke-opacity="1.0" fill-opacity="1.0" stroke="rgb(102,102,102)" stroke-width="0.0" fill="rgb(255,0,0)" stroke-linecap="butt" stroke-miterlimit="10.0">
    <path d="M 60.0311,132.7833 c 0.0000,-0.3432 -0.2782,-0.6215 -0.6215 -0.6215c -0.3432,-0.0000 -0.6215,0.2782 -0.6215 0.6215c -0.0000,0.3432 0.2782,0.6215 0.6215 0.6215c 0.3432,0.0000 0.6215,-0.2782 0.6215 -0.6215Z"/>
  </g>
  <g stroke-linejoin="miter" stroke-opacity="1.0" fill-opacity="1.0" stroke="rgb(102,102,102)" stroke-width="0.0" fill="rgb(255,0,0)" stroke-linecap="butt" stroke-miterlimit="10.0">
    <path d="M 58.7088,134.6571 c 0.0000,-0.3432 -0.2782,-0.6215 -0.6215 -0.6215c -0.3432,-0.0000 -0.6215,0.2782 -0.6215 0.6215c -0.0000,0.3432 0.2782,0.6215 0.6215 0.6215c 0.3432,0.0000 0.6215,-0.2782 0.6215 -0.6215Z"/>
  </g>
  <g stroke-linejoin="miter" stroke-opacity="1.0" fill-opacity="1.0" stroke="rgb(102,102,102)" stroke-width="0.0" fill="rgb(255,0,0)" stroke-linecap="butt" stroke-miterlimit="10.0">
    <path d="M 57.3865,135.2817 c 0.0000,-0.3432 -0.2782,-0.6215 -0.6215 -0.6215c -0.3432,-0.0000 -0.6215,0.2782 -0.6215 0.6215c -0.0000,0.3432 0.2782,0.6215 0.6215 0.6215c 0.3432,0.0000 0.6215,-0.2782 0.6215 -0.6215Z"/>
  </g>
  <g stroke-linejoin="miter" stroke-opacity="1.0" fill-opacity="1.0" stroke="rgb(102,102,102)" stroke-width="0.0" fill="rgb(255,0,0)" stroke-linecap="butt" stroke-miterlimit="10.0">
    <path d="M 56.0642,135.9063 c 0.0000,-0.3432 -0.2782,-0.6215 -0.6215 -0.6215c -0.3432,-0.0000 -0.6215,0.2782 -0.6215 0.6215c -0.0000,0.3432 0.2782,0.6215 0.6215 0.6215c 0.3432,0.0000 0.6215,-0.2782 0.6215 -0.6215Z"/>
  </g>
  <g stroke-linejoin="miter" stroke-opacity="1.0" fill-opacity="1.0" stroke="rgb(102,102,102)" stroke-width="0.0" fill="rgb(255,0,0)" stroke-linecap="butt" stroke-miterlimit="10.0">
    <path d="M 54.7419,136.5309 c 0.0000,-0.3432 -0.2782,-0.6215 -0.6215 -0.6215c -0.3432,-0.0000 -0.6215,0.2782 -0.6215 0.6215c -0.0000,0.3432 0.2782,0.6215 0.6215 0.6215c 0.3432,0.0000 0.6215,-0.2782 0.6215 -0.6215Z"/>
  </g>
  <g stroke-linejoin="miter" stroke-opacity="1.0" fill-opacity="1.0" stroke="rgb(102,102,102)" stroke-width="0.0" fill="rgb(255,0,0)" stroke-linecap="butt" stroke-miterlimit="10.0">
    <path d="M 53.4197,137.1555 c 0.0000,-0.3432 -0.2782,-0.6215 -0.6215 -0.6215c -0.3432,-0.0000 -0.6215,0.2782 -0.6215 0.6215c -0.0000,0.3432 0.2782,0.6215 0.6215 0.6215c 0.3432,0.0000 0.6215,-0.2782 0.6215 -0.6215Z"/>
  </g>
  <g stroke-linejoin="miter" stroke-opacity="1.0" fill-opacity="1.0" stroke="rgb(102,102,102)" stroke-width="0.0" fill="rgb(255,0,0)" stroke-linecap="butt" stroke-miterlimit="10.0">
    <path d="M 52.0974,139.0293 c 0.0000,-0.3432 -0.2782,-0.6215 -0.6215 -0.6215c -0.3432,-0.0000 -0.6215,0.2782 -0.6215 0.6215c -0.0000,0.3432 0.2782,0.6215 0.6215 0.6215c 0.3432,0.0000 0.6215,-0.2782 0.6215 -0.6215Z"/>
  </g>
  <g stroke-linejoin="miter" stroke-opacity="0.0" fill-opacity="0.1" stroke="rgb(0,0,0)" stroke-width="0.0" fill="rgb(0,0,0)" stroke-linecap="butt" stroke-miterlimit="10.0">
    <path d="M 46.5041,139.0293 l -0.0000,-124.2954 h -2.4859 l -0.0000,124.2954 Z"/>
  </g>
  <g stroke-linejoin="miter" stroke-opacity="0.0" fill-opacity="0.0" stroke="rgb(0,0,0)" fill-rule="evenodd" stroke-width="0.0" fill="rgb(0,0,0)" stroke-linecap="butt" stroke-miterlimit="10.0">
    <path d="M 40.9108,31.6427 l -0.0000,-8.5316 h -12.7975 l -0.0000,8.5316 Z"/>
  </g>
  <g stroke-linejoin="miter" stroke-opacity="1.0" fill-opacity="0.6" font-size="7.756030408563539px" stroke="rgb(0,0,0)" fill-rule="evenodd" stroke-width="0.0" fill="rgb(0,0,0)" stroke-linecap="butt" stroke-miterlimit="10.0">
    <text dominant-baseline="middle" transform="matrix(1.0000,-0.0000,0.0000,1.0000,34.5121,27.3769)" stroke="none" text-anchor="middle">180
    </text>
  </g>
  <g stroke-linejoin="miter" stroke-opacity="0.6" fill-opacity="0.0" stroke="rgb(0,0,0)" stroke-width="1.155617057282416" fill="rgb(0,0,0)" stroke-linecap="butt" stroke-miterlimit="10.0">
    <path d="M 42.7752,26.6013 h 3.7289 "/>
  </g>
  <g stroke-linejoin="miter" stroke-opacity="0.0" fill-opacity="0.0" stroke="rgb(0,0,0)" fill-rule="evenodd" stroke-width="0.0" fill="rgb(0,0,0)" stroke-linecap="butt" stroke-miterlimit="10.0">
    <path d="M 40.9108,44.1347 l -0.0000,-8.5316 h -12.7975 l -0.0000,8.5316 Z"/>
  </g>
  <g stroke-linejoin="miter" stroke-opacity="1.0" fill-opacity="0.6" font-size="7.756030408563539px" stroke="rgb(0,0,0)" fill-rule="evenodd" stroke-width="0.0" fill="rgb(0,0,0)" stroke-linecap="butt" stroke-miterlimit="10.0">
    <text dominant-baseline="middle" transform="matrix(1.0000,-0.0000,0.0000,1.0000,34.5121,39.8689)" stroke="none" text-anchor="middle">160
    </text>
  </g>
  <g stroke-linejoin="miter" stroke-opacity="0.6" fill-opacity="0.0" stroke="rgb(0,0,0)" stroke-width="1.155617057282416" fill="rgb(0,0,0)" stroke-linecap="butt" stroke-miterlimit="10.0">
    <path d="M 42.7752,39.0933 h 3.7289 "/>
  </g>
  <g stroke-linejoin="miter" stroke-opacity="0.0" fill-opacity="0.0" stroke="rgb(0,0,0)" fill-rule="evenodd" stroke-width="0.0" fill="rgb(0,0,0)" stroke-linecap="butt" stroke-miterlimit="10.0">
    <path d="M 40.9108,56.6267 l -0.0000,-8.5316 h -12.7975 l -0.0000,8.5316 Z"/>
  </g>
  <g stroke-linejoin="miter" stroke-opacity="1.0" fill-opacity="0.6" font-size="7.756030408563539px" stroke="rgb(0,0,0)" fill-rule="evenodd" stroke-width="0.0" fill="rgb(0,0,0)" stroke-linecap="butt" stroke-miterlimit="10.0">
    <text dominant-baseline="middle" transform="matrix(1.0000,-0.0000,0.0000,1.0000,34.5121,52.3609)" stroke="none" text-anchor="middle">140
    </text>
  </g>
  <g stroke-linejoin="miter" stroke-opacity="0.6" fill-opacity="0.0" stroke="rgb(0,0,0)" stroke-width="1.155617057282416" fill="rgb(0,0,0)" stroke-linecap="butt" stroke-miterlimit="10.0">
    <path d="M 42.7752,51.5853 h 3.7289 "/>
  </g>
  <g stroke-linejoin="miter" stroke-opacity="0.0" fill-opacity="0.0" stroke="rgb(0,0,0)" fill-rule="evenodd" stroke-width="0.0" fill="rgb(0,0,0)" stroke-linecap="butt" stroke-miterlimit="10.0">
    <path d="M 40.9108,69.1187 l -0.0000,-8.5316 h -12.7975 l -0.0000,8.5316 Z"/>
  </g>
  <g stroke-linejoin="miter" stroke-opacity="1.0" fill-opacity="0.6" font-size="7.756030408563539px" stroke="rgb(0,0,0)" fill-rule="evenodd" stroke-width="0.0" fill="rgb(0,0,0)" stroke-linecap="butt" stroke-miterlimit="10.0">
    <text dominant-baseline="middle" transform="matrix(1.0000,-0.0000,0.0000,1.0000,34.5121,64.8529)" stroke="none" text-anchor="middle">120
    </text>
  </g>
  <g stroke-linejoin="miter" stroke-opacity="0.6" fill-opacity="0.0" stroke="rgb(0,0,0)" stroke-width="1.155617057282416" fill="rgb(0,0,0)" stroke-linecap="butt" stroke-miterlimit="10.0">
    <path d="M 42.7752,64.0773 h 3.7289 "/>
  </g>
  <g stroke-linejoin="miter" stroke-opacity="0.0" fill-opacity="0.0" stroke="rgb(0,0,0)" fill-rule="evenodd" stroke-width="0.0" fill="rgb(0,0,0)" stroke-linecap="butt" stroke-miterlimit="10.0">
    <path d="M 40.9108,81.6107 l -0.0000,-8.5316 h -12.7975 l -0.0000,8.5316 Z"/>
  </g>
  <g stroke-linejoin="miter" stroke-opacity="1.0" fill-opacity="0.6" font-size="7.756030408563539px" stroke="rgb(0,0,0)" fill-rule="evenodd" stroke-width="0.0" fill="rgb(0,0,0)" stroke-linecap="butt" stroke-miterlimit="10.0">
    <text dominant-baseline="middle" transform="matrix(1.0000,-0.0000,0.0000,1.0000,34.5121,77.3449)" stroke="none" text-anchor="middle">100
    </text>
  </g>
  <g stroke-linejoin="miter" stroke-opacity="0.6" fill-opacity="0.0" stroke="rgb(0,0,0)" stroke-width="1.155617057282416" fill="rgb(0,0,0)" stroke-linecap="butt" stroke-miterlimit="10.0">
    <path d="M 42.7752,76.5693 h 3.7289 "/>
  </g>
  <g stroke-linejoin="miter" stroke-opacity="0.0" fill-opacity="0.0" stroke="rgb(0,0,0)" fill-rule="evenodd" stroke-width="0.0" fill="rgb(0,0,0)" stroke-linecap="butt" stroke-miterlimit="10.0">
    <path d="M 40.9108,94.1027 l -0.0000,-8.5316 h -8.5316 l -0.0000,8.5316 Z"/>
  </g>
  <g stroke-linejoin="miter" stroke-opacity="1.0" fill-opacity="0.6" font-size="7.756030408563539px" stroke="rgb(0,0,0)" fill-rule="evenodd" stroke-width="0.0" fill="rgb(0,0,0)" stroke-linecap="butt" stroke-miterlimit="10.0">
    <text dominant-baseline="middle" transform="matrix(1.0000,-0.0000,0.0000,1.0000,36.6450,89.8369)" stroke="none" text-anchor="middle">80
    </text>
  </g>
  <g stroke-linejoin="miter" stroke-opacity="0.6" fill-opacity="0.0" stroke="rgb(0,0,0)" stroke-width="1.155617057282416" fill="rgb(0,0,0)" stroke-linecap="butt" stroke-miterlimit="10.0">
    <path d="M 42.7752,89.0613 h 3.7289 "/>
  </g>
  <g stroke-linejoin="miter" stroke-opacity="0.0" fill-opacity="0.0" stroke="rgb(0,0,0)" fill-rule="evenodd" stroke-width="0.0" fill="rgb(0,0,0)" stroke-linecap="butt" stroke-miterlimit="10.0">
    <path d="M 40.9108,106.5947 l -0.0000,-8.5316 h -8.5316 l -0.0000,8.5316 Z"/>
  </g>
  <g stroke-linejoin="miter" stroke-opacity="1.0" fill-opacity="0.6" font-size="7.756030408563539px" stroke="rgb(0,0,0)" fill-rule="evenodd" stroke-width="0.0" fill="rgb(0,0,0)" stroke-linecap="butt" stroke-miterlimit="10.0">
    <text dominant-baseline="middle" transform="matrix(1.0000,-0.0000,0.0000,1.0000,36.6450,102.3289)" stroke="none" text-anchor="middle">60
    </text>
  </g>
  <g stroke-linejoin="miter" stroke-opacity="0.6" fill-opacity="0.0" stroke="rgb(0,0,0)" stroke-width="1.155617057282416" fill="rgb(0,0,0)" stroke-linecap="butt" stroke-miterlimit="10.0">
    <path d="M 42.7752,101.5533 h 3.7289 "/>
  </g>
  <g stroke-linejoin="miter" stroke-opacity="0.0" fill-opacity="0.0" stroke="rgb(0,0,0)" fill-rule="evenodd" stroke-width="0.0" fill="rgb(0,0,0)" stroke-linecap="butt" stroke-miterlimit="10.0">
    <path d="M 40.9108,119.0867 l -0.0000,-8.5316 h -8.5316 l -0.0000,8.5316 Z"/>
  </g>
  <g stroke-linejoin="miter" stroke-opacity="1.0" fill-opacity="0.6" font-size="7.756030408563539px" stroke="rgb(0,0,0)" fill-rule="evenodd" stroke-width="0.0" fill="rgb(0,0,0)" stroke-linecap="butt" stroke-miterlimit="10.0">
    <text dominant-baseline="middle" transform="matrix(1.0000,-0.0000,0.0000,1.0000,36.6450,114.8209)" stroke="none" text-anchor="middle">40
    </text>
  </g>
  <g stroke-linejoin="miter" stroke-opacity="0.6" fill-opacity="0.0" stroke="rgb(0,0,0)" stroke-width="1.155617057282416" fill="rgb(0,0,0)" stroke-linecap="butt" stroke-miterlimit="10.0">
    <path d="M 42.7752,114.0453 h 3.7289 "/>
  </g>
  <g stroke-linejoin="miter" stroke-opacity="0.0" fill-opacity="0.0" stroke="rgb(0,0,0)" fill-rule="evenodd" stroke-width="0.0" fill="rgb(0,0,0)" stroke-linecap="butt" stroke-miterlimit="10.0">
    <path d="M 40.9108,131.5787 l -0.0000,-8.5316 h -8.5316 l -0.0000,8.5316 Z"/>
  </g>
  <g stroke-linejoin="miter" stroke-opacity="1.0" fill-opacity="0.6" font-size="7.756030408563539px" stroke="rgb(0,0,0)" fill-rule="evenodd" stroke-width="0.0" fill="rgb(0,0,0)" stroke-linecap="butt" stroke-miterlimit="10.0">
    <text dominant-baseline="middle" transform="matrix(1.0000,-0.0000,0.0000,1.0000,36.6450,127.3129)" stroke="none" text-anchor="middle">20
    </text>
  </g>
  <g stroke-linejoin="miter" stroke-opacity="0.6" fill-opacity="0.0" stroke="rgb(0,0,0)" stroke-width="1.155617057282416" fill="rgb(0,0,0)" stroke-linecap="butt" stroke-miterlimit="10.0">
    <path d="M 42.7752,126.5373 h 3.7289 "/>
  </g>
  <g stroke-linejoin="miter" stroke-opacity="0.0" fill-opacity="0.0" stroke="rgb(0,0,0)" fill-rule="evenodd" stroke-width="0.0" fill="rgb(0,0,0)" stroke-linecap="butt" stroke-miterlimit="10.0">
    <path d="M 40.9108,144.0707 l -0.0000,-8.5316 h -4.2658 l -0.0000,8.5316 Z"/>
  </g>
  <g stroke-linejoin="miter" stroke-opacity="1.0" fill-opacity="0.6" font-size="7.756030408563539px" stroke="rgb(0,0,0)" fill-rule="evenodd" stroke-width="0.0" fill="rgb(0,0,0)" stroke-linecap="butt" stroke-miterlimit="10.0">
    <text dominant-baseline="middle" transform="matrix(1.0000,-0.0000,0.0000,1.0000,38.7779,139.8049)" stroke="none" text-anchor="middle">0
    </text>
  </g>
  <g stroke-linejoin="miter" stroke-opacity="0.6" fill-opacity="0.0" stroke="rgb(0,0,0)" stroke-width="1.155617057282416" fill="rgb(0,0,0)" stroke-linecap="butt" stroke-miterlimit="10.0">
    <path d="M 42.7752,139.0293 h 3.7289 "/>
  </g>
  <g stroke-linejoin="miter" stroke-opacity="0.0" fill-opacity="0.1" stroke="rgb(0,0,0)" stroke-width="0.0" fill="rgb(0,0,0)" stroke-linecap="butt" stroke-miterlimit="10.0">
    <path d="M 237.9189,146.4870 l -0.0000,-2.4859 h -186.4430 l -0.0000,2.4859 Z"/>
  </g>
  <g stroke-linejoin="miter" stroke-opacity="0.0" fill-opacity="0.0" stroke="rgb(0,0,0)" fill-rule="evenodd" stroke-width="0.0" fill="rgb(0,0,0)" stroke-linecap="butt" stroke-miterlimit="10.0">
    <path d="M 264.8898,188.8074 l 6.0328,-6.0328 l -33.1803,-33.1803 l -6.0328,6.0328 Z"/>
  </g>
  <g stroke-linejoin="miter" stroke-opacity="1.0" fill-opacity="0.6" font-size="7.756030408563539px" stroke="rgb(0,0,0)" fill-rule="evenodd" stroke-width="0.0" fill="rgb(0,0,0)" stroke-linecap="butt" stroke-miterlimit="10.0">
    <text dominant-baseline="middle" transform="matrix(0.7071,0.7071,-0.7071,0.7071,234.7259,152.6108)" stroke="none" text-anchor="start">28 Feb 2019
    </text>
  </g>
  <g stroke-linejoin="miter" stroke-opacity="0.6" fill-opacity="0.0" stroke="rgb(0,0,0)" stroke-width="1.155617057282416" fill="rgb(0,0,0)" stroke-linecap="butt" stroke-miterlimit="10.0">
    <path d="M 235.2743,144.0011 v 3.7289 "/>
  </g>
  <g stroke-linejoin="miter" stroke-opacity="0.0" fill-opacity="0.0" stroke="rgb(0,0,0)" fill-rule="evenodd" stroke-width="0.0" fill="rgb(0,0,0)" stroke-linecap="butt" stroke-miterlimit="10.0">
    <path d="M 238.4440,188.8074 l 6.0328,-6.0328 l -33.1803,-33.1803 l -6.0328,6.0328 Z"/>
  </g>
  <g stroke-linejoin="miter" stroke-opacity="1.0" fill-opacity="0.6" font-size="7.756030408563539px" stroke="rgb(0,0,0)" fill-rule="evenodd" stroke-width="0.0" fill="rgb(0,0,0)" stroke-linecap="butt" stroke-miterlimit="10.0">
    <text dominant-baseline="middle" transform="matrix(0.7071,0.7071,-0.7071,0.7071,208.2801,152.6108)" stroke="none" text-anchor="start">31 Jan 2019
    </text>
  </g>
  <g stroke-linejoin="miter" stroke-opacity="0.6" fill-opacity="0.0" stroke="rgb(0,0,0)" stroke-width="1.155617057282416" fill="rgb(0,0,0)" stroke-linecap="butt" stroke-miterlimit="10.0">
    <path d="M 208.8285,144.0011 v 3.7289 "/>
  </g>
  <g stroke-linejoin="miter" stroke-opacity="0.0" fill-opacity="0.0" stroke="rgb(0,0,0)" fill-rule="evenodd" stroke-width="0.0" fill="rgb(0,0,0)" stroke-linecap="butt" stroke-miterlimit="10.0">
    <path d="M 208.0313,188.8074 l 6.0328,-6.0328 l -33.1803,-33.1803 l -6.0328,6.0328 Z"/>
  </g>
  <g stroke-linejoin="miter" stroke-opacity="1.0" fill-opacity="0.6" font-size="7.756030408563539px" stroke="rgb(0,0,0)" fill-rule="evenodd" stroke-width="0.0" fill="rgb(0,0,0)" stroke-linecap="butt" stroke-miterlimit="10.0">
    <text dominant-baseline="middle" transform="matrix(0.7071,0.7071,-0.7071,0.7071,177.8674,152.6108)" stroke="none" text-anchor="start">31 Dec 2018
    </text>
  </g>
  <g stroke-linejoin="miter" stroke-opacity="0.6" fill-opacity="0.0" stroke="rgb(0,0,0)" stroke-width="1.155617057282416" fill="rgb(0,0,0)" stroke-linecap="butt" stroke-miterlimit="10.0">
    <path d="M 178.4158,144.0011 v 3.7289 "/>
  </g>
  <g stroke-linejoin="miter" stroke-opacity="0.0" fill-opacity="0.0" stroke="rgb(0,0,0)" fill-rule="evenodd" stroke-width="0.0" fill="rgb(0,0,0)" stroke-linecap="butt" stroke-miterlimit="10.0">
    <path d="M 180.2632,188.8074 l 6.0328,-6.0328 l -33.1803,-33.1803 l -6.0328,6.0328 Z"/>
  </g>
  <g stroke-linejoin="miter" stroke-opacity="1.0" fill-opacity="0.6" font-size="7.756030408563539px" stroke="rgb(0,0,0)" fill-rule="evenodd" stroke-width="0.0" fill="rgb(0,0,0)" stroke-linecap="butt" stroke-miterlimit="10.0">
    <text dominant-baseline="middle" transform="matrix(0.7071,0.7071,-0.7071,0.7071,150.0993,152.6108)" stroke="none" text-anchor="start">30 Nov 2018
    </text>
  </g>
  <g stroke-linejoin="miter" stroke-opacity="0.6" fill-opacity="0.0" stroke="rgb(0,0,0)" stroke-width="1.155617057282416" fill="rgb(0,0,0)" stroke-linecap="butt" stroke-miterlimit="10.0">
    <path d="M 150.6477,144.0011 v 3.7289 "/>
  </g>
  <g stroke-linejoin="miter" stroke-opacity="0.0" fill-opacity="0.0" stroke="rgb(0,0,0)" fill-rule="evenodd" stroke-width="0.0" fill="rgb(0,0,0)" stroke-linecap="butt" stroke-miterlimit="10.0">
    <path d="M 151.1728,188.8074 l 6.0328,-6.0328 l -33.1803,-33.1803 l -6.0328,6.0328 Z"/>
  </g>
  <g stroke-linejoin="miter" stroke-opacity="1.0" fill-opacity="0.6" font-size="7.756030408563539px" stroke="rgb(0,0,0)" fill-rule="evenodd" stroke-width="0.0" fill="rgb(0,0,0)" stroke-linecap="butt" stroke-miterlimit="10.0">
    <text dominant-baseline="middle" transform="matrix(0.7071,0.7071,-0.7071,0.7071,121.0089,152.6108)" stroke="none" text-anchor="start">31 Oct 2018
    </text>
  </g>
  <g stroke-linejoin="miter" stroke-opacity="0.6" fill-opacity="0.0" stroke="rgb(0,0,0)" stroke-width="1.155617057282416" fill="rgb(0,0,0)" stroke-linecap="butt" stroke-miterlimit="10.0">
    <path d="M 121.5573,144.0011 v 3.7289 "/>
  </g>
  <g stroke-linejoin="miter" stroke-opacity="0.0" fill-opacity="0.0" stroke="rgb(0,0,0)" fill-rule="evenodd" stroke-width="0.0" fill="rgb(0,0,0)" stroke-linecap="butt" stroke-miterlimit="10.0">
    <path d="M 120.7601,188.8074 l 6.0328,-6.0328 l -33.1803,-33.1803 l -6.0328,6.0328 Z"/>
  </g>
  <g stroke-linejoin="miter" stroke-opacity="1.0" fill-opacity="0.6" font-size="7.756030408563539px" stroke="rgb(0,0,0)" fill-rule="evenodd" stroke-width="0.0" fill="rgb(0,0,0)" stroke-linecap="butt" stroke-miterlimit="10.0">
    <text dominant-baseline="middle" transform="matrix(0.7071,0.7071,-0.7071,0.7071,90.5962,152.6108)" stroke="none" text-anchor="start">30 Sep 2018
    </text>
  </g>
  <g stroke-linejoin="miter" stroke-opacity="0.6" fill-opacity="0.0" stroke="rgb(0,0,0)" stroke-width="1.155617057282416" fill="rgb(0,0,0)" stroke-linecap="butt" stroke-miterlimit="10.0">
    <path d="M 91.1446,144.0011 v 3.7289 "/>
  </g>
  <g stroke-linejoin="miter" stroke-opacity="0.0" fill-opacity="0.0" stroke="rgb(0,0,0)" fill-rule="evenodd" stroke-width="0.0" fill="rgb(0,0,0)" stroke-linecap="butt" stroke-miterlimit="10.0">
    <path d="M 94.3142,188.8074 l 6.0328,-6.0328 l -33.1803,-33.1803 l -6.0328,6.0328 Z"/>
  </g>
  <g stroke-linejoin="miter" stroke-opacity="1.0" fill-opacity="0.6" font-size="7.756030408563539px" stroke="rgb(0,0,0)" fill-rule="evenodd" stroke-width="0.0" fill="rgb(0,0,0)" stroke-linecap="butt" stroke-miterlimit="10.0">
    <text dominant-baseline="middle" transform="matrix(0.7071,0.7071,-0.7071,0.7071,64.1504,152.6108)" stroke="none" text-anchor="start">31 Aug 2018
    </text>
  </g>
  <g stroke-linejoin="miter" stroke-opacity="0.6" fill-opacity="0.0" stroke="rgb(0,0,0)" stroke-width="1.155617057282416" fill="rgb(0,0,0)" stroke-linecap="butt" stroke-miterlimit="10.0">
    <path d="M 64.6988,144.0011 v 3.7289 "/>
  </g>
  <g stroke-linejoin="miter" stroke-opacity="0.0" fill-opacity="0.0" stroke="rgb(0,0,0)" stroke-width="0.0" fill="rgb(0,0,0)" stroke-linecap="butt" stroke-miterlimit="10.0">
    <path d="M 237.9189,139.0293 l -0.0000,-124.2954 h -186.4430 l -0.0000,124.2954 Z"/>
  </g>
</svg>