<?xml version="1.0" encoding="UTF-8"?>
<!DOCTYPE svg PUBLIC "-//W3C//DTD SVG 1.1//EN"
    "http://www.w3.org/Graphics/SVG/1.1/DTD/svg11.dtd">
<svg xmlns="http://www.w3.org/2000/svg" height="200.0000" stroke-opacity="1" viewBox="0 0 300 200" font-size="1" width="300.0000" xmlns:xlink="http://www.w3.org/1999/xlink" stroke="rgb(0,0,0)" version="1.1">
  <defs>
  </defs>
  <g stroke-linejoin="miter" stroke-opacity="0.0" fill-opacity="0.0" stroke="rgb(0,0,0)" fill-rule="evenodd" stroke-width="0.0" fill="rgb(0,0,0)" stroke-linecap="butt" stroke-miterlimit="10.0">
    <path d="M 254.8730,13.0608 l -0.0000,-8.9112 h -49.0117 l -0.0000,8.9112 Z"/>
  </g>
  <g stroke-linejoin="miter" stroke-opacity="1.0" fill-opacity="0.33" font-size="8.101102603612171px" stroke="rgb(0,0,0)" fill-rule="evenodd" stroke-width="0.0" fill="rgb(0,0,0)" stroke-linecap="butt" stroke-miterlimit="10.0">
    <text dominant-baseline="middle" transform="matrix(1.0000,-0.0000,0.0000,1.0000,230.3672,8.6052)" stroke="none" text-anchor="middle">Fri, 30 Nov
    </text>
  </g>
  <g stroke-linejoin="miter" stroke-opacity="1.0" fill-opacity="1.0" stroke="rgb(102,102,102)" stroke-width="0.0" fill="rgb(0,0,255)" stroke-linecap="butt" stroke-miterlimit="10.0">
    <path d="M 232.9637,24.7451 l -0.0000,-5.1930 h -5.1930 l -0.0000,5.1930 Z"/>
  </g>
  <g stroke-linejoin="miter" stroke-opacity="0.0" fill-opacity="0.0" stroke="rgb(0,0,0)" fill-rule="evenodd" stroke-width="0.0" fill="rgb(0,0,0)" stroke-linecap="butt" stroke-miterlimit="10.0">
    <path d="M 224.4884,32.6325 l -0.0000,-8.9112 h -49.0117 l -0.0000,8.9112 Z"/>
  </g>
  <g stroke-linejoin="miter" stroke-opacity="1.0" fill-opacity="0.33" font-size="8.101102603612171px" stroke="rgb(0,0,0)" fill-rule="evenodd" stroke-width="0.0" fill="rgb(0,0,0)" stroke-linecap="butt" stroke-miterlimit="10.0">
    <text dominant-baseline="middle" transform="matrix(1.0000,-0.0000,0.0000,1.0000,199.9825,28.1769)" stroke="none" text-anchor="middle">Wed, 31 Oct
    </text>
  </g>
  <g stroke-linejoin="miter" stroke-opacity="1.0" fill-opacity="1.0" stroke="rgb(102,102,102)" stroke-width="0.0" fill="rgb(0,0,255)" stroke-linecap="butt" stroke-miterlimit="10.0">
    <path d="M 202.5791,44.3168 l -0.0000,-5.1930 h -5.1930 l -0.0000,5.1930 Z"/>
  </g>
  <g stroke-linejoin="miter" stroke-opacity="0.0" fill-opacity="0.0" stroke="rgb(0,0,0)" fill-rule="evenodd" stroke-width="0.0" fill="rgb(0,0,0)" stroke-linecap="butt" stroke-miterlimit="10.0">
    <path d="M 192.7226,54.1613 l -0.0000,-8.9112 h -49.0117 l -0.0000,8.9112 Z"/>
  </g>
  <g stroke-linejoin="miter" stroke-opacity="1.0" fill-opacity="0.33" font-size="8.101102603612171px" stroke="rgb(0,0,0)" fill-rule="evenodd" stroke-width="0.0" fill="rgb(0,0,0)" stroke-linecap="butt" stroke-miterlimit="10.0">
    <text dominant-baseline="middle" transform="matrix(1.0000,-0.0000,0.0000,1.0000,168.2168,49.7057)" stroke="none" text-anchor="middle">Fri, 28 Sep
    </text>
  </g>
  <g stroke-linejoin="miter" stroke-opacity="1.0" fill-opacity="1.0" stroke="rgb(102,102,102)" stroke-width="0.0" fill="rgb(0,0,255)" stroke-linecap="butt" stroke-miterlimit="10.0">
    <path d="M 170.8133,65.8456 l -0.0000,-5.1930 h -5.1930 l -0.0000,5.1930 Z"/>
  </g>
  <g stroke-linejoin="miter" stroke-opacity="0.0" fill-opacity="0.0" stroke="rgb(0,0,0)" fill-rule="evenodd" stroke-width="0.0" fill="rgb(0,0,0)" stroke-linecap="butt" stroke-miterlimit="10.0">
    <path d="M 165.1002,72.4282 l -0.0000,-8.9112 h -49.0117 l -0.0000,8.9112 Z"/>
  </g>
  <g stroke-linejoin="miter" stroke-opacity="1.0" fill-opacity="0.33" font-size="8.101102603612171px" stroke="rgb(0,0,0)" fill-rule="evenodd" stroke-width="0.0" fill="rgb(0,0,0)" stroke-linecap="butt" stroke-miterlimit="10.0">
    <text dominant-baseline="middle" transform="matrix(1.0000,-0.0000,0.0000,1.0000,140.5943,67.9726)" stroke="none" text-anchor="middle">Fri, 31 Aug
    </text>
  </g>
  <g stroke-linejoin="miter" stroke-opacity="1.0" fill-opacity="1.0" stroke="rgb(102,102,102)" stroke-width="0.0" fill="rgb(0,0,255)" stroke-linecap="butt" stroke-miterlimit="10.0">
    <path d="M 143.1909,84.1125 l -0.0000,-5.1930 h -5.1930 l -0.0000,5.1930 Z"/>
  </g>
  <g stroke-linejoin="miter" stroke-opacity="0.0" fill-opacity="0.0" stroke="rgb(0,0,0)" fill-rule="evenodd" stroke-width="0.0" fill="rgb(0,0,0)" stroke-linecap="butt" stroke-miterlimit="10.0">
    <path d="M 133.3344,92.6523 l -0.0000,-8.9112 h -49.0117 l -0.0000,8.9112 Z"/>
  </g>
  <g stroke-linejoin="miter" stroke-opacity="1.0" fill-opacity="0.33" font-size="8.101102603612171px" stroke="rgb(0,0,0)" fill-rule="evenodd" stroke-width="0.0" fill="rgb(0,0,0)" stroke-linecap="butt" stroke-miterlimit="10.0">
    <text dominant-baseline="middle" transform="matrix(1.0000,-0.0000,0.0000,1.0000,108.8286,88.1966)" stroke="none" text-anchor="middle">Tue, 31 Jul
    </text>
  </g>
  <g stroke-linejoin="miter" stroke-opacity="1.0" fill-opacity="1.0" stroke="rgb(102,102,102)" stroke-width="0.0" fill="rgb(0,0,255)" stroke-linecap="butt" stroke-miterlimit="10.0">
    <path d="M 111.4251,104.3365 l -0.0000,-5.1930 h -5.1930 l -0.0000,5.1930 Z"/>
  </g>
  <g stroke-linejoin="miter" stroke-opacity="0.0" fill-opacity="0.0" stroke="rgb(0,0,0)" fill-rule="evenodd" stroke-width="0.0" fill="rgb(0,0,0)" stroke-linecap="butt" stroke-miterlimit="10.0">
    <path d="M 102.9497,113.5287 l -0.0000,-8.9112 h -49.0117 l -0.0000,8.9112 Z"/>
  </g>
  <g stroke-linejoin="miter" stroke-opacity="1.0" fill-opacity="0.33" font-size="8.101102603612171px" stroke="rgb(0,0,0)" fill-rule="evenodd" stroke-width="0.0" fill="rgb(0,0,0)" stroke-linecap="butt" stroke-miterlimit="10.0">
    <text dominant-baseline="middle" transform="matrix(1.0000,-0.0000,0.0000,1.0000,78.4439,109.0731)" stroke="none" text-anchor="middle">Fri, 29 Jun
    </text>
  </g>
  <g stroke-linejoin="miter" stroke-opacity="1.0" fill-opacity="1.0" stroke="rgb(102,102,102)" stroke-width="0.0" fill="rgb(0,0,255)" stroke-linecap="butt" stroke-miterlimit="10.0">
    <path d="M 81.0404,125.2130 l -0.0000,-5.1930 h -5.1930 l -0.0000,5.1930 Z"/>
  </g>
  <g stroke-linejoin="miter" stroke-opacity="1.0" fill-opacity="1.0" stroke="rgb(102,102,102)" stroke-width="0.0" fill="rgb(255,0,0)" stroke-linecap="butt" stroke-miterlimit="10.0">
    <path d="M 253.1143,6.4913 c 0.0000,-0.3585 -0.2906,-0.6491 -0.6491 -0.6491c -0.3585,-0.0000 -0.6491,0.2906 -0.6491 0.6491c -0.0000,0.3585 0.2906,0.6491 0.6491 0.6491c 0.3585,0.0000 0.6491,-0.2906 0.6491 -0.6491Z"/>
  </g>
  <g stroke-linejoin="miter" stroke-opacity="1.0" fill-opacity="1.0" stroke="rgb(102,102,102)" stroke-width="0.0" fill="rgb(255,0,0)" stroke-linecap="butt" stroke-miterlimit="10.0">
    <path d="M 251.7331,8.4484 c 0.0000,-0.3585 -0.2906,-0.6491 -0.6491 -0.6491c -0.3585,-0.0000 -0.6491,0.2906 -0.6491 0.6491c -0.0000,0.3585 0.2906,0.6491 0.6491 0.6491c 0.3585,0.0000 0.6491,-0.2906 0.6491 -0.6491Z"/>
  </g>
  <g stroke-linejoin="miter" stroke-opacity="1.0" fill-opacity="1.0" stroke="rgb(102,102,102)" stroke-width="0.0" fill="rgb(255,0,0)" stroke-linecap="butt" stroke-miterlimit="10.0">
    <path d="M 250.3520,9.1008 c 0.0000,-0.3585 -0.2906,-0.6491 -0.6491 -0.6491c -0.3585,-0.0000 -0.6491,0.2906 -0.6491 0.6491c -0.0000,0.3585 0.2906,0.6491 0.6491 0.6491c 0.3585,0.0000 0.6491,-0.2906 0.6491 -0.6491Z"/>
  </g>
  <g stroke-linejoin="miter" stroke-opacity="1.0" fill-opacity="1.0" stroke="rgb(102,102,102)" stroke-width="0.0" fill="rgb(255,0,0)" stroke-linecap="butt" stroke-miterlimit="10.0">
    <path d="M 248.9709,9.7532 c 0.0000,-0.3585 -0.2906,-0.6491 -0.6491 -0.6491c -0.3585,-0.0000 -0.6491,0.2906 -0.6491 0.6491c -0.0000,0.3585 0.2906,0.6491 0.6491 0.6491c 0.3585,0.0000 0.6491,-0.2906 0.6491 -0.6491Z"/>
  </g>
  <g stroke-linejoin="miter" stroke-opacity="1.0" fill-opacity="1.0" stroke="rgb(102,102,102)" stroke-width="0.0" fill="rgb(255,0,0)" stroke-linecap="butt" stroke-miterlimit="10.0">
    <path d="M 247.5898,10.4056 c 0.0000,-0.3585 -0.2906,-0.6491 -0.6491 -0.6491c -0.3585,-0.0000 -0.6491,0.2906 -0.6491 0.6491c -0.0000,0.3585 0.2906,0.6491 0.6491 0.6491c 0.3585,0.0000 0.6491,-0.2906 0.6491 -0.6491Z"/>
  </g>
  <g stroke-linejoin="miter" stroke-opacity="1.0" fill-opacity="1.0" stroke="rgb(102,102,102)" stroke-width="0.0" fill="rgb(255,0,0)" stroke-linecap="butt" stroke-miterlimit="10.0">
    <path d="M 246.2087,11.0580 c 0.0000,-0.3585 -0.2906,-0.6491 -0.6491 -0.6491c -0.3585,-0.0000 -0.6491,0.2906 -0.6491 0.6491c -0.0000,0.3585 0.2906,0.6491 0.6491 0.6491c 0.3585,0.0000 0.6491,-0.2906 0.6491 -0.6491Z"/>
  </g>
  <g stroke-linejoin="miter" stroke-opacity="1.0" fill-opacity="1.0" stroke="rgb(102,102,102)" stroke-width="0.0" fill="rgb(255,0,0)" stroke-linecap="butt" stroke-miterlimit="10.0">
    <path d="M 244.8275,13.0152 c 0.0000,-0.3585 -0.2906,-0.6491 -0.6491 -0.6491c -0.3585,-0.0000 -0.6491,0.2906 -0.6491 0.6491c -0.0000,0.3585 0.2906,0.6491 0.6491 0.6491c 0.3585,0.0000 0.6491,-0.2906 0.6491 -0.6491Z"/>
  </g>
  <g stroke-linejoin="miter" stroke-opacity="1.0" fill-opacity="1.0" stroke="rgb(102,102,102)" stroke-width="0.0" fill="rgb(255,0,0)" stroke-linecap="butt" stroke-miterlimit="10.0">
    <path d="M 243.4464,13.6675 c 0.0000,-0.3585 -0.2906,-0.6491 -0.6491 -0.6491c -0.3585,-0.0000 -0.6491,0.2906 -0.6491 0.6491c -0.0000,0.3585 0.2906,0.6491 0.6491 0.6491c 0.3585,0.0000 0.6491,-0.2906 0.6491 -0.6491Z"/>
  </g>
  <g stroke-linejoin="miter" stroke-opacity="1.0" fill-opacity="1.0" stroke="rgb(102,102,102)" stroke-width="0.0" fill="rgb(255,0,0)" stroke-linecap="butt" stroke-miterlimit="10.0">
    <path d="M 242.0653,14.3199 c 0.0000,-0.3585 -0.2906,-0.6491 -0.6491 -0.6491c -0.3585,-0.0000 -0.6491,0.2906 -0.6491 0.6491c -0.0000,0.3585 0.2906,0.6491 0.6491 0.6491c 0.3585,0.0000 0.6491,-0.2906 0.6491 -0.6491Z"/>
  </g>
  <g stroke-linejoin="miter" stroke-opacity="1.0" fill-opacity="1.0" stroke="rgb(102,102,102)" stroke-width="0.0" fill="rgb(255,0,0)" stroke-linecap="butt" stroke-miterlimit="10.0">
    <path d="M 240.6842,14.9723 c 0.0000,-0.3585 -0.2906,-0.6491 -0.6491 -0.6491c -0.3585,-0.0000 -0.6491,0.2906 -0.6491 0.6491c -0.0000,0.3585 0.2906,0.6491 0.6491 0.6491c 0.3585,0.0000 0.6491,-0.2906 0.6491 -0.6491Z"/>
  </g>
  <g stroke-linejoin="miter" stroke-opacity="1.0" fill-opacity="1.0" stroke="rgb(102,102,102)" stroke-width="0.0" fill="rgb(255,0,0)" stroke-linecap="butt" stroke-miterlimit="10.0">
    <path d="M 239.3031,15.6247 c 0.0000,-0.3585 -0.2906,-0.6491 -0.6491 -0.6491c -0.3585,-0.0000 -0.6491,0.2906 -0.6491 0.6491c -0.0000,0.3585 0.2906,0.6491 0.6491 0.6491c 0.3585,0.0000 0.6491,-0.2906 0.6491 -0.6491Z"/>
  </g>
  <g stroke-linejoin="miter" stroke-opacity="1.0" fill-opacity="1.0" stroke="rgb(102,102,102)" stroke-width="0.0" fill="rgb(255,0,0)" stroke-linecap="butt" stroke-miterlimit="10.0">
    <path d="M 237.9219,17.5819 c 0.0000,-0.3585 -0.2906,-0.6491 -0.6491 -0.6491c -0.3585,-0.0000 -0.6491,0.2906 -0.6491 0.6491c -0.0000,0.3585 0.2906,0.6491 0.6491 0.6491c 0.3585,0.0000 0.6491,-0.2906 0.6491 -0.6491Z"/>
  </g>
  <g stroke-linejoin="miter" stroke-opacity="1.0" fill-opacity="1.0" stroke="rgb(102,102,102)" stroke-width="0.0" fill="rgb(255,0,0)" stroke-linecap="butt" stroke-miterlimit="10.0">
    <path d="M 236.5408,18.2343 c 0.0000,-0.3585 -0.2906,-0.6491 -0.6491 -0.6491c -0.3585,-0.0000 -0.6491,0.2906 -0.6491 0.6491c -0.0000,0.3585 0.2906,0.6491 0.6491 0.6491c 0.3585,0.0000 0.6491,-0.2906 0.6491 -0.6491Z"/>
  </g>
  <g stroke-linejoin="miter" stroke-opacity="1.0" fill-opacity="1.0" stroke="rgb(102,102,102)" stroke-width="0.0" fill="rgb(255,0,0)" stroke-linecap="butt" stroke-miterlimit="10.0">
    <path d="M 235.1597,18.8867 c 0.0000,-0.3585 -0.2906,-0.6491 -0.6491 -0.6491c -0.3585,-0.0000 -0.6491,0.2906 -0.6491 0.6491c -0.0000,0.3585 0.2906,0.6491 0.6491 0.6491c 0.3585,0.0000 0.6491,-0.2906 0.6491 -0.6491Z"/>
  </g>
  <g stroke-linejoin="miter" stroke-opacity="1.0" fill-opacity="1.0" stroke="rgb(102,102,102)" stroke-width="0.0" fill="rgb(255,0,0)" stroke-linecap="butt" stroke-miterlimit="10.0">
    <path d="M 233.7786,19.5390 c 0.0000,-0.3585 -0.2906,-0.6491 -0.6491 -0.6491c -0.3585,-0.0000 -0.6491,0.2906 -0.6491 0.6491c -0.0000,0.3585 0.2906,0.6491 0.6491 0.6491c 0.3585,0.0000 0.6491,-0.2906 0.6491 -0.6491Z"/>
  </g>
  <g stroke-linejoin="miter" stroke-opacity="1.0" fill-opacity="1.0" stroke="rgb(102,102,102)" stroke-width="0.0" fill="rgb(255,0,0)" stroke-linecap="butt" stroke-miterlimit="10.0">
    <path d="M 232.3975,20.1914 c 0.0000,-0.3585 -0.2906,-0.6491 -0.6491 -0.6491c -0.3585,-0.0000 -0.6491,0.2906 -0.6491 0.6491c -0.0000,0.3585 0.2906,0.6491 0.6491 0.6491c 0.3585,0.0000 0.6491,-0.2906 0.6491 -0.6491Z"/>
  </g>
  <g stroke-linejoin="miter" stroke-opacity="1.0" fill-opacity="1.0" stroke="rgb(102,102,102)" stroke-width="0.0" fill="rgb(255,0,0)" stroke-linecap="butt" stroke-miterlimit="10.0">
    <path d="M 231.0163,22.1486 c 0.0000,-0.3585 -0.2906,-0.6491 -0.6491 -0.6491c -0.3585,-0.0000 -0.6491,0.2906 -0.6491 0.6491c -0.0000,0.3585 0.2906,0.6491 0.6491 0.6491c 0.3585,0.0000 0.6491,-0.2906 0.6491 -0.6491Z"/>
  </g>
  <g stroke-linejoin="miter" stroke-opacity="1.0" fill-opacity="1.0" stroke="rgb(102,102,102)" stroke-width="0.0" fill="rgb(255,0,0)" stroke-linecap="butt" stroke-miterlimit="10.0">
    <path d="M 229.6352,22.8010 c 0.0000,-0.3585 -0.2906,-0.6491 -0.6491 -0.6491c -0.3585,-0.0000 -0.6491,0.2906 -0.6491 0.6491c -0.0000,0.3585 0.2906,0.6491 0.6491 0.6491c 0.3585,0.0000 0.6491,-0.2906 0.6491 -0.6491Z"/>
  </g>
  <g stroke-linejoin="miter" stroke-opacity="1.0" fill-opacity="1.0" stroke="rgb(102,102,102)" stroke-width="0.0" fill="rgb(255,0,0)" stroke-linecap="butt" stroke-miterlimit="10.0">
    <path d="M 228.2541,23.4534 c 0.0000,-0.3585 -0.2906,-0.6491 -0.6491 -0.6491c -0.3585,-0.0000 -0.6491,0.2906 -0.6491 0.6491c -0.0000,0.3585 0.2906,0.6491 0.6491 0.6491c 0.3585,0.0000 0.6491,-0.2906 0.6491 -0.6491Z"/>
  </g>
  <g stroke-linejoin="miter" stroke-opacity="1.0" fill-opacity="1.0" stroke="rgb(102,102,102)" stroke-width="0.0" fill="rgb(255,0,0)" stroke-linecap="butt" stroke-miterlimit="10.0">
    <path d="M 226.8730,24.1058 c 0.0000,-0.3585 -0.2906,-0.6491 -0.6491 -0.6491c -0.3585,-0.0000 -0.6491,0.2906 -0.6491 0.6491c -0.0000,0.3585 0.2906,0.6491 0.6491 0.6491c 0.3585,0.0000 0.6491,-0.2906 0.6491 -0.6491Z"/>
  </g>
  <g stroke-linejoin="miter" stroke-opacity="1.0" fill-opacity="1.0" stroke="rgb(102,102,102)" stroke-width="0.0" fill="rgb(255,0,0)" stroke-linecap="butt" stroke-miterlimit="10.0">
    <path d="M 225.4918,24.7582 c 0.0000,-0.3585 -0.2906,-0.6491 -0.6491 -0.6491c -0.3585,-0.0000 -0.6491,0.2906 -0.6491 0.6491c -0.0000,0.3585 0.2906,0.6491 0.6491 0.6491c 0.3585,0.0000 0.6491,-0.2906 0.6491 -0.6491Z"/>
  </g>
  <g stroke-linejoin="miter" stroke-opacity="1.0" fill-opacity="1.0" stroke="rgb(102,102,102)" stroke-width="0.0" fill="rgb(255,0,0)" stroke-linecap="butt" stroke-miterlimit="10.0">
    <path d="M 224.1107,26.7153 c 0.0000,-0.3585 -0.2906,-0.6491 -0.6491 -0.6491c -0.3585,-0.0000 -0.6491,0.2906 -0.6491 0.6491c -0.0000,0.3585 0.2906,0.6491 0.6491 0.6491c 0.3585,0.0000 0.6491,-0.2906 0.6491 -0.6491Z"/>
  </g>
  <g stroke-linejoin="miter" stroke-opacity="1.0" fill-opacity="1.0" stroke="rgb(102,102,102)" stroke-width="0.0" fill="rgb(255,0,0)" stroke-linecap="butt" stroke-miterlimit="10.0">
    <path d="M 222.7296,27.3677 c 0.0000,-0.3585 -0.2906,-0.6491 -0.6491 -0.6491c -0.3585,-0.0000 -0.6491,0.2906 -0.6491 0.6491c -0.0000,0.3585 0.2906,0.6491 0.6491 0.6491c 0.3585,0.0000 0.6491,-0.2906 0.6491 -0.6491Z"/>
  </g>
  <g stroke-linejoin="miter" stroke-opacity="1.0" fill-opacity="1.0" stroke="rgb(102,102,102)" stroke-width="0.0" fill="rgb(255,0,0)" stroke-linecap="butt" stroke-miterlimit="10.0">
    <path d="M 221.3485,28.0201 c 0.0000,-0.3585 -0.2906,-0.6491 -0.6491 -0.6491c -0.3585,-0.0000 -0.6491,0.2906 -0.6491 0.6491c -0.0000,0.3585 0.2906,0.6491 0.6491 0.6491c 0.3585,0.0000 0.6491,-0.2906 0.6491 -0.6491Z"/>
  </g>
  <g stroke-linejoin="miter" stroke-opacity="1.0" fill-opacity="1.0" stroke="rgb(102,102,102)" stroke-width="0.0" fill="rgb(255,0,0)" stroke-linecap="butt" stroke-miterlimit="10.0">
    <path d="M 219.9674,28.6725 c 0.0000,-0.3585 -0.2906,-0.6491 -0.6491 -0.6491c -0.3585,-0.0000 -0.6491,0.2906 -0.6491 0.6491c -0.0000,0.3585 0.2906,0.6491 0.6491 0.6491c 0.3585,0.0000 0.6491,-0.2906 0.6491 -0.6491Z"/>
  </g>
  <g stroke-linejoin="miter" stroke-opacity="1.0" fill-opacity="1.0" stroke="rgb(102,102,102)" stroke-width="0.0" fill="rgb(255,0,0)" stroke-linecap="butt" stroke-miterlimit="10.0">
    <path d="M 218.5862,29.3249 c 0.0000,-0.3585 -0.2906,-0.6491 -0.6491 -0.6491c -0.3585,-0.0000 -0.6491,0.2906 -0.6491 0.6491c -0.0000,0.3585 0.2906,0.6491 0.6491 0.6491c 0.3585,0.0000 0.6491,-0.2906 0.6491 -0.6491Z"/>
  </g>
  <g stroke-linejoin="miter" stroke-opacity="1.0" fill-opacity="1.0" stroke="rgb(102,102,102)" stroke-width="0.0" fill="rgb(255,0,0)" stroke-linecap="butt" stroke-miterlimit="10.0">
    <path d="M 217.2051,31.2820 c 0.0000,-0.3585 -0.2906,-0.6491 -0.6491 -0.6491c -0.3585,-0.0000 -0.6491,0.2906 -0.6491 0.6491c -0.0000,0.3585 0.2906,0.6491 0.6491 0.6491c 0.3585,0.0000 0.6491,-0.2906 0.6491 -0.6491Z"/>
  </g>
  <g stroke-linejoin="miter" stroke-opacity="1.0" fill-opacity="1.0" stroke="rgb(102,102,102)" stroke-width="0.0" fill="rgb(255,0,0)" stroke-linecap="butt" stroke-miterlimit="10.0">
    <path d="M 215.8240,31.9344 c 0.0000,-0.3585 -0.2906,-0.6491 -0.6491 -0.6491c -0.3585,-0.0000 -0.6491,0.2906 -0.6491 0.6491c -0.0000,0.3585 0.2906,0.6491 0.6491 0.6491c 0.3585,0.0000 0.6491,-0.2906 0.6491 -0.6491Z"/>
  </g>
  <g stroke-linejoin="miter" stroke-opacity="1.0" fill-opacity="1.0" stroke="rgb(102,102,102)" stroke-width="0.0" fill="rgb(255,0,0)" stroke-linecap="butt" stroke-miterlimit="10.0">
    <path d="M 214.4429,32.5868 c 0.0000,-0.3585 -0.2906,-0.6491 -0.6491 -0.6491c -0.3585,-0.0000 -0.6491,0.2906 -0.6491 0.6491c -0.0000,0.3585 0.2906,0.6491 0.6491 0.6491c 0.3585,0.0000 0.6491,-0.2906 0.6491 -0.6491Z"/>
  </g>
  <g stroke-linejoin="miter" stroke-opacity="1.0" fill-opacity="1.0" stroke="rgb(102,102,102)" stroke-width="0.0" fill="rgb(255,0,0)" stroke-linecap="butt" stroke-miterlimit="10.0">
    <path d="M 213.0618,33.2392 c 0.0000,-0.3585 -0.2906,-0.6491 -0.6491 -0.6491c -0.3585,-0.0000 -0.6491,0.2906 -0.6491 0.6491c -0.0000,0.3585 0.2906,0.6491 0.6491 0.6491c 0.3585,0.0000 0.6491,-0.2906 0.6491 -0.6491Z"/>
  </g>
  <g stroke-linejoin="miter" stroke-opacity="1.0" fill-opacity="1.0" stroke="rgb(102,102,102)" stroke-width="0.0" fill="rgb(255,0,0)" stroke-linecap="butt" stroke-miterlimit="10.0">
    <path d="M 211.6806,33.8916 c 0.0000,-0.3585 -0.2906,-0.6491 -0.6491 -0.6491c -0.3585,-0.0000 -0.6491,0.2906 -0.6491 0.6491c -0.0000,0.3585 0.2906,0.6491 0.6491 0.6491c 0.3585,0.0000 0.6491,-0.2906 0.6491 -0.6491Z"/>
  </g>
  <g stroke-linejoin="miter" stroke-opacity="1.0" fill-opacity="1.0" stroke="rgb(102,102,102)" stroke-width="0.0" fill="rgb(255,0,0)" stroke-linecap="butt" stroke-miterlimit="10.0">
    <path d="M 210.2995,35.8488 c 0.0000,-0.3585 -0.2906,-0.6491 -0.6491 -0.6491c -0.3585,-0.0000 -0.6491,0.2906 -0.6491 0.6491c -0.0000,0.3585 0.2906,0.6491 0.6491 0.6491c 0.3585,0.0000 0.6491,-0.2906 0.6491 -0.6491Z"/>
  </g>
  <g stroke-linejoin="miter" stroke-opacity="1.0" fill-opacity="1.0" stroke="rgb(102,102,102)" stroke-width="0.0" fill="rgb(255,0,0)" stroke-linecap="butt" stroke-miterlimit="10.0">
    <path d="M 208.9184,36.5012 c 0.0000,-0.3585 -0.2906,-0.6491 -0.6491 -0.6491c -0.3585,-0.0000 -0.6491,0.2906 -0.6491 0.6491c -0.0000,0.3585 0.2906,0.6491 0.6491 0.6491c 0.3585,0.0000 0.6491,-0.2906 0.6491 -0.6491Z"/>
  </g>
  <g stroke-linejoin="miter" stroke-opacity="1.0" fill-opacity="1.0" stroke="rgb(102,102,102)" stroke-width="0.0" fill="rgb(255,0,0)" stroke-linecap="butt" stroke-miterlimit="10.0">
    <path d="M 207.5373,37.1535 c 0.0000,-0.3585 -0.2906,-0.6491 -0.6491 -0.6491c -0.3585,-0.0000 -0.6491,0.2906 -0.6491 0.6491c -0.0000,0.3585 0.2906,0.6491 0.6491 0.6491c 0.3585,0.0000 0.6491,-0.2906 0.6491 -0.6491Z"/>
  </g>
  <g stroke-linejoin="miter" stroke-opacity="1.0" fill-opacity="1.0" stroke="rgb(102,102,102)" stroke-width="0.0" fill="rgb(255,0,0)" stroke-linecap="butt" stroke-miterlimit="10.0">
    <path d="M 206.1562,37.8059 c 0.0000,-0.3585 -0.2906,-0.6491 -0.6491 -0.6491c -0.3585,-0.0000 -0.6491,0.2906 -0.6491 0.6491c -0.0000,0.3585 0.2906,0.6491 0.6491 0.6491c 0.3585,0.0000 0.6491,-0.2906 0.6491 -0.6491Z"/>
  </g>
  <g stroke-linejoin="miter" stroke-opacity="1.0" fill-opacity="1.0" stroke="rgb(102,102,102)" stroke-width="0.0" fill="rgb(255,0,0)" stroke-linecap="butt" stroke-miterlimit="10.0">
    <path d="M 204.7750,38.4583 c 0.0000,-0.3585 -0.2906,-0.6491 -0.6491 -0.6491c -0.3585,-0.0000 -0.6491,0.2906 -0.6491 0.6491c -0.0000,0.3585 0.2906,0.6491 0.6491 0.6491c 0.3585,0.0000 0.6491,-0.2906 0.6491 -0.6491Z"/>
  </g>
  <g stroke-linejoin="miter" stroke-opacity="1.0" fill-opacity="1.0" stroke="rgb(102,102,102)" stroke-width="0.0" fill="rgb(255,0,0)" stroke-linecap="butt" stroke-miterlimit="10.0">
    <path d="M 203.3939,40.4155 c 0.0000,-0.3585 -0.2906,-0.6491 -0.6491 -0.6491c -0.3585,-0.0000 -0.6491,0.2906 -0.6491 0.6491c -0.0000,0.3585 0.2906,0.6491 0.6491 0.6491c 0.3585,0.0000 0.6491,-0.2906 0.6491 -0.6491Z"/>
  </g>
  <g stroke-linejoin="miter" stroke-opacity="1.0" fill-opacity="1.0" stroke="rgb(102,102,102)" stroke-width="0.0" fill="rgb(255,0,0)" stroke-linecap="butt" stroke-miterlimit="10.0">
    <path d="M 202.0128,41.0679 c 0.0000,-0.3585 -0.2906,-0.6491 -0.6491 -0.6491c -0.3585,-0.0000 -0.6491,0.2906 -0.6491 0.6491c -0.0000,0.3585 0.2906,0.6491 0.6491 0.6491c 0.3585,0.0000 0.6491,-0.2906 0.6491 -0.6491Z"/>
  </g>
  <g stroke-linejoin="miter" stroke-opacity="1.0" fill-opacity="1.0" stroke="rgb(102,102,102)" stroke-width="0.0" fill="rgb(255,0,0)" stroke-linecap="butt" stroke-miterlimit="10.0">
    <path d="M 200.6317,41.7203 c 0.0000,-0.3585 -0.2906,-0.6491 -0.6491 -0.6491c -0.3585,-0.0000 -0.6491,0.2906 -0.6491 0.6491c -0.0000,0.3585 0.2906,0.6491 0.6491 0.6491c 0.3585,0.0000 0.6491,-0.2906 0.6491 -0.6491Z"/>
  </g>
  <g stroke-linejoin="miter" stroke-opacity="1.0" fill-opacity="1.0" stroke="rgb(102,102,102)" stroke-width="0.0" fill="rgb(255,0,0)" stroke-linecap="butt" stroke-miterlimit="10.0">
    <path d="M 199.2506,42.3726 c 0.0000,-0.3585 -0.2906,-0.6491 -0.6491 -0.6491c -0.3585,-0.0000 -0.6491,0.2906 -0.6491 0.6491c -0.0000,0.3585 0.2906,0.6491 0.6491 0.6491c 0.3585,0.0000 0.6491,-0.2906 0.6491 -0.6491Z"/>
  </g>
  <g stroke-linejoin="miter" stroke-opacity="1.0" fill-opacity="1.0" stroke="rgb(102,102,102)" stroke-width="0.0" fill="rgb(255,0,0)" stroke-linecap="butt" stroke-miterlimit="10.0">
    <path d="M 197.8694,43.0250 c 0.0000,-0.3585 -0.2906,-0.6491 -0.6491 -0.6491c -0.3585,-0.0000 -0.6491,0.2906 -0.6491 0.6491c -0.0000,0.3585 0.2906,0.6491 0.6491 0.6491c 0.3585,0.0000 0.6491,-0.2906 0.6491 -0.6491Z"/>
  </g>
  <g stroke-linejoin="miter" stroke-opacity="1.0" fill-opacity="1.0" stroke="rgb(102,102,102)" stroke-width="0.0" fill="rgb(255,0,0)" stroke-linecap="butt" stroke-miterlimit="10.0">
    <path d="M 196.4883,44.9822 c 0.0000,-0.3585 -0.2906,-0.6491 -0.6491 -0.6491c -0.3585,-0.0000 -0.6491,0.2906 -0.6491 0.6491c -0.0000,0.3585 0.2906,0.6491 0.6491 0.6491c 0.3585,0.0000 0.6491,-0.2906 0.6491 -0.6491Z"/>
  </g>
  <g stroke-linejoin="miter" stroke-opacity="1.0" fill-opacity="1.0" stroke="rgb(102,102,102)" stroke-width="0.0" fill="rgb(255,0,0)" stroke-linecap="butt" stroke-miterlimit="10.0">
    <path d="M 195.1072,45.6346 c 0.0000,-0.3585 -0.2906,-0.6491 -0.6491 -0.6491c -0.3585,-0.0000 -0.6491,0.2906 -0.6491 0.6491c -0.0000,0.3585 0.2906,0.6491 0.6491 0.6491c 0.3585,0.0000 0.6491,-0.2906 0.6491 -0.6491Z"/>
  </g>
  <g stroke-linejoin="miter" stroke-opacity="1.0" fill-opacity="1.0" stroke="rgb(102,102,102)" stroke-width="0.0" fill="rgb(255,0,0)" stroke-linecap="butt" stroke-miterlimit="10.0">
    <path d="M 193.7261,46.2870 c 0.0000,-0.3585 -0.2906,-0.6491 -0.6491 -0.6491c -0.3585,-0.0000 -0.6491,0.2906 -0.6491 0.6491c -0.0000,0.3585 0.2906,0.6491 0.6491 0.6491c 0.3585,0.0000 0.6491,-0.2906 0.6491 -0.6491Z"/>
  </g>
  <g stroke-linejoin="miter" stroke-opacity="1.0" fill-opacity="1.0" stroke="rgb(102,102,102)" stroke-width="0.0" fill="rgb(255,0,0)" stroke-linecap="butt" stroke-miterlimit="10.0">
    <path d="M 192.3449,46.9394 c 0.0000,-0.3585 -0.2906,-0.6491 -0.6491 -0.6491c -0.3585,-0.0000 -0.6491,0.2906 -0.6491 0.6491c -0.0000,0.3585 0.2906,0.6491 0.6491 0.6491c 0.3585,0.0000 0.6491,-0.2906 0.6491 -0.6491Z"/>
  </g>
  <g stroke-linejoin="miter" stroke-opacity="1.0" fill-opacity="1.0" stroke="rgb(102,102,102)" stroke-width="0.0" fill="rgb(255,0,0)" stroke-linecap="butt" stroke-miterlimit="10.0">
    <path d="M 190.9638,47.5918 c 0.0000,-0.3585 -0.2906,-0.6491 -0.6491 -0.6491c -0.3585,-0.0000 -0.6491,0.2906 -0.6491 0.6491c -0.0000,0.3585 0.2906,0.6491 0.6491 0.6491c 0.3585,0.0000 0.6491,-0.2906 0.6491 -0.6491Z"/>
  </g>
  <g stroke-linejoin="miter" stroke-opacity="1.0" fill-opacity="1.0" stroke="rgb(102,102,102)" stroke-width="0.0" fill="rgb(255,0,0)" stroke-linecap="butt" stroke-miterlimit="10.0">
    <path d="M 189.5827,49.5489 c 0.0000,-0.3585 -0.2906,-0.6491 -0.6491 -0.6491c -0.3585,-0.0000 -0.6491,0.2906 -0.6491 0.6491c -0.0000,0.3585 0.2906,0.6491 0.6491 0.6491c 0.3585,0.0000 0.6491,-0.2906 0.6491 -0.6491Z"/>
  </g>
  <g stroke-linejoin="miter" stroke-opacity="1.0" fill-opacity="1.0" stroke="rgb(102,102,102)" stroke-width="0.0" fill="rgb(255,0,0)" stroke-linecap="butt" stroke-miterlimit="10.0">
    <path d="M 188.2016,50.2013 c 0.0000,-0.3585 -0.2906,-0.6491 -0.6491 -0.6491c -0.3585,-0.0000 -0.6491,0.2906 -0.6491 0.6491c -0.0000,0.3585 0.2906,0.6491 0.6491 0.6491c 0.3585,0.0000 0.6491,-0.2906 0.6491 -0.6491Z"/>
  </g>
  <g stroke-linejoin="miter" stroke-opacity="1.0" fill-opacity="1.0" stroke="rgb(102,102,102)" stroke-width="0.0" fill="rgb(255,0,0)" stroke-linecap="butt" stroke-miterlimit="10.0">
    <path d="M 186.8205,50.8537 c 0.0000,-0.3585 -0.2906,-0.6491 -0.6491 -0.6491c -0.3585,-0.0000 -0.6491,0.2906 -0.6491 0.6491c -0.0000,0.3585 0.2906,0.6491 0.6491 0.6491c 0.3585,0.0000 0.6491,-0.2906 0.6491 -0.6491Z"/>
  </g>
  <g stroke-linejoin="miter" stroke-opacity="1.0" fill-opacity="1.0" stroke="rgb(102,102,102)" stroke-width="0.0" fill="rgb(255,0,0)" stroke-linecap="butt" stroke-miterlimit="10.0">
    <path d="M 185.4393,51.5061 c 0.0000,-0.3585 -0.2906,-0.6491 -0.6491 -0.6491c -0.3585,-0.0000 -0.6491,0.2906 -0.6491 0.6491c -0.0000,0.3585 0.2906,0.6491 0.6491 0.6491c 0.3585,0.0000 0.6491,-0.2906 0.6491 -0.6491Z"/>
  </g>
  <g stroke-linejoin="miter" stroke-opacity="1.0" fill-opacity="1.0" stroke="rgb(102,102,102)" stroke-width="0.0" fill="rgb(255,0,0)" stroke-linecap="butt" stroke-miterlimit="10.0">
    <path d="M 184.0582,52.1585 c 0.0000,-0.3585 -0.2906,-0.6491 -0.6491 -0.6491c -0.3585,-0.0000 -0.6491,0.2906 -0.6491 0.6491c -0.0000,0.3585 0.2906,0.6491 0.6491 0.6491c 0.3585,0.0000 0.6491,-0.2906 0.6491 -0.6491Z"/>
  </g>
  <g stroke-linejoin="miter" stroke-opacity="1.0" fill-opacity="1.0" stroke="rgb(102,102,102)" stroke-width="0.0" fill="rgb(255,0,0)" stroke-linecap="butt" stroke-miterlimit="10.0">
    <path d="M 182.6771,54.1156 c 0.0000,-0.3585 -0.2906,-0.6491 -0.6491 -0.6491c -0.3585,-0.0000 -0.6491,0.2906 -0.6491 0.6491c -0.0000,0.3585 0.2906,0.6491 0.6491 0.6491c 0.3585,0.0000 0.6491,-0.2906 0.6491 -0.6491Z"/>
  </g>
  <g stroke-linejoin="miter" stroke-opacity="1.0" fill-opacity="1.0" stroke="rgb(102,102,102)" stroke-width="0.0" fill="rgb(255,0,0)" stroke-linecap="butt" stroke-miterlimit="10.0">
    <path d="M 181.2960,54.7680 c 0.0000,-0.3585 -0.2906,-0.6491 -0.6491 -0.6491c -0.3585,-0.0000 -0.6491,0.2906 -0.6491 0.6491c -0.0000,0.3585 0.2906,0.6491 0.6491 0.6491c 0.3585,0.0000 0.6491,-0.2906 0.6491 -0.6491Z"/>
  </g>
  <g stroke-linejoin="miter" stroke-opacity="1.0" fill-opacity="1.0" stroke="rgb(102,102,102)" stroke-width="0.0" fill="rgb(255,0,0)" stroke-linecap="butt" stroke-miterlimit="10.0">
    <path d="M 179.9149,55.4204 c 0.0000,-0.3585 -0.2906,-0.6491 -0.6491 -0.6491c -0.3585,-0.0000 -0.6491,0.2906 -0.6491 0.6491c -0.0000,0.3585 0.2906,0.6491 0.6491 0.6491c 0.3585,0.0000 0.6491,-0.2906 0.6491 -0.6491Z"/>
  </g>
  <g stroke-linejoin="miter" stroke-opacity="1.0" fill-opacity="1.0" stroke="rgb(102,102,102)" stroke-width="0.0" fill="rgb(255,0,0)" stroke-linecap="butt" stroke-miterlimit="10.0">
    <path d="M 178.5337,56.0728 c 0.0000,-0.3585 -0.2906,-0.6491 -0.6491 -0.6491c -0.3585,-0.0000 -0.6491,0.2906 -0.6491 0.6491c -0.0000,0.3585 0.2906,0.6491 0.6491 0.6491c 0.3585,0.0000 0.6491,-0.2906 0.6491 -0.6491Z"/>
  </g>
  <g stroke-linejoin="miter" stroke-opacity="1.0" fill-opacity="1.0" stroke="rgb(102,102,102)" stroke-width="0.0" fill="rgb(255,0,0)" stroke-linecap="butt" stroke-miterlimit="10.0">
    <path d="M 177.1526,56.7252 c 0.0000,-0.3585 -0.2906,-0.6491 -0.6491 -0.6491c -0.3585,-0.0000 -0.6491,0.2906 -0.6491 0.6491c -0.0000,0.3585 0.2906,0.6491 0.6491 0.6491c 0.3585,0.0000 0.6491,-0.2906 0.6491 -0.6491Z"/>
  </g>
  <g stroke-linejoin="miter" stroke-opacity="1.0" fill-opacity="1.0" stroke="rgb(102,102,102)" stroke-width="0.0" fill="rgb(255,0,0)" stroke-linecap="butt" stroke-miterlimit="10.0">
    <path d="M 175.7715,58.6824 c 0.0000,-0.3585 -0.2906,-0.6491 -0.6491 -0.6491c -0.3585,-0.0000 -0.6491,0.2906 -0.6491 0.6491c -0.0000,0.3585 0.2906,0.6491 0.6491 0.6491c 0.3585,0.0000 0.6491,-0.2906 0.6491 -0.6491Z"/>
  </g>
  <g stroke-linejoin="miter" stroke-opacity="1.0" fill-opacity="1.0" stroke="rgb(102,102,102)" stroke-width="0.0" fill="rgb(255,0,0)" stroke-linecap="butt" stroke-miterlimit="10.0">
    <path d="M 174.3904,59.3348 c 0.0000,-0.3585 -0.2906,-0.6491 -0.6491 -0.6491c -0.3585,-0.0000 -0.6491,0.2906 -0.6491 0.6491c -0.0000,0.3585 0.2906,0.6491 0.6491 0.6491c 0.3585,0.0000 0.6491,-0.2906 0.6491 -0.6491Z"/>
  </g>
  <g stroke-linejoin="miter" stroke-opacity="1.0" fill-opacity="1.0" stroke="rgb(102,102,102)" stroke-width="0.0" fill="rgb(255,0,0)" stroke-linecap="butt" stroke-miterlimit="10.0">
    <path d="M 173.0093,59.9871 c 0.0000,-0.3585 -0.2906,-0.6491 -0.6491 -0.6491c -0.3585,-0.0000 -0.6491,0.2906 -0.6491 0.6491c -0.0000,0.3585 0.2906,0.6491 0.6491 0.6491c 0.3585,0.0000 0.6491,-0.2906 0.6491 -0.6491Z"/>
  </g>
  <g stroke-linejoin="miter" stroke-opacity="1.0" fill-opacity="1.0" stroke="rgb(102,102,102)" stroke-width="0.0" fill="rgb(255,0,0)" stroke-linecap="butt" stroke-miterlimit="10.0">
    <path d="M 171.6281,60.6395 c 0.0000,-0.3585 -0.2906,-0.6491 -0.6491 -0.6491c -0.3585,-0.0000 -0.6491,0.2906 -0.6491 0.6491c -0.0000,0.3585 0.2906,0.6491 0.6491 0.6491c 0.3585,0.0000 0.6491,-0.2906 0.6491 -0.6491Z"/>
  </g>
  <g stroke-linejoin="miter" stroke-opacity="1.0" fill-opacity="1.0" stroke="rgb(102,102,102)" stroke-width="0.0" fill="rgb(255,0,0)" stroke-linecap="butt" stroke-miterlimit="10.0">
    <path d="M 170.2470,61.2919 c 0.0000,-0.3585 -0.2906,-0.6491 -0.6491 -0.6491c -0.3585,-0.0000 -0.6491,0.2906 -0.6491 0.6491c -0.0000,0.3585 0.2906,0.6491 0.6491 0.6491c 0.3585,0.0000 0.6491,-0.2906 0.6491 -0.6491Z"/>
  </g>
  <g stroke-linejoin="miter" stroke-opacity="1.0" fill-opacity="1.0" stroke="rgb(102,102,102)" stroke-width="0.0" fill="rgb(255,0,0)" stroke-linecap="butt" stroke-miterlimit="10.0">
    <path d="M 168.8659,63.2491 c 0.0000,-0.3585 -0.2906,-0.6491 -0.6491 -0.6491c -0.3585,-0.0000 -0.6491,0.2906 -0.6491 0.6491c -0.0000,0.3585 0.2906,0.6491 0.6491 0.6491c 0.3585,0.0000 0.6491,-0.2906 0.6491 -0.6491Z"/>
  </g>
  <g stroke-linejoin="miter" stroke-opacity="1.0" fill-opacity="1.0" stroke="rgb(102,102,102)" stroke-width="0.0" fill="rgb(255,0,0)" stroke-linecap="butt" stroke-miterlimit="10.0">
    <path d="M 167.4848,63.9015 c 0.0000,-0.3585 -0.2906,-0.6491 -0.6491 -0.6491c -0.3585,-0.0000 -0.6491,0.2906 -0.6491 0.6491c -0.0000,0.3585 0.2906,0.6491 0.6491 0.6491c 0.3585,0.0000 0.6491,-0.2906 0.6491 -0.6491Z"/>
  </g>
  <g stroke-linejoin="miter" stroke-opacity="1.0" fill-opacity="1.0" stroke="rgb(102,102,102)" stroke-width="0.0" fill="rgb(255,0,0)" stroke-linecap="butt" stroke-miterlimit="10.0">
    <path d="M 166.1037,64.5539 c 0.0000,-0.3585 -0.2906,-0.6491 -0.6491 -0.6491c -0.3585,-0.0000 -0.6491,0.2906 -0.6491 0.6491c -0.0000,0.3585 0.2906,0.6491 0.6491 0.6491c 0.3585,0.0000 0.6491,-0.2906 0.6491 -0.6491Z"/>
  </g>
  <g stroke-linejoin="miter" stroke-opacity="1.0" fill-opacity="1.0" stroke="rgb(102,102,102)" stroke-width="0.0" fill="rgb(255,0,0)" stroke-linecap="butt" stroke-miterlimit="10.0">
    <path d="M 164.7225,65.2063 c 0.0000,-0.3585 -0.2906,-0.6491 -0.6491 -0.6491c -0.3585,-0.0000 -0.6491,0.2906 -0.6491 0.6491c -0.0000,0.3585 0.2906,0.6491 0.6491 0.6491c 0.3585,0.0000 0.6491,-0.2906 0.6491 -0.6491Z"/>
  </g>
  <g stroke-linejoin="miter" stroke-opacity="1.0" fill-opacity="1.0" stroke="rgb(102,102,102)" stroke-width="0.0" fill="rgb(255,0,0)" stroke-linecap="butt" stroke-miterlimit="10.0">
    <path d="M 163.3414,65.8586 c 0.0000,-0.3585 -0.2906,-0.6491 -0.6491 -0.6491c -0.3585,-0.0000 -0.6491,0.2906 -0.6491 0.6491c -0.0000,0.3585 0.2906,0.6491 0.6491 0.6491c 0.3585,0.0000 0.6491,-0.2906 0.6491 -0.6491Z"/>
  </g>
  <g stroke-linejoin="miter" stroke-opacity="1.0" fill-opacity="1.0" stroke="rgb(102,102,102)" stroke-width="0.0" fill="rgb(255,0,0)" stroke-linecap="butt" stroke-miterlimit="10.0">
    <path d="M 161.9603,67.8158 c 0.0000,-0.3585 -0.2906,-0.6491 -0.6491 -0.6491c -0.3585,-0.0000 -0.6491,0.2906 -0.6491 0.6491c -0.0000,0.3585 0.2906,0.6491 0.6491 0.6491c 0.3585,0.0000 0.6491,-0.2906 0.6491 -0.6491Z"/>
  </g>
  <g stroke-linejoin="miter" stroke-opacity="1.0" fill-opacity="1.0" stroke="rgb(102,102,102)" stroke-width="0.0" fill="rgb(255,0,0)" stroke-linecap="butt" stroke-miterlimit="10.0">
    <path d="M 160.5792,68.4682 c 0.0000,-0.3585 -0.2906,-0.6491 -0.6491 -0.6491c -0.3585,-0.0000 -0.6491,0.2906 -0.6491 0.6491c -0.0000,0.3585 0.2906,0.6491 0.6491 0.6491c 0.3585,0.0000 0.6491,-0.2906 0.6491 -0.6491Z"/>
  </g>
  <g stroke-linejoin="miter" stroke-opacity="1.0" fill-opacity="1.0" stroke="rgb(102,102,102)" stroke-width="0.0" fill="rgb(255,0,0)" stroke-linecap="butt" stroke-miterlimit="10.0">
    <path d="M 159.1980,69.1206 c 0.0000,-0.3585 -0.2906,-0.6491 -0.6491 -0.6491c -0.3585,-0.0000 -0.6491,0.2906 -0.6491 0.6491c -0.0000,0.3585 0.2906,0.6491 0.6491 0.6491c 0.3585,0.0000 0.6491,-0.2906 0.6491 -0.6491Z"/>
  </g>
  <g stroke-linejoin="miter" stroke-opacity="1.0" fill-opacity="1.0" stroke="rgb(102,102,102)" stroke-width="0.0" fill="rgb(255,0,0)" stroke-linecap="butt" stroke-miterlimit="10.0">
    <path d="M 157.8169,69.7730 c 0.0000,-0.3585 -0.2906,-0.6491 -0.6491 -0.6491c -0.3585,-0.0000 -0.6491,0.2906 -0.6491 0.6491c -0.0000,0.3585 0.2906,0.6491 0.6491 0.6491c 0.3585,0.0000 0.6491,-0.2906 0.6491 -0.6491Z"/>
  </g>
  <g stroke-linejoin="miter" stroke-opacity="1.0" fill-opacity="1.0" stroke="rgb(102,102,102)" stroke-width="0.0" fill="rgb(255,0,0)" stroke-linecap="butt" stroke-miterlimit="10.0">
    <path d="M 156.4358,70.4254 c 0.0000,-0.3585 -0.2906,-0.6491 -0.6491 -0.6491c -0.3585,-0.0000 -0.6491,0.2906 -0.6491 0.6491c -0.0000,0.3585 0.2906,0.6491 0.6491 0.6491c 0.3585,0.0000 0.6491,-0.2906 0.6491 -0.6491Z"/>
  </g>
  <g stroke-linejoin="miter" stroke-opacity="1.0" fill-opacity="1.0" stroke="rgb(102,102,102)" stroke-width="0.0" fill="rgb(255,0,0)" stroke-linecap="butt" stroke-miterlimit="10.0">
    <path d="M 155.0547,72.3825 c 0.0000,-0.3585 -0.2906,-0.6491 -0.6491 -0.6491c -0.3585,-0.0000 -0.6491,0.2906 -0.6491 0.6491c -0.0000,0.3585 0.2906,0.6491 0.6491 0.6491c 0.3585,0.0000 0.6491,-0.2906 0.6491 -0.6491Z"/>
  </g>
  <g stroke-linejoin="miter" stroke-opacity="1.0" fill-opacity="1.0" stroke="rgb(102,102,102)" stroke-width="0.0" fill="rgb(255,0,0)" stroke-linecap="butt" stroke-miterlimit="10.0">
    <path d="M 153.6736,73.0349 c 0.0000,-0.3585 -0.2906,-0.6491 -0.6491 -0.6491c -0.3585,-0.0000 -0.6491,0.2906 -0.6491 0.6491c -0.0000,0.3585 0.2906,0.6491 0.6491 0.6491c 0.3585,0.0000 0.6491,-0.2906 0.6491 -0.6491Z"/>
  </g>
  <g stroke-linejoin="miter" stroke-opacity="1.0" fill-opacity="1.0" stroke="rgb(102,102,102)" stroke-width="0.0" fill="rgb(255,0,0)" stroke-linecap="butt" stroke-miterlimit="10.0">
    <path d="M 152.2924,73.6873 c 0.0000,-0.3585 -0.2906,-0.6491 -0.6491 -0.6491c -0.3585,-0.0000 -0.6491,0.2906 -0.6491 0.6491c -0.0000,0.3585 0.2906,0.6491 0.6491 0.6491c 0.3585,0.0000 0.6491,-0.2906 0.6491 -0.6491Z"/>
  </g>
  <g stroke-linejoin="miter" stroke-opacity="1.0" fill-opacity="1.0" stroke="rgb(102,102,102)" stroke-width="0.0" fill="rgb(255,0,0)" stroke-linecap="butt" stroke-miterlimit="10.0">
    <path d="M 150.9113,74.3397 c 0.0000,-0.3585 -0.2906,-0.6491 -0.6491 -0.6491c -0.3585,-0.0000 -0.6491,0.2906 -0.6491 0.6491c -0.0000,0.3585 0.2906,0.6491 0.6491 0.6491c 0.3585,0.0000 0.6491,-0.2906 0.6491 -0.6491Z"/>
  </g>
  <g stroke-linejoin="miter" stroke-opacity="1.0" fill-opacity="1.0" stroke="rgb(102,102,102)" stroke-width="0.0" fill="rgb(255,0,0)" stroke-linecap="butt" stroke-miterlimit="10.0">
    <path d="M 149.5302,74.9921 c 0.0000,-0.3585 -0.2906,-0.6491 -0.6491 -0.6491c -0.3585,-0.0000 -0.6491,0.2906 -0.6491 0.6491c -0.0000,0.3585 0.2906,0.6491 0.6491 0.6491c 0.3585,0.0000 0.6491,-0.2906 0.6491 -0.6491Z"/>
  </g>
  <g stroke-linejoin="miter" stroke-opacity="1.0" fill-opacity="1.0" stroke="rgb(102,102,102)" stroke-width="0.0" fill="rgb(255,0,0)" stroke-linecap="butt" stroke-miterlimit="10.0">
    <path d="M 148.1491,76.9493 c 0.0000,-0.3585 -0.2906,-0.6491 -0.6491 -0.6491c -0.3585,-0.0000 -0.6491,0.2906 -0.6491 0.6491c -0.0000,0.3585 0.2906,0.6491 0.6491 0.6491c 0.3585,0.0000 0.6491,-0.2906 0.6491 -0.6491Z"/>
  </g>
  <g stroke-linejoin="miter" stroke-opacity="1.0" fill-opacity="1.0" stroke="rgb(102,102,102)" stroke-width="0.0" fill="rgb(255,0,0)" stroke-linecap="butt" stroke-miterlimit="10.0">
    <path d="M 146.7680,77.6016 c 0.0000,-0.3585 -0.2906,-0.6491 -0.6491 -0.6491c -0.3585,-0.0000 -0.6491,0.2906 -0.6491 0.6491c -0.0000,0.3585 0.2906,0.6491 0.6491 0.6491c 0.3585,0.0000 0.6491,-0.2906 0.6491 -0.6491Z"/>
  </g>
  <g stroke-linejoin="miter" stroke-opacity="1.0" fill-opacity="1.0" stroke="rgb(102,102,102)" stroke-width="0.0" fill="rgb(255,0,0)" stroke-linecap="butt" stroke-miterlimit="10.0">
    <path d="M 145.3868,78.2540 c 0.0000,-0.3585 -0.2906,-0.6491 -0.6491 -0.6491c -0.3585,-0.0000 -0.6491,0.2906 -0.6491 0.6491c -0.0000,0.3585 0.2906,0.6491 0.6491 0.6491c 0.3585,0.0000 0.6491,-0.2906 0.6491 -0.6491Z"/>
  </g>
  <g stroke-linejoin="miter" stroke-opacity="1.0" fill-opacity="1.0" stroke="rgb(102,102,102)" stroke-width="0.0" fill="rgb(255,0,0)" stroke-linecap="butt" stroke-miterlimit="10.0">
    <path d="M 144.0057,78.9064 c 0.0000,-0.3585 -0.2906,-0.6491 -0.6491 -0.6491c -0.3585,-0.0000 -0.6491,0.2906 -0.6491 0.6491c -0.0000,0.3585 0.2906,0.6491 0.6491 0.6491c 0.3585,0.0000 0.6491,-0.2906 0.6491 -0.6491Z"/>
  </g>
  <g stroke-linejoin="miter" stroke-opacity="1.0" fill-opacity="1.0" stroke="rgb(102,102,102)" stroke-width="0.0" fill="rgb(255,0,0)" stroke-linecap="butt" stroke-miterlimit="10.0">
    <path d="M 142.6246,79.5588 c 0.0000,-0.3585 -0.2906,-0.6491 -0.6491 -0.6491c -0.3585,-0.0000 -0.6491,0.2906 -0.6491 0.6491c -0.0000,0.3585 0.2906,0.6491 0.6491 0.6491c 0.3585,0.0000 0.6491,-0.2906 0.6491 -0.6491Z"/>
  </g>
  <g stroke-linejoin="miter" stroke-opacity="1.0" fill-opacity="1.0" stroke="rgb(102,102,102)" stroke-width="0.0" fill="rgb(255,0,0)" stroke-linecap="butt" stroke-miterlimit="10.0">
    <path d="M 141.2435,81.5160 c 0.0000,-0.3585 -0.2906,-0.6491 -0.6491 -0.6491c -0.3585,-0.0000 -0.6491,0.2906 -0.6491 0.6491c -0.0000,0.3585 0.2906,0.6491 0.6491 0.6491c 0.3585,0.0000 0.6491,-0.2906 0.6491 -0.6491Z"/>
  </g>
  <g stroke-linejoin="miter" stroke-opacity="1.0" fill-opacity="1.0" stroke="rgb(102,102,102)" stroke-width="0.0" fill="rgb(255,0,0)" stroke-linecap="butt" stroke-miterlimit="10.0">
    <path d="M 139.8624,82.1684 c 0.0000,-0.3585 -0.2906,-0.6491 -0.6491 -0.6491c -0.3585,-0.0000 -0.6491,0.2906 -0.6491 0.6491c -0.0000,0.3585 0.2906,0.6491 0.6491 0.6491c 0.3585,0.0000 0.6491,-0.2906 0.6491 -0.6491Z"/>
  </g>
  <g stroke-linejoin="miter" stroke-opacity="1.0" fill-opacity="1.0" stroke="rgb(102,102,102)" stroke-width="0.0" fill="rgb(255,0,0)" stroke-linecap="butt" stroke-miterlimit="10.0">
    <path d="M 138.4812,82.8208 c 0.0000,-0.3585 -0.2906,-0.6491 -0.6491 -0.6491c -0.3585,-0.0000 -0.6491,0.2906 -0.6491 0.6491c -0.0000,0.3585 0.2906,0.6491 0.6491 0.6491c 0.3585,0.0000 0.6491,-0.2906 0.6491 -0.6491Z"/>
  </g>
  <g stroke-linejoin="miter" stroke-opacity="1.0" fill-opacity="1.0" stroke="rgb(102,102,102)" stroke-width="0.0" fill="rgb(255,0,0)" stroke-linecap="butt" stroke-miterlimit="10.0">
    <path d="M 137.1001,83.4731 c 0.0000,-0.3585 -0.2906,-0.6491 -0.6491 -0.6491c -0.3585,-0.0000 -0.6491,0.2906 -0.6491 0.6491c -0.0000,0.3585 0.2906,0.6491 0.6491 0.6491c 0.3585,0.0000 0.6491,-0.2906 0.6491 -0.6491Z"/>
  </g>
  <g stroke-linejoin="miter" stroke-opacity="1.0" fill-opacity="1.0" stroke="rgb(102,102,102)" stroke-width="0.0" fill="rgb(255,0,0)" stroke-linecap="butt" stroke-miterlimit="10.0">
    <path d="M 135.7190,84.1255 c 0.0000,-0.3585 -0.2906,-0.6491 -0.6491 -0.6491c -0.3585,-0.0000 -0.6491,0.2906 -0.6491 0.6491c -0.0000,0.3585 0.2906,0.6491 0.6491 0.6491c 0.3585,0.0000 0.6491,-0.2906 0.6491 -0.6491Z"/>
  </g>
  <g stroke-linejoin="miter" stroke-opacity="1.0" fill-opacity="1.0" stroke="rgb(102,102,102)" stroke-width="0.0" fill="rgb(255,0,0)" stroke-linecap="butt" stroke-miterlimit="10.0">
    <path d="M 134.3379,86.0827 c 0.0000,-0.3585 -0.2906,-0.6491 -0.6491 -0.6491c -0.3585,-0.0000 -0.6491,0.2906 -0.6491 0.6491c -0.0000,0.3585 0.2906,0.6491 0.6491 0.6491c 0.3585,0.0000 0.6491,-0.2906 0.6491 -0.6491Z"/>
  </g>
  <g stroke-linejoin="miter" stroke-opacity="1.0" fill-opacity="1.0" stroke="rgb(102,102,102)" stroke-width="0.0" fill="rgb(255,0,0)" stroke-linecap="butt" stroke-miterlimit="10.0">
    <path d="M 132.9568,86.7351 c 0.0000,-0.3585 -0.2906,-0.6491 -0.6491 -0.6491c -0.3585,-0.0000 -0.6491,0.2906 -0.6491 0.6491c -0.0000,0.3585 0.2906,0.6491 0.6491 0.6491c 0.3585,0.0000 0.6491,-0.2906 0.6491 -0.6491Z"/>
  </g>
  <g stroke-linejoin="miter" stroke-opacity="1.0" fill-opacity="1.0" stroke="rgb(102,102,102)" stroke-width="0.0" fill="rgb(255,0,0)" stroke-linecap="butt" stroke-miterlimit="10.0">
    <path d="M 131.5756,87.3875 c 0.0000,-0.3585 -0.2906,-0.6491 -0.6491 -0.6491c -0.3585,-0.0000 -0.6491,0.2906 -0.6491 0.6491c -0.0000,0.3585 0.2906,0.6491 0.6491 0.6491c 0.3585,0.0000 0.6491,-0.2906 0.6491 -0.6491Z"/>
  </g>
  <g stroke-linejoin="miter" stroke-opacity="1.0" fill-opacity="1.0" stroke="rgb(102,102,102)" stroke-width="0.0" fill="rgb(255,0,0)" stroke-linecap="butt" stroke-miterlimit="10.0">
    <path d="M 130.1945,88.0399 c 0.0000,-0.3585 -0.2906,-0.6491 -0.6491 -0.6491c -0.3585,-0.0000 -0.6491,0.2906 -0.6491 0.6491c -0.0000,0.3585 0.2906,0.6491 0.6491 0.6491c 0.3585,0.0000 0.6491,-0.2906 0.6491 -0.6491Z"/>
  </g>
  <g stroke-linejoin="miter" stroke-opacity="1.0" fill-opacity="1.0" stroke="rgb(102,102,102)" stroke-width="0.0" fill="rgb(255,0,0)" stroke-linecap="butt" stroke-miterlimit="10.0">
    <path d="M 128.8134,88.6923 c 0.0000,-0.3585 -0.2906,-0.6491 -0.6491 -0.6491c -0.3585,-0.0000 -0.6491,0.2906 -0.6491 0.6491c -0.0000,0.3585 0.2906,0.6491 0.6491 0.6491c 0.3585,0.0000 0.6491,-0.2906 0.6491 -0.6491Z"/>
  </g>
  <g stroke-linejoin="miter" stroke-opacity="1.0" fill-opacity="1.0" stroke="rgb(102,102,102)" stroke-width="0.0" fill="rgb(255,0,0)" stroke-linecap="butt" stroke-miterlimit="10.0">
    <path d="M 127.4323,90.6494 c 0.0000,-0.3585 -0.2906,-0.6491 -0.6491 -0.6491c -0.3585,-0.0000 -0.6491,0.2906 -0.6491 0.6491c -0.0000,0.3585 0.2906,0.6491 0.6491 0.6491c 0.3585,0.0000 0.6491,-0.2906 0.6491 -0.6491Z"/>
  </g>
  <g stroke-linejoin="miter" stroke-opacity="1.0" fill-opacity="1.0" stroke="rgb(102,102,102)" stroke-width="0.0" fill="rgb(255,0,0)" stroke-linecap="butt" stroke-miterlimit="10.0">
    <path d="M 126.0511,91.3018 c 0.0000,-0.3585 -0.2906,-0.6491 -0.6491 -0.6491c -0.3585,-0.0000 -0.6491,0.2906 -0.6491 0.6491c -0.0000,0.3585 0.2906,0.6491 0.6491 0.6491c 0.3585,0.0000 0.6491,-0.2906 0.6491 -0.6491Z"/>
  </g>
  <g stroke-linejoin="miter" stroke-opacity="1.0" fill-opacity="1.0" stroke="rgb(102,102,102)" stroke-width="0.0" fill="rgb(255,0,0)" stroke-linecap="butt" stroke-miterlimit="10.0">
    <path d="M 124.6700,91.9542 c 0.0000,-0.3585 -0.2906,-0.6491 -0.6491 -0.6491c -0.3585,-0.0000 -0.6491,0.2906 -0.6491 0.6491c -0.0000,0.3585 0.2906,0.6491 0.6491 0.6491c 0.3585,0.0000 0.6491,-0.2906 0.6491 -0.6491Z"/>
  </g>
  <g stroke-linejoin="miter" stroke-opacity="1.0" fill-opacity="1.0" stroke="rgb(102,102,102)" stroke-width="0.0" fill="rgb(255,0,0)" stroke-linecap="butt" stroke-miterlimit="10.0">
    <path d="M 123.2889,92.6066 c 0.0000,-0.3585 -0.2906,-0.6491 -0.6491 -0.6491c -0.3585,-0.0000 -0.6491,0.2906 -0.6491 0.6491c -0.0000,0.3585 0.2906,0.6491 0.6491 0.6491c 0.3585,0.0000 0.6491,-0.2906 0.6491 -0.6491Z"/>
  </g>
  <g stroke-linejoin="miter" stroke-opacity="1.0" fill-opacity="1.0" stroke="rgb(102,102,102)" stroke-width="0.0" fill="rgb(255,0,0)" stroke-linecap="butt" stroke-miterlimit="10.0">
    <path d="M 121.9078,93.2590 c 0.0000,-0.3585 -0.2906,-0.6491 -0.6491 -0.6491c -0.3585,-0.0000 -0.6491,0.2906 -0.6491 0.6491c -0.0000,0.3585 0.2906,0.6491 0.6491 0.6491c 0.3585,0.0000 0.6491,-0.2906 0.6491 -0.6491Z"/>
  </g>
  <g stroke-linejoin="miter" stroke-opacity="1.0" fill-opacity="1.0" stroke="rgb(102,102,102)" stroke-width="0.0" fill="rgb(255,0,0)" stroke-linecap="butt" stroke-miterlimit="10.0">
    <path d="M 120.5267,95.2161 c 0.0000,-0.3585 -0.2906,-0.6491 -0.6491 -0.6491c -0.3585,-0.0000 -0.6491,0.2906 -0.6491 0.6491c -0.0000,0.3585 0.2906,0.6491 0.6491 0.6491c 0.3585,0.0000 0.6491,-0.2906 0.6491 -0.6491Z"/>
  </g>
  <g stroke-linejoin="miter" stroke-opacity="1.0" fill-opacity="1.0" stroke="rgb(102,102,102)" stroke-width="0.0" fill="rgb(255,0,0)" stroke-linecap="butt" stroke-miterlimit="10.0">
    <path d="M 119.1455,95.8685 c 0.0000,-0.3585 -0.2906,-0.6491 -0.6491 -0.6491c -0.3585,-0.0000 -0.6491,0.2906 -0.6491 0.6491c -0.0000,0.3585 0.2906,0.6491 0.6491 0.6491c 0.3585,0.0000 0.6491,-0.2906 0.6491 -0.6491Z"/>
  </g>
  <g stroke-linejoin="miter" stroke-opacity="1.0" fill-opacity="1.0" stroke="rgb(102,102,102)" stroke-width="0.0" fill="rgb(255,0,0)" stroke-linecap="butt" stroke-miterlimit="10.0">
    <path d="M 117.7644,96.5209 c 0.0000,-0.3585 -0.2906,-0.6491 -0.6491 -0.6491c -0.3585,-0.0000 -0.6491,0.2906 -0.6491 0.6491c -0.0000,0.3585 0.2906,0.6491 0.6491 0.6491c 0.3585,0.0000 0.6491,-0.2906 0.6491 -0.6491Z"/>
  </g>
  <g stroke-linejoin="miter" stroke-opacity="1.0" fill-opacity="1.0" stroke="rgb(102,102,102)" stroke-width="0.0" fill="rgb(255,0,0)" stroke-linecap="butt" stroke-miterlimit="10.0">
    <path d="M 116.3833,97.1733 c 0.0000,-0.3585 -0.2906,-0.6491 -0.6491 -0.6491c -0.3585,-0.0000 -0.6491,0.2906 -0.6491 0.6491c -0.0000,0.3585 0.2906,0.6491 0.6491 0.6491c 0.3585,0.0000 0.6491,-0.2906 0.6491 -0.6491Z"/>
  </g>
  <g stroke-linejoin="miter" stroke-opacity="1.0" fill-opacity="1.0" stroke="rgb(102,102,102)" stroke-width="0.0" fill="rgb(255,0,0)" stroke-linecap="butt" stroke-miterlimit="10.0">
    <path d="M 115.0022,97.8257 c 0.0000,-0.3585 -0.2906,-0.6491 -0.6491 -0.6491c -0.3585,-0.0000 -0.6491,0.2906 -0.6491 0.6491c -0.0000,0.3585 0.2906,0.6491 0.6491 0.6491c 0.3585,0.0000 0.6491,-0.2906 0.6491 -0.6491Z"/>
  </g>
  <g stroke-linejoin="miter" stroke-opacity="1.0" fill-opacity="1.0" stroke="rgb(102,102,102)" stroke-width="0.0" fill="rgb(255,0,0)" stroke-linecap="butt" stroke-miterlimit="10.0">
    <path d="M 113.6211,99.7829 c 0.0000,-0.3585 -0.2906,-0.6491 -0.6491 -0.6491c -0.3585,-0.0000 -0.6491,0.2906 -0.6491 0.6491c -0.0000,0.3585 0.2906,0.6491 0.6491 0.6491c 0.3585,0.0000 0.6491,-0.2906 0.6491 -0.6491Z"/>
  </g>
  <g stroke-linejoin="miter" stroke-opacity="1.0" fill-opacity="1.0" stroke="rgb(102,102,102)" stroke-width="0.0" fill="rgb(255,0,0)" stroke-linecap="butt" stroke-miterlimit="10.0">
    <path d="M 112.2399,100.4352 c 0.0000,-0.3585 -0.2906,-0.6491 -0.6491 -0.6491c -0.3585,-0.0000 -0.6491,0.2906 -0.6491 0.6491c -0.0000,0.3585 0.2906,0.6491 0.6491 0.6491c 0.3585,0.0000 0.6491,-0.2906 0.6491 -0.6491Z"/>
  </g>
  <g stroke-linejoin="miter" stroke-opacity="1.0" fill-opacity="1.0" stroke="rgb(102,102,102)" stroke-width="0.0" fill="rgb(255,0,0)" stroke-linecap="butt" stroke-miterlimit="10.0">
    <path d="M 110.8588,101.0876 c 0.0000,-0.3585 -0.2906,-0.6491 -0.6491 -0.6491c -0.3585,-0.0000 -0.6491,0.2906 -0.6491 0.6491c -0.0000,0.3585 0.2906,0.6491 0.6491 0.6491c 0.3585,0.0000 0.6491,-0.2906 0.6491 -0.6491Z"/>
  </g>
  <g stroke-linejoin="miter" stroke-opacity="1.0" fill-opacity="1.0" stroke="rgb(102,102,102)" stroke-width="0.0" fill="rgb(255,0,0)" stroke-linecap="butt" stroke-miterlimit="10.0">
    <path d="M 109.4777,101.7400 c 0.0000,-0.3585 -0.2906,-0.6491 -0.6491 -0.6491c -0.3585,-0.0000 -0.6491,0.2906 -0.6491 0.6491c -0.0000,0.3585 0.2906,0.6491 0.6491 0.6491c 0.3585,0.0000 0.6491,-0.2906 0.6491 -0.6491Z"/>
  </g>
  <g stroke-linejoin="miter" stroke-opacity="1.0" fill-opacity="1.0" stroke="rgb(102,102,102)" stroke-width="0.0" fill="rgb(255,0,0)" stroke-linecap="butt" stroke-miterlimit="10.0">
    <path d="M 108.0966,102.3924 c 0.0000,-0.3585 -0.2906,-0.6491 -0.6491 -0.6491c -0.3585,-0.0000 -0.6491,0.2906 -0.6491 0.6491c -0.0000,0.3585 0.2906,0.6491 0.6491 0.6491c 0.3585,0.0000 0.6491,-0.2906 0.6491 -0.6491Z"/>
  </g>
  <g stroke-linejoin="miter" stroke-opacity="1.0" fill-opacity="1.0" stroke="rgb(102,102,102)" stroke-width="0.0" fill="rgb(255,0,0)" stroke-linecap="butt" stroke-miterlimit="10.0">
    <path d="M 106.7155,104.3496 c 0.0000,-0.3585 -0.2906,-0.6491 -0.6491 -0.6491c -0.3585,-0.0000 -0.6491,0.2906 -0.6491 0.6491c -0.0000,0.3585 0.2906,0.6491 0.6491 0.6491c 0.3585,0.0000 0.6491,-0.2906 0.6491 -0.6491Z"/>
  </g>
  <g stroke-linejoin="miter" stroke-opacity="1.0" fill-opacity="1.0" stroke="rgb(102,102,102)" stroke-width="0.0" fill="rgb(255,0,0)" stroke-linecap="butt" stroke-miterlimit="10.0">
    <path d="M 105.3343,105.0020 c 0.0000,-0.3585 -0.2906,-0.6491 -0.6491 -0.6491c -0.3585,-0.0000 -0.6491,0.2906 -0.6491 0.6491c -0.0000,0.3585 0.2906,0.6491 0.6491 0.6491c 0.3585,0.0000 0.6491,-0.2906 0.6491 -0.6491Z"/>
  </g>
  <g stroke-linejoin="miter" stroke-opacity="1.0" fill-opacity="1.0" stroke="rgb(102,102,102)" stroke-width="0.0" fill="rgb(255,0,0)" stroke-linecap="butt" stroke-miterlimit="10.0">
    <path d="M 103.9532,105.6544 c 0.0000,-0.3585 -0.2906,-0.6491 -0.6491 -0.6491c -0.3585,-0.0000 -0.6491,0.2906 -0.6491 0.6491c -0.0000,0.3585 0.2906,0.6491 0.6491 0.6491c 0.3585,0.0000 0.6491,-0.2906 0.6491 -0.6491Z"/>
  </g>
  <g stroke-linejoin="miter" stroke-opacity="1.0" fill-opacity="1.0" stroke="rgb(102,102,102)" stroke-width="0.0" fill="rgb(255,0,0)" stroke-linecap="butt" stroke-miterlimit="10.0">
    <path d="M 102.5721,106.3067 c 0.0000,-0.3585 -0.2906,-0.6491 -0.6491 -0.6491c -0.3585,-0.0000 -0.6491,0.2906 -0.6491 0.6491c -0.0000,0.3585 0.2906,0.6491 0.6491 0.6491c 0.3585,0.0000 0.6491,-0.2906 0.6491 -0.6491Z"/>
  </g>
  <g stroke-linejoin="miter" stroke-opacity="1.0" fill-opacity="1.0" stroke="rgb(102,102,102)" stroke-width="0.0" fill="rgb(255,0,0)" stroke-linecap="butt" stroke-miterlimit="10.0">
    <path d="M 101.1910,106.9591 c 0.0000,-0.3585 -0.2906,-0.6491 -0.6491 -0.6491c -0.3585,-0.0000 -0.6491,0.2906 -0.6491 0.6491c -0.0000,0.3585 0.2906,0.6491 0.6491 0.6491c 0.3585,0.0000 0.6491,-0.2906 0.6491 -0.6491Z"/>
  </g>
  <g stroke-linejoin="miter" stroke-opacity="1.0" fill-opacity="1.0" stroke="rgb(102,102,102)" stroke-width="0.0" fill="rgb(255,0,0)" stroke-linecap="butt" stroke-miterlimit="10.0">
    <path d="M 99.8098,108.9163 c 0.0000,-0.3585 -0.2906,-0.6491 -0.6491 -0.6491c -0.3585,-0.0000 -0.6491,0.2906 -0.6491 0.6491c -0.0000,0.3585 0.2906,0.6491 0.6491 0.6491c 0.3585,0.0000 0.6491,-0.2906 0.6491 -0.6491Z"/>
  </g>
  <g stroke-linejoin="miter" stroke-opacity="1.0" fill-opacity="1.0" stroke="rgb(102,102,102)" stroke-width="0.0" fill="rgb(255,0,0)" stroke-linecap="butt" stroke-miterlimit="10.0">
    <path d="M 98.4287,109.5687 c 0.0000,-0.3585 -0.2906,-0.6491 -0.6491 -0.6491c -0.3585,-0.0000 -0.6491,0.2906 -0.6491 0.6491c -0.0000,0.3585 0.2906,0.6491 0.6491 0.6491c 0.3585,0.0000 0.6491,-0.2906 0.6491 -0.6491Z"/>
  </g>
  <g stroke-linejoin="miter" stroke-opacity="1.0" fill-opacity="1.0" stroke="rgb(102,102,102)" stroke-width="0.0" fill="rgb(255,0,0)" stroke-linecap="butt" stroke-miterlimit="10.0">
    <path d="M 97.0476,110.2211 c 0.0000,-0.3585 -0.2906,-0.6491 -0.6491 -0.6491c -0.3585,-0.0000 -0.6491,0.2906 -0.6491 0.6491c -0.0000,0.3585 0.2906,0.6491 0.6491 0.6491c 0.3585,0.0000 0.6491,-0.2906 0.6491 -0.6491Z"/>
  </g>
  <g stroke-linejoin="miter" stroke-opacity="1.0" fill-opacity="1.0" stroke="rgb(102,102,102)" stroke-width="0.0" fill="rgb(255,0,0)" stroke-linecap="butt" stroke-miterlimit="10.0">
    <path d="M 95.6665,110.8735 c 0.0000,-0.3585 -0.2906,-0.6491 -0.6491 -0.6491c -0.3585,-0.0000 -0.6491,0.2906 -0.6491 0.6491c -0.0000,0.3585 0.2906,0.6491 0.6491 0.6491c 0.3585,0.0000 0.6491,-0.2906 0.6491 -0.6491Z"/>
  </g>
  <g stroke-linejoin="miter" stroke-opacity="1.0" fill-opacity="1.0" stroke="rgb(102,102,102)" stroke-width="0.0" fill="rgb(255,0,0)" stroke-linecap="butt" stroke-miterlimit="10.0">
    <path d="M 94.2854,111.5259 c 0.0000,-0.3585 -0.2906,-0.6491 -0.6491 -0.6491c -0.3585,-0.0000 -0.6491,0.2906 -0.6491 0.6491c -0.0000,0.3585 0.2906,0.6491 0.6491 0.6491c 0.3585,0.0000 0.6491,-0.2906 0.6491 -0.6491Z"/>
  </g>
  <g stroke-linejoin="miter" stroke-opacity="1.0" fill-opacity="1.0" stroke="rgb(102,102,102)" stroke-width="0.0" fill="rgb(255,0,0)" stroke-linecap="butt" stroke-miterlimit="10.0">
    <path d="M 92.9042,113.4830 c 0.0000,-0.3585 -0.2906,-0.6491 -0.6491 -0.6491c -0.3585,-0.0000 -0.6491,0.2906 -0.6491 0.6491c -0.0000,0.3585 0.2906,0.6491 0.6491 0.6491c 0.3585,0.0000 0.6491,-0.2906 0.6491 -0.6491Z"/>
  </g>
  <g stroke-linejoin="miter" stroke-opacity="1.0" fill-opacity="1.0" stroke="rgb(102,102,102)" stroke-width="0.0" fill="rgb(255,0,0)" stroke-linecap="butt" stroke-miterlimit="10.0">
    <path d="M 91.5231,114.1354 c 0.0000,-0.3585 -0.2906,-0.6491 -0.6491 -0.6491c -0.3585,-0.0000 -0.6491,0.2906 -0.6491 0.6491c -0.0000,0.3585 0.2906,0.6491 0.6491 0.6491c 0.3585,0.0000 0.6491,-0.2906 0.6491 -0.6491Z"/>
  </g>
  <g stroke-linejoin="miter" stroke-opacity="1.0" fill-opacity="1.0" stroke="rgb(102,102,102)" stroke-width="0.0" fill="rgb(255,0,0)" stroke-linecap="butt" stroke-miterlimit="10.0">
    <path d="M 90.1420,114.7878 c 0.0000,-0.3585 -0.2906,-0.6491 -0.6491 -0.6491c -0.3585,-0.0000 -0.6491,0.2906 -0.6491 0.6491c -0.0000,0.3585 0.2906,0.6491 0.6491 0.6491c 0.3585,0.0000 0.6491,-0.2906 0.6491 -0.6491Z"/>
  </g>
  <g stroke-linejoin="miter" stroke-opacity="1.0" fill-opacity="1.0" stroke="rgb(102,102,102)" stroke-width="0.0" fill="rgb(255,0,0)" stroke-linecap="butt" stroke-miterlimit="10.0">
    <path d="M 88.7609,115.4402 c 0.0000,-0.3585 -0.2906,-0.6491 -0.6491 -0.6491c -0.3585,-0.0000 -0.6491,0.2906 -0.6491 0.6491c -0.0000,0.3585 0.2906,0.6491 0.6491 0.6491c 0.3585,0.0000 0.6491,-0.2906 0.6491 -0.6491Z"/>
  </g>
  <g stroke-linejoin="miter" stroke-opacity="1.0" fill-opacity="1.0" stroke="rgb(102,102,102)" stroke-width="0.0" fill="rgb(255,0,0)" stroke-linecap="butt" stroke-miterlimit="10.0">
    <path d="M 87.3798,116.0926 c 0.0000,-0.3585 -0.2906,-0.6491 -0.6491 -0.6491c -0.3585,-0.0000 -0.6491,0.2906 -0.6491 0.6491c -0.0000,0.3585 0.2906,0.6491 0.6491 0.6491c 0.3585,0.0000 0.6491,-0.2906 0.6491 -0.6491Z"/>
  </g>
  <g stroke-linejoin="miter" stroke-opacity="1.0" fill-opacity="1.0" stroke="rgb(102,102,102)" stroke-width="0.0" fill="rgb(255,0,0)" stroke-linecap="butt" stroke-miterlimit="10.0">
    <path d="M 85.9986,118.0497 c 0.0000,-0.3585 -0.2906,-0.6491 -0.6491 -0.6491c -0.3585,-0.0000 -0.6491,0.2906 -0.6491 0.6491c -0.0000,0.3585 0.2906,0.6491 0.6491 0.6491c 0.3585,0.0000 0.6491,-0.2906 0.6491 -0.6491Z"/>
  </g>
  <g stroke-linejoin="miter" stroke-opacity="1.0" fill-opacity="1.0" stroke="rgb(102,102,102)" stroke-width="0.0" fill="rgb(255,0,0)" stroke-linecap="butt" stroke-miterlimit="10.0">
    <path d="M 84.6175,118.7021 c 0.0000,-0.3585 -0.2906,-0.6491 -0.6491 -0.6491c -0.3585,-0.0000 -0.6491,0.2906 -0.6491 0.6491c -0.0000,0.3585 0.2906,0.6491 0.6491 0.6491c 0.3585,0.0000 0.6491,-0.2906 0.6491 -0.6491Z"/>
  </g>
  <g stroke-linejoin="miter" stroke-opacity="1.0" fill-opacity="1.0" stroke="rgb(102,102,102)" stroke-width="0.0" fill="rgb(255,0,0)" stroke-linecap="butt" stroke-miterlimit="10.0">
    <path d="M 83.2364,119.3545 c 0.0000,-0.3585 -0.2906,-0.6491 -0.6491 -0.6491c -0.3585,-0.0000 -0.6491,0.2906 -0.6491 0.6491c -0.0000,0.3585 0.2906,0.6491 0.6491 0.6491c 0.3585,0.0000 0.6491,-0.2906 0.6491 -0.6491Z"/>
  </g>
  <g stroke-linejoin="miter" stroke-opacity="1.0" fill-opacity="1.0" stroke="rgb(102,102,102)" stroke-width="0.0" fill="rgb(255,0,0)" stroke-linecap="butt" stroke-miterlimit="10.0">
    <path d="M 81.8553,120.0069 c 0.0000,-0.3585 -0.2906,-0.6491 -0.6491 -0.6491c -0.3585,-0.0000 -0.6491,0.2906 -0.6491 0.6491c -0.0000,0.3585 0.2906,0.6491 0.6491 0.6491c 0.3585,0.0000 0.6491,-0.2906 0.6491 -0.6491Z"/>
  </g>
  <g stroke-linejoin="miter" stroke-opacity="1.0" fill-opacity="1.0" stroke="rgb(102,102,102)" stroke-width="0.0" fill="rgb(255,0,0)" stroke-linecap="butt" stroke-miterlimit="10.0">
    <path d="M 80.4742,120.6593 c 0.0000,-0.3585 -0.2906,-0.6491 -0.6491 -0.6491c -0.3585,-0.0000 -0.6491,0.2906 -0.6491 0.6491c -0.0000,0.3585 0.2906,0.6491 0.6491 0.6491c 0.3585,0.0000 0.6491,-0.2906 0.6491 -0.6491Z"/>
  </g>
  <g stroke-linejoin="miter" stroke-opacity="1.0" fill-opacity="1.0" stroke="rgb(102,102,102)" stroke-width="0.0" fill="rgb(255,0,0)" stroke-linecap="butt" stroke-miterlimit="10.0">
    <path d="M 79.0930,122.6165 c 0.0000,-0.3585 -0.2906,-0.6491 -0.6491 -0.6491c -0.3585,-0.0000 -0.6491,0.2906 -0.6491 0.6491c -0.0000,0.3585 0.2906,0.6491 0.6491 0.6491c 0.3585,0.0000 0.6491,-0.2906 0.6491 -0.6491Z"/>
  </g>
  <g stroke-linejoin="miter" stroke-opacity="1.0" fill-opacity="1.0" stroke="rgb(102,102,102)" stroke-width="0.0" fill="rgb(255,0,0)" stroke-linecap="butt" stroke-miterlimit="10.0">
    <path d="M 77.7119,123.2689 c 0.0000,-0.3585 -0.2906,-0.6491 -0.6491 -0.6491c -0.3585,-0.0000 -0.6491,0.2906 -0.6491 0.6491c -0.0000,0.3585 0.2906,0.6491 0.6491 0.6491c 0.3585,0.0000 0.6491,-0.2906 0.6491 -0.6491Z"/>
  </g>
  <g stroke-linejoin="miter" stroke-opacity="1.0" fill-opacity="1.0" stroke="rgb(102,102,102)" stroke-width="0.0" fill="rgb(255,0,0)" stroke-linecap="butt" stroke-miterlimit="10.0">
    <path d="M 76.3308,123.9212 c 0.0000,-0.3585 -0.2906,-0.6491 -0.6491 -0.6491c -0.3585,-0.0000 -0.6491,0.2906 -0.6491 0.6491c -0.0000,0.3585 0.2906,0.6491 0.6491 0.6491c 0.3585,0.0000 0.6491,-0.2906 0.6491 -0.6491Z"/>
  </g>
  <g stroke-linejoin="miter" stroke-opacity="1.0" fill-opacity="1.0" stroke="rgb(102,102,102)" stroke-width="0.0" fill="rgb(255,0,0)" stroke-linecap="butt" stroke-miterlimit="10.0">
    <path d="M 74.9497,124.5736 c 0.0000,-0.3585 -0.2906,-0.6491 -0.6491 -0.6491c -0.3585,-0.0000 -0.6491,0.2906 -0.6491 0.6491c -0.0000,0.3585 0.2906,0.6491 0.6491 0.6491c 0.3585,0.0000 0.6491,-0.2906 0.6491 -0.6491Z"/>
  </g>
  <g stroke-linejoin="miter" stroke-opacity="1.0" fill-opacity="1.0" stroke="rgb(102,102,102)" stroke-width="0.0" fill="rgb(255,0,0)" stroke-linecap="butt" stroke-miterlimit="10.0">
    <path d="M 73.5686,125.2260 c 0.0000,-0.3585 -0.2906,-0.6491 -0.6491 -0.6491c -0.3585,-0.0000 -0.6491,0.2906 -0.6491 0.6491c -0.0000,0.3585 0.2906,0.6491 0.6491 0.6491c 0.3585,0.0000 0.6491,-0.2906 0.6491 -0.6491Z"/>
  </g>
  <g stroke-linejoin="miter" stroke-opacity="1.0" fill-opacity="1.0" stroke="rgb(102,102,102)" stroke-width="0.0" fill="rgb(255,0,0)" stroke-linecap="butt" stroke-miterlimit="10.0">
    <path d="M 72.1874,127.1832 c 0.0000,-0.3585 -0.2906,-0.6491 -0.6491 -0.6491c -0.3585,-0.0000 -0.6491,0.2906 -0.6491 0.6491c -0.0000,0.3585 0.2906,0.6491 0.6491 0.6491c 0.3585,0.0000 0.6491,-0.2906 0.6491 -0.6491Z"/>
  </g>
  <g stroke-linejoin="miter" stroke-opacity="1.0" fill-opacity="1.0" stroke="rgb(102,102,102)" stroke-width="0.0" fill="rgb(255,0,0)" stroke-linecap="butt" stroke-miterlimit="10.0">
    <path d="M 70.8063,127.8356 c 0.0000,-0.3585 -0.2906,-0.6491 -0.6491 -0.6491c -0.3585,-0.0000 -0.6491,0.2906 -0.6491 0.6491c -0.0000,0.3585 0.2906,0.6491 0.6491 0.6491c 0.3585,0.0000 0.6491,-0.2906 0.6491 -0.6491Z"/>
  </g>
  <g stroke-linejoin="miter" stroke-opacity="1.0" fill-opacity="1.0" stroke="rgb(102,102,102)" stroke-width="0.0" fill="rgb(255,0,0)" stroke-linecap="butt" stroke-miterlimit="10.0">
    <path d="M 69.4252,128.4880 c 0.0000,-0.3585 -0.2906,-0.6491 -0.6491 -0.6491c -0.3585,-0.0000 -0.6491,0.2906 -0.6491 0.6491c -0.0000,0.3585 0.2906,0.6491 0.6491 0.6491c 0.3585,0.0000 0.6491,-0.2906 0.6491 -0.6491Z"/>
  </g>
  <g stroke-linejoin="miter" stroke-opacity="1.0" fill-opacity="1.0" stroke="rgb(102,102,102)" stroke-width="0.0" fill="rgb(255,0,0)" stroke-linecap="butt" stroke-miterlimit="10.0">
    <path d="M 68.0441,129.1404 c 0.0000,-0.3585 -0.2906,-0.6491 -0.6491 -0.6491c -0.3585,-0.0000 -0.6491,0.2906 -0.6491 0.6491c -0.0000,0.3585 0.2906,0.6491 0.6491 0.6491c 0.3585,0.0000 0.6491,-0.2906 0.6491 -0.6491Z"/>
  </g>
  <g stroke-linejoin="miter" stroke-opacity="1.0" fill-opacity="1.0" stroke="rgb(102,102,102)" stroke-width="0.0" fill="rgb(255,0,0)" stroke-linecap="butt" stroke-miterlimit="10.0">
    <path d="M 66.6629,129.7927 c 0.0000,-0.3585 -0.2906,-0.6491 -0.6491 -0.6491c -0.3585,-0.0000 -0.6491,0.2906 -0.6491 0.6491c -0.0000,0.3585 0.2906,0.6491 0.6491 0.6491c 0.3585,0.0000 0.6491,-0.2906 0.6491 -0.6491Z"/>
  </g>
  <g stroke-linejoin="miter" stroke-opacity="1.0" fill-opacity="1.0" stroke="rgb(102,102,102)" stroke-width="0.0" fill="rgb(255,0,0)" stroke-linecap="butt" stroke-miterlimit="10.0">
    <path d="M 65.2818,131.7499 c 0.0000,-0.3585 -0.2906,-0.6491 -0.6491 -0.6491c -0.3585,-0.0000 -0.6491,0.2906 -0.6491 0.6491c -0.0000,0.3585 0.2906,0.6491 0.6491 0.6491c 0.3585,0.0000 0.6491,-0.2906 0.6491 -0.6491Z"/>
  </g>
  <g stroke-linejoin="miter" stroke-opacity="1.0" fill-opacity="1.0" stroke="rgb(102,102,102)" stroke-width="0.0" fill="rgb(255,0,0)" stroke-linecap="butt" stroke-miterlimit="10.0">
    <path d="M 63.9007,132.4023 c 0.0000,-0.3585 -0.2906,-0.6491 -0.6491 -0.6491c -0.3585,-0.0000 -0.6491,0.2906 -0.6491 0.6491c -0.0000,0.3585 0.2906,0.6491 0.6491 0.6491c 0.3585,0.0000 0.6491,-0.2906 0.6491 -0.6491Z"/>
  </g>
  <g stroke-linejoin="miter" stroke-opacity="1.0" fill-opacity="1.0" stroke="rgb(102,102,102)" stroke-width="0.0" fill="rgb(255,0,0)" stroke-linecap="butt" stroke-miterlimit="10.0">
    <path d="M 62.5196,133.0547 c 0.0000,-0.3585 -0.2906,-0.6491 -0.6491 -0.6491c -0.3585,-0.0000 -0.6491,0.2906 -0.6491 0.6491c -0.0000,0.3585 0.2906,0.6491 0.6491 0.6491c 0.3585,0.0000 0.6491,-0.2906 0.6491 -0.6491Z"/>
  </g>
  <g stroke-linejoin="miter" stroke-opacity="1.0" fill-opacity="1.0" stroke="rgb(102,102,102)" stroke-width="0.0" fill="rgb(255,0,0)" stroke-linecap="butt" stroke-miterlimit="10.0">
    <path d="M 61.1385,133.7071 c 0.0000,-0.3585 -0.2906,-0.6491 -0.6491 -0.6491c -0.3585,-0.0000 -0.6491,0.2906 -0.6491 0.6491c -0.0000,0.3585 0.2906,0.6491 0.6491 0.6491c 0.3585,0.0000 0.6491,-0.2906 0.6491 -0.6491Z"/>
  </g>
  <g stroke-linejoin="miter" stroke-opacity="1.0" fill-opacity="1.0" stroke="rgb(102,102,102)" stroke-width="0.0" fill="rgb(255,0,0)" stroke-linecap="butt" stroke-miterlimit="10.0">
    <path d="M 59.7573,134.3595 c 0.0000,-0.3585 -0.2906,-0.6491 -0.6491 -0.6491c -0.3585,-0.0000 -0.6491,0.2906 -0.6491 0.6491c -0.0000,0.3585 0.2906,0.6491 0.6491 0.6491c 0.3585,0.0000 0.6491,-0.2906 0.6491 -0.6491Z"/>
  </g>
  <g stroke-linejoin="miter" stroke-opacity="1.0" fill-opacity="1.0" stroke="rgb(102,102,102)" stroke-width="0.0" fill="rgb(255,0,0)" stroke-linecap="butt" stroke-miterlimit="10.0">
    <path d="M 58.3762,136.3166 c 0.0000,-0.3585 -0.2906,-0.6491 -0.6491 -0.6491c -0.3585,-0.0000 -0.6491,0.2906 -0.6491 0.6491c -0.0000,0.3585 0.2906,0.6491 0.6491 0.6491c 0.3585,0.0000 0.6491,-0.2906 0.6491 -0.6491Z"/>
  </g>
  <g stroke-linejoin="miter" stroke-opacity="0.0" fill-opacity="0.1" stroke="rgb(0,0,0)" stroke-width="0.0" fill="rgb(0,0,0)" stroke-linecap="butt" stroke-miterlimit="10.0">
    <path d="M 52.5341,136.3166 l -0.0000,-129.8254 h -2.5965 l -0.0000,129.8254 Z"/>
  </g>
  <g stroke-linejoin="miter" stroke-opacity="0.0" fill-opacity="0.0" stroke="rgb(0,0,0)" fill-rule="evenodd" stroke-width="0.0" fill="rgb(0,0,0)" stroke-linecap="butt" stroke-miterlimit="10.0">
    <path d="M 46.6919,24.1524 l -0.0000,-8.9112 h -13.3668 l -0.0000,8.9112 Z"/>
  </g>
  <g stroke-linejoin="miter" stroke-opacity="1.0" fill-opacity="0.6" font-size="8.101102603612171px" stroke="rgb(0,0,0)" fill-rule="evenodd" stroke-width="0.0" fill="rgb(0,0,0)" stroke-linecap="butt" stroke-miterlimit="10.0">
    <text dominant-baseline="middle" transform="matrix(1.0000,-0.0000,0.0000,1.0000,40.0085,19.6968)" stroke="none" text-anchor="middle">180
    </text>
  </g>
  <g stroke-linejoin="miter" stroke-opacity="0.6" fill-opacity="0.0" stroke="rgb(0,0,0)" stroke-width="1.1351298530992235" fill="rgb(0,0,0)" stroke-linecap="butt" stroke-miterlimit="10.0">
    <path d="M 48.6393,18.8867 h 3.8948 "/>
  </g>
  <g stroke-linejoin="miter" stroke-opacity="0.0" fill-opacity="0.0" stroke="rgb(0,0,0)" fill-rule="evenodd" stroke-width="0.0" fill="rgb(0,0,0)" stroke-linecap="butt" stroke-miterlimit="10.0">
    <path d="M 46.6919,37.2001 l -0.0000,-8.9112 h -13.3668 l -0.0000,8.9112 Z"/>
  </g>
  <g stroke-linejoin="miter" stroke-opacity="1.0" fill-opacity="0.6" font-size="8.101102603612171px" stroke="rgb(0,0,0)" fill-rule="evenodd" stroke-width="0.0" fill="rgb(0,0,0)" stroke-linecap="butt" stroke-miterlimit="10.0">
    <text dominant-baseline="middle" transform="matrix(1.0000,-0.0000,0.0000,1.0000,40.0085,32.7445)" stroke="none" text-anchor="middle">160
    </text>
  </g>
  <g stroke-linejoin="miter" stroke-opacity="0.6" fill-opacity="0.0" stroke="rgb(0,0,0)" stroke-width="1.1351298530992235" fill="rgb(0,0,0)" stroke-linecap="butt" stroke-miterlimit="10.0">
    <path d="M 48.6393,31.9344 h 3.8948 "/>
  </g>
  <g stroke-linejoin="miter" stroke-opacity="0.0" fill-opacity="0.0" stroke="rgb(0,0,0)" fill-rule="evenodd" stroke-width="0.0" fill="rgb(0,0,0)" stroke-linecap="butt" stroke-miterlimit="10.0">
    <path d="M 46.6919,50.2479 l -0.0000,-8.9112 h -13.3668 l -0.0000,8.9112 Z"/>
  </g>
  <g stroke-linejoin="miter" stroke-opacity="1.0" fill-opacity="0.6" font-size="8.101102603612171px" stroke="rgb(0,0,0)" fill-rule="evenodd" stroke-width="0.0" fill="rgb(0,0,0)" stroke-linecap="butt" stroke-miterlimit="10.0">
    <text dominant-baseline="middle" transform="matrix(1.0000,-0.0000,0.0000,1.0000,40.0085,45.7923)" stroke="none" text-anchor="middle">140
    </text>
  </g>
  <g stroke-linejoin="miter" stroke-opacity="0.6" fill-opacity="0.0" stroke="rgb(0,0,0)" stroke-width="1.1351298530992235" fill="rgb(0,0,0)" stroke-linecap="butt" stroke-miterlimit="10.0">
    <path d="M 48.6393,44.9822 h 3.8948 "/>
  </g>
  <g stroke-linejoin="miter" stroke-opacity="0.0" fill-opacity="0.0" stroke="rgb(0,0,0)" fill-rule="evenodd" stroke-width="0.0" fill="rgb(0,0,0)" stroke-linecap="butt" stroke-miterlimit="10.0">
    <path d="M 46.6919,63.2957 l -0.0000,-8.9112 h -13.3668 l -0.0000,8.9112 Z"/>
  </g>
  <g stroke-linejoin="miter" stroke-opacity="1.0" fill-opacity="0.6" font-size="8.101102603612171px" stroke="rgb(0,0,0)" fill-rule="evenodd" stroke-width="0.0" fill="rgb(0,0,0)" stroke-linecap="butt" stroke-miterlimit="10.0">
    <text dominant-baseline="middle" transform="matrix(1.0000,-0.0000,0.0000,1.0000,40.0085,58.8401)" stroke="none" text-anchor="middle">120
    </text>
  </g>
  <g stroke-linejoin="miter" stroke-opacity="0.6" fill-opacity="0.0" stroke="rgb(0,0,0)" stroke-width="1.1351298530992235" fill="rgb(0,0,0)" stroke-linecap="butt" stroke-miterlimit="10.0">
    <path d="M 48.6393,58.0300 h 3.8948 "/>
  </g>
  <g stroke-linejoin="miter" stroke-opacity="0.0" fill-opacity="0.0" stroke="rgb(0,0,0)" fill-rule="evenodd" stroke-width="0.0" fill="rgb(0,0,0)" stroke-linecap="butt" stroke-miterlimit="10.0">
    <path d="M 46.6919,76.3435 l -0.0000,-8.9112 h -13.3668 l -0.0000,8.9112 Z"/>
  </g>
  <g stroke-linejoin="miter" stroke-opacity="1.0" fill-opacity="0.6" font-size="8.101102603612171px" stroke="rgb(0,0,0)" fill-rule="evenodd" stroke-width="0.0" fill="rgb(0,0,0)" stroke-linecap="butt" stroke-miterlimit="10.0">
    <text dominant-baseline="middle" transform="matrix(1.0000,-0.0000,0.0000,1.0000,40.0085,71.8879)" stroke="none" text-anchor="middle">100
    </text>
  </g>
  <g stroke-linejoin="miter" stroke-opacity="0.6" fill-opacity="0.0" stroke="rgb(0,0,0)" stroke-width="1.1351298530992235" fill="rgb(0,0,0)" stroke-linecap="butt" stroke-miterlimit="10.0">
    <path d="M 48.6393,71.0778 h 3.8948 "/>
  </g>
  <g stroke-linejoin="miter" stroke-opacity="0.0" fill-opacity="0.0" stroke="rgb(0,0,0)" fill-rule="evenodd" stroke-width="0.0" fill="rgb(0,0,0)" stroke-linecap="butt" stroke-miterlimit="10.0">
    <path d="M 46.6919,89.3912 l -0.0000,-8.9112 h -8.9112 l -0.0000,8.9112 Z"/>
  </g>
  <g stroke-linejoin="miter" stroke-opacity="1.0" fill-opacity="0.6" font-size="8.101102603612171px" stroke="rgb(0,0,0)" fill-rule="evenodd" stroke-width="0.0" fill="rgb(0,0,0)" stroke-linecap="butt" stroke-miterlimit="10.0">
    <text dominant-baseline="middle" transform="matrix(1.0000,-0.0000,0.0000,1.0000,42.2363,84.9356)" stroke="none" text-anchor="middle">80
    </text>
  </g>
  <g stroke-linejoin="miter" stroke-opacity="0.6" fill-opacity="0.0" stroke="rgb(0,0,0)" stroke-width="1.1351298530992235" fill="rgb(0,0,0)" stroke-linecap="butt" stroke-miterlimit="10.0">
    <path d="M 48.6393,84.1255 h 3.8948 "/>
  </g>
  <g stroke-linejoin="miter" stroke-opacity="0.0" fill-opacity="0.0" stroke="rgb(0,0,0)" fill-rule="evenodd" stroke-width="0.0" fill="rgb(0,0,0)" stroke-linecap="butt" stroke-miterlimit="10.0">
    <path d="M 46.6919,102.4390 l -0.0000,-8.9112 h -8.9112 l -0.0000,8.9112 Z"/>
  </g>
  <g stroke-linejoin="miter" stroke-opacity="1.0" fill-opacity="0.6" font-size="8.101102603612171px" stroke="rgb(0,0,0)" fill-rule="evenodd" stroke-width="0.0" fill="rgb(0,0,0)" stroke-linecap="butt" stroke-miterlimit="10.0">
    <text dominant-baseline="middle" transform="matrix(1.0000,-0.0000,0.0000,1.0000,42.2363,97.9834)" stroke="none" text-anchor="middle">60
    </text>
  </g>
  <g stroke-linejoin="miter" stroke-opacity="0.6" fill-opacity="0.0" stroke="rgb(0,0,0)" stroke-width="1.1351298530992235" fill="rgb(0,0,0)" stroke-linecap="butt" stroke-miterlimit="10.0">
    <path d="M 48.6393,97.1733 h 3.8948 "/>
  </g>
  <g stroke-linejoin="miter" stroke-opacity="0.0" fill-opacity="0.0" stroke="rgb(0,0,0)" fill-rule="evenodd" stroke-width="0.0" fill="rgb(0,0,0)" stroke-linecap="butt" stroke-miterlimit="10.0">
    <path d="M 46.6919,115.4868 l -0.0000,-8.9112 h -8.9112 l -0.0000,8.9112 Z"/>
  </g>
  <g stroke-linejoin="miter" stroke-opacity="1.0" fill-opacity="0.6" font-size="8.101102603612171px" stroke="rgb(0,0,0)" fill-rule="evenodd" stroke-width="0.0" fill="rgb(0,0,0)" stroke-linecap="butt" stroke-miterlimit="10.0">
    <text dominant-baseline="middle" transform="matrix(1.0000,-0.0000,0.0000,1.0000,42.2363,111.0312)" stroke="none" text-anchor="middle">40
    </text>
  </g>
  <g stroke-linejoin="miter" stroke-opacity="0.6" fill-opacity="0.0" stroke="rgb(0,0,0)" stroke-width="1.1351298530992235" fill="rgb(0,0,0)" stroke-linecap="butt" stroke-miterlimit="10.0">
    <path d="M 48.6393,110.2211 h 3.8948 "/>
  </g>
  <g stroke-linejoin="miter" stroke-opacity="0.0" fill-opacity="0.0" stroke="rgb(0,0,0)" fill-rule="evenodd" stroke-width="0.0" fill="rgb(0,0,0)" stroke-linecap="butt" stroke-miterlimit="10.0">
    <path d="M 46.6919,128.5346 l -0.0000,-8.9112 h -8.9112 l -0.0000,8.9112 Z"/>
  </g>
  <g stroke-linejoin="miter" stroke-opacity="1.0" fill-opacity="0.6" font-size="8.101102603612171px" stroke="rgb(0,0,0)" fill-rule="evenodd" stroke-width="0.0" fill="rgb(0,0,0)" stroke-linecap="butt" stroke-miterlimit="10.0">
    <text dominant-baseline="middle" transform="matrix(1.0000,-0.0000,0.0000,1.0000,42.2363,124.0790)" stroke="none" text-anchor="middle">20
    </text>
  </g>
  <g stroke-linejoin="miter" stroke-opacity="0.6" fill-opacity="0.0" stroke="rgb(0,0,0)" stroke-width="1.1351298530992235" fill="rgb(0,0,0)" stroke-linecap="butt" stroke-miterlimit="10.0">
    <path d="M 48.6393,123.2689 h 3.8948 "/>
  </g>
  <g stroke-linejoin="miter" stroke-opacity="0.0" fill-opacity="0.0" stroke="rgb(0,0,0)" fill-rule="evenodd" stroke-width="0.0" fill="rgb(0,0,0)" stroke-linecap="butt" stroke-miterlimit="10.0">
    <path d="M 46.6919,141.5823 l -0.0000,-8.9112 h -4.4556 l -0.0000,8.9112 Z"/>
  </g>
  <g stroke-linejoin="miter" stroke-opacity="1.0" fill-opacity="0.6" font-size="8.101102603612171px" stroke="rgb(0,0,0)" fill-rule="evenodd" stroke-width="0.0" fill="rgb(0,0,0)" stroke-linecap="butt" stroke-miterlimit="10.0">
    <text dominant-baseline="middle" transform="matrix(1.0000,-0.0000,0.0000,1.0000,44.4641,137.1267)" stroke="none" text-anchor="middle">0
    </text>
  </g>
  <g stroke-linejoin="miter" stroke-opacity="0.6" fill-opacity="0.0" stroke="rgb(0,0,0)" stroke-width="1.1351298530992235" fill="rgb(0,0,0)" stroke-linecap="butt" stroke-miterlimit="10.0">
    <path d="M 48.6393,136.3166 h 3.8948 "/>
  </g>
  <g stroke-linejoin="miter" stroke-opacity="0.0" fill-opacity="0.1" stroke="rgb(0,0,0)" stroke-width="0.0" fill="rgb(0,0,0)" stroke-linecap="butt" stroke-miterlimit="10.0">
    <path d="M 252.4651,144.1062 l -0.0000,-2.5965 h -194.7380 l -0.0000,2.5965 Z"/>
  </g>
  <g stroke-linejoin="miter" stroke-opacity="0.0" fill-opacity="0.0" stroke="rgb(0,0,0)" fill-rule="evenodd" stroke-width="0.0" fill="rgb(0,0,0)" stroke-linecap="butt" stroke-miterlimit="10.0">
    <path d="M 261.3003,188.3094 l 6.3012,-6.3012 l -34.6565,-34.6565 l -6.3012,6.3012 Z"/>
  </g>
  <g stroke-linejoin="miter" stroke-opacity="1.0" fill-opacity="0.6" font-size="8.10110260361217px" stroke="rgb(0,0,0)" fill-rule="evenodd" stroke-width="0.0" fill="rgb(0,0,0)" stroke-linecap="butt" stroke-miterlimit="10.0">
    <text dominant-baseline="middle" transform="matrix(0.7071,0.7071,-0.7071,0.7071,229.7944,150.5024)" stroke="none" text-anchor="start">30 Nov 2018
    </text>
  </g>
  <g stroke-linejoin="miter" stroke-opacity="0.6" fill-opacity="0.0" stroke="rgb(0,0,0)" stroke-width="1.1351298530992235" fill="rgb(0,0,0)" stroke-linecap="butt" stroke-miterlimit="10.0">
    <path d="M 230.3672,141.5096 v 3.8948 "/>
  </g>
  <g stroke-linejoin="miter" stroke-opacity="0.0" fill-opacity="0.0" stroke="rgb(0,0,0)" fill-rule="evenodd" stroke-width="0.0" fill="rgb(0,0,0)" stroke-linecap="butt" stroke-miterlimit="10.0">
    <path d="M 230.9156,188.3094 l 6.3012,-6.3012 l -34.6565,-34.6565 l -6.3012,6.3012 Z"/>
  </g>
  <g stroke-linejoin="miter" stroke-opacity="1.0" fill-opacity="0.6" font-size="8.10110260361217px" stroke="rgb(0,0,0)" fill-rule="evenodd" stroke-width="0.0" fill="rgb(0,0,0)" stroke-linecap="butt" stroke-miterlimit="10.0">
    <text dominant-baseline="middle" transform="matrix(0.7071,0.7071,-0.7071,0.7071,199.4097,150.5024)" stroke="none" text-anchor="start">31 Oct 2018
    </text>
  </g>
  <g stroke-linejoin="miter" stroke-opacity="0.6" fill-opacity="0.0" stroke="rgb(0,0,0)" stroke-width="1.1351298530992235" fill="rgb(0,0,0)" stroke-linecap="butt" stroke-miterlimit="10.0">
    <path d="M 199.9825,141.5096 v 3.8948 "/>
  </g>
  <g stroke-linejoin="miter" stroke-opacity="0.0" fill-opacity="0.0" stroke="rgb(0,0,0)" fill-rule="evenodd" stroke-width="0.0" fill="rgb(0,0,0)" stroke-linecap="butt" stroke-miterlimit="10.0">
    <path d="M 199.1498,188.3094 l 6.3012,-6.3012 l -34.6565,-34.6565 l -6.3012,6.3012 Z"/>
  </g>
  <g stroke-linejoin="miter" stroke-opacity="1.0" fill-opacity="0.6" font-size="8.10110260361217px" stroke="rgb(0,0,0)" fill-rule="evenodd" stroke-width="0.0" fill="rgb(0,0,0)" stroke-linecap="butt" stroke-miterlimit="10.0">
    <text dominant-baseline="middle" transform="matrix(0.7071,0.7071,-0.7071,0.7071,167.6439,150.5024)" stroke="none" text-anchor="start">30 Sep 2018
    </text>
  </g>
  <g stroke-linejoin="miter" stroke-opacity="0.6" fill-opacity="0.0" stroke="rgb(0,0,0)" stroke-width="1.1351298530992235" fill="rgb(0,0,0)" stroke-linecap="butt" stroke-miterlimit="10.0">
    <path d="M 168.2168,141.5096 v 3.8948 "/>
  </g>
  <g stroke-linejoin="miter" stroke-opacity="0.0" fill-opacity="0.0" stroke="rgb(0,0,0)" fill-rule="evenodd" stroke-width="0.0" fill="rgb(0,0,0)" stroke-linecap="butt" stroke-miterlimit="10.0">
    <path d="M 171.5274,188.3094 l 6.3012,-6.3012 l -34.6565,-34.6565 l -6.3012,6.3012 Z"/>
  </g>
  <g stroke-linejoin="miter" stroke-opacity="1.0" fill-opacity="0.6" font-size="8.10110260361217px" stroke="rgb(0,0,0)" fill-rule="evenodd" stroke-width="0.0" fill="rgb(0,0,0)" stroke-linecap="butt" stroke-miterlimit="10.0">
    <text dominant-baseline="middle" transform="matrix(0.7071,0.7071,-0.7071,0.7071,140.0215,150.5024)" stroke="none" text-anchor="start">31 Aug 2018
    </text>
  </g>
  <g stroke-linejoin="miter" stroke-opacity="0.6" fill-opacity="0.0" stroke="rgb(0,0,0)" stroke-width="1.1351298530992235" fill="rgb(0,0,0)" stroke-linecap="butt" stroke-miterlimit="10.0">
    <path d="M 140.5943,141.5096 v 3.8948 "/>
  </g>
  <g stroke-linejoin="miter" stroke-opacity="0.0" fill-opacity="0.0" stroke="rgb(0,0,0)" fill-rule="evenodd" stroke-width="0.0" fill="rgb(0,0,0)" stroke-linecap="butt" stroke-miterlimit="10.0">
    <path d="M 139.7616,188.3094 l 6.3012,-6.3012 l -34.6565,-34.6565 l -6.3012,6.3012 Z"/>
  </g>
  <g stroke-linejoin="miter" stroke-opacity="1.0" fill-opacity="0.6" font-size="8.10110260361217px" stroke="rgb(0,0,0)" fill-rule="evenodd" stroke-width="0.0" fill="rgb(0,0,0)" stroke-linecap="butt" stroke-miterlimit="10.0">
    <text dominant-baseline="middle" transform="matrix(0.7071,0.7071,-0.7071,0.7071,108.2557,150.5024)" stroke="none" text-anchor="start">31 Jul 2018
    </text>
  </g>
  <g stroke-linejoin="miter" stroke-opacity="0.6" fill-opacity="0.0" stroke="rgb(0,0,0)" stroke-width="1.1351298530992235" fill="rgb(0,0,0)" stroke-linecap="butt" stroke-miterlimit="10.0">
    <path d="M 108.8286,141.5096 v 3.8948 "/>
  </g>
  <g stroke-linejoin="miter" stroke-opacity="0.0" fill-opacity="0.0" stroke="rgb(0,0,0)" fill-rule="evenodd" stroke-width="0.0" fill="rgb(0,0,0)" stroke-linecap="butt" stroke-miterlimit="10.0">
    <path d="M 109.3770,188.3094 l 6.3012,-6.3012 l -34.6565,-34.6565 l -6.3012,6.3012 Z"/>
  </g>
  <g stroke-linejoin="miter" stroke-opacity="1.0" fill-opacity="0.6" font-size="8.10110260361217px" stroke="rgb(0,0,0)" fill-rule="evenodd" stroke-width="0.0" fill="rgb(0,0,0)" stroke-linecap="butt" stroke-miterlimit="10.0">
    <text dominant-baseline="middle" transform="matrix(0.7071,0.7071,-0.7071,0.7071,77.8711,150.5024)" stroke="none" text-anchor="start">30 Jun 2018
    </text>
  </g>
  <g stroke-linejoin="miter" stroke-opacity="0.6" fill-opacity="0.0" stroke="rgb(0,0,0)" stroke-width="1.1351298530992235" fill="rgb(0,0,0)" stroke-linecap="butt" stroke-miterlimit="10.0">
    <path d="M 78.4439,141.5096 v 3.8948 "/>
  </g>
  <g stroke-linejoin="miter" stroke-opacity="0.0" fill-opacity="0.0" stroke="rgb(0,0,0)" stroke-width="0.0" fill="rgb(0,0,0)" stroke-linecap="butt" stroke-miterlimit="10.0">
    <path d="M 252.4651,136.3166 l -0.0000,-129.8254 h -194.7380 l -0.0000,129.8254 Z"/>
  </g>
</svg>