<?xml version="1.0" encoding="UTF-8"?>
<!DOCTYPE svg PUBLIC "-//W3C//DTD SVG 1.1//EN"
    "http://www.w3.org/Graphics/SVG/1.1/DTD/svg11.dtd">
<svg xmlns="http://www.w3.org/2000/svg" height="400.0000" stroke-opacity="1" viewBox="0 0 600 400" font-size="1" width="600.0000" xmlns:xlink="http://www.w3.org/1999/xlink" stroke="rgb(0,0,0)" version="1.1">
  <defs>
  </defs>
  <g stroke-linejoin="miter" stroke-opacity="0.0" fill-opacity="0.0" stroke="rgb(0,0,0)" fill-rule="evenodd" stroke-width="0.0" fill="rgb(0,0,0)" stroke-linecap="butt" stroke-miterlimit="10.0">
    <path d="M 510.9891,22.4855 l -0.0000,-17.8224 h -98.0233 l -0.0000,17.8224 Z"/>
  </g>
  <g stroke-linejoin="miter" stroke-opacity="1.0" fill-opacity="0.33" font-size="16.202205207224342px" stroke="rgb(0,0,0)" fill-rule="evenodd" stroke-width="0.0" fill="rgb(0,0,0)" stroke-linecap="butt" stroke-miterlimit="10.0">
    <text dominant-baseline="middle" transform="matrix(1.0000,-0.0000,0.0000,1.0000,461.9774,13.5743)" stroke="none" text-anchor="middle">Fri, 30 Nov
    </text>
  </g>
  <g stroke-linejoin="miter" stroke-opacity="1.0" fill-opacity="1.0" stroke="rgb(102,102,102)" stroke-width="0.0" fill="rgb(0,0,255)" stroke-linecap="butt" stroke-miterlimit="10.0">
    <path d="M 467.1704,45.8541 l -0.0000,-10.3860 h -10.3860 l -0.0000,10.3860 Z"/>
  </g>
  <g stroke-linejoin="miter" stroke-opacity="0.0" fill-opacity="0.0" stroke="rgb(0,0,0)" fill-rule="evenodd" stroke-width="0.0" fill="rgb(0,0,0)" stroke-linecap="butt" stroke-miterlimit="10.0">
    <path d="M 450.2198,62.0262 l -0.0000,-17.8224 h -98.0233 l -0.0000,17.8224 Z"/>
  </g>
  <g stroke-linejoin="miter" stroke-opacity="1.0" fill-opacity="0.33" font-size="16.202205207224342px" stroke="rgb(0,0,0)" fill-rule="evenodd" stroke-width="0.0" fill="rgb(0,0,0)" stroke-linecap="butt" stroke-miterlimit="10.0">
    <text dominant-baseline="middle" transform="matrix(1.0000,-0.0000,0.0000,1.0000,401.2081,53.1150)" stroke="none" text-anchor="middle">Wed, 31 Oct
    </text>
  </g>
  <g stroke-linejoin="miter" stroke-opacity="1.0" fill-opacity="1.0" stroke="rgb(102,102,102)" stroke-width="0.0" fill="rgb(0,0,255)" stroke-linecap="butt" stroke-miterlimit="10.0">
    <path d="M 406.4011,85.3948 l -0.0000,-10.3860 h -10.3860 l -0.0000,10.3860 Z"/>
  </g>
  <g stroke-linejoin="miter" stroke-opacity="0.0" fill-opacity="0.0" stroke="rgb(0,0,0)" fill-rule="evenodd" stroke-width="0.0" fill="rgb(0,0,0)" stroke-linecap="butt" stroke-miterlimit="10.0">
    <path d="M 386.6882,105.5210 l -0.0000,-17.8224 h -98.0233 l -0.0000,17.8224 Z"/>
  </g>
  <g stroke-linejoin="miter" stroke-opacity="1.0" fill-opacity="0.33" font-size="16.202205207224342px" stroke="rgb(0,0,0)" fill-rule="evenodd" stroke-width="0.0" fill="rgb(0,0,0)" stroke-linecap="butt" stroke-miterlimit="10.0">
    <text dominant-baseline="middle" transform="matrix(1.0000,-0.0000,0.0000,1.0000,337.6765,96.6098)" stroke="none" text-anchor="middle">Fri, 28 Sep
    </text>
  </g>
  <g stroke-linejoin="miter" stroke-opacity="1.0" fill-opacity="1.0" stroke="rgb(102,102,102)" stroke-width="0.0" fill="rgb(0,0,255)" stroke-linecap="butt" stroke-miterlimit="10.0">
    <path d="M 342.8696,128.8896 l -0.0000,-10.3860 h -10.3860 l -0.0000,10.3860 Z"/>
  </g>
  <g stroke-linejoin="miter" stroke-opacity="0.0" fill-opacity="0.0" stroke="rgb(0,0,0)" fill-rule="evenodd" stroke-width="0.0" fill="rgb(0,0,0)" stroke-linecap="butt" stroke-miterlimit="10.0">
    <path d="M 331.4434,142.4257 l -0.0000,-17.8224 h -98.0233 l -0.0000,17.8224 Z"/>
  </g>
  <g stroke-linejoin="miter" stroke-opacity="1.0" fill-opacity="0.33" font-size="16.202205207224342px" stroke="rgb(0,0,0)" fill-rule="evenodd" stroke-width="0.0" fill="rgb(0,0,0)" stroke-linecap="butt" stroke-miterlimit="10.0">
    <text dominant-baseline="middle" transform="matrix(1.0000,-0.0000,0.0000,1.0000,282.4317,133.5145)" stroke="none" text-anchor="middle">Fri, 31 Aug
    </text>
  </g>
  <g stroke-linejoin="miter" stroke-opacity="1.0" fill-opacity="1.0" stroke="rgb(102,102,102)" stroke-width="0.0" fill="rgb(0,0,255)" stroke-linecap="butt" stroke-miterlimit="10.0">
    <path d="M 287.6247,165.7942 l -0.0000,-10.3860 h -10.3860 l -0.0000,10.3860 Z"/>
  </g>
  <g stroke-linejoin="miter" stroke-opacity="0.0" fill-opacity="0.0" stroke="rgb(0,0,0)" fill-rule="evenodd" stroke-width="0.0" fill="rgb(0,0,0)" stroke-linecap="butt" stroke-miterlimit="10.0">
    <path d="M 267.9118,183.2844 l -0.0000,-17.8224 h -98.0233 l -0.0000,17.8224 Z"/>
  </g>
  <g stroke-linejoin="miter" stroke-opacity="1.0" fill-opacity="0.33" font-size="16.202205207224342px" stroke="rgb(0,0,0)" fill-rule="evenodd" stroke-width="0.0" fill="rgb(0,0,0)" stroke-linecap="butt" stroke-miterlimit="10.0">
    <text dominant-baseline="middle" transform="matrix(1.0000,-0.0000,0.0000,1.0000,218.9001,174.3732)" stroke="none" text-anchor="middle">Tue, 31 Jul
    </text>
  </g>
  <g stroke-linejoin="miter" stroke-opacity="1.0" fill-opacity="1.0" stroke="rgb(102,102,102)" stroke-width="0.0" fill="rgb(0,0,255)" stroke-linecap="butt" stroke-miterlimit="10.0">
    <path d="M 224.0932,206.6530 l -0.0000,-10.3860 h -10.3860 l -0.0000,10.3860 Z"/>
  </g>
  <g stroke-linejoin="miter" stroke-opacity="0.0" fill-opacity="0.0" stroke="rgb(0,0,0)" fill-rule="evenodd" stroke-width="0.0" fill="rgb(0,0,0)" stroke-linecap="butt" stroke-miterlimit="10.0">
    <path d="M 207.1425,225.4612 l -0.0000,-17.8224 h -98.0233 l -0.0000,17.8224 Z"/>
  </g>
  <g stroke-linejoin="miter" stroke-opacity="1.0" fill-opacity="0.33" font-size="16.202205207224342px" stroke="rgb(0,0,0)" fill-rule="evenodd" stroke-width="0.0" fill="rgb(0,0,0)" stroke-linecap="butt" stroke-miterlimit="10.0">
    <text dominant-baseline="middle" transform="matrix(1.0000,-0.0000,0.0000,1.0000,158.1308,216.5500)" stroke="none" text-anchor="middle">Fri, 29 Jun
    </text>
  </g>
  <g stroke-linejoin="miter" stroke-opacity="1.0" fill-opacity="1.0" stroke="rgb(102,102,102)" stroke-width="0.0" fill="rgb(0,0,255)" stroke-linecap="butt" stroke-miterlimit="10.0">
    <path d="M 163.3238,248.8297 l -0.0000,-10.3860 h -10.3860 l -0.0000,10.3860 Z"/>
  </g>
  <g stroke-linejoin="miter" stroke-opacity="1.0" fill-opacity="1.0" stroke="rgb(102,102,102)" stroke-width="0.0" fill="rgb(255,0,0)" stroke-linecap="butt" stroke-miterlimit="10.0">
    <path d="M 504.7093,12.9825 c 0.0000,-0.7170 -0.5812,-1.2983 -1.2983 -1.2983c -0.7170,-0.0000 -1.2983,0.5812 -1.2983 1.2983c -0.0000,0.7170 0.5812,1.2983 1.2983 1.2983c 0.7170,0.0000 1.2983,-0.5812 1.2983 -1.2983Z"/>
  </g>
  <g stroke-linejoin="miter" stroke-opacity="1.0" fill-opacity="1.0" stroke="rgb(102,102,102)" stroke-width="0.0" fill="rgb(255,0,0)" stroke-linecap="butt" stroke-miterlimit="10.0">
    <path d="M 501.9471,14.3006 c 0.0000,-0.7170 -0.5812,-1.2983 -1.2983 -1.2983c -0.7170,-0.0000 -1.2983,0.5812 -1.2983 1.2983c -0.0000,0.7170 0.5812,1.2983 1.2983 1.2983c 0.7170,0.0000 1.2983,-0.5812 1.2983 -1.2983Z"/>
  </g>
  <g stroke-linejoin="miter" stroke-opacity="1.0" fill-opacity="1.0" stroke="rgb(102,102,102)" stroke-width="0.0" fill="rgb(255,0,0)" stroke-linecap="butt" stroke-miterlimit="10.0">
    <path d="M 499.1848,15.6186 c 0.0000,-0.7170 -0.5812,-1.2983 -1.2983 -1.2983c -0.7170,-0.0000 -1.2983,0.5812 -1.2983 1.2983c -0.0000,0.7170 0.5812,1.2983 1.2983 1.2983c 0.7170,0.0000 1.2983,-0.5812 1.2983 -1.2983Z"/>
  </g>
  <g stroke-linejoin="miter" stroke-opacity="1.0" fill-opacity="1.0" stroke="rgb(102,102,102)" stroke-width="0.0" fill="rgb(255,0,0)" stroke-linecap="butt" stroke-miterlimit="10.0">
    <path d="M 496.4226,16.9366 c 0.0000,-0.7170 -0.5812,-1.2983 -1.2983 -1.2983c -0.7170,-0.0000 -1.2983,0.5812 -1.2983 1.2983c -0.0000,0.7170 0.5812,1.2983 1.2983 1.2983c 0.7170,0.0000 1.2983,-0.5812 1.2983 -1.2983Z"/>
  </g>
  <g stroke-linejoin="miter" stroke-opacity="1.0" fill-opacity="1.0" stroke="rgb(102,102,102)" stroke-width="0.0" fill="rgb(255,0,0)" stroke-linecap="butt" stroke-miterlimit="10.0">
    <path d="M 493.6603,18.2546 c 0.0000,-0.7170 -0.5812,-1.2983 -1.2983 -1.2983c -0.7170,-0.0000 -1.2983,0.5812 -1.2983 1.2983c -0.0000,0.7170 0.5812,1.2983 1.2983 1.2983c 0.7170,0.0000 1.2983,-0.5812 1.2983 -1.2983Z"/>
  </g>
  <g stroke-linejoin="miter" stroke-opacity="1.0" fill-opacity="1.0" stroke="rgb(102,102,102)" stroke-width="0.0" fill="rgb(255,0,0)" stroke-linecap="butt" stroke-miterlimit="10.0">
    <path d="M 490.8981,22.2087 c 0.0000,-0.7170 -0.5812,-1.2983 -1.2983 -1.2983c -0.7170,-0.0000 -1.2983,0.5812 -1.2983 1.2983c -0.0000,0.7170 0.5812,1.2983 1.2983 1.2983c 0.7170,0.0000 1.2983,-0.5812 1.2983 -1.2983Z"/>
  </g>
  <g stroke-linejoin="miter" stroke-opacity="1.0" fill-opacity="1.0" stroke="rgb(102,102,102)" stroke-width="0.0" fill="rgb(255,0,0)" stroke-linecap="butt" stroke-miterlimit="10.0">
    <path d="M 488.1358,23.5267 c 0.0000,-0.7170 -0.5812,-1.2983 -1.2983 -1.2983c -0.7170,-0.0000 -1.2983,0.5812 -1.2983 1.2983c -0.0000,0.7170 0.5812,1.2983 1.2983 1.2983c 0.7170,0.0000 1.2983,-0.5812 1.2983 -1.2983Z"/>
  </g>
  <g stroke-linejoin="miter" stroke-opacity="1.0" fill-opacity="1.0" stroke="rgb(102,102,102)" stroke-width="0.0" fill="rgb(255,0,0)" stroke-linecap="butt" stroke-miterlimit="10.0">
    <path d="M 485.3736,24.8448 c 0.0000,-0.7170 -0.5812,-1.2983 -1.2983 -1.2983c -0.7170,-0.0000 -1.2983,0.5812 -1.2983 1.2983c -0.0000,0.7170 0.5812,1.2983 1.2983 1.2983c 0.7170,0.0000 1.2983,-0.5812 1.2983 -1.2983Z"/>
  </g>
  <g stroke-linejoin="miter" stroke-opacity="1.0" fill-opacity="1.0" stroke="rgb(102,102,102)" stroke-width="0.0" fill="rgb(255,0,0)" stroke-linecap="butt" stroke-miterlimit="10.0">
    <path d="M 482.6114,26.1628 c 0.0000,-0.7170 -0.5812,-1.2983 -1.2983 -1.2983c -0.7170,-0.0000 -1.2983,0.5812 -1.2983 1.2983c -0.0000,0.7170 0.5812,1.2983 1.2983 1.2983c 0.7170,0.0000 1.2983,-0.5812 1.2983 -1.2983Z"/>
  </g>
  <g stroke-linejoin="miter" stroke-opacity="1.0" fill-opacity="1.0" stroke="rgb(102,102,102)" stroke-width="0.0" fill="rgb(255,0,0)" stroke-linecap="butt" stroke-miterlimit="10.0">
    <path d="M 479.8491,27.4808 c 0.0000,-0.7170 -0.5812,-1.2983 -1.2983 -1.2983c -0.7170,-0.0000 -1.2983,0.5812 -1.2983 1.2983c -0.0000,0.7170 0.5812,1.2983 1.2983 1.2983c 0.7170,0.0000 1.2983,-0.5812 1.2983 -1.2983Z"/>
  </g>
  <g stroke-linejoin="miter" stroke-opacity="1.0" fill-opacity="1.0" stroke="rgb(102,102,102)" stroke-width="0.0" fill="rgb(255,0,0)" stroke-linecap="butt" stroke-miterlimit="10.0">
    <path d="M 477.0869,31.4349 c 0.0000,-0.7170 -0.5812,-1.2983 -1.2983 -1.2983c -0.7170,-0.0000 -1.2983,0.5812 -1.2983 1.2983c -0.0000,0.7170 0.5812,1.2983 1.2983 1.2983c 0.7170,0.0000 1.2983,-0.5812 1.2983 -1.2983Z"/>
  </g>
  <g stroke-linejoin="miter" stroke-opacity="1.0" fill-opacity="1.0" stroke="rgb(102,102,102)" stroke-width="0.0" fill="rgb(255,0,0)" stroke-linecap="butt" stroke-miterlimit="10.0">
    <path d="M 474.3246,32.7529 c 0.0000,-0.7170 -0.5812,-1.2983 -1.2983 -1.2983c -0.7170,-0.0000 -1.2983,0.5812 -1.2983 1.2983c -0.0000,0.7170 0.5812,1.2983 1.2983 1.2983c 0.7170,0.0000 1.2983,-0.5812 1.2983 -1.2983Z"/>
  </g>
  <g stroke-linejoin="miter" stroke-opacity="1.0" fill-opacity="1.0" stroke="rgb(102,102,102)" stroke-width="0.0" fill="rgb(255,0,0)" stroke-linecap="butt" stroke-miterlimit="10.0">
    <path d="M 471.5624,34.0709 c 0.0000,-0.7170 -0.5812,-1.2983 -1.2983 -1.2983c -0.7170,-0.0000 -1.2983,0.5812 -1.2983 1.2983c -0.0000,0.7170 0.5812,1.2983 1.2983 1.2983c 0.7170,0.0000 1.2983,-0.5812 1.2983 -1.2983Z"/>
  </g>
  <g stroke-linejoin="miter" stroke-opacity="1.0" fill-opacity="1.0" stroke="rgb(102,102,102)" stroke-width="0.0" fill="rgb(255,0,0)" stroke-linecap="butt" stroke-miterlimit="10.0">
    <path d="M 468.8002,35.3889 c 0.0000,-0.7170 -0.5812,-1.2983 -1.2983 -1.2983c -0.7170,-0.0000 -1.2983,0.5812 -1.2983 1.2983c -0.0000,0.7170 0.5812,1.2983 1.2983 1.2983c 0.7170,0.0000 1.2983,-0.5812 1.2983 -1.2983Z"/>
  </g>
  <g stroke-linejoin="miter" stroke-opacity="1.0" fill-opacity="1.0" stroke="rgb(102,102,102)" stroke-width="0.0" fill="rgb(255,0,0)" stroke-linecap="butt" stroke-miterlimit="10.0">
    <path d="M 466.0379,36.7070 c 0.0000,-0.7170 -0.5812,-1.2983 -1.2983 -1.2983c -0.7170,-0.0000 -1.2983,0.5812 -1.2983 1.2983c -0.0000,0.7170 0.5812,1.2983 1.2983 1.2983c 0.7170,0.0000 1.2983,-0.5812 1.2983 -1.2983Z"/>
  </g>
  <g stroke-linejoin="miter" stroke-opacity="1.0" fill-opacity="1.0" stroke="rgb(102,102,102)" stroke-width="0.0" fill="rgb(255,0,0)" stroke-linecap="butt" stroke-miterlimit="10.0">
    <path d="M 463.2757,40.6610 c 0.0000,-0.7170 -0.5812,-1.2983 -1.2983 -1.2983c -0.7170,-0.0000 -1.2983,0.5812 -1.2983 1.2983c -0.0000,0.7170 0.5812,1.2983 1.2983 1.2983c 0.7170,0.0000 1.2983,-0.5812 1.2983 -1.2983Z"/>
  </g>
  <g stroke-linejoin="miter" stroke-opacity="1.0" fill-opacity="1.0" stroke="rgb(102,102,102)" stroke-width="0.0" fill="rgb(255,0,0)" stroke-linecap="butt" stroke-miterlimit="10.0">
    <path d="M 460.5134,41.9791 c 0.0000,-0.7170 -0.5812,-1.2983 -1.2983 -1.2983c -0.7170,-0.0000 -1.2983,0.5812 -1.2983 1.2983c -0.0000,0.7170 0.5812,1.2983 1.2983 1.2983c 0.7170,0.0000 1.2983,-0.5812 1.2983 -1.2983Z"/>
  </g>
  <g stroke-linejoin="miter" stroke-opacity="1.0" fill-opacity="1.0" stroke="rgb(102,102,102)" stroke-width="0.0" fill="rgb(255,0,0)" stroke-linecap="butt" stroke-miterlimit="10.0">
    <path d="M 457.7512,43.2971 c 0.0000,-0.7170 -0.5812,-1.2983 -1.2983 -1.2983c -0.7170,-0.0000 -1.2983,0.5812 -1.2983 1.2983c -0.0000,0.7170 0.5812,1.2983 1.2983 1.2983c 0.7170,0.0000 1.2983,-0.5812 1.2983 -1.2983Z"/>
  </g>
  <g stroke-linejoin="miter" stroke-opacity="1.0" fill-opacity="1.0" stroke="rgb(102,102,102)" stroke-width="0.0" fill="rgb(255,0,0)" stroke-linecap="butt" stroke-miterlimit="10.0">
    <path d="M 454.9889,44.6151 c 0.0000,-0.7170 -0.5812,-1.2983 -1.2983 -1.2983c -0.7170,-0.0000 -1.2983,0.5812 -1.2983 1.2983c -0.0000,0.7170 0.5812,1.2983 1.2983 1.2983c 0.7170,0.0000 1.2983,-0.5812 1.2983 -1.2983Z"/>
  </g>
  <g stroke-linejoin="miter" stroke-opacity="1.0" fill-opacity="1.0" stroke="rgb(102,102,102)" stroke-width="0.0" fill="rgb(255,0,0)" stroke-linecap="butt" stroke-miterlimit="10.0">
    <path d="M 452.2267,45.9331 c 0.0000,-0.7170 -0.5812,-1.2983 -1.2983 -1.2983c -0.7170,-0.0000 -1.2983,0.5812 -1.2983 1.2983c -0.0000,0.7170 0.5812,1.2983 1.2983 1.2983c 0.7170,0.0000 1.2983,-0.5812 1.2983 -1.2983Z"/>
  </g>
  <g stroke-linejoin="miter" stroke-opacity="1.0" fill-opacity="1.0" stroke="rgb(102,102,102)" stroke-width="0.0" fill="rgb(255,0,0)" stroke-linecap="butt" stroke-miterlimit="10.0">
    <path d="M 449.4645,49.8872 c 0.0000,-0.7170 -0.5812,-1.2983 -1.2983 -1.2983c -0.7170,-0.0000 -1.2983,0.5812 -1.2983 1.2983c -0.0000,0.7170 0.5812,1.2983 1.2983 1.2983c 0.7170,0.0000 1.2983,-0.5812 1.2983 -1.2983Z"/>
  </g>
  <g stroke-linejoin="miter" stroke-opacity="1.0" fill-opacity="1.0" stroke="rgb(102,102,102)" stroke-width="0.0" fill="rgb(255,0,0)" stroke-linecap="butt" stroke-miterlimit="10.0">
    <path d="M 446.7022,51.2052 c 0.0000,-0.7170 -0.5812,-1.2983 -1.2983 -1.2983c -0.7170,-0.0000 -1.2983,0.5812 -1.2983 1.2983c -0.0000,0.7170 0.5812,1.2983 1.2983 1.2983c 0.7170,0.0000 1.2983,-0.5812 1.2983 -1.2983Z"/>
  </g>
  <g stroke-linejoin="miter" stroke-opacity="1.0" fill-opacity="1.0" stroke="rgb(102,102,102)" stroke-width="0.0" fill="rgb(255,0,0)" stroke-linecap="butt" stroke-miterlimit="10.0">
    <path d="M 443.9400,52.5233 c 0.0000,-0.7170 -0.5812,-1.2983 -1.2983 -1.2983c -0.7170,-0.0000 -1.2983,0.5812 -1.2983 1.2983c -0.0000,0.7170 0.5812,1.2983 1.2983 1.2983c 0.7170,0.0000 1.2983,-0.5812 1.2983 -1.2983Z"/>
  </g>
  <g stroke-linejoin="miter" stroke-opacity="1.0" fill-opacity="1.0" stroke="rgb(102,102,102)" stroke-width="0.0" fill="rgb(255,0,0)" stroke-linecap="butt" stroke-miterlimit="10.0">
    <path d="M 441.1777,53.8413 c 0.0000,-0.7170 -0.5812,-1.2983 -1.2983 -1.2983c -0.7170,-0.0000 -1.2983,0.5812 -1.2983 1.2983c -0.0000,0.7170 0.5812,1.2983 1.2983 1.2983c 0.7170,0.0000 1.2983,-0.5812 1.2983 -1.2983Z"/>
  </g>
  <g stroke-linejoin="miter" stroke-opacity="1.0" fill-opacity="1.0" stroke="rgb(102,102,102)" stroke-width="0.0" fill="rgb(255,0,0)" stroke-linecap="butt" stroke-miterlimit="10.0">
    <path d="M 438.4155,55.1593 c 0.0000,-0.7170 -0.5812,-1.2983 -1.2983 -1.2983c -0.7170,-0.0000 -1.2983,0.5812 -1.2983 1.2983c -0.0000,0.7170 0.5812,1.2983 1.2983 1.2983c 0.7170,0.0000 1.2983,-0.5812 1.2983 -1.2983Z"/>
  </g>
  <g stroke-linejoin="miter" stroke-opacity="1.0" fill-opacity="1.0" stroke="rgb(102,102,102)" stroke-width="0.0" fill="rgb(255,0,0)" stroke-linecap="butt" stroke-miterlimit="10.0">
    <path d="M 435.6533,59.1134 c 0.0000,-0.7170 -0.5812,-1.2983 -1.2983 -1.2983c -0.7170,-0.0000 -1.2983,0.5812 -1.2983 1.2983c -0.0000,0.7170 0.5812,1.2983 1.2983 1.2983c 0.7170,0.0000 1.2983,-0.5812 1.2983 -1.2983Z"/>
  </g>
  <g stroke-linejoin="miter" stroke-opacity="1.0" fill-opacity="1.0" stroke="rgb(102,102,102)" stroke-width="0.0" fill="rgb(255,0,0)" stroke-linecap="butt" stroke-miterlimit="10.0">
    <path d="M 432.8910,60.4314 c 0.0000,-0.7170 -0.5812,-1.2983 -1.2983 -1.2983c -0.7170,-0.0000 -1.2983,0.5812 -1.2983 1.2983c -0.0000,0.7170 0.5812,1.2983 1.2983 1.2983c 0.7170,0.0000 1.2983,-0.5812 1.2983 -1.2983Z"/>
  </g>
  <g stroke-linejoin="miter" stroke-opacity="1.0" fill-opacity="1.0" stroke="rgb(102,102,102)" stroke-width="0.0" fill="rgb(255,0,0)" stroke-linecap="butt" stroke-miterlimit="10.0">
    <path d="M 430.1288,61.7494 c 0.0000,-0.7170 -0.5812,-1.2983 -1.2983 -1.2983c -0.7170,-0.0000 -1.2983,0.5812 -1.2983 1.2983c -0.0000,0.7170 0.5812,1.2983 1.2983 1.2983c 0.7170,0.0000 1.2983,-0.5812 1.2983 -1.2983Z"/>
  </g>
  <g stroke-linejoin="miter" stroke-opacity="1.0" fill-opacity="1.0" stroke="rgb(102,102,102)" stroke-width="0.0" fill="rgb(255,0,0)" stroke-linecap="butt" stroke-miterlimit="10.0">
    <path d="M 427.3665,63.0674 c 0.0000,-0.7170 -0.5812,-1.2983 -1.2983 -1.2983c -0.7170,-0.0000 -1.2983,0.5812 -1.2983 1.2983c -0.0000,0.7170 0.5812,1.2983 1.2983 1.2983c 0.7170,0.0000 1.2983,-0.5812 1.2983 -1.2983Z"/>
  </g>
  <g stroke-linejoin="miter" stroke-opacity="1.0" fill-opacity="1.0" stroke="rgb(102,102,102)" stroke-width="0.0" fill="rgb(255,0,0)" stroke-linecap="butt" stroke-miterlimit="10.0">
    <path d="M 424.6043,64.3855 c 0.0000,-0.7170 -0.5812,-1.2983 -1.2983 -1.2983c -0.7170,-0.0000 -1.2983,0.5812 -1.2983 1.2983c -0.0000,0.7170 0.5812,1.2983 1.2983 1.2983c 0.7170,0.0000 1.2983,-0.5812 1.2983 -1.2983Z"/>
  </g>
  <g stroke-linejoin="miter" stroke-opacity="1.0" fill-opacity="1.0" stroke="rgb(102,102,102)" stroke-width="0.0" fill="rgb(255,0,0)" stroke-linecap="butt" stroke-miterlimit="10.0">
    <path d="M 421.8420,68.3395 c 0.0000,-0.7170 -0.5812,-1.2983 -1.2983 -1.2983c -0.7170,-0.0000 -1.2983,0.5812 -1.2983 1.2983c -0.0000,0.7170 0.5812,1.2983 1.2983 1.2983c 0.7170,0.0000 1.2983,-0.5812 1.2983 -1.2983Z"/>
  </g>
  <g stroke-linejoin="miter" stroke-opacity="1.0" fill-opacity="1.0" stroke="rgb(102,102,102)" stroke-width="0.0" fill="rgb(255,0,0)" stroke-linecap="butt" stroke-miterlimit="10.0">
    <path d="M 419.0798,69.6576 c 0.0000,-0.7170 -0.5812,-1.2983 -1.2983 -1.2983c -0.7170,-0.0000 -1.2983,0.5812 -1.2983 1.2983c -0.0000,0.7170 0.5812,1.2983 1.2983 1.2983c 0.7170,0.0000 1.2983,-0.5812 1.2983 -1.2983Z"/>
  </g>
  <g stroke-linejoin="miter" stroke-opacity="1.0" fill-opacity="1.0" stroke="rgb(102,102,102)" stroke-width="0.0" fill="rgb(255,0,0)" stroke-linecap="butt" stroke-miterlimit="10.0">
    <path d="M 416.3176,70.9756 c 0.0000,-0.7170 -0.5812,-1.2983 -1.2983 -1.2983c -0.7170,-0.0000 -1.2983,0.5812 -1.2983 1.2983c -0.0000,0.7170 0.5812,1.2983 1.2983 1.2983c 0.7170,0.0000 1.2983,-0.5812 1.2983 -1.2983Z"/>
  </g>
  <g stroke-linejoin="miter" stroke-opacity="1.0" fill-opacity="1.0" stroke="rgb(102,102,102)" stroke-width="0.0" fill="rgb(255,0,0)" stroke-linecap="butt" stroke-miterlimit="10.0">
    <path d="M 413.5553,72.2936 c 0.0000,-0.7170 -0.5812,-1.2983 -1.2983 -1.2983c -0.7170,-0.0000 -1.2983,0.5812 -1.2983 1.2983c -0.0000,0.7170 0.5812,1.2983 1.2983 1.2983c 0.7170,0.0000 1.2983,-0.5812 1.2983 -1.2983Z"/>
  </g>
  <g stroke-linejoin="miter" stroke-opacity="1.0" fill-opacity="1.0" stroke="rgb(102,102,102)" stroke-width="0.0" fill="rgb(255,0,0)" stroke-linecap="butt" stroke-miterlimit="10.0">
    <path d="M 410.7931,73.6116 c 0.0000,-0.7170 -0.5812,-1.2983 -1.2983 -1.2983c -0.7170,-0.0000 -1.2983,0.5812 -1.2983 1.2983c -0.0000,0.7170 0.5812,1.2983 1.2983 1.2983c 0.7170,0.0000 1.2983,-0.5812 1.2983 -1.2983Z"/>
  </g>
  <g stroke-linejoin="miter" stroke-opacity="1.0" fill-opacity="1.0" stroke="rgb(102,102,102)" stroke-width="0.0" fill="rgb(255,0,0)" stroke-linecap="butt" stroke-miterlimit="10.0">
    <path d="M 408.0308,77.5657 c 0.0000,-0.7170 -0.5812,-1.2983 -1.2983 -1.2983c -0.7170,-0.0000 -1.2983,0.5812 -1.2983 1.2983c -0.0000,0.7170 0.5812,1.2983 1.2983 1.2983c 0.7170,0.0000 1.2983,-0.5812 1.2983 -1.2983Z"/>
  </g>
  <g stroke-linejoin="miter" stroke-opacity="1.0" fill-opacity="1.0" stroke="rgb(102,102,102)" stroke-width="0.0" fill="rgb(255,0,0)" stroke-linecap="butt" stroke-miterlimit="10.0">
    <path d="M 405.2686,78.8837 c 0.0000,-0.7170 -0.5812,-1.2983 -1.2983 -1.2983c -0.7170,-0.0000 -1.2983,0.5812 -1.2983 1.2983c -0.0000,0.7170 0.5812,1.2983 1.2983 1.2983c 0.7170,0.0000 1.2983,-0.5812 1.2983 -1.2983Z"/>
  </g>
  <g stroke-linejoin="miter" stroke-opacity="1.0" fill-opacity="1.0" stroke="rgb(102,102,102)" stroke-width="0.0" fill="rgb(255,0,0)" stroke-linecap="butt" stroke-miterlimit="10.0">
    <path d="M 402.5064,80.2018 c 0.0000,-0.7170 -0.5812,-1.2983 -1.2983 -1.2983c -0.7170,-0.0000 -1.2983,0.5812 -1.2983 1.2983c -0.0000,0.7170 0.5812,1.2983 1.2983 1.2983c 0.7170,0.0000 1.2983,-0.5812 1.2983 -1.2983Z"/>
  </g>
  <g stroke-linejoin="miter" stroke-opacity="1.0" fill-opacity="1.0" stroke="rgb(102,102,102)" stroke-width="0.0" fill="rgb(255,0,0)" stroke-linecap="butt" stroke-miterlimit="10.0">
    <path d="M 399.7441,81.5198 c 0.0000,-0.7170 -0.5812,-1.2983 -1.2983 -1.2983c -0.7170,-0.0000 -1.2983,0.5812 -1.2983 1.2983c -0.0000,0.7170 0.5812,1.2983 1.2983 1.2983c 0.7170,0.0000 1.2983,-0.5812 1.2983 -1.2983Z"/>
  </g>
  <g stroke-linejoin="miter" stroke-opacity="1.0" fill-opacity="1.0" stroke="rgb(102,102,102)" stroke-width="0.0" fill="rgb(255,0,0)" stroke-linecap="butt" stroke-miterlimit="10.0">
    <path d="M 396.9819,82.8378 c 0.0000,-0.7170 -0.5812,-1.2983 -1.2983 -1.2983c -0.7170,-0.0000 -1.2983,0.5812 -1.2983 1.2983c -0.0000,0.7170 0.5812,1.2983 1.2983 1.2983c 0.7170,0.0000 1.2983,-0.5812 1.2983 -1.2983Z"/>
  </g>
  <g stroke-linejoin="miter" stroke-opacity="1.0" fill-opacity="1.0" stroke="rgb(102,102,102)" stroke-width="0.0" fill="rgb(255,0,0)" stroke-linecap="butt" stroke-miterlimit="10.0">
    <path d="M 394.2196,86.7919 c 0.0000,-0.7170 -0.5812,-1.2983 -1.2983 -1.2983c -0.7170,-0.0000 -1.2983,0.5812 -1.2983 1.2983c -0.0000,0.7170 0.5812,1.2983 1.2983 1.2983c 0.7170,0.0000 1.2983,-0.5812 1.2983 -1.2983Z"/>
  </g>
  <g stroke-linejoin="miter" stroke-opacity="1.0" fill-opacity="1.0" stroke="rgb(102,102,102)" stroke-width="0.0" fill="rgb(255,0,0)" stroke-linecap="butt" stroke-miterlimit="10.0">
    <path d="M 391.4574,88.1099 c 0.0000,-0.7170 -0.5812,-1.2983 -1.2983 -1.2983c -0.7170,-0.0000 -1.2983,0.5812 -1.2983 1.2983c -0.0000,0.7170 0.5812,1.2983 1.2983 1.2983c 0.7170,0.0000 1.2983,-0.5812 1.2983 -1.2983Z"/>
  </g>
  <g stroke-linejoin="miter" stroke-opacity="1.0" fill-opacity="1.0" stroke="rgb(102,102,102)" stroke-width="0.0" fill="rgb(255,0,0)" stroke-linecap="butt" stroke-miterlimit="10.0">
    <path d="M 388.6951,89.4279 c 0.0000,-0.7170 -0.5812,-1.2983 -1.2983 -1.2983c -0.7170,-0.0000 -1.2983,0.5812 -1.2983 1.2983c -0.0000,0.7170 0.5812,1.2983 1.2983 1.2983c 0.7170,0.0000 1.2983,-0.5812 1.2983 -1.2983Z"/>
  </g>
  <g stroke-linejoin="miter" stroke-opacity="1.0" fill-opacity="1.0" stroke="rgb(102,102,102)" stroke-width="0.0" fill="rgb(255,0,0)" stroke-linecap="butt" stroke-miterlimit="10.0">
    <path d="M 385.9329,90.7460 c 0.0000,-0.7170 -0.5812,-1.2983 -1.2983 -1.2983c -0.7170,-0.0000 -1.2983,0.5812 -1.2983 1.2983c -0.0000,0.7170 0.5812,1.2983 1.2983 1.2983c 0.7170,0.0000 1.2983,-0.5812 1.2983 -1.2983Z"/>
  </g>
  <g stroke-linejoin="miter" stroke-opacity="1.0" fill-opacity="1.0" stroke="rgb(102,102,102)" stroke-width="0.0" fill="rgb(255,0,0)" stroke-linecap="butt" stroke-miterlimit="10.0">
    <path d="M 383.1707,92.0640 c 0.0000,-0.7170 -0.5812,-1.2983 -1.2983 -1.2983c -0.7170,-0.0000 -1.2983,0.5812 -1.2983 1.2983c -0.0000,0.7170 0.5812,1.2983 1.2983 1.2983c 0.7170,0.0000 1.2983,-0.5812 1.2983 -1.2983Z"/>
  </g>
  <g stroke-linejoin="miter" stroke-opacity="1.0" fill-opacity="1.0" stroke="rgb(102,102,102)" stroke-width="0.0" fill="rgb(255,0,0)" stroke-linecap="butt" stroke-miterlimit="10.0">
    <path d="M 380.4084,96.0180 c 0.0000,-0.7170 -0.5812,-1.2983 -1.2983 -1.2983c -0.7170,-0.0000 -1.2983,0.5812 -1.2983 1.2983c -0.0000,0.7170 0.5812,1.2983 1.2983 1.2983c 0.7170,0.0000 1.2983,-0.5812 1.2983 -1.2983Z"/>
  </g>
  <g stroke-linejoin="miter" stroke-opacity="1.0" fill-opacity="1.0" stroke="rgb(102,102,102)" stroke-width="0.0" fill="rgb(255,0,0)" stroke-linecap="butt" stroke-miterlimit="10.0">
    <path d="M 377.6462,97.3361 c 0.0000,-0.7170 -0.5812,-1.2983 -1.2983 -1.2983c -0.7170,-0.0000 -1.2983,0.5812 -1.2983 1.2983c -0.0000,0.7170 0.5812,1.2983 1.2983 1.2983c 0.7170,0.0000 1.2983,-0.5812 1.2983 -1.2983Z"/>
  </g>
  <g stroke-linejoin="miter" stroke-opacity="1.0" fill-opacity="1.0" stroke="rgb(102,102,102)" stroke-width="0.0" fill="rgb(255,0,0)" stroke-linecap="butt" stroke-miterlimit="10.0">
    <path d="M 374.8839,98.6541 c 0.0000,-0.7170 -0.5812,-1.2983 -1.2983 -1.2983c -0.7170,-0.0000 -1.2983,0.5812 -1.2983 1.2983c -0.0000,0.7170 0.5812,1.2983 1.2983 1.2983c 0.7170,0.0000 1.2983,-0.5812 1.2983 -1.2983Z"/>
  </g>
  <g stroke-linejoin="miter" stroke-opacity="1.0" fill-opacity="1.0" stroke="rgb(102,102,102)" stroke-width="0.0" fill="rgb(255,0,0)" stroke-linecap="butt" stroke-miterlimit="10.0">
    <path d="M 372.1217,99.9721 c 0.0000,-0.7170 -0.5812,-1.2983 -1.2983 -1.2983c -0.7170,-0.0000 -1.2983,0.5812 -1.2983 1.2983c -0.0000,0.7170 0.5812,1.2983 1.2983 1.2983c 0.7170,0.0000 1.2983,-0.5812 1.2983 -1.2983Z"/>
  </g>
  <g stroke-linejoin="miter" stroke-opacity="1.0" fill-opacity="1.0" stroke="rgb(102,102,102)" stroke-width="0.0" fill="rgb(255,0,0)" stroke-linecap="butt" stroke-miterlimit="10.0">
    <path d="M 369.3595,101.2901 c 0.0000,-0.7170 -0.5812,-1.2983 -1.2983 -1.2983c -0.7170,-0.0000 -1.2983,0.5812 -1.2983 1.2983c -0.0000,0.7170 0.5812,1.2983 1.2983 1.2983c 0.7170,0.0000 1.2983,-0.5812 1.2983 -1.2983Z"/>
  </g>
  <g stroke-linejoin="miter" stroke-opacity="1.0" fill-opacity="1.0" stroke="rgb(102,102,102)" stroke-width="0.0" fill="rgb(255,0,0)" stroke-linecap="butt" stroke-miterlimit="10.0">
    <path d="M 366.5972,105.2442 c 0.0000,-0.7170 -0.5812,-1.2983 -1.2983 -1.2983c -0.7170,-0.0000 -1.2983,0.5812 -1.2983 1.2983c -0.0000,0.7170 0.5812,1.2983 1.2983 1.2983c 0.7170,0.0000 1.2983,-0.5812 1.2983 -1.2983Z"/>
  </g>
  <g stroke-linejoin="miter" stroke-opacity="1.0" fill-opacity="1.0" stroke="rgb(102,102,102)" stroke-width="0.0" fill="rgb(255,0,0)" stroke-linecap="butt" stroke-miterlimit="10.0">
    <path d="M 363.8350,106.5622 c 0.0000,-0.7170 -0.5812,-1.2983 -1.2983 -1.2983c -0.7170,-0.0000 -1.2983,0.5812 -1.2983 1.2983c -0.0000,0.7170 0.5812,1.2983 1.2983 1.2983c 0.7170,0.0000 1.2983,-0.5812 1.2983 -1.2983Z"/>
  </g>
  <g stroke-linejoin="miter" stroke-opacity="1.0" fill-opacity="1.0" stroke="rgb(102,102,102)" stroke-width="0.0" fill="rgb(255,0,0)" stroke-linecap="butt" stroke-miterlimit="10.0">
    <path d="M 361.0727,107.8803 c 0.0000,-0.7170 -0.5812,-1.2983 -1.2983 -1.2983c -0.7170,-0.0000 -1.2983,0.5812 -1.2983 1.2983c -0.0000,0.7170 0.5812,1.2983 1.2983 1.2983c 0.7170,0.0000 1.2983,-0.5812 1.2983 -1.2983Z"/>
  </g>
  <g stroke-linejoin="miter" stroke-opacity="1.0" fill-opacity="1.0" stroke="rgb(102,102,102)" stroke-width="0.0" fill="rgb(255,0,0)" stroke-linecap="butt" stroke-miterlimit="10.0">
    <path d="M 358.3105,109.1983 c 0.0000,-0.7170 -0.5812,-1.2983 -1.2983 -1.2983c -0.7170,-0.0000 -1.2983,0.5812 -1.2983 1.2983c -0.0000,0.7170 0.5812,1.2983 1.2983 1.2983c 0.7170,0.0000 1.2983,-0.5812 1.2983 -1.2983Z"/>
  </g>
  <g stroke-linejoin="miter" stroke-opacity="1.0" fill-opacity="1.0" stroke="rgb(102,102,102)" stroke-width="0.0" fill="rgb(255,0,0)" stroke-linecap="butt" stroke-miterlimit="10.0">
    <path d="M 355.5482,110.5163 c 0.0000,-0.7170 -0.5812,-1.2983 -1.2983 -1.2983c -0.7170,-0.0000 -1.2983,0.5812 -1.2983 1.2983c -0.0000,0.7170 0.5812,1.2983 1.2983 1.2983c 0.7170,0.0000 1.2983,-0.5812 1.2983 -1.2983Z"/>
  </g>
  <g stroke-linejoin="miter" stroke-opacity="1.0" fill-opacity="1.0" stroke="rgb(102,102,102)" stroke-width="0.0" fill="rgb(255,0,0)" stroke-linecap="butt" stroke-miterlimit="10.0">
    <path d="M 352.7860,114.4704 c 0.0000,-0.7170 -0.5812,-1.2983 -1.2983 -1.2983c -0.7170,-0.0000 -1.2983,0.5812 -1.2983 1.2983c -0.0000,0.7170 0.5812,1.2983 1.2983 1.2983c 0.7170,0.0000 1.2983,-0.5812 1.2983 -1.2983Z"/>
  </g>
  <g stroke-linejoin="miter" stroke-opacity="1.0" fill-opacity="1.0" stroke="rgb(102,102,102)" stroke-width="0.0" fill="rgb(255,0,0)" stroke-linecap="butt" stroke-miterlimit="10.0">
    <path d="M 350.0238,115.7884 c 0.0000,-0.7170 -0.5812,-1.2983 -1.2983 -1.2983c -0.7170,-0.0000 -1.2983,0.5812 -1.2983 1.2983c -0.0000,0.7170 0.5812,1.2983 1.2983 1.2983c 0.7170,0.0000 1.2983,-0.5812 1.2983 -1.2983Z"/>
  </g>
  <g stroke-linejoin="miter" stroke-opacity="1.0" fill-opacity="1.0" stroke="rgb(102,102,102)" stroke-width="0.0" fill="rgb(255,0,0)" stroke-linecap="butt" stroke-miterlimit="10.0">
    <path d="M 347.2615,117.1064 c 0.0000,-0.7170 -0.5812,-1.2983 -1.2983 -1.2983c -0.7170,-0.0000 -1.2983,0.5812 -1.2983 1.2983c -0.0000,0.7170 0.5812,1.2983 1.2983 1.2983c 0.7170,0.0000 1.2983,-0.5812 1.2983 -1.2983Z"/>
  </g>
  <g stroke-linejoin="miter" stroke-opacity="1.0" fill-opacity="1.0" stroke="rgb(102,102,102)" stroke-width="0.0" fill="rgb(255,0,0)" stroke-linecap="butt" stroke-miterlimit="10.0">
    <path d="M 344.4993,118.4245 c 0.0000,-0.7170 -0.5812,-1.2983 -1.2983 -1.2983c -0.7170,-0.0000 -1.2983,0.5812 -1.2983 1.2983c -0.0000,0.7170 0.5812,1.2983 1.2983 1.2983c 0.7170,0.0000 1.2983,-0.5812 1.2983 -1.2983Z"/>
  </g>
  <g stroke-linejoin="miter" stroke-opacity="1.0" fill-opacity="1.0" stroke="rgb(102,102,102)" stroke-width="0.0" fill="rgb(255,0,0)" stroke-linecap="butt" stroke-miterlimit="10.0">
    <path d="M 341.7370,119.7425 c 0.0000,-0.7170 -0.5812,-1.2983 -1.2983 -1.2983c -0.7170,-0.0000 -1.2983,0.5812 -1.2983 1.2983c -0.0000,0.7170 0.5812,1.2983 1.2983 1.2983c 0.7170,0.0000 1.2983,-0.5812 1.2983 -1.2983Z"/>
  </g>
  <g stroke-linejoin="miter" stroke-opacity="1.0" fill-opacity="1.0" stroke="rgb(102,102,102)" stroke-width="0.0" fill="rgb(255,0,0)" stroke-linecap="butt" stroke-miterlimit="10.0">
    <path d="M 338.9748,123.6966 c 0.0000,-0.7170 -0.5812,-1.2983 -1.2983 -1.2983c -0.7170,-0.0000 -1.2983,0.5812 -1.2983 1.2983c -0.0000,0.7170 0.5812,1.2983 1.2983 1.2983c 0.7170,0.0000 1.2983,-0.5812 1.2983 -1.2983Z"/>
  </g>
  <g stroke-linejoin="miter" stroke-opacity="1.0" fill-opacity="1.0" stroke="rgb(102,102,102)" stroke-width="0.0" fill="rgb(255,0,0)" stroke-linecap="butt" stroke-miterlimit="10.0">
    <path d="M 336.2126,125.0146 c 0.0000,-0.7170 -0.5812,-1.2983 -1.2983 -1.2983c -0.7170,-0.0000 -1.2983,0.5812 -1.2983 1.2983c -0.0000,0.7170 0.5812,1.2983 1.2983 1.2983c 0.7170,0.0000 1.2983,-0.5812 1.2983 -1.2983Z"/>
  </g>
  <g stroke-linejoin="miter" stroke-opacity="1.0" fill-opacity="1.0" stroke="rgb(102,102,102)" stroke-width="0.0" fill="rgb(255,0,0)" stroke-linecap="butt" stroke-miterlimit="10.0">
    <path d="M 333.4503,126.3326 c 0.0000,-0.7170 -0.5812,-1.2983 -1.2983 -1.2983c -0.7170,-0.0000 -1.2983,0.5812 -1.2983 1.2983c -0.0000,0.7170 0.5812,1.2983 1.2983 1.2983c 0.7170,0.0000 1.2983,-0.5812 1.2983 -1.2983Z"/>
  </g>
  <g stroke-linejoin="miter" stroke-opacity="1.0" fill-opacity="1.0" stroke="rgb(102,102,102)" stroke-width="0.0" fill="rgb(255,0,0)" stroke-linecap="butt" stroke-miterlimit="10.0">
    <path d="M 330.6881,127.6506 c 0.0000,-0.7170 -0.5812,-1.2983 -1.2983 -1.2983c -0.7170,-0.0000 -1.2983,0.5812 -1.2983 1.2983c -0.0000,0.7170 0.5812,1.2983 1.2983 1.2983c 0.7170,0.0000 1.2983,-0.5812 1.2983 -1.2983Z"/>
  </g>
  <g stroke-linejoin="miter" stroke-opacity="1.0" fill-opacity="1.0" stroke="rgb(102,102,102)" stroke-width="0.0" fill="rgb(255,0,0)" stroke-linecap="butt" stroke-miterlimit="10.0">
    <path d="M 327.9258,128.9686 c 0.0000,-0.7170 -0.5812,-1.2983 -1.2983 -1.2983c -0.7170,-0.0000 -1.2983,0.5812 -1.2983 1.2983c -0.0000,0.7170 0.5812,1.2983 1.2983 1.2983c 0.7170,0.0000 1.2983,-0.5812 1.2983 -1.2983Z"/>
  </g>
  <g stroke-linejoin="miter" stroke-opacity="1.0" fill-opacity="1.0" stroke="rgb(102,102,102)" stroke-width="0.0" fill="rgb(255,0,0)" stroke-linecap="butt" stroke-miterlimit="10.0">
    <path d="M 325.1636,132.9227 c 0.0000,-0.7170 -0.5812,-1.2983 -1.2983 -1.2983c -0.7170,-0.0000 -1.2983,0.5812 -1.2983 1.2983c -0.0000,0.7170 0.5812,1.2983 1.2983 1.2983c 0.7170,0.0000 1.2983,-0.5812 1.2983 -1.2983Z"/>
  </g>
  <g stroke-linejoin="miter" stroke-opacity="1.0" fill-opacity="1.0" stroke="rgb(102,102,102)" stroke-width="0.0" fill="rgb(255,0,0)" stroke-linecap="butt" stroke-miterlimit="10.0">
    <path d="M 322.4013,134.2407 c 0.0000,-0.7170 -0.5812,-1.2983 -1.2983 -1.2983c -0.7170,-0.0000 -1.2983,0.5812 -1.2983 1.2983c -0.0000,0.7170 0.5812,1.2983 1.2983 1.2983c 0.7170,0.0000 1.2983,-0.5812 1.2983 -1.2983Z"/>
  </g>
  <g stroke-linejoin="miter" stroke-opacity="1.0" fill-opacity="1.0" stroke="rgb(102,102,102)" stroke-width="0.0" fill="rgb(255,0,0)" stroke-linecap="butt" stroke-miterlimit="10.0">
    <path d="M 319.6391,135.5588 c 0.0000,-0.7170 -0.5812,-1.2983 -1.2983 -1.2983c -0.7170,-0.0000 -1.2983,0.5812 -1.2983 1.2983c -0.0000,0.7170 0.5812,1.2983 1.2983 1.2983c 0.7170,0.0000 1.2983,-0.5812 1.2983 -1.2983Z"/>
  </g>
  <g stroke-linejoin="miter" stroke-opacity="1.0" fill-opacity="1.0" stroke="rgb(102,102,102)" stroke-width="0.0" fill="rgb(255,0,0)" stroke-linecap="butt" stroke-miterlimit="10.0">
    <path d="M 316.8769,136.8768 c 0.0000,-0.7170 -0.5812,-1.2983 -1.2983 -1.2983c -0.7170,-0.0000 -1.2983,0.5812 -1.2983 1.2983c -0.0000,0.7170 0.5812,1.2983 1.2983 1.2983c 0.7170,0.0000 1.2983,-0.5812 1.2983 -1.2983Z"/>
  </g>
  <g stroke-linejoin="miter" stroke-opacity="1.0" fill-opacity="1.0" stroke="rgb(102,102,102)" stroke-width="0.0" fill="rgb(255,0,0)" stroke-linecap="butt" stroke-miterlimit="10.0">
    <path d="M 314.1146,138.1948 c 0.0000,-0.7170 -0.5812,-1.2983 -1.2983 -1.2983c -0.7170,-0.0000 -1.2983,0.5812 -1.2983 1.2983c -0.0000,0.7170 0.5812,1.2983 1.2983 1.2983c 0.7170,0.0000 1.2983,-0.5812 1.2983 -1.2983Z"/>
  </g>
  <g stroke-linejoin="miter" stroke-opacity="1.0" fill-opacity="1.0" stroke="rgb(102,102,102)" stroke-width="0.0" fill="rgb(255,0,0)" stroke-linecap="butt" stroke-miterlimit="10.0">
    <path d="M 311.3524,142.1489 c 0.0000,-0.7170 -0.5812,-1.2983 -1.2983 -1.2983c -0.7170,-0.0000 -1.2983,0.5812 -1.2983 1.2983c -0.0000,0.7170 0.5812,1.2983 1.2983 1.2983c 0.7170,0.0000 1.2983,-0.5812 1.2983 -1.2983Z"/>
  </g>
  <g stroke-linejoin="miter" stroke-opacity="1.0" fill-opacity="1.0" stroke="rgb(102,102,102)" stroke-width="0.0" fill="rgb(255,0,0)" stroke-linecap="butt" stroke-miterlimit="10.0">
    <path d="M 308.5901,143.4669 c 0.0000,-0.7170 -0.5812,-1.2983 -1.2983 -1.2983c -0.7170,-0.0000 -1.2983,0.5812 -1.2983 1.2983c -0.0000,0.7170 0.5812,1.2983 1.2983 1.2983c 0.7170,0.0000 1.2983,-0.5812 1.2983 -1.2983Z"/>
  </g>
  <g stroke-linejoin="miter" stroke-opacity="1.0" fill-opacity="1.0" stroke="rgb(102,102,102)" stroke-width="0.0" fill="rgb(255,0,0)" stroke-linecap="butt" stroke-miterlimit="10.0">
    <path d="M 305.8279,144.7849 c 0.0000,-0.7170 -0.5812,-1.2983 -1.2983 -1.2983c -0.7170,-0.0000 -1.2983,0.5812 -1.2983 1.2983c -0.0000,0.7170 0.5812,1.2983 1.2983 1.2983c 0.7170,0.0000 1.2983,-0.5812 1.2983 -1.2983Z"/>
  </g>
  <g stroke-linejoin="miter" stroke-opacity="1.0" fill-opacity="1.0" stroke="rgb(102,102,102)" stroke-width="0.0" fill="rgb(255,0,0)" stroke-linecap="butt" stroke-miterlimit="10.0">
    <path d="M 303.0657,146.1030 c 0.0000,-0.7170 -0.5812,-1.2983 -1.2983 -1.2983c -0.7170,-0.0000 -1.2983,0.5812 -1.2983 1.2983c -0.0000,0.7170 0.5812,1.2983 1.2983 1.2983c 0.7170,0.0000 1.2983,-0.5812 1.2983 -1.2983Z"/>
  </g>
  <g stroke-linejoin="miter" stroke-opacity="1.0" fill-opacity="1.0" stroke="rgb(102,102,102)" stroke-width="0.0" fill="rgb(255,0,0)" stroke-linecap="butt" stroke-miterlimit="10.0">
    <path d="M 300.3034,147.4210 c 0.0000,-0.7170 -0.5812,-1.2983 -1.2983 -1.2983c -0.7170,-0.0000 -1.2983,0.5812 -1.2983 1.2983c -0.0000,0.7170 0.5812,1.2983 1.2983 1.2983c 0.7170,0.0000 1.2983,-0.5812 1.2983 -1.2983Z"/>
  </g>
  <g stroke-linejoin="miter" stroke-opacity="1.0" fill-opacity="1.0" stroke="rgb(102,102,102)" stroke-width="0.0" fill="rgb(255,0,0)" stroke-linecap="butt" stroke-miterlimit="10.0">
    <path d="M 297.5412,151.3751 c 0.0000,-0.7170 -0.5812,-1.2983 -1.2983 -1.2983c -0.7170,-0.0000 -1.2983,0.5812 -1.2983 1.2983c -0.0000,0.7170 0.5812,1.2983 1.2983 1.2983c 0.7170,0.0000 1.2983,-0.5812 1.2983 -1.2983Z"/>
  </g>
  <g stroke-linejoin="miter" stroke-opacity="1.0" fill-opacity="1.0" stroke="rgb(102,102,102)" stroke-width="0.0" fill="rgb(255,0,0)" stroke-linecap="butt" stroke-miterlimit="10.0">
    <path d="M 294.7789,152.6931 c 0.0000,-0.7170 -0.5812,-1.2983 -1.2983 -1.2983c -0.7170,-0.0000 -1.2983,0.5812 -1.2983 1.2983c -0.0000,0.7170 0.5812,1.2983 1.2983 1.2983c 0.7170,0.0000 1.2983,-0.5812 1.2983 -1.2983Z"/>
  </g>
  <g stroke-linejoin="miter" stroke-opacity="1.0" fill-opacity="1.0" stroke="rgb(102,102,102)" stroke-width="0.0" fill="rgb(255,0,0)" stroke-linecap="butt" stroke-miterlimit="10.0">
    <path d="M 292.0167,154.0111 c 0.0000,-0.7170 -0.5812,-1.2983 -1.2983 -1.2983c -0.7170,-0.0000 -1.2983,0.5812 -1.2983 1.2983c -0.0000,0.7170 0.5812,1.2983 1.2983 1.2983c 0.7170,0.0000 1.2983,-0.5812 1.2983 -1.2983Z"/>
  </g>
  <g stroke-linejoin="miter" stroke-opacity="1.0" fill-opacity="1.0" stroke="rgb(102,102,102)" stroke-width="0.0" fill="rgb(255,0,0)" stroke-linecap="butt" stroke-miterlimit="10.0">
    <path d="M 289.2544,155.3291 c 0.0000,-0.7170 -0.5812,-1.2983 -1.2983 -1.2983c -0.7170,-0.0000 -1.2983,0.5812 -1.2983 1.2983c -0.0000,0.7170 0.5812,1.2983 1.2983 1.2983c 0.7170,0.0000 1.2983,-0.5812 1.2983 -1.2983Z"/>
  </g>
  <g stroke-linejoin="miter" stroke-opacity="1.0" fill-opacity="1.0" stroke="rgb(102,102,102)" stroke-width="0.0" fill="rgb(255,0,0)" stroke-linecap="butt" stroke-miterlimit="10.0">
    <path d="M 286.4922,156.6472 c 0.0000,-0.7170 -0.5812,-1.2983 -1.2983 -1.2983c -0.7170,-0.0000 -1.2983,0.5812 -1.2983 1.2983c -0.0000,0.7170 0.5812,1.2983 1.2983 1.2983c 0.7170,0.0000 1.2983,-0.5812 1.2983 -1.2983Z"/>
  </g>
  <g stroke-linejoin="miter" stroke-opacity="1.0" fill-opacity="1.0" stroke="rgb(102,102,102)" stroke-width="0.0" fill="rgb(255,0,0)" stroke-linecap="butt" stroke-miterlimit="10.0">
    <path d="M 283.7300,160.6012 c 0.0000,-0.7170 -0.5812,-1.2983 -1.2983 -1.2983c -0.7170,-0.0000 -1.2983,0.5812 -1.2983 1.2983c -0.0000,0.7170 0.5812,1.2983 1.2983 1.2983c 0.7170,0.0000 1.2983,-0.5812 1.2983 -1.2983Z"/>
  </g>
  <g stroke-linejoin="miter" stroke-opacity="1.0" fill-opacity="1.0" stroke="rgb(102,102,102)" stroke-width="0.0" fill="rgb(255,0,0)" stroke-linecap="butt" stroke-miterlimit="10.0">
    <path d="M 280.9677,161.9192 c 0.0000,-0.7170 -0.5812,-1.2983 -1.2983 -1.2983c -0.7170,-0.0000 -1.2983,0.5812 -1.2983 1.2983c -0.0000,0.7170 0.5812,1.2983 1.2983 1.2983c 0.7170,0.0000 1.2983,-0.5812 1.2983 -1.2983Z"/>
  </g>
  <g stroke-linejoin="miter" stroke-opacity="1.0" fill-opacity="1.0" stroke="rgb(102,102,102)" stroke-width="0.0" fill="rgb(255,0,0)" stroke-linecap="butt" stroke-miterlimit="10.0">
    <path d="M 278.2055,163.2373 c 0.0000,-0.7170 -0.5812,-1.2983 -1.2983 -1.2983c -0.7170,-0.0000 -1.2983,0.5812 -1.2983 1.2983c -0.0000,0.7170 0.5812,1.2983 1.2983 1.2983c 0.7170,0.0000 1.2983,-0.5812 1.2983 -1.2983Z"/>
  </g>
  <g stroke-linejoin="miter" stroke-opacity="1.0" fill-opacity="1.0" stroke="rgb(102,102,102)" stroke-width="0.0" fill="rgb(255,0,0)" stroke-linecap="butt" stroke-miterlimit="10.0">
    <path d="M 275.4432,164.5553 c 0.0000,-0.7170 -0.5812,-1.2983 -1.2983 -1.2983c -0.7170,-0.0000 -1.2983,0.5812 -1.2983 1.2983c -0.0000,0.7170 0.5812,1.2983 1.2983 1.2983c 0.7170,0.0000 1.2983,-0.5812 1.2983 -1.2983Z"/>
  </g>
  <g stroke-linejoin="miter" stroke-opacity="1.0" fill-opacity="1.0" stroke="rgb(102,102,102)" stroke-width="0.0" fill="rgb(255,0,0)" stroke-linecap="butt" stroke-miterlimit="10.0">
    <path d="M 272.6810,165.8733 c 0.0000,-0.7170 -0.5812,-1.2983 -1.2983 -1.2983c -0.7170,-0.0000 -1.2983,0.5812 -1.2983 1.2983c -0.0000,0.7170 0.5812,1.2983 1.2983 1.2983c 0.7170,0.0000 1.2983,-0.5812 1.2983 -1.2983Z"/>
  </g>
  <g stroke-linejoin="miter" stroke-opacity="1.0" fill-opacity="1.0" stroke="rgb(102,102,102)" stroke-width="0.0" fill="rgb(255,0,0)" stroke-linecap="butt" stroke-miterlimit="10.0">
    <path d="M 269.9188,169.8274 c 0.0000,-0.7170 -0.5812,-1.2983 -1.2983 -1.2983c -0.7170,-0.0000 -1.2983,0.5812 -1.2983 1.2983c -0.0000,0.7170 0.5812,1.2983 1.2983 1.2983c 0.7170,0.0000 1.2983,-0.5812 1.2983 -1.2983Z"/>
  </g>
  <g stroke-linejoin="miter" stroke-opacity="1.0" fill-opacity="1.0" stroke="rgb(102,102,102)" stroke-width="0.0" fill="rgb(255,0,0)" stroke-linecap="butt" stroke-miterlimit="10.0">
    <path d="M 267.1565,171.1454 c 0.0000,-0.7170 -0.5812,-1.2983 -1.2983 -1.2983c -0.7170,-0.0000 -1.2983,0.5812 -1.2983 1.2983c -0.0000,0.7170 0.5812,1.2983 1.2983 1.2983c 0.7170,0.0000 1.2983,-0.5812 1.2983 -1.2983Z"/>
  </g>
  <g stroke-linejoin="miter" stroke-opacity="1.0" fill-opacity="1.0" stroke="rgb(102,102,102)" stroke-width="0.0" fill="rgb(255,0,0)" stroke-linecap="butt" stroke-miterlimit="10.0">
    <path d="M 264.3943,172.4634 c 0.0000,-0.7170 -0.5812,-1.2983 -1.2983 -1.2983c -0.7170,-0.0000 -1.2983,0.5812 -1.2983 1.2983c -0.0000,0.7170 0.5812,1.2983 1.2983 1.2983c 0.7170,0.0000 1.2983,-0.5812 1.2983 -1.2983Z"/>
  </g>
  <g stroke-linejoin="miter" stroke-opacity="1.0" fill-opacity="1.0" stroke="rgb(102,102,102)" stroke-width="0.0" fill="rgb(255,0,0)" stroke-linecap="butt" stroke-miterlimit="10.0">
    <path d="M 261.6320,173.7815 c 0.0000,-0.7170 -0.5812,-1.2983 -1.2983 -1.2983c -0.7170,-0.0000 -1.2983,0.5812 -1.2983 1.2983c -0.0000,0.7170 0.5812,1.2983 1.2983 1.2983c 0.7170,0.0000 1.2983,-0.5812 1.2983 -1.2983Z"/>
  </g>
  <g stroke-linejoin="miter" stroke-opacity="1.0" fill-opacity="1.0" stroke="rgb(102,102,102)" stroke-width="0.0" fill="rgb(255,0,0)" stroke-linecap="butt" stroke-miterlimit="10.0">
    <path d="M 258.8698,175.0995 c 0.0000,-0.7170 -0.5812,-1.2983 -1.2983 -1.2983c -0.7170,-0.0000 -1.2983,0.5812 -1.2983 1.2983c -0.0000,0.7170 0.5812,1.2983 1.2983 1.2983c 0.7170,0.0000 1.2983,-0.5812 1.2983 -1.2983Z"/>
  </g>
  <g stroke-linejoin="miter" stroke-opacity="1.0" fill-opacity="1.0" stroke="rgb(102,102,102)" stroke-width="0.0" fill="rgb(255,0,0)" stroke-linecap="butt" stroke-miterlimit="10.0">
    <path d="M 256.1075,179.0536 c 0.0000,-0.7170 -0.5812,-1.2983 -1.2983 -1.2983c -0.7170,-0.0000 -1.2983,0.5812 -1.2983 1.2983c -0.0000,0.7170 0.5812,1.2983 1.2983 1.2983c 0.7170,0.0000 1.2983,-0.5812 1.2983 -1.2983Z"/>
  </g>
  <g stroke-linejoin="miter" stroke-opacity="1.0" fill-opacity="1.0" stroke="rgb(102,102,102)" stroke-width="0.0" fill="rgb(255,0,0)" stroke-linecap="butt" stroke-miterlimit="10.0">
    <path d="M 253.3453,180.3716 c 0.0000,-0.7170 -0.5812,-1.2983 -1.2983 -1.2983c -0.7170,-0.0000 -1.2983,0.5812 -1.2983 1.2983c -0.0000,0.7170 0.5812,1.2983 1.2983 1.2983c 0.7170,0.0000 1.2983,-0.5812 1.2983 -1.2983Z"/>
  </g>
  <g stroke-linejoin="miter" stroke-opacity="1.0" fill-opacity="1.0" stroke="rgb(102,102,102)" stroke-width="0.0" fill="rgb(255,0,0)" stroke-linecap="butt" stroke-miterlimit="10.0">
    <path d="M 250.5831,181.6896 c 0.0000,-0.7170 -0.5812,-1.2983 -1.2983 -1.2983c -0.7170,-0.0000 -1.2983,0.5812 -1.2983 1.2983c -0.0000,0.7170 0.5812,1.2983 1.2983 1.2983c 0.7170,0.0000 1.2983,-0.5812 1.2983 -1.2983Z"/>
  </g>
  <g stroke-linejoin="miter" stroke-opacity="1.0" fill-opacity="1.0" stroke="rgb(102,102,102)" stroke-width="0.0" fill="rgb(255,0,0)" stroke-linecap="butt" stroke-miterlimit="10.0">
    <path d="M 247.8208,183.0076 c 0.0000,-0.7170 -0.5812,-1.2983 -1.2983 -1.2983c -0.7170,-0.0000 -1.2983,0.5812 -1.2983 1.2983c -0.0000,0.7170 0.5812,1.2983 1.2983 1.2983c 0.7170,0.0000 1.2983,-0.5812 1.2983 -1.2983Z"/>
  </g>
  <g stroke-linejoin="miter" stroke-opacity="1.0" fill-opacity="1.0" stroke="rgb(102,102,102)" stroke-width="0.0" fill="rgb(255,0,0)" stroke-linecap="butt" stroke-miterlimit="10.0">
    <path d="M 245.0586,184.3257 c 0.0000,-0.7170 -0.5812,-1.2983 -1.2983 -1.2983c -0.7170,-0.0000 -1.2983,0.5812 -1.2983 1.2983c -0.0000,0.7170 0.5812,1.2983 1.2983 1.2983c 0.7170,0.0000 1.2983,-0.5812 1.2983 -1.2983Z"/>
  </g>
  <g stroke-linejoin="miter" stroke-opacity="1.0" fill-opacity="1.0" stroke="rgb(102,102,102)" stroke-width="0.0" fill="rgb(255,0,0)" stroke-linecap="butt" stroke-miterlimit="10.0">
    <path d="M 242.2963,188.2797 c 0.0000,-0.7170 -0.5812,-1.2983 -1.2983 -1.2983c -0.7170,-0.0000 -1.2983,0.5812 -1.2983 1.2983c -0.0000,0.7170 0.5812,1.2983 1.2983 1.2983c 0.7170,0.0000 1.2983,-0.5812 1.2983 -1.2983Z"/>
  </g>
  <g stroke-linejoin="miter" stroke-opacity="1.0" fill-opacity="1.0" stroke="rgb(102,102,102)" stroke-width="0.0" fill="rgb(255,0,0)" stroke-linecap="butt" stroke-miterlimit="10.0">
    <path d="M 239.5341,189.5977 c 0.0000,-0.7170 -0.5812,-1.2983 -1.2983 -1.2983c -0.7170,-0.0000 -1.2983,0.5812 -1.2983 1.2983c -0.0000,0.7170 0.5812,1.2983 1.2983 1.2983c 0.7170,0.0000 1.2983,-0.5812 1.2983 -1.2983Z"/>
  </g>
  <g stroke-linejoin="miter" stroke-opacity="1.0" fill-opacity="1.0" stroke="rgb(102,102,102)" stroke-width="0.0" fill="rgb(255,0,0)" stroke-linecap="butt" stroke-miterlimit="10.0">
    <path d="M 236.7719,190.9158 c 0.0000,-0.7170 -0.5812,-1.2983 -1.2983 -1.2983c -0.7170,-0.0000 -1.2983,0.5812 -1.2983 1.2983c -0.0000,0.7170 0.5812,1.2983 1.2983 1.2983c 0.7170,0.0000 1.2983,-0.5812 1.2983 -1.2983Z"/>
  </g>
  <g stroke-linejoin="miter" stroke-opacity="1.0" fill-opacity="1.0" stroke="rgb(102,102,102)" stroke-width="0.0" fill="rgb(255,0,0)" stroke-linecap="butt" stroke-miterlimit="10.0">
    <path d="M 234.0096,192.2338 c 0.0000,-0.7170 -0.5812,-1.2983 -1.2983 -1.2983c -0.7170,-0.0000 -1.2983,0.5812 -1.2983 1.2983c -0.0000,0.7170 0.5812,1.2983 1.2983 1.2983c 0.7170,0.0000 1.2983,-0.5812 1.2983 -1.2983Z"/>
  </g>
  <g stroke-linejoin="miter" stroke-opacity="1.0" fill-opacity="1.0" stroke="rgb(102,102,102)" stroke-width="0.0" fill="rgb(255,0,0)" stroke-linecap="butt" stroke-miterlimit="10.0">
    <path d="M 231.2474,193.5518 c 0.0000,-0.7170 -0.5812,-1.2983 -1.2983 -1.2983c -0.7170,-0.0000 -1.2983,0.5812 -1.2983 1.2983c -0.0000,0.7170 0.5812,1.2983 1.2983 1.2983c 0.7170,0.0000 1.2983,-0.5812 1.2983 -1.2983Z"/>
  </g>
  <g stroke-linejoin="miter" stroke-opacity="1.0" fill-opacity="1.0" stroke="rgb(102,102,102)" stroke-width="0.0" fill="rgb(255,0,0)" stroke-linecap="butt" stroke-miterlimit="10.0">
    <path d="M 228.4851,197.5059 c 0.0000,-0.7170 -0.5812,-1.2983 -1.2983 -1.2983c -0.7170,-0.0000 -1.2983,0.5812 -1.2983 1.2983c -0.0000,0.7170 0.5812,1.2983 1.2983 1.2983c 0.7170,0.0000 1.2983,-0.5812 1.2983 -1.2983Z"/>
  </g>
  <g stroke-linejoin="miter" stroke-opacity="1.0" fill-opacity="1.0" stroke="rgb(102,102,102)" stroke-width="0.0" fill="rgb(255,0,0)" stroke-linecap="butt" stroke-miterlimit="10.0">
    <path d="M 225.7229,198.8239 c 0.0000,-0.7170 -0.5812,-1.2983 -1.2983 -1.2983c -0.7170,-0.0000 -1.2983,0.5812 -1.2983 1.2983c -0.0000,0.7170 0.5812,1.2983 1.2983 1.2983c 0.7170,0.0000 1.2983,-0.5812 1.2983 -1.2983Z"/>
  </g>
  <g stroke-linejoin="miter" stroke-opacity="1.0" fill-opacity="1.0" stroke="rgb(102,102,102)" stroke-width="0.0" fill="rgb(255,0,0)" stroke-linecap="butt" stroke-miterlimit="10.0">
    <path d="M 222.9606,200.1419 c 0.0000,-0.7170 -0.5812,-1.2983 -1.2983 -1.2983c -0.7170,-0.0000 -1.2983,0.5812 -1.2983 1.2983c -0.0000,0.7170 0.5812,1.2983 1.2983 1.2983c 0.7170,0.0000 1.2983,-0.5812 1.2983 -1.2983Z"/>
  </g>
  <g stroke-linejoin="miter" stroke-opacity="1.0" fill-opacity="1.0" stroke="rgb(102,102,102)" stroke-width="0.0" fill="rgb(255,0,0)" stroke-linecap="butt" stroke-miterlimit="10.0">
    <path d="M 220.1984,201.4600 c 0.0000,-0.7170 -0.5812,-1.2983 -1.2983 -1.2983c -0.7170,-0.0000 -1.2983,0.5812 -1.2983 1.2983c -0.0000,0.7170 0.5812,1.2983 1.2983 1.2983c 0.7170,0.0000 1.2983,-0.5812 1.2983 -1.2983Z"/>
  </g>
  <g stroke-linejoin="miter" stroke-opacity="1.0" fill-opacity="1.0" stroke="rgb(102,102,102)" stroke-width="0.0" fill="rgb(255,0,0)" stroke-linecap="butt" stroke-miterlimit="10.0">
    <path d="M 217.4362,202.7780 c 0.0000,-0.7170 -0.5812,-1.2983 -1.2983 -1.2983c -0.7170,-0.0000 -1.2983,0.5812 -1.2983 1.2983c -0.0000,0.7170 0.5812,1.2983 1.2983 1.2983c 0.7170,0.0000 1.2983,-0.5812 1.2983 -1.2983Z"/>
  </g>
  <g stroke-linejoin="miter" stroke-opacity="1.0" fill-opacity="1.0" stroke="rgb(102,102,102)" stroke-width="0.0" fill="rgb(255,0,0)" stroke-linecap="butt" stroke-miterlimit="10.0">
    <path d="M 214.6739,206.7321 c 0.0000,-0.7170 -0.5812,-1.2983 -1.2983 -1.2983c -0.7170,-0.0000 -1.2983,0.5812 -1.2983 1.2983c -0.0000,0.7170 0.5812,1.2983 1.2983 1.2983c 0.7170,0.0000 1.2983,-0.5812 1.2983 -1.2983Z"/>
  </g>
  <g stroke-linejoin="miter" stroke-opacity="1.0" fill-opacity="1.0" stroke="rgb(102,102,102)" stroke-width="0.0" fill="rgb(255,0,0)" stroke-linecap="butt" stroke-miterlimit="10.0">
    <path d="M 211.9117,208.0501 c 0.0000,-0.7170 -0.5812,-1.2983 -1.2983 -1.2983c -0.7170,-0.0000 -1.2983,0.5812 -1.2983 1.2983c -0.0000,0.7170 0.5812,1.2983 1.2983 1.2983c 0.7170,0.0000 1.2983,-0.5812 1.2983 -1.2983Z"/>
  </g>
  <g stroke-linejoin="miter" stroke-opacity="1.0" fill-opacity="1.0" stroke="rgb(102,102,102)" stroke-width="0.0" fill="rgb(255,0,0)" stroke-linecap="butt" stroke-miterlimit="10.0">
    <path d="M 209.1494,209.3681 c 0.0000,-0.7170 -0.5812,-1.2983 -1.2983 -1.2983c -0.7170,-0.0000 -1.2983,0.5812 -1.2983 1.2983c -0.0000,0.7170 0.5812,1.2983 1.2983 1.2983c 0.7170,0.0000 1.2983,-0.5812 1.2983 -1.2983Z"/>
  </g>
  <g stroke-linejoin="miter" stroke-opacity="1.0" fill-opacity="1.0" stroke="rgb(102,102,102)" stroke-width="0.0" fill="rgb(255,0,0)" stroke-linecap="butt" stroke-miterlimit="10.0">
    <path d="M 206.3872,210.6861 c 0.0000,-0.7170 -0.5812,-1.2983 -1.2983 -1.2983c -0.7170,-0.0000 -1.2983,0.5812 -1.2983 1.2983c -0.0000,0.7170 0.5812,1.2983 1.2983 1.2983c 0.7170,0.0000 1.2983,-0.5812 1.2983 -1.2983Z"/>
  </g>
  <g stroke-linejoin="miter" stroke-opacity="1.0" fill-opacity="1.0" stroke="rgb(102,102,102)" stroke-width="0.0" fill="rgb(255,0,0)" stroke-linecap="butt" stroke-miterlimit="10.0">
    <path d="M 203.6249,212.0042 c 0.0000,-0.7170 -0.5812,-1.2983 -1.2983 -1.2983c -0.7170,-0.0000 -1.2983,0.5812 -1.2983 1.2983c -0.0000,0.7170 0.5812,1.2983 1.2983 1.2983c 0.7170,0.0000 1.2983,-0.5812 1.2983 -1.2983Z"/>
  </g>
  <g stroke-linejoin="miter" stroke-opacity="1.0" fill-opacity="1.0" stroke="rgb(102,102,102)" stroke-width="0.0" fill="rgb(255,0,0)" stroke-linecap="butt" stroke-miterlimit="10.0">
    <path d="M 200.8627,215.9582 c 0.0000,-0.7170 -0.5812,-1.2983 -1.2983 -1.2983c -0.7170,-0.0000 -1.2983,0.5812 -1.2983 1.2983c -0.0000,0.7170 0.5812,1.2983 1.2983 1.2983c 0.7170,0.0000 1.2983,-0.5812 1.2983 -1.2983Z"/>
  </g>
  <g stroke-linejoin="miter" stroke-opacity="1.0" fill-opacity="1.0" stroke="rgb(102,102,102)" stroke-width="0.0" fill="rgb(255,0,0)" stroke-linecap="butt" stroke-miterlimit="10.0">
    <path d="M 198.1005,217.2763 c 0.0000,-0.7170 -0.5812,-1.2983 -1.2983 -1.2983c -0.7170,-0.0000 -1.2983,0.5812 -1.2983 1.2983c -0.0000,0.7170 0.5812,1.2983 1.2983 1.2983c 0.7170,0.0000 1.2983,-0.5812 1.2983 -1.2983Z"/>
  </g>
  <g stroke-linejoin="miter" stroke-opacity="1.0" fill-opacity="1.0" stroke="rgb(102,102,102)" stroke-width="0.0" fill="rgb(255,0,0)" stroke-linecap="butt" stroke-miterlimit="10.0">
    <path d="M 195.3382,218.5943 c 0.0000,-0.7170 -0.5812,-1.2983 -1.2983 -1.2983c -0.7170,-0.0000 -1.2983,0.5812 -1.2983 1.2983c -0.0000,0.7170 0.5812,1.2983 1.2983 1.2983c 0.7170,0.0000 1.2983,-0.5812 1.2983 -1.2983Z"/>
  </g>
  <g stroke-linejoin="miter" stroke-opacity="1.0" fill-opacity="1.0" stroke="rgb(102,102,102)" stroke-width="0.0" fill="rgb(255,0,0)" stroke-linecap="butt" stroke-miterlimit="10.0">
    <path d="M 192.5760,219.9123 c 0.0000,-0.7170 -0.5812,-1.2983 -1.2983 -1.2983c -0.7170,-0.0000 -1.2983,0.5812 -1.2983 1.2983c -0.0000,0.7170 0.5812,1.2983 1.2983 1.2983c 0.7170,0.0000 1.2983,-0.5812 1.2983 -1.2983Z"/>
  </g>
  <g stroke-linejoin="miter" stroke-opacity="1.0" fill-opacity="1.0" stroke="rgb(102,102,102)" stroke-width="0.0" fill="rgb(255,0,0)" stroke-linecap="butt" stroke-miterlimit="10.0">
    <path d="M 189.8137,221.2303 c 0.0000,-0.7170 -0.5812,-1.2983 -1.2983 -1.2983c -0.7170,-0.0000 -1.2983,0.5812 -1.2983 1.2983c -0.0000,0.7170 0.5812,1.2983 1.2983 1.2983c 0.7170,0.0000 1.2983,-0.5812 1.2983 -1.2983Z"/>
  </g>
  <g stroke-linejoin="miter" stroke-opacity="1.0" fill-opacity="1.0" stroke="rgb(102,102,102)" stroke-width="0.0" fill="rgb(255,0,0)" stroke-linecap="butt" stroke-miterlimit="10.0">
    <path d="M 187.0515,225.1844 c 0.0000,-0.7170 -0.5812,-1.2983 -1.2983 -1.2983c -0.7170,-0.0000 -1.2983,0.5812 -1.2983 1.2983c -0.0000,0.7170 0.5812,1.2983 1.2983 1.2983c 0.7170,0.0000 1.2983,-0.5812 1.2983 -1.2983Z"/>
  </g>
  <g stroke-linejoin="miter" stroke-opacity="1.0" fill-opacity="1.0" stroke="rgb(102,102,102)" stroke-width="0.0" fill="rgb(255,0,0)" stroke-linecap="butt" stroke-miterlimit="10.0">
    <path d="M 184.2893,226.5024 c 0.0000,-0.7170 -0.5812,-1.2983 -1.2983 -1.2983c -0.7170,-0.0000 -1.2983,0.5812 -1.2983 1.2983c -0.0000,0.7170 0.5812,1.2983 1.2983 1.2983c 0.7170,0.0000 1.2983,-0.5812 1.2983 -1.2983Z"/>
  </g>
  <g stroke-linejoin="miter" stroke-opacity="1.0" fill-opacity="1.0" stroke="rgb(102,102,102)" stroke-width="0.0" fill="rgb(255,0,0)" stroke-linecap="butt" stroke-miterlimit="10.0">
    <path d="M 181.5270,227.8204 c 0.0000,-0.7170 -0.5812,-1.2983 -1.2983 -1.2983c -0.7170,-0.0000 -1.2983,0.5812 -1.2983 1.2983c -0.0000,0.7170 0.5812,1.2983 1.2983 1.2983c 0.7170,0.0000 1.2983,-0.5812 1.2983 -1.2983Z"/>
  </g>
  <g stroke-linejoin="miter" stroke-opacity="1.0" fill-opacity="1.0" stroke="rgb(102,102,102)" stroke-width="0.0" fill="rgb(255,0,0)" stroke-linecap="butt" stroke-miterlimit="10.0">
    <path d="M 178.7648,229.1385 c 0.0000,-0.7170 -0.5812,-1.2983 -1.2983 -1.2983c -0.7170,-0.0000 -1.2983,0.5812 -1.2983 1.2983c -0.0000,0.7170 0.5812,1.2983 1.2983 1.2983c 0.7170,0.0000 1.2983,-0.5812 1.2983 -1.2983Z"/>
  </g>
  <g stroke-linejoin="miter" stroke-opacity="1.0" fill-opacity="1.0" stroke="rgb(102,102,102)" stroke-width="0.0" fill="rgb(255,0,0)" stroke-linecap="butt" stroke-miterlimit="10.0">
    <path d="M 176.0025,230.4565 c 0.0000,-0.7170 -0.5812,-1.2983 -1.2983 -1.2983c -0.7170,-0.0000 -1.2983,0.5812 -1.2983 1.2983c -0.0000,0.7170 0.5812,1.2983 1.2983 1.2983c 0.7170,0.0000 1.2983,-0.5812 1.2983 -1.2983Z"/>
  </g>
  <g stroke-linejoin="miter" stroke-opacity="1.0" fill-opacity="1.0" stroke="rgb(102,102,102)" stroke-width="0.0" fill="rgb(255,0,0)" stroke-linecap="butt" stroke-miterlimit="10.0">
    <path d="M 173.2403,234.4106 c 0.0000,-0.7170 -0.5812,-1.2983 -1.2983 -1.2983c -0.7170,-0.0000 -1.2983,0.5812 -1.2983 1.2983c -0.0000,0.7170 0.5812,1.2983 1.2983 1.2983c 0.7170,0.0000 1.2983,-0.5812 1.2983 -1.2983Z"/>
  </g>
  <g stroke-linejoin="miter" stroke-opacity="1.0" fill-opacity="1.0" stroke="rgb(102,102,102)" stroke-width="0.0" fill="rgb(255,0,0)" stroke-linecap="butt" stroke-miterlimit="10.0">
    <path d="M 170.4780,235.7286 c 0.0000,-0.7170 -0.5812,-1.2983 -1.2983 -1.2983c -0.7170,-0.0000 -1.2983,0.5812 -1.2983 1.2983c -0.0000,0.7170 0.5812,1.2983 1.2983 1.2983c 0.7170,0.0000 1.2983,-0.5812 1.2983 -1.2983Z"/>
  </g>
  <g stroke-linejoin="miter" stroke-opacity="1.0" fill-opacity="1.0" stroke="rgb(102,102,102)" stroke-width="0.0" fill="rgb(255,0,0)" stroke-linecap="butt" stroke-miterlimit="10.0">
    <path d="M 167.7158,237.0466 c 0.0000,-0.7170 -0.5812,-1.2983 -1.2983 -1.2983c -0.7170,-0.0000 -1.2983,0.5812 -1.2983 1.2983c -0.0000,0.7170 0.5812,1.2983 1.2983 1.2983c 0.7170,0.0000 1.2983,-0.5812 1.2983 -1.2983Z"/>
  </g>
  <g stroke-linejoin="miter" stroke-opacity="1.0" fill-opacity="1.0" stroke="rgb(102,102,102)" stroke-width="0.0" fill="rgb(255,0,0)" stroke-linecap="butt" stroke-miterlimit="10.0">
    <path d="M 164.9536,238.3646 c 0.0000,-0.7170 -0.5812,-1.2983 -1.2983 -1.2983c -0.7170,-0.0000 -1.2983,0.5812 -1.2983 1.2983c -0.0000,0.7170 0.5812,1.2983 1.2983 1.2983c 0.7170,0.0000 1.2983,-0.5812 1.2983 -1.2983Z"/>
  </g>
  <g stroke-linejoin="miter" stroke-opacity="1.0" fill-opacity="1.0" stroke="rgb(102,102,102)" stroke-width="0.0" fill="rgb(255,0,0)" stroke-linecap="butt" stroke-miterlimit="10.0">
    <path d="M 162.1913,239.6827 c 0.0000,-0.7170 -0.5812,-1.2983 -1.2983 -1.2983c -0.7170,-0.0000 -1.2983,0.5812 -1.2983 1.2983c -0.0000,0.7170 0.5812,1.2983 1.2983 1.2983c 0.7170,0.0000 1.2983,-0.5812 1.2983 -1.2983Z"/>
  </g>
  <g stroke-linejoin="miter" stroke-opacity="1.0" fill-opacity="1.0" stroke="rgb(102,102,102)" stroke-width="0.0" fill="rgb(255,0,0)" stroke-linecap="butt" stroke-miterlimit="10.0">
    <path d="M 159.4291,243.6367 c 0.0000,-0.7170 -0.5812,-1.2983 -1.2983 -1.2983c -0.7170,-0.0000 -1.2983,0.5812 -1.2983 1.2983c -0.0000,0.7170 0.5812,1.2983 1.2983 1.2983c 0.7170,0.0000 1.2983,-0.5812 1.2983 -1.2983Z"/>
  </g>
  <g stroke-linejoin="miter" stroke-opacity="1.0" fill-opacity="1.0" stroke="rgb(102,102,102)" stroke-width="0.0" fill="rgb(255,0,0)" stroke-linecap="butt" stroke-miterlimit="10.0">
    <path d="M 156.6668,244.9548 c 0.0000,-0.7170 -0.5812,-1.2983 -1.2983 -1.2983c -0.7170,-0.0000 -1.2983,0.5812 -1.2983 1.2983c -0.0000,0.7170 0.5812,1.2983 1.2983 1.2983c 0.7170,0.0000 1.2983,-0.5812 1.2983 -1.2983Z"/>
  </g>
  <g stroke-linejoin="miter" stroke-opacity="1.0" fill-opacity="1.0" stroke="rgb(102,102,102)" stroke-width="0.0" fill="rgb(255,0,0)" stroke-linecap="butt" stroke-miterlimit="10.0">
    <path d="M 153.9046,246.2728 c 0.0000,-0.7170 -0.5812,-1.2983 -1.2983 -1.2983c -0.7170,-0.0000 -1.2983,0.5812 -1.2983 1.2983c -0.0000,0.7170 0.5812,1.2983 1.2983 1.2983c 0.7170,0.0000 1.2983,-0.5812 1.2983 -1.2983Z"/>
  </g>
  <g stroke-linejoin="miter" stroke-opacity="1.0" fill-opacity="1.0" stroke="rgb(102,102,102)" stroke-width="0.0" fill="rgb(255,0,0)" stroke-linecap="butt" stroke-miterlimit="10.0">
    <path d="M 151.1424,247.5908 c 0.0000,-0.7170 -0.5812,-1.2983 -1.2983 -1.2983c -0.7170,-0.0000 -1.2983,0.5812 -1.2983 1.2983c -0.0000,0.7170 0.5812,1.2983 1.2983 1.2983c 0.7170,0.0000 1.2983,-0.5812 1.2983 -1.2983Z"/>
  </g>
  <g stroke-linejoin="miter" stroke-opacity="1.0" fill-opacity="1.0" stroke="rgb(102,102,102)" stroke-width="0.0" fill="rgb(255,0,0)" stroke-linecap="butt" stroke-miterlimit="10.0">
    <path d="M 148.3801,248.9088 c 0.0000,-0.7170 -0.5812,-1.2983 -1.2983 -1.2983c -0.7170,-0.0000 -1.2983,0.5812 -1.2983 1.2983c -0.0000,0.7170 0.5812,1.2983 1.2983 1.2983c 0.7170,0.0000 1.2983,-0.5812 1.2983 -1.2983Z"/>
  </g>
  <g stroke-linejoin="miter" stroke-opacity="1.0" fill-opacity="1.0" stroke="rgb(102,102,102)" stroke-width="0.0" fill="rgb(255,0,0)" stroke-linecap="butt" stroke-miterlimit="10.0">
    <path d="M 145.6179,252.8629 c 0.0000,-0.7170 -0.5812,-1.2983 -1.2983 -1.2983c -0.7170,-0.0000 -1.2983,0.5812 -1.2983 1.2983c -0.0000,0.7170 0.5812,1.2983 1.2983 1.2983c 0.7170,0.0000 1.2983,-0.5812 1.2983 -1.2983Z"/>
  </g>
  <g stroke-linejoin="miter" stroke-opacity="1.0" fill-opacity="1.0" stroke="rgb(102,102,102)" stroke-width="0.0" fill="rgb(255,0,0)" stroke-linecap="butt" stroke-miterlimit="10.0">
    <path d="M 142.8556,254.1809 c 0.0000,-0.7170 -0.5812,-1.2983 -1.2983 -1.2983c -0.7170,-0.0000 -1.2983,0.5812 -1.2983 1.2983c -0.0000,0.7170 0.5812,1.2983 1.2983 1.2983c 0.7170,0.0000 1.2983,-0.5812 1.2983 -1.2983Z"/>
  </g>
  <g stroke-linejoin="miter" stroke-opacity="1.0" fill-opacity="1.0" stroke="rgb(102,102,102)" stroke-width="0.0" fill="rgb(255,0,0)" stroke-linecap="butt" stroke-miterlimit="10.0">
    <path d="M 140.0934,255.4989 c 0.0000,-0.7170 -0.5812,-1.2983 -1.2983 -1.2983c -0.7170,-0.0000 -1.2983,0.5812 -1.2983 1.2983c -0.0000,0.7170 0.5812,1.2983 1.2983 1.2983c 0.7170,0.0000 1.2983,-0.5812 1.2983 -1.2983Z"/>
  </g>
  <g stroke-linejoin="miter" stroke-opacity="1.0" fill-opacity="1.0" stroke="rgb(102,102,102)" stroke-width="0.0" fill="rgb(255,0,0)" stroke-linecap="butt" stroke-miterlimit="10.0">
    <path d="M 137.3311,256.8170 c 0.0000,-0.7170 -0.5812,-1.2983 -1.2983 -1.2983c -0.7170,-0.0000 -1.2983,0.5812 -1.2983 1.2983c -0.0000,0.7170 0.5812,1.2983 1.2983 1.2983c 0.7170,0.0000 1.2983,-0.5812 1.2983 -1.2983Z"/>
  </g>
  <g stroke-linejoin="miter" stroke-opacity="1.0" fill-opacity="1.0" stroke="rgb(102,102,102)" stroke-width="0.0" fill="rgb(255,0,0)" stroke-linecap="butt" stroke-miterlimit="10.0">
    <path d="M 134.5689,258.1350 c 0.0000,-0.7170 -0.5812,-1.2983 -1.2983 -1.2983c -0.7170,-0.0000 -1.2983,0.5812 -1.2983 1.2983c -0.0000,0.7170 0.5812,1.2983 1.2983 1.2983c 0.7170,0.0000 1.2983,-0.5812 1.2983 -1.2983Z"/>
  </g>
  <g stroke-linejoin="miter" stroke-opacity="1.0" fill-opacity="1.0" stroke="rgb(102,102,102)" stroke-width="0.0" fill="rgb(255,0,0)" stroke-linecap="butt" stroke-miterlimit="10.0">
    <path d="M 131.8067,262.0891 c 0.0000,-0.7170 -0.5812,-1.2983 -1.2983 -1.2983c -0.7170,-0.0000 -1.2983,0.5812 -1.2983 1.2983c -0.0000,0.7170 0.5812,1.2983 1.2983 1.2983c 0.7170,0.0000 1.2983,-0.5812 1.2983 -1.2983Z"/>
  </g>
  <g stroke-linejoin="miter" stroke-opacity="1.0" fill-opacity="1.0" stroke="rgb(102,102,102)" stroke-width="0.0" fill="rgb(255,0,0)" stroke-linecap="butt" stroke-miterlimit="10.0">
    <path d="M 129.0444,263.4071 c 0.0000,-0.7170 -0.5812,-1.2983 -1.2983 -1.2983c -0.7170,-0.0000 -1.2983,0.5812 -1.2983 1.2983c -0.0000,0.7170 0.5812,1.2983 1.2983 1.2983c 0.7170,0.0000 1.2983,-0.5812 1.2983 -1.2983Z"/>
  </g>
  <g stroke-linejoin="miter" stroke-opacity="1.0" fill-opacity="1.0" stroke="rgb(102,102,102)" stroke-width="0.0" fill="rgb(255,0,0)" stroke-linecap="butt" stroke-miterlimit="10.0">
    <path d="M 126.2822,264.7251 c 0.0000,-0.7170 -0.5812,-1.2983 -1.2983 -1.2983c -0.7170,-0.0000 -1.2983,0.5812 -1.2983 1.2983c -0.0000,0.7170 0.5812,1.2983 1.2983 1.2983c 0.7170,0.0000 1.2983,-0.5812 1.2983 -1.2983Z"/>
  </g>
  <g stroke-linejoin="miter" stroke-opacity="1.0" fill-opacity="1.0" stroke="rgb(102,102,102)" stroke-width="0.0" fill="rgb(255,0,0)" stroke-linecap="butt" stroke-miterlimit="10.0">
    <path d="M 123.5199,266.0431 c 0.0000,-0.7170 -0.5812,-1.2983 -1.2983 -1.2983c -0.7170,-0.0000 -1.2983,0.5812 -1.2983 1.2983c -0.0000,0.7170 0.5812,1.2983 1.2983 1.2983c 0.7170,0.0000 1.2983,-0.5812 1.2983 -1.2983Z"/>
  </g>
  <g stroke-linejoin="miter" stroke-opacity="1.0" fill-opacity="1.0" stroke="rgb(102,102,102)" stroke-width="0.0" fill="rgb(255,0,0)" stroke-linecap="butt" stroke-miterlimit="10.0">
    <path d="M 120.7577,267.3612 c 0.0000,-0.7170 -0.5812,-1.2983 -1.2983 -1.2983c -0.7170,-0.0000 -1.2983,0.5812 -1.2983 1.2983c -0.0000,0.7170 0.5812,1.2983 1.2983 1.2983c 0.7170,0.0000 1.2983,-0.5812 1.2983 -1.2983Z"/>
  </g>
  <g stroke-linejoin="miter" stroke-opacity="1.0" fill-opacity="1.0" stroke="rgb(102,102,102)" stroke-width="0.0" fill="rgb(255,0,0)" stroke-linecap="butt" stroke-miterlimit="10.0">
    <path d="M 117.9955,271.3152 c 0.0000,-0.7170 -0.5812,-1.2983 -1.2983 -1.2983c -0.7170,-0.0000 -1.2983,0.5812 -1.2983 1.2983c -0.0000,0.7170 0.5812,1.2983 1.2983 1.2983c 0.7170,0.0000 1.2983,-0.5812 1.2983 -1.2983Z"/>
  </g>
  <g stroke-linejoin="miter" stroke-opacity="1.0" fill-opacity="1.0" stroke="rgb(102,102,102)" stroke-width="0.0" fill="rgb(255,0,0)" stroke-linecap="butt" stroke-miterlimit="10.0">
    <path d="M 115.2332,272.6333 c 0.0000,-0.7170 -0.5812,-1.2983 -1.2983 -1.2983c -0.7170,-0.0000 -1.2983,0.5812 -1.2983 1.2983c -0.0000,0.7170 0.5812,1.2983 1.2983 1.2983c 0.7170,0.0000 1.2983,-0.5812 1.2983 -1.2983Z"/>
  </g>
  <g stroke-linejoin="miter" stroke-opacity="0.0" fill-opacity="0.1" stroke="rgb(0,0,0)" stroke-width="0.0" fill="rgb(0,0,0)" stroke-linecap="butt" stroke-miterlimit="10.0">
    <path d="M 103.5489,272.6333 l -0.0000,-259.6507 h -5.1930 l -0.0000,259.6507 Z"/>
  </g>
  <g stroke-linejoin="miter" stroke-opacity="0.0" fill-opacity="0.0" stroke="rgb(0,0,0)" fill-rule="evenodd" stroke-width="0.0" fill="rgb(0,0,0)" stroke-linecap="butt" stroke-miterlimit="10.0">
    <path d="M 91.8646,45.9204 l -0.0000,-17.8224 h -26.7336 l -0.0000,17.8224 Z"/>
  </g>
  <g stroke-linejoin="miter" stroke-opacity="1.0" fill-opacity="0.6" font-size="16.202205207224342px" stroke="rgb(0,0,0)" fill-rule="evenodd" stroke-width="0.0" fill="rgb(0,0,0)" stroke-linecap="butt" stroke-miterlimit="10.0">
    <text dominant-baseline="middle" transform="matrix(1.0000,-0.0000,0.0000,1.0000,78.4978,37.0092)" stroke="none" text-anchor="middle">180
    </text>
  </g>
  <g stroke-linejoin="miter" stroke-opacity="0.6" fill-opacity="0.0" stroke="rgb(0,0,0)" stroke-width="2.2769417631628843" fill="rgb(0,0,0)" stroke-linecap="butt" stroke-miterlimit="10.0">
    <path d="M 95.7594,35.3889 h 7.7895 "/>
  </g>
  <g stroke-linejoin="miter" stroke-opacity="0.0" fill-opacity="0.0" stroke="rgb(0,0,0)" fill-rule="evenodd" stroke-width="0.0" fill="rgb(0,0,0)" stroke-linecap="butt" stroke-miterlimit="10.0">
    <path d="M 91.8646,72.2809 l -0.0000,-17.8224 h -26.7336 l -0.0000,17.8224 Z"/>
  </g>
  <g stroke-linejoin="miter" stroke-opacity="1.0" fill-opacity="0.6" font-size="16.202205207224342px" stroke="rgb(0,0,0)" fill-rule="evenodd" stroke-width="0.0" fill="rgb(0,0,0)" stroke-linecap="butt" stroke-miterlimit="10.0">
    <text dominant-baseline="middle" transform="matrix(1.0000,-0.0000,0.0000,1.0000,78.4978,63.3696)" stroke="none" text-anchor="middle">160
    </text>
  </g>
  <g stroke-linejoin="miter" stroke-opacity="0.6" fill-opacity="0.0" stroke="rgb(0,0,0)" stroke-width="2.2769417631628843" fill="rgb(0,0,0)" stroke-linecap="butt" stroke-miterlimit="10.0">
    <path d="M 95.7594,61.7494 h 7.7895 "/>
  </g>
  <g stroke-linejoin="miter" stroke-opacity="0.0" fill-opacity="0.0" stroke="rgb(0,0,0)" fill-rule="evenodd" stroke-width="0.0" fill="rgb(0,0,0)" stroke-linecap="butt" stroke-miterlimit="10.0">
    <path d="M 91.8646,98.6413 l -0.0000,-17.8224 h -26.7336 l -0.0000,17.8224 Z"/>
  </g>
  <g stroke-linejoin="miter" stroke-opacity="1.0" fill-opacity="0.6" font-size="16.202205207224342px" stroke="rgb(0,0,0)" fill-rule="evenodd" stroke-width="0.0" fill="rgb(0,0,0)" stroke-linecap="butt" stroke-miterlimit="10.0">
    <text dominant-baseline="middle" transform="matrix(1.0000,-0.0000,0.0000,1.0000,78.4978,89.7301)" stroke="none" text-anchor="middle">140
    </text>
  </g>
  <g stroke-linejoin="miter" stroke-opacity="0.6" fill-opacity="0.0" stroke="rgb(0,0,0)" stroke-width="2.2769417631628843" fill="rgb(0,0,0)" stroke-linecap="butt" stroke-miterlimit="10.0">
    <path d="M 95.7594,88.1099 h 7.7895 "/>
  </g>
  <g stroke-linejoin="miter" stroke-opacity="0.0" fill-opacity="0.0" stroke="rgb(0,0,0)" fill-rule="evenodd" stroke-width="0.0" fill="rgb(0,0,0)" stroke-linecap="butt" stroke-miterlimit="10.0">
    <path d="M 91.8646,125.0018 l -0.0000,-17.8224 h -26.7336 l -0.0000,17.8224 Z"/>
  </g>
  <g stroke-linejoin="miter" stroke-opacity="1.0" fill-opacity="0.6" font-size="16.202205207224342px" stroke="rgb(0,0,0)" fill-rule="evenodd" stroke-width="0.0" fill="rgb(0,0,0)" stroke-linecap="butt" stroke-miterlimit="10.0">
    <text dominant-baseline="middle" transform="matrix(1.0000,-0.0000,0.0000,1.0000,78.4978,116.0906)" stroke="none" text-anchor="middle">120
    </text>
  </g>
  <g stroke-linejoin="miter" stroke-opacity="0.6" fill-opacity="0.0" stroke="rgb(0,0,0)" stroke-width="2.2769417631628843" fill="rgb(0,0,0)" stroke-linecap="butt" stroke-miterlimit="10.0">
    <path d="M 95.7594,114.4704 h 7.7895 "/>
  </g>
  <g stroke-linejoin="miter" stroke-opacity="0.0" fill-opacity="0.0" stroke="rgb(0,0,0)" fill-rule="evenodd" stroke-width="0.0" fill="rgb(0,0,0)" stroke-linecap="butt" stroke-miterlimit="10.0">
    <path d="M 91.8646,151.3623 l -0.0000,-17.8224 h -26.7336 l -0.0000,17.8224 Z"/>
  </g>
  <g stroke-linejoin="miter" stroke-opacity="1.0" fill-opacity="0.6" font-size="16.202205207224342px" stroke="rgb(0,0,0)" fill-rule="evenodd" stroke-width="0.0" fill="rgb(0,0,0)" stroke-linecap="butt" stroke-miterlimit="10.0">
    <text dominant-baseline="middle" transform="matrix(1.0000,-0.0000,0.0000,1.0000,78.4978,142.4511)" stroke="none" text-anchor="middle">100
    </text>
  </g>
  <g stroke-linejoin="miter" stroke-opacity="0.6" fill-opacity="0.0" stroke="rgb(0,0,0)" stroke-width="2.2769417631628843" fill="rgb(0,0,0)" stroke-linecap="butt" stroke-miterlimit="10.0">
    <path d="M 95.7594,140.8309 h 7.7895 "/>
  </g>
  <g stroke-linejoin="miter" stroke-opacity="0.0" fill-opacity="0.0" stroke="rgb(0,0,0)" fill-rule="evenodd" stroke-width="0.0" fill="rgb(0,0,0)" stroke-linecap="butt" stroke-miterlimit="10.0">
    <path d="M 91.8646,177.7228 l -0.0000,-17.8224 h -17.8224 l -0.0000,17.8224 Z"/>
  </g>
  <g stroke-linejoin="miter" stroke-opacity="1.0" fill-opacity="0.6" font-size="16.202205207224342px" stroke="rgb(0,0,0)" fill-rule="evenodd" stroke-width="0.0" fill="rgb(0,0,0)" stroke-linecap="butt" stroke-miterlimit="10.0">
    <text dominant-baseline="middle" transform="matrix(1.0000,-0.0000,0.0000,1.0000,82.9534,168.8116)" stroke="none" text-anchor="middle">80
    </text>
  </g>
  <g stroke-linejoin="miter" stroke-opacity="0.6" fill-opacity="0.0" stroke="rgb(0,0,0)" stroke-width="2.2769417631628843" fill="rgb(0,0,0)" stroke-linecap="butt" stroke-miterlimit="10.0">
    <path d="M 95.7594,167.1913 h 7.7895 "/>
  </g>
  <g stroke-linejoin="miter" stroke-opacity="0.0" fill-opacity="0.0" stroke="rgb(0,0,0)" fill-rule="evenodd" stroke-width="0.0" fill="rgb(0,0,0)" stroke-linecap="butt" stroke-miterlimit="10.0">
    <path d="M 91.8646,204.0833 l -0.0000,-17.8224 h -17.8224 l -0.0000,17.8224 Z"/>
  </g>
  <g stroke-linejoin="miter" stroke-opacity="1.0" fill-opacity="0.6" font-size="16.202205207224342px" stroke="rgb(0,0,0)" fill-rule="evenodd" stroke-width="0.0" fill="rgb(0,0,0)" stroke-linecap="butt" stroke-miterlimit="10.0">
    <text dominant-baseline="middle" transform="matrix(1.0000,-0.0000,0.0000,1.0000,82.9534,195.1720)" stroke="none" text-anchor="middle">60
    </text>
  </g>
  <g stroke-linejoin="miter" stroke-opacity="0.6" fill-opacity="0.0" stroke="rgb(0,0,0)" stroke-width="2.2769417631628843" fill="rgb(0,0,0)" stroke-linecap="butt" stroke-miterlimit="10.0">
    <path d="M 95.7594,193.5518 h 7.7895 "/>
  </g>
  <g stroke-linejoin="miter" stroke-opacity="0.0" fill-opacity="0.0" stroke="rgb(0,0,0)" fill-rule="evenodd" stroke-width="0.0" fill="rgb(0,0,0)" stroke-linecap="butt" stroke-miterlimit="10.0">
    <path d="M 91.8646,230.4437 l -0.0000,-17.8224 h -17.8224 l -0.0000,17.8224 Z"/>
  </g>
  <g stroke-linejoin="miter" stroke-opacity="1.0" fill-opacity="0.6" font-size="16.202205207224342px" stroke="rgb(0,0,0)" fill-rule="evenodd" stroke-width="0.0" fill="rgb(0,0,0)" stroke-linecap="butt" stroke-miterlimit="10.0">
    <text dominant-baseline="middle" transform="matrix(1.0000,-0.0000,0.0000,1.0000,82.9534,221.5325)" stroke="none" text-anchor="middle">40
    </text>
  </g>
  <g stroke-linejoin="miter" stroke-opacity="0.6" fill-opacity="0.0" stroke="rgb(0,0,0)" stroke-width="2.2769417631628843" fill="rgb(0,0,0)" stroke-linecap="butt" stroke-miterlimit="10.0">
    <path d="M 95.7594,219.9123 h 7.7895 "/>
  </g>
  <g stroke-linejoin="miter" stroke-opacity="0.0" fill-opacity="0.0" stroke="rgb(0,0,0)" fill-rule="evenodd" stroke-width="0.0" fill="rgb(0,0,0)" stroke-linecap="butt" stroke-miterlimit="10.0">
    <path d="M 91.8646,256.8042 l -0.0000,-17.8224 h -17.8224 l -0.0000,17.8224 Z"/>
  </g>
  <g stroke-linejoin="miter" stroke-opacity="1.0" fill-opacity="0.6" font-size="16.202205207224342px" stroke="rgb(0,0,0)" fill-rule="evenodd" stroke-width="0.0" fill="rgb(0,0,0)" stroke-linecap="butt" stroke-miterlimit="10.0">
    <text dominant-baseline="middle" transform="matrix(1.0000,-0.0000,0.0000,1.0000,82.9534,247.8930)" stroke="none" text-anchor="middle">20
    </text>
  </g>
  <g stroke-linejoin="miter" stroke-opacity="0.6" fill-opacity="0.0" stroke="rgb(0,0,0)" stroke-width="2.2769417631628843" fill="rgb(0,0,0)" stroke-linecap="butt" stroke-miterlimit="10.0">
    <path d="M 95.7594,246.2728 h 7.7895 "/>
  </g>
  <g stroke-linejoin="miter" stroke-opacity="0.0" fill-opacity="0.0" stroke="rgb(0,0,0)" fill-rule="evenodd" stroke-width="0.0" fill="rgb(0,0,0)" stroke-linecap="butt" stroke-miterlimit="10.0">
    <path d="M 91.8646,283.1647 l -0.0000,-17.8224 h -8.9112 l -0.0000,17.8224 Z"/>
  </g>
  <g stroke-linejoin="miter" stroke-opacity="1.0" fill-opacity="0.6" font-size="16.202205207224342px" stroke="rgb(0,0,0)" fill-rule="evenodd" stroke-width="0.0" fill="rgb(0,0,0)" stroke-linecap="butt" stroke-miterlimit="10.0">
    <text dominant-baseline="middle" transform="matrix(1.0000,-0.0000,0.0000,1.0000,87.4090,274.2535)" stroke="none" text-anchor="middle">0
    </text>
  </g>
  <g stroke-linejoin="miter" stroke-opacity="0.6" fill-opacity="0.0" stroke="rgb(0,0,0)" stroke-width="2.2769417631628843" fill="rgb(0,0,0)" stroke-linecap="butt" stroke-miterlimit="10.0">
    <path d="M 95.7594,272.6333 h 7.7895 "/>
  </g>
  <g stroke-linejoin="miter" stroke-opacity="0.0" fill-opacity="0.1" stroke="rgb(0,0,0)" stroke-width="0.0" fill="rgb(0,0,0)" stroke-linecap="butt" stroke-miterlimit="10.0">
    <path d="M 503.4110,288.2123 l -0.0000,-5.1930 h -389.4761 l -0.0000,5.1930 Z"/>
  </g>
  <g stroke-linejoin="miter" stroke-opacity="0.0" fill-opacity="0.0" stroke="rgb(0,0,0)" fill-rule="evenodd" stroke-width="0.0" fill="rgb(0,0,0)" stroke-linecap="butt" stroke-miterlimit="10.0">
    <path d="M 523.8435,376.6189 l 12.6024,-12.6024 l -69.3130,-69.3130 l -12.6024,12.6024 Z"/>
  </g>
  <g stroke-linejoin="miter" stroke-opacity="1.0" fill-opacity="0.6" font-size="16.20220520722434px" stroke="rgb(0,0,0)" fill-rule="evenodd" stroke-width="0.0" fill="rgb(0,0,0)" stroke-linecap="butt" stroke-miterlimit="10.0">
    <text dominant-baseline="middle" transform="matrix(0.7071,0.7071,-0.7071,0.7071,460.8318,301.0048)" stroke="none" text-anchor="start">30 Nov 2018
    </text>
  </g>
  <g stroke-linejoin="miter" stroke-opacity="0.6" fill-opacity="0.0" stroke="rgb(0,0,0)" stroke-width="2.2769417631628843" fill="rgb(0,0,0)" stroke-linecap="butt" stroke-miterlimit="10.0">
    <path d="M 461.9774,283.0193 v 7.7895 "/>
  </g>
  <g stroke-linejoin="miter" stroke-opacity="0.0" fill-opacity="0.0" stroke="rgb(0,0,0)" fill-rule="evenodd" stroke-width="0.0" fill="rgb(0,0,0)" stroke-linecap="butt" stroke-miterlimit="10.0">
    <path d="M 463.0742,376.6189 l 12.6024,-12.6024 l -69.3130,-69.3130 l -12.6024,12.6024 Z"/>
  </g>
  <g stroke-linejoin="miter" stroke-opacity="1.0" fill-opacity="0.6" font-size="16.20220520722434px" stroke="rgb(0,0,0)" fill-rule="evenodd" stroke-width="0.0" fill="rgb(0,0,0)" stroke-linecap="butt" stroke-miterlimit="10.0">
    <text dominant-baseline="middle" transform="matrix(0.7071,0.7071,-0.7071,0.7071,400.0624,301.0048)" stroke="none" text-anchor="start">31 Oct 2018
    </text>
  </g>
  <g stroke-linejoin="miter" stroke-opacity="0.6" fill-opacity="0.0" stroke="rgb(0,0,0)" stroke-width="2.2769417631628843" fill="rgb(0,0,0)" stroke-linecap="butt" stroke-miterlimit="10.0">
    <path d="M 401.2081,283.0193 v 7.7895 "/>
  </g>
  <g stroke-linejoin="miter" stroke-opacity="0.0" fill-opacity="0.0" stroke="rgb(0,0,0)" fill-rule="evenodd" stroke-width="0.0" fill="rgb(0,0,0)" stroke-linecap="butt" stroke-miterlimit="10.0">
    <path d="M 399.5427,376.6189 l 12.6024,-12.6024 l -69.3130,-69.3130 l -12.6024,12.6024 Z"/>
  </g>
  <g stroke-linejoin="miter" stroke-opacity="1.0" fill-opacity="0.6" font-size="16.20220520722434px" stroke="rgb(0,0,0)" fill-rule="evenodd" stroke-width="0.0" fill="rgb(0,0,0)" stroke-linecap="butt" stroke-miterlimit="10.0">
    <text dominant-baseline="middle" transform="matrix(0.7071,0.7071,-0.7071,0.7071,336.5309,301.0048)" stroke="none" text-anchor="start">30 Sep 2018
    </text>
  </g>
  <g stroke-linejoin="miter" stroke-opacity="0.6" fill-opacity="0.0" stroke="rgb(0,0,0)" stroke-width="2.2769417631628843" fill="rgb(0,0,0)" stroke-linecap="butt" stroke-miterlimit="10.0">
    <path d="M 337.6765,283.0193 v 7.7895 "/>
  </g>
  <g stroke-linejoin="miter" stroke-opacity="0.0" fill-opacity="0.0" stroke="rgb(0,0,0)" fill-rule="evenodd" stroke-width="0.0" fill="rgb(0,0,0)" stroke-linecap="butt" stroke-miterlimit="10.0">
    <path d="M 344.2978,376.6189 l 12.6024,-12.6024 l -69.3130,-69.3130 l -12.6024,12.6024 Z"/>
  </g>
  <g stroke-linejoin="miter" stroke-opacity="1.0" fill-opacity="0.6" font-size="16.20220520722434px" stroke="rgb(0,0,0)" fill-rule="evenodd" stroke-width="0.0" fill="rgb(0,0,0)" stroke-linecap="butt" stroke-miterlimit="10.0">
    <text dominant-baseline="middle" transform="matrix(0.7071,0.7071,-0.7071,0.7071,281.2860,301.0048)" stroke="none" text-anchor="start">31 Aug 2018
    </text>
  </g>
  <g stroke-linejoin="miter" stroke-opacity="0.6" fill-opacity="0.0" stroke="rgb(0,0,0)" stroke-width="2.2769417631628843" fill="rgb(0,0,0)" stroke-linecap="butt" stroke-miterlimit="10.0">
    <path d="M 282.4317,283.0193 v 7.7895 "/>
  </g>
  <g stroke-linejoin="miter" stroke-opacity="0.0" fill-opacity="0.0" stroke="rgb(0,0,0)" fill-rule="evenodd" stroke-width="0.0" fill="rgb(0,0,0)" stroke-linecap="butt" stroke-miterlimit="10.0">
    <path d="M 280.7663,376.6189 l 12.6024,-12.6024 l -69.3130,-69.3130 l -12.6024,12.6024 Z"/>
  </g>
  <g stroke-linejoin="miter" stroke-opacity="1.0" fill-opacity="0.6" font-size="16.20220520722434px" stroke="rgb(0,0,0)" fill-rule="evenodd" stroke-width="0.0" fill="rgb(0,0,0)" stroke-linecap="butt" stroke-miterlimit="10.0">
    <text dominant-baseline="middle" transform="matrix(0.7071,0.7071,-0.7071,0.7071,217.7545,301.0048)" stroke="none" text-anchor="start">31 Jul 2018
    </text>
  </g>
  <g stroke-linejoin="miter" stroke-opacity="0.6" fill-opacity="0.0" stroke="rgb(0,0,0)" stroke-width="2.2769417631628843" fill="rgb(0,0,0)" stroke-linecap="butt" stroke-miterlimit="10.0">
    <path d="M 218.9001,283.0193 v 7.7895 "/>
  </g>
  <g stroke-linejoin="miter" stroke-opacity="0.0" fill-opacity="0.0" stroke="rgb(0,0,0)" fill-rule="evenodd" stroke-width="0.0" fill="rgb(0,0,0)" stroke-linecap="butt" stroke-miterlimit="10.0">
    <path d="M 219.9969,376.6189 l 12.6024,-12.6024 l -69.3130,-69.3130 l -12.6024,12.6024 Z"/>
  </g>
  <g stroke-linejoin="miter" stroke-opacity="1.0" fill-opacity="0.6" font-size="16.20220520722434px" stroke="rgb(0,0,0)" fill-rule="evenodd" stroke-width="0.0" fill="rgb(0,0,0)" stroke-linecap="butt" stroke-miterlimit="10.0">
    <text dominant-baseline="middle" transform="matrix(0.7071,0.7071,-0.7071,0.7071,156.9852,301.0048)" stroke="none" text-anchor="start">30 Jun 2018
    </text>
  </g>
  <g stroke-linejoin="miter" stroke-opacity="0.6" fill-opacity="0.0" stroke="rgb(0,0,0)" stroke-width="2.2769417631628843" fill="rgb(0,0,0)" stroke-linecap="butt" stroke-miterlimit="10.0">
    <path d="M 158.1308,283.0193 v 7.7895 "/>
  </g>
  <g stroke-linejoin="miter" stroke-opacity="0.0" fill-opacity="0.0" stroke="rgb(0,0,0)" stroke-width="0.0" fill="rgb(0,0,0)" stroke-linecap="butt" stroke-miterlimit="10.0">
    <path d="M 503.4110,272.6333 l -0.0000,-259.6507 h -389.4761 l -0.0000,259.6507 Z"/>
  </g>
</svg>