<?xml version="1.0" encoding="UTF-8"?>
<!DOCTYPE svg PUBLIC "-//W3C//DTD SVG 1.1//EN"
    "http://www.w3.org/Graphics/SVG/1.1/DTD/svg11.dtd"><svg xmlns="http://www.w3.org/2000/svg" height="100.0000" stroke-opacity="1" viewBox="0 0 400 100" font-size="1" width="400.0000" xmlns:xlink="http://www.w3.org/1999/xlink" stroke="rgb(0,0,0)" version="1.1"><defs></defs><g stroke-linejoin="miter" stroke-opacity="0.0" fill-opacity="0.1" stroke="rgb(0,0,0)" stroke-width="0.0" fill="rgb(0,0,0)" stroke-linecap="butt" stroke-miterlimit="10.0"><path d="M 353.9267,33.7767 l -0.0000,-7.0017 h -350.0842 l -0.0000,7.0017 Z"/></g><g stroke-linejoin="miter" stroke-opacity="1.0" fill-opacity="0.6" stroke="rgb(0,0,0)" fill-rule="evenodd" stroke-width="0.0" fill="rgb(0,0,0)" stroke-linecap="butt" stroke-miterlimit="10.0"><path d="M 353.9267,48.3228 ZM 362.1167,44.7636 c -0.2340,-0.2340 -0.9976,-0.5542 -1.3917 -0.7020l 0.2340,-0.5296 c 1.5887,0.5788 2.2661,0.7389 3.3253 0.9114l 0.2340,0.2340 l -6.1948,6.1948 c -0.4434,0.4434 -0.5049,0.6281 -0.0985 1.0345l 0.6404,0.6404 c 0.0369,0.0369 0.0739,0.1232 0.0000 0.1971l -0.2709,0.2709 l -1.6626,-1.7119 l -1.7365,-1.6873 l 0.2709,-0.2709 c 0.0493,-0.0246 0.1232,-0.0739 0.1971 -0.0000l 0.7389,0.7389 c 0.4680,0.4680 0.6774,0.2586 1.0345 -0.0985l 4.2366,-4.2366 c 0.4187,-0.4187 0.7143,-0.7143 0.4434 -0.9853ZM 359.3210,53.7172 ZM 368.7056,49.7268 c -0.5296,-0.5296 -1.8227,-0.7882 -4.6923 2.0814c -1.0099,1.0099 -2.8573,3.2267 -1.7735 4.3105c 0.2094,0.2094 0.9360,0.6651 2.1553 -0.0369c 0.7513,-0.4311 1.5764,-1.0838 2.6479 -2.1553c 1.5641,-1.5641 2.0444,-2.8326 1.9952 -3.4977c -0.0123,-0.2586 -0.1355,-0.5049 -0.3325 -0.7020ZM 368.7056,49.7268 ZM 361.8211,56.5128 c -1.3178,-1.3178 -0.5173,-3.8918 1.3671 -5.7761c 2.3030,-2.3030 4.7908,-2.5986 5.9485 -1.4409c 0.5296,0.5296 0.7266,1.3917 0.6035 2.2292c -0.1724,1.2069 -0.8252,2.4016 -1.9828 3.5593c -2.7341,2.7341 -5.0371,2.3277 -5.9362 1.4286ZM 364.7153,59.1115 ZM 374.0999,55.1211 c -0.5296,-0.5296 -1.8227,-0.7882 -4.6923 2.0814c -1.0099,1.0099 -2.8573,3.2267 -1.7735 4.3105c 0.2094,0.2094 0.9360,0.6651 2.1553 -0.0369c 0.7513,-0.4311 1.5764,-1.0838 2.6479 -2.1553c 1.5641,-1.5641 2.0444,-2.8326 1.9952 -3.4977c -0.0123,-0.2586 -0.1355,-0.5049 -0.3325 -0.7020ZM 374.0999,55.1211 ZM 367.2154,61.9071 c -1.3178,-1.3178 -0.5173,-3.8918 1.3671 -5.7761c 2.3030,-2.3030 4.7908,-2.5986 5.9485 -1.4409c 0.5296,0.5296 0.7266,1.3917 0.6035 2.2292c -0.1724,1.2069 -0.8252,2.4016 -1.9828 3.5593c -2.7341,2.7341 -5.0371,2.3277 -5.9362 1.4286ZM 370.1096,64.5058 ZM 372.5605,64.6166 c 0.4926,0.4926 0.3325,1.2932 -0.4064 2.0321c -0.8621,0.8621 -1.8843,0.6527 -2.7587 0.0493l 0.2463,-0.3695 c 0.8005,0.4803 1.4656,0.4064 1.7242 0.1478c 0.2833,-0.2833 0.1232,-0.5419 -0.0862 -0.8005c -0.1847,-0.2586 -0.4064,-0.6774 -0.0000 -1.0838c 0.3448,-0.3448 0.8991,-0.3572 1.2808 0.0246ZM 372.8068,67.2029 ZM 382.1914,63.2126 c -0.5296,-0.5296 -1.8227,-0.7882 -4.6923 2.0814c -1.0099,1.0099 -2.8573,3.2267 -1.7735 4.3105c 0.2094,0.2094 0.9360,0.6651 2.1553 -0.0369c 0.7513,-0.4311 1.5764,-1.0838 2.6479 -2.1553c 1.5641,-1.5641 2.0444,-2.8326 1.9952 -3.4977c -0.0123,-0.2586 -0.1355,-0.5049 -0.3325 -0.7020ZM 382.1914,63.2126 ZM 375.3069,69.9986 c -1.3178,-1.3178 -0.5173,-3.8918 1.3671 -5.7761c 2.3030,-2.3030 4.7908,-2.5986 5.9485 -1.4409c 0.5296,0.5296 0.7266,1.3917 0.6035 2.2292c -0.1724,1.2069 -0.8252,2.4016 -1.9828 3.5593c -2.7341,2.7341 -5.0371,2.3277 -5.9362 1.4286ZM 378.2011,72.5972 ZM 387.5857,68.6069 c -0.5296,-0.5296 -1.8227,-0.7882 -4.6923 2.0814c -1.0099,1.0099 -2.8573,3.2267 -1.7735 4.3105c 0.2094,0.2094 0.9360,0.6651 2.1553 -0.0369c 0.7513,-0.4311 1.5764,-1.0838 2.6479 -2.1553c 1.5641,-1.5641 2.0444,-2.8326 1.9952 -3.4977c -0.0123,-0.2586 -0.1355,-0.5049 -0.3325 -0.7020ZM 387.5857,68.6069 ZM 380.7012,75.3929 c -1.3178,-1.3178 -0.5173,-3.8918 1.3671 -5.7761c 2.3030,-2.3030 4.7908,-2.5986 5.9485 -1.4409c 0.5296,0.5296 0.7266,1.3917 0.6035 2.2292c -0.1724,1.2069 -0.8252,2.4016 -1.9828 3.5593c -2.7341,2.7341 -5.0371,2.3277 -5.9362 1.4286ZM 383.5954,77.9915 ZM 392.9800,74.0012 c -0.5296,-0.5296 -1.8227,-0.7882 -4.6923 2.0814c -1.0099,1.0099 -2.8573,3.2267 -1.7735 4.3105c 0.2094,0.2094 0.9360,0.6651 2.1553 -0.0369c 0.7513,-0.4311 1.5764,-1.0838 2.6479 -2.1553c 1.5641,-1.5641 2.0444,-2.8326 1.9952 -3.4977c -0.0123,-0.2586 -0.1355,-0.5049 -0.3325 -0.7020ZM 392.9800,74.0012 ZM 386.0955,80.7872 c -1.3178,-1.3178 -0.5173,-3.8918 1.3671 -5.7761c 2.3030,-2.3030 4.7908,-2.5986 5.9485 -1.4409c 0.5296,0.5296 0.7266,1.3917 0.6035 2.2292c -0.1724,1.2069 -0.8252,2.4016 -1.9828 3.5593c -2.7341,2.7341 -5.0371,2.3277 -5.9362 1.4286Z"/></g><g stroke-linejoin="miter" stroke-opacity="0.6" fill-opacity="0.0" stroke="rgb(0,0,0)" stroke-width="0.8628829850466202" fill="rgb(0,0,0)" stroke-linecap="butt" stroke-miterlimit="10.0"><path d="M 353.9267,26.7750 v 10.5025 "/></g><g stroke-linejoin="miter" stroke-opacity="1.0" fill-opacity="0.6" stroke="rgb(0,0,0)" fill-rule="evenodd" stroke-width="0.0" fill="rgb(0,0,0)" stroke-linecap="butt" stroke-miterlimit="10.0"><path d="M 318.9183,48.3228 ZM 326.5910,48.5076 c 0.1232,-0.1232 0.3202,-0.2956 0.4434 -0.4187c 2.0690,-2.0690 1.6626,-3.5100 1.0345 -4.1381c -0.5665,-0.5665 -1.6873,-0.6281 -2.9681 0.6527c -0.5912,0.5912 -1.4656,2.0567 -0.2956 3.2267c 0.2586,0.2586 0.7513,0.7020 1.7858 0.6774ZM 326.5910,48.5076 ZM 319.7804,48.8401 c 0.8867,0.7389 1.7735,1.2069 2.9558 1.2316c 1.1084,-0.0000 2.3400,-0.4187 3.4730 -1.2562c -0.6281,0.0616 -1.5764,-0.3695 -2.0321 -0.8252c -1.8227,-1.8227 -0.5665,-3.5716 -0.0000 -4.1381c 0.8375,-0.8375 2.6725,-1.8350 4.3721 -0.1355c 0.9114,0.9114 1.7488,2.8080 -0.7020 5.2588c -1.1331,1.1331 -2.6356,1.8474 -4.3228 1.8597c -1.5887,0.0123 -2.7587,-0.4926 -4.0273 -1.6380ZM 324.3126,53.7172 ZM 333.6972,49.7268 c -0.5296,-0.5296 -1.8227,-0.7882 -4.6923 2.0814c -1.0099,1.0099 -2.8573,3.2267 -1.7735 4.3105c 0.2094,0.2094 0.9360,0.6651 2.1553 -0.0369c 0.7513,-0.4311 1.5764,-1.0838 2.6479 -2.1553c 1.5641,-1.5641 2.0444,-2.8326 1.9952 -3.4977c -0.0123,-0.2586 -0.1355,-0.5049 -0.3325 -0.7020ZM 333.6972,49.7268 ZM 326.8127,56.5128 c -1.3178,-1.3178 -0.5173,-3.8918 1.3671 -5.7761c 2.3030,-2.3030 4.7908,-2.5986 5.9485 -1.4409c 0.5296,0.5296 0.7266,1.3917 0.6035 2.2292c -0.1724,1.2069 -0.8252,2.4016 -1.9828 3.5593c -2.7341,2.7341 -5.0371,2.3277 -5.9362 1.4286ZM 329.7069,59.1115 ZM 332.1577,59.2223 c 0.4926,0.4926 0.3325,1.2932 -0.4064 2.0321c -0.8621,0.8621 -1.8843,0.6527 -2.7587 0.0493l 0.2463,-0.3695 c 0.8005,0.4803 1.4656,0.4064 1.7242 0.1478c 0.2833,-0.2833 0.1232,-0.5419 -0.0862 -0.8005c -0.1847,-0.2586 -0.4064,-0.6774 -0.0000 -1.0838c 0.3448,-0.3448 0.8991,-0.3572 1.2808 0.0246ZM 332.4041,61.8086 ZM 341.7887,57.8183 c -0.5296,-0.5296 -1.8227,-0.7882 -4.6923 2.0814c -1.0099,1.0099 -2.8573,3.2267 -1.7735 4.3105c 0.2094,0.2094 0.9360,0.6651 2.1553 -0.0369c 0.7513,-0.4311 1.5764,-1.0838 2.6479 -2.1553c 1.5641,-1.5641 2.0444,-2.8326 1.9952 -3.4977c -0.0123,-0.2586 -0.1355,-0.5049 -0.3325 -0.7020ZM 341.7887,57.8183 ZM 334.9042,64.6043 c -1.3178,-1.3178 -0.5173,-3.8918 1.3671 -5.7761c 2.3030,-2.3030 4.7908,-2.5986 5.9485 -1.4409c 0.5296,0.5296 0.7266,1.3917 0.6035 2.2292c -0.1724,1.2069 -0.8252,2.4016 -1.9828 3.5593c -2.7341,2.7341 -5.0371,2.3277 -5.9362 1.4286ZM 337.7984,67.2029 ZM 347.1830,63.2126 c -0.5296,-0.5296 -1.8227,-0.7882 -4.6923 2.0814c -1.0099,1.0099 -2.8573,3.2267 -1.7735 4.3105c 0.2094,0.2094 0.9360,0.6651 2.1553 -0.0369c 0.7513,-0.4311 1.5764,-1.0838 2.6479 -2.1553c 1.5641,-1.5641 2.0444,-2.8326 1.9952 -3.4977c -0.0123,-0.2586 -0.1355,-0.5049 -0.3325 -0.7020ZM 347.1830,63.2126 ZM 340.2985,69.9986 c -1.3178,-1.3178 -0.5173,-3.8918 1.3671 -5.7761c 2.3030,-2.3030 4.7908,-2.5986 5.9485 -1.4409c 0.5296,0.5296 0.7266,1.3917 0.6035 2.2292c -0.1724,1.2069 -0.8252,2.4016 -1.9828 3.5593c -2.7341,2.7341 -5.0371,2.3277 -5.9362 1.4286ZM 343.1927,72.5972 ZM 352.5773,68.6069 c -0.5296,-0.5296 -1.8227,-0.7882 -4.6923 2.0814c -1.0099,1.0099 -2.8573,3.2267 -1.7735 4.3105c 0.2094,0.2094 0.9360,0.6651 2.1553 -0.0369c 0.7513,-0.4311 1.5764,-1.0838 2.6479 -2.1553c 1.5641,-1.5641 2.0444,-2.8326 1.9952 -3.4977c -0.0123,-0.2586 -0.1355,-0.5049 -0.3325 -0.7020ZM 352.5773,68.6069 ZM 345.6928,75.3929 c -1.3178,-1.3178 -0.5173,-3.8918 1.3671 -5.7761c 2.3030,-2.3030 4.7908,-2.5986 5.9485 -1.4409c 0.5296,0.5296 0.7266,1.3917 0.6035 2.2292c -0.1724,1.2069 -0.8252,2.4016 -1.9828 3.5593c -2.7341,2.7341 -5.0371,2.3277 -5.9362 1.4286Z"/></g><g stroke-linejoin="miter" stroke-opacity="0.6" fill-opacity="0.0" stroke="rgb(0,0,0)" stroke-width="0.8628829850466202" fill="rgb(0,0,0)" stroke-linecap="butt" stroke-miterlimit="10.0"><path d="M 318.9183,26.7750 v 10.5025 "/></g><g stroke-linejoin="miter" stroke-opacity="1.0" fill-opacity="0.6" stroke="rgb(0,0,0)" fill-rule="evenodd" stroke-width="0.0" fill="rgb(0,0,0)" stroke-linecap="butt" stroke-miterlimit="10.0"><path d="M 283.9099,48.3228 ZM 293.4669,44.2340 c -0.7020,-0.7020 -1.7119,-0.6035 -2.2538 -0.0616c -0.3572,0.3572 -0.6404,0.9360 -0.3818 2.1553l 0.1355,0.5788 c 0.5542,0.0862 1.8720,0.2709 2.5001 -0.3572c 0.5419,-0.5419 0.7636,-1.5518 -0.0000 -2.3154ZM 293.4669,44.2340 ZM 294.1812,47.2883 c -0.7513,0.7513 -2.1922,0.4926 -3.0543 0.3202l 0.2463,1.1823 c 0.2094,0.9976 -0.0246,1.8474 -0.7020 2.5247c -0.8867,0.8867 -2.7587,1.3055 -4.2859 -0.2217c -1.2316,-1.2316 -1.4286,-2.7341 -0.2340 -3.9287c 0.4557,-0.4557 1.1823,-0.7882 2.0814 -0.7266c 0.5542,0.0369 1.0345,0.0739 1.5518 0.1478l -0.0862,-0.3325 c -0.2709,-1.1577 -0.1478,-1.9952 0.5049 -2.6479c 0.8991,-0.8991 2.4262,-0.8005 3.6208 0.3941c 1.1454,1.1454 1.1946,2.4508 0.3572 3.2883ZM 294.1812,47.2883 ZM 286.7548,50.7737 c 0.5296,0.5296 1.7365,1.1700 2.9065 -0.0000c 0.5542,-0.5542 0.7636,-1.4533 0.4803 -2.6233l -0.2094,-0.8744 c -1.6626,-0.3325 -2.7095,0.2709 -3.0543 0.6158c -1.0468,1.0468 -0.6527,2.3523 -0.1232 2.8819ZM 289.3042,53.7172 ZM 298.6888,49.7268 c -0.5296,-0.5296 -1.8227,-0.7882 -4.6923 2.0814c -1.0099,1.0099 -2.8573,3.2267 -1.7735 4.3105c 0.2094,0.2094 0.9360,0.6651 2.1553 -0.0369c 0.7513,-0.4311 1.5764,-1.0838 2.6479 -2.1553c 1.5641,-1.5641 2.0444,-2.8326 1.9952 -3.4977c -0.0123,-0.2586 -0.1355,-0.5049 -0.3325 -0.7020ZM 298.6888,49.7268 ZM 291.8043,56.5128 c -1.3178,-1.3178 -0.5173,-3.8918 1.3671 -5.7761c 2.3030,-2.3030 4.7908,-2.5986 5.9485 -1.4409c 0.5296,0.5296 0.7266,1.3917 0.6035 2.2292c -0.1724,1.2069 -0.8252,2.4016 -1.9828 3.5593c -2.7341,2.7341 -5.0371,2.3277 -5.9362 1.4286ZM 294.6985,59.1115 ZM 297.1493,59.2223 c 0.4926,0.4926 0.3325,1.2932 -0.4064 2.0321c -0.8621,0.8621 -1.8843,0.6527 -2.7587 0.0493l 0.2463,-0.3695 c 0.8005,0.4803 1.4656,0.4064 1.7242 0.1478c 0.2833,-0.2833 0.1232,-0.5419 -0.0862 -0.8005c -0.1847,-0.2586 -0.4064,-0.6774 -0.0000 -1.0838c 0.3448,-0.3448 0.8991,-0.3572 1.2808 0.0246ZM 297.3956,61.8086 ZM 306.7803,57.8183 c -0.5296,-0.5296 -1.8227,-0.7882 -4.6923 2.0814c -1.0099,1.0099 -2.8573,3.2267 -1.7735 4.3105c 0.2094,0.2094 0.9360,0.6651 2.1553 -0.0369c 0.7513,-0.4311 1.5764,-1.0838 2.6479 -2.1553c 1.5641,-1.5641 2.0444,-2.8326 1.9952 -3.4977c -0.0123,-0.2586 -0.1355,-0.5049 -0.3325 -0.7020ZM 306.7803,57.8183 ZM 299.8957,64.6043 c -1.3178,-1.3178 -0.5173,-3.8918 1.3671 -5.7761c 2.3030,-2.3030 4.7908,-2.5986 5.9485 -1.4409c 0.5296,0.5296 0.7266,1.3917 0.6035 2.2292c -0.1724,1.2069 -0.8252,2.4016 -1.9828 3.5593c -2.7341,2.7341 -5.0371,2.3277 -5.9362 1.4286ZM 302.7899,67.2029 ZM 312.1746,63.2126 c -0.5296,-0.5296 -1.8227,-0.7882 -4.6923 2.0814c -1.0099,1.0099 -2.8573,3.2267 -1.7735 4.3105c 0.2094,0.2094 0.9360,0.6651 2.1553 -0.0369c 0.7513,-0.4311 1.5764,-1.0838 2.6479 -2.1553c 1.5641,-1.5641 2.0444,-2.8326 1.9952 -3.4977c -0.0123,-0.2586 -0.1355,-0.5049 -0.3325 -0.7020ZM 312.1746,63.2126 ZM 305.2900,69.9986 c -1.3178,-1.3178 -0.5173,-3.8918 1.3671 -5.7761c 2.3030,-2.3030 4.7908,-2.5986 5.9485 -1.4409c 0.5296,0.5296 0.7266,1.3917 0.6035 2.2292c -0.1724,1.2069 -0.8252,2.4016 -1.9828 3.5593c -2.7341,2.7341 -5.0371,2.3277 -5.9362 1.4286ZM 308.1843,72.5972 ZM 317.5689,68.6069 c -0.5296,-0.5296 -1.8227,-0.7882 -4.6923 2.0814c -1.0099,1.0099 -2.8573,3.2267 -1.7735 4.3105c 0.2094,0.2094 0.9360,0.6651 2.1553 -0.0369c 0.7513,-0.4311 1.5764,-1.0838 2.6479 -2.1553c 1.5641,-1.5641 2.0444,-2.8326 1.9952 -3.4977c -0.0123,-0.2586 -0.1355,-0.5049 -0.3325 -0.7020ZM 317.5689,68.6069 ZM 310.6844,75.3929 c -1.3178,-1.3178 -0.5173,-3.8918 1.3671 -5.7761c 2.3030,-2.3030 4.7908,-2.5986 5.9485 -1.4409c 0.5296,0.5296 0.7266,1.3917 0.6035 2.2292c -0.1724,1.2069 -0.8252,2.4016 -1.9828 3.5593c -2.7341,2.7341 -5.0371,2.3277 -5.9362 1.4286Z"/></g><g stroke-linejoin="miter" stroke-opacity="0.6" fill-opacity="0.0" stroke="rgb(0,0,0)" stroke-width="0.8628829850466202" fill="rgb(0,0,0)" stroke-linecap="butt" stroke-miterlimit="10.0"><path d="M 283.9099,26.7750 v 10.5025 "/></g><g stroke-linejoin="miter" stroke-opacity="1.0" fill-opacity="0.6" stroke="rgb(0,0,0)" fill-rule="evenodd" stroke-width="0.0" fill="rgb(0,0,0)" stroke-linecap="butt" stroke-miterlimit="10.0"><path d="M 248.9015,48.3228 ZM 257.0052,43.9138 c -0.5419,-0.5419 -0.9483,-0.5049 -1.8104 -0.1108l -0.2709,-0.3695 c 0.6527,-0.3572 1.2439,-0.7020 1.9705 -1.3547l 0.2586,0.2586 c -0.0246,0.1232 -0.0493,0.2217 0.2340 0.5049l 2.3400,2.3400 c 0.4434,0.4434 0.7143,0.6897 0.9729 0.8252l 0.0985,0.2709 c -4.4829,1.8720 -7.0939,3.1036 -9.7418 4.4214l -0.8375,-0.7636 l 0.0369,-0.1108 c 2.5617,-0.9853 5.7884,-2.3400 8.9659 -3.6947l -2.2168,-2.2168 ZM 254.2958,53.7172 ZM 263.6804,49.7268 c -0.5296,-0.5296 -1.8227,-0.7882 -4.6923 2.0814c -1.0099,1.0099 -2.8573,3.2267 -1.7735 4.3105c 0.2094,0.2094 0.9360,0.6651 2.1553 -0.0369c 0.7513,-0.4311 1.5764,-1.0838 2.6479 -2.1553c 1.5641,-1.5641 2.0444,-2.8326 1.9952 -3.4977c -0.0123,-0.2586 -0.1355,-0.5049 -0.3325 -0.7020ZM 263.6804,49.7268 ZM 256.7959,56.5128 c -1.3178,-1.3178 -0.5173,-3.8918 1.3671 -5.7761c 2.3030,-2.3030 4.7908,-2.5986 5.9485 -1.4409c 0.5296,0.5296 0.7266,1.3917 0.6035 2.2292c -0.1724,1.2069 -0.8252,2.4016 -1.9828 3.5593c -2.7341,2.7341 -5.0371,2.3277 -5.9362 1.4286ZM 259.6901,59.1115 ZM 262.1409,59.2223 c 0.4926,0.4926 0.3325,1.2932 -0.4064 2.0321c -0.8621,0.8621 -1.8843,0.6527 -2.7587 0.0493l 0.2463,-0.3695 c 0.8005,0.4803 1.4656,0.4064 1.7242 0.1478c 0.2833,-0.2833 0.1232,-0.5419 -0.0862 -0.8005c -0.1847,-0.2586 -0.4064,-0.6774 -0.0000 -1.0838c 0.3448,-0.3448 0.8991,-0.3572 1.2808 0.0246ZM 262.3872,61.8086 ZM 271.7718,57.8183 c -0.5296,-0.5296 -1.8227,-0.7882 -4.6923 2.0814c -1.0099,1.0099 -2.8573,3.2267 -1.7735 4.3105c 0.2094,0.2094 0.9360,0.6651 2.1553 -0.0369c 0.7513,-0.4311 1.5764,-1.0838 2.6479 -2.1553c 1.5641,-1.5641 2.0444,-2.8326 1.9952 -3.4977c -0.0123,-0.2586 -0.1355,-0.5049 -0.3325 -0.7020ZM 271.7718,57.8183 ZM 264.8873,64.6043 c -1.3178,-1.3178 -0.5173,-3.8918 1.3671 -5.7761c 2.3030,-2.3030 4.7908,-2.5986 5.9485 -1.4409c 0.5296,0.5296 0.7266,1.3917 0.6035 2.2292c -0.1724,1.2069 -0.8252,2.4016 -1.9828 3.5593c -2.7341,2.7341 -5.0371,2.3277 -5.9362 1.4286ZM 267.7815,67.2029 ZM 277.1661,63.2126 c -0.5296,-0.5296 -1.8227,-0.7882 -4.6923 2.0814c -1.0099,1.0099 -2.8573,3.2267 -1.7735 4.3105c 0.2094,0.2094 0.9360,0.6651 2.1553 -0.0369c 0.7513,-0.4311 1.5764,-1.0838 2.6479 -2.1553c 1.5641,-1.5641 2.0444,-2.8326 1.9952 -3.4977c -0.0123,-0.2586 -0.1355,-0.5049 -0.3325 -0.7020ZM 277.1661,63.2126 ZM 270.2816,69.9986 c -1.3178,-1.3178 -0.5173,-3.8918 1.3671 -5.7761c 2.3030,-2.3030 4.7908,-2.5986 5.9485 -1.4409c 0.5296,0.5296 0.7266,1.3917 0.6035 2.2292c -0.1724,1.2069 -0.8252,2.4016 -1.9828 3.5593c -2.7341,2.7341 -5.0371,2.3277 -5.9362 1.4286ZM 273.1758,72.5972 ZM 282.5604,68.6069 c -0.5296,-0.5296 -1.8227,-0.7882 -4.6923 2.0814c -1.0099,1.0099 -2.8573,3.2267 -1.7735 4.3105c 0.2094,0.2094 0.9360,0.6651 2.1553 -0.0369c 0.7513,-0.4311 1.5764,-1.0838 2.6479 -2.1553c 1.5641,-1.5641 2.0444,-2.8326 1.9952 -3.4977c -0.0123,-0.2586 -0.1355,-0.5049 -0.3325 -0.7020ZM 282.5604,68.6069 ZM 275.6759,75.3929 c -1.3178,-1.3178 -0.5173,-3.8918 1.3671 -5.7761c 2.3030,-2.3030 4.7908,-2.5986 5.9485 -1.4409c 0.5296,0.5296 0.7266,1.3917 0.6035 2.2292c -0.1724,1.2069 -0.8252,2.4016 -1.9828 3.5593c -2.7341,2.7341 -5.0371,2.3277 -5.9362 1.4286Z"/></g><g stroke-linejoin="miter" stroke-opacity="0.6" fill-opacity="0.0" stroke="rgb(0,0,0)" stroke-width="0.8628829850466202" fill="rgb(0,0,0)" stroke-linecap="butt" stroke-miterlimit="10.0"><path d="M 248.9015,26.7750 v 10.5025 "/></g><g stroke-linejoin="miter" stroke-opacity="1.0" fill-opacity="0.6" stroke="rgb(0,0,0)" fill-rule="evenodd" stroke-width="0.0" fill="rgb(0,0,0)" stroke-linecap="butt" stroke-miterlimit="10.0"><path d="M 213.8930,48.3228 ZM 218.5484,46.5247 c -0.1355,0.1108 -0.3202,0.2956 -0.4434 0.4187c -2.0690,2.0690 -1.6626,3.5100 -1.0468 4.1258c 0.5665,0.5665 1.6996,0.6404 2.9804 -0.6404c 0.5788,-0.5788 1.4656,-2.0567 0.2833 -3.2390c -0.2586,-0.2586 -0.7513,-0.7020 -1.7735 -0.6651ZM 218.5484,46.5247 ZM 225.3467,46.1799 c -0.8744,-0.7266 -1.7735,-1.2069 -2.9435 -1.2193c -1.1207,-0.0123 -2.3523,0.4064 -3.4730 1.2562c 0.6281,-0.0616 1.5641,0.3572 2.0321 0.8252c 1.8227,1.8227 0.5542,3.5593 -0.0123 4.1258c -0.8375,0.8375 -2.6725,1.8350 -4.3721 0.1355c -0.8991,-0.8991 -1.7365,-2.7957 0.7143 -5.2465c 1.1331,-1.1331 2.6233,-1.8597 4.3228 -1.8597c 1.5887,-0.0123 2.7464,0.4803 4.0149 1.6257ZM 219.2873,53.7172 ZM 228.6720,49.7268 c -0.5296,-0.5296 -1.8227,-0.7882 -4.6923 2.0814c -1.0099,1.0099 -2.8573,3.2267 -1.7735 4.3105c 0.2094,0.2094 0.9360,0.6651 2.1553 -0.0369c 0.7513,-0.4311 1.5764,-1.0838 2.6479 -2.1553c 1.5641,-1.5641 2.0444,-2.8326 1.9952 -3.4977c -0.0123,-0.2586 -0.1355,-0.5049 -0.3325 -0.7020ZM 228.6720,49.7268 ZM 221.7874,56.5128 c -1.3178,-1.3178 -0.5173,-3.8918 1.3671 -5.7761c 2.3030,-2.3030 4.7908,-2.5986 5.9485 -1.4409c 0.5296,0.5296 0.7266,1.3917 0.6035 2.2292c -0.1724,1.2069 -0.8252,2.4016 -1.9828 3.5593c -2.7341,2.7341 -5.0371,2.3277 -5.9362 1.4286ZM 224.6816,59.1115 ZM 227.1325,59.2223 c 0.4926,0.4926 0.3325,1.2932 -0.4064 2.0321c -0.8621,0.8621 -1.8843,0.6527 -2.7587 0.0493l 0.2463,-0.3695 c 0.8005,0.4803 1.4656,0.4064 1.7242 0.1478c 0.2833,-0.2833 0.1232,-0.5419 -0.0862 -0.8005c -0.1847,-0.2586 -0.4064,-0.6774 -0.0000 -1.0838c 0.3448,-0.3448 0.8991,-0.3572 1.2808 0.0246ZM 227.3788,61.8086 ZM 236.7634,57.8183 c -0.5296,-0.5296 -1.8227,-0.7882 -4.6923 2.0814c -1.0099,1.0099 -2.8573,3.2267 -1.7735 4.3105c 0.2094,0.2094 0.9360,0.6651 2.1553 -0.0369c 0.7513,-0.4311 1.5764,-1.0838 2.6479 -2.1553c 1.5641,-1.5641 2.0444,-2.8326 1.9952 -3.4977c -0.0123,-0.2586 -0.1355,-0.5049 -0.3325 -0.7020ZM 236.7634,57.8183 ZM 229.8789,64.6043 c -1.3178,-1.3178 -0.5173,-3.8918 1.3671 -5.7761c 2.3030,-2.3030 4.7908,-2.5986 5.9485 -1.4409c 0.5296,0.5296 0.7266,1.3917 0.6035 2.2292c -0.1724,1.2069 -0.8252,2.4016 -1.9828 3.5593c -2.7341,2.7341 -5.0371,2.3277 -5.9362 1.4286ZM 232.7731,67.2029 ZM 242.1577,63.2126 c -0.5296,-0.5296 -1.8227,-0.7882 -4.6923 2.0814c -1.0099,1.0099 -2.8573,3.2267 -1.7735 4.3105c 0.2094,0.2094 0.9360,0.6651 2.1553 -0.0369c 0.7513,-0.4311 1.5764,-1.0838 2.6479 -2.1553c 1.5641,-1.5641 2.0444,-2.8326 1.9952 -3.4977c -0.0123,-0.2586 -0.1355,-0.5049 -0.3325 -0.7020ZM 242.1577,63.2126 ZM 235.2732,69.9986 c -1.3178,-1.3178 -0.5173,-3.8918 1.3671 -5.7761c 2.3030,-2.3030 4.7908,-2.5986 5.9485 -1.4409c 0.5296,0.5296 0.7266,1.3917 0.6035 2.2292c -0.1724,1.2069 -0.8252,2.4016 -1.9828 3.5593c -2.7341,2.7341 -5.0371,2.3277 -5.9362 1.4286ZM 238.1674,72.5972 ZM 247.5520,68.6069 c -0.5296,-0.5296 -1.8227,-0.7882 -4.6923 2.0814c -1.0099,1.0099 -2.8573,3.2267 -1.7735 4.3105c 0.2094,0.2094 0.9360,0.6651 2.1553 -0.0369c 0.7513,-0.4311 1.5764,-1.0838 2.6479 -2.1553c 1.5641,-1.5641 2.0444,-2.8326 1.9952 -3.4977c -0.0123,-0.2586 -0.1355,-0.5049 -0.3325 -0.7020ZM 247.5520,68.6069 ZM 240.6675,75.3929 c -1.3178,-1.3178 -0.5173,-3.8918 1.3671 -5.7761c 2.3030,-2.3030 4.7908,-2.5986 5.9485 -1.4409c 0.5296,0.5296 0.7266,1.3917 0.6035 2.2292c -0.1724,1.2069 -0.8252,2.4016 -1.9828 3.5593c -2.7341,2.7341 -5.0371,2.3277 -5.9362 1.4286Z"/></g><g stroke-linejoin="miter" stroke-opacity="0.6" fill-opacity="0.0" stroke="rgb(0,0,0)" stroke-width="0.8628829850466202" fill="rgb(0,0,0)" stroke-linecap="butt" stroke-miterlimit="10.0"><path d="M 213.8930,26.7750 v 10.5025 "/></g><g stroke-linejoin="miter" stroke-opacity="1.0" fill-opacity="0.6" stroke="rgb(0,0,0)" fill-rule="evenodd" stroke-width="0.0" fill="rgb(0,0,0)" stroke-linecap="butt" stroke-miterlimit="10.0"><path d="M 178.8846,48.3228 ZM 184.7716,50.0471 c 1.2685,-1.2685 1.2069,-2.5863 0.4434 -3.3499c -0.5665,-0.5665 -1.0838,-0.9114 -1.7612 -1.1946l 3.7563,-2.9681 c 0.3695,0.4434 0.7759,0.8744 1.2069 1.3055c 0.6158,0.6158 1.2932,1.2193 2.0321 1.8104l 0.0369,0.1108 l -0.9853,0.6158 c -0.5296,-0.4311 -0.9360,-0.8128 -1.2808 -1.1577c -0.5542,-0.5542 -0.9237,-1.0222 -1.3055 -1.5025l -2.1799,1.7119 c 0.3572,0.1601 0.8867,0.5173 1.3671 0.9976c 1.3055,1.3055 0.8991,3.1652 -0.2340 4.2982c -1.3794,1.3794 -3.3992,1.4779 -4.7908 0.0862c -0.7020,-0.7020 -1.3301,-2.1183 -0.8498 -2.5986c 0.2340,-0.2340 0.5912,-0.1971 0.8128 0.0246c 0.2463,0.2463 0.2217,0.5912 0.1724 0.9360c -0.0369,0.4064 -0.0862,0.8498 0.3079 1.2439c 0.7882,0.7882 2.1799,0.7020 3.2514 -0.3695ZM 184.2789,53.7172 ZM 193.6635,49.7268 c -0.5296,-0.5296 -1.8227,-0.7882 -4.6923 2.0814c -1.0099,1.0099 -2.8573,3.2267 -1.7735 4.3105c 0.2094,0.2094 0.9360,0.6651 2.1553 -0.0369c 0.7513,-0.4311 1.5764,-1.0838 2.6479 -2.1553c 1.5641,-1.5641 2.0444,-2.8326 1.9952 -3.4977c -0.0123,-0.2586 -0.1355,-0.5049 -0.3325 -0.7020ZM 193.6635,49.7268 ZM 186.7790,56.5128 c -1.3178,-1.3178 -0.5173,-3.8918 1.3671 -5.7761c 2.3030,-2.3030 4.7908,-2.5986 5.9485 -1.4409c 0.5296,0.5296 0.7266,1.3917 0.6035 2.2292c -0.1724,1.2069 -0.8252,2.4016 -1.9828 3.5593c -2.7341,2.7341 -5.0371,2.3277 -5.9362 1.4286ZM 189.6732,59.1115 ZM 192.1241,59.2223 c 0.4926,0.4926 0.3325,1.2932 -0.4064 2.0321c -0.8621,0.8621 -1.8843,0.6527 -2.7587 0.0493l 0.2463,-0.3695 c 0.8005,0.4803 1.4656,0.4064 1.7242 0.1478c 0.2833,-0.2833 0.1232,-0.5419 -0.0862 -0.8005c -0.1847,-0.2586 -0.4064,-0.6774 -0.0000 -1.0838c 0.3448,-0.3448 0.8991,-0.3572 1.2808 0.0246ZM 192.3704,61.8086 ZM 201.7550,57.8183 c -0.5296,-0.5296 -1.8227,-0.7882 -4.6923 2.0814c -1.0099,1.0099 -2.8573,3.2267 -1.7735 4.3105c 0.2094,0.2094 0.9360,0.6651 2.1553 -0.0369c 0.7513,-0.4311 1.5764,-1.0838 2.6479 -2.1553c 1.5641,-1.5641 2.0444,-2.8326 1.9952 -3.4977c -0.0123,-0.2586 -0.1355,-0.5049 -0.3325 -0.7020ZM 201.7550,57.8183 ZM 194.8705,64.6043 c -1.3178,-1.3178 -0.5173,-3.8918 1.3671 -5.7761c 2.3030,-2.3030 4.7908,-2.5986 5.9485 -1.4409c 0.5296,0.5296 0.7266,1.3917 0.6035 2.2292c -0.1724,1.2069 -0.8252,2.4016 -1.9828 3.5593c -2.7341,2.7341 -5.0371,2.3277 -5.9362 1.4286ZM 197.7647,67.2029 ZM 207.1493,63.2126 c -0.5296,-0.5296 -1.8227,-0.7882 -4.6923 2.0814c -1.0099,1.0099 -2.8573,3.2267 -1.7735 4.3105c 0.2094,0.2094 0.9360,0.6651 2.1553 -0.0369c 0.7513,-0.4311 1.5764,-1.0838 2.6479 -2.1553c 1.5641,-1.5641 2.0444,-2.8326 1.9952 -3.4977c -0.0123,-0.2586 -0.1355,-0.5049 -0.3325 -0.7020ZM 207.1493,63.2126 ZM 200.2648,69.9986 c -1.3178,-1.3178 -0.5173,-3.8918 1.3671 -5.7761c 2.3030,-2.3030 4.7908,-2.5986 5.9485 -1.4409c 0.5296,0.5296 0.7266,1.3917 0.6035 2.2292c -0.1724,1.2069 -0.8252,2.4016 -1.9828 3.5593c -2.7341,2.7341 -5.0371,2.3277 -5.9362 1.4286ZM 203.1590,72.5972 ZM 212.5436,68.6069 c -0.5296,-0.5296 -1.8227,-0.7882 -4.6923 2.0814c -1.0099,1.0099 -2.8573,3.2267 -1.7735 4.3105c 0.2094,0.2094 0.9360,0.6651 2.1553 -0.0369c 0.7513,-0.4311 1.5764,-1.0838 2.6479 -2.1553c 1.5641,-1.5641 2.0444,-2.8326 1.9952 -3.4977c -0.0123,-0.2586 -0.1355,-0.5049 -0.3325 -0.7020ZM 212.5436,68.6069 ZM 205.6591,75.3929 c -1.3178,-1.3178 -0.5173,-3.8918 1.3671 -5.7761c 2.3030,-2.3030 4.7908,-2.5986 5.9485 -1.4409c 0.5296,0.5296 0.7266,1.3917 0.6035 2.2292c -0.1724,1.2069 -0.8252,2.4016 -1.9828 3.5593c -2.7341,2.7341 -5.0371,2.3277 -5.9362 1.4286Z"/></g><g stroke-linejoin="miter" stroke-opacity="0.6" fill-opacity="0.0" stroke="rgb(0,0,0)" stroke-width="0.8628829850466202" fill="rgb(0,0,0)" stroke-linecap="butt" stroke-miterlimit="10.0"><path d="M 178.8846,26.7750 v 10.5025 "/></g><g stroke-linejoin="miter" stroke-opacity="1.0" fill-opacity="0.6" stroke="rgb(0,0,0)" fill-rule="evenodd" stroke-width="0.0" fill="rgb(0,0,0)" stroke-linecap="butt" stroke-miterlimit="10.0"><path d="M 143.8762,48.3228 ZM 151.4258,47.1282 c 0.0862,-0.0862 0.1971,-0.1724 0.3695 -0.1232c 0.2340,0.0369 0.5665,0.1478 0.7513 0.3325c 0.1601,0.1601 0.0369,0.3079 -0.2094 0.5542l -1.9828,1.9828 l 0.9976,0.9976 l -0.6527,0.5049 l -0.9237,-0.9237 l -1.0222,1.0222 c -0.3448,0.3448 -0.4680,0.5665 -0.1108 0.9237l 0.3325,0.3325 c 0.0739,0.0739 0.0246,0.1478 0.0000 0.1724l -0.2709,0.2709 c 0.0000,-0.0000 -0.7636,-0.8128 -1.2808 -1.3301c -0.4680,-0.4680 -1.2193,-1.1700 -1.2193 -1.1700l 0.2709,-0.2709 c 0.0246,-0.0246 0.0985,-0.0739 0.1724 -0.0000l 0.3325,0.3325 c 0.3818,0.3818 0.5788,0.2586 0.9360 -0.0985l 1.0222,-1.0222 l -2.4139,-2.4139 c -0.0493,-0.0493 -0.0493,-0.0985 -0.0369 -0.1847l 0.0369,-0.2340 l 0.1108,-0.4064 c -0.0123,-0.0123 0.0000,-0.0246 0.0123 -0.0369c 0.0123,-0.0123 0.0369,-0.0123 0.0616 -0.0123c 1.6873,-0.0862 5.8500,-1.4163 7.3032 -1.9828c 0.0616,-0.0369 0.0985,-0.0246 0.1478 0.0246c 0.0123,0.0123 0.1724,0.3941 0.2956 0.5665c -2.0444,0.9360 -4.5568,1.6257 -6.8845 2.1553l 1.9459,1.9459 l 1.9089,-1.9089 ZM 149.2705,53.7172 ZM 158.6551,49.7268 c -0.5296,-0.5296 -1.8227,-0.7882 -4.6923 2.0814c -1.0099,1.0099 -2.8573,3.2267 -1.7735 4.3105c 0.2094,0.2094 0.9360,0.6651 2.1553 -0.0369c 0.7513,-0.4311 1.5764,-1.0838 2.6479 -2.1553c 1.5641,-1.5641 2.0444,-2.8326 1.9952 -3.4977c -0.0123,-0.2586 -0.1355,-0.5049 -0.3325 -0.7020ZM 158.6551,49.7268 ZM 151.7706,56.5128 c -1.3178,-1.3178 -0.5173,-3.8918 1.3671 -5.7761c 2.3030,-2.3030 4.7908,-2.5986 5.9485 -1.4409c 0.5296,0.5296 0.7266,1.3917 0.6035 2.2292c -0.1724,1.2069 -0.8252,2.4016 -1.9828 3.5593c -2.7341,2.7341 -5.0371,2.3277 -5.9362 1.4286ZM 154.6648,59.1115 ZM 157.1156,59.2223 c 0.4926,0.4926 0.3325,1.2932 -0.4064 2.0321c -0.8621,0.8621 -1.8843,0.6527 -2.7587 0.0493l 0.2463,-0.3695 c 0.8005,0.4803 1.4656,0.4064 1.7242 0.1478c 0.2833,-0.2833 0.1232,-0.5419 -0.0862 -0.8005c -0.1847,-0.2586 -0.4064,-0.6774 -0.0000 -1.0838c 0.3448,-0.3448 0.8991,-0.3572 1.2808 0.0246ZM 157.3620,61.8086 ZM 166.7466,57.8183 c -0.5296,-0.5296 -1.8227,-0.7882 -4.6923 2.0814c -1.0099,1.0099 -2.8573,3.2267 -1.7735 4.3105c 0.2094,0.2094 0.9360,0.6651 2.1553 -0.0369c 0.7513,-0.4311 1.5764,-1.0838 2.6479 -2.1553c 1.5641,-1.5641 2.0444,-2.8326 1.9952 -3.4977c -0.0123,-0.2586 -0.1355,-0.5049 -0.3325 -0.7020ZM 166.7466,57.8183 ZM 159.8621,64.6043 c -1.3178,-1.3178 -0.5173,-3.8918 1.3671 -5.7761c 2.3030,-2.3030 4.7908,-2.5986 5.9485 -1.4409c 0.5296,0.5296 0.7266,1.3917 0.6035 2.2292c -0.1724,1.2069 -0.8252,2.4016 -1.9828 3.5593c -2.7341,2.7341 -5.0371,2.3277 -5.9362 1.4286ZM 162.7563,67.2029 ZM 172.1409,63.2126 c -0.5296,-0.5296 -1.8227,-0.7882 -4.6923 2.0814c -1.0099,1.0099 -2.8573,3.2267 -1.7735 4.3105c 0.2094,0.2094 0.9360,0.6651 2.1553 -0.0369c 0.7513,-0.4311 1.5764,-1.0838 2.6479 -2.1553c 1.5641,-1.5641 2.0444,-2.8326 1.9952 -3.4977c -0.0123,-0.2586 -0.1355,-0.5049 -0.3325 -0.7020ZM 172.1409,63.2126 ZM 165.2564,69.9986 c -1.3178,-1.3178 -0.5173,-3.8918 1.3671 -5.7761c 2.3030,-2.3030 4.7908,-2.5986 5.9485 -1.4409c 0.5296,0.5296 0.7266,1.3917 0.6035 2.2292c -0.1724,1.2069 -0.8252,2.4016 -1.9828 3.5593c -2.7341,2.7341 -5.0371,2.3277 -5.9362 1.4286ZM 168.1506,72.5972 ZM 177.5352,68.6069 c -0.5296,-0.5296 -1.8227,-0.7882 -4.6923 2.0814c -1.0099,1.0099 -2.8573,3.2267 -1.7735 4.3105c 0.2094,0.2094 0.9360,0.6651 2.1553 -0.0369c 0.7513,-0.4311 1.5764,-1.0838 2.6479 -2.1553c 1.5641,-1.5641 2.0444,-2.8326 1.9952 -3.4977c -0.0123,-0.2586 -0.1355,-0.5049 -0.3325 -0.7020ZM 177.5352,68.6069 ZM 170.6507,75.3929 c -1.3178,-1.3178 -0.5173,-3.8918 1.3671 -5.7761c 2.3030,-2.3030 4.7908,-2.5986 5.9485 -1.4409c 0.5296,0.5296 0.7266,1.3917 0.6035 2.2292c -0.1724,1.2069 -0.8252,2.4016 -1.9828 3.5593c -2.7341,2.7341 -5.0371,2.3277 -5.9362 1.4286Z"/></g><g stroke-linejoin="miter" stroke-opacity="0.6" fill-opacity="0.0" stroke="rgb(0,0,0)" stroke-width="0.8628829850466202" fill="rgb(0,0,0)" stroke-linecap="butt" stroke-miterlimit="10.0"><path d="M 143.8762,26.7750 v 10.5025 "/></g><g stroke-linejoin="miter" stroke-opacity="1.0" fill-opacity="0.6" stroke="rgb(0,0,0)" fill-rule="evenodd" stroke-width="0.0" fill="rgb(0,0,0)" stroke-linecap="butt" stroke-miterlimit="10.0"><path d="M 108.8678,48.3228 ZM 118.2647,44.2463 c -0.3079,-0.3079 -1.3794,-1.0345 -2.1306 -0.2833c -0.2217,0.2217 -0.6897,0.5173 -1.0222 0.1847c -0.3202,-0.3202 0.0123,-0.7020 0.0493 -0.7389c 0.3818,-0.3818 2.0198,-1.0099 3.7317 0.7020c 1.1946,1.1946 0.8005,2.3030 0.3079 2.7957c -0.3079,0.3079 -1.0222,0.8252 -2.8326 0.4187c 0.5788,0.8005 0.9853,2.2168 -0.2956 3.4977c -1.6257,1.6257 -3.7317,1.2685 -5.1234 -0.1232c -0.7020,-0.7020 -1.3794,-1.9952 -0.9114 -2.4632c 0.1847,-0.1847 0.5788,-0.2094 0.8252 0.0369c 0.2340,0.2340 0.2217,0.4680 0.1724 0.7389c -0.0739,0.3448 -0.1478,0.8621 0.4434 1.4533c 0.4064,0.4064 1.9705,1.1577 3.5223 -0.3941c 1.3178,-1.3178 0.6035,-2.4508 -0.0616 -3.1159c -0.1108,-0.1108 -0.2709,-0.2217 -0.4311 -0.3325l 0.3202,-0.4187 c 1.1084,0.7882 2.8203,0.6527 3.3868 0.0862c 0.7020,-0.7020 0.5542,-1.5395 0.0493 -2.0444ZM 114.2621,53.7172 ZM 123.6467,49.7268 c -0.5296,-0.5296 -1.8227,-0.7882 -4.6923 2.0814c -1.0099,1.0099 -2.8573,3.2267 -1.7735 4.3105c 0.2094,0.2094 0.9360,0.6651 2.1553 -0.0369c 0.7513,-0.4311 1.5764,-1.0838 2.6479 -2.1553c 1.5641,-1.5641 2.0444,-2.8326 1.9952 -3.4977c -0.0123,-0.2586 -0.1355,-0.5049 -0.3325 -0.7020ZM 123.6467,49.7268 ZM 116.7622,56.5128 c -1.3178,-1.3178 -0.5173,-3.8918 1.3671 -5.7761c 2.3030,-2.3030 4.7908,-2.5986 5.9485 -1.4409c 0.5296,0.5296 0.7266,1.3917 0.6035 2.2292c -0.1724,1.2069 -0.8252,2.4016 -1.9828 3.5593c -2.7341,2.7341 -5.0371,2.3277 -5.9362 1.4286ZM 119.6564,59.1115 ZM 122.1072,59.2223 c 0.4926,0.4926 0.3325,1.2932 -0.4064 2.0321c -0.8621,0.8621 -1.8843,0.6527 -2.7587 0.0493l 0.2463,-0.3695 c 0.8005,0.4803 1.4656,0.4064 1.7242 0.1478c 0.2833,-0.2833 0.1232,-0.5419 -0.0862 -0.8005c -0.1847,-0.2586 -0.4064,-0.6774 -0.0000 -1.0838c 0.3448,-0.3448 0.8991,-0.3572 1.2808 0.0246ZM 122.3535,61.8086 ZM 131.7382,57.8183 c -0.5296,-0.5296 -1.8227,-0.7882 -4.6923 2.0814c -1.0099,1.0099 -2.8573,3.2267 -1.7735 4.3105c 0.2094,0.2094 0.9360,0.6651 2.1553 -0.0369c 0.7513,-0.4311 1.5764,-1.0838 2.6479 -2.1553c 1.5641,-1.5641 2.0444,-2.8326 1.9952 -3.4977c -0.0123,-0.2586 -0.1355,-0.5049 -0.3325 -0.7020ZM 131.7382,57.8183 ZM 124.8536,64.6043 c -1.3178,-1.3178 -0.5173,-3.8918 1.3671 -5.7761c 2.3030,-2.3030 4.7908,-2.5986 5.9485 -1.4409c 0.5296,0.5296 0.7266,1.3917 0.6035 2.2292c -0.1724,1.2069 -0.8252,2.4016 -1.9828 3.5593c -2.7341,2.7341 -5.0371,2.3277 -5.9362 1.4286ZM 127.7478,67.2029 ZM 137.1325,63.2126 c -0.5296,-0.5296 -1.8227,-0.7882 -4.6923 2.0814c -1.0099,1.0099 -2.8573,3.2267 -1.7735 4.3105c 0.2094,0.2094 0.9360,0.6651 2.1553 -0.0369c 0.7513,-0.4311 1.5764,-1.0838 2.6479 -2.1553c 1.5641,-1.5641 2.0444,-2.8326 1.9952 -3.4977c -0.0123,-0.2586 -0.1355,-0.5049 -0.3325 -0.7020ZM 137.1325,63.2126 ZM 130.2479,69.9986 c -1.3178,-1.3178 -0.5173,-3.8918 1.3671 -5.7761c 2.3030,-2.3030 4.7908,-2.5986 5.9485 -1.4409c 0.5296,0.5296 0.7266,1.3917 0.6035 2.2292c -0.1724,1.2069 -0.8252,2.4016 -1.9828 3.5593c -2.7341,2.7341 -5.0371,2.3277 -5.9362 1.4286ZM 133.1422,72.5972 ZM 142.5268,68.6069 c -0.5296,-0.5296 -1.8227,-0.7882 -4.6923 2.0814c -1.0099,1.0099 -2.8573,3.2267 -1.7735 4.3105c 0.2094,0.2094 0.9360,0.6651 2.1553 -0.0369c 0.7513,-0.4311 1.5764,-1.0838 2.6479 -2.1553c 1.5641,-1.5641 2.0444,-2.8326 1.9952 -3.4977c -0.0123,-0.2586 -0.1355,-0.5049 -0.3325 -0.7020ZM 142.5268,68.6069 ZM 135.6423,75.3929 c -1.3178,-1.3178 -0.5173,-3.8918 1.3671 -5.7761c 2.3030,-2.3030 4.7908,-2.5986 5.9485 -1.4409c 0.5296,0.5296 0.7266,1.3917 0.6035 2.2292c -0.1724,1.2069 -0.8252,2.4016 -1.9828 3.5593c -2.7341,2.7341 -5.0371,2.3277 -5.9362 1.4286Z"/></g><g stroke-linejoin="miter" stroke-opacity="0.6" fill-opacity="0.0" stroke="rgb(0,0,0)" stroke-width="0.8628829850466202" fill="rgb(0,0,0)" stroke-linecap="butt" stroke-miterlimit="10.0"><path d="M 108.8678,26.7750 v 10.5025 "/></g><g stroke-linejoin="miter" stroke-opacity="1.0" fill-opacity="0.6" stroke="rgb(0,0,0)" fill-rule="evenodd" stroke-width="0.0" fill="rgb(0,0,0)" stroke-linecap="butt" stroke-miterlimit="10.0"><path d="M 73.8594,48.3228 ZM 80.0296,43.5813 c 0.7020,-0.7020 2.3400,-0.9853 3.6332 0.3079c 0.9483,0.9483 1.6996,2.4139 0.2833 3.8302c -0.9360,0.9360 -1.8843,0.9237 -3.1898 0.8991l -2.3030,-0.0369 c -0.1232,0.0000 -1.7612,-0.0123 -2.3400 0.5665l 2.0937,2.0937 c 0.4187,0.4187 0.8498,0.4311 1.6996 -0.0739l 0.2586,0.3572 l -1.7981,1.3055 l -3.8056,-3.8056 c 0.6897,-0.6897 1.3301,-1.1084 3.6455 -1.1331l 1.7119,0.0123 c 1.3917,-0.0123 2.2784,-0.3325 3.0297 -1.0838c 1.1207,-1.1207 0.6774,-2.2045 0.2586 -2.6233c -0.8498,-0.8498 -1.5272,-0.6404 -1.8227 -0.3448c -0.0985,0.0985 -0.1724,0.2217 -0.2340 0.3325c -0.0616,0.1108 -0.1232,0.2217 -0.2217 0.3202c -0.3202,0.3202 -0.6897,0.1971 -0.8867 0.0000c -0.2709,-0.2709 -0.2586,-0.6774 -0.0123 -0.9237ZM 79.2537,53.7172 ZM 88.6383,49.7268 c -0.5296,-0.5296 -1.8227,-0.7882 -4.6923 2.0814c -1.0099,1.0099 -2.8573,3.2267 -1.7735 4.3105c 0.2094,0.2094 0.9360,0.6651 2.1553 -0.0369c 0.7513,-0.4311 1.5764,-1.0838 2.6479 -2.1553c 1.5641,-1.5641 2.0444,-2.8326 1.9952 -3.4977c -0.0123,-0.2586 -0.1355,-0.5049 -0.3325 -0.7020ZM 88.6383,49.7268 ZM 81.7538,56.5128 c -1.3178,-1.3178 -0.5173,-3.8918 1.3671 -5.7761c 2.3030,-2.3030 4.7908,-2.5986 5.9485 -1.4409c 0.5296,0.5296 0.7266,1.3917 0.6035 2.2292c -0.1724,1.2069 -0.8252,2.4016 -1.9828 3.5593c -2.7341,2.7341 -5.0371,2.3277 -5.9362 1.4286ZM 84.6480,59.1115 ZM 87.0988,59.2223 c 0.4926,0.4926 0.3325,1.2932 -0.4064 2.0321c -0.8621,0.8621 -1.8843,0.6527 -2.7587 0.0493l 0.2463,-0.3695 c 0.8005,0.4803 1.4656,0.4064 1.7242 0.1478c 0.2833,-0.2833 0.1232,-0.5419 -0.0862 -0.8005c -0.1847,-0.2586 -0.4064,-0.6774 -0.0000 -1.0838c 0.3448,-0.3448 0.8991,-0.3572 1.2808 0.0246ZM 87.3451,61.8086 ZM 96.7297,57.8183 c -0.5296,-0.5296 -1.8227,-0.7882 -4.6923 2.0814c -1.0099,1.0099 -2.8573,3.2267 -1.7735 4.3105c 0.2094,0.2094 0.9360,0.6651 2.1553 -0.0369c 0.7513,-0.4311 1.5764,-1.0838 2.6479 -2.1553c 1.5641,-1.5641 2.0444,-2.8326 1.9952 -3.4977c -0.0123,-0.2586 -0.1355,-0.5049 -0.3325 -0.7020ZM 96.7297,57.8183 ZM 89.8452,64.6043 c -1.3178,-1.3178 -0.5173,-3.8918 1.3671 -5.7761c 2.3030,-2.3030 4.7908,-2.5986 5.9485 -1.4409c 0.5296,0.5296 0.7266,1.3917 0.6035 2.2292c -0.1724,1.2069 -0.8252,2.4016 -1.9828 3.5593c -2.7341,2.7341 -5.0371,2.3277 -5.9362 1.4286ZM 92.7394,67.2029 ZM 102.1240,63.2126 c -0.5296,-0.5296 -1.8227,-0.7882 -4.6923 2.0814c -1.0099,1.0099 -2.8573,3.2267 -1.7735 4.3105c 0.2094,0.2094 0.9360,0.6651 2.1553 -0.0369c 0.7513,-0.4311 1.5764,-1.0838 2.6479 -2.1553c 1.5641,-1.5641 2.0444,-2.8326 1.9952 -3.4977c -0.0123,-0.2586 -0.1355,-0.5049 -0.3325 -0.7020ZM 102.1240,63.2126 ZM 95.2395,69.9986 c -1.3178,-1.3178 -0.5173,-3.8918 1.3671 -5.7761c 2.3030,-2.3030 4.7908,-2.5986 5.9485 -1.4409c 0.5296,0.5296 0.7266,1.3917 0.6035 2.2292c -0.1724,1.2069 -0.8252,2.4016 -1.9828 3.5593c -2.7341,2.7341 -5.0371,2.3277 -5.9362 1.4286ZM 98.1337,72.5972 ZM 107.5183,68.6069 c -0.5296,-0.5296 -1.8227,-0.7882 -4.6923 2.0814c -1.0099,1.0099 -2.8573,3.2267 -1.7735 4.3105c 0.2094,0.2094 0.9360,0.6651 2.1553 -0.0369c 0.7513,-0.4311 1.5764,-1.0838 2.6479 -2.1553c 1.5641,-1.5641 2.0444,-2.8326 1.9952 -3.4977c -0.0123,-0.2586 -0.1355,-0.5049 -0.3325 -0.7020ZM 107.5183,68.6069 ZM 100.6338,75.3929 c -1.3178,-1.3178 -0.5173,-3.8918 1.3671 -5.7761c 2.3030,-2.3030 4.7908,-2.5986 5.9485 -1.4409c 0.5296,0.5296 0.7266,1.3917 0.6035 2.2292c -0.1724,1.2069 -0.8252,2.4016 -1.9828 3.5593c -2.7341,2.7341 -5.0371,2.3277 -5.9362 1.4286Z"/></g><g stroke-linejoin="miter" stroke-opacity="0.6" fill-opacity="0.0" stroke="rgb(0,0,0)" stroke-width="0.8628829850466202" fill="rgb(0,0,0)" stroke-linecap="butt" stroke-miterlimit="10.0"><path d="M 73.8594,26.7750 v 10.5025 "/></g><g stroke-linejoin="miter" stroke-opacity="1.0" fill-opacity="0.6" stroke="rgb(0,0,0)" fill-rule="evenodd" stroke-width="0.0" fill="rgb(0,0,0)" stroke-linecap="butt" stroke-miterlimit="10.0"><path d="M 38.8509,48.3228 ZM 47.0409,44.7636 c -0.2340,-0.2340 -0.9976,-0.5542 -1.3917 -0.7020l 0.2340,-0.5296 c 1.5887,0.5788 2.2661,0.7389 3.3253 0.9114l 0.2340,0.2340 l -6.1948,6.1948 c -0.4434,0.4434 -0.5049,0.6281 -0.0985 1.0345l 0.6404,0.6404 c 0.0369,0.0369 0.0739,0.1232 0.0000 0.1971l -0.2709,0.2709 l -1.6626,-1.7119 l -1.7365,-1.6873 l 0.2709,-0.2709 c 0.0493,-0.0246 0.1232,-0.0739 0.1971 -0.0000l 0.7389,0.7389 c 0.4680,0.4680 0.6774,0.2586 1.0345 -0.0985l 4.2366,-4.2366 c 0.4187,-0.4187 0.7143,-0.7143 0.4434 -0.9853ZM 44.2452,53.7172 ZM 53.6299,49.7268 c -0.5296,-0.5296 -1.8227,-0.7882 -4.6923 2.0814c -1.0099,1.0099 -2.8573,3.2267 -1.7735 4.3105c 0.2094,0.2094 0.9360,0.6651 2.1553 -0.0369c 0.7513,-0.4311 1.5764,-1.0838 2.6479 -2.1553c 1.5641,-1.5641 2.0444,-2.8326 1.9952 -3.4977c -0.0123,-0.2586 -0.1355,-0.5049 -0.3325 -0.7020ZM 53.6299,49.7268 ZM 46.7453,56.5128 c -1.3178,-1.3178 -0.5173,-3.8918 1.3671 -5.7761c 2.3030,-2.3030 4.7908,-2.5986 5.9485 -1.4409c 0.5296,0.5296 0.7266,1.3917 0.6035 2.2292c -0.1724,1.2069 -0.8252,2.4016 -1.9828 3.5593c -2.7341,2.7341 -5.0371,2.3277 -5.9362 1.4286ZM 49.6396,59.1115 ZM 52.0904,59.2223 c 0.4926,0.4926 0.3325,1.2932 -0.4064 2.0321c -0.8621,0.8621 -1.8843,0.6527 -2.7587 0.0493l 0.2463,-0.3695 c 0.8005,0.4803 1.4656,0.4064 1.7242 0.1478c 0.2833,-0.2833 0.1232,-0.5419 -0.0862 -0.8005c -0.1847,-0.2586 -0.4064,-0.6774 -0.0000 -1.0838c 0.3448,-0.3448 0.8991,-0.3572 1.2808 0.0246ZM 52.3367,61.8086 ZM 61.7213,57.8183 c -0.5296,-0.5296 -1.8227,-0.7882 -4.6923 2.0814c -1.0099,1.0099 -2.8573,3.2267 -1.7735 4.3105c 0.2094,0.2094 0.9360,0.6651 2.1553 -0.0369c 0.7513,-0.4311 1.5764,-1.0838 2.6479 -2.1553c 1.5641,-1.5641 2.0444,-2.8326 1.9952 -3.4977c -0.0123,-0.2586 -0.1355,-0.5049 -0.3325 -0.7020ZM 61.7213,57.8183 ZM 54.8368,64.6043 c -1.3178,-1.3178 -0.5173,-3.8918 1.3671 -5.7761c 2.3030,-2.3030 4.7908,-2.5986 5.9485 -1.4409c 0.5296,0.5296 0.7266,1.3917 0.6035 2.2292c -0.1724,1.2069 -0.8252,2.4016 -1.9828 3.5593c -2.7341,2.7341 -5.0371,2.3277 -5.9362 1.4286ZM 57.7310,67.2029 ZM 67.1156,63.2126 c -0.5296,-0.5296 -1.8227,-0.7882 -4.6923 2.0814c -1.0099,1.0099 -2.8573,3.2267 -1.7735 4.3105c 0.2094,0.2094 0.9360,0.6651 2.1553 -0.0369c 0.7513,-0.4311 1.5764,-1.0838 2.6479 -2.1553c 1.5641,-1.5641 2.0444,-2.8326 1.9952 -3.4977c -0.0123,-0.2586 -0.1355,-0.5049 -0.3325 -0.7020ZM 67.1156,63.2126 ZM 60.2311,69.9986 c -1.3178,-1.3178 -0.5173,-3.8918 1.3671 -5.7761c 2.3030,-2.3030 4.7908,-2.5986 5.9485 -1.4409c 0.5296,0.5296 0.7266,1.3917 0.6035 2.2292c -0.1724,1.2069 -0.8252,2.4016 -1.9828 3.5593c -2.7341,2.7341 -5.0371,2.3277 -5.9362 1.4286ZM 63.1253,72.5972 ZM 72.5099,68.6069 c -0.5296,-0.5296 -1.8227,-0.7882 -4.6923 2.0814c -1.0099,1.0099 -2.8573,3.2267 -1.7735 4.3105c 0.2094,0.2094 0.9360,0.6651 2.1553 -0.0369c 0.7513,-0.4311 1.5764,-1.0838 2.6479 -2.1553c 1.5641,-1.5641 2.0444,-2.8326 1.9952 -3.4977c -0.0123,-0.2586 -0.1355,-0.5049 -0.3325 -0.7020ZM 72.5099,68.6069 ZM 65.6254,75.3929 c -1.3178,-1.3178 -0.5173,-3.8918 1.3671 -5.7761c 2.3030,-2.3030 4.7908,-2.5986 5.9485 -1.4409c 0.5296,0.5296 0.7266,1.3917 0.6035 2.2292c -0.1724,1.2069 -0.8252,2.4016 -1.9828 3.5593c -2.7341,2.7341 -5.0371,2.3277 -5.9362 1.4286Z"/></g><g stroke-linejoin="miter" stroke-opacity="0.6" fill-opacity="0.0" stroke="rgb(0,0,0)" stroke-width="0.8628829850466202" fill="rgb(0,0,0)" stroke-linecap="butt" stroke-miterlimit="10.0"><path d="M 38.8509,26.7750 v 10.5025 "/></g><g stroke-linejoin="miter" stroke-opacity="1.0" fill-opacity="0.6" stroke="rgb(0,0,0)" fill-rule="evenodd" stroke-width="0.0" fill="rgb(0,0,0)" stroke-linecap="butt" stroke-miterlimit="10.0"><path d="M 3.8425,48.3228 ZM 13.2271,44.3325 c -0.5296,-0.5296 -1.8227,-0.7882 -4.6923 2.0814c -1.0099,1.0099 -2.8573,3.2267 -1.7735 4.3105c 0.2094,0.2094 0.9360,0.6651 2.1553 -0.0369c 0.7513,-0.4311 1.5764,-1.0838 2.6479 -2.1553c 1.5641,-1.5641 2.0444,-2.8326 1.9952 -3.4977c -0.0123,-0.2586 -0.1355,-0.5049 -0.3325 -0.7020ZM 13.2271,44.3325 ZM 6.3426,51.1185 c -1.3178,-1.3178 -0.5173,-3.8918 1.3671 -5.7761c 2.3030,-2.3030 4.7908,-2.5986 5.9485 -1.4409c 0.5296,0.5296 0.7266,1.3917 0.6035 2.2292c -0.1724,1.2069 -0.8252,2.4016 -1.9828 3.5593c -2.7341,2.7341 -5.0371,2.3277 -5.9362 1.4286Z"/></g><g stroke-linejoin="miter" stroke-opacity="0.6" fill-opacity="0.0" stroke="rgb(0,0,0)" stroke-width="0.8628829850466202" fill="rgb(0,0,0)" stroke-linecap="butt" stroke-miterlimit="10.0"><path d="M 3.8425,26.7750 v 10.5025 "/></g></svg>