<?xml version="1.0" encoding="UTF-8"?>
<!DOCTYPE svg PUBLIC "-//W3C//DTD SVG 1.1//EN"
    "http://www.w3.org/Graphics/SVG/1.1/DTD/svg11.dtd"><svg xmlns="http://www.w3.org/2000/svg" height="400.0000" stroke-opacity="1" viewBox="0 0 600 400" font-size="1" width="600.0000" xmlns:xlink="http://www.w3.org/1999/xlink" stroke="rgb(0,0,0)" version="1.1"><defs></defs><g stroke-linejoin="miter" stroke-opacity="1.0" fill-opacity="0.6" stroke="rgb(0,0,0)" fill-rule="evenodd" stroke-width="0.0" fill="rgb(0,0,0)" stroke-linecap="butt" stroke-miterlimit="10.0"><path d="M 246.7226,42.5263 ZM 251.8292,26.8244 v 5.5162 h 2.1573 c 2.2665,-0.0000 4.0688,-0.9012 4.0688 -3.2223c 0.0000,-2.7854 -2.1846,-3.2769 -3.7138 -3.2769c -2.3758,-0.0000 -2.5123,0.0819 -2.5123 0.9831ZM 251.8292,26.8244 ZM 251.8292,33.2963 v 7.2639 c 0.0000,0.9012 0.1912,1.0650 2.4031 1.0650c 4.1508,-0.0000 5.1065,-2.4850 5.1065 -4.1508c 0.0000,-2.4577 -1.7477,-4.1781 -4.9427 -4.1781h -2.5669 ZM 251.8292,33.2963 ZM 247.1869,41.9802 c 0.0000,-0.1365 0.0546,-0.2185 0.1912 -0.2185h 0.8192 c 1.0923,-0.0000 1.4200,-0.3004 1.4200 -1.2562v -13.6539 c 0.0000,-0.9285 -0.2731,-1.2015 -1.4200 -1.2015h -0.8192 c -0.1365,-0.0000 -0.1912,-0.0819 -0.1912 -0.1912v -0.5462 l 0.0546,-0.0273 l 3.4681,0.0273 c 0.0000,-0.0000 2.4850,-0.0273 3.4408 -0.0273c 5.0792,-0.0000 6.0077,2.3485 6.0077 4.1781c 0.0000,1.5019 -1.1469,2.9765 -2.5396 3.6592c 2.8946,0.6554 4.1508,2.5123 4.1508 5.0519c 0.0000,2.3485 -1.5838,4.7789 -7.0181 4.7789c -1.9662,-0.0000 -4.0415,-0.0546 -4.0415 -0.0546l -3.4681,0.0546 l -0.0546,-0.0546 v -0.5188 ZM 262.8888,42.5263 ZM 270.8354,35.8359 l -2.1573,0.5462 c -2.4031,0.7373 -2.7581,1.9935 -2.7581 3.2223c 0.0000,0.8465 0.4096,2.1300 2.1300 2.1300c 0.8192,-0.0000 2.0754,-0.7919 2.7854 -1.3927v -4.5058 ZM 270.8354,35.8359 ZM 272.5831,42.8540 c -1.0377,-0.0000 -1.6112,-0.9285 -1.7204 -1.5838l -0.6281,0.4369 c -1.2562,0.8738 -1.7204,1.1469 -2.9765 1.1469c -1.9115,-0.0000 -3.3042,-1.0923 -3.3042 -3.1404c 0.0000,-2.0754 1.7750,-3.4954 4.3692 -4.1508l 2.5123,-0.6281 c 0.0000,-3.0858 -1.4200,-3.6592 -2.3485 -3.6592c -1.0377,-0.0000 -2.2392,0.4642 -2.2392 1.3108c 0.0000,0.3004 0.0546,0.4642 0.0819 0.5462c 0.0546,0.1092 0.0819,0.3004 0.0819 0.4915c 0.0000,0.3550 -0.2731,0.9012 -1.0650 0.9012c -0.6554,-0.0000 -1.0923,-0.4369 -1.0923 -1.0923c 0.0000,-1.5838 2.5669,-2.9765 4.3146 -2.9765c 1.9935,-0.0000 4.2873,0.8192 4.2873 4.6969v 4.0142 c 0.0000,1.6658 0.0273,2.3758 0.6554 2.3758c 0.6008,-0.0000 0.7646,-0.7646 0.7919 -1.3654l 0.6827,0.1365 c -0.1638,1.9935 -1.0104,2.5396 -2.4031 2.5396ZM 275.2046,42.5263 ZM 277.6350,40.5601 v -6.7996 c 0.0000,-1.3654 -0.1912,-1.6658 -0.6008 -1.6658c -0.3550,-0.0000 -0.6827,0.0273 -1.1469 0.1365l -0.1365,-0.7646 c 1.7204,-0.3004 2.0208,-0.3823 2.8400 -0.7919c 0.2731,-0.1365 0.4915,-0.2185 0.6827 -0.2185h 0.4096 l -0.0819,2.4577 h 0.0819 c 0.7100,-1.0650 1.9115,-2.4577 3.1950 -2.4577c 1.1196,-0.0000 1.5292,0.5462 1.5292 1.2562c 0.0000,0.7100 -0.4642,1.1469 -1.1742 1.1469c -0.5462,-0.0000 -0.8465,-0.2185 -1.1196 -0.4915c -0.1638,-0.1638 -0.3550,-0.2458 -0.5462 -0.2458c -0.3004,-0.0000 -0.9012,0.4915 -1.5565 1.4200c -0.1912,0.2458 -0.3277,0.6008 -0.3277 0.9558v 6.0623 c 0.0000,0.7919 0.2731,1.2015 1.1742 1.2015h 0.7919 c 0.1365,-0.0000 0.2458,0.0819 0.2458 0.2185v 0.5188 l -0.0546,0.0546 c 0.0000,-0.0000 -2.1573,-0.0546 -3.2223 -0.0546c -0.9831,-0.0000 -2.8400,0.0546 -2.8400 0.0546l -0.0273,-0.0546 v -0.5188 c 0.0000,-0.1365 0.0546,-0.2185 0.1912 -0.2185h 0.5188 c 0.9285,-0.0000 1.1742,-0.4096 1.1742 -1.2015ZM 291.5073,42.5263 ZM 301.2015,42.8540 c -5.8712,-0.0000 -8.6839,-4.5331 -8.6839 -8.9296c 0.0000,-5.3796 4.1781,-9.3665 8.7112 -9.3665c 3.3588,-0.0000 4.4238,1.1469 5.9804 1.2288c 0.0819,1.5019 0.3277,2.8127 0.6008 4.2327l -0.8192,0.1092 c -0.7100,-2.3485 -2.2938,-4.5604 -6.0623 -4.5604c -2.1573,-0.0000 -6.0350,2.2938 -6.0350 7.8373c 0.0000,3.9869 2.0481,8.3289 6.2808 8.3289c 2.5396,-0.0000 4.3965,-0.9012 6.3354 -3.0312l 0.6281,0.4096 c -1.8569,2.4304 -4.2873,3.7412 -6.9362 3.7412ZM 309.0935,42.5263 ZM 313.5446,23.4655 v 9.2573 c 1.8296,-1.8296 3.4408,-2.2665 4.5058 -2.2665c 1.9662,-0.0000 2.9492,1.5019 2.9492 4.3146v 5.7892 c 0.0000,0.7919 0.2731,1.2015 1.1742 1.2015h 0.5188 c 0.1092,-0.0000 0.2185,0.0819 0.2185 0.2185v 0.5188 l -0.0546,0.0546 c 0.0000,-0.0000 -1.8569,-0.0546 -2.9492 -0.0546c -0.9558,-0.0000 -2.8127,0.0546 -2.8127 0.0546l -0.0546,-0.0546 v -0.5188 c 0.0000,-0.1365 0.0819,-0.2185 0.2185 -0.2185h 0.5188 c 0.9285,-0.0000 1.1742,-0.4096 1.1742 -1.2015v -6.0896 c 0.0000,-2.2119 -0.6008,-2.7308 -2.1300 -2.7308c -0.7919,-0.0000 -1.9662,0.7100 -3.2769 1.9935v 6.8269 c 0.0000,0.7919 0.2731,1.2015 1.1742 1.2015h 0.5188 c 0.1092,-0.0000 0.2185,0.0819 0.2185 0.2185v 0.5188 l -0.0546,0.0546 c 0.0000,-0.0000 -1.8569,-0.0546 -2.9219 -0.0546c -0.9831,-0.0000 -2.8127,0.0546 -2.8127 0.0546l -0.0546,-0.0546 v -0.5188 c 0.0000,-0.1365 0.0546,-0.2185 0.1912 -0.2185h 0.5188 c 0.9285,-0.0000 1.1742,-0.4096 1.1742 -1.2015v -13.6812 c 0.0000,-1.5565 -0.2458,-1.9935 -0.7919 -1.9935l -0.9012,0.1092 c -0.0819,-0.0000 -0.1365,-0.0546 -0.1365 -0.1365l -0.0546,-0.6827 c 0.4369,-0.0000 1.4200,-0.1638 1.8842 -0.2458c 0.4915,-0.1092 0.9012,-0.2185 1.4473 -0.4642h 0.6008 ZM 323.2389,42.5263 ZM 331.1854,35.8359 l -2.1573,0.5462 c -2.4031,0.7373 -2.7581,1.9935 -2.7581 3.2223c 0.0000,0.8465 0.4096,2.1300 2.1300 2.1300c 0.8192,-0.0000 2.0754,-0.7919 2.7854 -1.3927v -4.5058 ZM 331.1854,35.8359 ZM 332.9331,42.8540 c -1.0377,-0.0000 -1.6112,-0.9285 -1.7204 -1.5838l -0.6281,0.4369 c -1.2562,0.8738 -1.7204,1.1469 -2.9765 1.1469c -1.9115,-0.0000 -3.3042,-1.0923 -3.3042 -3.1404c 0.0000,-2.0754 1.7750,-3.4954 4.3692 -4.1508l 2.5123,-0.6281 c 0.0000,-3.0858 -1.4200,-3.6592 -2.3485 -3.6592c -1.0377,-0.0000 -2.2392,0.4642 -2.2392 1.3108c 0.0000,0.3004 0.0546,0.4642 0.0819 0.5462c 0.0546,0.1092 0.0819,0.3004 0.0819 0.4915c 0.0000,0.3550 -0.2731,0.9012 -1.0650 0.9012c -0.6554,-0.0000 -1.0923,-0.4369 -1.0923 -1.0923c 0.0000,-1.5838 2.5669,-2.9765 4.3146 -2.9765c 1.9935,-0.0000 4.2873,0.8192 4.2873 4.6969v 4.0142 c 0.0000,1.6658 0.0273,2.3758 0.6554 2.3758c 0.6008,-0.0000 0.7646,-0.7646 0.7919 -1.3654l 0.6827,0.1365 c -0.1638,1.9935 -1.0104,2.5396 -2.4031 2.5396ZM 335.5546,42.5263 ZM 337.9850,40.5601 v -6.7996 c 0.0000,-1.3654 -0.1912,-1.6658 -0.6008 -1.6658c -0.3550,-0.0000 -0.6827,0.0273 -1.1469 0.1365l -0.1365,-0.7646 c 1.7204,-0.3004 2.0208,-0.3823 2.8400 -0.7919c 0.2731,-0.1365 0.4915,-0.2185 0.6827 -0.2185h 0.4096 l -0.0819,2.4577 h 0.0819 c 0.7100,-1.0650 1.9115,-2.4577 3.1950 -2.4577c 1.1196,-0.0000 1.5292,0.5462 1.5292 1.2562c 0.0000,0.7100 -0.4642,1.1469 -1.1742 1.1469c -0.5462,-0.0000 -0.8465,-0.2185 -1.1196 -0.4915c -0.1638,-0.1638 -0.3550,-0.2458 -0.5462 -0.2458c -0.3004,-0.0000 -0.9012,0.4915 -1.5565 1.4200c -0.1912,0.2458 -0.3277,0.6008 -0.3277 0.9558v 6.0623 c 0.0000,0.7919 0.2731,1.2015 1.1742 1.2015h 0.7919 c 0.1365,-0.0000 0.2458,0.0819 0.2458 0.2185v 0.5188 l -0.0546,0.0546 c 0.0000,-0.0000 -2.1573,-0.0546 -3.2223 -0.0546c -0.9831,-0.0000 -2.8400,0.0546 -2.8400 0.0546l -0.0273,-0.0546 v -0.5188 c 0.0000,-0.1365 0.0546,-0.2185 0.1912 -0.2185h 0.5188 c 0.9285,-0.0000 1.1742,-0.4096 1.1742 -1.2015ZM 345.0304,42.5263 ZM 349.5089,31.8490 v 6.9908 c 0.0000,1.6931 0.1638,2.5123 0.9012 2.5123c 0.7100,-0.0000 1.2562,-0.2185 1.9662 -0.7646l 0.4915,0.4642 c -1.0650,1.2015 -2.1573,1.8023 -3.4135 1.8023c -1.2562,-0.0000 -1.9935,-0.7646 -1.9935 -2.7035v -8.3015 h -1.7750 c -0.0819,-0.0000 -0.1092,-0.0273 -0.1092 -0.1092v -0.8465 c 0.0000,-0.0819 0.0273,-0.1092 0.0819 -0.1092c 1.8296,-0.0000 2.2665,-1.0650 2.2665 -3.1404v -0.5188 l 1.5838,-0.5462 v 4.2054 h 3.0038 c 0.1365,-0.0000 0.2185,0.0546 0.2185 0.1638v 0.5462 c 0.0000,0.2458 -0.3823,0.3550 -0.6554 0.3550h -2.5669 Z"/></g><g stroke-linejoin="miter" stroke-opacity="0.0" fill-opacity="0.1" stroke="rgb(0,0,0)" stroke-width="0.0" fill="rgb(0,0,0)" stroke-linecap="butt" stroke-miterlimit="10.0"><path d="M 505.8319,352.9331 l -0.0000,-5.4889 h -411.6638 l -0.0000,5.4889 Z"/></g><g stroke-linejoin="miter" stroke-opacity="1.0" fill-opacity="0.6" stroke="rgb(0,0,0)" fill-rule="evenodd" stroke-width="0.0" fill="rgb(0,0,0)" stroke-linecap="butt" stroke-miterlimit="10.0"><path d="M 482.7273,376.0696 ZM 484.6206,365.6744 c 0.0000,-0.4733 0.3823,-0.8738 0.8738 -0.8738c 0.4733,-0.0000 0.8738,0.4005 0.8738 0.8738c 0.0000,0.4915 -0.4005,0.8738 -0.8738 0.8738c -0.4915,-0.0000 -0.8738,-0.3823 -0.8738 -0.8738ZM 484.6206,365.6744 ZM 483.6558,379.6014 c 0.8010,-0.0000 1.3472,-1.4382 1.3472 -4.0051v -5.3705 c 0.0000,-0.9649 -0.1638,-1.1105 -0.4005 -1.1105c -0.2549,-0.0000 -0.4551,0.0182 -0.7646 0.0910l -0.0910,-0.5097 c 1.3290,-0.2185 1.7295,-0.4369 1.9662 -0.5644c 0.1274,-0.0546 0.2003,-0.1092 0.3823 -0.1092h 0.2731 v 7.0090 c 0.0000,2.3849 -0.1821,3.3862 -1.1833 4.4056c -0.4915,0.4733 -1.0195,0.6918 -1.4564 0.6918c -0.7464,-0.0000 -1.7113,-0.3823 -1.7113 -0.9285c 0.0000,-0.4551 0.2731,-0.6918 0.5826 -0.6918c 0.4369,-0.0000 0.6736,0.4187 0.7646 0.8010c 0.0546,0.1821 0.1456,0.2913 0.2913 0.2913Z"/></g><g stroke-linejoin="miter" stroke-opacity="0.6" fill-opacity="0.0" stroke="rgb(0,0,0)" stroke-width="2.127980706395726" fill="rgb(0,0,0)" stroke-linecap="butt" stroke-miterlimit="10.0"><path d="M 485.2487,347.4443 v 8.2333 "/></g><g stroke-linejoin="miter" stroke-opacity="1.0" fill-opacity="0.6" stroke="rgb(0,0,0)" fill-rule="evenodd" stroke-width="0.0" fill="rgb(0,0,0)" stroke-linecap="butt" stroke-miterlimit="10.0"><path d="M 441.6793,376.0696 ZM 443.0993,365.6744 c 0.0000,-0.4733 0.3823,-0.8738 0.8556 -0.8738c 0.4915,-0.0000 0.8738,0.4005 0.8738 0.8738c 0.0000,0.4915 -0.3823,0.8738 -0.8738 0.8738c -0.4733,-0.0000 -0.8556,-0.3823 -0.8556 -0.8738ZM 443.0993,365.6744 ZM 444.8287,374.7588 c 0.0000,0.5279 0.2003,0.8010 0.7828 0.8010h 0.3459 c 0.0910,-0.0000 0.1638,0.0546 0.1638 0.1456v 0.3459 l -0.0364,0.0364 c 0.0000,-0.0000 -1.2562,-0.0364 -1.9662 -0.0364c -0.6372,-0.0000 -1.8751,0.0364 -1.8751 0.0364l -0.0364,-0.0364 v -0.3459 c 0.0000,-0.0910 0.0546,-0.1456 0.1456 -0.1456h 0.3459 c 0.6008,-0.0000 0.7828,-0.2731 0.7828 -0.8010v -4.5331 c 0.0000,-0.9649 -0.1638,-1.1105 -0.4187 -1.1105c -0.2367,-0.0000 -0.4551,0.0182 -0.7646 0.0910l -0.0910,-0.5097 c 1.1651,-0.2003 1.3654,-0.2731 1.8933 -0.5279c 0.2003,-0.0728 0.3277,-0.1456 0.4551 -0.1456h 0.2731 v 6.7359 Z"/></g><g stroke-linejoin="miter" stroke-opacity="0.6" fill-opacity="0.0" stroke="rgb(0,0,0)" stroke-width="2.127980706395726" fill="rgb(0,0,0)" stroke-linecap="butt" stroke-miterlimit="10.0"><path d="M 444.0823,347.4443 v 8.2333 "/></g><g stroke-linejoin="miter" stroke-opacity="1.0" fill-opacity="0.6" stroke="rgb(0,0,0)" fill-rule="evenodd" stroke-width="0.0" fill="rgb(0,0,0)" stroke-linecap="butt" stroke-miterlimit="10.0"><path d="M 398.2008,376.0696 ZM 401.1683,363.3624 v 6.1715 c 1.2197,-1.2197 2.2938,-1.5110 3.0038 -1.5110c 1.3108,-0.0000 1.9662,1.0013 1.9662 2.8764v 3.8595 c 0.0000,0.5279 0.1821,0.8010 0.7828 0.8010h 0.3459 c 0.0728,-0.0000 0.1456,0.0546 0.1456 0.1456v 0.3459 l -0.0364,0.0364 c 0.0000,-0.0000 -1.2379,-0.0364 -1.9662 -0.0364c -0.6372,-0.0000 -1.8751,0.0364 -1.8751 0.0364l -0.0364,-0.0364 v -0.3459 c 0.0000,-0.0910 0.0546,-0.1456 0.1456 -0.1456h 0.3459 c 0.6190,-0.0000 0.7828,-0.2731 0.7828 -0.8010v -4.0597 c 0.0000,-1.4746 -0.4005,-1.8205 -1.4200 -1.8205c -0.5279,-0.0000 -1.3108,0.4733 -2.1846 1.3290v 4.5513 c 0.0000,0.5279 0.1821,0.8010 0.7828 0.8010h 0.3459 c 0.0728,-0.0000 0.1456,0.0546 0.1456 0.1456v 0.3459 l -0.0364,0.0364 c 0.0000,-0.0000 -1.2379,-0.0364 -1.9480 -0.0364c -0.6554,-0.0000 -1.8751,0.0364 -1.8751 0.0364l -0.0364,-0.0364 v -0.3459 c 0.0000,-0.0910 0.0364,-0.1456 0.1274 -0.1456h 0.3459 c 0.6190,-0.0000 0.7828,-0.2731 0.7828 -0.8010v -9.1208 c 0.0000,-1.0377 -0.1638,-1.3290 -0.5279 -1.3290l -0.6008,0.0728 c -0.0546,-0.0000 -0.0910,-0.0364 -0.0910 -0.0910l -0.0364,-0.4551 c 0.2913,-0.0000 0.9467,-0.1092 1.2562 -0.1638c 0.3277,-0.0728 0.6008,-0.1456 0.9649 -0.3095h 0.4005 Z"/></g><g stroke-linejoin="miter" stroke-opacity="0.6" fill-opacity="0.0" stroke="rgb(0,0,0)" stroke-width="2.127980706395726" fill="rgb(0,0,0)" stroke-linecap="butt" stroke-miterlimit="10.0"><path d="M 402.9160,347.4443 v 8.2333 "/></g><g stroke-linejoin="miter" stroke-opacity="1.0" fill-opacity="0.6" stroke="rgb(0,0,0)" fill-rule="evenodd" stroke-width="0.0" fill="rgb(0,0,0)" stroke-linecap="butt" stroke-miterlimit="10.0"><path d="M 357.3439,376.0696 ZM 363.0968,370.9175 c 0.0000,-1.5110 -0.7100,-2.3849 -1.8023 -2.3849c -0.9467,-0.0000 -1.5838,0.6554 -1.5838 2.0754c 0.0000,0.9467 0.3641,2.4395 1.8205 2.4395c 0.6372,-0.0000 1.5656,-0.3095 1.5656 -2.1300ZM 363.0968,370.9175 ZM 359.6924,376.1970 c -0.5644,0.5279 -0.6918,1.0923 -0.6918 1.7113c 0.0000,1.3654 1.6385,1.7659 2.2574 1.7659c 1.5656,-0.0000 3.5500,-0.5462 3.5500 -1.8569c 0.0000,-0.4733 -0.2549,-0.7828 -0.9649 -1.1287c -0.5097,-0.2549 -1.2562,-0.4551 -2.1300 -0.4551c -0.1456,-0.0000 -0.3459,0.0182 -0.6008 0.0364c -0.2549,0.0182 -0.5279,0.0182 -0.7282 0.0182c -0.2913,-0.0000 -0.4369,-0.0364 -0.6918 -0.0910ZM 359.6924,376.1970 ZM 365.2268,369.0060 c -0.2913,-0.0000 -0.4733,-0.1638 -0.5462 -0.3095c -0.1092,-0.1638 -0.1821,-0.2185 -0.3095 -0.2185c -0.2185,-0.0000 -0.5644,0.2549 -0.6918 0.4369c 0.5097,0.5462 0.7464,1.0741 0.7464 1.9297c 0.0000,1.7841 -1.4564,2.7490 -2.9856 2.7490c -0.6736,-0.0000 -1.2197,-0.1274 -1.6385 -0.3823c -0.2003,0.3095 -0.3095,0.6918 -0.3095 1.0559c 0.0000,0.7828 0.6008,0.9831 1.1105 0.9831c 0.0910,-0.0000 0.3095,-0.0182 0.5644 -0.0364c 0.4187,-0.0546 0.8738,-0.0910 1.1833 -0.0910c 0.6372,-0.0000 1.8387,0.1274 2.5669 0.7464c 0.4915,0.4551 0.7646,0.8921 0.7646 1.4746c 0.0000,1.9662 -2.5851,3.0038 -4.9336 3.0038c -1.3290,-0.0000 -2.8036,-0.4915 -2.8036 -2.0754c 0.0000,-0.7828 0.4915,-1.6203 1.4200 -2.2028c -0.4551,-0.2367 -0.7828,-0.6918 -0.7828 -1.3472c 0.0000,-0.6190 0.2731,-1.4018 0.7646 -1.8387c -0.4915,-0.4915 -0.9103,-1.1105 -0.9103 -2.1118c 0.0000,-1.6749 1.4746,-2.7490 3.0221 -2.7490c 1.0195,-0.0000 1.6567,0.4187 1.8569 0.5644c 0.4551,-0.6190 1.2744,-0.9285 1.7295 -0.9285c 0.4733,-0.0000 0.8010,0.3095 0.8010 0.6918c 0.0000,0.4005 -0.2549,0.6554 -0.6190 0.6554Z"/></g><g stroke-linejoin="miter" stroke-opacity="0.6" fill-opacity="0.0" stroke="rgb(0,0,0)" stroke-width="2.127980706395726" fill="rgb(0,0,0)" stroke-linecap="butt" stroke-miterlimit="10.0"><path d="M 361.7496,347.4443 v 8.2333 "/></g><g stroke-linejoin="miter" stroke-opacity="1.0" fill-opacity="0.6" stroke="rgb(0,0,0)" fill-rule="evenodd" stroke-width="0.0" fill="rgb(0,0,0)" stroke-linecap="butt" stroke-miterlimit="10.0"><path d="M 317.8160,376.0696 ZM 319.4909,374.7588 v -5.8074 h -1.2562 c -0.0728,-0.0000 -0.0910,-0.0182 -0.0910 -0.0910v -0.2549 c 0.0000,-0.1456 0.0910,-0.3641 0.4187 -0.3641h 0.9285 v -0.7100 c 0.0000,-2.8400 1.4746,-4.1690 3.0038 -4.1690c 0.6918,-0.0000 1.1651,0.1821 1.6203 0.4915c 0.3641,0.2731 0.5279,0.5826 0.5279 0.8738c 0.0000,0.3823 -0.2731,0.6554 -0.6190 0.6554c -0.3641,-0.0000 -0.6008,-0.2003 -0.7464 -0.5097c -0.2367,-0.6008 -0.5826,-0.8921 -1.1287 -0.8921c -0.6008,-0.0000 -1.2926,0.4369 -1.2926 3.2405v 1.0195 h 2.0026 c 0.0910,-0.0000 0.1456,0.0364 0.1456 0.1092v 0.3641 c 0.0000,0.1638 -0.2549,0.2367 -0.4187 0.2367h -1.7295 v 5.8074 c 0.0000,0.5279 0.1821,0.8010 0.7828 0.8010h 0.6008 c 0.0728,-0.0000 0.1456,0.0546 0.1456 0.1456v 0.3459 l -0.0364,0.0364 c 0.0000,-0.0000 -1.4928,-0.0364 -2.2028 -0.0364c -0.6554,-0.0000 -1.8933,0.0364 -1.8933 0.0364l -0.0364,-0.0364 v -0.3459 c 0.0000,-0.0910 0.0546,-0.1456 0.1456 -0.1456h 0.3459 c 0.6190,-0.0000 0.7828,-0.2731 0.7828 -0.8010Z"/></g><g stroke-linejoin="miter" stroke-opacity="0.6" fill-opacity="0.0" stroke="rgb(0,0,0)" stroke-width="2.127980706395726" fill="rgb(0,0,0)" stroke-linecap="butt" stroke-miterlimit="10.0"><path d="M 320.5832,347.4443 v 8.2333 "/></g><g stroke-linejoin="miter" stroke-opacity="1.0" fill-opacity="0.6" stroke="rgb(0,0,0)" fill-rule="evenodd" stroke-width="0.0" fill="rgb(0,0,0)" stroke-linecap="butt" stroke-miterlimit="10.0"><path d="M 275.5209,376.0696 ZM 277.5963,371.0267 h 3.3497 c 0.1821,-0.0000 0.2549,-0.0910 0.2549 -0.2549c 0.0000,-1.6931 -0.8556,-2.1300 -1.5110 -2.1300c -0.4187,-0.0000 -1.7841,0.1638 -2.0936 2.3849ZM 277.5963,371.0267 ZM 282.4025,374.3765 l 0.3641,0.2913 c -0.6918,0.9467 -1.7659,1.6203 -3.0767 1.6203c -2.4941,-0.0000 -3.5500,-1.8569 -3.5500 -3.8413c 0.0000,-2.7672 1.8205,-4.4238 3.5500 -4.4238c 2.4031,-0.0000 2.9674,1.8751 2.9674 3.4044c 0.0000,0.2003 -0.1274,0.3095 -0.3277 0.3095h -4.7880 c -0.0182,0.1092 -0.0182,0.2185 -0.0182 0.3641c 0.0000,1.8569 1.2926,3.2951 2.6033 3.2951c 1.0013,-0.0000 1.6385,-0.3277 2.2756 -1.0195Z"/></g><g stroke-linejoin="miter" stroke-opacity="0.6" fill-opacity="0.0" stroke="rgb(0,0,0)" stroke-width="2.127980706395726" fill="rgb(0,0,0)" stroke-linecap="butt" stroke-miterlimit="10.0"><path d="M 279.4168,347.4443 v 8.2333 "/></g><g stroke-linejoin="miter" stroke-opacity="1.0" fill-opacity="0.6" stroke="rgb(0,0,0)" fill-rule="evenodd" stroke-width="0.0" fill="rgb(0,0,0)" stroke-linecap="butt" stroke-miterlimit="10.0"><path d="M 233.7538,376.0696 ZM 239.8343,374.4493 v -4.7151 c -0.4369,-0.6918 -0.9285,-1.0741 -1.7841 -1.0741c -0.3641,-0.0000 -1.1105,0.0546 -1.6931 0.9103c -0.2549,0.3823 -0.5644,1.1651 -0.5644 2.4759c 0.0000,2.3849 1.2379,3.4772 2.2210 3.4772c 0.6008,-0.0000 1.0923,-0.3641 1.8205 -1.0741ZM 239.8343,374.4493 ZM 241.1997,363.3624 v 10.5226 c 0.0000,0.5462 0.0364,0.8374 0.0728 0.9649c 0.0546,0.1638 0.2549,0.2731 0.4005 0.2731c 0.2185,-0.0000 0.6190,-0.0000 0.8921 -0.0546l 0.0728,0.5097 c -1.0559,0.1821 -2.0026,0.3823 -2.3849 0.7100h -0.4369 l 0.0546,-1.2562 c -0.6918,0.7100 -1.4018,1.2562 -2.3303 1.2562c -1.9662,-0.0000 -3.1677,-1.6749 -3.1677 -3.9141c 0.0000,-1.3472 0.3641,-2.4759 1.1469 -3.2587c 0.7282,-0.6918 1.5292,-1.0923 2.7308 -1.0923c 0.3641,-0.0000 1.1651,0.1638 1.5838 0.4005v -2.7854 c 0.0000,-1.0377 -0.1638,-1.3290 -0.5279 -1.3290l -0.6008,0.0728 c -0.0364,-0.0000 -0.0910,-0.0364 -0.0910 -0.0910l -0.0364,-0.4551 c 0.2913,-0.0000 0.9467,-0.1092 1.2562 -0.1638c 0.3459,-0.0728 0.6008,-0.1456 0.9649 -0.3095h 0.4005 Z"/></g><g stroke-linejoin="miter" stroke-opacity="0.6" fill-opacity="0.0" stroke="rgb(0,0,0)" stroke-width="2.127980706395726" fill="rgb(0,0,0)" stroke-linecap="butt" stroke-miterlimit="10.0"><path d="M 238.2504,347.4443 v 8.2333 "/></g><g stroke-linejoin="miter" stroke-opacity="1.0" fill-opacity="0.6" stroke="rgb(0,0,0)" fill-rule="evenodd" stroke-width="0.0" fill="rgb(0,0,0)" stroke-linecap="butt" stroke-miterlimit="10.0"><path d="M 193.4157,376.0696 ZM 200.4065,374.4129 c -0.8010,1.3836 -1.6749,1.8751 -2.7672 1.8751c -2.1846,-0.0000 -3.5500,-1.6567 -3.5500 -4.0051c 0.0000,-2.5851 1.6203,-4.2600 3.5864 -4.2600c 1.7477,-0.0000 2.6762,0.8921 2.6762 1.8569c 0.0000,0.5279 -0.3277,0.8010 -0.7100 0.8010c -0.3823,-0.0000 -0.7464,-0.2003 -0.8010 -0.6554c -0.0728,-0.6008 -0.1821,-1.3836 -1.2562 -1.3836c -1.2015,-0.0000 -2.0936,1.2744 -2.0936 3.2405c 0.0000,2.1300 1.1469,3.6046 2.5487 3.6046c 0.7828,-0.0000 1.4746,-0.5097 2.0390 -1.3290Z"/></g><g stroke-linejoin="miter" stroke-opacity="0.6" fill-opacity="0.0" stroke="rgb(0,0,0)" stroke-width="2.127980706395726" fill="rgb(0,0,0)" stroke-linecap="butt" stroke-miterlimit="10.0"><path d="M 197.0840,347.4443 v 8.2333 "/></g><g stroke-linejoin="miter" stroke-opacity="1.0" fill-opacity="0.6" stroke="rgb(0,0,0)" fill-rule="evenodd" stroke-width="0.0" fill="rgb(0,0,0)" stroke-linecap="butt" stroke-miterlimit="10.0"><path d="M 151.5666,376.0696 ZM 154.2792,375.0683 c 0.3641,0.4369 0.7464,0.5826 1.3108 0.5826c 1.7295,-0.0000 2.6033,-1.6021 2.6033 -3.6774c 0.0000,-1.8569 -0.9467,-3.1859 -2.0572 -3.1859c -0.2003,-0.0000 -1.1469,0.0364 -1.8569 0.7828v 5.4980 ZM 154.2792,375.0683 ZM 152.9138,365.6380 c 0.0000,-1.0377 -0.1821,-1.3290 -0.5462 -1.3290l -0.5826,0.0728 c -0.0546,-0.0000 -0.0910,-0.0364 -0.0910 -0.0910l -0.0364,-0.4551 c 0.2913,-0.0000 0.9467,-0.1092 1.2562 -0.1638c 0.3277,-0.0728 0.6008,-0.1456 0.9649 -0.3095h 0.4005 v 5.6436 c 0.6190,-0.6736 1.3472,-1.0013 2.2210 -1.0013c 1.5838,-0.0000 3.0949,1.5110 3.0949 3.7321c 0.0000,2.8946 -2.0390,4.5331 -3.8959 4.5331c -0.7828,-0.0000 -1.3654,-0.2185 -1.8933 -0.6736c -0.1638,0.2185 -0.4005,0.4915 -0.5644 0.6736l -0.3823,-0.0910 c 0.0546,-0.4369 0.0546,-0.7282 0.0546 -1.4382v -9.1026 Z"/></g><g stroke-linejoin="miter" stroke-opacity="0.6" fill-opacity="0.0" stroke="rgb(0,0,0)" stroke-width="2.127980706395726" fill="rgb(0,0,0)" stroke-linecap="butt" stroke-miterlimit="10.0"><path d="M 155.9177,347.4443 v 8.2333 "/></g><g stroke-linejoin="miter" stroke-opacity="1.0" fill-opacity="0.6" stroke="rgb(0,0,0)" fill-rule="evenodd" stroke-width="0.0" fill="rgb(0,0,0)" stroke-linecap="butt" stroke-miterlimit="10.0"><path d="M 110.6460,376.0696 ZM 115.9437,371.6093 l -1.4382,0.3641 c -1.6021,0.4915 -1.8387,1.3290 -1.8387 2.1482c 0.0000,0.5644 0.2731,1.4200 1.4200 1.4200c 0.5462,-0.0000 1.3836,-0.5279 1.8569 -0.9285v -3.0038 ZM 115.9437,371.6093 ZM 117.1089,376.2880 c -0.6918,-0.0000 -1.0741,-0.6190 -1.1469 -1.0559l -0.4187,0.2913 c -0.8374,0.5826 -1.1469,0.7646 -1.9844 0.7646c -1.2744,-0.0000 -2.2028,-0.7282 -2.2028 -2.0936c 0.0000,-1.3836 1.1833,-2.3303 2.9128 -2.7672l 1.6749,-0.4187 c 0.0000,-2.0572 -0.9467,-2.4395 -1.5656 -2.4395c -0.6918,-0.0000 -1.4928,0.3095 -1.4928 0.8738c 0.0000,0.2003 0.0364,0.3095 0.0546 0.3641c 0.0364,0.0728 0.0546,0.2003 0.0546 0.3277c 0.0000,0.2367 -0.1821,0.6008 -0.7100 0.6008c -0.4369,-0.0000 -0.7282,-0.2913 -0.7282 -0.7282c 0.0000,-1.0559 1.7113,-1.9844 2.8764 -1.9844c 1.3290,-0.0000 2.8582,0.5462 2.8582 3.1313v 2.6762 c 0.0000,1.1105 0.0182,1.5838 0.4369 1.5838c 0.4005,-0.0000 0.5097,-0.5097 0.5279 -0.9103l 0.4551,0.0910 c -0.1092,1.3290 -0.6736,1.6931 -1.6021 1.6931Z"/></g><g stroke-linejoin="miter" stroke-opacity="0.6" fill-opacity="0.0" stroke="rgb(0,0,0)" stroke-width="2.127980706395726" fill="rgb(0,0,0)" stroke-linecap="butt" stroke-miterlimit="10.0"><path d="M 114.7513,347.4443 v 8.2333 "/></g><g stroke-linejoin="miter" stroke-opacity="0.0" fill-opacity="0.0" stroke="rgb(0,0,0)" stroke-width="0.0" fill="rgb(0,0,0)" stroke-linecap="butt" stroke-miterlimit="10.0"><path d="M 505.8319,336.4666 l -0.0000,-274.4425 h -411.6638 l -0.0000,274.4425 Z"/></g><g stroke-linejoin="miter" stroke-opacity="1.0" fill-opacity="0.5" stroke="rgb(102,102,102)" stroke-width="0.8511922825582904" fill="rgb(31,119,180)" stroke-linecap="butt" stroke-miterlimit="10.0"><path d="M 501.7153,294.2446 l -0.0000,-21.1110 h -32.9331 l -0.0000,21.1110 Z"/></g><g stroke-linejoin="miter" stroke-opacity="1.0" fill-opacity="0.5" stroke="rgb(102,102,102)" stroke-width="0.8511922825582904" fill="rgb(31,119,180)" stroke-linecap="butt" stroke-miterlimit="10.0"><path d="M 460.5489,294.2446 l -0.0000,-42.2219 h -32.9331 l -0.0000,42.2219 Z"/></g><g stroke-linejoin="miter" stroke-opacity="1.0" fill-opacity="0.5" stroke="rgb(102,102,102)" stroke-width="0.8511922825582904" fill="rgb(31,119,180)" stroke-linecap="butt" stroke-miterlimit="10.0"><path d="M 419.3825,294.2446 l -0.0000,-232.2206 h -32.9331 l -0.0000,232.2206 Z"/></g><g stroke-linejoin="miter" stroke-opacity="1.0" fill-opacity="0.5" stroke="rgb(102,102,102)" stroke-width="0.8511922825582904" fill="rgb(31,119,180)" stroke-linecap="butt" stroke-miterlimit="10.0"><path d="M 378.2161,336.4666 l -0.0000,-42.2219 h -32.9331 l -0.0000,42.2219 Z"/></g><g stroke-linejoin="miter" stroke-opacity="1.0" fill-opacity="0.5" stroke="rgb(102,102,102)" stroke-width="0.8511922825582904" fill="rgb(31,119,180)" stroke-linecap="butt" stroke-miterlimit="10.0"><path d="M 337.0497,294.2446 l -0.0000,-0.0000 h -32.9331 l -0.0000,0.0000 Z"/></g><g stroke-linejoin="miter" stroke-opacity="1.0" fill-opacity="0.5" stroke="rgb(102,102,102)" stroke-width="0.8511922825582904" fill="rgb(31,119,180)" stroke-linecap="butt" stroke-miterlimit="10.0"><path d="M 295.8834,294.2446 l -0.0000,-168.8877 h -32.9331 l -0.0000,168.8877 Z"/></g><g stroke-linejoin="miter" stroke-opacity="1.0" fill-opacity="0.5" stroke="rgb(102,102,102)" stroke-width="0.8511922825582904" fill="rgb(31,119,180)" stroke-linecap="butt" stroke-miterlimit="10.0"><path d="M 254.7170,294.2446 l -0.0000,-105.5548 h -32.9331 l -0.0000,105.5548 Z"/></g><g stroke-linejoin="miter" stroke-opacity="1.0" fill-opacity="0.5" stroke="rgb(102,102,102)" stroke-width="0.8511922825582904" fill="rgb(31,119,180)" stroke-linecap="butt" stroke-miterlimit="10.0"><path d="M 213.5506,294.2446 l -0.0000,-63.3329 h -32.9331 l -0.0000,63.3329 Z"/></g><g stroke-linejoin="miter" stroke-opacity="1.0" fill-opacity="0.5" stroke="rgb(102,102,102)" stroke-width="0.8511922825582904" fill="rgb(31,119,180)" stroke-linecap="butt" stroke-miterlimit="10.0"><path d="M 172.3842,294.2446 l -0.0000,-42.2219 h -32.9331 l -0.0000,42.2219 Z"/></g><g stroke-linejoin="miter" stroke-opacity="1.0" fill-opacity="0.5" stroke="rgb(102,102,102)" stroke-width="0.8511922825582904" fill="rgb(31,119,180)" stroke-linecap="butt" stroke-miterlimit="10.0"><path d="M 131.2178,294.2446 l -0.0000,-21.1110 h -32.9331 l -0.0000,21.1110 Z"/></g></svg>