<?xml version="1.0" encoding="UTF-8"?>
<!DOCTYPE svg PUBLIC "-//W3C//DTD SVG 1.1//EN"
    "http://www.w3.org/Graphics/SVG/1.1/DTD/svg11.dtd"><svg xmlns="http://www.w3.org/2000/svg" height="150.0000" stroke-opacity="1" viewBox="0 0 750 150" font-size="1" width="750.0000" xmlns:xlink="http://www.w3.org/1999/xlink" stroke="rgb(0,0,0)" version="1.1"><defs></defs><g stroke-linejoin="miter" stroke-opacity="0.0" fill-opacity="0.0" stroke="rgb(0,0,0)" stroke-width="0.0" fill="rgb(0,0,0)" stroke-linecap="butt" stroke-miterlimit="10.0"><path d="M 655.3737,120.1259 l -0.0000,-2.2453 h -561.3358 l -0.0000,2.2453 Z"/></g><g stroke-linejoin="miter" stroke-opacity="1.0" fill-opacity="0.33" stroke="rgb(0,0,0)" fill-rule="evenodd" stroke-width="0.0" fill="rgb(0,0,0)" stroke-linecap="butt" stroke-miterlimit="10.0"><path d="M 648.9914,134.0829 ZM 653.4821,133.5467 v -1.7129 c 0.0000,-0.4990 -0.1936,-0.6851 -0.4766 -0.6851c -0.2904,-0.0000 -0.5213,0.1489 -0.8788 0.5436c 0.0149,0.0894 0.0149,0.1936 0.0149 0.2979v 1.5565 c 0.0000,0.2160 0.0745,0.3277 0.3202 0.3277h 0.1266 c 0.0372,-0.0000 0.0670,0.0223 0.0670 0.0596v 0.1415 l -0.0149,0.0149 c 0.0000,-0.0000 -0.4990,-0.0149 -0.7894 -0.0149c -0.2681,-0.0000 -0.7820,0.0149 -0.7820 0.0149l -0.0149,-0.0149 v -0.1415 c 0.0000,-0.0372 0.0223,-0.0596 0.0596 -0.0596h 0.1489 c 0.2532,-0.0000 0.3202,-0.1117 0.3202 -0.3277v -1.6980 c 0.0000,-0.4990 -0.2011,-0.7000 -0.4841 -0.7000c -0.2607,-0.0000 -0.5064,0.1862 -0.8564 0.5511v 1.8469 c 0.0000,0.2160 0.0745,0.3277 0.3202 0.3277h 0.1415 c 0.0298,-0.0000 0.0596,0.0223 0.0596 0.0596v 0.1415 l -0.0149,0.0149 c 0.0000,-0.0000 -0.5064,-0.0149 -0.7969 -0.0149c -0.2681,-0.0000 -0.7745,0.0149 -0.7745 0.0149l -0.0149,-0.0149 v -0.1415 c 0.0000,-0.0372 0.0223,-0.0596 0.0596 -0.0596h 0.1415 c 0.2532,-0.0000 0.3202,-0.1117 0.3202 -0.3277v -1.8544 c 0.0000,-0.4245 -0.0670,-0.4543 -0.1638 -0.4543c -0.0968,-0.0000 -0.1862,0.0074 -0.3128 0.0372l -0.0372,-0.2085 c 0.4692,-0.0819 0.5734,-0.1117 0.7745 -0.2160c 0.0745,-0.0372 0.1341,-0.0596 0.1862 -0.0596h 0.1117 l -0.0223,0.6479 h 0.0223 c 0.3500,-0.3724 0.6628,-0.6479 1.1245 -0.6479c 0.4170,-0.0000 0.6777,0.3053 0.7224 0.6405c 0.4319,-0.4468 0.7820,-0.6405 1.1841 -0.6405c 0.6554,-0.0000 0.7671,0.5436 0.7671 1.2065v 1.5490 c 0.0000,0.2160 0.0745,0.3277 0.3202 0.3277h 0.1415 c 0.0298,-0.0000 0.0596,0.0223 0.0596 0.0596v 0.1415 l -0.0149,0.0149 c 0.0000,-0.0000 -0.5064,-0.0149 -0.7969 -0.0149c -0.2681,-0.0000 -0.7745,0.0149 -0.7745 0.0149l -0.0149,-0.0149 v -0.1415 c 0.0000,-0.0372 0.0223,-0.0596 0.0596 -0.0596h 0.1415 c 0.2458,-0.0000 0.3202,-0.1117 0.3202 -0.3277ZM 654.6513,134.0829 ZM 656.8185,132.2583 l -0.5883,0.1489 c -0.6554,0.2011 -0.7522,0.5436 -0.7522 0.8788c 0.0000,0.2309 0.1117,0.5809 0.5809 0.5809c 0.2234,-0.0000 0.5660,-0.2160 0.7596 -0.3798v -1.2288 ZM 656.8185,132.2583 ZM 657.2951,134.1723 c -0.2830,-0.0000 -0.4394,-0.2532 -0.4692 -0.4319l -0.1713,0.1192 c -0.3426,0.2383 -0.4692,0.3128 -0.8117 0.3128c -0.5213,-0.0000 -0.9011,-0.2979 -0.9011 -0.8564c 0.0000,-0.5660 0.4841,-0.9532 1.1916 -1.1320l 0.6851,-0.1713 c 0.0000,-0.8415 -0.3873,-0.9979 -0.6405 -0.9979c -0.2830,-0.0000 -0.6107,0.1266 -0.6107 0.3575c 0.0000,0.0819 0.0149,0.1266 0.0223 0.1489c 0.0149,0.0298 0.0223,0.0819 0.0223 0.1341c 0.0000,0.0968 -0.0745,0.2458 -0.2904 0.2458c -0.1787,-0.0000 -0.2979,-0.1192 -0.2979 -0.2979c 0.0000,-0.4319 0.7000,-0.8117 1.1767 -0.8117c 0.5436,-0.0000 1.1692,0.2234 1.1692 1.2809v 1.0947 c 0.0000,0.4543 0.0074,0.6479 0.1787 0.6479c 0.1638,-0.0000 0.2085,-0.2085 0.2160 -0.3724l 0.1862,0.0372 c -0.0447,0.5436 -0.2755,0.6926 -0.6554 0.6926ZM 658.0101,134.0829 ZM 659.4772,131.0891 c -0.1489,-0.0000 -0.1787,0.0372 -0.1787 0.0894c 0.0000,0.0372 0.0298,0.1043 0.1117 0.2383l 0.4543,0.6703 c 0.0223,0.0447 0.0447,0.0670 0.0745 0.0670c 0.0223,-0.0000 0.0372,-0.0149 0.0670 -0.0521l 0.4841,-0.6777 c 0.0819,-0.1043 0.1266,-0.1862 0.1266 -0.2458c 0.0000,-0.0596 -0.0521,-0.0894 -0.1564 -0.0894h -0.1192 c -0.0223,-0.0000 -0.0447,-0.0149 -0.0447 -0.0521v -0.1415 l 0.0223,-0.0223 c 0.0000,-0.0000 0.3500,0.0149 0.5809 0.0149c 0.2383,-0.0000 0.6032,-0.0149 0.6032 -0.0149l 0.0074,0.0149 v 0.1415 c 0.0000,0.0521 -0.0447,0.0596 -0.0894 0.0596c -0.2755,-0.0000 -0.3873,0.0894 -0.6628 0.4394l -0.6256,0.7969 c -0.0149,0.0223 -0.0223,0.0372 -0.0223 0.0521c 0.0000,0.0149 0.0074,0.0372 0.0223 0.0596l 0.6703,0.9458 c 0.3426,0.4841 0.4394,0.4915 0.6777 0.4915c 0.0745,-0.0000 0.1043,0.0149 0.1043 0.0596v 0.1415 l -0.0074,0.0149 c 0.0000,-0.0000 -0.4022,-0.0149 -0.6554 -0.0149c -0.3053,-0.0000 -0.7745,0.0149 -0.7745 0.0149l -0.0149,-0.0149 v -0.1415 c 0.0000,-0.0372 0.0149,-0.0596 0.0521 -0.0596h 0.0894 c 0.1192,-0.0000 0.1713,-0.0223 0.1713 -0.0819c 0.0000,-0.0670 -0.0819,-0.1787 -0.2011 -0.3351l -0.4319,-0.5958 c -0.0298,-0.0372 -0.0447,-0.0521 -0.0670 -0.0521c -0.0149,-0.0000 -0.0372,0.0223 -0.0670 0.0670l -0.4692,0.6777 c -0.1117,0.1489 -0.1341,0.1862 -0.1341 0.2383c 0.0000,0.0521 0.0447,0.0819 0.1564 0.0819h 0.1043 c 0.0372,-0.0000 0.0521,0.0223 0.0521 0.0596v 0.1415 l -0.0149,0.0149 c 0.0000,-0.0000 -0.3873,-0.0149 -0.6256 -0.0149c -0.2160,-0.0000 -0.5585,0.0149 -0.5585 0.0149l -0.0149,-0.0149 v -0.1266 c 0.0000,-0.0447 0.0298,-0.0745 0.0968 -0.0745c 0.1787,-0.0000 0.3500,-0.0372 0.6628 -0.4394l 0.6256,-0.8043 c 0.0074,-0.0149 0.0149,-0.0298 0.0149 -0.0521c 0.0000,-0.0223 -0.0074,-0.0372 -0.0223 -0.0596l -0.6479,-0.9458 c -0.2085,-0.3053 -0.3426,-0.4841 -0.6032 -0.4841c -0.0521,-0.0000 -0.1043,-0.0223 -0.1043 -0.0521v -0.1415 l 0.0149,-0.0223 l 0.5883,0.0149 l 0.8266,-0.0149 l 0.0223,0.0223 v 0.1341 c 0.0000,0.0372 -0.0298,0.0596 -0.0596 0.0596h -0.1117 Z"/></g><g stroke-linejoin="miter" stroke-opacity="0.6" fill-opacity="0.0" stroke="rgb(0,0,0)" stroke-width="0.5613357867854915" fill="rgb(0,0,0)" stroke-linecap="butt" stroke-miterlimit="10.0"><path d="M 655.3737,117.8805 v 11.2267 "/></g><g stroke-linejoin="miter" stroke-opacity="1.0" fill-opacity="0.33" stroke="rgb(0,0,0)" fill-rule="evenodd" stroke-width="0.0" fill="rgb(0,0,0)" stroke-linecap="butt" stroke-miterlimit="10.0"><path d="M 407.6448,135.6915 ZM 409.0449,132.1392 c -0.1415,-0.0000 -0.4692,0.1341 -0.6330 0.2085l -0.0894,-0.2309 c 0.6554,-0.3053 0.9086,-0.4617 1.2809 -0.7298h 0.1415 v 3.7460 c 0.0000,0.2681 0.0372,0.3426 0.2830 0.3426h 0.3873 c 0.0223,-0.0000 0.0596,0.0149 0.0596 0.0596v 0.1638 l -1.0203,-0.0149 l -1.0352,0.0149 v -0.1638 c 0.0074,-0.0223 0.0149,-0.0596 0.0596 -0.0596h 0.4468 c 0.2830,-0.0000 0.2830,-0.1266 0.2830 -0.3426v -2.5619 c 0.0000,-0.2532 0.0000,-0.4319 -0.1638 -0.4319ZM 410.9067,135.6915 ZM 411.2270,134.6489 l 0.2011,-0.0074 c 0.0223,0.1862 0.1043,0.5436 0.2681 0.7149c 0.0745,0.0819 0.2755,0.2160 0.5511 0.2160c 0.2607,-0.0000 0.6479,-0.2085 0.6479 -0.5734c 0.0000,-0.3202 -0.1787,-0.5362 -0.7671 -0.7894c -0.5436,-0.2383 -0.8266,-0.3947 -0.8266 -0.9532c 0.0000,-0.4990 0.4394,-0.8564 1.0277 -0.8564c 0.3724,-0.0000 0.6479,0.0670 0.8788 0.1862c 0.0447,0.2383 0.0670,0.4915 0.0819 0.7596l -0.2011,0.0074 c -0.1564,-0.6107 -0.6032,-0.7298 -0.7596 -0.7298c -0.2830,-0.0000 -0.5734,0.1117 -0.5734 0.5213c 0.0000,0.2979 0.1415,0.4468 0.5511 0.5958c 0.6032,0.2234 1.0873,0.4915 1.0873 1.0873c 0.0000,0.7373 -0.7820,0.9532 -1.1320 0.9532c -0.2607,-0.0000 -0.4766,-0.0298 -0.6703 -0.0819c -0.0521,-0.0074 -0.0894,-0.0149 -0.1415 -0.0149c -0.0372,-0.0000 -0.0968,0.0074 -0.1713 0.0223c 0.0000,-0.3128 -0.0223,-0.6926 -0.0521 -1.0575ZM 413.6697,135.6915 ZM 414.8910,132.7797 v 1.9065 c 0.0000,0.4617 0.0447,0.6851 0.2458 0.6851c 0.1936,-0.0000 0.3426,-0.0596 0.5362 -0.2085l 0.1341,0.1266 c -0.2904,0.3277 -0.5883,0.4915 -0.9309 0.4915c -0.3426,-0.0000 -0.5436,-0.2085 -0.5436 -0.7373v -2.2640 h -0.4841 c -0.0223,-0.0000 -0.0298,-0.0074 -0.0298 -0.0298v -0.2309 c 0.0000,-0.0223 0.0074,-0.0298 0.0223 -0.0298c 0.4990,-0.0000 0.6181,-0.2904 0.6181 -0.8564v -0.1415 l 0.4319,-0.1489 v 1.1469 h 0.8192 c 0.0372,-0.0000 0.0596,0.0149 0.0596 0.0447v 0.1489 c 0.0000,0.0670 -0.1043,0.0968 -0.1787 0.0968h -0.7000 ZM 417.7805,135.6915 ZM 420.2679,131.0444 c -0.7149,-0.0000 -1.5341,0.6479 -1.5341 2.2118c 0.0000,1.4299 0.8937,2.2714 1.7873 2.2714c 0.8490,-0.0000 1.5043,-0.8117 1.5043 -2.1448c 0.0000,-1.5490 -0.7075,-2.3384 -1.7575 -2.3384ZM 420.2679,131.0444 ZM 422.7106,133.2414 c 0.0000,1.4894 -0.9160,2.5395 -2.3384 2.5395h -0.1266 c -0.0745,0.0447 -0.1266,0.1266 -0.1489 0.1638c 0.2458,0.0223 0.5809,0.1341 0.8862 0.3500c 0.3202,0.2309 0.7596,0.4692 1.0575 0.4692c 0.2160,-0.0000 0.4841,-0.0745 0.6405 -0.2755l 0.1341,0.0894 c -0.2904,0.4170 -0.6032,0.6107 -1.0798 0.6107c -0.4170,-0.0000 -0.7522,-0.1638 -1.1245 -0.4319c -0.3873,-0.2904 -0.6851,-0.4915 -0.9979 -0.4915c -0.1117,-0.0000 -0.4022,0.0894 -0.5511 0.4319l -0.2904,-0.1415 c 0.0596,-0.0968 0.2979,-0.4245 0.8043 -0.5585c 0.0819,-0.0223 0.1638,-0.0521 0.1936 -0.0894c 0.0372,-0.0447 0.1117,-0.1192 0.1713 -0.1638c -1.0724,-0.1862 -1.8842,-1.0650 -1.8842 -2.3608c 0.0000,-1.4597 0.9756,-2.5916 2.3086 -2.5916c 1.3405,-0.0000 2.3459,0.9756 2.3459 2.4501Z"/></g><g stroke-linejoin="miter" stroke-opacity="0.6" fill-opacity="0.0" stroke="rgb(0,0,0)" stroke-width="0.5613357867854915" fill="rgb(0,0,0)" stroke-linecap="butt" stroke-miterlimit="10.0"><path d="M 415.5687,117.8805 v 11.2267 "/></g><g stroke-linejoin="miter" stroke-opacity="1.0" fill-opacity="0.33" stroke="rgb(0,0,0)" fill-rule="evenodd" stroke-width="0.0" fill="rgb(0,0,0)" stroke-linecap="butt" stroke-miterlimit="10.0"><path d="M 363.7484,135.9894 ZM 368.2391,135.4532 v -1.7129 c 0.0000,-0.4990 -0.1936,-0.6851 -0.4766 -0.6851c -0.2904,-0.0000 -0.5213,0.1489 -0.8788 0.5436c 0.0149,0.0894 0.0149,0.1936 0.0149 0.2979v 1.5565 c 0.0000,0.2160 0.0745,0.3277 0.3202 0.3277h 0.1266 c 0.0372,-0.0000 0.0670,0.0223 0.0670 0.0596v 0.1415 l -0.0149,0.0149 c 0.0000,-0.0000 -0.4990,-0.0149 -0.7894 -0.0149c -0.2681,-0.0000 -0.7820,0.0149 -0.7820 0.0149l -0.0149,-0.0149 v -0.1415 c 0.0000,-0.0372 0.0223,-0.0596 0.0596 -0.0596h 0.1489 c 0.2532,-0.0000 0.3202,-0.1117 0.3202 -0.3277v -1.6980 c 0.0000,-0.4990 -0.2011,-0.7000 -0.4841 -0.7000c -0.2607,-0.0000 -0.5064,0.1862 -0.8564 0.5511v 1.8469 c 0.0000,0.2160 0.0745,0.3277 0.3202 0.3277h 0.1415 c 0.0298,-0.0000 0.0596,0.0223 0.0596 0.0596v 0.1415 l -0.0149,0.0149 c 0.0000,-0.0000 -0.5064,-0.0149 -0.7969 -0.0149c -0.2681,-0.0000 -0.7745,0.0149 -0.7745 0.0149l -0.0149,-0.0149 v -0.1415 c 0.0000,-0.0372 0.0223,-0.0596 0.0596 -0.0596h 0.1415 c 0.2532,-0.0000 0.3202,-0.1117 0.3202 -0.3277v -1.8544 c 0.0000,-0.4245 -0.0670,-0.4543 -0.1638 -0.4543c -0.0968,-0.0000 -0.1862,0.0074 -0.3128 0.0372l -0.0372,-0.2085 c 0.4692,-0.0819 0.5734,-0.1117 0.7745 -0.2160c 0.0745,-0.0372 0.1341,-0.0596 0.1862 -0.0596h 0.1117 l -0.0223,0.6479 h 0.0223 c 0.3500,-0.3724 0.6628,-0.6479 1.1245 -0.6479c 0.4170,-0.0000 0.6777,0.3053 0.7224 0.6405c 0.4319,-0.4468 0.7820,-0.6405 1.1841 -0.6405c 0.6554,-0.0000 0.7671,0.5436 0.7671 1.2065v 1.5490 c 0.0000,0.2160 0.0745,0.3277 0.3202 0.3277h 0.1415 c 0.0298,-0.0000 0.0596,0.0223 0.0596 0.0596v 0.1415 l -0.0149,0.0149 c 0.0000,-0.0000 -0.5064,-0.0149 -0.7969 -0.0149c -0.2681,-0.0000 -0.7745,0.0149 -0.7745 0.0149l -0.0149,-0.0149 v -0.1415 c 0.0000,-0.0372 0.0223,-0.0596 0.0596 -0.0596h 0.1415 c 0.2458,-0.0000 0.3202,-0.1117 0.3202 -0.3277ZM 369.4083,135.9894 ZM 370.2573,133.9265 h 1.3703 c 0.0745,-0.0000 0.1043,-0.0372 0.1043 -0.1043c 0.0000,-0.6926 -0.3500,-0.8713 -0.6181 -0.8713c -0.1713,-0.0000 -0.7298,0.0670 -0.8564 0.9756ZM 370.2573,133.9265 ZM 372.2234,135.2968 l 0.1489,0.1192 c -0.2830,0.3873 -0.7224,0.6628 -1.2586 0.6628c -1.0203,-0.0000 -1.4522,-0.7596 -1.4522 -1.5714c 0.0000,-1.1320 0.7447,-1.8097 1.4522 -1.8097c 0.9830,-0.0000 1.2139,0.7671 1.2139 1.3926c 0.0000,0.0819 -0.0521,0.1266 -0.1341 0.1266h -1.9586 c -0.0074,0.0447 -0.0074,0.0894 -0.0074 0.1489c 0.0000,0.7596 0.5288,1.3480 1.0650 1.3480c 0.4096,-0.0000 0.6703,-0.1341 0.9309 -0.4170ZM 372.2308,135.9894 ZM 374.7182,135.3266 v -1.9288 c -0.1787,-0.2830 -0.3798,-0.4394 -0.7298 -0.4394c -0.1489,-0.0000 -0.4543,0.0223 -0.6926 0.3724c -0.1043,0.1564 -0.2309,0.4766 -0.2309 1.0128c 0.0000,0.9756 0.5064,1.4224 0.9086 1.4224c 0.2458,-0.0000 0.4468,-0.1489 0.7447 -0.4394ZM 374.7182,135.3266 ZM 375.2768,130.7912 v 4.3045 c 0.0000,0.2234 0.0149,0.3426 0.0298 0.3947c 0.0223,0.0670 0.1043,0.1117 0.1638 0.1117c 0.0894,-0.0000 0.2532,-0.0000 0.3649 -0.0223l 0.0298,0.2085 c -0.4319,0.0745 -0.8192,0.1564 -0.9756 0.2904h -0.1787 l 0.0223,-0.5139 c -0.2830,0.2904 -0.5734,0.5139 -0.9532 0.5139c -0.8043,-0.0000 -1.2958,-0.6851 -1.2958 -1.6012c 0.0000,-0.5511 0.1489,-1.0128 0.4692 -1.3331c 0.2979,-0.2830 0.6256,-0.4468 1.1171 -0.4468c 0.1489,-0.0000 0.4766,0.0670 0.6479 0.1638v -1.1394 c 0.0000,-0.4245 -0.0670,-0.5436 -0.2160 -0.5436l -0.2458,0.0298 c -0.0149,-0.0000 -0.0372,-0.0149 -0.0372 -0.0372l -0.0149,-0.1862 c 0.1192,-0.0000 0.3873,-0.0447 0.5139 -0.0670c 0.1415,-0.0298 0.2458,-0.0596 0.3947 -0.1266h 0.1638 ZM 375.9098,135.9894 ZM 376.4907,131.7370 c 0.0000,-0.1936 0.1564,-0.3575 0.3500 -0.3575c 0.2011,-0.0000 0.3575,0.1638 0.3575 0.3575c 0.0000,0.2011 -0.1564,0.3575 -0.3575 0.3575c -0.1936,-0.0000 -0.3500,-0.1564 -0.3500 -0.3575ZM 376.4907,131.7370 ZM 377.1981,135.4532 c 0.0000,0.2160 0.0819,0.3277 0.3202 0.3277h 0.1415 c 0.0372,-0.0000 0.0670,0.0223 0.0670 0.0596v 0.1415 l -0.0149,0.0149 c 0.0000,-0.0000 -0.5139,-0.0149 -0.8043 -0.0149c -0.2607,-0.0000 -0.7671,0.0149 -0.7671 0.0149l -0.0149,-0.0149 v -0.1415 c 0.0000,-0.0372 0.0223,-0.0596 0.0596 -0.0596h 0.1415 c 0.2458,-0.0000 0.3202,-0.1117 0.3202 -0.3277v -1.8544 c 0.0000,-0.3947 -0.0670,-0.4543 -0.1713 -0.4543c -0.0968,-0.0000 -0.1862,0.0074 -0.3128 0.0372l -0.0372,-0.2085 c 0.4766,-0.0819 0.5585,-0.1117 0.7745 -0.2160c 0.0819,-0.0298 0.1341,-0.0596 0.1862 -0.0596h 0.1117 v 2.7555 ZM 377.8758,135.9894 ZM 380.0430,134.1648 l -0.5883,0.1489 c -0.6554,0.2011 -0.7522,0.5436 -0.7522 0.8788c 0.0000,0.2309 0.1117,0.5809 0.5809 0.5809c 0.2234,-0.0000 0.5660,-0.2160 0.7596 -0.3798v -1.2288 ZM 380.0430,134.1648 ZM 380.5196,136.0788 c -0.2830,-0.0000 -0.4394,-0.2532 -0.4692 -0.4319l -0.1713,0.1192 c -0.3426,0.2383 -0.4692,0.3128 -0.8117 0.3128c -0.5213,-0.0000 -0.9011,-0.2979 -0.9011 -0.8564c 0.0000,-0.5660 0.4841,-0.9532 1.1916 -1.1320l 0.6851,-0.1713 c 0.0000,-0.8415 -0.3873,-0.9979 -0.6405 -0.9979c -0.2830,-0.0000 -0.6107,0.1266 -0.6107 0.3575c 0.0000,0.0819 0.0149,0.1266 0.0223 0.1489c 0.0149,0.0298 0.0223,0.0819 0.0223 0.1341c 0.0000,0.0968 -0.0745,0.2458 -0.2904 0.2458c -0.1787,-0.0000 -0.2979,-0.1192 -0.2979 -0.2979c 0.0000,-0.4319 0.7000,-0.8117 1.1767 -0.8117c 0.5436,-0.0000 1.1692,0.2234 1.1692 1.2809v 1.0947 c 0.0000,0.4543 0.0074,0.6479 0.1787 0.6479c 0.1638,-0.0000 0.2085,-0.2085 0.2160 -0.3724l 0.1862,0.0372 c -0.0447,0.5436 -0.2755,0.6926 -0.6554 0.6926ZM 381.2345,135.9894 ZM 383.9453,135.4532 v -1.6309 c 0.0000,-0.5213 -0.0894,-0.7671 -0.4841 -0.7671c -0.3277,-0.0000 -0.6107,0.1266 -0.9905 0.5734v 1.8246 c 0.0000,0.2160 0.0745,0.3277 0.3202 0.3277h 0.1043 c 0.0372,-0.0000 0.0596,0.0223 0.0596 0.0596v 0.1415 l -0.0149,0.0149 c 0.0000,-0.0000 -0.4692,-0.0149 -0.7596 -0.0149c -0.2681,-0.0000 -0.7745,0.0149 -0.7745 0.0149l -0.0149,-0.0149 v -0.1415 c 0.0000,-0.0372 0.0223,-0.0596 0.0596 -0.0596h 0.1415 c 0.2532,-0.0000 0.3202,-0.1117 0.3202 -0.3277v -1.8544 c 0.0000,-0.4022 -0.0596,-0.4543 -0.1638 -0.4543c -0.0968,-0.0000 -0.1862,0.0074 -0.3128 0.0372l -0.0372,-0.2085 c 0.3128,-0.0521 0.5362,-0.0894 0.7671 -0.2160c 0.0819,-0.0372 0.1415,-0.0596 0.1936 -0.0596h 0.1117 l -0.0223,0.6628 h 0.0223 c 0.4766,-0.5585 0.8341,-0.6628 1.2139 -0.6628c 0.6703,-0.0000 0.8117,0.5139 0.8117 1.1767v 1.5788 c 0.0000,0.2160 0.0819,0.3277 0.3202 0.3277h 0.1415 c 0.0372,-0.0000 0.0670,0.0223 0.0670 0.0596v 0.1415 l -0.0149,0.0149 c 0.0000,-0.0000 -0.5139,-0.0149 -0.8043 -0.0149c -0.2607,-0.0000 -0.7298,0.0149 -0.7298 0.0149l -0.0149,-0.0149 v -0.1415 c 0.0000,-0.0372 0.0223,-0.0596 0.0596 -0.0596h 0.1043 c 0.2458,-0.0000 0.3202,-0.1117 0.3202 -0.3277Z"/></g><g stroke-linejoin="miter" stroke-opacity="0.6" fill-opacity="0.0" stroke="rgb(0,0,0)" stroke-width="0.5613357867854915" fill="rgb(0,0,0)" stroke-linecap="butt" stroke-miterlimit="10.0"><path d="M 374.4725,117.8805 v 11.2267 "/></g><g stroke-linejoin="miter" stroke-opacity="1.0" fill-opacity="0.33" stroke="rgb(0,0,0)" fill-rule="evenodd" stroke-width="0.0" fill="rgb(0,0,0)" stroke-linecap="butt" stroke-miterlimit="10.0"><path d="M 324.6969,135.9894 ZM 326.3055,131.9158 c -0.1862,-0.0000 -0.7298,0.1043 -0.7298 0.5585c 0.0000,0.1341 -0.0521,0.3649 -0.2532 0.3649c -0.1936,-0.0000 -0.2085,-0.2160 -0.2085 -0.2383c 0.0000,-0.2309 0.3053,-0.9160 1.3405 -0.9160c 0.7224,-0.0000 0.9384,0.4543 0.9384 0.7522c 0.0000,0.1862 -0.0596,0.5585 -0.7298 0.9830c 0.4170,0.0670 0.9681,0.3724 0.9681 1.1469c 0.0000,0.9830 -0.7447,1.5118 -1.5863 1.5118c -0.4245,-0.0000 -1.0203,-0.1862 -1.0203 -0.4692c 0.0000,-0.1117 0.1117,-0.2383 0.2607 -0.2383c 0.1415,-0.0000 0.2085,0.0745 0.2755 0.1713c 0.0819,0.1266 0.2160,0.3053 0.5734 0.3053c 0.2458,-0.0000 0.9458,-0.2458 0.9458 -1.1841c 0.0000,-0.7969 -0.5585,-0.9235 -0.9607 -0.9235c -0.0670,-0.0000 -0.1489,0.0149 -0.2309 0.0298l -0.0298,-0.2234 c 0.5734,-0.0968 1.0501,-0.6554 1.0501 -0.9979c 0.0000,-0.4245 -0.2979,-0.6330 -0.6032 -0.6330ZM 327.9587,135.9894 ZM 328.6216,135.4532 v -1.8544 c 0.0000,-0.3724 -0.0521,-0.4543 -0.1638 -0.4543c -0.0968,-0.0000 -0.1862,0.0074 -0.3128 0.0372l -0.0372,-0.2085 c 0.4692,-0.0819 0.5511,-0.1043 0.7745 -0.2160c 0.0745,-0.0372 0.1341,-0.0596 0.1862 -0.0596h 0.1117 l -0.0223,0.6703 h 0.0223 c 0.1936,-0.2904 0.5213,-0.6703 0.8713 -0.6703c 0.3053,-0.0000 0.4170,0.1489 0.4170 0.3426c 0.0000,0.1936 -0.1266,0.3128 -0.3202 0.3128c -0.1489,-0.0000 -0.2309,-0.0596 -0.3053 -0.1341c -0.0447,-0.0447 -0.0968,-0.0670 -0.1489 -0.0670c -0.0819,-0.0000 -0.2458,0.1341 -0.4245 0.3873c -0.0521,0.0670 -0.0894,0.1638 -0.0894 0.2607v 1.6533 c 0.0000,0.2160 0.0745,0.3277 0.3202 0.3277h 0.2160 c 0.0372,-0.0000 0.0670,0.0223 0.0670 0.0596v 0.1415 l -0.0149,0.0149 c 0.0000,-0.0000 -0.5883,-0.0149 -0.8788 -0.0149c -0.2681,-0.0000 -0.7745,0.0149 -0.7745 0.0149l -0.0074,-0.0149 v -0.1415 c 0.0000,-0.0372 0.0149,-0.0596 0.0521 -0.0596h 0.1415 c 0.2532,-0.0000 0.3202,-0.1117 0.3202 -0.3277ZM 330.5429,135.9894 ZM 333.0303,135.3266 v -1.9288 c -0.1787,-0.2830 -0.3798,-0.4394 -0.7298 -0.4394c -0.1489,-0.0000 -0.4543,0.0223 -0.6926 0.3724c -0.1043,0.1564 -0.2309,0.4766 -0.2309 1.0128c 0.0000,0.9756 0.5064,1.4224 0.9086 1.4224c 0.2458,-0.0000 0.4468,-0.1489 0.7447 -0.4394ZM 333.0303,135.3266 ZM 333.5889,130.7912 v 4.3045 c 0.0000,0.2234 0.0149,0.3426 0.0298 0.3947c 0.0223,0.0670 0.1043,0.1117 0.1638 0.1117c 0.0894,-0.0000 0.2532,-0.0000 0.3649 -0.0223l 0.0298,0.2085 c -0.4319,0.0745 -0.8192,0.1564 -0.9756 0.2904h -0.1787 l 0.0223,-0.5139 c -0.2830,0.2904 -0.5734,0.5139 -0.9532 0.5139c -0.8043,-0.0000 -1.2958,-0.6851 -1.2958 -1.6012c 0.0000,-0.5511 0.1489,-1.0128 0.4692 -1.3331c 0.2979,-0.2830 0.6256,-0.4468 1.1171 -0.4468c 0.1489,-0.0000 0.4766,0.0670 0.6479 0.1638v -1.1394 c 0.0000,-0.4245 -0.0670,-0.5436 -0.2160 -0.5436l -0.2458,0.0298 c -0.0149,-0.0000 -0.0372,-0.0149 -0.0372 -0.0372l -0.0149,-0.1862 c 0.1192,-0.0000 0.3873,-0.0447 0.5139 -0.0670c 0.1415,-0.0298 0.2458,-0.0596 0.3947 -0.1266h 0.1638 ZM 336.0837,135.9894 ZM 338.5711,131.3423 c -0.7149,-0.0000 -1.5341,0.6479 -1.5341 2.2118c 0.0000,1.4299 0.8937,2.2714 1.7873 2.2714c 0.8490,-0.0000 1.5043,-0.8117 1.5043 -2.1448c 0.0000,-1.5490 -0.7075,-2.3384 -1.7575 -2.3384ZM 338.5711,131.3423 ZM 341.0138,133.5393 c 0.0000,1.4894 -0.9160,2.5395 -2.3384 2.5395h -0.1266 c -0.0745,0.0447 -0.1266,0.1266 -0.1489 0.1638c 0.2458,0.0223 0.5809,0.1341 0.8862 0.3500c 0.3202,0.2309 0.7596,0.4692 1.0575 0.4692c 0.2160,-0.0000 0.4841,-0.0745 0.6405 -0.2755l 0.1341,0.0894 c -0.2904,0.4170 -0.6032,0.6107 -1.0798 0.6107c -0.4170,-0.0000 -0.7522,-0.1638 -1.1245 -0.4319c -0.3873,-0.2904 -0.6851,-0.4915 -0.9979 -0.4915c -0.1117,-0.0000 -0.4022,0.0894 -0.5511 0.4319l -0.2904,-0.1415 c 0.0596,-0.0968 0.2979,-0.4245 0.8043 -0.5585c 0.0819,-0.0223 0.1638,-0.0521 0.1936 -0.0894c 0.0372,-0.0447 0.1117,-0.1192 0.1713 -0.1638c -1.0724,-0.1862 -1.8842,-1.0650 -1.8842 -2.3608c 0.0000,-1.4597 0.9756,-2.5916 2.3086 -2.5916c 1.3405,-0.0000 2.3459,0.9756 2.3459 2.4501Z"/></g><g stroke-linejoin="miter" stroke-opacity="0.6" fill-opacity="0.0" stroke="rgb(0,0,0)" stroke-width="0.5613357867854915" fill="rgb(0,0,0)" stroke-linecap="butt" stroke-miterlimit="10.0"><path d="M 333.0713,117.8805 v 11.2267 "/></g><g stroke-linejoin="miter" stroke-opacity="1.0" fill-opacity="0.33" stroke="rgb(0,0,0)" fill-rule="evenodd" stroke-width="0.0" fill="rgb(0,0,0)" stroke-linecap="butt" stroke-miterlimit="10.0"><path d="M 88.2440,135.4011 ZM 92.7347,134.8649 v -1.7129 c 0.0000,-0.4990 -0.1936,-0.6851 -0.4766 -0.6851c -0.2904,-0.0000 -0.5213,0.1489 -0.8788 0.5436c 0.0149,0.0894 0.0149,0.1936 0.0149 0.2979v 1.5565 c 0.0000,0.2160 0.0745,0.3277 0.3202 0.3277h 0.1266 c 0.0372,-0.0000 0.0670,0.0223 0.0670 0.0596v 0.1415 l -0.0149,0.0149 c 0.0000,-0.0000 -0.4990,-0.0149 -0.7894 -0.0149c -0.2681,-0.0000 -0.7820,0.0149 -0.7820 0.0149l -0.0149,-0.0149 v -0.1415 c 0.0000,-0.0372 0.0223,-0.0596 0.0596 -0.0596h 0.1489 c 0.2532,-0.0000 0.3202,-0.1117 0.3202 -0.3277v -1.6980 c 0.0000,-0.4990 -0.2011,-0.7000 -0.4841 -0.7000c -0.2607,-0.0000 -0.5064,0.1862 -0.8564 0.5511v 1.8469 c 0.0000,0.2160 0.0745,0.3277 0.3202 0.3277h 0.1415 c 0.0298,-0.0000 0.0596,0.0223 0.0596 0.0596v 0.1415 l -0.0149,0.0149 c 0.0000,-0.0000 -0.5064,-0.0149 -0.7969 -0.0149c -0.2681,-0.0000 -0.7745,0.0149 -0.7745 0.0149l -0.0149,-0.0149 v -0.1415 c 0.0000,-0.0372 0.0223,-0.0596 0.0596 -0.0596h 0.1415 c 0.2532,-0.0000 0.3202,-0.1117 0.3202 -0.3277v -1.8544 c 0.0000,-0.4245 -0.0670,-0.4543 -0.1638 -0.4543c -0.0968,-0.0000 -0.1862,0.0074 -0.3128 0.0372l -0.0372,-0.2085 c 0.4692,-0.0819 0.5734,-0.1117 0.7745 -0.2160c 0.0745,-0.0372 0.1341,-0.0596 0.1862 -0.0596h 0.1117 l -0.0223,0.6479 h 0.0223 c 0.3500,-0.3724 0.6628,-0.6479 1.1245 -0.6479c 0.4170,-0.0000 0.6777,0.3053 0.7224 0.6405c 0.4319,-0.4468 0.7820,-0.6405 1.1841 -0.6405c 0.6554,-0.0000 0.7671,0.5436 0.7671 1.2065v 1.5490 c 0.0000,0.2160 0.0745,0.3277 0.3202 0.3277h 0.1415 c 0.0298,-0.0000 0.0596,0.0223 0.0596 0.0596v 0.1415 l -0.0149,0.0149 c 0.0000,-0.0000 -0.5064,-0.0149 -0.7969 -0.0149c -0.2681,-0.0000 -0.7745,0.0149 -0.7745 0.0149l -0.0149,-0.0149 v -0.1415 c 0.0000,-0.0372 0.0223,-0.0596 0.0596 -0.0596h 0.1415 c 0.2458,-0.0000 0.3202,-0.1117 0.3202 -0.3277ZM 93.9039,135.4011 ZM 94.4848,131.1487 c 0.0000,-0.1936 0.1564,-0.3575 0.3500 -0.3575c 0.2011,-0.0000 0.3575,0.1638 0.3575 0.3575c 0.0000,0.2011 -0.1564,0.3575 -0.3575 0.3575c -0.1936,-0.0000 -0.3500,-0.1564 -0.3500 -0.3575ZM 94.4848,131.1487 ZM 95.1923,134.8649 c 0.0000,0.2160 0.0819,0.3277 0.3202 0.3277h 0.1415 c 0.0372,-0.0000 0.0670,0.0223 0.0670 0.0596v 0.1415 l -0.0149,0.0149 c 0.0000,-0.0000 -0.5139,-0.0149 -0.8043 -0.0149c -0.2607,-0.0000 -0.7671,0.0149 -0.7671 0.0149l -0.0149,-0.0149 v -0.1415 c 0.0000,-0.0372 0.0223,-0.0596 0.0596 -0.0596h 0.1415 c 0.2458,-0.0000 0.3202,-0.1117 0.3202 -0.3277v -1.8544 c 0.0000,-0.3947 -0.0670,-0.4543 -0.1713 -0.4543c -0.0968,-0.0000 -0.1862,0.0074 -0.3128 0.0372l -0.0372,-0.2085 c 0.4766,-0.0819 0.5585,-0.1117 0.7745 -0.2160c 0.0819,-0.0298 0.1341,-0.0596 0.1862 -0.0596h 0.1117 v 2.7555 ZM 95.8700,135.4011 ZM 98.5808,134.8649 v -1.6309 c 0.0000,-0.5213 -0.0894,-0.7671 -0.4841 -0.7671c -0.3277,-0.0000 -0.6107,0.1266 -0.9905 0.5734v 1.8246 c 0.0000,0.2160 0.0745,0.3277 0.3202 0.3277h 0.1043 c 0.0372,-0.0000 0.0596,0.0223 0.0596 0.0596v 0.1415 l -0.0149,0.0149 c 0.0000,-0.0000 -0.4692,-0.0149 -0.7596 -0.0149c -0.2681,-0.0000 -0.7745,0.0149 -0.7745 0.0149l -0.0149,-0.0149 v -0.1415 c 0.0000,-0.0372 0.0223,-0.0596 0.0596 -0.0596h 0.1415 c 0.2532,-0.0000 0.3202,-0.1117 0.3202 -0.3277v -1.8544 c 0.0000,-0.4022 -0.0596,-0.4543 -0.1638 -0.4543c -0.0968,-0.0000 -0.1862,0.0074 -0.3128 0.0372l -0.0372,-0.2085 c 0.3128,-0.0521 0.5362,-0.0894 0.7671 -0.2160c 0.0819,-0.0372 0.1415,-0.0596 0.1936 -0.0596h 0.1117 l -0.0223,0.6628 h 0.0223 c 0.4766,-0.5585 0.8341,-0.6628 1.2139 -0.6628c 0.6703,-0.0000 0.8117,0.5139 0.8117 1.1767v 1.5788 c 0.0000,0.2160 0.0819,0.3277 0.3202 0.3277h 0.1415 c 0.0372,-0.0000 0.0670,0.0223 0.0670 0.0596v 0.1415 l -0.0149,0.0149 c 0.0000,-0.0000 -0.5139,-0.0149 -0.8043 -0.0149c -0.2607,-0.0000 -0.7298,0.0149 -0.7298 0.0149l -0.0149,-0.0149 v -0.1415 c 0.0000,-0.0372 0.0223,-0.0596 0.0596 -0.0596h 0.1043 c 0.2458,-0.0000 0.3202,-0.1117 0.3202 -0.3277Z"/></g><g stroke-linejoin="miter" stroke-opacity="0.6" fill-opacity="0.0" stroke="rgb(0,0,0)" stroke-width="0.5613357867854915" fill="rgb(0,0,0)" stroke-linecap="butt" stroke-miterlimit="10.0"><path d="M 94.0379,117.8805 v 11.2267 "/></g><g stroke-linejoin="miter" stroke-opacity="0.0" fill-opacity="0.0" stroke="rgb(0,0,0)" stroke-width="0.0" fill="rgb(0,0,0)" stroke-linecap="butt" stroke-miterlimit="10.0"><path d="M 655.6679,117.8805 l -0.0000,-112.2672 h -561.3358 l -0.0000,112.2672 Z"/></g><g stroke-linejoin="miter" stroke-opacity="0.0" fill-opacity="0.0" stroke="rgb(0,0,0)" stroke-width="0.0" fill="rgb(0,0,0)" stroke-linecap="butt" stroke-miterlimit="10.0"><path d="M 655.6679,120.1259 l -0.0000,-2.2453 h -561.3358 l -0.0000,2.2453 Z"/></g><g stroke-linejoin="miter" stroke-opacity="1.0" fill-opacity="0.6" stroke="rgb(0,0,0)" fill-rule="evenodd" stroke-width="0.0" fill="rgb(0,0,0)" stroke-linecap="butt" stroke-miterlimit="10.0"></g><g stroke-linejoin="miter" stroke-opacity="0.6" fill-opacity="0.0" stroke="rgb(0,0,0)" stroke-width="0.5613357867854915" fill="rgb(0,0,0)" stroke-linecap="butt" stroke-miterlimit="10.0"><path d="M 655.6679,117.8805 v 5.6134 "/></g><g stroke-linejoin="miter" stroke-opacity="1.0" fill-opacity="0.6" stroke="rgb(0,0,0)" fill-rule="evenodd" stroke-width="0.0" fill="rgb(0,0,0)" stroke-linecap="butt" stroke-miterlimit="10.0"></g><g stroke-linejoin="miter" stroke-opacity="0.6" fill-opacity="0.0" stroke="rgb(0,0,0)" stroke-width="0.5613357867854915" fill="rgb(0,0,0)" stroke-linecap="butt" stroke-miterlimit="10.0"><path d="M 475.4053,117.8805 v 5.6134 "/></g><g stroke-linejoin="miter" stroke-opacity="1.0" fill-opacity="0.6" stroke="rgb(0,0,0)" fill-rule="evenodd" stroke-width="0.0" fill="rgb(0,0,0)" stroke-linecap="butt" stroke-miterlimit="10.0"></g><g stroke-linejoin="miter" stroke-opacity="0.6" fill-opacity="0.0" stroke="rgb(0,0,0)" stroke-width="0.5613357867854915" fill="rgb(0,0,0)" stroke-linecap="butt" stroke-miterlimit="10.0"><path d="M 452.9052,117.8805 v 5.6134 "/></g><g stroke-linejoin="miter" stroke-opacity="1.0" fill-opacity="0.6" stroke="rgb(0,0,0)" fill-rule="evenodd" stroke-width="0.0" fill="rgb(0,0,0)" stroke-linecap="butt" stroke-miterlimit="10.0"></g><g stroke-linejoin="miter" stroke-opacity="0.6" fill-opacity="0.0" stroke="rgb(0,0,0)" stroke-width="0.5613357867854915" fill="rgb(0,0,0)" stroke-linecap="butt" stroke-miterlimit="10.0"><path d="M 437.9788,117.8805 v 5.6134 "/></g><g stroke-linejoin="miter" stroke-opacity="1.0" fill-opacity="0.6" stroke="rgb(0,0,0)" fill-rule="evenodd" stroke-width="0.0" fill="rgb(0,0,0)" stroke-linecap="butt" stroke-miterlimit="10.0"></g><g stroke-linejoin="miter" stroke-opacity="0.6" fill-opacity="0.0" stroke="rgb(0,0,0)" stroke-width="0.5613357867854915" fill="rgb(0,0,0)" stroke-linecap="butt" stroke-miterlimit="10.0"><path d="M 425.9875,117.8805 v 5.6134 "/></g><g stroke-linejoin="miter" stroke-opacity="1.0" fill-opacity="0.6" stroke="rgb(0,0,0)" fill-rule="evenodd" stroke-width="0.0" fill="rgb(0,0,0)" stroke-linecap="butt" stroke-miterlimit="10.0"></g><g stroke-linejoin="miter" stroke-opacity="0.6" fill-opacity="0.0" stroke="rgb(0,0,0)" stroke-width="0.5613357867854915" fill="rgb(0,0,0)" stroke-linecap="butt" stroke-miterlimit="10.0"><path d="M 415.8629,117.8805 v 5.6134 "/></g><g stroke-linejoin="miter" stroke-opacity="1.0" fill-opacity="0.6" stroke="rgb(0,0,0)" fill-rule="evenodd" stroke-width="0.0" fill="rgb(0,0,0)" stroke-linecap="butt" stroke-miterlimit="10.0"></g><g stroke-linejoin="miter" stroke-opacity="0.6" fill-opacity="0.0" stroke="rgb(0,0,0)" stroke-width="0.5613357867854915" fill="rgb(0,0,0)" stroke-linecap="butt" stroke-miterlimit="10.0"><path d="M 406.5646,117.8805 v 5.6134 "/></g><g stroke-linejoin="miter" stroke-opacity="1.0" fill-opacity="0.6" stroke="rgb(0,0,0)" fill-rule="evenodd" stroke-width="0.0" fill="rgb(0,0,0)" stroke-linecap="butt" stroke-miterlimit="10.0"></g><g stroke-linejoin="miter" stroke-opacity="0.6" fill-opacity="0.0" stroke="rgb(0,0,0)" stroke-width="0.5613357867854915" fill="rgb(0,0,0)" stroke-linecap="butt" stroke-miterlimit="10.0"><path d="M 398.2781,117.8805 v 5.6134 "/></g><g stroke-linejoin="miter" stroke-opacity="1.0" fill-opacity="0.6" stroke="rgb(0,0,0)" fill-rule="evenodd" stroke-width="0.0" fill="rgb(0,0,0)" stroke-linecap="butt" stroke-miterlimit="10.0"></g><g stroke-linejoin="miter" stroke-opacity="0.6" fill-opacity="0.0" stroke="rgb(0,0,0)" stroke-width="0.5613357867854915" fill="rgb(0,0,0)" stroke-linecap="butt" stroke-miterlimit="10.0"><path d="M 390.2909,117.8805 v 5.6134 "/></g><g stroke-linejoin="miter" stroke-opacity="1.0" fill-opacity="0.6" stroke="rgb(0,0,0)" fill-rule="evenodd" stroke-width="0.0" fill="rgb(0,0,0)" stroke-linecap="butt" stroke-miterlimit="10.0"></g><g stroke-linejoin="miter" stroke-opacity="0.6" fill-opacity="0.0" stroke="rgb(0,0,0)" stroke-width="0.5613357867854915" fill="rgb(0,0,0)" stroke-linecap="butt" stroke-miterlimit="10.0"><path d="M 382.5050,117.8805 v 5.6134 "/></g><g stroke-linejoin="miter" stroke-opacity="1.0" fill-opacity="0.6" stroke="rgb(0,0,0)" fill-rule="evenodd" stroke-width="0.0" fill="rgb(0,0,0)" stroke-linecap="butt" stroke-miterlimit="10.0"></g><g stroke-linejoin="miter" stroke-opacity="0.6" fill-opacity="0.0" stroke="rgb(0,0,0)" stroke-width="0.5613357867854915" fill="rgb(0,0,0)" stroke-linecap="butt" stroke-miterlimit="10.0"><path d="M 374.7666,117.8805 v 5.6134 "/></g><g stroke-linejoin="miter" stroke-opacity="1.0" fill-opacity="0.6" stroke="rgb(0,0,0)" fill-rule="evenodd" stroke-width="0.0" fill="rgb(0,0,0)" stroke-linecap="butt" stroke-miterlimit="10.0"></g><g stroke-linejoin="miter" stroke-opacity="0.6" fill-opacity="0.0" stroke="rgb(0,0,0)" stroke-width="0.5613357867854915" fill="rgb(0,0,0)" stroke-linecap="butt" stroke-miterlimit="10.0"><path d="M 367.0915,117.8805 v 5.6134 "/></g><g stroke-linejoin="miter" stroke-opacity="1.0" fill-opacity="0.6" stroke="rgb(0,0,0)" fill-rule="evenodd" stroke-width="0.0" fill="rgb(0,0,0)" stroke-linecap="butt" stroke-miterlimit="10.0"></g><g stroke-linejoin="miter" stroke-opacity="0.6" fill-opacity="0.0" stroke="rgb(0,0,0)" stroke-width="0.5613357867854915" fill="rgb(0,0,0)" stroke-linecap="butt" stroke-miterlimit="10.0"><path d="M 359.3561,117.8805 v 5.6134 "/></g><g stroke-linejoin="miter" stroke-opacity="1.0" fill-opacity="0.6" stroke="rgb(0,0,0)" fill-rule="evenodd" stroke-width="0.0" fill="rgb(0,0,0)" stroke-linecap="butt" stroke-miterlimit="10.0"></g><g stroke-linejoin="miter" stroke-opacity="0.6" fill-opacity="0.0" stroke="rgb(0,0,0)" stroke-width="0.5613357867854915" fill="rgb(0,0,0)" stroke-linecap="butt" stroke-miterlimit="10.0"><path d="M 351.1450,117.8805 v 5.6134 "/></g><g stroke-linejoin="miter" stroke-opacity="1.0" fill-opacity="0.6" stroke="rgb(0,0,0)" fill-rule="evenodd" stroke-width="0.0" fill="rgb(0,0,0)" stroke-linecap="butt" stroke-miterlimit="10.0"></g><g stroke-linejoin="miter" stroke-opacity="0.6" fill-opacity="0.0" stroke="rgb(0,0,0)" stroke-width="0.5613357867854915" fill="rgb(0,0,0)" stroke-linecap="butt" stroke-miterlimit="10.0"><path d="M 342.5811,117.8805 v 5.6134 "/></g><g stroke-linejoin="miter" stroke-opacity="1.0" fill-opacity="0.6" stroke="rgb(0,0,0)" fill-rule="evenodd" stroke-width="0.0" fill="rgb(0,0,0)" stroke-linecap="butt" stroke-miterlimit="10.0"></g><g stroke-linejoin="miter" stroke-opacity="0.6" fill-opacity="0.0" stroke="rgb(0,0,0)" stroke-width="0.5613357867854915" fill="rgb(0,0,0)" stroke-linecap="butt" stroke-miterlimit="10.0"><path d="M 333.3654,117.8805 v 5.6134 "/></g><g stroke-linejoin="miter" stroke-opacity="1.0" fill-opacity="0.6" stroke="rgb(0,0,0)" fill-rule="evenodd" stroke-width="0.0" fill="rgb(0,0,0)" stroke-linecap="butt" stroke-miterlimit="10.0"></g><g stroke-linejoin="miter" stroke-opacity="0.6" fill-opacity="0.0" stroke="rgb(0,0,0)" stroke-width="0.5613357867854915" fill="rgb(0,0,0)" stroke-linecap="butt" stroke-miterlimit="10.0"><path d="M 323.2810,117.8805 v 5.6134 "/></g><g stroke-linejoin="miter" stroke-opacity="1.0" fill-opacity="0.6" stroke="rgb(0,0,0)" fill-rule="evenodd" stroke-width="0.0" fill="rgb(0,0,0)" stroke-linecap="butt" stroke-miterlimit="10.0"></g><g stroke-linejoin="miter" stroke-opacity="0.6" fill-opacity="0.0" stroke="rgb(0,0,0)" stroke-width="0.5613357867854915" fill="rgb(0,0,0)" stroke-linecap="butt" stroke-miterlimit="10.0"><path d="M 311.4910,117.8805 v 5.6134 "/></g><g stroke-linejoin="miter" stroke-opacity="1.0" fill-opacity="0.6" stroke="rgb(0,0,0)" fill-rule="evenodd" stroke-width="0.0" fill="rgb(0,0,0)" stroke-linecap="butt" stroke-miterlimit="10.0"></g><g stroke-linejoin="miter" stroke-opacity="0.6" fill-opacity="0.0" stroke="rgb(0,0,0)" stroke-width="0.5613357867854915" fill="rgb(0,0,0)" stroke-linecap="butt" stroke-miterlimit="10.0"><path d="M 296.6540,117.8805 v 5.6134 "/></g><g stroke-linejoin="miter" stroke-opacity="1.0" fill-opacity="0.6" stroke="rgb(0,0,0)" fill-rule="evenodd" stroke-width="0.0" fill="rgb(0,0,0)" stroke-linecap="butt" stroke-miterlimit="10.0"></g><g stroke-linejoin="miter" stroke-opacity="0.6" fill-opacity="0.0" stroke="rgb(0,0,0)" stroke-width="0.5613357867854915" fill="rgb(0,0,0)" stroke-linecap="butt" stroke-miterlimit="10.0"><path d="M 274.4847,117.8805 v 5.6134 "/></g><g stroke-linejoin="miter" stroke-opacity="1.0" fill-opacity="0.6" stroke="rgb(0,0,0)" fill-rule="evenodd" stroke-width="0.0" fill="rgb(0,0,0)" stroke-linecap="butt" stroke-miterlimit="10.0"></g><g stroke-linejoin="miter" stroke-opacity="0.6" fill-opacity="0.0" stroke="rgb(0,0,0)" stroke-width="0.5613357867854915" fill="rgb(0,0,0)" stroke-linecap="butt" stroke-miterlimit="10.0"><path d="M 94.3321,117.8805 v 5.6134 "/></g><g stroke-linejoin="miter" stroke-opacity="0.0" fill-opacity="0.0" stroke="rgb(0,0,0)" stroke-width="0.0" fill="rgb(0,0,0)" stroke-linecap="butt" stroke-miterlimit="10.0"><path d="M 655.6679,117.8805 l -0.0000,-112.2672 h -561.3358 l -0.0000,112.2672 Z"/></g><g stroke-linejoin="miter" stroke-opacity="0.0" fill-opacity="0.1" stroke="rgb(0,0,0)" stroke-width="0.0" fill="rgb(0,0,0)" stroke-linecap="butt" stroke-miterlimit="10.0"><path d="M 655.6679,120.1259 l -0.0000,-2.2453 h -561.3358 l -0.0000,2.2453 Z"/></g><g stroke-linejoin="miter" stroke-opacity="1.0" fill-opacity="0.6" stroke="rgb(0,0,0)" fill-rule="evenodd" stroke-width="0.0" fill="rgb(0,0,0)" stroke-linecap="butt" stroke-miterlimit="10.0"><path d="M 617.8130,126.1609 ZM 619.2540,124.1781 c 0.0000,-0.0391 0.0056,-0.0838 0.0559 -0.1117c 0.0614,-0.0447 0.1620,-0.0950 0.2458 -0.0950c 0.0726,-0.0000 0.0782,0.0614 0.0782 0.1731v 0.8993 h 0.4524 l -0.0335,0.2625 h -0.4189 v 0.4636 c 0.0000,0.1564 0.0223,0.2346 0.1843 0.2346h 0.1508 c 0.0335,-0.0000 0.0391,0.0279 0.0391 0.0391v 0.1229 c 0.0000,-0.0000 -0.3575,-0.0112 -0.5921 -0.0112c -0.2122,-0.0000 -0.5418,0.0112 -0.5418 0.0112v -0.1229 c 0.0000,-0.0112 0.0056,-0.0391 0.0391 -0.0391h 0.1508 c 0.1731,-0.0000 0.1899,-0.0726 0.1899 -0.2346v -0.4636 h -1.0947 c -0.0223,-0.0000 -0.0335,-0.0112 -0.0503 -0.0335l -0.0447,-0.0614 l -0.0670,-0.1173 c -0.0056,-0.0000 -0.0056,-0.0056 -0.0056 -0.0112c 0.0000,-0.0056 0.0056,-0.0112 0.0112 -0.0168c 0.3631,-0.4022 1.0054,-1.6477 1.2065 -2.1057c 0.0056,-0.0223 0.0168,-0.0279 0.0391 -0.0279c 0.0056,-0.0000 0.1285,0.0503 0.1955 0.0614c -0.2513,0.6758 -0.6647,1.4019 -1.0724 2.0499h 0.8825 v -0.8657 Z"/></g><g stroke-linejoin="miter" stroke-opacity="0.6" fill-opacity="0.0" stroke="rgb(0,0,0)" stroke-width="0.5613357867854915" fill="rgb(0,0,0)" stroke-linecap="butt" stroke-miterlimit="10.0"><path d="M 619.0390,117.8805 v 3.3680 "/></g><g stroke-linejoin="miter" stroke-opacity="1.0" fill-opacity="0.6" stroke="rgb(0,0,0)" fill-rule="evenodd" stroke-width="0.0" fill="rgb(0,0,0)" stroke-linecap="butt" stroke-miterlimit="10.0"><path d="M 556.7174,126.1609 ZM 557.9239,123.1057 c -0.1396,-0.0000 -0.5474,0.0782 -0.5474 0.4189c 0.0000,0.1005 -0.0391,0.2737 -0.1899 0.2737c -0.1452,-0.0000 -0.1564,-0.1620 -0.1564 -0.1787c 0.0000,-0.1731 0.2290,-0.6870 1.0054 -0.6870c 0.5418,-0.0000 0.7038,0.3407 0.7038 0.5641c 0.0000,0.1396 -0.0447,0.4189 -0.5474 0.7373c 0.3128,0.0503 0.7261,0.2793 0.7261 0.8602c 0.0000,0.7373 -0.5585,1.1338 -1.1897 1.1338c -0.3184,-0.0000 -0.7652,-0.1396 -0.7652 -0.3519c 0.0000,-0.0838 0.0838,-0.1787 0.1955 -0.1787c 0.1061,-0.0000 0.1564,0.0559 0.2067 0.1285c 0.0614,0.0950 0.1620,0.2290 0.4301 0.2290c 0.1843,-0.0000 0.7093,-0.1843 0.7093 -0.8881c 0.0000,-0.5976 -0.4189,-0.6926 -0.7205 -0.6926c -0.0503,-0.0000 -0.1117,0.0112 -0.1731 0.0223l -0.0223,-0.1676 c 0.4301,-0.0726 0.7875,-0.4915 0.7875 -0.7484c 0.0000,-0.3184 -0.2234,-0.4748 -0.4524 -0.4748Z"/></g><g stroke-linejoin="miter" stroke-opacity="0.6" fill-opacity="0.0" stroke="rgb(0,0,0)" stroke-width="0.5613357867854915" fill="rgb(0,0,0)" stroke-linecap="butt" stroke-miterlimit="10.0"><path d="M 557.9406,117.8805 v 3.3680 "/></g><g stroke-linejoin="miter" stroke-opacity="1.0" fill-opacity="0.6" stroke="rgb(0,0,0)" fill-rule="evenodd" stroke-width="0.0" fill="rgb(0,0,0)" stroke-linecap="butt" stroke-miterlimit="10.0"><path d="M 495.6051,126.1609 ZM 495.9290,123.6866 c 0.0000,-0.3184 0.3072,-0.7540 0.8937 -0.7540c 0.4301,-0.0000 0.9328,0.1620 0.9328 0.8043c 0.0000,0.4245 -0.2178,0.6367 -0.5194 0.9272l -0.5306,0.5139 c -0.0279,0.0279 -0.4022,0.3966 -0.4022 0.6591h 0.9495 c 0.1899,-0.0000 0.2904,-0.0950 0.3686 -0.4022l 0.1396,0.0223 l -0.1117,0.7038 h -1.7259 c 0.0000,-0.3128 0.0503,-0.5530 0.5697 -1.0836l 0.3910,-0.3854 c 0.3128,-0.3184 0.4412,-0.5921 0.4412 -0.9328c 0.0000,-0.5083 -0.3463,-0.6535 -0.5362 -0.6535c -0.3854,-0.0000 -0.4915,0.2011 -0.4915 0.3351c 0.0000,0.0447 0.0112,0.0894 0.0223 0.1285c 0.0112,0.0391 0.0223,0.0782 0.0223 0.1229c 0.0000,0.1452 -0.1117,0.2011 -0.2011 0.2011c -0.1229,-0.0000 -0.2122,-0.0950 -0.2122 -0.2067Z"/></g><g stroke-linejoin="miter" stroke-opacity="0.6" fill-opacity="0.0" stroke="rgb(0,0,0)" stroke-width="0.5613357867854915" fill="rgb(0,0,0)" stroke-linecap="butt" stroke-miterlimit="10.0"><path d="M 496.8422,117.8805 v 3.3680 "/></g><g stroke-linejoin="miter" stroke-opacity="1.0" fill-opacity="0.6" stroke="rgb(0,0,0)" fill-rule="evenodd" stroke-width="0.0" fill="rgb(0,0,0)" stroke-linecap="butt" stroke-miterlimit="10.0"><path d="M 434.4285,126.1609 ZM 435.4786,123.4967 c -0.1061,-0.0000 -0.3519,0.1005 -0.4748 0.1564l -0.0670,-0.1731 c 0.4915,-0.2290 0.6814,-0.3463 0.9607 -0.5474h 0.1061 v 2.8095 c 0.0000,0.2011 0.0279,0.2569 0.2122 0.2569h 0.2904 c 0.0168,-0.0000 0.0447,0.0112 0.0447 0.0447v 0.1229 l -0.7652,-0.0112 l -0.7764,0.0112 v -0.1229 c 0.0056,-0.0168 0.0112,-0.0447 0.0447 -0.0447h 0.3351 c 0.2122,-0.0000 0.2122,-0.0950 0.2122 -0.2569v -1.9214 c 0.0000,-0.1899 0.0000,-0.3240 -0.1229 -0.3240Z"/></g><g stroke-linejoin="miter" stroke-opacity="0.6" fill-opacity="0.0" stroke="rgb(0,0,0)" stroke-width="0.5613357867854915" fill="rgb(0,0,0)" stroke-linecap="butt" stroke-miterlimit="10.0"><path d="M 435.7439,117.8805 v 3.3680 "/></g><g stroke-linejoin="miter" stroke-opacity="1.0" fill-opacity="0.6" stroke="rgb(0,0,0)" fill-rule="evenodd" stroke-width="0.0" fill="rgb(0,0,0)" stroke-linecap="butt" stroke-miterlimit="10.0"><path d="M 373.4335,126.1609 ZM 374.6567,123.1280 c -0.2402,-0.0000 -0.5921,0.2346 -0.5921 1.5360c 0.0000,0.4580 0.0838,1.3796 0.5753 1.3796c 0.0950,-0.0000 0.3631,-0.0614 0.4803 -0.4971c 0.0726,-0.2681 0.1117,-0.6032 0.1117 -1.0892c 0.0000,-0.7093 -0.1787,-1.1059 -0.3407 -1.2456c -0.0614,-0.0559 -0.1452,-0.0838 -0.2346 -0.0838ZM 374.6567,123.1280 ZM 374.6344,126.2279 c -0.5976,-0.0000 -0.9998,-0.7652 -0.9998 -1.6198c 0.0000,-1.0445 0.4971,-1.6756 1.0221 -1.6756c 0.2402,-0.0000 0.4803,0.1508 0.6423 0.3686c 0.2346,0.3128 0.3575,0.7317 0.3575 1.2567c 0.0000,1.2400 -0.6144,1.6700 -1.0221 1.6700Z"/></g><g stroke-linejoin="miter" stroke-opacity="0.6" fill-opacity="0.0" stroke="rgb(0,0,0)" stroke-width="0.5613357867854915" fill="rgb(0,0,0)" stroke-linecap="butt" stroke-miterlimit="10.0"><path d="M 374.6455,117.8805 v 3.3680 "/></g><g stroke-linejoin="miter" stroke-opacity="1.0" fill-opacity="0.6" stroke="rgb(0,0,0)" fill-rule="evenodd" stroke-width="0.0" fill="rgb(0,0,0)" stroke-linecap="butt" stroke-miterlimit="10.0"><path d="M 311.4638,126.1609 ZM 312.9942,124.8428 h -1.2623 c -0.0503,-0.0000 -0.0838,-0.0447 -0.0838 -0.0950c 0.0000,-0.0894 0.0726,-0.2067 0.1396 -0.2067h 1.2791 c 0.0559,-0.0000 0.0782,0.0503 0.0782 0.1005c 0.0000,0.0614 -0.0782,0.2011 -0.1508 0.2011ZM 313.3237,126.1609 ZM 314.3738,123.4967 c -0.1061,-0.0000 -0.3519,0.1005 -0.4748 0.1564l -0.0670,-0.1731 c 0.4915,-0.2290 0.6814,-0.3463 0.9607 -0.5474h 0.1061 v 2.8095 c 0.0000,0.2011 0.0279,0.2569 0.2122 0.2569h 0.2904 c 0.0168,-0.0000 0.0447,0.0112 0.0447 0.0447v 0.1229 l -0.7652,-0.0112 l -0.7764,0.0112 v -0.1229 c 0.0056,-0.0168 0.0112,-0.0447 0.0447 -0.0447h 0.3351 c 0.2122,-0.0000 0.2122,-0.0950 0.2122 -0.2569v -1.9214 c 0.0000,-0.1899 0.0000,-0.3240 -0.1229 -0.3240Z"/></g><g stroke-linejoin="miter" stroke-opacity="0.6" fill-opacity="0.0" stroke="rgb(0,0,0)" stroke-width="0.5613357867854915" fill="rgb(0,0,0)" stroke-linecap="butt" stroke-miterlimit="10.0"><path d="M 313.5472,117.8805 v 3.3680 "/></g><g stroke-linejoin="miter" stroke-opacity="1.0" fill-opacity="0.6" stroke="rgb(0,0,0)" fill-rule="evenodd" stroke-width="0.0" fill="rgb(0,0,0)" stroke-linecap="butt" stroke-miterlimit="10.0"><path d="M 250.3487,126.1609 ZM 251.8791,124.8428 h -1.2623 c -0.0503,-0.0000 -0.0838,-0.0447 -0.0838 -0.0950c 0.0000,-0.0894 0.0726,-0.2067 0.1396 -0.2067h 1.2791 c 0.0559,-0.0000 0.0782,0.0503 0.0782 0.1005c 0.0000,0.0614 -0.0782,0.2011 -0.1508 0.2011ZM 252.2086,126.1609 ZM 252.5326,123.6866 c 0.0000,-0.3184 0.3072,-0.7540 0.8937 -0.7540c 0.4301,-0.0000 0.9328,0.1620 0.9328 0.8043c 0.0000,0.4245 -0.2178,0.6367 -0.5194 0.9272l -0.5306,0.5139 c -0.0279,0.0279 -0.4022,0.3966 -0.4022 0.6591h 0.9495 c 0.1899,-0.0000 0.2904,-0.0950 0.3686 -0.4022l 0.1396,0.0223 l -0.1117,0.7038 h -1.7259 c 0.0000,-0.3128 0.0503,-0.5530 0.5697 -1.0836l 0.3910,-0.3854 c 0.3128,-0.3184 0.4412,-0.5921 0.4412 -0.9328c 0.0000,-0.5083 -0.3463,-0.6535 -0.5362 -0.6535c -0.3854,-0.0000 -0.4915,0.2011 -0.4915 0.3351c 0.0000,0.0447 0.0112,0.0894 0.0223 0.1285c 0.0112,0.0391 0.0223,0.0782 0.0223 0.1229c 0.0000,0.1452 -0.1117,0.2011 -0.2011 0.2011c -0.1229,-0.0000 -0.2122,-0.0950 -0.2122 -0.2067Z"/></g><g stroke-linejoin="miter" stroke-opacity="0.6" fill-opacity="0.0" stroke="rgb(0,0,0)" stroke-width="0.5613357867854915" fill="rgb(0,0,0)" stroke-linecap="butt" stroke-miterlimit="10.0"><path d="M 252.4488,117.8805 v 3.3680 "/></g><g stroke-linejoin="miter" stroke-opacity="1.0" fill-opacity="0.6" stroke="rgb(0,0,0)" fill-rule="evenodd" stroke-width="0.0" fill="rgb(0,0,0)" stroke-linecap="butt" stroke-miterlimit="10.0"><path d="M 189.2280,126.1609 ZM 190.7584,124.8428 h -1.2623 c -0.0503,-0.0000 -0.0838,-0.0447 -0.0838 -0.0950c 0.0000,-0.0894 0.0726,-0.2067 0.1396 -0.2067h 1.2791 c 0.0559,-0.0000 0.0782,0.0503 0.0782 0.1005c 0.0000,0.0614 -0.0782,0.2011 -0.1508 0.2011ZM 191.0879,126.1609 ZM 192.2944,123.1057 c -0.1396,-0.0000 -0.5474,0.0782 -0.5474 0.4189c 0.0000,0.1005 -0.0391,0.2737 -0.1899 0.2737c -0.1452,-0.0000 -0.1564,-0.1620 -0.1564 -0.1787c 0.0000,-0.1731 0.2290,-0.6870 1.0054 -0.6870c 0.5418,-0.0000 0.7038,0.3407 0.7038 0.5641c 0.0000,0.1396 -0.0447,0.4189 -0.5474 0.7373c 0.3128,0.0503 0.7261,0.2793 0.7261 0.8602c 0.0000,0.7373 -0.5585,1.1338 -1.1897 1.1338c -0.3184,-0.0000 -0.7652,-0.1396 -0.7652 -0.3519c 0.0000,-0.0838 0.0838,-0.1787 0.1955 -0.1787c 0.1061,-0.0000 0.1564,0.0559 0.2067 0.1285c 0.0614,0.0950 0.1620,0.2290 0.4301 0.2290c 0.1843,-0.0000 0.7093,-0.1843 0.7093 -0.8881c 0.0000,-0.5976 -0.4189,-0.6926 -0.7205 -0.6926c -0.0503,-0.0000 -0.1117,0.0112 -0.1731 0.0223l -0.0223,-0.1676 c 0.4301,-0.0726 0.7875,-0.4915 0.7875 -0.7484c 0.0000,-0.3184 -0.2234,-0.4748 -0.4524 -0.4748Z"/></g><g stroke-linejoin="miter" stroke-opacity="0.6" fill-opacity="0.0" stroke="rgb(0,0,0)" stroke-width="0.5613357867854915" fill="rgb(0,0,0)" stroke-linecap="butt" stroke-miterlimit="10.0"><path d="M 191.3504,117.8805 v 3.3680 "/></g><g stroke-linejoin="miter" stroke-opacity="1.0" fill-opacity="0.6" stroke="rgb(0,0,0)" fill-rule="evenodd" stroke-width="0.0" fill="rgb(0,0,0)" stroke-linecap="butt" stroke-miterlimit="10.0"><path d="M 128.0933,126.1609 ZM 129.6237,124.8428 h -1.2623 c -0.0503,-0.0000 -0.0838,-0.0447 -0.0838 -0.0950c 0.0000,-0.0894 0.0726,-0.2067 0.1396 -0.2067h 1.2791 c 0.0559,-0.0000 0.0782,0.0503 0.0782 0.1005c 0.0000,0.0614 -0.0782,0.2011 -0.1508 0.2011ZM 129.9533,126.1609 ZM 131.3943,124.1781 c 0.0000,-0.0391 0.0056,-0.0838 0.0559 -0.1117c 0.0614,-0.0447 0.1620,-0.0950 0.2458 -0.0950c 0.0726,-0.0000 0.0782,0.0614 0.0782 0.1731v 0.8993 h 0.4524 l -0.0335,0.2625 h -0.4189 v 0.4636 c 0.0000,0.1564 0.0223,0.2346 0.1843 0.2346h 0.1508 c 0.0335,-0.0000 0.0391,0.0279 0.0391 0.0391v 0.1229 c 0.0000,-0.0000 -0.3575,-0.0112 -0.5921 -0.0112c -0.2122,-0.0000 -0.5418,0.0112 -0.5418 0.0112v -0.1229 c 0.0000,-0.0112 0.0056,-0.0391 0.0391 -0.0391h 0.1508 c 0.1731,-0.0000 0.1899,-0.0726 0.1899 -0.2346v -0.4636 h -1.0947 c -0.0223,-0.0000 -0.0335,-0.0112 -0.0503 -0.0335l -0.0447,-0.0614 l -0.0670,-0.1173 c -0.0056,-0.0000 -0.0056,-0.0056 -0.0056 -0.0112c 0.0000,-0.0056 0.0056,-0.0112 0.0112 -0.0168c 0.3631,-0.4022 1.0054,-1.6477 1.2065 -2.1057c 0.0056,-0.0223 0.0168,-0.0279 0.0391 -0.0279c 0.0056,-0.0000 0.1285,0.0503 0.1955 0.0614c -0.2513,0.6758 -0.6647,1.4019 -1.0724 2.0499h 0.8825 v -0.8657 Z"/></g><g stroke-linejoin="miter" stroke-opacity="0.6" fill-opacity="0.0" stroke="rgb(0,0,0)" stroke-width="0.5613357867854915" fill="rgb(0,0,0)" stroke-linecap="butt" stroke-miterlimit="10.0"><path d="M 130.2521,117.8805 v 3.3680 "/></g><g stroke-linejoin="miter" stroke-opacity="0.0" fill-opacity="0.0" stroke="rgb(0,0,0)" stroke-width="0.0" fill="rgb(0,0,0)" stroke-linecap="butt" stroke-miterlimit="10.0"><path d="M 655.6679,117.8805 l -0.0000,-112.2672 h -561.3358 l -0.0000,112.2672 Z"/></g></svg>