<?xml version="1.0" encoding="UTF-8"?>
<!DOCTYPE svg PUBLIC "-//W3C//DTD SVG 1.1//EN"
    "http://www.w3.org/Graphics/SVG/1.1/DTD/svg11.dtd"><svg xmlns="http://www.w3.org/2000/svg" height="250.0000" stroke-opacity="1" viewBox="0 0 750 250" font-size="1" width="750.0000" xmlns:xlink="http://www.w3.org/1999/xlink" stroke="rgb(0,0,0)" version="1.1"><defs></defs><g stroke-linejoin="miter" stroke-opacity="0.2" fill-opacity="0.0" stroke="rgb(0,0,0)" stroke-width="2.91590209532308" fill="rgb(0,0,0)" stroke-linecap="butt" stroke-miterlimit="10.0"><path d="M 520.7951,228.4391 l -0.0000,-0.1944 h -291.5902 l -0.0000,0.1944 Z"/></g><g stroke-linejoin="miter" stroke-opacity="1.0" fill-opacity="0.33" stroke="rgb(0,0,0)" fill-rule="evenodd" stroke-width="0.0" fill="rgb(0,0,0)" stroke-linecap="butt" stroke-miterlimit="10.0"><path d="M 514.8182,211.5665 ZM 517.2425,205.4156 c -0.2450,-0.0000 -0.8124,0.2321 -1.0961 0.3611l -0.1547,-0.3997 c 1.1348,-0.5287 1.5732,-0.7995 2.2180 -1.2637h 0.2450 v 6.4862 c 0.0000,0.4642 0.0645,0.5932 0.4900 0.5932h 0.6705 c 0.0387,-0.0000 0.1032,0.0258 0.1032 0.1032v 0.2837 l -1.7666,-0.0258 l -1.7924,0.0258 v -0.2837 c 0.0129,-0.0387 0.0258,-0.1032 0.1032 -0.1032h 0.7737 c 0.4900,-0.0000 0.4900,-0.2192 0.4900 -0.5932v -4.4359 c 0.0000,-0.4384 0.0000,-0.7479 -0.2837 -0.7479ZM 520.4663,211.5665 ZM 523.2903,204.5645 c -0.5545,-0.0000 -1.3669,0.5416 -1.3669 3.5461c 0.0000,1.0574 0.1934,3.1851 1.3282 3.1851c 0.2192,-0.0000 0.8382,-0.1418 1.1090 -1.1477c 0.1676,-0.6190 0.2579,-1.3927 0.2579 -2.5145c 0.0000,-1.6377 -0.4126,-2.5532 -0.7866 -2.8756c -0.1418,-0.1290 -0.3353,-0.1934 -0.5416 -0.1934ZM 523.2903,204.5645 ZM 523.2387,211.7212 c -1.3798,-0.0000 -2.3082,-1.7666 -2.3082 -3.7396c 0.0000,-2.4114 1.1477,-3.8685 2.3598 -3.8685c 0.5545,-0.0000 1.1090,0.3482 1.4829 0.8511c 0.5416,0.7221 0.8253,1.6893 0.8253 2.9014c 0.0000,2.8627 -1.4185,3.8556 -2.3598 3.8556Z"/></g><g stroke-linejoin="miter" stroke-opacity="0.5" fill-opacity="0.4" stroke="rgb(93,165,218)" stroke-width="2.91590209532308" fill="rgb(85,85,85)" stroke-linecap="butt" stroke-miterlimit="10.0"><path d="M 526.6269,227.2727 c 0.0000,-3.2208 -2.6110,-5.8318 -5.8318 -5.8318c -3.2208,-0.0000 -5.8318,2.6110 -5.8318 5.8318c -0.0000,3.2208 2.6110,5.8318 5.8318 5.8318c 3.2208,0.0000 5.8318,-2.6110 5.8318 -5.8318Z"/></g><g stroke-linejoin="miter" stroke-opacity="1.0" fill-opacity="0.33" stroke="rgb(0,0,0)" fill-rule="evenodd" stroke-width="0.0" fill="rgb(0,0,0)" stroke-linecap="butt" stroke-miterlimit="10.0"><path d="M 459.6401,211.5665 ZM 462.5029,204.4226 c -0.7350,-0.0000 -1.2121,0.5803 -1.2121 1.1477c 0.0000,0.3740 0.1547,0.8253 0.9284 1.3282l 0.3740,0.2321 c 0.3353,-0.2450 1.1219,-0.8382 1.1219 -1.4958c 0.0000,-0.5674 -0.4126,-1.2121 -1.2121 -1.2121ZM 462.5029,204.4226 ZM 464.4758,205.6477 c 0.0000,0.7866 -0.8898,1.4056 -1.4314 1.7666l 0.7479,0.4900 c 0.6319,0.4126 0.9542,0.9800 0.9542 1.6893c 0.0000,0.9284 -0.7608,2.1277 -2.3598 2.1277c -1.2895,-0.0000 -2.1793,-0.6834 -2.1793 -1.9343c 0.0000,-0.4771 0.2063,-1.0316 0.7092 -1.4700c 0.3095,-0.2708 0.5803,-0.5029 0.8898 -0.7350l -0.2192,-0.1290 c -0.7479,-0.4642 -1.1219,-0.9671 -1.1219 -1.6506c 0.0000,-0.9413 0.8511,-1.6893 2.1019 -1.6893c 1.1992,-0.0000 1.9085,0.6576 1.9085 1.5345ZM 464.4758,205.6477 ZM 462.4126,211.3602 c 0.5545,-0.0000 1.5216,-0.2966 1.5216 -1.5216c 0.0000,-0.5803 -0.3611,-1.1606 -1.1219 -1.6248l -0.5674,-0.3482 c -1.0445,0.6963 -1.2766,1.5603 -1.2766 1.9214c 0.0000,1.0961 0.8898,1.5732 1.4443 1.5732Z"/></g><g stroke-linejoin="miter" stroke-opacity="0.5" fill-opacity="0.4" stroke="rgb(93,165,218)" stroke-width="2.91590209532308" fill="rgb(85,85,85)" stroke-linecap="butt" stroke-miterlimit="10.0"><path d="M 468.3089,227.2727 c 0.0000,-3.2208 -2.6110,-5.8318 -5.8318 -5.8318c -3.2208,-0.0000 -5.8318,2.6110 -5.8318 5.8318c -0.0000,3.2208 2.6110,5.8318 5.8318 5.8318c 3.2208,0.0000 5.8318,-2.6110 5.8318 -5.8318Z"/></g><g stroke-linejoin="miter" stroke-opacity="1.0" fill-opacity="0.33" stroke="rgb(0,0,0)" fill-rule="evenodd" stroke-width="0.0" fill="rgb(0,0,0)" stroke-linecap="butt" stroke-miterlimit="10.0"><path d="M 401.2705,211.5665 ZM 402.7664,208.1880 c -0.0129,0.1290 -0.0129,0.3224 -0.0129 0.4513c 0.0000,2.1664 0.9671,2.7080 1.6119 2.7080c 0.5932,-0.0000 1.2250,-0.5545 1.2250 -1.8956c 0.0000,-0.6061 -0.3095,-1.8440 -1.5474 -1.8440c -0.2708,-0.0000 -0.7608,0.0258 -1.2766 0.5803ZM 402.7664,208.1880 ZM 406.1449,204.4484 c -0.8382,0.0774 -1.5603,0.2966 -2.1793 0.9027c -0.5932,0.5803 -1.0187,1.4443 -1.1606 2.4759c 0.2966,-0.3611 1.0058,-0.6319 1.4958 -0.6319c 1.9085,-0.0000 2.1535,1.5732 2.1535 2.1664c 0.0000,0.8769 -0.4384,2.3598 -2.2180 2.3598c -0.9413,-0.0000 -2.3727,-0.5545 -2.3727 -3.1206c 0.0000,-1.1863 0.3997,-2.3469 1.2895 -3.2367c 0.8253,-0.8382 1.6893,-1.1863 2.9530 -1.2508Z"/></g><g stroke-linejoin="miter" stroke-opacity="0.5" fill-opacity="0.4" stroke="rgb(93,165,218)" stroke-width="2.91590209532308" fill="rgb(85,85,85)" stroke-linecap="butt" stroke-miterlimit="10.0"><path d="M 409.9908,227.2727 c 0.0000,-3.2208 -2.6110,-5.8318 -5.8318 -5.8318c -3.2208,-0.0000 -5.8318,2.6110 -5.8318 5.8318c -0.0000,3.2208 2.6110,5.8318 5.8318 5.8318c 3.2208,0.0000 5.8318,-2.6110 5.8318 -5.8318Z"/></g><g stroke-linejoin="miter" stroke-opacity="1.0" fill-opacity="0.33" stroke="rgb(0,0,0)" fill-rule="evenodd" stroke-width="0.0" fill="rgb(0,0,0)" stroke-linecap="butt" stroke-miterlimit="10.0"><path d="M 343.0105,211.7084 ZM 346.3374,207.1306 c 0.0000,-0.0903 0.0129,-0.1934 0.1290 -0.2579c 0.1418,-0.1032 0.3740,-0.2192 0.5674 -0.2192c 0.1676,-0.0000 0.1805,0.1418 0.1805 0.3997v 2.0761 h 1.0445 l -0.0774,0.6061 h -0.9671 v 1.0703 c 0.0000,0.3611 0.0516,0.5416 0.4255 0.5416h 0.3482 c 0.0774,-0.0000 0.0903,0.0645 0.0903 0.0903v 0.2837 c 0.0000,-0.0000 -0.8253,-0.0258 -1.3669 -0.0258c -0.4900,-0.0000 -1.2508,0.0258 -1.2508 0.0258v -0.2837 c 0.0000,-0.0258 0.0129,-0.0903 0.0903 -0.0903h 0.3482 c 0.3997,-0.0000 0.4384,-0.1676 0.4384 -0.5416v -1.0703 h -2.5274 c -0.0516,-0.0000 -0.0774,-0.0258 -0.1161 -0.0774l -0.1032,-0.1418 l -0.1547,-0.2708 c -0.0129,-0.0000 -0.0129,-0.0129 -0.0129 -0.0258c 0.0000,-0.0129 0.0129,-0.0258 0.0258 -0.0387c 0.8382,-0.9284 2.3211,-3.8041 2.7853 -4.8614c 0.0129,-0.0516 0.0387,-0.0645 0.0903 -0.0645c 0.0129,-0.0000 0.2966,0.1161 0.4513 0.1418c -0.5803,1.5603 -1.5345,3.2367 -2.4759 4.7325h 2.0374 v -1.9987 Z"/></g><g stroke-linejoin="miter" stroke-opacity="0.5" fill-opacity="0.4" stroke="rgb(93,165,218)" stroke-width="2.91590209532308" fill="rgb(85,85,85)" stroke-linecap="butt" stroke-miterlimit="10.0"><path d="M 351.6728,227.2727 c 0.0000,-3.2208 -2.6110,-5.8318 -5.8318 -5.8318c -3.2208,-0.0000 -5.8318,2.6110 -5.8318 5.8318c -0.0000,3.2208 2.6110,5.8318 5.8318 5.8318c 3.2208,0.0000 5.8318,-2.6110 5.8318 -5.8318Z"/></g><g stroke-linejoin="miter" stroke-opacity="1.0" fill-opacity="0.33" stroke="rgb(0,0,0)" fill-rule="evenodd" stroke-width="0.0" fill="rgb(0,0,0)" stroke-linecap="butt" stroke-miterlimit="10.0"><path d="M 284.6667,211.7212 ZM 285.4146,206.0087 c 0.0000,-0.7350 0.7092,-1.7408 2.0632 -1.7408c 0.9929,-0.0000 2.1535,0.3740 2.1535 1.8569c 0.0000,0.9800 -0.5029,1.4700 -1.1992 2.1406l -1.2250,1.1863 c -0.0645,0.0645 -0.9284,0.9156 -0.9284 1.5216h 2.1922 c 0.4384,-0.0000 0.6705,-0.2192 0.8511 -0.9284l 0.3224,0.0516 l -0.2579,1.6248 h -3.9846 c 0.0000,-0.7221 0.1161,-1.2766 1.3153 -2.5016l 0.9027,-0.8898 c 0.7221,-0.7350 1.0187,-1.3669 1.0187 -2.1535c 0.0000,-1.1735 -0.7995,-1.5087 -1.2379 -1.5087c -0.8898,-0.0000 -1.1348,0.4642 -1.1348 0.7737c 0.0000,0.1032 0.0258,0.2063 0.0516 0.2966c 0.0258,0.0903 0.0516,0.1805 0.0516 0.2837c 0.0000,0.3353 -0.2579,0.4642 -0.4642 0.4642c -0.2837,-0.0000 -0.4900,-0.2192 -0.4900 -0.4771Z"/></g><g stroke-linejoin="miter" stroke-opacity="0.5" fill-opacity="0.4" stroke="rgb(93,165,218)" stroke-width="2.91590209532308" fill="rgb(85,85,85)" stroke-linecap="butt" stroke-miterlimit="10.0"><path d="M 293.3547,227.2727 c 0.0000,-3.2208 -2.6110,-5.8318 -5.8318 -5.8318c -3.2208,-0.0000 -5.8318,2.6110 -5.8318 5.8318c -0.0000,3.2208 2.6110,5.8318 5.8318 5.8318c 3.2208,0.0000 5.8318,-2.6110 5.8318 -5.8318Z"/></g><g stroke-linejoin="miter" stroke-opacity="1.0" fill-opacity="0.33" stroke="rgb(0,0,0)" fill-rule="evenodd" stroke-width="0.0" fill="rgb(0,0,0)" stroke-linecap="butt" stroke-miterlimit="10.0"><path d="M 226.4067,211.5665 ZM 229.2307,204.5645 c -0.5545,-0.0000 -1.3669,0.5416 -1.3669 3.5461c 0.0000,1.0574 0.1934,3.1851 1.3282 3.1851c 0.2192,-0.0000 0.8382,-0.1418 1.1090 -1.1477c 0.1676,-0.6190 0.2579,-1.3927 0.2579 -2.5145c 0.0000,-1.6377 -0.4126,-2.5532 -0.7866 -2.8756c -0.1418,-0.1290 -0.3353,-0.1934 -0.5416 -0.1934ZM 229.2307,204.5645 ZM 229.1791,211.7212 c -1.3798,-0.0000 -2.3082,-1.7666 -2.3082 -3.7396c 0.0000,-2.4114 1.1477,-3.8685 2.3598 -3.8685c 0.5545,-0.0000 1.1090,0.3482 1.4829 0.8511c 0.5416,0.7221 0.8253,1.6893 0.8253 2.9014c 0.0000,2.8627 -1.4185,3.8556 -2.3598 3.8556Z"/></g><g stroke-linejoin="miter" stroke-opacity="0.5" fill-opacity="0.4" stroke="rgb(93,165,218)" stroke-width="2.91590209532308" fill="rgb(85,85,85)" stroke-linecap="butt" stroke-miterlimit="10.0"><path d="M 235.0367,227.2727 c 0.0000,-3.2208 -2.6110,-5.8318 -5.8318 -5.8318c -3.2208,-0.0000 -5.8318,2.6110 -5.8318 5.8318c -0.0000,3.2208 2.6110,5.8318 5.8318 5.8318c 3.2208,0.0000 5.8318,-2.6110 5.8318 -5.8318Z"/></g><g stroke-linejoin="miter" stroke-opacity="0.0" fill-opacity="0.0" stroke="rgb(0,0,0)" stroke-width="0.0" fill="rgb(0,0,0)" stroke-linecap="butt" stroke-miterlimit="10.0"><path d="M 520.7951,204.1131 l -0.0000,-194.3935 h -291.5902 l -0.0000,194.3935 Z"/></g><g stroke-linejoin="miter" stroke-opacity="1.0" fill-opacity="0.0" stroke="rgb(250,250,250)" stroke-width="0.577563156464261" fill="rgb(0,0,0)" stroke-linecap="butt" stroke-miterlimit="10.0"><path d="M 520.7951,204.1131 v -194.3935 "/></g><g stroke-linejoin="miter" stroke-opacity="1.0" fill-opacity="0.0" stroke="rgb(250,250,250)" stroke-width="0.577563156464261" fill="rgb(0,0,0)" stroke-linecap="butt" stroke-miterlimit="10.0"><path d="M 491.6361,204.1131 v -194.3935 "/></g><g stroke-linejoin="miter" stroke-opacity="1.0" fill-opacity="0.0" stroke="rgb(250,250,250)" stroke-width="0.577563156464261" fill="rgb(0,0,0)" stroke-linecap="butt" stroke-miterlimit="10.0"><path d="M 462.4771,204.1131 v -194.3935 "/></g><g stroke-linejoin="miter" stroke-opacity="1.0" fill-opacity="0.0" stroke="rgb(250,250,250)" stroke-width="0.577563156464261" fill="rgb(0,0,0)" stroke-linecap="butt" stroke-miterlimit="10.0"><path d="M 433.3180,204.1131 v -194.3935 "/></g><g stroke-linejoin="miter" stroke-opacity="1.0" fill-opacity="0.0" stroke="rgb(250,250,250)" stroke-width="0.577563156464261" fill="rgb(0,0,0)" stroke-linecap="butt" stroke-miterlimit="10.0"><path d="M 404.1590,204.1131 v -194.3935 "/></g><g stroke-linejoin="miter" stroke-opacity="1.0" fill-opacity="0.0" stroke="rgb(250,250,250)" stroke-width="0.577563156464261" fill="rgb(0,0,0)" stroke-linecap="butt" stroke-miterlimit="10.0"><path d="M 375.0000,204.1131 v -194.3935 "/></g><g stroke-linejoin="miter" stroke-opacity="1.0" fill-opacity="0.0" stroke="rgb(250,250,250)" stroke-width="0.577563156464261" fill="rgb(0,0,0)" stroke-linecap="butt" stroke-miterlimit="10.0"><path d="M 345.8410,204.1131 v -194.3935 "/></g><g stroke-linejoin="miter" stroke-opacity="1.0" fill-opacity="0.0" stroke="rgb(250,250,250)" stroke-width="0.577563156464261" fill="rgb(0,0,0)" stroke-linecap="butt" stroke-miterlimit="10.0"><path d="M 316.6820,204.1131 v -194.3935 "/></g><g stroke-linejoin="miter" stroke-opacity="1.0" fill-opacity="0.0" stroke="rgb(250,250,250)" stroke-width="0.577563156464261" fill="rgb(0,0,0)" stroke-linecap="butt" stroke-miterlimit="10.0"><path d="M 287.5229,204.1131 v -194.3935 "/></g><g stroke-linejoin="miter" stroke-opacity="1.0" fill-opacity="0.0" stroke="rgb(250,250,250)" stroke-width="0.577563156464261" fill="rgb(0,0,0)" stroke-linecap="butt" stroke-miterlimit="10.0"><path d="M 258.3639,204.1131 v -194.3935 "/></g><g stroke-linejoin="miter" stroke-opacity="1.0" fill-opacity="0.0" stroke="rgb(250,250,250)" stroke-width="0.577563156464261" fill="rgb(0,0,0)" stroke-linecap="butt" stroke-miterlimit="10.0"><path d="M 229.2049,204.1131 v -194.3935 "/></g><g stroke-linejoin="miter" stroke-opacity="1.0" fill-opacity="0.0" stroke="rgb(250,250,250)" stroke-width="0.577563156464261" fill="rgb(0,0,0)" stroke-linecap="butt" stroke-miterlimit="10.0"><path d="M 229.2049,9.7197 h 291.5902 "/></g><g stroke-linejoin="miter" stroke-opacity="1.0" fill-opacity="0.0" stroke="rgb(250,250,250)" stroke-width="0.577563156464261" fill="rgb(0,0,0)" stroke-linecap="butt" stroke-miterlimit="10.0"><path d="M 229.2049,29.1590 h 291.5902 "/></g><g stroke-linejoin="miter" stroke-opacity="1.0" fill-opacity="0.0" stroke="rgb(250,250,250)" stroke-width="0.577563156464261" fill="rgb(0,0,0)" stroke-linecap="butt" stroke-miterlimit="10.0"><path d="M 229.2049,48.5984 h 291.5902 "/></g><g stroke-linejoin="miter" stroke-opacity="1.0" fill-opacity="0.0" stroke="rgb(250,250,250)" stroke-width="0.577563156464261" fill="rgb(0,0,0)" stroke-linecap="butt" stroke-miterlimit="10.0"><path d="M 229.2049,68.0377 h 291.5902 "/></g><g stroke-linejoin="miter" stroke-opacity="1.0" fill-opacity="0.0" stroke="rgb(250,250,250)" stroke-width="0.577563156464261" fill="rgb(0,0,0)" stroke-linecap="butt" stroke-miterlimit="10.0"><path d="M 229.2049,87.4771 h 291.5902 "/></g><g stroke-linejoin="miter" stroke-opacity="1.0" fill-opacity="0.0" stroke="rgb(250,250,250)" stroke-width="0.577563156464261" fill="rgb(0,0,0)" stroke-linecap="butt" stroke-miterlimit="10.0"><path d="M 229.2049,106.9164 h 291.5902 "/></g><g stroke-linejoin="miter" stroke-opacity="1.0" fill-opacity="0.0" stroke="rgb(250,250,250)" stroke-width="0.577563156464261" fill="rgb(0,0,0)" stroke-linecap="butt" stroke-miterlimit="10.0"><path d="M 229.2049,126.3558 h 291.5902 "/></g><g stroke-linejoin="miter" stroke-opacity="1.0" fill-opacity="0.0" stroke="rgb(250,250,250)" stroke-width="0.577563156464261" fill="rgb(0,0,0)" stroke-linecap="butt" stroke-miterlimit="10.0"><path d="M 229.2049,145.7951 h 291.5902 "/></g><g stroke-linejoin="miter" stroke-opacity="1.0" fill-opacity="0.0" stroke="rgb(250,250,250)" stroke-width="0.577563156464261" fill="rgb(0,0,0)" stroke-linecap="butt" stroke-miterlimit="10.0"><path d="M 229.2049,165.2345 h 291.5902 "/></g><g stroke-linejoin="miter" stroke-opacity="1.0" fill-opacity="0.0" stroke="rgb(250,250,250)" stroke-width="0.577563156464261" fill="rgb(0,0,0)" stroke-linecap="butt" stroke-miterlimit="10.0"><path d="M 229.2049,184.6738 h 291.5902 "/></g><g stroke-linejoin="miter" stroke-opacity="1.0" fill-opacity="0.0" stroke="rgb(250,250,250)" stroke-width="0.577563156464261" fill="rgb(0,0,0)" stroke-linecap="butt" stroke-miterlimit="10.0"><path d="M 229.2049,204.1131 h 291.5902 "/></g></svg>