<?xml version="1.0" encoding="UTF-8"?>
<!DOCTYPE svg PUBLIC "-//W3C//DTD SVG 1.1//EN"
    "http://www.w3.org/Graphics/SVG/1.1/DTD/svg11.dtd"><svg xmlns="http://www.w3.org/2000/svg" height="400.0000" stroke-opacity="1" viewBox="0 0 400 400" font-size="1" width="400.0000" xmlns:xlink="http://www.w3.org/1999/xlink" stroke="rgb(0,0,0)" version="1.1"><defs></defs><g stroke-linejoin="miter" stroke-opacity="0.0" fill-opacity="0.1" stroke="rgb(0,0,0)" stroke-width="0.0" fill="rgb(0,0,0)" stroke-linecap="butt" stroke-miterlimit="10.0"><path d="M 90.8354,310.6201 l -0.0000,-254.1762 h -5.0835 l -0.0000,254.1762 Z"/></g><g stroke-linejoin="miter" stroke-opacity="1.0" fill-opacity="0.6" stroke="rgb(0,0,0)" fill-rule="evenodd" stroke-width="0.0" fill="rgb(0,0,0)" stroke-linecap="butt" stroke-miterlimit="10.0"><path d="M 66.0564,60.0226 ZM 68.4338,53.9906 c -0.2403,-0.0000 -0.7967,0.2276 -1.0749 0.3541l -0.1517,-0.3920 c 1.1128,-0.5185 1.5428,-0.7840 2.1750 -1.2393h 0.2403 v 6.3607 c 0.0000,0.4552 0.0632,0.5817 0.4805 0.5817h 0.6576 c 0.0379,-0.0000 0.1012,0.0253 0.1012 0.1012v 0.2782 l -1.7324,-0.0253 l -1.7577,0.0253 v -0.2782 c 0.0126,-0.0379 0.0253,-0.1012 0.1012 -0.1012h 0.7587 c 0.4805,-0.0000 0.4805,-0.2150 0.4805 -0.5817v -4.3501 c 0.0000,-0.4299 0.0000,-0.7334 -0.2782 -0.7334ZM 71.5952,60.0226 ZM 72.3160,59.5041 c 0.0000,-0.3667 0.3035,-0.6702 0.6702 -0.6702c 0.3667,-0.0000 0.6702,0.3035 0.6702 0.6702c 0.0000,0.3667 -0.3035,0.6702 -0.6702 0.6702c -0.3667,-0.0000 -0.6702,-0.3035 -0.6702 -0.6702ZM 74.3646,60.0226 ZM 77.1339,53.1560 c -0.5438,-0.0000 -1.3404,0.5311 -1.3404 3.4775c 0.0000,1.0369 0.1897,3.1235 1.3025 3.1235c 0.2150,-0.0000 0.8220,-0.1391 1.0875 -1.1255c 0.1644,-0.6070 0.2529,-1.3657 0.2529 -2.4659c 0.0000,-1.6060 -0.4047,-2.5038 -0.7714 -2.8200c -0.1391,-0.1265 -0.3288,-0.1897 -0.5311 -0.1897ZM 77.1339,53.1560 ZM 77.0834,60.1743 c -1.3531,-0.0000 -2.2636,-1.7324 -2.2636 -3.6672c 0.0000,-2.3647 1.1255,-3.7937 2.3141 -3.7937c 0.5438,-0.0000 1.0875,0.3414 1.4542 0.8346c 0.5311,0.7082 0.8093,1.6566 0.8093 2.8453c 0.0000,2.8073 -1.3910,3.7810 -2.3141 3.7810Z"/></g><g stroke-linejoin="miter" stroke-opacity="0.6" fill-opacity="0.0" stroke="rgb(0,0,0)" stroke-width="1.270881017716461" fill="rgb(0,0,0)" stroke-linecap="butt" stroke-miterlimit="10.0"><path d="M 83.2101,56.4439 h 7.6253 "/></g><g stroke-linejoin="miter" stroke-opacity="1.0" fill-opacity="0.6" stroke="rgb(0,0,0)" fill-rule="evenodd" stroke-width="0.0" fill="rgb(0,0,0)" stroke-linecap="butt" stroke-miterlimit="10.0"><path d="M 66.0817,85.4402 ZM 68.8511,78.5736 c -0.5438,-0.0000 -1.3404,0.5311 -1.3404 3.4775c 0.0000,1.0369 0.1897,3.1235 1.3025 3.1235c 0.2150,-0.0000 0.8220,-0.1391 1.0875 -1.1255c 0.1644,-0.6070 0.2529,-1.3657 0.2529 -2.4659c 0.0000,-1.6060 -0.4047,-2.5038 -0.7714 -2.8200c -0.1391,-0.1265 -0.3288,-0.1897 -0.5311 -0.1897ZM 68.8511,78.5736 ZM 68.8005,85.5919 c -1.3531,-0.0000 -2.2636,-1.7324 -2.2636 -3.6672c 0.0000,-2.3647 1.1255,-3.7937 2.3141 -3.7937c 0.5438,-0.0000 1.0875,0.3414 1.4542 0.8346c 0.5311,0.7082 0.8093,1.6566 0.8093 2.8453c 0.0000,2.8073 -1.3910,3.7810 -2.3141 3.7810ZM 71.6205,85.4402 ZM 72.3413,84.9217 c 0.0000,-0.3667 0.3035,-0.6702 0.6702 -0.6702c 0.3667,-0.0000 0.6702,0.3035 0.6702 0.6702c 0.0000,0.3667 -0.3035,0.6702 -0.6702 0.6702c -0.3667,-0.0000 -0.6702,-0.3035 -0.6702 -0.6702ZM 74.3899,85.4402 ZM 77.1972,78.4345 c -0.7208,-0.0000 -1.1887,0.5691 -1.1887 1.1255c 0.0000,0.3667 0.1517,0.8093 0.9105 1.3025l 0.3667,0.2276 c 0.3288,-0.2403 1.1002,-0.8220 1.1002 -1.4669c 0.0000,-0.5564 -0.4047,-1.1887 -1.1887 -1.1887ZM 77.1972,78.4345 ZM 79.1319,79.6359 c 0.0000,0.7714 -0.8725,1.3784 -1.4037 1.7324l 0.7334,0.4805 c 0.6196,0.4047 0.9358,0.9611 0.9358 1.6566c 0.0000,0.9105 -0.7461,2.0865 -2.3141 2.0865c -1.2646,-0.0000 -2.1371,-0.6702 -2.1371 -1.8968c 0.0000,-0.4679 0.2023,-1.0116 0.6955 -1.4416c 0.3035,-0.2656 0.5691,-0.4932 0.8725 -0.7208l -0.2150,-0.1265 c -0.7334,-0.4552 -1.1002,-0.9484 -1.1002 -1.6186c 0.0000,-0.9231 0.8346,-1.6566 2.0612 -1.6566c 1.1760,-0.0000 1.8715,0.6449 1.8715 1.5048ZM 79.1319,79.6359 ZM 77.1087,85.2379 c 0.5438,-0.0000 1.4922,-0.2908 1.4922 -1.4922c 0.0000,-0.5691 -0.3541,-1.1381 -1.1002 -1.5933l -0.5564,-0.3414 c -1.0243,0.6829 -1.2519,1.5301 -1.2519 1.8842c 0.0000,1.0749 0.8725,1.5428 1.4163 1.5428Z"/></g><g stroke-linejoin="miter" stroke-opacity="0.6" fill-opacity="0.0" stroke="rgb(0,0,0)" stroke-width="1.270881017716461" fill="rgb(0,0,0)" stroke-linecap="butt" stroke-miterlimit="10.0"><path d="M 83.2101,81.8615 h 7.6253 "/></g><g stroke-linejoin="miter" stroke-opacity="1.0" fill-opacity="0.6" stroke="rgb(0,0,0)" fill-rule="evenodd" stroke-width="0.0" fill="rgb(0,0,0)" stroke-linecap="butt" stroke-miterlimit="10.0"><path d="M 66.0058,110.8578 ZM 68.7752,103.9913 c -0.5438,-0.0000 -1.3404,0.5311 -1.3404 3.4775c 0.0000,1.0369 0.1897,3.1235 1.3025 3.1235c 0.2150,-0.0000 0.8220,-0.1391 1.0875 -1.1255c 0.1644,-0.6070 0.2529,-1.3657 0.2529 -2.4659c 0.0000,-1.6060 -0.4047,-2.5038 -0.7714 -2.8200c -0.1391,-0.1265 -0.3288,-0.1897 -0.5311 -0.1897ZM 68.7752,103.9913 ZM 68.7246,111.0096 c -1.3531,-0.0000 -2.2636,-1.7324 -2.2636 -3.6672c 0.0000,-2.3647 1.1255,-3.7937 2.3141 -3.7937c 0.5438,-0.0000 1.0875,0.3414 1.4542 0.8346c 0.5311,0.7082 0.8093,1.6566 0.8093 2.8453c 0.0000,2.8073 -1.3910,3.7810 -2.3141 3.7810ZM 71.5446,110.8578 ZM 72.2654,110.3393 c 0.0000,-0.3667 0.3035,-0.6702 0.6702 -0.6702c 0.3667,-0.0000 0.6702,0.3035 0.6702 0.6702c 0.0000,0.3667 -0.3035,0.6702 -0.6702 0.6702c -0.3667,-0.0000 -0.6702,-0.3035 -0.6702 -0.6702ZM 74.3140,110.8578 ZM 75.7809,107.5447 c -0.0126,0.1265 -0.0126,0.3161 -0.0126 0.4426c 0.0000,2.1245 0.9484,2.6556 1.5807 2.6556c 0.5817,-0.0000 1.2013,-0.5438 1.2013 -1.8589c 0.0000,-0.5943 -0.3035,-1.8083 -1.5175 -1.8083c -0.2656,-0.0000 -0.7461,0.0253 -1.2519 0.5691ZM 75.7809,107.5447 ZM 79.0940,103.8775 c -0.8220,0.0759 -1.5301,0.2908 -2.1371 0.8852c -0.5817,0.5691 -0.9990,1.4163 -1.1381 2.4280c 0.2908,-0.3541 0.9864,-0.6196 1.4669 -0.6196c 1.8715,-0.0000 2.1118,1.5428 2.1118 2.1245c 0.0000,0.8599 -0.4299,2.3141 -2.1750 2.3141c -0.9231,-0.0000 -2.3268,-0.5438 -2.3268 -3.0602c 0.0000,-1.1634 0.3920,-2.3015 1.2646 -3.1740c 0.8093,-0.8220 1.6566,-1.1634 2.8958 -1.2266Z"/></g><g stroke-linejoin="miter" stroke-opacity="0.6" fill-opacity="0.0" stroke="rgb(0,0,0)" stroke-width="1.270881017716461" fill="rgb(0,0,0)" stroke-linecap="butt" stroke-miterlimit="10.0"><path d="M 83.2101,107.2791 h 7.6253 "/></g><g stroke-linejoin="miter" stroke-opacity="1.0" fill-opacity="0.6" stroke="rgb(0,0,0)" fill-rule="evenodd" stroke-width="0.0" fill="rgb(0,0,0)" stroke-linecap="butt" stroke-miterlimit="10.0"><path d="M 65.9426,136.2754 ZM 68.7120,129.4089 c -0.5438,-0.0000 -1.3404,0.5311 -1.3404 3.4775c 0.0000,1.0369 0.1897,3.1235 1.3025 3.1235c 0.2150,-0.0000 0.8220,-0.1391 1.0875 -1.1255c 0.1644,-0.6070 0.2529,-1.3657 0.2529 -2.4659c 0.0000,-1.6060 -0.4047,-2.5038 -0.7714 -2.8200c -0.1391,-0.1265 -0.3288,-0.1897 -0.5311 -0.1897ZM 68.7120,129.4089 ZM 68.6614,136.4272 c -1.3531,-0.0000 -2.2636,-1.7324 -2.2636 -3.6672c 0.0000,-2.3647 1.1255,-3.7937 2.3141 -3.7937c 0.5438,-0.0000 1.0875,0.3414 1.4542 0.8346c 0.5311,0.7082 0.8093,1.6566 0.8093 2.8453c 0.0000,2.8073 -1.3910,3.7810 -2.3141 3.7810ZM 71.4814,136.2754 ZM 72.2022,135.7570 c 0.0000,-0.3667 0.3035,-0.6702 0.6702 -0.6702c 0.3667,-0.0000 0.6702,0.3035 0.6702 0.6702c 0.0000,0.3667 -0.3035,0.6702 -0.6702 0.6702c -0.3667,-0.0000 -0.6702,-0.3035 -0.6702 -0.6702ZM 74.2507,136.2754 ZM 77.5133,131.7863 c 0.0000,-0.0885 0.0126,-0.1897 0.1265 -0.2529c 0.1391,-0.1012 0.3667,-0.2150 0.5564 -0.2150c 0.1644,-0.0000 0.1770,0.1391 0.1770 0.3920v 2.0359 h 1.0243 l -0.0759,0.5943 h -0.9484 v 1.0496 c 0.0000,0.3541 0.0506,0.5311 0.4173 0.5311h 0.3414 c 0.0759,-0.0000 0.0885,0.0632 0.0885 0.0885v 0.2782 c 0.0000,-0.0000 -0.8093,-0.0253 -1.3404 -0.0253c -0.4805,-0.0000 -1.2266,0.0253 -1.2266 0.0253v -0.2782 c 0.0000,-0.0253 0.0126,-0.0885 0.0885 -0.0885h 0.3414 c 0.3920,-0.0000 0.4299,-0.1644 0.4299 -0.5311v -1.0496 h -2.4785 c -0.0506,-0.0000 -0.0759,-0.0253 -0.1138 -0.0759l -0.1012,-0.1391 l -0.1517,-0.2656 c -0.0126,-0.0000 -0.0126,-0.0126 -0.0126 -0.0253c 0.0000,-0.0126 0.0126,-0.0253 0.0253 -0.0379c 0.8220,-0.9105 2.2762,-3.7304 2.7314 -4.7674c 0.0126,-0.0506 0.0379,-0.0632 0.0885 -0.0632c 0.0126,-0.0000 0.2908,0.1138 0.4426 0.1391c -0.5691,1.5301 -1.5048,3.1740 -2.4280 4.6409h 1.9980 v -1.9601 Z"/></g><g stroke-linejoin="miter" stroke-opacity="0.6" fill-opacity="0.0" stroke="rgb(0,0,0)" stroke-width="1.270881017716461" fill="rgb(0,0,0)" stroke-linecap="butt" stroke-miterlimit="10.0"><path d="M 83.2101,132.6967 h 7.6253 "/></g><g stroke-linejoin="miter" stroke-opacity="1.0" fill-opacity="0.6" stroke="rgb(0,0,0)" fill-rule="evenodd" stroke-width="0.0" fill="rgb(0,0,0)" stroke-linecap="butt" stroke-miterlimit="10.0"><path d="M 66.2082,161.6931 ZM 68.9775,154.8265 c -0.5438,-0.0000 -1.3404,0.5311 -1.3404 3.4775c 0.0000,1.0369 0.1897,3.1235 1.3025 3.1235c 0.2150,-0.0000 0.8220,-0.1391 1.0875 -1.1255c 0.1644,-0.6070 0.2529,-1.3657 0.2529 -2.4659c 0.0000,-1.6060 -0.4047,-2.5038 -0.7714 -2.8200c -0.1391,-0.1265 -0.3288,-0.1897 -0.5311 -0.1897ZM 68.9775,154.8265 ZM 68.9270,161.8448 c -1.3531,-0.0000 -2.2636,-1.7324 -2.2636 -3.6672c 0.0000,-2.3647 1.1255,-3.7937 2.3141 -3.7937c 0.5438,-0.0000 1.0875,0.3414 1.4542 0.8346c 0.5311,0.7082 0.8093,1.6566 0.8093 2.8453c 0.0000,2.8073 -1.3910,3.7810 -2.3141 3.7810ZM 71.7469,161.6931 ZM 72.4677,161.1746 c 0.0000,-0.3667 0.3035,-0.6702 0.6702 -0.6702c 0.3667,-0.0000 0.6702,0.3035 0.6702 0.6702c 0.0000,0.3667 -0.3035,0.6702 -0.6702 0.6702c -0.3667,-0.0000 -0.6702,-0.3035 -0.6702 -0.6702ZM 74.5163,161.6931 ZM 75.2498,156.0911 c 0.0000,-0.7208 0.6955,-1.7072 2.0233 -1.7072c 0.9737,-0.0000 2.1118,0.3667 2.1118 1.8210c 0.0000,0.9611 -0.4932,1.4416 -1.1760 2.0992l -1.2013,1.1634 c -0.0632,0.0632 -0.9105,0.8978 -0.9105 1.4922h 2.1497 c 0.4299,-0.0000 0.6576,-0.2150 0.8346 -0.9105l 0.3161,0.0506 l -0.2529,1.5933 h -3.9075 c 0.0000,-0.7082 0.1138,-1.2519 1.2898 -2.4532l 0.8852,-0.8725 c 0.7082,-0.7208 0.9990,-1.3404 0.9990 -2.1118c 0.0000,-1.1507 -0.7840,-1.4795 -1.2140 -1.4795c -0.8725,-0.0000 -1.1128,0.4552 -1.1128 0.7587c 0.0000,0.1012 0.0253,0.2023 0.0506 0.2908c 0.0253,0.0885 0.0506,0.1770 0.0506 0.2782c 0.0000,0.3288 -0.2529,0.4552 -0.4552 0.4552c -0.2782,-0.0000 -0.4805,-0.2150 -0.4805 -0.4679Z"/></g><g stroke-linejoin="miter" stroke-opacity="0.6" fill-opacity="0.0" stroke="rgb(0,0,0)" stroke-width="1.270881017716461" fill="rgb(0,0,0)" stroke-linecap="butt" stroke-miterlimit="10.0"><path d="M 83.2101,158.1144 h 7.6253 "/></g><g stroke-linejoin="miter" stroke-opacity="1.0" fill-opacity="0.6" stroke="rgb(0,0,0)" fill-rule="evenodd" stroke-width="0.0" fill="rgb(0,0,0)" stroke-linecap="butt" stroke-miterlimit="10.0"><path d="M 66.0564,187.1107 ZM 68.8258,180.2441 c -0.5438,-0.0000 -1.3404,0.5311 -1.3404 3.4775c 0.0000,1.0369 0.1897,3.1235 1.3025 3.1235c 0.2150,-0.0000 0.8220,-0.1391 1.0875 -1.1255c 0.1644,-0.6070 0.2529,-1.3657 0.2529 -2.4659c 0.0000,-1.6060 -0.4047,-2.5038 -0.7714 -2.8200c -0.1391,-0.1265 -0.3288,-0.1897 -0.5311 -0.1897ZM 68.8258,180.2441 ZM 68.7752,187.2624 c -1.3531,-0.0000 -2.2636,-1.7324 -2.2636 -3.6672c 0.0000,-2.3647 1.1255,-3.7937 2.3141 -3.7937c 0.5438,-0.0000 1.0875,0.3414 1.4542 0.8346c 0.5311,0.7082 0.8093,1.6566 0.8093 2.8453c 0.0000,2.8073 -1.3910,3.7810 -2.3141 3.7810ZM 71.5952,187.1107 ZM 72.3160,186.5922 c 0.0000,-0.3667 0.3035,-0.6702 0.6702 -0.6702c 0.3667,-0.0000 0.6702,0.3035 0.6702 0.6702c 0.0000,0.3667 -0.3035,0.6702 -0.6702 0.6702c -0.3667,-0.0000 -0.6702,-0.3035 -0.6702 -0.6702ZM 74.3646,187.1107 ZM 77.1339,180.2441 c -0.5438,-0.0000 -1.3404,0.5311 -1.3404 3.4775c 0.0000,1.0369 0.1897,3.1235 1.3025 3.1235c 0.2150,-0.0000 0.8220,-0.1391 1.0875 -1.1255c 0.1644,-0.6070 0.2529,-1.3657 0.2529 -2.4659c 0.0000,-1.6060 -0.4047,-2.5038 -0.7714 -2.8200c -0.1391,-0.1265 -0.3288,-0.1897 -0.5311 -0.1897ZM 77.1339,180.2441 ZM 77.0834,187.2624 c -1.3531,-0.0000 -2.2636,-1.7324 -2.2636 -3.6672c 0.0000,-2.3647 1.1255,-3.7937 2.3141 -3.7937c 0.5438,-0.0000 1.0875,0.3414 1.4542 0.8346c 0.5311,0.7082 0.8093,1.6566 0.8093 2.8453c 0.0000,2.8073 -1.3910,3.7810 -2.3141 3.7810Z"/></g><g stroke-linejoin="miter" stroke-opacity="0.6" fill-opacity="0.0" stroke="rgb(0,0,0)" stroke-width="1.270881017716461" fill="rgb(0,0,0)" stroke-linecap="butt" stroke-miterlimit="10.0"><path d="M 83.2101,183.5320 h 7.6253 "/></g><g stroke-linejoin="miter" stroke-opacity="1.0" fill-opacity="0.6" stroke="rgb(0,0,0)" fill-rule="evenodd" stroke-width="0.0" fill="rgb(0,0,0)" stroke-linecap="butt" stroke-miterlimit="10.0"><path d="M 61.9972,212.5283 ZM 65.4621,209.5439 h -2.8579 c -0.1138,-0.0000 -0.1897,-0.1012 -0.1897 -0.2150c 0.0000,-0.2023 0.1644,-0.4679 0.3161 -0.4679h 2.8958 c 0.1265,-0.0000 0.1770,0.1138 0.1770 0.2276c 0.0000,0.1391 -0.1770,0.4552 -0.3414 0.4552ZM 66.2082,212.5283 ZM 68.9775,205.6617 c -0.5438,-0.0000 -1.3404,0.5311 -1.3404 3.4775c 0.0000,1.0369 0.1897,3.1235 1.3025 3.1235c 0.2150,-0.0000 0.8220,-0.1391 1.0875 -1.1255c 0.1644,-0.6070 0.2529,-1.3657 0.2529 -2.4659c 0.0000,-1.6060 -0.4047,-2.5038 -0.7714 -2.8200c -0.1391,-0.1265 -0.3288,-0.1897 -0.5311 -0.1897ZM 68.9775,205.6617 ZM 68.9270,212.6800 c -1.3531,-0.0000 -2.2636,-1.7324 -2.2636 -3.6672c 0.0000,-2.3647 1.1255,-3.7937 2.3141 -3.7937c 0.5438,-0.0000 1.0875,0.3414 1.4542 0.8346c 0.5311,0.7082 0.8093,1.6566 0.8093 2.8453c 0.0000,2.8073 -1.3910,3.7810 -2.3141 3.7810ZM 71.7469,212.5283 ZM 72.4677,212.0098 c 0.0000,-0.3667 0.3035,-0.6702 0.6702 -0.6702c 0.3667,-0.0000 0.6702,0.3035 0.6702 0.6702c 0.0000,0.3667 -0.3035,0.6702 -0.6702 0.6702c -0.3667,-0.0000 -0.6702,-0.3035 -0.6702 -0.6702ZM 74.5163,212.5283 ZM 75.2498,206.9263 c 0.0000,-0.7208 0.6955,-1.7072 2.0233 -1.7072c 0.9737,-0.0000 2.1118,0.3667 2.1118 1.8210c 0.0000,0.9611 -0.4932,1.4416 -1.1760 2.0992l -1.2013,1.1634 c -0.0632,0.0632 -0.9105,0.8978 -0.9105 1.4922h 2.1497 c 0.4299,-0.0000 0.6576,-0.2150 0.8346 -0.9105l 0.3161,0.0506 l -0.2529,1.5933 h -3.9075 c 0.0000,-0.7082 0.1138,-1.2519 1.2898 -2.4532l 0.8852,-0.8725 c 0.7082,-0.7208 0.9990,-1.3404 0.9990 -2.1118c 0.0000,-1.1507 -0.7840,-1.4795 -1.2140 -1.4795c -0.8725,-0.0000 -1.1128,0.4552 -1.1128 0.7587c 0.0000,0.1012 0.0253,0.2023 0.0506 0.2908c 0.0253,0.0885 0.0506,0.1770 0.0506 0.2782c 0.0000,0.3288 -0.2529,0.4552 -0.4552 0.4552c -0.2782,-0.0000 -0.4805,-0.2150 -0.4805 -0.4679Z"/></g><g stroke-linejoin="miter" stroke-opacity="0.6" fill-opacity="0.0" stroke="rgb(0,0,0)" stroke-width="1.270881017716461" fill="rgb(0,0,0)" stroke-linecap="butt" stroke-miterlimit="10.0"><path d="M 83.2101,208.9496 h 7.6253 "/></g><g stroke-linejoin="miter" stroke-opacity="1.0" fill-opacity="0.6" stroke="rgb(0,0,0)" fill-rule="evenodd" stroke-width="0.0" fill="rgb(0,0,0)" stroke-linecap="butt" stroke-miterlimit="10.0"><path d="M 61.7316,237.9459 ZM 65.1965,234.9616 h -2.8579 c -0.1138,-0.0000 -0.1897,-0.1012 -0.1897 -0.2150c 0.0000,-0.2023 0.1644,-0.4679 0.3161 -0.4679h 2.8958 c 0.1265,-0.0000 0.1770,0.1138 0.1770 0.2276c 0.0000,0.1391 -0.1770,0.4552 -0.3414 0.4552ZM 65.9426,237.9459 ZM 68.7120,231.0794 c -0.5438,-0.0000 -1.3404,0.5311 -1.3404 3.4775c 0.0000,1.0369 0.1897,3.1235 1.3025 3.1235c 0.2150,-0.0000 0.8220,-0.1391 1.0875 -1.1255c 0.1644,-0.6070 0.2529,-1.3657 0.2529 -2.4659c 0.0000,-1.6060 -0.4047,-2.5038 -0.7714 -2.8200c -0.1391,-0.1265 -0.3288,-0.1897 -0.5311 -0.1897ZM 68.7120,231.0794 ZM 68.6614,238.0977 c -1.3531,-0.0000 -2.2636,-1.7324 -2.2636 -3.6672c 0.0000,-2.3647 1.1255,-3.7937 2.3141 -3.7937c 0.5438,-0.0000 1.0875,0.3414 1.4542 0.8346c 0.5311,0.7082 0.8093,1.6566 0.8093 2.8453c 0.0000,2.8073 -1.3910,3.7810 -2.3141 3.7810ZM 71.4814,237.9459 ZM 72.2022,237.4274 c 0.0000,-0.3667 0.3035,-0.6702 0.6702 -0.6702c 0.3667,-0.0000 0.6702,0.3035 0.6702 0.6702c 0.0000,0.3667 -0.3035,0.6702 -0.6702 0.6702c -0.3667,-0.0000 -0.6702,-0.3035 -0.6702 -0.6702ZM 74.2507,237.9459 ZM 77.5133,233.4567 c 0.0000,-0.0885 0.0126,-0.1897 0.1265 -0.2529c 0.1391,-0.1012 0.3667,-0.2150 0.5564 -0.2150c 0.1644,-0.0000 0.1770,0.1391 0.1770 0.3920v 2.0359 h 1.0243 l -0.0759,0.5943 h -0.9484 v 1.0496 c 0.0000,0.3541 0.0506,0.5311 0.4173 0.5311h 0.3414 c 0.0759,-0.0000 0.0885,0.0632 0.0885 0.0885v 0.2782 c 0.0000,-0.0000 -0.8093,-0.0253 -1.3404 -0.0253c -0.4805,-0.0000 -1.2266,0.0253 -1.2266 0.0253v -0.2782 c 0.0000,-0.0253 0.0126,-0.0885 0.0885 -0.0885h 0.3414 c 0.3920,-0.0000 0.4299,-0.1644 0.4299 -0.5311v -1.0496 h -2.4785 c -0.0506,-0.0000 -0.0759,-0.0253 -0.1138 -0.0759l -0.1012,-0.1391 l -0.1517,-0.2656 c -0.0126,-0.0000 -0.0126,-0.0126 -0.0126 -0.0253c 0.0000,-0.0126 0.0126,-0.0253 0.0253 -0.0379c 0.8220,-0.9105 2.2762,-3.7304 2.7314 -4.7674c 0.0126,-0.0506 0.0379,-0.0632 0.0885 -0.0632c 0.0126,-0.0000 0.2908,0.1138 0.4426 0.1391c -0.5691,1.5301 -1.5048,3.1740 -2.4280 4.6409h 1.9980 v -1.9601 Z"/></g><g stroke-linejoin="miter" stroke-opacity="0.6" fill-opacity="0.0" stroke="rgb(0,0,0)" stroke-width="1.270881017716461" fill="rgb(0,0,0)" stroke-linecap="butt" stroke-miterlimit="10.0"><path d="M 83.2101,234.3672 h 7.6253 "/></g><g stroke-linejoin="miter" stroke-opacity="1.0" fill-opacity="0.6" stroke="rgb(0,0,0)" fill-rule="evenodd" stroke-width="0.0" fill="rgb(0,0,0)" stroke-linecap="butt" stroke-miterlimit="10.0"><path d="M 61.7949,263.3635 ZM 65.2597,260.3792 h -2.8579 c -0.1138,-0.0000 -0.1897,-0.1012 -0.1897 -0.2150c 0.0000,-0.2023 0.1644,-0.4679 0.3161 -0.4679h 2.8958 c 0.1265,-0.0000 0.1770,0.1138 0.1770 0.2276c 0.0000,0.1391 -0.1770,0.4552 -0.3414 0.4552ZM 66.0058,263.3635 ZM 68.7752,256.4970 c -0.5438,-0.0000 -1.3404,0.5311 -1.3404 3.4775c 0.0000,1.0369 0.1897,3.1235 1.3025 3.1235c 0.2150,-0.0000 0.8220,-0.1391 1.0875 -1.1255c 0.1644,-0.6070 0.2529,-1.3657 0.2529 -2.4659c 0.0000,-1.6060 -0.4047,-2.5038 -0.7714 -2.8200c -0.1391,-0.1265 -0.3288,-0.1897 -0.5311 -0.1897ZM 68.7752,256.4970 ZM 68.7246,263.5153 c -1.3531,-0.0000 -2.2636,-1.7324 -2.2636 -3.6672c 0.0000,-2.3647 1.1255,-3.7937 2.3141 -3.7937c 0.5438,-0.0000 1.0875,0.3414 1.4542 0.8346c 0.5311,0.7082 0.8093,1.6566 0.8093 2.8453c 0.0000,2.8073 -1.3910,3.7810 -2.3141 3.7810ZM 71.5446,263.3635 ZM 72.2654,262.8451 c 0.0000,-0.3667 0.3035,-0.6702 0.6702 -0.6702c 0.3667,-0.0000 0.6702,0.3035 0.6702 0.6702c 0.0000,0.3667 -0.3035,0.6702 -0.6702 0.6702c -0.3667,-0.0000 -0.6702,-0.3035 -0.6702 -0.6702ZM 74.3140,263.3635 ZM 75.7809,260.0504 c -0.0126,0.1265 -0.0126,0.3161 -0.0126 0.4426c 0.0000,2.1245 0.9484,2.6556 1.5807 2.6556c 0.5817,-0.0000 1.2013,-0.5438 1.2013 -1.8589c 0.0000,-0.5943 -0.3035,-1.8083 -1.5175 -1.8083c -0.2656,-0.0000 -0.7461,0.0253 -1.2519 0.5691ZM 75.7809,260.0504 ZM 79.0940,256.3832 c -0.8220,0.0759 -1.5301,0.2908 -2.1371 0.8852c -0.5817,0.5691 -0.9990,1.4163 -1.1381 2.4280c 0.2908,-0.3541 0.9864,-0.6196 1.4669 -0.6196c 1.8715,-0.0000 2.1118,1.5428 2.1118 2.1245c 0.0000,0.8599 -0.4299,2.3141 -2.1750 2.3141c -0.9231,-0.0000 -2.3268,-0.5438 -2.3268 -3.0602c 0.0000,-1.1634 0.3920,-2.3015 1.2646 -3.1740c 0.8093,-0.8220 1.6566,-1.1634 2.8958 -1.2266Z"/></g><g stroke-linejoin="miter" stroke-opacity="0.6" fill-opacity="0.0" stroke="rgb(0,0,0)" stroke-width="1.270881017716461" fill="rgb(0,0,0)" stroke-linecap="butt" stroke-miterlimit="10.0"><path d="M 83.2101,259.7848 h 7.6253 "/></g><g stroke-linejoin="miter" stroke-opacity="1.0" fill-opacity="0.6" stroke="rgb(0,0,0)" fill-rule="evenodd" stroke-width="0.0" fill="rgb(0,0,0)" stroke-linecap="butt" stroke-miterlimit="10.0"><path d="M 61.8707,288.7812 ZM 65.3356,285.7968 h -2.8579 c -0.1138,-0.0000 -0.1897,-0.1012 -0.1897 -0.2150c 0.0000,-0.2023 0.1644,-0.4679 0.3161 -0.4679h 2.8958 c 0.1265,-0.0000 0.1770,0.1138 0.1770 0.2276c 0.0000,0.1391 -0.1770,0.4552 -0.3414 0.4552ZM 66.0817,288.7812 ZM 68.8511,281.9146 c -0.5438,-0.0000 -1.3404,0.5311 -1.3404 3.4775c 0.0000,1.0369 0.1897,3.1235 1.3025 3.1235c 0.2150,-0.0000 0.8220,-0.1391 1.0875 -1.1255c 0.1644,-0.6070 0.2529,-1.3657 0.2529 -2.4659c 0.0000,-1.6060 -0.4047,-2.5038 -0.7714 -2.8200c -0.1391,-0.1265 -0.3288,-0.1897 -0.5311 -0.1897ZM 68.8511,281.9146 ZM 68.8005,288.9329 c -1.3531,-0.0000 -2.2636,-1.7324 -2.2636 -3.6672c 0.0000,-2.3647 1.1255,-3.7937 2.3141 -3.7937c 0.5438,-0.0000 1.0875,0.3414 1.4542 0.8346c 0.5311,0.7082 0.8093,1.6566 0.8093 2.8453c 0.0000,2.8073 -1.3910,3.7810 -2.3141 3.7810ZM 71.6205,288.7812 ZM 72.3413,288.2627 c 0.0000,-0.3667 0.3035,-0.6702 0.6702 -0.6702c 0.3667,-0.0000 0.6702,0.3035 0.6702 0.6702c 0.0000,0.3667 -0.3035,0.6702 -0.6702 0.6702c -0.3667,-0.0000 -0.6702,-0.3035 -0.6702 -0.6702ZM 74.3899,288.7812 ZM 77.1972,281.7755 c -0.7208,-0.0000 -1.1887,0.5691 -1.1887 1.1255c 0.0000,0.3667 0.1517,0.8093 0.9105 1.3025l 0.3667,0.2276 c 0.3288,-0.2403 1.1002,-0.8220 1.1002 -1.4669c 0.0000,-0.5564 -0.4047,-1.1887 -1.1887 -1.1887ZM 77.1972,281.7755 ZM 79.1319,282.9768 c 0.0000,0.7714 -0.8725,1.3784 -1.4037 1.7324l 0.7334,0.4805 c 0.6196,0.4047 0.9358,0.9611 0.9358 1.6566c 0.0000,0.9105 -0.7461,2.0865 -2.3141 2.0865c -1.2646,-0.0000 -2.1371,-0.6702 -2.1371 -1.8968c 0.0000,-0.4679 0.2023,-1.0116 0.6955 -1.4416c 0.3035,-0.2656 0.5691,-0.4932 0.8725 -0.7208l -0.2150,-0.1265 c -0.7334,-0.4552 -1.1002,-0.9484 -1.1002 -1.6186c 0.0000,-0.9231 0.8346,-1.6566 2.0612 -1.6566c 1.1760,-0.0000 1.8715,0.6449 1.8715 1.5048ZM 79.1319,282.9768 ZM 77.1087,288.5788 c 0.5438,-0.0000 1.4922,-0.2908 1.4922 -1.4922c 0.0000,-0.5691 -0.3541,-1.1381 -1.1002 -1.5933l -0.5564,-0.3414 c -1.0243,0.6829 -1.2519,1.5301 -1.2519 1.8842c 0.0000,1.0749 0.8725,1.5428 1.4163 1.5428Z"/></g><g stroke-linejoin="miter" stroke-opacity="0.6" fill-opacity="0.0" stroke="rgb(0,0,0)" stroke-width="1.270881017716461" fill="rgb(0,0,0)" stroke-linecap="butt" stroke-miterlimit="10.0"><path d="M 83.2101,285.2025 h 7.6253 "/></g><g stroke-linejoin="miter" stroke-opacity="1.0" fill-opacity="0.6" stroke="rgb(0,0,0)" fill-rule="evenodd" stroke-width="0.0" fill="rgb(0,0,0)" stroke-linecap="butt" stroke-miterlimit="10.0"><path d="M 61.8454,314.1988 ZM 65.3103,311.2144 h -2.8579 c -0.1138,-0.0000 -0.1897,-0.1012 -0.1897 -0.2150c 0.0000,-0.2023 0.1644,-0.4679 0.3161 -0.4679h 2.8958 c 0.1265,-0.0000 0.1770,0.1138 0.1770 0.2276c 0.0000,0.1391 -0.1770,0.4552 -0.3414 0.4552ZM 66.0564,314.1988 ZM 68.4338,308.1668 c -0.2403,-0.0000 -0.7967,0.2276 -1.0749 0.3541l -0.1517,-0.3920 c 1.1128,-0.5185 1.5428,-0.7840 2.1750 -1.2393h 0.2403 v 6.3607 c 0.0000,0.4552 0.0632,0.5817 0.4805 0.5817h 0.6576 c 0.0379,-0.0000 0.1012,0.0253 0.1012 0.1012v 0.2782 l -1.7324,-0.0253 l -1.7577,0.0253 v -0.2782 c 0.0126,-0.0379 0.0253,-0.1012 0.1012 -0.1012h 0.7587 c 0.4805,-0.0000 0.4805,-0.2150 0.4805 -0.5817v -4.3501 c 0.0000,-0.4299 0.0000,-0.7334 -0.2782 -0.7334ZM 71.5952,314.1988 ZM 72.3160,313.6803 c 0.0000,-0.3667 0.3035,-0.6702 0.6702 -0.6702c 0.3667,-0.0000 0.6702,0.3035 0.6702 0.6702c 0.0000,0.3667 -0.3035,0.6702 -0.6702 0.6702c -0.3667,-0.0000 -0.6702,-0.3035 -0.6702 -0.6702ZM 74.3646,314.1988 ZM 77.1339,307.3322 c -0.5438,-0.0000 -1.3404,0.5311 -1.3404 3.4775c 0.0000,1.0369 0.1897,3.1235 1.3025 3.1235c 0.2150,-0.0000 0.8220,-0.1391 1.0875 -1.1255c 0.1644,-0.6070 0.2529,-1.3657 0.2529 -2.4659c 0.0000,-1.6060 -0.4047,-2.5038 -0.7714 -2.8200c -0.1391,-0.1265 -0.3288,-0.1897 -0.5311 -0.1897ZM 77.1339,307.3322 ZM 77.0834,314.3505 c -1.3531,-0.0000 -2.2636,-1.7324 -2.2636 -3.6672c 0.0000,-2.3647 1.1255,-3.7937 2.3141 -3.7937c 0.5438,-0.0000 1.0875,0.3414 1.4542 0.8346c 0.5311,0.7082 0.8093,1.6566 0.8093 2.8453c 0.0000,2.8073 -1.3910,3.7810 -2.3141 3.7810Z"/></g><g stroke-linejoin="miter" stroke-opacity="0.6" fill-opacity="0.0" stroke="rgb(0,0,0)" stroke-width="1.270881017716461" fill="rgb(0,0,0)" stroke-linecap="butt" stroke-miterlimit="10.0"><path d="M 83.2101,310.6201 h 7.6253 "/></g><g stroke-linejoin="miter" stroke-opacity="0.0" fill-opacity="0.1" stroke="rgb(0,0,0)" stroke-width="0.0" fill="rgb(0,0,0)" stroke-linecap="butt" stroke-miterlimit="10.0"><path d="M 353.5790,315.7036 l -0.0000,-5.0835 h -254.1762 l -0.0000,5.0835 Z"/></g><g stroke-linejoin="miter" stroke-opacity="1.0" fill-opacity="0.6" stroke="rgb(0,0,0)" fill-rule="evenodd" stroke-width="0.0" fill="rgb(0,0,0)" stroke-linecap="butt" stroke-miterlimit="10.0"><path d="M 346.3331,329.3672 ZM 348.7105,323.3352 c -0.2403,-0.0000 -0.7967,0.2276 -1.0749 0.3541l -0.1517,-0.3920 c 1.1128,-0.5185 1.5428,-0.7840 2.1750 -1.2393h 0.2403 v 6.3607 c 0.0000,0.4552 0.0632,0.5817 0.4805 0.5817h 0.6576 c 0.0379,-0.0000 0.1012,0.0253 0.1012 0.1012v 0.2782 l -1.7324,-0.0253 l -1.7577,0.0253 v -0.2782 c 0.0126,-0.0379 0.0253,-0.1012 0.1012 -0.1012h 0.7587 c 0.4805,-0.0000 0.4805,-0.2150 0.4805 -0.5817v -4.3501 c 0.0000,-0.4299 0.0000,-0.7334 -0.2782 -0.7334ZM 351.8719,329.3672 ZM 352.5927,328.8487 c 0.0000,-0.3667 0.3035,-0.6702 0.6702 -0.6702c 0.3667,-0.0000 0.6702,0.3035 0.6702 0.6702c 0.0000,0.3667 -0.3035,0.6702 -0.6702 0.6702c -0.3667,-0.0000 -0.6702,-0.3035 -0.6702 -0.6702ZM 354.6412,329.3672 ZM 357.4106,322.5006 c -0.5438,-0.0000 -1.3404,0.5311 -1.3404 3.4775c 0.0000,1.0369 0.1897,3.1235 1.3025 3.1235c 0.2150,-0.0000 0.8220,-0.1391 1.0875 -1.1255c 0.1644,-0.6070 0.2529,-1.3657 0.2529 -2.4659c 0.0000,-1.6060 -0.4047,-2.5038 -0.7714 -2.8200c -0.1391,-0.1265 -0.3288,-0.1897 -0.5311 -0.1897ZM 357.4106,322.5006 ZM 357.3600,329.5189 c -1.3531,-0.0000 -2.2636,-1.7324 -2.2636 -3.6672c 0.0000,-2.3647 1.1255,-3.7937 2.3141 -3.7937c 0.5438,-0.0000 1.0875,0.3414 1.4542 0.8346c 0.5311,0.7082 0.8093,1.6566 0.8093 2.8453c 0.0000,2.8073 -1.3910,3.7810 -2.3141 3.7810Z"/></g><g stroke-linejoin="miter" stroke-opacity="0.6" fill-opacity="0.0" stroke="rgb(0,0,0)" stroke-width="1.270881017716461" fill="rgb(0,0,0)" stroke-linecap="butt" stroke-miterlimit="10.0"><path d="M 353.5790,310.6201 v 7.6253 "/></g><g stroke-linejoin="miter" stroke-opacity="1.0" fill-opacity="0.6" stroke="rgb(0,0,0)" fill-rule="evenodd" stroke-width="0.0" fill="rgb(0,0,0)" stroke-linecap="butt" stroke-miterlimit="10.0"><path d="M 321.2759,329.3672 ZM 324.0453,322.5006 c -0.5438,-0.0000 -1.3404,0.5311 -1.3404 3.4775c 0.0000,1.0369 0.1897,3.1235 1.3025 3.1235c 0.2150,-0.0000 0.8220,-0.1391 1.0875 -1.1255c 0.1644,-0.6070 0.2529,-1.3657 0.2529 -2.4659c 0.0000,-1.6060 -0.4047,-2.5038 -0.7714 -2.8200c -0.1391,-0.1265 -0.3288,-0.1897 -0.5311 -0.1897ZM 324.0453,322.5006 ZM 323.9947,329.5189 c -1.3531,-0.0000 -2.2636,-1.7324 -2.2636 -3.6672c 0.0000,-2.3647 1.1255,-3.7937 2.3141 -3.7937c 0.5438,-0.0000 1.0875,0.3414 1.4542 0.8346c 0.5311,0.7082 0.8093,1.6566 0.8093 2.8453c 0.0000,2.8073 -1.3910,3.7810 -2.3141 3.7810ZM 326.8146,329.3672 ZM 327.5354,328.8487 c 0.0000,-0.3667 0.3035,-0.6702 0.6702 -0.6702c 0.3667,-0.0000 0.6702,0.3035 0.6702 0.6702c 0.0000,0.3667 -0.3035,0.6702 -0.6702 0.6702c -0.3667,-0.0000 -0.6702,-0.3035 -0.6702 -0.6702ZM 329.5840,329.3672 ZM 332.3913,322.3615 c -0.7208,-0.0000 -1.1887,0.5691 -1.1887 1.1255c 0.0000,0.3667 0.1517,0.8093 0.9105 1.3025l 0.3667,0.2276 c 0.3288,-0.2403 1.1002,-0.8220 1.1002 -1.4669c 0.0000,-0.5564 -0.4047,-1.1887 -1.1887 -1.1887ZM 332.3913,322.3615 ZM 334.3261,323.5628 c 0.0000,0.7714 -0.8725,1.3784 -1.4037 1.7324l 0.7334,0.4805 c 0.6196,0.4047 0.9358,0.9611 0.9358 1.6566c 0.0000,0.9105 -0.7461,2.0865 -2.3141 2.0865c -1.2646,-0.0000 -2.1371,-0.6702 -2.1371 -1.8968c 0.0000,-0.4679 0.2023,-1.0116 0.6955 -1.4416c 0.3035,-0.2656 0.5691,-0.4932 0.8725 -0.7208l -0.2150,-0.1265 c -0.7334,-0.4552 -1.1002,-0.9484 -1.1002 -1.6186c 0.0000,-0.9231 0.8346,-1.6566 2.0612 -1.6566c 1.1760,-0.0000 1.8715,0.6449 1.8715 1.5048ZM 334.3261,323.5628 ZM 332.3028,329.1648 c 0.5438,-0.0000 1.4922,-0.2908 1.4922 -1.4922c 0.0000,-0.5691 -0.3541,-1.1381 -1.1002 -1.5933l -0.5564,-0.3414 c -1.0243,0.6829 -1.2519,1.5301 -1.2519 1.8842c 0.0000,1.0749 0.8725,1.5428 1.4163 1.5428Z"/></g><g stroke-linejoin="miter" stroke-opacity="0.6" fill-opacity="0.0" stroke="rgb(0,0,0)" stroke-width="1.270881017716461" fill="rgb(0,0,0)" stroke-linecap="butt" stroke-miterlimit="10.0"><path d="M 328.1614,310.6201 v 7.6253 "/></g><g stroke-linejoin="miter" stroke-opacity="1.0" fill-opacity="0.6" stroke="rgb(0,0,0)" fill-rule="evenodd" stroke-width="0.0" fill="rgb(0,0,0)" stroke-linecap="butt" stroke-miterlimit="10.0"><path d="M 295.8203,329.3672 ZM 298.5897,322.5006 c -0.5438,-0.0000 -1.3404,0.5311 -1.3404 3.4775c 0.0000,1.0369 0.1897,3.1235 1.3025 3.1235c 0.2150,-0.0000 0.8220,-0.1391 1.0875 -1.1255c 0.1644,-0.6070 0.2529,-1.3657 0.2529 -2.4659c 0.0000,-1.6060 -0.4047,-2.5038 -0.7714 -2.8200c -0.1391,-0.1265 -0.3288,-0.1897 -0.5311 -0.1897ZM 298.5897,322.5006 ZM 298.5391,329.5189 c -1.3531,-0.0000 -2.2636,-1.7324 -2.2636 -3.6672c 0.0000,-2.3647 1.1255,-3.7937 2.3141 -3.7937c 0.5438,-0.0000 1.0875,0.3414 1.4542 0.8346c 0.5311,0.7082 0.8093,1.6566 0.8093 2.8453c 0.0000,2.8073 -1.3910,3.7810 -2.3141 3.7810ZM 301.3591,329.3672 ZM 302.0799,328.8487 c 0.0000,-0.3667 0.3035,-0.6702 0.6702 -0.6702c 0.3667,-0.0000 0.6702,0.3035 0.6702 0.6702c 0.0000,0.3667 -0.3035,0.6702 -0.6702 0.6702c -0.3667,-0.0000 -0.6702,-0.3035 -0.6702 -0.6702ZM 304.1285,329.3672 ZM 305.5954,326.0540 c -0.0126,0.1265 -0.0126,0.3161 -0.0126 0.4426c 0.0000,2.1245 0.9484,2.6556 1.5807 2.6556c 0.5817,-0.0000 1.2013,-0.5438 1.2013 -1.8589c 0.0000,-0.5943 -0.3035,-1.8083 -1.5175 -1.8083c -0.2656,-0.0000 -0.7461,0.0253 -1.2519 0.5691ZM 305.5954,326.0540 ZM 308.9085,322.3868 c -0.8220,0.0759 -1.5301,0.2908 -2.1371 0.8852c -0.5817,0.5691 -0.9990,1.4163 -1.1381 2.4280c 0.2908,-0.3541 0.9864,-0.6196 1.4669 -0.6196c 1.8715,-0.0000 2.1118,1.5428 2.1118 2.1245c 0.0000,0.8599 -0.4299,2.3141 -2.1750 2.3141c -0.9231,-0.0000 -2.3268,-0.5438 -2.3268 -3.0602c 0.0000,-1.1634 0.3920,-2.3015 1.2646 -3.1740c 0.8093,-0.8220 1.6566,-1.1634 2.8958 -1.2266Z"/></g><g stroke-linejoin="miter" stroke-opacity="0.6" fill-opacity="0.0" stroke="rgb(0,0,0)" stroke-width="1.270881017716461" fill="rgb(0,0,0)" stroke-linecap="butt" stroke-miterlimit="10.0"><path d="M 302.7438,310.6201 v 7.6253 "/></g><g stroke-linejoin="miter" stroke-opacity="1.0" fill-opacity="0.6" stroke="rgb(0,0,0)" fill-rule="evenodd" stroke-width="0.0" fill="rgb(0,0,0)" stroke-linecap="butt" stroke-miterlimit="10.0"><path d="M 270.3711,329.3672 ZM 273.1405,322.5006 c -0.5438,-0.0000 -1.3404,0.5311 -1.3404 3.4775c 0.0000,1.0369 0.1897,3.1235 1.3025 3.1235c 0.2150,-0.0000 0.8220,-0.1391 1.0875 -1.1255c 0.1644,-0.6070 0.2529,-1.3657 0.2529 -2.4659c 0.0000,-1.6060 -0.4047,-2.5038 -0.7714 -2.8200c -0.1391,-0.1265 -0.3288,-0.1897 -0.5311 -0.1897ZM 273.1405,322.5006 ZM 273.0899,329.5189 c -1.3531,-0.0000 -2.2636,-1.7324 -2.2636 -3.6672c 0.0000,-2.3647 1.1255,-3.7937 2.3141 -3.7937c 0.5438,-0.0000 1.0875,0.3414 1.4542 0.8346c 0.5311,0.7082 0.8093,1.6566 0.8093 2.8453c 0.0000,2.8073 -1.3910,3.7810 -2.3141 3.7810ZM 275.9098,329.3672 ZM 276.6306,328.8487 c 0.0000,-0.3667 0.3035,-0.6702 0.6702 -0.6702c 0.3667,-0.0000 0.6702,0.3035 0.6702 0.6702c 0.0000,0.3667 -0.3035,0.6702 -0.6702 0.6702c -0.3667,-0.0000 -0.6702,-0.3035 -0.6702 -0.6702ZM 278.6792,329.3672 ZM 281.9418,324.8780 c 0.0000,-0.0885 0.0126,-0.1897 0.1265 -0.2529c 0.1391,-0.1012 0.3667,-0.2150 0.5564 -0.2150c 0.1644,-0.0000 0.1770,0.1391 0.1770 0.3920v 2.0359 h 1.0243 l -0.0759,0.5943 h -0.9484 v 1.0496 c 0.0000,0.3541 0.0506,0.5311 0.4173 0.5311h 0.3414 c 0.0759,-0.0000 0.0885,0.0632 0.0885 0.0885v 0.2782 c 0.0000,-0.0000 -0.8093,-0.0253 -1.3404 -0.0253c -0.4805,-0.0000 -1.2266,0.0253 -1.2266 0.0253v -0.2782 c 0.0000,-0.0253 0.0126,-0.0885 0.0885 -0.0885h 0.3414 c 0.3920,-0.0000 0.4299,-0.1644 0.4299 -0.5311v -1.0496 h -2.4785 c -0.0506,-0.0000 -0.0759,-0.0253 -0.1138 -0.0759l -0.1012,-0.1391 l -0.1517,-0.2656 c -0.0126,-0.0000 -0.0126,-0.0126 -0.0126 -0.0253c 0.0000,-0.0126 0.0126,-0.0253 0.0253 -0.0379c 0.8220,-0.9105 2.2762,-3.7304 2.7314 -4.7674c 0.0126,-0.0506 0.0379,-0.0632 0.0885 -0.0632c 0.0126,-0.0000 0.2908,0.1138 0.4426 0.1391c -0.5691,1.5301 -1.5048,3.1740 -2.4280 4.6409h 1.9980 v -1.9601 Z"/></g><g stroke-linejoin="miter" stroke-opacity="0.6" fill-opacity="0.0" stroke="rgb(0,0,0)" stroke-width="1.270881017716461" fill="rgb(0,0,0)" stroke-linecap="butt" stroke-miterlimit="10.0"><path d="M 277.3262,310.6201 v 7.6253 "/></g><g stroke-linejoin="miter" stroke-opacity="1.0" fill-opacity="0.6" stroke="rgb(0,0,0)" fill-rule="evenodd" stroke-width="0.0" fill="rgb(0,0,0)" stroke-linecap="butt" stroke-miterlimit="10.0"><path d="M 245.0862,329.3672 ZM 247.8556,322.5006 c -0.5438,-0.0000 -1.3404,0.5311 -1.3404 3.4775c 0.0000,1.0369 0.1897,3.1235 1.3025 3.1235c 0.2150,-0.0000 0.8220,-0.1391 1.0875 -1.1255c 0.1644,-0.6070 0.2529,-1.3657 0.2529 -2.4659c 0.0000,-1.6060 -0.4047,-2.5038 -0.7714 -2.8200c -0.1391,-0.1265 -0.3288,-0.1897 -0.5311 -0.1897ZM 247.8556,322.5006 ZM 247.8050,329.5189 c -1.3531,-0.0000 -2.2636,-1.7324 -2.2636 -3.6672c 0.0000,-2.3647 1.1255,-3.7937 2.3141 -3.7937c 0.5438,-0.0000 1.0875,0.3414 1.4542 0.8346c 0.5311,0.7082 0.8093,1.6566 0.8093 2.8453c 0.0000,2.8073 -1.3910,3.7810 -2.3141 3.7810ZM 250.6250,329.3672 ZM 251.3458,328.8487 c 0.0000,-0.3667 0.3035,-0.6702 0.6702 -0.6702c 0.3667,-0.0000 0.6702,0.3035 0.6702 0.6702c 0.0000,0.3667 -0.3035,0.6702 -0.6702 0.6702c -0.3667,-0.0000 -0.6702,-0.3035 -0.6702 -0.6702ZM 253.3944,329.3672 ZM 254.1278,323.7652 c 0.0000,-0.7208 0.6955,-1.7072 2.0233 -1.7072c 0.9737,-0.0000 2.1118,0.3667 2.1118 1.8210c 0.0000,0.9611 -0.4932,1.4416 -1.1760 2.0992l -1.2013,1.1634 c -0.0632,0.0632 -0.9105,0.8978 -0.9105 1.4922h 2.1497 c 0.4299,-0.0000 0.6576,-0.2150 0.8346 -0.9105l 0.3161,0.0506 l -0.2529,1.5933 h -3.9075 c 0.0000,-0.7082 0.1138,-1.2519 1.2898 -2.4532l 0.8852,-0.8725 c 0.7082,-0.7208 0.9990,-1.3404 0.9990 -2.1118c 0.0000,-1.1507 -0.7840,-1.4795 -1.2140 -1.4795c -0.8725,-0.0000 -1.1128,0.4552 -1.1128 0.7587c 0.0000,0.1012 0.0253,0.2023 0.0506 0.2908c 0.0253,0.0885 0.0506,0.1770 0.0506 0.2782c 0.0000,0.3288 -0.2529,0.4552 -0.4552 0.4552c -0.2782,-0.0000 -0.4805,-0.2150 -0.4805 -0.4679Z"/></g><g stroke-linejoin="miter" stroke-opacity="0.6" fill-opacity="0.0" stroke="rgb(0,0,0)" stroke-width="1.270881017716461" fill="rgb(0,0,0)" stroke-linecap="butt" stroke-miterlimit="10.0"><path d="M 251.9085,310.6201 v 7.6253 "/></g><g stroke-linejoin="miter" stroke-opacity="1.0" fill-opacity="0.6" stroke="rgb(0,0,0)" fill-rule="evenodd" stroke-width="0.0" fill="rgb(0,0,0)" stroke-linecap="butt" stroke-miterlimit="10.0"><path d="M 219.5927,329.3672 ZM 222.3621,322.5006 c -0.5438,-0.0000 -1.3404,0.5311 -1.3404 3.4775c 0.0000,1.0369 0.1897,3.1235 1.3025 3.1235c 0.2150,-0.0000 0.8220,-0.1391 1.0875 -1.1255c 0.1644,-0.6070 0.2529,-1.3657 0.2529 -2.4659c 0.0000,-1.6060 -0.4047,-2.5038 -0.7714 -2.8200c -0.1391,-0.1265 -0.3288,-0.1897 -0.5311 -0.1897ZM 222.3621,322.5006 ZM 222.3115,329.5189 c -1.3531,-0.0000 -2.2636,-1.7324 -2.2636 -3.6672c 0.0000,-2.3647 1.1255,-3.7937 2.3141 -3.7937c 0.5438,-0.0000 1.0875,0.3414 1.4542 0.8346c 0.5311,0.7082 0.8093,1.6566 0.8093 2.8453c 0.0000,2.8073 -1.3910,3.7810 -2.3141 3.7810ZM 225.1315,329.3672 ZM 225.8523,328.8487 c 0.0000,-0.3667 0.3035,-0.6702 0.6702 -0.6702c 0.3667,-0.0000 0.6702,0.3035 0.6702 0.6702c 0.0000,0.3667 -0.3035,0.6702 -0.6702 0.6702c -0.3667,-0.0000 -0.6702,-0.3035 -0.6702 -0.6702ZM 227.9009,329.3672 ZM 230.6703,322.5006 c -0.5438,-0.0000 -1.3404,0.5311 -1.3404 3.4775c 0.0000,1.0369 0.1897,3.1235 1.3025 3.1235c 0.2150,-0.0000 0.8220,-0.1391 1.0875 -1.1255c 0.1644,-0.6070 0.2529,-1.3657 0.2529 -2.4659c 0.0000,-1.6060 -0.4047,-2.5038 -0.7714 -2.8200c -0.1391,-0.1265 -0.3288,-0.1897 -0.5311 -0.1897ZM 230.6703,322.5006 ZM 230.6197,329.5189 c -1.3531,-0.0000 -2.2636,-1.7324 -2.2636 -3.6672c 0.0000,-2.3647 1.1255,-3.7937 2.3141 -3.7937c 0.5438,-0.0000 1.0875,0.3414 1.4542 0.8346c 0.5311,0.7082 0.8093,1.6566 0.8093 2.8453c 0.0000,2.8073 -1.3910,3.7810 -2.3141 3.7810Z"/></g><g stroke-linejoin="miter" stroke-opacity="0.6" fill-opacity="0.0" stroke="rgb(0,0,0)" stroke-width="1.270881017716461" fill="rgb(0,0,0)" stroke-linecap="butt" stroke-miterlimit="10.0"><path d="M 226.4909,310.6201 v 7.6253 "/></g><g stroke-linejoin="miter" stroke-opacity="1.0" fill-opacity="0.6" stroke="rgb(0,0,0)" fill-rule="evenodd" stroke-width="0.0" fill="rgb(0,0,0)" stroke-linecap="butt" stroke-miterlimit="10.0"><path d="M 192.1645,329.3672 ZM 195.6294,326.3828 h -2.8579 c -0.1138,-0.0000 -0.1897,-0.1012 -0.1897 -0.2150c 0.0000,-0.2023 0.1644,-0.4679 0.3161 -0.4679h 2.8958 c 0.1265,-0.0000 0.1770,0.1138 0.1770 0.2276c 0.0000,0.1391 -0.1770,0.4552 -0.3414 0.4552ZM 196.3755,329.3672 ZM 199.1448,322.5006 c -0.5438,-0.0000 -1.3404,0.5311 -1.3404 3.4775c 0.0000,1.0369 0.1897,3.1235 1.3025 3.1235c 0.2150,-0.0000 0.8220,-0.1391 1.0875 -1.1255c 0.1644,-0.6070 0.2529,-1.3657 0.2529 -2.4659c 0.0000,-1.6060 -0.4047,-2.5038 -0.7714 -2.8200c -0.1391,-0.1265 -0.3288,-0.1897 -0.5311 -0.1897ZM 199.1448,322.5006 ZM 199.0943,329.5189 c -1.3531,-0.0000 -2.2636,-1.7324 -2.2636 -3.6672c 0.0000,-2.3647 1.1255,-3.7937 2.3141 -3.7937c 0.5438,-0.0000 1.0875,0.3414 1.4542 0.8346c 0.5311,0.7082 0.8093,1.6566 0.8093 2.8453c 0.0000,2.8073 -1.3910,3.7810 -2.3141 3.7810ZM 201.9142,329.3672 ZM 202.6350,328.8487 c 0.0000,-0.3667 0.3035,-0.6702 0.6702 -0.6702c 0.3667,-0.0000 0.6702,0.3035 0.6702 0.6702c 0.0000,0.3667 -0.3035,0.6702 -0.6702 0.6702c -0.3667,-0.0000 -0.6702,-0.3035 -0.6702 -0.6702ZM 204.6836,329.3672 ZM 205.4171,323.7652 c 0.0000,-0.7208 0.6955,-1.7072 2.0233 -1.7072c 0.9737,-0.0000 2.1118,0.3667 2.1118 1.8210c 0.0000,0.9611 -0.4932,1.4416 -1.1760 2.0992l -1.2013,1.1634 c -0.0632,0.0632 -0.9105,0.8978 -0.9105 1.4922h 2.1497 c 0.4299,-0.0000 0.6576,-0.2150 0.8346 -0.9105l 0.3161,0.0506 l -0.2529,1.5933 h -3.9075 c 0.0000,-0.7082 0.1138,-1.2519 1.2898 -2.4532l 0.8852,-0.8725 c 0.7082,-0.7208 0.9990,-1.3404 0.9990 -2.1118c 0.0000,-1.1507 -0.7840,-1.4795 -1.2140 -1.4795c -0.8725,-0.0000 -1.1128,0.4552 -1.1128 0.7587c 0.0000,0.1012 0.0253,0.2023 0.0506 0.2908c 0.0253,0.0885 0.0506,0.1770 0.0506 0.2782c 0.0000,0.3288 -0.2529,0.4552 -0.4552 0.4552c -0.2782,-0.0000 -0.4805,-0.2150 -0.4805 -0.4679Z"/></g><g stroke-linejoin="miter" stroke-opacity="0.6" fill-opacity="0.0" stroke="rgb(0,0,0)" stroke-width="1.270881017716461" fill="rgb(0,0,0)" stroke-linecap="butt" stroke-miterlimit="10.0"><path d="M 201.0733,310.6201 v 7.6253 "/></g><g stroke-linejoin="miter" stroke-opacity="1.0" fill-opacity="0.6" stroke="rgb(0,0,0)" fill-rule="evenodd" stroke-width="0.0" fill="rgb(0,0,0)" stroke-linecap="butt" stroke-miterlimit="10.0"><path d="M 166.6141,329.3672 ZM 170.0790,326.3828 h -2.8579 c -0.1138,-0.0000 -0.1897,-0.1012 -0.1897 -0.2150c 0.0000,-0.2023 0.1644,-0.4679 0.3161 -0.4679h 2.8958 c 0.1265,-0.0000 0.1770,0.1138 0.1770 0.2276c 0.0000,0.1391 -0.1770,0.4552 -0.3414 0.4552ZM 170.8251,329.3672 ZM 173.5944,322.5006 c -0.5438,-0.0000 -1.3404,0.5311 -1.3404 3.4775c 0.0000,1.0369 0.1897,3.1235 1.3025 3.1235c 0.2150,-0.0000 0.8220,-0.1391 1.0875 -1.1255c 0.1644,-0.6070 0.2529,-1.3657 0.2529 -2.4659c 0.0000,-1.6060 -0.4047,-2.5038 -0.7714 -2.8200c -0.1391,-0.1265 -0.3288,-0.1897 -0.5311 -0.1897ZM 173.5944,322.5006 ZM 173.5439,329.5189 c -1.3531,-0.0000 -2.2636,-1.7324 -2.2636 -3.6672c 0.0000,-2.3647 1.1255,-3.7937 2.3141 -3.7937c 0.5438,-0.0000 1.0875,0.3414 1.4542 0.8346c 0.5311,0.7082 0.8093,1.6566 0.8093 2.8453c 0.0000,2.8073 -1.3910,3.7810 -2.3141 3.7810ZM 176.3638,329.3672 ZM 177.0846,328.8487 c 0.0000,-0.3667 0.3035,-0.6702 0.6702 -0.6702c 0.3667,-0.0000 0.6702,0.3035 0.6702 0.6702c 0.0000,0.3667 -0.3035,0.6702 -0.6702 0.6702c -0.3667,-0.0000 -0.6702,-0.3035 -0.6702 -0.6702ZM 179.1332,329.3672 ZM 182.3958,324.8780 c 0.0000,-0.0885 0.0126,-0.1897 0.1265 -0.2529c 0.1391,-0.1012 0.3667,-0.2150 0.5564 -0.2150c 0.1644,-0.0000 0.1770,0.1391 0.1770 0.3920v 2.0359 h 1.0243 l -0.0759,0.5943 h -0.9484 v 1.0496 c 0.0000,0.3541 0.0506,0.5311 0.4173 0.5311h 0.3414 c 0.0759,-0.0000 0.0885,0.0632 0.0885 0.0885v 0.2782 c 0.0000,-0.0000 -0.8093,-0.0253 -1.3404 -0.0253c -0.4805,-0.0000 -1.2266,0.0253 -1.2266 0.0253v -0.2782 c 0.0000,-0.0253 0.0126,-0.0885 0.0885 -0.0885h 0.3414 c 0.3920,-0.0000 0.4299,-0.1644 0.4299 -0.5311v -1.0496 h -2.4785 c -0.0506,-0.0000 -0.0759,-0.0253 -0.1138 -0.0759l -0.1012,-0.1391 l -0.1517,-0.2656 c -0.0126,-0.0000 -0.0126,-0.0126 -0.0126 -0.0253c 0.0000,-0.0126 0.0126,-0.0253 0.0253 -0.0379c 0.8220,-0.9105 2.2762,-3.7304 2.7314 -4.7674c 0.0126,-0.0506 0.0379,-0.0632 0.0885 -0.0632c 0.0126,-0.0000 0.2908,0.1138 0.4426 0.1391c -0.5691,1.5301 -1.5048,3.1740 -2.4280 4.6409h 1.9980 v -1.9601 Z"/></g><g stroke-linejoin="miter" stroke-opacity="0.6" fill-opacity="0.0" stroke="rgb(0,0,0)" stroke-width="1.270881017716461" fill="rgb(0,0,0)" stroke-linecap="butt" stroke-miterlimit="10.0"><path d="M 175.6557,310.6201 v 7.6253 "/></g><g stroke-linejoin="miter" stroke-opacity="1.0" fill-opacity="0.6" stroke="rgb(0,0,0)" fill-rule="evenodd" stroke-width="0.0" fill="rgb(0,0,0)" stroke-linecap="butt" stroke-miterlimit="10.0"><path d="M 141.2281,329.3672 ZM 144.6930,326.3828 h -2.8579 c -0.1138,-0.0000 -0.1897,-0.1012 -0.1897 -0.2150c 0.0000,-0.2023 0.1644,-0.4679 0.3161 -0.4679h 2.8958 c 0.1265,-0.0000 0.1770,0.1138 0.1770 0.2276c 0.0000,0.1391 -0.1770,0.4552 -0.3414 0.4552ZM 145.4391,329.3672 ZM 148.2084,322.5006 c -0.5438,-0.0000 -1.3404,0.5311 -1.3404 3.4775c 0.0000,1.0369 0.1897,3.1235 1.3025 3.1235c 0.2150,-0.0000 0.8220,-0.1391 1.0875 -1.1255c 0.1644,-0.6070 0.2529,-1.3657 0.2529 -2.4659c 0.0000,-1.6060 -0.4047,-2.5038 -0.7714 -2.8200c -0.1391,-0.1265 -0.3288,-0.1897 -0.5311 -0.1897ZM 148.2084,322.5006 ZM 148.1579,329.5189 c -1.3531,-0.0000 -2.2636,-1.7324 -2.2636 -3.6672c 0.0000,-2.3647 1.1255,-3.7937 2.3141 -3.7937c 0.5438,-0.0000 1.0875,0.3414 1.4542 0.8346c 0.5311,0.7082 0.8093,1.6566 0.8093 2.8453c 0.0000,2.8073 -1.3910,3.7810 -2.3141 3.7810ZM 150.9778,329.3672 ZM 151.6986,328.8487 c 0.0000,-0.3667 0.3035,-0.6702 0.6702 -0.6702c 0.3667,-0.0000 0.6702,0.3035 0.6702 0.6702c 0.0000,0.3667 -0.3035,0.6702 -0.6702 0.6702c -0.3667,-0.0000 -0.6702,-0.3035 -0.6702 -0.6702ZM 153.7472,329.3672 ZM 155.2141,326.0540 c -0.0126,0.1265 -0.0126,0.3161 -0.0126 0.4426c 0.0000,2.1245 0.9484,2.6556 1.5807 2.6556c 0.5817,-0.0000 1.2013,-0.5438 1.2013 -1.8589c 0.0000,-0.5943 -0.3035,-1.8083 -1.5175 -1.8083c -0.2656,-0.0000 -0.7461,0.0253 -1.2519 0.5691ZM 155.2141,326.0540 ZM 158.5272,322.3868 c -0.8220,0.0759 -1.5301,0.2908 -2.1371 0.8852c -0.5817,0.5691 -0.9990,1.4163 -1.1381 2.4280c 0.2908,-0.3541 0.9864,-0.6196 1.4669 -0.6196c 1.8715,-0.0000 2.1118,1.5428 2.1118 2.1245c 0.0000,0.8599 -0.4299,2.3141 -2.1750 2.3141c -0.9231,-0.0000 -2.3268,-0.5438 -2.3268 -3.0602c 0.0000,-1.1634 0.3920,-2.3015 1.2646 -3.1740c 0.8093,-0.8220 1.6566,-1.1634 2.8958 -1.2266Z"/></g><g stroke-linejoin="miter" stroke-opacity="0.6" fill-opacity="0.0" stroke="rgb(0,0,0)" stroke-width="1.270881017716461" fill="rgb(0,0,0)" stroke-linecap="butt" stroke-miterlimit="10.0"><path d="M 150.2381,310.6201 v 7.6253 "/></g><g stroke-linejoin="miter" stroke-opacity="1.0" fill-opacity="0.6" stroke="rgb(0,0,0)" fill-rule="evenodd" stroke-width="0.0" fill="rgb(0,0,0)" stroke-linecap="butt" stroke-miterlimit="10.0"><path d="M 115.8484,329.3672 ZM 119.3133,326.3828 h -2.8579 c -0.1138,-0.0000 -0.1897,-0.1012 -0.1897 -0.2150c 0.0000,-0.2023 0.1644,-0.4679 0.3161 -0.4679h 2.8958 c 0.1265,-0.0000 0.1770,0.1138 0.1770 0.2276c 0.0000,0.1391 -0.1770,0.4552 -0.3414 0.4552ZM 120.0594,329.3672 ZM 122.8288,322.5006 c -0.5438,-0.0000 -1.3404,0.5311 -1.3404 3.4775c 0.0000,1.0369 0.1897,3.1235 1.3025 3.1235c 0.2150,-0.0000 0.8220,-0.1391 1.0875 -1.1255c 0.1644,-0.6070 0.2529,-1.3657 0.2529 -2.4659c 0.0000,-1.6060 -0.4047,-2.5038 -0.7714 -2.8200c -0.1391,-0.1265 -0.3288,-0.1897 -0.5311 -0.1897ZM 122.8288,322.5006 ZM 122.7782,329.5189 c -1.3531,-0.0000 -2.2636,-1.7324 -2.2636 -3.6672c 0.0000,-2.3647 1.1255,-3.7937 2.3141 -3.7937c 0.5438,-0.0000 1.0875,0.3414 1.4542 0.8346c 0.5311,0.7082 0.8093,1.6566 0.8093 2.8453c 0.0000,2.8073 -1.3910,3.7810 -2.3141 3.7810ZM 125.5981,329.3672 ZM 126.3189,328.8487 c 0.0000,-0.3667 0.3035,-0.6702 0.6702 -0.6702c 0.3667,-0.0000 0.6702,0.3035 0.6702 0.6702c 0.0000,0.3667 -0.3035,0.6702 -0.6702 0.6702c -0.3667,-0.0000 -0.6702,-0.3035 -0.6702 -0.6702ZM 128.3675,329.3672 ZM 131.1748,322.3615 c -0.7208,-0.0000 -1.1887,0.5691 -1.1887 1.1255c 0.0000,0.3667 0.1517,0.8093 0.9105 1.3025l 0.3667,0.2276 c 0.3288,-0.2403 1.1002,-0.8220 1.1002 -1.4669c 0.0000,-0.5564 -0.4047,-1.1887 -1.1887 -1.1887ZM 131.1748,322.3615 ZM 133.1096,323.5628 c 0.0000,0.7714 -0.8725,1.3784 -1.4037 1.7324l 0.7334,0.4805 c 0.6196,0.4047 0.9358,0.9611 0.9358 1.6566c 0.0000,0.9105 -0.7461,2.0865 -2.3141 2.0865c -1.2646,-0.0000 -2.1371,-0.6702 -2.1371 -1.8968c 0.0000,-0.4679 0.2023,-1.0116 0.6955 -1.4416c 0.3035,-0.2656 0.5691,-0.4932 0.8725 -0.7208l -0.2150,-0.1265 c -0.7334,-0.4552 -1.1002,-0.9484 -1.1002 -1.6186c 0.0000,-0.9231 0.8346,-1.6566 2.0612 -1.6566c 1.1760,-0.0000 1.8715,0.6449 1.8715 1.5048ZM 133.1096,323.5628 ZM 131.0863,329.1648 c 0.5438,-0.0000 1.4922,-0.2908 1.4922 -1.4922c 0.0000,-0.5691 -0.3541,-1.1381 -1.1002 -1.5933l -0.5564,-0.3414 c -1.0243,0.6829 -1.2519,1.5301 -1.2519 1.8842c 0.0000,1.0749 0.8725,1.5428 1.4163 1.5428Z"/></g><g stroke-linejoin="miter" stroke-opacity="0.6" fill-opacity="0.0" stroke="rgb(0,0,0)" stroke-width="1.270881017716461" fill="rgb(0,0,0)" stroke-linecap="butt" stroke-miterlimit="10.0"><path d="M 124.8204,310.6201 v 7.6253 "/></g><g stroke-linejoin="miter" stroke-opacity="1.0" fill-opacity="0.6" stroke="rgb(0,0,0)" fill-rule="evenodd" stroke-width="0.0" fill="rgb(0,0,0)" stroke-linecap="butt" stroke-miterlimit="10.0"><path d="M 90.4181,329.3672 ZM 93.8830,326.3828 h -2.8579 c -0.1138,-0.0000 -0.1897,-0.1012 -0.1897 -0.2150c 0.0000,-0.2023 0.1644,-0.4679 0.3161 -0.4679h 2.8958 c 0.1265,-0.0000 0.1770,0.1138 0.1770 0.2276c 0.0000,0.1391 -0.1770,0.4552 -0.3414 0.4552ZM 94.6291,329.3672 ZM 97.0065,323.3352 c -0.2403,-0.0000 -0.7967,0.2276 -1.0749 0.3541l -0.1517,-0.3920 c 1.1128,-0.5185 1.5428,-0.7840 2.1750 -1.2393h 0.2403 v 6.3607 c 0.0000,0.4552 0.0632,0.5817 0.4805 0.5817h 0.6576 c 0.0379,-0.0000 0.1012,0.0253 0.1012 0.1012v 0.2782 l -1.7324,-0.0253 l -1.7577,0.0253 v -0.2782 c 0.0126,-0.0379 0.0253,-0.1012 0.1012 -0.1012h 0.7587 c 0.4805,-0.0000 0.4805,-0.2150 0.4805 -0.5817v -4.3501 c 0.0000,-0.4299 0.0000,-0.7334 -0.2782 -0.7334ZM 100.1679,329.3672 ZM 100.8887,328.8487 c 0.0000,-0.3667 0.3035,-0.6702 0.6702 -0.6702c 0.3667,-0.0000 0.6702,0.3035 0.6702 0.6702c 0.0000,0.3667 -0.3035,0.6702 -0.6702 0.6702c -0.3667,-0.0000 -0.6702,-0.3035 -0.6702 -0.6702ZM 102.9373,329.3672 ZM 105.7066,322.5006 c -0.5438,-0.0000 -1.3404,0.5311 -1.3404 3.4775c 0.0000,1.0369 0.1897,3.1235 1.3025 3.1235c 0.2150,-0.0000 0.8220,-0.1391 1.0875 -1.1255c 0.1644,-0.6070 0.2529,-1.3657 0.2529 -2.4659c 0.0000,-1.6060 -0.4047,-2.5038 -0.7714 -2.8200c -0.1391,-0.1265 -0.3288,-0.1897 -0.5311 -0.1897ZM 105.7066,322.5006 ZM 105.6561,329.5189 c -1.3531,-0.0000 -2.2636,-1.7324 -2.2636 -3.6672c 0.0000,-2.3647 1.1255,-3.7937 2.3141 -3.7937c 0.5438,-0.0000 1.0875,0.3414 1.4542 0.8346c 0.5311,0.7082 0.8093,1.6566 0.8093 2.8453c 0.0000,2.8073 -1.3910,3.7810 -2.3141 3.7810Z"/></g><g stroke-linejoin="miter" stroke-opacity="0.6" fill-opacity="0.0" stroke="rgb(0,0,0)" stroke-width="1.270881017716461" fill="rgb(0,0,0)" stroke-linecap="butt" stroke-miterlimit="10.0"><path d="M 99.4028,310.6201 v 7.6253 "/></g><g stroke-linejoin="miter" stroke-opacity="0.0" fill-opacity="0.0" stroke="rgb(0,0,0)" stroke-width="0.0" fill="rgb(0,0,0)" stroke-linecap="butt" stroke-miterlimit="10.0"><path d="M 352.3429,310.6201 l -0.0000,-254.1762 h -254.1762 l -0.0000,254.1762 Z"/></g><g stroke-linejoin="miter" stroke-opacity="0.0" fill-opacity="1.0" stroke="rgb(0,0,0)" stroke-width="0.0" fill="rgb(255,255,255)" stroke-linecap="butt" stroke-miterlimit="10.0"><path d="M 352.3429,81.8615 l -0.0000,-25.4176 h -25.4176 l -0.0000,25.4176 Z"/></g><g stroke-linejoin="miter" stroke-opacity="0.0" fill-opacity="1.0" stroke="rgb(0,0,0)" stroke-width="0.0" fill="rgb(244,244,244)" stroke-linecap="butt" stroke-miterlimit="10.0"><path d="M 352.3429,107.2791 l -0.0000,-25.4176 h -25.4176 l -0.0000,25.4176 Z"/></g><g stroke-linejoin="miter" stroke-opacity="0.0" fill-opacity="1.0" stroke="rgb(0,0,0)" stroke-width="0.0" fill="rgb(231,231,231)" stroke-linecap="butt" stroke-miterlimit="10.0"><path d="M 352.3429,132.6967 l -0.0000,-25.4176 h -25.4176 l -0.0000,25.4176 Z"/></g><g stroke-linejoin="miter" stroke-opacity="0.0" fill-opacity="1.0" stroke="rgb(0,0,0)" stroke-width="0.0" fill="rgb(218,218,218)" stroke-linecap="butt" stroke-miterlimit="10.0"><path d="M 352.3429,158.1144 l -0.0000,-25.4176 h -25.4176 l -0.0000,25.4176 Z"/></g><g stroke-linejoin="miter" stroke-opacity="0.0" fill-opacity="1.0" stroke="rgb(0,0,0)" stroke-width="0.0" fill="rgb(204,204,204)" stroke-linecap="butt" stroke-miterlimit="10.0"><path d="M 352.3429,183.5320 l -0.0000,-25.4176 h -25.4176 l -0.0000,25.4176 Z"/></g><g stroke-linejoin="miter" stroke-opacity="0.0" fill-opacity="1.0" stroke="rgb(0,0,0)" stroke-width="0.0" fill="rgb(188,188,188)" stroke-linecap="butt" stroke-miterlimit="10.0"><path d="M 352.3429,208.9496 l -0.0000,-25.4176 h -25.4176 l -0.0000,25.4176 Z"/></g><g stroke-linejoin="miter" stroke-opacity="0.0" fill-opacity="1.0" stroke="rgb(0,0,0)" stroke-width="0.0" fill="rgb(171,171,171)" stroke-linecap="butt" stroke-miterlimit="10.0"><path d="M 352.3429,234.3672 l -0.0000,-25.4176 h -25.4176 l -0.0000,25.4176 Z"/></g><g stroke-linejoin="miter" stroke-opacity="0.0" fill-opacity="1.0" stroke="rgb(0,0,0)" stroke-width="0.0" fill="rgb(151,151,151)" stroke-linecap="butt" stroke-miterlimit="10.0"><path d="M 352.3429,259.7848 l -0.0000,-25.4176 h -25.4176 l -0.0000,25.4176 Z"/></g><g stroke-linejoin="miter" stroke-opacity="0.0" fill-opacity="1.0" stroke="rgb(0,0,0)" stroke-width="0.0" fill="rgb(126,126,126)" stroke-linecap="butt" stroke-miterlimit="10.0"><path d="M 352.3429,285.2025 l -0.0000,-25.4176 h -25.4176 l -0.0000,25.4176 Z"/></g><g stroke-linejoin="miter" stroke-opacity="0.0" fill-opacity="1.0" stroke="rgb(0,0,0)" stroke-width="0.0" fill="rgb(93,93,93)" stroke-linecap="butt" stroke-miterlimit="10.0"><path d="M 352.3429,310.6201 l -0.0000,-25.4176 h -25.4176 l -0.0000,25.4176 Z"/></g><g stroke-linejoin="miter" stroke-opacity="0.0" fill-opacity="1.0" stroke="rgb(0,0,0)" stroke-width="0.0" fill="rgb(221,221,221)" stroke-linecap="butt" stroke-miterlimit="10.0"><path d="M 326.9253,81.8615 l -0.0000,-25.4176 h -25.4176 l -0.0000,25.4176 Z"/></g><g stroke-linejoin="miter" stroke-opacity="0.0" fill-opacity="1.0" stroke="rgb(0,0,0)" stroke-width="0.0" fill="rgb(211,211,211)" stroke-linecap="butt" stroke-miterlimit="10.0"><path d="M 326.9253,107.2791 l -0.0000,-25.4176 h -25.4176 l -0.0000,25.4176 Z"/></g><g stroke-linejoin="miter" stroke-opacity="0.0" fill-opacity="1.0" stroke="rgb(0,0,0)" stroke-width="0.0" fill="rgb(199,199,199)" stroke-linecap="butt" stroke-miterlimit="10.0"><path d="M 326.9253,132.6967 l -0.0000,-25.4176 h -25.4176 l -0.0000,25.4176 Z"/></g><g stroke-linejoin="miter" stroke-opacity="0.0" fill-opacity="1.0" stroke="rgb(0,0,0)" stroke-width="0.0" fill="rgb(187,187,187)" stroke-linecap="butt" stroke-miterlimit="10.0"><path d="M 326.9253,158.1144 l -0.0000,-25.4176 h -25.4176 l -0.0000,25.4176 Z"/></g><g stroke-linejoin="miter" stroke-opacity="0.0" fill-opacity="1.0" stroke="rgb(0,0,0)" stroke-width="0.0" fill="rgb(173,173,173)" stroke-linecap="butt" stroke-miterlimit="10.0"><path d="M 326.9253,183.5320 l -0.0000,-25.4176 h -25.4176 l -0.0000,25.4176 Z"/></g><g stroke-linejoin="miter" stroke-opacity="0.0" fill-opacity="1.0" stroke="rgb(0,0,0)" stroke-width="0.0" fill="rgb(158,158,158)" stroke-linecap="butt" stroke-miterlimit="10.0"><path d="M 326.9253,208.9496 l -0.0000,-25.4176 h -25.4176 l -0.0000,25.4176 Z"/></g><g stroke-linejoin="miter" stroke-opacity="0.0" fill-opacity="1.0" stroke="rgb(0,0,0)" stroke-width="0.0" fill="rgb(140,140,140)" stroke-linecap="butt" stroke-miterlimit="10.0"><path d="M 326.9253,234.3672 l -0.0000,-25.4176 h -25.4176 l -0.0000,25.4176 Z"/></g><g stroke-linejoin="miter" stroke-opacity="0.0" fill-opacity="1.0" stroke="rgb(0,0,0)" stroke-width="0.0" fill="rgb(120,120,120)" stroke-linecap="butt" stroke-miterlimit="10.0"><path d="M 326.9253,259.7848 l -0.0000,-25.4176 h -25.4176 l -0.0000,25.4176 Z"/></g><g stroke-linejoin="miter" stroke-opacity="0.0" fill-opacity="1.0" stroke="rgb(0,0,0)" stroke-width="0.0" fill="rgb(93,93,93)" stroke-linecap="butt" stroke-miterlimit="10.0"><path d="M 326.9253,285.2025 l -0.0000,-25.4176 h -25.4176 l -0.0000,25.4176 Z"/></g><g stroke-linejoin="miter" stroke-opacity="0.0" fill-opacity="1.0" stroke="rgb(0,0,0)" stroke-width="0.0" fill="rgb(51,51,51)" stroke-linecap="butt" stroke-miterlimit="10.0"><path d="M 326.9253,310.6201 l -0.0000,-25.4176 h -25.4176 l -0.0000,25.4176 Z"/></g><g stroke-linejoin="miter" stroke-opacity="0.0" fill-opacity="1.0" stroke="rgb(0,0,0)" stroke-width="0.0" fill="rgb(187,187,187)" stroke-linecap="butt" stroke-miterlimit="10.0"><path d="M 301.5077,81.8615 l -0.0000,-25.4176 h -25.4176 l -0.0000,25.4176 Z"/></g><g stroke-linejoin="miter" stroke-opacity="0.0" fill-opacity="1.0" stroke="rgb(0,0,0)" stroke-width="0.0" fill="rgb(177,177,177)" stroke-linecap="butt" stroke-miterlimit="10.0"><path d="M 301.5077,107.2791 l -0.0000,-25.4176 h -25.4176 l -0.0000,25.4176 Z"/></g><g stroke-linejoin="miter" stroke-opacity="0.0" fill-opacity="1.0" stroke="rgb(0,0,0)" stroke-width="0.0" fill="rgb(167,167,167)" stroke-linecap="butt" stroke-miterlimit="10.0"><path d="M 301.5077,132.6967 l -0.0000,-25.4176 h -25.4176 l -0.0000,25.4176 Z"/></g><g stroke-linejoin="miter" stroke-opacity="0.0" fill-opacity="1.0" stroke="rgb(0,0,0)" stroke-width="0.0" fill="rgb(155,155,155)" stroke-linecap="butt" stroke-miterlimit="10.0"><path d="M 301.5077,158.1144 l -0.0000,-25.4176 h -25.4176 l -0.0000,25.4176 Z"/></g><g stroke-linejoin="miter" stroke-opacity="0.0" fill-opacity="1.0" stroke="rgb(0,0,0)" stroke-width="0.0" fill="rgb(143,143,143)" stroke-linecap="butt" stroke-miterlimit="10.0"><path d="M 301.5077,183.5320 l -0.0000,-25.4176 h -25.4176 l -0.0000,25.4176 Z"/></g><g stroke-linejoin="miter" stroke-opacity="0.0" fill-opacity="1.0" stroke="rgb(0,0,0)" stroke-width="0.0" fill="rgb(129,129,129)" stroke-linecap="butt" stroke-miterlimit="10.0"><path d="M 301.5077,208.9496 l -0.0000,-25.4176 h -25.4176 l -0.0000,25.4176 Z"/></g><g stroke-linejoin="miter" stroke-opacity="0.0" fill-opacity="1.0" stroke="rgb(0,0,0)" stroke-width="0.0" fill="rgb(113,113,113)" stroke-linecap="butt" stroke-miterlimit="10.0"><path d="M 301.5077,234.3672 l -0.0000,-25.4176 h -25.4176 l -0.0000,25.4176 Z"/></g><g stroke-linejoin="miter" stroke-opacity="0.0" fill-opacity="1.0" stroke="rgb(0,0,0)" stroke-width="0.0" fill="rgb(93,93,93)" stroke-linecap="butt" stroke-miterlimit="10.0"><path d="M 301.5077,259.7848 l -0.0000,-25.4176 h -25.4176 l -0.0000,25.4176 Z"/></g><g stroke-linejoin="miter" stroke-opacity="0.0" fill-opacity="1.0" stroke="rgb(0,0,0)" stroke-width="0.0" fill="rgb(66,66,66)" stroke-linecap="butt" stroke-miterlimit="10.0"><path d="M 301.5077,285.2025 l -0.0000,-25.4176 h -25.4176 l -0.0000,25.4176 Z"/></g><g stroke-linejoin="miter" stroke-opacity="0.0" fill-opacity="1.0" stroke="rgb(0,0,0)" stroke-width="0.0" fill="rgb(0,0,0)" stroke-linecap="butt" stroke-miterlimit="10.0"><path d="M 301.5077,310.6201 l -0.0000,-25.4176 h -25.4176 l -0.0000,25.4176 Z"/></g><g stroke-linejoin="miter" stroke-opacity="0.0" fill-opacity="1.0" stroke="rgb(0,0,0)" stroke-width="0.0" fill="rgb(151,151,151)" stroke-linecap="butt" stroke-miterlimit="10.0"><path d="M 276.0900,81.8615 l -0.0000,-25.4176 h -25.4176 l -0.0000,25.4176 Z"/></g><g stroke-linejoin="miter" stroke-opacity="0.0" fill-opacity="1.0" stroke="rgb(0,0,0)" stroke-width="0.0" fill="rgb(143,143,143)" stroke-linecap="butt" stroke-miterlimit="10.0"><path d="M 276.0900,107.2791 l -0.0000,-25.4176 h -25.4176 l -0.0000,25.4176 Z"/></g><g stroke-linejoin="miter" stroke-opacity="0.0" fill-opacity="1.0" stroke="rgb(0,0,0)" stroke-width="0.0" fill="rgb(135,135,135)" stroke-linecap="butt" stroke-miterlimit="10.0"><path d="M 276.0900,132.6967 l -0.0000,-25.4176 h -25.4176 l -0.0000,25.4176 Z"/></g><g stroke-linejoin="miter" stroke-opacity="0.0" fill-opacity="1.0" stroke="rgb(0,0,0)" stroke-width="0.0" fill="rgb(126,126,126)" stroke-linecap="butt" stroke-miterlimit="10.0"><path d="M 276.0900,158.1144 l -0.0000,-25.4176 h -25.4176 l -0.0000,25.4176 Z"/></g><g stroke-linejoin="miter" stroke-opacity="0.0" fill-opacity="1.0" stroke="rgb(0,0,0)" stroke-width="0.0" fill="rgb(116,116,116)" stroke-linecap="butt" stroke-miterlimit="10.0"><path d="M 276.0900,183.5320 l -0.0000,-25.4176 h -25.4176 l -0.0000,25.4176 Z"/></g><g stroke-linejoin="miter" stroke-opacity="0.0" fill-opacity="1.0" stroke="rgb(0,0,0)" stroke-width="0.0" fill="rgb(106,106,106)" stroke-linecap="butt" stroke-miterlimit="10.0"><path d="M 276.0900,208.9496 l -0.0000,-25.4176 h -25.4176 l -0.0000,25.4176 Z"/></g><g stroke-linejoin="miter" stroke-opacity="0.0" fill-opacity="1.0" stroke="rgb(0,0,0)" stroke-width="0.0" fill="rgb(93,93,93)" stroke-linecap="butt" stroke-miterlimit="10.0"><path d="M 276.0900,234.3672 l -0.0000,-25.4176 h -25.4176 l -0.0000,25.4176 Z"/></g><g stroke-linejoin="miter" stroke-opacity="0.0" fill-opacity="1.0" stroke="rgb(0,0,0)" stroke-width="0.0" fill="rgb(78,78,78)" stroke-linecap="butt" stroke-miterlimit="10.0"><path d="M 276.0900,259.7848 l -0.0000,-25.4176 h -25.4176 l -0.0000,25.4176 Z"/></g><g stroke-linejoin="miter" stroke-opacity="0.0" fill-opacity="1.0" stroke="rgb(0,0,0)" stroke-width="0.0" fill="rgb(59,59,59)" stroke-linecap="butt" stroke-miterlimit="10.0"><path d="M 276.0900,285.2025 l -0.0000,-25.4176 h -25.4176 l -0.0000,25.4176 Z"/></g><g stroke-linejoin="miter" stroke-opacity="0.0" fill-opacity="1.0" stroke="rgb(0,0,0)" stroke-width="0.0" fill="rgb(27,27,27)" stroke-linecap="butt" stroke-miterlimit="10.0"><path d="M 276.0900,310.6201 l -0.0000,-25.4176 h -25.4176 l -0.0000,25.4176 Z"/></g><g stroke-linejoin="miter" stroke-opacity="0.0" fill-opacity="1.0" stroke="rgb(0,0,0)" stroke-width="0.0" fill="rgb(113,113,113)" stroke-linecap="butt" stroke-miterlimit="10.0"><path d="M 250.6724,81.8615 l -0.0000,-25.4176 h -25.4176 l -0.0000,25.4176 Z"/></g><g stroke-linejoin="miter" stroke-opacity="0.0" fill-opacity="1.0" stroke="rgb(0,0,0)" stroke-width="0.0" fill="rgb(109,109,109)" stroke-linecap="butt" stroke-miterlimit="10.0"><path d="M 250.6724,107.2791 l -0.0000,-25.4176 h -25.4176 l -0.0000,25.4176 Z"/></g><g stroke-linejoin="miter" stroke-opacity="0.0" fill-opacity="1.0" stroke="rgb(0,0,0)" stroke-width="0.0" fill="rgb(106,106,106)" stroke-linecap="butt" stroke-miterlimit="10.0"><path d="M 250.6724,132.6967 l -0.0000,-25.4176 h -25.4176 l -0.0000,25.4176 Z"/></g><g stroke-linejoin="miter" stroke-opacity="0.0" fill-opacity="1.0" stroke="rgb(0,0,0)" stroke-width="0.0" fill="rgb(102,102,102)" stroke-linecap="butt" stroke-miterlimit="10.0"><path d="M 250.6724,158.1144 l -0.0000,-25.4176 h -25.4176 l -0.0000,25.4176 Z"/></g><g stroke-linejoin="miter" stroke-opacity="0.0" fill-opacity="1.0" stroke="rgb(0,0,0)" stroke-width="0.0" fill="rgb(98,98,98)" stroke-linecap="butt" stroke-miterlimit="10.0"><path d="M 250.6724,183.5320 l -0.0000,-25.4176 h -25.4176 l -0.0000,25.4176 Z"/></g><g stroke-linejoin="miter" stroke-opacity="0.0" fill-opacity="1.0" stroke="rgb(0,0,0)" stroke-width="0.0" fill="rgb(93,93,93)" stroke-linecap="butt" stroke-miterlimit="10.0"><path d="M 250.6724,208.9496 l -0.0000,-25.4176 h -25.4176 l -0.0000,25.4176 Z"/></g><g stroke-linejoin="miter" stroke-opacity="0.0" fill-opacity="1.0" stroke="rgb(0,0,0)" stroke-width="0.0" fill="rgb(89,89,89)" stroke-linecap="butt" stroke-miterlimit="10.0"><path d="M 250.6724,234.3672 l -0.0000,-25.4176 h -25.4176 l -0.0000,25.4176 Z"/></g><g stroke-linejoin="miter" stroke-opacity="0.0" fill-opacity="1.0" stroke="rgb(0,0,0)" stroke-width="0.0" fill="rgb(84,84,84)" stroke-linecap="butt" stroke-miterlimit="10.0"><path d="M 250.6724,259.7848 l -0.0000,-25.4176 h -25.4176 l -0.0000,25.4176 Z"/></g><g stroke-linejoin="miter" stroke-opacity="0.0" fill-opacity="1.0" stroke="rgb(0,0,0)" stroke-width="0.0" fill="rgb(78,78,78)" stroke-linecap="butt" stroke-miterlimit="10.0"><path d="M 250.6724,285.2025 l -0.0000,-25.4176 h -25.4176 l -0.0000,25.4176 Z"/></g><g stroke-linejoin="miter" stroke-opacity="0.0" fill-opacity="1.0" stroke="rgb(0,0,0)" stroke-width="0.0" fill="rgb(73,73,73)" stroke-linecap="butt" stroke-miterlimit="10.0"><path d="M 250.6724,310.6201 l -0.0000,-25.4176 h -25.4176 l -0.0000,25.4176 Z"/></g><g stroke-linejoin="miter" stroke-opacity="0.0" fill-opacity="1.0" stroke="rgb(0,0,0)" stroke-width="0.0" fill="rgb(73,73,73)" stroke-linecap="butt" stroke-miterlimit="10.0"><path d="M 225.2548,81.8615 l -0.0000,-25.4176 h -25.4176 l -0.0000,25.4176 Z"/></g><g stroke-linejoin="miter" stroke-opacity="0.0" fill-opacity="1.0" stroke="rgb(0,0,0)" stroke-width="0.0" fill="rgb(78,78,78)" stroke-linecap="butt" stroke-miterlimit="10.0"><path d="M 225.2548,107.2791 l -0.0000,-25.4176 h -25.4176 l -0.0000,25.4176 Z"/></g><g stroke-linejoin="miter" stroke-opacity="0.0" fill-opacity="1.0" stroke="rgb(0,0,0)" stroke-width="0.0" fill="rgb(84,84,84)" stroke-linecap="butt" stroke-miterlimit="10.0"><path d="M 225.2548,132.6967 l -0.0000,-25.4176 h -25.4176 l -0.0000,25.4176 Z"/></g><g stroke-linejoin="miter" stroke-opacity="0.0" fill-opacity="1.0" stroke="rgb(0,0,0)" stroke-width="0.0" fill="rgb(89,89,89)" stroke-linecap="butt" stroke-miterlimit="10.0"><path d="M 225.2548,158.1144 l -0.0000,-25.4176 h -25.4176 l -0.0000,25.4176 Z"/></g><g stroke-linejoin="miter" stroke-opacity="0.0" fill-opacity="1.0" stroke="rgb(0,0,0)" stroke-width="0.0" fill="rgb(93,93,93)" stroke-linecap="butt" stroke-miterlimit="10.0"><path d="M 225.2548,183.5320 l -0.0000,-25.4176 h -25.4176 l -0.0000,25.4176 Z"/></g><g stroke-linejoin="miter" stroke-opacity="0.0" fill-opacity="1.0" stroke="rgb(0,0,0)" stroke-width="0.0" fill="rgb(98,98,98)" stroke-linecap="butt" stroke-miterlimit="10.0"><path d="M 225.2548,208.9496 l -0.0000,-25.4176 h -25.4176 l -0.0000,25.4176 Z"/></g><g stroke-linejoin="miter" stroke-opacity="0.0" fill-opacity="1.0" stroke="rgb(0,0,0)" stroke-width="0.0" fill="rgb(102,102,102)" stroke-linecap="butt" stroke-miterlimit="10.0"><path d="M 225.2548,234.3672 l -0.0000,-25.4176 h -25.4176 l -0.0000,25.4176 Z"/></g><g stroke-linejoin="miter" stroke-opacity="0.0" fill-opacity="1.0" stroke="rgb(0,0,0)" stroke-width="0.0" fill="rgb(106,106,106)" stroke-linecap="butt" stroke-miterlimit="10.0"><path d="M 225.2548,259.7848 l -0.0000,-25.4176 h -25.4176 l -0.0000,25.4176 Z"/></g><g stroke-linejoin="miter" stroke-opacity="0.0" fill-opacity="1.0" stroke="rgb(0,0,0)" stroke-width="0.0" fill="rgb(109,109,109)" stroke-linecap="butt" stroke-miterlimit="10.0"><path d="M 225.2548,285.2025 l -0.0000,-25.4176 h -25.4176 l -0.0000,25.4176 Z"/></g><g stroke-linejoin="miter" stroke-opacity="0.0" fill-opacity="1.0" stroke="rgb(0,0,0)" stroke-width="0.0" fill="rgb(113,113,113)" stroke-linecap="butt" stroke-miterlimit="10.0"><path d="M 225.2548,310.6201 l -0.0000,-25.4176 h -25.4176 l -0.0000,25.4176 Z"/></g><g stroke-linejoin="miter" stroke-opacity="0.0" fill-opacity="1.0" stroke="rgb(0,0,0)" stroke-width="0.0" fill="rgb(27,27,27)" stroke-linecap="butt" stroke-miterlimit="10.0"><path d="M 199.8372,81.8615 l -0.0000,-25.4176 h -25.4176 l -0.0000,25.4176 Z"/></g><g stroke-linejoin="miter" stroke-opacity="0.0" fill-opacity="1.0" stroke="rgb(0,0,0)" stroke-width="0.0" fill="rgb(59,59,59)" stroke-linecap="butt" stroke-miterlimit="10.0"><path d="M 199.8372,107.2791 l -0.0000,-25.4176 h -25.4176 l -0.0000,25.4176 Z"/></g><g stroke-linejoin="miter" stroke-opacity="0.0" fill-opacity="1.0" stroke="rgb(0,0,0)" stroke-width="0.0" fill="rgb(78,78,78)" stroke-linecap="butt" stroke-miterlimit="10.0"><path d="M 199.8372,132.6967 l -0.0000,-25.4176 h -25.4176 l -0.0000,25.4176 Z"/></g><g stroke-linejoin="miter" stroke-opacity="0.0" fill-opacity="1.0" stroke="rgb(0,0,0)" stroke-width="0.0" fill="rgb(93,93,93)" stroke-linecap="butt" stroke-miterlimit="10.0"><path d="M 199.8372,158.1144 l -0.0000,-25.4176 h -25.4176 l -0.0000,25.4176 Z"/></g><g stroke-linejoin="miter" stroke-opacity="0.0" fill-opacity="1.0" stroke="rgb(0,0,0)" stroke-width="0.0" fill="rgb(106,106,106)" stroke-linecap="butt" stroke-miterlimit="10.0"><path d="M 199.8372,183.5320 l -0.0000,-25.4176 h -25.4176 l -0.0000,25.4176 Z"/></g><g stroke-linejoin="miter" stroke-opacity="0.0" fill-opacity="1.0" stroke="rgb(0,0,0)" stroke-width="0.0" fill="rgb(116,116,116)" stroke-linecap="butt" stroke-miterlimit="10.0"><path d="M 199.8372,208.9496 l -0.0000,-25.4176 h -25.4176 l -0.0000,25.4176 Z"/></g><g stroke-linejoin="miter" stroke-opacity="0.0" fill-opacity="1.0" stroke="rgb(0,0,0)" stroke-width="0.0" fill="rgb(126,126,126)" stroke-linecap="butt" stroke-miterlimit="10.0"><path d="M 199.8372,234.3672 l -0.0000,-25.4176 h -25.4176 l -0.0000,25.4176 Z"/></g><g stroke-linejoin="miter" stroke-opacity="0.0" fill-opacity="1.0" stroke="rgb(0,0,0)" stroke-width="0.0" fill="rgb(135,135,135)" stroke-linecap="butt" stroke-miterlimit="10.0"><path d="M 199.8372,259.7848 l -0.0000,-25.4176 h -25.4176 l -0.0000,25.4176 Z"/></g><g stroke-linejoin="miter" stroke-opacity="0.0" fill-opacity="1.0" stroke="rgb(0,0,0)" stroke-width="0.0" fill="rgb(143,143,143)" stroke-linecap="butt" stroke-miterlimit="10.0"><path d="M 199.8372,285.2025 l -0.0000,-25.4176 h -25.4176 l -0.0000,25.4176 Z"/></g><g stroke-linejoin="miter" stroke-opacity="0.0" fill-opacity="1.0" stroke="rgb(0,0,0)" stroke-width="0.0" fill="rgb(151,151,151)" stroke-linecap="butt" stroke-miterlimit="10.0"><path d="M 199.8372,310.6201 l -0.0000,-25.4176 h -25.4176 l -0.0000,25.4176 Z"/></g><g stroke-linejoin="miter" stroke-opacity="0.0" fill-opacity="1.0" stroke="rgb(0,0,0)" stroke-width="0.0" fill="rgb(0,0,0)" stroke-linecap="butt" stroke-miterlimit="10.0"><path d="M 174.4196,81.8615 l -0.0000,-25.4176 h -25.4176 l -0.0000,25.4176 Z"/></g><g stroke-linejoin="miter" stroke-opacity="0.0" fill-opacity="1.0" stroke="rgb(0,0,0)" stroke-width="0.0" fill="rgb(66,66,66)" stroke-linecap="butt" stroke-miterlimit="10.0"><path d="M 174.4196,107.2791 l -0.0000,-25.4176 h -25.4176 l -0.0000,25.4176 Z"/></g><g stroke-linejoin="miter" stroke-opacity="0.0" fill-opacity="1.0" stroke="rgb(0,0,0)" stroke-width="0.0" fill="rgb(93,93,93)" stroke-linecap="butt" stroke-miterlimit="10.0"><path d="M 174.4196,132.6967 l -0.0000,-25.4176 h -25.4176 l -0.0000,25.4176 Z"/></g><g stroke-linejoin="miter" stroke-opacity="0.0" fill-opacity="1.0" stroke="rgb(0,0,0)" stroke-width="0.0" fill="rgb(113,113,113)" stroke-linecap="butt" stroke-miterlimit="10.0"><path d="M 174.4196,158.1144 l -0.0000,-25.4176 h -25.4176 l -0.0000,25.4176 Z"/></g><g stroke-linejoin="miter" stroke-opacity="0.0" fill-opacity="1.0" stroke="rgb(0,0,0)" stroke-width="0.0" fill="rgb(129,129,129)" stroke-linecap="butt" stroke-miterlimit="10.0"><path d="M 174.4196,183.5320 l -0.0000,-25.4176 h -25.4176 l -0.0000,25.4176 Z"/></g><g stroke-linejoin="miter" stroke-opacity="0.0" fill-opacity="1.0" stroke="rgb(0,0,0)" stroke-width="0.0" fill="rgb(143,143,143)" stroke-linecap="butt" stroke-miterlimit="10.0"><path d="M 174.4196,208.9496 l -0.0000,-25.4176 h -25.4176 l -0.0000,25.4176 Z"/></g><g stroke-linejoin="miter" stroke-opacity="0.0" fill-opacity="1.0" stroke="rgb(0,0,0)" stroke-width="0.0" fill="rgb(155,155,155)" stroke-linecap="butt" stroke-miterlimit="10.0"><path d="M 174.4196,234.3672 l -0.0000,-25.4176 h -25.4176 l -0.0000,25.4176 Z"/></g><g stroke-linejoin="miter" stroke-opacity="0.0" fill-opacity="1.0" stroke="rgb(0,0,0)" stroke-width="0.0" fill="rgb(167,167,167)" stroke-linecap="butt" stroke-miterlimit="10.0"><path d="M 174.4196,259.7848 l -0.0000,-25.4176 h -25.4176 l -0.0000,25.4176 Z"/></g><g stroke-linejoin="miter" stroke-opacity="0.0" fill-opacity="1.0" stroke="rgb(0,0,0)" stroke-width="0.0" fill="rgb(177,177,177)" stroke-linecap="butt" stroke-miterlimit="10.0"><path d="M 174.4196,285.2025 l -0.0000,-25.4176 h -25.4176 l -0.0000,25.4176 Z"/></g><g stroke-linejoin="miter" stroke-opacity="0.0" fill-opacity="1.0" stroke="rgb(0,0,0)" stroke-width="0.0" fill="rgb(187,187,187)" stroke-linecap="butt" stroke-miterlimit="10.0"><path d="M 174.4196,310.6201 l -0.0000,-25.4176 h -25.4176 l -0.0000,25.4176 Z"/></g><g stroke-linejoin="miter" stroke-opacity="0.0" fill-opacity="1.0" stroke="rgb(0,0,0)" stroke-width="0.0" fill="rgb(51,51,51)" stroke-linecap="butt" stroke-miterlimit="10.0"><path d="M 149.0019,81.8615 l -0.0000,-25.4176 h -25.4176 l -0.0000,25.4176 Z"/></g><g stroke-linejoin="miter" stroke-opacity="0.0" fill-opacity="1.0" stroke="rgb(0,0,0)" stroke-width="0.0" fill="rgb(93,93,93)" stroke-linecap="butt" stroke-miterlimit="10.0"><path d="M 149.0019,107.2791 l -0.0000,-25.4176 h -25.4176 l -0.0000,25.4176 Z"/></g><g stroke-linejoin="miter" stroke-opacity="0.0" fill-opacity="1.0" stroke="rgb(0,0,0)" stroke-width="0.0" fill="rgb(120,120,120)" stroke-linecap="butt" stroke-miterlimit="10.0"><path d="M 149.0019,132.6967 l -0.0000,-25.4176 h -25.4176 l -0.0000,25.4176 Z"/></g><g stroke-linejoin="miter" stroke-opacity="0.0" fill-opacity="1.0" stroke="rgb(0,0,0)" stroke-width="0.0" fill="rgb(140,140,140)" stroke-linecap="butt" stroke-miterlimit="10.0"><path d="M 149.0019,158.1144 l -0.0000,-25.4176 h -25.4176 l -0.0000,25.4176 Z"/></g><g stroke-linejoin="miter" stroke-opacity="0.0" fill-opacity="1.0" stroke="rgb(0,0,0)" stroke-width="0.0" fill="rgb(158,158,158)" stroke-linecap="butt" stroke-miterlimit="10.0"><path d="M 149.0019,183.5320 l -0.0000,-25.4176 h -25.4176 l -0.0000,25.4176 Z"/></g><g stroke-linejoin="miter" stroke-opacity="0.0" fill-opacity="1.0" stroke="rgb(0,0,0)" stroke-width="0.0" fill="rgb(173,173,173)" stroke-linecap="butt" stroke-miterlimit="10.0"><path d="M 149.0019,208.9496 l -0.0000,-25.4176 h -25.4176 l -0.0000,25.4176 Z"/></g><g stroke-linejoin="miter" stroke-opacity="0.0" fill-opacity="1.0" stroke="rgb(0,0,0)" stroke-width="0.0" fill="rgb(187,187,187)" stroke-linecap="butt" stroke-miterlimit="10.0"><path d="M 149.0019,234.3672 l -0.0000,-25.4176 h -25.4176 l -0.0000,25.4176 Z"/></g><g stroke-linejoin="miter" stroke-opacity="0.0" fill-opacity="1.0" stroke="rgb(0,0,0)" stroke-width="0.0" fill="rgb(199,199,199)" stroke-linecap="butt" stroke-miterlimit="10.0"><path d="M 149.0019,259.7848 l -0.0000,-25.4176 h -25.4176 l -0.0000,25.4176 Z"/></g><g stroke-linejoin="miter" stroke-opacity="0.0" fill-opacity="1.0" stroke="rgb(0,0,0)" stroke-width="0.0" fill="rgb(211,211,211)" stroke-linecap="butt" stroke-miterlimit="10.0"><path d="M 149.0019,285.2025 l -0.0000,-25.4176 h -25.4176 l -0.0000,25.4176 Z"/></g><g stroke-linejoin="miter" stroke-opacity="0.0" fill-opacity="1.0" stroke="rgb(0,0,0)" stroke-width="0.0" fill="rgb(221,221,221)" stroke-linecap="butt" stroke-miterlimit="10.0"><path d="M 149.0019,310.6201 l -0.0000,-25.4176 h -25.4176 l -0.0000,25.4176 Z"/></g><g stroke-linejoin="miter" stroke-opacity="0.0" fill-opacity="1.0" stroke="rgb(0,0,0)" stroke-width="0.0" fill="rgb(93,93,93)" stroke-linecap="butt" stroke-miterlimit="10.0"><path d="M 123.5843,81.8615 l -0.0000,-25.4176 h -25.4176 l -0.0000,25.4176 Z"/></g><g stroke-linejoin="miter" stroke-opacity="0.0" fill-opacity="1.0" stroke="rgb(0,0,0)" stroke-width="0.0" fill="rgb(126,126,126)" stroke-linecap="butt" stroke-miterlimit="10.0"><path d="M 123.5843,107.2791 l -0.0000,-25.4176 h -25.4176 l -0.0000,25.4176 Z"/></g><g stroke-linejoin="miter" stroke-opacity="0.0" fill-opacity="1.0" stroke="rgb(0,0,0)" stroke-width="0.0" fill="rgb(151,151,151)" stroke-linecap="butt" stroke-miterlimit="10.0"><path d="M 123.5843,132.6967 l -0.0000,-25.4176 h -25.4176 l -0.0000,25.4176 Z"/></g><g stroke-linejoin="miter" stroke-opacity="0.0" fill-opacity="1.0" stroke="rgb(0,0,0)" stroke-width="0.0" fill="rgb(171,171,171)" stroke-linecap="butt" stroke-miterlimit="10.0"><path d="M 123.5843,158.1144 l -0.0000,-25.4176 h -25.4176 l -0.0000,25.4176 Z"/></g><g stroke-linejoin="miter" stroke-opacity="0.0" fill-opacity="1.0" stroke="rgb(0,0,0)" stroke-width="0.0" fill="rgb(188,188,188)" stroke-linecap="butt" stroke-miterlimit="10.0"><path d="M 123.5843,183.5320 l -0.0000,-25.4176 h -25.4176 l -0.0000,25.4176 Z"/></g><g stroke-linejoin="miter" stroke-opacity="0.0" fill-opacity="1.0" stroke="rgb(0,0,0)" stroke-width="0.0" fill="rgb(204,204,204)" stroke-linecap="butt" stroke-miterlimit="10.0"><path d="M 123.5843,208.9496 l -0.0000,-25.4176 h -25.4176 l -0.0000,25.4176 Z"/></g><g stroke-linejoin="miter" stroke-opacity="0.0" fill-opacity="1.0" stroke="rgb(0,0,0)" stroke-width="0.0" fill="rgb(218,218,218)" stroke-linecap="butt" stroke-miterlimit="10.0"><path d="M 123.5843,234.3672 l -0.0000,-25.4176 h -25.4176 l -0.0000,25.4176 Z"/></g><g stroke-linejoin="miter" stroke-opacity="0.0" fill-opacity="1.0" stroke="rgb(0,0,0)" stroke-width="0.0" fill="rgb(231,231,231)" stroke-linecap="butt" stroke-miterlimit="10.0"><path d="M 123.5843,259.7848 l -0.0000,-25.4176 h -25.4176 l -0.0000,25.4176 Z"/></g><g stroke-linejoin="miter" stroke-opacity="0.0" fill-opacity="1.0" stroke="rgb(0,0,0)" stroke-width="0.0" fill="rgb(244,244,244)" stroke-linecap="butt" stroke-miterlimit="10.0"><path d="M 123.5843,285.2025 l -0.0000,-25.4176 h -25.4176 l -0.0000,25.4176 Z"/></g><g stroke-linejoin="miter" stroke-opacity="0.0" fill-opacity="1.0" stroke="rgb(0,0,0)" stroke-width="0.0" fill="rgb(255,255,255)" stroke-linecap="butt" stroke-miterlimit="10.0"><path d="M 123.5843,310.6201 l -0.0000,-25.4176 h -25.4176 l -0.0000,25.4176 Z"/></g></svg>