<?xml version="1.0" encoding="UTF-8"?>
<!DOCTYPE svg PUBLIC "-//W3C//DTD SVG 1.1//EN"
    "http://www.w3.org/Graphics/SVG/1.1/DTD/svg11.dtd"><svg xmlns="http://www.w3.org/2000/svg" height="250.0000" stroke-opacity="1" viewBox="0 0 750 250" font-size="1" width="750.0000" xmlns:xlink="http://www.w3.org/1999/xlink" stroke="rgb(0,0,0)" version="1.1"><defs></defs><g stroke-linejoin="miter" stroke-opacity="0.0" fill-opacity="0.1" stroke="rgb(0,0,0)" stroke-width="0.0" fill="rgb(0,0,0)" stroke-linecap="butt" stroke-miterlimit="10.0"><path d="M 135.4336,197.5385 l -0.0000,-171.4444 h -3.4289 l -0.0000,171.4444 Z"/></g><g stroke-linejoin="miter" stroke-opacity="1.0" fill-opacity="0.6" stroke="rgb(0,0,0)" fill-rule="evenodd" stroke-width="0.0" fill="rgb(0,0,0)" stroke-linecap="butt" stroke-miterlimit="10.0"><path d="M 114.9839,48.3482 ZM 116.8519,43.7167 c -0.3668,-0.0000 -0.9041,0.3582 -0.9041 2.3456c 0.0000,0.6994 0.1279,2.1068 0.8785 2.1068c 0.1450,-0.0000 0.5544,-0.0938 0.7335 -0.7591c 0.1109,-0.4094 0.1706,-0.9212 0.1706 -1.6633c 0.0000,-1.0833 -0.2729,-1.6889 -0.5203 -1.9021c -0.0938,-0.0853 -0.2218,-0.1279 -0.3582 -0.1279ZM 116.8519,43.7167 ZM 116.8178,48.4506 c -0.9127,-0.0000 -1.5268,-1.1686 -1.5268 -2.4736c 0.0000,-1.5950 0.7591,-2.5589 1.5609 -2.5589c 0.3668,-0.0000 0.7335,0.2303 0.9809 0.5630c 0.3582,0.4777 0.5459,1.1174 0.5459 1.9192c 0.0000,1.8936 -0.9383,2.5503 -1.5609 2.5503ZM 118.7199,48.3482 ZM 119.2061,47.9985 c 0.0000,-0.2474 0.2047,-0.4521 0.4521 -0.4521c 0.2474,-0.0000 0.4521,0.2047 0.4521 0.4521c 0.0000,0.2474 -0.2047,0.4521 -0.4521 0.4521c -0.2474,-0.0000 -0.4521,-0.2047 -0.4521 -0.4521ZM 120.5879,48.3482 ZM 122.1914,44.2796 c -0.1621,-0.0000 -0.5374,0.1535 -0.7250 0.2388l -0.1024,-0.2644 c 0.7506,-0.3497 1.0406,-0.5288 1.4671 -0.8359h 0.1621 v 4.2904 c 0.0000,0.3071 0.0426,0.3924 0.3241 0.3924h 0.4435 c 0.0256,-0.0000 0.0682,0.0171 0.0682 0.0682v 0.1877 l -1.1686,-0.0171 l -1.1856,0.0171 v -0.1877 c 0.0085,-0.0256 0.0171,-0.0682 0.0682 -0.0682h 0.5118 c 0.3241,-0.0000 0.3241,-0.1450 0.3241 -0.3924v -2.9342 c 0.0000,-0.2900 0.0000,-0.4947 -0.1877 -0.4947ZM 124.3238,48.3482 ZM 126.1918,43.7167 c -0.3668,-0.0000 -0.9041,0.3582 -0.9041 2.3456c 0.0000,0.6994 0.1279,2.1068 0.8785 2.1068c 0.1450,-0.0000 0.5544,-0.0938 0.7335 -0.7591c 0.1109,-0.4094 0.1706,-0.9212 0.1706 -1.6633c 0.0000,-1.0833 -0.2729,-1.6889 -0.5203 -1.9021c -0.0938,-0.0853 -0.2218,-0.1279 -0.3582 -0.1279ZM 126.1918,43.7167 ZM 126.1577,48.4506 c -0.9127,-0.0000 -1.5268,-1.1686 -1.5268 -2.4736c 0.0000,-1.5950 0.7591,-2.5589 1.5609 -2.5589c 0.3668,-0.0000 0.7335,0.2303 0.9809 0.5630c 0.3582,0.4777 0.5459,1.1174 0.5459 1.9192c 0.0000,1.8936 -0.9383,2.5503 -1.5609 2.5503Z"/></g><g stroke-linejoin="miter" stroke-opacity="0.6" fill-opacity="0.0" stroke="rgb(0,0,0)" stroke-width="0.8572218165937673" fill="rgb(0,0,0)" stroke-linecap="butt" stroke-miterlimit="10.0"><path d="M 130.2903,45.9344 h 5.1433 "/></g><g stroke-linejoin="miter" stroke-opacity="1.0" fill-opacity="0.6" stroke="rgb(0,0,0)" fill-rule="evenodd" stroke-width="0.0" fill="rgb(0,0,0)" stroke-linecap="butt" stroke-miterlimit="10.0"><path d="M 115.0010,78.6691 ZM 116.8690,74.0375 c -0.3668,-0.0000 -0.9041,0.3582 -0.9041 2.3456c 0.0000,0.6994 0.1279,2.1068 0.8785 2.1068c 0.1450,-0.0000 0.5544,-0.0938 0.7335 -0.7591c 0.1109,-0.4094 0.1706,-0.9212 0.1706 -1.6633c 0.0000,-1.0833 -0.2729,-1.6889 -0.5203 -1.9021c -0.0938,-0.0853 -0.2218,-0.1279 -0.3582 -0.1279ZM 116.8690,74.0375 ZM 116.8349,78.7714 c -0.9127,-0.0000 -1.5268,-1.1686 -1.5268 -2.4736c 0.0000,-1.5950 0.7591,-2.5589 1.5609 -2.5589c 0.3668,-0.0000 0.7335,0.2303 0.9809 0.5630c 0.3582,0.4777 0.5459,1.1174 0.5459 1.9192c 0.0000,1.8936 -0.9383,2.5503 -1.5609 2.5503ZM 118.7369,78.6691 ZM 119.2231,78.3194 c 0.0000,-0.2474 0.2047,-0.4521 0.4521 -0.4521c 0.2474,-0.0000 0.4521,0.2047 0.4521 0.4521c 0.0000,0.2474 -0.2047,0.4521 -0.4521 0.4521c -0.2474,-0.0000 -0.4521,-0.2047 -0.4521 -0.4521ZM 120.6049,78.6691 ZM 122.4729,74.0375 c -0.3668,-0.0000 -0.9041,0.3582 -0.9041 2.3456c 0.0000,0.6994 0.1279,2.1068 0.8785 2.1068c 0.1450,-0.0000 0.5544,-0.0938 0.7335 -0.7591c 0.1109,-0.4094 0.1706,-0.9212 0.1706 -1.6633c 0.0000,-1.0833 -0.2729,-1.6889 -0.5203 -1.9021c -0.0938,-0.0853 -0.2218,-0.1279 -0.3582 -0.1279ZM 122.4729,74.0375 ZM 122.4388,78.7714 c -0.9127,-0.0000 -1.5268,-1.1686 -1.5268 -2.4736c 0.0000,-1.5950 0.7591,-2.5589 1.5609 -2.5589c 0.3668,-0.0000 0.7335,0.2303 0.9809 0.5630c 0.3582,0.4777 0.5459,1.1174 0.5459 1.9192c 0.0000,1.8936 -0.9383,2.5503 -1.5609 2.5503ZM 124.3409,78.6691 ZM 126.2344,73.9437 c -0.4862,-0.0000 -0.8018,0.3838 -0.8018 0.7591c 0.0000,0.2474 0.1024,0.5459 0.6141 0.8785l 0.2474,0.1535 c 0.2218,-0.1621 0.7421,-0.5544 0.7421 -0.9894c 0.0000,-0.3753 -0.2729,-0.8018 -0.8018 -0.8018ZM 126.2344,73.9437 ZM 127.5395,74.7540 c 0.0000,0.5203 -0.5885,0.9297 -0.9468 1.1686l 0.4947,0.3241 c 0.4179,0.2729 0.6312,0.6482 0.6312 1.1174c 0.0000,0.6141 -0.5032,1.4074 -1.5609 1.4074c -0.8530,-0.0000 -1.4415,-0.4521 -1.4415 -1.2794c 0.0000,-0.3156 0.1365,-0.6824 0.4691 -0.9724c 0.2047,-0.1791 0.3838,-0.3327 0.5885 -0.4862l -0.1450,-0.0853 c -0.4947,-0.3071 -0.7421,-0.6397 -0.7421 -1.0918c 0.0000,-0.6227 0.5630,-1.1174 1.3903 -1.1174c 0.7933,-0.0000 1.2624,0.4350 1.2624 1.0150ZM 127.5395,74.7540 ZM 126.1747,78.5326 c 0.3668,-0.0000 1.0065,-0.1962 1.0065 -1.0065c 0.0000,-0.3838 -0.2388,-0.7677 -0.7421 -1.0747l -0.3753,-0.2303 c -0.6909,0.4606 -0.8444,1.0321 -0.8444 1.2709c 0.0000,0.7250 0.5885,1.0406 0.9553 1.0406Z"/></g><g stroke-linejoin="miter" stroke-opacity="0.6" fill-opacity="0.0" stroke="rgb(0,0,0)" stroke-width="0.8572218165937673" fill="rgb(0,0,0)" stroke-linecap="butt" stroke-miterlimit="10.0"><path d="M 130.2903,76.2552 h 5.1433 "/></g><g stroke-linejoin="miter" stroke-opacity="1.0" fill-opacity="0.6" stroke="rgb(0,0,0)" fill-rule="evenodd" stroke-width="0.0" fill="rgb(0,0,0)" stroke-linecap="butt" stroke-miterlimit="10.0"><path d="M 114.9498,108.9899 ZM 116.8178,104.3583 c -0.3668,-0.0000 -0.9041,0.3582 -0.9041 2.3456c 0.0000,0.6994 0.1279,2.1068 0.8785 2.1068c 0.1450,-0.0000 0.5544,-0.0938 0.7335 -0.7591c 0.1109,-0.4094 0.1706,-0.9212 0.1706 -1.6633c 0.0000,-1.0833 -0.2729,-1.6889 -0.5203 -1.9021c -0.0938,-0.0853 -0.2218,-0.1279 -0.3582 -0.1279ZM 116.8178,104.3583 ZM 116.7837,109.0922 c -0.9127,-0.0000 -1.5268,-1.1686 -1.5268 -2.4736c 0.0000,-1.5950 0.7591,-2.5589 1.5609 -2.5589c 0.3668,-0.0000 0.7335,0.2303 0.9809 0.5630c 0.3582,0.4777 0.5459,1.1174 0.5459 1.9192c 0.0000,1.8936 -0.9383,2.5503 -1.5609 2.5503ZM 118.6858,108.9899 ZM 119.1720,108.6402 c 0.0000,-0.2474 0.2047,-0.4521 0.4521 -0.4521c 0.2474,-0.0000 0.4521,0.2047 0.4521 0.4521c 0.0000,0.2474 -0.2047,0.4521 -0.4521 0.4521c -0.2474,-0.0000 -0.4521,-0.2047 -0.4521 -0.4521ZM 120.5537,108.9899 ZM 122.4217,104.3583 c -0.3668,-0.0000 -0.9041,0.3582 -0.9041 2.3456c 0.0000,0.6994 0.1279,2.1068 0.8785 2.1068c 0.1450,-0.0000 0.5544,-0.0938 0.7335 -0.7591c 0.1109,-0.4094 0.1706,-0.9212 0.1706 -1.6633c 0.0000,-1.0833 -0.2729,-1.6889 -0.5203 -1.9021c -0.0938,-0.0853 -0.2218,-0.1279 -0.3582 -0.1279ZM 122.4217,104.3583 ZM 122.3876,109.0922 c -0.9127,-0.0000 -1.5268,-1.1686 -1.5268 -2.4736c 0.0000,-1.5950 0.7591,-2.5589 1.5609 -2.5589c 0.3668,-0.0000 0.7335,0.2303 0.9809 0.5630c 0.3582,0.4777 0.5459,1.1174 0.5459 1.9192c 0.0000,1.8936 -0.9383,2.5503 -1.5609 2.5503ZM 124.2897,108.9899 ZM 125.2791,106.7551 c -0.0085,0.0853 -0.0085,0.2132 -0.0085 0.2985c 0.0000,1.4330 0.6397,1.7912 1.0662 1.7912c 0.3924,-0.0000 0.8103,-0.3668 0.8103 -1.2538c 0.0000,-0.4009 -0.2047,-1.2197 -1.0235 -1.2197c -0.1791,-0.0000 -0.5032,0.0171 -0.8444 0.3838ZM 125.2791,106.7551 ZM 127.5139,104.2816 c -0.5544,0.0512 -1.0321,0.1962 -1.4415 0.5971c -0.3924,0.3838 -0.6738,0.9553 -0.7677 1.6377c 0.1962,-0.2388 0.6653,-0.4179 0.9894 -0.4179c 1.2624,-0.0000 1.4244,1.0406 1.4244 1.4330c 0.0000,0.5800 -0.2900,1.5609 -1.4671 1.5609c -0.6227,-0.0000 -1.5694,-0.3668 -1.5694 -2.0642c 0.0000,-0.7847 0.2644,-1.5524 0.8530 -2.1409c 0.5459,-0.5544 1.1174,-0.7847 1.9533 -0.8274Z"/></g><g stroke-linejoin="miter" stroke-opacity="0.6" fill-opacity="0.0" stroke="rgb(0,0,0)" stroke-width="0.8572218165937673" fill="rgb(0,0,0)" stroke-linecap="butt" stroke-miterlimit="10.0"><path d="M 130.2903,106.5760 h 5.1433 "/></g><g stroke-linejoin="miter" stroke-opacity="1.0" fill-opacity="0.6" stroke="rgb(0,0,0)" fill-rule="evenodd" stroke-width="0.0" fill="rgb(0,0,0)" stroke-linecap="butt" stroke-miterlimit="10.0"><path d="M 114.9072,139.3107 ZM 116.7751,134.6791 c -0.3668,-0.0000 -0.9041,0.3582 -0.9041 2.3456c 0.0000,0.6994 0.1279,2.1068 0.8785 2.1068c 0.1450,-0.0000 0.5544,-0.0938 0.7335 -0.7591c 0.1109,-0.4094 0.1706,-0.9212 0.1706 -1.6633c 0.0000,-1.0833 -0.2729,-1.6889 -0.5203 -1.9021c -0.0938,-0.0853 -0.2218,-0.1279 -0.3582 -0.1279ZM 116.7751,134.6791 ZM 116.7410,139.4130 c -0.9127,-0.0000 -1.5268,-1.1686 -1.5268 -2.4736c 0.0000,-1.5950 0.7591,-2.5589 1.5609 -2.5589c 0.3668,-0.0000 0.7335,0.2303 0.9809 0.5630c 0.3582,0.4777 0.5459,1.1174 0.5459 1.9192c 0.0000,1.8936 -0.9383,2.5503 -1.5609 2.5503ZM 118.6431,139.3107 ZM 119.1293,138.9610 c 0.0000,-0.2474 0.2047,-0.4521 0.4521 -0.4521c 0.2474,-0.0000 0.4521,0.2047 0.4521 0.4521c 0.0000,0.2474 -0.2047,0.4521 -0.4521 0.4521c -0.2474,-0.0000 -0.4521,-0.2047 -0.4521 -0.4521ZM 120.5111,139.3107 ZM 122.3791,134.6791 c -0.3668,-0.0000 -0.9041,0.3582 -0.9041 2.3456c 0.0000,0.6994 0.1279,2.1068 0.8785 2.1068c 0.1450,-0.0000 0.5544,-0.0938 0.7335 -0.7591c 0.1109,-0.4094 0.1706,-0.9212 0.1706 -1.6633c 0.0000,-1.0833 -0.2729,-1.6889 -0.5203 -1.9021c -0.0938,-0.0853 -0.2218,-0.1279 -0.3582 -0.1279ZM 122.3791,134.6791 ZM 122.3450,139.4130 c -0.9127,-0.0000 -1.5268,-1.1686 -1.5268 -2.4736c 0.0000,-1.5950 0.7591,-2.5589 1.5609 -2.5589c 0.3668,-0.0000 0.7335,0.2303 0.9809 0.5630c 0.3582,0.4777 0.5459,1.1174 0.5459 1.9192c 0.0000,1.8936 -0.9383,2.5503 -1.5609 2.5503ZM 124.2471,139.3107 ZM 126.4477,136.2827 c 0.0000,-0.0597 0.0085,-0.1279 0.0853 -0.1706c 0.0938,-0.0682 0.2474,-0.1450 0.3753 -0.1450c 0.1109,-0.0000 0.1194,0.0938 0.1194 0.2644v 1.3733 h 0.6909 l -0.0512,0.4009 h -0.6397 v 0.7080 c 0.0000,0.2388 0.0341,0.3582 0.2815 0.3582h 0.2303 c 0.0512,-0.0000 0.0597,0.0426 0.0597 0.0597v 0.1877 c 0.0000,-0.0000 -0.5459,-0.0171 -0.9041 -0.0171c -0.3241,-0.0000 -0.8274,0.0171 -0.8274 0.0171v -0.1877 c 0.0000,-0.0171 0.0085,-0.0597 0.0597 -0.0597h 0.2303 c 0.2644,-0.0000 0.2900,-0.1109 0.2900 -0.3582v -0.7080 h -1.6718 c -0.0341,-0.0000 -0.0512,-0.0171 -0.0768 -0.0512l -0.0682,-0.0938 l -0.1024,-0.1791 c -0.0085,-0.0000 -0.0085,-0.0085 -0.0085 -0.0171c 0.0000,-0.0085 0.0085,-0.0171 0.0171 -0.0256c 0.5544,-0.6141 1.5353,-2.5162 1.8424 -3.2156c 0.0085,-0.0341 0.0256,-0.0426 0.0597 -0.0426c 0.0085,-0.0000 0.1962,0.0768 0.2985 0.0938c -0.3838,1.0321 -1.0150,2.1409 -1.6377 3.1304h 1.3477 v -1.3221 Z"/></g><g stroke-linejoin="miter" stroke-opacity="0.6" fill-opacity="0.0" stroke="rgb(0,0,0)" stroke-width="0.8572218165937673" fill="rgb(0,0,0)" stroke-linecap="butt" stroke-miterlimit="10.0"><path d="M 130.2903,136.8968 h 5.1433 "/></g><g stroke-linejoin="miter" stroke-opacity="1.0" fill-opacity="0.6" stroke="rgb(0,0,0)" fill-rule="evenodd" stroke-width="0.0" fill="rgb(0,0,0)" stroke-linecap="butt" stroke-miterlimit="10.0"><path d="M 115.0863,169.6315 ZM 116.9543,164.9999 c -0.3668,-0.0000 -0.9041,0.3582 -0.9041 2.3456c 0.0000,0.6994 0.1279,2.1068 0.8785 2.1068c 0.1450,-0.0000 0.5544,-0.0938 0.7335 -0.7591c 0.1109,-0.4094 0.1706,-0.9212 0.1706 -1.6633c 0.0000,-1.0833 -0.2729,-1.6889 -0.5203 -1.9021c -0.0938,-0.0853 -0.2218,-0.1279 -0.3582 -0.1279ZM 116.9543,164.9999 ZM 116.9202,169.7339 c -0.9127,-0.0000 -1.5268,-1.1686 -1.5268 -2.4736c 0.0000,-1.5950 0.7591,-2.5589 1.5609 -2.5589c 0.3668,-0.0000 0.7335,0.2303 0.9809 0.5630c 0.3582,0.4777 0.5459,1.1174 0.5459 1.9192c 0.0000,1.8936 -0.9383,2.5503 -1.5609 2.5503ZM 118.8222,169.6315 ZM 119.3084,169.2818 c 0.0000,-0.2474 0.2047,-0.4521 0.4521 -0.4521c 0.2474,-0.0000 0.4521,0.2047 0.4521 0.4521c 0.0000,0.2474 -0.2047,0.4521 -0.4521 0.4521c -0.2474,-0.0000 -0.4521,-0.2047 -0.4521 -0.4521ZM 120.6902,169.6315 ZM 122.5582,164.9999 c -0.3668,-0.0000 -0.9041,0.3582 -0.9041 2.3456c 0.0000,0.6994 0.1279,2.1068 0.8785 2.1068c 0.1450,-0.0000 0.5544,-0.0938 0.7335 -0.7591c 0.1109,-0.4094 0.1706,-0.9212 0.1706 -1.6633c 0.0000,-1.0833 -0.2729,-1.6889 -0.5203 -1.9021c -0.0938,-0.0853 -0.2218,-0.1279 -0.3582 -0.1279ZM 122.5582,164.9999 ZM 122.5241,169.7339 c -0.9127,-0.0000 -1.5268,-1.1686 -1.5268 -2.4736c 0.0000,-1.5950 0.7591,-2.5589 1.5609 -2.5589c 0.3668,-0.0000 0.7335,0.2303 0.9809 0.5630c 0.3582,0.4777 0.5459,1.1174 0.5459 1.9192c 0.0000,1.8936 -0.9383,2.5503 -1.5609 2.5503ZM 124.4262,169.6315 ZM 124.9209,165.8529 c 0.0000,-0.4862 0.4691,-1.1515 1.3647 -1.1515c 0.6568,-0.0000 1.4244,0.2474 1.4244 1.2283c 0.0000,0.6482 -0.3327,0.9724 -0.7933 1.4159l -0.8103,0.7847 c -0.0426,0.0426 -0.6141,0.6056 -0.6141 1.0065h 1.4500 c 0.2900,-0.0000 0.4435,-0.1450 0.5630 -0.6141l 0.2132,0.0341 l -0.1706,1.0747 h -2.6356 c 0.0000,-0.4777 0.0768,-0.8444 0.8700 -1.6547l 0.5971,-0.5885 c 0.4777,-0.4862 0.6738,-0.9041 0.6738 -1.4244c 0.0000,-0.7762 -0.5288,-0.9980 -0.8188 -0.9980c -0.5885,-0.0000 -0.7506,0.3071 -0.7506 0.5118c 0.0000,0.0682 0.0171,0.1365 0.0341 0.1962c 0.0171,0.0597 0.0341,0.1194 0.0341 0.1877c 0.0000,0.2218 -0.1706,0.3071 -0.3071 0.3071c -0.1877,-0.0000 -0.3241,-0.1450 -0.3241 -0.3156Z"/></g><g stroke-linejoin="miter" stroke-opacity="0.6" fill-opacity="0.0" stroke="rgb(0,0,0)" stroke-width="0.8572218165937673" fill="rgb(0,0,0)" stroke-linecap="butt" stroke-miterlimit="10.0"><path d="M 130.2903,167.2176 h 5.1433 "/></g><g stroke-linejoin="miter" stroke-opacity="1.0" fill-opacity="0.6" stroke="rgb(0,0,0)" fill-rule="evenodd" stroke-width="0.0" fill="rgb(0,0,0)" stroke-linecap="butt" stroke-miterlimit="10.0"><path d="M 114.9839,199.9523 ZM 116.8519,195.3208 c -0.3668,-0.0000 -0.9041,0.3582 -0.9041 2.3456c 0.0000,0.6994 0.1279,2.1068 0.8785 2.1068c 0.1450,-0.0000 0.5544,-0.0938 0.7335 -0.7591c 0.1109,-0.4094 0.1706,-0.9212 0.1706 -1.6633c 0.0000,-1.0833 -0.2729,-1.6889 -0.5203 -1.9021c -0.0938,-0.0853 -0.2218,-0.1279 -0.3582 -0.1279ZM 116.8519,195.3208 ZM 116.8178,200.0547 c -0.9127,-0.0000 -1.5268,-1.1686 -1.5268 -2.4736c 0.0000,-1.5950 0.7591,-2.5589 1.5609 -2.5589c 0.3668,-0.0000 0.7335,0.2303 0.9809 0.5630c 0.3582,0.4777 0.5459,1.1174 0.5459 1.9192c 0.0000,1.8936 -0.9383,2.5503 -1.5609 2.5503ZM 118.7199,199.9523 ZM 119.2061,199.6026 c 0.0000,-0.2474 0.2047,-0.4521 0.4521 -0.4521c 0.2474,-0.0000 0.4521,0.2047 0.4521 0.4521c 0.0000,0.2474 -0.2047,0.4521 -0.4521 0.4521c -0.2474,-0.0000 -0.4521,-0.2047 -0.4521 -0.4521ZM 120.5879,199.9523 ZM 122.4558,195.3208 c -0.3668,-0.0000 -0.9041,0.3582 -0.9041 2.3456c 0.0000,0.6994 0.1279,2.1068 0.8785 2.1068c 0.1450,-0.0000 0.5544,-0.0938 0.7335 -0.7591c 0.1109,-0.4094 0.1706,-0.9212 0.1706 -1.6633c 0.0000,-1.0833 -0.2729,-1.6889 -0.5203 -1.9021c -0.0938,-0.0853 -0.2218,-0.1279 -0.3582 -0.1279ZM 122.4558,195.3208 ZM 122.4217,200.0547 c -0.9127,-0.0000 -1.5268,-1.1686 -1.5268 -2.4736c 0.0000,-1.5950 0.7591,-2.5589 1.5609 -2.5589c 0.3668,-0.0000 0.7335,0.2303 0.9809 0.5630c 0.3582,0.4777 0.5459,1.1174 0.5459 1.9192c 0.0000,1.8936 -0.9383,2.5503 -1.5609 2.5503ZM 124.3238,199.9523 ZM 126.1918,195.3208 c -0.3668,-0.0000 -0.9041,0.3582 -0.9041 2.3456c 0.0000,0.6994 0.1279,2.1068 0.8785 2.1068c 0.1450,-0.0000 0.5544,-0.0938 0.7335 -0.7591c 0.1109,-0.4094 0.1706,-0.9212 0.1706 -1.6633c 0.0000,-1.0833 -0.2729,-1.6889 -0.5203 -1.9021c -0.0938,-0.0853 -0.2218,-0.1279 -0.3582 -0.1279ZM 126.1918,195.3208 ZM 126.1577,200.0547 c -0.9127,-0.0000 -1.5268,-1.1686 -1.5268 -2.4736c 0.0000,-1.5950 0.7591,-2.5589 1.5609 -2.5589c 0.3668,-0.0000 0.7335,0.2303 0.9809 0.5630c 0.3582,0.4777 0.5459,1.1174 0.5459 1.9192c 0.0000,1.8936 -0.9383,2.5503 -1.5609 2.5503Z"/></g><g stroke-linejoin="miter" stroke-opacity="0.6" fill-opacity="0.0" stroke="rgb(0,0,0)" stroke-width="0.8572218165937673" fill="rgb(0,0,0)" stroke-linecap="butt" stroke-miterlimit="10.0"><path d="M 130.2903,197.5385 h 5.1433 "/></g><g stroke-linejoin="miter" stroke-opacity="0.0" fill-opacity="0.1" stroke="rgb(0,0,0)" stroke-width="0.0" fill="rgb(0,0,0)" stroke-linecap="butt" stroke-miterlimit="10.0"><path d="M 649.7667,202.2255 l -0.0000,-3.4289 h -514.3331 l -0.0000,3.4289 Z"/></g><g stroke-linejoin="miter" stroke-opacity="1.0" fill-opacity="0.6" stroke="rgb(0,0,0)" fill-rule="evenodd" stroke-width="0.0" fill="rgb(0,0,0)" stroke-linecap="butt" stroke-miterlimit="10.0"><path d="M 571.9546,211.4417 ZM 574.1552,208.4137 c 0.0000,-0.0597 0.0085,-0.1279 0.0853 -0.1706c 0.0938,-0.0682 0.2474,-0.1450 0.3753 -0.1450c 0.1109,-0.0000 0.1194,0.0938 0.1194 0.2644v 1.3733 h 0.6909 l -0.0512,0.4009 h -0.6397 v 0.7080 c 0.0000,0.2388 0.0341,0.3582 0.2815 0.3582h 0.2303 c 0.0512,-0.0000 0.0597,0.0426 0.0597 0.0597v 0.1877 c 0.0000,-0.0000 -0.5459,-0.0171 -0.9041 -0.0171c -0.3241,-0.0000 -0.8274,0.0171 -0.8274 0.0171v -0.1877 c 0.0000,-0.0171 0.0085,-0.0597 0.0597 -0.0597h 0.2303 c 0.2644,-0.0000 0.2900,-0.1109 0.2900 -0.3582v -0.7080 h -1.6718 c -0.0341,-0.0000 -0.0512,-0.0171 -0.0768 -0.0512l -0.0682,-0.0938 l -0.1024,-0.1791 c -0.0085,-0.0000 -0.0085,-0.0085 -0.0085 -0.0171c 0.0000,-0.0085 0.0085,-0.0171 0.0171 -0.0256c 0.5544,-0.6141 1.5353,-2.5162 1.8424 -3.2156c 0.0085,-0.0341 0.0256,-0.0426 0.0597 -0.0426c 0.0085,-0.0000 0.1962,0.0768 0.2985 0.0938c -0.3838,1.0321 -1.0150,2.1409 -1.6377 3.1304h 1.3477 v -1.3221 Z"/></g><g stroke-linejoin="miter" stroke-opacity="0.6" fill-opacity="0.0" stroke="rgb(0,0,0)" stroke-width="0.8572218165937673" fill="rgb(0,0,0)" stroke-linecap="butt" stroke-miterlimit="10.0"><path d="M 573.8268,198.7966 v 5.1433 "/></g><g stroke-linejoin="miter" stroke-opacity="1.0" fill-opacity="0.6" stroke="rgb(0,0,0)" fill-rule="evenodd" stroke-width="0.0" fill="rgb(0,0,0)" stroke-linecap="butt" stroke-miterlimit="10.0"><path d="M 482.4604,211.4417 ZM 482.9551,207.6631 c 0.0000,-0.4862 0.4691,-1.1515 1.3647 -1.1515c 0.6568,-0.0000 1.4244,0.2474 1.4244 1.2283c 0.0000,0.6482 -0.3327,0.9724 -0.7933 1.4159l -0.8103,0.7847 c -0.0426,0.0426 -0.6141,0.6056 -0.6141 1.0065h 1.4500 c 0.2900,-0.0000 0.4435,-0.1450 0.5630 -0.6141l 0.2132,0.0341 l -0.1706,1.0747 h -2.6356 c 0.0000,-0.4777 0.0768,-0.8444 0.8700 -1.6547l 0.5971,-0.5885 c 0.4777,-0.4862 0.6738,-0.9041 0.6738 -1.4244c 0.0000,-0.7762 -0.5288,-0.9980 -0.8188 -0.9980c -0.5885,-0.0000 -0.7506,0.3071 -0.7506 0.5118c 0.0000,0.0682 0.0171,0.1365 0.0341 0.1962c 0.0171,0.0597 0.0341,0.1194 0.0341 0.1877c 0.0000,0.2218 -0.1706,0.3071 -0.3071 0.3071c -0.1877,-0.0000 -0.3241,-0.1450 -0.3241 -0.3156Z"/></g><g stroke-linejoin="miter" stroke-opacity="0.6" fill-opacity="0.0" stroke="rgb(0,0,0)" stroke-width="0.8572218165937673" fill="rgb(0,0,0)" stroke-linecap="butt" stroke-miterlimit="10.0"><path d="M 484.3497,198.7966 v 5.1433 "/></g><g stroke-linejoin="miter" stroke-opacity="1.0" fill-opacity="0.6" stroke="rgb(0,0,0)" fill-rule="evenodd" stroke-width="0.0" fill="rgb(0,0,0)" stroke-linecap="butt" stroke-miterlimit="10.0"><path d="M 393.0217,211.4417 ZM 394.8897,206.8101 c -0.3668,-0.0000 -0.9041,0.3582 -0.9041 2.3456c 0.0000,0.6994 0.1279,2.1068 0.8785 2.1068c 0.1450,-0.0000 0.5544,-0.0938 0.7335 -0.7591c 0.1109,-0.4094 0.1706,-0.9212 0.1706 -1.6633c 0.0000,-1.0833 -0.2729,-1.6889 -0.5203 -1.9021c -0.0938,-0.0853 -0.2218,-0.1279 -0.3582 -0.1279ZM 394.8897,206.8101 ZM 394.8556,211.5440 c -0.9127,-0.0000 -1.5268,-1.1686 -1.5268 -2.4736c 0.0000,-1.5950 0.7591,-2.5589 1.5609 -2.5589c 0.3668,-0.0000 0.7335,0.2303 0.9809 0.5630c 0.3582,0.4777 0.5459,1.1174 0.5459 1.9192c 0.0000,1.8936 -0.9383,2.5503 -1.5609 2.5503Z"/></g><g stroke-linejoin="miter" stroke-opacity="0.6" fill-opacity="0.0" stroke="rgb(0,0,0)" stroke-width="0.8572218165937673" fill="rgb(0,0,0)" stroke-linecap="butt" stroke-miterlimit="10.0"><path d="M 394.8726,198.7966 v 5.1433 "/></g><g stroke-linejoin="miter" stroke-opacity="1.0" fill-opacity="0.6" stroke="rgb(0,0,0)" fill-rule="evenodd" stroke-width="0.0" fill="rgb(0,0,0)" stroke-linecap="butt" stroke-miterlimit="10.0"><path d="M 302.1884,211.4417 ZM 304.5255,209.4287 h -1.9277 c -0.0768,-0.0000 -0.1279,-0.0682 -0.1279 -0.1450c 0.0000,-0.1365 0.1109,-0.3156 0.2132 -0.3156h 1.9533 c 0.0853,-0.0000 0.1194,0.0768 0.1194 0.1535c 0.0000,0.0938 -0.1194,0.3071 -0.2303 0.3071ZM 305.0288,211.4417 ZM 305.5235,207.6631 c 0.0000,-0.4862 0.4691,-1.1515 1.3647 -1.1515c 0.6568,-0.0000 1.4244,0.2474 1.4244 1.2283c 0.0000,0.6482 -0.3327,0.9724 -0.7933 1.4159l -0.8103,0.7847 c -0.0426,0.0426 -0.6141,0.6056 -0.6141 1.0065h 1.4500 c 0.2900,-0.0000 0.4435,-0.1450 0.5630 -0.6141l 0.2132,0.0341 l -0.1706,1.0747 h -2.6356 c 0.0000,-0.4777 0.0768,-0.8444 0.8700 -1.6547l 0.5971,-0.5885 c 0.4777,-0.4862 0.6738,-0.9041 0.6738 -1.4244c 0.0000,-0.7762 -0.5288,-0.9980 -0.8188 -0.9980c -0.5885,-0.0000 -0.7506,0.3071 -0.7506 0.5118c 0.0000,0.0682 0.0171,0.1365 0.0341 0.1962c 0.0171,0.0597 0.0341,0.1194 0.0341 0.1877c 0.0000,0.2218 -0.1706,0.3071 -0.3071 0.3071c -0.1877,-0.0000 -0.3241,-0.1450 -0.3241 -0.3156Z"/></g><g stroke-linejoin="miter" stroke-opacity="0.6" fill-opacity="0.0" stroke="rgb(0,0,0)" stroke-width="0.8572218165937673" fill="rgb(0,0,0)" stroke-linecap="butt" stroke-miterlimit="10.0"><path d="M 305.3955,198.7966 v 5.1433 "/></g><g stroke-linejoin="miter" stroke-opacity="1.0" fill-opacity="0.6" stroke="rgb(0,0,0)" fill-rule="evenodd" stroke-width="0.0" fill="rgb(0,0,0)" stroke-linecap="butt" stroke-miterlimit="10.0"><path d="M 212.6217,211.4417 ZM 214.9588,209.4287 h -1.9277 c -0.0768,-0.0000 -0.1279,-0.0682 -0.1279 -0.1450c 0.0000,-0.1365 0.1109,-0.3156 0.2132 -0.3156h 1.9533 c 0.0853,-0.0000 0.1194,0.0768 0.1194 0.1535c 0.0000,0.0938 -0.1194,0.3071 -0.2303 0.3071ZM 215.4621,211.4417 ZM 217.6627,208.4137 c 0.0000,-0.0597 0.0085,-0.1279 0.0853 -0.1706c 0.0938,-0.0682 0.2474,-0.1450 0.3753 -0.1450c 0.1109,-0.0000 0.1194,0.0938 0.1194 0.2644v 1.3733 h 0.6909 l -0.0512,0.4009 h -0.6397 v 0.7080 c 0.0000,0.2388 0.0341,0.3582 0.2815 0.3582h 0.2303 c 0.0512,-0.0000 0.0597,0.0426 0.0597 0.0597v 0.1877 c 0.0000,-0.0000 -0.5459,-0.0171 -0.9041 -0.0171c -0.3241,-0.0000 -0.8274,0.0171 -0.8274 0.0171v -0.1877 c 0.0000,-0.0171 0.0085,-0.0597 0.0597 -0.0597h 0.2303 c 0.2644,-0.0000 0.2900,-0.1109 0.2900 -0.3582v -0.7080 h -1.6718 c -0.0341,-0.0000 -0.0512,-0.0171 -0.0768 -0.0512l -0.0682,-0.0938 l -0.1024,-0.1791 c -0.0085,-0.0000 -0.0085,-0.0085 -0.0085 -0.0171c 0.0000,-0.0085 0.0085,-0.0171 0.0171 -0.0256c 0.5544,-0.6141 1.5353,-2.5162 1.8424 -3.2156c 0.0085,-0.0341 0.0256,-0.0426 0.0597 -0.0426c 0.0085,-0.0000 0.1962,0.0768 0.2985 0.0938c -0.3838,1.0321 -1.0150,2.1409 -1.6377 3.1304h 1.3477 v -1.3221 Z"/></g><g stroke-linejoin="miter" stroke-opacity="0.6" fill-opacity="0.0" stroke="rgb(0,0,0)" stroke-width="0.8572218165937673" fill="rgb(0,0,0)" stroke-linecap="butt" stroke-miterlimit="10.0"><path d="M 215.9184,198.7966 v 5.1433 "/></g><g stroke-linejoin="miter" stroke-opacity="0.0" fill-opacity="0.0" stroke="rgb(0,0,0)" stroke-width="0.0" fill="rgb(0,0,0)" stroke-linecap="butt" stroke-miterlimit="10.0"><path d="M 649.7667,198.7966 l -0.0000,-171.4444 h -514.3331 l -0.0000,171.4444 Z"/></g><g stroke-linejoin="miter" stroke-opacity="0.0" fill-opacity="0.4" stroke="rgb(0,0,0)" stroke-width="2.571665449781302" fill="rgb(85,85,85)" stroke-linecap="butt" stroke-miterlimit="10.0"><path d="M 649.7667,198.7966 l -0.0000,-0.4806 h -44.7386 l -0.0000,0.4806 Z"/></g><g stroke-linejoin="miter" stroke-opacity="0.0" fill-opacity="0.4" stroke="rgb(0,0,0)" stroke-width="2.571665449781302" fill="rgb(85,85,85)" stroke-linecap="butt" stroke-miterlimit="10.0"><path d="M 605.0281,198.7966 l -0.0000,-0.0000 h -14.1619 l -0.0000,0.0000 Z"/></g><g stroke-linejoin="miter" stroke-opacity="0.0" fill-opacity="0.4" stroke="rgb(0,0,0)" stroke-width="2.571665449781302" fill="rgb(85,85,85)" stroke-linecap="butt" stroke-miterlimit="10.0"><path d="M 590.8663,198.7966 l -0.0000,-6.0725 h -14.1619 l -0.0000,6.0725 Z"/></g><g stroke-linejoin="miter" stroke-opacity="0.0" fill-opacity="0.4" stroke="rgb(0,0,0)" stroke-width="2.571665449781302" fill="rgb(85,85,85)" stroke-linecap="butt" stroke-miterlimit="10.0"><path d="M 576.7044,198.7966 l -0.0000,-9.1087 h -14.1619 l -0.0000,9.1087 Z"/></g><g stroke-linejoin="miter" stroke-opacity="0.0" fill-opacity="0.4" stroke="rgb(0,0,0)" stroke-width="2.571665449781302" fill="rgb(85,85,85)" stroke-linecap="butt" stroke-miterlimit="10.0"><path d="M 562.5425,198.7966 l -0.0000,-6.0725 h -14.1619 l -0.0000,6.0725 Z"/></g><g stroke-linejoin="miter" stroke-opacity="0.0" fill-opacity="0.4" stroke="rgb(0,0,0)" stroke-width="2.571665449781302" fill="rgb(85,85,85)" stroke-linecap="butt" stroke-miterlimit="10.0"><path d="M 548.3807,198.7966 l -0.0000,-4.5543 h -14.1619 l -0.0000,4.5543 Z"/></g><g stroke-linejoin="miter" stroke-opacity="0.0" fill-opacity="0.4" stroke="rgb(0,0,0)" stroke-width="2.571665449781302" fill="rgb(85,85,85)" stroke-linecap="butt" stroke-miterlimit="10.0"><path d="M 534.2188,198.7966 l -0.0000,-10.6268 h -14.1619 l -0.0000,10.6268 Z"/></g><g stroke-linejoin="miter" stroke-opacity="0.0" fill-opacity="0.4" stroke="rgb(0,0,0)" stroke-width="2.571665449781302" fill="rgb(85,85,85)" stroke-linecap="butt" stroke-miterlimit="10.0"><path d="M 520.0569,198.7966 l -0.0000,-31.8804 h -14.1619 l -0.0000,31.8804 Z"/></g><g stroke-linejoin="miter" stroke-opacity="0.0" fill-opacity="0.4" stroke="rgb(0,0,0)" stroke-width="2.571665449781302" fill="rgb(85,85,85)" stroke-linecap="butt" stroke-miterlimit="10.0"><path d="M 505.8951,198.7966 l -0.0000,-28.8442 h -14.1619 l -0.0000,28.8442 Z"/></g><g stroke-linejoin="miter" stroke-opacity="0.0" fill-opacity="0.4" stroke="rgb(0,0,0)" stroke-width="2.571665449781302" fill="rgb(85,85,85)" stroke-linecap="butt" stroke-miterlimit="10.0"><path d="M 491.7332,198.7966 l -0.0000,-53.1341 h -14.1619 l -0.0000,53.1341 Z"/></g><g stroke-linejoin="miter" stroke-opacity="0.0" fill-opacity="0.4" stroke="rgb(0,0,0)" stroke-width="2.571665449781302" fill="rgb(85,85,85)" stroke-linecap="butt" stroke-miterlimit="10.0"><path d="M 477.5713,198.7966 l -0.0000,-56.1703 h -14.1619 l -0.0000,56.1703 Z"/></g><g stroke-linejoin="miter" stroke-opacity="0.0" fill-opacity="0.4" stroke="rgb(0,0,0)" stroke-width="2.571665449781302" fill="rgb(85,85,85)" stroke-linecap="butt" stroke-miterlimit="10.0"><path d="M 463.4095,198.7966 l -0.0000,-98.6775 h -14.1619 l -0.0000,98.6775 Z"/></g><g stroke-linejoin="miter" stroke-opacity="0.0" fill-opacity="0.4" stroke="rgb(0,0,0)" stroke-width="2.571665449781302" fill="rgb(85,85,85)" stroke-linecap="butt" stroke-miterlimit="10.0"><path d="M 449.2476,198.7966 l -0.0000,-89.5688 h -14.1619 l -0.0000,89.5688 Z"/></g><g stroke-linejoin="miter" stroke-opacity="0.0" fill-opacity="0.4" stroke="rgb(0,0,0)" stroke-width="2.571665449781302" fill="rgb(85,85,85)" stroke-linecap="butt" stroke-miterlimit="10.0"><path d="M 435.0857,198.7966 l -0.0000,-115.3768 h -14.1619 l -0.0000,115.3768 Z"/></g><g stroke-linejoin="miter" stroke-opacity="0.0" fill-opacity="0.4" stroke="rgb(0,0,0)" stroke-width="2.571665449781302" fill="rgb(85,85,85)" stroke-linecap="butt" stroke-miterlimit="10.0"><path d="M 420.9239,198.7966 l -0.0000,-110.8225 h -14.1619 l -0.0000,110.8225 Z"/></g><g stroke-linejoin="miter" stroke-opacity="0.0" fill-opacity="0.4" stroke="rgb(0,0,0)" stroke-width="2.571665449781302" fill="rgb(85,85,85)" stroke-linecap="butt" stroke-miterlimit="10.0"><path d="M 406.7620,198.7966 l -0.0000,-119.9312 h -14.1619 l -0.0000,119.9312 Z"/></g><g stroke-linejoin="miter" stroke-opacity="0.0" fill-opacity="0.4" stroke="rgb(0,0,0)" stroke-width="2.571665449781302" fill="rgb(85,85,85)" stroke-linecap="butt" stroke-miterlimit="10.0"><path d="M 392.6001,198.7966 l -0.0000,-141.1848 h -14.1619 l -0.0000,141.1848 Z"/></g><g stroke-linejoin="miter" stroke-opacity="0.0" fill-opacity="0.4" stroke="rgb(0,0,0)" stroke-width="2.571665449781302" fill="rgb(85,85,85)" stroke-linecap="butt" stroke-miterlimit="10.0"><path d="M 378.4383,198.7966 l -0.0000,-121.4493 h -14.1619 l -0.0000,121.4493 Z"/></g><g stroke-linejoin="miter" stroke-opacity="0.0" fill-opacity="0.4" stroke="rgb(0,0,0)" stroke-width="2.571665449781302" fill="rgb(85,85,85)" stroke-linecap="butt" stroke-miterlimit="10.0"><path d="M 364.2764,198.7966 l -0.0000,-91.0869 h -14.1619 l -0.0000,91.0869 Z"/></g><g stroke-linejoin="miter" stroke-opacity="0.0" fill-opacity="0.4" stroke="rgb(0,0,0)" stroke-width="2.571665449781302" fill="rgb(85,85,85)" stroke-linecap="butt" stroke-miterlimit="10.0"><path d="M 350.1145,198.7966 l -0.0000,-88.0507 h -14.1619 l -0.0000,88.0507 Z"/></g><g stroke-linejoin="miter" stroke-opacity="0.0" fill-opacity="0.4" stroke="rgb(0,0,0)" stroke-width="2.571665449781302" fill="rgb(85,85,85)" stroke-linecap="butt" stroke-miterlimit="10.0"><path d="M 335.9527,198.7966 l -0.0000,-88.0507 h -14.1619 l -0.0000,88.0507 Z"/></g><g stroke-linejoin="miter" stroke-opacity="0.0" fill-opacity="0.4" stroke="rgb(0,0,0)" stroke-width="2.571665449781302" fill="rgb(85,85,85)" stroke-linecap="butt" stroke-miterlimit="10.0"><path d="M 321.7908,198.7966 l -0.0000,-85.0145 h -14.1619 l -0.0000,85.0145 Z"/></g><g stroke-linejoin="miter" stroke-opacity="0.0" fill-opacity="0.4" stroke="rgb(0,0,0)" stroke-width="2.571665449781302" fill="rgb(85,85,85)" stroke-linecap="butt" stroke-miterlimit="10.0"><path d="M 307.6289,198.7966 l -0.0000,-44.0254 h -14.1619 l -0.0000,44.0254 Z"/></g><g stroke-linejoin="miter" stroke-opacity="0.0" fill-opacity="0.4" stroke="rgb(0,0,0)" stroke-width="2.571665449781302" fill="rgb(85,85,85)" stroke-linecap="butt" stroke-miterlimit="10.0"><path d="M 293.4671,198.7966 l -0.0000,-28.8442 h -14.1619 l -0.0000,28.8442 Z"/></g><g stroke-linejoin="miter" stroke-opacity="0.0" fill-opacity="0.4" stroke="rgb(0,0,0)" stroke-width="2.571665449781302" fill="rgb(85,85,85)" stroke-linecap="butt" stroke-miterlimit="10.0"><path d="M 279.3052,198.7966 l -0.0000,-27.3261 h -14.1619 l -0.0000,27.3261 Z"/></g><g stroke-linejoin="miter" stroke-opacity="0.0" fill-opacity="0.4" stroke="rgb(0,0,0)" stroke-width="2.571665449781302" fill="rgb(85,85,85)" stroke-linecap="butt" stroke-miterlimit="10.0"><path d="M 265.1433,198.7966 l -0.0000,-22.7717 h -14.1619 l -0.0000,22.7717 Z"/></g><g stroke-linejoin="miter" stroke-opacity="0.0" fill-opacity="0.4" stroke="rgb(0,0,0)" stroke-width="2.571665449781302" fill="rgb(85,85,85)" stroke-linecap="butt" stroke-miterlimit="10.0"><path d="M 250.9815,198.7966 l -0.0000,-18.2174 h -14.1619 l -0.0000,18.2174 Z"/></g><g stroke-linejoin="miter" stroke-opacity="0.0" fill-opacity="0.4" stroke="rgb(0,0,0)" stroke-width="2.571665449781302" fill="rgb(85,85,85)" stroke-linecap="butt" stroke-miterlimit="10.0"><path d="M 236.8196,198.7966 l -0.0000,-12.1449 h -14.1619 l -0.0000,12.1449 Z"/></g><g stroke-linejoin="miter" stroke-opacity="0.0" fill-opacity="0.4" stroke="rgb(0,0,0)" stroke-width="2.571665449781302" fill="rgb(85,85,85)" stroke-linecap="butt" stroke-miterlimit="10.0"><path d="M 222.6577,198.7966 l -0.0000,-3.0362 h -14.1619 l -0.0000,3.0362 Z"/></g><g stroke-linejoin="miter" stroke-opacity="0.0" fill-opacity="0.4" stroke="rgb(0,0,0)" stroke-width="2.571665449781302" fill="rgb(85,85,85)" stroke-linecap="butt" stroke-miterlimit="10.0"><path d="M 208.4959,198.7966 l -0.0000,-3.0362 h -14.1619 l -0.0000,3.0362 Z"/></g><g stroke-linejoin="miter" stroke-opacity="0.0" fill-opacity="0.4" stroke="rgb(0,0,0)" stroke-width="2.571665449781302" fill="rgb(85,85,85)" stroke-linecap="butt" stroke-miterlimit="10.0"><path d="M 194.3340,198.7966 l -0.0000,-0.0000 h -14.1619 l -0.0000,0.0000 Z"/></g><g stroke-linejoin="miter" stroke-opacity="0.0" fill-opacity="0.4" stroke="rgb(0,0,0)" stroke-width="2.571665449781302" fill="rgb(85,85,85)" stroke-linecap="butt" stroke-miterlimit="10.0"><path d="M 180.1721,198.7966 l -0.0000,-0.4806 h -44.7386 l -0.0000,0.4806 Z"/></g><g stroke-linejoin="miter" stroke-opacity="0.4" fill-opacity="0.5" stroke="rgb(85,85,85)" stroke-width="2.571665449781302" fill="rgb(93,165,218)" stroke-linecap="butt" stroke-miterlimit="10.0"><path d="M 575.9303,198.7966 l -0.0000,-0.0000 h -44.7386 l -0.0000,0.0000 Z"/></g><g stroke-linejoin="miter" stroke-opacity="0.4" fill-opacity="0.5" stroke="rgb(85,85,85)" stroke-width="2.571665449781302" fill="rgb(93,165,218)" stroke-linecap="butt" stroke-miterlimit="10.0"><path d="M 531.1918,198.7966 l -0.0000,-3.0344 h -10.3547 l -0.0000,3.0344 Z"/></g><g stroke-linejoin="miter" stroke-opacity="0.4" fill-opacity="0.5" stroke="rgb(85,85,85)" stroke-width="2.571665449781302" fill="rgb(93,165,218)" stroke-linecap="butt" stroke-miterlimit="10.0"><path d="M 520.8370,198.7966 l -0.0000,-3.0344 h -10.3547 l -0.0000,3.0344 Z"/></g><g stroke-linejoin="miter" stroke-opacity="0.4" fill-opacity="0.5" stroke="rgb(85,85,85)" stroke-width="2.571665449781302" fill="rgb(93,165,218)" stroke-linecap="butt" stroke-miterlimit="10.0"><path d="M 510.4823,198.7966 l -0.0000,-4.5516 h -10.3547 l -0.0000,4.5516 Z"/></g><g stroke-linejoin="miter" stroke-opacity="0.4" fill-opacity="0.5" stroke="rgb(85,85,85)" stroke-width="2.571665449781302" fill="rgb(93,165,218)" stroke-linecap="butt" stroke-miterlimit="10.0"><path d="M 500.1275,198.7966 l -0.0000,-10.6204 h -10.3547 l -0.0000,10.6204 Z"/></g><g stroke-linejoin="miter" stroke-opacity="0.4" fill-opacity="0.5" stroke="rgb(85,85,85)" stroke-width="2.571665449781302" fill="rgb(93,165,218)" stroke-linecap="butt" stroke-miterlimit="10.0"><path d="M 489.7728,198.7966 l -0.0000,-22.7581 h -10.3547 l -0.0000,22.7581 Z"/></g><g stroke-linejoin="miter" stroke-opacity="0.4" fill-opacity="0.5" stroke="rgb(85,85,85)" stroke-width="2.571665449781302" fill="rgb(93,165,218)" stroke-linecap="butt" stroke-miterlimit="10.0"><path d="M 479.4181,198.7966 l -0.0000,-31.8613 h -10.3547 l -0.0000,31.8613 Z"/></g><g stroke-linejoin="miter" stroke-opacity="0.4" fill-opacity="0.5" stroke="rgb(85,85,85)" stroke-width="2.571665449781302" fill="rgb(93,165,218)" stroke-linecap="butt" stroke-miterlimit="10.0"><path d="M 469.0633,198.7966 l -0.0000,-56.1366 h -10.3547 l -0.0000,56.1366 Z"/></g><g stroke-linejoin="miter" stroke-opacity="0.4" fill-opacity="0.5" stroke="rgb(85,85,85)" stroke-width="2.571665449781302" fill="rgb(93,165,218)" stroke-linecap="butt" stroke-miterlimit="10.0"><path d="M 458.7086,198.7966 l -0.0000,-48.5506 h -10.3547 l -0.0000,48.5506 Z"/></g><g stroke-linejoin="miter" stroke-opacity="0.4" fill-opacity="0.5" stroke="rgb(85,85,85)" stroke-width="2.571665449781302" fill="rgb(93,165,218)" stroke-linecap="butt" stroke-miterlimit="10.0"><path d="M 448.3539,198.7966 l -0.0000,-95.5840 h -10.3547 l -0.0000,95.5840 Z"/></g><g stroke-linejoin="miter" stroke-opacity="0.4" fill-opacity="0.5" stroke="rgb(85,85,85)" stroke-width="2.571665449781302" fill="rgb(93,165,218)" stroke-linecap="butt" stroke-miterlimit="10.0"><path d="M 437.9991,198.7966 l -0.0000,-92.5496 h -10.3547 l -0.0000,92.5496 Z"/></g><g stroke-linejoin="miter" stroke-opacity="0.4" fill-opacity="0.5" stroke="rgb(85,85,85)" stroke-width="2.571665449781302" fill="rgb(93,165,218)" stroke-linecap="butt" stroke-miterlimit="10.0"><path d="M 427.6444,198.7966 l -0.0000,-112.2733 h -10.3547 l -0.0000,112.2733 Z"/></g><g stroke-linejoin="miter" stroke-opacity="0.4" fill-opacity="0.5" stroke="rgb(85,85,85)" stroke-width="2.571665449781302" fill="rgb(93,165,218)" stroke-linecap="butt" stroke-miterlimit="10.0"><path d="M 417.2896,198.7966 l -0.0000,-118.3421 h -10.3547 l -0.0000,118.3421 Z"/></g><g stroke-linejoin="miter" stroke-opacity="0.4" fill-opacity="0.5" stroke="rgb(85,85,85)" stroke-width="2.571665449781302" fill="rgb(93,165,218)" stroke-linecap="butt" stroke-miterlimit="10.0"><path d="M 406.9349,198.7966 l -0.0000,-171.4444 h -10.3547 l -0.0000,171.4444 Z"/></g><g stroke-linejoin="miter" stroke-opacity="0.4" fill-opacity="0.5" stroke="rgb(85,85,85)" stroke-width="2.571665449781302" fill="rgb(93,165,218)" stroke-linecap="butt" stroke-miterlimit="10.0"><path d="M 396.5802,198.7966 l -0.0000,-133.5142 h -10.3547 l -0.0000,133.5142 Z"/></g><g stroke-linejoin="miter" stroke-opacity="0.4" fill-opacity="0.5" stroke="rgb(85,85,85)" stroke-width="2.571665449781302" fill="rgb(93,165,218)" stroke-linecap="butt" stroke-miterlimit="10.0"><path d="M 386.2254,198.7966 l -0.0000,-112.2733 h -10.3547 l -0.0000,112.2733 Z"/></g><g stroke-linejoin="miter" stroke-opacity="0.4" fill-opacity="0.5" stroke="rgb(85,85,85)" stroke-width="2.571665449781302" fill="rgb(93,165,218)" stroke-linecap="butt" stroke-miterlimit="10.0"><path d="M 375.8707,198.7966 l -0.0000,-110.7561 h -10.3547 l -0.0000,110.7561 Z"/></g><g stroke-linejoin="miter" stroke-opacity="0.4" fill-opacity="0.5" stroke="rgb(85,85,85)" stroke-width="2.571665449781302" fill="rgb(93,165,218)" stroke-linecap="butt" stroke-miterlimit="10.0"><path d="M 365.5160,198.7966 l -0.0000,-110.7561 h -10.3547 l -0.0000,110.7561 Z"/></g><g stroke-linejoin="miter" stroke-opacity="0.4" fill-opacity="0.5" stroke="rgb(85,85,85)" stroke-width="2.571665449781302" fill="rgb(93,165,218)" stroke-linecap="butt" stroke-miterlimit="10.0"><path d="M 355.1612,198.7966 l -0.0000,-91.0324 h -10.3547 l -0.0000,91.0324 Z"/></g><g stroke-linejoin="miter" stroke-opacity="0.4" fill-opacity="0.5" stroke="rgb(85,85,85)" stroke-width="2.571665449781302" fill="rgb(93,165,218)" stroke-linecap="butt" stroke-miterlimit="10.0"><path d="M 344.8065,198.7966 l -0.0000,-62.2055 h -10.3547 l -0.0000,62.2055 Z"/></g><g stroke-linejoin="miter" stroke-opacity="0.4" fill-opacity="0.5" stroke="rgb(85,85,85)" stroke-width="2.571665449781302" fill="rgb(93,165,218)" stroke-linecap="butt" stroke-miterlimit="10.0"><path d="M 334.4518,198.7966 l -0.0000,-40.9646 h -10.3547 l -0.0000,40.9646 Z"/></g><g stroke-linejoin="miter" stroke-opacity="0.4" fill-opacity="0.5" stroke="rgb(85,85,85)" stroke-width="2.571665449781302" fill="rgb(93,165,218)" stroke-linecap="butt" stroke-miterlimit="10.0"><path d="M 324.0970,198.7966 l -0.0000,-25.7925 h -10.3547 l -0.0000,25.7925 Z"/></g><g stroke-linejoin="miter" stroke-opacity="0.4" fill-opacity="0.5" stroke="rgb(85,85,85)" stroke-width="2.571665449781302" fill="rgb(93,165,218)" stroke-linecap="butt" stroke-miterlimit="10.0"><path d="M 313.7423,198.7966 l -0.0000,-16.6893 h -10.3547 l -0.0000,16.6893 Z"/></g><g stroke-linejoin="miter" stroke-opacity="0.4" fill-opacity="0.5" stroke="rgb(85,85,85)" stroke-width="2.571665449781302" fill="rgb(93,165,218)" stroke-linecap="butt" stroke-miterlimit="10.0"><path d="M 303.3875,198.7966 l -0.0000,-22.7581 h -10.3547 l -0.0000,22.7581 Z"/></g><g stroke-linejoin="miter" stroke-opacity="0.4" fill-opacity="0.5" stroke="rgb(85,85,85)" stroke-width="2.571665449781302" fill="rgb(93,165,218)" stroke-linecap="butt" stroke-miterlimit="10.0"><path d="M 293.0328,198.7966 l -0.0000,-9.1032 h -10.3547 l -0.0000,9.1032 Z"/></g><g stroke-linejoin="miter" stroke-opacity="0.4" fill-opacity="0.5" stroke="rgb(85,85,85)" stroke-width="2.571665449781302" fill="rgb(93,165,218)" stroke-linecap="butt" stroke-miterlimit="10.0"><path d="M 282.6781,198.7966 l -0.0000,-7.5860 h -10.3547 l -0.0000,7.5860 Z"/></g><g stroke-linejoin="miter" stroke-opacity="0.4" fill-opacity="0.5" stroke="rgb(85,85,85)" stroke-width="2.571665449781302" fill="rgb(93,165,218)" stroke-linecap="butt" stroke-miterlimit="10.0"><path d="M 272.3233,198.7966 l -0.0000,-1.5172 h -10.3547 l -0.0000,1.5172 Z"/></g><g stroke-linejoin="miter" stroke-opacity="0.4" fill-opacity="0.5" stroke="rgb(85,85,85)" stroke-width="2.571665449781302" fill="rgb(93,165,218)" stroke-linecap="butt" stroke-miterlimit="10.0"><path d="M 261.9686,198.7966 l -0.0000,-0.0000 h -10.3547 l -0.0000,0.0000 Z"/></g><g stroke-linejoin="miter" stroke-opacity="0.4" fill-opacity="0.5" stroke="rgb(85,85,85)" stroke-width="2.571665449781302" fill="rgb(93,165,218)" stroke-linecap="butt" stroke-miterlimit="10.0"><path d="M 251.6139,198.7966 l -0.0000,-0.0000 h -10.3547 l -0.0000,0.0000 Z"/></g><g stroke-linejoin="miter" stroke-opacity="0.4" fill-opacity="0.5" stroke="rgb(85,85,85)" stroke-width="2.571665449781302" fill="rgb(93,165,218)" stroke-linecap="butt" stroke-miterlimit="10.0"><path d="M 241.2591,198.7966 l -0.0000,-0.0000 h -10.3547 l -0.0000,0.0000 Z"/></g><g stroke-linejoin="miter" stroke-opacity="0.4" fill-opacity="0.5" stroke="rgb(85,85,85)" stroke-width="2.571665449781302" fill="rgb(93,165,218)" stroke-linecap="butt" stroke-miterlimit="10.0"><path d="M 230.9044,198.7966 l -0.0000,-0.0000 h -10.3547 l -0.0000,0.0000 Z"/></g><g stroke-linejoin="miter" stroke-opacity="0.4" fill-opacity="0.5" stroke="rgb(85,85,85)" stroke-width="2.571665449781302" fill="rgb(93,165,218)" stroke-linecap="butt" stroke-miterlimit="10.0"><path d="M 220.5497,198.7966 l -0.0000,-0.3512 h -44.7386 l -0.0000,0.3512 Z"/></g></svg>