<?xml version="1.0" encoding="UTF-8"?>
<!DOCTYPE svg PUBLIC "-//W3C//DTD SVG 1.1//EN"
    "http://www.w3.org/Graphics/SVG/1.1/DTD/svg11.dtd"><svg xmlns="http://www.w3.org/2000/svg" height="250.0000" stroke-opacity="1" viewBox="0 0 750 250" font-size="1" width="750.0000" xmlns:xlink="http://www.w3.org/1999/xlink" stroke="rgb(0,0,0)" version="1.1"><defs></defs><g stroke-linejoin="miter" stroke-opacity="0.0" fill-opacity="0.1" stroke="rgb(0,0,0)" stroke-width="0.0" fill="rgb(0,0,0)" stroke-linecap="butt" stroke-miterlimit="10.0"><path d="M 133.0052,197.5385 l -0.0000,-171.4444 h -3.4289 l -0.0000,171.4444 Z"/></g><g stroke-linejoin="miter" stroke-opacity="1.0" fill-opacity="0.6" stroke="rgb(0,0,0)" fill-rule="evenodd" stroke-width="0.0" fill="rgb(0,0,0)" stroke-linecap="butt" stroke-miterlimit="10.0"><path d="M 116.2915,31.1229 ZM 116.7862,27.3443 c 0.0000,-0.4862 0.4691,-1.1515 1.3647 -1.1515c 0.6568,-0.0000 1.4244,0.2474 1.4244 1.2283c 0.0000,0.6482 -0.3327,0.9724 -0.7933 1.4159l -0.8103,0.7847 c -0.0426,0.0426 -0.6141,0.6056 -0.6141 1.0065h 1.4500 c 0.2900,-0.0000 0.4435,-0.1450 0.5630 -0.6141l 0.2132,0.0341 l -0.1706,1.0747 h -2.6356 c 0.0000,-0.4777 0.0768,-0.8444 0.8700 -1.6547l 0.5971,-0.5885 c 0.4777,-0.4862 0.6738,-0.9041 0.6738 -1.4244c 0.0000,-0.7762 -0.5288,-0.9980 -0.8188 -0.9980c -0.5885,-0.0000 -0.7506,0.3071 -0.7506 0.5118c 0.0000,0.0682 0.0171,0.1365 0.0341 0.1962c 0.0171,0.0597 0.0341,0.1194 0.0341 0.1877c 0.0000,0.2218 -0.1706,0.3071 -0.3071 0.3071c -0.1877,-0.0000 -0.3241,-0.1450 -0.3241 -0.3156ZM 120.0275,31.1229 ZM 120.5137,30.7732 c 0.0000,-0.2474 0.2047,-0.4521 0.4521 -0.4521c 0.2474,-0.0000 0.4521,0.2047 0.4521 0.4521c 0.0000,0.2474 -0.2047,0.4521 -0.4521 0.4521c -0.2474,-0.0000 -0.4521,-0.2047 -0.4521 -0.4521ZM 121.8954,31.1229 ZM 123.7634,26.4913 c -0.3668,-0.0000 -0.9041,0.3582 -0.9041 2.3456c 0.0000,0.6994 0.1279,2.1068 0.8785 2.1068c 0.1450,-0.0000 0.5544,-0.0938 0.7335 -0.7591c 0.1109,-0.4094 0.1706,-0.9212 0.1706 -1.6633c 0.0000,-1.0833 -0.2729,-1.6889 -0.5203 -1.9021c -0.0938,-0.0853 -0.2218,-0.1279 -0.3582 -0.1279ZM 123.7634,26.4913 ZM 123.7293,31.2252 c -0.9127,-0.0000 -1.5268,-1.1686 -1.5268 -2.4736c 0.0000,-1.5950 0.7591,-2.5589 1.5609 -2.5589c 0.3668,-0.0000 0.7335,0.2303 0.9809 0.5630c 0.3582,0.4777 0.5459,1.1174 0.5459 1.9192c 0.0000,1.8936 -0.9383,2.5503 -1.5609 2.5503Z"/></g><g stroke-linejoin="miter" stroke-opacity="0.6" fill-opacity="0.0" stroke="rgb(0,0,0)" stroke-width="0.8572218165937673" fill="rgb(0,0,0)" stroke-linecap="butt" stroke-miterlimit="10.0"><path d="M 127.8619,28.7090 h 5.1433 "/></g><g stroke-linejoin="miter" stroke-opacity="1.0" fill-opacity="0.6" stroke="rgb(0,0,0)" fill-rule="evenodd" stroke-width="0.0" fill="rgb(0,0,0)" stroke-linecap="butt" stroke-miterlimit="10.0"><path d="M 116.3086,48.0058 ZM 117.9121,43.9372 c -0.1621,-0.0000 -0.5374,0.1535 -0.7250 0.2388l -0.1024,-0.2644 c 0.7506,-0.3497 1.0406,-0.5288 1.4671 -0.8359h 0.1621 v 4.2904 c 0.0000,0.3071 0.0426,0.3924 0.3241 0.3924h 0.4435 c 0.0256,-0.0000 0.0682,0.0171 0.0682 0.0682v 0.1877 l -1.1686,-0.0171 l -1.1856,0.0171 v -0.1877 c 0.0085,-0.0256 0.0171,-0.0682 0.0682 -0.0682h 0.5118 c 0.3241,-0.0000 0.3241,-0.1450 0.3241 -0.3924v -2.9342 c 0.0000,-0.2900 0.0000,-0.4947 -0.1877 -0.4947ZM 120.0445,48.0058 ZM 120.5307,47.6561 c 0.0000,-0.2474 0.2047,-0.4521 0.4521 -0.4521c 0.2474,-0.0000 0.4521,0.2047 0.4521 0.4521c 0.0000,0.2474 -0.2047,0.4521 -0.4521 0.4521c -0.2474,-0.0000 -0.4521,-0.2047 -0.4521 -0.4521ZM 121.9125,48.0058 ZM 123.8061,43.2804 c -0.4862,-0.0000 -0.8018,0.3838 -0.8018 0.7591c 0.0000,0.2474 0.1024,0.5459 0.6141 0.8785l 0.2474,0.1535 c 0.2218,-0.1621 0.7421,-0.5544 0.7421 -0.9894c 0.0000,-0.3753 -0.2729,-0.8018 -0.8018 -0.8018ZM 123.8061,43.2804 ZM 125.1111,44.0907 c 0.0000,0.5203 -0.5885,0.9297 -0.9468 1.1686l 0.4947,0.3241 c 0.4179,0.2729 0.6312,0.6482 0.6312 1.1174c 0.0000,0.6141 -0.5032,1.4074 -1.5609 1.4074c -0.8530,-0.0000 -1.4415,-0.4521 -1.4415 -1.2794c 0.0000,-0.3156 0.1365,-0.6824 0.4691 -0.9724c 0.2047,-0.1791 0.3838,-0.3327 0.5885 -0.4862l -0.1450,-0.0853 c -0.4947,-0.3071 -0.7421,-0.6397 -0.7421 -1.0918c 0.0000,-0.6227 0.5630,-1.1174 1.3903 -1.1174c 0.7933,-0.0000 1.2624,0.4350 1.2624 1.0150ZM 125.1111,44.0907 ZM 123.7464,47.8693 c 0.3668,-0.0000 1.0065,-0.1962 1.0065 -1.0065c 0.0000,-0.3838 -0.2388,-0.7677 -0.7421 -1.0747l -0.3753,-0.2303 c -0.6909,0.4606 -0.8444,1.0321 -0.8444 1.2709c 0.0000,0.7250 0.5885,1.0406 0.9553 1.0406Z"/></g><g stroke-linejoin="miter" stroke-opacity="0.6" fill-opacity="0.0" stroke="rgb(0,0,0)" stroke-width="0.8572218165937673" fill="rgb(0,0,0)" stroke-linecap="butt" stroke-miterlimit="10.0"><path d="M 127.8619,45.5919 h 5.1433 "/></g><g stroke-linejoin="miter" stroke-opacity="1.0" fill-opacity="0.6" stroke="rgb(0,0,0)" fill-rule="evenodd" stroke-width="0.0" fill="rgb(0,0,0)" stroke-linecap="butt" stroke-miterlimit="10.0"><path d="M 116.2574,64.8888 ZM 117.8610,60.8202 c -0.1621,-0.0000 -0.5374,0.1535 -0.7250 0.2388l -0.1024,-0.2644 c 0.7506,-0.3497 1.0406,-0.5288 1.4671 -0.8359h 0.1621 v 4.2904 c 0.0000,0.3071 0.0426,0.3924 0.3241 0.3924h 0.4435 c 0.0256,-0.0000 0.0682,0.0171 0.0682 0.0682v 0.1877 l -1.1686,-0.0171 l -1.1856,0.0171 v -0.1877 c 0.0085,-0.0256 0.0171,-0.0682 0.0682 -0.0682h 0.5118 c 0.3241,-0.0000 0.3241,-0.1450 0.3241 -0.3924v -2.9342 c 0.0000,-0.2900 0.0000,-0.4947 -0.1877 -0.4947ZM 119.9934,64.8888 ZM 120.4795,64.5390 c 0.0000,-0.2474 0.2047,-0.4521 0.4521 -0.4521c 0.2474,-0.0000 0.4521,0.2047 0.4521 0.4521c 0.0000,0.2474 -0.2047,0.4521 -0.4521 0.4521c -0.2474,-0.0000 -0.4521,-0.2047 -0.4521 -0.4521ZM 121.8613,64.8888 ZM 122.8508,62.6540 c -0.0085,0.0853 -0.0085,0.2132 -0.0085 0.2985c 0.0000,1.4330 0.6397,1.7912 1.0662 1.7912c 0.3924,-0.0000 0.8103,-0.3668 0.8103 -1.2538c 0.0000,-0.4009 -0.2047,-1.2197 -1.0235 -1.2197c -0.1791,-0.0000 -0.5032,0.0171 -0.8444 0.3838ZM 122.8508,62.6540 ZM 125.0855,60.1804 c -0.5544,0.0512 -1.0321,0.1962 -1.4415 0.5971c -0.3924,0.3838 -0.6738,0.9553 -0.7677 1.6377c 0.1962,-0.2388 0.6653,-0.4179 0.9894 -0.4179c 1.2624,-0.0000 1.4244,1.0406 1.4244 1.4330c 0.0000,0.5800 -0.2900,1.5609 -1.4671 1.5609c -0.6227,-0.0000 -1.5694,-0.3668 -1.5694 -2.0642c 0.0000,-0.7847 0.2644,-1.5524 0.8530 -2.1409c 0.5459,-0.5544 1.1174,-0.7847 1.9533 -0.8274Z"/></g><g stroke-linejoin="miter" stroke-opacity="0.6" fill-opacity="0.0" stroke="rgb(0,0,0)" stroke-width="0.8572218165937673" fill="rgb(0,0,0)" stroke-linecap="butt" stroke-miterlimit="10.0"><path d="M 127.8619,62.4749 h 5.1433 "/></g><g stroke-linejoin="miter" stroke-opacity="1.0" fill-opacity="0.6" stroke="rgb(0,0,0)" fill-rule="evenodd" stroke-width="0.0" fill="rgb(0,0,0)" stroke-linecap="butt" stroke-miterlimit="10.0"><path d="M 116.2148,81.7717 ZM 117.8183,77.7031 c -0.1621,-0.0000 -0.5374,0.1535 -0.7250 0.2388l -0.1024,-0.2644 c 0.7506,-0.3497 1.0406,-0.5288 1.4671 -0.8359h 0.1621 v 4.2904 c 0.0000,0.3071 0.0426,0.3924 0.3241 0.3924h 0.4435 c 0.0256,-0.0000 0.0682,0.0171 0.0682 0.0682v 0.1877 l -1.1686,-0.0171 l -1.1856,0.0171 v -0.1877 c 0.0085,-0.0256 0.0171,-0.0682 0.0682 -0.0682h 0.5118 c 0.3241,-0.0000 0.3241,-0.1450 0.3241 -0.3924v -2.9342 c 0.0000,-0.2900 0.0000,-0.4947 -0.1877 -0.4947ZM 119.9507,81.7717 ZM 120.4369,81.4220 c 0.0000,-0.2474 0.2047,-0.4521 0.4521 -0.4521c 0.2474,-0.0000 0.4521,0.2047 0.4521 0.4521c 0.0000,0.2474 -0.2047,0.4521 -0.4521 0.4521c -0.2474,-0.0000 -0.4521,-0.2047 -0.4521 -0.4521ZM 121.8187,81.7717 ZM 124.0193,78.7437 c 0.0000,-0.0597 0.0085,-0.1279 0.0853 -0.1706c 0.0938,-0.0682 0.2474,-0.1450 0.3753 -0.1450c 0.1109,-0.0000 0.1194,0.0938 0.1194 0.2644v 1.3733 h 0.6909 l -0.0512,0.4009 h -0.6397 v 0.7080 c 0.0000,0.2388 0.0341,0.3582 0.2815 0.3582h 0.2303 c 0.0512,-0.0000 0.0597,0.0426 0.0597 0.0597v 0.1877 c 0.0000,-0.0000 -0.5459,-0.0171 -0.9041 -0.0171c -0.3241,-0.0000 -0.8274,0.0171 -0.8274 0.0171v -0.1877 c 0.0000,-0.0171 0.0085,-0.0597 0.0597 -0.0597h 0.2303 c 0.2644,-0.0000 0.2900,-0.1109 0.2900 -0.3582v -0.7080 h -1.6718 c -0.0341,-0.0000 -0.0512,-0.0171 -0.0768 -0.0512l -0.0682,-0.0938 l -0.1024,-0.1791 c -0.0085,-0.0000 -0.0085,-0.0085 -0.0085 -0.0171c 0.0000,-0.0085 0.0085,-0.0171 0.0171 -0.0256c 0.5544,-0.6141 1.5353,-2.5162 1.8424 -3.2156c 0.0085,-0.0341 0.0256,-0.0426 0.0597 -0.0426c 0.0085,-0.0000 0.1962,0.0768 0.2985 0.0938c -0.3838,1.0321 -1.0150,2.1409 -1.6377 3.1304h 1.3477 v -1.3221 Z"/></g><g stroke-linejoin="miter" stroke-opacity="0.6" fill-opacity="0.0" stroke="rgb(0,0,0)" stroke-width="0.8572218165937673" fill="rgb(0,0,0)" stroke-linecap="butt" stroke-miterlimit="10.0"><path d="M 127.8619,79.3578 h 5.1433 "/></g><g stroke-linejoin="miter" stroke-opacity="1.0" fill-opacity="0.6" stroke="rgb(0,0,0)" fill-rule="evenodd" stroke-width="0.0" fill="rgb(0,0,0)" stroke-linecap="butt" stroke-miterlimit="10.0"><path d="M 116.3939,98.6546 ZM 117.9974,94.5860 c -0.1621,-0.0000 -0.5374,0.1535 -0.7250 0.2388l -0.1024,-0.2644 c 0.7506,-0.3497 1.0406,-0.5288 1.4671 -0.8359h 0.1621 v 4.2904 c 0.0000,0.3071 0.0426,0.3924 0.3241 0.3924h 0.4435 c 0.0256,-0.0000 0.0682,0.0171 0.0682 0.0682v 0.1877 l -1.1686,-0.0171 l -1.1856,0.0171 v -0.1877 c 0.0085,-0.0256 0.0171,-0.0682 0.0682 -0.0682h 0.5118 c 0.3241,-0.0000 0.3241,-0.1450 0.3241 -0.3924v -2.9342 c 0.0000,-0.2900 0.0000,-0.4947 -0.1877 -0.4947ZM 120.1298,98.6546 ZM 120.6160,98.3049 c 0.0000,-0.2474 0.2047,-0.4521 0.4521 -0.4521c 0.2474,-0.0000 0.4521,0.2047 0.4521 0.4521c 0.0000,0.2474 -0.2047,0.4521 -0.4521 0.4521c -0.2474,-0.0000 -0.4521,-0.2047 -0.4521 -0.4521ZM 121.9978,98.6546 ZM 122.4925,94.8760 c 0.0000,-0.4862 0.4691,-1.1515 1.3647 -1.1515c 0.6568,-0.0000 1.4244,0.2474 1.4244 1.2283c 0.0000,0.6482 -0.3327,0.9724 -0.7933 1.4159l -0.8103,0.7847 c -0.0426,0.0426 -0.6141,0.6056 -0.6141 1.0065h 1.4500 c 0.2900,-0.0000 0.4435,-0.1450 0.5630 -0.6141l 0.2132,0.0341 l -0.1706,1.0747 h -2.6356 c 0.0000,-0.4777 0.0768,-0.8444 0.8700 -1.6547l 0.5971,-0.5885 c 0.4777,-0.4862 0.6738,-0.9041 0.6738 -1.4244c 0.0000,-0.7762 -0.5288,-0.9980 -0.8188 -0.9980c -0.5885,-0.0000 -0.7506,0.3071 -0.7506 0.5118c 0.0000,0.0682 0.0171,0.1365 0.0341 0.1962c 0.0171,0.0597 0.0341,0.1194 0.0341 0.1877c 0.0000,0.2218 -0.1706,0.3071 -0.3071 0.3071c -0.1877,-0.0000 -0.3241,-0.1450 -0.3241 -0.3156Z"/></g><g stroke-linejoin="miter" stroke-opacity="0.6" fill-opacity="0.0" stroke="rgb(0,0,0)" stroke-width="0.8572218165937673" fill="rgb(0,0,0)" stroke-linecap="butt" stroke-miterlimit="10.0"><path d="M 127.8619,96.2408 h 5.1433 "/></g><g stroke-linejoin="miter" stroke-opacity="1.0" fill-opacity="0.6" stroke="rgb(0,0,0)" fill-rule="evenodd" stroke-width="0.0" fill="rgb(0,0,0)" stroke-linecap="butt" stroke-miterlimit="10.0"><path d="M 116.2915,115.5376 ZM 117.8951,111.4690 c -0.1621,-0.0000 -0.5374,0.1535 -0.7250 0.2388l -0.1024,-0.2644 c 0.7506,-0.3497 1.0406,-0.5288 1.4671 -0.8359h 0.1621 v 4.2904 c 0.0000,0.3071 0.0426,0.3924 0.3241 0.3924h 0.4435 c 0.0256,-0.0000 0.0682,0.0171 0.0682 0.0682v 0.1877 l -1.1686,-0.0171 l -1.1856,0.0171 v -0.1877 c 0.0085,-0.0256 0.0171,-0.0682 0.0682 -0.0682h 0.5118 c 0.3241,-0.0000 0.3241,-0.1450 0.3241 -0.3924v -2.9342 c 0.0000,-0.2900 0.0000,-0.4947 -0.1877 -0.4947ZM 120.0275,115.5376 ZM 120.5137,115.1879 c 0.0000,-0.2474 0.2047,-0.4521 0.4521 -0.4521c 0.2474,-0.0000 0.4521,0.2047 0.4521 0.4521c 0.0000,0.2474 -0.2047,0.4521 -0.4521 0.4521c -0.2474,-0.0000 -0.4521,-0.2047 -0.4521 -0.4521ZM 121.8954,115.5376 ZM 123.7634,110.9060 c -0.3668,-0.0000 -0.9041,0.3582 -0.9041 2.3456c 0.0000,0.6994 0.1279,2.1068 0.8785 2.1068c 0.1450,-0.0000 0.5544,-0.0938 0.7335 -0.7591c 0.1109,-0.4094 0.1706,-0.9212 0.1706 -1.6633c 0.0000,-1.0833 -0.2729,-1.6889 -0.5203 -1.9021c -0.0938,-0.0853 -0.2218,-0.1279 -0.3582 -0.1279ZM 123.7634,110.9060 ZM 123.7293,115.6399 c -0.9127,-0.0000 -1.5268,-1.1686 -1.5268 -2.4736c 0.0000,-1.5950 0.7591,-2.5589 1.5609 -2.5589c 0.3668,-0.0000 0.7335,0.2303 0.9809 0.5630c 0.3582,0.4777 0.5459,1.1174 0.5459 1.9192c 0.0000,1.8936 -0.9383,2.5503 -1.5609 2.5503Z"/></g><g stroke-linejoin="miter" stroke-opacity="0.6" fill-opacity="0.0" stroke="rgb(0,0,0)" stroke-width="0.8572218165937673" fill="rgb(0,0,0)" stroke-linecap="butt" stroke-miterlimit="10.0"><path d="M 127.8619,113.1237 h 5.1433 "/></g><g stroke-linejoin="miter" stroke-opacity="1.0" fill-opacity="0.6" stroke="rgb(0,0,0)" fill-rule="evenodd" stroke-width="0.0" fill="rgb(0,0,0)" stroke-linecap="butt" stroke-miterlimit="10.0"><path d="M 116.3086,132.4205 ZM 118.1766,127.7890 c -0.3668,-0.0000 -0.9041,0.3582 -0.9041 2.3456c 0.0000,0.6994 0.1279,2.1068 0.8785 2.1068c 0.1450,-0.0000 0.5544,-0.0938 0.7335 -0.7591c 0.1109,-0.4094 0.1706,-0.9212 0.1706 -1.6633c 0.0000,-1.0833 -0.2729,-1.6889 -0.5203 -1.9021c -0.0938,-0.0853 -0.2218,-0.1279 -0.3582 -0.1279ZM 118.1766,127.7890 ZM 118.1424,132.5229 c -0.9127,-0.0000 -1.5268,-1.1686 -1.5268 -2.4736c 0.0000,-1.5950 0.7591,-2.5589 1.5609 -2.5589c 0.3668,-0.0000 0.7335,0.2303 0.9809 0.5630c 0.3582,0.4777 0.5459,1.1174 0.5459 1.9192c 0.0000,1.8936 -0.9383,2.5503 -1.5609 2.5503ZM 120.0445,132.4205 ZM 120.5307,132.0708 c 0.0000,-0.2474 0.2047,-0.4521 0.4521 -0.4521c 0.2474,-0.0000 0.4521,0.2047 0.4521 0.4521c 0.0000,0.2474 -0.2047,0.4521 -0.4521 0.4521c -0.2474,-0.0000 -0.4521,-0.2047 -0.4521 -0.4521ZM 121.9125,132.4205 ZM 123.8061,127.6952 c -0.4862,-0.0000 -0.8018,0.3838 -0.8018 0.7591c 0.0000,0.2474 0.1024,0.5459 0.6141 0.8785l 0.2474,0.1535 c 0.2218,-0.1621 0.7421,-0.5544 0.7421 -0.9894c 0.0000,-0.3753 -0.2729,-0.8018 -0.8018 -0.8018ZM 123.8061,127.6952 ZM 125.1111,128.5055 c 0.0000,0.5203 -0.5885,0.9297 -0.9468 1.1686l 0.4947,0.3241 c 0.4179,0.2729 0.6312,0.6482 0.6312 1.1174c 0.0000,0.6141 -0.5032,1.4074 -1.5609 1.4074c -0.8530,-0.0000 -1.4415,-0.4521 -1.4415 -1.2794c 0.0000,-0.3156 0.1365,-0.6824 0.4691 -0.9724c 0.2047,-0.1791 0.3838,-0.3327 0.5885 -0.4862l -0.1450,-0.0853 c -0.4947,-0.3071 -0.7421,-0.6397 -0.7421 -1.0918c 0.0000,-0.6227 0.5630,-1.1174 1.3903 -1.1174c 0.7933,-0.0000 1.2624,0.4350 1.2624 1.0150ZM 125.1111,128.5055 ZM 123.7464,132.2841 c 0.3668,-0.0000 1.0065,-0.1962 1.0065 -1.0065c 0.0000,-0.3838 -0.2388,-0.7677 -0.7421 -1.0747l -0.3753,-0.2303 c -0.6909,0.4606 -0.8444,1.0321 -0.8444 1.2709c 0.0000,0.7250 0.5885,1.0406 0.9553 1.0406Z"/></g><g stroke-linejoin="miter" stroke-opacity="0.6" fill-opacity="0.0" stroke="rgb(0,0,0)" stroke-width="0.8572218165937673" fill="rgb(0,0,0)" stroke-linecap="butt" stroke-miterlimit="10.0"><path d="M 127.8619,130.0067 h 5.1433 "/></g><g stroke-linejoin="miter" stroke-opacity="1.0" fill-opacity="0.6" stroke="rgb(0,0,0)" fill-rule="evenodd" stroke-width="0.0" fill="rgb(0,0,0)" stroke-linecap="butt" stroke-miterlimit="10.0"><path d="M 116.2574,149.3035 ZM 118.1254,144.6719 c -0.3668,-0.0000 -0.9041,0.3582 -0.9041 2.3456c 0.0000,0.6994 0.1279,2.1068 0.8785 2.1068c 0.1450,-0.0000 0.5544,-0.0938 0.7335 -0.7591c 0.1109,-0.4094 0.1706,-0.9212 0.1706 -1.6633c 0.0000,-1.0833 -0.2729,-1.6889 -0.5203 -1.9021c -0.0938,-0.0853 -0.2218,-0.1279 -0.3582 -0.1279ZM 118.1254,144.6719 ZM 118.0913,149.4058 c -0.9127,-0.0000 -1.5268,-1.1686 -1.5268 -2.4736c 0.0000,-1.5950 0.7591,-2.5589 1.5609 -2.5589c 0.3668,-0.0000 0.7335,0.2303 0.9809 0.5630c 0.3582,0.4777 0.5459,1.1174 0.5459 1.9192c 0.0000,1.8936 -0.9383,2.5503 -1.5609 2.5503ZM 119.9934,149.3035 ZM 120.4795,148.9538 c 0.0000,-0.2474 0.2047,-0.4521 0.4521 -0.4521c 0.2474,-0.0000 0.4521,0.2047 0.4521 0.4521c 0.0000,0.2474 -0.2047,0.4521 -0.4521 0.4521c -0.2474,-0.0000 -0.4521,-0.2047 -0.4521 -0.4521ZM 121.8613,149.3035 ZM 122.8508,147.0687 c -0.0085,0.0853 -0.0085,0.2132 -0.0085 0.2985c 0.0000,1.4330 0.6397,1.7912 1.0662 1.7912c 0.3924,-0.0000 0.8103,-0.3668 0.8103 -1.2538c 0.0000,-0.4009 -0.2047,-1.2197 -1.0235 -1.2197c -0.1791,-0.0000 -0.5032,0.0171 -0.8444 0.3838ZM 122.8508,147.0687 ZM 125.0855,144.5952 c -0.5544,0.0512 -1.0321,0.1962 -1.4415 0.5971c -0.3924,0.3838 -0.6738,0.9553 -0.7677 1.6377c 0.1962,-0.2388 0.6653,-0.4179 0.9894 -0.4179c 1.2624,-0.0000 1.4244,1.0406 1.4244 1.4330c 0.0000,0.5800 -0.2900,1.5609 -1.4671 1.5609c -0.6227,-0.0000 -1.5694,-0.3668 -1.5694 -2.0642c 0.0000,-0.7847 0.2644,-1.5524 0.8530 -2.1409c 0.5459,-0.5544 1.1174,-0.7847 1.9533 -0.8274Z"/></g><g stroke-linejoin="miter" stroke-opacity="0.6" fill-opacity="0.0" stroke="rgb(0,0,0)" stroke-width="0.8572218165937673" fill="rgb(0,0,0)" stroke-linecap="butt" stroke-miterlimit="10.0"><path d="M 127.8619,146.8896 h 5.1433 "/></g><g stroke-linejoin="miter" stroke-opacity="1.0" fill-opacity="0.6" stroke="rgb(0,0,0)" fill-rule="evenodd" stroke-width="0.0" fill="rgb(0,0,0)" stroke-linecap="butt" stroke-miterlimit="10.0"><path d="M 116.2148,166.1864 ZM 118.0827,161.5549 c -0.3668,-0.0000 -0.9041,0.3582 -0.9041 2.3456c 0.0000,0.6994 0.1279,2.1068 0.8785 2.1068c 0.1450,-0.0000 0.5544,-0.0938 0.7335 -0.7591c 0.1109,-0.4094 0.1706,-0.9212 0.1706 -1.6633c 0.0000,-1.0833 -0.2729,-1.6889 -0.5203 -1.9021c -0.0938,-0.0853 -0.2218,-0.1279 -0.3582 -0.1279ZM 118.0827,161.5549 ZM 118.0486,166.2888 c -0.9127,-0.0000 -1.5268,-1.1686 -1.5268 -2.4736c 0.0000,-1.5950 0.7591,-2.5589 1.5609 -2.5589c 0.3668,-0.0000 0.7335,0.2303 0.9809 0.5630c 0.3582,0.4777 0.5459,1.1174 0.5459 1.9192c 0.0000,1.8936 -0.9383,2.5503 -1.5609 2.5503ZM 119.9507,166.1864 ZM 120.4369,165.8367 c 0.0000,-0.2474 0.2047,-0.4521 0.4521 -0.4521c 0.2474,-0.0000 0.4521,0.2047 0.4521 0.4521c 0.0000,0.2474 -0.2047,0.4521 -0.4521 0.4521c -0.2474,-0.0000 -0.4521,-0.2047 -0.4521 -0.4521ZM 121.8187,166.1864 ZM 124.0193,163.1584 c 0.0000,-0.0597 0.0085,-0.1279 0.0853 -0.1706c 0.0938,-0.0682 0.2474,-0.1450 0.3753 -0.1450c 0.1109,-0.0000 0.1194,0.0938 0.1194 0.2644v 1.3733 h 0.6909 l -0.0512,0.4009 h -0.6397 v 0.7080 c 0.0000,0.2388 0.0341,0.3582 0.2815 0.3582h 0.2303 c 0.0512,-0.0000 0.0597,0.0426 0.0597 0.0597v 0.1877 c 0.0000,-0.0000 -0.5459,-0.0171 -0.9041 -0.0171c -0.3241,-0.0000 -0.8274,0.0171 -0.8274 0.0171v -0.1877 c 0.0000,-0.0171 0.0085,-0.0597 0.0597 -0.0597h 0.2303 c 0.2644,-0.0000 0.2900,-0.1109 0.2900 -0.3582v -0.7080 h -1.6718 c -0.0341,-0.0000 -0.0512,-0.0171 -0.0768 -0.0512l -0.0682,-0.0938 l -0.1024,-0.1791 c -0.0085,-0.0000 -0.0085,-0.0085 -0.0085 -0.0171c 0.0000,-0.0085 0.0085,-0.0171 0.0171 -0.0256c 0.5544,-0.6141 1.5353,-2.5162 1.8424 -3.2156c 0.0085,-0.0341 0.0256,-0.0426 0.0597 -0.0426c 0.0085,-0.0000 0.1962,0.0768 0.2985 0.0938c -0.3838,1.0321 -1.0150,2.1409 -1.6377 3.1304h 1.3477 v -1.3221 Z"/></g><g stroke-linejoin="miter" stroke-opacity="0.6" fill-opacity="0.0" stroke="rgb(0,0,0)" stroke-width="0.8572218165937673" fill="rgb(0,0,0)" stroke-linecap="butt" stroke-miterlimit="10.0"><path d="M 127.8619,163.7726 h 5.1433 "/></g><g stroke-linejoin="miter" stroke-opacity="1.0" fill-opacity="0.6" stroke="rgb(0,0,0)" fill-rule="evenodd" stroke-width="0.0" fill="rgb(0,0,0)" stroke-linecap="butt" stroke-miterlimit="10.0"><path d="M 116.3939,183.0694 ZM 118.2619,178.4378 c -0.3668,-0.0000 -0.9041,0.3582 -0.9041 2.3456c 0.0000,0.6994 0.1279,2.1068 0.8785 2.1068c 0.1450,-0.0000 0.5544,-0.0938 0.7335 -0.7591c 0.1109,-0.4094 0.1706,-0.9212 0.1706 -1.6633c 0.0000,-1.0833 -0.2729,-1.6889 -0.5203 -1.9021c -0.0938,-0.0853 -0.2218,-0.1279 -0.3582 -0.1279ZM 118.2619,178.4378 ZM 118.2277,183.1717 c -0.9127,-0.0000 -1.5268,-1.1686 -1.5268 -2.4736c 0.0000,-1.5950 0.7591,-2.5589 1.5609 -2.5589c 0.3668,-0.0000 0.7335,0.2303 0.9809 0.5630c 0.3582,0.4777 0.5459,1.1174 0.5459 1.9192c 0.0000,1.8936 -0.9383,2.5503 -1.5609 2.5503ZM 120.1298,183.0694 ZM 120.6160,182.7197 c 0.0000,-0.2474 0.2047,-0.4521 0.4521 -0.4521c 0.2474,-0.0000 0.4521,0.2047 0.4521 0.4521c 0.0000,0.2474 -0.2047,0.4521 -0.4521 0.4521c -0.2474,-0.0000 -0.4521,-0.2047 -0.4521 -0.4521ZM 121.9978,183.0694 ZM 122.4925,179.2908 c 0.0000,-0.4862 0.4691,-1.1515 1.3647 -1.1515c 0.6568,-0.0000 1.4244,0.2474 1.4244 1.2283c 0.0000,0.6482 -0.3327,0.9724 -0.7933 1.4159l -0.8103,0.7847 c -0.0426,0.0426 -0.6141,0.6056 -0.6141 1.0065h 1.4500 c 0.2900,-0.0000 0.4435,-0.1450 0.5630 -0.6141l 0.2132,0.0341 l -0.1706,1.0747 h -2.6356 c 0.0000,-0.4777 0.0768,-0.8444 0.8700 -1.6547l 0.5971,-0.5885 c 0.4777,-0.4862 0.6738,-0.9041 0.6738 -1.4244c 0.0000,-0.7762 -0.5288,-0.9980 -0.8188 -0.9980c -0.5885,-0.0000 -0.7506,0.3071 -0.7506 0.5118c 0.0000,0.0682 0.0171,0.1365 0.0341 0.1962c 0.0171,0.0597 0.0341,0.1194 0.0341 0.1877c 0.0000,0.2218 -0.1706,0.3071 -0.3071 0.3071c -0.1877,-0.0000 -0.3241,-0.1450 -0.3241 -0.3156Z"/></g><g stroke-linejoin="miter" stroke-opacity="0.6" fill-opacity="0.0" stroke="rgb(0,0,0)" stroke-width="0.8572218165937673" fill="rgb(0,0,0)" stroke-linecap="butt" stroke-miterlimit="10.0"><path d="M 127.8619,180.6555 h 5.1433 "/></g><g stroke-linejoin="miter" stroke-opacity="1.0" fill-opacity="0.6" stroke="rgb(0,0,0)" fill-rule="evenodd" stroke-width="0.0" fill="rgb(0,0,0)" stroke-linecap="butt" stroke-miterlimit="10.0"><path d="M 116.2915,199.9523 ZM 118.1595,195.3208 c -0.3668,-0.0000 -0.9041,0.3582 -0.9041 2.3456c 0.0000,0.6994 0.1279,2.1068 0.8785 2.1068c 0.1450,-0.0000 0.5544,-0.0938 0.7335 -0.7591c 0.1109,-0.4094 0.1706,-0.9212 0.1706 -1.6633c 0.0000,-1.0833 -0.2729,-1.6889 -0.5203 -1.9021c -0.0938,-0.0853 -0.2218,-0.1279 -0.3582 -0.1279ZM 118.1595,195.3208 ZM 118.1254,200.0547 c -0.9127,-0.0000 -1.5268,-1.1686 -1.5268 -2.4736c 0.0000,-1.5950 0.7591,-2.5589 1.5609 -2.5589c 0.3668,-0.0000 0.7335,0.2303 0.9809 0.5630c 0.3582,0.4777 0.5459,1.1174 0.5459 1.9192c 0.0000,1.8936 -0.9383,2.5503 -1.5609 2.5503ZM 120.0275,199.9523 ZM 120.5137,199.6026 c 0.0000,-0.2474 0.2047,-0.4521 0.4521 -0.4521c 0.2474,-0.0000 0.4521,0.2047 0.4521 0.4521c 0.0000,0.2474 -0.2047,0.4521 -0.4521 0.4521c -0.2474,-0.0000 -0.4521,-0.2047 -0.4521 -0.4521ZM 121.8954,199.9523 ZM 123.7634,195.3208 c -0.3668,-0.0000 -0.9041,0.3582 -0.9041 2.3456c 0.0000,0.6994 0.1279,2.1068 0.8785 2.1068c 0.1450,-0.0000 0.5544,-0.0938 0.7335 -0.7591c 0.1109,-0.4094 0.1706,-0.9212 0.1706 -1.6633c 0.0000,-1.0833 -0.2729,-1.6889 -0.5203 -1.9021c -0.0938,-0.0853 -0.2218,-0.1279 -0.3582 -0.1279ZM 123.7634,195.3208 ZM 123.7293,200.0547 c -0.9127,-0.0000 -1.5268,-1.1686 -1.5268 -2.4736c 0.0000,-1.5950 0.7591,-2.5589 1.5609 -2.5589c 0.3668,-0.0000 0.7335,0.2303 0.9809 0.5630c 0.3582,0.4777 0.5459,1.1174 0.5459 1.9192c 0.0000,1.8936 -0.9383,2.5503 -1.5609 2.5503Z"/></g><g stroke-linejoin="miter" stroke-opacity="0.6" fill-opacity="0.0" stroke="rgb(0,0,0)" stroke-width="0.8572218165937673" fill="rgb(0,0,0)" stroke-linecap="butt" stroke-miterlimit="10.0"><path d="M 127.8619,197.5385 h 5.1433 "/></g><g stroke-linejoin="miter" stroke-opacity="0.0" fill-opacity="0.1" stroke="rgb(0,0,0)" stroke-width="0.0" fill="rgb(0,0,0)" stroke-linecap="butt" stroke-miterlimit="10.0"><path d="M 647.3383,202.2255 l -0.0000,-3.4289 h -514.3331 l -0.0000,3.4289 Z"/></g><g stroke-linejoin="miter" stroke-opacity="1.0" fill-opacity="0.6" stroke="rgb(0,0,0)" fill-rule="evenodd" stroke-width="0.0" fill="rgb(0,0,0)" stroke-linecap="butt" stroke-miterlimit="10.0"><path d="M 611.9042,211.4417 ZM 614.1048,208.4137 c 0.0000,-0.0597 0.0085,-0.1279 0.0853 -0.1706c 0.0938,-0.0682 0.2474,-0.1450 0.3753 -0.1450c 0.1109,-0.0000 0.1194,0.0938 0.1194 0.2644v 1.3733 h 0.6909 l -0.0512,0.4009 h -0.6397 v 0.7080 c 0.0000,0.2388 0.0341,0.3582 0.2815 0.3582h 0.2303 c 0.0512,-0.0000 0.0597,0.0426 0.0597 0.0597v 0.1877 c 0.0000,-0.0000 -0.5459,-0.0171 -0.9041 -0.0171c -0.3241,-0.0000 -0.8274,0.0171 -0.8274 0.0171v -0.1877 c 0.0000,-0.0171 0.0085,-0.0597 0.0597 -0.0597h 0.2303 c 0.2644,-0.0000 0.2900,-0.1109 0.2900 -0.3582v -0.7080 h -1.6718 c -0.0341,-0.0000 -0.0512,-0.0171 -0.0768 -0.0512l -0.0682,-0.0938 l -0.1024,-0.1791 c -0.0085,-0.0000 -0.0085,-0.0085 -0.0085 -0.0171c 0.0000,-0.0085 0.0085,-0.0171 0.0171 -0.0256c 0.5544,-0.6141 1.5353,-2.5162 1.8424 -3.2156c 0.0085,-0.0341 0.0256,-0.0426 0.0597 -0.0426c 0.0085,-0.0000 0.1962,0.0768 0.2985 0.0938c -0.3838,1.0321 -1.0150,2.1409 -1.6377 3.1304h 1.3477 v -1.3221 Z"/></g><g stroke-linejoin="miter" stroke-opacity="0.6" fill-opacity="0.0" stroke="rgb(0,0,0)" stroke-width="0.8572218165937673" fill="rgb(0,0,0)" stroke-linecap="butt" stroke-miterlimit="10.0"><path d="M 613.7765,198.7966 v 5.1433 "/></g><g stroke-linejoin="miter" stroke-opacity="1.0" fill-opacity="0.6" stroke="rgb(0,0,0)" fill-rule="evenodd" stroke-width="0.0" fill="rgb(0,0,0)" stroke-linecap="butt" stroke-miterlimit="10.0"><path d="M 555.9261,211.4417 ZM 557.7685,206.7760 c -0.2132,-0.0000 -0.8359,0.1194 -0.8359 0.6397c 0.0000,0.1535 -0.0597,0.4179 -0.2900 0.4179c -0.2218,-0.0000 -0.2388,-0.2474 -0.2388 -0.2729c 0.0000,-0.2644 0.3497,-1.0491 1.5353 -1.0491c 0.8274,-0.0000 1.0747,0.5203 1.0747 0.8615c 0.0000,0.2132 -0.0682,0.6397 -0.8359 1.1259c 0.4777,0.0768 1.1088,0.4265 1.1088 1.3136c 0.0000,1.1259 -0.8530,1.7315 -1.8168 1.7315c -0.4862,-0.0000 -1.1686,-0.2132 -1.1686 -0.5374c 0.0000,-0.1279 0.1279,-0.2729 0.2985 -0.2729c 0.1621,-0.0000 0.2388,0.0853 0.3156 0.1962c 0.0938,0.1450 0.2474,0.3497 0.6568 0.3497c 0.2815,-0.0000 1.0833,-0.2815 1.0833 -1.3562c 0.0000,-0.9127 -0.6397,-1.0577 -1.1003 -1.0577c -0.0768,-0.0000 -0.1706,0.0171 -0.2644 0.0341l -0.0341,-0.2559 c 0.6568,-0.1109 1.2027,-0.7506 1.2027 -1.1430c 0.0000,-0.4862 -0.3412,-0.7250 -0.6909 -0.7250Z"/></g><g stroke-linejoin="miter" stroke-opacity="0.6" fill-opacity="0.0" stroke="rgb(0,0,0)" stroke-width="0.8572218165937673" fill="rgb(0,0,0)" stroke-linecap="butt" stroke-miterlimit="10.0"><path d="M 557.7941,198.7966 v 5.1433 "/></g><g stroke-linejoin="miter" stroke-opacity="1.0" fill-opacity="0.6" stroke="rgb(0,0,0)" fill-rule="evenodd" stroke-width="0.0" fill="rgb(0,0,0)" stroke-linecap="butt" stroke-miterlimit="10.0"><path d="M 499.9224,211.4417 ZM 500.4171,207.6631 c 0.0000,-0.4862 0.4691,-1.1515 1.3647 -1.1515c 0.6568,-0.0000 1.4244,0.2474 1.4244 1.2283c 0.0000,0.6482 -0.3327,0.9724 -0.7933 1.4159l -0.8103,0.7847 c -0.0426,0.0426 -0.6141,0.6056 -0.6141 1.0065h 1.4500 c 0.2900,-0.0000 0.4435,-0.1450 0.5630 -0.6141l 0.2132,0.0341 l -0.1706,1.0747 h -2.6356 c 0.0000,-0.4777 0.0768,-0.8444 0.8700 -1.6547l 0.5971,-0.5885 c 0.4777,-0.4862 0.6738,-0.9041 0.6738 -1.4244c 0.0000,-0.7762 -0.5288,-0.9980 -0.8188 -0.9980c -0.5885,-0.0000 -0.7506,0.3071 -0.7506 0.5118c 0.0000,0.0682 0.0171,0.1365 0.0341 0.1962c 0.0171,0.0597 0.0341,0.1194 0.0341 0.1877c 0.0000,0.2218 -0.1706,0.3071 -0.3071 0.3071c -0.1877,-0.0000 -0.3241,-0.1450 -0.3241 -0.3156Z"/></g><g stroke-linejoin="miter" stroke-opacity="0.6" fill-opacity="0.0" stroke="rgb(0,0,0)" stroke-width="0.8572218165937673" fill="rgb(0,0,0)" stroke-linecap="butt" stroke-miterlimit="10.0"><path d="M 501.8117,198.7966 v 5.1433 "/></g><g stroke-linejoin="miter" stroke-opacity="1.0" fill-opacity="0.6" stroke="rgb(0,0,0)" fill-rule="evenodd" stroke-width="0.0" fill="rgb(0,0,0)" stroke-linecap="butt" stroke-miterlimit="10.0"><path d="M 443.8206,211.4417 ZM 445.4242,207.3730 c -0.1621,-0.0000 -0.5374,0.1535 -0.7250 0.2388l -0.1024,-0.2644 c 0.7506,-0.3497 1.0406,-0.5288 1.4671 -0.8359h 0.1621 v 4.2904 c 0.0000,0.3071 0.0426,0.3924 0.3241 0.3924h 0.4435 c 0.0256,-0.0000 0.0682,0.0171 0.0682 0.0682v 0.1877 l -1.1686,-0.0171 l -1.1856,0.0171 v -0.1877 c 0.0085,-0.0256 0.0171,-0.0682 0.0682 -0.0682h 0.5118 c 0.3241,-0.0000 0.3241,-0.1450 0.3241 -0.3924v -2.9342 c 0.0000,-0.2900 0.0000,-0.4947 -0.1877 -0.4947Z"/></g><g stroke-linejoin="miter" stroke-opacity="0.6" fill-opacity="0.0" stroke="rgb(0,0,0)" stroke-width="0.8572218165937673" fill="rgb(0,0,0)" stroke-linecap="butt" stroke-miterlimit="10.0"><path d="M 445.8293,198.7966 v 5.1433 "/></g><g stroke-linejoin="miter" stroke-opacity="1.0" fill-opacity="0.6" stroke="rgb(0,0,0)" fill-rule="evenodd" stroke-width="0.0" fill="rgb(0,0,0)" stroke-linecap="butt" stroke-miterlimit="10.0"><path d="M 387.9960,211.4417 ZM 389.8640,206.8101 c -0.3668,-0.0000 -0.9041,0.3582 -0.9041 2.3456c 0.0000,0.6994 0.1279,2.1068 0.8785 2.1068c 0.1450,-0.0000 0.5544,-0.0938 0.7335 -0.7591c 0.1109,-0.4094 0.1706,-0.9212 0.1706 -1.6633c 0.0000,-1.0833 -0.2729,-1.6889 -0.5203 -1.9021c -0.0938,-0.0853 -0.2218,-0.1279 -0.3582 -0.1279ZM 389.8640,206.8101 ZM 389.8299,211.5440 c -0.9127,-0.0000 -1.5268,-1.1686 -1.5268 -2.4736c 0.0000,-1.5950 0.7591,-2.5589 1.5609 -2.5589c 0.3668,-0.0000 0.7335,0.2303 0.9809 0.5630c 0.3582,0.4777 0.5459,1.1174 0.5459 1.9192c 0.0000,1.8936 -0.9383,2.5503 -1.5609 2.5503Z"/></g><g stroke-linejoin="miter" stroke-opacity="0.6" fill-opacity="0.0" stroke="rgb(0,0,0)" stroke-width="0.8572218165937673" fill="rgb(0,0,0)" stroke-linecap="butt" stroke-miterlimit="10.0"><path d="M 389.8470,198.7966 v 5.1433 "/></g><g stroke-linejoin="miter" stroke-opacity="1.0" fill-opacity="0.6" stroke="rgb(0,0,0)" fill-rule="evenodd" stroke-width="0.0" fill="rgb(0,0,0)" stroke-linecap="butt" stroke-miterlimit="10.0"><path d="M 330.6831,211.4417 ZM 333.0202,209.4287 h -1.9277 c -0.0768,-0.0000 -0.1279,-0.0682 -0.1279 -0.1450c 0.0000,-0.1365 0.1109,-0.3156 0.2132 -0.3156h 1.9533 c 0.0853,-0.0000 0.1194,0.0768 0.1194 0.1535c 0.0000,0.0938 -0.1194,0.3071 -0.2303 0.3071ZM 333.5234,211.4417 ZM 335.1270,207.3730 c -0.1621,-0.0000 -0.5374,0.1535 -0.7250 0.2388l -0.1024,-0.2644 c 0.7506,-0.3497 1.0406,-0.5288 1.4671 -0.8359h 0.1621 v 4.2904 c 0.0000,0.3071 0.0426,0.3924 0.3241 0.3924h 0.4435 c 0.0256,-0.0000 0.0682,0.0171 0.0682 0.0682v 0.1877 l -1.1686,-0.0171 l -1.1856,0.0171 v -0.1877 c 0.0085,-0.0256 0.0171,-0.0682 0.0682 -0.0682h 0.5118 c 0.3241,-0.0000 0.3241,-0.1450 0.3241 -0.3924v -2.9342 c 0.0000,-0.2900 0.0000,-0.4947 -0.1877 -0.4947Z"/></g><g stroke-linejoin="miter" stroke-opacity="0.6" fill-opacity="0.0" stroke="rgb(0,0,0)" stroke-width="0.8572218165937673" fill="rgb(0,0,0)" stroke-linecap="butt" stroke-miterlimit="10.0"><path d="M 333.8646,198.7966 v 5.1433 "/></g><g stroke-linejoin="miter" stroke-opacity="1.0" fill-opacity="0.6" stroke="rgb(0,0,0)" fill-rule="evenodd" stroke-width="0.0" fill="rgb(0,0,0)" stroke-linecap="butt" stroke-miterlimit="10.0"><path d="M 274.6751,211.4417 ZM 277.0122,209.4287 h -1.9277 c -0.0768,-0.0000 -0.1279,-0.0682 -0.1279 -0.1450c 0.0000,-0.1365 0.1109,-0.3156 0.2132 -0.3156h 1.9533 c 0.0853,-0.0000 0.1194,0.0768 0.1194 0.1535c 0.0000,0.0938 -0.1194,0.3071 -0.2303 0.3071ZM 277.5154,211.4417 ZM 278.0102,207.6631 c 0.0000,-0.4862 0.4691,-1.1515 1.3647 -1.1515c 0.6568,-0.0000 1.4244,0.2474 1.4244 1.2283c 0.0000,0.6482 -0.3327,0.9724 -0.7933 1.4159l -0.8103,0.7847 c -0.0426,0.0426 -0.6141,0.6056 -0.6141 1.0065h 1.4500 c 0.2900,-0.0000 0.4435,-0.1450 0.5630 -0.6141l 0.2132,0.0341 l -0.1706,1.0747 h -2.6356 c 0.0000,-0.4777 0.0768,-0.8444 0.8700 -1.6547l 0.5971,-0.5885 c 0.4777,-0.4862 0.6738,-0.9041 0.6738 -1.4244c 0.0000,-0.7762 -0.5288,-0.9980 -0.8188 -0.9980c -0.5885,-0.0000 -0.7506,0.3071 -0.7506 0.5118c 0.0000,0.0682 0.0171,0.1365 0.0341 0.1962c 0.0171,0.0597 0.0341,0.1194 0.0341 0.1877c 0.0000,0.2218 -0.1706,0.3071 -0.3071 0.3071c -0.1877,-0.0000 -0.3241,-0.1450 -0.3241 -0.3156Z"/></g><g stroke-linejoin="miter" stroke-opacity="0.6" fill-opacity="0.0" stroke="rgb(0,0,0)" stroke-width="0.8572218165937673" fill="rgb(0,0,0)" stroke-linecap="butt" stroke-miterlimit="10.0"><path d="M 277.8822,198.7966 v 5.1433 "/></g><g stroke-linejoin="miter" stroke-opacity="1.0" fill-opacity="0.6" stroke="rgb(0,0,0)" fill-rule="evenodd" stroke-width="0.0" fill="rgb(0,0,0)" stroke-linecap="butt" stroke-miterlimit="10.0"><path d="M 218.6586,211.4417 ZM 220.9957,209.4287 h -1.9277 c -0.0768,-0.0000 -0.1279,-0.0682 -0.1279 -0.1450c 0.0000,-0.1365 0.1109,-0.3156 0.2132 -0.3156h 1.9533 c 0.0853,-0.0000 0.1194,0.0768 0.1194 0.1535c 0.0000,0.0938 -0.1194,0.3071 -0.2303 0.3071ZM 221.4990,211.4417 ZM 223.3413,206.7760 c -0.2132,-0.0000 -0.8359,0.1194 -0.8359 0.6397c 0.0000,0.1535 -0.0597,0.4179 -0.2900 0.4179c -0.2218,-0.0000 -0.2388,-0.2474 -0.2388 -0.2729c 0.0000,-0.2644 0.3497,-1.0491 1.5353 -1.0491c 0.8274,-0.0000 1.0747,0.5203 1.0747 0.8615c 0.0000,0.2132 -0.0682,0.6397 -0.8359 1.1259c 0.4777,0.0768 1.1088,0.4265 1.1088 1.3136c 0.0000,1.1259 -0.8530,1.7315 -1.8168 1.7315c -0.4862,-0.0000 -1.1686,-0.2132 -1.1686 -0.5374c 0.0000,-0.1279 0.1279,-0.2729 0.2985 -0.2729c 0.1621,-0.0000 0.2388,0.0853 0.3156 0.1962c 0.0938,0.1450 0.2474,0.3497 0.6568 0.3497c 0.2815,-0.0000 1.0833,-0.2815 1.0833 -1.3562c 0.0000,-0.9127 -0.6397,-1.0577 -1.1003 -1.0577c -0.0768,-0.0000 -0.1706,0.0171 -0.2644 0.0341l -0.0341,-0.2559 c 0.6568,-0.1109 1.2027,-0.7506 1.2027 -1.1430c 0.0000,-0.4862 -0.3412,-0.7250 -0.6909 -0.7250Z"/></g><g stroke-linejoin="miter" stroke-opacity="0.6" fill-opacity="0.0" stroke="rgb(0,0,0)" stroke-width="0.8572218165937673" fill="rgb(0,0,0)" stroke-linecap="butt" stroke-miterlimit="10.0"><path d="M 221.8998,198.7966 v 5.1433 "/></g><g stroke-linejoin="miter" stroke-opacity="1.0" fill-opacity="0.6" stroke="rgb(0,0,0)" fill-rule="evenodd" stroke-width="0.0" fill="rgb(0,0,0)" stroke-linecap="butt" stroke-miterlimit="10.0"><path d="M 162.6208,211.4417 ZM 164.9579,209.4287 h -1.9277 c -0.0768,-0.0000 -0.1279,-0.0682 -0.1279 -0.1450c 0.0000,-0.1365 0.1109,-0.3156 0.2132 -0.3156h 1.9533 c 0.0853,-0.0000 0.1194,0.0768 0.1194 0.1535c 0.0000,0.0938 -0.1194,0.3071 -0.2303 0.3071ZM 165.4611,211.4417 ZM 167.6618,208.4137 c 0.0000,-0.0597 0.0085,-0.1279 0.0853 -0.1706c 0.0938,-0.0682 0.2474,-0.1450 0.3753 -0.1450c 0.1109,-0.0000 0.1194,0.0938 0.1194 0.2644v 1.3733 h 0.6909 l -0.0512,0.4009 h -0.6397 v 0.7080 c 0.0000,0.2388 0.0341,0.3582 0.2815 0.3582h 0.2303 c 0.0512,-0.0000 0.0597,0.0426 0.0597 0.0597v 0.1877 c 0.0000,-0.0000 -0.5459,-0.0171 -0.9041 -0.0171c -0.3241,-0.0000 -0.8274,0.0171 -0.8274 0.0171v -0.1877 c 0.0000,-0.0171 0.0085,-0.0597 0.0597 -0.0597h 0.2303 c 0.2644,-0.0000 0.2900,-0.1109 0.2900 -0.3582v -0.7080 h -1.6718 c -0.0341,-0.0000 -0.0512,-0.0171 -0.0768 -0.0512l -0.0682,-0.0938 l -0.1024,-0.1791 c -0.0085,-0.0000 -0.0085,-0.0085 -0.0085 -0.0171c 0.0000,-0.0085 0.0085,-0.0171 0.0171 -0.0256c 0.5544,-0.6141 1.5353,-2.5162 1.8424 -3.2156c 0.0085,-0.0341 0.0256,-0.0426 0.0597 -0.0426c 0.0085,-0.0000 0.1962,0.0768 0.2985 0.0938c -0.3838,1.0321 -1.0150,2.1409 -1.6377 3.1304h 1.3477 v -1.3221 Z"/></g><g stroke-linejoin="miter" stroke-opacity="0.6" fill-opacity="0.0" stroke="rgb(0,0,0)" stroke-width="0.8572218165937673" fill="rgb(0,0,0)" stroke-linecap="butt" stroke-miterlimit="10.0"><path d="M 165.9175,198.7966 v 5.1433 "/></g><g stroke-linejoin="miter" stroke-opacity="0.0" fill-opacity="0.0" stroke="rgb(0,0,0)" stroke-width="0.0" fill="rgb(0,0,0)" stroke-linecap="butt" stroke-miterlimit="10.0"><path d="M 647.3383,198.7966 l -0.0000,-171.4444 h -514.3331 l -0.0000,171.4444 Z"/></g><g stroke-linejoin="miter" stroke-opacity="0.6" fill-opacity="0.0" stroke="rgb(31,119,180)" stroke-width="4.180240832948441" fill="rgb(0,0,0)" stroke-linecap="butt" stroke-miterlimit="10.0"><path d="M 133.0052,198.7758 l 109.8878,-24.3298 l 19.6032,-16.0914 l 13.4747,-12.8249 l 10.5929,-13.9555 l 8.9154,-8.6707 l 7.7263,-15.1368 l 6.8030,-7.2025 l 6.3727,-5.9173 l 5.8532,-13.2310 l 5.4088,-4.7867 l 5.1772,-6.2901 l 4.9502,-5.4623 l 4.7874,-3.6198 l 4.6157,-6.8464 l 4.4222,-5.7215 l 4.3630,1.7318 l 4.2709,-8.5378 l 4.2033,3.7153 l 4.1792,-5.6003 l 4.0375,-5.5826 l 3.9313,-3.2569 l 3.8683,-2.2505 l 3.8533,0.9262 l 3.9027,3.4129 l 3.8752,-5.8949 l 3.9091,8.7500 l 3.9412,-5.8577 l 3.9018,2.5324 l 3.9819,4.2990 l 4.0565,1.8913 l 4.0160,-5.2760 l 4.0188,5.5023 l 4.1299,3.4633 l 4.2432,5.1066 l 4.3768,4.4914 l 4.6722,14.1114 l 4.8802,-1.2718 l 4.9409,4.5540 l 5.1946,8.4112 l 5.5267,7.0635 l 5.9552,10.0331 l 6.4353,6.8695 l 6.9753,8.9601 l 7.7604,10.1751 l 8.9234,11.8549 l 10.6742,12.3497 l 13.5026,13.2464 l 19.2010,14.7616 l 110.0406,25.4229 "/></g></svg>