<?xml version="1.0" encoding="UTF-8"?>
<!DOCTYPE svg PUBLIC "-//W3C//DTD SVG 1.1//EN"
    "http://www.w3.org/Graphics/SVG/1.1/DTD/svg11.dtd"><svg xmlns="http://www.w3.org/2000/svg" height="400.0000" stroke-opacity="1" viewBox="0 0 400 400" font-size="1" width="400.0000" xmlns:xlink="http://www.w3.org/1999/xlink" stroke="rgb(0,0,0)" version="1.1"><defs></defs><g stroke-linejoin="miter" stroke-opacity="0.0" fill-opacity="0.5" stroke="rgb(0,0,0)" stroke-width="0.0" fill="rgb(102,26,102)" stroke-linecap="butt" stroke-miterlimit="10.0"><path d="M 63.0037,336.9963 l -0.0000,-293.0403 h -5.8608 l -0.0000,293.0403 Z"/></g><g stroke-linejoin="miter" stroke-opacity="1.0" fill-opacity="0.7" font-size="11.721611721611717px" stroke="rgb(0,0,0)" stroke-width="1.5999999999999999" fill="rgb(51,51,51)" stroke-linecap="butt" stroke-miterlimit="10.0"><text dominant-baseline="middle" transform="matrix(1.0000,0.0000,0.0000,1.0000,48.3516,49.5936)" stroke="none" text-anchor="end">4.0</text></g><g stroke-linejoin="miter" stroke-opacity="0.5" fill-opacity="0.0" stroke="rgb(26,102,204)" stroke-width="1.5999999999999999" fill="rgb(0,0,0)" stroke-linecap="butt" stroke-miterlimit="10.0"><path d="M 54.2125,49.5936 h 5.8608 "/></g><g stroke-linejoin="miter" stroke-opacity="1.0" fill-opacity="0.7" font-size="11.721611721611717px" stroke="rgb(0,0,0)" stroke-width="1.5999999999999999" fill="rgb(51,51,51)" stroke-linecap="butt" stroke-miterlimit="10.0"><text dominant-baseline="middle" transform="matrix(1.0000,0.0000,0.0000,1.0000,48.3516,78.2165)" stroke="none" text-anchor="end">3.0</text></g><g stroke-linejoin="miter" stroke-opacity="0.5" fill-opacity="0.0" stroke="rgb(26,102,204)" stroke-width="1.5999999999999999" fill="rgb(0,0,0)" stroke-linecap="butt" stroke-miterlimit="10.0"><path d="M 54.2125,78.2165 h 5.8608 "/></g><g stroke-linejoin="miter" stroke-opacity="1.0" fill-opacity="0.7" font-size="11.721611721611717px" stroke="rgb(0,0,0)" stroke-width="1.5999999999999999" fill="rgb(51,51,51)" stroke-linecap="butt" stroke-miterlimit="10.0"><text dominant-baseline="middle" transform="matrix(1.0000,0.0000,0.0000,1.0000,48.3516,106.8393)" stroke="none" text-anchor="end">2.0</text></g><g stroke-linejoin="miter" stroke-opacity="0.5" fill-opacity="0.0" stroke="rgb(26,102,204)" stroke-width="1.5999999999999999" fill="rgb(0,0,0)" stroke-linecap="butt" stroke-miterlimit="10.0"><path d="M 54.2125,106.8393 h 5.8608 "/></g><g stroke-linejoin="miter" stroke-opacity="1.0" fill-opacity="0.7" font-size="11.721611721611717px" stroke="rgb(0,0,0)" stroke-width="1.5999999999999999" fill="rgb(51,51,51)" stroke-linecap="butt" stroke-miterlimit="10.0"><text dominant-baseline="middle" transform="matrix(1.0000,0.0000,0.0000,1.0000,48.3516,135.4622)" stroke="none" text-anchor="end">1.0</text></g><g stroke-linejoin="miter" stroke-opacity="0.5" fill-opacity="0.0" stroke="rgb(26,102,204)" stroke-width="1.5999999999999999" fill="rgb(0,0,0)" stroke-linecap="butt" stroke-miterlimit="10.0"><path d="M 54.2125,135.4622 h 5.8608 "/></g><g stroke-linejoin="miter" stroke-opacity="1.0" fill-opacity="0.7" font-size="11.721611721611717px" stroke="rgb(0,0,0)" stroke-width="1.5999999999999999" fill="rgb(51,51,51)" stroke-linecap="butt" stroke-miterlimit="10.0"><text dominant-baseline="middle" transform="matrix(1.0000,0.0000,0.0000,1.0000,48.3516,164.0851)" stroke="none" text-anchor="end">0.0</text></g><g stroke-linejoin="miter" stroke-opacity="0.5" fill-opacity="0.0" stroke="rgb(26,102,204)" stroke-width="1.5999999999999999" fill="rgb(0,0,0)" stroke-linecap="butt" stroke-miterlimit="10.0"><path d="M 54.2125,164.0851 h 5.8608 "/></g><g stroke-linejoin="miter" stroke-opacity="1.0" fill-opacity="0.7" font-size="11.721611721611717px" stroke="rgb(0,0,0)" stroke-width="1.5999999999999999" fill="rgb(51,51,51)" stroke-linecap="butt" stroke-miterlimit="10.0"><text dominant-baseline="middle" transform="matrix(1.0000,0.0000,0.0000,1.0000,48.3516,192.7079)" stroke="none" text-anchor="end">-1.0</text></g><g stroke-linejoin="miter" stroke-opacity="0.5" fill-opacity="0.0" stroke="rgb(26,102,204)" stroke-width="1.5999999999999999" fill="rgb(0,0,0)" stroke-linecap="butt" stroke-miterlimit="10.0"><path d="M 54.2125,192.7079 h 5.8608 "/></g><g stroke-linejoin="miter" stroke-opacity="1.0" fill-opacity="0.7" font-size="11.721611721611717px" stroke="rgb(0,0,0)" stroke-width="1.5999999999999999" fill="rgb(51,51,51)" stroke-linecap="butt" stroke-miterlimit="10.0"><text dominant-baseline="middle" transform="matrix(1.0000,0.0000,0.0000,1.0000,48.3516,221.3308)" stroke="none" text-anchor="end">-2.0</text></g><g stroke-linejoin="miter" stroke-opacity="0.5" fill-opacity="0.0" stroke="rgb(26,102,204)" stroke-width="1.5999999999999999" fill="rgb(0,0,0)" stroke-linecap="butt" stroke-miterlimit="10.0"><path d="M 54.2125,221.3308 h 5.8608 "/></g><g stroke-linejoin="miter" stroke-opacity="1.0" fill-opacity="0.7" font-size="11.721611721611717px" stroke="rgb(0,0,0)" stroke-width="1.5999999999999999" fill="rgb(51,51,51)" stroke-linecap="butt" stroke-miterlimit="10.0"><text dominant-baseline="middle" transform="matrix(1.0000,0.0000,0.0000,1.0000,48.3516,249.9537)" stroke="none" text-anchor="end">-3.0</text></g><g stroke-linejoin="miter" stroke-opacity="0.5" fill-opacity="0.0" stroke="rgb(26,102,204)" stroke-width="1.5999999999999999" fill="rgb(0,0,0)" stroke-linecap="butt" stroke-miterlimit="10.0"><path d="M 54.2125,249.9537 h 5.8608 "/></g><g stroke-linejoin="miter" stroke-opacity="1.0" fill-opacity="0.7" font-size="11.721611721611717px" stroke="rgb(0,0,0)" stroke-width="1.5999999999999999" fill="rgb(51,51,51)" stroke-linecap="butt" stroke-miterlimit="10.0"><text dominant-baseline="middle" transform="matrix(1.0000,0.0000,0.0000,1.0000,48.3516,278.5765)" stroke="none" text-anchor="end">-4.0</text></g><g stroke-linejoin="miter" stroke-opacity="0.5" fill-opacity="0.0" stroke="rgb(26,102,204)" stroke-width="1.5999999999999999" fill="rgb(0,0,0)" stroke-linecap="butt" stroke-miterlimit="10.0"><path d="M 54.2125,278.5765 h 5.8608 "/></g><g stroke-linejoin="miter" stroke-opacity="1.0" fill-opacity="0.7" font-size="11.721611721611717px" stroke="rgb(0,0,0)" stroke-width="1.5999999999999999" fill="rgb(51,51,51)" stroke-linecap="butt" stroke-miterlimit="10.0"><text dominant-baseline="middle" transform="matrix(1.0000,0.0000,0.0000,1.0000,48.3516,307.1994)" stroke="none" text-anchor="end">-5.0</text></g><g stroke-linejoin="miter" stroke-opacity="0.5" fill-opacity="0.0" stroke="rgb(26,102,204)" stroke-width="1.5999999999999999" fill="rgb(0,0,0)" stroke-linecap="butt" stroke-miterlimit="10.0"><path d="M 54.2125,307.1994 h 5.8608 "/></g><g stroke-linejoin="miter" stroke-opacity="1.0" fill-opacity="0.7" font-size="11.721611721611717px" stroke="rgb(0,0,0)" stroke-width="1.5999999999999999" fill="rgb(51,51,51)" stroke-linecap="butt" stroke-miterlimit="10.0"><text dominant-baseline="middle" transform="matrix(1.0000,0.0000,0.0000,1.0000,48.3516,335.8222)" stroke="none" text-anchor="end">-6.0</text></g><g stroke-linejoin="miter" stroke-opacity="0.5" fill-opacity="0.0" stroke="rgb(26,102,204)" stroke-width="1.5999999999999999" fill="rgb(0,0,0)" stroke-linecap="butt" stroke-miterlimit="10.0"><path d="M 54.2125,335.8222 h 5.8608 "/></g><g stroke-linejoin="miter" stroke-opacity="0.0" fill-opacity="0.5" stroke="rgb(0,0,0)" stroke-width="0.0" fill="rgb(102,26,102)" stroke-linecap="butt" stroke-miterlimit="10.0"><path d="M 356.0440,342.8571 l -0.0000,-5.8608 h -293.0403 l -0.0000,5.8608 Z"/></g><g stroke-linejoin="miter" stroke-opacity="1.0" fill-opacity="0.7" font-size="11.721611721611717px" stroke="rgb(0,0,0)" stroke-width="1.5999999999999999" fill="rgb(51,51,51)" stroke-linecap="butt" stroke-miterlimit="10.0"><text dominant-baseline="text-before-edge" transform="matrix(1.0000,0.0000,0.0000,1.0000,315.6246,351.6484)" stroke="none" text-anchor="middle">25</text></g><g stroke-linejoin="miter" stroke-opacity="0.5" fill-opacity="0.0" stroke="rgb(26,102,204)" stroke-width="1.5999999999999999" fill="rgb(0,0,0)" stroke-linecap="butt" stroke-miterlimit="10.0"><path d="M 315.6246,339.9267 v 5.8608 "/></g><g stroke-linejoin="miter" stroke-opacity="1.0" fill-opacity="0.7" font-size="11.721611721611717px" stroke="rgb(0,0,0)" stroke-width="1.5999999999999999" fill="rgb(51,51,51)" stroke-linecap="butt" stroke-miterlimit="10.0"><text dominant-baseline="text-before-edge" transform="matrix(1.0000,0.0000,0.0000,1.0000,265.1004,351.6484)" stroke="none" text-anchor="middle">20</text></g><g stroke-linejoin="miter" stroke-opacity="0.5" fill-opacity="0.0" stroke="rgb(26,102,204)" stroke-width="1.5999999999999999" fill="rgb(0,0,0)" stroke-linecap="butt" stroke-miterlimit="10.0"><path d="M 265.1004,339.9267 v 5.8608 "/></g><g stroke-linejoin="miter" stroke-opacity="1.0" fill-opacity="0.7" font-size="11.721611721611717px" stroke="rgb(0,0,0)" stroke-width="1.5999999999999999" fill="rgb(51,51,51)" stroke-linecap="butt" stroke-miterlimit="10.0"><text dominant-baseline="text-before-edge" transform="matrix(1.0000,0.0000,0.0000,1.0000,214.5762,351.6484)" stroke="none" text-anchor="middle">15</text></g><g stroke-linejoin="miter" stroke-opacity="0.5" fill-opacity="0.0" stroke="rgb(26,102,204)" stroke-width="1.5999999999999999" fill="rgb(0,0,0)" stroke-linecap="butt" stroke-miterlimit="10.0"><path d="M 214.5762,339.9267 v 5.8608 "/></g><g stroke-linejoin="miter" stroke-opacity="1.0" fill-opacity="0.7" font-size="11.721611721611717px" stroke="rgb(0,0,0)" stroke-width="1.5999999999999999" fill="rgb(51,51,51)" stroke-linecap="butt" stroke-miterlimit="10.0"><text dominant-baseline="text-before-edge" transform="matrix(1.0000,0.0000,0.0000,1.0000,164.0520,351.6484)" stroke="none" text-anchor="middle">10</text></g><g stroke-linejoin="miter" stroke-opacity="0.5" fill-opacity="0.0" stroke="rgb(26,102,204)" stroke-width="1.5999999999999999" fill="rgb(0,0,0)" stroke-linecap="butt" stroke-miterlimit="10.0"><path d="M 164.0520,339.9267 v 5.8608 "/></g><g stroke-linejoin="miter" stroke-opacity="1.0" fill-opacity="0.7" font-size="11.721611721611717px" stroke="rgb(0,0,0)" stroke-width="1.5999999999999999" fill="rgb(51,51,51)" stroke-linecap="butt" stroke-miterlimit="10.0"><text dominant-baseline="text-before-edge" transform="matrix(1.0000,0.0000,0.0000,1.0000,113.5279,351.6484)" stroke="none" text-anchor="middle">5.0</text></g><g stroke-linejoin="miter" stroke-opacity="0.5" fill-opacity="0.0" stroke="rgb(26,102,204)" stroke-width="1.5999999999999999" fill="rgb(0,0,0)" stroke-linecap="butt" stroke-miterlimit="10.0"><path d="M 113.5279,339.9267 v 5.8608 "/></g><g stroke-linejoin="miter" stroke-opacity="1.0" fill-opacity="0.7" font-size="11.721611721611717px" stroke="rgb(0,0,0)" stroke-width="1.5999999999999999" fill="rgb(51,51,51)" stroke-linecap="butt" stroke-miterlimit="10.0"><text dominant-baseline="text-before-edge" transform="matrix(1.0000,0.0000,0.0000,1.0000,63.0037,351.6484)" stroke="none" text-anchor="middle">0.0</text></g><g stroke-linejoin="miter" stroke-opacity="0.5" fill-opacity="0.0" stroke="rgb(26,102,204)" stroke-width="1.5999999999999999" fill="rgb(0,0,0)" stroke-linecap="butt" stroke-miterlimit="10.0"><path d="M 63.0037,339.9267 v 5.8608 "/></g><g stroke-linejoin="miter" stroke-opacity="0.5" fill-opacity="0.0" stroke="rgb(241,124,176)" stroke-width="3.9999999999999996" fill="rgb(0,0,0)" stroke-linecap="butt" stroke-miterlimit="10.0"><path d="M 63.0037,186.6630 l 10.1048,6.7732 l 10.1048,-31.7503 l 10.1048,-25.2046 l 10.1048,31.1811 l 10.1048,-2.8287 l 10.1048,27.6912 l 10.1048,-11.0841 l 10.1048,7.9756 l 10.1048,36.7131 l 10.1048,3.1537 l 10.1048,-30.3026 l 10.1048,-28.2865 l 10.1048,-12.0724 l 10.1048,1.7080 l 10.1048,47.9670 l 10.1048,-29.5004 l 10.1048,-5.1648 l 10.1048,-50.0987 l 10.1048,40.8690 l 10.1048,26.8135 l 10.1048,7.3070 l 10.1048,-43.6265 l 10.1048,-14.6508 l 10.1048,25.8745 l 10.1048,-41.9023 l 10.1048,0.4788 l 10.1048,7.6279 l 10.1048,77.7836 l 10.1048,70.2423 "/></g><g stroke-linejoin="miter" stroke-opacity="0.5" fill-opacity="0.0" stroke="rgb(96,189,104)" stroke-width="3.9999999999999996" fill="rgb(0,0,0)" stroke-linecap="butt" stroke-miterlimit="10.0"><path d="M 63.0037,171.9535 l 10.1048,6.7907 l 10.1048,-12.8807 l 10.1048,-9.4776 l 10.1048,-41.0112 l 10.1048,23.8867 l 10.1048,13.6204 l 10.1048,51.7222 l 10.1048,15.9131 l 10.1048,4.9297 l 10.1048,-55.9461 l 10.1048,-31.3723 l 10.1048,8.0916 l 10.1048,2.9540 l 10.1048,20.1452 l 10.1048,-39.4160 l 10.1048,-18.1928 l 10.1048,-23.2644 l 10.1048,59.1681 l 10.1048,-0.3225 l 10.1048,35.1656 l 10.1048,-3.2507 l 10.1048,-49.7280 l 10.1048,-23.5620 l 10.1048,50.1303 l 10.1048,-17.0209 l 10.1048,45.2924 l 10.1048,-42.0890 l 10.1048,-16.4503 l 10.1048,-23.4407 "/></g><g stroke-linejoin="miter" stroke-opacity="0.5" fill-opacity="0.0" stroke="rgb(250,165,218)" stroke-width="3.9999999999999996" fill="rgb(0,0,0)" stroke-linecap="butt" stroke-miterlimit="10.0"><path d="M 63.0037,180.4427 l 10.1048,-2.9804 l 10.1048,4.9065 l 10.1048,39.8232 l 10.1048,13.2570 l 10.1048,37.5630 l 10.1048,17.6529 l 10.1048,-63.5307 l 10.1048,-5.2754 l 10.1048,-26.6701 l 10.1048,16.8563 l 10.1048,12.7499 l 10.1048,-11.5718 l 10.1048,-15.9654 l 10.1048,22.3201 l 10.1048,4.5224 l 10.1048,30.8488 l 10.1048,-26.2739 l 10.1048,-21.9978 l 10.1048,-8.5565 l 10.1048,4.0431 l 10.1048,9.9811 l 10.1048,-21.4486 l 10.1048,-48.1548 l 10.1048,7.3377 l 10.1048,2.3311 l 10.1048,32.7491 l 10.1048,-1.6685 l 10.1048,28.1477 l 10.1048,-53.2658 "/></g><g stroke-linejoin="miter" stroke-opacity="0.5" fill-opacity="0.0" stroke="rgb(93,165,218)" stroke-width="3.9999999999999996" fill="rgb(0,0,0)" stroke-linecap="butt" stroke-miterlimit="10.0"><path d="M 63.0037,175.7806 l 10.1048,3.7854 l 10.1048,-17.2990 l 10.1048,-19.5514 l 10.1048,7.6627 l 10.1048,5.0849 l 10.1048,7.6487 l 10.1048,-29.7722 l 10.1048,20.5795 l 10.1048,-50.5719 l 10.1048,-35.2969 l 10.1048,-11.2020 l 10.1048,-12.8922 l 10.1048,17.9202 l 10.1048,2.4733 l 10.1048,1.1825 l 10.1048,34.5092 l 10.1048,-1.3457 l 10.1048,-5.7191 l 10.1048,30.6418 l 10.1048,-33.4244 l 10.1048,-0.7350 l 10.1048,8.8768 l 10.1048,-15.3586 l 10.1048,6.4140 l 10.1048,-17.5252 l 10.1048,-0.0414 l 10.1048,-11.0843 l 10.1048,22.1898 l 10.1048,20.4824 "/></g><g stroke-linejoin="miter" stroke-opacity="0.5" fill-opacity="0.0" stroke="rgb(85,85,85)" stroke-width="3.9999999999999996" fill="rgb(0,0,0)" stroke-linecap="butt" stroke-miterlimit="10.0"><path d="M 63.0037,129.5456 l 10.1048,23.9213 l 10.1048,24.0073 l 10.1048,1.4920 l 10.1048,34.2042 l 10.1048,-46.0190 l 10.1048,38.2990 l 10.1048,-31.1654 l 10.1048,-16.3659 l 10.1048,67.7774 l 10.1048,35.4236 l 10.1048,-39.6342 l 10.1048,24.5135 l 10.1048,64.1566 l 10.1048,26.8403 l 10.1048,-15.0009 l 10.1048,-37.8077 l 10.1048,7.0292 l 10.1048,-39.9740 l 10.1048,-52.5367 l 10.1048,-12.9126 l 10.1048,6.4614 l 10.1048,-1.8889 l 10.1048,-10.4290 l 10.1048,-0.0442 l 10.1048,-21.9842 l 10.1048,16.2048 l 10.1048,-31.6136 l 10.1048,-2.8479 l 10.1048,-18.8490 "/></g></svg>