<?xml version="1.0" encoding="UTF-8"?>
<!DOCTYPE svg PUBLIC "-//W3C//DTD SVG 1.1//EN"
    "http://www.w3.org/Graphics/SVG/1.1/DTD/svg11.dtd"><svg xmlns="http://www.w3.org/2000/svg" height="400.0000" stroke-opacity="1" viewBox="0 0 400 400" font-size="1" width="400.0000" xmlns:xlink="http://www.w3.org/1999/xlink" stroke="rgb(0,0,0)" version="1.1"><defs></defs><g stroke-linejoin="miter" stroke-opacity="0.0" fill-opacity="1.0" stroke="rgb(0,0,0)" stroke-width="0.0" fill="rgb(241,124,176)" stroke-linecap="butt" stroke-miterlimit="10.0"><path d="M 400.0000,68.4211 c 0.0000,-1.4534 -1.1782,-2.6316 -2.6316 -2.6316c -1.4534,-0.0000 -2.6316,1.1782 -2.6316 2.6316c -0.0000,1.4534 1.1782,2.6316 2.6316 2.6316c 1.4534,0.0000 2.6316,-1.1782 2.6316 -2.6316Z"/></g><g stroke-linejoin="miter" stroke-opacity="0.0" fill-opacity="1.0" stroke="rgb(0,0,0)" stroke-width="0.0" fill="rgb(241,124,176)" stroke-linecap="butt" stroke-miterlimit="10.0"><path d="M 400.0000,94.7368 c 0.0000,-1.4534 -1.1782,-2.6316 -2.6316 -2.6316c -1.4534,-0.0000 -2.6316,1.1782 -2.6316 2.6316c -0.0000,1.4534 1.1782,2.6316 2.6316 2.6316c 1.4534,0.0000 2.6316,-1.1782 2.6316 -2.6316Z"/></g><g stroke-linejoin="miter" stroke-opacity="0.0" fill-opacity="1.0" stroke="rgb(0,0,0)" stroke-width="0.0" fill="rgb(241,124,176)" stroke-linecap="butt" stroke-miterlimit="10.0"><path d="M 400.0000,121.0526 c 0.0000,-1.4534 -1.1782,-2.6316 -2.6316 -2.6316c -1.4534,-0.0000 -2.6316,1.1782 -2.6316 2.6316c -0.0000,1.4534 1.1782,2.6316 2.6316 2.6316c 1.4534,0.0000 2.6316,-1.1782 2.6316 -2.6316Z"/></g><g stroke-linejoin="miter" stroke-opacity="0.0" fill-opacity="1.0" stroke="rgb(0,0,0)" stroke-width="0.0" fill="rgb(241,124,176)" stroke-linecap="butt" stroke-miterlimit="10.0"><path d="M 400.0000,147.3684 c 0.0000,-1.4534 -1.1782,-2.6316 -2.6316 -2.6316c -1.4534,-0.0000 -2.6316,1.1782 -2.6316 2.6316c -0.0000,1.4534 1.1782,2.6316 2.6316 2.6316c 1.4534,0.0000 2.6316,-1.1782 2.6316 -2.6316Z"/></g><g stroke-linejoin="miter" stroke-opacity="0.0" fill-opacity="1.0" stroke="rgb(0,0,0)" stroke-width="0.0" fill="rgb(241,124,176)" stroke-linecap="butt" stroke-miterlimit="10.0"><path d="M 400.0000,173.6842 c 0.0000,-1.4534 -1.1782,-2.6316 -2.6316 -2.6316c -1.4534,-0.0000 -2.6316,1.1782 -2.6316 2.6316c -0.0000,1.4534 1.1782,2.6316 2.6316 2.6316c 1.4534,0.0000 2.6316,-1.1782 2.6316 -2.6316Z"/></g><g stroke-linejoin="miter" stroke-opacity="0.0" fill-opacity="1.0" stroke="rgb(0,0,0)" stroke-width="0.0" fill="rgb(241,124,176)" stroke-linecap="butt" stroke-miterlimit="10.0"><path d="M 400.0000,200.0000 c 0.0000,-1.4534 -1.1782,-2.6316 -2.6316 -2.6316c -1.4534,-0.0000 -2.6316,1.1782 -2.6316 2.6316c -0.0000,1.4534 1.1782,2.6316 2.6316 2.6316c 1.4534,0.0000 2.6316,-1.1782 2.6316 -2.6316Z"/></g><g stroke-linejoin="miter" stroke-opacity="0.0" fill-opacity="1.0" stroke="rgb(0,0,0)" stroke-width="0.0" fill="rgb(241,124,176)" stroke-linecap="butt" stroke-miterlimit="10.0"><path d="M 400.0000,226.3158 c 0.0000,-1.4534 -1.1782,-2.6316 -2.6316 -2.6316c -1.4534,-0.0000 -2.6316,1.1782 -2.6316 2.6316c -0.0000,1.4534 1.1782,2.6316 2.6316 2.6316c 1.4534,0.0000 2.6316,-1.1782 2.6316 -2.6316Z"/></g><g stroke-linejoin="miter" stroke-opacity="0.0" fill-opacity="1.0" stroke="rgb(0,0,0)" stroke-width="0.0" fill="rgb(241,124,176)" stroke-linecap="butt" stroke-miterlimit="10.0"><path d="M 400.0000,252.6316 c 0.0000,-1.4534 -1.1782,-2.6316 -2.6316 -2.6316c -1.4534,-0.0000 -2.6316,1.1782 -2.6316 2.6316c -0.0000,1.4534 1.1782,2.6316 2.6316 2.6316c 1.4534,0.0000 2.6316,-1.1782 2.6316 -2.6316Z"/></g><g stroke-linejoin="miter" stroke-opacity="0.0" fill-opacity="1.0" stroke="rgb(0,0,0)" stroke-width="0.0" fill="rgb(241,124,176)" stroke-linecap="butt" stroke-miterlimit="10.0"><path d="M 400.0000,278.9474 c 0.0000,-1.4534 -1.1782,-2.6316 -2.6316 -2.6316c -1.4534,-0.0000 -2.6316,1.1782 -2.6316 2.6316c -0.0000,1.4534 1.1782,2.6316 2.6316 2.6316c 1.4534,0.0000 2.6316,-1.1782 2.6316 -2.6316Z"/></g><g stroke-linejoin="miter" stroke-opacity="0.0" fill-opacity="1.0" stroke="rgb(0,0,0)" stroke-width="0.0" fill="rgb(241,124,176)" stroke-linecap="butt" stroke-miterlimit="10.0"><path d="M 400.0000,305.2632 c 0.0000,-1.4534 -1.1782,-2.6316 -2.6316 -2.6316c -1.4534,-0.0000 -2.6316,1.1782 -2.6316 2.6316c -0.0000,1.4534 1.1782,2.6316 2.6316 2.6316c 1.4534,0.0000 2.6316,-1.1782 2.6316 -2.6316Z"/></g><g stroke-linejoin="miter" stroke-opacity="0.0" fill-opacity="1.0" stroke="rgb(0,0,0)" stroke-width="0.0" fill="rgb(241,124,176)" stroke-linecap="butt" stroke-miterlimit="10.0"><path d="M 400.0000,331.5789 c 0.0000,-1.4534 -1.1782,-2.6316 -2.6316 -2.6316c -1.4534,-0.0000 -2.6316,1.1782 -2.6316 2.6316c -0.0000,1.4534 1.1782,2.6316 2.6316 2.6316c 1.4534,0.0000 2.6316,-1.1782 2.6316 -2.6316Z"/></g><g stroke-linejoin="miter" stroke-opacity="0.0" fill-opacity="1.0" stroke="rgb(0,0,0)" stroke-width="0.0" fill="rgb(241,124,176)" stroke-linecap="butt" stroke-miterlimit="10.0"><path d="M 360.5263,68.4211 c 0.0000,-1.4534 -1.1782,-2.6316 -2.6316 -2.6316c -1.4534,-0.0000 -2.6316,1.1782 -2.6316 2.6316c -0.0000,1.4534 1.1782,2.6316 2.6316 2.6316c 1.4534,0.0000 2.6316,-1.1782 2.6316 -2.6316Z"/></g><g stroke-linejoin="miter" stroke-opacity="0.0" fill-opacity="1.0" stroke="rgb(0,0,0)" stroke-width="0.0" fill="rgb(241,124,176)" stroke-linecap="butt" stroke-miterlimit="10.0"><path d="M 360.5263,94.7368 c 0.0000,-1.4534 -1.1782,-2.6316 -2.6316 -2.6316c -1.4534,-0.0000 -2.6316,1.1782 -2.6316 2.6316c -0.0000,1.4534 1.1782,2.6316 2.6316 2.6316c 1.4534,0.0000 2.6316,-1.1782 2.6316 -2.6316Z"/></g><g stroke-linejoin="miter" stroke-opacity="0.0" fill-opacity="1.0" stroke="rgb(0,0,0)" stroke-width="0.0" fill="rgb(241,124,176)" stroke-linecap="butt" stroke-miterlimit="10.0"><path d="M 360.5263,121.0526 c 0.0000,-1.4534 -1.1782,-2.6316 -2.6316 -2.6316c -1.4534,-0.0000 -2.6316,1.1782 -2.6316 2.6316c -0.0000,1.4534 1.1782,2.6316 2.6316 2.6316c 1.4534,0.0000 2.6316,-1.1782 2.6316 -2.6316Z"/></g><g stroke-linejoin="miter" stroke-opacity="0.0" fill-opacity="1.0" stroke="rgb(0,0,0)" stroke-width="0.0" fill="rgb(241,124,176)" stroke-linecap="butt" stroke-miterlimit="10.0"><path d="M 360.5263,147.3684 c 0.0000,-1.4534 -1.1782,-2.6316 -2.6316 -2.6316c -1.4534,-0.0000 -2.6316,1.1782 -2.6316 2.6316c -0.0000,1.4534 1.1782,2.6316 2.6316 2.6316c 1.4534,0.0000 2.6316,-1.1782 2.6316 -2.6316Z"/></g><g stroke-linejoin="miter" stroke-opacity="0.0" fill-opacity="1.0" stroke="rgb(0,0,0)" stroke-width="0.0" fill="rgb(241,124,176)" stroke-linecap="butt" stroke-miterlimit="10.0"><path d="M 360.5263,173.6842 c 0.0000,-1.4534 -1.1782,-2.6316 -2.6316 -2.6316c -1.4534,-0.0000 -2.6316,1.1782 -2.6316 2.6316c -0.0000,1.4534 1.1782,2.6316 2.6316 2.6316c 1.4534,0.0000 2.6316,-1.1782 2.6316 -2.6316Z"/></g><g stroke-linejoin="miter" stroke-opacity="0.0" fill-opacity="1.0" stroke="rgb(0,0,0)" stroke-width="0.0" fill="rgb(241,124,176)" stroke-linecap="butt" stroke-miterlimit="10.0"><path d="M 360.5263,200.0000 c 0.0000,-1.4534 -1.1782,-2.6316 -2.6316 -2.6316c -1.4534,-0.0000 -2.6316,1.1782 -2.6316 2.6316c -0.0000,1.4534 1.1782,2.6316 2.6316 2.6316c 1.4534,0.0000 2.6316,-1.1782 2.6316 -2.6316Z"/></g><g stroke-linejoin="miter" stroke-opacity="0.0" fill-opacity="1.0" stroke="rgb(0,0,0)" stroke-width="0.0" fill="rgb(241,124,176)" stroke-linecap="butt" stroke-miterlimit="10.0"><path d="M 360.5263,226.3158 c 0.0000,-1.4534 -1.1782,-2.6316 -2.6316 -2.6316c -1.4534,-0.0000 -2.6316,1.1782 -2.6316 2.6316c -0.0000,1.4534 1.1782,2.6316 2.6316 2.6316c 1.4534,0.0000 2.6316,-1.1782 2.6316 -2.6316Z"/></g><g stroke-linejoin="miter" stroke-opacity="0.0" fill-opacity="1.0" stroke="rgb(0,0,0)" stroke-width="0.0" fill="rgb(241,124,176)" stroke-linecap="butt" stroke-miterlimit="10.0"><path d="M 360.5263,252.6316 c 0.0000,-1.4534 -1.1782,-2.6316 -2.6316 -2.6316c -1.4534,-0.0000 -2.6316,1.1782 -2.6316 2.6316c -0.0000,1.4534 1.1782,2.6316 2.6316 2.6316c 1.4534,0.0000 2.6316,-1.1782 2.6316 -2.6316Z"/></g><g stroke-linejoin="miter" stroke-opacity="0.0" fill-opacity="1.0" stroke="rgb(0,0,0)" stroke-width="0.0" fill="rgb(241,124,176)" stroke-linecap="butt" stroke-miterlimit="10.0"><path d="M 360.5263,278.9474 c 0.0000,-1.4534 -1.1782,-2.6316 -2.6316 -2.6316c -1.4534,-0.0000 -2.6316,1.1782 -2.6316 2.6316c -0.0000,1.4534 1.1782,2.6316 2.6316 2.6316c 1.4534,0.0000 2.6316,-1.1782 2.6316 -2.6316Z"/></g><g stroke-linejoin="miter" stroke-opacity="0.0" fill-opacity="1.0" stroke="rgb(0,0,0)" stroke-width="0.0" fill="rgb(241,124,176)" stroke-linecap="butt" stroke-miterlimit="10.0"><path d="M 360.5263,305.2632 c 0.0000,-1.4534 -1.1782,-2.6316 -2.6316 -2.6316c -1.4534,-0.0000 -2.6316,1.1782 -2.6316 2.6316c -0.0000,1.4534 1.1782,2.6316 2.6316 2.6316c 1.4534,0.0000 2.6316,-1.1782 2.6316 -2.6316Z"/></g><g stroke-linejoin="miter" stroke-opacity="0.0" fill-opacity="1.0" stroke="rgb(0,0,0)" stroke-width="0.0" fill="rgb(241,124,176)" stroke-linecap="butt" stroke-miterlimit="10.0"><path d="M 360.5263,331.5789 c 0.0000,-1.4534 -1.1782,-2.6316 -2.6316 -2.6316c -1.4534,-0.0000 -2.6316,1.1782 -2.6316 2.6316c -0.0000,1.4534 1.1782,2.6316 2.6316 2.6316c 1.4534,0.0000 2.6316,-1.1782 2.6316 -2.6316Z"/></g><g stroke-linejoin="miter" stroke-opacity="0.0" fill-opacity="1.0" stroke="rgb(0,0,0)" stroke-width="0.0" fill="rgb(241,124,176)" stroke-linecap="butt" stroke-miterlimit="10.0"><path d="M 321.0526,68.4211 c 0.0000,-1.4534 -1.1782,-2.6316 -2.6316 -2.6316c -1.4534,-0.0000 -2.6316,1.1782 -2.6316 2.6316c -0.0000,1.4534 1.1782,2.6316 2.6316 2.6316c 1.4534,0.0000 2.6316,-1.1782 2.6316 -2.6316Z"/></g><g stroke-linejoin="miter" stroke-opacity="0.0" fill-opacity="1.0" stroke="rgb(0,0,0)" stroke-width="0.0" fill="rgb(241,124,176)" stroke-linecap="butt" stroke-miterlimit="10.0"><path d="M 321.0526,94.7368 c 0.0000,-1.4534 -1.1782,-2.6316 -2.6316 -2.6316c -1.4534,-0.0000 -2.6316,1.1782 -2.6316 2.6316c -0.0000,1.4534 1.1782,2.6316 2.6316 2.6316c 1.4534,0.0000 2.6316,-1.1782 2.6316 -2.6316Z"/></g><g stroke-linejoin="miter" stroke-opacity="0.0" fill-opacity="1.0" stroke="rgb(0,0,0)" stroke-width="0.0" fill="rgb(241,124,176)" stroke-linecap="butt" stroke-miterlimit="10.0"><path d="M 321.0526,121.0526 c 0.0000,-1.4534 -1.1782,-2.6316 -2.6316 -2.6316c -1.4534,-0.0000 -2.6316,1.1782 -2.6316 2.6316c -0.0000,1.4534 1.1782,2.6316 2.6316 2.6316c 1.4534,0.0000 2.6316,-1.1782 2.6316 -2.6316Z"/></g><g stroke-linejoin="miter" stroke-opacity="0.0" fill-opacity="1.0" stroke="rgb(0,0,0)" stroke-width="0.0" fill="rgb(241,124,176)" stroke-linecap="butt" stroke-miterlimit="10.0"><path d="M 321.0526,147.3684 c 0.0000,-1.4534 -1.1782,-2.6316 -2.6316 -2.6316c -1.4534,-0.0000 -2.6316,1.1782 -2.6316 2.6316c -0.0000,1.4534 1.1782,2.6316 2.6316 2.6316c 1.4534,0.0000 2.6316,-1.1782 2.6316 -2.6316Z"/></g><g stroke-linejoin="miter" stroke-opacity="0.0" fill-opacity="1.0" stroke="rgb(0,0,0)" stroke-width="0.0" fill="rgb(241,124,176)" stroke-linecap="butt" stroke-miterlimit="10.0"><path d="M 321.0526,173.6842 c 0.0000,-1.4534 -1.1782,-2.6316 -2.6316 -2.6316c -1.4534,-0.0000 -2.6316,1.1782 -2.6316 2.6316c -0.0000,1.4534 1.1782,2.6316 2.6316 2.6316c 1.4534,0.0000 2.6316,-1.1782 2.6316 -2.6316Z"/></g><g stroke-linejoin="miter" stroke-opacity="0.0" fill-opacity="1.0" stroke="rgb(0,0,0)" stroke-width="0.0" fill="rgb(241,124,176)" stroke-linecap="butt" stroke-miterlimit="10.0"><path d="M 321.0526,200.0000 c 0.0000,-1.4534 -1.1782,-2.6316 -2.6316 -2.6316c -1.4534,-0.0000 -2.6316,1.1782 -2.6316 2.6316c -0.0000,1.4534 1.1782,2.6316 2.6316 2.6316c 1.4534,0.0000 2.6316,-1.1782 2.6316 -2.6316Z"/></g><g stroke-linejoin="miter" stroke-opacity="0.0" fill-opacity="1.0" stroke="rgb(0,0,0)" stroke-width="0.0" fill="rgb(241,124,176)" stroke-linecap="butt" stroke-miterlimit="10.0"><path d="M 321.0526,226.3158 c 0.0000,-1.4534 -1.1782,-2.6316 -2.6316 -2.6316c -1.4534,-0.0000 -2.6316,1.1782 -2.6316 2.6316c -0.0000,1.4534 1.1782,2.6316 2.6316 2.6316c 1.4534,0.0000 2.6316,-1.1782 2.6316 -2.6316Z"/></g><g stroke-linejoin="miter" stroke-opacity="0.0" fill-opacity="1.0" stroke="rgb(0,0,0)" stroke-width="0.0" fill="rgb(241,124,176)" stroke-linecap="butt" stroke-miterlimit="10.0"><path d="M 321.0526,252.6316 c 0.0000,-1.4534 -1.1782,-2.6316 -2.6316 -2.6316c -1.4534,-0.0000 -2.6316,1.1782 -2.6316 2.6316c -0.0000,1.4534 1.1782,2.6316 2.6316 2.6316c 1.4534,0.0000 2.6316,-1.1782 2.6316 -2.6316Z"/></g><g stroke-linejoin="miter" stroke-opacity="0.0" fill-opacity="1.0" stroke="rgb(0,0,0)" stroke-width="0.0" fill="rgb(241,124,176)" stroke-linecap="butt" stroke-miterlimit="10.0"><path d="M 321.0526,278.9474 c 0.0000,-1.4534 -1.1782,-2.6316 -2.6316 -2.6316c -1.4534,-0.0000 -2.6316,1.1782 -2.6316 2.6316c -0.0000,1.4534 1.1782,2.6316 2.6316 2.6316c 1.4534,0.0000 2.6316,-1.1782 2.6316 -2.6316Z"/></g><g stroke-linejoin="miter" stroke-opacity="0.0" fill-opacity="1.0" stroke="rgb(0,0,0)" stroke-width="0.0" fill="rgb(241,124,176)" stroke-linecap="butt" stroke-miterlimit="10.0"><path d="M 321.0526,305.2632 c 0.0000,-1.4534 -1.1782,-2.6316 -2.6316 -2.6316c -1.4534,-0.0000 -2.6316,1.1782 -2.6316 2.6316c -0.0000,1.4534 1.1782,2.6316 2.6316 2.6316c 1.4534,0.0000 2.6316,-1.1782 2.6316 -2.6316Z"/></g><g stroke-linejoin="miter" stroke-opacity="0.0" fill-opacity="1.0" stroke="rgb(0,0,0)" stroke-width="0.0" fill="rgb(241,124,176)" stroke-linecap="butt" stroke-miterlimit="10.0"><path d="M 321.0526,331.5789 c 0.0000,-1.4534 -1.1782,-2.6316 -2.6316 -2.6316c -1.4534,-0.0000 -2.6316,1.1782 -2.6316 2.6316c -0.0000,1.4534 1.1782,2.6316 2.6316 2.6316c 1.4534,0.0000 2.6316,-1.1782 2.6316 -2.6316Z"/></g><g stroke-linejoin="miter" stroke-opacity="0.0" fill-opacity="1.0" stroke="rgb(0,0,0)" stroke-width="0.0" fill="rgb(241,124,176)" stroke-linecap="butt" stroke-miterlimit="10.0"><path d="M 281.5789,68.4211 c 0.0000,-1.4534 -1.1782,-2.6316 -2.6316 -2.6316c -1.4534,-0.0000 -2.6316,1.1782 -2.6316 2.6316c -0.0000,1.4534 1.1782,2.6316 2.6316 2.6316c 1.4534,0.0000 2.6316,-1.1782 2.6316 -2.6316Z"/></g><g stroke-linejoin="miter" stroke-opacity="0.0" fill-opacity="1.0" stroke="rgb(0,0,0)" stroke-width="0.0" fill="rgb(241,124,176)" stroke-linecap="butt" stroke-miterlimit="10.0"><path d="M 281.5789,94.7368 c 0.0000,-1.4534 -1.1782,-2.6316 -2.6316 -2.6316c -1.4534,-0.0000 -2.6316,1.1782 -2.6316 2.6316c -0.0000,1.4534 1.1782,2.6316 2.6316 2.6316c 1.4534,0.0000 2.6316,-1.1782 2.6316 -2.6316Z"/></g><g stroke-linejoin="miter" stroke-opacity="0.0" fill-opacity="1.0" stroke="rgb(0,0,0)" stroke-width="0.0" fill="rgb(241,124,176)" stroke-linecap="butt" stroke-miterlimit="10.0"><path d="M 281.5789,121.0526 c 0.0000,-1.4534 -1.1782,-2.6316 -2.6316 -2.6316c -1.4534,-0.0000 -2.6316,1.1782 -2.6316 2.6316c -0.0000,1.4534 1.1782,2.6316 2.6316 2.6316c 1.4534,0.0000 2.6316,-1.1782 2.6316 -2.6316Z"/></g><g stroke-linejoin="miter" stroke-opacity="0.0" fill-opacity="1.0" stroke="rgb(0,0,0)" stroke-width="0.0" fill="rgb(241,124,176)" stroke-linecap="butt" stroke-miterlimit="10.0"><path d="M 281.5789,147.3684 c 0.0000,-1.4534 -1.1782,-2.6316 -2.6316 -2.6316c -1.4534,-0.0000 -2.6316,1.1782 -2.6316 2.6316c -0.0000,1.4534 1.1782,2.6316 2.6316 2.6316c 1.4534,0.0000 2.6316,-1.1782 2.6316 -2.6316Z"/></g><g stroke-linejoin="miter" stroke-opacity="0.0" fill-opacity="1.0" stroke="rgb(0,0,0)" stroke-width="0.0" fill="rgb(241,124,176)" stroke-linecap="butt" stroke-miterlimit="10.0"><path d="M 281.5789,173.6842 c 0.0000,-1.4534 -1.1782,-2.6316 -2.6316 -2.6316c -1.4534,-0.0000 -2.6316,1.1782 -2.6316 2.6316c -0.0000,1.4534 1.1782,2.6316 2.6316 2.6316c 1.4534,0.0000 2.6316,-1.1782 2.6316 -2.6316Z"/></g><g stroke-linejoin="miter" stroke-opacity="0.0" fill-opacity="1.0" stroke="rgb(0,0,0)" stroke-width="0.0" fill="rgb(241,124,176)" stroke-linecap="butt" stroke-miterlimit="10.0"><path d="M 281.5789,200.0000 c 0.0000,-1.4534 -1.1782,-2.6316 -2.6316 -2.6316c -1.4534,-0.0000 -2.6316,1.1782 -2.6316 2.6316c -0.0000,1.4534 1.1782,2.6316 2.6316 2.6316c 1.4534,0.0000 2.6316,-1.1782 2.6316 -2.6316Z"/></g><g stroke-linejoin="miter" stroke-opacity="0.0" fill-opacity="1.0" stroke="rgb(0,0,0)" stroke-width="0.0" fill="rgb(241,124,176)" stroke-linecap="butt" stroke-miterlimit="10.0"><path d="M 281.5789,226.3158 c 0.0000,-1.4534 -1.1782,-2.6316 -2.6316 -2.6316c -1.4534,-0.0000 -2.6316,1.1782 -2.6316 2.6316c -0.0000,1.4534 1.1782,2.6316 2.6316 2.6316c 1.4534,0.0000 2.6316,-1.1782 2.6316 -2.6316Z"/></g><g stroke-linejoin="miter" stroke-opacity="0.0" fill-opacity="1.0" stroke="rgb(0,0,0)" stroke-width="0.0" fill="rgb(241,124,176)" stroke-linecap="butt" stroke-miterlimit="10.0"><path d="M 281.5789,252.6316 c 0.0000,-1.4534 -1.1782,-2.6316 -2.6316 -2.6316c -1.4534,-0.0000 -2.6316,1.1782 -2.6316 2.6316c -0.0000,1.4534 1.1782,2.6316 2.6316 2.6316c 1.4534,0.0000 2.6316,-1.1782 2.6316 -2.6316Z"/></g><g stroke-linejoin="miter" stroke-opacity="0.0" fill-opacity="1.0" stroke="rgb(0,0,0)" stroke-width="0.0" fill="rgb(241,124,176)" stroke-linecap="butt" stroke-miterlimit="10.0"><path d="M 281.5789,278.9474 c 0.0000,-1.4534 -1.1782,-2.6316 -2.6316 -2.6316c -1.4534,-0.0000 -2.6316,1.1782 -2.6316 2.6316c -0.0000,1.4534 1.1782,2.6316 2.6316 2.6316c 1.4534,0.0000 2.6316,-1.1782 2.6316 -2.6316Z"/></g><g stroke-linejoin="miter" stroke-opacity="0.0" fill-opacity="1.0" stroke="rgb(0,0,0)" stroke-width="0.0" fill="rgb(241,124,176)" stroke-linecap="butt" stroke-miterlimit="10.0"><path d="M 281.5789,305.2632 c 0.0000,-1.4534 -1.1782,-2.6316 -2.6316 -2.6316c -1.4534,-0.0000 -2.6316,1.1782 -2.6316 2.6316c -0.0000,1.4534 1.1782,2.6316 2.6316 2.6316c 1.4534,0.0000 2.6316,-1.1782 2.6316 -2.6316Z"/></g><g stroke-linejoin="miter" stroke-opacity="0.0" fill-opacity="1.0" stroke="rgb(0,0,0)" stroke-width="0.0" fill="rgb(241,124,176)" stroke-linecap="butt" stroke-miterlimit="10.0"><path d="M 281.5789,331.5789 c 0.0000,-1.4534 -1.1782,-2.6316 -2.6316 -2.6316c -1.4534,-0.0000 -2.6316,1.1782 -2.6316 2.6316c -0.0000,1.4534 1.1782,2.6316 2.6316 2.6316c 1.4534,0.0000 2.6316,-1.1782 2.6316 -2.6316Z"/></g><g stroke-linejoin="miter" stroke-opacity="0.0" fill-opacity="1.0" stroke="rgb(0,0,0)" stroke-width="0.0" fill="rgb(241,124,176)" stroke-linecap="butt" stroke-miterlimit="10.0"><path d="M 242.1053,68.4211 c 0.0000,-1.4534 -1.1782,-2.6316 -2.6316 -2.6316c -1.4534,-0.0000 -2.6316,1.1782 -2.6316 2.6316c -0.0000,1.4534 1.1782,2.6316 2.6316 2.6316c 1.4534,0.0000 2.6316,-1.1782 2.6316 -2.6316Z"/></g><g stroke-linejoin="miter" stroke-opacity="0.0" fill-opacity="1.0" stroke="rgb(0,0,0)" stroke-width="0.0" fill="rgb(241,124,176)" stroke-linecap="butt" stroke-miterlimit="10.0"><path d="M 242.1053,94.7368 c 0.0000,-1.4534 -1.1782,-2.6316 -2.6316 -2.6316c -1.4534,-0.0000 -2.6316,1.1782 -2.6316 2.6316c -0.0000,1.4534 1.1782,2.6316 2.6316 2.6316c 1.4534,0.0000 2.6316,-1.1782 2.6316 -2.6316Z"/></g><g stroke-linejoin="miter" stroke-opacity="0.0" fill-opacity="1.0" stroke="rgb(0,0,0)" stroke-width="0.0" fill="rgb(241,124,176)" stroke-linecap="butt" stroke-miterlimit="10.0"><path d="M 242.1053,121.0526 c 0.0000,-1.4534 -1.1782,-2.6316 -2.6316 -2.6316c -1.4534,-0.0000 -2.6316,1.1782 -2.6316 2.6316c -0.0000,1.4534 1.1782,2.6316 2.6316 2.6316c 1.4534,0.0000 2.6316,-1.1782 2.6316 -2.6316Z"/></g><g stroke-linejoin="miter" stroke-opacity="0.0" fill-opacity="1.0" stroke="rgb(0,0,0)" stroke-width="0.0" fill="rgb(241,124,176)" stroke-linecap="butt" stroke-miterlimit="10.0"><path d="M 242.1053,147.3684 c 0.0000,-1.4534 -1.1782,-2.6316 -2.6316 -2.6316c -1.4534,-0.0000 -2.6316,1.1782 -2.6316 2.6316c -0.0000,1.4534 1.1782,2.6316 2.6316 2.6316c 1.4534,0.0000 2.6316,-1.1782 2.6316 -2.6316Z"/></g><g stroke-linejoin="miter" stroke-opacity="0.0" fill-opacity="1.0" stroke="rgb(0,0,0)" stroke-width="0.0" fill="rgb(241,124,176)" stroke-linecap="butt" stroke-miterlimit="10.0"><path d="M 242.1053,173.6842 c 0.0000,-1.4534 -1.1782,-2.6316 -2.6316 -2.6316c -1.4534,-0.0000 -2.6316,1.1782 -2.6316 2.6316c -0.0000,1.4534 1.1782,2.6316 2.6316 2.6316c 1.4534,0.0000 2.6316,-1.1782 2.6316 -2.6316Z"/></g><g stroke-linejoin="miter" stroke-opacity="0.0" fill-opacity="1.0" stroke="rgb(0,0,0)" stroke-width="0.0" fill="rgb(241,124,176)" stroke-linecap="butt" stroke-miterlimit="10.0"><path d="M 242.1053,200.0000 c 0.0000,-1.4534 -1.1782,-2.6316 -2.6316 -2.6316c -1.4534,-0.0000 -2.6316,1.1782 -2.6316 2.6316c -0.0000,1.4534 1.1782,2.6316 2.6316 2.6316c 1.4534,0.0000 2.6316,-1.1782 2.6316 -2.6316Z"/></g><g stroke-linejoin="miter" stroke-opacity="0.0" fill-opacity="1.0" stroke="rgb(0,0,0)" stroke-width="0.0" fill="rgb(241,124,176)" stroke-linecap="butt" stroke-miterlimit="10.0"><path d="M 242.1053,226.3158 c 0.0000,-1.4534 -1.1782,-2.6316 -2.6316 -2.6316c -1.4534,-0.0000 -2.6316,1.1782 -2.6316 2.6316c -0.0000,1.4534 1.1782,2.6316 2.6316 2.6316c 1.4534,0.0000 2.6316,-1.1782 2.6316 -2.6316Z"/></g><g stroke-linejoin="miter" stroke-opacity="0.0" fill-opacity="1.0" stroke="rgb(0,0,0)" stroke-width="0.0" fill="rgb(241,124,176)" stroke-linecap="butt" stroke-miterlimit="10.0"><path d="M 242.1053,252.6316 c 0.0000,-1.4534 -1.1782,-2.6316 -2.6316 -2.6316c -1.4534,-0.0000 -2.6316,1.1782 -2.6316 2.6316c -0.0000,1.4534 1.1782,2.6316 2.6316 2.6316c 1.4534,0.0000 2.6316,-1.1782 2.6316 -2.6316Z"/></g><g stroke-linejoin="miter" stroke-opacity="0.0" fill-opacity="1.0" stroke="rgb(0,0,0)" stroke-width="0.0" fill="rgb(241,124,176)" stroke-linecap="butt" stroke-miterlimit="10.0"><path d="M 242.1053,278.9474 c 0.0000,-1.4534 -1.1782,-2.6316 -2.6316 -2.6316c -1.4534,-0.0000 -2.6316,1.1782 -2.6316 2.6316c -0.0000,1.4534 1.1782,2.6316 2.6316 2.6316c 1.4534,0.0000 2.6316,-1.1782 2.6316 -2.6316Z"/></g><g stroke-linejoin="miter" stroke-opacity="0.0" fill-opacity="1.0" stroke="rgb(0,0,0)" stroke-width="0.0" fill="rgb(241,124,176)" stroke-linecap="butt" stroke-miterlimit="10.0"><path d="M 242.1053,305.2632 c 0.0000,-1.4534 -1.1782,-2.6316 -2.6316 -2.6316c -1.4534,-0.0000 -2.6316,1.1782 -2.6316 2.6316c -0.0000,1.4534 1.1782,2.6316 2.6316 2.6316c 1.4534,0.0000 2.6316,-1.1782 2.6316 -2.6316Z"/></g><g stroke-linejoin="miter" stroke-opacity="0.0" fill-opacity="1.0" stroke="rgb(0,0,0)" stroke-width="0.0" fill="rgb(241,124,176)" stroke-linecap="butt" stroke-miterlimit="10.0"><path d="M 242.1053,331.5789 c 0.0000,-1.4534 -1.1782,-2.6316 -2.6316 -2.6316c -1.4534,-0.0000 -2.6316,1.1782 -2.6316 2.6316c -0.0000,1.4534 1.1782,2.6316 2.6316 2.6316c 1.4534,0.0000 2.6316,-1.1782 2.6316 -2.6316Z"/></g><g stroke-linejoin="miter" stroke-opacity="0.0" fill-opacity="1.0" stroke="rgb(0,0,0)" stroke-width="0.0" fill="rgb(241,124,176)" stroke-linecap="butt" stroke-miterlimit="10.0"><path d="M 202.6316,68.4211 c 0.0000,-1.4534 -1.1782,-2.6316 -2.6316 -2.6316c -1.4534,-0.0000 -2.6316,1.1782 -2.6316 2.6316c -0.0000,1.4534 1.1782,2.6316 2.6316 2.6316c 1.4534,0.0000 2.6316,-1.1782 2.6316 -2.6316Z"/></g><g stroke-linejoin="miter" stroke-opacity="0.0" fill-opacity="1.0" stroke="rgb(0,0,0)" stroke-width="0.0" fill="rgb(241,124,176)" stroke-linecap="butt" stroke-miterlimit="10.0"><path d="M 202.6316,94.7368 c 0.0000,-1.4534 -1.1782,-2.6316 -2.6316 -2.6316c -1.4534,-0.0000 -2.6316,1.1782 -2.6316 2.6316c -0.0000,1.4534 1.1782,2.6316 2.6316 2.6316c 1.4534,0.0000 2.6316,-1.1782 2.6316 -2.6316Z"/></g><g stroke-linejoin="miter" stroke-opacity="0.0" fill-opacity="1.0" stroke="rgb(0,0,0)" stroke-width="0.0" fill="rgb(241,124,176)" stroke-linecap="butt" stroke-miterlimit="10.0"><path d="M 202.6316,121.0526 c 0.0000,-1.4534 -1.1782,-2.6316 -2.6316 -2.6316c -1.4534,-0.0000 -2.6316,1.1782 -2.6316 2.6316c -0.0000,1.4534 1.1782,2.6316 2.6316 2.6316c 1.4534,0.0000 2.6316,-1.1782 2.6316 -2.6316Z"/></g><g stroke-linejoin="miter" stroke-opacity="0.0" fill-opacity="1.0" stroke="rgb(0,0,0)" stroke-width="0.0" fill="rgb(241,124,176)" stroke-linecap="butt" stroke-miterlimit="10.0"><path d="M 202.6316,147.3684 c 0.0000,-1.4534 -1.1782,-2.6316 -2.6316 -2.6316c -1.4534,-0.0000 -2.6316,1.1782 -2.6316 2.6316c -0.0000,1.4534 1.1782,2.6316 2.6316 2.6316c 1.4534,0.0000 2.6316,-1.1782 2.6316 -2.6316Z"/></g><g stroke-linejoin="miter" stroke-opacity="0.0" fill-opacity="1.0" stroke="rgb(0,0,0)" stroke-width="0.0" fill="rgb(241,124,176)" stroke-linecap="butt" stroke-miterlimit="10.0"><path d="M 202.6316,173.6842 c 0.0000,-1.4534 -1.1782,-2.6316 -2.6316 -2.6316c -1.4534,-0.0000 -2.6316,1.1782 -2.6316 2.6316c -0.0000,1.4534 1.1782,2.6316 2.6316 2.6316c 1.4534,0.0000 2.6316,-1.1782 2.6316 -2.6316Z"/></g><g stroke-linejoin="miter" stroke-opacity="0.0" fill-opacity="1.0" stroke="rgb(0,0,0)" stroke-width="0.0" fill="rgb(241,124,176)" stroke-linecap="butt" stroke-miterlimit="10.0"><path d="M 202.6316,200.0000 c 0.0000,-1.4534 -1.1782,-2.6316 -2.6316 -2.6316c -1.4534,-0.0000 -2.6316,1.1782 -2.6316 2.6316c -0.0000,1.4534 1.1782,2.6316 2.6316 2.6316c 1.4534,0.0000 2.6316,-1.1782 2.6316 -2.6316Z"/></g><g stroke-linejoin="miter" stroke-opacity="0.0" fill-opacity="1.0" stroke="rgb(0,0,0)" stroke-width="0.0" fill="rgb(241,124,176)" stroke-linecap="butt" stroke-miterlimit="10.0"><path d="M 202.6316,226.3158 c 0.0000,-1.4534 -1.1782,-2.6316 -2.6316 -2.6316c -1.4534,-0.0000 -2.6316,1.1782 -2.6316 2.6316c -0.0000,1.4534 1.1782,2.6316 2.6316 2.6316c 1.4534,0.0000 2.6316,-1.1782 2.6316 -2.6316Z"/></g><g stroke-linejoin="miter" stroke-opacity="0.0" fill-opacity="1.0" stroke="rgb(0,0,0)" stroke-width="0.0" fill="rgb(241,124,176)" stroke-linecap="butt" stroke-miterlimit="10.0"><path d="M 202.6316,252.6316 c 0.0000,-1.4534 -1.1782,-2.6316 -2.6316 -2.6316c -1.4534,-0.0000 -2.6316,1.1782 -2.6316 2.6316c -0.0000,1.4534 1.1782,2.6316 2.6316 2.6316c 1.4534,0.0000 2.6316,-1.1782 2.6316 -2.6316Z"/></g><g stroke-linejoin="miter" stroke-opacity="0.0" fill-opacity="1.0" stroke="rgb(0,0,0)" stroke-width="0.0" fill="rgb(241,124,176)" stroke-linecap="butt" stroke-miterlimit="10.0"><path d="M 202.6316,278.9474 c 0.0000,-1.4534 -1.1782,-2.6316 -2.6316 -2.6316c -1.4534,-0.0000 -2.6316,1.1782 -2.6316 2.6316c -0.0000,1.4534 1.1782,2.6316 2.6316 2.6316c 1.4534,0.0000 2.6316,-1.1782 2.6316 -2.6316Z"/></g><g stroke-linejoin="miter" stroke-opacity="0.0" fill-opacity="1.0" stroke="rgb(0,0,0)" stroke-width="0.0" fill="rgb(241,124,176)" stroke-linecap="butt" stroke-miterlimit="10.0"><path d="M 202.6316,305.2632 c 0.0000,-1.4534 -1.1782,-2.6316 -2.6316 -2.6316c -1.4534,-0.0000 -2.6316,1.1782 -2.6316 2.6316c -0.0000,1.4534 1.1782,2.6316 2.6316 2.6316c 1.4534,0.0000 2.6316,-1.1782 2.6316 -2.6316Z"/></g><g stroke-linejoin="miter" stroke-opacity="0.0" fill-opacity="1.0" stroke="rgb(0,0,0)" stroke-width="0.0" fill="rgb(241,124,176)" stroke-linecap="butt" stroke-miterlimit="10.0"><path d="M 202.6316,331.5789 c 0.0000,-1.4534 -1.1782,-2.6316 -2.6316 -2.6316c -1.4534,-0.0000 -2.6316,1.1782 -2.6316 2.6316c -0.0000,1.4534 1.1782,2.6316 2.6316 2.6316c 1.4534,0.0000 2.6316,-1.1782 2.6316 -2.6316Z"/></g><g stroke-linejoin="miter" stroke-opacity="0.0" fill-opacity="1.0" stroke="rgb(0,0,0)" stroke-width="0.0" fill="rgb(241,124,176)" stroke-linecap="butt" stroke-miterlimit="10.0"><path d="M 163.1579,68.4211 c 0.0000,-1.4534 -1.1782,-2.6316 -2.6316 -2.6316c -1.4534,-0.0000 -2.6316,1.1782 -2.6316 2.6316c -0.0000,1.4534 1.1782,2.6316 2.6316 2.6316c 1.4534,0.0000 2.6316,-1.1782 2.6316 -2.6316Z"/></g><g stroke-linejoin="miter" stroke-opacity="0.0" fill-opacity="1.0" stroke="rgb(0,0,0)" stroke-width="0.0" fill="rgb(241,124,176)" stroke-linecap="butt" stroke-miterlimit="10.0"><path d="M 163.1579,94.7368 c 0.0000,-1.4534 -1.1782,-2.6316 -2.6316 -2.6316c -1.4534,-0.0000 -2.6316,1.1782 -2.6316 2.6316c -0.0000,1.4534 1.1782,2.6316 2.6316 2.6316c 1.4534,0.0000 2.6316,-1.1782 2.6316 -2.6316Z"/></g><g stroke-linejoin="miter" stroke-opacity="0.0" fill-opacity="1.0" stroke="rgb(0,0,0)" stroke-width="0.0" fill="rgb(241,124,176)" stroke-linecap="butt" stroke-miterlimit="10.0"><path d="M 163.1579,121.0526 c 0.0000,-1.4534 -1.1782,-2.6316 -2.6316 -2.6316c -1.4534,-0.0000 -2.6316,1.1782 -2.6316 2.6316c -0.0000,1.4534 1.1782,2.6316 2.6316 2.6316c 1.4534,0.0000 2.6316,-1.1782 2.6316 -2.6316Z"/></g><g stroke-linejoin="miter" stroke-opacity="0.0" fill-opacity="1.0" stroke="rgb(0,0,0)" stroke-width="0.0" fill="rgb(241,124,176)" stroke-linecap="butt" stroke-miterlimit="10.0"><path d="M 163.1579,147.3684 c 0.0000,-1.4534 -1.1782,-2.6316 -2.6316 -2.6316c -1.4534,-0.0000 -2.6316,1.1782 -2.6316 2.6316c -0.0000,1.4534 1.1782,2.6316 2.6316 2.6316c 1.4534,0.0000 2.6316,-1.1782 2.6316 -2.6316Z"/></g><g stroke-linejoin="miter" stroke-opacity="0.0" fill-opacity="1.0" stroke="rgb(0,0,0)" stroke-width="0.0" fill="rgb(241,124,176)" stroke-linecap="butt" stroke-miterlimit="10.0"><path d="M 163.1579,173.6842 c 0.0000,-1.4534 -1.1782,-2.6316 -2.6316 -2.6316c -1.4534,-0.0000 -2.6316,1.1782 -2.6316 2.6316c -0.0000,1.4534 1.1782,2.6316 2.6316 2.6316c 1.4534,0.0000 2.6316,-1.1782 2.6316 -2.6316Z"/></g><g stroke-linejoin="miter" stroke-opacity="0.0" fill-opacity="1.0" stroke="rgb(0,0,0)" stroke-width="0.0" fill="rgb(241,124,176)" stroke-linecap="butt" stroke-miterlimit="10.0"><path d="M 163.1579,200.0000 c 0.0000,-1.4534 -1.1782,-2.6316 -2.6316 -2.6316c -1.4534,-0.0000 -2.6316,1.1782 -2.6316 2.6316c -0.0000,1.4534 1.1782,2.6316 2.6316 2.6316c 1.4534,0.0000 2.6316,-1.1782 2.6316 -2.6316Z"/></g><g stroke-linejoin="miter" stroke-opacity="0.0" fill-opacity="1.0" stroke="rgb(0,0,0)" stroke-width="0.0" fill="rgb(241,124,176)" stroke-linecap="butt" stroke-miterlimit="10.0"><path d="M 163.1579,226.3158 c 0.0000,-1.4534 -1.1782,-2.6316 -2.6316 -2.6316c -1.4534,-0.0000 -2.6316,1.1782 -2.6316 2.6316c -0.0000,1.4534 1.1782,2.6316 2.6316 2.6316c 1.4534,0.0000 2.6316,-1.1782 2.6316 -2.6316Z"/></g><g stroke-linejoin="miter" stroke-opacity="0.0" fill-opacity="1.0" stroke="rgb(0,0,0)" stroke-width="0.0" fill="rgb(241,124,176)" stroke-linecap="butt" stroke-miterlimit="10.0"><path d="M 163.1579,252.6316 c 0.0000,-1.4534 -1.1782,-2.6316 -2.6316 -2.6316c -1.4534,-0.0000 -2.6316,1.1782 -2.6316 2.6316c -0.0000,1.4534 1.1782,2.6316 2.6316 2.6316c 1.4534,0.0000 2.6316,-1.1782 2.6316 -2.6316Z"/></g><g stroke-linejoin="miter" stroke-opacity="0.0" fill-opacity="1.0" stroke="rgb(0,0,0)" stroke-width="0.0" fill="rgb(241,124,176)" stroke-linecap="butt" stroke-miterlimit="10.0"><path d="M 163.1579,278.9474 c 0.0000,-1.4534 -1.1782,-2.6316 -2.6316 -2.6316c -1.4534,-0.0000 -2.6316,1.1782 -2.6316 2.6316c -0.0000,1.4534 1.1782,2.6316 2.6316 2.6316c 1.4534,0.0000 2.6316,-1.1782 2.6316 -2.6316Z"/></g><g stroke-linejoin="miter" stroke-opacity="0.0" fill-opacity="1.0" stroke="rgb(0,0,0)" stroke-width="0.0" fill="rgb(241,124,176)" stroke-linecap="butt" stroke-miterlimit="10.0"><path d="M 163.1579,305.2632 c 0.0000,-1.4534 -1.1782,-2.6316 -2.6316 -2.6316c -1.4534,-0.0000 -2.6316,1.1782 -2.6316 2.6316c -0.0000,1.4534 1.1782,2.6316 2.6316 2.6316c 1.4534,0.0000 2.6316,-1.1782 2.6316 -2.6316Z"/></g><g stroke-linejoin="miter" stroke-opacity="0.0" fill-opacity="1.0" stroke="rgb(0,0,0)" stroke-width="0.0" fill="rgb(241,124,176)" stroke-linecap="butt" stroke-miterlimit="10.0"><path d="M 163.1579,331.5789 c 0.0000,-1.4534 -1.1782,-2.6316 -2.6316 -2.6316c -1.4534,-0.0000 -2.6316,1.1782 -2.6316 2.6316c -0.0000,1.4534 1.1782,2.6316 2.6316 2.6316c 1.4534,0.0000 2.6316,-1.1782 2.6316 -2.6316Z"/></g><g stroke-linejoin="miter" stroke-opacity="0.0" fill-opacity="1.0" stroke="rgb(0,0,0)" stroke-width="0.0" fill="rgb(241,124,176)" stroke-linecap="butt" stroke-miterlimit="10.0"><path d="M 123.6842,68.4211 c 0.0000,-1.4534 -1.1782,-2.6316 -2.6316 -2.6316c -1.4534,-0.0000 -2.6316,1.1782 -2.6316 2.6316c -0.0000,1.4534 1.1782,2.6316 2.6316 2.6316c 1.4534,0.0000 2.6316,-1.1782 2.6316 -2.6316Z"/></g><g stroke-linejoin="miter" stroke-opacity="0.0" fill-opacity="1.0" stroke="rgb(0,0,0)" stroke-width="0.0" fill="rgb(241,124,176)" stroke-linecap="butt" stroke-miterlimit="10.0"><path d="M 123.6842,94.7368 c 0.0000,-1.4534 -1.1782,-2.6316 -2.6316 -2.6316c -1.4534,-0.0000 -2.6316,1.1782 -2.6316 2.6316c -0.0000,1.4534 1.1782,2.6316 2.6316 2.6316c 1.4534,0.0000 2.6316,-1.1782 2.6316 -2.6316Z"/></g><g stroke-linejoin="miter" stroke-opacity="0.0" fill-opacity="1.0" stroke="rgb(0,0,0)" stroke-width="0.0" fill="rgb(241,124,176)" stroke-linecap="butt" stroke-miterlimit="10.0"><path d="M 123.6842,121.0526 c 0.0000,-1.4534 -1.1782,-2.6316 -2.6316 -2.6316c -1.4534,-0.0000 -2.6316,1.1782 -2.6316 2.6316c -0.0000,1.4534 1.1782,2.6316 2.6316 2.6316c 1.4534,0.0000 2.6316,-1.1782 2.6316 -2.6316Z"/></g><g stroke-linejoin="miter" stroke-opacity="0.0" fill-opacity="1.0" stroke="rgb(0,0,0)" stroke-width="0.0" fill="rgb(241,124,176)" stroke-linecap="butt" stroke-miterlimit="10.0"><path d="M 123.6842,147.3684 c 0.0000,-1.4534 -1.1782,-2.6316 -2.6316 -2.6316c -1.4534,-0.0000 -2.6316,1.1782 -2.6316 2.6316c -0.0000,1.4534 1.1782,2.6316 2.6316 2.6316c 1.4534,0.0000 2.6316,-1.1782 2.6316 -2.6316Z"/></g><g stroke-linejoin="miter" stroke-opacity="0.0" fill-opacity="1.0" stroke="rgb(0,0,0)" stroke-width="0.0" fill="rgb(241,124,176)" stroke-linecap="butt" stroke-miterlimit="10.0"><path d="M 123.6842,173.6842 c 0.0000,-1.4534 -1.1782,-2.6316 -2.6316 -2.6316c -1.4534,-0.0000 -2.6316,1.1782 -2.6316 2.6316c -0.0000,1.4534 1.1782,2.6316 2.6316 2.6316c 1.4534,0.0000 2.6316,-1.1782 2.6316 -2.6316Z"/></g><g stroke-linejoin="miter" stroke-opacity="0.0" fill-opacity="1.0" stroke="rgb(0,0,0)" stroke-width="0.0" fill="rgb(241,124,176)" stroke-linecap="butt" stroke-miterlimit="10.0"><path d="M 123.6842,200.0000 c 0.0000,-1.4534 -1.1782,-2.6316 -2.6316 -2.6316c -1.4534,-0.0000 -2.6316,1.1782 -2.6316 2.6316c -0.0000,1.4534 1.1782,2.6316 2.6316 2.6316c 1.4534,0.0000 2.6316,-1.1782 2.6316 -2.6316Z"/></g><g stroke-linejoin="miter" stroke-opacity="0.0" fill-opacity="1.0" stroke="rgb(0,0,0)" stroke-width="0.0" fill="rgb(241,124,176)" stroke-linecap="butt" stroke-miterlimit="10.0"><path d="M 123.6842,226.3158 c 0.0000,-1.4534 -1.1782,-2.6316 -2.6316 -2.6316c -1.4534,-0.0000 -2.6316,1.1782 -2.6316 2.6316c -0.0000,1.4534 1.1782,2.6316 2.6316 2.6316c 1.4534,0.0000 2.6316,-1.1782 2.6316 -2.6316Z"/></g><g stroke-linejoin="miter" stroke-opacity="0.0" fill-opacity="1.0" stroke="rgb(0,0,0)" stroke-width="0.0" fill="rgb(241,124,176)" stroke-linecap="butt" stroke-miterlimit="10.0"><path d="M 123.6842,252.6316 c 0.0000,-1.4534 -1.1782,-2.6316 -2.6316 -2.6316c -1.4534,-0.0000 -2.6316,1.1782 -2.6316 2.6316c -0.0000,1.4534 1.1782,2.6316 2.6316 2.6316c 1.4534,0.0000 2.6316,-1.1782 2.6316 -2.6316Z"/></g><g stroke-linejoin="miter" stroke-opacity="0.0" fill-opacity="1.0" stroke="rgb(0,0,0)" stroke-width="0.0" fill="rgb(241,124,176)" stroke-linecap="butt" stroke-miterlimit="10.0"><path d="M 123.6842,278.9474 c 0.0000,-1.4534 -1.1782,-2.6316 -2.6316 -2.6316c -1.4534,-0.0000 -2.6316,1.1782 -2.6316 2.6316c -0.0000,1.4534 1.1782,2.6316 2.6316 2.6316c 1.4534,0.0000 2.6316,-1.1782 2.6316 -2.6316Z"/></g><g stroke-linejoin="miter" stroke-opacity="0.0" fill-opacity="1.0" stroke="rgb(0,0,0)" stroke-width="0.0" fill="rgb(241,124,176)" stroke-linecap="butt" stroke-miterlimit="10.0"><path d="M 123.6842,305.2632 c 0.0000,-1.4534 -1.1782,-2.6316 -2.6316 -2.6316c -1.4534,-0.0000 -2.6316,1.1782 -2.6316 2.6316c -0.0000,1.4534 1.1782,2.6316 2.6316 2.6316c 1.4534,0.0000 2.6316,-1.1782 2.6316 -2.6316Z"/></g><g stroke-linejoin="miter" stroke-opacity="0.0" fill-opacity="1.0" stroke="rgb(0,0,0)" stroke-width="0.0" fill="rgb(241,124,176)" stroke-linecap="butt" stroke-miterlimit="10.0"><path d="M 123.6842,331.5789 c 0.0000,-1.4534 -1.1782,-2.6316 -2.6316 -2.6316c -1.4534,-0.0000 -2.6316,1.1782 -2.6316 2.6316c -0.0000,1.4534 1.1782,2.6316 2.6316 2.6316c 1.4534,0.0000 2.6316,-1.1782 2.6316 -2.6316Z"/></g><g stroke-linejoin="miter" stroke-opacity="0.0" fill-opacity="1.0" stroke="rgb(0,0,0)" stroke-width="0.0" fill="rgb(241,124,176)" stroke-linecap="butt" stroke-miterlimit="10.0"><path d="M 84.2105,68.4211 c 0.0000,-1.4534 -1.1782,-2.6316 -2.6316 -2.6316c -1.4534,-0.0000 -2.6316,1.1782 -2.6316 2.6316c -0.0000,1.4534 1.1782,2.6316 2.6316 2.6316c 1.4534,0.0000 2.6316,-1.1782 2.6316 -2.6316Z"/></g><g stroke-linejoin="miter" stroke-opacity="0.0" fill-opacity="1.0" stroke="rgb(0,0,0)" stroke-width="0.0" fill="rgb(241,124,176)" stroke-linecap="butt" stroke-miterlimit="10.0"><path d="M 84.2105,94.7368 c 0.0000,-1.4534 -1.1782,-2.6316 -2.6316 -2.6316c -1.4534,-0.0000 -2.6316,1.1782 -2.6316 2.6316c -0.0000,1.4534 1.1782,2.6316 2.6316 2.6316c 1.4534,0.0000 2.6316,-1.1782 2.6316 -2.6316Z"/></g><g stroke-linejoin="miter" stroke-opacity="0.0" fill-opacity="1.0" stroke="rgb(0,0,0)" stroke-width="0.0" fill="rgb(241,124,176)" stroke-linecap="butt" stroke-miterlimit="10.0"><path d="M 84.2105,121.0526 c 0.0000,-1.4534 -1.1782,-2.6316 -2.6316 -2.6316c -1.4534,-0.0000 -2.6316,1.1782 -2.6316 2.6316c -0.0000,1.4534 1.1782,2.6316 2.6316 2.6316c 1.4534,0.0000 2.6316,-1.1782 2.6316 -2.6316Z"/></g><g stroke-linejoin="miter" stroke-opacity="0.0" fill-opacity="1.0" stroke="rgb(0,0,0)" stroke-width="0.0" fill="rgb(241,124,176)" stroke-linecap="butt" stroke-miterlimit="10.0"><path d="M 84.2105,147.3684 c 0.0000,-1.4534 -1.1782,-2.6316 -2.6316 -2.6316c -1.4534,-0.0000 -2.6316,1.1782 -2.6316 2.6316c -0.0000,1.4534 1.1782,2.6316 2.6316 2.6316c 1.4534,0.0000 2.6316,-1.1782 2.6316 -2.6316Z"/></g><g stroke-linejoin="miter" stroke-opacity="0.0" fill-opacity="1.0" stroke="rgb(0,0,0)" stroke-width="0.0" fill="rgb(241,124,176)" stroke-linecap="butt" stroke-miterlimit="10.0"><path d="M 84.2105,173.6842 c 0.0000,-1.4534 -1.1782,-2.6316 -2.6316 -2.6316c -1.4534,-0.0000 -2.6316,1.1782 -2.6316 2.6316c -0.0000,1.4534 1.1782,2.6316 2.6316 2.6316c 1.4534,0.0000 2.6316,-1.1782 2.6316 -2.6316Z"/></g><g stroke-linejoin="miter" stroke-opacity="0.0" fill-opacity="1.0" stroke="rgb(0,0,0)" stroke-width="0.0" fill="rgb(241,124,176)" stroke-linecap="butt" stroke-miterlimit="10.0"><path d="M 84.2105,200.0000 c 0.0000,-1.4534 -1.1782,-2.6316 -2.6316 -2.6316c -1.4534,-0.0000 -2.6316,1.1782 -2.6316 2.6316c -0.0000,1.4534 1.1782,2.6316 2.6316 2.6316c 1.4534,0.0000 2.6316,-1.1782 2.6316 -2.6316Z"/></g><g stroke-linejoin="miter" stroke-opacity="0.0" fill-opacity="1.0" stroke="rgb(0,0,0)" stroke-width="0.0" fill="rgb(241,124,176)" stroke-linecap="butt" stroke-miterlimit="10.0"><path d="M 84.2105,226.3158 c 0.0000,-1.4534 -1.1782,-2.6316 -2.6316 -2.6316c -1.4534,-0.0000 -2.6316,1.1782 -2.6316 2.6316c -0.0000,1.4534 1.1782,2.6316 2.6316 2.6316c 1.4534,0.0000 2.6316,-1.1782 2.6316 -2.6316Z"/></g><g stroke-linejoin="miter" stroke-opacity="0.0" fill-opacity="1.0" stroke="rgb(0,0,0)" stroke-width="0.0" fill="rgb(241,124,176)" stroke-linecap="butt" stroke-miterlimit="10.0"><path d="M 84.2105,252.6316 c 0.0000,-1.4534 -1.1782,-2.6316 -2.6316 -2.6316c -1.4534,-0.0000 -2.6316,1.1782 -2.6316 2.6316c -0.0000,1.4534 1.1782,2.6316 2.6316 2.6316c 1.4534,0.0000 2.6316,-1.1782 2.6316 -2.6316Z"/></g><g stroke-linejoin="miter" stroke-opacity="0.0" fill-opacity="1.0" stroke="rgb(0,0,0)" stroke-width="0.0" fill="rgb(241,124,176)" stroke-linecap="butt" stroke-miterlimit="10.0"><path d="M 84.2105,278.9474 c 0.0000,-1.4534 -1.1782,-2.6316 -2.6316 -2.6316c -1.4534,-0.0000 -2.6316,1.1782 -2.6316 2.6316c -0.0000,1.4534 1.1782,2.6316 2.6316 2.6316c 1.4534,0.0000 2.6316,-1.1782 2.6316 -2.6316Z"/></g><g stroke-linejoin="miter" stroke-opacity="0.0" fill-opacity="1.0" stroke="rgb(0,0,0)" stroke-width="0.0" fill="rgb(241,124,176)" stroke-linecap="butt" stroke-miterlimit="10.0"><path d="M 84.2105,305.2632 c 0.0000,-1.4534 -1.1782,-2.6316 -2.6316 -2.6316c -1.4534,-0.0000 -2.6316,1.1782 -2.6316 2.6316c -0.0000,1.4534 1.1782,2.6316 2.6316 2.6316c 1.4534,0.0000 2.6316,-1.1782 2.6316 -2.6316Z"/></g><g stroke-linejoin="miter" stroke-opacity="0.0" fill-opacity="1.0" stroke="rgb(0,0,0)" stroke-width="0.0" fill="rgb(241,124,176)" stroke-linecap="butt" stroke-miterlimit="10.0"><path d="M 84.2105,331.5789 c 0.0000,-1.4534 -1.1782,-2.6316 -2.6316 -2.6316c -1.4534,-0.0000 -2.6316,1.1782 -2.6316 2.6316c -0.0000,1.4534 1.1782,2.6316 2.6316 2.6316c 1.4534,0.0000 2.6316,-1.1782 2.6316 -2.6316Z"/></g><g stroke-linejoin="miter" stroke-opacity="0.0" fill-opacity="1.0" stroke="rgb(0,0,0)" stroke-width="0.0" fill="rgb(241,124,176)" stroke-linecap="butt" stroke-miterlimit="10.0"><path d="M 44.7368,68.4211 c 0.0000,-1.4534 -1.1782,-2.6316 -2.6316 -2.6316c -1.4534,-0.0000 -2.6316,1.1782 -2.6316 2.6316c -0.0000,1.4534 1.1782,2.6316 2.6316 2.6316c 1.4534,0.0000 2.6316,-1.1782 2.6316 -2.6316Z"/></g><g stroke-linejoin="miter" stroke-opacity="0.0" fill-opacity="1.0" stroke="rgb(0,0,0)" stroke-width="0.0" fill="rgb(241,124,176)" stroke-linecap="butt" stroke-miterlimit="10.0"><path d="M 44.7368,94.7368 c 0.0000,-1.4534 -1.1782,-2.6316 -2.6316 -2.6316c -1.4534,-0.0000 -2.6316,1.1782 -2.6316 2.6316c -0.0000,1.4534 1.1782,2.6316 2.6316 2.6316c 1.4534,0.0000 2.6316,-1.1782 2.6316 -2.6316Z"/></g><g stroke-linejoin="miter" stroke-opacity="0.0" fill-opacity="1.0" stroke="rgb(0,0,0)" stroke-width="0.0" fill="rgb(241,124,176)" stroke-linecap="butt" stroke-miterlimit="10.0"><path d="M 44.7368,121.0526 c 0.0000,-1.4534 -1.1782,-2.6316 -2.6316 -2.6316c -1.4534,-0.0000 -2.6316,1.1782 -2.6316 2.6316c -0.0000,1.4534 1.1782,2.6316 2.6316 2.6316c 1.4534,0.0000 2.6316,-1.1782 2.6316 -2.6316Z"/></g><g stroke-linejoin="miter" stroke-opacity="0.0" fill-opacity="1.0" stroke="rgb(0,0,0)" stroke-width="0.0" fill="rgb(241,124,176)" stroke-linecap="butt" stroke-miterlimit="10.0"><path d="M 44.7368,147.3684 c 0.0000,-1.4534 -1.1782,-2.6316 -2.6316 -2.6316c -1.4534,-0.0000 -2.6316,1.1782 -2.6316 2.6316c -0.0000,1.4534 1.1782,2.6316 2.6316 2.6316c 1.4534,0.0000 2.6316,-1.1782 2.6316 -2.6316Z"/></g><g stroke-linejoin="miter" stroke-opacity="0.0" fill-opacity="1.0" stroke="rgb(0,0,0)" stroke-width="0.0" fill="rgb(241,124,176)" stroke-linecap="butt" stroke-miterlimit="10.0"><path d="M 44.7368,173.6842 c 0.0000,-1.4534 -1.1782,-2.6316 -2.6316 -2.6316c -1.4534,-0.0000 -2.6316,1.1782 -2.6316 2.6316c -0.0000,1.4534 1.1782,2.6316 2.6316 2.6316c 1.4534,0.0000 2.6316,-1.1782 2.6316 -2.6316Z"/></g><g stroke-linejoin="miter" stroke-opacity="0.0" fill-opacity="1.0" stroke="rgb(0,0,0)" stroke-width="0.0" fill="rgb(241,124,176)" stroke-linecap="butt" stroke-miterlimit="10.0"><path d="M 44.7368,200.0000 c 0.0000,-1.4534 -1.1782,-2.6316 -2.6316 -2.6316c -1.4534,-0.0000 -2.6316,1.1782 -2.6316 2.6316c -0.0000,1.4534 1.1782,2.6316 2.6316 2.6316c 1.4534,0.0000 2.6316,-1.1782 2.6316 -2.6316Z"/></g><g stroke-linejoin="miter" stroke-opacity="0.0" fill-opacity="1.0" stroke="rgb(0,0,0)" stroke-width="0.0" fill="rgb(241,124,176)" stroke-linecap="butt" stroke-miterlimit="10.0"><path d="M 44.7368,226.3158 c 0.0000,-1.4534 -1.1782,-2.6316 -2.6316 -2.6316c -1.4534,-0.0000 -2.6316,1.1782 -2.6316 2.6316c -0.0000,1.4534 1.1782,2.6316 2.6316 2.6316c 1.4534,0.0000 2.6316,-1.1782 2.6316 -2.6316Z"/></g><g stroke-linejoin="miter" stroke-opacity="0.0" fill-opacity="1.0" stroke="rgb(0,0,0)" stroke-width="0.0" fill="rgb(241,124,176)" stroke-linecap="butt" stroke-miterlimit="10.0"><path d="M 44.7368,252.6316 c 0.0000,-1.4534 -1.1782,-2.6316 -2.6316 -2.6316c -1.4534,-0.0000 -2.6316,1.1782 -2.6316 2.6316c -0.0000,1.4534 1.1782,2.6316 2.6316 2.6316c 1.4534,0.0000 2.6316,-1.1782 2.6316 -2.6316Z"/></g><g stroke-linejoin="miter" stroke-opacity="0.0" fill-opacity="1.0" stroke="rgb(0,0,0)" stroke-width="0.0" fill="rgb(241,124,176)" stroke-linecap="butt" stroke-miterlimit="10.0"><path d="M 44.7368,278.9474 c 0.0000,-1.4534 -1.1782,-2.6316 -2.6316 -2.6316c -1.4534,-0.0000 -2.6316,1.1782 -2.6316 2.6316c -0.0000,1.4534 1.1782,2.6316 2.6316 2.6316c 1.4534,0.0000 2.6316,-1.1782 2.6316 -2.6316Z"/></g><g stroke-linejoin="miter" stroke-opacity="0.0" fill-opacity="1.0" stroke="rgb(0,0,0)" stroke-width="0.0" fill="rgb(241,124,176)" stroke-linecap="butt" stroke-miterlimit="10.0"><path d="M 44.7368,305.2632 c 0.0000,-1.4534 -1.1782,-2.6316 -2.6316 -2.6316c -1.4534,-0.0000 -2.6316,1.1782 -2.6316 2.6316c -0.0000,1.4534 1.1782,2.6316 2.6316 2.6316c 1.4534,0.0000 2.6316,-1.1782 2.6316 -2.6316Z"/></g><g stroke-linejoin="miter" stroke-opacity="0.0" fill-opacity="1.0" stroke="rgb(0,0,0)" stroke-width="0.0" fill="rgb(241,124,176)" stroke-linecap="butt" stroke-miterlimit="10.0"><path d="M 44.7368,331.5789 c 0.0000,-1.4534 -1.1782,-2.6316 -2.6316 -2.6316c -1.4534,-0.0000 -2.6316,1.1782 -2.6316 2.6316c -0.0000,1.4534 1.1782,2.6316 2.6316 2.6316c 1.4534,0.0000 2.6316,-1.1782 2.6316 -2.6316Z"/></g><g stroke-linejoin="miter" stroke-opacity="0.0" fill-opacity="1.0" stroke="rgb(0,0,0)" stroke-width="0.0" fill="rgb(241,124,176)" stroke-linecap="butt" stroke-miterlimit="10.0"><path d="M 5.2632,68.4211 c 0.0000,-1.4534 -1.1782,-2.6316 -2.6316 -2.6316c -1.4534,-0.0000 -2.6316,1.1782 -2.6316 2.6316c -0.0000,1.4534 1.1782,2.6316 2.6316 2.6316c 1.4534,0.0000 2.6316,-1.1782 2.6316 -2.6316Z"/></g><g stroke-linejoin="miter" stroke-opacity="0.0" fill-opacity="1.0" stroke="rgb(0,0,0)" stroke-width="0.0" fill="rgb(241,124,176)" stroke-linecap="butt" stroke-miterlimit="10.0"><path d="M 5.2632,94.7368 c 0.0000,-1.4534 -1.1782,-2.6316 -2.6316 -2.6316c -1.4534,-0.0000 -2.6316,1.1782 -2.6316 2.6316c -0.0000,1.4534 1.1782,2.6316 2.6316 2.6316c 1.4534,0.0000 2.6316,-1.1782 2.6316 -2.6316Z"/></g><g stroke-linejoin="miter" stroke-opacity="0.0" fill-opacity="1.0" stroke="rgb(0,0,0)" stroke-width="0.0" fill="rgb(241,124,176)" stroke-linecap="butt" stroke-miterlimit="10.0"><path d="M 5.2632,121.0526 c 0.0000,-1.4534 -1.1782,-2.6316 -2.6316 -2.6316c -1.4534,-0.0000 -2.6316,1.1782 -2.6316 2.6316c -0.0000,1.4534 1.1782,2.6316 2.6316 2.6316c 1.4534,0.0000 2.6316,-1.1782 2.6316 -2.6316Z"/></g><g stroke-linejoin="miter" stroke-opacity="0.0" fill-opacity="1.0" stroke="rgb(0,0,0)" stroke-width="0.0" fill="rgb(241,124,176)" stroke-linecap="butt" stroke-miterlimit="10.0"><path d="M 5.2632,147.3684 c 0.0000,-1.4534 -1.1782,-2.6316 -2.6316 -2.6316c -1.4534,-0.0000 -2.6316,1.1782 -2.6316 2.6316c -0.0000,1.4534 1.1782,2.6316 2.6316 2.6316c 1.4534,0.0000 2.6316,-1.1782 2.6316 -2.6316Z"/></g><g stroke-linejoin="miter" stroke-opacity="0.0" fill-opacity="1.0" stroke="rgb(0,0,0)" stroke-width="0.0" fill="rgb(241,124,176)" stroke-linecap="butt" stroke-miterlimit="10.0"><path d="M 5.2632,173.6842 c 0.0000,-1.4534 -1.1782,-2.6316 -2.6316 -2.6316c -1.4534,-0.0000 -2.6316,1.1782 -2.6316 2.6316c -0.0000,1.4534 1.1782,2.6316 2.6316 2.6316c 1.4534,0.0000 2.6316,-1.1782 2.6316 -2.6316Z"/></g><g stroke-linejoin="miter" stroke-opacity="0.0" fill-opacity="1.0" stroke="rgb(0,0,0)" stroke-width="0.0" fill="rgb(241,124,176)" stroke-linecap="butt" stroke-miterlimit="10.0"><path d="M 5.2632,200.0000 c 0.0000,-1.4534 -1.1782,-2.6316 -2.6316 -2.6316c -1.4534,-0.0000 -2.6316,1.1782 -2.6316 2.6316c -0.0000,1.4534 1.1782,2.6316 2.6316 2.6316c 1.4534,0.0000 2.6316,-1.1782 2.6316 -2.6316Z"/></g><g stroke-linejoin="miter" stroke-opacity="0.0" fill-opacity="1.0" stroke="rgb(0,0,0)" stroke-width="0.0" fill="rgb(241,124,176)" stroke-linecap="butt" stroke-miterlimit="10.0"><path d="M 5.2632,226.3158 c 0.0000,-1.4534 -1.1782,-2.6316 -2.6316 -2.6316c -1.4534,-0.0000 -2.6316,1.1782 -2.6316 2.6316c -0.0000,1.4534 1.1782,2.6316 2.6316 2.6316c 1.4534,0.0000 2.6316,-1.1782 2.6316 -2.6316Z"/></g><g stroke-linejoin="miter" stroke-opacity="0.0" fill-opacity="1.0" stroke="rgb(0,0,0)" stroke-width="0.0" fill="rgb(241,124,176)" stroke-linecap="butt" stroke-miterlimit="10.0"><path d="M 5.2632,252.6316 c 0.0000,-1.4534 -1.1782,-2.6316 -2.6316 -2.6316c -1.4534,-0.0000 -2.6316,1.1782 -2.6316 2.6316c -0.0000,1.4534 1.1782,2.6316 2.6316 2.6316c 1.4534,0.0000 2.6316,-1.1782 2.6316 -2.6316Z"/></g><g stroke-linejoin="miter" stroke-opacity="0.0" fill-opacity="1.0" stroke="rgb(0,0,0)" stroke-width="0.0" fill="rgb(241,124,176)" stroke-linecap="butt" stroke-miterlimit="10.0"><path d="M 5.2632,278.9474 c 0.0000,-1.4534 -1.1782,-2.6316 -2.6316 -2.6316c -1.4534,-0.0000 -2.6316,1.1782 -2.6316 2.6316c -0.0000,1.4534 1.1782,2.6316 2.6316 2.6316c 1.4534,0.0000 2.6316,-1.1782 2.6316 -2.6316Z"/></g><g stroke-linejoin="miter" stroke-opacity="0.0" fill-opacity="1.0" stroke="rgb(0,0,0)" stroke-width="0.0" fill="rgb(241,124,176)" stroke-linecap="butt" stroke-miterlimit="10.0"><path d="M 5.2632,305.2632 c 0.0000,-1.4534 -1.1782,-2.6316 -2.6316 -2.6316c -1.4534,-0.0000 -2.6316,1.1782 -2.6316 2.6316c -0.0000,1.4534 1.1782,2.6316 2.6316 2.6316c 1.4534,0.0000 2.6316,-1.1782 2.6316 -2.6316Z"/></g><g stroke-linejoin="miter" stroke-opacity="0.0" fill-opacity="1.0" stroke="rgb(0,0,0)" stroke-width="0.0" fill="rgb(241,124,176)" stroke-linecap="butt" stroke-miterlimit="10.0"><path d="M 5.2632,331.5789 c 0.0000,-1.4534 -1.1782,-2.6316 -2.6316 -2.6316c -1.4534,-0.0000 -2.6316,1.1782 -2.6316 2.6316c -0.0000,1.4534 1.1782,2.6316 2.6316 2.6316c 1.4534,0.0000 2.6316,-1.1782 2.6316 -2.6316Z"/></g></svg>