<?xml version="1.0" encoding="UTF-8"?>
<!DOCTYPE svg PUBLIC "-//W3C//DTD SVG 1.1//EN"
    "http://www.w3.org/Graphics/SVG/1.1/DTD/svg11.dtd"><svg xmlns="http://www.w3.org/2000/svg" height="400.0000" stroke-opacity="1" viewBox="0 0 600 400" font-size="1" width="600.0000" xmlns:xlink="http://www.w3.org/1999/xlink" stroke="rgb(0,0,0)" version="1.1"><defs></defs><g stroke-linejoin="miter" stroke-opacity="0.0" fill-opacity="0.1" stroke="rgb(0,0,0)" stroke-width="0.0" fill="rgb(0,0,0)" stroke-linecap="butt" stroke-miterlimit="10.0"><path d="M 112.7959,318.6070 l -0.0000,-272.5281 h -5.4506 l -0.0000,272.5281 Z"/></g><g stroke-linejoin="miter" stroke-opacity="1.0" fill-opacity="0.6" stroke="rgb(0,0,0)" fill-rule="evenodd" stroke-width="0.0" fill="rgb(0,0,0)" stroke-linecap="butt" stroke-miterlimit="10.0"><path d="M 86.2278,49.9160 ZM 90.4175,47.6246 c 0.0000,-1.3965 -0.7593,-2.0880 -1.5999 -2.0880c -0.6237,-0.0000 -1.0982,0.0949 -1.6270 0.3118l 0.4339,-3.7015 c 0.4474,0.0407 0.9084,0.0542 1.3830 0.0542c 0.6779,-0.0000 1.3830,-0.0407 2.1151 -0.1220l 0.0814,0.0407 l -0.2034,0.8813 c -0.5288,0.0542 -0.9627,0.0678 -1.3423 0.0678c -0.6101,-0.0000 -1.0711,-0.0542 -1.5457 -0.1085l -0.2576,2.1423 c 0.2847,-0.1085 0.7728,-0.2034 1.3016 -0.2034c 1.4372,-0.0000 2.2372,1.2474 2.2372 2.4948c 0.0000,1.5186 -1.0576,2.6846 -2.5897 2.6846c -0.7728,-0.0000 -1.8982,-0.4339 -1.8982 -0.9627c 0.0000,-0.2576 0.2169,-0.4339 0.4610 -0.4339c 0.2712,-0.0000 0.4474,0.2034 0.6101 0.4203c 0.2034,0.2441 0.4203,0.5152 0.8542 0.5152c 0.8678,-0.0000 1.5864,-0.8135 1.5864 -1.9931ZM 92.1665,49.9160 ZM 92.9394,49.3601 c 0.0000,-0.3932 0.3254,-0.7186 0.7186 -0.7186c 0.3932,-0.0000 0.7186,0.3254 0.7186 0.7186c 0.0000,0.3932 -0.3254,0.7186 -0.7186 0.7186c -0.3932,-0.0000 -0.7186,-0.3254 -0.7186 -0.7186ZM 95.1358,49.9160 ZM 98.1052,42.5537 c -0.5830,-0.0000 -1.4372,0.5695 -1.4372 3.7286c 0.0000,1.1118 0.2034,3.3490 1.3965 3.3490c 0.2305,-0.0000 0.8813,-0.1491 1.1660 -1.2067c 0.1763,-0.6508 0.2712,-1.4643 0.2712 -2.6439c 0.0000,-1.7219 -0.4339,-2.6846 -0.8271 -3.0236c -0.1491,-0.1356 -0.3525,-0.2034 -0.5695 -0.2034ZM 98.1052,42.5537 ZM 98.0509,50.0787 c -1.4508,-0.0000 -2.4270,-1.8575 -2.4270 -3.9320c 0.0000,-2.5355 1.2067,-4.0676 2.4812 -4.0676c 0.5830,-0.0000 1.1660,0.3661 1.5592 0.8949c 0.5695,0.7593 0.8678,1.7762 0.8678 3.0507c 0.0000,3.0100 -1.4914,4.0540 -2.4812 4.0540Z"/></g><g stroke-linejoin="miter" stroke-opacity="0.6" fill-opacity="0.0" stroke="rgb(0,0,0)" stroke-width="1.3626402680537124" fill="rgb(0,0,0)" stroke-linecap="butt" stroke-miterlimit="10.0"><path d="M 104.6201,46.0789 h 8.1758 "/></g><g stroke-linejoin="miter" stroke-opacity="1.0" fill-opacity="0.6" stroke="rgb(0,0,0)" fill-rule="evenodd" stroke-width="0.0" fill="rgb(0,0,0)" stroke-linecap="butt" stroke-miterlimit="10.0"><path d="M 86.4583,77.1688 ZM 89.9565,72.3555 c 0.0000,-0.0949 0.0136,-0.2034 0.1356 -0.2712c 0.1491,-0.1085 0.3932,-0.2305 0.5966 -0.2305c 0.1763,-0.0000 0.1898,0.1491 0.1898 0.4203v 2.1829 h 1.0982 l -0.0814,0.6373 h -1.0169 v 1.1254 c 0.0000,0.3796 0.0542,0.5695 0.4474 0.5695h 0.3661 c 0.0814,-0.0000 0.0949,0.0678 0.0949 0.0949v 0.2983 c 0.0000,-0.0000 -0.8678,-0.0271 -1.4372 -0.0271c -0.5152,-0.0000 -1.3152,0.0271 -1.3152 0.0271v -0.2983 c 0.0000,-0.0271 0.0136,-0.0949 0.0949 -0.0949h 0.3661 c 0.4203,-0.0000 0.4610,-0.1763 0.4610 -0.5695v -1.1254 h -2.6575 c -0.0542,-0.0000 -0.0814,-0.0271 -0.1220 -0.0814l -0.1085,-0.1491 l -0.1627,-0.2847 c -0.0136,-0.0000 -0.0136,-0.0136 -0.0136 -0.0271c 0.0000,-0.0136 0.0136,-0.0271 0.0271 -0.0407c 0.8813,-0.9762 2.4405,-3.9998 2.9287 -5.1116c 0.0136,-0.0542 0.0407,-0.0678 0.0949 -0.0678c 0.0136,-0.0000 0.3118,0.1220 0.4746 0.1491c -0.6101,1.6406 -1.6135,3.4032 -2.6033 4.9760h 2.1423 v -2.1016 ZM 92.3970,77.1688 ZM 93.1699,76.6129 c 0.0000,-0.3932 0.3254,-0.7186 0.7186 -0.7186c 0.3932,-0.0000 0.7186,0.3254 0.7186 0.7186c 0.0000,0.3932 -0.3254,0.7186 -0.7186 0.7186c -0.3932,-0.0000 -0.7186,-0.3254 -0.7186 -0.7186ZM 95.3663,77.1688 ZM 99.5560,74.8774 c 0.0000,-1.3965 -0.7593,-2.0880 -1.5999 -2.0880c -0.6237,-0.0000 -1.0982,0.0949 -1.6270 0.3118l 0.4339,-3.7015 c 0.4474,0.0407 0.9084,0.0542 1.3830 0.0542c 0.6779,-0.0000 1.3830,-0.0407 2.1151 -0.1220l 0.0814,0.0407 l -0.2034,0.8813 c -0.5288,0.0542 -0.9627,0.0678 -1.3423 0.0678c -0.6101,-0.0000 -1.0711,-0.0542 -1.5457 -0.1085l -0.2576,2.1423 c 0.2847,-0.1085 0.7728,-0.2034 1.3016 -0.2034c 1.4372,-0.0000 2.2372,1.2474 2.2372 2.4948c 0.0000,1.5186 -1.0576,2.6846 -2.5897 2.6846c -0.7728,-0.0000 -1.8982,-0.4339 -1.8982 -0.9627c 0.0000,-0.2576 0.2169,-0.4339 0.4610 -0.4339c 0.2712,-0.0000 0.4474,0.2034 0.6101 0.4203c 0.2034,0.2441 0.4203,0.5152 0.8542 0.5152c 0.8678,-0.0000 1.5864,-0.8135 1.5864 -1.9931Z"/></g><g stroke-linejoin="miter" stroke-opacity="0.6" fill-opacity="0.0" stroke="rgb(0,0,0)" stroke-width="1.3626402680537124" fill="rgb(0,0,0)" stroke-linecap="butt" stroke-miterlimit="10.0"><path d="M 104.6201,73.3317 h 8.1758 "/></g><g stroke-linejoin="miter" stroke-opacity="1.0" fill-opacity="0.6" stroke="rgb(0,0,0)" fill-rule="evenodd" stroke-width="0.0" fill="rgb(0,0,0)" stroke-linecap="butt" stroke-miterlimit="10.0"><path d="M 86.2278,104.4216 ZM 89.7260,99.6083 c 0.0000,-0.0949 0.0136,-0.2034 0.1356 -0.2712c 0.1491,-0.1085 0.3932,-0.2305 0.5966 -0.2305c 0.1763,-0.0000 0.1898,0.1491 0.1898 0.4203v 2.1829 h 1.0982 l -0.0814,0.6373 h -1.0169 v 1.1254 c 0.0000,0.3796 0.0542,0.5695 0.4474 0.5695h 0.3661 c 0.0814,-0.0000 0.0949,0.0678 0.0949 0.0949v 0.2983 c 0.0000,-0.0000 -0.8678,-0.0271 -1.4372 -0.0271c -0.5152,-0.0000 -1.3152,0.0271 -1.3152 0.0271v -0.2983 c 0.0000,-0.0271 0.0136,-0.0949 0.0949 -0.0949h 0.3661 c 0.4203,-0.0000 0.4610,-0.1763 0.4610 -0.5695v -1.1254 h -2.6575 c -0.0542,-0.0000 -0.0814,-0.0271 -0.1220 -0.0814l -0.1085,-0.1491 l -0.1627,-0.2847 c -0.0136,-0.0000 -0.0136,-0.0136 -0.0136 -0.0271c 0.0000,-0.0136 0.0136,-0.0271 0.0271 -0.0407c 0.8813,-0.9762 2.4405,-3.9998 2.9287 -5.1116c 0.0136,-0.0542 0.0407,-0.0678 0.0949 -0.0678c 0.0136,-0.0000 0.3118,0.1220 0.4746 0.1491c -0.6101,1.6406 -1.6135,3.4032 -2.6033 4.9760h 2.1423 v -2.1016 ZM 92.1665,104.4216 ZM 92.9394,103.8657 c 0.0000,-0.3932 0.3254,-0.7186 0.7186 -0.7186c 0.3932,-0.0000 0.7186,0.3254 0.7186 0.7186c 0.0000,0.3932 -0.3254,0.7186 -0.7186 0.7186c -0.3932,-0.0000 -0.7186,-0.3254 -0.7186 -0.7186ZM 95.1358,104.4216 ZM 98.1052,97.0593 c -0.5830,-0.0000 -1.4372,0.5695 -1.4372 3.7286c 0.0000,1.1118 0.2034,3.3490 1.3965 3.3490c 0.2305,-0.0000 0.8813,-0.1491 1.1660 -1.2067c 0.1763,-0.6508 0.2712,-1.4643 0.2712 -2.6439c 0.0000,-1.7219 -0.4339,-2.6846 -0.8271 -3.0236c -0.1491,-0.1356 -0.3525,-0.2034 -0.5695 -0.2034ZM 98.1052,97.0593 ZM 98.0509,104.5843 c -1.4508,-0.0000 -2.4270,-1.8575 -2.4270 -3.9320c 0.0000,-2.5355 1.2067,-4.0676 2.4812 -4.0676c 0.5830,-0.0000 1.1660,0.3661 1.5592 0.8949c 0.5695,0.7593 0.8678,1.7762 0.8678 3.0507c 0.0000,3.0100 -1.4914,4.0540 -2.4812 4.0540Z"/></g><g stroke-linejoin="miter" stroke-opacity="0.6" fill-opacity="0.0" stroke="rgb(0,0,0)" stroke-width="1.3626402680537124" fill="rgb(0,0,0)" stroke-linecap="butt" stroke-miterlimit="10.0"><path d="M 104.6201,100.5845 h 8.1758 "/></g><g stroke-linejoin="miter" stroke-opacity="1.0" fill-opacity="0.6" stroke="rgb(0,0,0)" fill-rule="evenodd" stroke-width="0.0" fill="rgb(0,0,0)" stroke-linecap="butt" stroke-miterlimit="10.0"><path d="M 86.4583,131.6744 ZM 89.3870,124.2579 c -0.3390,-0.0000 -1.3287,0.1898 -1.3287 1.0169c 0.0000,0.2441 -0.0949,0.6644 -0.4610 0.6644c -0.3525,-0.0000 -0.3796,-0.3932 -0.3796 -0.4339c 0.0000,-0.4203 0.5559,-1.6677 2.4405 -1.6677c 1.3152,-0.0000 1.7084,0.8271 1.7084 1.3694c 0.0000,0.3390 -0.1085,1.0169 -1.3287 1.7897c 0.7593,0.1220 1.7626,0.6779 1.7626 2.0880c 0.0000,1.7897 -1.3559,2.7524 -2.8880 2.7524c -0.7728,-0.0000 -1.8575,-0.3390 -1.8575 -0.8542c 0.0000,-0.2034 0.2034,-0.4339 0.4746 -0.4339c 0.2576,-0.0000 0.3796,0.1356 0.5017 0.3118c 0.1491,0.2305 0.3932,0.5559 1.0440 0.5559c 0.4474,-0.0000 1.7219,-0.4474 1.7219 -2.1558c 0.0000,-1.4508 -1.0169,-1.6813 -1.7491 -1.6813c -0.1220,-0.0000 -0.2712,0.0271 -0.4203 0.0542l -0.0542,-0.4068 c 1.0440,-0.1763 1.9118,-1.1932 1.9118 -1.8169c 0.0000,-0.7728 -0.5423,-1.1525 -1.0982 -1.1525ZM 92.3970,131.6744 ZM 93.1699,131.1185 c 0.0000,-0.3932 0.3254,-0.7186 0.7186 -0.7186c 0.3932,-0.0000 0.7186,0.3254 0.7186 0.7186c 0.0000,0.3932 -0.3254,0.7186 -0.7186 0.7186c -0.3932,-0.0000 -0.7186,-0.3254 -0.7186 -0.7186ZM 95.3663,131.6744 ZM 99.5560,129.3830 c 0.0000,-1.3965 -0.7593,-2.0880 -1.5999 -2.0880c -0.6237,-0.0000 -1.0982,0.0949 -1.6270 0.3118l 0.4339,-3.7015 c 0.4474,0.0407 0.9084,0.0542 1.3830 0.0542c 0.6779,-0.0000 1.3830,-0.0407 2.1151 -0.1220l 0.0814,0.0407 l -0.2034,0.8813 c -0.5288,0.0542 -0.9627,0.0678 -1.3423 0.0678c -0.6101,-0.0000 -1.0711,-0.0542 -1.5457 -0.1085l -0.2576,2.1423 c 0.2847,-0.1085 0.7728,-0.2034 1.3016 -0.2034c 1.4372,-0.0000 2.2372,1.2474 2.2372 2.4948c 0.0000,1.5186 -1.0576,2.6846 -2.5897 2.6846c -0.7728,-0.0000 -1.8982,-0.4339 -1.8982 -0.9627c 0.0000,-0.2576 0.2169,-0.4339 0.4610 -0.4339c 0.2712,-0.0000 0.4474,0.2034 0.6101 0.4203c 0.2034,0.2441 0.4203,0.5152 0.8542 0.5152c 0.8678,-0.0000 1.5864,-0.8135 1.5864 -1.9931Z"/></g><g stroke-linejoin="miter" stroke-opacity="0.6" fill-opacity="0.0" stroke="rgb(0,0,0)" stroke-width="1.3626402680537124" fill="rgb(0,0,0)" stroke-linecap="butt" stroke-miterlimit="10.0"><path d="M 104.6201,127.8374 h 8.1758 "/></g><g stroke-linejoin="miter" stroke-opacity="1.0" fill-opacity="0.6" stroke="rgb(0,0,0)" fill-rule="evenodd" stroke-width="0.0" fill="rgb(0,0,0)" stroke-linecap="butt" stroke-miterlimit="10.0"><path d="M 86.2278,158.9272 ZM 89.1565,151.5107 c -0.3390,-0.0000 -1.3287,0.1898 -1.3287 1.0169c 0.0000,0.2441 -0.0949,0.6644 -0.4610 0.6644c -0.3525,-0.0000 -0.3796,-0.3932 -0.3796 -0.4339c 0.0000,-0.4203 0.5559,-1.6677 2.4405 -1.6677c 1.3152,-0.0000 1.7084,0.8271 1.7084 1.3694c 0.0000,0.3390 -0.1085,1.0169 -1.3287 1.7897c 0.7593,0.1220 1.7626,0.6779 1.7626 2.0880c 0.0000,1.7897 -1.3559,2.7524 -2.8880 2.7524c -0.7728,-0.0000 -1.8575,-0.3390 -1.8575 -0.8542c 0.0000,-0.2034 0.2034,-0.4339 0.4746 -0.4339c 0.2576,-0.0000 0.3796,0.1356 0.5017 0.3118c 0.1491,0.2305 0.3932,0.5559 1.0440 0.5559c 0.4474,-0.0000 1.7219,-0.4474 1.7219 -2.1558c 0.0000,-1.4508 -1.0169,-1.6813 -1.7491 -1.6813c -0.1220,-0.0000 -0.2712,0.0271 -0.4203 0.0542l -0.0542,-0.4068 c 1.0440,-0.1763 1.9118,-1.1932 1.9118 -1.8169c 0.0000,-0.7728 -0.5423,-1.1525 -1.0982 -1.1525ZM 92.1665,158.9272 ZM 92.9394,158.3713 c 0.0000,-0.3932 0.3254,-0.7186 0.7186 -0.7186c 0.3932,-0.0000 0.7186,0.3254 0.7186 0.7186c 0.0000,0.3932 -0.3254,0.7186 -0.7186 0.7186c -0.3932,-0.0000 -0.7186,-0.3254 -0.7186 -0.7186ZM 95.1358,158.9272 ZM 98.1052,151.5649 c -0.5830,-0.0000 -1.4372,0.5695 -1.4372 3.7286c 0.0000,1.1118 0.2034,3.3490 1.3965 3.3490c 0.2305,-0.0000 0.8813,-0.1491 1.1660 -1.2067c 0.1763,-0.6508 0.2712,-1.4643 0.2712 -2.6439c 0.0000,-1.7219 -0.4339,-2.6846 -0.8271 -3.0236c -0.1491,-0.1356 -0.3525,-0.2034 -0.5695 -0.2034ZM 98.1052,151.5649 ZM 98.0509,159.0899 c -1.4508,-0.0000 -2.4270,-1.8575 -2.4270 -3.9320c 0.0000,-2.5355 1.2067,-4.0676 2.4812 -4.0676c 0.5830,-0.0000 1.1660,0.3661 1.5592 0.8949c 0.5695,0.7593 0.8678,1.7762 0.8678 3.0507c 0.0000,3.0100 -1.4914,4.0540 -2.4812 4.0540Z"/></g><g stroke-linejoin="miter" stroke-opacity="0.6" fill-opacity="0.0" stroke="rgb(0,0,0)" stroke-width="1.3626402680537124" fill="rgb(0,0,0)" stroke-linecap="butt" stroke-miterlimit="10.0"><path d="M 104.6201,155.0902 h 8.1758 "/></g><g stroke-linejoin="miter" stroke-opacity="1.0" fill-opacity="0.6" stroke="rgb(0,0,0)" fill-rule="evenodd" stroke-width="0.0" fill="rgb(0,0,0)" stroke-linecap="butt" stroke-miterlimit="10.0"><path d="M 86.4583,186.1800 ZM 87.2447,180.1736 c 0.0000,-0.7728 0.7457,-1.8304 2.1694 -1.8304c 1.0440,-0.0000 2.2643,0.3932 2.2643 1.9524c 0.0000,1.0305 -0.5288,1.5457 -1.2610 2.2507l -1.2881,1.2474 c -0.0678,0.0678 -0.9762,0.9627 -0.9762 1.5999h 2.3050 c 0.4610,-0.0000 0.7050,-0.2305 0.8949 -0.9762l 0.3390,0.0542 l -0.2712,1.7084 h -4.1896 c 0.0000,-0.7593 0.1220,-1.3423 1.3830 -2.6304l 0.9491,-0.9355 c 0.7593,-0.7728 1.0711,-1.4372 1.0711 -2.2643c 0.0000,-1.2338 -0.8406,-1.5864 -1.3016 -1.5864c -0.9355,-0.0000 -1.1932,0.4881 -1.1932 0.8135c 0.0000,0.1085 0.0271,0.2169 0.0542 0.3118c 0.0271,0.0949 0.0542,0.1898 0.0542 0.2983c 0.0000,0.3525 -0.2712,0.4881 -0.4881 0.4881c -0.2983,-0.0000 -0.5152,-0.2305 -0.5152 -0.5017ZM 92.3970,186.1800 ZM 93.1699,185.6241 c 0.0000,-0.3932 0.3254,-0.7186 0.7186 -0.7186c 0.3932,-0.0000 0.7186,0.3254 0.7186 0.7186c 0.0000,0.3932 -0.3254,0.7186 -0.7186 0.7186c -0.3932,-0.0000 -0.7186,-0.3254 -0.7186 -0.7186ZM 95.3663,186.1800 ZM 99.5560,183.8886 c 0.0000,-1.3965 -0.7593,-2.0880 -1.5999 -2.0880c -0.6237,-0.0000 -1.0982,0.0949 -1.6270 0.3118l 0.4339,-3.7015 c 0.4474,0.0407 0.9084,0.0542 1.3830 0.0542c 0.6779,-0.0000 1.3830,-0.0407 2.1151 -0.1220l 0.0814,0.0407 l -0.2034,0.8813 c -0.5288,0.0542 -0.9627,0.0678 -1.3423 0.0678c -0.6101,-0.0000 -1.0711,-0.0542 -1.5457 -0.1085l -0.2576,2.1423 c 0.2847,-0.1085 0.7728,-0.2034 1.3016 -0.2034c 1.4372,-0.0000 2.2372,1.2474 2.2372 2.4948c 0.0000,1.5186 -1.0576,2.6846 -2.5897 2.6846c -0.7728,-0.0000 -1.8982,-0.4339 -1.8982 -0.9627c 0.0000,-0.2576 0.2169,-0.4339 0.4610 -0.4339c 0.2712,-0.0000 0.4474,0.2034 0.6101 0.4203c 0.2034,0.2441 0.4203,0.5152 0.8542 0.5152c 0.8678,-0.0000 1.5864,-0.8135 1.5864 -1.9931Z"/></g><g stroke-linejoin="miter" stroke-opacity="0.6" fill-opacity="0.0" stroke="rgb(0,0,0)" stroke-width="1.3626402680537124" fill="rgb(0,0,0)" stroke-linecap="butt" stroke-miterlimit="10.0"><path d="M 104.6201,182.3430 h 8.1758 "/></g><g stroke-linejoin="miter" stroke-opacity="1.0" fill-opacity="0.6" stroke="rgb(0,0,0)" fill-rule="evenodd" stroke-width="0.0" fill="rgb(0,0,0)" stroke-linecap="butt" stroke-miterlimit="10.0"><path d="M 86.2278,213.4329 ZM 87.0142,207.4264 c 0.0000,-0.7728 0.7457,-1.8304 2.1694 -1.8304c 1.0440,-0.0000 2.2643,0.3932 2.2643 1.9524c 0.0000,1.0305 -0.5288,1.5457 -1.2610 2.2507l -1.2881,1.2474 c -0.0678,0.0678 -0.9762,0.9627 -0.9762 1.5999h 2.3050 c 0.4610,-0.0000 0.7050,-0.2305 0.8949 -0.9762l 0.3390,0.0542 l -0.2712,1.7084 h -4.1896 c 0.0000,-0.7593 0.1220,-1.3423 1.3830 -2.6304l 0.9491,-0.9355 c 0.7593,-0.7728 1.0711,-1.4372 1.0711 -2.2643c 0.0000,-1.2338 -0.8406,-1.5864 -1.3016 -1.5864c -0.9355,-0.0000 -1.1932,0.4881 -1.1932 0.8135c 0.0000,0.1085 0.0271,0.2169 0.0542 0.3118c 0.0271,0.0949 0.0542,0.1898 0.0542 0.2983c 0.0000,0.3525 -0.2712,0.4881 -0.4881 0.4881c -0.2983,-0.0000 -0.5152,-0.2305 -0.5152 -0.5017ZM 92.1665,213.4329 ZM 92.9394,212.8770 c 0.0000,-0.3932 0.3254,-0.7186 0.7186 -0.7186c 0.3932,-0.0000 0.7186,0.3254 0.7186 0.7186c 0.0000,0.3932 -0.3254,0.7186 -0.7186 0.7186c -0.3932,-0.0000 -0.7186,-0.3254 -0.7186 -0.7186ZM 95.1358,213.4329 ZM 98.1052,206.0705 c -0.5830,-0.0000 -1.4372,0.5695 -1.4372 3.7286c 0.0000,1.1118 0.2034,3.3490 1.3965 3.3490c 0.2305,-0.0000 0.8813,-0.1491 1.1660 -1.2067c 0.1763,-0.6508 0.2712,-1.4643 0.2712 -2.6439c 0.0000,-1.7219 -0.4339,-2.6846 -0.8271 -3.0236c -0.1491,-0.1356 -0.3525,-0.2034 -0.5695 -0.2034ZM 98.1052,206.0705 ZM 98.0509,213.5956 c -1.4508,-0.0000 -2.4270,-1.8575 -2.4270 -3.9320c 0.0000,-2.5355 1.2067,-4.0676 2.4812 -4.0676c 0.5830,-0.0000 1.1660,0.3661 1.5592 0.8949c 0.5695,0.7593 0.8678,1.7762 0.8678 3.0507c 0.0000,3.0100 -1.4914,4.0540 -2.4812 4.0540Z"/></g><g stroke-linejoin="miter" stroke-opacity="0.6" fill-opacity="0.0" stroke="rgb(0,0,0)" stroke-width="1.3626402680537124" fill="rgb(0,0,0)" stroke-linecap="butt" stroke-miterlimit="10.0"><path d="M 104.6201,209.5958 h 8.1758 "/></g><g stroke-linejoin="miter" stroke-opacity="1.0" fill-opacity="0.6" stroke="rgb(0,0,0)" fill-rule="evenodd" stroke-width="0.0" fill="rgb(0,0,0)" stroke-linecap="butt" stroke-miterlimit="10.0"><path d="M 86.4583,240.6857 ZM 89.0074,234.2182 c -0.2576,-0.0000 -0.8542,0.2441 -1.1525 0.3796l -0.1627,-0.4203 c 1.1932,-0.5559 1.6542,-0.8406 2.3321 -1.3287h 0.2576 v 6.8200 c 0.0000,0.4881 0.0678,0.6237 0.5152 0.6237h 0.7050 c 0.0407,-0.0000 0.1085,0.0271 0.1085 0.1085v 0.2983 l -1.8575,-0.0271 l -1.8846,0.0271 v -0.2983 c 0.0136,-0.0407 0.0271,-0.1085 0.1085 -0.1085h 0.8135 c 0.5152,-0.0000 0.5152,-0.2305 0.5152 -0.6237v -4.6642 c 0.0000,-0.4610 0.0000,-0.7864 -0.2983 -0.7864ZM 92.3970,240.6857 ZM 93.1699,240.1298 c 0.0000,-0.3932 0.3254,-0.7186 0.7186 -0.7186c 0.3932,-0.0000 0.7186,0.3254 0.7186 0.7186c 0.0000,0.3932 -0.3254,0.7186 -0.7186 0.7186c -0.3932,-0.0000 -0.7186,-0.3254 -0.7186 -0.7186ZM 95.3663,240.6857 ZM 99.5560,238.3943 c 0.0000,-1.3965 -0.7593,-2.0880 -1.5999 -2.0880c -0.6237,-0.0000 -1.0982,0.0949 -1.6270 0.3118l 0.4339,-3.7015 c 0.4474,0.0407 0.9084,0.0542 1.3830 0.0542c 0.6779,-0.0000 1.3830,-0.0407 2.1151 -0.1220l 0.0814,0.0407 l -0.2034,0.8813 c -0.5288,0.0542 -0.9627,0.0678 -1.3423 0.0678c -0.6101,-0.0000 -1.0711,-0.0542 -1.5457 -0.1085l -0.2576,2.1423 c 0.2847,-0.1085 0.7728,-0.2034 1.3016 -0.2034c 1.4372,-0.0000 2.2372,1.2474 2.2372 2.4948c 0.0000,1.5186 -1.0576,2.6846 -2.5897 2.6846c -0.7728,-0.0000 -1.8982,-0.4339 -1.8982 -0.9627c 0.0000,-0.2576 0.2169,-0.4339 0.4610 -0.4339c 0.2712,-0.0000 0.4474,0.2034 0.6101 0.4203c 0.2034,0.2441 0.4203,0.5152 0.8542 0.5152c 0.8678,-0.0000 1.5864,-0.8135 1.5864 -1.9931Z"/></g><g stroke-linejoin="miter" stroke-opacity="0.6" fill-opacity="0.0" stroke="rgb(0,0,0)" stroke-width="1.3626402680537124" fill="rgb(0,0,0)" stroke-linecap="butt" stroke-miterlimit="10.0"><path d="M 104.6201,236.8486 h 8.1758 "/></g><g stroke-linejoin="miter" stroke-opacity="1.0" fill-opacity="0.6" stroke="rgb(0,0,0)" fill-rule="evenodd" stroke-width="0.0" fill="rgb(0,0,0)" stroke-linecap="butt" stroke-miterlimit="10.0"><path d="M 86.2278,267.9385 ZM 88.7769,261.4710 c -0.2576,-0.0000 -0.8542,0.2441 -1.1525 0.3796l -0.1627,-0.4203 c 1.1932,-0.5559 1.6542,-0.8406 2.3321 -1.3287h 0.2576 v 6.8200 c 0.0000,0.4881 0.0678,0.6237 0.5152 0.6237h 0.7050 c 0.0407,-0.0000 0.1085,0.0271 0.1085 0.1085v 0.2983 l -1.8575,-0.0271 l -1.8846,0.0271 v -0.2983 c 0.0136,-0.0407 0.0271,-0.1085 0.1085 -0.1085h 0.8135 c 0.5152,-0.0000 0.5152,-0.2305 0.5152 -0.6237v -4.6642 c 0.0000,-0.4610 0.0000,-0.7864 -0.2983 -0.7864ZM 92.1665,267.9385 ZM 92.9394,267.3826 c 0.0000,-0.3932 0.3254,-0.7186 0.7186 -0.7186c 0.3932,-0.0000 0.7186,0.3254 0.7186 0.7186c 0.0000,0.3932 -0.3254,0.7186 -0.7186 0.7186c -0.3932,-0.0000 -0.7186,-0.3254 -0.7186 -0.7186ZM 95.1358,267.9385 ZM 98.1052,260.5761 c -0.5830,-0.0000 -1.4372,0.5695 -1.4372 3.7286c 0.0000,1.1118 0.2034,3.3490 1.3965 3.3490c 0.2305,-0.0000 0.8813,-0.1491 1.1660 -1.2067c 0.1763,-0.6508 0.2712,-1.4643 0.2712 -2.6439c 0.0000,-1.7219 -0.4339,-2.6846 -0.8271 -3.0236c -0.1491,-0.1356 -0.3525,-0.2034 -0.5695 -0.2034ZM 98.1052,260.5761 ZM 98.0509,268.1012 c -1.4508,-0.0000 -2.4270,-1.8575 -2.4270 -3.9320c 0.0000,-2.5355 1.2067,-4.0676 2.4812 -4.0676c 0.5830,-0.0000 1.1660,0.3661 1.5592 0.8949c 0.5695,0.7593 0.8678,1.7762 0.8678 3.0507c 0.0000,3.0100 -1.4914,4.0540 -2.4812 4.0540Z"/></g><g stroke-linejoin="miter" stroke-opacity="0.6" fill-opacity="0.0" stroke="rgb(0,0,0)" stroke-width="1.3626402680537124" fill="rgb(0,0,0)" stroke-linecap="butt" stroke-miterlimit="10.0"><path d="M 104.6201,264.1014 h 8.1758 "/></g><g stroke-linejoin="miter" stroke-opacity="1.0" fill-opacity="0.6" stroke="rgb(0,0,0)" fill-rule="evenodd" stroke-width="0.0" fill="rgb(0,0,0)" stroke-linecap="butt" stroke-miterlimit="10.0"><path d="M 86.4583,295.1913 ZM 89.4277,287.8289 c -0.5830,-0.0000 -1.4372,0.5695 -1.4372 3.7286c 0.0000,1.1118 0.2034,3.3490 1.3965 3.3490c 0.2305,-0.0000 0.8813,-0.1491 1.1660 -1.2067c 0.1763,-0.6508 0.2712,-1.4643 0.2712 -2.6439c 0.0000,-1.7219 -0.4339,-2.6846 -0.8271 -3.0236c -0.1491,-0.1356 -0.3525,-0.2034 -0.5695 -0.2034ZM 89.4277,287.8289 ZM 89.3734,295.3540 c -1.4508,-0.0000 -2.4270,-1.8575 -2.4270 -3.9320c 0.0000,-2.5355 1.2067,-4.0676 2.4812 -4.0676c 0.5830,-0.0000 1.1660,0.3661 1.5592 0.8949c 0.5695,0.7593 0.8678,1.7762 0.8678 3.0507c 0.0000,3.0100 -1.4914,4.0540 -2.4812 4.0540ZM 92.3970,295.1913 ZM 93.1699,294.6354 c 0.0000,-0.3932 0.3254,-0.7186 0.7186 -0.7186c 0.3932,-0.0000 0.7186,0.3254 0.7186 0.7186c 0.0000,0.3932 -0.3254,0.7186 -0.7186 0.7186c -0.3932,-0.0000 -0.7186,-0.3254 -0.7186 -0.7186ZM 95.3663,295.1913 ZM 99.5560,292.8999 c 0.0000,-1.3965 -0.7593,-2.0880 -1.5999 -2.0880c -0.6237,-0.0000 -1.0982,0.0949 -1.6270 0.3118l 0.4339,-3.7015 c 0.4474,0.0407 0.9084,0.0542 1.3830 0.0542c 0.6779,-0.0000 1.3830,-0.0407 2.1151 -0.1220l 0.0814,0.0407 l -0.2034,0.8813 c -0.5288,0.0542 -0.9627,0.0678 -1.3423 0.0678c -0.6101,-0.0000 -1.0711,-0.0542 -1.5457 -0.1085l -0.2576,2.1423 c 0.2847,-0.1085 0.7728,-0.2034 1.3016 -0.2034c 1.4372,-0.0000 2.2372,1.2474 2.2372 2.4948c 0.0000,1.5186 -1.0576,2.6846 -2.5897 2.6846c -0.7728,-0.0000 -1.8982,-0.4339 -1.8982 -0.9627c 0.0000,-0.2576 0.2169,-0.4339 0.4610 -0.4339c 0.2712,-0.0000 0.4474,0.2034 0.6101 0.4203c 0.2034,0.2441 0.4203,0.5152 0.8542 0.5152c 0.8678,-0.0000 1.5864,-0.8135 1.5864 -1.9931Z"/></g><g stroke-linejoin="miter" stroke-opacity="0.6" fill-opacity="0.0" stroke="rgb(0,0,0)" stroke-width="1.3626402680537124" fill="rgb(0,0,0)" stroke-linecap="butt" stroke-miterlimit="10.0"><path d="M 104.6201,291.3542 h 8.1758 "/></g><g stroke-linejoin="miter" stroke-opacity="1.0" fill-opacity="0.6" stroke="rgb(0,0,0)" fill-rule="evenodd" stroke-width="0.0" fill="rgb(0,0,0)" stroke-linecap="butt" stroke-miterlimit="10.0"><path d="M 86.2278,322.4441 ZM 89.1972,315.0817 c -0.5830,-0.0000 -1.4372,0.5695 -1.4372 3.7286c 0.0000,1.1118 0.2034,3.3490 1.3965 3.3490c 0.2305,-0.0000 0.8813,-0.1491 1.1660 -1.2067c 0.1763,-0.6508 0.2712,-1.4643 0.2712 -2.6439c 0.0000,-1.7219 -0.4339,-2.6846 -0.8271 -3.0236c -0.1491,-0.1356 -0.3525,-0.2034 -0.5695 -0.2034ZM 89.1972,315.0817 ZM 89.1429,322.6068 c -1.4508,-0.0000 -2.4270,-1.8575 -2.4270 -3.9320c 0.0000,-2.5355 1.2067,-4.0676 2.4812 -4.0676c 0.5830,-0.0000 1.1660,0.3661 1.5592 0.8949c 0.5695,0.7593 0.8678,1.7762 0.8678 3.0507c 0.0000,3.0100 -1.4914,4.0540 -2.4812 4.0540ZM 92.1665,322.4441 ZM 92.9394,321.8882 c 0.0000,-0.3932 0.3254,-0.7186 0.7186 -0.7186c 0.3932,-0.0000 0.7186,0.3254 0.7186 0.7186c 0.0000,0.3932 -0.3254,0.7186 -0.7186 0.7186c -0.3932,-0.0000 -0.7186,-0.3254 -0.7186 -0.7186ZM 95.1358,322.4441 ZM 98.1052,315.0817 c -0.5830,-0.0000 -1.4372,0.5695 -1.4372 3.7286c 0.0000,1.1118 0.2034,3.3490 1.3965 3.3490c 0.2305,-0.0000 0.8813,-0.1491 1.1660 -1.2067c 0.1763,-0.6508 0.2712,-1.4643 0.2712 -2.6439c 0.0000,-1.7219 -0.4339,-2.6846 -0.8271 -3.0236c -0.1491,-0.1356 -0.3525,-0.2034 -0.5695 -0.2034ZM 98.1052,315.0817 ZM 98.0509,322.6068 c -1.4508,-0.0000 -2.4270,-1.8575 -2.4270 -3.9320c 0.0000,-2.5355 1.2067,-4.0676 2.4812 -4.0676c 0.5830,-0.0000 1.1660,0.3661 1.5592 0.8949c 0.5695,0.7593 0.8678,1.7762 0.8678 3.0507c 0.0000,3.0100 -1.4914,4.0540 -2.4812 4.0540Z"/></g><g stroke-linejoin="miter" stroke-opacity="0.6" fill-opacity="0.0" stroke="rgb(0,0,0)" stroke-width="1.3626402680537124" fill="rgb(0,0,0)" stroke-linecap="butt" stroke-miterlimit="10.0"><path d="M 104.6201,318.6070 h 8.1758 "/></g><g stroke-linejoin="miter" stroke-opacity="0.0" fill-opacity="0.1" stroke="rgb(0,0,0)" stroke-width="0.0" fill="rgb(0,0,0)" stroke-linecap="butt" stroke-miterlimit="10.0"><path d="M 528.4961,324.0575 l -0.0000,-5.4506 h -408.7921 l -0.0000,5.4506 Z"/></g><g stroke-linejoin="miter" stroke-opacity="1.0" fill-opacity="0.6" stroke="rgb(0,0,0)" fill-rule="evenodd" stroke-width="0.0" fill="rgb(0,0,0)" stroke-linecap="butt" stroke-miterlimit="10.0"><path d="M 521.0457,338.7076 ZM 523.9743,331.2911 c -0.3390,-0.0000 -1.3287,0.1898 -1.3287 1.0169c 0.0000,0.2441 -0.0949,0.6644 -0.4610 0.6644c -0.3525,-0.0000 -0.3796,-0.3932 -0.3796 -0.4339c 0.0000,-0.4203 0.5559,-1.6677 2.4405 -1.6677c 1.3152,-0.0000 1.7084,0.8271 1.7084 1.3694c 0.0000,0.3390 -0.1085,1.0169 -1.3287 1.7897c 0.7593,0.1220 1.7626,0.6779 1.7626 2.0880c 0.0000,1.7897 -1.3559,2.7524 -2.8880 2.7524c -0.7728,-0.0000 -1.8575,-0.3390 -1.8575 -0.8542c 0.0000,-0.2034 0.2034,-0.4339 0.4746 -0.4339c 0.2576,-0.0000 0.3796,0.1356 0.5017 0.3118c 0.1491,0.2305 0.3932,0.5559 1.0440 0.5559c 0.4474,-0.0000 1.7219,-0.4474 1.7219 -2.1558c 0.0000,-1.4508 -1.0169,-1.6813 -1.7491 -1.6813c -0.1220,-0.0000 -0.2712,0.0271 -0.4203 0.0542l -0.0542,-0.4068 c 1.0440,-0.1763 1.9118,-1.1932 1.9118 -1.8169c 0.0000,-0.7728 -0.5423,-1.1525 -1.0982 -1.1525ZM 526.9843,338.7076 ZM 527.7572,338.1517 c 0.0000,-0.3932 0.3254,-0.7186 0.7186 -0.7186c 0.3932,-0.0000 0.7186,0.3254 0.7186 0.7186c 0.0000,0.3932 -0.3254,0.7186 -0.7186 0.7186c -0.3932,-0.0000 -0.7186,-0.3254 -0.7186 -0.7186ZM 529.9537,338.7076 ZM 532.9230,331.3453 c -0.5830,-0.0000 -1.4372,0.5695 -1.4372 3.7286c 0.0000,1.1118 0.2034,3.3490 1.3965 3.3490c 0.2305,-0.0000 0.8813,-0.1491 1.1660 -1.2067c 0.1763,-0.6508 0.2712,-1.4643 0.2712 -2.6439c 0.0000,-1.7219 -0.4339,-2.6846 -0.8271 -3.0236c -0.1491,-0.1356 -0.3525,-0.2034 -0.5695 -0.2034ZM 532.9230,331.3453 ZM 532.8688,338.8703 c -1.4508,-0.0000 -2.4270,-1.8575 -2.4270 -3.9320c 0.0000,-2.5355 1.2067,-4.0676 2.4812 -4.0676c 0.5830,-0.0000 1.1660,0.3661 1.5592 0.8949c 0.5695,0.7593 0.8678,1.7762 0.8678 3.0507c 0.0000,3.0100 -1.4914,4.0540 -2.4812 4.0540Z"/></g><g stroke-linejoin="miter" stroke-opacity="0.6" fill-opacity="0.0" stroke="rgb(0,0,0)" stroke-width="1.3626402680537124" fill="rgb(0,0,0)" stroke-linecap="butt" stroke-miterlimit="10.0"><path d="M 528.4961,318.6070 v 8.1758 "/></g><g stroke-linejoin="miter" stroke-opacity="1.0" fill-opacity="0.6" stroke="rgb(0,0,0)" fill-rule="evenodd" stroke-width="0.0" fill="rgb(0,0,0)" stroke-linecap="butt" stroke-miterlimit="10.0"><path d="M 452.9408,338.7076 ZM 453.7272,332.7012 c 0.0000,-0.7728 0.7457,-1.8304 2.1694 -1.8304c 1.0440,-0.0000 2.2643,0.3932 2.2643 1.9524c 0.0000,1.0305 -0.5288,1.5457 -1.2610 2.2507l -1.2881,1.2474 c -0.0678,0.0678 -0.9762,0.9627 -0.9762 1.5999h 2.3050 c 0.4610,-0.0000 0.7050,-0.2305 0.8949 -0.9762l 0.3390,0.0542 l -0.2712,1.7084 h -4.1896 c 0.0000,-0.7593 0.1220,-1.3423 1.3830 -2.6304l 0.9491,-0.9355 c 0.7593,-0.7728 1.0711,-1.4372 1.0711 -2.2643c 0.0000,-1.2338 -0.8406,-1.5864 -1.3016 -1.5864c -0.9355,-0.0000 -1.1932,0.4881 -1.1932 0.8135c 0.0000,0.1085 0.0271,0.2169 0.0542 0.3118c 0.0271,0.0949 0.0542,0.1898 0.0542 0.2983c 0.0000,0.3525 -0.2712,0.4881 -0.4881 0.4881c -0.2983,-0.0000 -0.5152,-0.2305 -0.5152 -0.5017ZM 458.8794,338.7076 ZM 459.6523,338.1517 c 0.0000,-0.3932 0.3254,-0.7186 0.7186 -0.7186c 0.3932,-0.0000 0.7186,0.3254 0.7186 0.7186c 0.0000,0.3932 -0.3254,0.7186 -0.7186 0.7186c -0.3932,-0.0000 -0.7186,-0.3254 -0.7186 -0.7186ZM 461.8488,338.7076 ZM 466.0384,336.4162 c 0.0000,-1.3965 -0.7593,-2.0880 -1.5999 -2.0880c -0.6237,-0.0000 -1.0982,0.0949 -1.6270 0.3118l 0.4339,-3.7015 c 0.4474,0.0407 0.9084,0.0542 1.3830 0.0542c 0.6779,-0.0000 1.3830,-0.0407 2.1151 -0.1220l 0.0814,0.0407 l -0.2034,0.8813 c -0.5288,0.0542 -0.9627,0.0678 -1.3423 0.0678c -0.6101,-0.0000 -1.0711,-0.0542 -1.5457 -0.1085l -0.2576,2.1423 c 0.2847,-0.1085 0.7728,-0.2034 1.3016 -0.2034c 1.4372,-0.0000 2.2372,1.2474 2.2372 2.4948c 0.0000,1.5186 -1.0576,2.6846 -2.5897 2.6846c -0.7728,-0.0000 -1.8982,-0.4339 -1.8982 -0.9627c 0.0000,-0.2576 0.2169,-0.4339 0.4610 -0.4339c 0.2712,-0.0000 0.4474,0.2034 0.6101 0.4203c 0.2034,0.2441 0.4203,0.5152 0.8542 0.5152c 0.8678,-0.0000 1.5864,-0.8135 1.5864 -1.9931Z"/></g><g stroke-linejoin="miter" stroke-opacity="0.6" fill-opacity="0.0" stroke="rgb(0,0,0)" stroke-width="1.3626402680537124" fill="rgb(0,0,0)" stroke-linecap="butt" stroke-miterlimit="10.0"><path d="M 460.3641,318.6070 v 8.1758 "/></g><g stroke-linejoin="miter" stroke-opacity="1.0" fill-opacity="0.6" stroke="rgb(0,0,0)" fill-rule="evenodd" stroke-width="0.0" fill="rgb(0,0,0)" stroke-linecap="butt" stroke-miterlimit="10.0"><path d="M 384.6935,338.7076 ZM 385.4799,332.7012 c 0.0000,-0.7728 0.7457,-1.8304 2.1694 -1.8304c 1.0440,-0.0000 2.2643,0.3932 2.2643 1.9524c 0.0000,1.0305 -0.5288,1.5457 -1.2610 2.2507l -1.2881,1.2474 c -0.0678,0.0678 -0.9762,0.9627 -0.9762 1.5999h 2.3050 c 0.4610,-0.0000 0.7050,-0.2305 0.8949 -0.9762l 0.3390,0.0542 l -0.2712,1.7084 h -4.1896 c 0.0000,-0.7593 0.1220,-1.3423 1.3830 -2.6304l 0.9491,-0.9355 c 0.7593,-0.7728 1.0711,-1.4372 1.0711 -2.2643c 0.0000,-1.2338 -0.8406,-1.5864 -1.3016 -1.5864c -0.9355,-0.0000 -1.1932,0.4881 -1.1932 0.8135c 0.0000,0.1085 0.0271,0.2169 0.0542 0.3118c 0.0271,0.0949 0.0542,0.1898 0.0542 0.2983c 0.0000,0.3525 -0.2712,0.4881 -0.4881 0.4881c -0.2983,-0.0000 -0.5152,-0.2305 -0.5152 -0.5017ZM 390.6322,338.7076 ZM 391.4050,338.1517 c 0.0000,-0.3932 0.3254,-0.7186 0.7186 -0.7186c 0.3932,-0.0000 0.7186,0.3254 0.7186 0.7186c 0.0000,0.3932 -0.3254,0.7186 -0.7186 0.7186c -0.3932,-0.0000 -0.7186,-0.3254 -0.7186 -0.7186ZM 393.6015,338.7076 ZM 396.5709,331.3453 c -0.5830,-0.0000 -1.4372,0.5695 -1.4372 3.7286c 0.0000,1.1118 0.2034,3.3490 1.3965 3.3490c 0.2305,-0.0000 0.8813,-0.1491 1.1660 -1.2067c 0.1763,-0.6508 0.2712,-1.4643 0.2712 -2.6439c 0.0000,-1.7219 -0.4339,-2.6846 -0.8271 -3.0236c -0.1491,-0.1356 -0.3525,-0.2034 -0.5695 -0.2034ZM 396.5709,331.3453 ZM 396.5166,338.8703 c -1.4508,-0.0000 -2.4270,-1.8575 -2.4270 -3.9320c 0.0000,-2.5355 1.2067,-4.0676 2.4812 -4.0676c 0.5830,-0.0000 1.1660,0.3661 1.5592 0.8949c 0.5695,0.7593 0.8678,1.7762 0.8678 3.0507c 0.0000,3.0100 -1.4914,4.0540 -2.4812 4.0540Z"/></g><g stroke-linejoin="miter" stroke-opacity="0.6" fill-opacity="0.0" stroke="rgb(0,0,0)" stroke-width="1.3626402680537124" fill="rgb(0,0,0)" stroke-linecap="butt" stroke-miterlimit="10.0"><path d="M 392.2321,318.6070 v 8.1758 "/></g><g stroke-linejoin="miter" stroke-opacity="1.0" fill-opacity="0.6" stroke="rgb(0,0,0)" fill-rule="evenodd" stroke-width="0.0" fill="rgb(0,0,0)" stroke-linecap="butt" stroke-miterlimit="10.0"><path d="M 316.4463,338.7076 ZM 318.9953,332.2402 c -0.2576,-0.0000 -0.8542,0.2441 -1.1525 0.3796l -0.1627,-0.4203 c 1.1932,-0.5559 1.6542,-0.8406 2.3321 -1.3287h 0.2576 v 6.8200 c 0.0000,0.4881 0.0678,0.6237 0.5152 0.6237h 0.7050 c 0.0407,-0.0000 0.1085,0.0271 0.1085 0.1085v 0.2983 l -1.8575,-0.0271 l -1.8846,0.0271 v -0.2983 c 0.0136,-0.0407 0.0271,-0.1085 0.1085 -0.1085h 0.8135 c 0.5152,-0.0000 0.5152,-0.2305 0.5152 -0.6237v -4.6642 c 0.0000,-0.4610 0.0000,-0.7864 -0.2983 -0.7864ZM 322.3849,338.7076 ZM 323.1578,338.1517 c 0.0000,-0.3932 0.3254,-0.7186 0.7186 -0.7186c 0.3932,-0.0000 0.7186,0.3254 0.7186 0.7186c 0.0000,0.3932 -0.3254,0.7186 -0.7186 0.7186c -0.3932,-0.0000 -0.7186,-0.3254 -0.7186 -0.7186ZM 325.3543,338.7076 ZM 329.5439,336.4162 c 0.0000,-1.3965 -0.7593,-2.0880 -1.5999 -2.0880c -0.6237,-0.0000 -1.0982,0.0949 -1.6270 0.3118l 0.4339,-3.7015 c 0.4474,0.0407 0.9084,0.0542 1.3830 0.0542c 0.6779,-0.0000 1.3830,-0.0407 2.1151 -0.1220l 0.0814,0.0407 l -0.2034,0.8813 c -0.5288,0.0542 -0.9627,0.0678 -1.3423 0.0678c -0.6101,-0.0000 -1.0711,-0.0542 -1.5457 -0.1085l -0.2576,2.1423 c 0.2847,-0.1085 0.7728,-0.2034 1.3016 -0.2034c 1.4372,-0.0000 2.2372,1.2474 2.2372 2.4948c 0.0000,1.5186 -1.0576,2.6846 -2.5897 2.6846c -0.7728,-0.0000 -1.8982,-0.4339 -1.8982 -0.9627c 0.0000,-0.2576 0.2169,-0.4339 0.4610 -0.4339c 0.2712,-0.0000 0.4474,0.2034 0.6101 0.4203c 0.2034,0.2441 0.4203,0.5152 0.8542 0.5152c 0.8678,-0.0000 1.5864,-0.8135 1.5864 -1.9931Z"/></g><g stroke-linejoin="miter" stroke-opacity="0.6" fill-opacity="0.0" stroke="rgb(0,0,0)" stroke-width="1.3626402680537124" fill="rgb(0,0,0)" stroke-linecap="butt" stroke-miterlimit="10.0"><path d="M 324.1001,318.6070 v 8.1758 "/></g><g stroke-linejoin="miter" stroke-opacity="1.0" fill-opacity="0.6" stroke="rgb(0,0,0)" fill-rule="evenodd" stroke-width="0.0" fill="rgb(0,0,0)" stroke-linecap="butt" stroke-miterlimit="10.0"><path d="M 248.1990,338.7076 ZM 250.7480,332.2402 c -0.2576,-0.0000 -0.8542,0.2441 -1.1525 0.3796l -0.1627,-0.4203 c 1.1932,-0.5559 1.6542,-0.8406 2.3321 -1.3287h 0.2576 v 6.8200 c 0.0000,0.4881 0.0678,0.6237 0.5152 0.6237h 0.7050 c 0.0407,-0.0000 0.1085,0.0271 0.1085 0.1085v 0.2983 l -1.8575,-0.0271 l -1.8846,0.0271 v -0.2983 c 0.0136,-0.0407 0.0271,-0.1085 0.1085 -0.1085h 0.8135 c 0.5152,-0.0000 0.5152,-0.2305 0.5152 -0.6237v -4.6642 c 0.0000,-0.4610 0.0000,-0.7864 -0.2983 -0.7864ZM 254.1377,338.7076 ZM 254.9105,338.1517 c 0.0000,-0.3932 0.3254,-0.7186 0.7186 -0.7186c 0.3932,-0.0000 0.7186,0.3254 0.7186 0.7186c 0.0000,0.3932 -0.3254,0.7186 -0.7186 0.7186c -0.3932,-0.0000 -0.7186,-0.3254 -0.7186 -0.7186ZM 257.1070,338.7076 ZM 260.0763,331.3453 c -0.5830,-0.0000 -1.4372,0.5695 -1.4372 3.7286c 0.0000,1.1118 0.2034,3.3490 1.3965 3.3490c 0.2305,-0.0000 0.8813,-0.1491 1.1660 -1.2067c 0.1763,-0.6508 0.2712,-1.4643 0.2712 -2.6439c 0.0000,-1.7219 -0.4339,-2.6846 -0.8271 -3.0236c -0.1491,-0.1356 -0.3525,-0.2034 -0.5695 -0.2034ZM 260.0763,331.3453 ZM 260.0221,338.8703 c -1.4508,-0.0000 -2.4270,-1.8575 -2.4270 -3.9320c 0.0000,-2.5355 1.2067,-4.0676 2.4812 -4.0676c 0.5830,-0.0000 1.1660,0.3661 1.5592 0.8949c 0.5695,0.7593 0.8678,1.7762 0.8678 3.0507c 0.0000,3.0100 -1.4914,4.0540 -2.4812 4.0540Z"/></g><g stroke-linejoin="miter" stroke-opacity="0.6" fill-opacity="0.0" stroke="rgb(0,0,0)" stroke-width="1.3626402680537124" fill="rgb(0,0,0)" stroke-linecap="butt" stroke-miterlimit="10.0"><path d="M 255.9681,318.6070 v 8.1758 "/></g><g stroke-linejoin="miter" stroke-opacity="1.0" fill-opacity="0.6" stroke="rgb(0,0,0)" fill-rule="evenodd" stroke-width="0.0" fill="rgb(0,0,0)" stroke-linecap="butt" stroke-miterlimit="10.0"><path d="M 180.5551,338.7076 ZM 183.5244,331.3453 c -0.5830,-0.0000 -1.4372,0.5695 -1.4372 3.7286c 0.0000,1.1118 0.2034,3.3490 1.3965 3.3490c 0.2305,-0.0000 0.8813,-0.1491 1.1660 -1.2067c 0.1763,-0.6508 0.2712,-1.4643 0.2712 -2.6439c 0.0000,-1.7219 -0.4339,-2.6846 -0.8271 -3.0236c -0.1491,-0.1356 -0.3525,-0.2034 -0.5695 -0.2034ZM 183.5244,331.3453 ZM 183.4702,338.8703 c -1.4508,-0.0000 -2.4270,-1.8575 -2.4270 -3.9320c 0.0000,-2.5355 1.2067,-4.0676 2.4812 -4.0676c 0.5830,-0.0000 1.1660,0.3661 1.5592 0.8949c 0.5695,0.7593 0.8678,1.7762 0.8678 3.0507c 0.0000,3.0100 -1.4914,4.0540 -2.4812 4.0540ZM 186.4938,338.7076 ZM 187.2666,338.1517 c 0.0000,-0.3932 0.3254,-0.7186 0.7186 -0.7186c 0.3932,-0.0000 0.7186,0.3254 0.7186 0.7186c 0.0000,0.3932 -0.3254,0.7186 -0.7186 0.7186c -0.3932,-0.0000 -0.7186,-0.3254 -0.7186 -0.7186ZM 189.4631,338.7076 ZM 193.6527,336.4162 c 0.0000,-1.3965 -0.7593,-2.0880 -1.5999 -2.0880c -0.6237,-0.0000 -1.0982,0.0949 -1.6270 0.3118l 0.4339,-3.7015 c 0.4474,0.0407 0.9084,0.0542 1.3830 0.0542c 0.6779,-0.0000 1.3830,-0.0407 2.1151 -0.1220l 0.0814,0.0407 l -0.2034,0.8813 c -0.5288,0.0542 -0.9627,0.0678 -1.3423 0.0678c -0.6101,-0.0000 -1.0711,-0.0542 -1.5457 -0.1085l -0.2576,2.1423 c 0.2847,-0.1085 0.7728,-0.2034 1.3016 -0.2034c 1.4372,-0.0000 2.2372,1.2474 2.2372 2.4948c 0.0000,1.5186 -1.0576,2.6846 -2.5897 2.6846c -0.7728,-0.0000 -1.8982,-0.4339 -1.8982 -0.9627c 0.0000,-0.2576 0.2169,-0.4339 0.4610 -0.4339c 0.2712,-0.0000 0.4474,0.2034 0.6101 0.4203c 0.2034,0.2441 0.4203,0.5152 0.8542 0.5152c 0.8678,-0.0000 1.5864,-0.8135 1.5864 -1.9931Z"/></g><g stroke-linejoin="miter" stroke-opacity="0.6" fill-opacity="0.0" stroke="rgb(0,0,0)" stroke-width="1.3626402680537124" fill="rgb(0,0,0)" stroke-linecap="butt" stroke-miterlimit="10.0"><path d="M 187.8361,318.6070 v 8.1758 "/></g><g stroke-linejoin="miter" stroke-opacity="1.0" fill-opacity="0.6" stroke="rgb(0,0,0)" fill-rule="evenodd" stroke-width="0.0" fill="rgb(0,0,0)" stroke-linecap="butt" stroke-miterlimit="10.0"><path d="M 112.3078,338.7076 ZM 115.2772,331.3453 c -0.5830,-0.0000 -1.4372,0.5695 -1.4372 3.7286c 0.0000,1.1118 0.2034,3.3490 1.3965 3.3490c 0.2305,-0.0000 0.8813,-0.1491 1.1660 -1.2067c 0.1763,-0.6508 0.2712,-1.4643 0.2712 -2.6439c 0.0000,-1.7219 -0.4339,-2.6846 -0.8271 -3.0236c -0.1491,-0.1356 -0.3525,-0.2034 -0.5695 -0.2034ZM 115.2772,331.3453 ZM 115.2229,338.8703 c -1.4508,-0.0000 -2.4270,-1.8575 -2.4270 -3.9320c 0.0000,-2.5355 1.2067,-4.0676 2.4812 -4.0676c 0.5830,-0.0000 1.1660,0.3661 1.5592 0.8949c 0.5695,0.7593 0.8678,1.7762 0.8678 3.0507c 0.0000,3.0100 -1.4914,4.0540 -2.4812 4.0540ZM 118.2465,338.7076 ZM 119.0193,338.1517 c 0.0000,-0.3932 0.3254,-0.7186 0.7186 -0.7186c 0.3932,-0.0000 0.7186,0.3254 0.7186 0.7186c 0.0000,0.3932 -0.3254,0.7186 -0.7186 0.7186c -0.3932,-0.0000 -0.7186,-0.3254 -0.7186 -0.7186ZM 121.2158,338.7076 ZM 124.1852,331.3453 c -0.5830,-0.0000 -1.4372,0.5695 -1.4372 3.7286c 0.0000,1.1118 0.2034,3.3490 1.3965 3.3490c 0.2305,-0.0000 0.8813,-0.1491 1.1660 -1.2067c 0.1763,-0.6508 0.2712,-1.4643 0.2712 -2.6439c 0.0000,-1.7219 -0.4339,-2.6846 -0.8271 -3.0236c -0.1491,-0.1356 -0.3525,-0.2034 -0.5695 -0.2034ZM 124.1852,331.3453 ZM 124.1309,338.8703 c -1.4508,-0.0000 -2.4270,-1.8575 -2.4270 -3.9320c 0.0000,-2.5355 1.2067,-4.0676 2.4812 -4.0676c 0.5830,-0.0000 1.1660,0.3661 1.5592 0.8949c 0.5695,0.7593 0.8678,1.7762 0.8678 3.0507c 0.0000,3.0100 -1.4914,4.0540 -2.4812 4.0540Z"/></g><g stroke-linejoin="miter" stroke-opacity="0.6" fill-opacity="0.0" stroke="rgb(0,0,0)" stroke-width="1.3626402680537124" fill="rgb(0,0,0)" stroke-linecap="butt" stroke-miterlimit="10.0"><path d="M 119.7040,318.6070 v 8.1758 "/></g><g stroke-linejoin="miter" stroke-opacity="0.0" fill-opacity="0.0" stroke="rgb(0,0,0)" stroke-width="0.0" fill="rgb(0,0,0)" stroke-linecap="butt" stroke-miterlimit="10.0"><path d="M 528.4690,318.6070 l -0.0000,-272.5281 h -408.7921 l -0.0000,272.5281 Z"/></g><g stroke-linejoin="miter" stroke-opacity="0.6" fill-opacity="0.0" stroke="rgb(44,160,44)" stroke-width="2.4443122444257197" fill="rgb(0,0,0)" stroke-linecap="butt" stroke-miterlimit="10.0"><path d="M 187.8089,100.5845 v 218.0224 "/></g><g stroke-linejoin="miter" stroke-opacity="0.6" fill-opacity="0.0" stroke="rgb(255,127,14)" stroke-width="9.777248977702879" fill="rgb(0,0,0)" stroke-linecap="butt" stroke-miterlimit="10.0"><path d="M 119.6769,318.6070 l 408.7921,-163.5168 "/></g><g stroke-linejoin="miter" stroke-opacity="0.6" fill-opacity="0.0" stroke="rgb(31,119,180)" stroke-width="4.888624488851439" fill="rgb(0,0,0)" stroke-linecap="butt" stroke-miterlimit="10.0"><path d="M 119.6769,264.1014 h 136.2640 l 136.2640,-218.0224 "/></g></svg>