<?xml version="1.0" encoding="UTF-8"?>
<!DOCTYPE svg PUBLIC "-//W3C//DTD SVG 1.1//EN"
    "http://www.w3.org/Graphics/SVG/1.1/DTD/svg11.dtd"><svg xmlns="http://www.w3.org/2000/svg" height="400.0000" stroke-opacity="1" viewBox="0 0 600 400" font-size="1" width="600.0000" xmlns:xlink="http://www.w3.org/1999/xlink" stroke="rgb(0,0,0)" version="1.1"><defs></defs><g stroke-linejoin="miter" stroke-opacity="0.0" fill-opacity="0.1" stroke="rgb(0,0,0)" stroke-width="0.0" fill="rgb(0,0,0)" stroke-linecap="butt" stroke-miterlimit="10.0"><path d="M 497.7494,326.0927 l -0.0000,-247.4638 h -4.9493 l -0.0000,247.4638 Z"/></g><g stroke-linejoin="miter" stroke-opacity="1.0" fill-opacity="0.6" stroke="rgb(0,0,0)" fill-rule="evenodd" stroke-width="0.0" fill="rgb(0,0,0)" stroke-linecap="butt" stroke-miterlimit="10.0"><path d="M 503.4928,82.1130 ZM 506.1891,75.4278 c -0.5294,-0.0000 -1.3050,0.5171 -1.3050 3.3857c 0.0000,1.0096 0.1847,3.0410 1.2681 3.0410c 0.2093,-0.0000 0.8003,-0.1354 1.0588 -1.0957c 0.1601,-0.5910 0.2462,-1.3297 0.2462 -2.4008c 0.0000,-1.5636 -0.3940,-2.4377 -0.7510 -2.7455c -0.1354,-0.1231 -0.3201,-0.1847 -0.5171 -0.1847ZM 506.1891,75.4278 ZM 506.1398,82.2608 c -1.3173,-0.0000 -2.2038,-1.6867 -2.2038 -3.5704c 0.0000,-2.3023 1.0957,-3.6935 2.2530 -3.6935c 0.5294,-0.0000 1.0588,0.3324 1.4158 0.8126c 0.5171,0.6895 0.7879,1.6128 0.7879 2.7701c 0.0000,2.7332 -1.3543,3.6812 -2.2530 3.6812ZM 508.8853,82.1130 ZM 509.5871,81.6083 c 0.0000,-0.3570 0.2955,-0.6525 0.6525 -0.6525c 0.3570,-0.0000 0.6525,0.2955 0.6525 0.6525c 0.0000,0.3570 -0.2955,0.6525 -0.6525 0.6525c -0.3570,-0.0000 -0.6525,-0.2955 -0.6525 -0.6525ZM 511.5816,82.1130 ZM 515.3858,80.0324 c 0.0000,-1.2681 -0.6895,-1.8960 -1.4528 -1.8960c -0.5663,-0.0000 -0.9972,0.0862 -1.4774 0.2832l 0.3940,-3.3611 c 0.4063,0.0369 0.8249,0.0492 1.2558 0.0492c 0.6156,-0.0000 1.2558,-0.0369 1.9206 -0.1108l 0.0739,0.0369 l -0.1847,0.8003 c -0.4802,0.0492 -0.8741,0.0616 -1.2189 0.0616c -0.5540,-0.0000 -0.9726,-0.0492 -1.4035 -0.0985l -0.2339,1.9452 c 0.2585,-0.0985 0.7018,-0.1847 1.1819 -0.1847c 1.3050,-0.0000 2.0314,1.1327 2.0314 2.2653c 0.0000,1.3789 -0.9603,2.4377 -2.3515 2.4377c -0.7018,-0.0000 -1.7236,-0.3940 -1.7236 -0.8741c 0.0000,-0.2339 0.1970,-0.3940 0.4186 -0.3940c 0.2462,-0.0000 0.4063,0.1847 0.5540 0.3817c 0.1847,0.2216 0.3817,0.4678 0.7756 0.4678c 0.7879,-0.0000 1.4405,-0.7387 1.4405 -1.8098Z"/></g><g stroke-linejoin="miter" stroke-opacity="0.6" fill-opacity="0.0" stroke="rgb(0,0,0)" stroke-width="1.2373190190091596" fill="rgb(0,0,0)" stroke-linecap="butt" stroke-miterlimit="10.0"><path d="M 492.8002,78.6289 h 7.4239 "/></g><g stroke-linejoin="miter" stroke-opacity="1.0" fill-opacity="0.6" stroke="rgb(0,0,0)" fill-rule="evenodd" stroke-width="0.0" fill="rgb(0,0,0)" stroke-linecap="butt" stroke-miterlimit="10.0"><path d="M 503.4928,106.8594 ZM 506.1891,100.1742 c -0.5294,-0.0000 -1.3050,0.5171 -1.3050 3.3857c 0.0000,1.0096 0.1847,3.0410 1.2681 3.0410c 0.2093,-0.0000 0.8003,-0.1354 1.0588 -1.0957c 0.1601,-0.5910 0.2462,-1.3297 0.2462 -2.4008c 0.0000,-1.5636 -0.3940,-2.4377 -0.7510 -2.7455c -0.1354,-0.1231 -0.3201,-0.1847 -0.5171 -0.1847ZM 506.1891,100.1742 ZM 506.1398,107.0072 c -1.3173,-0.0000 -2.2038,-1.6867 -2.2038 -3.5704c 0.0000,-2.3023 1.0957,-3.6935 2.2530 -3.6935c 0.5294,-0.0000 1.0588,0.3324 1.4158 0.8126c 0.5171,0.6895 0.7879,1.6128 0.7879 2.7701c 0.0000,2.7332 -1.3543,3.6812 -2.2530 3.6812ZM 508.8853,106.8594 ZM 509.5871,106.3546 c 0.0000,-0.3570 0.2955,-0.6525 0.6525 -0.6525c 0.3570,-0.0000 0.6525,0.2955 0.6525 0.6525c 0.0000,0.3570 -0.2955,0.6525 -0.6525 0.6525c -0.3570,-0.0000 -0.6525,-0.2955 -0.6525 -0.6525ZM 511.5816,106.8594 ZM 514.7580,102.4888 c 0.0000,-0.0862 0.0123,-0.1847 0.1231 -0.2462c 0.1354,-0.0985 0.3570,-0.2093 0.5417 -0.2093c 0.1601,-0.0000 0.1724,0.1354 0.1724 0.3817v 1.9822 h 0.9972 l -0.0739,0.5786 h -0.9234 v 1.0219 c 0.0000,0.3447 0.0492,0.5171 0.4063 0.5171h 0.3324 c 0.0739,-0.0000 0.0862,0.0616 0.0862 0.0862v 0.2709 c 0.0000,-0.0000 -0.7879,-0.0246 -1.3050 -0.0246c -0.4678,-0.0000 -1.1942,0.0246 -1.1942 0.0246v -0.2709 c 0.0000,-0.0246 0.0123,-0.0862 0.0862 -0.0862h 0.3324 c 0.3817,-0.0000 0.4186,-0.1601 0.4186 -0.5171v -1.0219 h -2.4131 c -0.0492,-0.0000 -0.0739,-0.0246 -0.1108 -0.0739l -0.0985,-0.1354 l -0.1477,-0.2585 c -0.0123,-0.0000 -0.0123,-0.0123 -0.0123 -0.0246c 0.0000,-0.0123 0.0123,-0.0246 0.0246 -0.0369c 0.8003,-0.8864 2.2161,-3.6319 2.6593 -4.6415c 0.0123,-0.0492 0.0369,-0.0616 0.0862 -0.0616c 0.0123,-0.0000 0.2832,0.1108 0.4309 0.1354c -0.5540,1.4897 -1.4651,3.0902 -2.3638 4.5184h 1.9452 v -1.9083 Z"/></g><g stroke-linejoin="miter" stroke-opacity="0.6" fill-opacity="0.0" stroke="rgb(0,0,0)" stroke-width="1.2373190190091596" fill="rgb(0,0,0)" stroke-linecap="butt" stroke-miterlimit="10.0"><path d="M 492.8002,103.3752 h 7.4239 "/></g><g stroke-linejoin="miter" stroke-opacity="1.0" fill-opacity="0.6" stroke="rgb(0,0,0)" fill-rule="evenodd" stroke-width="0.0" fill="rgb(0,0,0)" stroke-linecap="butt" stroke-miterlimit="10.0"><path d="M 503.4928,131.6058 ZM 506.1891,124.9206 c -0.5294,-0.0000 -1.3050,0.5171 -1.3050 3.3857c 0.0000,1.0096 0.1847,3.0410 1.2681 3.0410c 0.2093,-0.0000 0.8003,-0.1354 1.0588 -1.0957c 0.1601,-0.5910 0.2462,-1.3297 0.2462 -2.4008c 0.0000,-1.5636 -0.3940,-2.4377 -0.7510 -2.7455c -0.1354,-0.1231 -0.3201,-0.1847 -0.5171 -0.1847ZM 506.1891,124.9206 ZM 506.1398,131.7535 c -1.3173,-0.0000 -2.2038,-1.6867 -2.2038 -3.5704c 0.0000,-2.3023 1.0957,-3.6935 2.2530 -3.6935c 0.5294,-0.0000 1.0588,0.3324 1.4158 0.8126c 0.5171,0.6895 0.7879,1.6128 0.7879 2.7701c 0.0000,2.7332 -1.3543,3.6812 -2.2530 3.6812ZM 508.8853,131.6058 ZM 509.5871,131.1010 c 0.0000,-0.3570 0.2955,-0.6525 0.6525 -0.6525c 0.3570,-0.0000 0.6525,0.2955 0.6525 0.6525c 0.0000,0.3570 -0.2955,0.6525 -0.6525 0.6525c -0.3570,-0.0000 -0.6525,-0.2955 -0.6525 -0.6525ZM 511.5816,131.6058 ZM 514.2409,124.8713 c -0.3078,-0.0000 -1.2065,0.1724 -1.2065 0.9234c 0.0000,0.2216 -0.0862,0.6033 -0.4186 0.6033c -0.3201,-0.0000 -0.3447,-0.3570 -0.3447 -0.3940c 0.0000,-0.3817 0.5048,-1.5143 2.2161 -1.5143c 1.1942,-0.0000 1.5513,0.7510 1.5513 1.2435c 0.0000,0.3078 -0.0985,0.9234 -1.2065 1.6251c 0.6895,0.1108 1.6005,0.6156 1.6005 1.8960c 0.0000,1.6251 -1.2312,2.4993 -2.6224 2.4993c -0.7018,-0.0000 -1.6867,-0.3078 -1.6867 -0.7756c 0.0000,-0.1847 0.1847,-0.3940 0.4309 -0.3940c 0.2339,-0.0000 0.3447,0.1231 0.4555 0.2832c 0.1354,0.2093 0.3570,0.5048 0.9480 0.5048c 0.4063,-0.0000 1.5636,-0.4063 1.5636 -1.9575c 0.0000,-1.3173 -0.9234,-1.5266 -1.5882 -1.5266c -0.1108,-0.0000 -0.2462,0.0246 -0.3817 0.0492l -0.0492,-0.3693 c 0.9480,-0.1601 1.7359,-1.0834 1.7359 -1.6498c 0.0000,-0.7018 -0.4925,-1.0465 -0.9972 -1.0465Z"/></g><g stroke-linejoin="miter" stroke-opacity="0.6" fill-opacity="0.0" stroke="rgb(0,0,0)" stroke-width="1.2373190190091596" fill="rgb(0,0,0)" stroke-linecap="butt" stroke-miterlimit="10.0"><path d="M 492.8002,128.1216 h 7.4239 "/></g><g stroke-linejoin="miter" stroke-opacity="1.0" fill-opacity="0.6" stroke="rgb(0,0,0)" fill-rule="evenodd" stroke-width="0.0" fill="rgb(0,0,0)" stroke-linecap="butt" stroke-miterlimit="10.0"><path d="M 503.4928,156.3522 ZM 506.1891,149.6670 c -0.5294,-0.0000 -1.3050,0.5171 -1.3050 3.3857c 0.0000,1.0096 0.1847,3.0410 1.2681 3.0410c 0.2093,-0.0000 0.8003,-0.1354 1.0588 -1.0957c 0.1601,-0.5910 0.2462,-1.3297 0.2462 -2.4008c 0.0000,-1.5636 -0.3940,-2.4377 -0.7510 -2.7455c -0.1354,-0.1231 -0.3201,-0.1847 -0.5171 -0.1847ZM 506.1891,149.6670 ZM 506.1398,156.4999 c -1.3173,-0.0000 -2.2038,-1.6867 -2.2038 -3.5704c 0.0000,-2.3023 1.0957,-3.6935 2.2530 -3.6935c 0.5294,-0.0000 1.0588,0.3324 1.4158 0.8126c 0.5171,0.6895 0.7879,1.6128 0.7879 2.7701c 0.0000,2.7332 -1.3543,3.6812 -2.2530 3.6812ZM 508.8853,156.3522 ZM 509.5871,155.8474 c 0.0000,-0.3570 0.2955,-0.6525 0.6525 -0.6525c 0.3570,-0.0000 0.6525,0.2955 0.6525 0.6525c 0.0000,0.3570 -0.2955,0.6525 -0.6525 0.6525c -0.3570,-0.0000 -0.6525,-0.2955 -0.6525 -0.6525ZM 511.5816,156.3522 ZM 512.2956,150.8981 c 0.0000,-0.7018 0.6771,-1.6621 1.9699 -1.6621c 0.9480,-0.0000 2.0560,0.3570 2.0560 1.7729c 0.0000,0.9357 -0.4802,1.4035 -1.1450 2.0437l -1.1696,1.1327 c -0.0616,0.0616 -0.8864,0.8741 -0.8864 1.4528h 2.0930 c 0.4186,-0.0000 0.6402,-0.2093 0.8126 -0.8864l 0.3078,0.0492 l -0.2462,1.5513 h -3.8043 c 0.0000,-0.6895 0.1108,-1.2189 1.2558 -2.3885l 0.8618,-0.8495 c 0.6895,-0.7018 0.9726,-1.3050 0.9726 -2.0560c 0.0000,-1.1204 -0.7633,-1.4405 -1.1819 -1.4405c -0.8495,-0.0000 -1.0834,0.4432 -1.0834 0.7387c 0.0000,0.0985 0.0246,0.1970 0.0492 0.2832c 0.0246,0.0862 0.0492,0.1724 0.0492 0.2709c 0.0000,0.3201 -0.2462,0.4432 -0.4432 0.4432c -0.2709,-0.0000 -0.4678,-0.2093 -0.4678 -0.4555Z"/></g><g stroke-linejoin="miter" stroke-opacity="0.6" fill-opacity="0.0" stroke="rgb(0,0,0)" stroke-width="1.2373190190091596" fill="rgb(0,0,0)" stroke-linecap="butt" stroke-miterlimit="10.0"><path d="M 492.8002,152.8680 h 7.4239 "/></g><g stroke-linejoin="miter" stroke-opacity="1.0" fill-opacity="0.6" stroke="rgb(0,0,0)" fill-rule="evenodd" stroke-width="0.0" fill="rgb(0,0,0)" stroke-linecap="butt" stroke-miterlimit="10.0"><path d="M 503.4928,181.0986 ZM 506.1891,174.4134 c -0.5294,-0.0000 -1.3050,0.5171 -1.3050 3.3857c 0.0000,1.0096 0.1847,3.0410 1.2681 3.0410c 0.2093,-0.0000 0.8003,-0.1354 1.0588 -1.0957c 0.1601,-0.5910 0.2462,-1.3297 0.2462 -2.4008c 0.0000,-1.5636 -0.3940,-2.4377 -0.7510 -2.7455c -0.1354,-0.1231 -0.3201,-0.1847 -0.5171 -0.1847ZM 506.1891,174.4134 ZM 506.1398,181.2463 c -1.3173,-0.0000 -2.2038,-1.6867 -2.2038 -3.5704c 0.0000,-2.3023 1.0957,-3.6935 2.2530 -3.6935c 0.5294,-0.0000 1.0588,0.3324 1.4158 0.8126c 0.5171,0.6895 0.7879,1.6128 0.7879 2.7701c 0.0000,2.7332 -1.3543,3.6812 -2.2530 3.6812ZM 508.8853,181.0986 ZM 509.5871,180.5938 c 0.0000,-0.3570 0.2955,-0.6525 0.6525 -0.6525c 0.3570,-0.0000 0.6525,0.2955 0.6525 0.6525c 0.0000,0.3570 -0.2955,0.6525 -0.6525 0.6525c -0.3570,-0.0000 -0.6525,-0.2955 -0.6525 -0.6525ZM 511.5816,181.0986 ZM 513.8961,175.2259 c -0.2339,-0.0000 -0.7756,0.2216 -1.0465 0.3447l -0.1477,-0.3817 c 1.0834,-0.5048 1.5020,-0.7633 2.1176 -1.2065h 0.2339 v 6.1928 c 0.0000,0.4432 0.0616,0.5663 0.4678 0.5663h 0.6402 c 0.0369,-0.0000 0.0985,0.0246 0.0985 0.0985v 0.2709 l -1.6867,-0.0246 l -1.7113,0.0246 v -0.2709 c 0.0123,-0.0369 0.0246,-0.0985 0.0985 -0.0985h 0.7387 c 0.4678,-0.0000 0.4678,-0.2093 0.4678 -0.5663v -4.2352 c 0.0000,-0.4186 0.0000,-0.7141 -0.2709 -0.7141Z"/></g><g stroke-linejoin="miter" stroke-opacity="0.6" fill-opacity="0.0" stroke="rgb(0,0,0)" stroke-width="1.2373190190091596" fill="rgb(0,0,0)" stroke-linecap="butt" stroke-miterlimit="10.0"><path d="M 492.8002,177.6144 h 7.4239 "/></g><g stroke-linejoin="miter" stroke-opacity="1.0" fill-opacity="0.6" stroke="rgb(0,0,0)" fill-rule="evenodd" stroke-width="0.0" fill="rgb(0,0,0)" stroke-linecap="butt" stroke-miterlimit="10.0"><path d="M 503.4928,205.8449 ZM 506.1891,199.1597 c -0.5294,-0.0000 -1.3050,0.5171 -1.3050 3.3857c 0.0000,1.0096 0.1847,3.0410 1.2681 3.0410c 0.2093,-0.0000 0.8003,-0.1354 1.0588 -1.0957c 0.1601,-0.5910 0.2462,-1.3297 0.2462 -2.4008c 0.0000,-1.5636 -0.3940,-2.4377 -0.7510 -2.7455c -0.1354,-0.1231 -0.3201,-0.1847 -0.5171 -0.1847ZM 506.1891,199.1597 ZM 506.1398,205.9927 c -1.3173,-0.0000 -2.2038,-1.6867 -2.2038 -3.5704c 0.0000,-2.3023 1.0957,-3.6935 2.2530 -3.6935c 0.5294,-0.0000 1.0588,0.3324 1.4158 0.8126c 0.5171,0.6895 0.7879,1.6128 0.7879 2.7701c 0.0000,2.7332 -1.3543,3.6812 -2.2530 3.6812ZM 508.8853,205.8449 ZM 509.5871,205.3402 c 0.0000,-0.3570 0.2955,-0.6525 0.6525 -0.6525c 0.3570,-0.0000 0.6525,0.2955 0.6525 0.6525c 0.0000,0.3570 -0.2955,0.6525 -0.6525 0.6525c -0.3570,-0.0000 -0.6525,-0.2955 -0.6525 -0.6525ZM 511.5816,205.8449 ZM 514.2778,199.1597 c -0.5294,-0.0000 -1.3050,0.5171 -1.3050 3.3857c 0.0000,1.0096 0.1847,3.0410 1.2681 3.0410c 0.2093,-0.0000 0.8003,-0.1354 1.0588 -1.0957c 0.1601,-0.5910 0.2462,-1.3297 0.2462 -2.4008c 0.0000,-1.5636 -0.3940,-2.4377 -0.7510 -2.7455c -0.1354,-0.1231 -0.3201,-0.1847 -0.5171 -0.1847ZM 514.2778,199.1597 ZM 514.2286,205.9927 c -1.3173,-0.0000 -2.2038,-1.6867 -2.2038 -3.5704c 0.0000,-2.3023 1.0957,-3.6935 2.2530 -3.6935c 0.5294,-0.0000 1.0588,0.3324 1.4158 0.8126c 0.5171,0.6895 0.7879,1.6128 0.7879 2.7701c 0.0000,2.7332 -1.3543,3.6812 -2.2530 3.6812Z"/></g><g stroke-linejoin="miter" stroke-opacity="0.6" fill-opacity="0.0" stroke="rgb(0,0,0)" stroke-width="1.2373190190091596" fill="rgb(0,0,0)" stroke-linecap="butt" stroke-miterlimit="10.0"><path d="M 492.8002,202.3608 h 7.4239 "/></g><g stroke-linejoin="miter" stroke-opacity="1.0" fill-opacity="0.6" stroke="rgb(0,0,0)" fill-rule="evenodd" stroke-width="0.0" fill="rgb(0,0,0)" stroke-linecap="butt" stroke-miterlimit="10.0"><path d="M 503.5297,230.5913 ZM 506.9031,227.6858 h -2.7824 c -0.1108,-0.0000 -0.1847,-0.0985 -0.1847 -0.2093c 0.0000,-0.1970 0.1601,-0.4555 0.3078 -0.4555h 2.8194 c 0.1231,-0.0000 0.1724,0.1108 0.1724 0.2216c 0.0000,0.1354 -0.1724,0.4432 -0.3324 0.4432ZM 507.6295,230.5913 ZM 510.3258,223.9061 c -0.5294,-0.0000 -1.3050,0.5171 -1.3050 3.3857c 0.0000,1.0096 0.1847,3.0410 1.2681 3.0410c 0.2093,-0.0000 0.8003,-0.1354 1.0588 -1.0957c 0.1601,-0.5910 0.2462,-1.3297 0.2462 -2.4008c 0.0000,-1.5636 -0.3940,-2.4377 -0.7510 -2.7455c -0.1354,-0.1231 -0.3201,-0.1847 -0.5171 -0.1847ZM 510.3258,223.9061 ZM 510.2765,230.7391 c -1.3173,-0.0000 -2.2038,-1.6867 -2.2038 -3.5704c 0.0000,-2.3023 1.0957,-3.6935 2.2530 -3.6935c 0.5294,-0.0000 1.0588,0.3324 1.4158 0.8126c 0.5171,0.6895 0.7879,1.6128 0.7879 2.7701c 0.0000,2.7332 -1.3543,3.6812 -2.2530 3.6812ZM 513.0220,230.5913 ZM 513.7238,230.0866 c 0.0000,-0.3570 0.2955,-0.6525 0.6525 -0.6525c 0.3570,-0.0000 0.6525,0.2955 0.6525 0.6525c 0.0000,0.3570 -0.2955,0.6525 -0.6525 0.6525c -0.3570,-0.0000 -0.6525,-0.2955 -0.6525 -0.6525ZM 515.7183,230.5913 ZM 518.0328,224.7187 c -0.2339,-0.0000 -0.7756,0.2216 -1.0465 0.3447l -0.1477,-0.3817 c 1.0834,-0.5048 1.5020,-0.7633 2.1176 -1.2065h 0.2339 v 6.1928 c 0.0000,0.4432 0.0616,0.5663 0.4678 0.5663h 0.6402 c 0.0369,-0.0000 0.0985,0.0246 0.0985 0.0985v 0.2709 l -1.6867,-0.0246 l -1.7113,0.0246 v -0.2709 c 0.0123,-0.0369 0.0246,-0.0985 0.0985 -0.0985h 0.7387 c 0.4678,-0.0000 0.4678,-0.2093 0.4678 -0.5663v -4.2352 c 0.0000,-0.4186 0.0000,-0.7141 -0.2709 -0.7141Z"/></g><g stroke-linejoin="miter" stroke-opacity="0.6" fill-opacity="0.0" stroke="rgb(0,0,0)" stroke-width="1.2373190190091596" fill="rgb(0,0,0)" stroke-linecap="butt" stroke-miterlimit="10.0"><path d="M 492.8002,227.1071 h 7.4239 "/></g><g stroke-linejoin="miter" stroke-opacity="1.0" fill-opacity="0.6" stroke="rgb(0,0,0)" fill-rule="evenodd" stroke-width="0.0" fill="rgb(0,0,0)" stroke-linecap="butt" stroke-miterlimit="10.0"><path d="M 503.5297,255.3377 ZM 506.9031,252.4322 h -2.7824 c -0.1108,-0.0000 -0.1847,-0.0985 -0.1847 -0.2093c 0.0000,-0.1970 0.1601,-0.4555 0.3078 -0.4555h 2.8194 c 0.1231,-0.0000 0.1724,0.1108 0.1724 0.2216c 0.0000,0.1354 -0.1724,0.4432 -0.3324 0.4432ZM 507.6295,255.3377 ZM 510.3258,248.6525 c -0.5294,-0.0000 -1.3050,0.5171 -1.3050 3.3857c 0.0000,1.0096 0.1847,3.0410 1.2681 3.0410c 0.2093,-0.0000 0.8003,-0.1354 1.0588 -1.0957c 0.1601,-0.5910 0.2462,-1.3297 0.2462 -2.4008c 0.0000,-1.5636 -0.3940,-2.4377 -0.7510 -2.7455c -0.1354,-0.1231 -0.3201,-0.1847 -0.5171 -0.1847ZM 510.3258,248.6525 ZM 510.2765,255.4854 c -1.3173,-0.0000 -2.2038,-1.6867 -2.2038 -3.5704c 0.0000,-2.3023 1.0957,-3.6935 2.2530 -3.6935c 0.5294,-0.0000 1.0588,0.3324 1.4158 0.8126c 0.5171,0.6895 0.7879,1.6128 0.7879 2.7701c 0.0000,2.7332 -1.3543,3.6812 -2.2530 3.6812ZM 513.0220,255.3377 ZM 513.7238,254.8329 c 0.0000,-0.3570 0.2955,-0.6525 0.6525 -0.6525c 0.3570,-0.0000 0.6525,0.2955 0.6525 0.6525c 0.0000,0.3570 -0.2955,0.6525 -0.6525 0.6525c -0.3570,-0.0000 -0.6525,-0.2955 -0.6525 -0.6525ZM 515.7183,255.3377 ZM 516.4323,249.8837 c 0.0000,-0.7018 0.6771,-1.6621 1.9699 -1.6621c 0.9480,-0.0000 2.0560,0.3570 2.0560 1.7729c 0.0000,0.9357 -0.4802,1.4035 -1.1450 2.0437l -1.1696,1.1327 c -0.0616,0.0616 -0.8864,0.8741 -0.8864 1.4528h 2.0930 c 0.4186,-0.0000 0.6402,-0.2093 0.8126 -0.8864l 0.3078,0.0492 l -0.2462,1.5513 h -3.8043 c 0.0000,-0.6895 0.1108,-1.2189 1.2558 -2.3885l 0.8618,-0.8495 c 0.6895,-0.7018 0.9726,-1.3050 0.9726 -2.0560c 0.0000,-1.1204 -0.7633,-1.4405 -1.1819 -1.4405c -0.8495,-0.0000 -1.0834,0.4432 -1.0834 0.7387c 0.0000,0.0985 0.0246,0.1970 0.0492 0.2832c 0.0246,0.0862 0.0492,0.1724 0.0492 0.2709c 0.0000,0.3201 -0.2462,0.4432 -0.4432 0.4432c -0.2709,-0.0000 -0.4678,-0.2093 -0.4678 -0.4555Z"/></g><g stroke-linejoin="miter" stroke-opacity="0.6" fill-opacity="0.0" stroke="rgb(0,0,0)" stroke-width="1.2373190190091596" fill="rgb(0,0,0)" stroke-linecap="butt" stroke-miterlimit="10.0"><path d="M 492.8002,251.8535 h 7.4239 "/></g><g stroke-linejoin="miter" stroke-opacity="1.0" fill-opacity="0.6" stroke="rgb(0,0,0)" fill-rule="evenodd" stroke-width="0.0" fill="rgb(0,0,0)" stroke-linecap="butt" stroke-miterlimit="10.0"><path d="M 503.5297,280.0841 ZM 506.9031,277.1785 h -2.7824 c -0.1108,-0.0000 -0.1847,-0.0985 -0.1847 -0.2093c 0.0000,-0.1970 0.1601,-0.4555 0.3078 -0.4555h 2.8194 c 0.1231,-0.0000 0.1724,0.1108 0.1724 0.2216c 0.0000,0.1354 -0.1724,0.4432 -0.3324 0.4432ZM 507.6295,280.0841 ZM 510.3258,273.3989 c -0.5294,-0.0000 -1.3050,0.5171 -1.3050 3.3857c 0.0000,1.0096 0.1847,3.0410 1.2681 3.0410c 0.2093,-0.0000 0.8003,-0.1354 1.0588 -1.0957c 0.1601,-0.5910 0.2462,-1.3297 0.2462 -2.4008c 0.0000,-1.5636 -0.3940,-2.4377 -0.7510 -2.7455c -0.1354,-0.1231 -0.3201,-0.1847 -0.5171 -0.1847ZM 510.3258,273.3989 ZM 510.2765,280.2318 c -1.3173,-0.0000 -2.2038,-1.6867 -2.2038 -3.5704c 0.0000,-2.3023 1.0957,-3.6935 2.2530 -3.6935c 0.5294,-0.0000 1.0588,0.3324 1.4158 0.8126c 0.5171,0.6895 0.7879,1.6128 0.7879 2.7701c 0.0000,2.7332 -1.3543,3.6812 -2.2530 3.6812ZM 513.0220,280.0841 ZM 513.7238,279.5793 c 0.0000,-0.3570 0.2955,-0.6525 0.6525 -0.6525c 0.3570,-0.0000 0.6525,0.2955 0.6525 0.6525c 0.0000,0.3570 -0.2955,0.6525 -0.6525 0.6525c -0.3570,-0.0000 -0.6525,-0.2955 -0.6525 -0.6525ZM 515.7183,280.0841 ZM 518.3776,273.3496 c -0.3078,-0.0000 -1.2065,0.1724 -1.2065 0.9234c 0.0000,0.2216 -0.0862,0.6033 -0.4186 0.6033c -0.3201,-0.0000 -0.3447,-0.3570 -0.3447 -0.3940c 0.0000,-0.3817 0.5048,-1.5143 2.2161 -1.5143c 1.1942,-0.0000 1.5513,0.7510 1.5513 1.2435c 0.0000,0.3078 -0.0985,0.9234 -1.2065 1.6251c 0.6895,0.1108 1.6005,0.6156 1.6005 1.8960c 0.0000,1.6251 -1.2312,2.4993 -2.6224 2.4993c -0.7018,-0.0000 -1.6867,-0.3078 -1.6867 -0.7756c 0.0000,-0.1847 0.1847,-0.3940 0.4309 -0.3940c 0.2339,-0.0000 0.3447,0.1231 0.4555 0.2832c 0.1354,0.2093 0.3570,0.5048 0.9480 0.5048c 0.4063,-0.0000 1.5636,-0.4063 1.5636 -1.9575c 0.0000,-1.3173 -0.9234,-1.5266 -1.5882 -1.5266c -0.1108,-0.0000 -0.2462,0.0246 -0.3817 0.0492l -0.0492,-0.3693 c 0.9480,-0.1601 1.7359,-1.0834 1.7359 -1.6498c 0.0000,-0.7018 -0.4925,-1.0465 -0.9972 -1.0465Z"/></g><g stroke-linejoin="miter" stroke-opacity="0.6" fill-opacity="0.0" stroke="rgb(0,0,0)" stroke-width="1.2373190190091596" fill="rgb(0,0,0)" stroke-linecap="butt" stroke-miterlimit="10.0"><path d="M 492.8002,276.5999 h 7.4239 "/></g><g stroke-linejoin="miter" stroke-opacity="1.0" fill-opacity="0.6" stroke="rgb(0,0,0)" fill-rule="evenodd" stroke-width="0.0" fill="rgb(0,0,0)" stroke-linecap="butt" stroke-miterlimit="10.0"><path d="M 503.5297,304.8305 ZM 506.9031,301.9249 h -2.7824 c -0.1108,-0.0000 -0.1847,-0.0985 -0.1847 -0.2093c 0.0000,-0.1970 0.1601,-0.4555 0.3078 -0.4555h 2.8194 c 0.1231,-0.0000 0.1724,0.1108 0.1724 0.2216c 0.0000,0.1354 -0.1724,0.4432 -0.3324 0.4432ZM 507.6295,304.8305 ZM 510.3258,298.1453 c -0.5294,-0.0000 -1.3050,0.5171 -1.3050 3.3857c 0.0000,1.0096 0.1847,3.0410 1.2681 3.0410c 0.2093,-0.0000 0.8003,-0.1354 1.0588 -1.0957c 0.1601,-0.5910 0.2462,-1.3297 0.2462 -2.4008c 0.0000,-1.5636 -0.3940,-2.4377 -0.7510 -2.7455c -0.1354,-0.1231 -0.3201,-0.1847 -0.5171 -0.1847ZM 510.3258,298.1453 ZM 510.2765,304.9782 c -1.3173,-0.0000 -2.2038,-1.6867 -2.2038 -3.5704c 0.0000,-2.3023 1.0957,-3.6935 2.2530 -3.6935c 0.5294,-0.0000 1.0588,0.3324 1.4158 0.8126c 0.5171,0.6895 0.7879,1.6128 0.7879 2.7701c 0.0000,2.7332 -1.3543,3.6812 -2.2530 3.6812ZM 513.0220,304.8305 ZM 513.7238,304.3257 c 0.0000,-0.3570 0.2955,-0.6525 0.6525 -0.6525c 0.3570,-0.0000 0.6525,0.2955 0.6525 0.6525c 0.0000,0.3570 -0.2955,0.6525 -0.6525 0.6525c -0.3570,-0.0000 -0.6525,-0.2955 -0.6525 -0.6525ZM 515.7183,304.8305 ZM 518.8947,300.4598 c 0.0000,-0.0862 0.0123,-0.1847 0.1231 -0.2462c 0.1354,-0.0985 0.3570,-0.2093 0.5417 -0.2093c 0.1601,-0.0000 0.1724,0.1354 0.1724 0.3817v 1.9822 h 0.9972 l -0.0739,0.5786 h -0.9234 v 1.0219 c 0.0000,0.3447 0.0492,0.5171 0.4063 0.5171h 0.3324 c 0.0739,-0.0000 0.0862,0.0616 0.0862 0.0862v 0.2709 c 0.0000,-0.0000 -0.7879,-0.0246 -1.3050 -0.0246c -0.4678,-0.0000 -1.1942,0.0246 -1.1942 0.0246v -0.2709 c 0.0000,-0.0246 0.0123,-0.0862 0.0862 -0.0862h 0.3324 c 0.3817,-0.0000 0.4186,-0.1601 0.4186 -0.5171v -1.0219 h -2.4131 c -0.0492,-0.0000 -0.0739,-0.0246 -0.1108 -0.0739l -0.0985,-0.1354 l -0.1477,-0.2585 c -0.0123,-0.0000 -0.0123,-0.0123 -0.0123 -0.0246c 0.0000,-0.0123 0.0123,-0.0246 0.0246 -0.0369c 0.8003,-0.8864 2.2161,-3.6319 2.6593 -4.6415c 0.0123,-0.0492 0.0369,-0.0616 0.0862 -0.0616c 0.0123,-0.0000 0.2832,0.1108 0.4309 0.1354c -0.5540,1.4897 -1.4651,3.0902 -2.3638 4.5184h 1.9452 v -1.9083 Z"/></g><g stroke-linejoin="miter" stroke-opacity="0.6" fill-opacity="0.0" stroke="rgb(0,0,0)" stroke-width="1.2373190190091596" fill="rgb(0,0,0)" stroke-linecap="butt" stroke-miterlimit="10.0"><path d="M 492.8002,301.3463 h 7.4239 "/></g><g stroke-linejoin="miter" stroke-opacity="1.0" fill-opacity="0.6" stroke="rgb(0,0,0)" fill-rule="evenodd" stroke-width="0.0" fill="rgb(0,0,0)" stroke-linecap="butt" stroke-miterlimit="10.0"><path d="M 503.5297,329.5768 ZM 506.9031,326.6713 h -2.7824 c -0.1108,-0.0000 -0.1847,-0.0985 -0.1847 -0.2093c 0.0000,-0.1970 0.1601,-0.4555 0.3078 -0.4555h 2.8194 c 0.1231,-0.0000 0.1724,0.1108 0.1724 0.2216c 0.0000,0.1354 -0.1724,0.4432 -0.3324 0.4432ZM 507.6295,329.5768 ZM 510.3258,322.8916 c -0.5294,-0.0000 -1.3050,0.5171 -1.3050 3.3857c 0.0000,1.0096 0.1847,3.0410 1.2681 3.0410c 0.2093,-0.0000 0.8003,-0.1354 1.0588 -1.0957c 0.1601,-0.5910 0.2462,-1.3297 0.2462 -2.4008c 0.0000,-1.5636 -0.3940,-2.4377 -0.7510 -2.7455c -0.1354,-0.1231 -0.3201,-0.1847 -0.5171 -0.1847ZM 510.3258,322.8916 ZM 510.2765,329.7246 c -1.3173,-0.0000 -2.2038,-1.6867 -2.2038 -3.5704c 0.0000,-2.3023 1.0957,-3.6935 2.2530 -3.6935c 0.5294,-0.0000 1.0588,0.3324 1.4158 0.8126c 0.5171,0.6895 0.7879,1.6128 0.7879 2.7701c 0.0000,2.7332 -1.3543,3.6812 -2.2530 3.6812ZM 513.0220,329.5768 ZM 513.7238,329.0721 c 0.0000,-0.3570 0.2955,-0.6525 0.6525 -0.6525c 0.3570,-0.0000 0.6525,0.2955 0.6525 0.6525c 0.0000,0.3570 -0.2955,0.6525 -0.6525 0.6525c -0.3570,-0.0000 -0.6525,-0.2955 -0.6525 -0.6525ZM 515.7183,329.5768 ZM 519.5226,327.4962 c 0.0000,-1.2681 -0.6895,-1.8960 -1.4528 -1.8960c -0.5663,-0.0000 -0.9972,0.0862 -1.4774 0.2832l 0.3940,-3.3611 c 0.4063,0.0369 0.8249,0.0492 1.2558 0.0492c 0.6156,-0.0000 1.2558,-0.0369 1.9206 -0.1108l 0.0739,0.0369 l -0.1847,0.8003 c -0.4802,0.0492 -0.8741,0.0616 -1.2189 0.0616c -0.5540,-0.0000 -0.9726,-0.0492 -1.4035 -0.0985l -0.2339,1.9452 c 0.2585,-0.0985 0.7018,-0.1847 1.1819 -0.1847c 1.3050,-0.0000 2.0314,1.1327 2.0314 2.2653c 0.0000,1.3789 -0.9603,2.4377 -2.3515 2.4377c -0.7018,-0.0000 -1.7236,-0.3940 -1.7236 -0.8741c 0.0000,-0.2339 0.1970,-0.3940 0.4186 -0.3940c 0.2462,-0.0000 0.4063,0.1847 0.5540 0.3817c 0.1847,0.2216 0.3817,0.4678 0.7756 0.4678c 0.7879,-0.0000 1.4405,-0.7387 1.4405 -1.8098Z"/></g><g stroke-linejoin="miter" stroke-opacity="0.6" fill-opacity="0.0" stroke="rgb(0,0,0)" stroke-width="1.2373190190091596" fill="rgb(0,0,0)" stroke-linecap="butt" stroke-miterlimit="10.0"><path d="M 492.8002,326.0927 h 7.4239 "/></g><g stroke-linejoin="miter" stroke-opacity="0.0" fill-opacity="0.1" stroke="rgb(0,0,0)" stroke-width="0.0" fill="rgb(0,0,0)" stroke-linecap="butt" stroke-miterlimit="10.0"><path d="M 486.6320,74.9969 l -0.0000,-4.9493 h -371.1957 l -0.0000,4.9493 Z"/></g><g stroke-linejoin="miter" stroke-opacity="1.0" fill-opacity="0.6" stroke="rgb(0,0,0)" fill-rule="evenodd" stroke-width="0.0" fill="rgb(0,0,0)" stroke-linecap="butt" stroke-miterlimit="10.0"><path d="M 480.0207,63.7133 ZM 482.7169,57.0281 c -0.5294,-0.0000 -1.3050,0.5171 -1.3050 3.3857c 0.0000,1.0096 0.1847,3.0410 1.2681 3.0410c 0.2093,-0.0000 0.8003,-0.1354 1.0588 -1.0957c 0.1601,-0.5910 0.2462,-1.3297 0.2462 -2.4008c 0.0000,-1.5636 -0.3940,-2.4377 -0.7510 -2.7455c -0.1354,-0.1231 -0.3201,-0.1847 -0.5171 -0.1847ZM 482.7169,57.0281 ZM 482.6677,63.8611 c -1.3173,-0.0000 -2.2038,-1.6867 -2.2038 -3.5704c 0.0000,-2.3023 1.0957,-3.6935 2.2530 -3.6935c 0.5294,-0.0000 1.0588,0.3324 1.4158 0.8126c 0.5171,0.6895 0.7879,1.6128 0.7879 2.7701c 0.0000,2.7332 -1.3543,3.6812 -2.2530 3.6812ZM 485.4132,63.7133 ZM 486.1149,63.2085 c 0.0000,-0.3570 0.2955,-0.6525 0.6525 -0.6525c 0.3570,-0.0000 0.6525,0.2955 0.6525 0.6525c 0.0000,0.3570 -0.2955,0.6525 -0.6525 0.6525c -0.3570,-0.0000 -0.6525,-0.2955 -0.6525 -0.6525ZM 488.1094,63.7133 ZM 491.9137,61.6326 c 0.0000,-1.2681 -0.6895,-1.8960 -1.4528 -1.8960c -0.5663,-0.0000 -0.9972,0.0862 -1.4774 0.2832l 0.3940,-3.3611 c 0.4063,0.0369 0.8249,0.0492 1.2558 0.0492c 0.6156,-0.0000 1.2558,-0.0369 1.9206 -0.1108l 0.0739,0.0369 l -0.1847,0.8003 c -0.4802,0.0492 -0.8741,0.0616 -1.2189 0.0616c -0.5540,-0.0000 -0.9726,-0.0492 -1.4035 -0.0985l -0.2339,1.9452 c 0.2585,-0.0985 0.7018,-0.1847 1.1819 -0.1847c 1.3050,-0.0000 2.0314,1.1327 2.0314 2.2653c 0.0000,1.3789 -0.9603,2.4377 -2.3515 2.4377c -0.7018,-0.0000 -1.7236,-0.3940 -1.7236 -0.8741c 0.0000,-0.2339 0.1970,-0.3940 0.4186 -0.3940c 0.2462,-0.0000 0.4063,0.1847 0.5540 0.3817c 0.1847,0.2216 0.3817,0.4678 0.7756 0.4678c 0.7879,-0.0000 1.4405,-0.7387 1.4405 -1.8098Z"/></g><g stroke-linejoin="miter" stroke-opacity="0.6" fill-opacity="0.0" stroke="rgb(0,0,0)" stroke-width="1.2373190190091596" fill="rgb(0,0,0)" stroke-linecap="butt" stroke-miterlimit="10.0"><path d="M 486.6320,67.5730 v 7.4239 "/></g><g stroke-linejoin="miter" stroke-opacity="1.0" fill-opacity="0.6" stroke="rgb(0,0,0)" fill-rule="evenodd" stroke-width="0.0" fill="rgb(0,0,0)" stroke-linecap="butt" stroke-miterlimit="10.0"><path d="M 442.7411,63.7133 ZM 445.4373,57.0281 c -0.5294,-0.0000 -1.3050,0.5171 -1.3050 3.3857c 0.0000,1.0096 0.1847,3.0410 1.2681 3.0410c 0.2093,-0.0000 0.8003,-0.1354 1.0588 -1.0957c 0.1601,-0.5910 0.2462,-1.3297 0.2462 -2.4008c 0.0000,-1.5636 -0.3940,-2.4377 -0.7510 -2.7455c -0.1354,-0.1231 -0.3201,-0.1847 -0.5171 -0.1847ZM 445.4373,57.0281 ZM 445.3881,63.8611 c -1.3173,-0.0000 -2.2038,-1.6867 -2.2038 -3.5704c 0.0000,-2.3023 1.0957,-3.6935 2.2530 -3.6935c 0.5294,-0.0000 1.0588,0.3324 1.4158 0.8126c 0.5171,0.6895 0.7879,1.6128 0.7879 2.7701c 0.0000,2.7332 -1.3543,3.6812 -2.2530 3.6812ZM 448.1336,63.7133 ZM 448.8353,63.2085 c 0.0000,-0.3570 0.2955,-0.6525 0.6525 -0.6525c 0.3570,-0.0000 0.6525,0.2955 0.6525 0.6525c 0.0000,0.3570 -0.2955,0.6525 -0.6525 0.6525c -0.3570,-0.0000 -0.6525,-0.2955 -0.6525 -0.6525ZM 450.8298,63.7133 ZM 454.0062,59.3427 c 0.0000,-0.0862 0.0123,-0.1847 0.1231 -0.2462c 0.1354,-0.0985 0.3570,-0.2093 0.5417 -0.2093c 0.1601,-0.0000 0.1724,0.1354 0.1724 0.3817v 1.9822 h 0.9972 l -0.0739,0.5786 h -0.9234 v 1.0219 c 0.0000,0.3447 0.0492,0.5171 0.4063 0.5171h 0.3324 c 0.0739,-0.0000 0.0862,0.0616 0.0862 0.0862v 0.2709 c 0.0000,-0.0000 -0.7879,-0.0246 -1.3050 -0.0246c -0.4678,-0.0000 -1.1942,0.0246 -1.1942 0.0246v -0.2709 c 0.0000,-0.0246 0.0123,-0.0862 0.0862 -0.0862h 0.3324 c 0.3817,-0.0000 0.4186,-0.1601 0.4186 -0.5171v -1.0219 h -2.4131 c -0.0492,-0.0000 -0.0739,-0.0246 -0.1108 -0.0739l -0.0985,-0.1354 l -0.1477,-0.2585 c -0.0123,-0.0000 -0.0123,-0.0123 -0.0123 -0.0246c 0.0000,-0.0123 0.0123,-0.0246 0.0246 -0.0369c 0.8003,-0.8864 2.2161,-3.6319 2.6593 -4.6415c 0.0123,-0.0492 0.0369,-0.0616 0.0862 -0.0616c 0.0123,-0.0000 0.2832,0.1108 0.4309 0.1354c -0.5540,1.4897 -1.4651,3.0902 -2.3638 4.5184h 1.9452 v -1.9083 Z"/></g><g stroke-linejoin="miter" stroke-opacity="0.6" fill-opacity="0.0" stroke="rgb(0,0,0)" stroke-width="1.2373190190091596" fill="rgb(0,0,0)" stroke-linecap="butt" stroke-miterlimit="10.0"><path d="M 449.5125,67.5730 v 7.4239 "/></g><g stroke-linejoin="miter" stroke-opacity="1.0" fill-opacity="0.6" stroke="rgb(0,0,0)" fill-rule="evenodd" stroke-width="0.0" fill="rgb(0,0,0)" stroke-linecap="butt" stroke-miterlimit="10.0"><path d="M 405.7015,63.7133 ZM 408.3978,57.0281 c -0.5294,-0.0000 -1.3050,0.5171 -1.3050 3.3857c 0.0000,1.0096 0.1847,3.0410 1.2681 3.0410c 0.2093,-0.0000 0.8003,-0.1354 1.0588 -1.0957c 0.1601,-0.5910 0.2462,-1.3297 0.2462 -2.4008c 0.0000,-1.5636 -0.3940,-2.4377 -0.7510 -2.7455c -0.1354,-0.1231 -0.3201,-0.1847 -0.5171 -0.1847ZM 408.3978,57.0281 ZM 408.3485,63.8611 c -1.3173,-0.0000 -2.2038,-1.6867 -2.2038 -3.5704c 0.0000,-2.3023 1.0957,-3.6935 2.2530 -3.6935c 0.5294,-0.0000 1.0588,0.3324 1.4158 0.8126c 0.5171,0.6895 0.7879,1.6128 0.7879 2.7701c 0.0000,2.7332 -1.3543,3.6812 -2.2530 3.6812ZM 411.0940,63.7133 ZM 411.7958,63.2085 c 0.0000,-0.3570 0.2955,-0.6525 0.6525 -0.6525c 0.3570,-0.0000 0.6525,0.2955 0.6525 0.6525c 0.0000,0.3570 -0.2955,0.6525 -0.6525 0.6525c -0.3570,-0.0000 -0.6525,-0.2955 -0.6525 -0.6525ZM 413.7903,63.7133 ZM 416.4496,56.9788 c -0.3078,-0.0000 -1.2065,0.1724 -1.2065 0.9234c 0.0000,0.2216 -0.0862,0.6033 -0.4186 0.6033c -0.3201,-0.0000 -0.3447,-0.3570 -0.3447 -0.3940c 0.0000,-0.3817 0.5048,-1.5143 2.2161 -1.5143c 1.1942,-0.0000 1.5513,0.7510 1.5513 1.2435c 0.0000,0.3078 -0.0985,0.9234 -1.2065 1.6251c 0.6895,0.1108 1.6005,0.6156 1.6005 1.8960c 0.0000,1.6251 -1.2312,2.4993 -2.6224 2.4993c -0.7018,-0.0000 -1.6867,-0.3078 -1.6867 -0.7756c 0.0000,-0.1847 0.1847,-0.3940 0.4309 -0.3940c 0.2339,-0.0000 0.3447,0.1231 0.4555 0.2832c 0.1354,0.2093 0.3570,0.5048 0.9480 0.5048c 0.4063,-0.0000 1.5636,-0.4063 1.5636 -1.9575c 0.0000,-1.3173 -0.9234,-1.5266 -1.5882 -1.5266c -0.1108,-0.0000 -0.2462,0.0246 -0.3817 0.0492l -0.0492,-0.3693 c 0.9480,-0.1601 1.7359,-1.0834 1.7359 -1.6498c 0.0000,-0.7018 -0.4925,-1.0465 -0.9972 -1.0465Z"/></g><g stroke-linejoin="miter" stroke-opacity="0.6" fill-opacity="0.0" stroke="rgb(0,0,0)" stroke-width="1.2373190190091596" fill="rgb(0,0,0)" stroke-linecap="butt" stroke-miterlimit="10.0"><path d="M 412.3929,67.5730 v 7.4239 "/></g><g stroke-linejoin="miter" stroke-opacity="1.0" fill-opacity="0.6" stroke="rgb(0,0,0)" fill-rule="evenodd" stroke-width="0.0" fill="rgb(0,0,0)" stroke-linecap="butt" stroke-miterlimit="10.0"><path d="M 368.6312,63.7133 ZM 371.3274,57.0281 c -0.5294,-0.0000 -1.3050,0.5171 -1.3050 3.3857c 0.0000,1.0096 0.1847,3.0410 1.2681 3.0410c 0.2093,-0.0000 0.8003,-0.1354 1.0588 -1.0957c 0.1601,-0.5910 0.2462,-1.3297 0.2462 -2.4008c 0.0000,-1.5636 -0.3940,-2.4377 -0.7510 -2.7455c -0.1354,-0.1231 -0.3201,-0.1847 -0.5171 -0.1847ZM 371.3274,57.0281 ZM 371.2782,63.8611 c -1.3173,-0.0000 -2.2038,-1.6867 -2.2038 -3.5704c 0.0000,-2.3023 1.0957,-3.6935 2.2530 -3.6935c 0.5294,-0.0000 1.0588,0.3324 1.4158 0.8126c 0.5171,0.6895 0.7879,1.6128 0.7879 2.7701c 0.0000,2.7332 -1.3543,3.6812 -2.2530 3.6812ZM 374.0237,63.7133 ZM 374.7255,63.2085 c 0.0000,-0.3570 0.2955,-0.6525 0.6525 -0.6525c 0.3570,-0.0000 0.6525,0.2955 0.6525 0.6525c 0.0000,0.3570 -0.2955,0.6525 -0.6525 0.6525c -0.3570,-0.0000 -0.6525,-0.2955 -0.6525 -0.6525ZM 376.7199,63.7133 ZM 377.4340,58.2593 c 0.0000,-0.7018 0.6771,-1.6621 1.9699 -1.6621c 0.9480,-0.0000 2.0560,0.3570 2.0560 1.7729c 0.0000,0.9357 -0.4802,1.4035 -1.1450 2.0437l -1.1696,1.1327 c -0.0616,0.0616 -0.8864,0.8741 -0.8864 1.4528h 2.0930 c 0.4186,-0.0000 0.6402,-0.2093 0.8126 -0.8864l 0.3078,0.0492 l -0.2462,1.5513 h -3.8043 c 0.0000,-0.6895 0.1108,-1.2189 1.2558 -2.3885l 0.8618,-0.8495 c 0.6895,-0.7018 0.9726,-1.3050 0.9726 -2.0560c 0.0000,-1.1204 -0.7633,-1.4405 -1.1819 -1.4405c -0.8495,-0.0000 -1.0834,0.4432 -1.0834 0.7387c 0.0000,0.0985 0.0246,0.1970 0.0492 0.2832c 0.0246,0.0862 0.0492,0.1724 0.0492 0.2709c 0.0000,0.3201 -0.2462,0.4432 -0.4432 0.4432c -0.2709,-0.0000 -0.4678,-0.2093 -0.4678 -0.4555Z"/></g><g stroke-linejoin="miter" stroke-opacity="0.6" fill-opacity="0.0" stroke="rgb(0,0,0)" stroke-width="1.2373190190091596" fill="rgb(0,0,0)" stroke-linecap="butt" stroke-miterlimit="10.0"><path d="M 375.2733,67.5730 v 7.4239 "/></g><g stroke-linejoin="miter" stroke-opacity="1.0" fill-opacity="0.6" stroke="rgb(0,0,0)" fill-rule="evenodd" stroke-width="0.0" fill="rgb(0,0,0)" stroke-linecap="butt" stroke-miterlimit="10.0"><path d="M 331.5486,63.7133 ZM 334.2448,57.0281 c -0.5294,-0.0000 -1.3050,0.5171 -1.3050 3.3857c 0.0000,1.0096 0.1847,3.0410 1.2681 3.0410c 0.2093,-0.0000 0.8003,-0.1354 1.0588 -1.0957c 0.1601,-0.5910 0.2462,-1.3297 0.2462 -2.4008c 0.0000,-1.5636 -0.3940,-2.4377 -0.7510 -2.7455c -0.1354,-0.1231 -0.3201,-0.1847 -0.5171 -0.1847ZM 334.2448,57.0281 ZM 334.1956,63.8611 c -1.3173,-0.0000 -2.2038,-1.6867 -2.2038 -3.5704c 0.0000,-2.3023 1.0957,-3.6935 2.2530 -3.6935c 0.5294,-0.0000 1.0588,0.3324 1.4158 0.8126c 0.5171,0.6895 0.7879,1.6128 0.7879 2.7701c 0.0000,2.7332 -1.3543,3.6812 -2.2530 3.6812ZM 336.9411,63.7133 ZM 337.6428,63.2085 c 0.0000,-0.3570 0.2955,-0.6525 0.6525 -0.6525c 0.3570,-0.0000 0.6525,0.2955 0.6525 0.6525c 0.0000,0.3570 -0.2955,0.6525 -0.6525 0.6525c -0.3570,-0.0000 -0.6525,-0.2955 -0.6525 -0.6525ZM 339.6373,63.7133 ZM 341.9519,57.8407 c -0.2339,-0.0000 -0.7756,0.2216 -1.0465 0.3447l -0.1477,-0.3817 c 1.0834,-0.5048 1.5020,-0.7633 2.1176 -1.2065h 0.2339 v 6.1928 c 0.0000,0.4432 0.0616,0.5663 0.4678 0.5663h 0.6402 c 0.0369,-0.0000 0.0985,0.0246 0.0985 0.0985v 0.2709 l -1.6867,-0.0246 l -1.7113,0.0246 v -0.2709 c 0.0123,-0.0369 0.0246,-0.0985 0.0985 -0.0985h 0.7387 c 0.4678,-0.0000 0.4678,-0.2093 0.4678 -0.5663v -4.2352 c 0.0000,-0.4186 0.0000,-0.7141 -0.2709 -0.7141Z"/></g><g stroke-linejoin="miter" stroke-opacity="0.6" fill-opacity="0.0" stroke="rgb(0,0,0)" stroke-width="1.2373190190091596" fill="rgb(0,0,0)" stroke-linecap="butt" stroke-miterlimit="10.0"><path d="M 338.1537,67.5730 v 7.4239 "/></g><g stroke-linejoin="miter" stroke-opacity="1.0" fill-opacity="0.6" stroke="rgb(0,0,0)" fill-rule="evenodd" stroke-width="0.0" fill="rgb(0,0,0)" stroke-linecap="butt" stroke-miterlimit="10.0"><path d="M 294.3182,63.7133 ZM 297.0144,57.0281 c -0.5294,-0.0000 -1.3050,0.5171 -1.3050 3.3857c 0.0000,1.0096 0.1847,3.0410 1.2681 3.0410c 0.2093,-0.0000 0.8003,-0.1354 1.0588 -1.0957c 0.1601,-0.5910 0.2462,-1.3297 0.2462 -2.4008c 0.0000,-1.5636 -0.3940,-2.4377 -0.7510 -2.7455c -0.1354,-0.1231 -0.3201,-0.1847 -0.5171 -0.1847ZM 297.0144,57.0281 ZM 296.9652,63.8611 c -1.3173,-0.0000 -2.2038,-1.6867 -2.2038 -3.5704c 0.0000,-2.3023 1.0957,-3.6935 2.2530 -3.6935c 0.5294,-0.0000 1.0588,0.3324 1.4158 0.8126c 0.5171,0.6895 0.7879,1.6128 0.7879 2.7701c 0.0000,2.7332 -1.3543,3.6812 -2.2530 3.6812ZM 299.7107,63.7133 ZM 300.4124,63.2085 c 0.0000,-0.3570 0.2955,-0.6525 0.6525 -0.6525c 0.3570,-0.0000 0.6525,0.2955 0.6525 0.6525c 0.0000,0.3570 -0.2955,0.6525 -0.6525 0.6525c -0.3570,-0.0000 -0.6525,-0.2955 -0.6525 -0.6525ZM 302.4069,63.7133 ZM 305.1032,57.0281 c -0.5294,-0.0000 -1.3050,0.5171 -1.3050 3.3857c 0.0000,1.0096 0.1847,3.0410 1.2681 3.0410c 0.2093,-0.0000 0.8003,-0.1354 1.0588 -1.0957c 0.1601,-0.5910 0.2462,-1.3297 0.2462 -2.4008c 0.0000,-1.5636 -0.3940,-2.4377 -0.7510 -2.7455c -0.1354,-0.1231 -0.3201,-0.1847 -0.5171 -0.1847ZM 305.1032,57.0281 ZM 305.0539,63.8611 c -1.3173,-0.0000 -2.2038,-1.6867 -2.2038 -3.5704c 0.0000,-2.3023 1.0957,-3.6935 2.2530 -3.6935c 0.5294,-0.0000 1.0588,0.3324 1.4158 0.8126c 0.5171,0.6895 0.7879,1.6128 0.7879 2.7701c 0.0000,2.7332 -1.3543,3.6812 -2.2530 3.6812Z"/></g><g stroke-linejoin="miter" stroke-opacity="0.6" fill-opacity="0.0" stroke="rgb(0,0,0)" stroke-width="1.2373190190091596" fill="rgb(0,0,0)" stroke-linecap="butt" stroke-miterlimit="10.0"><path d="M 301.0342,67.5730 v 7.4239 "/></g><g stroke-linejoin="miter" stroke-opacity="1.0" fill-opacity="0.6" stroke="rgb(0,0,0)" fill-rule="evenodd" stroke-width="0.0" fill="rgb(0,0,0)" stroke-linecap="butt" stroke-miterlimit="10.0"><path d="M 255.2780,63.7133 ZM 258.6514,60.8078 h -2.7824 c -0.1108,-0.0000 -0.1847,-0.0985 -0.1847 -0.2093c 0.0000,-0.1970 0.1601,-0.4555 0.3078 -0.4555h 2.8194 c 0.1231,-0.0000 0.1724,0.1108 0.1724 0.2216c 0.0000,0.1354 -0.1724,0.4432 -0.3324 0.4432ZM 259.3778,63.7133 ZM 262.0740,57.0281 c -0.5294,-0.0000 -1.3050,0.5171 -1.3050 3.3857c 0.0000,1.0096 0.1847,3.0410 1.2681 3.0410c 0.2093,-0.0000 0.8003,-0.1354 1.0588 -1.0957c 0.1601,-0.5910 0.2462,-1.3297 0.2462 -2.4008c 0.0000,-1.5636 -0.3940,-2.4377 -0.7510 -2.7455c -0.1354,-0.1231 -0.3201,-0.1847 -0.5171 -0.1847ZM 262.0740,57.0281 ZM 262.0248,63.8611 c -1.3173,-0.0000 -2.2038,-1.6867 -2.2038 -3.5704c 0.0000,-2.3023 1.0957,-3.6935 2.2530 -3.6935c 0.5294,-0.0000 1.0588,0.3324 1.4158 0.8126c 0.5171,0.6895 0.7879,1.6128 0.7879 2.7701c 0.0000,2.7332 -1.3543,3.6812 -2.2530 3.6812ZM 264.7703,63.7133 ZM 265.4720,63.2085 c 0.0000,-0.3570 0.2955,-0.6525 0.6525 -0.6525c 0.3570,-0.0000 0.6525,0.2955 0.6525 0.6525c 0.0000,0.3570 -0.2955,0.6525 -0.6525 0.6525c -0.3570,-0.0000 -0.6525,-0.2955 -0.6525 -0.6525ZM 267.4665,63.7133 ZM 269.7811,57.8407 c -0.2339,-0.0000 -0.7756,0.2216 -1.0465 0.3447l -0.1477,-0.3817 c 1.0834,-0.5048 1.5020,-0.7633 2.1176 -1.2065h 0.2339 v 6.1928 c 0.0000,0.4432 0.0616,0.5663 0.4678 0.5663h 0.6402 c 0.0369,-0.0000 0.0985,0.0246 0.0985 0.0985v 0.2709 l -1.6867,-0.0246 l -1.7113,0.0246 v -0.2709 c 0.0123,-0.0369 0.0246,-0.0985 0.0985 -0.0985h 0.7387 c 0.4678,-0.0000 0.4678,-0.2093 0.4678 -0.5663v -4.2352 c 0.0000,-0.4186 0.0000,-0.7141 -0.2709 -0.7141Z"/></g><g stroke-linejoin="miter" stroke-opacity="0.6" fill-opacity="0.0" stroke="rgb(0,0,0)" stroke-width="1.2373190190091596" fill="rgb(0,0,0)" stroke-linecap="butt" stroke-miterlimit="10.0"><path d="M 263.9146,67.5730 v 7.4239 "/></g><g stroke-linejoin="miter" stroke-opacity="1.0" fill-opacity="0.6" stroke="rgb(0,0,0)" fill-rule="evenodd" stroke-width="0.0" fill="rgb(0,0,0)" stroke-linecap="butt" stroke-miterlimit="10.0"><path d="M 218.1215,63.7133 ZM 221.4949,60.8078 h -2.7824 c -0.1108,-0.0000 -0.1847,-0.0985 -0.1847 -0.2093c 0.0000,-0.1970 0.1601,-0.4555 0.3078 -0.4555h 2.8194 c 0.1231,-0.0000 0.1724,0.1108 0.1724 0.2216c 0.0000,0.1354 -0.1724,0.4432 -0.3324 0.4432ZM 222.2213,63.7133 ZM 224.9175,57.0281 c -0.5294,-0.0000 -1.3050,0.5171 -1.3050 3.3857c 0.0000,1.0096 0.1847,3.0410 1.2681 3.0410c 0.2093,-0.0000 0.8003,-0.1354 1.0588 -1.0957c 0.1601,-0.5910 0.2462,-1.3297 0.2462 -2.4008c 0.0000,-1.5636 -0.3940,-2.4377 -0.7510 -2.7455c -0.1354,-0.1231 -0.3201,-0.1847 -0.5171 -0.1847ZM 224.9175,57.0281 ZM 224.8683,63.8611 c -1.3173,-0.0000 -2.2038,-1.6867 -2.2038 -3.5704c 0.0000,-2.3023 1.0957,-3.6935 2.2530 -3.6935c 0.5294,-0.0000 1.0588,0.3324 1.4158 0.8126c 0.5171,0.6895 0.7879,1.6128 0.7879 2.7701c 0.0000,2.7332 -1.3543,3.6812 -2.2530 3.6812ZM 227.6138,63.7133 ZM 228.3155,63.2085 c 0.0000,-0.3570 0.2955,-0.6525 0.6525 -0.6525c 0.3570,-0.0000 0.6525,0.2955 0.6525 0.6525c 0.0000,0.3570 -0.2955,0.6525 -0.6525 0.6525c -0.3570,-0.0000 -0.6525,-0.2955 -0.6525 -0.6525ZM 230.3100,63.7133 ZM 231.0241,58.2593 c 0.0000,-0.7018 0.6771,-1.6621 1.9699 -1.6621c 0.9480,-0.0000 2.0560,0.3570 2.0560 1.7729c 0.0000,0.9357 -0.4802,1.4035 -1.1450 2.0437l -1.1696,1.1327 c -0.0616,0.0616 -0.8864,0.8741 -0.8864 1.4528h 2.0930 c 0.4186,-0.0000 0.6402,-0.2093 0.8126 -0.8864l 0.3078,0.0492 l -0.2462,1.5513 h -3.8043 c 0.0000,-0.6895 0.1108,-1.2189 1.2558 -2.3885l 0.8618,-0.8495 c 0.6895,-0.7018 0.9726,-1.3050 0.9726 -2.0560c 0.0000,-1.1204 -0.7633,-1.4405 -1.1819 -1.4405c -0.8495,-0.0000 -1.0834,0.4432 -1.0834 0.7387c 0.0000,0.0985 0.0246,0.1970 0.0492 0.2832c 0.0246,0.0862 0.0492,0.1724 0.0492 0.2709c 0.0000,0.3201 -0.2462,0.4432 -0.4432 0.4432c -0.2709,-0.0000 -0.4678,-0.2093 -0.4678 -0.4555Z"/></g><g stroke-linejoin="miter" stroke-opacity="0.6" fill-opacity="0.0" stroke="rgb(0,0,0)" stroke-width="1.2373190190091596" fill="rgb(0,0,0)" stroke-linecap="butt" stroke-miterlimit="10.0"><path d="M 226.7950,67.5730 v 7.4239 "/></g><g stroke-linejoin="miter" stroke-opacity="1.0" fill-opacity="0.6" stroke="rgb(0,0,0)" fill-rule="evenodd" stroke-width="0.0" fill="rgb(0,0,0)" stroke-linecap="butt" stroke-miterlimit="10.0"><path d="M 180.9527,63.7133 ZM 184.3261,60.8078 h -2.7824 c -0.1108,-0.0000 -0.1847,-0.0985 -0.1847 -0.2093c 0.0000,-0.1970 0.1601,-0.4555 0.3078 -0.4555h 2.8194 c 0.1231,-0.0000 0.1724,0.1108 0.1724 0.2216c 0.0000,0.1354 -0.1724,0.4432 -0.3324 0.4432ZM 185.0524,63.7133 ZM 187.7487,57.0281 c -0.5294,-0.0000 -1.3050,0.5171 -1.3050 3.3857c 0.0000,1.0096 0.1847,3.0410 1.2681 3.0410c 0.2093,-0.0000 0.8003,-0.1354 1.0588 -1.0957c 0.1601,-0.5910 0.2462,-1.3297 0.2462 -2.4008c 0.0000,-1.5636 -0.3940,-2.4377 -0.7510 -2.7455c -0.1354,-0.1231 -0.3201,-0.1847 -0.5171 -0.1847ZM 187.7487,57.0281 ZM 187.6994,63.8611 c -1.3173,-0.0000 -2.2038,-1.6867 -2.2038 -3.5704c 0.0000,-2.3023 1.0957,-3.6935 2.2530 -3.6935c 0.5294,-0.0000 1.0588,0.3324 1.4158 0.8126c 0.5171,0.6895 0.7879,1.6128 0.7879 2.7701c 0.0000,2.7332 -1.3543,3.6812 -2.2530 3.6812ZM 190.4449,63.7133 ZM 191.1467,63.2085 c 0.0000,-0.3570 0.2955,-0.6525 0.6525 -0.6525c 0.3570,-0.0000 0.6525,0.2955 0.6525 0.6525c 0.0000,0.3570 -0.2955,0.6525 -0.6525 0.6525c -0.3570,-0.0000 -0.6525,-0.2955 -0.6525 -0.6525ZM 193.1412,63.7133 ZM 195.8005,56.9788 c -0.3078,-0.0000 -1.2065,0.1724 -1.2065 0.9234c 0.0000,0.2216 -0.0862,0.6033 -0.4186 0.6033c -0.3201,-0.0000 -0.3447,-0.3570 -0.3447 -0.3940c 0.0000,-0.3817 0.5048,-1.5143 2.2161 -1.5143c 1.1942,-0.0000 1.5513,0.7510 1.5513 1.2435c 0.0000,0.3078 -0.0985,0.9234 -1.2065 1.6251c 0.6895,0.1108 1.6005,0.6156 1.6005 1.8960c 0.0000,1.6251 -1.2312,2.4993 -2.6224 2.4993c -0.7018,-0.0000 -1.6867,-0.3078 -1.6867 -0.7756c 0.0000,-0.1847 0.1847,-0.3940 0.4309 -0.3940c 0.2339,-0.0000 0.3447,0.1231 0.4555 0.2832c 0.1354,0.2093 0.3570,0.5048 0.9480 0.5048c 0.4063,-0.0000 1.5636,-0.4063 1.5636 -1.9575c 0.0000,-1.3173 -0.9234,-1.5266 -1.5882 -1.5266c -0.1108,-0.0000 -0.2462,0.0246 -0.3817 0.0492l -0.0492,-0.3693 c 0.9480,-0.1601 1.7359,-1.0834 1.7359 -1.6498c 0.0000,-0.7018 -0.4925,-1.0465 -0.9972 -1.0465Z"/></g><g stroke-linejoin="miter" stroke-opacity="0.6" fill-opacity="0.0" stroke="rgb(0,0,0)" stroke-width="1.2373190190091596" fill="rgb(0,0,0)" stroke-linecap="butt" stroke-miterlimit="10.0"><path d="M 189.6755,67.5730 v 7.4239 "/></g><g stroke-linejoin="miter" stroke-opacity="1.0" fill-opacity="0.6" stroke="rgb(0,0,0)" fill-rule="evenodd" stroke-width="0.0" fill="rgb(0,0,0)" stroke-linecap="butt" stroke-miterlimit="10.0"><path d="M 143.7531,63.7133 ZM 147.1265,60.8078 h -2.7824 c -0.1108,-0.0000 -0.1847,-0.0985 -0.1847 -0.2093c 0.0000,-0.1970 0.1601,-0.4555 0.3078 -0.4555h 2.8194 c 0.1231,-0.0000 0.1724,0.1108 0.1724 0.2216c 0.0000,0.1354 -0.1724,0.4432 -0.3324 0.4432ZM 147.8529,63.7133 ZM 150.5491,57.0281 c -0.5294,-0.0000 -1.3050,0.5171 -1.3050 3.3857c 0.0000,1.0096 0.1847,3.0410 1.2681 3.0410c 0.2093,-0.0000 0.8003,-0.1354 1.0588 -1.0957c 0.1601,-0.5910 0.2462,-1.3297 0.2462 -2.4008c 0.0000,-1.5636 -0.3940,-2.4377 -0.7510 -2.7455c -0.1354,-0.1231 -0.3201,-0.1847 -0.5171 -0.1847ZM 150.5491,57.0281 ZM 150.4999,63.8611 c -1.3173,-0.0000 -2.2038,-1.6867 -2.2038 -3.5704c 0.0000,-2.3023 1.0957,-3.6935 2.2530 -3.6935c 0.5294,-0.0000 1.0588,0.3324 1.4158 0.8126c 0.5171,0.6895 0.7879,1.6128 0.7879 2.7701c 0.0000,2.7332 -1.3543,3.6812 -2.2530 3.6812ZM 153.2453,63.7133 ZM 153.9471,63.2085 c 0.0000,-0.3570 0.2955,-0.6525 0.6525 -0.6525c 0.3570,-0.0000 0.6525,0.2955 0.6525 0.6525c 0.0000,0.3570 -0.2955,0.6525 -0.6525 0.6525c -0.3570,-0.0000 -0.6525,-0.2955 -0.6525 -0.6525ZM 155.9416,63.7133 ZM 159.1180,59.3427 c 0.0000,-0.0862 0.0123,-0.1847 0.1231 -0.2462c 0.1354,-0.0985 0.3570,-0.2093 0.5417 -0.2093c 0.1601,-0.0000 0.1724,0.1354 0.1724 0.3817v 1.9822 h 0.9972 l -0.0739,0.5786 h -0.9234 v 1.0219 c 0.0000,0.3447 0.0492,0.5171 0.4063 0.5171h 0.3324 c 0.0739,-0.0000 0.0862,0.0616 0.0862 0.0862v 0.2709 c 0.0000,-0.0000 -0.7879,-0.0246 -1.3050 -0.0246c -0.4678,-0.0000 -1.1942,0.0246 -1.1942 0.0246v -0.2709 c 0.0000,-0.0246 0.0123,-0.0862 0.0862 -0.0862h 0.3324 c 0.3817,-0.0000 0.4186,-0.1601 0.4186 -0.5171v -1.0219 h -2.4131 c -0.0492,-0.0000 -0.0739,-0.0246 -0.1108 -0.0739l -0.0985,-0.1354 l -0.1477,-0.2585 c -0.0123,-0.0000 -0.0123,-0.0123 -0.0123 -0.0246c 0.0000,-0.0123 0.0123,-0.0246 0.0246 -0.0369c 0.8003,-0.8864 2.2161,-3.6319 2.6593 -4.6415c 0.0123,-0.0492 0.0369,-0.0616 0.0862 -0.0616c 0.0123,-0.0000 0.2832,0.1108 0.4309 0.1354c -0.5540,1.4897 -1.4651,3.0902 -2.3638 4.5184h 1.9452 v -1.9083 Z"/></g><g stroke-linejoin="miter" stroke-opacity="0.6" fill-opacity="0.0" stroke="rgb(0,0,0)" stroke-width="1.2373190190091596" fill="rgb(0,0,0)" stroke-linecap="butt" stroke-miterlimit="10.0"><path d="M 152.5559,67.5730 v 7.4239 "/></g><g stroke-linejoin="miter" stroke-opacity="1.0" fill-opacity="0.6" stroke="rgb(0,0,0)" fill-rule="evenodd" stroke-width="0.0" fill="rgb(0,0,0)" stroke-linecap="butt" stroke-miterlimit="10.0"><path d="M 106.7936,63.7133 ZM 110.1669,60.8078 h -2.7824 c -0.1108,-0.0000 -0.1847,-0.0985 -0.1847 -0.2093c 0.0000,-0.1970 0.1601,-0.4555 0.3078 -0.4555h 2.8194 c 0.1231,-0.0000 0.1724,0.1108 0.1724 0.2216c 0.0000,0.1354 -0.1724,0.4432 -0.3324 0.4432ZM 110.8933,63.7133 ZM 113.5896,57.0281 c -0.5294,-0.0000 -1.3050,0.5171 -1.3050 3.3857c 0.0000,1.0096 0.1847,3.0410 1.2681 3.0410c 0.2093,-0.0000 0.8003,-0.1354 1.0588 -1.0957c 0.1601,-0.5910 0.2462,-1.3297 0.2462 -2.4008c 0.0000,-1.5636 -0.3940,-2.4377 -0.7510 -2.7455c -0.1354,-0.1231 -0.3201,-0.1847 -0.5171 -0.1847ZM 113.5896,57.0281 ZM 113.5403,63.8611 c -1.3173,-0.0000 -2.2038,-1.6867 -2.2038 -3.5704c 0.0000,-2.3023 1.0957,-3.6935 2.2530 -3.6935c 0.5294,-0.0000 1.0588,0.3324 1.4158 0.8126c 0.5171,0.6895 0.7879,1.6128 0.7879 2.7701c 0.0000,2.7332 -1.3543,3.6812 -2.2530 3.6812ZM 116.2858,63.7133 ZM 116.9876,63.2085 c 0.0000,-0.3570 0.2955,-0.6525 0.6525 -0.6525c 0.3570,-0.0000 0.6525,0.2955 0.6525 0.6525c 0.0000,0.3570 -0.2955,0.6525 -0.6525 0.6525c -0.3570,-0.0000 -0.6525,-0.2955 -0.6525 -0.6525ZM 118.9821,63.7133 ZM 122.7864,61.6326 c 0.0000,-1.2681 -0.6895,-1.8960 -1.4528 -1.8960c -0.5663,-0.0000 -0.9972,0.0862 -1.4774 0.2832l 0.3940,-3.3611 c 0.4063,0.0369 0.8249,0.0492 1.2558 0.0492c 0.6156,-0.0000 1.2558,-0.0369 1.9206 -0.1108l 0.0739,0.0369 l -0.1847,0.8003 c -0.4802,0.0492 -0.8741,0.0616 -1.2189 0.0616c -0.5540,-0.0000 -0.9726,-0.0492 -1.4035 -0.0985l -0.2339,1.9452 c 0.2585,-0.0985 0.7018,-0.1847 1.1819 -0.1847c 1.3050,-0.0000 2.0314,1.1327 2.0314 2.2653c 0.0000,1.3789 -0.9603,2.4377 -2.3515 2.4377c -0.7018,-0.0000 -1.7236,-0.3940 -1.7236 -0.8741c 0.0000,-0.2339 0.1970,-0.3940 0.4186 -0.3940c 0.2462,-0.0000 0.4063,0.1847 0.5540 0.3817c 0.1847,0.2216 0.3817,0.4678 0.7756 0.4678c 0.7879,-0.0000 1.4405,-0.7387 1.4405 -1.8098Z"/></g><g stroke-linejoin="miter" stroke-opacity="0.6" fill-opacity="0.0" stroke="rgb(0,0,0)" stroke-width="1.2373190190091596" fill="rgb(0,0,0)" stroke-linecap="butt" stroke-miterlimit="10.0"><path d="M 115.4363,67.5730 v 7.4239 "/></g><g stroke-linejoin="miter" stroke-opacity="0.0" fill-opacity="0.1" stroke="rgb(0,0,0)" stroke-width="0.0" fill="rgb(0,0,0)" stroke-linecap="butt" stroke-miterlimit="10.0"><path d="M 107.1998,326.0927 l -0.0000,-247.4638 h -4.9493 l -0.0000,247.4638 Z"/></g><g stroke-linejoin="miter" stroke-opacity="1.0" fill-opacity="0.6" stroke="rgb(0,0,0)" fill-rule="evenodd" stroke-width="0.0" fill="rgb(0,0,0)" stroke-linecap="butt" stroke-miterlimit="10.0"><path d="M 83.2845,82.1130 ZM 85.9807,75.4278 c -0.5294,-0.0000 -1.3050,0.5171 -1.3050 3.3857c 0.0000,1.0096 0.1847,3.0410 1.2681 3.0410c 0.2093,-0.0000 0.8003,-0.1354 1.0588 -1.0957c 0.1601,-0.5910 0.2462,-1.3297 0.2462 -2.4008c 0.0000,-1.5636 -0.3940,-2.4377 -0.7510 -2.7455c -0.1354,-0.1231 -0.3201,-0.1847 -0.5171 -0.1847ZM 85.9807,75.4278 ZM 85.9315,82.2608 c -1.3173,-0.0000 -2.2038,-1.6867 -2.2038 -3.5704c 0.0000,-2.3023 1.0957,-3.6935 2.2530 -3.6935c 0.5294,-0.0000 1.0588,0.3324 1.4158 0.8126c 0.5171,0.6895 0.7879,1.6128 0.7879 2.7701c 0.0000,2.7332 -1.3543,3.6812 -2.2530 3.6812ZM 88.6770,82.1130 ZM 89.3788,81.6083 c 0.0000,-0.3570 0.2955,-0.6525 0.6525 -0.6525c 0.3570,-0.0000 0.6525,0.2955 0.6525 0.6525c 0.0000,0.3570 -0.2955,0.6525 -0.6525 0.6525c -0.3570,-0.0000 -0.6525,-0.2955 -0.6525 -0.6525ZM 91.3732,82.1130 ZM 95.1775,80.0324 c 0.0000,-1.2681 -0.6895,-1.8960 -1.4528 -1.8960c -0.5663,-0.0000 -0.9972,0.0862 -1.4774 0.2832l 0.3940,-3.3611 c 0.4063,0.0369 0.8249,0.0492 1.2558 0.0492c 0.6156,-0.0000 1.2558,-0.0369 1.9206 -0.1108l 0.0739,0.0369 l -0.1847,0.8003 c -0.4802,0.0492 -0.8741,0.0616 -1.2189 0.0616c -0.5540,-0.0000 -0.9726,-0.0492 -1.4035 -0.0985l -0.2339,1.9452 c 0.2585,-0.0985 0.7018,-0.1847 1.1819 -0.1847c 1.3050,-0.0000 2.0314,1.1327 2.0314 2.2653c 0.0000,1.3789 -0.9603,2.4377 -2.3515 2.4377c -0.7018,-0.0000 -1.7236,-0.3940 -1.7236 -0.8741c 0.0000,-0.2339 0.1970,-0.3940 0.4186 -0.3940c 0.2462,-0.0000 0.4063,0.1847 0.5540 0.3817c 0.1847,0.2216 0.3817,0.4678 0.7756 0.4678c 0.7879,-0.0000 1.4405,-0.7387 1.4405 -1.8098Z"/></g><g stroke-linejoin="miter" stroke-opacity="0.6" fill-opacity="0.0" stroke="rgb(0,0,0)" stroke-width="1.2373190190091596" fill="rgb(0,0,0)" stroke-linecap="butt" stroke-miterlimit="10.0"><path d="M 99.7759,78.6289 h 7.4239 "/></g><g stroke-linejoin="miter" stroke-opacity="1.0" fill-opacity="0.6" stroke="rgb(0,0,0)" fill-rule="evenodd" stroke-width="0.0" fill="rgb(0,0,0)" stroke-linecap="butt" stroke-miterlimit="10.0"><path d="M 82.9644,106.8594 ZM 85.6606,100.1742 c -0.5294,-0.0000 -1.3050,0.5171 -1.3050 3.3857c 0.0000,1.0096 0.1847,3.0410 1.2681 3.0410c 0.2093,-0.0000 0.8003,-0.1354 1.0588 -1.0957c 0.1601,-0.5910 0.2462,-1.3297 0.2462 -2.4008c 0.0000,-1.5636 -0.3940,-2.4377 -0.7510 -2.7455c -0.1354,-0.1231 -0.3201,-0.1847 -0.5171 -0.1847ZM 85.6606,100.1742 ZM 85.6114,107.0072 c -1.3173,-0.0000 -2.2038,-1.6867 -2.2038 -3.5704c 0.0000,-2.3023 1.0957,-3.6935 2.2530 -3.6935c 0.5294,-0.0000 1.0588,0.3324 1.4158 0.8126c 0.5171,0.6895 0.7879,1.6128 0.7879 2.7701c 0.0000,2.7332 -1.3543,3.6812 -2.2530 3.6812ZM 88.3569,106.8594 ZM 89.0587,106.3546 c 0.0000,-0.3570 0.2955,-0.6525 0.6525 -0.6525c 0.3570,-0.0000 0.6525,0.2955 0.6525 0.6525c 0.0000,0.3570 -0.2955,0.6525 -0.6525 0.6525c -0.3570,-0.0000 -0.6525,-0.2955 -0.6525 -0.6525ZM 91.0531,106.8594 ZM 94.2295,102.4888 c 0.0000,-0.0862 0.0123,-0.1847 0.1231 -0.2462c 0.1354,-0.0985 0.3570,-0.2093 0.5417 -0.2093c 0.1601,-0.0000 0.1724,0.1354 0.1724 0.3817v 1.9822 h 0.9972 l -0.0739,0.5786 h -0.9234 v 1.0219 c 0.0000,0.3447 0.0492,0.5171 0.4063 0.5171h 0.3324 c 0.0739,-0.0000 0.0862,0.0616 0.0862 0.0862v 0.2709 c 0.0000,-0.0000 -0.7879,-0.0246 -1.3050 -0.0246c -0.4678,-0.0000 -1.1942,0.0246 -1.1942 0.0246v -0.2709 c 0.0000,-0.0246 0.0123,-0.0862 0.0862 -0.0862h 0.3324 c 0.3817,-0.0000 0.4186,-0.1601 0.4186 -0.5171v -1.0219 h -2.4131 c -0.0492,-0.0000 -0.0739,-0.0246 -0.1108 -0.0739l -0.0985,-0.1354 l -0.1477,-0.2585 c -0.0123,-0.0000 -0.0123,-0.0123 -0.0123 -0.0246c 0.0000,-0.0123 0.0123,-0.0246 0.0246 -0.0369c 0.8003,-0.8864 2.2161,-3.6319 2.6593 -4.6415c 0.0123,-0.0492 0.0369,-0.0616 0.0862 -0.0616c 0.0123,-0.0000 0.2832,0.1108 0.4309 0.1354c -0.5540,1.4897 -1.4651,3.0902 -2.3638 4.5184h 1.9452 v -1.9083 Z"/></g><g stroke-linejoin="miter" stroke-opacity="0.6" fill-opacity="0.0" stroke="rgb(0,0,0)" stroke-width="1.2373190190091596" fill="rgb(0,0,0)" stroke-linecap="butt" stroke-miterlimit="10.0"><path d="M 99.7759,103.3752 h 7.4239 "/></g><g stroke-linejoin="miter" stroke-opacity="1.0" fill-opacity="0.6" stroke="rgb(0,0,0)" fill-rule="evenodd" stroke-width="0.0" fill="rgb(0,0,0)" stroke-linecap="butt" stroke-miterlimit="10.0"><path d="M 83.1244,131.6058 ZM 85.8207,124.9206 c -0.5294,-0.0000 -1.3050,0.5171 -1.3050 3.3857c 0.0000,1.0096 0.1847,3.0410 1.2681 3.0410c 0.2093,-0.0000 0.8003,-0.1354 1.0588 -1.0957c 0.1601,-0.5910 0.2462,-1.3297 0.2462 -2.4008c 0.0000,-1.5636 -0.3940,-2.4377 -0.7510 -2.7455c -0.1354,-0.1231 -0.3201,-0.1847 -0.5171 -0.1847ZM 85.8207,124.9206 ZM 85.7714,131.7535 c -1.3173,-0.0000 -2.2038,-1.6867 -2.2038 -3.5704c 0.0000,-2.3023 1.0957,-3.6935 2.2530 -3.6935c 0.5294,-0.0000 1.0588,0.3324 1.4158 0.8126c 0.5171,0.6895 0.7879,1.6128 0.7879 2.7701c 0.0000,2.7332 -1.3543,3.6812 -2.2530 3.6812ZM 88.5169,131.6058 ZM 89.2187,131.1010 c 0.0000,-0.3570 0.2955,-0.6525 0.6525 -0.6525c 0.3570,-0.0000 0.6525,0.2955 0.6525 0.6525c 0.0000,0.3570 -0.2955,0.6525 -0.6525 0.6525c -0.3570,-0.0000 -0.6525,-0.2955 -0.6525 -0.6525ZM 91.2132,131.6058 ZM 93.8725,124.8713 c -0.3078,-0.0000 -1.2065,0.1724 -1.2065 0.9234c 0.0000,0.2216 -0.0862,0.6033 -0.4186 0.6033c -0.3201,-0.0000 -0.3447,-0.3570 -0.3447 -0.3940c 0.0000,-0.3817 0.5048,-1.5143 2.2161 -1.5143c 1.1942,-0.0000 1.5513,0.7510 1.5513 1.2435c 0.0000,0.3078 -0.0985,0.9234 -1.2065 1.6251c 0.6895,0.1108 1.6005,0.6156 1.6005 1.8960c 0.0000,1.6251 -1.2312,2.4993 -2.6224 2.4993c -0.7018,-0.0000 -1.6867,-0.3078 -1.6867 -0.7756c 0.0000,-0.1847 0.1847,-0.3940 0.4309 -0.3940c 0.2339,-0.0000 0.3447,0.1231 0.4555 0.2832c 0.1354,0.2093 0.3570,0.5048 0.9480 0.5048c 0.4063,-0.0000 1.5636,-0.4063 1.5636 -1.9575c 0.0000,-1.3173 -0.9234,-1.5266 -1.5882 -1.5266c -0.1108,-0.0000 -0.2462,0.0246 -0.3817 0.0492l -0.0492,-0.3693 c 0.9480,-0.1601 1.7359,-1.0834 1.7359 -1.6498c 0.0000,-0.7018 -0.4925,-1.0465 -0.9972 -1.0465Z"/></g><g stroke-linejoin="miter" stroke-opacity="0.6" fill-opacity="0.0" stroke="rgb(0,0,0)" stroke-width="1.2373190190091596" fill="rgb(0,0,0)" stroke-linecap="butt" stroke-miterlimit="10.0"><path d="M 99.7759,128.1216 h 7.4239 "/></g><g stroke-linejoin="miter" stroke-opacity="1.0" fill-opacity="0.6" stroke="rgb(0,0,0)" fill-rule="evenodd" stroke-width="0.0" fill="rgb(0,0,0)" stroke-linecap="butt" stroke-miterlimit="10.0"><path d="M 83.2229,156.3522 ZM 85.9192,149.6670 c -0.5294,-0.0000 -1.3050,0.5171 -1.3050 3.3857c 0.0000,1.0096 0.1847,3.0410 1.2681 3.0410c 0.2093,-0.0000 0.8003,-0.1354 1.0588 -1.0957c 0.1601,-0.5910 0.2462,-1.3297 0.2462 -2.4008c 0.0000,-1.5636 -0.3940,-2.4377 -0.7510 -2.7455c -0.1354,-0.1231 -0.3201,-0.1847 -0.5171 -0.1847ZM 85.9192,149.6670 ZM 85.8699,156.4999 c -1.3173,-0.0000 -2.2038,-1.6867 -2.2038 -3.5704c 0.0000,-2.3023 1.0957,-3.6935 2.2530 -3.6935c 0.5294,-0.0000 1.0588,0.3324 1.4158 0.8126c 0.5171,0.6895 0.7879,1.6128 0.7879 2.7701c 0.0000,2.7332 -1.3543,3.6812 -2.2530 3.6812ZM 88.6154,156.3522 ZM 89.3172,155.8474 c 0.0000,-0.3570 0.2955,-0.6525 0.6525 -0.6525c 0.3570,-0.0000 0.6525,0.2955 0.6525 0.6525c 0.0000,0.3570 -0.2955,0.6525 -0.6525 0.6525c -0.3570,-0.0000 -0.6525,-0.2955 -0.6525 -0.6525ZM 91.3117,156.3522 ZM 92.0258,150.8981 c 0.0000,-0.7018 0.6771,-1.6621 1.9699 -1.6621c 0.9480,-0.0000 2.0560,0.3570 2.0560 1.7729c 0.0000,0.9357 -0.4802,1.4035 -1.1450 2.0437l -1.1696,1.1327 c -0.0616,0.0616 -0.8864,0.8741 -0.8864 1.4528h 2.0930 c 0.4186,-0.0000 0.6402,-0.2093 0.8126 -0.8864l 0.3078,0.0492 l -0.2462,1.5513 h -3.8043 c 0.0000,-0.6895 0.1108,-1.2189 1.2558 -2.3885l 0.8618,-0.8495 c 0.6895,-0.7018 0.9726,-1.3050 0.9726 -2.0560c 0.0000,-1.1204 -0.7633,-1.4405 -1.1819 -1.4405c -0.8495,-0.0000 -1.0834,0.4432 -1.0834 0.7387c 0.0000,0.0985 0.0246,0.1970 0.0492 0.2832c 0.0246,0.0862 0.0492,0.1724 0.0492 0.2709c 0.0000,0.3201 -0.2462,0.4432 -0.4432 0.4432c -0.2709,-0.0000 -0.4678,-0.2093 -0.4678 -0.4555Z"/></g><g stroke-linejoin="miter" stroke-opacity="0.6" fill-opacity="0.0" stroke="rgb(0,0,0)" stroke-width="1.2373190190091596" fill="rgb(0,0,0)" stroke-linecap="butt" stroke-miterlimit="10.0"><path d="M 99.7759,152.8680 h 7.4239 "/></g><g stroke-linejoin="miter" stroke-opacity="1.0" fill-opacity="0.6" stroke="rgb(0,0,0)" fill-rule="evenodd" stroke-width="0.0" fill="rgb(0,0,0)" stroke-linecap="butt" stroke-miterlimit="10.0"><path d="M 83.2968,181.0986 ZM 85.9931,174.4134 c -0.5294,-0.0000 -1.3050,0.5171 -1.3050 3.3857c 0.0000,1.0096 0.1847,3.0410 1.2681 3.0410c 0.2093,-0.0000 0.8003,-0.1354 1.0588 -1.0957c 0.1601,-0.5910 0.2462,-1.3297 0.2462 -2.4008c 0.0000,-1.5636 -0.3940,-2.4377 -0.7510 -2.7455c -0.1354,-0.1231 -0.3201,-0.1847 -0.5171 -0.1847ZM 85.9931,174.4134 ZM 85.9438,181.2463 c -1.3173,-0.0000 -2.2038,-1.6867 -2.2038 -3.5704c 0.0000,-2.3023 1.0957,-3.6935 2.2530 -3.6935c 0.5294,-0.0000 1.0588,0.3324 1.4158 0.8126c 0.5171,0.6895 0.7879,1.6128 0.7879 2.7701c 0.0000,2.7332 -1.3543,3.6812 -2.2530 3.6812ZM 88.6893,181.0986 ZM 89.3911,180.5938 c 0.0000,-0.3570 0.2955,-0.6525 0.6525 -0.6525c 0.3570,-0.0000 0.6525,0.2955 0.6525 0.6525c 0.0000,0.3570 -0.2955,0.6525 -0.6525 0.6525c -0.3570,-0.0000 -0.6525,-0.2955 -0.6525 -0.6525ZM 91.3856,181.0986 ZM 93.7001,175.2259 c -0.2339,-0.0000 -0.7756,0.2216 -1.0465 0.3447l -0.1477,-0.3817 c 1.0834,-0.5048 1.5020,-0.7633 2.1176 -1.2065h 0.2339 v 6.1928 c 0.0000,0.4432 0.0616,0.5663 0.4678 0.5663h 0.6402 c 0.0369,-0.0000 0.0985,0.0246 0.0985 0.0985v 0.2709 l -1.6867,-0.0246 l -1.7113,0.0246 v -0.2709 c 0.0123,-0.0369 0.0246,-0.0985 0.0985 -0.0985h 0.7387 c 0.4678,-0.0000 0.4678,-0.2093 0.4678 -0.5663v -4.2352 c 0.0000,-0.4186 0.0000,-0.7141 -0.2709 -0.7141Z"/></g><g stroke-linejoin="miter" stroke-opacity="0.6" fill-opacity="0.0" stroke="rgb(0,0,0)" stroke-width="1.2373190190091596" fill="rgb(0,0,0)" stroke-linecap="butt" stroke-miterlimit="10.0"><path d="M 99.7759,177.6144 h 7.4239 "/></g><g stroke-linejoin="miter" stroke-opacity="1.0" fill-opacity="0.6" stroke="rgb(0,0,0)" fill-rule="evenodd" stroke-width="0.0" fill="rgb(0,0,0)" stroke-linecap="butt" stroke-miterlimit="10.0"><path d="M 83.0752,205.8449 ZM 85.7714,199.1597 c -0.5294,-0.0000 -1.3050,0.5171 -1.3050 3.3857c 0.0000,1.0096 0.1847,3.0410 1.2681 3.0410c 0.2093,-0.0000 0.8003,-0.1354 1.0588 -1.0957c 0.1601,-0.5910 0.2462,-1.3297 0.2462 -2.4008c 0.0000,-1.5636 -0.3940,-2.4377 -0.7510 -2.7455c -0.1354,-0.1231 -0.3201,-0.1847 -0.5171 -0.1847ZM 85.7714,199.1597 ZM 85.7222,205.9927 c -1.3173,-0.0000 -2.2038,-1.6867 -2.2038 -3.5704c 0.0000,-2.3023 1.0957,-3.6935 2.2530 -3.6935c 0.5294,-0.0000 1.0588,0.3324 1.4158 0.8126c 0.5171,0.6895 0.7879,1.6128 0.7879 2.7701c 0.0000,2.7332 -1.3543,3.6812 -2.2530 3.6812ZM 88.4677,205.8449 ZM 89.1695,205.3402 c 0.0000,-0.3570 0.2955,-0.6525 0.6525 -0.6525c 0.3570,-0.0000 0.6525,0.2955 0.6525 0.6525c 0.0000,0.3570 -0.2955,0.6525 -0.6525 0.6525c -0.3570,-0.0000 -0.6525,-0.2955 -0.6525 -0.6525ZM 91.1639,205.8449 ZM 93.8602,199.1597 c -0.5294,-0.0000 -1.3050,0.5171 -1.3050 3.3857c 0.0000,1.0096 0.1847,3.0410 1.2681 3.0410c 0.2093,-0.0000 0.8003,-0.1354 1.0588 -1.0957c 0.1601,-0.5910 0.2462,-1.3297 0.2462 -2.4008c 0.0000,-1.5636 -0.3940,-2.4377 -0.7510 -2.7455c -0.1354,-0.1231 -0.3201,-0.1847 -0.5171 -0.1847ZM 93.8602,199.1597 ZM 93.8109,205.9927 c -1.3173,-0.0000 -2.2038,-1.6867 -2.2038 -3.5704c 0.0000,-2.3023 1.0957,-3.6935 2.2530 -3.6935c 0.5294,-0.0000 1.0588,0.3324 1.4158 0.8126c 0.5171,0.6895 0.7879,1.6128 0.7879 2.7701c 0.0000,2.7332 -1.3543,3.6812 -2.2530 3.6812Z"/></g><g stroke-linejoin="miter" stroke-opacity="0.6" fill-opacity="0.0" stroke="rgb(0,0,0)" stroke-width="1.2373190190091596" fill="rgb(0,0,0)" stroke-linecap="butt" stroke-miterlimit="10.0"><path d="M 99.7759,202.3608 h 7.4239 "/></g><g stroke-linejoin="miter" stroke-opacity="1.0" fill-opacity="0.6" stroke="rgb(0,0,0)" fill-rule="evenodd" stroke-width="0.0" fill="rgb(0,0,0)" stroke-linecap="butt" stroke-miterlimit="10.0"><path d="M 79.1970,230.5913 ZM 82.5704,227.6858 h -2.7824 c -0.1108,-0.0000 -0.1847,-0.0985 -0.1847 -0.2093c 0.0000,-0.1970 0.1601,-0.4555 0.3078 -0.4555h 2.8194 c 0.1231,-0.0000 0.1724,0.1108 0.1724 0.2216c 0.0000,0.1354 -0.1724,0.4432 -0.3324 0.4432ZM 83.2968,230.5913 ZM 85.9931,223.9061 c -0.5294,-0.0000 -1.3050,0.5171 -1.3050 3.3857c 0.0000,1.0096 0.1847,3.0410 1.2681 3.0410c 0.2093,-0.0000 0.8003,-0.1354 1.0588 -1.0957c 0.1601,-0.5910 0.2462,-1.3297 0.2462 -2.4008c 0.0000,-1.5636 -0.3940,-2.4377 -0.7510 -2.7455c -0.1354,-0.1231 -0.3201,-0.1847 -0.5171 -0.1847ZM 85.9931,223.9061 ZM 85.9438,230.7391 c -1.3173,-0.0000 -2.2038,-1.6867 -2.2038 -3.5704c 0.0000,-2.3023 1.0957,-3.6935 2.2530 -3.6935c 0.5294,-0.0000 1.0588,0.3324 1.4158 0.8126c 0.5171,0.6895 0.7879,1.6128 0.7879 2.7701c 0.0000,2.7332 -1.3543,3.6812 -2.2530 3.6812ZM 88.6893,230.5913 ZM 89.3911,230.0866 c 0.0000,-0.3570 0.2955,-0.6525 0.6525 -0.6525c 0.3570,-0.0000 0.6525,0.2955 0.6525 0.6525c 0.0000,0.3570 -0.2955,0.6525 -0.6525 0.6525c -0.3570,-0.0000 -0.6525,-0.2955 -0.6525 -0.6525ZM 91.3856,230.5913 ZM 93.7001,224.7187 c -0.2339,-0.0000 -0.7756,0.2216 -1.0465 0.3447l -0.1477,-0.3817 c 1.0834,-0.5048 1.5020,-0.7633 2.1176 -1.2065h 0.2339 v 6.1928 c 0.0000,0.4432 0.0616,0.5663 0.4678 0.5663h 0.6402 c 0.0369,-0.0000 0.0985,0.0246 0.0985 0.0985v 0.2709 l -1.6867,-0.0246 l -1.7113,0.0246 v -0.2709 c 0.0123,-0.0369 0.0246,-0.0985 0.0985 -0.0985h 0.7387 c 0.4678,-0.0000 0.4678,-0.2093 0.4678 -0.5663v -4.2352 c 0.0000,-0.4186 0.0000,-0.7141 -0.2709 -0.7141Z"/></g><g stroke-linejoin="miter" stroke-opacity="0.6" fill-opacity="0.0" stroke="rgb(0,0,0)" stroke-width="1.2373190190091596" fill="rgb(0,0,0)" stroke-linecap="butt" stroke-miterlimit="10.0"><path d="M 99.7759,227.1071 h 7.4239 "/></g><g stroke-linejoin="miter" stroke-opacity="1.0" fill-opacity="0.6" stroke="rgb(0,0,0)" fill-rule="evenodd" stroke-width="0.0" fill="rgb(0,0,0)" stroke-linecap="butt" stroke-miterlimit="10.0"><path d="M 79.1232,255.3377 ZM 82.4966,252.4322 h -2.7824 c -0.1108,-0.0000 -0.1847,-0.0985 -0.1847 -0.2093c 0.0000,-0.1970 0.1601,-0.4555 0.3078 -0.4555h 2.8194 c 0.1231,-0.0000 0.1724,0.1108 0.1724 0.2216c 0.0000,0.1354 -0.1724,0.4432 -0.3324 0.4432ZM 83.2229,255.3377 ZM 85.9192,248.6525 c -0.5294,-0.0000 -1.3050,0.5171 -1.3050 3.3857c 0.0000,1.0096 0.1847,3.0410 1.2681 3.0410c 0.2093,-0.0000 0.8003,-0.1354 1.0588 -1.0957c 0.1601,-0.5910 0.2462,-1.3297 0.2462 -2.4008c 0.0000,-1.5636 -0.3940,-2.4377 -0.7510 -2.7455c -0.1354,-0.1231 -0.3201,-0.1847 -0.5171 -0.1847ZM 85.9192,248.6525 ZM 85.8699,255.4854 c -1.3173,-0.0000 -2.2038,-1.6867 -2.2038 -3.5704c 0.0000,-2.3023 1.0957,-3.6935 2.2530 -3.6935c 0.5294,-0.0000 1.0588,0.3324 1.4158 0.8126c 0.5171,0.6895 0.7879,1.6128 0.7879 2.7701c 0.0000,2.7332 -1.3543,3.6812 -2.2530 3.6812ZM 88.6154,255.3377 ZM 89.3172,254.8329 c 0.0000,-0.3570 0.2955,-0.6525 0.6525 -0.6525c 0.3570,-0.0000 0.6525,0.2955 0.6525 0.6525c 0.0000,0.3570 -0.2955,0.6525 -0.6525 0.6525c -0.3570,-0.0000 -0.6525,-0.2955 -0.6525 -0.6525ZM 91.3117,255.3377 ZM 92.0258,249.8837 c 0.0000,-0.7018 0.6771,-1.6621 1.9699 -1.6621c 0.9480,-0.0000 2.0560,0.3570 2.0560 1.7729c 0.0000,0.9357 -0.4802,1.4035 -1.1450 2.0437l -1.1696,1.1327 c -0.0616,0.0616 -0.8864,0.8741 -0.8864 1.4528h 2.0930 c 0.4186,-0.0000 0.6402,-0.2093 0.8126 -0.8864l 0.3078,0.0492 l -0.2462,1.5513 h -3.8043 c 0.0000,-0.6895 0.1108,-1.2189 1.2558 -2.3885l 0.8618,-0.8495 c 0.6895,-0.7018 0.9726,-1.3050 0.9726 -2.0560c 0.0000,-1.1204 -0.7633,-1.4405 -1.1819 -1.4405c -0.8495,-0.0000 -1.0834,0.4432 -1.0834 0.7387c 0.0000,0.0985 0.0246,0.1970 0.0492 0.2832c 0.0246,0.0862 0.0492,0.1724 0.0492 0.2709c 0.0000,0.3201 -0.2462,0.4432 -0.4432 0.4432c -0.2709,-0.0000 -0.4678,-0.2093 -0.4678 -0.4555Z"/></g><g stroke-linejoin="miter" stroke-opacity="0.6" fill-opacity="0.0" stroke="rgb(0,0,0)" stroke-width="1.2373190190091596" fill="rgb(0,0,0)" stroke-linecap="butt" stroke-miterlimit="10.0"><path d="M 99.7759,251.8535 h 7.4239 "/></g><g stroke-linejoin="miter" stroke-opacity="1.0" fill-opacity="0.6" stroke="rgb(0,0,0)" fill-rule="evenodd" stroke-width="0.0" fill="rgb(0,0,0)" stroke-linecap="butt" stroke-miterlimit="10.0"><path d="M 79.0247,280.0841 ZM 82.3981,277.1785 h -2.7824 c -0.1108,-0.0000 -0.1847,-0.0985 -0.1847 -0.2093c 0.0000,-0.1970 0.1601,-0.4555 0.3078 -0.4555h 2.8194 c 0.1231,-0.0000 0.1724,0.1108 0.1724 0.2216c 0.0000,0.1354 -0.1724,0.4432 -0.3324 0.4432ZM 83.1244,280.0841 ZM 85.8207,273.3989 c -0.5294,-0.0000 -1.3050,0.5171 -1.3050 3.3857c 0.0000,1.0096 0.1847,3.0410 1.2681 3.0410c 0.2093,-0.0000 0.8003,-0.1354 1.0588 -1.0957c 0.1601,-0.5910 0.2462,-1.3297 0.2462 -2.4008c 0.0000,-1.5636 -0.3940,-2.4377 -0.7510 -2.7455c -0.1354,-0.1231 -0.3201,-0.1847 -0.5171 -0.1847ZM 85.8207,273.3989 ZM 85.7714,280.2318 c -1.3173,-0.0000 -2.2038,-1.6867 -2.2038 -3.5704c 0.0000,-2.3023 1.0957,-3.6935 2.2530 -3.6935c 0.5294,-0.0000 1.0588,0.3324 1.4158 0.8126c 0.5171,0.6895 0.7879,1.6128 0.7879 2.7701c 0.0000,2.7332 -1.3543,3.6812 -2.2530 3.6812ZM 88.5169,280.0841 ZM 89.2187,279.5793 c 0.0000,-0.3570 0.2955,-0.6525 0.6525 -0.6525c 0.3570,-0.0000 0.6525,0.2955 0.6525 0.6525c 0.0000,0.3570 -0.2955,0.6525 -0.6525 0.6525c -0.3570,-0.0000 -0.6525,-0.2955 -0.6525 -0.6525ZM 91.2132,280.0841 ZM 93.8725,273.3496 c -0.3078,-0.0000 -1.2065,0.1724 -1.2065 0.9234c 0.0000,0.2216 -0.0862,0.6033 -0.4186 0.6033c -0.3201,-0.0000 -0.3447,-0.3570 -0.3447 -0.3940c 0.0000,-0.3817 0.5048,-1.5143 2.2161 -1.5143c 1.1942,-0.0000 1.5513,0.7510 1.5513 1.2435c 0.0000,0.3078 -0.0985,0.9234 -1.2065 1.6251c 0.6895,0.1108 1.6005,0.6156 1.6005 1.8960c 0.0000,1.6251 -1.2312,2.4993 -2.6224 2.4993c -0.7018,-0.0000 -1.6867,-0.3078 -1.6867 -0.7756c 0.0000,-0.1847 0.1847,-0.3940 0.4309 -0.3940c 0.2339,-0.0000 0.3447,0.1231 0.4555 0.2832c 0.1354,0.2093 0.3570,0.5048 0.9480 0.5048c 0.4063,-0.0000 1.5636,-0.4063 1.5636 -1.9575c 0.0000,-1.3173 -0.9234,-1.5266 -1.5882 -1.5266c -0.1108,-0.0000 -0.2462,0.0246 -0.3817 0.0492l -0.0492,-0.3693 c 0.9480,-0.1601 1.7359,-1.0834 1.7359 -1.6498c 0.0000,-0.7018 -0.4925,-1.0465 -0.9972 -1.0465Z"/></g><g stroke-linejoin="miter" stroke-opacity="0.6" fill-opacity="0.0" stroke="rgb(0,0,0)" stroke-width="1.2373190190091596" fill="rgb(0,0,0)" stroke-linecap="butt" stroke-miterlimit="10.0"><path d="M 99.7759,276.5999 h 7.4239 "/></g><g stroke-linejoin="miter" stroke-opacity="1.0" fill-opacity="0.6" stroke="rgb(0,0,0)" fill-rule="evenodd" stroke-width="0.0" fill="rgb(0,0,0)" stroke-linecap="butt" stroke-miterlimit="10.0"><path d="M 78.8646,304.8305 ZM 82.2380,301.9249 h -2.7824 c -0.1108,-0.0000 -0.1847,-0.0985 -0.1847 -0.2093c 0.0000,-0.1970 0.1601,-0.4555 0.3078 -0.4555h 2.8194 c 0.1231,-0.0000 0.1724,0.1108 0.1724 0.2216c 0.0000,0.1354 -0.1724,0.4432 -0.3324 0.4432ZM 82.9644,304.8305 ZM 85.6606,298.1453 c -0.5294,-0.0000 -1.3050,0.5171 -1.3050 3.3857c 0.0000,1.0096 0.1847,3.0410 1.2681 3.0410c 0.2093,-0.0000 0.8003,-0.1354 1.0588 -1.0957c 0.1601,-0.5910 0.2462,-1.3297 0.2462 -2.4008c 0.0000,-1.5636 -0.3940,-2.4377 -0.7510 -2.7455c -0.1354,-0.1231 -0.3201,-0.1847 -0.5171 -0.1847ZM 85.6606,298.1453 ZM 85.6114,304.9782 c -1.3173,-0.0000 -2.2038,-1.6867 -2.2038 -3.5704c 0.0000,-2.3023 1.0957,-3.6935 2.2530 -3.6935c 0.5294,-0.0000 1.0588,0.3324 1.4158 0.8126c 0.5171,0.6895 0.7879,1.6128 0.7879 2.7701c 0.0000,2.7332 -1.3543,3.6812 -2.2530 3.6812ZM 88.3569,304.8305 ZM 89.0587,304.3257 c 0.0000,-0.3570 0.2955,-0.6525 0.6525 -0.6525c 0.3570,-0.0000 0.6525,0.2955 0.6525 0.6525c 0.0000,0.3570 -0.2955,0.6525 -0.6525 0.6525c -0.3570,-0.0000 -0.6525,-0.2955 -0.6525 -0.6525ZM 91.0531,304.8305 ZM 94.2295,300.4598 c 0.0000,-0.0862 0.0123,-0.1847 0.1231 -0.2462c 0.1354,-0.0985 0.3570,-0.2093 0.5417 -0.2093c 0.1601,-0.0000 0.1724,0.1354 0.1724 0.3817v 1.9822 h 0.9972 l -0.0739,0.5786 h -0.9234 v 1.0219 c 0.0000,0.3447 0.0492,0.5171 0.4063 0.5171h 0.3324 c 0.0739,-0.0000 0.0862,0.0616 0.0862 0.0862v 0.2709 c 0.0000,-0.0000 -0.7879,-0.0246 -1.3050 -0.0246c -0.4678,-0.0000 -1.1942,0.0246 -1.1942 0.0246v -0.2709 c 0.0000,-0.0246 0.0123,-0.0862 0.0862 -0.0862h 0.3324 c 0.3817,-0.0000 0.4186,-0.1601 0.4186 -0.5171v -1.0219 h -2.4131 c -0.0492,-0.0000 -0.0739,-0.0246 -0.1108 -0.0739l -0.0985,-0.1354 l -0.1477,-0.2585 c -0.0123,-0.0000 -0.0123,-0.0123 -0.0123 -0.0246c 0.0000,-0.0123 0.0123,-0.0246 0.0246 -0.0369c 0.8003,-0.8864 2.2161,-3.6319 2.6593 -4.6415c 0.0123,-0.0492 0.0369,-0.0616 0.0862 -0.0616c 0.0123,-0.0000 0.2832,0.1108 0.4309 0.1354c -0.5540,1.4897 -1.4651,3.0902 -2.3638 4.5184h 1.9452 v -1.9083 Z"/></g><g stroke-linejoin="miter" stroke-opacity="0.6" fill-opacity="0.0" stroke="rgb(0,0,0)" stroke-width="1.2373190190091596" fill="rgb(0,0,0)" stroke-linecap="butt" stroke-miterlimit="10.0"><path d="M 99.7759,301.3463 h 7.4239 "/></g><g stroke-linejoin="miter" stroke-opacity="1.0" fill-opacity="0.6" stroke="rgb(0,0,0)" fill-rule="evenodd" stroke-width="0.0" fill="rgb(0,0,0)" stroke-linecap="butt" stroke-miterlimit="10.0"><path d="M 79.1847,329.5768 ZM 82.5581,326.6713 h -2.7824 c -0.1108,-0.0000 -0.1847,-0.0985 -0.1847 -0.2093c 0.0000,-0.1970 0.1601,-0.4555 0.3078 -0.4555h 2.8194 c 0.1231,-0.0000 0.1724,0.1108 0.1724 0.2216c 0.0000,0.1354 -0.1724,0.4432 -0.3324 0.4432ZM 83.2845,329.5768 ZM 85.9807,322.8916 c -0.5294,-0.0000 -1.3050,0.5171 -1.3050 3.3857c 0.0000,1.0096 0.1847,3.0410 1.2681 3.0410c 0.2093,-0.0000 0.8003,-0.1354 1.0588 -1.0957c 0.1601,-0.5910 0.2462,-1.3297 0.2462 -2.4008c 0.0000,-1.5636 -0.3940,-2.4377 -0.7510 -2.7455c -0.1354,-0.1231 -0.3201,-0.1847 -0.5171 -0.1847ZM 85.9807,322.8916 ZM 85.9315,329.7246 c -1.3173,-0.0000 -2.2038,-1.6867 -2.2038 -3.5704c 0.0000,-2.3023 1.0957,-3.6935 2.2530 -3.6935c 0.5294,-0.0000 1.0588,0.3324 1.4158 0.8126c 0.5171,0.6895 0.7879,1.6128 0.7879 2.7701c 0.0000,2.7332 -1.3543,3.6812 -2.2530 3.6812ZM 88.6770,329.5768 ZM 89.3788,329.0721 c 0.0000,-0.3570 0.2955,-0.6525 0.6525 -0.6525c 0.3570,-0.0000 0.6525,0.2955 0.6525 0.6525c 0.0000,0.3570 -0.2955,0.6525 -0.6525 0.6525c -0.3570,-0.0000 -0.6525,-0.2955 -0.6525 -0.6525ZM 91.3732,329.5768 ZM 95.1775,327.4962 c 0.0000,-1.2681 -0.6895,-1.8960 -1.4528 -1.8960c -0.5663,-0.0000 -0.9972,0.0862 -1.4774 0.2832l 0.3940,-3.3611 c 0.4063,0.0369 0.8249,0.0492 1.2558 0.0492c 0.6156,-0.0000 1.2558,-0.0369 1.9206 -0.1108l 0.0739,0.0369 l -0.1847,0.8003 c -0.4802,0.0492 -0.8741,0.0616 -1.2189 0.0616c -0.5540,-0.0000 -0.9726,-0.0492 -1.4035 -0.0985l -0.2339,1.9452 c 0.2585,-0.0985 0.7018,-0.1847 1.1819 -0.1847c 1.3050,-0.0000 2.0314,1.1327 2.0314 2.2653c 0.0000,1.3789 -0.9603,2.4377 -2.3515 2.4377c -0.7018,-0.0000 -1.7236,-0.3940 -1.7236 -0.8741c 0.0000,-0.2339 0.1970,-0.3940 0.4186 -0.3940c 0.2462,-0.0000 0.4063,0.1847 0.5540 0.3817c 0.1847,0.2216 0.3817,0.4678 0.7756 0.4678c 0.7879,-0.0000 1.4405,-0.7387 1.4405 -1.8098Z"/></g><g stroke-linejoin="miter" stroke-opacity="0.6" fill-opacity="0.0" stroke="rgb(0,0,0)" stroke-width="1.2373190190091596" fill="rgb(0,0,0)" stroke-linecap="butt" stroke-miterlimit="10.0"><path d="M 99.7759,326.0927 h 7.4239 "/></g><g stroke-linejoin="miter" stroke-opacity="0.0" fill-opacity="0.1" stroke="rgb(0,0,0)" stroke-width="0.0" fill="rgb(0,0,0)" stroke-linecap="butt" stroke-miterlimit="10.0"><path d="M 486.6320,331.0419 l -0.0000,-4.9493 h -371.1957 l -0.0000,4.9493 Z"/></g><g stroke-linejoin="miter" stroke-opacity="1.0" fill-opacity="0.6" stroke="rgb(0,0,0)" fill-rule="evenodd" stroke-width="0.0" fill="rgb(0,0,0)" stroke-linecap="butt" stroke-miterlimit="10.0"><path d="M 480.0207,344.3447 ZM 482.7169,337.6594 c -0.5294,-0.0000 -1.3050,0.5171 -1.3050 3.3857c 0.0000,1.0096 0.1847,3.0410 1.2681 3.0410c 0.2093,-0.0000 0.8003,-0.1354 1.0588 -1.0957c 0.1601,-0.5910 0.2462,-1.3297 0.2462 -2.4008c 0.0000,-1.5636 -0.3940,-2.4377 -0.7510 -2.7455c -0.1354,-0.1231 -0.3201,-0.1847 -0.5171 -0.1847ZM 482.7169,337.6594 ZM 482.6677,344.4924 c -1.3173,-0.0000 -2.2038,-1.6867 -2.2038 -3.5704c 0.0000,-2.3023 1.0957,-3.6935 2.2530 -3.6935c 0.5294,-0.0000 1.0588,0.3324 1.4158 0.8126c 0.5171,0.6895 0.7879,1.6128 0.7879 2.7701c 0.0000,2.7332 -1.3543,3.6812 -2.2530 3.6812ZM 485.4132,344.3447 ZM 486.1149,343.8399 c 0.0000,-0.3570 0.2955,-0.6525 0.6525 -0.6525c 0.3570,-0.0000 0.6525,0.2955 0.6525 0.6525c 0.0000,0.3570 -0.2955,0.6525 -0.6525 0.6525c -0.3570,-0.0000 -0.6525,-0.2955 -0.6525 -0.6525ZM 488.1094,344.3447 ZM 491.9137,342.2640 c 0.0000,-1.2681 -0.6895,-1.8960 -1.4528 -1.8960c -0.5663,-0.0000 -0.9972,0.0862 -1.4774 0.2832l 0.3940,-3.3611 c 0.4063,0.0369 0.8249,0.0492 1.2558 0.0492c 0.6156,-0.0000 1.2558,-0.0369 1.9206 -0.1108l 0.0739,0.0369 l -0.1847,0.8003 c -0.4802,0.0492 -0.8741,0.0616 -1.2189 0.0616c -0.5540,-0.0000 -0.9726,-0.0492 -1.4035 -0.0985l -0.2339,1.9452 c 0.2585,-0.0985 0.7018,-0.1847 1.1819 -0.1847c 1.3050,-0.0000 2.0314,1.1327 2.0314 2.2653c 0.0000,1.3789 -0.9603,2.4377 -2.3515 2.4377c -0.7018,-0.0000 -1.7236,-0.3940 -1.7236 -0.8741c 0.0000,-0.2339 0.1970,-0.3940 0.4186 -0.3940c 0.2462,-0.0000 0.4063,0.1847 0.5540 0.3817c 0.1847,0.2216 0.3817,0.4678 0.7756 0.4678c 0.7879,-0.0000 1.4405,-0.7387 1.4405 -1.8098Z"/></g><g stroke-linejoin="miter" stroke-opacity="0.6" fill-opacity="0.0" stroke="rgb(0,0,0)" stroke-width="1.2373190190091596" fill="rgb(0,0,0)" stroke-linecap="butt" stroke-miterlimit="10.0"><path d="M 486.6320,326.0927 v 7.4239 "/></g><g stroke-linejoin="miter" stroke-opacity="1.0" fill-opacity="0.6" stroke="rgb(0,0,0)" fill-rule="evenodd" stroke-width="0.0" fill="rgb(0,0,0)" stroke-linecap="butt" stroke-miterlimit="10.0"><path d="M 442.7411,344.3447 ZM 445.4373,337.6594 c -0.5294,-0.0000 -1.3050,0.5171 -1.3050 3.3857c 0.0000,1.0096 0.1847,3.0410 1.2681 3.0410c 0.2093,-0.0000 0.8003,-0.1354 1.0588 -1.0957c 0.1601,-0.5910 0.2462,-1.3297 0.2462 -2.4008c 0.0000,-1.5636 -0.3940,-2.4377 -0.7510 -2.7455c -0.1354,-0.1231 -0.3201,-0.1847 -0.5171 -0.1847ZM 445.4373,337.6594 ZM 445.3881,344.4924 c -1.3173,-0.0000 -2.2038,-1.6867 -2.2038 -3.5704c 0.0000,-2.3023 1.0957,-3.6935 2.2530 -3.6935c 0.5294,-0.0000 1.0588,0.3324 1.4158 0.8126c 0.5171,0.6895 0.7879,1.6128 0.7879 2.7701c 0.0000,2.7332 -1.3543,3.6812 -2.2530 3.6812ZM 448.1336,344.3447 ZM 448.8353,343.8399 c 0.0000,-0.3570 0.2955,-0.6525 0.6525 -0.6525c 0.3570,-0.0000 0.6525,0.2955 0.6525 0.6525c 0.0000,0.3570 -0.2955,0.6525 -0.6525 0.6525c -0.3570,-0.0000 -0.6525,-0.2955 -0.6525 -0.6525ZM 450.8298,344.3447 ZM 454.0062,339.9740 c 0.0000,-0.0862 0.0123,-0.1847 0.1231 -0.2462c 0.1354,-0.0985 0.3570,-0.2093 0.5417 -0.2093c 0.1601,-0.0000 0.1724,0.1354 0.1724 0.3817v 1.9822 h 0.9972 l -0.0739,0.5786 h -0.9234 v 1.0219 c 0.0000,0.3447 0.0492,0.5171 0.4063 0.5171h 0.3324 c 0.0739,-0.0000 0.0862,0.0616 0.0862 0.0862v 0.2709 c 0.0000,-0.0000 -0.7879,-0.0246 -1.3050 -0.0246c -0.4678,-0.0000 -1.1942,0.0246 -1.1942 0.0246v -0.2709 c 0.0000,-0.0246 0.0123,-0.0862 0.0862 -0.0862h 0.3324 c 0.3817,-0.0000 0.4186,-0.1601 0.4186 -0.5171v -1.0219 h -2.4131 c -0.0492,-0.0000 -0.0739,-0.0246 -0.1108 -0.0739l -0.0985,-0.1354 l -0.1477,-0.2585 c -0.0123,-0.0000 -0.0123,-0.0123 -0.0123 -0.0246c 0.0000,-0.0123 0.0123,-0.0246 0.0246 -0.0369c 0.8003,-0.8864 2.2161,-3.6319 2.6593 -4.6415c 0.0123,-0.0492 0.0369,-0.0616 0.0862 -0.0616c 0.0123,-0.0000 0.2832,0.1108 0.4309 0.1354c -0.5540,1.4897 -1.4651,3.0902 -2.3638 4.5184h 1.9452 v -1.9083 Z"/></g><g stroke-linejoin="miter" stroke-opacity="0.6" fill-opacity="0.0" stroke="rgb(0,0,0)" stroke-width="1.2373190190091596" fill="rgb(0,0,0)" stroke-linecap="butt" stroke-miterlimit="10.0"><path d="M 449.5125,326.0927 v 7.4239 "/></g><g stroke-linejoin="miter" stroke-opacity="1.0" fill-opacity="0.6" stroke="rgb(0,0,0)" fill-rule="evenodd" stroke-width="0.0" fill="rgb(0,0,0)" stroke-linecap="butt" stroke-miterlimit="10.0"><path d="M 405.7015,344.3447 ZM 408.3978,337.6594 c -0.5294,-0.0000 -1.3050,0.5171 -1.3050 3.3857c 0.0000,1.0096 0.1847,3.0410 1.2681 3.0410c 0.2093,-0.0000 0.8003,-0.1354 1.0588 -1.0957c 0.1601,-0.5910 0.2462,-1.3297 0.2462 -2.4008c 0.0000,-1.5636 -0.3940,-2.4377 -0.7510 -2.7455c -0.1354,-0.1231 -0.3201,-0.1847 -0.5171 -0.1847ZM 408.3978,337.6594 ZM 408.3485,344.4924 c -1.3173,-0.0000 -2.2038,-1.6867 -2.2038 -3.5704c 0.0000,-2.3023 1.0957,-3.6935 2.2530 -3.6935c 0.5294,-0.0000 1.0588,0.3324 1.4158 0.8126c 0.5171,0.6895 0.7879,1.6128 0.7879 2.7701c 0.0000,2.7332 -1.3543,3.6812 -2.2530 3.6812ZM 411.0940,344.3447 ZM 411.7958,343.8399 c 0.0000,-0.3570 0.2955,-0.6525 0.6525 -0.6525c 0.3570,-0.0000 0.6525,0.2955 0.6525 0.6525c 0.0000,0.3570 -0.2955,0.6525 -0.6525 0.6525c -0.3570,-0.0000 -0.6525,-0.2955 -0.6525 -0.6525ZM 413.7903,344.3447 ZM 416.4496,337.6102 c -0.3078,-0.0000 -1.2065,0.1724 -1.2065 0.9234c 0.0000,0.2216 -0.0862,0.6033 -0.4186 0.6033c -0.3201,-0.0000 -0.3447,-0.3570 -0.3447 -0.3940c 0.0000,-0.3817 0.5048,-1.5143 2.2161 -1.5143c 1.1942,-0.0000 1.5513,0.7510 1.5513 1.2435c 0.0000,0.3078 -0.0985,0.9234 -1.2065 1.6251c 0.6895,0.1108 1.6005,0.6156 1.6005 1.8960c 0.0000,1.6251 -1.2312,2.4993 -2.6224 2.4993c -0.7018,-0.0000 -1.6867,-0.3078 -1.6867 -0.7756c 0.0000,-0.1847 0.1847,-0.3940 0.4309 -0.3940c 0.2339,-0.0000 0.3447,0.1231 0.4555 0.2832c 0.1354,0.2093 0.3570,0.5048 0.9480 0.5048c 0.4063,-0.0000 1.5636,-0.4063 1.5636 -1.9575c 0.0000,-1.3173 -0.9234,-1.5266 -1.5882 -1.5266c -0.1108,-0.0000 -0.2462,0.0246 -0.3817 0.0492l -0.0492,-0.3693 c 0.9480,-0.1601 1.7359,-1.0834 1.7359 -1.6498c 0.0000,-0.7018 -0.4925,-1.0465 -0.9972 -1.0465Z"/></g><g stroke-linejoin="miter" stroke-opacity="0.6" fill-opacity="0.0" stroke="rgb(0,0,0)" stroke-width="1.2373190190091596" fill="rgb(0,0,0)" stroke-linecap="butt" stroke-miterlimit="10.0"><path d="M 412.3929,326.0927 v 7.4239 "/></g><g stroke-linejoin="miter" stroke-opacity="1.0" fill-opacity="0.6" stroke="rgb(0,0,0)" fill-rule="evenodd" stroke-width="0.0" fill="rgb(0,0,0)" stroke-linecap="butt" stroke-miterlimit="10.0"><path d="M 368.6312,344.3447 ZM 371.3274,337.6594 c -0.5294,-0.0000 -1.3050,0.5171 -1.3050 3.3857c 0.0000,1.0096 0.1847,3.0410 1.2681 3.0410c 0.2093,-0.0000 0.8003,-0.1354 1.0588 -1.0957c 0.1601,-0.5910 0.2462,-1.3297 0.2462 -2.4008c 0.0000,-1.5636 -0.3940,-2.4377 -0.7510 -2.7455c -0.1354,-0.1231 -0.3201,-0.1847 -0.5171 -0.1847ZM 371.3274,337.6594 ZM 371.2782,344.4924 c -1.3173,-0.0000 -2.2038,-1.6867 -2.2038 -3.5704c 0.0000,-2.3023 1.0957,-3.6935 2.2530 -3.6935c 0.5294,-0.0000 1.0588,0.3324 1.4158 0.8126c 0.5171,0.6895 0.7879,1.6128 0.7879 2.7701c 0.0000,2.7332 -1.3543,3.6812 -2.2530 3.6812ZM 374.0237,344.3447 ZM 374.7255,343.8399 c 0.0000,-0.3570 0.2955,-0.6525 0.6525 -0.6525c 0.3570,-0.0000 0.6525,0.2955 0.6525 0.6525c 0.0000,0.3570 -0.2955,0.6525 -0.6525 0.6525c -0.3570,-0.0000 -0.6525,-0.2955 -0.6525 -0.6525ZM 376.7199,344.3447 ZM 377.4340,338.8906 c 0.0000,-0.7018 0.6771,-1.6621 1.9699 -1.6621c 0.9480,-0.0000 2.0560,0.3570 2.0560 1.7729c 0.0000,0.9357 -0.4802,1.4035 -1.1450 2.0437l -1.1696,1.1327 c -0.0616,0.0616 -0.8864,0.8741 -0.8864 1.4528h 2.0930 c 0.4186,-0.0000 0.6402,-0.2093 0.8126 -0.8864l 0.3078,0.0492 l -0.2462,1.5513 h -3.8043 c 0.0000,-0.6895 0.1108,-1.2189 1.2558 -2.3885l 0.8618,-0.8495 c 0.6895,-0.7018 0.9726,-1.3050 0.9726 -2.0560c 0.0000,-1.1204 -0.7633,-1.4405 -1.1819 -1.4405c -0.8495,-0.0000 -1.0834,0.4432 -1.0834 0.7387c 0.0000,0.0985 0.0246,0.1970 0.0492 0.2832c 0.0246,0.0862 0.0492,0.1724 0.0492 0.2709c 0.0000,0.3201 -0.2462,0.4432 -0.4432 0.4432c -0.2709,-0.0000 -0.4678,-0.2093 -0.4678 -0.4555Z"/></g><g stroke-linejoin="miter" stroke-opacity="0.6" fill-opacity="0.0" stroke="rgb(0,0,0)" stroke-width="1.2373190190091596" fill="rgb(0,0,0)" stroke-linecap="butt" stroke-miterlimit="10.0"><path d="M 375.2733,326.0927 v 7.4239 "/></g><g stroke-linejoin="miter" stroke-opacity="1.0" fill-opacity="0.6" stroke="rgb(0,0,0)" fill-rule="evenodd" stroke-width="0.0" fill="rgb(0,0,0)" stroke-linecap="butt" stroke-miterlimit="10.0"><path d="M 331.5486,344.3447 ZM 334.2448,337.6594 c -0.5294,-0.0000 -1.3050,0.5171 -1.3050 3.3857c 0.0000,1.0096 0.1847,3.0410 1.2681 3.0410c 0.2093,-0.0000 0.8003,-0.1354 1.0588 -1.0957c 0.1601,-0.5910 0.2462,-1.3297 0.2462 -2.4008c 0.0000,-1.5636 -0.3940,-2.4377 -0.7510 -2.7455c -0.1354,-0.1231 -0.3201,-0.1847 -0.5171 -0.1847ZM 334.2448,337.6594 ZM 334.1956,344.4924 c -1.3173,-0.0000 -2.2038,-1.6867 -2.2038 -3.5704c 0.0000,-2.3023 1.0957,-3.6935 2.2530 -3.6935c 0.5294,-0.0000 1.0588,0.3324 1.4158 0.8126c 0.5171,0.6895 0.7879,1.6128 0.7879 2.7701c 0.0000,2.7332 -1.3543,3.6812 -2.2530 3.6812ZM 336.9411,344.3447 ZM 337.6428,343.8399 c 0.0000,-0.3570 0.2955,-0.6525 0.6525 -0.6525c 0.3570,-0.0000 0.6525,0.2955 0.6525 0.6525c 0.0000,0.3570 -0.2955,0.6525 -0.6525 0.6525c -0.3570,-0.0000 -0.6525,-0.2955 -0.6525 -0.6525ZM 339.6373,344.3447 ZM 341.9519,338.4720 c -0.2339,-0.0000 -0.7756,0.2216 -1.0465 0.3447l -0.1477,-0.3817 c 1.0834,-0.5048 1.5020,-0.7633 2.1176 -1.2065h 0.2339 v 6.1928 c 0.0000,0.4432 0.0616,0.5663 0.4678 0.5663h 0.6402 c 0.0369,-0.0000 0.0985,0.0246 0.0985 0.0985v 0.2709 l -1.6867,-0.0246 l -1.7113,0.0246 v -0.2709 c 0.0123,-0.0369 0.0246,-0.0985 0.0985 -0.0985h 0.7387 c 0.4678,-0.0000 0.4678,-0.2093 0.4678 -0.5663v -4.2352 c 0.0000,-0.4186 0.0000,-0.7141 -0.2709 -0.7141Z"/></g><g stroke-linejoin="miter" stroke-opacity="0.6" fill-opacity="0.0" stroke="rgb(0,0,0)" stroke-width="1.2373190190091596" fill="rgb(0,0,0)" stroke-linecap="butt" stroke-miterlimit="10.0"><path d="M 338.1537,326.0927 v 7.4239 "/></g><g stroke-linejoin="miter" stroke-opacity="1.0" fill-opacity="0.6" stroke="rgb(0,0,0)" fill-rule="evenodd" stroke-width="0.0" fill="rgb(0,0,0)" stroke-linecap="butt" stroke-miterlimit="10.0"><path d="M 294.3182,344.3447 ZM 297.0144,337.6594 c -0.5294,-0.0000 -1.3050,0.5171 -1.3050 3.3857c 0.0000,1.0096 0.1847,3.0410 1.2681 3.0410c 0.2093,-0.0000 0.8003,-0.1354 1.0588 -1.0957c 0.1601,-0.5910 0.2462,-1.3297 0.2462 -2.4008c 0.0000,-1.5636 -0.3940,-2.4377 -0.7510 -2.7455c -0.1354,-0.1231 -0.3201,-0.1847 -0.5171 -0.1847ZM 297.0144,337.6594 ZM 296.9652,344.4924 c -1.3173,-0.0000 -2.2038,-1.6867 -2.2038 -3.5704c 0.0000,-2.3023 1.0957,-3.6935 2.2530 -3.6935c 0.5294,-0.0000 1.0588,0.3324 1.4158 0.8126c 0.5171,0.6895 0.7879,1.6128 0.7879 2.7701c 0.0000,2.7332 -1.3543,3.6812 -2.2530 3.6812ZM 299.7107,344.3447 ZM 300.4124,343.8399 c 0.0000,-0.3570 0.2955,-0.6525 0.6525 -0.6525c 0.3570,-0.0000 0.6525,0.2955 0.6525 0.6525c 0.0000,0.3570 -0.2955,0.6525 -0.6525 0.6525c -0.3570,-0.0000 -0.6525,-0.2955 -0.6525 -0.6525ZM 302.4069,344.3447 ZM 305.1032,337.6594 c -0.5294,-0.0000 -1.3050,0.5171 -1.3050 3.3857c 0.0000,1.0096 0.1847,3.0410 1.2681 3.0410c 0.2093,-0.0000 0.8003,-0.1354 1.0588 -1.0957c 0.1601,-0.5910 0.2462,-1.3297 0.2462 -2.4008c 0.0000,-1.5636 -0.3940,-2.4377 -0.7510 -2.7455c -0.1354,-0.1231 -0.3201,-0.1847 -0.5171 -0.1847ZM 305.1032,337.6594 ZM 305.0539,344.4924 c -1.3173,-0.0000 -2.2038,-1.6867 -2.2038 -3.5704c 0.0000,-2.3023 1.0957,-3.6935 2.2530 -3.6935c 0.5294,-0.0000 1.0588,0.3324 1.4158 0.8126c 0.5171,0.6895 0.7879,1.6128 0.7879 2.7701c 0.0000,2.7332 -1.3543,3.6812 -2.2530 3.6812Z"/></g><g stroke-linejoin="miter" stroke-opacity="0.6" fill-opacity="0.0" stroke="rgb(0,0,0)" stroke-width="1.2373190190091596" fill="rgb(0,0,0)" stroke-linecap="butt" stroke-miterlimit="10.0"><path d="M 301.0342,326.0927 v 7.4239 "/></g><g stroke-linejoin="miter" stroke-opacity="1.0" fill-opacity="0.6" stroke="rgb(0,0,0)" fill-rule="evenodd" stroke-width="0.0" fill="rgb(0,0,0)" stroke-linecap="butt" stroke-miterlimit="10.0"><path d="M 255.2780,344.3447 ZM 258.6514,341.4391 h -2.7824 c -0.1108,-0.0000 -0.1847,-0.0985 -0.1847 -0.2093c 0.0000,-0.1970 0.1601,-0.4555 0.3078 -0.4555h 2.8194 c 0.1231,-0.0000 0.1724,0.1108 0.1724 0.2216c 0.0000,0.1354 -0.1724,0.4432 -0.3324 0.4432ZM 259.3778,344.3447 ZM 262.0740,337.6594 c -0.5294,-0.0000 -1.3050,0.5171 -1.3050 3.3857c 0.0000,1.0096 0.1847,3.0410 1.2681 3.0410c 0.2093,-0.0000 0.8003,-0.1354 1.0588 -1.0957c 0.1601,-0.5910 0.2462,-1.3297 0.2462 -2.4008c 0.0000,-1.5636 -0.3940,-2.4377 -0.7510 -2.7455c -0.1354,-0.1231 -0.3201,-0.1847 -0.5171 -0.1847ZM 262.0740,337.6594 ZM 262.0248,344.4924 c -1.3173,-0.0000 -2.2038,-1.6867 -2.2038 -3.5704c 0.0000,-2.3023 1.0957,-3.6935 2.2530 -3.6935c 0.5294,-0.0000 1.0588,0.3324 1.4158 0.8126c 0.5171,0.6895 0.7879,1.6128 0.7879 2.7701c 0.0000,2.7332 -1.3543,3.6812 -2.2530 3.6812ZM 264.7703,344.3447 ZM 265.4720,343.8399 c 0.0000,-0.3570 0.2955,-0.6525 0.6525 -0.6525c 0.3570,-0.0000 0.6525,0.2955 0.6525 0.6525c 0.0000,0.3570 -0.2955,0.6525 -0.6525 0.6525c -0.3570,-0.0000 -0.6525,-0.2955 -0.6525 -0.6525ZM 267.4665,344.3447 ZM 269.7811,338.4720 c -0.2339,-0.0000 -0.7756,0.2216 -1.0465 0.3447l -0.1477,-0.3817 c 1.0834,-0.5048 1.5020,-0.7633 2.1176 -1.2065h 0.2339 v 6.1928 c 0.0000,0.4432 0.0616,0.5663 0.4678 0.5663h 0.6402 c 0.0369,-0.0000 0.0985,0.0246 0.0985 0.0985v 0.2709 l -1.6867,-0.0246 l -1.7113,0.0246 v -0.2709 c 0.0123,-0.0369 0.0246,-0.0985 0.0985 -0.0985h 0.7387 c 0.4678,-0.0000 0.4678,-0.2093 0.4678 -0.5663v -4.2352 c 0.0000,-0.4186 0.0000,-0.7141 -0.2709 -0.7141Z"/></g><g stroke-linejoin="miter" stroke-opacity="0.6" fill-opacity="0.0" stroke="rgb(0,0,0)" stroke-width="1.2373190190091596" fill="rgb(0,0,0)" stroke-linecap="butt" stroke-miterlimit="10.0"><path d="M 263.9146,326.0927 v 7.4239 "/></g><g stroke-linejoin="miter" stroke-opacity="1.0" fill-opacity="0.6" stroke="rgb(0,0,0)" fill-rule="evenodd" stroke-width="0.0" fill="rgb(0,0,0)" stroke-linecap="butt" stroke-miterlimit="10.0"><path d="M 218.1215,344.3447 ZM 221.4949,341.4391 h -2.7824 c -0.1108,-0.0000 -0.1847,-0.0985 -0.1847 -0.2093c 0.0000,-0.1970 0.1601,-0.4555 0.3078 -0.4555h 2.8194 c 0.1231,-0.0000 0.1724,0.1108 0.1724 0.2216c 0.0000,0.1354 -0.1724,0.4432 -0.3324 0.4432ZM 222.2213,344.3447 ZM 224.9175,337.6594 c -0.5294,-0.0000 -1.3050,0.5171 -1.3050 3.3857c 0.0000,1.0096 0.1847,3.0410 1.2681 3.0410c 0.2093,-0.0000 0.8003,-0.1354 1.0588 -1.0957c 0.1601,-0.5910 0.2462,-1.3297 0.2462 -2.4008c 0.0000,-1.5636 -0.3940,-2.4377 -0.7510 -2.7455c -0.1354,-0.1231 -0.3201,-0.1847 -0.5171 -0.1847ZM 224.9175,337.6594 ZM 224.8683,344.4924 c -1.3173,-0.0000 -2.2038,-1.6867 -2.2038 -3.5704c 0.0000,-2.3023 1.0957,-3.6935 2.2530 -3.6935c 0.5294,-0.0000 1.0588,0.3324 1.4158 0.8126c 0.5171,0.6895 0.7879,1.6128 0.7879 2.7701c 0.0000,2.7332 -1.3543,3.6812 -2.2530 3.6812ZM 227.6138,344.3447 ZM 228.3155,343.8399 c 0.0000,-0.3570 0.2955,-0.6525 0.6525 -0.6525c 0.3570,-0.0000 0.6525,0.2955 0.6525 0.6525c 0.0000,0.3570 -0.2955,0.6525 -0.6525 0.6525c -0.3570,-0.0000 -0.6525,-0.2955 -0.6525 -0.6525ZM 230.3100,344.3447 ZM 231.0241,338.8906 c 0.0000,-0.7018 0.6771,-1.6621 1.9699 -1.6621c 0.9480,-0.0000 2.0560,0.3570 2.0560 1.7729c 0.0000,0.9357 -0.4802,1.4035 -1.1450 2.0437l -1.1696,1.1327 c -0.0616,0.0616 -0.8864,0.8741 -0.8864 1.4528h 2.0930 c 0.4186,-0.0000 0.6402,-0.2093 0.8126 -0.8864l 0.3078,0.0492 l -0.2462,1.5513 h -3.8043 c 0.0000,-0.6895 0.1108,-1.2189 1.2558 -2.3885l 0.8618,-0.8495 c 0.6895,-0.7018 0.9726,-1.3050 0.9726 -2.0560c 0.0000,-1.1204 -0.7633,-1.4405 -1.1819 -1.4405c -0.8495,-0.0000 -1.0834,0.4432 -1.0834 0.7387c 0.0000,0.0985 0.0246,0.1970 0.0492 0.2832c 0.0246,0.0862 0.0492,0.1724 0.0492 0.2709c 0.0000,0.3201 -0.2462,0.4432 -0.4432 0.4432c -0.2709,-0.0000 -0.4678,-0.2093 -0.4678 -0.4555Z"/></g><g stroke-linejoin="miter" stroke-opacity="0.6" fill-opacity="0.0" stroke="rgb(0,0,0)" stroke-width="1.2373190190091596" fill="rgb(0,0,0)" stroke-linecap="butt" stroke-miterlimit="10.0"><path d="M 226.7950,326.0927 v 7.4239 "/></g><g stroke-linejoin="miter" stroke-opacity="1.0" fill-opacity="0.6" stroke="rgb(0,0,0)" fill-rule="evenodd" stroke-width="0.0" fill="rgb(0,0,0)" stroke-linecap="butt" stroke-miterlimit="10.0"><path d="M 180.9527,344.3447 ZM 184.3261,341.4391 h -2.7824 c -0.1108,-0.0000 -0.1847,-0.0985 -0.1847 -0.2093c 0.0000,-0.1970 0.1601,-0.4555 0.3078 -0.4555h 2.8194 c 0.1231,-0.0000 0.1724,0.1108 0.1724 0.2216c 0.0000,0.1354 -0.1724,0.4432 -0.3324 0.4432ZM 185.0524,344.3447 ZM 187.7487,337.6594 c -0.5294,-0.0000 -1.3050,0.5171 -1.3050 3.3857c 0.0000,1.0096 0.1847,3.0410 1.2681 3.0410c 0.2093,-0.0000 0.8003,-0.1354 1.0588 -1.0957c 0.1601,-0.5910 0.2462,-1.3297 0.2462 -2.4008c 0.0000,-1.5636 -0.3940,-2.4377 -0.7510 -2.7455c -0.1354,-0.1231 -0.3201,-0.1847 -0.5171 -0.1847ZM 187.7487,337.6594 ZM 187.6994,344.4924 c -1.3173,-0.0000 -2.2038,-1.6867 -2.2038 -3.5704c 0.0000,-2.3023 1.0957,-3.6935 2.2530 -3.6935c 0.5294,-0.0000 1.0588,0.3324 1.4158 0.8126c 0.5171,0.6895 0.7879,1.6128 0.7879 2.7701c 0.0000,2.7332 -1.3543,3.6812 -2.2530 3.6812ZM 190.4449,344.3447 ZM 191.1467,343.8399 c 0.0000,-0.3570 0.2955,-0.6525 0.6525 -0.6525c 0.3570,-0.0000 0.6525,0.2955 0.6525 0.6525c 0.0000,0.3570 -0.2955,0.6525 -0.6525 0.6525c -0.3570,-0.0000 -0.6525,-0.2955 -0.6525 -0.6525ZM 193.1412,344.3447 ZM 195.8005,337.6102 c -0.3078,-0.0000 -1.2065,0.1724 -1.2065 0.9234c 0.0000,0.2216 -0.0862,0.6033 -0.4186 0.6033c -0.3201,-0.0000 -0.3447,-0.3570 -0.3447 -0.3940c 0.0000,-0.3817 0.5048,-1.5143 2.2161 -1.5143c 1.1942,-0.0000 1.5513,0.7510 1.5513 1.2435c 0.0000,0.3078 -0.0985,0.9234 -1.2065 1.6251c 0.6895,0.1108 1.6005,0.6156 1.6005 1.8960c 0.0000,1.6251 -1.2312,2.4993 -2.6224 2.4993c -0.7018,-0.0000 -1.6867,-0.3078 -1.6867 -0.7756c 0.0000,-0.1847 0.1847,-0.3940 0.4309 -0.3940c 0.2339,-0.0000 0.3447,0.1231 0.4555 0.2832c 0.1354,0.2093 0.3570,0.5048 0.9480 0.5048c 0.4063,-0.0000 1.5636,-0.4063 1.5636 -1.9575c 0.0000,-1.3173 -0.9234,-1.5266 -1.5882 -1.5266c -0.1108,-0.0000 -0.2462,0.0246 -0.3817 0.0492l -0.0492,-0.3693 c 0.9480,-0.1601 1.7359,-1.0834 1.7359 -1.6498c 0.0000,-0.7018 -0.4925,-1.0465 -0.9972 -1.0465Z"/></g><g stroke-linejoin="miter" stroke-opacity="0.6" fill-opacity="0.0" stroke="rgb(0,0,0)" stroke-width="1.2373190190091596" fill="rgb(0,0,0)" stroke-linecap="butt" stroke-miterlimit="10.0"><path d="M 189.6755,326.0927 v 7.4239 "/></g><g stroke-linejoin="miter" stroke-opacity="1.0" fill-opacity="0.6" stroke="rgb(0,0,0)" fill-rule="evenodd" stroke-width="0.0" fill="rgb(0,0,0)" stroke-linecap="butt" stroke-miterlimit="10.0"><path d="M 143.7531,344.3447 ZM 147.1265,341.4391 h -2.7824 c -0.1108,-0.0000 -0.1847,-0.0985 -0.1847 -0.2093c 0.0000,-0.1970 0.1601,-0.4555 0.3078 -0.4555h 2.8194 c 0.1231,-0.0000 0.1724,0.1108 0.1724 0.2216c 0.0000,0.1354 -0.1724,0.4432 -0.3324 0.4432ZM 147.8529,344.3447 ZM 150.5491,337.6594 c -0.5294,-0.0000 -1.3050,0.5171 -1.3050 3.3857c 0.0000,1.0096 0.1847,3.0410 1.2681 3.0410c 0.2093,-0.0000 0.8003,-0.1354 1.0588 -1.0957c 0.1601,-0.5910 0.2462,-1.3297 0.2462 -2.4008c 0.0000,-1.5636 -0.3940,-2.4377 -0.7510 -2.7455c -0.1354,-0.1231 -0.3201,-0.1847 -0.5171 -0.1847ZM 150.5491,337.6594 ZM 150.4999,344.4924 c -1.3173,-0.0000 -2.2038,-1.6867 -2.2038 -3.5704c 0.0000,-2.3023 1.0957,-3.6935 2.2530 -3.6935c 0.5294,-0.0000 1.0588,0.3324 1.4158 0.8126c 0.5171,0.6895 0.7879,1.6128 0.7879 2.7701c 0.0000,2.7332 -1.3543,3.6812 -2.2530 3.6812ZM 153.2453,344.3447 ZM 153.9471,343.8399 c 0.0000,-0.3570 0.2955,-0.6525 0.6525 -0.6525c 0.3570,-0.0000 0.6525,0.2955 0.6525 0.6525c 0.0000,0.3570 -0.2955,0.6525 -0.6525 0.6525c -0.3570,-0.0000 -0.6525,-0.2955 -0.6525 -0.6525ZM 155.9416,344.3447 ZM 159.1180,339.9740 c 0.0000,-0.0862 0.0123,-0.1847 0.1231 -0.2462c 0.1354,-0.0985 0.3570,-0.2093 0.5417 -0.2093c 0.1601,-0.0000 0.1724,0.1354 0.1724 0.3817v 1.9822 h 0.9972 l -0.0739,0.5786 h -0.9234 v 1.0219 c 0.0000,0.3447 0.0492,0.5171 0.4063 0.5171h 0.3324 c 0.0739,-0.0000 0.0862,0.0616 0.0862 0.0862v 0.2709 c 0.0000,-0.0000 -0.7879,-0.0246 -1.3050 -0.0246c -0.4678,-0.0000 -1.1942,0.0246 -1.1942 0.0246v -0.2709 c 0.0000,-0.0246 0.0123,-0.0862 0.0862 -0.0862h 0.3324 c 0.3817,-0.0000 0.4186,-0.1601 0.4186 -0.5171v -1.0219 h -2.4131 c -0.0492,-0.0000 -0.0739,-0.0246 -0.1108 -0.0739l -0.0985,-0.1354 l -0.1477,-0.2585 c -0.0123,-0.0000 -0.0123,-0.0123 -0.0123 -0.0246c 0.0000,-0.0123 0.0123,-0.0246 0.0246 -0.0369c 0.8003,-0.8864 2.2161,-3.6319 2.6593 -4.6415c 0.0123,-0.0492 0.0369,-0.0616 0.0862 -0.0616c 0.0123,-0.0000 0.2832,0.1108 0.4309 0.1354c -0.5540,1.4897 -1.4651,3.0902 -2.3638 4.5184h 1.9452 v -1.9083 Z"/></g><g stroke-linejoin="miter" stroke-opacity="0.6" fill-opacity="0.0" stroke="rgb(0,0,0)" stroke-width="1.2373190190091596" fill="rgb(0,0,0)" stroke-linecap="butt" stroke-miterlimit="10.0"><path d="M 152.5559,326.0927 v 7.4239 "/></g><g stroke-linejoin="miter" stroke-opacity="1.0" fill-opacity="0.6" stroke="rgb(0,0,0)" fill-rule="evenodd" stroke-width="0.0" fill="rgb(0,0,0)" stroke-linecap="butt" stroke-miterlimit="10.0"><path d="M 106.7936,344.3447 ZM 110.1669,341.4391 h -2.7824 c -0.1108,-0.0000 -0.1847,-0.0985 -0.1847 -0.2093c 0.0000,-0.1970 0.1601,-0.4555 0.3078 -0.4555h 2.8194 c 0.1231,-0.0000 0.1724,0.1108 0.1724 0.2216c 0.0000,0.1354 -0.1724,0.4432 -0.3324 0.4432ZM 110.8933,344.3447 ZM 113.5896,337.6594 c -0.5294,-0.0000 -1.3050,0.5171 -1.3050 3.3857c 0.0000,1.0096 0.1847,3.0410 1.2681 3.0410c 0.2093,-0.0000 0.8003,-0.1354 1.0588 -1.0957c 0.1601,-0.5910 0.2462,-1.3297 0.2462 -2.4008c 0.0000,-1.5636 -0.3940,-2.4377 -0.7510 -2.7455c -0.1354,-0.1231 -0.3201,-0.1847 -0.5171 -0.1847ZM 113.5896,337.6594 ZM 113.5403,344.4924 c -1.3173,-0.0000 -2.2038,-1.6867 -2.2038 -3.5704c 0.0000,-2.3023 1.0957,-3.6935 2.2530 -3.6935c 0.5294,-0.0000 1.0588,0.3324 1.4158 0.8126c 0.5171,0.6895 0.7879,1.6128 0.7879 2.7701c 0.0000,2.7332 -1.3543,3.6812 -2.2530 3.6812ZM 116.2858,344.3447 ZM 116.9876,343.8399 c 0.0000,-0.3570 0.2955,-0.6525 0.6525 -0.6525c 0.3570,-0.0000 0.6525,0.2955 0.6525 0.6525c 0.0000,0.3570 -0.2955,0.6525 -0.6525 0.6525c -0.3570,-0.0000 -0.6525,-0.2955 -0.6525 -0.6525ZM 118.9821,344.3447 ZM 122.7864,342.2640 c 0.0000,-1.2681 -0.6895,-1.8960 -1.4528 -1.8960c -0.5663,-0.0000 -0.9972,0.0862 -1.4774 0.2832l 0.3940,-3.3611 c 0.4063,0.0369 0.8249,0.0492 1.2558 0.0492c 0.6156,-0.0000 1.2558,-0.0369 1.9206 -0.1108l 0.0739,0.0369 l -0.1847,0.8003 c -0.4802,0.0492 -0.8741,0.0616 -1.2189 0.0616c -0.5540,-0.0000 -0.9726,-0.0492 -1.4035 -0.0985l -0.2339,1.9452 c 0.2585,-0.0985 0.7018,-0.1847 1.1819 -0.1847c 1.3050,-0.0000 2.0314,1.1327 2.0314 2.2653c 0.0000,1.3789 -0.9603,2.4377 -2.3515 2.4377c -0.7018,-0.0000 -1.7236,-0.3940 -1.7236 -0.8741c 0.0000,-0.2339 0.1970,-0.3940 0.4186 -0.3940c 0.2462,-0.0000 0.4063,0.1847 0.5540 0.3817c 0.1847,0.2216 0.3817,0.4678 0.7756 0.4678c 0.7879,-0.0000 1.4405,-0.7387 1.4405 -1.8098Z"/></g><g stroke-linejoin="miter" stroke-opacity="0.6" fill-opacity="0.0" stroke="rgb(0,0,0)" stroke-width="1.2373190190091596" fill="rgb(0,0,0)" stroke-linecap="butt" stroke-miterlimit="10.0"><path d="M 115.4363,326.0927 v 7.4239 "/></g><g stroke-linejoin="miter" stroke-opacity="0.0" fill-opacity="0.0" stroke="rgb(0,0,0)" stroke-width="0.0" fill="rgb(0,0,0)" stroke-linecap="butt" stroke-miterlimit="10.0"><path d="M 485.5979,326.0927 l -0.0000,-247.4638 h -371.1957 l -0.0000,247.4638 Z"/></g></svg>