<?xml version="1.0" encoding="UTF-8"?>
<!DOCTYPE svg PUBLIC "-//W3C//DTD SVG 1.1//EN"
    "http://www.w3.org/Graphics/SVG/1.1/DTD/svg11.dtd"><svg xmlns="http://www.w3.org/2000/svg" height="400.0000" stroke-opacity="1" viewBox="0 0 600 400" font-size="1" width="600.0000" xmlns:xlink="http://www.w3.org/1999/xlink" stroke="rgb(0,0,0)" version="1.1"><defs></defs><g stroke-linejoin="miter" stroke-opacity="0.0" fill-opacity="0.1" stroke="rgb(0,0,0)" stroke-width="0.0" fill="rgb(0,0,0)" stroke-linecap="butt" stroke-miterlimit="10.0"><path d="M 116.6477,317.3922 l -0.0000,-269.7368 h -5.3947 l -0.0000,269.7368 Z"/></g><g stroke-linejoin="miter" stroke-opacity="1.0" fill-opacity="0.6" stroke="rgb(0,0,0)" fill-rule="evenodd" stroke-width="0.0" fill="rgb(0,0,0)" stroke-linecap="butt" stroke-miterlimit="10.0"><path d="M 90.5799,51.4532 ZM 93.5188,44.1663 c -0.5770,-0.0000 -1.4225,0.5636 -1.4225 3.6904c 0.0000,1.1004 0.2013,3.3147 1.3822 3.3147c 0.2281,-0.0000 0.8723,-0.1476 1.1541 -1.1944c 0.1745,-0.6441 0.2684,-1.4493 0.2684 -2.6168c 0.0000,-1.7043 -0.4294,-2.6571 -0.8186 -2.9926c -0.1476,-0.1342 -0.3489,-0.2013 -0.5636 -0.2013ZM 93.5188,44.1663 ZM 93.4651,51.6142 c -1.4359,-0.0000 -2.4021,-1.8385 -2.4021 -3.8917c 0.0000,-2.5095 1.1944,-4.0259 2.4558 -4.0259c 0.5770,-0.0000 1.1541,0.3623 1.5433 0.8857c 0.5636,0.7515 0.8589,1.7580 0.8589 3.0194c 0.0000,2.9792 -1.4762,4.0125 -2.4558 4.0125ZM 96.4577,51.4532 ZM 97.2227,50.9030 c 0.0000,-0.3892 0.3221,-0.7112 0.7112 -0.7112c 0.3892,-0.0000 0.7112,0.3221 0.7112 0.7112c 0.0000,0.3892 -0.3221,0.7112 -0.7112 0.7112c -0.3892,-0.0000 -0.7112,-0.3221 -0.7112 -0.7112ZM 99.3967,51.4532 ZM 103.5434,49.1853 c 0.0000,-1.3822 -0.7515,-2.0666 -1.5835 -2.0666c -0.6173,-0.0000 -1.0870,0.0939 -1.6104 0.3087l 0.4294,-3.6636 c 0.4429,0.0403 0.8991,0.0537 1.3688 0.0537c 0.6710,-0.0000 1.3688,-0.0403 2.0935 -0.1208l 0.0805,0.0403 l -0.2013,0.8723 c -0.5234,0.0537 -0.9528,0.0671 -1.3286 0.0671c -0.6039,-0.0000 -1.0602,-0.0537 -1.5299 -0.1074l -0.2550,2.1203 c 0.2818,-0.1074 0.7649,-0.2013 1.2883 -0.2013c 1.4225,-0.0000 2.2143,1.2346 2.2143 2.4692c 0.0000,1.5030 -1.0467,2.6571 -2.5632 2.6571c -0.7649,-0.0000 -1.8788,-0.4294 -1.8788 -0.9528c 0.0000,-0.2550 0.2147,-0.4294 0.4563 -0.4294c 0.2684,-0.0000 0.4429,0.2013 0.6039 0.4160c 0.2013,0.2416 0.4160,0.5100 0.8454 0.5100c 0.8589,-0.0000 1.5701,-0.8052 1.5701 -1.9727Z"/></g><g stroke-linejoin="miter" stroke-opacity="0.6" fill-opacity="0.0" stroke="rgb(0,0,0)" stroke-width="1.3486840265934543" fill="rgb(0,0,0)" stroke-linecap="butt" stroke-miterlimit="10.0"><path d="M 108.5556,47.6554 h 8.0921 "/></g><g stroke-linejoin="miter" stroke-opacity="1.0" fill-opacity="0.6" stroke="rgb(0,0,0)" fill-rule="evenodd" stroke-width="0.0" fill="rgb(0,0,0)" stroke-linecap="butt" stroke-miterlimit="10.0"><path d="M 90.2310,78.4269 ZM 93.1699,71.1400 c -0.5770,-0.0000 -1.4225,0.5636 -1.4225 3.6904c 0.0000,1.1004 0.2013,3.3147 1.3822 3.3147c 0.2281,-0.0000 0.8723,-0.1476 1.1541 -1.1944c 0.1745,-0.6441 0.2684,-1.4493 0.2684 -2.6168c 0.0000,-1.7043 -0.4294,-2.6571 -0.8186 -2.9926c -0.1476,-0.1342 -0.3489,-0.2013 -0.5636 -0.2013ZM 93.1699,71.1400 ZM 93.1162,78.5879 c -1.4359,-0.0000 -2.4021,-1.8385 -2.4021 -3.8917c 0.0000,-2.5095 1.1944,-4.0259 2.4558 -4.0259c 0.5770,-0.0000 1.1541,0.3623 1.5433 0.8857c 0.5636,0.7515 0.8589,1.7580 0.8589 3.0194c 0.0000,2.9792 -1.4762,4.0125 -2.4558 4.0125ZM 96.1088,78.4269 ZM 96.8738,77.8767 c 0.0000,-0.3892 0.3221,-0.7112 0.7112 -0.7112c 0.3892,-0.0000 0.7112,0.3221 0.7112 0.7112c 0.0000,0.3892 -0.3221,0.7112 -0.7112 0.7112c -0.3892,-0.0000 -0.7112,-0.3221 -0.7112 -0.7112ZM 99.0478,78.4269 ZM 102.5101,73.6629 c 0.0000,-0.0939 0.0134,-0.2013 0.1342 -0.2684c 0.1476,-0.1074 0.3892,-0.2281 0.5905 -0.2281c 0.1745,-0.0000 0.1879,0.1476 0.1879 0.4160v 2.1606 h 1.0870 l -0.0805,0.6307 h -1.0065 v 1.1138 c 0.0000,0.3758 0.0537,0.5636 0.4429 0.5636h 0.3623 c 0.0805,-0.0000 0.0939,0.0671 0.0939 0.0939v 0.2952 c 0.0000,-0.0000 -0.8589,-0.0268 -1.4225 -0.0268c -0.5100,-0.0000 -1.3017,0.0268 -1.3017 0.0268v -0.2952 c 0.0000,-0.0268 0.0134,-0.0939 0.0939 -0.0939h 0.3623 c 0.4160,-0.0000 0.4563,-0.1745 0.4563 -0.5636v -1.1138 h -2.6303 c -0.0537,-0.0000 -0.0805,-0.0268 -0.1208 -0.0805l -0.1074,-0.1476 l -0.1610,-0.2818 c -0.0134,-0.0000 -0.0134,-0.0134 -0.0134 -0.0268c 0.0000,-0.0134 0.0134,-0.0268 0.0268 -0.0403c 0.8723,-0.9662 2.4156,-3.9588 2.8987 -5.0592c 0.0134,-0.0537 0.0403,-0.0671 0.0939 -0.0671c 0.0134,-0.0000 0.3087,0.1208 0.4697 0.1476c -0.6039,1.6238 -1.5969,3.3684 -2.5766 4.9250h 2.1203 v -2.0801 Z"/></g><g stroke-linejoin="miter" stroke-opacity="0.6" fill-opacity="0.0" stroke="rgb(0,0,0)" stroke-width="1.3486840265934543" fill="rgb(0,0,0)" stroke-linecap="butt" stroke-miterlimit="10.0"><path d="M 108.5556,74.6291 h 8.0921 "/></g><g stroke-linejoin="miter" stroke-opacity="1.0" fill-opacity="0.6" stroke="rgb(0,0,0)" fill-rule="evenodd" stroke-width="0.0" fill="rgb(0,0,0)" stroke-linecap="butt" stroke-miterlimit="10.0"><path d="M 90.4054,105.4006 ZM 93.3444,98.1136 c -0.5770,-0.0000 -1.4225,0.5636 -1.4225 3.6904c 0.0000,1.1004 0.2013,3.3147 1.3822 3.3147c 0.2281,-0.0000 0.8723,-0.1476 1.1541 -1.1944c 0.1745,-0.6441 0.2684,-1.4493 0.2684 -2.6168c 0.0000,-1.7043 -0.4294,-2.6571 -0.8186 -2.9926c -0.1476,-0.1342 -0.3489,-0.2013 -0.5636 -0.2013ZM 93.3444,98.1136 ZM 93.2907,105.5616 c -1.4359,-0.0000 -2.4021,-1.8385 -2.4021 -3.8917c 0.0000,-2.5095 1.1944,-4.0259 2.4558 -4.0259c 0.5770,-0.0000 1.1541,0.3623 1.5433 0.8857c 0.5636,0.7515 0.8589,1.7580 0.8589 3.0194c 0.0000,2.9792 -1.4762,4.0125 -2.4558 4.0125ZM 96.2833,105.4006 ZM 97.0482,104.8503 c 0.0000,-0.3892 0.3221,-0.7112 0.7112 -0.7112c 0.3892,-0.0000 0.7112,0.3221 0.7112 0.7112c 0.0000,0.3892 -0.3221,0.7112 -0.7112 0.7112c -0.3892,-0.0000 -0.7112,-0.3221 -0.7112 -0.7112ZM 99.2222,105.4006 ZM 102.1209,98.0600 c -0.3355,-0.0000 -1.3151,0.1879 -1.3151 1.0065c 0.0000,0.2416 -0.0939,0.6576 -0.4563 0.6576c -0.3489,-0.0000 -0.3758,-0.3892 -0.3758 -0.4294c 0.0000,-0.4160 0.5502,-1.6506 2.4156 -1.6506c 1.3017,-0.0000 1.6909,0.8186 1.6909 1.3554c 0.0000,0.3355 -0.1074,1.0065 -1.3151 1.7714c 0.7515,0.1208 1.7446,0.6710 1.7446 2.0666c 0.0000,1.7714 -1.3420,2.7242 -2.8584 2.7242c -0.7649,-0.0000 -1.8385,-0.3355 -1.8385 -0.8454c 0.0000,-0.2013 0.2013,-0.4294 0.4697 -0.4294c 0.2550,-0.0000 0.3758,0.1342 0.4965 0.3087c 0.1476,0.2281 0.3892,0.5502 1.0333 0.5502c 0.4429,-0.0000 1.7043,-0.4429 1.7043 -2.1337c 0.0000,-1.4359 -1.0065,-1.6640 -1.7311 -1.6640c -0.1208,-0.0000 -0.2684,0.0268 -0.4160 0.0537l -0.0537,-0.4026 c 1.0333,-0.1745 1.8922,-1.1809 1.8922 -1.7982c 0.0000,-0.7649 -0.5368,-1.1407 -1.0870 -1.1407Z"/></g><g stroke-linejoin="miter" stroke-opacity="0.6" fill-opacity="0.0" stroke="rgb(0,0,0)" stroke-width="1.3486840265934543" fill="rgb(0,0,0)" stroke-linecap="butt" stroke-miterlimit="10.0"><path d="M 108.5556,101.6028 h 8.0921 "/></g><g stroke-linejoin="miter" stroke-opacity="1.0" fill-opacity="0.6" stroke="rgb(0,0,0)" fill-rule="evenodd" stroke-width="0.0" fill="rgb(0,0,0)" stroke-linecap="butt" stroke-miterlimit="10.0"><path d="M 90.5128,132.3742 ZM 93.4517,125.0873 c -0.5770,-0.0000 -1.4225,0.5636 -1.4225 3.6904c 0.0000,1.1004 0.2013,3.3147 1.3822 3.3147c 0.2281,-0.0000 0.8723,-0.1476 1.1541 -1.1944c 0.1745,-0.6441 0.2684,-1.4493 0.2684 -2.6168c 0.0000,-1.7043 -0.4294,-2.6571 -0.8186 -2.9926c -0.1476,-0.1342 -0.3489,-0.2013 -0.5636 -0.2013ZM 93.4517,125.0873 ZM 93.3980,132.5353 c -1.4359,-0.0000 -2.4021,-1.8385 -2.4021 -3.8917c 0.0000,-2.5095 1.1944,-4.0259 2.4558 -4.0259c 0.5770,-0.0000 1.1541,0.3623 1.5433 0.8857c 0.5636,0.7515 0.8589,1.7580 0.8589 3.0194c 0.0000,2.9792 -1.4762,4.0125 -2.4558 4.0125ZM 96.3906,132.3742 ZM 97.1556,131.8240 c 0.0000,-0.3892 0.3221,-0.7112 0.7112 -0.7112c 0.3892,-0.0000 0.7112,0.3221 0.7112 0.7112c 0.0000,0.3892 -0.3221,0.7112 -0.7112 0.7112c -0.3892,-0.0000 -0.7112,-0.3221 -0.7112 -0.7112ZM 99.3296,132.3742 ZM 100.1079,126.4293 c 0.0000,-0.7649 0.7381,-1.8117 2.1472 -1.8117c 1.0333,-0.0000 2.2411,0.3892 2.2411 1.9324c 0.0000,1.0199 -0.5234,1.5299 -1.2480 2.2277l -1.2749,1.2346 c -0.0671,0.0671 -0.9662,0.9528 -0.9662 1.5835h 2.2814 c 0.4563,-0.0000 0.6978,-0.2281 0.8857 -0.9662l 0.3355,0.0537 l -0.2684,1.6909 h -4.1467 c 0.0000,-0.7515 0.1208,-1.3286 1.3688 -2.6034l 0.9394,-0.9260 c 0.7515,-0.7649 1.0602,-1.4225 1.0602 -2.2411c 0.0000,-1.2212 -0.8320,-1.5701 -1.2883 -1.5701c -0.9260,-0.0000 -1.1809,0.4831 -1.1809 0.8052c 0.0000,0.1074 0.0268,0.2147 0.0537 0.3087c 0.0268,0.0939 0.0537,0.1879 0.0537 0.2952c 0.0000,0.3489 -0.2684,0.4831 -0.4831 0.4831c -0.2952,-0.0000 -0.5100,-0.2281 -0.5100 -0.4965Z"/></g><g stroke-linejoin="miter" stroke-opacity="0.6" fill-opacity="0.0" stroke="rgb(0,0,0)" stroke-width="1.3486840265934543" fill="rgb(0,0,0)" stroke-linecap="butt" stroke-miterlimit="10.0"><path d="M 108.5556,128.5764 h 8.0921 "/></g><g stroke-linejoin="miter" stroke-opacity="1.0" fill-opacity="0.6" stroke="rgb(0,0,0)" fill-rule="evenodd" stroke-width="0.0" fill="rgb(0,0,0)" stroke-linecap="butt" stroke-miterlimit="10.0"><path d="M 90.5933,159.3479 ZM 93.5322,152.0610 c -0.5770,-0.0000 -1.4225,0.5636 -1.4225 3.6904c 0.0000,1.1004 0.2013,3.3147 1.3822 3.3147c 0.2281,-0.0000 0.8723,-0.1476 1.1541 -1.1944c 0.1745,-0.6441 0.2684,-1.4493 0.2684 -2.6168c 0.0000,-1.7043 -0.4294,-2.6571 -0.8186 -2.9926c -0.1476,-0.1342 -0.3489,-0.2013 -0.5636 -0.2013ZM 93.5322,152.0610 ZM 93.4786,159.5089 c -1.4359,-0.0000 -2.4021,-1.8385 -2.4021 -3.8917c 0.0000,-2.5095 1.1944,-4.0259 2.4558 -4.0259c 0.5770,-0.0000 1.1541,0.3623 1.5433 0.8857c 0.5636,0.7515 0.8589,1.7580 0.8589 3.0194c 0.0000,2.9792 -1.4762,4.0125 -2.4558 4.0125ZM 96.4712,159.3479 ZM 97.2361,158.7977 c 0.0000,-0.3892 0.3221,-0.7112 0.7112 -0.7112c 0.3892,-0.0000 0.7112,0.3221 0.7112 0.7112c 0.0000,0.3892 -0.3221,0.7112 -0.7112 0.7112c -0.3892,-0.0000 -0.7112,-0.3221 -0.7112 -0.7112ZM 99.4101,159.3479 ZM 101.9330,152.9467 c -0.2550,-0.0000 -0.8454,0.2416 -1.1407 0.3758l -0.1610,-0.4160 c 1.1809,-0.5502 1.6372,-0.8320 2.3082 -1.3151h 0.2550 v 6.7501 c 0.0000,0.4831 0.0671,0.6173 0.5100 0.6173h 0.6978 c 0.0403,-0.0000 0.1074,0.0268 0.1074 0.1074v 0.2952 l -1.8385,-0.0268 l -1.8653,0.0268 v -0.2952 c 0.0134,-0.0403 0.0268,-0.1074 0.1074 -0.1074h 0.8052 c 0.5100,-0.0000 0.5100,-0.2281 0.5100 -0.6173v -4.6164 c 0.0000,-0.4563 0.0000,-0.7783 -0.2952 -0.7783Z"/></g><g stroke-linejoin="miter" stroke-opacity="0.6" fill-opacity="0.0" stroke="rgb(0,0,0)" stroke-width="1.3486840265934543" fill="rgb(0,0,0)" stroke-linecap="butt" stroke-miterlimit="10.0"><path d="M 108.5556,155.5501 h 8.0921 "/></g><g stroke-linejoin="miter" stroke-opacity="1.0" fill-opacity="0.6" stroke="rgb(0,0,0)" fill-rule="evenodd" stroke-width="0.0" fill="rgb(0,0,0)" stroke-linecap="butt" stroke-miterlimit="10.0"><path d="M 90.3518,186.3216 ZM 93.2907,179.0347 c -0.5770,-0.0000 -1.4225,0.5636 -1.4225 3.6904c 0.0000,1.1004 0.2013,3.3147 1.3822 3.3147c 0.2281,-0.0000 0.8723,-0.1476 1.1541 -1.1944c 0.1745,-0.6441 0.2684,-1.4493 0.2684 -2.6168c 0.0000,-1.7043 -0.4294,-2.6571 -0.8186 -2.9926c -0.1476,-0.1342 -0.3489,-0.2013 -0.5636 -0.2013ZM 93.2907,179.0347 ZM 93.2370,186.4826 c -1.4359,-0.0000 -2.4021,-1.8385 -2.4021 -3.8917c 0.0000,-2.5095 1.1944,-4.0259 2.4558 -4.0259c 0.5770,-0.0000 1.1541,0.3623 1.5433 0.8857c 0.5636,0.7515 0.8589,1.7580 0.8589 3.0194c 0.0000,2.9792 -1.4762,4.0125 -2.4558 4.0125ZM 96.2296,186.3216 ZM 96.9945,185.7714 c 0.0000,-0.3892 0.3221,-0.7112 0.7112 -0.7112c 0.3892,-0.0000 0.7112,0.3221 0.7112 0.7112c 0.0000,0.3892 -0.3221,0.7112 -0.7112 0.7112c -0.3892,-0.0000 -0.7112,-0.3221 -0.7112 -0.7112ZM 99.1685,186.3216 ZM 102.1075,179.0347 c -0.5770,-0.0000 -1.4225,0.5636 -1.4225 3.6904c 0.0000,1.1004 0.2013,3.3147 1.3822 3.3147c 0.2281,-0.0000 0.8723,-0.1476 1.1541 -1.1944c 0.1745,-0.6441 0.2684,-1.4493 0.2684 -2.6168c 0.0000,-1.7043 -0.4294,-2.6571 -0.8186 -2.9926c -0.1476,-0.1342 -0.3489,-0.2013 -0.5636 -0.2013ZM 102.1075,179.0347 ZM 102.0538,186.4826 c -1.4359,-0.0000 -2.4021,-1.8385 -2.4021 -3.8917c 0.0000,-2.5095 1.1944,-4.0259 2.4558 -4.0259c 0.5770,-0.0000 1.1541,0.3623 1.5433 0.8857c 0.5636,0.7515 0.8589,1.7580 0.8589 3.0194c 0.0000,2.9792 -1.4762,4.0125 -2.4558 4.0125Z"/></g><g stroke-linejoin="miter" stroke-opacity="0.6" fill-opacity="0.0" stroke="rgb(0,0,0)" stroke-width="1.3486840265934543" fill="rgb(0,0,0)" stroke-linecap="butt" stroke-miterlimit="10.0"><path d="M 108.5556,182.5238 h 8.0921 "/></g><g stroke-linejoin="miter" stroke-opacity="1.0" fill-opacity="0.6" stroke="rgb(0,0,0)" fill-rule="evenodd" stroke-width="0.0" fill="rgb(0,0,0)" stroke-linecap="butt" stroke-miterlimit="10.0"><path d="M 86.1245,213.2953 ZM 89.8016,210.1282 h -3.0329 c -0.1208,-0.0000 -0.2013,-0.1074 -0.2013 -0.2281c 0.0000,-0.2147 0.1745,-0.4965 0.3355 -0.4965h 3.0731 c 0.1342,-0.0000 0.1879,0.1208 0.1879 0.2416c 0.0000,0.1476 -0.1879,0.4831 -0.3623 0.4831ZM 90.5933,213.2953 ZM 93.5322,206.0084 c -0.5770,-0.0000 -1.4225,0.5636 -1.4225 3.6904c 0.0000,1.1004 0.2013,3.3147 1.3822 3.3147c 0.2281,-0.0000 0.8723,-0.1476 1.1541 -1.1944c 0.1745,-0.6441 0.2684,-1.4493 0.2684 -2.6168c 0.0000,-1.7043 -0.4294,-2.6571 -0.8186 -2.9926c -0.1476,-0.1342 -0.3489,-0.2013 -0.5636 -0.2013ZM 93.5322,206.0084 ZM 93.4786,213.4563 c -1.4359,-0.0000 -2.4021,-1.8385 -2.4021 -3.8917c 0.0000,-2.5095 1.1944,-4.0259 2.4558 -4.0259c 0.5770,-0.0000 1.1541,0.3623 1.5433 0.8857c 0.5636,0.7515 0.8589,1.7580 0.8589 3.0194c 0.0000,2.9792 -1.4762,4.0125 -2.4558 4.0125ZM 96.4712,213.2953 ZM 97.2361,212.7451 c 0.0000,-0.3892 0.3221,-0.7112 0.7112 -0.7112c 0.3892,-0.0000 0.7112,0.3221 0.7112 0.7112c 0.0000,0.3892 -0.3221,0.7112 -0.7112 0.7112c -0.3892,-0.0000 -0.7112,-0.3221 -0.7112 -0.7112ZM 99.4101,213.2953 ZM 101.9330,206.8941 c -0.2550,-0.0000 -0.8454,0.2416 -1.1407 0.3758l -0.1610,-0.4160 c 1.1809,-0.5502 1.6372,-0.8320 2.3082 -1.3151h 0.2550 v 6.7501 c 0.0000,0.4831 0.0671,0.6173 0.5100 0.6173h 0.6978 c 0.0403,-0.0000 0.1074,0.0268 0.1074 0.1074v 0.2952 l -1.8385,-0.0268 l -1.8653,0.0268 v -0.2952 c 0.0134,-0.0403 0.0268,-0.1074 0.1074 -0.1074h 0.8052 c 0.5100,-0.0000 0.5100,-0.2281 0.5100 -0.6173v -4.6164 c 0.0000,-0.4563 0.0000,-0.7783 -0.2952 -0.7783Z"/></g><g stroke-linejoin="miter" stroke-opacity="0.6" fill-opacity="0.0" stroke="rgb(0,0,0)" stroke-width="1.3486840265934543" fill="rgb(0,0,0)" stroke-linecap="butt" stroke-miterlimit="10.0"><path d="M 108.5556,209.4975 h 8.0921 "/></g><g stroke-linejoin="miter" stroke-opacity="1.0" fill-opacity="0.6" stroke="rgb(0,0,0)" fill-rule="evenodd" stroke-width="0.0" fill="rgb(0,0,0)" stroke-linecap="butt" stroke-miterlimit="10.0"><path d="M 86.0440,240.2690 ZM 89.7210,237.1019 h -3.0329 c -0.1208,-0.0000 -0.2013,-0.1074 -0.2013 -0.2281c 0.0000,-0.2147 0.1745,-0.4965 0.3355 -0.4965h 3.0731 c 0.1342,-0.0000 0.1879,0.1208 0.1879 0.2416c 0.0000,0.1476 -0.1879,0.4831 -0.3623 0.4831ZM 90.5128,240.2690 ZM 93.4517,232.9820 c -0.5770,-0.0000 -1.4225,0.5636 -1.4225 3.6904c 0.0000,1.1004 0.2013,3.3147 1.3822 3.3147c 0.2281,-0.0000 0.8723,-0.1476 1.1541 -1.1944c 0.1745,-0.6441 0.2684,-1.4493 0.2684 -2.6168c 0.0000,-1.7043 -0.4294,-2.6571 -0.8186 -2.9926c -0.1476,-0.1342 -0.3489,-0.2013 -0.5636 -0.2013ZM 93.4517,232.9820 ZM 93.3980,240.4300 c -1.4359,-0.0000 -2.4021,-1.8385 -2.4021 -3.8917c 0.0000,-2.5095 1.1944,-4.0259 2.4558 -4.0259c 0.5770,-0.0000 1.1541,0.3623 1.5433 0.8857c 0.5636,0.7515 0.8589,1.7580 0.8589 3.0194c 0.0000,2.9792 -1.4762,4.0125 -2.4558 4.0125ZM 96.3906,240.2690 ZM 97.1556,239.7187 c 0.0000,-0.3892 0.3221,-0.7112 0.7112 -0.7112c 0.3892,-0.0000 0.7112,0.3221 0.7112 0.7112c 0.0000,0.3892 -0.3221,0.7112 -0.7112 0.7112c -0.3892,-0.0000 -0.7112,-0.3221 -0.7112 -0.7112ZM 99.3296,240.2690 ZM 100.1079,234.3240 c 0.0000,-0.7649 0.7381,-1.8117 2.1472 -1.8117c 1.0333,-0.0000 2.2411,0.3892 2.2411 1.9324c 0.0000,1.0199 -0.5234,1.5299 -1.2480 2.2277l -1.2749,1.2346 c -0.0671,0.0671 -0.9662,0.9528 -0.9662 1.5835h 2.2814 c 0.4563,-0.0000 0.6978,-0.2281 0.8857 -0.9662l 0.3355,0.0537 l -0.2684,1.6909 h -4.1467 c 0.0000,-0.7515 0.1208,-1.3286 1.3688 -2.6034l 0.9394,-0.9260 c 0.7515,-0.7649 1.0602,-1.4225 1.0602 -2.2411c 0.0000,-1.2212 -0.8320,-1.5701 -1.2883 -1.5701c -0.9260,-0.0000 -1.1809,0.4831 -1.1809 0.8052c 0.0000,0.1074 0.0268,0.2147 0.0537 0.3087c 0.0268,0.0939 0.0537,0.1879 0.0537 0.2952c 0.0000,0.3489 -0.2684,0.4831 -0.4831 0.4831c -0.2952,-0.0000 -0.5100,-0.2281 -0.5100 -0.4965Z"/></g><g stroke-linejoin="miter" stroke-opacity="0.6" fill-opacity="0.0" stroke="rgb(0,0,0)" stroke-width="1.3486840265934543" fill="rgb(0,0,0)" stroke-linecap="butt" stroke-miterlimit="10.0"><path d="M 108.5556,236.4712 h 8.0921 "/></g><g stroke-linejoin="miter" stroke-opacity="1.0" fill-opacity="0.6" stroke="rgb(0,0,0)" fill-rule="evenodd" stroke-width="0.0" fill="rgb(0,0,0)" stroke-linecap="butt" stroke-miterlimit="10.0"><path d="M 85.9367,267.2426 ZM 89.6137,264.0756 h -3.0329 c -0.1208,-0.0000 -0.2013,-0.1074 -0.2013 -0.2281c 0.0000,-0.2147 0.1745,-0.4965 0.3355 -0.4965h 3.0731 c 0.1342,-0.0000 0.1879,0.1208 0.1879 0.2416c 0.0000,0.1476 -0.1879,0.4831 -0.3623 0.4831ZM 90.4054,267.2426 ZM 93.3444,259.9557 c -0.5770,-0.0000 -1.4225,0.5636 -1.4225 3.6904c 0.0000,1.1004 0.2013,3.3147 1.3822 3.3147c 0.2281,-0.0000 0.8723,-0.1476 1.1541 -1.1944c 0.1745,-0.6441 0.2684,-1.4493 0.2684 -2.6168c 0.0000,-1.7043 -0.4294,-2.6571 -0.8186 -2.9926c -0.1476,-0.1342 -0.3489,-0.2013 -0.5636 -0.2013ZM 93.3444,259.9557 ZM 93.2907,267.4037 c -1.4359,-0.0000 -2.4021,-1.8385 -2.4021 -3.8917c 0.0000,-2.5095 1.1944,-4.0259 2.4558 -4.0259c 0.5770,-0.0000 1.1541,0.3623 1.5433 0.8857c 0.5636,0.7515 0.8589,1.7580 0.8589 3.0194c 0.0000,2.9792 -1.4762,4.0125 -2.4558 4.0125ZM 96.2833,267.2426 ZM 97.0482,266.6924 c 0.0000,-0.3892 0.3221,-0.7112 0.7112 -0.7112c 0.3892,-0.0000 0.7112,0.3221 0.7112 0.7112c 0.0000,0.3892 -0.3221,0.7112 -0.7112 0.7112c -0.3892,-0.0000 -0.7112,-0.3221 -0.7112 -0.7112ZM 99.2222,267.2426 ZM 102.1209,259.9020 c -0.3355,-0.0000 -1.3151,0.1879 -1.3151 1.0065c 0.0000,0.2416 -0.0939,0.6576 -0.4563 0.6576c -0.3489,-0.0000 -0.3758,-0.3892 -0.3758 -0.4294c 0.0000,-0.4160 0.5502,-1.6506 2.4156 -1.6506c 1.3017,-0.0000 1.6909,0.8186 1.6909 1.3554c 0.0000,0.3355 -0.1074,1.0065 -1.3151 1.7714c 0.7515,0.1208 1.7446,0.6710 1.7446 2.0666c 0.0000,1.7714 -1.3420,2.7242 -2.8584 2.7242c -0.7649,-0.0000 -1.8385,-0.3355 -1.8385 -0.8454c 0.0000,-0.2013 0.2013,-0.4294 0.4697 -0.4294c 0.2550,-0.0000 0.3758,0.1342 0.4965 0.3087c 0.1476,0.2281 0.3892,0.5502 1.0333 0.5502c 0.4429,-0.0000 1.7043,-0.4429 1.7043 -2.1337c 0.0000,-1.4359 -1.0065,-1.6640 -1.7311 -1.6640c -0.1208,-0.0000 -0.2684,0.0268 -0.4160 0.0537l -0.0537,-0.4026 c 1.0333,-0.1745 1.8922,-1.1809 1.8922 -1.7982c 0.0000,-0.7649 -0.5368,-1.1407 -1.0870 -1.1407Z"/></g><g stroke-linejoin="miter" stroke-opacity="0.6" fill-opacity="0.0" stroke="rgb(0,0,0)" stroke-width="1.3486840265934543" fill="rgb(0,0,0)" stroke-linecap="butt" stroke-miterlimit="10.0"><path d="M 108.5556,263.4448 h 8.0921 "/></g><g stroke-linejoin="miter" stroke-opacity="1.0" fill-opacity="0.6" stroke="rgb(0,0,0)" fill-rule="evenodd" stroke-width="0.0" fill="rgb(0,0,0)" stroke-linecap="butt" stroke-miterlimit="10.0"><path d="M 85.7622,294.2163 ZM 89.4392,291.0493 h -3.0329 c -0.1208,-0.0000 -0.2013,-0.1074 -0.2013 -0.2281c 0.0000,-0.2147 0.1745,-0.4965 0.3355 -0.4965h 3.0731 c 0.1342,-0.0000 0.1879,0.1208 0.1879 0.2416c 0.0000,0.1476 -0.1879,0.4831 -0.3623 0.4831ZM 90.2310,294.2163 ZM 93.1699,286.9294 c -0.5770,-0.0000 -1.4225,0.5636 -1.4225 3.6904c 0.0000,1.1004 0.2013,3.3147 1.3822 3.3147c 0.2281,-0.0000 0.8723,-0.1476 1.1541 -1.1944c 0.1745,-0.6441 0.2684,-1.4493 0.2684 -2.6168c 0.0000,-1.7043 -0.4294,-2.6571 -0.8186 -2.9926c -0.1476,-0.1342 -0.3489,-0.2013 -0.5636 -0.2013ZM 93.1699,286.9294 ZM 93.1162,294.3774 c -1.4359,-0.0000 -2.4021,-1.8385 -2.4021 -3.8917c 0.0000,-2.5095 1.1944,-4.0259 2.4558 -4.0259c 0.5770,-0.0000 1.1541,0.3623 1.5433 0.8857c 0.5636,0.7515 0.8589,1.7580 0.8589 3.0194c 0.0000,2.9792 -1.4762,4.0125 -2.4558 4.0125ZM 96.1088,294.2163 ZM 96.8738,293.6661 c 0.0000,-0.3892 0.3221,-0.7112 0.7112 -0.7112c 0.3892,-0.0000 0.7112,0.3221 0.7112 0.7112c 0.0000,0.3892 -0.3221,0.7112 -0.7112 0.7112c -0.3892,-0.0000 -0.7112,-0.3221 -0.7112 -0.7112ZM 99.0478,294.2163 ZM 102.5101,289.4523 c 0.0000,-0.0939 0.0134,-0.2013 0.1342 -0.2684c 0.1476,-0.1074 0.3892,-0.2281 0.5905 -0.2281c 0.1745,-0.0000 0.1879,0.1476 0.1879 0.4160v 2.1606 h 1.0870 l -0.0805,0.6307 h -1.0065 v 1.1138 c 0.0000,0.3758 0.0537,0.5636 0.4429 0.5636h 0.3623 c 0.0805,-0.0000 0.0939,0.0671 0.0939 0.0939v 0.2952 c 0.0000,-0.0000 -0.8589,-0.0268 -1.4225 -0.0268c -0.5100,-0.0000 -1.3017,0.0268 -1.3017 0.0268v -0.2952 c 0.0000,-0.0268 0.0134,-0.0939 0.0939 -0.0939h 0.3623 c 0.4160,-0.0000 0.4563,-0.1745 0.4563 -0.5636v -1.1138 h -2.6303 c -0.0537,-0.0000 -0.0805,-0.0268 -0.1208 -0.0805l -0.1074,-0.1476 l -0.1610,-0.2818 c -0.0134,-0.0000 -0.0134,-0.0134 -0.0134 -0.0268c 0.0000,-0.0134 0.0134,-0.0268 0.0268 -0.0403c 0.8723,-0.9662 2.4156,-3.9588 2.8987 -5.0592c 0.0134,-0.0537 0.0403,-0.0671 0.0939 -0.0671c 0.0134,-0.0000 0.3087,0.1208 0.4697 0.1476c -0.6039,1.6238 -1.5969,3.3684 -2.5766 4.9250h 2.1203 v -2.0801 Z"/></g><g stroke-linejoin="miter" stroke-opacity="0.6" fill-opacity="0.0" stroke="rgb(0,0,0)" stroke-width="1.3486840265934543" fill="rgb(0,0,0)" stroke-linecap="butt" stroke-miterlimit="10.0"><path d="M 108.5556,290.4185 h 8.0921 "/></g><g stroke-linejoin="miter" stroke-opacity="1.0" fill-opacity="0.6" stroke="rgb(0,0,0)" fill-rule="evenodd" stroke-width="0.0" fill="rgb(0,0,0)" stroke-linecap="butt" stroke-miterlimit="10.0"><path d="M 86.1111,321.1900 ZM 89.7881,318.0229 h -3.0329 c -0.1208,-0.0000 -0.2013,-0.1074 -0.2013 -0.2281c 0.0000,-0.2147 0.1745,-0.4965 0.3355 -0.4965h 3.0731 c 0.1342,-0.0000 0.1879,0.1208 0.1879 0.2416c 0.0000,0.1476 -0.1879,0.4831 -0.3623 0.4831ZM 90.5799,321.1900 ZM 93.5188,313.9031 c -0.5770,-0.0000 -1.4225,0.5636 -1.4225 3.6904c 0.0000,1.1004 0.2013,3.3147 1.3822 3.3147c 0.2281,-0.0000 0.8723,-0.1476 1.1541 -1.1944c 0.1745,-0.6441 0.2684,-1.4493 0.2684 -2.6168c 0.0000,-1.7043 -0.4294,-2.6571 -0.8186 -2.9926c -0.1476,-0.1342 -0.3489,-0.2013 -0.5636 -0.2013ZM 93.5188,313.9031 ZM 93.4651,321.3510 c -1.4359,-0.0000 -2.4021,-1.8385 -2.4021 -3.8917c 0.0000,-2.5095 1.1944,-4.0259 2.4558 -4.0259c 0.5770,-0.0000 1.1541,0.3623 1.5433 0.8857c 0.5636,0.7515 0.8589,1.7580 0.8589 3.0194c 0.0000,2.9792 -1.4762,4.0125 -2.4558 4.0125ZM 96.4577,321.1900 ZM 97.2227,320.6398 c 0.0000,-0.3892 0.3221,-0.7112 0.7112 -0.7112c 0.3892,-0.0000 0.7112,0.3221 0.7112 0.7112c 0.0000,0.3892 -0.3221,0.7112 -0.7112 0.7112c -0.3892,-0.0000 -0.7112,-0.3221 -0.7112 -0.7112ZM 99.3967,321.1900 ZM 103.5434,318.9221 c 0.0000,-1.3822 -0.7515,-2.0666 -1.5835 -2.0666c -0.6173,-0.0000 -1.0870,0.0939 -1.6104 0.3087l 0.4294,-3.6636 c 0.4429,0.0403 0.8991,0.0537 1.3688 0.0537c 0.6710,-0.0000 1.3688,-0.0403 2.0935 -0.1208l 0.0805,0.0403 l -0.2013,0.8723 c -0.5234,0.0537 -0.9528,0.0671 -1.3286 0.0671c -0.6039,-0.0000 -1.0602,-0.0537 -1.5299 -0.1074l -0.2550,2.1203 c 0.2818,-0.1074 0.7649,-0.2013 1.2883 -0.2013c 1.4225,-0.0000 2.2143,1.2346 2.2143 2.4692c 0.0000,1.5030 -1.0467,2.6571 -2.5632 2.6571c -0.7649,-0.0000 -1.8788,-0.4294 -1.8788 -0.9528c 0.0000,-0.2550 0.2147,-0.4294 0.4563 -0.4294c 0.2684,-0.0000 0.4429,0.2013 0.6039 0.4160c 0.2013,0.2416 0.4160,0.5100 0.8454 0.5100c 0.8589,-0.0000 1.5701,-0.8052 1.5701 -1.9727Z"/></g><g stroke-linejoin="miter" stroke-opacity="0.6" fill-opacity="0.0" stroke="rgb(0,0,0)" stroke-width="1.3486840265934543" fill="rgb(0,0,0)" stroke-linecap="butt" stroke-miterlimit="10.0"><path d="M 108.5556,317.3922 h 8.0921 "/></g><g stroke-linejoin="miter" stroke-opacity="0.0" fill-opacity="0.1" stroke="rgb(0,0,0)" stroke-width="0.0" fill="rgb(0,0,0)" stroke-linecap="butt" stroke-miterlimit="10.0"><path d="M 530.2308,322.7869 l -0.0000,-5.3947 h -404.6052 l -0.0000,5.3947 Z"/></g><g stroke-linejoin="miter" stroke-opacity="1.0" fill-opacity="0.6" stroke="rgb(0,0,0)" fill-rule="evenodd" stroke-width="0.0" fill="rgb(0,0,0)" stroke-linecap="butt" stroke-miterlimit="10.0"><path d="M 523.0244,337.2870 ZM 525.9633,330.0001 c -0.5770,-0.0000 -1.4225,0.5636 -1.4225 3.6904c 0.0000,1.1004 0.2013,3.3147 1.3822 3.3147c 0.2281,-0.0000 0.8723,-0.1476 1.1541 -1.1944c 0.1745,-0.6441 0.2684,-1.4493 0.2684 -2.6168c 0.0000,-1.7043 -0.4294,-2.6571 -0.8186 -2.9926c -0.1476,-0.1342 -0.3489,-0.2013 -0.5636 -0.2013ZM 525.9633,330.0001 ZM 525.9096,337.4480 c -1.4359,-0.0000 -2.4021,-1.8385 -2.4021 -3.8917c 0.0000,-2.5095 1.1944,-4.0259 2.4558 -4.0259c 0.5770,-0.0000 1.1541,0.3623 1.5433 0.8857c 0.5636,0.7515 0.8589,1.7580 0.8589 3.0194c 0.0000,2.9792 -1.4762,4.0125 -2.4558 4.0125ZM 528.9022,337.2870 ZM 529.6671,336.7368 c 0.0000,-0.3892 0.3221,-0.7112 0.7112 -0.7112c 0.3892,-0.0000 0.7112,0.3221 0.7112 0.7112c 0.0000,0.3892 -0.3221,0.7112 -0.7112 0.7112c -0.3892,-0.0000 -0.7112,-0.3221 -0.7112 -0.7112ZM 531.8411,337.2870 ZM 535.9878,335.0190 c 0.0000,-1.3822 -0.7515,-2.0666 -1.5835 -2.0666c -0.6173,-0.0000 -1.0870,0.0939 -1.6104 0.3087l 0.4294,-3.6636 c 0.4429,0.0403 0.8991,0.0537 1.3688 0.0537c 0.6710,-0.0000 1.3688,-0.0403 2.0935 -0.1208l 0.0805,0.0403 l -0.2013,0.8723 c -0.5234,0.0537 -0.9528,0.0671 -1.3286 0.0671c -0.6039,-0.0000 -1.0602,-0.0537 -1.5299 -0.1074l -0.2550,2.1203 c 0.2818,-0.1074 0.7649,-0.2013 1.2883 -0.2013c 1.4225,-0.0000 2.2143,1.2346 2.2143 2.4692c 0.0000,1.5030 -1.0467,2.6571 -2.5632 2.6571c -0.7649,-0.0000 -1.8788,-0.4294 -1.8788 -0.9528c 0.0000,-0.2550 0.2147,-0.4294 0.4563 -0.4294c 0.2684,-0.0000 0.4429,0.2013 0.6039 0.4160c 0.2013,0.2416 0.4160,0.5100 0.8454 0.5100c 0.8589,-0.0000 1.5701,-0.8052 1.5701 -1.9727Z"/></g><g stroke-linejoin="miter" stroke-opacity="0.6" fill-opacity="0.0" stroke="rgb(0,0,0)" stroke-width="1.3486840265934543" fill="rgb(0,0,0)" stroke-linecap="butt" stroke-miterlimit="10.0"><path d="M 530.2308,317.3922 v 8.0921 "/></g><g stroke-linejoin="miter" stroke-opacity="1.0" fill-opacity="0.6" stroke="rgb(0,0,0)" fill-rule="evenodd" stroke-width="0.0" fill="rgb(0,0,0)" stroke-linecap="butt" stroke-miterlimit="10.0"><path d="M 482.3894,337.2870 ZM 485.3283,330.0001 c -0.5770,-0.0000 -1.4225,0.5636 -1.4225 3.6904c 0.0000,1.1004 0.2013,3.3147 1.3822 3.3147c 0.2281,-0.0000 0.8723,-0.1476 1.1541 -1.1944c 0.1745,-0.6441 0.2684,-1.4493 0.2684 -2.6168c 0.0000,-1.7043 -0.4294,-2.6571 -0.8186 -2.9926c -0.1476,-0.1342 -0.3489,-0.2013 -0.5636 -0.2013ZM 485.3283,330.0001 ZM 485.2746,337.4480 c -1.4359,-0.0000 -2.4021,-1.8385 -2.4021 -3.8917c 0.0000,-2.5095 1.1944,-4.0259 2.4558 -4.0259c 0.5770,-0.0000 1.1541,0.3623 1.5433 0.8857c 0.5636,0.7515 0.8589,1.7580 0.8589 3.0194c 0.0000,2.9792 -1.4762,4.0125 -2.4558 4.0125ZM 488.2672,337.2870 ZM 489.0322,336.7368 c 0.0000,-0.3892 0.3221,-0.7112 0.7112 -0.7112c 0.3892,-0.0000 0.7112,0.3221 0.7112 0.7112c 0.0000,0.3892 -0.3221,0.7112 -0.7112 0.7112c -0.3892,-0.0000 -0.7112,-0.3221 -0.7112 -0.7112ZM 491.2062,337.2870 ZM 494.6684,332.5230 c 0.0000,-0.0939 0.0134,-0.2013 0.1342 -0.2684c 0.1476,-0.1074 0.3892,-0.2281 0.5905 -0.2281c 0.1745,-0.0000 0.1879,0.1476 0.1879 0.4160v 2.1606 h 1.0870 l -0.0805,0.6307 h -1.0065 v 1.1138 c 0.0000,0.3758 0.0537,0.5636 0.4429 0.5636h 0.3623 c 0.0805,-0.0000 0.0939,0.0671 0.0939 0.0939v 0.2952 c 0.0000,-0.0000 -0.8589,-0.0268 -1.4225 -0.0268c -0.5100,-0.0000 -1.3017,0.0268 -1.3017 0.0268v -0.2952 c 0.0000,-0.0268 0.0134,-0.0939 0.0939 -0.0939h 0.3623 c 0.4160,-0.0000 0.4563,-0.1745 0.4563 -0.5636v -1.1138 h -2.6303 c -0.0537,-0.0000 -0.0805,-0.0268 -0.1208 -0.0805l -0.1074,-0.1476 l -0.1610,-0.2818 c -0.0134,-0.0000 -0.0134,-0.0134 -0.0134 -0.0268c 0.0000,-0.0134 0.0134,-0.0268 0.0268 -0.0403c 0.8723,-0.9662 2.4156,-3.9588 2.8987 -5.0592c 0.0134,-0.0537 0.0403,-0.0671 0.0939 -0.0671c 0.0134,-0.0000 0.3087,0.1208 0.4697 0.1476c -0.6039,1.6238 -1.5969,3.3684 -2.5766 4.9250h 2.1203 v -2.0801 Z"/></g><g stroke-linejoin="miter" stroke-opacity="0.6" fill-opacity="0.0" stroke="rgb(0,0,0)" stroke-width="1.3486840265934543" fill="rgb(0,0,0)" stroke-linecap="butt" stroke-miterlimit="10.0"><path d="M 489.7702,317.3922 v 8.0921 "/></g><g stroke-linejoin="miter" stroke-opacity="1.0" fill-opacity="0.6" stroke="rgb(0,0,0)" fill-rule="evenodd" stroke-width="0.0" fill="rgb(0,0,0)" stroke-linecap="butt" stroke-miterlimit="10.0"><path d="M 442.0161,337.2870 ZM 444.9550,330.0001 c -0.5770,-0.0000 -1.4225,0.5636 -1.4225 3.6904c 0.0000,1.1004 0.2013,3.3147 1.3822 3.3147c 0.2281,-0.0000 0.8723,-0.1476 1.1541 -1.1944c 0.1745,-0.6441 0.2684,-1.4493 0.2684 -2.6168c 0.0000,-1.7043 -0.4294,-2.6571 -0.8186 -2.9926c -0.1476,-0.1342 -0.3489,-0.2013 -0.5636 -0.2013ZM 444.9550,330.0001 ZM 444.9013,337.4480 c -1.4359,-0.0000 -2.4021,-1.8385 -2.4021 -3.8917c 0.0000,-2.5095 1.1944,-4.0259 2.4558 -4.0259c 0.5770,-0.0000 1.1541,0.3623 1.5433 0.8857c 0.5636,0.7515 0.8589,1.7580 0.8589 3.0194c 0.0000,2.9792 -1.4762,4.0125 -2.4558 4.0125ZM 447.8939,337.2870 ZM 448.6589,336.7368 c 0.0000,-0.3892 0.3221,-0.7112 0.7112 -0.7112c 0.3892,-0.0000 0.7112,0.3221 0.7112 0.7112c 0.0000,0.3892 -0.3221,0.7112 -0.7112 0.7112c -0.3892,-0.0000 -0.7112,-0.3221 -0.7112 -0.7112ZM 450.8329,337.2870 ZM 453.7315,329.9464 c -0.3355,-0.0000 -1.3151,0.1879 -1.3151 1.0065c 0.0000,0.2416 -0.0939,0.6576 -0.4563 0.6576c -0.3489,-0.0000 -0.3758,-0.3892 -0.3758 -0.4294c 0.0000,-0.4160 0.5502,-1.6506 2.4156 -1.6506c 1.3017,-0.0000 1.6909,0.8186 1.6909 1.3554c 0.0000,0.3355 -0.1074,1.0065 -1.3151 1.7714c 0.7515,0.1208 1.7446,0.6710 1.7446 2.0666c 0.0000,1.7714 -1.3420,2.7242 -2.8584 2.7242c -0.7649,-0.0000 -1.8385,-0.3355 -1.8385 -0.8454c 0.0000,-0.2013 0.2013,-0.4294 0.4697 -0.4294c 0.2550,-0.0000 0.3758,0.1342 0.4965 0.3087c 0.1476,0.2281 0.3892,0.5502 1.0333 0.5502c 0.4429,-0.0000 1.7043,-0.4429 1.7043 -2.1337c 0.0000,-1.4359 -1.0065,-1.6640 -1.7311 -1.6640c -0.1208,-0.0000 -0.2684,0.0268 -0.4160 0.0537l -0.0537,-0.4026 c 1.0333,-0.1745 1.8922,-1.1809 1.8922 -1.7982c 0.0000,-0.7649 -0.5368,-1.1407 -1.0870 -1.1407Z"/></g><g stroke-linejoin="miter" stroke-opacity="0.6" fill-opacity="0.0" stroke="rgb(0,0,0)" stroke-width="1.3486840265934543" fill="rgb(0,0,0)" stroke-linecap="butt" stroke-miterlimit="10.0"><path d="M 449.3097,317.3922 v 8.0921 "/></g><g stroke-linejoin="miter" stroke-opacity="1.0" fill-opacity="0.6" stroke="rgb(0,0,0)" fill-rule="evenodd" stroke-width="0.0" fill="rgb(0,0,0)" stroke-linecap="butt" stroke-miterlimit="10.0"><path d="M 401.6093,337.2870 ZM 404.5482,330.0001 c -0.5770,-0.0000 -1.4225,0.5636 -1.4225 3.6904c 0.0000,1.1004 0.2013,3.3147 1.3822 3.3147c 0.2281,-0.0000 0.8723,-0.1476 1.1541 -1.1944c 0.1745,-0.6441 0.2684,-1.4493 0.2684 -2.6168c 0.0000,-1.7043 -0.4294,-2.6571 -0.8186 -2.9926c -0.1476,-0.1342 -0.3489,-0.2013 -0.5636 -0.2013ZM 404.5482,330.0001 ZM 404.4945,337.4480 c -1.4359,-0.0000 -2.4021,-1.8385 -2.4021 -3.8917c 0.0000,-2.5095 1.1944,-4.0259 2.4558 -4.0259c 0.5770,-0.0000 1.1541,0.3623 1.5433 0.8857c 0.5636,0.7515 0.8589,1.7580 0.8589 3.0194c 0.0000,2.9792 -1.4762,4.0125 -2.4558 4.0125ZM 407.4871,337.2870 ZM 408.2520,336.7368 c 0.0000,-0.3892 0.3221,-0.7112 0.7112 -0.7112c 0.3892,-0.0000 0.7112,0.3221 0.7112 0.7112c 0.0000,0.3892 -0.3221,0.7112 -0.7112 0.7112c -0.3892,-0.0000 -0.7112,-0.3221 -0.7112 -0.7112ZM 410.4260,337.2870 ZM 411.2044,331.3420 c 0.0000,-0.7649 0.7381,-1.8117 2.1472 -1.8117c 1.0333,-0.0000 2.2411,0.3892 2.2411 1.9324c 0.0000,1.0199 -0.5234,1.5299 -1.2480 2.2277l -1.2749,1.2346 c -0.0671,0.0671 -0.9662,0.9528 -0.9662 1.5835h 2.2814 c 0.4563,-0.0000 0.6978,-0.2281 0.8857 -0.9662l 0.3355,0.0537 l -0.2684,1.6909 h -4.1467 c 0.0000,-0.7515 0.1208,-1.3286 1.3688 -2.6034l 0.9394,-0.9260 c 0.7515,-0.7649 1.0602,-1.4225 1.0602 -2.2411c 0.0000,-1.2212 -0.8320,-1.5701 -1.2883 -1.5701c -0.9260,-0.0000 -1.1809,0.4831 -1.1809 0.8052c 0.0000,0.1074 0.0268,0.2147 0.0537 0.3087c 0.0268,0.0939 0.0537,0.1879 0.0537 0.2952c 0.0000,0.3489 -0.2684,0.4831 -0.4831 0.4831c -0.2952,-0.0000 -0.5100,-0.2281 -0.5100 -0.4965Z"/></g><g stroke-linejoin="miter" stroke-opacity="0.6" fill-opacity="0.0" stroke="rgb(0,0,0)" stroke-width="1.3486840265934543" fill="rgb(0,0,0)" stroke-linecap="butt" stroke-miterlimit="10.0"><path d="M 408.8492,317.3922 v 8.0921 "/></g><g stroke-linejoin="miter" stroke-opacity="1.0" fill-opacity="0.6" stroke="rgb(0,0,0)" fill-rule="evenodd" stroke-width="0.0" fill="rgb(0,0,0)" stroke-linecap="butt" stroke-miterlimit="10.0"><path d="M 361.1890,337.2870 ZM 364.1279,330.0001 c -0.5770,-0.0000 -1.4225,0.5636 -1.4225 3.6904c 0.0000,1.1004 0.2013,3.3147 1.3822 3.3147c 0.2281,-0.0000 0.8723,-0.1476 1.1541 -1.1944c 0.1745,-0.6441 0.2684,-1.4493 0.2684 -2.6168c 0.0000,-1.7043 -0.4294,-2.6571 -0.8186 -2.9926c -0.1476,-0.1342 -0.3489,-0.2013 -0.5636 -0.2013ZM 364.1279,330.0001 ZM 364.0742,337.4480 c -1.4359,-0.0000 -2.4021,-1.8385 -2.4021 -3.8917c 0.0000,-2.5095 1.1944,-4.0259 2.4558 -4.0259c 0.5770,-0.0000 1.1541,0.3623 1.5433 0.8857c 0.5636,0.7515 0.8589,1.7580 0.8589 3.0194c 0.0000,2.9792 -1.4762,4.0125 -2.4558 4.0125ZM 367.0668,337.2870 ZM 367.8318,336.7368 c 0.0000,-0.3892 0.3221,-0.7112 0.7112 -0.7112c 0.3892,-0.0000 0.7112,0.3221 0.7112 0.7112c 0.0000,0.3892 -0.3221,0.7112 -0.7112 0.7112c -0.3892,-0.0000 -0.7112,-0.3221 -0.7112 -0.7112ZM 370.0058,337.2870 ZM 372.5287,330.8858 c -0.2550,-0.0000 -0.8454,0.2416 -1.1407 0.3758l -0.1610,-0.4160 c 1.1809,-0.5502 1.6372,-0.8320 2.3082 -1.3151h 0.2550 v 6.7501 c 0.0000,0.4831 0.0671,0.6173 0.5100 0.6173h 0.6978 c 0.0403,-0.0000 0.1074,0.0268 0.1074 0.1074v 0.2952 l -1.8385,-0.0268 l -1.8653,0.0268 v -0.2952 c 0.0134,-0.0403 0.0268,-0.1074 0.1074 -0.1074h 0.8052 c 0.5100,-0.0000 0.5100,-0.2281 0.5100 -0.6173v -4.6164 c 0.0000,-0.4563 0.0000,-0.7783 -0.2952 -0.7783Z"/></g><g stroke-linejoin="miter" stroke-opacity="0.6" fill-opacity="0.0" stroke="rgb(0,0,0)" stroke-width="1.3486840265934543" fill="rgb(0,0,0)" stroke-linecap="butt" stroke-miterlimit="10.0"><path d="M 368.3887,317.3922 v 8.0921 "/></g><g stroke-linejoin="miter" stroke-opacity="1.0" fill-opacity="0.6" stroke="rgb(0,0,0)" fill-rule="evenodd" stroke-width="0.0" fill="rgb(0,0,0)" stroke-linecap="butt" stroke-miterlimit="10.0"><path d="M 320.6077,337.2870 ZM 323.5466,330.0001 c -0.5770,-0.0000 -1.4225,0.5636 -1.4225 3.6904c 0.0000,1.1004 0.2013,3.3147 1.3822 3.3147c 0.2281,-0.0000 0.8723,-0.1476 1.1541 -1.1944c 0.1745,-0.6441 0.2684,-1.4493 0.2684 -2.6168c 0.0000,-1.7043 -0.4294,-2.6571 -0.8186 -2.9926c -0.1476,-0.1342 -0.3489,-0.2013 -0.5636 -0.2013ZM 323.5466,330.0001 ZM 323.4929,337.4480 c -1.4359,-0.0000 -2.4021,-1.8385 -2.4021 -3.8917c 0.0000,-2.5095 1.1944,-4.0259 2.4558 -4.0259c 0.5770,-0.0000 1.1541,0.3623 1.5433 0.8857c 0.5636,0.7515 0.8589,1.7580 0.8589 3.0194c 0.0000,2.9792 -1.4762,4.0125 -2.4558 4.0125ZM 326.4855,337.2870 ZM 327.2505,336.7368 c 0.0000,-0.3892 0.3221,-0.7112 0.7112 -0.7112c 0.3892,-0.0000 0.7112,0.3221 0.7112 0.7112c 0.0000,0.3892 -0.3221,0.7112 -0.7112 0.7112c -0.3892,-0.0000 -0.7112,-0.3221 -0.7112 -0.7112ZM 329.4245,337.2870 ZM 332.3634,330.0001 c -0.5770,-0.0000 -1.4225,0.5636 -1.4225 3.6904c 0.0000,1.1004 0.2013,3.3147 1.3822 3.3147c 0.2281,-0.0000 0.8723,-0.1476 1.1541 -1.1944c 0.1745,-0.6441 0.2684,-1.4493 0.2684 -2.6168c 0.0000,-1.7043 -0.4294,-2.6571 -0.8186 -2.9926c -0.1476,-0.1342 -0.3489,-0.2013 -0.5636 -0.2013ZM 332.3634,330.0001 ZM 332.3097,337.4480 c -1.4359,-0.0000 -2.4021,-1.8385 -2.4021 -3.8917c 0.0000,-2.5095 1.1944,-4.0259 2.4558 -4.0259c 0.5770,-0.0000 1.1541,0.3623 1.5433 0.8857c 0.5636,0.7515 0.8589,1.7580 0.8589 3.0194c 0.0000,2.9792 -1.4762,4.0125 -2.4558 4.0125Z"/></g><g stroke-linejoin="miter" stroke-opacity="0.6" fill-opacity="0.0" stroke="rgb(0,0,0)" stroke-width="1.3486840265934543" fill="rgb(0,0,0)" stroke-linecap="butt" stroke-miterlimit="10.0"><path d="M 327.9282,317.3922 v 8.0921 "/></g><g stroke-linejoin="miter" stroke-opacity="1.0" fill-opacity="0.6" stroke="rgb(0,0,0)" fill-rule="evenodd" stroke-width="0.0" fill="rgb(0,0,0)" stroke-linecap="butt" stroke-miterlimit="10.0"><path d="M 278.0537,337.2870 ZM 281.7307,334.1199 h -3.0329 c -0.1208,-0.0000 -0.2013,-0.1074 -0.2013 -0.2281c 0.0000,-0.2147 0.1745,-0.4965 0.3355 -0.4965h 3.0731 c 0.1342,-0.0000 0.1879,0.1208 0.1879 0.2416c 0.0000,0.1476 -0.1879,0.4831 -0.3623 0.4831ZM 282.5225,337.2870 ZM 285.4614,330.0001 c -0.5770,-0.0000 -1.4225,0.5636 -1.4225 3.6904c 0.0000,1.1004 0.2013,3.3147 1.3822 3.3147c 0.2281,-0.0000 0.8723,-0.1476 1.1541 -1.1944c 0.1745,-0.6441 0.2684,-1.4493 0.2684 -2.6168c 0.0000,-1.7043 -0.4294,-2.6571 -0.8186 -2.9926c -0.1476,-0.1342 -0.3489,-0.2013 -0.5636 -0.2013ZM 285.4614,330.0001 ZM 285.4077,337.4480 c -1.4359,-0.0000 -2.4021,-1.8385 -2.4021 -3.8917c 0.0000,-2.5095 1.1944,-4.0259 2.4558 -4.0259c 0.5770,-0.0000 1.1541,0.3623 1.5433 0.8857c 0.5636,0.7515 0.8589,1.7580 0.8589 3.0194c 0.0000,2.9792 -1.4762,4.0125 -2.4558 4.0125ZM 288.4003,337.2870 ZM 289.1652,336.7368 c 0.0000,-0.3892 0.3221,-0.7112 0.7112 -0.7112c 0.3892,-0.0000 0.7112,0.3221 0.7112 0.7112c 0.0000,0.3892 -0.3221,0.7112 -0.7112 0.7112c -0.3892,-0.0000 -0.7112,-0.3221 -0.7112 -0.7112ZM 291.3392,337.2870 ZM 293.8621,330.8858 c -0.2550,-0.0000 -0.8454,0.2416 -1.1407 0.3758l -0.1610,-0.4160 c 1.1809,-0.5502 1.6372,-0.8320 2.3082 -1.3151h 0.2550 v 6.7501 c 0.0000,0.4831 0.0671,0.6173 0.5100 0.6173h 0.6978 c 0.0403,-0.0000 0.1074,0.0268 0.1074 0.1074v 0.2952 l -1.8385,-0.0268 l -1.8653,0.0268 v -0.2952 c 0.0134,-0.0403 0.0268,-0.1074 0.1074 -0.1074h 0.8052 c 0.5100,-0.0000 0.5100,-0.2281 0.5100 -0.6173v -4.6164 c 0.0000,-0.4563 0.0000,-0.7783 -0.2952 -0.7783Z"/></g><g stroke-linejoin="miter" stroke-opacity="0.6" fill-opacity="0.0" stroke="rgb(0,0,0)" stroke-width="1.3486840265934543" fill="rgb(0,0,0)" stroke-linecap="butt" stroke-miterlimit="10.0"><path d="M 287.4676,317.3922 v 8.0921 "/></g><g stroke-linejoin="miter" stroke-opacity="1.0" fill-opacity="0.6" stroke="rgb(0,0,0)" fill-rule="evenodd" stroke-width="0.0" fill="rgb(0,0,0)" stroke-linecap="butt" stroke-miterlimit="10.0"><path d="M 237.5529,337.2870 ZM 241.2299,334.1199 h -3.0329 c -0.1208,-0.0000 -0.2013,-0.1074 -0.2013 -0.2281c 0.0000,-0.2147 0.1745,-0.4965 0.3355 -0.4965h 3.0731 c 0.1342,-0.0000 0.1879,0.1208 0.1879 0.2416c 0.0000,0.1476 -0.1879,0.4831 -0.3623 0.4831ZM 242.0217,337.2870 ZM 244.9606,330.0001 c -0.5770,-0.0000 -1.4225,0.5636 -1.4225 3.6904c 0.0000,1.1004 0.2013,3.3147 1.3822 3.3147c 0.2281,-0.0000 0.8723,-0.1476 1.1541 -1.1944c 0.1745,-0.6441 0.2684,-1.4493 0.2684 -2.6168c 0.0000,-1.7043 -0.4294,-2.6571 -0.8186 -2.9926c -0.1476,-0.1342 -0.3489,-0.2013 -0.5636 -0.2013ZM 244.9606,330.0001 ZM 244.9069,337.4480 c -1.4359,-0.0000 -2.4021,-1.8385 -2.4021 -3.8917c 0.0000,-2.5095 1.1944,-4.0259 2.4558 -4.0259c 0.5770,-0.0000 1.1541,0.3623 1.5433 0.8857c 0.5636,0.7515 0.8589,1.7580 0.8589 3.0194c 0.0000,2.9792 -1.4762,4.0125 -2.4558 4.0125ZM 247.8995,337.2870 ZM 248.6645,336.7368 c 0.0000,-0.3892 0.3221,-0.7112 0.7112 -0.7112c 0.3892,-0.0000 0.7112,0.3221 0.7112 0.7112c 0.0000,0.3892 -0.3221,0.7112 -0.7112 0.7112c -0.3892,-0.0000 -0.7112,-0.3221 -0.7112 -0.7112ZM 250.8385,337.2870 ZM 251.6168,331.3420 c 0.0000,-0.7649 0.7381,-1.8117 2.1472 -1.8117c 1.0333,-0.0000 2.2411,0.3892 2.2411 1.9324c 0.0000,1.0199 -0.5234,1.5299 -1.2480 2.2277l -1.2749,1.2346 c -0.0671,0.0671 -0.9662,0.9528 -0.9662 1.5835h 2.2814 c 0.4563,-0.0000 0.6978,-0.2281 0.8857 -0.9662l 0.3355,0.0537 l -0.2684,1.6909 h -4.1467 c 0.0000,-0.7515 0.1208,-1.3286 1.3688 -2.6034l 0.9394,-0.9260 c 0.7515,-0.7649 1.0602,-1.4225 1.0602 -2.2411c 0.0000,-1.2212 -0.8320,-1.5701 -1.2883 -1.5701c -0.9260,-0.0000 -1.1809,0.4831 -1.1809 0.8052c 0.0000,0.1074 0.0268,0.2147 0.0537 0.3087c 0.0268,0.0939 0.0537,0.1879 0.0537 0.2952c 0.0000,0.3489 -0.2684,0.4831 -0.4831 0.4831c -0.2952,-0.0000 -0.5100,-0.2281 -0.5100 -0.4965Z"/></g><g stroke-linejoin="miter" stroke-opacity="0.6" fill-opacity="0.0" stroke="rgb(0,0,0)" stroke-width="1.3486840265934543" fill="rgb(0,0,0)" stroke-linecap="butt" stroke-miterlimit="10.0"><path d="M 247.0071,317.3922 v 8.0921 "/></g><g stroke-linejoin="miter" stroke-opacity="1.0" fill-opacity="0.6" stroke="rgb(0,0,0)" fill-rule="evenodd" stroke-width="0.0" fill="rgb(0,0,0)" stroke-linecap="butt" stroke-miterlimit="10.0"><path d="M 197.0387,337.2870 ZM 200.7157,334.1199 h -3.0329 c -0.1208,-0.0000 -0.2013,-0.1074 -0.2013 -0.2281c 0.0000,-0.2147 0.1745,-0.4965 0.3355 -0.4965h 3.0731 c 0.1342,-0.0000 0.1879,0.1208 0.1879 0.2416c 0.0000,0.1476 -0.1879,0.4831 -0.3623 0.4831ZM 201.5075,337.2870 ZM 204.4464,330.0001 c -0.5770,-0.0000 -1.4225,0.5636 -1.4225 3.6904c 0.0000,1.1004 0.2013,3.3147 1.3822 3.3147c 0.2281,-0.0000 0.8723,-0.1476 1.1541 -1.1944c 0.1745,-0.6441 0.2684,-1.4493 0.2684 -2.6168c 0.0000,-1.7043 -0.4294,-2.6571 -0.8186 -2.9926c -0.1476,-0.1342 -0.3489,-0.2013 -0.5636 -0.2013ZM 204.4464,330.0001 ZM 204.3927,337.4480 c -1.4359,-0.0000 -2.4021,-1.8385 -2.4021 -3.8917c 0.0000,-2.5095 1.1944,-4.0259 2.4558 -4.0259c 0.5770,-0.0000 1.1541,0.3623 1.5433 0.8857c 0.5636,0.7515 0.8589,1.7580 0.8589 3.0194c 0.0000,2.9792 -1.4762,4.0125 -2.4558 4.0125ZM 207.3853,337.2870 ZM 208.1503,336.7368 c 0.0000,-0.3892 0.3221,-0.7112 0.7112 -0.7112c 0.3892,-0.0000 0.7112,0.3221 0.7112 0.7112c 0.0000,0.3892 -0.3221,0.7112 -0.7112 0.7112c -0.3892,-0.0000 -0.7112,-0.3221 -0.7112 -0.7112ZM 210.3243,337.2870 ZM 213.2229,329.9464 c -0.3355,-0.0000 -1.3151,0.1879 -1.3151 1.0065c 0.0000,0.2416 -0.0939,0.6576 -0.4563 0.6576c -0.3489,-0.0000 -0.3758,-0.3892 -0.3758 -0.4294c 0.0000,-0.4160 0.5502,-1.6506 2.4156 -1.6506c 1.3017,-0.0000 1.6909,0.8186 1.6909 1.3554c 0.0000,0.3355 -0.1074,1.0065 -1.3151 1.7714c 0.7515,0.1208 1.7446,0.6710 1.7446 2.0666c 0.0000,1.7714 -1.3420,2.7242 -2.8584 2.7242c -0.7649,-0.0000 -1.8385,-0.3355 -1.8385 -0.8454c 0.0000,-0.2013 0.2013,-0.4294 0.4697 -0.4294c 0.2550,-0.0000 0.3758,0.1342 0.4965 0.3087c 0.1476,0.2281 0.3892,0.5502 1.0333 0.5502c 0.4429,-0.0000 1.7043,-0.4429 1.7043 -2.1337c 0.0000,-1.4359 -1.0065,-1.6640 -1.7311 -1.6640c -0.1208,-0.0000 -0.2684,0.0268 -0.4160 0.0537l -0.0537,-0.4026 c 1.0333,-0.1745 1.8922,-1.1809 1.8922 -1.7982c 0.0000,-0.7649 -0.5368,-1.1407 -1.0870 -1.1407Z"/></g><g stroke-linejoin="miter" stroke-opacity="0.6" fill-opacity="0.0" stroke="rgb(0,0,0)" stroke-width="1.3486840265934543" fill="rgb(0,0,0)" stroke-linecap="butt" stroke-miterlimit="10.0"><path d="M 206.5466,317.3922 v 8.0921 "/></g><g stroke-linejoin="miter" stroke-opacity="1.0" fill-opacity="0.6" stroke="rgb(0,0,0)" fill-rule="evenodd" stroke-width="0.0" fill="rgb(0,0,0)" stroke-linecap="butt" stroke-miterlimit="10.0"><path d="M 156.4910,337.2870 ZM 160.1680,334.1199 h -3.0329 c -0.1208,-0.0000 -0.2013,-0.1074 -0.2013 -0.2281c 0.0000,-0.2147 0.1745,-0.4965 0.3355 -0.4965h 3.0731 c 0.1342,-0.0000 0.1879,0.1208 0.1879 0.2416c 0.0000,0.1476 -0.1879,0.4831 -0.3623 0.4831ZM 160.9597,337.2870 ZM 163.8987,330.0001 c -0.5770,-0.0000 -1.4225,0.5636 -1.4225 3.6904c 0.0000,1.1004 0.2013,3.3147 1.3822 3.3147c 0.2281,-0.0000 0.8723,-0.1476 1.1541 -1.1944c 0.1745,-0.6441 0.2684,-1.4493 0.2684 -2.6168c 0.0000,-1.7043 -0.4294,-2.6571 -0.8186 -2.9926c -0.1476,-0.1342 -0.3489,-0.2013 -0.5636 -0.2013ZM 163.8987,330.0001 ZM 163.8450,337.4480 c -1.4359,-0.0000 -2.4021,-1.8385 -2.4021 -3.8917c 0.0000,-2.5095 1.1944,-4.0259 2.4558 -4.0259c 0.5770,-0.0000 1.1541,0.3623 1.5433 0.8857c 0.5636,0.7515 0.8589,1.7580 0.8589 3.0194c 0.0000,2.9792 -1.4762,4.0125 -2.4558 4.0125ZM 166.8376,337.2870 ZM 167.6025,336.7368 c 0.0000,-0.3892 0.3221,-0.7112 0.7112 -0.7112c 0.3892,-0.0000 0.7112,0.3221 0.7112 0.7112c 0.0000,0.3892 -0.3221,0.7112 -0.7112 0.7112c -0.3892,-0.0000 -0.7112,-0.3221 -0.7112 -0.7112ZM 169.7765,337.2870 ZM 173.2388,332.5230 c 0.0000,-0.0939 0.0134,-0.2013 0.1342 -0.2684c 0.1476,-0.1074 0.3892,-0.2281 0.5905 -0.2281c 0.1745,-0.0000 0.1879,0.1476 0.1879 0.4160v 2.1606 h 1.0870 l -0.0805,0.6307 h -1.0065 v 1.1138 c 0.0000,0.3758 0.0537,0.5636 0.4429 0.5636h 0.3623 c 0.0805,-0.0000 0.0939,0.0671 0.0939 0.0939v 0.2952 c 0.0000,-0.0000 -0.8589,-0.0268 -1.4225 -0.0268c -0.5100,-0.0000 -1.3017,0.0268 -1.3017 0.0268v -0.2952 c 0.0000,-0.0268 0.0134,-0.0939 0.0939 -0.0939h 0.3623 c 0.4160,-0.0000 0.4563,-0.1745 0.4563 -0.5636v -1.1138 h -2.6303 c -0.0537,-0.0000 -0.0805,-0.0268 -0.1208 -0.0805l -0.1074,-0.1476 l -0.1610,-0.2818 c -0.0134,-0.0000 -0.0134,-0.0134 -0.0134 -0.0268c 0.0000,-0.0134 0.0134,-0.0268 0.0268 -0.0403c 0.8723,-0.9662 2.4156,-3.9588 2.8987 -5.0592c 0.0134,-0.0537 0.0403,-0.0671 0.0939 -0.0671c 0.0134,-0.0000 0.3087,0.1208 0.4697 0.1476c -0.6039,1.6238 -1.5969,3.3684 -2.5766 4.9250h 2.1203 v -2.0801 Z"/></g><g stroke-linejoin="miter" stroke-opacity="0.6" fill-opacity="0.0" stroke="rgb(0,0,0)" stroke-width="1.3486840265934543" fill="rgb(0,0,0)" stroke-linecap="butt" stroke-miterlimit="10.0"><path d="M 166.0861,317.3922 v 8.0921 "/></g><g stroke-linejoin="miter" stroke-opacity="1.0" fill-opacity="0.6" stroke="rgb(0,0,0)" fill-rule="evenodd" stroke-width="0.0" fill="rgb(0,0,0)" stroke-linecap="butt" stroke-miterlimit="10.0"><path d="M 116.2049,337.2870 ZM 119.8819,334.1199 h -3.0329 c -0.1208,-0.0000 -0.2013,-0.1074 -0.2013 -0.2281c 0.0000,-0.2147 0.1745,-0.4965 0.3355 -0.4965h 3.0731 c 0.1342,-0.0000 0.1879,0.1208 0.1879 0.2416c 0.0000,0.1476 -0.1879,0.4831 -0.3623 0.4831ZM 120.6737,337.2870 ZM 123.6126,330.0001 c -0.5770,-0.0000 -1.4225,0.5636 -1.4225 3.6904c 0.0000,1.1004 0.2013,3.3147 1.3822 3.3147c 0.2281,-0.0000 0.8723,-0.1476 1.1541 -1.1944c 0.1745,-0.6441 0.2684,-1.4493 0.2684 -2.6168c 0.0000,-1.7043 -0.4294,-2.6571 -0.8186 -2.9926c -0.1476,-0.1342 -0.3489,-0.2013 -0.5636 -0.2013ZM 123.6126,330.0001 ZM 123.5589,337.4480 c -1.4359,-0.0000 -2.4021,-1.8385 -2.4021 -3.8917c 0.0000,-2.5095 1.1944,-4.0259 2.4558 -4.0259c 0.5770,-0.0000 1.1541,0.3623 1.5433 0.8857c 0.5636,0.7515 0.8589,1.7580 0.8589 3.0194c 0.0000,2.9792 -1.4762,4.0125 -2.4558 4.0125ZM 126.5515,337.2870 ZM 127.3164,336.7368 c 0.0000,-0.3892 0.3221,-0.7112 0.7112 -0.7112c 0.3892,-0.0000 0.7112,0.3221 0.7112 0.7112c 0.0000,0.3892 -0.3221,0.7112 -0.7112 0.7112c -0.3892,-0.0000 -0.7112,-0.3221 -0.7112 -0.7112ZM 129.4904,337.2870 ZM 133.6371,335.0190 c 0.0000,-1.3822 -0.7515,-2.0666 -1.5835 -2.0666c -0.6173,-0.0000 -1.0870,0.0939 -1.6104 0.3087l 0.4294,-3.6636 c 0.4429,0.0403 0.8991,0.0537 1.3688 0.0537c 0.6710,-0.0000 1.3688,-0.0403 2.0935 -0.1208l 0.0805,0.0403 l -0.2013,0.8723 c -0.5234,0.0537 -0.9528,0.0671 -1.3286 0.0671c -0.6039,-0.0000 -1.0602,-0.0537 -1.5299 -0.1074l -0.2550,2.1203 c 0.2818,-0.1074 0.7649,-0.2013 1.2883 -0.2013c 1.4225,-0.0000 2.2143,1.2346 2.2143 2.4692c 0.0000,1.5030 -1.0467,2.6571 -2.5632 2.6571c -0.7649,-0.0000 -1.8788,-0.4294 -1.8788 -0.9528c 0.0000,-0.2550 0.2147,-0.4294 0.4563 -0.4294c 0.2684,-0.0000 0.4429,0.2013 0.6039 0.4160c 0.2013,0.2416 0.4160,0.5100 0.8454 0.5100c 0.8589,-0.0000 1.5701,-0.8052 1.5701 -1.9727Z"/></g><g stroke-linejoin="miter" stroke-opacity="0.6" fill-opacity="0.0" stroke="rgb(0,0,0)" stroke-width="1.3486840265934543" fill="rgb(0,0,0)" stroke-linecap="butt" stroke-miterlimit="10.0"><path d="M 125.6256,317.3922 v 8.0921 "/></g><g stroke-linejoin="miter" stroke-opacity="0.0" fill-opacity="0.0" stroke="rgb(0,0,0)" stroke-width="0.0" fill="rgb(0,0,0)" stroke-linecap="butt" stroke-miterlimit="10.0"><path d="M 529.1035,317.3922 l -0.0000,-269.7368 h -404.6052 l -0.0000,269.7368 Z"/></g></svg>