<?xml version="1.0" encoding="UTF-8"?>
<!DOCTYPE svg PUBLIC "-//W3C//DTD SVG 1.1//EN"
    "http://www.w3.org/Graphics/SVG/1.1/DTD/svg11.dtd"><svg xmlns="http://www.w3.org/2000/svg" height="400.0000" stroke-opacity="1" viewBox="0 0 600 400" font-size="1" width="600.0000" xmlns:xlink="http://www.w3.org/1999/xlink" stroke="rgb(0,0,0)" version="1.1"><defs></defs><g stroke-linejoin="miter" stroke-opacity="0.0" fill-opacity="0.1" stroke="rgb(0,0,0)" stroke-width="0.0" fill="rgb(0,0,0)" stroke-linecap="butt" stroke-miterlimit="10.0"><path d="M 504.7841,319.4631 l -0.0000,-5.4609 h -409.5681 l -0.0000,5.4609 Z"/></g><g stroke-linejoin="miter" stroke-opacity="1.0" fill-opacity="0.6" stroke="rgb(0,0,0)" fill-rule="evenodd" stroke-width="0.0" fill="rgb(0,0,0)" stroke-linecap="butt" stroke-miterlimit="10.0"><path d="M 483.2121,334.6980 ZM 484.6249,326.9413 c 0.0000,-0.3532 0.2853,-0.6520 0.6520 -0.6520c 0.3532,-0.0000 0.6520,0.2989 0.6520 0.6520c 0.0000,0.3668 -0.2989,0.6520 -0.6520 0.6520c -0.3668,-0.0000 -0.6520,-0.2853 -0.6520 -0.6520ZM 484.6249,326.9413 ZM 483.9049,337.3334 c 0.5977,-0.0000 1.0052,-1.0732 1.0052 -2.9886v -4.0074 c 0.0000,-0.7200 -0.1223,-0.8286 -0.2989 -0.8286c -0.1902,-0.0000 -0.3396,0.0136 -0.5705 0.0679l -0.0679,-0.3804 c 0.9917,-0.1630 1.2905,-0.3260 1.4671 -0.4211c 0.0951,-0.0408 0.1494,-0.0815 0.2853 -0.0815h 0.2038 v 5.2300 c 0.0000,1.7795 -0.1358,2.5267 -0.8830 3.2874c -0.3668,0.3532 -0.7607,0.5162 -1.0867 0.5162c -0.5570,-0.0000 -1.2769,-0.2853 -1.2769 -0.6928c 0.0000,-0.3396 0.2038,-0.5162 0.4347 -0.5162c 0.3260,-0.0000 0.5026,0.3124 0.5705 0.5977c 0.0408,0.1358 0.1087,0.2173 0.2173 0.2173Z"/></g><g stroke-linejoin="miter" stroke-opacity="0.6" fill-opacity="0.0" stroke="rgb(0,0,0)" stroke-width="1.3652271218329364" fill="rgb(0,0,0)" stroke-linecap="butt" stroke-miterlimit="10.0"><path d="M 484.3057,314.0022 v 8.1914 "/></g><g stroke-linejoin="miter" stroke-opacity="1.0" fill-opacity="0.6" stroke="rgb(0,0,0)" fill-rule="evenodd" stroke-width="0.0" fill="rgb(0,0,0)" stroke-linecap="butt" stroke-miterlimit="10.0"><path d="M 441.4946,334.6980 ZM 442.5542,326.9413 c 0.0000,-0.3532 0.2853,-0.6520 0.6385 -0.6520c 0.3668,-0.0000 0.6520,0.2989 0.6520 0.6520c 0.0000,0.3668 -0.2853,0.6520 -0.6520 0.6520c -0.3532,-0.0000 -0.6385,-0.2853 -0.6385 -0.6520ZM 442.5542,326.9413 ZM 443.8447,333.7199 c 0.0000,0.3939 0.1494,0.5977 0.5841 0.5977h 0.2581 c 0.0679,-0.0000 0.1223,0.0408 0.1223 0.1087v 0.2581 l -0.0272,0.0272 c 0.0000,-0.0000 -0.9373,-0.0272 -1.4671 -0.0272c -0.4755,-0.0000 -1.3992,0.0272 -1.3992 0.0272l -0.0272,-0.0272 v -0.2581 c 0.0000,-0.0679 0.0408,-0.1087 0.1087 -0.1087h 0.2581 c 0.4483,-0.0000 0.5841,-0.2038 0.5841 -0.5977v -3.3825 c 0.0000,-0.7200 -0.1223,-0.8286 -0.3124 -0.8286c -0.1766,-0.0000 -0.3396,0.0136 -0.5705 0.0679l -0.0679,-0.3804 c 0.8694,-0.1494 1.0188,-0.2038 1.4128 -0.3939c 0.1494,-0.0543 0.2445,-0.1087 0.3396 -0.1087h 0.2038 v 5.0262 Z"/></g><g stroke-linejoin="miter" stroke-opacity="0.6" fill-opacity="0.0" stroke="rgb(0,0,0)" stroke-width="1.3652271218329364" fill="rgb(0,0,0)" stroke-linecap="butt" stroke-miterlimit="10.0"><path d="M 443.3488,314.0022 v 8.1914 "/></g><g stroke-linejoin="miter" stroke-opacity="1.0" fill-opacity="0.6" stroke="rgb(0,0,0)" fill-rule="evenodd" stroke-width="0.0" fill="rgb(0,0,0)" stroke-linecap="butt" stroke-miterlimit="10.0"><path d="M 398.8261,335.7712 ZM 401.0404,326.2893 v 4.6051 c 0.9102,-0.9102 1.7116,-1.1275 2.2414 -1.1275c 0.9781,-0.0000 1.4671,0.7471 1.4671 2.1463v 2.8799 c 0.0000,0.3939 0.1358,0.5977 0.5841 0.5977h 0.2581 c 0.0543,-0.0000 0.1087,0.0408 0.1087 0.1087v 0.2581 l -0.0272,0.0272 c 0.0000,-0.0000 -0.9237,-0.0272 -1.4671 -0.0272c -0.4755,-0.0000 -1.3992,0.0272 -1.3992 0.0272l -0.0272,-0.0272 v -0.2581 c 0.0000,-0.0679 0.0408,-0.1087 0.1087 -0.1087h 0.2581 c 0.4619,-0.0000 0.5841,-0.2038 0.5841 -0.5977v -3.0293 c 0.0000,-1.1003 -0.2989,-1.3584 -1.0596 -1.3584c -0.3939,-0.0000 -0.9781,0.3532 -1.6301 0.9917v 3.3961 c 0.0000,0.3939 0.1358,0.5977 0.5841 0.5977h 0.2581 c 0.0543,-0.0000 0.1087,0.0408 0.1087 0.1087v 0.2581 l -0.0272,0.0272 c 0.0000,-0.0000 -0.9237,-0.0272 -1.4535 -0.0272c -0.4890,-0.0000 -1.3992,0.0272 -1.3992 0.0272l -0.0272,-0.0272 v -0.2581 c 0.0000,-0.0679 0.0272,-0.1087 0.0951 -0.1087h 0.2581 c 0.4619,-0.0000 0.5841,-0.2038 0.5841 -0.5977v -6.8058 c 0.0000,-0.7743 -0.1223,-0.9917 -0.3939 -0.9917l -0.4483,0.0543 c -0.0408,-0.0000 -0.0679,-0.0272 -0.0679 -0.0679l -0.0272,-0.3396 c 0.2173,-0.0000 0.7064,-0.0815 0.9373 -0.1223c 0.2445,-0.0543 0.4483,-0.1087 0.7200 -0.2309h 0.2989 Z"/></g><g stroke-linejoin="miter" stroke-opacity="0.6" fill-opacity="0.0" stroke="rgb(0,0,0)" stroke-width="1.3652271218329364" fill="rgb(0,0,0)" stroke-linecap="butt" stroke-miterlimit="10.0"><path d="M 402.3920,314.0022 v 8.1914 "/></g><g stroke-linejoin="miter" stroke-opacity="1.0" fill-opacity="0.6" stroke="rgb(0,0,0)" fill-rule="evenodd" stroke-width="0.0" fill="rgb(0,0,0)" stroke-linecap="butt" stroke-miterlimit="10.0"><path d="M 358.0391,332.5653 ZM 362.3318,328.7209 c 0.0000,-1.1275 -0.5298,-1.7795 -1.3449 -1.7795c -0.7064,-0.0000 -1.1818,0.4890 -1.1818 1.5486c 0.0000,0.7064 0.2717,1.8203 1.3584 1.8203c 0.4755,-0.0000 1.1683,-0.2309 1.1683 -1.5894ZM 362.3318,328.7209 ZM 359.7915,332.6603 c -0.4211,0.3939 -0.5162,0.8151 -0.5162 1.2769c 0.0000,1.0188 1.2226,1.3177 1.6845 1.3177c 1.1683,-0.0000 2.6489,-0.4075 2.6489 -1.3856c 0.0000,-0.3532 -0.1902,-0.5841 -0.7200 -0.8422c -0.3804,-0.1902 -0.9373,-0.3396 -1.5894 -0.3396c -0.1087,-0.0000 -0.2581,0.0136 -0.4483 0.0272c -0.1902,0.0136 -0.3939,0.0136 -0.5434 0.0136c -0.2173,-0.0000 -0.3260,-0.0272 -0.5162 -0.0679ZM 359.7915,332.6603 ZM 363.9212,327.2945 c -0.2173,-0.0000 -0.3532,-0.1223 -0.4075 -0.2309c -0.0815,-0.1223 -0.1358,-0.1630 -0.2309 -0.1630c -0.1630,-0.0000 -0.4211,0.1902 -0.5162 0.3260c 0.3804,0.4075 0.5570,0.8015 0.5570 1.4399c 0.0000,1.3313 -1.0867,2.0512 -2.2278 2.0512c -0.5026,-0.0000 -0.9102,-0.0951 -1.2226 -0.2853c -0.1494,0.2309 -0.2309,0.5162 -0.2309 0.7879c 0.0000,0.5841 0.4483,0.7336 0.8286 0.7336c 0.0679,-0.0000 0.2309,-0.0136 0.4211 -0.0272c 0.3124,-0.0408 0.6520,-0.0679 0.8830 -0.0679c 0.4755,-0.0000 1.3720,0.0951 1.9154 0.5570c 0.3668,0.3396 0.5705,0.6656 0.5705 1.1003c 0.0000,1.4671 -1.9290,2.2414 -3.6814 2.2414c -0.9917,-0.0000 -2.0920,-0.3668 -2.0920 -1.5486c 0.0000,-0.5841 0.3668,-1.2090 1.0596 -1.6437c -0.3396,-0.1766 -0.5841,-0.5162 -0.5841 -1.0052c 0.0000,-0.4619 0.2038,-1.0460 0.5705 -1.3720c -0.3668,-0.3668 -0.6792,-0.8286 -0.6792 -1.5758c 0.0000,-1.2498 1.1003,-2.0512 2.2550 -2.0512c 0.7607,-0.0000 1.2362,0.3124 1.3856 0.4211c 0.3396,-0.4619 0.9509,-0.6928 1.2905 -0.6928c 0.3532,-0.0000 0.5977,0.2309 0.5977 0.5162c 0.0000,0.2989 -0.1902,0.4890 -0.4619 0.4890Z"/></g><g stroke-linejoin="miter" stroke-opacity="0.6" fill-opacity="0.0" stroke="rgb(0,0,0)" stroke-width="1.3652271218329364" fill="rgb(0,0,0)" stroke-linecap="butt" stroke-miterlimit="10.0"><path d="M 361.4352,314.0022 v 8.1914 "/></g><g stroke-linejoin="miter" stroke-opacity="1.0" fill-opacity="0.6" stroke="rgb(0,0,0)" fill-rule="evenodd" stroke-width="0.0" fill="rgb(0,0,0)" stroke-linecap="butt" stroke-miterlimit="10.0"><path d="M 317.8091,335.7712 ZM 319.0588,334.7931 v -4.3334 h -0.9373 c -0.0543,-0.0000 -0.0679,-0.0136 -0.0679 -0.0679v -0.1902 c 0.0000,-0.1087 0.0679,-0.2717 0.3124 -0.2717h 0.6928 v -0.5298 c 0.0000,-2.1192 1.1003,-3.1108 2.2414 -3.1108c 0.5162,-0.0000 0.8694,0.1358 1.2090 0.3668c 0.2717,0.2038 0.3939,0.4347 0.3939 0.6520c 0.0000,0.2853 -0.2038,0.4890 -0.4619 0.4890c -0.2717,-0.0000 -0.4483,-0.1494 -0.5570 -0.3804c -0.1766,-0.4483 -0.4347,-0.6656 -0.8422 -0.6656c -0.4483,-0.0000 -0.9645,0.3260 -0.9645 2.4180v 0.7607 h 1.4943 c 0.0679,-0.0000 0.1087,0.0272 0.1087 0.0815v 0.2717 c 0.0000,0.1223 -0.1902,0.1766 -0.3124 0.1766h -1.2905 v 4.3334 c 0.0000,0.3939 0.1358,0.5977 0.5841 0.5977h 0.4483 c 0.0543,-0.0000 0.1087,0.0408 0.1087 0.1087v 0.2581 l -0.0272,0.0272 c 0.0000,-0.0000 -1.1139,-0.0272 -1.6437 -0.0272c -0.4890,-0.0000 -1.4128,0.0272 -1.4128 0.0272l -0.0272,-0.0272 v -0.2581 c 0.0000,-0.0679 0.0408,-0.1087 0.1087 -0.1087h 0.2581 c 0.4619,-0.0000 0.5841,-0.2038 0.5841 -0.5977Z"/></g><g stroke-linejoin="miter" stroke-opacity="0.6" fill-opacity="0.0" stroke="rgb(0,0,0)" stroke-width="1.3652271218329364" fill="rgb(0,0,0)" stroke-linecap="butt" stroke-miterlimit="10.0"><path d="M 320.4784,314.0022 v 8.1914 "/></g><g stroke-linejoin="miter" stroke-opacity="1.0" fill-opacity="0.6" stroke="rgb(0,0,0)" fill-rule="evenodd" stroke-width="0.0" fill="rgb(0,0,0)" stroke-linecap="butt" stroke-miterlimit="10.0"><path d="M 276.5874,332.2936 ZM 278.1360,328.5307 h 2.4995 c 0.1358,-0.0000 0.1902,-0.0679 0.1902 -0.1902c 0.0000,-1.2633 -0.6385,-1.5894 -1.1275 -1.5894c -0.3124,-0.0000 -1.3313,0.1223 -1.5622 1.7795ZM 278.1360,328.5307 ZM 281.7223,331.0302 l 0.2717,0.2173 c -0.5162,0.7064 -1.3177,1.2090 -2.2958 1.2090c -1.8611,-0.0000 -2.6489,-1.3856 -2.6489 -2.8663c 0.0000,-2.0648 1.3584,-3.3010 2.6489 -3.3010c 1.7931,-0.0000 2.2142,1.3992 2.2142 2.5403c 0.0000,0.1494 -0.0951,0.2309 -0.2445 0.2309h -3.5727 c -0.0136,0.0815 -0.0136,0.1630 -0.0136 0.2717c 0.0000,1.3856 0.9645,2.4588 1.9426 2.4588c 0.7471,-0.0000 1.2226,-0.2445 1.6980 -0.7607Z"/></g><g stroke-linejoin="miter" stroke-opacity="0.6" fill-opacity="0.0" stroke="rgb(0,0,0)" stroke-width="1.3652271218329364" fill="rgb(0,0,0)" stroke-linecap="butt" stroke-miterlimit="10.0"><path d="M 279.5216,314.0022 v 8.1914 "/></g><g stroke-linejoin="miter" stroke-opacity="1.0" fill-opacity="0.6" stroke="rgb(0,0,0)" fill-rule="evenodd" stroke-width="0.0" fill="rgb(0,0,0)" stroke-linecap="butt" stroke-miterlimit="10.0"><path d="M 235.0193,335.7712 ZM 239.5564,334.5622 v -3.5183 c -0.3260,-0.5162 -0.6928,-0.8015 -1.3313 -0.8015c -0.2717,-0.0000 -0.8286,0.0408 -1.2633 0.6792c -0.1902,0.2853 -0.4211,0.8694 -0.4211 1.8475c 0.0000,1.7795 0.9237,2.5946 1.6573 2.5946c 0.4483,-0.0000 0.8151,-0.2717 1.3584 -0.8015ZM 239.5564,334.5622 ZM 240.5753,326.2893 v 7.8518 c 0.0000,0.4075 0.0272,0.6249 0.0543 0.7200c 0.0408,0.1223 0.1902,0.2038 0.2989 0.2038c 0.1630,-0.0000 0.4619,-0.0000 0.6656 -0.0408l 0.0543,0.3804 c -0.7879,0.1358 -1.4943,0.2853 -1.7795 0.5298h -0.3260 l 0.0408,-0.9373 c -0.5162,0.5298 -1.0460,0.9373 -1.7388 0.9373c -1.4671,-0.0000 -2.3637,-1.2498 -2.3637 -2.9206c 0.0000,-1.0052 0.2717,-1.8475 0.8558 -2.4316c 0.5434,-0.5162 1.1411,-0.8151 2.0377 -0.8151c 0.2717,-0.0000 0.8694,0.1223 1.1818 0.2989v -2.0784 c 0.0000,-0.7743 -0.1223,-0.9917 -0.3939 -0.9917l -0.4483,0.0543 c -0.0272,-0.0000 -0.0679,-0.0272 -0.0679 -0.0679l -0.0272,-0.3396 c 0.2173,-0.0000 0.7064,-0.0815 0.9373 -0.1223c 0.2581,-0.0543 0.4483,-0.1087 0.7200 -0.2309h 0.2989 Z"/></g><g stroke-linejoin="miter" stroke-opacity="0.6" fill-opacity="0.0" stroke="rgb(0,0,0)" stroke-width="1.3652271218329364" fill="rgb(0,0,0)" stroke-linecap="butt" stroke-miterlimit="10.0"><path d="M 238.5648,314.0022 v 8.1914 "/></g><g stroke-linejoin="miter" stroke-opacity="1.0" fill-opacity="0.6" stroke="rgb(0,0,0)" fill-rule="evenodd" stroke-width="0.0" fill="rgb(0,0,0)" stroke-linecap="butt" stroke-miterlimit="10.0"><path d="M 194.7485,332.2936 ZM 199.9649,331.0574 c -0.5977,1.0324 -1.2498,1.3992 -2.0648 1.3992c -1.6301,-0.0000 -2.6489,-1.2362 -2.6489 -2.9886c 0.0000,-1.9290 1.2090,-3.1787 2.6761 -3.1787c 1.3041,-0.0000 1.9969,0.6656 1.9969 1.3856c 0.0000,0.3939 -0.2445,0.5977 -0.5298 0.5977c -0.2853,-0.0000 -0.5570,-0.1494 -0.5977 -0.4890c -0.0543,-0.4483 -0.1358,-1.0324 -0.9373 -1.0324c -0.8966,-0.0000 -1.5622,0.9509 -1.5622 2.4180c 0.0000,1.5894 0.8558,2.6897 1.9018 2.6897c 0.5841,-0.0000 1.1003,-0.3804 1.5214 -0.9917Z"/></g><g stroke-linejoin="miter" stroke-opacity="0.6" fill-opacity="0.0" stroke="rgb(0,0,0)" stroke-width="1.3652271218329364" fill="rgb(0,0,0)" stroke-linecap="butt" stroke-miterlimit="10.0"><path d="M 197.6080,314.0022 v 8.1914 "/></g><g stroke-linejoin="miter" stroke-opacity="1.0" fill-opacity="0.6" stroke="rgb(0,0,0)" fill-rule="evenodd" stroke-width="0.0" fill="rgb(0,0,0)" stroke-linecap="butt" stroke-miterlimit="10.0"><path d="M 153.6218,335.7712 ZM 155.6459,335.0240 c 0.2717,0.3260 0.5570,0.4347 0.9781 0.4347c 1.2905,-0.0000 1.9426,-1.1954 1.9426 -2.7440c 0.0000,-1.3856 -0.7064,-2.3773 -1.5350 -2.3773c -0.1494,-0.0000 -0.8558,0.0272 -1.3856 0.5841v 4.1025 ZM 155.6459,335.0240 ZM 154.6271,327.9873 c 0.0000,-0.7743 -0.1358,-0.9917 -0.4075 -0.9917l -0.4347,0.0543 c -0.0408,-0.0000 -0.0679,-0.0272 -0.0679 -0.0679l -0.0272,-0.3396 c 0.2173,-0.0000 0.7064,-0.0815 0.9373 -0.1223c 0.2445,-0.0543 0.4483,-0.1087 0.7200 -0.2309h 0.2989 v 4.2111 c 0.4619,-0.5026 1.0052,-0.7471 1.6573 -0.7471c 1.1818,-0.0000 2.3093,1.1275 2.3093 2.7848c 0.0000,2.1599 -1.5214,3.3825 -2.9071 3.3825c -0.5841,-0.0000 -1.0188,-0.1630 -1.4128 -0.5026c -0.1223,0.1630 -0.2989,0.3668 -0.4211 0.5026l -0.2853,-0.0679 c 0.0408,-0.3260 0.0408,-0.5434 0.0408 -1.0732v -6.7922 Z"/></g><g stroke-linejoin="miter" stroke-opacity="0.6" fill-opacity="0.0" stroke="rgb(0,0,0)" stroke-width="1.3652271218329364" fill="rgb(0,0,0)" stroke-linecap="butt" stroke-miterlimit="10.0"><path d="M 156.6512,314.0022 v 8.1914 "/></g><g stroke-linejoin="miter" stroke-opacity="1.0" fill-opacity="0.6" stroke="rgb(0,0,0)" fill-rule="evenodd" stroke-width="0.0" fill="rgb(0,0,0)" stroke-linecap="butt" stroke-miterlimit="10.0"><path d="M 112.4205,332.2936 ZM 116.3736,328.9654 l -1.0732,0.2717 c -1.1954,0.3668 -1.3720,0.9917 -1.3720 1.6030c 0.0000,0.4211 0.2038,1.0596 1.0596 1.0596c 0.4075,-0.0000 1.0324,-0.3939 1.3856 -0.6928v -2.2414 ZM 116.3736,328.9654 ZM 117.2430,332.4566 c -0.5162,-0.0000 -0.8015,-0.4619 -0.8558 -0.7879l -0.3124,0.2173 c -0.6249,0.4347 -0.8558,0.5705 -1.4807 0.5705c -0.9509,-0.0000 -1.6437,-0.5434 -1.6437 -1.5622c 0.0000,-1.0324 0.8830,-1.7388 2.1735 -2.0648l 1.2498,-0.3124 c 0.0000,-1.5350 -0.7064,-1.8203 -1.1683 -1.8203c -0.5162,-0.0000 -1.1139,0.2309 -1.1139 0.6520c 0.0000,0.1494 0.0272,0.2309 0.0408 0.2717c 0.0272,0.0543 0.0408,0.1494 0.0408 0.2445c 0.0000,0.1766 -0.1358,0.4483 -0.5298 0.4483c -0.3260,-0.0000 -0.5434,-0.2173 -0.5434 -0.5434c 0.0000,-0.7879 1.2769,-1.4807 2.1463 -1.4807c 0.9917,-0.0000 2.1327,0.4075 2.1327 2.3365v 1.9969 c 0.0000,0.8286 0.0136,1.1818 0.3260 1.1818c 0.2989,-0.0000 0.3804,-0.3804 0.3939 -0.6792l 0.3396,0.0679 c -0.0815,0.9917 -0.5026,1.2633 -1.1954 1.2633Z"/></g><g stroke-linejoin="miter" stroke-opacity="0.6" fill-opacity="0.0" stroke="rgb(0,0,0)" stroke-width="1.3652271218329364" fill="rgb(0,0,0)" stroke-linecap="butt" stroke-miterlimit="10.0"><path d="M 115.6943,314.0022 v 8.1914 "/></g><g stroke-linejoin="miter" stroke-opacity="0.0" fill-opacity="0.0" stroke="rgb(0,0,0)" stroke-width="0.0" fill="rgb(0,0,0)" stroke-linecap="butt" stroke-miterlimit="10.0"><path d="M 504.7841,314.0022 l -0.0000,-273.0454 h -409.5681 l -0.0000,273.0454 Z"/></g><g stroke-linejoin="miter" stroke-opacity="0.4" fill-opacity="0.5" stroke="rgb(85,85,85)" stroke-width="4.095681365498809" fill="rgb(93,165,218)" stroke-linecap="butt" stroke-miterlimit="10.0"><path d="M 504.7841,271.9952 l -0.0000,-21.0035 h -40.9568 l -0.0000,21.0035 Z"/></g><g stroke-linejoin="miter" stroke-opacity="0.4" fill-opacity="0.5" stroke="rgb(85,85,85)" stroke-width="4.095681365498809" fill="rgb(93,165,218)" stroke-linecap="butt" stroke-miterlimit="10.0"><path d="M 463.8273,271.9952 l -0.0000,-42.0070 h -40.9568 l -0.0000,42.0070 Z"/></g><g stroke-linejoin="miter" stroke-opacity="0.4" fill-opacity="0.5" stroke="rgb(85,85,85)" stroke-width="4.095681365498809" fill="rgb(93,165,218)" stroke-linecap="butt" stroke-miterlimit="10.0"><path d="M 422.8704,271.9952 l -0.0000,-231.0384 h -40.9568 l -0.0000,231.0384 Z"/></g><g stroke-linejoin="miter" stroke-opacity="0.4" fill-opacity="0.5" stroke="rgb(85,85,85)" stroke-width="4.095681365498809" fill="rgb(93,165,218)" stroke-linecap="butt" stroke-miterlimit="10.0"><path d="M 381.9136,314.0022 l -0.0000,-42.0070 h -40.9568 l -0.0000,42.0070 Z"/></g><g stroke-linejoin="miter" stroke-opacity="0.4" fill-opacity="0.5" stroke="rgb(85,85,85)" stroke-width="4.095681365498809" fill="rgb(93,165,218)" stroke-linecap="butt" stroke-miterlimit="10.0"><path d="M 340.9568,271.9952 l -0.0000,-0.0000 h -40.9568 l -0.0000,0.0000 Z"/></g><g stroke-linejoin="miter" stroke-opacity="0.4" fill-opacity="0.5" stroke="rgb(85,85,85)" stroke-width="4.095681365498809" fill="rgb(93,165,218)" stroke-linecap="butt" stroke-miterlimit="10.0"><path d="M 300.0000,271.9952 l -0.0000,-168.0280 h -40.9568 l -0.0000,168.0280 Z"/></g><g stroke-linejoin="miter" stroke-opacity="0.4" fill-opacity="0.5" stroke="rgb(85,85,85)" stroke-width="4.095681365498809" fill="rgb(93,165,218)" stroke-linecap="butt" stroke-miterlimit="10.0"><path d="M 259.0432,271.9952 l -0.0000,-105.0175 h -40.9568 l -0.0000,105.0175 Z"/></g><g stroke-linejoin="miter" stroke-opacity="0.4" fill-opacity="0.5" stroke="rgb(85,85,85)" stroke-width="4.095681365498809" fill="rgb(93,165,218)" stroke-linecap="butt" stroke-miterlimit="10.0"><path d="M 218.0864,271.9952 l -0.0000,-63.0105 h -40.9568 l -0.0000,63.0105 Z"/></g><g stroke-linejoin="miter" stroke-opacity="0.4" fill-opacity="0.5" stroke="rgb(85,85,85)" stroke-width="4.095681365498809" fill="rgb(93,165,218)" stroke-linecap="butt" stroke-miterlimit="10.0"><path d="M 177.1296,271.9952 l -0.0000,-42.0070 h -40.9568 l -0.0000,42.0070 Z"/></g><g stroke-linejoin="miter" stroke-opacity="0.4" fill-opacity="0.5" stroke="rgb(85,85,85)" stroke-width="4.095681365498809" fill="rgb(93,165,218)" stroke-linecap="butt" stroke-miterlimit="10.0"><path d="M 136.1727,271.9952 l -0.0000,-21.0035 h -40.9568 l -0.0000,21.0035 Z"/></g></svg>