<?xml version="1.0" encoding="UTF-8"?>
<!DOCTYPE svg PUBLIC "-//W3C//DTD SVG 1.1//EN"
    "http://www.w3.org/Graphics/SVG/1.1/DTD/svg11.dtd"><svg xmlns="http://www.w3.org/2000/svg" height="400.0000" stroke-opacity="1" viewBox="0 0 400 400" font-size="1" width="400.0000" xmlns:xlink="http://www.w3.org/1999/xlink" stroke="rgb(0,0,0)" version="1.1"><defs></defs><g stroke-linejoin="miter" stroke-opacity="1.0" fill-opacity="0.0" stroke="rgb(128,128,128)" stroke-width="1.9999999999999998" fill="rgb(0,0,0)" stroke-linecap="butt" stroke-miterlimit="10.0"><defs><clipPath id="exampleClippingmyClip1"><path d="M 388.6621,76.2812 l -0.0000,-72.5624 h -72.5624 l -0.0000,72.5624 Z"/></clipPath></defs><g clip-path="url(#exampleClippingmyClip1)"><path d="M 86.3190,76.2812 v 290.2494 "/></g></g><g stroke-linejoin="miter" stroke-opacity="0.5" fill-opacity="0.0" stroke="rgb(178,145,47)" stroke-width="7.999999999999999" fill="rgb(0,0,0)" stroke-linecap="butt" stroke-miterlimit="10.0"><defs><clipPath id="exampleClippingmyClip2"><path d="M 388.6621,76.2812 l -0.0000,-72.5624 h -72.5624 l -0.0000,72.5624 Z"/></clipPath></defs><g clip-path="url(#exampleClippingmyClip2)"><path d="M 25.8503,366.5306 l 362.8118,-217.6871 "/></g></g><g stroke-linejoin="miter" stroke-opacity="0.8" fill-opacity="0.0" stroke="rgb(241,88,84)" stroke-width="3.9999999999999996" fill="rgb(0,0,0)" stroke-linecap="butt" stroke-miterlimit="10.0"><defs><clipPath id="exampleClippingmyClip3"><path d="M 388.6621,76.2812 l -0.0000,-72.5624 h -72.5624 l -0.0000,72.5624 Z"/></clipPath></defs><g clip-path="url(#exampleClippingmyClip3)"><path d="M 25.8503,293.9683 h 120.9373 l 120.9373,-290.2494 "/></g></g><g stroke-linejoin="miter" stroke-opacity="0.0" fill-opacity="2.0e-2" stroke="rgb(0,0,0)" stroke-width="0.0" fill="rgb(0,0,0)" stroke-linecap="butt" stroke-miterlimit="10.0"><path d="M 388.6621,76.2812 l -0.0000,-72.5624 h -72.5624 l -0.0000,72.5624 Z"/></g><g stroke-linejoin="miter" stroke-opacity="1.0" fill-opacity="0.0" stroke="rgb(128,128,128)" stroke-width="1.9999999999999998" fill="rgb(0,0,0)" stroke-linecap="butt" stroke-miterlimit="10.0"><defs><clipPath id="exampleClippingmyClip4"><path d="M 312.4717,76.2812 l -0.0000,-72.5624 h -72.5624 l -0.0000,72.5624 Z"/></clipPath></defs><g clip-path="url(#exampleClippingmyClip4)"><path d="M 82.6909,76.2812 v 290.2494 "/></g></g><g stroke-linejoin="miter" stroke-opacity="0.5" fill-opacity="0.0" stroke="rgb(178,145,47)" stroke-width="7.999999999999999" fill="rgb(0,0,0)" stroke-linecap="butt" stroke-miterlimit="10.0"><defs><clipPath id="exampleClippingmyClip5"><path d="M 312.4717,76.2812 l -0.0000,-72.5624 h -72.5624 l -0.0000,72.5624 Z"/></clipPath></defs><g clip-path="url(#exampleClippingmyClip5)"><path d="M 22.2222,366.5306 l 362.8118,-217.6871 "/></g></g><g stroke-linejoin="miter" stroke-opacity="0.8" fill-opacity="0.0" stroke="rgb(241,88,84)" stroke-width="3.9999999999999996" fill="rgb(0,0,0)" stroke-linecap="butt" stroke-miterlimit="10.0"><defs><clipPath id="exampleClippingmyClip6"><path d="M 312.4717,76.2812 l -0.0000,-72.5624 h -72.5624 l -0.0000,72.5624 Z"/></clipPath></defs><g clip-path="url(#exampleClippingmyClip6)"><path d="M 22.2222,293.9683 h 120.9373 l 120.9373,-290.2494 "/></g></g><g stroke-linejoin="miter" stroke-opacity="0.0" fill-opacity="2.0e-2" stroke="rgb(0,0,0)" stroke-width="0.0" fill="rgb(0,0,0)" stroke-linecap="butt" stroke-miterlimit="10.0"><path d="M 312.4717,76.2812 l -0.0000,-72.5624 h -72.5624 l -0.0000,72.5624 Z"/></g><g stroke-linejoin="miter" stroke-opacity="1.0" fill-opacity="0.0" stroke="rgb(128,128,128)" stroke-width="1.9999999999999998" fill="rgb(0,0,0)" stroke-linecap="butt" stroke-miterlimit="10.0"><defs><clipPath id="exampleClippingmyClip7"><path d="M 236.2812,76.2812 l -0.0000,-72.5624 h -72.5624 l -0.0000,72.5624 Z"/></clipPath></defs><g clip-path="url(#exampleClippingmyClip7)"><path d="M 79.0627,76.2812 v 290.2494 "/></g></g><g stroke-linejoin="miter" stroke-opacity="0.5" fill-opacity="0.0" stroke="rgb(178,145,47)" stroke-width="7.999999999999999" fill="rgb(0,0,0)" stroke-linecap="butt" stroke-miterlimit="10.0"><defs><clipPath id="exampleClippingmyClip8"><path d="M 236.2812,76.2812 l -0.0000,-72.5624 h -72.5624 l -0.0000,72.5624 Z"/></clipPath></defs><g clip-path="url(#exampleClippingmyClip8)"><path d="M 18.5941,366.5306 l 362.8118,-217.6871 "/></g></g><g stroke-linejoin="miter" stroke-opacity="0.8" fill-opacity="0.0" stroke="rgb(241,88,84)" stroke-width="3.9999999999999996" fill="rgb(0,0,0)" stroke-linecap="butt" stroke-miterlimit="10.0"><defs><clipPath id="exampleClippingmyClip9"><path d="M 236.2812,76.2812 l -0.0000,-72.5624 h -72.5624 l -0.0000,72.5624 Z"/></clipPath></defs><g clip-path="url(#exampleClippingmyClip9)"><path d="M 18.5941,293.9683 h 120.9373 l 120.9373,-290.2494 "/></g></g><g stroke-linejoin="miter" stroke-opacity="0.0" fill-opacity="2.0e-2" stroke="rgb(0,0,0)" stroke-width="0.0" fill="rgb(0,0,0)" stroke-linecap="butt" stroke-miterlimit="10.0"><path d="M 236.2812,76.2812 l -0.0000,-72.5624 h -72.5624 l -0.0000,72.5624 Z"/></g><g stroke-linejoin="miter" stroke-opacity="1.0" fill-opacity="0.0" stroke="rgb(128,128,128)" stroke-width="1.9999999999999998" fill="rgb(0,0,0)" stroke-linecap="butt" stroke-miterlimit="10.0"><defs><clipPath id="exampleClippingmyClip10"><path d="M 160.0907,76.2812 l -0.0000,-72.5624 h -72.5624 l -0.0000,72.5624 Z"/></clipPath></defs><g clip-path="url(#exampleClippingmyClip10)"><path d="M 75.4346,76.2812 v 290.2494 "/></g></g><g stroke-linejoin="miter" stroke-opacity="0.5" fill-opacity="0.0" stroke="rgb(178,145,47)" stroke-width="7.999999999999999" fill="rgb(0,0,0)" stroke-linecap="butt" stroke-miterlimit="10.0"><defs><clipPath id="exampleClippingmyClip11"><path d="M 160.0907,76.2812 l -0.0000,-72.5624 h -72.5624 l -0.0000,72.5624 Z"/></clipPath></defs><g clip-path="url(#exampleClippingmyClip11)"><path d="M 14.9660,366.5306 l 362.8118,-217.6871 "/></g></g><g stroke-linejoin="miter" stroke-opacity="0.8" fill-opacity="0.0" stroke="rgb(241,88,84)" stroke-width="3.9999999999999996" fill="rgb(0,0,0)" stroke-linecap="butt" stroke-miterlimit="10.0"><defs><clipPath id="exampleClippingmyClip12"><path d="M 160.0907,76.2812 l -0.0000,-72.5624 h -72.5624 l -0.0000,72.5624 Z"/></clipPath></defs><g clip-path="url(#exampleClippingmyClip12)"><path d="M 14.9660,293.9683 h 120.9373 l 120.9373,-290.2494 "/></g></g><g stroke-linejoin="miter" stroke-opacity="0.0" fill-opacity="2.0e-2" stroke="rgb(0,0,0)" stroke-width="0.0" fill="rgb(0,0,0)" stroke-linecap="butt" stroke-miterlimit="10.0"><path d="M 160.0907,76.2812 l -0.0000,-72.5624 h -72.5624 l -0.0000,72.5624 Z"/></g><g stroke-linejoin="miter" stroke-opacity="1.0" fill-opacity="0.0" stroke="rgb(128,128,128)" stroke-width="1.9999999999999998" fill="rgb(0,0,0)" stroke-linecap="butt" stroke-miterlimit="10.0"><defs><clipPath id="exampleClippingmyClip13"><path d="M 83.9002,76.2812 l -0.0000,-72.5624 h -72.5624 l -0.0000,72.5624 Z"/></clipPath></defs><g clip-path="url(#exampleClippingmyClip13)"><path d="M 71.8065,76.2812 v 290.2494 "/></g></g><g stroke-linejoin="miter" stroke-opacity="0.5" fill-opacity="0.0" stroke="rgb(178,145,47)" stroke-width="7.999999999999999" fill="rgb(0,0,0)" stroke-linecap="butt" stroke-miterlimit="10.0"><defs><clipPath id="exampleClippingmyClip14"><path d="M 83.9002,76.2812 l -0.0000,-72.5624 h -72.5624 l -0.0000,72.5624 Z"/></clipPath></defs><g clip-path="url(#exampleClippingmyClip14)"><path d="M 11.3379,366.5306 l 362.8118,-217.6871 "/></g></g><g stroke-linejoin="miter" stroke-opacity="0.8" fill-opacity="0.0" stroke="rgb(241,88,84)" stroke-width="3.9999999999999996" fill="rgb(0,0,0)" stroke-linecap="butt" stroke-miterlimit="10.0"><defs><clipPath id="exampleClippingmyClip15"><path d="M 83.9002,76.2812 l -0.0000,-72.5624 h -72.5624 l -0.0000,72.5624 Z"/></clipPath></defs><g clip-path="url(#exampleClippingmyClip15)"><path d="M 11.3379,293.9683 h 120.9373 l 120.9373,-290.2494 "/></g></g><g stroke-linejoin="miter" stroke-opacity="0.0" fill-opacity="2.0e-2" stroke="rgb(0,0,0)" stroke-width="0.0" fill="rgb(0,0,0)" stroke-linecap="butt" stroke-miterlimit="10.0"><path d="M 83.9002,76.2812 l -0.0000,-72.5624 h -72.5624 l -0.0000,72.5624 Z"/></g><g stroke-linejoin="miter" stroke-opacity="1.0" fill-opacity="0.0" stroke="rgb(128,128,128)" stroke-width="1.9999999999999998" fill="rgb(0,0,0)" stroke-linecap="butt" stroke-miterlimit="10.0"><defs><clipPath id="exampleClippingmyClip16"><path d="M 388.6621,156.2812 l -0.0000,-72.5624 h -72.5624 l -0.0000,72.5624 Z"/></clipPath></defs><g clip-path="url(#exampleClippingmyClip16)"><path d="M 86.3190,83.7188 v 290.2494 "/></g></g><g stroke-linejoin="miter" stroke-opacity="0.5" fill-opacity="0.0" stroke="rgb(178,145,47)" stroke-width="7.999999999999999" fill="rgb(0,0,0)" stroke-linecap="butt" stroke-miterlimit="10.0"><defs><clipPath id="exampleClippingmyClip17"><path d="M 388.6621,156.2812 l -0.0000,-72.5624 h -72.5624 l -0.0000,72.5624 Z"/></clipPath></defs><g clip-path="url(#exampleClippingmyClip17)"><path d="M 25.8503,373.9683 l 362.8118,-217.6871 "/></g></g><g stroke-linejoin="miter" stroke-opacity="0.8" fill-opacity="0.0" stroke="rgb(241,88,84)" stroke-width="3.9999999999999996" fill="rgb(0,0,0)" stroke-linecap="butt" stroke-miterlimit="10.0"><defs><clipPath id="exampleClippingmyClip18"><path d="M 388.6621,156.2812 l -0.0000,-72.5624 h -72.5624 l -0.0000,72.5624 Z"/></clipPath></defs><g clip-path="url(#exampleClippingmyClip18)"><path d="M 25.8503,301.4059 h 120.9373 l 120.9373,-290.2494 "/></g></g><g stroke-linejoin="miter" stroke-opacity="0.0" fill-opacity="2.0e-2" stroke="rgb(0,0,0)" stroke-width="0.0" fill="rgb(0,0,0)" stroke-linecap="butt" stroke-miterlimit="10.0"><path d="M 388.6621,156.2812 l -0.0000,-72.5624 h -72.5624 l -0.0000,72.5624 Z"/></g><g stroke-linejoin="miter" stroke-opacity="1.0" fill-opacity="0.0" stroke="rgb(128,128,128)" stroke-width="1.9999999999999998" fill="rgb(0,0,0)" stroke-linecap="butt" stroke-miterlimit="10.0"><defs><clipPath id="exampleClippingmyClip19"><path d="M 312.4717,156.2812 l -0.0000,-72.5624 h -72.5624 l -0.0000,72.5624 Z"/></clipPath></defs><g clip-path="url(#exampleClippingmyClip19)"><path d="M 82.6909,83.7188 v 290.2494 "/></g></g><g stroke-linejoin="miter" stroke-opacity="0.5" fill-opacity="0.0" stroke="rgb(178,145,47)" stroke-width="7.999999999999999" fill="rgb(0,0,0)" stroke-linecap="butt" stroke-miterlimit="10.0"><defs><clipPath id="exampleClippingmyClip20"><path d="M 312.4717,156.2812 l -0.0000,-72.5624 h -72.5624 l -0.0000,72.5624 Z"/></clipPath></defs><g clip-path="url(#exampleClippingmyClip20)"><path d="M 22.2222,373.9683 l 362.8118,-217.6871 "/></g></g><g stroke-linejoin="miter" stroke-opacity="0.8" fill-opacity="0.0" stroke="rgb(241,88,84)" stroke-width="3.9999999999999996" fill="rgb(0,0,0)" stroke-linecap="butt" stroke-miterlimit="10.0"><defs><clipPath id="exampleClippingmyClip21"><path d="M 312.4717,156.2812 l -0.0000,-72.5624 h -72.5624 l -0.0000,72.5624 Z"/></clipPath></defs><g clip-path="url(#exampleClippingmyClip21)"><path d="M 22.2222,301.4059 h 120.9373 l 120.9373,-290.2494 "/></g></g><g stroke-linejoin="miter" stroke-opacity="0.0" fill-opacity="2.0e-2" stroke="rgb(0,0,0)" stroke-width="0.0" fill="rgb(0,0,0)" stroke-linecap="butt" stroke-miterlimit="10.0"><path d="M 312.4717,156.2812 l -0.0000,-72.5624 h -72.5624 l -0.0000,72.5624 Z"/></g><g stroke-linejoin="miter" stroke-opacity="1.0" fill-opacity="0.0" stroke="rgb(128,128,128)" stroke-width="1.9999999999999998" fill="rgb(0,0,0)" stroke-linecap="butt" stroke-miterlimit="10.0"><defs><clipPath id="exampleClippingmyClip22"><path d="M 236.2812,156.2812 l -0.0000,-72.5624 h -72.5624 l -0.0000,72.5624 Z"/></clipPath></defs><g clip-path="url(#exampleClippingmyClip22)"><path d="M 79.0627,83.7188 v 290.2494 "/></g></g><g stroke-linejoin="miter" stroke-opacity="0.5" fill-opacity="0.0" stroke="rgb(178,145,47)" stroke-width="7.999999999999999" fill="rgb(0,0,0)" stroke-linecap="butt" stroke-miterlimit="10.0"><defs><clipPath id="exampleClippingmyClip23"><path d="M 236.2812,156.2812 l -0.0000,-72.5624 h -72.5624 l -0.0000,72.5624 Z"/></clipPath></defs><g clip-path="url(#exampleClippingmyClip23)"><path d="M 18.5941,373.9683 l 362.8118,-217.6871 "/></g></g><g stroke-linejoin="miter" stroke-opacity="0.8" fill-opacity="0.0" stroke="rgb(241,88,84)" stroke-width="3.9999999999999996" fill="rgb(0,0,0)" stroke-linecap="butt" stroke-miterlimit="10.0"><defs><clipPath id="exampleClippingmyClip24"><path d="M 236.2812,156.2812 l -0.0000,-72.5624 h -72.5624 l -0.0000,72.5624 Z"/></clipPath></defs><g clip-path="url(#exampleClippingmyClip24)"><path d="M 18.5941,301.4059 h 120.9373 l 120.9373,-290.2494 "/></g></g><g stroke-linejoin="miter" stroke-opacity="0.0" fill-opacity="2.0e-2" stroke="rgb(0,0,0)" stroke-width="0.0" fill="rgb(0,0,0)" stroke-linecap="butt" stroke-miterlimit="10.0"><path d="M 236.2812,156.2812 l -0.0000,-72.5624 h -72.5624 l -0.0000,72.5624 Z"/></g><g stroke-linejoin="miter" stroke-opacity="1.0" fill-opacity="0.0" stroke="rgb(128,128,128)" stroke-width="1.9999999999999998" fill="rgb(0,0,0)" stroke-linecap="butt" stroke-miterlimit="10.0"><defs><clipPath id="exampleClippingmyClip25"><path d="M 160.0907,156.2812 l -0.0000,-72.5624 h -72.5624 l -0.0000,72.5624 Z"/></clipPath></defs><g clip-path="url(#exampleClippingmyClip25)"><path d="M 75.4346,83.7188 v 290.2494 "/></g></g><g stroke-linejoin="miter" stroke-opacity="0.5" fill-opacity="0.0" stroke="rgb(178,145,47)" stroke-width="7.999999999999999" fill="rgb(0,0,0)" stroke-linecap="butt" stroke-miterlimit="10.0"><defs><clipPath id="exampleClippingmyClip26"><path d="M 160.0907,156.2812 l -0.0000,-72.5624 h -72.5624 l -0.0000,72.5624 Z"/></clipPath></defs><g clip-path="url(#exampleClippingmyClip26)"><path d="M 14.9660,373.9683 l 362.8118,-217.6871 "/></g></g><g stroke-linejoin="miter" stroke-opacity="0.8" fill-opacity="0.0" stroke="rgb(241,88,84)" stroke-width="3.9999999999999996" fill="rgb(0,0,0)" stroke-linecap="butt" stroke-miterlimit="10.0"><defs><clipPath id="exampleClippingmyClip27"><path d="M 160.0907,156.2812 l -0.0000,-72.5624 h -72.5624 l -0.0000,72.5624 Z"/></clipPath></defs><g clip-path="url(#exampleClippingmyClip27)"><path d="M 14.9660,301.4059 h 120.9373 l 120.9373,-290.2494 "/></g></g><g stroke-linejoin="miter" stroke-opacity="0.0" fill-opacity="2.0e-2" stroke="rgb(0,0,0)" stroke-width="0.0" fill="rgb(0,0,0)" stroke-linecap="butt" stroke-miterlimit="10.0"><path d="M 160.0907,156.2812 l -0.0000,-72.5624 h -72.5624 l -0.0000,72.5624 Z"/></g><g stroke-linejoin="miter" stroke-opacity="1.0" fill-opacity="0.0" stroke="rgb(128,128,128)" stroke-width="1.9999999999999998" fill="rgb(0,0,0)" stroke-linecap="butt" stroke-miterlimit="10.0"><defs><clipPath id="exampleClippingmyClip28"><path d="M 83.9002,156.2812 l -0.0000,-72.5624 h -72.5624 l -0.0000,72.5624 Z"/></clipPath></defs><g clip-path="url(#exampleClippingmyClip28)"><path d="M 71.8065,83.7188 v 290.2494 "/></g></g><g stroke-linejoin="miter" stroke-opacity="0.5" fill-opacity="0.0" stroke="rgb(178,145,47)" stroke-width="7.999999999999999" fill="rgb(0,0,0)" stroke-linecap="butt" stroke-miterlimit="10.0"><defs><clipPath id="exampleClippingmyClip29"><path d="M 83.9002,156.2812 l -0.0000,-72.5624 h -72.5624 l -0.0000,72.5624 Z"/></clipPath></defs><g clip-path="url(#exampleClippingmyClip29)"><path d="M 11.3379,373.9683 l 362.8118,-217.6871 "/></g></g><g stroke-linejoin="miter" stroke-opacity="0.8" fill-opacity="0.0" stroke="rgb(241,88,84)" stroke-width="3.9999999999999996" fill="rgb(0,0,0)" stroke-linecap="butt" stroke-miterlimit="10.0"><defs><clipPath id="exampleClippingmyClip30"><path d="M 83.9002,156.2812 l -0.0000,-72.5624 h -72.5624 l -0.0000,72.5624 Z"/></clipPath></defs><g clip-path="url(#exampleClippingmyClip30)"><path d="M 11.3379,301.4059 h 120.9373 l 120.9373,-290.2494 "/></g></g><g stroke-linejoin="miter" stroke-opacity="0.0" fill-opacity="2.0e-2" stroke="rgb(0,0,0)" stroke-width="0.0" fill="rgb(0,0,0)" stroke-linecap="butt" stroke-miterlimit="10.0"><path d="M 83.9002,156.2812 l -0.0000,-72.5624 h -72.5624 l -0.0000,72.5624 Z"/></g><g stroke-linejoin="miter" stroke-opacity="1.0" fill-opacity="0.0" stroke="rgb(128,128,128)" stroke-width="1.9999999999999998" fill="rgb(0,0,0)" stroke-linecap="butt" stroke-miterlimit="10.0"><defs><clipPath id="exampleClippingmyClip31"><path d="M 388.6621,236.2812 l -0.0000,-72.5624 h -72.5624 l -0.0000,72.5624 Z"/></clipPath></defs><g clip-path="url(#exampleClippingmyClip31)"><path d="M 86.3190,91.1565 v 290.2494 "/></g></g><g stroke-linejoin="miter" stroke-opacity="0.5" fill-opacity="0.0" stroke="rgb(178,145,47)" stroke-width="7.999999999999999" fill="rgb(0,0,0)" stroke-linecap="butt" stroke-miterlimit="10.0"><defs><clipPath id="exampleClippingmyClip32"><path d="M 388.6621,236.2812 l -0.0000,-72.5624 h -72.5624 l -0.0000,72.5624 Z"/></clipPath></defs><g clip-path="url(#exampleClippingmyClip32)"><path d="M 25.8503,381.4059 l 362.8118,-217.6871 "/></g></g><g stroke-linejoin="miter" stroke-opacity="0.8" fill-opacity="0.0" stroke="rgb(241,88,84)" stroke-width="3.9999999999999996" fill="rgb(0,0,0)" stroke-linecap="butt" stroke-miterlimit="10.0"><defs><clipPath id="exampleClippingmyClip33"><path d="M 388.6621,236.2812 l -0.0000,-72.5624 h -72.5624 l -0.0000,72.5624 Z"/></clipPath></defs><g clip-path="url(#exampleClippingmyClip33)"><path d="M 25.8503,308.8435 h 120.9373 l 120.9373,-290.2494 "/></g></g><g stroke-linejoin="miter" stroke-opacity="0.0" fill-opacity="2.0e-2" stroke="rgb(0,0,0)" stroke-width="0.0" fill="rgb(0,0,0)" stroke-linecap="butt" stroke-miterlimit="10.0"><path d="M 388.6621,236.2812 l -0.0000,-72.5624 h -72.5624 l -0.0000,72.5624 Z"/></g><g stroke-linejoin="miter" stroke-opacity="1.0" fill-opacity="0.0" stroke="rgb(128,128,128)" stroke-width="1.9999999999999998" fill="rgb(0,0,0)" stroke-linecap="butt" stroke-miterlimit="10.0"><defs><clipPath id="exampleClippingmyClip34"><path d="M 312.4717,236.2812 l -0.0000,-72.5624 h -72.5624 l -0.0000,72.5624 Z"/></clipPath></defs><g clip-path="url(#exampleClippingmyClip34)"><path d="M 82.6909,91.1565 v 290.2494 "/></g></g><g stroke-linejoin="miter" stroke-opacity="0.5" fill-opacity="0.0" stroke="rgb(178,145,47)" stroke-width="7.999999999999999" fill="rgb(0,0,0)" stroke-linecap="butt" stroke-miterlimit="10.0"><defs><clipPath id="exampleClippingmyClip35"><path d="M 312.4717,236.2812 l -0.0000,-72.5624 h -72.5624 l -0.0000,72.5624 Z"/></clipPath></defs><g clip-path="url(#exampleClippingmyClip35)"><path d="M 22.2222,381.4059 l 362.8118,-217.6871 "/></g></g><g stroke-linejoin="miter" stroke-opacity="0.8" fill-opacity="0.0" stroke="rgb(241,88,84)" stroke-width="3.9999999999999996" fill="rgb(0,0,0)" stroke-linecap="butt" stroke-miterlimit="10.0"><defs><clipPath id="exampleClippingmyClip36"><path d="M 312.4717,236.2812 l -0.0000,-72.5624 h -72.5624 l -0.0000,72.5624 Z"/></clipPath></defs><g clip-path="url(#exampleClippingmyClip36)"><path d="M 22.2222,308.8435 h 120.9373 l 120.9373,-290.2494 "/></g></g><g stroke-linejoin="miter" stroke-opacity="0.0" fill-opacity="2.0e-2" stroke="rgb(0,0,0)" stroke-width="0.0" fill="rgb(0,0,0)" stroke-linecap="butt" stroke-miterlimit="10.0"><path d="M 312.4717,236.2812 l -0.0000,-72.5624 h -72.5624 l -0.0000,72.5624 Z"/></g><g stroke-linejoin="miter" stroke-opacity="1.0" fill-opacity="0.0" stroke="rgb(128,128,128)" stroke-width="1.9999999999999998" fill="rgb(0,0,0)" stroke-linecap="butt" stroke-miterlimit="10.0"><defs><clipPath id="exampleClippingmyClip37"><path d="M 236.2812,236.2812 l -0.0000,-72.5624 h -72.5624 l -0.0000,72.5624 Z"/></clipPath></defs><g clip-path="url(#exampleClippingmyClip37)"><path d="M 79.0627,91.1565 v 290.2494 "/></g></g><g stroke-linejoin="miter" stroke-opacity="0.5" fill-opacity="0.0" stroke="rgb(178,145,47)" stroke-width="7.999999999999999" fill="rgb(0,0,0)" stroke-linecap="butt" stroke-miterlimit="10.0"><defs><clipPath id="exampleClippingmyClip38"><path d="M 236.2812,236.2812 l -0.0000,-72.5624 h -72.5624 l -0.0000,72.5624 Z"/></clipPath></defs><g clip-path="url(#exampleClippingmyClip38)"><path d="M 18.5941,381.4059 l 362.8118,-217.6871 "/></g></g><g stroke-linejoin="miter" stroke-opacity="0.8" fill-opacity="0.0" stroke="rgb(241,88,84)" stroke-width="3.9999999999999996" fill="rgb(0,0,0)" stroke-linecap="butt" stroke-miterlimit="10.0"><defs><clipPath id="exampleClippingmyClip39"><path d="M 236.2812,236.2812 l -0.0000,-72.5624 h -72.5624 l -0.0000,72.5624 Z"/></clipPath></defs><g clip-path="url(#exampleClippingmyClip39)"><path d="M 18.5941,308.8435 h 120.9373 l 120.9373,-290.2494 "/></g></g><g stroke-linejoin="miter" stroke-opacity="0.0" fill-opacity="2.0e-2" stroke="rgb(0,0,0)" stroke-width="0.0" fill="rgb(0,0,0)" stroke-linecap="butt" stroke-miterlimit="10.0"><path d="M 236.2812,236.2812 l -0.0000,-72.5624 h -72.5624 l -0.0000,72.5624 Z"/></g><g stroke-linejoin="miter" stroke-opacity="1.0" fill-opacity="0.0" stroke="rgb(128,128,128)" stroke-width="1.9999999999999998" fill="rgb(0,0,0)" stroke-linecap="butt" stroke-miterlimit="10.0"><defs><clipPath id="exampleClippingmyClip40"><path d="M 160.0907,236.2812 l -0.0000,-72.5624 h -72.5624 l -0.0000,72.5624 Z"/></clipPath></defs><g clip-path="url(#exampleClippingmyClip40)"><path d="M 75.4346,91.1565 v 290.2494 "/></g></g><g stroke-linejoin="miter" stroke-opacity="0.5" fill-opacity="0.0" stroke="rgb(178,145,47)" stroke-width="7.999999999999999" fill="rgb(0,0,0)" stroke-linecap="butt" stroke-miterlimit="10.0"><defs><clipPath id="exampleClippingmyClip41"><path d="M 160.0907,236.2812 l -0.0000,-72.5624 h -72.5624 l -0.0000,72.5624 Z"/></clipPath></defs><g clip-path="url(#exampleClippingmyClip41)"><path d="M 14.9660,381.4059 l 362.8118,-217.6871 "/></g></g><g stroke-linejoin="miter" stroke-opacity="0.8" fill-opacity="0.0" stroke="rgb(241,88,84)" stroke-width="3.9999999999999996" fill="rgb(0,0,0)" stroke-linecap="butt" stroke-miterlimit="10.0"><defs><clipPath id="exampleClippingmyClip42"><path d="M 160.0907,236.2812 l -0.0000,-72.5624 h -72.5624 l -0.0000,72.5624 Z"/></clipPath></defs><g clip-path="url(#exampleClippingmyClip42)"><path d="M 14.9660,308.8435 h 120.9373 l 120.9373,-290.2494 "/></g></g><g stroke-linejoin="miter" stroke-opacity="0.0" fill-opacity="2.0e-2" stroke="rgb(0,0,0)" stroke-width="0.0" fill="rgb(0,0,0)" stroke-linecap="butt" stroke-miterlimit="10.0"><path d="M 160.0907,236.2812 l -0.0000,-72.5624 h -72.5624 l -0.0000,72.5624 Z"/></g><g stroke-linejoin="miter" stroke-opacity="1.0" fill-opacity="0.0" stroke="rgb(128,128,128)" stroke-width="1.9999999999999998" fill="rgb(0,0,0)" stroke-linecap="butt" stroke-miterlimit="10.0"><defs><clipPath id="exampleClippingmyClip43"><path d="M 83.9002,236.2812 l -0.0000,-72.5624 h -72.5624 l -0.0000,72.5624 Z"/></clipPath></defs><g clip-path="url(#exampleClippingmyClip43)"><path d="M 71.8065,91.1565 v 290.2494 "/></g></g><g stroke-linejoin="miter" stroke-opacity="0.5" fill-opacity="0.0" stroke="rgb(178,145,47)" stroke-width="7.999999999999999" fill="rgb(0,0,0)" stroke-linecap="butt" stroke-miterlimit="10.0"><defs><clipPath id="exampleClippingmyClip44"><path d="M 83.9002,236.2812 l -0.0000,-72.5624 h -72.5624 l -0.0000,72.5624 Z"/></clipPath></defs><g clip-path="url(#exampleClippingmyClip44)"><path d="M 11.3379,381.4059 l 362.8118,-217.6871 "/></g></g><g stroke-linejoin="miter" stroke-opacity="0.8" fill-opacity="0.0" stroke="rgb(241,88,84)" stroke-width="3.9999999999999996" fill="rgb(0,0,0)" stroke-linecap="butt" stroke-miterlimit="10.0"><defs><clipPath id="exampleClippingmyClip45"><path d="M 83.9002,236.2812 l -0.0000,-72.5624 h -72.5624 l -0.0000,72.5624 Z"/></clipPath></defs><g clip-path="url(#exampleClippingmyClip45)"><path d="M 11.3379,308.8435 h 120.9373 l 120.9373,-290.2494 "/></g></g><g stroke-linejoin="miter" stroke-opacity="0.0" fill-opacity="2.0e-2" stroke="rgb(0,0,0)" stroke-width="0.0" fill="rgb(0,0,0)" stroke-linecap="butt" stroke-miterlimit="10.0"><path d="M 83.9002,236.2812 l -0.0000,-72.5624 h -72.5624 l -0.0000,72.5624 Z"/></g><g stroke-linejoin="miter" stroke-opacity="1.0" fill-opacity="0.0" stroke="rgb(128,128,128)" stroke-width="1.9999999999999998" fill="rgb(0,0,0)" stroke-linecap="butt" stroke-miterlimit="10.0"><defs><clipPath id="exampleClippingmyClip46"><path d="M 388.6621,316.2812 l -0.0000,-72.5624 h -72.5624 l -0.0000,72.5624 Z"/></clipPath></defs><g clip-path="url(#exampleClippingmyClip46)"><path d="M 86.3190,98.5941 v 290.2494 "/></g></g><g stroke-linejoin="miter" stroke-opacity="0.5" fill-opacity="0.0" stroke="rgb(178,145,47)" stroke-width="7.999999999999999" fill="rgb(0,0,0)" stroke-linecap="butt" stroke-miterlimit="10.0"><defs><clipPath id="exampleClippingmyClip47"><path d="M 388.6621,316.2812 l -0.0000,-72.5624 h -72.5624 l -0.0000,72.5624 Z"/></clipPath></defs><g clip-path="url(#exampleClippingmyClip47)"><path d="M 25.8503,388.8435 l 362.8118,-217.6871 "/></g></g><g stroke-linejoin="miter" stroke-opacity="0.8" fill-opacity="0.0" stroke="rgb(241,88,84)" stroke-width="3.9999999999999996" fill="rgb(0,0,0)" stroke-linecap="butt" stroke-miterlimit="10.0"><defs><clipPath id="exampleClippingmyClip48"><path d="M 388.6621,316.2812 l -0.0000,-72.5624 h -72.5624 l -0.0000,72.5624 Z"/></clipPath></defs><g clip-path="url(#exampleClippingmyClip48)"><path d="M 25.8503,316.2812 h 120.9373 l 120.9373,-290.2494 "/></g></g><g stroke-linejoin="miter" stroke-opacity="0.0" fill-opacity="2.0e-2" stroke="rgb(0,0,0)" stroke-width="0.0" fill="rgb(0,0,0)" stroke-linecap="butt" stroke-miterlimit="10.0"><path d="M 388.6621,316.2812 l -0.0000,-72.5624 h -72.5624 l -0.0000,72.5624 Z"/></g><g stroke-linejoin="miter" stroke-opacity="1.0" fill-opacity="0.0" stroke="rgb(128,128,128)" stroke-width="1.9999999999999998" fill="rgb(0,0,0)" stroke-linecap="butt" stroke-miterlimit="10.0"><defs><clipPath id="exampleClippingmyClip49"><path d="M 312.4717,316.2812 l -0.0000,-72.5624 h -72.5624 l -0.0000,72.5624 Z"/></clipPath></defs><g clip-path="url(#exampleClippingmyClip49)"><path d="M 82.6909,98.5941 v 290.2494 "/></g></g><g stroke-linejoin="miter" stroke-opacity="0.5" fill-opacity="0.0" stroke="rgb(178,145,47)" stroke-width="7.999999999999999" fill="rgb(0,0,0)" stroke-linecap="butt" stroke-miterlimit="10.0"><defs><clipPath id="exampleClippingmyClip50"><path d="M 312.4717,316.2812 l -0.0000,-72.5624 h -72.5624 l -0.0000,72.5624 Z"/></clipPath></defs><g clip-path="url(#exampleClippingmyClip50)"><path d="M 22.2222,388.8435 l 362.8118,-217.6871 "/></g></g><g stroke-linejoin="miter" stroke-opacity="0.8" fill-opacity="0.0" stroke="rgb(241,88,84)" stroke-width="3.9999999999999996" fill="rgb(0,0,0)" stroke-linecap="butt" stroke-miterlimit="10.0"><defs><clipPath id="exampleClippingmyClip51"><path d="M 312.4717,316.2812 l -0.0000,-72.5624 h -72.5624 l -0.0000,72.5624 Z"/></clipPath></defs><g clip-path="url(#exampleClippingmyClip51)"><path d="M 22.2222,316.2812 h 120.9373 l 120.9373,-290.2494 "/></g></g><g stroke-linejoin="miter" stroke-opacity="0.0" fill-opacity="2.0e-2" stroke="rgb(0,0,0)" stroke-width="0.0" fill="rgb(0,0,0)" stroke-linecap="butt" stroke-miterlimit="10.0"><path d="M 312.4717,316.2812 l -0.0000,-72.5624 h -72.5624 l -0.0000,72.5624 Z"/></g><g stroke-linejoin="miter" stroke-opacity="1.0" fill-opacity="0.0" stroke="rgb(128,128,128)" stroke-width="1.9999999999999998" fill="rgb(0,0,0)" stroke-linecap="butt" stroke-miterlimit="10.0"><defs><clipPath id="exampleClippingmyClip52"><path d="M 236.2812,316.2812 l -0.0000,-72.5624 h -72.5624 l -0.0000,72.5624 Z"/></clipPath></defs><g clip-path="url(#exampleClippingmyClip52)"><path d="M 79.0627,98.5941 v 290.2494 "/></g></g><g stroke-linejoin="miter" stroke-opacity="0.5" fill-opacity="0.0" stroke="rgb(178,145,47)" stroke-width="7.999999999999999" fill="rgb(0,0,0)" stroke-linecap="butt" stroke-miterlimit="10.0"><defs><clipPath id="exampleClippingmyClip53"><path d="M 236.2812,316.2812 l -0.0000,-72.5624 h -72.5624 l -0.0000,72.5624 Z"/></clipPath></defs><g clip-path="url(#exampleClippingmyClip53)"><path d="M 18.5941,388.8435 l 362.8118,-217.6871 "/></g></g><g stroke-linejoin="miter" stroke-opacity="0.8" fill-opacity="0.0" stroke="rgb(241,88,84)" stroke-width="3.9999999999999996" fill="rgb(0,0,0)" stroke-linecap="butt" stroke-miterlimit="10.0"><defs><clipPath id="exampleClippingmyClip54"><path d="M 236.2812,316.2812 l -0.0000,-72.5624 h -72.5624 l -0.0000,72.5624 Z"/></clipPath></defs><g clip-path="url(#exampleClippingmyClip54)"><path d="M 18.5941,316.2812 h 120.9373 l 120.9373,-290.2494 "/></g></g><g stroke-linejoin="miter" stroke-opacity="0.0" fill-opacity="2.0e-2" stroke="rgb(0,0,0)" stroke-width="0.0" fill="rgb(0,0,0)" stroke-linecap="butt" stroke-miterlimit="10.0"><path d="M 236.2812,316.2812 l -0.0000,-72.5624 h -72.5624 l -0.0000,72.5624 Z"/></g><g stroke-linejoin="miter" stroke-opacity="1.0" fill-opacity="0.0" stroke="rgb(128,128,128)" stroke-width="1.9999999999999998" fill="rgb(0,0,0)" stroke-linecap="butt" stroke-miterlimit="10.0"><defs><clipPath id="exampleClippingmyClip55"><path d="M 160.0907,316.2812 l -0.0000,-72.5624 h -72.5624 l -0.0000,72.5624 Z"/></clipPath></defs><g clip-path="url(#exampleClippingmyClip55)"><path d="M 75.4346,98.5941 v 290.2494 "/></g></g><g stroke-linejoin="miter" stroke-opacity="0.5" fill-opacity="0.0" stroke="rgb(178,145,47)" stroke-width="7.999999999999999" fill="rgb(0,0,0)" stroke-linecap="butt" stroke-miterlimit="10.0"><defs><clipPath id="exampleClippingmyClip56"><path d="M 160.0907,316.2812 l -0.0000,-72.5624 h -72.5624 l -0.0000,72.5624 Z"/></clipPath></defs><g clip-path="url(#exampleClippingmyClip56)"><path d="M 14.9660,388.8435 l 362.8118,-217.6871 "/></g></g><g stroke-linejoin="miter" stroke-opacity="0.8" fill-opacity="0.0" stroke="rgb(241,88,84)" stroke-width="3.9999999999999996" fill="rgb(0,0,0)" stroke-linecap="butt" stroke-miterlimit="10.0"><defs><clipPath id="exampleClippingmyClip57"><path d="M 160.0907,316.2812 l -0.0000,-72.5624 h -72.5624 l -0.0000,72.5624 Z"/></clipPath></defs><g clip-path="url(#exampleClippingmyClip57)"><path d="M 14.9660,316.2812 h 120.9373 l 120.9373,-290.2494 "/></g></g><g stroke-linejoin="miter" stroke-opacity="0.0" fill-opacity="2.0e-2" stroke="rgb(0,0,0)" stroke-width="0.0" fill="rgb(0,0,0)" stroke-linecap="butt" stroke-miterlimit="10.0"><path d="M 160.0907,316.2812 l -0.0000,-72.5624 h -72.5624 l -0.0000,72.5624 Z"/></g><g stroke-linejoin="miter" stroke-opacity="1.0" fill-opacity="0.0" stroke="rgb(128,128,128)" stroke-width="1.9999999999999998" fill="rgb(0,0,0)" stroke-linecap="butt" stroke-miterlimit="10.0"><defs><clipPath id="exampleClippingmyClip58"><path d="M 83.9002,316.2812 l -0.0000,-72.5624 h -72.5624 l -0.0000,72.5624 Z"/></clipPath></defs><g clip-path="url(#exampleClippingmyClip58)"><path d="M 71.8065,98.5941 v 290.2494 "/></g></g><g stroke-linejoin="miter" stroke-opacity="0.5" fill-opacity="0.0" stroke="rgb(178,145,47)" stroke-width="7.999999999999999" fill="rgb(0,0,0)" stroke-linecap="butt" stroke-miterlimit="10.0"><defs><clipPath id="exampleClippingmyClip59"><path d="M 83.9002,316.2812 l -0.0000,-72.5624 h -72.5624 l -0.0000,72.5624 Z"/></clipPath></defs><g clip-path="url(#exampleClippingmyClip59)"><path d="M 11.3379,388.8435 l 362.8118,-217.6871 "/></g></g><g stroke-linejoin="miter" stroke-opacity="0.8" fill-opacity="0.0" stroke="rgb(241,88,84)" stroke-width="3.9999999999999996" fill="rgb(0,0,0)" stroke-linecap="butt" stroke-miterlimit="10.0"><defs><clipPath id="exampleClippingmyClip60"><path d="M 83.9002,316.2812 l -0.0000,-72.5624 h -72.5624 l -0.0000,72.5624 Z"/></clipPath></defs><g clip-path="url(#exampleClippingmyClip60)"><path d="M 11.3379,316.2812 h 120.9373 l 120.9373,-290.2494 "/></g></g><g stroke-linejoin="miter" stroke-opacity="0.0" fill-opacity="2.0e-2" stroke="rgb(0,0,0)" stroke-width="0.0" fill="rgb(0,0,0)" stroke-linecap="butt" stroke-miterlimit="10.0"><path d="M 83.9002,316.2812 l -0.0000,-72.5624 h -72.5624 l -0.0000,72.5624 Z"/></g><g stroke-linejoin="miter" stroke-opacity="1.0" fill-opacity="0.0" stroke="rgb(128,128,128)" stroke-width="1.9999999999999998" fill="rgb(0,0,0)" stroke-linecap="butt" stroke-miterlimit="10.0"><defs><clipPath id="exampleClippingmyClip61"><path d="M 388.6621,396.2812 l -0.0000,-72.5624 h -72.5624 l -0.0000,72.5624 Z"/></clipPath></defs><g clip-path="url(#exampleClippingmyClip61)"><path d="M 86.3190,106.0317 v 290.2494 "/></g></g><g stroke-linejoin="miter" stroke-opacity="0.5" fill-opacity="0.0" stroke="rgb(178,145,47)" stroke-width="7.999999999999999" fill="rgb(0,0,0)" stroke-linecap="butt" stroke-miterlimit="10.0"><defs><clipPath id="exampleClippingmyClip62"><path d="M 388.6621,396.2812 l -0.0000,-72.5624 h -72.5624 l -0.0000,72.5624 Z"/></clipPath></defs><g clip-path="url(#exampleClippingmyClip62)"><path d="M 25.8503,396.2812 l 362.8118,-217.6871 "/></g></g><g stroke-linejoin="miter" stroke-opacity="0.8" fill-opacity="0.0" stroke="rgb(241,88,84)" stroke-width="3.9999999999999996" fill="rgb(0,0,0)" stroke-linecap="butt" stroke-miterlimit="10.0"><defs><clipPath id="exampleClippingmyClip63"><path d="M 388.6621,396.2812 l -0.0000,-72.5624 h -72.5624 l -0.0000,72.5624 Z"/></clipPath></defs><g clip-path="url(#exampleClippingmyClip63)"><path d="M 25.8503,323.7188 h 120.9373 l 120.9373,-290.2494 "/></g></g><g stroke-linejoin="miter" stroke-opacity="0.0" fill-opacity="2.0e-2" stroke="rgb(0,0,0)" stroke-width="0.0" fill="rgb(0,0,0)" stroke-linecap="butt" stroke-miterlimit="10.0"><path d="M 388.6621,396.2812 l -0.0000,-72.5624 h -72.5624 l -0.0000,72.5624 Z"/></g><g stroke-linejoin="miter" stroke-opacity="1.0" fill-opacity="0.0" stroke="rgb(128,128,128)" stroke-width="1.9999999999999998" fill="rgb(0,0,0)" stroke-linecap="butt" stroke-miterlimit="10.0"><defs><clipPath id="exampleClippingmyClip64"><path d="M 312.4717,396.2812 l -0.0000,-72.5624 h -72.5624 l -0.0000,72.5624 Z"/></clipPath></defs><g clip-path="url(#exampleClippingmyClip64)"><path d="M 82.6909,106.0317 v 290.2494 "/></g></g><g stroke-linejoin="miter" stroke-opacity="0.5" fill-opacity="0.0" stroke="rgb(178,145,47)" stroke-width="7.999999999999999" fill="rgb(0,0,0)" stroke-linecap="butt" stroke-miterlimit="10.0"><defs><clipPath id="exampleClippingmyClip65"><path d="M 312.4717,396.2812 l -0.0000,-72.5624 h -72.5624 l -0.0000,72.5624 Z"/></clipPath></defs><g clip-path="url(#exampleClippingmyClip65)"><path d="M 22.2222,396.2812 l 362.8118,-217.6871 "/></g></g><g stroke-linejoin="miter" stroke-opacity="0.8" fill-opacity="0.0" stroke="rgb(241,88,84)" stroke-width="3.9999999999999996" fill="rgb(0,0,0)" stroke-linecap="butt" stroke-miterlimit="10.0"><defs><clipPath id="exampleClippingmyClip66"><path d="M 312.4717,396.2812 l -0.0000,-72.5624 h -72.5624 l -0.0000,72.5624 Z"/></clipPath></defs><g clip-path="url(#exampleClippingmyClip66)"><path d="M 22.2222,323.7188 h 120.9373 l 120.9373,-290.2494 "/></g></g><g stroke-linejoin="miter" stroke-opacity="0.0" fill-opacity="2.0e-2" stroke="rgb(0,0,0)" stroke-width="0.0" fill="rgb(0,0,0)" stroke-linecap="butt" stroke-miterlimit="10.0"><path d="M 312.4717,396.2812 l -0.0000,-72.5624 h -72.5624 l -0.0000,72.5624 Z"/></g><g stroke-linejoin="miter" stroke-opacity="1.0" fill-opacity="0.0" stroke="rgb(128,128,128)" stroke-width="1.9999999999999998" fill="rgb(0,0,0)" stroke-linecap="butt" stroke-miterlimit="10.0"><defs><clipPath id="exampleClippingmyClip67"><path d="M 236.2812,396.2812 l -0.0000,-72.5624 h -72.5624 l -0.0000,72.5624 Z"/></clipPath></defs><g clip-path="url(#exampleClippingmyClip67)"><path d="M 79.0627,106.0317 v 290.2494 "/></g></g><g stroke-linejoin="miter" stroke-opacity="0.5" fill-opacity="0.0" stroke="rgb(178,145,47)" stroke-width="7.999999999999999" fill="rgb(0,0,0)" stroke-linecap="butt" stroke-miterlimit="10.0"><defs><clipPath id="exampleClippingmyClip68"><path d="M 236.2812,396.2812 l -0.0000,-72.5624 h -72.5624 l -0.0000,72.5624 Z"/></clipPath></defs><g clip-path="url(#exampleClippingmyClip68)"><path d="M 18.5941,396.2812 l 362.8118,-217.6871 "/></g></g><g stroke-linejoin="miter" stroke-opacity="0.8" fill-opacity="0.0" stroke="rgb(241,88,84)" stroke-width="3.9999999999999996" fill="rgb(0,0,0)" stroke-linecap="butt" stroke-miterlimit="10.0"><defs><clipPath id="exampleClippingmyClip69"><path d="M 236.2812,396.2812 l -0.0000,-72.5624 h -72.5624 l -0.0000,72.5624 Z"/></clipPath></defs><g clip-path="url(#exampleClippingmyClip69)"><path d="M 18.5941,323.7188 h 120.9373 l 120.9373,-290.2494 "/></g></g><g stroke-linejoin="miter" stroke-opacity="0.0" fill-opacity="2.0e-2" stroke="rgb(0,0,0)" stroke-width="0.0" fill="rgb(0,0,0)" stroke-linecap="butt" stroke-miterlimit="10.0"><path d="M 236.2812,396.2812 l -0.0000,-72.5624 h -72.5624 l -0.0000,72.5624 Z"/></g><g stroke-linejoin="miter" stroke-opacity="1.0" fill-opacity="0.0" stroke="rgb(128,128,128)" stroke-width="1.9999999999999998" fill="rgb(0,0,0)" stroke-linecap="butt" stroke-miterlimit="10.0"><defs><clipPath id="exampleClippingmyClip70"><path d="M 160.0907,396.2812 l -0.0000,-72.5624 h -72.5624 l -0.0000,72.5624 Z"/></clipPath></defs><g clip-path="url(#exampleClippingmyClip70)"><path d="M 75.4346,106.0317 v 290.2494 "/></g></g><g stroke-linejoin="miter" stroke-opacity="0.5" fill-opacity="0.0" stroke="rgb(178,145,47)" stroke-width="7.999999999999999" fill="rgb(0,0,0)" stroke-linecap="butt" stroke-miterlimit="10.0"><defs><clipPath id="exampleClippingmyClip71"><path d="M 160.0907,396.2812 l -0.0000,-72.5624 h -72.5624 l -0.0000,72.5624 Z"/></clipPath></defs><g clip-path="url(#exampleClippingmyClip71)"><path d="M 14.9660,396.2812 l 362.8118,-217.6871 "/></g></g><g stroke-linejoin="miter" stroke-opacity="0.8" fill-opacity="0.0" stroke="rgb(241,88,84)" stroke-width="3.9999999999999996" fill="rgb(0,0,0)" stroke-linecap="butt" stroke-miterlimit="10.0"><defs><clipPath id="exampleClippingmyClip72"><path d="M 160.0907,396.2812 l -0.0000,-72.5624 h -72.5624 l -0.0000,72.5624 Z"/></clipPath></defs><g clip-path="url(#exampleClippingmyClip72)"><path d="M 14.9660,323.7188 h 120.9373 l 120.9373,-290.2494 "/></g></g><g stroke-linejoin="miter" stroke-opacity="0.0" fill-opacity="2.0e-2" stroke="rgb(0,0,0)" stroke-width="0.0" fill="rgb(0,0,0)" stroke-linecap="butt" stroke-miterlimit="10.0"><path d="M 160.0907,396.2812 l -0.0000,-72.5624 h -72.5624 l -0.0000,72.5624 Z"/></g><g stroke-linejoin="miter" stroke-opacity="1.0" fill-opacity="0.0" stroke="rgb(128,128,128)" stroke-width="1.9999999999999998" fill="rgb(0,0,0)" stroke-linecap="butt" stroke-miterlimit="10.0"><defs><clipPath id="exampleClippingmyClip73"><path d="M 83.9002,396.2812 l -0.0000,-72.5624 h -72.5624 l -0.0000,72.5624 Z"/></clipPath></defs><g clip-path="url(#exampleClippingmyClip73)"><path d="M 71.8065,106.0317 v 290.2494 "/></g></g><g stroke-linejoin="miter" stroke-opacity="0.5" fill-opacity="0.0" stroke="rgb(178,145,47)" stroke-width="7.999999999999999" fill="rgb(0,0,0)" stroke-linecap="butt" stroke-miterlimit="10.0"><defs><clipPath id="exampleClippingmyClip74"><path d="M 83.9002,396.2812 l -0.0000,-72.5624 h -72.5624 l -0.0000,72.5624 Z"/></clipPath></defs><g clip-path="url(#exampleClippingmyClip74)"><path d="M 11.3379,396.2812 l 362.8118,-217.6871 "/></g></g><g stroke-linejoin="miter" stroke-opacity="0.8" fill-opacity="0.0" stroke="rgb(241,88,84)" stroke-width="3.9999999999999996" fill="rgb(0,0,0)" stroke-linecap="butt" stroke-miterlimit="10.0"><defs><clipPath id="exampleClippingmyClip75"><path d="M 83.9002,396.2812 l -0.0000,-72.5624 h -72.5624 l -0.0000,72.5624 Z"/></clipPath></defs><g clip-path="url(#exampleClippingmyClip75)"><path d="M 11.3379,323.7188 h 120.9373 l 120.9373,-290.2494 "/></g></g><g stroke-linejoin="miter" stroke-opacity="0.0" fill-opacity="2.0e-2" stroke="rgb(0,0,0)" stroke-width="0.0" fill="rgb(0,0,0)" stroke-linecap="butt" stroke-miterlimit="10.0"><path d="M 83.9002,396.2812 l -0.0000,-72.5624 h -72.5624 l -0.0000,72.5624 Z"/></g></svg>