<?xml version="1.0" encoding="UTF-8"?>
<!DOCTYPE svg PUBLIC "-//W3C//DTD SVG 1.1//EN"
    "http://www.w3.org/Graphics/SVG/1.1/DTD/svg11.dtd">
<svg xmlns="http://www.w3.org/2000/svg" height="400.0000" stroke-opacity="1" viewBox="0 0 600 400" font-size="1" width="600.0000" xmlns:xlink="http://www.w3.org/1999/xlink" stroke="rgb(0,0,0)" version="1.1">
  <defs>
  </defs>
  <g stroke-linejoin="miter" stroke-opacity="0.0" fill-opacity="0.0" stroke="rgb(0,0,0)" fill-rule="evenodd" stroke-width="0.0" fill="rgb(0,0,0)" stroke-linecap="butt" stroke-miterlimit="10.0">
    <path d="M 366.3417,114.0537 l -0.0000,-18.3013 h -27.4519 l -0.0000,18.3013 Z"/>
  </g>
  <g stroke-linejoin="miter" stroke-opacity="1.0" fill-opacity="0.33" font-size="16.63751546435732px" stroke="rgb(0,0,0)" fill-rule="evenodd" stroke-width="0.0" fill="rgb(255,255,255)" stroke-linecap="butt" stroke-miterlimit="10.0">
    <text dominant-baseline="middle" transform="matrix(1.0000,-0.0000,0.0000,1.0000,352.6158,104.9031)" stroke="none" text-anchor="middle">5,5
    </text>
  </g>
  <g stroke-linejoin="miter" stroke-opacity="1.0" fill-opacity="1.0" stroke="rgb(102,102,102)" stroke-width="0.0" fill="rgb(0,0,0)" stroke-linecap="butt" stroke-miterlimit="10.0">
    <path d="M 353.5045,117.6087 c 0.0000,-0.4908 -0.3979,-0.8888 -0.8888 -0.8888c -0.4908,-0.0000 -0.8888,0.3979 -0.8888 0.8888c -0.0000,0.4908 0.3979,0.8888 0.8888 0.8888c 0.4908,0.0000 0.8888,-0.3979 0.8888 -0.8888Z"/>
  </g>
  <g stroke-linejoin="miter" stroke-opacity="0.0" fill-opacity="0.0" stroke="rgb(0,0,0)" fill-rule="evenodd" stroke-width="0.0" fill="rgb(0,0,0)" stroke-linecap="butt" stroke-miterlimit="10.0">
    <path d="M 366.3417,149.6040 l -0.0000,-18.3013 h -27.4519 l -0.0000,18.3013 Z"/>
  </g>
  <g stroke-linejoin="miter" stroke-opacity="1.0" fill-opacity="0.33" font-size="16.63751546435732px" stroke="rgb(0,0,0)" fill-rule="evenodd" stroke-width="0.0" fill="rgb(255,255,255)" stroke-linecap="butt" stroke-miterlimit="10.0">
    <text dominant-baseline="middle" transform="matrix(1.0000,-0.0000,0.0000,1.0000,352.6158,140.4533)" stroke="none" text-anchor="middle">5,4
    </text>
  </g>
  <g stroke-linejoin="miter" stroke-opacity="1.0" fill-opacity="1.0" stroke="rgb(102,102,102)" stroke-width="0.0" fill="rgb(0,0,0)" stroke-linecap="butt" stroke-miterlimit="10.0">
    <path d="M 353.5045,153.1590 c 0.0000,-0.4908 -0.3979,-0.8888 -0.8888 -0.8888c -0.4908,-0.0000 -0.8888,0.3979 -0.8888 0.8888c -0.0000,0.4908 0.3979,0.8888 0.8888 0.8888c 0.4908,0.0000 0.8888,-0.3979 0.8888 -0.8888Z"/>
  </g>
  <g stroke-linejoin="miter" stroke-opacity="0.0" fill-opacity="0.0" stroke="rgb(0,0,0)" fill-rule="evenodd" stroke-width="0.0" fill="rgb(0,0,0)" stroke-linecap="butt" stroke-miterlimit="10.0">
    <path d="M 366.3417,185.1542 l -0.0000,-18.3013 h -27.4519 l -0.0000,18.3013 Z"/>
  </g>
  <g stroke-linejoin="miter" stroke-opacity="1.0" fill-opacity="0.33" font-size="16.63751546435732px" stroke="rgb(0,0,0)" fill-rule="evenodd" stroke-width="0.0" fill="rgb(255,255,255)" stroke-linecap="butt" stroke-miterlimit="10.0">
    <text dominant-baseline="middle" transform="matrix(1.0000,-0.0000,0.0000,1.0000,352.6158,176.0036)" stroke="none" text-anchor="middle">5,3
    </text>
  </g>
  <g stroke-linejoin="miter" stroke-opacity="1.0" fill-opacity="1.0" stroke="rgb(102,102,102)" stroke-width="0.0" fill="rgb(0,0,0)" stroke-linecap="butt" stroke-miterlimit="10.0">
    <path d="M 353.5045,188.7092 c 0.0000,-0.4908 -0.3979,-0.8888 -0.8888 -0.8888c -0.4908,-0.0000 -0.8888,0.3979 -0.8888 0.8888c -0.0000,0.4908 0.3979,0.8888 0.8888 0.8888c 0.4908,0.0000 0.8888,-0.3979 0.8888 -0.8888Z"/>
  </g>
  <g stroke-linejoin="miter" stroke-opacity="0.0" fill-opacity="0.0" stroke="rgb(0,0,0)" fill-rule="evenodd" stroke-width="0.0" fill="rgb(0,0,0)" stroke-linecap="butt" stroke-miterlimit="10.0">
    <path d="M 366.3417,220.7045 l -0.0000,-18.3013 h -27.4519 l -0.0000,18.3013 Z"/>
  </g>
  <g stroke-linejoin="miter" stroke-opacity="1.0" fill-opacity="0.33" font-size="16.63751546435732px" stroke="rgb(0,0,0)" fill-rule="evenodd" stroke-width="0.0" fill="rgb(255,255,255)" stroke-linecap="butt" stroke-miterlimit="10.0">
    <text dominant-baseline="middle" transform="matrix(1.0000,-0.0000,0.0000,1.0000,352.6158,211.5538)" stroke="none" text-anchor="middle">5,2
    </text>
  </g>
  <g stroke-linejoin="miter" stroke-opacity="1.0" fill-opacity="1.0" stroke="rgb(102,102,102)" stroke-width="0.0" fill="rgb(0,0,0)" stroke-linecap="butt" stroke-miterlimit="10.0">
    <path d="M 353.5045,224.2595 c 0.0000,-0.4908 -0.3979,-0.8888 -0.8888 -0.8888c -0.4908,-0.0000 -0.8888,0.3979 -0.8888 0.8888c -0.0000,0.4908 0.3979,0.8888 0.8888 0.8888c 0.4908,0.0000 0.8888,-0.3979 0.8888 -0.8888Z"/>
  </g>
  <g stroke-linejoin="miter" stroke-opacity="0.0" fill-opacity="0.0" stroke="rgb(0,0,0)" fill-rule="evenodd" stroke-width="0.0" fill="rgb(0,0,0)" stroke-linecap="butt" stroke-miterlimit="10.0">
    <path d="M 366.3417,256.2547 l -0.0000,-18.3013 h -27.4519 l -0.0000,18.3013 Z"/>
  </g>
  <g stroke-linejoin="miter" stroke-opacity="1.0" fill-opacity="0.33" font-size="16.63751546435732px" stroke="rgb(0,0,0)" fill-rule="evenodd" stroke-width="0.0" fill="rgb(255,255,255)" stroke-linecap="butt" stroke-miterlimit="10.0">
    <text dominant-baseline="middle" transform="matrix(1.0000,-0.0000,0.0000,1.0000,352.6158,247.1041)" stroke="none" text-anchor="middle">5,1
    </text>
  </g>
  <g stroke-linejoin="miter" stroke-opacity="1.0" fill-opacity="1.0" stroke="rgb(102,102,102)" stroke-width="0.0" fill="rgb(0,0,0)" stroke-linecap="butt" stroke-miterlimit="10.0">
    <path d="M 353.5045,259.8097 c 0.0000,-0.4908 -0.3979,-0.8888 -0.8888 -0.8888c -0.4908,-0.0000 -0.8888,0.3979 -0.8888 0.8888c -0.0000,0.4908 0.3979,0.8888 0.8888 0.8888c 0.4908,0.0000 0.8888,-0.3979 0.8888 -0.8888Z"/>
  </g>
  <g stroke-linejoin="miter" stroke-opacity="0.0" fill-opacity="0.0" stroke="rgb(0,0,0)" fill-rule="evenodd" stroke-width="0.0" fill="rgb(0,0,0)" stroke-linecap="butt" stroke-miterlimit="10.0">
    <path d="M 366.3417,291.8050 l -0.0000,-18.3013 h -27.4519 l -0.0000,18.3013 Z"/>
  </g>
  <g stroke-linejoin="miter" stroke-opacity="1.0" fill-opacity="0.33" font-size="16.63751546435732px" stroke="rgb(0,0,0)" fill-rule="evenodd" stroke-width="0.0" fill="rgb(255,255,255)" stroke-linecap="butt" stroke-miterlimit="10.0">
    <text dominant-baseline="middle" transform="matrix(1.0000,-0.0000,0.0000,1.0000,352.6158,282.6543)" stroke="none" text-anchor="middle">5,0
    </text>
  </g>
  <g stroke-linejoin="miter" stroke-opacity="1.0" fill-opacity="1.0" stroke="rgb(102,102,102)" stroke-width="0.0" fill="rgb(0,0,0)" stroke-linecap="butt" stroke-miterlimit="10.0">
    <path d="M 353.5045,295.3600 c 0.0000,-0.4908 -0.3979,-0.8888 -0.8888 -0.8888c -0.4908,-0.0000 -0.8888,0.3979 -0.8888 0.8888c -0.0000,0.4908 0.3979,0.8888 0.8888 0.8888c 0.4908,0.0000 0.8888,-0.3979 0.8888 -0.8888Z"/>
  </g>
  <g stroke-linejoin="miter" stroke-opacity="0.0" fill-opacity="0.0" stroke="rgb(0,0,0)" fill-rule="evenodd" stroke-width="0.0" fill="rgb(0,0,0)" stroke-linecap="butt" stroke-miterlimit="10.0">
    <path d="M 313.0164,114.0537 l -0.0000,-18.3013 h -27.4519 l -0.0000,18.3013 Z"/>
  </g>
  <g stroke-linejoin="miter" stroke-opacity="1.0" fill-opacity="0.33" font-size="16.63751546435732px" stroke="rgb(0,0,0)" fill-rule="evenodd" stroke-width="0.0" fill="rgb(255,255,255)" stroke-linecap="butt" stroke-miterlimit="10.0">
    <text dominant-baseline="middle" transform="matrix(1.0000,-0.0000,0.0000,1.0000,299.2904,104.9031)" stroke="none" text-anchor="middle">4,5
    </text>
  </g>
  <g stroke-linejoin="miter" stroke-opacity="1.0" fill-opacity="1.0" stroke="rgb(102,102,102)" stroke-width="0.0" fill="rgb(0,0,0)" stroke-linecap="butt" stroke-miterlimit="10.0">
    <path d="M 300.1792,117.6087 c 0.0000,-0.4908 -0.3979,-0.8888 -0.8888 -0.8888c -0.4908,-0.0000 -0.8888,0.3979 -0.8888 0.8888c -0.0000,0.4908 0.3979,0.8888 0.8888 0.8888c 0.4908,0.0000 0.8888,-0.3979 0.8888 -0.8888Z"/>
  </g>
  <g stroke-linejoin="miter" stroke-opacity="0.0" fill-opacity="0.0" stroke="rgb(0,0,0)" fill-rule="evenodd" stroke-width="0.0" fill="rgb(0,0,0)" stroke-linecap="butt" stroke-miterlimit="10.0">
    <path d="M 313.0164,149.6040 l -0.0000,-18.3013 h -27.4519 l -0.0000,18.3013 Z"/>
  </g>
  <g stroke-linejoin="miter" stroke-opacity="1.0" fill-opacity="0.33" font-size="16.63751546435732px" stroke="rgb(0,0,0)" fill-rule="evenodd" stroke-width="0.0" fill="rgb(255,255,255)" stroke-linecap="butt" stroke-miterlimit="10.0">
    <text dominant-baseline="middle" transform="matrix(1.0000,-0.0000,0.0000,1.0000,299.2904,140.4533)" stroke="none" text-anchor="middle">4,4
    </text>
  </g>
  <g stroke-linejoin="miter" stroke-opacity="1.0" fill-opacity="1.0" stroke="rgb(102,102,102)" stroke-width="0.0" fill="rgb(0,0,0)" stroke-linecap="butt" stroke-miterlimit="10.0">
    <path d="M 300.1792,153.1590 c 0.0000,-0.4908 -0.3979,-0.8888 -0.8888 -0.8888c -0.4908,-0.0000 -0.8888,0.3979 -0.8888 0.8888c -0.0000,0.4908 0.3979,0.8888 0.8888 0.8888c 0.4908,0.0000 0.8888,-0.3979 0.8888 -0.8888Z"/>
  </g>
  <g stroke-linejoin="miter" stroke-opacity="0.0" fill-opacity="0.0" stroke="rgb(0,0,0)" fill-rule="evenodd" stroke-width="0.0" fill="rgb(0,0,0)" stroke-linecap="butt" stroke-miterlimit="10.0">
    <path d="M 313.0164,185.1542 l -0.0000,-18.3013 h -27.4519 l -0.0000,18.3013 Z"/>
  </g>
  <g stroke-linejoin="miter" stroke-opacity="1.0" fill-opacity="0.33" font-size="16.63751546435732px" stroke="rgb(0,0,0)" fill-rule="evenodd" stroke-width="0.0" fill="rgb(255,255,255)" stroke-linecap="butt" stroke-miterlimit="10.0">
    <text dominant-baseline="middle" transform="matrix(1.0000,-0.0000,0.0000,1.0000,299.2904,176.0036)" stroke="none" text-anchor="middle">4,3
    </text>
  </g>
  <g stroke-linejoin="miter" stroke-opacity="1.0" fill-opacity="1.0" stroke="rgb(102,102,102)" stroke-width="0.0" fill="rgb(0,0,0)" stroke-linecap="butt" stroke-miterlimit="10.0">
    <path d="M 300.1792,188.7092 c 0.0000,-0.4908 -0.3979,-0.8888 -0.8888 -0.8888c -0.4908,-0.0000 -0.8888,0.3979 -0.8888 0.8888c -0.0000,0.4908 0.3979,0.8888 0.8888 0.8888c 0.4908,0.0000 0.8888,-0.3979 0.8888 -0.8888Z"/>
  </g>
  <g stroke-linejoin="miter" stroke-opacity="0.0" fill-opacity="0.0" stroke="rgb(0,0,0)" fill-rule="evenodd" stroke-width="0.0" fill="rgb(0,0,0)" stroke-linecap="butt" stroke-miterlimit="10.0">
    <path d="M 313.0164,220.7045 l -0.0000,-18.3013 h -27.4519 l -0.0000,18.3013 Z"/>
  </g>
  <g stroke-linejoin="miter" stroke-opacity="1.0" fill-opacity="0.33" font-size="16.63751546435732px" stroke="rgb(0,0,0)" fill-rule="evenodd" stroke-width="0.0" fill="rgb(255,255,255)" stroke-linecap="butt" stroke-miterlimit="10.0">
    <text dominant-baseline="middle" transform="matrix(1.0000,-0.0000,0.0000,1.0000,299.2904,211.5538)" stroke="none" text-anchor="middle">4,2
    </text>
  </g>
  <g stroke-linejoin="miter" stroke-opacity="1.0" fill-opacity="1.0" stroke="rgb(102,102,102)" stroke-width="0.0" fill="rgb(0,0,0)" stroke-linecap="butt" stroke-miterlimit="10.0">
    <path d="M 300.1792,224.2595 c 0.0000,-0.4908 -0.3979,-0.8888 -0.8888 -0.8888c -0.4908,-0.0000 -0.8888,0.3979 -0.8888 0.8888c -0.0000,0.4908 0.3979,0.8888 0.8888 0.8888c 0.4908,0.0000 0.8888,-0.3979 0.8888 -0.8888Z"/>
  </g>
  <g stroke-linejoin="miter" stroke-opacity="0.0" fill-opacity="0.0" stroke="rgb(0,0,0)" fill-rule="evenodd" stroke-width="0.0" fill="rgb(0,0,0)" stroke-linecap="butt" stroke-miterlimit="10.0">
    <path d="M 313.0164,256.2547 l -0.0000,-18.3013 h -27.4519 l -0.0000,18.3013 Z"/>
  </g>
  <g stroke-linejoin="miter" stroke-opacity="1.0" fill-opacity="0.33" font-size="16.63751546435732px" stroke="rgb(0,0,0)" fill-rule="evenodd" stroke-width="0.0" fill="rgb(255,255,255)" stroke-linecap="butt" stroke-miterlimit="10.0">
    <text dominant-baseline="middle" transform="matrix(1.0000,-0.0000,0.0000,1.0000,299.2904,247.1041)" stroke="none" text-anchor="middle">4,1
    </text>
  </g>
  <g stroke-linejoin="miter" stroke-opacity="1.0" fill-opacity="1.0" stroke="rgb(102,102,102)" stroke-width="0.0" fill="rgb(0,0,0)" stroke-linecap="butt" stroke-miterlimit="10.0">
    <path d="M 300.1792,259.8097 c 0.0000,-0.4908 -0.3979,-0.8888 -0.8888 -0.8888c -0.4908,-0.0000 -0.8888,0.3979 -0.8888 0.8888c -0.0000,0.4908 0.3979,0.8888 0.8888 0.8888c 0.4908,0.0000 0.8888,-0.3979 0.8888 -0.8888Z"/>
  </g>
  <g stroke-linejoin="miter" stroke-opacity="0.0" fill-opacity="0.0" stroke="rgb(0,0,0)" fill-rule="evenodd" stroke-width="0.0" fill="rgb(0,0,0)" stroke-linecap="butt" stroke-miterlimit="10.0">
    <path d="M 313.0164,291.8050 l -0.0000,-18.3013 h -27.4519 l -0.0000,18.3013 Z"/>
  </g>
  <g stroke-linejoin="miter" stroke-opacity="1.0" fill-opacity="0.33" font-size="16.63751546435732px" stroke="rgb(0,0,0)" fill-rule="evenodd" stroke-width="0.0" fill="rgb(255,255,255)" stroke-linecap="butt" stroke-miterlimit="10.0">
    <text dominant-baseline="middle" transform="matrix(1.0000,-0.0000,0.0000,1.0000,299.2904,282.6543)" stroke="none" text-anchor="middle">4,0
    </text>
  </g>
  <g stroke-linejoin="miter" stroke-opacity="1.0" fill-opacity="1.0" stroke="rgb(102,102,102)" stroke-width="0.0" fill="rgb(0,0,0)" stroke-linecap="butt" stroke-miterlimit="10.0">
    <path d="M 300.1792,295.3600 c 0.0000,-0.4908 -0.3979,-0.8888 -0.8888 -0.8888c -0.4908,-0.0000 -0.8888,0.3979 -0.8888 0.8888c -0.0000,0.4908 0.3979,0.8888 0.8888 0.8888c 0.4908,0.0000 0.8888,-0.3979 0.8888 -0.8888Z"/>
  </g>
  <g stroke-linejoin="miter" stroke-opacity="0.0" fill-opacity="0.0" stroke="rgb(0,0,0)" fill-rule="evenodd" stroke-width="0.0" fill="rgb(0,0,0)" stroke-linecap="butt" stroke-miterlimit="10.0">
    <path d="M 259.6910,114.0537 l -0.0000,-18.3013 h -27.4519 l -0.0000,18.3013 Z"/>
  </g>
  <g stroke-linejoin="miter" stroke-opacity="1.0" fill-opacity="0.33" font-size="16.63751546435732px" stroke="rgb(0,0,0)" fill-rule="evenodd" stroke-width="0.0" fill="rgb(255,255,255)" stroke-linecap="butt" stroke-miterlimit="10.0">
    <text dominant-baseline="middle" transform="matrix(1.0000,-0.0000,0.0000,1.0000,245.9650,104.9031)" stroke="none" text-anchor="middle">3,5
    </text>
  </g>
  <g stroke-linejoin="miter" stroke-opacity="1.0" fill-opacity="1.0" stroke="rgb(102,102,102)" stroke-width="0.0" fill="rgb(0,0,0)" stroke-linecap="butt" stroke-miterlimit="10.0">
    <path d="M 246.8538,117.6087 c 0.0000,-0.4908 -0.3979,-0.8888 -0.8888 -0.8888c -0.4908,-0.0000 -0.8888,0.3979 -0.8888 0.8888c -0.0000,0.4908 0.3979,0.8888 0.8888 0.8888c 0.4908,0.0000 0.8888,-0.3979 0.8888 -0.8888Z"/>
  </g>
  <g stroke-linejoin="miter" stroke-opacity="0.0" fill-opacity="0.0" stroke="rgb(0,0,0)" fill-rule="evenodd" stroke-width="0.0" fill="rgb(0,0,0)" stroke-linecap="butt" stroke-miterlimit="10.0">
    <path d="M 259.6910,149.6040 l -0.0000,-18.3013 h -27.4519 l -0.0000,18.3013 Z"/>
  </g>
  <g stroke-linejoin="miter" stroke-opacity="1.0" fill-opacity="0.33" font-size="16.63751546435732px" stroke="rgb(0,0,0)" fill-rule="evenodd" stroke-width="0.0" fill="rgb(255,255,255)" stroke-linecap="butt" stroke-miterlimit="10.0">
    <text dominant-baseline="middle" transform="matrix(1.0000,-0.0000,0.0000,1.0000,245.9650,140.4533)" stroke="none" text-anchor="middle">3,4
    </text>
  </g>
  <g stroke-linejoin="miter" stroke-opacity="1.0" fill-opacity="1.0" stroke="rgb(102,102,102)" stroke-width="0.0" fill="rgb(0,0,0)" stroke-linecap="butt" stroke-miterlimit="10.0">
    <path d="M 246.8538,153.1590 c 0.0000,-0.4908 -0.3979,-0.8888 -0.8888 -0.8888c -0.4908,-0.0000 -0.8888,0.3979 -0.8888 0.8888c -0.0000,0.4908 0.3979,0.8888 0.8888 0.8888c 0.4908,0.0000 0.8888,-0.3979 0.8888 -0.8888Z"/>
  </g>
  <g stroke-linejoin="miter" stroke-opacity="0.0" fill-opacity="0.0" stroke="rgb(0,0,0)" fill-rule="evenodd" stroke-width="0.0" fill="rgb(0,0,0)" stroke-linecap="butt" stroke-miterlimit="10.0">
    <path d="M 259.6910,185.1542 l -0.0000,-18.3013 h -27.4519 l -0.0000,18.3013 Z"/>
  </g>
  <g stroke-linejoin="miter" stroke-opacity="1.0" fill-opacity="0.33" font-size="16.63751546435732px" stroke="rgb(0,0,0)" fill-rule="evenodd" stroke-width="0.0" fill="rgb(255,255,255)" stroke-linecap="butt" stroke-miterlimit="10.0">
    <text dominant-baseline="middle" transform="matrix(1.0000,-0.0000,0.0000,1.0000,245.9650,176.0036)" stroke="none" text-anchor="middle">3,3
    </text>
  </g>
  <g stroke-linejoin="miter" stroke-opacity="1.0" fill-opacity="1.0" stroke="rgb(102,102,102)" stroke-width="0.0" fill="rgb(0,0,0)" stroke-linecap="butt" stroke-miterlimit="10.0">
    <path d="M 246.8538,188.7092 c 0.0000,-0.4908 -0.3979,-0.8888 -0.8888 -0.8888c -0.4908,-0.0000 -0.8888,0.3979 -0.8888 0.8888c -0.0000,0.4908 0.3979,0.8888 0.8888 0.8888c 0.4908,0.0000 0.8888,-0.3979 0.8888 -0.8888Z"/>
  </g>
  <g stroke-linejoin="miter" stroke-opacity="0.0" fill-opacity="0.0" stroke="rgb(0,0,0)" fill-rule="evenodd" stroke-width="0.0" fill="rgb(0,0,0)" stroke-linecap="butt" stroke-miterlimit="10.0">
    <path d="M 259.6910,220.7045 l -0.0000,-18.3013 h -27.4519 l -0.0000,18.3013 Z"/>
  </g>
  <g stroke-linejoin="miter" stroke-opacity="1.0" fill-opacity="0.33" font-size="16.63751546435732px" stroke="rgb(0,0,0)" fill-rule="evenodd" stroke-width="0.0" fill="rgb(255,255,255)" stroke-linecap="butt" stroke-miterlimit="10.0">
    <text dominant-baseline="middle" transform="matrix(1.0000,-0.0000,0.0000,1.0000,245.9650,211.5538)" stroke="none" text-anchor="middle">3,2
    </text>
  </g>
  <g stroke-linejoin="miter" stroke-opacity="1.0" fill-opacity="1.0" stroke="rgb(102,102,102)" stroke-width="0.0" fill="rgb(0,0,0)" stroke-linecap="butt" stroke-miterlimit="10.0">
    <path d="M 246.8538,224.2595 c 0.0000,-0.4908 -0.3979,-0.8888 -0.8888 -0.8888c -0.4908,-0.0000 -0.8888,0.3979 -0.8888 0.8888c -0.0000,0.4908 0.3979,0.8888 0.8888 0.8888c 0.4908,0.0000 0.8888,-0.3979 0.8888 -0.8888Z"/>
  </g>
  <g stroke-linejoin="miter" stroke-opacity="0.0" fill-opacity="0.0" stroke="rgb(0,0,0)" fill-rule="evenodd" stroke-width="0.0" fill="rgb(0,0,0)" stroke-linecap="butt" stroke-miterlimit="10.0">
    <path d="M 259.6910,256.2547 l -0.0000,-18.3013 h -27.4519 l -0.0000,18.3013 Z"/>
  </g>
  <g stroke-linejoin="miter" stroke-opacity="1.0" fill-opacity="0.33" font-size="16.63751546435732px" stroke="rgb(0,0,0)" fill-rule="evenodd" stroke-width="0.0" fill="rgb(255,255,255)" stroke-linecap="butt" stroke-miterlimit="10.0">
    <text dominant-baseline="middle" transform="matrix(1.0000,-0.0000,0.0000,1.0000,245.9650,247.1041)" stroke="none" text-anchor="middle">3,1
    </text>
  </g>
  <g stroke-linejoin="miter" stroke-opacity="1.0" fill-opacity="1.0" stroke="rgb(102,102,102)" stroke-width="0.0" fill="rgb(0,0,0)" stroke-linecap="butt" stroke-miterlimit="10.0">
    <path d="M 246.8538,259.8097 c 0.0000,-0.4908 -0.3979,-0.8888 -0.8888 -0.8888c -0.4908,-0.0000 -0.8888,0.3979 -0.8888 0.8888c -0.0000,0.4908 0.3979,0.8888 0.8888 0.8888c 0.4908,0.0000 0.8888,-0.3979 0.8888 -0.8888Z"/>
  </g>
  <g stroke-linejoin="miter" stroke-opacity="0.0" fill-opacity="0.0" stroke="rgb(0,0,0)" fill-rule="evenodd" stroke-width="0.0" fill="rgb(0,0,0)" stroke-linecap="butt" stroke-miterlimit="10.0">
    <path d="M 259.6910,291.8050 l -0.0000,-18.3013 h -27.4519 l -0.0000,18.3013 Z"/>
  </g>
  <g stroke-linejoin="miter" stroke-opacity="1.0" fill-opacity="0.33" font-size="16.63751546435732px" stroke="rgb(0,0,0)" fill-rule="evenodd" stroke-width="0.0" fill="rgb(255,255,255)" stroke-linecap="butt" stroke-miterlimit="10.0">
    <text dominant-baseline="middle" transform="matrix(1.0000,-0.0000,0.0000,1.0000,245.9650,282.6543)" stroke="none" text-anchor="middle">3,0
    </text>
  </g>
  <g stroke-linejoin="miter" stroke-opacity="1.0" fill-opacity="1.0" stroke="rgb(102,102,102)" stroke-width="0.0" fill="rgb(0,0,0)" stroke-linecap="butt" stroke-miterlimit="10.0">
    <path d="M 246.8538,295.3600 c 0.0000,-0.4908 -0.3979,-0.8888 -0.8888 -0.8888c -0.4908,-0.0000 -0.8888,0.3979 -0.8888 0.8888c -0.0000,0.4908 0.3979,0.8888 0.8888 0.8888c 0.4908,0.0000 0.8888,-0.3979 0.8888 -0.8888Z"/>
  </g>
  <g stroke-linejoin="miter" stroke-opacity="0.0" fill-opacity="0.0" stroke="rgb(0,0,0)" fill-rule="evenodd" stroke-width="0.0" fill="rgb(0,0,0)" stroke-linecap="butt" stroke-miterlimit="10.0">
    <path d="M 206.3656,114.0537 l -0.0000,-18.3013 h -27.4519 l -0.0000,18.3013 Z"/>
  </g>
  <g stroke-linejoin="miter" stroke-opacity="1.0" fill-opacity="0.33" font-size="16.63751546435732px" stroke="rgb(0,0,0)" fill-rule="evenodd" stroke-width="0.0" fill="rgb(255,255,255)" stroke-linecap="butt" stroke-miterlimit="10.0">
    <text dominant-baseline="middle" transform="matrix(1.0000,-0.0000,0.0000,1.0000,192.6397,104.9031)" stroke="none" text-anchor="middle">2,5
    </text>
  </g>
  <g stroke-linejoin="miter" stroke-opacity="1.0" fill-opacity="1.0" stroke="rgb(102,102,102)" stroke-width="0.0" fill="rgb(0,0,0)" stroke-linecap="butt" stroke-miterlimit="10.0">
    <path d="M 193.5284,117.6087 c 0.0000,-0.4908 -0.3979,-0.8888 -0.8888 -0.8888c -0.4908,-0.0000 -0.8888,0.3979 -0.8888 0.8888c -0.0000,0.4908 0.3979,0.8888 0.8888 0.8888c 0.4908,0.0000 0.8888,-0.3979 0.8888 -0.8888Z"/>
  </g>
  <g stroke-linejoin="miter" stroke-opacity="0.0" fill-opacity="0.0" stroke="rgb(0,0,0)" fill-rule="evenodd" stroke-width="0.0" fill="rgb(0,0,0)" stroke-linecap="butt" stroke-miterlimit="10.0">
    <path d="M 206.3656,149.6040 l -0.0000,-18.3013 h -27.4519 l -0.0000,18.3013 Z"/>
  </g>
  <g stroke-linejoin="miter" stroke-opacity="1.0" fill-opacity="0.33" font-size="16.63751546435732px" stroke="rgb(0,0,0)" fill-rule="evenodd" stroke-width="0.0" fill="rgb(255,255,255)" stroke-linecap="butt" stroke-miterlimit="10.0">
    <text dominant-baseline="middle" transform="matrix(1.0000,-0.0000,0.0000,1.0000,192.6397,140.4533)" stroke="none" text-anchor="middle">2,4
    </text>
  </g>
  <g stroke-linejoin="miter" stroke-opacity="1.0" fill-opacity="1.0" stroke="rgb(102,102,102)" stroke-width="0.0" fill="rgb(0,0,0)" stroke-linecap="butt" stroke-miterlimit="10.0">
    <path d="M 193.5284,153.1590 c 0.0000,-0.4908 -0.3979,-0.8888 -0.8888 -0.8888c -0.4908,-0.0000 -0.8888,0.3979 -0.8888 0.8888c -0.0000,0.4908 0.3979,0.8888 0.8888 0.8888c 0.4908,0.0000 0.8888,-0.3979 0.8888 -0.8888Z"/>
  </g>
  <g stroke-linejoin="miter" stroke-opacity="0.0" fill-opacity="0.0" stroke="rgb(0,0,0)" fill-rule="evenodd" stroke-width="0.0" fill="rgb(0,0,0)" stroke-linecap="butt" stroke-miterlimit="10.0">
    <path d="M 206.3656,185.1542 l -0.0000,-18.3013 h -27.4519 l -0.0000,18.3013 Z"/>
  </g>
  <g stroke-linejoin="miter" stroke-opacity="1.0" fill-opacity="0.33" font-size="16.63751546435732px" stroke="rgb(0,0,0)" fill-rule="evenodd" stroke-width="0.0" fill="rgb(255,255,255)" stroke-linecap="butt" stroke-miterlimit="10.0">
    <text dominant-baseline="middle" transform="matrix(1.0000,-0.0000,0.0000,1.0000,192.6397,176.0036)" stroke="none" text-anchor="middle">2,3
    </text>
  </g>
  <g stroke-linejoin="miter" stroke-opacity="1.0" fill-opacity="1.0" stroke="rgb(102,102,102)" stroke-width="0.0" fill="rgb(0,0,0)" stroke-linecap="butt" stroke-miterlimit="10.0">
    <path d="M 193.5284,188.7092 c 0.0000,-0.4908 -0.3979,-0.8888 -0.8888 -0.8888c -0.4908,-0.0000 -0.8888,0.3979 -0.8888 0.8888c -0.0000,0.4908 0.3979,0.8888 0.8888 0.8888c 0.4908,0.0000 0.8888,-0.3979 0.8888 -0.8888Z"/>
  </g>
  <g stroke-linejoin="miter" stroke-opacity="0.0" fill-opacity="0.0" stroke="rgb(0,0,0)" fill-rule="evenodd" stroke-width="0.0" fill="rgb(0,0,0)" stroke-linecap="butt" stroke-miterlimit="10.0">
    <path d="M 206.3656,220.7045 l -0.0000,-18.3013 h -27.4519 l -0.0000,18.3013 Z"/>
  </g>
  <g stroke-linejoin="miter" stroke-opacity="1.0" fill-opacity="0.33" font-size="16.63751546435732px" stroke="rgb(0,0,0)" fill-rule="evenodd" stroke-width="0.0" fill="rgb(255,255,255)" stroke-linecap="butt" stroke-miterlimit="10.0">
    <text dominant-baseline="middle" transform="matrix(1.0000,-0.0000,0.0000,1.0000,192.6397,211.5538)" stroke="none" text-anchor="middle">2,2
    </text>
  </g>
  <g stroke-linejoin="miter" stroke-opacity="1.0" fill-opacity="1.0" stroke="rgb(102,102,102)" stroke-width="0.0" fill="rgb(0,0,0)" stroke-linecap="butt" stroke-miterlimit="10.0">
    <path d="M 193.5284,224.2595 c 0.0000,-0.4908 -0.3979,-0.8888 -0.8888 -0.8888c -0.4908,-0.0000 -0.8888,0.3979 -0.8888 0.8888c -0.0000,0.4908 0.3979,0.8888 0.8888 0.8888c 0.4908,0.0000 0.8888,-0.3979 0.8888 -0.8888Z"/>
  </g>
  <g stroke-linejoin="miter" stroke-opacity="0.0" fill-opacity="0.0" stroke="rgb(0,0,0)" fill-rule="evenodd" stroke-width="0.0" fill="rgb(0,0,0)" stroke-linecap="butt" stroke-miterlimit="10.0">
    <path d="M 206.3656,256.2547 l -0.0000,-18.3013 h -27.4519 l -0.0000,18.3013 Z"/>
  </g>
  <g stroke-linejoin="miter" stroke-opacity="1.0" fill-opacity="0.33" font-size="16.63751546435732px" stroke="rgb(0,0,0)" fill-rule="evenodd" stroke-width="0.0" fill="rgb(255,255,255)" stroke-linecap="butt" stroke-miterlimit="10.0">
    <text dominant-baseline="middle" transform="matrix(1.0000,-0.0000,0.0000,1.0000,192.6397,247.1041)" stroke="none" text-anchor="middle">2,1
    </text>
  </g>
  <g stroke-linejoin="miter" stroke-opacity="1.0" fill-opacity="1.0" stroke="rgb(102,102,102)" stroke-width="0.0" fill="rgb(0,0,0)" stroke-linecap="butt" stroke-miterlimit="10.0">
    <path d="M 193.5284,259.8097 c 0.0000,-0.4908 -0.3979,-0.8888 -0.8888 -0.8888c -0.4908,-0.0000 -0.8888,0.3979 -0.8888 0.8888c -0.0000,0.4908 0.3979,0.8888 0.8888 0.8888c 0.4908,0.0000 0.8888,-0.3979 0.8888 -0.8888Z"/>
  </g>
  <g stroke-linejoin="miter" stroke-opacity="0.0" fill-opacity="0.0" stroke="rgb(0,0,0)" fill-rule="evenodd" stroke-width="0.0" fill="rgb(0,0,0)" stroke-linecap="butt" stroke-miterlimit="10.0">
    <path d="M 206.3656,291.8050 l -0.0000,-18.3013 h -27.4519 l -0.0000,18.3013 Z"/>
  </g>
  <g stroke-linejoin="miter" stroke-opacity="1.0" fill-opacity="0.33" font-size="16.63751546435732px" stroke="rgb(0,0,0)" fill-rule="evenodd" stroke-width="0.0" fill="rgb(255,255,255)" stroke-linecap="butt" stroke-miterlimit="10.0">
    <text dominant-baseline="middle" transform="matrix(1.0000,-0.0000,0.0000,1.0000,192.6397,282.6543)" stroke="none" text-anchor="middle">2,0
    </text>
  </g>
  <g stroke-linejoin="miter" stroke-opacity="1.0" fill-opacity="1.0" stroke="rgb(102,102,102)" stroke-width="0.0" fill="rgb(0,0,0)" stroke-linecap="butt" stroke-miterlimit="10.0">
    <path d="M 193.5284,295.3600 c 0.0000,-0.4908 -0.3979,-0.8888 -0.8888 -0.8888c -0.4908,-0.0000 -0.8888,0.3979 -0.8888 0.8888c -0.0000,0.4908 0.3979,0.8888 0.8888 0.8888c 0.4908,0.0000 0.8888,-0.3979 0.8888 -0.8888Z"/>
  </g>
  <g stroke-linejoin="miter" stroke-opacity="0.0" fill-opacity="0.0" stroke="rgb(0,0,0)" fill-rule="evenodd" stroke-width="0.0" fill="rgb(0,0,0)" stroke-linecap="butt" stroke-miterlimit="10.0">
    <path d="M 153.0403,114.0537 l -0.0000,-18.3013 h -27.4519 l -0.0000,18.3013 Z"/>
  </g>
  <g stroke-linejoin="miter" stroke-opacity="1.0" fill-opacity="0.33" font-size="16.63751546435732px" stroke="rgb(0,0,0)" fill-rule="evenodd" stroke-width="0.0" fill="rgb(255,255,255)" stroke-linecap="butt" stroke-miterlimit="10.0">
    <text dominant-baseline="middle" transform="matrix(1.0000,-0.0000,0.0000,1.0000,139.3143,104.9031)" stroke="none" text-anchor="middle">1,5
    </text>
  </g>
  <g stroke-linejoin="miter" stroke-opacity="1.0" fill-opacity="1.0" stroke="rgb(102,102,102)" stroke-width="0.0" fill="rgb(0,0,0)" stroke-linecap="butt" stroke-miterlimit="10.0">
    <path d="M 140.2031,117.6087 c 0.0000,-0.4908 -0.3979,-0.8888 -0.8888 -0.8888c -0.4908,-0.0000 -0.8888,0.3979 -0.8888 0.8888c -0.0000,0.4908 0.3979,0.8888 0.8888 0.8888c 0.4908,0.0000 0.8888,-0.3979 0.8888 -0.8888Z"/>
  </g>
  <g stroke-linejoin="miter" stroke-opacity="0.0" fill-opacity="0.0" stroke="rgb(0,0,0)" fill-rule="evenodd" stroke-width="0.0" fill="rgb(0,0,0)" stroke-linecap="butt" stroke-miterlimit="10.0">
    <path d="M 153.0403,149.6040 l -0.0000,-18.3013 h -27.4519 l -0.0000,18.3013 Z"/>
  </g>
  <g stroke-linejoin="miter" stroke-opacity="1.0" fill-opacity="0.33" font-size="16.63751546435732px" stroke="rgb(0,0,0)" fill-rule="evenodd" stroke-width="0.0" fill="rgb(255,255,255)" stroke-linecap="butt" stroke-miterlimit="10.0">
    <text dominant-baseline="middle" transform="matrix(1.0000,-0.0000,0.0000,1.0000,139.3143,140.4533)" stroke="none" text-anchor="middle">1,4
    </text>
  </g>
  <g stroke-linejoin="miter" stroke-opacity="1.0" fill-opacity="1.0" stroke="rgb(102,102,102)" stroke-width="0.0" fill="rgb(0,0,0)" stroke-linecap="butt" stroke-miterlimit="10.0">
    <path d="M 140.2031,153.1590 c 0.0000,-0.4908 -0.3979,-0.8888 -0.8888 -0.8888c -0.4908,-0.0000 -0.8888,0.3979 -0.8888 0.8888c -0.0000,0.4908 0.3979,0.8888 0.8888 0.8888c 0.4908,0.0000 0.8888,-0.3979 0.8888 -0.8888Z"/>
  </g>
  <g stroke-linejoin="miter" stroke-opacity="0.0" fill-opacity="0.0" stroke="rgb(0,0,0)" fill-rule="evenodd" stroke-width="0.0" fill="rgb(0,0,0)" stroke-linecap="butt" stroke-miterlimit="10.0">
    <path d="M 153.0403,185.1542 l -0.0000,-18.3013 h -27.4519 l -0.0000,18.3013 Z"/>
  </g>
  <g stroke-linejoin="miter" stroke-opacity="1.0" fill-opacity="0.33" font-size="16.63751546435732px" stroke="rgb(0,0,0)" fill-rule="evenodd" stroke-width="0.0" fill="rgb(255,255,255)" stroke-linecap="butt" stroke-miterlimit="10.0">
    <text dominant-baseline="middle" transform="matrix(1.0000,-0.0000,0.0000,1.0000,139.3143,176.0036)" stroke="none" text-anchor="middle">1,3
    </text>
  </g>
  <g stroke-linejoin="miter" stroke-opacity="1.0" fill-opacity="1.0" stroke="rgb(102,102,102)" stroke-width="0.0" fill="rgb(0,0,0)" stroke-linecap="butt" stroke-miterlimit="10.0">
    <path d="M 140.2031,188.7092 c 0.0000,-0.4908 -0.3979,-0.8888 -0.8888 -0.8888c -0.4908,-0.0000 -0.8888,0.3979 -0.8888 0.8888c -0.0000,0.4908 0.3979,0.8888 0.8888 0.8888c 0.4908,0.0000 0.8888,-0.3979 0.8888 -0.8888Z"/>
  </g>
  <g stroke-linejoin="miter" stroke-opacity="0.0" fill-opacity="0.0" stroke="rgb(0,0,0)" fill-rule="evenodd" stroke-width="0.0" fill="rgb(0,0,0)" stroke-linecap="butt" stroke-miterlimit="10.0">
    <path d="M 153.0403,220.7045 l -0.0000,-18.3013 h -27.4519 l -0.0000,18.3013 Z"/>
  </g>
  <g stroke-linejoin="miter" stroke-opacity="1.0" fill-opacity="0.33" font-size="16.63751546435732px" stroke="rgb(0,0,0)" fill-rule="evenodd" stroke-width="0.0" fill="rgb(255,255,255)" stroke-linecap="butt" stroke-miterlimit="10.0">
    <text dominant-baseline="middle" transform="matrix(1.0000,-0.0000,0.0000,1.0000,139.3143,211.5538)" stroke="none" text-anchor="middle">1,2
    </text>
  </g>
  <g stroke-linejoin="miter" stroke-opacity="1.0" fill-opacity="1.0" stroke="rgb(102,102,102)" stroke-width="0.0" fill="rgb(0,0,0)" stroke-linecap="butt" stroke-miterlimit="10.0">
    <path d="M 140.2031,224.2595 c 0.0000,-0.4908 -0.3979,-0.8888 -0.8888 -0.8888c -0.4908,-0.0000 -0.8888,0.3979 -0.8888 0.8888c -0.0000,0.4908 0.3979,0.8888 0.8888 0.8888c 0.4908,0.0000 0.8888,-0.3979 0.8888 -0.8888Z"/>
  </g>
  <g stroke-linejoin="miter" stroke-opacity="0.0" fill-opacity="0.0" stroke="rgb(0,0,0)" fill-rule="evenodd" stroke-width="0.0" fill="rgb(0,0,0)" stroke-linecap="butt" stroke-miterlimit="10.0">
    <path d="M 153.0403,256.2547 l -0.0000,-18.3013 h -27.4519 l -0.0000,18.3013 Z"/>
  </g>
  <g stroke-linejoin="miter" stroke-opacity="1.0" fill-opacity="0.33" font-size="16.63751546435732px" stroke="rgb(0,0,0)" fill-rule="evenodd" stroke-width="0.0" fill="rgb(255,255,255)" stroke-linecap="butt" stroke-miterlimit="10.0">
    <text dominant-baseline="middle" transform="matrix(1.0000,-0.0000,0.0000,1.0000,139.3143,247.1041)" stroke="none" text-anchor="middle">1,1
    </text>
  </g>
  <g stroke-linejoin="miter" stroke-opacity="1.0" fill-opacity="1.0" stroke="rgb(102,102,102)" stroke-width="0.0" fill="rgb(0,0,0)" stroke-linecap="butt" stroke-miterlimit="10.0">
    <path d="M 140.2031,259.8097 c 0.0000,-0.4908 -0.3979,-0.8888 -0.8888 -0.8888c -0.4908,-0.0000 -0.8888,0.3979 -0.8888 0.8888c -0.0000,0.4908 0.3979,0.8888 0.8888 0.8888c 0.4908,0.0000 0.8888,-0.3979 0.8888 -0.8888Z"/>
  </g>
  <g stroke-linejoin="miter" stroke-opacity="0.0" fill-opacity="0.0" stroke="rgb(0,0,0)" fill-rule="evenodd" stroke-width="0.0" fill="rgb(0,0,0)" stroke-linecap="butt" stroke-miterlimit="10.0">
    <path d="M 153.0403,291.8050 l -0.0000,-18.3013 h -27.4519 l -0.0000,18.3013 Z"/>
  </g>
  <g stroke-linejoin="miter" stroke-opacity="1.0" fill-opacity="0.33" font-size="16.63751546435732px" stroke="rgb(0,0,0)" fill-rule="evenodd" stroke-width="0.0" fill="rgb(255,255,255)" stroke-linecap="butt" stroke-miterlimit="10.0">
    <text dominant-baseline="middle" transform="matrix(1.0000,-0.0000,0.0000,1.0000,139.3143,282.6543)" stroke="none" text-anchor="middle">1,0
    </text>
  </g>
  <g stroke-linejoin="miter" stroke-opacity="1.0" fill-opacity="1.0" stroke="rgb(102,102,102)" stroke-width="0.0" fill="rgb(0,0,0)" stroke-linecap="butt" stroke-miterlimit="10.0">
    <path d="M 140.2031,295.3600 c 0.0000,-0.4908 -0.3979,-0.8888 -0.8888 -0.8888c -0.4908,-0.0000 -0.8888,0.3979 -0.8888 0.8888c -0.0000,0.4908 0.3979,0.8888 0.8888 0.8888c 0.4908,0.0000 0.8888,-0.3979 0.8888 -0.8888Z"/>
  </g>
  <g stroke-linejoin="miter" stroke-opacity="0.0" fill-opacity="0.0" stroke="rgb(0,0,0)" fill-rule="evenodd" stroke-width="0.0" fill="rgb(0,0,0)" stroke-linecap="butt" stroke-miterlimit="10.0">
    <path d="M 99.7149,114.0537 l -0.0000,-18.3013 h -27.4519 l -0.0000,18.3013 Z"/>
  </g>
  <g stroke-linejoin="miter" stroke-opacity="1.0" fill-opacity="0.33" font-size="16.63751546435732px" stroke="rgb(0,0,0)" fill-rule="evenodd" stroke-width="0.0" fill="rgb(255,255,255)" stroke-linecap="butt" stroke-miterlimit="10.0">
    <text dominant-baseline="middle" transform="matrix(1.0000,-0.0000,0.0000,1.0000,85.9889,104.9031)" stroke="none" text-anchor="middle">0,5
    </text>
  </g>
  <g stroke-linejoin="miter" stroke-opacity="1.0" fill-opacity="1.0" stroke="rgb(102,102,102)" stroke-width="0.0" fill="rgb(0,0,0)" stroke-linecap="butt" stroke-miterlimit="10.0">
    <path d="M 86.8777,117.6087 c 0.0000,-0.4908 -0.3979,-0.8888 -0.8888 -0.8888c -0.4908,-0.0000 -0.8888,0.3979 -0.8888 0.8888c -0.0000,0.4908 0.3979,0.8888 0.8888 0.8888c 0.4908,0.0000 0.8888,-0.3979 0.8888 -0.8888Z"/>
  </g>
  <g stroke-linejoin="miter" stroke-opacity="0.0" fill-opacity="0.0" stroke="rgb(0,0,0)" fill-rule="evenodd" stroke-width="0.0" fill="rgb(0,0,0)" stroke-linecap="butt" stroke-miterlimit="10.0">
    <path d="M 99.7149,149.6040 l -0.0000,-18.3013 h -27.4519 l -0.0000,18.3013 Z"/>
  </g>
  <g stroke-linejoin="miter" stroke-opacity="1.0" fill-opacity="0.33" font-size="16.63751546435732px" stroke="rgb(0,0,0)" fill-rule="evenodd" stroke-width="0.0" fill="rgb(255,255,255)" stroke-linecap="butt" stroke-miterlimit="10.0">
    <text dominant-baseline="middle" transform="matrix(1.0000,-0.0000,0.0000,1.0000,85.9889,140.4533)" stroke="none" text-anchor="middle">0,4
    </text>
  </g>
  <g stroke-linejoin="miter" stroke-opacity="1.0" fill-opacity="1.0" stroke="rgb(102,102,102)" stroke-width="0.0" fill="rgb(0,0,0)" stroke-linecap="butt" stroke-miterlimit="10.0">
    <path d="M 86.8777,153.1590 c 0.0000,-0.4908 -0.3979,-0.8888 -0.8888 -0.8888c -0.4908,-0.0000 -0.8888,0.3979 -0.8888 0.8888c -0.0000,0.4908 0.3979,0.8888 0.8888 0.8888c 0.4908,0.0000 0.8888,-0.3979 0.8888 -0.8888Z"/>
  </g>
  <g stroke-linejoin="miter" stroke-opacity="0.0" fill-opacity="0.0" stroke="rgb(0,0,0)" fill-rule="evenodd" stroke-width="0.0" fill="rgb(0,0,0)" stroke-linecap="butt" stroke-miterlimit="10.0">
    <path d="M 99.7149,185.1542 l -0.0000,-18.3013 h -27.4519 l -0.0000,18.3013 Z"/>
  </g>
  <g stroke-linejoin="miter" stroke-opacity="1.0" fill-opacity="0.33" font-size="16.63751546435732px" stroke="rgb(0,0,0)" fill-rule="evenodd" stroke-width="0.0" fill="rgb(255,255,255)" stroke-linecap="butt" stroke-miterlimit="10.0">
    <text dominant-baseline="middle" transform="matrix(1.0000,-0.0000,0.0000,1.0000,85.9889,176.0036)" stroke="none" text-anchor="middle">0,3
    </text>
  </g>
  <g stroke-linejoin="miter" stroke-opacity="1.0" fill-opacity="1.0" stroke="rgb(102,102,102)" stroke-width="0.0" fill="rgb(0,0,0)" stroke-linecap="butt" stroke-miterlimit="10.0">
    <path d="M 86.8777,188.7092 c 0.0000,-0.4908 -0.3979,-0.8888 -0.8888 -0.8888c -0.4908,-0.0000 -0.8888,0.3979 -0.8888 0.8888c -0.0000,0.4908 0.3979,0.8888 0.8888 0.8888c 0.4908,0.0000 0.8888,-0.3979 0.8888 -0.8888Z"/>
  </g>
  <g stroke-linejoin="miter" stroke-opacity="0.0" fill-opacity="0.0" stroke="rgb(0,0,0)" fill-rule="evenodd" stroke-width="0.0" fill="rgb(0,0,0)" stroke-linecap="butt" stroke-miterlimit="10.0">
    <path d="M 99.7149,220.7045 l -0.0000,-18.3013 h -27.4519 l -0.0000,18.3013 Z"/>
  </g>
  <g stroke-linejoin="miter" stroke-opacity="1.0" fill-opacity="0.33" font-size="16.63751546435732px" stroke="rgb(0,0,0)" fill-rule="evenodd" stroke-width="0.0" fill="rgb(255,255,255)" stroke-linecap="butt" stroke-miterlimit="10.0">
    <text dominant-baseline="middle" transform="matrix(1.0000,-0.0000,0.0000,1.0000,85.9889,211.5538)" stroke="none" text-anchor="middle">0,2
    </text>
  </g>
  <g stroke-linejoin="miter" stroke-opacity="1.0" fill-opacity="1.0" stroke="rgb(102,102,102)" stroke-width="0.0" fill="rgb(0,0,0)" stroke-linecap="butt" stroke-miterlimit="10.0">
    <path d="M 86.8777,224.2595 c 0.0000,-0.4908 -0.3979,-0.8888 -0.8888 -0.8888c -0.4908,-0.0000 -0.8888,0.3979 -0.8888 0.8888c -0.0000,0.4908 0.3979,0.8888 0.8888 0.8888c 0.4908,0.0000 0.8888,-0.3979 0.8888 -0.8888Z"/>
  </g>
  <g stroke-linejoin="miter" stroke-opacity="0.0" fill-opacity="0.0" stroke="rgb(0,0,0)" fill-rule="evenodd" stroke-width="0.0" fill="rgb(0,0,0)" stroke-linecap="butt" stroke-miterlimit="10.0">
    <path d="M 99.7149,256.2547 l -0.0000,-18.3013 h -27.4519 l -0.0000,18.3013 Z"/>
  </g>
  <g stroke-linejoin="miter" stroke-opacity="1.0" fill-opacity="0.33" font-size="16.63751546435732px" stroke="rgb(0,0,0)" fill-rule="evenodd" stroke-width="0.0" fill="rgb(255,255,255)" stroke-linecap="butt" stroke-miterlimit="10.0">
    <text dominant-baseline="middle" transform="matrix(1.0000,-0.0000,0.0000,1.0000,85.9889,247.1041)" stroke="none" text-anchor="middle">0,1
    </text>
  </g>
  <g stroke-linejoin="miter" stroke-opacity="1.0" fill-opacity="1.0" stroke="rgb(102,102,102)" stroke-width="0.0" fill="rgb(0,0,0)" stroke-linecap="butt" stroke-miterlimit="10.0">
    <path d="M 86.8777,259.8097 c 0.0000,-0.4908 -0.3979,-0.8888 -0.8888 -0.8888c -0.4908,-0.0000 -0.8888,0.3979 -0.8888 0.8888c -0.0000,0.4908 0.3979,0.8888 0.8888 0.8888c 0.4908,0.0000 0.8888,-0.3979 0.8888 -0.8888Z"/>
  </g>
  <g stroke-linejoin="miter" stroke-opacity="0.0" fill-opacity="0.0" stroke="rgb(0,0,0)" fill-rule="evenodd" stroke-width="0.0" fill="rgb(0,0,0)" stroke-linecap="butt" stroke-miterlimit="10.0">
    <path d="M 99.7149,291.8050 l -0.0000,-18.3013 h -27.4519 l -0.0000,18.3013 Z"/>
  </g>
  <g stroke-linejoin="miter" stroke-opacity="1.0" fill-opacity="0.33" font-size="16.63751546435732px" stroke="rgb(0,0,0)" fill-rule="evenodd" stroke-width="0.0" fill="rgb(255,255,255)" stroke-linecap="butt" stroke-miterlimit="10.0">
    <text dominant-baseline="middle" transform="matrix(1.0000,-0.0000,0.0000,1.0000,85.9889,282.6543)" stroke="none" text-anchor="middle">0,0
    </text>
  </g>
  <g stroke-linejoin="miter" stroke-opacity="1.0" fill-opacity="1.0" stroke="rgb(102,102,102)" stroke-width="0.0" fill="rgb(0,0,0)" stroke-linecap="butt" stroke-miterlimit="10.0">
    <path d="M 86.8777,295.3600 c 0.0000,-0.4908 -0.3979,-0.8888 -0.8888 -0.8888c -0.4908,-0.0000 -0.8888,0.3979 -0.8888 0.8888c -0.0000,0.4908 0.3979,0.8888 0.8888 0.8888c 0.4908,0.0000 0.8888,-0.3979 0.8888 -0.8888Z"/>
  </g>
  <g stroke-linejoin="miter" stroke-opacity="0.0" fill-opacity="0.0" stroke="rgb(0,0,0)" fill-rule="evenodd" stroke-width="0.0" fill="rgb(0,0,0)" stroke-linecap="butt" stroke-miterlimit="10.0">
    <path d="M 50.4387,127.5984 l -30.5021,0.0000 l -0.0000,167.7616 l 30.5021,0.0000 Z"/>
  </g>
  <g stroke-linejoin="miter" stroke-opacity="1.0" fill-opacity="1.0" font-size="27.72919244059554px" stroke="rgb(0,0,0)" fill-rule="evenodd" stroke-width="0.0" fill="rgb(31,180,119)" stroke-linecap="butt" stroke-miterlimit="10.0">
    <text dominant-baseline="middle" transform="matrix(0.0000,-1.0000,1.0000,0.0000,35.1876,295.3600)" stroke="none" text-anchor="start">Gline Chart
    </text>
  </g>
  <g stroke-linejoin="miter" stroke-opacity="0.0" fill-opacity="0.0" stroke="rgb(0,0,0)" fill-rule="evenodd" stroke-width="0.0" fill="rgb(0,0,0)" stroke-linecap="butt" stroke-miterlimit="10.0">
    <path d="M 526.8333,290.2514 l -0.0000,-30.5021 h -91.5063 l -0.0000,30.5021 Z"/>
  </g>
  <g stroke-linejoin="miter" stroke-opacity="1.0" fill-opacity="0.63" font-size="27.72919244059554px" stroke="rgb(0,0,0)" fill-rule="evenodd" stroke-width="0.0" fill="rgb(0,0,0)" stroke-linecap="butt" stroke-miterlimit="10.0">
    <text dominant-baseline="middle" transform="matrix(1.0000,-0.0000,0.0000,1.0000,481.0802,275.0004)" stroke="none" text-anchor="middle">circle
    </text>
  </g>
  <g stroke-linejoin="miter" stroke-opacity="0.6" fill-opacity="0.0" stroke="rgb(33,33,127)" stroke-width="1.768453082311926" fill="rgb(0,0,0)" stroke-linecap="butt" stroke-miterlimit="10.0">
    <path d="M 396.2217,272.2274 h 35.5502 "/>
  </g>
  <g stroke-linejoin="miter" stroke-opacity="1.0" fill-opacity="0.2" stroke="rgb(44,44,160)" stroke-width="1.768453082311926" fill="rgb(16,16,75)" stroke-linecap="butt" stroke-miterlimit="10.0">
    <path d="M 421.1069,272.2274 c 0.0000,-3.9268 -3.1833,-7.1100 -7.1100 -7.1100c -3.9268,-0.0000 -7.1100,3.1833 -7.1100 7.1100c -0.0000,3.9268 3.1833,7.1100 7.1100 7.1100c 3.9268,0.0000 7.1100,-3.1833 7.1100 -7.1100Z"/>
  </g>
  <g stroke-linejoin="miter" stroke-opacity="0.0" fill-opacity="0.0" stroke="rgb(0,0,0)" fill-rule="evenodd" stroke-width="0.0" fill="rgb(0,0,0)" stroke-linecap="butt" stroke-miterlimit="10.0">
    <path d="M 526.8333,254.4168 l -0.0000,-30.5021 h -91.5063 l -0.0000,30.5021 Z"/>
  </g>
  <g stroke-linejoin="miter" stroke-opacity="1.0" fill-opacity="0.63" font-size="27.72919244059554px" stroke="rgb(0,0,0)" fill-rule="evenodd" stroke-width="0.0" fill="rgb(0,0,0)" stroke-linecap="butt" stroke-miterlimit="10.0">
    <text dominant-baseline="middle" transform="matrix(1.0000,-0.0000,0.0000,1.0000,481.0802,239.1657)" stroke="none" text-anchor="middle">square
    </text>
  </g>
  <g stroke-linejoin="miter" stroke-opacity="0.6" fill-opacity="0.0" stroke="rgb(203,9,100)" stroke-width="7.073812329247704" fill="rgb(0,0,0)" stroke-linecap="butt" stroke-miterlimit="10.0">
    <path d="M 396.2217,236.3928 h 35.5502 "/>
  </g>
  <g stroke-linejoin="miter" stroke-opacity="1.0" fill-opacity="0.2" stroke="rgb(188,34,189)" stroke-width="1.768453082311926" fill="rgb(89,11,90)" stroke-linecap="butt" stroke-miterlimit="10.0">
    <path d="M 421.1069,243.5028 l -0.0000,-14.2201 h -14.2201 l -0.0000,14.2201 Z"/>
  </g>
  <g stroke-linejoin="miter" stroke-opacity="0.0" fill-opacity="0.0" stroke="rgb(0,0,0)" fill-rule="evenodd" stroke-width="0.0" fill="rgb(0,0,0)" stroke-linecap="butt" stroke-miterlimit="10.0">
    <path d="M 557.3354,218.5821 l -0.0000,-30.5021 h -122.0084 l -0.0000,30.5021 Z"/>
  </g>
  <g stroke-linejoin="miter" stroke-opacity="1.0" fill-opacity="0.63" font-size="27.72919244059554px" stroke="rgb(0,0,0)" fill-rule="evenodd" stroke-width="0.0" fill="rgb(0,0,0)" stroke-linecap="butt" stroke-miterlimit="10.0">
    <text dominant-baseline="middle" transform="matrix(1.0000,-0.0000,0.0000,1.0000,496.3312,203.3311)" stroke="none" text-anchor="middle">triangle
    </text>
  </g>
  <g stroke-linejoin="miter" stroke-opacity="0.6" fill-opacity="0.0" stroke="rgb(22,143,93)" stroke-width="3.536906164623852" fill="rgb(0,0,0)" stroke-linecap="butt" stroke-miterlimit="10.0">
    <path d="M 396.2217,200.5581 h 35.5502 "/>
  </g>
  <g stroke-linejoin="miter" stroke-opacity="1.0" fill-opacity="0.2" stroke="rgb(227,194,119)" stroke-width="1.768453082311926" fill="rgb(109,92,54)" stroke-linecap="butt" stroke-miterlimit="10.0">
    <path d="M 421.1069,204.6631 l -7.1100,-12.3150 l -7.1100,12.3150 Z"/>
  </g>
  <g stroke-linejoin="miter" stroke-opacity="0.2" fill-opacity="0.0" stroke="rgb(0,0,0)" stroke-width="0.7073812329247704" fill="rgb(0,0,0)" stroke-linecap="butt" stroke-miterlimit="10.0">
    <path d="M 565.3911,295.3600 l -0.0000,-112.3885 h -177.2251 l -0.0000,112.3885 Z"/>
  </g>
  <g stroke-linejoin="miter" stroke-opacity="0.0" fill-opacity="0.0" stroke="rgb(0,0,0)" stroke-width="0.0" fill="rgb(0,0,0)" stroke-linecap="butt" stroke-miterlimit="10.0">
    <path d="M 352.6158,295.3600 l -0.0000,-177.7512 h -266.6269 l -0.0000,177.7512 Z"/>
  </g>
  <g stroke-linejoin="miter" stroke-opacity="0.6" fill-opacity="0.0" stroke="rgb(33,33,127)" stroke-width="1.768453082311926" fill="rgb(0,0,0)" stroke-linecap="butt" stroke-miterlimit="10.0">
    <path d="M 112.6516,153.1590 v 142.2010 "/>
  </g>
  <g stroke-linejoin="miter" stroke-opacity="1.0" fill-opacity="0.2" stroke="rgb(44,44,160)" stroke-width="1.768453082311926" fill="rgb(16,16,75)" stroke-linecap="butt" stroke-miterlimit="10.0">
    <path d="M 119.7617,295.3600 c 0.0000,-3.9268 -3.1833,-7.1100 -7.1100 -7.1100c -3.9268,-0.0000 -7.1100,3.1833 -7.1100 7.1100c -0.0000,3.9268 3.1833,7.1100 7.1100 7.1100c 3.9268,0.0000 7.1100,-3.1833 7.1100 -7.1100Z"/>
  </g>
  <g stroke-linejoin="miter" stroke-opacity="1.0" fill-opacity="0.2" stroke="rgb(44,44,160)" stroke-width="1.768453082311926" fill="rgb(16,16,75)" stroke-linecap="butt" stroke-miterlimit="10.0">
    <path d="M 119.7617,153.1590 c 0.0000,-3.9268 -3.1833,-7.1100 -7.1100 -7.1100c -3.9268,-0.0000 -7.1100,3.1833 -7.1100 7.1100c -0.0000,3.9268 3.1833,7.1100 7.1100 7.1100c 3.9268,0.0000 7.1100,-3.1833 7.1100 -7.1100Z"/>
  </g>
  <g stroke-linejoin="miter" stroke-opacity="0.6" fill-opacity="0.0" stroke="rgb(203,9,100)" stroke-width="7.073812329247704" fill="rgb(0,0,0)" stroke-linecap="butt" stroke-miterlimit="10.0">
    <path d="M 85.9889,295.3600 l 159.9761,-106.6507 "/>
  </g>
  <g stroke-linejoin="miter" stroke-opacity="1.0" fill-opacity="0.2" stroke="rgb(188,34,189)" stroke-width="1.768453082311926" fill="rgb(89,11,90)" stroke-linecap="butt" stroke-miterlimit="10.0">
    <path d="M 253.0751,195.8193 l -0.0000,-14.2201 h -14.2201 l -0.0000,14.2201 Z"/>
  </g>
  <g stroke-linejoin="miter" stroke-opacity="1.0" fill-opacity="0.2" stroke="rgb(188,34,189)" stroke-width="1.768453082311926" fill="rgb(89,11,90)" stroke-linecap="butt" stroke-miterlimit="10.0">
    <path d="M 93.0990,302.4700 l -0.0000,-14.2201 h -14.2201 l -0.0000,14.2201 Z"/>
  </g>
  <g stroke-linejoin="miter" stroke-opacity="0.6" fill-opacity="0.0" stroke="rgb(22,143,93)" stroke-width="3.536906164623852" fill="rgb(0,0,0)" stroke-linecap="butt" stroke-miterlimit="10.0">
    <path d="M 85.9889,259.8097 h 53.3254 l 53.3254,-142.2010 "/>
  </g>
  <g stroke-linejoin="miter" stroke-opacity="1.0" fill-opacity="0.2" stroke="rgb(227,194,119)" stroke-width="1.768453082311926" fill="rgb(109,92,54)" stroke-linecap="butt" stroke-miterlimit="10.0">
    <path d="M 199.7497,121.7137 l -7.1100,-12.3150 l -7.1100,12.3150 Z"/>
  </g>
  <g stroke-linejoin="miter" stroke-opacity="1.0" fill-opacity="0.2" stroke="rgb(227,194,119)" stroke-width="1.768453082311926" fill="rgb(109,92,54)" stroke-linecap="butt" stroke-miterlimit="10.0">
    <path d="M 146.4244,263.9147 l -7.1100,-12.3150 l -7.1100,12.3150 Z"/>
  </g>
  <g stroke-linejoin="miter" stroke-opacity="1.0" fill-opacity="0.2" stroke="rgb(227,194,119)" stroke-width="1.768453082311926" fill="rgb(109,92,54)" stroke-linecap="butt" stroke-miterlimit="10.0">
    <path d="M 93.0990,263.9147 l -7.1100,-12.3150 l -7.1100,12.3150 Z"/>
  </g>
</svg>