<?xml version="1.0" encoding="UTF-8"?>
<!DOCTYPE svg PUBLIC "-//W3C//DTD SVG 1.1//EN"
    "http://www.w3.org/Graphics/SVG/1.1/DTD/svg11.dtd"><svg xmlns="http://www.w3.org/2000/svg" height="200.0000" stroke-opacity="1" viewBox="0 0 300 200" font-size="1" width="300.0000" xmlns:xlink="http://www.w3.org/1999/xlink" stroke="rgb(0,0,0)" version="1.1"><defs></defs><g stroke-linejoin="miter" stroke-opacity="0.6" fill-opacity="0.0" stroke="rgb(44,160,44)" stroke-width="1.184467343905207" fill="rgb(0,0,0)" stroke-linecap="butt" stroke-miterlimit="10.0"><path d="M 61.2049,43.7206 v 142.0722 "/></g><g stroke-linejoin="miter" stroke-opacity="1.0" fill-opacity="0.2" stroke="rgb(44,160,44)" stroke-width="1.184467343905207" fill="rgb(44,160,44)" stroke-linecap="butt" stroke-miterlimit="10.0"><path d="M 75.4121,185.7928 c 0.0000,-7.8464 -6.3608,-14.2072 -14.2072 -14.2072c -7.8464,-0.0000 -14.2072,6.3608 -14.2072 14.2072c -0.0000,7.8464 6.3608,14.2072 14.2072 14.2072c 7.8464,0.0000 14.2072,-6.3608 14.2072 -14.2072Z"/></g><g stroke-linejoin="miter" stroke-opacity="1.0" fill-opacity="0.2" stroke="rgb(44,160,44)" stroke-width="1.184467343905207" fill="rgb(44,160,44)" stroke-linecap="butt" stroke-miterlimit="10.0"><path d="M 75.4121,43.7206 c 0.0000,-7.8464 -6.3608,-14.2072 -14.2072 -14.2072c -7.8464,-0.0000 -14.2072,6.3608 -14.2072 14.2072c -0.0000,7.8464 6.3608,14.2072 14.2072 14.2072c 7.8464,0.0000 14.2072,-6.3608 14.2072 -14.2072Z"/></g><g stroke-linejoin="miter" stroke-opacity="0.6" fill-opacity="0.0" stroke="rgb(255,127,14)" stroke-width="4.737869375620828" fill="rgb(0,0,0)" stroke-linecap="butt" stroke-miterlimit="10.0"><path d="M 16.8073,185.7928 l 266.3854,-106.5541 "/></g><g stroke-linejoin="miter" stroke-opacity="1.0" fill-opacity="0.2" stroke="rgb(188,189,34)" stroke-width="1.184467343905207" fill="rgb(188,189,34)" stroke-linecap="butt" stroke-miterlimit="10.0"><path d="M 290.2963,86.3422 l -0.0000,-14.2072 h -14.2072 l -0.0000,14.2072 Z"/></g><g stroke-linejoin="miter" stroke-opacity="1.0" fill-opacity="0.2" stroke="rgb(188,189,34)" stroke-width="1.184467343905207" fill="rgb(188,189,34)" stroke-linecap="butt" stroke-miterlimit="10.0"><path d="M 23.9109,192.8964 l -0.0000,-14.2072 h -14.2072 l -0.0000,14.2072 Z"/></g><g stroke-linejoin="miter" stroke-opacity="0.6" fill-opacity="0.0" stroke="rgb(31,119,180)" stroke-width="2.368934687810414" fill="rgb(0,0,0)" stroke-linecap="butt" stroke-miterlimit="10.0"><path d="M 16.8073,150.2747 h 88.7951 l 88.7951,-142.0722 "/></g><g stroke-linejoin="miter" stroke-opacity="1.0" fill-opacity="0.2" stroke="rgb(227,119,194)" stroke-width="1.184467343905207" fill="rgb(227,119,194)" stroke-linecap="butt" stroke-miterlimit="10.0"><path d="M 201.5012,12.3038 l -7.1036,-12.3038 l -7.1036,12.3038 Z"/></g><g stroke-linejoin="miter" stroke-opacity="1.0" fill-opacity="0.2" stroke="rgb(227,119,194)" stroke-width="1.184467343905207" fill="rgb(227,119,194)" stroke-linecap="butt" stroke-miterlimit="10.0"><path d="M 112.7060,154.3760 l -7.1036,-12.3038 l -7.1036,12.3038 Z"/></g><g stroke-linejoin="miter" stroke-opacity="1.0" fill-opacity="0.2" stroke="rgb(227,119,194)" stroke-width="1.184467343905207" fill="rgb(227,119,194)" stroke-linecap="butt" stroke-miterlimit="10.0"><path d="M 23.9109,154.3760 l -7.1036,-12.3038 l -7.1036,12.3038 Z"/></g></svg>