<?xml version="1.0" encoding="UTF-8"?>
<!DOCTYPE svg PUBLIC "-//W3C//DTD SVG 1.1//EN"
    "http://www.w3.org/Graphics/SVG/1.1/DTD/svg11.dtd"><svg xmlns="http://www.w3.org/2000/svg" height="100.0000" stroke-opacity="1" viewBox="0 0 400 100" font-size="1" width="400.0000" xmlns:xlink="http://www.w3.org/1999/xlink" stroke="rgb(0,0,0)" version="1.1"><defs></defs><g stroke-linejoin="miter" stroke-opacity="1.0" fill-opacity="0.5" stroke="rgb(102,102,102)" stroke-width="2.6391819878200176" fill="rgb(93,165,218)" stroke-linecap="butt" stroke-miterlimit="10.0"><path d="M 354.7840,50.0000 c 0.0000,-0.8086 -0.6555,-1.4641 -1.4641 -1.4641c -0.8086,-0.0000 -1.4641,0.6555 -1.4641 1.4641c -0.0000,0.8086 0.6555,1.4641 1.4641 1.4641c 0.8086,0.0000 1.4641,-0.6555 1.4641 -1.4641Z"/></g><g stroke-linejoin="miter" stroke-opacity="1.0" fill-opacity="0.5" stroke="rgb(102,102,102)" stroke-width="2.6391819878200176" fill="rgb(93,165,218)" stroke-linecap="butt" stroke-miterlimit="10.0"><path d="M 344.5627,60.1468 c 0.0000,-0.8086 -0.6555,-1.4641 -1.4641 -1.4641c -0.8086,-0.0000 -1.4641,0.6555 -1.4641 1.4641c -0.0000,0.8086 0.6555,1.4641 1.4641 1.4641c 0.8086,0.0000 1.4641,-0.6555 1.4641 -1.4641Z"/></g><g stroke-linejoin="miter" stroke-opacity="1.0" fill-opacity="0.5" stroke="rgb(102,102,102)" stroke-width="2.6391819878200176" fill="rgb(93,165,218)" stroke-linecap="butt" stroke-miterlimit="10.0"><path d="M 334.3414,69.8501 c 0.0000,-0.8086 -0.6555,-1.4641 -1.4641 -1.4641c -0.8086,-0.0000 -1.4641,0.6555 -1.4641 1.4641c -0.0000,0.8086 0.6555,1.4641 1.4641 1.4641c 0.8086,0.0000 1.4641,-0.6555 1.4641 -1.4641Z"/></g><g stroke-linejoin="miter" stroke-opacity="1.0" fill-opacity="0.5" stroke="rgb(102,102,102)" stroke-width="2.6391819878200176" fill="rgb(93,165,218)" stroke-linecap="butt" stroke-miterlimit="10.0"><path d="M 324.1200,78.6858 c 0.0000,-0.8086 -0.6555,-1.4641 -1.4641 -1.4641c -0.8086,-0.0000 -1.4641,0.6555 -1.4641 1.4641c -0.0000,0.8086 0.6555,1.4641 1.4641 1.4641c 0.8086,0.0000 1.4641,-0.6555 1.4641 -1.4641Z"/></g><g stroke-linejoin="miter" stroke-opacity="1.0" fill-opacity="0.5" stroke="rgb(102,102,102)" stroke-width="2.6391819878200176" fill="rgb(93,165,218)" stroke-linecap="butt" stroke-miterlimit="10.0"><path d="M 313.8987,86.2679 c 0.0000,-0.8086 -0.6555,-1.4641 -1.4641 -1.4641c -0.8086,-0.0000 -1.4641,0.6555 -1.4641 1.4641c -0.0000,0.8086 0.6555,1.4641 1.4641 1.4641c 0.8086,0.0000 1.4641,-0.6555 1.4641 -1.4641Z"/></g><g stroke-linejoin="miter" stroke-opacity="1.0" fill-opacity="0.5" stroke="rgb(102,102,102)" stroke-width="2.6391819878200176" fill="rgb(93,165,218)" stroke-linecap="butt" stroke-miterlimit="10.0"><path d="M 303.6774,92.2649 c 0.0000,-0.8086 -0.6555,-1.4641 -1.4641 -1.4641c -0.8086,-0.0000 -1.4641,0.6555 -1.4641 1.4641c -0.0000,0.8086 0.6555,1.4641 1.4641 1.4641c 0.8086,0.0000 1.4641,-0.6555 1.4641 -1.4641Z"/></g><g stroke-linejoin="miter" stroke-opacity="1.0" fill-opacity="0.5" stroke="rgb(102,102,102)" stroke-width="2.6391819878200176" fill="rgb(93,165,218)" stroke-linecap="butt" stroke-miterlimit="10.0"><path d="M 293.4561,96.4147 c 0.0000,-0.8086 -0.6555,-1.4641 -1.4641 -1.4641c -0.8086,-0.0000 -1.4641,0.6555 -1.4641 1.4641c -0.0000,0.8086 0.6555,1.4641 1.4641 1.4641c 0.8086,0.0000 1.4641,-0.6555 1.4641 -1.4641Z"/></g><g stroke-linejoin="miter" stroke-opacity="1.0" fill-opacity="0.5" stroke="rgb(102,102,102)" stroke-width="2.6391819878200176" fill="rgb(93,165,218)" stroke-linecap="butt" stroke-miterlimit="10.0"><path d="M 283.2347,98.5359 c 0.0000,-0.8086 -0.6555,-1.4641 -1.4641 -1.4641c -0.8086,-0.0000 -1.4641,0.6555 -1.4641 1.4641c -0.0000,0.8086 0.6555,1.4641 1.4641 1.4641c 0.8086,0.0000 1.4641,-0.6555 1.4641 -1.4641Z"/></g><g stroke-linejoin="miter" stroke-opacity="1.0" fill-opacity="0.5" stroke="rgb(102,102,102)" stroke-width="2.6391819878200176" fill="rgb(93,165,218)" stroke-linecap="butt" stroke-miterlimit="10.0"><path d="M 273.0134,98.5359 c 0.0000,-0.8086 -0.6555,-1.4641 -1.4641 -1.4641c -0.8086,-0.0000 -1.4641,0.6555 -1.4641 1.4641c -0.0000,0.8086 0.6555,1.4641 1.4641 1.4641c 0.8086,0.0000 1.4641,-0.6555 1.4641 -1.4641Z"/></g><g stroke-linejoin="miter" stroke-opacity="1.0" fill-opacity="0.5" stroke="rgb(102,102,102)" stroke-width="2.6391819878200176" fill="rgb(93,165,218)" stroke-linecap="butt" stroke-miterlimit="10.0"><path d="M 262.7921,96.4147 c 0.0000,-0.8086 -0.6555,-1.4641 -1.4641 -1.4641c -0.8086,-0.0000 -1.4641,0.6555 -1.4641 1.4641c -0.0000,0.8086 0.6555,1.4641 1.4641 1.4641c 0.8086,0.0000 1.4641,-0.6555 1.4641 -1.4641Z"/></g><g stroke-linejoin="miter" stroke-opacity="1.0" fill-opacity="0.5" stroke="rgb(102,102,102)" stroke-width="2.6391819878200176" fill="rgb(93,165,218)" stroke-linecap="butt" stroke-miterlimit="10.0"><path d="M 252.5707,92.2649 c 0.0000,-0.8086 -0.6555,-1.4641 -1.4641 -1.4641c -0.8086,-0.0000 -1.4641,0.6555 -1.4641 1.4641c -0.0000,0.8086 0.6555,1.4641 1.4641 1.4641c 0.8086,0.0000 1.4641,-0.6555 1.4641 -1.4641Z"/></g><g stroke-linejoin="miter" stroke-opacity="1.0" fill-opacity="0.5" stroke="rgb(102,102,102)" stroke-width="2.6391819878200176" fill="rgb(93,165,218)" stroke-linecap="butt" stroke-miterlimit="10.0"><path d="M 242.3494,86.2679 c 0.0000,-0.8086 -0.6555,-1.4641 -1.4641 -1.4641c -0.8086,-0.0000 -1.4641,0.6555 -1.4641 1.4641c -0.0000,0.8086 0.6555,1.4641 1.4641 1.4641c 0.8086,0.0000 1.4641,-0.6555 1.4641 -1.4641Z"/></g><g stroke-linejoin="miter" stroke-opacity="1.0" fill-opacity="0.5" stroke="rgb(102,102,102)" stroke-width="2.6391819878200176" fill="rgb(93,165,218)" stroke-linecap="butt" stroke-miterlimit="10.0"><path d="M 232.1281,78.6858 c 0.0000,-0.8086 -0.6555,-1.4641 -1.4641 -1.4641c -0.8086,-0.0000 -1.4641,0.6555 -1.4641 1.4641c -0.0000,0.8086 0.6555,1.4641 1.4641 1.4641c 0.8086,0.0000 1.4641,-0.6555 1.4641 -1.4641Z"/></g><g stroke-linejoin="miter" stroke-opacity="1.0" fill-opacity="0.5" stroke="rgb(102,102,102)" stroke-width="2.6391819878200176" fill="rgb(93,165,218)" stroke-linecap="butt" stroke-miterlimit="10.0"><path d="M 221.9068,69.8501 c 0.0000,-0.8086 -0.6555,-1.4641 -1.4641 -1.4641c -0.8086,-0.0000 -1.4641,0.6555 -1.4641 1.4641c -0.0000,0.8086 0.6555,1.4641 1.4641 1.4641c 0.8086,0.0000 1.4641,-0.6555 1.4641 -1.4641Z"/></g><g stroke-linejoin="miter" stroke-opacity="1.0" fill-opacity="0.5" stroke="rgb(102,102,102)" stroke-width="2.6391819878200176" fill="rgb(93,165,218)" stroke-linecap="butt" stroke-miterlimit="10.0"><path d="M 211.6854,60.1468 c 0.0000,-0.8086 -0.6555,-1.4641 -1.4641 -1.4641c -0.8086,-0.0000 -1.4641,0.6555 -1.4641 1.4641c -0.0000,0.8086 0.6555,1.4641 1.4641 1.4641c 0.8086,0.0000 1.4641,-0.6555 1.4641 -1.4641Z"/></g><g stroke-linejoin="miter" stroke-opacity="1.0" fill-opacity="0.5" stroke="rgb(102,102,102)" stroke-width="2.6391819878200176" fill="rgb(93,165,218)" stroke-linecap="butt" stroke-miterlimit="10.0"><path d="M 201.4641,50.0000 c 0.0000,-0.8086 -0.6555,-1.4641 -1.4641 -1.4641c -0.8086,-0.0000 -1.4641,0.6555 -1.4641 1.4641c -0.0000,0.8086 0.6555,1.4641 1.4641 1.4641c 0.8086,0.0000 1.4641,-0.6555 1.4641 -1.4641Z"/></g><g stroke-linejoin="miter" stroke-opacity="1.0" fill-opacity="0.5" stroke="rgb(102,102,102)" stroke-width="2.6391819878200176" fill="rgb(93,165,218)" stroke-linecap="butt" stroke-miterlimit="10.0"><path d="M 191.2428,39.8532 c 0.0000,-0.8086 -0.6555,-1.4641 -1.4641 -1.4641c -0.8086,-0.0000 -1.4641,0.6555 -1.4641 1.4641c -0.0000,0.8086 0.6555,1.4641 1.4641 1.4641c 0.8086,0.0000 1.4641,-0.6555 1.4641 -1.4641Z"/></g><g stroke-linejoin="miter" stroke-opacity="1.0" fill-opacity="0.5" stroke="rgb(102,102,102)" stroke-width="2.6391819878200176" fill="rgb(93,165,218)" stroke-linecap="butt" stroke-miterlimit="10.0"><path d="M 181.0214,30.1499 c 0.0000,-0.8086 -0.6555,-1.4641 -1.4641 -1.4641c -0.8086,-0.0000 -1.4641,0.6555 -1.4641 1.4641c -0.0000,0.8086 0.6555,1.4641 1.4641 1.4641c 0.8086,0.0000 1.4641,-0.6555 1.4641 -1.4641Z"/></g><g stroke-linejoin="miter" stroke-opacity="1.0" fill-opacity="0.5" stroke="rgb(102,102,102)" stroke-width="2.6391819878200176" fill="rgb(93,165,218)" stroke-linecap="butt" stroke-miterlimit="10.0"><path d="M 170.8001,21.3142 c 0.0000,-0.8086 -0.6555,-1.4641 -1.4641 -1.4641c -0.8086,-0.0000 -1.4641,0.6555 -1.4641 1.4641c -0.0000,0.8086 0.6555,1.4641 1.4641 1.4641c 0.8086,0.0000 1.4641,-0.6555 1.4641 -1.4641Z"/></g><g stroke-linejoin="miter" stroke-opacity="1.0" fill-opacity="0.5" stroke="rgb(102,102,102)" stroke-width="2.6391819878200176" fill="rgb(93,165,218)" stroke-linecap="butt" stroke-miterlimit="10.0"><path d="M 160.5788,13.7321 c 0.0000,-0.8086 -0.6555,-1.4641 -1.4641 -1.4641c -0.8086,-0.0000 -1.4641,0.6555 -1.4641 1.4641c -0.0000,0.8086 0.6555,1.4641 1.4641 1.4641c 0.8086,0.0000 1.4641,-0.6555 1.4641 -1.4641Z"/></g><g stroke-linejoin="miter" stroke-opacity="1.0" fill-opacity="0.5" stroke="rgb(102,102,102)" stroke-width="2.6391819878200176" fill="rgb(93,165,218)" stroke-linecap="butt" stroke-miterlimit="10.0"><path d="M 150.3575,7.7351 c 0.0000,-0.8086 -0.6555,-1.4641 -1.4641 -1.4641c -0.8086,-0.0000 -1.4641,0.6555 -1.4641 1.4641c -0.0000,0.8086 0.6555,1.4641 1.4641 1.4641c 0.8086,0.0000 1.4641,-0.6555 1.4641 -1.4641Z"/></g><g stroke-linejoin="miter" stroke-opacity="1.0" fill-opacity="0.5" stroke="rgb(102,102,102)" stroke-width="2.6391819878200176" fill="rgb(93,165,218)" stroke-linecap="butt" stroke-miterlimit="10.0"><path d="M 140.1361,3.5853 c 0.0000,-0.8086 -0.6555,-1.4641 -1.4641 -1.4641c -0.8086,-0.0000 -1.4641,0.6555 -1.4641 1.4641c -0.0000,0.8086 0.6555,1.4641 1.4641 1.4641c 0.8086,0.0000 1.4641,-0.6555 1.4641 -1.4641Z"/></g><g stroke-linejoin="miter" stroke-opacity="1.0" fill-opacity="0.5" stroke="rgb(102,102,102)" stroke-width="2.6391819878200176" fill="rgb(93,165,218)" stroke-linecap="butt" stroke-miterlimit="10.0"><path d="M 129.9148,1.4641 c 0.0000,-0.8086 -0.6555,-1.4641 -1.4641 -1.4641c -0.8086,-0.0000 -1.4641,0.6555 -1.4641 1.4641c -0.0000,0.8086 0.6555,1.4641 1.4641 1.4641c 0.8086,0.0000 1.4641,-0.6555 1.4641 -1.4641Z"/></g><g stroke-linejoin="miter" stroke-opacity="1.0" fill-opacity="0.5" stroke="rgb(102,102,102)" stroke-width="2.6391819878200176" fill="rgb(93,165,218)" stroke-linecap="butt" stroke-miterlimit="10.0"><path d="M 119.6935,1.4641 c 0.0000,-0.8086 -0.6555,-1.4641 -1.4641 -1.4641c -0.8086,-0.0000 -1.4641,0.6555 -1.4641 1.4641c -0.0000,0.8086 0.6555,1.4641 1.4641 1.4641c 0.8086,0.0000 1.4641,-0.6555 1.4641 -1.4641Z"/></g><g stroke-linejoin="miter" stroke-opacity="1.0" fill-opacity="0.5" stroke="rgb(102,102,102)" stroke-width="2.6391819878200176" fill="rgb(93,165,218)" stroke-linecap="butt" stroke-miterlimit="10.0"><path d="M 109.4721,3.5853 c 0.0000,-0.8086 -0.6555,-1.4641 -1.4641 -1.4641c -0.8086,-0.0000 -1.4641,0.6555 -1.4641 1.4641c -0.0000,0.8086 0.6555,1.4641 1.4641 1.4641c 0.8086,0.0000 1.4641,-0.6555 1.4641 -1.4641Z"/></g><g stroke-linejoin="miter" stroke-opacity="1.0" fill-opacity="0.5" stroke="rgb(102,102,102)" stroke-width="2.6391819878200176" fill="rgb(93,165,218)" stroke-linecap="butt" stroke-miterlimit="10.0"><path d="M 99.2508,7.7351 c 0.0000,-0.8086 -0.6555,-1.4641 -1.4641 -1.4641c -0.8086,-0.0000 -1.4641,0.6555 -1.4641 1.4641c -0.0000,0.8086 0.6555,1.4641 1.4641 1.4641c 0.8086,0.0000 1.4641,-0.6555 1.4641 -1.4641Z"/></g><g stroke-linejoin="miter" stroke-opacity="1.0" fill-opacity="0.5" stroke="rgb(102,102,102)" stroke-width="2.6391819878200176" fill="rgb(93,165,218)" stroke-linecap="butt" stroke-miterlimit="10.0"><path d="M 89.0295,13.7321 c 0.0000,-0.8086 -0.6555,-1.4641 -1.4641 -1.4641c -0.8086,-0.0000 -1.4641,0.6555 -1.4641 1.4641c -0.0000,0.8086 0.6555,1.4641 1.4641 1.4641c 0.8086,0.0000 1.4641,-0.6555 1.4641 -1.4641Z"/></g><g stroke-linejoin="miter" stroke-opacity="1.0" fill-opacity="0.5" stroke="rgb(102,102,102)" stroke-width="2.6391819878200176" fill="rgb(93,165,218)" stroke-linecap="butt" stroke-miterlimit="10.0"><path d="M 78.8081,21.3142 c 0.0000,-0.8086 -0.6555,-1.4641 -1.4641 -1.4641c -0.8086,-0.0000 -1.4641,0.6555 -1.4641 1.4641c -0.0000,0.8086 0.6555,1.4641 1.4641 1.4641c 0.8086,0.0000 1.4641,-0.6555 1.4641 -1.4641Z"/></g><g stroke-linejoin="miter" stroke-opacity="1.0" fill-opacity="0.5" stroke="rgb(102,102,102)" stroke-width="2.6391819878200176" fill="rgb(93,165,218)" stroke-linecap="butt" stroke-miterlimit="10.0"><path d="M 68.5868,30.1499 c 0.0000,-0.8086 -0.6555,-1.4641 -1.4641 -1.4641c -0.8086,-0.0000 -1.4641,0.6555 -1.4641 1.4641c -0.0000,0.8086 0.6555,1.4641 1.4641 1.4641c 0.8086,0.0000 1.4641,-0.6555 1.4641 -1.4641Z"/></g><g stroke-linejoin="miter" stroke-opacity="1.0" fill-opacity="0.5" stroke="rgb(102,102,102)" stroke-width="2.6391819878200176" fill="rgb(93,165,218)" stroke-linecap="butt" stroke-miterlimit="10.0"><path d="M 58.3655,39.8532 c 0.0000,-0.8086 -0.6555,-1.4641 -1.4641 -1.4641c -0.8086,-0.0000 -1.4641,0.6555 -1.4641 1.4641c -0.0000,0.8086 0.6555,1.4641 1.4641 1.4641c 0.8086,0.0000 1.4641,-0.6555 1.4641 -1.4641Z"/></g><g stroke-linejoin="miter" stroke-opacity="1.0" fill-opacity="0.5" stroke="rgb(102,102,102)" stroke-width="2.6391819878200176" fill="rgb(93,165,218)" stroke-linecap="butt" stroke-miterlimit="10.0"><path d="M 48.1442,50.0000 c 0.0000,-0.8086 -0.6555,-1.4641 -1.4641 -1.4641c -0.8086,-0.0000 -1.4641,0.6555 -1.4641 1.4641c -0.0000,0.8086 0.6555,1.4641 1.4641 1.4641c 0.8086,0.0000 1.4641,-0.6555 1.4641 -1.4641Z"/></g></svg>