<?xml version="1.0" encoding="UTF-8"?>
<!DOCTYPE svg PUBLIC "-//W3C//DTD SVG 1.1//EN"
    "http://www.w3.org/Graphics/SVG/1.1/DTD/svg11.dtd"><svg xmlns="http://www.w3.org/2000/svg" height="150.0000" stroke-opacity="1" viewBox="0 0 450 150" font-size="1" width="450.0000" xmlns:xlink="http://www.w3.org/1999/xlink" stroke="rgb(0,0,0)" version="1.1"><defs></defs><g stroke-linejoin="miter" stroke-opacity="1.0" fill-opacity="0.4" stroke="rgb(102,102,102)" stroke-width="0.2533592401967046" fill="rgb(255,232,0)" stroke-linecap="butt" stroke-miterlimit="10.0"><path d="M 438.9697,11.9550 l -6.9022,-11.9550 l -6.9022,11.9550 Z"/></g><g stroke-linejoin="miter" stroke-opacity="1.0" fill-opacity="0.4" stroke="rgb(102,102,102)" stroke-width="0.2533592401967046" fill="rgb(255,232,0)" stroke-linecap="butt" stroke-miterlimit="10.0"><path d="M 425.1652,13.4634 l -6.9022,-11.9550 l -6.9022,11.9550 Z"/></g><g stroke-linejoin="miter" stroke-opacity="1.0" fill-opacity="0.4" stroke="rgb(102,102,102)" stroke-width="0.2533592401967046" fill="rgb(255,232,0)" stroke-linecap="butt" stroke-miterlimit="10.0"><path d="M 411.3607,17.9224 l -6.9022,-11.9550 l -6.9022,11.9550 Z"/></g><g stroke-linejoin="miter" stroke-opacity="1.0" fill-opacity="0.4" stroke="rgb(102,102,102)" stroke-width="0.2533592401967046" fill="rgb(255,232,0)" stroke-linecap="butt" stroke-miterlimit="10.0"><path d="M 397.5562,25.1372 l -6.9022,-11.9550 l -6.9022,11.9550 Z"/></g><g stroke-linejoin="miter" stroke-opacity="1.0" fill-opacity="0.4" stroke="rgb(102,102,102)" stroke-width="0.2533592401967046" fill="rgb(255,232,0)" stroke-linecap="butt" stroke-miterlimit="10.0"><path d="M 383.7517,34.7925 l -6.9022,-11.9550 l -6.9022,11.9550 Z"/></g><g stroke-linejoin="miter" stroke-opacity="1.0" fill-opacity="0.4" stroke="rgb(102,102,102)" stroke-width="0.2533592401967046" fill="rgb(255,232,0)" stroke-linecap="butt" stroke-miterlimit="10.0"><path d="M 369.9472,46.4663 l -6.9022,-11.9550 l -6.9022,11.9550 Z"/></g><g stroke-linejoin="miter" stroke-opacity="1.0" fill-opacity="0.4" stroke="rgb(102,102,102)" stroke-width="0.2533592401967046" fill="rgb(255,232,0)" stroke-linecap="butt" stroke-miterlimit="10.0"><path d="M 356.1427,59.6484 l -6.9022,-11.9550 l -6.9022,11.9550 Z"/></g><g stroke-linejoin="miter" stroke-opacity="1.0" fill-opacity="0.4" stroke="rgb(102,102,102)" stroke-width="0.2533592401967046" fill="rgb(255,232,0)" stroke-linecap="butt" stroke-miterlimit="10.0"><path d="M 342.3382,73.7627 l -6.9022,-11.9550 l -6.9022,11.9550 Z"/></g><g stroke-linejoin="miter" stroke-opacity="1.0" fill-opacity="0.4" stroke="rgb(102,102,102)" stroke-width="0.2533592401967046" fill="rgb(255,232,0)" stroke-linecap="butt" stroke-miterlimit="10.0"><path d="M 328.5337,88.1923 l -6.9022,-11.9550 l -6.9022,11.9550 Z"/></g><g stroke-linejoin="miter" stroke-opacity="1.0" fill-opacity="0.4" stroke="rgb(102,102,102)" stroke-width="0.2533592401967046" fill="rgb(255,232,0)" stroke-linecap="butt" stroke-miterlimit="10.0"><path d="M 314.7292,102.3066 l -6.9022,-11.9550 l -6.9022,11.9550 Z"/></g><g stroke-linejoin="miter" stroke-opacity="1.0" fill-opacity="0.4" stroke="rgb(102,102,102)" stroke-width="0.2533592401967046" fill="rgb(255,232,0)" stroke-linecap="butt" stroke-miterlimit="10.0"><path d="M 300.9247,115.4888 l -6.9022,-11.9550 l -6.9022,11.9550 Z"/></g><g stroke-linejoin="miter" stroke-opacity="1.0" fill-opacity="0.4" stroke="rgb(102,102,102)" stroke-width="0.2533592401967046" fill="rgb(255,232,0)" stroke-linecap="butt" stroke-miterlimit="10.0"><path d="M 287.1202,127.1626 l -6.9022,-11.9550 l -6.9022,11.9550 Z"/></g><g stroke-linejoin="miter" stroke-opacity="1.0" fill-opacity="0.4" stroke="rgb(102,102,102)" stroke-width="0.2533592401967046" fill="rgb(255,232,0)" stroke-linecap="butt" stroke-miterlimit="10.0"><path d="M 273.3157,136.8179 l -6.9022,-11.9550 l -6.9022,11.9550 Z"/></g><g stroke-linejoin="miter" stroke-opacity="1.0" fill-opacity="0.4" stroke="rgb(102,102,102)" stroke-width="0.2533592401967046" fill="rgb(255,232,0)" stroke-linecap="butt" stroke-miterlimit="10.0"><path d="M 259.5112,144.0327 l -6.9022,-11.9550 l -6.9022,11.9550 Z"/></g><g stroke-linejoin="miter" stroke-opacity="1.0" fill-opacity="0.4" stroke="rgb(102,102,102)" stroke-width="0.2533592401967046" fill="rgb(255,232,0)" stroke-linecap="butt" stroke-miterlimit="10.0"><path d="M 245.7067,148.4917 l -6.9022,-11.9550 l -6.9022,11.9550 Z"/></g><g stroke-linejoin="miter" stroke-opacity="1.0" fill-opacity="0.4" stroke="rgb(102,102,102)" stroke-width="0.2533592401967046" fill="rgb(255,232,0)" stroke-linecap="butt" stroke-miterlimit="10.0"><path d="M 231.9022,150.0000 l -6.9022,-11.9550 l -6.9022,11.9550 Z"/></g><g stroke-linejoin="miter" stroke-opacity="1.0" fill-opacity="0.4" stroke="rgb(102,102,102)" stroke-width="0.2533592401967046" fill="rgb(255,232,0)" stroke-linecap="butt" stroke-miterlimit="10.0"><path d="M 218.0978,148.4917 l -6.9022,-11.9550 l -6.9022,11.9550 Z"/></g><g stroke-linejoin="miter" stroke-opacity="1.0" fill-opacity="0.4" stroke="rgb(102,102,102)" stroke-width="0.2533592401967046" fill="rgb(255,232,0)" stroke-linecap="butt" stroke-miterlimit="10.0"><path d="M 204.2933,144.0327 l -6.9022,-11.9550 l -6.9022,11.9550 Z"/></g><g stroke-linejoin="miter" stroke-opacity="1.0" fill-opacity="0.4" stroke="rgb(102,102,102)" stroke-width="0.2533592401967046" fill="rgb(255,232,0)" stroke-linecap="butt" stroke-miterlimit="10.0"><path d="M 190.4888,136.8179 l -6.9022,-11.9550 l -6.9022,11.9550 Z"/></g><g stroke-linejoin="miter" stroke-opacity="1.0" fill-opacity="0.4" stroke="rgb(102,102,102)" stroke-width="0.2533592401967046" fill="rgb(255,232,0)" stroke-linecap="butt" stroke-miterlimit="10.0"><path d="M 176.6843,127.1626 l -6.9022,-11.9550 l -6.9022,11.9550 Z"/></g><g stroke-linejoin="miter" stroke-opacity="1.0" fill-opacity="0.4" stroke="rgb(102,102,102)" stroke-width="0.2533592401967046" fill="rgb(255,232,0)" stroke-linecap="butt" stroke-miterlimit="10.0"><path d="M 162.8798,115.4888 l -6.9022,-11.9550 l -6.9022,11.9550 Z"/></g><g stroke-linejoin="miter" stroke-opacity="1.0" fill-opacity="0.4" stroke="rgb(102,102,102)" stroke-width="0.2533592401967046" fill="rgb(255,232,0)" stroke-linecap="butt" stroke-miterlimit="10.0"><path d="M 149.0753,102.3066 l -6.9022,-11.9550 l -6.9022,11.9550 Z"/></g><g stroke-linejoin="miter" stroke-opacity="1.0" fill-opacity="0.4" stroke="rgb(102,102,102)" stroke-width="0.2533592401967046" fill="rgb(255,232,0)" stroke-linecap="butt" stroke-miterlimit="10.0"><path d="M 135.2708,88.1923 l -6.9022,-11.9550 l -6.9022,11.9550 Z"/></g><g stroke-linejoin="miter" stroke-opacity="1.0" fill-opacity="0.4" stroke="rgb(102,102,102)" stroke-width="0.2533592401967046" fill="rgb(255,232,0)" stroke-linecap="butt" stroke-miterlimit="10.0"><path d="M 121.4663,73.7627 l -6.9022,-11.9550 l -6.9022,11.9550 Z"/></g><g stroke-linejoin="miter" stroke-opacity="1.0" fill-opacity="0.4" stroke="rgb(102,102,102)" stroke-width="0.2533592401967046" fill="rgb(255,232,0)" stroke-linecap="butt" stroke-miterlimit="10.0"><path d="M 107.6618,59.6484 l -6.9022,-11.9550 l -6.9022,11.9550 Z"/></g><g stroke-linejoin="miter" stroke-opacity="1.0" fill-opacity="0.4" stroke="rgb(102,102,102)" stroke-width="0.2533592401967046" fill="rgb(255,232,0)" stroke-linecap="butt" stroke-miterlimit="10.0"><path d="M 93.8573,46.4663 l -6.9022,-11.9550 l -6.9022,11.9550 Z"/></g><g stroke-linejoin="miter" stroke-opacity="1.0" fill-opacity="0.4" stroke="rgb(102,102,102)" stroke-width="0.2533592401967046" fill="rgb(255,232,0)" stroke-linecap="butt" stroke-miterlimit="10.0"><path d="M 80.0528,34.7925 l -6.9022,-11.9550 l -6.9022,11.9550 Z"/></g><g stroke-linejoin="miter" stroke-opacity="1.0" fill-opacity="0.4" stroke="rgb(102,102,102)" stroke-width="0.2533592401967046" fill="rgb(255,232,0)" stroke-linecap="butt" stroke-miterlimit="10.0"><path d="M 66.2483,25.1372 l -6.9022,-11.9550 l -6.9022,11.9550 Z"/></g><g stroke-linejoin="miter" stroke-opacity="1.0" fill-opacity="0.4" stroke="rgb(102,102,102)" stroke-width="0.2533592401967046" fill="rgb(255,232,0)" stroke-linecap="butt" stroke-miterlimit="10.0"><path d="M 52.4438,17.9224 l -6.9022,-11.9550 l -6.9022,11.9550 Z"/></g><g stroke-linejoin="miter" stroke-opacity="1.0" fill-opacity="0.4" stroke="rgb(102,102,102)" stroke-width="0.2533592401967046" fill="rgb(255,232,0)" stroke-linecap="butt" stroke-miterlimit="10.0"><path d="M 38.6393,13.4634 l -6.9022,-11.9550 l -6.9022,11.9550 Z"/></g><g stroke-linejoin="miter" stroke-opacity="1.0" fill-opacity="0.4" stroke="rgb(102,102,102)" stroke-width="0.2533592401967046" fill="rgb(255,232,0)" stroke-linecap="butt" stroke-miterlimit="10.0"><path d="M 24.8348,11.9550 l -6.9022,-11.9550 l -6.9022,11.9550 Z"/></g><g stroke-linejoin="miter" stroke-opacity="1.0" fill-opacity="0.5" stroke="rgb(102,102,102)" stroke-width="0.2533592401967046" fill="rgb(93,165,218)" stroke-linecap="butt" stroke-miterlimit="10.0"><path d="M 436.2088,76.9925 c 0.0000,-2.2872 -1.8541,-4.1413 -4.1413 -4.1413c -2.2872,-0.0000 -4.1413,1.8541 -4.1413 4.1413c -0.0000,2.2872 1.8541,4.1413 4.1413 4.1413c 2.2872,0.0000 4.1413,-1.8541 4.1413 -4.1413Z"/></g><g stroke-linejoin="miter" stroke-opacity="1.0" fill-opacity="0.5" stroke="rgb(102,102,102)" stroke-width="0.2533592401967046" fill="rgb(93,165,218)" stroke-linecap="butt" stroke-miterlimit="10.0"><path d="M 422.4043,91.3431 c 0.0000,-2.2872 -1.8541,-4.1413 -4.1413 -4.1413c -2.2872,-0.0000 -4.1413,1.8541 -4.1413 4.1413c -0.0000,2.2872 1.8541,4.1413 4.1413 4.1413c 2.2872,0.0000 4.1413,-1.8541 4.1413 -4.1413Z"/></g><g stroke-linejoin="miter" stroke-opacity="1.0" fill-opacity="0.5" stroke="rgb(102,102,102)" stroke-width="0.2533592401967046" fill="rgb(93,165,218)" stroke-linecap="butt" stroke-miterlimit="10.0"><path d="M 408.5998,105.0665 c 0.0000,-2.2872 -1.8541,-4.1413 -4.1413 -4.1413c -2.2872,-0.0000 -4.1413,1.8541 -4.1413 4.1413c -0.0000,2.2872 1.8541,4.1413 4.1413 4.1413c 2.2872,0.0000 4.1413,-1.8541 4.1413 -4.1413Z"/></g><g stroke-linejoin="miter" stroke-opacity="1.0" fill-opacity="0.5" stroke="rgb(102,102,102)" stroke-width="0.2533592401967046" fill="rgb(93,165,218)" stroke-linecap="butt" stroke-miterlimit="10.0"><path d="M 394.7953,117.5629 c 0.0000,-2.2872 -1.8541,-4.1413 -4.1413 -4.1413c -2.2872,-0.0000 -4.1413,1.8541 -4.1413 4.1413c -0.0000,2.2872 1.8541,4.1413 4.1413 4.1413c 2.2872,0.0000 4.1413,-1.8541 4.1413 -4.1413Z"/></g><g stroke-linejoin="miter" stroke-opacity="1.0" fill-opacity="0.5" stroke="rgb(102,102,102)" stroke-width="0.2533592401967046" fill="rgb(93,165,218)" stroke-linecap="butt" stroke-miterlimit="10.0"><path d="M 380.9908,128.2862 c 0.0000,-2.2872 -1.8541,-4.1413 -4.1413 -4.1413c -2.2872,-0.0000 -4.1413,1.8541 -4.1413 4.1413c -0.0000,2.2872 1.8541,4.1413 4.1413 4.1413c 2.2872,0.0000 4.1413,-1.8541 4.1413 -4.1413Z"/></g><g stroke-linejoin="miter" stroke-opacity="1.0" fill-opacity="0.5" stroke="rgb(102,102,102)" stroke-width="0.2533592401967046" fill="rgb(93,165,218)" stroke-linecap="butt" stroke-miterlimit="10.0"><path d="M 367.1863,136.7677 c 0.0000,-2.2872 -1.8541,-4.1413 -4.1413 -4.1413c -2.2872,-0.0000 -4.1413,1.8541 -4.1413 4.1413c -0.0000,2.2872 1.8541,4.1413 4.1413 4.1413c 2.2872,0.0000 4.1413,-1.8541 4.1413 -4.1413Z"/></g><g stroke-linejoin="miter" stroke-opacity="1.0" fill-opacity="0.5" stroke="rgb(102,102,102)" stroke-width="0.2533592401967046" fill="rgb(93,165,218)" stroke-linecap="butt" stroke-miterlimit="10.0"><path d="M 353.3818,142.6368 c 0.0000,-2.2872 -1.8541,-4.1413 -4.1413 -4.1413c -2.2872,-0.0000 -4.1413,1.8541 -4.1413 4.1413c -0.0000,2.2872 1.8541,4.1413 4.1413 4.1413c 2.2872,0.0000 4.1413,-1.8541 4.1413 -4.1413Z"/></g><g stroke-linejoin="miter" stroke-opacity="1.0" fill-opacity="0.5" stroke="rgb(102,102,102)" stroke-width="0.2533592401967046" fill="rgb(93,165,218)" stroke-linecap="butt" stroke-miterlimit="10.0"><path d="M 339.5773,145.6369 c 0.0000,-2.2872 -1.8541,-4.1413 -4.1413 -4.1413c -2.2872,-0.0000 -4.1413,1.8541 -4.1413 4.1413c -0.0000,2.2872 1.8541,4.1413 4.1413 4.1413c 2.2872,0.0000 4.1413,-1.8541 4.1413 -4.1413Z"/></g><g stroke-linejoin="miter" stroke-opacity="1.0" fill-opacity="0.5" stroke="rgb(102,102,102)" stroke-width="0.2533592401967046" fill="rgb(93,165,218)" stroke-linecap="butt" stroke-miterlimit="10.0"><path d="M 325.7728,145.6369 c 0.0000,-2.2872 -1.8541,-4.1413 -4.1413 -4.1413c -2.2872,-0.0000 -4.1413,1.8541 -4.1413 4.1413c -0.0000,2.2872 1.8541,4.1413 4.1413 4.1413c 2.2872,0.0000 4.1413,-1.8541 4.1413 -4.1413Z"/></g><g stroke-linejoin="miter" stroke-opacity="1.0" fill-opacity="0.5" stroke="rgb(102,102,102)" stroke-width="0.2533592401967046" fill="rgb(93,165,218)" stroke-linecap="butt" stroke-miterlimit="10.0"><path d="M 311.9683,142.6368 c 0.0000,-2.2872 -1.8541,-4.1413 -4.1413 -4.1413c -2.2872,-0.0000 -4.1413,1.8541 -4.1413 4.1413c -0.0000,2.2872 1.8541,4.1413 4.1413 4.1413c 2.2872,0.0000 4.1413,-1.8541 4.1413 -4.1413Z"/></g><g stroke-linejoin="miter" stroke-opacity="1.0" fill-opacity="0.5" stroke="rgb(102,102,102)" stroke-width="0.2533592401967046" fill="rgb(93,165,218)" stroke-linecap="butt" stroke-miterlimit="10.0"><path d="M 298.1638,136.7677 c 0.0000,-2.2872 -1.8541,-4.1413 -4.1413 -4.1413c -2.2872,-0.0000 -4.1413,1.8541 -4.1413 4.1413c -0.0000,2.2872 1.8541,4.1413 4.1413 4.1413c 2.2872,0.0000 4.1413,-1.8541 4.1413 -4.1413Z"/></g><g stroke-linejoin="miter" stroke-opacity="1.0" fill-opacity="0.5" stroke="rgb(102,102,102)" stroke-width="0.2533592401967046" fill="rgb(93,165,218)" stroke-linecap="butt" stroke-miterlimit="10.0"><path d="M 284.3593,128.2862 c 0.0000,-2.2872 -1.8541,-4.1413 -4.1413 -4.1413c -2.2872,-0.0000 -4.1413,1.8541 -4.1413 4.1413c -0.0000,2.2872 1.8541,4.1413 4.1413 4.1413c 2.2872,0.0000 4.1413,-1.8541 4.1413 -4.1413Z"/></g><g stroke-linejoin="miter" stroke-opacity="1.0" fill-opacity="0.5" stroke="rgb(102,102,102)" stroke-width="0.2533592401967046" fill="rgb(93,165,218)" stroke-linecap="butt" stroke-miterlimit="10.0"><path d="M 270.5548,117.5629 c 0.0000,-2.2872 -1.8541,-4.1413 -4.1413 -4.1413c -2.2872,-0.0000 -4.1413,1.8541 -4.1413 4.1413c -0.0000,2.2872 1.8541,4.1413 4.1413 4.1413c 2.2872,0.0000 4.1413,-1.8541 4.1413 -4.1413Z"/></g><g stroke-linejoin="miter" stroke-opacity="1.0" fill-opacity="0.5" stroke="rgb(102,102,102)" stroke-width="0.2533592401967046" fill="rgb(93,165,218)" stroke-linecap="butt" stroke-miterlimit="10.0"><path d="M 256.7503,105.0665 c 0.0000,-2.2872 -1.8541,-4.1413 -4.1413 -4.1413c -2.2872,-0.0000 -4.1413,1.8541 -4.1413 4.1413c -0.0000,2.2872 1.8541,4.1413 4.1413 4.1413c 2.2872,0.0000 4.1413,-1.8541 4.1413 -4.1413Z"/></g><g stroke-linejoin="miter" stroke-opacity="1.0" fill-opacity="0.5" stroke="rgb(102,102,102)" stroke-width="0.2533592401967046" fill="rgb(93,165,218)" stroke-linecap="butt" stroke-miterlimit="10.0"><path d="M 242.9458,91.3431 c 0.0000,-2.2872 -1.8541,-4.1413 -4.1413 -4.1413c -2.2872,-0.0000 -4.1413,1.8541 -4.1413 4.1413c -0.0000,2.2872 1.8541,4.1413 4.1413 4.1413c 2.2872,0.0000 4.1413,-1.8541 4.1413 -4.1413Z"/></g><g stroke-linejoin="miter" stroke-opacity="1.0" fill-opacity="0.5" stroke="rgb(102,102,102)" stroke-width="0.2533592401967046" fill="rgb(93,165,218)" stroke-linecap="butt" stroke-miterlimit="10.0"><path d="M 229.1413,76.9925 c 0.0000,-2.2872 -1.8541,-4.1413 -4.1413 -4.1413c -2.2872,-0.0000 -4.1413,1.8541 -4.1413 4.1413c -0.0000,2.2872 1.8541,4.1413 4.1413 4.1413c 2.2872,0.0000 4.1413,-1.8541 4.1413 -4.1413Z"/></g><g stroke-linejoin="miter" stroke-opacity="1.0" fill-opacity="0.5" stroke="rgb(102,102,102)" stroke-width="0.2533592401967046" fill="rgb(93,165,218)" stroke-linecap="butt" stroke-miterlimit="10.0"><path d="M 215.3369,62.6419 c 0.0000,-2.2872 -1.8541,-4.1413 -4.1413 -4.1413c -2.2872,-0.0000 -4.1413,1.8541 -4.1413 4.1413c -0.0000,2.2872 1.8541,4.1413 4.1413 4.1413c 2.2872,0.0000 4.1413,-1.8541 4.1413 -4.1413Z"/></g><g stroke-linejoin="miter" stroke-opacity="1.0" fill-opacity="0.5" stroke="rgb(102,102,102)" stroke-width="0.2533592401967046" fill="rgb(93,165,218)" stroke-linecap="butt" stroke-miterlimit="10.0"><path d="M 201.5324,48.9185 c 0.0000,-2.2872 -1.8541,-4.1413 -4.1413 -4.1413c -2.2872,-0.0000 -4.1413,1.8541 -4.1413 4.1413c -0.0000,2.2872 1.8541,4.1413 4.1413 4.1413c 2.2872,0.0000 4.1413,-1.8541 4.1413 -4.1413Z"/></g><g stroke-linejoin="miter" stroke-opacity="1.0" fill-opacity="0.5" stroke="rgb(102,102,102)" stroke-width="0.2533592401967046" fill="rgb(93,165,218)" stroke-linecap="butt" stroke-miterlimit="10.0"><path d="M 187.7279,36.4221 c 0.0000,-2.2872 -1.8541,-4.1413 -4.1413 -4.1413c -2.2872,-0.0000 -4.1413,1.8541 -4.1413 4.1413c -0.0000,2.2872 1.8541,4.1413 4.1413 4.1413c 2.2872,0.0000 4.1413,-1.8541 4.1413 -4.1413Z"/></g><g stroke-linejoin="miter" stroke-opacity="1.0" fill-opacity="0.5" stroke="rgb(102,102,102)" stroke-width="0.2533592401967046" fill="rgb(93,165,218)" stroke-linecap="butt" stroke-miterlimit="10.0"><path d="M 173.9234,25.6988 c 0.0000,-2.2872 -1.8541,-4.1413 -4.1413 -4.1413c -2.2872,-0.0000 -4.1413,1.8541 -4.1413 4.1413c -0.0000,2.2872 1.8541,4.1413 4.1413 4.1413c 2.2872,0.0000 4.1413,-1.8541 4.1413 -4.1413Z"/></g><g stroke-linejoin="miter" stroke-opacity="1.0" fill-opacity="0.5" stroke="rgb(102,102,102)" stroke-width="0.2533592401967046" fill="rgb(93,165,218)" stroke-linecap="butt" stroke-miterlimit="10.0"><path d="M 160.1189,17.2173 c 0.0000,-2.2872 -1.8541,-4.1413 -4.1413 -4.1413c -2.2872,-0.0000 -4.1413,1.8541 -4.1413 4.1413c -0.0000,2.2872 1.8541,4.1413 4.1413 4.1413c 2.2872,0.0000 4.1413,-1.8541 4.1413 -4.1413Z"/></g><g stroke-linejoin="miter" stroke-opacity="1.0" fill-opacity="0.5" stroke="rgb(102,102,102)" stroke-width="0.2533592401967046" fill="rgb(93,165,218)" stroke-linecap="butt" stroke-miterlimit="10.0"><path d="M 146.3144,11.3482 c 0.0000,-2.2872 -1.8541,-4.1413 -4.1413 -4.1413c -2.2872,-0.0000 -4.1413,1.8541 -4.1413 4.1413c -0.0000,2.2872 1.8541,4.1413 4.1413 4.1413c 2.2872,0.0000 4.1413,-1.8541 4.1413 -4.1413Z"/></g><g stroke-linejoin="miter" stroke-opacity="1.0" fill-opacity="0.5" stroke="rgb(102,102,102)" stroke-width="0.2533592401967046" fill="rgb(93,165,218)" stroke-linecap="butt" stroke-miterlimit="10.0"><path d="M 132.5099,8.3481 c 0.0000,-2.2872 -1.8541,-4.1413 -4.1413 -4.1413c -2.2872,-0.0000 -4.1413,1.8541 -4.1413 4.1413c -0.0000,2.2872 1.8541,4.1413 4.1413 4.1413c 2.2872,0.0000 4.1413,-1.8541 4.1413 -4.1413Z"/></g><g stroke-linejoin="miter" stroke-opacity="1.0" fill-opacity="0.5" stroke="rgb(102,102,102)" stroke-width="0.2533592401967046" fill="rgb(93,165,218)" stroke-linecap="butt" stroke-miterlimit="10.0"><path d="M 118.7054,8.3481 c 0.0000,-2.2872 -1.8541,-4.1413 -4.1413 -4.1413c -2.2872,-0.0000 -4.1413,1.8541 -4.1413 4.1413c -0.0000,2.2872 1.8541,4.1413 4.1413 4.1413c 2.2872,0.0000 4.1413,-1.8541 4.1413 -4.1413Z"/></g><g stroke-linejoin="miter" stroke-opacity="1.0" fill-opacity="0.5" stroke="rgb(102,102,102)" stroke-width="0.2533592401967046" fill="rgb(93,165,218)" stroke-linecap="butt" stroke-miterlimit="10.0"><path d="M 104.9009,11.3482 c 0.0000,-2.2872 -1.8541,-4.1413 -4.1413 -4.1413c -2.2872,-0.0000 -4.1413,1.8541 -4.1413 4.1413c -0.0000,2.2872 1.8541,4.1413 4.1413 4.1413c 2.2872,0.0000 4.1413,-1.8541 4.1413 -4.1413Z"/></g><g stroke-linejoin="miter" stroke-opacity="1.0" fill-opacity="0.5" stroke="rgb(102,102,102)" stroke-width="0.2533592401967046" fill="rgb(93,165,218)" stroke-linecap="butt" stroke-miterlimit="10.0"><path d="M 91.0964,17.2173 c 0.0000,-2.2872 -1.8541,-4.1413 -4.1413 -4.1413c -2.2872,-0.0000 -4.1413,1.8541 -4.1413 4.1413c -0.0000,2.2872 1.8541,4.1413 4.1413 4.1413c 2.2872,0.0000 4.1413,-1.8541 4.1413 -4.1413Z"/></g><g stroke-linejoin="miter" stroke-opacity="1.0" fill-opacity="0.5" stroke="rgb(102,102,102)" stroke-width="0.2533592401967046" fill="rgb(93,165,218)" stroke-linecap="butt" stroke-miterlimit="10.0"><path d="M 77.2919,25.6988 c 0.0000,-2.2872 -1.8541,-4.1413 -4.1413 -4.1413c -2.2872,-0.0000 -4.1413,1.8541 -4.1413 4.1413c -0.0000,2.2872 1.8541,4.1413 4.1413 4.1413c 2.2872,0.0000 4.1413,-1.8541 4.1413 -4.1413Z"/></g><g stroke-linejoin="miter" stroke-opacity="1.0" fill-opacity="0.5" stroke="rgb(102,102,102)" stroke-width="0.2533592401967046" fill="rgb(93,165,218)" stroke-linecap="butt" stroke-miterlimit="10.0"><path d="M 63.4874,36.4221 c 0.0000,-2.2872 -1.8541,-4.1413 -4.1413 -4.1413c -2.2872,-0.0000 -4.1413,1.8541 -4.1413 4.1413c -0.0000,2.2872 1.8541,4.1413 4.1413 4.1413c 2.2872,0.0000 4.1413,-1.8541 4.1413 -4.1413Z"/></g><g stroke-linejoin="miter" stroke-opacity="1.0" fill-opacity="0.5" stroke="rgb(102,102,102)" stroke-width="0.2533592401967046" fill="rgb(93,165,218)" stroke-linecap="butt" stroke-miterlimit="10.0"><path d="M 49.6829,48.9185 c 0.0000,-2.2872 -1.8541,-4.1413 -4.1413 -4.1413c -2.2872,-0.0000 -4.1413,1.8541 -4.1413 4.1413c -0.0000,2.2872 1.8541,4.1413 4.1413 4.1413c 2.2872,0.0000 4.1413,-1.8541 4.1413 -4.1413Z"/></g><g stroke-linejoin="miter" stroke-opacity="1.0" fill-opacity="0.5" stroke="rgb(102,102,102)" stroke-width="0.2533592401967046" fill="rgb(93,165,218)" stroke-linecap="butt" stroke-miterlimit="10.0"><path d="M 35.8784,62.6419 c 0.0000,-2.2872 -1.8541,-4.1413 -4.1413 -4.1413c -2.2872,-0.0000 -4.1413,1.8541 -4.1413 4.1413c -0.0000,2.2872 1.8541,4.1413 4.1413 4.1413c 2.2872,0.0000 4.1413,-1.8541 4.1413 -4.1413Z"/></g><g stroke-linejoin="miter" stroke-opacity="1.0" fill-opacity="0.5" stroke="rgb(102,102,102)" stroke-width="0.2533592401967046" fill="rgb(93,165,218)" stroke-linecap="butt" stroke-miterlimit="10.0"><path d="M 22.0739,76.9925 c 0.0000,-2.2872 -1.8541,-4.1413 -4.1413 -4.1413c -2.2872,-0.0000 -4.1413,1.8541 -4.1413 4.1413c -0.0000,2.2872 1.8541,4.1413 4.1413 4.1413c 2.2872,0.0000 4.1413,-1.8541 4.1413 -4.1413Z"/></g></svg>