<?xml version="1.0" encoding="UTF-8"?>
<!DOCTYPE svg PUBLIC "-//W3C//DTD SVG 1.1//EN"
    "http://www.w3.org/Graphics/SVG/1.1/DTD/svg11.dtd"><svg xmlns="http://www.w3.org/2000/svg" height="100.0000" stroke-opacity="1" viewBox="0 0 400 100" font-size="1" width="400.0000" xmlns:xlink="http://www.w3.org/1999/xlink" stroke="rgb(0,0,0)" version="1.1"><defs></defs><g stroke-linejoin="miter" stroke-opacity="1.0" fill-opacity="0.5" stroke="rgb(102,102,102)" stroke-width="2.652422225876846" fill="rgb(93,165,218)" stroke-linecap="butt" stroke-miterlimit="10.0"><path d="M 356.3410,50.0000 c 0.0000,-0.4103 -0.3326,-0.7429 -0.7429 -0.7429c -0.4103,-0.0000 -0.7429,0.3326 -0.7429 0.7429c -0.0000,0.4103 0.3326,0.7429 0.7429 0.7429c 0.4103,0.0000 0.7429,-0.3326 0.7429 -0.7429Z"/></g><g stroke-linejoin="miter" stroke-opacity="1.0" fill-opacity="0.5" stroke="rgb(102,102,102)" stroke-width="2.652422225876846" fill="rgb(93,165,218)" stroke-linecap="butt" stroke-miterlimit="10.0"><path d="M 345.9678,60.2975 c 0.0000,-0.4103 -0.3326,-0.7429 -0.7429 -0.7429c -0.4103,-0.0000 -0.7429,0.3326 -0.7429 0.7429c -0.0000,0.4103 0.3326,0.7429 0.7429 0.7429c 0.4103,0.0000 0.7429,-0.3326 0.7429 -0.7429Z"/></g><g stroke-linejoin="miter" stroke-opacity="1.0" fill-opacity="0.5" stroke="rgb(102,102,102)" stroke-width="2.652422225876846" fill="rgb(93,165,218)" stroke-linecap="butt" stroke-miterlimit="10.0"><path d="M 335.5946,70.1450 c 0.0000,-0.4103 -0.3326,-0.7429 -0.7429 -0.7429c -0.4103,-0.0000 -0.7429,0.3326 -0.7429 0.7429c -0.0000,0.4103 0.3326,0.7429 0.7429 0.7429c 0.4103,0.0000 0.7429,-0.3326 0.7429 -0.7429Z"/></g><g stroke-linejoin="miter" stroke-opacity="1.0" fill-opacity="0.5" stroke="rgb(102,102,102)" stroke-width="2.652422225876846" fill="rgb(93,165,218)" stroke-linecap="butt" stroke-miterlimit="10.0"><path d="M 325.2214,79.1121 c 0.0000,-0.4103 -0.3326,-0.7429 -0.7429 -0.7429c -0.4103,-0.0000 -0.7429,0.3326 -0.7429 0.7429c -0.0000,0.4103 0.3326,0.7429 0.7429 0.7429c 0.4103,0.0000 0.7429,-0.3326 0.7429 -0.7429Z"/></g><g stroke-linejoin="miter" stroke-opacity="1.0" fill-opacity="0.5" stroke="rgb(102,102,102)" stroke-width="2.652422225876846" fill="rgb(93,165,218)" stroke-linecap="butt" stroke-miterlimit="10.0"><path d="M 314.8482,86.8068 c 0.0000,-0.4103 -0.3326,-0.7429 -0.7429 -0.7429c -0.4103,-0.0000 -0.7429,0.3326 -0.7429 0.7429c -0.0000,0.4103 0.3326,0.7429 0.7429 0.7429c 0.4103,0.0000 0.7429,-0.3326 0.7429 -0.7429Z"/></g><g stroke-linejoin="miter" stroke-opacity="1.0" fill-opacity="0.5" stroke="rgb(102,102,102)" stroke-width="2.652422225876846" fill="rgb(93,165,218)" stroke-linecap="butt" stroke-miterlimit="10.0"><path d="M 304.4750,92.8928 c 0.0000,-0.4103 -0.3326,-0.7429 -0.7429 -0.7429c -0.4103,-0.0000 -0.7429,0.3326 -0.7429 0.7429c -0.0000,0.4103 0.3326,0.7429 0.7429 0.7429c 0.4103,0.0000 0.7429,-0.3326 0.7429 -0.7429Z"/></g><g stroke-linejoin="miter" stroke-opacity="1.0" fill-opacity="0.5" stroke="rgb(102,102,102)" stroke-width="2.652422225876846" fill="rgb(93,165,218)" stroke-linecap="butt" stroke-miterlimit="10.0"><path d="M 294.1018,97.1043 c 0.0000,-0.4103 -0.3326,-0.7429 -0.7429 -0.7429c -0.4103,-0.0000 -0.7429,0.3326 -0.7429 0.7429c -0.0000,0.4103 0.3326,0.7429 0.7429 0.7429c 0.4103,0.0000 0.7429,-0.3326 0.7429 -0.7429Z"/></g><g stroke-linejoin="miter" stroke-opacity="1.0" fill-opacity="0.5" stroke="rgb(102,102,102)" stroke-width="2.652422225876846" fill="rgb(93,165,218)" stroke-linecap="butt" stroke-miterlimit="10.0"><path d="M 283.7285,99.2571 c 0.0000,-0.4103 -0.3326,-0.7429 -0.7429 -0.7429c -0.4103,-0.0000 -0.7429,0.3326 -0.7429 0.7429c -0.0000,0.4103 0.3326,0.7429 0.7429 0.7429c 0.4103,0.0000 0.7429,-0.3326 0.7429 -0.7429Z"/></g><g stroke-linejoin="miter" stroke-opacity="1.0" fill-opacity="0.5" stroke="rgb(102,102,102)" stroke-width="2.652422225876846" fill="rgb(93,165,218)" stroke-linecap="butt" stroke-miterlimit="10.0"><path d="M 273.3553,99.2571 c 0.0000,-0.4103 -0.3326,-0.7429 -0.7429 -0.7429c -0.4103,-0.0000 -0.7429,0.3326 -0.7429 0.7429c -0.0000,0.4103 0.3326,0.7429 0.7429 0.7429c 0.4103,0.0000 0.7429,-0.3326 0.7429 -0.7429Z"/></g><g stroke-linejoin="miter" stroke-opacity="1.0" fill-opacity="0.5" stroke="rgb(102,102,102)" stroke-width="2.652422225876846" fill="rgb(93,165,218)" stroke-linecap="butt" stroke-miterlimit="10.0"><path d="M 262.9821,97.1043 c 0.0000,-0.4103 -0.3326,-0.7429 -0.7429 -0.7429c -0.4103,-0.0000 -0.7429,0.3326 -0.7429 0.7429c -0.0000,0.4103 0.3326,0.7429 0.7429 0.7429c 0.4103,0.0000 0.7429,-0.3326 0.7429 -0.7429Z"/></g><g stroke-linejoin="miter" stroke-opacity="1.0" fill-opacity="0.5" stroke="rgb(102,102,102)" stroke-width="2.652422225876846" fill="rgb(93,165,218)" stroke-linecap="butt" stroke-miterlimit="10.0"><path d="M 252.6089,92.8928 c 0.0000,-0.4103 -0.3326,-0.7429 -0.7429 -0.7429c -0.4103,-0.0000 -0.7429,0.3326 -0.7429 0.7429c -0.0000,0.4103 0.3326,0.7429 0.7429 0.7429c 0.4103,0.0000 0.7429,-0.3326 0.7429 -0.7429Z"/></g><g stroke-linejoin="miter" stroke-opacity="1.0" fill-opacity="0.5" stroke="rgb(102,102,102)" stroke-width="2.652422225876846" fill="rgb(93,165,218)" stroke-linecap="butt" stroke-miterlimit="10.0"><path d="M 242.2357,86.8068 c 0.0000,-0.4103 -0.3326,-0.7429 -0.7429 -0.7429c -0.4103,-0.0000 -0.7429,0.3326 -0.7429 0.7429c -0.0000,0.4103 0.3326,0.7429 0.7429 0.7429c 0.4103,0.0000 0.7429,-0.3326 0.7429 -0.7429Z"/></g><g stroke-linejoin="miter" stroke-opacity="1.0" fill-opacity="0.5" stroke="rgb(102,102,102)" stroke-width="2.652422225876846" fill="rgb(93,165,218)" stroke-linecap="butt" stroke-miterlimit="10.0"><path d="M 231.8625,79.1121 c 0.0000,-0.4103 -0.3326,-0.7429 -0.7429 -0.7429c -0.4103,-0.0000 -0.7429,0.3326 -0.7429 0.7429c -0.0000,0.4103 0.3326,0.7429 0.7429 0.7429c 0.4103,0.0000 0.7429,-0.3326 0.7429 -0.7429Z"/></g><g stroke-linejoin="miter" stroke-opacity="1.0" fill-opacity="0.5" stroke="rgb(102,102,102)" stroke-width="2.652422225876846" fill="rgb(93,165,218)" stroke-linecap="butt" stroke-miterlimit="10.0"><path d="M 221.4893,70.1450 c 0.0000,-0.4103 -0.3326,-0.7429 -0.7429 -0.7429c -0.4103,-0.0000 -0.7429,0.3326 -0.7429 0.7429c -0.0000,0.4103 0.3326,0.7429 0.7429 0.7429c 0.4103,0.0000 0.7429,-0.3326 0.7429 -0.7429Z"/></g><g stroke-linejoin="miter" stroke-opacity="1.0" fill-opacity="0.5" stroke="rgb(102,102,102)" stroke-width="2.652422225876846" fill="rgb(93,165,218)" stroke-linecap="butt" stroke-miterlimit="10.0"><path d="M 211.1161,60.2975 c 0.0000,-0.4103 -0.3326,-0.7429 -0.7429 -0.7429c -0.4103,-0.0000 -0.7429,0.3326 -0.7429 0.7429c -0.0000,0.4103 0.3326,0.7429 0.7429 0.7429c 0.4103,0.0000 0.7429,-0.3326 0.7429 -0.7429Z"/></g><g stroke-linejoin="miter" stroke-opacity="1.0" fill-opacity="0.5" stroke="rgb(102,102,102)" stroke-width="2.652422225876846" fill="rgb(93,165,218)" stroke-linecap="butt" stroke-miterlimit="10.0"><path d="M 200.7429,50.0000 c 0.0000,-0.4103 -0.3326,-0.7429 -0.7429 -0.7429c -0.4103,-0.0000 -0.7429,0.3326 -0.7429 0.7429c -0.0000,0.4103 0.3326,0.7429 0.7429 0.7429c 0.4103,0.0000 0.7429,-0.3326 0.7429 -0.7429Z"/></g><g stroke-linejoin="miter" stroke-opacity="1.0" fill-opacity="0.5" stroke="rgb(102,102,102)" stroke-width="2.652422225876846" fill="rgb(93,165,218)" stroke-linecap="butt" stroke-miterlimit="10.0"><path d="M 190.3697,39.7025 c 0.0000,-0.4103 -0.3326,-0.7429 -0.7429 -0.7429c -0.4103,-0.0000 -0.7429,0.3326 -0.7429 0.7429c -0.0000,0.4103 0.3326,0.7429 0.7429 0.7429c 0.4103,0.0000 0.7429,-0.3326 0.7429 -0.7429Z"/></g><g stroke-linejoin="miter" stroke-opacity="1.0" fill-opacity="0.5" stroke="rgb(102,102,102)" stroke-width="2.652422225876846" fill="rgb(93,165,218)" stroke-linecap="butt" stroke-miterlimit="10.0"><path d="M 179.9965,29.8550 c 0.0000,-0.4103 -0.3326,-0.7429 -0.7429 -0.7429c -0.4103,-0.0000 -0.7429,0.3326 -0.7429 0.7429c -0.0000,0.4103 0.3326,0.7429 0.7429 0.7429c 0.4103,0.0000 0.7429,-0.3326 0.7429 -0.7429Z"/></g><g stroke-linejoin="miter" stroke-opacity="1.0" fill-opacity="0.5" stroke="rgb(102,102,102)" stroke-width="2.652422225876846" fill="rgb(93,165,218)" stroke-linecap="butt" stroke-miterlimit="10.0"><path d="M 169.6233,20.8879 c 0.0000,-0.4103 -0.3326,-0.7429 -0.7429 -0.7429c -0.4103,-0.0000 -0.7429,0.3326 -0.7429 0.7429c -0.0000,0.4103 0.3326,0.7429 0.7429 0.7429c 0.4103,0.0000 0.7429,-0.3326 0.7429 -0.7429Z"/></g><g stroke-linejoin="miter" stroke-opacity="1.0" fill-opacity="0.5" stroke="rgb(102,102,102)" stroke-width="2.652422225876846" fill="rgb(93,165,218)" stroke-linecap="butt" stroke-miterlimit="10.0"><path d="M 159.2501,13.1932 c 0.0000,-0.4103 -0.3326,-0.7429 -0.7429 -0.7429c -0.4103,-0.0000 -0.7429,0.3326 -0.7429 0.7429c -0.0000,0.4103 0.3326,0.7429 0.7429 0.7429c 0.4103,0.0000 0.7429,-0.3326 0.7429 -0.7429Z"/></g><g stroke-linejoin="miter" stroke-opacity="1.0" fill-opacity="0.5" stroke="rgb(102,102,102)" stroke-width="2.652422225876846" fill="rgb(93,165,218)" stroke-linecap="butt" stroke-miterlimit="10.0"><path d="M 148.8769,7.1072 c 0.0000,-0.4103 -0.3326,-0.7429 -0.7429 -0.7429c -0.4103,-0.0000 -0.7429,0.3326 -0.7429 0.7429c -0.0000,0.4103 0.3326,0.7429 0.7429 0.7429c 0.4103,0.0000 0.7429,-0.3326 0.7429 -0.7429Z"/></g><g stroke-linejoin="miter" stroke-opacity="1.0" fill-opacity="0.5" stroke="rgb(102,102,102)" stroke-width="2.652422225876846" fill="rgb(93,165,218)" stroke-linecap="butt" stroke-miterlimit="10.0"><path d="M 138.5037,2.8957 c 0.0000,-0.4103 -0.3326,-0.7429 -0.7429 -0.7429c -0.4103,-0.0000 -0.7429,0.3326 -0.7429 0.7429c -0.0000,0.4103 0.3326,0.7429 0.7429 0.7429c 0.4103,0.0000 0.7429,-0.3326 0.7429 -0.7429Z"/></g><g stroke-linejoin="miter" stroke-opacity="1.0" fill-opacity="0.5" stroke="rgb(102,102,102)" stroke-width="2.652422225876846" fill="rgb(93,165,218)" stroke-linecap="butt" stroke-miterlimit="10.0"><path d="M 128.1305,0.7429 c 0.0000,-0.4103 -0.3326,-0.7429 -0.7429 -0.7429c -0.4103,-0.0000 -0.7429,0.3326 -0.7429 0.7429c -0.0000,0.4103 0.3326,0.7429 0.7429 0.7429c 0.4103,0.0000 0.7429,-0.3326 0.7429 -0.7429Z"/></g><g stroke-linejoin="miter" stroke-opacity="1.0" fill-opacity="0.5" stroke="rgb(102,102,102)" stroke-width="2.652422225876846" fill="rgb(93,165,218)" stroke-linecap="butt" stroke-miterlimit="10.0"><path d="M 117.7573,0.7429 c 0.0000,-0.4103 -0.3326,-0.7429 -0.7429 -0.7429c -0.4103,-0.0000 -0.7429,0.3326 -0.7429 0.7429c -0.0000,0.4103 0.3326,0.7429 0.7429 0.7429c 0.4103,0.0000 0.7429,-0.3326 0.7429 -0.7429Z"/></g><g stroke-linejoin="miter" stroke-opacity="1.0" fill-opacity="0.5" stroke="rgb(102,102,102)" stroke-width="2.652422225876846" fill="rgb(93,165,218)" stroke-linecap="butt" stroke-miterlimit="10.0"><path d="M 107.3841,2.8957 c 0.0000,-0.4103 -0.3326,-0.7429 -0.7429 -0.7429c -0.4103,-0.0000 -0.7429,0.3326 -0.7429 0.7429c -0.0000,0.4103 0.3326,0.7429 0.7429 0.7429c 0.4103,0.0000 0.7429,-0.3326 0.7429 -0.7429Z"/></g><g stroke-linejoin="miter" stroke-opacity="1.0" fill-opacity="0.5" stroke="rgb(102,102,102)" stroke-width="2.652422225876846" fill="rgb(93,165,218)" stroke-linecap="butt" stroke-miterlimit="10.0"><path d="M 97.0109,7.1072 c 0.0000,-0.4103 -0.3326,-0.7429 -0.7429 -0.7429c -0.4103,-0.0000 -0.7429,0.3326 -0.7429 0.7429c -0.0000,0.4103 0.3326,0.7429 0.7429 0.7429c 0.4103,0.0000 0.7429,-0.3326 0.7429 -0.7429Z"/></g><g stroke-linejoin="miter" stroke-opacity="1.0" fill-opacity="0.5" stroke="rgb(102,102,102)" stroke-width="2.652422225876846" fill="rgb(93,165,218)" stroke-linecap="butt" stroke-miterlimit="10.0"><path d="M 86.6377,13.1932 c 0.0000,-0.4103 -0.3326,-0.7429 -0.7429 -0.7429c -0.4103,-0.0000 -0.7429,0.3326 -0.7429 0.7429c -0.0000,0.4103 0.3326,0.7429 0.7429 0.7429c 0.4103,0.0000 0.7429,-0.3326 0.7429 -0.7429Z"/></g><g stroke-linejoin="miter" stroke-opacity="1.0" fill-opacity="0.5" stroke="rgb(102,102,102)" stroke-width="2.652422225876846" fill="rgb(93,165,218)" stroke-linecap="butt" stroke-miterlimit="10.0"><path d="M 76.2645,20.8879 c 0.0000,-0.4103 -0.3326,-0.7429 -0.7429 -0.7429c -0.4103,-0.0000 -0.7429,0.3326 -0.7429 0.7429c -0.0000,0.4103 0.3326,0.7429 0.7429 0.7429c 0.4103,0.0000 0.7429,-0.3326 0.7429 -0.7429Z"/></g><g stroke-linejoin="miter" stroke-opacity="1.0" fill-opacity="0.5" stroke="rgb(102,102,102)" stroke-width="2.652422225876846" fill="rgb(93,165,218)" stroke-linecap="butt" stroke-miterlimit="10.0"><path d="M 65.8913,29.8550 c 0.0000,-0.4103 -0.3326,-0.7429 -0.7429 -0.7429c -0.4103,-0.0000 -0.7429,0.3326 -0.7429 0.7429c -0.0000,0.4103 0.3326,0.7429 0.7429 0.7429c 0.4103,0.0000 0.7429,-0.3326 0.7429 -0.7429Z"/></g><g stroke-linejoin="miter" stroke-opacity="1.0" fill-opacity="0.5" stroke="rgb(102,102,102)" stroke-width="2.652422225876846" fill="rgb(93,165,218)" stroke-linecap="butt" stroke-miterlimit="10.0"><path d="M 55.5181,39.7025 c 0.0000,-0.4103 -0.3326,-0.7429 -0.7429 -0.7429c -0.4103,-0.0000 -0.7429,0.3326 -0.7429 0.7429c -0.0000,0.4103 0.3326,0.7429 0.7429 0.7429c 0.4103,0.0000 0.7429,-0.3326 0.7429 -0.7429Z"/></g><g stroke-linejoin="miter" stroke-opacity="1.0" fill-opacity="0.5" stroke="rgb(102,102,102)" stroke-width="2.652422225876846" fill="rgb(93,165,218)" stroke-linecap="butt" stroke-miterlimit="10.0"><path d="M 45.1449,50.0000 c 0.0000,-0.4103 -0.3326,-0.7429 -0.7429 -0.7429c -0.4103,-0.0000 -0.7429,0.3326 -0.7429 0.7429c -0.0000,0.4103 0.3326,0.7429 0.7429 0.7429c 0.4103,0.0000 0.7429,-0.3326 0.7429 -0.7429Z"/></g></svg>