<?xml version="1.0" encoding="UTF-8"?>
<!DOCTYPE svg PUBLIC "-//W3C//DTD SVG 1.1//EN"
    "http://www.w3.org/Graphics/SVG/1.1/DTD/svg11.dtd"><svg xmlns="http://www.w3.org/2000/svg" height="100.0000" stroke-opacity="1" viewBox="0 0 400 100" font-size="1" width="400.0000" xmlns:xlink="http://www.w3.org/1999/xlink" stroke="rgb(0,0,0)" version="1.1"><defs></defs><g stroke-linejoin="miter" stroke-opacity="1.0" fill-opacity="0.5" stroke="rgb(102,102,102)" stroke-width="2.9418607057297055" fill="rgb(93,165,218)" stroke-linecap="butt" stroke-miterlimit="10.0"><path d="M 400.0000,71.1033 c 0.0000,-6.2523 -5.0685,-11.3208 -11.3208 -11.3208c -6.2523,-0.0000 -11.3208,5.0685 -11.3208 11.3208c -0.0000,6.2523 5.0685,11.3208 11.3208 11.3208c 6.2523,0.0000 11.3208,-5.0685 11.3208 -11.3208Z"/></g><g stroke-linejoin="miter" stroke-opacity="1.0" fill-opacity="0.5" stroke="rgb(102,102,102)" stroke-width="2.9418607057297055" fill="rgb(93,165,218)" stroke-linecap="butt" stroke-miterlimit="10.0"><path d="M 362.2642,35.0226 c 0.0000,-6.2523 -5.0685,-11.3208 -11.3208 -11.3208c -6.2523,-0.0000 -11.3208,5.0685 -11.3208 11.3208c -0.0000,6.2523 5.0685,11.3208 11.3208 11.3208c 6.2523,0.0000 11.3208,-5.0685 11.3208 -11.3208Z"/></g><g stroke-linejoin="miter" stroke-opacity="1.0" fill-opacity="0.5" stroke="rgb(102,102,102)" stroke-width="2.9418607057297055" fill="rgb(93,165,218)" stroke-linecap="butt" stroke-miterlimit="10.0"><path d="M 324.5283,13.2400 c 0.0000,-6.2523 -5.0685,-11.3208 -11.3208 -11.3208c -6.2523,-0.0000 -11.3208,5.0685 -11.3208 11.3208c -0.0000,6.2523 5.0685,11.3208 11.3208 11.3208c 6.2523,0.0000 11.3208,-5.0685 11.3208 -11.3208Z"/></g><g stroke-linejoin="miter" stroke-opacity="1.0" fill-opacity="0.5" stroke="rgb(102,102,102)" stroke-width="2.9418607057297055" fill="rgb(93,165,218)" stroke-linecap="butt" stroke-miterlimit="10.0"><path d="M 286.7925,25.7823 c 0.0000,-6.2523 -5.0685,-11.3208 -11.3208 -11.3208c -6.2523,-0.0000 -11.3208,5.0685 -11.3208 11.3208c -0.0000,6.2523 5.0685,11.3208 11.3208 11.3208c 6.2523,0.0000 11.3208,-5.0685 11.3208 -11.3208Z"/></g><g stroke-linejoin="miter" stroke-opacity="1.0" fill-opacity="0.5" stroke="rgb(102,102,102)" stroke-width="2.9418607057297055" fill="rgb(93,165,218)" stroke-linecap="butt" stroke-miterlimit="10.0"><path d="M 249.0566,61.1182 c 0.0000,-6.2523 -5.0685,-11.3208 -11.3208 -11.3208c -6.2523,-0.0000 -11.3208,5.0685 -11.3208 11.3208c -0.0000,6.2523 5.0685,11.3208 11.3208 11.3208c 6.2523,0.0000 11.3208,-5.0685 11.3208 -11.3208Z"/></g><g stroke-linejoin="miter" stroke-opacity="1.0" fill-opacity="0.5" stroke="rgb(102,102,102)" stroke-width="2.9418607057297055" fill="rgb(93,165,218)" stroke-linecap="butt" stroke-miterlimit="10.0"><path d="M 211.3208,86.7600 c 0.0000,-6.2523 -5.0685,-11.3208 -11.3208 -11.3208c -6.2523,-0.0000 -11.3208,5.0685 -11.3208 11.3208c -0.0000,6.2523 5.0685,11.3208 11.3208 11.3208c 6.2523,0.0000 11.3208,-5.0685 11.3208 -11.3208Z"/></g><g stroke-linejoin="miter" stroke-opacity="1.0" fill-opacity="0.5" stroke="rgb(102,102,102)" stroke-width="2.9418607057297055" fill="rgb(93,165,218)" stroke-linecap="butt" stroke-miterlimit="10.0"><path d="M 173.5849,79.1328 c 0.0000,-6.2523 -5.0685,-11.3208 -11.3208 -11.3208c -6.2523,-0.0000 -11.3208,5.0685 -11.3208 11.3208c -0.0000,6.2523 5.0685,11.3208 11.3208 11.3208c 6.2523,0.0000 11.3208,-5.0685 11.3208 -11.3208Z"/></g><g stroke-linejoin="miter" stroke-opacity="1.0" fill-opacity="0.5" stroke="rgb(102,102,102)" stroke-width="2.9418607057297055" fill="rgb(93,165,218)" stroke-linecap="butt" stroke-miterlimit="10.0"><path d="M 135.8491,45.2489 c 0.0000,-6.2523 -5.0685,-11.3208 -11.3208 -11.3208c -6.2523,-0.0000 -11.3208,5.0685 -11.3208 11.3208c -0.0000,6.2523 5.0685,11.3208 11.3208 11.3208c 6.2523,0.0000 11.3208,-5.0685 11.3208 -11.3208Z"/></g><g stroke-linejoin="miter" stroke-opacity="1.0" fill-opacity="0.5" stroke="rgb(102,102,102)" stroke-width="2.9418607057297055" fill="rgb(93,165,218)" stroke-linecap="butt" stroke-miterlimit="10.0"><path d="M 98.1132,16.2611 c 0.0000,-6.2523 -5.0685,-11.3208 -11.3208 -11.3208c -6.2523,-0.0000 -11.3208,5.0685 -11.3208 11.3208c -0.0000,6.2523 5.0685,11.3208 11.3208 11.3208c 6.2523,0.0000 11.3208,-5.0685 11.3208 -11.3208Z"/></g><g stroke-linejoin="miter" stroke-opacity="1.0" fill-opacity="0.5" stroke="rgb(102,102,102)" stroke-width="2.9418607057297055" fill="rgb(93,165,218)" stroke-linecap="butt" stroke-miterlimit="10.0"><path d="M 60.3774,18.8206 c 0.0000,-6.2523 -5.0685,-11.3208 -11.3208 -11.3208c -6.2523,-0.0000 -11.3208,5.0685 -11.3208 11.3208c -0.0000,6.2523 5.0685,11.3208 11.3208 11.3208c 6.2523,0.0000 11.3208,-5.0685 11.3208 -11.3208Z"/></g><g stroke-linejoin="miter" stroke-opacity="1.0" fill-opacity="0.5" stroke="rgb(102,102,102)" stroke-width="2.9418607057297055" fill="rgb(93,165,218)" stroke-linecap="butt" stroke-miterlimit="10.0"><path d="M 22.6415,50.5742 c 0.0000,-6.2523 -5.0685,-11.3208 -11.3208 -11.3208c -6.2523,-0.0000 -11.3208,5.0685 -11.3208 11.3208c -0.0000,6.2523 5.0685,11.3208 11.3208 11.3208c 6.2523,0.0000 11.3208,-5.0685 11.3208 -11.3208Z"/></g></svg>