<?xml version="1.0" encoding="UTF-8"?>
<!DOCTYPE svg PUBLIC "-//W3C//DTD SVG 1.1//EN"
    "http://www.w3.org/Graphics/SVG/1.1/DTD/svg11.dtd"><svg xmlns="http://www.w3.org/2000/svg" height="400.0000" stroke-opacity="1" viewBox="0 0 600 400" font-size="1" width="600.0000" xmlns:xlink="http://www.w3.org/1999/xlink" stroke="rgb(0,0,0)" version="1.1"><defs></defs><g stroke-linejoin="miter" stroke-opacity="1.0" fill-opacity="0.4" stroke="rgb(102,102,102)" stroke-width="0.35339809152470336" fill="rgb(255,232,0)" stroke-linecap="butt" stroke-miterlimit="10.0"><path d="M 531.8891,112.7118 l -6.8313,-11.8322 l -6.8313,11.8322 Z"/></g><g stroke-linejoin="miter" stroke-opacity="1.0" fill-opacity="0.4" stroke="rgb(102,102,102)" stroke-width="0.35339809152470336" fill="rgb(255,232,0)" stroke-linecap="butt" stroke-miterlimit="10.0"><path d="M 518.2264,114.2046 l -6.8313,-11.8322 l -6.8313,11.8322 Z"/></g><g stroke-linejoin="miter" stroke-opacity="1.0" fill-opacity="0.4" stroke="rgb(102,102,102)" stroke-width="0.35339809152470336" fill="rgb(255,232,0)" stroke-linecap="butt" stroke-miterlimit="10.0"><path d="M 504.5638,118.6178 l -6.8313,-11.8322 l -6.8313,11.8322 Z"/></g><g stroke-linejoin="miter" stroke-opacity="1.0" fill-opacity="0.4" stroke="rgb(102,102,102)" stroke-width="0.35339809152470336" fill="rgb(255,232,0)" stroke-linecap="butt" stroke-miterlimit="10.0"><path d="M 490.9011,125.7584 l -6.8313,-11.8322 l -6.8313,11.8322 Z"/></g><g stroke-linejoin="miter" stroke-opacity="1.0" fill-opacity="0.4" stroke="rgb(102,102,102)" stroke-width="0.35339809152470336" fill="rgb(255,232,0)" stroke-linecap="butt" stroke-miterlimit="10.0"><path d="M 477.2385,135.3145 l -6.8313,-11.8322 l -6.8313,11.8322 Z"/></g><g stroke-linejoin="miter" stroke-opacity="1.0" fill-opacity="0.4" stroke="rgb(102,102,102)" stroke-width="0.35339809152470336" fill="rgb(255,232,0)" stroke-linecap="butt" stroke-miterlimit="10.0"><path d="M 463.5759,146.8684 l -6.8313,-11.8322 l -6.8313,11.8322 Z"/></g><g stroke-linejoin="miter" stroke-opacity="1.0" fill-opacity="0.4" stroke="rgb(102,102,102)" stroke-width="0.35339809152470336" fill="rgb(255,232,0)" stroke-linecap="butt" stroke-miterlimit="10.0"><path d="M 449.9132,159.9150 l -6.8313,-11.8322 l -6.8313,11.8322 Z"/></g><g stroke-linejoin="miter" stroke-opacity="1.0" fill-opacity="0.4" stroke="rgb(102,102,102)" stroke-width="0.35339809152470336" fill="rgb(255,232,0)" stroke-linecap="butt" stroke-miterlimit="10.0"><path d="M 436.2506,173.8843 l -6.8313,-11.8322 l -6.8313,11.8322 Z"/></g><g stroke-linejoin="miter" stroke-opacity="1.0" fill-opacity="0.4" stroke="rgb(102,102,102)" stroke-width="0.35339809152470336" fill="rgb(255,232,0)" stroke-linecap="butt" stroke-miterlimit="10.0"><path d="M 422.5879,188.1657 l -6.8313,-11.8322 l -6.8313,11.8322 Z"/></g><g stroke-linejoin="miter" stroke-opacity="1.0" fill-opacity="0.4" stroke="rgb(102,102,102)" stroke-width="0.35339809152470336" fill="rgb(255,232,0)" stroke-linecap="butt" stroke-miterlimit="10.0"><path d="M 408.9253,202.1349 l -6.8313,-11.8322 l -6.8313,11.8322 Z"/></g><g stroke-linejoin="miter" stroke-opacity="1.0" fill-opacity="0.4" stroke="rgb(102,102,102)" stroke-width="0.35339809152470336" fill="rgb(255,232,0)" stroke-linecap="butt" stroke-miterlimit="10.0"><path d="M 395.2626,215.1816 l -6.8313,-11.8322 l -6.8313,11.8322 Z"/></g><g stroke-linejoin="miter" stroke-opacity="1.0" fill-opacity="0.4" stroke="rgb(102,102,102)" stroke-width="0.35339809152470336" fill="rgb(255,232,0)" stroke-linecap="butt" stroke-miterlimit="10.0"><path d="M 381.6000,226.7354 l -6.8313,-11.8322 l -6.8313,11.8322 Z"/></g><g stroke-linejoin="miter" stroke-opacity="1.0" fill-opacity="0.4" stroke="rgb(102,102,102)" stroke-width="0.35339809152470336" fill="rgb(255,232,0)" stroke-linecap="butt" stroke-miterlimit="10.0"><path d="M 367.9374,236.2915 l -6.8313,-11.8322 l -6.8313,11.8322 Z"/></g><g stroke-linejoin="miter" stroke-opacity="1.0" fill-opacity="0.4" stroke="rgb(102,102,102)" stroke-width="0.35339809152470336" fill="rgb(255,232,0)" stroke-linecap="butt" stroke-miterlimit="10.0"><path d="M 354.2747,243.4322 l -6.8313,-11.8322 l -6.8313,11.8322 Z"/></g><g stroke-linejoin="miter" stroke-opacity="1.0" fill-opacity="0.4" stroke="rgb(102,102,102)" stroke-width="0.35339809152470336" fill="rgb(255,232,0)" stroke-linecap="butt" stroke-miterlimit="10.0"><path d="M 340.6121,247.8454 l -6.8313,-11.8322 l -6.8313,11.8322 Z"/></g><g stroke-linejoin="miter" stroke-opacity="1.0" fill-opacity="0.4" stroke="rgb(102,102,102)" stroke-width="0.35339809152470336" fill="rgb(255,232,0)" stroke-linecap="butt" stroke-miterlimit="10.0"><path d="M 326.9494,249.3382 l -6.8313,-11.8322 l -6.8313,11.8322 Z"/></g><g stroke-linejoin="miter" stroke-opacity="1.0" fill-opacity="0.4" stroke="rgb(102,102,102)" stroke-width="0.35339809152470336" fill="rgb(255,232,0)" stroke-linecap="butt" stroke-miterlimit="10.0"><path d="M 313.2868,247.8454 l -6.8313,-11.8322 l -6.8313,11.8322 Z"/></g><g stroke-linejoin="miter" stroke-opacity="1.0" fill-opacity="0.4" stroke="rgb(102,102,102)" stroke-width="0.35339809152470336" fill="rgb(255,232,0)" stroke-linecap="butt" stroke-miterlimit="10.0"><path d="M 299.6241,243.4322 l -6.8313,-11.8322 l -6.8313,11.8322 Z"/></g><g stroke-linejoin="miter" stroke-opacity="1.0" fill-opacity="0.4" stroke="rgb(102,102,102)" stroke-width="0.35339809152470336" fill="rgb(255,232,0)" stroke-linecap="butt" stroke-miterlimit="10.0"><path d="M 285.9615,236.2915 l -6.8313,-11.8322 l -6.8313,11.8322 Z"/></g><g stroke-linejoin="miter" stroke-opacity="1.0" fill-opacity="0.4" stroke="rgb(102,102,102)" stroke-width="0.35339809152470336" fill="rgb(255,232,0)" stroke-linecap="butt" stroke-miterlimit="10.0"><path d="M 272.2989,226.7354 l -6.8313,-11.8322 l -6.8313,11.8322 Z"/></g><g stroke-linejoin="miter" stroke-opacity="1.0" fill-opacity="0.4" stroke="rgb(102,102,102)" stroke-width="0.35339809152470336" fill="rgb(255,232,0)" stroke-linecap="butt" stroke-miterlimit="10.0"><path d="M 258.6362,215.1816 l -6.8313,-11.8322 l -6.8313,11.8322 Z"/></g><g stroke-linejoin="miter" stroke-opacity="1.0" fill-opacity="0.4" stroke="rgb(102,102,102)" stroke-width="0.35339809152470336" fill="rgb(255,232,0)" stroke-linecap="butt" stroke-miterlimit="10.0"><path d="M 244.9736,202.1349 l -6.8313,-11.8322 l -6.8313,11.8322 Z"/></g><g stroke-linejoin="miter" stroke-opacity="1.0" fill-opacity="0.4" stroke="rgb(102,102,102)" stroke-width="0.35339809152470336" fill="rgb(255,232,0)" stroke-linecap="butt" stroke-miterlimit="10.0"><path d="M 231.3109,188.1657 l -6.8313,-11.8322 l -6.8313,11.8322 Z"/></g><g stroke-linejoin="miter" stroke-opacity="1.0" fill-opacity="0.4" stroke="rgb(102,102,102)" stroke-width="0.35339809152470336" fill="rgb(255,232,0)" stroke-linecap="butt" stroke-miterlimit="10.0"><path d="M 217.6483,173.8843 l -6.8313,-11.8322 l -6.8313,11.8322 Z"/></g><g stroke-linejoin="miter" stroke-opacity="1.0" fill-opacity="0.4" stroke="rgb(102,102,102)" stroke-width="0.35339809152470336" fill="rgb(255,232,0)" stroke-linecap="butt" stroke-miterlimit="10.0"><path d="M 203.9857,159.9150 l -6.8313,-11.8322 l -6.8313,11.8322 Z"/></g><g stroke-linejoin="miter" stroke-opacity="1.0" fill-opacity="0.4" stroke="rgb(102,102,102)" stroke-width="0.35339809152470336" fill="rgb(255,232,0)" stroke-linecap="butt" stroke-miterlimit="10.0"><path d="M 190.3230,146.8684 l -6.8313,-11.8322 l -6.8313,11.8322 Z"/></g><g stroke-linejoin="miter" stroke-opacity="1.0" fill-opacity="0.4" stroke="rgb(102,102,102)" stroke-width="0.35339809152470336" fill="rgb(255,232,0)" stroke-linecap="butt" stroke-miterlimit="10.0"><path d="M 176.6604,135.3145 l -6.8313,-11.8322 l -6.8313,11.8322 Z"/></g><g stroke-linejoin="miter" stroke-opacity="1.0" fill-opacity="0.4" stroke="rgb(102,102,102)" stroke-width="0.35339809152470336" fill="rgb(255,232,0)" stroke-linecap="butt" stroke-miterlimit="10.0"><path d="M 162.9977,125.7584 l -6.8313,-11.8322 l -6.8313,11.8322 Z"/></g><g stroke-linejoin="miter" stroke-opacity="1.0" fill-opacity="0.4" stroke="rgb(102,102,102)" stroke-width="0.35339809152470336" fill="rgb(255,232,0)" stroke-linecap="butt" stroke-miterlimit="10.0"><path d="M 149.3351,118.6178 l -6.8313,-11.8322 l -6.8313,11.8322 Z"/></g><g stroke-linejoin="miter" stroke-opacity="1.0" fill-opacity="0.4" stroke="rgb(102,102,102)" stroke-width="0.35339809152470336" fill="rgb(255,232,0)" stroke-linecap="butt" stroke-miterlimit="10.0"><path d="M 135.6724,114.2046 l -6.8313,-11.8322 l -6.8313,11.8322 Z"/></g><g stroke-linejoin="miter" stroke-opacity="1.0" fill-opacity="0.4" stroke="rgb(102,102,102)" stroke-width="0.35339809152470336" fill="rgb(255,232,0)" stroke-linecap="butt" stroke-miterlimit="10.0"><path d="M 122.0098,112.7118 l -6.8313,-11.8322 l -6.8313,11.8322 Z"/></g><g stroke-linejoin="miter" stroke-opacity="1.0" fill-opacity="0.5" stroke="rgb(102,102,102)" stroke-width="0.35339809152470336" fill="rgb(93,165,218)" stroke-linecap="butt" stroke-miterlimit="10.0"><path d="M 529.1565,177.0809 c 0.0000,-2.2637 -1.8351,-4.0988 -4.0988 -4.0988c -2.2637,-0.0000 -4.0988,1.8351 -4.0988 4.0988c -0.0000,2.2637 1.8351,4.0988 4.0988 4.0988c 2.2637,0.0000 4.0988,-1.8351 4.0988 -4.0988Z"/></g><g stroke-linejoin="miter" stroke-opacity="1.0" fill-opacity="0.5" stroke="rgb(102,102,102)" stroke-width="0.35339809152470336" fill="rgb(93,165,218)" stroke-linecap="butt" stroke-miterlimit="10.0"><path d="M 515.4939,191.2840 c 0.0000,-2.2637 -1.8351,-4.0988 -4.0988 -4.0988c -2.2637,-0.0000 -4.0988,1.8351 -4.0988 4.0988c -0.0000,2.2637 1.8351,4.0988 4.0988 4.0988c 2.2637,0.0000 4.0988,-1.8351 4.0988 -4.0988Z"/></g><g stroke-linejoin="miter" stroke-opacity="1.0" fill-opacity="0.5" stroke="rgb(102,102,102)" stroke-width="0.35339809152470336" fill="rgb(93,165,218)" stroke-linecap="butt" stroke-miterlimit="10.0"><path d="M 501.8312,204.8664 c 0.0000,-2.2637 -1.8351,-4.0988 -4.0988 -4.0988c -2.2637,-0.0000 -4.0988,1.8351 -4.0988 4.0988c -0.0000,2.2637 1.8351,4.0988 4.0988 4.0988c 2.2637,0.0000 4.0988,-1.8351 4.0988 -4.0988Z"/></g><g stroke-linejoin="miter" stroke-opacity="1.0" fill-opacity="0.5" stroke="rgb(102,102,102)" stroke-width="0.35339809152470336" fill="rgb(93,165,218)" stroke-linecap="butt" stroke-miterlimit="10.0"><path d="M 488.1686,217.2344 c 0.0000,-2.2637 -1.8351,-4.0988 -4.0988 -4.0988c -2.2637,-0.0000 -4.0988,1.8351 -4.0988 4.0988c -0.0000,2.2637 1.8351,4.0988 4.0988 4.0988c 2.2637,0.0000 4.0988,-1.8351 4.0988 -4.0988Z"/></g><g stroke-linejoin="miter" stroke-opacity="1.0" fill-opacity="0.5" stroke="rgb(102,102,102)" stroke-width="0.35339809152470336" fill="rgb(93,165,218)" stroke-linecap="butt" stroke-miterlimit="10.0"><path d="M 474.5060,227.8475 c 0.0000,-2.2637 -1.8351,-4.0988 -4.0988 -4.0988c -2.2637,-0.0000 -4.0988,1.8351 -4.0988 4.0988c -0.0000,2.2637 1.8351,4.0988 4.0988 4.0988c 2.2637,0.0000 4.0988,-1.8351 4.0988 -4.0988Z"/></g><g stroke-linejoin="miter" stroke-opacity="1.0" fill-opacity="0.5" stroke="rgb(102,102,102)" stroke-width="0.35339809152470336" fill="rgb(93,165,218)" stroke-linecap="butt" stroke-miterlimit="10.0"><path d="M 460.8433,236.2419 c 0.0000,-2.2637 -1.8351,-4.0988 -4.0988 -4.0988c -2.2637,-0.0000 -4.0988,1.8351 -4.0988 4.0988c -0.0000,2.2637 1.8351,4.0988 4.0988 4.0988c 2.2637,0.0000 4.0988,-1.8351 4.0988 -4.0988Z"/></g><g stroke-linejoin="miter" stroke-opacity="1.0" fill-opacity="0.5" stroke="rgb(102,102,102)" stroke-width="0.35339809152470336" fill="rgb(93,165,218)" stroke-linecap="butt" stroke-miterlimit="10.0"><path d="M 447.1807,242.0506 c 0.0000,-2.2637 -1.8351,-4.0988 -4.0988 -4.0988c -2.2637,-0.0000 -4.0988,1.8351 -4.0988 4.0988c -0.0000,2.2637 1.8351,4.0988 4.0988 4.0988c 2.2637,0.0000 4.0988,-1.8351 4.0988 -4.0988Z"/></g><g stroke-linejoin="miter" stroke-opacity="1.0" fill-opacity="0.5" stroke="rgb(102,102,102)" stroke-width="0.35339809152470336" fill="rgb(93,165,218)" stroke-linecap="butt" stroke-miterlimit="10.0"><path d="M 433.5180,245.0199 c 0.0000,-2.2637 -1.8351,-4.0988 -4.0988 -4.0988c -2.2637,-0.0000 -4.0988,1.8351 -4.0988 4.0988c -0.0000,2.2637 1.8351,4.0988 4.0988 4.0988c 2.2637,0.0000 4.0988,-1.8351 4.0988 -4.0988Z"/></g><g stroke-linejoin="miter" stroke-opacity="1.0" fill-opacity="0.5" stroke="rgb(102,102,102)" stroke-width="0.35339809152470336" fill="rgb(93,165,218)" stroke-linecap="butt" stroke-miterlimit="10.0"><path d="M 419.8554,245.0199 c 0.0000,-2.2637 -1.8351,-4.0988 -4.0988 -4.0988c -2.2637,-0.0000 -4.0988,1.8351 -4.0988 4.0988c -0.0000,2.2637 1.8351,4.0988 4.0988 4.0988c 2.2637,0.0000 4.0988,-1.8351 4.0988 -4.0988Z"/></g><g stroke-linejoin="miter" stroke-opacity="1.0" fill-opacity="0.5" stroke="rgb(102,102,102)" stroke-width="0.35339809152470336" fill="rgb(93,165,218)" stroke-linecap="butt" stroke-miterlimit="10.0"><path d="M 406.1928,242.0506 c 0.0000,-2.2637 -1.8351,-4.0988 -4.0988 -4.0988c -2.2637,-0.0000 -4.0988,1.8351 -4.0988 4.0988c -0.0000,2.2637 1.8351,4.0988 4.0988 4.0988c 2.2637,0.0000 4.0988,-1.8351 4.0988 -4.0988Z"/></g><g stroke-linejoin="miter" stroke-opacity="1.0" fill-opacity="0.5" stroke="rgb(102,102,102)" stroke-width="0.35339809152470336" fill="rgb(93,165,218)" stroke-linecap="butt" stroke-miterlimit="10.0"><path d="M 392.5301,236.2419 c 0.0000,-2.2637 -1.8351,-4.0988 -4.0988 -4.0988c -2.2637,-0.0000 -4.0988,1.8351 -4.0988 4.0988c -0.0000,2.2637 1.8351,4.0988 4.0988 4.0988c 2.2637,0.0000 4.0988,-1.8351 4.0988 -4.0988Z"/></g><g stroke-linejoin="miter" stroke-opacity="1.0" fill-opacity="0.5" stroke="rgb(102,102,102)" stroke-width="0.35339809152470336" fill="rgb(93,165,218)" stroke-linecap="butt" stroke-miterlimit="10.0"><path d="M 378.8675,227.8475 c 0.0000,-2.2637 -1.8351,-4.0988 -4.0988 -4.0988c -2.2637,-0.0000 -4.0988,1.8351 -4.0988 4.0988c -0.0000,2.2637 1.8351,4.0988 4.0988 4.0988c 2.2637,0.0000 4.0988,-1.8351 4.0988 -4.0988Z"/></g><g stroke-linejoin="miter" stroke-opacity="1.0" fill-opacity="0.5" stroke="rgb(102,102,102)" stroke-width="0.35339809152470336" fill="rgb(93,165,218)" stroke-linecap="butt" stroke-miterlimit="10.0"><path d="M 365.2048,217.2344 c 0.0000,-2.2637 -1.8351,-4.0988 -4.0988 -4.0988c -2.2637,-0.0000 -4.0988,1.8351 -4.0988 4.0988c -0.0000,2.2637 1.8351,4.0988 4.0988 4.0988c 2.2637,0.0000 4.0988,-1.8351 4.0988 -4.0988Z"/></g><g stroke-linejoin="miter" stroke-opacity="1.0" fill-opacity="0.5" stroke="rgb(102,102,102)" stroke-width="0.35339809152470336" fill="rgb(93,165,218)" stroke-linecap="butt" stroke-miterlimit="10.0"><path d="M 351.5422,204.8664 c 0.0000,-2.2637 -1.8351,-4.0988 -4.0988 -4.0988c -2.2637,-0.0000 -4.0988,1.8351 -4.0988 4.0988c -0.0000,2.2637 1.8351,4.0988 4.0988 4.0988c 2.2637,0.0000 4.0988,-1.8351 4.0988 -4.0988Z"/></g><g stroke-linejoin="miter" stroke-opacity="1.0" fill-opacity="0.5" stroke="rgb(102,102,102)" stroke-width="0.35339809152470336" fill="rgb(93,165,218)" stroke-linecap="butt" stroke-miterlimit="10.0"><path d="M 337.8795,191.2840 c 0.0000,-2.2637 -1.8351,-4.0988 -4.0988 -4.0988c -2.2637,-0.0000 -4.0988,1.8351 -4.0988 4.0988c -0.0000,2.2637 1.8351,4.0988 4.0988 4.0988c 2.2637,0.0000 4.0988,-1.8351 4.0988 -4.0988Z"/></g><g stroke-linejoin="miter" stroke-opacity="1.0" fill-opacity="0.5" stroke="rgb(102,102,102)" stroke-width="0.35339809152470336" fill="rgb(93,165,218)" stroke-linecap="butt" stroke-miterlimit="10.0"><path d="M 324.2169,177.0809 c 0.0000,-2.2637 -1.8351,-4.0988 -4.0988 -4.0988c -2.2637,-0.0000 -4.0988,1.8351 -4.0988 4.0988c -0.0000,2.2637 1.8351,4.0988 4.0988 4.0988c 2.2637,0.0000 4.0988,-1.8351 4.0988 -4.0988Z"/></g><g stroke-linejoin="miter" stroke-opacity="1.0" fill-opacity="0.5" stroke="rgb(102,102,102)" stroke-width="0.35339809152470336" fill="rgb(93,165,218)" stroke-linecap="butt" stroke-miterlimit="10.0"><path d="M 310.5543,162.8778 c 0.0000,-2.2637 -1.8351,-4.0988 -4.0988 -4.0988c -2.2637,-0.0000 -4.0988,1.8351 -4.0988 4.0988c -0.0000,2.2637 1.8351,4.0988 4.0988 4.0988c 2.2637,0.0000 4.0988,-1.8351 4.0988 -4.0988Z"/></g><g stroke-linejoin="miter" stroke-opacity="1.0" fill-opacity="0.5" stroke="rgb(102,102,102)" stroke-width="0.35339809152470336" fill="rgb(93,165,218)" stroke-linecap="butt" stroke-miterlimit="10.0"><path d="M 296.8916,149.2954 c 0.0000,-2.2637 -1.8351,-4.0988 -4.0988 -4.0988c -2.2637,-0.0000 -4.0988,1.8351 -4.0988 4.0988c -0.0000,2.2637 1.8351,4.0988 4.0988 4.0988c 2.2637,0.0000 4.0988,-1.8351 4.0988 -4.0988Z"/></g><g stroke-linejoin="miter" stroke-opacity="1.0" fill-opacity="0.5" stroke="rgb(102,102,102)" stroke-width="0.35339809152470336" fill="rgb(93,165,218)" stroke-linecap="butt" stroke-miterlimit="10.0"><path d="M 283.2290,136.9274 c 0.0000,-2.2637 -1.8351,-4.0988 -4.0988 -4.0988c -2.2637,-0.0000 -4.0988,1.8351 -4.0988 4.0988c -0.0000,2.2637 1.8351,4.0988 4.0988 4.0988c 2.2637,0.0000 4.0988,-1.8351 4.0988 -4.0988Z"/></g><g stroke-linejoin="miter" stroke-opacity="1.0" fill-opacity="0.5" stroke="rgb(102,102,102)" stroke-width="0.35339809152470336" fill="rgb(93,165,218)" stroke-linecap="butt" stroke-miterlimit="10.0"><path d="M 269.5663,126.3143 c 0.0000,-2.2637 -1.8351,-4.0988 -4.0988 -4.0988c -2.2637,-0.0000 -4.0988,1.8351 -4.0988 4.0988c -0.0000,2.2637 1.8351,4.0988 4.0988 4.0988c 2.2637,0.0000 4.0988,-1.8351 4.0988 -4.0988Z"/></g><g stroke-linejoin="miter" stroke-opacity="1.0" fill-opacity="0.5" stroke="rgb(102,102,102)" stroke-width="0.35339809152470336" fill="rgb(93,165,218)" stroke-linecap="butt" stroke-miterlimit="10.0"><path d="M 255.9037,117.9199 c 0.0000,-2.2637 -1.8351,-4.0988 -4.0988 -4.0988c -2.2637,-0.0000 -4.0988,1.8351 -4.0988 4.0988c -0.0000,2.2637 1.8351,4.0988 4.0988 4.0988c 2.2637,0.0000 4.0988,-1.8351 4.0988 -4.0988Z"/></g><g stroke-linejoin="miter" stroke-opacity="1.0" fill-opacity="0.5" stroke="rgb(102,102,102)" stroke-width="0.35339809152470336" fill="rgb(93,165,218)" stroke-linecap="butt" stroke-miterlimit="10.0"><path d="M 242.2411,112.1112 c 0.0000,-2.2637 -1.8351,-4.0988 -4.0988 -4.0988c -2.2637,-0.0000 -4.0988,1.8351 -4.0988 4.0988c -0.0000,2.2637 1.8351,4.0988 4.0988 4.0988c 2.2637,0.0000 4.0988,-1.8351 4.0988 -4.0988Z"/></g><g stroke-linejoin="miter" stroke-opacity="1.0" fill-opacity="0.5" stroke="rgb(102,102,102)" stroke-width="0.35339809152470336" fill="rgb(93,165,218)" stroke-linecap="butt" stroke-miterlimit="10.0"><path d="M 228.5784,109.1419 c 0.0000,-2.2637 -1.8351,-4.0988 -4.0988 -4.0988c -2.2637,-0.0000 -4.0988,1.8351 -4.0988 4.0988c -0.0000,2.2637 1.8351,4.0988 4.0988 4.0988c 2.2637,0.0000 4.0988,-1.8351 4.0988 -4.0988Z"/></g><g stroke-linejoin="miter" stroke-opacity="1.0" fill-opacity="0.5" stroke="rgb(102,102,102)" stroke-width="0.35339809152470336" fill="rgb(93,165,218)" stroke-linecap="butt" stroke-miterlimit="10.0"><path d="M 214.9158,109.1419 c 0.0000,-2.2637 -1.8351,-4.0988 -4.0988 -4.0988c -2.2637,-0.0000 -4.0988,1.8351 -4.0988 4.0988c -0.0000,2.2637 1.8351,4.0988 4.0988 4.0988c 2.2637,0.0000 4.0988,-1.8351 4.0988 -4.0988Z"/></g><g stroke-linejoin="miter" stroke-opacity="1.0" fill-opacity="0.5" stroke="rgb(102,102,102)" stroke-width="0.35339809152470336" fill="rgb(93,165,218)" stroke-linecap="butt" stroke-miterlimit="10.0"><path d="M 201.2531,112.1112 c 0.0000,-2.2637 -1.8351,-4.0988 -4.0988 -4.0988c -2.2637,-0.0000 -4.0988,1.8351 -4.0988 4.0988c -0.0000,2.2637 1.8351,4.0988 4.0988 4.0988c 2.2637,0.0000 4.0988,-1.8351 4.0988 -4.0988Z"/></g><g stroke-linejoin="miter" stroke-opacity="1.0" fill-opacity="0.5" stroke="rgb(102,102,102)" stroke-width="0.35339809152470336" fill="rgb(93,165,218)" stroke-linecap="butt" stroke-miterlimit="10.0"><path d="M 187.5905,117.9199 c 0.0000,-2.2637 -1.8351,-4.0988 -4.0988 -4.0988c -2.2637,-0.0000 -4.0988,1.8351 -4.0988 4.0988c -0.0000,2.2637 1.8351,4.0988 4.0988 4.0988c 2.2637,0.0000 4.0988,-1.8351 4.0988 -4.0988Z"/></g><g stroke-linejoin="miter" stroke-opacity="1.0" fill-opacity="0.5" stroke="rgb(102,102,102)" stroke-width="0.35339809152470336" fill="rgb(93,165,218)" stroke-linecap="butt" stroke-miterlimit="10.0"><path d="M 173.9278,126.3143 c 0.0000,-2.2637 -1.8351,-4.0988 -4.0988 -4.0988c -2.2637,-0.0000 -4.0988,1.8351 -4.0988 4.0988c -0.0000,2.2637 1.8351,4.0988 4.0988 4.0988c 2.2637,0.0000 4.0988,-1.8351 4.0988 -4.0988Z"/></g><g stroke-linejoin="miter" stroke-opacity="1.0" fill-opacity="0.5" stroke="rgb(102,102,102)" stroke-width="0.35339809152470336" fill="rgb(93,165,218)" stroke-linecap="butt" stroke-miterlimit="10.0"><path d="M 160.2652,136.9274 c 0.0000,-2.2637 -1.8351,-4.0988 -4.0988 -4.0988c -2.2637,-0.0000 -4.0988,1.8351 -4.0988 4.0988c -0.0000,2.2637 1.8351,4.0988 4.0988 4.0988c 2.2637,0.0000 4.0988,-1.8351 4.0988 -4.0988Z"/></g><g stroke-linejoin="miter" stroke-opacity="1.0" fill-opacity="0.5" stroke="rgb(102,102,102)" stroke-width="0.35339809152470336" fill="rgb(93,165,218)" stroke-linecap="butt" stroke-miterlimit="10.0"><path d="M 146.6026,149.2954 c 0.0000,-2.2637 -1.8351,-4.0988 -4.0988 -4.0988c -2.2637,-0.0000 -4.0988,1.8351 -4.0988 4.0988c -0.0000,2.2637 1.8351,4.0988 4.0988 4.0988c 2.2637,0.0000 4.0988,-1.8351 4.0988 -4.0988Z"/></g><g stroke-linejoin="miter" stroke-opacity="1.0" fill-opacity="0.5" stroke="rgb(102,102,102)" stroke-width="0.35339809152470336" fill="rgb(93,165,218)" stroke-linecap="butt" stroke-miterlimit="10.0"><path d="M 132.9399,162.8778 c 0.0000,-2.2637 -1.8351,-4.0988 -4.0988 -4.0988c -2.2637,-0.0000 -4.0988,1.8351 -4.0988 4.0988c -0.0000,2.2637 1.8351,4.0988 4.0988 4.0988c 2.2637,0.0000 4.0988,-1.8351 4.0988 -4.0988Z"/></g><g stroke-linejoin="miter" stroke-opacity="1.0" fill-opacity="0.5" stroke="rgb(102,102,102)" stroke-width="0.35339809152470336" fill="rgb(93,165,218)" stroke-linecap="butt" stroke-miterlimit="10.0"><path d="M 119.2773,177.0809 c 0.0000,-2.2637 -1.8351,-4.0988 -4.0988 -4.0988c -2.2637,-0.0000 -4.0988,1.8351 -4.0988 4.0988c -0.0000,2.2637 1.8351,4.0988 4.0988 4.0988c 2.2637,0.0000 4.0988,-1.8351 4.0988 -4.0988Z"/></g><g stroke-linejoin="miter" stroke-opacity="1.0" fill-opacity="1.0" stroke="rgb(0,0,0)" fill-rule="evenodd" stroke-width="0.0" fill="rgb(31,119,180)" stroke-linecap="butt" stroke-miterlimit="10.0"><path d="M 54.4217,245.3941 ZM 35.7857,234.7733 c 0.0000,-3.4553 1.2745,-4.4749 1.2745 -6.1742c 2.0392,-0.1983 3.1721,-0.3682 4.3616 -0.6231l 0.1699,0.8497 c -2.4357,0.7364 -4.7581,2.2375 -4.7581 6.3442c -0.0000,3.8235 3.3703,6.8540 8.3267 6.8540c 3.7385,0.0000 8.5816,-2.7189 8.5816 -7.7603c 0.0000,-1.5294 -0.5098,-3.2004 -1.4161 -4.1634l -4.3333,-0.0000 c -0.8780,-0.0000 -1.2462,0.4248 -1.2462 1.5577l -0.0000,0.7364 c -0.0000,0.1133 -0.0850,0.2266 -0.2266 0.2266l -0.7364,-0.0000 l -0.0566,-0.0566 c 0.0000,-0.0000 0.0566,-2.4640 0.0566 -3.5686c 0.0000,-0.9913 -0.0566,-2.6340 -0.0566 -2.6340l 0.0566,-0.0566 l 0.7364,0.0000 c 0.1416,0.0000 0.2266,0.0850 0.2266 0.2266l -0.0000,0.0283 c -0.0000,0.9913 0.4532,1.2462 1.2462 1.2462l 3.2854,0.0000 c 0.3115,0.0000 0.5381,-0.1416 0.7930 -0.4532c 1.6427,1.9259 2.6906,4.2200 2.6906 7.5620c -0.0000,5.6928 -4.1350,9.5729 -9.0348 9.5729c -6.2309,-0.0000 -9.9411,-4.8431 -9.9411 -9.7145ZM 54.4217,225.7668 ZM 52.3825,223.0762 l -14.1894,-0.0000 c -1.6144,-0.0000 -2.0675,0.2832 -2.0675 0.8497l 0.1133,0.9063 c -0.0000,0.0850 -0.0566,0.1699 -0.1416 0.1699l -0.7081,0.0566 c 0.0000,-0.4532 -0.1699,-1.5011 -0.2549 -1.9826c -0.1133,-0.5098 -0.2266,-0.9063 -0.4815 -1.4728l 0.0000,-0.6231 l 17.7297,0.0000 c 0.8213,0.0000 1.2462,-0.3115 1.2462 -1.2179l 0.0000,-0.6797 c 0.0000,-0.1133 0.0850,-0.2266 0.2266 -0.2266l 0.5381,0.0000 l 0.0566,0.0566 c 0.0000,-0.0000 -0.0566,2.0675 -0.0566 3.1721c -0.0000,0.9913 0.0566,3.0588 0.0566 3.0588l -0.0566,0.0283 l -0.5381,-0.0000 c -0.1416,-0.0000 -0.2266,-0.0566 -0.2266 -0.1983l 0.0000,-0.6797 c 0.0000,-0.9346 -0.4248,-1.2179 -1.2462 -1.2179ZM 54.4217,218.4030 ZM 42.8096,212.5120 c 0.1416,0.0000 0.2266,0.1699 0.2266 0.3115c -0.0000,0.8497 0.1699,1.2179 0.6231 1.2179c 0.1699,0.0000 0.3965,-0.0566 0.6514 -0.1699l 7.3071,-3.1154 l -7.1938,-3.1438 c -0.2549,-0.1416 -0.4815,-0.1983 -0.6514 -0.1983c -0.5948,-0.0000 -0.7364,0.5664 -0.7364 1.1895l -0.0000,0.1133 c -0.0000,0.1416 -0.1133,0.2832 -0.1983 0.2832l -0.5381,-0.0000 l -0.0850,-0.0566 c 0.0000,-0.0000 0.0566,-1.6710 0.0566 -2.6623c 0.0000,-0.7930 -0.0566,-1.9542 -0.0566 -1.9542l 0.0566,-0.0850 l 0.5381,0.0000 c 0.1416,0.0000 0.2266,0.1133 0.2266 0.3115c -0.0000,1.0762 1.1046,1.6144 1.9259 2.0109c 3.1721,1.5011 6.0893,2.7473 11.5555 5.0130c 2.0392,0.8497 4.4183,1.8693 4.4183 3.8801c -0.0000,0.5381 -0.3115,1.6427 -1.3311 1.6427c -0.8497,-0.0000 -1.1046,-0.6231 -1.1046 -1.0762c 0.0000,-0.4248 0.1699,-0.7081 0.3965 -0.8780c 0.2832,-0.2832 0.4815,-0.4815 0.4815 -0.7647c 0.0000,-0.4248 -2.4357,-1.4161 -4.1634 -2.1242c -0.3399,-0.1699 -0.6231,-0.2266 -0.8780 -0.2266c -0.2832,-0.0000 -1.0479,0.2549 -1.6144 0.4815l -8.2984,3.5686 c -1.0762,0.4532 -1.3878,0.7647 -1.3878 1.7277c -0.0000,0.1699 -0.0850,0.2832 -0.1983 0.2832l -0.5664,-0.0000 l -0.0566,-0.0566 c 0.0000,-0.0000 0.0566,-1.2462 0.0566 -2.0958c 0.0000,-1.3311 -0.0566,-3.3703 -0.0566 -3.3703l 0.0850,-0.0566 l 0.5098,0.0000 ZM 54.4217,203.9870 ZM 45.5285,199.7670 l 7.0522,0.0000 c 1.1612,-0.9913 1.2179,-1.9259 1.2179 -2.3791c 0.0000,-3.0305 -2.8322,-3.7102 -5.2679 -3.7102c -3.4270,-0.0000 -5.3246,1.3878 -5.3246 3.1154c -0.0000,0.9630 0.8213,2.3507 2.3224 2.9738ZM 45.5285,199.7670 ZM 58.8966,201.8629 l -14.0195,-0.0000 c -1.0762,-0.0000 -1.2745,0.2549 -1.2745 0.6514c -0.0000,0.3682 0.0283,0.7081 0.1416 1.1895l -0.7930,0.1416 c -0.3115,-1.8126 -0.4248,-2.1525 -0.8213 -2.9455c -0.1416,-0.3115 -0.2266,-0.5098 -0.2266 -0.7081l 0.0000,-0.4248 l 2.2658,0.0850 l 0.0000,-0.0850 c -1.9826,-1.3028 -2.2658,-2.8322 -2.2658 -3.7385c 0.0000,-2.7473 2.8605,-4.5599 5.8627 -4.5599c 2.2941,0.0000 4.0501,0.7081 5.3529 1.9826c 1.1046,1.1046 1.6427,2.2658 1.6427 3.7669c -0.0000,1.0196 -0.2266,1.8126 -0.6231 2.5490l 4.7581,0.0000 c 0.8213,0.0000 1.2462,-0.3115 1.2462 -1.2179l 0.0000,-0.5381 c 0.0000,-0.1416 0.0850,-0.2549 0.2266 -0.2549l 0.5381,0.0000 l 0.0566,0.0566 c 0.0000,-0.0000 -0.0566,1.9542 -0.0566 3.0588c -0.0000,0.9913 0.0566,2.9172 0.0566 2.9172l -0.0566,0.0566 l -0.5381,-0.0000 c -0.1416,-0.0000 -0.2266,-0.0850 -0.2266 -0.2266l 0.0000,-0.5381 c 0.0000,-0.9346 -0.4248,-1.2179 -1.2462 -1.2179ZM 54.4217,190.4207 ZM 34.6528,185.8042 l 9.6012,0.0000 c -1.8976,-1.8976 -2.3507,-3.5686 -2.3507 -4.6732c 0.0000,-2.0392 1.5577,-3.0588 4.4749 -3.0588l 6.0043,0.0000 c 0.8213,0.0000 1.2462,-0.2832 1.2462 -1.2179l 0.0000,-0.5381 c 0.0000,-0.1133 0.0850,-0.2266 0.2266 -0.2266l 0.5381,0.0000 l 0.0566,0.0566 c 0.0000,-0.0000 -0.0566,1.9259 -0.0566 3.0588c -0.0000,0.9913 0.0566,2.9172 0.0566 2.9172l -0.0566,0.0566 l -0.5381,-0.0000 c -0.1416,-0.0000 -0.2266,-0.0850 -0.2266 -0.2266l 0.0000,-0.5381 c 0.0000,-0.9630 -0.4248,-1.2179 -1.2462 -1.2179l -6.3159,-0.0000 c -2.2941,-0.0000 -2.8322,0.6231 -2.8322 2.2091c -0.0000,0.8213 0.7364,2.0392 2.0675 3.3987l 7.0806,0.0000 c 0.8213,0.0000 1.2462,-0.2832 1.2462 -1.2179l 0.0000,-0.5381 c 0.0000,-0.1133 0.0850,-0.2266 0.2266 -0.2266l 0.5381,0.0000 l 0.0566,0.0566 c 0.0000,-0.0000 -0.0566,1.9259 -0.0566 3.0305c -0.0000,1.0196 0.0566,2.9172 0.0566 2.9172l -0.0566,0.0566 l -0.5381,-0.0000 c -0.1416,-0.0000 -0.2266,-0.0566 -0.2266 -0.1983l 0.0000,-0.5381 c 0.0000,-0.9630 -0.4248,-1.2179 -1.2462 -1.2179l -14.1894,-0.0000 c -1.6144,-0.0000 -2.0675,0.2549 -2.0675 0.8213l 0.1133,0.9346 c -0.0000,0.0850 -0.0566,0.1416 -0.1416 0.1416l -0.7081,0.0566 c 0.0000,-0.4532 -0.1699,-1.4728 -0.2549 -1.9542c -0.1133,-0.5098 -0.2266,-0.9346 -0.4815 -1.5011l 0.0000,-0.6231 ZM 54.4217,168.6692 ZM 54.7616,158.6148 c -0.0000,6.0893 -4.7015,9.0065 -9.2614 9.0065c -5.5795,-0.0000 -9.7145,-4.3333 -9.7145 -9.0348c 0.0000,-3.4836 1.1895,-4.5882 1.2745 -6.2026c 1.5577,-0.0850 2.9172,-0.3399 4.3899 -0.6231l 0.1133,0.8497 c -2.4357,0.7364 -4.7298,2.3791 -4.7298 6.2875c -0.0000,2.2375 2.3791,6.2592 8.1285 6.2592c 4.1350,0.0000 8.6383,-2.1242 8.6383 -6.5141c 0.0000,-2.6340 -0.9346,-4.5599 -3.1438 -6.5708l 0.4248,-0.6514 c 2.5207,1.9259 3.8801,4.4466 3.8801 7.1938ZM 54.4217,150.4297 ZM 34.6528,145.8132 l 9.6012,0.0000 c -1.8976,-1.8976 -2.3507,-3.5686 -2.3507 -4.6732c 0.0000,-2.0392 1.5577,-3.0588 4.4749 -3.0588l 6.0043,0.0000 c 0.8213,0.0000 1.2462,-0.2832 1.2462 -1.2179l 0.0000,-0.5381 c 0.0000,-0.1133 0.0850,-0.2266 0.2266 -0.2266l 0.5381,0.0000 l 0.0566,0.0566 c 0.0000,-0.0000 -0.0566,1.9259 -0.0566 3.0588c -0.0000,0.9913 0.0566,2.9172 0.0566 2.9172l -0.0566,0.0566 l -0.5381,-0.0000 c -0.1416,-0.0000 -0.2266,-0.0850 -0.2266 -0.2266l 0.0000,-0.5381 c 0.0000,-0.9630 -0.4248,-1.2179 -1.2462 -1.2179l -6.3159,-0.0000 c -2.2941,-0.0000 -2.8322,0.6231 -2.8322 2.2091c -0.0000,0.8213 0.7364,2.0392 2.0675 3.3987l 7.0806,0.0000 c 0.8213,0.0000 1.2462,-0.2832 1.2462 -1.2179l 0.0000,-0.5381 c 0.0000,-0.1133 0.0850,-0.2266 0.2266 -0.2266l 0.5381,0.0000 l 0.0566,0.0566 c 0.0000,-0.0000 -0.0566,1.9259 -0.0566 3.0305c -0.0000,1.0196 0.0566,2.9172 0.0566 2.9172l -0.0566,0.0566 l -0.5381,-0.0000 c -0.1416,-0.0000 -0.2266,-0.0566 -0.2266 -0.1983l 0.0000,-0.5381 c 0.0000,-0.9630 -0.4248,-1.2179 -1.2462 -1.2179l -14.1894,-0.0000 c -1.6144,-0.0000 -2.0675,0.2549 -2.0675 0.8213l 0.1133,0.9346 c -0.0000,0.0850 -0.0566,0.1416 -0.1416 0.1416l -0.7081,0.0566 c 0.0000,-0.4532 -0.1699,-1.4728 -0.2549 -1.9542c -0.1133,-0.5098 -0.2266,-0.9346 -0.4815 -1.5011l 0.0000,-0.6231 ZM 54.4217,135.7588 ZM 47.4828,127.5170 l 0.5664,2.2375 c 0.7647,2.4924 2.0675,2.8605 3.3420 2.8605c 0.8780,0.0000 2.2091,-0.4248 2.2091 -2.2091c 0.0000,-0.8497 -0.8213,-2.1525 -1.4444 -2.8889l -4.6732,-0.0000 ZM 47.4828,127.5170 ZM 54.7616,125.7044 c -0.0000,1.0762 -0.9630,1.6710 -1.6427 1.7843l 0.4532,0.6514 c 0.9063,1.3028 1.1895,1.7843 1.1895 3.0871c -0.0000,1.9826 -1.1329,3.4270 -3.2571 3.4270c -2.1525,-0.0000 -3.6252,-1.8409 -4.3050 -4.5316l -0.6514,-2.6056 c -3.2004,-0.0000 -3.7952,1.4728 -3.7952 2.4357c -0.0000,1.0762 0.4815,2.3224 1.3595 2.3224c 0.3115,0.0000 0.4815,-0.0566 0.5664 -0.0850c 0.1133,-0.0566 0.3115,-0.0850 0.5098 -0.0850c 0.3682,0.0000 0.9346,0.2832 0.9346 1.1046c -0.0000,0.6797 -0.4532,1.1329 -1.1329 1.1329c -1.6427,-0.0000 -3.0871,-2.6623 -3.0871 -4.4749c 0.0000,-2.0675 0.8497,-4.4466 4.8714 -4.4466l 4.1634,0.0000 c 1.7277,0.0000 2.4640,-0.0283 2.4640 -0.6797c 0.0000,-0.6231 -0.7930,-0.7930 -1.4161 -0.8213l 0.1416,-0.7081 c 2.0675,0.1699 2.6340,1.0479 2.6340 2.4924ZM 54.4217,122.9855 ZM 52.3825,120.4648 l -7.0522,-0.0000 c -1.4161,-0.0000 -1.7277,0.1983 -1.7277 0.6231c -0.0000,0.3682 0.0283,0.7081 0.1416 1.1895l -0.7930,0.1416 c -0.3115,-1.7843 -0.3965,-2.0958 -0.8213 -2.9455c -0.1416,-0.2832 -0.2266,-0.5098 -0.2266 -0.7081l 0.0000,-0.4248 l 2.5490,0.0850 l 0.0000,-0.0850 c -1.1046,-0.7364 -2.5490,-1.9826 -2.5490 -3.3137c 0.0000,-1.1612 0.5664,-1.5860 1.3028 -1.5860c 0.7364,0.0000 1.1895,0.4815 1.1895 1.2179c -0.0000,0.5664 -0.2266,0.8780 -0.5098 1.1612c -0.1699,0.1699 -0.2549,0.3682 -0.2549 0.5664c -0.0000,0.3115 0.5098,0.9346 1.4728 1.6144c 0.2549,0.1983 0.6231,0.3399 0.9913 0.3399l 6.2875,0.0000 c 0.8213,0.0000 1.2462,-0.2832 1.2462 -1.2179l 0.0000,-0.8213 c 0.0000,-0.1416 0.0850,-0.2549 0.2266 -0.2549l 0.5381,0.0000 l 0.0566,0.0566 c 0.0000,-0.0000 -0.0566,2.2375 -0.0566 3.3420c -0.0000,1.0196 0.0566,2.9455 0.0566 2.9455l -0.0566,0.0283 l -0.5381,-0.0000 c -0.1416,-0.0000 -0.2266,-0.0566 -0.2266 -0.1983l 0.0000,-0.5381 c 0.0000,-0.9630 -0.4248,-1.2179 -1.2462 -1.2179ZM 54.4217,113.1577 ZM 43.3477,108.5128 l 7.2505,0.0000 c 1.7560,0.0000 2.6056,-0.1699 2.6056 -0.9346c 0.0000,-0.7364 -0.2266,-1.3028 -0.7930 -2.0392l 0.4815,-0.5098 c 1.2462,1.1046 1.8693,2.2375 1.8693 3.5403c -0.0000,1.3028 -0.7930,2.0675 -2.8039 2.0675l -8.6100,-0.0000 l -0.0000,1.8409 c -0.0000,0.0850 -0.0283,0.1133 -0.1133 0.1133l -0.8780,-0.0000 c -0.0850,-0.0000 -0.1133,-0.0283 -0.1133 -0.0850c 0.0000,-1.8976 -1.1046,-2.3507 -3.2571 -2.3507l -0.5381,-0.0000 l -0.5664,-1.6427 l 4.3616,0.0000 l 0.0000,-3.1154 c 0.0000,-0.1416 0.0566,-0.2266 0.1699 -0.2266l 0.5664,0.0000 c 0.2549,0.0000 0.3682,0.3965 0.3682 0.6797l -0.0000,2.6623 Z"/></g><g stroke-linejoin="miter" stroke-opacity="1.0" fill-opacity="0.63" stroke="rgb(0,0,0)" fill-rule="evenodd" stroke-width="0.0" fill="rgb(0,0,0)" stroke-linecap="butt" stroke-miterlimit="10.0"><path d="M 563.3030,133.2990 ZM 566.3482,132.5774 c -0.3489,0.6027 -0.7296,0.8168 -1.2054 0.8168c -0.9516,-0.0000 -1.5464,-0.7217 -1.5464 -1.7446c 0.0000,-1.1261 0.7058,-1.8557 1.5623 -1.8557c 0.7613,-0.0000 1.1657,0.3886 1.1657 0.8089c 0.0000,0.2300 -0.1427,0.3489 -0.3093 0.3489c -0.1665,-0.0000 -0.3251,-0.0872 -0.3489 -0.2855c -0.0317,-0.2617 -0.0793,-0.6027 -0.5472 -0.6027c -0.5234,-0.0000 -0.9120,0.5551 -0.9120 1.4116c 0.0000,0.9278 0.4996,1.5702 1.1102 1.5702c 0.3410,-0.0000 0.6423,-0.2220 0.8882 -0.5789ZM 566.4989,133.2990 ZM 566.7685,131.6733 c 0.0000,-1.0864 0.5868,-1.8795 1.6416 -1.8795c 1.1737,-0.0000 1.6257,0.9833 1.6257 1.8081c 0.0000,0.7930 -0.5155,1.7922 -1.6416 1.7922c -1.0626,-0.0000 -1.6257,-0.9120 -1.6257 -1.7209ZM 566.7685,131.6733 ZM 568.3229,130.0556 c -0.6344,-0.0000 -0.9278,0.7454 -0.9278 1.4354c 0.0000,0.6106 0.3489,1.6257 1.1340 1.6257c 0.3569,-0.0000 0.8803,-0.2141 0.8803 -1.2609c 0.0000,-1.1657 -0.4362,-1.8002 -1.0864 -1.8002ZM 570.2975,133.2990 ZM 570.6385,132.1888 l 0.2141,-0.0079 c 0.0238,0.1983 0.1110,0.5789 0.2855 0.7613c 0.0793,0.0872 0.2934,0.2300 0.5868 0.2300c 0.2776,-0.0000 0.6899,-0.2220 0.6899 -0.6106c 0.0000,-0.3410 -0.1903,-0.5710 -0.8168 -0.8406c -0.5789,-0.2538 -0.8803,-0.4203 -0.8803 -1.0151c 0.0000,-0.5313 0.4679,-0.9120 1.0944 -0.9120c 0.3965,-0.0000 0.6899,0.0714 0.9358 0.1983c 0.0476,0.2538 0.0714,0.5234 0.0872 0.8089l -0.2141,0.0079 c -0.1665,-0.6503 -0.6423,-0.7772 -0.8089 -0.7772c -0.3013,-0.0000 -0.6106,0.1190 -0.6106 0.5551c 0.0000,0.3172 0.1507,0.4758 0.5868 0.6344c 0.6423,0.2379 1.1578,0.5234 1.1578 1.1578c 0.0000,0.7851 -0.8327,1.0151 -1.2054 1.0151c -0.2776,-0.0000 -0.5075,-0.0317 -0.7137 -0.0872c -0.0555,-0.0079 -0.0952,-0.0159 -0.1507 -0.0159c -0.0397,-0.0000 -0.1031,0.0079 -0.1824 0.0238c 0.0000,-0.3331 -0.0238,-0.7375 -0.0555 -1.1261Z"/></g><g stroke-linejoin="miter" stroke-opacity="1.0" fill-opacity="0.4" stroke="rgb(102,102,102)" stroke-width="0.35339809152470336" fill="rgb(255,232,0)" stroke-linecap="butt" stroke-miterlimit="10.0"><path d="M 560.5705,137.2431 l -6.8313,-11.8322 l -6.8313,11.8322 Z"/></g><g stroke-linejoin="miter" stroke-opacity="1.0" fill-opacity="0.63" stroke="rgb(0,0,0)" fill-rule="evenodd" stroke-width="0.0" fill="rgb(0,0,0)" stroke-linecap="butt" stroke-miterlimit="10.0"><path d="M 560.5705,117.2133 ZM 560.9115,116.1031 l 0.2141,-0.0079 c 0.0238,0.1983 0.1110,0.5789 0.2855 0.7613c 0.0793,0.0872 0.2934,0.2300 0.5868 0.2300c 0.2776,-0.0000 0.6899,-0.2220 0.6899 -0.6106c 0.0000,-0.3410 -0.1903,-0.5710 -0.8168 -0.8406c -0.5789,-0.2538 -0.8803,-0.4203 -0.8803 -1.0151c 0.0000,-0.5313 0.4679,-0.9120 1.0944 -0.9120c 0.3965,-0.0000 0.6899,0.0714 0.9358 0.1983c 0.0476,0.2538 0.0714,0.5234 0.0872 0.8089l -0.2141,0.0079 c -0.1665,-0.6503 -0.6423,-0.7772 -0.8089 -0.7772c -0.3013,-0.0000 -0.6106,0.1190 -0.6106 0.5551c 0.0000,0.3172 0.1507,0.4758 0.5868 0.6344c 0.6423,0.2379 1.1578,0.5234 1.1578 1.1578c 0.0000,0.7851 -0.8327,1.0151 -1.2054 1.0151c -0.2776,-0.0000 -0.5075,-0.0317 -0.7137 -0.0872c -0.0555,-0.0079 -0.0952,-0.0159 -0.1507 -0.0159c -0.0397,-0.0000 -0.1031,0.0079 -0.1824 0.0238c 0.0000,-0.3331 -0.0238,-0.7375 -0.0555 -1.1261ZM 563.5126,117.2133 ZM 564.1312,112.6851 c 0.0000,-0.2062 0.1665,-0.3807 0.3727 -0.3807c 0.2141,-0.0000 0.3807,0.1745 0.3807 0.3807c 0.0000,0.2141 -0.1665,0.3807 -0.3807 0.3807c -0.2062,-0.0000 -0.3727,-0.1665 -0.3727 -0.3807ZM 564.1312,112.6851 ZM 564.8845,116.6423 c 0.0000,0.2300 0.0872,0.3489 0.3410 0.3489h 0.1507 c 0.0397,-0.0000 0.0714,0.0238 0.0714 0.0634v 0.1507 l -0.0159,0.0159 c 0.0000,-0.0000 -0.5472,-0.0159 -0.8565 -0.0159c -0.2776,-0.0000 -0.8168,0.0159 -0.8168 0.0159l -0.0159,-0.0159 v -0.1507 c 0.0000,-0.0397 0.0238,-0.0634 0.0634 -0.0634h 0.1507 c 0.2617,-0.0000 0.3410,-0.1190 0.3410 -0.3489v -1.9746 c 0.0000,-0.4203 -0.0714,-0.4837 -0.1824 -0.4837c -0.1031,-0.0000 -0.1983,0.0079 -0.3331 0.0397l -0.0397,-0.2220 c 0.5075,-0.0872 0.5948,-0.1190 0.8247 -0.2300c 0.0872,-0.0317 0.1427,-0.0634 0.1983 -0.0634h 0.1190 v 2.9342 ZM 565.6062,117.2133 ZM 568.4928,116.6423 v -1.7367 c 0.0000,-0.5551 -0.0952,-0.8168 -0.5155 -0.8168c -0.3489,-0.0000 -0.6503,0.1348 -1.0547 0.6106v 1.9429 c 0.0000,0.2300 0.0793,0.3489 0.3410 0.3489h 0.1110 c 0.0397,-0.0000 0.0634,0.0238 0.0634 0.0634v 0.1507 l -0.0159,0.0159 c 0.0000,-0.0000 -0.4996,-0.0159 -0.8089 -0.0159c -0.2855,-0.0000 -0.8247,0.0159 -0.8247 0.0159l -0.0159,-0.0159 v -0.1507 c 0.0000,-0.0397 0.0238,-0.0634 0.0634 -0.0634h 0.1507 c 0.2696,-0.0000 0.3410,-0.1190 0.3410 -0.3489v -1.9746 c 0.0000,-0.4282 -0.0634,-0.4837 -0.1745 -0.4837c -0.1031,-0.0000 -0.1983,0.0079 -0.3331 0.0397l -0.0397,-0.2220 c 0.3331,-0.0555 0.5710,-0.0952 0.8168 -0.2300c 0.0872,-0.0397 0.1507,-0.0634 0.2062 -0.0634h 0.1190 l -0.0238,0.7058 h 0.0238 c 0.5075,-0.5948 0.8882,-0.7058 1.2926 -0.7058c 0.7137,-0.0000 0.8644,0.5472 0.8644 1.2530v 1.6812 c 0.0000,0.2300 0.0872,0.3489 0.3410 0.3489h 0.1507 c 0.0397,-0.0000 0.0714,0.0238 0.0714 0.0634v 0.1507 l -0.0159,0.0159 c 0.0000,-0.0000 -0.5472,-0.0159 -0.8565 -0.0159c -0.2776,-0.0000 -0.7772,0.0159 -0.7772 0.0159l -0.0159,-0.0159 v -0.1507 c 0.0000,-0.0397 0.0238,-0.0634 0.0634 -0.0634h 0.1110 c 0.2617,-0.0000 0.3410,-0.1190 0.3410 -0.3489Z"/></g><g stroke-linejoin="miter" stroke-opacity="1.0" fill-opacity="0.5" stroke="rgb(102,102,102)" stroke-width="0.35339809152470336" fill="rgb(93,165,218)" stroke-linecap="butt" stroke-miterlimit="10.0"><path d="M 557.8380,117.2133 c 0.0000,-2.2637 -1.8351,-4.0988 -4.0988 -4.0988c -2.2637,-0.0000 -4.0988,1.8351 -4.0988 4.0988c -0.0000,2.2637 1.8351,4.0988 4.0988 4.0988c 2.2637,0.0000 4.0988,-1.8351 4.0988 -4.0988Z"/></g><g stroke-linejoin="miter" stroke-opacity="0.2" fill-opacity="0.0" stroke="rgb(0,0,0)" stroke-width="0.7067961830494067" fill="rgb(0,0,0)" stroke-linecap="butt" stroke-miterlimit="10.0"><path d="M 574.5562,138.5990 l -0.0000,-29.8313 h -28.9649 l -0.0000,29.8313 Z"/></g><g stroke-linejoin="miter" stroke-opacity="0.0" fill-opacity="0.1" stroke="rgb(0,0,0)" stroke-width="0.0" fill="rgb(0,0,0)" stroke-linecap="butt" stroke-miterlimit="10.0"><path d="M 87.8136,248.0315 l -0.0000,-136.6264 h -2.7325 l -0.0000,136.6264 Z"/></g><g stroke-linejoin="miter" stroke-opacity="1.0" fill-opacity="0.6" stroke="rgb(0,0,0)" fill-rule="evenodd" stroke-width="0.0" fill="rgb(0,0,0)" stroke-linecap="butt" stroke-miterlimit="10.0"><path d="M 71.7413,111.4051 ZM 73.4452,107.0820 c -0.1722,-0.0000 -0.5710,0.1631 -0.7704 0.2538l -0.1088,-0.2810 c 0.7976,-0.3716 1.1057,-0.5619 1.5589 -0.8882h 0.1722 v 4.5587 c 0.0000,0.3263 0.0453,0.4169 0.3444 0.4169h 0.4713 c 0.0272,-0.0000 0.0725,0.0181 0.0725 0.0725v 0.1994 l -1.2416,-0.0181 l -1.2598,0.0181 v -0.1994 c 0.0091,-0.0272 0.0181,-0.0725 0.0725 -0.0725h 0.5438 c 0.3444,-0.0000 0.3444,-0.1541 0.3444 -0.4169v -3.1177 c 0.0000,-0.3081 0.0000,-0.5257 -0.1994 -0.5257ZM 75.7110,111.4051 ZM 76.2276,111.0335 c 0.0000,-0.2628 0.2175,-0.4803 0.4803 -0.4803c 0.2628,-0.0000 0.4803,0.2175 0.4803 0.4803c 0.0000,0.2628 -0.2175,0.4803 -0.4803 0.4803c -0.2628,-0.0000 -0.4803,-0.2175 -0.4803 -0.4803ZM 77.6958,111.4051 ZM 79.6806,106.4838 c -0.3897,-0.0000 -0.9607,0.3807 -0.9607 2.4924c 0.0000,0.7432 0.1359,2.2386 0.9335 2.2386c 0.1541,-0.0000 0.5891,-0.0997 0.7794 -0.8066c 0.1178,-0.4350 0.1813,-0.9788 0.1813 -1.7673c 0.0000,-1.1510 -0.2900,-1.7945 -0.5528 -2.0211c -0.0997,-0.0906 -0.2356,-0.1359 -0.3807 -0.1359ZM 79.6806,106.4838 ZM 79.6444,111.5138 c -0.9698,-0.0000 -1.6223,-1.2416 -1.6223 -2.6283c 0.0000,-1.6948 0.8066,-2.7189 1.6585 -2.7189c 0.3897,-0.0000 0.7794,0.2447 1.0423 0.5982c 0.3807,0.5075 0.5800,1.1873 0.5800 2.0392c 0.0000,2.0120 -0.9969,2.7099 -1.6585 2.7099Z"/></g><g stroke-linejoin="miter" stroke-opacity="0.6" fill-opacity="0.0" stroke="rgb(0,0,0)" stroke-width="1.766990457623517" fill="rgb(0,0,0)" stroke-linecap="butt" stroke-miterlimit="10.0"><path d="M 83.7148,111.4051 h 4.0988 "/></g><g stroke-linejoin="miter" stroke-opacity="1.0" fill-opacity="0.6" stroke="rgb(0,0,0)" fill-rule="evenodd" stroke-width="0.0" fill="rgb(0,0,0)" stroke-linecap="butt" stroke-miterlimit="10.0"><path d="M 71.7413,125.0677 ZM 73.7261,120.1464 c -0.3897,-0.0000 -0.9607,0.3807 -0.9607 2.4924c 0.0000,0.7432 0.1359,2.2386 0.9335 2.2386c 0.1541,-0.0000 0.5891,-0.0997 0.7794 -0.8066c 0.1178,-0.4350 0.1813,-0.9788 0.1813 -1.7673c 0.0000,-1.1510 -0.2900,-1.7945 -0.5528 -2.0211c -0.0997,-0.0906 -0.2356,-0.1359 -0.3807 -0.1359ZM 73.7261,120.1464 ZM 73.6899,125.1765 c -0.9698,-0.0000 -1.6223,-1.2416 -1.6223 -2.6283c 0.0000,-1.6948 0.8066,-2.7189 1.6585 -2.7189c 0.3897,-0.0000 0.7794,0.2447 1.0423 0.5982c 0.3807,0.5075 0.5800,1.1873 0.5800 2.0392c 0.0000,2.0120 -0.9969,2.7099 -1.6585 2.7099ZM 75.7110,125.0677 ZM 76.2276,124.6961 c 0.0000,-0.2628 0.2175,-0.4803 0.4803 -0.4803c 0.2628,-0.0000 0.4803,0.2175 0.4803 0.4803c 0.0000,0.2628 -0.2175,0.4803 -0.4803 0.4803c -0.2628,-0.0000 -0.4803,-0.2175 -0.4803 -0.4803ZM 77.6958,125.0677 ZM 79.7078,120.0468 c -0.5166,-0.0000 -0.8519,0.4078 -0.8519 0.8066c 0.0000,0.2628 0.1088,0.5800 0.6525 0.9335l 0.2628,0.1631 c 0.2356,-0.1722 0.7885,-0.5891 0.7885 -1.0513c 0.0000,-0.3988 -0.2900,-0.8519 -0.8519 -0.8519ZM 79.7078,120.0468 ZM 81.0945,120.9077 c 0.0000,0.5528 -0.6254,0.9879 -1.0060 1.2416l 0.5257,0.3444 c 0.4441,0.2900 0.6707,0.6888 0.6707 1.1873c 0.0000,0.6525 -0.5347,1.4954 -1.6585 1.4954c -0.9063,-0.0000 -1.5317,-0.4803 -1.5317 -1.3595c 0.0000,-0.3353 0.1450,-0.7250 0.4985 -1.0332c 0.2175,-0.1903 0.4078,-0.3535 0.6254 -0.5166l -0.1541,-0.0906 c -0.5257,-0.3263 -0.7885,-0.6797 -0.7885 -1.1601c 0.0000,-0.6616 0.5982,-1.1873 1.4773 -1.1873c 0.8429,-0.0000 1.3413,0.4622 1.3413 1.0785ZM 81.0945,120.9077 ZM 79.6444,124.9227 c 0.3897,-0.0000 1.0694,-0.2085 1.0694 -1.0694c 0.0000,-0.4078 -0.2538,-0.8157 -0.7885 -1.1420l -0.3988,-0.2447 c -0.7341,0.4894 -0.8972,1.0966 -0.8972 1.3504c 0.0000,0.7704 0.6254,1.1057 1.0151 1.1057Z"/></g><g stroke-linejoin="miter" stroke-opacity="0.6" fill-opacity="0.0" stroke="rgb(0,0,0)" stroke-width="1.766990457623517" fill="rgb(0,0,0)" stroke-linecap="butt" stroke-miterlimit="10.0"><path d="M 83.7148,125.0677 h 4.0988 "/></g><g stroke-linejoin="miter" stroke-opacity="1.0" fill-opacity="0.6" stroke="rgb(0,0,0)" fill-rule="evenodd" stroke-width="0.0" fill="rgb(0,0,0)" stroke-linecap="butt" stroke-miterlimit="10.0"><path d="M 71.7413,138.7304 ZM 73.7261,133.8091 c -0.3897,-0.0000 -0.9607,0.3807 -0.9607 2.4924c 0.0000,0.7432 0.1359,2.2386 0.9335 2.2386c 0.1541,-0.0000 0.5891,-0.0997 0.7794 -0.8066c 0.1178,-0.4350 0.1813,-0.9788 0.1813 -1.7673c 0.0000,-1.1510 -0.2900,-1.7945 -0.5528 -2.0211c -0.0997,-0.0906 -0.2356,-0.1359 -0.3807 -0.1359ZM 73.7261,133.8091 ZM 73.6899,138.8391 c -0.9698,-0.0000 -1.6223,-1.2416 -1.6223 -2.6283c 0.0000,-1.6948 0.8066,-2.7189 1.6585 -2.7189c 0.3897,-0.0000 0.7794,0.2447 1.0423 0.5982c 0.3807,0.5075 0.5800,1.1873 0.5800 2.0392c 0.0000,2.0120 -0.9969,2.7099 -1.6585 2.7099ZM 75.7110,138.7304 ZM 76.2276,138.3588 c 0.0000,-0.2628 0.2175,-0.4803 0.4803 -0.4803c 0.2628,-0.0000 0.4803,0.2175 0.4803 0.4803c 0.0000,0.2628 -0.2175,0.4803 -0.4803 0.4803c -0.2628,-0.0000 -0.4803,-0.2175 -0.4803 -0.4803ZM 77.6958,138.7304 ZM 78.7471,136.3558 c -0.0091,0.0906 -0.0091,0.2266 -0.0091 0.3172c 0.0000,1.5226 0.6797,1.9033 1.1329 1.9033c 0.4169,-0.0000 0.8610,-0.3897 0.8610 -1.3323c 0.0000,-0.4260 -0.2175,-1.2960 -1.0876 -1.2960c -0.1903,-0.0000 -0.5347,0.0181 -0.8972 0.4078ZM 78.7471,136.3558 ZM 81.1216,133.7275 c -0.5891,0.0544 -1.0966,0.2085 -1.5317 0.6344c -0.4169,0.4078 -0.7160,1.0151 -0.8157 1.7401c 0.2085,-0.2538 0.7069,-0.4441 1.0513 -0.4441c 1.3413,-0.0000 1.5135,1.1057 1.5135 1.5226c 0.0000,0.6163 -0.3081,1.6585 -1.5589 1.6585c -0.6616,-0.0000 -1.6676,-0.3897 -1.6676 -2.1933c 0.0000,-0.8338 0.2810,-1.6495 0.9063 -2.2748c 0.5800,-0.5891 1.1873,-0.8338 2.0755 -0.8791Z"/></g><g stroke-linejoin="miter" stroke-opacity="0.6" fill-opacity="0.0" stroke="rgb(0,0,0)" stroke-width="1.766990457623517" fill="rgb(0,0,0)" stroke-linecap="butt" stroke-miterlimit="10.0"><path d="M 83.7148,138.7304 h 4.0988 "/></g><g stroke-linejoin="miter" stroke-opacity="1.0" fill-opacity="0.6" stroke="rgb(0,0,0)" fill-rule="evenodd" stroke-width="0.0" fill="rgb(0,0,0)" stroke-linecap="butt" stroke-miterlimit="10.0"><path d="M 71.7413,152.3930 ZM 73.7261,147.4717 c -0.3897,-0.0000 -0.9607,0.3807 -0.9607 2.4924c 0.0000,0.7432 0.1359,2.2386 0.9335 2.2386c 0.1541,-0.0000 0.5891,-0.0997 0.7794 -0.8066c 0.1178,-0.4350 0.1813,-0.9788 0.1813 -1.7673c 0.0000,-1.1510 -0.2900,-1.7945 -0.5528 -2.0211c -0.0997,-0.0906 -0.2356,-0.1359 -0.3807 -0.1359ZM 73.7261,147.4717 ZM 73.6899,152.5018 c -0.9698,-0.0000 -1.6223,-1.2416 -1.6223 -2.6283c 0.0000,-1.6948 0.8066,-2.7189 1.6585 -2.7189c 0.3897,-0.0000 0.7794,0.2447 1.0423 0.5982c 0.3807,0.5075 0.5800,1.1873 0.5800 2.0392c 0.0000,2.0120 -0.9969,2.7099 -1.6585 2.7099ZM 75.7110,152.3930 ZM 76.2276,152.0214 c 0.0000,-0.2628 0.2175,-0.4803 0.4803 -0.4803c 0.2628,-0.0000 0.4803,0.2175 0.4803 0.4803c 0.0000,0.2628 -0.2175,0.4803 -0.4803 0.4803c -0.2628,-0.0000 -0.4803,-0.2175 -0.4803 -0.4803ZM 77.6958,152.3930 ZM 80.0341,149.1756 c 0.0000,-0.0634 0.0091,-0.1359 0.0906 -0.1813c 0.0997,-0.0725 0.2628,-0.1541 0.3988 -0.1541c 0.1178,-0.0000 0.1269,0.0997 0.1269 0.2810v 1.4592 h 0.7341 l -0.0544,0.4260 h -0.6797 v 0.7522 c 0.0000,0.2538 0.0363,0.3807 0.2991 0.3807h 0.2447 c 0.0544,-0.0000 0.0634,0.0453 0.0634 0.0634v 0.1994 c 0.0000,-0.0000 -0.5800,-0.0181 -0.9607 -0.0181c -0.3444,-0.0000 -0.8791,0.0181 -0.8791 0.0181v -0.1994 c 0.0000,-0.0181 0.0091,-0.0634 0.0634 -0.0634h 0.2447 c 0.2810,-0.0000 0.3081,-0.1178 0.3081 -0.3807v -0.7522 h -1.7764 c -0.0363,-0.0000 -0.0544,-0.0181 -0.0816 -0.0544l -0.0725,-0.0997 l -0.1088,-0.1903 c -0.0091,-0.0000 -0.0091,-0.0091 -0.0091 -0.0181c 0.0000,-0.0091 0.0091,-0.0181 0.0181 -0.0272c 0.5891,-0.6525 1.6314,-2.6736 1.9576 -3.4168c 0.0091,-0.0363 0.0272,-0.0453 0.0634 -0.0453c 0.0091,-0.0000 0.2085,0.0816 0.3172 0.0997c -0.4078,1.0966 -1.0785,2.2748 -1.7401 3.3262h 1.4320 v -1.4048 Z"/></g><g stroke-linejoin="miter" stroke-opacity="0.6" fill-opacity="0.0" stroke="rgb(0,0,0)" stroke-width="1.766990457623517" fill="rgb(0,0,0)" stroke-linecap="butt" stroke-miterlimit="10.0"><path d="M 83.7148,152.3930 h 4.0988 "/></g><g stroke-linejoin="miter" stroke-opacity="1.0" fill-opacity="0.6" stroke="rgb(0,0,0)" fill-rule="evenodd" stroke-width="0.0" fill="rgb(0,0,0)" stroke-linecap="butt" stroke-miterlimit="10.0"><path d="M 71.7413,166.0556 ZM 73.7261,161.1344 c -0.3897,-0.0000 -0.9607,0.3807 -0.9607 2.4924c 0.0000,0.7432 0.1359,2.2386 0.9335 2.2386c 0.1541,-0.0000 0.5891,-0.0997 0.7794 -0.8066c 0.1178,-0.4350 0.1813,-0.9788 0.1813 -1.7673c 0.0000,-1.1510 -0.2900,-1.7945 -0.5528 -2.0211c -0.0997,-0.0906 -0.2356,-0.1359 -0.3807 -0.1359ZM 73.7261,161.1344 ZM 73.6899,166.1644 c -0.9698,-0.0000 -1.6223,-1.2416 -1.6223 -2.6283c 0.0000,-1.6948 0.8066,-2.7189 1.6585 -2.7189c 0.3897,-0.0000 0.7794,0.2447 1.0423 0.5982c 0.3807,0.5075 0.5800,1.1873 0.5800 2.0392c 0.0000,2.0120 -0.9969,2.7099 -1.6585 2.7099ZM 75.7110,166.0556 ZM 76.2276,165.6841 c 0.0000,-0.2628 0.2175,-0.4803 0.4803 -0.4803c 0.2628,-0.0000 0.4803,0.2175 0.4803 0.4803c 0.0000,0.2628 -0.2175,0.4803 -0.4803 0.4803c -0.2628,-0.0000 -0.4803,-0.2175 -0.4803 -0.4803ZM 77.6958,166.0556 ZM 78.2215,162.0407 c 0.0000,-0.5166 0.4985,-1.2235 1.4501 -1.2235c 0.6979,-0.0000 1.5135,0.2628 1.5135 1.3051c 0.0000,0.6888 -0.3535,1.0332 -0.8429 1.5045l -0.8610,0.8338 c -0.0453,0.0453 -0.6525,0.6435 -0.6525 1.0694h 1.5407 c 0.3081,-0.0000 0.4713,-0.1541 0.5982 -0.6525l 0.2266,0.0363 l -0.1813,1.1420 h -2.8005 c 0.0000,-0.5075 0.0816,-0.8972 0.9244 -1.7582l 0.6344,-0.6254 c 0.5075,-0.5166 0.7160,-0.9607 0.7160 -1.5135c 0.0000,-0.8247 -0.5619,-1.0604 -0.8701 -1.0604c -0.6254,-0.0000 -0.7976,0.3263 -0.7976 0.5438c 0.0000,0.0725 0.0181,0.1450 0.0363 0.2085c 0.0181,0.0634 0.0363,0.1269 0.0363 0.1994c 0.0000,0.2356 -0.1813,0.3263 -0.3263 0.3263c -0.1994,-0.0000 -0.3444,-0.1541 -0.3444 -0.3353Z"/></g><g stroke-linejoin="miter" stroke-opacity="0.6" fill-opacity="0.0" stroke="rgb(0,0,0)" stroke-width="1.766990457623517" fill="rgb(0,0,0)" stroke-linecap="butt" stroke-miterlimit="10.0"><path d="M 83.7148,166.0556 h 4.0988 "/></g><g stroke-linejoin="miter" stroke-opacity="1.0" fill-opacity="0.6" stroke="rgb(0,0,0)" fill-rule="evenodd" stroke-width="0.0" fill="rgb(0,0,0)" stroke-linecap="butt" stroke-miterlimit="10.0"><path d="M 71.7413,179.7183 ZM 73.7261,174.7970 c -0.3897,-0.0000 -0.9607,0.3807 -0.9607 2.4924c 0.0000,0.7432 0.1359,2.2386 0.9335 2.2386c 0.1541,-0.0000 0.5891,-0.0997 0.7794 -0.8066c 0.1178,-0.4350 0.1813,-0.9788 0.1813 -1.7673c 0.0000,-1.1510 -0.2900,-1.7945 -0.5528 -2.0211c -0.0997,-0.0906 -0.2356,-0.1359 -0.3807 -0.1359ZM 73.7261,174.7970 ZM 73.6899,179.8270 c -0.9698,-0.0000 -1.6223,-1.2416 -1.6223 -2.6283c 0.0000,-1.6948 0.8066,-2.7189 1.6585 -2.7189c 0.3897,-0.0000 0.7794,0.2447 1.0423 0.5982c 0.3807,0.5075 0.5800,1.1873 0.5800 2.0392c 0.0000,2.0120 -0.9969,2.7099 -1.6585 2.7099ZM 75.7110,179.7183 ZM 76.2276,179.3467 c 0.0000,-0.2628 0.2175,-0.4803 0.4803 -0.4803c 0.2628,-0.0000 0.4803,0.2175 0.4803 0.4803c 0.0000,0.2628 -0.2175,0.4803 -0.4803 0.4803c -0.2628,-0.0000 -0.4803,-0.2175 -0.4803 -0.4803ZM 77.6958,179.7183 ZM 79.6806,174.7970 c -0.3897,-0.0000 -0.9607,0.3807 -0.9607 2.4924c 0.0000,0.7432 0.1359,2.2386 0.9335 2.2386c 0.1541,-0.0000 0.5891,-0.0997 0.7794 -0.8066c 0.1178,-0.4350 0.1813,-0.9788 0.1813 -1.7673c 0.0000,-1.1510 -0.2900,-1.7945 -0.5528 -2.0211c -0.0997,-0.0906 -0.2356,-0.1359 -0.3807 -0.1359ZM 79.6806,174.7970 ZM 79.6444,179.8270 c -0.9698,-0.0000 -1.6223,-1.2416 -1.6223 -2.6283c 0.0000,-1.6948 0.8066,-2.7189 1.6585 -2.7189c 0.3897,-0.0000 0.7794,0.2447 1.0423 0.5982c 0.3807,0.5075 0.5800,1.1873 0.5800 2.0392c 0.0000,2.0120 -0.9969,2.7099 -1.6585 2.7099Z"/></g><g stroke-linejoin="miter" stroke-opacity="0.6" fill-opacity="0.0" stroke="rgb(0,0,0)" stroke-width="1.766990457623517" fill="rgb(0,0,0)" stroke-linecap="butt" stroke-miterlimit="10.0"><path d="M 83.7148,179.7183 h 4.0988 "/></g><g stroke-linejoin="miter" stroke-opacity="1.0" fill-opacity="0.6" stroke="rgb(0,0,0)" fill-rule="evenodd" stroke-width="0.0" fill="rgb(0,0,0)" stroke-linecap="butt" stroke-miterlimit="10.0"><path d="M 68.7233,193.3809 ZM 71.2066,191.2420 h -2.0483 c -0.0816,-0.0000 -0.1359,-0.0725 -0.1359 -0.1541c 0.0000,-0.1450 0.1178,-0.3353 0.2266 -0.3353h 2.0755 c 0.0906,-0.0000 0.1269,0.0816 0.1269 0.1631c 0.0000,0.0997 -0.1269,0.3263 -0.2447 0.3263ZM 71.7413,193.3809 ZM 73.7261,188.4597 c -0.3897,-0.0000 -0.9607,0.3807 -0.9607 2.4924c 0.0000,0.7432 0.1359,2.2386 0.9335 2.2386c 0.1541,-0.0000 0.5891,-0.0997 0.7794 -0.8066c 0.1178,-0.4350 0.1813,-0.9788 0.1813 -1.7673c 0.0000,-1.1510 -0.2900,-1.7945 -0.5528 -2.0211c -0.0997,-0.0906 -0.2356,-0.1359 -0.3807 -0.1359ZM 73.7261,188.4597 ZM 73.6899,193.4897 c -0.9698,-0.0000 -1.6223,-1.2416 -1.6223 -2.6283c 0.0000,-1.6948 0.8066,-2.7189 1.6585 -2.7189c 0.3897,-0.0000 0.7794,0.2447 1.0423 0.5982c 0.3807,0.5075 0.5800,1.1873 0.5800 2.0392c 0.0000,2.0120 -0.9969,2.7099 -1.6585 2.7099ZM 75.7110,193.3809 ZM 76.2276,193.0093 c 0.0000,-0.2628 0.2175,-0.4803 0.4803 -0.4803c 0.2628,-0.0000 0.4803,0.2175 0.4803 0.4803c 0.0000,0.2628 -0.2175,0.4803 -0.4803 0.4803c -0.2628,-0.0000 -0.4803,-0.2175 -0.4803 -0.4803ZM 77.6958,193.3809 ZM 78.2215,189.3660 c 0.0000,-0.5166 0.4985,-1.2235 1.4501 -1.2235c 0.6979,-0.0000 1.5135,0.2628 1.5135 1.3051c 0.0000,0.6888 -0.3535,1.0332 -0.8429 1.5045l -0.8610,0.8338 c -0.0453,0.0453 -0.6525,0.6435 -0.6525 1.0694h 1.5407 c 0.3081,-0.0000 0.4713,-0.1541 0.5982 -0.6525l 0.2266,0.0363 l -0.1813,1.1420 h -2.8005 c 0.0000,-0.5075 0.0816,-0.8972 0.9244 -1.7582l 0.6344,-0.6254 c 0.5075,-0.5166 0.7160,-0.9607 0.7160 -1.5135c 0.0000,-0.8247 -0.5619,-1.0604 -0.8701 -1.0604c -0.6254,-0.0000 -0.7976,0.3263 -0.7976 0.5438c 0.0000,0.0725 0.0181,0.1450 0.0363 0.2085c 0.0181,0.0634 0.0363,0.1269 0.0363 0.1994c 0.0000,0.2356 -0.1813,0.3263 -0.3263 0.3263c -0.1994,-0.0000 -0.3444,-0.1541 -0.3444 -0.3353Z"/></g><g stroke-linejoin="miter" stroke-opacity="0.6" fill-opacity="0.0" stroke="rgb(0,0,0)" stroke-width="1.766990457623517" fill="rgb(0,0,0)" stroke-linecap="butt" stroke-miterlimit="10.0"><path d="M 83.7148,193.3809 h 4.0988 "/></g><g stroke-linejoin="miter" stroke-opacity="1.0" fill-opacity="0.6" stroke="rgb(0,0,0)" fill-rule="evenodd" stroke-width="0.0" fill="rgb(0,0,0)" stroke-linecap="butt" stroke-miterlimit="10.0"><path d="M 68.7233,207.0436 ZM 71.2066,204.9047 h -2.0483 c -0.0816,-0.0000 -0.1359,-0.0725 -0.1359 -0.1541c 0.0000,-0.1450 0.1178,-0.3353 0.2266 -0.3353h 2.0755 c 0.0906,-0.0000 0.1269,0.0816 0.1269 0.1631c 0.0000,0.0997 -0.1269,0.3263 -0.2447 0.3263ZM 71.7413,207.0436 ZM 73.7261,202.1223 c -0.3897,-0.0000 -0.9607,0.3807 -0.9607 2.4924c 0.0000,0.7432 0.1359,2.2386 0.9335 2.2386c 0.1541,-0.0000 0.5891,-0.0997 0.7794 -0.8066c 0.1178,-0.4350 0.1813,-0.9788 0.1813 -1.7673c 0.0000,-1.1510 -0.2900,-1.7945 -0.5528 -2.0211c -0.0997,-0.0906 -0.2356,-0.1359 -0.3807 -0.1359ZM 73.7261,202.1223 ZM 73.6899,207.1523 c -0.9698,-0.0000 -1.6223,-1.2416 -1.6223 -2.6283c 0.0000,-1.6948 0.8066,-2.7189 1.6585 -2.7189c 0.3897,-0.0000 0.7794,0.2447 1.0423 0.5982c 0.3807,0.5075 0.5800,1.1873 0.5800 2.0392c 0.0000,2.0120 -0.9969,2.7099 -1.6585 2.7099ZM 75.7110,207.0436 ZM 76.2276,206.6720 c 0.0000,-0.2628 0.2175,-0.4803 0.4803 -0.4803c 0.2628,-0.0000 0.4803,0.2175 0.4803 0.4803c 0.0000,0.2628 -0.2175,0.4803 -0.4803 0.4803c -0.2628,-0.0000 -0.4803,-0.2175 -0.4803 -0.4803ZM 77.6958,207.0436 ZM 80.0341,203.8262 c 0.0000,-0.0634 0.0091,-0.1359 0.0906 -0.1813c 0.0997,-0.0725 0.2628,-0.1541 0.3988 -0.1541c 0.1178,-0.0000 0.1269,0.0997 0.1269 0.2810v 1.4592 h 0.7341 l -0.0544,0.4260 h -0.6797 v 0.7522 c 0.0000,0.2538 0.0363,0.3807 0.2991 0.3807h 0.2447 c 0.0544,-0.0000 0.0634,0.0453 0.0634 0.0634v 0.1994 c 0.0000,-0.0000 -0.5800,-0.0181 -0.9607 -0.0181c -0.3444,-0.0000 -0.8791,0.0181 -0.8791 0.0181v -0.1994 c 0.0000,-0.0181 0.0091,-0.0634 0.0634 -0.0634h 0.2447 c 0.2810,-0.0000 0.3081,-0.1178 0.3081 -0.3807v -0.7522 h -1.7764 c -0.0363,-0.0000 -0.0544,-0.0181 -0.0816 -0.0544l -0.0725,-0.0997 l -0.1088,-0.1903 c -0.0091,-0.0000 -0.0091,-0.0091 -0.0091 -0.0181c 0.0000,-0.0091 0.0091,-0.0181 0.0181 -0.0272c 0.5891,-0.6525 1.6314,-2.6736 1.9576 -3.4168c 0.0091,-0.0363 0.0272,-0.0453 0.0634 -0.0453c 0.0091,-0.0000 0.2085,0.0816 0.3172 0.0997c -0.4078,1.0966 -1.0785,2.2748 -1.7401 3.3262h 1.4320 v -1.4048 Z"/></g><g stroke-linejoin="miter" stroke-opacity="0.6" fill-opacity="0.0" stroke="rgb(0,0,0)" stroke-width="1.766990457623517" fill="rgb(0,0,0)" stroke-linecap="butt" stroke-miterlimit="10.0"><path d="M 83.7148,207.0436 h 4.0988 "/></g><g stroke-linejoin="miter" stroke-opacity="1.0" fill-opacity="0.6" stroke="rgb(0,0,0)" fill-rule="evenodd" stroke-width="0.0" fill="rgb(0,0,0)" stroke-linecap="butt" stroke-miterlimit="10.0"><path d="M 68.7233,220.7062 ZM 71.2066,218.5673 h -2.0483 c -0.0816,-0.0000 -0.1359,-0.0725 -0.1359 -0.1541c 0.0000,-0.1450 0.1178,-0.3353 0.2266 -0.3353h 2.0755 c 0.0906,-0.0000 0.1269,0.0816 0.1269 0.1631c 0.0000,0.0997 -0.1269,0.3263 -0.2447 0.3263ZM 71.7413,220.7062 ZM 73.7261,215.7849 c -0.3897,-0.0000 -0.9607,0.3807 -0.9607 2.4924c 0.0000,0.7432 0.1359,2.2386 0.9335 2.2386c 0.1541,-0.0000 0.5891,-0.0997 0.7794 -0.8066c 0.1178,-0.4350 0.1813,-0.9788 0.1813 -1.7673c 0.0000,-1.1510 -0.2900,-1.7945 -0.5528 -2.0211c -0.0997,-0.0906 -0.2356,-0.1359 -0.3807 -0.1359ZM 73.7261,215.7849 ZM 73.6899,220.8150 c -0.9698,-0.0000 -1.6223,-1.2416 -1.6223 -2.6283c 0.0000,-1.6948 0.8066,-2.7189 1.6585 -2.7189c 0.3897,-0.0000 0.7794,0.2447 1.0423 0.5982c 0.3807,0.5075 0.5800,1.1873 0.5800 2.0392c 0.0000,2.0120 -0.9969,2.7099 -1.6585 2.7099ZM 75.7110,220.7062 ZM 76.2276,220.3346 c 0.0000,-0.2628 0.2175,-0.4803 0.4803 -0.4803c 0.2628,-0.0000 0.4803,0.2175 0.4803 0.4803c 0.0000,0.2628 -0.2175,0.4803 -0.4803 0.4803c -0.2628,-0.0000 -0.4803,-0.2175 -0.4803 -0.4803ZM 77.6958,220.7062 ZM 78.7471,218.3317 c -0.0091,0.0906 -0.0091,0.2266 -0.0091 0.3172c 0.0000,1.5226 0.6797,1.9033 1.1329 1.9033c 0.4169,-0.0000 0.8610,-0.3897 0.8610 -1.3323c 0.0000,-0.4260 -0.2175,-1.2960 -1.0876 -1.2960c -0.1903,-0.0000 -0.5347,0.0181 -0.8972 0.4078ZM 78.7471,218.3317 ZM 81.1216,215.7034 c -0.5891,0.0544 -1.0966,0.2085 -1.5317 0.6344c -0.4169,0.4078 -0.7160,1.0151 -0.8157 1.7401c 0.2085,-0.2538 0.7069,-0.4441 1.0513 -0.4441c 1.3413,-0.0000 1.5135,1.1057 1.5135 1.5226c 0.0000,0.6163 -0.3081,1.6585 -1.5589 1.6585c -0.6616,-0.0000 -1.6676,-0.3897 -1.6676 -2.1933c 0.0000,-0.8338 0.2810,-1.6495 0.9063 -2.2748c 0.5800,-0.5891 1.1873,-0.8338 2.0755 -0.8791Z"/></g><g stroke-linejoin="miter" stroke-opacity="0.6" fill-opacity="0.0" stroke="rgb(0,0,0)" stroke-width="1.766990457623517" fill="rgb(0,0,0)" stroke-linecap="butt" stroke-miterlimit="10.0"><path d="M 83.7148,220.7062 h 4.0988 "/></g><g stroke-linejoin="miter" stroke-opacity="1.0" fill-opacity="0.6" stroke="rgb(0,0,0)" fill-rule="evenodd" stroke-width="0.0" fill="rgb(0,0,0)" stroke-linecap="butt" stroke-miterlimit="10.0"><path d="M 68.7233,234.3689 ZM 71.2066,232.2300 h -2.0483 c -0.0816,-0.0000 -0.1359,-0.0725 -0.1359 -0.1541c 0.0000,-0.1450 0.1178,-0.3353 0.2266 -0.3353h 2.0755 c 0.0906,-0.0000 0.1269,0.0816 0.1269 0.1631c 0.0000,0.0997 -0.1269,0.3263 -0.2447 0.3263ZM 71.7413,234.3689 ZM 73.7261,229.4476 c -0.3897,-0.0000 -0.9607,0.3807 -0.9607 2.4924c 0.0000,0.7432 0.1359,2.2386 0.9335 2.2386c 0.1541,-0.0000 0.5891,-0.0997 0.7794 -0.8066c 0.1178,-0.4350 0.1813,-0.9788 0.1813 -1.7673c 0.0000,-1.1510 -0.2900,-1.7945 -0.5528 -2.0211c -0.0997,-0.0906 -0.2356,-0.1359 -0.3807 -0.1359ZM 73.7261,229.4476 ZM 73.6899,234.4776 c -0.9698,-0.0000 -1.6223,-1.2416 -1.6223 -2.6283c 0.0000,-1.6948 0.8066,-2.7189 1.6585 -2.7189c 0.3897,-0.0000 0.7794,0.2447 1.0423 0.5982c 0.3807,0.5075 0.5800,1.1873 0.5800 2.0392c 0.0000,2.0120 -0.9969,2.7099 -1.6585 2.7099ZM 75.7110,234.3689 ZM 76.2276,233.9973 c 0.0000,-0.2628 0.2175,-0.4803 0.4803 -0.4803c 0.2628,-0.0000 0.4803,0.2175 0.4803 0.4803c 0.0000,0.2628 -0.2175,0.4803 -0.4803 0.4803c -0.2628,-0.0000 -0.4803,-0.2175 -0.4803 -0.4803ZM 77.6958,234.3689 ZM 79.7078,229.3479 c -0.5166,-0.0000 -0.8519,0.4078 -0.8519 0.8066c 0.0000,0.2628 0.1088,0.5800 0.6525 0.9335l 0.2628,0.1631 c 0.2356,-0.1722 0.7885,-0.5891 0.7885 -1.0513c 0.0000,-0.3988 -0.2900,-0.8519 -0.8519 -0.8519ZM 79.7078,229.3479 ZM 81.0945,230.2089 c 0.0000,0.5528 -0.6254,0.9879 -1.0060 1.2416l 0.5257,0.3444 c 0.4441,0.2900 0.6707,0.6888 0.6707 1.1873c 0.0000,0.6525 -0.5347,1.4954 -1.6585 1.4954c -0.9063,-0.0000 -1.5317,-0.4803 -1.5317 -1.3595c 0.0000,-0.3353 0.1450,-0.7250 0.4985 -1.0332c 0.2175,-0.1903 0.4078,-0.3535 0.6254 -0.5166l -0.1541,-0.0906 c -0.5257,-0.3263 -0.7885,-0.6797 -0.7885 -1.1601c 0.0000,-0.6616 0.5982,-1.1873 1.4773 -1.1873c 0.8429,-0.0000 1.3413,0.4622 1.3413 1.0785ZM 81.0945,230.2089 ZM 79.6444,234.2238 c 0.3897,-0.0000 1.0694,-0.2085 1.0694 -1.0694c 0.0000,-0.4078 -0.2538,-0.8157 -0.7885 -1.1420l -0.3988,-0.2447 c -0.7341,0.4894 -0.8972,1.0966 -0.8972 1.3504c 0.0000,0.7704 0.6254,1.1057 1.0151 1.1057Z"/></g><g stroke-linejoin="miter" stroke-opacity="0.6" fill-opacity="0.0" stroke="rgb(0,0,0)" stroke-width="1.766990457623517" fill="rgb(0,0,0)" stroke-linecap="butt" stroke-miterlimit="10.0"><path d="M 83.7148,234.3689 h 4.0988 "/></g><g stroke-linejoin="miter" stroke-opacity="1.0" fill-opacity="0.6" stroke="rgb(0,0,0)" fill-rule="evenodd" stroke-width="0.0" fill="rgb(0,0,0)" stroke-linecap="butt" stroke-miterlimit="10.0"><path d="M 68.7233,248.0315 ZM 71.2066,245.8926 h -2.0483 c -0.0816,-0.0000 -0.1359,-0.0725 -0.1359 -0.1541c 0.0000,-0.1450 0.1178,-0.3353 0.2266 -0.3353h 2.0755 c 0.0906,-0.0000 0.1269,0.0816 0.1269 0.1631c 0.0000,0.0997 -0.1269,0.3263 -0.2447 0.3263ZM 71.7413,248.0315 ZM 73.4452,243.7084 c -0.1722,-0.0000 -0.5710,0.1631 -0.7704 0.2538l -0.1088,-0.2810 c 0.7976,-0.3716 1.1057,-0.5619 1.5589 -0.8882h 0.1722 v 4.5587 c 0.0000,0.3263 0.0453,0.4169 0.3444 0.4169h 0.4713 c 0.0272,-0.0000 0.0725,0.0181 0.0725 0.0725v 0.1994 l -1.2416,-0.0181 l -1.2598,0.0181 v -0.1994 c 0.0091,-0.0272 0.0181,-0.0725 0.0725 -0.0725h 0.5438 c 0.3444,-0.0000 0.3444,-0.1541 0.3444 -0.4169v -3.1177 c 0.0000,-0.3081 0.0000,-0.5257 -0.1994 -0.5257ZM 75.7110,248.0315 ZM 76.2276,247.6599 c 0.0000,-0.2628 0.2175,-0.4803 0.4803 -0.4803c 0.2628,-0.0000 0.4803,0.2175 0.4803 0.4803c 0.0000,0.2628 -0.2175,0.4803 -0.4803 0.4803c -0.2628,-0.0000 -0.4803,-0.2175 -0.4803 -0.4803ZM 77.6958,248.0315 ZM 79.6806,243.1102 c -0.3897,-0.0000 -0.9607,0.3807 -0.9607 2.4924c 0.0000,0.7432 0.1359,2.2386 0.9335 2.2386c 0.1541,-0.0000 0.5891,-0.0997 0.7794 -0.8066c 0.1178,-0.4350 0.1813,-0.9788 0.1813 -1.7673c 0.0000,-1.1510 -0.2900,-1.7945 -0.5528 -2.0211c -0.0997,-0.0906 -0.2356,-0.1359 -0.3807 -0.1359ZM 79.6806,243.1102 ZM 79.6444,248.1403 c -0.9698,-0.0000 -1.6223,-1.2416 -1.6223 -2.6283c 0.0000,-1.6948 0.8066,-2.7189 1.6585 -2.7189c 0.3897,-0.0000 0.7794,0.2447 1.0423 0.5982c 0.3807,0.5075 0.5800,1.1873 0.5800 2.0392c 0.0000,2.0120 -0.9969,2.7099 -1.6585 2.7099Z"/></g><g stroke-linejoin="miter" stroke-opacity="0.6" fill-opacity="0.0" stroke="rgb(0,0,0)" stroke-width="1.766990457623517" fill="rgb(0,0,0)" stroke-linecap="butt" stroke-miterlimit="10.0"><path d="M 83.7148,248.0315 h 4.0988 "/></g><g stroke-linejoin="miter" stroke-opacity="0.0" fill-opacity="0.1" stroke="rgb(0,0,0)" stroke-width="0.0" fill="rgb(0,0,0)" stroke-linecap="butt" stroke-miterlimit="10.0"><path d="M 528.5600,261.7893 l -0.0000,-2.7325 h -409.8793 l -0.0000,2.7325 Z"/></g><g stroke-linejoin="miter" stroke-opacity="1.0" fill-opacity="0.6" stroke="rgb(0,0,0)" fill-rule="evenodd" stroke-width="0.0" fill="rgb(0,0,0)" stroke-linecap="butt" stroke-miterlimit="10.0"><path d="M 518.3600,287.4649 ZM 519.5670,278.2048 c 0.0000,-1.1872 1.3653,-2.8097 3.5616 -2.8097c 1.6027,-0.0000 3.3439,0.8706 3.3439 3.0076c 0.0000,1.5038 -0.8508,2.3744 -1.9787 3.4627l -1.9984,1.9193 c -0.0989,0.0989 -1.4642,1.4444 -1.4642 2.3942h 3.5220 c 0.7123,-0.0000 1.0487,-0.4947 1.3851 -1.8995c 0.1979,-0.0396 0.4551,-0.0000 0.5738 0.0989c -0.0198,0.5936 -0.2177,2.0776 -0.4749 3.1263c 0.0000,-0.0000 -0.9102,-0.0396 -1.5434 -0.0396h -3.4627 c -0.6332,-0.0000 -1.6423,0.0396 -1.6423 0.0396c 0.0000,-1.1674 0.3166,-2.1172 2.2557 -4.0958l 1.4642,-1.4444 c 1.1674,-1.1872 1.6225,-2.2161 1.6225 -3.4824c 0.0000,-1.8995 -1.0091,-2.3942 -1.7214 -2.3942c -1.4444,-0.0000 -1.9589,0.7123 -1.9589 1.2070c 0.0000,0.1583 0.1187,0.3364 0.1583 0.4749c 0.0396,0.1385 0.0791,0.2572 0.0791 0.4155c 0.0000,0.4373 -0.5936,0.7915 -0.9300 0.7915c -0.4155,-0.0000 -0.7915,-0.3562 -0.7915 -0.7717ZM 527.5607,287.4649 ZM 538.0674,278.9764 l 0.2177,0.2374 c -0.3364,0.7123 -0.9695,1.1080 -1.8204 1.1080h -0.9893 c -0.0594,0.7123 -0.0594,2.3150 -0.0594 5.0456c 0.0000,0.8310 0.1781,1.2070 0.6332 1.2070c 0.2572,-0.0000 1.0289,-0.0594 1.7808 -0.8113c 0.1979,0.0198 0.2968,0.1187 0.3562 0.3166c -0.4551,0.6134 -1.4840,1.5829 -2.4140 1.5829c -1.2663,-0.0000 -1.6027,-0.5145 -1.6027 -2.0182c 0.0000,-1.1476 0.0198,-3.0471 0.0791 -5.3226h -2.4535 c 0.0000,4.7884 -0.7123,7.3408 -2.6514 7.3408c -0.4353,-0.0000 -0.7717,-0.1979 -0.7717 -0.6727c 0.0000,-0.3562 0.3008,-0.7103 0.8113 -0.8310c 0.8310,-0.1979 1.5829,-0.4551 1.5829 -5.8370h -0.3562 c -0.9893,-0.0000 -1.5434,0.4353 -1.8995 1.5631c -0.2177,0.0791 -0.4472,0.0040 -0.4749 -0.1583c 0.1583,-1.1872 0.8706,-2.7503 2.7305 -2.7503h 7.3013 Z"/></g><g stroke-linejoin="miter" stroke-opacity="0.6" fill-opacity="0.0" stroke="rgb(0,0,0)" stroke-width="1.766990457623517" fill="rgb(0,0,0)" stroke-linecap="butt" stroke-miterlimit="10.0"><path d="M 528.5600,259.0568 v 4.0988 "/></g><g stroke-linejoin="miter" stroke-opacity="1.0" fill-opacity="0.6" stroke="rgb(0,0,0)" fill-rule="evenodd" stroke-width="0.0" fill="rgb(0,0,0)" stroke-linecap="butt" stroke-miterlimit="10.0"><path d="M 408.0942,287.4649 ZM 412.3484,276.0876 c -0.5145,-0.0000 -1.8797,0.2374 -1.8797 1.5038c 0.0000,0.3759 -0.0791,1.0289 -0.7717 1.0289c -0.4749,-0.0000 -0.6727,-0.3957 -0.6727 -0.6727c 0.0000,-0.6530 0.8310,-2.5525 3.7397 -2.5525c 1.0348,-0.0000 1.7254,0.3344 2.1567 0.7717c 0.4808,0.4868 0.6193,0.9715 0.6193 1.5651c 0.0000,1.0428 -0.4551,1.8659 -2.0835 2.6296l 0.0198,0.0396 c 1.1674,0.1979 2.7899,0.9695 2.7899 3.1263c 0.0000,2.6118 -2.0974,4.1354 -4.4520 4.1354c -1.1872,-0.0000 -2.8493,-0.5342 -2.8493 -1.3257c 0.0000,-0.3166 0.4155,-0.6925 0.8310 -0.6925c 0.3957,-0.0000 0.6530,0.2374 0.8508 0.5145c 0.2374,0.3562 0.4155,0.8113 1.4246 0.8113c 0.6925,-0.0000 2.4535,-0.5342 2.4535 -3.1659c 0.0000,-2.2359 -1.4642,-2.5525 -2.5920 -2.5525c -0.2572,-0.0000 -0.6134,-0.0000 -0.9498 0.0396l -0.0989,-0.6332 c 1.9609,-0.2790 3.1085,-1.7907 3.1085 -2.7840c 0.0000,-1.2723 -0.7895,-1.7867 -1.6443 -1.7867ZM 417.2950,287.4649 ZM 427.8017,278.9764 l 0.2177,0.2374 c -0.3364,0.7123 -0.9695,1.1080 -1.8204 1.1080h -0.9893 c -0.0594,0.7123 -0.0594,2.3150 -0.0594 5.0456c 0.0000,0.8310 0.1781,1.2070 0.6332 1.2070c 0.2572,-0.0000 1.0289,-0.0594 1.7808 -0.8113c 0.1979,0.0198 0.2968,0.1187 0.3562 0.3166c -0.4551,0.6134 -1.4840,1.5829 -2.4140 1.5829c -1.2663,-0.0000 -1.6027,-0.5145 -1.6027 -2.0182c 0.0000,-1.1476 0.0198,-3.0471 0.0791 -5.3226h -2.4535 c 0.0000,4.7884 -0.7123,7.3408 -2.6514 7.3408c -0.4353,-0.0000 -0.7717,-0.1979 -0.7717 -0.6727c 0.0000,-0.3562 0.3008,-0.7103 0.8113 -0.8310c 0.8310,-0.1979 1.5829,-0.4551 1.5829 -5.8370h -0.3562 c -0.9893,-0.0000 -1.5434,0.4353 -1.8995 1.5631c -0.2177,0.0791 -0.4472,0.0040 -0.4749 -0.1583c 0.1583,-1.1872 0.8706,-2.7503 2.7305 -2.7503h 7.3013 ZM 428.4942,287.4649 ZM 434.2917,274.6827 l -4.6894,13.9495 h -0.8113 l 4.6894,-13.9495 h 0.8113 ZM 434.8853,287.4649 ZM 436.0923,278.2048 c 0.0000,-1.1872 1.3653,-2.8097 3.5616 -2.8097c 1.6027,-0.0000 3.3439,0.8706 3.3439 3.0076c 0.0000,1.5038 -0.8508,2.3744 -1.9787 3.4627l -1.9984,1.9193 c -0.0989,0.0989 -1.4642,1.4444 -1.4642 2.3942h 3.5220 c 0.7123,-0.0000 1.0487,-0.4947 1.3851 -1.8995c 0.1979,-0.0396 0.4551,-0.0000 0.5738 0.0989c -0.0198,0.5936 -0.2177,2.0776 -0.4749 3.1263c 0.0000,-0.0000 -0.9102,-0.0396 -1.5434 -0.0396h -3.4627 c -0.6332,-0.0000 -1.6423,0.0396 -1.6423 0.0396c 0.0000,-1.1674 0.3166,-2.1172 2.2557 -4.0958l 1.4642,-1.4444 c 1.1674,-1.1872 1.6225,-2.2161 1.6225 -3.4824c 0.0000,-1.8995 -1.0091,-2.3942 -1.7214 -2.3942c -1.4444,-0.0000 -1.9589,0.7123 -1.9589 1.2070c 0.0000,0.1583 0.1187,0.3364 0.1583 0.4749c 0.0396,0.1385 0.0791,0.2572 0.0791 0.4155c 0.0000,0.4373 -0.5936,0.7915 -0.9300 0.7915c -0.4155,-0.0000 -0.7915,-0.3562 -0.7915 -0.7717Z"/></g><g stroke-linejoin="miter" stroke-opacity="0.6" fill-opacity="0.0" stroke="rgb(0,0,0)" stroke-width="1.766990457623517" fill="rgb(0,0,0)" stroke-linecap="butt" stroke-miterlimit="10.0"><path d="M 426.0902,259.0568 v 4.0988 "/></g><g stroke-linejoin="miter" stroke-opacity="1.0" fill-opacity="0.6" stroke="rgb(0,0,0)" fill-rule="evenodd" stroke-width="0.0" fill="rgb(0,0,0)" stroke-linecap="butt" stroke-miterlimit="10.0"><path d="M 318.0207,287.4649 ZM 328.5274,278.9764 l 0.2177,0.2374 c -0.3364,0.7123 -0.9695,1.1080 -1.8204 1.1080h -0.9893 c -0.0594,0.7123 -0.0594,2.3150 -0.0594 5.0456c 0.0000,0.8310 0.1781,1.2070 0.6332 1.2070c 0.2572,-0.0000 1.0289,-0.0594 1.7808 -0.8113c 0.1979,0.0198 0.2968,0.1187 0.3562 0.3166c -0.4551,0.6134 -1.4840,1.5829 -2.4140 1.5829c -1.2663,-0.0000 -1.6027,-0.5145 -1.6027 -2.0182c 0.0000,-1.1476 0.0198,-3.0471 0.0791 -5.3226h -2.4535 c 0.0000,4.7884 -0.7123,7.3408 -2.6514 7.3408c -0.4353,-0.0000 -0.7717,-0.1979 -0.7717 -0.6727c 0.0000,-0.3562 0.3008,-0.7103 0.8113 -0.8310c 0.8310,-0.1979 1.5829,-0.4551 1.5829 -5.8370h -0.3562 c -0.9893,-0.0000 -1.5434,0.4353 -1.8995 1.5631c -0.2177,0.0791 -0.4472,0.0040 -0.4749 -0.1583c 0.1583,-1.1872 0.8706,-2.7503 2.7305 -2.7503h 7.3013 Z"/></g><g stroke-linejoin="miter" stroke-opacity="0.6" fill-opacity="0.0" stroke="rgb(0,0,0)" stroke-width="1.766990457623517" fill="rgb(0,0,0)" stroke-linecap="butt" stroke-miterlimit="10.0"><path d="M 323.6203,259.0568 v 4.0988 "/></g><g stroke-linejoin="miter" stroke-opacity="1.0" fill-opacity="0.6" stroke="rgb(0,0,0)" fill-rule="evenodd" stroke-width="0.0" fill="rgb(0,0,0)" stroke-linecap="butt" stroke-miterlimit="10.0"><path d="M 207.7550,287.4649 ZM 218.2617,278.9764 l 0.2177,0.2374 c -0.3364,0.7123 -0.9695,1.1080 -1.8204 1.1080h -0.9893 c -0.0594,0.7123 -0.0594,2.3150 -0.0594 5.0456c 0.0000,0.8310 0.1781,1.2070 0.6332 1.2070c 0.2572,-0.0000 1.0289,-0.0594 1.7808 -0.8113c 0.1979,0.0198 0.2968,0.1187 0.3562 0.3166c -0.4551,0.6134 -1.4840,1.5829 -2.4140 1.5829c -1.2663,-0.0000 -1.6027,-0.5145 -1.6027 -2.0182c 0.0000,-1.1476 0.0198,-3.0471 0.0791 -5.3226h -2.4535 c 0.0000,4.7884 -0.7123,7.3408 -2.6514 7.3408c -0.4353,-0.0000 -0.7717,-0.1979 -0.7717 -0.6727c 0.0000,-0.3562 0.3008,-0.7103 0.8113 -0.8310c 0.8310,-0.1979 1.5829,-0.4551 1.5829 -5.8370h -0.3562 c -0.9893,-0.0000 -1.5434,0.4353 -1.8995 1.5631c -0.2177,0.0791 -0.4472,0.0040 -0.4749 -0.1583c 0.1583,-1.1872 0.8706,-2.7503 2.7305 -2.7503h 7.3013 ZM 218.9542,287.4649 ZM 224.7517,274.6827 l -4.6894,13.9495 h -0.8113 l 4.6894,-13.9495 h 0.8113 ZM 225.3453,287.4649 ZM 226.5523,278.2048 c 0.0000,-1.1872 1.3653,-2.8097 3.5616 -2.8097c 1.6027,-0.0000 3.3439,0.8706 3.3439 3.0076c 0.0000,1.5038 -0.8508,2.3744 -1.9787 3.4627l -1.9984,1.9193 c -0.0989,0.0989 -1.4642,1.4444 -1.4642 2.3942h 3.5220 c 0.7123,-0.0000 1.0487,-0.4947 1.3851 -1.8995c 0.1979,-0.0396 0.4551,-0.0000 0.5738 0.0989c -0.0198,0.5936 -0.2177,2.0776 -0.4749 3.1263c 0.0000,-0.0000 -0.9102,-0.0396 -1.5434 -0.0396h -3.4627 c -0.6332,-0.0000 -1.6423,0.0396 -1.6423 0.0396c 0.0000,-1.1674 0.3166,-2.1172 2.2557 -4.0958l 1.4642,-1.4444 c 1.1674,-1.1872 1.6225,-2.2161 1.6225 -3.4824c 0.0000,-1.8995 -1.0091,-2.3942 -1.7214 -2.3942c -1.4444,-0.0000 -1.9589,0.7123 -1.9589 1.2070c 0.0000,0.1583 0.1187,0.3364 0.1583 0.4749c 0.0396,0.1385 0.0791,0.2572 0.0791 0.4155c 0.0000,0.4373 -0.5936,0.7915 -0.9300 0.7915c -0.4155,-0.0000 -0.7915,-0.3562 -0.7915 -0.7717Z"/></g><g stroke-linejoin="miter" stroke-opacity="0.6" fill-opacity="0.0" stroke="rgb(0,0,0)" stroke-width="1.766990457623517" fill="rgb(0,0,0)" stroke-linecap="butt" stroke-miterlimit="10.0"><path d="M 221.1505,259.0568 v 4.0988 "/></g><g stroke-linejoin="miter" stroke-opacity="1.0" fill-opacity="0.6" stroke="rgb(0,0,0)" fill-rule="evenodd" stroke-width="0.0" fill="rgb(0,0,0)" stroke-linecap="butt" stroke-miterlimit="10.0"><path d="M 101.4763,287.4649 ZM 102.8811,278.7786 c 0.2869,0.1068 0.5323,0.1979 1.1674 0.1979h 3.6209 c 0.5738,-0.0000 1.1278,-0.0396 1.2268 -0.0396c 0.1385,-0.0000 0.2374,0.0594 0.2374 0.1385c 0.0000,0.0791 -0.0534,0.2335 -0.3562 0.7321c -1.2268,2.0182 -3.2846,5.1247 -4.7488 6.9847h 2.6316 c 1.0309,-0.0237 1.4345,-0.4590 1.9391 -1.5038l 0.2770,-0.5738 c 0.2374,-0.0000 0.4650,0.0455 0.5936 0.1187c -0.1385,0.9893 -0.3957,2.0182 -0.6332 2.6910l -6.1734,-0.0594 c -0.2968,-0.0000 -0.4551,-0.0989 -0.4551 -0.2374c 0.0000,-0.0989 0.0079,-0.1662 0.1781 -0.3957c 1.5434,-2.0776 3.5220,-4.9269 4.8675 -7.1825l -2.5327,0.0594 c -0.5936,0.0139 -1.2070,0.3562 -1.6027 1.8006c -0.2295,0.0514 -0.4788,0.0139 -0.6530 -0.0594c 0.1781,-0.9695 0.2770,-1.6621 0.2968 -2.5525c 0.0000,-0.0475 0.0712,-0.1187 0.1187 -0.1187ZM 109.8658,287.4649 ZM 112.3193,281.8851 l 3.5814,-0.0594 c 0.2177,-0.0040 0.2968,-0.0989 0.2968 -0.2770c 0.0000,-1.6621 -0.8904,-2.0776 -1.6423 -2.0776c -0.4749,-0.0000 -1.8599,0.1781 -2.2359 2.4140ZM 112.3193,281.8851 ZM 117.5034,285.6247 c 0.2374,0.0198 0.3562,0.1187 0.4155 0.3166c -0.7915,1.0289 -1.8599,1.7214 -3.3637 1.7214c -1.4246,-0.0000 -2.3546,-0.4749 -3.0273 -1.2663c -0.6530,-0.7519 -0.9300,-1.8204 -0.9300 -2.9284c 0.0000,-3.0076 2.2359,-4.6498 3.9573 -4.6498c 2.7503,-0.0000 3.3439,1.7808 3.3439 3.4429c 0.0000,0.2177 -0.1385,0.3364 -0.3759 0.3364l -5.2632,-0.0396 c 0.0000,1.1476 0.2374,2.0578 0.6332 2.7108c 0.6134,1.0091 1.4444,1.4246 2.1567 1.4246c 1.1476,-0.0000 1.7214,-0.3166 2.4535 -1.0685ZM 118.7104,287.4649 ZM 122.1928,280.3813 c 0.0040,0.0989 0.0989,0.2572 0.2177 0.0396c 0.4551,-0.7717 1.2663,-1.6423 2.1963 -1.6423c 0.8310,-0.0000 1.1872,0.5718 1.1872 0.9498c 0.0000,0.4947 -0.4551,0.9893 -0.9300 0.9893c -0.3443,-0.0000 -0.5659,-0.2632 -0.7163 -0.4610c -0.1543,-0.2038 -0.3324,-0.2513 -0.5105 -0.2513c -0.2374,-0.0000 -0.6925,0.6530 -0.9102 0.9695c -0.2374,0.3562 -0.4749,0.8113 -0.4749 1.3257v 2.7503 c 0.0000,1.6423 0.2374,1.7016 1.6225 1.8006c 0.1187,0.1187 0.1187,0.5342 0.0000 0.6530c -0.6925,-0.0198 -1.6027,-0.0396 -2.3942 -0.0396c -0.7915,-0.0000 -1.5631,0.0198 -2.2557 0.0396c -0.1187,-0.1187 -0.1187,-0.5342 0.0000 -0.6530c 1.2268,-0.0791 1.4642,-0.1583 1.4642 -1.8006v -3.8584 c 0.0000,-1.1476 -0.2177,-1.2466 -1.2861 -1.3455c -0.0396,-0.1187 -0.0791,-0.4353 -0.0396 -0.5540c 1.3653,-0.1781 1.8797,-0.3562 2.4338 -0.5738c 0.1583,-0.0000 0.1959,0.0673 0.2374 0.1583c 0.0930,0.2038 0.1247,0.7123 0.1583 1.5038ZM 125.9127,287.4649 ZM 126.7240,283.4086 c 0.0000,-1.2505 0.3759,-2.4021 1.0942 -3.2450c 0.7242,-0.8508 1.7986,-1.3851 3.1006 -1.3851c 3.0273,-0.0000 4.1552,2.3942 4.1552 4.4520c 0.0000,1.2129 -0.4017,2.4575 -1.2881 3.3241c -0.6747,0.6589 -1.6324,1.1080 -2.9067 1.1080c -2.8097,-0.0000 -4.1552,-2.2359 -4.1552 -4.2541ZM 126.7240,283.4086 ZM 130.6219,279.4711 c -1.7808,-0.0000 -2.1963,1.7610 -2.1963 3.4824c 0.0000,1.5236 0.6727,4.0167 2.7305 4.0167c 0.9300,-0.0000 2.2161,-0.6134 2.2161 -3.1065c 0.0000,-2.8493 -1.0487,-4.3926 -2.7503 -4.3926Z"/></g><g stroke-linejoin="miter" stroke-opacity="0.6" fill-opacity="0.0" stroke="rgb(0,0,0)" stroke-width="1.766990457623517" fill="rgb(0,0,0)" stroke-linecap="butt" stroke-miterlimit="10.0"><path d="M 118.6807,259.0568 v 4.0988 "/></g><g stroke-linejoin="miter" stroke-opacity="0.0" fill-opacity="0.0" stroke="rgb(0,0,0)" stroke-width="0.0" fill="rgb(0,0,0)" stroke-linecap="butt" stroke-miterlimit="10.0"><path d="M 525.0577,245.3941 l -0.0000,-136.6264 h -409.8793 l -0.0000,136.6264 Z"/></g></svg>