<?xml version="1.0" encoding="UTF-8"?>
<!DOCTYPE svg PUBLIC "-//W3C//DTD SVG 1.1//EN"
    "http://www.w3.org/Graphics/SVG/1.1/DTD/svg11.dtd"><svg xmlns="http://www.w3.org/2000/svg" height="400.0000" stroke-opacity="1" viewBox="0 0 600 400" font-size="1" width="600.0000" xmlns:xlink="http://www.w3.org/1999/xlink" stroke="rgb(0,0,0)" version="1.1"><defs></defs><g stroke-linejoin="miter" stroke-opacity="0.0" fill-opacity="0.1" stroke="rgb(0,0,0)" stroke-width="0.0" fill="rgb(0,0,0)" stroke-linecap="butt" stroke-miterlimit="10.0"><path d="M 76.6293,316.6157 l -0.0000,-283.9007 h -5.6780 l -0.0000,283.9007 Z"/></g><g stroke-linejoin="miter" stroke-opacity="1.0" fill-opacity="0.6" stroke="rgb(0,0,0)" fill-rule="evenodd" stroke-width="0.0" fill="rgb(0,0,0)" stroke-linecap="butt" stroke-miterlimit="10.0"><path d="M 43.2321,32.7150 ZM 47.3564,22.4889 c -0.8098,-0.0000 -1.9963,0.7910 -1.9963 5.1790c 0.0000,1.5443 0.2825,4.6516 1.9398 4.6516c 0.3202,-0.0000 1.2241,-0.2072 1.6196 -1.6761c 0.2448,-0.9040 0.3767,-2.0339 0.3767 -3.6723c 0.0000,-2.3917 -0.6026,-3.7288 -1.1488 -4.1997c -0.2072,-0.1883 -0.4896,-0.2825 -0.7910 -0.2825ZM 47.3564,22.4889 ZM 47.2811,32.9410 c -2.0151,-0.0000 -3.3710,-2.5801 -3.3710 -5.4614c 0.0000,-3.5217 1.6761,-5.6498 3.4464 -5.6498c 0.8098,-0.0000 1.6196,0.5085 2.1657 1.2429c 0.7910,1.0546 1.2053,2.4671 1.2053 4.2373c 0.0000,4.1808 -2.0716,5.6309 -3.4464 5.6309ZM 51.4807,32.7150 ZM 52.5542,31.9428 c 0.0000,-0.5461 0.4520,-0.9981 0.9981 -0.9981c 0.5461,-0.0000 0.9981,0.4520 0.9981 0.9981c 0.0000,0.5461 -0.4520,0.9981 -0.9981 0.9981c -0.5461,-0.0000 -0.9981,-0.4520 -0.9981 -0.9981ZM 55.6051,32.7150 ZM 61.4243,29.5323 c 0.0000,-1.9398 -1.0546,-2.9002 -2.2222 -2.9002c -0.8663,-0.0000 -1.5254,0.1318 -2.2599 0.4331l 0.6026,-5.1413 c 0.6215,0.0565 1.2618,0.0753 1.9209 0.0753c 0.9416,-0.0000 1.9209,-0.0565 2.9379 -0.1695l 0.1130,0.0565 l -0.2825,1.2241 c -0.7345,0.0753 -1.3371,0.0942 -1.8644 0.0942c -0.8475,-0.0000 -1.4878,-0.0753 -2.1469 -0.1507l -0.3578,2.9755 c 0.3955,-0.1507 1.0735,-0.2825 1.8079 -0.2825c 1.9963,-0.0000 3.1074,1.7326 3.1074 3.4652c 0.0000,2.1092 -1.4689,3.7288 -3.5970 3.7288c -1.0735,-0.0000 -2.6366,-0.6026 -2.6366 -1.3371c 0.0000,-0.3578 0.3013,-0.6026 0.6403 -0.6026c 0.3767,-0.0000 0.6215,0.2825 0.8475 0.5838c 0.2825,0.3390 0.5838,0.7156 1.1865 0.7156c 1.2053,-0.0000 2.2034,-1.1300 2.2034 -2.7684Z"/></g><g stroke-linejoin="miter" stroke-opacity="0.6" fill-opacity="0.0" stroke="rgb(0,0,0)" stroke-width="2.407694508950487" fill="rgb(0,0,0)" stroke-linecap="butt" stroke-miterlimit="10.0"><path d="M 68.1122,32.7150 h 8.5170 "/></g><g stroke-linejoin="miter" stroke-opacity="1.0" fill-opacity="0.6" stroke="rgb(0,0,0)" fill-rule="evenodd" stroke-width="0.0" fill="rgb(0,0,0)" stroke-linecap="butt" stroke-miterlimit="10.0"><path d="M 43.2321,61.1050 ZM 47.3564,50.8790 c -0.8098,-0.0000 -1.9963,0.7910 -1.9963 5.1790c 0.0000,1.5443 0.2825,4.6516 1.9398 4.6516c 0.3202,-0.0000 1.2241,-0.2072 1.6196 -1.6761c 0.2448,-0.9040 0.3767,-2.0339 0.3767 -3.6723c 0.0000,-2.3917 -0.6026,-3.7288 -1.1488 -4.1997c -0.2072,-0.1883 -0.4896,-0.2825 -0.7910 -0.2825ZM 47.3564,50.8790 ZM 47.2811,61.3310 c -2.0151,-0.0000 -3.3710,-2.5801 -3.3710 -5.4614c 0.0000,-3.5217 1.6761,-5.6498 3.4464 -5.6498c 0.8098,-0.0000 1.6196,0.5085 2.1657 1.2429c 0.7910,1.0546 1.2053,2.4671 1.2053 4.2373c 0.0000,4.1808 -2.0716,5.6309 -3.4464 5.6309ZM 51.4807,61.1050 ZM 52.5542,60.3329 c 0.0000,-0.5461 0.4520,-0.9981 0.9981 -0.9981c 0.5461,-0.0000 0.9981,0.4520 0.9981 0.9981c 0.0000,0.5461 -0.4520,0.9981 -0.9981 0.9981c -0.5461,-0.0000 -0.9981,-0.4520 -0.9981 -0.9981ZM 55.6051,61.1050 ZM 60.4639,54.4195 c 0.0000,-0.1318 0.0188,-0.2825 0.1883 -0.3767c 0.2072,-0.1507 0.5461,-0.3202 0.8286 -0.3202c 0.2448,-0.0000 0.2637,0.2072 0.2637 0.5838v 3.0320 h 1.5254 l -0.1130,0.8851 h -1.4124 v 1.5631 c 0.0000,0.5273 0.0753,0.7910 0.6215 0.7910h 0.5085 c 0.1130,-0.0000 0.1318,0.0942 0.1318 0.1318v 0.4143 c 0.0000,-0.0000 -1.2053,-0.0377 -1.9963 -0.0377c -0.7156,-0.0000 -1.8268,0.0377 -1.8268 0.0377v -0.4143 c 0.0000,-0.0377 0.0188,-0.1318 0.1318 -0.1318h 0.5085 c 0.5838,-0.0000 0.6403,-0.2448 0.6403 -0.7910v -1.5631 h -3.6912 c -0.0753,-0.0000 -0.1130,-0.0377 -0.1695 -0.1130l -0.1507,-0.2072 l -0.2260,-0.3955 c -0.0188,-0.0000 -0.0188,-0.0188 -0.0188 -0.0377c 0.0000,-0.0188 0.0188,-0.0377 0.0377 -0.0565c 1.2241,-1.3559 3.3899,-5.5556 4.0678 -7.0999c 0.0188,-0.0753 0.0565,-0.0942 0.1318 -0.0942c 0.0188,-0.0000 0.4331,0.1695 0.6591 0.2072c -0.8475,2.2787 -2.2411,4.7270 -3.6159 6.9115h 2.9755 v -2.9190 Z"/></g><g stroke-linejoin="miter" stroke-opacity="0.6" fill-opacity="0.0" stroke="rgb(0,0,0)" stroke-width="2.407694508950487" fill="rgb(0,0,0)" stroke-linecap="butt" stroke-miterlimit="10.0"><path d="M 68.1122,61.1050 h 8.5170 "/></g><g stroke-linejoin="miter" stroke-opacity="1.0" fill-opacity="0.6" stroke="rgb(0,0,0)" fill-rule="evenodd" stroke-width="0.0" fill="rgb(0,0,0)" stroke-linecap="butt" stroke-miterlimit="10.0"><path d="M 43.2321,89.4951 ZM 47.3564,79.2690 c -0.8098,-0.0000 -1.9963,0.7910 -1.9963 5.1790c 0.0000,1.5443 0.2825,4.6516 1.9398 4.6516c 0.3202,-0.0000 1.2241,-0.2072 1.6196 -1.6761c 0.2448,-0.9040 0.3767,-2.0339 0.3767 -3.6723c 0.0000,-2.3917 -0.6026,-3.7288 -1.1488 -4.1997c -0.2072,-0.1883 -0.4896,-0.2825 -0.7910 -0.2825ZM 47.3564,79.2690 ZM 47.2811,89.7211 c -2.0151,-0.0000 -3.3710,-2.5801 -3.3710 -5.4614c 0.0000,-3.5217 1.6761,-5.6498 3.4464 -5.6498c 0.8098,-0.0000 1.6196,0.5085 2.1657 1.2429c 0.7910,1.0546 1.2053,2.4671 1.2053 4.2373c 0.0000,4.1808 -2.0716,5.6309 -3.4464 5.6309ZM 51.4807,89.4951 ZM 52.5542,88.7230 c 0.0000,-0.5461 0.4520,-0.9981 0.9981 -0.9981c 0.5461,-0.0000 0.9981,0.4520 0.9981 0.9981c 0.0000,0.5461 -0.4520,0.9981 -0.9981 0.9981c -0.5461,-0.0000 -0.9981,-0.4520 -0.9981 -0.9981ZM 55.6051,89.4951 ZM 59.6729,79.1937 c -0.4708,-0.0000 -1.8456,0.2637 -1.8456 1.4124c 0.0000,0.3390 -0.1318,0.9228 -0.6403 0.9228c -0.4896,-0.0000 -0.5273,-0.5461 -0.5273 -0.6026c 0.0000,-0.5838 0.7721,-2.3164 3.3899 -2.3164c 1.8268,-0.0000 2.3729,1.1488 2.3729 1.9021c 0.0000,0.4708 -0.1507,1.4124 -1.8456 2.4859c 1.0546,0.1695 2.4482,0.9416 2.4482 2.9002c 0.0000,2.4859 -1.8833,3.8230 -4.0113 3.8230c -1.0735,-0.0000 -2.5801,-0.4708 -2.5801 -1.1865c 0.0000,-0.2825 0.2825,-0.6026 0.6591 -0.6026c 0.3578,-0.0000 0.5273,0.1883 0.6968 0.4331c 0.2072,0.3202 0.5461,0.7721 1.4501 0.7721c 0.6215,-0.0000 2.3917,-0.6215 2.3917 -2.9944c 0.0000,-2.0151 -1.4124,-2.3352 -2.4294 -2.3352c -0.1695,-0.0000 -0.3767,0.0377 -0.5838 0.0753l -0.0753,-0.5650 c 1.4501,-0.2448 2.6554,-1.6573 2.6554 -2.5236c 0.0000,-1.0735 -0.7533,-1.6008 -1.5254 -1.6008Z"/></g><g stroke-linejoin="miter" stroke-opacity="0.6" fill-opacity="0.0" stroke="rgb(0,0,0)" stroke-width="2.407694508950487" fill="rgb(0,0,0)" stroke-linecap="butt" stroke-miterlimit="10.0"><path d="M 68.1122,89.4951 h 8.5170 "/></g><g stroke-linejoin="miter" stroke-opacity="1.0" fill-opacity="0.6" stroke="rgb(0,0,0)" fill-rule="evenodd" stroke-width="0.0" fill="rgb(0,0,0)" stroke-linecap="butt" stroke-miterlimit="10.0"><path d="M 43.2321,117.8852 ZM 47.3564,107.6591 c -0.8098,-0.0000 -1.9963,0.7910 -1.9963 5.1790c 0.0000,1.5443 0.2825,4.6516 1.9398 4.6516c 0.3202,-0.0000 1.2241,-0.2072 1.6196 -1.6761c 0.2448,-0.9040 0.3767,-2.0339 0.3767 -3.6723c 0.0000,-2.3917 -0.6026,-3.7288 -1.1488 -4.1997c -0.2072,-0.1883 -0.4896,-0.2825 -0.7910 -0.2825ZM 47.3564,107.6591 ZM 47.2811,118.1112 c -2.0151,-0.0000 -3.3710,-2.5801 -3.3710 -5.4614c 0.0000,-3.5217 1.6761,-5.6498 3.4464 -5.6498c 0.8098,-0.0000 1.6196,0.5085 2.1657 1.2429c 0.7910,1.0546 1.2053,2.4671 1.2053 4.2373c 0.0000,4.1808 -2.0716,5.6309 -3.4464 5.6309ZM 51.4807,117.8852 ZM 52.5542,117.1131 c 0.0000,-0.5461 0.4520,-0.9981 0.9981 -0.9981c 0.5461,-0.0000 0.9981,0.4520 0.9981 0.9981c 0.0000,0.5461 -0.4520,0.9981 -0.9981 0.9981c -0.5461,-0.0000 -0.9981,-0.4520 -0.9981 -0.9981ZM 55.6051,117.8852 ZM 56.6974,109.5424 c 0.0000,-1.0735 1.0358,-2.5424 3.0132 -2.5424c 1.4501,-0.0000 3.1450,0.5461 3.1450 2.7119c 0.0000,1.4313 -0.7345,2.1469 -1.7514 3.1262l -1.7891,1.7326 c -0.0942,0.0942 -1.3559,1.3371 -1.3559 2.2222h 3.2015 c 0.6403,-0.0000 0.9793,-0.3202 1.2429 -1.3559l 0.4708,0.0753 l -0.3767,2.3729 h -5.8193 c 0.0000,-1.0546 0.1695,-1.8644 1.9209 -3.6535l 1.3183,-1.2994 c 1.0546,-1.0735 1.4878,-1.9963 1.4878 -3.1450c 0.0000,-1.7138 -1.1676,-2.2034 -1.8079 -2.2034c -1.2994,-0.0000 -1.6573,0.6780 -1.6573 1.1300c 0.0000,0.1507 0.0377,0.3013 0.0753 0.4331c 0.0377,0.1318 0.0753,0.2637 0.0753 0.4143c 0.0000,0.4896 -0.3767,0.6780 -0.6780 0.6780c -0.4143,-0.0000 -0.7156,-0.3202 -0.7156 -0.6968Z"/></g><g stroke-linejoin="miter" stroke-opacity="0.6" fill-opacity="0.0" stroke="rgb(0,0,0)" stroke-width="2.407694508950487" fill="rgb(0,0,0)" stroke-linecap="butt" stroke-miterlimit="10.0"><path d="M 68.1122,117.8852 h 8.5170 "/></g><g stroke-linejoin="miter" stroke-opacity="1.0" fill-opacity="0.6" stroke="rgb(0,0,0)" fill-rule="evenodd" stroke-width="0.0" fill="rgb(0,0,0)" stroke-linecap="butt" stroke-miterlimit="10.0"><path d="M 43.2321,146.2753 ZM 47.3564,136.0492 c -0.8098,-0.0000 -1.9963,0.7910 -1.9963 5.1790c 0.0000,1.5443 0.2825,4.6516 1.9398 4.6516c 0.3202,-0.0000 1.2241,-0.2072 1.6196 -1.6761c 0.2448,-0.9040 0.3767,-2.0339 0.3767 -3.6723c 0.0000,-2.3917 -0.6026,-3.7288 -1.1488 -4.1997c -0.2072,-0.1883 -0.4896,-0.2825 -0.7910 -0.2825ZM 47.3564,136.0492 ZM 47.2811,146.5013 c -2.0151,-0.0000 -3.3710,-2.5801 -3.3710 -5.4614c 0.0000,-3.5217 1.6761,-5.6498 3.4464 -5.6498c 0.8098,-0.0000 1.6196,0.5085 2.1657 1.2429c 0.7910,1.0546 1.2053,2.4671 1.2053 4.2373c 0.0000,4.1808 -2.0716,5.6309 -3.4464 5.6309ZM 51.4807,146.2753 ZM 52.5542,145.5031 c 0.0000,-0.5461 0.4520,-0.9981 0.9981 -0.9981c 0.5461,-0.0000 0.9981,0.4520 0.9981 0.9981c 0.0000,0.5461 -0.4520,0.9981 -0.9981 0.9981c -0.5461,-0.0000 -0.9981,-0.4520 -0.9981 -0.9981ZM 55.6051,146.2753 ZM 59.1456,137.2921 c -0.3578,-0.0000 -1.1865,0.3390 -1.6008 0.5273l -0.2260,-0.5838 c 1.6573,-0.7721 2.2976,-1.1676 3.2392 -1.8456h 0.3578 v 9.4728 c 0.0000,0.6780 0.0942,0.8663 0.7156 0.8663h 0.9793 c 0.0565,-0.0000 0.1507,0.0377 0.1507 0.1507v 0.4143 l -2.5801,-0.0377 l -2.6177,0.0377 v -0.4143 c 0.0188,-0.0565 0.0377,-0.1507 0.1507 -0.1507h 1.1300 c 0.7156,-0.0000 0.7156,-0.3202 0.7156 -0.8663v -6.4784 c 0.0000,-0.6403 0.0000,-1.0923 -0.4143 -1.0923Z"/></g><g stroke-linejoin="miter" stroke-opacity="0.6" fill-opacity="0.0" stroke="rgb(0,0,0)" stroke-width="2.407694508950487" fill="rgb(0,0,0)" stroke-linecap="butt" stroke-miterlimit="10.0"><path d="M 68.1122,146.2753 h 8.5170 "/></g><g stroke-linejoin="miter" stroke-opacity="1.0" fill-opacity="0.6" stroke="rgb(0,0,0)" fill-rule="evenodd" stroke-width="0.0" fill="rgb(0,0,0)" stroke-linecap="butt" stroke-miterlimit="10.0"><path d="M 43.2321,174.6653 ZM 47.3564,164.4393 c -0.8098,-0.0000 -1.9963,0.7910 -1.9963 5.1790c 0.0000,1.5443 0.2825,4.6516 1.9398 4.6516c 0.3202,-0.0000 1.2241,-0.2072 1.6196 -1.6761c 0.2448,-0.9040 0.3767,-2.0339 0.3767 -3.6723c 0.0000,-2.3917 -0.6026,-3.7288 -1.1488 -4.1997c -0.2072,-0.1883 -0.4896,-0.2825 -0.7910 -0.2825ZM 47.3564,164.4393 ZM 47.2811,174.8913 c -2.0151,-0.0000 -3.3710,-2.5801 -3.3710 -5.4614c 0.0000,-3.5217 1.6761,-5.6498 3.4464 -5.6498c 0.8098,-0.0000 1.6196,0.5085 2.1657 1.2429c 0.7910,1.0546 1.2053,2.4671 1.2053 4.2373c 0.0000,4.1808 -2.0716,5.6309 -3.4464 5.6309ZM 51.4807,174.6653 ZM 52.5542,173.8932 c 0.0000,-0.5461 0.4520,-0.9981 0.9981 -0.9981c 0.5461,-0.0000 0.9981,0.4520 0.9981 0.9981c 0.0000,0.5461 -0.4520,0.9981 -0.9981 0.9981c -0.5461,-0.0000 -0.9981,-0.4520 -0.9981 -0.9981ZM 55.6051,174.6653 ZM 59.7294,164.4393 c -0.8098,-0.0000 -1.9963,0.7910 -1.9963 5.1790c 0.0000,1.5443 0.2825,4.6516 1.9398 4.6516c 0.3202,-0.0000 1.2241,-0.2072 1.6196 -1.6761c 0.2448,-0.9040 0.3767,-2.0339 0.3767 -3.6723c 0.0000,-2.3917 -0.6026,-3.7288 -1.1488 -4.1997c -0.2072,-0.1883 -0.4896,-0.2825 -0.7910 -0.2825ZM 59.7294,164.4393 ZM 59.6541,174.8913 c -2.0151,-0.0000 -3.3710,-2.5801 -3.3710 -5.4614c 0.0000,-3.5217 1.6761,-5.6498 3.4464 -5.6498c 0.8098,-0.0000 1.6196,0.5085 2.1657 1.2429c 0.7910,1.0546 1.2053,2.4671 1.2053 4.2373c 0.0000,4.1808 -2.0716,5.6309 -3.4464 5.6309Z"/></g><g stroke-linejoin="miter" stroke-opacity="0.6" fill-opacity="0.0" stroke="rgb(0,0,0)" stroke-width="2.407694508950487" fill="rgb(0,0,0)" stroke-linecap="butt" stroke-miterlimit="10.0"><path d="M 68.1122,174.6653 h 8.5170 "/></g><g stroke-linejoin="miter" stroke-opacity="1.0" fill-opacity="0.6" stroke="rgb(0,0,0)" fill-rule="evenodd" stroke-width="0.0" fill="rgb(0,0,0)" stroke-linecap="butt" stroke-miterlimit="10.0"><path d="M 36.9608,203.0554 ZM 42.1210,198.6109 h -4.2562 c -0.1695,-0.0000 -0.2825,-0.1507 -0.2825 -0.3202c 0.0000,-0.3013 0.2448,-0.6968 0.4708 -0.6968h 4.3127 c 0.1883,-0.0000 0.2637,0.1695 0.2637 0.3390c 0.0000,0.2072 -0.2637,0.6780 -0.5085 0.6780ZM 43.2321,203.0554 ZM 47.3564,192.8293 c -0.8098,-0.0000 -1.9963,0.7910 -1.9963 5.1790c 0.0000,1.5443 0.2825,4.6516 1.9398 4.6516c 0.3202,-0.0000 1.2241,-0.2072 1.6196 -1.6761c 0.2448,-0.9040 0.3767,-2.0339 0.3767 -3.6723c 0.0000,-2.3917 -0.6026,-3.7288 -1.1488 -4.1997c -0.2072,-0.1883 -0.4896,-0.2825 -0.7910 -0.2825ZM 47.3564,192.8293 ZM 47.2811,203.2814 c -2.0151,-0.0000 -3.3710,-2.5801 -3.3710 -5.4614c 0.0000,-3.5217 1.6761,-5.6498 3.4464 -5.6498c 0.8098,-0.0000 1.6196,0.5085 2.1657 1.2429c 0.7910,1.0546 1.2053,2.4671 1.2053 4.2373c 0.0000,4.1808 -2.0716,5.6309 -3.4464 5.6309ZM 51.4807,203.0554 ZM 52.5542,202.2833 c 0.0000,-0.5461 0.4520,-0.9981 0.9981 -0.9981c 0.5461,-0.0000 0.9981,0.4520 0.9981 0.9981c 0.0000,0.5461 -0.4520,0.9981 -0.9981 0.9981c -0.5461,-0.0000 -0.9981,-0.4520 -0.9981 -0.9981ZM 55.6051,203.0554 ZM 59.1456,194.0723 c -0.3578,-0.0000 -1.1865,0.3390 -1.6008 0.5273l -0.2260,-0.5838 c 1.6573,-0.7721 2.2976,-1.1676 3.2392 -1.8456h 0.3578 v 9.4728 c 0.0000,0.6780 0.0942,0.8663 0.7156 0.8663h 0.9793 c 0.0565,-0.0000 0.1507,0.0377 0.1507 0.1507v 0.4143 l -2.5801,-0.0377 l -2.6177,0.0377 v -0.4143 c 0.0188,-0.0565 0.0377,-0.1507 0.1507 -0.1507h 1.1300 c 0.7156,-0.0000 0.7156,-0.3202 0.7156 -0.8663v -6.4784 c 0.0000,-0.6403 0.0000,-1.0923 -0.4143 -1.0923Z"/></g><g stroke-linejoin="miter" stroke-opacity="0.6" fill-opacity="0.0" stroke="rgb(0,0,0)" stroke-width="2.407694508950487" fill="rgb(0,0,0)" stroke-linecap="butt" stroke-miterlimit="10.0"><path d="M 68.1122,203.0554 h 8.5170 "/></g><g stroke-linejoin="miter" stroke-opacity="1.0" fill-opacity="0.6" stroke="rgb(0,0,0)" fill-rule="evenodd" stroke-width="0.0" fill="rgb(0,0,0)" stroke-linecap="butt" stroke-miterlimit="10.0"><path d="M 36.9608,231.4455 ZM 42.1210,227.0010 h -4.2562 c -0.1695,-0.0000 -0.2825,-0.1507 -0.2825 -0.3202c 0.0000,-0.3013 0.2448,-0.6968 0.4708 -0.6968h 4.3127 c 0.1883,-0.0000 0.2637,0.1695 0.2637 0.3390c 0.0000,0.2072 -0.2637,0.6780 -0.5085 0.6780ZM 43.2321,231.4455 ZM 47.3564,221.2194 c -0.8098,-0.0000 -1.9963,0.7910 -1.9963 5.1790c 0.0000,1.5443 0.2825,4.6516 1.9398 4.6516c 0.3202,-0.0000 1.2241,-0.2072 1.6196 -1.6761c 0.2448,-0.9040 0.3767,-2.0339 0.3767 -3.6723c 0.0000,-2.3917 -0.6026,-3.7288 -1.1488 -4.1997c -0.2072,-0.1883 -0.4896,-0.2825 -0.7910 -0.2825ZM 47.3564,221.2194 ZM 47.2811,231.6715 c -2.0151,-0.0000 -3.3710,-2.5801 -3.3710 -5.4614c 0.0000,-3.5217 1.6761,-5.6498 3.4464 -5.6498c 0.8098,-0.0000 1.6196,0.5085 2.1657 1.2429c 0.7910,1.0546 1.2053,2.4671 1.2053 4.2373c 0.0000,4.1808 -2.0716,5.6309 -3.4464 5.6309ZM 51.4807,231.4455 ZM 52.5542,230.6734 c 0.0000,-0.5461 0.4520,-0.9981 0.9981 -0.9981c 0.5461,-0.0000 0.9981,0.4520 0.9981 0.9981c 0.0000,0.5461 -0.4520,0.9981 -0.9981 0.9981c -0.5461,-0.0000 -0.9981,-0.4520 -0.9981 -0.9981ZM 55.6051,231.4455 ZM 56.6974,223.1027 c 0.0000,-1.0735 1.0358,-2.5424 3.0132 -2.5424c 1.4501,-0.0000 3.1450,0.5461 3.1450 2.7119c 0.0000,1.4313 -0.7345,2.1469 -1.7514 3.1262l -1.7891,1.7326 c -0.0942,0.0942 -1.3559,1.3371 -1.3559 2.2222h 3.2015 c 0.6403,-0.0000 0.9793,-0.3202 1.2429 -1.3559l 0.4708,0.0753 l -0.3767,2.3729 h -5.8193 c 0.0000,-1.0546 0.1695,-1.8644 1.9209 -3.6535l 1.3183,-1.2994 c 1.0546,-1.0735 1.4878,-1.9963 1.4878 -3.1450c 0.0000,-1.7138 -1.1676,-2.2034 -1.8079 -2.2034c -1.2994,-0.0000 -1.6573,0.6780 -1.6573 1.1300c 0.0000,0.1507 0.0377,0.3013 0.0753 0.4331c 0.0377,0.1318 0.0753,0.2637 0.0753 0.4143c 0.0000,0.4896 -0.3767,0.6780 -0.6780 0.6780c -0.4143,-0.0000 -0.7156,-0.3202 -0.7156 -0.6968Z"/></g><g stroke-linejoin="miter" stroke-opacity="0.6" fill-opacity="0.0" stroke="rgb(0,0,0)" stroke-width="2.407694508950487" fill="rgb(0,0,0)" stroke-linecap="butt" stroke-miterlimit="10.0"><path d="M 68.1122,231.4455 h 8.5170 "/></g><g stroke-linejoin="miter" stroke-opacity="1.0" fill-opacity="0.6" stroke="rgb(0,0,0)" fill-rule="evenodd" stroke-width="0.0" fill="rgb(0,0,0)" stroke-linecap="butt" stroke-miterlimit="10.0"><path d="M 36.9608,259.8356 ZM 42.1210,255.3911 h -4.2562 c -0.1695,-0.0000 -0.2825,-0.1507 -0.2825 -0.3202c 0.0000,-0.3013 0.2448,-0.6968 0.4708 -0.6968h 4.3127 c 0.1883,-0.0000 0.2637,0.1695 0.2637 0.3390c 0.0000,0.2072 -0.2637,0.6780 -0.5085 0.6780ZM 43.2321,259.8356 ZM 47.3564,249.6095 c -0.8098,-0.0000 -1.9963,0.7910 -1.9963 5.1790c 0.0000,1.5443 0.2825,4.6516 1.9398 4.6516c 0.3202,-0.0000 1.2241,-0.2072 1.6196 -1.6761c 0.2448,-0.9040 0.3767,-2.0339 0.3767 -3.6723c 0.0000,-2.3917 -0.6026,-3.7288 -1.1488 -4.1997c -0.2072,-0.1883 -0.4896,-0.2825 -0.7910 -0.2825ZM 47.3564,249.6095 ZM 47.2811,260.0616 c -2.0151,-0.0000 -3.3710,-2.5801 -3.3710 -5.4614c 0.0000,-3.5217 1.6761,-5.6498 3.4464 -5.6498c 0.8098,-0.0000 1.6196,0.5085 2.1657 1.2429c 0.7910,1.0546 1.2053,2.4671 1.2053 4.2373c 0.0000,4.1808 -2.0716,5.6309 -3.4464 5.6309ZM 51.4807,259.8356 ZM 52.5542,259.0634 c 0.0000,-0.5461 0.4520,-0.9981 0.9981 -0.9981c 0.5461,-0.0000 0.9981,0.4520 0.9981 0.9981c 0.0000,0.5461 -0.4520,0.9981 -0.9981 0.9981c -0.5461,-0.0000 -0.9981,-0.4520 -0.9981 -0.9981ZM 55.6051,259.8356 ZM 59.6729,249.5342 c -0.4708,-0.0000 -1.8456,0.2637 -1.8456 1.4124c 0.0000,0.3390 -0.1318,0.9228 -0.6403 0.9228c -0.4896,-0.0000 -0.5273,-0.5461 -0.5273 -0.6026c 0.0000,-0.5838 0.7721,-2.3164 3.3899 -2.3164c 1.8268,-0.0000 2.3729,1.1488 2.3729 1.9021c 0.0000,0.4708 -0.1507,1.4124 -1.8456 2.4859c 1.0546,0.1695 2.4482,0.9416 2.4482 2.9002c 0.0000,2.4859 -1.8833,3.8230 -4.0113 3.8230c -1.0735,-0.0000 -2.5801,-0.4708 -2.5801 -1.1865c 0.0000,-0.2825 0.2825,-0.6026 0.6591 -0.6026c 0.3578,-0.0000 0.5273,0.1883 0.6968 0.4331c 0.2072,0.3202 0.5461,0.7721 1.4501 0.7721c 0.6215,-0.0000 2.3917,-0.6215 2.3917 -2.9944c 0.0000,-2.0151 -1.4124,-2.3352 -2.4294 -2.3352c -0.1695,-0.0000 -0.3767,0.0377 -0.5838 0.0753l -0.0753,-0.5650 c 1.4501,-0.2448 2.6554,-1.6573 2.6554 -2.5236c 0.0000,-1.0735 -0.7533,-1.6008 -1.5254 -1.6008Z"/></g><g stroke-linejoin="miter" stroke-opacity="0.6" fill-opacity="0.0" stroke="rgb(0,0,0)" stroke-width="2.407694508950487" fill="rgb(0,0,0)" stroke-linecap="butt" stroke-miterlimit="10.0"><path d="M 68.1122,259.8356 h 8.5170 "/></g><g stroke-linejoin="miter" stroke-opacity="1.0" fill-opacity="0.6" stroke="rgb(0,0,0)" fill-rule="evenodd" stroke-width="0.0" fill="rgb(0,0,0)" stroke-linecap="butt" stroke-miterlimit="10.0"><path d="M 36.9608,288.2256 ZM 42.1210,283.7812 h -4.2562 c -0.1695,-0.0000 -0.2825,-0.1507 -0.2825 -0.3202c 0.0000,-0.3013 0.2448,-0.6968 0.4708 -0.6968h 4.3127 c 0.1883,-0.0000 0.2637,0.1695 0.2637 0.3390c 0.0000,0.2072 -0.2637,0.6780 -0.5085 0.6780ZM 43.2321,288.2256 ZM 47.3564,277.9996 c -0.8098,-0.0000 -1.9963,0.7910 -1.9963 5.1790c 0.0000,1.5443 0.2825,4.6516 1.9398 4.6516c 0.3202,-0.0000 1.2241,-0.2072 1.6196 -1.6761c 0.2448,-0.9040 0.3767,-2.0339 0.3767 -3.6723c 0.0000,-2.3917 -0.6026,-3.7288 -1.1488 -4.1997c -0.2072,-0.1883 -0.4896,-0.2825 -0.7910 -0.2825ZM 47.3564,277.9996 ZM 47.2811,288.4516 c -2.0151,-0.0000 -3.3710,-2.5801 -3.3710 -5.4614c 0.0000,-3.5217 1.6761,-5.6498 3.4464 -5.6498c 0.8098,-0.0000 1.6196,0.5085 2.1657 1.2429c 0.7910,1.0546 1.2053,2.4671 1.2053 4.2373c 0.0000,4.1808 -2.0716,5.6309 -3.4464 5.6309ZM 51.4807,288.2256 ZM 52.5542,287.4535 c 0.0000,-0.5461 0.4520,-0.9981 0.9981 -0.9981c 0.5461,-0.0000 0.9981,0.4520 0.9981 0.9981c 0.0000,0.5461 -0.4520,0.9981 -0.9981 0.9981c -0.5461,-0.0000 -0.9981,-0.4520 -0.9981 -0.9981ZM 55.6051,288.2256 ZM 60.4639,281.5401 c 0.0000,-0.1318 0.0188,-0.2825 0.1883 -0.3767c 0.2072,-0.1507 0.5461,-0.3202 0.8286 -0.3202c 0.2448,-0.0000 0.2637,0.2072 0.2637 0.5838v 3.0320 h 1.5254 l -0.1130,0.8851 h -1.4124 v 1.5631 c 0.0000,0.5273 0.0753,0.7910 0.6215 0.7910h 0.5085 c 0.1130,-0.0000 0.1318,0.0942 0.1318 0.1318v 0.4143 c 0.0000,-0.0000 -1.2053,-0.0377 -1.9963 -0.0377c -0.7156,-0.0000 -1.8268,0.0377 -1.8268 0.0377v -0.4143 c 0.0000,-0.0377 0.0188,-0.1318 0.1318 -0.1318h 0.5085 c 0.5838,-0.0000 0.6403,-0.2448 0.6403 -0.7910v -1.5631 h -3.6912 c -0.0753,-0.0000 -0.1130,-0.0377 -0.1695 -0.1130l -0.1507,-0.2072 l -0.2260,-0.3955 c -0.0188,-0.0000 -0.0188,-0.0188 -0.0188 -0.0377c 0.0000,-0.0188 0.0188,-0.0377 0.0377 -0.0565c 1.2241,-1.3559 3.3899,-5.5556 4.0678 -7.0999c 0.0188,-0.0753 0.0565,-0.0942 0.1318 -0.0942c 0.0188,-0.0000 0.4331,0.1695 0.6591 0.2072c -0.8475,2.2787 -2.2411,4.7270 -3.6159 6.9115h 2.9755 v -2.9190 Z"/></g><g stroke-linejoin="miter" stroke-opacity="0.6" fill-opacity="0.0" stroke="rgb(0,0,0)" stroke-width="2.407694508950487" fill="rgb(0,0,0)" stroke-linecap="butt" stroke-miterlimit="10.0"><path d="M 68.1122,288.2256 h 8.5170 "/></g><g stroke-linejoin="miter" stroke-opacity="1.0" fill-opacity="0.6" stroke="rgb(0,0,0)" fill-rule="evenodd" stroke-width="0.0" fill="rgb(0,0,0)" stroke-linecap="butt" stroke-miterlimit="10.0"><path d="M 36.9608,316.6157 ZM 42.1210,312.1712 h -4.2562 c -0.1695,-0.0000 -0.2825,-0.1507 -0.2825 -0.3202c 0.0000,-0.3013 0.2448,-0.6968 0.4708 -0.6968h 4.3127 c 0.1883,-0.0000 0.2637,0.1695 0.2637 0.3390c 0.0000,0.2072 -0.2637,0.6780 -0.5085 0.6780ZM 43.2321,316.6157 ZM 47.3564,306.3896 c -0.8098,-0.0000 -1.9963,0.7910 -1.9963 5.1790c 0.0000,1.5443 0.2825,4.6516 1.9398 4.6516c 0.3202,-0.0000 1.2241,-0.2072 1.6196 -1.6761c 0.2448,-0.9040 0.3767,-2.0339 0.3767 -3.6723c 0.0000,-2.3917 -0.6026,-3.7288 -1.1488 -4.1997c -0.2072,-0.1883 -0.4896,-0.2825 -0.7910 -0.2825ZM 47.3564,306.3896 ZM 47.2811,316.8417 c -2.0151,-0.0000 -3.3710,-2.5801 -3.3710 -5.4614c 0.0000,-3.5217 1.6761,-5.6498 3.4464 -5.6498c 0.8098,-0.0000 1.6196,0.5085 2.1657 1.2429c 0.7910,1.0546 1.2053,2.4671 1.2053 4.2373c 0.0000,4.1808 -2.0716,5.6309 -3.4464 5.6309ZM 51.4807,316.6157 ZM 52.5542,315.8436 c 0.0000,-0.5461 0.4520,-0.9981 0.9981 -0.9981c 0.5461,-0.0000 0.9981,0.4520 0.9981 0.9981c 0.0000,0.5461 -0.4520,0.9981 -0.9981 0.9981c -0.5461,-0.0000 -0.9981,-0.4520 -0.9981 -0.9981ZM 55.6051,316.6157 ZM 61.4243,313.4330 c 0.0000,-1.9398 -1.0546,-2.9002 -2.2222 -2.9002c -0.8663,-0.0000 -1.5254,0.1318 -2.2599 0.4331l 0.6026,-5.1413 c 0.6215,0.0565 1.2618,0.0753 1.9209 0.0753c 0.9416,-0.0000 1.9209,-0.0565 2.9379 -0.1695l 0.1130,0.0565 l -0.2825,1.2241 c -0.7345,0.0753 -1.3371,0.0942 -1.8644 0.0942c -0.8475,-0.0000 -1.4878,-0.0753 -2.1469 -0.1507l -0.3578,2.9755 c 0.3955,-0.1507 1.0735,-0.2825 1.8079 -0.2825c 1.9963,-0.0000 3.1074,1.7326 3.1074 3.4652c 0.0000,2.1092 -1.4689,3.7288 -3.5970 3.7288c -1.0735,-0.0000 -2.6366,-0.6026 -2.6366 -1.3371c 0.0000,-0.3578 0.3013,-0.6026 0.6403 -0.6026c 0.3767,-0.0000 0.6215,0.2825 0.8475 0.5838c 0.2825,0.3390 0.5838,0.7156 1.1865 0.7156c 1.2053,-0.0000 2.2034,-1.1300 2.2034 -2.7684Z"/></g><g stroke-linejoin="miter" stroke-opacity="0.6" fill-opacity="0.0" stroke="rgb(0,0,0)" stroke-width="2.407694508950487" fill="rgb(0,0,0)" stroke-linecap="butt" stroke-miterlimit="10.0"><path d="M 68.1122,316.6157 h 8.5170 "/></g><g stroke-linejoin="miter" stroke-opacity="0.0" fill-opacity="0.1" stroke="rgb(0,0,0)" stroke-width="0.0" fill="rgb(0,0,0)" stroke-linecap="butt" stroke-miterlimit="10.0"><path d="M 517.9912,322.2937 l -0.0000,-5.6780 h -425.8511 l -0.0000,5.6780 Z"/></g><g stroke-linejoin="miter" stroke-opacity="1.0" fill-opacity="0.6" stroke="rgb(0,0,0)" fill-rule="evenodd" stroke-width="0.0" fill="rgb(0,0,0)" stroke-linecap="butt" stroke-miterlimit="10.0"><path d="M 517.9912,341.2963 ZM 525.1289,341.9089 l -1.3183,-0.7857 c -1.5314,-0.8123 -2.3171,-0.3729 -2.9163 0.2264c -0.4128,0.4128 -0.8389,1.2384 0.0000 2.0774c 0.3995,0.3995 1.3982,0.6259 2.0374 0.6791l 2.1972,-2.1972 ZM 525.1289,341.9089 ZM 522.5588,346.1835 c -0.5060,-0.5060 -0.3329,-1.2384 -0.0666 -1.6113l -0.5193,-0.0932 c -1.0387,-0.1864 -1.3982,-0.2796 -2.0108 -0.8922c -0.9322,-0.9322 -1.0786,-2.1440 -0.0799 -3.1427c 1.0121,-1.0121 2.5701,-0.8389 4.1548 0.1065l 1.5314,0.9188 c 1.5048,-1.5048 1.0920,-2.4769 0.6392 -2.9297c -0.5060,-0.5060 -1.3183,-0.8656 -1.7312 -0.4528c -0.1465,0.1465 -0.1997,0.2530 -0.2264 0.3063c -0.0266,0.0799 -0.1065,0.1864 -0.1997 0.2796c -0.1731,0.1731 -0.5726,0.3063 -0.9588 -0.0799c -0.3196,-0.3196 -0.3196,-0.7457 -0.0000 -1.0653c 0.7724,-0.7724 2.7033,-0.1997 3.5555 0.6525c 0.9721,0.9721 1.6912,2.4902 -0.1997 4.3812l -1.9575,1.9575 c -0.8123,0.8123 -1.1452,1.1719 -0.8389 1.4781c 0.2930,0.2930 0.7457,-0.0000 1.0520 -0.2796l 0.2663,0.3995 c -1.0520,0.8922 -1.7312,0.7457 -2.4103 0.0666ZM 523.9970,347.3021 ZM 526.7136,348.5539 c -0.0533,0.5859 0.1198,0.9721 0.5327 1.3849c 1.2651,1.2651 3.0761,0.7324 4.5942 -0.7857c 1.3583,-1.3583 1.6379,-3.0229 0.8256 -3.8352c -0.1465,-0.1465 -0.8656,-0.8123 -1.9309 -0.7857l -4.0216,4.0216 ZM 526.7136,348.5539 ZM 532.6128,340.6571 c 0.7590,-0.7590 0.8389,-1.1053 0.5726 -1.3716l -0.4794,-0.3729 c -0.0399,-0.0399 -0.0399,-0.0932 -0.0000 -0.1332l 0.3063,-0.3595 c 0.2131,0.2131 0.7724,0.6126 1.0387 0.7990c 0.2930,0.1864 0.5460,0.3329 0.9322 0.4794l 0.2930,0.2930 l -4.1282,4.1282 c 0.9455,-0.0399 1.7178,0.2530 2.3570 0.8922c 1.1585,1.1585 1.1585,3.3691 -0.4661 4.9937c -2.1173,2.1173 -4.8073,1.8244 -6.1656 0.4661c -0.5726,-0.5726 -0.8389,-1.1585 -0.8922 -1.8776c -0.2796,0.0399 -0.6525,0.0666 -0.9055 0.0799l -0.2131,-0.3462 c 0.3595,-0.2796 0.5726,-0.4927 1.0920 -1.0121l 6.6583,-6.6583 ZM 530.3623,353.6675 ZM 536.6877,357.5692 c -1.5980,0.4261 -2.5967,0.1465 -3.3957 -0.6525c -1.5980,-1.5980 -1.3849,-3.8086 0.3329 -5.5264c 1.8910,-1.8910 4.3013,-1.9309 5.7395 -0.4927c 1.2784,1.2784 1.3050,2.6101 0.5992 3.3158c -0.3862,0.3862 -0.8256,0.3462 -1.1053 0.0666c -0.2796,-0.2796 -0.3995,-0.6925 -0.1065 -1.0653c 0.3862,-0.4927 0.8789,-1.1452 0.0932 -1.9309c -0.8789,-0.8789 -2.4636,-0.5992 -3.9018 0.8389c -1.5580,1.5580 -1.7977,3.4756 -0.7724 4.5010c 0.5726,0.5726 1.4515,0.7058 2.4636 0.5193ZM 535.7289,359.0341 ZM 541.3619,362.2966 l 3.4490,-3.4490 c 0.1864,-0.8256 0.1065,-1.4648 -0.5193 -2.0907c -0.2663,-0.2663 -0.8523,-0.7724 -1.9043 -0.5726c -0.4661,0.0932 -1.2651,0.4394 -2.2239 1.3982c -1.7445,1.7445 -1.6379,3.4490 -0.9188 4.1681c 0.4394,0.4394 1.0653,0.5327 2.1173 0.5460ZM 541.3619,362.2966 ZM 550.4704,355.1856 l -7.6970,7.6970 c -0.3995,0.3995 -0.5859,0.6392 -0.6525 0.7590c -0.0799,0.1598 -0.0133,0.3862 0.0932 0.4927c 0.1598,0.1598 0.4528,0.4528 0.6925 0.6126l -0.3196,0.4261 c -0.9055,-0.6392 -1.7445,-1.1852 -2.2638 -1.2251l -0.3196,-0.3196 l 0.9588,-0.8789 c -1.0254,0.0133 -1.9442,-0.1065 -2.6234 -0.7857c -1.4382,-1.4382 -1.0920,-3.5422 0.5460 -5.1802c 0.9854,-0.9854 2.0774,-1.5447 3.2226 -1.5447c 1.0387,0.0266 1.9176,0.3196 2.7965 1.1985c 0.2663,0.2663 0.7324,0.9721 0.8656 1.4515l 2.0374,-2.0374 c 0.7590,-0.7590 0.8523,-1.0920 0.5859 -1.3583l -0.4927,-0.3862 c -0.0266,-0.0266 -0.0399,-0.0932 -0.0000 -0.1332l 0.3063,-0.3595 c 0.2131,0.2131 0.7724,0.6126 1.0387 0.7990c 0.3063,0.1997 0.5460,0.3329 0.9322 0.4794l 0.2930,0.2930 ZM 542.3074,365.6125 ZM 547.5142,363.4419 l 2.4503,2.4503 c 0.1332,0.1332 0.2530,0.1198 0.3729 -0.0000c 1.2384,-1.2384 0.9322,-2.1839 0.4528 -2.6633c -0.3063,-0.3063 -1.4249,-1.1852 -3.2759 0.2131ZM 547.5142,363.4419 ZM 548.5795,369.4077 l 0.0533,0.4794 c -1.1985,0.1864 -2.4769,-0.1065 -3.4357 -1.0653c -1.8244,-1.8244 -1.2384,-3.9550 0.2131 -5.4066c 2.0241,-2.0241 4.5676,-1.9043 5.8327 -0.6392c 1.7578,1.7578 0.7990,3.5422 -0.3196 4.6608c -0.1465,0.1465 -0.3196,0.1332 -0.4661 -0.0133l -3.5023,-3.5023 c -0.0932,0.0666 -0.1731,0.1465 -0.2796 0.2530c -1.3583,1.3583 -1.4648,3.3558 -0.5060 4.3146c 0.7324,0.7324 1.4382,0.9588 2.4103 0.9188ZM 548.0069,371.3120 ZM 550.1908,371.5783 l 4.2480,-4.2480 l -0.9188,-0.9188 c -0.0533,-0.0533 -0.0533,-0.0799 -0.0000 -0.1332l 0.1864,-0.1864 c 0.1065,-0.1065 0.3329,-0.1997 0.5726 0.0399l 0.6791,0.6791 l 0.5193,-0.5193 c 2.0774,-2.0774 4.1282,-1.9709 5.2468 -0.8523c 0.5060,0.5060 0.7191,0.9854 0.8256 1.5447c 0.0666,0.4661 -0.0399,0.8123 -0.2530 1.0254c -0.2796,0.2796 -0.6791,0.2796 -0.9322 0.0266c -0.2663,-0.2663 -0.2930,-0.5859 -0.1731 -0.9188c 0.2663,-0.6126 0.2264,-1.0786 -0.1731 -1.4781c -0.4394,-0.4394 -1.2651,-0.6259 -3.3158 1.4249l -0.7457,0.7457 l 1.4648,1.4648 c 0.0666,0.0666 0.0799,0.1332 0.0266 0.1864l -0.2663,0.2663 c -0.1198,0.1198 -0.3595,-0.0133 -0.4794 -0.1332l -1.2651,-1.2651 l -4.2480,4.2480 c -0.3862,0.3862 -0.4528,0.7191 -0.0133 1.1585l 0.4394,0.4394 c 0.0533,0.0533 0.0666,0.1465 0.0000 0.2131l -0.2530,0.2530 l -0.0533,0.0000 c 0.0000,-0.0000 -1.0653,-1.1186 -1.5847 -1.6379c -0.4794,-0.4794 -1.4116,-1.3583 -1.4116 -1.3583l -0.0000,-0.0533 l 0.2530,-0.2530 c 0.0666,-0.0666 0.1465,-0.0666 0.2131 -0.0000l 0.2530,0.2530 c 0.4528,0.4528 0.7724,0.3729 1.1585 -0.0133Z"/></g><g stroke-linejoin="miter" stroke-opacity="0.6" fill-opacity="0.0" stroke="rgb(0,0,0)" stroke-width="2.407694508950487" fill="rgb(0,0,0)" stroke-linecap="butt" stroke-miterlimit="10.0"><path d="M 517.9912,316.6157 v 8.5170 "/></g><g stroke-linejoin="miter" stroke-opacity="1.0" fill-opacity="0.6" stroke="rgb(0,0,0)" fill-rule="evenodd" stroke-width="0.0" fill="rgb(0,0,0)" stroke-linecap="butt" stroke-miterlimit="10.0"><path d="M 475.4061,341.2963 ZM 482.5438,341.9089 l -1.3183,-0.7857 c -1.5314,-0.8123 -2.3171,-0.3729 -2.9163 0.2264c -0.4128,0.4128 -0.8389,1.2384 0.0000 2.0774c 0.3995,0.3995 1.3982,0.6259 2.0374 0.6791l 2.1972,-2.1972 ZM 482.5438,341.9089 ZM 479.9737,346.1835 c -0.5060,-0.5060 -0.3329,-1.2384 -0.0666 -1.6113l -0.5193,-0.0932 c -1.0387,-0.1864 -1.3982,-0.2796 -2.0108 -0.8922c -0.9322,-0.9322 -1.0786,-2.1440 -0.0799 -3.1427c 1.0121,-1.0121 2.5701,-0.8389 4.1548 0.1065l 1.5314,0.9188 c 1.5048,-1.5048 1.0920,-2.4769 0.6392 -2.9297c -0.5060,-0.5060 -1.3183,-0.8656 -1.7312 -0.4528c -0.1465,0.1465 -0.1997,0.2530 -0.2264 0.3063c -0.0266,0.0799 -0.1065,0.1864 -0.1997 0.2796c -0.1731,0.1731 -0.5726,0.3063 -0.9588 -0.0799c -0.3196,-0.3196 -0.3196,-0.7457 -0.0000 -1.0653c 0.7724,-0.7724 2.7033,-0.1997 3.5555 0.6525c 0.9721,0.9721 1.6912,2.4902 -0.1997 4.3812l -1.9575,1.9575 c -0.8123,0.8123 -1.1452,1.1719 -0.8389 1.4781c 0.2930,0.2930 0.7457,-0.0000 1.0520 -0.2796l 0.2663,0.3995 c -1.0520,0.8922 -1.7312,0.7457 -2.4103 0.0666ZM 481.4119,347.3021 ZM 484.1285,348.5539 c -0.0533,0.5859 0.1198,0.9721 0.5327 1.3849c 1.2651,1.2651 3.0761,0.7324 4.5942 -0.7857c 1.3583,-1.3583 1.6379,-3.0229 0.8256 -3.8352c -0.1465,-0.1465 -0.8656,-0.8123 -1.9309 -0.7857l -4.0216,4.0216 ZM 484.1285,348.5539 ZM 490.0277,340.6571 c 0.7590,-0.7590 0.8389,-1.1053 0.5726 -1.3716l -0.4794,-0.3729 c -0.0399,-0.0399 -0.0399,-0.0932 -0.0000 -0.1332l 0.3063,-0.3595 c 0.2131,0.2131 0.7724,0.6126 1.0387 0.7990c 0.2930,0.1864 0.5460,0.3329 0.9322 0.4794l 0.2930,0.2930 l -4.1282,4.1282 c 0.9455,-0.0399 1.7178,0.2530 2.3570 0.8922c 1.1585,1.1585 1.1585,3.3691 -0.4661 4.9937c -2.1173,2.1173 -4.8073,1.8244 -6.1656 0.4661c -0.5726,-0.5726 -0.8389,-1.1585 -0.8922 -1.8776c -0.2796,0.0399 -0.6525,0.0666 -0.9055 0.0799l -0.2131,-0.3462 c 0.3595,-0.2796 0.5726,-0.4927 1.0920 -1.0121l 6.6583,-6.6583 ZM 487.7772,353.6675 ZM 494.1026,357.5692 c -1.5980,0.4261 -2.5967,0.1465 -3.3957 -0.6525c -1.5980,-1.5980 -1.3849,-3.8086 0.3329 -5.5264c 1.8910,-1.8910 4.3013,-1.9309 5.7395 -0.4927c 1.2784,1.2784 1.3050,2.6101 0.5992 3.3158c -0.3862,0.3862 -0.8256,0.3462 -1.1053 0.0666c -0.2796,-0.2796 -0.3995,-0.6925 -0.1065 -1.0653c 0.3862,-0.4927 0.8789,-1.1452 0.0932 -1.9309c -0.8789,-0.8789 -2.4636,-0.5992 -3.9018 0.8389c -1.5580,1.5580 -1.7977,3.4756 -0.7724 4.5010c 0.5726,0.5726 1.4515,0.7058 2.4636 0.5193ZM 493.1438,359.0341 ZM 498.7768,362.2966 l 3.4490,-3.4490 c 0.1864,-0.8256 0.1065,-1.4648 -0.5193 -2.0907c -0.2663,-0.2663 -0.8523,-0.7724 -1.9043 -0.5726c -0.4661,0.0932 -1.2651,0.4394 -2.2239 1.3982c -1.7445,1.7445 -1.6379,3.4490 -0.9188 4.1681c 0.4394,0.4394 1.0653,0.5327 2.1173 0.5460ZM 498.7768,362.2966 ZM 507.8853,355.1856 l -7.6970,7.6970 c -0.3995,0.3995 -0.5859,0.6392 -0.6525 0.7590c -0.0799,0.1598 -0.0133,0.3862 0.0932 0.4927c 0.1598,0.1598 0.4528,0.4528 0.6925 0.6126l -0.3196,0.4261 c -0.9055,-0.6392 -1.7445,-1.1852 -2.2638 -1.2251l -0.3196,-0.3196 l 0.9588,-0.8789 c -1.0254,0.0133 -1.9442,-0.1065 -2.6234 -0.7857c -1.4382,-1.4382 -1.0920,-3.5422 0.5460 -5.1802c 0.9854,-0.9854 2.0774,-1.5447 3.2226 -1.5447c 1.0387,0.0266 1.9176,0.3196 2.7965 1.1985c 0.2663,0.2663 0.7324,0.9721 0.8656 1.4515l 2.0374,-2.0374 c 0.7590,-0.7590 0.8523,-1.0920 0.5859 -1.3583l -0.4927,-0.3862 c -0.0266,-0.0266 -0.0399,-0.0932 -0.0000 -0.1332l 0.3063,-0.3595 c 0.2131,0.2131 0.7724,0.6126 1.0387 0.7990c 0.3063,0.1997 0.5460,0.3329 0.9322 0.4794l 0.2930,0.2930 ZM 499.7222,365.6125 ZM 504.9290,363.4419 l 2.4503,2.4503 c 0.1332,0.1332 0.2530,0.1198 0.3729 -0.0000c 1.2384,-1.2384 0.9322,-2.1839 0.4528 -2.6633c -0.3063,-0.3063 -1.4249,-1.1852 -3.2759 0.2131ZM 504.9290,363.4419 ZM 505.9944,369.4077 l 0.0533,0.4794 c -1.1985,0.1864 -2.4769,-0.1065 -3.4357 -1.0653c -1.8244,-1.8244 -1.2384,-3.9550 0.2131 -5.4066c 2.0241,-2.0241 4.5676,-1.9043 5.8327 -0.6392c 1.7578,1.7578 0.7990,3.5422 -0.3196 4.6608c -0.1465,0.1465 -0.3196,0.1332 -0.4661 -0.0133l -3.5023,-3.5023 c -0.0932,0.0666 -0.1731,0.1465 -0.2796 0.2530c -1.3583,1.3583 -1.4648,3.3558 -0.5060 4.3146c 0.7324,0.7324 1.4382,0.9588 2.4103 0.9188ZM 505.4218,371.3120 ZM 507.6057,371.5783 l 4.2480,-4.2480 l -0.9188,-0.9188 c -0.0533,-0.0533 -0.0533,-0.0799 -0.0000 -0.1332l 0.1864,-0.1864 c 0.1065,-0.1065 0.3329,-0.1997 0.5726 0.0399l 0.6791,0.6791 l 0.5193,-0.5193 c 2.0774,-2.0774 4.1282,-1.9709 5.2468 -0.8523c 0.5060,0.5060 0.7191,0.9854 0.8256 1.5447c 0.0666,0.4661 -0.0399,0.8123 -0.2530 1.0254c -0.2796,0.2796 -0.6791,0.2796 -0.9322 0.0266c -0.2663,-0.2663 -0.2930,-0.5859 -0.1731 -0.9188c 0.2663,-0.6126 0.2264,-1.0786 -0.1731 -1.4781c -0.4394,-0.4394 -1.2651,-0.6259 -3.3158 1.4249l -0.7457,0.7457 l 1.4648,1.4648 c 0.0666,0.0666 0.0799,0.1332 0.0266 0.1864l -0.2663,0.2663 c -0.1198,0.1198 -0.3595,-0.0133 -0.4794 -0.1332l -1.2651,-1.2651 l -4.2480,4.2480 c -0.3862,0.3862 -0.4528,0.7191 -0.0133 1.1585l 0.4394,0.4394 c 0.0533,0.0533 0.0666,0.1465 0.0000 0.2131l -0.2530,0.2530 l -0.0533,0.0000 c 0.0000,-0.0000 -1.0653,-1.1186 -1.5847 -1.6379c -0.4794,-0.4794 -1.4116,-1.3583 -1.4116 -1.3583l -0.0000,-0.0533 l 0.2530,-0.2530 c 0.0666,-0.0666 0.1465,-0.0666 0.2131 -0.0000l 0.2530,0.2530 c 0.4528,0.4528 0.7724,0.3729 1.1585 -0.0133Z"/></g><g stroke-linejoin="miter" stroke-opacity="0.6" fill-opacity="0.0" stroke="rgb(0,0,0)" stroke-width="2.407694508950487" fill="rgb(0,0,0)" stroke-linecap="butt" stroke-miterlimit="10.0"><path d="M 475.4061,316.6157 v 8.5170 "/></g><g stroke-linejoin="miter" stroke-opacity="1.0" fill-opacity="0.6" stroke="rgb(0,0,0)" fill-rule="evenodd" stroke-width="0.0" fill="rgb(0,0,0)" stroke-linecap="butt" stroke-miterlimit="10.0"><path d="M 432.8210,341.2963 ZM 439.9587,341.9089 l -1.3183,-0.7857 c -1.5314,-0.8123 -2.3171,-0.3729 -2.9163 0.2264c -0.4128,0.4128 -0.8389,1.2384 0.0000 2.0774c 0.3995,0.3995 1.3982,0.6259 2.0374 0.6791l 2.1972,-2.1972 ZM 439.9587,341.9089 ZM 437.3886,346.1835 c -0.5060,-0.5060 -0.3329,-1.2384 -0.0666 -1.6113l -0.5193,-0.0932 c -1.0387,-0.1864 -1.3982,-0.2796 -2.0108 -0.8922c -0.9322,-0.9322 -1.0786,-2.1440 -0.0799 -3.1427c 1.0121,-1.0121 2.5701,-0.8389 4.1548 0.1065l 1.5314,0.9188 c 1.5048,-1.5048 1.0920,-2.4769 0.6392 -2.9297c -0.5060,-0.5060 -1.3183,-0.8656 -1.7312 -0.4528c -0.1465,0.1465 -0.1997,0.2530 -0.2264 0.3063c -0.0266,0.0799 -0.1065,0.1864 -0.1997 0.2796c -0.1731,0.1731 -0.5726,0.3063 -0.9588 -0.0799c -0.3196,-0.3196 -0.3196,-0.7457 -0.0000 -1.0653c 0.7724,-0.7724 2.7033,-0.1997 3.5555 0.6525c 0.9721,0.9721 1.6912,2.4902 -0.1997 4.3812l -1.9575,1.9575 c -0.8123,0.8123 -1.1452,1.1719 -0.8389 1.4781c 0.2930,0.2930 0.7457,-0.0000 1.0520 -0.2796l 0.2663,0.3995 c -1.0520,0.8922 -1.7312,0.7457 -2.4103 0.0666ZM 438.8268,347.3021 ZM 441.5434,348.5539 c -0.0533,0.5859 0.1198,0.9721 0.5327 1.3849c 1.2651,1.2651 3.0761,0.7324 4.5942 -0.7857c 1.3583,-1.3583 1.6379,-3.0229 0.8256 -3.8352c -0.1465,-0.1465 -0.8656,-0.8123 -1.9309 -0.7857l -4.0216,4.0216 ZM 441.5434,348.5539 ZM 447.4426,340.6571 c 0.7590,-0.7590 0.8389,-1.1053 0.5726 -1.3716l -0.4794,-0.3729 c -0.0399,-0.0399 -0.0399,-0.0932 -0.0000 -0.1332l 0.3063,-0.3595 c 0.2131,0.2131 0.7724,0.6126 1.0387 0.7990c 0.2930,0.1864 0.5460,0.3329 0.9322 0.4794l 0.2930,0.2930 l -4.1282,4.1282 c 0.9455,-0.0399 1.7178,0.2530 2.3570 0.8922c 1.1585,1.1585 1.1585,3.3691 -0.4661 4.9937c -2.1173,2.1173 -4.8073,1.8244 -6.1656 0.4661c -0.5726,-0.5726 -0.8389,-1.1585 -0.8922 -1.8776c -0.2796,0.0399 -0.6525,0.0666 -0.9055 0.0799l -0.2131,-0.3462 c 0.3595,-0.2796 0.5726,-0.4927 1.0920 -1.0121l 6.6583,-6.6583 ZM 445.1921,353.6675 ZM 451.5175,357.5692 c -1.5980,0.4261 -2.5967,0.1465 -3.3957 -0.6525c -1.5980,-1.5980 -1.3849,-3.8086 0.3329 -5.5264c 1.8910,-1.8910 4.3013,-1.9309 5.7395 -0.4927c 1.2784,1.2784 1.3050,2.6101 0.5992 3.3158c -0.3862,0.3862 -0.8256,0.3462 -1.1053 0.0666c -0.2796,-0.2796 -0.3995,-0.6925 -0.1065 -1.0653c 0.3862,-0.4927 0.8789,-1.1452 0.0932 -1.9309c -0.8789,-0.8789 -2.4636,-0.5992 -3.9018 0.8389c -1.5580,1.5580 -1.7977,3.4756 -0.7724 4.5010c 0.5726,0.5726 1.4515,0.7058 2.4636 0.5193ZM 450.5587,359.0341 ZM 456.1916,362.2966 l 3.4490,-3.4490 c 0.1864,-0.8256 0.1065,-1.4648 -0.5193 -2.0907c -0.2663,-0.2663 -0.8523,-0.7724 -1.9043 -0.5726c -0.4661,0.0932 -1.2651,0.4394 -2.2239 1.3982c -1.7445,1.7445 -1.6379,3.4490 -0.9188 4.1681c 0.4394,0.4394 1.0653,0.5327 2.1173 0.5460ZM 456.1916,362.2966 ZM 465.3002,355.1856 l -7.6970,7.6970 c -0.3995,0.3995 -0.5859,0.6392 -0.6525 0.7590c -0.0799,0.1598 -0.0133,0.3862 0.0932 0.4927c 0.1598,0.1598 0.4528,0.4528 0.6925 0.6126l -0.3196,0.4261 c -0.9055,-0.6392 -1.7445,-1.1852 -2.2638 -1.2251l -0.3196,-0.3196 l 0.9588,-0.8789 c -1.0254,0.0133 -1.9442,-0.1065 -2.6234 -0.7857c -1.4382,-1.4382 -1.0920,-3.5422 0.5460 -5.1802c 0.9854,-0.9854 2.0774,-1.5447 3.2226 -1.5447c 1.0387,0.0266 1.9176,0.3196 2.7965 1.1985c 0.2663,0.2663 0.7324,0.9721 0.8656 1.4515l 2.0374,-2.0374 c 0.7590,-0.7590 0.8523,-1.0920 0.5859 -1.3583l -0.4927,-0.3862 c -0.0266,-0.0266 -0.0399,-0.0932 -0.0000 -0.1332l 0.3063,-0.3595 c 0.2131,0.2131 0.7724,0.6126 1.0387 0.7990c 0.3063,0.1997 0.5460,0.3329 0.9322 0.4794l 0.2930,0.2930 ZM 457.1371,365.6125 ZM 462.3439,363.4419 l 2.4503,2.4503 c 0.1332,0.1332 0.2530,0.1198 0.3729 -0.0000c 1.2384,-1.2384 0.9322,-2.1839 0.4528 -2.6633c -0.3063,-0.3063 -1.4249,-1.1852 -3.2759 0.2131ZM 462.3439,363.4419 ZM 463.4093,369.4077 l 0.0533,0.4794 c -1.1985,0.1864 -2.4769,-0.1065 -3.4357 -1.0653c -1.8244,-1.8244 -1.2384,-3.9550 0.2131 -5.4066c 2.0241,-2.0241 4.5676,-1.9043 5.8327 -0.6392c 1.7578,1.7578 0.7990,3.5422 -0.3196 4.6608c -0.1465,0.1465 -0.3196,0.1332 -0.4661 -0.0133l -3.5023,-3.5023 c -0.0932,0.0666 -0.1731,0.1465 -0.2796 0.2530c -1.3583,1.3583 -1.4648,3.3558 -0.5060 4.3146c 0.7324,0.7324 1.4382,0.9588 2.4103 0.9188ZM 462.8366,371.3120 ZM 465.0206,371.5783 l 4.2480,-4.2480 l -0.9188,-0.9188 c -0.0533,-0.0533 -0.0533,-0.0799 -0.0000 -0.1332l 0.1864,-0.1864 c 0.1065,-0.1065 0.3329,-0.1997 0.5726 0.0399l 0.6791,0.6791 l 0.5193,-0.5193 c 2.0774,-2.0774 4.1282,-1.9709 5.2468 -0.8523c 0.5060,0.5060 0.7191,0.9854 0.8256 1.5447c 0.0666,0.4661 -0.0399,0.8123 -0.2530 1.0254c -0.2796,0.2796 -0.6791,0.2796 -0.9322 0.0266c -0.2663,-0.2663 -0.2930,-0.5859 -0.1731 -0.9188c 0.2663,-0.6126 0.2264,-1.0786 -0.1731 -1.4781c -0.4394,-0.4394 -1.2651,-0.6259 -3.3158 1.4249l -0.7457,0.7457 l 1.4648,1.4648 c 0.0666,0.0666 0.0799,0.1332 0.0266 0.1864l -0.2663,0.2663 c -0.1198,0.1198 -0.3595,-0.0133 -0.4794 -0.1332l -1.2651,-1.2651 l -4.2480,4.2480 c -0.3862,0.3862 -0.4528,0.7191 -0.0133 1.1585l 0.4394,0.4394 c 0.0533,0.0533 0.0666,0.1465 0.0000 0.2131l -0.2530,0.2530 l -0.0533,0.0000 c 0.0000,-0.0000 -1.0653,-1.1186 -1.5847 -1.6379c -0.4794,-0.4794 -1.4116,-1.3583 -1.4116 -1.3583l -0.0000,-0.0533 l 0.2530,-0.2530 c 0.0666,-0.0666 0.1465,-0.0666 0.2131 -0.0000l 0.2530,0.2530 c 0.4528,0.4528 0.7724,0.3729 1.1585 -0.0133Z"/></g><g stroke-linejoin="miter" stroke-opacity="0.6" fill-opacity="0.0" stroke="rgb(0,0,0)" stroke-width="2.407694508950487" fill="rgb(0,0,0)" stroke-linecap="butt" stroke-miterlimit="10.0"><path d="M 432.8210,316.6157 v 8.5170 "/></g><g stroke-linejoin="miter" stroke-opacity="1.0" fill-opacity="0.6" stroke="rgb(0,0,0)" fill-rule="evenodd" stroke-width="0.0" fill="rgb(0,0,0)" stroke-linecap="butt" stroke-miterlimit="10.0"><path d="M 390.2359,341.2963 ZM 397.3736,341.9089 l -1.3183,-0.7857 c -1.5314,-0.8123 -2.3171,-0.3729 -2.9163 0.2264c -0.4128,0.4128 -0.8389,1.2384 0.0000 2.0774c 0.3995,0.3995 1.3982,0.6259 2.0374 0.6791l 2.1972,-2.1972 ZM 397.3736,341.9089 ZM 394.8035,346.1835 c -0.5060,-0.5060 -0.3329,-1.2384 -0.0666 -1.6113l -0.5193,-0.0932 c -1.0387,-0.1864 -1.3982,-0.2796 -2.0108 -0.8922c -0.9322,-0.9322 -1.0786,-2.1440 -0.0799 -3.1427c 1.0121,-1.0121 2.5701,-0.8389 4.1548 0.1065l 1.5314,0.9188 c 1.5048,-1.5048 1.0920,-2.4769 0.6392 -2.9297c -0.5060,-0.5060 -1.3183,-0.8656 -1.7312 -0.4528c -0.1465,0.1465 -0.1997,0.2530 -0.2264 0.3063c -0.0266,0.0799 -0.1065,0.1864 -0.1997 0.2796c -0.1731,0.1731 -0.5726,0.3063 -0.9588 -0.0799c -0.3196,-0.3196 -0.3196,-0.7457 -0.0000 -1.0653c 0.7724,-0.7724 2.7033,-0.1997 3.5555 0.6525c 0.9721,0.9721 1.6912,2.4902 -0.1997 4.3812l -1.9575,1.9575 c -0.8123,0.8123 -1.1452,1.1719 -0.8389 1.4781c 0.2930,0.2930 0.7457,-0.0000 1.0520 -0.2796l 0.2663,0.3995 c -1.0520,0.8922 -1.7312,0.7457 -2.4103 0.0666ZM 396.2417,347.3021 ZM 398.9582,348.5539 c -0.0533,0.5859 0.1198,0.9721 0.5327 1.3849c 1.2651,1.2651 3.0761,0.7324 4.5942 -0.7857c 1.3583,-1.3583 1.6379,-3.0229 0.8256 -3.8352c -0.1465,-0.1465 -0.8656,-0.8123 -1.9309 -0.7857l -4.0216,4.0216 ZM 398.9582,348.5539 ZM 404.8575,340.6571 c 0.7590,-0.7590 0.8389,-1.1053 0.5726 -1.3716l -0.4794,-0.3729 c -0.0399,-0.0399 -0.0399,-0.0932 -0.0000 -0.1332l 0.3063,-0.3595 c 0.2131,0.2131 0.7724,0.6126 1.0387 0.7990c 0.2930,0.1864 0.5460,0.3329 0.9322 0.4794l 0.2930,0.2930 l -4.1282,4.1282 c 0.9455,-0.0399 1.7178,0.2530 2.3570 0.8922c 1.1585,1.1585 1.1585,3.3691 -0.4661 4.9937c -2.1173,2.1173 -4.8073,1.8244 -6.1656 0.4661c -0.5726,-0.5726 -0.8389,-1.1585 -0.8922 -1.8776c -0.2796,0.0399 -0.6525,0.0666 -0.9055 0.0799l -0.2131,-0.3462 c 0.3595,-0.2796 0.5726,-0.4927 1.0920 -1.0121l 6.6583,-6.6583 ZM 402.6070,353.6675 ZM 408.9324,357.5692 c -1.5980,0.4261 -2.5967,0.1465 -3.3957 -0.6525c -1.5980,-1.5980 -1.3849,-3.8086 0.3329 -5.5264c 1.8910,-1.8910 4.3013,-1.9309 5.7395 -0.4927c 1.2784,1.2784 1.3050,2.6101 0.5992 3.3158c -0.3862,0.3862 -0.8256,0.3462 -1.1053 0.0666c -0.2796,-0.2796 -0.3995,-0.6925 -0.1065 -1.0653c 0.3862,-0.4927 0.8789,-1.1452 0.0932 -1.9309c -0.8789,-0.8789 -2.4636,-0.5992 -3.9018 0.8389c -1.5580,1.5580 -1.7977,3.4756 -0.7724 4.5010c 0.5726,0.5726 1.4515,0.7058 2.4636 0.5193ZM 407.9736,359.0341 ZM 413.6065,362.2966 l 3.4490,-3.4490 c 0.1864,-0.8256 0.1065,-1.4648 -0.5193 -2.0907c -0.2663,-0.2663 -0.8523,-0.7724 -1.9043 -0.5726c -0.4661,0.0932 -1.2651,0.4394 -2.2239 1.3982c -1.7445,1.7445 -1.6379,3.4490 -0.9188 4.1681c 0.4394,0.4394 1.0653,0.5327 2.1173 0.5460ZM 413.6065,362.2966 ZM 422.7151,355.1856 l -7.6970,7.6970 c -0.3995,0.3995 -0.5859,0.6392 -0.6525 0.7590c -0.0799,0.1598 -0.0133,0.3862 0.0932 0.4927c 0.1598,0.1598 0.4528,0.4528 0.6925 0.6126l -0.3196,0.4261 c -0.9055,-0.6392 -1.7445,-1.1852 -2.2638 -1.2251l -0.3196,-0.3196 l 0.9588,-0.8789 c -1.0254,0.0133 -1.9442,-0.1065 -2.6234 -0.7857c -1.4382,-1.4382 -1.0920,-3.5422 0.5460 -5.1802c 0.9854,-0.9854 2.0774,-1.5447 3.2226 -1.5447c 1.0387,0.0266 1.9176,0.3196 2.7965 1.1985c 0.2663,0.2663 0.7324,0.9721 0.8656 1.4515l 2.0374,-2.0374 c 0.7590,-0.7590 0.8523,-1.0920 0.5859 -1.3583l -0.4927,-0.3862 c -0.0266,-0.0266 -0.0399,-0.0932 -0.0000 -0.1332l 0.3063,-0.3595 c 0.2131,0.2131 0.7724,0.6126 1.0387 0.7990c 0.3063,0.1997 0.5460,0.3329 0.9322 0.4794l 0.2930,0.2930 ZM 414.5520,365.6125 ZM 419.7588,363.4419 l 2.4503,2.4503 c 0.1332,0.1332 0.2530,0.1198 0.3729 -0.0000c 1.2384,-1.2384 0.9322,-2.1839 0.4528 -2.6633c -0.3063,-0.3063 -1.4249,-1.1852 -3.2759 0.2131ZM 419.7588,363.4419 ZM 420.8241,369.4077 l 0.0533,0.4794 c -1.1985,0.1864 -2.4769,-0.1065 -3.4357 -1.0653c -1.8244,-1.8244 -1.2384,-3.9550 0.2131 -5.4066c 2.0241,-2.0241 4.5676,-1.9043 5.8327 -0.6392c 1.7578,1.7578 0.7990,3.5422 -0.3196 4.6608c -0.1465,0.1465 -0.3196,0.1332 -0.4661 -0.0133l -3.5023,-3.5023 c -0.0932,0.0666 -0.1731,0.1465 -0.2796 0.2530c -1.3583,1.3583 -1.4648,3.3558 -0.5060 4.3146c 0.7324,0.7324 1.4382,0.9588 2.4103 0.9188ZM 420.2515,371.3120 ZM 422.4355,371.5783 l 4.2480,-4.2480 l -0.9188,-0.9188 c -0.0533,-0.0533 -0.0533,-0.0799 -0.0000 -0.1332l 0.1864,-0.1864 c 0.1065,-0.1065 0.3329,-0.1997 0.5726 0.0399l 0.6791,0.6791 l 0.5193,-0.5193 c 2.0774,-2.0774 4.1282,-1.9709 5.2468 -0.8523c 0.5060,0.5060 0.7191,0.9854 0.8256 1.5447c 0.0666,0.4661 -0.0399,0.8123 -0.2530 1.0254c -0.2796,0.2796 -0.6791,0.2796 -0.9322 0.0266c -0.2663,-0.2663 -0.2930,-0.5859 -0.1731 -0.9188c 0.2663,-0.6126 0.2264,-1.0786 -0.1731 -1.4781c -0.4394,-0.4394 -1.2651,-0.6259 -3.3158 1.4249l -0.7457,0.7457 l 1.4648,1.4648 c 0.0666,0.0666 0.0799,0.1332 0.0266 0.1864l -0.2663,0.2663 c -0.1198,0.1198 -0.3595,-0.0133 -0.4794 -0.1332l -1.2651,-1.2651 l -4.2480,4.2480 c -0.3862,0.3862 -0.4528,0.7191 -0.0133 1.1585l 0.4394,0.4394 c 0.0533,0.0533 0.0666,0.1465 0.0000 0.2131l -0.2530,0.2530 l -0.0533,0.0000 c 0.0000,-0.0000 -1.0653,-1.1186 -1.5847 -1.6379c -0.4794,-0.4794 -1.4116,-1.3583 -1.4116 -1.3583l -0.0000,-0.0533 l 0.2530,-0.2530 c 0.0666,-0.0666 0.1465,-0.0666 0.2131 -0.0000l 0.2530,0.2530 c 0.4528,0.4528 0.7724,0.3729 1.1585 -0.0133Z"/></g><g stroke-linejoin="miter" stroke-opacity="0.6" fill-opacity="0.0" stroke="rgb(0,0,0)" stroke-width="2.407694508950487" fill="rgb(0,0,0)" stroke-linecap="butt" stroke-miterlimit="10.0"><path d="M 390.2359,316.6157 v 8.5170 "/></g><g stroke-linejoin="miter" stroke-opacity="1.0" fill-opacity="0.6" stroke="rgb(0,0,0)" fill-rule="evenodd" stroke-width="0.0" fill="rgb(0,0,0)" stroke-linecap="butt" stroke-miterlimit="10.0"><path d="M 347.6507,341.2963 ZM 354.7885,341.9089 l -1.3183,-0.7857 c -1.5314,-0.8123 -2.3171,-0.3729 -2.9163 0.2264c -0.4128,0.4128 -0.8389,1.2384 0.0000 2.0774c 0.3995,0.3995 1.3982,0.6259 2.0374 0.6791l 2.1972,-2.1972 ZM 354.7885,341.9089 ZM 352.2183,346.1835 c -0.5060,-0.5060 -0.3329,-1.2384 -0.0666 -1.6113l -0.5193,-0.0932 c -1.0387,-0.1864 -1.3982,-0.2796 -2.0108 -0.8922c -0.9322,-0.9322 -1.0786,-2.1440 -0.0799 -3.1427c 1.0121,-1.0121 2.5701,-0.8389 4.1548 0.1065l 1.5314,0.9188 c 1.5048,-1.5048 1.0920,-2.4769 0.6392 -2.9297c -0.5060,-0.5060 -1.3183,-0.8656 -1.7312 -0.4528c -0.1465,0.1465 -0.1997,0.2530 -0.2264 0.3063c -0.0266,0.0799 -0.1065,0.1864 -0.1997 0.2796c -0.1731,0.1731 -0.5726,0.3063 -0.9588 -0.0799c -0.3196,-0.3196 -0.3196,-0.7457 -0.0000 -1.0653c 0.7724,-0.7724 2.7033,-0.1997 3.5555 0.6525c 0.9721,0.9721 1.6912,2.4902 -0.1997 4.3812l -1.9575,1.9575 c -0.8123,0.8123 -1.1452,1.1719 -0.8389 1.4781c 0.2930,0.2930 0.7457,-0.0000 1.0520 -0.2796l 0.2663,0.3995 c -1.0520,0.8922 -1.7312,0.7457 -2.4103 0.0666ZM 353.6565,347.3021 ZM 356.3731,348.5539 c -0.0533,0.5859 0.1198,0.9721 0.5327 1.3849c 1.2651,1.2651 3.0761,0.7324 4.5942 -0.7857c 1.3583,-1.3583 1.6379,-3.0229 0.8256 -3.8352c -0.1465,-0.1465 -0.8656,-0.8123 -1.9309 -0.7857l -4.0216,4.0216 ZM 356.3731,348.5539 ZM 362.2724,340.6571 c 0.7590,-0.7590 0.8389,-1.1053 0.5726 -1.3716l -0.4794,-0.3729 c -0.0399,-0.0399 -0.0399,-0.0932 -0.0000 -0.1332l 0.3063,-0.3595 c 0.2131,0.2131 0.7724,0.6126 1.0387 0.7990c 0.2930,0.1864 0.5460,0.3329 0.9322 0.4794l 0.2930,0.2930 l -4.1282,4.1282 c 0.9455,-0.0399 1.7178,0.2530 2.3570 0.8922c 1.1585,1.1585 1.1585,3.3691 -0.4661 4.9937c -2.1173,2.1173 -4.8073,1.8244 -6.1656 0.4661c -0.5726,-0.5726 -0.8389,-1.1585 -0.8922 -1.8776c -0.2796,0.0399 -0.6525,0.0666 -0.9055 0.0799l -0.2131,-0.3462 c 0.3595,-0.2796 0.5726,-0.4927 1.0920 -1.0121l 6.6583,-6.6583 ZM 360.0219,353.6675 ZM 366.3473,357.5692 c -1.5980,0.4261 -2.5967,0.1465 -3.3957 -0.6525c -1.5980,-1.5980 -1.3849,-3.8086 0.3329 -5.5264c 1.8910,-1.8910 4.3013,-1.9309 5.7395 -0.4927c 1.2784,1.2784 1.3050,2.6101 0.5992 3.3158c -0.3862,0.3862 -0.8256,0.3462 -1.1053 0.0666c -0.2796,-0.2796 -0.3995,-0.6925 -0.1065 -1.0653c 0.3862,-0.4927 0.8789,-1.1452 0.0932 -1.9309c -0.8789,-0.8789 -2.4636,-0.5992 -3.9018 0.8389c -1.5580,1.5580 -1.7977,3.4756 -0.7724 4.5010c 0.5726,0.5726 1.4515,0.7058 2.4636 0.5193ZM 365.3885,359.0341 ZM 371.0214,362.2966 l 3.4490,-3.4490 c 0.1864,-0.8256 0.1065,-1.4648 -0.5193 -2.0907c -0.2663,-0.2663 -0.8523,-0.7724 -1.9043 -0.5726c -0.4661,0.0932 -1.2651,0.4394 -2.2239 1.3982c -1.7445,1.7445 -1.6379,3.4490 -0.9188 4.1681c 0.4394,0.4394 1.0653,0.5327 2.1173 0.5460ZM 371.0214,362.2966 ZM 380.1300,355.1856 l -7.6970,7.6970 c -0.3995,0.3995 -0.5859,0.6392 -0.6525 0.7590c -0.0799,0.1598 -0.0133,0.3862 0.0932 0.4927c 0.1598,0.1598 0.4528,0.4528 0.6925 0.6126l -0.3196,0.4261 c -0.9055,-0.6392 -1.7445,-1.1852 -2.2638 -1.2251l -0.3196,-0.3196 l 0.9588,-0.8789 c -1.0254,0.0133 -1.9442,-0.1065 -2.6234 -0.7857c -1.4382,-1.4382 -1.0920,-3.5422 0.5460 -5.1802c 0.9854,-0.9854 2.0774,-1.5447 3.2226 -1.5447c 1.0387,0.0266 1.9176,0.3196 2.7965 1.1985c 0.2663,0.2663 0.7324,0.9721 0.8656 1.4515l 2.0374,-2.0374 c 0.7590,-0.7590 0.8523,-1.0920 0.5859 -1.3583l -0.4927,-0.3862 c -0.0266,-0.0266 -0.0399,-0.0932 -0.0000 -0.1332l 0.3063,-0.3595 c 0.2131,0.2131 0.7724,0.6126 1.0387 0.7990c 0.3063,0.1997 0.5460,0.3329 0.9322 0.4794l 0.2930,0.2930 ZM 371.9669,365.6125 ZM 377.1737,363.4419 l 2.4503,2.4503 c 0.1332,0.1332 0.2530,0.1198 0.3729 -0.0000c 1.2384,-1.2384 0.9322,-2.1839 0.4528 -2.6633c -0.3063,-0.3063 -1.4249,-1.1852 -3.2759 0.2131ZM 377.1737,363.4419 ZM 378.2390,369.4077 l 0.0533,0.4794 c -1.1985,0.1864 -2.4769,-0.1065 -3.4357 -1.0653c -1.8244,-1.8244 -1.2384,-3.9550 0.2131 -5.4066c 2.0241,-2.0241 4.5676,-1.9043 5.8327 -0.6392c 1.7578,1.7578 0.7990,3.5422 -0.3196 4.6608c -0.1465,0.1465 -0.3196,0.1332 -0.4661 -0.0133l -3.5023,-3.5023 c -0.0932,0.0666 -0.1731,0.1465 -0.2796 0.2530c -1.3583,1.3583 -1.4648,3.3558 -0.5060 4.3146c 0.7324,0.7324 1.4382,0.9588 2.4103 0.9188ZM 377.6664,371.3120 ZM 379.8503,371.5783 l 4.2480,-4.2480 l -0.9188,-0.9188 c -0.0533,-0.0533 -0.0533,-0.0799 -0.0000 -0.1332l 0.1864,-0.1864 c 0.1065,-0.1065 0.3329,-0.1997 0.5726 0.0399l 0.6791,0.6791 l 0.5193,-0.5193 c 2.0774,-2.0774 4.1282,-1.9709 5.2468 -0.8523c 0.5060,0.5060 0.7191,0.9854 0.8256 1.5447c 0.0666,0.4661 -0.0399,0.8123 -0.2530 1.0254c -0.2796,0.2796 -0.6791,0.2796 -0.9322 0.0266c -0.2663,-0.2663 -0.2930,-0.5859 -0.1731 -0.9188c 0.2663,-0.6126 0.2264,-1.0786 -0.1731 -1.4781c -0.4394,-0.4394 -1.2651,-0.6259 -3.3158 1.4249l -0.7457,0.7457 l 1.4648,1.4648 c 0.0666,0.0666 0.0799,0.1332 0.0266 0.1864l -0.2663,0.2663 c -0.1198,0.1198 -0.3595,-0.0133 -0.4794 -0.1332l -1.2651,-1.2651 l -4.2480,4.2480 c -0.3862,0.3862 -0.4528,0.7191 -0.0133 1.1585l 0.4394,0.4394 c 0.0533,0.0533 0.0666,0.1465 0.0000 0.2131l -0.2530,0.2530 l -0.0533,0.0000 c 0.0000,-0.0000 -1.0653,-1.1186 -1.5847 -1.6379c -0.4794,-0.4794 -1.4116,-1.3583 -1.4116 -1.3583l -0.0000,-0.0533 l 0.2530,-0.2530 c 0.0666,-0.0666 0.1465,-0.0666 0.2131 -0.0000l 0.2530,0.2530 c 0.4528,0.4528 0.7724,0.3729 1.1585 -0.0133Z"/></g><g stroke-linejoin="miter" stroke-opacity="0.6" fill-opacity="0.0" stroke="rgb(0,0,0)" stroke-width="2.407694508950487" fill="rgb(0,0,0)" stroke-linecap="butt" stroke-miterlimit="10.0"><path d="M 347.6507,316.6157 v 8.5170 "/></g><g stroke-linejoin="miter" stroke-opacity="1.0" fill-opacity="0.6" stroke="rgb(0,0,0)" fill-rule="evenodd" stroke-width="0.0" fill="rgb(0,0,0)" stroke-linecap="butt" stroke-miterlimit="10.0"><path d="M 305.0656,341.2963 ZM 312.2033,341.9089 l -1.3183,-0.7857 c -1.5314,-0.8123 -2.3171,-0.3729 -2.9163 0.2264c -0.4128,0.4128 -0.8389,1.2384 0.0000 2.0774c 0.3995,0.3995 1.3982,0.6259 2.0374 0.6791l 2.1972,-2.1972 ZM 312.2033,341.9089 ZM 309.6332,346.1835 c -0.5060,-0.5060 -0.3329,-1.2384 -0.0666 -1.6113l -0.5193,-0.0932 c -1.0387,-0.1864 -1.3982,-0.2796 -2.0108 -0.8922c -0.9322,-0.9322 -1.0786,-2.1440 -0.0799 -3.1427c 1.0121,-1.0121 2.5701,-0.8389 4.1548 0.1065l 1.5314,0.9188 c 1.5048,-1.5048 1.0920,-2.4769 0.6392 -2.9297c -0.5060,-0.5060 -1.3183,-0.8656 -1.7312 -0.4528c -0.1465,0.1465 -0.1997,0.2530 -0.2264 0.3063c -0.0266,0.0799 -0.1065,0.1864 -0.1997 0.2796c -0.1731,0.1731 -0.5726,0.3063 -0.9588 -0.0799c -0.3196,-0.3196 -0.3196,-0.7457 -0.0000 -1.0653c 0.7724,-0.7724 2.7033,-0.1997 3.5555 0.6525c 0.9721,0.9721 1.6912,2.4902 -0.1997 4.3812l -1.9575,1.9575 c -0.8123,0.8123 -1.1452,1.1719 -0.8389 1.4781c 0.2930,0.2930 0.7457,-0.0000 1.0520 -0.2796l 0.2663,0.3995 c -1.0520,0.8922 -1.7312,0.7457 -2.4103 0.0666ZM 311.0714,347.3021 ZM 313.7880,348.5539 c -0.0533,0.5859 0.1198,0.9721 0.5327 1.3849c 1.2651,1.2651 3.0761,0.7324 4.5942 -0.7857c 1.3583,-1.3583 1.6379,-3.0229 0.8256 -3.8352c -0.1465,-0.1465 -0.8656,-0.8123 -1.9309 -0.7857l -4.0216,4.0216 ZM 313.7880,348.5539 ZM 319.6873,340.6571 c 0.7590,-0.7590 0.8389,-1.1053 0.5726 -1.3716l -0.4794,-0.3729 c -0.0399,-0.0399 -0.0399,-0.0932 -0.0000 -0.1332l 0.3063,-0.3595 c 0.2131,0.2131 0.7724,0.6126 1.0387 0.7990c 0.2930,0.1864 0.5460,0.3329 0.9322 0.4794l 0.2930,0.2930 l -4.1282,4.1282 c 0.9455,-0.0399 1.7178,0.2530 2.3570 0.8922c 1.1585,1.1585 1.1585,3.3691 -0.4661 4.9937c -2.1173,2.1173 -4.8073,1.8244 -6.1656 0.4661c -0.5726,-0.5726 -0.8389,-1.1585 -0.8922 -1.8776c -0.2796,0.0399 -0.6525,0.0666 -0.9055 0.0799l -0.2131,-0.3462 c 0.3595,-0.2796 0.5726,-0.4927 1.0920 -1.0121l 6.6583,-6.6583 ZM 317.4368,353.6675 ZM 323.7622,357.5692 c -1.5980,0.4261 -2.5967,0.1465 -3.3957 -0.6525c -1.5980,-1.5980 -1.3849,-3.8086 0.3329 -5.5264c 1.8910,-1.8910 4.3013,-1.9309 5.7395 -0.4927c 1.2784,1.2784 1.3050,2.6101 0.5992 3.3158c -0.3862,0.3862 -0.8256,0.3462 -1.1053 0.0666c -0.2796,-0.2796 -0.3995,-0.6925 -0.1065 -1.0653c 0.3862,-0.4927 0.8789,-1.1452 0.0932 -1.9309c -0.8789,-0.8789 -2.4636,-0.5992 -3.9018 0.8389c -1.5580,1.5580 -1.7977,3.4756 -0.7724 4.5010c 0.5726,0.5726 1.4515,0.7058 2.4636 0.5193ZM 322.8034,359.0341 ZM 328.4363,362.2966 l 3.4490,-3.4490 c 0.1864,-0.8256 0.1065,-1.4648 -0.5193 -2.0907c -0.2663,-0.2663 -0.8523,-0.7724 -1.9043 -0.5726c -0.4661,0.0932 -1.2651,0.4394 -2.2239 1.3982c -1.7445,1.7445 -1.6379,3.4490 -0.9188 4.1681c 0.4394,0.4394 1.0653,0.5327 2.1173 0.5460ZM 328.4363,362.2966 ZM 337.5449,355.1856 l -7.6970,7.6970 c -0.3995,0.3995 -0.5859,0.6392 -0.6525 0.7590c -0.0799,0.1598 -0.0133,0.3862 0.0932 0.4927c 0.1598,0.1598 0.4528,0.4528 0.6925 0.6126l -0.3196,0.4261 c -0.9055,-0.6392 -1.7445,-1.1852 -2.2638 -1.2251l -0.3196,-0.3196 l 0.9588,-0.8789 c -1.0254,0.0133 -1.9442,-0.1065 -2.6234 -0.7857c -1.4382,-1.4382 -1.0920,-3.5422 0.5460 -5.1802c 0.9854,-0.9854 2.0774,-1.5447 3.2226 -1.5447c 1.0387,0.0266 1.9176,0.3196 2.7965 1.1985c 0.2663,0.2663 0.7324,0.9721 0.8656 1.4515l 2.0374,-2.0374 c 0.7590,-0.7590 0.8523,-1.0920 0.5859 -1.3583l -0.4927,-0.3862 c -0.0266,-0.0266 -0.0399,-0.0932 -0.0000 -0.1332l 0.3063,-0.3595 c 0.2131,0.2131 0.7724,0.6126 1.0387 0.7990c 0.3063,0.1997 0.5460,0.3329 0.9322 0.4794l 0.2930,0.2930 ZM 329.3818,365.6125 ZM 334.5886,363.4419 l 2.4503,2.4503 c 0.1332,0.1332 0.2530,0.1198 0.3729 -0.0000c 1.2384,-1.2384 0.9322,-2.1839 0.4528 -2.6633c -0.3063,-0.3063 -1.4249,-1.1852 -3.2759 0.2131ZM 334.5886,363.4419 ZM 335.6539,369.4077 l 0.0533,0.4794 c -1.1985,0.1864 -2.4769,-0.1065 -3.4357 -1.0653c -1.8244,-1.8244 -1.2384,-3.9550 0.2131 -5.4066c 2.0241,-2.0241 4.5676,-1.9043 5.8327 -0.6392c 1.7578,1.7578 0.7990,3.5422 -0.3196 4.6608c -0.1465,0.1465 -0.3196,0.1332 -0.4661 -0.0133l -3.5023,-3.5023 c -0.0932,0.0666 -0.1731,0.1465 -0.2796 0.2530c -1.3583,1.3583 -1.4648,3.3558 -0.5060 4.3146c 0.7324,0.7324 1.4382,0.9588 2.4103 0.9188ZM 335.0813,371.3120 ZM 337.2652,371.5783 l 4.2480,-4.2480 l -0.9188,-0.9188 c -0.0533,-0.0533 -0.0533,-0.0799 -0.0000 -0.1332l 0.1864,-0.1864 c 0.1065,-0.1065 0.3329,-0.1997 0.5726 0.0399l 0.6791,0.6791 l 0.5193,-0.5193 c 2.0774,-2.0774 4.1282,-1.9709 5.2468 -0.8523c 0.5060,0.5060 0.7191,0.9854 0.8256 1.5447c 0.0666,0.4661 -0.0399,0.8123 -0.2530 1.0254c -0.2796,0.2796 -0.6791,0.2796 -0.9322 0.0266c -0.2663,-0.2663 -0.2930,-0.5859 -0.1731 -0.9188c 0.2663,-0.6126 0.2264,-1.0786 -0.1731 -1.4781c -0.4394,-0.4394 -1.2651,-0.6259 -3.3158 1.4249l -0.7457,0.7457 l 1.4648,1.4648 c 0.0666,0.0666 0.0799,0.1332 0.0266 0.1864l -0.2663,0.2663 c -0.1198,0.1198 -0.3595,-0.0133 -0.4794 -0.1332l -1.2651,-1.2651 l -4.2480,4.2480 c -0.3862,0.3862 -0.4528,0.7191 -0.0133 1.1585l 0.4394,0.4394 c 0.0533,0.0533 0.0666,0.1465 0.0000 0.2131l -0.2530,0.2530 l -0.0533,0.0000 c 0.0000,-0.0000 -1.0653,-1.1186 -1.5847 -1.6379c -0.4794,-0.4794 -1.4116,-1.3583 -1.4116 -1.3583l -0.0000,-0.0533 l 0.2530,-0.2530 c 0.0666,-0.0666 0.1465,-0.0666 0.2131 -0.0000l 0.2530,0.2530 c 0.4528,0.4528 0.7724,0.3729 1.1585 -0.0133Z"/></g><g stroke-linejoin="miter" stroke-opacity="0.6" fill-opacity="0.0" stroke="rgb(0,0,0)" stroke-width="2.407694508950487" fill="rgb(0,0,0)" stroke-linecap="butt" stroke-miterlimit="10.0"><path d="M 305.0656,316.6157 v 8.5170 "/></g><g stroke-linejoin="miter" stroke-opacity="1.0" fill-opacity="0.6" stroke="rgb(0,0,0)" fill-rule="evenodd" stroke-width="0.0" fill="rgb(0,0,0)" stroke-linecap="butt" stroke-miterlimit="10.0"><path d="M 262.4805,341.2963 ZM 269.6182,341.9089 l -1.3183,-0.7857 c -1.5314,-0.8123 -2.3171,-0.3729 -2.9163 0.2264c -0.4128,0.4128 -0.8389,1.2384 0.0000 2.0774c 0.3995,0.3995 1.3982,0.6259 2.0374 0.6791l 2.1972,-2.1972 ZM 269.6182,341.9089 ZM 267.0481,346.1835 c -0.5060,-0.5060 -0.3329,-1.2384 -0.0666 -1.6113l -0.5193,-0.0932 c -1.0387,-0.1864 -1.3982,-0.2796 -2.0108 -0.8922c -0.9322,-0.9322 -1.0786,-2.1440 -0.0799 -3.1427c 1.0121,-1.0121 2.5701,-0.8389 4.1548 0.1065l 1.5314,0.9188 c 1.5048,-1.5048 1.0920,-2.4769 0.6392 -2.9297c -0.5060,-0.5060 -1.3183,-0.8656 -1.7312 -0.4528c -0.1465,0.1465 -0.1997,0.2530 -0.2264 0.3063c -0.0266,0.0799 -0.1065,0.1864 -0.1997 0.2796c -0.1731,0.1731 -0.5726,0.3063 -0.9588 -0.0799c -0.3196,-0.3196 -0.3196,-0.7457 -0.0000 -1.0653c 0.7724,-0.7724 2.7033,-0.1997 3.5555 0.6525c 0.9721,0.9721 1.6912,2.4902 -0.1997 4.3812l -1.9575,1.9575 c -0.8123,0.8123 -1.1452,1.1719 -0.8389 1.4781c 0.2930,0.2930 0.7457,-0.0000 1.0520 -0.2796l 0.2663,0.3995 c -1.0520,0.8922 -1.7312,0.7457 -2.4103 0.0666ZM 268.4863,347.3021 ZM 271.2029,348.5539 c -0.0533,0.5859 0.1198,0.9721 0.5327 1.3849c 1.2651,1.2651 3.0761,0.7324 4.5942 -0.7857c 1.3583,-1.3583 1.6379,-3.0229 0.8256 -3.8352c -0.1465,-0.1465 -0.8656,-0.8123 -1.9309 -0.7857l -4.0216,4.0216 ZM 271.2029,348.5539 ZM 277.1022,340.6571 c 0.7590,-0.7590 0.8389,-1.1053 0.5726 -1.3716l -0.4794,-0.3729 c -0.0399,-0.0399 -0.0399,-0.0932 -0.0000 -0.1332l 0.3063,-0.3595 c 0.2131,0.2131 0.7724,0.6126 1.0387 0.7990c 0.2930,0.1864 0.5460,0.3329 0.9322 0.4794l 0.2930,0.2930 l -4.1282,4.1282 c 0.9455,-0.0399 1.7178,0.2530 2.3570 0.8922c 1.1585,1.1585 1.1585,3.3691 -0.4661 4.9937c -2.1173,2.1173 -4.8073,1.8244 -6.1656 0.4661c -0.5726,-0.5726 -0.8389,-1.1585 -0.8922 -1.8776c -0.2796,0.0399 -0.6525,0.0666 -0.9055 0.0799l -0.2131,-0.3462 c 0.3595,-0.2796 0.5726,-0.4927 1.0920 -1.0121l 6.6583,-6.6583 ZM 274.8517,353.6675 ZM 281.1771,357.5692 c -1.5980,0.4261 -2.5967,0.1465 -3.3957 -0.6525c -1.5980,-1.5980 -1.3849,-3.8086 0.3329 -5.5264c 1.8910,-1.8910 4.3013,-1.9309 5.7395 -0.4927c 1.2784,1.2784 1.3050,2.6101 0.5992 3.3158c -0.3862,0.3862 -0.8256,0.3462 -1.1053 0.0666c -0.2796,-0.2796 -0.3995,-0.6925 -0.1065 -1.0653c 0.3862,-0.4927 0.8789,-1.1452 0.0932 -1.9309c -0.8789,-0.8789 -2.4636,-0.5992 -3.9018 0.8389c -1.5580,1.5580 -1.7977,3.4756 -0.7724 4.5010c 0.5726,0.5726 1.4515,0.7058 2.4636 0.5193ZM 280.2183,359.0341 ZM 285.8512,362.2966 l 3.4490,-3.4490 c 0.1864,-0.8256 0.1065,-1.4648 -0.5193 -2.0907c -0.2663,-0.2663 -0.8523,-0.7724 -1.9043 -0.5726c -0.4661,0.0932 -1.2651,0.4394 -2.2239 1.3982c -1.7445,1.7445 -1.6379,3.4490 -0.9188 4.1681c 0.4394,0.4394 1.0653,0.5327 2.1173 0.5460ZM 285.8512,362.2966 ZM 294.9598,355.1856 l -7.6970,7.6970 c -0.3995,0.3995 -0.5859,0.6392 -0.6525 0.7590c -0.0799,0.1598 -0.0133,0.3862 0.0932 0.4927c 0.1598,0.1598 0.4528,0.4528 0.6925 0.6126l -0.3196,0.4261 c -0.9055,-0.6392 -1.7445,-1.1852 -2.2638 -1.2251l -0.3196,-0.3196 l 0.9588,-0.8789 c -1.0254,0.0133 -1.9442,-0.1065 -2.6234 -0.7857c -1.4382,-1.4382 -1.0920,-3.5422 0.5460 -5.1802c 0.9854,-0.9854 2.0774,-1.5447 3.2226 -1.5447c 1.0387,0.0266 1.9176,0.3196 2.7965 1.1985c 0.2663,0.2663 0.7324,0.9721 0.8656 1.4515l 2.0374,-2.0374 c 0.7590,-0.7590 0.8523,-1.0920 0.5859 -1.3583l -0.4927,-0.3862 c -0.0266,-0.0266 -0.0399,-0.0932 -0.0000 -0.1332l 0.3063,-0.3595 c 0.2131,0.2131 0.7724,0.6126 1.0387 0.7990c 0.3063,0.1997 0.5460,0.3329 0.9322 0.4794l 0.2930,0.2930 ZM 286.7967,365.6125 ZM 292.0035,363.4419 l 2.4503,2.4503 c 0.1332,0.1332 0.2530,0.1198 0.3729 -0.0000c 1.2384,-1.2384 0.9322,-2.1839 0.4528 -2.6633c -0.3063,-0.3063 -1.4249,-1.1852 -3.2759 0.2131ZM 292.0035,363.4419 ZM 293.0688,369.4077 l 0.0533,0.4794 c -1.1985,0.1864 -2.4769,-0.1065 -3.4357 -1.0653c -1.8244,-1.8244 -1.2384,-3.9550 0.2131 -5.4066c 2.0241,-2.0241 4.5676,-1.9043 5.8327 -0.6392c 1.7578,1.7578 0.7990,3.5422 -0.3196 4.6608c -0.1465,0.1465 -0.3196,0.1332 -0.4661 -0.0133l -3.5023,-3.5023 c -0.0932,0.0666 -0.1731,0.1465 -0.2796 0.2530c -1.3583,1.3583 -1.4648,3.3558 -0.5060 4.3146c 0.7324,0.7324 1.4382,0.9588 2.4103 0.9188ZM 292.4962,371.3120 ZM 294.6801,371.5783 l 4.2480,-4.2480 l -0.9188,-0.9188 c -0.0533,-0.0533 -0.0533,-0.0799 -0.0000 -0.1332l 0.1864,-0.1864 c 0.1065,-0.1065 0.3329,-0.1997 0.5726 0.0399l 0.6791,0.6791 l 0.5193,-0.5193 c 2.0774,-2.0774 4.1282,-1.9709 5.2468 -0.8523c 0.5060,0.5060 0.7191,0.9854 0.8256 1.5447c 0.0666,0.4661 -0.0399,0.8123 -0.2530 1.0254c -0.2796,0.2796 -0.6791,0.2796 -0.9322 0.0266c -0.2663,-0.2663 -0.2930,-0.5859 -0.1731 -0.9188c 0.2663,-0.6126 0.2264,-1.0786 -0.1731 -1.4781c -0.4394,-0.4394 -1.2651,-0.6259 -3.3158 1.4249l -0.7457,0.7457 l 1.4648,1.4648 c 0.0666,0.0666 0.0799,0.1332 0.0266 0.1864l -0.2663,0.2663 c -0.1198,0.1198 -0.3595,-0.0133 -0.4794 -0.1332l -1.2651,-1.2651 l -4.2480,4.2480 c -0.3862,0.3862 -0.4528,0.7191 -0.0133 1.1585l 0.4394,0.4394 c 0.0533,0.0533 0.0666,0.1465 0.0000 0.2131l -0.2530,0.2530 l -0.0533,0.0000 c 0.0000,-0.0000 -1.0653,-1.1186 -1.5847 -1.6379c -0.4794,-0.4794 -1.4116,-1.3583 -1.4116 -1.3583l -0.0000,-0.0533 l 0.2530,-0.2530 c 0.0666,-0.0666 0.1465,-0.0666 0.2131 -0.0000l 0.2530,0.2530 c 0.4528,0.4528 0.7724,0.3729 1.1585 -0.0133Z"/></g><g stroke-linejoin="miter" stroke-opacity="0.6" fill-opacity="0.0" stroke="rgb(0,0,0)" stroke-width="2.407694508950487" fill="rgb(0,0,0)" stroke-linecap="butt" stroke-miterlimit="10.0"><path d="M 262.4805,316.6157 v 8.5170 "/></g><g stroke-linejoin="miter" stroke-opacity="1.0" fill-opacity="0.6" stroke="rgb(0,0,0)" fill-rule="evenodd" stroke-width="0.0" fill="rgb(0,0,0)" stroke-linecap="butt" stroke-miterlimit="10.0"><path d="M 219.8954,341.2963 ZM 227.0331,341.9089 l -1.3183,-0.7857 c -1.5314,-0.8123 -2.3171,-0.3729 -2.9163 0.2264c -0.4128,0.4128 -0.8389,1.2384 0.0000 2.0774c 0.3995,0.3995 1.3982,0.6259 2.0374 0.6791l 2.1972,-2.1972 ZM 227.0331,341.9089 ZM 224.4630,346.1835 c -0.5060,-0.5060 -0.3329,-1.2384 -0.0666 -1.6113l -0.5193,-0.0932 c -1.0387,-0.1864 -1.3982,-0.2796 -2.0108 -0.8922c -0.9322,-0.9322 -1.0786,-2.1440 -0.0799 -3.1427c 1.0121,-1.0121 2.5701,-0.8389 4.1548 0.1065l 1.5314,0.9188 c 1.5048,-1.5048 1.0920,-2.4769 0.6392 -2.9297c -0.5060,-0.5060 -1.3183,-0.8656 -1.7312 -0.4528c -0.1465,0.1465 -0.1997,0.2530 -0.2264 0.3063c -0.0266,0.0799 -0.1065,0.1864 -0.1997 0.2796c -0.1731,0.1731 -0.5726,0.3063 -0.9588 -0.0799c -0.3196,-0.3196 -0.3196,-0.7457 -0.0000 -1.0653c 0.7724,-0.7724 2.7033,-0.1997 3.5555 0.6525c 0.9721,0.9721 1.6912,2.4902 -0.1997 4.3812l -1.9575,1.9575 c -0.8123,0.8123 -1.1452,1.1719 -0.8389 1.4781c 0.2930,0.2930 0.7457,-0.0000 1.0520 -0.2796l 0.2663,0.3995 c -1.0520,0.8922 -1.7312,0.7457 -2.4103 0.0666ZM 225.9012,347.3021 ZM 228.6178,348.5539 c -0.0533,0.5859 0.1198,0.9721 0.5327 1.3849c 1.2651,1.2651 3.0761,0.7324 4.5942 -0.7857c 1.3583,-1.3583 1.6379,-3.0229 0.8256 -3.8352c -0.1465,-0.1465 -0.8656,-0.8123 -1.9309 -0.7857l -4.0216,4.0216 ZM 228.6178,348.5539 ZM 234.5171,340.6571 c 0.7590,-0.7590 0.8389,-1.1053 0.5726 -1.3716l -0.4794,-0.3729 c -0.0399,-0.0399 -0.0399,-0.0932 -0.0000 -0.1332l 0.3063,-0.3595 c 0.2131,0.2131 0.7724,0.6126 1.0387 0.7990c 0.2930,0.1864 0.5460,0.3329 0.9322 0.4794l 0.2930,0.2930 l -4.1282,4.1282 c 0.9455,-0.0399 1.7178,0.2530 2.3570 0.8922c 1.1585,1.1585 1.1585,3.3691 -0.4661 4.9937c -2.1173,2.1173 -4.8073,1.8244 -6.1656 0.4661c -0.5726,-0.5726 -0.8389,-1.1585 -0.8922 -1.8776c -0.2796,0.0399 -0.6525,0.0666 -0.9055 0.0799l -0.2131,-0.3462 c 0.3595,-0.2796 0.5726,-0.4927 1.0920 -1.0121l 6.6583,-6.6583 ZM 232.2666,353.6675 ZM 238.5920,357.5692 c -1.5980,0.4261 -2.5967,0.1465 -3.3957 -0.6525c -1.5980,-1.5980 -1.3849,-3.8086 0.3329 -5.5264c 1.8910,-1.8910 4.3013,-1.9309 5.7395 -0.4927c 1.2784,1.2784 1.3050,2.6101 0.5992 3.3158c -0.3862,0.3862 -0.8256,0.3462 -1.1053 0.0666c -0.2796,-0.2796 -0.3995,-0.6925 -0.1065 -1.0653c 0.3862,-0.4927 0.8789,-1.1452 0.0932 -1.9309c -0.8789,-0.8789 -2.4636,-0.5992 -3.9018 0.8389c -1.5580,1.5580 -1.7977,3.4756 -0.7724 4.5010c 0.5726,0.5726 1.4515,0.7058 2.4636 0.5193ZM 237.6332,359.0341 ZM 243.2661,362.2966 l 3.4490,-3.4490 c 0.1864,-0.8256 0.1065,-1.4648 -0.5193 -2.0907c -0.2663,-0.2663 -0.8523,-0.7724 -1.9043 -0.5726c -0.4661,0.0932 -1.2651,0.4394 -2.2239 1.3982c -1.7445,1.7445 -1.6379,3.4490 -0.9188 4.1681c 0.4394,0.4394 1.0653,0.5327 2.1173 0.5460ZM 243.2661,362.2966 ZM 252.3747,355.1856 l -7.6970,7.6970 c -0.3995,0.3995 -0.5859,0.6392 -0.6525 0.7590c -0.0799,0.1598 -0.0133,0.3862 0.0932 0.4927c 0.1598,0.1598 0.4528,0.4528 0.6925 0.6126l -0.3196,0.4261 c -0.9055,-0.6392 -1.7445,-1.1852 -2.2638 -1.2251l -0.3196,-0.3196 l 0.9588,-0.8789 c -1.0254,0.0133 -1.9442,-0.1065 -2.6234 -0.7857c -1.4382,-1.4382 -1.0920,-3.5422 0.5460 -5.1802c 0.9854,-0.9854 2.0774,-1.5447 3.2226 -1.5447c 1.0387,0.0266 1.9176,0.3196 2.7965 1.1985c 0.2663,0.2663 0.7324,0.9721 0.8656 1.4515l 2.0374,-2.0374 c 0.7590,-0.7590 0.8523,-1.0920 0.5859 -1.3583l -0.4927,-0.3862 c -0.0266,-0.0266 -0.0399,-0.0932 -0.0000 -0.1332l 0.3063,-0.3595 c 0.2131,0.2131 0.7724,0.6126 1.0387 0.7990c 0.3063,0.1997 0.5460,0.3329 0.9322 0.4794l 0.2930,0.2930 ZM 244.2116,365.6125 ZM 249.4184,363.4419 l 2.4503,2.4503 c 0.1332,0.1332 0.2530,0.1198 0.3729 -0.0000c 1.2384,-1.2384 0.9322,-2.1839 0.4528 -2.6633c -0.3063,-0.3063 -1.4249,-1.1852 -3.2759 0.2131ZM 249.4184,363.4419 ZM 250.4837,369.4077 l 0.0533,0.4794 c -1.1985,0.1864 -2.4769,-0.1065 -3.4357 -1.0653c -1.8244,-1.8244 -1.2384,-3.9550 0.2131 -5.4066c 2.0241,-2.0241 4.5676,-1.9043 5.8327 -0.6392c 1.7578,1.7578 0.7990,3.5422 -0.3196 4.6608c -0.1465,0.1465 -0.3196,0.1332 -0.4661 -0.0133l -3.5023,-3.5023 c -0.0932,0.0666 -0.1731,0.1465 -0.2796 0.2530c -1.3583,1.3583 -1.4648,3.3558 -0.5060 4.3146c 0.7324,0.7324 1.4382,0.9588 2.4103 0.9188ZM 249.9111,371.3120 ZM 252.0950,371.5783 l 4.2480,-4.2480 l -0.9188,-0.9188 c -0.0533,-0.0533 -0.0533,-0.0799 -0.0000 -0.1332l 0.1864,-0.1864 c 0.1065,-0.1065 0.3329,-0.1997 0.5726 0.0399l 0.6791,0.6791 l 0.5193,-0.5193 c 2.0774,-2.0774 4.1282,-1.9709 5.2468 -0.8523c 0.5060,0.5060 0.7191,0.9854 0.8256 1.5447c 0.0666,0.4661 -0.0399,0.8123 -0.2530 1.0254c -0.2796,0.2796 -0.6791,0.2796 -0.9322 0.0266c -0.2663,-0.2663 -0.2930,-0.5859 -0.1731 -0.9188c 0.2663,-0.6126 0.2264,-1.0786 -0.1731 -1.4781c -0.4394,-0.4394 -1.2651,-0.6259 -3.3158 1.4249l -0.7457,0.7457 l 1.4648,1.4648 c 0.0666,0.0666 0.0799,0.1332 0.0266 0.1864l -0.2663,0.2663 c -0.1198,0.1198 -0.3595,-0.0133 -0.4794 -0.1332l -1.2651,-1.2651 l -4.2480,4.2480 c -0.3862,0.3862 -0.4528,0.7191 -0.0133 1.1585l 0.4394,0.4394 c 0.0533,0.0533 0.0666,0.1465 0.0000 0.2131l -0.2530,0.2530 l -0.0533,0.0000 c 0.0000,-0.0000 -1.0653,-1.1186 -1.5847 -1.6379c -0.4794,-0.4794 -1.4116,-1.3583 -1.4116 -1.3583l -0.0000,-0.0533 l 0.2530,-0.2530 c 0.0666,-0.0666 0.1465,-0.0666 0.2131 -0.0000l 0.2530,0.2530 c 0.4528,0.4528 0.7724,0.3729 1.1585 -0.0133Z"/></g><g stroke-linejoin="miter" stroke-opacity="0.6" fill-opacity="0.0" stroke="rgb(0,0,0)" stroke-width="2.407694508950487" fill="rgb(0,0,0)" stroke-linecap="butt" stroke-miterlimit="10.0"><path d="M 219.8954,316.6157 v 8.5170 "/></g><g stroke-linejoin="miter" stroke-opacity="1.0" fill-opacity="0.6" stroke="rgb(0,0,0)" fill-rule="evenodd" stroke-width="0.0" fill="rgb(0,0,0)" stroke-linecap="butt" stroke-miterlimit="10.0"><path d="M 177.3103,341.2963 ZM 184.4480,341.9089 l -1.3183,-0.7857 c -1.5314,-0.8123 -2.3171,-0.3729 -2.9163 0.2264c -0.4128,0.4128 -0.8389,1.2384 0.0000 2.0774c 0.3995,0.3995 1.3982,0.6259 2.0374 0.6791l 2.1972,-2.1972 ZM 184.4480,341.9089 ZM 181.8779,346.1835 c -0.5060,-0.5060 -0.3329,-1.2384 -0.0666 -1.6113l -0.5193,-0.0932 c -1.0387,-0.1864 -1.3982,-0.2796 -2.0108 -0.8922c -0.9322,-0.9322 -1.0786,-2.1440 -0.0799 -3.1427c 1.0121,-1.0121 2.5701,-0.8389 4.1548 0.1065l 1.5314,0.9188 c 1.5048,-1.5048 1.0920,-2.4769 0.6392 -2.9297c -0.5060,-0.5060 -1.3183,-0.8656 -1.7312 -0.4528c -0.1465,0.1465 -0.1997,0.2530 -0.2264 0.3063c -0.0266,0.0799 -0.1065,0.1864 -0.1997 0.2796c -0.1731,0.1731 -0.5726,0.3063 -0.9588 -0.0799c -0.3196,-0.3196 -0.3196,-0.7457 -0.0000 -1.0653c 0.7724,-0.7724 2.7033,-0.1997 3.5555 0.6525c 0.9721,0.9721 1.6912,2.4902 -0.1997 4.3812l -1.9575,1.9575 c -0.8123,0.8123 -1.1452,1.1719 -0.8389 1.4781c 0.2930,0.2930 0.7457,-0.0000 1.0520 -0.2796l 0.2663,0.3995 c -1.0520,0.8922 -1.7312,0.7457 -2.4103 0.0666ZM 183.3161,347.3021 ZM 186.0327,348.5539 c -0.0533,0.5859 0.1198,0.9721 0.5327 1.3849c 1.2651,1.2651 3.0761,0.7324 4.5942 -0.7857c 1.3583,-1.3583 1.6379,-3.0229 0.8256 -3.8352c -0.1465,-0.1465 -0.8656,-0.8123 -1.9309 -0.7857l -4.0216,4.0216 ZM 186.0327,348.5539 ZM 191.9320,340.6571 c 0.7590,-0.7590 0.8389,-1.1053 0.5726 -1.3716l -0.4794,-0.3729 c -0.0399,-0.0399 -0.0399,-0.0932 -0.0000 -0.1332l 0.3063,-0.3595 c 0.2131,0.2131 0.7724,0.6126 1.0387 0.7990c 0.2930,0.1864 0.5460,0.3329 0.9322 0.4794l 0.2930,0.2930 l -4.1282,4.1282 c 0.9455,-0.0399 1.7178,0.2530 2.3570 0.8922c 1.1585,1.1585 1.1585,3.3691 -0.4661 4.9937c -2.1173,2.1173 -4.8073,1.8244 -6.1656 0.4661c -0.5726,-0.5726 -0.8389,-1.1585 -0.8922 -1.8776c -0.2796,0.0399 -0.6525,0.0666 -0.9055 0.0799l -0.2131,-0.3462 c 0.3595,-0.2796 0.5726,-0.4927 1.0920 -1.0121l 6.6583,-6.6583 ZM 189.6814,353.6675 ZM 196.0068,357.5692 c -1.5980,0.4261 -2.5967,0.1465 -3.3957 -0.6525c -1.5980,-1.5980 -1.3849,-3.8086 0.3329 -5.5264c 1.8910,-1.8910 4.3013,-1.9309 5.7395 -0.4927c 1.2784,1.2784 1.3050,2.6101 0.5992 3.3158c -0.3862,0.3862 -0.8256,0.3462 -1.1053 0.0666c -0.2796,-0.2796 -0.3995,-0.6925 -0.1065 -1.0653c 0.3862,-0.4927 0.8789,-1.1452 0.0932 -1.9309c -0.8789,-0.8789 -2.4636,-0.5992 -3.9018 0.8389c -1.5580,1.5580 -1.7977,3.4756 -0.7724 4.5010c 0.5726,0.5726 1.4515,0.7058 2.4636 0.5193ZM 195.0480,359.0341 ZM 200.6810,362.2966 l 3.4490,-3.4490 c 0.1864,-0.8256 0.1065,-1.4648 -0.5193 -2.0907c -0.2663,-0.2663 -0.8523,-0.7724 -1.9043 -0.5726c -0.4661,0.0932 -1.2651,0.4394 -2.2239 1.3982c -1.7445,1.7445 -1.6379,3.4490 -0.9188 4.1681c 0.4394,0.4394 1.0653,0.5327 2.1173 0.5460ZM 200.6810,362.2966 ZM 209.7895,355.1856 l -7.6970,7.6970 c -0.3995,0.3995 -0.5859,0.6392 -0.6525 0.7590c -0.0799,0.1598 -0.0133,0.3862 0.0932 0.4927c 0.1598,0.1598 0.4528,0.4528 0.6925 0.6126l -0.3196,0.4261 c -0.9055,-0.6392 -1.7445,-1.1852 -2.2638 -1.2251l -0.3196,-0.3196 l 0.9588,-0.8789 c -1.0254,0.0133 -1.9442,-0.1065 -2.6234 -0.7857c -1.4382,-1.4382 -1.0920,-3.5422 0.5460 -5.1802c 0.9854,-0.9854 2.0774,-1.5447 3.2226 -1.5447c 1.0387,0.0266 1.9176,0.3196 2.7965 1.1985c 0.2663,0.2663 0.7324,0.9721 0.8656 1.4515l 2.0374,-2.0374 c 0.7590,-0.7590 0.8523,-1.0920 0.5859 -1.3583l -0.4927,-0.3862 c -0.0266,-0.0266 -0.0399,-0.0932 -0.0000 -0.1332l 0.3063,-0.3595 c 0.2131,0.2131 0.7724,0.6126 1.0387 0.7990c 0.3063,0.1997 0.5460,0.3329 0.9322 0.4794l 0.2930,0.2930 ZM 201.6265,365.6125 ZM 206.8333,363.4419 l 2.4503,2.4503 c 0.1332,0.1332 0.2530,0.1198 0.3729 -0.0000c 1.2384,-1.2384 0.9322,-2.1839 0.4528 -2.6633c -0.3063,-0.3063 -1.4249,-1.1852 -3.2759 0.2131ZM 206.8333,363.4419 ZM 207.8986,369.4077 l 0.0533,0.4794 c -1.1985,0.1864 -2.4769,-0.1065 -3.4357 -1.0653c -1.8244,-1.8244 -1.2384,-3.9550 0.2131 -5.4066c 2.0241,-2.0241 4.5676,-1.9043 5.8327 -0.6392c 1.7578,1.7578 0.7990,3.5422 -0.3196 4.6608c -0.1465,0.1465 -0.3196,0.1332 -0.4661 -0.0133l -3.5023,-3.5023 c -0.0932,0.0666 -0.1731,0.1465 -0.2796 0.2530c -1.3583,1.3583 -1.4648,3.3558 -0.5060 4.3146c 0.7324,0.7324 1.4382,0.9588 2.4103 0.9188ZM 207.3260,371.3120 ZM 209.5099,371.5783 l 4.2480,-4.2480 l -0.9188,-0.9188 c -0.0533,-0.0533 -0.0533,-0.0799 -0.0000 -0.1332l 0.1864,-0.1864 c 0.1065,-0.1065 0.3329,-0.1997 0.5726 0.0399l 0.6791,0.6791 l 0.5193,-0.5193 c 2.0774,-2.0774 4.1282,-1.9709 5.2468 -0.8523c 0.5060,0.5060 0.7191,0.9854 0.8256 1.5447c 0.0666,0.4661 -0.0399,0.8123 -0.2530 1.0254c -0.2796,0.2796 -0.6791,0.2796 -0.9322 0.0266c -0.2663,-0.2663 -0.2930,-0.5859 -0.1731 -0.9188c 0.2663,-0.6126 0.2264,-1.0786 -0.1731 -1.4781c -0.4394,-0.4394 -1.2651,-0.6259 -3.3158 1.4249l -0.7457,0.7457 l 1.4648,1.4648 c 0.0666,0.0666 0.0799,0.1332 0.0266 0.1864l -0.2663,0.2663 c -0.1198,0.1198 -0.3595,-0.0133 -0.4794 -0.1332l -1.2651,-1.2651 l -4.2480,4.2480 c -0.3862,0.3862 -0.4528,0.7191 -0.0133 1.1585l 0.4394,0.4394 c 0.0533,0.0533 0.0666,0.1465 0.0000 0.2131l -0.2530,0.2530 l -0.0533,0.0000 c 0.0000,-0.0000 -1.0653,-1.1186 -1.5847 -1.6379c -0.4794,-0.4794 -1.4116,-1.3583 -1.4116 -1.3583l -0.0000,-0.0533 l 0.2530,-0.2530 c 0.0666,-0.0666 0.1465,-0.0666 0.2131 -0.0000l 0.2530,0.2530 c 0.4528,0.4528 0.7724,0.3729 1.1585 -0.0133Z"/></g><g stroke-linejoin="miter" stroke-opacity="0.6" fill-opacity="0.0" stroke="rgb(0,0,0)" stroke-width="2.407694508950487" fill="rgb(0,0,0)" stroke-linecap="butt" stroke-miterlimit="10.0"><path d="M 177.3103,316.6157 v 8.5170 "/></g><g stroke-linejoin="miter" stroke-opacity="1.0" fill-opacity="0.6" stroke="rgb(0,0,0)" fill-rule="evenodd" stroke-width="0.0" fill="rgb(0,0,0)" stroke-linecap="butt" stroke-miterlimit="10.0"><path d="M 134.7252,341.2963 ZM 141.8629,341.9089 l -1.3183,-0.7857 c -1.5314,-0.8123 -2.3171,-0.3729 -2.9163 0.2264c -0.4128,0.4128 -0.8389,1.2384 0.0000 2.0774c 0.3995,0.3995 1.3982,0.6259 2.0374 0.6791l 2.1972,-2.1972 ZM 141.8629,341.9089 ZM 139.2928,346.1835 c -0.5060,-0.5060 -0.3329,-1.2384 -0.0666 -1.6113l -0.5193,-0.0932 c -1.0387,-0.1864 -1.3982,-0.2796 -2.0108 -0.8922c -0.9322,-0.9322 -1.0786,-2.1440 -0.0799 -3.1427c 1.0121,-1.0121 2.5701,-0.8389 4.1548 0.1065l 1.5314,0.9188 c 1.5048,-1.5048 1.0920,-2.4769 0.6392 -2.9297c -0.5060,-0.5060 -1.3183,-0.8656 -1.7312 -0.4528c -0.1465,0.1465 -0.1997,0.2530 -0.2264 0.3063c -0.0266,0.0799 -0.1065,0.1864 -0.1997 0.2796c -0.1731,0.1731 -0.5726,0.3063 -0.9588 -0.0799c -0.3196,-0.3196 -0.3196,-0.7457 -0.0000 -1.0653c 0.7724,-0.7724 2.7033,-0.1997 3.5555 0.6525c 0.9721,0.9721 1.6912,2.4902 -0.1997 4.3812l -1.9575,1.9575 c -0.8123,0.8123 -1.1452,1.1719 -0.8389 1.4781c 0.2930,0.2930 0.7457,-0.0000 1.0520 -0.2796l 0.2663,0.3995 c -1.0520,0.8922 -1.7312,0.7457 -2.4103 0.0666ZM 140.7310,347.3021 ZM 143.4476,348.5539 c -0.0533,0.5859 0.1198,0.9721 0.5327 1.3849c 1.2651,1.2651 3.0761,0.7324 4.5942 -0.7857c 1.3583,-1.3583 1.6379,-3.0229 0.8256 -3.8352c -0.1465,-0.1465 -0.8656,-0.8123 -1.9309 -0.7857l -4.0216,4.0216 ZM 143.4476,348.5539 ZM 149.3468,340.6571 c 0.7590,-0.7590 0.8389,-1.1053 0.5726 -1.3716l -0.4794,-0.3729 c -0.0399,-0.0399 -0.0399,-0.0932 -0.0000 -0.1332l 0.3063,-0.3595 c 0.2131,0.2131 0.7724,0.6126 1.0387 0.7990c 0.2930,0.1864 0.5460,0.3329 0.9322 0.4794l 0.2930,0.2930 l -4.1282,4.1282 c 0.9455,-0.0399 1.7178,0.2530 2.3570 0.8922c 1.1585,1.1585 1.1585,3.3691 -0.4661 4.9937c -2.1173,2.1173 -4.8073,1.8244 -6.1656 0.4661c -0.5726,-0.5726 -0.8389,-1.1585 -0.8922 -1.8776c -0.2796,0.0399 -0.6525,0.0666 -0.9055 0.0799l -0.2131,-0.3462 c 0.3595,-0.2796 0.5726,-0.4927 1.0920 -1.0121l 6.6583,-6.6583 ZM 147.0963,353.6675 ZM 153.4217,357.5692 c -1.5980,0.4261 -2.5967,0.1465 -3.3957 -0.6525c -1.5980,-1.5980 -1.3849,-3.8086 0.3329 -5.5264c 1.8910,-1.8910 4.3013,-1.9309 5.7395 -0.4927c 1.2784,1.2784 1.3050,2.6101 0.5992 3.3158c -0.3862,0.3862 -0.8256,0.3462 -1.1053 0.0666c -0.2796,-0.2796 -0.3995,-0.6925 -0.1065 -1.0653c 0.3862,-0.4927 0.8789,-1.1452 0.0932 -1.9309c -0.8789,-0.8789 -2.4636,-0.5992 -3.9018 0.8389c -1.5580,1.5580 -1.7977,3.4756 -0.7724 4.5010c 0.5726,0.5726 1.4515,0.7058 2.4636 0.5193ZM 152.4629,359.0341 ZM 158.0959,362.2966 l 3.4490,-3.4490 c 0.1864,-0.8256 0.1065,-1.4648 -0.5193 -2.0907c -0.2663,-0.2663 -0.8523,-0.7724 -1.9043 -0.5726c -0.4661,0.0932 -1.2651,0.4394 -2.2239 1.3982c -1.7445,1.7445 -1.6379,3.4490 -0.9188 4.1681c 0.4394,0.4394 1.0653,0.5327 2.1173 0.5460ZM 158.0959,362.2966 ZM 167.2044,355.1856 l -7.6970,7.6970 c -0.3995,0.3995 -0.5859,0.6392 -0.6525 0.7590c -0.0799,0.1598 -0.0133,0.3862 0.0932 0.4927c 0.1598,0.1598 0.4528,0.4528 0.6925 0.6126l -0.3196,0.4261 c -0.9055,-0.6392 -1.7445,-1.1852 -2.2638 -1.2251l -0.3196,-0.3196 l 0.9588,-0.8789 c -1.0254,0.0133 -1.9442,-0.1065 -2.6234 -0.7857c -1.4382,-1.4382 -1.0920,-3.5422 0.5460 -5.1802c 0.9854,-0.9854 2.0774,-1.5447 3.2226 -1.5447c 1.0387,0.0266 1.9176,0.3196 2.7965 1.1985c 0.2663,0.2663 0.7324,0.9721 0.8656 1.4515l 2.0374,-2.0374 c 0.7590,-0.7590 0.8523,-1.0920 0.5859 -1.3583l -0.4927,-0.3862 c -0.0266,-0.0266 -0.0399,-0.0932 -0.0000 -0.1332l 0.3063,-0.3595 c 0.2131,0.2131 0.7724,0.6126 1.0387 0.7990c 0.3063,0.1997 0.5460,0.3329 0.9322 0.4794l 0.2930,0.2930 ZM 159.0413,365.6125 ZM 164.2481,363.4419 l 2.4503,2.4503 c 0.1332,0.1332 0.2530,0.1198 0.3729 -0.0000c 1.2384,-1.2384 0.9322,-2.1839 0.4528 -2.6633c -0.3063,-0.3063 -1.4249,-1.1852 -3.2759 0.2131ZM 164.2481,363.4419 ZM 165.3135,369.4077 l 0.0533,0.4794 c -1.1985,0.1864 -2.4769,-0.1065 -3.4357 -1.0653c -1.8244,-1.8244 -1.2384,-3.9550 0.2131 -5.4066c 2.0241,-2.0241 4.5676,-1.9043 5.8327 -0.6392c 1.7578,1.7578 0.7990,3.5422 -0.3196 4.6608c -0.1465,0.1465 -0.3196,0.1332 -0.4661 -0.0133l -3.5023,-3.5023 c -0.0932,0.0666 -0.1731,0.1465 -0.2796 0.2530c -1.3583,1.3583 -1.4648,3.3558 -0.5060 4.3146c 0.7324,0.7324 1.4382,0.9588 2.4103 0.9188ZM 164.7409,371.3120 ZM 166.9248,371.5783 l 4.2480,-4.2480 l -0.9188,-0.9188 c -0.0533,-0.0533 -0.0533,-0.0799 -0.0000 -0.1332l 0.1864,-0.1864 c 0.1065,-0.1065 0.3329,-0.1997 0.5726 0.0399l 0.6791,0.6791 l 0.5193,-0.5193 c 2.0774,-2.0774 4.1282,-1.9709 5.2468 -0.8523c 0.5060,0.5060 0.7191,0.9854 0.8256 1.5447c 0.0666,0.4661 -0.0399,0.8123 -0.2530 1.0254c -0.2796,0.2796 -0.6791,0.2796 -0.9322 0.0266c -0.2663,-0.2663 -0.2930,-0.5859 -0.1731 -0.9188c 0.2663,-0.6126 0.2264,-1.0786 -0.1731 -1.4781c -0.4394,-0.4394 -1.2651,-0.6259 -3.3158 1.4249l -0.7457,0.7457 l 1.4648,1.4648 c 0.0666,0.0666 0.0799,0.1332 0.0266 0.1864l -0.2663,0.2663 c -0.1198,0.1198 -0.3595,-0.0133 -0.4794 -0.1332l -1.2651,-1.2651 l -4.2480,4.2480 c -0.3862,0.3862 -0.4528,0.7191 -0.0133 1.1585l 0.4394,0.4394 c 0.0533,0.0533 0.0666,0.1465 0.0000 0.2131l -0.2530,0.2530 l -0.0533,0.0000 c 0.0000,-0.0000 -1.0653,-1.1186 -1.5847 -1.6379c -0.4794,-0.4794 -1.4116,-1.3583 -1.4116 -1.3583l -0.0000,-0.0533 l 0.2530,-0.2530 c 0.0666,-0.0666 0.1465,-0.0666 0.2131 -0.0000l 0.2530,0.2530 c 0.4528,0.4528 0.7724,0.3729 1.1585 -0.0133Z"/></g><g stroke-linejoin="miter" stroke-opacity="0.6" fill-opacity="0.0" stroke="rgb(0,0,0)" stroke-width="2.407694508950487" fill="rgb(0,0,0)" stroke-linecap="butt" stroke-miterlimit="10.0"><path d="M 134.7252,316.6157 v 8.5170 "/></g><g stroke-linejoin="miter" stroke-opacity="1.0" fill-opacity="0.6" stroke="rgb(0,0,0)" fill-rule="evenodd" stroke-width="0.0" fill="rgb(0,0,0)" stroke-linecap="butt" stroke-miterlimit="10.0"><path d="M 92.1401,341.2963 ZM 99.2778,341.9089 l -1.3183,-0.7857 c -1.5314,-0.8123 -2.3171,-0.3729 -2.9163 0.2264c -0.4128,0.4128 -0.8389,1.2384 0.0000 2.0774c 0.3995,0.3995 1.3982,0.6259 2.0374 0.6791l 2.1972,-2.1972 ZM 99.2778,341.9089 ZM 96.7077,346.1835 c -0.5060,-0.5060 -0.3329,-1.2384 -0.0666 -1.6113l -0.5193,-0.0932 c -1.0387,-0.1864 -1.3982,-0.2796 -2.0108 -0.8922c -0.9322,-0.9322 -1.0786,-2.1440 -0.0799 -3.1427c 1.0121,-1.0121 2.5701,-0.8389 4.1548 0.1065l 1.5314,0.9188 c 1.5048,-1.5048 1.0920,-2.4769 0.6392 -2.9297c -0.5060,-0.5060 -1.3183,-0.8656 -1.7312 -0.4528c -0.1465,0.1465 -0.1997,0.2530 -0.2264 0.3063c -0.0266,0.0799 -0.1065,0.1864 -0.1997 0.2796c -0.1731,0.1731 -0.5726,0.3063 -0.9588 -0.0799c -0.3196,-0.3196 -0.3196,-0.7457 -0.0000 -1.0653c 0.7724,-0.7724 2.7033,-0.1997 3.5555 0.6525c 0.9721,0.9721 1.6912,2.4902 -0.1997 4.3812l -1.9575,1.9575 c -0.8123,0.8123 -1.1452,1.1719 -0.8389 1.4781c 0.2930,0.2930 0.7457,-0.0000 1.0520 -0.2796l 0.2663,0.3995 c -1.0520,0.8922 -1.7312,0.7457 -2.4103 0.0666ZM 98.1459,347.3021 ZM 100.8625,348.5539 c -0.0533,0.5859 0.1198,0.9721 0.5327 1.3849c 1.2651,1.2651 3.0761,0.7324 4.5942 -0.7857c 1.3583,-1.3583 1.6379,-3.0229 0.8256 -3.8352c -0.1465,-0.1465 -0.8656,-0.8123 -1.9309 -0.7857l -4.0216,4.0216 ZM 100.8625,348.5539 ZM 106.7617,340.6571 c 0.7590,-0.7590 0.8389,-1.1053 0.5726 -1.3716l -0.4794,-0.3729 c -0.0399,-0.0399 -0.0399,-0.0932 -0.0000 -0.1332l 0.3063,-0.3595 c 0.2131,0.2131 0.7724,0.6126 1.0387 0.7990c 0.2930,0.1864 0.5460,0.3329 0.9322 0.4794l 0.2930,0.2930 l -4.1282,4.1282 c 0.9455,-0.0399 1.7178,0.2530 2.3570 0.8922c 1.1585,1.1585 1.1585,3.3691 -0.4661 4.9937c -2.1173,2.1173 -4.8073,1.8244 -6.1656 0.4661c -0.5726,-0.5726 -0.8389,-1.1585 -0.8922 -1.8776c -0.2796,0.0399 -0.6525,0.0666 -0.9055 0.0799l -0.2131,-0.3462 c 0.3595,-0.2796 0.5726,-0.4927 1.0920 -1.0121l 6.6583,-6.6583 ZM 104.5112,353.6675 ZM 110.8366,357.5692 c -1.5980,0.4261 -2.5967,0.1465 -3.3957 -0.6525c -1.5980,-1.5980 -1.3849,-3.8086 0.3329 -5.5264c 1.8910,-1.8910 4.3013,-1.9309 5.7395 -0.4927c 1.2784,1.2784 1.3050,2.6101 0.5992 3.3158c -0.3862,0.3862 -0.8256,0.3462 -1.1053 0.0666c -0.2796,-0.2796 -0.3995,-0.6925 -0.1065 -1.0653c 0.3862,-0.4927 0.8789,-1.1452 0.0932 -1.9309c -0.8789,-0.8789 -2.4636,-0.5992 -3.9018 0.8389c -1.5580,1.5580 -1.7977,3.4756 -0.7724 4.5010c 0.5726,0.5726 1.4515,0.7058 2.4636 0.5193ZM 109.8778,359.0341 ZM 115.5108,362.2966 l 3.4490,-3.4490 c 0.1864,-0.8256 0.1065,-1.4648 -0.5193 -2.0907c -0.2663,-0.2663 -0.8523,-0.7724 -1.9043 -0.5726c -0.4661,0.0932 -1.2651,0.4394 -2.2239 1.3982c -1.7445,1.7445 -1.6379,3.4490 -0.9188 4.1681c 0.4394,0.4394 1.0653,0.5327 2.1173 0.5460ZM 115.5108,362.2966 ZM 124.6193,355.1856 l -7.6970,7.6970 c -0.3995,0.3995 -0.5859,0.6392 -0.6525 0.7590c -0.0799,0.1598 -0.0133,0.3862 0.0932 0.4927c 0.1598,0.1598 0.4528,0.4528 0.6925 0.6126l -0.3196,0.4261 c -0.9055,-0.6392 -1.7445,-1.1852 -2.2638 -1.2251l -0.3196,-0.3196 l 0.9588,-0.8789 c -1.0254,0.0133 -1.9442,-0.1065 -2.6234 -0.7857c -1.4382,-1.4382 -1.0920,-3.5422 0.5460 -5.1802c 0.9854,-0.9854 2.0774,-1.5447 3.2226 -1.5447c 1.0387,0.0266 1.9176,0.3196 2.7965 1.1985c 0.2663,0.2663 0.7324,0.9721 0.8656 1.4515l 2.0374,-2.0374 c 0.7590,-0.7590 0.8523,-1.0920 0.5859 -1.3583l -0.4927,-0.3862 c -0.0266,-0.0266 -0.0399,-0.0932 -0.0000 -0.1332l 0.3063,-0.3595 c 0.2131,0.2131 0.7724,0.6126 1.0387 0.7990c 0.3063,0.1997 0.5460,0.3329 0.9322 0.4794l 0.2930,0.2930 ZM 116.4562,365.6125 ZM 121.6630,363.4419 l 2.4503,2.4503 c 0.1332,0.1332 0.2530,0.1198 0.3729 -0.0000c 1.2384,-1.2384 0.9322,-2.1839 0.4528 -2.6633c -0.3063,-0.3063 -1.4249,-1.1852 -3.2759 0.2131ZM 121.6630,363.4419 ZM 122.7284,369.4077 l 0.0533,0.4794 c -1.1985,0.1864 -2.4769,-0.1065 -3.4357 -1.0653c -1.8244,-1.8244 -1.2384,-3.9550 0.2131 -5.4066c 2.0241,-2.0241 4.5676,-1.9043 5.8327 -0.6392c 1.7578,1.7578 0.7990,3.5422 -0.3196 4.6608c -0.1465,0.1465 -0.3196,0.1332 -0.4661 -0.0133l -3.5023,-3.5023 c -0.0932,0.0666 -0.1731,0.1465 -0.2796 0.2530c -1.3583,1.3583 -1.4648,3.3558 -0.5060 4.3146c 0.7324,0.7324 1.4382,0.9588 2.4103 0.9188ZM 122.1558,371.3120 ZM 124.3397,371.5783 l 4.2480,-4.2480 l -0.9188,-0.9188 c -0.0533,-0.0533 -0.0533,-0.0799 -0.0000 -0.1332l 0.1864,-0.1864 c 0.1065,-0.1065 0.3329,-0.1997 0.5726 0.0399l 0.6791,0.6791 l 0.5193,-0.5193 c 2.0774,-2.0774 4.1282,-1.9709 5.2468 -0.8523c 0.5060,0.5060 0.7191,0.9854 0.8256 1.5447c 0.0666,0.4661 -0.0399,0.8123 -0.2530 1.0254c -0.2796,0.2796 -0.6791,0.2796 -0.9322 0.0266c -0.2663,-0.2663 -0.2930,-0.5859 -0.1731 -0.9188c 0.2663,-0.6126 0.2264,-1.0786 -0.1731 -1.4781c -0.4394,-0.4394 -1.2651,-0.6259 -3.3158 1.4249l -0.7457,0.7457 l 1.4648,1.4648 c 0.0666,0.0666 0.0799,0.1332 0.0266 0.1864l -0.2663,0.2663 c -0.1198,0.1198 -0.3595,-0.0133 -0.4794 -0.1332l -1.2651,-1.2651 l -4.2480,4.2480 c -0.3862,0.3862 -0.4528,0.7191 -0.0133 1.1585l 0.4394,0.4394 c 0.0533,0.0533 0.0666,0.1465 0.0000 0.2131l -0.2530,0.2530 l -0.0533,0.0000 c 0.0000,-0.0000 -1.0653,-1.1186 -1.5847 -1.6379c -0.4794,-0.4794 -1.4116,-1.3583 -1.4116 -1.3583l -0.0000,-0.0533 l 0.2530,-0.2530 c 0.0666,-0.0666 0.1465,-0.0666 0.2131 -0.0000l 0.2530,0.2530 c 0.4528,0.4528 0.7724,0.3729 1.1585 -0.0133Z"/></g><g stroke-linejoin="miter" stroke-opacity="0.6" fill-opacity="0.0" stroke="rgb(0,0,0)" stroke-width="2.407694508950487" fill="rgb(0,0,0)" stroke-linecap="butt" stroke-miterlimit="10.0"><path d="M 92.1401,316.6157 v 8.5170 "/></g><g stroke-linejoin="miter" stroke-opacity="0.0" fill-opacity="0.0" stroke="rgb(0,0,0)" stroke-width="0.0" fill="rgb(0,0,0)" stroke-linecap="butt" stroke-miterlimit="10.0"><path d="M 517.9912,316.6157 l -0.0000,-283.9007 h -425.8511 l -0.0000,283.9007 Z"/></g><g stroke-linejoin="miter" stroke-opacity="1.0" fill-opacity="0.0" stroke="rgb(0,0,0)" stroke-width="0.48153890179009734" fill="rgb(0,0,0)" stroke-linecap="butt" stroke-miterlimit="10.0"><path d="M 92.1401,32.7150 h 425.8511 "/></g><g stroke-linejoin="miter" stroke-opacity="1.0" fill-opacity="0.0" stroke="rgb(0,0,0)" stroke-width="0.48153890179009734" fill="rgb(0,0,0)" stroke-linecap="butt" stroke-miterlimit="10.0"><path d="M 92.1401,61.1050 h 425.8511 "/></g><g stroke-linejoin="miter" stroke-opacity="1.0" fill-opacity="0.0" stroke="rgb(0,0,0)" stroke-width="0.48153890179009734" fill="rgb(0,0,0)" stroke-linecap="butt" stroke-miterlimit="10.0"><path d="M 92.1401,89.4951 h 425.8511 "/></g><g stroke-linejoin="miter" stroke-opacity="1.0" fill-opacity="0.0" stroke="rgb(0,0,0)" stroke-width="0.48153890179009734" fill="rgb(0,0,0)" stroke-linecap="butt" stroke-miterlimit="10.0"><path d="M 92.1401,117.8852 h 425.8511 "/></g><g stroke-linejoin="miter" stroke-opacity="1.0" fill-opacity="0.0" stroke="rgb(0,0,0)" stroke-width="0.48153890179009734" fill="rgb(0,0,0)" stroke-linecap="butt" stroke-miterlimit="10.0"><path d="M 92.1401,146.2753 h 425.8511 "/></g><g stroke-linejoin="miter" stroke-opacity="1.0" fill-opacity="0.0" stroke="rgb(0,0,0)" stroke-width="0.48153890179009734" fill="rgb(0,0,0)" stroke-linecap="butt" stroke-miterlimit="10.0"><path d="M 92.1401,174.6653 h 425.8511 "/></g><g stroke-linejoin="miter" stroke-opacity="1.0" fill-opacity="0.0" stroke="rgb(0,0,0)" stroke-width="0.48153890179009734" fill="rgb(0,0,0)" stroke-linecap="butt" stroke-miterlimit="10.0"><path d="M 92.1401,203.0554 h 425.8511 "/></g><g stroke-linejoin="miter" stroke-opacity="1.0" fill-opacity="0.0" stroke="rgb(0,0,0)" stroke-width="0.48153890179009734" fill="rgb(0,0,0)" stroke-linecap="butt" stroke-miterlimit="10.0"><path d="M 92.1401,231.4455 h 425.8511 "/></g><g stroke-linejoin="miter" stroke-opacity="1.0" fill-opacity="0.0" stroke="rgb(0,0,0)" stroke-width="0.48153890179009734" fill="rgb(0,0,0)" stroke-linecap="butt" stroke-miterlimit="10.0"><path d="M 92.1401,259.8356 h 425.8511 "/></g><g stroke-linejoin="miter" stroke-opacity="1.0" fill-opacity="0.0" stroke="rgb(0,0,0)" stroke-width="0.48153890179009734" fill="rgb(0,0,0)" stroke-linecap="butt" stroke-miterlimit="10.0"><path d="M 92.1401,288.2256 h 425.8511 "/></g><g stroke-linejoin="miter" stroke-opacity="1.0" fill-opacity="0.0" stroke="rgb(0,0,0)" stroke-width="0.48153890179009734" fill="rgb(0,0,0)" stroke-linecap="butt" stroke-miterlimit="10.0"><path d="M 92.1401,316.6157 h 425.8511 "/></g><g stroke-linejoin="miter" stroke-opacity="1.0" fill-opacity="0.0" stroke="rgb(0,0,0)" stroke-width="0.48153890179009734" fill="rgb(0,0,0)" stroke-linecap="butt" stroke-miterlimit="10.0"><path d="M 517.9912,316.6157 v -283.9007 "/></g><g stroke-linejoin="miter" stroke-opacity="1.0" fill-opacity="0.0" stroke="rgb(0,0,0)" stroke-width="0.48153890179009734" fill="rgb(0,0,0)" stroke-linecap="butt" stroke-miterlimit="10.0"><path d="M 475.4061,316.6157 v -283.9007 "/></g><g stroke-linejoin="miter" stroke-opacity="1.0" fill-opacity="0.0" stroke="rgb(0,0,0)" stroke-width="0.48153890179009734" fill="rgb(0,0,0)" stroke-linecap="butt" stroke-miterlimit="10.0"><path d="M 432.8210,316.6157 v -283.9007 "/></g><g stroke-linejoin="miter" stroke-opacity="1.0" fill-opacity="0.0" stroke="rgb(0,0,0)" stroke-width="0.48153890179009734" fill="rgb(0,0,0)" stroke-linecap="butt" stroke-miterlimit="10.0"><path d="M 390.2359,316.6157 v -283.9007 "/></g><g stroke-linejoin="miter" stroke-opacity="1.0" fill-opacity="0.0" stroke="rgb(0,0,0)" stroke-width="0.48153890179009734" fill="rgb(0,0,0)" stroke-linecap="butt" stroke-miterlimit="10.0"><path d="M 347.6507,316.6157 v -283.9007 "/></g><g stroke-linejoin="miter" stroke-opacity="1.0" fill-opacity="0.0" stroke="rgb(0,0,0)" stroke-width="0.48153890179009734" fill="rgb(0,0,0)" stroke-linecap="butt" stroke-miterlimit="10.0"><path d="M 305.0656,316.6157 v -283.9007 "/></g><g stroke-linejoin="miter" stroke-opacity="1.0" fill-opacity="0.0" stroke="rgb(0,0,0)" stroke-width="0.48153890179009734" fill="rgb(0,0,0)" stroke-linecap="butt" stroke-miterlimit="10.0"><path d="M 262.4805,316.6157 v -283.9007 "/></g><g stroke-linejoin="miter" stroke-opacity="1.0" fill-opacity="0.0" stroke="rgb(0,0,0)" stroke-width="0.48153890179009734" fill="rgb(0,0,0)" stroke-linecap="butt" stroke-miterlimit="10.0"><path d="M 219.8954,316.6157 v -283.9007 "/></g><g stroke-linejoin="miter" stroke-opacity="1.0" fill-opacity="0.0" stroke="rgb(0,0,0)" stroke-width="0.48153890179009734" fill="rgb(0,0,0)" stroke-linecap="butt" stroke-miterlimit="10.0"><path d="M 177.3103,316.6157 v -283.9007 "/></g><g stroke-linejoin="miter" stroke-opacity="1.0" fill-opacity="0.0" stroke="rgb(0,0,0)" stroke-width="0.48153890179009734" fill="rgb(0,0,0)" stroke-linecap="butt" stroke-miterlimit="10.0"><path d="M 134.7252,316.6157 v -283.9007 "/></g><g stroke-linejoin="miter" stroke-opacity="1.0" fill-opacity="0.0" stroke="rgb(0,0,0)" stroke-width="0.48153890179009734" fill="rgb(0,0,0)" stroke-linecap="butt" stroke-miterlimit="10.0"><path d="M 92.1401,316.6157 v -283.9007 "/></g></svg>