<?xml version="1.0" encoding="UTF-8"?>
<!DOCTYPE svg PUBLIC "-//W3C//DTD SVG 1.1//EN"
    "http://www.w3.org/Graphics/SVG/1.1/DTD/svg11.dtd"><svg xmlns="http://www.w3.org/2000/svg" height="400.0000" stroke-opacity="1" viewBox="0 0 600 400" font-size="1" width="600.0000" xmlns:xlink="http://www.w3.org/1999/xlink" stroke="rgb(0,0,0)" version="1.1"><defs></defs><g stroke-linejoin="miter" stroke-opacity="0.0" fill-opacity="0.1" stroke="rgb(0,0,0)" stroke-width="0.0" fill="rgb(0,0,0)" stroke-linecap="butt" stroke-miterlimit="10.0"><path d="M 73.0861,315.2931 l -0.0000,-288.4040 h -5.7681 l -0.0000,288.4040 Z"/></g><g stroke-linejoin="miter" stroke-opacity="1.0" fill-opacity="0.6" stroke="rgb(0,0,0)" fill-rule="evenodd" stroke-width="0.0" fill="rgb(0,0,0)" stroke-linecap="butt" stroke-miterlimit="10.0"><path d="M 39.1592,32.6571 ZM 43.3489,22.2688 c -0.8226,-0.0000 -2.0279,0.8035 -2.0279 5.2611c 0.0000,1.5688 0.2870,4.7254 1.9705 4.7254c 0.3252,-0.0000 1.2435,-0.2104 1.6453 -1.7027c 0.2487,-0.9183 0.3826,-2.0662 0.3826 -3.7306c 0.0000,-2.4297 -0.6122,-3.7880 -1.1670 -4.2663c -0.2104,-0.1913 -0.4974,-0.2870 -0.8035 -0.2870ZM 43.3489,22.2688 ZM 43.2724,32.8867 c -2.0470,-0.0000 -3.4245,-2.6210 -3.4245 -5.5481c 0.0000,-3.5775 1.7027,-5.7394 3.5010 -5.7394c 0.8226,-0.0000 1.6453,0.5165 2.2001 1.2627c 0.8035,1.0714 1.2244,2.5062 1.2244 4.3045c 0.0000,4.2471 -2.1044,5.7203 -3.5010 5.7203ZM 47.5387,32.6571 ZM 48.6292,31.8727 c 0.0000,-0.5548 0.4592,-1.0140 1.0140 -1.0140c 0.5548,-0.0000 1.0140,0.4592 1.0140 1.0140c 0.0000,0.5548 -0.4592,1.0140 -1.0140 1.0140c -0.5548,-0.0000 -1.0140,-0.4592 -1.0140 -1.0140ZM 51.7284,32.6571 ZM 57.6400,29.4239 c 0.0000,-1.9705 -1.0714,-2.9462 -2.2575 -2.9462c -0.8800,-0.0000 -1.5496,0.1339 -2.2958 0.4400l 0.6122,-5.2228 c 0.6313,0.0574 1.2818,0.0765 1.9514 0.0765c 0.9566,-0.0000 1.9514,-0.0574 2.9845 -0.1722l 0.1148,0.0574 l -0.2870,1.2435 c -0.7461,0.0765 -1.3583,0.0957 -1.8940 0.0957c -0.8609,-0.0000 -1.5114,-0.0765 -2.1810 -0.1531l -0.3635,3.0227 c 0.4018,-0.1531 1.0905,-0.2870 1.8366 -0.2870c 2.0279,-0.0000 3.1567,1.7601 3.1567 3.5202c 0.0000,2.1427 -1.4922,3.7880 -3.6541 3.7880c -1.0905,-0.0000 -2.6784,-0.6122 -2.6784 -1.3583c 0.0000,-0.3635 0.3061,-0.6122 0.6505 -0.6122c 0.3826,-0.0000 0.6313,0.2870 0.8609 0.5931c 0.2870,0.3444 0.5931,0.7270 1.2053 0.7270c 1.2244,-0.0000 2.2384,-1.1479 2.2384 -2.8123Z"/></g><g stroke-linejoin="miter" stroke-opacity="0.6" fill-opacity="0.0" stroke="rgb(0,0,0)" stroke-width="2.4267150714115107" fill="rgb(0,0,0)" stroke-linecap="butt" stroke-miterlimit="10.0"><path d="M 64.4340,26.8890 h 8.6521 "/></g><g stroke-linejoin="miter" stroke-opacity="1.0" fill-opacity="0.6" stroke="rgb(0,0,0)" fill-rule="evenodd" stroke-width="0.0" fill="rgb(0,0,0)" stroke-linecap="butt" stroke-miterlimit="10.0"><path d="M 39.1592,61.4975 ZM 43.3489,51.1092 c -0.8226,-0.0000 -2.0279,0.8035 -2.0279 5.2611c 0.0000,1.5688 0.2870,4.7254 1.9705 4.7254c 0.3252,-0.0000 1.2435,-0.2104 1.6453 -1.7027c 0.2487,-0.9183 0.3826,-2.0662 0.3826 -3.7306c 0.0000,-2.4297 -0.6122,-3.7880 -1.1670 -4.2663c -0.2104,-0.1913 -0.4974,-0.2870 -0.8035 -0.2870ZM 43.3489,51.1092 ZM 43.2724,61.7271 c -2.0470,-0.0000 -3.4245,-2.6210 -3.4245 -5.5481c 0.0000,-3.5775 1.7027,-5.7394 3.5010 -5.7394c 0.8226,-0.0000 1.6453,0.5165 2.2001 1.2627c 0.8035,1.0714 1.2244,2.5062 1.2244 4.3045c 0.0000,4.2471 -2.1044,5.7203 -3.5010 5.7203ZM 47.5387,61.4975 ZM 48.6292,60.7131 c 0.0000,-0.5548 0.4592,-1.0140 1.0140 -1.0140c 0.5548,-0.0000 1.0140,0.4592 1.0140 1.0140c 0.0000,0.5548 -0.4592,1.0140 -1.0140 1.0140c -0.5548,-0.0000 -1.0140,-0.4592 -1.0140 -1.0140ZM 51.7284,61.4975 ZM 56.6643,54.7059 c 0.0000,-0.1339 0.0191,-0.2870 0.1913 -0.3826c 0.2104,-0.1531 0.5548,-0.3252 0.8418 -0.3252c 0.2487,-0.0000 0.2678,0.2104 0.2678 0.5931v 3.0801 h 1.5496 l -0.1148,0.8992 h -1.4348 v 1.5879 c 0.0000,0.5357 0.0765,0.8035 0.6313 0.8035h 0.5165 c 0.1148,-0.0000 0.1339,0.0957 0.1339 0.1339v 0.4209 c 0.0000,-0.0000 -1.2244,-0.0383 -2.0279 -0.0383c -0.7270,-0.0000 -1.8557,0.0383 -1.8557 0.0383v -0.4209 c 0.0000,-0.0383 0.0191,-0.1339 0.1339 -0.1339h 0.5165 c 0.5931,-0.0000 0.6505,-0.2487 0.6505 -0.8035v -1.5879 h -3.7497 c -0.0765,-0.0000 -0.1148,-0.0383 -0.1722 -0.1148l -0.1531,-0.2104 l -0.2296,-0.4018 c -0.0191,-0.0000 -0.0191,-0.0191 -0.0191 -0.0383c 0.0000,-0.0191 0.0191,-0.0383 0.0383 -0.0574c 1.2435,-1.3775 3.4436,-5.6437 4.1324 -7.2125c 0.0191,-0.0765 0.0574,-0.0957 0.1339 -0.0957c 0.0191,-0.0000 0.4400,0.1722 0.6696 0.2104c -0.8609,2.3149 -2.2766,4.8020 -3.6732 7.0212h 3.0227 v -2.9653 Z"/></g><g stroke-linejoin="miter" stroke-opacity="0.6" fill-opacity="0.0" stroke="rgb(0,0,0)" stroke-width="2.4267150714115107" fill="rgb(0,0,0)" stroke-linecap="butt" stroke-miterlimit="10.0"><path d="M 64.4340,55.7294 h 8.6521 "/></g><g stroke-linejoin="miter" stroke-opacity="1.0" fill-opacity="0.6" stroke="rgb(0,0,0)" fill-rule="evenodd" stroke-width="0.0" fill="rgb(0,0,0)" stroke-linecap="butt" stroke-miterlimit="10.0"><path d="M 39.1592,90.3379 ZM 43.3489,79.9496 c -0.8226,-0.0000 -2.0279,0.8035 -2.0279 5.2611c 0.0000,1.5688 0.2870,4.7254 1.9705 4.7254c 0.3252,-0.0000 1.2435,-0.2104 1.6453 -1.7027c 0.2487,-0.9183 0.3826,-2.0662 0.3826 -3.7306c 0.0000,-2.4297 -0.6122,-3.7880 -1.1670 -4.2663c -0.2104,-0.1913 -0.4974,-0.2870 -0.8035 -0.2870ZM 43.3489,79.9496 ZM 43.2724,90.5675 c -2.0470,-0.0000 -3.4245,-2.6210 -3.4245 -5.5481c 0.0000,-3.5775 1.7027,-5.7394 3.5010 -5.7394c 0.8226,-0.0000 1.6453,0.5165 2.2001 1.2627c 0.8035,1.0714 1.2244,2.5062 1.2244 4.3045c 0.0000,4.2471 -2.1044,5.7203 -3.5010 5.7203ZM 47.5387,90.3379 ZM 48.6292,89.5535 c 0.0000,-0.5548 0.4592,-1.0140 1.0140 -1.0140c 0.5548,-0.0000 1.0140,0.4592 1.0140 1.0140c 0.0000,0.5548 -0.4592,1.0140 -1.0140 1.0140c -0.5548,-0.0000 -1.0140,-0.4592 -1.0140 -1.0140ZM 51.7284,90.3379 ZM 55.8608,79.8731 c -0.4783,-0.0000 -1.8749,0.2678 -1.8749 1.4348c 0.0000,0.3444 -0.1339,0.9374 -0.6505 0.9374c -0.4974,-0.0000 -0.5357,-0.5548 -0.5357 -0.6122c 0.0000,-0.5931 0.7844,-2.3531 3.4436 -2.3531c 1.8557,-0.0000 2.4105,1.1670 2.4105 1.9323c 0.0000,0.4783 -0.1531,1.4348 -1.8749 2.5253c 1.0714,0.1722 2.4871,0.9566 2.4871 2.9462c 0.0000,2.5253 -1.9131,3.8836 -4.0750 3.8836c -1.0905,-0.0000 -2.6210,-0.4783 -2.6210 -1.2053c 0.0000,-0.2870 0.2870,-0.6122 0.6696 -0.6122c 0.3635,-0.0000 0.5357,0.1913 0.7079 0.4400c 0.2104,0.3252 0.5548,0.7844 1.4731 0.7844c 0.6313,-0.0000 2.4297,-0.6313 2.4297 -3.0419c 0.0000,-2.0470 -1.4348,-2.3723 -2.4679 -2.3723c -0.1722,-0.0000 -0.3826,0.0383 -0.5931 0.0765l -0.0765,-0.5739 c 1.4731,-0.2487 2.6975,-1.6836 2.6975 -2.5636c 0.0000,-1.0905 -0.7653,-1.6262 -1.5496 -1.6262Z"/></g><g stroke-linejoin="miter" stroke-opacity="0.6" fill-opacity="0.0" stroke="rgb(0,0,0)" stroke-width="2.4267150714115107" fill="rgb(0,0,0)" stroke-linecap="butt" stroke-miterlimit="10.0"><path d="M 64.4340,84.5698 h 8.6521 "/></g><g stroke-linejoin="miter" stroke-opacity="1.0" fill-opacity="0.6" stroke="rgb(0,0,0)" fill-rule="evenodd" stroke-width="0.0" fill="rgb(0,0,0)" stroke-linecap="butt" stroke-miterlimit="10.0"><path d="M 39.1592,119.1783 ZM 43.3489,108.7900 c -0.8226,-0.0000 -2.0279,0.8035 -2.0279 5.2611c 0.0000,1.5688 0.2870,4.7254 1.9705 4.7254c 0.3252,-0.0000 1.2435,-0.2104 1.6453 -1.7027c 0.2487,-0.9183 0.3826,-2.0662 0.3826 -3.7306c 0.0000,-2.4297 -0.6122,-3.7880 -1.1670 -4.2663c -0.2104,-0.1913 -0.4974,-0.2870 -0.8035 -0.2870ZM 43.3489,108.7900 ZM 43.2724,119.4079 c -2.0470,-0.0000 -3.4245,-2.6210 -3.4245 -5.5481c 0.0000,-3.5775 1.7027,-5.7394 3.5010 -5.7394c 0.8226,-0.0000 1.6453,0.5165 2.2001 1.2627c 0.8035,1.0714 1.2244,2.5062 1.2244 4.3045c 0.0000,4.2471 -2.1044,5.7203 -3.5010 5.7203ZM 47.5387,119.1783 ZM 48.6292,118.3939 c 0.0000,-0.5548 0.4592,-1.0140 1.0140 -1.0140c 0.5548,-0.0000 1.0140,0.4592 1.0140 1.0140c 0.0000,0.5548 -0.4592,1.0140 -1.0140 1.0140c -0.5548,-0.0000 -1.0140,-0.4592 -1.0140 -1.0140ZM 51.7284,119.1783 ZM 52.8380,110.7032 c 0.0000,-1.0905 1.0522,-2.5827 3.0610 -2.5827c 1.4731,-0.0000 3.1949,0.5548 3.1949 2.7549c 0.0000,1.4540 -0.7461,2.1810 -1.7792 3.1758l -1.8175,1.7601 c -0.0957,0.0957 -1.3775,1.3583 -1.3775 2.2575h 3.2523 c 0.6505,-0.0000 0.9948,-0.3252 1.2627 -1.3775l 0.4783,0.0765 l -0.3826,2.4105 h -5.9116 c 0.0000,-1.0714 0.1722,-1.8940 1.9514 -3.7115l 1.3392,-1.3201 c 1.0714,-1.0905 1.5114,-2.0279 1.5114 -3.1949c 0.0000,-1.7409 -1.1861,-2.2384 -1.8366 -2.2384c -1.3201,-0.0000 -1.6836,0.6887 -1.6836 1.1479c 0.0000,0.1531 0.0383,0.3061 0.0765 0.4400c 0.0383,0.1339 0.0765,0.2678 0.0765 0.4209c 0.0000,0.4974 -0.3826,0.6887 -0.6887 0.6887c -0.4209,-0.0000 -0.7270,-0.3252 -0.7270 -0.7079Z"/></g><g stroke-linejoin="miter" stroke-opacity="0.6" fill-opacity="0.0" stroke="rgb(0,0,0)" stroke-width="2.4267150714115107" fill="rgb(0,0,0)" stroke-linecap="butt" stroke-miterlimit="10.0"><path d="M 64.4340,113.4102 h 8.6521 "/></g><g stroke-linejoin="miter" stroke-opacity="1.0" fill-opacity="0.6" stroke="rgb(0,0,0)" fill-rule="evenodd" stroke-width="0.0" fill="rgb(0,0,0)" stroke-linecap="butt" stroke-miterlimit="10.0"><path d="M 39.1592,148.0187 ZM 43.3489,137.6304 c -0.8226,-0.0000 -2.0279,0.8035 -2.0279 5.2611c 0.0000,1.5688 0.2870,4.7254 1.9705 4.7254c 0.3252,-0.0000 1.2435,-0.2104 1.6453 -1.7027c 0.2487,-0.9183 0.3826,-2.0662 0.3826 -3.7306c 0.0000,-2.4297 -0.6122,-3.7880 -1.1670 -4.2663c -0.2104,-0.1913 -0.4974,-0.2870 -0.8035 -0.2870ZM 43.3489,137.6304 ZM 43.2724,148.2483 c -2.0470,-0.0000 -3.4245,-2.6210 -3.4245 -5.5481c 0.0000,-3.5775 1.7027,-5.7394 3.5010 -5.7394c 0.8226,-0.0000 1.6453,0.5165 2.2001 1.2627c 0.8035,1.0714 1.2244,2.5062 1.2244 4.3045c 0.0000,4.2471 -2.1044,5.7203 -3.5010 5.7203ZM 47.5387,148.0187 ZM 48.6292,147.2343 c 0.0000,-0.5548 0.4592,-1.0140 1.0140 -1.0140c 0.5548,-0.0000 1.0140,0.4592 1.0140 1.0140c 0.0000,0.5548 -0.4592,1.0140 -1.0140 1.0140c -0.5548,-0.0000 -1.0140,-0.4592 -1.0140 -1.0140ZM 51.7284,148.0187 ZM 55.3251,138.8931 c -0.3635,-0.0000 -1.2053,0.3444 -1.6262 0.5357l -0.2296,-0.5931 c 1.6836,-0.7844 2.3340,-1.1861 3.2906 -1.8749h 0.3635 v 9.6230 c 0.0000,0.6887 0.0957,0.8800 0.7270 0.8800h 0.9948 c 0.0574,-0.0000 0.1531,0.0383 0.1531 0.1531v 0.4209 l -2.6210,-0.0383 l -2.6592,0.0383 v -0.4209 c 0.0191,-0.0574 0.0383,-0.1531 0.1531 -0.1531h 1.1479 c 0.7270,-0.0000 0.7270,-0.3252 0.7270 -0.8800v -6.5812 c 0.0000,-0.6505 0.0000,-1.1096 -0.4209 -1.1096Z"/></g><g stroke-linejoin="miter" stroke-opacity="0.6" fill-opacity="0.0" stroke="rgb(0,0,0)" stroke-width="2.4267150714115107" fill="rgb(0,0,0)" stroke-linecap="butt" stroke-miterlimit="10.0"><path d="M 64.4340,142.2506 h 8.6521 "/></g><g stroke-linejoin="miter" stroke-opacity="1.0" fill-opacity="0.6" stroke="rgb(0,0,0)" fill-rule="evenodd" stroke-width="0.0" fill="rgb(0,0,0)" stroke-linecap="butt" stroke-miterlimit="10.0"><path d="M 39.1592,176.8591 ZM 43.3489,166.4708 c -0.8226,-0.0000 -2.0279,0.8035 -2.0279 5.2611c 0.0000,1.5688 0.2870,4.7254 1.9705 4.7254c 0.3252,-0.0000 1.2435,-0.2104 1.6453 -1.7027c 0.2487,-0.9183 0.3826,-2.0662 0.3826 -3.7306c 0.0000,-2.4297 -0.6122,-3.7880 -1.1670 -4.2663c -0.2104,-0.1913 -0.4974,-0.2870 -0.8035 -0.2870ZM 43.3489,166.4708 ZM 43.2724,177.0887 c -2.0470,-0.0000 -3.4245,-2.6210 -3.4245 -5.5481c 0.0000,-3.5775 1.7027,-5.7394 3.5010 -5.7394c 0.8226,-0.0000 1.6453,0.5165 2.2001 1.2627c 0.8035,1.0714 1.2244,2.5062 1.2244 4.3045c 0.0000,4.2471 -2.1044,5.7203 -3.5010 5.7203ZM 47.5387,176.8591 ZM 48.6292,176.0747 c 0.0000,-0.5548 0.4592,-1.0140 1.0140 -1.0140c 0.5548,-0.0000 1.0140,0.4592 1.0140 1.0140c 0.0000,0.5548 -0.4592,1.0140 -1.0140 1.0140c -0.5548,-0.0000 -1.0140,-0.4592 -1.0140 -1.0140ZM 51.7284,176.8591 ZM 55.9182,166.4708 c -0.8226,-0.0000 -2.0279,0.8035 -2.0279 5.2611c 0.0000,1.5688 0.2870,4.7254 1.9705 4.7254c 0.3252,-0.0000 1.2435,-0.2104 1.6453 -1.7027c 0.2487,-0.9183 0.3826,-2.0662 0.3826 -3.7306c 0.0000,-2.4297 -0.6122,-3.7880 -1.1670 -4.2663c -0.2104,-0.1913 -0.4974,-0.2870 -0.8035 -0.2870ZM 55.9182,166.4708 ZM 55.8416,177.0887 c -2.0470,-0.0000 -3.4245,-2.6210 -3.4245 -5.5481c 0.0000,-3.5775 1.7027,-5.7394 3.5010 -5.7394c 0.8226,-0.0000 1.6453,0.5165 2.2001 1.2627c 0.8035,1.0714 1.2244,2.5062 1.2244 4.3045c 0.0000,4.2471 -2.1044,5.7203 -3.5010 5.7203Z"/></g><g stroke-linejoin="miter" stroke-opacity="0.6" fill-opacity="0.0" stroke="rgb(0,0,0)" stroke-width="2.4267150714115107" fill="rgb(0,0,0)" stroke-linecap="butt" stroke-miterlimit="10.0"><path d="M 64.4340,171.0910 h 8.6521 "/></g><g stroke-linejoin="miter" stroke-opacity="1.0" fill-opacity="0.6" stroke="rgb(0,0,0)" fill-rule="evenodd" stroke-width="0.0" fill="rgb(0,0,0)" stroke-linecap="butt" stroke-miterlimit="10.0"><path d="M 32.7885,205.6995 ZM 38.0304,201.1845 h -4.3237 c -0.1722,-0.0000 -0.2870,-0.1531 -0.2870 -0.3252c 0.0000,-0.3061 0.2487,-0.7079 0.4783 -0.7079h 4.3811 c 0.1913,-0.0000 0.2678,0.1722 0.2678 0.3444c 0.0000,0.2104 -0.2678,0.6887 -0.5165 0.6887ZM 39.1592,205.6995 ZM 43.3489,195.3112 c -0.8226,-0.0000 -2.0279,0.8035 -2.0279 5.2611c 0.0000,1.5688 0.2870,4.7254 1.9705 4.7254c 0.3252,-0.0000 1.2435,-0.2104 1.6453 -1.7027c 0.2487,-0.9183 0.3826,-2.0662 0.3826 -3.7306c 0.0000,-2.4297 -0.6122,-3.7880 -1.1670 -4.2663c -0.2104,-0.1913 -0.4974,-0.2870 -0.8035 -0.2870ZM 43.3489,195.3112 ZM 43.2724,205.9291 c -2.0470,-0.0000 -3.4245,-2.6210 -3.4245 -5.5481c 0.0000,-3.5775 1.7027,-5.7394 3.5010 -5.7394c 0.8226,-0.0000 1.6453,0.5165 2.2001 1.2627c 0.8035,1.0714 1.2244,2.5062 1.2244 4.3045c 0.0000,4.2471 -2.1044,5.7203 -3.5010 5.7203ZM 47.5387,205.6995 ZM 48.6292,204.9151 c 0.0000,-0.5548 0.4592,-1.0140 1.0140 -1.0140c 0.5548,-0.0000 1.0140,0.4592 1.0140 1.0140c 0.0000,0.5548 -0.4592,1.0140 -1.0140 1.0140c -0.5548,-0.0000 -1.0140,-0.4592 -1.0140 -1.0140ZM 51.7284,205.6995 ZM 55.3251,196.5739 c -0.3635,-0.0000 -1.2053,0.3444 -1.6262 0.5357l -0.2296,-0.5931 c 1.6836,-0.7844 2.3340,-1.1861 3.2906 -1.8749h 0.3635 v 9.6230 c 0.0000,0.6887 0.0957,0.8800 0.7270 0.8800h 0.9948 c 0.0574,-0.0000 0.1531,0.0383 0.1531 0.1531v 0.4209 l -2.6210,-0.0383 l -2.6592,0.0383 v -0.4209 c 0.0191,-0.0574 0.0383,-0.1531 0.1531 -0.1531h 1.1479 c 0.7270,-0.0000 0.7270,-0.3252 0.7270 -0.8800v -6.5812 c 0.0000,-0.6505 0.0000,-1.1096 -0.4209 -1.1096Z"/></g><g stroke-linejoin="miter" stroke-opacity="0.6" fill-opacity="0.0" stroke="rgb(0,0,0)" stroke-width="2.4267150714115107" fill="rgb(0,0,0)" stroke-linecap="butt" stroke-miterlimit="10.0"><path d="M 64.4340,199.9314 h 8.6521 "/></g><g stroke-linejoin="miter" stroke-opacity="1.0" fill-opacity="0.6" stroke="rgb(0,0,0)" fill-rule="evenodd" stroke-width="0.0" fill="rgb(0,0,0)" stroke-linecap="butt" stroke-miterlimit="10.0"><path d="M 32.7885,234.5399 ZM 38.0304,230.0249 h -4.3237 c -0.1722,-0.0000 -0.2870,-0.1531 -0.2870 -0.3252c 0.0000,-0.3061 0.2487,-0.7079 0.4783 -0.7079h 4.3811 c 0.1913,-0.0000 0.2678,0.1722 0.2678 0.3444c 0.0000,0.2104 -0.2678,0.6887 -0.5165 0.6887ZM 39.1592,234.5399 ZM 43.3489,224.1516 c -0.8226,-0.0000 -2.0279,0.8035 -2.0279 5.2611c 0.0000,1.5688 0.2870,4.7254 1.9705 4.7254c 0.3252,-0.0000 1.2435,-0.2104 1.6453 -1.7027c 0.2487,-0.9183 0.3826,-2.0662 0.3826 -3.7306c 0.0000,-2.4297 -0.6122,-3.7880 -1.1670 -4.2663c -0.2104,-0.1913 -0.4974,-0.2870 -0.8035 -0.2870ZM 43.3489,224.1516 ZM 43.2724,234.7695 c -2.0470,-0.0000 -3.4245,-2.6210 -3.4245 -5.5481c 0.0000,-3.5775 1.7027,-5.7394 3.5010 -5.7394c 0.8226,-0.0000 1.6453,0.5165 2.2001 1.2627c 0.8035,1.0714 1.2244,2.5062 1.2244 4.3045c 0.0000,4.2471 -2.1044,5.7203 -3.5010 5.7203ZM 47.5387,234.5399 ZM 48.6292,233.7555 c 0.0000,-0.5548 0.4592,-1.0140 1.0140 -1.0140c 0.5548,-0.0000 1.0140,0.4592 1.0140 1.0140c 0.0000,0.5548 -0.4592,1.0140 -1.0140 1.0140c -0.5548,-0.0000 -1.0140,-0.4592 -1.0140 -1.0140ZM 51.7284,234.5399 ZM 52.8380,226.0648 c 0.0000,-1.0905 1.0522,-2.5827 3.0610 -2.5827c 1.4731,-0.0000 3.1949,0.5548 3.1949 2.7549c 0.0000,1.4540 -0.7461,2.1810 -1.7792 3.1758l -1.8175,1.7601 c -0.0957,0.0957 -1.3775,1.3583 -1.3775 2.2575h 3.2523 c 0.6505,-0.0000 0.9948,-0.3252 1.2627 -1.3775l 0.4783,0.0765 l -0.3826,2.4105 h -5.9116 c 0.0000,-1.0714 0.1722,-1.8940 1.9514 -3.7115l 1.3392,-1.3201 c 1.0714,-1.0905 1.5114,-2.0279 1.5114 -3.1949c 0.0000,-1.7409 -1.1861,-2.2384 -1.8366 -2.2384c -1.3201,-0.0000 -1.6836,0.6887 -1.6836 1.1479c 0.0000,0.1531 0.0383,0.3061 0.0765 0.4400c 0.0383,0.1339 0.0765,0.2678 0.0765 0.4209c 0.0000,0.4974 -0.3826,0.6887 -0.6887 0.6887c -0.4209,-0.0000 -0.7270,-0.3252 -0.7270 -0.7079Z"/></g><g stroke-linejoin="miter" stroke-opacity="0.6" fill-opacity="0.0" stroke="rgb(0,0,0)" stroke-width="2.4267150714115107" fill="rgb(0,0,0)" stroke-linecap="butt" stroke-miterlimit="10.0"><path d="M 64.4340,228.7718 h 8.6521 "/></g><g stroke-linejoin="miter" stroke-opacity="1.0" fill-opacity="0.6" stroke="rgb(0,0,0)" fill-rule="evenodd" stroke-width="0.0" fill="rgb(0,0,0)" stroke-linecap="butt" stroke-miterlimit="10.0"><path d="M 32.7885,263.3803 ZM 38.0304,258.8653 h -4.3237 c -0.1722,-0.0000 -0.2870,-0.1531 -0.2870 -0.3252c 0.0000,-0.3061 0.2487,-0.7079 0.4783 -0.7079h 4.3811 c 0.1913,-0.0000 0.2678,0.1722 0.2678 0.3444c 0.0000,0.2104 -0.2678,0.6887 -0.5165 0.6887ZM 39.1592,263.3803 ZM 43.3489,252.9920 c -0.8226,-0.0000 -2.0279,0.8035 -2.0279 5.2611c 0.0000,1.5688 0.2870,4.7254 1.9705 4.7254c 0.3252,-0.0000 1.2435,-0.2104 1.6453 -1.7027c 0.2487,-0.9183 0.3826,-2.0662 0.3826 -3.7306c 0.0000,-2.4297 -0.6122,-3.7880 -1.1670 -4.2663c -0.2104,-0.1913 -0.4974,-0.2870 -0.8035 -0.2870ZM 43.3489,252.9920 ZM 43.2724,263.6099 c -2.0470,-0.0000 -3.4245,-2.6210 -3.4245 -5.5481c 0.0000,-3.5775 1.7027,-5.7394 3.5010 -5.7394c 0.8226,-0.0000 1.6453,0.5165 2.2001 1.2627c 0.8035,1.0714 1.2244,2.5062 1.2244 4.3045c 0.0000,4.2471 -2.1044,5.7203 -3.5010 5.7203ZM 47.5387,263.3803 ZM 48.6292,262.5959 c 0.0000,-0.5548 0.4592,-1.0140 1.0140 -1.0140c 0.5548,-0.0000 1.0140,0.4592 1.0140 1.0140c 0.0000,0.5548 -0.4592,1.0140 -1.0140 1.0140c -0.5548,-0.0000 -1.0140,-0.4592 -1.0140 -1.0140ZM 51.7284,263.3803 ZM 55.8608,252.9155 c -0.4783,-0.0000 -1.8749,0.2678 -1.8749 1.4348c 0.0000,0.3444 -0.1339,0.9374 -0.6505 0.9374c -0.4974,-0.0000 -0.5357,-0.5548 -0.5357 -0.6122c 0.0000,-0.5931 0.7844,-2.3531 3.4436 -2.3531c 1.8557,-0.0000 2.4105,1.1670 2.4105 1.9323c 0.0000,0.4783 -0.1531,1.4348 -1.8749 2.5253c 1.0714,0.1722 2.4871,0.9566 2.4871 2.9462c 0.0000,2.5253 -1.9131,3.8836 -4.0750 3.8836c -1.0905,-0.0000 -2.6210,-0.4783 -2.6210 -1.2053c 0.0000,-0.2870 0.2870,-0.6122 0.6696 -0.6122c 0.3635,-0.0000 0.5357,0.1913 0.7079 0.4400c 0.2104,0.3252 0.5548,0.7844 1.4731 0.7844c 0.6313,-0.0000 2.4297,-0.6313 2.4297 -3.0419c 0.0000,-2.0470 -1.4348,-2.3723 -2.4679 -2.3723c -0.1722,-0.0000 -0.3826,0.0383 -0.5931 0.0765l -0.0765,-0.5739 c 1.4731,-0.2487 2.6975,-1.6836 2.6975 -2.5636c 0.0000,-1.0905 -0.7653,-1.6262 -1.5496 -1.6262Z"/></g><g stroke-linejoin="miter" stroke-opacity="0.6" fill-opacity="0.0" stroke="rgb(0,0,0)" stroke-width="2.4267150714115107" fill="rgb(0,0,0)" stroke-linecap="butt" stroke-miterlimit="10.0"><path d="M 64.4340,257.6122 h 8.6521 "/></g><g stroke-linejoin="miter" stroke-opacity="1.0" fill-opacity="0.6" stroke="rgb(0,0,0)" fill-rule="evenodd" stroke-width="0.0" fill="rgb(0,0,0)" stroke-linecap="butt" stroke-miterlimit="10.0"><path d="M 32.7885,292.2207 ZM 38.0304,287.7058 h -4.3237 c -0.1722,-0.0000 -0.2870,-0.1531 -0.2870 -0.3252c 0.0000,-0.3061 0.2487,-0.7079 0.4783 -0.7079h 4.3811 c 0.1913,-0.0000 0.2678,0.1722 0.2678 0.3444c 0.0000,0.2104 -0.2678,0.6887 -0.5165 0.6887ZM 39.1592,292.2207 ZM 43.3489,281.8324 c -0.8226,-0.0000 -2.0279,0.8035 -2.0279 5.2611c 0.0000,1.5688 0.2870,4.7254 1.9705 4.7254c 0.3252,-0.0000 1.2435,-0.2104 1.6453 -1.7027c 0.2487,-0.9183 0.3826,-2.0662 0.3826 -3.7306c 0.0000,-2.4297 -0.6122,-3.7880 -1.1670 -4.2663c -0.2104,-0.1913 -0.4974,-0.2870 -0.8035 -0.2870ZM 43.3489,281.8324 ZM 43.2724,292.4503 c -2.0470,-0.0000 -3.4245,-2.6210 -3.4245 -5.5481c 0.0000,-3.5775 1.7027,-5.7394 3.5010 -5.7394c 0.8226,-0.0000 1.6453,0.5165 2.2001 1.2627c 0.8035,1.0714 1.2244,2.5062 1.2244 4.3045c 0.0000,4.2471 -2.1044,5.7203 -3.5010 5.7203ZM 47.5387,292.2207 ZM 48.6292,291.4364 c 0.0000,-0.5548 0.4592,-1.0140 1.0140 -1.0140c 0.5548,-0.0000 1.0140,0.4592 1.0140 1.0140c 0.0000,0.5548 -0.4592,1.0140 -1.0140 1.0140c -0.5548,-0.0000 -1.0140,-0.4592 -1.0140 -1.0140ZM 51.7284,292.2207 ZM 56.6643,285.4291 c 0.0000,-0.1339 0.0191,-0.2870 0.1913 -0.3826c 0.2104,-0.1531 0.5548,-0.3252 0.8418 -0.3252c 0.2487,-0.0000 0.2678,0.2104 0.2678 0.5931v 3.0801 h 1.5496 l -0.1148,0.8992 h -1.4348 v 1.5879 c 0.0000,0.5357 0.0765,0.8035 0.6313 0.8035h 0.5165 c 0.1148,-0.0000 0.1339,0.0957 0.1339 0.1339v 0.4209 c 0.0000,-0.0000 -1.2244,-0.0383 -2.0279 -0.0383c -0.7270,-0.0000 -1.8557,0.0383 -1.8557 0.0383v -0.4209 c 0.0000,-0.0383 0.0191,-0.1339 0.1339 -0.1339h 0.5165 c 0.5931,-0.0000 0.6505,-0.2487 0.6505 -0.8035v -1.5879 h -3.7497 c -0.0765,-0.0000 -0.1148,-0.0383 -0.1722 -0.1148l -0.1531,-0.2104 l -0.2296,-0.4018 c -0.0191,-0.0000 -0.0191,-0.0191 -0.0191 -0.0383c 0.0000,-0.0191 0.0191,-0.0383 0.0383 -0.0574c 1.2435,-1.3775 3.4436,-5.6437 4.1324 -7.2125c 0.0191,-0.0765 0.0574,-0.0957 0.1339 -0.0957c 0.0191,-0.0000 0.4400,0.1722 0.6696 0.2104c -0.8609,2.3149 -2.2766,4.8020 -3.6732 7.0212h 3.0227 v -2.9653 Z"/></g><g stroke-linejoin="miter" stroke-opacity="0.6" fill-opacity="0.0" stroke="rgb(0,0,0)" stroke-width="2.4267150714115107" fill="rgb(0,0,0)" stroke-linecap="butt" stroke-miterlimit="10.0"><path d="M 64.4340,286.4527 h 8.6521 "/></g><g stroke-linejoin="miter" stroke-opacity="1.0" fill-opacity="0.6" stroke="rgb(0,0,0)" fill-rule="evenodd" stroke-width="0.0" fill="rgb(0,0,0)" stroke-linecap="butt" stroke-miterlimit="10.0"><path d="M 32.7885,321.0611 ZM 38.0304,316.5462 h -4.3237 c -0.1722,-0.0000 -0.2870,-0.1531 -0.2870 -0.3252c 0.0000,-0.3061 0.2487,-0.7079 0.4783 -0.7079h 4.3811 c 0.1913,-0.0000 0.2678,0.1722 0.2678 0.3444c 0.0000,0.2104 -0.2678,0.6887 -0.5165 0.6887ZM 39.1592,321.0611 ZM 43.3489,310.6729 c -0.8226,-0.0000 -2.0279,0.8035 -2.0279 5.2611c 0.0000,1.5688 0.2870,4.7254 1.9705 4.7254c 0.3252,-0.0000 1.2435,-0.2104 1.6453 -1.7027c 0.2487,-0.9183 0.3826,-2.0662 0.3826 -3.7306c 0.0000,-2.4297 -0.6122,-3.7880 -1.1670 -4.2663c -0.2104,-0.1913 -0.4974,-0.2870 -0.8035 -0.2870ZM 43.3489,310.6729 ZM 43.2724,321.2907 c -2.0470,-0.0000 -3.4245,-2.6210 -3.4245 -5.5481c 0.0000,-3.5775 1.7027,-5.7394 3.5010 -5.7394c 0.8226,-0.0000 1.6453,0.5165 2.2001 1.2627c 0.8035,1.0714 1.2244,2.5062 1.2244 4.3045c 0.0000,4.2471 -2.1044,5.7203 -3.5010 5.7203ZM 47.5387,321.0611 ZM 48.6292,320.2768 c 0.0000,-0.5548 0.4592,-1.0140 1.0140 -1.0140c 0.5548,-0.0000 1.0140,0.4592 1.0140 1.0140c 0.0000,0.5548 -0.4592,1.0140 -1.0140 1.0140c -0.5548,-0.0000 -1.0140,-0.4592 -1.0140 -1.0140ZM 51.7284,321.0611 ZM 57.6400,317.8280 c 0.0000,-1.9705 -1.0714,-2.9462 -2.2575 -2.9462c -0.8800,-0.0000 -1.5496,0.1339 -2.2958 0.4400l 0.6122,-5.2228 c 0.6313,0.0574 1.2818,0.0765 1.9514 0.0765c 0.9566,-0.0000 1.9514,-0.0574 2.9845 -0.1722l 0.1148,0.0574 l -0.2870,1.2435 c -0.7461,0.0765 -1.3583,0.0957 -1.8940 0.0957c -0.8609,-0.0000 -1.5114,-0.0765 -2.1810 -0.1531l -0.3635,3.0227 c 0.4018,-0.1531 1.0905,-0.2870 1.8366 -0.2870c 2.0279,-0.0000 3.1567,1.7601 3.1567 3.5202c 0.0000,2.1427 -1.4922,3.7880 -3.6541 3.7880c -1.0905,-0.0000 -2.6784,-0.6122 -2.6784 -1.3583c 0.0000,-0.3635 0.3061,-0.6122 0.6505 -0.6122c 0.3826,-0.0000 0.6313,0.2870 0.8609 0.5931c 0.2870,0.3444 0.5931,0.7270 1.2053 0.7270c 1.2244,-0.0000 2.2384,-1.1479 2.2384 -2.8123Z"/></g><g stroke-linejoin="miter" stroke-opacity="0.6" fill-opacity="0.0" stroke="rgb(0,0,0)" stroke-width="2.4267150714115107" fill="rgb(0,0,0)" stroke-linecap="butt" stroke-miterlimit="10.0"><path d="M 64.4340,315.2931 h 8.6521 "/></g><g stroke-linejoin="miter" stroke-opacity="0.0" fill-opacity="0.1" stroke="rgb(0,0,0)" stroke-width="0.0" fill="rgb(0,0,0)" stroke-linecap="butt" stroke-miterlimit="10.0"><path d="M 521.4490,321.0611 l -0.0000,-5.7681 h -432.6061 l -0.0000,5.7681 Z"/></g><g stroke-linejoin="miter" stroke-opacity="1.0" fill-opacity="0.6" stroke="rgb(0,0,0)" fill-rule="evenodd" stroke-width="0.0" fill="rgb(0,0,0)" stroke-linecap="butt" stroke-miterlimit="10.0"><path d="M 521.4490,340.3651 ZM 528.6999,340.9874 l -1.3393,-0.7981 c -1.5557,-0.8252 -2.3538,-0.3788 -2.9626 0.2300c -0.4194,0.4194 -0.8523,1.2581 0.0000 2.1103c 0.4058,0.4058 1.4204,0.6358 2.0698 0.6899l 2.2321,-2.2321 ZM 528.6999,340.9874 ZM 526.0891,345.3299 c -0.5141,-0.5141 -0.3382,-1.2581 -0.0676 -1.6369l -0.5276,-0.0947 c -1.0552,-0.1894 -1.4204,-0.2841 -2.0427 -0.9064c -0.9470,-0.9470 -1.0958,-2.1780 -0.0812 -3.1926c 1.0281,-1.0281 2.6109,-0.8523 4.2207 0.1082l 1.5557,0.9334 c 1.5286,-1.5286 1.1093,-2.5162 0.6493 -2.9761c -0.5141,-0.5141 -1.3393,-0.8793 -1.7586 -0.4599c -0.1488,0.1488 -0.2029,0.2570 -0.2300 0.3111c -0.0271,0.0812 -0.1082,0.1894 -0.2029 0.2841c -0.1759,0.1759 -0.5817,0.3111 -0.9740 -0.0812c -0.3247,-0.3247 -0.3247,-0.7576 -0.0000 -1.0822c 0.7846,-0.7846 2.7462,-0.2029 3.6119 0.6629c 0.9875,0.9875 1.7180,2.5297 -0.2029 4.4507l -1.9886,1.9886 c -0.8252,0.8252 -1.1634,1.1905 -0.8523 1.5016c 0.2976,0.2976 0.7576,-0.0000 1.0687 -0.2841l 0.2706,0.4058 c -1.0687,0.9064 -1.7586,0.7576 -2.4485 0.0676ZM 527.5501,346.4662 ZM 530.3098,347.7378 c -0.0541,0.5952 0.1218,0.9875 0.5411 1.4069c 1.2851,1.2851 3.1249,0.7440 4.6671 -0.7981c 1.3798,-1.3798 1.6639,-3.0708 0.8387 -3.8960c -0.1488,-0.1488 -0.8793,-0.8252 -1.9615 -0.7981l -4.0854,4.0854 ZM 530.3098,347.7378 ZM 536.3026,339.7158 c 0.7711,-0.7711 0.8523,-1.1228 0.5817 -1.3934l -0.4870,-0.3788 c -0.0406,-0.0406 -0.0406,-0.0947 -0.0000 -0.1353l 0.3111,-0.3653 c 0.2164,0.2164 0.7846,0.6223 1.0552 0.8117c 0.2976,0.1894 0.5546,0.3382 0.9470 0.4870l 0.2976,0.2976 l -4.1936,4.1936 c 0.9605,-0.0406 1.7451,0.2570 2.3944 0.9064c 1.1769,1.1769 1.1769,3.4225 -0.4735 5.0729c -2.1509,2.1509 -4.8836,1.8533 -6.2634 0.4735c -0.5817,-0.5817 -0.8523,-1.1769 -0.9064 -1.9074c -0.2841,0.0406 -0.6629,0.0676 -0.9199 0.0812l -0.2164,-0.3517 c 0.3653,-0.2841 0.5817,-0.5005 1.1093 -1.0281l 6.7639,-6.7639 ZM 534.0164,352.9325 ZM 540.4421,356.8962 c -1.6233,0.4329 -2.6379,0.1488 -3.4496 -0.6629c -1.6233,-1.6233 -1.4069,-3.8690 0.3382 -5.6141c 1.9210,-1.9210 4.3695,-1.9615 5.8305 -0.5005c 1.2987,1.2987 1.3257,2.6515 0.6088 3.3684c -0.3923,0.3923 -0.8387,0.3517 -1.1228 0.0676c -0.2841,-0.2841 -0.4058,-0.7034 -0.1082 -1.0822c 0.3923,-0.5005 0.8928,-1.1634 0.0947 -1.9615c -0.8928,-0.8928 -2.5027,-0.6088 -3.9637 0.8523c -1.5828,1.5828 -1.8263,3.5308 -0.7846 4.5724c 0.5817,0.5817 1.4745,0.7170 2.5027 0.5276ZM 539.4681,358.3842 ZM 545.1904,361.6986 l 3.5037,-3.5037 c 0.1894,-0.8387 0.1082,-1.4881 -0.5276 -2.1239c -0.2706,-0.2706 -0.8658,-0.7846 -1.9345 -0.5817c -0.4735,0.0947 -1.2851,0.4464 -2.2592 1.4204c -1.7721,1.7721 -1.6639,3.5037 -0.9334 4.2342c 0.4464,0.4464 1.0822,0.5411 2.1509 0.5546ZM 545.1904,361.6986 ZM 554.4435,354.4747 l -7.8191,7.8191 c -0.4058,0.4058 -0.5952,0.6493 -0.6629 0.7711c -0.0812,0.1623 -0.0135,0.3923 0.0947 0.5005c 0.1623,0.1623 0.4599,0.4599 0.7034 0.6223l -0.3247,0.4329 c -0.9199,-0.6493 -1.7721,-1.2040 -2.2997 -1.2446l -0.3247,-0.3247 l 0.9740,-0.8928 c -1.0416,0.0135 -1.9751,-0.1082 -2.6650 -0.7981c -1.4610,-1.4610 -1.1093,-3.5984 0.5546 -5.2623c 1.0011,-1.0011 2.1103,-1.5692 3.2737 -1.5692c 1.0552,0.0271 1.9480,0.3247 2.8409 1.2175c 0.2706,0.2706 0.7440,0.9875 0.8793 1.4745l 2.0698,-2.0698 c 0.7711,-0.7711 0.8658,-1.1093 0.5952 -1.3798l -0.5005,-0.3923 c -0.0271,-0.0271 -0.0406,-0.0947 -0.0000 -0.1353l 0.3111,-0.3653 c 0.2164,0.2164 0.7846,0.6223 1.0552 0.8117c 0.3111,0.2029 0.5546,0.3382 0.9470 0.4870l 0.2976,0.2976 ZM 546.1509,365.0670 ZM 551.4403,362.8620 l 2.4891,2.4891 c 0.1353,0.1353 0.2570,0.1218 0.3788 -0.0000c 1.2581,-1.2581 0.9470,-2.2186 0.4599 -2.7056c -0.3111,-0.3111 -1.4475,-1.2040 -3.3279 0.2164ZM 551.4403,362.8620 ZM 552.5225,368.9225 l 0.0541,0.4870 c -1.2175,0.1894 -2.5162,-0.1082 -3.4902 -1.0822c -1.8533,-1.8533 -1.2581,-4.0178 0.2164 -5.4923c 2.0562,-2.0562 4.6401,-1.9345 5.9252 -0.6493c 1.7857,1.7857 0.8117,3.5984 -0.3247 4.7348c -0.1488,0.1488 -0.3247,0.1353 -0.4735 -0.0135l -3.5578,-3.5578 c -0.0947,0.0676 -0.1759,0.1488 -0.2841 0.2570c -1.3798,1.3798 -1.4881,3.4090 -0.5141 4.3830c 0.7440,0.7440 1.4610,0.9740 2.4485 0.9334ZM 551.9408,370.8569 ZM 554.1594,371.1275 l 4.3154,-4.3154 l -0.9334,-0.9334 c -0.0541,-0.0541 -0.0541,-0.0812 -0.0000 -0.1353l 0.1894,-0.1894 c 0.1082,-0.1082 0.3382,-0.2029 0.5817 0.0406l 0.6899,0.6899 l 0.5276,-0.5276 c 2.1103,-2.1103 4.1936,-2.0021 5.3300 -0.8658c 0.5141,0.5141 0.7305,1.0011 0.8387 1.5692c 0.0676,0.4735 -0.0406,0.8252 -0.2570 1.0416c -0.2841,0.2841 -0.6899,0.2841 -0.9470 0.0271c -0.2706,-0.2706 -0.2976,-0.5952 -0.1759 -0.9334c 0.2706,-0.6223 0.2300,-1.0958 -0.1759 -1.5016c -0.4464,-0.4464 -1.2851,-0.6358 -3.3684 1.4475l -0.7576,0.7576 l 1.4881,1.4881 c 0.0676,0.0676 0.0812,0.1353 0.0271 0.1894l -0.2706,0.2706 c -0.1218,0.1218 -0.3653,-0.0135 -0.4870 -0.1353l -1.2851,-1.2851 l -4.3154,4.3154 c -0.3923,0.3923 -0.4599,0.7305 -0.0135 1.1769l 0.4464,0.4464 c 0.0541,0.0541 0.0676,0.1488 0.0000 0.2164l -0.2570,0.2570 l -0.0541,0.0000 c 0.0000,-0.0000 -1.0822,-1.1363 -1.6098 -1.6639c -0.4870,-0.4870 -1.4340,-1.3798 -1.4340 -1.3798l -0.0000,-0.0541 l 0.2570,-0.2570 c 0.0676,-0.0676 0.1488,-0.0676 0.2164 -0.0000l 0.2570,0.2570 c 0.4599,0.4599 0.7846,0.3788 1.1769 -0.0135Z"/></g><g stroke-linejoin="miter" stroke-opacity="0.6" fill-opacity="0.0" stroke="rgb(0,0,0)" stroke-width="2.4267150714115107" fill="rgb(0,0,0)" stroke-linecap="butt" stroke-miterlimit="10.0"><path d="M 521.4490,315.2931 v 8.6521 "/></g><g stroke-linejoin="miter" stroke-opacity="1.0" fill-opacity="0.6" stroke="rgb(0,0,0)" fill-rule="evenodd" stroke-width="0.0" fill="rgb(0,0,0)" stroke-linecap="butt" stroke-miterlimit="10.0"><path d="M 478.1884,340.3651 ZM 485.4393,340.9874 l -1.3393,-0.7981 c -1.5557,-0.8252 -2.3538,-0.3788 -2.9626 0.2300c -0.4194,0.4194 -0.8523,1.2581 0.0000 2.1103c 0.4058,0.4058 1.4204,0.6358 2.0698 0.6899l 2.2321,-2.2321 ZM 485.4393,340.9874 ZM 482.8285,345.3299 c -0.5141,-0.5141 -0.3382,-1.2581 -0.0676 -1.6369l -0.5276,-0.0947 c -1.0552,-0.1894 -1.4204,-0.2841 -2.0427 -0.9064c -0.9470,-0.9470 -1.0958,-2.1780 -0.0812 -3.1926c 1.0281,-1.0281 2.6109,-0.8523 4.2207 0.1082l 1.5557,0.9334 c 1.5286,-1.5286 1.1093,-2.5162 0.6493 -2.9761c -0.5141,-0.5141 -1.3393,-0.8793 -1.7586 -0.4599c -0.1488,0.1488 -0.2029,0.2570 -0.2300 0.3111c -0.0271,0.0812 -0.1082,0.1894 -0.2029 0.2841c -0.1759,0.1759 -0.5817,0.3111 -0.9740 -0.0812c -0.3247,-0.3247 -0.3247,-0.7576 -0.0000 -1.0822c 0.7846,-0.7846 2.7462,-0.2029 3.6119 0.6629c 0.9875,0.9875 1.7180,2.5297 -0.2029 4.4507l -1.9886,1.9886 c -0.8252,0.8252 -1.1634,1.1905 -0.8523 1.5016c 0.2976,0.2976 0.7576,-0.0000 1.0687 -0.2841l 0.2706,0.4058 c -1.0687,0.9064 -1.7586,0.7576 -2.4485 0.0676ZM 484.2895,346.4662 ZM 487.0492,347.7378 c -0.0541,0.5952 0.1218,0.9875 0.5411 1.4069c 1.2851,1.2851 3.1249,0.7440 4.6671 -0.7981c 1.3798,-1.3798 1.6639,-3.0708 0.8387 -3.8960c -0.1488,-0.1488 -0.8793,-0.8252 -1.9615 -0.7981l -4.0854,4.0854 ZM 487.0492,347.7378 ZM 493.0420,339.7158 c 0.7711,-0.7711 0.8523,-1.1228 0.5817 -1.3934l -0.4870,-0.3788 c -0.0406,-0.0406 -0.0406,-0.0947 -0.0000 -0.1353l 0.3111,-0.3653 c 0.2164,0.2164 0.7846,0.6223 1.0552 0.8117c 0.2976,0.1894 0.5546,0.3382 0.9470 0.4870l 0.2976,0.2976 l -4.1936,4.1936 c 0.9605,-0.0406 1.7451,0.2570 2.3944 0.9064c 1.1769,1.1769 1.1769,3.4225 -0.4735 5.0729c -2.1509,2.1509 -4.8836,1.8533 -6.2634 0.4735c -0.5817,-0.5817 -0.8523,-1.1769 -0.9064 -1.9074c -0.2841,0.0406 -0.6629,0.0676 -0.9199 0.0812l -0.2164,-0.3517 c 0.3653,-0.2841 0.5817,-0.5005 1.1093 -1.0281l 6.7639,-6.7639 ZM 490.7558,352.9325 ZM 497.1815,356.8962 c -1.6233,0.4329 -2.6379,0.1488 -3.4496 -0.6629c -1.6233,-1.6233 -1.4069,-3.8690 0.3382 -5.6141c 1.9210,-1.9210 4.3695,-1.9615 5.8305 -0.5005c 1.2987,1.2987 1.3257,2.6515 0.6088 3.3684c -0.3923,0.3923 -0.8387,0.3517 -1.1228 0.0676c -0.2841,-0.2841 -0.4058,-0.7034 -0.1082 -1.0822c 0.3923,-0.5005 0.8928,-1.1634 0.0947 -1.9615c -0.8928,-0.8928 -2.5027,-0.6088 -3.9637 0.8523c -1.5828,1.5828 -1.8263,3.5308 -0.7846 4.5724c 0.5817,0.5817 1.4745,0.7170 2.5027 0.5276ZM 496.2075,358.3842 ZM 501.9298,361.6986 l 3.5037,-3.5037 c 0.1894,-0.8387 0.1082,-1.4881 -0.5276 -2.1239c -0.2706,-0.2706 -0.8658,-0.7846 -1.9345 -0.5817c -0.4735,0.0947 -1.2851,0.4464 -2.2592 1.4204c -1.7721,1.7721 -1.6639,3.5037 -0.9334 4.2342c 0.4464,0.4464 1.0822,0.5411 2.1509 0.5546ZM 501.9298,361.6986 ZM 511.1829,354.4747 l -7.8191,7.8191 c -0.4058,0.4058 -0.5952,0.6493 -0.6629 0.7711c -0.0812,0.1623 -0.0135,0.3923 0.0947 0.5005c 0.1623,0.1623 0.4599,0.4599 0.7034 0.6223l -0.3247,0.4329 c -0.9199,-0.6493 -1.7721,-1.2040 -2.2997 -1.2446l -0.3247,-0.3247 l 0.9740,-0.8928 c -1.0416,0.0135 -1.9751,-0.1082 -2.6650 -0.7981c -1.4610,-1.4610 -1.1093,-3.5984 0.5546 -5.2623c 1.0011,-1.0011 2.1103,-1.5692 3.2737 -1.5692c 1.0552,0.0271 1.9480,0.3247 2.8409 1.2175c 0.2706,0.2706 0.7440,0.9875 0.8793 1.4745l 2.0698,-2.0698 c 0.7711,-0.7711 0.8658,-1.1093 0.5952 -1.3798l -0.5005,-0.3923 c -0.0271,-0.0271 -0.0406,-0.0947 -0.0000 -0.1353l 0.3111,-0.3653 c 0.2164,0.2164 0.7846,0.6223 1.0552 0.8117c 0.3111,0.2029 0.5546,0.3382 0.9470 0.4870l 0.2976,0.2976 ZM 502.8903,365.0670 ZM 508.1797,362.8620 l 2.4891,2.4891 c 0.1353,0.1353 0.2570,0.1218 0.3788 -0.0000c 1.2581,-1.2581 0.9470,-2.2186 0.4599 -2.7056c -0.3111,-0.3111 -1.4475,-1.2040 -3.3279 0.2164ZM 508.1797,362.8620 ZM 509.2619,368.9225 l 0.0541,0.4870 c -1.2175,0.1894 -2.5162,-0.1082 -3.4902 -1.0822c -1.8533,-1.8533 -1.2581,-4.0178 0.2164 -5.4923c 2.0562,-2.0562 4.6401,-1.9345 5.9252 -0.6493c 1.7857,1.7857 0.8117,3.5984 -0.3247 4.7348c -0.1488,0.1488 -0.3247,0.1353 -0.4735 -0.0135l -3.5578,-3.5578 c -0.0947,0.0676 -0.1759,0.1488 -0.2841 0.2570c -1.3798,1.3798 -1.4881,3.4090 -0.5141 4.3830c 0.7440,0.7440 1.4610,0.9740 2.4485 0.9334ZM 508.6802,370.8569 ZM 510.8988,371.1275 l 4.3154,-4.3154 l -0.9334,-0.9334 c -0.0541,-0.0541 -0.0541,-0.0812 -0.0000 -0.1353l 0.1894,-0.1894 c 0.1082,-0.1082 0.3382,-0.2029 0.5817 0.0406l 0.6899,0.6899 l 0.5276,-0.5276 c 2.1103,-2.1103 4.1936,-2.0021 5.3300 -0.8658c 0.5141,0.5141 0.7305,1.0011 0.8387 1.5692c 0.0676,0.4735 -0.0406,0.8252 -0.2570 1.0416c -0.2841,0.2841 -0.6899,0.2841 -0.9470 0.0271c -0.2706,-0.2706 -0.2976,-0.5952 -0.1759 -0.9334c 0.2706,-0.6223 0.2300,-1.0958 -0.1759 -1.5016c -0.4464,-0.4464 -1.2851,-0.6358 -3.3684 1.4475l -0.7576,0.7576 l 1.4881,1.4881 c 0.0676,0.0676 0.0812,0.1353 0.0271 0.1894l -0.2706,0.2706 c -0.1218,0.1218 -0.3653,-0.0135 -0.4870 -0.1353l -1.2851,-1.2851 l -4.3154,4.3154 c -0.3923,0.3923 -0.4599,0.7305 -0.0135 1.1769l 0.4464,0.4464 c 0.0541,0.0541 0.0676,0.1488 0.0000 0.2164l -0.2570,0.2570 l -0.0541,0.0000 c 0.0000,-0.0000 -1.0822,-1.1363 -1.6098 -1.6639c -0.4870,-0.4870 -1.4340,-1.3798 -1.4340 -1.3798l -0.0000,-0.0541 l 0.2570,-0.2570 c 0.0676,-0.0676 0.1488,-0.0676 0.2164 -0.0000l 0.2570,0.2570 c 0.4599,0.4599 0.7846,0.3788 1.1769 -0.0135Z"/></g><g stroke-linejoin="miter" stroke-opacity="0.6" fill-opacity="0.0" stroke="rgb(0,0,0)" stroke-width="2.4267150714115107" fill="rgb(0,0,0)" stroke-linecap="butt" stroke-miterlimit="10.0"><path d="M 478.1884,315.2931 v 8.6521 "/></g><g stroke-linejoin="miter" stroke-opacity="1.0" fill-opacity="0.6" stroke="rgb(0,0,0)" fill-rule="evenodd" stroke-width="0.0" fill="rgb(0,0,0)" stroke-linecap="butt" stroke-miterlimit="10.0"><path d="M 434.9278,340.3651 ZM 442.1787,340.9874 l -1.3393,-0.7981 c -1.5557,-0.8252 -2.3538,-0.3788 -2.9626 0.2300c -0.4194,0.4194 -0.8523,1.2581 0.0000 2.1103c 0.4058,0.4058 1.4204,0.6358 2.0698 0.6899l 2.2321,-2.2321 ZM 442.1787,340.9874 ZM 439.5679,345.3299 c -0.5141,-0.5141 -0.3382,-1.2581 -0.0676 -1.6369l -0.5276,-0.0947 c -1.0552,-0.1894 -1.4204,-0.2841 -2.0427 -0.9064c -0.9470,-0.9470 -1.0958,-2.1780 -0.0812 -3.1926c 1.0281,-1.0281 2.6109,-0.8523 4.2207 0.1082l 1.5557,0.9334 c 1.5286,-1.5286 1.1093,-2.5162 0.6493 -2.9761c -0.5141,-0.5141 -1.3393,-0.8793 -1.7586 -0.4599c -0.1488,0.1488 -0.2029,0.2570 -0.2300 0.3111c -0.0271,0.0812 -0.1082,0.1894 -0.2029 0.2841c -0.1759,0.1759 -0.5817,0.3111 -0.9740 -0.0812c -0.3247,-0.3247 -0.3247,-0.7576 -0.0000 -1.0822c 0.7846,-0.7846 2.7462,-0.2029 3.6119 0.6629c 0.9875,0.9875 1.7180,2.5297 -0.2029 4.4507l -1.9886,1.9886 c -0.8252,0.8252 -1.1634,1.1905 -0.8523 1.5016c 0.2976,0.2976 0.7576,-0.0000 1.0687 -0.2841l 0.2706,0.4058 c -1.0687,0.9064 -1.7586,0.7576 -2.4485 0.0676ZM 441.0289,346.4662 ZM 443.7886,347.7378 c -0.0541,0.5952 0.1218,0.9875 0.5411 1.4069c 1.2851,1.2851 3.1249,0.7440 4.6671 -0.7981c 1.3798,-1.3798 1.6639,-3.0708 0.8387 -3.8960c -0.1488,-0.1488 -0.8793,-0.8252 -1.9615 -0.7981l -4.0854,4.0854 ZM 443.7886,347.7378 ZM 449.7814,339.7158 c 0.7711,-0.7711 0.8523,-1.1228 0.5817 -1.3934l -0.4870,-0.3788 c -0.0406,-0.0406 -0.0406,-0.0947 -0.0000 -0.1353l 0.3111,-0.3653 c 0.2164,0.2164 0.7846,0.6223 1.0552 0.8117c 0.2976,0.1894 0.5546,0.3382 0.9470 0.4870l 0.2976,0.2976 l -4.1936,4.1936 c 0.9605,-0.0406 1.7451,0.2570 2.3944 0.9064c 1.1769,1.1769 1.1769,3.4225 -0.4735 5.0729c -2.1509,2.1509 -4.8836,1.8533 -6.2634 0.4735c -0.5817,-0.5817 -0.8523,-1.1769 -0.9064 -1.9074c -0.2841,0.0406 -0.6629,0.0676 -0.9199 0.0812l -0.2164,-0.3517 c 0.3653,-0.2841 0.5817,-0.5005 1.1093 -1.0281l 6.7639,-6.7639 ZM 447.4952,352.9325 ZM 453.9209,356.8962 c -1.6233,0.4329 -2.6379,0.1488 -3.4496 -0.6629c -1.6233,-1.6233 -1.4069,-3.8690 0.3382 -5.6141c 1.9210,-1.9210 4.3695,-1.9615 5.8305 -0.5005c 1.2987,1.2987 1.3257,2.6515 0.6088 3.3684c -0.3923,0.3923 -0.8387,0.3517 -1.1228 0.0676c -0.2841,-0.2841 -0.4058,-0.7034 -0.1082 -1.0822c 0.3923,-0.5005 0.8928,-1.1634 0.0947 -1.9615c -0.8928,-0.8928 -2.5027,-0.6088 -3.9637 0.8523c -1.5828,1.5828 -1.8263,3.5308 -0.7846 4.5724c 0.5817,0.5817 1.4745,0.7170 2.5027 0.5276ZM 452.9469,358.3842 ZM 458.6692,361.6986 l 3.5037,-3.5037 c 0.1894,-0.8387 0.1082,-1.4881 -0.5276 -2.1239c -0.2706,-0.2706 -0.8658,-0.7846 -1.9345 -0.5817c -0.4735,0.0947 -1.2851,0.4464 -2.2592 1.4204c -1.7721,1.7721 -1.6639,3.5037 -0.9334 4.2342c 0.4464,0.4464 1.0822,0.5411 2.1509 0.5546ZM 458.6692,361.6986 ZM 467.9222,354.4747 l -7.8191,7.8191 c -0.4058,0.4058 -0.5952,0.6493 -0.6629 0.7711c -0.0812,0.1623 -0.0135,0.3923 0.0947 0.5005c 0.1623,0.1623 0.4599,0.4599 0.7034 0.6223l -0.3247,0.4329 c -0.9199,-0.6493 -1.7721,-1.2040 -2.2997 -1.2446l -0.3247,-0.3247 l 0.9740,-0.8928 c -1.0416,0.0135 -1.9751,-0.1082 -2.6650 -0.7981c -1.4610,-1.4610 -1.1093,-3.5984 0.5546 -5.2623c 1.0011,-1.0011 2.1103,-1.5692 3.2737 -1.5692c 1.0552,0.0271 1.9480,0.3247 2.8409 1.2175c 0.2706,0.2706 0.7440,0.9875 0.8793 1.4745l 2.0698,-2.0698 c 0.7711,-0.7711 0.8658,-1.1093 0.5952 -1.3798l -0.5005,-0.3923 c -0.0271,-0.0271 -0.0406,-0.0947 -0.0000 -0.1353l 0.3111,-0.3653 c 0.2164,0.2164 0.7846,0.6223 1.0552 0.8117c 0.3111,0.2029 0.5546,0.3382 0.9470 0.4870l 0.2976,0.2976 ZM 459.6297,365.0670 ZM 464.9191,362.8620 l 2.4891,2.4891 c 0.1353,0.1353 0.2570,0.1218 0.3788 -0.0000c 1.2581,-1.2581 0.9470,-2.2186 0.4599 -2.7056c -0.3111,-0.3111 -1.4475,-1.2040 -3.3279 0.2164ZM 464.9191,362.8620 ZM 466.0013,368.9225 l 0.0541,0.4870 c -1.2175,0.1894 -2.5162,-0.1082 -3.4902 -1.0822c -1.8533,-1.8533 -1.2581,-4.0178 0.2164 -5.4923c 2.0562,-2.0562 4.6401,-1.9345 5.9252 -0.6493c 1.7857,1.7857 0.8117,3.5984 -0.3247 4.7348c -0.1488,0.1488 -0.3247,0.1353 -0.4735 -0.0135l -3.5578,-3.5578 c -0.0947,0.0676 -0.1759,0.1488 -0.2841 0.2570c -1.3798,1.3798 -1.4881,3.4090 -0.5141 4.3830c 0.7440,0.7440 1.4610,0.9740 2.4485 0.9334ZM 465.4196,370.8569 ZM 467.6382,371.1275 l 4.3154,-4.3154 l -0.9334,-0.9334 c -0.0541,-0.0541 -0.0541,-0.0812 -0.0000 -0.1353l 0.1894,-0.1894 c 0.1082,-0.1082 0.3382,-0.2029 0.5817 0.0406l 0.6899,0.6899 l 0.5276,-0.5276 c 2.1103,-2.1103 4.1936,-2.0021 5.3300 -0.8658c 0.5141,0.5141 0.7305,1.0011 0.8387 1.5692c 0.0676,0.4735 -0.0406,0.8252 -0.2570 1.0416c -0.2841,0.2841 -0.6899,0.2841 -0.9470 0.0271c -0.2706,-0.2706 -0.2976,-0.5952 -0.1759 -0.9334c 0.2706,-0.6223 0.2300,-1.0958 -0.1759 -1.5016c -0.4464,-0.4464 -1.2851,-0.6358 -3.3684 1.4475l -0.7576,0.7576 l 1.4881,1.4881 c 0.0676,0.0676 0.0812,0.1353 0.0271 0.1894l -0.2706,0.2706 c -0.1218,0.1218 -0.3653,-0.0135 -0.4870 -0.1353l -1.2851,-1.2851 l -4.3154,4.3154 c -0.3923,0.3923 -0.4599,0.7305 -0.0135 1.1769l 0.4464,0.4464 c 0.0541,0.0541 0.0676,0.1488 0.0000 0.2164l -0.2570,0.2570 l -0.0541,0.0000 c 0.0000,-0.0000 -1.0822,-1.1363 -1.6098 -1.6639c -0.4870,-0.4870 -1.4340,-1.3798 -1.4340 -1.3798l -0.0000,-0.0541 l 0.2570,-0.2570 c 0.0676,-0.0676 0.1488,-0.0676 0.2164 -0.0000l 0.2570,0.2570 c 0.4599,0.4599 0.7846,0.3788 1.1769 -0.0135Z"/></g><g stroke-linejoin="miter" stroke-opacity="0.6" fill-opacity="0.0" stroke="rgb(0,0,0)" stroke-width="2.4267150714115107" fill="rgb(0,0,0)" stroke-linecap="butt" stroke-miterlimit="10.0"><path d="M 434.9278,315.2931 v 8.6521 "/></g><g stroke-linejoin="miter" stroke-opacity="1.0" fill-opacity="0.6" stroke="rgb(0,0,0)" fill-rule="evenodd" stroke-width="0.0" fill="rgb(0,0,0)" stroke-linecap="butt" stroke-miterlimit="10.0"><path d="M 391.6672,340.3651 ZM 398.9181,340.9874 l -1.3393,-0.7981 c -1.5557,-0.8252 -2.3538,-0.3788 -2.9626 0.2300c -0.4194,0.4194 -0.8523,1.2581 0.0000 2.1103c 0.4058,0.4058 1.4204,0.6358 2.0698 0.6899l 2.2321,-2.2321 ZM 398.9181,340.9874 ZM 396.3073,345.3299 c -0.5141,-0.5141 -0.3382,-1.2581 -0.0676 -1.6369l -0.5276,-0.0947 c -1.0552,-0.1894 -1.4204,-0.2841 -2.0427 -0.9064c -0.9470,-0.9470 -1.0958,-2.1780 -0.0812 -3.1926c 1.0281,-1.0281 2.6109,-0.8523 4.2207 0.1082l 1.5557,0.9334 c 1.5286,-1.5286 1.1093,-2.5162 0.6493 -2.9761c -0.5141,-0.5141 -1.3393,-0.8793 -1.7586 -0.4599c -0.1488,0.1488 -0.2029,0.2570 -0.2300 0.3111c -0.0271,0.0812 -0.1082,0.1894 -0.2029 0.2841c -0.1759,0.1759 -0.5817,0.3111 -0.9740 -0.0812c -0.3247,-0.3247 -0.3247,-0.7576 -0.0000 -1.0822c 0.7846,-0.7846 2.7462,-0.2029 3.6119 0.6629c 0.9875,0.9875 1.7180,2.5297 -0.2029 4.4507l -1.9886,1.9886 c -0.8252,0.8252 -1.1634,1.1905 -0.8523 1.5016c 0.2976,0.2976 0.7576,-0.0000 1.0687 -0.2841l 0.2706,0.4058 c -1.0687,0.9064 -1.7586,0.7576 -2.4485 0.0676ZM 397.7683,346.4662 ZM 400.5279,347.7378 c -0.0541,0.5952 0.1218,0.9875 0.5411 1.4069c 1.2851,1.2851 3.1249,0.7440 4.6671 -0.7981c 1.3798,-1.3798 1.6639,-3.0708 0.8387 -3.8960c -0.1488,-0.1488 -0.8793,-0.8252 -1.9615 -0.7981l -4.0854,4.0854 ZM 400.5279,347.7378 ZM 406.5208,339.7158 c 0.7711,-0.7711 0.8523,-1.1228 0.5817 -1.3934l -0.4870,-0.3788 c -0.0406,-0.0406 -0.0406,-0.0947 -0.0000 -0.1353l 0.3111,-0.3653 c 0.2164,0.2164 0.7846,0.6223 1.0552 0.8117c 0.2976,0.1894 0.5546,0.3382 0.9470 0.4870l 0.2976,0.2976 l -4.1936,4.1936 c 0.9605,-0.0406 1.7451,0.2570 2.3944 0.9064c 1.1769,1.1769 1.1769,3.4225 -0.4735 5.0729c -2.1509,2.1509 -4.8836,1.8533 -6.2634 0.4735c -0.5817,-0.5817 -0.8523,-1.1769 -0.9064 -1.9074c -0.2841,0.0406 -0.6629,0.0676 -0.9199 0.0812l -0.2164,-0.3517 c 0.3653,-0.2841 0.5817,-0.5005 1.1093 -1.0281l 6.7639,-6.7639 ZM 404.2346,352.9325 ZM 410.6603,356.8962 c -1.6233,0.4329 -2.6379,0.1488 -3.4496 -0.6629c -1.6233,-1.6233 -1.4069,-3.8690 0.3382 -5.6141c 1.9210,-1.9210 4.3695,-1.9615 5.8305 -0.5005c 1.2987,1.2987 1.3257,2.6515 0.6088 3.3684c -0.3923,0.3923 -0.8387,0.3517 -1.1228 0.0676c -0.2841,-0.2841 -0.4058,-0.7034 -0.1082 -1.0822c 0.3923,-0.5005 0.8928,-1.1634 0.0947 -1.9615c -0.8928,-0.8928 -2.5027,-0.6088 -3.9637 0.8523c -1.5828,1.5828 -1.8263,3.5308 -0.7846 4.5724c 0.5817,0.5817 1.4745,0.7170 2.5027 0.5276ZM 409.6863,358.3842 ZM 415.4086,361.6986 l 3.5037,-3.5037 c 0.1894,-0.8387 0.1082,-1.4881 -0.5276 -2.1239c -0.2706,-0.2706 -0.8658,-0.7846 -1.9345 -0.5817c -0.4735,0.0947 -1.2851,0.4464 -2.2592 1.4204c -1.7721,1.7721 -1.6639,3.5037 -0.9334 4.2342c 0.4464,0.4464 1.0822,0.5411 2.1509 0.5546ZM 415.4086,361.6986 ZM 424.6616,354.4747 l -7.8191,7.8191 c -0.4058,0.4058 -0.5952,0.6493 -0.6629 0.7711c -0.0812,0.1623 -0.0135,0.3923 0.0947 0.5005c 0.1623,0.1623 0.4599,0.4599 0.7034 0.6223l -0.3247,0.4329 c -0.9199,-0.6493 -1.7721,-1.2040 -2.2997 -1.2446l -0.3247,-0.3247 l 0.9740,-0.8928 c -1.0416,0.0135 -1.9751,-0.1082 -2.6650 -0.7981c -1.4610,-1.4610 -1.1093,-3.5984 0.5546 -5.2623c 1.0011,-1.0011 2.1103,-1.5692 3.2737 -1.5692c 1.0552,0.0271 1.9480,0.3247 2.8409 1.2175c 0.2706,0.2706 0.7440,0.9875 0.8793 1.4745l 2.0698,-2.0698 c 0.7711,-0.7711 0.8658,-1.1093 0.5952 -1.3798l -0.5005,-0.3923 c -0.0271,-0.0271 -0.0406,-0.0947 -0.0000 -0.1353l 0.3111,-0.3653 c 0.2164,0.2164 0.7846,0.6223 1.0552 0.8117c 0.3111,0.2029 0.5546,0.3382 0.9470 0.4870l 0.2976,0.2976 ZM 416.3691,365.0670 ZM 421.6585,362.8620 l 2.4891,2.4891 c 0.1353,0.1353 0.2570,0.1218 0.3788 -0.0000c 1.2581,-1.2581 0.9470,-2.2186 0.4599 -2.7056c -0.3111,-0.3111 -1.4475,-1.2040 -3.3279 0.2164ZM 421.6585,362.8620 ZM 422.7407,368.9225 l 0.0541,0.4870 c -1.2175,0.1894 -2.5162,-0.1082 -3.4902 -1.0822c -1.8533,-1.8533 -1.2581,-4.0178 0.2164 -5.4923c 2.0562,-2.0562 4.6401,-1.9345 5.9252 -0.6493c 1.7857,1.7857 0.8117,3.5984 -0.3247 4.7348c -0.1488,0.1488 -0.3247,0.1353 -0.4735 -0.0135l -3.5578,-3.5578 c -0.0947,0.0676 -0.1759,0.1488 -0.2841 0.2570c -1.3798,1.3798 -1.4881,3.4090 -0.5141 4.3830c 0.7440,0.7440 1.4610,0.9740 2.4485 0.9334ZM 422.1590,370.8569 ZM 424.3776,371.1275 l 4.3154,-4.3154 l -0.9334,-0.9334 c -0.0541,-0.0541 -0.0541,-0.0812 -0.0000 -0.1353l 0.1894,-0.1894 c 0.1082,-0.1082 0.3382,-0.2029 0.5817 0.0406l 0.6899,0.6899 l 0.5276,-0.5276 c 2.1103,-2.1103 4.1936,-2.0021 5.3300 -0.8658c 0.5141,0.5141 0.7305,1.0011 0.8387 1.5692c 0.0676,0.4735 -0.0406,0.8252 -0.2570 1.0416c -0.2841,0.2841 -0.6899,0.2841 -0.9470 0.0271c -0.2706,-0.2706 -0.2976,-0.5952 -0.1759 -0.9334c 0.2706,-0.6223 0.2300,-1.0958 -0.1759 -1.5016c -0.4464,-0.4464 -1.2851,-0.6358 -3.3684 1.4475l -0.7576,0.7576 l 1.4881,1.4881 c 0.0676,0.0676 0.0812,0.1353 0.0271 0.1894l -0.2706,0.2706 c -0.1218,0.1218 -0.3653,-0.0135 -0.4870 -0.1353l -1.2851,-1.2851 l -4.3154,4.3154 c -0.3923,0.3923 -0.4599,0.7305 -0.0135 1.1769l 0.4464,0.4464 c 0.0541,0.0541 0.0676,0.1488 0.0000 0.2164l -0.2570,0.2570 l -0.0541,0.0000 c 0.0000,-0.0000 -1.0822,-1.1363 -1.6098 -1.6639c -0.4870,-0.4870 -1.4340,-1.3798 -1.4340 -1.3798l -0.0000,-0.0541 l 0.2570,-0.2570 c 0.0676,-0.0676 0.1488,-0.0676 0.2164 -0.0000l 0.2570,0.2570 c 0.4599,0.4599 0.7846,0.3788 1.1769 -0.0135Z"/></g><g stroke-linejoin="miter" stroke-opacity="0.6" fill-opacity="0.0" stroke="rgb(0,0,0)" stroke-width="2.4267150714115107" fill="rgb(0,0,0)" stroke-linecap="butt" stroke-miterlimit="10.0"><path d="M 391.6672,315.2931 v 8.6521 "/></g><g stroke-linejoin="miter" stroke-opacity="1.0" fill-opacity="0.6" stroke="rgb(0,0,0)" fill-rule="evenodd" stroke-width="0.0" fill="rgb(0,0,0)" stroke-linecap="butt" stroke-miterlimit="10.0"><path d="M 348.4066,340.3651 ZM 355.6575,340.9874 l -1.3393,-0.7981 c -1.5557,-0.8252 -2.3538,-0.3788 -2.9626 0.2300c -0.4194,0.4194 -0.8523,1.2581 0.0000 2.1103c 0.4058,0.4058 1.4204,0.6358 2.0698 0.6899l 2.2321,-2.2321 ZM 355.6575,340.9874 ZM 353.0466,345.3299 c -0.5141,-0.5141 -0.3382,-1.2581 -0.0676 -1.6369l -0.5276,-0.0947 c -1.0552,-0.1894 -1.4204,-0.2841 -2.0427 -0.9064c -0.9470,-0.9470 -1.0958,-2.1780 -0.0812 -3.1926c 1.0281,-1.0281 2.6109,-0.8523 4.2207 0.1082l 1.5557,0.9334 c 1.5286,-1.5286 1.1093,-2.5162 0.6493 -2.9761c -0.5141,-0.5141 -1.3393,-0.8793 -1.7586 -0.4599c -0.1488,0.1488 -0.2029,0.2570 -0.2300 0.3111c -0.0271,0.0812 -0.1082,0.1894 -0.2029 0.2841c -0.1759,0.1759 -0.5817,0.3111 -0.9740 -0.0812c -0.3247,-0.3247 -0.3247,-0.7576 -0.0000 -1.0822c 0.7846,-0.7846 2.7462,-0.2029 3.6119 0.6629c 0.9875,0.9875 1.7180,2.5297 -0.2029 4.4507l -1.9886,1.9886 c -0.8252,0.8252 -1.1634,1.1905 -0.8523 1.5016c 0.2976,0.2976 0.7576,-0.0000 1.0687 -0.2841l 0.2706,0.4058 c -1.0687,0.9064 -1.7586,0.7576 -2.4485 0.0676ZM 354.5077,346.4662 ZM 357.2673,347.7378 c -0.0541,0.5952 0.1218,0.9875 0.5411 1.4069c 1.2851,1.2851 3.1249,0.7440 4.6671 -0.7981c 1.3798,-1.3798 1.6639,-3.0708 0.8387 -3.8960c -0.1488,-0.1488 -0.8793,-0.8252 -1.9615 -0.7981l -4.0854,4.0854 ZM 357.2673,347.7378 ZM 363.2602,339.7158 c 0.7711,-0.7711 0.8523,-1.1228 0.5817 -1.3934l -0.4870,-0.3788 c -0.0406,-0.0406 -0.0406,-0.0947 -0.0000 -0.1353l 0.3111,-0.3653 c 0.2164,0.2164 0.7846,0.6223 1.0552 0.8117c 0.2976,0.1894 0.5546,0.3382 0.9470 0.4870l 0.2976,0.2976 l -4.1936,4.1936 c 0.9605,-0.0406 1.7451,0.2570 2.3944 0.9064c 1.1769,1.1769 1.1769,3.4225 -0.4735 5.0729c -2.1509,2.1509 -4.8836,1.8533 -6.2634 0.4735c -0.5817,-0.5817 -0.8523,-1.1769 -0.9064 -1.9074c -0.2841,0.0406 -0.6629,0.0676 -0.9199 0.0812l -0.2164,-0.3517 c 0.3653,-0.2841 0.5817,-0.5005 1.1093 -1.0281l 6.7639,-6.7639 ZM 360.9740,352.9325 ZM 367.3997,356.8962 c -1.6233,0.4329 -2.6379,0.1488 -3.4496 -0.6629c -1.6233,-1.6233 -1.4069,-3.8690 0.3382 -5.6141c 1.9210,-1.9210 4.3695,-1.9615 5.8305 -0.5005c 1.2987,1.2987 1.3257,2.6515 0.6088 3.3684c -0.3923,0.3923 -0.8387,0.3517 -1.1228 0.0676c -0.2841,-0.2841 -0.4058,-0.7034 -0.1082 -1.0822c 0.3923,-0.5005 0.8928,-1.1634 0.0947 -1.9615c -0.8928,-0.8928 -2.5027,-0.6088 -3.9637 0.8523c -1.5828,1.5828 -1.8263,3.5308 -0.7846 4.5724c 0.5817,0.5817 1.4745,0.7170 2.5027 0.5276ZM 366.4257,358.3842 ZM 372.1480,361.6986 l 3.5037,-3.5037 c 0.1894,-0.8387 0.1082,-1.4881 -0.5276 -2.1239c -0.2706,-0.2706 -0.8658,-0.7846 -1.9345 -0.5817c -0.4735,0.0947 -1.2851,0.4464 -2.2592 1.4204c -1.7721,1.7721 -1.6639,3.5037 -0.9334 4.2342c 0.4464,0.4464 1.0822,0.5411 2.1509 0.5546ZM 372.1480,361.6986 ZM 381.4010,354.4747 l -7.8191,7.8191 c -0.4058,0.4058 -0.5952,0.6493 -0.6629 0.7711c -0.0812,0.1623 -0.0135,0.3923 0.0947 0.5005c 0.1623,0.1623 0.4599,0.4599 0.7034 0.6223l -0.3247,0.4329 c -0.9199,-0.6493 -1.7721,-1.2040 -2.2997 -1.2446l -0.3247,-0.3247 l 0.9740,-0.8928 c -1.0416,0.0135 -1.9751,-0.1082 -2.6650 -0.7981c -1.4610,-1.4610 -1.1093,-3.5984 0.5546 -5.2623c 1.0011,-1.0011 2.1103,-1.5692 3.2737 -1.5692c 1.0552,0.0271 1.9480,0.3247 2.8409 1.2175c 0.2706,0.2706 0.7440,0.9875 0.8793 1.4745l 2.0698,-2.0698 c 0.7711,-0.7711 0.8658,-1.1093 0.5952 -1.3798l -0.5005,-0.3923 c -0.0271,-0.0271 -0.0406,-0.0947 -0.0000 -0.1353l 0.3111,-0.3653 c 0.2164,0.2164 0.7846,0.6223 1.0552 0.8117c 0.3111,0.2029 0.5546,0.3382 0.9470 0.4870l 0.2976,0.2976 ZM 373.1085,365.0670 ZM 378.3979,362.8620 l 2.4891,2.4891 c 0.1353,0.1353 0.2570,0.1218 0.3788 -0.0000c 1.2581,-1.2581 0.9470,-2.2186 0.4599 -2.7056c -0.3111,-0.3111 -1.4475,-1.2040 -3.3279 0.2164ZM 378.3979,362.8620 ZM 379.4801,368.9225 l 0.0541,0.4870 c -1.2175,0.1894 -2.5162,-0.1082 -3.4902 -1.0822c -1.8533,-1.8533 -1.2581,-4.0178 0.2164 -5.4923c 2.0562,-2.0562 4.6401,-1.9345 5.9252 -0.6493c 1.7857,1.7857 0.8117,3.5984 -0.3247 4.7348c -0.1488,0.1488 -0.3247,0.1353 -0.4735 -0.0135l -3.5578,-3.5578 c -0.0947,0.0676 -0.1759,0.1488 -0.2841 0.2570c -1.3798,1.3798 -1.4881,3.4090 -0.5141 4.3830c 0.7440,0.7440 1.4610,0.9740 2.4485 0.9334ZM 378.8984,370.8569 ZM 381.1170,371.1275 l 4.3154,-4.3154 l -0.9334,-0.9334 c -0.0541,-0.0541 -0.0541,-0.0812 -0.0000 -0.1353l 0.1894,-0.1894 c 0.1082,-0.1082 0.3382,-0.2029 0.5817 0.0406l 0.6899,0.6899 l 0.5276,-0.5276 c 2.1103,-2.1103 4.1936,-2.0021 5.3300 -0.8658c 0.5141,0.5141 0.7305,1.0011 0.8387 1.5692c 0.0676,0.4735 -0.0406,0.8252 -0.2570 1.0416c -0.2841,0.2841 -0.6899,0.2841 -0.9470 0.0271c -0.2706,-0.2706 -0.2976,-0.5952 -0.1759 -0.9334c 0.2706,-0.6223 0.2300,-1.0958 -0.1759 -1.5016c -0.4464,-0.4464 -1.2851,-0.6358 -3.3684 1.4475l -0.7576,0.7576 l 1.4881,1.4881 c 0.0676,0.0676 0.0812,0.1353 0.0271 0.1894l -0.2706,0.2706 c -0.1218,0.1218 -0.3653,-0.0135 -0.4870 -0.1353l -1.2851,-1.2851 l -4.3154,4.3154 c -0.3923,0.3923 -0.4599,0.7305 -0.0135 1.1769l 0.4464,0.4464 c 0.0541,0.0541 0.0676,0.1488 0.0000 0.2164l -0.2570,0.2570 l -0.0541,0.0000 c 0.0000,-0.0000 -1.0822,-1.1363 -1.6098 -1.6639c -0.4870,-0.4870 -1.4340,-1.3798 -1.4340 -1.3798l -0.0000,-0.0541 l 0.2570,-0.2570 c 0.0676,-0.0676 0.1488,-0.0676 0.2164 -0.0000l 0.2570,0.2570 c 0.4599,0.4599 0.7846,0.3788 1.1769 -0.0135Z"/></g><g stroke-linejoin="miter" stroke-opacity="0.6" fill-opacity="0.0" stroke="rgb(0,0,0)" stroke-width="2.4267150714115107" fill="rgb(0,0,0)" stroke-linecap="butt" stroke-miterlimit="10.0"><path d="M 348.4066,315.2931 v 8.6521 "/></g><g stroke-linejoin="miter" stroke-opacity="1.0" fill-opacity="0.6" stroke="rgb(0,0,0)" fill-rule="evenodd" stroke-width="0.0" fill="rgb(0,0,0)" stroke-linecap="butt" stroke-miterlimit="10.0"><path d="M 305.1460,340.3651 ZM 312.3969,340.9874 l -1.3393,-0.7981 c -1.5557,-0.8252 -2.3538,-0.3788 -2.9626 0.2300c -0.4194,0.4194 -0.8523,1.2581 0.0000 2.1103c 0.4058,0.4058 1.4204,0.6358 2.0698 0.6899l 2.2321,-2.2321 ZM 312.3969,340.9874 ZM 309.7860,345.3299 c -0.5141,-0.5141 -0.3382,-1.2581 -0.0676 -1.6369l -0.5276,-0.0947 c -1.0552,-0.1894 -1.4204,-0.2841 -2.0427 -0.9064c -0.9470,-0.9470 -1.0958,-2.1780 -0.0812 -3.1926c 1.0281,-1.0281 2.6109,-0.8523 4.2207 0.1082l 1.5557,0.9334 c 1.5286,-1.5286 1.1093,-2.5162 0.6493 -2.9761c -0.5141,-0.5141 -1.3393,-0.8793 -1.7586 -0.4599c -0.1488,0.1488 -0.2029,0.2570 -0.2300 0.3111c -0.0271,0.0812 -0.1082,0.1894 -0.2029 0.2841c -0.1759,0.1759 -0.5817,0.3111 -0.9740 -0.0812c -0.3247,-0.3247 -0.3247,-0.7576 -0.0000 -1.0822c 0.7846,-0.7846 2.7462,-0.2029 3.6119 0.6629c 0.9875,0.9875 1.7180,2.5297 -0.2029 4.4507l -1.9886,1.9886 c -0.8252,0.8252 -1.1634,1.1905 -0.8523 1.5016c 0.2976,0.2976 0.7576,-0.0000 1.0687 -0.2841l 0.2706,0.4058 c -1.0687,0.9064 -1.7586,0.7576 -2.4485 0.0676ZM 311.2470,346.4662 ZM 314.0067,347.7378 c -0.0541,0.5952 0.1218,0.9875 0.5411 1.4069c 1.2851,1.2851 3.1249,0.7440 4.6671 -0.7981c 1.3798,-1.3798 1.6639,-3.0708 0.8387 -3.8960c -0.1488,-0.1488 -0.8793,-0.8252 -1.9615 -0.7981l -4.0854,4.0854 ZM 314.0067,347.7378 ZM 319.9996,339.7158 c 0.7711,-0.7711 0.8523,-1.1228 0.5817 -1.3934l -0.4870,-0.3788 c -0.0406,-0.0406 -0.0406,-0.0947 -0.0000 -0.1353l 0.3111,-0.3653 c 0.2164,0.2164 0.7846,0.6223 1.0552 0.8117c 0.2976,0.1894 0.5546,0.3382 0.9470 0.4870l 0.2976,0.2976 l -4.1936,4.1936 c 0.9605,-0.0406 1.7451,0.2570 2.3944 0.9064c 1.1769,1.1769 1.1769,3.4225 -0.4735 5.0729c -2.1509,2.1509 -4.8836,1.8533 -6.2634 0.4735c -0.5817,-0.5817 -0.8523,-1.1769 -0.9064 -1.9074c -0.2841,0.0406 -0.6629,0.0676 -0.9199 0.0812l -0.2164,-0.3517 c 0.3653,-0.2841 0.5817,-0.5005 1.1093 -1.0281l 6.7639,-6.7639 ZM 317.7134,352.9325 ZM 324.1391,356.8962 c -1.6233,0.4329 -2.6379,0.1488 -3.4496 -0.6629c -1.6233,-1.6233 -1.4069,-3.8690 0.3382 -5.6141c 1.9210,-1.9210 4.3695,-1.9615 5.8305 -0.5005c 1.2987,1.2987 1.3257,2.6515 0.6088 3.3684c -0.3923,0.3923 -0.8387,0.3517 -1.1228 0.0676c -0.2841,-0.2841 -0.4058,-0.7034 -0.1082 -1.0822c 0.3923,-0.5005 0.8928,-1.1634 0.0947 -1.9615c -0.8928,-0.8928 -2.5027,-0.6088 -3.9637 0.8523c -1.5828,1.5828 -1.8263,3.5308 -0.7846 4.5724c 0.5817,0.5817 1.4745,0.7170 2.5027 0.5276ZM 323.1651,358.3842 ZM 328.8874,361.6986 l 3.5037,-3.5037 c 0.1894,-0.8387 0.1082,-1.4881 -0.5276 -2.1239c -0.2706,-0.2706 -0.8658,-0.7846 -1.9345 -0.5817c -0.4735,0.0947 -1.2851,0.4464 -2.2592 1.4204c -1.7721,1.7721 -1.6639,3.5037 -0.9334 4.2342c 0.4464,0.4464 1.0822,0.5411 2.1509 0.5546ZM 328.8874,361.6986 ZM 338.1404,354.4747 l -7.8191,7.8191 c -0.4058,0.4058 -0.5952,0.6493 -0.6629 0.7711c -0.0812,0.1623 -0.0135,0.3923 0.0947 0.5005c 0.1623,0.1623 0.4599,0.4599 0.7034 0.6223l -0.3247,0.4329 c -0.9199,-0.6493 -1.7721,-1.2040 -2.2997 -1.2446l -0.3247,-0.3247 l 0.9740,-0.8928 c -1.0416,0.0135 -1.9751,-0.1082 -2.6650 -0.7981c -1.4610,-1.4610 -1.1093,-3.5984 0.5546 -5.2623c 1.0011,-1.0011 2.1103,-1.5692 3.2737 -1.5692c 1.0552,0.0271 1.9480,0.3247 2.8409 1.2175c 0.2706,0.2706 0.7440,0.9875 0.8793 1.4745l 2.0698,-2.0698 c 0.7711,-0.7711 0.8658,-1.1093 0.5952 -1.3798l -0.5005,-0.3923 c -0.0271,-0.0271 -0.0406,-0.0947 -0.0000 -0.1353l 0.3111,-0.3653 c 0.2164,0.2164 0.7846,0.6223 1.0552 0.8117c 0.3111,0.2029 0.5546,0.3382 0.9470 0.4870l 0.2976,0.2976 ZM 329.8479,365.0670 ZM 335.1372,362.8620 l 2.4891,2.4891 c 0.1353,0.1353 0.2570,0.1218 0.3788 -0.0000c 1.2581,-1.2581 0.9470,-2.2186 0.4599 -2.7056c -0.3111,-0.3111 -1.4475,-1.2040 -3.3279 0.2164ZM 335.1372,362.8620 ZM 336.2195,368.9225 l 0.0541,0.4870 c -1.2175,0.1894 -2.5162,-0.1082 -3.4902 -1.0822c -1.8533,-1.8533 -1.2581,-4.0178 0.2164 -5.4923c 2.0562,-2.0562 4.6401,-1.9345 5.9252 -0.6493c 1.7857,1.7857 0.8117,3.5984 -0.3247 4.7348c -0.1488,0.1488 -0.3247,0.1353 -0.4735 -0.0135l -3.5578,-3.5578 c -0.0947,0.0676 -0.1759,0.1488 -0.2841 0.2570c -1.3798,1.3798 -1.4881,3.4090 -0.5141 4.3830c 0.7440,0.7440 1.4610,0.9740 2.4485 0.9334ZM 335.6378,370.8569 ZM 337.8563,371.1275 l 4.3154,-4.3154 l -0.9334,-0.9334 c -0.0541,-0.0541 -0.0541,-0.0812 -0.0000 -0.1353l 0.1894,-0.1894 c 0.1082,-0.1082 0.3382,-0.2029 0.5817 0.0406l 0.6899,0.6899 l 0.5276,-0.5276 c 2.1103,-2.1103 4.1936,-2.0021 5.3300 -0.8658c 0.5141,0.5141 0.7305,1.0011 0.8387 1.5692c 0.0676,0.4735 -0.0406,0.8252 -0.2570 1.0416c -0.2841,0.2841 -0.6899,0.2841 -0.9470 0.0271c -0.2706,-0.2706 -0.2976,-0.5952 -0.1759 -0.9334c 0.2706,-0.6223 0.2300,-1.0958 -0.1759 -1.5016c -0.4464,-0.4464 -1.2851,-0.6358 -3.3684 1.4475l -0.7576,0.7576 l 1.4881,1.4881 c 0.0676,0.0676 0.0812,0.1353 0.0271 0.1894l -0.2706,0.2706 c -0.1218,0.1218 -0.3653,-0.0135 -0.4870 -0.1353l -1.2851,-1.2851 l -4.3154,4.3154 c -0.3923,0.3923 -0.4599,0.7305 -0.0135 1.1769l 0.4464,0.4464 c 0.0541,0.0541 0.0676,0.1488 0.0000 0.2164l -0.2570,0.2570 l -0.0541,0.0000 c 0.0000,-0.0000 -1.0822,-1.1363 -1.6098 -1.6639c -0.4870,-0.4870 -1.4340,-1.3798 -1.4340 -1.3798l -0.0000,-0.0541 l 0.2570,-0.2570 c 0.0676,-0.0676 0.1488,-0.0676 0.2164 -0.0000l 0.2570,0.2570 c 0.4599,0.4599 0.7846,0.3788 1.1769 -0.0135Z"/></g><g stroke-linejoin="miter" stroke-opacity="0.6" fill-opacity="0.0" stroke="rgb(0,0,0)" stroke-width="2.4267150714115107" fill="rgb(0,0,0)" stroke-linecap="butt" stroke-miterlimit="10.0"><path d="M 305.1460,315.2931 v 8.6521 "/></g><g stroke-linejoin="miter" stroke-opacity="1.0" fill-opacity="0.6" stroke="rgb(0,0,0)" fill-rule="evenodd" stroke-width="0.0" fill="rgb(0,0,0)" stroke-linecap="butt" stroke-miterlimit="10.0"><path d="M 261.8854,340.3651 ZM 269.1363,340.9874 l -1.3393,-0.7981 c -1.5557,-0.8252 -2.3538,-0.3788 -2.9626 0.2300c -0.4194,0.4194 -0.8523,1.2581 0.0000 2.1103c 0.4058,0.4058 1.4204,0.6358 2.0698 0.6899l 2.2321,-2.2321 ZM 269.1363,340.9874 ZM 266.5254,345.3299 c -0.5141,-0.5141 -0.3382,-1.2581 -0.0676 -1.6369l -0.5276,-0.0947 c -1.0552,-0.1894 -1.4204,-0.2841 -2.0427 -0.9064c -0.9470,-0.9470 -1.0958,-2.1780 -0.0812 -3.1926c 1.0281,-1.0281 2.6109,-0.8523 4.2207 0.1082l 1.5557,0.9334 c 1.5286,-1.5286 1.1093,-2.5162 0.6493 -2.9761c -0.5141,-0.5141 -1.3393,-0.8793 -1.7586 -0.4599c -0.1488,0.1488 -0.2029,0.2570 -0.2300 0.3111c -0.0271,0.0812 -0.1082,0.1894 -0.2029 0.2841c -0.1759,0.1759 -0.5817,0.3111 -0.9740 -0.0812c -0.3247,-0.3247 -0.3247,-0.7576 -0.0000 -1.0822c 0.7846,-0.7846 2.7462,-0.2029 3.6119 0.6629c 0.9875,0.9875 1.7180,2.5297 -0.2029 4.4507l -1.9886,1.9886 c -0.8252,0.8252 -1.1634,1.1905 -0.8523 1.5016c 0.2976,0.2976 0.7576,-0.0000 1.0687 -0.2841l 0.2706,0.4058 c -1.0687,0.9064 -1.7586,0.7576 -2.4485 0.0676ZM 267.9864,346.4662 ZM 270.7461,347.7378 c -0.0541,0.5952 0.1218,0.9875 0.5411 1.4069c 1.2851,1.2851 3.1249,0.7440 4.6671 -0.7981c 1.3798,-1.3798 1.6639,-3.0708 0.8387 -3.8960c -0.1488,-0.1488 -0.8793,-0.8252 -1.9615 -0.7981l -4.0854,4.0854 ZM 270.7461,347.7378 ZM 276.7390,339.7158 c 0.7711,-0.7711 0.8523,-1.1228 0.5817 -1.3934l -0.4870,-0.3788 c -0.0406,-0.0406 -0.0406,-0.0947 -0.0000 -0.1353l 0.3111,-0.3653 c 0.2164,0.2164 0.7846,0.6223 1.0552 0.8117c 0.2976,0.1894 0.5546,0.3382 0.9470 0.4870l 0.2976,0.2976 l -4.1936,4.1936 c 0.9605,-0.0406 1.7451,0.2570 2.3944 0.9064c 1.1769,1.1769 1.1769,3.4225 -0.4735 5.0729c -2.1509,2.1509 -4.8836,1.8533 -6.2634 0.4735c -0.5817,-0.5817 -0.8523,-1.1769 -0.9064 -1.9074c -0.2841,0.0406 -0.6629,0.0676 -0.9199 0.0812l -0.2164,-0.3517 c 0.3653,-0.2841 0.5817,-0.5005 1.1093 -1.0281l 6.7639,-6.7639 ZM 274.4528,352.9325 ZM 280.8785,356.8962 c -1.6233,0.4329 -2.6379,0.1488 -3.4496 -0.6629c -1.6233,-1.6233 -1.4069,-3.8690 0.3382 -5.6141c 1.9210,-1.9210 4.3695,-1.9615 5.8305 -0.5005c 1.2987,1.2987 1.3257,2.6515 0.6088 3.3684c -0.3923,0.3923 -0.8387,0.3517 -1.1228 0.0676c -0.2841,-0.2841 -0.4058,-0.7034 -0.1082 -1.0822c 0.3923,-0.5005 0.8928,-1.1634 0.0947 -1.9615c -0.8928,-0.8928 -2.5027,-0.6088 -3.9637 0.8523c -1.5828,1.5828 -1.8263,3.5308 -0.7846 4.5724c 0.5817,0.5817 1.4745,0.7170 2.5027 0.5276ZM 279.9045,358.3842 ZM 285.6268,361.6986 l 3.5037,-3.5037 c 0.1894,-0.8387 0.1082,-1.4881 -0.5276 -2.1239c -0.2706,-0.2706 -0.8658,-0.7846 -1.9345 -0.5817c -0.4735,0.0947 -1.2851,0.4464 -2.2592 1.4204c -1.7721,1.7721 -1.6639,3.5037 -0.9334 4.2342c 0.4464,0.4464 1.0822,0.5411 2.1509 0.5546ZM 285.6268,361.6986 ZM 294.8798,354.4747 l -7.8191,7.8191 c -0.4058,0.4058 -0.5952,0.6493 -0.6629 0.7711c -0.0812,0.1623 -0.0135,0.3923 0.0947 0.5005c 0.1623,0.1623 0.4599,0.4599 0.7034 0.6223l -0.3247,0.4329 c -0.9199,-0.6493 -1.7721,-1.2040 -2.2997 -1.2446l -0.3247,-0.3247 l 0.9740,-0.8928 c -1.0416,0.0135 -1.9751,-0.1082 -2.6650 -0.7981c -1.4610,-1.4610 -1.1093,-3.5984 0.5546 -5.2623c 1.0011,-1.0011 2.1103,-1.5692 3.2737 -1.5692c 1.0552,0.0271 1.9480,0.3247 2.8409 1.2175c 0.2706,0.2706 0.7440,0.9875 0.8793 1.4745l 2.0698,-2.0698 c 0.7711,-0.7711 0.8658,-1.1093 0.5952 -1.3798l -0.5005,-0.3923 c -0.0271,-0.0271 -0.0406,-0.0947 -0.0000 -0.1353l 0.3111,-0.3653 c 0.2164,0.2164 0.7846,0.6223 1.0552 0.8117c 0.3111,0.2029 0.5546,0.3382 0.9470 0.4870l 0.2976,0.2976 ZM 286.5872,365.0670 ZM 291.8766,362.8620 l 2.4891,2.4891 c 0.1353,0.1353 0.2570,0.1218 0.3788 -0.0000c 1.2581,-1.2581 0.9470,-2.2186 0.4599 -2.7056c -0.3111,-0.3111 -1.4475,-1.2040 -3.3279 0.2164ZM 291.8766,362.8620 ZM 292.9589,368.9225 l 0.0541,0.4870 c -1.2175,0.1894 -2.5162,-0.1082 -3.4902 -1.0822c -1.8533,-1.8533 -1.2581,-4.0178 0.2164 -5.4923c 2.0562,-2.0562 4.6401,-1.9345 5.9252 -0.6493c 1.7857,1.7857 0.8117,3.5984 -0.3247 4.7348c -0.1488,0.1488 -0.3247,0.1353 -0.4735 -0.0135l -3.5578,-3.5578 c -0.0947,0.0676 -0.1759,0.1488 -0.2841 0.2570c -1.3798,1.3798 -1.4881,3.4090 -0.5141 4.3830c 0.7440,0.7440 1.4610,0.9740 2.4485 0.9334ZM 292.3772,370.8569 ZM 294.5957,371.1275 l 4.3154,-4.3154 l -0.9334,-0.9334 c -0.0541,-0.0541 -0.0541,-0.0812 -0.0000 -0.1353l 0.1894,-0.1894 c 0.1082,-0.1082 0.3382,-0.2029 0.5817 0.0406l 0.6899,0.6899 l 0.5276,-0.5276 c 2.1103,-2.1103 4.1936,-2.0021 5.3300 -0.8658c 0.5141,0.5141 0.7305,1.0011 0.8387 1.5692c 0.0676,0.4735 -0.0406,0.8252 -0.2570 1.0416c -0.2841,0.2841 -0.6899,0.2841 -0.9470 0.0271c -0.2706,-0.2706 -0.2976,-0.5952 -0.1759 -0.9334c 0.2706,-0.6223 0.2300,-1.0958 -0.1759 -1.5016c -0.4464,-0.4464 -1.2851,-0.6358 -3.3684 1.4475l -0.7576,0.7576 l 1.4881,1.4881 c 0.0676,0.0676 0.0812,0.1353 0.0271 0.1894l -0.2706,0.2706 c -0.1218,0.1218 -0.3653,-0.0135 -0.4870 -0.1353l -1.2851,-1.2851 l -4.3154,4.3154 c -0.3923,0.3923 -0.4599,0.7305 -0.0135 1.1769l 0.4464,0.4464 c 0.0541,0.0541 0.0676,0.1488 0.0000 0.2164l -0.2570,0.2570 l -0.0541,0.0000 c 0.0000,-0.0000 -1.0822,-1.1363 -1.6098 -1.6639c -0.4870,-0.4870 -1.4340,-1.3798 -1.4340 -1.3798l -0.0000,-0.0541 l 0.2570,-0.2570 c 0.0676,-0.0676 0.1488,-0.0676 0.2164 -0.0000l 0.2570,0.2570 c 0.4599,0.4599 0.7846,0.3788 1.1769 -0.0135Z"/></g><g stroke-linejoin="miter" stroke-opacity="0.6" fill-opacity="0.0" stroke="rgb(0,0,0)" stroke-width="2.4267150714115107" fill="rgb(0,0,0)" stroke-linecap="butt" stroke-miterlimit="10.0"><path d="M 261.8854,315.2931 v 8.6521 "/></g><g stroke-linejoin="miter" stroke-opacity="1.0" fill-opacity="0.6" stroke="rgb(0,0,0)" fill-rule="evenodd" stroke-width="0.0" fill="rgb(0,0,0)" stroke-linecap="butt" stroke-miterlimit="10.0"><path d="M 218.6248,340.3651 ZM 225.8757,340.9874 l -1.3393,-0.7981 c -1.5557,-0.8252 -2.3538,-0.3788 -2.9626 0.2300c -0.4194,0.4194 -0.8523,1.2581 0.0000 2.1103c 0.4058,0.4058 1.4204,0.6358 2.0698 0.6899l 2.2321,-2.2321 ZM 225.8757,340.9874 ZM 223.2648,345.3299 c -0.5141,-0.5141 -0.3382,-1.2581 -0.0676 -1.6369l -0.5276,-0.0947 c -1.0552,-0.1894 -1.4204,-0.2841 -2.0427 -0.9064c -0.9470,-0.9470 -1.0958,-2.1780 -0.0812 -3.1926c 1.0281,-1.0281 2.6109,-0.8523 4.2207 0.1082l 1.5557,0.9334 c 1.5286,-1.5286 1.1093,-2.5162 0.6493 -2.9761c -0.5141,-0.5141 -1.3393,-0.8793 -1.7586 -0.4599c -0.1488,0.1488 -0.2029,0.2570 -0.2300 0.3111c -0.0271,0.0812 -0.1082,0.1894 -0.2029 0.2841c -0.1759,0.1759 -0.5817,0.3111 -0.9740 -0.0812c -0.3247,-0.3247 -0.3247,-0.7576 -0.0000 -1.0822c 0.7846,-0.7846 2.7462,-0.2029 3.6119 0.6629c 0.9875,0.9875 1.7180,2.5297 -0.2029 4.4507l -1.9886,1.9886 c -0.8252,0.8252 -1.1634,1.1905 -0.8523 1.5016c 0.2976,0.2976 0.7576,-0.0000 1.0687 -0.2841l 0.2706,0.4058 c -1.0687,0.9064 -1.7586,0.7576 -2.4485 0.0676ZM 224.7258,346.4662 ZM 227.4855,347.7378 c -0.0541,0.5952 0.1218,0.9875 0.5411 1.4069c 1.2851,1.2851 3.1249,0.7440 4.6671 -0.7981c 1.3798,-1.3798 1.6639,-3.0708 0.8387 -3.8960c -0.1488,-0.1488 -0.8793,-0.8252 -1.9615 -0.7981l -4.0854,4.0854 ZM 227.4855,347.7378 ZM 233.4784,339.7158 c 0.7711,-0.7711 0.8523,-1.1228 0.5817 -1.3934l -0.4870,-0.3788 c -0.0406,-0.0406 -0.0406,-0.0947 -0.0000 -0.1353l 0.3111,-0.3653 c 0.2164,0.2164 0.7846,0.6223 1.0552 0.8117c 0.2976,0.1894 0.5546,0.3382 0.9470 0.4870l 0.2976,0.2976 l -4.1936,4.1936 c 0.9605,-0.0406 1.7451,0.2570 2.3944 0.9064c 1.1769,1.1769 1.1769,3.4225 -0.4735 5.0729c -2.1509,2.1509 -4.8836,1.8533 -6.2634 0.4735c -0.5817,-0.5817 -0.8523,-1.1769 -0.9064 -1.9074c -0.2841,0.0406 -0.6629,0.0676 -0.9199 0.0812l -0.2164,-0.3517 c 0.3653,-0.2841 0.5817,-0.5005 1.1093 -1.0281l 6.7639,-6.7639 ZM 231.1922,352.9325 ZM 237.6179,356.8962 c -1.6233,0.4329 -2.6379,0.1488 -3.4496 -0.6629c -1.6233,-1.6233 -1.4069,-3.8690 0.3382 -5.6141c 1.9210,-1.9210 4.3695,-1.9615 5.8305 -0.5005c 1.2987,1.2987 1.3257,2.6515 0.6088 3.3684c -0.3923,0.3923 -0.8387,0.3517 -1.1228 0.0676c -0.2841,-0.2841 -0.4058,-0.7034 -0.1082 -1.0822c 0.3923,-0.5005 0.8928,-1.1634 0.0947 -1.9615c -0.8928,-0.8928 -2.5027,-0.6088 -3.9637 0.8523c -1.5828,1.5828 -1.8263,3.5308 -0.7846 4.5724c 0.5817,0.5817 1.4745,0.7170 2.5027 0.5276ZM 236.6439,358.3842 ZM 242.3662,361.6986 l 3.5037,-3.5037 c 0.1894,-0.8387 0.1082,-1.4881 -0.5276 -2.1239c -0.2706,-0.2706 -0.8658,-0.7846 -1.9345 -0.5817c -0.4735,0.0947 -1.2851,0.4464 -2.2592 1.4204c -1.7721,1.7721 -1.6639,3.5037 -0.9334 4.2342c 0.4464,0.4464 1.0822,0.5411 2.1509 0.5546ZM 242.3662,361.6986 ZM 251.6192,354.4747 l -7.8191,7.8191 c -0.4058,0.4058 -0.5952,0.6493 -0.6629 0.7711c -0.0812,0.1623 -0.0135,0.3923 0.0947 0.5005c 0.1623,0.1623 0.4599,0.4599 0.7034 0.6223l -0.3247,0.4329 c -0.9199,-0.6493 -1.7721,-1.2040 -2.2997 -1.2446l -0.3247,-0.3247 l 0.9740,-0.8928 c -1.0416,0.0135 -1.9751,-0.1082 -2.6650 -0.7981c -1.4610,-1.4610 -1.1093,-3.5984 0.5546 -5.2623c 1.0011,-1.0011 2.1103,-1.5692 3.2737 -1.5692c 1.0552,0.0271 1.9480,0.3247 2.8409 1.2175c 0.2706,0.2706 0.7440,0.9875 0.8793 1.4745l 2.0698,-2.0698 c 0.7711,-0.7711 0.8658,-1.1093 0.5952 -1.3798l -0.5005,-0.3923 c -0.0271,-0.0271 -0.0406,-0.0947 -0.0000 -0.1353l 0.3111,-0.3653 c 0.2164,0.2164 0.7846,0.6223 1.0552 0.8117c 0.3111,0.2029 0.5546,0.3382 0.9470 0.4870l 0.2976,0.2976 ZM 243.3266,365.0670 ZM 248.6160,362.8620 l 2.4891,2.4891 c 0.1353,0.1353 0.2570,0.1218 0.3788 -0.0000c 1.2581,-1.2581 0.9470,-2.2186 0.4599 -2.7056c -0.3111,-0.3111 -1.4475,-1.2040 -3.3279 0.2164ZM 248.6160,362.8620 ZM 249.6983,368.9225 l 0.0541,0.4870 c -1.2175,0.1894 -2.5162,-0.1082 -3.4902 -1.0822c -1.8533,-1.8533 -1.2581,-4.0178 0.2164 -5.4923c 2.0562,-2.0562 4.6401,-1.9345 5.9252 -0.6493c 1.7857,1.7857 0.8117,3.5984 -0.3247 4.7348c -0.1488,0.1488 -0.3247,0.1353 -0.4735 -0.0135l -3.5578,-3.5578 c -0.0947,0.0676 -0.1759,0.1488 -0.2841 0.2570c -1.3798,1.3798 -1.4881,3.4090 -0.5141 4.3830c 0.7440,0.7440 1.4610,0.9740 2.4485 0.9334ZM 249.1166,370.8569 ZM 251.3351,371.1275 l 4.3154,-4.3154 l -0.9334,-0.9334 c -0.0541,-0.0541 -0.0541,-0.0812 -0.0000 -0.1353l 0.1894,-0.1894 c 0.1082,-0.1082 0.3382,-0.2029 0.5817 0.0406l 0.6899,0.6899 l 0.5276,-0.5276 c 2.1103,-2.1103 4.1936,-2.0021 5.3300 -0.8658c 0.5141,0.5141 0.7305,1.0011 0.8387 1.5692c 0.0676,0.4735 -0.0406,0.8252 -0.2570 1.0416c -0.2841,0.2841 -0.6899,0.2841 -0.9470 0.0271c -0.2706,-0.2706 -0.2976,-0.5952 -0.1759 -0.9334c 0.2706,-0.6223 0.2300,-1.0958 -0.1759 -1.5016c -0.4464,-0.4464 -1.2851,-0.6358 -3.3684 1.4475l -0.7576,0.7576 l 1.4881,1.4881 c 0.0676,0.0676 0.0812,0.1353 0.0271 0.1894l -0.2706,0.2706 c -0.1218,0.1218 -0.3653,-0.0135 -0.4870 -0.1353l -1.2851,-1.2851 l -4.3154,4.3154 c -0.3923,0.3923 -0.4599,0.7305 -0.0135 1.1769l 0.4464,0.4464 c 0.0541,0.0541 0.0676,0.1488 0.0000 0.2164l -0.2570,0.2570 l -0.0541,0.0000 c 0.0000,-0.0000 -1.0822,-1.1363 -1.6098 -1.6639c -0.4870,-0.4870 -1.4340,-1.3798 -1.4340 -1.3798l -0.0000,-0.0541 l 0.2570,-0.2570 c 0.0676,-0.0676 0.1488,-0.0676 0.2164 -0.0000l 0.2570,0.2570 c 0.4599,0.4599 0.7846,0.3788 1.1769 -0.0135Z"/></g><g stroke-linejoin="miter" stroke-opacity="0.6" fill-opacity="0.0" stroke="rgb(0,0,0)" stroke-width="2.4267150714115107" fill="rgb(0,0,0)" stroke-linecap="butt" stroke-miterlimit="10.0"><path d="M 218.6248,315.2931 v 8.6521 "/></g><g stroke-linejoin="miter" stroke-opacity="1.0" fill-opacity="0.6" stroke="rgb(0,0,0)" fill-rule="evenodd" stroke-width="0.0" fill="rgb(0,0,0)" stroke-linecap="butt" stroke-miterlimit="10.0"><path d="M 175.3642,340.3651 ZM 182.6151,340.9874 l -1.3393,-0.7981 c -1.5557,-0.8252 -2.3538,-0.3788 -2.9626 0.2300c -0.4194,0.4194 -0.8523,1.2581 0.0000 2.1103c 0.4058,0.4058 1.4204,0.6358 2.0698 0.6899l 2.2321,-2.2321 ZM 182.6151,340.9874 ZM 180.0042,345.3299 c -0.5141,-0.5141 -0.3382,-1.2581 -0.0676 -1.6369l -0.5276,-0.0947 c -1.0552,-0.1894 -1.4204,-0.2841 -2.0427 -0.9064c -0.9470,-0.9470 -1.0958,-2.1780 -0.0812 -3.1926c 1.0281,-1.0281 2.6109,-0.8523 4.2207 0.1082l 1.5557,0.9334 c 1.5286,-1.5286 1.1093,-2.5162 0.6493 -2.9761c -0.5141,-0.5141 -1.3393,-0.8793 -1.7586 -0.4599c -0.1488,0.1488 -0.2029,0.2570 -0.2300 0.3111c -0.0271,0.0812 -0.1082,0.1894 -0.2029 0.2841c -0.1759,0.1759 -0.5817,0.3111 -0.9740 -0.0812c -0.3247,-0.3247 -0.3247,-0.7576 -0.0000 -1.0822c 0.7846,-0.7846 2.7462,-0.2029 3.6119 0.6629c 0.9875,0.9875 1.7180,2.5297 -0.2029 4.4507l -1.9886,1.9886 c -0.8252,0.8252 -1.1634,1.1905 -0.8523 1.5016c 0.2976,0.2976 0.7576,-0.0000 1.0687 -0.2841l 0.2706,0.4058 c -1.0687,0.9064 -1.7586,0.7576 -2.4485 0.0676ZM 181.4652,346.4662 ZM 184.2249,347.7378 c -0.0541,0.5952 0.1218,0.9875 0.5411 1.4069c 1.2851,1.2851 3.1249,0.7440 4.6671 -0.7981c 1.3798,-1.3798 1.6639,-3.0708 0.8387 -3.8960c -0.1488,-0.1488 -0.8793,-0.8252 -1.9615 -0.7981l -4.0854,4.0854 ZM 184.2249,347.7378 ZM 190.2178,339.7158 c 0.7711,-0.7711 0.8523,-1.1228 0.5817 -1.3934l -0.4870,-0.3788 c -0.0406,-0.0406 -0.0406,-0.0947 -0.0000 -0.1353l 0.3111,-0.3653 c 0.2164,0.2164 0.7846,0.6223 1.0552 0.8117c 0.2976,0.1894 0.5546,0.3382 0.9470 0.4870l 0.2976,0.2976 l -4.1936,4.1936 c 0.9605,-0.0406 1.7451,0.2570 2.3944 0.9064c 1.1769,1.1769 1.1769,3.4225 -0.4735 5.0729c -2.1509,2.1509 -4.8836,1.8533 -6.2634 0.4735c -0.5817,-0.5817 -0.8523,-1.1769 -0.9064 -1.9074c -0.2841,0.0406 -0.6629,0.0676 -0.9199 0.0812l -0.2164,-0.3517 c 0.3653,-0.2841 0.5817,-0.5005 1.1093 -1.0281l 6.7639,-6.7639 ZM 187.9315,352.9325 ZM 194.3573,356.8962 c -1.6233,0.4329 -2.6379,0.1488 -3.4496 -0.6629c -1.6233,-1.6233 -1.4069,-3.8690 0.3382 -5.6141c 1.9210,-1.9210 4.3695,-1.9615 5.8305 -0.5005c 1.2987,1.2987 1.3257,2.6515 0.6088 3.3684c -0.3923,0.3923 -0.8387,0.3517 -1.1228 0.0676c -0.2841,-0.2841 -0.4058,-0.7034 -0.1082 -1.0822c 0.3923,-0.5005 0.8928,-1.1634 0.0947 -1.9615c -0.8928,-0.8928 -2.5027,-0.6088 -3.9637 0.8523c -1.5828,1.5828 -1.8263,3.5308 -0.7846 4.5724c 0.5817,0.5817 1.4745,0.7170 2.5027 0.5276ZM 193.3833,358.3842 ZM 199.1056,361.6986 l 3.5037,-3.5037 c 0.1894,-0.8387 0.1082,-1.4881 -0.5276 -2.1239c -0.2706,-0.2706 -0.8658,-0.7846 -1.9345 -0.5817c -0.4735,0.0947 -1.2851,0.4464 -2.2592 1.4204c -1.7721,1.7721 -1.6639,3.5037 -0.9334 4.2342c 0.4464,0.4464 1.0822,0.5411 2.1509 0.5546ZM 199.1056,361.6986 ZM 208.3586,354.4747 l -7.8191,7.8191 c -0.4058,0.4058 -0.5952,0.6493 -0.6629 0.7711c -0.0812,0.1623 -0.0135,0.3923 0.0947 0.5005c 0.1623,0.1623 0.4599,0.4599 0.7034 0.6223l -0.3247,0.4329 c -0.9199,-0.6493 -1.7721,-1.2040 -2.2997 -1.2446l -0.3247,-0.3247 l 0.9740,-0.8928 c -1.0416,0.0135 -1.9751,-0.1082 -2.6650 -0.7981c -1.4610,-1.4610 -1.1093,-3.5984 0.5546 -5.2623c 1.0011,-1.0011 2.1103,-1.5692 3.2737 -1.5692c 1.0552,0.0271 1.9480,0.3247 2.8409 1.2175c 0.2706,0.2706 0.7440,0.9875 0.8793 1.4745l 2.0698,-2.0698 c 0.7711,-0.7711 0.8658,-1.1093 0.5952 -1.3798l -0.5005,-0.3923 c -0.0271,-0.0271 -0.0406,-0.0947 -0.0000 -0.1353l 0.3111,-0.3653 c 0.2164,0.2164 0.7846,0.6223 1.0552 0.8117c 0.3111,0.2029 0.5546,0.3382 0.9470 0.4870l 0.2976,0.2976 ZM 200.0660,365.0670 ZM 205.3554,362.8620 l 2.4891,2.4891 c 0.1353,0.1353 0.2570,0.1218 0.3788 -0.0000c 1.2581,-1.2581 0.9470,-2.2186 0.4599 -2.7056c -0.3111,-0.3111 -1.4475,-1.2040 -3.3279 0.2164ZM 205.3554,362.8620 ZM 206.4377,368.9225 l 0.0541,0.4870 c -1.2175,0.1894 -2.5162,-0.1082 -3.4902 -1.0822c -1.8533,-1.8533 -1.2581,-4.0178 0.2164 -5.4923c 2.0562,-2.0562 4.6401,-1.9345 5.9252 -0.6493c 1.7857,1.7857 0.8117,3.5984 -0.3247 4.7348c -0.1488,0.1488 -0.3247,0.1353 -0.4735 -0.0135l -3.5578,-3.5578 c -0.0947,0.0676 -0.1759,0.1488 -0.2841 0.2570c -1.3798,1.3798 -1.4881,3.4090 -0.5141 4.3830c 0.7440,0.7440 1.4610,0.9740 2.4485 0.9334ZM 205.8560,370.8569 ZM 208.0745,371.1275 l 4.3154,-4.3154 l -0.9334,-0.9334 c -0.0541,-0.0541 -0.0541,-0.0812 -0.0000 -0.1353l 0.1894,-0.1894 c 0.1082,-0.1082 0.3382,-0.2029 0.5817 0.0406l 0.6899,0.6899 l 0.5276,-0.5276 c 2.1103,-2.1103 4.1936,-2.0021 5.3300 -0.8658c 0.5141,0.5141 0.7305,1.0011 0.8387 1.5692c 0.0676,0.4735 -0.0406,0.8252 -0.2570 1.0416c -0.2841,0.2841 -0.6899,0.2841 -0.9470 0.0271c -0.2706,-0.2706 -0.2976,-0.5952 -0.1759 -0.9334c 0.2706,-0.6223 0.2300,-1.0958 -0.1759 -1.5016c -0.4464,-0.4464 -1.2851,-0.6358 -3.3684 1.4475l -0.7576,0.7576 l 1.4881,1.4881 c 0.0676,0.0676 0.0812,0.1353 0.0271 0.1894l -0.2706,0.2706 c -0.1218,0.1218 -0.3653,-0.0135 -0.4870 -0.1353l -1.2851,-1.2851 l -4.3154,4.3154 c -0.3923,0.3923 -0.4599,0.7305 -0.0135 1.1769l 0.4464,0.4464 c 0.0541,0.0541 0.0676,0.1488 0.0000 0.2164l -0.2570,0.2570 l -0.0541,0.0000 c 0.0000,-0.0000 -1.0822,-1.1363 -1.6098 -1.6639c -0.4870,-0.4870 -1.4340,-1.3798 -1.4340 -1.3798l -0.0000,-0.0541 l 0.2570,-0.2570 c 0.0676,-0.0676 0.1488,-0.0676 0.2164 -0.0000l 0.2570,0.2570 c 0.4599,0.4599 0.7846,0.3788 1.1769 -0.0135Z"/></g><g stroke-linejoin="miter" stroke-opacity="0.6" fill-opacity="0.0" stroke="rgb(0,0,0)" stroke-width="2.4267150714115107" fill="rgb(0,0,0)" stroke-linecap="butt" stroke-miterlimit="10.0"><path d="M 175.3642,315.2931 v 8.6521 "/></g><g stroke-linejoin="miter" stroke-opacity="1.0" fill-opacity="0.6" stroke="rgb(0,0,0)" fill-rule="evenodd" stroke-width="0.0" fill="rgb(0,0,0)" stroke-linecap="butt" stroke-miterlimit="10.0"><path d="M 132.1036,340.3651 ZM 139.3545,340.9874 l -1.3393,-0.7981 c -1.5557,-0.8252 -2.3538,-0.3788 -2.9626 0.2300c -0.4194,0.4194 -0.8523,1.2581 0.0000 2.1103c 0.4058,0.4058 1.4204,0.6358 2.0698 0.6899l 2.2321,-2.2321 ZM 139.3545,340.9874 ZM 136.7436,345.3299 c -0.5141,-0.5141 -0.3382,-1.2581 -0.0676 -1.6369l -0.5276,-0.0947 c -1.0552,-0.1894 -1.4204,-0.2841 -2.0427 -0.9064c -0.9470,-0.9470 -1.0958,-2.1780 -0.0812 -3.1926c 1.0281,-1.0281 2.6109,-0.8523 4.2207 0.1082l 1.5557,0.9334 c 1.5286,-1.5286 1.1093,-2.5162 0.6493 -2.9761c -0.5141,-0.5141 -1.3393,-0.8793 -1.7586 -0.4599c -0.1488,0.1488 -0.2029,0.2570 -0.2300 0.3111c -0.0271,0.0812 -0.1082,0.1894 -0.2029 0.2841c -0.1759,0.1759 -0.5817,0.3111 -0.9740 -0.0812c -0.3247,-0.3247 -0.3247,-0.7576 -0.0000 -1.0822c 0.7846,-0.7846 2.7462,-0.2029 3.6119 0.6629c 0.9875,0.9875 1.7180,2.5297 -0.2029 4.4507l -1.9886,1.9886 c -0.8252,0.8252 -1.1634,1.1905 -0.8523 1.5016c 0.2976,0.2976 0.7576,-0.0000 1.0687 -0.2841l 0.2706,0.4058 c -1.0687,0.9064 -1.7586,0.7576 -2.4485 0.0676ZM 138.2046,346.4662 ZM 140.9643,347.7378 c -0.0541,0.5952 0.1218,0.9875 0.5411 1.4069c 1.2851,1.2851 3.1249,0.7440 4.6671 -0.7981c 1.3798,-1.3798 1.6639,-3.0708 0.8387 -3.8960c -0.1488,-0.1488 -0.8793,-0.8252 -1.9615 -0.7981l -4.0854,4.0854 ZM 140.9643,347.7378 ZM 146.9571,339.7158 c 0.7711,-0.7711 0.8523,-1.1228 0.5817 -1.3934l -0.4870,-0.3788 c -0.0406,-0.0406 -0.0406,-0.0947 -0.0000 -0.1353l 0.3111,-0.3653 c 0.2164,0.2164 0.7846,0.6223 1.0552 0.8117c 0.2976,0.1894 0.5546,0.3382 0.9470 0.4870l 0.2976,0.2976 l -4.1936,4.1936 c 0.9605,-0.0406 1.7451,0.2570 2.3944 0.9064c 1.1769,1.1769 1.1769,3.4225 -0.4735 5.0729c -2.1509,2.1509 -4.8836,1.8533 -6.2634 0.4735c -0.5817,-0.5817 -0.8523,-1.1769 -0.9064 -1.9074c -0.2841,0.0406 -0.6629,0.0676 -0.9199 0.0812l -0.2164,-0.3517 c 0.3653,-0.2841 0.5817,-0.5005 1.1093 -1.0281l 6.7639,-6.7639 ZM 144.6709,352.9325 ZM 151.0967,356.8962 c -1.6233,0.4329 -2.6379,0.1488 -3.4496 -0.6629c -1.6233,-1.6233 -1.4069,-3.8690 0.3382 -5.6141c 1.9210,-1.9210 4.3695,-1.9615 5.8305 -0.5005c 1.2987,1.2987 1.3257,2.6515 0.6088 3.3684c -0.3923,0.3923 -0.8387,0.3517 -1.1228 0.0676c -0.2841,-0.2841 -0.4058,-0.7034 -0.1082 -1.0822c 0.3923,-0.5005 0.8928,-1.1634 0.0947 -1.9615c -0.8928,-0.8928 -2.5027,-0.6088 -3.9637 0.8523c -1.5828,1.5828 -1.8263,3.5308 -0.7846 4.5724c 0.5817,0.5817 1.4745,0.7170 2.5027 0.5276ZM 150.1227,358.3842 ZM 155.8450,361.6986 l 3.5037,-3.5037 c 0.1894,-0.8387 0.1082,-1.4881 -0.5276 -2.1239c -0.2706,-0.2706 -0.8658,-0.7846 -1.9345 -0.5817c -0.4735,0.0947 -1.2851,0.4464 -2.2592 1.4204c -1.7721,1.7721 -1.6639,3.5037 -0.9334 4.2342c 0.4464,0.4464 1.0822,0.5411 2.1509 0.5546ZM 155.8450,361.6986 ZM 165.0980,354.4747 l -7.8191,7.8191 c -0.4058,0.4058 -0.5952,0.6493 -0.6629 0.7711c -0.0812,0.1623 -0.0135,0.3923 0.0947 0.5005c 0.1623,0.1623 0.4599,0.4599 0.7034 0.6223l -0.3247,0.4329 c -0.9199,-0.6493 -1.7721,-1.2040 -2.2997 -1.2446l -0.3247,-0.3247 l 0.9740,-0.8928 c -1.0416,0.0135 -1.9751,-0.1082 -2.6650 -0.7981c -1.4610,-1.4610 -1.1093,-3.5984 0.5546 -5.2623c 1.0011,-1.0011 2.1103,-1.5692 3.2737 -1.5692c 1.0552,0.0271 1.9480,0.3247 2.8409 1.2175c 0.2706,0.2706 0.7440,0.9875 0.8793 1.4745l 2.0698,-2.0698 c 0.7711,-0.7711 0.8658,-1.1093 0.5952 -1.3798l -0.5005,-0.3923 c -0.0271,-0.0271 -0.0406,-0.0947 -0.0000 -0.1353l 0.3111,-0.3653 c 0.2164,0.2164 0.7846,0.6223 1.0552 0.8117c 0.3111,0.2029 0.5546,0.3382 0.9470 0.4870l 0.2976,0.2976 ZM 156.8054,365.0670 ZM 162.0948,362.8620 l 2.4891,2.4891 c 0.1353,0.1353 0.2570,0.1218 0.3788 -0.0000c 1.2581,-1.2581 0.9470,-2.2186 0.4599 -2.7056c -0.3111,-0.3111 -1.4475,-1.2040 -3.3279 0.2164ZM 162.0948,362.8620 ZM 163.1770,368.9225 l 0.0541,0.4870 c -1.2175,0.1894 -2.5162,-0.1082 -3.4902 -1.0822c -1.8533,-1.8533 -1.2581,-4.0178 0.2164 -5.4923c 2.0562,-2.0562 4.6401,-1.9345 5.9252 -0.6493c 1.7857,1.7857 0.8117,3.5984 -0.3247 4.7348c -0.1488,0.1488 -0.3247,0.1353 -0.4735 -0.0135l -3.5578,-3.5578 c -0.0947,0.0676 -0.1759,0.1488 -0.2841 0.2570c -1.3798,1.3798 -1.4881,3.4090 -0.5141 4.3830c 0.7440,0.7440 1.4610,0.9740 2.4485 0.9334ZM 162.5954,370.8569 ZM 164.8139,371.1275 l 4.3154,-4.3154 l -0.9334,-0.9334 c -0.0541,-0.0541 -0.0541,-0.0812 -0.0000 -0.1353l 0.1894,-0.1894 c 0.1082,-0.1082 0.3382,-0.2029 0.5817 0.0406l 0.6899,0.6899 l 0.5276,-0.5276 c 2.1103,-2.1103 4.1936,-2.0021 5.3300 -0.8658c 0.5141,0.5141 0.7305,1.0011 0.8387 1.5692c 0.0676,0.4735 -0.0406,0.8252 -0.2570 1.0416c -0.2841,0.2841 -0.6899,0.2841 -0.9470 0.0271c -0.2706,-0.2706 -0.2976,-0.5952 -0.1759 -0.9334c 0.2706,-0.6223 0.2300,-1.0958 -0.1759 -1.5016c -0.4464,-0.4464 -1.2851,-0.6358 -3.3684 1.4475l -0.7576,0.7576 l 1.4881,1.4881 c 0.0676,0.0676 0.0812,0.1353 0.0271 0.1894l -0.2706,0.2706 c -0.1218,0.1218 -0.3653,-0.0135 -0.4870 -0.1353l -1.2851,-1.2851 l -4.3154,4.3154 c -0.3923,0.3923 -0.4599,0.7305 -0.0135 1.1769l 0.4464,0.4464 c 0.0541,0.0541 0.0676,0.1488 0.0000 0.2164l -0.2570,0.2570 l -0.0541,0.0000 c 0.0000,-0.0000 -1.0822,-1.1363 -1.6098 -1.6639c -0.4870,-0.4870 -1.4340,-1.3798 -1.4340 -1.3798l -0.0000,-0.0541 l 0.2570,-0.2570 c 0.0676,-0.0676 0.1488,-0.0676 0.2164 -0.0000l 0.2570,0.2570 c 0.4599,0.4599 0.7846,0.3788 1.1769 -0.0135Z"/></g><g stroke-linejoin="miter" stroke-opacity="0.6" fill-opacity="0.0" stroke="rgb(0,0,0)" stroke-width="2.4267150714115107" fill="rgb(0,0,0)" stroke-linecap="butt" stroke-miterlimit="10.0"><path d="M 132.1036,315.2931 v 8.6521 "/></g><g stroke-linejoin="miter" stroke-opacity="1.0" fill-opacity="0.6" stroke="rgb(0,0,0)" fill-rule="evenodd" stroke-width="0.0" fill="rgb(0,0,0)" stroke-linecap="butt" stroke-miterlimit="10.0"><path d="M 88.8430,340.3651 ZM 96.0939,340.9874 l -1.3393,-0.7981 c -1.5557,-0.8252 -2.3538,-0.3788 -2.9626 0.2300c -0.4194,0.4194 -0.8523,1.2581 0.0000 2.1103c 0.4058,0.4058 1.4204,0.6358 2.0698 0.6899l 2.2321,-2.2321 ZM 96.0939,340.9874 ZM 93.4830,345.3299 c -0.5141,-0.5141 -0.3382,-1.2581 -0.0676 -1.6369l -0.5276,-0.0947 c -1.0552,-0.1894 -1.4204,-0.2841 -2.0427 -0.9064c -0.9470,-0.9470 -1.0958,-2.1780 -0.0812 -3.1926c 1.0281,-1.0281 2.6109,-0.8523 4.2207 0.1082l 1.5557,0.9334 c 1.5286,-1.5286 1.1093,-2.5162 0.6493 -2.9761c -0.5141,-0.5141 -1.3393,-0.8793 -1.7586 -0.4599c -0.1488,0.1488 -0.2029,0.2570 -0.2300 0.3111c -0.0271,0.0812 -0.1082,0.1894 -0.2029 0.2841c -0.1759,0.1759 -0.5817,0.3111 -0.9740 -0.0812c -0.3247,-0.3247 -0.3247,-0.7576 -0.0000 -1.0822c 0.7846,-0.7846 2.7462,-0.2029 3.6119 0.6629c 0.9875,0.9875 1.7180,2.5297 -0.2029 4.4507l -1.9886,1.9886 c -0.8252,0.8252 -1.1634,1.1905 -0.8523 1.5016c 0.2976,0.2976 0.7576,-0.0000 1.0687 -0.2841l 0.2706,0.4058 c -1.0687,0.9064 -1.7586,0.7576 -2.4485 0.0676ZM 94.9440,346.4662 ZM 97.7037,347.7378 c -0.0541,0.5952 0.1218,0.9875 0.5411 1.4069c 1.2851,1.2851 3.1249,0.7440 4.6671 -0.7981c 1.3798,-1.3798 1.6639,-3.0708 0.8387 -3.8960c -0.1488,-0.1488 -0.8793,-0.8252 -1.9615 -0.7981l -4.0854,4.0854 ZM 97.7037,347.7378 ZM 103.6965,339.7158 c 0.7711,-0.7711 0.8523,-1.1228 0.5817 -1.3934l -0.4870,-0.3788 c -0.0406,-0.0406 -0.0406,-0.0947 -0.0000 -0.1353l 0.3111,-0.3653 c 0.2164,0.2164 0.7846,0.6223 1.0552 0.8117c 0.2976,0.1894 0.5546,0.3382 0.9470 0.4870l 0.2976,0.2976 l -4.1936,4.1936 c 0.9605,-0.0406 1.7451,0.2570 2.3944 0.9064c 1.1769,1.1769 1.1769,3.4225 -0.4735 5.0729c -2.1509,2.1509 -4.8836,1.8533 -6.2634 0.4735c -0.5817,-0.5817 -0.8523,-1.1769 -0.9064 -1.9074c -0.2841,0.0406 -0.6629,0.0676 -0.9199 0.0812l -0.2164,-0.3517 c 0.3653,-0.2841 0.5817,-0.5005 1.1093 -1.0281l 6.7639,-6.7639 ZM 101.4103,352.9325 ZM 107.8361,356.8962 c -1.6233,0.4329 -2.6379,0.1488 -3.4496 -0.6629c -1.6233,-1.6233 -1.4069,-3.8690 0.3382 -5.6141c 1.9210,-1.9210 4.3695,-1.9615 5.8305 -0.5005c 1.2987,1.2987 1.3257,2.6515 0.6088 3.3684c -0.3923,0.3923 -0.8387,0.3517 -1.1228 0.0676c -0.2841,-0.2841 -0.4058,-0.7034 -0.1082 -1.0822c 0.3923,-0.5005 0.8928,-1.1634 0.0947 -1.9615c -0.8928,-0.8928 -2.5027,-0.6088 -3.9637 0.8523c -1.5828,1.5828 -1.8263,3.5308 -0.7846 4.5724c 0.5817,0.5817 1.4745,0.7170 2.5027 0.5276ZM 106.8621,358.3842 ZM 112.5843,361.6986 l 3.5037,-3.5037 c 0.1894,-0.8387 0.1082,-1.4881 -0.5276 -2.1239c -0.2706,-0.2706 -0.8658,-0.7846 -1.9345 -0.5817c -0.4735,0.0947 -1.2851,0.4464 -2.2592 1.4204c -1.7721,1.7721 -1.6639,3.5037 -0.9334 4.2342c 0.4464,0.4464 1.0822,0.5411 2.1509 0.5546ZM 112.5843,361.6986 ZM 121.8374,354.4747 l -7.8191,7.8191 c -0.4058,0.4058 -0.5952,0.6493 -0.6629 0.7711c -0.0812,0.1623 -0.0135,0.3923 0.0947 0.5005c 0.1623,0.1623 0.4599,0.4599 0.7034 0.6223l -0.3247,0.4329 c -0.9199,-0.6493 -1.7721,-1.2040 -2.2997 -1.2446l -0.3247,-0.3247 l 0.9740,-0.8928 c -1.0416,0.0135 -1.9751,-0.1082 -2.6650 -0.7981c -1.4610,-1.4610 -1.1093,-3.5984 0.5546 -5.2623c 1.0011,-1.0011 2.1103,-1.5692 3.2737 -1.5692c 1.0552,0.0271 1.9480,0.3247 2.8409 1.2175c 0.2706,0.2706 0.7440,0.9875 0.8793 1.4745l 2.0698,-2.0698 c 0.7711,-0.7711 0.8658,-1.1093 0.5952 -1.3798l -0.5005,-0.3923 c -0.0271,-0.0271 -0.0406,-0.0947 -0.0000 -0.1353l 0.3111,-0.3653 c 0.2164,0.2164 0.7846,0.6223 1.0552 0.8117c 0.3111,0.2029 0.5546,0.3382 0.9470 0.4870l 0.2976,0.2976 ZM 113.5448,365.0670 ZM 118.8342,362.8620 l 2.4891,2.4891 c 0.1353,0.1353 0.2570,0.1218 0.3788 -0.0000c 1.2581,-1.2581 0.9470,-2.2186 0.4599 -2.7056c -0.3111,-0.3111 -1.4475,-1.2040 -3.3279 0.2164ZM 118.8342,362.8620 ZM 119.9164,368.9225 l 0.0541,0.4870 c -1.2175,0.1894 -2.5162,-0.1082 -3.4902 -1.0822c -1.8533,-1.8533 -1.2581,-4.0178 0.2164 -5.4923c 2.0562,-2.0562 4.6401,-1.9345 5.9252 -0.6493c 1.7857,1.7857 0.8117,3.5984 -0.3247 4.7348c -0.1488,0.1488 -0.3247,0.1353 -0.4735 -0.0135l -3.5578,-3.5578 c -0.0947,0.0676 -0.1759,0.1488 -0.2841 0.2570c -1.3798,1.3798 -1.4881,3.4090 -0.5141 4.3830c 0.7440,0.7440 1.4610,0.9740 2.4485 0.9334ZM 119.3347,370.8569 ZM 121.5533,371.1275 l 4.3154,-4.3154 l -0.9334,-0.9334 c -0.0541,-0.0541 -0.0541,-0.0812 -0.0000 -0.1353l 0.1894,-0.1894 c 0.1082,-0.1082 0.3382,-0.2029 0.5817 0.0406l 0.6899,0.6899 l 0.5276,-0.5276 c 2.1103,-2.1103 4.1936,-2.0021 5.3300 -0.8658c 0.5141,0.5141 0.7305,1.0011 0.8387 1.5692c 0.0676,0.4735 -0.0406,0.8252 -0.2570 1.0416c -0.2841,0.2841 -0.6899,0.2841 -0.9470 0.0271c -0.2706,-0.2706 -0.2976,-0.5952 -0.1759 -0.9334c 0.2706,-0.6223 0.2300,-1.0958 -0.1759 -1.5016c -0.4464,-0.4464 -1.2851,-0.6358 -3.3684 1.4475l -0.7576,0.7576 l 1.4881,1.4881 c 0.0676,0.0676 0.0812,0.1353 0.0271 0.1894l -0.2706,0.2706 c -0.1218,0.1218 -0.3653,-0.0135 -0.4870 -0.1353l -1.2851,-1.2851 l -4.3154,4.3154 c -0.3923,0.3923 -0.4599,0.7305 -0.0135 1.1769l 0.4464,0.4464 c 0.0541,0.0541 0.0676,0.1488 0.0000 0.2164l -0.2570,0.2570 l -0.0541,0.0000 c 0.0000,-0.0000 -1.0822,-1.1363 -1.6098 -1.6639c -0.4870,-0.4870 -1.4340,-1.3798 -1.4340 -1.3798l -0.0000,-0.0541 l 0.2570,-0.2570 c 0.0676,-0.0676 0.1488,-0.0676 0.2164 -0.0000l 0.2570,0.2570 c 0.4599,0.4599 0.7846,0.3788 1.1769 -0.0135Z"/></g><g stroke-linejoin="miter" stroke-opacity="0.6" fill-opacity="0.0" stroke="rgb(0,0,0)" stroke-width="2.4267150714115107" fill="rgb(0,0,0)" stroke-linecap="butt" stroke-miterlimit="10.0"><path d="M 88.8430,315.2931 v 8.6521 "/></g><g stroke-linejoin="miter" stroke-opacity="0.0" fill-opacity="0.0" stroke="rgb(0,0,0)" stroke-width="0.0" fill="rgb(0,0,0)" stroke-linecap="butt" stroke-miterlimit="10.0"><path d="M 521.4490,315.2931 l -0.0000,-288.4040 h -432.6061 l -0.0000,288.4040 Z"/></g><g stroke-linejoin="miter" stroke-opacity="1.0" fill-opacity="0.0" stroke="rgb(0,0,0)" stroke-width="0.4853430142823021" fill="rgb(0,0,0)" stroke-linecap="butt" stroke-miterlimit="10.0"><path d="M 88.8430,26.8890 h 432.6061 "/></g><g stroke-linejoin="miter" stroke-opacity="1.0" fill-opacity="0.0" stroke="rgb(0,0,0)" stroke-width="0.4853430142823021" fill="rgb(0,0,0)" stroke-linecap="butt" stroke-miterlimit="10.0"><path d="M 88.8430,55.7294 h 432.6061 "/></g><g stroke-linejoin="miter" stroke-opacity="1.0" fill-opacity="0.0" stroke="rgb(0,0,0)" stroke-width="0.4853430142823021" fill="rgb(0,0,0)" stroke-linecap="butt" stroke-miterlimit="10.0"><path d="M 88.8430,84.5698 h 432.6061 "/></g><g stroke-linejoin="miter" stroke-opacity="1.0" fill-opacity="0.0" stroke="rgb(0,0,0)" stroke-width="0.4853430142823021" fill="rgb(0,0,0)" stroke-linecap="butt" stroke-miterlimit="10.0"><path d="M 88.8430,113.4102 h 432.6061 "/></g><g stroke-linejoin="miter" stroke-opacity="1.0" fill-opacity="0.0" stroke="rgb(0,0,0)" stroke-width="0.4853430142823021" fill="rgb(0,0,0)" stroke-linecap="butt" stroke-miterlimit="10.0"><path d="M 88.8430,142.2506 h 432.6061 "/></g><g stroke-linejoin="miter" stroke-opacity="1.0" fill-opacity="0.0" stroke="rgb(0,0,0)" stroke-width="0.4853430142823021" fill="rgb(0,0,0)" stroke-linecap="butt" stroke-miterlimit="10.0"><path d="M 88.8430,171.0910 h 432.6061 "/></g><g stroke-linejoin="miter" stroke-opacity="1.0" fill-opacity="0.0" stroke="rgb(0,0,0)" stroke-width="0.4853430142823021" fill="rgb(0,0,0)" stroke-linecap="butt" stroke-miterlimit="10.0"><path d="M 88.8430,199.9314 h 432.6061 "/></g><g stroke-linejoin="miter" stroke-opacity="1.0" fill-opacity="0.0" stroke="rgb(0,0,0)" stroke-width="0.4853430142823021" fill="rgb(0,0,0)" stroke-linecap="butt" stroke-miterlimit="10.0"><path d="M 88.8430,228.7718 h 432.6061 "/></g><g stroke-linejoin="miter" stroke-opacity="1.0" fill-opacity="0.0" stroke="rgb(0,0,0)" stroke-width="0.4853430142823021" fill="rgb(0,0,0)" stroke-linecap="butt" stroke-miterlimit="10.0"><path d="M 88.8430,257.6122 h 432.6061 "/></g><g stroke-linejoin="miter" stroke-opacity="1.0" fill-opacity="0.0" stroke="rgb(0,0,0)" stroke-width="0.4853430142823021" fill="rgb(0,0,0)" stroke-linecap="butt" stroke-miterlimit="10.0"><path d="M 88.8430,286.4527 h 432.6061 "/></g><g stroke-linejoin="miter" stroke-opacity="1.0" fill-opacity="0.0" stroke="rgb(0,0,0)" stroke-width="0.4853430142823021" fill="rgb(0,0,0)" stroke-linecap="butt" stroke-miterlimit="10.0"><path d="M 88.8430,315.2931 h 432.6061 "/></g><g stroke-linejoin="miter" stroke-opacity="1.0" fill-opacity="0.0" stroke="rgb(0,0,0)" stroke-width="0.4853430142823021" fill="rgb(0,0,0)" stroke-linecap="butt" stroke-miterlimit="10.0"><path d="M 521.4490,315.2931 v -288.4040 "/></g><g stroke-linejoin="miter" stroke-opacity="1.0" fill-opacity="0.0" stroke="rgb(0,0,0)" stroke-width="0.4853430142823021" fill="rgb(0,0,0)" stroke-linecap="butt" stroke-miterlimit="10.0"><path d="M 478.1884,315.2931 v -288.4040 "/></g><g stroke-linejoin="miter" stroke-opacity="1.0" fill-opacity="0.0" stroke="rgb(0,0,0)" stroke-width="0.4853430142823021" fill="rgb(0,0,0)" stroke-linecap="butt" stroke-miterlimit="10.0"><path d="M 434.9278,315.2931 v -288.4040 "/></g><g stroke-linejoin="miter" stroke-opacity="1.0" fill-opacity="0.0" stroke="rgb(0,0,0)" stroke-width="0.4853430142823021" fill="rgb(0,0,0)" stroke-linecap="butt" stroke-miterlimit="10.0"><path d="M 391.6672,315.2931 v -288.4040 "/></g><g stroke-linejoin="miter" stroke-opacity="1.0" fill-opacity="0.0" stroke="rgb(0,0,0)" stroke-width="0.4853430142823021" fill="rgb(0,0,0)" stroke-linecap="butt" stroke-miterlimit="10.0"><path d="M 348.4066,315.2931 v -288.4040 "/></g><g stroke-linejoin="miter" stroke-opacity="1.0" fill-opacity="0.0" stroke="rgb(0,0,0)" stroke-width="0.4853430142823021" fill="rgb(0,0,0)" stroke-linecap="butt" stroke-miterlimit="10.0"><path d="M 305.1460,315.2931 v -288.4040 "/></g><g stroke-linejoin="miter" stroke-opacity="1.0" fill-opacity="0.0" stroke="rgb(0,0,0)" stroke-width="0.4853430142823021" fill="rgb(0,0,0)" stroke-linecap="butt" stroke-miterlimit="10.0"><path d="M 261.8854,315.2931 v -288.4040 "/></g><g stroke-linejoin="miter" stroke-opacity="1.0" fill-opacity="0.0" stroke="rgb(0,0,0)" stroke-width="0.4853430142823021" fill="rgb(0,0,0)" stroke-linecap="butt" stroke-miterlimit="10.0"><path d="M 218.6248,315.2931 v -288.4040 "/></g><g stroke-linejoin="miter" stroke-opacity="1.0" fill-opacity="0.0" stroke="rgb(0,0,0)" stroke-width="0.4853430142823021" fill="rgb(0,0,0)" stroke-linecap="butt" stroke-miterlimit="10.0"><path d="M 175.3642,315.2931 v -288.4040 "/></g><g stroke-linejoin="miter" stroke-opacity="1.0" fill-opacity="0.0" stroke="rgb(0,0,0)" stroke-width="0.4853430142823021" fill="rgb(0,0,0)" stroke-linecap="butt" stroke-miterlimit="10.0"><path d="M 132.1036,315.2931 v -288.4040 "/></g><g stroke-linejoin="miter" stroke-opacity="1.0" fill-opacity="0.0" stroke="rgb(0,0,0)" stroke-width="0.4853430142823021" fill="rgb(0,0,0)" stroke-linecap="butt" stroke-miterlimit="10.0"><path d="M 88.8430,315.2931 v -288.4040 "/></g></svg>