<?xml version="1.0" encoding="UTF-8"?>
<!DOCTYPE svg PUBLIC "-//W3C//DTD SVG 1.1//EN"
    "http://www.w3.org/Graphics/SVG/1.1/DTD/svg11.dtd"><svg xmlns="http://www.w3.org/2000/svg" height="200.0000" stroke-opacity="1" viewBox="0 0 200 200" font-size="1" width="200.0000" xmlns:xlink="http://www.w3.org/1999/xlink" stroke="rgb(0,0,0)" version="1.1"><defs></defs><g stroke-linejoin="miter" stroke-opacity="0.0" fill-opacity="0.5" stroke="rgb(0,0,0)" stroke-width="0.0" fill="rgb(102,26,102)" stroke-linecap="butt" stroke-miterlimit="10.0"><path d="M 31.0464,164.7956 l -0.0000,-138.6001 h -2.7720 l -0.0000,138.6001 Z"/></g><g stroke-linejoin="miter" stroke-opacity="1.0" fill-opacity="0.7" font-size="5.544005544005544px" stroke="rgb(0,0,0)" stroke-width="0.8" fill="rgb(51,51,51)" stroke-linecap="butt" stroke-miterlimit="10.0"><text dominant-baseline="middle" transform="matrix(1.0000,0.0000,0.0000,1.0000,24.1164,26.1954)" stroke="none" text-anchor="end">10</text></g><g stroke-linejoin="miter" stroke-opacity="0.5" fill-opacity="0.0" stroke="rgb(26,102,204)" stroke-width="0.8" fill="rgb(0,0,0)" stroke-linecap="butt" stroke-miterlimit="10.0"><path d="M 26.8884,26.1954 h 2.7720 "/></g><g stroke-linejoin="miter" stroke-opacity="1.0" fill-opacity="0.7" font-size="5.544005544005544px" stroke="rgb(0,0,0)" stroke-width="0.8" fill="rgb(51,51,51)" stroke-linecap="butt" stroke-miterlimit="10.0"><text dominant-baseline="middle" transform="matrix(1.0000,0.0000,0.0000,1.0000,24.1164,40.0554)" stroke="none" text-anchor="end">9.0</text></g><g stroke-linejoin="miter" stroke-opacity="0.5" fill-opacity="0.0" stroke="rgb(26,102,204)" stroke-width="0.8" fill="rgb(0,0,0)" stroke-linecap="butt" stroke-miterlimit="10.0"><path d="M 26.8884,40.0554 h 2.7720 "/></g><g stroke-linejoin="miter" stroke-opacity="1.0" fill-opacity="0.7" font-size="5.544005544005544px" stroke="rgb(0,0,0)" stroke-width="0.8" fill="rgb(51,51,51)" stroke-linecap="butt" stroke-miterlimit="10.0"><text dominant-baseline="middle" transform="matrix(1.0000,0.0000,0.0000,1.0000,24.1164,53.9155)" stroke="none" text-anchor="end">8.0</text></g><g stroke-linejoin="miter" stroke-opacity="0.5" fill-opacity="0.0" stroke="rgb(26,102,204)" stroke-width="0.8" fill="rgb(0,0,0)" stroke-linecap="butt" stroke-miterlimit="10.0"><path d="M 26.8884,53.9155 h 2.7720 "/></g><g stroke-linejoin="miter" stroke-opacity="1.0" fill-opacity="0.7" font-size="5.544005544005544px" stroke="rgb(0,0,0)" stroke-width="0.8" fill="rgb(51,51,51)" stroke-linecap="butt" stroke-miterlimit="10.0"><text dominant-baseline="middle" transform="matrix(1.0000,0.0000,0.0000,1.0000,24.1164,67.7755)" stroke="none" text-anchor="end">7.0</text></g><g stroke-linejoin="miter" stroke-opacity="0.5" fill-opacity="0.0" stroke="rgb(26,102,204)" stroke-width="0.8" fill="rgb(0,0,0)" stroke-linecap="butt" stroke-miterlimit="10.0"><path d="M 26.8884,67.7755 h 2.7720 "/></g><g stroke-linejoin="miter" stroke-opacity="1.0" fill-opacity="0.7" font-size="5.544005544005544px" stroke="rgb(0,0,0)" stroke-width="0.8" fill="rgb(51,51,51)" stroke-linecap="butt" stroke-miterlimit="10.0"><text dominant-baseline="middle" transform="matrix(1.0000,0.0000,0.0000,1.0000,24.1164,81.6355)" stroke="none" text-anchor="end">6.0</text></g><g stroke-linejoin="miter" stroke-opacity="0.5" fill-opacity="0.0" stroke="rgb(26,102,204)" stroke-width="0.8" fill="rgb(0,0,0)" stroke-linecap="butt" stroke-miterlimit="10.0"><path d="M 26.8884,81.6355 h 2.7720 "/></g><g stroke-linejoin="miter" stroke-opacity="1.0" fill-opacity="0.7" font-size="5.544005544005544px" stroke="rgb(0,0,0)" stroke-width="0.8" fill="rgb(51,51,51)" stroke-linecap="butt" stroke-miterlimit="10.0"><text dominant-baseline="middle" transform="matrix(1.0000,0.0000,0.0000,1.0000,24.1164,95.4955)" stroke="none" text-anchor="end">5.0</text></g><g stroke-linejoin="miter" stroke-opacity="0.5" fill-opacity="0.0" stroke="rgb(26,102,204)" stroke-width="0.8" fill="rgb(0,0,0)" stroke-linecap="butt" stroke-miterlimit="10.0"><path d="M 26.8884,95.4955 h 2.7720 "/></g><g stroke-linejoin="miter" stroke-opacity="1.0" fill-opacity="0.7" font-size="5.544005544005544px" stroke="rgb(0,0,0)" stroke-width="0.8" fill="rgb(51,51,51)" stroke-linecap="butt" stroke-miterlimit="10.0"><text dominant-baseline="middle" transform="matrix(1.0000,0.0000,0.0000,1.0000,24.1164,109.3555)" stroke="none" text-anchor="end">4.0</text></g><g stroke-linejoin="miter" stroke-opacity="0.5" fill-opacity="0.0" stroke="rgb(26,102,204)" stroke-width="0.8" fill="rgb(0,0,0)" stroke-linecap="butt" stroke-miterlimit="10.0"><path d="M 26.8884,109.3555 h 2.7720 "/></g><g stroke-linejoin="miter" stroke-opacity="1.0" fill-opacity="0.7" font-size="5.544005544005544px" stroke="rgb(0,0,0)" stroke-width="0.8" fill="rgb(51,51,51)" stroke-linecap="butt" stroke-miterlimit="10.0"><text dominant-baseline="middle" transform="matrix(1.0000,0.0000,0.0000,1.0000,24.1164,123.2155)" stroke="none" text-anchor="end">3.0</text></g><g stroke-linejoin="miter" stroke-opacity="0.5" fill-opacity="0.0" stroke="rgb(26,102,204)" stroke-width="0.8" fill="rgb(0,0,0)" stroke-linecap="butt" stroke-miterlimit="10.0"><path d="M 26.8884,123.2155 h 2.7720 "/></g><g stroke-linejoin="miter" stroke-opacity="1.0" fill-opacity="0.7" font-size="5.544005544005544px" stroke="rgb(0,0,0)" stroke-width="0.8" fill="rgb(51,51,51)" stroke-linecap="butt" stroke-miterlimit="10.0"><text dominant-baseline="middle" transform="matrix(1.0000,0.0000,0.0000,1.0000,24.1164,137.0755)" stroke="none" text-anchor="end">2.0</text></g><g stroke-linejoin="miter" stroke-opacity="0.5" fill-opacity="0.0" stroke="rgb(26,102,204)" stroke-width="0.8" fill="rgb(0,0,0)" stroke-linecap="butt" stroke-miterlimit="10.0"><path d="M 26.8884,137.0755 h 2.7720 "/></g><g stroke-linejoin="miter" stroke-opacity="1.0" fill-opacity="0.7" font-size="5.544005544005544px" stroke="rgb(0,0,0)" stroke-width="0.8" fill="rgb(51,51,51)" stroke-linecap="butt" stroke-miterlimit="10.0"><text dominant-baseline="middle" transform="matrix(1.0000,0.0000,0.0000,1.0000,24.1164,150.9356)" stroke="none" text-anchor="end">1.0</text></g><g stroke-linejoin="miter" stroke-opacity="0.5" fill-opacity="0.0" stroke="rgb(26,102,204)" stroke-width="0.8" fill="rgb(0,0,0)" stroke-linecap="butt" stroke-miterlimit="10.0"><path d="M 26.8884,150.9356 h 2.7720 "/></g><g stroke-linejoin="miter" stroke-opacity="1.0" fill-opacity="0.7" font-size="5.544005544005544px" stroke="rgb(0,0,0)" stroke-width="0.8" fill="rgb(51,51,51)" stroke-linecap="butt" stroke-miterlimit="10.0"><text dominant-baseline="middle" transform="matrix(1.0000,0.0000,0.0000,1.0000,24.1164,164.7956)" stroke="none" text-anchor="end">0.0</text></g><g stroke-linejoin="miter" stroke-opacity="0.5" fill-opacity="0.0" stroke="rgb(26,102,204)" stroke-width="0.8" fill="rgb(0,0,0)" stroke-linecap="butt" stroke-miterlimit="10.0"><path d="M 26.8884,164.7956 h 2.7720 "/></g><g stroke-linejoin="miter" stroke-opacity="0.0" fill-opacity="0.5" stroke="rgb(0,0,0)" stroke-width="0.0" fill="rgb(102,26,102)" stroke-linecap="butt" stroke-miterlimit="10.0"><path d="M 173.8046,171.7256 l -0.0000,-2.7720 h -138.6001 l -0.0000,2.7720 Z"/></g><g stroke-linejoin="miter" stroke-opacity="1.0" fill-opacity="0.7" font-size="5.544005544005544px" stroke="rgb(0,0,0)" stroke-width="0.8" fill="rgb(51,51,51)" stroke-linecap="butt" stroke-miterlimit="10.0"><text dominant-baseline="text-before-edge" transform="matrix(1.0000,0.0000,0.0000,1.0000,173.8046,175.8836)" stroke="none" text-anchor="middle">10</text></g><g stroke-linejoin="miter" stroke-opacity="0.5" fill-opacity="0.0" stroke="rgb(26,102,204)" stroke-width="0.8" fill="rgb(0,0,0)" stroke-linecap="butt" stroke-miterlimit="10.0"><path d="M 173.8046,170.3396 v 2.7720 "/></g><g stroke-linejoin="miter" stroke-opacity="1.0" fill-opacity="0.7" font-size="5.544005544005544px" stroke="rgb(0,0,0)" stroke-width="0.8" fill="rgb(51,51,51)" stroke-linecap="butt" stroke-miterlimit="10.0"><text dominant-baseline="text-before-edge" transform="matrix(1.0000,0.0000,0.0000,1.0000,159.9446,175.8836)" stroke="none" text-anchor="middle">9.0</text></g><g stroke-linejoin="miter" stroke-opacity="0.5" fill-opacity="0.0" stroke="rgb(26,102,204)" stroke-width="0.8" fill="rgb(0,0,0)" stroke-linecap="butt" stroke-miterlimit="10.0"><path d="M 159.9446,170.3396 v 2.7720 "/></g><g stroke-linejoin="miter" stroke-opacity="1.0" fill-opacity="0.7" font-size="5.544005544005544px" stroke="rgb(0,0,0)" stroke-width="0.8" fill="rgb(51,51,51)" stroke-linecap="butt" stroke-miterlimit="10.0"><text dominant-baseline="text-before-edge" transform="matrix(1.0000,0.0000,0.0000,1.0000,146.0845,175.8836)" stroke="none" text-anchor="middle">8.0</text></g><g stroke-linejoin="miter" stroke-opacity="0.5" fill-opacity="0.0" stroke="rgb(26,102,204)" stroke-width="0.8" fill="rgb(0,0,0)" stroke-linecap="butt" stroke-miterlimit="10.0"><path d="M 146.0845,170.3396 v 2.7720 "/></g><g stroke-linejoin="miter" stroke-opacity="1.0" fill-opacity="0.7" font-size="5.544005544005544px" stroke="rgb(0,0,0)" stroke-width="0.8" fill="rgb(51,51,51)" stroke-linecap="butt" stroke-miterlimit="10.0"><text dominant-baseline="text-before-edge" transform="matrix(1.0000,0.0000,0.0000,1.0000,132.2245,175.8836)" stroke="none" text-anchor="middle">7.0</text></g><g stroke-linejoin="miter" stroke-opacity="0.5" fill-opacity="0.0" stroke="rgb(26,102,204)" stroke-width="0.8" fill="rgb(0,0,0)" stroke-linecap="butt" stroke-miterlimit="10.0"><path d="M 132.2245,170.3396 v 2.7720 "/></g><g stroke-linejoin="miter" stroke-opacity="1.0" fill-opacity="0.7" font-size="5.544005544005544px" stroke="rgb(0,0,0)" stroke-width="0.8" fill="rgb(51,51,51)" stroke-linecap="butt" stroke-miterlimit="10.0"><text dominant-baseline="text-before-edge" transform="matrix(1.0000,0.0000,0.0000,1.0000,118.3645,175.8836)" stroke="none" text-anchor="middle">6.0</text></g><g stroke-linejoin="miter" stroke-opacity="0.5" fill-opacity="0.0" stroke="rgb(26,102,204)" stroke-width="0.8" fill="rgb(0,0,0)" stroke-linecap="butt" stroke-miterlimit="10.0"><path d="M 118.3645,170.3396 v 2.7720 "/></g><g stroke-linejoin="miter" stroke-opacity="1.0" fill-opacity="0.7" font-size="5.544005544005544px" stroke="rgb(0,0,0)" stroke-width="0.8" fill="rgb(51,51,51)" stroke-linecap="butt" stroke-miterlimit="10.0"><text dominant-baseline="text-before-edge" transform="matrix(1.0000,0.0000,0.0000,1.0000,104.5045,175.8836)" stroke="none" text-anchor="middle">5.0</text></g><g stroke-linejoin="miter" stroke-opacity="0.5" fill-opacity="0.0" stroke="rgb(26,102,204)" stroke-width="0.8" fill="rgb(0,0,0)" stroke-linecap="butt" stroke-miterlimit="10.0"><path d="M 104.5045,170.3396 v 2.7720 "/></g><g stroke-linejoin="miter" stroke-opacity="1.0" fill-opacity="0.7" font-size="5.544005544005544px" stroke="rgb(0,0,0)" stroke-width="0.8" fill="rgb(51,51,51)" stroke-linecap="butt" stroke-miterlimit="10.0"><text dominant-baseline="text-before-edge" transform="matrix(1.0000,0.0000,0.0000,1.0000,90.6445,175.8836)" stroke="none" text-anchor="middle">4.0</text></g><g stroke-linejoin="miter" stroke-opacity="0.5" fill-opacity="0.0" stroke="rgb(26,102,204)" stroke-width="0.8" fill="rgb(0,0,0)" stroke-linecap="butt" stroke-miterlimit="10.0"><path d="M 90.6445,170.3396 v 2.7720 "/></g><g stroke-linejoin="miter" stroke-opacity="1.0" fill-opacity="0.7" font-size="5.544005544005544px" stroke="rgb(0,0,0)" stroke-width="0.8" fill="rgb(51,51,51)" stroke-linecap="butt" stroke-miterlimit="10.0"><text dominant-baseline="text-before-edge" transform="matrix(1.0000,0.0000,0.0000,1.0000,76.7845,175.8836)" stroke="none" text-anchor="middle">3.0</text></g><g stroke-linejoin="miter" stroke-opacity="0.5" fill-opacity="0.0" stroke="rgb(26,102,204)" stroke-width="0.8" fill="rgb(0,0,0)" stroke-linecap="butt" stroke-miterlimit="10.0"><path d="M 76.7845,170.3396 v 2.7720 "/></g><g stroke-linejoin="miter" stroke-opacity="1.0" fill-opacity="0.7" font-size="5.544005544005544px" stroke="rgb(0,0,0)" stroke-width="0.8" fill="rgb(51,51,51)" stroke-linecap="butt" stroke-miterlimit="10.0"><text dominant-baseline="text-before-edge" transform="matrix(1.0000,0.0000,0.0000,1.0000,62.9245,175.8836)" stroke="none" text-anchor="middle">2.0</text></g><g stroke-linejoin="miter" stroke-opacity="0.5" fill-opacity="0.0" stroke="rgb(26,102,204)" stroke-width="0.8" fill="rgb(0,0,0)" stroke-linecap="butt" stroke-miterlimit="10.0"><path d="M 62.9245,170.3396 v 2.7720 "/></g><g stroke-linejoin="miter" stroke-opacity="1.0" fill-opacity="0.7" font-size="5.544005544005544px" stroke="rgb(0,0,0)" stroke-width="0.8" fill="rgb(51,51,51)" stroke-linecap="butt" stroke-miterlimit="10.0"><text dominant-baseline="text-before-edge" transform="matrix(1.0000,0.0000,0.0000,1.0000,49.0644,175.8836)" stroke="none" text-anchor="middle">1.0</text></g><g stroke-linejoin="miter" stroke-opacity="0.5" fill-opacity="0.0" stroke="rgb(26,102,204)" stroke-width="0.8" fill="rgb(0,0,0)" stroke-linecap="butt" stroke-miterlimit="10.0"><path d="M 49.0644,170.3396 v 2.7720 "/></g><g stroke-linejoin="miter" stroke-opacity="1.0" fill-opacity="0.7" font-size="5.544005544005544px" stroke="rgb(0,0,0)" stroke-width="0.8" fill="rgb(51,51,51)" stroke-linecap="butt" stroke-miterlimit="10.0"><text dominant-baseline="text-before-edge" transform="matrix(1.0000,0.0000,0.0000,1.0000,35.2044,175.8836)" stroke="none" text-anchor="middle">0.0</text></g><g stroke-linejoin="miter" stroke-opacity="0.5" fill-opacity="0.0" stroke="rgb(26,102,204)" stroke-width="0.8" fill="rgb(0,0,0)" stroke-linecap="butt" stroke-miterlimit="10.0"><path d="M 35.2044,170.3396 v 2.7720 "/></g><g stroke-linejoin="miter" stroke-opacity="0.0" fill-opacity="0.1" stroke="rgb(0,0,0)" stroke-width="0.0" fill="rgb(128,128,128)" stroke-linecap="butt" stroke-miterlimit="10.0"><path d="M 177.9626,26.1954 c 0.0000,-2.2964 -1.8616,-4.1580 -4.1580 -4.1580c -2.2964,-0.0000 -4.1580,1.8616 -4.1580 4.1580c -0.0000,2.2964 1.8616,4.1580 4.1580 4.1580c 2.2964,0.0000 4.1580,-1.8616 4.1580 -4.1580Z"/></g><g stroke-linejoin="miter" stroke-opacity="0.0" fill-opacity="0.1" stroke="rgb(0,0,0)" stroke-width="0.0" fill="rgb(128,128,128)" stroke-linecap="butt" stroke-miterlimit="10.0"><path d="M 177.9626,40.0554 c 0.0000,-2.2964 -1.8616,-4.1580 -4.1580 -4.1580c -2.2964,-0.0000 -4.1580,1.8616 -4.1580 4.1580c -0.0000,2.2964 1.8616,4.1580 4.1580 4.1580c 2.2964,0.0000 4.1580,-1.8616 4.1580 -4.1580Z"/></g><g stroke-linejoin="miter" stroke-opacity="0.0" fill-opacity="0.1" stroke="rgb(0,0,0)" stroke-width="0.0" fill="rgb(128,128,128)" stroke-linecap="butt" stroke-miterlimit="10.0"><path d="M 177.9626,53.9155 c 0.0000,-2.2964 -1.8616,-4.1580 -4.1580 -4.1580c -2.2964,-0.0000 -4.1580,1.8616 -4.1580 4.1580c -0.0000,2.2964 1.8616,4.1580 4.1580 4.1580c 2.2964,0.0000 4.1580,-1.8616 4.1580 -4.1580Z"/></g><g stroke-linejoin="miter" stroke-opacity="0.0" fill-opacity="0.1" stroke="rgb(0,0,0)" stroke-width="0.0" fill="rgb(128,128,128)" stroke-linecap="butt" stroke-miterlimit="10.0"><path d="M 177.9626,67.7755 c 0.0000,-2.2964 -1.8616,-4.1580 -4.1580 -4.1580c -2.2964,-0.0000 -4.1580,1.8616 -4.1580 4.1580c -0.0000,2.2964 1.8616,4.1580 4.1580 4.1580c 2.2964,0.0000 4.1580,-1.8616 4.1580 -4.1580Z"/></g><g stroke-linejoin="miter" stroke-opacity="0.0" fill-opacity="0.1" stroke="rgb(0,0,0)" stroke-width="0.0" fill="rgb(128,128,128)" stroke-linecap="butt" stroke-miterlimit="10.0"><path d="M 177.9626,81.6355 c 0.0000,-2.2964 -1.8616,-4.1580 -4.1580 -4.1580c -2.2964,-0.0000 -4.1580,1.8616 -4.1580 4.1580c -0.0000,2.2964 1.8616,4.1580 4.1580 4.1580c 2.2964,0.0000 4.1580,-1.8616 4.1580 -4.1580Z"/></g><g stroke-linejoin="miter" stroke-opacity="0.0" fill-opacity="0.1" stroke="rgb(0,0,0)" stroke-width="0.0" fill="rgb(128,128,128)" stroke-linecap="butt" stroke-miterlimit="10.0"><path d="M 177.9626,95.4955 c 0.0000,-2.2964 -1.8616,-4.1580 -4.1580 -4.1580c -2.2964,-0.0000 -4.1580,1.8616 -4.1580 4.1580c -0.0000,2.2964 1.8616,4.1580 4.1580 4.1580c 2.2964,0.0000 4.1580,-1.8616 4.1580 -4.1580Z"/></g><g stroke-linejoin="miter" stroke-opacity="0.0" fill-opacity="0.1" stroke="rgb(0,0,0)" stroke-width="0.0" fill="rgb(128,128,128)" stroke-linecap="butt" stroke-miterlimit="10.0"><path d="M 177.9626,109.3555 c 0.0000,-2.2964 -1.8616,-4.1580 -4.1580 -4.1580c -2.2964,-0.0000 -4.1580,1.8616 -4.1580 4.1580c -0.0000,2.2964 1.8616,4.1580 4.1580 4.1580c 2.2964,0.0000 4.1580,-1.8616 4.1580 -4.1580Z"/></g><g stroke-linejoin="miter" stroke-opacity="0.0" fill-opacity="0.1" stroke="rgb(0,0,0)" stroke-width="0.0" fill="rgb(128,128,128)" stroke-linecap="butt" stroke-miterlimit="10.0"><path d="M 177.9626,123.2155 c 0.0000,-2.2964 -1.8616,-4.1580 -4.1580 -4.1580c -2.2964,-0.0000 -4.1580,1.8616 -4.1580 4.1580c -0.0000,2.2964 1.8616,4.1580 4.1580 4.1580c 2.2964,0.0000 4.1580,-1.8616 4.1580 -4.1580Z"/></g><g stroke-linejoin="miter" stroke-opacity="0.0" fill-opacity="0.1" stroke="rgb(0,0,0)" stroke-width="0.0" fill="rgb(128,128,128)" stroke-linecap="butt" stroke-miterlimit="10.0"><path d="M 177.9626,137.0755 c 0.0000,-2.2964 -1.8616,-4.1580 -4.1580 -4.1580c -2.2964,-0.0000 -4.1580,1.8616 -4.1580 4.1580c -0.0000,2.2964 1.8616,4.1580 4.1580 4.1580c 2.2964,0.0000 4.1580,-1.8616 4.1580 -4.1580Z"/></g><g stroke-linejoin="miter" stroke-opacity="0.0" fill-opacity="0.1" stroke="rgb(0,0,0)" stroke-width="0.0" fill="rgb(128,128,128)" stroke-linecap="butt" stroke-miterlimit="10.0"><path d="M 177.9626,150.9356 c 0.0000,-2.2964 -1.8616,-4.1580 -4.1580 -4.1580c -2.2964,-0.0000 -4.1580,1.8616 -4.1580 4.1580c -0.0000,2.2964 1.8616,4.1580 4.1580 4.1580c 2.2964,0.0000 4.1580,-1.8616 4.1580 -4.1580Z"/></g><g stroke-linejoin="miter" stroke-opacity="0.0" fill-opacity="0.1" stroke="rgb(0,0,0)" stroke-width="0.0" fill="rgb(128,128,128)" stroke-linecap="butt" stroke-miterlimit="10.0"><path d="M 177.9626,164.7956 c 0.0000,-2.2964 -1.8616,-4.1580 -4.1580 -4.1580c -2.2964,-0.0000 -4.1580,1.8616 -4.1580 4.1580c -0.0000,2.2964 1.8616,4.1580 4.1580 4.1580c 2.2964,0.0000 4.1580,-1.8616 4.1580 -4.1580Z"/></g><g stroke-linejoin="miter" stroke-opacity="0.0" fill-opacity="0.1" stroke="rgb(0,0,0)" stroke-width="0.0" fill="rgb(128,128,128)" stroke-linecap="butt" stroke-miterlimit="10.0"><path d="M 164.1026,26.1954 c 0.0000,-2.2964 -1.8616,-4.1580 -4.1580 -4.1580c -2.2964,-0.0000 -4.1580,1.8616 -4.1580 4.1580c -0.0000,2.2964 1.8616,4.1580 4.1580 4.1580c 2.2964,0.0000 4.1580,-1.8616 4.1580 -4.1580Z"/></g><g stroke-linejoin="miter" stroke-opacity="0.0" fill-opacity="0.1" stroke="rgb(0,0,0)" stroke-width="0.0" fill="rgb(128,128,128)" stroke-linecap="butt" stroke-miterlimit="10.0"><path d="M 164.1026,40.0554 c 0.0000,-2.2964 -1.8616,-4.1580 -4.1580 -4.1580c -2.2964,-0.0000 -4.1580,1.8616 -4.1580 4.1580c -0.0000,2.2964 1.8616,4.1580 4.1580 4.1580c 2.2964,0.0000 4.1580,-1.8616 4.1580 -4.1580Z"/></g><g stroke-linejoin="miter" stroke-opacity="0.0" fill-opacity="0.1" stroke="rgb(0,0,0)" stroke-width="0.0" fill="rgb(128,128,128)" stroke-linecap="butt" stroke-miterlimit="10.0"><path d="M 164.1026,53.9155 c 0.0000,-2.2964 -1.8616,-4.1580 -4.1580 -4.1580c -2.2964,-0.0000 -4.1580,1.8616 -4.1580 4.1580c -0.0000,2.2964 1.8616,4.1580 4.1580 4.1580c 2.2964,0.0000 4.1580,-1.8616 4.1580 -4.1580Z"/></g><g stroke-linejoin="miter" stroke-opacity="0.0" fill-opacity="0.1" stroke="rgb(0,0,0)" stroke-width="0.0" fill="rgb(128,128,128)" stroke-linecap="butt" stroke-miterlimit="10.0"><path d="M 164.1026,67.7755 c 0.0000,-2.2964 -1.8616,-4.1580 -4.1580 -4.1580c -2.2964,-0.0000 -4.1580,1.8616 -4.1580 4.1580c -0.0000,2.2964 1.8616,4.1580 4.1580 4.1580c 2.2964,0.0000 4.1580,-1.8616 4.1580 -4.1580Z"/></g><g stroke-linejoin="miter" stroke-opacity="0.0" fill-opacity="0.1" stroke="rgb(0,0,0)" stroke-width="0.0" fill="rgb(128,128,128)" stroke-linecap="butt" stroke-miterlimit="10.0"><path d="M 164.1026,81.6355 c 0.0000,-2.2964 -1.8616,-4.1580 -4.1580 -4.1580c -2.2964,-0.0000 -4.1580,1.8616 -4.1580 4.1580c -0.0000,2.2964 1.8616,4.1580 4.1580 4.1580c 2.2964,0.0000 4.1580,-1.8616 4.1580 -4.1580Z"/></g><g stroke-linejoin="miter" stroke-opacity="0.0" fill-opacity="0.1" stroke="rgb(0,0,0)" stroke-width="0.0" fill="rgb(128,128,128)" stroke-linecap="butt" stroke-miterlimit="10.0"><path d="M 164.1026,95.4955 c 0.0000,-2.2964 -1.8616,-4.1580 -4.1580 -4.1580c -2.2964,-0.0000 -4.1580,1.8616 -4.1580 4.1580c -0.0000,2.2964 1.8616,4.1580 4.1580 4.1580c 2.2964,0.0000 4.1580,-1.8616 4.1580 -4.1580Z"/></g><g stroke-linejoin="miter" stroke-opacity="0.0" fill-opacity="0.1" stroke="rgb(0,0,0)" stroke-width="0.0" fill="rgb(128,128,128)" stroke-linecap="butt" stroke-miterlimit="10.0"><path d="M 164.1026,109.3555 c 0.0000,-2.2964 -1.8616,-4.1580 -4.1580 -4.1580c -2.2964,-0.0000 -4.1580,1.8616 -4.1580 4.1580c -0.0000,2.2964 1.8616,4.1580 4.1580 4.1580c 2.2964,0.0000 4.1580,-1.8616 4.1580 -4.1580Z"/></g><g stroke-linejoin="miter" stroke-opacity="0.0" fill-opacity="0.1" stroke="rgb(0,0,0)" stroke-width="0.0" fill="rgb(128,128,128)" stroke-linecap="butt" stroke-miterlimit="10.0"><path d="M 164.1026,123.2155 c 0.0000,-2.2964 -1.8616,-4.1580 -4.1580 -4.1580c -2.2964,-0.0000 -4.1580,1.8616 -4.1580 4.1580c -0.0000,2.2964 1.8616,4.1580 4.1580 4.1580c 2.2964,0.0000 4.1580,-1.8616 4.1580 -4.1580Z"/></g><g stroke-linejoin="miter" stroke-opacity="0.0" fill-opacity="0.1" stroke="rgb(0,0,0)" stroke-width="0.0" fill="rgb(128,128,128)" stroke-linecap="butt" stroke-miterlimit="10.0"><path d="M 164.1026,137.0755 c 0.0000,-2.2964 -1.8616,-4.1580 -4.1580 -4.1580c -2.2964,-0.0000 -4.1580,1.8616 -4.1580 4.1580c -0.0000,2.2964 1.8616,4.1580 4.1580 4.1580c 2.2964,0.0000 4.1580,-1.8616 4.1580 -4.1580Z"/></g><g stroke-linejoin="miter" stroke-opacity="0.0" fill-opacity="0.1" stroke="rgb(0,0,0)" stroke-width="0.0" fill="rgb(128,128,128)" stroke-linecap="butt" stroke-miterlimit="10.0"><path d="M 164.1026,150.9356 c 0.0000,-2.2964 -1.8616,-4.1580 -4.1580 -4.1580c -2.2964,-0.0000 -4.1580,1.8616 -4.1580 4.1580c -0.0000,2.2964 1.8616,4.1580 4.1580 4.1580c 2.2964,0.0000 4.1580,-1.8616 4.1580 -4.1580Z"/></g><g stroke-linejoin="miter" stroke-opacity="0.0" fill-opacity="0.1" stroke="rgb(0,0,0)" stroke-width="0.0" fill="rgb(128,128,128)" stroke-linecap="butt" stroke-miterlimit="10.0"><path d="M 164.1026,164.7956 c 0.0000,-2.2964 -1.8616,-4.1580 -4.1580 -4.1580c -2.2964,-0.0000 -4.1580,1.8616 -4.1580 4.1580c -0.0000,2.2964 1.8616,4.1580 4.1580 4.1580c 2.2964,0.0000 4.1580,-1.8616 4.1580 -4.1580Z"/></g><g stroke-linejoin="miter" stroke-opacity="0.0" fill-opacity="0.1" stroke="rgb(0,0,0)" stroke-width="0.0" fill="rgb(128,128,128)" stroke-linecap="butt" stroke-miterlimit="10.0"><path d="M 150.2426,26.1954 c 0.0000,-2.2964 -1.8616,-4.1580 -4.1580 -4.1580c -2.2964,-0.0000 -4.1580,1.8616 -4.1580 4.1580c -0.0000,2.2964 1.8616,4.1580 4.1580 4.1580c 2.2964,0.0000 4.1580,-1.8616 4.1580 -4.1580Z"/></g><g stroke-linejoin="miter" stroke-opacity="0.0" fill-opacity="0.1" stroke="rgb(0,0,0)" stroke-width="0.0" fill="rgb(128,128,128)" stroke-linecap="butt" stroke-miterlimit="10.0"><path d="M 150.2426,40.0554 c 0.0000,-2.2964 -1.8616,-4.1580 -4.1580 -4.1580c -2.2964,-0.0000 -4.1580,1.8616 -4.1580 4.1580c -0.0000,2.2964 1.8616,4.1580 4.1580 4.1580c 2.2964,0.0000 4.1580,-1.8616 4.1580 -4.1580Z"/></g><g stroke-linejoin="miter" stroke-opacity="0.0" fill-opacity="0.1" stroke="rgb(0,0,0)" stroke-width="0.0" fill="rgb(128,128,128)" stroke-linecap="butt" stroke-miterlimit="10.0"><path d="M 150.2426,53.9155 c 0.0000,-2.2964 -1.8616,-4.1580 -4.1580 -4.1580c -2.2964,-0.0000 -4.1580,1.8616 -4.1580 4.1580c -0.0000,2.2964 1.8616,4.1580 4.1580 4.1580c 2.2964,0.0000 4.1580,-1.8616 4.1580 -4.1580Z"/></g><g stroke-linejoin="miter" stroke-opacity="0.0" fill-opacity="0.1" stroke="rgb(0,0,0)" stroke-width="0.0" fill="rgb(128,128,128)" stroke-linecap="butt" stroke-miterlimit="10.0"><path d="M 150.2426,67.7755 c 0.0000,-2.2964 -1.8616,-4.1580 -4.1580 -4.1580c -2.2964,-0.0000 -4.1580,1.8616 -4.1580 4.1580c -0.0000,2.2964 1.8616,4.1580 4.1580 4.1580c 2.2964,0.0000 4.1580,-1.8616 4.1580 -4.1580Z"/></g><g stroke-linejoin="miter" stroke-opacity="0.0" fill-opacity="0.1" stroke="rgb(0,0,0)" stroke-width="0.0" fill="rgb(128,128,128)" stroke-linecap="butt" stroke-miterlimit="10.0"><path d="M 150.2426,81.6355 c 0.0000,-2.2964 -1.8616,-4.1580 -4.1580 -4.1580c -2.2964,-0.0000 -4.1580,1.8616 -4.1580 4.1580c -0.0000,2.2964 1.8616,4.1580 4.1580 4.1580c 2.2964,0.0000 4.1580,-1.8616 4.1580 -4.1580Z"/></g><g stroke-linejoin="miter" stroke-opacity="0.0" fill-opacity="0.1" stroke="rgb(0,0,0)" stroke-width="0.0" fill="rgb(128,128,128)" stroke-linecap="butt" stroke-miterlimit="10.0"><path d="M 150.2426,95.4955 c 0.0000,-2.2964 -1.8616,-4.1580 -4.1580 -4.1580c -2.2964,-0.0000 -4.1580,1.8616 -4.1580 4.1580c -0.0000,2.2964 1.8616,4.1580 4.1580 4.1580c 2.2964,0.0000 4.1580,-1.8616 4.1580 -4.1580Z"/></g><g stroke-linejoin="miter" stroke-opacity="0.0" fill-opacity="0.1" stroke="rgb(0,0,0)" stroke-width="0.0" fill="rgb(128,128,128)" stroke-linecap="butt" stroke-miterlimit="10.0"><path d="M 150.2426,109.3555 c 0.0000,-2.2964 -1.8616,-4.1580 -4.1580 -4.1580c -2.2964,-0.0000 -4.1580,1.8616 -4.1580 4.1580c -0.0000,2.2964 1.8616,4.1580 4.1580 4.1580c 2.2964,0.0000 4.1580,-1.8616 4.1580 -4.1580Z"/></g><g stroke-linejoin="miter" stroke-opacity="0.0" fill-opacity="0.1" stroke="rgb(0,0,0)" stroke-width="0.0" fill="rgb(128,128,128)" stroke-linecap="butt" stroke-miterlimit="10.0"><path d="M 150.2426,123.2155 c 0.0000,-2.2964 -1.8616,-4.1580 -4.1580 -4.1580c -2.2964,-0.0000 -4.1580,1.8616 -4.1580 4.1580c -0.0000,2.2964 1.8616,4.1580 4.1580 4.1580c 2.2964,0.0000 4.1580,-1.8616 4.1580 -4.1580Z"/></g><g stroke-linejoin="miter" stroke-opacity="0.0" fill-opacity="0.1" stroke="rgb(0,0,0)" stroke-width="0.0" fill="rgb(128,128,128)" stroke-linecap="butt" stroke-miterlimit="10.0"><path d="M 150.2426,137.0755 c 0.0000,-2.2964 -1.8616,-4.1580 -4.1580 -4.1580c -2.2964,-0.0000 -4.1580,1.8616 -4.1580 4.1580c -0.0000,2.2964 1.8616,4.1580 4.1580 4.1580c 2.2964,0.0000 4.1580,-1.8616 4.1580 -4.1580Z"/></g><g stroke-linejoin="miter" stroke-opacity="0.0" fill-opacity="0.1" stroke="rgb(0,0,0)" stroke-width="0.0" fill="rgb(128,128,128)" stroke-linecap="butt" stroke-miterlimit="10.0"><path d="M 150.2426,150.9356 c 0.0000,-2.2964 -1.8616,-4.1580 -4.1580 -4.1580c -2.2964,-0.0000 -4.1580,1.8616 -4.1580 4.1580c -0.0000,2.2964 1.8616,4.1580 4.1580 4.1580c 2.2964,0.0000 4.1580,-1.8616 4.1580 -4.1580Z"/></g><g stroke-linejoin="miter" stroke-opacity="0.0" fill-opacity="0.1" stroke="rgb(0,0,0)" stroke-width="0.0" fill="rgb(128,128,128)" stroke-linecap="butt" stroke-miterlimit="10.0"><path d="M 150.2426,164.7956 c 0.0000,-2.2964 -1.8616,-4.1580 -4.1580 -4.1580c -2.2964,-0.0000 -4.1580,1.8616 -4.1580 4.1580c -0.0000,2.2964 1.8616,4.1580 4.1580 4.1580c 2.2964,0.0000 4.1580,-1.8616 4.1580 -4.1580Z"/></g><g stroke-linejoin="miter" stroke-opacity="0.0" fill-opacity="0.1" stroke="rgb(0,0,0)" stroke-width="0.0" fill="rgb(128,128,128)" stroke-linecap="butt" stroke-miterlimit="10.0"><path d="M 136.3825,26.1954 c 0.0000,-2.2964 -1.8616,-4.1580 -4.1580 -4.1580c -2.2964,-0.0000 -4.1580,1.8616 -4.1580 4.1580c -0.0000,2.2964 1.8616,4.1580 4.1580 4.1580c 2.2964,0.0000 4.1580,-1.8616 4.1580 -4.1580Z"/></g><g stroke-linejoin="miter" stroke-opacity="0.0" fill-opacity="0.1" stroke="rgb(0,0,0)" stroke-width="0.0" fill="rgb(128,128,128)" stroke-linecap="butt" stroke-miterlimit="10.0"><path d="M 136.3825,40.0554 c 0.0000,-2.2964 -1.8616,-4.1580 -4.1580 -4.1580c -2.2964,-0.0000 -4.1580,1.8616 -4.1580 4.1580c -0.0000,2.2964 1.8616,4.1580 4.1580 4.1580c 2.2964,0.0000 4.1580,-1.8616 4.1580 -4.1580Z"/></g><g stroke-linejoin="miter" stroke-opacity="0.0" fill-opacity="0.1" stroke="rgb(0,0,0)" stroke-width="0.0" fill="rgb(128,128,128)" stroke-linecap="butt" stroke-miterlimit="10.0"><path d="M 136.3825,53.9155 c 0.0000,-2.2964 -1.8616,-4.1580 -4.1580 -4.1580c -2.2964,-0.0000 -4.1580,1.8616 -4.1580 4.1580c -0.0000,2.2964 1.8616,4.1580 4.1580 4.1580c 2.2964,0.0000 4.1580,-1.8616 4.1580 -4.1580Z"/></g><g stroke-linejoin="miter" stroke-opacity="0.0" fill-opacity="0.1" stroke="rgb(0,0,0)" stroke-width="0.0" fill="rgb(128,128,128)" stroke-linecap="butt" stroke-miterlimit="10.0"><path d="M 136.3825,67.7755 c 0.0000,-2.2964 -1.8616,-4.1580 -4.1580 -4.1580c -2.2964,-0.0000 -4.1580,1.8616 -4.1580 4.1580c -0.0000,2.2964 1.8616,4.1580 4.1580 4.1580c 2.2964,0.0000 4.1580,-1.8616 4.1580 -4.1580Z"/></g><g stroke-linejoin="miter" stroke-opacity="0.0" fill-opacity="0.1" stroke="rgb(0,0,0)" stroke-width="0.0" fill="rgb(128,128,128)" stroke-linecap="butt" stroke-miterlimit="10.0"><path d="M 136.3825,81.6355 c 0.0000,-2.2964 -1.8616,-4.1580 -4.1580 -4.1580c -2.2964,-0.0000 -4.1580,1.8616 -4.1580 4.1580c -0.0000,2.2964 1.8616,4.1580 4.1580 4.1580c 2.2964,0.0000 4.1580,-1.8616 4.1580 -4.1580Z"/></g><g stroke-linejoin="miter" stroke-opacity="0.0" fill-opacity="0.1" stroke="rgb(0,0,0)" stroke-width="0.0" fill="rgb(128,128,128)" stroke-linecap="butt" stroke-miterlimit="10.0"><path d="M 136.3825,95.4955 c 0.0000,-2.2964 -1.8616,-4.1580 -4.1580 -4.1580c -2.2964,-0.0000 -4.1580,1.8616 -4.1580 4.1580c -0.0000,2.2964 1.8616,4.1580 4.1580 4.1580c 2.2964,0.0000 4.1580,-1.8616 4.1580 -4.1580Z"/></g><g stroke-linejoin="miter" stroke-opacity="0.0" fill-opacity="0.1" stroke="rgb(0,0,0)" stroke-width="0.0" fill="rgb(128,128,128)" stroke-linecap="butt" stroke-miterlimit="10.0"><path d="M 136.3825,109.3555 c 0.0000,-2.2964 -1.8616,-4.1580 -4.1580 -4.1580c -2.2964,-0.0000 -4.1580,1.8616 -4.1580 4.1580c -0.0000,2.2964 1.8616,4.1580 4.1580 4.1580c 2.2964,0.0000 4.1580,-1.8616 4.1580 -4.1580Z"/></g><g stroke-linejoin="miter" stroke-opacity="0.0" fill-opacity="0.1" stroke="rgb(0,0,0)" stroke-width="0.0" fill="rgb(128,128,128)" stroke-linecap="butt" stroke-miterlimit="10.0"><path d="M 136.3825,123.2155 c 0.0000,-2.2964 -1.8616,-4.1580 -4.1580 -4.1580c -2.2964,-0.0000 -4.1580,1.8616 -4.1580 4.1580c -0.0000,2.2964 1.8616,4.1580 4.1580 4.1580c 2.2964,0.0000 4.1580,-1.8616 4.1580 -4.1580Z"/></g><g stroke-linejoin="miter" stroke-opacity="0.0" fill-opacity="0.1" stroke="rgb(0,0,0)" stroke-width="0.0" fill="rgb(128,128,128)" stroke-linecap="butt" stroke-miterlimit="10.0"><path d="M 136.3825,137.0755 c 0.0000,-2.2964 -1.8616,-4.1580 -4.1580 -4.1580c -2.2964,-0.0000 -4.1580,1.8616 -4.1580 4.1580c -0.0000,2.2964 1.8616,4.1580 4.1580 4.1580c 2.2964,0.0000 4.1580,-1.8616 4.1580 -4.1580Z"/></g><g stroke-linejoin="miter" stroke-opacity="0.0" fill-opacity="0.1" stroke="rgb(0,0,0)" stroke-width="0.0" fill="rgb(128,128,128)" stroke-linecap="butt" stroke-miterlimit="10.0"><path d="M 136.3825,150.9356 c 0.0000,-2.2964 -1.8616,-4.1580 -4.1580 -4.1580c -2.2964,-0.0000 -4.1580,1.8616 -4.1580 4.1580c -0.0000,2.2964 1.8616,4.1580 4.1580 4.1580c 2.2964,0.0000 4.1580,-1.8616 4.1580 -4.1580Z"/></g><g stroke-linejoin="miter" stroke-opacity="0.0" fill-opacity="0.1" stroke="rgb(0,0,0)" stroke-width="0.0" fill="rgb(128,128,128)" stroke-linecap="butt" stroke-miterlimit="10.0"><path d="M 136.3825,164.7956 c 0.0000,-2.2964 -1.8616,-4.1580 -4.1580 -4.1580c -2.2964,-0.0000 -4.1580,1.8616 -4.1580 4.1580c -0.0000,2.2964 1.8616,4.1580 4.1580 4.1580c 2.2964,0.0000 4.1580,-1.8616 4.1580 -4.1580Z"/></g><g stroke-linejoin="miter" stroke-opacity="0.0" fill-opacity="0.1" stroke="rgb(0,0,0)" stroke-width="0.0" fill="rgb(128,128,128)" stroke-linecap="butt" stroke-miterlimit="10.0"><path d="M 122.5225,26.1954 c 0.0000,-2.2964 -1.8616,-4.1580 -4.1580 -4.1580c -2.2964,-0.0000 -4.1580,1.8616 -4.1580 4.1580c -0.0000,2.2964 1.8616,4.1580 4.1580 4.1580c 2.2964,0.0000 4.1580,-1.8616 4.1580 -4.1580Z"/></g><g stroke-linejoin="miter" stroke-opacity="0.0" fill-opacity="0.1" stroke="rgb(0,0,0)" stroke-width="0.0" fill="rgb(128,128,128)" stroke-linecap="butt" stroke-miterlimit="10.0"><path d="M 122.5225,40.0554 c 0.0000,-2.2964 -1.8616,-4.1580 -4.1580 -4.1580c -2.2964,-0.0000 -4.1580,1.8616 -4.1580 4.1580c -0.0000,2.2964 1.8616,4.1580 4.1580 4.1580c 2.2964,0.0000 4.1580,-1.8616 4.1580 -4.1580Z"/></g><g stroke-linejoin="miter" stroke-opacity="0.0" fill-opacity="0.1" stroke="rgb(0,0,0)" stroke-width="0.0" fill="rgb(128,128,128)" stroke-linecap="butt" stroke-miterlimit="10.0"><path d="M 122.5225,53.9155 c 0.0000,-2.2964 -1.8616,-4.1580 -4.1580 -4.1580c -2.2964,-0.0000 -4.1580,1.8616 -4.1580 4.1580c -0.0000,2.2964 1.8616,4.1580 4.1580 4.1580c 2.2964,0.0000 4.1580,-1.8616 4.1580 -4.1580Z"/></g><g stroke-linejoin="miter" stroke-opacity="0.0" fill-opacity="0.1" stroke="rgb(0,0,0)" stroke-width="0.0" fill="rgb(128,128,128)" stroke-linecap="butt" stroke-miterlimit="10.0"><path d="M 122.5225,67.7755 c 0.0000,-2.2964 -1.8616,-4.1580 -4.1580 -4.1580c -2.2964,-0.0000 -4.1580,1.8616 -4.1580 4.1580c -0.0000,2.2964 1.8616,4.1580 4.1580 4.1580c 2.2964,0.0000 4.1580,-1.8616 4.1580 -4.1580Z"/></g><g stroke-linejoin="miter" stroke-opacity="0.0" fill-opacity="0.1" stroke="rgb(0,0,0)" stroke-width="0.0" fill="rgb(128,128,128)" stroke-linecap="butt" stroke-miterlimit="10.0"><path d="M 122.5225,81.6355 c 0.0000,-2.2964 -1.8616,-4.1580 -4.1580 -4.1580c -2.2964,-0.0000 -4.1580,1.8616 -4.1580 4.1580c -0.0000,2.2964 1.8616,4.1580 4.1580 4.1580c 2.2964,0.0000 4.1580,-1.8616 4.1580 -4.1580Z"/></g><g stroke-linejoin="miter" stroke-opacity="0.0" fill-opacity="0.1" stroke="rgb(0,0,0)" stroke-width="0.0" fill="rgb(128,128,128)" stroke-linecap="butt" stroke-miterlimit="10.0"><path d="M 122.5225,95.4955 c 0.0000,-2.2964 -1.8616,-4.1580 -4.1580 -4.1580c -2.2964,-0.0000 -4.1580,1.8616 -4.1580 4.1580c -0.0000,2.2964 1.8616,4.1580 4.1580 4.1580c 2.2964,0.0000 4.1580,-1.8616 4.1580 -4.1580Z"/></g><g stroke-linejoin="miter" stroke-opacity="0.0" fill-opacity="0.1" stroke="rgb(0,0,0)" stroke-width="0.0" fill="rgb(128,128,128)" stroke-linecap="butt" stroke-miterlimit="10.0"><path d="M 122.5225,109.3555 c 0.0000,-2.2964 -1.8616,-4.1580 -4.1580 -4.1580c -2.2964,-0.0000 -4.1580,1.8616 -4.1580 4.1580c -0.0000,2.2964 1.8616,4.1580 4.1580 4.1580c 2.2964,0.0000 4.1580,-1.8616 4.1580 -4.1580Z"/></g><g stroke-linejoin="miter" stroke-opacity="0.0" fill-opacity="0.1" stroke="rgb(0,0,0)" stroke-width="0.0" fill="rgb(128,128,128)" stroke-linecap="butt" stroke-miterlimit="10.0"><path d="M 122.5225,123.2155 c 0.0000,-2.2964 -1.8616,-4.1580 -4.1580 -4.1580c -2.2964,-0.0000 -4.1580,1.8616 -4.1580 4.1580c -0.0000,2.2964 1.8616,4.1580 4.1580 4.1580c 2.2964,0.0000 4.1580,-1.8616 4.1580 -4.1580Z"/></g><g stroke-linejoin="miter" stroke-opacity="0.0" fill-opacity="0.1" stroke="rgb(0,0,0)" stroke-width="0.0" fill="rgb(128,128,128)" stroke-linecap="butt" stroke-miterlimit="10.0"><path d="M 122.5225,137.0755 c 0.0000,-2.2964 -1.8616,-4.1580 -4.1580 -4.1580c -2.2964,-0.0000 -4.1580,1.8616 -4.1580 4.1580c -0.0000,2.2964 1.8616,4.1580 4.1580 4.1580c 2.2964,0.0000 4.1580,-1.8616 4.1580 -4.1580Z"/></g><g stroke-linejoin="miter" stroke-opacity="0.0" fill-opacity="0.1" stroke="rgb(0,0,0)" stroke-width="0.0" fill="rgb(128,128,128)" stroke-linecap="butt" stroke-miterlimit="10.0"><path d="M 122.5225,150.9356 c 0.0000,-2.2964 -1.8616,-4.1580 -4.1580 -4.1580c -2.2964,-0.0000 -4.1580,1.8616 -4.1580 4.1580c -0.0000,2.2964 1.8616,4.1580 4.1580 4.1580c 2.2964,0.0000 4.1580,-1.8616 4.1580 -4.1580Z"/></g><g stroke-linejoin="miter" stroke-opacity="0.0" fill-opacity="0.1" stroke="rgb(0,0,0)" stroke-width="0.0" fill="rgb(128,128,128)" stroke-linecap="butt" stroke-miterlimit="10.0"><path d="M 122.5225,164.7956 c 0.0000,-2.2964 -1.8616,-4.1580 -4.1580 -4.1580c -2.2964,-0.0000 -4.1580,1.8616 -4.1580 4.1580c -0.0000,2.2964 1.8616,4.1580 4.1580 4.1580c 2.2964,0.0000 4.1580,-1.8616 4.1580 -4.1580Z"/></g><g stroke-linejoin="miter" stroke-opacity="0.0" fill-opacity="0.1" stroke="rgb(0,0,0)" stroke-width="0.0" fill="rgb(128,128,128)" stroke-linecap="butt" stroke-miterlimit="10.0"><path d="M 108.6625,26.1954 c 0.0000,-2.2964 -1.8616,-4.1580 -4.1580 -4.1580c -2.2964,-0.0000 -4.1580,1.8616 -4.1580 4.1580c -0.0000,2.2964 1.8616,4.1580 4.1580 4.1580c 2.2964,0.0000 4.1580,-1.8616 4.1580 -4.1580Z"/></g><g stroke-linejoin="miter" stroke-opacity="0.0" fill-opacity="0.1" stroke="rgb(0,0,0)" stroke-width="0.0" fill="rgb(128,128,128)" stroke-linecap="butt" stroke-miterlimit="10.0"><path d="M 108.6625,40.0554 c 0.0000,-2.2964 -1.8616,-4.1580 -4.1580 -4.1580c -2.2964,-0.0000 -4.1580,1.8616 -4.1580 4.1580c -0.0000,2.2964 1.8616,4.1580 4.1580 4.1580c 2.2964,0.0000 4.1580,-1.8616 4.1580 -4.1580Z"/></g><g stroke-linejoin="miter" stroke-opacity="0.0" fill-opacity="0.1" stroke="rgb(0,0,0)" stroke-width="0.0" fill="rgb(128,128,128)" stroke-linecap="butt" stroke-miterlimit="10.0"><path d="M 108.6625,53.9155 c 0.0000,-2.2964 -1.8616,-4.1580 -4.1580 -4.1580c -2.2964,-0.0000 -4.1580,1.8616 -4.1580 4.1580c -0.0000,2.2964 1.8616,4.1580 4.1580 4.1580c 2.2964,0.0000 4.1580,-1.8616 4.1580 -4.1580Z"/></g><g stroke-linejoin="miter" stroke-opacity="0.0" fill-opacity="0.1" stroke="rgb(0,0,0)" stroke-width="0.0" fill="rgb(128,128,128)" stroke-linecap="butt" stroke-miterlimit="10.0"><path d="M 108.6625,67.7755 c 0.0000,-2.2964 -1.8616,-4.1580 -4.1580 -4.1580c -2.2964,-0.0000 -4.1580,1.8616 -4.1580 4.1580c -0.0000,2.2964 1.8616,4.1580 4.1580 4.1580c 2.2964,0.0000 4.1580,-1.8616 4.1580 -4.1580Z"/></g><g stroke-linejoin="miter" stroke-opacity="0.0" fill-opacity="0.1" stroke="rgb(0,0,0)" stroke-width="0.0" fill="rgb(128,128,128)" stroke-linecap="butt" stroke-miterlimit="10.0"><path d="M 108.6625,81.6355 c 0.0000,-2.2964 -1.8616,-4.1580 -4.1580 -4.1580c -2.2964,-0.0000 -4.1580,1.8616 -4.1580 4.1580c -0.0000,2.2964 1.8616,4.1580 4.1580 4.1580c 2.2964,0.0000 4.1580,-1.8616 4.1580 -4.1580Z"/></g><g stroke-linejoin="miter" stroke-opacity="0.0" fill-opacity="0.1" stroke="rgb(0,0,0)" stroke-width="0.0" fill="rgb(128,128,128)" stroke-linecap="butt" stroke-miterlimit="10.0"><path d="M 108.6625,95.4955 c 0.0000,-2.2964 -1.8616,-4.1580 -4.1580 -4.1580c -2.2964,-0.0000 -4.1580,1.8616 -4.1580 4.1580c -0.0000,2.2964 1.8616,4.1580 4.1580 4.1580c 2.2964,0.0000 4.1580,-1.8616 4.1580 -4.1580Z"/></g><g stroke-linejoin="miter" stroke-opacity="0.0" fill-opacity="0.1" stroke="rgb(0,0,0)" stroke-width="0.0" fill="rgb(128,128,128)" stroke-linecap="butt" stroke-miterlimit="10.0"><path d="M 108.6625,109.3555 c 0.0000,-2.2964 -1.8616,-4.1580 -4.1580 -4.1580c -2.2964,-0.0000 -4.1580,1.8616 -4.1580 4.1580c -0.0000,2.2964 1.8616,4.1580 4.1580 4.1580c 2.2964,0.0000 4.1580,-1.8616 4.1580 -4.1580Z"/></g><g stroke-linejoin="miter" stroke-opacity="0.0" fill-opacity="0.1" stroke="rgb(0,0,0)" stroke-width="0.0" fill="rgb(128,128,128)" stroke-linecap="butt" stroke-miterlimit="10.0"><path d="M 108.6625,123.2155 c 0.0000,-2.2964 -1.8616,-4.1580 -4.1580 -4.1580c -2.2964,-0.0000 -4.1580,1.8616 -4.1580 4.1580c -0.0000,2.2964 1.8616,4.1580 4.1580 4.1580c 2.2964,0.0000 4.1580,-1.8616 4.1580 -4.1580Z"/></g><g stroke-linejoin="miter" stroke-opacity="0.0" fill-opacity="0.1" stroke="rgb(0,0,0)" stroke-width="0.0" fill="rgb(128,128,128)" stroke-linecap="butt" stroke-miterlimit="10.0"><path d="M 108.6625,137.0755 c 0.0000,-2.2964 -1.8616,-4.1580 -4.1580 -4.1580c -2.2964,-0.0000 -4.1580,1.8616 -4.1580 4.1580c -0.0000,2.2964 1.8616,4.1580 4.1580 4.1580c 2.2964,0.0000 4.1580,-1.8616 4.1580 -4.1580Z"/></g><g stroke-linejoin="miter" stroke-opacity="0.0" fill-opacity="0.1" stroke="rgb(0,0,0)" stroke-width="0.0" fill="rgb(128,128,128)" stroke-linecap="butt" stroke-miterlimit="10.0"><path d="M 108.6625,150.9356 c 0.0000,-2.2964 -1.8616,-4.1580 -4.1580 -4.1580c -2.2964,-0.0000 -4.1580,1.8616 -4.1580 4.1580c -0.0000,2.2964 1.8616,4.1580 4.1580 4.1580c 2.2964,0.0000 4.1580,-1.8616 4.1580 -4.1580Z"/></g><g stroke-linejoin="miter" stroke-opacity="0.0" fill-opacity="0.1" stroke="rgb(0,0,0)" stroke-width="0.0" fill="rgb(128,128,128)" stroke-linecap="butt" stroke-miterlimit="10.0"><path d="M 108.6625,164.7956 c 0.0000,-2.2964 -1.8616,-4.1580 -4.1580 -4.1580c -2.2964,-0.0000 -4.1580,1.8616 -4.1580 4.1580c -0.0000,2.2964 1.8616,4.1580 4.1580 4.1580c 2.2964,0.0000 4.1580,-1.8616 4.1580 -4.1580Z"/></g><g stroke-linejoin="miter" stroke-opacity="0.0" fill-opacity="0.1" stroke="rgb(0,0,0)" stroke-width="0.0" fill="rgb(128,128,128)" stroke-linecap="butt" stroke-miterlimit="10.0"><path d="M 94.8025,26.1954 c 0.0000,-2.2964 -1.8616,-4.1580 -4.1580 -4.1580c -2.2964,-0.0000 -4.1580,1.8616 -4.1580 4.1580c -0.0000,2.2964 1.8616,4.1580 4.1580 4.1580c 2.2964,0.0000 4.1580,-1.8616 4.1580 -4.1580Z"/></g><g stroke-linejoin="miter" stroke-opacity="0.0" fill-opacity="0.1" stroke="rgb(0,0,0)" stroke-width="0.0" fill="rgb(128,128,128)" stroke-linecap="butt" stroke-miterlimit="10.0"><path d="M 94.8025,40.0554 c 0.0000,-2.2964 -1.8616,-4.1580 -4.1580 -4.1580c -2.2964,-0.0000 -4.1580,1.8616 -4.1580 4.1580c -0.0000,2.2964 1.8616,4.1580 4.1580 4.1580c 2.2964,0.0000 4.1580,-1.8616 4.1580 -4.1580Z"/></g><g stroke-linejoin="miter" stroke-opacity="0.0" fill-opacity="0.1" stroke="rgb(0,0,0)" stroke-width="0.0" fill="rgb(128,128,128)" stroke-linecap="butt" stroke-miterlimit="10.0"><path d="M 94.8025,53.9155 c 0.0000,-2.2964 -1.8616,-4.1580 -4.1580 -4.1580c -2.2964,-0.0000 -4.1580,1.8616 -4.1580 4.1580c -0.0000,2.2964 1.8616,4.1580 4.1580 4.1580c 2.2964,0.0000 4.1580,-1.8616 4.1580 -4.1580Z"/></g><g stroke-linejoin="miter" stroke-opacity="0.0" fill-opacity="0.1" stroke="rgb(0,0,0)" stroke-width="0.0" fill="rgb(128,128,128)" stroke-linecap="butt" stroke-miterlimit="10.0"><path d="M 94.8025,67.7755 c 0.0000,-2.2964 -1.8616,-4.1580 -4.1580 -4.1580c -2.2964,-0.0000 -4.1580,1.8616 -4.1580 4.1580c -0.0000,2.2964 1.8616,4.1580 4.1580 4.1580c 2.2964,0.0000 4.1580,-1.8616 4.1580 -4.1580Z"/></g><g stroke-linejoin="miter" stroke-opacity="0.0" fill-opacity="0.1" stroke="rgb(0,0,0)" stroke-width="0.0" fill="rgb(128,128,128)" stroke-linecap="butt" stroke-miterlimit="10.0"><path d="M 94.8025,81.6355 c 0.0000,-2.2964 -1.8616,-4.1580 -4.1580 -4.1580c -2.2964,-0.0000 -4.1580,1.8616 -4.1580 4.1580c -0.0000,2.2964 1.8616,4.1580 4.1580 4.1580c 2.2964,0.0000 4.1580,-1.8616 4.1580 -4.1580Z"/></g><g stroke-linejoin="miter" stroke-opacity="0.0" fill-opacity="0.1" stroke="rgb(0,0,0)" stroke-width="0.0" fill="rgb(128,128,128)" stroke-linecap="butt" stroke-miterlimit="10.0"><path d="M 94.8025,95.4955 c 0.0000,-2.2964 -1.8616,-4.1580 -4.1580 -4.1580c -2.2964,-0.0000 -4.1580,1.8616 -4.1580 4.1580c -0.0000,2.2964 1.8616,4.1580 4.1580 4.1580c 2.2964,0.0000 4.1580,-1.8616 4.1580 -4.1580Z"/></g><g stroke-linejoin="miter" stroke-opacity="0.0" fill-opacity="0.1" stroke="rgb(0,0,0)" stroke-width="0.0" fill="rgb(128,128,128)" stroke-linecap="butt" stroke-miterlimit="10.0"><path d="M 94.8025,109.3555 c 0.0000,-2.2964 -1.8616,-4.1580 -4.1580 -4.1580c -2.2964,-0.0000 -4.1580,1.8616 -4.1580 4.1580c -0.0000,2.2964 1.8616,4.1580 4.1580 4.1580c 2.2964,0.0000 4.1580,-1.8616 4.1580 -4.1580Z"/></g><g stroke-linejoin="miter" stroke-opacity="0.0" fill-opacity="0.1" stroke="rgb(0,0,0)" stroke-width="0.0" fill="rgb(128,128,128)" stroke-linecap="butt" stroke-miterlimit="10.0"><path d="M 94.8025,123.2155 c 0.0000,-2.2964 -1.8616,-4.1580 -4.1580 -4.1580c -2.2964,-0.0000 -4.1580,1.8616 -4.1580 4.1580c -0.0000,2.2964 1.8616,4.1580 4.1580 4.1580c 2.2964,0.0000 4.1580,-1.8616 4.1580 -4.1580Z"/></g><g stroke-linejoin="miter" stroke-opacity="0.0" fill-opacity="0.1" stroke="rgb(0,0,0)" stroke-width="0.0" fill="rgb(128,128,128)" stroke-linecap="butt" stroke-miterlimit="10.0"><path d="M 94.8025,137.0755 c 0.0000,-2.2964 -1.8616,-4.1580 -4.1580 -4.1580c -2.2964,-0.0000 -4.1580,1.8616 -4.1580 4.1580c -0.0000,2.2964 1.8616,4.1580 4.1580 4.1580c 2.2964,0.0000 4.1580,-1.8616 4.1580 -4.1580Z"/></g><g stroke-linejoin="miter" stroke-opacity="0.0" fill-opacity="0.1" stroke="rgb(0,0,0)" stroke-width="0.0" fill="rgb(128,128,128)" stroke-linecap="butt" stroke-miterlimit="10.0"><path d="M 94.8025,150.9356 c 0.0000,-2.2964 -1.8616,-4.1580 -4.1580 -4.1580c -2.2964,-0.0000 -4.1580,1.8616 -4.1580 4.1580c -0.0000,2.2964 1.8616,4.1580 4.1580 4.1580c 2.2964,0.0000 4.1580,-1.8616 4.1580 -4.1580Z"/></g><g stroke-linejoin="miter" stroke-opacity="0.0" fill-opacity="0.1" stroke="rgb(0,0,0)" stroke-width="0.0" fill="rgb(128,128,128)" stroke-linecap="butt" stroke-miterlimit="10.0"><path d="M 94.8025,164.7956 c 0.0000,-2.2964 -1.8616,-4.1580 -4.1580 -4.1580c -2.2964,-0.0000 -4.1580,1.8616 -4.1580 4.1580c -0.0000,2.2964 1.8616,4.1580 4.1580 4.1580c 2.2964,0.0000 4.1580,-1.8616 4.1580 -4.1580Z"/></g><g stroke-linejoin="miter" stroke-opacity="0.0" fill-opacity="0.1" stroke="rgb(0,0,0)" stroke-width="0.0" fill="rgb(128,128,128)" stroke-linecap="butt" stroke-miterlimit="10.0"><path d="M 80.9425,26.1954 c 0.0000,-2.2964 -1.8616,-4.1580 -4.1580 -4.1580c -2.2964,-0.0000 -4.1580,1.8616 -4.1580 4.1580c -0.0000,2.2964 1.8616,4.1580 4.1580 4.1580c 2.2964,0.0000 4.1580,-1.8616 4.1580 -4.1580Z"/></g><g stroke-linejoin="miter" stroke-opacity="0.0" fill-opacity="0.1" stroke="rgb(0,0,0)" stroke-width="0.0" fill="rgb(128,128,128)" stroke-linecap="butt" stroke-miterlimit="10.0"><path d="M 80.9425,40.0554 c 0.0000,-2.2964 -1.8616,-4.1580 -4.1580 -4.1580c -2.2964,-0.0000 -4.1580,1.8616 -4.1580 4.1580c -0.0000,2.2964 1.8616,4.1580 4.1580 4.1580c 2.2964,0.0000 4.1580,-1.8616 4.1580 -4.1580Z"/></g><g stroke-linejoin="miter" stroke-opacity="0.0" fill-opacity="0.1" stroke="rgb(0,0,0)" stroke-width="0.0" fill="rgb(128,128,128)" stroke-linecap="butt" stroke-miterlimit="10.0"><path d="M 80.9425,53.9155 c 0.0000,-2.2964 -1.8616,-4.1580 -4.1580 -4.1580c -2.2964,-0.0000 -4.1580,1.8616 -4.1580 4.1580c -0.0000,2.2964 1.8616,4.1580 4.1580 4.1580c 2.2964,0.0000 4.1580,-1.8616 4.1580 -4.1580Z"/></g><g stroke-linejoin="miter" stroke-opacity="0.0" fill-opacity="0.1" stroke="rgb(0,0,0)" stroke-width="0.0" fill="rgb(128,128,128)" stroke-linecap="butt" stroke-miterlimit="10.0"><path d="M 80.9425,67.7755 c 0.0000,-2.2964 -1.8616,-4.1580 -4.1580 -4.1580c -2.2964,-0.0000 -4.1580,1.8616 -4.1580 4.1580c -0.0000,2.2964 1.8616,4.1580 4.1580 4.1580c 2.2964,0.0000 4.1580,-1.8616 4.1580 -4.1580Z"/></g><g stroke-linejoin="miter" stroke-opacity="0.0" fill-opacity="0.1" stroke="rgb(0,0,0)" stroke-width="0.0" fill="rgb(128,128,128)" stroke-linecap="butt" stroke-miterlimit="10.0"><path d="M 80.9425,81.6355 c 0.0000,-2.2964 -1.8616,-4.1580 -4.1580 -4.1580c -2.2964,-0.0000 -4.1580,1.8616 -4.1580 4.1580c -0.0000,2.2964 1.8616,4.1580 4.1580 4.1580c 2.2964,0.0000 4.1580,-1.8616 4.1580 -4.1580Z"/></g><g stroke-linejoin="miter" stroke-opacity="0.0" fill-opacity="0.1" stroke="rgb(0,0,0)" stroke-width="0.0" fill="rgb(128,128,128)" stroke-linecap="butt" stroke-miterlimit="10.0"><path d="M 80.9425,95.4955 c 0.0000,-2.2964 -1.8616,-4.1580 -4.1580 -4.1580c -2.2964,-0.0000 -4.1580,1.8616 -4.1580 4.1580c -0.0000,2.2964 1.8616,4.1580 4.1580 4.1580c 2.2964,0.0000 4.1580,-1.8616 4.1580 -4.1580Z"/></g><g stroke-linejoin="miter" stroke-opacity="0.0" fill-opacity="0.1" stroke="rgb(0,0,0)" stroke-width="0.0" fill="rgb(128,128,128)" stroke-linecap="butt" stroke-miterlimit="10.0"><path d="M 80.9425,109.3555 c 0.0000,-2.2964 -1.8616,-4.1580 -4.1580 -4.1580c -2.2964,-0.0000 -4.1580,1.8616 -4.1580 4.1580c -0.0000,2.2964 1.8616,4.1580 4.1580 4.1580c 2.2964,0.0000 4.1580,-1.8616 4.1580 -4.1580Z"/></g><g stroke-linejoin="miter" stroke-opacity="0.0" fill-opacity="0.1" stroke="rgb(0,0,0)" stroke-width="0.0" fill="rgb(128,128,128)" stroke-linecap="butt" stroke-miterlimit="10.0"><path d="M 80.9425,123.2155 c 0.0000,-2.2964 -1.8616,-4.1580 -4.1580 -4.1580c -2.2964,-0.0000 -4.1580,1.8616 -4.1580 4.1580c -0.0000,2.2964 1.8616,4.1580 4.1580 4.1580c 2.2964,0.0000 4.1580,-1.8616 4.1580 -4.1580Z"/></g><g stroke-linejoin="miter" stroke-opacity="0.0" fill-opacity="0.1" stroke="rgb(0,0,0)" stroke-width="0.0" fill="rgb(128,128,128)" stroke-linecap="butt" stroke-miterlimit="10.0"><path d="M 80.9425,137.0755 c 0.0000,-2.2964 -1.8616,-4.1580 -4.1580 -4.1580c -2.2964,-0.0000 -4.1580,1.8616 -4.1580 4.1580c -0.0000,2.2964 1.8616,4.1580 4.1580 4.1580c 2.2964,0.0000 4.1580,-1.8616 4.1580 -4.1580Z"/></g><g stroke-linejoin="miter" stroke-opacity="0.0" fill-opacity="0.1" stroke="rgb(0,0,0)" stroke-width="0.0" fill="rgb(128,128,128)" stroke-linecap="butt" stroke-miterlimit="10.0"><path d="M 80.9425,150.9356 c 0.0000,-2.2964 -1.8616,-4.1580 -4.1580 -4.1580c -2.2964,-0.0000 -4.1580,1.8616 -4.1580 4.1580c -0.0000,2.2964 1.8616,4.1580 4.1580 4.1580c 2.2964,0.0000 4.1580,-1.8616 4.1580 -4.1580Z"/></g><g stroke-linejoin="miter" stroke-opacity="0.0" fill-opacity="0.1" stroke="rgb(0,0,0)" stroke-width="0.0" fill="rgb(128,128,128)" stroke-linecap="butt" stroke-miterlimit="10.0"><path d="M 80.9425,164.7956 c 0.0000,-2.2964 -1.8616,-4.1580 -4.1580 -4.1580c -2.2964,-0.0000 -4.1580,1.8616 -4.1580 4.1580c -0.0000,2.2964 1.8616,4.1580 4.1580 4.1580c 2.2964,0.0000 4.1580,-1.8616 4.1580 -4.1580Z"/></g><g stroke-linejoin="miter" stroke-opacity="0.0" fill-opacity="0.1" stroke="rgb(0,0,0)" stroke-width="0.0" fill="rgb(128,128,128)" stroke-linecap="butt" stroke-miterlimit="10.0"><path d="M 67.0825,26.1954 c 0.0000,-2.2964 -1.8616,-4.1580 -4.1580 -4.1580c -2.2964,-0.0000 -4.1580,1.8616 -4.1580 4.1580c -0.0000,2.2964 1.8616,4.1580 4.1580 4.1580c 2.2964,0.0000 4.1580,-1.8616 4.1580 -4.1580Z"/></g><g stroke-linejoin="miter" stroke-opacity="0.0" fill-opacity="0.1" stroke="rgb(0,0,0)" stroke-width="0.0" fill="rgb(128,128,128)" stroke-linecap="butt" stroke-miterlimit="10.0"><path d="M 67.0825,40.0554 c 0.0000,-2.2964 -1.8616,-4.1580 -4.1580 -4.1580c -2.2964,-0.0000 -4.1580,1.8616 -4.1580 4.1580c -0.0000,2.2964 1.8616,4.1580 4.1580 4.1580c 2.2964,0.0000 4.1580,-1.8616 4.1580 -4.1580Z"/></g><g stroke-linejoin="miter" stroke-opacity="0.0" fill-opacity="0.1" stroke="rgb(0,0,0)" stroke-width="0.0" fill="rgb(128,128,128)" stroke-linecap="butt" stroke-miterlimit="10.0"><path d="M 67.0825,53.9155 c 0.0000,-2.2964 -1.8616,-4.1580 -4.1580 -4.1580c -2.2964,-0.0000 -4.1580,1.8616 -4.1580 4.1580c -0.0000,2.2964 1.8616,4.1580 4.1580 4.1580c 2.2964,0.0000 4.1580,-1.8616 4.1580 -4.1580Z"/></g><g stroke-linejoin="miter" stroke-opacity="0.0" fill-opacity="0.1" stroke="rgb(0,0,0)" stroke-width="0.0" fill="rgb(128,128,128)" stroke-linecap="butt" stroke-miterlimit="10.0"><path d="M 67.0825,67.7755 c 0.0000,-2.2964 -1.8616,-4.1580 -4.1580 -4.1580c -2.2964,-0.0000 -4.1580,1.8616 -4.1580 4.1580c -0.0000,2.2964 1.8616,4.1580 4.1580 4.1580c 2.2964,0.0000 4.1580,-1.8616 4.1580 -4.1580Z"/></g><g stroke-linejoin="miter" stroke-opacity="0.0" fill-opacity="0.1" stroke="rgb(0,0,0)" stroke-width="0.0" fill="rgb(128,128,128)" stroke-linecap="butt" stroke-miterlimit="10.0"><path d="M 67.0825,81.6355 c 0.0000,-2.2964 -1.8616,-4.1580 -4.1580 -4.1580c -2.2964,-0.0000 -4.1580,1.8616 -4.1580 4.1580c -0.0000,2.2964 1.8616,4.1580 4.1580 4.1580c 2.2964,0.0000 4.1580,-1.8616 4.1580 -4.1580Z"/></g><g stroke-linejoin="miter" stroke-opacity="0.0" fill-opacity="0.1" stroke="rgb(0,0,0)" stroke-width="0.0" fill="rgb(128,128,128)" stroke-linecap="butt" stroke-miterlimit="10.0"><path d="M 67.0825,95.4955 c 0.0000,-2.2964 -1.8616,-4.1580 -4.1580 -4.1580c -2.2964,-0.0000 -4.1580,1.8616 -4.1580 4.1580c -0.0000,2.2964 1.8616,4.1580 4.1580 4.1580c 2.2964,0.0000 4.1580,-1.8616 4.1580 -4.1580Z"/></g><g stroke-linejoin="miter" stroke-opacity="0.0" fill-opacity="0.1" stroke="rgb(0,0,0)" stroke-width="0.0" fill="rgb(128,128,128)" stroke-linecap="butt" stroke-miterlimit="10.0"><path d="M 67.0825,109.3555 c 0.0000,-2.2964 -1.8616,-4.1580 -4.1580 -4.1580c -2.2964,-0.0000 -4.1580,1.8616 -4.1580 4.1580c -0.0000,2.2964 1.8616,4.1580 4.1580 4.1580c 2.2964,0.0000 4.1580,-1.8616 4.1580 -4.1580Z"/></g><g stroke-linejoin="miter" stroke-opacity="0.0" fill-opacity="0.1" stroke="rgb(0,0,0)" stroke-width="0.0" fill="rgb(128,128,128)" stroke-linecap="butt" stroke-miterlimit="10.0"><path d="M 67.0825,123.2155 c 0.0000,-2.2964 -1.8616,-4.1580 -4.1580 -4.1580c -2.2964,-0.0000 -4.1580,1.8616 -4.1580 4.1580c -0.0000,2.2964 1.8616,4.1580 4.1580 4.1580c 2.2964,0.0000 4.1580,-1.8616 4.1580 -4.1580Z"/></g><g stroke-linejoin="miter" stroke-opacity="0.0" fill-opacity="0.1" stroke="rgb(0,0,0)" stroke-width="0.0" fill="rgb(128,128,128)" stroke-linecap="butt" stroke-miterlimit="10.0"><path d="M 67.0825,137.0755 c 0.0000,-2.2964 -1.8616,-4.1580 -4.1580 -4.1580c -2.2964,-0.0000 -4.1580,1.8616 -4.1580 4.1580c -0.0000,2.2964 1.8616,4.1580 4.1580 4.1580c 2.2964,0.0000 4.1580,-1.8616 4.1580 -4.1580Z"/></g><g stroke-linejoin="miter" stroke-opacity="0.0" fill-opacity="0.1" stroke="rgb(0,0,0)" stroke-width="0.0" fill="rgb(128,128,128)" stroke-linecap="butt" stroke-miterlimit="10.0"><path d="M 67.0825,150.9356 c 0.0000,-2.2964 -1.8616,-4.1580 -4.1580 -4.1580c -2.2964,-0.0000 -4.1580,1.8616 -4.1580 4.1580c -0.0000,2.2964 1.8616,4.1580 4.1580 4.1580c 2.2964,0.0000 4.1580,-1.8616 4.1580 -4.1580Z"/></g><g stroke-linejoin="miter" stroke-opacity="0.0" fill-opacity="0.1" stroke="rgb(0,0,0)" stroke-width="0.0" fill="rgb(128,128,128)" stroke-linecap="butt" stroke-miterlimit="10.0"><path d="M 67.0825,164.7956 c 0.0000,-2.2964 -1.8616,-4.1580 -4.1580 -4.1580c -2.2964,-0.0000 -4.1580,1.8616 -4.1580 4.1580c -0.0000,2.2964 1.8616,4.1580 4.1580 4.1580c 2.2964,0.0000 4.1580,-1.8616 4.1580 -4.1580Z"/></g><g stroke-linejoin="miter" stroke-opacity="0.0" fill-opacity="0.1" stroke="rgb(0,0,0)" stroke-width="0.0" fill="rgb(128,128,128)" stroke-linecap="butt" stroke-miterlimit="10.0"><path d="M 53.2225,26.1954 c 0.0000,-2.2964 -1.8616,-4.1580 -4.1580 -4.1580c -2.2964,-0.0000 -4.1580,1.8616 -4.1580 4.1580c -0.0000,2.2964 1.8616,4.1580 4.1580 4.1580c 2.2964,0.0000 4.1580,-1.8616 4.1580 -4.1580Z"/></g><g stroke-linejoin="miter" stroke-opacity="0.0" fill-opacity="0.1" stroke="rgb(0,0,0)" stroke-width="0.0" fill="rgb(128,128,128)" stroke-linecap="butt" stroke-miterlimit="10.0"><path d="M 53.2225,40.0554 c 0.0000,-2.2964 -1.8616,-4.1580 -4.1580 -4.1580c -2.2964,-0.0000 -4.1580,1.8616 -4.1580 4.1580c -0.0000,2.2964 1.8616,4.1580 4.1580 4.1580c 2.2964,0.0000 4.1580,-1.8616 4.1580 -4.1580Z"/></g><g stroke-linejoin="miter" stroke-opacity="0.0" fill-opacity="0.1" stroke="rgb(0,0,0)" stroke-width="0.0" fill="rgb(128,128,128)" stroke-linecap="butt" stroke-miterlimit="10.0"><path d="M 53.2225,53.9155 c 0.0000,-2.2964 -1.8616,-4.1580 -4.1580 -4.1580c -2.2964,-0.0000 -4.1580,1.8616 -4.1580 4.1580c -0.0000,2.2964 1.8616,4.1580 4.1580 4.1580c 2.2964,0.0000 4.1580,-1.8616 4.1580 -4.1580Z"/></g><g stroke-linejoin="miter" stroke-opacity="0.0" fill-opacity="0.1" stroke="rgb(0,0,0)" stroke-width="0.0" fill="rgb(128,128,128)" stroke-linecap="butt" stroke-miterlimit="10.0"><path d="M 53.2225,67.7755 c 0.0000,-2.2964 -1.8616,-4.1580 -4.1580 -4.1580c -2.2964,-0.0000 -4.1580,1.8616 -4.1580 4.1580c -0.0000,2.2964 1.8616,4.1580 4.1580 4.1580c 2.2964,0.0000 4.1580,-1.8616 4.1580 -4.1580Z"/></g><g stroke-linejoin="miter" stroke-opacity="0.0" fill-opacity="0.1" stroke="rgb(0,0,0)" stroke-width="0.0" fill="rgb(128,128,128)" stroke-linecap="butt" stroke-miterlimit="10.0"><path d="M 53.2225,81.6355 c 0.0000,-2.2964 -1.8616,-4.1580 -4.1580 -4.1580c -2.2964,-0.0000 -4.1580,1.8616 -4.1580 4.1580c -0.0000,2.2964 1.8616,4.1580 4.1580 4.1580c 2.2964,0.0000 4.1580,-1.8616 4.1580 -4.1580Z"/></g><g stroke-linejoin="miter" stroke-opacity="0.0" fill-opacity="0.1" stroke="rgb(0,0,0)" stroke-width="0.0" fill="rgb(128,128,128)" stroke-linecap="butt" stroke-miterlimit="10.0"><path d="M 53.2225,95.4955 c 0.0000,-2.2964 -1.8616,-4.1580 -4.1580 -4.1580c -2.2964,-0.0000 -4.1580,1.8616 -4.1580 4.1580c -0.0000,2.2964 1.8616,4.1580 4.1580 4.1580c 2.2964,0.0000 4.1580,-1.8616 4.1580 -4.1580Z"/></g><g stroke-linejoin="miter" stroke-opacity="0.0" fill-opacity="0.1" stroke="rgb(0,0,0)" stroke-width="0.0" fill="rgb(128,128,128)" stroke-linecap="butt" stroke-miterlimit="10.0"><path d="M 53.2225,109.3555 c 0.0000,-2.2964 -1.8616,-4.1580 -4.1580 -4.1580c -2.2964,-0.0000 -4.1580,1.8616 -4.1580 4.1580c -0.0000,2.2964 1.8616,4.1580 4.1580 4.1580c 2.2964,0.0000 4.1580,-1.8616 4.1580 -4.1580Z"/></g><g stroke-linejoin="miter" stroke-opacity="0.0" fill-opacity="0.1" stroke="rgb(0,0,0)" stroke-width="0.0" fill="rgb(128,128,128)" stroke-linecap="butt" stroke-miterlimit="10.0"><path d="M 53.2225,123.2155 c 0.0000,-2.2964 -1.8616,-4.1580 -4.1580 -4.1580c -2.2964,-0.0000 -4.1580,1.8616 -4.1580 4.1580c -0.0000,2.2964 1.8616,4.1580 4.1580 4.1580c 2.2964,0.0000 4.1580,-1.8616 4.1580 -4.1580Z"/></g><g stroke-linejoin="miter" stroke-opacity="0.0" fill-opacity="0.1" stroke="rgb(0,0,0)" stroke-width="0.0" fill="rgb(128,128,128)" stroke-linecap="butt" stroke-miterlimit="10.0"><path d="M 53.2225,137.0755 c 0.0000,-2.2964 -1.8616,-4.1580 -4.1580 -4.1580c -2.2964,-0.0000 -4.1580,1.8616 -4.1580 4.1580c -0.0000,2.2964 1.8616,4.1580 4.1580 4.1580c 2.2964,0.0000 4.1580,-1.8616 4.1580 -4.1580Z"/></g><g stroke-linejoin="miter" stroke-opacity="0.0" fill-opacity="0.1" stroke="rgb(0,0,0)" stroke-width="0.0" fill="rgb(128,128,128)" stroke-linecap="butt" stroke-miterlimit="10.0"><path d="M 53.2225,150.9356 c 0.0000,-2.2964 -1.8616,-4.1580 -4.1580 -4.1580c -2.2964,-0.0000 -4.1580,1.8616 -4.1580 4.1580c -0.0000,2.2964 1.8616,4.1580 4.1580 4.1580c 2.2964,0.0000 4.1580,-1.8616 4.1580 -4.1580Z"/></g><g stroke-linejoin="miter" stroke-opacity="0.0" fill-opacity="0.1" stroke="rgb(0,0,0)" stroke-width="0.0" fill="rgb(128,128,128)" stroke-linecap="butt" stroke-miterlimit="10.0"><path d="M 53.2225,164.7956 c 0.0000,-2.2964 -1.8616,-4.1580 -4.1580 -4.1580c -2.2964,-0.0000 -4.1580,1.8616 -4.1580 4.1580c -0.0000,2.2964 1.8616,4.1580 4.1580 4.1580c 2.2964,0.0000 4.1580,-1.8616 4.1580 -4.1580Z"/></g><g stroke-linejoin="miter" stroke-opacity="0.0" fill-opacity="0.1" stroke="rgb(0,0,0)" stroke-width="0.0" fill="rgb(128,128,128)" stroke-linecap="butt" stroke-miterlimit="10.0"><path d="M 39.3624,26.1954 c 0.0000,-2.2964 -1.8616,-4.1580 -4.1580 -4.1580c -2.2964,-0.0000 -4.1580,1.8616 -4.1580 4.1580c -0.0000,2.2964 1.8616,4.1580 4.1580 4.1580c 2.2964,0.0000 4.1580,-1.8616 4.1580 -4.1580Z"/></g><g stroke-linejoin="miter" stroke-opacity="0.0" fill-opacity="0.1" stroke="rgb(0,0,0)" stroke-width="0.0" fill="rgb(128,128,128)" stroke-linecap="butt" stroke-miterlimit="10.0"><path d="M 39.3624,40.0554 c 0.0000,-2.2964 -1.8616,-4.1580 -4.1580 -4.1580c -2.2964,-0.0000 -4.1580,1.8616 -4.1580 4.1580c -0.0000,2.2964 1.8616,4.1580 4.1580 4.1580c 2.2964,0.0000 4.1580,-1.8616 4.1580 -4.1580Z"/></g><g stroke-linejoin="miter" stroke-opacity="0.0" fill-opacity="0.1" stroke="rgb(0,0,0)" stroke-width="0.0" fill="rgb(128,128,128)" stroke-linecap="butt" stroke-miterlimit="10.0"><path d="M 39.3624,53.9155 c 0.0000,-2.2964 -1.8616,-4.1580 -4.1580 -4.1580c -2.2964,-0.0000 -4.1580,1.8616 -4.1580 4.1580c -0.0000,2.2964 1.8616,4.1580 4.1580 4.1580c 2.2964,0.0000 4.1580,-1.8616 4.1580 -4.1580Z"/></g><g stroke-linejoin="miter" stroke-opacity="0.0" fill-opacity="0.1" stroke="rgb(0,0,0)" stroke-width="0.0" fill="rgb(128,128,128)" stroke-linecap="butt" stroke-miterlimit="10.0"><path d="M 39.3624,67.7755 c 0.0000,-2.2964 -1.8616,-4.1580 -4.1580 -4.1580c -2.2964,-0.0000 -4.1580,1.8616 -4.1580 4.1580c -0.0000,2.2964 1.8616,4.1580 4.1580 4.1580c 2.2964,0.0000 4.1580,-1.8616 4.1580 -4.1580Z"/></g><g stroke-linejoin="miter" stroke-opacity="0.0" fill-opacity="0.1" stroke="rgb(0,0,0)" stroke-width="0.0" fill="rgb(128,128,128)" stroke-linecap="butt" stroke-miterlimit="10.0"><path d="M 39.3624,81.6355 c 0.0000,-2.2964 -1.8616,-4.1580 -4.1580 -4.1580c -2.2964,-0.0000 -4.1580,1.8616 -4.1580 4.1580c -0.0000,2.2964 1.8616,4.1580 4.1580 4.1580c 2.2964,0.0000 4.1580,-1.8616 4.1580 -4.1580Z"/></g><g stroke-linejoin="miter" stroke-opacity="0.0" fill-opacity="0.1" stroke="rgb(0,0,0)" stroke-width="0.0" fill="rgb(128,128,128)" stroke-linecap="butt" stroke-miterlimit="10.0"><path d="M 39.3624,95.4955 c 0.0000,-2.2964 -1.8616,-4.1580 -4.1580 -4.1580c -2.2964,-0.0000 -4.1580,1.8616 -4.1580 4.1580c -0.0000,2.2964 1.8616,4.1580 4.1580 4.1580c 2.2964,0.0000 4.1580,-1.8616 4.1580 -4.1580Z"/></g><g stroke-linejoin="miter" stroke-opacity="0.0" fill-opacity="0.1" stroke="rgb(0,0,0)" stroke-width="0.0" fill="rgb(128,128,128)" stroke-linecap="butt" stroke-miterlimit="10.0"><path d="M 39.3624,109.3555 c 0.0000,-2.2964 -1.8616,-4.1580 -4.1580 -4.1580c -2.2964,-0.0000 -4.1580,1.8616 -4.1580 4.1580c -0.0000,2.2964 1.8616,4.1580 4.1580 4.1580c 2.2964,0.0000 4.1580,-1.8616 4.1580 -4.1580Z"/></g><g stroke-linejoin="miter" stroke-opacity="0.0" fill-opacity="0.1" stroke="rgb(0,0,0)" stroke-width="0.0" fill="rgb(128,128,128)" stroke-linecap="butt" stroke-miterlimit="10.0"><path d="M 39.3624,123.2155 c 0.0000,-2.2964 -1.8616,-4.1580 -4.1580 -4.1580c -2.2964,-0.0000 -4.1580,1.8616 -4.1580 4.1580c -0.0000,2.2964 1.8616,4.1580 4.1580 4.1580c 2.2964,0.0000 4.1580,-1.8616 4.1580 -4.1580Z"/></g><g stroke-linejoin="miter" stroke-opacity="0.0" fill-opacity="0.1" stroke="rgb(0,0,0)" stroke-width="0.0" fill="rgb(128,128,128)" stroke-linecap="butt" stroke-miterlimit="10.0"><path d="M 39.3624,137.0755 c 0.0000,-2.2964 -1.8616,-4.1580 -4.1580 -4.1580c -2.2964,-0.0000 -4.1580,1.8616 -4.1580 4.1580c -0.0000,2.2964 1.8616,4.1580 4.1580 4.1580c 2.2964,0.0000 4.1580,-1.8616 4.1580 -4.1580Z"/></g><g stroke-linejoin="miter" stroke-opacity="0.0" fill-opacity="0.1" stroke="rgb(0,0,0)" stroke-width="0.0" fill="rgb(128,128,128)" stroke-linecap="butt" stroke-miterlimit="10.0"><path d="M 39.3624,150.9356 c 0.0000,-2.2964 -1.8616,-4.1580 -4.1580 -4.1580c -2.2964,-0.0000 -4.1580,1.8616 -4.1580 4.1580c -0.0000,2.2964 1.8616,4.1580 4.1580 4.1580c 2.2964,0.0000 4.1580,-1.8616 4.1580 -4.1580Z"/></g><g stroke-linejoin="miter" stroke-opacity="0.0" fill-opacity="0.1" stroke="rgb(0,0,0)" stroke-width="0.0" fill="rgb(128,128,128)" stroke-linecap="butt" stroke-miterlimit="10.0"><path d="M 39.3624,164.7956 c 0.0000,-2.2964 -1.8616,-4.1580 -4.1580 -4.1580c -2.2964,-0.0000 -4.1580,1.8616 -4.1580 4.1580c -0.0000,2.2964 1.8616,4.1580 4.1580 4.1580c 2.2964,0.0000 4.1580,-1.8616 4.1580 -4.1580Z"/></g></svg>