<?xml version="1.0" encoding="UTF-8"?>
<!DOCTYPE svg PUBLIC "-//W3C//DTD SVG 1.1//EN"
    "http://www.w3.org/Graphics/SVG/1.1/DTD/svg11.dtd"><svg xmlns="http://www.w3.org/2000/svg" height="600.0000" stroke-opacity="1" viewBox="0 0 600 600" font-size="1" width="600.0000" xmlns:xlink="http://www.w3.org/1999/xlink" stroke="rgb(0,0,0)" version="1.1"><defs></defs><g stroke-linejoin="miter" stroke-opacity="0.0" fill-opacity="0.1" stroke="rgb(0,0,0)" stroke-width="0.0" fill="rgb(0,0,0)" stroke-linecap="butt" stroke-miterlimit="10.0"><path d="M 106.1370,472.7612 l -0.0000,-113.4138 h -5.6707 l -0.0000,113.4138 Z"/></g><g stroke-linejoin="miter" stroke-opacity="1.0" fill-opacity="0.6" stroke="rgb(0,0,0)" fill-rule="evenodd" stroke-width="0.0" fill="rgb(0,0,0)" stroke-linecap="butt" stroke-miterlimit="10.0"><path d="M 64.5449,364.3510 ZM 68.6639,354.1381 c -0.8088,-0.0000 -1.9937,0.7899 -1.9937 5.1723c 0.0000,1.5423 0.2821,4.6456 1.9372 4.6456c 0.3197,-0.0000 1.2225,-0.2069 1.6175 -1.6739c 0.2445,-0.9028 0.3762,-2.0313 0.3762 -3.6676c 0.0000,-2.3886 -0.6019,-3.7240 -1.1473 -4.1942c -0.2069,-0.1881 -0.4890,-0.2821 -0.7899 -0.2821ZM 68.6639,354.1381 ZM 68.5887,364.5767 c -2.0125,-0.0000 -3.3667,-2.5767 -3.3667 -5.4544c 0.0000,-3.5171 1.6739,-5.6425 3.4419 -5.6425c 0.8088,-0.0000 1.6175,0.5078 2.1629 1.2413c 0.7899,1.0533 1.2037,2.4639 1.2037 4.2319c 0.0000,4.1754 -2.0689,5.6237 -3.4419 5.6237ZM 72.7829,364.3510 ZM 73.8550,363.5799 c 0.0000,-0.5454 0.4514,-0.9968 0.9968 -0.9968c 0.5454,-0.0000 0.9968,0.4514 0.9968 0.9968c 0.0000,0.5454 -0.4514,0.9968 -0.9968 0.9968c -0.5454,-0.0000 -0.9968,-0.4514 -0.9968 -0.9968ZM 76.9019,364.3510 ZM 81.0209,354.1381 c -0.8088,-0.0000 -1.9937,0.7899 -1.9937 5.1723c 0.0000,1.5423 0.2821,4.6456 1.9372 4.6456c 0.3197,-0.0000 1.2225,-0.2069 1.6175 -1.6739c 0.2445,-0.9028 0.3762,-2.0313 0.3762 -3.6676c 0.0000,-2.3886 -0.6019,-3.7240 -1.1473 -4.1942c -0.2069,-0.1881 -0.4890,-0.2821 -0.7899 -0.2821ZM 81.0209,354.1381 ZM 80.9457,364.5767 c -2.0125,-0.0000 -3.3667,-2.5767 -3.3667 -5.4544c 0.0000,-3.5171 1.6739,-5.6425 3.4419 -5.6425c 0.8088,-0.0000 1.6175,0.5078 2.1629 1.2413c 0.7899,1.0533 1.2037,2.4639 1.2037 4.2319c 0.0000,4.1754 -2.0689,5.6237 -3.4419 5.6237ZM 85.1399,364.3510 ZM 89.9925,357.6741 c 0.0000,-0.1317 0.0188,-0.2821 0.1881 -0.3762c 0.2069,-0.1505 0.5454,-0.3197 0.8276 -0.3197c 0.2445,-0.0000 0.2633,0.2069 0.2633 0.5831v 3.0281 h 1.5235 l -0.1128,0.8840 h -1.4106 v 1.5611 c 0.0000,0.5266 0.0752,0.7899 0.6207 0.7899h 0.5078 c 0.1128,-0.0000 0.1317,0.0940 0.1317 0.1317v 0.4138 c 0.0000,-0.0000 -1.2037,-0.0376 -1.9937 -0.0376c -0.7147,-0.0000 -1.8244,0.0376 -1.8244 0.0376v -0.4138 c 0.0000,-0.0376 0.0188,-0.1317 0.1317 -0.1317h 0.5078 c 0.5831,-0.0000 0.6395,-0.2445 0.6395 -0.7899v -1.5611 h -3.6864 c -0.0752,-0.0000 -0.1128,-0.0376 -0.1693 -0.1128l -0.1505,-0.2069 l -0.2257,-0.3950 c -0.0188,-0.0000 -0.0188,-0.0188 -0.0188 -0.0376c 0.0000,-0.0188 0.0188,-0.0376 0.0376 -0.0564c 1.2225,-1.3542 3.3855,-5.5484 4.0626 -7.0907c 0.0188,-0.0752 0.0564,-0.0940 0.1317 -0.0940c 0.0188,-0.0000 0.4326,0.1693 0.6583 0.2069c -0.8464,2.2758 -2.2382,4.7209 -3.6112 6.9026h 2.9717 v -2.9153 Z"/></g><g stroke-linejoin="miter" stroke-opacity="0.6" fill-opacity="0.0" stroke="rgb(0,0,0)" stroke-width="2.773639562685738" fill="rgb(0,0,0)" stroke-linecap="butt" stroke-miterlimit="10.0"><path d="M 97.6310,364.3510 h 8.5060 "/></g><g stroke-linejoin="miter" stroke-opacity="1.0" fill-opacity="0.6" stroke="rgb(0,0,0)" fill-rule="evenodd" stroke-width="0.0" fill="rgb(0,0,0)" stroke-linecap="butt" stroke-miterlimit="10.0"><path d="M 64.5449,381.0295 ZM 68.6639,370.8166 c -0.8088,-0.0000 -1.9937,0.7899 -1.9937 5.1723c 0.0000,1.5423 0.2821,4.6456 1.9372 4.6456c 0.3197,-0.0000 1.2225,-0.2069 1.6175 -1.6739c 0.2445,-0.9028 0.3762,-2.0313 0.3762 -3.6676c 0.0000,-2.3886 -0.6019,-3.7240 -1.1473 -4.1942c -0.2069,-0.1881 -0.4890,-0.2821 -0.7899 -0.2821ZM 68.6639,370.8166 ZM 68.5887,381.2552 c -2.0125,-0.0000 -3.3667,-2.5767 -3.3667 -5.4544c 0.0000,-3.5171 1.6739,-5.6425 3.4419 -5.6425c 0.8088,-0.0000 1.6175,0.5078 2.1629 1.2413c 0.7899,1.0533 1.2037,2.4639 1.2037 4.2319c 0.0000,4.1754 -2.0689,5.6237 -3.4419 5.6237ZM 72.7829,381.0295 ZM 73.8550,380.2584 c 0.0000,-0.5454 0.4514,-0.9968 0.9968 -0.9968c 0.5454,-0.0000 0.9968,0.4514 0.9968 0.9968c 0.0000,0.5454 -0.4514,0.9968 -0.9968 0.9968c -0.5454,-0.0000 -0.9968,-0.4514 -0.9968 -0.9968ZM 76.9019,381.0295 ZM 81.0209,370.8166 c -0.8088,-0.0000 -1.9937,0.7899 -1.9937 5.1723c 0.0000,1.5423 0.2821,4.6456 1.9372 4.6456c 0.3197,-0.0000 1.2225,-0.2069 1.6175 -1.6739c 0.2445,-0.9028 0.3762,-2.0313 0.3762 -3.6676c 0.0000,-2.3886 -0.6019,-3.7240 -1.1473 -4.1942c -0.2069,-0.1881 -0.4890,-0.2821 -0.7899 -0.2821ZM 81.0209,370.8166 ZM 80.9457,381.2552 c -2.0125,-0.0000 -3.3667,-2.5767 -3.3667 -5.4544c 0.0000,-3.5171 1.6739,-5.6425 3.4419 -5.6425c 0.8088,-0.0000 1.6175,0.5078 2.1629 1.2413c 0.7899,1.0533 1.2037,2.4639 1.2037 4.2319c 0.0000,4.1754 -2.0689,5.6237 -3.4419 5.6237ZM 85.1399,381.0295 ZM 89.2025,370.7414 c -0.4702,-0.0000 -1.8432,0.2633 -1.8432 1.4106c 0.0000,0.3385 -0.1317,0.9216 -0.6395 0.9216c -0.4890,-0.0000 -0.5266,-0.5454 -0.5266 -0.6019c 0.0000,-0.5831 0.7711,-2.3134 3.3855 -2.3134c 1.8244,-0.0000 2.3698,1.1473 2.3698 1.8996c 0.0000,0.4702 -0.1505,1.4106 -1.8432 2.4827c 1.0533,0.1693 2.4451,0.9404 2.4451 2.8965c 0.0000,2.4827 -1.8808,3.8181 -4.0062 3.8181c -1.0721,-0.0000 -2.5767,-0.4702 -2.5767 -1.1849c 0.0000,-0.2821 0.2821,-0.6019 0.6583 -0.6019c 0.3574,-0.0000 0.5266,0.1881 0.6959 0.4326c 0.2069,0.3197 0.5454,0.7711 1.4482 0.7711c 0.6207,-0.0000 2.3886,-0.6207 2.3886 -2.9905c 0.0000,-2.0125 -1.4106,-2.3322 -2.4263 -2.3322c -0.1693,-0.0000 -0.3762,0.0376 -0.5831 0.0752l -0.0752,-0.5642 c 1.4482,-0.2445 2.6520,-1.6551 2.6520 -2.5203c 0.0000,-1.0721 -0.7523,-1.5987 -1.5235 -1.5987Z"/></g><g stroke-linejoin="miter" stroke-opacity="0.6" fill-opacity="0.0" stroke="rgb(0,0,0)" stroke-width="2.773639562685738" fill="rgb(0,0,0)" stroke-linecap="butt" stroke-miterlimit="10.0"><path d="M 97.6310,381.0295 h 8.5060 "/></g><g stroke-linejoin="miter" stroke-opacity="1.0" fill-opacity="0.6" stroke="rgb(0,0,0)" fill-rule="evenodd" stroke-width="0.0" fill="rgb(0,0,0)" stroke-linecap="butt" stroke-miterlimit="10.0"><path d="M 64.5449,397.7080 ZM 68.6639,387.4951 c -0.8088,-0.0000 -1.9937,0.7899 -1.9937 5.1723c 0.0000,1.5423 0.2821,4.6456 1.9372 4.6456c 0.3197,-0.0000 1.2225,-0.2069 1.6175 -1.6739c 0.2445,-0.9028 0.3762,-2.0313 0.3762 -3.6676c 0.0000,-2.3886 -0.6019,-3.7240 -1.1473 -4.1942c -0.2069,-0.1881 -0.4890,-0.2821 -0.7899 -0.2821ZM 68.6639,387.4951 ZM 68.5887,397.9337 c -2.0125,-0.0000 -3.3667,-2.5767 -3.3667 -5.4544c 0.0000,-3.5171 1.6739,-5.6425 3.4419 -5.6425c 0.8088,-0.0000 1.6175,0.5078 2.1629 1.2413c 0.7899,1.0533 1.2037,2.4639 1.2037 4.2319c 0.0000,4.1754 -2.0689,5.6237 -3.4419 5.6237ZM 72.7829,397.7080 ZM 73.8550,396.9369 c 0.0000,-0.5454 0.4514,-0.9968 0.9968 -0.9968c 0.5454,-0.0000 0.9968,0.4514 0.9968 0.9968c 0.0000,0.5454 -0.4514,0.9968 -0.9968 0.9968c -0.5454,-0.0000 -0.9968,-0.4514 -0.9968 -0.9968ZM 76.9019,397.7080 ZM 81.0209,387.4951 c -0.8088,-0.0000 -1.9937,0.7899 -1.9937 5.1723c 0.0000,1.5423 0.2821,4.6456 1.9372 4.6456c 0.3197,-0.0000 1.2225,-0.2069 1.6175 -1.6739c 0.2445,-0.9028 0.3762,-2.0313 0.3762 -3.6676c 0.0000,-2.3886 -0.6019,-3.7240 -1.1473 -4.1942c -0.2069,-0.1881 -0.4890,-0.2821 -0.7899 -0.2821ZM 81.0209,387.4951 ZM 80.9457,397.9337 c -2.0125,-0.0000 -3.3667,-2.5767 -3.3667 -5.4544c 0.0000,-3.5171 1.6739,-5.6425 3.4419 -5.6425c 0.8088,-0.0000 1.6175,0.5078 2.1629 1.2413c 0.7899,1.0533 1.2037,2.4639 1.2037 4.2319c 0.0000,4.1754 -2.0689,5.6237 -3.4419 5.6237ZM 85.1399,397.7080 ZM 86.2308,389.3760 c 0.0000,-1.0721 1.0345,-2.5391 3.0093 -2.5391c 1.4482,-0.0000 3.1410,0.5454 3.1410 2.7084c 0.0000,1.4294 -0.7335,2.1441 -1.7492 3.1222l -1.7868,1.7304 c -0.0940,0.0940 -1.3542,1.3354 -1.3542 2.2194h 3.1974 c 0.6395,-0.0000 0.9780,-0.3197 1.2413 -1.3542l 0.4702,0.0752 l -0.3762,2.3698 h -5.8117 c 0.0000,-1.0533 0.1693,-1.8620 1.9184 -3.6488l 1.3166,-1.2978 c 1.0533,-1.0721 1.4859,-1.9937 1.4859 -3.1410c 0.0000,-1.7116 -1.1661,-2.2006 -1.8056 -2.2006c -1.2978,-0.0000 -1.6551,0.6771 -1.6551 1.1285c 0.0000,0.1505 0.0376,0.3009 0.0752 0.4326c 0.0376,0.1317 0.0752,0.2633 0.0752 0.4138c 0.0000,0.4890 -0.3762,0.6771 -0.6771 0.6771c -0.4138,-0.0000 -0.7147,-0.3197 -0.7147 -0.6959Z"/></g><g stroke-linejoin="miter" stroke-opacity="0.6" fill-opacity="0.0" stroke="rgb(0,0,0)" stroke-width="2.773639562685738" fill="rgb(0,0,0)" stroke-linecap="butt" stroke-miterlimit="10.0"><path d="M 97.6310,397.7080 h 8.5060 "/></g><g stroke-linejoin="miter" stroke-opacity="1.0" fill-opacity="0.6" stroke="rgb(0,0,0)" fill-rule="evenodd" stroke-width="0.0" fill="rgb(0,0,0)" stroke-linecap="butt" stroke-miterlimit="10.0"><path d="M 64.5449,414.3865 ZM 68.6639,404.1736 c -0.8088,-0.0000 -1.9937,0.7899 -1.9937 5.1723c 0.0000,1.5423 0.2821,4.6456 1.9372 4.6456c 0.3197,-0.0000 1.2225,-0.2069 1.6175 -1.6739c 0.2445,-0.9028 0.3762,-2.0313 0.3762 -3.6676c 0.0000,-2.3886 -0.6019,-3.7240 -1.1473 -4.1942c -0.2069,-0.1881 -0.4890,-0.2821 -0.7899 -0.2821ZM 68.6639,404.1736 ZM 68.5887,414.6122 c -2.0125,-0.0000 -3.3667,-2.5767 -3.3667 -5.4544c 0.0000,-3.5171 1.6739,-5.6425 3.4419 -5.6425c 0.8088,-0.0000 1.6175,0.5078 2.1629 1.2413c 0.7899,1.0533 1.2037,2.4639 1.2037 4.2319c 0.0000,4.1754 -2.0689,5.6237 -3.4419 5.6237ZM 72.7829,414.3865 ZM 73.8550,413.6154 c 0.0000,-0.5454 0.4514,-0.9968 0.9968 -0.9968c 0.5454,-0.0000 0.9968,0.4514 0.9968 0.9968c 0.0000,0.5454 -0.4514,0.9968 -0.9968 0.9968c -0.5454,-0.0000 -0.9968,-0.4514 -0.9968 -0.9968ZM 76.9019,414.3865 ZM 81.0209,404.1736 c -0.8088,-0.0000 -1.9937,0.7899 -1.9937 5.1723c 0.0000,1.5423 0.2821,4.6456 1.9372 4.6456c 0.3197,-0.0000 1.2225,-0.2069 1.6175 -1.6739c 0.2445,-0.9028 0.3762,-2.0313 0.3762 -3.6676c 0.0000,-2.3886 -0.6019,-3.7240 -1.1473 -4.1942c -0.2069,-0.1881 -0.4890,-0.2821 -0.7899 -0.2821ZM 81.0209,404.1736 ZM 80.9457,414.6122 c -2.0125,-0.0000 -3.3667,-2.5767 -3.3667 -5.4544c 0.0000,-3.5171 1.6739,-5.6425 3.4419 -5.6425c 0.8088,-0.0000 1.6175,0.5078 2.1629 1.2413c 0.7899,1.0533 1.2037,2.4639 1.2037 4.2319c 0.0000,4.1754 -2.0689,5.6237 -3.4419 5.6237ZM 85.1399,414.3865 ZM 88.6759,405.4150 c -0.3574,-0.0000 -1.1849,0.3385 -1.5987 0.5266l -0.2257,-0.5831 c 1.6551,-0.7711 2.2946,-1.1661 3.2350 -1.8432h 0.3574 v 9.4605 c 0.0000,0.6771 0.0940,0.8652 0.7147 0.8652h 0.9780 c 0.0564,-0.0000 0.1505,0.0376 0.1505 0.1505v 0.4138 l -2.5767,-0.0376 l -2.6143,0.0376 v -0.4138 c 0.0188,-0.0564 0.0376,-0.1505 0.1505 -0.1505h 1.1285 c 0.7147,-0.0000 0.7147,-0.3197 0.7147 -0.8652v -6.4700 c 0.0000,-0.6395 0.0000,-1.0909 -0.4138 -1.0909Z"/></g><g stroke-linejoin="miter" stroke-opacity="0.6" fill-opacity="0.0" stroke="rgb(0,0,0)" stroke-width="2.773639562685738" fill="rgb(0,0,0)" stroke-linecap="butt" stroke-miterlimit="10.0"><path d="M 97.6310,414.3865 h 8.5060 "/></g><g stroke-linejoin="miter" stroke-opacity="1.0" fill-opacity="0.6" stroke="rgb(0,0,0)" fill-rule="evenodd" stroke-width="0.0" fill="rgb(0,0,0)" stroke-linecap="butt" stroke-miterlimit="10.0"><path d="M 64.5449,431.0650 ZM 68.6639,420.8521 c -0.8088,-0.0000 -1.9937,0.7899 -1.9937 5.1723c 0.0000,1.5423 0.2821,4.6456 1.9372 4.6456c 0.3197,-0.0000 1.2225,-0.2069 1.6175 -1.6739c 0.2445,-0.9028 0.3762,-2.0313 0.3762 -3.6676c 0.0000,-2.3886 -0.6019,-3.7240 -1.1473 -4.1942c -0.2069,-0.1881 -0.4890,-0.2821 -0.7899 -0.2821ZM 68.6639,420.8521 ZM 68.5887,431.2907 c -2.0125,-0.0000 -3.3667,-2.5767 -3.3667 -5.4544c 0.0000,-3.5171 1.6739,-5.6425 3.4419 -5.6425c 0.8088,-0.0000 1.6175,0.5078 2.1629 1.2413c 0.7899,1.0533 1.2037,2.4639 1.2037 4.2319c 0.0000,4.1754 -2.0689,5.6237 -3.4419 5.6237ZM 72.7829,431.0650 ZM 73.8550,430.2939 c 0.0000,-0.5454 0.4514,-0.9968 0.9968 -0.9968c 0.5454,-0.0000 0.9968,0.4514 0.9968 0.9968c 0.0000,0.5454 -0.4514,0.9968 -0.9968 0.9968c -0.5454,-0.0000 -0.9968,-0.4514 -0.9968 -0.9968ZM 76.9019,431.0650 ZM 81.0209,420.8521 c -0.8088,-0.0000 -1.9937,0.7899 -1.9937 5.1723c 0.0000,1.5423 0.2821,4.6456 1.9372 4.6456c 0.3197,-0.0000 1.2225,-0.2069 1.6175 -1.6739c 0.2445,-0.9028 0.3762,-2.0313 0.3762 -3.6676c 0.0000,-2.3886 -0.6019,-3.7240 -1.1473 -4.1942c -0.2069,-0.1881 -0.4890,-0.2821 -0.7899 -0.2821ZM 81.0209,420.8521 ZM 80.9457,431.2907 c -2.0125,-0.0000 -3.3667,-2.5767 -3.3667 -5.4544c 0.0000,-3.5171 1.6739,-5.6425 3.4419 -5.6425c 0.8088,-0.0000 1.6175,0.5078 2.1629 1.2413c 0.7899,1.0533 1.2037,2.4639 1.2037 4.2319c 0.0000,4.1754 -2.0689,5.6237 -3.4419 5.6237ZM 85.1399,431.0650 ZM 89.2589,420.8521 c -0.8088,-0.0000 -1.9937,0.7899 -1.9937 5.1723c 0.0000,1.5423 0.2821,4.6456 1.9372 4.6456c 0.3197,-0.0000 1.2225,-0.2069 1.6175 -1.6739c 0.2445,-0.9028 0.3762,-2.0313 0.3762 -3.6676c 0.0000,-2.3886 -0.6019,-3.7240 -1.1473 -4.1942c -0.2069,-0.1881 -0.4890,-0.2821 -0.7899 -0.2821ZM 89.2589,420.8521 ZM 89.1837,431.2907 c -2.0125,-0.0000 -3.3667,-2.5767 -3.3667 -5.4544c 0.0000,-3.5171 1.6739,-5.6425 3.4419 -5.6425c 0.8088,-0.0000 1.6175,0.5078 2.1629 1.2413c 0.7899,1.0533 1.2037,2.4639 1.2037 4.2319c 0.0000,4.1754 -2.0689,5.6237 -3.4419 5.6237Z"/></g><g stroke-linejoin="miter" stroke-opacity="0.6" fill-opacity="0.0" stroke="rgb(0,0,0)" stroke-width="2.773639562685738" fill="rgb(0,0,0)" stroke-linecap="butt" stroke-miterlimit="10.0"><path d="M 97.6310,431.0650 h 8.5060 "/></g><g stroke-linejoin="miter" stroke-opacity="1.0" fill-opacity="0.6" stroke="rgb(0,0,0)" fill-rule="evenodd" stroke-width="0.0" fill="rgb(0,0,0)" stroke-linecap="butt" stroke-miterlimit="10.0"><path d="M 58.2818,447.7435 ZM 63.4352,443.3047 h -4.2507 c -0.1693,-0.0000 -0.2821,-0.1505 -0.2821 -0.3197c 0.0000,-0.3009 0.2445,-0.6959 0.4702 -0.6959h 4.3071 c 0.1881,-0.0000 0.2633,0.1693 0.2633 0.3385c 0.0000,0.2069 -0.2633,0.6771 -0.5078 0.6771ZM 64.5449,447.7435 ZM 68.6639,437.5306 c -0.8088,-0.0000 -1.9937,0.7899 -1.9937 5.1723c 0.0000,1.5423 0.2821,4.6456 1.9372 4.6456c 0.3197,-0.0000 1.2225,-0.2069 1.6175 -1.6739c 0.2445,-0.9028 0.3762,-2.0313 0.3762 -3.6676c 0.0000,-2.3886 -0.6019,-3.7240 -1.1473 -4.1942c -0.2069,-0.1881 -0.4890,-0.2821 -0.7899 -0.2821ZM 68.6639,437.5306 ZM 68.5887,447.9692 c -2.0125,-0.0000 -3.3667,-2.5767 -3.3667 -5.4544c 0.0000,-3.5171 1.6739,-5.6425 3.4419 -5.6425c 0.8088,-0.0000 1.6175,0.5078 2.1629 1.2413c 0.7899,1.0533 1.2037,2.4639 1.2037 4.2319c 0.0000,4.1754 -2.0689,5.6237 -3.4419 5.6237ZM 72.7829,447.7435 ZM 73.8550,446.9724 c 0.0000,-0.5454 0.4514,-0.9968 0.9968 -0.9968c 0.5454,-0.0000 0.9968,0.4514 0.9968 0.9968c 0.0000,0.5454 -0.4514,0.9968 -0.9968 0.9968c -0.5454,-0.0000 -0.9968,-0.4514 -0.9968 -0.9968ZM 76.9019,447.7435 ZM 81.0209,437.5306 c -0.8088,-0.0000 -1.9937,0.7899 -1.9937 5.1723c 0.0000,1.5423 0.2821,4.6456 1.9372 4.6456c 0.3197,-0.0000 1.2225,-0.2069 1.6175 -1.6739c 0.2445,-0.9028 0.3762,-2.0313 0.3762 -3.6676c 0.0000,-2.3886 -0.6019,-3.7240 -1.1473 -4.1942c -0.2069,-0.1881 -0.4890,-0.2821 -0.7899 -0.2821ZM 81.0209,437.5306 ZM 80.9457,447.9692 c -2.0125,-0.0000 -3.3667,-2.5767 -3.3667 -5.4544c 0.0000,-3.5171 1.6739,-5.6425 3.4419 -5.6425c 0.8088,-0.0000 1.6175,0.5078 2.1629 1.2413c 0.7899,1.0533 1.2037,2.4639 1.2037 4.2319c 0.0000,4.1754 -2.0689,5.6237 -3.4419 5.6237ZM 85.1399,447.7435 ZM 88.6759,438.7720 c -0.3574,-0.0000 -1.1849,0.3385 -1.5987 0.5266l -0.2257,-0.5831 c 1.6551,-0.7711 2.2946,-1.1661 3.2350 -1.8432h 0.3574 v 9.4605 c 0.0000,0.6771 0.0940,0.8652 0.7147 0.8652h 0.9780 c 0.0564,-0.0000 0.1505,0.0376 0.1505 0.1505v 0.4138 l -2.5767,-0.0376 l -2.6143,0.0376 v -0.4138 c 0.0188,-0.0564 0.0376,-0.1505 0.1505 -0.1505h 1.1285 c 0.7147,-0.0000 0.7147,-0.3197 0.7147 -0.8652v -6.4700 c 0.0000,-0.6395 0.0000,-1.0909 -0.4138 -1.0909Z"/></g><g stroke-linejoin="miter" stroke-opacity="0.6" fill-opacity="0.0" stroke="rgb(0,0,0)" stroke-width="2.773639562685738" fill="rgb(0,0,0)" stroke-linecap="butt" stroke-miterlimit="10.0"><path d="M 97.6310,447.7435 h 8.5060 "/></g><g stroke-linejoin="miter" stroke-opacity="1.0" fill-opacity="0.6" stroke="rgb(0,0,0)" fill-rule="evenodd" stroke-width="0.0" fill="rgb(0,0,0)" stroke-linecap="butt" stroke-miterlimit="10.0"><path d="M 58.2818,464.4220 ZM 63.4352,459.9832 h -4.2507 c -0.1693,-0.0000 -0.2821,-0.1505 -0.2821 -0.3197c 0.0000,-0.3009 0.2445,-0.6959 0.4702 -0.6959h 4.3071 c 0.1881,-0.0000 0.2633,0.1693 0.2633 0.3385c 0.0000,0.2069 -0.2633,0.6771 -0.5078 0.6771ZM 64.5449,464.4220 ZM 68.6639,454.2091 c -0.8088,-0.0000 -1.9937,0.7899 -1.9937 5.1723c 0.0000,1.5423 0.2821,4.6456 1.9372 4.6456c 0.3197,-0.0000 1.2225,-0.2069 1.6175 -1.6739c 0.2445,-0.9028 0.3762,-2.0313 0.3762 -3.6676c 0.0000,-2.3886 -0.6019,-3.7240 -1.1473 -4.1942c -0.2069,-0.1881 -0.4890,-0.2821 -0.7899 -0.2821ZM 68.6639,454.2091 ZM 68.5887,464.6477 c -2.0125,-0.0000 -3.3667,-2.5767 -3.3667 -5.4544c 0.0000,-3.5171 1.6739,-5.6425 3.4419 -5.6425c 0.8088,-0.0000 1.6175,0.5078 2.1629 1.2413c 0.7899,1.0533 1.2037,2.4639 1.2037 4.2319c 0.0000,4.1754 -2.0689,5.6237 -3.4419 5.6237ZM 72.7829,464.4220 ZM 73.8550,463.6508 c 0.0000,-0.5454 0.4514,-0.9968 0.9968 -0.9968c 0.5454,-0.0000 0.9968,0.4514 0.9968 0.9968c 0.0000,0.5454 -0.4514,0.9968 -0.9968 0.9968c -0.5454,-0.0000 -0.9968,-0.4514 -0.9968 -0.9968ZM 76.9019,464.4220 ZM 81.0209,454.2091 c -0.8088,-0.0000 -1.9937,0.7899 -1.9937 5.1723c 0.0000,1.5423 0.2821,4.6456 1.9372 4.6456c 0.3197,-0.0000 1.2225,-0.2069 1.6175 -1.6739c 0.2445,-0.9028 0.3762,-2.0313 0.3762 -3.6676c 0.0000,-2.3886 -0.6019,-3.7240 -1.1473 -4.1942c -0.2069,-0.1881 -0.4890,-0.2821 -0.7899 -0.2821ZM 81.0209,454.2091 ZM 80.9457,464.6477 c -2.0125,-0.0000 -3.3667,-2.5767 -3.3667 -5.4544c 0.0000,-3.5171 1.6739,-5.6425 3.4419 -5.6425c 0.8088,-0.0000 1.6175,0.5078 2.1629 1.2413c 0.7899,1.0533 1.2037,2.4639 1.2037 4.2319c 0.0000,4.1754 -2.0689,5.6237 -3.4419 5.6237ZM 85.1399,464.4220 ZM 86.2308,456.0899 c 0.0000,-1.0721 1.0345,-2.5391 3.0093 -2.5391c 1.4482,-0.0000 3.1410,0.5454 3.1410 2.7084c 0.0000,1.4294 -0.7335,2.1441 -1.7492 3.1222l -1.7868,1.7304 c -0.0940,0.0940 -1.3542,1.3354 -1.3542 2.2194h 3.1974 c 0.6395,-0.0000 0.9780,-0.3197 1.2413 -1.3542l 0.4702,0.0752 l -0.3762,2.3698 h -5.8117 c 0.0000,-1.0533 0.1693,-1.8620 1.9184 -3.6488l 1.3166,-1.2978 c 1.0533,-1.0721 1.4859,-1.9937 1.4859 -3.1410c 0.0000,-1.7116 -1.1661,-2.2006 -1.8056 -2.2006c -1.2978,-0.0000 -1.6551,0.6771 -1.6551 1.1285c 0.0000,0.1505 0.0376,0.3009 0.0752 0.4326c 0.0376,0.1317 0.0752,0.2633 0.0752 0.4138c 0.0000,0.4890 -0.3762,0.6771 -0.6771 0.6771c -0.4138,-0.0000 -0.7147,-0.3197 -0.7147 -0.6959Z"/></g><g stroke-linejoin="miter" stroke-opacity="0.6" fill-opacity="0.0" stroke="rgb(0,0,0)" stroke-width="2.773639562685738" fill="rgb(0,0,0)" stroke-linecap="butt" stroke-miterlimit="10.0"><path d="M 97.6310,464.4220 h 8.5060 "/></g><g stroke-linejoin="miter" stroke-opacity="0.0" fill-opacity="0.1" stroke="rgb(0,0,0)" stroke-width="0.0" fill="rgb(0,0,0)" stroke-linecap="butt" stroke-miterlimit="10.0"><path d="M 550.0305,483.8678 l -0.0000,-5.6707 h -425.3016 l -0.0000,5.6707 Z"/></g><g stroke-linejoin="miter" stroke-opacity="1.0" fill-opacity="0.6" stroke="rgb(0,0,0)" fill-rule="evenodd" stroke-width="0.0" fill="rgb(0,0,0)" stroke-linecap="butt" stroke-miterlimit="10.0"><path d="M 545.9115,507.7707 ZM 551.7233,504.5921 c 0.0000,-1.9372 -1.0533,-2.8965 -2.2194 -2.8965c -0.8652,-0.0000 -1.5235,0.1317 -2.2570 0.4326l 0.6019,-5.1347 c 0.6207,0.0564 1.2602,0.0752 1.9184 0.0752c 0.9404,-0.0000 1.9184,-0.0564 2.9341 -0.1693l 0.1128,0.0564 l -0.2821,1.2225 c -0.7335,0.0752 -1.3354,0.0940 -1.8620 0.0940c -0.8464,-0.0000 -1.4859,-0.0752 -2.1441 -0.1505l -0.3574,2.9717 c 0.3950,-0.1505 1.0721,-0.2821 1.8056 -0.2821c 1.9937,-0.0000 3.1034,1.7304 3.1034 3.4607c 0.0000,2.1065 -1.4670,3.7240 -3.5924 3.7240c -1.0721,-0.0000 -2.6332,-0.6019 -2.6332 -1.3354c 0.0000,-0.3574 0.3009,-0.6019 0.6395 -0.6019c 0.3762,-0.0000 0.6207,0.2821 0.8464 0.5831c 0.2821,0.3385 0.5831,0.7147 1.1849 0.7147c 1.2037,-0.0000 2.2006,-1.1285 2.2006 -2.7648Z"/></g><g stroke-linejoin="miter" stroke-opacity="0.6" fill-opacity="0.0" stroke="rgb(0,0,0)" stroke-width="2.773639562685738" fill="rgb(0,0,0)" stroke-linecap="butt" stroke-miterlimit="10.0"><path d="M 550.0305,478.1971 v 8.5060 "/></g><g stroke-linejoin="miter" stroke-opacity="1.0" fill-opacity="0.6" stroke="rgb(0,0,0)" fill-rule="evenodd" stroke-width="0.0" fill="rgb(0,0,0)" stroke-linecap="butt" stroke-miterlimit="10.0"><path d="M 503.3814,507.7707 ZM 508.2339,501.0938 c 0.0000,-0.1317 0.0188,-0.2821 0.1881 -0.3762c 0.2069,-0.1505 0.5454,-0.3197 0.8276 -0.3197c 0.2445,-0.0000 0.2633,0.2069 0.2633 0.5831v 3.0281 h 1.5235 l -0.1128,0.8840 h -1.4106 v 1.5611 c 0.0000,0.5266 0.0752,0.7899 0.6207 0.7899h 0.5078 c 0.1128,-0.0000 0.1317,0.0940 0.1317 0.1317v 0.4138 c 0.0000,-0.0000 -1.2037,-0.0376 -1.9937 -0.0376c -0.7147,-0.0000 -1.8244,0.0376 -1.8244 0.0376v -0.4138 c 0.0000,-0.0376 0.0188,-0.1317 0.1317 -0.1317h 0.5078 c 0.5831,-0.0000 0.6395,-0.2445 0.6395 -0.7899v -1.5611 h -3.6864 c -0.0752,-0.0000 -0.1128,-0.0376 -0.1693 -0.1128l -0.1505,-0.2069 l -0.2257,-0.3950 c -0.0188,-0.0000 -0.0188,-0.0188 -0.0188 -0.0376c 0.0000,-0.0188 0.0188,-0.0376 0.0376 -0.0564c 1.2225,-1.3542 3.3855,-5.5484 4.0626 -7.0907c 0.0188,-0.0752 0.0564,-0.0940 0.1317 -0.0940c 0.0188,-0.0000 0.4326,0.1693 0.6583 0.2069c -0.8464,2.2758 -2.2382,4.7209 -3.6112 6.9026h 2.9717 v -2.9153 Z"/></g><g stroke-linejoin="miter" stroke-opacity="0.6" fill-opacity="0.0" stroke="rgb(0,0,0)" stroke-width="2.773639562685738" fill="rgb(0,0,0)" stroke-linecap="butt" stroke-miterlimit="10.0"><path d="M 507.5004,478.1971 v 8.5060 "/></g><g stroke-linejoin="miter" stroke-opacity="1.0" fill-opacity="0.6" stroke="rgb(0,0,0)" fill-rule="evenodd" stroke-width="0.0" fill="rgb(0,0,0)" stroke-linecap="butt" stroke-miterlimit="10.0"><path d="M 460.8512,507.7707 ZM 464.9138,497.4826 c -0.4702,-0.0000 -1.8432,0.2633 -1.8432 1.4106c 0.0000,0.3385 -0.1317,0.9216 -0.6395 0.9216c -0.4890,-0.0000 -0.5266,-0.5454 -0.5266 -0.6019c 0.0000,-0.5831 0.7711,-2.3134 3.3855 -2.3134c 1.8244,-0.0000 2.3698,1.1473 2.3698 1.8996c 0.0000,0.4702 -0.1505,1.4106 -1.8432 2.4827c 1.0533,0.1693 2.4451,0.9404 2.4451 2.8965c 0.0000,2.4827 -1.8808,3.8181 -4.0062 3.8181c -1.0721,-0.0000 -2.5767,-0.4702 -2.5767 -1.1849c 0.0000,-0.2821 0.2821,-0.6019 0.6583 -0.6019c 0.3574,-0.0000 0.5266,0.1881 0.6959 0.4326c 0.2069,0.3197 0.5454,0.7711 1.4482 0.7711c 0.6207,-0.0000 2.3886,-0.6207 2.3886 -2.9905c 0.0000,-2.0125 -1.4106,-2.3322 -2.4263 -2.3322c -0.1693,-0.0000 -0.3762,0.0376 -0.5831 0.0752l -0.0752,-0.5642 c 1.4482,-0.2445 2.6520,-1.6551 2.6520 -2.5203c 0.0000,-1.0721 -0.7523,-1.5987 -1.5235 -1.5987Z"/></g><g stroke-linejoin="miter" stroke-opacity="0.6" fill-opacity="0.0" stroke="rgb(0,0,0)" stroke-width="2.773639562685738" fill="rgb(0,0,0)" stroke-linecap="butt" stroke-miterlimit="10.0"><path d="M 464.9702,478.1971 v 8.5060 "/></g><g stroke-linejoin="miter" stroke-opacity="1.0" fill-opacity="0.6" stroke="rgb(0,0,0)" fill-rule="evenodd" stroke-width="0.0" fill="rgb(0,0,0)" stroke-linecap="butt" stroke-miterlimit="10.0"><path d="M 418.3210,507.7707 ZM 419.4119,499.4387 c 0.0000,-1.0721 1.0345,-2.5391 3.0093 -2.5391c 1.4482,-0.0000 3.1410,0.5454 3.1410 2.7084c 0.0000,1.4294 -0.7335,2.1441 -1.7492 3.1222l -1.7868,1.7304 c -0.0940,0.0940 -1.3542,1.3354 -1.3542 2.2194h 3.1974 c 0.6395,-0.0000 0.9780,-0.3197 1.2413 -1.3542l 0.4702,0.0752 l -0.3762,2.3698 h -5.8117 c 0.0000,-1.0533 0.1693,-1.8620 1.9184 -3.6488l 1.3166,-1.2978 c 1.0533,-1.0721 1.4859,-1.9937 1.4859 -3.1410c 0.0000,-1.7116 -1.1661,-2.2006 -1.8056 -2.2006c -1.2978,-0.0000 -1.6551,0.6771 -1.6551 1.1285c 0.0000,0.1505 0.0376,0.3009 0.0752 0.4326c 0.0376,0.1317 0.0752,0.2633 0.0752 0.4138c 0.0000,0.4890 -0.3762,0.6771 -0.6771 0.6771c -0.4138,-0.0000 -0.7147,-0.3197 -0.7147 -0.6959Z"/></g><g stroke-linejoin="miter" stroke-opacity="0.6" fill-opacity="0.0" stroke="rgb(0,0,0)" stroke-width="2.773639562685738" fill="rgb(0,0,0)" stroke-linecap="butt" stroke-miterlimit="10.0"><path d="M 422.4401,478.1971 v 8.5060 "/></g><g stroke-linejoin="miter" stroke-opacity="1.0" fill-opacity="0.6" stroke="rgb(0,0,0)" fill-rule="evenodd" stroke-width="0.0" fill="rgb(0,0,0)" stroke-linecap="butt" stroke-miterlimit="10.0"><path d="M 375.7909,507.7707 ZM 379.3268,498.7992 c -0.3574,-0.0000 -1.1849,0.3385 -1.5987 0.5266l -0.2257,-0.5831 c 1.6551,-0.7711 2.2946,-1.1661 3.2350 -1.8432h 0.3574 v 9.4605 c 0.0000,0.6771 0.0940,0.8652 0.7147 0.8652h 0.9780 c 0.0564,-0.0000 0.1505,0.0376 0.1505 0.1505v 0.4138 l -2.5767,-0.0376 l -2.6143,0.0376 v -0.4138 c 0.0188,-0.0564 0.0376,-0.1505 0.1505 -0.1505h 1.1285 c 0.7147,-0.0000 0.7147,-0.3197 0.7147 -0.8652v -6.4700 c 0.0000,-0.6395 0.0000,-1.0909 -0.4138 -1.0909Z"/></g><g stroke-linejoin="miter" stroke-opacity="0.6" fill-opacity="0.0" stroke="rgb(0,0,0)" stroke-width="2.773639562685738" fill="rgb(0,0,0)" stroke-linecap="butt" stroke-miterlimit="10.0"><path d="M 379.9099,478.1971 v 8.5060 "/></g><g stroke-linejoin="miter" stroke-opacity="1.0" fill-opacity="0.6" stroke="rgb(0,0,0)" fill-rule="evenodd" stroke-width="0.0" fill="rgb(0,0,0)" stroke-linecap="butt" stroke-miterlimit="10.0"><path d="M 333.2607,507.7707 ZM 337.3797,497.5578 c -0.8088,-0.0000 -1.9937,0.7899 -1.9937 5.1723c 0.0000,1.5423 0.2821,4.6456 1.9372 4.6456c 0.3197,-0.0000 1.2225,-0.2069 1.6175 -1.6739c 0.2445,-0.9028 0.3762,-2.0313 0.3762 -3.6676c 0.0000,-2.3886 -0.6019,-3.7240 -1.1473 -4.1942c -0.2069,-0.1881 -0.4890,-0.2821 -0.7899 -0.2821ZM 337.3797,497.5578 ZM 337.3045,507.9964 c -2.0125,-0.0000 -3.3667,-2.5767 -3.3667 -5.4544c 0.0000,-3.5171 1.6739,-5.6425 3.4419 -5.6425c 0.8088,-0.0000 1.6175,0.5078 2.1629 1.2413c 0.7899,1.0533 1.2037,2.4639 1.2037 4.2319c 0.0000,4.1754 -2.0689,5.6237 -3.4419 5.6237Z"/></g><g stroke-linejoin="miter" stroke-opacity="0.6" fill-opacity="0.0" stroke="rgb(0,0,0)" stroke-width="2.773639562685738" fill="rgb(0,0,0)" stroke-linecap="butt" stroke-miterlimit="10.0"><path d="M 337.3797,478.1971 v 8.5060 "/></g><g stroke-linejoin="miter" stroke-opacity="1.0" fill-opacity="0.6" stroke="rgb(0,0,0)" fill-rule="evenodd" stroke-width="0.0" fill="rgb(0,0,0)" stroke-linecap="butt" stroke-miterlimit="10.0"><path d="M 287.5990,507.7707 ZM 292.7525,503.3320 h -4.2507 c -0.1693,-0.0000 -0.2821,-0.1505 -0.2821 -0.3197c 0.0000,-0.3009 0.2445,-0.6959 0.4702 -0.6959h 4.3071 c 0.1881,-0.0000 0.2633,0.1693 0.2633 0.3385c 0.0000,0.2069 -0.2633,0.6771 -0.5078 0.6771ZM 293.8622,507.7707 ZM 297.3981,498.7992 c -0.3574,-0.0000 -1.1849,0.3385 -1.5987 0.5266l -0.2257,-0.5831 c 1.6551,-0.7711 2.2946,-1.1661 3.2350 -1.8432h 0.3574 v 9.4605 c 0.0000,0.6771 0.0940,0.8652 0.7147 0.8652h 0.9780 c 0.0564,-0.0000 0.1505,0.0376 0.1505 0.1505v 0.4138 l -2.5767,-0.0376 l -2.6143,0.0376 v -0.4138 c 0.0188,-0.0564 0.0376,-0.1505 0.1505 -0.1505h 1.1285 c 0.7147,-0.0000 0.7147,-0.3197 0.7147 -0.8652v -6.4700 c 0.0000,-0.6395 0.0000,-1.0909 -0.4138 -1.0909Z"/></g><g stroke-linejoin="miter" stroke-opacity="0.6" fill-opacity="0.0" stroke="rgb(0,0,0)" stroke-width="2.773639562685738" fill="rgb(0,0,0)" stroke-linecap="butt" stroke-miterlimit="10.0"><path d="M 294.8496,478.1971 v 8.5060 "/></g><g stroke-linejoin="miter" stroke-opacity="1.0" fill-opacity="0.6" stroke="rgb(0,0,0)" fill-rule="evenodd" stroke-width="0.0" fill="rgb(0,0,0)" stroke-linecap="butt" stroke-miterlimit="10.0"><path d="M 245.0688,507.7707 ZM 250.2223,503.3320 h -4.2507 c -0.1693,-0.0000 -0.2821,-0.1505 -0.2821 -0.3197c 0.0000,-0.3009 0.2445,-0.6959 0.4702 -0.6959h 4.3071 c 0.1881,-0.0000 0.2633,0.1693 0.2633 0.3385c 0.0000,0.2069 -0.2633,0.6771 -0.5078 0.6771ZM 251.3320,507.7707 ZM 252.4229,499.4387 c 0.0000,-1.0721 1.0345,-2.5391 3.0093 -2.5391c 1.4482,-0.0000 3.1410,0.5454 3.1410 2.7084c 0.0000,1.4294 -0.7335,2.1441 -1.7492 3.1222l -1.7868,1.7304 c -0.0940,0.0940 -1.3542,1.3354 -1.3542 2.2194h 3.1974 c 0.6395,-0.0000 0.9780,-0.3197 1.2413 -1.3542l 0.4702,0.0752 l -0.3762,2.3698 h -5.8117 c 0.0000,-1.0533 0.1693,-1.8620 1.9184 -3.6488l 1.3166,-1.2978 c 1.0533,-1.0721 1.4859,-1.9937 1.4859 -3.1410c 0.0000,-1.7116 -1.1661,-2.2006 -1.8056 -2.2006c -1.2978,-0.0000 -1.6551,0.6771 -1.6551 1.1285c 0.0000,0.1505 0.0376,0.3009 0.0752 0.4326c 0.0376,0.1317 0.0752,0.2633 0.0752 0.4138c 0.0000,0.4890 -0.3762,0.6771 -0.6771 0.6771c -0.4138,-0.0000 -0.7147,-0.3197 -0.7147 -0.6959Z"/></g><g stroke-linejoin="miter" stroke-opacity="0.6" fill-opacity="0.0" stroke="rgb(0,0,0)" stroke-width="2.773639562685738" fill="rgb(0,0,0)" stroke-linecap="butt" stroke-miterlimit="10.0"><path d="M 252.3194,478.1971 v 8.5060 "/></g><g stroke-linejoin="miter" stroke-opacity="1.0" fill-opacity="0.6" stroke="rgb(0,0,0)" fill-rule="evenodd" stroke-width="0.0" fill="rgb(0,0,0)" stroke-linecap="butt" stroke-miterlimit="10.0"><path d="M 202.5387,507.7707 ZM 207.6922,503.3320 h -4.2507 c -0.1693,-0.0000 -0.2821,-0.1505 -0.2821 -0.3197c 0.0000,-0.3009 0.2445,-0.6959 0.4702 -0.6959h 4.3071 c 0.1881,-0.0000 0.2633,0.1693 0.2633 0.3385c 0.0000,0.2069 -0.2633,0.6771 -0.5078 0.6771ZM 208.8018,507.7707 ZM 212.8644,497.4826 c -0.4702,-0.0000 -1.8432,0.2633 -1.8432 1.4106c 0.0000,0.3385 -0.1317,0.9216 -0.6395 0.9216c -0.4890,-0.0000 -0.5266,-0.5454 -0.5266 -0.6019c 0.0000,-0.5831 0.7711,-2.3134 3.3855 -2.3134c 1.8244,-0.0000 2.3698,1.1473 2.3698 1.8996c 0.0000,0.4702 -0.1505,1.4106 -1.8432 2.4827c 1.0533,0.1693 2.4451,0.9404 2.4451 2.8965c 0.0000,2.4827 -1.8808,3.8181 -4.0062 3.8181c -1.0721,-0.0000 -2.5767,-0.4702 -2.5767 -1.1849c 0.0000,-0.2821 0.2821,-0.6019 0.6583 -0.6019c 0.3574,-0.0000 0.5266,0.1881 0.6959 0.4326c 0.2069,0.3197 0.5454,0.7711 1.4482 0.7711c 0.6207,-0.0000 2.3886,-0.6207 2.3886 -2.9905c 0.0000,-2.0125 -1.4106,-2.3322 -2.4263 -2.3322c -0.1693,-0.0000 -0.3762,0.0376 -0.5831 0.0752l -0.0752,-0.5642 c 1.4482,-0.2445 2.6520,-1.6551 2.6520 -2.5203c 0.0000,-1.0721 -0.7523,-1.5987 -1.5235 -1.5987Z"/></g><g stroke-linejoin="miter" stroke-opacity="0.6" fill-opacity="0.0" stroke="rgb(0,0,0)" stroke-width="2.773639562685738" fill="rgb(0,0,0)" stroke-linecap="butt" stroke-miterlimit="10.0"><path d="M 209.7893,478.1971 v 8.5060 "/></g><g stroke-linejoin="miter" stroke-opacity="1.0" fill-opacity="0.6" stroke="rgb(0,0,0)" fill-rule="evenodd" stroke-width="0.0" fill="rgb(0,0,0)" stroke-linecap="butt" stroke-miterlimit="10.0"><path d="M 160.0085,507.7707 ZM 165.1620,503.3320 h -4.2507 c -0.1693,-0.0000 -0.2821,-0.1505 -0.2821 -0.3197c 0.0000,-0.3009 0.2445,-0.6959 0.4702 -0.6959h 4.3071 c 0.1881,-0.0000 0.2633,0.1693 0.2633 0.3385c 0.0000,0.2069 -0.2633,0.6771 -0.5078 0.6771ZM 166.2717,507.7707 ZM 171.1242,501.0938 c 0.0000,-0.1317 0.0188,-0.2821 0.1881 -0.3762c 0.2069,-0.1505 0.5454,-0.3197 0.8276 -0.3197c 0.2445,-0.0000 0.2633,0.2069 0.2633 0.5831v 3.0281 h 1.5235 l -0.1128,0.8840 h -1.4106 v 1.5611 c 0.0000,0.5266 0.0752,0.7899 0.6207 0.7899h 0.5078 c 0.1128,-0.0000 0.1317,0.0940 0.1317 0.1317v 0.4138 c 0.0000,-0.0000 -1.2037,-0.0376 -1.9937 -0.0376c -0.7147,-0.0000 -1.8244,0.0376 -1.8244 0.0376v -0.4138 c 0.0000,-0.0376 0.0188,-0.1317 0.1317 -0.1317h 0.5078 c 0.5831,-0.0000 0.6395,-0.2445 0.6395 -0.7899v -1.5611 h -3.6864 c -0.0752,-0.0000 -0.1128,-0.0376 -0.1693 -0.1128l -0.1505,-0.2069 l -0.2257,-0.3950 c -0.0188,-0.0000 -0.0188,-0.0188 -0.0188 -0.0376c 0.0000,-0.0188 0.0188,-0.0376 0.0376 -0.0564c 1.2225,-1.3542 3.3855,-5.5484 4.0626 -7.0907c 0.0188,-0.0752 0.0564,-0.0940 0.1317 -0.0940c 0.0188,-0.0000 0.4326,0.1693 0.6583 0.2069c -0.8464,2.2758 -2.2382,4.7209 -3.6112 6.9026h 2.9717 v -2.9153 Z"/></g><g stroke-linejoin="miter" stroke-opacity="0.6" fill-opacity="0.0" stroke="rgb(0,0,0)" stroke-width="2.773639562685738" fill="rgb(0,0,0)" stroke-linecap="butt" stroke-miterlimit="10.0"><path d="M 167.2591,478.1971 v 8.5060 "/></g><g stroke-linejoin="miter" stroke-opacity="1.0" fill-opacity="0.6" stroke="rgb(0,0,0)" fill-rule="evenodd" stroke-width="0.0" fill="rgb(0,0,0)" stroke-linecap="butt" stroke-miterlimit="10.0"><path d="M 117.4784,507.7707 ZM 122.6318,503.3320 h -4.2507 c -0.1693,-0.0000 -0.2821,-0.1505 -0.2821 -0.3197c 0.0000,-0.3009 0.2445,-0.6959 0.4702 -0.6959h 4.3071 c 0.1881,-0.0000 0.2633,0.1693 0.2633 0.3385c 0.0000,0.2069 -0.2633,0.6771 -0.5078 0.6771ZM 123.7415,507.7707 ZM 129.5533,504.5921 c 0.0000,-1.9372 -1.0533,-2.8965 -2.2194 -2.8965c -0.8652,-0.0000 -1.5235,0.1317 -2.2570 0.4326l 0.6019,-5.1347 c 0.6207,0.0564 1.2602,0.0752 1.9184 0.0752c 0.9404,-0.0000 1.9184,-0.0564 2.9341 -0.1693l 0.1128,0.0564 l -0.2821,1.2225 c -0.7335,0.0752 -1.3354,0.0940 -1.8620 0.0940c -0.8464,-0.0000 -1.4859,-0.0752 -2.1441 -0.1505l -0.3574,2.9717 c 0.3950,-0.1505 1.0721,-0.2821 1.8056 -0.2821c 1.9937,-0.0000 3.1034,1.7304 3.1034 3.4607c 0.0000,2.1065 -1.4670,3.7240 -3.5924 3.7240c -1.0721,-0.0000 -2.6332,-0.6019 -2.6332 -1.3354c 0.0000,-0.3574 0.3009,-0.6019 0.6395 -0.6019c 0.3762,-0.0000 0.6207,0.2821 0.8464 0.5831c 0.2821,0.3385 0.5831,0.7147 1.1849 0.7147c 1.2037,-0.0000 2.2006,-1.1285 2.2006 -2.7648Z"/></g><g stroke-linejoin="miter" stroke-opacity="0.6" fill-opacity="0.0" stroke="rgb(0,0,0)" stroke-width="2.773639562685738" fill="rgb(0,0,0)" stroke-linecap="butt" stroke-miterlimit="10.0"><path d="M 124.7290,478.1971 v 8.5060 "/></g><g stroke-linejoin="miter" stroke-opacity="0.0" fill-opacity="0.0" stroke="rgb(0,0,0)" stroke-width="0.0" fill="rgb(0,0,0)" stroke-linecap="butt" stroke-miterlimit="10.0"><path d="M 548.4647,466.8557 l -0.0000,-113.4138 h -425.3016 l -0.0000,113.4138 Z"/></g><g stroke-linejoin="miter" stroke-opacity="0.0" fill-opacity="0.8" stroke="rgb(0,0,0)" stroke-width="2.773639562685738" fill="rgb(224,135,59)" stroke-linecap="butt" stroke-miterlimit="10.0"><path d="M 548.4647,425.1595 l -0.0000,-0.0000 h -8.5060 l -0.0000,0.0000 Z"/></g><g stroke-linejoin="miter" stroke-opacity="0.0" fill-opacity="0.8" stroke="rgb(0,0,0)" stroke-width="2.773639562685738" fill="rgb(224,135,59)" stroke-linecap="butt" stroke-miterlimit="10.0"><path d="M 539.9587,425.1595 l -0.0000,1.6678 h -8.5060 l -0.0000,-1.6678 Z"/></g><g stroke-linejoin="miter" stroke-opacity="0.0" fill-opacity="0.8" stroke="rgb(0,0,0)" stroke-width="2.773639562685738" fill="rgb(224,135,59)" stroke-linecap="butt" stroke-miterlimit="10.0"><path d="M 531.4527,425.1595 l -0.0000,-0.0000 h -8.5060 l -0.0000,0.0000 Z"/></g><g stroke-linejoin="miter" stroke-opacity="0.0" fill-opacity="0.8" stroke="rgb(0,0,0)" stroke-width="2.773639562685738" fill="rgb(224,135,59)" stroke-linecap="butt" stroke-miterlimit="10.0"><path d="M 522.9466,425.1595 l -0.0000,3.3357 h -8.5060 l -0.0000,-3.3357 Z"/></g><g stroke-linejoin="miter" stroke-opacity="0.0" fill-opacity="0.8" stroke="rgb(0,0,0)" stroke-width="2.773639562685738" fill="rgb(224,135,59)" stroke-linecap="butt" stroke-miterlimit="10.0"><path d="M 514.4406,425.1595 l -0.0000,5.0035 h -8.5060 l -0.0000,-5.0035 Z"/></g><g stroke-linejoin="miter" stroke-opacity="0.0" fill-opacity="0.8" stroke="rgb(0,0,0)" stroke-width="2.773639562685738" fill="rgb(224,135,59)" stroke-linecap="butt" stroke-miterlimit="10.0"><path d="M 505.9346,425.1595 l -0.0000,6.6714 h -8.5060 l -0.0000,-6.6714 Z"/></g><g stroke-linejoin="miter" stroke-opacity="0.0" fill-opacity="0.8" stroke="rgb(0,0,0)" stroke-width="2.773639562685738" fill="rgb(224,135,59)" stroke-linecap="butt" stroke-miterlimit="10.0"><path d="M 497.4285,425.1595 l -0.0000,5.0035 h -8.5060 l -0.0000,-5.0035 Z"/></g><g stroke-linejoin="miter" stroke-opacity="0.0" fill-opacity="0.8" stroke="rgb(0,0,0)" stroke-width="2.773639562685738" fill="rgb(224,135,59)" stroke-linecap="butt" stroke-miterlimit="10.0"><path d="M 488.9225,425.1595 l -0.0000,3.3357 h -8.5060 l -0.0000,-3.3357 Z"/></g><g stroke-linejoin="miter" stroke-opacity="0.0" fill-opacity="0.8" stroke="rgb(0,0,0)" stroke-width="2.773639562685738" fill="rgb(224,135,59)" stroke-linecap="butt" stroke-miterlimit="10.0"><path d="M 480.4165,425.1595 l -0.0000,3.3357 h -8.5060 l -0.0000,-3.3357 Z"/></g><g stroke-linejoin="miter" stroke-opacity="0.0" fill-opacity="0.8" stroke="rgb(0,0,0)" stroke-width="2.773639562685738" fill="rgb(224,135,59)" stroke-linecap="butt" stroke-miterlimit="10.0"><path d="M 471.9105,425.1595 l -0.0000,5.0035 h -8.5060 l -0.0000,-5.0035 Z"/></g><g stroke-linejoin="miter" stroke-opacity="0.0" fill-opacity="0.8" stroke="rgb(0,0,0)" stroke-width="2.773639562685738" fill="rgb(224,135,59)" stroke-linecap="butt" stroke-miterlimit="10.0"><path d="M 463.4044,425.1595 l -0.0000,5.0035 h -8.5060 l -0.0000,-5.0035 Z"/></g><g stroke-linejoin="miter" stroke-opacity="0.0" fill-opacity="0.8" stroke="rgb(0,0,0)" stroke-width="2.773639562685738" fill="rgb(224,135,59)" stroke-linecap="butt" stroke-miterlimit="10.0"><path d="M 454.8984,425.1595 l -0.0000,15.0106 h -8.5060 l -0.0000,-15.0106 Z"/></g><g stroke-linejoin="miter" stroke-opacity="0.0" fill-opacity="0.8" stroke="rgb(0,0,0)" stroke-width="2.773639562685738" fill="rgb(224,135,59)" stroke-linecap="butt" stroke-miterlimit="10.0"><path d="M 446.3924,425.1595 l -0.0000,20.0142 h -8.5060 l -0.0000,-20.0142 Z"/></g><g stroke-linejoin="miter" stroke-opacity="0.0" fill-opacity="0.8" stroke="rgb(0,0,0)" stroke-width="2.773639562685738" fill="rgb(224,135,59)" stroke-linecap="butt" stroke-miterlimit="10.0"><path d="M 437.8863,425.1595 l -0.0000,10.0071 h -8.5060 l -0.0000,-10.0071 Z"/></g><g stroke-linejoin="miter" stroke-opacity="0.0" fill-opacity="0.8" stroke="rgb(0,0,0)" stroke-width="2.773639562685738" fill="rgb(224,135,59)" stroke-linecap="butt" stroke-miterlimit="10.0"><path d="M 429.3803,425.1595 l -0.0000,21.6820 h -8.5060 l -0.0000,-21.6820 Z"/></g><g stroke-linejoin="miter" stroke-opacity="0.0" fill-opacity="0.8" stroke="rgb(0,0,0)" stroke-width="2.773639562685738" fill="rgb(224,135,59)" stroke-linecap="butt" stroke-miterlimit="10.0"><path d="M 420.8743,425.1595 l -0.0000,16.6785 h -8.5060 l -0.0000,-16.6785 Z"/></g><g stroke-linejoin="miter" stroke-opacity="0.0" fill-opacity="0.8" stroke="rgb(0,0,0)" stroke-width="2.773639562685738" fill="rgb(224,135,59)" stroke-linecap="butt" stroke-miterlimit="10.0"><path d="M 412.3682,425.1595 l -0.0000,-8.3392 h -8.5060 l -0.0000,8.3392 Z"/></g><g stroke-linejoin="miter" stroke-opacity="0.0" fill-opacity="0.8" stroke="rgb(0,0,0)" stroke-width="2.773639562685738" fill="rgb(224,135,59)" stroke-linecap="butt" stroke-miterlimit="10.0"><path d="M 403.8622,425.1595 l -0.0000,11.6749 h -8.5060 l -0.0000,-11.6749 Z"/></g><g stroke-linejoin="miter" stroke-opacity="0.0" fill-opacity="0.8" stroke="rgb(0,0,0)" stroke-width="2.773639562685738" fill="rgb(224,135,59)" stroke-linecap="butt" stroke-miterlimit="10.0"><path d="M 395.3562,425.1595 l -0.0000,16.6785 h -8.5060 l -0.0000,-16.6785 Z"/></g><g stroke-linejoin="miter" stroke-opacity="0.0" fill-opacity="0.8" stroke="rgb(0,0,0)" stroke-width="2.773639562685738" fill="rgb(224,135,59)" stroke-linecap="butt" stroke-miterlimit="10.0"><path d="M 386.8501,425.1595 l -0.0000,-26.6856 h -8.5060 l -0.0000,26.6856 Z"/></g><g stroke-linejoin="miter" stroke-opacity="0.0" fill-opacity="0.8" stroke="rgb(0,0,0)" stroke-width="2.773639562685738" fill="rgb(224,135,59)" stroke-linecap="butt" stroke-miterlimit="10.0"><path d="M 378.3441,425.1595 l -0.0000,-18.3463 h -8.5060 l -0.0000,18.3463 Z"/></g><g stroke-linejoin="miter" stroke-opacity="0.0" fill-opacity="0.8" stroke="rgb(0,0,0)" stroke-width="2.773639562685738" fill="rgb(224,135,59)" stroke-linecap="butt" stroke-miterlimit="10.0"><path d="M 369.8381,425.1595 l -0.0000,-8.3392 h -8.5060 l -0.0000,8.3392 Z"/></g><g stroke-linejoin="miter" stroke-opacity="0.0" fill-opacity="0.8" stroke="rgb(0,0,0)" stroke-width="2.773639562685738" fill="rgb(224,135,59)" stroke-linecap="butt" stroke-miterlimit="10.0"><path d="M 361.3320,425.1595 l -0.0000,-36.6927 h -8.5060 l -0.0000,36.6927 Z"/></g><g stroke-linejoin="miter" stroke-opacity="0.0" fill-opacity="0.8" stroke="rgb(0,0,0)" stroke-width="2.773639562685738" fill="rgb(224,135,59)" stroke-linecap="butt" stroke-miterlimit="10.0"><path d="M 352.8260,425.1595 l -0.0000,-51.7033 h -8.5060 l -0.0000,51.7033 Z"/></g><g stroke-linejoin="miter" stroke-opacity="0.0" fill-opacity="0.8" stroke="rgb(0,0,0)" stroke-width="2.773639562685738" fill="rgb(224,135,59)" stroke-linecap="butt" stroke-miterlimit="10.0"><path d="M 344.3200,425.1595 l -0.0000,-71.7175 h -8.5060 l -0.0000,71.7175 Z"/></g><g stroke-linejoin="miter" stroke-opacity="0.0" fill-opacity="0.8" stroke="rgb(0,0,0)" stroke-width="2.773639562685738" fill="rgb(224,135,59)" stroke-linecap="butt" stroke-miterlimit="10.0"><path d="M 335.8140,425.1595 l -0.0000,-33.3570 h -8.5060 l -0.0000,33.3570 Z"/></g><g stroke-linejoin="miter" stroke-opacity="0.0" fill-opacity="0.8" stroke="rgb(0,0,0)" stroke-width="2.773639562685738" fill="rgb(224,135,59)" stroke-linecap="butt" stroke-miterlimit="10.0"><path d="M 327.3079,425.1595 l -0.0000,-18.3463 h -8.5060 l -0.0000,18.3463 Z"/></g><g stroke-linejoin="miter" stroke-opacity="0.0" fill-opacity="0.8" stroke="rgb(0,0,0)" stroke-width="2.773639562685738" fill="rgb(224,135,59)" stroke-linecap="butt" stroke-miterlimit="10.0"><path d="M 318.8019,425.1595 l -0.0000,-15.0106 h -8.5060 l -0.0000,15.0106 Z"/></g><g stroke-linejoin="miter" stroke-opacity="0.0" fill-opacity="0.8" stroke="rgb(0,0,0)" stroke-width="2.773639562685738" fill="rgb(224,135,59)" stroke-linecap="butt" stroke-miterlimit="10.0"><path d="M 310.2959,425.1595 l -0.0000,-40.0284 h -8.5060 l -0.0000,40.0284 Z"/></g><g stroke-linejoin="miter" stroke-opacity="0.0" fill-opacity="0.8" stroke="rgb(0,0,0)" stroke-width="2.773639562685738" fill="rgb(224,135,59)" stroke-linecap="butt" stroke-miterlimit="10.0"><path d="M 301.7898,425.1595 l -0.0000,-40.0284 h -8.5060 l -0.0000,40.0284 Z"/></g><g stroke-linejoin="miter" stroke-opacity="0.0" fill-opacity="0.8" stroke="rgb(0,0,0)" stroke-width="2.773639562685738" fill="rgb(224,135,59)" stroke-linecap="butt" stroke-miterlimit="10.0"><path d="M 293.2838,425.1595 l -0.0000,-8.3392 h -8.5060 l -0.0000,8.3392 Z"/></g><g stroke-linejoin="miter" stroke-opacity="0.0" fill-opacity="0.8" stroke="rgb(0,0,0)" stroke-width="2.773639562685738" fill="rgb(224,135,59)" stroke-linecap="butt" stroke-miterlimit="10.0"><path d="M 284.7778,425.1595 l -0.0000,6.6714 h -8.5060 l -0.0000,-6.6714 Z"/></g><g stroke-linejoin="miter" stroke-opacity="0.0" fill-opacity="0.8" stroke="rgb(0,0,0)" stroke-width="2.773639562685738" fill="rgb(224,135,59)" stroke-linecap="butt" stroke-miterlimit="10.0"><path d="M 276.2717,425.1595 l -0.0000,30.0213 h -8.5060 l -0.0000,-30.0213 Z"/></g><g stroke-linejoin="miter" stroke-opacity="0.0" fill-opacity="0.8" stroke="rgb(0,0,0)" stroke-width="2.773639562685738" fill="rgb(224,135,59)" stroke-linecap="butt" stroke-miterlimit="10.0"><path d="M 267.7657,425.1595 l -0.0000,28.3534 h -8.5060 l -0.0000,-28.3534 Z"/></g><g stroke-linejoin="miter" stroke-opacity="0.0" fill-opacity="0.8" stroke="rgb(0,0,0)" stroke-width="2.773639562685738" fill="rgb(224,135,59)" stroke-linecap="butt" stroke-miterlimit="10.0"><path d="M 259.2597,425.1595 l -0.0000,41.6962 h -8.5060 l -0.0000,-41.6962 Z"/></g><g stroke-linejoin="miter" stroke-opacity="0.0" fill-opacity="0.8" stroke="rgb(0,0,0)" stroke-width="2.773639562685738" fill="rgb(224,135,59)" stroke-linecap="butt" stroke-miterlimit="10.0"><path d="M 250.7536,425.1595 l -0.0000,11.6749 h -8.5060 l -0.0000,-11.6749 Z"/></g><g stroke-linejoin="miter" stroke-opacity="0.0" fill-opacity="0.8" stroke="rgb(0,0,0)" stroke-width="2.773639562685738" fill="rgb(224,135,59)" stroke-linecap="butt" stroke-miterlimit="10.0"><path d="M 242.2476,425.1595 l -0.0000,8.3392 h -8.5060 l -0.0000,-8.3392 Z"/></g><g stroke-linejoin="miter" stroke-opacity="0.0" fill-opacity="0.8" stroke="rgb(0,0,0)" stroke-width="2.773639562685738" fill="rgb(224,135,59)" stroke-linecap="butt" stroke-miterlimit="10.0"><path d="M 233.7416,425.1595 l -0.0000,10.0071 h -8.5060 l -0.0000,-10.0071 Z"/></g><g stroke-linejoin="miter" stroke-opacity="0.0" fill-opacity="0.8" stroke="rgb(0,0,0)" stroke-width="2.773639562685738" fill="rgb(224,135,59)" stroke-linecap="butt" stroke-miterlimit="10.0"><path d="M 225.2355,425.1595 l -0.0000,11.6749 h -8.5060 l -0.0000,-11.6749 Z"/></g><g stroke-linejoin="miter" stroke-opacity="0.0" fill-opacity="0.8" stroke="rgb(0,0,0)" stroke-width="2.773639562685738" fill="rgb(224,135,59)" stroke-linecap="butt" stroke-miterlimit="10.0"><path d="M 216.7295,425.1595 l -0.0000,21.6820 h -8.5060 l -0.0000,-21.6820 Z"/></g><g stroke-linejoin="miter" stroke-opacity="0.0" fill-opacity="0.8" stroke="rgb(0,0,0)" stroke-width="2.773639562685738" fill="rgb(224,135,59)" stroke-linecap="butt" stroke-miterlimit="10.0"><path d="M 208.2235,425.1595 l -0.0000,15.0106 h -8.5060 l -0.0000,-15.0106 Z"/></g><g stroke-linejoin="miter" stroke-opacity="0.0" fill-opacity="0.8" stroke="rgb(0,0,0)" stroke-width="2.773639562685738" fill="rgb(224,135,59)" stroke-linecap="butt" stroke-miterlimit="10.0"><path d="M 199.7175,425.1595 l -0.0000,13.3428 h -8.5060 l -0.0000,-13.3428 Z"/></g><g stroke-linejoin="miter" stroke-opacity="0.0" fill-opacity="0.8" stroke="rgb(0,0,0)" stroke-width="2.773639562685738" fill="rgb(224,135,59)" stroke-linecap="butt" stroke-miterlimit="10.0"><path d="M 191.2114,425.1595 l -0.0000,15.0106 h -8.5060 l -0.0000,-15.0106 Z"/></g><g stroke-linejoin="miter" stroke-opacity="0.0" fill-opacity="0.8" stroke="rgb(0,0,0)" stroke-width="2.773639562685738" fill="rgb(224,135,59)" stroke-linecap="butt" stroke-miterlimit="10.0"><path d="M 182.7054,425.1595 l -0.0000,6.6714 h -8.5060 l -0.0000,-6.6714 Z"/></g><g stroke-linejoin="miter" stroke-opacity="0.0" fill-opacity="0.8" stroke="rgb(0,0,0)" stroke-width="2.773639562685738" fill="rgb(224,135,59)" stroke-linecap="butt" stroke-miterlimit="10.0"><path d="M 174.1994,425.1595 l -0.0000,-0.0000 h -8.5060 l -0.0000,0.0000 Z"/></g><g stroke-linejoin="miter" stroke-opacity="0.0" fill-opacity="0.8" stroke="rgb(0,0,0)" stroke-width="2.773639562685738" fill="rgb(224,135,59)" stroke-linecap="butt" stroke-miterlimit="10.0"><path d="M 165.6933,425.1595 l -0.0000,1.6678 h -8.5060 l -0.0000,-1.6678 Z"/></g><g stroke-linejoin="miter" stroke-opacity="0.0" fill-opacity="0.8" stroke="rgb(0,0,0)" stroke-width="2.773639562685738" fill="rgb(224,135,59)" stroke-linecap="butt" stroke-miterlimit="10.0"><path d="M 157.1873,425.1595 l -0.0000,3.3357 h -8.5060 l -0.0000,-3.3357 Z"/></g><g stroke-linejoin="miter" stroke-opacity="0.0" fill-opacity="0.8" stroke="rgb(0,0,0)" stroke-width="2.773639562685738" fill="rgb(224,135,59)" stroke-linecap="butt" stroke-miterlimit="10.0"><path d="M 148.6813,425.1595 l -0.0000,-0.0000 h -8.5060 l -0.0000,0.0000 Z"/></g><g stroke-linejoin="miter" stroke-opacity="0.0" fill-opacity="0.8" stroke="rgb(0,0,0)" stroke-width="2.773639562685738" fill="rgb(224,135,59)" stroke-linecap="butt" stroke-miterlimit="10.0"><path d="M 140.1752,425.1595 l -0.0000,1.6678 h -8.5060 l -0.0000,-1.6678 Z"/></g><g stroke-linejoin="miter" stroke-opacity="0.0" fill-opacity="0.8" stroke="rgb(0,0,0)" stroke-width="2.773639562685738" fill="rgb(224,135,59)" stroke-linecap="butt" stroke-miterlimit="10.0"><path d="M 131.6692,425.1595 l -0.0000,-0.0000 h -8.5060 l -0.0000,0.0000 Z"/></g><g stroke-linejoin="miter" stroke-opacity="0.0" fill-opacity="0.2" stroke="rgb(0,0,0)" stroke-width="2.773639562685738" fill="rgb(85,85,85)" stroke-linecap="butt" stroke-miterlimit="10.0"><path d="M 548.4647,341.2752 l -0.0000,-0.0000 h -8.5060 l -0.0000,0.0000 Z"/></g><g stroke-linejoin="miter" stroke-opacity="0.0" fill-opacity="0.2" stroke="rgb(0,0,0)" stroke-width="2.773639562685738" fill="rgb(85,85,85)" stroke-linecap="butt" stroke-miterlimit="10.0"><path d="M 539.9587,341.2752 l -0.0000,-2.8353 h -8.5060 l -0.0000,2.8353 Z"/></g><g stroke-linejoin="miter" stroke-opacity="0.0" fill-opacity="0.2" stroke="rgb(0,0,0)" stroke-width="2.773639562685738" fill="rgb(85,85,85)" stroke-linecap="butt" stroke-miterlimit="10.0"><path d="M 531.4527,341.2752 l -0.0000,-0.0000 h -8.5060 l -0.0000,0.0000 Z"/></g><g stroke-linejoin="miter" stroke-opacity="0.0" fill-opacity="0.2" stroke="rgb(0,0,0)" stroke-width="2.773639562685738" fill="rgb(85,85,85)" stroke-linecap="butt" stroke-miterlimit="10.0"><path d="M 522.9466,341.2752 l -0.0000,-5.6707 h -8.5060 l -0.0000,5.6707 Z"/></g><g stroke-linejoin="miter" stroke-opacity="0.0" fill-opacity="0.2" stroke="rgb(0,0,0)" stroke-width="2.773639562685738" fill="rgb(85,85,85)" stroke-linecap="butt" stroke-miterlimit="10.0"><path d="M 514.4406,341.2752 l -0.0000,-8.5060 h -8.5060 l -0.0000,8.5060 Z"/></g><g stroke-linejoin="miter" stroke-opacity="0.0" fill-opacity="0.2" stroke="rgb(0,0,0)" stroke-width="2.773639562685738" fill="rgb(85,85,85)" stroke-linecap="butt" stroke-miterlimit="10.0"><path d="M 505.9346,341.2752 l -0.0000,-11.3414 h -8.5060 l -0.0000,11.3414 Z"/></g><g stroke-linejoin="miter" stroke-opacity="0.0" fill-opacity="0.2" stroke="rgb(0,0,0)" stroke-width="2.773639562685738" fill="rgb(85,85,85)" stroke-linecap="butt" stroke-miterlimit="10.0"><path d="M 497.4285,341.2752 l -0.0000,-8.5060 h -8.5060 l -0.0000,8.5060 Z"/></g><g stroke-linejoin="miter" stroke-opacity="0.0" fill-opacity="0.2" stroke="rgb(0,0,0)" stroke-width="2.773639562685738" fill="rgb(85,85,85)" stroke-linecap="butt" stroke-miterlimit="10.0"><path d="M 488.9225,341.2752 l -0.0000,-5.6707 h -8.5060 l -0.0000,5.6707 Z"/></g><g stroke-linejoin="miter" stroke-opacity="0.0" fill-opacity="0.2" stroke="rgb(0,0,0)" stroke-width="2.773639562685738" fill="rgb(85,85,85)" stroke-linecap="butt" stroke-miterlimit="10.0"><path d="M 480.4165,341.2752 l -0.0000,-5.6707 h -8.5060 l -0.0000,5.6707 Z"/></g><g stroke-linejoin="miter" stroke-opacity="0.0" fill-opacity="0.2" stroke="rgb(0,0,0)" stroke-width="2.773639562685738" fill="rgb(85,85,85)" stroke-linecap="butt" stroke-miterlimit="10.0"><path d="M 471.9105,341.2752 l -0.0000,-11.3414 h -8.5060 l -0.0000,11.3414 Z"/></g><g stroke-linejoin="miter" stroke-opacity="0.0" fill-opacity="0.2" stroke="rgb(0,0,0)" stroke-width="2.773639562685738" fill="rgb(85,85,85)" stroke-linecap="butt" stroke-miterlimit="10.0"><path d="M 463.4044,341.2752 l -0.0000,-11.3414 h -8.5060 l -0.0000,11.3414 Z"/></g><g stroke-linejoin="miter" stroke-opacity="0.0" fill-opacity="0.2" stroke="rgb(0,0,0)" stroke-width="2.773639562685738" fill="rgb(85,85,85)" stroke-linecap="butt" stroke-miterlimit="10.0"><path d="M 454.8984,341.2752 l -0.0000,-31.1888 h -8.5060 l -0.0000,31.1888 Z"/></g><g stroke-linejoin="miter" stroke-opacity="0.0" fill-opacity="0.2" stroke="rgb(0,0,0)" stroke-width="2.773639562685738" fill="rgb(85,85,85)" stroke-linecap="butt" stroke-miterlimit="10.0"><path d="M 446.3924,341.2752 l -0.0000,-39.6948 h -8.5060 l -0.0000,39.6948 Z"/></g><g stroke-linejoin="miter" stroke-opacity="0.0" fill-opacity="0.2" stroke="rgb(0,0,0)" stroke-width="2.773639562685738" fill="rgb(85,85,85)" stroke-linecap="butt" stroke-miterlimit="10.0"><path d="M 437.8863,341.2752 l -0.0000,-34.0241 h -8.5060 l -0.0000,34.0241 Z"/></g><g stroke-linejoin="miter" stroke-opacity="0.0" fill-opacity="0.2" stroke="rgb(0,0,0)" stroke-width="2.773639562685738" fill="rgb(85,85,85)" stroke-linecap="butt" stroke-miterlimit="10.0"><path d="M 429.3803,341.2752 l -0.0000,-59.5422 h -8.5060 l -0.0000,59.5422 Z"/></g><g stroke-linejoin="miter" stroke-opacity="0.0" fill-opacity="0.2" stroke="rgb(0,0,0)" stroke-width="2.773639562685738" fill="rgb(85,85,85)" stroke-linecap="butt" stroke-miterlimit="10.0"><path d="M 420.8743,341.2752 l -0.0000,-76.5543 h -8.5060 l -0.0000,76.5543 Z"/></g><g stroke-linejoin="miter" stroke-opacity="0.0" fill-opacity="0.2" stroke="rgb(0,0,0)" stroke-width="2.773639562685738" fill="rgb(85,85,85)" stroke-linecap="butt" stroke-miterlimit="10.0"><path d="M 412.3682,341.2752 l -0.0000,-53.8715 h -8.5060 l -0.0000,53.8715 Z"/></g><g stroke-linejoin="miter" stroke-opacity="0.0" fill-opacity="0.2" stroke="rgb(0,0,0)" stroke-width="2.773639562685738" fill="rgb(85,85,85)" stroke-linecap="butt" stroke-miterlimit="10.0"><path d="M 403.8622,341.2752 l -0.0000,-96.4017 h -8.5060 l -0.0000,96.4017 Z"/></g><g stroke-linejoin="miter" stroke-opacity="0.0" fill-opacity="0.2" stroke="rgb(0,0,0)" stroke-width="2.773639562685738" fill="rgb(85,85,85)" stroke-linecap="butt" stroke-miterlimit="10.0"><path d="M 395.3562,341.2752 l -0.0000,-113.4138 h -8.5060 l -0.0000,113.4138 Z"/></g><g stroke-linejoin="miter" stroke-opacity="0.0" fill-opacity="0.2" stroke="rgb(0,0,0)" stroke-width="2.773639562685738" fill="rgb(85,85,85)" stroke-linecap="butt" stroke-miterlimit="10.0"><path d="M 386.8501,341.2752 l -0.0000,-107.7431 h -8.5060 l -0.0000,107.7431 Z"/></g><g stroke-linejoin="miter" stroke-opacity="0.0" fill-opacity="0.2" stroke="rgb(0,0,0)" stroke-width="2.773639562685738" fill="rgb(85,85,85)" stroke-linecap="butt" stroke-miterlimit="10.0"><path d="M 378.3441,341.2752 l -0.0000,-121.9198 h -8.5060 l -0.0000,121.9198 Z"/></g><g stroke-linejoin="miter" stroke-opacity="0.0" fill-opacity="0.2" stroke="rgb(0,0,0)" stroke-width="2.773639562685738" fill="rgb(85,85,85)" stroke-linecap="butt" stroke-miterlimit="10.0"><path d="M 369.8381,341.2752 l -0.0000,-144.6025 h -8.5060 l -0.0000,144.6025 Z"/></g><g stroke-linejoin="miter" stroke-opacity="0.0" fill-opacity="0.2" stroke="rgb(0,0,0)" stroke-width="2.773639562685738" fill="rgb(85,85,85)" stroke-linecap="butt" stroke-miterlimit="10.0"><path d="M 361.3320,341.2752 l -0.0000,-119.0844 h -8.5060 l -0.0000,119.0844 Z"/></g><g stroke-linejoin="miter" stroke-opacity="0.0" fill-opacity="0.2" stroke="rgb(0,0,0)" stroke-width="2.773639562685738" fill="rgb(85,85,85)" stroke-linecap="butt" stroke-miterlimit="10.0"><path d="M 352.8260,341.2752 l -0.0000,-127.5905 h -8.5060 l -0.0000,127.5905 Z"/></g><g stroke-linejoin="miter" stroke-opacity="0.0" fill-opacity="0.2" stroke="rgb(0,0,0)" stroke-width="2.773639562685738" fill="rgb(85,85,85)" stroke-linecap="butt" stroke-miterlimit="10.0"><path d="M 344.3200,341.2752 l -0.0000,-161.6146 h -8.5060 l -0.0000,161.6146 Z"/></g><g stroke-linejoin="miter" stroke-opacity="0.0" fill-opacity="0.2" stroke="rgb(0,0,0)" stroke-width="2.773639562685738" fill="rgb(85,85,85)" stroke-linecap="butt" stroke-miterlimit="10.0"><path d="M 335.8140,341.2752 l -0.0000,-158.7793 h -8.5060 l -0.0000,158.7793 Z"/></g><g stroke-linejoin="miter" stroke-opacity="0.0" fill-opacity="0.2" stroke="rgb(0,0,0)" stroke-width="2.773639562685738" fill="rgb(85,85,85)" stroke-linecap="butt" stroke-miterlimit="10.0"><path d="M 327.3079,341.2752 l -0.0000,-164.4499 h -8.5060 l -0.0000,164.4499 Z"/></g><g stroke-linejoin="miter" stroke-opacity="0.0" fill-opacity="0.2" stroke="rgb(0,0,0)" stroke-width="2.773639562685738" fill="rgb(85,85,85)" stroke-linecap="butt" stroke-miterlimit="10.0"><path d="M 318.8019,341.2752 l -0.0000,-144.6025 h -8.5060 l -0.0000,144.6025 Z"/></g><g stroke-linejoin="miter" stroke-opacity="0.0" fill-opacity="0.2" stroke="rgb(0,0,0)" stroke-width="2.773639562685738" fill="rgb(85,85,85)" stroke-linecap="butt" stroke-miterlimit="10.0"><path d="M 310.2959,341.2752 l -0.0000,-110.5784 h -8.5060 l -0.0000,110.5784 Z"/></g><g stroke-linejoin="miter" stroke-opacity="0.0" fill-opacity="0.2" stroke="rgb(0,0,0)" stroke-width="2.773639562685738" fill="rgb(85,85,85)" stroke-linecap="butt" stroke-miterlimit="10.0"><path d="M 301.7898,341.2752 l -0.0000,-107.7431 h -8.5060 l -0.0000,107.7431 Z"/></g><g stroke-linejoin="miter" stroke-opacity="0.0" fill-opacity="0.2" stroke="rgb(0,0,0)" stroke-width="2.773639562685738" fill="rgb(85,85,85)" stroke-linecap="butt" stroke-miterlimit="10.0"><path d="M 293.2838,341.2752 l -0.0000,-99.2370 h -8.5060 l -0.0000,99.2370 Z"/></g><g stroke-linejoin="miter" stroke-opacity="0.0" fill-opacity="0.2" stroke="rgb(0,0,0)" stroke-width="2.773639562685738" fill="rgb(85,85,85)" stroke-linecap="butt" stroke-miterlimit="10.0"><path d="M 284.7778,341.2752 l -0.0000,-99.2370 h -8.5060 l -0.0000,99.2370 Z"/></g><g stroke-linejoin="miter" stroke-opacity="0.0" fill-opacity="0.2" stroke="rgb(0,0,0)" stroke-width="2.773639562685738" fill="rgb(85,85,85)" stroke-linecap="butt" stroke-miterlimit="10.0"><path d="M 276.2717,341.2752 l -0.0000,-116.2491 h -8.5060 l -0.0000,116.2491 Z"/></g><g stroke-linejoin="miter" stroke-opacity="0.0" fill-opacity="0.2" stroke="rgb(0,0,0)" stroke-width="2.773639562685738" fill="rgb(85,85,85)" stroke-linecap="butt" stroke-miterlimit="10.0"><path d="M 267.7657,341.2752 l -0.0000,-90.7310 h -8.5060 l -0.0000,90.7310 Z"/></g><g stroke-linejoin="miter" stroke-opacity="0.0" fill-opacity="0.2" stroke="rgb(0,0,0)" stroke-width="2.773639562685738" fill="rgb(85,85,85)" stroke-linecap="butt" stroke-miterlimit="10.0"><path d="M 259.2597,341.2752 l -0.0000,-99.2370 h -8.5060 l -0.0000,99.2370 Z"/></g><g stroke-linejoin="miter" stroke-opacity="0.0" fill-opacity="0.2" stroke="rgb(0,0,0)" stroke-width="2.773639562685738" fill="rgb(85,85,85)" stroke-linecap="butt" stroke-miterlimit="10.0"><path d="M 250.7536,341.2752 l -0.0000,-56.7069 h -8.5060 l -0.0000,56.7069 Z"/></g><g stroke-linejoin="miter" stroke-opacity="0.0" fill-opacity="0.2" stroke="rgb(0,0,0)" stroke-width="2.773639562685738" fill="rgb(85,85,85)" stroke-linecap="butt" stroke-miterlimit="10.0"><path d="M 242.2476,341.2752 l -0.0000,-31.1888 h -8.5060 l -0.0000,31.1888 Z"/></g><g stroke-linejoin="miter" stroke-opacity="0.0" fill-opacity="0.2" stroke="rgb(0,0,0)" stroke-width="2.773639562685738" fill="rgb(85,85,85)" stroke-linecap="butt" stroke-miterlimit="10.0"><path d="M 233.7416,341.2752 l -0.0000,-34.0241 h -8.5060 l -0.0000,34.0241 Z"/></g><g stroke-linejoin="miter" stroke-opacity="0.0" fill-opacity="0.2" stroke="rgb(0,0,0)" stroke-width="2.773639562685738" fill="rgb(85,85,85)" stroke-linecap="butt" stroke-miterlimit="10.0"><path d="M 225.2355,341.2752 l -0.0000,-28.3534 h -8.5060 l -0.0000,28.3534 Z"/></g><g stroke-linejoin="miter" stroke-opacity="0.0" fill-opacity="0.2" stroke="rgb(0,0,0)" stroke-width="2.773639562685738" fill="rgb(85,85,85)" stroke-linecap="butt" stroke-miterlimit="10.0"><path d="M 216.7295,341.2752 l -0.0000,-36.8595 h -8.5060 l -0.0000,36.8595 Z"/></g><g stroke-linejoin="miter" stroke-opacity="0.0" fill-opacity="0.2" stroke="rgb(0,0,0)" stroke-width="2.773639562685738" fill="rgb(85,85,85)" stroke-linecap="butt" stroke-miterlimit="10.0"><path d="M 208.2235,341.2752 l -0.0000,-25.5181 h -8.5060 l -0.0000,25.5181 Z"/></g><g stroke-linejoin="miter" stroke-opacity="0.0" fill-opacity="0.2" stroke="rgb(0,0,0)" stroke-width="2.773639562685738" fill="rgb(85,85,85)" stroke-linecap="butt" stroke-miterlimit="10.0"><path d="M 199.7175,341.2752 l -0.0000,-22.6828 h -8.5060 l -0.0000,22.6828 Z"/></g><g stroke-linejoin="miter" stroke-opacity="0.0" fill-opacity="0.2" stroke="rgb(0,0,0)" stroke-width="2.773639562685738" fill="rgb(85,85,85)" stroke-linecap="butt" stroke-miterlimit="10.0"><path d="M 191.2114,341.2752 l -0.0000,-25.5181 h -8.5060 l -0.0000,25.5181 Z"/></g><g stroke-linejoin="miter" stroke-opacity="0.0" fill-opacity="0.2" stroke="rgb(0,0,0)" stroke-width="2.773639562685738" fill="rgb(85,85,85)" stroke-linecap="butt" stroke-miterlimit="10.0"><path d="M 182.7054,341.2752 l -0.0000,-11.3414 h -8.5060 l -0.0000,11.3414 Z"/></g><g stroke-linejoin="miter" stroke-opacity="0.0" fill-opacity="0.2" stroke="rgb(0,0,0)" stroke-width="2.773639562685738" fill="rgb(85,85,85)" stroke-linecap="butt" stroke-miterlimit="10.0"><path d="M 174.1994,341.2752 l -0.0000,-2.8353 h -8.5060 l -0.0000,2.8353 Z"/></g><g stroke-linejoin="miter" stroke-opacity="0.0" fill-opacity="0.2" stroke="rgb(0,0,0)" stroke-width="2.773639562685738" fill="rgb(85,85,85)" stroke-linecap="butt" stroke-miterlimit="10.0"><path d="M 165.6933,341.2752 l -0.0000,-2.8353 h -8.5060 l -0.0000,2.8353 Z"/></g><g stroke-linejoin="miter" stroke-opacity="0.0" fill-opacity="0.2" stroke="rgb(0,0,0)" stroke-width="2.773639562685738" fill="rgb(85,85,85)" stroke-linecap="butt" stroke-miterlimit="10.0"><path d="M 157.1873,341.2752 l -0.0000,-5.6707 h -8.5060 l -0.0000,5.6707 Z"/></g><g stroke-linejoin="miter" stroke-opacity="0.0" fill-opacity="0.2" stroke="rgb(0,0,0)" stroke-width="2.773639562685738" fill="rgb(85,85,85)" stroke-linecap="butt" stroke-miterlimit="10.0"><path d="M 148.6813,341.2752 l -0.0000,-0.0000 h -8.5060 l -0.0000,0.0000 Z"/></g><g stroke-linejoin="miter" stroke-opacity="0.0" fill-opacity="0.2" stroke="rgb(0,0,0)" stroke-width="2.773639562685738" fill="rgb(85,85,85)" stroke-linecap="butt" stroke-miterlimit="10.0"><path d="M 140.1752,341.2752 l -0.0000,-2.8353 h -8.5060 l -0.0000,2.8353 Z"/></g><g stroke-linejoin="miter" stroke-opacity="0.0" fill-opacity="0.2" stroke="rgb(0,0,0)" stroke-width="2.773639562685738" fill="rgb(85,85,85)" stroke-linecap="butt" stroke-miterlimit="10.0"><path d="M 131.6692,341.2752 l -0.0000,-0.0000 h -8.5060 l -0.0000,0.0000 Z"/></g><g stroke-linejoin="miter" stroke-opacity="0.0" fill-opacity="0.2" stroke="rgb(0,0,0)" stroke-width="2.773639562685738" fill="rgb(93,165,218)" stroke-linecap="butt" stroke-miterlimit="10.0"><path d="M 548.4647,341.2752 l -0.0000,-0.0000 h -8.5060 l -0.0000,0.0000 Z"/></g><g stroke-linejoin="miter" stroke-opacity="0.0" fill-opacity="0.2" stroke="rgb(0,0,0)" stroke-width="2.773639562685738" fill="rgb(93,165,218)" stroke-linecap="butt" stroke-miterlimit="10.0"><path d="M 539.9587,341.2752 l -0.0000,-0.0000 h -8.5060 l -0.0000,0.0000 Z"/></g><g stroke-linejoin="miter" stroke-opacity="0.0" fill-opacity="0.2" stroke="rgb(0,0,0)" stroke-width="2.773639562685738" fill="rgb(93,165,218)" stroke-linecap="butt" stroke-miterlimit="10.0"><path d="M 531.4527,341.2752 l -0.0000,-0.0000 h -8.5060 l -0.0000,0.0000 Z"/></g><g stroke-linejoin="miter" stroke-opacity="0.0" fill-opacity="0.2" stroke="rgb(0,0,0)" stroke-width="2.773639562685738" fill="rgb(93,165,218)" stroke-linecap="butt" stroke-miterlimit="10.0"><path d="M 522.9466,341.2752 l -0.0000,-0.0000 h -8.5060 l -0.0000,0.0000 Z"/></g><g stroke-linejoin="miter" stroke-opacity="0.0" fill-opacity="0.2" stroke="rgb(0,0,0)" stroke-width="2.773639562685738" fill="rgb(93,165,218)" stroke-linecap="butt" stroke-miterlimit="10.0"><path d="M 514.4406,341.2752 l -0.0000,-0.0000 h -8.5060 l -0.0000,0.0000 Z"/></g><g stroke-linejoin="miter" stroke-opacity="0.0" fill-opacity="0.2" stroke="rgb(0,0,0)" stroke-width="2.773639562685738" fill="rgb(93,165,218)" stroke-linecap="butt" stroke-miterlimit="10.0"><path d="M 505.9346,341.2752 l -0.0000,-0.0000 h -8.5060 l -0.0000,0.0000 Z"/></g><g stroke-linejoin="miter" stroke-opacity="0.0" fill-opacity="0.2" stroke="rgb(0,0,0)" stroke-width="2.773639562685738" fill="rgb(93,165,218)" stroke-linecap="butt" stroke-miterlimit="10.0"><path d="M 497.4285,341.2752 l -0.0000,-0.0000 h -8.5060 l -0.0000,0.0000 Z"/></g><g stroke-linejoin="miter" stroke-opacity="0.0" fill-opacity="0.2" stroke="rgb(0,0,0)" stroke-width="2.773639562685738" fill="rgb(93,165,218)" stroke-linecap="butt" stroke-miterlimit="10.0"><path d="M 488.9225,341.2752 l -0.0000,-0.0000 h -8.5060 l -0.0000,0.0000 Z"/></g><g stroke-linejoin="miter" stroke-opacity="0.0" fill-opacity="0.2" stroke="rgb(0,0,0)" stroke-width="2.773639562685738" fill="rgb(93,165,218)" stroke-linecap="butt" stroke-miterlimit="10.0"><path d="M 480.4165,341.2752 l -0.0000,-0.0000 h -8.5060 l -0.0000,0.0000 Z"/></g><g stroke-linejoin="miter" stroke-opacity="0.0" fill-opacity="0.2" stroke="rgb(0,0,0)" stroke-width="2.773639562685738" fill="rgb(93,165,218)" stroke-linecap="butt" stroke-miterlimit="10.0"><path d="M 471.9105,341.2752 l -0.0000,-2.8353 h -8.5060 l -0.0000,2.8353 Z"/></g><g stroke-linejoin="miter" stroke-opacity="0.0" fill-opacity="0.2" stroke="rgb(0,0,0)" stroke-width="2.773639562685738" fill="rgb(93,165,218)" stroke-linecap="butt" stroke-miterlimit="10.0"><path d="M 463.4044,341.2752 l -0.0000,-2.8353 h -8.5060 l -0.0000,2.8353 Z"/></g><g stroke-linejoin="miter" stroke-opacity="0.0" fill-opacity="0.2" stroke="rgb(0,0,0)" stroke-width="2.773639562685738" fill="rgb(93,165,218)" stroke-linecap="butt" stroke-miterlimit="10.0"><path d="M 454.8984,341.2752 l -0.0000,-5.6707 h -8.5060 l -0.0000,5.6707 Z"/></g><g stroke-linejoin="miter" stroke-opacity="0.0" fill-opacity="0.2" stroke="rgb(0,0,0)" stroke-width="2.773639562685738" fill="rgb(93,165,218)" stroke-linecap="butt" stroke-miterlimit="10.0"><path d="M 446.3924,341.2752 l -0.0000,-5.6707 h -8.5060 l -0.0000,5.6707 Z"/></g><g stroke-linejoin="miter" stroke-opacity="0.0" fill-opacity="0.2" stroke="rgb(0,0,0)" stroke-width="2.773639562685738" fill="rgb(93,165,218)" stroke-linecap="butt" stroke-miterlimit="10.0"><path d="M 437.8863,341.2752 l -0.0000,-17.0121 h -8.5060 l -0.0000,17.0121 Z"/></g><g stroke-linejoin="miter" stroke-opacity="0.0" fill-opacity="0.2" stroke="rgb(0,0,0)" stroke-width="2.773639562685738" fill="rgb(93,165,218)" stroke-linecap="butt" stroke-miterlimit="10.0"><path d="M 429.3803,341.2752 l -0.0000,-22.6828 h -8.5060 l -0.0000,22.6828 Z"/></g><g stroke-linejoin="miter" stroke-opacity="0.0" fill-opacity="0.2" stroke="rgb(0,0,0)" stroke-width="2.773639562685738" fill="rgb(93,165,218)" stroke-linecap="butt" stroke-miterlimit="10.0"><path d="M 420.8743,341.2752 l -0.0000,-48.2008 h -8.5060 l -0.0000,48.2008 Z"/></g><g stroke-linejoin="miter" stroke-opacity="0.0" fill-opacity="0.2" stroke="rgb(0,0,0)" stroke-width="2.773639562685738" fill="rgb(93,165,218)" stroke-linecap="butt" stroke-miterlimit="10.0"><path d="M 412.3682,341.2752 l -0.0000,-68.0483 h -8.5060 l -0.0000,68.0483 Z"/></g><g stroke-linejoin="miter" stroke-opacity="0.0" fill-opacity="0.2" stroke="rgb(0,0,0)" stroke-width="2.773639562685738" fill="rgb(93,165,218)" stroke-linecap="butt" stroke-miterlimit="10.0"><path d="M 403.8622,341.2752 l -0.0000,-76.5543 h -8.5060 l -0.0000,76.5543 Z"/></g><g stroke-linejoin="miter" stroke-opacity="0.0" fill-opacity="0.2" stroke="rgb(0,0,0)" stroke-width="2.773639562685738" fill="rgb(93,165,218)" stroke-linecap="butt" stroke-miterlimit="10.0"><path d="M 395.3562,341.2752 l -0.0000,-85.0603 h -8.5060 l -0.0000,85.0603 Z"/></g><g stroke-linejoin="miter" stroke-opacity="0.0" fill-opacity="0.2" stroke="rgb(0,0,0)" stroke-width="2.773639562685738" fill="rgb(93,165,218)" stroke-linecap="butt" stroke-miterlimit="10.0"><path d="M 386.8501,341.2752 l -0.0000,-153.1086 h -8.5060 l -0.0000,153.1086 Z"/></g><g stroke-linejoin="miter" stroke-opacity="0.0" fill-opacity="0.2" stroke="rgb(0,0,0)" stroke-width="2.773639562685738" fill="rgb(93,165,218)" stroke-linecap="butt" stroke-miterlimit="10.0"><path d="M 378.3441,341.2752 l -0.0000,-153.1086 h -8.5060 l -0.0000,153.1086 Z"/></g><g stroke-linejoin="miter" stroke-opacity="0.0" fill-opacity="0.2" stroke="rgb(0,0,0)" stroke-width="2.773639562685738" fill="rgb(93,165,218)" stroke-linecap="butt" stroke-miterlimit="10.0"><path d="M 369.8381,341.2752 l -0.0000,-158.7793 h -8.5060 l -0.0000,158.7793 Z"/></g><g stroke-linejoin="miter" stroke-opacity="0.0" fill-opacity="0.2" stroke="rgb(0,0,0)" stroke-width="2.773639562685738" fill="rgb(93,165,218)" stroke-linecap="butt" stroke-miterlimit="10.0"><path d="M 361.3320,341.2752 l -0.0000,-181.4620 h -8.5060 l -0.0000,181.4620 Z"/></g><g stroke-linejoin="miter" stroke-opacity="0.0" fill-opacity="0.2" stroke="rgb(0,0,0)" stroke-width="2.773639562685738" fill="rgb(93,165,218)" stroke-linecap="butt" stroke-miterlimit="10.0"><path d="M 352.8260,341.2752 l -0.0000,-215.4861 h -8.5060 l -0.0000,215.4861 Z"/></g><g stroke-linejoin="miter" stroke-opacity="0.0" fill-opacity="0.2" stroke="rgb(0,0,0)" stroke-width="2.773639562685738" fill="rgb(93,165,218)" stroke-linecap="butt" stroke-miterlimit="10.0"><path d="M 344.3200,341.2752 l -0.0000,-283.5344 h -8.5060 l -0.0000,283.5344 Z"/></g><g stroke-linejoin="miter" stroke-opacity="0.0" fill-opacity="0.2" stroke="rgb(0,0,0)" stroke-width="2.773639562685738" fill="rgb(93,165,218)" stroke-linecap="butt" stroke-miterlimit="10.0"><path d="M 335.8140,341.2752 l -0.0000,-215.4861 h -8.5060 l -0.0000,215.4861 Z"/></g><g stroke-linejoin="miter" stroke-opacity="0.0" fill-opacity="0.2" stroke="rgb(0,0,0)" stroke-width="2.773639562685738" fill="rgb(93,165,218)" stroke-linecap="butt" stroke-miterlimit="10.0"><path d="M 327.3079,341.2752 l -0.0000,-195.6387 h -8.5060 l -0.0000,195.6387 Z"/></g><g stroke-linejoin="miter" stroke-opacity="0.0" fill-opacity="0.2" stroke="rgb(0,0,0)" stroke-width="2.773639562685738" fill="rgb(93,165,218)" stroke-linecap="butt" stroke-miterlimit="10.0"><path d="M 318.8019,341.2752 l -0.0000,-170.1206 h -8.5060 l -0.0000,170.1206 Z"/></g><g stroke-linejoin="miter" stroke-opacity="0.0" fill-opacity="0.2" stroke="rgb(0,0,0)" stroke-width="2.773639562685738" fill="rgb(93,165,218)" stroke-linecap="butt" stroke-miterlimit="10.0"><path d="M 310.2959,341.2752 l -0.0000,-178.6267 h -8.5060 l -0.0000,178.6267 Z"/></g><g stroke-linejoin="miter" stroke-opacity="0.0" fill-opacity="0.2" stroke="rgb(0,0,0)" stroke-width="2.773639562685738" fill="rgb(93,165,218)" stroke-linecap="butt" stroke-miterlimit="10.0"><path d="M 301.7898,341.2752 l -0.0000,-175.7913 h -8.5060 l -0.0000,175.7913 Z"/></g><g stroke-linejoin="miter" stroke-opacity="0.0" fill-opacity="0.2" stroke="rgb(0,0,0)" stroke-width="2.773639562685738" fill="rgb(93,165,218)" stroke-linecap="butt" stroke-miterlimit="10.0"><path d="M 293.2838,341.2752 l -0.0000,-113.4138 h -8.5060 l -0.0000,113.4138 Z"/></g><g stroke-linejoin="miter" stroke-opacity="0.0" fill-opacity="0.2" stroke="rgb(0,0,0)" stroke-width="2.773639562685738" fill="rgb(93,165,218)" stroke-linecap="butt" stroke-miterlimit="10.0"><path d="M 284.7778,341.2752 l -0.0000,-87.8957 h -8.5060 l -0.0000,87.8957 Z"/></g><g stroke-linejoin="miter" stroke-opacity="0.0" fill-opacity="0.2" stroke="rgb(0,0,0)" stroke-width="2.773639562685738" fill="rgb(93,165,218)" stroke-linecap="butt" stroke-miterlimit="10.0"><path d="M 276.2717,341.2752 l -0.0000,-65.2129 h -8.5060 l -0.0000,65.2129 Z"/></g><g stroke-linejoin="miter" stroke-opacity="0.0" fill-opacity="0.2" stroke="rgb(0,0,0)" stroke-width="2.773639562685738" fill="rgb(93,165,218)" stroke-linecap="butt" stroke-miterlimit="10.0"><path d="M 267.7657,341.2752 l -0.0000,-42.5302 h -8.5060 l -0.0000,42.5302 Z"/></g><g stroke-linejoin="miter" stroke-opacity="0.0" fill-opacity="0.2" stroke="rgb(0,0,0)" stroke-width="2.773639562685738" fill="rgb(93,165,218)" stroke-linecap="butt" stroke-miterlimit="10.0"><path d="M 259.2597,341.2752 l -0.0000,-28.3534 h -8.5060 l -0.0000,28.3534 Z"/></g><g stroke-linejoin="miter" stroke-opacity="0.0" fill-opacity="0.2" stroke="rgb(0,0,0)" stroke-width="2.773639562685738" fill="rgb(93,165,218)" stroke-linecap="butt" stroke-miterlimit="10.0"><path d="M 250.7536,341.2752 l -0.0000,-36.8595 h -8.5060 l -0.0000,36.8595 Z"/></g><g stroke-linejoin="miter" stroke-opacity="0.0" fill-opacity="0.2" stroke="rgb(0,0,0)" stroke-width="2.773639562685738" fill="rgb(93,165,218)" stroke-linecap="butt" stroke-miterlimit="10.0"><path d="M 242.2476,341.2752 l -0.0000,-17.0121 h -8.5060 l -0.0000,17.0121 Z"/></g><g stroke-linejoin="miter" stroke-opacity="0.0" fill-opacity="0.2" stroke="rgb(0,0,0)" stroke-width="2.773639562685738" fill="rgb(93,165,218)" stroke-linecap="butt" stroke-miterlimit="10.0"><path d="M 233.7416,341.2752 l -0.0000,-17.0121 h -8.5060 l -0.0000,17.0121 Z"/></g><g stroke-linejoin="miter" stroke-opacity="0.0" fill-opacity="0.2" stroke="rgb(0,0,0)" stroke-width="2.773639562685738" fill="rgb(93,165,218)" stroke-linecap="butt" stroke-miterlimit="10.0"><path d="M 225.2355,341.2752 l -0.0000,-8.5060 h -8.5060 l -0.0000,8.5060 Z"/></g><g stroke-linejoin="miter" stroke-opacity="0.0" fill-opacity="0.2" stroke="rgb(0,0,0)" stroke-width="2.773639562685738" fill="rgb(93,165,218)" stroke-linecap="butt" stroke-miterlimit="10.0"><path d="M 216.7295,341.2752 l -0.0000,-0.0000 h -8.5060 l -0.0000,0.0000 Z"/></g><g stroke-linejoin="miter" stroke-opacity="0.0" fill-opacity="0.2" stroke="rgb(0,0,0)" stroke-width="2.773639562685738" fill="rgb(93,165,218)" stroke-linecap="butt" stroke-miterlimit="10.0"><path d="M 208.2235,341.2752 l -0.0000,-0.0000 h -8.5060 l -0.0000,0.0000 Z"/></g><g stroke-linejoin="miter" stroke-opacity="0.0" fill-opacity="0.2" stroke="rgb(0,0,0)" stroke-width="2.773639562685738" fill="rgb(93,165,218)" stroke-linecap="butt" stroke-miterlimit="10.0"><path d="M 199.7175,341.2752 l -0.0000,-0.0000 h -8.5060 l -0.0000,0.0000 Z"/></g><g stroke-linejoin="miter" stroke-opacity="0.0" fill-opacity="0.2" stroke="rgb(0,0,0)" stroke-width="2.773639562685738" fill="rgb(93,165,218)" stroke-linecap="butt" stroke-miterlimit="10.0"><path d="M 191.2114,341.2752 l -0.0000,-0.0000 h -8.5060 l -0.0000,0.0000 Z"/></g><g stroke-linejoin="miter" stroke-opacity="0.0" fill-opacity="0.2" stroke="rgb(0,0,0)" stroke-width="2.773639562685738" fill="rgb(93,165,218)" stroke-linecap="butt" stroke-miterlimit="10.0"><path d="M 182.7054,341.2752 l -0.0000,-0.0000 h -8.5060 l -0.0000,0.0000 Z"/></g><g stroke-linejoin="miter" stroke-opacity="0.0" fill-opacity="0.2" stroke="rgb(0,0,0)" stroke-width="2.773639562685738" fill="rgb(93,165,218)" stroke-linecap="butt" stroke-miterlimit="10.0"><path d="M 174.1994,341.2752 l -0.0000,-2.8353 h -8.5060 l -0.0000,2.8353 Z"/></g><g stroke-linejoin="miter" stroke-opacity="0.0" fill-opacity="0.2" stroke="rgb(0,0,0)" stroke-width="2.773639562685738" fill="rgb(93,165,218)" stroke-linecap="butt" stroke-miterlimit="10.0"><path d="M 165.6933,341.2752 l -0.0000,-0.0000 h -8.5060 l -0.0000,0.0000 Z"/></g><g stroke-linejoin="miter" stroke-opacity="0.0" fill-opacity="0.2" stroke="rgb(0,0,0)" stroke-width="2.773639562685738" fill="rgb(93,165,218)" stroke-linecap="butt" stroke-miterlimit="10.0"><path d="M 157.1873,341.2752 l -0.0000,-0.0000 h -8.5060 l -0.0000,0.0000 Z"/></g><g stroke-linejoin="miter" stroke-opacity="0.0" fill-opacity="0.2" stroke="rgb(0,0,0)" stroke-width="2.773639562685738" fill="rgb(93,165,218)" stroke-linecap="butt" stroke-miterlimit="10.0"><path d="M 148.6813,341.2752 l -0.0000,-0.0000 h -8.5060 l -0.0000,0.0000 Z"/></g><g stroke-linejoin="miter" stroke-opacity="0.0" fill-opacity="0.2" stroke="rgb(0,0,0)" stroke-width="2.773639562685738" fill="rgb(93,165,218)" stroke-linecap="butt" stroke-miterlimit="10.0"><path d="M 140.1752,341.2752 l -0.0000,-0.0000 h -8.5060 l -0.0000,0.0000 Z"/></g><g stroke-linejoin="miter" stroke-opacity="0.0" fill-opacity="0.2" stroke="rgb(0,0,0)" stroke-width="2.773639562685738" fill="rgb(93,165,218)" stroke-linecap="butt" stroke-miterlimit="10.0"><path d="M 131.6692,341.2752 l -0.0000,-0.0000 h -8.5060 l -0.0000,0.0000 Z"/></g></svg>