<?xml version="1.0" encoding="UTF-8"?>
<!DOCTYPE svg PUBLIC "-//W3C//DTD SVG 1.1//EN"
    "http://www.w3.org/Graphics/SVG/1.1/DTD/svg11.dtd">
<svg xmlns="http://www.w3.org/2000/svg" height="600.0000" stroke-opacity="1" viewBox="0 0 600 600" font-size="1" width="600.0000" xmlns:xlink="http://www.w3.org/1999/xlink" stroke="rgb(0,0,0)" version="1.1">
  <defs>
  </defs>
  <g stroke-linejoin="miter" stroke-opacity="0.0" fill-opacity="0.1" stroke="rgb(0,0,0)" stroke-width="0.0" fill="rgb(0,0,0)" stroke-linecap="butt" stroke-miterlimit="10.0">
    <path d="M 106.4658,294.3293 l -0.0000,-113.4138 h -5.6707 l -0.0000,113.4138 Z"/>
  </g>
  <g stroke-linejoin="miter" stroke-opacity="1.0" fill-opacity="0.6" stroke="rgb(0,0,0)" fill-rule="evenodd" stroke-width="0.0" fill="rgb(0,0,0)" stroke-linecap="butt" stroke-miterlimit="10.0">
    <path d="M 64.8737,191.5898 ZM 68.9927,181.3769 c -0.8088,-0.0000 -1.9937,0.7899 -1.9937 5.1723c 0.0000,1.5423 0.2821,4.6456 1.9372 4.6456c 0.3197,-0.0000 1.2225,-0.2069 1.6175 -1.6739c 0.2445,-0.9028 0.3762,-2.0313 0.3762 -3.6676c 0.0000,-2.3886 -0.6019,-3.7240 -1.1473 -4.1942c -0.2069,-0.1881 -0.4890,-0.2821 -0.7899 -0.2821ZM 68.9927,181.3769 ZM 68.9175,191.8155 c -2.0125,-0.0000 -3.3667,-2.5767 -3.3667 -5.4544c 0.0000,-3.5171 1.6739,-5.6425 3.4419 -5.6425c 0.8088,-0.0000 1.6175,0.5078 2.1629 1.2413c 0.7899,1.0533 1.2037,2.4639 1.2037 4.2319c 0.0000,4.1754 -2.0689,5.6237 -3.4419 5.6237ZM 73.1117,191.5898 ZM 74.1838,190.8187 c 0.0000,-0.5454 0.4514,-0.9968 0.9968 -0.9968c 0.5454,-0.0000 0.9968,0.4514 0.9968 0.9968c 0.0000,0.5454 -0.4514,0.9968 -0.9968 0.9968c -0.5454,-0.0000 -0.9968,-0.4514 -0.9968 -0.9968ZM 77.2307,191.5898 ZM 81.3498,181.3769 c -0.8088,-0.0000 -1.9937,0.7899 -1.9937 5.1723c 0.0000,1.5423 0.2821,4.6456 1.9372 4.6456c 0.3197,-0.0000 1.2225,-0.2069 1.6175 -1.6739c 0.2445,-0.9028 0.3762,-2.0313 0.3762 -3.6676c 0.0000,-2.3886 -0.6019,-3.7240 -1.1473 -4.1942c -0.2069,-0.1881 -0.4890,-0.2821 -0.7899 -0.2821ZM 81.3498,181.3769 ZM 81.2745,191.8155 c -2.0125,-0.0000 -3.3667,-2.5767 -3.3667 -5.4544c 0.0000,-3.5171 1.6739,-5.6425 3.4419 -5.6425c 0.8088,-0.0000 1.6175,0.5078 2.1629 1.2413c 0.7899,1.0533 1.2037,2.4639 1.2037 4.2319c 0.0000,4.1754 -2.0689,5.6237 -3.4419 5.6237ZM 85.4688,191.5898 ZM 90.3213,184.9129 c 0.0000,-0.1317 0.0188,-0.2821 0.1881 -0.3762c 0.2069,-0.1505 0.5454,-0.3197 0.8276 -0.3197c 0.2445,-0.0000 0.2633,0.2069 0.2633 0.5831v 3.0281 h 1.5235 l -0.1128,0.8840 h -1.4106 v 1.5611 c 0.0000,0.5266 0.0752,0.7899 0.6207 0.7899h 0.5078 c 0.1128,-0.0000 0.1317,0.0940 0.1317 0.1317v 0.4138 c 0.0000,-0.0000 -1.2037,-0.0376 -1.9937 -0.0376c -0.7147,-0.0000 -1.8244,0.0376 -1.8244 0.0376v -0.4138 c 0.0000,-0.0376 0.0188,-0.1317 0.1317 -0.1317h 0.5078 c 0.5831,-0.0000 0.6395,-0.2445 0.6395 -0.7899v -1.5611 h -3.6864 c -0.0752,-0.0000 -0.1128,-0.0376 -0.1693 -0.1128l -0.1505,-0.2069 l -0.2257,-0.3950 c -0.0188,-0.0000 -0.0188,-0.0188 -0.0188 -0.0376c 0.0000,-0.0188 0.0188,-0.0376 0.0376 -0.0564c 1.2225,-1.3542 3.3855,-5.5484 4.0626 -7.0907c 0.0188,-0.0752 0.0564,-0.0940 0.1317 -0.0940c 0.0188,-0.0000 0.4326,0.1693 0.6583 0.2069c -0.8464,2.2758 -2.2382,4.7209 -3.6112 6.9026h 2.9717 v -2.9153 Z"/>
  </g>
  <g stroke-linejoin="miter" stroke-opacity="0.6" fill-opacity="0.0" stroke="rgb(0,0,0)" stroke-width="2.559227243377904" fill="rgb(0,0,0)" stroke-linecap="butt" stroke-miterlimit="10.0">
    <path d="M 97.9598,185.9191 h 8.5060 "/>
  </g>
  <g stroke-linejoin="miter" stroke-opacity="1.0" fill-opacity="0.6" stroke="rgb(0,0,0)" fill-rule="evenodd" stroke-width="0.0" fill="rgb(0,0,0)" stroke-linecap="butt" stroke-miterlimit="10.0">
    <path d="M 64.8737,208.2683 ZM 68.9927,198.0554 c -0.8088,-0.0000 -1.9937,0.7899 -1.9937 5.1723c 0.0000,1.5423 0.2821,4.6456 1.9372 4.6456c 0.3197,-0.0000 1.2225,-0.2069 1.6175 -1.6739c 0.2445,-0.9028 0.3762,-2.0313 0.3762 -3.6676c 0.0000,-2.3886 -0.6019,-3.7240 -1.1473 -4.1942c -0.2069,-0.1881 -0.4890,-0.2821 -0.7899 -0.2821ZM 68.9927,198.0554 ZM 68.9175,208.4940 c -2.0125,-0.0000 -3.3667,-2.5767 -3.3667 -5.4544c 0.0000,-3.5171 1.6739,-5.6425 3.4419 -5.6425c 0.8088,-0.0000 1.6175,0.5078 2.1629 1.2413c 0.7899,1.0533 1.2037,2.4639 1.2037 4.2319c 0.0000,4.1754 -2.0689,5.6237 -3.4419 5.6237ZM 73.1117,208.2683 ZM 74.1838,207.4972 c 0.0000,-0.5454 0.4514,-0.9968 0.9968 -0.9968c 0.5454,-0.0000 0.9968,0.4514 0.9968 0.9968c 0.0000,0.5454 -0.4514,0.9968 -0.9968 0.9968c -0.5454,-0.0000 -0.9968,-0.4514 -0.9968 -0.9968ZM 77.2307,208.2683 ZM 81.3498,198.0554 c -0.8088,-0.0000 -1.9937,0.7899 -1.9937 5.1723c 0.0000,1.5423 0.2821,4.6456 1.9372 4.6456c 0.3197,-0.0000 1.2225,-0.2069 1.6175 -1.6739c 0.2445,-0.9028 0.3762,-2.0313 0.3762 -3.6676c 0.0000,-2.3886 -0.6019,-3.7240 -1.1473 -4.1942c -0.2069,-0.1881 -0.4890,-0.2821 -0.7899 -0.2821ZM 81.3498,198.0554 ZM 81.2745,208.4940 c -2.0125,-0.0000 -3.3667,-2.5767 -3.3667 -5.4544c 0.0000,-3.5171 1.6739,-5.6425 3.4419 -5.6425c 0.8088,-0.0000 1.6175,0.5078 2.1629 1.2413c 0.7899,1.0533 1.2037,2.4639 1.2037 4.2319c 0.0000,4.1754 -2.0689,5.6237 -3.4419 5.6237ZM 85.4688,208.2683 ZM 89.5313,197.9802 c -0.4702,-0.0000 -1.8432,0.2633 -1.8432 1.4106c 0.0000,0.3385 -0.1317,0.9216 -0.6395 0.9216c -0.4890,-0.0000 -0.5266,-0.5454 -0.5266 -0.6019c 0.0000,-0.5831 0.7711,-2.3134 3.3855 -2.3134c 1.8244,-0.0000 2.3698,1.1473 2.3698 1.8996c 0.0000,0.4702 -0.1505,1.4106 -1.8432 2.4827c 1.0533,0.1693 2.4451,0.9404 2.4451 2.8965c 0.0000,2.4827 -1.8808,3.8181 -4.0062 3.8181c -1.0721,-0.0000 -2.5767,-0.4702 -2.5767 -1.1849c 0.0000,-0.2821 0.2821,-0.6019 0.6583 -0.6019c 0.3574,-0.0000 0.5266,0.1881 0.6959 0.4326c 0.2069,0.3197 0.5454,0.7711 1.4482 0.7711c 0.6207,-0.0000 2.3886,-0.6207 2.3886 -2.9905c 0.0000,-2.0125 -1.4106,-2.3322 -2.4263 -2.3322c -0.1693,-0.0000 -0.3762,0.0376 -0.5831 0.0752l -0.0752,-0.5642 c 1.4482,-0.2445 2.6520,-1.6551 2.6520 -2.5203c 0.0000,-1.0721 -0.7523,-1.5987 -1.5235 -1.5987Z"/>
  </g>
  <g stroke-linejoin="miter" stroke-opacity="0.6" fill-opacity="0.0" stroke="rgb(0,0,0)" stroke-width="2.559227243377904" fill="rgb(0,0,0)" stroke-linecap="butt" stroke-miterlimit="10.0">
    <path d="M 97.9598,202.5976 h 8.5060 "/>
  </g>
  <g stroke-linejoin="miter" stroke-opacity="1.0" fill-opacity="0.6" stroke="rgb(0,0,0)" fill-rule="evenodd" stroke-width="0.0" fill="rgb(0,0,0)" stroke-linecap="butt" stroke-miterlimit="10.0">
    <path d="M 64.8737,224.9468 ZM 68.9927,214.7339 c -0.8088,-0.0000 -1.9937,0.7899 -1.9937 5.1723c 0.0000,1.5423 0.2821,4.6456 1.9372 4.6456c 0.3197,-0.0000 1.2225,-0.2069 1.6175 -1.6739c 0.2445,-0.9028 0.3762,-2.0313 0.3762 -3.6676c 0.0000,-2.3886 -0.6019,-3.7240 -1.1473 -4.1942c -0.2069,-0.1881 -0.4890,-0.2821 -0.7899 -0.2821ZM 68.9927,214.7339 ZM 68.9175,225.1725 c -2.0125,-0.0000 -3.3667,-2.5767 -3.3667 -5.4544c 0.0000,-3.5171 1.6739,-5.6425 3.4419 -5.6425c 0.8088,-0.0000 1.6175,0.5078 2.1629 1.2413c 0.7899,1.0533 1.2037,2.4639 1.2037 4.2319c 0.0000,4.1754 -2.0689,5.6237 -3.4419 5.6237ZM 73.1117,224.9468 ZM 74.1838,224.1756 c 0.0000,-0.5454 0.4514,-0.9968 0.9968 -0.9968c 0.5454,-0.0000 0.9968,0.4514 0.9968 0.9968c 0.0000,0.5454 -0.4514,0.9968 -0.9968 0.9968c -0.5454,-0.0000 -0.9968,-0.4514 -0.9968 -0.9968ZM 77.2307,224.9468 ZM 81.3498,214.7339 c -0.8088,-0.0000 -1.9937,0.7899 -1.9937 5.1723c 0.0000,1.5423 0.2821,4.6456 1.9372 4.6456c 0.3197,-0.0000 1.2225,-0.2069 1.6175 -1.6739c 0.2445,-0.9028 0.3762,-2.0313 0.3762 -3.6676c 0.0000,-2.3886 -0.6019,-3.7240 -1.1473 -4.1942c -0.2069,-0.1881 -0.4890,-0.2821 -0.7899 -0.2821ZM 81.3498,214.7339 ZM 81.2745,225.1725 c -2.0125,-0.0000 -3.3667,-2.5767 -3.3667 -5.4544c 0.0000,-3.5171 1.6739,-5.6425 3.4419 -5.6425c 0.8088,-0.0000 1.6175,0.5078 2.1629 1.2413c 0.7899,1.0533 1.2037,2.4639 1.2037 4.2319c 0.0000,4.1754 -2.0689,5.6237 -3.4419 5.6237ZM 85.4688,224.9468 ZM 86.5596,216.6147 c 0.0000,-1.0721 1.0345,-2.5391 3.0093 -2.5391c 1.4482,-0.0000 3.1410,0.5454 3.1410 2.7084c 0.0000,1.4294 -0.7335,2.1441 -1.7492 3.1222l -1.7868,1.7304 c -0.0940,0.0940 -1.3542,1.3354 -1.3542 2.2194h 3.1974 c 0.6395,-0.0000 0.9780,-0.3197 1.2413 -1.3542l 0.4702,0.0752 l -0.3762,2.3698 h -5.8117 c 0.0000,-1.0533 0.1693,-1.8620 1.9184 -3.6488l 1.3166,-1.2978 c 1.0533,-1.0721 1.4859,-1.9937 1.4859 -3.1410c 0.0000,-1.7116 -1.1661,-2.2006 -1.8056 -2.2006c -1.2978,-0.0000 -1.6551,0.6771 -1.6551 1.1285c 0.0000,0.1505 0.0376,0.3009 0.0752 0.4326c 0.0376,0.1317 0.0752,0.2633 0.0752 0.4138c 0.0000,0.4890 -0.3762,0.6771 -0.6771 0.6771c -0.4138,-0.0000 -0.7147,-0.3197 -0.7147 -0.6959Z"/>
  </g>
  <g stroke-linejoin="miter" stroke-opacity="0.6" fill-opacity="0.0" stroke="rgb(0,0,0)" stroke-width="2.559227243377904" fill="rgb(0,0,0)" stroke-linecap="butt" stroke-miterlimit="10.0">
    <path d="M 97.9598,219.2761 h 8.5060 "/>
  </g>
  <g stroke-linejoin="miter" stroke-opacity="1.0" fill-opacity="0.6" stroke="rgb(0,0,0)" fill-rule="evenodd" stroke-width="0.0" fill="rgb(0,0,0)" stroke-linecap="butt" stroke-miterlimit="10.0">
    <path d="M 64.8737,241.6253 ZM 68.9927,231.4124 c -0.8088,-0.0000 -1.9937,0.7899 -1.9937 5.1723c 0.0000,1.5423 0.2821,4.6456 1.9372 4.6456c 0.3197,-0.0000 1.2225,-0.2069 1.6175 -1.6739c 0.2445,-0.9028 0.3762,-2.0313 0.3762 -3.6676c 0.0000,-2.3886 -0.6019,-3.7240 -1.1473 -4.1942c -0.2069,-0.1881 -0.4890,-0.2821 -0.7899 -0.2821ZM 68.9927,231.4124 ZM 68.9175,241.8510 c -2.0125,-0.0000 -3.3667,-2.5767 -3.3667 -5.4544c 0.0000,-3.5171 1.6739,-5.6425 3.4419 -5.6425c 0.8088,-0.0000 1.6175,0.5078 2.1629 1.2413c 0.7899,1.0533 1.2037,2.4639 1.2037 4.2319c 0.0000,4.1754 -2.0689,5.6237 -3.4419 5.6237ZM 73.1117,241.6253 ZM 74.1838,240.8541 c 0.0000,-0.5454 0.4514,-0.9968 0.9968 -0.9968c 0.5454,-0.0000 0.9968,0.4514 0.9968 0.9968c 0.0000,0.5454 -0.4514,0.9968 -0.9968 0.9968c -0.5454,-0.0000 -0.9968,-0.4514 -0.9968 -0.9968ZM 77.2307,241.6253 ZM 81.3498,231.4124 c -0.8088,-0.0000 -1.9937,0.7899 -1.9937 5.1723c 0.0000,1.5423 0.2821,4.6456 1.9372 4.6456c 0.3197,-0.0000 1.2225,-0.2069 1.6175 -1.6739c 0.2445,-0.9028 0.3762,-2.0313 0.3762 -3.6676c 0.0000,-2.3886 -0.6019,-3.7240 -1.1473 -4.1942c -0.2069,-0.1881 -0.4890,-0.2821 -0.7899 -0.2821ZM 81.3498,231.4124 ZM 81.2745,241.8510 c -2.0125,-0.0000 -3.3667,-2.5767 -3.3667 -5.4544c 0.0000,-3.5171 1.6739,-5.6425 3.4419 -5.6425c 0.8088,-0.0000 1.6175,0.5078 2.1629 1.2413c 0.7899,1.0533 1.2037,2.4639 1.2037 4.2319c 0.0000,4.1754 -2.0689,5.6237 -3.4419 5.6237ZM 85.4688,241.6253 ZM 89.0047,232.6537 c -0.3574,-0.0000 -1.1849,0.3385 -1.5987 0.5266l -0.2257,-0.5831 c 1.6551,-0.7711 2.2946,-1.1661 3.2350 -1.8432h 0.3574 v 9.4605 c 0.0000,0.6771 0.0940,0.8652 0.7147 0.8652h 0.9780 c 0.0564,-0.0000 0.1505,0.0376 0.1505 0.1505v 0.4138 l -2.5767,-0.0376 l -2.6143,0.0376 v -0.4138 c 0.0188,-0.0564 0.0376,-0.1505 0.1505 -0.1505h 1.1285 c 0.7147,-0.0000 0.7147,-0.3197 0.7147 -0.8652v -6.4700 c 0.0000,-0.6395 0.0000,-1.0909 -0.4138 -1.0909Z"/>
  </g>
  <g stroke-linejoin="miter" stroke-opacity="0.6" fill-opacity="0.0" stroke="rgb(0,0,0)" stroke-width="2.559227243377904" fill="rgb(0,0,0)" stroke-linecap="butt" stroke-miterlimit="10.0">
    <path d="M 97.9598,235.9546 h 8.5060 "/>
  </g>
  <g stroke-linejoin="miter" stroke-opacity="1.0" fill-opacity="0.6" stroke="rgb(0,0,0)" fill-rule="evenodd" stroke-width="0.0" fill="rgb(0,0,0)" stroke-linecap="butt" stroke-miterlimit="10.0">
    <path d="M 64.8737,258.3038 ZM 68.9927,248.0909 c -0.8088,-0.0000 -1.9937,0.7899 -1.9937 5.1723c 0.0000,1.5423 0.2821,4.6456 1.9372 4.6456c 0.3197,-0.0000 1.2225,-0.2069 1.6175 -1.6739c 0.2445,-0.9028 0.3762,-2.0313 0.3762 -3.6676c 0.0000,-2.3886 -0.6019,-3.7240 -1.1473 -4.1942c -0.2069,-0.1881 -0.4890,-0.2821 -0.7899 -0.2821ZM 68.9927,248.0909 ZM 68.9175,258.5295 c -2.0125,-0.0000 -3.3667,-2.5767 -3.3667 -5.4544c 0.0000,-3.5171 1.6739,-5.6425 3.4419 -5.6425c 0.8088,-0.0000 1.6175,0.5078 2.1629 1.2413c 0.7899,1.0533 1.2037,2.4639 1.2037 4.2319c 0.0000,4.1754 -2.0689,5.6237 -3.4419 5.6237ZM 73.1117,258.3038 ZM 74.1838,257.5326 c 0.0000,-0.5454 0.4514,-0.9968 0.9968 -0.9968c 0.5454,-0.0000 0.9968,0.4514 0.9968 0.9968c 0.0000,0.5454 -0.4514,0.9968 -0.9968 0.9968c -0.5454,-0.0000 -0.9968,-0.4514 -0.9968 -0.9968ZM 77.2307,258.3038 ZM 81.3498,248.0909 c -0.8088,-0.0000 -1.9937,0.7899 -1.9937 5.1723c 0.0000,1.5423 0.2821,4.6456 1.9372 4.6456c 0.3197,-0.0000 1.2225,-0.2069 1.6175 -1.6739c 0.2445,-0.9028 0.3762,-2.0313 0.3762 -3.6676c 0.0000,-2.3886 -0.6019,-3.7240 -1.1473 -4.1942c -0.2069,-0.1881 -0.4890,-0.2821 -0.7899 -0.2821ZM 81.3498,248.0909 ZM 81.2745,258.5295 c -2.0125,-0.0000 -3.3667,-2.5767 -3.3667 -5.4544c 0.0000,-3.5171 1.6739,-5.6425 3.4419 -5.6425c 0.8088,-0.0000 1.6175,0.5078 2.1629 1.2413c 0.7899,1.0533 1.2037,2.4639 1.2037 4.2319c 0.0000,4.1754 -2.0689,5.6237 -3.4419 5.6237ZM 85.4688,258.3038 ZM 89.5878,248.0909 c -0.8088,-0.0000 -1.9937,0.7899 -1.9937 5.1723c 0.0000,1.5423 0.2821,4.6456 1.9372 4.6456c 0.3197,-0.0000 1.2225,-0.2069 1.6175 -1.6739c 0.2445,-0.9028 0.3762,-2.0313 0.3762 -3.6676c 0.0000,-2.3886 -0.6019,-3.7240 -1.1473 -4.1942c -0.2069,-0.1881 -0.4890,-0.2821 -0.7899 -0.2821ZM 89.5878,248.0909 ZM 89.5125,258.5295 c -2.0125,-0.0000 -3.3667,-2.5767 -3.3667 -5.4544c 0.0000,-3.5171 1.6739,-5.6425 3.4419 -5.6425c 0.8088,-0.0000 1.6175,0.5078 2.1629 1.2413c 0.7899,1.0533 1.2037,2.4639 1.2037 4.2319c 0.0000,4.1754 -2.0689,5.6237 -3.4419 5.6237Z"/>
  </g>
  <g stroke-linejoin="miter" stroke-opacity="0.6" fill-opacity="0.0" stroke="rgb(0,0,0)" stroke-width="2.559227243377904" fill="rgb(0,0,0)" stroke-linecap="butt" stroke-miterlimit="10.0">
    <path d="M 97.9598,252.6331 h 8.5060 "/>
  </g>
  <g stroke-linejoin="miter" stroke-opacity="1.0" fill-opacity="0.6" stroke="rgb(0,0,0)" fill-rule="evenodd" stroke-width="0.0" fill="rgb(0,0,0)" stroke-linecap="butt" stroke-miterlimit="10.0">
    <path d="M 58.6106,274.9823 ZM 63.7640,270.5435 h -4.2507 c -0.1693,-0.0000 -0.2821,-0.1505 -0.2821 -0.3197c 0.0000,-0.3009 0.2445,-0.6959 0.4702 -0.6959h 4.3071 c 0.1881,-0.0000 0.2633,0.1693 0.2633 0.3385c 0.0000,0.2069 -0.2633,0.6771 -0.5078 0.6771ZM 64.8737,274.9823 ZM 68.9927,264.7694 c -0.8088,-0.0000 -1.9937,0.7899 -1.9937 5.1723c 0.0000,1.5423 0.2821,4.6456 1.9372 4.6456c 0.3197,-0.0000 1.2225,-0.2069 1.6175 -1.6739c 0.2445,-0.9028 0.3762,-2.0313 0.3762 -3.6676c 0.0000,-2.3886 -0.6019,-3.7240 -1.1473 -4.1942c -0.2069,-0.1881 -0.4890,-0.2821 -0.7899 -0.2821ZM 68.9927,264.7694 ZM 68.9175,275.2080 c -2.0125,-0.0000 -3.3667,-2.5767 -3.3667 -5.4544c 0.0000,-3.5171 1.6739,-5.6425 3.4419 -5.6425c 0.8088,-0.0000 1.6175,0.5078 2.1629 1.2413c 0.7899,1.0533 1.2037,2.4639 1.2037 4.2319c 0.0000,4.1754 -2.0689,5.6237 -3.4419 5.6237ZM 73.1117,274.9823 ZM 74.1838,274.2111 c 0.0000,-0.5454 0.4514,-0.9968 0.9968 -0.9968c 0.5454,-0.0000 0.9968,0.4514 0.9968 0.9968c 0.0000,0.5454 -0.4514,0.9968 -0.9968 0.9968c -0.5454,-0.0000 -0.9968,-0.4514 -0.9968 -0.9968ZM 77.2307,274.9823 ZM 81.3498,264.7694 c -0.8088,-0.0000 -1.9937,0.7899 -1.9937 5.1723c 0.0000,1.5423 0.2821,4.6456 1.9372 4.6456c 0.3197,-0.0000 1.2225,-0.2069 1.6175 -1.6739c 0.2445,-0.9028 0.3762,-2.0313 0.3762 -3.6676c 0.0000,-2.3886 -0.6019,-3.7240 -1.1473 -4.1942c -0.2069,-0.1881 -0.4890,-0.2821 -0.7899 -0.2821ZM 81.3498,264.7694 ZM 81.2745,275.2080 c -2.0125,-0.0000 -3.3667,-2.5767 -3.3667 -5.4544c 0.0000,-3.5171 1.6739,-5.6425 3.4419 -5.6425c 0.8088,-0.0000 1.6175,0.5078 2.1629 1.2413c 0.7899,1.0533 1.2037,2.4639 1.2037 4.2319c 0.0000,4.1754 -2.0689,5.6237 -3.4419 5.6237ZM 85.4688,274.9823 ZM 89.0047,266.0107 c -0.3574,-0.0000 -1.1849,0.3385 -1.5987 0.5266l -0.2257,-0.5831 c 1.6551,-0.7711 2.2946,-1.1661 3.2350 -1.8432h 0.3574 v 9.4605 c 0.0000,0.6771 0.0940,0.8652 0.7147 0.8652h 0.9780 c 0.0564,-0.0000 0.1505,0.0376 0.1505 0.1505v 0.4138 l -2.5767,-0.0376 l -2.6143,0.0376 v -0.4138 c 0.0188,-0.0564 0.0376,-0.1505 0.1505 -0.1505h 1.1285 c 0.7147,-0.0000 0.7147,-0.3197 0.7147 -0.8652v -6.4700 c 0.0000,-0.6395 0.0000,-1.0909 -0.4138 -1.0909Z"/>
  </g>
  <g stroke-linejoin="miter" stroke-opacity="0.6" fill-opacity="0.0" stroke="rgb(0,0,0)" stroke-width="2.559227243377904" fill="rgb(0,0,0)" stroke-linecap="butt" stroke-miterlimit="10.0">
    <path d="M 97.9598,269.3116 h 8.5060 "/>
  </g>
  <g stroke-linejoin="miter" stroke-opacity="1.0" fill-opacity="0.6" stroke="rgb(0,0,0)" fill-rule="evenodd" stroke-width="0.0" fill="rgb(0,0,0)" stroke-linecap="butt" stroke-miterlimit="10.0">
    <path d="M 58.6106,291.6608 ZM 63.7640,287.2220 h -4.2507 c -0.1693,-0.0000 -0.2821,-0.1505 -0.2821 -0.3197c 0.0000,-0.3009 0.2445,-0.6959 0.4702 -0.6959h 4.3071 c 0.1881,-0.0000 0.2633,0.1693 0.2633 0.3385c 0.0000,0.2069 -0.2633,0.6771 -0.5078 0.6771ZM 64.8737,291.6608 ZM 68.9927,281.4479 c -0.8088,-0.0000 -1.9937,0.7899 -1.9937 5.1723c 0.0000,1.5423 0.2821,4.6456 1.9372 4.6456c 0.3197,-0.0000 1.2225,-0.2069 1.6175 -1.6739c 0.2445,-0.9028 0.3762,-2.0313 0.3762 -3.6676c 0.0000,-2.3886 -0.6019,-3.7240 -1.1473 -4.1942c -0.2069,-0.1881 -0.4890,-0.2821 -0.7899 -0.2821ZM 68.9927,281.4479 ZM 68.9175,291.8865 c -2.0125,-0.0000 -3.3667,-2.5767 -3.3667 -5.4544c 0.0000,-3.5171 1.6739,-5.6425 3.4419 -5.6425c 0.8088,-0.0000 1.6175,0.5078 2.1629 1.2413c 0.7899,1.0533 1.2037,2.4639 1.2037 4.2319c 0.0000,4.1754 -2.0689,5.6237 -3.4419 5.6237ZM 73.1117,291.6608 ZM 74.1838,290.8896 c 0.0000,-0.5454 0.4514,-0.9968 0.9968 -0.9968c 0.5454,-0.0000 0.9968,0.4514 0.9968 0.9968c 0.0000,0.5454 -0.4514,0.9968 -0.9968 0.9968c -0.5454,-0.0000 -0.9968,-0.4514 -0.9968 -0.9968ZM 77.2307,291.6608 ZM 81.3498,281.4479 c -0.8088,-0.0000 -1.9937,0.7899 -1.9937 5.1723c 0.0000,1.5423 0.2821,4.6456 1.9372 4.6456c 0.3197,-0.0000 1.2225,-0.2069 1.6175 -1.6739c 0.2445,-0.9028 0.3762,-2.0313 0.3762 -3.6676c 0.0000,-2.3886 -0.6019,-3.7240 -1.1473 -4.1942c -0.2069,-0.1881 -0.4890,-0.2821 -0.7899 -0.2821ZM 81.3498,281.4479 ZM 81.2745,291.8865 c -2.0125,-0.0000 -3.3667,-2.5767 -3.3667 -5.4544c 0.0000,-3.5171 1.6739,-5.6425 3.4419 -5.6425c 0.8088,-0.0000 1.6175,0.5078 2.1629 1.2413c 0.7899,1.0533 1.2037,2.4639 1.2037 4.2319c 0.0000,4.1754 -2.0689,5.6237 -3.4419 5.6237ZM 85.4688,291.6608 ZM 86.5596,283.3287 c 0.0000,-1.0721 1.0345,-2.5391 3.0093 -2.5391c 1.4482,-0.0000 3.1410,0.5454 3.1410 2.7084c 0.0000,1.4294 -0.7335,2.1441 -1.7492 3.1222l -1.7868,1.7304 c -0.0940,0.0940 -1.3542,1.3354 -1.3542 2.2194h 3.1974 c 0.6395,-0.0000 0.9780,-0.3197 1.2413 -1.3542l 0.4702,0.0752 l -0.3762,2.3698 h -5.8117 c 0.0000,-1.0533 0.1693,-1.8620 1.9184 -3.6488l 1.3166,-1.2978 c 1.0533,-1.0721 1.4859,-1.9937 1.4859 -3.1410c 0.0000,-1.7116 -1.1661,-2.2006 -1.8056 -2.2006c -1.2978,-0.0000 -1.6551,0.6771 -1.6551 1.1285c 0.0000,0.1505 0.0376,0.3009 0.0752 0.4326c 0.0376,0.1317 0.0752,0.2633 0.0752 0.4138c 0.0000,0.4890 -0.3762,0.6771 -0.6771 0.6771c -0.4138,-0.0000 -0.7147,-0.3197 -0.7147 -0.6959Z"/>
  </g>
  <g stroke-linejoin="miter" stroke-opacity="0.6" fill-opacity="0.0" stroke="rgb(0,0,0)" stroke-width="2.559227243377904" fill="rgb(0,0,0)" stroke-linecap="butt" stroke-miterlimit="10.0">
    <path d="M 97.9598,285.9901 h 8.5060 "/>
  </g>
  <g stroke-linejoin="miter" stroke-opacity="0.0" fill-opacity="0.1" stroke="rgb(0,0,0)" stroke-width="0.0" fill="rgb(0,0,0)" stroke-linecap="butt" stroke-miterlimit="10.0">
    <path d="M 550.3593,311.3414 l -0.0000,-5.6707 h -425.3016 l -0.0000,5.6707 Z"/>
  </g>
  <g stroke-linejoin="miter" stroke-opacity="1.0" fill-opacity="0.6" stroke="rgb(0,0,0)" fill-rule="evenodd" stroke-width="0.0" fill="rgb(0,0,0)" stroke-linecap="butt" stroke-miterlimit="10.0">
    <path d="M 546.2403,335.2443 ZM 552.0521,332.0657 c 0.0000,-1.9372 -1.0533,-2.8965 -2.2194 -2.8965c -0.8652,-0.0000 -1.5235,0.1317 -2.2570 0.4326l 0.6019,-5.1347 c 0.6207,0.0564 1.2602,0.0752 1.9184 0.0752c 0.9404,-0.0000 1.9184,-0.0564 2.9341 -0.1693l 0.1128,0.0564 l -0.2821,1.2225 c -0.7335,0.0752 -1.3354,0.0940 -1.8620 0.0940c -0.8464,-0.0000 -1.4859,-0.0752 -2.1441 -0.1505l -0.3574,2.9717 c 0.3950,-0.1505 1.0721,-0.2821 1.8056 -0.2821c 1.9937,-0.0000 3.1034,1.7304 3.1034 3.4607c 0.0000,2.1065 -1.4670,3.7240 -3.5924 3.7240c -1.0721,-0.0000 -2.6332,-0.6019 -2.6332 -1.3354c 0.0000,-0.3574 0.3009,-0.6019 0.6395 -0.6019c 0.3762,-0.0000 0.6207,0.2821 0.8464 0.5831c 0.2821,0.3385 0.5831,0.7147 1.1849 0.7147c 1.2037,-0.0000 2.2006,-1.1285 2.2006 -2.7648Z"/>
  </g>
  <g stroke-linejoin="miter" stroke-opacity="0.6" fill-opacity="0.0" stroke="rgb(0,0,0)" stroke-width="2.559227243377904" fill="rgb(0,0,0)" stroke-linecap="butt" stroke-miterlimit="10.0">
    <path d="M 550.3593,305.6707 v 8.5060 "/>
  </g>
  <g stroke-linejoin="miter" stroke-opacity="1.0" fill-opacity="0.6" stroke="rgb(0,0,0)" fill-rule="evenodd" stroke-width="0.0" fill="rgb(0,0,0)" stroke-linecap="butt" stroke-miterlimit="10.0">
    <path d="M 503.7102,335.2443 ZM 508.5627,328.5674 c 0.0000,-0.1317 0.0188,-0.2821 0.1881 -0.3762c 0.2069,-0.1505 0.5454,-0.3197 0.8276 -0.3197c 0.2445,-0.0000 0.2633,0.2069 0.2633 0.5831v 3.0281 h 1.5235 l -0.1128,0.8840 h -1.4106 v 1.5611 c 0.0000,0.5266 0.0752,0.7899 0.6207 0.7899h 0.5078 c 0.1128,-0.0000 0.1317,0.0940 0.1317 0.1317v 0.4138 c 0.0000,-0.0000 -1.2037,-0.0376 -1.9937 -0.0376c -0.7147,-0.0000 -1.8244,0.0376 -1.8244 0.0376v -0.4138 c 0.0000,-0.0376 0.0188,-0.1317 0.1317 -0.1317h 0.5078 c 0.5831,-0.0000 0.6395,-0.2445 0.6395 -0.7899v -1.5611 h -3.6864 c -0.0752,-0.0000 -0.1128,-0.0376 -0.1693 -0.1128l -0.1505,-0.2069 l -0.2257,-0.3950 c -0.0188,-0.0000 -0.0188,-0.0188 -0.0188 -0.0376c 0.0000,-0.0188 0.0188,-0.0376 0.0376 -0.0564c 1.2225,-1.3542 3.3855,-5.5484 4.0626 -7.0907c 0.0188,-0.0752 0.0564,-0.0940 0.1317 -0.0940c 0.0188,-0.0000 0.4326,0.1693 0.6583 0.2069c -0.8464,2.2758 -2.2382,4.7209 -3.6112 6.9026h 2.9717 v -2.9153 Z"/>
  </g>
  <g stroke-linejoin="miter" stroke-opacity="0.6" fill-opacity="0.0" stroke="rgb(0,0,0)" stroke-width="2.559227243377904" fill="rgb(0,0,0)" stroke-linecap="butt" stroke-miterlimit="10.0">
    <path d="M 507.8292,305.6707 v 8.5060 "/>
  </g>
  <g stroke-linejoin="miter" stroke-opacity="1.0" fill-opacity="0.6" stroke="rgb(0,0,0)" fill-rule="evenodd" stroke-width="0.0" fill="rgb(0,0,0)" stroke-linecap="butt" stroke-miterlimit="10.0">
    <path d="M 461.1800,335.2443 ZM 465.2426,324.9562 c -0.4702,-0.0000 -1.8432,0.2633 -1.8432 1.4106c 0.0000,0.3385 -0.1317,0.9216 -0.6395 0.9216c -0.4890,-0.0000 -0.5266,-0.5454 -0.5266 -0.6019c 0.0000,-0.5831 0.7711,-2.3134 3.3855 -2.3134c 1.8244,-0.0000 2.3698,1.1473 2.3698 1.8996c 0.0000,0.4702 -0.1505,1.4106 -1.8432 2.4827c 1.0533,0.1693 2.4451,0.9404 2.4451 2.8965c 0.0000,2.4827 -1.8808,3.8181 -4.0062 3.8181c -1.0721,-0.0000 -2.5767,-0.4702 -2.5767 -1.1849c 0.0000,-0.2821 0.2821,-0.6019 0.6583 -0.6019c 0.3574,-0.0000 0.5266,0.1881 0.6959 0.4326c 0.2069,0.3197 0.5454,0.7711 1.4482 0.7711c 0.6207,-0.0000 2.3886,-0.6207 2.3886 -2.9905c 0.0000,-2.0125 -1.4106,-2.3322 -2.4263 -2.3322c -0.1693,-0.0000 -0.3762,0.0376 -0.5831 0.0752l -0.0752,-0.5642 c 1.4482,-0.2445 2.6520,-1.6551 2.6520 -2.5203c 0.0000,-1.0721 -0.7523,-1.5987 -1.5235 -1.5987Z"/>
  </g>
  <g stroke-linejoin="miter" stroke-opacity="0.6" fill-opacity="0.0" stroke="rgb(0,0,0)" stroke-width="2.559227243377904" fill="rgb(0,0,0)" stroke-linecap="butt" stroke-miterlimit="10.0">
    <path d="M 465.2990,305.6707 v 8.5060 "/>
  </g>
  <g stroke-linejoin="miter" stroke-opacity="1.0" fill-opacity="0.6" stroke="rgb(0,0,0)" fill-rule="evenodd" stroke-width="0.0" fill="rgb(0,0,0)" stroke-linecap="butt" stroke-miterlimit="10.0">
    <path d="M 418.6499,335.2443 ZM 419.7407,326.9123 c 0.0000,-1.0721 1.0345,-2.5391 3.0093 -2.5391c 1.4482,-0.0000 3.1410,0.5454 3.1410 2.7084c 0.0000,1.4294 -0.7335,2.1441 -1.7492 3.1222l -1.7868,1.7304 c -0.0940,0.0940 -1.3542,1.3354 -1.3542 2.2194h 3.1974 c 0.6395,-0.0000 0.9780,-0.3197 1.2413 -1.3542l 0.4702,0.0752 l -0.3762,2.3698 h -5.8117 c 0.0000,-1.0533 0.1693,-1.8620 1.9184 -3.6488l 1.3166,-1.2978 c 1.0533,-1.0721 1.4859,-1.9937 1.4859 -3.1410c 0.0000,-1.7116 -1.1661,-2.2006 -1.8056 -2.2006c -1.2978,-0.0000 -1.6551,0.6771 -1.6551 1.1285c 0.0000,0.1505 0.0376,0.3009 0.0752 0.4326c 0.0376,0.1317 0.0752,0.2633 0.0752 0.4138c 0.0000,0.4890 -0.3762,0.6771 -0.6771 0.6771c -0.4138,-0.0000 -0.7147,-0.3197 -0.7147 -0.6959Z"/>
  </g>
  <g stroke-linejoin="miter" stroke-opacity="0.6" fill-opacity="0.0" stroke="rgb(0,0,0)" stroke-width="2.559227243377904" fill="rgb(0,0,0)" stroke-linecap="butt" stroke-miterlimit="10.0">
    <path d="M 422.7689,305.6707 v 8.5060 "/>
  </g>
  <g stroke-linejoin="miter" stroke-opacity="1.0" fill-opacity="0.6" stroke="rgb(0,0,0)" fill-rule="evenodd" stroke-width="0.0" fill="rgb(0,0,0)" stroke-linecap="butt" stroke-miterlimit="10.0">
    <path d="M 376.1197,335.2443 ZM 379.6557,326.2728 c -0.3574,-0.0000 -1.1849,0.3385 -1.5987 0.5266l -0.2257,-0.5831 c 1.6551,-0.7711 2.2946,-1.1661 3.2350 -1.8432h 0.3574 v 9.4605 c 0.0000,0.6771 0.0940,0.8652 0.7147 0.8652h 0.9780 c 0.0564,-0.0000 0.1505,0.0376 0.1505 0.1505v 0.4138 l -2.5767,-0.0376 l -2.6143,0.0376 v -0.4138 c 0.0188,-0.0564 0.0376,-0.1505 0.1505 -0.1505h 1.1285 c 0.7147,-0.0000 0.7147,-0.3197 0.7147 -0.8652v -6.4700 c 0.0000,-0.6395 0.0000,-1.0909 -0.4138 -1.0909Z"/>
  </g>
  <g stroke-linejoin="miter" stroke-opacity="0.6" fill-opacity="0.0" stroke="rgb(0,0,0)" stroke-width="2.559227243377904" fill="rgb(0,0,0)" stroke-linecap="butt" stroke-miterlimit="10.0">
    <path d="M 380.2387,305.6707 v 8.5060 "/>
  </g>
  <g stroke-linejoin="miter" stroke-opacity="1.0" fill-opacity="0.6" stroke="rgb(0,0,0)" fill-rule="evenodd" stroke-width="0.0" fill="rgb(0,0,0)" stroke-linecap="butt" stroke-miterlimit="10.0">
    <path d="M 333.5895,335.2443 ZM 337.7086,325.0314 c -0.8088,-0.0000 -1.9937,0.7899 -1.9937 5.1723c 0.0000,1.5423 0.2821,4.6456 1.9372 4.6456c 0.3197,-0.0000 1.2225,-0.2069 1.6175 -1.6739c 0.2445,-0.9028 0.3762,-2.0313 0.3762 -3.6676c 0.0000,-2.3886 -0.6019,-3.7240 -1.1473 -4.1942c -0.2069,-0.1881 -0.4890,-0.2821 -0.7899 -0.2821ZM 337.7086,325.0314 ZM 337.6333,335.4700 c -2.0125,-0.0000 -3.3667,-2.5767 -3.3667 -5.4544c 0.0000,-3.5171 1.6739,-5.6425 3.4419 -5.6425c 0.8088,-0.0000 1.6175,0.5078 2.1629 1.2413c 0.7899,1.0533 1.2037,2.4639 1.2037 4.2319c 0.0000,4.1754 -2.0689,5.6237 -3.4419 5.6237Z"/>
  </g>
  <g stroke-linejoin="miter" stroke-opacity="0.6" fill-opacity="0.0" stroke="rgb(0,0,0)" stroke-width="2.559227243377904" fill="rgb(0,0,0)" stroke-linecap="butt" stroke-miterlimit="10.0">
    <path d="M 337.7086,305.6707 v 8.5060 "/>
  </g>
  <g stroke-linejoin="miter" stroke-opacity="1.0" fill-opacity="0.6" stroke="rgb(0,0,0)" fill-rule="evenodd" stroke-width="0.0" fill="rgb(0,0,0)" stroke-linecap="butt" stroke-miterlimit="10.0">
    <path d="M 287.9278,335.2443 ZM 293.0813,330.8056 h -4.2507 c -0.1693,-0.0000 -0.2821,-0.1505 -0.2821 -0.3197c 0.0000,-0.3009 0.2445,-0.6959 0.4702 -0.6959h 4.3071 c 0.1881,-0.0000 0.2633,0.1693 0.2633 0.3385c 0.0000,0.2069 -0.2633,0.6771 -0.5078 0.6771ZM 294.1910,335.2443 ZM 297.7269,326.2728 c -0.3574,-0.0000 -1.1849,0.3385 -1.5987 0.5266l -0.2257,-0.5831 c 1.6551,-0.7711 2.2946,-1.1661 3.2350 -1.8432h 0.3574 v 9.4605 c 0.0000,0.6771 0.0940,0.8652 0.7147 0.8652h 0.9780 c 0.0564,-0.0000 0.1505,0.0376 0.1505 0.1505v 0.4138 l -2.5767,-0.0376 l -2.6143,0.0376 v -0.4138 c 0.0188,-0.0564 0.0376,-0.1505 0.1505 -0.1505h 1.1285 c 0.7147,-0.0000 0.7147,-0.3197 0.7147 -0.8652v -6.4700 c 0.0000,-0.6395 0.0000,-1.0909 -0.4138 -1.0909Z"/>
  </g>
  <g stroke-linejoin="miter" stroke-opacity="0.6" fill-opacity="0.0" stroke="rgb(0,0,0)" stroke-width="2.559227243377904" fill="rgb(0,0,0)" stroke-linecap="butt" stroke-miterlimit="10.0">
    <path d="M 295.1784,305.6707 v 8.5060 "/>
  </g>
  <g stroke-linejoin="miter" stroke-opacity="1.0" fill-opacity="0.6" stroke="rgb(0,0,0)" fill-rule="evenodd" stroke-width="0.0" fill="rgb(0,0,0)" stroke-linecap="butt" stroke-miterlimit="10.0">
    <path d="M 245.3977,335.2443 ZM 250.5511,330.8056 h -4.2507 c -0.1693,-0.0000 -0.2821,-0.1505 -0.2821 -0.3197c 0.0000,-0.3009 0.2445,-0.6959 0.4702 -0.6959h 4.3071 c 0.1881,-0.0000 0.2633,0.1693 0.2633 0.3385c 0.0000,0.2069 -0.2633,0.6771 -0.5078 0.6771ZM 251.6608,335.2443 ZM 252.7517,326.9123 c 0.0000,-1.0721 1.0345,-2.5391 3.0093 -2.5391c 1.4482,-0.0000 3.1410,0.5454 3.1410 2.7084c 0.0000,1.4294 -0.7335,2.1441 -1.7492 3.1222l -1.7868,1.7304 c -0.0940,0.0940 -1.3542,1.3354 -1.3542 2.2194h 3.1974 c 0.6395,-0.0000 0.9780,-0.3197 1.2413 -1.3542l 0.4702,0.0752 l -0.3762,2.3698 h -5.8117 c 0.0000,-1.0533 0.1693,-1.8620 1.9184 -3.6488l 1.3166,-1.2978 c 1.0533,-1.0721 1.4859,-1.9937 1.4859 -3.1410c 0.0000,-1.7116 -1.1661,-2.2006 -1.8056 -2.2006c -1.2978,-0.0000 -1.6551,0.6771 -1.6551 1.1285c 0.0000,0.1505 0.0376,0.3009 0.0752 0.4326c 0.0376,0.1317 0.0752,0.2633 0.0752 0.4138c 0.0000,0.4890 -0.3762,0.6771 -0.6771 0.6771c -0.4138,-0.0000 -0.7147,-0.3197 -0.7147 -0.6959Z"/>
  </g>
  <g stroke-linejoin="miter" stroke-opacity="0.6" fill-opacity="0.0" stroke="rgb(0,0,0)" stroke-width="2.559227243377904" fill="rgb(0,0,0)" stroke-linecap="butt" stroke-miterlimit="10.0">
    <path d="M 252.6482,305.6707 v 8.5060 "/>
  </g>
  <g stroke-linejoin="miter" stroke-opacity="1.0" fill-opacity="0.6" stroke="rgb(0,0,0)" fill-rule="evenodd" stroke-width="0.0" fill="rgb(0,0,0)" stroke-linecap="butt" stroke-miterlimit="10.0">
    <path d="M 202.8675,335.2443 ZM 208.0210,330.8056 h -4.2507 c -0.1693,-0.0000 -0.2821,-0.1505 -0.2821 -0.3197c 0.0000,-0.3009 0.2445,-0.6959 0.4702 -0.6959h 4.3071 c 0.1881,-0.0000 0.2633,0.1693 0.2633 0.3385c 0.0000,0.2069 -0.2633,0.6771 -0.5078 0.6771ZM 209.1307,335.2443 ZM 213.1932,324.9562 c -0.4702,-0.0000 -1.8432,0.2633 -1.8432 1.4106c 0.0000,0.3385 -0.1317,0.9216 -0.6395 0.9216c -0.4890,-0.0000 -0.5266,-0.5454 -0.5266 -0.6019c 0.0000,-0.5831 0.7711,-2.3134 3.3855 -2.3134c 1.8244,-0.0000 2.3698,1.1473 2.3698 1.8996c 0.0000,0.4702 -0.1505,1.4106 -1.8432 2.4827c 1.0533,0.1693 2.4451,0.9404 2.4451 2.8965c 0.0000,2.4827 -1.8808,3.8181 -4.0062 3.8181c -1.0721,-0.0000 -2.5767,-0.4702 -2.5767 -1.1849c 0.0000,-0.2821 0.2821,-0.6019 0.6583 -0.6019c 0.3574,-0.0000 0.5266,0.1881 0.6959 0.4326c 0.2069,0.3197 0.5454,0.7711 1.4482 0.7711c 0.6207,-0.0000 2.3886,-0.6207 2.3886 -2.9905c 0.0000,-2.0125 -1.4106,-2.3322 -2.4263 -2.3322c -0.1693,-0.0000 -0.3762,0.0376 -0.5831 0.0752l -0.0752,-0.5642 c 1.4482,-0.2445 2.6520,-1.6551 2.6520 -2.5203c 0.0000,-1.0721 -0.7523,-1.5987 -1.5235 -1.5987Z"/>
  </g>
  <g stroke-linejoin="miter" stroke-opacity="0.6" fill-opacity="0.0" stroke="rgb(0,0,0)" stroke-width="2.559227243377904" fill="rgb(0,0,0)" stroke-linecap="butt" stroke-miterlimit="10.0">
    <path d="M 210.1181,305.6707 v 8.5060 "/>
  </g>
  <g stroke-linejoin="miter" stroke-opacity="1.0" fill-opacity="0.6" stroke="rgb(0,0,0)" fill-rule="evenodd" stroke-width="0.0" fill="rgb(0,0,0)" stroke-linecap="butt" stroke-miterlimit="10.0">
    <path d="M 160.3373,335.2443 ZM 165.4908,330.8056 h -4.2507 c -0.1693,-0.0000 -0.2821,-0.1505 -0.2821 -0.3197c 0.0000,-0.3009 0.2445,-0.6959 0.4702 -0.6959h 4.3071 c 0.1881,-0.0000 0.2633,0.1693 0.2633 0.3385c 0.0000,0.2069 -0.2633,0.6771 -0.5078 0.6771ZM 166.6005,335.2443 ZM 171.4530,328.5674 c 0.0000,-0.1317 0.0188,-0.2821 0.1881 -0.3762c 0.2069,-0.1505 0.5454,-0.3197 0.8276 -0.3197c 0.2445,-0.0000 0.2633,0.2069 0.2633 0.5831v 3.0281 h 1.5235 l -0.1128,0.8840 h -1.4106 v 1.5611 c 0.0000,0.5266 0.0752,0.7899 0.6207 0.7899h 0.5078 c 0.1128,-0.0000 0.1317,0.0940 0.1317 0.1317v 0.4138 c 0.0000,-0.0000 -1.2037,-0.0376 -1.9937 -0.0376c -0.7147,-0.0000 -1.8244,0.0376 -1.8244 0.0376v -0.4138 c 0.0000,-0.0376 0.0188,-0.1317 0.1317 -0.1317h 0.5078 c 0.5831,-0.0000 0.6395,-0.2445 0.6395 -0.7899v -1.5611 h -3.6864 c -0.0752,-0.0000 -0.1128,-0.0376 -0.1693 -0.1128l -0.1505,-0.2069 l -0.2257,-0.3950 c -0.0188,-0.0000 -0.0188,-0.0188 -0.0188 -0.0376c 0.0000,-0.0188 0.0188,-0.0376 0.0376 -0.0564c 1.2225,-1.3542 3.3855,-5.5484 4.0626 -7.0907c 0.0188,-0.0752 0.0564,-0.0940 0.1317 -0.0940c 0.0188,-0.0000 0.4326,0.1693 0.6583 0.2069c -0.8464,2.2758 -2.2382,4.7209 -3.6112 6.9026h 2.9717 v -2.9153 Z"/>
  </g>
  <g stroke-linejoin="miter" stroke-opacity="0.6" fill-opacity="0.0" stroke="rgb(0,0,0)" stroke-width="2.559227243377904" fill="rgb(0,0,0)" stroke-linecap="butt" stroke-miterlimit="10.0">
    <path d="M 167.5879,305.6707 v 8.5060 "/>
  </g>
  <g stroke-linejoin="miter" stroke-opacity="1.0" fill-opacity="0.6" stroke="rgb(0,0,0)" fill-rule="evenodd" stroke-width="0.0" fill="rgb(0,0,0)" stroke-linecap="butt" stroke-miterlimit="10.0">
    <path d="M 117.8072,335.2443 ZM 122.9607,330.8056 h -4.2507 c -0.1693,-0.0000 -0.2821,-0.1505 -0.2821 -0.3197c 0.0000,-0.3009 0.2445,-0.6959 0.4702 -0.6959h 4.3071 c 0.1881,-0.0000 0.2633,0.1693 0.2633 0.3385c 0.0000,0.2069 -0.2633,0.6771 -0.5078 0.6771ZM 124.0703,335.2443 ZM 129.8821,332.0657 c 0.0000,-1.9372 -1.0533,-2.8965 -2.2194 -2.8965c -0.8652,-0.0000 -1.5235,0.1317 -2.2570 0.4326l 0.6019,-5.1347 c 0.6207,0.0564 1.2602,0.0752 1.9184 0.0752c 0.9404,-0.0000 1.9184,-0.0564 2.9341 -0.1693l 0.1128,0.0564 l -0.2821,1.2225 c -0.7335,0.0752 -1.3354,0.0940 -1.8620 0.0940c -0.8464,-0.0000 -1.4859,-0.0752 -2.1441 -0.1505l -0.3574,2.9717 c 0.3950,-0.1505 1.0721,-0.2821 1.8056 -0.2821c 1.9937,-0.0000 3.1034,1.7304 3.1034 3.4607c 0.0000,2.1065 -1.4670,3.7240 -3.5924 3.7240c -1.0721,-0.0000 -2.6332,-0.6019 -2.6332 -1.3354c 0.0000,-0.3574 0.3009,-0.6019 0.6395 -0.6019c 0.3762,-0.0000 0.6207,0.2821 0.8464 0.5831c 0.2821,0.3385 0.5831,0.7147 1.1849 0.7147c 1.2037,-0.0000 2.2006,-1.1285 2.2006 -2.7648Z"/>
  </g>
  <g stroke-linejoin="miter" stroke-opacity="0.6" fill-opacity="0.0" stroke="rgb(0,0,0)" stroke-width="2.559227243377904" fill="rgb(0,0,0)" stroke-linecap="butt" stroke-miterlimit="10.0">
    <path d="M 125.0578,305.6707 v 8.5060 "/>
  </g>
  <g stroke-linejoin="miter" stroke-opacity="0.0" fill-opacity="0.0" stroke="rgb(0,0,0)" stroke-width="0.0" fill="rgb(0,0,0)" stroke-linecap="butt" stroke-miterlimit="10.0">
    <path d="M 550.3593,294.3293 l -0.0000,-113.4138 h -425.3016 l -0.0000,113.4138 Z"/>
  </g>
  <g stroke-linejoin="miter" stroke-opacity="0.0" fill-opacity="0.8" stroke="rgb(0,0,0)" stroke-width="2.559227243377904" fill="rgb(224,135,59)" stroke-linecap="butt" stroke-miterlimit="10.0">
    <path d="M 550.3593,451.1071 l -0.0000,-0.0000 h -8.5060 l -0.0000,0.0000 Z"/>
  </g>
  <g stroke-linejoin="miter" stroke-opacity="0.0" fill-opacity="0.8" stroke="rgb(0,0,0)" stroke-width="2.559227243377904" fill="rgb(224,135,59)" stroke-linecap="butt" stroke-miterlimit="10.0">
    <path d="M 541.8533,451.1071 l -0.0000,1.6678 h -8.5060 l -0.0000,-1.6678 Z"/>
  </g>
  <g stroke-linejoin="miter" stroke-opacity="0.0" fill-opacity="0.8" stroke="rgb(0,0,0)" stroke-width="2.559227243377904" fill="rgb(224,135,59)" stroke-linecap="butt" stroke-miterlimit="10.0">
    <path d="M 533.3473,451.1071 l -0.0000,-0.0000 h -8.5060 l -0.0000,0.0000 Z"/>
  </g>
  <g stroke-linejoin="miter" stroke-opacity="0.0" fill-opacity="0.8" stroke="rgb(0,0,0)" stroke-width="2.559227243377904" fill="rgb(224,135,59)" stroke-linecap="butt" stroke-miterlimit="10.0">
    <path d="M 524.8412,451.1071 l -0.0000,3.3357 h -8.5060 l -0.0000,-3.3357 Z"/>
  </g>
  <g stroke-linejoin="miter" stroke-opacity="0.0" fill-opacity="0.8" stroke="rgb(0,0,0)" stroke-width="2.559227243377904" fill="rgb(224,135,59)" stroke-linecap="butt" stroke-miterlimit="10.0">
    <path d="M 516.3352,451.1071 l -0.0000,5.0035 h -8.5060 l -0.0000,-5.0035 Z"/>
  </g>
  <g stroke-linejoin="miter" stroke-opacity="0.0" fill-opacity="0.8" stroke="rgb(0,0,0)" stroke-width="2.559227243377904" fill="rgb(224,135,59)" stroke-linecap="butt" stroke-miterlimit="10.0">
    <path d="M 507.8292,451.1071 l -0.0000,6.6714 h -8.5060 l -0.0000,-6.6714 Z"/>
  </g>
  <g stroke-linejoin="miter" stroke-opacity="0.0" fill-opacity="0.8" stroke="rgb(0,0,0)" stroke-width="2.559227243377904" fill="rgb(224,135,59)" stroke-linecap="butt" stroke-miterlimit="10.0">
    <path d="M 499.3231,451.1071 l -0.0000,5.0035 h -8.5060 l -0.0000,-5.0035 Z"/>
  </g>
  <g stroke-linejoin="miter" stroke-opacity="0.0" fill-opacity="0.8" stroke="rgb(0,0,0)" stroke-width="2.559227243377904" fill="rgb(224,135,59)" stroke-linecap="butt" stroke-miterlimit="10.0">
    <path d="M 490.8171,451.1071 l -0.0000,3.3357 h -8.5060 l -0.0000,-3.3357 Z"/>
  </g>
  <g stroke-linejoin="miter" stroke-opacity="0.0" fill-opacity="0.8" stroke="rgb(0,0,0)" stroke-width="2.559227243377904" fill="rgb(224,135,59)" stroke-linecap="butt" stroke-miterlimit="10.0">
    <path d="M 482.3111,451.1071 l -0.0000,3.3357 h -8.5060 l -0.0000,-3.3357 Z"/>
  </g>
  <g stroke-linejoin="miter" stroke-opacity="0.0" fill-opacity="0.8" stroke="rgb(0,0,0)" stroke-width="2.559227243377904" fill="rgb(224,135,59)" stroke-linecap="butt" stroke-miterlimit="10.0">
    <path d="M 473.8051,451.1071 l -0.0000,5.0035 h -8.5060 l -0.0000,-5.0035 Z"/>
  </g>
  <g stroke-linejoin="miter" stroke-opacity="0.0" fill-opacity="0.8" stroke="rgb(0,0,0)" stroke-width="2.559227243377904" fill="rgb(224,135,59)" stroke-linecap="butt" stroke-miterlimit="10.0">
    <path d="M 465.2990,451.1071 l -0.0000,5.0035 h -8.5060 l -0.0000,-5.0035 Z"/>
  </g>
  <g stroke-linejoin="miter" stroke-opacity="0.0" fill-opacity="0.8" stroke="rgb(0,0,0)" stroke-width="2.559227243377904" fill="rgb(224,135,59)" stroke-linecap="butt" stroke-miterlimit="10.0">
    <path d="M 456.7930,451.1071 l -0.0000,15.0106 h -8.5060 l -0.0000,-15.0106 Z"/>
  </g>
  <g stroke-linejoin="miter" stroke-opacity="0.0" fill-opacity="0.8" stroke="rgb(0,0,0)" stroke-width="2.559227243377904" fill="rgb(224,135,59)" stroke-linecap="butt" stroke-miterlimit="10.0">
    <path d="M 448.2870,451.1071 l -0.0000,20.0142 h -8.5060 l -0.0000,-20.0142 Z"/>
  </g>
  <g stroke-linejoin="miter" stroke-opacity="0.0" fill-opacity="0.8" stroke="rgb(0,0,0)" stroke-width="2.559227243377904" fill="rgb(224,135,59)" stroke-linecap="butt" stroke-miterlimit="10.0">
    <path d="M 439.7809,451.1071 l -0.0000,10.0071 h -8.5060 l -0.0000,-10.0071 Z"/>
  </g>
  <g stroke-linejoin="miter" stroke-opacity="0.0" fill-opacity="0.8" stroke="rgb(0,0,0)" stroke-width="2.559227243377904" fill="rgb(224,135,59)" stroke-linecap="butt" stroke-miterlimit="10.0">
    <path d="M 431.2749,451.1071 l -0.0000,21.6820 h -8.5060 l -0.0000,-21.6820 Z"/>
  </g>
  <g stroke-linejoin="miter" stroke-opacity="0.0" fill-opacity="0.8" stroke="rgb(0,0,0)" stroke-width="2.559227243377904" fill="rgb(224,135,59)" stroke-linecap="butt" stroke-miterlimit="10.0">
    <path d="M 422.7689,451.1071 l -0.0000,16.6785 h -8.5060 l -0.0000,-16.6785 Z"/>
  </g>
  <g stroke-linejoin="miter" stroke-opacity="0.0" fill-opacity="0.8" stroke="rgb(0,0,0)" stroke-width="2.559227243377904" fill="rgb(224,135,59)" stroke-linecap="butt" stroke-miterlimit="10.0">
    <path d="M 414.2628,451.1071 l -0.0000,-8.3392 h -8.5060 l -0.0000,8.3392 Z"/>
  </g>
  <g stroke-linejoin="miter" stroke-opacity="0.0" fill-opacity="0.8" stroke="rgb(0,0,0)" stroke-width="2.559227243377904" fill="rgb(224,135,59)" stroke-linecap="butt" stroke-miterlimit="10.0">
    <path d="M 405.7568,451.1071 l -0.0000,11.6749 h -8.5060 l -0.0000,-11.6749 Z"/>
  </g>
  <g stroke-linejoin="miter" stroke-opacity="0.0" fill-opacity="0.8" stroke="rgb(0,0,0)" stroke-width="2.559227243377904" fill="rgb(224,135,59)" stroke-linecap="butt" stroke-miterlimit="10.0">
    <path d="M 397.2508,451.1071 l -0.0000,16.6785 h -8.5060 l -0.0000,-16.6785 Z"/>
  </g>
  <g stroke-linejoin="miter" stroke-opacity="0.0" fill-opacity="0.8" stroke="rgb(0,0,0)" stroke-width="2.559227243377904" fill="rgb(224,135,59)" stroke-linecap="butt" stroke-miterlimit="10.0">
    <path d="M 388.7447,451.1071 l -0.0000,-26.6856 h -8.5060 l -0.0000,26.6856 Z"/>
  </g>
  <g stroke-linejoin="miter" stroke-opacity="0.0" fill-opacity="0.8" stroke="rgb(0,0,0)" stroke-width="2.559227243377904" fill="rgb(224,135,59)" stroke-linecap="butt" stroke-miterlimit="10.0">
    <path d="M 380.2387,451.1071 l -0.0000,-18.3463 h -8.5060 l -0.0000,18.3463 Z"/>
  </g>
  <g stroke-linejoin="miter" stroke-opacity="0.0" fill-opacity="0.8" stroke="rgb(0,0,0)" stroke-width="2.559227243377904" fill="rgb(224,135,59)" stroke-linecap="butt" stroke-miterlimit="10.0">
    <path d="M 371.7327,451.1071 l -0.0000,-8.3392 h -8.5060 l -0.0000,8.3392 Z"/>
  </g>
  <g stroke-linejoin="miter" stroke-opacity="0.0" fill-opacity="0.8" stroke="rgb(0,0,0)" stroke-width="2.559227243377904" fill="rgb(224,135,59)" stroke-linecap="butt" stroke-miterlimit="10.0">
    <path d="M 363.2266,451.1071 l -0.0000,-36.6927 h -8.5060 l -0.0000,36.6927 Z"/>
  </g>
  <g stroke-linejoin="miter" stroke-opacity="0.0" fill-opacity="0.8" stroke="rgb(0,0,0)" stroke-width="2.559227243377904" fill="rgb(224,135,59)" stroke-linecap="butt" stroke-miterlimit="10.0">
    <path d="M 354.7206,451.1071 l -0.0000,-51.7033 h -8.5060 l -0.0000,51.7033 Z"/>
  </g>
  <g stroke-linejoin="miter" stroke-opacity="0.0" fill-opacity="0.8" stroke="rgb(0,0,0)" stroke-width="2.559227243377904" fill="rgb(224,135,59)" stroke-linecap="butt" stroke-miterlimit="10.0">
    <path d="M 346.2146,451.1071 l -0.0000,-71.7175 h -8.5060 l -0.0000,71.7175 Z"/>
  </g>
  <g stroke-linejoin="miter" stroke-opacity="0.0" fill-opacity="0.8" stroke="rgb(0,0,0)" stroke-width="2.559227243377904" fill="rgb(224,135,59)" stroke-linecap="butt" stroke-miterlimit="10.0">
    <path d="M 337.7086,451.1071 l -0.0000,-33.3570 h -8.5060 l -0.0000,33.3570 Z"/>
  </g>
  <g stroke-linejoin="miter" stroke-opacity="0.0" fill-opacity="0.8" stroke="rgb(0,0,0)" stroke-width="2.559227243377904" fill="rgb(224,135,59)" stroke-linecap="butt" stroke-miterlimit="10.0">
    <path d="M 329.2025,451.1071 l -0.0000,-18.3463 h -8.5060 l -0.0000,18.3463 Z"/>
  </g>
  <g stroke-linejoin="miter" stroke-opacity="0.0" fill-opacity="0.8" stroke="rgb(0,0,0)" stroke-width="2.559227243377904" fill="rgb(224,135,59)" stroke-linecap="butt" stroke-miterlimit="10.0">
    <path d="M 320.6965,451.1071 l -0.0000,-15.0106 h -8.5060 l -0.0000,15.0106 Z"/>
  </g>
  <g stroke-linejoin="miter" stroke-opacity="0.0" fill-opacity="0.8" stroke="rgb(0,0,0)" stroke-width="2.559227243377904" fill="rgb(224,135,59)" stroke-linecap="butt" stroke-miterlimit="10.0">
    <path d="M 312.1905,451.1071 l -0.0000,-40.0284 h -8.5060 l -0.0000,40.0284 Z"/>
  </g>
  <g stroke-linejoin="miter" stroke-opacity="0.0" fill-opacity="0.8" stroke="rgb(0,0,0)" stroke-width="2.559227243377904" fill="rgb(224,135,59)" stroke-linecap="butt" stroke-miterlimit="10.0">
    <path d="M 303.6844,451.1071 l -0.0000,-40.0284 h -8.5060 l -0.0000,40.0284 Z"/>
  </g>
  <g stroke-linejoin="miter" stroke-opacity="0.0" fill-opacity="0.8" stroke="rgb(0,0,0)" stroke-width="2.559227243377904" fill="rgb(224,135,59)" stroke-linecap="butt" stroke-miterlimit="10.0">
    <path d="M 295.1784,451.1071 l -0.0000,-8.3392 h -8.5060 l -0.0000,8.3392 Z"/>
  </g>
  <g stroke-linejoin="miter" stroke-opacity="0.0" fill-opacity="0.8" stroke="rgb(0,0,0)" stroke-width="2.559227243377904" fill="rgb(224,135,59)" stroke-linecap="butt" stroke-miterlimit="10.0">
    <path d="M 286.6724,451.1071 l -0.0000,6.6714 h -8.5060 l -0.0000,-6.6714 Z"/>
  </g>
  <g stroke-linejoin="miter" stroke-opacity="0.0" fill-opacity="0.8" stroke="rgb(0,0,0)" stroke-width="2.559227243377904" fill="rgb(224,135,59)" stroke-linecap="butt" stroke-miterlimit="10.0">
    <path d="M 278.1663,451.1071 l -0.0000,30.0213 h -8.5060 l -0.0000,-30.0213 Z"/>
  </g>
  <g stroke-linejoin="miter" stroke-opacity="0.0" fill-opacity="0.8" stroke="rgb(0,0,0)" stroke-width="2.559227243377904" fill="rgb(224,135,59)" stroke-linecap="butt" stroke-miterlimit="10.0">
    <path d="M 269.6603,451.1071 l -0.0000,28.3534 h -8.5060 l -0.0000,-28.3534 Z"/>
  </g>
  <g stroke-linejoin="miter" stroke-opacity="0.0" fill-opacity="0.8" stroke="rgb(0,0,0)" stroke-width="2.559227243377904" fill="rgb(224,135,59)" stroke-linecap="butt" stroke-miterlimit="10.0">
    <path d="M 261.1543,451.1071 l -0.0000,41.6962 h -8.5060 l -0.0000,-41.6962 Z"/>
  </g>
  <g stroke-linejoin="miter" stroke-opacity="0.0" fill-opacity="0.8" stroke="rgb(0,0,0)" stroke-width="2.559227243377904" fill="rgb(224,135,59)" stroke-linecap="butt" stroke-miterlimit="10.0">
    <path d="M 252.6482,451.1071 l -0.0000,11.6749 h -8.5060 l -0.0000,-11.6749 Z"/>
  </g>
  <g stroke-linejoin="miter" stroke-opacity="0.0" fill-opacity="0.8" stroke="rgb(0,0,0)" stroke-width="2.559227243377904" fill="rgb(224,135,59)" stroke-linecap="butt" stroke-miterlimit="10.0">
    <path d="M 244.1422,451.1071 l -0.0000,8.3392 h -8.5060 l -0.0000,-8.3392 Z"/>
  </g>
  <g stroke-linejoin="miter" stroke-opacity="0.0" fill-opacity="0.8" stroke="rgb(0,0,0)" stroke-width="2.559227243377904" fill="rgb(224,135,59)" stroke-linecap="butt" stroke-miterlimit="10.0">
    <path d="M 235.6362,451.1071 l -0.0000,10.0071 h -8.5060 l -0.0000,-10.0071 Z"/>
  </g>
  <g stroke-linejoin="miter" stroke-opacity="0.0" fill-opacity="0.8" stroke="rgb(0,0,0)" stroke-width="2.559227243377904" fill="rgb(224,135,59)" stroke-linecap="butt" stroke-miterlimit="10.0">
    <path d="M 227.1301,451.1071 l -0.0000,11.6749 h -8.5060 l -0.0000,-11.6749 Z"/>
  </g>
  <g stroke-linejoin="miter" stroke-opacity="0.0" fill-opacity="0.8" stroke="rgb(0,0,0)" stroke-width="2.559227243377904" fill="rgb(224,135,59)" stroke-linecap="butt" stroke-miterlimit="10.0">
    <path d="M 218.6241,451.1071 l -0.0000,21.6820 h -8.5060 l -0.0000,-21.6820 Z"/>
  </g>
  <g stroke-linejoin="miter" stroke-opacity="0.0" fill-opacity="0.8" stroke="rgb(0,0,0)" stroke-width="2.559227243377904" fill="rgb(224,135,59)" stroke-linecap="butt" stroke-miterlimit="10.0">
    <path d="M 210.1181,451.1071 l -0.0000,15.0106 h -8.5060 l -0.0000,-15.0106 Z"/>
  </g>
  <g stroke-linejoin="miter" stroke-opacity="0.0" fill-opacity="0.8" stroke="rgb(0,0,0)" stroke-width="2.559227243377904" fill="rgb(224,135,59)" stroke-linecap="butt" stroke-miterlimit="10.0">
    <path d="M 201.6121,451.1071 l -0.0000,13.3428 h -8.5060 l -0.0000,-13.3428 Z"/>
  </g>
  <g stroke-linejoin="miter" stroke-opacity="0.0" fill-opacity="0.8" stroke="rgb(0,0,0)" stroke-width="2.559227243377904" fill="rgb(224,135,59)" stroke-linecap="butt" stroke-miterlimit="10.0">
    <path d="M 193.1060,451.1071 l -0.0000,15.0106 h -8.5060 l -0.0000,-15.0106 Z"/>
  </g>
  <g stroke-linejoin="miter" stroke-opacity="0.0" fill-opacity="0.8" stroke="rgb(0,0,0)" stroke-width="2.559227243377904" fill="rgb(224,135,59)" stroke-linecap="butt" stroke-miterlimit="10.0">
    <path d="M 184.6000,451.1071 l -0.0000,6.6714 h -8.5060 l -0.0000,-6.6714 Z"/>
  </g>
  <g stroke-linejoin="miter" stroke-opacity="0.0" fill-opacity="0.8" stroke="rgb(0,0,0)" stroke-width="2.559227243377904" fill="rgb(224,135,59)" stroke-linecap="butt" stroke-miterlimit="10.0">
    <path d="M 176.0940,451.1071 l -0.0000,-0.0000 h -8.5060 l -0.0000,0.0000 Z"/>
  </g>
  <g stroke-linejoin="miter" stroke-opacity="0.0" fill-opacity="0.8" stroke="rgb(0,0,0)" stroke-width="2.559227243377904" fill="rgb(224,135,59)" stroke-linecap="butt" stroke-miterlimit="10.0">
    <path d="M 167.5879,451.1071 l -0.0000,1.6678 h -8.5060 l -0.0000,-1.6678 Z"/>
  </g>
  <g stroke-linejoin="miter" stroke-opacity="0.0" fill-opacity="0.8" stroke="rgb(0,0,0)" stroke-width="2.559227243377904" fill="rgb(224,135,59)" stroke-linecap="butt" stroke-miterlimit="10.0">
    <path d="M 159.0819,451.1071 l -0.0000,3.3357 h -8.5060 l -0.0000,-3.3357 Z"/>
  </g>
  <g stroke-linejoin="miter" stroke-opacity="0.0" fill-opacity="0.8" stroke="rgb(0,0,0)" stroke-width="2.559227243377904" fill="rgb(224,135,59)" stroke-linecap="butt" stroke-miterlimit="10.0">
    <path d="M 150.5759,451.1071 l -0.0000,-0.0000 h -8.5060 l -0.0000,0.0000 Z"/>
  </g>
  <g stroke-linejoin="miter" stroke-opacity="0.0" fill-opacity="0.8" stroke="rgb(0,0,0)" stroke-width="2.559227243377904" fill="rgb(224,135,59)" stroke-linecap="butt" stroke-miterlimit="10.0">
    <path d="M 142.0698,451.1071 l -0.0000,1.6678 h -8.5060 l -0.0000,-1.6678 Z"/>
  </g>
  <g stroke-linejoin="miter" stroke-opacity="0.0" fill-opacity="0.8" stroke="rgb(0,0,0)" stroke-width="2.559227243377904" fill="rgb(224,135,59)" stroke-linecap="butt" stroke-miterlimit="10.0">
    <path d="M 133.5638,451.1071 l -0.0000,-0.0000 h -8.5060 l -0.0000,0.0000 Z"/>
  </g>
  <g stroke-linejoin="miter" stroke-opacity="0.0" fill-opacity="0.8" stroke="rgb(0,0,0)" stroke-width="2.559227243377904" fill="rgb(224,135,59)" stroke-linecap="butt" stroke-miterlimit="10.0">
    <path d="M 550.3593,379.3896 l -0.0000,-0.0000 h -8.5060 l -0.0000,0.0000 Z"/>
  </g>
  <g stroke-linejoin="miter" stroke-opacity="0.0" fill-opacity="0.8" stroke="rgb(0,0,0)" stroke-width="2.559227243377904" fill="rgb(224,135,59)" stroke-linecap="butt" stroke-miterlimit="10.0">
    <path d="M 541.8533,379.3896 l -0.0000,-2.8353 h -8.5060 l -0.0000,2.8353 Z"/>
  </g>
  <g stroke-linejoin="miter" stroke-opacity="0.0" fill-opacity="0.8" stroke="rgb(0,0,0)" stroke-width="2.559227243377904" fill="rgb(224,135,59)" stroke-linecap="butt" stroke-miterlimit="10.0">
    <path d="M 533.3473,379.3896 l -0.0000,-0.0000 h -8.5060 l -0.0000,0.0000 Z"/>
  </g>
  <g stroke-linejoin="miter" stroke-opacity="0.0" fill-opacity="0.8" stroke="rgb(0,0,0)" stroke-width="2.559227243377904" fill="rgb(224,135,59)" stroke-linecap="butt" stroke-miterlimit="10.0">
    <path d="M 524.8412,379.3896 l -0.0000,-5.6707 h -8.5060 l -0.0000,5.6707 Z"/>
  </g>
  <g stroke-linejoin="miter" stroke-opacity="0.0" fill-opacity="0.8" stroke="rgb(0,0,0)" stroke-width="2.559227243377904" fill="rgb(224,135,59)" stroke-linecap="butt" stroke-miterlimit="10.0">
    <path d="M 516.3352,379.3896 l -0.0000,-8.5060 h -8.5060 l -0.0000,8.5060 Z"/>
  </g>
  <g stroke-linejoin="miter" stroke-opacity="0.0" fill-opacity="0.8" stroke="rgb(0,0,0)" stroke-width="2.559227243377904" fill="rgb(224,135,59)" stroke-linecap="butt" stroke-miterlimit="10.0">
    <path d="M 507.8292,379.3896 l -0.0000,-11.3414 h -8.5060 l -0.0000,11.3414 Z"/>
  </g>
  <g stroke-linejoin="miter" stroke-opacity="0.0" fill-opacity="0.8" stroke="rgb(0,0,0)" stroke-width="2.559227243377904" fill="rgb(224,135,59)" stroke-linecap="butt" stroke-miterlimit="10.0">
    <path d="M 499.3231,379.3896 l -0.0000,-8.5060 h -8.5060 l -0.0000,8.5060 Z"/>
  </g>
  <g stroke-linejoin="miter" stroke-opacity="0.0" fill-opacity="0.8" stroke="rgb(0,0,0)" stroke-width="2.559227243377904" fill="rgb(224,135,59)" stroke-linecap="butt" stroke-miterlimit="10.0">
    <path d="M 490.8171,379.3896 l -0.0000,-5.6707 h -8.5060 l -0.0000,5.6707 Z"/>
  </g>
  <g stroke-linejoin="miter" stroke-opacity="0.0" fill-opacity="0.8" stroke="rgb(0,0,0)" stroke-width="2.559227243377904" fill="rgb(224,135,59)" stroke-linecap="butt" stroke-miterlimit="10.0">
    <path d="M 482.3111,379.3896 l -0.0000,-5.6707 h -8.5060 l -0.0000,5.6707 Z"/>
  </g>
  <g stroke-linejoin="miter" stroke-opacity="0.0" fill-opacity="0.8" stroke="rgb(0,0,0)" stroke-width="2.559227243377904" fill="rgb(224,135,59)" stroke-linecap="butt" stroke-miterlimit="10.0">
    <path d="M 473.8051,379.3896 l -0.0000,-11.3414 h -8.5060 l -0.0000,11.3414 Z"/>
  </g>
  <g stroke-linejoin="miter" stroke-opacity="0.0" fill-opacity="0.8" stroke="rgb(0,0,0)" stroke-width="2.559227243377904" fill="rgb(224,135,59)" stroke-linecap="butt" stroke-miterlimit="10.0">
    <path d="M 465.2990,379.3896 l -0.0000,-11.3414 h -8.5060 l -0.0000,11.3414 Z"/>
  </g>
  <g stroke-linejoin="miter" stroke-opacity="0.0" fill-opacity="0.8" stroke="rgb(0,0,0)" stroke-width="2.559227243377904" fill="rgb(224,135,59)" stroke-linecap="butt" stroke-miterlimit="10.0">
    <path d="M 456.7930,379.3896 l -0.0000,-31.1888 h -8.5060 l -0.0000,31.1888 Z"/>
  </g>
  <g stroke-linejoin="miter" stroke-opacity="0.0" fill-opacity="0.8" stroke="rgb(0,0,0)" stroke-width="2.559227243377904" fill="rgb(224,135,59)" stroke-linecap="butt" stroke-miterlimit="10.0">
    <path d="M 448.2870,379.3896 l -0.0000,-39.6948 h -8.5060 l -0.0000,39.6948 Z"/>
  </g>
  <g stroke-linejoin="miter" stroke-opacity="0.0" fill-opacity="0.8" stroke="rgb(0,0,0)" stroke-width="2.559227243377904" fill="rgb(224,135,59)" stroke-linecap="butt" stroke-miterlimit="10.0">
    <path d="M 439.7809,379.3896 l -0.0000,-34.0241 h -8.5060 l -0.0000,34.0241 Z"/>
  </g>
  <g stroke-linejoin="miter" stroke-opacity="0.0" fill-opacity="0.8" stroke="rgb(0,0,0)" stroke-width="2.559227243377904" fill="rgb(224,135,59)" stroke-linecap="butt" stroke-miterlimit="10.0">
    <path d="M 431.2749,379.3896 l -0.0000,-59.5422 h -8.5060 l -0.0000,59.5422 Z"/>
  </g>
  <g stroke-linejoin="miter" stroke-opacity="0.0" fill-opacity="0.8" stroke="rgb(0,0,0)" stroke-width="2.559227243377904" fill="rgb(224,135,59)" stroke-linecap="butt" stroke-miterlimit="10.0">
    <path d="M 422.7689,379.3896 l -0.0000,-76.5543 h -8.5060 l -0.0000,76.5543 Z"/>
  </g>
  <g stroke-linejoin="miter" stroke-opacity="0.0" fill-opacity="0.8" stroke="rgb(0,0,0)" stroke-width="2.559227243377904" fill="rgb(224,135,59)" stroke-linecap="butt" stroke-miterlimit="10.0">
    <path d="M 414.2628,379.3896 l -0.0000,-53.8715 h -8.5060 l -0.0000,53.8715 Z"/>
  </g>
  <g stroke-linejoin="miter" stroke-opacity="0.0" fill-opacity="0.8" stroke="rgb(0,0,0)" stroke-width="2.559227243377904" fill="rgb(224,135,59)" stroke-linecap="butt" stroke-miterlimit="10.0">
    <path d="M 405.7568,379.3896 l -0.0000,-96.4017 h -8.5060 l -0.0000,96.4017 Z"/>
  </g>
  <g stroke-linejoin="miter" stroke-opacity="0.0" fill-opacity="0.8" stroke="rgb(0,0,0)" stroke-width="2.559227243377904" fill="rgb(224,135,59)" stroke-linecap="butt" stroke-miterlimit="10.0">
    <path d="M 397.2508,379.3896 l -0.0000,-113.4138 h -8.5060 l -0.0000,113.4138 Z"/>
  </g>
  <g stroke-linejoin="miter" stroke-opacity="0.0" fill-opacity="0.8" stroke="rgb(0,0,0)" stroke-width="2.559227243377904" fill="rgb(224,135,59)" stroke-linecap="butt" stroke-miterlimit="10.0">
    <path d="M 388.7447,379.3896 l -0.0000,-107.7431 h -8.5060 l -0.0000,107.7431 Z"/>
  </g>
  <g stroke-linejoin="miter" stroke-opacity="0.0" fill-opacity="0.8" stroke="rgb(0,0,0)" stroke-width="2.559227243377904" fill="rgb(224,135,59)" stroke-linecap="butt" stroke-miterlimit="10.0">
    <path d="M 380.2387,379.3896 l -0.0000,-121.9198 h -8.5060 l -0.0000,121.9198 Z"/>
  </g>
  <g stroke-linejoin="miter" stroke-opacity="0.0" fill-opacity="0.8" stroke="rgb(0,0,0)" stroke-width="2.559227243377904" fill="rgb(224,135,59)" stroke-linecap="butt" stroke-miterlimit="10.0">
    <path d="M 371.7327,379.3896 l -0.0000,-144.6025 h -8.5060 l -0.0000,144.6025 Z"/>
  </g>
  <g stroke-linejoin="miter" stroke-opacity="0.0" fill-opacity="0.8" stroke="rgb(0,0,0)" stroke-width="2.559227243377904" fill="rgb(224,135,59)" stroke-linecap="butt" stroke-miterlimit="10.0">
    <path d="M 363.2266,379.3896 l -0.0000,-119.0844 h -8.5060 l -0.0000,119.0844 Z"/>
  </g>
  <g stroke-linejoin="miter" stroke-opacity="0.0" fill-opacity="0.8" stroke="rgb(0,0,0)" stroke-width="2.559227243377904" fill="rgb(224,135,59)" stroke-linecap="butt" stroke-miterlimit="10.0">
    <path d="M 354.7206,379.3896 l -0.0000,-127.5905 h -8.5060 l -0.0000,127.5905 Z"/>
  </g>
  <g stroke-linejoin="miter" stroke-opacity="0.0" fill-opacity="0.8" stroke="rgb(0,0,0)" stroke-width="2.559227243377904" fill="rgb(224,135,59)" stroke-linecap="butt" stroke-miterlimit="10.0">
    <path d="M 346.2146,379.3896 l -0.0000,-161.6146 h -8.5060 l -0.0000,161.6146 Z"/>
  </g>
  <g stroke-linejoin="miter" stroke-opacity="0.0" fill-opacity="0.8" stroke="rgb(0,0,0)" stroke-width="2.559227243377904" fill="rgb(224,135,59)" stroke-linecap="butt" stroke-miterlimit="10.0">
    <path d="M 337.7086,379.3896 l -0.0000,-158.7793 h -8.5060 l -0.0000,158.7793 Z"/>
  </g>
  <g stroke-linejoin="miter" stroke-opacity="0.0" fill-opacity="0.8" stroke="rgb(0,0,0)" stroke-width="2.559227243377904" fill="rgb(224,135,59)" stroke-linecap="butt" stroke-miterlimit="10.0">
    <path d="M 329.2025,379.3896 l -0.0000,-164.4499 h -8.5060 l -0.0000,164.4499 Z"/>
  </g>
  <g stroke-linejoin="miter" stroke-opacity="0.0" fill-opacity="0.8" stroke="rgb(0,0,0)" stroke-width="2.559227243377904" fill="rgb(224,135,59)" stroke-linecap="butt" stroke-miterlimit="10.0">
    <path d="M 320.6965,379.3896 l -0.0000,-144.6025 h -8.5060 l -0.0000,144.6025 Z"/>
  </g>
  <g stroke-linejoin="miter" stroke-opacity="0.0" fill-opacity="0.8" stroke="rgb(0,0,0)" stroke-width="2.559227243377904" fill="rgb(224,135,59)" stroke-linecap="butt" stroke-miterlimit="10.0">
    <path d="M 312.1905,379.3896 l -0.0000,-110.5784 h -8.5060 l -0.0000,110.5784 Z"/>
  </g>
  <g stroke-linejoin="miter" stroke-opacity="0.0" fill-opacity="0.8" stroke="rgb(0,0,0)" stroke-width="2.559227243377904" fill="rgb(224,135,59)" stroke-linecap="butt" stroke-miterlimit="10.0">
    <path d="M 303.6844,379.3896 l -0.0000,-107.7431 h -8.5060 l -0.0000,107.7431 Z"/>
  </g>
  <g stroke-linejoin="miter" stroke-opacity="0.0" fill-opacity="0.8" stroke="rgb(0,0,0)" stroke-width="2.559227243377904" fill="rgb(224,135,59)" stroke-linecap="butt" stroke-miterlimit="10.0">
    <path d="M 295.1784,379.3896 l -0.0000,-99.2370 h -8.5060 l -0.0000,99.2370 Z"/>
  </g>
  <g stroke-linejoin="miter" stroke-opacity="0.0" fill-opacity="0.8" stroke="rgb(0,0,0)" stroke-width="2.559227243377904" fill="rgb(224,135,59)" stroke-linecap="butt" stroke-miterlimit="10.0">
    <path d="M 286.6724,379.3896 l -0.0000,-99.2370 h -8.5060 l -0.0000,99.2370 Z"/>
  </g>
  <g stroke-linejoin="miter" stroke-opacity="0.0" fill-opacity="0.8" stroke="rgb(0,0,0)" stroke-width="2.559227243377904" fill="rgb(224,135,59)" stroke-linecap="butt" stroke-miterlimit="10.0">
    <path d="M 278.1663,379.3896 l -0.0000,-116.2491 h -8.5060 l -0.0000,116.2491 Z"/>
  </g>
  <g stroke-linejoin="miter" stroke-opacity="0.0" fill-opacity="0.8" stroke="rgb(0,0,0)" stroke-width="2.559227243377904" fill="rgb(224,135,59)" stroke-linecap="butt" stroke-miterlimit="10.0">
    <path d="M 269.6603,379.3896 l -0.0000,-90.7310 h -8.5060 l -0.0000,90.7310 Z"/>
  </g>
  <g stroke-linejoin="miter" stroke-opacity="0.0" fill-opacity="0.8" stroke="rgb(0,0,0)" stroke-width="2.559227243377904" fill="rgb(224,135,59)" stroke-linecap="butt" stroke-miterlimit="10.0">
    <path d="M 261.1543,379.3896 l -0.0000,-99.2370 h -8.5060 l -0.0000,99.2370 Z"/>
  </g>
  <g stroke-linejoin="miter" stroke-opacity="0.0" fill-opacity="0.8" stroke="rgb(0,0,0)" stroke-width="2.559227243377904" fill="rgb(224,135,59)" stroke-linecap="butt" stroke-miterlimit="10.0">
    <path d="M 252.6482,379.3896 l -0.0000,-56.7069 h -8.5060 l -0.0000,56.7069 Z"/>
  </g>
  <g stroke-linejoin="miter" stroke-opacity="0.0" fill-opacity="0.8" stroke="rgb(0,0,0)" stroke-width="2.559227243377904" fill="rgb(224,135,59)" stroke-linecap="butt" stroke-miterlimit="10.0">
    <path d="M 244.1422,379.3896 l -0.0000,-31.1888 h -8.5060 l -0.0000,31.1888 Z"/>
  </g>
  <g stroke-linejoin="miter" stroke-opacity="0.0" fill-opacity="0.8" stroke="rgb(0,0,0)" stroke-width="2.559227243377904" fill="rgb(224,135,59)" stroke-linecap="butt" stroke-miterlimit="10.0">
    <path d="M 235.6362,379.3896 l -0.0000,-34.0241 h -8.5060 l -0.0000,34.0241 Z"/>
  </g>
  <g stroke-linejoin="miter" stroke-opacity="0.0" fill-opacity="0.8" stroke="rgb(0,0,0)" stroke-width="2.559227243377904" fill="rgb(224,135,59)" stroke-linecap="butt" stroke-miterlimit="10.0">
    <path d="M 227.1301,379.3896 l -0.0000,-28.3534 h -8.5060 l -0.0000,28.3534 Z"/>
  </g>
  <g stroke-linejoin="miter" stroke-opacity="0.0" fill-opacity="0.8" stroke="rgb(0,0,0)" stroke-width="2.559227243377904" fill="rgb(224,135,59)" stroke-linecap="butt" stroke-miterlimit="10.0">
    <path d="M 218.6241,379.3896 l -0.0000,-36.8595 h -8.5060 l -0.0000,36.8595 Z"/>
  </g>
  <g stroke-linejoin="miter" stroke-opacity="0.0" fill-opacity="0.8" stroke="rgb(0,0,0)" stroke-width="2.559227243377904" fill="rgb(224,135,59)" stroke-linecap="butt" stroke-miterlimit="10.0">
    <path d="M 210.1181,379.3896 l -0.0000,-25.5181 h -8.5060 l -0.0000,25.5181 Z"/>
  </g>
  <g stroke-linejoin="miter" stroke-opacity="0.0" fill-opacity="0.8" stroke="rgb(0,0,0)" stroke-width="2.559227243377904" fill="rgb(224,135,59)" stroke-linecap="butt" stroke-miterlimit="10.0">
    <path d="M 201.6121,379.3896 l -0.0000,-22.6828 h -8.5060 l -0.0000,22.6828 Z"/>
  </g>
  <g stroke-linejoin="miter" stroke-opacity="0.0" fill-opacity="0.8" stroke="rgb(0,0,0)" stroke-width="2.559227243377904" fill="rgb(224,135,59)" stroke-linecap="butt" stroke-miterlimit="10.0">
    <path d="M 193.1060,379.3896 l -0.0000,-25.5181 h -8.5060 l -0.0000,25.5181 Z"/>
  </g>
  <g stroke-linejoin="miter" stroke-opacity="0.0" fill-opacity="0.8" stroke="rgb(0,0,0)" stroke-width="2.559227243377904" fill="rgb(224,135,59)" stroke-linecap="butt" stroke-miterlimit="10.0">
    <path d="M 184.6000,379.3896 l -0.0000,-11.3414 h -8.5060 l -0.0000,11.3414 Z"/>
  </g>
  <g stroke-linejoin="miter" stroke-opacity="0.0" fill-opacity="0.8" stroke="rgb(0,0,0)" stroke-width="2.559227243377904" fill="rgb(224,135,59)" stroke-linecap="butt" stroke-miterlimit="10.0">
    <path d="M 176.0940,379.3896 l -0.0000,-2.8353 h -8.5060 l -0.0000,2.8353 Z"/>
  </g>
  <g stroke-linejoin="miter" stroke-opacity="0.0" fill-opacity="0.8" stroke="rgb(0,0,0)" stroke-width="2.559227243377904" fill="rgb(224,135,59)" stroke-linecap="butt" stroke-miterlimit="10.0">
    <path d="M 167.5879,379.3896 l -0.0000,-2.8353 h -8.5060 l -0.0000,2.8353 Z"/>
  </g>
  <g stroke-linejoin="miter" stroke-opacity="0.0" fill-opacity="0.8" stroke="rgb(0,0,0)" stroke-width="2.559227243377904" fill="rgb(224,135,59)" stroke-linecap="butt" stroke-miterlimit="10.0">
    <path d="M 159.0819,379.3896 l -0.0000,-5.6707 h -8.5060 l -0.0000,5.6707 Z"/>
  </g>
  <g stroke-linejoin="miter" stroke-opacity="0.0" fill-opacity="0.8" stroke="rgb(0,0,0)" stroke-width="2.559227243377904" fill="rgb(224,135,59)" stroke-linecap="butt" stroke-miterlimit="10.0">
    <path d="M 150.5759,379.3896 l -0.0000,-0.0000 h -8.5060 l -0.0000,0.0000 Z"/>
  </g>
  <g stroke-linejoin="miter" stroke-opacity="0.0" fill-opacity="0.8" stroke="rgb(0,0,0)" stroke-width="2.559227243377904" fill="rgb(224,135,59)" stroke-linecap="butt" stroke-miterlimit="10.0">
    <path d="M 142.0698,379.3896 l -0.0000,-2.8353 h -8.5060 l -0.0000,2.8353 Z"/>
  </g>
  <g stroke-linejoin="miter" stroke-opacity="0.0" fill-opacity="0.8" stroke="rgb(0,0,0)" stroke-width="2.559227243377904" fill="rgb(224,135,59)" stroke-linecap="butt" stroke-miterlimit="10.0">
    <path d="M 133.5638,379.3896 l -0.0000,-0.0000 h -8.5060 l -0.0000,0.0000 Z"/>
  </g>
  <g stroke-linejoin="miter" stroke-opacity="0.0" fill-opacity="0.2" stroke="rgb(0,0,0)" stroke-width="2.559227243377904" fill="rgb(93,165,218)" stroke-linecap="butt" stroke-miterlimit="10.0">
    <path d="M 550.3593,379.3896 l -0.0000,-0.0000 h -8.5060 l -0.0000,0.0000 Z"/>
  </g>
  <g stroke-linejoin="miter" stroke-opacity="0.0" fill-opacity="0.2" stroke="rgb(0,0,0)" stroke-width="2.559227243377904" fill="rgb(93,165,218)" stroke-linecap="butt" stroke-miterlimit="10.0">
    <path d="M 541.8533,379.3896 l -0.0000,-0.0000 h -8.5060 l -0.0000,0.0000 Z"/>
  </g>
  <g stroke-linejoin="miter" stroke-opacity="0.0" fill-opacity="0.2" stroke="rgb(0,0,0)" stroke-width="2.559227243377904" fill="rgb(93,165,218)" stroke-linecap="butt" stroke-miterlimit="10.0">
    <path d="M 533.3473,379.3896 l -0.0000,-0.0000 h -8.5060 l -0.0000,0.0000 Z"/>
  </g>
  <g stroke-linejoin="miter" stroke-opacity="0.0" fill-opacity="0.2" stroke="rgb(0,0,0)" stroke-width="2.559227243377904" fill="rgb(93,165,218)" stroke-linecap="butt" stroke-miterlimit="10.0">
    <path d="M 524.8412,379.3896 l -0.0000,-0.0000 h -8.5060 l -0.0000,0.0000 Z"/>
  </g>
  <g stroke-linejoin="miter" stroke-opacity="0.0" fill-opacity="0.2" stroke="rgb(0,0,0)" stroke-width="2.559227243377904" fill="rgb(93,165,218)" stroke-linecap="butt" stroke-miterlimit="10.0">
    <path d="M 516.3352,379.3896 l -0.0000,-0.0000 h -8.5060 l -0.0000,0.0000 Z"/>
  </g>
  <g stroke-linejoin="miter" stroke-opacity="0.0" fill-opacity="0.2" stroke="rgb(0,0,0)" stroke-width="2.559227243377904" fill="rgb(93,165,218)" stroke-linecap="butt" stroke-miterlimit="10.0">
    <path d="M 507.8292,379.3896 l -0.0000,-0.0000 h -8.5060 l -0.0000,0.0000 Z"/>
  </g>
  <g stroke-linejoin="miter" stroke-opacity="0.0" fill-opacity="0.2" stroke="rgb(0,0,0)" stroke-width="2.559227243377904" fill="rgb(93,165,218)" stroke-linecap="butt" stroke-miterlimit="10.0">
    <path d="M 499.3231,379.3896 l -0.0000,-0.0000 h -8.5060 l -0.0000,0.0000 Z"/>
  </g>
  <g stroke-linejoin="miter" stroke-opacity="0.0" fill-opacity="0.2" stroke="rgb(0,0,0)" stroke-width="2.559227243377904" fill="rgb(93,165,218)" stroke-linecap="butt" stroke-miterlimit="10.0">
    <path d="M 490.8171,379.3896 l -0.0000,-0.0000 h -8.5060 l -0.0000,0.0000 Z"/>
  </g>
  <g stroke-linejoin="miter" stroke-opacity="0.0" fill-opacity="0.2" stroke="rgb(0,0,0)" stroke-width="2.559227243377904" fill="rgb(93,165,218)" stroke-linecap="butt" stroke-miterlimit="10.0">
    <path d="M 482.3111,379.3896 l -0.0000,-0.0000 h -8.5060 l -0.0000,0.0000 Z"/>
  </g>
  <g stroke-linejoin="miter" stroke-opacity="0.0" fill-opacity="0.2" stroke="rgb(0,0,0)" stroke-width="2.559227243377904" fill="rgb(93,165,218)" stroke-linecap="butt" stroke-miterlimit="10.0">
    <path d="M 473.8051,379.3896 l -0.0000,-2.8353 h -8.5060 l -0.0000,2.8353 Z"/>
  </g>
  <g stroke-linejoin="miter" stroke-opacity="0.0" fill-opacity="0.2" stroke="rgb(0,0,0)" stroke-width="2.559227243377904" fill="rgb(93,165,218)" stroke-linecap="butt" stroke-miterlimit="10.0">
    <path d="M 465.2990,379.3896 l -0.0000,-2.8353 h -8.5060 l -0.0000,2.8353 Z"/>
  </g>
  <g stroke-linejoin="miter" stroke-opacity="0.0" fill-opacity="0.2" stroke="rgb(0,0,0)" stroke-width="2.559227243377904" fill="rgb(93,165,218)" stroke-linecap="butt" stroke-miterlimit="10.0">
    <path d="M 456.7930,379.3896 l -0.0000,-5.6707 h -8.5060 l -0.0000,5.6707 Z"/>
  </g>
  <g stroke-linejoin="miter" stroke-opacity="0.0" fill-opacity="0.2" stroke="rgb(0,0,0)" stroke-width="2.559227243377904" fill="rgb(93,165,218)" stroke-linecap="butt" stroke-miterlimit="10.0">
    <path d="M 448.2870,379.3896 l -0.0000,-5.6707 h -8.5060 l -0.0000,5.6707 Z"/>
  </g>
  <g stroke-linejoin="miter" stroke-opacity="0.0" fill-opacity="0.2" stroke="rgb(0,0,0)" stroke-width="2.559227243377904" fill="rgb(93,165,218)" stroke-linecap="butt" stroke-miterlimit="10.0">
    <path d="M 439.7809,379.3896 l -0.0000,-17.0121 h -8.5060 l -0.0000,17.0121 Z"/>
  </g>
  <g stroke-linejoin="miter" stroke-opacity="0.0" fill-opacity="0.2" stroke="rgb(0,0,0)" stroke-width="2.559227243377904" fill="rgb(93,165,218)" stroke-linecap="butt" stroke-miterlimit="10.0">
    <path d="M 431.2749,379.3896 l -0.0000,-22.6828 h -8.5060 l -0.0000,22.6828 Z"/>
  </g>
  <g stroke-linejoin="miter" stroke-opacity="0.0" fill-opacity="0.2" stroke="rgb(0,0,0)" stroke-width="2.559227243377904" fill="rgb(93,165,218)" stroke-linecap="butt" stroke-miterlimit="10.0">
    <path d="M 422.7689,379.3896 l -0.0000,-48.2008 h -8.5060 l -0.0000,48.2008 Z"/>
  </g>
  <g stroke-linejoin="miter" stroke-opacity="0.0" fill-opacity="0.2" stroke="rgb(0,0,0)" stroke-width="2.559227243377904" fill="rgb(93,165,218)" stroke-linecap="butt" stroke-miterlimit="10.0">
    <path d="M 414.2628,379.3896 l -0.0000,-68.0483 h -8.5060 l -0.0000,68.0483 Z"/>
  </g>
  <g stroke-linejoin="miter" stroke-opacity="0.0" fill-opacity="0.2" stroke="rgb(0,0,0)" stroke-width="2.559227243377904" fill="rgb(93,165,218)" stroke-linecap="butt" stroke-miterlimit="10.0">
    <path d="M 405.7568,379.3896 l -0.0000,-76.5543 h -8.5060 l -0.0000,76.5543 Z"/>
  </g>
  <g stroke-linejoin="miter" stroke-opacity="0.0" fill-opacity="0.2" stroke="rgb(0,0,0)" stroke-width="2.559227243377904" fill="rgb(93,165,218)" stroke-linecap="butt" stroke-miterlimit="10.0">
    <path d="M 397.2508,379.3896 l -0.0000,-85.0603 h -8.5060 l -0.0000,85.0603 Z"/>
  </g>
  <g stroke-linejoin="miter" stroke-opacity="0.0" fill-opacity="0.2" stroke="rgb(0,0,0)" stroke-width="2.559227243377904" fill="rgb(93,165,218)" stroke-linecap="butt" stroke-miterlimit="10.0">
    <path d="M 388.7447,379.3896 l -0.0000,-153.1086 h -8.5060 l -0.0000,153.1086 Z"/>
  </g>
  <g stroke-linejoin="miter" stroke-opacity="0.0" fill-opacity="0.2" stroke="rgb(0,0,0)" stroke-width="2.559227243377904" fill="rgb(93,165,218)" stroke-linecap="butt" stroke-miterlimit="10.0">
    <path d="M 380.2387,379.3896 l -0.0000,-153.1086 h -8.5060 l -0.0000,153.1086 Z"/>
  </g>
  <g stroke-linejoin="miter" stroke-opacity="0.0" fill-opacity="0.2" stroke="rgb(0,0,0)" stroke-width="2.559227243377904" fill="rgb(93,165,218)" stroke-linecap="butt" stroke-miterlimit="10.0">
    <path d="M 371.7327,379.3896 l -0.0000,-158.7793 h -8.5060 l -0.0000,158.7793 Z"/>
  </g>
  <g stroke-linejoin="miter" stroke-opacity="0.0" fill-opacity="0.2" stroke="rgb(0,0,0)" stroke-width="2.559227243377904" fill="rgb(93,165,218)" stroke-linecap="butt" stroke-miterlimit="10.0">
    <path d="M 363.2266,379.3896 l -0.0000,-181.4620 h -8.5060 l -0.0000,181.4620 Z"/>
  </g>
  <g stroke-linejoin="miter" stroke-opacity="0.0" fill-opacity="0.2" stroke="rgb(0,0,0)" stroke-width="2.559227243377904" fill="rgb(93,165,218)" stroke-linecap="butt" stroke-miterlimit="10.0">
    <path d="M 354.7206,379.3896 l -0.0000,-215.4861 h -8.5060 l -0.0000,215.4861 Z"/>
  </g>
  <g stroke-linejoin="miter" stroke-opacity="0.0" fill-opacity="0.2" stroke="rgb(0,0,0)" stroke-width="2.559227243377904" fill="rgb(93,165,218)" stroke-linecap="butt" stroke-miterlimit="10.0">
    <path d="M 346.2146,379.3896 l -0.0000,-283.5344 h -8.5060 l -0.0000,283.5344 Z"/>
  </g>
  <g stroke-linejoin="miter" stroke-opacity="0.0" fill-opacity="0.2" stroke="rgb(0,0,0)" stroke-width="2.559227243377904" fill="rgb(93,165,218)" stroke-linecap="butt" stroke-miterlimit="10.0">
    <path d="M 337.7086,379.3896 l -0.0000,-215.4861 h -8.5060 l -0.0000,215.4861 Z"/>
  </g>
  <g stroke-linejoin="miter" stroke-opacity="0.0" fill-opacity="0.2" stroke="rgb(0,0,0)" stroke-width="2.559227243377904" fill="rgb(93,165,218)" stroke-linecap="butt" stroke-miterlimit="10.0">
    <path d="M 329.2025,379.3896 l -0.0000,-195.6387 h -8.5060 l -0.0000,195.6387 Z"/>
  </g>
  <g stroke-linejoin="miter" stroke-opacity="0.0" fill-opacity="0.2" stroke="rgb(0,0,0)" stroke-width="2.559227243377904" fill="rgb(93,165,218)" stroke-linecap="butt" stroke-miterlimit="10.0">
    <path d="M 320.6965,379.3896 l -0.0000,-170.1206 h -8.5060 l -0.0000,170.1206 Z"/>
  </g>
  <g stroke-linejoin="miter" stroke-opacity="0.0" fill-opacity="0.2" stroke="rgb(0,0,0)" stroke-width="2.559227243377904" fill="rgb(93,165,218)" stroke-linecap="butt" stroke-miterlimit="10.0">
    <path d="M 312.1905,379.3896 l -0.0000,-178.6267 h -8.5060 l -0.0000,178.6267 Z"/>
  </g>
  <g stroke-linejoin="miter" stroke-opacity="0.0" fill-opacity="0.2" stroke="rgb(0,0,0)" stroke-width="2.559227243377904" fill="rgb(93,165,218)" stroke-linecap="butt" stroke-miterlimit="10.0">
    <path d="M 303.6844,379.3896 l -0.0000,-175.7913 h -8.5060 l -0.0000,175.7913 Z"/>
  </g>
  <g stroke-linejoin="miter" stroke-opacity="0.0" fill-opacity="0.2" stroke="rgb(0,0,0)" stroke-width="2.559227243377904" fill="rgb(93,165,218)" stroke-linecap="butt" stroke-miterlimit="10.0">
    <path d="M 295.1784,379.3896 l -0.0000,-113.4138 h -8.5060 l -0.0000,113.4138 Z"/>
  </g>
  <g stroke-linejoin="miter" stroke-opacity="0.0" fill-opacity="0.2" stroke="rgb(0,0,0)" stroke-width="2.559227243377904" fill="rgb(93,165,218)" stroke-linecap="butt" stroke-miterlimit="10.0">
    <path d="M 286.6724,379.3896 l -0.0000,-87.8957 h -8.5060 l -0.0000,87.8957 Z"/>
  </g>
  <g stroke-linejoin="miter" stroke-opacity="0.0" fill-opacity="0.2" stroke="rgb(0,0,0)" stroke-width="2.559227243377904" fill="rgb(93,165,218)" stroke-linecap="butt" stroke-miterlimit="10.0">
    <path d="M 278.1663,379.3896 l -0.0000,-65.2129 h -8.5060 l -0.0000,65.2129 Z"/>
  </g>
  <g stroke-linejoin="miter" stroke-opacity="0.0" fill-opacity="0.2" stroke="rgb(0,0,0)" stroke-width="2.559227243377904" fill="rgb(93,165,218)" stroke-linecap="butt" stroke-miterlimit="10.0">
    <path d="M 269.6603,379.3896 l -0.0000,-42.5302 h -8.5060 l -0.0000,42.5302 Z"/>
  </g>
  <g stroke-linejoin="miter" stroke-opacity="0.0" fill-opacity="0.2" stroke="rgb(0,0,0)" stroke-width="2.559227243377904" fill="rgb(93,165,218)" stroke-linecap="butt" stroke-miterlimit="10.0">
    <path d="M 261.1543,379.3896 l -0.0000,-28.3534 h -8.5060 l -0.0000,28.3534 Z"/>
  </g>
  <g stroke-linejoin="miter" stroke-opacity="0.0" fill-opacity="0.2" stroke="rgb(0,0,0)" stroke-width="2.559227243377904" fill="rgb(93,165,218)" stroke-linecap="butt" stroke-miterlimit="10.0">
    <path d="M 252.6482,379.3896 l -0.0000,-36.8595 h -8.5060 l -0.0000,36.8595 Z"/>
  </g>
  <g stroke-linejoin="miter" stroke-opacity="0.0" fill-opacity="0.2" stroke="rgb(0,0,0)" stroke-width="2.559227243377904" fill="rgb(93,165,218)" stroke-linecap="butt" stroke-miterlimit="10.0">
    <path d="M 244.1422,379.3896 l -0.0000,-17.0121 h -8.5060 l -0.0000,17.0121 Z"/>
  </g>
  <g stroke-linejoin="miter" stroke-opacity="0.0" fill-opacity="0.2" stroke="rgb(0,0,0)" stroke-width="2.559227243377904" fill="rgb(93,165,218)" stroke-linecap="butt" stroke-miterlimit="10.0">
    <path d="M 235.6362,379.3896 l -0.0000,-17.0121 h -8.5060 l -0.0000,17.0121 Z"/>
  </g>
  <g stroke-linejoin="miter" stroke-opacity="0.0" fill-opacity="0.2" stroke="rgb(0,0,0)" stroke-width="2.559227243377904" fill="rgb(93,165,218)" stroke-linecap="butt" stroke-miterlimit="10.0">
    <path d="M 227.1301,379.3896 l -0.0000,-8.5060 h -8.5060 l -0.0000,8.5060 Z"/>
  </g>
  <g stroke-linejoin="miter" stroke-opacity="0.0" fill-opacity="0.2" stroke="rgb(0,0,0)" stroke-width="2.559227243377904" fill="rgb(93,165,218)" stroke-linecap="butt" stroke-miterlimit="10.0">
    <path d="M 218.6241,379.3896 l -0.0000,-0.0000 h -8.5060 l -0.0000,0.0000 Z"/>
  </g>
  <g stroke-linejoin="miter" stroke-opacity="0.0" fill-opacity="0.2" stroke="rgb(0,0,0)" stroke-width="2.559227243377904" fill="rgb(93,165,218)" stroke-linecap="butt" stroke-miterlimit="10.0">
    <path d="M 210.1181,379.3896 l -0.0000,-0.0000 h -8.5060 l -0.0000,0.0000 Z"/>
  </g>
  <g stroke-linejoin="miter" stroke-opacity="0.0" fill-opacity="0.2" stroke="rgb(0,0,0)" stroke-width="2.559227243377904" fill="rgb(93,165,218)" stroke-linecap="butt" stroke-miterlimit="10.0">
    <path d="M 201.6121,379.3896 l -0.0000,-0.0000 h -8.5060 l -0.0000,0.0000 Z"/>
  </g>
  <g stroke-linejoin="miter" stroke-opacity="0.0" fill-opacity="0.2" stroke="rgb(0,0,0)" stroke-width="2.559227243377904" fill="rgb(93,165,218)" stroke-linecap="butt" stroke-miterlimit="10.0">
    <path d="M 193.1060,379.3896 l -0.0000,-0.0000 h -8.5060 l -0.0000,0.0000 Z"/>
  </g>
  <g stroke-linejoin="miter" stroke-opacity="0.0" fill-opacity="0.2" stroke="rgb(0,0,0)" stroke-width="2.559227243377904" fill="rgb(93,165,218)" stroke-linecap="butt" stroke-miterlimit="10.0">
    <path d="M 184.6000,379.3896 l -0.0000,-0.0000 h -8.5060 l -0.0000,0.0000 Z"/>
  </g>
  <g stroke-linejoin="miter" stroke-opacity="0.0" fill-opacity="0.2" stroke="rgb(0,0,0)" stroke-width="2.559227243377904" fill="rgb(93,165,218)" stroke-linecap="butt" stroke-miterlimit="10.0">
    <path d="M 176.0940,379.3896 l -0.0000,-2.8353 h -8.5060 l -0.0000,2.8353 Z"/>
  </g>
  <g stroke-linejoin="miter" stroke-opacity="0.0" fill-opacity="0.2" stroke="rgb(0,0,0)" stroke-width="2.559227243377904" fill="rgb(93,165,218)" stroke-linecap="butt" stroke-miterlimit="10.0">
    <path d="M 167.5879,379.3896 l -0.0000,-0.0000 h -8.5060 l -0.0000,0.0000 Z"/>
  </g>
  <g stroke-linejoin="miter" stroke-opacity="0.0" fill-opacity="0.2" stroke="rgb(0,0,0)" stroke-width="2.559227243377904" fill="rgb(93,165,218)" stroke-linecap="butt" stroke-miterlimit="10.0">
    <path d="M 159.0819,379.3896 l -0.0000,-0.0000 h -8.5060 l -0.0000,0.0000 Z"/>
  </g>
  <g stroke-linejoin="miter" stroke-opacity="0.0" fill-opacity="0.2" stroke="rgb(0,0,0)" stroke-width="2.559227243377904" fill="rgb(93,165,218)" stroke-linecap="butt" stroke-miterlimit="10.0">
    <path d="M 150.5759,379.3896 l -0.0000,-0.0000 h -8.5060 l -0.0000,0.0000 Z"/>
  </g>
  <g stroke-linejoin="miter" stroke-opacity="0.0" fill-opacity="0.2" stroke="rgb(0,0,0)" stroke-width="2.559227243377904" fill="rgb(93,165,218)" stroke-linecap="butt" stroke-miterlimit="10.0">
    <path d="M 142.0698,379.3896 l -0.0000,-0.0000 h -8.5060 l -0.0000,0.0000 Z"/>
  </g>
  <g stroke-linejoin="miter" stroke-opacity="0.0" fill-opacity="0.2" stroke="rgb(0,0,0)" stroke-width="2.559227243377904" fill="rgb(93,165,218)" stroke-linecap="butt" stroke-miterlimit="10.0">
    <path d="M 133.5638,379.3896 l -0.0000,-0.0000 h -8.5060 l -0.0000,0.0000 Z"/>
  </g>
</svg>