<?xml version="1.0" encoding="UTF-8"?>
<!DOCTYPE svg PUBLIC "-//W3C//DTD SVG 1.1//EN"
    "http://www.w3.org/Graphics/SVG/1.1/DTD/svg11.dtd"><svg xmlns="http://www.w3.org/2000/svg" height="600.0000" stroke-opacity="1" viewBox="0 0 600 600" font-size="1" width="600.0000" xmlns:xlink="http://www.w3.org/1999/xlink" stroke="rgb(0,0,0)" version="1.1"><defs></defs><g stroke-linejoin="miter" stroke-opacity="0.0" fill-opacity="0.1" stroke="rgb(0,0,0)" stroke-width="0.0" fill="rgb(0,0,0)" stroke-linecap="butt" stroke-miterlimit="10.0"><path d="M 106.4658,469.7789 l -0.0000,-113.4138 h -5.6707 l -0.0000,113.4138 Z"/></g><g stroke-linejoin="miter" stroke-opacity="1.0" fill-opacity="0.6" stroke="rgb(0,0,0)" fill-rule="evenodd" stroke-width="0.0" fill="rgb(0,0,0)" stroke-linecap="butt" stroke-miterlimit="10.0"><path d="M 64.8737,361.3687 ZM 68.9927,351.1559 c -0.8088,-0.0000 -1.9937,0.7899 -1.9937 5.1723c 0.0000,1.5423 0.2821,4.6456 1.9372 4.6456c 0.3197,-0.0000 1.2225,-0.2069 1.6175 -1.6739c 0.2445,-0.9028 0.3762,-2.0313 0.3762 -3.6676c 0.0000,-2.3886 -0.6019,-3.7240 -1.1473 -4.1942c -0.2069,-0.1881 -0.4890,-0.2821 -0.7899 -0.2821ZM 68.9927,351.1559 ZM 68.9175,361.5944 c -2.0125,-0.0000 -3.3667,-2.5767 -3.3667 -5.4544c 0.0000,-3.5171 1.6739,-5.6425 3.4419 -5.6425c 0.8088,-0.0000 1.6175,0.5078 2.1629 1.2413c 0.7899,1.0533 1.2037,2.4639 1.2037 4.2319c 0.0000,4.1754 -2.0689,5.6237 -3.4419 5.6237ZM 73.1117,361.3687 ZM 74.1838,360.5976 c 0.0000,-0.5454 0.4514,-0.9968 0.9968 -0.9968c 0.5454,-0.0000 0.9968,0.4514 0.9968 0.9968c 0.0000,0.5454 -0.4514,0.9968 -0.9968 0.9968c -0.5454,-0.0000 -0.9968,-0.4514 -0.9968 -0.9968ZM 77.2307,361.3687 ZM 81.3498,351.1559 c -0.8088,-0.0000 -1.9937,0.7899 -1.9937 5.1723c 0.0000,1.5423 0.2821,4.6456 1.9372 4.6456c 0.3197,-0.0000 1.2225,-0.2069 1.6175 -1.6739c 0.2445,-0.9028 0.3762,-2.0313 0.3762 -3.6676c 0.0000,-2.3886 -0.6019,-3.7240 -1.1473 -4.1942c -0.2069,-0.1881 -0.4890,-0.2821 -0.7899 -0.2821ZM 81.3498,351.1559 ZM 81.2745,361.5944 c -2.0125,-0.0000 -3.3667,-2.5767 -3.3667 -5.4544c 0.0000,-3.5171 1.6739,-5.6425 3.4419 -5.6425c 0.8088,-0.0000 1.6175,0.5078 2.1629 1.2413c 0.7899,1.0533 1.2037,2.4639 1.2037 4.2319c 0.0000,4.1754 -2.0689,5.6237 -3.4419 5.6237ZM 85.4688,361.3687 ZM 90.3213,354.6918 c 0.0000,-0.1317 0.0188,-0.2821 0.1881 -0.3762c 0.2069,-0.1505 0.5454,-0.3197 0.8276 -0.3197c 0.2445,-0.0000 0.2633,0.2069 0.2633 0.5831v 3.0281 h 1.5235 l -0.1128,0.8840 h -1.4106 v 1.5611 c 0.0000,0.5266 0.0752,0.7899 0.6207 0.7899h 0.5078 c 0.1128,-0.0000 0.1317,0.0940 0.1317 0.1317v 0.4138 c 0.0000,-0.0000 -1.2037,-0.0376 -1.9937 -0.0376c -0.7147,-0.0000 -1.8244,0.0376 -1.8244 0.0376v -0.4138 c 0.0000,-0.0376 0.0188,-0.1317 0.1317 -0.1317h 0.5078 c 0.5831,-0.0000 0.6395,-0.2445 0.6395 -0.7899v -1.5611 h -3.6864 c -0.0752,-0.0000 -0.1128,-0.0376 -0.1693 -0.1128l -0.1505,-0.2069 l -0.2257,-0.3950 c -0.0188,-0.0000 -0.0188,-0.0188 -0.0188 -0.0376c 0.0000,-0.0188 0.0188,-0.0376 0.0376 -0.0564c 1.2225,-1.3542 3.3855,-5.5484 4.0626 -7.0907c 0.0188,-0.0752 0.0564,-0.0940 0.1317 -0.0940c 0.0188,-0.0000 0.4326,0.1693 0.6583 0.2069c -0.8464,2.2758 -2.2382,4.7209 -3.6112 6.9026h 2.9717 v -2.9153 Z"/></g><g stroke-linejoin="miter" stroke-opacity="0.6" fill-opacity="0.0" stroke="rgb(0,0,0)" stroke-width="2.792894825056893" fill="rgb(0,0,0)" stroke-linecap="butt" stroke-miterlimit="10.0"><path d="M 97.9598,361.3687 h 8.5060 "/></g><g stroke-linejoin="miter" stroke-opacity="1.0" fill-opacity="0.6" stroke="rgb(0,0,0)" fill-rule="evenodd" stroke-width="0.0" fill="rgb(0,0,0)" stroke-linecap="butt" stroke-miterlimit="10.0"><path d="M 64.8737,378.0472 ZM 68.9927,367.8344 c -0.8088,-0.0000 -1.9937,0.7899 -1.9937 5.1723c 0.0000,1.5423 0.2821,4.6456 1.9372 4.6456c 0.3197,-0.0000 1.2225,-0.2069 1.6175 -1.6739c 0.2445,-0.9028 0.3762,-2.0313 0.3762 -3.6676c 0.0000,-2.3886 -0.6019,-3.7240 -1.1473 -4.1942c -0.2069,-0.1881 -0.4890,-0.2821 -0.7899 -0.2821ZM 68.9927,367.8344 ZM 68.9175,378.2729 c -2.0125,-0.0000 -3.3667,-2.5767 -3.3667 -5.4544c 0.0000,-3.5171 1.6739,-5.6425 3.4419 -5.6425c 0.8088,-0.0000 1.6175,0.5078 2.1629 1.2413c 0.7899,1.0533 1.2037,2.4639 1.2037 4.2319c 0.0000,4.1754 -2.0689,5.6237 -3.4419 5.6237ZM 73.1117,378.0472 ZM 74.1838,377.2761 c 0.0000,-0.5454 0.4514,-0.9968 0.9968 -0.9968c 0.5454,-0.0000 0.9968,0.4514 0.9968 0.9968c 0.0000,0.5454 -0.4514,0.9968 -0.9968 0.9968c -0.5454,-0.0000 -0.9968,-0.4514 -0.9968 -0.9968ZM 77.2307,378.0472 ZM 81.3498,367.8344 c -0.8088,-0.0000 -1.9937,0.7899 -1.9937 5.1723c 0.0000,1.5423 0.2821,4.6456 1.9372 4.6456c 0.3197,-0.0000 1.2225,-0.2069 1.6175 -1.6739c 0.2445,-0.9028 0.3762,-2.0313 0.3762 -3.6676c 0.0000,-2.3886 -0.6019,-3.7240 -1.1473 -4.1942c -0.2069,-0.1881 -0.4890,-0.2821 -0.7899 -0.2821ZM 81.3498,367.8344 ZM 81.2745,378.2729 c -2.0125,-0.0000 -3.3667,-2.5767 -3.3667 -5.4544c 0.0000,-3.5171 1.6739,-5.6425 3.4419 -5.6425c 0.8088,-0.0000 1.6175,0.5078 2.1629 1.2413c 0.7899,1.0533 1.2037,2.4639 1.2037 4.2319c 0.0000,4.1754 -2.0689,5.6237 -3.4419 5.6237ZM 85.4688,378.0472 ZM 89.5313,367.7591 c -0.4702,-0.0000 -1.8432,0.2633 -1.8432 1.4106c 0.0000,0.3385 -0.1317,0.9216 -0.6395 0.9216c -0.4890,-0.0000 -0.5266,-0.5454 -0.5266 -0.6019c 0.0000,-0.5831 0.7711,-2.3134 3.3855 -2.3134c 1.8244,-0.0000 2.3698,1.1473 2.3698 1.8996c 0.0000,0.4702 -0.1505,1.4106 -1.8432 2.4827c 1.0533,0.1693 2.4451,0.9404 2.4451 2.8965c 0.0000,2.4827 -1.8808,3.8181 -4.0062 3.8181c -1.0721,-0.0000 -2.5767,-0.4702 -2.5767 -1.1849c 0.0000,-0.2821 0.2821,-0.6019 0.6583 -0.6019c 0.3574,-0.0000 0.5266,0.1881 0.6959 0.4326c 0.2069,0.3197 0.5454,0.7711 1.4482 0.7711c 0.6207,-0.0000 2.3886,-0.6207 2.3886 -2.9905c 0.0000,-2.0125 -1.4106,-2.3322 -2.4263 -2.3322c -0.1693,-0.0000 -0.3762,0.0376 -0.5831 0.0752l -0.0752,-0.5642 c 1.4482,-0.2445 2.6520,-1.6551 2.6520 -2.5203c 0.0000,-1.0721 -0.7523,-1.5987 -1.5235 -1.5987Z"/></g><g stroke-linejoin="miter" stroke-opacity="0.6" fill-opacity="0.0" stroke="rgb(0,0,0)" stroke-width="2.792894825056893" fill="rgb(0,0,0)" stroke-linecap="butt" stroke-miterlimit="10.0"><path d="M 97.9598,378.0472 h 8.5060 "/></g><g stroke-linejoin="miter" stroke-opacity="1.0" fill-opacity="0.6" stroke="rgb(0,0,0)" fill-rule="evenodd" stroke-width="0.0" fill="rgb(0,0,0)" stroke-linecap="butt" stroke-miterlimit="10.0"><path d="M 64.8737,394.7257 ZM 68.9927,384.5128 c -0.8088,-0.0000 -1.9937,0.7899 -1.9937 5.1723c 0.0000,1.5423 0.2821,4.6456 1.9372 4.6456c 0.3197,-0.0000 1.2225,-0.2069 1.6175 -1.6739c 0.2445,-0.9028 0.3762,-2.0313 0.3762 -3.6676c 0.0000,-2.3886 -0.6019,-3.7240 -1.1473 -4.1942c -0.2069,-0.1881 -0.4890,-0.2821 -0.7899 -0.2821ZM 68.9927,384.5128 ZM 68.9175,394.9514 c -2.0125,-0.0000 -3.3667,-2.5767 -3.3667 -5.4544c 0.0000,-3.5171 1.6739,-5.6425 3.4419 -5.6425c 0.8088,-0.0000 1.6175,0.5078 2.1629 1.2413c 0.7899,1.0533 1.2037,2.4639 1.2037 4.2319c 0.0000,4.1754 -2.0689,5.6237 -3.4419 5.6237ZM 73.1117,394.7257 ZM 74.1838,393.9546 c 0.0000,-0.5454 0.4514,-0.9968 0.9968 -0.9968c 0.5454,-0.0000 0.9968,0.4514 0.9968 0.9968c 0.0000,0.5454 -0.4514,0.9968 -0.9968 0.9968c -0.5454,-0.0000 -0.9968,-0.4514 -0.9968 -0.9968ZM 77.2307,394.7257 ZM 81.3498,384.5128 c -0.8088,-0.0000 -1.9937,0.7899 -1.9937 5.1723c 0.0000,1.5423 0.2821,4.6456 1.9372 4.6456c 0.3197,-0.0000 1.2225,-0.2069 1.6175 -1.6739c 0.2445,-0.9028 0.3762,-2.0313 0.3762 -3.6676c 0.0000,-2.3886 -0.6019,-3.7240 -1.1473 -4.1942c -0.2069,-0.1881 -0.4890,-0.2821 -0.7899 -0.2821ZM 81.3498,384.5128 ZM 81.2745,394.9514 c -2.0125,-0.0000 -3.3667,-2.5767 -3.3667 -5.4544c 0.0000,-3.5171 1.6739,-5.6425 3.4419 -5.6425c 0.8088,-0.0000 1.6175,0.5078 2.1629 1.2413c 0.7899,1.0533 1.2037,2.4639 1.2037 4.2319c 0.0000,4.1754 -2.0689,5.6237 -3.4419 5.6237ZM 85.4688,394.7257 ZM 86.5596,386.3937 c 0.0000,-1.0721 1.0345,-2.5391 3.0093 -2.5391c 1.4482,-0.0000 3.1410,0.5454 3.1410 2.7084c 0.0000,1.4294 -0.7335,2.1441 -1.7492 3.1222l -1.7868,1.7304 c -0.0940,0.0940 -1.3542,1.3354 -1.3542 2.2194h 3.1974 c 0.6395,-0.0000 0.9780,-0.3197 1.2413 -1.3542l 0.4702,0.0752 l -0.3762,2.3698 h -5.8117 c 0.0000,-1.0533 0.1693,-1.8620 1.9184 -3.6488l 1.3166,-1.2978 c 1.0533,-1.0721 1.4859,-1.9937 1.4859 -3.1410c 0.0000,-1.7116 -1.1661,-2.2006 -1.8056 -2.2006c -1.2978,-0.0000 -1.6551,0.6771 -1.6551 1.1285c 0.0000,0.1505 0.0376,0.3009 0.0752 0.4326c 0.0376,0.1317 0.0752,0.2633 0.0752 0.4138c 0.0000,0.4890 -0.3762,0.6771 -0.6771 0.6771c -0.4138,-0.0000 -0.7147,-0.3197 -0.7147 -0.6959Z"/></g><g stroke-linejoin="miter" stroke-opacity="0.6" fill-opacity="0.0" stroke="rgb(0,0,0)" stroke-width="2.792894825056893" fill="rgb(0,0,0)" stroke-linecap="butt" stroke-miterlimit="10.0"><path d="M 97.9598,394.7257 h 8.5060 "/></g><g stroke-linejoin="miter" stroke-opacity="1.0" fill-opacity="0.6" stroke="rgb(0,0,0)" fill-rule="evenodd" stroke-width="0.0" fill="rgb(0,0,0)" stroke-linecap="butt" stroke-miterlimit="10.0"><path d="M 64.8737,411.4042 ZM 68.9927,401.1913 c -0.8088,-0.0000 -1.9937,0.7899 -1.9937 5.1723c 0.0000,1.5423 0.2821,4.6456 1.9372 4.6456c 0.3197,-0.0000 1.2225,-0.2069 1.6175 -1.6739c 0.2445,-0.9028 0.3762,-2.0313 0.3762 -3.6676c 0.0000,-2.3886 -0.6019,-3.7240 -1.1473 -4.1942c -0.2069,-0.1881 -0.4890,-0.2821 -0.7899 -0.2821ZM 68.9927,401.1913 ZM 68.9175,411.6299 c -2.0125,-0.0000 -3.3667,-2.5767 -3.3667 -5.4544c 0.0000,-3.5171 1.6739,-5.6425 3.4419 -5.6425c 0.8088,-0.0000 1.6175,0.5078 2.1629 1.2413c 0.7899,1.0533 1.2037,2.4639 1.2037 4.2319c 0.0000,4.1754 -2.0689,5.6237 -3.4419 5.6237ZM 73.1117,411.4042 ZM 74.1838,410.6331 c 0.0000,-0.5454 0.4514,-0.9968 0.9968 -0.9968c 0.5454,-0.0000 0.9968,0.4514 0.9968 0.9968c 0.0000,0.5454 -0.4514,0.9968 -0.9968 0.9968c -0.5454,-0.0000 -0.9968,-0.4514 -0.9968 -0.9968ZM 77.2307,411.4042 ZM 81.3498,401.1913 c -0.8088,-0.0000 -1.9937,0.7899 -1.9937 5.1723c 0.0000,1.5423 0.2821,4.6456 1.9372 4.6456c 0.3197,-0.0000 1.2225,-0.2069 1.6175 -1.6739c 0.2445,-0.9028 0.3762,-2.0313 0.3762 -3.6676c 0.0000,-2.3886 -0.6019,-3.7240 -1.1473 -4.1942c -0.2069,-0.1881 -0.4890,-0.2821 -0.7899 -0.2821ZM 81.3498,401.1913 ZM 81.2745,411.6299 c -2.0125,-0.0000 -3.3667,-2.5767 -3.3667 -5.4544c 0.0000,-3.5171 1.6739,-5.6425 3.4419 -5.6425c 0.8088,-0.0000 1.6175,0.5078 2.1629 1.2413c 0.7899,1.0533 1.2037,2.4639 1.2037 4.2319c 0.0000,4.1754 -2.0689,5.6237 -3.4419 5.6237ZM 85.4688,411.4042 ZM 89.0047,402.4327 c -0.3574,-0.0000 -1.1849,0.3385 -1.5987 0.5266l -0.2257,-0.5831 c 1.6551,-0.7711 2.2946,-1.1661 3.2350 -1.8432h 0.3574 v 9.4605 c 0.0000,0.6771 0.0940,0.8652 0.7147 0.8652h 0.9780 c 0.0564,-0.0000 0.1505,0.0376 0.1505 0.1505v 0.4138 l -2.5767,-0.0376 l -2.6143,0.0376 v -0.4138 c 0.0188,-0.0564 0.0376,-0.1505 0.1505 -0.1505h 1.1285 c 0.7147,-0.0000 0.7147,-0.3197 0.7147 -0.8652v -6.4700 c 0.0000,-0.6395 0.0000,-1.0909 -0.4138 -1.0909Z"/></g><g stroke-linejoin="miter" stroke-opacity="0.6" fill-opacity="0.0" stroke="rgb(0,0,0)" stroke-width="2.792894825056893" fill="rgb(0,0,0)" stroke-linecap="butt" stroke-miterlimit="10.0"><path d="M 97.9598,411.4042 h 8.5060 "/></g><g stroke-linejoin="miter" stroke-opacity="1.0" fill-opacity="0.6" stroke="rgb(0,0,0)" fill-rule="evenodd" stroke-width="0.0" fill="rgb(0,0,0)" stroke-linecap="butt" stroke-miterlimit="10.0"><path d="M 64.8737,428.0827 ZM 68.9927,417.8698 c -0.8088,-0.0000 -1.9937,0.7899 -1.9937 5.1723c 0.0000,1.5423 0.2821,4.6456 1.9372 4.6456c 0.3197,-0.0000 1.2225,-0.2069 1.6175 -1.6739c 0.2445,-0.9028 0.3762,-2.0313 0.3762 -3.6676c 0.0000,-2.3886 -0.6019,-3.7240 -1.1473 -4.1942c -0.2069,-0.1881 -0.4890,-0.2821 -0.7899 -0.2821ZM 68.9927,417.8698 ZM 68.9175,428.3084 c -2.0125,-0.0000 -3.3667,-2.5767 -3.3667 -5.4544c 0.0000,-3.5171 1.6739,-5.6425 3.4419 -5.6425c 0.8088,-0.0000 1.6175,0.5078 2.1629 1.2413c 0.7899,1.0533 1.2037,2.4639 1.2037 4.2319c 0.0000,4.1754 -2.0689,5.6237 -3.4419 5.6237ZM 73.1117,428.0827 ZM 74.1838,427.3116 c 0.0000,-0.5454 0.4514,-0.9968 0.9968 -0.9968c 0.5454,-0.0000 0.9968,0.4514 0.9968 0.9968c 0.0000,0.5454 -0.4514,0.9968 -0.9968 0.9968c -0.5454,-0.0000 -0.9968,-0.4514 -0.9968 -0.9968ZM 77.2307,428.0827 ZM 81.3498,417.8698 c -0.8088,-0.0000 -1.9937,0.7899 -1.9937 5.1723c 0.0000,1.5423 0.2821,4.6456 1.9372 4.6456c 0.3197,-0.0000 1.2225,-0.2069 1.6175 -1.6739c 0.2445,-0.9028 0.3762,-2.0313 0.3762 -3.6676c 0.0000,-2.3886 -0.6019,-3.7240 -1.1473 -4.1942c -0.2069,-0.1881 -0.4890,-0.2821 -0.7899 -0.2821ZM 81.3498,417.8698 ZM 81.2745,428.3084 c -2.0125,-0.0000 -3.3667,-2.5767 -3.3667 -5.4544c 0.0000,-3.5171 1.6739,-5.6425 3.4419 -5.6425c 0.8088,-0.0000 1.6175,0.5078 2.1629 1.2413c 0.7899,1.0533 1.2037,2.4639 1.2037 4.2319c 0.0000,4.1754 -2.0689,5.6237 -3.4419 5.6237ZM 85.4688,428.0827 ZM 89.5878,417.8698 c -0.8088,-0.0000 -1.9937,0.7899 -1.9937 5.1723c 0.0000,1.5423 0.2821,4.6456 1.9372 4.6456c 0.3197,-0.0000 1.2225,-0.2069 1.6175 -1.6739c 0.2445,-0.9028 0.3762,-2.0313 0.3762 -3.6676c 0.0000,-2.3886 -0.6019,-3.7240 -1.1473 -4.1942c -0.2069,-0.1881 -0.4890,-0.2821 -0.7899 -0.2821ZM 89.5878,417.8698 ZM 89.5125,428.3084 c -2.0125,-0.0000 -3.3667,-2.5767 -3.3667 -5.4544c 0.0000,-3.5171 1.6739,-5.6425 3.4419 -5.6425c 0.8088,-0.0000 1.6175,0.5078 2.1629 1.2413c 0.7899,1.0533 1.2037,2.4639 1.2037 4.2319c 0.0000,4.1754 -2.0689,5.6237 -3.4419 5.6237Z"/></g><g stroke-linejoin="miter" stroke-opacity="0.6" fill-opacity="0.0" stroke="rgb(0,0,0)" stroke-width="2.792894825056893" fill="rgb(0,0,0)" stroke-linecap="butt" stroke-miterlimit="10.0"><path d="M 97.9598,428.0827 h 8.5060 "/></g><g stroke-linejoin="miter" stroke-opacity="1.0" fill-opacity="0.6" stroke="rgb(0,0,0)" fill-rule="evenodd" stroke-width="0.0" fill="rgb(0,0,0)" stroke-linecap="butt" stroke-miterlimit="10.0"><path d="M 58.6106,444.7612 ZM 63.7640,440.3225 h -4.2507 c -0.1693,-0.0000 -0.2821,-0.1505 -0.2821 -0.3197c 0.0000,-0.3009 0.2445,-0.6959 0.4702 -0.6959h 4.3071 c 0.1881,-0.0000 0.2633,0.1693 0.2633 0.3385c 0.0000,0.2069 -0.2633,0.6771 -0.5078 0.6771ZM 64.8737,444.7612 ZM 68.9927,434.5483 c -0.8088,-0.0000 -1.9937,0.7899 -1.9937 5.1723c 0.0000,1.5423 0.2821,4.6456 1.9372 4.6456c 0.3197,-0.0000 1.2225,-0.2069 1.6175 -1.6739c 0.2445,-0.9028 0.3762,-2.0313 0.3762 -3.6676c 0.0000,-2.3886 -0.6019,-3.7240 -1.1473 -4.1942c -0.2069,-0.1881 -0.4890,-0.2821 -0.7899 -0.2821ZM 68.9927,434.5483 ZM 68.9175,444.9869 c -2.0125,-0.0000 -3.3667,-2.5767 -3.3667 -5.4544c 0.0000,-3.5171 1.6739,-5.6425 3.4419 -5.6425c 0.8088,-0.0000 1.6175,0.5078 2.1629 1.2413c 0.7899,1.0533 1.2037,2.4639 1.2037 4.2319c 0.0000,4.1754 -2.0689,5.6237 -3.4419 5.6237ZM 73.1117,444.7612 ZM 74.1838,443.9901 c 0.0000,-0.5454 0.4514,-0.9968 0.9968 -0.9968c 0.5454,-0.0000 0.9968,0.4514 0.9968 0.9968c 0.0000,0.5454 -0.4514,0.9968 -0.9968 0.9968c -0.5454,-0.0000 -0.9968,-0.4514 -0.9968 -0.9968ZM 77.2307,444.7612 ZM 81.3498,434.5483 c -0.8088,-0.0000 -1.9937,0.7899 -1.9937 5.1723c 0.0000,1.5423 0.2821,4.6456 1.9372 4.6456c 0.3197,-0.0000 1.2225,-0.2069 1.6175 -1.6739c 0.2445,-0.9028 0.3762,-2.0313 0.3762 -3.6676c 0.0000,-2.3886 -0.6019,-3.7240 -1.1473 -4.1942c -0.2069,-0.1881 -0.4890,-0.2821 -0.7899 -0.2821ZM 81.3498,434.5483 ZM 81.2745,444.9869 c -2.0125,-0.0000 -3.3667,-2.5767 -3.3667 -5.4544c 0.0000,-3.5171 1.6739,-5.6425 3.4419 -5.6425c 0.8088,-0.0000 1.6175,0.5078 2.1629 1.2413c 0.7899,1.0533 1.2037,2.4639 1.2037 4.2319c 0.0000,4.1754 -2.0689,5.6237 -3.4419 5.6237ZM 85.4688,444.7612 ZM 89.0047,435.7897 c -0.3574,-0.0000 -1.1849,0.3385 -1.5987 0.5266l -0.2257,-0.5831 c 1.6551,-0.7711 2.2946,-1.1661 3.2350 -1.8432h 0.3574 v 9.4605 c 0.0000,0.6771 0.0940,0.8652 0.7147 0.8652h 0.9780 c 0.0564,-0.0000 0.1505,0.0376 0.1505 0.1505v 0.4138 l -2.5767,-0.0376 l -2.6143,0.0376 v -0.4138 c 0.0188,-0.0564 0.0376,-0.1505 0.1505 -0.1505h 1.1285 c 0.7147,-0.0000 0.7147,-0.3197 0.7147 -0.8652v -6.4700 c 0.0000,-0.6395 0.0000,-1.0909 -0.4138 -1.0909Z"/></g><g stroke-linejoin="miter" stroke-opacity="0.6" fill-opacity="0.0" stroke="rgb(0,0,0)" stroke-width="2.792894825056893" fill="rgb(0,0,0)" stroke-linecap="butt" stroke-miterlimit="10.0"><path d="M 97.9598,444.7612 h 8.5060 "/></g><g stroke-linejoin="miter" stroke-opacity="1.0" fill-opacity="0.6" stroke="rgb(0,0,0)" fill-rule="evenodd" stroke-width="0.0" fill="rgb(0,0,0)" stroke-linecap="butt" stroke-miterlimit="10.0"><path d="M 58.6106,461.4397 ZM 63.7640,457.0010 h -4.2507 c -0.1693,-0.0000 -0.2821,-0.1505 -0.2821 -0.3197c 0.0000,-0.3009 0.2445,-0.6959 0.4702 -0.6959h 4.3071 c 0.1881,-0.0000 0.2633,0.1693 0.2633 0.3385c 0.0000,0.2069 -0.2633,0.6771 -0.5078 0.6771ZM 64.8737,461.4397 ZM 68.9927,451.2268 c -0.8088,-0.0000 -1.9937,0.7899 -1.9937 5.1723c 0.0000,1.5423 0.2821,4.6456 1.9372 4.6456c 0.3197,-0.0000 1.2225,-0.2069 1.6175 -1.6739c 0.2445,-0.9028 0.3762,-2.0313 0.3762 -3.6676c 0.0000,-2.3886 -0.6019,-3.7240 -1.1473 -4.1942c -0.2069,-0.1881 -0.4890,-0.2821 -0.7899 -0.2821ZM 68.9927,451.2268 ZM 68.9175,461.6654 c -2.0125,-0.0000 -3.3667,-2.5767 -3.3667 -5.4544c 0.0000,-3.5171 1.6739,-5.6425 3.4419 -5.6425c 0.8088,-0.0000 1.6175,0.5078 2.1629 1.2413c 0.7899,1.0533 1.2037,2.4639 1.2037 4.2319c 0.0000,4.1754 -2.0689,5.6237 -3.4419 5.6237ZM 73.1117,461.4397 ZM 74.1838,460.6686 c 0.0000,-0.5454 0.4514,-0.9968 0.9968 -0.9968c 0.5454,-0.0000 0.9968,0.4514 0.9968 0.9968c 0.0000,0.5454 -0.4514,0.9968 -0.9968 0.9968c -0.5454,-0.0000 -0.9968,-0.4514 -0.9968 -0.9968ZM 77.2307,461.4397 ZM 81.3498,451.2268 c -0.8088,-0.0000 -1.9937,0.7899 -1.9937 5.1723c 0.0000,1.5423 0.2821,4.6456 1.9372 4.6456c 0.3197,-0.0000 1.2225,-0.2069 1.6175 -1.6739c 0.2445,-0.9028 0.3762,-2.0313 0.3762 -3.6676c 0.0000,-2.3886 -0.6019,-3.7240 -1.1473 -4.1942c -0.2069,-0.1881 -0.4890,-0.2821 -0.7899 -0.2821ZM 81.3498,451.2268 ZM 81.2745,461.6654 c -2.0125,-0.0000 -3.3667,-2.5767 -3.3667 -5.4544c 0.0000,-3.5171 1.6739,-5.6425 3.4419 -5.6425c 0.8088,-0.0000 1.6175,0.5078 2.1629 1.2413c 0.7899,1.0533 1.2037,2.4639 1.2037 4.2319c 0.0000,4.1754 -2.0689,5.6237 -3.4419 5.6237ZM 85.4688,461.4397 ZM 86.5596,453.1076 c 0.0000,-1.0721 1.0345,-2.5391 3.0093 -2.5391c 1.4482,-0.0000 3.1410,0.5454 3.1410 2.7084c 0.0000,1.4294 -0.7335,2.1441 -1.7492 3.1222l -1.7868,1.7304 c -0.0940,0.0940 -1.3542,1.3354 -1.3542 2.2194h 3.1974 c 0.6395,-0.0000 0.9780,-0.3197 1.2413 -1.3542l 0.4702,0.0752 l -0.3762,2.3698 h -5.8117 c 0.0000,-1.0533 0.1693,-1.8620 1.9184 -3.6488l 1.3166,-1.2978 c 1.0533,-1.0721 1.4859,-1.9937 1.4859 -3.1410c 0.0000,-1.7116 -1.1661,-2.2006 -1.8056 -2.2006c -1.2978,-0.0000 -1.6551,0.6771 -1.6551 1.1285c 0.0000,0.1505 0.0376,0.3009 0.0752 0.4326c 0.0376,0.1317 0.0752,0.2633 0.0752 0.4138c 0.0000,0.4890 -0.3762,0.6771 -0.6771 0.6771c -0.4138,-0.0000 -0.7147,-0.3197 -0.7147 -0.6959Z"/></g><g stroke-linejoin="miter" stroke-opacity="0.6" fill-opacity="0.0" stroke="rgb(0,0,0)" stroke-width="2.792894825056893" fill="rgb(0,0,0)" stroke-linecap="butt" stroke-miterlimit="10.0"><path d="M 97.9598,461.4397 h 8.5060 "/></g><g stroke-linejoin="miter" stroke-opacity="0.0" fill-opacity="0.1" stroke="rgb(0,0,0)" stroke-width="0.0" fill="rgb(0,0,0)" stroke-linecap="butt" stroke-miterlimit="10.0"><path d="M 550.3593,486.7910 l -0.0000,-5.6707 h -425.3016 l -0.0000,5.6707 Z"/></g><g stroke-linejoin="miter" stroke-opacity="1.0" fill-opacity="0.6" stroke="rgb(0,0,0)" fill-rule="evenodd" stroke-width="0.0" fill="rgb(0,0,0)" stroke-linecap="butt" stroke-miterlimit="10.0"><path d="M 546.2403,510.6939 ZM 552.0521,507.5154 c 0.0000,-1.9372 -1.0533,-2.8965 -2.2194 -2.8965c -0.8652,-0.0000 -1.5235,0.1317 -2.2570 0.4326l 0.6019,-5.1347 c 0.6207,0.0564 1.2602,0.0752 1.9184 0.0752c 0.9404,-0.0000 1.9184,-0.0564 2.9341 -0.1693l 0.1128,0.0564 l -0.2821,1.2225 c -0.7335,0.0752 -1.3354,0.0940 -1.8620 0.0940c -0.8464,-0.0000 -1.4859,-0.0752 -2.1441 -0.1505l -0.3574,2.9717 c 0.3950,-0.1505 1.0721,-0.2821 1.8056 -0.2821c 1.9937,-0.0000 3.1034,1.7304 3.1034 3.4607c 0.0000,2.1065 -1.4670,3.7240 -3.5924 3.7240c -1.0721,-0.0000 -2.6332,-0.6019 -2.6332 -1.3354c 0.0000,-0.3574 0.3009,-0.6019 0.6395 -0.6019c 0.3762,-0.0000 0.6207,0.2821 0.8464 0.5831c 0.2821,0.3385 0.5831,0.7147 1.1849 0.7147c 1.2037,-0.0000 2.2006,-1.1285 2.2006 -2.7648Z"/></g><g stroke-linejoin="miter" stroke-opacity="0.6" fill-opacity="0.0" stroke="rgb(0,0,0)" stroke-width="2.792894825056893" fill="rgb(0,0,0)" stroke-linecap="butt" stroke-miterlimit="10.0"><path d="M 550.3593,481.1203 v 8.5060 "/></g><g stroke-linejoin="miter" stroke-opacity="1.0" fill-opacity="0.6" stroke="rgb(0,0,0)" fill-rule="evenodd" stroke-width="0.0" fill="rgb(0,0,0)" stroke-linecap="butt" stroke-miterlimit="10.0"><path d="M 503.7102,510.6939 ZM 508.5627,504.0170 c 0.0000,-0.1317 0.0188,-0.2821 0.1881 -0.3762c 0.2069,-0.1505 0.5454,-0.3197 0.8276 -0.3197c 0.2445,-0.0000 0.2633,0.2069 0.2633 0.5831v 3.0281 h 1.5235 l -0.1128,0.8840 h -1.4106 v 1.5611 c 0.0000,0.5266 0.0752,0.7899 0.6207 0.7899h 0.5078 c 0.1128,-0.0000 0.1317,0.0940 0.1317 0.1317v 0.4138 c 0.0000,-0.0000 -1.2037,-0.0376 -1.9937 -0.0376c -0.7147,-0.0000 -1.8244,0.0376 -1.8244 0.0376v -0.4138 c 0.0000,-0.0376 0.0188,-0.1317 0.1317 -0.1317h 0.5078 c 0.5831,-0.0000 0.6395,-0.2445 0.6395 -0.7899v -1.5611 h -3.6864 c -0.0752,-0.0000 -0.1128,-0.0376 -0.1693 -0.1128l -0.1505,-0.2069 l -0.2257,-0.3950 c -0.0188,-0.0000 -0.0188,-0.0188 -0.0188 -0.0376c 0.0000,-0.0188 0.0188,-0.0376 0.0376 -0.0564c 1.2225,-1.3542 3.3855,-5.5484 4.0626 -7.0907c 0.0188,-0.0752 0.0564,-0.0940 0.1317 -0.0940c 0.0188,-0.0000 0.4326,0.1693 0.6583 0.2069c -0.8464,2.2758 -2.2382,4.7209 -3.6112 6.9026h 2.9717 v -2.9153 Z"/></g><g stroke-linejoin="miter" stroke-opacity="0.6" fill-opacity="0.0" stroke="rgb(0,0,0)" stroke-width="2.792894825056893" fill="rgb(0,0,0)" stroke-linecap="butt" stroke-miterlimit="10.0"><path d="M 507.8292,481.1203 v 8.5060 "/></g><g stroke-linejoin="miter" stroke-opacity="1.0" fill-opacity="0.6" stroke="rgb(0,0,0)" fill-rule="evenodd" stroke-width="0.0" fill="rgb(0,0,0)" stroke-linecap="butt" stroke-miterlimit="10.0"><path d="M 461.1800,510.6939 ZM 465.2426,500.4058 c -0.4702,-0.0000 -1.8432,0.2633 -1.8432 1.4106c 0.0000,0.3385 -0.1317,0.9216 -0.6395 0.9216c -0.4890,-0.0000 -0.5266,-0.5454 -0.5266 -0.6019c 0.0000,-0.5831 0.7711,-2.3134 3.3855 -2.3134c 1.8244,-0.0000 2.3698,1.1473 2.3698 1.8996c 0.0000,0.4702 -0.1505,1.4106 -1.8432 2.4827c 1.0533,0.1693 2.4451,0.9404 2.4451 2.8965c 0.0000,2.4827 -1.8808,3.8181 -4.0062 3.8181c -1.0721,-0.0000 -2.5767,-0.4702 -2.5767 -1.1849c 0.0000,-0.2821 0.2821,-0.6019 0.6583 -0.6019c 0.3574,-0.0000 0.5266,0.1881 0.6959 0.4326c 0.2069,0.3197 0.5454,0.7711 1.4482 0.7711c 0.6207,-0.0000 2.3886,-0.6207 2.3886 -2.9905c 0.0000,-2.0125 -1.4106,-2.3322 -2.4263 -2.3322c -0.1693,-0.0000 -0.3762,0.0376 -0.5831 0.0752l -0.0752,-0.5642 c 1.4482,-0.2445 2.6520,-1.6551 2.6520 -2.5203c 0.0000,-1.0721 -0.7523,-1.5987 -1.5235 -1.5987Z"/></g><g stroke-linejoin="miter" stroke-opacity="0.6" fill-opacity="0.0" stroke="rgb(0,0,0)" stroke-width="2.792894825056893" fill="rgb(0,0,0)" stroke-linecap="butt" stroke-miterlimit="10.0"><path d="M 465.2990,481.1203 v 8.5060 "/></g><g stroke-linejoin="miter" stroke-opacity="1.0" fill-opacity="0.6" stroke="rgb(0,0,0)" fill-rule="evenodd" stroke-width="0.0" fill="rgb(0,0,0)" stroke-linecap="butt" stroke-miterlimit="10.0"><path d="M 418.6499,510.6939 ZM 419.7407,502.3619 c 0.0000,-1.0721 1.0345,-2.5391 3.0093 -2.5391c 1.4482,-0.0000 3.1410,0.5454 3.1410 2.7084c 0.0000,1.4294 -0.7335,2.1441 -1.7492 3.1222l -1.7868,1.7304 c -0.0940,0.0940 -1.3542,1.3354 -1.3542 2.2194h 3.1974 c 0.6395,-0.0000 0.9780,-0.3197 1.2413 -1.3542l 0.4702,0.0752 l -0.3762,2.3698 h -5.8117 c 0.0000,-1.0533 0.1693,-1.8620 1.9184 -3.6488l 1.3166,-1.2978 c 1.0533,-1.0721 1.4859,-1.9937 1.4859 -3.1410c 0.0000,-1.7116 -1.1661,-2.2006 -1.8056 -2.2006c -1.2978,-0.0000 -1.6551,0.6771 -1.6551 1.1285c 0.0000,0.1505 0.0376,0.3009 0.0752 0.4326c 0.0376,0.1317 0.0752,0.2633 0.0752 0.4138c 0.0000,0.4890 -0.3762,0.6771 -0.6771 0.6771c -0.4138,-0.0000 -0.7147,-0.3197 -0.7147 -0.6959Z"/></g><g stroke-linejoin="miter" stroke-opacity="0.6" fill-opacity="0.0" stroke="rgb(0,0,0)" stroke-width="2.792894825056893" fill="rgb(0,0,0)" stroke-linecap="butt" stroke-miterlimit="10.0"><path d="M 422.7689,481.1203 v 8.5060 "/></g><g stroke-linejoin="miter" stroke-opacity="1.0" fill-opacity="0.6" stroke="rgb(0,0,0)" fill-rule="evenodd" stroke-width="0.0" fill="rgb(0,0,0)" stroke-linecap="butt" stroke-miterlimit="10.0"><path d="M 376.1197,510.6939 ZM 379.6557,501.7224 c -0.3574,-0.0000 -1.1849,0.3385 -1.5987 0.5266l -0.2257,-0.5831 c 1.6551,-0.7711 2.2946,-1.1661 3.2350 -1.8432h 0.3574 v 9.4605 c 0.0000,0.6771 0.0940,0.8652 0.7147 0.8652h 0.9780 c 0.0564,-0.0000 0.1505,0.0376 0.1505 0.1505v 0.4138 l -2.5767,-0.0376 l -2.6143,0.0376 v -0.4138 c 0.0188,-0.0564 0.0376,-0.1505 0.1505 -0.1505h 1.1285 c 0.7147,-0.0000 0.7147,-0.3197 0.7147 -0.8652v -6.4700 c 0.0000,-0.6395 0.0000,-1.0909 -0.4138 -1.0909Z"/></g><g stroke-linejoin="miter" stroke-opacity="0.6" fill-opacity="0.0" stroke="rgb(0,0,0)" stroke-width="2.792894825056893" fill="rgb(0,0,0)" stroke-linecap="butt" stroke-miterlimit="10.0"><path d="M 380.2387,481.1203 v 8.5060 "/></g><g stroke-linejoin="miter" stroke-opacity="1.0" fill-opacity="0.6" stroke="rgb(0,0,0)" fill-rule="evenodd" stroke-width="0.0" fill="rgb(0,0,0)" stroke-linecap="butt" stroke-miterlimit="10.0"><path d="M 333.5895,510.6939 ZM 337.7086,500.4811 c -0.8088,-0.0000 -1.9937,0.7899 -1.9937 5.1723c 0.0000,1.5423 0.2821,4.6456 1.9372 4.6456c 0.3197,-0.0000 1.2225,-0.2069 1.6175 -1.6739c 0.2445,-0.9028 0.3762,-2.0313 0.3762 -3.6676c 0.0000,-2.3886 -0.6019,-3.7240 -1.1473 -4.1942c -0.2069,-0.1881 -0.4890,-0.2821 -0.7899 -0.2821ZM 337.7086,500.4811 ZM 337.6333,510.9196 c -2.0125,-0.0000 -3.3667,-2.5767 -3.3667 -5.4544c 0.0000,-3.5171 1.6739,-5.6425 3.4419 -5.6425c 0.8088,-0.0000 1.6175,0.5078 2.1629 1.2413c 0.7899,1.0533 1.2037,2.4639 1.2037 4.2319c 0.0000,4.1754 -2.0689,5.6237 -3.4419 5.6237Z"/></g><g stroke-linejoin="miter" stroke-opacity="0.6" fill-opacity="0.0" stroke="rgb(0,0,0)" stroke-width="2.792894825056893" fill="rgb(0,0,0)" stroke-linecap="butt" stroke-miterlimit="10.0"><path d="M 337.7086,481.1203 v 8.5060 "/></g><g stroke-linejoin="miter" stroke-opacity="1.0" fill-opacity="0.6" stroke="rgb(0,0,0)" fill-rule="evenodd" stroke-width="0.0" fill="rgb(0,0,0)" stroke-linecap="butt" stroke-miterlimit="10.0"><path d="M 287.9278,510.6939 ZM 293.0813,506.2552 h -4.2507 c -0.1693,-0.0000 -0.2821,-0.1505 -0.2821 -0.3197c 0.0000,-0.3009 0.2445,-0.6959 0.4702 -0.6959h 4.3071 c 0.1881,-0.0000 0.2633,0.1693 0.2633 0.3385c 0.0000,0.2069 -0.2633,0.6771 -0.5078 0.6771ZM 294.1910,510.6939 ZM 297.7269,501.7224 c -0.3574,-0.0000 -1.1849,0.3385 -1.5987 0.5266l -0.2257,-0.5831 c 1.6551,-0.7711 2.2946,-1.1661 3.2350 -1.8432h 0.3574 v 9.4605 c 0.0000,0.6771 0.0940,0.8652 0.7147 0.8652h 0.9780 c 0.0564,-0.0000 0.1505,0.0376 0.1505 0.1505v 0.4138 l -2.5767,-0.0376 l -2.6143,0.0376 v -0.4138 c 0.0188,-0.0564 0.0376,-0.1505 0.1505 -0.1505h 1.1285 c 0.7147,-0.0000 0.7147,-0.3197 0.7147 -0.8652v -6.4700 c 0.0000,-0.6395 0.0000,-1.0909 -0.4138 -1.0909Z"/></g><g stroke-linejoin="miter" stroke-opacity="0.6" fill-opacity="0.0" stroke="rgb(0,0,0)" stroke-width="2.792894825056893" fill="rgb(0,0,0)" stroke-linecap="butt" stroke-miterlimit="10.0"><path d="M 295.1784,481.1203 v 8.5060 "/></g><g stroke-linejoin="miter" stroke-opacity="1.0" fill-opacity="0.6" stroke="rgb(0,0,0)" fill-rule="evenodd" stroke-width="0.0" fill="rgb(0,0,0)" stroke-linecap="butt" stroke-miterlimit="10.0"><path d="M 245.3977,510.6939 ZM 250.5511,506.2552 h -4.2507 c -0.1693,-0.0000 -0.2821,-0.1505 -0.2821 -0.3197c 0.0000,-0.3009 0.2445,-0.6959 0.4702 -0.6959h 4.3071 c 0.1881,-0.0000 0.2633,0.1693 0.2633 0.3385c 0.0000,0.2069 -0.2633,0.6771 -0.5078 0.6771ZM 251.6608,510.6939 ZM 252.7517,502.3619 c 0.0000,-1.0721 1.0345,-2.5391 3.0093 -2.5391c 1.4482,-0.0000 3.1410,0.5454 3.1410 2.7084c 0.0000,1.4294 -0.7335,2.1441 -1.7492 3.1222l -1.7868,1.7304 c -0.0940,0.0940 -1.3542,1.3354 -1.3542 2.2194h 3.1974 c 0.6395,-0.0000 0.9780,-0.3197 1.2413 -1.3542l 0.4702,0.0752 l -0.3762,2.3698 h -5.8117 c 0.0000,-1.0533 0.1693,-1.8620 1.9184 -3.6488l 1.3166,-1.2978 c 1.0533,-1.0721 1.4859,-1.9937 1.4859 -3.1410c 0.0000,-1.7116 -1.1661,-2.2006 -1.8056 -2.2006c -1.2978,-0.0000 -1.6551,0.6771 -1.6551 1.1285c 0.0000,0.1505 0.0376,0.3009 0.0752 0.4326c 0.0376,0.1317 0.0752,0.2633 0.0752 0.4138c 0.0000,0.4890 -0.3762,0.6771 -0.6771 0.6771c -0.4138,-0.0000 -0.7147,-0.3197 -0.7147 -0.6959Z"/></g><g stroke-linejoin="miter" stroke-opacity="0.6" fill-opacity="0.0" stroke="rgb(0,0,0)" stroke-width="2.792894825056893" fill="rgb(0,0,0)" stroke-linecap="butt" stroke-miterlimit="10.0"><path d="M 252.6482,481.1203 v 8.5060 "/></g><g stroke-linejoin="miter" stroke-opacity="1.0" fill-opacity="0.6" stroke="rgb(0,0,0)" fill-rule="evenodd" stroke-width="0.0" fill="rgb(0,0,0)" stroke-linecap="butt" stroke-miterlimit="10.0"><path d="M 202.8675,510.6939 ZM 208.0210,506.2552 h -4.2507 c -0.1693,-0.0000 -0.2821,-0.1505 -0.2821 -0.3197c 0.0000,-0.3009 0.2445,-0.6959 0.4702 -0.6959h 4.3071 c 0.1881,-0.0000 0.2633,0.1693 0.2633 0.3385c 0.0000,0.2069 -0.2633,0.6771 -0.5078 0.6771ZM 209.1307,510.6939 ZM 213.1932,500.4058 c -0.4702,-0.0000 -1.8432,0.2633 -1.8432 1.4106c 0.0000,0.3385 -0.1317,0.9216 -0.6395 0.9216c -0.4890,-0.0000 -0.5266,-0.5454 -0.5266 -0.6019c 0.0000,-0.5831 0.7711,-2.3134 3.3855 -2.3134c 1.8244,-0.0000 2.3698,1.1473 2.3698 1.8996c 0.0000,0.4702 -0.1505,1.4106 -1.8432 2.4827c 1.0533,0.1693 2.4451,0.9404 2.4451 2.8965c 0.0000,2.4827 -1.8808,3.8181 -4.0062 3.8181c -1.0721,-0.0000 -2.5767,-0.4702 -2.5767 -1.1849c 0.0000,-0.2821 0.2821,-0.6019 0.6583 -0.6019c 0.3574,-0.0000 0.5266,0.1881 0.6959 0.4326c 0.2069,0.3197 0.5454,0.7711 1.4482 0.7711c 0.6207,-0.0000 2.3886,-0.6207 2.3886 -2.9905c 0.0000,-2.0125 -1.4106,-2.3322 -2.4263 -2.3322c -0.1693,-0.0000 -0.3762,0.0376 -0.5831 0.0752l -0.0752,-0.5642 c 1.4482,-0.2445 2.6520,-1.6551 2.6520 -2.5203c 0.0000,-1.0721 -0.7523,-1.5987 -1.5235 -1.5987Z"/></g><g stroke-linejoin="miter" stroke-opacity="0.6" fill-opacity="0.0" stroke="rgb(0,0,0)" stroke-width="2.792894825056893" fill="rgb(0,0,0)" stroke-linecap="butt" stroke-miterlimit="10.0"><path d="M 210.1181,481.1203 v 8.5060 "/></g><g stroke-linejoin="miter" stroke-opacity="1.0" fill-opacity="0.6" stroke="rgb(0,0,0)" fill-rule="evenodd" stroke-width="0.0" fill="rgb(0,0,0)" stroke-linecap="butt" stroke-miterlimit="10.0"><path d="M 160.3373,510.6939 ZM 165.4908,506.2552 h -4.2507 c -0.1693,-0.0000 -0.2821,-0.1505 -0.2821 -0.3197c 0.0000,-0.3009 0.2445,-0.6959 0.4702 -0.6959h 4.3071 c 0.1881,-0.0000 0.2633,0.1693 0.2633 0.3385c 0.0000,0.2069 -0.2633,0.6771 -0.5078 0.6771ZM 166.6005,510.6939 ZM 171.4530,504.0170 c 0.0000,-0.1317 0.0188,-0.2821 0.1881 -0.3762c 0.2069,-0.1505 0.5454,-0.3197 0.8276 -0.3197c 0.2445,-0.0000 0.2633,0.2069 0.2633 0.5831v 3.0281 h 1.5235 l -0.1128,0.8840 h -1.4106 v 1.5611 c 0.0000,0.5266 0.0752,0.7899 0.6207 0.7899h 0.5078 c 0.1128,-0.0000 0.1317,0.0940 0.1317 0.1317v 0.4138 c 0.0000,-0.0000 -1.2037,-0.0376 -1.9937 -0.0376c -0.7147,-0.0000 -1.8244,0.0376 -1.8244 0.0376v -0.4138 c 0.0000,-0.0376 0.0188,-0.1317 0.1317 -0.1317h 0.5078 c 0.5831,-0.0000 0.6395,-0.2445 0.6395 -0.7899v -1.5611 h -3.6864 c -0.0752,-0.0000 -0.1128,-0.0376 -0.1693 -0.1128l -0.1505,-0.2069 l -0.2257,-0.3950 c -0.0188,-0.0000 -0.0188,-0.0188 -0.0188 -0.0376c 0.0000,-0.0188 0.0188,-0.0376 0.0376 -0.0564c 1.2225,-1.3542 3.3855,-5.5484 4.0626 -7.0907c 0.0188,-0.0752 0.0564,-0.0940 0.1317 -0.0940c 0.0188,-0.0000 0.4326,0.1693 0.6583 0.2069c -0.8464,2.2758 -2.2382,4.7209 -3.6112 6.9026h 2.9717 v -2.9153 Z"/></g><g stroke-linejoin="miter" stroke-opacity="0.6" fill-opacity="0.0" stroke="rgb(0,0,0)" stroke-width="2.792894825056893" fill="rgb(0,0,0)" stroke-linecap="butt" stroke-miterlimit="10.0"><path d="M 167.5879,481.1203 v 8.5060 "/></g><g stroke-linejoin="miter" stroke-opacity="1.0" fill-opacity="0.6" stroke="rgb(0,0,0)" fill-rule="evenodd" stroke-width="0.0" fill="rgb(0,0,0)" stroke-linecap="butt" stroke-miterlimit="10.0"><path d="M 117.8072,510.6939 ZM 122.9607,506.2552 h -4.2507 c -0.1693,-0.0000 -0.2821,-0.1505 -0.2821 -0.3197c 0.0000,-0.3009 0.2445,-0.6959 0.4702 -0.6959h 4.3071 c 0.1881,-0.0000 0.2633,0.1693 0.2633 0.3385c 0.0000,0.2069 -0.2633,0.6771 -0.5078 0.6771ZM 124.0703,510.6939 ZM 129.8821,507.5154 c 0.0000,-1.9372 -1.0533,-2.8965 -2.2194 -2.8965c -0.8652,-0.0000 -1.5235,0.1317 -2.2570 0.4326l 0.6019,-5.1347 c 0.6207,0.0564 1.2602,0.0752 1.9184 0.0752c 0.9404,-0.0000 1.9184,-0.0564 2.9341 -0.1693l 0.1128,0.0564 l -0.2821,1.2225 c -0.7335,0.0752 -1.3354,0.0940 -1.8620 0.0940c -0.8464,-0.0000 -1.4859,-0.0752 -2.1441 -0.1505l -0.3574,2.9717 c 0.3950,-0.1505 1.0721,-0.2821 1.8056 -0.2821c 1.9937,-0.0000 3.1034,1.7304 3.1034 3.4607c 0.0000,2.1065 -1.4670,3.7240 -3.5924 3.7240c -1.0721,-0.0000 -2.6332,-0.6019 -2.6332 -1.3354c 0.0000,-0.3574 0.3009,-0.6019 0.6395 -0.6019c 0.3762,-0.0000 0.6207,0.2821 0.8464 0.5831c 0.2821,0.3385 0.5831,0.7147 1.1849 0.7147c 1.2037,-0.0000 2.2006,-1.1285 2.2006 -2.7648Z"/></g><g stroke-linejoin="miter" stroke-opacity="0.6" fill-opacity="0.0" stroke="rgb(0,0,0)" stroke-width="2.792894825056893" fill="rgb(0,0,0)" stroke-linecap="butt" stroke-miterlimit="10.0"><path d="M 125.0578,481.1203 v 8.5060 "/></g><g stroke-linejoin="miter" stroke-opacity="0.0" fill-opacity="0.0" stroke="rgb(0,0,0)" stroke-width="0.0" fill="rgb(0,0,0)" stroke-linecap="butt" stroke-miterlimit="10.0"><path d="M 550.3593,469.7789 l -0.0000,-113.4138 h -425.3016 l -0.0000,113.4138 Z"/></g><g stroke-linejoin="miter" stroke-opacity="0.0" fill-opacity="0.8" stroke="rgb(0,0,0)" stroke-width="2.792894825056893" fill="rgb(224,135,59)" stroke-linecap="butt" stroke-miterlimit="10.0"><path d="M 550.3593,428.0827 l -0.0000,-0.0000 h -8.5060 l -0.0000,0.0000 Z"/></g><g stroke-linejoin="miter" stroke-opacity="0.0" fill-opacity="0.8" stroke="rgb(0,0,0)" stroke-width="2.792894825056893" fill="rgb(224,135,59)" stroke-linecap="butt" stroke-miterlimit="10.0"><path d="M 541.8533,428.0827 l -0.0000,1.6678 h -8.5060 l -0.0000,-1.6678 Z"/></g><g stroke-linejoin="miter" stroke-opacity="0.0" fill-opacity="0.8" stroke="rgb(0,0,0)" stroke-width="2.792894825056893" fill="rgb(224,135,59)" stroke-linecap="butt" stroke-miterlimit="10.0"><path d="M 533.3473,428.0827 l -0.0000,-0.0000 h -8.5060 l -0.0000,0.0000 Z"/></g><g stroke-linejoin="miter" stroke-opacity="0.0" fill-opacity="0.8" stroke="rgb(0,0,0)" stroke-width="2.792894825056893" fill="rgb(224,135,59)" stroke-linecap="butt" stroke-miterlimit="10.0"><path d="M 524.8412,428.0827 l -0.0000,3.3357 h -8.5060 l -0.0000,-3.3357 Z"/></g><g stroke-linejoin="miter" stroke-opacity="0.0" fill-opacity="0.8" stroke="rgb(0,0,0)" stroke-width="2.792894825056893" fill="rgb(224,135,59)" stroke-linecap="butt" stroke-miterlimit="10.0"><path d="M 516.3352,428.0827 l -0.0000,5.0035 h -8.5060 l -0.0000,-5.0035 Z"/></g><g stroke-linejoin="miter" stroke-opacity="0.0" fill-opacity="0.8" stroke="rgb(0,0,0)" stroke-width="2.792894825056893" fill="rgb(224,135,59)" stroke-linecap="butt" stroke-miterlimit="10.0"><path d="M 507.8292,428.0827 l -0.0000,6.6714 h -8.5060 l -0.0000,-6.6714 Z"/></g><g stroke-linejoin="miter" stroke-opacity="0.0" fill-opacity="0.8" stroke="rgb(0,0,0)" stroke-width="2.792894825056893" fill="rgb(224,135,59)" stroke-linecap="butt" stroke-miterlimit="10.0"><path d="M 499.3231,428.0827 l -0.0000,5.0035 h -8.5060 l -0.0000,-5.0035 Z"/></g><g stroke-linejoin="miter" stroke-opacity="0.0" fill-opacity="0.8" stroke="rgb(0,0,0)" stroke-width="2.792894825056893" fill="rgb(224,135,59)" stroke-linecap="butt" stroke-miterlimit="10.0"><path d="M 490.8171,428.0827 l -0.0000,3.3357 h -8.5060 l -0.0000,-3.3357 Z"/></g><g stroke-linejoin="miter" stroke-opacity="0.0" fill-opacity="0.8" stroke="rgb(0,0,0)" stroke-width="2.792894825056893" fill="rgb(224,135,59)" stroke-linecap="butt" stroke-miterlimit="10.0"><path d="M 482.3111,428.0827 l -0.0000,3.3357 h -8.5060 l -0.0000,-3.3357 Z"/></g><g stroke-linejoin="miter" stroke-opacity="0.0" fill-opacity="0.8" stroke="rgb(0,0,0)" stroke-width="2.792894825056893" fill="rgb(224,135,59)" stroke-linecap="butt" stroke-miterlimit="10.0"><path d="M 473.8051,428.0827 l -0.0000,5.0035 h -8.5060 l -0.0000,-5.0035 Z"/></g><g stroke-linejoin="miter" stroke-opacity="0.0" fill-opacity="0.8" stroke="rgb(0,0,0)" stroke-width="2.792894825056893" fill="rgb(224,135,59)" stroke-linecap="butt" stroke-miterlimit="10.0"><path d="M 465.2990,428.0827 l -0.0000,5.0035 h -8.5060 l -0.0000,-5.0035 Z"/></g><g stroke-linejoin="miter" stroke-opacity="0.0" fill-opacity="0.8" stroke="rgb(0,0,0)" stroke-width="2.792894825056893" fill="rgb(224,135,59)" stroke-linecap="butt" stroke-miterlimit="10.0"><path d="M 456.7930,428.0827 l -0.0000,15.0106 h -8.5060 l -0.0000,-15.0106 Z"/></g><g stroke-linejoin="miter" stroke-opacity="0.0" fill-opacity="0.8" stroke="rgb(0,0,0)" stroke-width="2.792894825056893" fill="rgb(224,135,59)" stroke-linecap="butt" stroke-miterlimit="10.0"><path d="M 448.2870,428.0827 l -0.0000,20.0142 h -8.5060 l -0.0000,-20.0142 Z"/></g><g stroke-linejoin="miter" stroke-opacity="0.0" fill-opacity="0.8" stroke="rgb(0,0,0)" stroke-width="2.792894825056893" fill="rgb(224,135,59)" stroke-linecap="butt" stroke-miterlimit="10.0"><path d="M 439.7809,428.0827 l -0.0000,10.0071 h -8.5060 l -0.0000,-10.0071 Z"/></g><g stroke-linejoin="miter" stroke-opacity="0.0" fill-opacity="0.8" stroke="rgb(0,0,0)" stroke-width="2.792894825056893" fill="rgb(224,135,59)" stroke-linecap="butt" stroke-miterlimit="10.0"><path d="M 431.2749,428.0827 l -0.0000,21.6820 h -8.5060 l -0.0000,-21.6820 Z"/></g><g stroke-linejoin="miter" stroke-opacity="0.0" fill-opacity="0.8" stroke="rgb(0,0,0)" stroke-width="2.792894825056893" fill="rgb(224,135,59)" stroke-linecap="butt" stroke-miterlimit="10.0"><path d="M 422.7689,428.0827 l -0.0000,16.6785 h -8.5060 l -0.0000,-16.6785 Z"/></g><g stroke-linejoin="miter" stroke-opacity="0.0" fill-opacity="0.8" stroke="rgb(0,0,0)" stroke-width="2.792894825056893" fill="rgb(224,135,59)" stroke-linecap="butt" stroke-miterlimit="10.0"><path d="M 414.2628,428.0827 l -0.0000,-8.3392 h -8.5060 l -0.0000,8.3392 Z"/></g><g stroke-linejoin="miter" stroke-opacity="0.0" fill-opacity="0.8" stroke="rgb(0,0,0)" stroke-width="2.792894825056893" fill="rgb(224,135,59)" stroke-linecap="butt" stroke-miterlimit="10.0"><path d="M 405.7568,428.0827 l -0.0000,11.6749 h -8.5060 l -0.0000,-11.6749 Z"/></g><g stroke-linejoin="miter" stroke-opacity="0.0" fill-opacity="0.8" stroke="rgb(0,0,0)" stroke-width="2.792894825056893" fill="rgb(224,135,59)" stroke-linecap="butt" stroke-miterlimit="10.0"><path d="M 397.2508,428.0827 l -0.0000,16.6785 h -8.5060 l -0.0000,-16.6785 Z"/></g><g stroke-linejoin="miter" stroke-opacity="0.0" fill-opacity="0.8" stroke="rgb(0,0,0)" stroke-width="2.792894825056893" fill="rgb(224,135,59)" stroke-linecap="butt" stroke-miterlimit="10.0"><path d="M 388.7447,428.0827 l -0.0000,-26.6856 h -8.5060 l -0.0000,26.6856 Z"/></g><g stroke-linejoin="miter" stroke-opacity="0.0" fill-opacity="0.8" stroke="rgb(0,0,0)" stroke-width="2.792894825056893" fill="rgb(224,135,59)" stroke-linecap="butt" stroke-miterlimit="10.0"><path d="M 380.2387,428.0827 l -0.0000,-18.3463 h -8.5060 l -0.0000,18.3463 Z"/></g><g stroke-linejoin="miter" stroke-opacity="0.0" fill-opacity="0.8" stroke="rgb(0,0,0)" stroke-width="2.792894825056893" fill="rgb(224,135,59)" stroke-linecap="butt" stroke-miterlimit="10.0"><path d="M 371.7327,428.0827 l -0.0000,-8.3392 h -8.5060 l -0.0000,8.3392 Z"/></g><g stroke-linejoin="miter" stroke-opacity="0.0" fill-opacity="0.8" stroke="rgb(0,0,0)" stroke-width="2.792894825056893" fill="rgb(224,135,59)" stroke-linecap="butt" stroke-miterlimit="10.0"><path d="M 363.2266,428.0827 l -0.0000,-36.6927 h -8.5060 l -0.0000,36.6927 Z"/></g><g stroke-linejoin="miter" stroke-opacity="0.0" fill-opacity="0.8" stroke="rgb(0,0,0)" stroke-width="2.792894825056893" fill="rgb(224,135,59)" stroke-linecap="butt" stroke-miterlimit="10.0"><path d="M 354.7206,428.0827 l -0.0000,-51.7033 h -8.5060 l -0.0000,51.7033 Z"/></g><g stroke-linejoin="miter" stroke-opacity="0.0" fill-opacity="0.8" stroke="rgb(0,0,0)" stroke-width="2.792894825056893" fill="rgb(224,135,59)" stroke-linecap="butt" stroke-miterlimit="10.0"><path d="M 346.2146,428.0827 l -0.0000,-71.7175 h -8.5060 l -0.0000,71.7175 Z"/></g><g stroke-linejoin="miter" stroke-opacity="0.0" fill-opacity="0.8" stroke="rgb(0,0,0)" stroke-width="2.792894825056893" fill="rgb(224,135,59)" stroke-linecap="butt" stroke-miterlimit="10.0"><path d="M 337.7086,428.0827 l -0.0000,-33.3570 h -8.5060 l -0.0000,33.3570 Z"/></g><g stroke-linejoin="miter" stroke-opacity="0.0" fill-opacity="0.8" stroke="rgb(0,0,0)" stroke-width="2.792894825056893" fill="rgb(224,135,59)" stroke-linecap="butt" stroke-miterlimit="10.0"><path d="M 329.2025,428.0827 l -0.0000,-18.3463 h -8.5060 l -0.0000,18.3463 Z"/></g><g stroke-linejoin="miter" stroke-opacity="0.0" fill-opacity="0.8" stroke="rgb(0,0,0)" stroke-width="2.792894825056893" fill="rgb(224,135,59)" stroke-linecap="butt" stroke-miterlimit="10.0"><path d="M 320.6965,428.0827 l -0.0000,-15.0106 h -8.5060 l -0.0000,15.0106 Z"/></g><g stroke-linejoin="miter" stroke-opacity="0.0" fill-opacity="0.8" stroke="rgb(0,0,0)" stroke-width="2.792894825056893" fill="rgb(224,135,59)" stroke-linecap="butt" stroke-miterlimit="10.0"><path d="M 312.1905,428.0827 l -0.0000,-40.0284 h -8.5060 l -0.0000,40.0284 Z"/></g><g stroke-linejoin="miter" stroke-opacity="0.0" fill-opacity="0.8" stroke="rgb(0,0,0)" stroke-width="2.792894825056893" fill="rgb(224,135,59)" stroke-linecap="butt" stroke-miterlimit="10.0"><path d="M 303.6844,428.0827 l -0.0000,-40.0284 h -8.5060 l -0.0000,40.0284 Z"/></g><g stroke-linejoin="miter" stroke-opacity="0.0" fill-opacity="0.8" stroke="rgb(0,0,0)" stroke-width="2.792894825056893" fill="rgb(224,135,59)" stroke-linecap="butt" stroke-miterlimit="10.0"><path d="M 295.1784,428.0827 l -0.0000,-8.3392 h -8.5060 l -0.0000,8.3392 Z"/></g><g stroke-linejoin="miter" stroke-opacity="0.0" fill-opacity="0.8" stroke="rgb(0,0,0)" stroke-width="2.792894825056893" fill="rgb(224,135,59)" stroke-linecap="butt" stroke-miterlimit="10.0"><path d="M 286.6724,428.0827 l -0.0000,6.6714 h -8.5060 l -0.0000,-6.6714 Z"/></g><g stroke-linejoin="miter" stroke-opacity="0.0" fill-opacity="0.8" stroke="rgb(0,0,0)" stroke-width="2.792894825056893" fill="rgb(224,135,59)" stroke-linecap="butt" stroke-miterlimit="10.0"><path d="M 278.1663,428.0827 l -0.0000,30.0213 h -8.5060 l -0.0000,-30.0213 Z"/></g><g stroke-linejoin="miter" stroke-opacity="0.0" fill-opacity="0.8" stroke="rgb(0,0,0)" stroke-width="2.792894825056893" fill="rgb(224,135,59)" stroke-linecap="butt" stroke-miterlimit="10.0"><path d="M 269.6603,428.0827 l -0.0000,28.3534 h -8.5060 l -0.0000,-28.3534 Z"/></g><g stroke-linejoin="miter" stroke-opacity="0.0" fill-opacity="0.8" stroke="rgb(0,0,0)" stroke-width="2.792894825056893" fill="rgb(224,135,59)" stroke-linecap="butt" stroke-miterlimit="10.0"><path d="M 261.1543,428.0827 l -0.0000,41.6962 h -8.5060 l -0.0000,-41.6962 Z"/></g><g stroke-linejoin="miter" stroke-opacity="0.0" fill-opacity="0.8" stroke="rgb(0,0,0)" stroke-width="2.792894825056893" fill="rgb(224,135,59)" stroke-linecap="butt" stroke-miterlimit="10.0"><path d="M 252.6482,428.0827 l -0.0000,11.6749 h -8.5060 l -0.0000,-11.6749 Z"/></g><g stroke-linejoin="miter" stroke-opacity="0.0" fill-opacity="0.8" stroke="rgb(0,0,0)" stroke-width="2.792894825056893" fill="rgb(224,135,59)" stroke-linecap="butt" stroke-miterlimit="10.0"><path d="M 244.1422,428.0827 l -0.0000,8.3392 h -8.5060 l -0.0000,-8.3392 Z"/></g><g stroke-linejoin="miter" stroke-opacity="0.0" fill-opacity="0.8" stroke="rgb(0,0,0)" stroke-width="2.792894825056893" fill="rgb(224,135,59)" stroke-linecap="butt" stroke-miterlimit="10.0"><path d="M 235.6362,428.0827 l -0.0000,10.0071 h -8.5060 l -0.0000,-10.0071 Z"/></g><g stroke-linejoin="miter" stroke-opacity="0.0" fill-opacity="0.8" stroke="rgb(0,0,0)" stroke-width="2.792894825056893" fill="rgb(224,135,59)" stroke-linecap="butt" stroke-miterlimit="10.0"><path d="M 227.1301,428.0827 l -0.0000,11.6749 h -8.5060 l -0.0000,-11.6749 Z"/></g><g stroke-linejoin="miter" stroke-opacity="0.0" fill-opacity="0.8" stroke="rgb(0,0,0)" stroke-width="2.792894825056893" fill="rgb(224,135,59)" stroke-linecap="butt" stroke-miterlimit="10.0"><path d="M 218.6241,428.0827 l -0.0000,21.6820 h -8.5060 l -0.0000,-21.6820 Z"/></g><g stroke-linejoin="miter" stroke-opacity="0.0" fill-opacity="0.8" stroke="rgb(0,0,0)" stroke-width="2.792894825056893" fill="rgb(224,135,59)" stroke-linecap="butt" stroke-miterlimit="10.0"><path d="M 210.1181,428.0827 l -0.0000,15.0106 h -8.5060 l -0.0000,-15.0106 Z"/></g><g stroke-linejoin="miter" stroke-opacity="0.0" fill-opacity="0.8" stroke="rgb(0,0,0)" stroke-width="2.792894825056893" fill="rgb(224,135,59)" stroke-linecap="butt" stroke-miterlimit="10.0"><path d="M 201.6121,428.0827 l -0.0000,13.3428 h -8.5060 l -0.0000,-13.3428 Z"/></g><g stroke-linejoin="miter" stroke-opacity="0.0" fill-opacity="0.8" stroke="rgb(0,0,0)" stroke-width="2.792894825056893" fill="rgb(224,135,59)" stroke-linecap="butt" stroke-miterlimit="10.0"><path d="M 193.1060,428.0827 l -0.0000,15.0106 h -8.5060 l -0.0000,-15.0106 Z"/></g><g stroke-linejoin="miter" stroke-opacity="0.0" fill-opacity="0.8" stroke="rgb(0,0,0)" stroke-width="2.792894825056893" fill="rgb(224,135,59)" stroke-linecap="butt" stroke-miterlimit="10.0"><path d="M 184.6000,428.0827 l -0.0000,6.6714 h -8.5060 l -0.0000,-6.6714 Z"/></g><g stroke-linejoin="miter" stroke-opacity="0.0" fill-opacity="0.8" stroke="rgb(0,0,0)" stroke-width="2.792894825056893" fill="rgb(224,135,59)" stroke-linecap="butt" stroke-miterlimit="10.0"><path d="M 176.0940,428.0827 l -0.0000,-0.0000 h -8.5060 l -0.0000,0.0000 Z"/></g><g stroke-linejoin="miter" stroke-opacity="0.0" fill-opacity="0.8" stroke="rgb(0,0,0)" stroke-width="2.792894825056893" fill="rgb(224,135,59)" stroke-linecap="butt" stroke-miterlimit="10.0"><path d="M 167.5879,428.0827 l -0.0000,1.6678 h -8.5060 l -0.0000,-1.6678 Z"/></g><g stroke-linejoin="miter" stroke-opacity="0.0" fill-opacity="0.8" stroke="rgb(0,0,0)" stroke-width="2.792894825056893" fill="rgb(224,135,59)" stroke-linecap="butt" stroke-miterlimit="10.0"><path d="M 159.0819,428.0827 l -0.0000,3.3357 h -8.5060 l -0.0000,-3.3357 Z"/></g><g stroke-linejoin="miter" stroke-opacity="0.0" fill-opacity="0.8" stroke="rgb(0,0,0)" stroke-width="2.792894825056893" fill="rgb(224,135,59)" stroke-linecap="butt" stroke-miterlimit="10.0"><path d="M 150.5759,428.0827 l -0.0000,-0.0000 h -8.5060 l -0.0000,0.0000 Z"/></g><g stroke-linejoin="miter" stroke-opacity="0.0" fill-opacity="0.8" stroke="rgb(0,0,0)" stroke-width="2.792894825056893" fill="rgb(224,135,59)" stroke-linecap="butt" stroke-miterlimit="10.0"><path d="M 142.0698,428.0827 l -0.0000,1.6678 h -8.5060 l -0.0000,-1.6678 Z"/></g><g stroke-linejoin="miter" stroke-opacity="0.0" fill-opacity="0.8" stroke="rgb(0,0,0)" stroke-width="2.792894825056893" fill="rgb(224,135,59)" stroke-linecap="butt" stroke-miterlimit="10.0"><path d="M 133.5638,428.0827 l -0.0000,-0.0000 h -8.5060 l -0.0000,0.0000 Z"/></g><g stroke-linejoin="miter" stroke-opacity="0.0" fill-opacity="0.8" stroke="rgb(0,0,0)" stroke-width="2.792894825056893" fill="rgb(224,135,59)" stroke-linecap="butt" stroke-miterlimit="10.0"><path d="M 550.3593,337.7024 l -0.0000,-0.0000 h -8.5060 l -0.0000,0.0000 Z"/></g><g stroke-linejoin="miter" stroke-opacity="0.0" fill-opacity="0.8" stroke="rgb(0,0,0)" stroke-width="2.792894825056893" fill="rgb(224,135,59)" stroke-linecap="butt" stroke-miterlimit="10.0"><path d="M 541.8533,337.7024 l -0.0000,-2.8353 h -8.5060 l -0.0000,2.8353 Z"/></g><g stroke-linejoin="miter" stroke-opacity="0.0" fill-opacity="0.8" stroke="rgb(0,0,0)" stroke-width="2.792894825056893" fill="rgb(224,135,59)" stroke-linecap="butt" stroke-miterlimit="10.0"><path d="M 533.3473,337.7024 l -0.0000,-0.0000 h -8.5060 l -0.0000,0.0000 Z"/></g><g stroke-linejoin="miter" stroke-opacity="0.0" fill-opacity="0.8" stroke="rgb(0,0,0)" stroke-width="2.792894825056893" fill="rgb(224,135,59)" stroke-linecap="butt" stroke-miterlimit="10.0"><path d="M 524.8412,337.7024 l -0.0000,-5.6707 h -8.5060 l -0.0000,5.6707 Z"/></g><g stroke-linejoin="miter" stroke-opacity="0.0" fill-opacity="0.8" stroke="rgb(0,0,0)" stroke-width="2.792894825056893" fill="rgb(224,135,59)" stroke-linecap="butt" stroke-miterlimit="10.0"><path d="M 516.3352,337.7024 l -0.0000,-8.5060 h -8.5060 l -0.0000,8.5060 Z"/></g><g stroke-linejoin="miter" stroke-opacity="0.0" fill-opacity="0.8" stroke="rgb(0,0,0)" stroke-width="2.792894825056893" fill="rgb(224,135,59)" stroke-linecap="butt" stroke-miterlimit="10.0"><path d="M 507.8292,337.7024 l -0.0000,-11.3414 h -8.5060 l -0.0000,11.3414 Z"/></g><g stroke-linejoin="miter" stroke-opacity="0.0" fill-opacity="0.8" stroke="rgb(0,0,0)" stroke-width="2.792894825056893" fill="rgb(224,135,59)" stroke-linecap="butt" stroke-miterlimit="10.0"><path d="M 499.3231,337.7024 l -0.0000,-8.5060 h -8.5060 l -0.0000,8.5060 Z"/></g><g stroke-linejoin="miter" stroke-opacity="0.0" fill-opacity="0.8" stroke="rgb(0,0,0)" stroke-width="2.792894825056893" fill="rgb(224,135,59)" stroke-linecap="butt" stroke-miterlimit="10.0"><path d="M 490.8171,337.7024 l -0.0000,-5.6707 h -8.5060 l -0.0000,5.6707 Z"/></g><g stroke-linejoin="miter" stroke-opacity="0.0" fill-opacity="0.8" stroke="rgb(0,0,0)" stroke-width="2.792894825056893" fill="rgb(224,135,59)" stroke-linecap="butt" stroke-miterlimit="10.0"><path d="M 482.3111,337.7024 l -0.0000,-5.6707 h -8.5060 l -0.0000,5.6707 Z"/></g><g stroke-linejoin="miter" stroke-opacity="0.0" fill-opacity="0.8" stroke="rgb(0,0,0)" stroke-width="2.792894825056893" fill="rgb(224,135,59)" stroke-linecap="butt" stroke-miterlimit="10.0"><path d="M 473.8051,337.7024 l -0.0000,-11.3414 h -8.5060 l -0.0000,11.3414 Z"/></g><g stroke-linejoin="miter" stroke-opacity="0.0" fill-opacity="0.8" stroke="rgb(0,0,0)" stroke-width="2.792894825056893" fill="rgb(224,135,59)" stroke-linecap="butt" stroke-miterlimit="10.0"><path d="M 465.2990,337.7024 l -0.0000,-11.3414 h -8.5060 l -0.0000,11.3414 Z"/></g><g stroke-linejoin="miter" stroke-opacity="0.0" fill-opacity="0.8" stroke="rgb(0,0,0)" stroke-width="2.792894825056893" fill="rgb(224,135,59)" stroke-linecap="butt" stroke-miterlimit="10.0"><path d="M 456.7930,337.7024 l -0.0000,-31.1888 h -8.5060 l -0.0000,31.1888 Z"/></g><g stroke-linejoin="miter" stroke-opacity="0.0" fill-opacity="0.8" stroke="rgb(0,0,0)" stroke-width="2.792894825056893" fill="rgb(224,135,59)" stroke-linecap="butt" stroke-miterlimit="10.0"><path d="M 448.2870,337.7024 l -0.0000,-39.6948 h -8.5060 l -0.0000,39.6948 Z"/></g><g stroke-linejoin="miter" stroke-opacity="0.0" fill-opacity="0.8" stroke="rgb(0,0,0)" stroke-width="2.792894825056893" fill="rgb(224,135,59)" stroke-linecap="butt" stroke-miterlimit="10.0"><path d="M 439.7809,337.7024 l -0.0000,-34.0241 h -8.5060 l -0.0000,34.0241 Z"/></g><g stroke-linejoin="miter" stroke-opacity="0.0" fill-opacity="0.8" stroke="rgb(0,0,0)" stroke-width="2.792894825056893" fill="rgb(224,135,59)" stroke-linecap="butt" stroke-miterlimit="10.0"><path d="M 431.2749,337.7024 l -0.0000,-59.5422 h -8.5060 l -0.0000,59.5422 Z"/></g><g stroke-linejoin="miter" stroke-opacity="0.0" fill-opacity="0.8" stroke="rgb(0,0,0)" stroke-width="2.792894825056893" fill="rgb(224,135,59)" stroke-linecap="butt" stroke-miterlimit="10.0"><path d="M 422.7689,337.7024 l -0.0000,-76.5543 h -8.5060 l -0.0000,76.5543 Z"/></g><g stroke-linejoin="miter" stroke-opacity="0.0" fill-opacity="0.8" stroke="rgb(0,0,0)" stroke-width="2.792894825056893" fill="rgb(224,135,59)" stroke-linecap="butt" stroke-miterlimit="10.0"><path d="M 414.2628,337.7024 l -0.0000,-53.8715 h -8.5060 l -0.0000,53.8715 Z"/></g><g stroke-linejoin="miter" stroke-opacity="0.0" fill-opacity="0.8" stroke="rgb(0,0,0)" stroke-width="2.792894825056893" fill="rgb(224,135,59)" stroke-linecap="butt" stroke-miterlimit="10.0"><path d="M 405.7568,337.7024 l -0.0000,-96.4017 h -8.5060 l -0.0000,96.4017 Z"/></g><g stroke-linejoin="miter" stroke-opacity="0.0" fill-opacity="0.8" stroke="rgb(0,0,0)" stroke-width="2.792894825056893" fill="rgb(224,135,59)" stroke-linecap="butt" stroke-miterlimit="10.0"><path d="M 397.2508,337.7024 l -0.0000,-113.4138 h -8.5060 l -0.0000,113.4138 Z"/></g><g stroke-linejoin="miter" stroke-opacity="0.0" fill-opacity="0.8" stroke="rgb(0,0,0)" stroke-width="2.792894825056893" fill="rgb(224,135,59)" stroke-linecap="butt" stroke-miterlimit="10.0"><path d="M 388.7447,337.7024 l -0.0000,-107.7431 h -8.5060 l -0.0000,107.7431 Z"/></g><g stroke-linejoin="miter" stroke-opacity="0.0" fill-opacity="0.8" stroke="rgb(0,0,0)" stroke-width="2.792894825056893" fill="rgb(224,135,59)" stroke-linecap="butt" stroke-miterlimit="10.0"><path d="M 380.2387,337.7024 l -0.0000,-121.9198 h -8.5060 l -0.0000,121.9198 Z"/></g><g stroke-linejoin="miter" stroke-opacity="0.0" fill-opacity="0.8" stroke="rgb(0,0,0)" stroke-width="2.792894825056893" fill="rgb(224,135,59)" stroke-linecap="butt" stroke-miterlimit="10.0"><path d="M 371.7327,337.7024 l -0.0000,-144.6025 h -8.5060 l -0.0000,144.6025 Z"/></g><g stroke-linejoin="miter" stroke-opacity="0.0" fill-opacity="0.8" stroke="rgb(0,0,0)" stroke-width="2.792894825056893" fill="rgb(224,135,59)" stroke-linecap="butt" stroke-miterlimit="10.0"><path d="M 363.2266,337.7024 l -0.0000,-119.0844 h -8.5060 l -0.0000,119.0844 Z"/></g><g stroke-linejoin="miter" stroke-opacity="0.0" fill-opacity="0.8" stroke="rgb(0,0,0)" stroke-width="2.792894825056893" fill="rgb(224,135,59)" stroke-linecap="butt" stroke-miterlimit="10.0"><path d="M 354.7206,337.7024 l -0.0000,-127.5905 h -8.5060 l -0.0000,127.5905 Z"/></g><g stroke-linejoin="miter" stroke-opacity="0.0" fill-opacity="0.8" stroke="rgb(0,0,0)" stroke-width="2.792894825056893" fill="rgb(224,135,59)" stroke-linecap="butt" stroke-miterlimit="10.0"><path d="M 346.2146,337.7024 l -0.0000,-161.6146 h -8.5060 l -0.0000,161.6146 Z"/></g><g stroke-linejoin="miter" stroke-opacity="0.0" fill-opacity="0.8" stroke="rgb(0,0,0)" stroke-width="2.792894825056893" fill="rgb(224,135,59)" stroke-linecap="butt" stroke-miterlimit="10.0"><path d="M 337.7086,337.7024 l -0.0000,-158.7793 h -8.5060 l -0.0000,158.7793 Z"/></g><g stroke-linejoin="miter" stroke-opacity="0.0" fill-opacity="0.8" stroke="rgb(0,0,0)" stroke-width="2.792894825056893" fill="rgb(224,135,59)" stroke-linecap="butt" stroke-miterlimit="10.0"><path d="M 329.2025,337.7024 l -0.0000,-164.4499 h -8.5060 l -0.0000,164.4499 Z"/></g><g stroke-linejoin="miter" stroke-opacity="0.0" fill-opacity="0.8" stroke="rgb(0,0,0)" stroke-width="2.792894825056893" fill="rgb(224,135,59)" stroke-linecap="butt" stroke-miterlimit="10.0"><path d="M 320.6965,337.7024 l -0.0000,-144.6025 h -8.5060 l -0.0000,144.6025 Z"/></g><g stroke-linejoin="miter" stroke-opacity="0.0" fill-opacity="0.8" stroke="rgb(0,0,0)" stroke-width="2.792894825056893" fill="rgb(224,135,59)" stroke-linecap="butt" stroke-miterlimit="10.0"><path d="M 312.1905,337.7024 l -0.0000,-110.5784 h -8.5060 l -0.0000,110.5784 Z"/></g><g stroke-linejoin="miter" stroke-opacity="0.0" fill-opacity="0.8" stroke="rgb(0,0,0)" stroke-width="2.792894825056893" fill="rgb(224,135,59)" stroke-linecap="butt" stroke-miterlimit="10.0"><path d="M 303.6844,337.7024 l -0.0000,-107.7431 h -8.5060 l -0.0000,107.7431 Z"/></g><g stroke-linejoin="miter" stroke-opacity="0.0" fill-opacity="0.8" stroke="rgb(0,0,0)" stroke-width="2.792894825056893" fill="rgb(224,135,59)" stroke-linecap="butt" stroke-miterlimit="10.0"><path d="M 295.1784,337.7024 l -0.0000,-99.2370 h -8.5060 l -0.0000,99.2370 Z"/></g><g stroke-linejoin="miter" stroke-opacity="0.0" fill-opacity="0.8" stroke="rgb(0,0,0)" stroke-width="2.792894825056893" fill="rgb(224,135,59)" stroke-linecap="butt" stroke-miterlimit="10.0"><path d="M 286.6724,337.7024 l -0.0000,-99.2370 h -8.5060 l -0.0000,99.2370 Z"/></g><g stroke-linejoin="miter" stroke-opacity="0.0" fill-opacity="0.8" stroke="rgb(0,0,0)" stroke-width="2.792894825056893" fill="rgb(224,135,59)" stroke-linecap="butt" stroke-miterlimit="10.0"><path d="M 278.1663,337.7024 l -0.0000,-116.2491 h -8.5060 l -0.0000,116.2491 Z"/></g><g stroke-linejoin="miter" stroke-opacity="0.0" fill-opacity="0.8" stroke="rgb(0,0,0)" stroke-width="2.792894825056893" fill="rgb(224,135,59)" stroke-linecap="butt" stroke-miterlimit="10.0"><path d="M 269.6603,337.7024 l -0.0000,-90.7310 h -8.5060 l -0.0000,90.7310 Z"/></g><g stroke-linejoin="miter" stroke-opacity="0.0" fill-opacity="0.8" stroke="rgb(0,0,0)" stroke-width="2.792894825056893" fill="rgb(224,135,59)" stroke-linecap="butt" stroke-miterlimit="10.0"><path d="M 261.1543,337.7024 l -0.0000,-99.2370 h -8.5060 l -0.0000,99.2370 Z"/></g><g stroke-linejoin="miter" stroke-opacity="0.0" fill-opacity="0.8" stroke="rgb(0,0,0)" stroke-width="2.792894825056893" fill="rgb(224,135,59)" stroke-linecap="butt" stroke-miterlimit="10.0"><path d="M 252.6482,337.7024 l -0.0000,-56.7069 h -8.5060 l -0.0000,56.7069 Z"/></g><g stroke-linejoin="miter" stroke-opacity="0.0" fill-opacity="0.8" stroke="rgb(0,0,0)" stroke-width="2.792894825056893" fill="rgb(224,135,59)" stroke-linecap="butt" stroke-miterlimit="10.0"><path d="M 244.1422,337.7024 l -0.0000,-31.1888 h -8.5060 l -0.0000,31.1888 Z"/></g><g stroke-linejoin="miter" stroke-opacity="0.0" fill-opacity="0.8" stroke="rgb(0,0,0)" stroke-width="2.792894825056893" fill="rgb(224,135,59)" stroke-linecap="butt" stroke-miterlimit="10.0"><path d="M 235.6362,337.7024 l -0.0000,-34.0241 h -8.5060 l -0.0000,34.0241 Z"/></g><g stroke-linejoin="miter" stroke-opacity="0.0" fill-opacity="0.8" stroke="rgb(0,0,0)" stroke-width="2.792894825056893" fill="rgb(224,135,59)" stroke-linecap="butt" stroke-miterlimit="10.0"><path d="M 227.1301,337.7024 l -0.0000,-28.3534 h -8.5060 l -0.0000,28.3534 Z"/></g><g stroke-linejoin="miter" stroke-opacity="0.0" fill-opacity="0.8" stroke="rgb(0,0,0)" stroke-width="2.792894825056893" fill="rgb(224,135,59)" stroke-linecap="butt" stroke-miterlimit="10.0"><path d="M 218.6241,337.7024 l -0.0000,-36.8595 h -8.5060 l -0.0000,36.8595 Z"/></g><g stroke-linejoin="miter" stroke-opacity="0.0" fill-opacity="0.8" stroke="rgb(0,0,0)" stroke-width="2.792894825056893" fill="rgb(224,135,59)" stroke-linecap="butt" stroke-miterlimit="10.0"><path d="M 210.1181,337.7024 l -0.0000,-25.5181 h -8.5060 l -0.0000,25.5181 Z"/></g><g stroke-linejoin="miter" stroke-opacity="0.0" fill-opacity="0.8" stroke="rgb(0,0,0)" stroke-width="2.792894825056893" fill="rgb(224,135,59)" stroke-linecap="butt" stroke-miterlimit="10.0"><path d="M 201.6121,337.7024 l -0.0000,-22.6828 h -8.5060 l -0.0000,22.6828 Z"/></g><g stroke-linejoin="miter" stroke-opacity="0.0" fill-opacity="0.8" stroke="rgb(0,0,0)" stroke-width="2.792894825056893" fill="rgb(224,135,59)" stroke-linecap="butt" stroke-miterlimit="10.0"><path d="M 193.1060,337.7024 l -0.0000,-25.5181 h -8.5060 l -0.0000,25.5181 Z"/></g><g stroke-linejoin="miter" stroke-opacity="0.0" fill-opacity="0.8" stroke="rgb(0,0,0)" stroke-width="2.792894825056893" fill="rgb(224,135,59)" stroke-linecap="butt" stroke-miterlimit="10.0"><path d="M 184.6000,337.7024 l -0.0000,-11.3414 h -8.5060 l -0.0000,11.3414 Z"/></g><g stroke-linejoin="miter" stroke-opacity="0.0" fill-opacity="0.8" stroke="rgb(0,0,0)" stroke-width="2.792894825056893" fill="rgb(224,135,59)" stroke-linecap="butt" stroke-miterlimit="10.0"><path d="M 176.0940,337.7024 l -0.0000,-2.8353 h -8.5060 l -0.0000,2.8353 Z"/></g><g stroke-linejoin="miter" stroke-opacity="0.0" fill-opacity="0.8" stroke="rgb(0,0,0)" stroke-width="2.792894825056893" fill="rgb(224,135,59)" stroke-linecap="butt" stroke-miterlimit="10.0"><path d="M 167.5879,337.7024 l -0.0000,-2.8353 h -8.5060 l -0.0000,2.8353 Z"/></g><g stroke-linejoin="miter" stroke-opacity="0.0" fill-opacity="0.8" stroke="rgb(0,0,0)" stroke-width="2.792894825056893" fill="rgb(224,135,59)" stroke-linecap="butt" stroke-miterlimit="10.0"><path d="M 159.0819,337.7024 l -0.0000,-5.6707 h -8.5060 l -0.0000,5.6707 Z"/></g><g stroke-linejoin="miter" stroke-opacity="0.0" fill-opacity="0.8" stroke="rgb(0,0,0)" stroke-width="2.792894825056893" fill="rgb(224,135,59)" stroke-linecap="butt" stroke-miterlimit="10.0"><path d="M 150.5759,337.7024 l -0.0000,-0.0000 h -8.5060 l -0.0000,0.0000 Z"/></g><g stroke-linejoin="miter" stroke-opacity="0.0" fill-opacity="0.8" stroke="rgb(0,0,0)" stroke-width="2.792894825056893" fill="rgb(224,135,59)" stroke-linecap="butt" stroke-miterlimit="10.0"><path d="M 142.0698,337.7024 l -0.0000,-2.8353 h -8.5060 l -0.0000,2.8353 Z"/></g><g stroke-linejoin="miter" stroke-opacity="0.0" fill-opacity="0.8" stroke="rgb(0,0,0)" stroke-width="2.792894825056893" fill="rgb(224,135,59)" stroke-linecap="butt" stroke-miterlimit="10.0"><path d="M 133.5638,337.7024 l -0.0000,-0.0000 h -8.5060 l -0.0000,0.0000 Z"/></g><g stroke-linejoin="miter" stroke-opacity="0.0" fill-opacity="0.2" stroke="rgb(0,0,0)" stroke-width="2.792894825056893" fill="rgb(93,165,218)" stroke-linecap="butt" stroke-miterlimit="10.0"><path d="M 550.3593,337.7024 l -0.0000,-0.0000 h -8.5060 l -0.0000,0.0000 Z"/></g><g stroke-linejoin="miter" stroke-opacity="0.0" fill-opacity="0.2" stroke="rgb(0,0,0)" stroke-width="2.792894825056893" fill="rgb(93,165,218)" stroke-linecap="butt" stroke-miterlimit="10.0"><path d="M 541.8533,337.7024 l -0.0000,-0.0000 h -8.5060 l -0.0000,0.0000 Z"/></g><g stroke-linejoin="miter" stroke-opacity="0.0" fill-opacity="0.2" stroke="rgb(0,0,0)" stroke-width="2.792894825056893" fill="rgb(93,165,218)" stroke-linecap="butt" stroke-miterlimit="10.0"><path d="M 533.3473,337.7024 l -0.0000,-0.0000 h -8.5060 l -0.0000,0.0000 Z"/></g><g stroke-linejoin="miter" stroke-opacity="0.0" fill-opacity="0.2" stroke="rgb(0,0,0)" stroke-width="2.792894825056893" fill="rgb(93,165,218)" stroke-linecap="butt" stroke-miterlimit="10.0"><path d="M 524.8412,337.7024 l -0.0000,-0.0000 h -8.5060 l -0.0000,0.0000 Z"/></g><g stroke-linejoin="miter" stroke-opacity="0.0" fill-opacity="0.2" stroke="rgb(0,0,0)" stroke-width="2.792894825056893" fill="rgb(93,165,218)" stroke-linecap="butt" stroke-miterlimit="10.0"><path d="M 516.3352,337.7024 l -0.0000,-0.0000 h -8.5060 l -0.0000,0.0000 Z"/></g><g stroke-linejoin="miter" stroke-opacity="0.0" fill-opacity="0.2" stroke="rgb(0,0,0)" stroke-width="2.792894825056893" fill="rgb(93,165,218)" stroke-linecap="butt" stroke-miterlimit="10.0"><path d="M 507.8292,337.7024 l -0.0000,-0.0000 h -8.5060 l -0.0000,0.0000 Z"/></g><g stroke-linejoin="miter" stroke-opacity="0.0" fill-opacity="0.2" stroke="rgb(0,0,0)" stroke-width="2.792894825056893" fill="rgb(93,165,218)" stroke-linecap="butt" stroke-miterlimit="10.0"><path d="M 499.3231,337.7024 l -0.0000,-0.0000 h -8.5060 l -0.0000,0.0000 Z"/></g><g stroke-linejoin="miter" stroke-opacity="0.0" fill-opacity="0.2" stroke="rgb(0,0,0)" stroke-width="2.792894825056893" fill="rgb(93,165,218)" stroke-linecap="butt" stroke-miterlimit="10.0"><path d="M 490.8171,337.7024 l -0.0000,-0.0000 h -8.5060 l -0.0000,0.0000 Z"/></g><g stroke-linejoin="miter" stroke-opacity="0.0" fill-opacity="0.2" stroke="rgb(0,0,0)" stroke-width="2.792894825056893" fill="rgb(93,165,218)" stroke-linecap="butt" stroke-miterlimit="10.0"><path d="M 482.3111,337.7024 l -0.0000,-0.0000 h -8.5060 l -0.0000,0.0000 Z"/></g><g stroke-linejoin="miter" stroke-opacity="0.0" fill-opacity="0.2" stroke="rgb(0,0,0)" stroke-width="2.792894825056893" fill="rgb(93,165,218)" stroke-linecap="butt" stroke-miterlimit="10.0"><path d="M 473.8051,337.7024 l -0.0000,-2.8353 h -8.5060 l -0.0000,2.8353 Z"/></g><g stroke-linejoin="miter" stroke-opacity="0.0" fill-opacity="0.2" stroke="rgb(0,0,0)" stroke-width="2.792894825056893" fill="rgb(93,165,218)" stroke-linecap="butt" stroke-miterlimit="10.0"><path d="M 465.2990,337.7024 l -0.0000,-2.8353 h -8.5060 l -0.0000,2.8353 Z"/></g><g stroke-linejoin="miter" stroke-opacity="0.0" fill-opacity="0.2" stroke="rgb(0,0,0)" stroke-width="2.792894825056893" fill="rgb(93,165,218)" stroke-linecap="butt" stroke-miterlimit="10.0"><path d="M 456.7930,337.7024 l -0.0000,-5.6707 h -8.5060 l -0.0000,5.6707 Z"/></g><g stroke-linejoin="miter" stroke-opacity="0.0" fill-opacity="0.2" stroke="rgb(0,0,0)" stroke-width="2.792894825056893" fill="rgb(93,165,218)" stroke-linecap="butt" stroke-miterlimit="10.0"><path d="M 448.2870,337.7024 l -0.0000,-5.6707 h -8.5060 l -0.0000,5.6707 Z"/></g><g stroke-linejoin="miter" stroke-opacity="0.0" fill-opacity="0.2" stroke="rgb(0,0,0)" stroke-width="2.792894825056893" fill="rgb(93,165,218)" stroke-linecap="butt" stroke-miterlimit="10.0"><path d="M 439.7809,337.7024 l -0.0000,-17.0121 h -8.5060 l -0.0000,17.0121 Z"/></g><g stroke-linejoin="miter" stroke-opacity="0.0" fill-opacity="0.2" stroke="rgb(0,0,0)" stroke-width="2.792894825056893" fill="rgb(93,165,218)" stroke-linecap="butt" stroke-miterlimit="10.0"><path d="M 431.2749,337.7024 l -0.0000,-22.6828 h -8.5060 l -0.0000,22.6828 Z"/></g><g stroke-linejoin="miter" stroke-opacity="0.0" fill-opacity="0.2" stroke="rgb(0,0,0)" stroke-width="2.792894825056893" fill="rgb(93,165,218)" stroke-linecap="butt" stroke-miterlimit="10.0"><path d="M 422.7689,337.7024 l -0.0000,-48.2008 h -8.5060 l -0.0000,48.2008 Z"/></g><g stroke-linejoin="miter" stroke-opacity="0.0" fill-opacity="0.2" stroke="rgb(0,0,0)" stroke-width="2.792894825056893" fill="rgb(93,165,218)" stroke-linecap="butt" stroke-miterlimit="10.0"><path d="M 414.2628,337.7024 l -0.0000,-68.0483 h -8.5060 l -0.0000,68.0483 Z"/></g><g stroke-linejoin="miter" stroke-opacity="0.0" fill-opacity="0.2" stroke="rgb(0,0,0)" stroke-width="2.792894825056893" fill="rgb(93,165,218)" stroke-linecap="butt" stroke-miterlimit="10.0"><path d="M 405.7568,337.7024 l -0.0000,-76.5543 h -8.5060 l -0.0000,76.5543 Z"/></g><g stroke-linejoin="miter" stroke-opacity="0.0" fill-opacity="0.2" stroke="rgb(0,0,0)" stroke-width="2.792894825056893" fill="rgb(93,165,218)" stroke-linecap="butt" stroke-miterlimit="10.0"><path d="M 397.2508,337.7024 l -0.0000,-85.0603 h -8.5060 l -0.0000,85.0603 Z"/></g><g stroke-linejoin="miter" stroke-opacity="0.0" fill-opacity="0.2" stroke="rgb(0,0,0)" stroke-width="2.792894825056893" fill="rgb(93,165,218)" stroke-linecap="butt" stroke-miterlimit="10.0"><path d="M 388.7447,337.7024 l -0.0000,-153.1086 h -8.5060 l -0.0000,153.1086 Z"/></g><g stroke-linejoin="miter" stroke-opacity="0.0" fill-opacity="0.2" stroke="rgb(0,0,0)" stroke-width="2.792894825056893" fill="rgb(93,165,218)" stroke-linecap="butt" stroke-miterlimit="10.0"><path d="M 380.2387,337.7024 l -0.0000,-153.1086 h -8.5060 l -0.0000,153.1086 Z"/></g><g stroke-linejoin="miter" stroke-opacity="0.0" fill-opacity="0.2" stroke="rgb(0,0,0)" stroke-width="2.792894825056893" fill="rgb(93,165,218)" stroke-linecap="butt" stroke-miterlimit="10.0"><path d="M 371.7327,337.7024 l -0.0000,-158.7793 h -8.5060 l -0.0000,158.7793 Z"/></g><g stroke-linejoin="miter" stroke-opacity="0.0" fill-opacity="0.2" stroke="rgb(0,0,0)" stroke-width="2.792894825056893" fill="rgb(93,165,218)" stroke-linecap="butt" stroke-miterlimit="10.0"><path d="M 363.2266,337.7024 l -0.0000,-181.4620 h -8.5060 l -0.0000,181.4620 Z"/></g><g stroke-linejoin="miter" stroke-opacity="0.0" fill-opacity="0.2" stroke="rgb(0,0,0)" stroke-width="2.792894825056893" fill="rgb(93,165,218)" stroke-linecap="butt" stroke-miterlimit="10.0"><path d="M 354.7206,337.7024 l -0.0000,-215.4861 h -8.5060 l -0.0000,215.4861 Z"/></g><g stroke-linejoin="miter" stroke-opacity="0.0" fill-opacity="0.2" stroke="rgb(0,0,0)" stroke-width="2.792894825056893" fill="rgb(93,165,218)" stroke-linecap="butt" stroke-miterlimit="10.0"><path d="M 346.2146,337.7024 l -0.0000,-283.5344 h -8.5060 l -0.0000,283.5344 Z"/></g><g stroke-linejoin="miter" stroke-opacity="0.0" fill-opacity="0.2" stroke="rgb(0,0,0)" stroke-width="2.792894825056893" fill="rgb(93,165,218)" stroke-linecap="butt" stroke-miterlimit="10.0"><path d="M 337.7086,337.7024 l -0.0000,-215.4861 h -8.5060 l -0.0000,215.4861 Z"/></g><g stroke-linejoin="miter" stroke-opacity="0.0" fill-opacity="0.2" stroke="rgb(0,0,0)" stroke-width="2.792894825056893" fill="rgb(93,165,218)" stroke-linecap="butt" stroke-miterlimit="10.0"><path d="M 329.2025,337.7024 l -0.0000,-195.6387 h -8.5060 l -0.0000,195.6387 Z"/></g><g stroke-linejoin="miter" stroke-opacity="0.0" fill-opacity="0.2" stroke="rgb(0,0,0)" stroke-width="2.792894825056893" fill="rgb(93,165,218)" stroke-linecap="butt" stroke-miterlimit="10.0"><path d="M 320.6965,337.7024 l -0.0000,-170.1206 h -8.5060 l -0.0000,170.1206 Z"/></g><g stroke-linejoin="miter" stroke-opacity="0.0" fill-opacity="0.2" stroke="rgb(0,0,0)" stroke-width="2.792894825056893" fill="rgb(93,165,218)" stroke-linecap="butt" stroke-miterlimit="10.0"><path d="M 312.1905,337.7024 l -0.0000,-178.6267 h -8.5060 l -0.0000,178.6267 Z"/></g><g stroke-linejoin="miter" stroke-opacity="0.0" fill-opacity="0.2" stroke="rgb(0,0,0)" stroke-width="2.792894825056893" fill="rgb(93,165,218)" stroke-linecap="butt" stroke-miterlimit="10.0"><path d="M 303.6844,337.7024 l -0.0000,-175.7913 h -8.5060 l -0.0000,175.7913 Z"/></g><g stroke-linejoin="miter" stroke-opacity="0.0" fill-opacity="0.2" stroke="rgb(0,0,0)" stroke-width="2.792894825056893" fill="rgb(93,165,218)" stroke-linecap="butt" stroke-miterlimit="10.0"><path d="M 295.1784,337.7024 l -0.0000,-113.4138 h -8.5060 l -0.0000,113.4138 Z"/></g><g stroke-linejoin="miter" stroke-opacity="0.0" fill-opacity="0.2" stroke="rgb(0,0,0)" stroke-width="2.792894825056893" fill="rgb(93,165,218)" stroke-linecap="butt" stroke-miterlimit="10.0"><path d="M 286.6724,337.7024 l -0.0000,-87.8957 h -8.5060 l -0.0000,87.8957 Z"/></g><g stroke-linejoin="miter" stroke-opacity="0.0" fill-opacity="0.2" stroke="rgb(0,0,0)" stroke-width="2.792894825056893" fill="rgb(93,165,218)" stroke-linecap="butt" stroke-miterlimit="10.0"><path d="M 278.1663,337.7024 l -0.0000,-65.2129 h -8.5060 l -0.0000,65.2129 Z"/></g><g stroke-linejoin="miter" stroke-opacity="0.0" fill-opacity="0.2" stroke="rgb(0,0,0)" stroke-width="2.792894825056893" fill="rgb(93,165,218)" stroke-linecap="butt" stroke-miterlimit="10.0"><path d="M 269.6603,337.7024 l -0.0000,-42.5302 h -8.5060 l -0.0000,42.5302 Z"/></g><g stroke-linejoin="miter" stroke-opacity="0.0" fill-opacity="0.2" stroke="rgb(0,0,0)" stroke-width="2.792894825056893" fill="rgb(93,165,218)" stroke-linecap="butt" stroke-miterlimit="10.0"><path d="M 261.1543,337.7024 l -0.0000,-28.3534 h -8.5060 l -0.0000,28.3534 Z"/></g><g stroke-linejoin="miter" stroke-opacity="0.0" fill-opacity="0.2" stroke="rgb(0,0,0)" stroke-width="2.792894825056893" fill="rgb(93,165,218)" stroke-linecap="butt" stroke-miterlimit="10.0"><path d="M 252.6482,337.7024 l -0.0000,-36.8595 h -8.5060 l -0.0000,36.8595 Z"/></g><g stroke-linejoin="miter" stroke-opacity="0.0" fill-opacity="0.2" stroke="rgb(0,0,0)" stroke-width="2.792894825056893" fill="rgb(93,165,218)" stroke-linecap="butt" stroke-miterlimit="10.0"><path d="M 244.1422,337.7024 l -0.0000,-17.0121 h -8.5060 l -0.0000,17.0121 Z"/></g><g stroke-linejoin="miter" stroke-opacity="0.0" fill-opacity="0.2" stroke="rgb(0,0,0)" stroke-width="2.792894825056893" fill="rgb(93,165,218)" stroke-linecap="butt" stroke-miterlimit="10.0"><path d="M 235.6362,337.7024 l -0.0000,-17.0121 h -8.5060 l -0.0000,17.0121 Z"/></g><g stroke-linejoin="miter" stroke-opacity="0.0" fill-opacity="0.2" stroke="rgb(0,0,0)" stroke-width="2.792894825056893" fill="rgb(93,165,218)" stroke-linecap="butt" stroke-miterlimit="10.0"><path d="M 227.1301,337.7024 l -0.0000,-8.5060 h -8.5060 l -0.0000,8.5060 Z"/></g><g stroke-linejoin="miter" stroke-opacity="0.0" fill-opacity="0.2" stroke="rgb(0,0,0)" stroke-width="2.792894825056893" fill="rgb(93,165,218)" stroke-linecap="butt" stroke-miterlimit="10.0"><path d="M 218.6241,337.7024 l -0.0000,-0.0000 h -8.5060 l -0.0000,0.0000 Z"/></g><g stroke-linejoin="miter" stroke-opacity="0.0" fill-opacity="0.2" stroke="rgb(0,0,0)" stroke-width="2.792894825056893" fill="rgb(93,165,218)" stroke-linecap="butt" stroke-miterlimit="10.0"><path d="M 210.1181,337.7024 l -0.0000,-0.0000 h -8.5060 l -0.0000,0.0000 Z"/></g><g stroke-linejoin="miter" stroke-opacity="0.0" fill-opacity="0.2" stroke="rgb(0,0,0)" stroke-width="2.792894825056893" fill="rgb(93,165,218)" stroke-linecap="butt" stroke-miterlimit="10.0"><path d="M 201.6121,337.7024 l -0.0000,-0.0000 h -8.5060 l -0.0000,0.0000 Z"/></g><g stroke-linejoin="miter" stroke-opacity="0.0" fill-opacity="0.2" stroke="rgb(0,0,0)" stroke-width="2.792894825056893" fill="rgb(93,165,218)" stroke-linecap="butt" stroke-miterlimit="10.0"><path d="M 193.1060,337.7024 l -0.0000,-0.0000 h -8.5060 l -0.0000,0.0000 Z"/></g><g stroke-linejoin="miter" stroke-opacity="0.0" fill-opacity="0.2" stroke="rgb(0,0,0)" stroke-width="2.792894825056893" fill="rgb(93,165,218)" stroke-linecap="butt" stroke-miterlimit="10.0"><path d="M 184.6000,337.7024 l -0.0000,-0.0000 h -8.5060 l -0.0000,0.0000 Z"/></g><g stroke-linejoin="miter" stroke-opacity="0.0" fill-opacity="0.2" stroke="rgb(0,0,0)" stroke-width="2.792894825056893" fill="rgb(93,165,218)" stroke-linecap="butt" stroke-miterlimit="10.0"><path d="M 176.0940,337.7024 l -0.0000,-2.8353 h -8.5060 l -0.0000,2.8353 Z"/></g><g stroke-linejoin="miter" stroke-opacity="0.0" fill-opacity="0.2" stroke="rgb(0,0,0)" stroke-width="2.792894825056893" fill="rgb(93,165,218)" stroke-linecap="butt" stroke-miterlimit="10.0"><path d="M 167.5879,337.7024 l -0.0000,-0.0000 h -8.5060 l -0.0000,0.0000 Z"/></g><g stroke-linejoin="miter" stroke-opacity="0.0" fill-opacity="0.2" stroke="rgb(0,0,0)" stroke-width="2.792894825056893" fill="rgb(93,165,218)" stroke-linecap="butt" stroke-miterlimit="10.0"><path d="M 159.0819,337.7024 l -0.0000,-0.0000 h -8.5060 l -0.0000,0.0000 Z"/></g><g stroke-linejoin="miter" stroke-opacity="0.0" fill-opacity="0.2" stroke="rgb(0,0,0)" stroke-width="2.792894825056893" fill="rgb(93,165,218)" stroke-linecap="butt" stroke-miterlimit="10.0"><path d="M 150.5759,337.7024 l -0.0000,-0.0000 h -8.5060 l -0.0000,0.0000 Z"/></g><g stroke-linejoin="miter" stroke-opacity="0.0" fill-opacity="0.2" stroke="rgb(0,0,0)" stroke-width="2.792894825056893" fill="rgb(93,165,218)" stroke-linecap="butt" stroke-miterlimit="10.0"><path d="M 142.0698,337.7024 l -0.0000,-0.0000 h -8.5060 l -0.0000,0.0000 Z"/></g><g stroke-linejoin="miter" stroke-opacity="0.0" fill-opacity="0.2" stroke="rgb(0,0,0)" stroke-width="2.792894825056893" fill="rgb(93,165,218)" stroke-linecap="butt" stroke-miterlimit="10.0"><path d="M 133.5638,337.7024 l -0.0000,-0.0000 h -8.5060 l -0.0000,0.0000 Z"/></g></svg>