<?xml version="1.0" encoding="UTF-8"?>
<!DOCTYPE svg PUBLIC "-//W3C//DTD SVG 1.1//EN"
    "http://www.w3.org/Graphics/SVG/1.1/DTD/svg11.dtd"><svg xmlns="http://www.w3.org/2000/svg" height="100.0000" stroke-opacity="1" viewBox="0 0 100 100" font-size="1" width="100.0000" xmlns:xlink="http://www.w3.org/1999/xlink" stroke="rgb(0,0,0)" version="1.1"><defs></defs><g stroke-linejoin="miter" stroke-opacity="0.0" fill-opacity="0.1" stroke="rgb(0,0,0)" stroke-width="0.0" fill="rgb(0,0,0)" stroke-linecap="butt" stroke-miterlimit="10.0"><path d="M 12.2405,72.2125 l -0.0000,-51.5531 h -1.0311 l -0.0000,51.5531 Z"/></g><g stroke-linejoin="miter" stroke-opacity="1.0" fill-opacity="0.6" stroke="rgb(0,0,0)" fill-rule="evenodd" stroke-width="0.0" fill="rgb(0,0,0)" stroke-linecap="butt" stroke-miterlimit="10.0"><path d="M 6.1760,21.6905 ZM 6.9249,19.8336 c -0.1471,-0.0000 -0.3625,0.1436 -0.3625 0.9404c 0.0000,0.2804 0.0513,0.8447 0.3522 0.8447c 0.0581,-0.0000 0.2223,-0.0376 0.2941 -0.3044c 0.0445,-0.1641 0.0684,-0.3693 0.0684 -0.6669c 0.0000,-0.4343 -0.1094,-0.6771 -0.2086 -0.7626c -0.0376,-0.0342 -0.0889,-0.0513 -0.1436 -0.0513ZM 6.9249,19.8336 ZM 6.9112,21.7315 c -0.3659,-0.0000 -0.6121,-0.4685 -0.6121 -0.9917c 0.0000,-0.6395 0.3044,-1.0259 0.6258 -1.0259c 0.1471,-0.0000 0.2941,0.0923 0.3933 0.2257c 0.1436,0.1915 0.2189,0.4480 0.2189 0.7694c 0.0000,0.7592 -0.3762,1.0225 -0.6258 1.0225ZM 7.6738,21.6905 ZM 7.8688,21.5503 c 0.0000,-0.0992 0.0821,-0.1812 0.1812 -0.1812c 0.0992,-0.0000 0.1812,0.0821 0.1812 0.1812c 0.0000,0.0992 -0.0821,0.1812 -0.1812 0.1812c -0.0992,-0.0000 -0.1812,-0.0821 -0.1812 -0.1812ZM 8.4228,21.6905 ZM 9.4795,21.1126 c 0.0000,-0.3522 -0.1915,-0.5266 -0.4035 -0.5266c -0.1573,-0.0000 -0.2770,0.0239 -0.4104 0.0787l 0.1094,-0.9336 c 0.1129,0.0103 0.2291,0.0137 0.3488 0.0137c 0.1710,-0.0000 0.3488,-0.0103 0.5335 -0.0308l 0.0205,0.0103 l -0.0513,0.2223 c -0.1334,0.0137 -0.2428,0.0171 -0.3386 0.0171c -0.1539,-0.0000 -0.2702,-0.0137 -0.3899 -0.0274l -0.0650,0.5403 c 0.0718,-0.0274 0.1949,-0.0513 0.3283 -0.0513c 0.3625,-0.0000 0.5643,0.3146 0.5643 0.6292c 0.0000,0.3830 -0.2667,0.6771 -0.6532 0.6771c -0.1949,-0.0000 -0.4788,-0.1094 -0.4788 -0.2428c 0.0000,-0.0650 0.0547,-0.1094 0.1163 -0.1094c 0.0684,-0.0000 0.1129,0.0513 0.1539 0.1060c 0.0513,0.0616 0.1060,0.1300 0.2154 0.1300c 0.2189,-0.0000 0.4001,-0.2052 0.4001 -0.5027Z"/></g><g stroke-linejoin="miter" stroke-opacity="0.6" fill-opacity="0.0" stroke="rgb(0,0,0)" stroke-width="0.4132012027539533" fill="rgb(0,0,0)" stroke-linecap="butt" stroke-miterlimit="10.0"><path d="M 10.6939,20.6594 h 1.5466 "/></g><g stroke-linejoin="miter" stroke-opacity="1.0" fill-opacity="0.6" stroke="rgb(0,0,0)" fill-rule="evenodd" stroke-width="0.0" fill="rgb(0,0,0)" stroke-linecap="butt" stroke-miterlimit="10.0"><path d="M 6.1760,26.8458 ZM 6.9249,24.9889 c -0.1471,-0.0000 -0.3625,0.1436 -0.3625 0.9404c 0.0000,0.2804 0.0513,0.8447 0.3522 0.8447c 0.0581,-0.0000 0.2223,-0.0376 0.2941 -0.3044c 0.0445,-0.1641 0.0684,-0.3693 0.0684 -0.6669c 0.0000,-0.4343 -0.1094,-0.6771 -0.2086 -0.7626c -0.0376,-0.0342 -0.0889,-0.0513 -0.1436 -0.0513ZM 6.9249,24.9889 ZM 6.9112,26.8868 c -0.3659,-0.0000 -0.6121,-0.4685 -0.6121 -0.9917c 0.0000,-0.6395 0.3044,-1.0259 0.6258 -1.0259c 0.1471,-0.0000 0.2941,0.0923 0.3933 0.2257c 0.1436,0.1915 0.2189,0.4480 0.2189 0.7694c 0.0000,0.7592 -0.3762,1.0225 -0.6258 1.0225ZM 7.6738,26.8458 ZM 7.8688,26.7056 c 0.0000,-0.0992 0.0821,-0.1812 0.1812 -0.1812c 0.0992,-0.0000 0.1812,0.0821 0.1812 0.1812c 0.0000,0.0992 -0.0821,0.1812 -0.1812 0.1812c -0.0992,-0.0000 -0.1812,-0.0821 -0.1812 -0.1812ZM 8.4228,26.8458 ZM 9.3051,25.6318 c 0.0000,-0.0239 0.0034,-0.0513 0.0342 -0.0684c 0.0376,-0.0274 0.0992,-0.0581 0.1505 -0.0581c 0.0445,-0.0000 0.0479,0.0376 0.0479 0.1060v 0.5506 h 0.2770 l -0.0205,0.1607 h -0.2565 v 0.2838 c 0.0000,0.0958 0.0137,0.1436 0.1129 0.1436h 0.0923 c 0.0205,-0.0000 0.0239,0.0171 0.0239 0.0239v 0.0752 c 0.0000,-0.0000 -0.2189,-0.0068 -0.3625 -0.0068c -0.1300,-0.0000 -0.3317,0.0068 -0.3317 0.0068v -0.0752 c 0.0000,-0.0068 0.0034,-0.0239 0.0239 -0.0239h 0.0923 c 0.1060,-0.0000 0.1163,-0.0445 0.1163 -0.1436v -0.2838 h -0.6703 c -0.0137,-0.0000 -0.0205,-0.0068 -0.0308 -0.0205l -0.0274,-0.0376 l -0.0410,-0.0718 c -0.0034,-0.0000 -0.0034,-0.0034 -0.0034 -0.0068c 0.0000,-0.0034 0.0034,-0.0068 0.0068 -0.0103c 0.2223,-0.2462 0.6156,-1.0088 0.7387 -1.2893c 0.0034,-0.0137 0.0103,-0.0171 0.0239 -0.0171c 0.0034,-0.0000 0.0787,0.0308 0.1197 0.0376c -0.1539,0.4138 -0.4070,0.8584 -0.6566 1.2551h 0.5403 v -0.5301 Z"/></g><g stroke-linejoin="miter" stroke-opacity="0.6" fill-opacity="0.0" stroke="rgb(0,0,0)" stroke-width="0.4132012027539533" fill="rgb(0,0,0)" stroke-linecap="butt" stroke-miterlimit="10.0"><path d="M 10.6939,25.8148 h 1.5466 "/></g><g stroke-linejoin="miter" stroke-opacity="1.0" fill-opacity="0.6" stroke="rgb(0,0,0)" fill-rule="evenodd" stroke-width="0.0" fill="rgb(0,0,0)" stroke-linecap="butt" stroke-miterlimit="10.0"><path d="M 6.1760,32.0011 ZM 6.9249,30.1442 c -0.1471,-0.0000 -0.3625,0.1436 -0.3625 0.9404c 0.0000,0.2804 0.0513,0.8447 0.3522 0.8447c 0.0581,-0.0000 0.2223,-0.0376 0.2941 -0.3044c 0.0445,-0.1641 0.0684,-0.3693 0.0684 -0.6669c 0.0000,-0.4343 -0.1094,-0.6771 -0.2086 -0.7626c -0.0376,-0.0342 -0.0889,-0.0513 -0.1436 -0.0513ZM 6.9249,30.1442 ZM 6.9112,32.0422 c -0.3659,-0.0000 -0.6121,-0.4685 -0.6121 -0.9917c 0.0000,-0.6395 0.3044,-1.0259 0.6258 -1.0259c 0.1471,-0.0000 0.2941,0.0923 0.3933 0.2257c 0.1436,0.1915 0.2189,0.4480 0.2189 0.7694c 0.0000,0.7592 -0.3762,1.0225 -0.6258 1.0225ZM 7.6738,32.0011 ZM 7.8688,31.8609 c 0.0000,-0.0992 0.0821,-0.1812 0.1812 -0.1812c 0.0992,-0.0000 0.1812,0.0821 0.1812 0.1812c 0.0000,0.0992 -0.0821,0.1812 -0.1812 0.1812c -0.0992,-0.0000 -0.1812,-0.0821 -0.1812 -0.1812ZM 8.4228,32.0011 ZM 9.1614,30.1305 c -0.0855,-0.0000 -0.3351,0.0479 -0.3351 0.2565c 0.0000,0.0616 -0.0239,0.1676 -0.1163 0.1676c -0.0889,-0.0000 -0.0958,-0.0992 -0.0958 -0.1094c 0.0000,-0.1060 0.1402,-0.4206 0.6156 -0.4206c 0.3317,-0.0000 0.4309,0.2086 0.4309 0.3454c 0.0000,0.0855 -0.0274,0.2565 -0.3351 0.4514c 0.1915,0.0308 0.4446,0.1710 0.4446 0.5266c 0.0000,0.4514 -0.3420,0.6942 -0.7284 0.6942c -0.1949,-0.0000 -0.4685,-0.0855 -0.4685 -0.2154c 0.0000,-0.0513 0.0513,-0.1094 0.1197 -0.1094c 0.0650,-0.0000 0.0958,0.0342 0.1265 0.0787c 0.0376,0.0581 0.0992,0.1402 0.2633 0.1402c 0.1129,-0.0000 0.4343,-0.1129 0.4343 -0.5437c 0.0000,-0.3659 -0.2565,-0.4241 -0.4412 -0.4241c -0.0308,-0.0000 -0.0684,0.0068 -0.1060 0.0137l -0.0137,-0.1026 c 0.2633,-0.0445 0.4822,-0.3009 0.4822 -0.4582c 0.0000,-0.1949 -0.1368,-0.2907 -0.2770 -0.2907Z"/></g><g stroke-linejoin="miter" stroke-opacity="0.6" fill-opacity="0.0" stroke="rgb(0,0,0)" stroke-width="0.4132012027539533" fill="rgb(0,0,0)" stroke-linecap="butt" stroke-miterlimit="10.0"><path d="M 10.6939,30.9701 h 1.5466 "/></g><g stroke-linejoin="miter" stroke-opacity="1.0" fill-opacity="0.6" stroke="rgb(0,0,0)" fill-rule="evenodd" stroke-width="0.0" fill="rgb(0,0,0)" stroke-linecap="butt" stroke-miterlimit="10.0"><path d="M 6.1760,37.1564 ZM 6.9249,35.2995 c -0.1471,-0.0000 -0.3625,0.1436 -0.3625 0.9404c 0.0000,0.2804 0.0513,0.8447 0.3522 0.8447c 0.0581,-0.0000 0.2223,-0.0376 0.2941 -0.3044c 0.0445,-0.1641 0.0684,-0.3693 0.0684 -0.6669c 0.0000,-0.4343 -0.1094,-0.6771 -0.2086 -0.7626c -0.0376,-0.0342 -0.0889,-0.0513 -0.1436 -0.0513ZM 6.9249,35.2995 ZM 6.9112,37.1975 c -0.3659,-0.0000 -0.6121,-0.4685 -0.6121 -0.9917c 0.0000,-0.6395 0.3044,-1.0259 0.6258 -1.0259c 0.1471,-0.0000 0.2941,0.0923 0.3933 0.2257c 0.1436,0.1915 0.2189,0.4480 0.2189 0.7694c 0.0000,0.7592 -0.3762,1.0225 -0.6258 1.0225ZM 7.6738,37.1564 ZM 7.8688,37.0162 c 0.0000,-0.0992 0.0821,-0.1812 0.1812 -0.1812c 0.0992,-0.0000 0.1812,0.0821 0.1812 0.1812c 0.0000,0.0992 -0.0821,0.1812 -0.1812 0.1812c -0.0992,-0.0000 -0.1812,-0.0821 -0.1812 -0.1812ZM 8.4228,37.1564 ZM 8.6211,35.6415 c 0.0000,-0.1949 0.1881,-0.4617 0.5472 -0.4617c 0.2633,-0.0000 0.5711,0.0992 0.5711 0.4924c 0.0000,0.2599 -0.1334,0.3899 -0.3180 0.5677l -0.3249,0.3146 c -0.0171,0.0171 -0.2462,0.2428 -0.2462 0.4035h 0.5814 c 0.1163,-0.0000 0.1778,-0.0581 0.2257 -0.2462l 0.0855,0.0137 l -0.0684,0.4309 h -1.0567 c 0.0000,-0.1915 0.0308,-0.3386 0.3488 -0.6634l 0.2394,-0.2360 c 0.1915,-0.1949 0.2702,-0.3625 0.2702 -0.5711c 0.0000,-0.3112 -0.2120,-0.4001 -0.3283 -0.4001c -0.2360,-0.0000 -0.3009,0.1231 -0.3009 0.2052c 0.0000,0.0274 0.0068,0.0547 0.0137 0.0787c 0.0068,0.0239 0.0137,0.0479 0.0137 0.0752c 0.0000,0.0889 -0.0684,0.1231 -0.1231 0.1231c -0.0752,-0.0000 -0.1300,-0.0581 -0.1300 -0.1265Z"/></g><g stroke-linejoin="miter" stroke-opacity="0.6" fill-opacity="0.0" stroke="rgb(0,0,0)" stroke-width="0.4132012027539533" fill="rgb(0,0,0)" stroke-linecap="butt" stroke-miterlimit="10.0"><path d="M 10.6939,36.1254 h 1.5466 "/></g><g stroke-linejoin="miter" stroke-opacity="1.0" fill-opacity="0.6" stroke="rgb(0,0,0)" fill-rule="evenodd" stroke-width="0.0" fill="rgb(0,0,0)" stroke-linecap="butt" stroke-miterlimit="10.0"><path d="M 6.1760,42.3117 ZM 6.9249,40.4548 c -0.1471,-0.0000 -0.3625,0.1436 -0.3625 0.9404c 0.0000,0.2804 0.0513,0.8447 0.3522 0.8447c 0.0581,-0.0000 0.2223,-0.0376 0.2941 -0.3044c 0.0445,-0.1641 0.0684,-0.3693 0.0684 -0.6669c 0.0000,-0.4343 -0.1094,-0.6771 -0.2086 -0.7626c -0.0376,-0.0342 -0.0889,-0.0513 -0.1436 -0.0513ZM 6.9249,40.4548 ZM 6.9112,42.3528 c -0.3659,-0.0000 -0.6121,-0.4685 -0.6121 -0.9917c 0.0000,-0.6395 0.3044,-1.0259 0.6258 -1.0259c 0.1471,-0.0000 0.2941,0.0923 0.3933 0.2257c 0.1436,0.1915 0.2189,0.4480 0.2189 0.7694c 0.0000,0.7592 -0.3762,1.0225 -0.6258 1.0225ZM 7.6738,42.3117 ZM 7.8688,42.1715 c 0.0000,-0.0992 0.0821,-0.1812 0.1812 -0.1812c 0.0992,-0.0000 0.1812,0.0821 0.1812 0.1812c 0.0000,0.0992 -0.0821,0.1812 -0.1812 0.1812c -0.0992,-0.0000 -0.1812,-0.0821 -0.1812 -0.1812ZM 8.4228,42.3117 ZM 9.0657,40.6805 c -0.0650,-0.0000 -0.2154,0.0616 -0.2907 0.0958l -0.0410,-0.1060 c 0.3009,-0.1402 0.4172,-0.2120 0.5882 -0.3351h 0.0650 v 1.7201 c 0.0000,0.1231 0.0171,0.1573 0.1300 0.1573h 0.1778 c 0.0103,-0.0000 0.0274,0.0068 0.0274 0.0274v 0.0752 l -0.4685,-0.0068 l -0.4753,0.0068 v -0.0752 c 0.0034,-0.0103 0.0068,-0.0274 0.0274 -0.0274h 0.2052 c 0.1300,-0.0000 0.1300,-0.0581 0.1300 -0.1573v -1.1764 c 0.0000,-0.1163 0.0000,-0.1983 -0.0752 -0.1983Z"/></g><g stroke-linejoin="miter" stroke-opacity="0.6" fill-opacity="0.0" stroke="rgb(0,0,0)" stroke-width="0.4132012027539533" fill="rgb(0,0,0)" stroke-linecap="butt" stroke-miterlimit="10.0"><path d="M 10.6939,41.2807 h 1.5466 "/></g><g stroke-linejoin="miter" stroke-opacity="1.0" fill-opacity="0.6" stroke="rgb(0,0,0)" fill-rule="evenodd" stroke-width="0.0" fill="rgb(0,0,0)" stroke-linecap="butt" stroke-miterlimit="10.0"><path d="M 6.1760,47.4670 ZM 6.9249,45.6101 c -0.1471,-0.0000 -0.3625,0.1436 -0.3625 0.9404c 0.0000,0.2804 0.0513,0.8447 0.3522 0.8447c 0.0581,-0.0000 0.2223,-0.0376 0.2941 -0.3044c 0.0445,-0.1641 0.0684,-0.3693 0.0684 -0.6669c 0.0000,-0.4343 -0.1094,-0.6771 -0.2086 -0.7626c -0.0376,-0.0342 -0.0889,-0.0513 -0.1436 -0.0513ZM 6.9249,45.6101 ZM 6.9112,47.5081 c -0.3659,-0.0000 -0.6121,-0.4685 -0.6121 -0.9917c 0.0000,-0.6395 0.3044,-1.0259 0.6258 -1.0259c 0.1471,-0.0000 0.2941,0.0923 0.3933 0.2257c 0.1436,0.1915 0.2189,0.4480 0.2189 0.7694c 0.0000,0.7592 -0.3762,1.0225 -0.6258 1.0225ZM 7.6738,47.4670 ZM 7.8688,47.3268 c 0.0000,-0.0992 0.0821,-0.1812 0.1812 -0.1812c 0.0992,-0.0000 0.1812,0.0821 0.1812 0.1812c 0.0000,0.0992 -0.0821,0.1812 -0.1812 0.1812c -0.0992,-0.0000 -0.1812,-0.0821 -0.1812 -0.1812ZM 8.4228,47.4670 ZM 9.1717,45.6101 c -0.1471,-0.0000 -0.3625,0.1436 -0.3625 0.9404c 0.0000,0.2804 0.0513,0.8447 0.3522 0.8447c 0.0581,-0.0000 0.2223,-0.0376 0.2941 -0.3044c 0.0445,-0.1641 0.0684,-0.3693 0.0684 -0.6669c 0.0000,-0.4343 -0.1094,-0.6771 -0.2086 -0.7626c -0.0376,-0.0342 -0.0889,-0.0513 -0.1436 -0.0513ZM 9.1717,45.6101 ZM 9.1580,47.5081 c -0.3659,-0.0000 -0.6121,-0.4685 -0.6121 -0.9917c 0.0000,-0.6395 0.3044,-1.0259 0.6258 -1.0259c 0.1471,-0.0000 0.2941,0.0923 0.3933 0.2257c 0.1436,0.1915 0.2189,0.4480 0.2189 0.7694c 0.0000,0.7592 -0.3762,1.0225 -0.6258 1.0225Z"/></g><g stroke-linejoin="miter" stroke-opacity="0.6" fill-opacity="0.0" stroke="rgb(0,0,0)" stroke-width="0.4132012027539533" fill="rgb(0,0,0)" stroke-linecap="butt" stroke-miterlimit="10.0"><path d="M 10.6939,46.4360 h 1.5466 "/></g><g stroke-linejoin="miter" stroke-opacity="1.0" fill-opacity="0.6" stroke="rgb(0,0,0)" fill-rule="evenodd" stroke-width="0.0" fill="rgb(0,0,0)" stroke-linecap="butt" stroke-miterlimit="10.0"><path d="M 5.0372,52.6223 ZM 5.9742,51.8153 h -0.7729 c -0.0308,-0.0000 -0.0513,-0.0274 -0.0513 -0.0581c 0.0000,-0.0547 0.0445,-0.1265 0.0855 -0.1265h 0.7831 c 0.0342,-0.0000 0.0479,0.0308 0.0479 0.0616c 0.0000,0.0376 -0.0479,0.1231 -0.0923 0.1231ZM 6.1760,52.6223 ZM 6.9249,50.7654 c -0.1471,-0.0000 -0.3625,0.1436 -0.3625 0.9404c 0.0000,0.2804 0.0513,0.8447 0.3522 0.8447c 0.0581,-0.0000 0.2223,-0.0376 0.2941 -0.3044c 0.0445,-0.1641 0.0684,-0.3693 0.0684 -0.6669c 0.0000,-0.4343 -0.1094,-0.6771 -0.2086 -0.7626c -0.0376,-0.0342 -0.0889,-0.0513 -0.1436 -0.0513ZM 6.9249,50.7654 ZM 6.9112,52.6634 c -0.3659,-0.0000 -0.6121,-0.4685 -0.6121 -0.9917c 0.0000,-0.6395 0.3044,-1.0259 0.6258 -1.0259c 0.1471,-0.0000 0.2941,0.0923 0.3933 0.2257c 0.1436,0.1915 0.2189,0.4480 0.2189 0.7694c 0.0000,0.7592 -0.3762,1.0225 -0.6258 1.0225ZM 7.6738,52.6223 ZM 7.8688,52.4821 c 0.0000,-0.0992 0.0821,-0.1812 0.1812 -0.1812c 0.0992,-0.0000 0.1812,0.0821 0.1812 0.1812c 0.0000,0.0992 -0.0821,0.1812 -0.1812 0.1812c -0.0992,-0.0000 -0.1812,-0.0821 -0.1812 -0.1812ZM 8.4228,52.6223 ZM 9.0657,50.9911 c -0.0650,-0.0000 -0.2154,0.0616 -0.2907 0.0958l -0.0410,-0.1060 c 0.3009,-0.1402 0.4172,-0.2120 0.5882 -0.3351h 0.0650 v 1.7201 c 0.0000,0.1231 0.0171,0.1573 0.1300 0.1573h 0.1778 c 0.0103,-0.0000 0.0274,0.0068 0.0274 0.0274v 0.0752 l -0.4685,-0.0068 l -0.4753,0.0068 v -0.0752 c 0.0034,-0.0103 0.0068,-0.0274 0.0274 -0.0274h 0.2052 c 0.1300,-0.0000 0.1300,-0.0581 0.1300 -0.1573v -1.1764 c 0.0000,-0.1163 0.0000,-0.1983 -0.0752 -0.1983Z"/></g><g stroke-linejoin="miter" stroke-opacity="0.6" fill-opacity="0.0" stroke="rgb(0,0,0)" stroke-width="0.4132012027539533" fill="rgb(0,0,0)" stroke-linecap="butt" stroke-miterlimit="10.0"><path d="M 10.6939,51.5913 h 1.5466 "/></g><g stroke-linejoin="miter" stroke-opacity="1.0" fill-opacity="0.6" stroke="rgb(0,0,0)" fill-rule="evenodd" stroke-width="0.0" fill="rgb(0,0,0)" stroke-linecap="butt" stroke-miterlimit="10.0"><path d="M 5.0372,57.7777 ZM 5.9742,56.9706 h -0.7729 c -0.0308,-0.0000 -0.0513,-0.0274 -0.0513 -0.0581c 0.0000,-0.0547 0.0445,-0.1265 0.0855 -0.1265h 0.7831 c 0.0342,-0.0000 0.0479,0.0308 0.0479 0.0616c 0.0000,0.0376 -0.0479,0.1231 -0.0923 0.1231ZM 6.1760,57.7777 ZM 6.9249,55.9207 c -0.1471,-0.0000 -0.3625,0.1436 -0.3625 0.9404c 0.0000,0.2804 0.0513,0.8447 0.3522 0.8447c 0.0581,-0.0000 0.2223,-0.0376 0.2941 -0.3044c 0.0445,-0.1641 0.0684,-0.3693 0.0684 -0.6669c 0.0000,-0.4343 -0.1094,-0.6771 -0.2086 -0.7626c -0.0376,-0.0342 -0.0889,-0.0513 -0.1436 -0.0513ZM 6.9249,55.9207 ZM 6.9112,57.8187 c -0.3659,-0.0000 -0.6121,-0.4685 -0.6121 -0.9917c 0.0000,-0.6395 0.3044,-1.0259 0.6258 -1.0259c 0.1471,-0.0000 0.2941,0.0923 0.3933 0.2257c 0.1436,0.1915 0.2189,0.4480 0.2189 0.7694c 0.0000,0.7592 -0.3762,1.0225 -0.6258 1.0225ZM 7.6738,57.7777 ZM 7.8688,57.6374 c 0.0000,-0.0992 0.0821,-0.1812 0.1812 -0.1812c 0.0992,-0.0000 0.1812,0.0821 0.1812 0.1812c 0.0000,0.0992 -0.0821,0.1812 -0.1812 0.1812c -0.0992,-0.0000 -0.1812,-0.0821 -0.1812 -0.1812ZM 8.4228,57.7777 ZM 8.6211,56.2627 c 0.0000,-0.1949 0.1881,-0.4617 0.5472 -0.4617c 0.2633,-0.0000 0.5711,0.0992 0.5711 0.4924c 0.0000,0.2599 -0.1334,0.3899 -0.3180 0.5677l -0.3249,0.3146 c -0.0171,0.0171 -0.2462,0.2428 -0.2462 0.4035h 0.5814 c 0.1163,-0.0000 0.1778,-0.0581 0.2257 -0.2462l 0.0855,0.0137 l -0.0684,0.4309 h -1.0567 c 0.0000,-0.1915 0.0308,-0.3386 0.3488 -0.6634l 0.2394,-0.2360 c 0.1915,-0.1949 0.2702,-0.3625 0.2702 -0.5711c 0.0000,-0.3112 -0.2120,-0.4001 -0.3283 -0.4001c -0.2360,-0.0000 -0.3009,0.1231 -0.3009 0.2052c 0.0000,0.0274 0.0068,0.0547 0.0137 0.0787c 0.0068,0.0239 0.0137,0.0479 0.0137 0.0752c 0.0000,0.0889 -0.0684,0.1231 -0.1231 0.1231c -0.0752,-0.0000 -0.1300,-0.0581 -0.1300 -0.1265Z"/></g><g stroke-linejoin="miter" stroke-opacity="0.6" fill-opacity="0.0" stroke="rgb(0,0,0)" stroke-width="0.4132012027539533" fill="rgb(0,0,0)" stroke-linecap="butt" stroke-miterlimit="10.0"><path d="M 10.6939,56.7466 h 1.5466 "/></g><g stroke-linejoin="miter" stroke-opacity="1.0" fill-opacity="0.6" stroke="rgb(0,0,0)" fill-rule="evenodd" stroke-width="0.0" fill="rgb(0,0,0)" stroke-linecap="butt" stroke-miterlimit="10.0"><path d="M 5.0372,62.9330 ZM 5.9742,62.1259 h -0.7729 c -0.0308,-0.0000 -0.0513,-0.0274 -0.0513 -0.0581c 0.0000,-0.0547 0.0445,-0.1265 0.0855 -0.1265h 0.7831 c 0.0342,-0.0000 0.0479,0.0308 0.0479 0.0616c 0.0000,0.0376 -0.0479,0.1231 -0.0923 0.1231ZM 6.1760,62.9330 ZM 6.9249,61.0760 c -0.1471,-0.0000 -0.3625,0.1436 -0.3625 0.9404c 0.0000,0.2804 0.0513,0.8447 0.3522 0.8447c 0.0581,-0.0000 0.2223,-0.0376 0.2941 -0.3044c 0.0445,-0.1641 0.0684,-0.3693 0.0684 -0.6669c 0.0000,-0.4343 -0.1094,-0.6771 -0.2086 -0.7626c -0.0376,-0.0342 -0.0889,-0.0513 -0.1436 -0.0513ZM 6.9249,61.0760 ZM 6.9112,62.9740 c -0.3659,-0.0000 -0.6121,-0.4685 -0.6121 -0.9917c 0.0000,-0.6395 0.3044,-1.0259 0.6258 -1.0259c 0.1471,-0.0000 0.2941,0.0923 0.3933 0.2257c 0.1436,0.1915 0.2189,0.4480 0.2189 0.7694c 0.0000,0.7592 -0.3762,1.0225 -0.6258 1.0225ZM 7.6738,62.9330 ZM 7.8688,62.7927 c 0.0000,-0.0992 0.0821,-0.1812 0.1812 -0.1812c 0.0992,-0.0000 0.1812,0.0821 0.1812 0.1812c 0.0000,0.0992 -0.0821,0.1812 -0.1812 0.1812c -0.0992,-0.0000 -0.1812,-0.0821 -0.1812 -0.1812ZM 8.4228,62.9330 ZM 9.1614,61.0623 c -0.0855,-0.0000 -0.3351,0.0479 -0.3351 0.2565c 0.0000,0.0616 -0.0239,0.1676 -0.1163 0.1676c -0.0889,-0.0000 -0.0958,-0.0992 -0.0958 -0.1094c 0.0000,-0.1060 0.1402,-0.4206 0.6156 -0.4206c 0.3317,-0.0000 0.4309,0.2086 0.4309 0.3454c 0.0000,0.0855 -0.0274,0.2565 -0.3351 0.4514c 0.1915,0.0308 0.4446,0.1710 0.4446 0.5266c 0.0000,0.4514 -0.3420,0.6942 -0.7284 0.6942c -0.1949,-0.0000 -0.4685,-0.0855 -0.4685 -0.2154c 0.0000,-0.0513 0.0513,-0.1094 0.1197 -0.1094c 0.0650,-0.0000 0.0958,0.0342 0.1265 0.0787c 0.0376,0.0581 0.0992,0.1402 0.2633 0.1402c 0.1129,-0.0000 0.4343,-0.1129 0.4343 -0.5437c 0.0000,-0.3659 -0.2565,-0.4241 -0.4412 -0.4241c -0.0308,-0.0000 -0.0684,0.0068 -0.1060 0.0137l -0.0137,-0.1026 c 0.2633,-0.0445 0.4822,-0.3009 0.4822 -0.4582c 0.0000,-0.1949 -0.1368,-0.2907 -0.2770 -0.2907Z"/></g><g stroke-linejoin="miter" stroke-opacity="0.6" fill-opacity="0.0" stroke="rgb(0,0,0)" stroke-width="0.4132012027539533" fill="rgb(0,0,0)" stroke-linecap="butt" stroke-miterlimit="10.0"><path d="M 10.6939,61.9019 h 1.5466 "/></g><g stroke-linejoin="miter" stroke-opacity="1.0" fill-opacity="0.6" stroke="rgb(0,0,0)" fill-rule="evenodd" stroke-width="0.0" fill="rgb(0,0,0)" stroke-linecap="butt" stroke-miterlimit="10.0"><path d="M 5.0372,68.0883 ZM 5.9742,67.2812 h -0.7729 c -0.0308,-0.0000 -0.0513,-0.0274 -0.0513 -0.0581c 0.0000,-0.0547 0.0445,-0.1265 0.0855 -0.1265h 0.7831 c 0.0342,-0.0000 0.0479,0.0308 0.0479 0.0616c 0.0000,0.0376 -0.0479,0.1231 -0.0923 0.1231ZM 6.1760,68.0883 ZM 6.9249,66.2313 c -0.1471,-0.0000 -0.3625,0.1436 -0.3625 0.9404c 0.0000,0.2804 0.0513,0.8447 0.3522 0.8447c 0.0581,-0.0000 0.2223,-0.0376 0.2941 -0.3044c 0.0445,-0.1641 0.0684,-0.3693 0.0684 -0.6669c 0.0000,-0.4343 -0.1094,-0.6771 -0.2086 -0.7626c -0.0376,-0.0342 -0.0889,-0.0513 -0.1436 -0.0513ZM 6.9249,66.2313 ZM 6.9112,68.1293 c -0.3659,-0.0000 -0.6121,-0.4685 -0.6121 -0.9917c 0.0000,-0.6395 0.3044,-1.0259 0.6258 -1.0259c 0.1471,-0.0000 0.2941,0.0923 0.3933 0.2257c 0.1436,0.1915 0.2189,0.4480 0.2189 0.7694c 0.0000,0.7592 -0.3762,1.0225 -0.6258 1.0225ZM 7.6738,68.0883 ZM 7.8688,67.9481 c 0.0000,-0.0992 0.0821,-0.1812 0.1812 -0.1812c 0.0992,-0.0000 0.1812,0.0821 0.1812 0.1812c 0.0000,0.0992 -0.0821,0.1812 -0.1812 0.1812c -0.0992,-0.0000 -0.1812,-0.0821 -0.1812 -0.1812ZM 8.4228,68.0883 ZM 9.3051,66.8742 c 0.0000,-0.0239 0.0034,-0.0513 0.0342 -0.0684c 0.0376,-0.0274 0.0992,-0.0581 0.1505 -0.0581c 0.0445,-0.0000 0.0479,0.0376 0.0479 0.1060v 0.5506 h 0.2770 l -0.0205,0.1607 h -0.2565 v 0.2838 c 0.0000,0.0958 0.0137,0.1436 0.1129 0.1436h 0.0923 c 0.0205,-0.0000 0.0239,0.0171 0.0239 0.0239v 0.0752 c 0.0000,-0.0000 -0.2189,-0.0068 -0.3625 -0.0068c -0.1300,-0.0000 -0.3317,0.0068 -0.3317 0.0068v -0.0752 c 0.0000,-0.0068 0.0034,-0.0239 0.0239 -0.0239h 0.0923 c 0.1060,-0.0000 0.1163,-0.0445 0.1163 -0.1436v -0.2838 h -0.6703 c -0.0137,-0.0000 -0.0205,-0.0068 -0.0308 -0.0205l -0.0274,-0.0376 l -0.0410,-0.0718 c -0.0034,-0.0000 -0.0034,-0.0034 -0.0034 -0.0068c 0.0000,-0.0034 0.0034,-0.0068 0.0068 -0.0103c 0.2223,-0.2462 0.6156,-1.0088 0.7387 -1.2893c 0.0034,-0.0137 0.0103,-0.0171 0.0239 -0.0171c 0.0034,-0.0000 0.0787,0.0308 0.1197 0.0376c -0.1539,0.4138 -0.4070,0.8584 -0.6566 1.2551h 0.5403 v -0.5301 Z"/></g><g stroke-linejoin="miter" stroke-opacity="0.6" fill-opacity="0.0" stroke="rgb(0,0,0)" stroke-width="0.4132012027539533" fill="rgb(0,0,0)" stroke-linecap="butt" stroke-miterlimit="10.0"><path d="M 10.6939,67.0572 h 1.5466 "/></g><g stroke-linejoin="miter" stroke-opacity="1.0" fill-opacity="0.6" stroke="rgb(0,0,0)" fill-rule="evenodd" stroke-width="0.0" fill="rgb(0,0,0)" stroke-linecap="butt" stroke-miterlimit="10.0"><path d="M 5.0372,73.2436 ZM 5.9742,72.4365 h -0.7729 c -0.0308,-0.0000 -0.0513,-0.0274 -0.0513 -0.0581c 0.0000,-0.0547 0.0445,-0.1265 0.0855 -0.1265h 0.7831 c 0.0342,-0.0000 0.0479,0.0308 0.0479 0.0616c 0.0000,0.0376 -0.0479,0.1231 -0.0923 0.1231ZM 6.1760,73.2436 ZM 6.9249,71.3866 c -0.1471,-0.0000 -0.3625,0.1436 -0.3625 0.9404c 0.0000,0.2804 0.0513,0.8447 0.3522 0.8447c 0.0581,-0.0000 0.2223,-0.0376 0.2941 -0.3044c 0.0445,-0.1641 0.0684,-0.3693 0.0684 -0.6669c 0.0000,-0.4343 -0.1094,-0.6771 -0.2086 -0.7626c -0.0376,-0.0342 -0.0889,-0.0513 -0.1436 -0.0513ZM 6.9249,71.3866 ZM 6.9112,73.2846 c -0.3659,-0.0000 -0.6121,-0.4685 -0.6121 -0.9917c 0.0000,-0.6395 0.3044,-1.0259 0.6258 -1.0259c 0.1471,-0.0000 0.2941,0.0923 0.3933 0.2257c 0.1436,0.1915 0.2189,0.4480 0.2189 0.7694c 0.0000,0.7592 -0.3762,1.0225 -0.6258 1.0225ZM 7.6738,73.2436 ZM 7.8688,73.1034 c 0.0000,-0.0992 0.0821,-0.1812 0.1812 -0.1812c 0.0992,-0.0000 0.1812,0.0821 0.1812 0.1812c 0.0000,0.0992 -0.0821,0.1812 -0.1812 0.1812c -0.0992,-0.0000 -0.1812,-0.0821 -0.1812 -0.1812ZM 8.4228,73.2436 ZM 9.4795,72.6656 c 0.0000,-0.3522 -0.1915,-0.5266 -0.4035 -0.5266c -0.1573,-0.0000 -0.2770,0.0239 -0.4104 0.0787l 0.1094,-0.9336 c 0.1129,0.0103 0.2291,0.0137 0.3488 0.0137c 0.1710,-0.0000 0.3488,-0.0103 0.5335 -0.0308l 0.0205,0.0103 l -0.0513,0.2223 c -0.1334,0.0137 -0.2428,0.0171 -0.3386 0.0171c -0.1539,-0.0000 -0.2702,-0.0137 -0.3899 -0.0274l -0.0650,0.5403 c 0.0718,-0.0274 0.1949,-0.0513 0.3283 -0.0513c 0.3625,-0.0000 0.5643,0.3146 0.5643 0.6292c 0.0000,0.3830 -0.2667,0.6771 -0.6532 0.6771c -0.1949,-0.0000 -0.4788,-0.1094 -0.4788 -0.2428c 0.0000,-0.0650 0.0547,-0.1094 0.1163 -0.1094c 0.0684,-0.0000 0.1129,0.0513 0.1539 0.1060c 0.0513,0.0616 0.1060,0.1300 0.2154 0.1300c 0.2189,-0.0000 0.4001,-0.2052 0.4001 -0.5027Z"/></g><g stroke-linejoin="miter" stroke-opacity="0.6" fill-opacity="0.0" stroke="rgb(0,0,0)" stroke-width="0.4132012027539533" fill="rgb(0,0,0)" stroke-linecap="butt" stroke-miterlimit="10.0"><path d="M 10.6939,72.2125 h 1.5466 "/></g><g stroke-linejoin="miter" stroke-opacity="0.0" fill-opacity="0.1" stroke="rgb(0,0,0)" stroke-width="0.0" fill="rgb(0,0,0)" stroke-linecap="butt" stroke-miterlimit="10.0"><path d="M 94.0740,75.3057 l -0.0000,-1.0311 h -77.3296 l -0.0000,1.0311 Z"/></g><g stroke-linejoin="miter" stroke-opacity="1.0" fill-opacity="0.6" stroke="rgb(0,0,0)" fill-rule="evenodd" stroke-width="0.0" fill="rgb(0,0,0)" stroke-linecap="butt" stroke-miterlimit="10.0"><path d="M 92.2016,79.6518 ZM 92.9506,77.7949 c -0.1471,-0.0000 -0.3625,0.1436 -0.3625 0.9404c 0.0000,0.2804 0.0513,0.8447 0.3522 0.8447c 0.0581,-0.0000 0.2223,-0.0376 0.2941 -0.3044c 0.0445,-0.1641 0.0684,-0.3693 0.0684 -0.6669c 0.0000,-0.4343 -0.1094,-0.6771 -0.2086 -0.7626c -0.0376,-0.0342 -0.0889,-0.0513 -0.1436 -0.0513ZM 92.9506,77.7949 ZM 92.9369,79.6928 c -0.3659,-0.0000 -0.6121,-0.4685 -0.6121 -0.9917c 0.0000,-0.6395 0.3044,-1.0259 0.6258 -1.0259c 0.1471,-0.0000 0.2941,0.0923 0.3933 0.2257c 0.1436,0.1915 0.2189,0.4480 0.2189 0.7694c 0.0000,0.7592 -0.3762,1.0225 -0.6258 1.0225ZM 93.6995,79.6518 ZM 93.8944,79.5116 c 0.0000,-0.0992 0.0821,-0.1812 0.1812 -0.1812c 0.0992,-0.0000 0.1812,0.0821 0.1812 0.1812c 0.0000,0.0992 -0.0821,0.1812 -0.1812 0.1812c -0.0992,-0.0000 -0.1812,-0.0821 -0.1812 -0.1812ZM 94.4484,79.6518 ZM 95.5051,79.0739 c 0.0000,-0.3522 -0.1915,-0.5266 -0.4035 -0.5266c -0.1573,-0.0000 -0.2770,0.0239 -0.4104 0.0787l 0.1094,-0.9336 c 0.1129,0.0103 0.2291,0.0137 0.3488 0.0137c 0.1710,-0.0000 0.3488,-0.0103 0.5335 -0.0308l 0.0205,0.0103 l -0.0513,0.2223 c -0.1334,0.0137 -0.2428,0.0171 -0.3386 0.0171c -0.1539,-0.0000 -0.2702,-0.0137 -0.3899 -0.0274l -0.0650,0.5403 c 0.0718,-0.0274 0.1949,-0.0513 0.3283 -0.0513c 0.3625,-0.0000 0.5643,0.3146 0.5643 0.6292c 0.0000,0.3830 -0.2667,0.6771 -0.6532 0.6771c -0.1949,-0.0000 -0.4788,-0.1094 -0.4788 -0.2428c 0.0000,-0.0650 0.0547,-0.1094 0.1163 -0.1094c 0.0684,-0.0000 0.1129,0.0513 0.1539 0.1060c 0.0513,0.0616 0.1060,0.1300 0.2154 0.1300c 0.2189,-0.0000 0.4001,-0.2052 0.4001 -0.5027Z"/></g><g stroke-linejoin="miter" stroke-opacity="0.6" fill-opacity="0.0" stroke="rgb(0,0,0)" stroke-width="0.4132012027539533" fill="rgb(0,0,0)" stroke-linecap="butt" stroke-miterlimit="10.0"><path d="M 94.0740,74.2746 v 1.5466 "/></g><g stroke-linejoin="miter" stroke-opacity="1.0" fill-opacity="0.6" stroke="rgb(0,0,0)" fill-rule="evenodd" stroke-width="0.0" fill="rgb(0,0,0)" stroke-linecap="butt" stroke-miterlimit="10.0"><path d="M 84.4687,79.6518 ZM 85.2176,77.7949 c -0.1471,-0.0000 -0.3625,0.1436 -0.3625 0.9404c 0.0000,0.2804 0.0513,0.8447 0.3522 0.8447c 0.0581,-0.0000 0.2223,-0.0376 0.2941 -0.3044c 0.0445,-0.1641 0.0684,-0.3693 0.0684 -0.6669c 0.0000,-0.4343 -0.1094,-0.6771 -0.2086 -0.7626c -0.0376,-0.0342 -0.0889,-0.0513 -0.1436 -0.0513ZM 85.2176,77.7949 ZM 85.2039,79.6928 c -0.3659,-0.0000 -0.6121,-0.4685 -0.6121 -0.9917c 0.0000,-0.6395 0.3044,-1.0259 0.6258 -1.0259c 0.1471,-0.0000 0.2941,0.0923 0.3933 0.2257c 0.1436,0.1915 0.2189,0.4480 0.2189 0.7694c 0.0000,0.7592 -0.3762,1.0225 -0.6258 1.0225ZM 85.9665,79.6518 ZM 86.1615,79.5116 c 0.0000,-0.0992 0.0821,-0.1812 0.1812 -0.1812c 0.0992,-0.0000 0.1812,0.0821 0.1812 0.1812c 0.0000,0.0992 -0.0821,0.1812 -0.1812 0.1812c -0.0992,-0.0000 -0.1812,-0.0821 -0.1812 -0.1812ZM 86.7155,79.6518 ZM 87.5978,78.4378 c 0.0000,-0.0239 0.0034,-0.0513 0.0342 -0.0684c 0.0376,-0.0274 0.0992,-0.0581 0.1505 -0.0581c 0.0445,-0.0000 0.0479,0.0376 0.0479 0.1060v 0.5506 h 0.2770 l -0.0205,0.1607 h -0.2565 v 0.2838 c 0.0000,0.0958 0.0137,0.1436 0.1129 0.1436h 0.0923 c 0.0205,-0.0000 0.0239,0.0171 0.0239 0.0239v 0.0752 c 0.0000,-0.0000 -0.2189,-0.0068 -0.3625 -0.0068c -0.1300,-0.0000 -0.3317,0.0068 -0.3317 0.0068v -0.0752 c 0.0000,-0.0068 0.0034,-0.0239 0.0239 -0.0239h 0.0923 c 0.1060,-0.0000 0.1163,-0.0445 0.1163 -0.1436v -0.2838 h -0.6703 c -0.0137,-0.0000 -0.0205,-0.0068 -0.0308 -0.0205l -0.0274,-0.0376 l -0.0410,-0.0718 c -0.0034,-0.0000 -0.0034,-0.0034 -0.0034 -0.0068c 0.0000,-0.0034 0.0034,-0.0068 0.0068 -0.0103c 0.2223,-0.2462 0.6156,-1.0088 0.7387 -1.2893c 0.0034,-0.0137 0.0103,-0.0171 0.0239 -0.0171c 0.0034,-0.0000 0.0787,0.0308 0.1197 0.0376c -0.1539,0.4138 -0.4070,0.8584 -0.6566 1.2551h 0.5403 v -0.5301 Z"/></g><g stroke-linejoin="miter" stroke-opacity="0.6" fill-opacity="0.0" stroke="rgb(0,0,0)" stroke-width="0.4132012027539533" fill="rgb(0,0,0)" stroke-linecap="butt" stroke-miterlimit="10.0"><path d="M 86.3410,74.2746 v 1.5466 "/></g><g stroke-linejoin="miter" stroke-opacity="1.0" fill-opacity="0.6" stroke="rgb(0,0,0)" fill-rule="evenodd" stroke-width="0.0" fill="rgb(0,0,0)" stroke-linecap="butt" stroke-miterlimit="10.0"><path d="M 76.7357,79.6518 ZM 77.4846,77.7949 c -0.1471,-0.0000 -0.3625,0.1436 -0.3625 0.9404c 0.0000,0.2804 0.0513,0.8447 0.3522 0.8447c 0.0581,-0.0000 0.2223,-0.0376 0.2941 -0.3044c 0.0445,-0.1641 0.0684,-0.3693 0.0684 -0.6669c 0.0000,-0.4343 -0.1094,-0.6771 -0.2086 -0.7626c -0.0376,-0.0342 -0.0889,-0.0513 -0.1436 -0.0513ZM 77.4846,77.7949 ZM 77.4710,79.6928 c -0.3659,-0.0000 -0.6121,-0.4685 -0.6121 -0.9917c 0.0000,-0.6395 0.3044,-1.0259 0.6258 -1.0259c 0.1471,-0.0000 0.2941,0.0923 0.3933 0.2257c 0.1436,0.1915 0.2189,0.4480 0.2189 0.7694c 0.0000,0.7592 -0.3762,1.0225 -0.6258 1.0225ZM 78.2336,79.6518 ZM 78.4285,79.5116 c 0.0000,-0.0992 0.0821,-0.1812 0.1812 -0.1812c 0.0992,-0.0000 0.1812,0.0821 0.1812 0.1812c 0.0000,0.0992 -0.0821,0.1812 -0.1812 0.1812c -0.0992,-0.0000 -0.1812,-0.0821 -0.1812 -0.1812ZM 78.9825,79.6518 ZM 79.7212,77.7812 c -0.0855,-0.0000 -0.3351,0.0479 -0.3351 0.2565c 0.0000,0.0616 -0.0239,0.1676 -0.1163 0.1676c -0.0889,-0.0000 -0.0958,-0.0992 -0.0958 -0.1094c 0.0000,-0.1060 0.1402,-0.4206 0.6156 -0.4206c 0.3317,-0.0000 0.4309,0.2086 0.4309 0.3454c 0.0000,0.0855 -0.0274,0.2565 -0.3351 0.4514c 0.1915,0.0308 0.4446,0.1710 0.4446 0.5266c 0.0000,0.4514 -0.3420,0.6942 -0.7284 0.6942c -0.1949,-0.0000 -0.4685,-0.0855 -0.4685 -0.2154c 0.0000,-0.0513 0.0513,-0.1094 0.1197 -0.1094c 0.0650,-0.0000 0.0958,0.0342 0.1265 0.0787c 0.0376,0.0581 0.0992,0.1402 0.2633 0.1402c 0.1129,-0.0000 0.4343,-0.1129 0.4343 -0.5437c 0.0000,-0.3659 -0.2565,-0.4241 -0.4412 -0.4241c -0.0308,-0.0000 -0.0684,0.0068 -0.1060 0.0137l -0.0137,-0.1026 c 0.2633,-0.0445 0.4822,-0.3009 0.4822 -0.4582c 0.0000,-0.1949 -0.1368,-0.2907 -0.2770 -0.2907Z"/></g><g stroke-linejoin="miter" stroke-opacity="0.6" fill-opacity="0.0" stroke="rgb(0,0,0)" stroke-width="0.4132012027539533" fill="rgb(0,0,0)" stroke-linecap="butt" stroke-miterlimit="10.0"><path d="M 78.6080,74.2746 v 1.5466 "/></g><g stroke-linejoin="miter" stroke-opacity="1.0" fill-opacity="0.6" stroke="rgb(0,0,0)" fill-rule="evenodd" stroke-width="0.0" fill="rgb(0,0,0)" stroke-linecap="butt" stroke-miterlimit="10.0"><path d="M 69.0028,79.6518 ZM 69.7517,77.7949 c -0.1471,-0.0000 -0.3625,0.1436 -0.3625 0.9404c 0.0000,0.2804 0.0513,0.8447 0.3522 0.8447c 0.0581,-0.0000 0.2223,-0.0376 0.2941 -0.3044c 0.0445,-0.1641 0.0684,-0.3693 0.0684 -0.6669c 0.0000,-0.4343 -0.1094,-0.6771 -0.2086 -0.7626c -0.0376,-0.0342 -0.0889,-0.0513 -0.1436 -0.0513ZM 69.7517,77.7949 ZM 69.7380,79.6928 c -0.3659,-0.0000 -0.6121,-0.4685 -0.6121 -0.9917c 0.0000,-0.6395 0.3044,-1.0259 0.6258 -1.0259c 0.1471,-0.0000 0.2941,0.0923 0.3933 0.2257c 0.1436,0.1915 0.2189,0.4480 0.2189 0.7694c 0.0000,0.7592 -0.3762,1.0225 -0.6258 1.0225ZM 70.5006,79.6518 ZM 70.6955,79.5116 c 0.0000,-0.0992 0.0821,-0.1812 0.1812 -0.1812c 0.0992,-0.0000 0.1812,0.0821 0.1812 0.1812c 0.0000,0.0992 -0.0821,0.1812 -0.1812 0.1812c -0.0992,-0.0000 -0.1812,-0.0821 -0.1812 -0.1812ZM 71.2495,79.6518 ZM 71.4479,78.1368 c 0.0000,-0.1949 0.1881,-0.4617 0.5472 -0.4617c 0.2633,-0.0000 0.5711,0.0992 0.5711 0.4924c 0.0000,0.2599 -0.1334,0.3899 -0.3180 0.5677l -0.3249,0.3146 c -0.0171,0.0171 -0.2462,0.2428 -0.2462 0.4035h 0.5814 c 0.1163,-0.0000 0.1778,-0.0581 0.2257 -0.2462l 0.0855,0.0137 l -0.0684,0.4309 h -1.0567 c 0.0000,-0.1915 0.0308,-0.3386 0.3488 -0.6634l 0.2394,-0.2360 c 0.1915,-0.1949 0.2702,-0.3625 0.2702 -0.5711c 0.0000,-0.3112 -0.2120,-0.4001 -0.3283 -0.4001c -0.2360,-0.0000 -0.3009,0.1231 -0.3009 0.2052c 0.0000,0.0274 0.0068,0.0547 0.0137 0.0787c 0.0068,0.0239 0.0137,0.0479 0.0137 0.0752c 0.0000,0.0889 -0.0684,0.1231 -0.1231 0.1231c -0.0752,-0.0000 -0.1300,-0.0581 -0.1300 -0.1265Z"/></g><g stroke-linejoin="miter" stroke-opacity="0.6" fill-opacity="0.0" stroke="rgb(0,0,0)" stroke-width="0.4132012027539533" fill="rgb(0,0,0)" stroke-linecap="butt" stroke-miterlimit="10.0"><path d="M 70.8751,74.2746 v 1.5466 "/></g><g stroke-linejoin="miter" stroke-opacity="1.0" fill-opacity="0.6" stroke="rgb(0,0,0)" fill-rule="evenodd" stroke-width="0.0" fill="rgb(0,0,0)" stroke-linecap="butt" stroke-miterlimit="10.0"><path d="M 61.2698,79.6518 ZM 62.0187,77.7949 c -0.1471,-0.0000 -0.3625,0.1436 -0.3625 0.9404c 0.0000,0.2804 0.0513,0.8447 0.3522 0.8447c 0.0581,-0.0000 0.2223,-0.0376 0.2941 -0.3044c 0.0445,-0.1641 0.0684,-0.3693 0.0684 -0.6669c 0.0000,-0.4343 -0.1094,-0.6771 -0.2086 -0.7626c -0.0376,-0.0342 -0.0889,-0.0513 -0.1436 -0.0513ZM 62.0187,77.7949 ZM 62.0050,79.6928 c -0.3659,-0.0000 -0.6121,-0.4685 -0.6121 -0.9917c 0.0000,-0.6395 0.3044,-1.0259 0.6258 -1.0259c 0.1471,-0.0000 0.2941,0.0923 0.3933 0.2257c 0.1436,0.1915 0.2189,0.4480 0.2189 0.7694c 0.0000,0.7592 -0.3762,1.0225 -0.6258 1.0225ZM 62.7677,79.6518 ZM 62.9626,79.5116 c 0.0000,-0.0992 0.0821,-0.1812 0.1812 -0.1812c 0.0992,-0.0000 0.1812,0.0821 0.1812 0.1812c 0.0000,0.0992 -0.0821,0.1812 -0.1812 0.1812c -0.0992,-0.0000 -0.1812,-0.0821 -0.1812 -0.1812ZM 63.5166,79.6518 ZM 64.1595,78.0206 c -0.0650,-0.0000 -0.2154,0.0616 -0.2907 0.0958l -0.0410,-0.1060 c 0.3009,-0.1402 0.4172,-0.2120 0.5882 -0.3351h 0.0650 v 1.7201 c 0.0000,0.1231 0.0171,0.1573 0.1300 0.1573h 0.1778 c 0.0103,-0.0000 0.0274,0.0068 0.0274 0.0274v 0.0752 l -0.4685,-0.0068 l -0.4753,0.0068 v -0.0752 c 0.0034,-0.0103 0.0068,-0.0274 0.0274 -0.0274h 0.2052 c 0.1300,-0.0000 0.1300,-0.0581 0.1300 -0.1573v -1.1764 c 0.0000,-0.1163 0.0000,-0.1983 -0.0752 -0.1983Z"/></g><g stroke-linejoin="miter" stroke-opacity="0.6" fill-opacity="0.0" stroke="rgb(0,0,0)" stroke-width="0.4132012027539533" fill="rgb(0,0,0)" stroke-linecap="butt" stroke-miterlimit="10.0"><path d="M 63.1421,74.2746 v 1.5466 "/></g><g stroke-linejoin="miter" stroke-opacity="1.0" fill-opacity="0.6" stroke="rgb(0,0,0)" fill-rule="evenodd" stroke-width="0.0" fill="rgb(0,0,0)" stroke-linecap="butt" stroke-miterlimit="10.0"><path d="M 53.5368,79.6518 ZM 54.2858,77.7949 c -0.1471,-0.0000 -0.3625,0.1436 -0.3625 0.9404c 0.0000,0.2804 0.0513,0.8447 0.3522 0.8447c 0.0581,-0.0000 0.2223,-0.0376 0.2941 -0.3044c 0.0445,-0.1641 0.0684,-0.3693 0.0684 -0.6669c 0.0000,-0.4343 -0.1094,-0.6771 -0.2086 -0.7626c -0.0376,-0.0342 -0.0889,-0.0513 -0.1436 -0.0513ZM 54.2858,77.7949 ZM 54.2721,79.6928 c -0.3659,-0.0000 -0.6121,-0.4685 -0.6121 -0.9917c 0.0000,-0.6395 0.3044,-1.0259 0.6258 -1.0259c 0.1471,-0.0000 0.2941,0.0923 0.3933 0.2257c 0.1436,0.1915 0.2189,0.4480 0.2189 0.7694c 0.0000,0.7592 -0.3762,1.0225 -0.6258 1.0225ZM 55.0347,79.6518 ZM 55.2296,79.5116 c 0.0000,-0.0992 0.0821,-0.1812 0.1812 -0.1812c 0.0992,-0.0000 0.1812,0.0821 0.1812 0.1812c 0.0000,0.0992 -0.0821,0.1812 -0.1812 0.1812c -0.0992,-0.0000 -0.1812,-0.0821 -0.1812 -0.1812ZM 55.7836,79.6518 ZM 56.5326,77.7949 c -0.1471,-0.0000 -0.3625,0.1436 -0.3625 0.9404c 0.0000,0.2804 0.0513,0.8447 0.3522 0.8447c 0.0581,-0.0000 0.2223,-0.0376 0.2941 -0.3044c 0.0445,-0.1641 0.0684,-0.3693 0.0684 -0.6669c 0.0000,-0.4343 -0.1094,-0.6771 -0.2086 -0.7626c -0.0376,-0.0342 -0.0889,-0.0513 -0.1436 -0.0513ZM 56.5326,77.7949 ZM 56.5189,79.6928 c -0.3659,-0.0000 -0.6121,-0.4685 -0.6121 -0.9917c 0.0000,-0.6395 0.3044,-1.0259 0.6258 -1.0259c 0.1471,-0.0000 0.2941,0.0923 0.3933 0.2257c 0.1436,0.1915 0.2189,0.4480 0.2189 0.7694c 0.0000,0.7592 -0.3762,1.0225 -0.6258 1.0225Z"/></g><g stroke-linejoin="miter" stroke-opacity="0.6" fill-opacity="0.0" stroke="rgb(0,0,0)" stroke-width="0.4132012027539533" fill="rgb(0,0,0)" stroke-linecap="butt" stroke-miterlimit="10.0"><path d="M 55.4092,74.2746 v 1.5466 "/></g><g stroke-linejoin="miter" stroke-opacity="1.0" fill-opacity="0.6" stroke="rgb(0,0,0)" fill-rule="evenodd" stroke-width="0.0" fill="rgb(0,0,0)" stroke-linecap="butt" stroke-miterlimit="10.0"><path d="M 45.2345,79.6518 ZM 46.1715,78.8447 h -0.7729 c -0.0308,-0.0000 -0.0513,-0.0274 -0.0513 -0.0581c 0.0000,-0.0547 0.0445,-0.1265 0.0855 -0.1265h 0.7831 c 0.0342,-0.0000 0.0479,0.0308 0.0479 0.0616c 0.0000,0.0376 -0.0479,0.1231 -0.0923 0.1231ZM 46.3733,79.6518 ZM 47.1222,77.7949 c -0.1471,-0.0000 -0.3625,0.1436 -0.3625 0.9404c 0.0000,0.2804 0.0513,0.8447 0.3522 0.8447c 0.0581,-0.0000 0.2223,-0.0376 0.2941 -0.3044c 0.0445,-0.1641 0.0684,-0.3693 0.0684 -0.6669c 0.0000,-0.4343 -0.1094,-0.6771 -0.2086 -0.7626c -0.0376,-0.0342 -0.0889,-0.0513 -0.1436 -0.0513ZM 47.1222,77.7949 ZM 47.1085,79.6928 c -0.3659,-0.0000 -0.6121,-0.4685 -0.6121 -0.9917c 0.0000,-0.6395 0.3044,-1.0259 0.6258 -1.0259c 0.1471,-0.0000 0.2941,0.0923 0.3933 0.2257c 0.1436,0.1915 0.2189,0.4480 0.2189 0.7694c 0.0000,0.7592 -0.3762,1.0225 -0.6258 1.0225ZM 47.8711,79.6518 ZM 48.0661,79.5116 c 0.0000,-0.0992 0.0821,-0.1812 0.1812 -0.1812c 0.0992,-0.0000 0.1812,0.0821 0.1812 0.1812c 0.0000,0.0992 -0.0821,0.1812 -0.1812 0.1812c -0.0992,-0.0000 -0.1812,-0.0821 -0.1812 -0.1812ZM 48.6201,79.6518 ZM 49.2630,78.0206 c -0.0650,-0.0000 -0.2154,0.0616 -0.2907 0.0958l -0.0410,-0.1060 c 0.3009,-0.1402 0.4172,-0.2120 0.5882 -0.3351h 0.0650 v 1.7201 c 0.0000,0.1231 0.0171,0.1573 0.1300 0.1573h 0.1778 c 0.0103,-0.0000 0.0274,0.0068 0.0274 0.0274v 0.0752 l -0.4685,-0.0068 l -0.4753,0.0068 v -0.0752 c 0.0034,-0.0103 0.0068,-0.0274 0.0274 -0.0274h 0.2052 c 0.1300,-0.0000 0.1300,-0.0581 0.1300 -0.1573v -1.1764 c 0.0000,-0.1163 0.0000,-0.1983 -0.0752 -0.1983Z"/></g><g stroke-linejoin="miter" stroke-opacity="0.6" fill-opacity="0.0" stroke="rgb(0,0,0)" stroke-width="0.4132012027539533" fill="rgb(0,0,0)" stroke-linecap="butt" stroke-miterlimit="10.0"><path d="M 47.6762,74.2746 v 1.5466 "/></g><g stroke-linejoin="miter" stroke-opacity="1.0" fill-opacity="0.6" stroke="rgb(0,0,0)" fill-rule="evenodd" stroke-width="0.0" fill="rgb(0,0,0)" stroke-linecap="butt" stroke-miterlimit="10.0"><path d="M 37.5015,79.6518 ZM 38.4385,78.8447 h -0.7729 c -0.0308,-0.0000 -0.0513,-0.0274 -0.0513 -0.0581c 0.0000,-0.0547 0.0445,-0.1265 0.0855 -0.1265h 0.7831 c 0.0342,-0.0000 0.0479,0.0308 0.0479 0.0616c 0.0000,0.0376 -0.0479,0.1231 -0.0923 0.1231ZM 38.6403,79.6518 ZM 39.3892,77.7949 c -0.1471,-0.0000 -0.3625,0.1436 -0.3625 0.9404c 0.0000,0.2804 0.0513,0.8447 0.3522 0.8447c 0.0581,-0.0000 0.2223,-0.0376 0.2941 -0.3044c 0.0445,-0.1641 0.0684,-0.3693 0.0684 -0.6669c 0.0000,-0.4343 -0.1094,-0.6771 -0.2086 -0.7626c -0.0376,-0.0342 -0.0889,-0.0513 -0.1436 -0.0513ZM 39.3892,77.7949 ZM 39.3756,79.6928 c -0.3659,-0.0000 -0.6121,-0.4685 -0.6121 -0.9917c 0.0000,-0.6395 0.3044,-1.0259 0.6258 -1.0259c 0.1471,-0.0000 0.2941,0.0923 0.3933 0.2257c 0.1436,0.1915 0.2189,0.4480 0.2189 0.7694c 0.0000,0.7592 -0.3762,1.0225 -0.6258 1.0225ZM 40.1382,79.6518 ZM 40.3331,79.5116 c 0.0000,-0.0992 0.0821,-0.1812 0.1812 -0.1812c 0.0992,-0.0000 0.1812,0.0821 0.1812 0.1812c 0.0000,0.0992 -0.0821,0.1812 -0.1812 0.1812c -0.0992,-0.0000 -0.1812,-0.0821 -0.1812 -0.1812ZM 40.8871,79.6518 ZM 41.0854,78.1368 c 0.0000,-0.1949 0.1881,-0.4617 0.5472 -0.4617c 0.2633,-0.0000 0.5711,0.0992 0.5711 0.4924c 0.0000,0.2599 -0.1334,0.3899 -0.3180 0.5677l -0.3249,0.3146 c -0.0171,0.0171 -0.2462,0.2428 -0.2462 0.4035h 0.5814 c 0.1163,-0.0000 0.1778,-0.0581 0.2257 -0.2462l 0.0855,0.0137 l -0.0684,0.4309 h -1.0567 c 0.0000,-0.1915 0.0308,-0.3386 0.3488 -0.6634l 0.2394,-0.2360 c 0.1915,-0.1949 0.2702,-0.3625 0.2702 -0.5711c 0.0000,-0.3112 -0.2120,-0.4001 -0.3283 -0.4001c -0.2360,-0.0000 -0.3009,0.1231 -0.3009 0.2052c 0.0000,0.0274 0.0068,0.0547 0.0137 0.0787c 0.0068,0.0239 0.0137,0.0479 0.0137 0.0752c 0.0000,0.0889 -0.0684,0.1231 -0.1231 0.1231c -0.0752,-0.0000 -0.1300,-0.0581 -0.1300 -0.1265Z"/></g><g stroke-linejoin="miter" stroke-opacity="0.6" fill-opacity="0.0" stroke="rgb(0,0,0)" stroke-width="0.4132012027539533" fill="rgb(0,0,0)" stroke-linecap="butt" stroke-miterlimit="10.0"><path d="M 39.9432,74.2746 v 1.5466 "/></g><g stroke-linejoin="miter" stroke-opacity="1.0" fill-opacity="0.6" stroke="rgb(0,0,0)" fill-rule="evenodd" stroke-width="0.0" fill="rgb(0,0,0)" stroke-linecap="butt" stroke-miterlimit="10.0"><path d="M 29.7686,79.6518 ZM 30.7056,78.8447 h -0.7729 c -0.0308,-0.0000 -0.0513,-0.0274 -0.0513 -0.0581c 0.0000,-0.0547 0.0445,-0.1265 0.0855 -0.1265h 0.7831 c 0.0342,-0.0000 0.0479,0.0308 0.0479 0.0616c 0.0000,0.0376 -0.0479,0.1231 -0.0923 0.1231ZM 30.9073,79.6518 ZM 31.6563,77.7949 c -0.1471,-0.0000 -0.3625,0.1436 -0.3625 0.9404c 0.0000,0.2804 0.0513,0.8447 0.3522 0.8447c 0.0581,-0.0000 0.2223,-0.0376 0.2941 -0.3044c 0.0445,-0.1641 0.0684,-0.3693 0.0684 -0.6669c 0.0000,-0.4343 -0.1094,-0.6771 -0.2086 -0.7626c -0.0376,-0.0342 -0.0889,-0.0513 -0.1436 -0.0513ZM 31.6563,77.7949 ZM 31.6426,79.6928 c -0.3659,-0.0000 -0.6121,-0.4685 -0.6121 -0.9917c 0.0000,-0.6395 0.3044,-1.0259 0.6258 -1.0259c 0.1471,-0.0000 0.2941,0.0923 0.3933 0.2257c 0.1436,0.1915 0.2189,0.4480 0.2189 0.7694c 0.0000,0.7592 -0.3762,1.0225 -0.6258 1.0225ZM 32.4052,79.6518 ZM 32.6001,79.5116 c 0.0000,-0.0992 0.0821,-0.1812 0.1812 -0.1812c 0.0992,-0.0000 0.1812,0.0821 0.1812 0.1812c 0.0000,0.0992 -0.0821,0.1812 -0.1812 0.1812c -0.0992,-0.0000 -0.1812,-0.0821 -0.1812 -0.1812ZM 33.1541,79.6518 ZM 33.8928,77.7812 c -0.0855,-0.0000 -0.3351,0.0479 -0.3351 0.2565c 0.0000,0.0616 -0.0239,0.1676 -0.1163 0.1676c -0.0889,-0.0000 -0.0958,-0.0992 -0.0958 -0.1094c 0.0000,-0.1060 0.1402,-0.4206 0.6156 -0.4206c 0.3317,-0.0000 0.4309,0.2086 0.4309 0.3454c 0.0000,0.0855 -0.0274,0.2565 -0.3351 0.4514c 0.1915,0.0308 0.4446,0.1710 0.4446 0.5266c 0.0000,0.4514 -0.3420,0.6942 -0.7284 0.6942c -0.1949,-0.0000 -0.4685,-0.0855 -0.4685 -0.2154c 0.0000,-0.0513 0.0513,-0.1094 0.1197 -0.1094c 0.0650,-0.0000 0.0958,0.0342 0.1265 0.0787c 0.0376,0.0581 0.0992,0.1402 0.2633 0.1402c 0.1129,-0.0000 0.4343,-0.1129 0.4343 -0.5437c 0.0000,-0.3659 -0.2565,-0.4241 -0.4412 -0.4241c -0.0308,-0.0000 -0.0684,0.0068 -0.1060 0.0137l -0.0137,-0.1026 c 0.2633,-0.0445 0.4822,-0.3009 0.4822 -0.4582c 0.0000,-0.1949 -0.1368,-0.2907 -0.2770 -0.2907Z"/></g><g stroke-linejoin="miter" stroke-opacity="0.6" fill-opacity="0.0" stroke="rgb(0,0,0)" stroke-width="0.4132012027539533" fill="rgb(0,0,0)" stroke-linecap="butt" stroke-miterlimit="10.0"><path d="M 32.2103,74.2746 v 1.5466 "/></g><g stroke-linejoin="miter" stroke-opacity="1.0" fill-opacity="0.6" stroke="rgb(0,0,0)" fill-rule="evenodd" stroke-width="0.0" fill="rgb(0,0,0)" stroke-linecap="butt" stroke-miterlimit="10.0"><path d="M 22.0356,79.6518 ZM 22.9726,78.8447 h -0.7729 c -0.0308,-0.0000 -0.0513,-0.0274 -0.0513 -0.0581c 0.0000,-0.0547 0.0445,-0.1265 0.0855 -0.1265h 0.7831 c 0.0342,-0.0000 0.0479,0.0308 0.0479 0.0616c 0.0000,0.0376 -0.0479,0.1231 -0.0923 0.1231ZM 23.1744,79.6518 ZM 23.9233,77.7949 c -0.1471,-0.0000 -0.3625,0.1436 -0.3625 0.9404c 0.0000,0.2804 0.0513,0.8447 0.3522 0.8447c 0.0581,-0.0000 0.2223,-0.0376 0.2941 -0.3044c 0.0445,-0.1641 0.0684,-0.3693 0.0684 -0.6669c 0.0000,-0.4343 -0.1094,-0.6771 -0.2086 -0.7626c -0.0376,-0.0342 -0.0889,-0.0513 -0.1436 -0.0513ZM 23.9233,77.7949 ZM 23.9096,79.6928 c -0.3659,-0.0000 -0.6121,-0.4685 -0.6121 -0.9917c 0.0000,-0.6395 0.3044,-1.0259 0.6258 -1.0259c 0.1471,-0.0000 0.2941,0.0923 0.3933 0.2257c 0.1436,0.1915 0.2189,0.4480 0.2189 0.7694c 0.0000,0.7592 -0.3762,1.0225 -0.6258 1.0225ZM 24.6722,79.6518 ZM 24.8672,79.5116 c 0.0000,-0.0992 0.0821,-0.1812 0.1812 -0.1812c 0.0992,-0.0000 0.1812,0.0821 0.1812 0.1812c 0.0000,0.0992 -0.0821,0.1812 -0.1812 0.1812c -0.0992,-0.0000 -0.1812,-0.0821 -0.1812 -0.1812ZM 25.4212,79.6518 ZM 26.3035,78.4378 c 0.0000,-0.0239 0.0034,-0.0513 0.0342 -0.0684c 0.0376,-0.0274 0.0992,-0.0581 0.1505 -0.0581c 0.0445,-0.0000 0.0479,0.0376 0.0479 0.1060v 0.5506 h 0.2770 l -0.0205,0.1607 h -0.2565 v 0.2838 c 0.0000,0.0958 0.0137,0.1436 0.1129 0.1436h 0.0923 c 0.0205,-0.0000 0.0239,0.0171 0.0239 0.0239v 0.0752 c 0.0000,-0.0000 -0.2189,-0.0068 -0.3625 -0.0068c -0.1300,-0.0000 -0.3317,0.0068 -0.3317 0.0068v -0.0752 c 0.0000,-0.0068 0.0034,-0.0239 0.0239 -0.0239h 0.0923 c 0.1060,-0.0000 0.1163,-0.0445 0.1163 -0.1436v -0.2838 h -0.6703 c -0.0137,-0.0000 -0.0205,-0.0068 -0.0308 -0.0205l -0.0274,-0.0376 l -0.0410,-0.0718 c -0.0034,-0.0000 -0.0034,-0.0034 -0.0034 -0.0068c 0.0000,-0.0034 0.0034,-0.0068 0.0068 -0.0103c 0.2223,-0.2462 0.6156,-1.0088 0.7387 -1.2893c 0.0034,-0.0137 0.0103,-0.0171 0.0239 -0.0171c 0.0034,-0.0000 0.0787,0.0308 0.1197 0.0376c -0.1539,0.4138 -0.4070,0.8584 -0.6566 1.2551h 0.5403 v -0.5301 Z"/></g><g stroke-linejoin="miter" stroke-opacity="0.6" fill-opacity="0.0" stroke="rgb(0,0,0)" stroke-width="0.4132012027539533" fill="rgb(0,0,0)" stroke-linecap="butt" stroke-miterlimit="10.0"><path d="M 24.4773,74.2746 v 1.5466 "/></g><g stroke-linejoin="miter" stroke-opacity="1.0" fill-opacity="0.6" stroke="rgb(0,0,0)" fill-rule="evenodd" stroke-width="0.0" fill="rgb(0,0,0)" stroke-linecap="butt" stroke-miterlimit="10.0"><path d="M 14.3026,79.6518 ZM 15.2397,78.8447 h -0.7729 c -0.0308,-0.0000 -0.0513,-0.0274 -0.0513 -0.0581c 0.0000,-0.0547 0.0445,-0.1265 0.0855 -0.1265h 0.7831 c 0.0342,-0.0000 0.0479,0.0308 0.0479 0.0616c 0.0000,0.0376 -0.0479,0.1231 -0.0923 0.1231ZM 15.4414,79.6518 ZM 16.1904,77.7949 c -0.1471,-0.0000 -0.3625,0.1436 -0.3625 0.9404c 0.0000,0.2804 0.0513,0.8447 0.3522 0.8447c 0.0581,-0.0000 0.2223,-0.0376 0.2941 -0.3044c 0.0445,-0.1641 0.0684,-0.3693 0.0684 -0.6669c 0.0000,-0.4343 -0.1094,-0.6771 -0.2086 -0.7626c -0.0376,-0.0342 -0.0889,-0.0513 -0.1436 -0.0513ZM 16.1904,77.7949 ZM 16.1767,79.6928 c -0.3659,-0.0000 -0.6121,-0.4685 -0.6121 -0.9917c 0.0000,-0.6395 0.3044,-1.0259 0.6258 -1.0259c 0.1471,-0.0000 0.2941,0.0923 0.3933 0.2257c 0.1436,0.1915 0.2189,0.4480 0.2189 0.7694c 0.0000,0.7592 -0.3762,1.0225 -0.6258 1.0225ZM 16.9393,79.6518 ZM 17.1342,79.5116 c 0.0000,-0.0992 0.0821,-0.1812 0.1812 -0.1812c 0.0992,-0.0000 0.1812,0.0821 0.1812 0.1812c 0.0000,0.0992 -0.0821,0.1812 -0.1812 0.1812c -0.0992,-0.0000 -0.1812,-0.0821 -0.1812 -0.1812ZM 17.6882,79.6518 ZM 18.7449,79.0739 c 0.0000,-0.3522 -0.1915,-0.5266 -0.4035 -0.5266c -0.1573,-0.0000 -0.2770,0.0239 -0.4104 0.0787l 0.1094,-0.9336 c 0.1129,0.0103 0.2291,0.0137 0.3488 0.0137c 0.1710,-0.0000 0.3488,-0.0103 0.5335 -0.0308l 0.0205,0.0103 l -0.0513,0.2223 c -0.1334,0.0137 -0.2428,0.0171 -0.3386 0.0171c -0.1539,-0.0000 -0.2702,-0.0137 -0.3899 -0.0274l -0.0650,0.5403 c 0.0718,-0.0274 0.1949,-0.0513 0.3283 -0.0513c 0.3625,-0.0000 0.5643,0.3146 0.5643 0.6292c 0.0000,0.3830 -0.2667,0.6771 -0.6532 0.6771c -0.1949,-0.0000 -0.4788,-0.1094 -0.4788 -0.2428c 0.0000,-0.0650 0.0547,-0.1094 0.1163 -0.1094c 0.0684,-0.0000 0.1129,0.0513 0.1539 0.1060c 0.0513,0.0616 0.1060,0.1300 0.2154 0.1300c 0.2189,-0.0000 0.4001,-0.2052 0.4001 -0.5027Z"/></g><g stroke-linejoin="miter" stroke-opacity="0.6" fill-opacity="0.0" stroke="rgb(0,0,0)" stroke-width="0.4132012027539533" fill="rgb(0,0,0)" stroke-linecap="butt" stroke-miterlimit="10.0"><path d="M 16.7444,74.2746 v 1.5466 "/></g><g stroke-linejoin="miter" stroke-opacity="0.0" fill-opacity="0.0" stroke="rgb(0,0,0)" stroke-width="0.0" fill="rgb(0,0,0)" stroke-linecap="butt" stroke-miterlimit="10.0"><path d="M 94.0740,72.2125 l -0.0000,-51.5531 h -77.3296 l -0.0000,51.5531 Z"/></g><g stroke-linejoin="miter" stroke-opacity="1.0" fill-opacity="1.0" stroke="rgb(0,0,0)" stroke-width="0.0" fill="rgb(255,0,0)" stroke-linecap="butt" stroke-miterlimit="10.0"><path d="M 57.4092,46.4360 c 0.0000,-1.1046 -0.8954,-2.0000 -2.0000 -2.0000c -1.1046,-0.0000 -2.0000,0.8954 -2.0000 2.0000c -0.0000,1.1046 0.8954,2.0000 2.0000 2.0000c 1.1046,0.0000 2.0000,-0.8954 2.0000 -2.0000Z"/></g></svg>