<?xml version="1.0" encoding="UTF-8"?>
<!DOCTYPE svg PUBLIC "-//W3C//DTD SVG 1.1//EN"
    "http://www.w3.org/Graphics/SVG/1.1/DTD/svg11.dtd">
<svg xmlns="http://www.w3.org/2000/svg" height="100.0000" stroke-opacity="1" viewBox="0 0 100 100" font-size="1" width="100.0000" xmlns:xlink="http://www.w3.org/1999/xlink" stroke="rgb(0,0,0)" version="1.1">
  <defs>
  </defs>
  <g stroke-linejoin="miter" stroke-opacity="0.0" fill-opacity="0.1" stroke="rgb(0,0,0)" stroke-width="0.0" fill="rgb(0,0,0)" stroke-linecap="butt" stroke-miterlimit="10.0">
    <path d="M 15.2859,81.0032 l -0.0000,-71.9555 h -1.4391 l -0.0000,71.9555 Z"/>
  </g>
  <g stroke-linejoin="miter" stroke-opacity="1.0" fill-opacity="0.6" stroke="rgb(0,0,0)" fill-rule="evenodd" stroke-width="0.0" fill="rgb(0,0,0)" stroke-linecap="butt" stroke-miterlimit="10.0">
    <path d="M 6.8213,10.4869 ZM 7.8666,7.8951 c -0.2052,-0.0000 -0.5060,0.2005 -0.5060 1.3126c 0.0000,0.3914 0.0716,1.1790 0.4916 1.1790c 0.0811,-0.0000 0.3103,-0.0525 0.4105 -0.4248c 0.0621,-0.2291 0.0955,-0.5155 0.0955 -0.9308c 0.0000,-0.6062 -0.1527,-0.9451 -0.2912 -1.0644c -0.0525,-0.0477 -0.1241,-0.0716 -0.2005 -0.0716ZM 7.8666,7.8951 ZM 7.8475,10.5442 c -0.5107,-0.0000 -0.8544,-0.6539 -0.8544 -1.3842c 0.0000,-0.8926 0.4248,-1.4319 0.8735 -1.4319c 0.2052,-0.0000 0.4105,0.1289 0.5489 0.3150c 0.2005,0.2673 0.3055,0.6253 0.3055 1.0740c 0.0000,1.0596 -0.5250,1.4272 -0.8735 1.4272ZM 8.9119,10.4869 ZM 9.1840,10.2912 c 0.0000,-0.1384 0.1146,-0.2530 0.2530 -0.2530c 0.1384,-0.0000 0.2530,0.1146 0.2530 0.2530c 0.0000,0.1384 -0.1146,0.2530 -0.2530 0.2530c -0.1384,-0.0000 -0.2530,-0.1146 -0.2530 -0.2530ZM 9.9572,10.4869 ZM 11.4321,9.6802 c 0.0000,-0.4916 -0.2673,-0.7351 -0.5632 -0.7351c -0.2196,-0.0000 -0.3866,0.0334 -0.5728 0.1098l 0.1527,-1.3031 c 0.1575,0.0143 0.3198,0.0191 0.4869 0.0191c 0.2387,-0.0000 0.4869,-0.0143 0.7446 -0.0430l 0.0286,0.0143 l -0.0716,0.3103 c -0.1862,0.0191 -0.3389,0.0239 -0.4725 0.0239c -0.2148,-0.0000 -0.3771,-0.0191 -0.5441 -0.0382l -0.0907,0.7542 c 0.1002,-0.0382 0.2721,-0.0716 0.4582 -0.0716c 0.5060,-0.0000 0.7876,0.4391 0.7876 0.8783c 0.0000,0.5346 -0.3723,0.9451 -0.9117 0.9451c -0.2721,-0.0000 -0.6682,-0.1527 -0.6682 -0.3389c 0.0000,-0.0907 0.0764,-0.1527 0.1623 -0.1527c 0.0955,-0.0000 0.1575,0.0716 0.2148 0.1480c 0.0716,0.0859 0.1480,0.1814 0.3007 0.1814c 0.3055,-0.0000 0.5585,-0.2864 0.5585 -0.7017Z"/>
  </g>
  <g stroke-linejoin="miter" stroke-opacity="0.6" fill-opacity="0.0" stroke="rgb(0,0,0)" stroke-width="0.48816447447119504" fill="rgb(0,0,0)" stroke-linecap="butt" stroke-miterlimit="10.0">
    <path d="M 13.1272,9.0478 h 2.1587 "/>
  </g>
  <g stroke-linejoin="miter" stroke-opacity="1.0" fill-opacity="0.6" stroke="rgb(0,0,0)" fill-rule="evenodd" stroke-width="0.0" fill="rgb(0,0,0)" stroke-linecap="butt" stroke-miterlimit="10.0">
    <path d="M 6.8213,17.6824 ZM 7.8666,15.0906 c -0.2052,-0.0000 -0.5060,0.2005 -0.5060 1.3126c 0.0000,0.3914 0.0716,1.1790 0.4916 1.1790c 0.0811,-0.0000 0.3103,-0.0525 0.4105 -0.4248c 0.0621,-0.2291 0.0955,-0.5155 0.0955 -0.9308c 0.0000,-0.6062 -0.1527,-0.9451 -0.2912 -1.0644c -0.0525,-0.0477 -0.1241,-0.0716 -0.2005 -0.0716ZM 7.8666,15.0906 ZM 7.8475,17.7397 c -0.5107,-0.0000 -0.8544,-0.6539 -0.8544 -1.3842c 0.0000,-0.8926 0.4248,-1.4319 0.8735 -1.4319c 0.2052,-0.0000 0.4105,0.1289 0.5489 0.3150c 0.2005,0.2673 0.3055,0.6253 0.3055 1.0740c 0.0000,1.0596 -0.5250,1.4272 -0.8735 1.4272ZM 8.9119,17.6824 ZM 9.1840,17.4867 c 0.0000,-0.1384 0.1146,-0.2530 0.2530 -0.2530c 0.1384,-0.0000 0.2530,0.1146 0.2530 0.2530c 0.0000,0.1384 -0.1146,0.2530 -0.2530 0.2530c -0.1384,-0.0000 -0.2530,-0.1146 -0.2530 -0.2530ZM 9.9572,17.6824 ZM 11.1887,15.9880 c 0.0000,-0.0334 0.0048,-0.0716 0.0477 -0.0955c 0.0525,-0.0382 0.1384,-0.0811 0.2100 -0.0811c 0.0621,-0.0000 0.0668,0.0525 0.0668 0.1480v 0.7685 h 0.3866 l -0.0286,0.2243 h -0.3580 v 0.3962 c 0.0000,0.1336 0.0191,0.2005 0.1575 0.2005h 0.1289 c 0.0286,-0.0000 0.0334,0.0239 0.0334 0.0334v 0.1050 c 0.0000,-0.0000 -0.3055,-0.0095 -0.5060 -0.0095c -0.1814,-0.0000 -0.4630,0.0095 -0.4630 0.0095v -0.1050 c 0.0000,-0.0095 0.0048,-0.0334 0.0334 -0.0334h 0.1289 c 0.1480,-0.0000 0.1623,-0.0621 0.1623 -0.2005v -0.3962 h -0.9355 c -0.0191,-0.0000 -0.0286,-0.0095 -0.0430 -0.0286l -0.0382,-0.0525 l -0.0573,-0.1002 c -0.0048,-0.0000 -0.0048,-0.0048 -0.0048 -0.0095c 0.0000,-0.0048 0.0048,-0.0095 0.0095 -0.0143c 0.3103,-0.3437 0.8592,-1.4081 1.0310 -1.7995c 0.0048,-0.0191 0.0143,-0.0239 0.0334 -0.0239c 0.0048,-0.0000 0.1098,0.0430 0.1671 0.0525c -0.2148,0.5776 -0.5680,1.1981 -0.9164 1.7518h 0.7542 v -0.7398 Z"/>
  </g>
  <g stroke-linejoin="miter" stroke-opacity="0.6" fill-opacity="0.0" stroke="rgb(0,0,0)" stroke-width="0.48816447447119504" fill="rgb(0,0,0)" stroke-linecap="butt" stroke-miterlimit="10.0">
    <path d="M 13.1272,16.2433 h 2.1587 "/>
  </g>
  <g stroke-linejoin="miter" stroke-opacity="1.0" fill-opacity="0.6" stroke="rgb(0,0,0)" fill-rule="evenodd" stroke-width="0.0" fill="rgb(0,0,0)" stroke-linecap="butt" stroke-miterlimit="10.0">
    <path d="M 6.8213,24.8780 ZM 7.8666,22.2861 c -0.2052,-0.0000 -0.5060,0.2005 -0.5060 1.3126c 0.0000,0.3914 0.0716,1.1790 0.4916 1.1790c 0.0811,-0.0000 0.3103,-0.0525 0.4105 -0.4248c 0.0621,-0.2291 0.0955,-0.5155 0.0955 -0.9308c 0.0000,-0.6062 -0.1527,-0.9451 -0.2912 -1.0644c -0.0525,-0.0477 -0.1241,-0.0716 -0.2005 -0.0716ZM 7.8666,22.2861 ZM 7.8475,24.9352 c -0.5107,-0.0000 -0.8544,-0.6539 -0.8544 -1.3842c 0.0000,-0.8926 0.4248,-1.4319 0.8735 -1.4319c 0.2052,-0.0000 0.4105,0.1289 0.5489 0.3150c 0.2005,0.2673 0.3055,0.6253 0.3055 1.0740c 0.0000,1.0596 -0.5250,1.4272 -0.8735 1.4272ZM 8.9119,24.8780 ZM 9.1840,24.6823 c 0.0000,-0.1384 0.1146,-0.2530 0.2530 -0.2530c 0.1384,-0.0000 0.2530,0.1146 0.2530 0.2530c 0.0000,0.1384 -0.1146,0.2530 -0.2530 0.2530c -0.1384,-0.0000 -0.2530,-0.1146 -0.2530 -0.2530ZM 9.9572,24.8780 ZM 10.9882,22.2671 c -0.1193,-0.0000 -0.4678,0.0668 -0.4678 0.3580c 0.0000,0.0859 -0.0334,0.2339 -0.1623 0.2339c -0.1241,-0.0000 -0.1336,-0.1384 -0.1336 -0.1527c 0.0000,-0.1480 0.1957,-0.5871 0.8592 -0.5871c 0.4630,-0.0000 0.6014,0.2912 0.6014 0.4821c 0.0000,0.1193 -0.0382,0.3580 -0.4678 0.6301c 0.2673,0.0430 0.6205,0.2387 0.6205 0.7351c 0.0000,0.6301 -0.4773,0.9690 -1.0167 0.9690c -0.2721,-0.0000 -0.6539,-0.1193 -0.6539 -0.3007c 0.0000,-0.0716 0.0716,-0.1527 0.1671 -0.1527c 0.0907,-0.0000 0.1336,0.0477 0.1766 0.1098c 0.0525,0.0811 0.1384,0.1957 0.3675 0.1957c 0.1575,-0.0000 0.6062,-0.1575 0.6062 -0.7589c 0.0000,-0.5107 -0.3580,-0.5919 -0.6157 -0.5919c -0.0430,-0.0000 -0.0955,0.0095 -0.1480 0.0191l -0.0191,-0.1432 c 0.3675,-0.0621 0.6730,-0.4200 0.6730 -0.6396c 0.0000,-0.2721 -0.1909,-0.4057 -0.3866 -0.4057Z"/>
  </g>
  <g stroke-linejoin="miter" stroke-opacity="0.6" fill-opacity="0.0" stroke="rgb(0,0,0)" stroke-width="0.48816447447119504" fill="rgb(0,0,0)" stroke-linecap="butt" stroke-miterlimit="10.0">
    <path d="M 13.1272,23.4389 h 2.1587 "/>
  </g>
  <g stroke-linejoin="miter" stroke-opacity="1.0" fill-opacity="0.6" stroke="rgb(0,0,0)" fill-rule="evenodd" stroke-width="0.0" fill="rgb(0,0,0)" stroke-linecap="butt" stroke-miterlimit="10.0">
    <path d="M 6.8213,32.0735 ZM 7.8666,29.4817 c -0.2052,-0.0000 -0.5060,0.2005 -0.5060 1.3126c 0.0000,0.3914 0.0716,1.1790 0.4916 1.1790c 0.0811,-0.0000 0.3103,-0.0525 0.4105 -0.4248c 0.0621,-0.2291 0.0955,-0.5155 0.0955 -0.9308c 0.0000,-0.6062 -0.1527,-0.9451 -0.2912 -1.0644c -0.0525,-0.0477 -0.1241,-0.0716 -0.2005 -0.0716ZM 7.8666,29.4817 ZM 7.8475,32.1308 c -0.5107,-0.0000 -0.8544,-0.6539 -0.8544 -1.3842c 0.0000,-0.8926 0.4248,-1.4319 0.8735 -1.4319c 0.2052,-0.0000 0.4105,0.1289 0.5489 0.3150c 0.2005,0.2673 0.3055,0.6253 0.3055 1.0740c 0.0000,1.0596 -0.5250,1.4272 -0.8735 1.4272ZM 8.9119,32.0735 ZM 9.1840,31.8778 c 0.0000,-0.1384 0.1146,-0.2530 0.2530 -0.2530c 0.1384,-0.0000 0.2530,0.1146 0.2530 0.2530c 0.0000,0.1384 -0.1146,0.2530 -0.2530 0.2530c -0.1384,-0.0000 -0.2530,-0.1146 -0.2530 -0.2530ZM 9.9572,32.0735 ZM 10.2341,29.9590 c 0.0000,-0.2721 0.2625,-0.6444 0.7637 -0.6444c 0.3675,-0.0000 0.7971,0.1384 0.7971 0.6873c 0.0000,0.3628 -0.1862,0.5441 -0.4439 0.7923l -0.4535,0.4391 c -0.0239,0.0239 -0.3437,0.3389 -0.3437 0.5632h 0.8114 c 0.1623,-0.0000 0.2482,-0.0811 0.3150 -0.3437l 0.1193,0.0191 l -0.0955,0.6014 h -1.4749 c 0.0000,-0.2673 0.0430,-0.4725 0.4869 -0.9260l 0.3341,-0.3293 c 0.2673,-0.2721 0.3771,-0.5060 0.3771 -0.7971c 0.0000,-0.4344 -0.2959,-0.5585 -0.4582 -0.5585c -0.3293,-0.0000 -0.4200,0.1718 -0.4200 0.2864c 0.0000,0.0382 0.0095,0.0764 0.0191 0.1098c 0.0095,0.0334 0.0191,0.0668 0.0191 0.1050c 0.0000,0.1241 -0.0955,0.1718 -0.1718 0.1718c -0.1050,-0.0000 -0.1814,-0.0811 -0.1814 -0.1766Z"/>
  </g>
  <g stroke-linejoin="miter" stroke-opacity="0.6" fill-opacity="0.0" stroke="rgb(0,0,0)" stroke-width="0.48816447447119504" fill="rgb(0,0,0)" stroke-linecap="butt" stroke-miterlimit="10.0">
    <path d="M 13.1272,30.6344 h 2.1587 "/>
  </g>
  <g stroke-linejoin="miter" stroke-opacity="1.0" fill-opacity="0.6" stroke="rgb(0,0,0)" fill-rule="evenodd" stroke-width="0.0" fill="rgb(0,0,0)" stroke-linecap="butt" stroke-miterlimit="10.0">
    <path d="M 6.8213,39.2691 ZM 7.8666,36.6772 c -0.2052,-0.0000 -0.5060,0.2005 -0.5060 1.3126c 0.0000,0.3914 0.0716,1.1790 0.4916 1.1790c 0.0811,-0.0000 0.3103,-0.0525 0.4105 -0.4248c 0.0621,-0.2291 0.0955,-0.5155 0.0955 -0.9308c 0.0000,-0.6062 -0.1527,-0.9451 -0.2912 -1.0644c -0.0525,-0.0477 -0.1241,-0.0716 -0.2005 -0.0716ZM 7.8666,36.6772 ZM 7.8475,39.3263 c -0.5107,-0.0000 -0.8544,-0.6539 -0.8544 -1.3842c 0.0000,-0.8926 0.4248,-1.4319 0.8735 -1.4319c 0.2052,-0.0000 0.4105,0.1289 0.5489 0.3150c 0.2005,0.2673 0.3055,0.6253 0.3055 1.0740c 0.0000,1.0596 -0.5250,1.4272 -0.8735 1.4272ZM 8.9119,39.2691 ZM 9.1840,39.0734 c 0.0000,-0.1384 0.1146,-0.2530 0.2530 -0.2530c 0.1384,-0.0000 0.2530,0.1146 0.2530 0.2530c 0.0000,0.1384 -0.1146,0.2530 -0.2530 0.2530c -0.1384,-0.0000 -0.2530,-0.1146 -0.2530 -0.2530ZM 9.9572,39.2691 ZM 10.8546,36.9923 c -0.0907,-0.0000 -0.3007,0.0859 -0.4057 0.1336l -0.0573,-0.1480 c 0.4200,-0.1957 0.5823,-0.2959 0.8210 -0.4678h 0.0907 v 2.4009 c 0.0000,0.1718 0.0239,0.2196 0.1814 0.2196h 0.2482 c 0.0143,-0.0000 0.0382,0.0095 0.0382 0.0382v 0.1050 l -0.6539,-0.0095 l -0.6635,0.0095 v -0.1050 c 0.0048,-0.0143 0.0095,-0.0382 0.0382 -0.0382h 0.2864 c 0.1814,-0.0000 0.1814,-0.0811 0.1814 -0.2196v -1.6420 c 0.0000,-0.1623 0.0000,-0.2768 -0.1050 -0.2768Z"/>
  </g>
  <g stroke-linejoin="miter" stroke-opacity="0.6" fill-opacity="0.0" stroke="rgb(0,0,0)" stroke-width="0.48816447447119504" fill="rgb(0,0,0)" stroke-linecap="butt" stroke-miterlimit="10.0">
    <path d="M 13.1272,37.8300 h 2.1587 "/>
  </g>
  <g stroke-linejoin="miter" stroke-opacity="1.0" fill-opacity="0.6" stroke="rgb(0,0,0)" fill-rule="evenodd" stroke-width="0.0" fill="rgb(0,0,0)" stroke-linecap="butt" stroke-miterlimit="10.0">
    <path d="M 6.8213,46.4646 ZM 7.8666,43.8728 c -0.2052,-0.0000 -0.5060,0.2005 -0.5060 1.3126c 0.0000,0.3914 0.0716,1.1790 0.4916 1.1790c 0.0811,-0.0000 0.3103,-0.0525 0.4105 -0.4248c 0.0621,-0.2291 0.0955,-0.5155 0.0955 -0.9308c 0.0000,-0.6062 -0.1527,-0.9451 -0.2912 -1.0644c -0.0525,-0.0477 -0.1241,-0.0716 -0.2005 -0.0716ZM 7.8666,43.8728 ZM 7.8475,46.5219 c -0.5107,-0.0000 -0.8544,-0.6539 -0.8544 -1.3842c 0.0000,-0.8926 0.4248,-1.4319 0.8735 -1.4319c 0.2052,-0.0000 0.4105,0.1289 0.5489 0.3150c 0.2005,0.2673 0.3055,0.6253 0.3055 1.0740c 0.0000,1.0596 -0.5250,1.4272 -0.8735 1.4272ZM 8.9119,46.4646 ZM 9.1840,46.2689 c 0.0000,-0.1384 0.1146,-0.2530 0.2530 -0.2530c 0.1384,-0.0000 0.2530,0.1146 0.2530 0.2530c 0.0000,0.1384 -0.1146,0.2530 -0.2530 0.2530c -0.1384,-0.0000 -0.2530,-0.1146 -0.2530 -0.2530ZM 9.9572,46.4646 ZM 11.0026,43.8728 c -0.2052,-0.0000 -0.5060,0.2005 -0.5060 1.3126c 0.0000,0.3914 0.0716,1.1790 0.4916 1.1790c 0.0811,-0.0000 0.3103,-0.0525 0.4105 -0.4248c 0.0621,-0.2291 0.0955,-0.5155 0.0955 -0.9308c 0.0000,-0.6062 -0.1527,-0.9451 -0.2912 -1.0644c -0.0525,-0.0477 -0.1241,-0.0716 -0.2005 -0.0716ZM 11.0026,43.8728 ZM 10.9835,46.5219 c -0.5107,-0.0000 -0.8544,-0.6539 -0.8544 -1.3842c 0.0000,-0.8926 0.4248,-1.4319 0.8735 -1.4319c 0.2052,-0.0000 0.4105,0.1289 0.5489 0.3150c 0.2005,0.2673 0.3055,0.6253 0.3055 1.0740c 0.0000,1.0596 -0.5250,1.4272 -0.8735 1.4272Z"/>
  </g>
  <g stroke-linejoin="miter" stroke-opacity="0.6" fill-opacity="0.0" stroke="rgb(0,0,0)" stroke-width="0.48816447447119504" fill="rgb(0,0,0)" stroke-linecap="butt" stroke-miterlimit="10.0">
    <path d="M 13.1272,45.0255 h 2.1587 "/>
  </g>
  <g stroke-linejoin="miter" stroke-opacity="1.0" fill-opacity="0.6" stroke="rgb(0,0,0)" fill-rule="evenodd" stroke-width="0.0" fill="rgb(0,0,0)" stroke-linecap="butt" stroke-miterlimit="10.0">
    <path d="M 5.2318,53.6602 ZM 6.5397,52.5337 h -1.0787 c -0.0430,-0.0000 -0.0716,-0.0382 -0.0716 -0.0811c 0.0000,-0.0764 0.0621,-0.1766 0.1193 -0.1766h 1.0931 c 0.0477,-0.0000 0.0668,0.0430 0.0668 0.0859c 0.0000,0.0525 -0.0668,0.1718 -0.1289 0.1718ZM 6.8213,53.6602 ZM 7.8666,51.0683 c -0.2052,-0.0000 -0.5060,0.2005 -0.5060 1.3126c 0.0000,0.3914 0.0716,1.1790 0.4916 1.1790c 0.0811,-0.0000 0.3103,-0.0525 0.4105 -0.4248c 0.0621,-0.2291 0.0955,-0.5155 0.0955 -0.9308c 0.0000,-0.6062 -0.1527,-0.9451 -0.2912 -1.0644c -0.0525,-0.0477 -0.1241,-0.0716 -0.2005 -0.0716ZM 7.8666,51.0683 ZM 7.8475,53.7174 c -0.5107,-0.0000 -0.8544,-0.6539 -0.8544 -1.3842c 0.0000,-0.8926 0.4248,-1.4319 0.8735 -1.4319c 0.2052,-0.0000 0.4105,0.1289 0.5489 0.3150c 0.2005,0.2673 0.3055,0.6253 0.3055 1.0740c 0.0000,1.0596 -0.5250,1.4272 -0.8735 1.4272ZM 8.9119,53.6602 ZM 9.1840,53.4645 c 0.0000,-0.1384 0.1146,-0.2530 0.2530 -0.2530c 0.1384,-0.0000 0.2530,0.1146 0.2530 0.2530c 0.0000,0.1384 -0.1146,0.2530 -0.2530 0.2530c -0.1384,-0.0000 -0.2530,-0.1146 -0.2530 -0.2530ZM 9.9572,53.6602 ZM 10.8546,51.3834 c -0.0907,-0.0000 -0.3007,0.0859 -0.4057 0.1336l -0.0573,-0.1480 c 0.4200,-0.1957 0.5823,-0.2959 0.8210 -0.4678h 0.0907 v 2.4009 c 0.0000,0.1718 0.0239,0.2196 0.1814 0.2196h 0.2482 c 0.0143,-0.0000 0.0382,0.0095 0.0382 0.0382v 0.1050 l -0.6539,-0.0095 l -0.6635,0.0095 v -0.1050 c 0.0048,-0.0143 0.0095,-0.0382 0.0382 -0.0382h 0.2864 c 0.1814,-0.0000 0.1814,-0.0811 0.1814 -0.2196v -1.6420 c 0.0000,-0.1623 0.0000,-0.2768 -0.1050 -0.2768Z"/>
  </g>
  <g stroke-linejoin="miter" stroke-opacity="0.6" fill-opacity="0.0" stroke="rgb(0,0,0)" stroke-width="0.48816447447119504" fill="rgb(0,0,0)" stroke-linecap="butt" stroke-miterlimit="10.0">
    <path d="M 13.1272,52.2210 h 2.1587 "/>
  </g>
  <g stroke-linejoin="miter" stroke-opacity="1.0" fill-opacity="0.6" stroke="rgb(0,0,0)" fill-rule="evenodd" stroke-width="0.0" fill="rgb(0,0,0)" stroke-linecap="butt" stroke-miterlimit="10.0">
    <path d="M 5.2318,60.8557 ZM 6.5397,59.7292 h -1.0787 c -0.0430,-0.0000 -0.0716,-0.0382 -0.0716 -0.0811c 0.0000,-0.0764 0.0621,-0.1766 0.1193 -0.1766h 1.0931 c 0.0477,-0.0000 0.0668,0.0430 0.0668 0.0859c 0.0000,0.0525 -0.0668,0.1718 -0.1289 0.1718ZM 6.8213,60.8557 ZM 7.8666,58.2639 c -0.2052,-0.0000 -0.5060,0.2005 -0.5060 1.3126c 0.0000,0.3914 0.0716,1.1790 0.4916 1.1790c 0.0811,-0.0000 0.3103,-0.0525 0.4105 -0.4248c 0.0621,-0.2291 0.0955,-0.5155 0.0955 -0.9308c 0.0000,-0.6062 -0.1527,-0.9451 -0.2912 -1.0644c -0.0525,-0.0477 -0.1241,-0.0716 -0.2005 -0.0716ZM 7.8666,58.2639 ZM 7.8475,60.9130 c -0.5107,-0.0000 -0.8544,-0.6539 -0.8544 -1.3842c 0.0000,-0.8926 0.4248,-1.4319 0.8735 -1.4319c 0.2052,-0.0000 0.4105,0.1289 0.5489 0.3150c 0.2005,0.2673 0.3055,0.6253 0.3055 1.0740c 0.0000,1.0596 -0.5250,1.4272 -0.8735 1.4272ZM 8.9119,60.8557 ZM 9.1840,60.6600 c 0.0000,-0.1384 0.1146,-0.2530 0.2530 -0.2530c 0.1384,-0.0000 0.2530,0.1146 0.2530 0.2530c 0.0000,0.1384 -0.1146,0.2530 -0.2530 0.2530c -0.1384,-0.0000 -0.2530,-0.1146 -0.2530 -0.2530ZM 9.9572,60.8557 ZM 10.2341,58.7412 c 0.0000,-0.2721 0.2625,-0.6444 0.7637 -0.6444c 0.3675,-0.0000 0.7971,0.1384 0.7971 0.6873c 0.0000,0.3628 -0.1862,0.5441 -0.4439 0.7923l -0.4535,0.4391 c -0.0239,0.0239 -0.3437,0.3389 -0.3437 0.5632h 0.8114 c 0.1623,-0.0000 0.2482,-0.0811 0.3150 -0.3437l 0.1193,0.0191 l -0.0955,0.6014 h -1.4749 c 0.0000,-0.2673 0.0430,-0.4725 0.4869 -0.9260l 0.3341,-0.3293 c 0.2673,-0.2721 0.3771,-0.5060 0.3771 -0.7971c 0.0000,-0.4344 -0.2959,-0.5585 -0.4582 -0.5585c -0.3293,-0.0000 -0.4200,0.1718 -0.4200 0.2864c 0.0000,0.0382 0.0095,0.0764 0.0191 0.1098c 0.0095,0.0334 0.0191,0.0668 0.0191 0.1050c 0.0000,0.1241 -0.0955,0.1718 -0.1718 0.1718c -0.1050,-0.0000 -0.1814,-0.0811 -0.1814 -0.1766Z"/>
  </g>
  <g stroke-linejoin="miter" stroke-opacity="0.6" fill-opacity="0.0" stroke="rgb(0,0,0)" stroke-width="0.48816447447119504" fill="rgb(0,0,0)" stroke-linecap="butt" stroke-miterlimit="10.0">
    <path d="M 13.1272,59.4166 h 2.1587 "/>
  </g>
  <g stroke-linejoin="miter" stroke-opacity="1.0" fill-opacity="0.6" stroke="rgb(0,0,0)" fill-rule="evenodd" stroke-width="0.0" fill="rgb(0,0,0)" stroke-linecap="butt" stroke-miterlimit="10.0">
    <path d="M 5.2318,68.0512 ZM 6.5397,66.9248 h -1.0787 c -0.0430,-0.0000 -0.0716,-0.0382 -0.0716 -0.0811c 0.0000,-0.0764 0.0621,-0.1766 0.1193 -0.1766h 1.0931 c 0.0477,-0.0000 0.0668,0.0430 0.0668 0.0859c 0.0000,0.0525 -0.0668,0.1718 -0.1289 0.1718ZM 6.8213,68.0512 ZM 7.8666,65.4594 c -0.2052,-0.0000 -0.5060,0.2005 -0.5060 1.3126c 0.0000,0.3914 0.0716,1.1790 0.4916 1.1790c 0.0811,-0.0000 0.3103,-0.0525 0.4105 -0.4248c 0.0621,-0.2291 0.0955,-0.5155 0.0955 -0.9308c 0.0000,-0.6062 -0.1527,-0.9451 -0.2912 -1.0644c -0.0525,-0.0477 -0.1241,-0.0716 -0.2005 -0.0716ZM 7.8666,65.4594 ZM 7.8475,68.1085 c -0.5107,-0.0000 -0.8544,-0.6539 -0.8544 -1.3842c 0.0000,-0.8926 0.4248,-1.4319 0.8735 -1.4319c 0.2052,-0.0000 0.4105,0.1289 0.5489 0.3150c 0.2005,0.2673 0.3055,0.6253 0.3055 1.0740c 0.0000,1.0596 -0.5250,1.4272 -0.8735 1.4272ZM 8.9119,68.0512 ZM 9.1840,67.8555 c 0.0000,-0.1384 0.1146,-0.2530 0.2530 -0.2530c 0.1384,-0.0000 0.2530,0.1146 0.2530 0.2530c 0.0000,0.1384 -0.1146,0.2530 -0.2530 0.2530c -0.1384,-0.0000 -0.2530,-0.1146 -0.2530 -0.2530ZM 9.9572,68.0512 ZM 10.9882,65.4403 c -0.1193,-0.0000 -0.4678,0.0668 -0.4678 0.3580c 0.0000,0.0859 -0.0334,0.2339 -0.1623 0.2339c -0.1241,-0.0000 -0.1336,-0.1384 -0.1336 -0.1527c 0.0000,-0.1480 0.1957,-0.5871 0.8592 -0.5871c 0.4630,-0.0000 0.6014,0.2912 0.6014 0.4821c 0.0000,0.1193 -0.0382,0.3580 -0.4678 0.6301c 0.2673,0.0430 0.6205,0.2387 0.6205 0.7351c 0.0000,0.6301 -0.4773,0.9690 -1.0167 0.9690c -0.2721,-0.0000 -0.6539,-0.1193 -0.6539 -0.3007c 0.0000,-0.0716 0.0716,-0.1527 0.1671 -0.1527c 0.0907,-0.0000 0.1336,0.0477 0.1766 0.1098c 0.0525,0.0811 0.1384,0.1957 0.3675 0.1957c 0.1575,-0.0000 0.6062,-0.1575 0.6062 -0.7589c 0.0000,-0.5107 -0.3580,-0.5919 -0.6157 -0.5919c -0.0430,-0.0000 -0.0955,0.0095 -0.1480 0.0191l -0.0191,-0.1432 c 0.3675,-0.0621 0.6730,-0.4200 0.6730 -0.6396c 0.0000,-0.2721 -0.1909,-0.4057 -0.3866 -0.4057Z"/>
  </g>
  <g stroke-linejoin="miter" stroke-opacity="0.6" fill-opacity="0.0" stroke="rgb(0,0,0)" stroke-width="0.48816447447119504" fill="rgb(0,0,0)" stroke-linecap="butt" stroke-miterlimit="10.0">
    <path d="M 13.1272,66.6121 h 2.1587 "/>
  </g>
  <g stroke-linejoin="miter" stroke-opacity="1.0" fill-opacity="0.6" stroke="rgb(0,0,0)" fill-rule="evenodd" stroke-width="0.0" fill="rgb(0,0,0)" stroke-linecap="butt" stroke-miterlimit="10.0">
    <path d="M 5.2318,75.2468 ZM 6.5397,74.1203 h -1.0787 c -0.0430,-0.0000 -0.0716,-0.0382 -0.0716 -0.0811c 0.0000,-0.0764 0.0621,-0.1766 0.1193 -0.1766h 1.0931 c 0.0477,-0.0000 0.0668,0.0430 0.0668 0.0859c 0.0000,0.0525 -0.0668,0.1718 -0.1289 0.1718ZM 6.8213,75.2468 ZM 7.8666,72.6550 c -0.2052,-0.0000 -0.5060,0.2005 -0.5060 1.3126c 0.0000,0.3914 0.0716,1.1790 0.4916 1.1790c 0.0811,-0.0000 0.3103,-0.0525 0.4105 -0.4248c 0.0621,-0.2291 0.0955,-0.5155 0.0955 -0.9308c 0.0000,-0.6062 -0.1527,-0.9451 -0.2912 -1.0644c -0.0525,-0.0477 -0.1241,-0.0716 -0.2005 -0.0716ZM 7.8666,72.6550 ZM 7.8475,75.3041 c -0.5107,-0.0000 -0.8544,-0.6539 -0.8544 -1.3842c 0.0000,-0.8926 0.4248,-1.4319 0.8735 -1.4319c 0.2052,-0.0000 0.4105,0.1289 0.5489 0.3150c 0.2005,0.2673 0.3055,0.6253 0.3055 1.0740c 0.0000,1.0596 -0.5250,1.4272 -0.8735 1.4272ZM 8.9119,75.2468 ZM 9.1840,75.0511 c 0.0000,-0.1384 0.1146,-0.2530 0.2530 -0.2530c 0.1384,-0.0000 0.2530,0.1146 0.2530 0.2530c 0.0000,0.1384 -0.1146,0.2530 -0.2530 0.2530c -0.1384,-0.0000 -0.2530,-0.1146 -0.2530 -0.2530ZM 9.9572,75.2468 ZM 11.1887,73.5523 c 0.0000,-0.0334 0.0048,-0.0716 0.0477 -0.0955c 0.0525,-0.0382 0.1384,-0.0811 0.2100 -0.0811c 0.0621,-0.0000 0.0668,0.0525 0.0668 0.1480v 0.7685 h 0.3866 l -0.0286,0.2243 h -0.3580 v 0.3962 c 0.0000,0.1336 0.0191,0.2005 0.1575 0.2005h 0.1289 c 0.0286,-0.0000 0.0334,0.0239 0.0334 0.0334v 0.1050 c 0.0000,-0.0000 -0.3055,-0.0095 -0.5060 -0.0095c -0.1814,-0.0000 -0.4630,0.0095 -0.4630 0.0095v -0.1050 c 0.0000,-0.0095 0.0048,-0.0334 0.0334 -0.0334h 0.1289 c 0.1480,-0.0000 0.1623,-0.0621 0.1623 -0.2005v -0.3962 h -0.9355 c -0.0191,-0.0000 -0.0286,-0.0095 -0.0430 -0.0286l -0.0382,-0.0525 l -0.0573,-0.1002 c -0.0048,-0.0000 -0.0048,-0.0048 -0.0048 -0.0095c 0.0000,-0.0048 0.0048,-0.0095 0.0095 -0.0143c 0.3103,-0.3437 0.8592,-1.4081 1.0310 -1.7995c 0.0048,-0.0191 0.0143,-0.0239 0.0334 -0.0239c 0.0048,-0.0000 0.1098,0.0430 0.1671 0.0525c -0.2148,0.5776 -0.5680,1.1981 -0.9164 1.7518h 0.7542 v -0.7398 Z"/>
  </g>
  <g stroke-linejoin="miter" stroke-opacity="0.6" fill-opacity="0.0" stroke="rgb(0,0,0)" stroke-width="0.48816447447119504" fill="rgb(0,0,0)" stroke-linecap="butt" stroke-miterlimit="10.0">
    <path d="M 13.1272,73.8077 h 2.1587 "/>
  </g>
  <g stroke-linejoin="miter" stroke-opacity="1.0" fill-opacity="0.6" stroke="rgb(0,0,0)" fill-rule="evenodd" stroke-width="0.0" fill="rgb(0,0,0)" stroke-linecap="butt" stroke-miterlimit="10.0">
    <path d="M 5.2318,82.4423 ZM 6.5397,81.3159 h -1.0787 c -0.0430,-0.0000 -0.0716,-0.0382 -0.0716 -0.0811c 0.0000,-0.0764 0.0621,-0.1766 0.1193 -0.1766h 1.0931 c 0.0477,-0.0000 0.0668,0.0430 0.0668 0.0859c 0.0000,0.0525 -0.0668,0.1718 -0.1289 0.1718ZM 6.8213,82.4423 ZM 7.8666,79.8505 c -0.2052,-0.0000 -0.5060,0.2005 -0.5060 1.3126c 0.0000,0.3914 0.0716,1.1790 0.4916 1.1790c 0.0811,-0.0000 0.3103,-0.0525 0.4105 -0.4248c 0.0621,-0.2291 0.0955,-0.5155 0.0955 -0.9308c 0.0000,-0.6062 -0.1527,-0.9451 -0.2912 -1.0644c -0.0525,-0.0477 -0.1241,-0.0716 -0.2005 -0.0716ZM 7.8666,79.8505 ZM 7.8475,82.4996 c -0.5107,-0.0000 -0.8544,-0.6539 -0.8544 -1.3842c 0.0000,-0.8926 0.4248,-1.4319 0.8735 -1.4319c 0.2052,-0.0000 0.4105,0.1289 0.5489 0.3150c 0.2005,0.2673 0.3055,0.6253 0.3055 1.0740c 0.0000,1.0596 -0.5250,1.4272 -0.8735 1.4272ZM 8.9119,82.4423 ZM 9.1840,82.2466 c 0.0000,-0.1384 0.1146,-0.2530 0.2530 -0.2530c 0.1384,-0.0000 0.2530,0.1146 0.2530 0.2530c 0.0000,0.1384 -0.1146,0.2530 -0.2530 0.2530c -0.1384,-0.0000 -0.2530,-0.1146 -0.2530 -0.2530ZM 9.9572,82.4423 ZM 11.4321,81.6357 c 0.0000,-0.4916 -0.2673,-0.7351 -0.5632 -0.7351c -0.2196,-0.0000 -0.3866,0.0334 -0.5728 0.1098l 0.1527,-1.3031 c 0.1575,0.0143 0.3198,0.0191 0.4869 0.0191c 0.2387,-0.0000 0.4869,-0.0143 0.7446 -0.0430l 0.0286,0.0143 l -0.0716,0.3103 c -0.1862,0.0191 -0.3389,0.0239 -0.4725 0.0239c -0.2148,-0.0000 -0.3771,-0.0191 -0.5441 -0.0382l -0.0907,0.7542 c 0.1002,-0.0382 0.2721,-0.0716 0.4582 -0.0716c 0.5060,-0.0000 0.7876,0.4391 0.7876 0.8783c 0.0000,0.5346 -0.3723,0.9451 -0.9117 0.9451c -0.2721,-0.0000 -0.6682,-0.1527 -0.6682 -0.3389c 0.0000,-0.0907 0.0764,-0.1527 0.1623 -0.1527c 0.0955,-0.0000 0.1575,0.0716 0.2148 0.1480c 0.0716,0.0859 0.1480,0.1814 0.3007 0.1814c 0.3055,-0.0000 0.5585,-0.2864 0.5585 -0.7017Z"/>
  </g>
  <g stroke-linejoin="miter" stroke-opacity="0.6" fill-opacity="0.0" stroke="rgb(0,0,0)" stroke-width="0.48816447447119504" fill="rgb(0,0,0)" stroke-linecap="butt" stroke-miterlimit="10.0">
    <path d="M 13.1272,81.0032 h 2.1587 "/>
  </g>
  <g stroke-linejoin="miter" stroke-opacity="0.0" fill-opacity="0.1" stroke="rgb(0,0,0)" stroke-width="0.0" fill="rgb(0,0,0)" stroke-linecap="butt" stroke-miterlimit="10.0">
    <path d="M 93.5276,85.3206 l -0.0000,-1.4391 h -71.9555 l -0.0000,1.4391 Z"/>
  </g>
  <g stroke-linejoin="miter" stroke-opacity="1.0" fill-opacity="0.6" stroke="rgb(0,0,0)" fill-rule="evenodd" stroke-width="0.0" fill="rgb(0,0,0)" stroke-linecap="butt" stroke-miterlimit="10.0">
    <path d="M 90.9143,91.3866 ZM 91.9596,88.7948 c -0.2052,-0.0000 -0.5060,0.2005 -0.5060 1.3126c 0.0000,0.3914 0.0716,1.1790 0.4916 1.1790c 0.0811,-0.0000 0.3103,-0.0525 0.4105 -0.4248c 0.0621,-0.2291 0.0955,-0.5155 0.0955 -0.9308c 0.0000,-0.6062 -0.1527,-0.9451 -0.2912 -1.0644c -0.0525,-0.0477 -0.1241,-0.0716 -0.2005 -0.0716ZM 91.9596,88.7948 ZM 91.9405,91.4439 c -0.5107,-0.0000 -0.8544,-0.6539 -0.8544 -1.3842c 0.0000,-0.8926 0.4248,-1.4319 0.8735 -1.4319c 0.2052,-0.0000 0.4105,0.1289 0.5489 0.3150c 0.2005,0.2673 0.3055,0.6253 0.3055 1.0740c 0.0000,1.0596 -0.5250,1.4272 -0.8735 1.4272ZM 93.0049,91.3866 ZM 93.2770,91.1909 c 0.0000,-0.1384 0.1146,-0.2530 0.2530 -0.2530c 0.1384,-0.0000 0.2530,0.1146 0.2530 0.2530c 0.0000,0.1384 -0.1146,0.2530 -0.2530 0.2530c -0.1384,-0.0000 -0.2530,-0.1146 -0.2530 -0.2530ZM 94.0503,91.3866 ZM 95.5252,90.5800 c 0.0000,-0.4916 -0.2673,-0.7351 -0.5632 -0.7351c -0.2196,-0.0000 -0.3866,0.0334 -0.5728 0.1098l 0.1527,-1.3031 c 0.1575,0.0143 0.3198,0.0191 0.4869 0.0191c 0.2387,-0.0000 0.4869,-0.0143 0.7446 -0.0430l 0.0286,0.0143 l -0.0716,0.3103 c -0.1862,0.0191 -0.3389,0.0239 -0.4725 0.0239c -0.2148,-0.0000 -0.3771,-0.0191 -0.5441 -0.0382l -0.0907,0.7542 c 0.1002,-0.0382 0.2721,-0.0716 0.4582 -0.0716c 0.5060,-0.0000 0.7876,0.4391 0.7876 0.8783c 0.0000,0.5346 -0.3723,0.9451 -0.9117 0.9451c -0.2721,-0.0000 -0.6682,-0.1527 -0.6682 -0.3389c 0.0000,-0.0907 0.0764,-0.1527 0.1623 -0.1527c 0.0955,-0.0000 0.1575,0.0716 0.2148 0.1480c 0.0716,0.0859 0.1480,0.1814 0.3007 0.1814c 0.3055,-0.0000 0.5585,-0.2864 0.5585 -0.7017Z"/>
  </g>
  <g stroke-linejoin="miter" stroke-opacity="0.6" fill-opacity="0.0" stroke="rgb(0,0,0)" stroke-width="0.48816447447119504" fill="rgb(0,0,0)" stroke-linecap="butt" stroke-miterlimit="10.0">
    <path d="M 93.5276,83.8814 v 2.1587 "/>
  </g>
  <g stroke-linejoin="miter" stroke-opacity="1.0" fill-opacity="0.6" stroke="rgb(0,0,0)" fill-rule="evenodd" stroke-width="0.0" fill="rgb(0,0,0)" stroke-linecap="butt" stroke-miterlimit="10.0">
    <path d="M 83.7187,91.3866 ZM 84.7641,88.7948 c -0.2052,-0.0000 -0.5060,0.2005 -0.5060 1.3126c 0.0000,0.3914 0.0716,1.1790 0.4916 1.1790c 0.0811,-0.0000 0.3103,-0.0525 0.4105 -0.4248c 0.0621,-0.2291 0.0955,-0.5155 0.0955 -0.9308c 0.0000,-0.6062 -0.1527,-0.9451 -0.2912 -1.0644c -0.0525,-0.0477 -0.1241,-0.0716 -0.2005 -0.0716ZM 84.7641,88.7948 ZM 84.7450,91.4439 c -0.5107,-0.0000 -0.8544,-0.6539 -0.8544 -1.3842c 0.0000,-0.8926 0.4248,-1.4319 0.8735 -1.4319c 0.2052,-0.0000 0.4105,0.1289 0.5489 0.3150c 0.2005,0.2673 0.3055,0.6253 0.3055 1.0740c 0.0000,1.0596 -0.5250,1.4272 -0.8735 1.4272ZM 85.8094,91.3866 ZM 86.0815,91.1909 c 0.0000,-0.1384 0.1146,-0.2530 0.2530 -0.2530c 0.1384,-0.0000 0.2530,0.1146 0.2530 0.2530c 0.0000,0.1384 -0.1146,0.2530 -0.2530 0.2530c -0.1384,-0.0000 -0.2530,-0.1146 -0.2530 -0.2530ZM 86.8547,91.3866 ZM 88.0862,89.6922 c 0.0000,-0.0334 0.0048,-0.0716 0.0477 -0.0955c 0.0525,-0.0382 0.1384,-0.0811 0.2100 -0.0811c 0.0621,-0.0000 0.0668,0.0525 0.0668 0.1480v 0.7685 h 0.3866 l -0.0286,0.2243 h -0.3580 v 0.3962 c 0.0000,0.1336 0.0191,0.2005 0.1575 0.2005h 0.1289 c 0.0286,-0.0000 0.0334,0.0239 0.0334 0.0334v 0.1050 c 0.0000,-0.0000 -0.3055,-0.0095 -0.5060 -0.0095c -0.1814,-0.0000 -0.4630,0.0095 -0.4630 0.0095v -0.1050 c 0.0000,-0.0095 0.0048,-0.0334 0.0334 -0.0334h 0.1289 c 0.1480,-0.0000 0.1623,-0.0621 0.1623 -0.2005v -0.3962 h -0.9355 c -0.0191,-0.0000 -0.0286,-0.0095 -0.0430 -0.0286l -0.0382,-0.0525 l -0.0573,-0.1002 c -0.0048,-0.0000 -0.0048,-0.0048 -0.0048 -0.0095c 0.0000,-0.0048 0.0048,-0.0095 0.0095 -0.0143c 0.3103,-0.3437 0.8592,-1.4081 1.0310 -1.7995c 0.0048,-0.0191 0.0143,-0.0239 0.0334 -0.0239c 0.0048,-0.0000 0.1098,0.0430 0.1671 0.0525c -0.2148,0.5776 -0.5680,1.1981 -0.9164 1.7518h 0.7542 v -0.7398 Z"/>
  </g>
  <g stroke-linejoin="miter" stroke-opacity="0.6" fill-opacity="0.0" stroke="rgb(0,0,0)" stroke-width="0.48816447447119504" fill="rgb(0,0,0)" stroke-linecap="butt" stroke-miterlimit="10.0">
    <path d="M 86.3320,83.8814 v 2.1587 "/>
  </g>
  <g stroke-linejoin="miter" stroke-opacity="1.0" fill-opacity="0.6" stroke="rgb(0,0,0)" fill-rule="evenodd" stroke-width="0.0" fill="rgb(0,0,0)" stroke-linecap="butt" stroke-miterlimit="10.0">
    <path d="M 76.5232,91.3866 ZM 77.5685,88.7948 c -0.2052,-0.0000 -0.5060,0.2005 -0.5060 1.3126c 0.0000,0.3914 0.0716,1.1790 0.4916 1.1790c 0.0811,-0.0000 0.3103,-0.0525 0.4105 -0.4248c 0.0621,-0.2291 0.0955,-0.5155 0.0955 -0.9308c 0.0000,-0.6062 -0.1527,-0.9451 -0.2912 -1.0644c -0.0525,-0.0477 -0.1241,-0.0716 -0.2005 -0.0716ZM 77.5685,88.7948 ZM 77.5494,91.4439 c -0.5107,-0.0000 -0.8544,-0.6539 -0.8544 -1.3842c 0.0000,-0.8926 0.4248,-1.4319 0.8735 -1.4319c 0.2052,-0.0000 0.4105,0.1289 0.5489 0.3150c 0.2005,0.2673 0.3055,0.6253 0.3055 1.0740c 0.0000,1.0596 -0.5250,1.4272 -0.8735 1.4272ZM 78.6138,91.3866 ZM 78.8859,91.1909 c 0.0000,-0.1384 0.1146,-0.2530 0.2530 -0.2530c 0.1384,-0.0000 0.2530,0.1146 0.2530 0.2530c 0.0000,0.1384 -0.1146,0.2530 -0.2530 0.2530c -0.1384,-0.0000 -0.2530,-0.1146 -0.2530 -0.2530ZM 79.6592,91.3866 ZM 80.6902,88.7757 c -0.1193,-0.0000 -0.4678,0.0668 -0.4678 0.3580c 0.0000,0.0859 -0.0334,0.2339 -0.1623 0.2339c -0.1241,-0.0000 -0.1336,-0.1384 -0.1336 -0.1527c 0.0000,-0.1480 0.1957,-0.5871 0.8592 -0.5871c 0.4630,-0.0000 0.6014,0.2912 0.6014 0.4821c 0.0000,0.1193 -0.0382,0.3580 -0.4678 0.6301c 0.2673,0.0430 0.6205,0.2387 0.6205 0.7351c 0.0000,0.6301 -0.4773,0.9690 -1.0167 0.9690c -0.2721,-0.0000 -0.6539,-0.1193 -0.6539 -0.3007c 0.0000,-0.0716 0.0716,-0.1527 0.1671 -0.1527c 0.0907,-0.0000 0.1336,0.0477 0.1766 0.1098c 0.0525,0.0811 0.1384,0.1957 0.3675 0.1957c 0.1575,-0.0000 0.6062,-0.1575 0.6062 -0.7589c 0.0000,-0.5107 -0.3580,-0.5919 -0.6157 -0.5919c -0.0430,-0.0000 -0.0955,0.0095 -0.1480 0.0191l -0.0191,-0.1432 c 0.3675,-0.0621 0.6730,-0.4200 0.6730 -0.6396c 0.0000,-0.2721 -0.1909,-0.4057 -0.3866 -0.4057Z"/>
  </g>
  <g stroke-linejoin="miter" stroke-opacity="0.6" fill-opacity="0.0" stroke="rgb(0,0,0)" stroke-width="0.48816447447119504" fill="rgb(0,0,0)" stroke-linecap="butt" stroke-miterlimit="10.0">
    <path d="M 79.1365,83.8814 v 2.1587 "/>
  </g>
  <g stroke-linejoin="miter" stroke-opacity="1.0" fill-opacity="0.6" stroke="rgb(0,0,0)" fill-rule="evenodd" stroke-width="0.0" fill="rgb(0,0,0)" stroke-linecap="butt" stroke-miterlimit="10.0">
    <path d="M 69.3276,91.3866 ZM 70.3730,88.7948 c -0.2052,-0.0000 -0.5060,0.2005 -0.5060 1.3126c 0.0000,0.3914 0.0716,1.1790 0.4916 1.1790c 0.0811,-0.0000 0.3103,-0.0525 0.4105 -0.4248c 0.0621,-0.2291 0.0955,-0.5155 0.0955 -0.9308c 0.0000,-0.6062 -0.1527,-0.9451 -0.2912 -1.0644c -0.0525,-0.0477 -0.1241,-0.0716 -0.2005 -0.0716ZM 70.3730,88.7948 ZM 70.3539,91.4439 c -0.5107,-0.0000 -0.8544,-0.6539 -0.8544 -1.3842c 0.0000,-0.8926 0.4248,-1.4319 0.8735 -1.4319c 0.2052,-0.0000 0.4105,0.1289 0.5489 0.3150c 0.2005,0.2673 0.3055,0.6253 0.3055 1.0740c 0.0000,1.0596 -0.5250,1.4272 -0.8735 1.4272ZM 71.4183,91.3866 ZM 71.6904,91.1909 c 0.0000,-0.1384 0.1146,-0.2530 0.2530 -0.2530c 0.1384,-0.0000 0.2530,0.1146 0.2530 0.2530c 0.0000,0.1384 -0.1146,0.2530 -0.2530 0.2530c -0.1384,-0.0000 -0.2530,-0.1146 -0.2530 -0.2530ZM 72.4636,91.3866 ZM 72.7405,89.2721 c 0.0000,-0.2721 0.2625,-0.6444 0.7637 -0.6444c 0.3675,-0.0000 0.7971,0.1384 0.7971 0.6873c 0.0000,0.3628 -0.1862,0.5441 -0.4439 0.7923l -0.4535,0.4391 c -0.0239,0.0239 -0.3437,0.3389 -0.3437 0.5632h 0.8114 c 0.1623,-0.0000 0.2482,-0.0811 0.3150 -0.3437l 0.1193,0.0191 l -0.0955,0.6014 h -1.4749 c 0.0000,-0.2673 0.0430,-0.4725 0.4869 -0.9260l 0.3341,-0.3293 c 0.2673,-0.2721 0.3771,-0.5060 0.3771 -0.7971c 0.0000,-0.4344 -0.2959,-0.5585 -0.4582 -0.5585c -0.3293,-0.0000 -0.4200,0.1718 -0.4200 0.2864c 0.0000,0.0382 0.0095,0.0764 0.0191 0.1098c 0.0095,0.0334 0.0191,0.0668 0.0191 0.1050c 0.0000,0.1241 -0.0955,0.1718 -0.1718 0.1718c -0.1050,-0.0000 -0.1814,-0.0811 -0.1814 -0.1766Z"/>
  </g>
  <g stroke-linejoin="miter" stroke-opacity="0.6" fill-opacity="0.0" stroke="rgb(0,0,0)" stroke-width="0.48816447447119504" fill="rgb(0,0,0)" stroke-linecap="butt" stroke-miterlimit="10.0">
    <path d="M 71.9410,83.8814 v 2.1587 "/>
  </g>
  <g stroke-linejoin="miter" stroke-opacity="1.0" fill-opacity="0.6" stroke="rgb(0,0,0)" fill-rule="evenodd" stroke-width="0.0" fill="rgb(0,0,0)" stroke-linecap="butt" stroke-miterlimit="10.0">
    <path d="M 62.1321,91.3866 ZM 63.1774,88.7948 c -0.2052,-0.0000 -0.5060,0.2005 -0.5060 1.3126c 0.0000,0.3914 0.0716,1.1790 0.4916 1.1790c 0.0811,-0.0000 0.3103,-0.0525 0.4105 -0.4248c 0.0621,-0.2291 0.0955,-0.5155 0.0955 -0.9308c 0.0000,-0.6062 -0.1527,-0.9451 -0.2912 -1.0644c -0.0525,-0.0477 -0.1241,-0.0716 -0.2005 -0.0716ZM 63.1774,88.7948 ZM 63.1583,91.4439 c -0.5107,-0.0000 -0.8544,-0.6539 -0.8544 -1.3842c 0.0000,-0.8926 0.4248,-1.4319 0.8735 -1.4319c 0.2052,-0.0000 0.4105,0.1289 0.5489 0.3150c 0.2005,0.2673 0.3055,0.6253 0.3055 1.0740c 0.0000,1.0596 -0.5250,1.4272 -0.8735 1.4272ZM 64.2227,91.3866 ZM 64.4948,91.1909 c 0.0000,-0.1384 0.1146,-0.2530 0.2530 -0.2530c 0.1384,-0.0000 0.2530,0.1146 0.2530 0.2530c 0.0000,0.1384 -0.1146,0.2530 -0.2530 0.2530c -0.1384,-0.0000 -0.2530,-0.1146 -0.2530 -0.2530ZM 65.2681,91.3866 ZM 66.1654,89.1098 c -0.0907,-0.0000 -0.3007,0.0859 -0.4057 0.1336l -0.0573,-0.1480 c 0.4200,-0.1957 0.5823,-0.2959 0.8210 -0.4678h 0.0907 v 2.4009 c 0.0000,0.1718 0.0239,0.2196 0.1814 0.2196h 0.2482 c 0.0143,-0.0000 0.0382,0.0095 0.0382 0.0382v 0.1050 l -0.6539,-0.0095 l -0.6635,0.0095 v -0.1050 c 0.0048,-0.0143 0.0095,-0.0382 0.0382 -0.0382h 0.2864 c 0.1814,-0.0000 0.1814,-0.0811 0.1814 -0.2196v -1.6420 c 0.0000,-0.1623 0.0000,-0.2768 -0.1050 -0.2768Z"/>
  </g>
  <g stroke-linejoin="miter" stroke-opacity="0.6" fill-opacity="0.0" stroke="rgb(0,0,0)" stroke-width="0.48816447447119504" fill="rgb(0,0,0)" stroke-linecap="butt" stroke-miterlimit="10.0">
    <path d="M 64.7454,83.8814 v 2.1587 "/>
  </g>
  <g stroke-linejoin="miter" stroke-opacity="1.0" fill-opacity="0.6" stroke="rgb(0,0,0)" fill-rule="evenodd" stroke-width="0.0" fill="rgb(0,0,0)" stroke-linecap="butt" stroke-miterlimit="10.0">
    <path d="M 54.9366,91.3866 ZM 55.9819,88.7948 c -0.2052,-0.0000 -0.5060,0.2005 -0.5060 1.3126c 0.0000,0.3914 0.0716,1.1790 0.4916 1.1790c 0.0811,-0.0000 0.3103,-0.0525 0.4105 -0.4248c 0.0621,-0.2291 0.0955,-0.5155 0.0955 -0.9308c 0.0000,-0.6062 -0.1527,-0.9451 -0.2912 -1.0644c -0.0525,-0.0477 -0.1241,-0.0716 -0.2005 -0.0716ZM 55.9819,88.7948 ZM 55.9628,91.4439 c -0.5107,-0.0000 -0.8544,-0.6539 -0.8544 -1.3842c 0.0000,-0.8926 0.4248,-1.4319 0.8735 -1.4319c 0.2052,-0.0000 0.4105,0.1289 0.5489 0.3150c 0.2005,0.2673 0.3055,0.6253 0.3055 1.0740c 0.0000,1.0596 -0.5250,1.4272 -0.8735 1.4272ZM 57.0272,91.3866 ZM 57.2993,91.1909 c 0.0000,-0.1384 0.1146,-0.2530 0.2530 -0.2530c 0.1384,-0.0000 0.2530,0.1146 0.2530 0.2530c 0.0000,0.1384 -0.1146,0.2530 -0.2530 0.2530c -0.1384,-0.0000 -0.2530,-0.1146 -0.2530 -0.2530ZM 58.0725,91.3866 ZM 59.1178,88.7948 c -0.2052,-0.0000 -0.5060,0.2005 -0.5060 1.3126c 0.0000,0.3914 0.0716,1.1790 0.4916 1.1790c 0.0811,-0.0000 0.3103,-0.0525 0.4105 -0.4248c 0.0621,-0.2291 0.0955,-0.5155 0.0955 -0.9308c 0.0000,-0.6062 -0.1527,-0.9451 -0.2912 -1.0644c -0.0525,-0.0477 -0.1241,-0.0716 -0.2005 -0.0716ZM 59.1178,88.7948 ZM 59.0988,91.4439 c -0.5107,-0.0000 -0.8544,-0.6539 -0.8544 -1.3842c 0.0000,-0.8926 0.4248,-1.4319 0.8735 -1.4319c 0.2052,-0.0000 0.4105,0.1289 0.5489 0.3150c 0.2005,0.2673 0.3055,0.6253 0.3055 1.0740c 0.0000,1.0596 -0.5250,1.4272 -0.8735 1.4272Z"/>
  </g>
  <g stroke-linejoin="miter" stroke-opacity="0.6" fill-opacity="0.0" stroke="rgb(0,0,0)" stroke-width="0.48816447447119504" fill="rgb(0,0,0)" stroke-linecap="butt" stroke-miterlimit="10.0">
    <path d="M 57.5499,83.8814 v 2.1587 "/>
  </g>
  <g stroke-linejoin="miter" stroke-opacity="1.0" fill-opacity="0.6" stroke="rgb(0,0,0)" fill-rule="evenodd" stroke-width="0.0" fill="rgb(0,0,0)" stroke-linecap="butt" stroke-miterlimit="10.0">
    <path d="M 46.9463,91.3866 ZM 48.2541,90.2602 h -1.0787 c -0.0430,-0.0000 -0.0716,-0.0382 -0.0716 -0.0811c 0.0000,-0.0764 0.0621,-0.1766 0.1193 -0.1766h 1.0931 c 0.0477,-0.0000 0.0668,0.0430 0.0668 0.0859c 0.0000,0.0525 -0.0668,0.1718 -0.1289 0.1718ZM 48.5357,91.3866 ZM 49.5811,88.7948 c -0.2052,-0.0000 -0.5060,0.2005 -0.5060 1.3126c 0.0000,0.3914 0.0716,1.1790 0.4916 1.1790c 0.0811,-0.0000 0.3103,-0.0525 0.4105 -0.4248c 0.0621,-0.2291 0.0955,-0.5155 0.0955 -0.9308c 0.0000,-0.6062 -0.1527,-0.9451 -0.2912 -1.0644c -0.0525,-0.0477 -0.1241,-0.0716 -0.2005 -0.0716ZM 49.5811,88.7948 ZM 49.5620,91.4439 c -0.5107,-0.0000 -0.8544,-0.6539 -0.8544 -1.3842c 0.0000,-0.8926 0.4248,-1.4319 0.8735 -1.4319c 0.2052,-0.0000 0.4105,0.1289 0.5489 0.3150c 0.2005,0.2673 0.3055,0.6253 0.3055 1.0740c 0.0000,1.0596 -0.5250,1.4272 -0.8735 1.4272ZM 50.6264,91.3866 ZM 50.8985,91.1909 c 0.0000,-0.1384 0.1146,-0.2530 0.2530 -0.2530c 0.1384,-0.0000 0.2530,0.1146 0.2530 0.2530c 0.0000,0.1384 -0.1146,0.2530 -0.2530 0.2530c -0.1384,-0.0000 -0.2530,-0.1146 -0.2530 -0.2530ZM 51.6717,91.3866 ZM 52.5691,89.1098 c -0.0907,-0.0000 -0.3007,0.0859 -0.4057 0.1336l -0.0573,-0.1480 c 0.4200,-0.1957 0.5823,-0.2959 0.8210 -0.4678h 0.0907 v 2.4009 c 0.0000,0.1718 0.0239,0.2196 0.1814 0.2196h 0.2482 c 0.0143,-0.0000 0.0382,0.0095 0.0382 0.0382v 0.1050 l -0.6539,-0.0095 l -0.6635,0.0095 v -0.1050 c 0.0048,-0.0143 0.0095,-0.0382 0.0382 -0.0382h 0.2864 c 0.1814,-0.0000 0.1814,-0.0811 0.1814 -0.2196v -1.6420 c 0.0000,-0.1623 0.0000,-0.2768 -0.1050 -0.2768Z"/>
  </g>
  <g stroke-linejoin="miter" stroke-opacity="0.6" fill-opacity="0.0" stroke="rgb(0,0,0)" stroke-width="0.48816447447119504" fill="rgb(0,0,0)" stroke-linecap="butt" stroke-miterlimit="10.0">
    <path d="M 50.3543,83.8814 v 2.1587 "/>
  </g>
  <g stroke-linejoin="miter" stroke-opacity="1.0" fill-opacity="0.6" stroke="rgb(0,0,0)" fill-rule="evenodd" stroke-width="0.0" fill="rgb(0,0,0)" stroke-linecap="butt" stroke-miterlimit="10.0">
    <path d="M 39.7507,91.3866 ZM 41.0586,90.2602 h -1.0787 c -0.0430,-0.0000 -0.0716,-0.0382 -0.0716 -0.0811c 0.0000,-0.0764 0.0621,-0.1766 0.1193 -0.1766h 1.0931 c 0.0477,-0.0000 0.0668,0.0430 0.0668 0.0859c 0.0000,0.0525 -0.0668,0.1718 -0.1289 0.1718ZM 41.3402,91.3866 ZM 42.3855,88.7948 c -0.2052,-0.0000 -0.5060,0.2005 -0.5060 1.3126c 0.0000,0.3914 0.0716,1.1790 0.4916 1.1790c 0.0811,-0.0000 0.3103,-0.0525 0.4105 -0.4248c 0.0621,-0.2291 0.0955,-0.5155 0.0955 -0.9308c 0.0000,-0.6062 -0.1527,-0.9451 -0.2912 -1.0644c -0.0525,-0.0477 -0.1241,-0.0716 -0.2005 -0.0716ZM 42.3855,88.7948 ZM 42.3664,91.4439 c -0.5107,-0.0000 -0.8544,-0.6539 -0.8544 -1.3842c 0.0000,-0.8926 0.4248,-1.4319 0.8735 -1.4319c 0.2052,-0.0000 0.4105,0.1289 0.5489 0.3150c 0.2005,0.2673 0.3055,0.6253 0.3055 1.0740c 0.0000,1.0596 -0.5250,1.4272 -0.8735 1.4272ZM 43.4308,91.3866 ZM 43.7029,91.1909 c 0.0000,-0.1384 0.1146,-0.2530 0.2530 -0.2530c 0.1384,-0.0000 0.2530,0.1146 0.2530 0.2530c 0.0000,0.1384 -0.1146,0.2530 -0.2530 0.2530c -0.1384,-0.0000 -0.2530,-0.1146 -0.2530 -0.2530ZM 44.4762,91.3866 ZM 44.7530,89.2721 c 0.0000,-0.2721 0.2625,-0.6444 0.7637 -0.6444c 0.3675,-0.0000 0.7971,0.1384 0.7971 0.6873c 0.0000,0.3628 -0.1862,0.5441 -0.4439 0.7923l -0.4535,0.4391 c -0.0239,0.0239 -0.3437,0.3389 -0.3437 0.5632h 0.8114 c 0.1623,-0.0000 0.2482,-0.0811 0.3150 -0.3437l 0.1193,0.0191 l -0.0955,0.6014 h -1.4749 c 0.0000,-0.2673 0.0430,-0.4725 0.4869 -0.9260l 0.3341,-0.3293 c 0.2673,-0.2721 0.3771,-0.5060 0.3771 -0.7971c 0.0000,-0.4344 -0.2959,-0.5585 -0.4582 -0.5585c -0.3293,-0.0000 -0.4200,0.1718 -0.4200 0.2864c 0.0000,0.0382 0.0095,0.0764 0.0191 0.1098c 0.0095,0.0334 0.0191,0.0668 0.0191 0.1050c 0.0000,0.1241 -0.0955,0.1718 -0.1718 0.1718c -0.1050,-0.0000 -0.1814,-0.0811 -0.1814 -0.1766Z"/>
  </g>
  <g stroke-linejoin="miter" stroke-opacity="0.6" fill-opacity="0.0" stroke="rgb(0,0,0)" stroke-width="0.48816447447119504" fill="rgb(0,0,0)" stroke-linecap="butt" stroke-miterlimit="10.0">
    <path d="M 43.1588,83.8814 v 2.1587 "/>
  </g>
  <g stroke-linejoin="miter" stroke-opacity="1.0" fill-opacity="0.6" stroke="rgb(0,0,0)" fill-rule="evenodd" stroke-width="0.0" fill="rgb(0,0,0)" stroke-linecap="butt" stroke-miterlimit="10.0">
    <path d="M 32.5552,91.3866 ZM 33.8630,90.2602 h -1.0787 c -0.0430,-0.0000 -0.0716,-0.0382 -0.0716 -0.0811c 0.0000,-0.0764 0.0621,-0.1766 0.1193 -0.1766h 1.0931 c 0.0477,-0.0000 0.0668,0.0430 0.0668 0.0859c 0.0000,0.0525 -0.0668,0.1718 -0.1289 0.1718ZM 34.1447,91.3866 ZM 35.1900,88.7948 c -0.2052,-0.0000 -0.5060,0.2005 -0.5060 1.3126c 0.0000,0.3914 0.0716,1.1790 0.4916 1.1790c 0.0811,-0.0000 0.3103,-0.0525 0.4105 -0.4248c 0.0621,-0.2291 0.0955,-0.5155 0.0955 -0.9308c 0.0000,-0.6062 -0.1527,-0.9451 -0.2912 -1.0644c -0.0525,-0.0477 -0.1241,-0.0716 -0.2005 -0.0716ZM 35.1900,88.7948 ZM 35.1709,91.4439 c -0.5107,-0.0000 -0.8544,-0.6539 -0.8544 -1.3842c 0.0000,-0.8926 0.4248,-1.4319 0.8735 -1.4319c 0.2052,-0.0000 0.4105,0.1289 0.5489 0.3150c 0.2005,0.2673 0.3055,0.6253 0.3055 1.0740c 0.0000,1.0596 -0.5250,1.4272 -0.8735 1.4272ZM 36.2353,91.3866 ZM 36.5074,91.1909 c 0.0000,-0.1384 0.1146,-0.2530 0.2530 -0.2530c 0.1384,-0.0000 0.2530,0.1146 0.2530 0.2530c 0.0000,0.1384 -0.1146,0.2530 -0.2530 0.2530c -0.1384,-0.0000 -0.2530,-0.1146 -0.2530 -0.2530ZM 37.2806,91.3866 ZM 38.3116,88.7757 c -0.1193,-0.0000 -0.4678,0.0668 -0.4678 0.3580c 0.0000,0.0859 -0.0334,0.2339 -0.1623 0.2339c -0.1241,-0.0000 -0.1336,-0.1384 -0.1336 -0.1527c 0.0000,-0.1480 0.1957,-0.5871 0.8592 -0.5871c 0.4630,-0.0000 0.6014,0.2912 0.6014 0.4821c 0.0000,0.1193 -0.0382,0.3580 -0.4678 0.6301c 0.2673,0.0430 0.6205,0.2387 0.6205 0.7351c 0.0000,0.6301 -0.4773,0.9690 -1.0167 0.9690c -0.2721,-0.0000 -0.6539,-0.1193 -0.6539 -0.3007c 0.0000,-0.0716 0.0716,-0.1527 0.1671 -0.1527c 0.0907,-0.0000 0.1336,0.0477 0.1766 0.1098c 0.0525,0.0811 0.1384,0.1957 0.3675 0.1957c 0.1575,-0.0000 0.6062,-0.1575 0.6062 -0.7589c 0.0000,-0.5107 -0.3580,-0.5919 -0.6157 -0.5919c -0.0430,-0.0000 -0.0955,0.0095 -0.1480 0.0191l -0.0191,-0.1432 c 0.3675,-0.0621 0.6730,-0.4200 0.6730 -0.6396c 0.0000,-0.2721 -0.1909,-0.4057 -0.3866 -0.4057Z"/>
  </g>
  <g stroke-linejoin="miter" stroke-opacity="0.6" fill-opacity="0.0" stroke="rgb(0,0,0)" stroke-width="0.48816447447119504" fill="rgb(0,0,0)" stroke-linecap="butt" stroke-miterlimit="10.0">
    <path d="M 35.9632,83.8814 v 2.1587 "/>
  </g>
  <g stroke-linejoin="miter" stroke-opacity="1.0" fill-opacity="0.6" stroke="rgb(0,0,0)" fill-rule="evenodd" stroke-width="0.0" fill="rgb(0,0,0)" stroke-linecap="butt" stroke-miterlimit="10.0">
    <path d="M 25.3596,91.3866 ZM 26.6675,90.2602 h -1.0787 c -0.0430,-0.0000 -0.0716,-0.0382 -0.0716 -0.0811c 0.0000,-0.0764 0.0621,-0.1766 0.1193 -0.1766h 1.0931 c 0.0477,-0.0000 0.0668,0.0430 0.0668 0.0859c 0.0000,0.0525 -0.0668,0.1718 -0.1289 0.1718ZM 26.9491,91.3866 ZM 27.9944,88.7948 c -0.2052,-0.0000 -0.5060,0.2005 -0.5060 1.3126c 0.0000,0.3914 0.0716,1.1790 0.4916 1.1790c 0.0811,-0.0000 0.3103,-0.0525 0.4105 -0.4248c 0.0621,-0.2291 0.0955,-0.5155 0.0955 -0.9308c 0.0000,-0.6062 -0.1527,-0.9451 -0.2912 -1.0644c -0.0525,-0.0477 -0.1241,-0.0716 -0.2005 -0.0716ZM 27.9944,88.7948 ZM 27.9753,91.4439 c -0.5107,-0.0000 -0.8544,-0.6539 -0.8544 -1.3842c 0.0000,-0.8926 0.4248,-1.4319 0.8735 -1.4319c 0.2052,-0.0000 0.4105,0.1289 0.5489 0.3150c 0.2005,0.2673 0.3055,0.6253 0.3055 1.0740c 0.0000,1.0596 -0.5250,1.4272 -0.8735 1.4272ZM 29.0398,91.3866 ZM 29.3118,91.1909 c 0.0000,-0.1384 0.1146,-0.2530 0.2530 -0.2530c 0.1384,-0.0000 0.2530,0.1146 0.2530 0.2530c 0.0000,0.1384 -0.1146,0.2530 -0.2530 0.2530c -0.1384,-0.0000 -0.2530,-0.1146 -0.2530 -0.2530ZM 30.0851,91.3866 ZM 31.3166,89.6922 c 0.0000,-0.0334 0.0048,-0.0716 0.0477 -0.0955c 0.0525,-0.0382 0.1384,-0.0811 0.2100 -0.0811c 0.0621,-0.0000 0.0668,0.0525 0.0668 0.1480v 0.7685 h 0.3866 l -0.0286,0.2243 h -0.3580 v 0.3962 c 0.0000,0.1336 0.0191,0.2005 0.1575 0.2005h 0.1289 c 0.0286,-0.0000 0.0334,0.0239 0.0334 0.0334v 0.1050 c 0.0000,-0.0000 -0.3055,-0.0095 -0.5060 -0.0095c -0.1814,-0.0000 -0.4630,0.0095 -0.4630 0.0095v -0.1050 c 0.0000,-0.0095 0.0048,-0.0334 0.0334 -0.0334h 0.1289 c 0.1480,-0.0000 0.1623,-0.0621 0.1623 -0.2005v -0.3962 h -0.9355 c -0.0191,-0.0000 -0.0286,-0.0095 -0.0430 -0.0286l -0.0382,-0.0525 l -0.0573,-0.1002 c -0.0048,-0.0000 -0.0048,-0.0048 -0.0048 -0.0095c 0.0000,-0.0048 0.0048,-0.0095 0.0095 -0.0143c 0.3103,-0.3437 0.8592,-1.4081 1.0310 -1.7995c 0.0048,-0.0191 0.0143,-0.0239 0.0334 -0.0239c 0.0048,-0.0000 0.1098,0.0430 0.1671 0.0525c -0.2148,0.5776 -0.5680,1.1981 -0.9164 1.7518h 0.7542 v -0.7398 Z"/>
  </g>
  <g stroke-linejoin="miter" stroke-opacity="0.6" fill-opacity="0.0" stroke="rgb(0,0,0)" stroke-width="0.48816447447119504" fill="rgb(0,0,0)" stroke-linecap="butt" stroke-miterlimit="10.0">
    <path d="M 28.7677,83.8814 v 2.1587 "/>
  </g>
  <g stroke-linejoin="miter" stroke-opacity="1.0" fill-opacity="0.6" stroke="rgb(0,0,0)" fill-rule="evenodd" stroke-width="0.0" fill="rgb(0,0,0)" stroke-linecap="butt" stroke-miterlimit="10.0">
    <path d="M 18.1641,91.3866 ZM 19.4719,90.2602 h -1.0787 c -0.0430,-0.0000 -0.0716,-0.0382 -0.0716 -0.0811c 0.0000,-0.0764 0.0621,-0.1766 0.1193 -0.1766h 1.0931 c 0.0477,-0.0000 0.0668,0.0430 0.0668 0.0859c 0.0000,0.0525 -0.0668,0.1718 -0.1289 0.1718ZM 19.7536,91.3866 ZM 20.7989,88.7948 c -0.2052,-0.0000 -0.5060,0.2005 -0.5060 1.3126c 0.0000,0.3914 0.0716,1.1790 0.4916 1.1790c 0.0811,-0.0000 0.3103,-0.0525 0.4105 -0.4248c 0.0621,-0.2291 0.0955,-0.5155 0.0955 -0.9308c 0.0000,-0.6062 -0.1527,-0.9451 -0.2912 -1.0644c -0.0525,-0.0477 -0.1241,-0.0716 -0.2005 -0.0716ZM 20.7989,88.7948 ZM 20.7798,91.4439 c -0.5107,-0.0000 -0.8544,-0.6539 -0.8544 -1.3842c 0.0000,-0.8926 0.4248,-1.4319 0.8735 -1.4319c 0.2052,-0.0000 0.4105,0.1289 0.5489 0.3150c 0.2005,0.2673 0.3055,0.6253 0.3055 1.0740c 0.0000,1.0596 -0.5250,1.4272 -0.8735 1.4272ZM 21.8442,91.3866 ZM 22.1163,91.1909 c 0.0000,-0.1384 0.1146,-0.2530 0.2530 -0.2530c 0.1384,-0.0000 0.2530,0.1146 0.2530 0.2530c 0.0000,0.1384 -0.1146,0.2530 -0.2530 0.2530c -0.1384,-0.0000 -0.2530,-0.1146 -0.2530 -0.2530ZM 22.8895,91.3866 ZM 24.3644,90.5800 c 0.0000,-0.4916 -0.2673,-0.7351 -0.5632 -0.7351c -0.2196,-0.0000 -0.3866,0.0334 -0.5728 0.1098l 0.1527,-1.3031 c 0.1575,0.0143 0.3198,0.0191 0.4869 0.0191c 0.2387,-0.0000 0.4869,-0.0143 0.7446 -0.0430l 0.0286,0.0143 l -0.0716,0.3103 c -0.1862,0.0191 -0.3389,0.0239 -0.4725 0.0239c -0.2148,-0.0000 -0.3771,-0.0191 -0.5441 -0.0382l -0.0907,0.7542 c 0.1002,-0.0382 0.2721,-0.0716 0.4582 -0.0716c 0.5060,-0.0000 0.7876,0.4391 0.7876 0.8783c 0.0000,0.5346 -0.3723,0.9451 -0.9117 0.9451c -0.2721,-0.0000 -0.6682,-0.1527 -0.6682 -0.3389c 0.0000,-0.0907 0.0764,-0.1527 0.1623 -0.1527c 0.0955,-0.0000 0.1575,0.0716 0.2148 0.1480c 0.0716,0.0859 0.1480,0.1814 0.3007 0.1814c 0.3055,-0.0000 0.5585,-0.2864 0.5585 -0.7017Z"/>
  </g>
  <g stroke-linejoin="miter" stroke-opacity="0.6" fill-opacity="0.0" stroke="rgb(0,0,0)" stroke-width="0.48816447447119504" fill="rgb(0,0,0)" stroke-linecap="butt" stroke-miterlimit="10.0">
    <path d="M 21.5721,83.8814 v 2.1587 "/>
  </g>
  <g stroke-linejoin="miter" stroke-opacity="0.0" fill-opacity="0.0" stroke="rgb(0,0,0)" stroke-width="0.0" fill="rgb(0,0,0)" stroke-linecap="butt" stroke-miterlimit="10.0">
    <path d="M 93.5276,81.0032 l -0.0000,-71.9555 h -71.9555 l -0.0000,71.9555 Z"/>
  </g>
  <g stroke-linejoin="miter" stroke-opacity="1.0" fill-opacity="1.0" stroke="rgb(0,0,0)" stroke-width="0.0" fill="rgb(255,0,0)" stroke-linecap="butt" stroke-miterlimit="10.0">
    <path d="M 59.5499,45.0255 c 0.0000,-1.1046 -0.8954,-2.0000 -2.0000 -2.0000c -1.1046,-0.0000 -2.0000,0.8954 -2.0000 2.0000c -0.0000,1.1046 0.8954,2.0000 2.0000 2.0000c 1.1046,0.0000 2.0000,-0.8954 2.0000 -2.0000Z"/>
  </g>
</svg>