<?xml version="1.0" encoding="UTF-8"?>
<!DOCTYPE svg PUBLIC "-//W3C//DTD SVG 1.1//EN"
    "http://www.w3.org/Graphics/SVG/1.1/DTD/svg11.dtd"><svg xmlns="http://www.w3.org/2000/svg" height="100.0000" stroke-opacity="1" viewBox="0 0 100 100" font-size="1" width="100.0000" xmlns:xlink="http://www.w3.org/1999/xlink" stroke="rgb(0,0,0)" version="1.1"><defs></defs><g stroke-linejoin="miter" stroke-opacity="0.0" fill-opacity="0.1" stroke="rgb(0,0,0)" stroke-width="0.0" fill="rgb(0,0,0)" stroke-linecap="butt" stroke-miterlimit="10.0"><path d="M 12.2405,72.7796 l -0.0000,-51.5531 h -1.0311 l -0.0000,51.5531 Z"/></g><g stroke-linejoin="miter" stroke-opacity="1.0" fill-opacity="0.6" stroke="rgb(0,0,0)" fill-rule="evenodd" stroke-width="0.0" fill="rgb(0,0,0)" stroke-linecap="butt" stroke-miterlimit="10.0"><path d="M 6.1760,21.2265 ZM 6.9249,19.3696 c -0.1471,-0.0000 -0.3625,0.1436 -0.3625 0.9404c 0.0000,0.2804 0.0513,0.8447 0.3522 0.8447c 0.0581,-0.0000 0.2223,-0.0376 0.2941 -0.3044c 0.0445,-0.1641 0.0684,-0.3693 0.0684 -0.6669c 0.0000,-0.4343 -0.1094,-0.6771 -0.2086 -0.7626c -0.0376,-0.0342 -0.0889,-0.0513 -0.1436 -0.0513ZM 6.9249,19.3696 ZM 6.9112,21.2676 c -0.3659,-0.0000 -0.6121,-0.4685 -0.6121 -0.9917c 0.0000,-0.6395 0.3044,-1.0259 0.6258 -1.0259c 0.1471,-0.0000 0.2941,0.0923 0.3933 0.2257c 0.1436,0.1915 0.2189,0.4480 0.2189 0.7694c 0.0000,0.7592 -0.3762,1.0225 -0.6258 1.0225ZM 7.6738,21.2265 ZM 7.8688,21.0863 c 0.0000,-0.0992 0.0821,-0.1812 0.1812 -0.1812c 0.0992,-0.0000 0.1812,0.0821 0.1812 0.1812c 0.0000,0.0992 -0.0821,0.1812 -0.1812 0.1812c -0.0992,-0.0000 -0.1812,-0.0821 -0.1812 -0.1812ZM 8.4228,21.2265 ZM 9.4795,20.6486 c 0.0000,-0.3522 -0.1915,-0.5266 -0.4035 -0.5266c -0.1573,-0.0000 -0.2770,0.0239 -0.4104 0.0787l 0.1094,-0.9336 c 0.1129,0.0103 0.2291,0.0137 0.3488 0.0137c 0.1710,-0.0000 0.3488,-0.0103 0.5335 -0.0308l 0.0205,0.0103 l -0.0513,0.2223 c -0.1334,0.0137 -0.2428,0.0171 -0.3386 0.0171c -0.1539,-0.0000 -0.2702,-0.0137 -0.3899 -0.0274l -0.0650,0.5403 c 0.0718,-0.0274 0.1949,-0.0513 0.3283 -0.0513c 0.3625,-0.0000 0.5643,0.3146 0.5643 0.6292c 0.0000,0.3830 -0.2667,0.6771 -0.6532 0.6771c -0.1949,-0.0000 -0.4788,-0.1094 -0.4788 -0.2428c 0.0000,-0.0650 0.0547,-0.1094 0.1163 -0.1094c 0.0684,-0.0000 0.1129,0.0513 0.1539 0.1060c 0.0513,0.0616 0.1060,0.1300 0.2154 0.1300c 0.2189,-0.0000 0.4001,-0.2052 0.4001 -0.5027Z"/></g><g stroke-linejoin="miter" stroke-opacity="0.6" fill-opacity="0.0" stroke="rgb(0,0,0)" stroke-width="0.4166181137571621" fill="rgb(0,0,0)" stroke-linecap="butt" stroke-miterlimit="10.0"><path d="M 10.6939,21.2265 h 1.5466 "/></g><g stroke-linejoin="miter" stroke-opacity="1.0" fill-opacity="0.6" stroke="rgb(0,0,0)" fill-rule="evenodd" stroke-width="0.0" fill="rgb(0,0,0)" stroke-linecap="butt" stroke-miterlimit="10.0"><path d="M 6.1760,26.3818 ZM 6.9249,24.5249 c -0.1471,-0.0000 -0.3625,0.1436 -0.3625 0.9404c 0.0000,0.2804 0.0513,0.8447 0.3522 0.8447c 0.0581,-0.0000 0.2223,-0.0376 0.2941 -0.3044c 0.0445,-0.1641 0.0684,-0.3693 0.0684 -0.6669c 0.0000,-0.4343 -0.1094,-0.6771 -0.2086 -0.7626c -0.0376,-0.0342 -0.0889,-0.0513 -0.1436 -0.0513ZM 6.9249,24.5249 ZM 6.9112,26.4229 c -0.3659,-0.0000 -0.6121,-0.4685 -0.6121 -0.9917c 0.0000,-0.6395 0.3044,-1.0259 0.6258 -1.0259c 0.1471,-0.0000 0.2941,0.0923 0.3933 0.2257c 0.1436,0.1915 0.2189,0.4480 0.2189 0.7694c 0.0000,0.7592 -0.3762,1.0225 -0.6258 1.0225ZM 7.6738,26.3818 ZM 7.8688,26.2416 c 0.0000,-0.0992 0.0821,-0.1812 0.1812 -0.1812c 0.0992,-0.0000 0.1812,0.0821 0.1812 0.1812c 0.0000,0.0992 -0.0821,0.1812 -0.1812 0.1812c -0.0992,-0.0000 -0.1812,-0.0821 -0.1812 -0.1812ZM 8.4228,26.3818 ZM 9.3051,25.1678 c 0.0000,-0.0239 0.0034,-0.0513 0.0342 -0.0684c 0.0376,-0.0274 0.0992,-0.0581 0.1505 -0.0581c 0.0445,-0.0000 0.0479,0.0376 0.0479 0.1060v 0.5506 h 0.2770 l -0.0205,0.1607 h -0.2565 v 0.2838 c 0.0000,0.0958 0.0137,0.1436 0.1129 0.1436h 0.0923 c 0.0205,-0.0000 0.0239,0.0171 0.0239 0.0239v 0.0752 c 0.0000,-0.0000 -0.2189,-0.0068 -0.3625 -0.0068c -0.1300,-0.0000 -0.3317,0.0068 -0.3317 0.0068v -0.0752 c 0.0000,-0.0068 0.0034,-0.0239 0.0239 -0.0239h 0.0923 c 0.1060,-0.0000 0.1163,-0.0445 0.1163 -0.1436v -0.2838 h -0.6703 c -0.0137,-0.0000 -0.0205,-0.0068 -0.0308 -0.0205l -0.0274,-0.0376 l -0.0410,-0.0718 c -0.0034,-0.0000 -0.0034,-0.0034 -0.0034 -0.0068c 0.0000,-0.0034 0.0034,-0.0068 0.0068 -0.0103c 0.2223,-0.2462 0.6156,-1.0088 0.7387 -1.2893c 0.0034,-0.0137 0.0103,-0.0171 0.0239 -0.0171c 0.0034,-0.0000 0.0787,0.0308 0.1197 0.0376c -0.1539,0.4138 -0.4070,0.8584 -0.6566 1.2551h 0.5403 v -0.5301 Z"/></g><g stroke-linejoin="miter" stroke-opacity="0.6" fill-opacity="0.0" stroke="rgb(0,0,0)" stroke-width="0.4166181137571621" fill="rgb(0,0,0)" stroke-linecap="butt" stroke-miterlimit="10.0"><path d="M 10.6939,26.3818 h 1.5466 "/></g><g stroke-linejoin="miter" stroke-opacity="1.0" fill-opacity="0.6" stroke="rgb(0,0,0)" fill-rule="evenodd" stroke-width="0.0" fill="rgb(0,0,0)" stroke-linecap="butt" stroke-miterlimit="10.0"><path d="M 6.1760,31.5371 ZM 6.9249,29.6802 c -0.1471,-0.0000 -0.3625,0.1436 -0.3625 0.9404c 0.0000,0.2804 0.0513,0.8447 0.3522 0.8447c 0.0581,-0.0000 0.2223,-0.0376 0.2941 -0.3044c 0.0445,-0.1641 0.0684,-0.3693 0.0684 -0.6669c 0.0000,-0.4343 -0.1094,-0.6771 -0.2086 -0.7626c -0.0376,-0.0342 -0.0889,-0.0513 -0.1436 -0.0513ZM 6.9249,29.6802 ZM 6.9112,31.5782 c -0.3659,-0.0000 -0.6121,-0.4685 -0.6121 -0.9917c 0.0000,-0.6395 0.3044,-1.0259 0.6258 -1.0259c 0.1471,-0.0000 0.2941,0.0923 0.3933 0.2257c 0.1436,0.1915 0.2189,0.4480 0.2189 0.7694c 0.0000,0.7592 -0.3762,1.0225 -0.6258 1.0225ZM 7.6738,31.5371 ZM 7.8688,31.3969 c 0.0000,-0.0992 0.0821,-0.1812 0.1812 -0.1812c 0.0992,-0.0000 0.1812,0.0821 0.1812 0.1812c 0.0000,0.0992 -0.0821,0.1812 -0.1812 0.1812c -0.0992,-0.0000 -0.1812,-0.0821 -0.1812 -0.1812ZM 8.4228,31.5371 ZM 9.1614,29.6665 c -0.0855,-0.0000 -0.3351,0.0479 -0.3351 0.2565c 0.0000,0.0616 -0.0239,0.1676 -0.1163 0.1676c -0.0889,-0.0000 -0.0958,-0.0992 -0.0958 -0.1094c 0.0000,-0.1060 0.1402,-0.4206 0.6156 -0.4206c 0.3317,-0.0000 0.4309,0.2086 0.4309 0.3454c 0.0000,0.0855 -0.0274,0.2565 -0.3351 0.4514c 0.1915,0.0308 0.4446,0.1710 0.4446 0.5266c 0.0000,0.4514 -0.3420,0.6942 -0.7284 0.6942c -0.1949,-0.0000 -0.4685,-0.0855 -0.4685 -0.2154c 0.0000,-0.0513 0.0513,-0.1094 0.1197 -0.1094c 0.0650,-0.0000 0.0958,0.0342 0.1265 0.0787c 0.0376,0.0581 0.0992,0.1402 0.2633 0.1402c 0.1129,-0.0000 0.4343,-0.1129 0.4343 -0.5437c 0.0000,-0.3659 -0.2565,-0.4241 -0.4412 -0.4241c -0.0308,-0.0000 -0.0684,0.0068 -0.1060 0.0137l -0.0137,-0.1026 c 0.2633,-0.0445 0.4822,-0.3009 0.4822 -0.4582c 0.0000,-0.1949 -0.1368,-0.2907 -0.2770 -0.2907Z"/></g><g stroke-linejoin="miter" stroke-opacity="0.6" fill-opacity="0.0" stroke="rgb(0,0,0)" stroke-width="0.4166181137571621" fill="rgb(0,0,0)" stroke-linecap="butt" stroke-miterlimit="10.0"><path d="M 10.6939,31.5371 h 1.5466 "/></g><g stroke-linejoin="miter" stroke-opacity="1.0" fill-opacity="0.6" stroke="rgb(0,0,0)" fill-rule="evenodd" stroke-width="0.0" fill="rgb(0,0,0)" stroke-linecap="butt" stroke-miterlimit="10.0"><path d="M 6.1760,36.6924 ZM 6.9249,34.8355 c -0.1471,-0.0000 -0.3625,0.1436 -0.3625 0.9404c 0.0000,0.2804 0.0513,0.8447 0.3522 0.8447c 0.0581,-0.0000 0.2223,-0.0376 0.2941 -0.3044c 0.0445,-0.1641 0.0684,-0.3693 0.0684 -0.6669c 0.0000,-0.4343 -0.1094,-0.6771 -0.2086 -0.7626c -0.0376,-0.0342 -0.0889,-0.0513 -0.1436 -0.0513ZM 6.9249,34.8355 ZM 6.9112,36.7335 c -0.3659,-0.0000 -0.6121,-0.4685 -0.6121 -0.9917c 0.0000,-0.6395 0.3044,-1.0259 0.6258 -1.0259c 0.1471,-0.0000 0.2941,0.0923 0.3933 0.2257c 0.1436,0.1915 0.2189,0.4480 0.2189 0.7694c 0.0000,0.7592 -0.3762,1.0225 -0.6258 1.0225ZM 7.6738,36.6924 ZM 7.8688,36.5522 c 0.0000,-0.0992 0.0821,-0.1812 0.1812 -0.1812c 0.0992,-0.0000 0.1812,0.0821 0.1812 0.1812c 0.0000,0.0992 -0.0821,0.1812 -0.1812 0.1812c -0.0992,-0.0000 -0.1812,-0.0821 -0.1812 -0.1812ZM 8.4228,36.6924 ZM 8.6211,35.1775 c 0.0000,-0.1949 0.1881,-0.4617 0.5472 -0.4617c 0.2633,-0.0000 0.5711,0.0992 0.5711 0.4924c 0.0000,0.2599 -0.1334,0.3899 -0.3180 0.5677l -0.3249,0.3146 c -0.0171,0.0171 -0.2462,0.2428 -0.2462 0.4035h 0.5814 c 0.1163,-0.0000 0.1778,-0.0581 0.2257 -0.2462l 0.0855,0.0137 l -0.0684,0.4309 h -1.0567 c 0.0000,-0.1915 0.0308,-0.3386 0.3488 -0.6634l 0.2394,-0.2360 c 0.1915,-0.1949 0.2702,-0.3625 0.2702 -0.5711c 0.0000,-0.3112 -0.2120,-0.4001 -0.3283 -0.4001c -0.2360,-0.0000 -0.3009,0.1231 -0.3009 0.2052c 0.0000,0.0274 0.0068,0.0547 0.0137 0.0787c 0.0068,0.0239 0.0137,0.0479 0.0137 0.0752c 0.0000,0.0889 -0.0684,0.1231 -0.1231 0.1231c -0.0752,-0.0000 -0.1300,-0.0581 -0.1300 -0.1265Z"/></g><g stroke-linejoin="miter" stroke-opacity="0.6" fill-opacity="0.0" stroke="rgb(0,0,0)" stroke-width="0.4166181137571621" fill="rgb(0,0,0)" stroke-linecap="butt" stroke-miterlimit="10.0"><path d="M 10.6939,36.6924 h 1.5466 "/></g><g stroke-linejoin="miter" stroke-opacity="1.0" fill-opacity="0.6" stroke="rgb(0,0,0)" fill-rule="evenodd" stroke-width="0.0" fill="rgb(0,0,0)" stroke-linecap="butt" stroke-miterlimit="10.0"><path d="M 6.1760,41.8478 ZM 6.9249,39.9908 c -0.1471,-0.0000 -0.3625,0.1436 -0.3625 0.9404c 0.0000,0.2804 0.0513,0.8447 0.3522 0.8447c 0.0581,-0.0000 0.2223,-0.0376 0.2941 -0.3044c 0.0445,-0.1641 0.0684,-0.3693 0.0684 -0.6669c 0.0000,-0.4343 -0.1094,-0.6771 -0.2086 -0.7626c -0.0376,-0.0342 -0.0889,-0.0513 -0.1436 -0.0513ZM 6.9249,39.9908 ZM 6.9112,41.8888 c -0.3659,-0.0000 -0.6121,-0.4685 -0.6121 -0.9917c 0.0000,-0.6395 0.3044,-1.0259 0.6258 -1.0259c 0.1471,-0.0000 0.2941,0.0923 0.3933 0.2257c 0.1436,0.1915 0.2189,0.4480 0.2189 0.7694c 0.0000,0.7592 -0.3762,1.0225 -0.6258 1.0225ZM 7.6738,41.8478 ZM 7.8688,41.7075 c 0.0000,-0.0992 0.0821,-0.1812 0.1812 -0.1812c 0.0992,-0.0000 0.1812,0.0821 0.1812 0.1812c 0.0000,0.0992 -0.0821,0.1812 -0.1812 0.1812c -0.0992,-0.0000 -0.1812,-0.0821 -0.1812 -0.1812ZM 8.4228,41.8478 ZM 9.0657,40.2165 c -0.0650,-0.0000 -0.2154,0.0616 -0.2907 0.0958l -0.0410,-0.1060 c 0.3009,-0.1402 0.4172,-0.2120 0.5882 -0.3351h 0.0650 v 1.7201 c 0.0000,0.1231 0.0171,0.1573 0.1300 0.1573h 0.1778 c 0.0103,-0.0000 0.0274,0.0068 0.0274 0.0274v 0.0752 l -0.4685,-0.0068 l -0.4753,0.0068 v -0.0752 c 0.0034,-0.0103 0.0068,-0.0274 0.0274 -0.0274h 0.2052 c 0.1300,-0.0000 0.1300,-0.0581 0.1300 -0.1573v -1.1764 c 0.0000,-0.1163 0.0000,-0.1983 -0.0752 -0.1983Z"/></g><g stroke-linejoin="miter" stroke-opacity="0.6" fill-opacity="0.0" stroke="rgb(0,0,0)" stroke-width="0.4166181137571621" fill="rgb(0,0,0)" stroke-linecap="butt" stroke-miterlimit="10.0"><path d="M 10.6939,41.8478 h 1.5466 "/></g><g stroke-linejoin="miter" stroke-opacity="1.0" fill-opacity="0.6" stroke="rgb(0,0,0)" fill-rule="evenodd" stroke-width="0.0" fill="rgb(0,0,0)" stroke-linecap="butt" stroke-miterlimit="10.0"><path d="M 6.1760,47.0031 ZM 6.9249,45.1461 c -0.1471,-0.0000 -0.3625,0.1436 -0.3625 0.9404c 0.0000,0.2804 0.0513,0.8447 0.3522 0.8447c 0.0581,-0.0000 0.2223,-0.0376 0.2941 -0.3044c 0.0445,-0.1641 0.0684,-0.3693 0.0684 -0.6669c 0.0000,-0.4343 -0.1094,-0.6771 -0.2086 -0.7626c -0.0376,-0.0342 -0.0889,-0.0513 -0.1436 -0.0513ZM 6.9249,45.1461 ZM 6.9112,47.0441 c -0.3659,-0.0000 -0.6121,-0.4685 -0.6121 -0.9917c 0.0000,-0.6395 0.3044,-1.0259 0.6258 -1.0259c 0.1471,-0.0000 0.2941,0.0923 0.3933 0.2257c 0.1436,0.1915 0.2189,0.4480 0.2189 0.7694c 0.0000,0.7592 -0.3762,1.0225 -0.6258 1.0225ZM 7.6738,47.0031 ZM 7.8688,46.8629 c 0.0000,-0.0992 0.0821,-0.1812 0.1812 -0.1812c 0.0992,-0.0000 0.1812,0.0821 0.1812 0.1812c 0.0000,0.0992 -0.0821,0.1812 -0.1812 0.1812c -0.0992,-0.0000 -0.1812,-0.0821 -0.1812 -0.1812ZM 8.4228,47.0031 ZM 9.1717,45.1461 c -0.1471,-0.0000 -0.3625,0.1436 -0.3625 0.9404c 0.0000,0.2804 0.0513,0.8447 0.3522 0.8447c 0.0581,-0.0000 0.2223,-0.0376 0.2941 -0.3044c 0.0445,-0.1641 0.0684,-0.3693 0.0684 -0.6669c 0.0000,-0.4343 -0.1094,-0.6771 -0.2086 -0.7626c -0.0376,-0.0342 -0.0889,-0.0513 -0.1436 -0.0513ZM 9.1717,45.1461 ZM 9.1580,47.0441 c -0.3659,-0.0000 -0.6121,-0.4685 -0.6121 -0.9917c 0.0000,-0.6395 0.3044,-1.0259 0.6258 -1.0259c 0.1471,-0.0000 0.2941,0.0923 0.3933 0.2257c 0.1436,0.1915 0.2189,0.4480 0.2189 0.7694c 0.0000,0.7592 -0.3762,1.0225 -0.6258 1.0225Z"/></g><g stroke-linejoin="miter" stroke-opacity="0.6" fill-opacity="0.0" stroke="rgb(0,0,0)" stroke-width="0.4166181137571621" fill="rgb(0,0,0)" stroke-linecap="butt" stroke-miterlimit="10.0"><path d="M 10.6939,47.0031 h 1.5466 "/></g><g stroke-linejoin="miter" stroke-opacity="1.0" fill-opacity="0.6" stroke="rgb(0,0,0)" fill-rule="evenodd" stroke-width="0.0" fill="rgb(0,0,0)" stroke-linecap="butt" stroke-miterlimit="10.0"><path d="M 5.0372,52.1584 ZM 5.9742,51.3513 h -0.7729 c -0.0308,-0.0000 -0.0513,-0.0274 -0.0513 -0.0581c 0.0000,-0.0547 0.0445,-0.1265 0.0855 -0.1265h 0.7831 c 0.0342,-0.0000 0.0479,0.0308 0.0479 0.0616c 0.0000,0.0376 -0.0479,0.1231 -0.0923 0.1231ZM 6.1760,52.1584 ZM 6.9249,50.3014 c -0.1471,-0.0000 -0.3625,0.1436 -0.3625 0.9404c 0.0000,0.2804 0.0513,0.8447 0.3522 0.8447c 0.0581,-0.0000 0.2223,-0.0376 0.2941 -0.3044c 0.0445,-0.1641 0.0684,-0.3693 0.0684 -0.6669c 0.0000,-0.4343 -0.1094,-0.6771 -0.2086 -0.7626c -0.0376,-0.0342 -0.0889,-0.0513 -0.1436 -0.0513ZM 6.9249,50.3014 ZM 6.9112,52.1994 c -0.3659,-0.0000 -0.6121,-0.4685 -0.6121 -0.9917c 0.0000,-0.6395 0.3044,-1.0259 0.6258 -1.0259c 0.1471,-0.0000 0.2941,0.0923 0.3933 0.2257c 0.1436,0.1915 0.2189,0.4480 0.2189 0.7694c 0.0000,0.7592 -0.3762,1.0225 -0.6258 1.0225ZM 7.6738,52.1584 ZM 7.8688,52.0182 c 0.0000,-0.0992 0.0821,-0.1812 0.1812 -0.1812c 0.0992,-0.0000 0.1812,0.0821 0.1812 0.1812c 0.0000,0.0992 -0.0821,0.1812 -0.1812 0.1812c -0.0992,-0.0000 -0.1812,-0.0821 -0.1812 -0.1812ZM 8.4228,52.1584 ZM 9.0657,50.5271 c -0.0650,-0.0000 -0.2154,0.0616 -0.2907 0.0958l -0.0410,-0.1060 c 0.3009,-0.1402 0.4172,-0.2120 0.5882 -0.3351h 0.0650 v 1.7201 c 0.0000,0.1231 0.0171,0.1573 0.1300 0.1573h 0.1778 c 0.0103,-0.0000 0.0274,0.0068 0.0274 0.0274v 0.0752 l -0.4685,-0.0068 l -0.4753,0.0068 v -0.0752 c 0.0034,-0.0103 0.0068,-0.0274 0.0274 -0.0274h 0.2052 c 0.1300,-0.0000 0.1300,-0.0581 0.1300 -0.1573v -1.1764 c 0.0000,-0.1163 0.0000,-0.1983 -0.0752 -0.1983Z"/></g><g stroke-linejoin="miter" stroke-opacity="0.6" fill-opacity="0.0" stroke="rgb(0,0,0)" stroke-width="0.4166181137571621" fill="rgb(0,0,0)" stroke-linecap="butt" stroke-miterlimit="10.0"><path d="M 10.6939,52.1584 h 1.5466 "/></g><g stroke-linejoin="miter" stroke-opacity="1.0" fill-opacity="0.6" stroke="rgb(0,0,0)" fill-rule="evenodd" stroke-width="0.0" fill="rgb(0,0,0)" stroke-linecap="butt" stroke-miterlimit="10.0"><path d="M 5.0372,57.3137 ZM 5.9742,56.5066 h -0.7729 c -0.0308,-0.0000 -0.0513,-0.0274 -0.0513 -0.0581c 0.0000,-0.0547 0.0445,-0.1265 0.0855 -0.1265h 0.7831 c 0.0342,-0.0000 0.0479,0.0308 0.0479 0.0616c 0.0000,0.0376 -0.0479,0.1231 -0.0923 0.1231ZM 6.1760,57.3137 ZM 6.9249,55.4567 c -0.1471,-0.0000 -0.3625,0.1436 -0.3625 0.9404c 0.0000,0.2804 0.0513,0.8447 0.3522 0.8447c 0.0581,-0.0000 0.2223,-0.0376 0.2941 -0.3044c 0.0445,-0.1641 0.0684,-0.3693 0.0684 -0.6669c 0.0000,-0.4343 -0.1094,-0.6771 -0.2086 -0.7626c -0.0376,-0.0342 -0.0889,-0.0513 -0.1436 -0.0513ZM 6.9249,55.4567 ZM 6.9112,57.3547 c -0.3659,-0.0000 -0.6121,-0.4685 -0.6121 -0.9917c 0.0000,-0.6395 0.3044,-1.0259 0.6258 -1.0259c 0.1471,-0.0000 0.2941,0.0923 0.3933 0.2257c 0.1436,0.1915 0.2189,0.4480 0.2189 0.7694c 0.0000,0.7592 -0.3762,1.0225 -0.6258 1.0225ZM 7.6738,57.3137 ZM 7.8688,57.1735 c 0.0000,-0.0992 0.0821,-0.1812 0.1812 -0.1812c 0.0992,-0.0000 0.1812,0.0821 0.1812 0.1812c 0.0000,0.0992 -0.0821,0.1812 -0.1812 0.1812c -0.0992,-0.0000 -0.1812,-0.0821 -0.1812 -0.1812ZM 8.4228,57.3137 ZM 8.6211,55.7987 c 0.0000,-0.1949 0.1881,-0.4617 0.5472 -0.4617c 0.2633,-0.0000 0.5711,0.0992 0.5711 0.4924c 0.0000,0.2599 -0.1334,0.3899 -0.3180 0.5677l -0.3249,0.3146 c -0.0171,0.0171 -0.2462,0.2428 -0.2462 0.4035h 0.5814 c 0.1163,-0.0000 0.1778,-0.0581 0.2257 -0.2462l 0.0855,0.0137 l -0.0684,0.4309 h -1.0567 c 0.0000,-0.1915 0.0308,-0.3386 0.3488 -0.6634l 0.2394,-0.2360 c 0.1915,-0.1949 0.2702,-0.3625 0.2702 -0.5711c 0.0000,-0.3112 -0.2120,-0.4001 -0.3283 -0.4001c -0.2360,-0.0000 -0.3009,0.1231 -0.3009 0.2052c 0.0000,0.0274 0.0068,0.0547 0.0137 0.0787c 0.0068,0.0239 0.0137,0.0479 0.0137 0.0752c 0.0000,0.0889 -0.0684,0.1231 -0.1231 0.1231c -0.0752,-0.0000 -0.1300,-0.0581 -0.1300 -0.1265Z"/></g><g stroke-linejoin="miter" stroke-opacity="0.6" fill-opacity="0.0" stroke="rgb(0,0,0)" stroke-width="0.4166181137571621" fill="rgb(0,0,0)" stroke-linecap="butt" stroke-miterlimit="10.0"><path d="M 10.6939,57.3137 h 1.5466 "/></g><g stroke-linejoin="miter" stroke-opacity="1.0" fill-opacity="0.6" stroke="rgb(0,0,0)" fill-rule="evenodd" stroke-width="0.0" fill="rgb(0,0,0)" stroke-linecap="butt" stroke-miterlimit="10.0"><path d="M 5.0372,62.4690 ZM 5.9742,61.6619 h -0.7729 c -0.0308,-0.0000 -0.0513,-0.0274 -0.0513 -0.0581c 0.0000,-0.0547 0.0445,-0.1265 0.0855 -0.1265h 0.7831 c 0.0342,-0.0000 0.0479,0.0308 0.0479 0.0616c 0.0000,0.0376 -0.0479,0.1231 -0.0923 0.1231ZM 6.1760,62.4690 ZM 6.9249,60.6120 c -0.1471,-0.0000 -0.3625,0.1436 -0.3625 0.9404c 0.0000,0.2804 0.0513,0.8447 0.3522 0.8447c 0.0581,-0.0000 0.2223,-0.0376 0.2941 -0.3044c 0.0445,-0.1641 0.0684,-0.3693 0.0684 -0.6669c 0.0000,-0.4343 -0.1094,-0.6771 -0.2086 -0.7626c -0.0376,-0.0342 -0.0889,-0.0513 -0.1436 -0.0513ZM 6.9249,60.6120 ZM 6.9112,62.5100 c -0.3659,-0.0000 -0.6121,-0.4685 -0.6121 -0.9917c 0.0000,-0.6395 0.3044,-1.0259 0.6258 -1.0259c 0.1471,-0.0000 0.2941,0.0923 0.3933 0.2257c 0.1436,0.1915 0.2189,0.4480 0.2189 0.7694c 0.0000,0.7592 -0.3762,1.0225 -0.6258 1.0225ZM 7.6738,62.4690 ZM 7.8688,62.3288 c 0.0000,-0.0992 0.0821,-0.1812 0.1812 -0.1812c 0.0992,-0.0000 0.1812,0.0821 0.1812 0.1812c 0.0000,0.0992 -0.0821,0.1812 -0.1812 0.1812c -0.0992,-0.0000 -0.1812,-0.0821 -0.1812 -0.1812ZM 8.4228,62.4690 ZM 9.1614,60.5984 c -0.0855,-0.0000 -0.3351,0.0479 -0.3351 0.2565c 0.0000,0.0616 -0.0239,0.1676 -0.1163 0.1676c -0.0889,-0.0000 -0.0958,-0.0992 -0.0958 -0.1094c 0.0000,-0.1060 0.1402,-0.4206 0.6156 -0.4206c 0.3317,-0.0000 0.4309,0.2086 0.4309 0.3454c 0.0000,0.0855 -0.0274,0.2565 -0.3351 0.4514c 0.1915,0.0308 0.4446,0.1710 0.4446 0.5266c 0.0000,0.4514 -0.3420,0.6942 -0.7284 0.6942c -0.1949,-0.0000 -0.4685,-0.0855 -0.4685 -0.2154c 0.0000,-0.0513 0.0513,-0.1094 0.1197 -0.1094c 0.0650,-0.0000 0.0958,0.0342 0.1265 0.0787c 0.0376,0.0581 0.0992,0.1402 0.2633 0.1402c 0.1129,-0.0000 0.4343,-0.1129 0.4343 -0.5437c 0.0000,-0.3659 -0.2565,-0.4241 -0.4412 -0.4241c -0.0308,-0.0000 -0.0684,0.0068 -0.1060 0.0137l -0.0137,-0.1026 c 0.2633,-0.0445 0.4822,-0.3009 0.4822 -0.4582c 0.0000,-0.1949 -0.1368,-0.2907 -0.2770 -0.2907Z"/></g><g stroke-linejoin="miter" stroke-opacity="0.6" fill-opacity="0.0" stroke="rgb(0,0,0)" stroke-width="0.4166181137571621" fill="rgb(0,0,0)" stroke-linecap="butt" stroke-miterlimit="10.0"><path d="M 10.6939,62.4690 h 1.5466 "/></g><g stroke-linejoin="miter" stroke-opacity="1.0" fill-opacity="0.6" stroke="rgb(0,0,0)" fill-rule="evenodd" stroke-width="0.0" fill="rgb(0,0,0)" stroke-linecap="butt" stroke-miterlimit="10.0"><path d="M 5.0372,67.6243 ZM 5.9742,66.8172 h -0.7729 c -0.0308,-0.0000 -0.0513,-0.0274 -0.0513 -0.0581c 0.0000,-0.0547 0.0445,-0.1265 0.0855 -0.1265h 0.7831 c 0.0342,-0.0000 0.0479,0.0308 0.0479 0.0616c 0.0000,0.0376 -0.0479,0.1231 -0.0923 0.1231ZM 6.1760,67.6243 ZM 6.9249,65.7674 c -0.1471,-0.0000 -0.3625,0.1436 -0.3625 0.9404c 0.0000,0.2804 0.0513,0.8447 0.3522 0.8447c 0.0581,-0.0000 0.2223,-0.0376 0.2941 -0.3044c 0.0445,-0.1641 0.0684,-0.3693 0.0684 -0.6669c 0.0000,-0.4343 -0.1094,-0.6771 -0.2086 -0.7626c -0.0376,-0.0342 -0.0889,-0.0513 -0.1436 -0.0513ZM 6.9249,65.7674 ZM 6.9112,67.6653 c -0.3659,-0.0000 -0.6121,-0.4685 -0.6121 -0.9917c 0.0000,-0.6395 0.3044,-1.0259 0.6258 -1.0259c 0.1471,-0.0000 0.2941,0.0923 0.3933 0.2257c 0.1436,0.1915 0.2189,0.4480 0.2189 0.7694c 0.0000,0.7592 -0.3762,1.0225 -0.6258 1.0225ZM 7.6738,67.6243 ZM 7.8688,67.4841 c 0.0000,-0.0992 0.0821,-0.1812 0.1812 -0.1812c 0.0992,-0.0000 0.1812,0.0821 0.1812 0.1812c 0.0000,0.0992 -0.0821,0.1812 -0.1812 0.1812c -0.0992,-0.0000 -0.1812,-0.0821 -0.1812 -0.1812ZM 8.4228,67.6243 ZM 9.3051,66.4103 c 0.0000,-0.0239 0.0034,-0.0513 0.0342 -0.0684c 0.0376,-0.0274 0.0992,-0.0581 0.1505 -0.0581c 0.0445,-0.0000 0.0479,0.0376 0.0479 0.1060v 0.5506 h 0.2770 l -0.0205,0.1607 h -0.2565 v 0.2838 c 0.0000,0.0958 0.0137,0.1436 0.1129 0.1436h 0.0923 c 0.0205,-0.0000 0.0239,0.0171 0.0239 0.0239v 0.0752 c 0.0000,-0.0000 -0.2189,-0.0068 -0.3625 -0.0068c -0.1300,-0.0000 -0.3317,0.0068 -0.3317 0.0068v -0.0752 c 0.0000,-0.0068 0.0034,-0.0239 0.0239 -0.0239h 0.0923 c 0.1060,-0.0000 0.1163,-0.0445 0.1163 -0.1436v -0.2838 h -0.6703 c -0.0137,-0.0000 -0.0205,-0.0068 -0.0308 -0.0205l -0.0274,-0.0376 l -0.0410,-0.0718 c -0.0034,-0.0000 -0.0034,-0.0034 -0.0034 -0.0068c 0.0000,-0.0034 0.0034,-0.0068 0.0068 -0.0103c 0.2223,-0.2462 0.6156,-1.0088 0.7387 -1.2893c 0.0034,-0.0137 0.0103,-0.0171 0.0239 -0.0171c 0.0034,-0.0000 0.0787,0.0308 0.1197 0.0376c -0.1539,0.4138 -0.4070,0.8584 -0.6566 1.2551h 0.5403 v -0.5301 Z"/></g><g stroke-linejoin="miter" stroke-opacity="0.6" fill-opacity="0.0" stroke="rgb(0,0,0)" stroke-width="0.4166181137571621" fill="rgb(0,0,0)" stroke-linecap="butt" stroke-miterlimit="10.0"><path d="M 10.6939,67.6243 h 1.5466 "/></g><g stroke-linejoin="miter" stroke-opacity="1.0" fill-opacity="0.6" stroke="rgb(0,0,0)" fill-rule="evenodd" stroke-width="0.0" fill="rgb(0,0,0)" stroke-linecap="butt" stroke-miterlimit="10.0"><path d="M 5.0372,72.7796 ZM 5.9742,71.9725 h -0.7729 c -0.0308,-0.0000 -0.0513,-0.0274 -0.0513 -0.0581c 0.0000,-0.0547 0.0445,-0.1265 0.0855 -0.1265h 0.7831 c 0.0342,-0.0000 0.0479,0.0308 0.0479 0.0616c 0.0000,0.0376 -0.0479,0.1231 -0.0923 0.1231ZM 6.1760,72.7796 ZM 6.9249,70.9227 c -0.1471,-0.0000 -0.3625,0.1436 -0.3625 0.9404c 0.0000,0.2804 0.0513,0.8447 0.3522 0.8447c 0.0581,-0.0000 0.2223,-0.0376 0.2941 -0.3044c 0.0445,-0.1641 0.0684,-0.3693 0.0684 -0.6669c 0.0000,-0.4343 -0.1094,-0.6771 -0.2086 -0.7626c -0.0376,-0.0342 -0.0889,-0.0513 -0.1436 -0.0513ZM 6.9249,70.9227 ZM 6.9112,72.8206 c -0.3659,-0.0000 -0.6121,-0.4685 -0.6121 -0.9917c 0.0000,-0.6395 0.3044,-1.0259 0.6258 -1.0259c 0.1471,-0.0000 0.2941,0.0923 0.3933 0.2257c 0.1436,0.1915 0.2189,0.4480 0.2189 0.7694c 0.0000,0.7592 -0.3762,1.0225 -0.6258 1.0225ZM 7.6738,72.7796 ZM 7.8688,72.6394 c 0.0000,-0.0992 0.0821,-0.1812 0.1812 -0.1812c 0.0992,-0.0000 0.1812,0.0821 0.1812 0.1812c 0.0000,0.0992 -0.0821,0.1812 -0.1812 0.1812c -0.0992,-0.0000 -0.1812,-0.0821 -0.1812 -0.1812ZM 8.4228,72.7796 ZM 9.4795,72.2017 c 0.0000,-0.3522 -0.1915,-0.5266 -0.4035 -0.5266c -0.1573,-0.0000 -0.2770,0.0239 -0.4104 0.0787l 0.1094,-0.9336 c 0.1129,0.0103 0.2291,0.0137 0.3488 0.0137c 0.1710,-0.0000 0.3488,-0.0103 0.5335 -0.0308l 0.0205,0.0103 l -0.0513,0.2223 c -0.1334,0.0137 -0.2428,0.0171 -0.3386 0.0171c -0.1539,-0.0000 -0.2702,-0.0137 -0.3899 -0.0274l -0.0650,0.5403 c 0.0718,-0.0274 0.1949,-0.0513 0.3283 -0.0513c 0.3625,-0.0000 0.5643,0.3146 0.5643 0.6292c 0.0000,0.3830 -0.2667,0.6771 -0.6532 0.6771c -0.1949,-0.0000 -0.4788,-0.1094 -0.4788 -0.2428c 0.0000,-0.0650 0.0547,-0.1094 0.1163 -0.1094c 0.0684,-0.0000 0.1129,0.0513 0.1539 0.1060c 0.0513,0.0616 0.1060,0.1300 0.2154 0.1300c 0.2189,-0.0000 0.4001,-0.2052 0.4001 -0.5027Z"/></g><g stroke-linejoin="miter" stroke-opacity="0.6" fill-opacity="0.0" stroke="rgb(0,0,0)" stroke-width="0.4166181137571621" fill="rgb(0,0,0)" stroke-linecap="butt" stroke-miterlimit="10.0"><path d="M 10.6939,72.7796 h 1.5466 "/></g><g stroke-linejoin="miter" stroke-opacity="0.0" fill-opacity="0.1" stroke="rgb(0,0,0)" stroke-width="0.0" fill="rgb(0,0,0)" stroke-linecap="butt" stroke-miterlimit="10.0"><path d="M 94.0740,75.8728 l -0.0000,-1.0311 h -77.3296 l -0.0000,1.0311 Z"/></g><g stroke-linejoin="miter" stroke-opacity="1.0" fill-opacity="0.6" stroke="rgb(0,0,0)" fill-rule="evenodd" stroke-width="0.0" fill="rgb(0,0,0)" stroke-linecap="butt" stroke-miterlimit="10.0"><path d="M 92.2016,80.2189 ZM 92.9506,78.3619 c -0.1471,-0.0000 -0.3625,0.1436 -0.3625 0.9404c 0.0000,0.2804 0.0513,0.8447 0.3522 0.8447c 0.0581,-0.0000 0.2223,-0.0376 0.2941 -0.3044c 0.0445,-0.1641 0.0684,-0.3693 0.0684 -0.6669c 0.0000,-0.4343 -0.1094,-0.6771 -0.2086 -0.7626c -0.0376,-0.0342 -0.0889,-0.0513 -0.1436 -0.0513ZM 92.9506,78.3619 ZM 92.9369,80.2599 c -0.3659,-0.0000 -0.6121,-0.4685 -0.6121 -0.9917c 0.0000,-0.6395 0.3044,-1.0259 0.6258 -1.0259c 0.1471,-0.0000 0.2941,0.0923 0.3933 0.2257c 0.1436,0.1915 0.2189,0.4480 0.2189 0.7694c 0.0000,0.7592 -0.3762,1.0225 -0.6258 1.0225ZM 93.6995,80.2189 ZM 93.8944,80.0787 c 0.0000,-0.0992 0.0821,-0.1812 0.1812 -0.1812c 0.0992,-0.0000 0.1812,0.0821 0.1812 0.1812c 0.0000,0.0992 -0.0821,0.1812 -0.1812 0.1812c -0.0992,-0.0000 -0.1812,-0.0821 -0.1812 -0.1812ZM 94.4484,80.2189 ZM 95.5051,79.6409 c 0.0000,-0.3522 -0.1915,-0.5266 -0.4035 -0.5266c -0.1573,-0.0000 -0.2770,0.0239 -0.4104 0.0787l 0.1094,-0.9336 c 0.1129,0.0103 0.2291,0.0137 0.3488 0.0137c 0.1710,-0.0000 0.3488,-0.0103 0.5335 -0.0308l 0.0205,0.0103 l -0.0513,0.2223 c -0.1334,0.0137 -0.2428,0.0171 -0.3386 0.0171c -0.1539,-0.0000 -0.2702,-0.0137 -0.3899 -0.0274l -0.0650,0.5403 c 0.0718,-0.0274 0.1949,-0.0513 0.3283 -0.0513c 0.3625,-0.0000 0.5643,0.3146 0.5643 0.6292c 0.0000,0.3830 -0.2667,0.6771 -0.6532 0.6771c -0.1949,-0.0000 -0.4788,-0.1094 -0.4788 -0.2428c 0.0000,-0.0650 0.0547,-0.1094 0.1163 -0.1094c 0.0684,-0.0000 0.1129,0.0513 0.1539 0.1060c 0.0513,0.0616 0.1060,0.1300 0.2154 0.1300c 0.2189,-0.0000 0.4001,-0.2052 0.4001 -0.5027Z"/></g><g stroke-linejoin="miter" stroke-opacity="0.6" fill-opacity="0.0" stroke="rgb(0,0,0)" stroke-width="0.4166181137571621" fill="rgb(0,0,0)" stroke-linecap="butt" stroke-miterlimit="10.0"><path d="M 94.0740,74.8417 v 1.5466 "/></g><g stroke-linejoin="miter" stroke-opacity="1.0" fill-opacity="0.6" stroke="rgb(0,0,0)" fill-rule="evenodd" stroke-width="0.0" fill="rgb(0,0,0)" stroke-linecap="butt" stroke-miterlimit="10.0"><path d="M 84.4687,80.2189 ZM 85.2176,78.3619 c -0.1471,-0.0000 -0.3625,0.1436 -0.3625 0.9404c 0.0000,0.2804 0.0513,0.8447 0.3522 0.8447c 0.0581,-0.0000 0.2223,-0.0376 0.2941 -0.3044c 0.0445,-0.1641 0.0684,-0.3693 0.0684 -0.6669c 0.0000,-0.4343 -0.1094,-0.6771 -0.2086 -0.7626c -0.0376,-0.0342 -0.0889,-0.0513 -0.1436 -0.0513ZM 85.2176,78.3619 ZM 85.2039,80.2599 c -0.3659,-0.0000 -0.6121,-0.4685 -0.6121 -0.9917c 0.0000,-0.6395 0.3044,-1.0259 0.6258 -1.0259c 0.1471,-0.0000 0.2941,0.0923 0.3933 0.2257c 0.1436,0.1915 0.2189,0.4480 0.2189 0.7694c 0.0000,0.7592 -0.3762,1.0225 -0.6258 1.0225ZM 85.9665,80.2189 ZM 86.1615,80.0787 c 0.0000,-0.0992 0.0821,-0.1812 0.1812 -0.1812c 0.0992,-0.0000 0.1812,0.0821 0.1812 0.1812c 0.0000,0.0992 -0.0821,0.1812 -0.1812 0.1812c -0.0992,-0.0000 -0.1812,-0.0821 -0.1812 -0.1812ZM 86.7155,80.2189 ZM 87.5978,79.0049 c 0.0000,-0.0239 0.0034,-0.0513 0.0342 -0.0684c 0.0376,-0.0274 0.0992,-0.0581 0.1505 -0.0581c 0.0445,-0.0000 0.0479,0.0376 0.0479 0.1060v 0.5506 h 0.2770 l -0.0205,0.1607 h -0.2565 v 0.2838 c 0.0000,0.0958 0.0137,0.1436 0.1129 0.1436h 0.0923 c 0.0205,-0.0000 0.0239,0.0171 0.0239 0.0239v 0.0752 c 0.0000,-0.0000 -0.2189,-0.0068 -0.3625 -0.0068c -0.1300,-0.0000 -0.3317,0.0068 -0.3317 0.0068v -0.0752 c 0.0000,-0.0068 0.0034,-0.0239 0.0239 -0.0239h 0.0923 c 0.1060,-0.0000 0.1163,-0.0445 0.1163 -0.1436v -0.2838 h -0.6703 c -0.0137,-0.0000 -0.0205,-0.0068 -0.0308 -0.0205l -0.0274,-0.0376 l -0.0410,-0.0718 c -0.0034,-0.0000 -0.0034,-0.0034 -0.0034 -0.0068c 0.0000,-0.0034 0.0034,-0.0068 0.0068 -0.0103c 0.2223,-0.2462 0.6156,-1.0088 0.7387 -1.2893c 0.0034,-0.0137 0.0103,-0.0171 0.0239 -0.0171c 0.0034,-0.0000 0.0787,0.0308 0.1197 0.0376c -0.1539,0.4138 -0.4070,0.8584 -0.6566 1.2551h 0.5403 v -0.5301 Z"/></g><g stroke-linejoin="miter" stroke-opacity="0.6" fill-opacity="0.0" stroke="rgb(0,0,0)" stroke-width="0.4166181137571621" fill="rgb(0,0,0)" stroke-linecap="butt" stroke-miterlimit="10.0"><path d="M 86.3410,74.8417 v 1.5466 "/></g><g stroke-linejoin="miter" stroke-opacity="1.0" fill-opacity="0.6" stroke="rgb(0,0,0)" fill-rule="evenodd" stroke-width="0.0" fill="rgb(0,0,0)" stroke-linecap="butt" stroke-miterlimit="10.0"><path d="M 76.7357,80.2189 ZM 77.4846,78.3619 c -0.1471,-0.0000 -0.3625,0.1436 -0.3625 0.9404c 0.0000,0.2804 0.0513,0.8447 0.3522 0.8447c 0.0581,-0.0000 0.2223,-0.0376 0.2941 -0.3044c 0.0445,-0.1641 0.0684,-0.3693 0.0684 -0.6669c 0.0000,-0.4343 -0.1094,-0.6771 -0.2086 -0.7626c -0.0376,-0.0342 -0.0889,-0.0513 -0.1436 -0.0513ZM 77.4846,78.3619 ZM 77.4710,80.2599 c -0.3659,-0.0000 -0.6121,-0.4685 -0.6121 -0.9917c 0.0000,-0.6395 0.3044,-1.0259 0.6258 -1.0259c 0.1471,-0.0000 0.2941,0.0923 0.3933 0.2257c 0.1436,0.1915 0.2189,0.4480 0.2189 0.7694c 0.0000,0.7592 -0.3762,1.0225 -0.6258 1.0225ZM 78.2336,80.2189 ZM 78.4285,80.0787 c 0.0000,-0.0992 0.0821,-0.1812 0.1812 -0.1812c 0.0992,-0.0000 0.1812,0.0821 0.1812 0.1812c 0.0000,0.0992 -0.0821,0.1812 -0.1812 0.1812c -0.0992,-0.0000 -0.1812,-0.0821 -0.1812 -0.1812ZM 78.9825,80.2189 ZM 79.7212,78.3483 c -0.0855,-0.0000 -0.3351,0.0479 -0.3351 0.2565c 0.0000,0.0616 -0.0239,0.1676 -0.1163 0.1676c -0.0889,-0.0000 -0.0958,-0.0992 -0.0958 -0.1094c 0.0000,-0.1060 0.1402,-0.4206 0.6156 -0.4206c 0.3317,-0.0000 0.4309,0.2086 0.4309 0.3454c 0.0000,0.0855 -0.0274,0.2565 -0.3351 0.4514c 0.1915,0.0308 0.4446,0.1710 0.4446 0.5266c 0.0000,0.4514 -0.3420,0.6942 -0.7284 0.6942c -0.1949,-0.0000 -0.4685,-0.0855 -0.4685 -0.2154c 0.0000,-0.0513 0.0513,-0.1094 0.1197 -0.1094c 0.0650,-0.0000 0.0958,0.0342 0.1265 0.0787c 0.0376,0.0581 0.0992,0.1402 0.2633 0.1402c 0.1129,-0.0000 0.4343,-0.1129 0.4343 -0.5437c 0.0000,-0.3659 -0.2565,-0.4241 -0.4412 -0.4241c -0.0308,-0.0000 -0.0684,0.0068 -0.1060 0.0137l -0.0137,-0.1026 c 0.2633,-0.0445 0.4822,-0.3009 0.4822 -0.4582c 0.0000,-0.1949 -0.1368,-0.2907 -0.2770 -0.2907Z"/></g><g stroke-linejoin="miter" stroke-opacity="0.6" fill-opacity="0.0" stroke="rgb(0,0,0)" stroke-width="0.4166181137571621" fill="rgb(0,0,0)" stroke-linecap="butt" stroke-miterlimit="10.0"><path d="M 78.6080,74.8417 v 1.5466 "/></g><g stroke-linejoin="miter" stroke-opacity="1.0" fill-opacity="0.6" stroke="rgb(0,0,0)" fill-rule="evenodd" stroke-width="0.0" fill="rgb(0,0,0)" stroke-linecap="butt" stroke-miterlimit="10.0"><path d="M 69.0028,80.2189 ZM 69.7517,78.3619 c -0.1471,-0.0000 -0.3625,0.1436 -0.3625 0.9404c 0.0000,0.2804 0.0513,0.8447 0.3522 0.8447c 0.0581,-0.0000 0.2223,-0.0376 0.2941 -0.3044c 0.0445,-0.1641 0.0684,-0.3693 0.0684 -0.6669c 0.0000,-0.4343 -0.1094,-0.6771 -0.2086 -0.7626c -0.0376,-0.0342 -0.0889,-0.0513 -0.1436 -0.0513ZM 69.7517,78.3619 ZM 69.7380,80.2599 c -0.3659,-0.0000 -0.6121,-0.4685 -0.6121 -0.9917c 0.0000,-0.6395 0.3044,-1.0259 0.6258 -1.0259c 0.1471,-0.0000 0.2941,0.0923 0.3933 0.2257c 0.1436,0.1915 0.2189,0.4480 0.2189 0.7694c 0.0000,0.7592 -0.3762,1.0225 -0.6258 1.0225ZM 70.5006,80.2189 ZM 70.6955,80.0787 c 0.0000,-0.0992 0.0821,-0.1812 0.1812 -0.1812c 0.0992,-0.0000 0.1812,0.0821 0.1812 0.1812c 0.0000,0.0992 -0.0821,0.1812 -0.1812 0.1812c -0.0992,-0.0000 -0.1812,-0.0821 -0.1812 -0.1812ZM 71.2495,80.2189 ZM 71.4479,78.7039 c 0.0000,-0.1949 0.1881,-0.4617 0.5472 -0.4617c 0.2633,-0.0000 0.5711,0.0992 0.5711 0.4924c 0.0000,0.2599 -0.1334,0.3899 -0.3180 0.5677l -0.3249,0.3146 c -0.0171,0.0171 -0.2462,0.2428 -0.2462 0.4035h 0.5814 c 0.1163,-0.0000 0.1778,-0.0581 0.2257 -0.2462l 0.0855,0.0137 l -0.0684,0.4309 h -1.0567 c 0.0000,-0.1915 0.0308,-0.3386 0.3488 -0.6634l 0.2394,-0.2360 c 0.1915,-0.1949 0.2702,-0.3625 0.2702 -0.5711c 0.0000,-0.3112 -0.2120,-0.4001 -0.3283 -0.4001c -0.2360,-0.0000 -0.3009,0.1231 -0.3009 0.2052c 0.0000,0.0274 0.0068,0.0547 0.0137 0.0787c 0.0068,0.0239 0.0137,0.0479 0.0137 0.0752c 0.0000,0.0889 -0.0684,0.1231 -0.1231 0.1231c -0.0752,-0.0000 -0.1300,-0.0581 -0.1300 -0.1265Z"/></g><g stroke-linejoin="miter" stroke-opacity="0.6" fill-opacity="0.0" stroke="rgb(0,0,0)" stroke-width="0.4166181137571621" fill="rgb(0,0,0)" stroke-linecap="butt" stroke-miterlimit="10.0"><path d="M 70.8751,74.8417 v 1.5466 "/></g><g stroke-linejoin="miter" stroke-opacity="1.0" fill-opacity="0.6" stroke="rgb(0,0,0)" fill-rule="evenodd" stroke-width="0.0" fill="rgb(0,0,0)" stroke-linecap="butt" stroke-miterlimit="10.0"><path d="M 61.2698,80.2189 ZM 62.0187,78.3619 c -0.1471,-0.0000 -0.3625,0.1436 -0.3625 0.9404c 0.0000,0.2804 0.0513,0.8447 0.3522 0.8447c 0.0581,-0.0000 0.2223,-0.0376 0.2941 -0.3044c 0.0445,-0.1641 0.0684,-0.3693 0.0684 -0.6669c 0.0000,-0.4343 -0.1094,-0.6771 -0.2086 -0.7626c -0.0376,-0.0342 -0.0889,-0.0513 -0.1436 -0.0513ZM 62.0187,78.3619 ZM 62.0050,80.2599 c -0.3659,-0.0000 -0.6121,-0.4685 -0.6121 -0.9917c 0.0000,-0.6395 0.3044,-1.0259 0.6258 -1.0259c 0.1471,-0.0000 0.2941,0.0923 0.3933 0.2257c 0.1436,0.1915 0.2189,0.4480 0.2189 0.7694c 0.0000,0.7592 -0.3762,1.0225 -0.6258 1.0225ZM 62.7677,80.2189 ZM 62.9626,80.0787 c 0.0000,-0.0992 0.0821,-0.1812 0.1812 -0.1812c 0.0992,-0.0000 0.1812,0.0821 0.1812 0.1812c 0.0000,0.0992 -0.0821,0.1812 -0.1812 0.1812c -0.0992,-0.0000 -0.1812,-0.0821 -0.1812 -0.1812ZM 63.5166,80.2189 ZM 64.1595,78.5877 c -0.0650,-0.0000 -0.2154,0.0616 -0.2907 0.0958l -0.0410,-0.1060 c 0.3009,-0.1402 0.4172,-0.2120 0.5882 -0.3351h 0.0650 v 1.7201 c 0.0000,0.1231 0.0171,0.1573 0.1300 0.1573h 0.1778 c 0.0103,-0.0000 0.0274,0.0068 0.0274 0.0274v 0.0752 l -0.4685,-0.0068 l -0.4753,0.0068 v -0.0752 c 0.0034,-0.0103 0.0068,-0.0274 0.0274 -0.0274h 0.2052 c 0.1300,-0.0000 0.1300,-0.0581 0.1300 -0.1573v -1.1764 c 0.0000,-0.1163 0.0000,-0.1983 -0.0752 -0.1983Z"/></g><g stroke-linejoin="miter" stroke-opacity="0.6" fill-opacity="0.0" stroke="rgb(0,0,0)" stroke-width="0.4166181137571621" fill="rgb(0,0,0)" stroke-linecap="butt" stroke-miterlimit="10.0"><path d="M 63.1421,74.8417 v 1.5466 "/></g><g stroke-linejoin="miter" stroke-opacity="1.0" fill-opacity="0.6" stroke="rgb(0,0,0)" fill-rule="evenodd" stroke-width="0.0" fill="rgb(0,0,0)" stroke-linecap="butt" stroke-miterlimit="10.0"><path d="M 53.5368,80.2189 ZM 54.2858,78.3619 c -0.1471,-0.0000 -0.3625,0.1436 -0.3625 0.9404c 0.0000,0.2804 0.0513,0.8447 0.3522 0.8447c 0.0581,-0.0000 0.2223,-0.0376 0.2941 -0.3044c 0.0445,-0.1641 0.0684,-0.3693 0.0684 -0.6669c 0.0000,-0.4343 -0.1094,-0.6771 -0.2086 -0.7626c -0.0376,-0.0342 -0.0889,-0.0513 -0.1436 -0.0513ZM 54.2858,78.3619 ZM 54.2721,80.2599 c -0.3659,-0.0000 -0.6121,-0.4685 -0.6121 -0.9917c 0.0000,-0.6395 0.3044,-1.0259 0.6258 -1.0259c 0.1471,-0.0000 0.2941,0.0923 0.3933 0.2257c 0.1436,0.1915 0.2189,0.4480 0.2189 0.7694c 0.0000,0.7592 -0.3762,1.0225 -0.6258 1.0225ZM 55.0347,80.2189 ZM 55.2296,80.0787 c 0.0000,-0.0992 0.0821,-0.1812 0.1812 -0.1812c 0.0992,-0.0000 0.1812,0.0821 0.1812 0.1812c 0.0000,0.0992 -0.0821,0.1812 -0.1812 0.1812c -0.0992,-0.0000 -0.1812,-0.0821 -0.1812 -0.1812ZM 55.7836,80.2189 ZM 56.5326,78.3619 c -0.1471,-0.0000 -0.3625,0.1436 -0.3625 0.9404c 0.0000,0.2804 0.0513,0.8447 0.3522 0.8447c 0.0581,-0.0000 0.2223,-0.0376 0.2941 -0.3044c 0.0445,-0.1641 0.0684,-0.3693 0.0684 -0.6669c 0.0000,-0.4343 -0.1094,-0.6771 -0.2086 -0.7626c -0.0376,-0.0342 -0.0889,-0.0513 -0.1436 -0.0513ZM 56.5326,78.3619 ZM 56.5189,80.2599 c -0.3659,-0.0000 -0.6121,-0.4685 -0.6121 -0.9917c 0.0000,-0.6395 0.3044,-1.0259 0.6258 -1.0259c 0.1471,-0.0000 0.2941,0.0923 0.3933 0.2257c 0.1436,0.1915 0.2189,0.4480 0.2189 0.7694c 0.0000,0.7592 -0.3762,1.0225 -0.6258 1.0225Z"/></g><g stroke-linejoin="miter" stroke-opacity="0.6" fill-opacity="0.0" stroke="rgb(0,0,0)" stroke-width="0.4166181137571621" fill="rgb(0,0,0)" stroke-linecap="butt" stroke-miterlimit="10.0"><path d="M 55.4092,74.8417 v 1.5466 "/></g><g stroke-linejoin="miter" stroke-opacity="1.0" fill-opacity="0.6" stroke="rgb(0,0,0)" fill-rule="evenodd" stroke-width="0.0" fill="rgb(0,0,0)" stroke-linecap="butt" stroke-miterlimit="10.0"><path d="M 45.2345,80.2189 ZM 46.1715,79.4118 h -0.7729 c -0.0308,-0.0000 -0.0513,-0.0274 -0.0513 -0.0581c 0.0000,-0.0547 0.0445,-0.1265 0.0855 -0.1265h 0.7831 c 0.0342,-0.0000 0.0479,0.0308 0.0479 0.0616c 0.0000,0.0376 -0.0479,0.1231 -0.0923 0.1231ZM 46.3733,80.2189 ZM 47.1222,78.3619 c -0.1471,-0.0000 -0.3625,0.1436 -0.3625 0.9404c 0.0000,0.2804 0.0513,0.8447 0.3522 0.8447c 0.0581,-0.0000 0.2223,-0.0376 0.2941 -0.3044c 0.0445,-0.1641 0.0684,-0.3693 0.0684 -0.6669c 0.0000,-0.4343 -0.1094,-0.6771 -0.2086 -0.7626c -0.0376,-0.0342 -0.0889,-0.0513 -0.1436 -0.0513ZM 47.1222,78.3619 ZM 47.1085,80.2599 c -0.3659,-0.0000 -0.6121,-0.4685 -0.6121 -0.9917c 0.0000,-0.6395 0.3044,-1.0259 0.6258 -1.0259c 0.1471,-0.0000 0.2941,0.0923 0.3933 0.2257c 0.1436,0.1915 0.2189,0.4480 0.2189 0.7694c 0.0000,0.7592 -0.3762,1.0225 -0.6258 1.0225ZM 47.8711,80.2189 ZM 48.0661,80.0787 c 0.0000,-0.0992 0.0821,-0.1812 0.1812 -0.1812c 0.0992,-0.0000 0.1812,0.0821 0.1812 0.1812c 0.0000,0.0992 -0.0821,0.1812 -0.1812 0.1812c -0.0992,-0.0000 -0.1812,-0.0821 -0.1812 -0.1812ZM 48.6201,80.2189 ZM 49.2630,78.5877 c -0.0650,-0.0000 -0.2154,0.0616 -0.2907 0.0958l -0.0410,-0.1060 c 0.3009,-0.1402 0.4172,-0.2120 0.5882 -0.3351h 0.0650 v 1.7201 c 0.0000,0.1231 0.0171,0.1573 0.1300 0.1573h 0.1778 c 0.0103,-0.0000 0.0274,0.0068 0.0274 0.0274v 0.0752 l -0.4685,-0.0068 l -0.4753,0.0068 v -0.0752 c 0.0034,-0.0103 0.0068,-0.0274 0.0274 -0.0274h 0.2052 c 0.1300,-0.0000 0.1300,-0.0581 0.1300 -0.1573v -1.1764 c 0.0000,-0.1163 0.0000,-0.1983 -0.0752 -0.1983Z"/></g><g stroke-linejoin="miter" stroke-opacity="0.6" fill-opacity="0.0" stroke="rgb(0,0,0)" stroke-width="0.4166181137571621" fill="rgb(0,0,0)" stroke-linecap="butt" stroke-miterlimit="10.0"><path d="M 47.6762,74.8417 v 1.5466 "/></g><g stroke-linejoin="miter" stroke-opacity="1.0" fill-opacity="0.6" stroke="rgb(0,0,0)" fill-rule="evenodd" stroke-width="0.0" fill="rgb(0,0,0)" stroke-linecap="butt" stroke-miterlimit="10.0"><path d="M 37.5015,80.2189 ZM 38.4385,79.4118 h -0.7729 c -0.0308,-0.0000 -0.0513,-0.0274 -0.0513 -0.0581c 0.0000,-0.0547 0.0445,-0.1265 0.0855 -0.1265h 0.7831 c 0.0342,-0.0000 0.0479,0.0308 0.0479 0.0616c 0.0000,0.0376 -0.0479,0.1231 -0.0923 0.1231ZM 38.6403,80.2189 ZM 39.3892,78.3619 c -0.1471,-0.0000 -0.3625,0.1436 -0.3625 0.9404c 0.0000,0.2804 0.0513,0.8447 0.3522 0.8447c 0.0581,-0.0000 0.2223,-0.0376 0.2941 -0.3044c 0.0445,-0.1641 0.0684,-0.3693 0.0684 -0.6669c 0.0000,-0.4343 -0.1094,-0.6771 -0.2086 -0.7626c -0.0376,-0.0342 -0.0889,-0.0513 -0.1436 -0.0513ZM 39.3892,78.3619 ZM 39.3756,80.2599 c -0.3659,-0.0000 -0.6121,-0.4685 -0.6121 -0.9917c 0.0000,-0.6395 0.3044,-1.0259 0.6258 -1.0259c 0.1471,-0.0000 0.2941,0.0923 0.3933 0.2257c 0.1436,0.1915 0.2189,0.4480 0.2189 0.7694c 0.0000,0.7592 -0.3762,1.0225 -0.6258 1.0225ZM 40.1382,80.2189 ZM 40.3331,80.0787 c 0.0000,-0.0992 0.0821,-0.1812 0.1812 -0.1812c 0.0992,-0.0000 0.1812,0.0821 0.1812 0.1812c 0.0000,0.0992 -0.0821,0.1812 -0.1812 0.1812c -0.0992,-0.0000 -0.1812,-0.0821 -0.1812 -0.1812ZM 40.8871,80.2189 ZM 41.0854,78.7039 c 0.0000,-0.1949 0.1881,-0.4617 0.5472 -0.4617c 0.2633,-0.0000 0.5711,0.0992 0.5711 0.4924c 0.0000,0.2599 -0.1334,0.3899 -0.3180 0.5677l -0.3249,0.3146 c -0.0171,0.0171 -0.2462,0.2428 -0.2462 0.4035h 0.5814 c 0.1163,-0.0000 0.1778,-0.0581 0.2257 -0.2462l 0.0855,0.0137 l -0.0684,0.4309 h -1.0567 c 0.0000,-0.1915 0.0308,-0.3386 0.3488 -0.6634l 0.2394,-0.2360 c 0.1915,-0.1949 0.2702,-0.3625 0.2702 -0.5711c 0.0000,-0.3112 -0.2120,-0.4001 -0.3283 -0.4001c -0.2360,-0.0000 -0.3009,0.1231 -0.3009 0.2052c 0.0000,0.0274 0.0068,0.0547 0.0137 0.0787c 0.0068,0.0239 0.0137,0.0479 0.0137 0.0752c 0.0000,0.0889 -0.0684,0.1231 -0.1231 0.1231c -0.0752,-0.0000 -0.1300,-0.0581 -0.1300 -0.1265Z"/></g><g stroke-linejoin="miter" stroke-opacity="0.6" fill-opacity="0.0" stroke="rgb(0,0,0)" stroke-width="0.4166181137571621" fill="rgb(0,0,0)" stroke-linecap="butt" stroke-miterlimit="10.0"><path d="M 39.9432,74.8417 v 1.5466 "/></g><g stroke-linejoin="miter" stroke-opacity="1.0" fill-opacity="0.6" stroke="rgb(0,0,0)" fill-rule="evenodd" stroke-width="0.0" fill="rgb(0,0,0)" stroke-linecap="butt" stroke-miterlimit="10.0"><path d="M 29.7686,80.2189 ZM 30.7056,79.4118 h -0.7729 c -0.0308,-0.0000 -0.0513,-0.0274 -0.0513 -0.0581c 0.0000,-0.0547 0.0445,-0.1265 0.0855 -0.1265h 0.7831 c 0.0342,-0.0000 0.0479,0.0308 0.0479 0.0616c 0.0000,0.0376 -0.0479,0.1231 -0.0923 0.1231ZM 30.9073,80.2189 ZM 31.6563,78.3619 c -0.1471,-0.0000 -0.3625,0.1436 -0.3625 0.9404c 0.0000,0.2804 0.0513,0.8447 0.3522 0.8447c 0.0581,-0.0000 0.2223,-0.0376 0.2941 -0.3044c 0.0445,-0.1641 0.0684,-0.3693 0.0684 -0.6669c 0.0000,-0.4343 -0.1094,-0.6771 -0.2086 -0.7626c -0.0376,-0.0342 -0.0889,-0.0513 -0.1436 -0.0513ZM 31.6563,78.3619 ZM 31.6426,80.2599 c -0.3659,-0.0000 -0.6121,-0.4685 -0.6121 -0.9917c 0.0000,-0.6395 0.3044,-1.0259 0.6258 -1.0259c 0.1471,-0.0000 0.2941,0.0923 0.3933 0.2257c 0.1436,0.1915 0.2189,0.4480 0.2189 0.7694c 0.0000,0.7592 -0.3762,1.0225 -0.6258 1.0225ZM 32.4052,80.2189 ZM 32.6001,80.0787 c 0.0000,-0.0992 0.0821,-0.1812 0.1812 -0.1812c 0.0992,-0.0000 0.1812,0.0821 0.1812 0.1812c 0.0000,0.0992 -0.0821,0.1812 -0.1812 0.1812c -0.0992,-0.0000 -0.1812,-0.0821 -0.1812 -0.1812ZM 33.1541,80.2189 ZM 33.8928,78.3483 c -0.0855,-0.0000 -0.3351,0.0479 -0.3351 0.2565c 0.0000,0.0616 -0.0239,0.1676 -0.1163 0.1676c -0.0889,-0.0000 -0.0958,-0.0992 -0.0958 -0.1094c 0.0000,-0.1060 0.1402,-0.4206 0.6156 -0.4206c 0.3317,-0.0000 0.4309,0.2086 0.4309 0.3454c 0.0000,0.0855 -0.0274,0.2565 -0.3351 0.4514c 0.1915,0.0308 0.4446,0.1710 0.4446 0.5266c 0.0000,0.4514 -0.3420,0.6942 -0.7284 0.6942c -0.1949,-0.0000 -0.4685,-0.0855 -0.4685 -0.2154c 0.0000,-0.0513 0.0513,-0.1094 0.1197 -0.1094c 0.0650,-0.0000 0.0958,0.0342 0.1265 0.0787c 0.0376,0.0581 0.0992,0.1402 0.2633 0.1402c 0.1129,-0.0000 0.4343,-0.1129 0.4343 -0.5437c 0.0000,-0.3659 -0.2565,-0.4241 -0.4412 -0.4241c -0.0308,-0.0000 -0.0684,0.0068 -0.1060 0.0137l -0.0137,-0.1026 c 0.2633,-0.0445 0.4822,-0.3009 0.4822 -0.4582c 0.0000,-0.1949 -0.1368,-0.2907 -0.2770 -0.2907Z"/></g><g stroke-linejoin="miter" stroke-opacity="0.6" fill-opacity="0.0" stroke="rgb(0,0,0)" stroke-width="0.4166181137571621" fill="rgb(0,0,0)" stroke-linecap="butt" stroke-miterlimit="10.0"><path d="M 32.2103,74.8417 v 1.5466 "/></g><g stroke-linejoin="miter" stroke-opacity="1.0" fill-opacity="0.6" stroke="rgb(0,0,0)" fill-rule="evenodd" stroke-width="0.0" fill="rgb(0,0,0)" stroke-linecap="butt" stroke-miterlimit="10.0"><path d="M 22.0356,80.2189 ZM 22.9726,79.4118 h -0.7729 c -0.0308,-0.0000 -0.0513,-0.0274 -0.0513 -0.0581c 0.0000,-0.0547 0.0445,-0.1265 0.0855 -0.1265h 0.7831 c 0.0342,-0.0000 0.0479,0.0308 0.0479 0.0616c 0.0000,0.0376 -0.0479,0.1231 -0.0923 0.1231ZM 23.1744,80.2189 ZM 23.9233,78.3619 c -0.1471,-0.0000 -0.3625,0.1436 -0.3625 0.9404c 0.0000,0.2804 0.0513,0.8447 0.3522 0.8447c 0.0581,-0.0000 0.2223,-0.0376 0.2941 -0.3044c 0.0445,-0.1641 0.0684,-0.3693 0.0684 -0.6669c 0.0000,-0.4343 -0.1094,-0.6771 -0.2086 -0.7626c -0.0376,-0.0342 -0.0889,-0.0513 -0.1436 -0.0513ZM 23.9233,78.3619 ZM 23.9096,80.2599 c -0.3659,-0.0000 -0.6121,-0.4685 -0.6121 -0.9917c 0.0000,-0.6395 0.3044,-1.0259 0.6258 -1.0259c 0.1471,-0.0000 0.2941,0.0923 0.3933 0.2257c 0.1436,0.1915 0.2189,0.4480 0.2189 0.7694c 0.0000,0.7592 -0.3762,1.0225 -0.6258 1.0225ZM 24.6722,80.2189 ZM 24.8672,80.0787 c 0.0000,-0.0992 0.0821,-0.1812 0.1812 -0.1812c 0.0992,-0.0000 0.1812,0.0821 0.1812 0.1812c 0.0000,0.0992 -0.0821,0.1812 -0.1812 0.1812c -0.0992,-0.0000 -0.1812,-0.0821 -0.1812 -0.1812ZM 25.4212,80.2189 ZM 26.3035,79.0049 c 0.0000,-0.0239 0.0034,-0.0513 0.0342 -0.0684c 0.0376,-0.0274 0.0992,-0.0581 0.1505 -0.0581c 0.0445,-0.0000 0.0479,0.0376 0.0479 0.1060v 0.5506 h 0.2770 l -0.0205,0.1607 h -0.2565 v 0.2838 c 0.0000,0.0958 0.0137,0.1436 0.1129 0.1436h 0.0923 c 0.0205,-0.0000 0.0239,0.0171 0.0239 0.0239v 0.0752 c 0.0000,-0.0000 -0.2189,-0.0068 -0.3625 -0.0068c -0.1300,-0.0000 -0.3317,0.0068 -0.3317 0.0068v -0.0752 c 0.0000,-0.0068 0.0034,-0.0239 0.0239 -0.0239h 0.0923 c 0.1060,-0.0000 0.1163,-0.0445 0.1163 -0.1436v -0.2838 h -0.6703 c -0.0137,-0.0000 -0.0205,-0.0068 -0.0308 -0.0205l -0.0274,-0.0376 l -0.0410,-0.0718 c -0.0034,-0.0000 -0.0034,-0.0034 -0.0034 -0.0068c 0.0000,-0.0034 0.0034,-0.0068 0.0068 -0.0103c 0.2223,-0.2462 0.6156,-1.0088 0.7387 -1.2893c 0.0034,-0.0137 0.0103,-0.0171 0.0239 -0.0171c 0.0034,-0.0000 0.0787,0.0308 0.1197 0.0376c -0.1539,0.4138 -0.4070,0.8584 -0.6566 1.2551h 0.5403 v -0.5301 Z"/></g><g stroke-linejoin="miter" stroke-opacity="0.6" fill-opacity="0.0" stroke="rgb(0,0,0)" stroke-width="0.4166181137571621" fill="rgb(0,0,0)" stroke-linecap="butt" stroke-miterlimit="10.0"><path d="M 24.4773,74.8417 v 1.5466 "/></g><g stroke-linejoin="miter" stroke-opacity="1.0" fill-opacity="0.6" stroke="rgb(0,0,0)" fill-rule="evenodd" stroke-width="0.0" fill="rgb(0,0,0)" stroke-linecap="butt" stroke-miterlimit="10.0"><path d="M 14.3026,80.2189 ZM 15.2397,79.4118 h -0.7729 c -0.0308,-0.0000 -0.0513,-0.0274 -0.0513 -0.0581c 0.0000,-0.0547 0.0445,-0.1265 0.0855 -0.1265h 0.7831 c 0.0342,-0.0000 0.0479,0.0308 0.0479 0.0616c 0.0000,0.0376 -0.0479,0.1231 -0.0923 0.1231ZM 15.4414,80.2189 ZM 16.1904,78.3619 c -0.1471,-0.0000 -0.3625,0.1436 -0.3625 0.9404c 0.0000,0.2804 0.0513,0.8447 0.3522 0.8447c 0.0581,-0.0000 0.2223,-0.0376 0.2941 -0.3044c 0.0445,-0.1641 0.0684,-0.3693 0.0684 -0.6669c 0.0000,-0.4343 -0.1094,-0.6771 -0.2086 -0.7626c -0.0376,-0.0342 -0.0889,-0.0513 -0.1436 -0.0513ZM 16.1904,78.3619 ZM 16.1767,80.2599 c -0.3659,-0.0000 -0.6121,-0.4685 -0.6121 -0.9917c 0.0000,-0.6395 0.3044,-1.0259 0.6258 -1.0259c 0.1471,-0.0000 0.2941,0.0923 0.3933 0.2257c 0.1436,0.1915 0.2189,0.4480 0.2189 0.7694c 0.0000,0.7592 -0.3762,1.0225 -0.6258 1.0225ZM 16.9393,80.2189 ZM 17.1342,80.0787 c 0.0000,-0.0992 0.0821,-0.1812 0.1812 -0.1812c 0.0992,-0.0000 0.1812,0.0821 0.1812 0.1812c 0.0000,0.0992 -0.0821,0.1812 -0.1812 0.1812c -0.0992,-0.0000 -0.1812,-0.0821 -0.1812 -0.1812ZM 17.6882,80.2189 ZM 18.7449,79.6409 c 0.0000,-0.3522 -0.1915,-0.5266 -0.4035 -0.5266c -0.1573,-0.0000 -0.2770,0.0239 -0.4104 0.0787l 0.1094,-0.9336 c 0.1129,0.0103 0.2291,0.0137 0.3488 0.0137c 0.1710,-0.0000 0.3488,-0.0103 0.5335 -0.0308l 0.0205,0.0103 l -0.0513,0.2223 c -0.1334,0.0137 -0.2428,0.0171 -0.3386 0.0171c -0.1539,-0.0000 -0.2702,-0.0137 -0.3899 -0.0274l -0.0650,0.5403 c 0.0718,-0.0274 0.1949,-0.0513 0.3283 -0.0513c 0.3625,-0.0000 0.5643,0.3146 0.5643 0.6292c 0.0000,0.3830 -0.2667,0.6771 -0.6532 0.6771c -0.1949,-0.0000 -0.4788,-0.1094 -0.4788 -0.2428c 0.0000,-0.0650 0.0547,-0.1094 0.1163 -0.1094c 0.0684,-0.0000 0.1129,0.0513 0.1539 0.1060c 0.0513,0.0616 0.1060,0.1300 0.2154 0.1300c 0.2189,-0.0000 0.4001,-0.2052 0.4001 -0.5027Z"/></g><g stroke-linejoin="miter" stroke-opacity="0.6" fill-opacity="0.0" stroke="rgb(0,0,0)" stroke-width="0.4166181137571621" fill="rgb(0,0,0)" stroke-linecap="butt" stroke-miterlimit="10.0"><path d="M 16.7444,74.8417 v 1.5466 "/></g><g stroke-linejoin="miter" stroke-opacity="0.0" fill-opacity="0.0" stroke="rgb(0,0,0)" stroke-width="0.0" fill="rgb(0,0,0)" stroke-linecap="butt" stroke-miterlimit="10.0"><path d="M 94.0740,72.7796 l -0.0000,-51.5531 h -77.3296 l -0.0000,51.5531 Z"/></g><g stroke-linejoin="miter" stroke-opacity="1.0" fill-opacity="1.0" stroke="rgb(0,0,0)" stroke-width="0.0" fill="rgb(255,0,0)" stroke-linecap="butt" stroke-miterlimit="10.0"><path d="M 57.4092,47.0031 c 0.0000,-1.1046 -0.8954,-2.0000 -2.0000 -2.0000c -1.1046,-0.0000 -2.0000,0.8954 -2.0000 2.0000c -0.0000,1.1046 0.8954,2.0000 2.0000 2.0000c 1.1046,0.0000 2.0000,-0.8954 2.0000 -2.0000Z"/></g></svg>