<?xml version="1.0" encoding="UTF-8"?>
<!DOCTYPE svg PUBLIC "-//W3C//DTD SVG 1.1//EN"
    "http://www.w3.org/Graphics/SVG/1.1/DTD/svg11.dtd"><svg xmlns="http://www.w3.org/2000/svg" height="100.0000" stroke-opacity="1" viewBox="0 0 100 100" font-size="1" width="100.0000" xmlns:xlink="http://www.w3.org/1999/xlink" stroke="rgb(0,0,0)" version="1.1"><defs></defs><g stroke-linejoin="miter" stroke-opacity="0.0" fill-opacity="0.1" stroke="rgb(0,0,0)" stroke-width="0.0" fill="rgb(0,0,0)" stroke-linecap="butt" stroke-miterlimit="10.0"><path d="M 12.2120,73.2274 l -0.0000,-51.5531 h -1.0311 l -0.0000,51.5531 Z"/></g><g stroke-linejoin="miter" stroke-opacity="1.0" fill-opacity="0.6" stroke="rgb(0,0,0)" fill-rule="evenodd" stroke-width="0.0" fill="rgb(0,0,0)" stroke-linecap="butt" stroke-miterlimit="10.0"><path d="M 6.1475,21.6743 ZM 6.8964,19.8174 c -0.1471,-0.0000 -0.3625,0.1436 -0.3625 0.9404c 0.0000,0.2804 0.0513,0.8447 0.3522 0.8447c 0.0581,-0.0000 0.2223,-0.0376 0.2941 -0.3044c 0.0445,-0.1641 0.0684,-0.3693 0.0684 -0.6669c 0.0000,-0.4343 -0.1094,-0.6771 -0.2086 -0.7626c -0.0376,-0.0342 -0.0889,-0.0513 -0.1436 -0.0513ZM 6.8964,19.8174 ZM 6.8828,21.7154 c -0.3659,-0.0000 -0.6121,-0.4685 -0.6121 -0.9917c 0.0000,-0.6395 0.3044,-1.0259 0.6258 -1.0259c 0.1471,-0.0000 0.2941,0.0923 0.3933 0.2257c 0.1436,0.1915 0.2189,0.4480 0.2189 0.7694c 0.0000,0.7592 -0.3762,1.0225 -0.6258 1.0225ZM 7.6454,21.6743 ZM 7.8403,21.5341 c 0.0000,-0.0992 0.0821,-0.1812 0.1812 -0.1812c 0.0992,-0.0000 0.1812,0.0821 0.1812 0.1812c 0.0000,0.0992 -0.0821,0.1812 -0.1812 0.1812c -0.0992,-0.0000 -0.1812,-0.0821 -0.1812 -0.1812ZM 8.3943,21.6743 ZM 9.4510,21.0964 c 0.0000,-0.3522 -0.1915,-0.5266 -0.4035 -0.5266c -0.1573,-0.0000 -0.2770,0.0239 -0.4104 0.0787l 0.1094,-0.9336 c 0.1129,0.0103 0.2291,0.0137 0.3488 0.0137c 0.1710,-0.0000 0.3488,-0.0103 0.5335 -0.0308l 0.0205,0.0103 l -0.0513,0.2223 c -0.1334,0.0137 -0.2428,0.0171 -0.3386 0.0171c -0.1539,-0.0000 -0.2702,-0.0137 -0.3899 -0.0274l -0.0650,0.5403 c 0.0718,-0.0274 0.1949,-0.0513 0.3283 -0.0513c 0.3625,-0.0000 0.5643,0.3146 0.5643 0.6292c 0.0000,0.3830 -0.2667,0.6771 -0.6532 0.6771c -0.1949,-0.0000 -0.4788,-0.1094 -0.4788 -0.2428c 0.0000,-0.0650 0.0547,-0.1094 0.1163 -0.1094c 0.0684,-0.0000 0.1129,0.0513 0.1539 0.1060c 0.0513,0.0616 0.1060,0.1300 0.2154 0.1300c 0.2189,-0.0000 0.4001,-0.2052 0.4001 -0.5027Z"/></g><g stroke-linejoin="miter" stroke-opacity="0.6" fill-opacity="0.0" stroke="rgb(0,0,0)" stroke-width="0.4133206743970644" fill="rgb(0,0,0)" stroke-linecap="butt" stroke-miterlimit="10.0"><path d="M 10.6655,21.6743 h 1.5466 "/></g><g stroke-linejoin="miter" stroke-opacity="1.0" fill-opacity="0.6" stroke="rgb(0,0,0)" fill-rule="evenodd" stroke-width="0.0" fill="rgb(0,0,0)" stroke-linecap="butt" stroke-miterlimit="10.0"><path d="M 6.1475,26.8297 ZM 6.8964,24.9727 c -0.1471,-0.0000 -0.3625,0.1436 -0.3625 0.9404c 0.0000,0.2804 0.0513,0.8447 0.3522 0.8447c 0.0581,-0.0000 0.2223,-0.0376 0.2941 -0.3044c 0.0445,-0.1641 0.0684,-0.3693 0.0684 -0.6669c 0.0000,-0.4343 -0.1094,-0.6771 -0.2086 -0.7626c -0.0376,-0.0342 -0.0889,-0.0513 -0.1436 -0.0513ZM 6.8964,24.9727 ZM 6.8828,26.8707 c -0.3659,-0.0000 -0.6121,-0.4685 -0.6121 -0.9917c 0.0000,-0.6395 0.3044,-1.0259 0.6258 -1.0259c 0.1471,-0.0000 0.2941,0.0923 0.3933 0.2257c 0.1436,0.1915 0.2189,0.4480 0.2189 0.7694c 0.0000,0.7592 -0.3762,1.0225 -0.6258 1.0225ZM 7.6454,26.8297 ZM 7.8403,26.6894 c 0.0000,-0.0992 0.0821,-0.1812 0.1812 -0.1812c 0.0992,-0.0000 0.1812,0.0821 0.1812 0.1812c 0.0000,0.0992 -0.0821,0.1812 -0.1812 0.1812c -0.0992,-0.0000 -0.1812,-0.0821 -0.1812 -0.1812ZM 8.3943,26.8297 ZM 9.2766,25.6156 c 0.0000,-0.0239 0.0034,-0.0513 0.0342 -0.0684c 0.0376,-0.0274 0.0992,-0.0581 0.1505 -0.0581c 0.0445,-0.0000 0.0479,0.0376 0.0479 0.1060v 0.5506 h 0.2770 l -0.0205,0.1607 h -0.2565 v 0.2838 c 0.0000,0.0958 0.0137,0.1436 0.1129 0.1436h 0.0923 c 0.0205,-0.0000 0.0239,0.0171 0.0239 0.0239v 0.0752 c 0.0000,-0.0000 -0.2189,-0.0068 -0.3625 -0.0068c -0.1300,-0.0000 -0.3317,0.0068 -0.3317 0.0068v -0.0752 c 0.0000,-0.0068 0.0034,-0.0239 0.0239 -0.0239h 0.0923 c 0.1060,-0.0000 0.1163,-0.0445 0.1163 -0.1436v -0.2838 h -0.6703 c -0.0137,-0.0000 -0.0205,-0.0068 -0.0308 -0.0205l -0.0274,-0.0376 l -0.0410,-0.0718 c -0.0034,-0.0000 -0.0034,-0.0034 -0.0034 -0.0068c 0.0000,-0.0034 0.0034,-0.0068 0.0068 -0.0103c 0.2223,-0.2462 0.6156,-1.0088 0.7387 -1.2893c 0.0034,-0.0137 0.0103,-0.0171 0.0239 -0.0171c 0.0034,-0.0000 0.0787,0.0308 0.1197 0.0376c -0.1539,0.4138 -0.4070,0.8584 -0.6566 1.2551h 0.5403 v -0.5301 Z"/></g><g stroke-linejoin="miter" stroke-opacity="0.6" fill-opacity="0.0" stroke="rgb(0,0,0)" stroke-width="0.4133206743970644" fill="rgb(0,0,0)" stroke-linecap="butt" stroke-miterlimit="10.0"><path d="M 10.6655,26.8297 h 1.5466 "/></g><g stroke-linejoin="miter" stroke-opacity="1.0" fill-opacity="0.6" stroke="rgb(0,0,0)" fill-rule="evenodd" stroke-width="0.0" fill="rgb(0,0,0)" stroke-linecap="butt" stroke-miterlimit="10.0"><path d="M 6.1475,31.9850 ZM 6.8964,30.1280 c -0.1471,-0.0000 -0.3625,0.1436 -0.3625 0.9404c 0.0000,0.2804 0.0513,0.8447 0.3522 0.8447c 0.0581,-0.0000 0.2223,-0.0376 0.2941 -0.3044c 0.0445,-0.1641 0.0684,-0.3693 0.0684 -0.6669c 0.0000,-0.4343 -0.1094,-0.6771 -0.2086 -0.7626c -0.0376,-0.0342 -0.0889,-0.0513 -0.1436 -0.0513ZM 6.8964,30.1280 ZM 6.8828,32.0260 c -0.3659,-0.0000 -0.6121,-0.4685 -0.6121 -0.9917c 0.0000,-0.6395 0.3044,-1.0259 0.6258 -1.0259c 0.1471,-0.0000 0.2941,0.0923 0.3933 0.2257c 0.1436,0.1915 0.2189,0.4480 0.2189 0.7694c 0.0000,0.7592 -0.3762,1.0225 -0.6258 1.0225ZM 7.6454,31.9850 ZM 7.8403,31.8447 c 0.0000,-0.0992 0.0821,-0.1812 0.1812 -0.1812c 0.0992,-0.0000 0.1812,0.0821 0.1812 0.1812c 0.0000,0.0992 -0.0821,0.1812 -0.1812 0.1812c -0.0992,-0.0000 -0.1812,-0.0821 -0.1812 -0.1812ZM 8.3943,31.9850 ZM 9.1330,30.1143 c -0.0855,-0.0000 -0.3351,0.0479 -0.3351 0.2565c 0.0000,0.0616 -0.0239,0.1676 -0.1163 0.1676c -0.0889,-0.0000 -0.0958,-0.0992 -0.0958 -0.1094c 0.0000,-0.1060 0.1402,-0.4206 0.6156 -0.4206c 0.3317,-0.0000 0.4309,0.2086 0.4309 0.3454c 0.0000,0.0855 -0.0274,0.2565 -0.3351 0.4514c 0.1915,0.0308 0.4446,0.1710 0.4446 0.5266c 0.0000,0.4514 -0.3420,0.6942 -0.7284 0.6942c -0.1949,-0.0000 -0.4685,-0.0855 -0.4685 -0.2154c 0.0000,-0.0513 0.0513,-0.1094 0.1197 -0.1094c 0.0650,-0.0000 0.0958,0.0342 0.1265 0.0787c 0.0376,0.0581 0.0992,0.1402 0.2633 0.1402c 0.1129,-0.0000 0.4343,-0.1129 0.4343 -0.5437c 0.0000,-0.3659 -0.2565,-0.4241 -0.4412 -0.4241c -0.0308,-0.0000 -0.0684,0.0068 -0.1060 0.0137l -0.0137,-0.1026 c 0.2633,-0.0445 0.4822,-0.3009 0.4822 -0.4582c 0.0000,-0.1949 -0.1368,-0.2907 -0.2770 -0.2907Z"/></g><g stroke-linejoin="miter" stroke-opacity="0.6" fill-opacity="0.0" stroke="rgb(0,0,0)" stroke-width="0.4133206743970644" fill="rgb(0,0,0)" stroke-linecap="butt" stroke-miterlimit="10.0"><path d="M 10.6655,31.9850 h 1.5466 "/></g><g stroke-linejoin="miter" stroke-opacity="1.0" fill-opacity="0.6" stroke="rgb(0,0,0)" fill-rule="evenodd" stroke-width="0.0" fill="rgb(0,0,0)" stroke-linecap="butt" stroke-miterlimit="10.0"><path d="M 6.1475,37.1403 ZM 6.8964,35.2833 c -0.1471,-0.0000 -0.3625,0.1436 -0.3625 0.9404c 0.0000,0.2804 0.0513,0.8447 0.3522 0.8447c 0.0581,-0.0000 0.2223,-0.0376 0.2941 -0.3044c 0.0445,-0.1641 0.0684,-0.3693 0.0684 -0.6669c 0.0000,-0.4343 -0.1094,-0.6771 -0.2086 -0.7626c -0.0376,-0.0342 -0.0889,-0.0513 -0.1436 -0.0513ZM 6.8964,35.2833 ZM 6.8828,37.1813 c -0.3659,-0.0000 -0.6121,-0.4685 -0.6121 -0.9917c 0.0000,-0.6395 0.3044,-1.0259 0.6258 -1.0259c 0.1471,-0.0000 0.2941,0.0923 0.3933 0.2257c 0.1436,0.1915 0.2189,0.4480 0.2189 0.7694c 0.0000,0.7592 -0.3762,1.0225 -0.6258 1.0225ZM 7.6454,37.1403 ZM 7.8403,37.0001 c 0.0000,-0.0992 0.0821,-0.1812 0.1812 -0.1812c 0.0992,-0.0000 0.1812,0.0821 0.1812 0.1812c 0.0000,0.0992 -0.0821,0.1812 -0.1812 0.1812c -0.0992,-0.0000 -0.1812,-0.0821 -0.1812 -0.1812ZM 8.3943,37.1403 ZM 8.5926,35.6253 c 0.0000,-0.1949 0.1881,-0.4617 0.5472 -0.4617c 0.2633,-0.0000 0.5711,0.0992 0.5711 0.4924c 0.0000,0.2599 -0.1334,0.3899 -0.3180 0.5677l -0.3249,0.3146 c -0.0171,0.0171 -0.2462,0.2428 -0.2462 0.4035h 0.5814 c 0.1163,-0.0000 0.1778,-0.0581 0.2257 -0.2462l 0.0855,0.0137 l -0.0684,0.4309 h -1.0567 c 0.0000,-0.1915 0.0308,-0.3386 0.3488 -0.6634l 0.2394,-0.2360 c 0.1915,-0.1949 0.2702,-0.3625 0.2702 -0.5711c 0.0000,-0.3112 -0.2120,-0.4001 -0.3283 -0.4001c -0.2360,-0.0000 -0.3009,0.1231 -0.3009 0.2052c 0.0000,0.0274 0.0068,0.0547 0.0137 0.0787c 0.0068,0.0239 0.0137,0.0479 0.0137 0.0752c 0.0000,0.0889 -0.0684,0.1231 -0.1231 0.1231c -0.0752,-0.0000 -0.1300,-0.0581 -0.1300 -0.1265Z"/></g><g stroke-linejoin="miter" stroke-opacity="0.6" fill-opacity="0.0" stroke="rgb(0,0,0)" stroke-width="0.4133206743970644" fill="rgb(0,0,0)" stroke-linecap="butt" stroke-miterlimit="10.0"><path d="M 10.6655,37.1403 h 1.5466 "/></g><g stroke-linejoin="miter" stroke-opacity="1.0" fill-opacity="0.6" stroke="rgb(0,0,0)" fill-rule="evenodd" stroke-width="0.0" fill="rgb(0,0,0)" stroke-linecap="butt" stroke-miterlimit="10.0"><path d="M 6.1475,42.2956 ZM 6.8964,40.4386 c -0.1471,-0.0000 -0.3625,0.1436 -0.3625 0.9404c 0.0000,0.2804 0.0513,0.8447 0.3522 0.8447c 0.0581,-0.0000 0.2223,-0.0376 0.2941 -0.3044c 0.0445,-0.1641 0.0684,-0.3693 0.0684 -0.6669c 0.0000,-0.4343 -0.1094,-0.6771 -0.2086 -0.7626c -0.0376,-0.0342 -0.0889,-0.0513 -0.1436 -0.0513ZM 6.8964,40.4386 ZM 6.8828,42.3366 c -0.3659,-0.0000 -0.6121,-0.4685 -0.6121 -0.9917c 0.0000,-0.6395 0.3044,-1.0259 0.6258 -1.0259c 0.1471,-0.0000 0.2941,0.0923 0.3933 0.2257c 0.1436,0.1915 0.2189,0.4480 0.2189 0.7694c 0.0000,0.7592 -0.3762,1.0225 -0.6258 1.0225ZM 7.6454,42.2956 ZM 7.8403,42.1554 c 0.0000,-0.0992 0.0821,-0.1812 0.1812 -0.1812c 0.0992,-0.0000 0.1812,0.0821 0.1812 0.1812c 0.0000,0.0992 -0.0821,0.1812 -0.1812 0.1812c -0.0992,-0.0000 -0.1812,-0.0821 -0.1812 -0.1812ZM 8.3943,42.2956 ZM 9.0372,40.6643 c -0.0650,-0.0000 -0.2154,0.0616 -0.2907 0.0958l -0.0410,-0.1060 c 0.3009,-0.1402 0.4172,-0.2120 0.5882 -0.3351h 0.0650 v 1.7201 c 0.0000,0.1231 0.0171,0.1573 0.1300 0.1573h 0.1778 c 0.0103,-0.0000 0.0274,0.0068 0.0274 0.0274v 0.0752 l -0.4685,-0.0068 l -0.4753,0.0068 v -0.0752 c 0.0034,-0.0103 0.0068,-0.0274 0.0274 -0.0274h 0.2052 c 0.1300,-0.0000 0.1300,-0.0581 0.1300 -0.1573v -1.1764 c 0.0000,-0.1163 0.0000,-0.1983 -0.0752 -0.1983Z"/></g><g stroke-linejoin="miter" stroke-opacity="0.6" fill-opacity="0.0" stroke="rgb(0,0,0)" stroke-width="0.4133206743970644" fill="rgb(0,0,0)" stroke-linecap="butt" stroke-miterlimit="10.0"><path d="M 10.6655,42.2956 h 1.5466 "/></g><g stroke-linejoin="miter" stroke-opacity="1.0" fill-opacity="0.6" stroke="rgb(0,0,0)" fill-rule="evenodd" stroke-width="0.0" fill="rgb(0,0,0)" stroke-linecap="butt" stroke-miterlimit="10.0"><path d="M 6.1475,47.4509 ZM 6.8964,45.5939 c -0.1471,-0.0000 -0.3625,0.1436 -0.3625 0.9404c 0.0000,0.2804 0.0513,0.8447 0.3522 0.8447c 0.0581,-0.0000 0.2223,-0.0376 0.2941 -0.3044c 0.0445,-0.1641 0.0684,-0.3693 0.0684 -0.6669c 0.0000,-0.4343 -0.1094,-0.6771 -0.2086 -0.7626c -0.0376,-0.0342 -0.0889,-0.0513 -0.1436 -0.0513ZM 6.8964,45.5939 ZM 6.8828,47.4919 c -0.3659,-0.0000 -0.6121,-0.4685 -0.6121 -0.9917c 0.0000,-0.6395 0.3044,-1.0259 0.6258 -1.0259c 0.1471,-0.0000 0.2941,0.0923 0.3933 0.2257c 0.1436,0.1915 0.2189,0.4480 0.2189 0.7694c 0.0000,0.7592 -0.3762,1.0225 -0.6258 1.0225ZM 7.6454,47.4509 ZM 7.8403,47.3107 c 0.0000,-0.0992 0.0821,-0.1812 0.1812 -0.1812c 0.0992,-0.0000 0.1812,0.0821 0.1812 0.1812c 0.0000,0.0992 -0.0821,0.1812 -0.1812 0.1812c -0.0992,-0.0000 -0.1812,-0.0821 -0.1812 -0.1812ZM 8.3943,47.4509 ZM 9.1432,45.5939 c -0.1471,-0.0000 -0.3625,0.1436 -0.3625 0.9404c 0.0000,0.2804 0.0513,0.8447 0.3522 0.8447c 0.0581,-0.0000 0.2223,-0.0376 0.2941 -0.3044c 0.0445,-0.1641 0.0684,-0.3693 0.0684 -0.6669c 0.0000,-0.4343 -0.1094,-0.6771 -0.2086 -0.7626c -0.0376,-0.0342 -0.0889,-0.0513 -0.1436 -0.0513ZM 9.1432,45.5939 ZM 9.1296,47.4919 c -0.3659,-0.0000 -0.6121,-0.4685 -0.6121 -0.9917c 0.0000,-0.6395 0.3044,-1.0259 0.6258 -1.0259c 0.1471,-0.0000 0.2941,0.0923 0.3933 0.2257c 0.1436,0.1915 0.2189,0.4480 0.2189 0.7694c 0.0000,0.7592 -0.3762,1.0225 -0.6258 1.0225Z"/></g><g stroke-linejoin="miter" stroke-opacity="0.6" fill-opacity="0.0" stroke="rgb(0,0,0)" stroke-width="0.4133206743970644" fill="rgb(0,0,0)" stroke-linecap="butt" stroke-miterlimit="10.0"><path d="M 10.6655,47.4509 h 1.5466 "/></g><g stroke-linejoin="miter" stroke-opacity="1.0" fill-opacity="0.6" stroke="rgb(0,0,0)" fill-rule="evenodd" stroke-width="0.0" fill="rgb(0,0,0)" stroke-linecap="butt" stroke-miterlimit="10.0"><path d="M 5.0087,52.6062 ZM 5.9457,51.7991 h -0.7729 c -0.0308,-0.0000 -0.0513,-0.0274 -0.0513 -0.0581c 0.0000,-0.0547 0.0445,-0.1265 0.0855 -0.1265h 0.7831 c 0.0342,-0.0000 0.0479,0.0308 0.0479 0.0616c 0.0000,0.0376 -0.0479,0.1231 -0.0923 0.1231ZM 6.1475,52.6062 ZM 6.8964,50.7493 c -0.1471,-0.0000 -0.3625,0.1436 -0.3625 0.9404c 0.0000,0.2804 0.0513,0.8447 0.3522 0.8447c 0.0581,-0.0000 0.2223,-0.0376 0.2941 -0.3044c 0.0445,-0.1641 0.0684,-0.3693 0.0684 -0.6669c 0.0000,-0.4343 -0.1094,-0.6771 -0.2086 -0.7626c -0.0376,-0.0342 -0.0889,-0.0513 -0.1436 -0.0513ZM 6.8964,50.7493 ZM 6.8828,52.6472 c -0.3659,-0.0000 -0.6121,-0.4685 -0.6121 -0.9917c 0.0000,-0.6395 0.3044,-1.0259 0.6258 -1.0259c 0.1471,-0.0000 0.2941,0.0923 0.3933 0.2257c 0.1436,0.1915 0.2189,0.4480 0.2189 0.7694c 0.0000,0.7592 -0.3762,1.0225 -0.6258 1.0225ZM 7.6454,52.6062 ZM 7.8403,52.4660 c 0.0000,-0.0992 0.0821,-0.1812 0.1812 -0.1812c 0.0992,-0.0000 0.1812,0.0821 0.1812 0.1812c 0.0000,0.0992 -0.0821,0.1812 -0.1812 0.1812c -0.0992,-0.0000 -0.1812,-0.0821 -0.1812 -0.1812ZM 8.3943,52.6062 ZM 9.0372,50.9750 c -0.0650,-0.0000 -0.2154,0.0616 -0.2907 0.0958l -0.0410,-0.1060 c 0.3009,-0.1402 0.4172,-0.2120 0.5882 -0.3351h 0.0650 v 1.7201 c 0.0000,0.1231 0.0171,0.1573 0.1300 0.1573h 0.1778 c 0.0103,-0.0000 0.0274,0.0068 0.0274 0.0274v 0.0752 l -0.4685,-0.0068 l -0.4753,0.0068 v -0.0752 c 0.0034,-0.0103 0.0068,-0.0274 0.0274 -0.0274h 0.2052 c 0.1300,-0.0000 0.1300,-0.0581 0.1300 -0.1573v -1.1764 c 0.0000,-0.1163 0.0000,-0.1983 -0.0752 -0.1983Z"/></g><g stroke-linejoin="miter" stroke-opacity="0.6" fill-opacity="0.0" stroke="rgb(0,0,0)" stroke-width="0.4133206743970644" fill="rgb(0,0,0)" stroke-linecap="butt" stroke-miterlimit="10.0"><path d="M 10.6655,52.6062 h 1.5466 "/></g><g stroke-linejoin="miter" stroke-opacity="1.0" fill-opacity="0.6" stroke="rgb(0,0,0)" fill-rule="evenodd" stroke-width="0.0" fill="rgb(0,0,0)" stroke-linecap="butt" stroke-miterlimit="10.0"><path d="M 5.0087,57.7615 ZM 5.9457,56.9544 h -0.7729 c -0.0308,-0.0000 -0.0513,-0.0274 -0.0513 -0.0581c 0.0000,-0.0547 0.0445,-0.1265 0.0855 -0.1265h 0.7831 c 0.0342,-0.0000 0.0479,0.0308 0.0479 0.0616c 0.0000,0.0376 -0.0479,0.1231 -0.0923 0.1231ZM 6.1475,57.7615 ZM 6.8964,55.9046 c -0.1471,-0.0000 -0.3625,0.1436 -0.3625 0.9404c 0.0000,0.2804 0.0513,0.8447 0.3522 0.8447c 0.0581,-0.0000 0.2223,-0.0376 0.2941 -0.3044c 0.0445,-0.1641 0.0684,-0.3693 0.0684 -0.6669c 0.0000,-0.4343 -0.1094,-0.6771 -0.2086 -0.7626c -0.0376,-0.0342 -0.0889,-0.0513 -0.1436 -0.0513ZM 6.8964,55.9046 ZM 6.8828,57.8025 c -0.3659,-0.0000 -0.6121,-0.4685 -0.6121 -0.9917c 0.0000,-0.6395 0.3044,-1.0259 0.6258 -1.0259c 0.1471,-0.0000 0.2941,0.0923 0.3933 0.2257c 0.1436,0.1915 0.2189,0.4480 0.2189 0.7694c 0.0000,0.7592 -0.3762,1.0225 -0.6258 1.0225ZM 7.6454,57.7615 ZM 7.8403,57.6213 c 0.0000,-0.0992 0.0821,-0.1812 0.1812 -0.1812c 0.0992,-0.0000 0.1812,0.0821 0.1812 0.1812c 0.0000,0.0992 -0.0821,0.1812 -0.1812 0.1812c -0.0992,-0.0000 -0.1812,-0.0821 -0.1812 -0.1812ZM 8.3943,57.7615 ZM 8.5926,56.2465 c 0.0000,-0.1949 0.1881,-0.4617 0.5472 -0.4617c 0.2633,-0.0000 0.5711,0.0992 0.5711 0.4924c 0.0000,0.2599 -0.1334,0.3899 -0.3180 0.5677l -0.3249,0.3146 c -0.0171,0.0171 -0.2462,0.2428 -0.2462 0.4035h 0.5814 c 0.1163,-0.0000 0.1778,-0.0581 0.2257 -0.2462l 0.0855,0.0137 l -0.0684,0.4309 h -1.0567 c 0.0000,-0.1915 0.0308,-0.3386 0.3488 -0.6634l 0.2394,-0.2360 c 0.1915,-0.1949 0.2702,-0.3625 0.2702 -0.5711c 0.0000,-0.3112 -0.2120,-0.4001 -0.3283 -0.4001c -0.2360,-0.0000 -0.3009,0.1231 -0.3009 0.2052c 0.0000,0.0274 0.0068,0.0547 0.0137 0.0787c 0.0068,0.0239 0.0137,0.0479 0.0137 0.0752c 0.0000,0.0889 -0.0684,0.1231 -0.1231 0.1231c -0.0752,-0.0000 -0.1300,-0.0581 -0.1300 -0.1265Z"/></g><g stroke-linejoin="miter" stroke-opacity="0.6" fill-opacity="0.0" stroke="rgb(0,0,0)" stroke-width="0.4133206743970644" fill="rgb(0,0,0)" stroke-linecap="butt" stroke-miterlimit="10.0"><path d="M 10.6655,57.7615 h 1.5466 "/></g><g stroke-linejoin="miter" stroke-opacity="1.0" fill-opacity="0.6" stroke="rgb(0,0,0)" fill-rule="evenodd" stroke-width="0.0" fill="rgb(0,0,0)" stroke-linecap="butt" stroke-miterlimit="10.0"><path d="M 5.0087,62.9168 ZM 5.9457,62.1097 h -0.7729 c -0.0308,-0.0000 -0.0513,-0.0274 -0.0513 -0.0581c 0.0000,-0.0547 0.0445,-0.1265 0.0855 -0.1265h 0.7831 c 0.0342,-0.0000 0.0479,0.0308 0.0479 0.0616c 0.0000,0.0376 -0.0479,0.1231 -0.0923 0.1231ZM 6.1475,62.9168 ZM 6.8964,61.0599 c -0.1471,-0.0000 -0.3625,0.1436 -0.3625 0.9404c 0.0000,0.2804 0.0513,0.8447 0.3522 0.8447c 0.0581,-0.0000 0.2223,-0.0376 0.2941 -0.3044c 0.0445,-0.1641 0.0684,-0.3693 0.0684 -0.6669c 0.0000,-0.4343 -0.1094,-0.6771 -0.2086 -0.7626c -0.0376,-0.0342 -0.0889,-0.0513 -0.1436 -0.0513ZM 6.8964,61.0599 ZM 6.8828,62.9578 c -0.3659,-0.0000 -0.6121,-0.4685 -0.6121 -0.9917c 0.0000,-0.6395 0.3044,-1.0259 0.6258 -1.0259c 0.1471,-0.0000 0.2941,0.0923 0.3933 0.2257c 0.1436,0.1915 0.2189,0.4480 0.2189 0.7694c 0.0000,0.7592 -0.3762,1.0225 -0.6258 1.0225ZM 7.6454,62.9168 ZM 7.8403,62.7766 c 0.0000,-0.0992 0.0821,-0.1812 0.1812 -0.1812c 0.0992,-0.0000 0.1812,0.0821 0.1812 0.1812c 0.0000,0.0992 -0.0821,0.1812 -0.1812 0.1812c -0.0992,-0.0000 -0.1812,-0.0821 -0.1812 -0.1812ZM 8.3943,62.9168 ZM 9.1330,61.0462 c -0.0855,-0.0000 -0.3351,0.0479 -0.3351 0.2565c 0.0000,0.0616 -0.0239,0.1676 -0.1163 0.1676c -0.0889,-0.0000 -0.0958,-0.0992 -0.0958 -0.1094c 0.0000,-0.1060 0.1402,-0.4206 0.6156 -0.4206c 0.3317,-0.0000 0.4309,0.2086 0.4309 0.3454c 0.0000,0.0855 -0.0274,0.2565 -0.3351 0.4514c 0.1915,0.0308 0.4446,0.1710 0.4446 0.5266c 0.0000,0.4514 -0.3420,0.6942 -0.7284 0.6942c -0.1949,-0.0000 -0.4685,-0.0855 -0.4685 -0.2154c 0.0000,-0.0513 0.0513,-0.1094 0.1197 -0.1094c 0.0650,-0.0000 0.0958,0.0342 0.1265 0.0787c 0.0376,0.0581 0.0992,0.1402 0.2633 0.1402c 0.1129,-0.0000 0.4343,-0.1129 0.4343 -0.5437c 0.0000,-0.3659 -0.2565,-0.4241 -0.4412 -0.4241c -0.0308,-0.0000 -0.0684,0.0068 -0.1060 0.0137l -0.0137,-0.1026 c 0.2633,-0.0445 0.4822,-0.3009 0.4822 -0.4582c 0.0000,-0.1949 -0.1368,-0.2907 -0.2770 -0.2907Z"/></g><g stroke-linejoin="miter" stroke-opacity="0.6" fill-opacity="0.0" stroke="rgb(0,0,0)" stroke-width="0.4133206743970644" fill="rgb(0,0,0)" stroke-linecap="butt" stroke-miterlimit="10.0"><path d="M 10.6655,62.9168 h 1.5466 "/></g><g stroke-linejoin="miter" stroke-opacity="1.0" fill-opacity="0.6" stroke="rgb(0,0,0)" fill-rule="evenodd" stroke-width="0.0" fill="rgb(0,0,0)" stroke-linecap="butt" stroke-miterlimit="10.0"><path d="M 5.0087,68.0721 ZM 5.9457,67.2650 h -0.7729 c -0.0308,-0.0000 -0.0513,-0.0274 -0.0513 -0.0581c 0.0000,-0.0547 0.0445,-0.1265 0.0855 -0.1265h 0.7831 c 0.0342,-0.0000 0.0479,0.0308 0.0479 0.0616c 0.0000,0.0376 -0.0479,0.1231 -0.0923 0.1231ZM 6.1475,68.0721 ZM 6.8964,66.2152 c -0.1471,-0.0000 -0.3625,0.1436 -0.3625 0.9404c 0.0000,0.2804 0.0513,0.8447 0.3522 0.8447c 0.0581,-0.0000 0.2223,-0.0376 0.2941 -0.3044c 0.0445,-0.1641 0.0684,-0.3693 0.0684 -0.6669c 0.0000,-0.4343 -0.1094,-0.6771 -0.2086 -0.7626c -0.0376,-0.0342 -0.0889,-0.0513 -0.1436 -0.0513ZM 6.8964,66.2152 ZM 6.8828,68.1131 c -0.3659,-0.0000 -0.6121,-0.4685 -0.6121 -0.9917c 0.0000,-0.6395 0.3044,-1.0259 0.6258 -1.0259c 0.1471,-0.0000 0.2941,0.0923 0.3933 0.2257c 0.1436,0.1915 0.2189,0.4480 0.2189 0.7694c 0.0000,0.7592 -0.3762,1.0225 -0.6258 1.0225ZM 7.6454,68.0721 ZM 7.8403,67.9319 c 0.0000,-0.0992 0.0821,-0.1812 0.1812 -0.1812c 0.0992,-0.0000 0.1812,0.0821 0.1812 0.1812c 0.0000,0.0992 -0.0821,0.1812 -0.1812 0.1812c -0.0992,-0.0000 -0.1812,-0.0821 -0.1812 -0.1812ZM 8.3943,68.0721 ZM 9.2766,66.8581 c 0.0000,-0.0239 0.0034,-0.0513 0.0342 -0.0684c 0.0376,-0.0274 0.0992,-0.0581 0.1505 -0.0581c 0.0445,-0.0000 0.0479,0.0376 0.0479 0.1060v 0.5506 h 0.2770 l -0.0205,0.1607 h -0.2565 v 0.2838 c 0.0000,0.0958 0.0137,0.1436 0.1129 0.1436h 0.0923 c 0.0205,-0.0000 0.0239,0.0171 0.0239 0.0239v 0.0752 c 0.0000,-0.0000 -0.2189,-0.0068 -0.3625 -0.0068c -0.1300,-0.0000 -0.3317,0.0068 -0.3317 0.0068v -0.0752 c 0.0000,-0.0068 0.0034,-0.0239 0.0239 -0.0239h 0.0923 c 0.1060,-0.0000 0.1163,-0.0445 0.1163 -0.1436v -0.2838 h -0.6703 c -0.0137,-0.0000 -0.0205,-0.0068 -0.0308 -0.0205l -0.0274,-0.0376 l -0.0410,-0.0718 c -0.0034,-0.0000 -0.0034,-0.0034 -0.0034 -0.0068c 0.0000,-0.0034 0.0034,-0.0068 0.0068 -0.0103c 0.2223,-0.2462 0.6156,-1.0088 0.7387 -1.2893c 0.0034,-0.0137 0.0103,-0.0171 0.0239 -0.0171c 0.0034,-0.0000 0.0787,0.0308 0.1197 0.0376c -0.1539,0.4138 -0.4070,0.8584 -0.6566 1.2551h 0.5403 v -0.5301 Z"/></g><g stroke-linejoin="miter" stroke-opacity="0.6" fill-opacity="0.0" stroke="rgb(0,0,0)" stroke-width="0.4133206743970644" fill="rgb(0,0,0)" stroke-linecap="butt" stroke-miterlimit="10.0"><path d="M 10.6655,68.0721 h 1.5466 "/></g><g stroke-linejoin="miter" stroke-opacity="1.0" fill-opacity="0.6" stroke="rgb(0,0,0)" fill-rule="evenodd" stroke-width="0.0" fill="rgb(0,0,0)" stroke-linecap="butt" stroke-miterlimit="10.0"><path d="M 5.0087,73.2274 ZM 5.9457,72.4203 h -0.7729 c -0.0308,-0.0000 -0.0513,-0.0274 -0.0513 -0.0581c 0.0000,-0.0547 0.0445,-0.1265 0.0855 -0.1265h 0.7831 c 0.0342,-0.0000 0.0479,0.0308 0.0479 0.0616c 0.0000,0.0376 -0.0479,0.1231 -0.0923 0.1231ZM 6.1475,73.2274 ZM 6.8964,71.3705 c -0.1471,-0.0000 -0.3625,0.1436 -0.3625 0.9404c 0.0000,0.2804 0.0513,0.8447 0.3522 0.8447c 0.0581,-0.0000 0.2223,-0.0376 0.2941 -0.3044c 0.0445,-0.1641 0.0684,-0.3693 0.0684 -0.6669c 0.0000,-0.4343 -0.1094,-0.6771 -0.2086 -0.7626c -0.0376,-0.0342 -0.0889,-0.0513 -0.1436 -0.0513ZM 6.8964,71.3705 ZM 6.8828,73.2685 c -0.3659,-0.0000 -0.6121,-0.4685 -0.6121 -0.9917c 0.0000,-0.6395 0.3044,-1.0259 0.6258 -1.0259c 0.1471,-0.0000 0.2941,0.0923 0.3933 0.2257c 0.1436,0.1915 0.2189,0.4480 0.2189 0.7694c 0.0000,0.7592 -0.3762,1.0225 -0.6258 1.0225ZM 7.6454,73.2274 ZM 7.8403,73.0872 c 0.0000,-0.0992 0.0821,-0.1812 0.1812 -0.1812c 0.0992,-0.0000 0.1812,0.0821 0.1812 0.1812c 0.0000,0.0992 -0.0821,0.1812 -0.1812 0.1812c -0.0992,-0.0000 -0.1812,-0.0821 -0.1812 -0.1812ZM 8.3943,73.2274 ZM 9.4510,72.6495 c 0.0000,-0.3522 -0.1915,-0.5266 -0.4035 -0.5266c -0.1573,-0.0000 -0.2770,0.0239 -0.4104 0.0787l 0.1094,-0.9336 c 0.1129,0.0103 0.2291,0.0137 0.3488 0.0137c 0.1710,-0.0000 0.3488,-0.0103 0.5335 -0.0308l 0.0205,0.0103 l -0.0513,0.2223 c -0.1334,0.0137 -0.2428,0.0171 -0.3386 0.0171c -0.1539,-0.0000 -0.2702,-0.0137 -0.3899 -0.0274l -0.0650,0.5403 c 0.0718,-0.0274 0.1949,-0.0513 0.3283 -0.0513c 0.3625,-0.0000 0.5643,0.3146 0.5643 0.6292c 0.0000,0.3830 -0.2667,0.6771 -0.6532 0.6771c -0.1949,-0.0000 -0.4788,-0.1094 -0.4788 -0.2428c 0.0000,-0.0650 0.0547,-0.1094 0.1163 -0.1094c 0.0684,-0.0000 0.1129,0.0513 0.1539 0.1060c 0.0513,0.0616 0.1060,0.1300 0.2154 0.1300c 0.2189,-0.0000 0.4001,-0.2052 0.4001 -0.5027Z"/></g><g stroke-linejoin="miter" stroke-opacity="0.6" fill-opacity="0.0" stroke="rgb(0,0,0)" stroke-width="0.4133206743970644" fill="rgb(0,0,0)" stroke-linecap="butt" stroke-miterlimit="10.0"><path d="M 10.6655,73.2274 h 1.5466 "/></g><g stroke-linejoin="miter" stroke-opacity="0.0" fill-opacity="0.1" stroke="rgb(0,0,0)" stroke-width="0.0" fill="rgb(0,0,0)" stroke-linecap="butt" stroke-miterlimit="10.0"><path d="M 94.0455,75.3254 l -0.0000,-1.0311 h -77.3296 l -0.0000,1.0311 Z"/></g><g stroke-linejoin="miter" stroke-opacity="1.0" fill-opacity="0.6" stroke="rgb(0,0,0)" fill-rule="evenodd" stroke-width="0.0" fill="rgb(0,0,0)" stroke-linecap="butt" stroke-miterlimit="10.0"><path d="M 92.1732,79.6715 ZM 92.9221,77.8146 c -0.1471,-0.0000 -0.3625,0.1436 -0.3625 0.9404c 0.0000,0.2804 0.0513,0.8447 0.3522 0.8447c 0.0581,-0.0000 0.2223,-0.0376 0.2941 -0.3044c 0.0445,-0.1641 0.0684,-0.3693 0.0684 -0.6669c 0.0000,-0.4343 -0.1094,-0.6771 -0.2086 -0.7626c -0.0376,-0.0342 -0.0889,-0.0513 -0.1436 -0.0513ZM 92.9221,77.8146 ZM 92.9084,79.7126 c -0.3659,-0.0000 -0.6121,-0.4685 -0.6121 -0.9917c 0.0000,-0.6395 0.3044,-1.0259 0.6258 -1.0259c 0.1471,-0.0000 0.2941,0.0923 0.3933 0.2257c 0.1436,0.1915 0.2189,0.4480 0.2189 0.7694c 0.0000,0.7592 -0.3762,1.0225 -0.6258 1.0225ZM 93.6710,79.6715 ZM 93.8660,79.5313 c 0.0000,-0.0992 0.0821,-0.1812 0.1812 -0.1812c 0.0992,-0.0000 0.1812,0.0821 0.1812 0.1812c 0.0000,0.0992 -0.0821,0.1812 -0.1812 0.1812c -0.0992,-0.0000 -0.1812,-0.0821 -0.1812 -0.1812ZM 94.4200,79.6715 ZM 95.4767,79.0936 c 0.0000,-0.3522 -0.1915,-0.5266 -0.4035 -0.5266c -0.1573,-0.0000 -0.2770,0.0239 -0.4104 0.0787l 0.1094,-0.9336 c 0.1129,0.0103 0.2291,0.0137 0.3488 0.0137c 0.1710,-0.0000 0.3488,-0.0103 0.5335 -0.0308l 0.0205,0.0103 l -0.0513,0.2223 c -0.1334,0.0137 -0.2428,0.0171 -0.3386 0.0171c -0.1539,-0.0000 -0.2702,-0.0137 -0.3899 -0.0274l -0.0650,0.5403 c 0.0718,-0.0274 0.1949,-0.0513 0.3283 -0.0513c 0.3625,-0.0000 0.5643,0.3146 0.5643 0.6292c 0.0000,0.3830 -0.2667,0.6771 -0.6532 0.6771c -0.1949,-0.0000 -0.4788,-0.1094 -0.4788 -0.2428c 0.0000,-0.0650 0.0547,-0.1094 0.1163 -0.1094c 0.0684,-0.0000 0.1129,0.0513 0.1539 0.1060c 0.0513,0.0616 0.1060,0.1300 0.2154 0.1300c 0.2189,-0.0000 0.4001,-0.2052 0.4001 -0.5027Z"/></g><g stroke-linejoin="miter" stroke-opacity="0.6" fill-opacity="0.0" stroke="rgb(0,0,0)" stroke-width="0.4133206743970644" fill="rgb(0,0,0)" stroke-linecap="butt" stroke-miterlimit="10.0"><path d="M 94.0455,74.2944 v 1.5466 "/></g><g stroke-linejoin="miter" stroke-opacity="1.0" fill-opacity="0.6" stroke="rgb(0,0,0)" fill-rule="evenodd" stroke-width="0.0" fill="rgb(0,0,0)" stroke-linecap="butt" stroke-miterlimit="10.0"><path d="M 84.4402,79.6715 ZM 85.1891,77.8146 c -0.1471,-0.0000 -0.3625,0.1436 -0.3625 0.9404c 0.0000,0.2804 0.0513,0.8447 0.3522 0.8447c 0.0581,-0.0000 0.2223,-0.0376 0.2941 -0.3044c 0.0445,-0.1641 0.0684,-0.3693 0.0684 -0.6669c 0.0000,-0.4343 -0.1094,-0.6771 -0.2086 -0.7626c -0.0376,-0.0342 -0.0889,-0.0513 -0.1436 -0.0513ZM 85.1891,77.8146 ZM 85.1755,79.7126 c -0.3659,-0.0000 -0.6121,-0.4685 -0.6121 -0.9917c 0.0000,-0.6395 0.3044,-1.0259 0.6258 -1.0259c 0.1471,-0.0000 0.2941,0.0923 0.3933 0.2257c 0.1436,0.1915 0.2189,0.4480 0.2189 0.7694c 0.0000,0.7592 -0.3762,1.0225 -0.6258 1.0225ZM 85.9381,79.6715 ZM 86.1330,79.5313 c 0.0000,-0.0992 0.0821,-0.1812 0.1812 -0.1812c 0.0992,-0.0000 0.1812,0.0821 0.1812 0.1812c 0.0000,0.0992 -0.0821,0.1812 -0.1812 0.1812c -0.0992,-0.0000 -0.1812,-0.0821 -0.1812 -0.1812ZM 86.6870,79.6715 ZM 87.5693,78.4575 c 0.0000,-0.0239 0.0034,-0.0513 0.0342 -0.0684c 0.0376,-0.0274 0.0992,-0.0581 0.1505 -0.0581c 0.0445,-0.0000 0.0479,0.0376 0.0479 0.1060v 0.5506 h 0.2770 l -0.0205,0.1607 h -0.2565 v 0.2838 c 0.0000,0.0958 0.0137,0.1436 0.1129 0.1436h 0.0923 c 0.0205,-0.0000 0.0239,0.0171 0.0239 0.0239v 0.0752 c 0.0000,-0.0000 -0.2189,-0.0068 -0.3625 -0.0068c -0.1300,-0.0000 -0.3317,0.0068 -0.3317 0.0068v -0.0752 c 0.0000,-0.0068 0.0034,-0.0239 0.0239 -0.0239h 0.0923 c 0.1060,-0.0000 0.1163,-0.0445 0.1163 -0.1436v -0.2838 h -0.6703 c -0.0137,-0.0000 -0.0205,-0.0068 -0.0308 -0.0205l -0.0274,-0.0376 l -0.0410,-0.0718 c -0.0034,-0.0000 -0.0034,-0.0034 -0.0034 -0.0068c 0.0000,-0.0034 0.0034,-0.0068 0.0068 -0.0103c 0.2223,-0.2462 0.6156,-1.0088 0.7387 -1.2893c 0.0034,-0.0137 0.0103,-0.0171 0.0239 -0.0171c 0.0034,-0.0000 0.0787,0.0308 0.1197 0.0376c -0.1539,0.4138 -0.4070,0.8584 -0.6566 1.2551h 0.5403 v -0.5301 Z"/></g><g stroke-linejoin="miter" stroke-opacity="0.6" fill-opacity="0.0" stroke="rgb(0,0,0)" stroke-width="0.4133206743970644" fill="rgb(0,0,0)" stroke-linecap="butt" stroke-miterlimit="10.0"><path d="M 86.3125,74.2944 v 1.5466 "/></g><g stroke-linejoin="miter" stroke-opacity="1.0" fill-opacity="0.6" stroke="rgb(0,0,0)" fill-rule="evenodd" stroke-width="0.0" fill="rgb(0,0,0)" stroke-linecap="butt" stroke-miterlimit="10.0"><path d="M 76.7072,79.6715 ZM 77.4562,77.8146 c -0.1471,-0.0000 -0.3625,0.1436 -0.3625 0.9404c 0.0000,0.2804 0.0513,0.8447 0.3522 0.8447c 0.0581,-0.0000 0.2223,-0.0376 0.2941 -0.3044c 0.0445,-0.1641 0.0684,-0.3693 0.0684 -0.6669c 0.0000,-0.4343 -0.1094,-0.6771 -0.2086 -0.7626c -0.0376,-0.0342 -0.0889,-0.0513 -0.1436 -0.0513ZM 77.4562,77.8146 ZM 77.4425,79.7126 c -0.3659,-0.0000 -0.6121,-0.4685 -0.6121 -0.9917c 0.0000,-0.6395 0.3044,-1.0259 0.6258 -1.0259c 0.1471,-0.0000 0.2941,0.0923 0.3933 0.2257c 0.1436,0.1915 0.2189,0.4480 0.2189 0.7694c 0.0000,0.7592 -0.3762,1.0225 -0.6258 1.0225ZM 78.2051,79.6715 ZM 78.4000,79.5313 c 0.0000,-0.0992 0.0821,-0.1812 0.1812 -0.1812c 0.0992,-0.0000 0.1812,0.0821 0.1812 0.1812c 0.0000,0.0992 -0.0821,0.1812 -0.1812 0.1812c -0.0992,-0.0000 -0.1812,-0.0821 -0.1812 -0.1812ZM 78.9540,79.6715 ZM 79.6927,77.8009 c -0.0855,-0.0000 -0.3351,0.0479 -0.3351 0.2565c 0.0000,0.0616 -0.0239,0.1676 -0.1163 0.1676c -0.0889,-0.0000 -0.0958,-0.0992 -0.0958 -0.1094c 0.0000,-0.1060 0.1402,-0.4206 0.6156 -0.4206c 0.3317,-0.0000 0.4309,0.2086 0.4309 0.3454c 0.0000,0.0855 -0.0274,0.2565 -0.3351 0.4514c 0.1915,0.0308 0.4446,0.1710 0.4446 0.5266c 0.0000,0.4514 -0.3420,0.6942 -0.7284 0.6942c -0.1949,-0.0000 -0.4685,-0.0855 -0.4685 -0.2154c 0.0000,-0.0513 0.0513,-0.1094 0.1197 -0.1094c 0.0650,-0.0000 0.0958,0.0342 0.1265 0.0787c 0.0376,0.0581 0.0992,0.1402 0.2633 0.1402c 0.1129,-0.0000 0.4343,-0.1129 0.4343 -0.5437c 0.0000,-0.3659 -0.2565,-0.4241 -0.4412 -0.4241c -0.0308,-0.0000 -0.0684,0.0068 -0.1060 0.0137l -0.0137,-0.1026 c 0.2633,-0.0445 0.4822,-0.3009 0.4822 -0.4582c 0.0000,-0.1949 -0.1368,-0.2907 -0.2770 -0.2907Z"/></g><g stroke-linejoin="miter" stroke-opacity="0.6" fill-opacity="0.0" stroke="rgb(0,0,0)" stroke-width="0.4133206743970644" fill="rgb(0,0,0)" stroke-linecap="butt" stroke-miterlimit="10.0"><path d="M 78.5796,74.2944 v 1.5466 "/></g><g stroke-linejoin="miter" stroke-opacity="1.0" fill-opacity="0.6" stroke="rgb(0,0,0)" fill-rule="evenodd" stroke-width="0.0" fill="rgb(0,0,0)" stroke-linecap="butt" stroke-miterlimit="10.0"><path d="M 68.9743,79.6715 ZM 69.7232,77.8146 c -0.1471,-0.0000 -0.3625,0.1436 -0.3625 0.9404c 0.0000,0.2804 0.0513,0.8447 0.3522 0.8447c 0.0581,-0.0000 0.2223,-0.0376 0.2941 -0.3044c 0.0445,-0.1641 0.0684,-0.3693 0.0684 -0.6669c 0.0000,-0.4343 -0.1094,-0.6771 -0.2086 -0.7626c -0.0376,-0.0342 -0.0889,-0.0513 -0.1436 -0.0513ZM 69.7232,77.8146 ZM 69.7095,79.7126 c -0.3659,-0.0000 -0.6121,-0.4685 -0.6121 -0.9917c 0.0000,-0.6395 0.3044,-1.0259 0.6258 -1.0259c 0.1471,-0.0000 0.2941,0.0923 0.3933 0.2257c 0.1436,0.1915 0.2189,0.4480 0.2189 0.7694c 0.0000,0.7592 -0.3762,1.0225 -0.6258 1.0225ZM 70.4721,79.6715 ZM 70.6671,79.5313 c 0.0000,-0.0992 0.0821,-0.1812 0.1812 -0.1812c 0.0992,-0.0000 0.1812,0.0821 0.1812 0.1812c 0.0000,0.0992 -0.0821,0.1812 -0.1812 0.1812c -0.0992,-0.0000 -0.1812,-0.0821 -0.1812 -0.1812ZM 71.2211,79.6715 ZM 71.4194,78.1566 c 0.0000,-0.1949 0.1881,-0.4617 0.5472 -0.4617c 0.2633,-0.0000 0.5711,0.0992 0.5711 0.4924c 0.0000,0.2599 -0.1334,0.3899 -0.3180 0.5677l -0.3249,0.3146 c -0.0171,0.0171 -0.2462,0.2428 -0.2462 0.4035h 0.5814 c 0.1163,-0.0000 0.1778,-0.0581 0.2257 -0.2462l 0.0855,0.0137 l -0.0684,0.4309 h -1.0567 c 0.0000,-0.1915 0.0308,-0.3386 0.3488 -0.6634l 0.2394,-0.2360 c 0.1915,-0.1949 0.2702,-0.3625 0.2702 -0.5711c 0.0000,-0.3112 -0.2120,-0.4001 -0.3283 -0.4001c -0.2360,-0.0000 -0.3009,0.1231 -0.3009 0.2052c 0.0000,0.0274 0.0068,0.0547 0.0137 0.0787c 0.0068,0.0239 0.0137,0.0479 0.0137 0.0752c 0.0000,0.0889 -0.0684,0.1231 -0.1231 0.1231c -0.0752,-0.0000 -0.1300,-0.0581 -0.1300 -0.1265Z"/></g><g stroke-linejoin="miter" stroke-opacity="0.6" fill-opacity="0.0" stroke="rgb(0,0,0)" stroke-width="0.4133206743970644" fill="rgb(0,0,0)" stroke-linecap="butt" stroke-miterlimit="10.0"><path d="M 70.8466,74.2944 v 1.5466 "/></g><g stroke-linejoin="miter" stroke-opacity="1.0" fill-opacity="0.6" stroke="rgb(0,0,0)" fill-rule="evenodd" stroke-width="0.0" fill="rgb(0,0,0)" stroke-linecap="butt" stroke-miterlimit="10.0"><path d="M 61.2413,79.6715 ZM 61.9903,77.8146 c -0.1471,-0.0000 -0.3625,0.1436 -0.3625 0.9404c 0.0000,0.2804 0.0513,0.8447 0.3522 0.8447c 0.0581,-0.0000 0.2223,-0.0376 0.2941 -0.3044c 0.0445,-0.1641 0.0684,-0.3693 0.0684 -0.6669c 0.0000,-0.4343 -0.1094,-0.6771 -0.2086 -0.7626c -0.0376,-0.0342 -0.0889,-0.0513 -0.1436 -0.0513ZM 61.9903,77.8146 ZM 61.9766,79.7126 c -0.3659,-0.0000 -0.6121,-0.4685 -0.6121 -0.9917c 0.0000,-0.6395 0.3044,-1.0259 0.6258 -1.0259c 0.1471,-0.0000 0.2941,0.0923 0.3933 0.2257c 0.1436,0.1915 0.2189,0.4480 0.2189 0.7694c 0.0000,0.7592 -0.3762,1.0225 -0.6258 1.0225ZM 62.7392,79.6715 ZM 62.9341,79.5313 c 0.0000,-0.0992 0.0821,-0.1812 0.1812 -0.1812c 0.0992,-0.0000 0.1812,0.0821 0.1812 0.1812c 0.0000,0.0992 -0.0821,0.1812 -0.1812 0.1812c -0.0992,-0.0000 -0.1812,-0.0821 -0.1812 -0.1812ZM 63.4881,79.6715 ZM 64.1310,78.0403 c -0.0650,-0.0000 -0.2154,0.0616 -0.2907 0.0958l -0.0410,-0.1060 c 0.3009,-0.1402 0.4172,-0.2120 0.5882 -0.3351h 0.0650 v 1.7201 c 0.0000,0.1231 0.0171,0.1573 0.1300 0.1573h 0.1778 c 0.0103,-0.0000 0.0274,0.0068 0.0274 0.0274v 0.0752 l -0.4685,-0.0068 l -0.4753,0.0068 v -0.0752 c 0.0034,-0.0103 0.0068,-0.0274 0.0274 -0.0274h 0.2052 c 0.1300,-0.0000 0.1300,-0.0581 0.1300 -0.1573v -1.1764 c 0.0000,-0.1163 0.0000,-0.1983 -0.0752 -0.1983Z"/></g><g stroke-linejoin="miter" stroke-opacity="0.6" fill-opacity="0.0" stroke="rgb(0,0,0)" stroke-width="0.4133206743970644" fill="rgb(0,0,0)" stroke-linecap="butt" stroke-miterlimit="10.0"><path d="M 63.1137,74.2944 v 1.5466 "/></g><g stroke-linejoin="miter" stroke-opacity="1.0" fill-opacity="0.6" stroke="rgb(0,0,0)" fill-rule="evenodd" stroke-width="0.0" fill="rgb(0,0,0)" stroke-linecap="butt" stroke-miterlimit="10.0"><path d="M 53.5084,79.6715 ZM 54.2573,77.8146 c -0.1471,-0.0000 -0.3625,0.1436 -0.3625 0.9404c 0.0000,0.2804 0.0513,0.8447 0.3522 0.8447c 0.0581,-0.0000 0.2223,-0.0376 0.2941 -0.3044c 0.0445,-0.1641 0.0684,-0.3693 0.0684 -0.6669c 0.0000,-0.4343 -0.1094,-0.6771 -0.2086 -0.7626c -0.0376,-0.0342 -0.0889,-0.0513 -0.1436 -0.0513ZM 54.2573,77.8146 ZM 54.2436,79.7126 c -0.3659,-0.0000 -0.6121,-0.4685 -0.6121 -0.9917c 0.0000,-0.6395 0.3044,-1.0259 0.6258 -1.0259c 0.1471,-0.0000 0.2941,0.0923 0.3933 0.2257c 0.1436,0.1915 0.2189,0.4480 0.2189 0.7694c 0.0000,0.7592 -0.3762,1.0225 -0.6258 1.0225ZM 55.0062,79.6715 ZM 55.2012,79.5313 c 0.0000,-0.0992 0.0821,-0.1812 0.1812 -0.1812c 0.0992,-0.0000 0.1812,0.0821 0.1812 0.1812c 0.0000,0.0992 -0.0821,0.1812 -0.1812 0.1812c -0.0992,-0.0000 -0.1812,-0.0821 -0.1812 -0.1812ZM 55.7552,79.6715 ZM 56.5041,77.8146 c -0.1471,-0.0000 -0.3625,0.1436 -0.3625 0.9404c 0.0000,0.2804 0.0513,0.8447 0.3522 0.8447c 0.0581,-0.0000 0.2223,-0.0376 0.2941 -0.3044c 0.0445,-0.1641 0.0684,-0.3693 0.0684 -0.6669c 0.0000,-0.4343 -0.1094,-0.6771 -0.2086 -0.7626c -0.0376,-0.0342 -0.0889,-0.0513 -0.1436 -0.0513ZM 56.5041,77.8146 ZM 56.4904,79.7126 c -0.3659,-0.0000 -0.6121,-0.4685 -0.6121 -0.9917c 0.0000,-0.6395 0.3044,-1.0259 0.6258 -1.0259c 0.1471,-0.0000 0.2941,0.0923 0.3933 0.2257c 0.1436,0.1915 0.2189,0.4480 0.2189 0.7694c 0.0000,0.7592 -0.3762,1.0225 -0.6258 1.0225Z"/></g><g stroke-linejoin="miter" stroke-opacity="0.6" fill-opacity="0.0" stroke="rgb(0,0,0)" stroke-width="0.4133206743970644" fill="rgb(0,0,0)" stroke-linecap="butt" stroke-miterlimit="10.0"><path d="M 55.3807,74.2944 v 1.5466 "/></g><g stroke-linejoin="miter" stroke-opacity="1.0" fill-opacity="0.6" stroke="rgb(0,0,0)" fill-rule="evenodd" stroke-width="0.0" fill="rgb(0,0,0)" stroke-linecap="butt" stroke-miterlimit="10.0"><path d="M 45.2060,79.6715 ZM 46.1430,78.8645 h -0.7729 c -0.0308,-0.0000 -0.0513,-0.0274 -0.0513 -0.0581c 0.0000,-0.0547 0.0445,-0.1265 0.0855 -0.1265h 0.7831 c 0.0342,-0.0000 0.0479,0.0308 0.0479 0.0616c 0.0000,0.0376 -0.0479,0.1231 -0.0923 0.1231ZM 46.3448,79.6715 ZM 47.0937,77.8146 c -0.1471,-0.0000 -0.3625,0.1436 -0.3625 0.9404c 0.0000,0.2804 0.0513,0.8447 0.3522 0.8447c 0.0581,-0.0000 0.2223,-0.0376 0.2941 -0.3044c 0.0445,-0.1641 0.0684,-0.3693 0.0684 -0.6669c 0.0000,-0.4343 -0.1094,-0.6771 -0.2086 -0.7626c -0.0376,-0.0342 -0.0889,-0.0513 -0.1436 -0.0513ZM 47.0937,77.8146 ZM 47.0800,79.7126 c -0.3659,-0.0000 -0.6121,-0.4685 -0.6121 -0.9917c 0.0000,-0.6395 0.3044,-1.0259 0.6258 -1.0259c 0.1471,-0.0000 0.2941,0.0923 0.3933 0.2257c 0.1436,0.1915 0.2189,0.4480 0.2189 0.7694c 0.0000,0.7592 -0.3762,1.0225 -0.6258 1.0225ZM 47.8427,79.6715 ZM 48.0376,79.5313 c 0.0000,-0.0992 0.0821,-0.1812 0.1812 -0.1812c 0.0992,-0.0000 0.1812,0.0821 0.1812 0.1812c 0.0000,0.0992 -0.0821,0.1812 -0.1812 0.1812c -0.0992,-0.0000 -0.1812,-0.0821 -0.1812 -0.1812ZM 48.5916,79.6715 ZM 49.2345,78.0403 c -0.0650,-0.0000 -0.2154,0.0616 -0.2907 0.0958l -0.0410,-0.1060 c 0.3009,-0.1402 0.4172,-0.2120 0.5882 -0.3351h 0.0650 v 1.7201 c 0.0000,0.1231 0.0171,0.1573 0.1300 0.1573h 0.1778 c 0.0103,-0.0000 0.0274,0.0068 0.0274 0.0274v 0.0752 l -0.4685,-0.0068 l -0.4753,0.0068 v -0.0752 c 0.0034,-0.0103 0.0068,-0.0274 0.0274 -0.0274h 0.2052 c 0.1300,-0.0000 0.1300,-0.0581 0.1300 -0.1573v -1.1764 c 0.0000,-0.1163 0.0000,-0.1983 -0.0752 -0.1983Z"/></g><g stroke-linejoin="miter" stroke-opacity="0.6" fill-opacity="0.0" stroke="rgb(0,0,0)" stroke-width="0.4133206743970644" fill="rgb(0,0,0)" stroke-linecap="butt" stroke-miterlimit="10.0"><path d="M 47.6477,74.2944 v 1.5466 "/></g><g stroke-linejoin="miter" stroke-opacity="1.0" fill-opacity="0.6" stroke="rgb(0,0,0)" fill-rule="evenodd" stroke-width="0.0" fill="rgb(0,0,0)" stroke-linecap="butt" stroke-miterlimit="10.0"><path d="M 37.4731,79.6715 ZM 38.4101,78.8645 h -0.7729 c -0.0308,-0.0000 -0.0513,-0.0274 -0.0513 -0.0581c 0.0000,-0.0547 0.0445,-0.1265 0.0855 -0.1265h 0.7831 c 0.0342,-0.0000 0.0479,0.0308 0.0479 0.0616c 0.0000,0.0376 -0.0479,0.1231 -0.0923 0.1231ZM 38.6118,79.6715 ZM 39.3608,77.8146 c -0.1471,-0.0000 -0.3625,0.1436 -0.3625 0.9404c 0.0000,0.2804 0.0513,0.8447 0.3522 0.8447c 0.0581,-0.0000 0.2223,-0.0376 0.2941 -0.3044c 0.0445,-0.1641 0.0684,-0.3693 0.0684 -0.6669c 0.0000,-0.4343 -0.1094,-0.6771 -0.2086 -0.7626c -0.0376,-0.0342 -0.0889,-0.0513 -0.1436 -0.0513ZM 39.3608,77.8146 ZM 39.3471,79.7126 c -0.3659,-0.0000 -0.6121,-0.4685 -0.6121 -0.9917c 0.0000,-0.6395 0.3044,-1.0259 0.6258 -1.0259c 0.1471,-0.0000 0.2941,0.0923 0.3933 0.2257c 0.1436,0.1915 0.2189,0.4480 0.2189 0.7694c 0.0000,0.7592 -0.3762,1.0225 -0.6258 1.0225ZM 40.1097,79.6715 ZM 40.3046,79.5313 c 0.0000,-0.0992 0.0821,-0.1812 0.1812 -0.1812c 0.0992,-0.0000 0.1812,0.0821 0.1812 0.1812c 0.0000,0.0992 -0.0821,0.1812 -0.1812 0.1812c -0.0992,-0.0000 -0.1812,-0.0821 -0.1812 -0.1812ZM 40.8586,79.6715 ZM 41.0570,78.1566 c 0.0000,-0.1949 0.1881,-0.4617 0.5472 -0.4617c 0.2633,-0.0000 0.5711,0.0992 0.5711 0.4924c 0.0000,0.2599 -0.1334,0.3899 -0.3180 0.5677l -0.3249,0.3146 c -0.0171,0.0171 -0.2462,0.2428 -0.2462 0.4035h 0.5814 c 0.1163,-0.0000 0.1778,-0.0581 0.2257 -0.2462l 0.0855,0.0137 l -0.0684,0.4309 h -1.0567 c 0.0000,-0.1915 0.0308,-0.3386 0.3488 -0.6634l 0.2394,-0.2360 c 0.1915,-0.1949 0.2702,-0.3625 0.2702 -0.5711c 0.0000,-0.3112 -0.2120,-0.4001 -0.3283 -0.4001c -0.2360,-0.0000 -0.3009,0.1231 -0.3009 0.2052c 0.0000,0.0274 0.0068,0.0547 0.0137 0.0787c 0.0068,0.0239 0.0137,0.0479 0.0137 0.0752c 0.0000,0.0889 -0.0684,0.1231 -0.1231 0.1231c -0.0752,-0.0000 -0.1300,-0.0581 -0.1300 -0.1265Z"/></g><g stroke-linejoin="miter" stroke-opacity="0.6" fill-opacity="0.0" stroke="rgb(0,0,0)" stroke-width="0.4133206743970644" fill="rgb(0,0,0)" stroke-linecap="butt" stroke-miterlimit="10.0"><path d="M 39.9148,74.2944 v 1.5466 "/></g><g stroke-linejoin="miter" stroke-opacity="1.0" fill-opacity="0.6" stroke="rgb(0,0,0)" fill-rule="evenodd" stroke-width="0.0" fill="rgb(0,0,0)" stroke-linecap="butt" stroke-miterlimit="10.0"><path d="M 29.7401,79.6715 ZM 30.6771,78.8645 h -0.7729 c -0.0308,-0.0000 -0.0513,-0.0274 -0.0513 -0.0581c 0.0000,-0.0547 0.0445,-0.1265 0.0855 -0.1265h 0.7831 c 0.0342,-0.0000 0.0479,0.0308 0.0479 0.0616c 0.0000,0.0376 -0.0479,0.1231 -0.0923 0.1231ZM 30.8789,79.6715 ZM 31.6278,77.8146 c -0.1471,-0.0000 -0.3625,0.1436 -0.3625 0.9404c 0.0000,0.2804 0.0513,0.8447 0.3522 0.8447c 0.0581,-0.0000 0.2223,-0.0376 0.2941 -0.3044c 0.0445,-0.1641 0.0684,-0.3693 0.0684 -0.6669c 0.0000,-0.4343 -0.1094,-0.6771 -0.2086 -0.7626c -0.0376,-0.0342 -0.0889,-0.0513 -0.1436 -0.0513ZM 31.6278,77.8146 ZM 31.6141,79.7126 c -0.3659,-0.0000 -0.6121,-0.4685 -0.6121 -0.9917c 0.0000,-0.6395 0.3044,-1.0259 0.6258 -1.0259c 0.1471,-0.0000 0.2941,0.0923 0.3933 0.2257c 0.1436,0.1915 0.2189,0.4480 0.2189 0.7694c 0.0000,0.7592 -0.3762,1.0225 -0.6258 1.0225ZM 32.3767,79.6715 ZM 32.5717,79.5313 c 0.0000,-0.0992 0.0821,-0.1812 0.1812 -0.1812c 0.0992,-0.0000 0.1812,0.0821 0.1812 0.1812c 0.0000,0.0992 -0.0821,0.1812 -0.1812 0.1812c -0.0992,-0.0000 -0.1812,-0.0821 -0.1812 -0.1812ZM 33.1257,79.6715 ZM 33.8643,77.8009 c -0.0855,-0.0000 -0.3351,0.0479 -0.3351 0.2565c 0.0000,0.0616 -0.0239,0.1676 -0.1163 0.1676c -0.0889,-0.0000 -0.0958,-0.0992 -0.0958 -0.1094c 0.0000,-0.1060 0.1402,-0.4206 0.6156 -0.4206c 0.3317,-0.0000 0.4309,0.2086 0.4309 0.3454c 0.0000,0.0855 -0.0274,0.2565 -0.3351 0.4514c 0.1915,0.0308 0.4446,0.1710 0.4446 0.5266c 0.0000,0.4514 -0.3420,0.6942 -0.7284 0.6942c -0.1949,-0.0000 -0.4685,-0.0855 -0.4685 -0.2154c 0.0000,-0.0513 0.0513,-0.1094 0.1197 -0.1094c 0.0650,-0.0000 0.0958,0.0342 0.1265 0.0787c 0.0376,0.0581 0.0992,0.1402 0.2633 0.1402c 0.1129,-0.0000 0.4343,-0.1129 0.4343 -0.5437c 0.0000,-0.3659 -0.2565,-0.4241 -0.4412 -0.4241c -0.0308,-0.0000 -0.0684,0.0068 -0.1060 0.0137l -0.0137,-0.1026 c 0.2633,-0.0445 0.4822,-0.3009 0.4822 -0.4582c 0.0000,-0.1949 -0.1368,-0.2907 -0.2770 -0.2907Z"/></g><g stroke-linejoin="miter" stroke-opacity="0.6" fill-opacity="0.0" stroke="rgb(0,0,0)" stroke-width="0.4133206743970644" fill="rgb(0,0,0)" stroke-linecap="butt" stroke-miterlimit="10.0"><path d="M 32.1818,74.2944 v 1.5466 "/></g><g stroke-linejoin="miter" stroke-opacity="1.0" fill-opacity="0.6" stroke="rgb(0,0,0)" fill-rule="evenodd" stroke-width="0.0" fill="rgb(0,0,0)" stroke-linecap="butt" stroke-miterlimit="10.0"><path d="M 22.0071,79.6715 ZM 22.9442,78.8645 h -0.7729 c -0.0308,-0.0000 -0.0513,-0.0274 -0.0513 -0.0581c 0.0000,-0.0547 0.0445,-0.1265 0.0855 -0.1265h 0.7831 c 0.0342,-0.0000 0.0479,0.0308 0.0479 0.0616c 0.0000,0.0376 -0.0479,0.1231 -0.0923 0.1231ZM 23.1459,79.6715 ZM 23.8948,77.8146 c -0.1471,-0.0000 -0.3625,0.1436 -0.3625 0.9404c 0.0000,0.2804 0.0513,0.8447 0.3522 0.8447c 0.0581,-0.0000 0.2223,-0.0376 0.2941 -0.3044c 0.0445,-0.1641 0.0684,-0.3693 0.0684 -0.6669c 0.0000,-0.4343 -0.1094,-0.6771 -0.2086 -0.7626c -0.0376,-0.0342 -0.0889,-0.0513 -0.1436 -0.0513ZM 23.8948,77.8146 ZM 23.8812,79.7126 c -0.3659,-0.0000 -0.6121,-0.4685 -0.6121 -0.9917c 0.0000,-0.6395 0.3044,-1.0259 0.6258 -1.0259c 0.1471,-0.0000 0.2941,0.0923 0.3933 0.2257c 0.1436,0.1915 0.2189,0.4480 0.2189 0.7694c 0.0000,0.7592 -0.3762,1.0225 -0.6258 1.0225ZM 24.6438,79.6715 ZM 24.8387,79.5313 c 0.0000,-0.0992 0.0821,-0.1812 0.1812 -0.1812c 0.0992,-0.0000 0.1812,0.0821 0.1812 0.1812c 0.0000,0.0992 -0.0821,0.1812 -0.1812 0.1812c -0.0992,-0.0000 -0.1812,-0.0821 -0.1812 -0.1812ZM 25.3927,79.6715 ZM 26.2750,78.4575 c 0.0000,-0.0239 0.0034,-0.0513 0.0342 -0.0684c 0.0376,-0.0274 0.0992,-0.0581 0.1505 -0.0581c 0.0445,-0.0000 0.0479,0.0376 0.0479 0.1060v 0.5506 h 0.2770 l -0.0205,0.1607 h -0.2565 v 0.2838 c 0.0000,0.0958 0.0137,0.1436 0.1129 0.1436h 0.0923 c 0.0205,-0.0000 0.0239,0.0171 0.0239 0.0239v 0.0752 c 0.0000,-0.0000 -0.2189,-0.0068 -0.3625 -0.0068c -0.1300,-0.0000 -0.3317,0.0068 -0.3317 0.0068v -0.0752 c 0.0000,-0.0068 0.0034,-0.0239 0.0239 -0.0239h 0.0923 c 0.1060,-0.0000 0.1163,-0.0445 0.1163 -0.1436v -0.2838 h -0.6703 c -0.0137,-0.0000 -0.0205,-0.0068 -0.0308 -0.0205l -0.0274,-0.0376 l -0.0410,-0.0718 c -0.0034,-0.0000 -0.0034,-0.0034 -0.0034 -0.0068c 0.0000,-0.0034 0.0034,-0.0068 0.0068 -0.0103c 0.2223,-0.2462 0.6156,-1.0088 0.7387 -1.2893c 0.0034,-0.0137 0.0103,-0.0171 0.0239 -0.0171c 0.0034,-0.0000 0.0787,0.0308 0.1197 0.0376c -0.1539,0.4138 -0.4070,0.8584 -0.6566 1.2551h 0.5403 v -0.5301 Z"/></g><g stroke-linejoin="miter" stroke-opacity="0.6" fill-opacity="0.0" stroke="rgb(0,0,0)" stroke-width="0.4133206743970644" fill="rgb(0,0,0)" stroke-linecap="butt" stroke-miterlimit="10.0"><path d="M 24.4489,74.2944 v 1.5466 "/></g><g stroke-linejoin="miter" stroke-opacity="1.0" fill-opacity="0.6" stroke="rgb(0,0,0)" fill-rule="evenodd" stroke-width="0.0" fill="rgb(0,0,0)" stroke-linecap="butt" stroke-miterlimit="10.0"><path d="M 14.2742,79.6715 ZM 15.2112,78.8645 h -0.7729 c -0.0308,-0.0000 -0.0513,-0.0274 -0.0513 -0.0581c 0.0000,-0.0547 0.0445,-0.1265 0.0855 -0.1265h 0.7831 c 0.0342,-0.0000 0.0479,0.0308 0.0479 0.0616c 0.0000,0.0376 -0.0479,0.1231 -0.0923 0.1231ZM 15.4130,79.6715 ZM 16.1619,77.8146 c -0.1471,-0.0000 -0.3625,0.1436 -0.3625 0.9404c 0.0000,0.2804 0.0513,0.8447 0.3522 0.8447c 0.0581,-0.0000 0.2223,-0.0376 0.2941 -0.3044c 0.0445,-0.1641 0.0684,-0.3693 0.0684 -0.6669c 0.0000,-0.4343 -0.1094,-0.6771 -0.2086 -0.7626c -0.0376,-0.0342 -0.0889,-0.0513 -0.1436 -0.0513ZM 16.1619,77.8146 ZM 16.1482,79.7126 c -0.3659,-0.0000 -0.6121,-0.4685 -0.6121 -0.9917c 0.0000,-0.6395 0.3044,-1.0259 0.6258 -1.0259c 0.1471,-0.0000 0.2941,0.0923 0.3933 0.2257c 0.1436,0.1915 0.2189,0.4480 0.2189 0.7694c 0.0000,0.7592 -0.3762,1.0225 -0.6258 1.0225ZM 16.9108,79.6715 ZM 17.1057,79.5313 c 0.0000,-0.0992 0.0821,-0.1812 0.1812 -0.1812c 0.0992,-0.0000 0.1812,0.0821 0.1812 0.1812c 0.0000,0.0992 -0.0821,0.1812 -0.1812 0.1812c -0.0992,-0.0000 -0.1812,-0.0821 -0.1812 -0.1812ZM 17.6597,79.6715 ZM 18.7165,79.0936 c 0.0000,-0.3522 -0.1915,-0.5266 -0.4035 -0.5266c -0.1573,-0.0000 -0.2770,0.0239 -0.4104 0.0787l 0.1094,-0.9336 c 0.1129,0.0103 0.2291,0.0137 0.3488 0.0137c 0.1710,-0.0000 0.3488,-0.0103 0.5335 -0.0308l 0.0205,0.0103 l -0.0513,0.2223 c -0.1334,0.0137 -0.2428,0.0171 -0.3386 0.0171c -0.1539,-0.0000 -0.2702,-0.0137 -0.3899 -0.0274l -0.0650,0.5403 c 0.0718,-0.0274 0.1949,-0.0513 0.3283 -0.0513c 0.3625,-0.0000 0.5643,0.3146 0.5643 0.6292c 0.0000,0.3830 -0.2667,0.6771 -0.6532 0.6771c -0.1949,-0.0000 -0.4788,-0.1094 -0.4788 -0.2428c 0.0000,-0.0650 0.0547,-0.1094 0.1163 -0.1094c 0.0684,-0.0000 0.1129,0.0513 0.1539 0.1060c 0.0513,0.0616 0.1060,0.1300 0.2154 0.1300c 0.2189,-0.0000 0.4001,-0.2052 0.4001 -0.5027Z"/></g><g stroke-linejoin="miter" stroke-opacity="0.6" fill-opacity="0.0" stroke="rgb(0,0,0)" stroke-width="0.4133206743970644" fill="rgb(0,0,0)" stroke-linecap="butt" stroke-miterlimit="10.0"><path d="M 16.7159,74.2944 v 1.5466 "/></g><g stroke-linejoin="miter" stroke-opacity="0.0" fill-opacity="0.0" stroke="rgb(0,0,0)" stroke-width="0.0" fill="rgb(0,0,0)" stroke-linecap="butt" stroke-miterlimit="10.0"><path d="M 93.7608,72.2323 l -0.0000,-51.5531 h -77.3296 l -0.0000,51.5531 Z"/></g><g stroke-linejoin="miter" stroke-opacity="0.5" fill-opacity="0.0" stroke="rgb(93,165,218)" stroke-width="0.16532826975882575" fill="rgb(0,0,0)" stroke-linecap="butt" stroke-miterlimit="10.0"><path d="M 93.7608,72.2323 v -51.5531 "/></g><g stroke-linejoin="miter" stroke-opacity="0.5" fill-opacity="0.0" stroke="rgb(93,165,218)" stroke-width="0.16532826975882575" fill="rgb(0,0,0)" stroke-linecap="butt" stroke-miterlimit="10.0"><path d="M 86.0278,72.2323 v -51.5531 "/></g><g stroke-linejoin="miter" stroke-opacity="0.5" fill-opacity="0.0" stroke="rgb(93,165,218)" stroke-width="0.16532826975882575" fill="rgb(0,0,0)" stroke-linecap="butt" stroke-miterlimit="10.0"><path d="M 78.2949,72.2323 v -51.5531 "/></g><g stroke-linejoin="miter" stroke-opacity="0.5" fill-opacity="0.0" stroke="rgb(93,165,218)" stroke-width="0.16532826975882575" fill="rgb(0,0,0)" stroke-linecap="butt" stroke-miterlimit="10.0"><path d="M 70.5619,72.2323 v -51.5531 "/></g><g stroke-linejoin="miter" stroke-opacity="0.5" fill-opacity="0.0" stroke="rgb(93,165,218)" stroke-width="0.16532826975882575" fill="rgb(0,0,0)" stroke-linecap="butt" stroke-miterlimit="10.0"><path d="M 62.8290,72.2323 v -51.5531 "/></g><g stroke-linejoin="miter" stroke-opacity="0.5" fill-opacity="0.0" stroke="rgb(93,165,218)" stroke-width="0.16532826975882575" fill="rgb(0,0,0)" stroke-linecap="butt" stroke-miterlimit="10.0"><path d="M 55.0960,72.2323 v -51.5531 "/></g><g stroke-linejoin="miter" stroke-opacity="0.5" fill-opacity="0.0" stroke="rgb(93,165,218)" stroke-width="0.16532826975882575" fill="rgb(0,0,0)" stroke-linecap="butt" stroke-miterlimit="10.0"><path d="M 47.3630,72.2323 v -51.5531 "/></g><g stroke-linejoin="miter" stroke-opacity="0.5" fill-opacity="0.0" stroke="rgb(93,165,218)" stroke-width="0.16532826975882575" fill="rgb(0,0,0)" stroke-linecap="butt" stroke-miterlimit="10.0"><path d="M 39.6301,72.2323 v -51.5531 "/></g><g stroke-linejoin="miter" stroke-opacity="0.5" fill-opacity="0.0" stroke="rgb(93,165,218)" stroke-width="0.16532826975882575" fill="rgb(0,0,0)" stroke-linecap="butt" stroke-miterlimit="10.0"><path d="M 31.8971,72.2323 v -51.5531 "/></g><g stroke-linejoin="miter" stroke-opacity="0.5" fill-opacity="0.0" stroke="rgb(93,165,218)" stroke-width="0.16532826975882575" fill="rgb(0,0,0)" stroke-linecap="butt" stroke-miterlimit="10.0"><path d="M 24.1642,72.2323 v -51.5531 "/></g><g stroke-linejoin="miter" stroke-opacity="0.5" fill-opacity="0.0" stroke="rgb(93,165,218)" stroke-width="0.16532826975882575" fill="rgb(0,0,0)" stroke-linecap="butt" stroke-miterlimit="10.0"><path d="M 16.4312,72.2323 v -51.5531 "/></g><g stroke-linejoin="miter" stroke-opacity="0.5" fill-opacity="0.0" stroke="rgb(93,165,218)" stroke-width="0.16532826975882575" fill="rgb(0,0,0)" stroke-linecap="butt" stroke-miterlimit="10.0"><path d="M 16.4312,20.6792 h 77.3296 "/></g><g stroke-linejoin="miter" stroke-opacity="0.5" fill-opacity="0.0" stroke="rgb(93,165,218)" stroke-width="0.16532826975882575" fill="rgb(0,0,0)" stroke-linecap="butt" stroke-miterlimit="10.0"><path d="M 16.4312,25.8345 h 77.3296 "/></g><g stroke-linejoin="miter" stroke-opacity="0.5" fill-opacity="0.0" stroke="rgb(93,165,218)" stroke-width="0.16532826975882575" fill="rgb(0,0,0)" stroke-linecap="butt" stroke-miterlimit="10.0"><path d="M 16.4312,30.9898 h 77.3296 "/></g><g stroke-linejoin="miter" stroke-opacity="0.5" fill-opacity="0.0" stroke="rgb(93,165,218)" stroke-width="0.16532826975882575" fill="rgb(0,0,0)" stroke-linecap="butt" stroke-miterlimit="10.0"><path d="M 16.4312,36.1451 h 77.3296 "/></g><g stroke-linejoin="miter" stroke-opacity="0.5" fill-opacity="0.0" stroke="rgb(93,165,218)" stroke-width="0.16532826975882575" fill="rgb(0,0,0)" stroke-linecap="butt" stroke-miterlimit="10.0"><path d="M 16.4312,41.3004 h 77.3296 "/></g><g stroke-linejoin="miter" stroke-opacity="0.5" fill-opacity="0.0" stroke="rgb(93,165,218)" stroke-width="0.16532826975882575" fill="rgb(0,0,0)" stroke-linecap="butt" stroke-miterlimit="10.0"><path d="M 16.4312,46.4557 h 77.3296 "/></g><g stroke-linejoin="miter" stroke-opacity="0.5" fill-opacity="0.0" stroke="rgb(93,165,218)" stroke-width="0.16532826975882575" fill="rgb(0,0,0)" stroke-linecap="butt" stroke-miterlimit="10.0"><path d="M 16.4312,51.6110 h 77.3296 "/></g><g stroke-linejoin="miter" stroke-opacity="0.5" fill-opacity="0.0" stroke="rgb(93,165,218)" stroke-width="0.16532826975882575" fill="rgb(0,0,0)" stroke-linecap="butt" stroke-miterlimit="10.0"><path d="M 16.4312,56.7663 h 77.3296 "/></g><g stroke-linejoin="miter" stroke-opacity="0.5" fill-opacity="0.0" stroke="rgb(93,165,218)" stroke-width="0.16532826975882575" fill="rgb(0,0,0)" stroke-linecap="butt" stroke-miterlimit="10.0"><path d="M 16.4312,61.9216 h 77.3296 "/></g><g stroke-linejoin="miter" stroke-opacity="0.5" fill-opacity="0.0" stroke="rgb(93,165,218)" stroke-width="0.16532826975882575" fill="rgb(0,0,0)" stroke-linecap="butt" stroke-miterlimit="10.0"><path d="M 16.4312,67.0770 h 77.3296 "/></g><g stroke-linejoin="miter" stroke-opacity="0.5" fill-opacity="0.0" stroke="rgb(93,165,218)" stroke-width="0.16532826975882575" fill="rgb(0,0,0)" stroke-linecap="butt" stroke-miterlimit="10.0"><path d="M 16.4312,72.2323 h 77.3296 "/></g><g stroke-linejoin="miter" stroke-opacity="1.0" fill-opacity="1.0" stroke="rgb(0,0,0)" stroke-width="0.0" fill="rgb(255,0,0)" stroke-linecap="butt" stroke-miterlimit="10.0"><path d="M 57.0960,46.4557 c 0.0000,-1.1046 -0.8954,-2.0000 -2.0000 -2.0000c -1.1046,-0.0000 -2.0000,0.8954 -2.0000 2.0000c -0.0000,1.1046 0.8954,2.0000 2.0000 2.0000c 1.1046,0.0000 2.0000,-0.8954 2.0000 -2.0000Z"/></g></svg>