<?xml version="1.0" encoding="UTF-8"?>
<!DOCTYPE svg PUBLIC "-//W3C//DTD SVG 1.1//EN"
    "http://www.w3.org/Graphics/SVG/1.1/DTD/svg11.dtd"><svg xmlns="http://www.w3.org/2000/svg" height="300.0000" stroke-opacity="1" viewBox="0 0 300 300" font-size="1" width="300.0000" xmlns:xlink="http://www.w3.org/1999/xlink" stroke="rgb(0,0,0)" version="1.1"><defs></defs><g stroke-linejoin="miter" stroke-opacity="0.0" fill-opacity="0.1" stroke="rgb(0,0,0)" stroke-width="0.0" fill="rgb(0,0,0)" stroke-linecap="butt" stroke-miterlimit="10.0"><path d="M 36.7216,216.6375 l -0.0000,-154.6592 h -3.0932 l -0.0000,154.6592 Z"/></g><g stroke-linejoin="miter" stroke-opacity="1.0" fill-opacity="0.6" stroke="rgb(0,0,0)" fill-rule="evenodd" stroke-width="0.0" fill="rgb(0,0,0)" stroke-linecap="butt" stroke-miterlimit="10.0"><path d="M 18.5279,65.0715 ZM 20.7747,59.5007 c -0.4412,-0.0000 -1.0875,0.4309 -1.0875 2.8213c 0.0000,0.8413 0.1539,2.5341 1.0567 2.5341c 0.1744,-0.0000 0.6669,-0.1129 0.8823 -0.9131c 0.1334,-0.4924 0.2052,-1.1080 0.2052 -2.0006c 0.0000,-1.3029 -0.3283,-2.0313 -0.6258 -2.2878c -0.1129,-0.1026 -0.2667,-0.1539 -0.4309 -0.1539ZM 20.7747,59.5007 ZM 20.7337,65.1946 c -1.0977,-0.0000 -1.8364,-1.4055 -1.8364 -2.9752c 0.0000,-1.9185 0.9131,-3.0778 1.8775 -3.0778c 0.4412,-0.0000 0.8823,0.2770 1.1798 0.6771c 0.4309,0.5745 0.6566,1.3440 0.6566 2.3083c 0.0000,2.2776 -1.1285,3.0675 -1.8775 3.0675ZM 23.0215,65.0715 ZM 23.6063,64.6509 c 0.0000,-0.2975 0.2462,-0.5437 0.5437 -0.5437c 0.2975,-0.0000 0.5437,0.2462 0.5437 0.5437c 0.0000,0.2975 -0.2462,0.5437 -0.5437 0.5437c -0.2975,-0.0000 -0.5437,-0.2462 -0.5437 -0.5437ZM 25.2683,65.0715 ZM 28.4384,63.3377 c 0.0000,-1.0567 -0.5745,-1.5799 -1.2106 -1.5799c -0.4719,-0.0000 -0.8310,0.0718 -1.2311 0.2360l 0.3283,-2.8008 c 0.3386,0.0308 0.6874,0.0410 1.0465 0.0410c 0.5130,-0.0000 1.0465,-0.0308 1.6005 -0.0923l 0.0616,0.0308 l -0.1539,0.6669 c -0.4001,0.0410 -0.7284,0.0513 -1.0157 0.0513c -0.4617,-0.0000 -0.8105,-0.0410 -1.1696 -0.0821l -0.1949,1.6210 c 0.2154,-0.0821 0.5848,-0.1539 0.9849 -0.1539c 1.0875,-0.0000 1.6928,0.9439 1.6928 1.8877c 0.0000,1.1490 -0.8002,2.0313 -1.9595 2.0313c -0.5848,-0.0000 -1.4363,-0.3283 -1.4363 -0.7284c 0.0000,-0.1949 0.1641,-0.3283 0.3488 -0.3283c 0.2052,-0.0000 0.3386,0.1539 0.4617 0.3180c 0.1539,0.1847 0.3180,0.3899 0.6463 0.3899c 0.6566,-0.0000 1.2003,-0.6156 1.2003 -1.5081Z"/></g><g stroke-linejoin="miter" stroke-opacity="0.6" fill-opacity="0.0" stroke="rgb(0,0,0)" stroke-width="1.2396036082618596" fill="rgb(0,0,0)" stroke-linecap="butt" stroke-miterlimit="10.0"><path d="M 32.0818,61.9783 h 4.6398 "/></g><g stroke-linejoin="miter" stroke-opacity="1.0" fill-opacity="0.6" stroke="rgb(0,0,0)" fill-rule="evenodd" stroke-width="0.0" fill="rgb(0,0,0)" stroke-linecap="butt" stroke-miterlimit="10.0"><path d="M 18.5279,80.5374 ZM 20.7747,74.9666 c -0.4412,-0.0000 -1.0875,0.4309 -1.0875 2.8213c 0.0000,0.8413 0.1539,2.5341 1.0567 2.5341c 0.1744,-0.0000 0.6669,-0.1129 0.8823 -0.9131c 0.1334,-0.4924 0.2052,-1.1080 0.2052 -2.0006c 0.0000,-1.3029 -0.3283,-2.0313 -0.6258 -2.2878c -0.1129,-0.1026 -0.2667,-0.1539 -0.4309 -0.1539ZM 20.7747,74.9666 ZM 20.7337,80.6605 c -1.0977,-0.0000 -1.8364,-1.4055 -1.8364 -2.9752c 0.0000,-1.9185 0.9131,-3.0778 1.8775 -3.0778c 0.4412,-0.0000 0.8823,0.2770 1.1798 0.6771c 0.4309,0.5745 0.6566,1.3440 0.6566 2.3083c 0.0000,2.2776 -1.1285,3.0675 -1.8775 3.0675ZM 23.0215,80.5374 ZM 23.6063,80.1168 c 0.0000,-0.2975 0.2462,-0.5437 0.5437 -0.5437c 0.2975,-0.0000 0.5437,0.2462 0.5437 0.5437c 0.0000,0.2975 -0.2462,0.5437 -0.5437 0.5437c -0.2975,-0.0000 -0.5437,-0.2462 -0.5437 -0.5437ZM 25.2683,80.5374 ZM 27.9152,76.8954 c 0.0000,-0.0718 0.0103,-0.1539 0.1026 -0.2052c 0.1129,-0.0821 0.2975,-0.1744 0.4514 -0.1744c 0.1334,-0.0000 0.1436,0.1129 0.1436 0.3180v 1.6518 h 0.8310 l -0.0616,0.4822 h -0.7694 v 0.8515 c 0.0000,0.2873 0.0410,0.4309 0.3386 0.4309h 0.2770 c 0.0616,-0.0000 0.0718,0.0513 0.0718 0.0718v 0.2257 c 0.0000,-0.0000 -0.6566,-0.0205 -1.0875 -0.0205c -0.3899,-0.0000 -0.9952,0.0205 -0.9952 0.0205v -0.2257 c 0.0000,-0.0205 0.0103,-0.0718 0.0718 -0.0718h 0.2770 c 0.3180,-0.0000 0.3488,-0.1334 0.3488 -0.4309v -0.8515 h -2.0108 c -0.0410,-0.0000 -0.0616,-0.0205 -0.0923 -0.0616l -0.0821,-0.1129 l -0.1231,-0.2154 c -0.0103,-0.0000 -0.0103,-0.0103 -0.0103 -0.0205c 0.0000,-0.0103 0.0103,-0.0205 0.0205 -0.0308c 0.6669,-0.7387 1.8467,-3.0265 2.2160 -3.8678c 0.0103,-0.0410 0.0308,-0.0513 0.0718 -0.0513c 0.0103,-0.0000 0.2360,0.0923 0.3591 0.1129c -0.4617,1.2414 -1.2209,2.5751 -1.9698 3.7652h 1.6210 v -1.5902 Z"/></g><g stroke-linejoin="miter" stroke-opacity="0.6" fill-opacity="0.0" stroke="rgb(0,0,0)" stroke-width="1.2396036082618596" fill="rgb(0,0,0)" stroke-linecap="butt" stroke-miterlimit="10.0"><path d="M 32.0818,77.4443 h 4.6398 "/></g><g stroke-linejoin="miter" stroke-opacity="1.0" fill-opacity="0.6" stroke="rgb(0,0,0)" fill-rule="evenodd" stroke-width="0.0" fill="rgb(0,0,0)" stroke-linecap="butt" stroke-miterlimit="10.0"><path d="M 18.5279,96.0034 ZM 20.7747,90.4325 c -0.4412,-0.0000 -1.0875,0.4309 -1.0875 2.8213c 0.0000,0.8413 0.1539,2.5341 1.0567 2.5341c 0.1744,-0.0000 0.6669,-0.1129 0.8823 -0.9131c 0.1334,-0.4924 0.2052,-1.1080 0.2052 -2.0006c 0.0000,-1.3029 -0.3283,-2.0313 -0.6258 -2.2878c -0.1129,-0.1026 -0.2667,-0.1539 -0.4309 -0.1539ZM 20.7747,90.4325 ZM 20.7337,96.1265 c -1.0977,-0.0000 -1.8364,-1.4055 -1.8364 -2.9752c 0.0000,-1.9185 0.9131,-3.0778 1.8775 -3.0778c 0.4412,-0.0000 0.8823,0.2770 1.1798 0.6771c 0.4309,0.5745 0.6566,1.3440 0.6566 2.3083c 0.0000,2.2776 -1.1285,3.0675 -1.8775 3.0675ZM 23.0215,96.0034 ZM 23.6063,95.5827 c 0.0000,-0.2975 0.2462,-0.5437 0.5437 -0.5437c 0.2975,-0.0000 0.5437,0.2462 0.5437 0.5437c 0.0000,0.2975 -0.2462,0.5437 -0.5437 0.5437c -0.2975,-0.0000 -0.5437,-0.2462 -0.5437 -0.5437ZM 25.2683,96.0034 ZM 27.4843,90.3915 c -0.2565,-0.0000 -1.0054,0.1436 -1.0054 0.7694c 0.0000,0.1847 -0.0718,0.5027 -0.3488 0.5027c -0.2667,-0.0000 -0.2873,-0.2975 -0.2873 -0.3283c 0.0000,-0.3180 0.4206,-1.2619 1.8467 -1.2619c 0.9952,-0.0000 1.2927,0.6258 1.2927 1.0362c 0.0000,0.2565 -0.0821,0.7694 -1.0054 1.3542c 0.5745,0.0923 1.3337,0.5130 1.3337 1.5799c 0.0000,1.3542 -1.0259,2.0826 -2.1852 2.0826c -0.5848,-0.0000 -1.4055,-0.2565 -1.4055 -0.6463c 0.0000,-0.1539 0.1539,-0.3283 0.3591 -0.3283c 0.1949,-0.0000 0.2873,0.1026 0.3796 0.2360c 0.1129,0.1744 0.2975,0.4206 0.7900 0.4206c 0.3386,-0.0000 1.3029,-0.3386 1.3029 -1.6312c 0.0000,-1.0977 -0.7694,-1.2722 -1.3235 -1.2722c -0.0923,-0.0000 -0.2052,0.0205 -0.3180 0.0410l -0.0410,-0.3078 c 0.7900,-0.1334 1.4466,-0.9028 1.4466 -1.3747c 0.0000,-0.5848 -0.4104,-0.8720 -0.8310 -0.8720Z"/></g><g stroke-linejoin="miter" stroke-opacity="0.6" fill-opacity="0.0" stroke="rgb(0,0,0)" stroke-width="1.2396036082618596" fill="rgb(0,0,0)" stroke-linecap="butt" stroke-miterlimit="10.0"><path d="M 32.0818,92.9102 h 4.6398 "/></g><g stroke-linejoin="miter" stroke-opacity="1.0" fill-opacity="0.6" stroke="rgb(0,0,0)" fill-rule="evenodd" stroke-width="0.0" fill="rgb(0,0,0)" stroke-linecap="butt" stroke-miterlimit="10.0"><path d="M 18.5279,111.4693 ZM 20.7747,105.8985 c -0.4412,-0.0000 -1.0875,0.4309 -1.0875 2.8213c 0.0000,0.8413 0.1539,2.5341 1.0567 2.5341c 0.1744,-0.0000 0.6669,-0.1129 0.8823 -0.9131c 0.1334,-0.4924 0.2052,-1.1080 0.2052 -2.0006c 0.0000,-1.3029 -0.3283,-2.0313 -0.6258 -2.2878c -0.1129,-0.1026 -0.2667,-0.1539 -0.4309 -0.1539ZM 20.7747,105.8985 ZM 20.7337,111.5924 c -1.0977,-0.0000 -1.8364,-1.4055 -1.8364 -2.9752c 0.0000,-1.9185 0.9131,-3.0778 1.8775 -3.0778c 0.4412,-0.0000 0.8823,0.2770 1.1798 0.6771c 0.4309,0.5745 0.6566,1.3440 0.6566 2.3083c 0.0000,2.2776 -1.1285,3.0675 -1.8775 3.0675ZM 23.0215,111.4693 ZM 23.6063,111.0486 c 0.0000,-0.2975 0.2462,-0.5437 0.5437 -0.5437c 0.2975,-0.0000 0.5437,0.2462 0.5437 0.5437c 0.0000,0.2975 -0.2462,0.5437 -0.5437 0.5437c -0.2975,-0.0000 -0.5437,-0.2462 -0.5437 -0.5437ZM 25.2683,111.4693 ZM 25.8634,106.9244 c 0.0000,-0.5848 0.5643,-1.3850 1.6415 -1.3850c 0.7900,-0.0000 1.7133,0.2975 1.7133 1.4773c 0.0000,0.7797 -0.4001,1.1696 -0.9541 1.7030l -0.9746,0.9439 c -0.0513,0.0513 -0.7387,0.7284 -0.7387 1.2106h 1.7441 c 0.3488,-0.0000 0.5335,-0.1744 0.6771 -0.7387l 0.2565,0.0410 l -0.2052,1.2927 h -3.1701 c 0.0000,-0.5745 0.0923,-1.0157 1.0465 -1.9903l 0.7182,-0.7079 c 0.5745,-0.5848 0.8105,-1.0875 0.8105 -1.7133c 0.0000,-0.9336 -0.6361,-1.2003 -0.9849 -1.2003c -0.7079,-0.0000 -0.9028,0.3693 -0.9028 0.6156c 0.0000,0.0821 0.0205,0.1641 0.0410 0.2360c 0.0205,0.0718 0.0410,0.1436 0.0410 0.2257c 0.0000,0.2667 -0.2052,0.3693 -0.3693 0.3693c -0.2257,-0.0000 -0.3899,-0.1744 -0.3899 -0.3796Z"/></g><g stroke-linejoin="miter" stroke-opacity="0.6" fill-opacity="0.0" stroke="rgb(0,0,0)" stroke-width="1.2396036082618596" fill="rgb(0,0,0)" stroke-linecap="butt" stroke-miterlimit="10.0"><path d="M 32.0818,108.3761 h 4.6398 "/></g><g stroke-linejoin="miter" stroke-opacity="1.0" fill-opacity="0.6" stroke="rgb(0,0,0)" fill-rule="evenodd" stroke-width="0.0" fill="rgb(0,0,0)" stroke-linecap="butt" stroke-miterlimit="10.0"><path d="M 18.5279,126.9352 ZM 20.7747,121.3644 c -0.4412,-0.0000 -1.0875,0.4309 -1.0875 2.8213c 0.0000,0.8413 0.1539,2.5341 1.0567 2.5341c 0.1744,-0.0000 0.6669,-0.1129 0.8823 -0.9131c 0.1334,-0.4924 0.2052,-1.1080 0.2052 -2.0006c 0.0000,-1.3029 -0.3283,-2.0313 -0.6258 -2.2878c -0.1129,-0.1026 -0.2667,-0.1539 -0.4309 -0.1539ZM 20.7747,121.3644 ZM 20.7337,127.0583 c -1.0977,-0.0000 -1.8364,-1.4055 -1.8364 -2.9752c 0.0000,-1.9185 0.9131,-3.0778 1.8775 -3.0778c 0.4412,-0.0000 0.8823,0.2770 1.1798 0.6771c 0.4309,0.5745 0.6566,1.3440 0.6566 2.3083c 0.0000,2.2776 -1.1285,3.0675 -1.8775 3.0675ZM 23.0215,126.9352 ZM 23.6063,126.5146 c 0.0000,-0.2975 0.2462,-0.5437 0.5437 -0.5437c 0.2975,-0.0000 0.5437,0.2462 0.5437 0.5437c 0.0000,0.2975 -0.2462,0.5437 -0.5437 0.5437c -0.2975,-0.0000 -0.5437,-0.2462 -0.5437 -0.5437ZM 25.2683,126.9352 ZM 27.1971,122.0415 c -0.1949,-0.0000 -0.6463,0.1847 -0.8720 0.2873l -0.1231,-0.3180 c 0.9028,-0.4206 1.2516,-0.6361 1.7646 -1.0054h 0.1949 v 5.1604 c 0.0000,0.3693 0.0513,0.4719 0.3899 0.4719h 0.5335 c 0.0308,-0.0000 0.0821,0.0205 0.0821 0.0821v 0.2257 l -1.4055,-0.0205 l -1.4260,0.0205 v -0.2257 c 0.0103,-0.0308 0.0205,-0.0821 0.0821 -0.0821h 0.6156 c 0.3899,-0.0000 0.3899,-0.1744 0.3899 -0.4719v -3.5292 c 0.0000,-0.3488 0.0000,-0.5950 -0.2257 -0.5950Z"/></g><g stroke-linejoin="miter" stroke-opacity="0.6" fill-opacity="0.0" stroke="rgb(0,0,0)" stroke-width="1.2396036082618596" fill="rgb(0,0,0)" stroke-linecap="butt" stroke-miterlimit="10.0"><path d="M 32.0818,123.8420 h 4.6398 "/></g><g stroke-linejoin="miter" stroke-opacity="1.0" fill-opacity="0.6" stroke="rgb(0,0,0)" fill-rule="evenodd" stroke-width="0.0" fill="rgb(0,0,0)" stroke-linecap="butt" stroke-miterlimit="10.0"><path d="M 18.5279,142.4011 ZM 20.7747,136.8303 c -0.4412,-0.0000 -1.0875,0.4309 -1.0875 2.8213c 0.0000,0.8413 0.1539,2.5341 1.0567 2.5341c 0.1744,-0.0000 0.6669,-0.1129 0.8823 -0.9131c 0.1334,-0.4924 0.2052,-1.1080 0.2052 -2.0006c 0.0000,-1.3029 -0.3283,-2.0313 -0.6258 -2.2878c -0.1129,-0.1026 -0.2667,-0.1539 -0.4309 -0.1539ZM 20.7747,136.8303 ZM 20.7337,142.5242 c -1.0977,-0.0000 -1.8364,-1.4055 -1.8364 -2.9752c 0.0000,-1.9185 0.9131,-3.0778 1.8775 -3.0778c 0.4412,-0.0000 0.8823,0.2770 1.1798 0.6771c 0.4309,0.5745 0.6566,1.3440 0.6566 2.3083c 0.0000,2.2776 -1.1285,3.0675 -1.8775 3.0675ZM 23.0215,142.4011 ZM 23.6063,141.9805 c 0.0000,-0.2975 0.2462,-0.5437 0.5437 -0.5437c 0.2975,-0.0000 0.5437,0.2462 0.5437 0.5437c 0.0000,0.2975 -0.2462,0.5437 -0.5437 0.5437c -0.2975,-0.0000 -0.5437,-0.2462 -0.5437 -0.5437ZM 25.2683,142.4011 ZM 27.5151,136.8303 c -0.4412,-0.0000 -1.0875,0.4309 -1.0875 2.8213c 0.0000,0.8413 0.1539,2.5341 1.0567 2.5341c 0.1744,-0.0000 0.6669,-0.1129 0.8823 -0.9131c 0.1334,-0.4924 0.2052,-1.1080 0.2052 -2.0006c 0.0000,-1.3029 -0.3283,-2.0313 -0.6258 -2.2878c -0.1129,-0.1026 -0.2667,-0.1539 -0.4309 -0.1539ZM 27.5151,136.8303 ZM 27.4741,142.5242 c -1.0977,-0.0000 -1.8364,-1.4055 -1.8364 -2.9752c 0.0000,-1.9185 0.9131,-3.0778 1.8775 -3.0778c 0.4412,-0.0000 0.8823,0.2770 1.1798 0.6771c 0.4309,0.5745 0.6566,1.3440 0.6566 2.3083c 0.0000,2.2776 -1.1285,3.0675 -1.8775 3.0675Z"/></g><g stroke-linejoin="miter" stroke-opacity="0.6" fill-opacity="0.0" stroke="rgb(0,0,0)" stroke-width="1.2396036082618596" fill="rgb(0,0,0)" stroke-linecap="butt" stroke-miterlimit="10.0"><path d="M 32.0818,139.3079 h 4.6398 "/></g><g stroke-linejoin="miter" stroke-opacity="1.0" fill-opacity="0.6" stroke="rgb(0,0,0)" fill-rule="evenodd" stroke-width="0.0" fill="rgb(0,0,0)" stroke-linecap="butt" stroke-miterlimit="10.0"><path d="M 15.1116,157.8670 ZM 17.9226,155.4458 h -2.3186 c -0.0923,-0.0000 -0.1539,-0.0821 -0.1539 -0.1744c 0.0000,-0.1641 0.1334,-0.3796 0.2565 -0.3796h 2.3494 c 0.1026,-0.0000 0.1436,0.0923 0.1436 0.1847c 0.0000,0.1129 -0.1436,0.3693 -0.2770 0.3693ZM 18.5279,157.8670 ZM 20.7747,152.2962 c -0.4412,-0.0000 -1.0875,0.4309 -1.0875 2.8213c 0.0000,0.8413 0.1539,2.5341 1.0567 2.5341c 0.1744,-0.0000 0.6669,-0.1129 0.8823 -0.9131c 0.1334,-0.4924 0.2052,-1.1080 0.2052 -2.0006c 0.0000,-1.3029 -0.3283,-2.0313 -0.6258 -2.2878c -0.1129,-0.1026 -0.2667,-0.1539 -0.4309 -0.1539ZM 20.7747,152.2962 ZM 20.7337,157.9901 c -1.0977,-0.0000 -1.8364,-1.4055 -1.8364 -2.9752c 0.0000,-1.9185 0.9131,-3.0778 1.8775 -3.0778c 0.4412,-0.0000 0.8823,0.2770 1.1798 0.6771c 0.4309,0.5745 0.6566,1.3440 0.6566 2.3083c 0.0000,2.2776 -1.1285,3.0675 -1.8775 3.0675ZM 23.0215,157.8670 ZM 23.6063,157.4464 c 0.0000,-0.2975 0.2462,-0.5437 0.5437 -0.5437c 0.2975,-0.0000 0.5437,0.2462 0.5437 0.5437c 0.0000,0.2975 -0.2462,0.5437 -0.5437 0.5437c -0.2975,-0.0000 -0.5437,-0.2462 -0.5437 -0.5437ZM 25.2683,157.8670 ZM 27.1971,152.9733 c -0.1949,-0.0000 -0.6463,0.1847 -0.8720 0.2873l -0.1231,-0.3180 c 0.9028,-0.4206 1.2516,-0.6361 1.7646 -1.0054h 0.1949 v 5.1604 c 0.0000,0.3693 0.0513,0.4719 0.3899 0.4719h 0.5335 c 0.0308,-0.0000 0.0821,0.0205 0.0821 0.0821v 0.2257 l -1.4055,-0.0205 l -1.4260,0.0205 v -0.2257 c 0.0103,-0.0308 0.0205,-0.0821 0.0821 -0.0821h 0.6156 c 0.3899,-0.0000 0.3899,-0.1744 0.3899 -0.4719v -3.5292 c 0.0000,-0.3488 0.0000,-0.5950 -0.2257 -0.5950Z"/></g><g stroke-linejoin="miter" stroke-opacity="0.6" fill-opacity="0.0" stroke="rgb(0,0,0)" stroke-width="1.2396036082618596" fill="rgb(0,0,0)" stroke-linecap="butt" stroke-miterlimit="10.0"><path d="M 32.0818,154.7739 h 4.6398 "/></g><g stroke-linejoin="miter" stroke-opacity="1.0" fill-opacity="0.6" stroke="rgb(0,0,0)" fill-rule="evenodd" stroke-width="0.0" fill="rgb(0,0,0)" stroke-linecap="butt" stroke-miterlimit="10.0"><path d="M 15.1116,173.3330 ZM 17.9226,170.9118 h -2.3186 c -0.0923,-0.0000 -0.1539,-0.0821 -0.1539 -0.1744c 0.0000,-0.1641 0.1334,-0.3796 0.2565 -0.3796h 2.3494 c 0.1026,-0.0000 0.1436,0.0923 0.1436 0.1847c 0.0000,0.1129 -0.1436,0.3693 -0.2770 0.3693ZM 18.5279,173.3330 ZM 20.7747,167.7621 c -0.4412,-0.0000 -1.0875,0.4309 -1.0875 2.8213c 0.0000,0.8413 0.1539,2.5341 1.0567 2.5341c 0.1744,-0.0000 0.6669,-0.1129 0.8823 -0.9131c 0.1334,-0.4924 0.2052,-1.1080 0.2052 -2.0006c 0.0000,-1.3029 -0.3283,-2.0313 -0.6258 -2.2878c -0.1129,-0.1026 -0.2667,-0.1539 -0.4309 -0.1539ZM 20.7747,167.7621 ZM 20.7337,173.4561 c -1.0977,-0.0000 -1.8364,-1.4055 -1.8364 -2.9752c 0.0000,-1.9185 0.9131,-3.0778 1.8775 -3.0778c 0.4412,-0.0000 0.8823,0.2770 1.1798 0.6771c 0.4309,0.5745 0.6566,1.3440 0.6566 2.3083c 0.0000,2.2776 -1.1285,3.0675 -1.8775 3.0675ZM 23.0215,173.3330 ZM 23.6063,172.9123 c 0.0000,-0.2975 0.2462,-0.5437 0.5437 -0.5437c 0.2975,-0.0000 0.5437,0.2462 0.5437 0.5437c 0.0000,0.2975 -0.2462,0.5437 -0.5437 0.5437c -0.2975,-0.0000 -0.5437,-0.2462 -0.5437 -0.5437ZM 25.2683,173.3330 ZM 25.8634,168.7881 c 0.0000,-0.5848 0.5643,-1.3850 1.6415 -1.3850c 0.7900,-0.0000 1.7133,0.2975 1.7133 1.4773c 0.0000,0.7797 -0.4001,1.1696 -0.9541 1.7030l -0.9746,0.9439 c -0.0513,0.0513 -0.7387,0.7284 -0.7387 1.2106h 1.7441 c 0.3488,-0.0000 0.5335,-0.1744 0.6771 -0.7387l 0.2565,0.0410 l -0.2052,1.2927 h -3.1701 c 0.0000,-0.5745 0.0923,-1.0157 1.0465 -1.9903l 0.7182,-0.7079 c 0.5745,-0.5848 0.8105,-1.0875 0.8105 -1.7133c 0.0000,-0.9336 -0.6361,-1.2003 -0.9849 -1.2003c -0.7079,-0.0000 -0.9028,0.3693 -0.9028 0.6156c 0.0000,0.0821 0.0205,0.1641 0.0410 0.2360c 0.0205,0.0718 0.0410,0.1436 0.0410 0.2257c 0.0000,0.2667 -0.2052,0.3693 -0.3693 0.3693c -0.2257,-0.0000 -0.3899,-0.1744 -0.3899 -0.3796Z"/></g><g stroke-linejoin="miter" stroke-opacity="0.6" fill-opacity="0.0" stroke="rgb(0,0,0)" stroke-width="1.2396036082618596" fill="rgb(0,0,0)" stroke-linecap="butt" stroke-miterlimit="10.0"><path d="M 32.0818,170.2398 h 4.6398 "/></g><g stroke-linejoin="miter" stroke-opacity="1.0" fill-opacity="0.6" stroke="rgb(0,0,0)" fill-rule="evenodd" stroke-width="0.0" fill="rgb(0,0,0)" stroke-linecap="butt" stroke-miterlimit="10.0"><path d="M 15.1116,188.7989 ZM 17.9226,186.3777 h -2.3186 c -0.0923,-0.0000 -0.1539,-0.0821 -0.1539 -0.1744c 0.0000,-0.1641 0.1334,-0.3796 0.2565 -0.3796h 2.3494 c 0.1026,-0.0000 0.1436,0.0923 0.1436 0.1847c 0.0000,0.1129 -0.1436,0.3693 -0.2770 0.3693ZM 18.5279,188.7989 ZM 20.7747,183.2281 c -0.4412,-0.0000 -1.0875,0.4309 -1.0875 2.8213c 0.0000,0.8413 0.1539,2.5341 1.0567 2.5341c 0.1744,-0.0000 0.6669,-0.1129 0.8823 -0.9131c 0.1334,-0.4924 0.2052,-1.1080 0.2052 -2.0006c 0.0000,-1.3029 -0.3283,-2.0313 -0.6258 -2.2878c -0.1129,-0.1026 -0.2667,-0.1539 -0.4309 -0.1539ZM 20.7747,183.2281 ZM 20.7337,188.9220 c -1.0977,-0.0000 -1.8364,-1.4055 -1.8364 -2.9752c 0.0000,-1.9185 0.9131,-3.0778 1.8775 -3.0778c 0.4412,-0.0000 0.8823,0.2770 1.1798 0.6771c 0.4309,0.5745 0.6566,1.3440 0.6566 2.3083c 0.0000,2.2776 -1.1285,3.0675 -1.8775 3.0675ZM 23.0215,188.7989 ZM 23.6063,188.3782 c 0.0000,-0.2975 0.2462,-0.5437 0.5437 -0.5437c 0.2975,-0.0000 0.5437,0.2462 0.5437 0.5437c 0.0000,0.2975 -0.2462,0.5437 -0.5437 0.5437c -0.2975,-0.0000 -0.5437,-0.2462 -0.5437 -0.5437ZM 25.2683,188.7989 ZM 27.4843,183.1870 c -0.2565,-0.0000 -1.0054,0.1436 -1.0054 0.7694c 0.0000,0.1847 -0.0718,0.5027 -0.3488 0.5027c -0.2667,-0.0000 -0.2873,-0.2975 -0.2873 -0.3283c 0.0000,-0.3180 0.4206,-1.2619 1.8467 -1.2619c 0.9952,-0.0000 1.2927,0.6258 1.2927 1.0362c 0.0000,0.2565 -0.0821,0.7694 -1.0054 1.3542c 0.5745,0.0923 1.3337,0.5130 1.3337 1.5799c 0.0000,1.3542 -1.0259,2.0826 -2.1852 2.0826c -0.5848,-0.0000 -1.4055,-0.2565 -1.4055 -0.6463c 0.0000,-0.1539 0.1539,-0.3283 0.3591 -0.3283c 0.1949,-0.0000 0.2873,0.1026 0.3796 0.2360c 0.1129,0.1744 0.2975,0.4206 0.7900 0.4206c 0.3386,-0.0000 1.3029,-0.3386 1.3029 -1.6312c 0.0000,-1.0977 -0.7694,-1.2722 -1.3235 -1.2722c -0.0923,-0.0000 -0.2052,0.0205 -0.3180 0.0410l -0.0410,-0.3078 c 0.7900,-0.1334 1.4466,-0.9028 1.4466 -1.3747c 0.0000,-0.5848 -0.4104,-0.8720 -0.8310 -0.8720Z"/></g><g stroke-linejoin="miter" stroke-opacity="0.6" fill-opacity="0.0" stroke="rgb(0,0,0)" stroke-width="1.2396036082618596" fill="rgb(0,0,0)" stroke-linecap="butt" stroke-miterlimit="10.0"><path d="M 32.0818,185.7057 h 4.6398 "/></g><g stroke-linejoin="miter" stroke-opacity="1.0" fill-opacity="0.6" stroke="rgb(0,0,0)" fill-rule="evenodd" stroke-width="0.0" fill="rgb(0,0,0)" stroke-linecap="butt" stroke-miterlimit="10.0"><path d="M 15.1116,204.2648 ZM 17.9226,201.8436 h -2.3186 c -0.0923,-0.0000 -0.1539,-0.0821 -0.1539 -0.1744c 0.0000,-0.1641 0.1334,-0.3796 0.2565 -0.3796h 2.3494 c 0.1026,-0.0000 0.1436,0.0923 0.1436 0.1847c 0.0000,0.1129 -0.1436,0.3693 -0.2770 0.3693ZM 18.5279,204.2648 ZM 20.7747,198.6940 c -0.4412,-0.0000 -1.0875,0.4309 -1.0875 2.8213c 0.0000,0.8413 0.1539,2.5341 1.0567 2.5341c 0.1744,-0.0000 0.6669,-0.1129 0.8823 -0.9131c 0.1334,-0.4924 0.2052,-1.1080 0.2052 -2.0006c 0.0000,-1.3029 -0.3283,-2.0313 -0.6258 -2.2878c -0.1129,-0.1026 -0.2667,-0.1539 -0.4309 -0.1539ZM 20.7747,198.6940 ZM 20.7337,204.3879 c -1.0977,-0.0000 -1.8364,-1.4055 -1.8364 -2.9752c 0.0000,-1.9185 0.9131,-3.0778 1.8775 -3.0778c 0.4412,-0.0000 0.8823,0.2770 1.1798 0.6771c 0.4309,0.5745 0.6566,1.3440 0.6566 2.3083c 0.0000,2.2776 -1.1285,3.0675 -1.8775 3.0675ZM 23.0215,204.2648 ZM 23.6063,203.8442 c 0.0000,-0.2975 0.2462,-0.5437 0.5437 -0.5437c 0.2975,-0.0000 0.5437,0.2462 0.5437 0.5437c 0.0000,0.2975 -0.2462,0.5437 -0.5437 0.5437c -0.2975,-0.0000 -0.5437,-0.2462 -0.5437 -0.5437ZM 25.2683,204.2648 ZM 27.9152,200.6227 c 0.0000,-0.0718 0.0103,-0.1539 0.1026 -0.2052c 0.1129,-0.0821 0.2975,-0.1744 0.4514 -0.1744c 0.1334,-0.0000 0.1436,0.1129 0.1436 0.3180v 1.6518 h 0.8310 l -0.0616,0.4822 h -0.7694 v 0.8515 c 0.0000,0.2873 0.0410,0.4309 0.3386 0.4309h 0.2770 c 0.0616,-0.0000 0.0718,0.0513 0.0718 0.0718v 0.2257 c 0.0000,-0.0000 -0.6566,-0.0205 -1.0875 -0.0205c -0.3899,-0.0000 -0.9952,0.0205 -0.9952 0.0205v -0.2257 c 0.0000,-0.0205 0.0103,-0.0718 0.0718 -0.0718h 0.2770 c 0.3180,-0.0000 0.3488,-0.1334 0.3488 -0.4309v -0.8515 h -2.0108 c -0.0410,-0.0000 -0.0616,-0.0205 -0.0923 -0.0616l -0.0821,-0.1129 l -0.1231,-0.2154 c -0.0103,-0.0000 -0.0103,-0.0103 -0.0103 -0.0205c 0.0000,-0.0103 0.0103,-0.0205 0.0205 -0.0308c 0.6669,-0.7387 1.8467,-3.0265 2.2160 -3.8678c 0.0103,-0.0410 0.0308,-0.0513 0.0718 -0.0513c 0.0103,-0.0000 0.2360,0.0923 0.3591 0.1129c -0.4617,1.2414 -1.2209,2.5751 -1.9698 3.7652h 1.6210 v -1.5902 Z"/></g><g stroke-linejoin="miter" stroke-opacity="0.6" fill-opacity="0.0" stroke="rgb(0,0,0)" stroke-width="1.2396036082618596" fill="rgb(0,0,0)" stroke-linecap="butt" stroke-miterlimit="10.0"><path d="M 32.0818,201.1716 h 4.6398 "/></g><g stroke-linejoin="miter" stroke-opacity="1.0" fill-opacity="0.6" stroke="rgb(0,0,0)" fill-rule="evenodd" stroke-width="0.0" fill="rgb(0,0,0)" stroke-linecap="butt" stroke-miterlimit="10.0"><path d="M 15.1116,219.7307 ZM 17.9226,217.3095 h -2.3186 c -0.0923,-0.0000 -0.1539,-0.0821 -0.1539 -0.1744c 0.0000,-0.1641 0.1334,-0.3796 0.2565 -0.3796h 2.3494 c 0.1026,-0.0000 0.1436,0.0923 0.1436 0.1847c 0.0000,0.1129 -0.1436,0.3693 -0.2770 0.3693ZM 18.5279,219.7307 ZM 20.7747,214.1599 c -0.4412,-0.0000 -1.0875,0.4309 -1.0875 2.8213c 0.0000,0.8413 0.1539,2.5341 1.0567 2.5341c 0.1744,-0.0000 0.6669,-0.1129 0.8823 -0.9131c 0.1334,-0.4924 0.2052,-1.1080 0.2052 -2.0006c 0.0000,-1.3029 -0.3283,-2.0313 -0.6258 -2.2878c -0.1129,-0.1026 -0.2667,-0.1539 -0.4309 -0.1539ZM 20.7747,214.1599 ZM 20.7337,219.8538 c -1.0977,-0.0000 -1.8364,-1.4055 -1.8364 -2.9752c 0.0000,-1.9185 0.9131,-3.0778 1.8775 -3.0778c 0.4412,-0.0000 0.8823,0.2770 1.1798 0.6771c 0.4309,0.5745 0.6566,1.3440 0.6566 2.3083c 0.0000,2.2776 -1.1285,3.0675 -1.8775 3.0675ZM 23.0215,219.7307 ZM 23.6063,219.3101 c 0.0000,-0.2975 0.2462,-0.5437 0.5437 -0.5437c 0.2975,-0.0000 0.5437,0.2462 0.5437 0.5437c 0.0000,0.2975 -0.2462,0.5437 -0.5437 0.5437c -0.2975,-0.0000 -0.5437,-0.2462 -0.5437 -0.5437ZM 25.2683,219.7307 ZM 28.4384,217.9969 c 0.0000,-1.0567 -0.5745,-1.5799 -1.2106 -1.5799c -0.4719,-0.0000 -0.8310,0.0718 -1.2311 0.2360l 0.3283,-2.8008 c 0.3386,0.0308 0.6874,0.0410 1.0465 0.0410c 0.5130,-0.0000 1.0465,-0.0308 1.6005 -0.0923l 0.0616,0.0308 l -0.1539,0.6669 c -0.4001,0.0410 -0.7284,0.0513 -1.0157 0.0513c -0.4617,-0.0000 -0.8105,-0.0410 -1.1696 -0.0821l -0.1949,1.6210 c 0.2154,-0.0821 0.5848,-0.1539 0.9849 -0.1539c 1.0875,-0.0000 1.6928,0.9439 1.6928 1.8877c 0.0000,1.1490 -0.8002,2.0313 -1.9595 2.0313c -0.5848,-0.0000 -1.4363,-0.3283 -1.4363 -0.7284c 0.0000,-0.1949 0.1641,-0.3283 0.3488 -0.3283c 0.2052,-0.0000 0.3386,0.1539 0.4617 0.3180c 0.1539,0.1847 0.3180,0.3899 0.6463 0.3899c 0.6566,-0.0000 1.2003,-0.6156 1.2003 -1.5081Z"/></g><g stroke-linejoin="miter" stroke-opacity="0.6" fill-opacity="0.0" stroke="rgb(0,0,0)" stroke-width="1.2396036082618596" fill="rgb(0,0,0)" stroke-linecap="butt" stroke-miterlimit="10.0"><path d="M 32.0818,216.6375 h 4.6398 "/></g><g stroke-linejoin="miter" stroke-opacity="0.0" fill-opacity="0.1" stroke="rgb(0,0,0)" stroke-width="0.0" fill="rgb(0,0,0)" stroke-linecap="butt" stroke-miterlimit="10.0"><path d="M 282.2219,225.9171 l -0.0000,-3.0932 h -231.9888 l -0.0000,3.0932 Z"/></g><g stroke-linejoin="miter" stroke-opacity="1.0" fill-opacity="0.6" stroke="rgb(0,0,0)" fill-rule="evenodd" stroke-width="0.0" fill="rgb(0,0,0)" stroke-linecap="butt" stroke-miterlimit="10.0"><path d="M 276.6049,238.9554 ZM 278.8517,233.3846 c -0.4412,-0.0000 -1.0875,0.4309 -1.0875 2.8213c 0.0000,0.8413 0.1539,2.5341 1.0567 2.5341c 0.1744,-0.0000 0.6669,-0.1129 0.8823 -0.9131c 0.1334,-0.4924 0.2052,-1.1080 0.2052 -2.0006c 0.0000,-1.3029 -0.3283,-2.0313 -0.6258 -2.2878c -0.1129,-0.1026 -0.2667,-0.1539 -0.4309 -0.1539ZM 278.8517,233.3846 ZM 278.8107,239.0785 c -1.0977,-0.0000 -1.8364,-1.4055 -1.8364 -2.9752c 0.0000,-1.9185 0.9131,-3.0778 1.8775 -3.0778c 0.4412,-0.0000 0.8823,0.2770 1.1798 0.6771c 0.4309,0.5745 0.6566,1.3440 0.6566 2.3083c 0.0000,2.2776 -1.1285,3.0675 -1.8775 3.0675ZM 281.0985,238.9554 ZM 281.6833,238.5348 c 0.0000,-0.2975 0.2462,-0.5437 0.5437 -0.5437c 0.2975,-0.0000 0.5437,0.2462 0.5437 0.5437c 0.0000,0.2975 -0.2462,0.5437 -0.5437 0.5437c -0.2975,-0.0000 -0.5437,-0.2462 -0.5437 -0.5437ZM 283.3453,238.9554 ZM 286.5154,237.2216 c 0.0000,-1.0567 -0.5745,-1.5799 -1.2106 -1.5799c -0.4719,-0.0000 -0.8310,0.0718 -1.2311 0.2360l 0.3283,-2.8008 c 0.3386,0.0308 0.6874,0.0410 1.0465 0.0410c 0.5130,-0.0000 1.0465,-0.0308 1.6005 -0.0923l 0.0616,0.0308 l -0.1539,0.6669 c -0.4001,0.0410 -0.7284,0.0513 -1.0157 0.0513c -0.4617,-0.0000 -0.8105,-0.0410 -1.1696 -0.0821l -0.1949,1.6210 c 0.2154,-0.0821 0.5848,-0.1539 0.9849 -0.1539c 1.0875,-0.0000 1.6928,0.9439 1.6928 1.8877c 0.0000,1.1490 -0.8002,2.0313 -1.9595 2.0313c -0.5848,-0.0000 -1.4363,-0.3283 -1.4363 -0.7284c 0.0000,-0.1949 0.1641,-0.3283 0.3488 -0.3283c 0.2052,-0.0000 0.3386,0.1539 0.4617 0.3180c 0.1539,0.1847 0.3180,0.3899 0.6463 0.3899c 0.6566,-0.0000 1.2003,-0.6156 1.2003 -1.5081Z"/></g><g stroke-linejoin="miter" stroke-opacity="0.6" fill-opacity="0.0" stroke="rgb(0,0,0)" stroke-width="1.2396036082618596" fill="rgb(0,0,0)" stroke-linecap="butt" stroke-miterlimit="10.0"><path d="M 282.2219,222.8239 v 4.6398 "/></g><g stroke-linejoin="miter" stroke-opacity="1.0" fill-opacity="0.6" stroke="rgb(0,0,0)" fill-rule="evenodd" stroke-width="0.0" fill="rgb(0,0,0)" stroke-linecap="butt" stroke-miterlimit="10.0"><path d="M 253.4060,238.9554 ZM 255.6528,233.3846 c -0.4412,-0.0000 -1.0875,0.4309 -1.0875 2.8213c 0.0000,0.8413 0.1539,2.5341 1.0567 2.5341c 0.1744,-0.0000 0.6669,-0.1129 0.8823 -0.9131c 0.1334,-0.4924 0.2052,-1.1080 0.2052 -2.0006c 0.0000,-1.3029 -0.3283,-2.0313 -0.6258 -2.2878c -0.1129,-0.1026 -0.2667,-0.1539 -0.4309 -0.1539ZM 255.6528,233.3846 ZM 255.6118,239.0785 c -1.0977,-0.0000 -1.8364,-1.4055 -1.8364 -2.9752c 0.0000,-1.9185 0.9131,-3.0778 1.8775 -3.0778c 0.4412,-0.0000 0.8823,0.2770 1.1798 0.6771c 0.4309,0.5745 0.6566,1.3440 0.6566 2.3083c 0.0000,2.2776 -1.1285,3.0675 -1.8775 3.0675ZM 257.8996,238.9554 ZM 258.4844,238.5348 c 0.0000,-0.2975 0.2462,-0.5437 0.5437 -0.5437c 0.2975,-0.0000 0.5437,0.2462 0.5437 0.5437c 0.0000,0.2975 -0.2462,0.5437 -0.5437 0.5437c -0.2975,-0.0000 -0.5437,-0.2462 -0.5437 -0.5437ZM 260.1464,238.9554 ZM 262.7933,235.3133 c 0.0000,-0.0718 0.0103,-0.1539 0.1026 -0.2052c 0.1129,-0.0821 0.2975,-0.1744 0.4514 -0.1744c 0.1334,-0.0000 0.1436,0.1129 0.1436 0.3180v 1.6518 h 0.8310 l -0.0616,0.4822 h -0.7694 v 0.8515 c 0.0000,0.2873 0.0410,0.4309 0.3386 0.4309h 0.2770 c 0.0616,-0.0000 0.0718,0.0513 0.0718 0.0718v 0.2257 c 0.0000,-0.0000 -0.6566,-0.0205 -1.0875 -0.0205c -0.3899,-0.0000 -0.9952,0.0205 -0.9952 0.0205v -0.2257 c 0.0000,-0.0205 0.0103,-0.0718 0.0718 -0.0718h 0.2770 c 0.3180,-0.0000 0.3488,-0.1334 0.3488 -0.4309v -0.8515 h -2.0108 c -0.0410,-0.0000 -0.0616,-0.0205 -0.0923 -0.0616l -0.0821,-0.1129 l -0.1231,-0.2154 c -0.0103,-0.0000 -0.0103,-0.0103 -0.0103 -0.0205c 0.0000,-0.0103 0.0103,-0.0205 0.0205 -0.0308c 0.6669,-0.7387 1.8467,-3.0265 2.2160 -3.8678c 0.0103,-0.0410 0.0308,-0.0513 0.0718 -0.0513c 0.0103,-0.0000 0.2360,0.0923 0.3591 0.1129c -0.4617,1.2414 -1.2209,2.5751 -1.9698 3.7652h 1.6210 v -1.5902 Z"/></g><g stroke-linejoin="miter" stroke-opacity="0.6" fill-opacity="0.0" stroke="rgb(0,0,0)" stroke-width="1.2396036082618596" fill="rgb(0,0,0)" stroke-linecap="butt" stroke-miterlimit="10.0"><path d="M 259.0230,222.8239 v 4.6398 "/></g><g stroke-linejoin="miter" stroke-opacity="1.0" fill-opacity="0.6" stroke="rgb(0,0,0)" fill-rule="evenodd" stroke-width="0.0" fill="rgb(0,0,0)" stroke-linecap="butt" stroke-miterlimit="10.0"><path d="M 230.2071,238.9554 ZM 232.4539,233.3846 c -0.4412,-0.0000 -1.0875,0.4309 -1.0875 2.8213c 0.0000,0.8413 0.1539,2.5341 1.0567 2.5341c 0.1744,-0.0000 0.6669,-0.1129 0.8823 -0.9131c 0.1334,-0.4924 0.2052,-1.1080 0.2052 -2.0006c 0.0000,-1.3029 -0.3283,-2.0313 -0.6258 -2.2878c -0.1129,-0.1026 -0.2667,-0.1539 -0.4309 -0.1539ZM 232.4539,233.3846 ZM 232.4129,239.0785 c -1.0977,-0.0000 -1.8364,-1.4055 -1.8364 -2.9752c 0.0000,-1.9185 0.9131,-3.0778 1.8775 -3.0778c 0.4412,-0.0000 0.8823,0.2770 1.1798 0.6771c 0.4309,0.5745 0.6566,1.3440 0.6566 2.3083c 0.0000,2.2776 -1.1285,3.0675 -1.8775 3.0675ZM 234.7007,238.9554 ZM 235.2855,238.5348 c 0.0000,-0.2975 0.2462,-0.5437 0.5437 -0.5437c 0.2975,-0.0000 0.5437,0.2462 0.5437 0.5437c 0.0000,0.2975 -0.2462,0.5437 -0.5437 0.5437c -0.2975,-0.0000 -0.5437,-0.2462 -0.5437 -0.5437ZM 236.9475,238.9554 ZM 239.1635,233.3435 c -0.2565,-0.0000 -1.0054,0.1436 -1.0054 0.7694c 0.0000,0.1847 -0.0718,0.5027 -0.3488 0.5027c -0.2667,-0.0000 -0.2873,-0.2975 -0.2873 -0.3283c 0.0000,-0.3180 0.4206,-1.2619 1.8467 -1.2619c 0.9952,-0.0000 1.2927,0.6258 1.2927 1.0362c 0.0000,0.2565 -0.0821,0.7694 -1.0054 1.3542c 0.5745,0.0923 1.3337,0.5130 1.3337 1.5799c 0.0000,1.3542 -1.0259,2.0826 -2.1852 2.0826c -0.5848,-0.0000 -1.4055,-0.2565 -1.4055 -0.6463c 0.0000,-0.1539 0.1539,-0.3283 0.3591 -0.3283c 0.1949,-0.0000 0.2873,0.1026 0.3796 0.2360c 0.1129,0.1744 0.2975,0.4206 0.7900 0.4206c 0.3386,-0.0000 1.3029,-0.3386 1.3029 -1.6312c 0.0000,-1.0977 -0.7694,-1.2722 -1.3235 -1.2722c -0.0923,-0.0000 -0.2052,0.0205 -0.3180 0.0410l -0.0410,-0.3078 c 0.7900,-0.1334 1.4466,-0.9028 1.4466 -1.3747c 0.0000,-0.5848 -0.4104,-0.8720 -0.8310 -0.8720Z"/></g><g stroke-linejoin="miter" stroke-opacity="0.6" fill-opacity="0.0" stroke="rgb(0,0,0)" stroke-width="1.2396036082618596" fill="rgb(0,0,0)" stroke-linecap="butt" stroke-miterlimit="10.0"><path d="M 235.8241,222.8239 v 4.6398 "/></g><g stroke-linejoin="miter" stroke-opacity="1.0" fill-opacity="0.6" stroke="rgb(0,0,0)" fill-rule="evenodd" stroke-width="0.0" fill="rgb(0,0,0)" stroke-linecap="butt" stroke-miterlimit="10.0"><path d="M 207.0083,238.9554 ZM 209.2551,233.3846 c -0.4412,-0.0000 -1.0875,0.4309 -1.0875 2.8213c 0.0000,0.8413 0.1539,2.5341 1.0567 2.5341c 0.1744,-0.0000 0.6669,-0.1129 0.8823 -0.9131c 0.1334,-0.4924 0.2052,-1.1080 0.2052 -2.0006c 0.0000,-1.3029 -0.3283,-2.0313 -0.6258 -2.2878c -0.1129,-0.1026 -0.2667,-0.1539 -0.4309 -0.1539ZM 209.2551,233.3846 ZM 209.2140,239.0785 c -1.0977,-0.0000 -1.8364,-1.4055 -1.8364 -2.9752c 0.0000,-1.9185 0.9131,-3.0778 1.8775 -3.0778c 0.4412,-0.0000 0.8823,0.2770 1.1798 0.6771c 0.4309,0.5745 0.6566,1.3440 0.6566 2.3083c 0.0000,2.2776 -1.1285,3.0675 -1.8775 3.0675ZM 211.5018,238.9554 ZM 212.0866,238.5348 c 0.0000,-0.2975 0.2462,-0.5437 0.5437 -0.5437c 0.2975,-0.0000 0.5437,0.2462 0.5437 0.5437c 0.0000,0.2975 -0.2462,0.5437 -0.5437 0.5437c -0.2975,-0.0000 -0.5437,-0.2462 -0.5437 -0.5437ZM 213.7486,238.9554 ZM 214.3437,234.4105 c 0.0000,-0.5848 0.5643,-1.3850 1.6415 -1.3850c 0.7900,-0.0000 1.7133,0.2975 1.7133 1.4773c 0.0000,0.7797 -0.4001,1.1696 -0.9541 1.7030l -0.9746,0.9439 c -0.0513,0.0513 -0.7387,0.7284 -0.7387 1.2106h 1.7441 c 0.3488,-0.0000 0.5335,-0.1744 0.6771 -0.7387l 0.2565,0.0410 l -0.2052,1.2927 h -3.1701 c 0.0000,-0.5745 0.0923,-1.0157 1.0465 -1.9903l 0.7182,-0.7079 c 0.5745,-0.5848 0.8105,-1.0875 0.8105 -1.7133c 0.0000,-0.9336 -0.6361,-1.2003 -0.9849 -1.2003c -0.7079,-0.0000 -0.9028,0.3693 -0.9028 0.6156c 0.0000,0.0821 0.0205,0.1641 0.0410 0.2360c 0.0205,0.0718 0.0410,0.1436 0.0410 0.2257c 0.0000,0.2667 -0.2052,0.3693 -0.3693 0.3693c -0.2257,-0.0000 -0.3899,-0.1744 -0.3899 -0.3796Z"/></g><g stroke-linejoin="miter" stroke-opacity="0.6" fill-opacity="0.0" stroke="rgb(0,0,0)" stroke-width="1.2396036082618596" fill="rgb(0,0,0)" stroke-linecap="butt" stroke-miterlimit="10.0"><path d="M 212.6252,222.8239 v 4.6398 "/></g><g stroke-linejoin="miter" stroke-opacity="1.0" fill-opacity="0.6" stroke="rgb(0,0,0)" fill-rule="evenodd" stroke-width="0.0" fill="rgb(0,0,0)" stroke-linecap="butt" stroke-miterlimit="10.0"><path d="M 183.8094,238.9554 ZM 186.0562,233.3846 c -0.4412,-0.0000 -1.0875,0.4309 -1.0875 2.8213c 0.0000,0.8413 0.1539,2.5341 1.0567 2.5341c 0.1744,-0.0000 0.6669,-0.1129 0.8823 -0.9131c 0.1334,-0.4924 0.2052,-1.1080 0.2052 -2.0006c 0.0000,-1.3029 -0.3283,-2.0313 -0.6258 -2.2878c -0.1129,-0.1026 -0.2667,-0.1539 -0.4309 -0.1539ZM 186.0562,233.3846 ZM 186.0151,239.0785 c -1.0977,-0.0000 -1.8364,-1.4055 -1.8364 -2.9752c 0.0000,-1.9185 0.9131,-3.0778 1.8775 -3.0778c 0.4412,-0.0000 0.8823,0.2770 1.1798 0.6771c 0.4309,0.5745 0.6566,1.3440 0.6566 2.3083c 0.0000,2.2776 -1.1285,3.0675 -1.8775 3.0675ZM 188.3030,238.9554 ZM 188.8877,238.5348 c 0.0000,-0.2975 0.2462,-0.5437 0.5437 -0.5437c 0.2975,-0.0000 0.5437,0.2462 0.5437 0.5437c 0.0000,0.2975 -0.2462,0.5437 -0.5437 0.5437c -0.2975,-0.0000 -0.5437,-0.2462 -0.5437 -0.5437ZM 190.5498,238.9554 ZM 192.4785,234.0617 c -0.1949,-0.0000 -0.6463,0.1847 -0.8720 0.2873l -0.1231,-0.3180 c 0.9028,-0.4206 1.2516,-0.6361 1.7646 -1.0054h 0.1949 v 5.1604 c 0.0000,0.3693 0.0513,0.4719 0.3899 0.4719h 0.5335 c 0.0308,-0.0000 0.0821,0.0205 0.0821 0.0821v 0.2257 l -1.4055,-0.0205 l -1.4260,0.0205 v -0.2257 c 0.0103,-0.0308 0.0205,-0.0821 0.0821 -0.0821h 0.6156 c 0.3899,-0.0000 0.3899,-0.1744 0.3899 -0.4719v -3.5292 c 0.0000,-0.3488 0.0000,-0.5950 -0.2257 -0.5950Z"/></g><g stroke-linejoin="miter" stroke-opacity="0.6" fill-opacity="0.0" stroke="rgb(0,0,0)" stroke-width="1.2396036082618596" fill="rgb(0,0,0)" stroke-linecap="butt" stroke-miterlimit="10.0"><path d="M 189.4264,222.8239 v 4.6398 "/></g><g stroke-linejoin="miter" stroke-opacity="1.0" fill-opacity="0.6" stroke="rgb(0,0,0)" fill-rule="evenodd" stroke-width="0.0" fill="rgb(0,0,0)" stroke-linecap="butt" stroke-miterlimit="10.0"><path d="M 160.6105,238.9554 ZM 162.8573,233.3846 c -0.4412,-0.0000 -1.0875,0.4309 -1.0875 2.8213c 0.0000,0.8413 0.1539,2.5341 1.0567 2.5341c 0.1744,-0.0000 0.6669,-0.1129 0.8823 -0.9131c 0.1334,-0.4924 0.2052,-1.1080 0.2052 -2.0006c 0.0000,-1.3029 -0.3283,-2.0313 -0.6258 -2.2878c -0.1129,-0.1026 -0.2667,-0.1539 -0.4309 -0.1539ZM 162.8573,233.3846 ZM 162.8163,239.0785 c -1.0977,-0.0000 -1.8364,-1.4055 -1.8364 -2.9752c 0.0000,-1.9185 0.9131,-3.0778 1.8775 -3.0778c 0.4412,-0.0000 0.8823,0.2770 1.1798 0.6771c 0.4309,0.5745 0.6566,1.3440 0.6566 2.3083c 0.0000,2.2776 -1.1285,3.0675 -1.8775 3.0675ZM 165.1041,238.9554 ZM 165.6889,238.5348 c 0.0000,-0.2975 0.2462,-0.5437 0.5437 -0.5437c 0.2975,-0.0000 0.5437,0.2462 0.5437 0.5437c 0.0000,0.2975 -0.2462,0.5437 -0.5437 0.5437c -0.2975,-0.0000 -0.5437,-0.2462 -0.5437 -0.5437ZM 167.3509,238.9554 ZM 169.5977,233.3846 c -0.4412,-0.0000 -1.0875,0.4309 -1.0875 2.8213c 0.0000,0.8413 0.1539,2.5341 1.0567 2.5341c 0.1744,-0.0000 0.6669,-0.1129 0.8823 -0.9131c 0.1334,-0.4924 0.2052,-1.1080 0.2052 -2.0006c 0.0000,-1.3029 -0.3283,-2.0313 -0.6258 -2.2878c -0.1129,-0.1026 -0.2667,-0.1539 -0.4309 -0.1539ZM 169.5977,233.3846 ZM 169.5566,239.0785 c -1.0977,-0.0000 -1.8364,-1.4055 -1.8364 -2.9752c 0.0000,-1.9185 0.9131,-3.0778 1.8775 -3.0778c 0.4412,-0.0000 0.8823,0.2770 1.1798 0.6771c 0.4309,0.5745 0.6566,1.3440 0.6566 2.3083c 0.0000,2.2776 -1.1285,3.0675 -1.8775 3.0675Z"/></g><g stroke-linejoin="miter" stroke-opacity="0.6" fill-opacity="0.0" stroke="rgb(0,0,0)" stroke-width="1.2396036082618596" fill="rgb(0,0,0)" stroke-linecap="butt" stroke-miterlimit="10.0"><path d="M 166.2275,222.8239 v 4.6398 "/></g><g stroke-linejoin="miter" stroke-opacity="1.0" fill-opacity="0.6" stroke="rgb(0,0,0)" fill-rule="evenodd" stroke-width="0.0" fill="rgb(0,0,0)" stroke-linecap="butt" stroke-miterlimit="10.0"><path d="M 135.7034,238.9554 ZM 138.5145,236.5342 h -2.3186 c -0.0923,-0.0000 -0.1539,-0.0821 -0.1539 -0.1744c 0.0000,-0.1641 0.1334,-0.3796 0.2565 -0.3796h 2.3494 c 0.1026,-0.0000 0.1436,0.0923 0.1436 0.1847c 0.0000,0.1129 -0.1436,0.3693 -0.2770 0.3693ZM 139.1198,238.9554 ZM 141.3666,233.3846 c -0.4412,-0.0000 -1.0875,0.4309 -1.0875 2.8213c 0.0000,0.8413 0.1539,2.5341 1.0567 2.5341c 0.1744,-0.0000 0.6669,-0.1129 0.8823 -0.9131c 0.1334,-0.4924 0.2052,-1.1080 0.2052 -2.0006c 0.0000,-1.3029 -0.3283,-2.0313 -0.6258 -2.2878c -0.1129,-0.1026 -0.2667,-0.1539 -0.4309 -0.1539ZM 141.3666,233.3846 ZM 141.3256,239.0785 c -1.0977,-0.0000 -1.8364,-1.4055 -1.8364 -2.9752c 0.0000,-1.9185 0.9131,-3.0778 1.8775 -3.0778c 0.4412,-0.0000 0.8823,0.2770 1.1798 0.6771c 0.4309,0.5745 0.6566,1.3440 0.6566 2.3083c 0.0000,2.2776 -1.1285,3.0675 -1.8775 3.0675ZM 143.6134,238.9554 ZM 144.1982,238.5348 c 0.0000,-0.2975 0.2462,-0.5437 0.5437 -0.5437c 0.2975,-0.0000 0.5437,0.2462 0.5437 0.5437c 0.0000,0.2975 -0.2462,0.5437 -0.5437 0.5437c -0.2975,-0.0000 -0.5437,-0.2462 -0.5437 -0.5437ZM 145.8602,238.9554 ZM 147.7889,234.0617 c -0.1949,-0.0000 -0.6463,0.1847 -0.8720 0.2873l -0.1231,-0.3180 c 0.9028,-0.4206 1.2516,-0.6361 1.7646 -1.0054h 0.1949 v 5.1604 c 0.0000,0.3693 0.0513,0.4719 0.3899 0.4719h 0.5335 c 0.0308,-0.0000 0.0821,0.0205 0.0821 0.0821v 0.2257 l -1.4055,-0.0205 l -1.4260,0.0205 v -0.2257 c 0.0103,-0.0308 0.0205,-0.0821 0.0821 -0.0821h 0.6156 c 0.3899,-0.0000 0.3899,-0.1744 0.3899 -0.4719v -3.5292 c 0.0000,-0.3488 0.0000,-0.5950 -0.2257 -0.5950Z"/></g><g stroke-linejoin="miter" stroke-opacity="0.6" fill-opacity="0.0" stroke="rgb(0,0,0)" stroke-width="1.2396036082618596" fill="rgb(0,0,0)" stroke-linecap="butt" stroke-miterlimit="10.0"><path d="M 143.0286,222.8239 v 4.6398 "/></g><g stroke-linejoin="miter" stroke-opacity="1.0" fill-opacity="0.6" stroke="rgb(0,0,0)" fill-rule="evenodd" stroke-width="0.0" fill="rgb(0,0,0)" stroke-linecap="butt" stroke-miterlimit="10.0"><path d="M 112.5046,238.9554 ZM 115.3156,236.5342 h -2.3186 c -0.0923,-0.0000 -0.1539,-0.0821 -0.1539 -0.1744c 0.0000,-0.1641 0.1334,-0.3796 0.2565 -0.3796h 2.3494 c 0.1026,-0.0000 0.1436,0.0923 0.1436 0.1847c 0.0000,0.1129 -0.1436,0.3693 -0.2770 0.3693ZM 115.9209,238.9554 ZM 118.1677,233.3846 c -0.4412,-0.0000 -1.0875,0.4309 -1.0875 2.8213c 0.0000,0.8413 0.1539,2.5341 1.0567 2.5341c 0.1744,-0.0000 0.6669,-0.1129 0.8823 -0.9131c 0.1334,-0.4924 0.2052,-1.1080 0.2052 -2.0006c 0.0000,-1.3029 -0.3283,-2.0313 -0.6258 -2.2878c -0.1129,-0.1026 -0.2667,-0.1539 -0.4309 -0.1539ZM 118.1677,233.3846 ZM 118.1267,239.0785 c -1.0977,-0.0000 -1.8364,-1.4055 -1.8364 -2.9752c 0.0000,-1.9185 0.9131,-3.0778 1.8775 -3.0778c 0.4412,-0.0000 0.8823,0.2770 1.1798 0.6771c 0.4309,0.5745 0.6566,1.3440 0.6566 2.3083c 0.0000,2.2776 -1.1285,3.0675 -1.8775 3.0675ZM 120.4145,238.9554 ZM 120.9993,238.5348 c 0.0000,-0.2975 0.2462,-0.5437 0.5437 -0.5437c 0.2975,-0.0000 0.5437,0.2462 0.5437 0.5437c 0.0000,0.2975 -0.2462,0.5437 -0.5437 0.5437c -0.2975,-0.0000 -0.5437,-0.2462 -0.5437 -0.5437ZM 122.6613,238.9554 ZM 123.2563,234.4105 c 0.0000,-0.5848 0.5643,-1.3850 1.6415 -1.3850c 0.7900,-0.0000 1.7133,0.2975 1.7133 1.4773c 0.0000,0.7797 -0.4001,1.1696 -0.9541 1.7030l -0.9746,0.9439 c -0.0513,0.0513 -0.7387,0.7284 -0.7387 1.2106h 1.7441 c 0.3488,-0.0000 0.5335,-0.1744 0.6771 -0.7387l 0.2565,0.0410 l -0.2052,1.2927 h -3.1701 c 0.0000,-0.5745 0.0923,-1.0157 1.0465 -1.9903l 0.7182,-0.7079 c 0.5745,-0.5848 0.8105,-1.0875 0.8105 -1.7133c 0.0000,-0.9336 -0.6361,-1.2003 -0.9849 -1.2003c -0.7079,-0.0000 -0.9028,0.3693 -0.9028 0.6156c 0.0000,0.0821 0.0205,0.1641 0.0410 0.2360c 0.0205,0.0718 0.0410,0.1436 0.0410 0.2257c 0.0000,0.2667 -0.2052,0.3693 -0.3693 0.3693c -0.2257,-0.0000 -0.3899,-0.1744 -0.3899 -0.3796Z"/></g><g stroke-linejoin="miter" stroke-opacity="0.6" fill-opacity="0.0" stroke="rgb(0,0,0)" stroke-width="1.2396036082618596" fill="rgb(0,0,0)" stroke-linecap="butt" stroke-miterlimit="10.0"><path d="M 119.8297,222.8239 v 4.6398 "/></g><g stroke-linejoin="miter" stroke-opacity="1.0" fill-opacity="0.6" stroke="rgb(0,0,0)" fill-rule="evenodd" stroke-width="0.0" fill="rgb(0,0,0)" stroke-linecap="butt" stroke-miterlimit="10.0"><path d="M 89.3057,238.9554 ZM 92.1167,236.5342 h -2.3186 c -0.0923,-0.0000 -0.1539,-0.0821 -0.1539 -0.1744c 0.0000,-0.1641 0.1334,-0.3796 0.2565 -0.3796h 2.3494 c 0.1026,-0.0000 0.1436,0.0923 0.1436 0.1847c 0.0000,0.1129 -0.1436,0.3693 -0.2770 0.3693ZM 92.7220,238.9554 ZM 94.9688,233.3846 c -0.4412,-0.0000 -1.0875,0.4309 -1.0875 2.8213c 0.0000,0.8413 0.1539,2.5341 1.0567 2.5341c 0.1744,-0.0000 0.6669,-0.1129 0.8823 -0.9131c 0.1334,-0.4924 0.2052,-1.1080 0.2052 -2.0006c 0.0000,-1.3029 -0.3283,-2.0313 -0.6258 -2.2878c -0.1129,-0.1026 -0.2667,-0.1539 -0.4309 -0.1539ZM 94.9688,233.3846 ZM 94.9278,239.0785 c -1.0977,-0.0000 -1.8364,-1.4055 -1.8364 -2.9752c 0.0000,-1.9185 0.9131,-3.0778 1.8775 -3.0778c 0.4412,-0.0000 0.8823,0.2770 1.1798 0.6771c 0.4309,0.5745 0.6566,1.3440 0.6566 2.3083c 0.0000,2.2776 -1.1285,3.0675 -1.8775 3.0675ZM 97.2156,238.9554 ZM 97.8004,238.5348 c 0.0000,-0.2975 0.2462,-0.5437 0.5437 -0.5437c 0.2975,-0.0000 0.5437,0.2462 0.5437 0.5437c 0.0000,0.2975 -0.2462,0.5437 -0.5437 0.5437c -0.2975,-0.0000 -0.5437,-0.2462 -0.5437 -0.5437ZM 99.4624,238.9554 ZM 101.6784,233.3435 c -0.2565,-0.0000 -1.0054,0.1436 -1.0054 0.7694c 0.0000,0.1847 -0.0718,0.5027 -0.3488 0.5027c -0.2667,-0.0000 -0.2873,-0.2975 -0.2873 -0.3283c 0.0000,-0.3180 0.4206,-1.2619 1.8467 -1.2619c 0.9952,-0.0000 1.2927,0.6258 1.2927 1.0362c 0.0000,0.2565 -0.0821,0.7694 -1.0054 1.3542c 0.5745,0.0923 1.3337,0.5130 1.3337 1.5799c 0.0000,1.3542 -1.0259,2.0826 -2.1852 2.0826c -0.5848,-0.0000 -1.4055,-0.2565 -1.4055 -0.6463c 0.0000,-0.1539 0.1539,-0.3283 0.3591 -0.3283c 0.1949,-0.0000 0.2873,0.1026 0.3796 0.2360c 0.1129,0.1744 0.2975,0.4206 0.7900 0.4206c 0.3386,-0.0000 1.3029,-0.3386 1.3029 -1.6312c 0.0000,-1.0977 -0.7694,-1.2722 -1.3235 -1.2722c -0.0923,-0.0000 -0.2052,0.0205 -0.3180 0.0410l -0.0410,-0.3078 c 0.7900,-0.1334 1.4466,-0.9028 1.4466 -1.3747c 0.0000,-0.5848 -0.4104,-0.8720 -0.8310 -0.8720Z"/></g><g stroke-linejoin="miter" stroke-opacity="0.6" fill-opacity="0.0" stroke="rgb(0,0,0)" stroke-width="1.2396036082618596" fill="rgb(0,0,0)" stroke-linecap="butt" stroke-miterlimit="10.0"><path d="M 96.6308,222.8239 v 4.6398 "/></g><g stroke-linejoin="miter" stroke-opacity="1.0" fill-opacity="0.6" stroke="rgb(0,0,0)" fill-rule="evenodd" stroke-width="0.0" fill="rgb(0,0,0)" stroke-linecap="butt" stroke-miterlimit="10.0"><path d="M 66.1068,238.9554 ZM 68.9179,236.5342 h -2.3186 c -0.0923,-0.0000 -0.1539,-0.0821 -0.1539 -0.1744c 0.0000,-0.1641 0.1334,-0.3796 0.2565 -0.3796h 2.3494 c 0.1026,-0.0000 0.1436,0.0923 0.1436 0.1847c 0.0000,0.1129 -0.1436,0.3693 -0.2770 0.3693ZM 69.5232,238.9554 ZM 71.7700,233.3846 c -0.4412,-0.0000 -1.0875,0.4309 -1.0875 2.8213c 0.0000,0.8413 0.1539,2.5341 1.0567 2.5341c 0.1744,-0.0000 0.6669,-0.1129 0.8823 -0.9131c 0.1334,-0.4924 0.2052,-1.1080 0.2052 -2.0006c 0.0000,-1.3029 -0.3283,-2.0313 -0.6258 -2.2878c -0.1129,-0.1026 -0.2667,-0.1539 -0.4309 -0.1539ZM 71.7700,233.3846 ZM 71.7289,239.0785 c -1.0977,-0.0000 -1.8364,-1.4055 -1.8364 -2.9752c 0.0000,-1.9185 0.9131,-3.0778 1.8775 -3.0778c 0.4412,-0.0000 0.8823,0.2770 1.1798 0.6771c 0.4309,0.5745 0.6566,1.3440 0.6566 2.3083c 0.0000,2.2776 -1.1285,3.0675 -1.8775 3.0675ZM 74.0167,238.9554 ZM 74.6015,238.5348 c 0.0000,-0.2975 0.2462,-0.5437 0.5437 -0.5437c 0.2975,-0.0000 0.5437,0.2462 0.5437 0.5437c 0.0000,0.2975 -0.2462,0.5437 -0.5437 0.5437c -0.2975,-0.0000 -0.5437,-0.2462 -0.5437 -0.5437ZM 76.2635,238.9554 ZM 78.9104,235.3133 c 0.0000,-0.0718 0.0103,-0.1539 0.1026 -0.2052c 0.1129,-0.0821 0.2975,-0.1744 0.4514 -0.1744c 0.1334,-0.0000 0.1436,0.1129 0.1436 0.3180v 1.6518 h 0.8310 l -0.0616,0.4822 h -0.7694 v 0.8515 c 0.0000,0.2873 0.0410,0.4309 0.3386 0.4309h 0.2770 c 0.0616,-0.0000 0.0718,0.0513 0.0718 0.0718v 0.2257 c 0.0000,-0.0000 -0.6566,-0.0205 -1.0875 -0.0205c -0.3899,-0.0000 -0.9952,0.0205 -0.9952 0.0205v -0.2257 c 0.0000,-0.0205 0.0103,-0.0718 0.0718 -0.0718h 0.2770 c 0.3180,-0.0000 0.3488,-0.1334 0.3488 -0.4309v -0.8515 h -2.0108 c -0.0410,-0.0000 -0.0616,-0.0205 -0.0923 -0.0616l -0.0821,-0.1129 l -0.1231,-0.2154 c -0.0103,-0.0000 -0.0103,-0.0103 -0.0103 -0.0205c 0.0000,-0.0103 0.0103,-0.0205 0.0205 -0.0308c 0.6669,-0.7387 1.8467,-3.0265 2.2160 -3.8678c 0.0103,-0.0410 0.0308,-0.0513 0.0718 -0.0513c 0.0103,-0.0000 0.2360,0.0923 0.3591 0.1129c -0.4617,1.2414 -1.2209,2.5751 -1.9698 3.7652h 1.6210 v -1.5902 Z"/></g><g stroke-linejoin="miter" stroke-opacity="0.6" fill-opacity="0.0" stroke="rgb(0,0,0)" stroke-width="1.2396036082618596" fill="rgb(0,0,0)" stroke-linecap="butt" stroke-miterlimit="10.0"><path d="M 73.4320,222.8239 v 4.6398 "/></g><g stroke-linejoin="miter" stroke-opacity="1.0" fill-opacity="0.6" stroke="rgb(0,0,0)" fill-rule="evenodd" stroke-width="0.0" fill="rgb(0,0,0)" stroke-linecap="butt" stroke-miterlimit="10.0"><path d="M 42.9079,238.9554 ZM 45.7190,236.5342 h -2.3186 c -0.0923,-0.0000 -0.1539,-0.0821 -0.1539 -0.1744c 0.0000,-0.1641 0.1334,-0.3796 0.2565 -0.3796h 2.3494 c 0.1026,-0.0000 0.1436,0.0923 0.1436 0.1847c 0.0000,0.1129 -0.1436,0.3693 -0.2770 0.3693ZM 46.3243,238.9554 ZM 48.5711,233.3846 c -0.4412,-0.0000 -1.0875,0.4309 -1.0875 2.8213c 0.0000,0.8413 0.1539,2.5341 1.0567 2.5341c 0.1744,-0.0000 0.6669,-0.1129 0.8823 -0.9131c 0.1334,-0.4924 0.2052,-1.1080 0.2052 -2.0006c 0.0000,-1.3029 -0.3283,-2.0313 -0.6258 -2.2878c -0.1129,-0.1026 -0.2667,-0.1539 -0.4309 -0.1539ZM 48.5711,233.3846 ZM 48.5300,239.0785 c -1.0977,-0.0000 -1.8364,-1.4055 -1.8364 -2.9752c 0.0000,-1.9185 0.9131,-3.0778 1.8775 -3.0778c 0.4412,-0.0000 0.8823,0.2770 1.1798 0.6771c 0.4309,0.5745 0.6566,1.3440 0.6566 2.3083c 0.0000,2.2776 -1.1285,3.0675 -1.8775 3.0675ZM 50.8179,238.9554 ZM 51.4026,238.5348 c 0.0000,-0.2975 0.2462,-0.5437 0.5437 -0.5437c 0.2975,-0.0000 0.5437,0.2462 0.5437 0.5437c 0.0000,0.2975 -0.2462,0.5437 -0.5437 0.5437c -0.2975,-0.0000 -0.5437,-0.2462 -0.5437 -0.5437ZM 53.0647,238.9554 ZM 56.2348,237.2216 c 0.0000,-1.0567 -0.5745,-1.5799 -1.2106 -1.5799c -0.4719,-0.0000 -0.8310,0.0718 -1.2311 0.2360l 0.3283,-2.8008 c 0.3386,0.0308 0.6874,0.0410 1.0465 0.0410c 0.5130,-0.0000 1.0465,-0.0308 1.6005 -0.0923l 0.0616,0.0308 l -0.1539,0.6669 c -0.4001,0.0410 -0.7284,0.0513 -1.0157 0.0513c -0.4617,-0.0000 -0.8105,-0.0410 -1.1696 -0.0821l -0.1949,1.6210 c 0.2154,-0.0821 0.5848,-0.1539 0.9849 -0.1539c 1.0875,-0.0000 1.6928,0.9439 1.6928 1.8877c 0.0000,1.1490 -0.8002,2.0313 -1.9595 2.0313c -0.5848,-0.0000 -1.4363,-0.3283 -1.4363 -0.7284c 0.0000,-0.1949 0.1641,-0.3283 0.3488 -0.3283c 0.2052,-0.0000 0.3386,0.1539 0.4617 0.3180c 0.1539,0.1847 0.3180,0.3899 0.6463 0.3899c 0.6566,-0.0000 1.2003,-0.6156 1.2003 -1.5081Z"/></g><g stroke-linejoin="miter" stroke-opacity="0.6" fill-opacity="0.0" stroke="rgb(0,0,0)" stroke-width="1.2396036082618596" fill="rgb(0,0,0)" stroke-linecap="butt" stroke-miterlimit="10.0"><path d="M 50.2331,222.8239 v 4.6398 "/></g><g stroke-linejoin="miter" stroke-opacity="0.0" fill-opacity="0.0" stroke="rgb(0,0,0)" stroke-width="0.0" fill="rgb(0,0,0)" stroke-linecap="butt" stroke-miterlimit="10.0"><path d="M 282.2219,216.6375 l -0.0000,-154.6592 h -231.9888 l -0.0000,154.6592 Z"/></g></svg>