<?xml version="1.0" encoding="UTF-8"?>
<!DOCTYPE svg PUBLIC "-//W3C//DTD SVG 1.1//EN"
    "http://www.w3.org/Graphics/SVG/1.1/DTD/svg11.dtd"><svg xmlns="http://www.w3.org/2000/svg" height="300.0000" stroke-opacity="1" viewBox="0 0 300 300" font-size="1" width="300.0000" xmlns:xlink="http://www.w3.org/1999/xlink" stroke="rgb(0,0,0)" version="1.1"><defs></defs><g stroke-linejoin="miter" stroke-opacity="0.0" fill-opacity="0.1" stroke="rgb(0,0,0)" stroke-width="0.0" fill="rgb(0,0,0)" stroke-linecap="butt" stroke-miterlimit="10.0"><path d="M 36.7216,218.3388 l -0.0000,-154.6592 h -3.0932 l -0.0000,154.6592 Z"/></g><g stroke-linejoin="miter" stroke-opacity="1.0" fill-opacity="0.6" stroke="rgb(0,0,0)" fill-rule="evenodd" stroke-width="0.0" fill="rgb(0,0,0)" stroke-linecap="butt" stroke-miterlimit="10.0"><path d="M 18.5279,63.6796 ZM 20.7747,58.1088 c -0.4412,-0.0000 -1.0875,0.4309 -1.0875 2.8213c 0.0000,0.8413 0.1539,2.5341 1.0567 2.5341c 0.1744,-0.0000 0.6669,-0.1129 0.8823 -0.9131c 0.1334,-0.4924 0.2052,-1.1080 0.2052 -2.0006c 0.0000,-1.3029 -0.3283,-2.0313 -0.6258 -2.2878c -0.1129,-0.1026 -0.2667,-0.1539 -0.4309 -0.1539ZM 20.7747,58.1088 ZM 20.7337,63.8027 c -1.0977,-0.0000 -1.8364,-1.4055 -1.8364 -2.9752c 0.0000,-1.9185 0.9131,-3.0778 1.8775 -3.0778c 0.4412,-0.0000 0.8823,0.2770 1.1798 0.6771c 0.4309,0.5745 0.6566,1.3440 0.6566 2.3083c 0.0000,2.2776 -1.1285,3.0675 -1.8775 3.0675ZM 23.0215,63.6796 ZM 23.6063,63.2589 c 0.0000,-0.2975 0.2462,-0.5437 0.5437 -0.5437c 0.2975,-0.0000 0.5437,0.2462 0.5437 0.5437c 0.0000,0.2975 -0.2462,0.5437 -0.5437 0.5437c -0.2975,-0.0000 -0.5437,-0.2462 -0.5437 -0.5437ZM 25.2683,63.6796 ZM 28.4384,61.9458 c 0.0000,-1.0567 -0.5745,-1.5799 -1.2106 -1.5799c -0.4719,-0.0000 -0.8310,0.0718 -1.2311 0.2360l 0.3283,-2.8008 c 0.3386,0.0308 0.6874,0.0410 1.0465 0.0410c 0.5130,-0.0000 1.0465,-0.0308 1.6005 -0.0923l 0.0616,0.0308 l -0.1539,0.6669 c -0.4001,0.0410 -0.7284,0.0513 -1.0157 0.0513c -0.4617,-0.0000 -0.8105,-0.0410 -1.1696 -0.0821l -0.1949,1.6210 c 0.2154,-0.0821 0.5848,-0.1539 0.9849 -0.1539c 1.0875,-0.0000 1.6928,0.9439 1.6928 1.8877c 0.0000,1.1490 -0.8002,2.0313 -1.9595 2.0313c -0.5848,-0.0000 -1.4363,-0.3283 -1.4363 -0.7284c 0.0000,-0.1949 0.1641,-0.3283 0.3488 -0.3283c 0.2052,-0.0000 0.3386,0.1539 0.4617 0.3180c 0.1539,0.1847 0.3180,0.3899 0.6463 0.3899c 0.6566,-0.0000 1.2003,-0.6156 1.2003 -1.5081Z"/></g><g stroke-linejoin="miter" stroke-opacity="0.6" fill-opacity="0.0" stroke="rgb(0,0,0)" stroke-width="1.2498543412714864" fill="rgb(0,0,0)" stroke-linecap="butt" stroke-miterlimit="10.0"><path d="M 32.0818,63.6796 h 4.6398 "/></g><g stroke-linejoin="miter" stroke-opacity="1.0" fill-opacity="0.6" stroke="rgb(0,0,0)" fill-rule="evenodd" stroke-width="0.0" fill="rgb(0,0,0)" stroke-linecap="butt" stroke-miterlimit="10.0"><path d="M 18.5279,79.1455 ZM 20.7747,73.5747 c -0.4412,-0.0000 -1.0875,0.4309 -1.0875 2.8213c 0.0000,0.8413 0.1539,2.5341 1.0567 2.5341c 0.1744,-0.0000 0.6669,-0.1129 0.8823 -0.9131c 0.1334,-0.4924 0.2052,-1.1080 0.2052 -2.0006c 0.0000,-1.3029 -0.3283,-2.0313 -0.6258 -2.2878c -0.1129,-0.1026 -0.2667,-0.1539 -0.4309 -0.1539ZM 20.7747,73.5747 ZM 20.7337,79.2686 c -1.0977,-0.0000 -1.8364,-1.4055 -1.8364 -2.9752c 0.0000,-1.9185 0.9131,-3.0778 1.8775 -3.0778c 0.4412,-0.0000 0.8823,0.2770 1.1798 0.6771c 0.4309,0.5745 0.6566,1.3440 0.6566 2.3083c 0.0000,2.2776 -1.1285,3.0675 -1.8775 3.0675ZM 23.0215,79.1455 ZM 23.6063,78.7249 c 0.0000,-0.2975 0.2462,-0.5437 0.5437 -0.5437c 0.2975,-0.0000 0.5437,0.2462 0.5437 0.5437c 0.0000,0.2975 -0.2462,0.5437 -0.5437 0.5437c -0.2975,-0.0000 -0.5437,-0.2462 -0.5437 -0.5437ZM 25.2683,79.1455 ZM 27.9152,75.5034 c 0.0000,-0.0718 0.0103,-0.1539 0.1026 -0.2052c 0.1129,-0.0821 0.2975,-0.1744 0.4514 -0.1744c 0.1334,-0.0000 0.1436,0.1129 0.1436 0.3180v 1.6518 h 0.8310 l -0.0616,0.4822 h -0.7694 v 0.8515 c 0.0000,0.2873 0.0410,0.4309 0.3386 0.4309h 0.2770 c 0.0616,-0.0000 0.0718,0.0513 0.0718 0.0718v 0.2257 c 0.0000,-0.0000 -0.6566,-0.0205 -1.0875 -0.0205c -0.3899,-0.0000 -0.9952,0.0205 -0.9952 0.0205v -0.2257 c 0.0000,-0.0205 0.0103,-0.0718 0.0718 -0.0718h 0.2770 c 0.3180,-0.0000 0.3488,-0.1334 0.3488 -0.4309v -0.8515 h -2.0108 c -0.0410,-0.0000 -0.0616,-0.0205 -0.0923 -0.0616l -0.0821,-0.1129 l -0.1231,-0.2154 c -0.0103,-0.0000 -0.0103,-0.0103 -0.0103 -0.0205c 0.0000,-0.0103 0.0103,-0.0205 0.0205 -0.0308c 0.6669,-0.7387 1.8467,-3.0265 2.2160 -3.8678c 0.0103,-0.0410 0.0308,-0.0513 0.0718 -0.0513c 0.0103,-0.0000 0.2360,0.0923 0.3591 0.1129c -0.4617,1.2414 -1.2209,2.5751 -1.9698 3.7652h 1.6210 v -1.5902 Z"/></g><g stroke-linejoin="miter" stroke-opacity="0.6" fill-opacity="0.0" stroke="rgb(0,0,0)" stroke-width="1.2498543412714864" fill="rgb(0,0,0)" stroke-linecap="butt" stroke-miterlimit="10.0"><path d="M 32.0818,79.1455 h 4.6398 "/></g><g stroke-linejoin="miter" stroke-opacity="1.0" fill-opacity="0.6" stroke="rgb(0,0,0)" fill-rule="evenodd" stroke-width="0.0" fill="rgb(0,0,0)" stroke-linecap="butt" stroke-miterlimit="10.0"><path d="M 18.5279,94.6114 ZM 20.7747,89.0406 c -0.4412,-0.0000 -1.0875,0.4309 -1.0875 2.8213c 0.0000,0.8413 0.1539,2.5341 1.0567 2.5341c 0.1744,-0.0000 0.6669,-0.1129 0.8823 -0.9131c 0.1334,-0.4924 0.2052,-1.1080 0.2052 -2.0006c 0.0000,-1.3029 -0.3283,-2.0313 -0.6258 -2.2878c -0.1129,-0.1026 -0.2667,-0.1539 -0.4309 -0.1539ZM 20.7747,89.0406 ZM 20.7337,94.7345 c -1.0977,-0.0000 -1.8364,-1.4055 -1.8364 -2.9752c 0.0000,-1.9185 0.9131,-3.0778 1.8775 -3.0778c 0.4412,-0.0000 0.8823,0.2770 1.1798 0.6771c 0.4309,0.5745 0.6566,1.3440 0.6566 2.3083c 0.0000,2.2776 -1.1285,3.0675 -1.8775 3.0675ZM 23.0215,94.6114 ZM 23.6063,94.1908 c 0.0000,-0.2975 0.2462,-0.5437 0.5437 -0.5437c 0.2975,-0.0000 0.5437,0.2462 0.5437 0.5437c 0.0000,0.2975 -0.2462,0.5437 -0.5437 0.5437c -0.2975,-0.0000 -0.5437,-0.2462 -0.5437 -0.5437ZM 25.2683,94.6114 ZM 27.4843,88.9996 c -0.2565,-0.0000 -1.0054,0.1436 -1.0054 0.7694c 0.0000,0.1847 -0.0718,0.5027 -0.3488 0.5027c -0.2667,-0.0000 -0.2873,-0.2975 -0.2873 -0.3283c 0.0000,-0.3180 0.4206,-1.2619 1.8467 -1.2619c 0.9952,-0.0000 1.2927,0.6258 1.2927 1.0362c 0.0000,0.2565 -0.0821,0.7694 -1.0054 1.3542c 0.5745,0.0923 1.3337,0.5130 1.3337 1.5799c 0.0000,1.3542 -1.0259,2.0826 -2.1852 2.0826c -0.5848,-0.0000 -1.4055,-0.2565 -1.4055 -0.6463c 0.0000,-0.1539 0.1539,-0.3283 0.3591 -0.3283c 0.1949,-0.0000 0.2873,0.1026 0.3796 0.2360c 0.1129,0.1744 0.2975,0.4206 0.7900 0.4206c 0.3386,-0.0000 1.3029,-0.3386 1.3029 -1.6312c 0.0000,-1.0977 -0.7694,-1.2722 -1.3235 -1.2722c -0.0923,-0.0000 -0.2052,0.0205 -0.3180 0.0410l -0.0410,-0.3078 c 0.7900,-0.1334 1.4466,-0.9028 1.4466 -1.3747c 0.0000,-0.5848 -0.4104,-0.8720 -0.8310 -0.8720Z"/></g><g stroke-linejoin="miter" stroke-opacity="0.6" fill-opacity="0.0" stroke="rgb(0,0,0)" stroke-width="1.2498543412714864" fill="rgb(0,0,0)" stroke-linecap="butt" stroke-miterlimit="10.0"><path d="M 32.0818,94.6114 h 4.6398 "/></g><g stroke-linejoin="miter" stroke-opacity="1.0" fill-opacity="0.6" stroke="rgb(0,0,0)" fill-rule="evenodd" stroke-width="0.0" fill="rgb(0,0,0)" stroke-linecap="butt" stroke-miterlimit="10.0"><path d="M 18.5279,110.0773 ZM 20.7747,104.5065 c -0.4412,-0.0000 -1.0875,0.4309 -1.0875 2.8213c 0.0000,0.8413 0.1539,2.5341 1.0567 2.5341c 0.1744,-0.0000 0.6669,-0.1129 0.8823 -0.9131c 0.1334,-0.4924 0.2052,-1.1080 0.2052 -2.0006c 0.0000,-1.3029 -0.3283,-2.0313 -0.6258 -2.2878c -0.1129,-0.1026 -0.2667,-0.1539 -0.4309 -0.1539ZM 20.7747,104.5065 ZM 20.7337,110.2005 c -1.0977,-0.0000 -1.8364,-1.4055 -1.8364 -2.9752c 0.0000,-1.9185 0.9131,-3.0778 1.8775 -3.0778c 0.4412,-0.0000 0.8823,0.2770 1.1798 0.6771c 0.4309,0.5745 0.6566,1.3440 0.6566 2.3083c 0.0000,2.2776 -1.1285,3.0675 -1.8775 3.0675ZM 23.0215,110.0773 ZM 23.6063,109.6567 c 0.0000,-0.2975 0.2462,-0.5437 0.5437 -0.5437c 0.2975,-0.0000 0.5437,0.2462 0.5437 0.5437c 0.0000,0.2975 -0.2462,0.5437 -0.5437 0.5437c -0.2975,-0.0000 -0.5437,-0.2462 -0.5437 -0.5437ZM 25.2683,110.0773 ZM 25.8634,105.5325 c 0.0000,-0.5848 0.5643,-1.3850 1.6415 -1.3850c 0.7900,-0.0000 1.7133,0.2975 1.7133 1.4773c 0.0000,0.7797 -0.4001,1.1696 -0.9541 1.7030l -0.9746,0.9439 c -0.0513,0.0513 -0.7387,0.7284 -0.7387 1.2106h 1.7441 c 0.3488,-0.0000 0.5335,-0.1744 0.6771 -0.7387l 0.2565,0.0410 l -0.2052,1.2927 h -3.1701 c 0.0000,-0.5745 0.0923,-1.0157 1.0465 -1.9903l 0.7182,-0.7079 c 0.5745,-0.5848 0.8105,-1.0875 0.8105 -1.7133c 0.0000,-0.9336 -0.6361,-1.2003 -0.9849 -1.2003c -0.7079,-0.0000 -0.9028,0.3693 -0.9028 0.6156c 0.0000,0.0821 0.0205,0.1641 0.0410 0.2360c 0.0205,0.0718 0.0410,0.1436 0.0410 0.2257c 0.0000,0.2667 -0.2052,0.3693 -0.3693 0.3693c -0.2257,-0.0000 -0.3899,-0.1744 -0.3899 -0.3796Z"/></g><g stroke-linejoin="miter" stroke-opacity="0.6" fill-opacity="0.0" stroke="rgb(0,0,0)" stroke-width="1.2498543412714864" fill="rgb(0,0,0)" stroke-linecap="butt" stroke-miterlimit="10.0"><path d="M 32.0818,110.0773 h 4.6398 "/></g><g stroke-linejoin="miter" stroke-opacity="1.0" fill-opacity="0.6" stroke="rgb(0,0,0)" fill-rule="evenodd" stroke-width="0.0" fill="rgb(0,0,0)" stroke-linecap="butt" stroke-miterlimit="10.0"><path d="M 18.5279,125.5433 ZM 20.7747,119.9725 c -0.4412,-0.0000 -1.0875,0.4309 -1.0875 2.8213c 0.0000,0.8413 0.1539,2.5341 1.0567 2.5341c 0.1744,-0.0000 0.6669,-0.1129 0.8823 -0.9131c 0.1334,-0.4924 0.2052,-1.1080 0.2052 -2.0006c 0.0000,-1.3029 -0.3283,-2.0313 -0.6258 -2.2878c -0.1129,-0.1026 -0.2667,-0.1539 -0.4309 -0.1539ZM 20.7747,119.9725 ZM 20.7337,125.6664 c -1.0977,-0.0000 -1.8364,-1.4055 -1.8364 -2.9752c 0.0000,-1.9185 0.9131,-3.0778 1.8775 -3.0778c 0.4412,-0.0000 0.8823,0.2770 1.1798 0.6771c 0.4309,0.5745 0.6566,1.3440 0.6566 2.3083c 0.0000,2.2776 -1.1285,3.0675 -1.8775 3.0675ZM 23.0215,125.5433 ZM 23.6063,125.1226 c 0.0000,-0.2975 0.2462,-0.5437 0.5437 -0.5437c 0.2975,-0.0000 0.5437,0.2462 0.5437 0.5437c 0.0000,0.2975 -0.2462,0.5437 -0.5437 0.5437c -0.2975,-0.0000 -0.5437,-0.2462 -0.5437 -0.5437ZM 25.2683,125.5433 ZM 27.1971,120.6496 c -0.1949,-0.0000 -0.6463,0.1847 -0.8720 0.2873l -0.1231,-0.3180 c 0.9028,-0.4206 1.2516,-0.6361 1.7646 -1.0054h 0.1949 v 5.1604 c 0.0000,0.3693 0.0513,0.4719 0.3899 0.4719h 0.5335 c 0.0308,-0.0000 0.0821,0.0205 0.0821 0.0821v 0.2257 l -1.4055,-0.0205 l -1.4260,0.0205 v -0.2257 c 0.0103,-0.0308 0.0205,-0.0821 0.0821 -0.0821h 0.6156 c 0.3899,-0.0000 0.3899,-0.1744 0.3899 -0.4719v -3.5292 c 0.0000,-0.3488 0.0000,-0.5950 -0.2257 -0.5950Z"/></g><g stroke-linejoin="miter" stroke-opacity="0.6" fill-opacity="0.0" stroke="rgb(0,0,0)" stroke-width="1.2498543412714864" fill="rgb(0,0,0)" stroke-linecap="butt" stroke-miterlimit="10.0"><path d="M 32.0818,125.5433 h 4.6398 "/></g><g stroke-linejoin="miter" stroke-opacity="1.0" fill-opacity="0.6" stroke="rgb(0,0,0)" fill-rule="evenodd" stroke-width="0.0" fill="rgb(0,0,0)" stroke-linecap="butt" stroke-miterlimit="10.0"><path d="M 18.5279,141.0092 ZM 20.7747,135.4384 c -0.4412,-0.0000 -1.0875,0.4309 -1.0875 2.8213c 0.0000,0.8413 0.1539,2.5341 1.0567 2.5341c 0.1744,-0.0000 0.6669,-0.1129 0.8823 -0.9131c 0.1334,-0.4924 0.2052,-1.1080 0.2052 -2.0006c 0.0000,-1.3029 -0.3283,-2.0313 -0.6258 -2.2878c -0.1129,-0.1026 -0.2667,-0.1539 -0.4309 -0.1539ZM 20.7747,135.4384 ZM 20.7337,141.1323 c -1.0977,-0.0000 -1.8364,-1.4055 -1.8364 -2.9752c 0.0000,-1.9185 0.9131,-3.0778 1.8775 -3.0778c 0.4412,-0.0000 0.8823,0.2770 1.1798 0.6771c 0.4309,0.5745 0.6566,1.3440 0.6566 2.3083c 0.0000,2.2776 -1.1285,3.0675 -1.8775 3.0675ZM 23.0215,141.0092 ZM 23.6063,140.5886 c 0.0000,-0.2975 0.2462,-0.5437 0.5437 -0.5437c 0.2975,-0.0000 0.5437,0.2462 0.5437 0.5437c 0.0000,0.2975 -0.2462,0.5437 -0.5437 0.5437c -0.2975,-0.0000 -0.5437,-0.2462 -0.5437 -0.5437ZM 25.2683,141.0092 ZM 27.5151,135.4384 c -0.4412,-0.0000 -1.0875,0.4309 -1.0875 2.8213c 0.0000,0.8413 0.1539,2.5341 1.0567 2.5341c 0.1744,-0.0000 0.6669,-0.1129 0.8823 -0.9131c 0.1334,-0.4924 0.2052,-1.1080 0.2052 -2.0006c 0.0000,-1.3029 -0.3283,-2.0313 -0.6258 -2.2878c -0.1129,-0.1026 -0.2667,-0.1539 -0.4309 -0.1539ZM 27.5151,135.4384 ZM 27.4741,141.1323 c -1.0977,-0.0000 -1.8364,-1.4055 -1.8364 -2.9752c 0.0000,-1.9185 0.9131,-3.0778 1.8775 -3.0778c 0.4412,-0.0000 0.8823,0.2770 1.1798 0.6771c 0.4309,0.5745 0.6566,1.3440 0.6566 2.3083c 0.0000,2.2776 -1.1285,3.0675 -1.8775 3.0675Z"/></g><g stroke-linejoin="miter" stroke-opacity="0.6" fill-opacity="0.0" stroke="rgb(0,0,0)" stroke-width="1.2498543412714864" fill="rgb(0,0,0)" stroke-linecap="butt" stroke-miterlimit="10.0"><path d="M 32.0818,141.0092 h 4.6398 "/></g><g stroke-linejoin="miter" stroke-opacity="1.0" fill-opacity="0.6" stroke="rgb(0,0,0)" fill-rule="evenodd" stroke-width="0.0" fill="rgb(0,0,0)" stroke-linecap="butt" stroke-miterlimit="10.0"><path d="M 15.1116,156.4751 ZM 17.9226,154.0539 h -2.3186 c -0.0923,-0.0000 -0.1539,-0.0821 -0.1539 -0.1744c 0.0000,-0.1641 0.1334,-0.3796 0.2565 -0.3796h 2.3494 c 0.1026,-0.0000 0.1436,0.0923 0.1436 0.1847c 0.0000,0.1129 -0.1436,0.3693 -0.2770 0.3693ZM 18.5279,156.4751 ZM 20.7747,150.9043 c -0.4412,-0.0000 -1.0875,0.4309 -1.0875 2.8213c 0.0000,0.8413 0.1539,2.5341 1.0567 2.5341c 0.1744,-0.0000 0.6669,-0.1129 0.8823 -0.9131c 0.1334,-0.4924 0.2052,-1.1080 0.2052 -2.0006c 0.0000,-1.3029 -0.3283,-2.0313 -0.6258 -2.2878c -0.1129,-0.1026 -0.2667,-0.1539 -0.4309 -0.1539ZM 20.7747,150.9043 ZM 20.7337,156.5982 c -1.0977,-0.0000 -1.8364,-1.4055 -1.8364 -2.9752c 0.0000,-1.9185 0.9131,-3.0778 1.8775 -3.0778c 0.4412,-0.0000 0.8823,0.2770 1.1798 0.6771c 0.4309,0.5745 0.6566,1.3440 0.6566 2.3083c 0.0000,2.2776 -1.1285,3.0675 -1.8775 3.0675ZM 23.0215,156.4751 ZM 23.6063,156.0545 c 0.0000,-0.2975 0.2462,-0.5437 0.5437 -0.5437c 0.2975,-0.0000 0.5437,0.2462 0.5437 0.5437c 0.0000,0.2975 -0.2462,0.5437 -0.5437 0.5437c -0.2975,-0.0000 -0.5437,-0.2462 -0.5437 -0.5437ZM 25.2683,156.4751 ZM 27.1971,151.5814 c -0.1949,-0.0000 -0.6463,0.1847 -0.8720 0.2873l -0.1231,-0.3180 c 0.9028,-0.4206 1.2516,-0.6361 1.7646 -1.0054h 0.1949 v 5.1604 c 0.0000,0.3693 0.0513,0.4719 0.3899 0.4719h 0.5335 c 0.0308,-0.0000 0.0821,0.0205 0.0821 0.0821v 0.2257 l -1.4055,-0.0205 l -1.4260,0.0205 v -0.2257 c 0.0103,-0.0308 0.0205,-0.0821 0.0821 -0.0821h 0.6156 c 0.3899,-0.0000 0.3899,-0.1744 0.3899 -0.4719v -3.5292 c 0.0000,-0.3488 0.0000,-0.5950 -0.2257 -0.5950Z"/></g><g stroke-linejoin="miter" stroke-opacity="0.6" fill-opacity="0.0" stroke="rgb(0,0,0)" stroke-width="1.2498543412714864" fill="rgb(0,0,0)" stroke-linecap="butt" stroke-miterlimit="10.0"><path d="M 32.0818,156.4751 h 4.6398 "/></g><g stroke-linejoin="miter" stroke-opacity="1.0" fill-opacity="0.6" stroke="rgb(0,0,0)" fill-rule="evenodd" stroke-width="0.0" fill="rgb(0,0,0)" stroke-linecap="butt" stroke-miterlimit="10.0"><path d="M 15.1116,171.9410 ZM 17.9226,169.5198 h -2.3186 c -0.0923,-0.0000 -0.1539,-0.0821 -0.1539 -0.1744c 0.0000,-0.1641 0.1334,-0.3796 0.2565 -0.3796h 2.3494 c 0.1026,-0.0000 0.1436,0.0923 0.1436 0.1847c 0.0000,0.1129 -0.1436,0.3693 -0.2770 0.3693ZM 18.5279,171.9410 ZM 20.7747,166.3702 c -0.4412,-0.0000 -1.0875,0.4309 -1.0875 2.8213c 0.0000,0.8413 0.1539,2.5341 1.0567 2.5341c 0.1744,-0.0000 0.6669,-0.1129 0.8823 -0.9131c 0.1334,-0.4924 0.2052,-1.1080 0.2052 -2.0006c 0.0000,-1.3029 -0.3283,-2.0313 -0.6258 -2.2878c -0.1129,-0.1026 -0.2667,-0.1539 -0.4309 -0.1539ZM 20.7747,166.3702 ZM 20.7337,172.0641 c -1.0977,-0.0000 -1.8364,-1.4055 -1.8364 -2.9752c 0.0000,-1.9185 0.9131,-3.0778 1.8775 -3.0778c 0.4412,-0.0000 0.8823,0.2770 1.1798 0.6771c 0.4309,0.5745 0.6566,1.3440 0.6566 2.3083c 0.0000,2.2776 -1.1285,3.0675 -1.8775 3.0675ZM 23.0215,171.9410 ZM 23.6063,171.5204 c 0.0000,-0.2975 0.2462,-0.5437 0.5437 -0.5437c 0.2975,-0.0000 0.5437,0.2462 0.5437 0.5437c 0.0000,0.2975 -0.2462,0.5437 -0.5437 0.5437c -0.2975,-0.0000 -0.5437,-0.2462 -0.5437 -0.5437ZM 25.2683,171.9410 ZM 25.8634,167.3961 c 0.0000,-0.5848 0.5643,-1.3850 1.6415 -1.3850c 0.7900,-0.0000 1.7133,0.2975 1.7133 1.4773c 0.0000,0.7797 -0.4001,1.1696 -0.9541 1.7030l -0.9746,0.9439 c -0.0513,0.0513 -0.7387,0.7284 -0.7387 1.2106h 1.7441 c 0.3488,-0.0000 0.5335,-0.1744 0.6771 -0.7387l 0.2565,0.0410 l -0.2052,1.2927 h -3.1701 c 0.0000,-0.5745 0.0923,-1.0157 1.0465 -1.9903l 0.7182,-0.7079 c 0.5745,-0.5848 0.8105,-1.0875 0.8105 -1.7133c 0.0000,-0.9336 -0.6361,-1.2003 -0.9849 -1.2003c -0.7079,-0.0000 -0.9028,0.3693 -0.9028 0.6156c 0.0000,0.0821 0.0205,0.1641 0.0410 0.2360c 0.0205,0.0718 0.0410,0.1436 0.0410 0.2257c 0.0000,0.2667 -0.2052,0.3693 -0.3693 0.3693c -0.2257,-0.0000 -0.3899,-0.1744 -0.3899 -0.3796Z"/></g><g stroke-linejoin="miter" stroke-opacity="0.6" fill-opacity="0.0" stroke="rgb(0,0,0)" stroke-width="1.2498543412714864" fill="rgb(0,0,0)" stroke-linecap="butt" stroke-miterlimit="10.0"><path d="M 32.0818,171.9410 h 4.6398 "/></g><g stroke-linejoin="miter" stroke-opacity="1.0" fill-opacity="0.6" stroke="rgb(0,0,0)" fill-rule="evenodd" stroke-width="0.0" fill="rgb(0,0,0)" stroke-linecap="butt" stroke-miterlimit="10.0"><path d="M 15.1116,187.4069 ZM 17.9226,184.9857 h -2.3186 c -0.0923,-0.0000 -0.1539,-0.0821 -0.1539 -0.1744c 0.0000,-0.1641 0.1334,-0.3796 0.2565 -0.3796h 2.3494 c 0.1026,-0.0000 0.1436,0.0923 0.1436 0.1847c 0.0000,0.1129 -0.1436,0.3693 -0.2770 0.3693ZM 18.5279,187.4069 ZM 20.7747,181.8361 c -0.4412,-0.0000 -1.0875,0.4309 -1.0875 2.8213c 0.0000,0.8413 0.1539,2.5341 1.0567 2.5341c 0.1744,-0.0000 0.6669,-0.1129 0.8823 -0.9131c 0.1334,-0.4924 0.2052,-1.1080 0.2052 -2.0006c 0.0000,-1.3029 -0.3283,-2.0313 -0.6258 -2.2878c -0.1129,-0.1026 -0.2667,-0.1539 -0.4309 -0.1539ZM 20.7747,181.8361 ZM 20.7337,187.5301 c -1.0977,-0.0000 -1.8364,-1.4055 -1.8364 -2.9752c 0.0000,-1.9185 0.9131,-3.0778 1.8775 -3.0778c 0.4412,-0.0000 0.8823,0.2770 1.1798 0.6771c 0.4309,0.5745 0.6566,1.3440 0.6566 2.3083c 0.0000,2.2776 -1.1285,3.0675 -1.8775 3.0675ZM 23.0215,187.4069 ZM 23.6063,186.9863 c 0.0000,-0.2975 0.2462,-0.5437 0.5437 -0.5437c 0.2975,-0.0000 0.5437,0.2462 0.5437 0.5437c 0.0000,0.2975 -0.2462,0.5437 -0.5437 0.5437c -0.2975,-0.0000 -0.5437,-0.2462 -0.5437 -0.5437ZM 25.2683,187.4069 ZM 27.4843,181.7951 c -0.2565,-0.0000 -1.0054,0.1436 -1.0054 0.7694c 0.0000,0.1847 -0.0718,0.5027 -0.3488 0.5027c -0.2667,-0.0000 -0.2873,-0.2975 -0.2873 -0.3283c 0.0000,-0.3180 0.4206,-1.2619 1.8467 -1.2619c 0.9952,-0.0000 1.2927,0.6258 1.2927 1.0362c 0.0000,0.2565 -0.0821,0.7694 -1.0054 1.3542c 0.5745,0.0923 1.3337,0.5130 1.3337 1.5799c 0.0000,1.3542 -1.0259,2.0826 -2.1852 2.0826c -0.5848,-0.0000 -1.4055,-0.2565 -1.4055 -0.6463c 0.0000,-0.1539 0.1539,-0.3283 0.3591 -0.3283c 0.1949,-0.0000 0.2873,0.1026 0.3796 0.2360c 0.1129,0.1744 0.2975,0.4206 0.7900 0.4206c 0.3386,-0.0000 1.3029,-0.3386 1.3029 -1.6312c 0.0000,-1.0977 -0.7694,-1.2722 -1.3235 -1.2722c -0.0923,-0.0000 -0.2052,0.0205 -0.3180 0.0410l -0.0410,-0.3078 c 0.7900,-0.1334 1.4466,-0.9028 1.4466 -1.3747c 0.0000,-0.5848 -0.4104,-0.8720 -0.8310 -0.8720Z"/></g><g stroke-linejoin="miter" stroke-opacity="0.6" fill-opacity="0.0" stroke="rgb(0,0,0)" stroke-width="1.2498543412714864" fill="rgb(0,0,0)" stroke-linecap="butt" stroke-miterlimit="10.0"><path d="M 32.0818,187.4069 h 4.6398 "/></g><g stroke-linejoin="miter" stroke-opacity="1.0" fill-opacity="0.6" stroke="rgb(0,0,0)" fill-rule="evenodd" stroke-width="0.0" fill="rgb(0,0,0)" stroke-linecap="butt" stroke-miterlimit="10.0"><path d="M 15.1116,202.8729 ZM 17.9226,200.4517 h -2.3186 c -0.0923,-0.0000 -0.1539,-0.0821 -0.1539 -0.1744c 0.0000,-0.1641 0.1334,-0.3796 0.2565 -0.3796h 2.3494 c 0.1026,-0.0000 0.1436,0.0923 0.1436 0.1847c 0.0000,0.1129 -0.1436,0.3693 -0.2770 0.3693ZM 18.5279,202.8729 ZM 20.7747,197.3021 c -0.4412,-0.0000 -1.0875,0.4309 -1.0875 2.8213c 0.0000,0.8413 0.1539,2.5341 1.0567 2.5341c 0.1744,-0.0000 0.6669,-0.1129 0.8823 -0.9131c 0.1334,-0.4924 0.2052,-1.1080 0.2052 -2.0006c 0.0000,-1.3029 -0.3283,-2.0313 -0.6258 -2.2878c -0.1129,-0.1026 -0.2667,-0.1539 -0.4309 -0.1539ZM 20.7747,197.3021 ZM 20.7337,202.9960 c -1.0977,-0.0000 -1.8364,-1.4055 -1.8364 -2.9752c 0.0000,-1.9185 0.9131,-3.0778 1.8775 -3.0778c 0.4412,-0.0000 0.8823,0.2770 1.1798 0.6771c 0.4309,0.5745 0.6566,1.3440 0.6566 2.3083c 0.0000,2.2776 -1.1285,3.0675 -1.8775 3.0675ZM 23.0215,202.8729 ZM 23.6063,202.4522 c 0.0000,-0.2975 0.2462,-0.5437 0.5437 -0.5437c 0.2975,-0.0000 0.5437,0.2462 0.5437 0.5437c 0.0000,0.2975 -0.2462,0.5437 -0.5437 0.5437c -0.2975,-0.0000 -0.5437,-0.2462 -0.5437 -0.5437ZM 25.2683,202.8729 ZM 27.9152,199.2308 c 0.0000,-0.0718 0.0103,-0.1539 0.1026 -0.2052c 0.1129,-0.0821 0.2975,-0.1744 0.4514 -0.1744c 0.1334,-0.0000 0.1436,0.1129 0.1436 0.3180v 1.6518 h 0.8310 l -0.0616,0.4822 h -0.7694 v 0.8515 c 0.0000,0.2873 0.0410,0.4309 0.3386 0.4309h 0.2770 c 0.0616,-0.0000 0.0718,0.0513 0.0718 0.0718v 0.2257 c 0.0000,-0.0000 -0.6566,-0.0205 -1.0875 -0.0205c -0.3899,-0.0000 -0.9952,0.0205 -0.9952 0.0205v -0.2257 c 0.0000,-0.0205 0.0103,-0.0718 0.0718 -0.0718h 0.2770 c 0.3180,-0.0000 0.3488,-0.1334 0.3488 -0.4309v -0.8515 h -2.0108 c -0.0410,-0.0000 -0.0616,-0.0205 -0.0923 -0.0616l -0.0821,-0.1129 l -0.1231,-0.2154 c -0.0103,-0.0000 -0.0103,-0.0103 -0.0103 -0.0205c 0.0000,-0.0103 0.0103,-0.0205 0.0205 -0.0308c 0.6669,-0.7387 1.8467,-3.0265 2.2160 -3.8678c 0.0103,-0.0410 0.0308,-0.0513 0.0718 -0.0513c 0.0103,-0.0000 0.2360,0.0923 0.3591 0.1129c -0.4617,1.2414 -1.2209,2.5751 -1.9698 3.7652h 1.6210 v -1.5902 Z"/></g><g stroke-linejoin="miter" stroke-opacity="0.6" fill-opacity="0.0" stroke="rgb(0,0,0)" stroke-width="1.2498543412714864" fill="rgb(0,0,0)" stroke-linecap="butt" stroke-miterlimit="10.0"><path d="M 32.0818,202.8729 h 4.6398 "/></g><g stroke-linejoin="miter" stroke-opacity="1.0" fill-opacity="0.6" stroke="rgb(0,0,0)" fill-rule="evenodd" stroke-width="0.0" fill="rgb(0,0,0)" stroke-linecap="butt" stroke-miterlimit="10.0"><path d="M 15.1116,218.3388 ZM 17.9226,215.9176 h -2.3186 c -0.0923,-0.0000 -0.1539,-0.0821 -0.1539 -0.1744c 0.0000,-0.1641 0.1334,-0.3796 0.2565 -0.3796h 2.3494 c 0.1026,-0.0000 0.1436,0.0923 0.1436 0.1847c 0.0000,0.1129 -0.1436,0.3693 -0.2770 0.3693ZM 18.5279,218.3388 ZM 20.7747,212.7680 c -0.4412,-0.0000 -1.0875,0.4309 -1.0875 2.8213c 0.0000,0.8413 0.1539,2.5341 1.0567 2.5341c 0.1744,-0.0000 0.6669,-0.1129 0.8823 -0.9131c 0.1334,-0.4924 0.2052,-1.1080 0.2052 -2.0006c 0.0000,-1.3029 -0.3283,-2.0313 -0.6258 -2.2878c -0.1129,-0.1026 -0.2667,-0.1539 -0.4309 -0.1539ZM 20.7747,212.7680 ZM 20.7337,218.4619 c -1.0977,-0.0000 -1.8364,-1.4055 -1.8364 -2.9752c 0.0000,-1.9185 0.9131,-3.0778 1.8775 -3.0778c 0.4412,-0.0000 0.8823,0.2770 1.1798 0.6771c 0.4309,0.5745 0.6566,1.3440 0.6566 2.3083c 0.0000,2.2776 -1.1285,3.0675 -1.8775 3.0675ZM 23.0215,218.3388 ZM 23.6063,217.9182 c 0.0000,-0.2975 0.2462,-0.5437 0.5437 -0.5437c 0.2975,-0.0000 0.5437,0.2462 0.5437 0.5437c 0.0000,0.2975 -0.2462,0.5437 -0.5437 0.5437c -0.2975,-0.0000 -0.5437,-0.2462 -0.5437 -0.5437ZM 25.2683,218.3388 ZM 28.4384,216.6050 c 0.0000,-1.0567 -0.5745,-1.5799 -1.2106 -1.5799c -0.4719,-0.0000 -0.8310,0.0718 -1.2311 0.2360l 0.3283,-2.8008 c 0.3386,0.0308 0.6874,0.0410 1.0465 0.0410c 0.5130,-0.0000 1.0465,-0.0308 1.6005 -0.0923l 0.0616,0.0308 l -0.1539,0.6669 c -0.4001,0.0410 -0.7284,0.0513 -1.0157 0.0513c -0.4617,-0.0000 -0.8105,-0.0410 -1.1696 -0.0821l -0.1949,1.6210 c 0.2154,-0.0821 0.5848,-0.1539 0.9849 -0.1539c 1.0875,-0.0000 1.6928,0.9439 1.6928 1.8877c 0.0000,1.1490 -0.8002,2.0313 -1.9595 2.0313c -0.5848,-0.0000 -1.4363,-0.3283 -1.4363 -0.7284c 0.0000,-0.1949 0.1641,-0.3283 0.3488 -0.3283c 0.2052,-0.0000 0.3386,0.1539 0.4617 0.3180c 0.1539,0.1847 0.3180,0.3899 0.6463 0.3899c 0.6566,-0.0000 1.2003,-0.6156 1.2003 -1.5081Z"/></g><g stroke-linejoin="miter" stroke-opacity="0.6" fill-opacity="0.0" stroke="rgb(0,0,0)" stroke-width="1.2498543412714864" fill="rgb(0,0,0)" stroke-linecap="butt" stroke-miterlimit="10.0"><path d="M 32.0818,218.3388 h 4.6398 "/></g><g stroke-linejoin="miter" stroke-opacity="0.0" fill-opacity="0.1" stroke="rgb(0,0,0)" stroke-width="0.0" fill="rgb(0,0,0)" stroke-linecap="butt" stroke-miterlimit="10.0"><path d="M 282.2219,227.6183 l -0.0000,-3.0932 h -231.9888 l -0.0000,3.0932 Z"/></g><g stroke-linejoin="miter" stroke-opacity="1.0" fill-opacity="0.6" stroke="rgb(0,0,0)" fill-rule="evenodd" stroke-width="0.0" fill="rgb(0,0,0)" stroke-linecap="butt" stroke-miterlimit="10.0"><path d="M 276.6049,240.6566 ZM 278.8517,235.0858 c -0.4412,-0.0000 -1.0875,0.4309 -1.0875 2.8213c 0.0000,0.8413 0.1539,2.5341 1.0567 2.5341c 0.1744,-0.0000 0.6669,-0.1129 0.8823 -0.9131c 0.1334,-0.4924 0.2052,-1.1080 0.2052 -2.0006c 0.0000,-1.3029 -0.3283,-2.0313 -0.6258 -2.2878c -0.1129,-0.1026 -0.2667,-0.1539 -0.4309 -0.1539ZM 278.8517,235.0858 ZM 278.8107,240.7798 c -1.0977,-0.0000 -1.8364,-1.4055 -1.8364 -2.9752c 0.0000,-1.9185 0.9131,-3.0778 1.8775 -3.0778c 0.4412,-0.0000 0.8823,0.2770 1.1798 0.6771c 0.4309,0.5745 0.6566,1.3440 0.6566 2.3083c 0.0000,2.2776 -1.1285,3.0675 -1.8775 3.0675ZM 281.0985,240.6566 ZM 281.6833,240.2360 c 0.0000,-0.2975 0.2462,-0.5437 0.5437 -0.5437c 0.2975,-0.0000 0.5437,0.2462 0.5437 0.5437c 0.0000,0.2975 -0.2462,0.5437 -0.5437 0.5437c -0.2975,-0.0000 -0.5437,-0.2462 -0.5437 -0.5437ZM 283.3453,240.6566 ZM 286.5154,238.9228 c 0.0000,-1.0567 -0.5745,-1.5799 -1.2106 -1.5799c -0.4719,-0.0000 -0.8310,0.0718 -1.2311 0.2360l 0.3283,-2.8008 c 0.3386,0.0308 0.6874,0.0410 1.0465 0.0410c 0.5130,-0.0000 1.0465,-0.0308 1.6005 -0.0923l 0.0616,0.0308 l -0.1539,0.6669 c -0.4001,0.0410 -0.7284,0.0513 -1.0157 0.0513c -0.4617,-0.0000 -0.8105,-0.0410 -1.1696 -0.0821l -0.1949,1.6210 c 0.2154,-0.0821 0.5848,-0.1539 0.9849 -0.1539c 1.0875,-0.0000 1.6928,0.9439 1.6928 1.8877c 0.0000,1.1490 -0.8002,2.0313 -1.9595 2.0313c -0.5848,-0.0000 -1.4363,-0.3283 -1.4363 -0.7284c 0.0000,-0.1949 0.1641,-0.3283 0.3488 -0.3283c 0.2052,-0.0000 0.3386,0.1539 0.4617 0.3180c 0.1539,0.1847 0.3180,0.3899 0.6463 0.3899c 0.6566,-0.0000 1.2003,-0.6156 1.2003 -1.5081Z"/></g><g stroke-linejoin="miter" stroke-opacity="0.6" fill-opacity="0.0" stroke="rgb(0,0,0)" stroke-width="1.2498543412714864" fill="rgb(0,0,0)" stroke-linecap="butt" stroke-miterlimit="10.0"><path d="M 282.2219,224.5252 v 4.6398 "/></g><g stroke-linejoin="miter" stroke-opacity="1.0" fill-opacity="0.6" stroke="rgb(0,0,0)" fill-rule="evenodd" stroke-width="0.0" fill="rgb(0,0,0)" stroke-linecap="butt" stroke-miterlimit="10.0"><path d="M 253.4060,240.6566 ZM 255.6528,235.0858 c -0.4412,-0.0000 -1.0875,0.4309 -1.0875 2.8213c 0.0000,0.8413 0.1539,2.5341 1.0567 2.5341c 0.1744,-0.0000 0.6669,-0.1129 0.8823 -0.9131c 0.1334,-0.4924 0.2052,-1.1080 0.2052 -2.0006c 0.0000,-1.3029 -0.3283,-2.0313 -0.6258 -2.2878c -0.1129,-0.1026 -0.2667,-0.1539 -0.4309 -0.1539ZM 255.6528,235.0858 ZM 255.6118,240.7798 c -1.0977,-0.0000 -1.8364,-1.4055 -1.8364 -2.9752c 0.0000,-1.9185 0.9131,-3.0778 1.8775 -3.0778c 0.4412,-0.0000 0.8823,0.2770 1.1798 0.6771c 0.4309,0.5745 0.6566,1.3440 0.6566 2.3083c 0.0000,2.2776 -1.1285,3.0675 -1.8775 3.0675ZM 257.8996,240.6566 ZM 258.4844,240.2360 c 0.0000,-0.2975 0.2462,-0.5437 0.5437 -0.5437c 0.2975,-0.0000 0.5437,0.2462 0.5437 0.5437c 0.0000,0.2975 -0.2462,0.5437 -0.5437 0.5437c -0.2975,-0.0000 -0.5437,-0.2462 -0.5437 -0.5437ZM 260.1464,240.6566 ZM 262.7933,237.0146 c 0.0000,-0.0718 0.0103,-0.1539 0.1026 -0.2052c 0.1129,-0.0821 0.2975,-0.1744 0.4514 -0.1744c 0.1334,-0.0000 0.1436,0.1129 0.1436 0.3180v 1.6518 h 0.8310 l -0.0616,0.4822 h -0.7694 v 0.8515 c 0.0000,0.2873 0.0410,0.4309 0.3386 0.4309h 0.2770 c 0.0616,-0.0000 0.0718,0.0513 0.0718 0.0718v 0.2257 c 0.0000,-0.0000 -0.6566,-0.0205 -1.0875 -0.0205c -0.3899,-0.0000 -0.9952,0.0205 -0.9952 0.0205v -0.2257 c 0.0000,-0.0205 0.0103,-0.0718 0.0718 -0.0718h 0.2770 c 0.3180,-0.0000 0.3488,-0.1334 0.3488 -0.4309v -0.8515 h -2.0108 c -0.0410,-0.0000 -0.0616,-0.0205 -0.0923 -0.0616l -0.0821,-0.1129 l -0.1231,-0.2154 c -0.0103,-0.0000 -0.0103,-0.0103 -0.0103 -0.0205c 0.0000,-0.0103 0.0103,-0.0205 0.0205 -0.0308c 0.6669,-0.7387 1.8467,-3.0265 2.2160 -3.8678c 0.0103,-0.0410 0.0308,-0.0513 0.0718 -0.0513c 0.0103,-0.0000 0.2360,0.0923 0.3591 0.1129c -0.4617,1.2414 -1.2209,2.5751 -1.9698 3.7652h 1.6210 v -1.5902 Z"/></g><g stroke-linejoin="miter" stroke-opacity="0.6" fill-opacity="0.0" stroke="rgb(0,0,0)" stroke-width="1.2498543412714864" fill="rgb(0,0,0)" stroke-linecap="butt" stroke-miterlimit="10.0"><path d="M 259.0230,224.5252 v 4.6398 "/></g><g stroke-linejoin="miter" stroke-opacity="1.0" fill-opacity="0.6" stroke="rgb(0,0,0)" fill-rule="evenodd" stroke-width="0.0" fill="rgb(0,0,0)" stroke-linecap="butt" stroke-miterlimit="10.0"><path d="M 230.2071,240.6566 ZM 232.4539,235.0858 c -0.4412,-0.0000 -1.0875,0.4309 -1.0875 2.8213c 0.0000,0.8413 0.1539,2.5341 1.0567 2.5341c 0.1744,-0.0000 0.6669,-0.1129 0.8823 -0.9131c 0.1334,-0.4924 0.2052,-1.1080 0.2052 -2.0006c 0.0000,-1.3029 -0.3283,-2.0313 -0.6258 -2.2878c -0.1129,-0.1026 -0.2667,-0.1539 -0.4309 -0.1539ZM 232.4539,235.0858 ZM 232.4129,240.7798 c -1.0977,-0.0000 -1.8364,-1.4055 -1.8364 -2.9752c 0.0000,-1.9185 0.9131,-3.0778 1.8775 -3.0778c 0.4412,-0.0000 0.8823,0.2770 1.1798 0.6771c 0.4309,0.5745 0.6566,1.3440 0.6566 2.3083c 0.0000,2.2776 -1.1285,3.0675 -1.8775 3.0675ZM 234.7007,240.6566 ZM 235.2855,240.2360 c 0.0000,-0.2975 0.2462,-0.5437 0.5437 -0.5437c 0.2975,-0.0000 0.5437,0.2462 0.5437 0.5437c 0.0000,0.2975 -0.2462,0.5437 -0.5437 0.5437c -0.2975,-0.0000 -0.5437,-0.2462 -0.5437 -0.5437ZM 236.9475,240.6566 ZM 239.1635,235.0448 c -0.2565,-0.0000 -1.0054,0.1436 -1.0054 0.7694c 0.0000,0.1847 -0.0718,0.5027 -0.3488 0.5027c -0.2667,-0.0000 -0.2873,-0.2975 -0.2873 -0.3283c 0.0000,-0.3180 0.4206,-1.2619 1.8467 -1.2619c 0.9952,-0.0000 1.2927,0.6258 1.2927 1.0362c 0.0000,0.2565 -0.0821,0.7694 -1.0054 1.3542c 0.5745,0.0923 1.3337,0.5130 1.3337 1.5799c 0.0000,1.3542 -1.0259,2.0826 -2.1852 2.0826c -0.5848,-0.0000 -1.4055,-0.2565 -1.4055 -0.6463c 0.0000,-0.1539 0.1539,-0.3283 0.3591 -0.3283c 0.1949,-0.0000 0.2873,0.1026 0.3796 0.2360c 0.1129,0.1744 0.2975,0.4206 0.7900 0.4206c 0.3386,-0.0000 1.3029,-0.3386 1.3029 -1.6312c 0.0000,-1.0977 -0.7694,-1.2722 -1.3235 -1.2722c -0.0923,-0.0000 -0.2052,0.0205 -0.3180 0.0410l -0.0410,-0.3078 c 0.7900,-0.1334 1.4466,-0.9028 1.4466 -1.3747c 0.0000,-0.5848 -0.4104,-0.8720 -0.8310 -0.8720Z"/></g><g stroke-linejoin="miter" stroke-opacity="0.6" fill-opacity="0.0" stroke="rgb(0,0,0)" stroke-width="1.2498543412714864" fill="rgb(0,0,0)" stroke-linecap="butt" stroke-miterlimit="10.0"><path d="M 235.8241,224.5252 v 4.6398 "/></g><g stroke-linejoin="miter" stroke-opacity="1.0" fill-opacity="0.6" stroke="rgb(0,0,0)" fill-rule="evenodd" stroke-width="0.0" fill="rgb(0,0,0)" stroke-linecap="butt" stroke-miterlimit="10.0"><path d="M 207.0083,240.6566 ZM 209.2551,235.0858 c -0.4412,-0.0000 -1.0875,0.4309 -1.0875 2.8213c 0.0000,0.8413 0.1539,2.5341 1.0567 2.5341c 0.1744,-0.0000 0.6669,-0.1129 0.8823 -0.9131c 0.1334,-0.4924 0.2052,-1.1080 0.2052 -2.0006c 0.0000,-1.3029 -0.3283,-2.0313 -0.6258 -2.2878c -0.1129,-0.1026 -0.2667,-0.1539 -0.4309 -0.1539ZM 209.2551,235.0858 ZM 209.2140,240.7798 c -1.0977,-0.0000 -1.8364,-1.4055 -1.8364 -2.9752c 0.0000,-1.9185 0.9131,-3.0778 1.8775 -3.0778c 0.4412,-0.0000 0.8823,0.2770 1.1798 0.6771c 0.4309,0.5745 0.6566,1.3440 0.6566 2.3083c 0.0000,2.2776 -1.1285,3.0675 -1.8775 3.0675ZM 211.5018,240.6566 ZM 212.0866,240.2360 c 0.0000,-0.2975 0.2462,-0.5437 0.5437 -0.5437c 0.2975,-0.0000 0.5437,0.2462 0.5437 0.5437c 0.0000,0.2975 -0.2462,0.5437 -0.5437 0.5437c -0.2975,-0.0000 -0.5437,-0.2462 -0.5437 -0.5437ZM 213.7486,240.6566 ZM 214.3437,236.1118 c 0.0000,-0.5848 0.5643,-1.3850 1.6415 -1.3850c 0.7900,-0.0000 1.7133,0.2975 1.7133 1.4773c 0.0000,0.7797 -0.4001,1.1696 -0.9541 1.7030l -0.9746,0.9439 c -0.0513,0.0513 -0.7387,0.7284 -0.7387 1.2106h 1.7441 c 0.3488,-0.0000 0.5335,-0.1744 0.6771 -0.7387l 0.2565,0.0410 l -0.2052,1.2927 h -3.1701 c 0.0000,-0.5745 0.0923,-1.0157 1.0465 -1.9903l 0.7182,-0.7079 c 0.5745,-0.5848 0.8105,-1.0875 0.8105 -1.7133c 0.0000,-0.9336 -0.6361,-1.2003 -0.9849 -1.2003c -0.7079,-0.0000 -0.9028,0.3693 -0.9028 0.6156c 0.0000,0.0821 0.0205,0.1641 0.0410 0.2360c 0.0205,0.0718 0.0410,0.1436 0.0410 0.2257c 0.0000,0.2667 -0.2052,0.3693 -0.3693 0.3693c -0.2257,-0.0000 -0.3899,-0.1744 -0.3899 -0.3796Z"/></g><g stroke-linejoin="miter" stroke-opacity="0.6" fill-opacity="0.0" stroke="rgb(0,0,0)" stroke-width="1.2498543412714864" fill="rgb(0,0,0)" stroke-linecap="butt" stroke-miterlimit="10.0"><path d="M 212.6252,224.5252 v 4.6398 "/></g><g stroke-linejoin="miter" stroke-opacity="1.0" fill-opacity="0.6" stroke="rgb(0,0,0)" fill-rule="evenodd" stroke-width="0.0" fill="rgb(0,0,0)" stroke-linecap="butt" stroke-miterlimit="10.0"><path d="M 183.8094,240.6566 ZM 186.0562,235.0858 c -0.4412,-0.0000 -1.0875,0.4309 -1.0875 2.8213c 0.0000,0.8413 0.1539,2.5341 1.0567 2.5341c 0.1744,-0.0000 0.6669,-0.1129 0.8823 -0.9131c 0.1334,-0.4924 0.2052,-1.1080 0.2052 -2.0006c 0.0000,-1.3029 -0.3283,-2.0313 -0.6258 -2.2878c -0.1129,-0.1026 -0.2667,-0.1539 -0.4309 -0.1539ZM 186.0562,235.0858 ZM 186.0151,240.7798 c -1.0977,-0.0000 -1.8364,-1.4055 -1.8364 -2.9752c 0.0000,-1.9185 0.9131,-3.0778 1.8775 -3.0778c 0.4412,-0.0000 0.8823,0.2770 1.1798 0.6771c 0.4309,0.5745 0.6566,1.3440 0.6566 2.3083c 0.0000,2.2776 -1.1285,3.0675 -1.8775 3.0675ZM 188.3030,240.6566 ZM 188.8877,240.2360 c 0.0000,-0.2975 0.2462,-0.5437 0.5437 -0.5437c 0.2975,-0.0000 0.5437,0.2462 0.5437 0.5437c 0.0000,0.2975 -0.2462,0.5437 -0.5437 0.5437c -0.2975,-0.0000 -0.5437,-0.2462 -0.5437 -0.5437ZM 190.5498,240.6566 ZM 192.4785,235.7630 c -0.1949,-0.0000 -0.6463,0.1847 -0.8720 0.2873l -0.1231,-0.3180 c 0.9028,-0.4206 1.2516,-0.6361 1.7646 -1.0054h 0.1949 v 5.1604 c 0.0000,0.3693 0.0513,0.4719 0.3899 0.4719h 0.5335 c 0.0308,-0.0000 0.0821,0.0205 0.0821 0.0821v 0.2257 l -1.4055,-0.0205 l -1.4260,0.0205 v -0.2257 c 0.0103,-0.0308 0.0205,-0.0821 0.0821 -0.0821h 0.6156 c 0.3899,-0.0000 0.3899,-0.1744 0.3899 -0.4719v -3.5292 c 0.0000,-0.3488 0.0000,-0.5950 -0.2257 -0.5950Z"/></g><g stroke-linejoin="miter" stroke-opacity="0.6" fill-opacity="0.0" stroke="rgb(0,0,0)" stroke-width="1.2498543412714864" fill="rgb(0,0,0)" stroke-linecap="butt" stroke-miterlimit="10.0"><path d="M 189.4264,224.5252 v 4.6398 "/></g><g stroke-linejoin="miter" stroke-opacity="1.0" fill-opacity="0.6" stroke="rgb(0,0,0)" fill-rule="evenodd" stroke-width="0.0" fill="rgb(0,0,0)" stroke-linecap="butt" stroke-miterlimit="10.0"><path d="M 160.6105,240.6566 ZM 162.8573,235.0858 c -0.4412,-0.0000 -1.0875,0.4309 -1.0875 2.8213c 0.0000,0.8413 0.1539,2.5341 1.0567 2.5341c 0.1744,-0.0000 0.6669,-0.1129 0.8823 -0.9131c 0.1334,-0.4924 0.2052,-1.1080 0.2052 -2.0006c 0.0000,-1.3029 -0.3283,-2.0313 -0.6258 -2.2878c -0.1129,-0.1026 -0.2667,-0.1539 -0.4309 -0.1539ZM 162.8573,235.0858 ZM 162.8163,240.7798 c -1.0977,-0.0000 -1.8364,-1.4055 -1.8364 -2.9752c 0.0000,-1.9185 0.9131,-3.0778 1.8775 -3.0778c 0.4412,-0.0000 0.8823,0.2770 1.1798 0.6771c 0.4309,0.5745 0.6566,1.3440 0.6566 2.3083c 0.0000,2.2776 -1.1285,3.0675 -1.8775 3.0675ZM 165.1041,240.6566 ZM 165.6889,240.2360 c 0.0000,-0.2975 0.2462,-0.5437 0.5437 -0.5437c 0.2975,-0.0000 0.5437,0.2462 0.5437 0.5437c 0.0000,0.2975 -0.2462,0.5437 -0.5437 0.5437c -0.2975,-0.0000 -0.5437,-0.2462 -0.5437 -0.5437ZM 167.3509,240.6566 ZM 169.5977,235.0858 c -0.4412,-0.0000 -1.0875,0.4309 -1.0875 2.8213c 0.0000,0.8413 0.1539,2.5341 1.0567 2.5341c 0.1744,-0.0000 0.6669,-0.1129 0.8823 -0.9131c 0.1334,-0.4924 0.2052,-1.1080 0.2052 -2.0006c 0.0000,-1.3029 -0.3283,-2.0313 -0.6258 -2.2878c -0.1129,-0.1026 -0.2667,-0.1539 -0.4309 -0.1539ZM 169.5977,235.0858 ZM 169.5566,240.7798 c -1.0977,-0.0000 -1.8364,-1.4055 -1.8364 -2.9752c 0.0000,-1.9185 0.9131,-3.0778 1.8775 -3.0778c 0.4412,-0.0000 0.8823,0.2770 1.1798 0.6771c 0.4309,0.5745 0.6566,1.3440 0.6566 2.3083c 0.0000,2.2776 -1.1285,3.0675 -1.8775 3.0675Z"/></g><g stroke-linejoin="miter" stroke-opacity="0.6" fill-opacity="0.0" stroke="rgb(0,0,0)" stroke-width="1.2498543412714864" fill="rgb(0,0,0)" stroke-linecap="butt" stroke-miterlimit="10.0"><path d="M 166.2275,224.5252 v 4.6398 "/></g><g stroke-linejoin="miter" stroke-opacity="1.0" fill-opacity="0.6" stroke="rgb(0,0,0)" fill-rule="evenodd" stroke-width="0.0" fill="rgb(0,0,0)" stroke-linecap="butt" stroke-miterlimit="10.0"><path d="M 135.7034,240.6566 ZM 138.5145,238.2354 h -2.3186 c -0.0923,-0.0000 -0.1539,-0.0821 -0.1539 -0.1744c 0.0000,-0.1641 0.1334,-0.3796 0.2565 -0.3796h 2.3494 c 0.1026,-0.0000 0.1436,0.0923 0.1436 0.1847c 0.0000,0.1129 -0.1436,0.3693 -0.2770 0.3693ZM 139.1198,240.6566 ZM 141.3666,235.0858 c -0.4412,-0.0000 -1.0875,0.4309 -1.0875 2.8213c 0.0000,0.8413 0.1539,2.5341 1.0567 2.5341c 0.1744,-0.0000 0.6669,-0.1129 0.8823 -0.9131c 0.1334,-0.4924 0.2052,-1.1080 0.2052 -2.0006c 0.0000,-1.3029 -0.3283,-2.0313 -0.6258 -2.2878c -0.1129,-0.1026 -0.2667,-0.1539 -0.4309 -0.1539ZM 141.3666,235.0858 ZM 141.3256,240.7798 c -1.0977,-0.0000 -1.8364,-1.4055 -1.8364 -2.9752c 0.0000,-1.9185 0.9131,-3.0778 1.8775 -3.0778c 0.4412,-0.0000 0.8823,0.2770 1.1798 0.6771c 0.4309,0.5745 0.6566,1.3440 0.6566 2.3083c 0.0000,2.2776 -1.1285,3.0675 -1.8775 3.0675ZM 143.6134,240.6566 ZM 144.1982,240.2360 c 0.0000,-0.2975 0.2462,-0.5437 0.5437 -0.5437c 0.2975,-0.0000 0.5437,0.2462 0.5437 0.5437c 0.0000,0.2975 -0.2462,0.5437 -0.5437 0.5437c -0.2975,-0.0000 -0.5437,-0.2462 -0.5437 -0.5437ZM 145.8602,240.6566 ZM 147.7889,235.7630 c -0.1949,-0.0000 -0.6463,0.1847 -0.8720 0.2873l -0.1231,-0.3180 c 0.9028,-0.4206 1.2516,-0.6361 1.7646 -1.0054h 0.1949 v 5.1604 c 0.0000,0.3693 0.0513,0.4719 0.3899 0.4719h 0.5335 c 0.0308,-0.0000 0.0821,0.0205 0.0821 0.0821v 0.2257 l -1.4055,-0.0205 l -1.4260,0.0205 v -0.2257 c 0.0103,-0.0308 0.0205,-0.0821 0.0821 -0.0821h 0.6156 c 0.3899,-0.0000 0.3899,-0.1744 0.3899 -0.4719v -3.5292 c 0.0000,-0.3488 0.0000,-0.5950 -0.2257 -0.5950Z"/></g><g stroke-linejoin="miter" stroke-opacity="0.6" fill-opacity="0.0" stroke="rgb(0,0,0)" stroke-width="1.2498543412714864" fill="rgb(0,0,0)" stroke-linecap="butt" stroke-miterlimit="10.0"><path d="M 143.0286,224.5252 v 4.6398 "/></g><g stroke-linejoin="miter" stroke-opacity="1.0" fill-opacity="0.6" stroke="rgb(0,0,0)" fill-rule="evenodd" stroke-width="0.0" fill="rgb(0,0,0)" stroke-linecap="butt" stroke-miterlimit="10.0"><path d="M 112.5046,240.6566 ZM 115.3156,238.2354 h -2.3186 c -0.0923,-0.0000 -0.1539,-0.0821 -0.1539 -0.1744c 0.0000,-0.1641 0.1334,-0.3796 0.2565 -0.3796h 2.3494 c 0.1026,-0.0000 0.1436,0.0923 0.1436 0.1847c 0.0000,0.1129 -0.1436,0.3693 -0.2770 0.3693ZM 115.9209,240.6566 ZM 118.1677,235.0858 c -0.4412,-0.0000 -1.0875,0.4309 -1.0875 2.8213c 0.0000,0.8413 0.1539,2.5341 1.0567 2.5341c 0.1744,-0.0000 0.6669,-0.1129 0.8823 -0.9131c 0.1334,-0.4924 0.2052,-1.1080 0.2052 -2.0006c 0.0000,-1.3029 -0.3283,-2.0313 -0.6258 -2.2878c -0.1129,-0.1026 -0.2667,-0.1539 -0.4309 -0.1539ZM 118.1677,235.0858 ZM 118.1267,240.7798 c -1.0977,-0.0000 -1.8364,-1.4055 -1.8364 -2.9752c 0.0000,-1.9185 0.9131,-3.0778 1.8775 -3.0778c 0.4412,-0.0000 0.8823,0.2770 1.1798 0.6771c 0.4309,0.5745 0.6566,1.3440 0.6566 2.3083c 0.0000,2.2776 -1.1285,3.0675 -1.8775 3.0675ZM 120.4145,240.6566 ZM 120.9993,240.2360 c 0.0000,-0.2975 0.2462,-0.5437 0.5437 -0.5437c 0.2975,-0.0000 0.5437,0.2462 0.5437 0.5437c 0.0000,0.2975 -0.2462,0.5437 -0.5437 0.5437c -0.2975,-0.0000 -0.5437,-0.2462 -0.5437 -0.5437ZM 122.6613,240.6566 ZM 123.2563,236.1118 c 0.0000,-0.5848 0.5643,-1.3850 1.6415 -1.3850c 0.7900,-0.0000 1.7133,0.2975 1.7133 1.4773c 0.0000,0.7797 -0.4001,1.1696 -0.9541 1.7030l -0.9746,0.9439 c -0.0513,0.0513 -0.7387,0.7284 -0.7387 1.2106h 1.7441 c 0.3488,-0.0000 0.5335,-0.1744 0.6771 -0.7387l 0.2565,0.0410 l -0.2052,1.2927 h -3.1701 c 0.0000,-0.5745 0.0923,-1.0157 1.0465 -1.9903l 0.7182,-0.7079 c 0.5745,-0.5848 0.8105,-1.0875 0.8105 -1.7133c 0.0000,-0.9336 -0.6361,-1.2003 -0.9849 -1.2003c -0.7079,-0.0000 -0.9028,0.3693 -0.9028 0.6156c 0.0000,0.0821 0.0205,0.1641 0.0410 0.2360c 0.0205,0.0718 0.0410,0.1436 0.0410 0.2257c 0.0000,0.2667 -0.2052,0.3693 -0.3693 0.3693c -0.2257,-0.0000 -0.3899,-0.1744 -0.3899 -0.3796Z"/></g><g stroke-linejoin="miter" stroke-opacity="0.6" fill-opacity="0.0" stroke="rgb(0,0,0)" stroke-width="1.2498543412714864" fill="rgb(0,0,0)" stroke-linecap="butt" stroke-miterlimit="10.0"><path d="M 119.8297,224.5252 v 4.6398 "/></g><g stroke-linejoin="miter" stroke-opacity="1.0" fill-opacity="0.6" stroke="rgb(0,0,0)" fill-rule="evenodd" stroke-width="0.0" fill="rgb(0,0,0)" stroke-linecap="butt" stroke-miterlimit="10.0"><path d="M 89.3057,240.6566 ZM 92.1167,238.2354 h -2.3186 c -0.0923,-0.0000 -0.1539,-0.0821 -0.1539 -0.1744c 0.0000,-0.1641 0.1334,-0.3796 0.2565 -0.3796h 2.3494 c 0.1026,-0.0000 0.1436,0.0923 0.1436 0.1847c 0.0000,0.1129 -0.1436,0.3693 -0.2770 0.3693ZM 92.7220,240.6566 ZM 94.9688,235.0858 c -0.4412,-0.0000 -1.0875,0.4309 -1.0875 2.8213c 0.0000,0.8413 0.1539,2.5341 1.0567 2.5341c 0.1744,-0.0000 0.6669,-0.1129 0.8823 -0.9131c 0.1334,-0.4924 0.2052,-1.1080 0.2052 -2.0006c 0.0000,-1.3029 -0.3283,-2.0313 -0.6258 -2.2878c -0.1129,-0.1026 -0.2667,-0.1539 -0.4309 -0.1539ZM 94.9688,235.0858 ZM 94.9278,240.7798 c -1.0977,-0.0000 -1.8364,-1.4055 -1.8364 -2.9752c 0.0000,-1.9185 0.9131,-3.0778 1.8775 -3.0778c 0.4412,-0.0000 0.8823,0.2770 1.1798 0.6771c 0.4309,0.5745 0.6566,1.3440 0.6566 2.3083c 0.0000,2.2776 -1.1285,3.0675 -1.8775 3.0675ZM 97.2156,240.6566 ZM 97.8004,240.2360 c 0.0000,-0.2975 0.2462,-0.5437 0.5437 -0.5437c 0.2975,-0.0000 0.5437,0.2462 0.5437 0.5437c 0.0000,0.2975 -0.2462,0.5437 -0.5437 0.5437c -0.2975,-0.0000 -0.5437,-0.2462 -0.5437 -0.5437ZM 99.4624,240.6566 ZM 101.6784,235.0448 c -0.2565,-0.0000 -1.0054,0.1436 -1.0054 0.7694c 0.0000,0.1847 -0.0718,0.5027 -0.3488 0.5027c -0.2667,-0.0000 -0.2873,-0.2975 -0.2873 -0.3283c 0.0000,-0.3180 0.4206,-1.2619 1.8467 -1.2619c 0.9952,-0.0000 1.2927,0.6258 1.2927 1.0362c 0.0000,0.2565 -0.0821,0.7694 -1.0054 1.3542c 0.5745,0.0923 1.3337,0.5130 1.3337 1.5799c 0.0000,1.3542 -1.0259,2.0826 -2.1852 2.0826c -0.5848,-0.0000 -1.4055,-0.2565 -1.4055 -0.6463c 0.0000,-0.1539 0.1539,-0.3283 0.3591 -0.3283c 0.1949,-0.0000 0.2873,0.1026 0.3796 0.2360c 0.1129,0.1744 0.2975,0.4206 0.7900 0.4206c 0.3386,-0.0000 1.3029,-0.3386 1.3029 -1.6312c 0.0000,-1.0977 -0.7694,-1.2722 -1.3235 -1.2722c -0.0923,-0.0000 -0.2052,0.0205 -0.3180 0.0410l -0.0410,-0.3078 c 0.7900,-0.1334 1.4466,-0.9028 1.4466 -1.3747c 0.0000,-0.5848 -0.4104,-0.8720 -0.8310 -0.8720Z"/></g><g stroke-linejoin="miter" stroke-opacity="0.6" fill-opacity="0.0" stroke="rgb(0,0,0)" stroke-width="1.2498543412714864" fill="rgb(0,0,0)" stroke-linecap="butt" stroke-miterlimit="10.0"><path d="M 96.6308,224.5252 v 4.6398 "/></g><g stroke-linejoin="miter" stroke-opacity="1.0" fill-opacity="0.6" stroke="rgb(0,0,0)" fill-rule="evenodd" stroke-width="0.0" fill="rgb(0,0,0)" stroke-linecap="butt" stroke-miterlimit="10.0"><path d="M 66.1068,240.6566 ZM 68.9179,238.2354 h -2.3186 c -0.0923,-0.0000 -0.1539,-0.0821 -0.1539 -0.1744c 0.0000,-0.1641 0.1334,-0.3796 0.2565 -0.3796h 2.3494 c 0.1026,-0.0000 0.1436,0.0923 0.1436 0.1847c 0.0000,0.1129 -0.1436,0.3693 -0.2770 0.3693ZM 69.5232,240.6566 ZM 71.7700,235.0858 c -0.4412,-0.0000 -1.0875,0.4309 -1.0875 2.8213c 0.0000,0.8413 0.1539,2.5341 1.0567 2.5341c 0.1744,-0.0000 0.6669,-0.1129 0.8823 -0.9131c 0.1334,-0.4924 0.2052,-1.1080 0.2052 -2.0006c 0.0000,-1.3029 -0.3283,-2.0313 -0.6258 -2.2878c -0.1129,-0.1026 -0.2667,-0.1539 -0.4309 -0.1539ZM 71.7700,235.0858 ZM 71.7289,240.7798 c -1.0977,-0.0000 -1.8364,-1.4055 -1.8364 -2.9752c 0.0000,-1.9185 0.9131,-3.0778 1.8775 -3.0778c 0.4412,-0.0000 0.8823,0.2770 1.1798 0.6771c 0.4309,0.5745 0.6566,1.3440 0.6566 2.3083c 0.0000,2.2776 -1.1285,3.0675 -1.8775 3.0675ZM 74.0167,240.6566 ZM 74.6015,240.2360 c 0.0000,-0.2975 0.2462,-0.5437 0.5437 -0.5437c 0.2975,-0.0000 0.5437,0.2462 0.5437 0.5437c 0.0000,0.2975 -0.2462,0.5437 -0.5437 0.5437c -0.2975,-0.0000 -0.5437,-0.2462 -0.5437 -0.5437ZM 76.2635,240.6566 ZM 78.9104,237.0146 c 0.0000,-0.0718 0.0103,-0.1539 0.1026 -0.2052c 0.1129,-0.0821 0.2975,-0.1744 0.4514 -0.1744c 0.1334,-0.0000 0.1436,0.1129 0.1436 0.3180v 1.6518 h 0.8310 l -0.0616,0.4822 h -0.7694 v 0.8515 c 0.0000,0.2873 0.0410,0.4309 0.3386 0.4309h 0.2770 c 0.0616,-0.0000 0.0718,0.0513 0.0718 0.0718v 0.2257 c 0.0000,-0.0000 -0.6566,-0.0205 -1.0875 -0.0205c -0.3899,-0.0000 -0.9952,0.0205 -0.9952 0.0205v -0.2257 c 0.0000,-0.0205 0.0103,-0.0718 0.0718 -0.0718h 0.2770 c 0.3180,-0.0000 0.3488,-0.1334 0.3488 -0.4309v -0.8515 h -2.0108 c -0.0410,-0.0000 -0.0616,-0.0205 -0.0923 -0.0616l -0.0821,-0.1129 l -0.1231,-0.2154 c -0.0103,-0.0000 -0.0103,-0.0103 -0.0103 -0.0205c 0.0000,-0.0103 0.0103,-0.0205 0.0205 -0.0308c 0.6669,-0.7387 1.8467,-3.0265 2.2160 -3.8678c 0.0103,-0.0410 0.0308,-0.0513 0.0718 -0.0513c 0.0103,-0.0000 0.2360,0.0923 0.3591 0.1129c -0.4617,1.2414 -1.2209,2.5751 -1.9698 3.7652h 1.6210 v -1.5902 Z"/></g><g stroke-linejoin="miter" stroke-opacity="0.6" fill-opacity="0.0" stroke="rgb(0,0,0)" stroke-width="1.2498543412714864" fill="rgb(0,0,0)" stroke-linecap="butt" stroke-miterlimit="10.0"><path d="M 73.4320,224.5252 v 4.6398 "/></g><g stroke-linejoin="miter" stroke-opacity="1.0" fill-opacity="0.6" stroke="rgb(0,0,0)" fill-rule="evenodd" stroke-width="0.0" fill="rgb(0,0,0)" stroke-linecap="butt" stroke-miterlimit="10.0"><path d="M 42.9079,240.6566 ZM 45.7190,238.2354 h -2.3186 c -0.0923,-0.0000 -0.1539,-0.0821 -0.1539 -0.1744c 0.0000,-0.1641 0.1334,-0.3796 0.2565 -0.3796h 2.3494 c 0.1026,-0.0000 0.1436,0.0923 0.1436 0.1847c 0.0000,0.1129 -0.1436,0.3693 -0.2770 0.3693ZM 46.3243,240.6566 ZM 48.5711,235.0858 c -0.4412,-0.0000 -1.0875,0.4309 -1.0875 2.8213c 0.0000,0.8413 0.1539,2.5341 1.0567 2.5341c 0.1744,-0.0000 0.6669,-0.1129 0.8823 -0.9131c 0.1334,-0.4924 0.2052,-1.1080 0.2052 -2.0006c 0.0000,-1.3029 -0.3283,-2.0313 -0.6258 -2.2878c -0.1129,-0.1026 -0.2667,-0.1539 -0.4309 -0.1539ZM 48.5711,235.0858 ZM 48.5300,240.7798 c -1.0977,-0.0000 -1.8364,-1.4055 -1.8364 -2.9752c 0.0000,-1.9185 0.9131,-3.0778 1.8775 -3.0778c 0.4412,-0.0000 0.8823,0.2770 1.1798 0.6771c 0.4309,0.5745 0.6566,1.3440 0.6566 2.3083c 0.0000,2.2776 -1.1285,3.0675 -1.8775 3.0675ZM 50.8179,240.6566 ZM 51.4026,240.2360 c 0.0000,-0.2975 0.2462,-0.5437 0.5437 -0.5437c 0.2975,-0.0000 0.5437,0.2462 0.5437 0.5437c 0.0000,0.2975 -0.2462,0.5437 -0.5437 0.5437c -0.2975,-0.0000 -0.5437,-0.2462 -0.5437 -0.5437ZM 53.0647,240.6566 ZM 56.2348,238.9228 c 0.0000,-1.0567 -0.5745,-1.5799 -1.2106 -1.5799c -0.4719,-0.0000 -0.8310,0.0718 -1.2311 0.2360l 0.3283,-2.8008 c 0.3386,0.0308 0.6874,0.0410 1.0465 0.0410c 0.5130,-0.0000 1.0465,-0.0308 1.6005 -0.0923l 0.0616,0.0308 l -0.1539,0.6669 c -0.4001,0.0410 -0.7284,0.0513 -1.0157 0.0513c -0.4617,-0.0000 -0.8105,-0.0410 -1.1696 -0.0821l -0.1949,1.6210 c 0.2154,-0.0821 0.5848,-0.1539 0.9849 -0.1539c 1.0875,-0.0000 1.6928,0.9439 1.6928 1.8877c 0.0000,1.1490 -0.8002,2.0313 -1.9595 2.0313c -0.5848,-0.0000 -1.4363,-0.3283 -1.4363 -0.7284c 0.0000,-0.1949 0.1641,-0.3283 0.3488 -0.3283c 0.2052,-0.0000 0.3386,0.1539 0.4617 0.3180c 0.1539,0.1847 0.3180,0.3899 0.6463 0.3899c 0.6566,-0.0000 1.2003,-0.6156 1.2003 -1.5081Z"/></g><g stroke-linejoin="miter" stroke-opacity="0.6" fill-opacity="0.0" stroke="rgb(0,0,0)" stroke-width="1.2498543412714864" fill="rgb(0,0,0)" stroke-linecap="butt" stroke-miterlimit="10.0"><path d="M 50.2331,224.5252 v 4.6398 "/></g><g stroke-linejoin="miter" stroke-opacity="0.0" fill-opacity="0.0" stroke="rgb(0,0,0)" stroke-width="0.0" fill="rgb(0,0,0)" stroke-linecap="butt" stroke-miterlimit="10.0"><path d="M 282.2219,218.3388 l -0.0000,-154.6592 h -231.9888 l -0.0000,154.6592 Z"/></g></svg>