<?xml version="1.0" encoding="UTF-8"?>
<!DOCTYPE svg PUBLIC "-//W3C//DTD SVG 1.1//EN"
    "http://www.w3.org/Graphics/SVG/1.1/DTD/svg11.dtd"><svg xmlns="http://www.w3.org/2000/svg" height="300.0000" stroke-opacity="1" viewBox="0 0 300 300" font-size="1" width="300.0000" xmlns:xlink="http://www.w3.org/1999/xlink" stroke="rgb(0,0,0)" version="1.1"><defs></defs><g stroke-linejoin="miter" stroke-opacity="0.0" fill-opacity="0.1" stroke="rgb(0,0,0)" stroke-width="0.0" fill="rgb(0,0,0)" stroke-linecap="butt" stroke-miterlimit="10.0"><path d="M 36.6361,219.6822 l -0.0000,-154.6592 h -3.0932 l -0.0000,154.6592 Z"/></g><g stroke-linejoin="miter" stroke-opacity="1.0" fill-opacity="0.6" stroke="rgb(0,0,0)" fill-rule="evenodd" stroke-width="0.0" fill="rgb(0,0,0)" stroke-linecap="butt" stroke-miterlimit="10.0"><path d="M 18.4425,65.0230 ZM 20.6893,59.4522 c -0.4412,-0.0000 -1.0875,0.4309 -1.0875 2.8213c 0.0000,0.8413 0.1539,2.5341 1.0567 2.5341c 0.1744,-0.0000 0.6669,-0.1129 0.8823 -0.9131c 0.1334,-0.4924 0.2052,-1.1080 0.2052 -2.0006c 0.0000,-1.3029 -0.3283,-2.0313 -0.6258 -2.2878c -0.1129,-0.1026 -0.2667,-0.1539 -0.4309 -0.1539ZM 20.6893,59.4522 ZM 20.6483,65.1462 c -1.0977,-0.0000 -1.8364,-1.4055 -1.8364 -2.9752c 0.0000,-1.9185 0.9131,-3.0778 1.8775 -3.0778c 0.4412,-0.0000 0.8823,0.2770 1.1798 0.6771c 0.4309,0.5745 0.6566,1.3440 0.6566 2.3083c 0.0000,2.2776 -1.1285,3.0675 -1.8775 3.0675ZM 22.9361,65.0230 ZM 23.5209,64.6024 c 0.0000,-0.2975 0.2462,-0.5437 0.5437 -0.5437c 0.2975,-0.0000 0.5437,0.2462 0.5437 0.5437c 0.0000,0.2975 -0.2462,0.5437 -0.5437 0.5437c -0.2975,-0.0000 -0.5437,-0.2462 -0.5437 -0.5437ZM 25.1829,65.0230 ZM 28.3530,63.2892 c 0.0000,-1.0567 -0.5745,-1.5799 -1.2106 -1.5799c -0.4719,-0.0000 -0.8310,0.0718 -1.2311 0.2360l 0.3283,-2.8008 c 0.3386,0.0308 0.6874,0.0410 1.0465 0.0410c 0.5130,-0.0000 1.0465,-0.0308 1.6005 -0.0923l 0.0616,0.0308 l -0.1539,0.6669 c -0.4001,0.0410 -0.7284,0.0513 -1.0157 0.0513c -0.4617,-0.0000 -0.8105,-0.0410 -1.1696 -0.0821l -0.1949,1.6210 c 0.2154,-0.0821 0.5848,-0.1539 0.9849 -0.1539c 1.0875,-0.0000 1.6928,0.9439 1.6928 1.8877c 0.0000,1.1490 -0.8002,2.0313 -1.9595 2.0313c -0.5848,-0.0000 -1.4363,-0.3283 -1.4363 -0.7284c 0.0000,-0.1949 0.1641,-0.3283 0.3488 -0.3283c 0.2052,-0.0000 0.3386,0.1539 0.4617 0.3180c 0.1539,0.1847 0.3180,0.3899 0.6463 0.3899c 0.6566,-0.0000 1.2003,-0.6156 1.2003 -1.5081Z"/></g><g stroke-linejoin="miter" stroke-opacity="0.6" fill-opacity="0.0" stroke="rgb(0,0,0)" stroke-width="1.239962023191193" fill="rgb(0,0,0)" stroke-linecap="butt" stroke-miterlimit="10.0"><path d="M 31.9964,65.0230 h 4.6398 "/></g><g stroke-linejoin="miter" stroke-opacity="1.0" fill-opacity="0.6" stroke="rgb(0,0,0)" fill-rule="evenodd" stroke-width="0.0" fill="rgb(0,0,0)" stroke-linecap="butt" stroke-miterlimit="10.0"><path d="M 18.4425,80.4890 ZM 20.6893,74.9181 c -0.4412,-0.0000 -1.0875,0.4309 -1.0875 2.8213c 0.0000,0.8413 0.1539,2.5341 1.0567 2.5341c 0.1744,-0.0000 0.6669,-0.1129 0.8823 -0.9131c 0.1334,-0.4924 0.2052,-1.1080 0.2052 -2.0006c 0.0000,-1.3029 -0.3283,-2.0313 -0.6258 -2.2878c -0.1129,-0.1026 -0.2667,-0.1539 -0.4309 -0.1539ZM 20.6893,74.9181 ZM 20.6483,80.6121 c -1.0977,-0.0000 -1.8364,-1.4055 -1.8364 -2.9752c 0.0000,-1.9185 0.9131,-3.0778 1.8775 -3.0778c 0.4412,-0.0000 0.8823,0.2770 1.1798 0.6771c 0.4309,0.5745 0.6566,1.3440 0.6566 2.3083c 0.0000,2.2776 -1.1285,3.0675 -1.8775 3.0675ZM 22.9361,80.4890 ZM 23.5209,80.0683 c 0.0000,-0.2975 0.2462,-0.5437 0.5437 -0.5437c 0.2975,-0.0000 0.5437,0.2462 0.5437 0.5437c 0.0000,0.2975 -0.2462,0.5437 -0.5437 0.5437c -0.2975,-0.0000 -0.5437,-0.2462 -0.5437 -0.5437ZM 25.1829,80.4890 ZM 27.8298,76.8469 c 0.0000,-0.0718 0.0103,-0.1539 0.1026 -0.2052c 0.1129,-0.0821 0.2975,-0.1744 0.4514 -0.1744c 0.1334,-0.0000 0.1436,0.1129 0.1436 0.3180v 1.6518 h 0.8310 l -0.0616,0.4822 h -0.7694 v 0.8515 c 0.0000,0.2873 0.0410,0.4309 0.3386 0.4309h 0.2770 c 0.0616,-0.0000 0.0718,0.0513 0.0718 0.0718v 0.2257 c 0.0000,-0.0000 -0.6566,-0.0205 -1.0875 -0.0205c -0.3899,-0.0000 -0.9952,0.0205 -0.9952 0.0205v -0.2257 c 0.0000,-0.0205 0.0103,-0.0718 0.0718 -0.0718h 0.2770 c 0.3180,-0.0000 0.3488,-0.1334 0.3488 -0.4309v -0.8515 h -2.0108 c -0.0410,-0.0000 -0.0616,-0.0205 -0.0923 -0.0616l -0.0821,-0.1129 l -0.1231,-0.2154 c -0.0103,-0.0000 -0.0103,-0.0103 -0.0103 -0.0205c 0.0000,-0.0103 0.0103,-0.0205 0.0205 -0.0308c 0.6669,-0.7387 1.8467,-3.0265 2.2160 -3.8678c 0.0103,-0.0410 0.0308,-0.0513 0.0718 -0.0513c 0.0103,-0.0000 0.2360,0.0923 0.3591 0.1129c -0.4617,1.2414 -1.2209,2.5751 -1.9698 3.7652h 1.6210 v -1.5902 Z"/></g><g stroke-linejoin="miter" stroke-opacity="0.6" fill-opacity="0.0" stroke="rgb(0,0,0)" stroke-width="1.239962023191193" fill="rgb(0,0,0)" stroke-linecap="butt" stroke-miterlimit="10.0"><path d="M 31.9964,80.4890 h 4.6398 "/></g><g stroke-linejoin="miter" stroke-opacity="1.0" fill-opacity="0.6" stroke="rgb(0,0,0)" fill-rule="evenodd" stroke-width="0.0" fill="rgb(0,0,0)" stroke-linecap="butt" stroke-miterlimit="10.0"><path d="M 18.4425,95.9549 ZM 20.6893,90.3841 c -0.4412,-0.0000 -1.0875,0.4309 -1.0875 2.8213c 0.0000,0.8413 0.1539,2.5341 1.0567 2.5341c 0.1744,-0.0000 0.6669,-0.1129 0.8823 -0.9131c 0.1334,-0.4924 0.2052,-1.1080 0.2052 -2.0006c 0.0000,-1.3029 -0.3283,-2.0313 -0.6258 -2.2878c -0.1129,-0.1026 -0.2667,-0.1539 -0.4309 -0.1539ZM 20.6893,90.3841 ZM 20.6483,96.0780 c -1.0977,-0.0000 -1.8364,-1.4055 -1.8364 -2.9752c 0.0000,-1.9185 0.9131,-3.0778 1.8775 -3.0778c 0.4412,-0.0000 0.8823,0.2770 1.1798 0.6771c 0.4309,0.5745 0.6566,1.3440 0.6566 2.3083c 0.0000,2.2776 -1.1285,3.0675 -1.8775 3.0675ZM 22.9361,95.9549 ZM 23.5209,95.5342 c 0.0000,-0.2975 0.2462,-0.5437 0.5437 -0.5437c 0.2975,-0.0000 0.5437,0.2462 0.5437 0.5437c 0.0000,0.2975 -0.2462,0.5437 -0.5437 0.5437c -0.2975,-0.0000 -0.5437,-0.2462 -0.5437 -0.5437ZM 25.1829,95.9549 ZM 27.3989,90.3430 c -0.2565,-0.0000 -1.0054,0.1436 -1.0054 0.7694c 0.0000,0.1847 -0.0718,0.5027 -0.3488 0.5027c -0.2667,-0.0000 -0.2873,-0.2975 -0.2873 -0.3283c 0.0000,-0.3180 0.4206,-1.2619 1.8467 -1.2619c 0.9952,-0.0000 1.2927,0.6258 1.2927 1.0362c 0.0000,0.2565 -0.0821,0.7694 -1.0054 1.3542c 0.5745,0.0923 1.3337,0.5130 1.3337 1.5799c 0.0000,1.3542 -1.0259,2.0826 -2.1852 2.0826c -0.5848,-0.0000 -1.4055,-0.2565 -1.4055 -0.6463c 0.0000,-0.1539 0.1539,-0.3283 0.3591 -0.3283c 0.1949,-0.0000 0.2873,0.1026 0.3796 0.2360c 0.1129,0.1744 0.2975,0.4206 0.7900 0.4206c 0.3386,-0.0000 1.3029,-0.3386 1.3029 -1.6312c 0.0000,-1.0977 -0.7694,-1.2722 -1.3235 -1.2722c -0.0923,-0.0000 -0.2052,0.0205 -0.3180 0.0410l -0.0410,-0.3078 c 0.7900,-0.1334 1.4466,-0.9028 1.4466 -1.3747c 0.0000,-0.5848 -0.4104,-0.8720 -0.8310 -0.8720Z"/></g><g stroke-linejoin="miter" stroke-opacity="0.6" fill-opacity="0.0" stroke="rgb(0,0,0)" stroke-width="1.239962023191193" fill="rgb(0,0,0)" stroke-linecap="butt" stroke-miterlimit="10.0"><path d="M 31.9964,95.9549 h 4.6398 "/></g><g stroke-linejoin="miter" stroke-opacity="1.0" fill-opacity="0.6" stroke="rgb(0,0,0)" fill-rule="evenodd" stroke-width="0.0" fill="rgb(0,0,0)" stroke-linecap="butt" stroke-miterlimit="10.0"><path d="M 18.4425,111.4208 ZM 20.6893,105.8500 c -0.4412,-0.0000 -1.0875,0.4309 -1.0875 2.8213c 0.0000,0.8413 0.1539,2.5341 1.0567 2.5341c 0.1744,-0.0000 0.6669,-0.1129 0.8823 -0.9131c 0.1334,-0.4924 0.2052,-1.1080 0.2052 -2.0006c 0.0000,-1.3029 -0.3283,-2.0313 -0.6258 -2.2878c -0.1129,-0.1026 -0.2667,-0.1539 -0.4309 -0.1539ZM 20.6893,105.8500 ZM 20.6483,111.5439 c -1.0977,-0.0000 -1.8364,-1.4055 -1.8364 -2.9752c 0.0000,-1.9185 0.9131,-3.0778 1.8775 -3.0778c 0.4412,-0.0000 0.8823,0.2770 1.1798 0.6771c 0.4309,0.5745 0.6566,1.3440 0.6566 2.3083c 0.0000,2.2776 -1.1285,3.0675 -1.8775 3.0675ZM 22.9361,111.4208 ZM 23.5209,111.0002 c 0.0000,-0.2975 0.2462,-0.5437 0.5437 -0.5437c 0.2975,-0.0000 0.5437,0.2462 0.5437 0.5437c 0.0000,0.2975 -0.2462,0.5437 -0.5437 0.5437c -0.2975,-0.0000 -0.5437,-0.2462 -0.5437 -0.5437ZM 25.1829,111.4208 ZM 25.7779,106.8759 c 0.0000,-0.5848 0.5643,-1.3850 1.6415 -1.3850c 0.7900,-0.0000 1.7133,0.2975 1.7133 1.4773c 0.0000,0.7797 -0.4001,1.1696 -0.9541 1.7030l -0.9746,0.9439 c -0.0513,0.0513 -0.7387,0.7284 -0.7387 1.2106h 1.7441 c 0.3488,-0.0000 0.5335,-0.1744 0.6771 -0.7387l 0.2565,0.0410 l -0.2052,1.2927 h -3.1701 c 0.0000,-0.5745 0.0923,-1.0157 1.0465 -1.9903l 0.7182,-0.7079 c 0.5745,-0.5848 0.8105,-1.0875 0.8105 -1.7133c 0.0000,-0.9336 -0.6361,-1.2003 -0.9849 -1.2003c -0.7079,-0.0000 -0.9028,0.3693 -0.9028 0.6156c 0.0000,0.0821 0.0205,0.1641 0.0410 0.2360c 0.0205,0.0718 0.0410,0.1436 0.0410 0.2257c 0.0000,0.2667 -0.2052,0.3693 -0.3693 0.3693c -0.2257,-0.0000 -0.3899,-0.1744 -0.3899 -0.3796Z"/></g><g stroke-linejoin="miter" stroke-opacity="0.6" fill-opacity="0.0" stroke="rgb(0,0,0)" stroke-width="1.239962023191193" fill="rgb(0,0,0)" stroke-linecap="butt" stroke-miterlimit="10.0"><path d="M 31.9964,111.4208 h 4.6398 "/></g><g stroke-linejoin="miter" stroke-opacity="1.0" fill-opacity="0.6" stroke="rgb(0,0,0)" fill-rule="evenodd" stroke-width="0.0" fill="rgb(0,0,0)" stroke-linecap="butt" stroke-miterlimit="10.0"><path d="M 18.4425,126.8867 ZM 20.6893,121.3159 c -0.4412,-0.0000 -1.0875,0.4309 -1.0875 2.8213c 0.0000,0.8413 0.1539,2.5341 1.0567 2.5341c 0.1744,-0.0000 0.6669,-0.1129 0.8823 -0.9131c 0.1334,-0.4924 0.2052,-1.1080 0.2052 -2.0006c 0.0000,-1.3029 -0.3283,-2.0313 -0.6258 -2.2878c -0.1129,-0.1026 -0.2667,-0.1539 -0.4309 -0.1539ZM 20.6893,121.3159 ZM 20.6483,127.0098 c -1.0977,-0.0000 -1.8364,-1.4055 -1.8364 -2.9752c 0.0000,-1.9185 0.9131,-3.0778 1.8775 -3.0778c 0.4412,-0.0000 0.8823,0.2770 1.1798 0.6771c 0.4309,0.5745 0.6566,1.3440 0.6566 2.3083c 0.0000,2.2776 -1.1285,3.0675 -1.8775 3.0675ZM 22.9361,126.8867 ZM 23.5209,126.4661 c 0.0000,-0.2975 0.2462,-0.5437 0.5437 -0.5437c 0.2975,-0.0000 0.5437,0.2462 0.5437 0.5437c 0.0000,0.2975 -0.2462,0.5437 -0.5437 0.5437c -0.2975,-0.0000 -0.5437,-0.2462 -0.5437 -0.5437ZM 25.1829,126.8867 ZM 27.1117,121.9930 c -0.1949,-0.0000 -0.6463,0.1847 -0.8720 0.2873l -0.1231,-0.3180 c 0.9028,-0.4206 1.2516,-0.6361 1.7646 -1.0054h 0.1949 v 5.1604 c 0.0000,0.3693 0.0513,0.4719 0.3899 0.4719h 0.5335 c 0.0308,-0.0000 0.0821,0.0205 0.0821 0.0821v 0.2257 l -1.4055,-0.0205 l -1.4260,0.0205 v -0.2257 c 0.0103,-0.0308 0.0205,-0.0821 0.0821 -0.0821h 0.6156 c 0.3899,-0.0000 0.3899,-0.1744 0.3899 -0.4719v -3.5292 c 0.0000,-0.3488 0.0000,-0.5950 -0.2257 -0.5950Z"/></g><g stroke-linejoin="miter" stroke-opacity="0.6" fill-opacity="0.0" stroke="rgb(0,0,0)" stroke-width="1.239962023191193" fill="rgb(0,0,0)" stroke-linecap="butt" stroke-miterlimit="10.0"><path d="M 31.9964,126.8867 h 4.6398 "/></g><g stroke-linejoin="miter" stroke-opacity="1.0" fill-opacity="0.6" stroke="rgb(0,0,0)" fill-rule="evenodd" stroke-width="0.0" fill="rgb(0,0,0)" stroke-linecap="butt" stroke-miterlimit="10.0"><path d="M 18.4425,142.3526 ZM 20.6893,136.7818 c -0.4412,-0.0000 -1.0875,0.4309 -1.0875 2.8213c 0.0000,0.8413 0.1539,2.5341 1.0567 2.5341c 0.1744,-0.0000 0.6669,-0.1129 0.8823 -0.9131c 0.1334,-0.4924 0.2052,-1.1080 0.2052 -2.0006c 0.0000,-1.3029 -0.3283,-2.0313 -0.6258 -2.2878c -0.1129,-0.1026 -0.2667,-0.1539 -0.4309 -0.1539ZM 20.6893,136.7818 ZM 20.6483,142.4758 c -1.0977,-0.0000 -1.8364,-1.4055 -1.8364 -2.9752c 0.0000,-1.9185 0.9131,-3.0778 1.8775 -3.0778c 0.4412,-0.0000 0.8823,0.2770 1.1798 0.6771c 0.4309,0.5745 0.6566,1.3440 0.6566 2.3083c 0.0000,2.2776 -1.1285,3.0675 -1.8775 3.0675ZM 22.9361,142.3526 ZM 23.5209,141.9320 c 0.0000,-0.2975 0.2462,-0.5437 0.5437 -0.5437c 0.2975,-0.0000 0.5437,0.2462 0.5437 0.5437c 0.0000,0.2975 -0.2462,0.5437 -0.5437 0.5437c -0.2975,-0.0000 -0.5437,-0.2462 -0.5437 -0.5437ZM 25.1829,142.3526 ZM 27.4297,136.7818 c -0.4412,-0.0000 -1.0875,0.4309 -1.0875 2.8213c 0.0000,0.8413 0.1539,2.5341 1.0567 2.5341c 0.1744,-0.0000 0.6669,-0.1129 0.8823 -0.9131c 0.1334,-0.4924 0.2052,-1.1080 0.2052 -2.0006c 0.0000,-1.3029 -0.3283,-2.0313 -0.6258 -2.2878c -0.1129,-0.1026 -0.2667,-0.1539 -0.4309 -0.1539ZM 27.4297,136.7818 ZM 27.3887,142.4758 c -1.0977,-0.0000 -1.8364,-1.4055 -1.8364 -2.9752c 0.0000,-1.9185 0.9131,-3.0778 1.8775 -3.0778c 0.4412,-0.0000 0.8823,0.2770 1.1798 0.6771c 0.4309,0.5745 0.6566,1.3440 0.6566 2.3083c 0.0000,2.2776 -1.1285,3.0675 -1.8775 3.0675Z"/></g><g stroke-linejoin="miter" stroke-opacity="0.6" fill-opacity="0.0" stroke="rgb(0,0,0)" stroke-width="1.239962023191193" fill="rgb(0,0,0)" stroke-linecap="butt" stroke-miterlimit="10.0"><path d="M 31.9964,142.3526 h 4.6398 "/></g><g stroke-linejoin="miter" stroke-opacity="1.0" fill-opacity="0.6" stroke="rgb(0,0,0)" fill-rule="evenodd" stroke-width="0.0" fill="rgb(0,0,0)" stroke-linecap="butt" stroke-miterlimit="10.0"><path d="M 15.0262,157.8186 ZM 17.8372,155.3974 h -2.3186 c -0.0923,-0.0000 -0.1539,-0.0821 -0.1539 -0.1744c 0.0000,-0.1641 0.1334,-0.3796 0.2565 -0.3796h 2.3494 c 0.1026,-0.0000 0.1436,0.0923 0.1436 0.1847c 0.0000,0.1129 -0.1436,0.3693 -0.2770 0.3693ZM 18.4425,157.8186 ZM 20.6893,152.2478 c -0.4412,-0.0000 -1.0875,0.4309 -1.0875 2.8213c 0.0000,0.8413 0.1539,2.5341 1.0567 2.5341c 0.1744,-0.0000 0.6669,-0.1129 0.8823 -0.9131c 0.1334,-0.4924 0.2052,-1.1080 0.2052 -2.0006c 0.0000,-1.3029 -0.3283,-2.0313 -0.6258 -2.2878c -0.1129,-0.1026 -0.2667,-0.1539 -0.4309 -0.1539ZM 20.6893,152.2478 ZM 20.6483,157.9417 c -1.0977,-0.0000 -1.8364,-1.4055 -1.8364 -2.9752c 0.0000,-1.9185 0.9131,-3.0778 1.8775 -3.0778c 0.4412,-0.0000 0.8823,0.2770 1.1798 0.6771c 0.4309,0.5745 0.6566,1.3440 0.6566 2.3083c 0.0000,2.2776 -1.1285,3.0675 -1.8775 3.0675ZM 22.9361,157.8186 ZM 23.5209,157.3979 c 0.0000,-0.2975 0.2462,-0.5437 0.5437 -0.5437c 0.2975,-0.0000 0.5437,0.2462 0.5437 0.5437c 0.0000,0.2975 -0.2462,0.5437 -0.5437 0.5437c -0.2975,-0.0000 -0.5437,-0.2462 -0.5437 -0.5437ZM 25.1829,157.8186 ZM 27.1117,152.9249 c -0.1949,-0.0000 -0.6463,0.1847 -0.8720 0.2873l -0.1231,-0.3180 c 0.9028,-0.4206 1.2516,-0.6361 1.7646 -1.0054h 0.1949 v 5.1604 c 0.0000,0.3693 0.0513,0.4719 0.3899 0.4719h 0.5335 c 0.0308,-0.0000 0.0821,0.0205 0.0821 0.0821v 0.2257 l -1.4055,-0.0205 l -1.4260,0.0205 v -0.2257 c 0.0103,-0.0308 0.0205,-0.0821 0.0821 -0.0821h 0.6156 c 0.3899,-0.0000 0.3899,-0.1744 0.3899 -0.4719v -3.5292 c 0.0000,-0.3488 0.0000,-0.5950 -0.2257 -0.5950Z"/></g><g stroke-linejoin="miter" stroke-opacity="0.6" fill-opacity="0.0" stroke="rgb(0,0,0)" stroke-width="1.239962023191193" fill="rgb(0,0,0)" stroke-linecap="butt" stroke-miterlimit="10.0"><path d="M 31.9964,157.8186 h 4.6398 "/></g><g stroke-linejoin="miter" stroke-opacity="1.0" fill-opacity="0.6" stroke="rgb(0,0,0)" fill-rule="evenodd" stroke-width="0.0" fill="rgb(0,0,0)" stroke-linecap="butt" stroke-miterlimit="10.0"><path d="M 15.0262,173.2845 ZM 17.8372,170.8633 h -2.3186 c -0.0923,-0.0000 -0.1539,-0.0821 -0.1539 -0.1744c 0.0000,-0.1641 0.1334,-0.3796 0.2565 -0.3796h 2.3494 c 0.1026,-0.0000 0.1436,0.0923 0.1436 0.1847c 0.0000,0.1129 -0.1436,0.3693 -0.2770 0.3693ZM 18.4425,173.2845 ZM 20.6893,167.7137 c -0.4412,-0.0000 -1.0875,0.4309 -1.0875 2.8213c 0.0000,0.8413 0.1539,2.5341 1.0567 2.5341c 0.1744,-0.0000 0.6669,-0.1129 0.8823 -0.9131c 0.1334,-0.4924 0.2052,-1.1080 0.2052 -2.0006c 0.0000,-1.3029 -0.3283,-2.0313 -0.6258 -2.2878c -0.1129,-0.1026 -0.2667,-0.1539 -0.4309 -0.1539ZM 20.6893,167.7137 ZM 20.6483,173.4076 c -1.0977,-0.0000 -1.8364,-1.4055 -1.8364 -2.9752c 0.0000,-1.9185 0.9131,-3.0778 1.8775 -3.0778c 0.4412,-0.0000 0.8823,0.2770 1.1798 0.6771c 0.4309,0.5745 0.6566,1.3440 0.6566 2.3083c 0.0000,2.2776 -1.1285,3.0675 -1.8775 3.0675ZM 22.9361,173.2845 ZM 23.5209,172.8638 c 0.0000,-0.2975 0.2462,-0.5437 0.5437 -0.5437c 0.2975,-0.0000 0.5437,0.2462 0.5437 0.5437c 0.0000,0.2975 -0.2462,0.5437 -0.5437 0.5437c -0.2975,-0.0000 -0.5437,-0.2462 -0.5437 -0.5437ZM 25.1829,173.2845 ZM 25.7779,168.7396 c 0.0000,-0.5848 0.5643,-1.3850 1.6415 -1.3850c 0.7900,-0.0000 1.7133,0.2975 1.7133 1.4773c 0.0000,0.7797 -0.4001,1.1696 -0.9541 1.7030l -0.9746,0.9439 c -0.0513,0.0513 -0.7387,0.7284 -0.7387 1.2106h 1.7441 c 0.3488,-0.0000 0.5335,-0.1744 0.6771 -0.7387l 0.2565,0.0410 l -0.2052,1.2927 h -3.1701 c 0.0000,-0.5745 0.0923,-1.0157 1.0465 -1.9903l 0.7182,-0.7079 c 0.5745,-0.5848 0.8105,-1.0875 0.8105 -1.7133c 0.0000,-0.9336 -0.6361,-1.2003 -0.9849 -1.2003c -0.7079,-0.0000 -0.9028,0.3693 -0.9028 0.6156c 0.0000,0.0821 0.0205,0.1641 0.0410 0.2360c 0.0205,0.0718 0.0410,0.1436 0.0410 0.2257c 0.0000,0.2667 -0.2052,0.3693 -0.3693 0.3693c -0.2257,-0.0000 -0.3899,-0.1744 -0.3899 -0.3796Z"/></g><g stroke-linejoin="miter" stroke-opacity="0.6" fill-opacity="0.0" stroke="rgb(0,0,0)" stroke-width="1.239962023191193" fill="rgb(0,0,0)" stroke-linecap="butt" stroke-miterlimit="10.0"><path d="M 31.9964,173.2845 h 4.6398 "/></g><g stroke-linejoin="miter" stroke-opacity="1.0" fill-opacity="0.6" stroke="rgb(0,0,0)" fill-rule="evenodd" stroke-width="0.0" fill="rgb(0,0,0)" stroke-linecap="butt" stroke-miterlimit="10.0"><path d="M 15.0262,188.7504 ZM 17.8372,186.3292 h -2.3186 c -0.0923,-0.0000 -0.1539,-0.0821 -0.1539 -0.1744c 0.0000,-0.1641 0.1334,-0.3796 0.2565 -0.3796h 2.3494 c 0.1026,-0.0000 0.1436,0.0923 0.1436 0.1847c 0.0000,0.1129 -0.1436,0.3693 -0.2770 0.3693ZM 18.4425,188.7504 ZM 20.6893,183.1796 c -0.4412,-0.0000 -1.0875,0.4309 -1.0875 2.8213c 0.0000,0.8413 0.1539,2.5341 1.0567 2.5341c 0.1744,-0.0000 0.6669,-0.1129 0.8823 -0.9131c 0.1334,-0.4924 0.2052,-1.1080 0.2052 -2.0006c 0.0000,-1.3029 -0.3283,-2.0313 -0.6258 -2.2878c -0.1129,-0.1026 -0.2667,-0.1539 -0.4309 -0.1539ZM 20.6893,183.1796 ZM 20.6483,188.8735 c -1.0977,-0.0000 -1.8364,-1.4055 -1.8364 -2.9752c 0.0000,-1.9185 0.9131,-3.0778 1.8775 -3.0778c 0.4412,-0.0000 0.8823,0.2770 1.1798 0.6771c 0.4309,0.5745 0.6566,1.3440 0.6566 2.3083c 0.0000,2.2776 -1.1285,3.0675 -1.8775 3.0675ZM 22.9361,188.7504 ZM 23.5209,188.3298 c 0.0000,-0.2975 0.2462,-0.5437 0.5437 -0.5437c 0.2975,-0.0000 0.5437,0.2462 0.5437 0.5437c 0.0000,0.2975 -0.2462,0.5437 -0.5437 0.5437c -0.2975,-0.0000 -0.5437,-0.2462 -0.5437 -0.5437ZM 25.1829,188.7504 ZM 27.3989,183.1386 c -0.2565,-0.0000 -1.0054,0.1436 -1.0054 0.7694c 0.0000,0.1847 -0.0718,0.5027 -0.3488 0.5027c -0.2667,-0.0000 -0.2873,-0.2975 -0.2873 -0.3283c 0.0000,-0.3180 0.4206,-1.2619 1.8467 -1.2619c 0.9952,-0.0000 1.2927,0.6258 1.2927 1.0362c 0.0000,0.2565 -0.0821,0.7694 -1.0054 1.3542c 0.5745,0.0923 1.3337,0.5130 1.3337 1.5799c 0.0000,1.3542 -1.0259,2.0826 -2.1852 2.0826c -0.5848,-0.0000 -1.4055,-0.2565 -1.4055 -0.6463c 0.0000,-0.1539 0.1539,-0.3283 0.3591 -0.3283c 0.1949,-0.0000 0.2873,0.1026 0.3796 0.2360c 0.1129,0.1744 0.2975,0.4206 0.7900 0.4206c 0.3386,-0.0000 1.3029,-0.3386 1.3029 -1.6312c 0.0000,-1.0977 -0.7694,-1.2722 -1.3235 -1.2722c -0.0923,-0.0000 -0.2052,0.0205 -0.3180 0.0410l -0.0410,-0.3078 c 0.7900,-0.1334 1.4466,-0.9028 1.4466 -1.3747c 0.0000,-0.5848 -0.4104,-0.8720 -0.8310 -0.8720Z"/></g><g stroke-linejoin="miter" stroke-opacity="0.6" fill-opacity="0.0" stroke="rgb(0,0,0)" stroke-width="1.239962023191193" fill="rgb(0,0,0)" stroke-linecap="butt" stroke-miterlimit="10.0"><path d="M 31.9964,188.7504 h 4.6398 "/></g><g stroke-linejoin="miter" stroke-opacity="1.0" fill-opacity="0.6" stroke="rgb(0,0,0)" fill-rule="evenodd" stroke-width="0.0" fill="rgb(0,0,0)" stroke-linecap="butt" stroke-miterlimit="10.0"><path d="M 15.0262,204.2163 ZM 17.8372,201.7951 h -2.3186 c -0.0923,-0.0000 -0.1539,-0.0821 -0.1539 -0.1744c 0.0000,-0.1641 0.1334,-0.3796 0.2565 -0.3796h 2.3494 c 0.1026,-0.0000 0.1436,0.0923 0.1436 0.1847c 0.0000,0.1129 -0.1436,0.3693 -0.2770 0.3693ZM 18.4425,204.2163 ZM 20.6893,198.6455 c -0.4412,-0.0000 -1.0875,0.4309 -1.0875 2.8213c 0.0000,0.8413 0.1539,2.5341 1.0567 2.5341c 0.1744,-0.0000 0.6669,-0.1129 0.8823 -0.9131c 0.1334,-0.4924 0.2052,-1.1080 0.2052 -2.0006c 0.0000,-1.3029 -0.3283,-2.0313 -0.6258 -2.2878c -0.1129,-0.1026 -0.2667,-0.1539 -0.4309 -0.1539ZM 20.6893,198.6455 ZM 20.6483,204.3394 c -1.0977,-0.0000 -1.8364,-1.4055 -1.8364 -2.9752c 0.0000,-1.9185 0.9131,-3.0778 1.8775 -3.0778c 0.4412,-0.0000 0.8823,0.2770 1.1798 0.6771c 0.4309,0.5745 0.6566,1.3440 0.6566 2.3083c 0.0000,2.2776 -1.1285,3.0675 -1.8775 3.0675ZM 22.9361,204.2163 ZM 23.5209,203.7957 c 0.0000,-0.2975 0.2462,-0.5437 0.5437 -0.5437c 0.2975,-0.0000 0.5437,0.2462 0.5437 0.5437c 0.0000,0.2975 -0.2462,0.5437 -0.5437 0.5437c -0.2975,-0.0000 -0.5437,-0.2462 -0.5437 -0.5437ZM 25.1829,204.2163 ZM 27.8298,200.5743 c 0.0000,-0.0718 0.0103,-0.1539 0.1026 -0.2052c 0.1129,-0.0821 0.2975,-0.1744 0.4514 -0.1744c 0.1334,-0.0000 0.1436,0.1129 0.1436 0.3180v 1.6518 h 0.8310 l -0.0616,0.4822 h -0.7694 v 0.8515 c 0.0000,0.2873 0.0410,0.4309 0.3386 0.4309h 0.2770 c 0.0616,-0.0000 0.0718,0.0513 0.0718 0.0718v 0.2257 c 0.0000,-0.0000 -0.6566,-0.0205 -1.0875 -0.0205c -0.3899,-0.0000 -0.9952,0.0205 -0.9952 0.0205v -0.2257 c 0.0000,-0.0205 0.0103,-0.0718 0.0718 -0.0718h 0.2770 c 0.3180,-0.0000 0.3488,-0.1334 0.3488 -0.4309v -0.8515 h -2.0108 c -0.0410,-0.0000 -0.0616,-0.0205 -0.0923 -0.0616l -0.0821,-0.1129 l -0.1231,-0.2154 c -0.0103,-0.0000 -0.0103,-0.0103 -0.0103 -0.0205c 0.0000,-0.0103 0.0103,-0.0205 0.0205 -0.0308c 0.6669,-0.7387 1.8467,-3.0265 2.2160 -3.8678c 0.0103,-0.0410 0.0308,-0.0513 0.0718 -0.0513c 0.0103,-0.0000 0.2360,0.0923 0.3591 0.1129c -0.4617,1.2414 -1.2209,2.5751 -1.9698 3.7652h 1.6210 v -1.5902 Z"/></g><g stroke-linejoin="miter" stroke-opacity="0.6" fill-opacity="0.0" stroke="rgb(0,0,0)" stroke-width="1.239962023191193" fill="rgb(0,0,0)" stroke-linecap="butt" stroke-miterlimit="10.0"><path d="M 31.9964,204.2163 h 4.6398 "/></g><g stroke-linejoin="miter" stroke-opacity="1.0" fill-opacity="0.6" stroke="rgb(0,0,0)" fill-rule="evenodd" stroke-width="0.0" fill="rgb(0,0,0)" stroke-linecap="butt" stroke-miterlimit="10.0"><path d="M 15.0262,219.6822 ZM 17.8372,217.2610 h -2.3186 c -0.0923,-0.0000 -0.1539,-0.0821 -0.1539 -0.1744c 0.0000,-0.1641 0.1334,-0.3796 0.2565 -0.3796h 2.3494 c 0.1026,-0.0000 0.1436,0.0923 0.1436 0.1847c 0.0000,0.1129 -0.1436,0.3693 -0.2770 0.3693ZM 18.4425,219.6822 ZM 20.6893,214.1114 c -0.4412,-0.0000 -1.0875,0.4309 -1.0875 2.8213c 0.0000,0.8413 0.1539,2.5341 1.0567 2.5341c 0.1744,-0.0000 0.6669,-0.1129 0.8823 -0.9131c 0.1334,-0.4924 0.2052,-1.1080 0.2052 -2.0006c 0.0000,-1.3029 -0.3283,-2.0313 -0.6258 -2.2878c -0.1129,-0.1026 -0.2667,-0.1539 -0.4309 -0.1539ZM 20.6893,214.1114 ZM 20.6483,219.8054 c -1.0977,-0.0000 -1.8364,-1.4055 -1.8364 -2.9752c 0.0000,-1.9185 0.9131,-3.0778 1.8775 -3.0778c 0.4412,-0.0000 0.8823,0.2770 1.1798 0.6771c 0.4309,0.5745 0.6566,1.3440 0.6566 2.3083c 0.0000,2.2776 -1.1285,3.0675 -1.8775 3.0675ZM 22.9361,219.6822 ZM 23.5209,219.2616 c 0.0000,-0.2975 0.2462,-0.5437 0.5437 -0.5437c 0.2975,-0.0000 0.5437,0.2462 0.5437 0.5437c 0.0000,0.2975 -0.2462,0.5437 -0.5437 0.5437c -0.2975,-0.0000 -0.5437,-0.2462 -0.5437 -0.5437ZM 25.1829,219.6822 ZM 28.3530,217.9484 c 0.0000,-1.0567 -0.5745,-1.5799 -1.2106 -1.5799c -0.4719,-0.0000 -0.8310,0.0718 -1.2311 0.2360l 0.3283,-2.8008 c 0.3386,0.0308 0.6874,0.0410 1.0465 0.0410c 0.5130,-0.0000 1.0465,-0.0308 1.6005 -0.0923l 0.0616,0.0308 l -0.1539,0.6669 c -0.4001,0.0410 -0.7284,0.0513 -1.0157 0.0513c -0.4617,-0.0000 -0.8105,-0.0410 -1.1696 -0.0821l -0.1949,1.6210 c 0.2154,-0.0821 0.5848,-0.1539 0.9849 -0.1539c 1.0875,-0.0000 1.6928,0.9439 1.6928 1.8877c 0.0000,1.1490 -0.8002,2.0313 -1.9595 2.0313c -0.5848,-0.0000 -1.4363,-0.3283 -1.4363 -0.7284c 0.0000,-0.1949 0.1641,-0.3283 0.3488 -0.3283c 0.2052,-0.0000 0.3386,0.1539 0.4617 0.3180c 0.1539,0.1847 0.3180,0.3899 0.6463 0.3899c 0.6566,-0.0000 1.2003,-0.6156 1.2003 -1.5081Z"/></g><g stroke-linejoin="miter" stroke-opacity="0.6" fill-opacity="0.0" stroke="rgb(0,0,0)" stroke-width="1.239962023191193" fill="rgb(0,0,0)" stroke-linecap="butt" stroke-miterlimit="10.0"><path d="M 31.9964,219.6822 h 4.6398 "/></g><g stroke-linejoin="miter" stroke-opacity="0.0" fill-opacity="0.1" stroke="rgb(0,0,0)" stroke-width="0.0" fill="rgb(0,0,0)" stroke-linecap="butt" stroke-miterlimit="10.0"><path d="M 282.1365,225.9763 l -0.0000,-3.0932 h -231.9888 l -0.0000,3.0932 Z"/></g><g stroke-linejoin="miter" stroke-opacity="1.0" fill-opacity="0.6" stroke="rgb(0,0,0)" fill-rule="evenodd" stroke-width="0.0" fill="rgb(0,0,0)" stroke-linecap="butt" stroke-miterlimit="10.0"><path d="M 276.5195,239.0146 ZM 278.7663,233.4438 c -0.4412,-0.0000 -1.0875,0.4309 -1.0875 2.8213c 0.0000,0.8413 0.1539,2.5341 1.0567 2.5341c 0.1744,-0.0000 0.6669,-0.1129 0.8823 -0.9131c 0.1334,-0.4924 0.2052,-1.1080 0.2052 -2.0006c 0.0000,-1.3029 -0.3283,-2.0313 -0.6258 -2.2878c -0.1129,-0.1026 -0.2667,-0.1539 -0.4309 -0.1539ZM 278.7663,233.4438 ZM 278.7253,239.1378 c -1.0977,-0.0000 -1.8364,-1.4055 -1.8364 -2.9752c 0.0000,-1.9185 0.9131,-3.0778 1.8775 -3.0778c 0.4412,-0.0000 0.8823,0.2770 1.1798 0.6771c 0.4309,0.5745 0.6566,1.3440 0.6566 2.3083c 0.0000,2.2776 -1.1285,3.0675 -1.8775 3.0675ZM 281.0131,239.0146 ZM 281.5979,238.5940 c 0.0000,-0.2975 0.2462,-0.5437 0.5437 -0.5437c 0.2975,-0.0000 0.5437,0.2462 0.5437 0.5437c 0.0000,0.2975 -0.2462,0.5437 -0.5437 0.5437c -0.2975,-0.0000 -0.5437,-0.2462 -0.5437 -0.5437ZM 283.2599,239.0146 ZM 286.4300,237.2808 c 0.0000,-1.0567 -0.5745,-1.5799 -1.2106 -1.5799c -0.4719,-0.0000 -0.8310,0.0718 -1.2311 0.2360l 0.3283,-2.8008 c 0.3386,0.0308 0.6874,0.0410 1.0465 0.0410c 0.5130,-0.0000 1.0465,-0.0308 1.6005 -0.0923l 0.0616,0.0308 l -0.1539,0.6669 c -0.4001,0.0410 -0.7284,0.0513 -1.0157 0.0513c -0.4617,-0.0000 -0.8105,-0.0410 -1.1696 -0.0821l -0.1949,1.6210 c 0.2154,-0.0821 0.5848,-0.1539 0.9849 -0.1539c 1.0875,-0.0000 1.6928,0.9439 1.6928 1.8877c 0.0000,1.1490 -0.8002,2.0313 -1.9595 2.0313c -0.5848,-0.0000 -1.4363,-0.3283 -1.4363 -0.7284c 0.0000,-0.1949 0.1641,-0.3283 0.3488 -0.3283c 0.2052,-0.0000 0.3386,0.1539 0.4617 0.3180c 0.1539,0.1847 0.3180,0.3899 0.6463 0.3899c 0.6566,-0.0000 1.2003,-0.6156 1.2003 -1.5081Z"/></g><g stroke-linejoin="miter" stroke-opacity="0.6" fill-opacity="0.0" stroke="rgb(0,0,0)" stroke-width="1.239962023191193" fill="rgb(0,0,0)" stroke-linecap="butt" stroke-miterlimit="10.0"><path d="M 282.1365,222.8832 v 4.6398 "/></g><g stroke-linejoin="miter" stroke-opacity="1.0" fill-opacity="0.6" stroke="rgb(0,0,0)" fill-rule="evenodd" stroke-width="0.0" fill="rgb(0,0,0)" stroke-linecap="butt" stroke-miterlimit="10.0"><path d="M 253.3206,239.0146 ZM 255.5674,233.4438 c -0.4412,-0.0000 -1.0875,0.4309 -1.0875 2.8213c 0.0000,0.8413 0.1539,2.5341 1.0567 2.5341c 0.1744,-0.0000 0.6669,-0.1129 0.8823 -0.9131c 0.1334,-0.4924 0.2052,-1.1080 0.2052 -2.0006c 0.0000,-1.3029 -0.3283,-2.0313 -0.6258 -2.2878c -0.1129,-0.1026 -0.2667,-0.1539 -0.4309 -0.1539ZM 255.5674,233.4438 ZM 255.5264,239.1378 c -1.0977,-0.0000 -1.8364,-1.4055 -1.8364 -2.9752c 0.0000,-1.9185 0.9131,-3.0778 1.8775 -3.0778c 0.4412,-0.0000 0.8823,0.2770 1.1798 0.6771c 0.4309,0.5745 0.6566,1.3440 0.6566 2.3083c 0.0000,2.2776 -1.1285,3.0675 -1.8775 3.0675ZM 257.8142,239.0146 ZM 258.3990,238.5940 c 0.0000,-0.2975 0.2462,-0.5437 0.5437 -0.5437c 0.2975,-0.0000 0.5437,0.2462 0.5437 0.5437c 0.0000,0.2975 -0.2462,0.5437 -0.5437 0.5437c -0.2975,-0.0000 -0.5437,-0.2462 -0.5437 -0.5437ZM 260.0610,239.0146 ZM 262.7079,235.3726 c 0.0000,-0.0718 0.0103,-0.1539 0.1026 -0.2052c 0.1129,-0.0821 0.2975,-0.1744 0.4514 -0.1744c 0.1334,-0.0000 0.1436,0.1129 0.1436 0.3180v 1.6518 h 0.8310 l -0.0616,0.4822 h -0.7694 v 0.8515 c 0.0000,0.2873 0.0410,0.4309 0.3386 0.4309h 0.2770 c 0.0616,-0.0000 0.0718,0.0513 0.0718 0.0718v 0.2257 c 0.0000,-0.0000 -0.6566,-0.0205 -1.0875 -0.0205c -0.3899,-0.0000 -0.9952,0.0205 -0.9952 0.0205v -0.2257 c 0.0000,-0.0205 0.0103,-0.0718 0.0718 -0.0718h 0.2770 c 0.3180,-0.0000 0.3488,-0.1334 0.3488 -0.4309v -0.8515 h -2.0108 c -0.0410,-0.0000 -0.0616,-0.0205 -0.0923 -0.0616l -0.0821,-0.1129 l -0.1231,-0.2154 c -0.0103,-0.0000 -0.0103,-0.0103 -0.0103 -0.0205c 0.0000,-0.0103 0.0103,-0.0205 0.0205 -0.0308c 0.6669,-0.7387 1.8467,-3.0265 2.2160 -3.8678c 0.0103,-0.0410 0.0308,-0.0513 0.0718 -0.0513c 0.0103,-0.0000 0.2360,0.0923 0.3591 0.1129c -0.4617,1.2414 -1.2209,2.5751 -1.9698 3.7652h 1.6210 v -1.5902 Z"/></g><g stroke-linejoin="miter" stroke-opacity="0.6" fill-opacity="0.0" stroke="rgb(0,0,0)" stroke-width="1.239962023191193" fill="rgb(0,0,0)" stroke-linecap="butt" stroke-miterlimit="10.0"><path d="M 258.9376,222.8832 v 4.6398 "/></g><g stroke-linejoin="miter" stroke-opacity="1.0" fill-opacity="0.6" stroke="rgb(0,0,0)" fill-rule="evenodd" stroke-width="0.0" fill="rgb(0,0,0)" stroke-linecap="butt" stroke-miterlimit="10.0"><path d="M 230.1217,239.0146 ZM 232.3685,233.4438 c -0.4412,-0.0000 -1.0875,0.4309 -1.0875 2.8213c 0.0000,0.8413 0.1539,2.5341 1.0567 2.5341c 0.1744,-0.0000 0.6669,-0.1129 0.8823 -0.9131c 0.1334,-0.4924 0.2052,-1.1080 0.2052 -2.0006c 0.0000,-1.3029 -0.3283,-2.0313 -0.6258 -2.2878c -0.1129,-0.1026 -0.2667,-0.1539 -0.4309 -0.1539ZM 232.3685,233.4438 ZM 232.3275,239.1378 c -1.0977,-0.0000 -1.8364,-1.4055 -1.8364 -2.9752c 0.0000,-1.9185 0.9131,-3.0778 1.8775 -3.0778c 0.4412,-0.0000 0.8823,0.2770 1.1798 0.6771c 0.4309,0.5745 0.6566,1.3440 0.6566 2.3083c 0.0000,2.2776 -1.1285,3.0675 -1.8775 3.0675ZM 234.6153,239.0146 ZM 235.2001,238.5940 c 0.0000,-0.2975 0.2462,-0.5437 0.5437 -0.5437c 0.2975,-0.0000 0.5437,0.2462 0.5437 0.5437c 0.0000,0.2975 -0.2462,0.5437 -0.5437 0.5437c -0.2975,-0.0000 -0.5437,-0.2462 -0.5437 -0.5437ZM 236.8621,239.0146 ZM 239.0781,233.4028 c -0.2565,-0.0000 -1.0054,0.1436 -1.0054 0.7694c 0.0000,0.1847 -0.0718,0.5027 -0.3488 0.5027c -0.2667,-0.0000 -0.2873,-0.2975 -0.2873 -0.3283c 0.0000,-0.3180 0.4206,-1.2619 1.8467 -1.2619c 0.9952,-0.0000 1.2927,0.6258 1.2927 1.0362c 0.0000,0.2565 -0.0821,0.7694 -1.0054 1.3542c 0.5745,0.0923 1.3337,0.5130 1.3337 1.5799c 0.0000,1.3542 -1.0259,2.0826 -2.1852 2.0826c -0.5848,-0.0000 -1.4055,-0.2565 -1.4055 -0.6463c 0.0000,-0.1539 0.1539,-0.3283 0.3591 -0.3283c 0.1949,-0.0000 0.2873,0.1026 0.3796 0.2360c 0.1129,0.1744 0.2975,0.4206 0.7900 0.4206c 0.3386,-0.0000 1.3029,-0.3386 1.3029 -1.6312c 0.0000,-1.0977 -0.7694,-1.2722 -1.3235 -1.2722c -0.0923,-0.0000 -0.2052,0.0205 -0.3180 0.0410l -0.0410,-0.3078 c 0.7900,-0.1334 1.4466,-0.9028 1.4466 -1.3747c 0.0000,-0.5848 -0.4104,-0.8720 -0.8310 -0.8720Z"/></g><g stroke-linejoin="miter" stroke-opacity="0.6" fill-opacity="0.0" stroke="rgb(0,0,0)" stroke-width="1.239962023191193" fill="rgb(0,0,0)" stroke-linecap="butt" stroke-miterlimit="10.0"><path d="M 235.7387,222.8832 v 4.6398 "/></g><g stroke-linejoin="miter" stroke-opacity="1.0" fill-opacity="0.6" stroke="rgb(0,0,0)" fill-rule="evenodd" stroke-width="0.0" fill="rgb(0,0,0)" stroke-linecap="butt" stroke-miterlimit="10.0"><path d="M 206.9229,239.0146 ZM 209.1696,233.4438 c -0.4412,-0.0000 -1.0875,0.4309 -1.0875 2.8213c 0.0000,0.8413 0.1539,2.5341 1.0567 2.5341c 0.1744,-0.0000 0.6669,-0.1129 0.8823 -0.9131c 0.1334,-0.4924 0.2052,-1.1080 0.2052 -2.0006c 0.0000,-1.3029 -0.3283,-2.0313 -0.6258 -2.2878c -0.1129,-0.1026 -0.2667,-0.1539 -0.4309 -0.1539ZM 209.1696,233.4438 ZM 209.1286,239.1378 c -1.0977,-0.0000 -1.8364,-1.4055 -1.8364 -2.9752c 0.0000,-1.9185 0.9131,-3.0778 1.8775 -3.0778c 0.4412,-0.0000 0.8823,0.2770 1.1798 0.6771c 0.4309,0.5745 0.6566,1.3440 0.6566 2.3083c 0.0000,2.2776 -1.1285,3.0675 -1.8775 3.0675ZM 211.4164,239.0146 ZM 212.0012,238.5940 c 0.0000,-0.2975 0.2462,-0.5437 0.5437 -0.5437c 0.2975,-0.0000 0.5437,0.2462 0.5437 0.5437c 0.0000,0.2975 -0.2462,0.5437 -0.5437 0.5437c -0.2975,-0.0000 -0.5437,-0.2462 -0.5437 -0.5437ZM 213.6632,239.0146 ZM 214.2583,234.4698 c 0.0000,-0.5848 0.5643,-1.3850 1.6415 -1.3850c 0.7900,-0.0000 1.7133,0.2975 1.7133 1.4773c 0.0000,0.7797 -0.4001,1.1696 -0.9541 1.7030l -0.9746,0.9439 c -0.0513,0.0513 -0.7387,0.7284 -0.7387 1.2106h 1.7441 c 0.3488,-0.0000 0.5335,-0.1744 0.6771 -0.7387l 0.2565,0.0410 l -0.2052,1.2927 h -3.1701 c 0.0000,-0.5745 0.0923,-1.0157 1.0465 -1.9903l 0.7182,-0.7079 c 0.5745,-0.5848 0.8105,-1.0875 0.8105 -1.7133c 0.0000,-0.9336 -0.6361,-1.2003 -0.9849 -1.2003c -0.7079,-0.0000 -0.9028,0.3693 -0.9028 0.6156c 0.0000,0.0821 0.0205,0.1641 0.0410 0.2360c 0.0205,0.0718 0.0410,0.1436 0.0410 0.2257c 0.0000,0.2667 -0.2052,0.3693 -0.3693 0.3693c -0.2257,-0.0000 -0.3899,-0.1744 -0.3899 -0.3796Z"/></g><g stroke-linejoin="miter" stroke-opacity="0.6" fill-opacity="0.0" stroke="rgb(0,0,0)" stroke-width="1.239962023191193" fill="rgb(0,0,0)" stroke-linecap="butt" stroke-miterlimit="10.0"><path d="M 212.5398,222.8832 v 4.6398 "/></g><g stroke-linejoin="miter" stroke-opacity="1.0" fill-opacity="0.6" stroke="rgb(0,0,0)" fill-rule="evenodd" stroke-width="0.0" fill="rgb(0,0,0)" stroke-linecap="butt" stroke-miterlimit="10.0"><path d="M 183.7240,239.0146 ZM 185.9708,233.4438 c -0.4412,-0.0000 -1.0875,0.4309 -1.0875 2.8213c 0.0000,0.8413 0.1539,2.5341 1.0567 2.5341c 0.1744,-0.0000 0.6669,-0.1129 0.8823 -0.9131c 0.1334,-0.4924 0.2052,-1.1080 0.2052 -2.0006c 0.0000,-1.3029 -0.3283,-2.0313 -0.6258 -2.2878c -0.1129,-0.1026 -0.2667,-0.1539 -0.4309 -0.1539ZM 185.9708,233.4438 ZM 185.9297,239.1378 c -1.0977,-0.0000 -1.8364,-1.4055 -1.8364 -2.9752c 0.0000,-1.9185 0.9131,-3.0778 1.8775 -3.0778c 0.4412,-0.0000 0.8823,0.2770 1.1798 0.6771c 0.4309,0.5745 0.6566,1.3440 0.6566 2.3083c 0.0000,2.2776 -1.1285,3.0675 -1.8775 3.0675ZM 188.2176,239.0146 ZM 188.8023,238.5940 c 0.0000,-0.2975 0.2462,-0.5437 0.5437 -0.5437c 0.2975,-0.0000 0.5437,0.2462 0.5437 0.5437c 0.0000,0.2975 -0.2462,0.5437 -0.5437 0.5437c -0.2975,-0.0000 -0.5437,-0.2462 -0.5437 -0.5437ZM 190.4643,239.0146 ZM 192.3931,234.1209 c -0.1949,-0.0000 -0.6463,0.1847 -0.8720 0.2873l -0.1231,-0.3180 c 0.9028,-0.4206 1.2516,-0.6361 1.7646 -1.0054h 0.1949 v 5.1604 c 0.0000,0.3693 0.0513,0.4719 0.3899 0.4719h 0.5335 c 0.0308,-0.0000 0.0821,0.0205 0.0821 0.0821v 0.2257 l -1.4055,-0.0205 l -1.4260,0.0205 v -0.2257 c 0.0103,-0.0308 0.0205,-0.0821 0.0821 -0.0821h 0.6156 c 0.3899,-0.0000 0.3899,-0.1744 0.3899 -0.4719v -3.5292 c 0.0000,-0.3488 0.0000,-0.5950 -0.2257 -0.5950Z"/></g><g stroke-linejoin="miter" stroke-opacity="0.6" fill-opacity="0.0" stroke="rgb(0,0,0)" stroke-width="1.239962023191193" fill="rgb(0,0,0)" stroke-linecap="butt" stroke-miterlimit="10.0"><path d="M 189.3410,222.8832 v 4.6398 "/></g><g stroke-linejoin="miter" stroke-opacity="1.0" fill-opacity="0.6" stroke="rgb(0,0,0)" fill-rule="evenodd" stroke-width="0.0" fill="rgb(0,0,0)" stroke-linecap="butt" stroke-miterlimit="10.0"><path d="M 160.5251,239.0146 ZM 162.7719,233.4438 c -0.4412,-0.0000 -1.0875,0.4309 -1.0875 2.8213c 0.0000,0.8413 0.1539,2.5341 1.0567 2.5341c 0.1744,-0.0000 0.6669,-0.1129 0.8823 -0.9131c 0.1334,-0.4924 0.2052,-1.1080 0.2052 -2.0006c 0.0000,-1.3029 -0.3283,-2.0313 -0.6258 -2.2878c -0.1129,-0.1026 -0.2667,-0.1539 -0.4309 -0.1539ZM 162.7719,233.4438 ZM 162.7309,239.1378 c -1.0977,-0.0000 -1.8364,-1.4055 -1.8364 -2.9752c 0.0000,-1.9185 0.9131,-3.0778 1.8775 -3.0778c 0.4412,-0.0000 0.8823,0.2770 1.1798 0.6771c 0.4309,0.5745 0.6566,1.3440 0.6566 2.3083c 0.0000,2.2776 -1.1285,3.0675 -1.8775 3.0675ZM 165.0187,239.0146 ZM 165.6035,238.5940 c 0.0000,-0.2975 0.2462,-0.5437 0.5437 -0.5437c 0.2975,-0.0000 0.5437,0.2462 0.5437 0.5437c 0.0000,0.2975 -0.2462,0.5437 -0.5437 0.5437c -0.2975,-0.0000 -0.5437,-0.2462 -0.5437 -0.5437ZM 167.2655,239.0146 ZM 169.5123,233.4438 c -0.4412,-0.0000 -1.0875,0.4309 -1.0875 2.8213c 0.0000,0.8413 0.1539,2.5341 1.0567 2.5341c 0.1744,-0.0000 0.6669,-0.1129 0.8823 -0.9131c 0.1334,-0.4924 0.2052,-1.1080 0.2052 -2.0006c 0.0000,-1.3029 -0.3283,-2.0313 -0.6258 -2.2878c -0.1129,-0.1026 -0.2667,-0.1539 -0.4309 -0.1539ZM 169.5123,233.4438 ZM 169.4712,239.1378 c -1.0977,-0.0000 -1.8364,-1.4055 -1.8364 -2.9752c 0.0000,-1.9185 0.9131,-3.0778 1.8775 -3.0778c 0.4412,-0.0000 0.8823,0.2770 1.1798 0.6771c 0.4309,0.5745 0.6566,1.3440 0.6566 2.3083c 0.0000,2.2776 -1.1285,3.0675 -1.8775 3.0675Z"/></g><g stroke-linejoin="miter" stroke-opacity="0.6" fill-opacity="0.0" stroke="rgb(0,0,0)" stroke-width="1.239962023191193" fill="rgb(0,0,0)" stroke-linecap="butt" stroke-miterlimit="10.0"><path d="M 166.1421,222.8832 v 4.6398 "/></g><g stroke-linejoin="miter" stroke-opacity="1.0" fill-opacity="0.6" stroke="rgb(0,0,0)" fill-rule="evenodd" stroke-width="0.0" fill="rgb(0,0,0)" stroke-linecap="butt" stroke-miterlimit="10.0"><path d="M 135.6180,239.0146 ZM 138.4291,236.5934 h -2.3186 c -0.0923,-0.0000 -0.1539,-0.0821 -0.1539 -0.1744c 0.0000,-0.1641 0.1334,-0.3796 0.2565 -0.3796h 2.3494 c 0.1026,-0.0000 0.1436,0.0923 0.1436 0.1847c 0.0000,0.1129 -0.1436,0.3693 -0.2770 0.3693ZM 139.0344,239.0146 ZM 141.2812,233.4438 c -0.4412,-0.0000 -1.0875,0.4309 -1.0875 2.8213c 0.0000,0.8413 0.1539,2.5341 1.0567 2.5341c 0.1744,-0.0000 0.6669,-0.1129 0.8823 -0.9131c 0.1334,-0.4924 0.2052,-1.1080 0.2052 -2.0006c 0.0000,-1.3029 -0.3283,-2.0313 -0.6258 -2.2878c -0.1129,-0.1026 -0.2667,-0.1539 -0.4309 -0.1539ZM 141.2812,233.4438 ZM 141.2401,239.1378 c -1.0977,-0.0000 -1.8364,-1.4055 -1.8364 -2.9752c 0.0000,-1.9185 0.9131,-3.0778 1.8775 -3.0778c 0.4412,-0.0000 0.8823,0.2770 1.1798 0.6771c 0.4309,0.5745 0.6566,1.3440 0.6566 2.3083c 0.0000,2.2776 -1.1285,3.0675 -1.8775 3.0675ZM 143.5280,239.0146 ZM 144.1128,238.5940 c 0.0000,-0.2975 0.2462,-0.5437 0.5437 -0.5437c 0.2975,-0.0000 0.5437,0.2462 0.5437 0.5437c 0.0000,0.2975 -0.2462,0.5437 -0.5437 0.5437c -0.2975,-0.0000 -0.5437,-0.2462 -0.5437 -0.5437ZM 145.7748,239.0146 ZM 147.7035,234.1209 c -0.1949,-0.0000 -0.6463,0.1847 -0.8720 0.2873l -0.1231,-0.3180 c 0.9028,-0.4206 1.2516,-0.6361 1.7646 -1.0054h 0.1949 v 5.1604 c 0.0000,0.3693 0.0513,0.4719 0.3899 0.4719h 0.5335 c 0.0308,-0.0000 0.0821,0.0205 0.0821 0.0821v 0.2257 l -1.4055,-0.0205 l -1.4260,0.0205 v -0.2257 c 0.0103,-0.0308 0.0205,-0.0821 0.0821 -0.0821h 0.6156 c 0.3899,-0.0000 0.3899,-0.1744 0.3899 -0.4719v -3.5292 c 0.0000,-0.3488 0.0000,-0.5950 -0.2257 -0.5950Z"/></g><g stroke-linejoin="miter" stroke-opacity="0.6" fill-opacity="0.0" stroke="rgb(0,0,0)" stroke-width="1.239962023191193" fill="rgb(0,0,0)" stroke-linecap="butt" stroke-miterlimit="10.0"><path d="M 142.9432,222.8832 v 4.6398 "/></g><g stroke-linejoin="miter" stroke-opacity="1.0" fill-opacity="0.6" stroke="rgb(0,0,0)" fill-rule="evenodd" stroke-width="0.0" fill="rgb(0,0,0)" stroke-linecap="butt" stroke-miterlimit="10.0"><path d="M 112.4192,239.0146 ZM 115.2302,236.5934 h -2.3186 c -0.0923,-0.0000 -0.1539,-0.0821 -0.1539 -0.1744c 0.0000,-0.1641 0.1334,-0.3796 0.2565 -0.3796h 2.3494 c 0.1026,-0.0000 0.1436,0.0923 0.1436 0.1847c 0.0000,0.1129 -0.1436,0.3693 -0.2770 0.3693ZM 115.8355,239.0146 ZM 118.0823,233.4438 c -0.4412,-0.0000 -1.0875,0.4309 -1.0875 2.8213c 0.0000,0.8413 0.1539,2.5341 1.0567 2.5341c 0.1744,-0.0000 0.6669,-0.1129 0.8823 -0.9131c 0.1334,-0.4924 0.2052,-1.1080 0.2052 -2.0006c 0.0000,-1.3029 -0.3283,-2.0313 -0.6258 -2.2878c -0.1129,-0.1026 -0.2667,-0.1539 -0.4309 -0.1539ZM 118.0823,233.4438 ZM 118.0413,239.1378 c -1.0977,-0.0000 -1.8364,-1.4055 -1.8364 -2.9752c 0.0000,-1.9185 0.9131,-3.0778 1.8775 -3.0778c 0.4412,-0.0000 0.8823,0.2770 1.1798 0.6771c 0.4309,0.5745 0.6566,1.3440 0.6566 2.3083c 0.0000,2.2776 -1.1285,3.0675 -1.8775 3.0675ZM 120.3291,239.0146 ZM 120.9139,238.5940 c 0.0000,-0.2975 0.2462,-0.5437 0.5437 -0.5437c 0.2975,-0.0000 0.5437,0.2462 0.5437 0.5437c 0.0000,0.2975 -0.2462,0.5437 -0.5437 0.5437c -0.2975,-0.0000 -0.5437,-0.2462 -0.5437 -0.5437ZM 122.5759,239.0146 ZM 123.1709,234.4698 c 0.0000,-0.5848 0.5643,-1.3850 1.6415 -1.3850c 0.7900,-0.0000 1.7133,0.2975 1.7133 1.4773c 0.0000,0.7797 -0.4001,1.1696 -0.9541 1.7030l -0.9746,0.9439 c -0.0513,0.0513 -0.7387,0.7284 -0.7387 1.2106h 1.7441 c 0.3488,-0.0000 0.5335,-0.1744 0.6771 -0.7387l 0.2565,0.0410 l -0.2052,1.2927 h -3.1701 c 0.0000,-0.5745 0.0923,-1.0157 1.0465 -1.9903l 0.7182,-0.7079 c 0.5745,-0.5848 0.8105,-1.0875 0.8105 -1.7133c 0.0000,-0.9336 -0.6361,-1.2003 -0.9849 -1.2003c -0.7079,-0.0000 -0.9028,0.3693 -0.9028 0.6156c 0.0000,0.0821 0.0205,0.1641 0.0410 0.2360c 0.0205,0.0718 0.0410,0.1436 0.0410 0.2257c 0.0000,0.2667 -0.2052,0.3693 -0.3693 0.3693c -0.2257,-0.0000 -0.3899,-0.1744 -0.3899 -0.3796Z"/></g><g stroke-linejoin="miter" stroke-opacity="0.6" fill-opacity="0.0" stroke="rgb(0,0,0)" stroke-width="1.239962023191193" fill="rgb(0,0,0)" stroke-linecap="butt" stroke-miterlimit="10.0"><path d="M 119.7443,222.8832 v 4.6398 "/></g><g stroke-linejoin="miter" stroke-opacity="1.0" fill-opacity="0.6" stroke="rgb(0,0,0)" fill-rule="evenodd" stroke-width="0.0" fill="rgb(0,0,0)" stroke-linecap="butt" stroke-miterlimit="10.0"><path d="M 89.2203,239.0146 ZM 92.0313,236.5934 h -2.3186 c -0.0923,-0.0000 -0.1539,-0.0821 -0.1539 -0.1744c 0.0000,-0.1641 0.1334,-0.3796 0.2565 -0.3796h 2.3494 c 0.1026,-0.0000 0.1436,0.0923 0.1436 0.1847c 0.0000,0.1129 -0.1436,0.3693 -0.2770 0.3693ZM 92.6366,239.0146 ZM 94.8834,233.4438 c -0.4412,-0.0000 -1.0875,0.4309 -1.0875 2.8213c 0.0000,0.8413 0.1539,2.5341 1.0567 2.5341c 0.1744,-0.0000 0.6669,-0.1129 0.8823 -0.9131c 0.1334,-0.4924 0.2052,-1.1080 0.2052 -2.0006c 0.0000,-1.3029 -0.3283,-2.0313 -0.6258 -2.2878c -0.1129,-0.1026 -0.2667,-0.1539 -0.4309 -0.1539ZM 94.8834,233.4438 ZM 94.8424,239.1378 c -1.0977,-0.0000 -1.8364,-1.4055 -1.8364 -2.9752c 0.0000,-1.9185 0.9131,-3.0778 1.8775 -3.0778c 0.4412,-0.0000 0.8823,0.2770 1.1798 0.6771c 0.4309,0.5745 0.6566,1.3440 0.6566 2.3083c 0.0000,2.2776 -1.1285,3.0675 -1.8775 3.0675ZM 97.1302,239.0146 ZM 97.7150,238.5940 c 0.0000,-0.2975 0.2462,-0.5437 0.5437 -0.5437c 0.2975,-0.0000 0.5437,0.2462 0.5437 0.5437c 0.0000,0.2975 -0.2462,0.5437 -0.5437 0.5437c -0.2975,-0.0000 -0.5437,-0.2462 -0.5437 -0.5437ZM 99.3770,239.0146 ZM 101.5930,233.4028 c -0.2565,-0.0000 -1.0054,0.1436 -1.0054 0.7694c 0.0000,0.1847 -0.0718,0.5027 -0.3488 0.5027c -0.2667,-0.0000 -0.2873,-0.2975 -0.2873 -0.3283c 0.0000,-0.3180 0.4206,-1.2619 1.8467 -1.2619c 0.9952,-0.0000 1.2927,0.6258 1.2927 1.0362c 0.0000,0.2565 -0.0821,0.7694 -1.0054 1.3542c 0.5745,0.0923 1.3337,0.5130 1.3337 1.5799c 0.0000,1.3542 -1.0259,2.0826 -2.1852 2.0826c -0.5848,-0.0000 -1.4055,-0.2565 -1.4055 -0.6463c 0.0000,-0.1539 0.1539,-0.3283 0.3591 -0.3283c 0.1949,-0.0000 0.2873,0.1026 0.3796 0.2360c 0.1129,0.1744 0.2975,0.4206 0.7900 0.4206c 0.3386,-0.0000 1.3029,-0.3386 1.3029 -1.6312c 0.0000,-1.0977 -0.7694,-1.2722 -1.3235 -1.2722c -0.0923,-0.0000 -0.2052,0.0205 -0.3180 0.0410l -0.0410,-0.3078 c 0.7900,-0.1334 1.4466,-0.9028 1.4466 -1.3747c 0.0000,-0.5848 -0.4104,-0.8720 -0.8310 -0.8720Z"/></g><g stroke-linejoin="miter" stroke-opacity="0.6" fill-opacity="0.0" stroke="rgb(0,0,0)" stroke-width="1.239962023191193" fill="rgb(0,0,0)" stroke-linecap="butt" stroke-miterlimit="10.0"><path d="M 96.5454,222.8832 v 4.6398 "/></g><g stroke-linejoin="miter" stroke-opacity="1.0" fill-opacity="0.6" stroke="rgb(0,0,0)" fill-rule="evenodd" stroke-width="0.0" fill="rgb(0,0,0)" stroke-linecap="butt" stroke-miterlimit="10.0"><path d="M 66.0214,239.0146 ZM 68.8325,236.5934 h -2.3186 c -0.0923,-0.0000 -0.1539,-0.0821 -0.1539 -0.1744c 0.0000,-0.1641 0.1334,-0.3796 0.2565 -0.3796h 2.3494 c 0.1026,-0.0000 0.1436,0.0923 0.1436 0.1847c 0.0000,0.1129 -0.1436,0.3693 -0.2770 0.3693ZM 69.4378,239.0146 ZM 71.6845,233.4438 c -0.4412,-0.0000 -1.0875,0.4309 -1.0875 2.8213c 0.0000,0.8413 0.1539,2.5341 1.0567 2.5341c 0.1744,-0.0000 0.6669,-0.1129 0.8823 -0.9131c 0.1334,-0.4924 0.2052,-1.1080 0.2052 -2.0006c 0.0000,-1.3029 -0.3283,-2.0313 -0.6258 -2.2878c -0.1129,-0.1026 -0.2667,-0.1539 -0.4309 -0.1539ZM 71.6845,233.4438 ZM 71.6435,239.1378 c -1.0977,-0.0000 -1.8364,-1.4055 -1.8364 -2.9752c 0.0000,-1.9185 0.9131,-3.0778 1.8775 -3.0778c 0.4412,-0.0000 0.8823,0.2770 1.1798 0.6771c 0.4309,0.5745 0.6566,1.3440 0.6566 2.3083c 0.0000,2.2776 -1.1285,3.0675 -1.8775 3.0675ZM 73.9313,239.0146 ZM 74.5161,238.5940 c 0.0000,-0.2975 0.2462,-0.5437 0.5437 -0.5437c 0.2975,-0.0000 0.5437,0.2462 0.5437 0.5437c 0.0000,0.2975 -0.2462,0.5437 -0.5437 0.5437c -0.2975,-0.0000 -0.5437,-0.2462 -0.5437 -0.5437ZM 76.1781,239.0146 ZM 78.8250,235.3726 c 0.0000,-0.0718 0.0103,-0.1539 0.1026 -0.2052c 0.1129,-0.0821 0.2975,-0.1744 0.4514 -0.1744c 0.1334,-0.0000 0.1436,0.1129 0.1436 0.3180v 1.6518 h 0.8310 l -0.0616,0.4822 h -0.7694 v 0.8515 c 0.0000,0.2873 0.0410,0.4309 0.3386 0.4309h 0.2770 c 0.0616,-0.0000 0.0718,0.0513 0.0718 0.0718v 0.2257 c 0.0000,-0.0000 -0.6566,-0.0205 -1.0875 -0.0205c -0.3899,-0.0000 -0.9952,0.0205 -0.9952 0.0205v -0.2257 c 0.0000,-0.0205 0.0103,-0.0718 0.0718 -0.0718h 0.2770 c 0.3180,-0.0000 0.3488,-0.1334 0.3488 -0.4309v -0.8515 h -2.0108 c -0.0410,-0.0000 -0.0616,-0.0205 -0.0923 -0.0616l -0.0821,-0.1129 l -0.1231,-0.2154 c -0.0103,-0.0000 -0.0103,-0.0103 -0.0103 -0.0205c 0.0000,-0.0103 0.0103,-0.0205 0.0205 -0.0308c 0.6669,-0.7387 1.8467,-3.0265 2.2160 -3.8678c 0.0103,-0.0410 0.0308,-0.0513 0.0718 -0.0513c 0.0103,-0.0000 0.2360,0.0923 0.3591 0.1129c -0.4617,1.2414 -1.2209,2.5751 -1.9698 3.7652h 1.6210 v -1.5902 Z"/></g><g stroke-linejoin="miter" stroke-opacity="0.6" fill-opacity="0.0" stroke="rgb(0,0,0)" stroke-width="1.239962023191193" fill="rgb(0,0,0)" stroke-linecap="butt" stroke-miterlimit="10.0"><path d="M 73.3466,222.8832 v 4.6398 "/></g><g stroke-linejoin="miter" stroke-opacity="1.0" fill-opacity="0.6" stroke="rgb(0,0,0)" fill-rule="evenodd" stroke-width="0.0" fill="rgb(0,0,0)" stroke-linecap="butt" stroke-miterlimit="10.0"><path d="M 42.8225,239.0146 ZM 45.6336,236.5934 h -2.3186 c -0.0923,-0.0000 -0.1539,-0.0821 -0.1539 -0.1744c 0.0000,-0.1641 0.1334,-0.3796 0.2565 -0.3796h 2.3494 c 0.1026,-0.0000 0.1436,0.0923 0.1436 0.1847c 0.0000,0.1129 -0.1436,0.3693 -0.2770 0.3693ZM 46.2389,239.0146 ZM 48.4857,233.4438 c -0.4412,-0.0000 -1.0875,0.4309 -1.0875 2.8213c 0.0000,0.8413 0.1539,2.5341 1.0567 2.5341c 0.1744,-0.0000 0.6669,-0.1129 0.8823 -0.9131c 0.1334,-0.4924 0.2052,-1.1080 0.2052 -2.0006c 0.0000,-1.3029 -0.3283,-2.0313 -0.6258 -2.2878c -0.1129,-0.1026 -0.2667,-0.1539 -0.4309 -0.1539ZM 48.4857,233.4438 ZM 48.4446,239.1378 c -1.0977,-0.0000 -1.8364,-1.4055 -1.8364 -2.9752c 0.0000,-1.9185 0.9131,-3.0778 1.8775 -3.0778c 0.4412,-0.0000 0.8823,0.2770 1.1798 0.6771c 0.4309,0.5745 0.6566,1.3440 0.6566 2.3083c 0.0000,2.2776 -1.1285,3.0675 -1.8775 3.0675ZM 50.7325,239.0146 ZM 51.3172,238.5940 c 0.0000,-0.2975 0.2462,-0.5437 0.5437 -0.5437c 0.2975,-0.0000 0.5437,0.2462 0.5437 0.5437c 0.0000,0.2975 -0.2462,0.5437 -0.5437 0.5437c -0.2975,-0.0000 -0.5437,-0.2462 -0.5437 -0.5437ZM 52.9792,239.0146 ZM 56.1494,237.2808 c 0.0000,-1.0567 -0.5745,-1.5799 -1.2106 -1.5799c -0.4719,-0.0000 -0.8310,0.0718 -1.2311 0.2360l 0.3283,-2.8008 c 0.3386,0.0308 0.6874,0.0410 1.0465 0.0410c 0.5130,-0.0000 1.0465,-0.0308 1.6005 -0.0923l 0.0616,0.0308 l -0.1539,0.6669 c -0.4001,0.0410 -0.7284,0.0513 -1.0157 0.0513c -0.4617,-0.0000 -0.8105,-0.0410 -1.1696 -0.0821l -0.1949,1.6210 c 0.2154,-0.0821 0.5848,-0.1539 0.9849 -0.1539c 1.0875,-0.0000 1.6928,0.9439 1.6928 1.8877c 0.0000,1.1490 -0.8002,2.0313 -1.9595 2.0313c -0.5848,-0.0000 -1.4363,-0.3283 -1.4363 -0.7284c 0.0000,-0.1949 0.1641,-0.3283 0.3488 -0.3283c 0.2052,-0.0000 0.3386,0.1539 0.4617 0.3180c 0.1539,0.1847 0.3180,0.3899 0.6463 0.3899c 0.6566,-0.0000 1.2003,-0.6156 1.2003 -1.5081Z"/></g><g stroke-linejoin="miter" stroke-opacity="0.6" fill-opacity="0.0" stroke="rgb(0,0,0)" stroke-width="1.239962023191193" fill="rgb(0,0,0)" stroke-linecap="butt" stroke-miterlimit="10.0"><path d="M 50.1477,222.8832 v 4.6398 "/></g><g stroke-linejoin="miter" stroke-opacity="0.0" fill-opacity="0.0" stroke="rgb(0,0,0)" stroke-width="0.0" fill="rgb(0,0,0)" stroke-linecap="butt" stroke-miterlimit="10.0"><path d="M 281.2824,216.6968 l -0.0000,-154.6592 h -231.9888 l -0.0000,154.6592 Z"/></g></svg>