<?xml version="1.0" encoding="UTF-8"?>
<!DOCTYPE svg PUBLIC "-//W3C//DTD SVG 1.1//EN"
    "http://www.w3.org/Graphics/SVG/1.1/DTD/svg11.dtd"><svg xmlns="http://www.w3.org/2000/svg" height="400.0000" stroke-opacity="1" viewBox="0 0 600 400" font-size="1" width="600.0000" xmlns:xlink="http://www.w3.org/1999/xlink" stroke="rgb(0,0,0)" version="1.1"><defs></defs><g stroke-linejoin="miter" stroke-opacity="0.0" fill-opacity="0.1" stroke="rgb(0,0,0)" stroke-width="0.0" fill="rgb(0,0,0)" stroke-linecap="butt" stroke-miterlimit="10.0"><path d="M 534.1007,346.4690 l -0.0000,-6.2427 h -468.2013 l -0.0000,6.2427 Z"/></g><g stroke-linejoin="miter" stroke-opacity="1.0" fill-opacity="0.6" stroke="rgb(0,0,0)" fill-rule="evenodd" stroke-width="0.0" fill="rgb(0,0,0)" stroke-linecap="butt" stroke-miterlimit="10.0"><path d="M 507.8229,372.7830 ZM 509.9763,360.9602 c 0.0000,-0.5383 0.4348,-0.9939 0.9939 -0.9939c 0.5383,-0.0000 0.9939,0.4555 0.9939 0.9939c 0.0000,0.5590 -0.4555,0.9939 -0.9939 0.9939c -0.5590,-0.0000 -0.9939,-0.4348 -0.9939 -0.9939ZM 509.9763,360.9602 ZM 508.8789,376.7998 c 0.9110,-0.0000 1.5322,-1.6357 1.5322 -4.5552v -6.1081 c 0.0000,-1.0974 -0.1863,-1.2630 -0.4555 -1.2630c -0.2899,-0.0000 -0.5176,0.0207 -0.8696 0.1035l -0.1035,-0.5798 c 1.5115,-0.2485 1.9670,-0.4969 2.2362 -0.6419c 0.1449,-0.0621 0.2278,-0.1242 0.4348 -0.1242h 0.3106 v 7.9716 c 0.0000,2.7124 -0.2071,3.8512 -1.3459 5.0107c -0.5590,0.5383 -1.1595,0.7868 -1.6564 0.7868c -0.8489,-0.0000 -1.9463,-0.4348 -1.9463 -1.0560c 0.0000,-0.5176 0.3106,-0.7868 0.6626 -0.7868c 0.4969,-0.0000 0.7661,0.4762 0.8696 0.9110c 0.0621,0.2071 0.1656,0.3313 0.3313 0.3313Z"/></g><g stroke-linejoin="miter" stroke-opacity="0.6" fill-opacity="0.0" stroke="rgb(0,0,0)" stroke-width="2.2694084234167016" fill="rgb(0,0,0)" stroke-linecap="butt" stroke-miterlimit="10.0"><path d="M 510.6906,340.2263 v 9.3640 "/></g><g stroke-linejoin="miter" stroke-opacity="1.0" fill-opacity="0.6" stroke="rgb(0,0,0)" fill-rule="evenodd" stroke-width="0.0" fill="rgb(0,0,0)" stroke-linecap="butt" stroke-miterlimit="10.0"><path d="M 461.1373,372.7830 ZM 462.7524,360.9602 c 0.0000,-0.5383 0.4348,-0.9939 0.9732 -0.9939c 0.5590,-0.0000 0.9939,0.4555 0.9939 0.9939c 0.0000,0.5590 -0.4348,0.9939 -0.9939 0.9939c -0.5383,-0.0000 -0.9732,-0.4348 -0.9732 -0.9939ZM 462.7524,360.9602 ZM 464.7194,371.2922 c 0.0000,0.6005 0.2278,0.9110 0.8903 0.9110h 0.3934 c 0.1035,-0.0000 0.1863,0.0621 0.1863 0.1656v 0.3934 l -0.0414,0.0414 c 0.0000,-0.0000 -1.4287,-0.0414 -2.2362 -0.0414c -0.7247,-0.0000 -2.1327,0.0414 -2.1327 0.0414l -0.0414,-0.0414 v -0.3934 c 0.0000,-0.1035 0.0621,-0.1656 0.1656 -0.1656h 0.3934 c 0.6833,-0.0000 0.8903,-0.3106 0.8903 -0.9110v -5.1556 c 0.0000,-1.0974 -0.1863,-1.2630 -0.4762 -1.2630c -0.2692,-0.0000 -0.5176,0.0207 -0.8696 0.1035l -0.1035,-0.5798 c 1.3251,-0.2278 1.5529,-0.3106 2.1534 -0.6005c 0.2278,-0.0828 0.3727,-0.1656 0.5176 -0.1656h 0.3106 v 7.6610 Z"/></g><g stroke-linejoin="miter" stroke-opacity="0.6" fill-opacity="0.0" stroke="rgb(0,0,0)" stroke-width="2.2694084234167016" fill="rgb(0,0,0)" stroke-linecap="butt" stroke-miterlimit="10.0"><path d="M 463.8705,340.2263 v 9.3640 "/></g><g stroke-linejoin="miter" stroke-opacity="1.0" fill-opacity="0.6" stroke="rgb(0,0,0)" fill-rule="evenodd" stroke-width="0.0" fill="rgb(0,0,0)" stroke-linecap="butt" stroke-miterlimit="10.0"><path d="M 411.6876,372.7830 ZM 415.0626,358.3306 v 7.0191 c 1.3873,-1.3873 2.6089,-1.7185 3.4164 -1.7185c 1.4908,-0.0000 2.2362,1.1388 2.2362 3.2715v 4.3895 c 0.0000,0.6005 0.2071,0.9110 0.8903 0.9110h 0.3934 c 0.0828,-0.0000 0.1656,0.0621 0.1656 0.1656v 0.3934 l -0.0414,0.0414 c 0.0000,-0.0000 -1.4080,-0.0414 -2.2362 -0.0414c -0.7247,-0.0000 -2.1327,0.0414 -2.1327 0.0414l -0.0414,-0.0414 v -0.3934 c 0.0000,-0.1035 0.0621,-0.1656 0.1656 -0.1656h 0.3934 c 0.7040,-0.0000 0.8903,-0.3106 0.8903 -0.9110v -4.6173 c 0.0000,-1.6771 -0.4555,-2.0705 -1.6150 -2.0705c -0.6005,-0.0000 -1.4908,0.5383 -2.4847 1.5115v 5.1764 c 0.0000,0.6005 0.2071,0.9110 0.8903 0.9110h 0.3934 c 0.0828,-0.0000 0.1656,0.0621 0.1656 0.1656v 0.3934 l -0.0414,0.0414 c 0.0000,-0.0000 -1.4080,-0.0414 -2.2155 -0.0414c -0.7454,-0.0000 -2.1327,0.0414 -2.1327 0.0414l -0.0414,-0.0414 v -0.3934 c 0.0000,-0.1035 0.0414,-0.1656 0.1449 -0.1656h 0.3934 c 0.7040,-0.0000 0.8903,-0.3106 0.8903 -0.9110v -10.3734 c 0.0000,-1.1802 -0.1863,-1.5115 -0.6005 -1.5115l -0.6833,0.0828 c -0.0621,-0.0000 -0.1035,-0.0414 -0.1035 -0.1035l -0.0414,-0.5176 c 0.3313,-0.0000 1.0767,-0.1242 1.4287 -0.1863c 0.3727,-0.0828 0.6833,-0.1656 1.0974 -0.3520h 0.4555 Z"/></g><g stroke-linejoin="miter" stroke-opacity="0.6" fill-opacity="0.0" stroke="rgb(0,0,0)" stroke-width="2.2694084234167016" fill="rgb(0,0,0)" stroke-linecap="butt" stroke-miterlimit="10.0"><path d="M 417.0503,340.2263 v 9.3640 "/></g><g stroke-linejoin="miter" stroke-opacity="1.0" fill-opacity="0.6" stroke="rgb(0,0,0)" fill-rule="evenodd" stroke-width="0.0" fill="rgb(0,0,0)" stroke-linecap="butt" stroke-miterlimit="10.0"><path d="M 365.2195,372.7830 ZM 371.7624,366.9233 c 0.0000,-1.7185 -0.8075,-2.7124 -2.0498 -2.7124c -1.0767,-0.0000 -1.8014,0.7454 -1.8014 2.3604c 0.0000,1.0767 0.4141,2.7745 2.0705 2.7745c 0.7247,-0.0000 1.7807,-0.3520 1.7807 -2.4225ZM 371.7624,366.9233 ZM 367.8905,372.9279 c -0.6419,0.6005 -0.7868,1.2423 -0.7868 1.9463c 0.0000,1.5529 1.8635,2.0084 2.5675 2.0084c 1.7807,-0.0000 4.0376,-0.6212 4.0376 -2.1120c 0.0000,-0.5383 -0.2899,-0.8903 -1.0974 -1.2837c -0.5798,-0.2899 -1.4287,-0.5176 -2.4225 -0.5176c -0.1656,-0.0000 -0.3934,0.0207 -0.6833 0.0414c -0.2899,0.0207 -0.6005,0.0207 -0.8282 0.0207c -0.3313,-0.0000 -0.4969,-0.0414 -0.7868 -0.1035ZM 367.8905,372.9279 ZM 374.1849,364.7493 c -0.3313,-0.0000 -0.5383,-0.1863 -0.6212 -0.3520c -0.1242,-0.1863 -0.2071,-0.2485 -0.3520 -0.2485c -0.2485,-0.0000 -0.6419,0.2899 -0.7868 0.4969c 0.5798,0.6212 0.8489,1.2216 0.8489 2.1948c 0.0000,2.0291 -1.6564,3.1265 -3.3957 3.1265c -0.7661,-0.0000 -1.3873,-0.1449 -1.8635 -0.4348c -0.2278,0.3520 -0.3520,0.7868 -0.3520 1.2009c 0.0000,0.8903 0.6833,1.1181 1.2630 1.1181c 0.1035,-0.0000 0.3520,-0.0207 0.6419 -0.0414c 0.4762,-0.0621 0.9939,-0.1035 1.3459 -0.1035c 0.7247,-0.0000 2.0912,0.1449 2.9195 0.8489c 0.5590,0.5176 0.8696,1.0146 0.8696 1.6771c 0.0000,2.2362 -2.9402,3.4164 -5.6112 3.4164c -1.5115,-0.0000 -3.1886,-0.5590 -3.1886 -2.3604c 0.0000,-0.8903 0.5590,-1.8428 1.6150 -2.5054c -0.5176,-0.2692 -0.8903,-0.7868 -0.8903 -1.5322c 0.0000,-0.7040 0.3106,-1.5943 0.8696 -2.0912c -0.5590,-0.5590 -1.0353,-1.2630 -1.0353 -2.4018c 0.0000,-1.9049 1.6771,-3.1265 3.4371 -3.1265c 1.1595,-0.0000 1.8842,0.4762 2.1120 0.6419c 0.5176,-0.7040 1.4494,-1.0560 1.9670 -1.0560c 0.5383,-0.0000 0.9110,0.3520 0.9110 0.7868c 0.0000,0.4555 -0.2899,0.7454 -0.7040 0.7454Z"/></g><g stroke-linejoin="miter" stroke-opacity="0.6" fill-opacity="0.0" stroke="rgb(0,0,0)" stroke-width="2.2694084234167016" fill="rgb(0,0,0)" stroke-linecap="butt" stroke-miterlimit="10.0"><path d="M 370.2302,340.2263 v 9.3640 "/></g><g stroke-linejoin="miter" stroke-opacity="1.0" fill-opacity="0.6" stroke="rgb(0,0,0)" fill-rule="evenodd" stroke-width="0.0" fill="rgb(0,0,0)" stroke-linecap="butt" stroke-miterlimit="10.0"><path d="M 320.2628,372.7830 ZM 322.1677,371.2922 v -6.6050 h -1.4287 c -0.0828,-0.0000 -0.1035,-0.0207 -0.1035 -0.1035v -0.2899 c 0.0000,-0.1656 0.1035,-0.4141 0.4762 -0.4141h 1.0560 v -0.8075 c 0.0000,-3.2300 1.6771,-4.7415 3.4164 -4.7415c 0.7868,-0.0000 1.3251,0.2071 1.8428 0.5590c 0.4141,0.3106 0.6005,0.6626 0.6005 0.9939c 0.0000,0.4348 -0.3106,0.7454 -0.7040 0.7454c -0.4141,-0.0000 -0.6833,-0.2278 -0.8489 -0.5798c -0.2692,-0.6833 -0.6626,-1.0146 -1.2837 -1.0146c -0.6833,-0.0000 -1.4701,0.4969 -1.4701 3.6856v 1.1595 h 2.2776 c 0.1035,-0.0000 0.1656,0.0414 0.1656 0.1242v 0.4141 c 0.0000,0.1863 -0.2899,0.2692 -0.4762 0.2692h -1.9670 v 6.6050 c 0.0000,0.6005 0.2071,0.9110 0.8903 0.9110h 0.6833 c 0.0828,-0.0000 0.1656,0.0621 0.1656 0.1656v 0.3934 l -0.0414,0.0414 c 0.0000,-0.0000 -1.6978,-0.0414 -2.5054 -0.0414c -0.7454,-0.0000 -2.1534,0.0414 -2.1534 0.0414l -0.0414,-0.0414 v -0.3934 c 0.0000,-0.1035 0.0621,-0.1656 0.1656 -0.1656h 0.3934 c 0.7040,-0.0000 0.8903,-0.3106 0.8903 -0.9110Z"/></g><g stroke-linejoin="miter" stroke-opacity="0.6" fill-opacity="0.0" stroke="rgb(0,0,0)" stroke-width="2.2694084234167016" fill="rgb(0,0,0)" stroke-linecap="butt" stroke-miterlimit="10.0"><path d="M 323.4101,340.2263 v 9.3640 "/></g><g stroke-linejoin="miter" stroke-opacity="1.0" fill-opacity="0.6" stroke="rgb(0,0,0)" fill-rule="evenodd" stroke-width="0.0" fill="rgb(0,0,0)" stroke-linecap="butt" stroke-miterlimit="10.0"><path d="M 272.1590,372.7830 ZM 274.5194,367.0476 h 3.8098 c 0.2071,-0.0000 0.2899,-0.1035 0.2899 -0.2899c 0.0000,-1.9256 -0.9732,-2.4225 -1.7185 -2.4225c -0.4762,-0.0000 -2.0291,0.1863 -2.3811 2.7124ZM 274.5194,367.0476 ZM 279.9856,370.8574 l 0.4141,0.3313 c -0.7868,1.0767 -2.0084,1.8428 -3.4992 1.8428c -2.8366,-0.0000 -4.0376,-2.1120 -4.0376 -4.3688c 0.0000,-3.1472 2.0705,-5.0314 4.0376 -5.0314c 2.7331,-0.0000 3.3750,2.1327 3.3750 3.8719c 0.0000,0.2278 -0.1449,0.3520 -0.3727 0.3520h -5.4455 c -0.0207,0.1242 -0.0207,0.2485 -0.0207 0.4141c 0.0000,2.1120 1.4701,3.7477 2.9609 3.7477c 1.1388,-0.0000 1.8635,-0.3727 2.5882 -1.1595Z"/></g><g stroke-linejoin="miter" stroke-opacity="0.6" fill-opacity="0.0" stroke="rgb(0,0,0)" stroke-width="2.2694084234167016" fill="rgb(0,0,0)" stroke-linecap="butt" stroke-miterlimit="10.0"><path d="M 276.5899,340.2263 v 9.3640 "/></g><g stroke-linejoin="miter" stroke-opacity="1.0" fill-opacity="0.6" stroke="rgb(0,0,0)" fill-rule="evenodd" stroke-width="0.0" fill="rgb(0,0,0)" stroke-linecap="butt" stroke-miterlimit="10.0"><path d="M 224.6556,372.7830 ZM 231.5712,370.9402 v -5.3627 c -0.4969,-0.7868 -1.0560,-1.2216 -2.0291 -1.2216c -0.4141,-0.0000 -1.2630,0.0621 -1.9256 1.0353c -0.2899,0.4348 -0.6419,1.3251 -0.6419 2.8159c 0.0000,2.7124 1.4080,3.9547 2.5261 3.9547c 0.6833,-0.0000 1.2423,-0.4141 2.0705 -1.2216ZM 231.5712,370.9402 ZM 233.1241,358.3306 v 11.9677 c 0.0000,0.6212 0.0414,0.9524 0.0828 1.0974c 0.0621,0.1863 0.2899,0.3106 0.4555 0.3106c 0.2485,-0.0000 0.7040,-0.0000 1.0146 -0.0621l 0.0828,0.5798 c -1.2009,0.2071 -2.2776,0.4348 -2.7124 0.8075h -0.4969 l 0.0621,-1.4287 c -0.7868,0.8075 -1.5943,1.4287 -2.6503 1.4287c -2.2362,-0.0000 -3.6027,-1.9049 -3.6027 -4.4517c 0.0000,-1.5322 0.4141,-2.8159 1.3044 -3.7063c 0.8282,-0.7868 1.7393,-1.2423 3.1058 -1.2423c 0.4141,-0.0000 1.3251,0.1863 1.8014 0.4555v -3.1679 c 0.0000,-1.1802 -0.1863,-1.5115 -0.6005 -1.5115l -0.6833,0.0828 c -0.0414,-0.0000 -0.1035,-0.0414 -0.1035 -0.1035l -0.0414,-0.5176 c 0.3313,-0.0000 1.0767,-0.1242 1.4287 -0.1863c 0.3934,-0.0828 0.6833,-0.1656 1.0974 -0.3520h 0.4555 Z"/></g><g stroke-linejoin="miter" stroke-opacity="0.6" fill-opacity="0.0" stroke="rgb(0,0,0)" stroke-width="2.2694084234167016" fill="rgb(0,0,0)" stroke-linecap="butt" stroke-miterlimit="10.0"><path d="M 229.7698,340.2263 v 9.3640 "/></g><g stroke-linejoin="miter" stroke-opacity="1.0" fill-opacity="0.6" stroke="rgb(0,0,0)" fill-rule="evenodd" stroke-width="0.0" fill="rgb(0,0,0)" stroke-linecap="butt" stroke-miterlimit="10.0"><path d="M 178.7775,372.7830 ZM 186.7284,370.8988 c -0.9110,1.5736 -1.9049,2.1327 -3.1472 2.1327c -2.4847,-0.0000 -4.0376,-1.8842 -4.0376 -4.5552c 0.0000,-2.9402 1.8428,-4.8451 4.0790 -4.8451c 1.9877,-0.0000 3.0437,1.0146 3.0437 2.1120c 0.0000,0.6005 -0.3727,0.9110 -0.8075 0.9110c -0.4348,-0.0000 -0.8489,-0.2278 -0.9110 -0.7454c -0.0828,-0.6833 -0.2071,-1.5736 -1.4287 -1.5736c -1.3666,-0.0000 -2.3811,1.4494 -2.3811 3.6856c 0.0000,2.4225 1.3044,4.0997 2.8988 4.0997c 0.8903,-0.0000 1.6771,-0.5798 2.3190 -1.5115Z"/></g><g stroke-linejoin="miter" stroke-opacity="0.6" fill-opacity="0.0" stroke="rgb(0,0,0)" stroke-width="2.2694084234167016" fill="rgb(0,0,0)" stroke-linecap="butt" stroke-miterlimit="10.0"><path d="M 182.9497,340.2263 v 9.3640 "/></g><g stroke-linejoin="miter" stroke-opacity="1.0" fill-opacity="0.6" stroke="rgb(0,0,0)" fill-rule="evenodd" stroke-width="0.0" fill="rgb(0,0,0)" stroke-linecap="butt" stroke-miterlimit="10.0"><path d="M 131.1809,372.7830 ZM 134.2660,371.6442 c 0.4141,0.4969 0.8489,0.6626 1.4908 0.6626c 1.9670,-0.0000 2.9609,-1.8221 2.9609 -4.1825c 0.0000,-2.1120 -1.0767,-3.6234 -2.3397 -3.6234c -0.2278,-0.0000 -1.3044,0.0414 -2.1120 0.8903v 6.2530 ZM 134.2660,371.6442 ZM 132.7131,360.9188 c 0.0000,-1.1802 -0.2071,-1.5115 -0.6212 -1.5115l -0.6626,0.0828 c -0.0621,-0.0000 -0.1035,-0.0414 -0.1035 -0.1035l -0.0414,-0.5176 c 0.3313,-0.0000 1.0767,-0.1242 1.4287 -0.1863c 0.3727,-0.0828 0.6833,-0.1656 1.0974 -0.3520h 0.4555 v 6.4187 c 0.7040,-0.7661 1.5322,-1.1388 2.5261 -1.1388c 1.8014,-0.0000 3.5199,1.7185 3.5199 4.2446c 0.0000,3.2922 -2.3190,5.1556 -4.4310 5.1556c -0.8903,-0.0000 -1.5529,-0.2485 -2.1534 -0.7661c -0.1863,0.2485 -0.4555,0.5590 -0.6419 0.7661l -0.4348,-0.1035 c 0.0621,-0.4969 0.0621,-0.8282 0.0621 -1.6357v -10.3527 Z"/></g><g stroke-linejoin="miter" stroke-opacity="0.6" fill-opacity="0.0" stroke="rgb(0,0,0)" stroke-width="2.2694084234167016" fill="rgb(0,0,0)" stroke-linecap="butt" stroke-miterlimit="10.0"><path d="M 136.1295,340.2263 v 9.3640 "/></g><g stroke-linejoin="miter" stroke-opacity="1.0" fill-opacity="0.6" stroke="rgb(0,0,0)" fill-rule="evenodd" stroke-width="0.0" fill="rgb(0,0,0)" stroke-linecap="butt" stroke-miterlimit="10.0"><path d="M 84.6403,372.7830 ZM 90.6656,367.7102 l -1.6357,0.4141 c -1.8221,0.5590 -2.0912,1.5115 -2.0912 2.4432c 0.0000,0.6419 0.3106,1.6150 1.6150 1.6150c 0.6212,-0.0000 1.5736,-0.6005 2.1120 -1.0560v -3.4164 ZM 90.6656,367.7102 ZM 91.9908,373.0314 c -0.7868,-0.0000 -1.2216,-0.7040 -1.3044 -1.2009l -0.4762,0.3313 c -0.9524,0.6626 -1.3044,0.8696 -2.2569 0.8696c -1.4494,-0.0000 -2.5054,-0.8282 -2.5054 -2.3811c 0.0000,-1.5736 1.3459,-2.6503 3.3129 -3.1472l 1.9049,-0.4762 c 0.0000,-2.3397 -1.0767,-2.7745 -1.7807 -2.7745c -0.7868,-0.0000 -1.6978,0.3520 -1.6978 0.9939c 0.0000,0.2278 0.0414,0.3520 0.0621 0.4141c 0.0414,0.0828 0.0621,0.2278 0.0621 0.3727c 0.0000,0.2692 -0.2071,0.6833 -0.8075 0.6833c -0.4969,-0.0000 -0.8282,-0.3313 -0.8282 -0.8282c 0.0000,-1.2009 1.9463,-2.2569 3.2715 -2.2569c 1.5115,-0.0000 3.2508,0.6212 3.2508 3.5613v 3.0437 c 0.0000,1.2630 0.0207,1.8014 0.4969 1.8014c 0.4555,-0.0000 0.5798,-0.5798 0.6005 -1.0353l 0.5176,0.1035 c -0.1242,1.5115 -0.7661,1.9256 -1.8221 1.9256Z"/></g><g stroke-linejoin="miter" stroke-opacity="0.6" fill-opacity="0.0" stroke="rgb(0,0,0)" stroke-width="2.2694084234167016" fill="rgb(0,0,0)" stroke-linecap="butt" stroke-miterlimit="10.0"><path d="M 89.3094,340.2263 v 9.3640 "/></g><g stroke-linejoin="miter" stroke-opacity="0.0" fill-opacity="0.0" stroke="rgb(0,0,0)" stroke-width="0.0" fill="rgb(0,0,0)" stroke-linecap="butt" stroke-miterlimit="10.0"><path d="M 534.1007,327.7409 l -0.0000,-312.1342 h -468.2013 l -0.0000,312.1342 Z"/></g><g stroke-linejoin="miter" stroke-opacity="0.5" fill-opacity="0.0" stroke="rgb(93,165,218)" stroke-width="0.9077633693666806" fill="rgb(0,0,0)" stroke-linecap="butt" stroke-miterlimit="10.0"><path d="M 534.1007,327.7409 v -312.1342 "/></g><g stroke-linejoin="miter" stroke-opacity="0.5" fill-opacity="0.0" stroke="rgb(93,165,218)" stroke-width="0.9077633693666806" fill="rgb(0,0,0)" stroke-linecap="butt" stroke-miterlimit="10.0"><path d="M 487.2805,327.7409 v -312.1342 "/></g><g stroke-linejoin="miter" stroke-opacity="0.5" fill-opacity="0.0" stroke="rgb(93,165,218)" stroke-width="0.9077633693666806" fill="rgb(0,0,0)" stroke-linecap="butt" stroke-miterlimit="10.0"><path d="M 440.4604,327.7409 v -312.1342 "/></g><g stroke-linejoin="miter" stroke-opacity="0.5" fill-opacity="0.0" stroke="rgb(93,165,218)" stroke-width="0.9077633693666806" fill="rgb(0,0,0)" stroke-linecap="butt" stroke-miterlimit="10.0"><path d="M 393.6403,327.7409 v -312.1342 "/></g><g stroke-linejoin="miter" stroke-opacity="0.5" fill-opacity="0.0" stroke="rgb(93,165,218)" stroke-width="0.9077633693666806" fill="rgb(0,0,0)" stroke-linecap="butt" stroke-miterlimit="10.0"><path d="M 346.8201,327.7409 v -312.1342 "/></g><g stroke-linejoin="miter" stroke-opacity="0.5" fill-opacity="0.0" stroke="rgb(93,165,218)" stroke-width="0.9077633693666806" fill="rgb(0,0,0)" stroke-linecap="butt" stroke-miterlimit="10.0"><path d="M 300.0000,327.7409 v -312.1342 "/></g><g stroke-linejoin="miter" stroke-opacity="0.5" fill-opacity="0.0" stroke="rgb(93,165,218)" stroke-width="0.9077633693666806" fill="rgb(0,0,0)" stroke-linecap="butt" stroke-miterlimit="10.0"><path d="M 253.1799,327.7409 v -312.1342 "/></g><g stroke-linejoin="miter" stroke-opacity="0.5" fill-opacity="0.0" stroke="rgb(93,165,218)" stroke-width="0.9077633693666806" fill="rgb(0,0,0)" stroke-linecap="butt" stroke-miterlimit="10.0"><path d="M 206.3597,327.7409 v -312.1342 "/></g><g stroke-linejoin="miter" stroke-opacity="0.5" fill-opacity="0.0" stroke="rgb(93,165,218)" stroke-width="0.9077633693666806" fill="rgb(0,0,0)" stroke-linecap="butt" stroke-miterlimit="10.0"><path d="M 159.5396,327.7409 v -312.1342 "/></g><g stroke-linejoin="miter" stroke-opacity="0.5" fill-opacity="0.0" stroke="rgb(93,165,218)" stroke-width="0.9077633693666806" fill="rgb(0,0,0)" stroke-linecap="butt" stroke-miterlimit="10.0"><path d="M 112.7195,327.7409 v -312.1342 "/></g><g stroke-linejoin="miter" stroke-opacity="0.5" fill-opacity="0.0" stroke="rgb(93,165,218)" stroke-width="0.9077633693666806" fill="rgb(0,0,0)" stroke-linecap="butt" stroke-miterlimit="10.0"><path d="M 65.8993,327.7409 v -312.1342 "/></g><g stroke-linejoin="miter" stroke-opacity="0.5" fill-opacity="0.0" stroke="rgb(93,165,218)" stroke-width="0.9077633693666806" fill="rgb(0,0,0)" stroke-linecap="butt" stroke-miterlimit="10.0"><path d="M 65.8993,15.6067 h 468.2013 "/></g><g stroke-linejoin="miter" stroke-opacity="0.5" fill-opacity="0.0" stroke="rgb(93,165,218)" stroke-width="0.9077633693666806" fill="rgb(0,0,0)" stroke-linecap="butt" stroke-miterlimit="10.0"><path d="M 65.8993,39.6170 h 468.2013 "/></g><g stroke-linejoin="miter" stroke-opacity="0.5" fill-opacity="0.0" stroke="rgb(93,165,218)" stroke-width="0.9077633693666806" fill="rgb(0,0,0)" stroke-linecap="butt" stroke-miterlimit="10.0"><path d="M 65.8993,63.6274 h 468.2013 "/></g><g stroke-linejoin="miter" stroke-opacity="0.5" fill-opacity="0.0" stroke="rgb(93,165,218)" stroke-width="0.9077633693666806" fill="rgb(0,0,0)" stroke-linecap="butt" stroke-miterlimit="10.0"><path d="M 65.8993,87.6377 h 468.2013 "/></g><g stroke-linejoin="miter" stroke-opacity="0.5" fill-opacity="0.0" stroke="rgb(93,165,218)" stroke-width="0.9077633693666806" fill="rgb(0,0,0)" stroke-linecap="butt" stroke-miterlimit="10.0"><path d="M 65.8993,111.6480 h 468.2013 "/></g><g stroke-linejoin="miter" stroke-opacity="0.5" fill-opacity="0.0" stroke="rgb(93,165,218)" stroke-width="0.9077633693666806" fill="rgb(0,0,0)" stroke-linecap="butt" stroke-miterlimit="10.0"><path d="M 65.8993,135.6583 h 468.2013 "/></g><g stroke-linejoin="miter" stroke-opacity="0.5" fill-opacity="0.0" stroke="rgb(93,165,218)" stroke-width="0.9077633693666806" fill="rgb(0,0,0)" stroke-linecap="butt" stroke-miterlimit="10.0"><path d="M 65.8993,159.6687 h 468.2013 "/></g><g stroke-linejoin="miter" stroke-opacity="0.5" fill-opacity="0.0" stroke="rgb(93,165,218)" stroke-width="0.9077633693666806" fill="rgb(0,0,0)" stroke-linecap="butt" stroke-miterlimit="10.0"><path d="M 65.8993,183.6790 h 468.2013 "/></g><g stroke-linejoin="miter" stroke-opacity="0.5" fill-opacity="0.0" stroke="rgb(93,165,218)" stroke-width="0.9077633693666806" fill="rgb(0,0,0)" stroke-linecap="butt" stroke-miterlimit="10.0"><path d="M 65.8993,207.6893 h 468.2013 "/></g><g stroke-linejoin="miter" stroke-opacity="0.5" fill-opacity="0.0" stroke="rgb(93,165,218)" stroke-width="0.9077633693666806" fill="rgb(0,0,0)" stroke-linecap="butt" stroke-miterlimit="10.0"><path d="M 65.8993,231.6996 h 468.2013 "/></g><g stroke-linejoin="miter" stroke-opacity="0.5" fill-opacity="0.0" stroke="rgb(93,165,218)" stroke-width="0.9077633693666806" fill="rgb(0,0,0)" stroke-linecap="butt" stroke-miterlimit="10.0"><path d="M 65.8993,255.7100 h 468.2013 "/></g><g stroke-linejoin="miter" stroke-opacity="0.5" fill-opacity="0.0" stroke="rgb(93,165,218)" stroke-width="0.9077633693666806" fill="rgb(0,0,0)" stroke-linecap="butt" stroke-miterlimit="10.0"><path d="M 65.8993,279.7203 h 468.2013 "/></g><g stroke-linejoin="miter" stroke-opacity="0.5" fill-opacity="0.0" stroke="rgb(93,165,218)" stroke-width="0.9077633693666806" fill="rgb(0,0,0)" stroke-linecap="butt" stroke-miterlimit="10.0"><path d="M 65.8993,303.7306 h 468.2013 "/></g><g stroke-linejoin="miter" stroke-opacity="0.5" fill-opacity="0.0" stroke="rgb(93,165,218)" stroke-width="0.9077633693666806" fill="rgb(0,0,0)" stroke-linecap="butt" stroke-miterlimit="10.0"><path d="M 65.8993,327.7409 h 468.2013 "/></g><g stroke-linejoin="miter" stroke-opacity="1.0" fill-opacity="0.8" stroke="rgb(0,0,0)" fill-rule="evenodd" stroke-width="0.0" fill="rgb(84,84,84)" stroke-linecap="butt" stroke-miterlimit="10.0"><path d="M 499.3544,279.7203 ZM 503.2470,269.8438 c -0.3934,-0.0000 -1.3044,0.3727 -1.7600 0.5798l -0.2485,-0.6419 c 1.8221,-0.8489 2.5261,-1.2837 3.5613 -2.0291h 0.3934 v 10.4148 c 0.0000,0.7454 0.1035,0.9524 0.7868 0.9524h 1.0767 c 0.0621,-0.0000 0.1656,0.0414 0.1656 0.1656v 0.4555 l -2.8366,-0.0414 l -2.8781,0.0414 v -0.4555 c 0.0207,-0.0621 0.0414,-0.1656 0.1656 -0.1656h 1.2423 c 0.7868,-0.0000 0.7868,-0.3520 0.7868 -0.9524v -7.1227 c 0.0000,-0.7040 0.0000,-1.2009 -0.4555 -1.2009ZM 508.4234,279.7203 ZM 509.6036,278.8714 c 0.0000,-0.6005 0.4969,-1.0974 1.0974 -1.0974c 0.6005,-0.0000 1.0974,0.4969 1.0974 1.0974c 0.0000,0.6005 -0.4969,1.0974 -1.0974 1.0974c -0.6005,-0.0000 -1.0974,-0.4969 -1.0974 -1.0974ZM 512.9578,279.7203 ZM 517.4923,268.4772 c -0.8903,-0.0000 -2.1948,0.8696 -2.1948 5.6940c 0.0000,1.6978 0.3106,5.1142 2.1327 5.1142c 0.3520,-0.0000 1.3459,-0.2278 1.7807 -1.8428c 0.2692,-0.9939 0.4141,-2.2362 0.4141 -4.0376c 0.0000,-2.6296 -0.6626,-4.0997 -1.2630 -4.6173c -0.2278,-0.2071 -0.5383,-0.3106 -0.8696 -0.3106ZM 517.4923,268.4772 ZM 517.4095,279.9687 c -2.2155,-0.0000 -3.7063,-2.8366 -3.7063 -6.0046c 0.0000,-3.8719 1.8428,-6.2116 3.7891 -6.2116c 0.8903,-0.0000 1.7807,0.5590 2.3811 1.3666c 0.8696,1.1595 1.3251,2.7124 1.3251 4.6587c 0.0000,4.5966 -2.2776,6.1909 -3.7891 6.1909Z"/></g><g stroke-linejoin="miter" stroke-opacity="1.0" fill-opacity="0.8" stroke="rgb(0,0,0)" fill-rule="evenodd" stroke-width="0.0" fill="rgb(84,84,84)" stroke-linecap="butt" stroke-miterlimit="10.0"><path d="M 452.5342,255.7100 ZM 453.7352,246.5375 c 0.0000,-1.1802 1.1388,-2.7952 3.3129 -2.7952c 1.5943,-0.0000 3.4578,0.6005 3.4578 2.9816c 0.0000,1.5736 -0.8075,2.3604 -1.9256 3.4371l -1.9670,1.9049 c -0.1035,0.1035 -1.4908,1.4701 -1.4908 2.4432h 3.5199 c 0.7040,-0.0000 1.0767,-0.3520 1.3666 -1.4908l 0.5176,0.0828 l -0.4141,2.6089 h -6.3980 c 0.0000,-1.1595 0.1863,-2.0498 2.1120 -4.0169l 1.4494,-1.4287 c 1.1595,-1.1802 1.6357,-2.1948 1.6357 -3.4578c 0.0000,-1.8842 -1.2837,-2.4225 -1.9877 -2.4225c -1.4287,-0.0000 -1.8221,0.7454 -1.8221 1.2423c 0.0000,0.1656 0.0414,0.3313 0.0828 0.4762c 0.0414,0.1449 0.0828,0.2899 0.0828 0.4555c 0.0000,0.5383 -0.4141,0.7454 -0.7454 0.7454c -0.4555,-0.0000 -0.7868,-0.3520 -0.7868 -0.7661ZM 461.6032,255.7100 ZM 462.7834,254.8610 c 0.0000,-0.6005 0.4969,-1.0974 1.0974 -1.0974c 0.6005,-0.0000 1.0974,0.4969 1.0974 1.0974c 0.0000,0.6005 -0.4969,1.0974 -1.0974 1.0974c -0.6005,-0.0000 -1.0974,-0.4969 -1.0974 -1.0974ZM 466.1377,255.7100 ZM 470.6722,244.4669 c -0.8903,-0.0000 -2.1948,0.8696 -2.1948 5.6940c 0.0000,1.6978 0.3106,5.1142 2.1327 5.1142c 0.3520,-0.0000 1.3459,-0.2278 1.7807 -1.8428c 0.2692,-0.9939 0.4141,-2.2362 0.4141 -4.0376c 0.0000,-2.6296 -0.6626,-4.0997 -1.2630 -4.6173c -0.2278,-0.2071 -0.5383,-0.3106 -0.8696 -0.3106ZM 470.6722,244.4669 ZM 470.5894,255.9584 c -2.2155,-0.0000 -3.7063,-2.8366 -3.7063 -6.0046c 0.0000,-3.8719 1.8428,-6.2116 3.7891 -6.2116c 0.8903,-0.0000 1.7807,0.5590 2.3811 1.3666c 0.8696,1.1595 1.3251,2.7124 1.3251 4.6587c 0.0000,4.5966 -2.2776,6.1909 -3.7891 6.1909Z"/></g><g stroke-linejoin="miter" stroke-opacity="1.0" fill-opacity="0.8" stroke="rgb(0,0,0)" fill-rule="evenodd" stroke-width="0.0" fill="rgb(84,84,84)" stroke-linecap="butt" stroke-miterlimit="10.0"><path d="M 401.1796,39.6170 ZM 405.0722,29.7405 c -0.3934,-0.0000 -1.3044,0.3727 -1.7600 0.5798l -0.2485,-0.6419 c 1.8221,-0.8489 2.5261,-1.2837 3.5613 -2.0291h 0.3934 v 10.4148 c 0.0000,0.7454 0.1035,0.9524 0.7868 0.9524h 1.0767 c 0.0621,-0.0000 0.1656,0.0414 0.1656 0.1656v 0.4555 l -2.8366,-0.0414 l -2.8781,0.0414 v -0.4555 c 0.0207,-0.0621 0.0414,-0.1656 0.1656 -0.1656h 1.2423 c 0.7868,-0.0000 0.7868,-0.3520 0.7868 -0.9524v -7.1227 c 0.0000,-0.7040 0.0000,-1.2009 -0.4555 -1.2009ZM 410.2486,39.6170 ZM 414.1412,29.7405 c -0.3934,-0.0000 -1.3044,0.3727 -1.7600 0.5798l -0.2485,-0.6419 c 1.8221,-0.8489 2.5261,-1.2837 3.5613 -2.0291h 0.3934 v 10.4148 c 0.0000,0.7454 0.1035,0.9524 0.7868 0.9524h 1.0767 c 0.0621,-0.0000 0.1656,0.0414 0.1656 0.1656v 0.4555 l -2.8366,-0.0414 l -2.8781,0.0414 v -0.4555 c 0.0207,-0.0621 0.0414,-0.1656 0.1656 -0.1656h 1.2423 c 0.7868,-0.0000 0.7868,-0.3520 0.7868 -0.9524v -7.1227 c 0.0000,-0.7040 0.0000,-1.2009 -0.4555 -1.2009ZM 419.3176,39.6170 ZM 420.4978,38.7681 c 0.0000,-0.6005 0.4969,-1.0974 1.0974 -1.0974c 0.6005,-0.0000 1.0974,0.4969 1.0974 1.0974c 0.0000,0.6005 -0.4969,1.0974 -1.0974 1.0974c -0.6005,-0.0000 -1.0974,-0.4969 -1.0974 -1.0974ZM 423.8521,39.6170 ZM 428.3865,28.3740 c -0.8903,-0.0000 -2.1948,0.8696 -2.1948 5.6940c 0.0000,1.6978 0.3106,5.1142 2.1327 5.1142c 0.3520,-0.0000 1.3459,-0.2278 1.7807 -1.8428c 0.2692,-0.9939 0.4141,-2.2362 0.4141 -4.0376c 0.0000,-2.6296 -0.6626,-4.0997 -1.2630 -4.6173c -0.2278,-0.2071 -0.5383,-0.3106 -0.8696 -0.3106ZM 428.3865,28.3740 ZM 428.3037,39.8655 c -2.2155,-0.0000 -3.7063,-2.8366 -3.7063 -6.0046c 0.0000,-3.8719 1.8428,-6.2116 3.7891 -6.2116c 0.8903,-0.0000 1.7807,0.5590 2.3811 1.3666c 0.8696,1.1595 1.3251,2.7124 1.3251 4.6587c 0.0000,4.5966 -2.2776,6.1909 -3.7891 6.1909Z"/></g><g stroke-linejoin="miter" stroke-opacity="1.0" fill-opacity="0.8" stroke="rgb(0,0,0)" fill-rule="evenodd" stroke-width="0.0" fill="rgb(84,84,84)" stroke-linecap="butt" stroke-miterlimit="10.0"><path d="M 355.4465,315.7358 ZM 361.1198,310.8493 h -4.6794 c -0.1863,-0.0000 -0.3106,-0.1656 -0.3106 -0.3520c 0.0000,-0.3313 0.2692,-0.7661 0.5176 -0.7661h 4.7415 c 0.2071,-0.0000 0.2899,0.1863 0.2899 0.3727c 0.0000,0.2278 -0.2899,0.7454 -0.5590 0.7454ZM 362.3414,315.7358 ZM 363.5423,306.5633 c 0.0000,-1.1802 1.1388,-2.7952 3.3129 -2.7952c 1.5943,-0.0000 3.4578,0.6005 3.4578 2.9816c 0.0000,1.5736 -0.8075,2.3604 -1.9256 3.4371l -1.9670,1.9049 c -0.1035,0.1035 -1.4908,1.4701 -1.4908 2.4432h 3.5199 c 0.7040,-0.0000 1.0767,-0.3520 1.3666 -1.4908l 0.5176,0.0828 l -0.4141,2.6089 h -6.3980 c 0.0000,-1.1595 0.1863,-2.0498 2.1120 -4.0169l 1.4494,-1.4287 c 1.1595,-1.1802 1.6357,-2.1948 1.6357 -3.4578c 0.0000,-1.8842 -1.2837,-2.4225 -1.9877 -2.4225c -1.4287,-0.0000 -1.8221,0.7454 -1.8221 1.2423c 0.0000,0.1656 0.0414,0.3313 0.0828 0.4762c 0.0414,0.1449 0.0828,0.2899 0.0828 0.4555c 0.0000,0.5383 -0.4141,0.7454 -0.7454 0.7454c -0.4555,-0.0000 -0.7868,-0.3520 -0.7868 -0.7661ZM 371.4104,315.7358 ZM 372.5906,314.8868 c 0.0000,-0.6005 0.4969,-1.0974 1.0974 -1.0974c 0.6005,-0.0000 1.0974,0.4969 1.0974 1.0974c 0.0000,0.6005 -0.4969,1.0974 -1.0974 1.0974c -0.6005,-0.0000 -1.0974,-0.4969 -1.0974 -1.0974ZM 375.9449,315.7358 ZM 380.4794,304.4927 c -0.8903,-0.0000 -2.1948,0.8696 -2.1948 5.6940c 0.0000,1.6978 0.3106,5.1142 2.1327 5.1142c 0.3520,-0.0000 1.3459,-0.2278 1.7807 -1.8428c 0.2692,-0.9939 0.4141,-2.2362 0.4141 -4.0376c 0.0000,-2.6296 -0.6626,-4.0997 -1.2630 -4.6173c -0.2278,-0.2071 -0.5383,-0.3106 -0.8696 -0.3106ZM 380.4794,304.4927 ZM 380.3966,315.9842 c -2.2155,-0.0000 -3.7063,-2.8366 -3.7063 -6.0046c 0.0000,-3.8719 1.8428,-6.2116 3.7891 -6.2116c 0.8903,-0.0000 1.7807,0.5590 2.3811 1.3666c 0.8696,1.1595 1.3251,2.7124 1.3251 4.6587c 0.0000,4.5966 -2.2776,6.1909 -3.7891 6.1909Z"/></g><g stroke-linejoin="miter" stroke-opacity="1.0" fill-opacity="0.8" stroke="rgb(0,0,0)" fill-rule="evenodd" stroke-width="0.0" fill="rgb(84,84,84)" stroke-linecap="butt" stroke-miterlimit="10.0"><path d="M 312.0738,267.7151 ZM 316.6083,256.4721 c -0.8903,-0.0000 -2.1948,0.8696 -2.1948 5.6940c 0.0000,1.6978 0.3106,5.1142 2.1327 5.1142c 0.3520,-0.0000 1.3459,-0.2278 1.7807 -1.8428c 0.2692,-0.9939 0.4141,-2.2362 0.4141 -4.0376c 0.0000,-2.6296 -0.6626,-4.0997 -1.2630 -4.6173c -0.2278,-0.2071 -0.5383,-0.3106 -0.8696 -0.3106ZM 316.6083,256.4721 ZM 316.5255,267.9636 c -2.2155,-0.0000 -3.7063,-2.8366 -3.7063 -6.0046c 0.0000,-3.8719 1.8428,-6.2116 3.7891 -6.2116c 0.8903,-0.0000 1.7807,0.5590 2.3811 1.3666c 0.8696,1.1595 1.3251,2.7124 1.3251 4.6587c 0.0000,4.5966 -2.2776,6.1909 -3.7891 6.1909ZM 321.1428,267.7151 ZM 322.3230,266.8662 c 0.0000,-0.6005 0.4969,-1.0974 1.0974 -1.0974c 0.6005,-0.0000 1.0974,0.4969 1.0974 1.0974c 0.0000,0.6005 -0.4969,1.0974 -1.0974 1.0974c -0.6005,-0.0000 -1.0974,-0.4969 -1.0974 -1.0974ZM 325.6773,267.7151 ZM 330.2118,256.4721 c -0.8903,-0.0000 -2.1948,0.8696 -2.1948 5.6940c 0.0000,1.6978 0.3106,5.1142 2.1327 5.1142c 0.3520,-0.0000 1.3459,-0.2278 1.7807 -1.8428c 0.2692,-0.9939 0.4141,-2.2362 0.4141 -4.0376c 0.0000,-2.6296 -0.6626,-4.0997 -1.2630 -4.6173c -0.2278,-0.2071 -0.5383,-0.3106 -0.8696 -0.3106ZM 330.2118,256.4721 ZM 330.1290,267.9636 c -2.2155,-0.0000 -3.7063,-2.8366 -3.7063 -6.0046c 0.0000,-3.8719 1.8428,-6.2116 3.7891 -6.2116c 0.8903,-0.0000 1.7807,0.5590 2.3811 1.3666c 0.8696,1.1595 1.3251,2.7124 1.3251 4.6587c 0.0000,4.5966 -2.2776,6.1909 -3.7891 6.1909Z"/></g><g stroke-linejoin="miter" stroke-opacity="1.0" fill-opacity="0.8" stroke="rgb(0,0,0)" fill-rule="evenodd" stroke-width="0.0" fill="rgb(84,84,84)" stroke-linecap="butt" stroke-miterlimit="10.0"><path d="M 265.2537,111.6480 ZM 269.8503,100.1772 c -1.1802,-0.0000 -1.9463,0.9317 -1.9463 1.8428c 0.0000,0.6005 0.2485,1.3251 1.4908 2.1327l 0.6005,0.3727 c 0.5383,-0.3934 1.8014,-1.3459 1.8014 -2.4018c 0.0000,-0.9110 -0.6626,-1.9463 -1.9463 -1.9463ZM 269.8503,100.1772 ZM 273.0182,102.1442 c 0.0000,1.2630 -1.4287,2.2569 -2.2983 2.8366l 1.2009,0.7868 c 1.0146,0.6626 1.5322,1.5736 1.5322 2.7124c 0.0000,1.4908 -1.2216,3.4164 -3.7891 3.4164c -2.0705,-0.0000 -3.4992,-1.0974 -3.4992 -3.1058c 0.0000,-0.7661 0.3313,-1.6564 1.1388 -2.3604c 0.4969,-0.4348 0.9317,-0.8075 1.4287 -1.1802l -0.3520,-0.2071 c -1.2009,-0.7454 -1.8014,-1.5529 -1.8014 -2.6503c 0.0000,-1.5115 1.3666,-2.7124 3.3750 -2.7124c 1.9256,-0.0000 3.0644,1.0560 3.0644 2.4639ZM 273.0182,102.1442 ZM 269.7054,111.3167 c 0.8903,-0.0000 2.4432,-0.4762 2.4432 -2.4432c 0.0000,-0.9317 -0.5798,-1.8635 -1.8014 -2.6089l -0.9110,-0.5590 c -1.6771,1.1181 -2.0498,2.5054 -2.0498 3.0851c 0.0000,1.7600 1.4287,2.5261 2.3190 2.5261ZM 274.3227,111.6480 ZM 275.5029,110.7991 c 0.0000,-0.6005 0.4969,-1.0974 1.0974 -1.0974c 0.6005,-0.0000 1.0974,0.4969 1.0974 1.0974c 0.0000,0.6005 -0.4969,1.0974 -1.0974 1.0974c -0.6005,-0.0000 -1.0974,-0.4969 -1.0974 -1.0974ZM 278.8572,111.6480 ZM 283.3917,100.4050 c -0.8903,-0.0000 -2.1948,0.8696 -2.1948 5.6940c 0.0000,1.6978 0.3106,5.1142 2.1327 5.1142c 0.3520,-0.0000 1.3459,-0.2278 1.7807 -1.8428c 0.2692,-0.9939 0.4141,-2.2362 0.4141 -4.0376c 0.0000,-2.6296 -0.6626,-4.0997 -1.2630 -4.6173c -0.2278,-0.2071 -0.5383,-0.3106 -0.8696 -0.3106ZM 283.3917,100.4050 ZM 283.3088,111.8965 c -2.2155,-0.0000 -3.7063,-2.8366 -3.7063 -6.0046c 0.0000,-3.8719 1.8428,-6.2116 3.7891 -6.2116c 0.8903,-0.0000 1.7807,0.5590 2.3811 1.3666c 0.8696,1.1595 1.3251,2.7124 1.3251 4.6587c 0.0000,4.5966 -2.2776,6.1909 -3.7891 6.1909Z"/></g><g stroke-linejoin="miter" stroke-opacity="1.0" fill-opacity="0.8" stroke="rgb(0,0,0)" fill-rule="evenodd" stroke-width="0.0" fill="rgb(84,84,84)" stroke-linecap="butt" stroke-miterlimit="10.0"><path d="M 218.4336,183.6790 ZM 224.8316,180.1798 c 0.0000,-2.1327 -1.1595,-3.1886 -2.4432 -3.1886c -0.9524,-0.0000 -1.6771,0.1449 -2.4847 0.4762l 0.6626,-5.6526 c 0.6833,0.0621 1.3873,0.0828 2.1120 0.0828c 1.0353,-0.0000 2.1120,-0.0621 3.2300 -0.1863l 0.1242,0.0621 l -0.3106,1.3459 c -0.8075,0.0828 -1.4701,0.1035 -2.0498 0.1035c -0.9317,-0.0000 -1.6357,-0.0828 -2.3604 -0.1656l -0.3934,3.2715 c 0.4348,-0.1656 1.1802,-0.3106 1.9877 -0.3106c 2.1948,-0.0000 3.4164,1.9049 3.4164 3.8098c 0.0000,2.3190 -1.6150,4.0997 -3.9547 4.0997c -1.1802,-0.0000 -2.8988,-0.6626 -2.8988 -1.4701c 0.0000,-0.3934 0.3313,-0.6626 0.7040 -0.6626c 0.4141,-0.0000 0.6833,0.3106 0.9317 0.6419c 0.3106,0.3727 0.6419,0.7868 1.3044 0.7868c 1.3251,-0.0000 2.4225,-1.2423 2.4225 -3.0437ZM 227.5026,183.6790 ZM 228.6828,182.8301 c 0.0000,-0.6005 0.4969,-1.0974 1.0974 -1.0974c 0.6005,-0.0000 1.0974,0.4969 1.0974 1.0974c 0.0000,0.6005 -0.4969,1.0974 -1.0974 1.0974c -0.6005,-0.0000 -1.0974,-0.4969 -1.0974 -1.0974ZM 232.0370,183.6790 ZM 236.5715,172.4359 c -0.8903,-0.0000 -2.1948,0.8696 -2.1948 5.6940c 0.0000,1.6978 0.3106,5.1142 2.1327 5.1142c 0.3520,-0.0000 1.3459,-0.2278 1.7807 -1.8428c 0.2692,-0.9939 0.4141,-2.2362 0.4141 -4.0376c 0.0000,-2.6296 -0.6626,-4.0997 -1.2630 -4.6173c -0.2278,-0.2071 -0.5383,-0.3106 -0.8696 -0.3106ZM 236.5715,172.4359 ZM 236.4887,183.9274 c -2.2155,-0.0000 -3.7063,-2.8366 -3.7063 -6.0046c 0.0000,-3.8719 1.8428,-6.2116 3.7891 -6.2116c 0.8903,-0.0000 1.7807,0.5590 2.3811 1.3666c 0.8696,1.1595 1.3251,2.7124 1.3251 4.6587c 0.0000,4.5966 -2.2776,6.1909 -3.7891 6.1909Z"/></g><g stroke-linejoin="miter" stroke-opacity="1.0" fill-opacity="0.8" stroke="rgb(0,0,0)" fill-rule="evenodd" stroke-width="0.0" fill="rgb(84,84,84)" stroke-linecap="butt" stroke-miterlimit="10.0"><path d="M 171.6135,231.6996 ZM 176.0858,220.3738 c -0.5176,-0.0000 -2.0291,0.2899 -2.0291 1.5529c 0.0000,0.3727 -0.1449,1.0146 -0.7040 1.0146c -0.5383,-0.0000 -0.5798,-0.6005 -0.5798 -0.6626c 0.0000,-0.6419 0.8489,-2.5468 3.7270 -2.5468c 2.0084,-0.0000 2.6089,1.2630 2.6089 2.0912c 0.0000,0.5176 -0.1656,1.5529 -2.0291 2.7331c 1.1595,0.1863 2.6917,1.0353 2.6917 3.1886c 0.0000,2.7331 -2.0705,4.2032 -4.4103 4.2032c -1.1802,-0.0000 -2.8366,-0.5176 -2.8366 -1.3044c 0.0000,-0.3106 0.3106,-0.6626 0.7247 -0.6626c 0.3934,-0.0000 0.5798,0.2071 0.7661 0.4762c 0.2278,0.3520 0.6005,0.8489 1.5943 0.8489c 0.6833,-0.0000 2.6296,-0.6833 2.6296 -3.2922c 0.0000,-2.2155 -1.5529,-2.5675 -2.6710 -2.5675c -0.1863,-0.0000 -0.4141,0.0414 -0.6419 0.0828l -0.0828,-0.6212 c 1.5943,-0.2692 2.9195,-1.8221 2.9195 -2.7745c 0.0000,-1.1802 -0.8282,-1.7600 -1.6771 -1.7600ZM 180.6824,231.6996 ZM 181.8626,230.8507 c 0.0000,-0.6005 0.4969,-1.0974 1.0974 -1.0974c 0.6005,-0.0000 1.0974,0.4969 1.0974 1.0974c 0.0000,0.6005 -0.4969,1.0974 -1.0974 1.0974c -0.6005,-0.0000 -1.0974,-0.4969 -1.0974 -1.0974ZM 185.2169,231.6996 ZM 189.7514,220.4566 c -0.8903,-0.0000 -2.1948,0.8696 -2.1948 5.6940c 0.0000,1.6978 0.3106,5.1142 2.1327 5.1142c 0.3520,-0.0000 1.3459,-0.2278 1.7807 -1.8428c 0.2692,-0.9939 0.4141,-2.2362 0.4141 -4.0376c 0.0000,-2.6296 -0.6626,-4.0997 -1.2630 -4.6173c -0.2278,-0.2071 -0.5383,-0.3106 -0.8696 -0.3106ZM 189.7514,220.4566 ZM 189.6686,231.9481 c -2.2155,-0.0000 -3.7063,-2.8366 -3.7063 -6.0046c 0.0000,-3.8719 1.8428,-6.2116 3.7891 -6.2116c 0.8903,-0.0000 1.7807,0.5590 2.3811 1.3666c 0.8696,1.1595 1.3251,2.7124 1.3251 4.6587c 0.0000,4.5966 -2.2776,6.1909 -3.7891 6.1909Z"/></g><g stroke-linejoin="miter" stroke-opacity="1.0" fill-opacity="0.8" stroke="rgb(0,0,0)" fill-rule="evenodd" stroke-width="0.0" fill="rgb(84,84,84)" stroke-linecap="butt" stroke-miterlimit="10.0"><path d="M 124.7933,255.7100 ZM 125.9942,246.5375 c 0.0000,-1.1802 1.1388,-2.7952 3.3129 -2.7952c 1.5943,-0.0000 3.4578,0.6005 3.4578 2.9816c 0.0000,1.5736 -0.8075,2.3604 -1.9256 3.4371l -1.9670,1.9049 c -0.1035,0.1035 -1.4908,1.4701 -1.4908 2.4432h 3.5199 c 0.7040,-0.0000 1.0767,-0.3520 1.3666 -1.4908l 0.5176,0.0828 l -0.4141,2.6089 h -6.3980 c 0.0000,-1.1595 0.1863,-2.0498 2.1120 -4.0169l 1.4494,-1.4287 c 1.1595,-1.1802 1.6357,-2.1948 1.6357 -3.4578c 0.0000,-1.8842 -1.2837,-2.4225 -1.9877 -2.4225c -1.4287,-0.0000 -1.8221,0.7454 -1.8221 1.2423c 0.0000,0.1656 0.0414,0.3313 0.0828 0.4762c 0.0414,0.1449 0.0828,0.2899 0.0828 0.4555c 0.0000,0.5383 -0.4141,0.7454 -0.7454 0.7454c -0.4555,-0.0000 -0.7868,-0.3520 -0.7868 -0.7661ZM 133.8623,255.7100 ZM 135.0425,254.8610 c 0.0000,-0.6005 0.4969,-1.0974 1.0974 -1.0974c 0.6005,-0.0000 1.0974,0.4969 1.0974 1.0974c 0.0000,0.6005 -0.4969,1.0974 -1.0974 1.0974c -0.6005,-0.0000 -1.0974,-0.4969 -1.0974 -1.0974ZM 138.3968,255.7100 ZM 142.9313,244.4669 c -0.8903,-0.0000 -2.1948,0.8696 -2.1948 5.6940c 0.0000,1.6978 0.3106,5.1142 2.1327 5.1142c 0.3520,-0.0000 1.3459,-0.2278 1.7807 -1.8428c 0.2692,-0.9939 0.4141,-2.2362 0.4141 -4.0376c 0.0000,-2.6296 -0.6626,-4.0997 -1.2630 -4.6173c -0.2278,-0.2071 -0.5383,-0.3106 -0.8696 -0.3106ZM 142.9313,244.4669 ZM 142.8484,255.9584 c -2.2155,-0.0000 -3.7063,-2.8366 -3.7063 -6.0046c 0.0000,-3.8719 1.8428,-6.2116 3.7891 -6.2116c 0.8903,-0.0000 1.7807,0.5590 2.3811 1.3666c 0.8696,1.1595 1.3251,2.7124 1.3251 4.6587c 0.0000,4.5966 -2.2776,6.1909 -3.7891 6.1909Z"/></g><g stroke-linejoin="miter" stroke-opacity="1.0" fill-opacity="0.8" stroke="rgb(0,0,0)" fill-rule="evenodd" stroke-width="0.0" fill="rgb(84,84,84)" stroke-linecap="butt" stroke-miterlimit="10.0"><path d="M 77.9732,279.7203 ZM 81.8658,269.8438 c -0.3934,-0.0000 -1.3044,0.3727 -1.7600 0.5798l -0.2485,-0.6419 c 1.8221,-0.8489 2.5261,-1.2837 3.5613 -2.0291h 0.3934 v 10.4148 c 0.0000,0.7454 0.1035,0.9524 0.7868 0.9524h 1.0767 c 0.0621,-0.0000 0.1656,0.0414 0.1656 0.1656v 0.4555 l -2.8366,-0.0414 l -2.8781,0.0414 v -0.4555 c 0.0207,-0.0621 0.0414,-0.1656 0.1656 -0.1656h 1.2423 c 0.7868,-0.0000 0.7868,-0.3520 0.7868 -0.9524v -7.1227 c 0.0000,-0.7040 0.0000,-1.2009 -0.4555 -1.2009ZM 87.0422,279.7203 ZM 88.2224,278.8714 c 0.0000,-0.6005 0.4969,-1.0974 1.0974 -1.0974c 0.6005,-0.0000 1.0974,0.4969 1.0974 1.0974c 0.0000,0.6005 -0.4969,1.0974 -1.0974 1.0974c -0.6005,-0.0000 -1.0974,-0.4969 -1.0974 -1.0974ZM 91.5766,279.7203 ZM 96.1111,268.4772 c -0.8903,-0.0000 -2.1948,0.8696 -2.1948 5.6940c 0.0000,1.6978 0.3106,5.1142 2.1327 5.1142c 0.3520,-0.0000 1.3459,-0.2278 1.7807 -1.8428c 0.2692,-0.9939 0.4141,-2.2362 0.4141 -4.0376c 0.0000,-2.6296 -0.6626,-4.0997 -1.2630 -4.6173c -0.2278,-0.2071 -0.5383,-0.3106 -0.8696 -0.3106ZM 96.1111,268.4772 ZM 96.0283,279.9687 c -2.2155,-0.0000 -3.7063,-2.8366 -3.7063 -6.0046c 0.0000,-3.8719 1.8428,-6.2116 3.7891 -6.2116c 0.8903,-0.0000 1.7807,0.5590 2.3811 1.3666c 0.8696,1.1595 1.3251,2.7124 1.3251 4.6587c 0.0000,4.5966 -2.2776,6.1909 -3.7891 6.1909Z"/></g><g stroke-linejoin="miter" stroke-opacity="1.0" fill-opacity="0.5" stroke="rgb(102,102,102)" stroke-width="2.2694084234167016" fill="rgb(93,165,218)" stroke-linecap="butt" stroke-miterlimit="10.0"><path d="M 534.1007,279.7203 l -0.0000,-24.0103 h -46.8201 l -0.0000,24.0103 Z"/></g><g stroke-linejoin="miter" stroke-opacity="1.0" fill-opacity="0.5" stroke="rgb(102,102,102)" stroke-width="2.2694084234167016" fill="rgb(93,165,218)" stroke-linecap="butt" stroke-miterlimit="10.0"><path d="M 487.2805,279.7203 l -0.0000,-48.0206 h -46.8201 l -0.0000,48.0206 Z"/></g><g stroke-linejoin="miter" stroke-opacity="1.0" fill-opacity="0.5" stroke="rgb(102,102,102)" stroke-width="2.2694084234167016" fill="rgb(93,165,218)" stroke-linecap="butt" stroke-miterlimit="10.0"><path d="M 440.4604,279.7203 l -0.0000,-264.1136 h -46.8201 l -0.0000,264.1136 Z"/></g><g stroke-linejoin="miter" stroke-opacity="1.0" fill-opacity="0.5" stroke="rgb(102,102,102)" stroke-width="2.2694084234167016" fill="rgb(93,165,218)" stroke-linecap="butt" stroke-miterlimit="10.0"><path d="M 393.6403,327.7409 l -0.0000,-48.0206 h -46.8201 l -0.0000,48.0206 Z"/></g><g stroke-linejoin="miter" stroke-opacity="1.0" fill-opacity="0.5" stroke="rgb(102,102,102)" stroke-width="2.2694084234167016" fill="rgb(93,165,218)" stroke-linecap="butt" stroke-miterlimit="10.0"><path d="M 346.8201,279.7203 l -0.0000,-0.0000 h -46.8201 l -0.0000,0.0000 Z"/></g><g stroke-linejoin="miter" stroke-opacity="1.0" fill-opacity="0.5" stroke="rgb(102,102,102)" stroke-width="2.2694084234167016" fill="rgb(93,165,218)" stroke-linecap="butt" stroke-miterlimit="10.0"><path d="M 300.0000,279.7203 l -0.0000,-192.0826 h -46.8201 l -0.0000,192.0826 Z"/></g><g stroke-linejoin="miter" stroke-opacity="1.0" fill-opacity="0.5" stroke="rgb(102,102,102)" stroke-width="2.2694084234167016" fill="rgb(93,165,218)" stroke-linecap="butt" stroke-miterlimit="10.0"><path d="M 253.1799,279.7203 l -0.0000,-120.0516 h -46.8201 l -0.0000,120.0516 Z"/></g><g stroke-linejoin="miter" stroke-opacity="1.0" fill-opacity="0.5" stroke="rgb(102,102,102)" stroke-width="2.2694084234167016" fill="rgb(93,165,218)" stroke-linecap="butt" stroke-miterlimit="10.0"><path d="M 206.3597,279.7203 l -0.0000,-72.0310 h -46.8201 l -0.0000,72.0310 Z"/></g><g stroke-linejoin="miter" stroke-opacity="1.0" fill-opacity="0.5" stroke="rgb(102,102,102)" stroke-width="2.2694084234167016" fill="rgb(93,165,218)" stroke-linecap="butt" stroke-miterlimit="10.0"><path d="M 159.5396,279.7203 l -0.0000,-48.0206 h -46.8201 l -0.0000,48.0206 Z"/></g><g stroke-linejoin="miter" stroke-opacity="1.0" fill-opacity="0.5" stroke="rgb(102,102,102)" stroke-width="2.2694084234167016" fill="rgb(93,165,218)" stroke-linecap="butt" stroke-miterlimit="10.0"><path d="M 112.7195,279.7203 l -0.0000,-24.0103 h -46.8201 l -0.0000,24.0103 Z"/></g></svg>