<?xml version="1.0" encoding="UTF-8"?>
<!DOCTYPE svg PUBLIC "-//W3C//DTD SVG 1.1//EN"
    "http://www.w3.org/Graphics/SVG/1.1/DTD/svg11.dtd"><svg xmlns="http://www.w3.org/2000/svg" height="100.0000" stroke-opacity="1" viewBox="0 0 300 100" font-size="1" width="300.0000" xmlns:xlink="http://www.w3.org/1999/xlink" stroke="rgb(0,0,0)" version="1.1"><defs></defs><g stroke-linejoin="miter" stroke-opacity="1.0" fill-opacity="0.33" stroke="rgb(0,0,0)" fill-rule="evenodd" stroke-width="0.0" fill="rgb(0,0,0)" stroke-linecap="butt" stroke-miterlimit="10.0"><path d="M 137.4296,68.2943 ZM 138.3345,57.7512 l -1.1605,1.9473 c -1.1999,2.2621 -0.5508,3.4226 0.3344 4.3077c 0.6098,0.6098 1.8293,1.2392 3.0685 0.0000c 0.5901,-0.5901 0.9245,-2.0654 1.0032 -3.0095l -3.2456,-3.2456 ZM 138.3345,57.7512 ZM 144.6485,61.5475 c -0.7475,0.7475 -1.8293,0.4918 -2.3801 0.0984l -0.1377,0.7671 c -0.2754,1.5343 -0.4131,2.0654 -1.3179 2.9702c -1.3769,1.3769 -3.1669,1.5933 -4.6421 0.1180c -1.4949,-1.4949 -1.2392,-3.7963 0.1574 -6.1370l 1.3572,-2.2621 c -2.2227,-2.2227 -3.6586,-1.6129 -4.3274 -0.9442c -0.7475,0.7475 -1.2786,1.9473 -0.6688 2.5571c 0.2164,0.2164 0.3737,0.2951 0.4524 0.3344c 0.1180,0.0393 0.2754,0.1574 0.4131 0.2951c 0.2557,0.2557 0.4524,0.8458 -0.1180 1.4162c -0.4721,0.4721 -1.1015,0.4721 -1.5736 -0.0000c -1.1409,-1.1409 -0.2951,-3.9930 0.9638 -5.2519c 1.4359,-1.4359 3.6783,-2.4981 6.4714 0.2951l 2.8915,2.8915 c 1.1999,1.1999 1.7310,1.6916 2.1834 1.2392c 0.4327,-0.4327 0.0000,-1.1015 -0.4131 -1.5539l 0.5901,-0.3934 c 1.3179,1.5539 1.1015,2.5571 0.0984 3.5603ZM 151.2183,54.5056 ZM 151.6707,51.2207 l -9.8547,-9.8547 c -1.1212,-1.1212 -1.6326,-1.2392 -2.0260 -0.8458l -0.5508,0.7081 c -0.0590,0.0590 -0.1574,0.0787 -0.2164 0.0197l -0.5311,-0.4524 c 0.3147,-0.3147 0.9245,-1.1605 1.1999 -1.5539c 0.2754,-0.4327 0.4721,-0.7868 0.6885 -1.3572l 0.4327,-0.4327 l 12.3134,12.3134 c 0.5704,0.5704 1.0819,0.6491 1.7113 0.0197l 0.4721,-0.4721 c 0.0787,-0.0787 0.2164,-0.0984 0.3147 0.0000l 0.3737,0.3737 l -0.0000,0.0787 c 0.0000,-0.0000 -1.4753,1.3966 -2.2424 2.1637c -0.6885,0.6885 -2.0850,2.1637 -2.0850 2.1637l -0.0590,-0.0197 l -0.3737,-0.3737 c -0.0984,-0.0984 -0.1180,-0.1967 -0.0197 -0.2951l 0.4721,-0.4721 c 0.6491,-0.6491 0.5508,-1.1409 -0.0197 -1.7113ZM 156.3325,49.3914 ZM 157.2374,38.8483 l -1.1605,1.9473 c -1.1999,2.2621 -0.5508,3.4226 0.3344 4.3077c 0.6098,0.6098 1.8293,1.2392 3.0685 0.0000c 0.5901,-0.5901 0.9245,-2.0654 1.0032 -3.0095l -3.2456,-3.2456 ZM 157.2374,38.8483 ZM 163.5514,42.6446 c -0.7475,0.7475 -1.8293,0.4918 -2.3801 0.0984l -0.1377,0.7671 c -0.2754,1.5343 -0.4131,2.0654 -1.3179 2.9702c -1.3769,1.3769 -3.1669,1.5933 -4.6421 0.1180c -1.4949,-1.4949 -1.2392,-3.7963 0.1574 -6.1370l 1.3572,-2.2621 c -2.2227,-2.2227 -3.6586,-1.6129 -4.3274 -0.9442c -0.7475,0.7475 -1.2786,1.9473 -0.6688 2.5571c 0.2164,0.2164 0.3737,0.2951 0.4524 0.3344c 0.1180,0.0393 0.2754,0.1574 0.4131 0.2951c 0.2557,0.2557 0.4524,0.8458 -0.1180 1.4162c -0.4721,0.4721 -1.1015,0.4721 -1.5736 -0.0000c -1.1409,-1.1409 -0.2951,-3.9930 0.9638 -5.2519c 1.4359,-1.4359 3.6783,-2.4981 6.4714 0.2951l 2.8915,2.8915 c 1.1999,1.1999 1.7310,1.6916 2.1834 1.2392c 0.4327,-0.4327 0.0000,-1.1015 -0.4131 -1.5539l 0.5901,-0.3934 c 1.3179,1.5539 1.1015,2.5571 0.0984 3.5603ZM 165.2037,40.5203 ZM 167.0527,36.5076 c 0.8655,0.0787 1.4359,-0.1770 2.0457 -0.7868c 1.8687,-1.8687 1.0819,-4.5438 -1.1605 -6.7862c -2.0063,-2.0063 -4.4651,-2.4194 -5.6650 -1.2195c -0.2164,0.2164 -1.1999,1.2786 -1.1605 2.8522l 5.9403,5.9403 ZM 167.0527,36.5076 ZM 155.3884,27.7937 c -1.1212,-1.1212 -1.6326,-1.2392 -2.0260 -0.8458l -0.5508,0.7081 c -0.0590,0.0590 -0.1377,0.0590 -0.1967 -0.0000l -0.5311,-0.4524 c 0.3147,-0.3147 0.9048,-1.1409 1.1802 -1.5343c 0.2754,-0.4327 0.4918,-0.8065 0.7081 -1.3769l 0.4327,-0.4327 l 6.0977,6.0977 c -0.0590,-1.3966 0.3737,-2.5374 1.3179 -3.4816c 1.7113,-1.7113 4.9765,-1.7113 7.3763 0.6885c 3.1275,3.1275 2.6948,7.1009 0.6885 9.1072c -0.8458,0.8458 -1.7113,1.2392 -2.7735 1.3179c 0.0590,0.4131 0.0984,0.9638 0.1180 1.3376l -0.5114,0.3147 c -0.4131,-0.5311 -0.7278,-0.8458 -1.4949 -1.6129l -9.8350,-9.8350 ZM 174.6060,31.1180 ZM 171.3998,23.4270 l 3.6193,-3.6193 c 0.1967,-0.1967 0.1770,-0.3737 0.0000 -0.5508c -1.8293,-1.8293 -3.2259,-1.3769 -3.9340 -0.6688c -0.4524,0.4524 -1.7506,2.1047 0.3147 4.8388ZM 171.3998,23.4270 ZM 180.2120,21.8534 l 0.7081,-0.0787 c 0.2754,1.7703 -0.1574,3.6586 -1.5736 5.0749c -2.6948,2.6948 -5.8420,1.8293 -7.9860 -0.3147c -2.9898,-2.9898 -2.8128,-6.7468 -0.9442 -8.6155c 2.5964,-2.5964 5.2322,-1.1802 6.8845 0.4721c 0.2164,0.2164 0.1967,0.4721 -0.0197 0.6885l -5.1732,5.1732 c 0.0984,0.1377 0.2164,0.2557 0.3737 0.4131c 2.0063,2.0063 4.9568,2.1637 6.3731 0.7475c 1.0819,-1.0819 1.4162,-2.1244 1.3572 -3.5603ZM 183.0248,22.6992 ZM 183.4772,19.4143 l -9.8547,-9.8547 c -1.1212,-1.1212 -1.6326,-1.2392 -2.0260 -0.8458l -0.5508,0.7081 c -0.0590,0.0590 -0.1574,0.0787 -0.2164 0.0197l -0.5311,-0.4524 c 0.3147,-0.3147 0.9245,-1.1605 1.1999 -1.5539c 0.2754,-0.4327 0.4721,-0.7868 0.6885 -1.3572l 0.4327,-0.4327 l 12.3134,12.3134 c 0.5704,0.5704 1.0819,0.6491 1.7113 0.0197l 0.4721,-0.4721 c 0.0787,-0.0787 0.2164,-0.0984 0.3147 0.0000l 0.3737,0.3737 l -0.0000,0.0787 c 0.0000,-0.0000 -1.4753,1.3966 -2.2424 2.1637c -0.6885,0.6885 -2.0850,2.1637 -2.0850 2.1637l -0.0590,-0.0197 l -0.3737,-0.3737 c -0.0984,-0.0984 -0.1180,-0.1967 -0.0197 -0.2951l 0.4721,-0.4721 c 0.6491,-0.6491 0.5508,-1.1409 -0.0197 -1.7113Z"/></g><g stroke-linejoin="miter" stroke-opacity="1.0" fill-opacity="0.5" stroke="rgb(102,102,102)" stroke-width="1.4115314438485447" fill="rgb(93,165,218)" stroke-linecap="butt" stroke-miterlimit="10.0"><path d="M 118.3045,93.7097 c 0.0000,-3.4740 -2.8162,-6.2903 -6.2903 -6.2903c -3.4740,-0.0000 -6.2903,2.8162 -6.2903 6.2903c -0.0000,3.4740 2.8162,6.2903 6.2903 6.2903c 3.4740,0.0000 6.2903,-2.8162 6.2903 -6.2903Z"/></g></svg>