<?xml version="1.0" encoding="UTF-8"?>
<!DOCTYPE svg PUBLIC "-//W3C//DTD SVG 1.1//EN"
    "http://www.w3.org/Graphics/SVG/1.1/DTD/svg11.dtd">
<svg xmlns="http://www.w3.org/2000/svg" height="100.0000" stroke-opacity="1" viewBox="0 0 300 100" font-size="1" width="300.0000" xmlns:xlink="http://www.w3.org/1999/xlink" stroke="rgb(0,0,0)" version="1.1">
  <defs>
  </defs>
  <g stroke-linejoin="miter" stroke-opacity="1.0" fill-opacity="0.33" stroke="rgb(0,0,0)" fill-rule="evenodd" stroke-width="0.0" fill="rgb(0,0,0)" stroke-linecap="butt" stroke-miterlimit="10.0">
    <path d="M 139.0680,71.2836 ZM 140.0124,60.2790 l -1.2113,2.0326 c -1.2524,2.3611 -0.5749,3.5724 0.3490 4.4963c 0.6365,0.6365 1.9094,1.2935 3.2028 0.0000c 0.6159,-0.6159 0.9650,-2.1558 1.0471 -3.1412l -3.3876,-3.3876 ZM 140.0124,60.2790 ZM 146.6028,64.2415 c -0.7802,0.7802 -1.9094,0.5133 -2.4843 0.1027l -0.1437,0.8007 c -0.2874,1.6014 -0.4312,2.1558 -1.3756 3.1002c -1.4372,1.4372 -3.3055,1.6630 -4.8453 0.1232c -1.5604,-1.5604 -1.2935,-3.9625 0.1642 -6.4057l 1.4166,-2.3611 c -2.3200,-2.3200 -3.8188,-1.6835 -4.5168 -0.9855c -0.7802,0.7802 -1.3345,2.0326 -0.6981 2.6690c 0.2258,0.2258 0.3901,0.3080 0.4722 0.3490c 0.1232,0.0411 0.2874,0.1642 0.4312 0.3080c 0.2669,0.2669 0.4722,0.8828 -0.1232 1.4782c -0.4927,0.4927 -1.1497,0.4927 -1.6425 -0.0000c -1.1908,-1.1908 -0.3080,-4.1678 1.0060 -5.4818c 1.4988,-1.4988 3.8393,-2.6074 6.7547 0.3080l 3.0181,3.0181 c 1.2524,1.2524 1.8067,1.7657 2.2789 1.2935c 0.4517,-0.4517 0.0000,-1.1497 -0.4312 -1.6219l 0.6159,-0.4106 c 1.3756,1.6219 1.1497,2.6690 0.1027 3.7161ZM 153.4602,56.8914 ZM 153.9324,53.4627 l -10.2860,-10.2860 c -1.1703,-1.1703 -1.7041,-1.2935 -2.1147 -0.8828l -0.5749,0.7391 c -0.0616,0.0616 -0.1642,0.0821 -0.2258 0.0205l -0.5543,-0.4722 c 0.3285,-0.3285 0.9650,-1.2113 1.2524 -1.6219c 0.2874,-0.4517 0.4927,-0.8212 0.7186 -1.4166l 0.4517,-0.4517 l 12.8524,12.8524 c 0.5954,0.5954 1.1292,0.6775 1.7862 0.0205l 0.4927,-0.4927 c 0.0821,-0.0821 0.2258,-0.1027 0.3285 0.0000l 0.3901,0.3901 l -0.0000,0.0821 c 0.0000,-0.0000 -1.5398,1.4577 -2.3405 2.2584c -0.7186,0.7186 -2.1763,2.2584 -2.1763 2.2584l -0.0616,-0.0205 l -0.3901,-0.3901 c -0.1027,-0.1027 -0.1232,-0.2053 -0.0205 -0.3080l 0.4927,-0.4927 c 0.6775,-0.6775 0.5749,-1.1908 -0.0205 -1.7862ZM 158.7983,51.5533 ZM 159.7427,40.5487 l -1.2113,2.0326 c -1.2524,2.3611 -0.5749,3.5724 0.3490 4.4963c 0.6365,0.6365 1.9094,1.2935 3.2028 0.0000c 0.6159,-0.6159 0.9650,-2.1558 1.0471 -3.1412l -3.3876,-3.3876 ZM 159.7427,40.5487 ZM 166.3331,44.5112 c -0.7802,0.7802 -1.9094,0.5133 -2.4843 0.1027l -0.1437,0.8007 c -0.2874,1.6014 -0.4312,2.1558 -1.3756 3.1002c -1.4372,1.4372 -3.3055,1.6630 -4.8453 0.1232c -1.5604,-1.5604 -1.2935,-3.9625 0.1642 -6.4057l 1.4166,-2.3611 c -2.3200,-2.3200 -3.8188,-1.6835 -4.5168 -0.9855c -0.7802,0.7802 -1.3345,2.0326 -0.6981 2.6690c 0.2258,0.2258 0.3901,0.3080 0.4722 0.3490c 0.1232,0.0411 0.2874,0.1642 0.4312 0.3080c 0.2669,0.2669 0.4722,0.8828 -0.1232 1.4782c -0.4927,0.4927 -1.1497,0.4927 -1.6425 -0.0000c -1.1908,-1.1908 -0.3080,-4.1678 1.0060 -5.4818c 1.4988,-1.4988 3.8393,-2.6074 6.7547 0.3080l 3.0181,3.0181 c 1.2524,1.2524 1.8067,1.7657 2.2789 1.2935c 0.4517,-0.4517 0.0000,-1.1497 -0.4312 -1.6219l 0.6159,-0.4106 c 1.3756,1.6219 1.1497,2.6690 0.1027 3.7161ZM 168.0577,42.2938 ZM 169.9876,38.1055 c 0.9034,0.0821 1.4988,-0.1848 2.1352 -0.8212c 1.9504,-1.9504 1.1292,-4.7427 -1.2113 -7.0832c -2.0942,-2.0942 -4.6605,-2.5253 -5.9129 -1.2729c -0.2258,0.2258 -1.2524,1.3345 -1.2113 2.9770l 6.2004,6.2004 ZM 169.9876,38.1055 ZM 157.8128,29.0103 c -1.1703,-1.1703 -1.7041,-1.2935 -2.1147 -0.8828l -0.5749,0.7391 c -0.0616,0.0616 -0.1437,0.0616 -0.2053 -0.0000l -0.5543,-0.4722 c 0.3285,-0.3285 0.9444,-1.1908 1.2319 -1.6014c 0.2874,-0.4517 0.5133,-0.8418 0.7391 -1.4372l 0.4517,-0.4517 l 6.3646,6.3646 c -0.0616,-1.4577 0.3901,-2.6485 1.3756 -3.6340c 1.7862,-1.7862 5.1943,-1.7862 7.6991 0.7186c 3.2644,3.2644 2.8127,7.4117 0.7186 9.5059c -0.8828,0.8828 -1.7862,1.2935 -2.8949 1.3756c 0.0616,0.4312 0.1027,1.0060 0.1232 1.3961l -0.5338,0.3285 c -0.4312,-0.5543 -0.7596,-0.8828 -1.5604 -1.6835l -10.2655,-10.2655 ZM 177.8715,32.4800 ZM 174.5250,24.4524 l 3.7777,-3.7777 c 0.2053,-0.2053 0.1848,-0.3901 0.0000 -0.5749c -1.9094,-1.9094 -3.3671,-1.4372 -4.1062 -0.6981c -0.4722,0.4722 -1.8273,2.1968 0.3285 5.0506ZM 174.5250,24.4524 ZM 183.7229,22.8099 l 0.7391,-0.0821 c 0.2874,1.8478 -0.1642,3.8188 -1.6425 5.2970c -2.8127,2.8127 -6.0977,1.9094 -8.3356 -0.3285c -3.1207,-3.1207 -2.9359,-7.0421 -0.9855 -8.9926c 2.7101,-2.7101 5.4612,-1.2319 7.1858 0.4927c 0.2258,0.2258 0.2053,0.4927 -0.0205 0.7186l -5.3997,5.3997 c 0.1027,0.1437 0.2258,0.2669 0.3901 0.4312c 2.0942,2.0942 5.1738,2.2584 6.6520 0.7802c 1.1292,-1.1292 1.4782,-2.2173 1.4166 -3.7161ZM 186.6588,23.6928 ZM 187.1310,20.2641 l -10.2860,-10.2860 c -1.1703,-1.1703 -1.7041,-1.2935 -2.1147 -0.8828l -0.5749,0.7391 c -0.0616,0.0616 -0.1642,0.0821 -0.2258 0.0205l -0.5543,-0.4722 c 0.3285,-0.3285 0.9650,-1.2113 1.2524 -1.6219c 0.2874,-0.4517 0.4927,-0.8212 0.7186 -1.4166l 0.4517,-0.4517 l 12.8524,12.8524 c 0.5954,0.5954 1.1292,0.6775 1.7862 0.0205l 0.4927,-0.4927 c 0.0821,-0.0821 0.2258,-0.1027 0.3285 0.0000l 0.3901,0.3901 l -0.0000,0.0821 c 0.0000,-0.0000 -1.5398,1.4577 -2.3405 2.2584c -0.7186,0.7186 -2.1763,2.2584 -2.1763 2.2584l -0.0616,-0.0205 l -0.3901,-0.3901 c -0.1027,-0.1027 -0.1232,-0.2053 -0.0205 -0.3080l 0.4927,-0.4927 c 0.6775,-0.6775 0.5749,-1.1908 -0.0205 -1.7862Z"/>
  </g>
  <g stroke-linejoin="miter" stroke-opacity="1.0" fill-opacity="0.5" stroke="rgb(102,102,102)" stroke-width="1.4758435693200473" fill="rgb(93,165,218)" stroke-linecap="butt" stroke-miterlimit="10.0">
    <path d="M 114.7286,93.4344 c 0.0000,-3.6261 -2.9395,-6.5656 -6.5656 -6.5656c -3.6261,-0.0000 -6.5656,2.9395 -6.5656 6.5656c -0.0000,3.6261 2.9395,6.5656 6.5656 6.5656c 3.6261,0.0000 6.5656,-2.9395 6.5656 -6.5656Z"/>
  </g>
</svg>