<?xml version="1.0" encoding="UTF-8"?>
<!DOCTYPE svg PUBLIC "-//W3C//DTD SVG 1.1//EN"
    "http://www.w3.org/Graphics/SVG/1.1/DTD/svg11.dtd"><svg xmlns="http://www.w3.org/2000/svg" height="100.0000" stroke-opacity="1" viewBox="0 0 300 100" font-size="1" width="300.0000" xmlns:xlink="http://www.w3.org/1999/xlink" stroke="rgb(0,0,0)" version="1.1"><defs></defs><g stroke-linejoin="miter" stroke-opacity="1.0" fill-opacity="0.33" stroke="rgb(0,0,0)" fill-rule="evenodd" stroke-width="0.0" fill="rgb(0,0,0)" stroke-linecap="butt" stroke-miterlimit="10.0"><path d="M 143.4970,61.6719 ZM 144.3141,52.1511 l -1.0480,1.7585 c -1.0835,2.0427 -0.4974,3.0907 0.3020 3.8900c 0.5506,0.5506 1.6519,1.1190 2.7710 0.0000c 0.5329,-0.5329 0.8348,-1.8651 0.9059 -2.7177l -2.9308,-2.9308 ZM 144.3141,52.1511 ZM 150.0159,55.5793 c -0.6750,0.6750 -1.6519,0.4441 -2.1493 0.0888l -0.1243,0.6927 c -0.2487,1.3855 -0.3730,1.8651 -1.1901 2.6822c -1.2434,1.2434 -2.8598,1.4388 -4.1920 0.1066c -1.3500,-1.3500 -1.1190,-3.4282 0.1421 -5.5419l 1.2256,-2.0427 c -2.0072,-2.0072 -3.3039,-1.4565 -3.9078 -0.8526c -0.6750,0.6750 -1.1546,1.7585 -0.6039 2.3091c 0.1954,0.1954 0.3375,0.2664 0.4085 0.3020c 0.1066,0.0355 0.2487,0.1421 0.3730 0.2664c 0.2309,0.2309 0.4085,0.7638 -0.1066 1.2789c -0.4263,0.4263 -0.9947,0.4263 -1.4210 -0.0000c -1.0302,-1.0302 -0.2664,-3.6058 0.8704 -4.7426c 1.2967,-1.2967 3.3216,-2.2559 5.8439 0.2664l 2.6111,2.6111 c 1.0835,1.0835 1.5631,1.5276 1.9717 1.1190c 0.3908,-0.3908 0.0000,-0.9947 -0.3730 -1.4032l 0.5329,-0.3553 c 1.1901,1.4032 0.9947,2.3091 0.0888 3.2150ZM 155.9486,49.2203 ZM 156.3572,46.2539 l -8.8991,-8.8991 c -1.0125,-1.0125 -1.4743,-1.1190 -1.8296 -0.7638l -0.4974,0.6395 c -0.0533,0.0533 -0.1421,0.0711 -0.1954 0.0178l -0.4796,-0.4085 c 0.2842,-0.2842 0.8348,-1.0480 1.0835 -1.4032c 0.2487,-0.3908 0.4263,-0.7105 0.6217 -1.2256l 0.3908,-0.3908 l 11.1194,11.1194 c 0.5151,0.5151 0.9769,0.5862 1.5454 0.0178l 0.4263,-0.4263 c 0.0711,-0.0711 0.1954,-0.0888 0.2842 0.0000l 0.3375,0.3375 l -0.0000,0.0711 c 0.0000,-0.0000 -1.3322,1.2611 -2.0249 1.9539c -0.6217,0.6217 -1.8828,1.9539 -1.8828 1.9539l -0.0533,-0.0178 l -0.3375,-0.3375 c -0.0888,-0.0888 -0.1066,-0.1776 -0.0178 -0.2664l 0.4263,-0.4263 c 0.5862,-0.5862 0.4974,-1.0302 -0.0178 -1.5454ZM 160.5669,44.6020 ZM 161.3840,35.0812 l -1.0480,1.7585 c -1.0835,2.0427 -0.4974,3.0907 0.3020 3.8900c 0.5506,0.5506 1.6519,1.1190 2.7710 0.0000c 0.5329,-0.5329 0.8348,-1.8651 0.9059 -2.7177l -2.9308,-2.9308 ZM 161.3840,35.0812 ZM 167.0858,38.5094 c -0.6750,0.6750 -1.6519,0.4441 -2.1493 0.0888l -0.1243,0.6927 c -0.2487,1.3855 -0.3730,1.8651 -1.1901 2.6822c -1.2434,1.2434 -2.8598,1.4388 -4.1920 0.1066c -1.3500,-1.3500 -1.1190,-3.4282 0.1421 -5.5419l 1.2256,-2.0427 c -2.0072,-2.0072 -3.3039,-1.4565 -3.9078 -0.8526c -0.6750,0.6750 -1.1546,1.7585 -0.6039 2.3091c 0.1954,0.1954 0.3375,0.2664 0.4085 0.3020c 0.1066,0.0355 0.2487,0.1421 0.3730 0.2664c 0.2309,0.2309 0.4085,0.7638 -0.1066 1.2789c -0.4263,0.4263 -0.9947,0.4263 -1.4210 -0.0000c -1.0302,-1.0302 -0.2664,-3.6058 0.8704 -4.7426c 1.2967,-1.2967 3.3216,-2.2559 5.8439 0.2664l 2.6111,2.6111 c 1.0835,1.0835 1.5631,1.5276 1.9717 1.1190c 0.3908,-0.3908 0.0000,-0.9947 -0.3730 -1.4032l 0.5329,-0.3553 c 1.1901,1.4032 0.9947,2.3091 0.0888 3.2150ZM 168.5779,36.5911 ZM 170.2476,32.9675 c 0.7816,0.0711 1.2967,-0.1599 1.8473 -0.7105c 1.6875,-1.6875 0.9769,-4.1032 -1.0480 -6.1281c -1.8118,-1.8118 -4.0321,-2.1848 -5.1156 -1.1013c -0.1954,0.1954 -1.0835,1.1546 -1.0480 2.5756l 5.3643,5.3643 ZM 170.2476,32.9675 ZM 159.7143,25.0986 c -1.0125,-1.0125 -1.4743,-1.1190 -1.8296 -0.7638l -0.4974,0.6395 c -0.0533,0.0533 -0.1243,0.0533 -0.1776 -0.0000l -0.4796,-0.4085 c 0.2842,-0.2842 0.8171,-1.0302 1.0658 -1.3855c 0.2487,-0.3908 0.4441,-0.7283 0.6395 -1.2434l 0.3908,-0.3908 l 5.5064,5.5064 c -0.0533,-1.2611 0.3375,-2.2914 1.1901 -3.1440c 1.5454,-1.5454 4.4939,-1.5454 6.6610 0.6217c 2.8243,2.8243 2.4335,6.4123 0.6217 8.2241c -0.7638,0.7638 -1.5454,1.1190 -2.5045 1.1901c 0.0533,0.3730 0.0888,0.8704 0.1066 1.2079l -0.4618,0.2842 c -0.3730,-0.4796 -0.6572,-0.7638 -1.3500 -1.4565l -8.8813,-8.8813 ZM 177.0684,28.1005 ZM 174.1731,21.1553 l 3.2683,-3.2683 c 0.1776,-0.1776 0.1599,-0.3375 0.0000 -0.4974c -1.6519,-1.6519 -2.9131,-1.2434 -3.5525 -0.6039c -0.4085,0.4085 -1.5809,1.9006 0.2842 4.3696ZM 174.1731,21.1553 ZM 182.1308,19.7343 l 0.6395,-0.0711 c 0.2487,1.5986 -0.1421,3.3039 -1.4210 4.5828c -2.4335,2.4335 -5.2755,1.6519 -7.2116 -0.2842c -2.6999,-2.6999 -2.5401,-6.0926 -0.8526 -7.7800c 2.3447,-2.3447 4.7249,-1.0658 6.2169 0.4263c 0.1954,0.1954 0.1776,0.4263 -0.0178 0.6217l -4.6716,4.6716 c 0.0888,0.1243 0.1954,0.2309 0.3375 0.3730c 1.8118,1.8118 4.4762,1.9539 5.7551 0.6750c 0.9769,-0.9769 1.2789,-1.9184 1.2256 -3.2150ZM 184.6708,20.4981 ZM 185.0794,17.5317 l -8.8991,-8.8991 c -1.0125,-1.0125 -1.4743,-1.1190 -1.8296 -0.7638l -0.4974,0.6395 c -0.0533,0.0533 -0.1421,0.0711 -0.1954 0.0178l -0.4796,-0.4085 c 0.2842,-0.2842 0.8348,-1.0480 1.0835 -1.4032c 0.2487,-0.3908 0.4263,-0.7105 0.6217 -1.2256l 0.3908,-0.3908 l 11.1194,11.1194 c 0.5151,0.5151 0.9769,0.5862 1.5454 0.0178l 0.4263,-0.4263 c 0.0711,-0.0711 0.1954,-0.0888 0.2842 0.0000l 0.3375,0.3375 l -0.0000,0.0711 c 0.0000,-0.0000 -1.3322,1.2611 -2.0249 1.9539c -0.6217,0.6217 -1.8828,1.9539 -1.8828 1.9539l -0.0533,-0.0178 l -0.3375,-0.3375 c -0.0888,-0.0888 -0.1066,-0.1776 -0.0178 -0.2664l 0.4263,-0.4263 c 0.5862,-0.5862 0.4974,-1.0302 -0.0178 -1.5454Z"/></g><g stroke-linejoin="miter" stroke-opacity="1.0" fill-opacity="0.5" stroke="rgb(102,102,102)" stroke-width="1.4203514134748643" fill="rgb(93,165,218)" stroke-linecap="butt" stroke-miterlimit="10.0"><path d="M 127.8901,88.6394 c 0.0000,-6.2743 -5.0863,-11.3606 -11.3606 -11.3606c -6.2743,-0.0000 -11.3606,5.0863 -11.3606 11.3606c -0.0000,6.2743 5.0863,11.3606 11.3606 11.3606c 6.2743,0.0000 11.3606,-5.0863 11.3606 -11.3606Z"/></g></svg>