<?xml version="1.0" encoding="UTF-8"?>
<!DOCTYPE svg PUBLIC "-//W3C//DTD SVG 1.1//EN"
    "http://www.w3.org/Graphics/SVG/1.1/DTD/svg11.dtd"><svg xmlns="http://www.w3.org/2000/svg" height="300.0000" stroke-opacity="1" viewBox="0 0 300 300" font-size="1" width="300.0000" xmlns:xlink="http://www.w3.org/1999/xlink" stroke="rgb(0,0,0)" version="1.1"><defs></defs><g stroke-linejoin="miter" stroke-opacity="1.0" fill-opacity="0.63" stroke="rgb(0,0,0)" fill-rule="evenodd" stroke-width="0.0" fill="rgb(0,0,0)" stroke-linecap="butt" stroke-miterlimit="10.0"><path d="M 115.7507,280.3226 ZM 117.5902,278.9285 v -9.7005 c 0.0000,-1.1037 -0.1936,-1.4135 -0.5809 -1.4135l -0.6196,0.0774 c -0.0581,-0.0000 -0.1162,-0.0387 -0.1162 -0.0968l -0.0387,-0.4841 c 0.3098,-0.0000 1.0262,-0.1162 1.3554 -0.1743c 0.3485,-0.0774 0.6196,-0.1549 1.0068 -0.3292h 0.4260 v 12.1208 c 0.0000,0.5615 0.2130,0.8519 0.8326 0.8519h 0.4647 c 0.0774,-0.0000 0.1549,0.0581 0.1549 0.1549v 0.3679 l -0.0387,0.0387 c 0.0000,-0.0000 -1.4135,-0.0387 -2.1686 -0.0387c -0.6777,-0.0000 -2.0911,0.0387 -2.0911 0.0387l -0.0194,-0.0387 v -0.3679 c 0.0000,-0.0968 0.0387,-0.1549 0.1355 -0.1549h 0.4647 c 0.6390,-0.0000 0.8326,-0.2904 0.8326 -0.8519ZM 120.7850,280.3226 ZM 122.2952,269.2667 c 0.0000,-0.5034 0.4066,-0.9294 0.9100 -0.9294c 0.5228,-0.0000 0.9294,0.4260 0.9294 0.9294c 0.0000,0.5228 -0.4066,0.9294 -0.9294 0.9294c -0.5034,-0.0000 -0.9100,-0.4066 -0.9100 -0.9294ZM 122.2952,269.2667 ZM 124.1346,278.9285 c 0.0000,0.5615 0.2130,0.8519 0.8326 0.8519h 0.3679 c 0.0968,-0.0000 0.1743,0.0581 0.1743 0.1549v 0.3679 l -0.0387,0.0387 c 0.0000,-0.0000 -1.3360,-0.0387 -2.0911 -0.0387c -0.6777,-0.0000 -1.9943,0.0387 -1.9943 0.0387l -0.0387,-0.0387 v -0.3679 c 0.0000,-0.0968 0.0581,-0.1549 0.1549 -0.1549h 0.3679 c 0.6390,-0.0000 0.8326,-0.2904 0.8326 -0.8519v -4.8212 c 0.0000,-1.0262 -0.1743,-1.1811 -0.4453 -1.1811c -0.2517,-0.0000 -0.4841,0.0194 -0.8132 0.0968l -0.0968,-0.5421 c 1.2392,-0.2130 1.4522,-0.2904 2.0137 -0.5615c 0.2130,-0.0774 0.3485,-0.1549 0.4841 -0.1549h 0.2904 v 7.1641 ZM 125.8966,280.3226 ZM 132.9445,278.9285 v -4.2404 c 0.0000,-1.3554 -0.2323,-1.9943 -1.2586 -1.9943c -0.8519,-0.0000 -1.5877,0.3292 -2.5752 1.4909v 4.7438 c 0.0000,0.5615 0.1936,0.8519 0.8326 0.8519h 0.2711 c 0.0968,-0.0000 0.1549,0.0581 0.1549 0.1549v 0.3679 l -0.0387,0.0387 c 0.0000,-0.0000 -1.2198,-0.0387 -1.9750 -0.0387c -0.6970,-0.0000 -2.0137,0.0387 -2.0137 0.0387l -0.0387,-0.0387 v -0.3679 c 0.0000,-0.0968 0.0581,-0.1549 0.1549 -0.1549h 0.3679 c 0.6583,-0.0000 0.8326,-0.2904 0.8326 -0.8519v -4.8212 c 0.0000,-1.0456 -0.1549,-1.1811 -0.4260 -1.1811c -0.2517,-0.0000 -0.4841,0.0194 -0.8132 0.0968l -0.0968,-0.5421 c 0.8132,-0.1355 1.3941,-0.2323 1.9943 -0.5615c 0.2130,-0.0968 0.3679,-0.1549 0.5034 -0.1549h 0.2904 l -0.0581,1.7233 h 0.0581 c 1.2392,-1.4522 2.1686,-1.7233 3.1561 -1.7233c 1.7426,-0.0000 2.1105,1.3360 2.1105 3.0593v 4.1048 c 0.0000,0.5615 0.2130,0.8519 0.8326 0.8519h 0.3679 c 0.0968,-0.0000 0.1743,0.0581 0.1743 0.1549v 0.3679 l -0.0387,0.0387 c 0.0000,-0.0000 -1.3360,-0.0387 -2.0911 -0.0387c -0.6777,-0.0000 -1.8975,0.0387 -1.8975 0.0387l -0.0387,-0.0387 v -0.3679 c 0.0000,-0.0968 0.0581,-0.1549 0.1549 -0.1549h 0.2711 c 0.6390,-0.0000 0.8326,-0.2904 0.8326 -0.8519ZM 135.9650,280.3226 ZM 138.1724,274.9592 h 3.5627 c 0.1936,-0.0000 0.2711,-0.0968 0.2711 -0.2711c 0.0000,-1.8007 -0.9100,-2.2654 -1.6071 -2.2654c -0.4453,-0.0000 -1.8975,0.1743 -2.2267 2.5365ZM 138.1724,274.9592 ZM 143.2840,278.5219 l 0.3872,0.3098 c -0.7358,1.0068 -1.8781,1.7233 -3.2722 1.7233c -2.6526,-0.0000 -3.7757,-1.9750 -3.7757 -4.0855c 0.0000,-2.9431 1.9362,-4.7051 3.7757 -4.7051c 2.5558,-0.0000 3.1561,1.9943 3.1561 3.6208c 0.0000,0.2130 -0.1355,0.3292 -0.3485 0.3292h -5.0923 c -0.0194,0.1162 -0.0194,0.2323 -0.0194 0.3872c 0.0000,1.9750 1.3747,3.5046 2.7688 3.5046c 1.0649,-0.0000 1.7426,-0.3485 2.4203 -1.0843ZM 149.0927,280.3226 ZM 153.2750,269.7314 c -0.4841,-0.0000 -1.8975,0.2711 -1.8975 1.4522c 0.0000,0.3485 -0.1355,0.9488 -0.6583 0.9488c -0.5034,-0.0000 -0.5421,-0.5615 -0.5421 -0.6196c 0.0000,-0.6002 0.7939,-2.3816 3.4852 -2.3816c 1.8781,-0.0000 2.4397,1.1811 2.4397 1.9556c 0.0000,0.4841 -0.1549,1.4522 -1.8975 2.5558c 1.0843,0.1743 2.5171,0.9681 2.5171 2.9818c 0.0000,2.5558 -1.9362,3.9306 -4.1242 3.9306c -1.1037,-0.0000 -2.6526,-0.4841 -2.6526 -1.2198c 0.0000,-0.2904 0.2904,-0.6196 0.6777 -0.6196c 0.3679,-0.0000 0.5421,0.1936 0.7164 0.4453c 0.2130,0.3292 0.5615,0.7939 1.4909 0.7939c 0.6390,-0.0000 2.4590,-0.6390 2.4590 -3.0786c 0.0000,-2.0718 -1.4522,-2.4009 -2.4977 -2.4009c -0.1743,-0.0000 -0.3872,0.0387 -0.6002 0.0774l -0.0774,-0.5809 c 1.4909,-0.2517 2.7301,-1.7039 2.7301 -2.5946c 0.0000,-1.1037 -0.7745,-1.6458 -1.5684 -1.6458Z"/></g><g stroke-linejoin="miter" stroke-opacity="0.6" fill-opacity="0.0" stroke="rgb(44,160,44)" stroke-width="1.3279760788600725" fill="rgb(0,0,0)" stroke-linecap="butt" stroke-miterlimit="10.0"><path d="M 92.3997,280.3226 h 16.6793 "/></g><g stroke-linejoin="miter" stroke-opacity="1.0" fill-opacity="0.63" stroke="rgb(0,0,0)" fill-rule="evenodd" stroke-width="0.0" fill="rgb(0,0,0)" stroke-linecap="butt" stroke-miterlimit="10.0"><path d="M 115.7507,246.9640 ZM 127.4262,245.5699 v -4.4533 c 0.0000,-1.2973 -0.5034,-1.7813 -1.2392 -1.7813c -0.7551,-0.0000 -1.3554,0.3872 -2.2848 1.4135c 0.0387,0.2323 0.0387,0.5034 0.0387 0.7745v 4.0467 c 0.0000,0.5615 0.1936,0.8519 0.8326 0.8519h 0.3292 c 0.0968,-0.0000 0.1743,0.0581 0.1743 0.1549v 0.3679 l -0.0387,0.0387 c 0.0000,-0.0000 -1.2973,-0.0387 -2.0524 -0.0387c -0.6970,-0.0000 -2.0330,0.0387 -2.0330 0.0387l -0.0387,-0.0387 v -0.3679 c 0.0000,-0.0968 0.0581,-0.1549 0.1549 -0.1549h 0.3872 c 0.6583,-0.0000 0.8326,-0.2904 0.8326 -0.8519v -4.4146 c 0.0000,-1.2973 -0.5228,-1.8201 -1.2586 -1.8201c -0.6777,-0.0000 -1.3166,0.4841 -2.2267 1.4328v 4.8019 c 0.0000,0.5615 0.1936,0.8519 0.8326 0.8519h 0.3679 c 0.0774,-0.0000 0.1549,0.0581 0.1549 0.1549v 0.3679 l -0.0387,0.0387 c 0.0000,-0.0000 -1.3166,-0.0387 -2.0718 -0.0387c -0.6970,-0.0000 -2.0137,0.0387 -2.0137 0.0387l -0.0387,-0.0387 v -0.3679 c 0.0000,-0.0968 0.0581,-0.1549 0.1549 -0.1549h 0.3679 c 0.6583,-0.0000 0.8326,-0.2904 0.8326 -0.8519v -4.8212 c 0.0000,-1.1037 -0.1743,-1.1811 -0.4260 -1.1811c -0.2517,-0.0000 -0.4841,0.0194 -0.8132 0.0968l -0.0968,-0.5421 c 1.2198,-0.2130 1.4909,-0.2904 2.0137 -0.5615c 0.1936,-0.0968 0.3485,-0.1549 0.4841 -0.1549h 0.2904 l -0.0581,1.6845 h 0.0581 c 0.9100,-0.9681 1.7233,-1.6845 2.9237 -1.6845c 1.0843,-0.0000 1.7620,0.7939 1.8781 1.6652c 1.1230,-1.1617 2.0330,-1.6652 3.0786 -1.6652c 1.7039,-0.0000 1.9943,1.4135 1.9943 3.1367v 4.0274 c 0.0000,0.5615 0.1936,0.8519 0.8326 0.8519h 0.3679 c 0.0774,-0.0000 0.1549,0.0581 0.1549 0.1549v 0.3679 l -0.0387,0.0387 c 0.0000,-0.0000 -1.3166,-0.0387 -2.0718 -0.0387c -0.6970,-0.0000 -2.0137,0.0387 -2.0137 0.0387l -0.0387,-0.0387 v -0.3679 c 0.0000,-0.0968 0.0581,-0.1549 0.1549 -0.1549h 0.3679 c 0.6390,-0.0000 0.8326,-0.2904 0.8326 -0.8519ZM 130.4661,246.9640 ZM 138.7726,244.7179 c 0.0000,0.9681 0.0968,1.2779 0.4841 1.2779c 0.2323,-0.0000 0.6583,-0.0387 0.9875 -0.0968l 0.0774,0.5421 c -1.1811,0.2130 -2.1299,0.4066 -2.5752 0.7551h -0.4260 l 0.0581,-1.4328 h -0.0581 c -1.0649,1.1617 -1.9362,1.4328 -2.7301 1.4328c -1.9169,-0.0000 -2.4203,-1.2973 -2.4203 -2.6333v -4.4146 c 0.0000,-0.6390 -0.1355,-0.9681 -0.8519 -0.9681c -0.0774,-0.0000 -0.2130,0.0194 -0.3292 0.0194l -0.0581,-0.0194 v -0.5034 l 0.0581,-0.0581 c 0.0000,-0.0000 1.3166,0.0387 1.9362 0.0387c 0.2711,-0.0000 0.7164,-0.0387 0.7164 -0.0387l -0.0194,1.5490 v 4.1242 c 0.0000,1.7233 0.8907,2.0330 1.4715 2.0330c 0.4453,-0.0000 0.8519,-0.1743 1.2586 -0.4647c 0.4647,-0.3485 0.7745,-0.6196 0.9681 -0.8713v -4.7825 c 0.0000,-0.6970 -0.0968,-1.0262 -0.8132 -1.0262c -0.1162,-0.0000 -0.3292,0.0194 -0.3872 0.0194l -0.0387,-0.0387 v -0.4841 l 0.0387,-0.0581 c 0.0000,-0.0000 1.3747,0.0387 1.9169 0.0387c 0.4453,-0.0000 0.7551,-0.0387 0.7551 -0.0387l -0.0194,1.5296 v 4.5695 ZM 140.4765,246.9640 ZM 154.3593,245.5699 v -3.9499 c 0.0000,-1.5684 -0.4066,-2.3041 -1.2973 -2.3041c -0.5615,-0.0000 -1.3941,0.3292 -2.5365 1.4135v 4.8406 c 0.0000,0.5615 0.1936,0.8519 0.8326 0.8519h 0.3679 c 0.0774,-0.0000 0.1549,0.0581 0.1549 0.1549v 0.3679 l -0.0387,0.0387 c 0.0000,-0.0000 -1.3166,-0.0387 -2.0718 -0.0387c -0.6970,-0.0000 -1.4715,0.0387 -1.4715 0.0387l -0.0387,-0.0387 v -0.3679 c 0.0000,-0.0968 0.0581,-0.1549 0.1549 -0.1549h 0.0387 c 0.5034,-0.0000 0.6196,-0.2904 0.6196 -0.8519v -9.7974 c 0.0000,-0.9100 -0.1743,-1.3166 -0.5615 -1.3166l -0.6390,0.0774 c -0.0581,-0.0000 -0.0968,-0.0387 -0.0968 -0.0968l -0.0387,-0.4841 c 0.3098,-0.0000 1.0068,-0.1162 1.3360 -0.1743c 0.3485,-0.0774 0.6390,-0.1549 1.0262 -0.3292h 0.4260 v 6.5638 c 1.2973,-1.2973 2.6333,-1.6071 3.3884 -1.6071c 1.4135,-0.0000 1.8975,1.0649 1.8975 3.0593v 4.1048 c 0.0000,0.5615 0.1936,0.8519 0.8132 0.8519h 0.3872 c 0.0774,-0.0000 0.1549,0.0581 0.1549 0.1549v 0.3679 l -0.0387,0.0387 c 0.0000,-0.0000 -1.3166,-0.0387 -2.0911 -0.0387c -0.6777,-0.0000 -1.9943,0.0387 -1.9943 0.0387l -0.0387,-0.0387 v -0.3679 c 0.0000,-0.0968 0.0581,-0.1549 0.1549 -0.1549h 0.3679 c 0.6583,-0.0000 0.8326,-0.2904 0.8326 -0.8519ZM 154.3593,245.5699 ZM 147.7180,245.1439 c -0.8519,1.4715 -1.7813,1.9943 -2.9237 1.9943c -2.3235,-0.0000 -3.6014,-1.7813 -3.6014 -4.2791c 0.0000,-2.7495 1.5490,-4.4921 3.6208 -4.4921c 1.8588,-0.0000 2.8463,0.9488 2.8463 1.9750c 0.0000,0.5809 -0.3485,0.8519 -0.7358 0.8519c -0.4260,-0.0000 -0.8132,-0.2130 -0.8713 -0.6777c -0.0581,-0.6583 -0.1936,-1.4909 -1.3360 -1.4909c -1.2779,-0.0000 -2.0330,1.3166 -2.0330 3.4078c 0.0000,2.2654 1.0262,3.8531 2.5365 3.8531c 0.8326,-0.0000 1.5490,-0.5421 2.1492 -1.4135ZM 162.2398,246.9640 ZM 164.0792,245.5699 v -9.7005 c 0.0000,-1.1037 -0.1936,-1.4135 -0.5809 -1.4135l -0.6196,0.0774 c -0.0581,-0.0000 -0.1162,-0.0387 -0.1162 -0.0968l -0.0387,-0.4841 c 0.3098,-0.0000 1.0262,-0.1162 1.3554 -0.1743c 0.3485,-0.0774 0.6196,-0.1549 1.0068 -0.3292h 0.4260 v 12.1208 c 0.0000,0.5615 0.2130,0.8519 0.8326 0.8519h 0.4647 c 0.0774,-0.0000 0.1549,0.0581 0.1549 0.1549v 0.3679 l -0.0387,0.0387 c 0.0000,-0.0000 -1.4135,-0.0387 -2.1686 -0.0387c -0.6777,-0.0000 -2.0911,0.0387 -2.0911 0.0387l -0.0194,-0.0387 v -0.3679 c 0.0000,-0.0968 0.0387,-0.1549 0.1355 -0.1549h 0.4647 c 0.6390,-0.0000 0.8326,-0.2904 0.8326 -0.8519ZM 167.2740,246.9640 ZM 167.9323,242.9947 c 0.0000,-2.6526 1.4328,-4.5889 4.0080 -4.5889c 2.8656,-0.0000 3.9693,2.4009 3.9693 4.4146c 0.0000,1.9362 -1.2586,4.3759 -4.0080 4.3759c -2.5946,-0.0000 -3.9693,-2.2267 -3.9693 -4.2016ZM 167.9323,242.9947 ZM 171.7273,239.0448 c -1.5490,-0.0000 -2.2654,1.8201 -2.2654 3.5046c 0.0000,1.4909 0.8519,3.9693 2.7688 3.9693c 0.8713,-0.0000 2.1492,-0.5228 2.1492 -3.0786c 0.0000,-2.8463 -1.0649,-4.3953 -2.6526 -4.3953ZM 176.5486,246.9640 ZM 183.5965,245.5699 v -4.2404 c 0.0000,-1.3554 -0.2323,-1.9943 -1.2586 -1.9943c -0.8519,-0.0000 -1.5877,0.3292 -2.5752 1.4909v 4.7438 c 0.0000,0.5615 0.1936,0.8519 0.8326 0.8519h 0.2711 c 0.0968,-0.0000 0.1549,0.0581 0.1549 0.1549v 0.3679 l -0.0387,0.0387 c 0.0000,-0.0000 -1.2198,-0.0387 -1.9750 -0.0387c -0.6970,-0.0000 -2.0137,0.0387 -2.0137 0.0387l -0.0387,-0.0387 v -0.3679 c 0.0000,-0.0968 0.0581,-0.1549 0.1549 -0.1549h 0.3679 c 0.6583,-0.0000 0.8326,-0.2904 0.8326 -0.8519v -4.8212 c 0.0000,-1.0456 -0.1549,-1.1811 -0.4260 -1.1811c -0.2517,-0.0000 -0.4841,0.0194 -0.8132 0.0968l -0.0968,-0.5421 c 0.8132,-0.1355 1.3941,-0.2323 1.9943 -0.5615c 0.2130,-0.0968 0.3679,-0.1549 0.5034 -0.1549h 0.2904 l -0.0581,1.7233 h 0.0581 c 1.2392,-1.4522 2.1686,-1.7233 3.1561 -1.7233c 1.7426,-0.0000 2.1105,1.3360 2.1105 3.0593v 4.1048 c 0.0000,0.5615 0.2130,0.8519 0.8326 0.8519h 0.3679 c 0.0968,-0.0000 0.1743,0.0581 0.1743 0.1549v 0.3679 l -0.0387,0.0387 c 0.0000,-0.0000 -1.3360,-0.0387 -2.0911 -0.0387c -0.6777,-0.0000 -1.8975,0.0387 -1.8975 0.0387l -0.0387,-0.0387 v -0.3679 c 0.0000,-0.0968 0.0581,-0.1549 0.1549 -0.1549h 0.2711 c 0.6390,-0.0000 0.8326,-0.2904 0.8326 -0.8519ZM 186.6170,246.9640 ZM 192.7355,241.4844 c 0.0000,-1.6071 -0.7551,-2.5365 -1.9169 -2.5365c -1.0068,-0.0000 -1.6845,0.6970 -1.6845 2.2073c 0.0000,1.0068 0.3872,2.5946 1.9362 2.5946c 0.6777,-0.0000 1.6652,-0.3292 1.6652 -2.2654ZM 192.7355,241.4844 ZM 189.1148,247.0995 c -0.6002,0.5615 -0.7358,1.1617 -0.7358 1.8201c 0.0000,1.4522 1.7426,1.8781 2.4009 1.8781c 1.6652,-0.0000 3.7757,-0.5809 3.7757 -1.9750c 0.0000,-0.5034 -0.2711,-0.8326 -1.0262 -1.2005c -0.5421,-0.2711 -1.3360,-0.4841 -2.2654 -0.4841c -0.1549,-0.0000 -0.3679,0.0194 -0.6390 0.0387c -0.2711,0.0194 -0.5615,0.0194 -0.7745 0.0194c -0.3098,-0.0000 -0.4647,-0.0387 -0.7358 -0.0968ZM 189.1148,247.0995 ZM 195.0009,239.4514 c -0.3098,-0.0000 -0.5034,-0.1743 -0.5809 -0.3292c -0.1162,-0.1743 -0.1936,-0.2323 -0.3292 -0.2323c -0.2323,-0.0000 -0.6002,0.2711 -0.7358 0.4647c 0.5421,0.5809 0.7939,1.1424 0.7939 2.0524c 0.0000,1.8975 -1.5490,2.9237 -3.1754 2.9237c -0.7164,-0.0000 -1.2973,-0.1355 -1.7426 -0.4066c -0.2130,0.3292 -0.3292,0.7358 -0.3292 1.1230c 0.0000,0.8326 0.6390,1.0456 1.1811 1.0456c 0.0968,-0.0000 0.3292,-0.0194 0.6002 -0.0387c 0.4453,-0.0581 0.9294,-0.0968 1.2586 -0.0968c 0.6777,-0.0000 1.9556,0.1355 2.7301 0.7939c 0.5228,0.4841 0.8132,0.9488 0.8132 1.5684c 0.0000,2.0911 -2.7495,3.1948 -5.2472 3.1948c -1.4135,-0.0000 -2.9818,-0.5228 -2.9818 -2.2073c 0.0000,-0.8326 0.5228,-1.7233 1.5103 -2.3428c -0.4841,-0.2517 -0.8326,-0.7358 -0.8326 -1.4328c 0.0000,-0.6583 0.2904,-1.4909 0.8132 -1.9556c -0.5228,-0.5228 -0.9681,-1.1811 -0.9681 -2.2460c 0.0000,-1.7813 1.5684,-2.9237 3.2142 -2.9237c 1.0843,-0.0000 1.7620,0.4453 1.9750 0.6002c 0.4841,-0.6583 1.3554,-0.9875 1.8394 -0.9875c 0.5034,-0.0000 0.8519,0.3292 0.8519 0.7358c 0.0000,0.4260 -0.2711,0.6970 -0.6583 0.6970ZM 195.9884,246.9640 ZM 198.1957,241.6006 h 3.5627 c 0.1936,-0.0000 0.2711,-0.0968 0.2711 -0.2711c 0.0000,-1.8007 -0.9100,-2.2654 -1.6071 -2.2654c -0.4453,-0.0000 -1.8975,0.1743 -2.2267 2.5365ZM 198.1957,241.6006 ZM 203.3074,245.1633 l 0.3872,0.3098 c -0.7358,1.0068 -1.8781,1.7233 -3.2722 1.7233c -2.6526,-0.0000 -3.7757,-1.9750 -3.7757 -4.0855c 0.0000,-2.9431 1.9362,-4.7051 3.7757 -4.7051c 2.5558,-0.0000 3.1561,1.9943 3.1561 3.6208c 0.0000,0.2130 -0.1355,0.3292 -0.3485 0.3292h -5.0923 c -0.0194,0.1162 -0.0194,0.2323 -0.0194 0.3872c 0.0000,1.9750 1.3747,3.5046 2.7688 3.5046c 1.0649,-0.0000 1.7426,-0.3485 2.4203 -1.0843ZM 204.2755,246.9640 ZM 205.9987,245.5699 v -4.8212 c 0.0000,-0.9681 -0.1355,-1.1811 -0.4260 -1.1811c -0.2517,-0.0000 -0.4841,0.0194 -0.8132 0.0968l -0.0968,-0.5421 c 1.2198,-0.2130 1.4328,-0.2711 2.0137 -0.5615c 0.1936,-0.0968 0.3485,-0.1549 0.4841 -0.1549h 0.2904 l -0.0581,1.7426 h 0.0581 c 0.5034,-0.7551 1.3554,-1.7426 2.2654 -1.7426c 0.7939,-0.0000 1.0843,0.3872 1.0843 0.8907c 0.0000,0.5034 -0.3292,0.8132 -0.8326 0.8132c -0.3872,-0.0000 -0.6002,-0.1549 -0.7939 -0.3485c -0.1162,-0.1162 -0.2517,-0.1743 -0.3872 -0.1743c -0.2130,-0.0000 -0.6390,0.3485 -1.1037 1.0068c -0.1355,0.1743 -0.2323,0.4260 -0.2323 0.6777v 4.2984 c 0.0000,0.5615 0.1936,0.8519 0.8326 0.8519h 0.5615 c 0.0968,-0.0000 0.1743,0.0581 0.1743 0.1549v 0.3679 l -0.0387,0.0387 c 0.0000,-0.0000 -1.5296,-0.0387 -2.2848 -0.0387c -0.6970,-0.0000 -2.0137,0.0387 -2.0137 0.0387l -0.0194,-0.0387 v -0.3679 c 0.0000,-0.0968 0.0387,-0.1549 0.1355 -0.1549h 0.3679 c 0.6583,-0.0000 0.8326,-0.2904 0.8326 -0.8519ZM 215.8348,246.9640 ZM 222.8827,245.5699 v -4.2404 c 0.0000,-1.3554 -0.2323,-1.9943 -1.2586 -1.9943c -0.8519,-0.0000 -1.5877,0.3292 -2.5752 1.4909v 4.7438 c 0.0000,0.5615 0.1936,0.8519 0.8326 0.8519h 0.2711 c 0.0968,-0.0000 0.1549,0.0581 0.1549 0.1549v 0.3679 l -0.0387,0.0387 c 0.0000,-0.0000 -1.2198,-0.0387 -1.9750 -0.0387c -0.6970,-0.0000 -2.0137,0.0387 -2.0137 0.0387l -0.0387,-0.0387 v -0.3679 c 0.0000,-0.0968 0.0581,-0.1549 0.1549 -0.1549h 0.3679 c 0.6583,-0.0000 0.8326,-0.2904 0.8326 -0.8519v -4.8212 c 0.0000,-1.0456 -0.1549,-1.1811 -0.4260 -1.1811c -0.2517,-0.0000 -0.4841,0.0194 -0.8132 0.0968l -0.0968,-0.5421 c 0.8132,-0.1355 1.3941,-0.2323 1.9943 -0.5615c 0.2130,-0.0968 0.3679,-0.1549 0.5034 -0.1549h 0.2904 l -0.0581,1.7233 h 0.0581 c 1.2392,-1.4522 2.1686,-1.7233 3.1561 -1.7233c 1.7426,-0.0000 2.1105,1.3360 2.1105 3.0593v 4.1048 c 0.0000,0.5615 0.2130,0.8519 0.8326 0.8519h 0.3679 c 0.0968,-0.0000 0.1743,0.0581 0.1743 0.1549v 0.3679 l -0.0387,0.0387 c 0.0000,-0.0000 -1.3360,-0.0387 -2.0911 -0.0387c -0.6777,-0.0000 -1.8975,0.0387 -1.8975 0.0387l -0.0387,-0.0387 v -0.3679 c 0.0000,-0.0968 0.0581,-0.1549 0.1549 -0.1549h 0.2711 c 0.6390,-0.0000 0.8326,-0.2904 0.8326 -0.8519ZM 225.9033,246.9640 ZM 231.5377,242.2202 l -1.5296,0.3872 c -1.7039,0.5228 -1.9556,1.4135 -1.9556 2.2848c 0.0000,0.6002 0.2904,1.5103 1.5103 1.5103c 0.5809,-0.0000 1.4715,-0.5615 1.9750 -0.9875v -3.1948 ZM 231.5377,242.2202 ZM 232.7769,247.1963 c -0.7358,-0.0000 -1.1424,-0.6583 -1.2198 -1.1230l -0.4453,0.3098 c -0.8907,0.6196 -1.2198,0.8132 -2.1105 0.8132c -1.3554,-0.0000 -2.3428,-0.7745 -2.3428 -2.2267c 0.0000,-1.4715 1.2586,-2.4784 3.0980 -2.9431l 1.7813,-0.4453 c 0.0000,-2.1879 -1.0068,-2.5946 -1.6652 -2.5946c -0.7358,-0.0000 -1.5877,0.3292 -1.5877 0.9294c 0.0000,0.2130 0.0387,0.3292 0.0581 0.3872c 0.0387,0.0774 0.0581,0.2130 0.0581 0.3485c 0.0000,0.2517 -0.1936,0.6390 -0.7551 0.6390c -0.4647,-0.0000 -0.7745,-0.3098 -0.7745 -0.7745c 0.0000,-1.1230 1.8201,-2.1105 3.0593 -2.1105c 1.4135,-0.0000 3.0399,0.5809 3.0399 3.3303v 2.8463 c 0.0000,1.1811 0.0194,1.6845 0.4647 1.6845c 0.4260,-0.0000 0.5421,-0.5421 0.5615 -0.9681l 0.4841,0.0968 c -0.1162,1.4135 -0.7164,1.8007 -1.7039 1.8007ZM 234.6357,246.9640 ZM 246.3112,245.5699 v -4.4533 c 0.0000,-1.2973 -0.5034,-1.7813 -1.2392 -1.7813c -0.7551,-0.0000 -1.3554,0.3872 -2.2848 1.4135c 0.0387,0.2323 0.0387,0.5034 0.0387 0.7745v 4.0467 c 0.0000,0.5615 0.1936,0.8519 0.8326 0.8519h 0.3292 c 0.0968,-0.0000 0.1743,0.0581 0.1743 0.1549v 0.3679 l -0.0387,0.0387 c 0.0000,-0.0000 -1.2973,-0.0387 -2.0524 -0.0387c -0.6970,-0.0000 -2.0330,0.0387 -2.0330 0.0387l -0.0387,-0.0387 v -0.3679 c 0.0000,-0.0968 0.0581,-0.1549 0.1549 -0.1549h 0.3872 c 0.6583,-0.0000 0.8326,-0.2904 0.8326 -0.8519v -4.4146 c 0.0000,-1.2973 -0.5228,-1.8201 -1.2586 -1.8201c -0.6777,-0.0000 -1.3166,0.4841 -2.2267 1.4328v 4.8019 c 0.0000,0.5615 0.1936,0.8519 0.8326 0.8519h 0.3679 c 0.0774,-0.0000 0.1549,0.0581 0.1549 0.1549v 0.3679 l -0.0387,0.0387 c 0.0000,-0.0000 -1.3166,-0.0387 -2.0718 -0.0387c -0.6970,-0.0000 -2.0137,0.0387 -2.0137 0.0387l -0.0387,-0.0387 v -0.3679 c 0.0000,-0.0968 0.0581,-0.1549 0.1549 -0.1549h 0.3679 c 0.6583,-0.0000 0.8326,-0.2904 0.8326 -0.8519v -4.8212 c 0.0000,-1.1037 -0.1743,-1.1811 -0.4260 -1.1811c -0.2517,-0.0000 -0.4841,0.0194 -0.8132 0.0968l -0.0968,-0.5421 c 1.2198,-0.2130 1.4909,-0.2904 2.0137 -0.5615c 0.1936,-0.0968 0.3485,-0.1549 0.4841 -0.1549h 0.2904 l -0.0581,1.6845 h 0.0581 c 0.9100,-0.9681 1.7233,-1.6845 2.9237 -1.6845c 1.0843,-0.0000 1.7620,0.7939 1.8781 1.6652c 1.1230,-1.1617 2.0330,-1.6652 3.0786 -1.6652c 1.7039,-0.0000 1.9943,1.4135 1.9943 3.1367v 4.0274 c 0.0000,0.5615 0.1936,0.8519 0.8326 0.8519h 0.3679 c 0.0774,-0.0000 0.1549,0.0581 0.1549 0.1549v 0.3679 l -0.0387,0.0387 c 0.0000,-0.0000 -1.3166,-0.0387 -2.0718 -0.0387c -0.6970,-0.0000 -2.0137,0.0387 -2.0137 0.0387l -0.0387,-0.0387 v -0.3679 c 0.0000,-0.0968 0.0581,-0.1549 0.1549 -0.1549h 0.3679 c 0.6390,-0.0000 0.8326,-0.2904 0.8326 -0.8519ZM 249.3511,246.9640 ZM 251.5584,241.6006 h 3.5627 c 0.1936,-0.0000 0.2711,-0.0968 0.2711 -0.2711c 0.0000,-1.8007 -0.9100,-2.2654 -1.6071 -2.2654c -0.4453,-0.0000 -1.8975,0.1743 -2.2267 2.5365ZM 251.5584,241.6006 ZM 256.6701,245.1633 l 0.3872,0.3098 c -0.7358,1.0068 -1.8781,1.7233 -3.2722 1.7233c -2.6526,-0.0000 -3.7757,-1.9750 -3.7757 -4.0855c 0.0000,-2.9431 1.9362,-4.7051 3.7757 -4.7051c 2.5558,-0.0000 3.1561,1.9943 3.1561 3.6208c 0.0000,0.2130 -0.1355,0.3292 -0.3485 0.3292h -5.0923 c -0.0194,0.1162 -0.0194,0.2323 -0.0194 0.3872c 0.0000,1.9750 1.3747,3.5046 2.7688 3.5046c 1.0649,-0.0000 1.7426,-0.3485 2.4203 -1.0843Z"/></g><g stroke-linejoin="miter" stroke-opacity="0.6" fill-opacity="0.0" stroke="rgb(255,127,14)" stroke-width="5.31190431544029" fill="rgb(0,0,0)" stroke-linecap="butt" stroke-miterlimit="10.0"><path d="M 92.3997,246.9640 h 16.6793 "/></g><g stroke-linejoin="miter" stroke-opacity="1.0" fill-opacity="0.63" stroke="rgb(0,0,0)" fill-rule="evenodd" stroke-width="0.0" fill="rgb(0,0,0)" stroke-linecap="butt" stroke-miterlimit="10.0"><path d="M 115.7507,213.6054 ZM 116.5833,210.8947 l 0.5228,-0.0194 c 0.0581,0.4841 0.2711,1.4135 0.6970 1.8588c 0.1936,0.2130 0.7164,0.5615 1.4328 0.5615c 0.6777,-0.0000 1.6845,-0.5421 1.6845 -1.4909c 0.0000,-0.8326 -0.4647,-1.3941 -1.9943 -2.0524c -1.4135,-0.6196 -2.1492,-1.0262 -2.1492 -2.4784c 0.0000,-1.2973 1.1424,-2.2267 2.6720 -2.2267c 0.9681,-0.0000 1.6845,0.1743 2.2848 0.4841c 0.1162,0.6196 0.1743,1.2779 0.2130 1.9750l -0.5228,0.0194 c -0.4066,-1.5877 -1.5684,-1.8975 -1.9750 -1.8975c -0.7358,-0.0000 -1.4909,0.2904 -1.4909 1.3554c 0.0000,0.7745 0.3679,1.1617 1.4328 1.5490c 1.5684,0.5809 2.8269,1.2779 2.8269 2.8269c 0.0000,1.9169 -2.0330,2.4784 -2.9431 2.4784c -0.6777,-0.0000 -1.2392,-0.0774 -1.7426 -0.2130c -0.1355,-0.0194 -0.2323,-0.0387 -0.3679 -0.0387c -0.0968,-0.0000 -0.2517,0.0194 -0.4453 0.0581c 0.0000,-0.8132 -0.0581,-1.8007 -0.1355 -2.7495ZM 122.9342,213.6054 ZM 126.0902,200.0904 v 6.5638 c 1.2973,-1.2973 2.4397,-1.6071 3.1948 -1.6071c 1.3941,-0.0000 2.0911,1.0649 2.0911 3.0593v 4.1048 c 0.0000,0.5615 0.1936,0.8519 0.8326 0.8519h 0.3679 c 0.0774,-0.0000 0.1549,0.0581 0.1549 0.1549v 0.3679 l -0.0387,0.0387 c 0.0000,-0.0000 -1.3166,-0.0387 -2.0911 -0.0387c -0.6777,-0.0000 -1.9943,0.0387 -1.9943 0.0387l -0.0387,-0.0387 v -0.3679 c 0.0000,-0.0968 0.0581,-0.1549 0.1549 -0.1549h 0.3679 c 0.6583,-0.0000 0.8326,-0.2904 0.8326 -0.8519v -4.3178 c 0.0000,-1.5684 -0.4260,-1.9362 -1.5103 -1.9362c -0.5615,-0.0000 -1.3941,0.5034 -2.3235 1.4135v 4.8406 c 0.0000,0.5615 0.1936,0.8519 0.8326 0.8519h 0.3679 c 0.0774,-0.0000 0.1549,0.0581 0.1549 0.1549v 0.3679 l -0.0387,0.0387 c 0.0000,-0.0000 -1.3166,-0.0387 -2.0718 -0.0387c -0.6970,-0.0000 -1.9943,0.0387 -1.9943 0.0387l -0.0387,-0.0387 v -0.3679 c 0.0000,-0.0968 0.0387,-0.1549 0.1355 -0.1549h 0.3679 c 0.6583,-0.0000 0.8326,-0.2904 0.8326 -0.8519v -9.7005 c 0.0000,-1.1037 -0.1743,-1.4135 -0.5615 -1.4135l -0.6390,0.0774 c -0.0581,-0.0000 -0.0968,-0.0387 -0.0968 -0.0968l -0.0387,-0.4841 c 0.3098,-0.0000 1.0068,-0.1162 1.3360 -0.1743c 0.3485,-0.0774 0.6390,-0.1549 1.0262 -0.3292h 0.4260 ZM 132.9639,213.6054 ZM 133.6222,209.6361 c 0.0000,-2.6526 1.4328,-4.5889 4.0080 -4.5889c 2.8656,-0.0000 3.9693,2.4009 3.9693 4.4146c 0.0000,1.9362 -1.2586,4.3759 -4.0080 4.3759c -2.5946,-0.0000 -3.9693,-2.2267 -3.9693 -4.2016ZM 133.6222,209.6361 ZM 137.4172,205.6862 c -1.5490,-0.0000 -2.2654,1.8201 -2.2654 3.5046c 0.0000,1.4909 0.8519,3.9693 2.7688 3.9693c 0.8713,-0.0000 2.1492,-0.5228 2.1492 -3.0786c 0.0000,-2.8463 -1.0649,-4.3953 -2.6526 -4.3953ZM 142.2385,213.6054 ZM 143.9617,212.2113 v -4.8212 c 0.0000,-0.9681 -0.1355,-1.1811 -0.4260 -1.1811c -0.2517,-0.0000 -0.4841,0.0194 -0.8132 0.0968l -0.0968,-0.5421 c 1.2198,-0.2130 1.4328,-0.2711 2.0137 -0.5615c 0.1936,-0.0968 0.3485,-0.1549 0.4841 -0.1549h 0.2904 l -0.0581,1.7426 h 0.0581 c 0.5034,-0.7551 1.3554,-1.7426 2.2654 -1.7426c 0.7939,-0.0000 1.0843,0.3872 1.0843 0.8907c 0.0000,0.5034 -0.3292,0.8132 -0.8326 0.8132c -0.3872,-0.0000 -0.6002,-0.1549 -0.7939 -0.3485c -0.1162,-0.1162 -0.2517,-0.1743 -0.3872 -0.1743c -0.2130,-0.0000 -0.6390,0.3485 -1.1037 1.0068c -0.1355,0.1743 -0.2323,0.4260 -0.2323 0.6777v 4.2984 c 0.0000,0.5615 0.1936,0.8519 0.8326 0.8519h 0.5615 c 0.0968,-0.0000 0.1743,0.0581 0.1743 0.1549v 0.3679 l -0.0387,0.0387 c 0.0000,-0.0000 -1.5296,-0.0387 -2.2848 -0.0387c -0.6970,-0.0000 -2.0137,0.0387 -2.0137 0.0387l -0.0194,-0.0387 v -0.3679 c 0.0000,-0.0968 0.0387,-0.1549 0.1355 -0.1549h 0.3679 c 0.6583,-0.0000 0.8326,-0.2904 0.8326 -0.8519ZM 148.9572,213.6054 ZM 152.1326,206.0347 v 4.9568 c 0.0000,1.2005 0.1162,1.7813 0.6390 1.7813c 0.5034,-0.0000 0.8907,-0.1549 1.3941 -0.5421l 0.3485,0.3292 c -0.7551,0.8519 -1.5296,1.2779 -2.4203 1.2779c -0.8907,-0.0000 -1.4135,-0.5421 -1.4135 -1.9169v -5.8862 h -1.2586 c -0.0581,-0.0000 -0.0774,-0.0194 -0.0774 -0.0774v -0.6002 c 0.0000,-0.0581 0.0194,-0.0774 0.0581 -0.0774c 1.2973,-0.0000 1.6071,-0.7551 1.6071 -2.2267v -0.3679 l 1.1230,-0.3872 v 2.9818 h 2.1299 c 0.0968,-0.0000 0.1549,0.0387 0.1549 0.1162v 0.3872 c 0.0000,0.1743 -0.2711,0.2517 -0.4647 0.2517h -1.8201 Z"/></g><g stroke-linejoin="miter" stroke-opacity="0.6" fill-opacity="0.0" stroke="rgb(31,119,180)" stroke-width="2.655952157720145" fill="rgb(0,0,0)" stroke-linecap="butt" stroke-miterlimit="10.0"><path d="M 92.3997,213.6054 h 16.6793 "/></g><g stroke-linejoin="miter" stroke-opacity="1.0" fill-opacity="0.63" stroke="rgb(0,0,0)" fill-rule="evenodd" stroke-width="0.0" fill="rgb(0,0,0)" stroke-linecap="butt" stroke-miterlimit="10.0"><path d="M 109.0790,176.2803 ZM 111.0927,165.2244 c 0.0000,-0.5034 0.4066,-0.9294 0.9294 -0.9294c 0.5034,-0.0000 0.9294,0.4260 0.9294 0.9294c 0.0000,0.5228 -0.4260,0.9294 -0.9294 0.9294c -0.5228,-0.0000 -0.9294,-0.4066 -0.9294 -0.9294ZM 111.0927,165.2244 ZM 110.0665,180.0366 c 0.8519,-0.0000 1.4328,-1.5296 1.4328 -4.2597v -5.7119 c 0.0000,-1.0262 -0.1743,-1.1811 -0.4260 -1.1811c -0.2711,-0.0000 -0.4841,0.0194 -0.8132 0.0968l -0.0968,-0.5421 c 1.4135,-0.2323 1.8394,-0.4647 2.0911 -0.6002c 0.1355,-0.0581 0.2130,-0.1162 0.4066 -0.1162h 0.2904 v 7.4545 c 0.0000,2.5365 -0.1936,3.6014 -1.2586 4.6857c -0.5228,0.5034 -1.0843,0.7358 -1.5490 0.7358c -0.7939,-0.0000 -1.8201,-0.4066 -1.8201 -0.9875c 0.0000,-0.4841 0.2904,-0.7358 0.6196 -0.7358c 0.4647,-0.0000 0.7164,0.4453 0.8132 0.8519c 0.0581,0.1936 0.1549,0.3098 0.3098 0.3098ZM 114.4424,176.2803 ZM 122.7488,174.0342 c 0.0000,0.9681 0.0968,1.2779 0.4841 1.2779c 0.2323,-0.0000 0.6583,-0.0387 0.9875 -0.0968l 0.0774,0.5421 c -1.1811,0.2130 -2.1299,0.4066 -2.5752 0.7551h -0.4260 l 0.0581,-1.4328 h -0.0581 c -1.0649,1.1617 -1.9362,1.4328 -2.7301 1.4328c -1.9169,-0.0000 -2.4203,-1.2973 -2.4203 -2.6333v -4.4146 c 0.0000,-0.6390 -0.1355,-0.9681 -0.8519 -0.9681c -0.0774,-0.0000 -0.2130,0.0194 -0.3292 0.0194l -0.0581,-0.0194 v -0.5034 l 0.0581,-0.0581 c 0.0000,-0.0000 1.3166,0.0387 1.9362 0.0387c 0.2711,-0.0000 0.7164,-0.0387 0.7164 -0.0387l -0.0194,1.5490 v 4.1242 c 0.0000,1.7233 0.8907,2.0330 1.4715 2.0330c 0.4453,-0.0000 0.8519,-0.1743 1.2586 -0.4647c 0.4647,-0.3485 0.7745,-0.6196 0.9681 -0.8713v -4.7825 c 0.0000,-0.6970 -0.0968,-1.0262 -0.8132 -1.0262c -0.1162,-0.0000 -0.3292,0.0194 -0.3872 0.0194l -0.0387,-0.0387 v -0.4841 l 0.0387,-0.0581 c 0.0000,-0.0000 1.3747,0.0387 1.9169 0.0387c 0.4453,-0.0000 0.7551,-0.0387 0.7551 -0.0387l -0.0194,1.5296 v 4.5695 ZM 124.4527,176.2803 ZM 125.2853,173.5695 l 0.5228,-0.0194 c 0.0581,0.4841 0.2711,1.4135 0.6970 1.8588c 0.1936,0.2130 0.7164,0.5615 1.4328 0.5615c 0.6777,-0.0000 1.6845,-0.5421 1.6845 -1.4909c 0.0000,-0.8326 -0.4647,-1.3941 -1.9943 -2.0524c -1.4135,-0.6196 -2.1492,-1.0262 -2.1492 -2.4784c 0.0000,-1.2973 1.1424,-2.2267 2.6720 -2.2267c 0.9681,-0.0000 1.6845,0.1743 2.2848 0.4841c 0.1162,0.6196 0.1743,1.2779 0.2130 1.9750l -0.5228,0.0194 c -0.4066,-1.5877 -1.5684,-1.8975 -1.9750 -1.8975c -0.7358,-0.0000 -1.4909,0.2904 -1.4909 1.3554c 0.0000,0.7745 0.3679,1.1617 1.4328 1.5490c 1.5684,0.5809 2.8269,1.2779 2.8269 2.8269c 0.0000,1.9169 -2.0330,2.4784 -2.9431 2.4784c -0.6777,-0.0000 -1.2392,-0.0774 -1.7426 -0.2130c -0.1355,-0.0194 -0.2323,-0.0387 -0.3679 -0.0387c -0.0968,-0.0000 -0.2517,0.0194 -0.4453 0.0581c 0.0000,-0.8132 -0.0581,-1.8007 -0.1355 -2.7495ZM 131.6362,176.2803 ZM 134.8116,168.7096 v 4.9568 c 0.0000,1.2005 0.1162,1.7813 0.6390 1.7813c 0.5034,-0.0000 0.8907,-0.1549 1.3941 -0.5421l 0.3485,0.3292 c -0.7551,0.8519 -1.5296,1.2779 -2.4203 1.2779c -0.8907,-0.0000 -1.4135,-0.5421 -1.4135 -1.9169v -5.8862 h -1.2586 c -0.0581,-0.0000 -0.0774,-0.0194 -0.0774 -0.0774v -0.6002 c 0.0000,-0.0581 0.0194,-0.0774 0.0581 -0.0774c 1.2973,-0.0000 1.6071,-0.7551 1.6071 -2.2267v -0.3679 l 1.1230,-0.3872 v 2.9818 h 2.1299 c 0.0968,-0.0000 0.1549,0.0387 0.1549 0.1162v 0.3872 c 0.0000,0.1743 -0.2711,0.2517 -0.4647 0.2517h -1.8201 ZM 142.3242,176.2803 ZM 147.9587,171.5365 l -1.5296,0.3872 c -1.7039,0.5228 -1.9556,1.4135 -1.9556 2.2848c 0.0000,0.6002 0.2904,1.5103 1.5103 1.5103c 0.5809,-0.0000 1.4715,-0.5615 1.9750 -0.9875v -3.1948 ZM 147.9587,171.5365 ZM 149.1978,176.5126 c -0.7358,-0.0000 -1.1424,-0.6583 -1.2198 -1.1230l -0.4453,0.3098 c -0.8907,0.6196 -1.2198,0.8132 -2.1105 0.8132c -1.3554,-0.0000 -2.3428,-0.7745 -2.3428 -2.2267c 0.0000,-1.4715 1.2586,-2.4784 3.0980 -2.9431l 1.7813,-0.4453 c 0.0000,-2.1879 -1.0068,-2.5946 -1.6652 -2.5946c -0.7358,-0.0000 -1.5877,0.3292 -1.5877 0.9294c 0.0000,0.2130 0.0387,0.3292 0.0581 0.3872c 0.0387,0.0774 0.0581,0.2130 0.0581 0.3485c 0.0000,0.2517 -0.1936,0.6390 -0.7551 0.6390c -0.4647,-0.0000 -0.7745,-0.3098 -0.7745 -0.7745c 0.0000,-1.1230 1.8201,-2.1105 3.0593 -2.1105c 1.4135,-0.0000 3.0399,0.5809 3.0399 3.3303v 2.8463 c 0.0000,1.1811 0.0194,1.6845 0.4647 1.6845c 0.4260,-0.0000 0.5421,-0.5421 0.5615 -0.9681l 0.4841,0.0968 c -0.1162,1.4135 -0.7164,1.8007 -1.7039 1.8007ZM 155.8972,176.2803 ZM 162.0157,170.8007 c 0.0000,-1.6071 -0.7551,-2.5365 -1.9169 -2.5365c -1.0068,-0.0000 -1.6845,0.6970 -1.6845 2.2073c 0.0000,1.0068 0.3872,2.5946 1.9362 2.5946c 0.6777,-0.0000 1.6652,-0.3292 1.6652 -2.2654ZM 162.0157,170.8007 ZM 158.3950,176.4158 c -0.6002,0.5615 -0.7358,1.1617 -0.7358 1.8201c 0.0000,1.4522 1.7426,1.8781 2.4009 1.8781c 1.6652,-0.0000 3.7757,-0.5809 3.7757 -1.9750c 0.0000,-0.5034 -0.2711,-0.8326 -1.0262 -1.2005c -0.5421,-0.2711 -1.3360,-0.4841 -2.2654 -0.4841c -0.1549,-0.0000 -0.3679,0.0194 -0.6390 0.0387c -0.2711,0.0194 -0.5615,0.0194 -0.7745 0.0194c -0.3098,-0.0000 -0.4647,-0.0387 -0.7358 -0.0968ZM 158.3950,176.4158 ZM 164.2811,168.7677 c -0.3098,-0.0000 -0.5034,-0.1743 -0.5809 -0.3292c -0.1162,-0.1743 -0.1936,-0.2323 -0.3292 -0.2323c -0.2323,-0.0000 -0.6002,0.2711 -0.7358 0.4647c 0.5421,0.5809 0.7939,1.1424 0.7939 2.0524c 0.0000,1.8975 -1.5490,2.9237 -3.1754 2.9237c -0.7164,-0.0000 -1.2973,-0.1355 -1.7426 -0.4066c -0.2130,0.3292 -0.3292,0.7358 -0.3292 1.1230c 0.0000,0.8326 0.6390,1.0456 1.1811 1.0456c 0.0968,-0.0000 0.3292,-0.0194 0.6002 -0.0387c 0.4453,-0.0581 0.9294,-0.0968 1.2586 -0.0968c 0.6777,-0.0000 1.9556,0.1355 2.7301 0.7939c 0.5228,0.4841 0.8132,0.9488 0.8132 1.5684c 0.0000,2.0911 -2.7495,3.1948 -5.2472 3.1948c -1.4135,-0.0000 -2.9818,-0.5228 -2.9818 -2.2073c 0.0000,-0.8326 0.5228,-1.7233 1.5103 -2.3428c -0.4841,-0.2517 -0.8326,-0.7358 -0.8326 -1.4328c 0.0000,-0.6583 0.2904,-1.4909 0.8132 -1.9556c -0.5228,-0.5228 -0.9681,-1.1811 -0.9681 -2.2460c 0.0000,-1.7813 1.5684,-2.9237 3.2142 -2.9237c 1.0843,-0.0000 1.7620,0.4453 1.9750 0.6002c 0.4841,-0.6583 1.3554,-0.9875 1.8394 -0.9875c 0.5034,-0.0000 0.8519,0.3292 0.8519 0.7358c 0.0000,0.4260 -0.2711,0.6970 -0.6583 0.6970ZM 165.1718,176.2803 ZM 167.0112,174.8862 v -9.7005 c 0.0000,-1.1037 -0.1936,-1.4135 -0.5809 -1.4135l -0.6196,0.0774 c -0.0581,-0.0000 -0.1162,-0.0387 -0.1162 -0.0968l -0.0387,-0.4841 c 0.3098,-0.0000 1.0262,-0.1162 1.3554 -0.1743c 0.3485,-0.0774 0.6196,-0.1549 1.0068 -0.3292h 0.4260 v 12.1208 c 0.0000,0.5615 0.2130,0.8519 0.8326 0.8519h 0.4647 c 0.0774,-0.0000 0.1549,0.0581 0.1549 0.1549v 0.3679 l -0.0387,0.0387 c 0.0000,-0.0000 -1.4135,-0.0387 -2.1686 -0.0387c -0.6777,-0.0000 -2.0911,0.0387 -2.0911 0.0387l -0.0194,-0.0387 v -0.3679 c 0.0000,-0.0968 0.0387,-0.1549 0.1355 -0.1549h 0.4647 c 0.6390,-0.0000 0.8326,-0.2904 0.8326 -0.8519ZM 170.2060,176.2803 ZM 174.2334,168.3417 c 0.0000,0.0968 -0.1162,0.1549 -0.2130 0.1549c -0.5809,-0.0000 -0.8326,0.1162 -0.8326 0.4260c 0.0000,0.1162 0.0387,0.2711 0.1162 0.4453l 2.1299,4.9955 l 2.1492,-4.9180 c 0.0968,-0.1743 0.1355,-0.3292 0.1355 -0.4453c 0.0000,-0.4066 -0.3872,-0.5034 -0.8132 -0.5034h -0.0774 c -0.0968,-0.0000 -0.1936,-0.0774 -0.1936 -0.1355v -0.3679 l 0.0387,-0.0581 c 0.0000,-0.0000 1.1424,0.0387 1.8201 0.0387c 0.5421,-0.0000 1.3360,-0.0387 1.3360 -0.0387l 0.0581,0.0387 v 0.3679 c 0.0000,0.0968 -0.0774,0.1549 -0.2130 0.1549c -0.7358,-0.0000 -1.1037,0.7551 -1.3747 1.3166c -1.0262,2.1686 -1.8781,4.1629 -3.4271 7.8998c -0.5809,1.3941 -1.2779,3.0205 -2.6526 3.0205c -0.3679,-0.0000 -1.1230,-0.2130 -1.1230 -0.9100c 0.0000,-0.5809 0.4260,-0.7551 0.7358 -0.7551c 0.2904,-0.0000 0.4841,0.1162 0.6002 0.2711c 0.1936,0.1936 0.3292,0.3292 0.5228 0.3292c 0.2904,-0.0000 0.9681,-1.6652 1.4522 -2.8463c 0.1162,-0.2323 0.1549,-0.4260 0.1549 -0.6002c 0.0000,-0.1936 -0.1743,-0.7164 -0.3292 -1.1037l -2.4397,-5.6732 c -0.3098,-0.7358 -0.5228,-0.9488 -1.1811 -0.9488c -0.1162,-0.0000 -0.1936,-0.0581 -0.1936 -0.1355v -0.3872 l 0.0387,-0.0387 c 0.0000,-0.0000 0.8519,0.0387 1.4328 0.0387c 0.9100,-0.0000 2.3041,-0.0387 2.3041 -0.0387l 0.0387,0.0581 v 0.3485 ZM 180.0615,176.2803 ZM 182.9465,170.2005 v 4.8212 c 0.6777,0.7939 1.3166,0.8326 1.6264 0.8326c 2.0718,-0.0000 2.5365,-1.9362 2.5365 -3.6014c 0.0000,-2.3428 -0.9488,-3.6401 -2.1299 -3.6401c -0.6583,-0.0000 -1.6071,0.5615 -2.0330 1.5877ZM 182.9465,170.2005 ZM 181.5136,179.3395 v -9.5844 c 0.0000,-0.7358 -0.1743,-0.8713 -0.4453 -0.8713c -0.2517,-0.0000 -0.4841,0.0194 -0.8132 0.0968l -0.0968,-0.5421 c 1.2392,-0.2130 1.4715,-0.2904 2.0137 -0.5615c 0.2130,-0.0968 0.3485,-0.1549 0.4841 -0.1549h 0.2904 l -0.0581,1.5490 h 0.0581 c 0.8907,-1.3554 1.9362,-1.5490 2.5558 -1.5490c 1.8781,-0.0000 3.1173,1.9556 3.1173 4.0080c 0.0000,1.5684 -0.4841,2.7688 -1.3554 3.6595c -0.7551,0.7551 -1.5490,1.1230 -2.5752 1.1230c -0.6970,-0.0000 -1.2392,-0.1549 -1.7426 -0.4260v 3.2529 c 0.0000,0.5615 0.2130,0.8519 0.8326 0.8519h 0.3679 c 0.0968,-0.0000 0.1743,0.0581 0.1743 0.1549v 0.3679 l -0.0387,0.0387 c 0.0000,-0.0000 -1.3360,-0.0387 -2.0911 -0.0387c -0.6777,-0.0000 -1.9943,0.0387 -1.9943 0.0387l -0.0387,-0.0387 v -0.3679 c 0.0000,-0.0968 0.0581,-0.1549 0.1549 -0.1549h 0.3679 c 0.6390,-0.0000 0.8326,-0.2904 0.8326 -0.8519ZM 189.3360,176.2803 ZM 192.4921,162.7653 v 6.5638 c 1.2973,-1.2973 2.4397,-1.6071 3.1948 -1.6071c 1.3941,-0.0000 2.0911,1.0649 2.0911 3.0593v 4.1048 c 0.0000,0.5615 0.1936,0.8519 0.8326 0.8519h 0.3679 c 0.0774,-0.0000 0.1549,0.0581 0.1549 0.1549v 0.3679 l -0.0387,0.0387 c 0.0000,-0.0000 -1.3166,-0.0387 -2.0911 -0.0387c -0.6777,-0.0000 -1.9943,0.0387 -1.9943 0.0387l -0.0387,-0.0387 v -0.3679 c 0.0000,-0.0968 0.0581,-0.1549 0.1549 -0.1549h 0.3679 c 0.6583,-0.0000 0.8326,-0.2904 0.8326 -0.8519v -4.3178 c 0.0000,-1.5684 -0.4260,-1.9362 -1.5103 -1.9362c -0.5615,-0.0000 -1.3941,0.5034 -2.3235 1.4135v 4.8406 c 0.0000,0.5615 0.1936,0.8519 0.8326 0.8519h 0.3679 c 0.0774,-0.0000 0.1549,0.0581 0.1549 0.1549v 0.3679 l -0.0387,0.0387 c 0.0000,-0.0000 -1.3166,-0.0387 -2.0718 -0.0387c -0.6970,-0.0000 -1.9943,0.0387 -1.9943 0.0387l -0.0387,-0.0387 v -0.3679 c 0.0000,-0.0968 0.0387,-0.1549 0.1355 -0.1549h 0.3679 c 0.6583,-0.0000 0.8326,-0.2904 0.8326 -0.8519v -9.7005 c 0.0000,-1.1037 -0.1743,-1.4135 -0.5615 -1.4135l -0.6390,0.0774 c -0.0581,-0.0000 -0.0968,-0.0387 -0.0968 -0.0968l -0.0387,-0.4841 c 0.3098,-0.0000 1.0068,-0.1162 1.3360 -0.1743c 0.3485,-0.0774 0.6390,-0.1549 1.0262 -0.3292h 0.4260 Z"/></g><g stroke-linejoin="miter" stroke-opacity="0.5" fill-opacity="0.5" stroke="rgb(128,128,128)" stroke-width="3.9839282365802173" fill="rgb(93,165,218)" stroke-linecap="butt" stroke-miterlimit="10.0"><path d="M 102.4073,176.2803 c 0.0000,-5.5270 -4.4805,-10.0076 -10.0076 -10.0076c -5.5270,-0.0000 -10.0076,4.4805 -10.0076 10.0076c -0.0000,5.5270 4.4805,10.0076 10.0076 10.0076c 5.5270,0.0000 10.0076,-4.4805 10.0076 -10.0076Z"/></g><g stroke-linejoin="miter" stroke-opacity="1.0" fill-opacity="0.63" stroke="rgb(0,0,0)" fill-rule="evenodd" stroke-width="0.0" fill="rgb(0,0,0)" stroke-linecap="butt" stroke-miterlimit="10.0"><path d="M 132.4300,138.9552 ZM 138.5485,133.4756 c 0.0000,-1.6071 -0.7551,-2.5365 -1.9169 -2.5365c -1.0068,-0.0000 -1.6845,0.6970 -1.6845 2.2073c 0.0000,1.0068 0.3872,2.5946 1.9362 2.5946c 0.6777,-0.0000 1.6652,-0.3292 1.6652 -2.2654ZM 138.5485,133.4756 ZM 134.9278,139.0907 c -0.6002,0.5615 -0.7358,1.1617 -0.7358 1.8201c 0.0000,1.4522 1.7426,1.8781 2.4009 1.8781c 1.6652,-0.0000 3.7757,-0.5809 3.7757 -1.9750c 0.0000,-0.5034 -0.2711,-0.8326 -1.0262 -1.2005c -0.5421,-0.2711 -1.3360,-0.4841 -2.2654 -0.4841c -0.1549,-0.0000 -0.3679,0.0194 -0.6390 0.0387c -0.2711,0.0194 -0.5615,0.0194 -0.7745 0.0194c -0.3098,-0.0000 -0.4647,-0.0387 -0.7358 -0.0968ZM 134.9278,139.0907 ZM 140.8139,131.4426 c -0.3098,-0.0000 -0.5034,-0.1743 -0.5809 -0.3292c -0.1162,-0.1743 -0.1936,-0.2323 -0.3292 -0.2323c -0.2323,-0.0000 -0.6002,0.2711 -0.7358 0.4647c 0.5421,0.5809 0.7939,1.1424 0.7939 2.0524c 0.0000,1.8975 -1.5490,2.9237 -3.1754 2.9237c -0.7164,-0.0000 -1.2973,-0.1355 -1.7426 -0.4066c -0.2130,0.3292 -0.3292,0.7358 -0.3292 1.1230c 0.0000,0.8326 0.6390,1.0456 1.1811 1.0456c 0.0968,-0.0000 0.3292,-0.0194 0.6002 -0.0387c 0.4453,-0.0581 0.9294,-0.0968 1.2586 -0.0968c 0.6777,-0.0000 1.9556,0.1355 2.7301 0.7939c 0.5228,0.4841 0.8132,0.9488 0.8132 1.5684c 0.0000,2.0911 -2.7495,3.1948 -5.2472 3.1948c -1.4135,-0.0000 -2.9818,-0.5228 -2.9818 -2.2073c 0.0000,-0.8326 0.5228,-1.7233 1.5103 -2.3428c -0.4841,-0.2517 -0.8326,-0.7358 -0.8326 -1.4328c 0.0000,-0.6583 0.2904,-1.4909 0.8132 -1.9556c -0.5228,-0.5228 -0.9681,-1.1811 -0.9681 -2.2460c 0.0000,-1.7813 1.5684,-2.9237 3.2142 -2.9237c 1.0843,-0.0000 1.7620,0.4453 1.9750 0.6002c 0.4841,-0.6583 1.3554,-0.9875 1.8394 -0.9875c 0.5034,-0.0000 0.8519,0.3292 0.8519 0.7358c 0.0000,0.4260 -0.2711,0.6970 -0.6583 0.6970ZM 141.7046,138.9552 ZM 143.5440,137.5611 v -9.7005 c 0.0000,-1.1037 -0.1936,-1.4135 -0.5809 -1.4135l -0.6196,0.0774 c -0.0581,-0.0000 -0.1162,-0.0387 -0.1162 -0.0968l -0.0387,-0.4841 c 0.3098,-0.0000 1.0262,-0.1162 1.3554 -0.1743c 0.3485,-0.0774 0.6196,-0.1549 1.0068 -0.3292h 0.4260 v 12.1208 c 0.0000,0.5615 0.2130,0.8519 0.8326 0.8519h 0.4647 c 0.0774,-0.0000 0.1549,0.0581 0.1549 0.1549v 0.3679 l -0.0387,0.0387 c 0.0000,-0.0000 -1.4135,-0.0387 -2.1686 -0.0387c -0.6777,-0.0000 -2.0911,0.0387 -2.0911 0.0387l -0.0194,-0.0387 v -0.3679 c 0.0000,-0.0968 0.0387,-0.1549 0.1355 -0.1549h 0.4647 c 0.6390,-0.0000 0.8326,-0.2904 0.8326 -0.8519ZM 146.7388,138.9552 ZM 150.7662,131.0166 c 0.0000,0.0968 -0.1162,0.1549 -0.2130 0.1549c -0.5809,-0.0000 -0.8326,0.1162 -0.8326 0.4260c 0.0000,0.1162 0.0387,0.2711 0.1162 0.4453l 2.1299,4.9955 l 2.1492,-4.9180 c 0.0968,-0.1743 0.1355,-0.3292 0.1355 -0.4453c 0.0000,-0.4066 -0.3872,-0.5034 -0.8132 -0.5034h -0.0774 c -0.0968,-0.0000 -0.1936,-0.0774 -0.1936 -0.1355v -0.3679 l 0.0387,-0.0581 c 0.0000,-0.0000 1.1424,0.0387 1.8201 0.0387c 0.5421,-0.0000 1.3360,-0.0387 1.3360 -0.0387l 0.0581,0.0387 v 0.3679 c 0.0000,0.0968 -0.0774,0.1549 -0.2130 0.1549c -0.7358,-0.0000 -1.1037,0.7551 -1.3747 1.3166c -1.0262,2.1686 -1.8781,4.1629 -3.4271 7.8998c -0.5809,1.3941 -1.2779,3.0205 -2.6526 3.0205c -0.3679,-0.0000 -1.1230,-0.2130 -1.1230 -0.9100c 0.0000,-0.5809 0.4260,-0.7551 0.7358 -0.7551c 0.2904,-0.0000 0.4841,0.1162 0.6002 0.2711c 0.1936,0.1936 0.3292,0.3292 0.5228 0.3292c 0.2904,-0.0000 0.9681,-1.6652 1.4522 -2.8463c 0.1162,-0.2323 0.1549,-0.4260 0.1549 -0.6002c 0.0000,-0.1936 -0.1743,-0.7164 -0.3292 -1.1037l -2.4397,-5.6732 c -0.3098,-0.7358 -0.5228,-0.9488 -1.1811 -0.9488c -0.1162,-0.0000 -0.1936,-0.0581 -0.1936 -0.1355v -0.3872 l 0.0387,-0.0387 c 0.0000,-0.0000 0.8519,0.0387 1.4328 0.0387c 0.9100,-0.0000 2.3041,-0.0387 2.3041 -0.0387l 0.0387,0.0581 v 0.3485 ZM 156.5943,138.9552 ZM 159.4793,132.8754 v 4.8212 c 0.6777,0.7939 1.3166,0.8326 1.6264 0.8326c 2.0718,-0.0000 2.5365,-1.9362 2.5365 -3.6014c 0.0000,-2.3428 -0.9488,-3.6401 -2.1299 -3.6401c -0.6583,-0.0000 -1.6071,0.5615 -2.0330 1.5877ZM 159.4793,132.8754 ZM 158.0464,142.0144 v -9.5844 c 0.0000,-0.7358 -0.1743,-0.8713 -0.4453 -0.8713c -0.2517,-0.0000 -0.4841,0.0194 -0.8132 0.0968l -0.0968,-0.5421 c 1.2392,-0.2130 1.4715,-0.2904 2.0137 -0.5615c 0.2130,-0.0968 0.3485,-0.1549 0.4841 -0.1549h 0.2904 l -0.0581,1.5490 h 0.0581 c 0.8907,-1.3554 1.9362,-1.5490 2.5558 -1.5490c 1.8781,-0.0000 3.1173,1.9556 3.1173 4.0080c 0.0000,1.5684 -0.4841,2.7688 -1.3554 3.6595c -0.7551,0.7551 -1.5490,1.1230 -2.5752 1.1230c -0.6970,-0.0000 -1.2392,-0.1549 -1.7426 -0.4260v 3.2529 c 0.0000,0.5615 0.2130,0.8519 0.8326 0.8519h 0.3679 c 0.0968,-0.0000 0.1743,0.0581 0.1743 0.1549v 0.3679 l -0.0387,0.0387 c 0.0000,-0.0000 -1.3360,-0.0387 -2.0911 -0.0387c -0.6777,-0.0000 -1.9943,0.0387 -1.9943 0.0387l -0.0387,-0.0387 v -0.3679 c 0.0000,-0.0968 0.0581,-0.1549 0.1549 -0.1549h 0.3679 c 0.6390,-0.0000 0.8326,-0.2904 0.8326 -0.8519ZM 165.8688,138.9552 ZM 169.0249,125.4402 v 6.5638 c 1.2973,-1.2973 2.4397,-1.6071 3.1948 -1.6071c 1.3941,-0.0000 2.0911,1.0649 2.0911 3.0593v 4.1048 c 0.0000,0.5615 0.1936,0.8519 0.8326 0.8519h 0.3679 c 0.0774,-0.0000 0.1549,0.0581 0.1549 0.1549v 0.3679 l -0.0387,0.0387 c 0.0000,-0.0000 -1.3166,-0.0387 -2.0911 -0.0387c -0.6777,-0.0000 -1.9943,0.0387 -1.9943 0.0387l -0.0387,-0.0387 v -0.3679 c 0.0000,-0.0968 0.0581,-0.1549 0.1549 -0.1549h 0.3679 c 0.6583,-0.0000 0.8326,-0.2904 0.8326 -0.8519v -4.3178 c 0.0000,-1.5684 -0.4260,-1.9362 -1.5103 -1.9362c -0.5615,-0.0000 -1.3941,0.5034 -2.3235 1.4135v 4.8406 c 0.0000,0.5615 0.1936,0.8519 0.8326 0.8519h 0.3679 c 0.0774,-0.0000 0.1549,0.0581 0.1549 0.1549v 0.3679 l -0.0387,0.0387 c 0.0000,-0.0000 -1.3166,-0.0387 -2.0718 -0.0387c -0.6970,-0.0000 -1.9943,0.0387 -1.9943 0.0387l -0.0387,-0.0387 v -0.3679 c 0.0000,-0.0968 0.0387,-0.1549 0.1355 -0.1549h 0.3679 c 0.6583,-0.0000 0.8326,-0.2904 0.8326 -0.8519v -9.7005 c 0.0000,-1.1037 -0.1743,-1.4135 -0.5615 -1.4135l -0.6390,0.0774 c -0.0581,-0.0000 -0.0968,-0.0387 -0.0968 -0.0968l -0.0387,-0.4841 c 0.3098,-0.0000 1.0068,-0.1162 1.3360 -0.1743c 0.3485,-0.0774 0.6390,-0.1549 1.0262 -0.3292h 0.4260 ZM 175.8986,138.9552 ZM 181.4943,133.9984 h 3.3303 v 0.9488 h -3.3303 v 3.3497 h -0.9681 v -3.3497 h -3.3497 v -0.9488 h 3.3497 v -3.3691 h 0.9681 v 3.3691 ZM 186.1025,138.9552 ZM 187.9419,137.5611 v -9.7005 c 0.0000,-1.1037 -0.1936,-1.4135 -0.5809 -1.4135l -0.6196,0.0774 c -0.0581,-0.0000 -0.1162,-0.0387 -0.1162 -0.0968l -0.0387,-0.4841 c 0.3098,-0.0000 1.0262,-0.1162 1.3554 -0.1743c 0.3485,-0.0774 0.6196,-0.1549 1.0068 -0.3292h 0.4260 v 12.1208 c 0.0000,0.5615 0.2130,0.8519 0.8326 0.8519h 0.4647 c 0.0774,-0.0000 0.1549,0.0581 0.1549 0.1549v 0.3679 l -0.0387,0.0387 c 0.0000,-0.0000 -1.4135,-0.0387 -2.1686 -0.0387c -0.6777,-0.0000 -2.0911,0.0387 -2.0911 0.0387l -0.0194,-0.0387 v -0.3679 c 0.0000,-0.0968 0.0387,-0.1549 0.1355 -0.1549h 0.4647 c 0.6390,-0.0000 0.8326,-0.2904 0.8326 -0.8519ZM 191.1367,138.9552 ZM 192.6470,127.8992 c 0.0000,-0.5034 0.4066,-0.9294 0.9100 -0.9294c 0.5228,-0.0000 0.9294,0.4260 0.9294 0.9294c 0.0000,0.5228 -0.4066,0.9294 -0.9294 0.9294c -0.5034,-0.0000 -0.9100,-0.4066 -0.9100 -0.9294ZM 192.6470,127.8992 ZM 194.4864,137.5611 c 0.0000,0.5615 0.2130,0.8519 0.8326 0.8519h 0.3679 c 0.0968,-0.0000 0.1743,0.0581 0.1743 0.1549v 0.3679 l -0.0387,0.0387 c 0.0000,-0.0000 -1.3360,-0.0387 -2.0911 -0.0387c -0.6777,-0.0000 -1.9943,0.0387 -1.9943 0.0387l -0.0387,-0.0387 v -0.3679 c 0.0000,-0.0968 0.0581,-0.1549 0.1549 -0.1549h 0.3679 c 0.6390,-0.0000 0.8326,-0.2904 0.8326 -0.8519v -4.8212 c 0.0000,-1.0262 -0.1743,-1.1811 -0.4453 -1.1811c -0.2517,-0.0000 -0.4841,0.0194 -0.8132 0.0968l -0.0968,-0.5421 c 1.2392,-0.2130 1.4522,-0.2904 2.0137 -0.5615c 0.2130,-0.0774 0.3485,-0.1549 0.4841 -0.1549h 0.2904 v 7.1641 ZM 196.2484,138.9552 ZM 203.2963,137.5611 v -4.2404 c 0.0000,-1.3554 -0.2323,-1.9943 -1.2586 -1.9943c -0.8519,-0.0000 -1.5877,0.3292 -2.5752 1.4909v 4.7438 c 0.0000,0.5615 0.1936,0.8519 0.8326 0.8519h 0.2711 c 0.0968,-0.0000 0.1549,0.0581 0.1549 0.1549v 0.3679 l -0.0387,0.0387 c 0.0000,-0.0000 -1.2198,-0.0387 -1.9750 -0.0387c -0.6970,-0.0000 -2.0137,0.0387 -2.0137 0.0387l -0.0387,-0.0387 v -0.3679 c 0.0000,-0.0968 0.0581,-0.1549 0.1549 -0.1549h 0.3679 c 0.6583,-0.0000 0.8326,-0.2904 0.8326 -0.8519v -4.8212 c 0.0000,-1.0456 -0.1549,-1.1811 -0.4260 -1.1811c -0.2517,-0.0000 -0.4841,0.0194 -0.8132 0.0968l -0.0968,-0.5421 c 0.8132,-0.1355 1.3941,-0.2323 1.9943 -0.5615c 0.2130,-0.0968 0.3679,-0.1549 0.5034 -0.1549h 0.2904 l -0.0581,1.7233 h 0.0581 c 1.2392,-1.4522 2.1686,-1.7233 3.1561 -1.7233c 1.7426,-0.0000 2.1105,1.3360 2.1105 3.0593v 4.1048 c 0.0000,0.5615 0.2130,0.8519 0.8326 0.8519h 0.3679 c 0.0968,-0.0000 0.1743,0.0581 0.1743 0.1549v 0.3679 l -0.0387,0.0387 c 0.0000,-0.0000 -1.3360,-0.0387 -2.0911 -0.0387c -0.6777,-0.0000 -1.8975,0.0387 -1.8975 0.0387l -0.0387,-0.0387 v -0.3679 c 0.0000,-0.0968 0.0581,-0.1549 0.1549 -0.1549h 0.2711 c 0.6390,-0.0000 0.8326,-0.2904 0.8326 -0.8519ZM 206.3168,138.9552 ZM 208.5241,133.5918 h 3.5627 c 0.1936,-0.0000 0.2711,-0.0968 0.2711 -0.2711c 0.0000,-1.8007 -0.9100,-2.2654 -1.6071 -2.2654c -0.4453,-0.0000 -1.8975,0.1743 -2.2267 2.5365ZM 208.5241,133.5918 ZM 213.6358,137.1545 l 0.3872,0.3098 c -0.7358,1.0068 -1.8781,1.7233 -3.2722 1.7233c -2.6526,-0.0000 -3.7757,-1.9750 -3.7757 -4.0855c 0.0000,-2.9431 1.9362,-4.7051 3.7757 -4.7051c 2.5558,-0.0000 3.1561,1.9943 3.1561 3.6208c 0.0000,0.2130 -0.1355,0.3292 -0.3485 0.3292h -5.0923 c -0.0194,0.1162 -0.0194,0.2323 -0.0194 0.3872c 0.0000,1.9750 1.3747,3.5046 2.7688 3.5046c 1.0649,-0.0000 1.7426,-0.3485 2.4203 -1.0843Z"/></g><g stroke-linejoin="miter" stroke-opacity="0.5" fill-opacity="0.0" stroke="rgb(93,165,218)" stroke-width="5.31190431544029" fill="rgb(0,0,0)" stroke-linecap="butt" stroke-miterlimit="10.0"><path d="M 59.0411,138.9552 h 66.7172 "/></g><g stroke-linejoin="miter" stroke-opacity="0.5" fill-opacity="0.5" stroke="rgb(128,128,128)" stroke-width="3.9839282365802173" fill="rgb(93,165,218)" stroke-linecap="butt" stroke-miterlimit="10.0"><path d="M 102.4073,138.9552 c 0.0000,-5.5270 -4.4805,-10.0076 -10.0076 -10.0076c -5.5270,-0.0000 -10.0076,4.4805 -10.0076 10.0076c -0.0000,5.5270 4.4805,10.0076 10.0076 10.0076c 5.5270,0.0000 10.0076,-4.4805 10.0076 -10.0076Z"/></g><g stroke-linejoin="miter" stroke-opacity="1.0" fill-opacity="0.63" stroke="rgb(0,0,0)" fill-rule="evenodd" stroke-width="0.0" fill="rgb(0,0,0)" stroke-linecap="butt" stroke-miterlimit="10.0"><path d="M 107.4111,103.2980 ZM 109.1343,101.9039 v -4.8212 c 0.0000,-0.9681 -0.1355,-1.1811 -0.4260 -1.1811c -0.2517,-0.0000 -0.4841,0.0194 -0.8132 0.0968l -0.0968,-0.5421 c 1.2198,-0.2130 1.4328,-0.2711 2.0137 -0.5615c 0.1936,-0.0968 0.3485,-0.1549 0.4841 -0.1549h 0.2904 l -0.0581,1.7426 h 0.0581 c 0.5034,-0.7551 1.3554,-1.7426 2.2654 -1.7426c 0.7939,-0.0000 1.0843,0.3872 1.0843 0.8907c 0.0000,0.5034 -0.3292,0.8132 -0.8326 0.8132c -0.3872,-0.0000 -0.6002,-0.1549 -0.7939 -0.3485c -0.1162,-0.1162 -0.2517,-0.1743 -0.3872 -0.1743c -0.2130,-0.0000 -0.6390,0.3485 -1.1037 1.0068c -0.1355,0.1743 -0.2323,0.4260 -0.2323 0.6777v 4.2984 c 0.0000,0.5615 0.1936,0.8519 0.8326 0.8519h 0.5615 c 0.0968,-0.0000 0.1743,0.0581 0.1743 0.1549v 0.3679 l -0.0387,0.0387 c 0.0000,-0.0000 -1.5296,-0.0387 -2.2848 -0.0387c -0.6970,-0.0000 -2.0137,0.0387 -2.0137 0.0387l -0.0194,-0.0387 v -0.3679 c 0.0000,-0.0968 0.0387,-0.1549 0.1355 -0.1549h 0.3679 c 0.6583,-0.0000 0.8326,-0.2904 0.8326 -0.8519ZM 114.1298,103.2980 ZM 116.3371,97.9346 h 3.5627 c 0.1936,-0.0000 0.2711,-0.0968 0.2711 -0.2711c 0.0000,-1.8007 -0.9100,-2.2654 -1.6071 -2.2654c -0.4453,-0.0000 -1.8975,0.1743 -2.2267 2.5365ZM 116.3371,97.9346 ZM 121.4488,101.4973 l 0.3872,0.3098 c -0.7358,1.0068 -1.8781,1.7233 -3.2722 1.7233c -2.6526,-0.0000 -3.7757,-1.9750 -3.7757 -4.0855c 0.0000,-2.9431 1.9362,-4.7051 3.7757 -4.7051c 2.5558,-0.0000 3.1561,1.9943 3.1561 3.6208c 0.0000,0.2130 -0.1355,0.3292 -0.3485 0.3292h -5.0923 c -0.0194,0.1162 -0.0194,0.2323 -0.0194 0.3872c 0.0000,1.9750 1.3747,3.5046 2.7688 3.5046c 1.0649,-0.0000 1.7426,-0.3485 2.4203 -1.0843ZM 122.4169,103.2980 ZM 129.8521,101.5360 c -0.8519,1.4715 -1.7813,1.9943 -2.9431 1.9943c -2.3235,-0.0000 -3.7757,-1.7620 -3.7757 -4.2597c 0.0000,-2.7495 1.7233,-4.5308 3.8144 -4.5308c 1.8588,-0.0000 2.8463,0.9488 2.8463 1.9750c 0.0000,0.5615 -0.3485,0.8519 -0.7551 0.8519c -0.4066,-0.0000 -0.7939,-0.2130 -0.8519 -0.6970c -0.0774,-0.6390 -0.1936,-1.4715 -1.3360 -1.4715c -1.2779,-0.0000 -2.2267,1.3554 -2.2267 3.4465c 0.0000,2.2654 1.2198,3.8337 2.7107 3.8337c 0.8326,-0.0000 1.5684,-0.5421 2.1686 -1.4135ZM 130.2200,103.2980 ZM 133.3954,95.7273 v 4.9568 c 0.0000,1.2005 0.1162,1.7813 0.6390 1.7813c 0.5034,-0.0000 0.8907,-0.1549 1.3941 -0.5421l 0.3485,0.3292 c -0.7551,0.8519 -1.5296,1.2779 -2.4203 1.2779c -0.8907,-0.0000 -1.4135,-0.5421 -1.4135 -1.9169v -5.8862 h -1.2586 c -0.0581,-0.0000 -0.0774,-0.0194 -0.0774 -0.0774v -0.6002 c 0.0000,-0.0581 0.0194,-0.0774 0.0581 -0.0774c 1.2973,-0.0000 1.6071,-0.7551 1.6071 -2.2267v -0.3679 l 1.1230,-0.3872 v 2.9818 h 2.1299 c 0.0968,-0.0000 0.1549,0.0387 0.1549 0.1162v 0.3872 c 0.0000,0.1743 -0.2711,0.2517 -0.4647 0.2517h -1.8201 Z"/></g><g stroke-linejoin="miter" stroke-opacity="1.0" fill-opacity="0.5" stroke="rgb(102,102,102)" stroke-width="1.3279760788600725" fill="rgb(93,165,218)" stroke-linecap="butt" stroke-miterlimit="10.0"><path d="M 100.7394,111.6376 l -0.0000,-16.6793 h -16.6793 l -0.0000,16.6793 Z"/></g><g stroke-linejoin="miter" stroke-opacity="1.0" fill-opacity="0.63" stroke="rgb(0,0,0)" fill-rule="evenodd" stroke-width="0.0" fill="rgb(0,0,0)" stroke-linecap="butt" stroke-miterlimit="10.0"><path d="M 107.4111,67.6408 ZM 110.2961,61.5610 v 4.8212 c 0.6777,0.7939 1.3166,0.8326 1.6264 0.8326c 2.0718,-0.0000 2.5365,-1.9362 2.5365 -3.6014c 0.0000,-2.3428 -0.9488,-3.6401 -2.1299 -3.6401c -0.6583,-0.0000 -1.6071,0.5615 -2.0330 1.5877ZM 110.2961,61.5610 ZM 108.8633,70.7000 v -9.5844 c 0.0000,-0.7358 -0.1743,-0.8713 -0.4453 -0.8713c -0.2517,-0.0000 -0.4841,0.0194 -0.8132 0.0968l -0.0968,-0.5421 c 1.2392,-0.2130 1.4715,-0.2904 2.0137 -0.5615c 0.2130,-0.0968 0.3485,-0.1549 0.4841 -0.1549h 0.2904 l -0.0581,1.5490 h 0.0581 c 0.8907,-1.3554 1.9362,-1.5490 2.5558 -1.5490c 1.8781,-0.0000 3.1173,1.9556 3.1173 4.0080c 0.0000,1.5684 -0.4841,2.7688 -1.3554 3.6595c -0.7551,0.7551 -1.5490,1.1230 -2.5752 1.1230c -0.6970,-0.0000 -1.2392,-0.1549 -1.7426 -0.4260v 3.2529 c 0.0000,0.5615 0.2130,0.8519 0.8326 0.8519h 0.3679 c 0.0968,-0.0000 0.1743,0.0581 0.1743 0.1549v 0.3679 l -0.0387,0.0387 c 0.0000,-0.0000 -1.3360,-0.0387 -2.0911 -0.0387c -0.6777,-0.0000 -1.9943,0.0387 -1.9943 0.0387l -0.0387,-0.0387 v -0.3679 c 0.0000,-0.0968 0.0581,-0.1549 0.1549 -0.1549h 0.3679 c 0.6390,-0.0000 0.8326,-0.2904 0.8326 -0.8519ZM 116.6857,67.6408 ZM 118.1959,56.5849 c 0.0000,-0.5034 0.4066,-0.9294 0.9100 -0.9294c 0.5228,-0.0000 0.9294,0.4260 0.9294 0.9294c 0.0000,0.5228 -0.4066,0.9294 -0.9294 0.9294c -0.5034,-0.0000 -0.9100,-0.4066 -0.9100 -0.9294ZM 118.1959,56.5849 ZM 120.0354,66.2467 c 0.0000,0.5615 0.2130,0.8519 0.8326 0.8519h 0.3679 c 0.0968,-0.0000 0.1743,0.0581 0.1743 0.1549v 0.3679 l -0.0387,0.0387 c 0.0000,-0.0000 -1.3360,-0.0387 -2.0911 -0.0387c -0.6777,-0.0000 -1.9943,0.0387 -1.9943 0.0387l -0.0387,-0.0387 v -0.3679 c 0.0000,-0.0968 0.0581,-0.1549 0.1549 -0.1549h 0.3679 c 0.6390,-0.0000 0.8326,-0.2904 0.8326 -0.8519v -4.8212 c 0.0000,-1.0262 -0.1743,-1.1811 -0.4453 -1.1811c -0.2517,-0.0000 -0.4841,0.0194 -0.8132 0.0968l -0.0968,-0.5421 c 1.2392,-0.2130 1.4522,-0.2904 2.0137 -0.5615c 0.2130,-0.0774 0.3485,-0.1549 0.4841 -0.1549h 0.2904 v 7.1641 ZM 121.7973,67.6408 ZM 125.6117,59.8571 c -0.3872,-0.0000 -0.4647,0.0968 -0.4647 0.2323c 0.0000,0.0968 0.0774,0.2711 0.2904 0.6196l 1.1811,1.7426 c 0.0581,0.1162 0.1162,0.1743 0.1936 0.1743c 0.0581,-0.0000 0.0968,-0.0387 0.1743 -0.1355l 1.2586,-1.7620 c 0.2130,-0.2711 0.3292,-0.4841 0.3292 -0.6390c 0.0000,-0.1549 -0.1355,-0.2323 -0.4066 -0.2323h -0.3098 c -0.0581,-0.0000 -0.1162,-0.0387 -0.1162 -0.1355v -0.3679 l 0.0581,-0.0581 c 0.0000,-0.0000 0.9100,0.0387 1.5103 0.0387c 0.6196,-0.0000 1.5684,-0.0387 1.5684 -0.0387l 0.0194,0.0387 v 0.3679 c 0.0000,0.1355 -0.1162,0.1549 -0.2323 0.1549c -0.7164,-0.0000 -1.0068,0.2323 -1.7233 1.1424l -1.6264,2.0718 c -0.0387,0.0581 -0.0581,0.0968 -0.0581 0.1355c 0.0000,0.0387 0.0194,0.0968 0.0581 0.1549l 1.7426,2.4590 c 0.8907,1.2586 1.1424,1.2779 1.7620 1.2779c 0.1936,-0.0000 0.2711,0.0387 0.2711 0.1549v 0.3679 l -0.0194,0.0387 c 0.0000,-0.0000 -1.0456,-0.0387 -1.7039 -0.0387c -0.7939,-0.0000 -2.0137,0.0387 -2.0137 0.0387l -0.0387,-0.0387 v -0.3679 c 0.0000,-0.0968 0.0387,-0.1549 0.1355 -0.1549h 0.2323 c 0.3098,-0.0000 0.4453,-0.0581 0.4453 -0.2130c 0.0000,-0.1743 -0.2130,-0.4647 -0.5228 -0.8713l -1.1230,-1.5490 c -0.0774,-0.0968 -0.1162,-0.1355 -0.1743 -0.1355c -0.0387,-0.0000 -0.0968,0.0581 -0.1743 0.1743l -1.2198,1.7620 c -0.2904,0.3872 -0.3485,0.4841 -0.3485 0.6196c 0.0000,0.1355 0.1162,0.2130 0.4066 0.2130h 0.2711 c 0.0968,-0.0000 0.1355,0.0581 0.1355 0.1549v 0.3679 l -0.0387,0.0387 c 0.0000,-0.0000 -1.0068,-0.0387 -1.6264 -0.0387c -0.5615,-0.0000 -1.4522,0.0387 -1.4522 0.0387l -0.0387,-0.0387 v -0.3292 c 0.0000,-0.1162 0.0774,-0.1936 0.2517 -0.1936c 0.4647,-0.0000 0.9100,-0.0968 1.7233 -1.1424l 1.6264,-2.0911 c 0.0194,-0.0387 0.0387,-0.0774 0.0387 -0.1355c 0.0000,-0.0581 -0.0194,-0.0968 -0.0581 -0.1549l -1.6845,-2.4590 c -0.5421,-0.7939 -0.8907,-1.2586 -1.5684 -1.2586c -0.1355,-0.0000 -0.2711,-0.0581 -0.2711 -0.1355v -0.3679 l 0.0387,-0.0581 l 1.5296,0.0387 l 2.1492,-0.0387 l 0.0581,0.0581 v 0.3485 c 0.0000,0.0968 -0.0774,0.1549 -0.1549 0.1549h -0.2904 ZM 131.4204,67.6408 ZM 133.6277,62.2774 h 3.5627 c 0.1936,-0.0000 0.2711,-0.0968 0.2711 -0.2711c 0.0000,-1.8007 -0.9100,-2.2654 -1.6071 -2.2654c -0.4453,-0.0000 -1.8975,0.1743 -2.2267 2.5365ZM 133.6277,62.2774 ZM 138.7394,65.8401 l 0.3872,0.3098 c -0.7358,1.0068 -1.8781,1.7233 -3.2722 1.7233c -2.6526,-0.0000 -3.7757,-1.9750 -3.7757 -4.0855c 0.0000,-2.9431 1.9362,-4.7051 3.7757 -4.7051c 2.5558,-0.0000 3.1561,1.9943 3.1561 3.6208c 0.0000,0.2130 -0.1355,0.3292 -0.3485 0.3292h -5.0923 c -0.0194,0.1162 -0.0194,0.2323 -0.0194 0.3872c 0.0000,1.9750 1.3747,3.5046 2.7688 3.5046c 1.0649,-0.0000 1.7426,-0.3485 2.4203 -1.0843ZM 139.7075,67.6408 ZM 141.5469,66.2467 v -9.7005 c 0.0000,-1.1037 -0.1936,-1.4135 -0.5809 -1.4135l -0.6196,0.0774 c -0.0581,-0.0000 -0.1162,-0.0387 -0.1162 -0.0968l -0.0387,-0.4841 c 0.3098,-0.0000 1.0262,-0.1162 1.3554 -0.1743c 0.3485,-0.0774 0.6196,-0.1549 1.0068 -0.3292h 0.4260 v 12.1208 c 0.0000,0.5615 0.2130,0.8519 0.8326 0.8519h 0.4647 c 0.0774,-0.0000 0.1549,0.0581 0.1549 0.1549v 0.3679 l -0.0387,0.0387 c 0.0000,-0.0000 -1.4135,-0.0387 -2.1686 -0.0387c -0.6777,-0.0000 -2.0911,0.0387 -2.0911 0.0387l -0.0194,-0.0387 v -0.3679 c 0.0000,-0.0968 0.0387,-0.1549 0.1355 -0.1549h 0.4647 c 0.6390,-0.0000 0.8326,-0.2904 0.8326 -0.8519Z"/></g><g stroke-linejoin="miter" stroke-opacity="0.0" fill-opacity="0.5" stroke="rgb(0,0,0)" stroke-width="0.0" fill="rgb(93,165,218)" stroke-linecap="butt" stroke-miterlimit="10.0"><path d="M 100.7394,75.9804 l -0.0000,-16.6793 h -16.6793 l -0.0000,16.6793 Z"/></g><g stroke-linejoin="miter" stroke-opacity="1.0" fill-opacity="0.33" stroke="rgb(0,0,0)" fill-rule="evenodd" stroke-width="0.0" fill="rgb(0,0,0)" stroke-linecap="butt" stroke-miterlimit="10.0"><path d="M 63.4779,33.4192 ZM 65.5801,31.8259 v -11.0863 c 0.0000,-1.2613 -0.2213,-1.6154 -0.6639 -1.6154l -0.7081,0.0885 c -0.0664,-0.0000 -0.1328,-0.0443 -0.1328 -0.1106l -0.0443,-0.5532 c 0.3541,-0.0000 1.1728,-0.1328 1.5490 -0.1992c 0.3983,-0.0885 0.7081,-0.1770 1.1507 -0.3762h 0.4868 v 13.8524 c 0.0000,0.6417 0.2434,0.9737 0.9515 0.9737h 0.5311 c 0.0885,-0.0000 0.1770,0.0664 0.1770 0.1770v 0.4204 l -0.0443,0.0443 c 0.0000,-0.0000 -1.6154,-0.0443 -2.4784 -0.0443c -0.7745,-0.0000 -2.3899,0.0443 -2.3899 0.0443l -0.0221,-0.0443 v -0.4204 c 0.0000,-0.1106 0.0443,-0.1770 0.1549 -0.1770h 0.5311 c 0.7302,-0.0000 0.9515,-0.3319 0.9515 -0.9737ZM 69.2313,33.4192 ZM 71.7539,27.2896 h 4.0716 c 0.2213,-0.0000 0.3098,-0.1106 0.3098 -0.3098c 0.0000,-2.0579 -1.0400,-2.5890 -1.8367 -2.5890c -0.5090,-0.0000 -2.1686,0.1992 -2.5448 2.8988ZM 71.7539,27.2896 ZM 77.5958,31.3612 l 0.4426,0.3541 c -0.8409,1.1507 -2.1465,1.9694 -3.7397 1.9694c -3.0316,-0.0000 -4.3150,-2.2571 -4.3150 -4.6691c 0.0000,-3.3635 2.2128,-5.3772 4.3150 -5.3772c 2.9210,-0.0000 3.6069,2.2792 3.6069 4.1380c 0.0000,0.2434 -0.1549,0.3762 -0.3983 0.3762h -5.8198 c -0.0221,0.1328 -0.0221,0.2655 -0.0221 0.4426c 0.0000,2.2571 1.5711,4.0052 3.1644 4.0052c 1.2171,-0.0000 1.9916,-0.3983 2.7661 -1.2392ZM 78.7022,33.4192 ZM 85.6948,27.1568 c 0.0000,-1.8367 -0.8630,-2.8988 -2.1907 -2.8988c -1.1507,-0.0000 -1.9252,0.7966 -1.9252 2.5226c 0.0000,1.1507 0.4426,2.9652 2.2128 2.9652c 0.7745,-0.0000 1.9030,-0.3762 1.9030 -2.5890ZM 85.6948,27.1568 ZM 81.5568,33.5741 c -0.6860,0.6417 -0.8409,1.3277 -0.8409 2.0801c 0.0000,1.6596 1.9916,2.1465 2.7439 2.1465c 1.9030,-0.0000 4.3150,-0.6639 4.3150 -2.2571c 0.0000,-0.5753 -0.3098,-0.9515 -1.1728 -1.3720c -0.6196,-0.3098 -1.5269,-0.5532 -2.5890 -0.5532c -0.1770,-0.0000 -0.4204,0.0221 -0.7302 0.0443c -0.3098,0.0221 -0.6417,0.0221 -0.8851 0.0221c -0.3541,-0.0000 -0.5311,-0.0443 -0.8409 -0.1106ZM 81.5568,33.5741 ZM 88.2838,24.8333 c -0.3541,-0.0000 -0.5753,-0.1992 -0.6639 -0.3762c -0.1328,-0.1992 -0.2213,-0.2655 -0.3762 -0.2655c -0.2655,-0.0000 -0.6860,0.3098 -0.8409 0.5311c 0.6196,0.6639 0.9073,1.3056 0.9073 2.3456c 0.0000,2.1686 -1.7703,3.3414 -3.6291 3.3414c -0.8188,-0.0000 -1.4826,-0.1549 -1.9916 -0.4647c -0.2434,0.3762 -0.3762,0.8409 -0.3762 1.2834c 0.0000,0.9515 0.7302,1.1949 1.3498 1.1949c 0.1106,-0.0000 0.3762,-0.0221 0.6860 -0.0443c 0.5090,-0.0664 1.0622,-0.1106 1.4383 -0.1106c 0.7745,-0.0000 2.2350,0.1549 3.1201 0.9073c 0.5975,0.5532 0.9294,1.0843 0.9294 1.7924c 0.0000,2.3899 -3.1422,3.6512 -5.9968 3.6512c -1.6154,-0.0000 -3.4078,-0.5975 -3.4078 -2.5226c 0.0000,-0.9515 0.5975,-1.9694 1.7260 -2.6775c -0.5532,-0.2877 -0.9515,-0.8409 -0.9515 -1.6375c 0.0000,-0.7524 0.3319,-1.7039 0.9294 -2.2350c -0.5975,-0.5975 -1.1064,-1.3498 -1.1064 -2.5669c 0.0000,-2.0358 1.7924,-3.3414 3.6733 -3.3414c 1.2392,-0.0000 2.0137,0.5090 2.2571 0.6860c 0.5532,-0.7524 1.5490,-1.1285 2.1022 -1.1285c 0.5753,-0.0000 0.9737,0.3762 0.9737 0.8409c 0.0000,0.4868 -0.3098,0.7966 -0.7524 0.7966ZM 89.4124,33.4192 ZM 91.9350,27.2896 h 4.0716 c 0.2213,-0.0000 0.3098,-0.1106 0.3098 -0.3098c 0.0000,-2.0579 -1.0400,-2.5890 -1.8367 -2.5890c -0.5090,-0.0000 -2.1686,0.1992 -2.5448 2.8988ZM 91.9350,27.2896 ZM 97.7769,31.3612 l 0.4426,0.3541 c -0.8409,1.1507 -2.1465,1.9694 -3.7397 1.9694c -3.0316,-0.0000 -4.3150,-2.2571 -4.3150 -4.6691c 0.0000,-3.3635 2.2128,-5.3772 4.3150 -5.3772c 2.9210,-0.0000 3.6069,2.2792 3.6069 4.1380c 0.0000,0.2434 -0.1549,0.3762 -0.3983 0.3762h -5.8198 c -0.0221,0.1328 -0.0221,0.2655 -0.0221 0.4426c 0.0000,2.2571 1.5711,4.0052 3.1644 4.0052c 1.2171,-0.0000 1.9916,-0.3983 2.7661 -1.2392ZM 98.8833,33.4192 ZM 106.9381,31.8259 v -4.8461 c 0.0000,-1.5490 -0.2655,-2.2792 -1.4383 -2.2792c -0.9737,-0.0000 -1.8145,0.3762 -2.9431 1.7039v 5.4215 c 0.0000,0.6417 0.2213,0.9737 0.9515 0.9737h 0.3098 c 0.1106,-0.0000 0.1770,0.0664 0.1770 0.1770v 0.4204 l -0.0443,0.0443 c 0.0000,-0.0000 -1.3941,-0.0443 -2.2571 -0.0443c -0.7966,-0.0000 -2.3014,0.0443 -2.3014 0.0443l -0.0443,-0.0443 v -0.4204 c 0.0000,-0.1106 0.0664,-0.1770 0.1770 -0.1770h 0.4204 c 0.7524,-0.0000 0.9515,-0.3319 0.9515 -0.9737v -5.5100 c 0.0000,-1.1949 -0.1770,-1.3498 -0.4868 -1.3498c -0.2877,-0.0000 -0.5532,0.0221 -0.9294 0.1106l -0.1106,-0.6196 c 0.9294,-0.1549 1.5932,-0.2655 2.2792 -0.6417c 0.2434,-0.1106 0.4204,-0.1770 0.5753 -0.1770h 0.3319 l -0.0664,1.9694 h 0.0664 c 1.4162,-1.6596 2.4784,-1.9694 3.6069 -1.9694c 1.9916,-0.0000 2.4120,1.5269 2.4120 3.4963v 4.6912 c 0.0000,0.6417 0.2434,0.9737 0.9515 0.9737h 0.4204 c 0.1106,-0.0000 0.1992,0.0664 0.1992 0.1770v 0.4204 l -0.0443,0.0443 c 0.0000,-0.0000 -1.5269,-0.0443 -2.3899 -0.0443c -0.7745,-0.0000 -2.1686,0.0443 -2.1686 0.0443l -0.0443,-0.0443 v -0.4204 c 0.0000,-0.1106 0.0664,-0.1770 0.1770 -0.1770h 0.3098 c 0.7302,-0.0000 0.9515,-0.3319 0.9515 -0.9737ZM 110.3901,33.4192 ZM 117.7810,31.4497 v -5.7313 c -0.5311,-0.8409 -1.1285,-1.3056 -2.1686 -1.3056c -0.4426,-0.0000 -1.3498,0.0664 -2.0579 1.1064c -0.3098,0.4647 -0.6860,1.4162 -0.6860 3.0095c 0.0000,2.8988 1.5047,4.2265 2.6997 4.2265c 0.7302,-0.0000 1.3277,-0.4426 2.2128 -1.3056ZM 117.7810,31.4497 ZM 119.4406,17.9735 v 12.7902 c 0.0000,0.6639 0.0443,1.0179 0.0885 1.1728c 0.0664,0.1992 0.3098,0.3319 0.4868 0.3319c 0.2655,-0.0000 0.7524,-0.0000 1.0843 -0.0664l 0.0885,0.6196 c -1.2834,0.2213 -2.4341,0.4647 -2.8988 0.8630h -0.5311 l 0.0664,-1.5269 c -0.8409,0.8630 -1.7039,1.5269 -2.8324 1.5269c -2.3899,-0.0000 -3.8503,-2.0358 -3.8503 -4.7576c 0.0000,-1.6375 0.4426,-3.0095 1.3941 -3.9610c 0.8851,-0.8409 1.8588,-1.3277 3.3193 -1.3277c 0.4426,-0.0000 1.4162,0.1992 1.9252 0.4868v -3.3856 c 0.0000,-1.2613 -0.1992,-1.6154 -0.6417 -1.6154l -0.7302,0.0885 c -0.0443,-0.0000 -0.1106,-0.0443 -0.1106 -0.1106l -0.0443,-0.5532 c 0.3541,-0.0000 1.1507,-0.1328 1.5269 -0.1992c 0.4204,-0.0885 0.7302,-0.1770 1.1728 -0.3762h 0.4868 Z"/></g><g stroke-linejoin="miter" stroke-opacity="0.2" fill-opacity="0.0" stroke="rgb(0,0,0)" stroke-width="0.531190431544029" fill="rgb(0,0,0)" stroke-linecap="butt" stroke-miterlimit="10.0"><path d="M 267.5680,300.0000 l -0.0000,-300.0000 h -218.4568 l -0.0000,300.0000 Z"/></g></svg>