<?xml version="1.0" encoding="UTF-8"?>
<!DOCTYPE svg PUBLIC "-//W3C//DTD SVG 1.1//EN"
    "http://www.w3.org/Graphics/SVG/1.1/DTD/svg11.dtd"><svg xmlns="http://www.w3.org/2000/svg" height="300.0000" stroke-opacity="1" viewBox="0 0 300 300" font-size="1" width="300.0000" xmlns:xlink="http://www.w3.org/1999/xlink" stroke="rgb(0,0,0)" version="1.1"><defs></defs><g stroke-linejoin="miter" stroke-opacity="1.0" fill-opacity="0.63" stroke="rgb(0,0,0)" fill-rule="evenodd" stroke-width="0.0" fill="rgb(0,0,0)" stroke-linecap="butt" stroke-miterlimit="10.0"><path d="M 114.7247,280.1416 ZM 116.6192,278.7057 v -9.9912 c 0.0000,-1.1367 -0.1994,-1.4558 -0.5983 -1.4558l -0.6382,0.0798 c -0.0598,-0.0000 -0.1197,-0.0399 -0.1197 -0.0997l -0.0399,-0.4986 c 0.3191,-0.0000 1.0569,-0.1197 1.3960 -0.1795c 0.3590,-0.0798 0.6382,-0.1595 1.0370 -0.3390h 0.4387 v 12.4840 c 0.0000,0.5783 0.2194,0.8775 0.8575 0.8775h 0.4786 c 0.0798,-0.0000 0.1595,0.0598 0.1595 0.1595v 0.3789 l -0.0399,0.0399 c 0.0000,-0.0000 -1.4558,-0.0399 -2.2336 -0.0399c -0.6980,-0.0000 -2.1538,0.0399 -2.1538 0.0399l -0.0199,-0.0399 v -0.3789 c 0.0000,-0.0997 0.0399,-0.1595 0.1396 -0.1595h 0.4786 c 0.6581,-0.0000 0.8575,-0.2991 0.8575 -0.8775ZM 119.9097,280.1416 ZM 121.4652,268.7545 c 0.0000,-0.5185 0.4188,-0.9572 0.9373 -0.9572c 0.5384,-0.0000 0.9572,0.4387 0.9572 0.9572c 0.0000,0.5384 -0.4188,0.9572 -0.9572 0.9572c -0.5185,-0.0000 -0.9373,-0.4188 -0.9373 -0.9572ZM 121.4652,268.7545 ZM 123.3597,278.7057 c 0.0000,0.5783 0.2194,0.8775 0.8575 0.8775h 0.3789 c 0.0997,-0.0000 0.1795,0.0598 0.1795 0.1595v 0.3789 l -0.0399,0.0399 c 0.0000,-0.0000 -1.3760,-0.0399 -2.1538 -0.0399c -0.6980,-0.0000 -2.0541,0.0399 -2.0541 0.0399l -0.0399,-0.0399 v -0.3789 c 0.0000,-0.0997 0.0598,-0.1595 0.1595 -0.1595h 0.3789 c 0.6581,-0.0000 0.8575,-0.2991 0.8575 -0.8775v -4.9657 c 0.0000,-1.0569 -0.1795,-1.2165 -0.4587 -1.2165c -0.2593,-0.0000 -0.4986,0.0199 -0.8376 0.0997l -0.0997,-0.5584 c 1.2763,-0.2194 1.4957,-0.2991 2.0740 -0.5783c 0.2194,-0.0798 0.3590,-0.1595 0.4986 -0.1595h 0.2991 v 7.3787 ZM 125.1745,280.1416 ZM 132.4335,278.7057 v -4.3674 c 0.0000,-1.3960 -0.2393,-2.0541 -1.2963 -2.0541c -0.8775,-0.0000 -1.6353,0.3390 -2.6523 1.5356v 4.8859 c 0.0000,0.5783 0.1994,0.8775 0.8575 0.8775h 0.2792 c 0.0997,-0.0000 0.1595,0.0598 0.1595 0.1595v 0.3789 l -0.0399,0.0399 c 0.0000,-0.0000 -1.2564,-0.0399 -2.0341 -0.0399c -0.7179,-0.0000 -2.0740,0.0399 -2.0740 0.0399l -0.0399,-0.0399 v -0.3789 c 0.0000,-0.0997 0.0598,-0.1595 0.1595 -0.1595h 0.3789 c 0.6780,-0.0000 0.8575,-0.2991 0.8575 -0.8775v -4.9657 c 0.0000,-1.0769 -0.1595,-1.2165 -0.4387 -1.2165c -0.2593,-0.0000 -0.4986,0.0199 -0.8376 0.0997l -0.0997,-0.5584 c 0.8376,-0.1396 1.4359,-0.2393 2.0541 -0.5783c 0.2194,-0.0997 0.3789,-0.1595 0.5185 -0.1595h 0.2991 l -0.0598,1.7749 h 0.0598 c 1.2763,-1.4957 2.2336,-1.7749 3.2506 -1.7749c 1.7948,-0.0000 2.1737,1.3760 2.1737 3.1509v 4.2278 c 0.0000,0.5783 0.2194,0.8775 0.8575 0.8775h 0.3789 c 0.0997,-0.0000 0.1795,0.0598 0.1795 0.1595v 0.3789 l -0.0399,0.0399 c 0.0000,-0.0000 -1.3760,-0.0399 -2.1538 -0.0399c -0.6980,-0.0000 -1.9544,0.0399 -1.9544 0.0399l -0.0399,-0.0399 v -0.3789 c 0.0000,-0.0997 0.0598,-0.1595 0.1595 -0.1595h 0.2792 c 0.6581,-0.0000 0.8575,-0.2991 0.8575 -0.8775ZM 135.5446,280.1416 ZM 137.8180,274.6175 h 3.6694 c 0.1994,-0.0000 0.2792,-0.0997 0.2792 -0.2792c 0.0000,-1.8546 -0.9373,-2.3333 -1.6552 -2.3333c -0.4587,-0.0000 -1.9544,0.1795 -2.2934 2.6125ZM 137.8180,274.6175 ZM 143.0828,278.2869 l 0.3988,0.3191 c -0.7578,1.0370 -1.9344,1.7749 -3.3703 1.7749c -2.7321,-0.0000 -3.8888,-2.0341 -3.8888 -4.2079c 0.0000,-3.0313 1.9942,-4.8460 3.8888 -4.8460c 2.6324,-0.0000 3.2506,2.0541 3.2506 3.7292c 0.0000,0.2194 -0.1396,0.3390 -0.3590 0.3390h -5.2449 c -0.0199,0.1197 -0.0199,0.2393 -0.0199 0.3988c 0.0000,2.0341 1.4159,3.6096 2.8518 3.6096c 1.0968,-0.0000 1.7948,-0.3590 2.4928 -1.1168ZM 149.0656,280.1416 ZM 153.3731,269.2331 c -0.4986,-0.0000 -1.9544,0.2792 -1.9544 1.4957c 0.0000,0.3590 -0.1396,0.9772 -0.6780 0.9772c -0.5185,-0.0000 -0.5584,-0.5783 -0.5584 -0.6382c 0.0000,-0.6182 0.8176,-2.4529 3.5896 -2.4529c 1.9344,-0.0000 2.5127,1.2165 2.5127 2.0142c 0.0000,0.4986 -0.1595,1.4957 -1.9544 2.6324c 1.1168,0.1795 2.5925,0.9971 2.5925 3.0711c 0.0000,2.6324 -1.9942,4.0483 -4.2477 4.0483c -1.1367,-0.0000 -2.7321,-0.4986 -2.7321 -1.2564c 0.0000,-0.2991 0.2991,-0.6382 0.6980 -0.6382c 0.3789,-0.0000 0.5584,0.1994 0.7379 0.4587c 0.2194,0.3390 0.5783,0.8176 1.5356 0.8176c 0.6581,-0.0000 2.5327,-0.6581 2.5327 -3.1708c 0.0000,-2.1338 -1.4957,-2.4729 -2.5726 -2.4729c -0.1795,-0.0000 -0.3988,0.0399 -0.6182 0.0798l -0.0798,-0.5983 c 1.5356,-0.2593 2.8119,-1.7549 2.8119 -2.6723c 0.0000,-1.1367 -0.7977,-1.6951 -1.6153 -1.6951Z"/></g><g stroke-linejoin="miter" stroke-opacity="0.6" fill-opacity="0.0" stroke="rgb(44,160,44)" stroke-width="1.3477218685330004" fill="rgb(0,0,0)" stroke-linecap="butt" stroke-miterlimit="10.0"><path d="M 90.6741,280.1416 h 17.1790 "/></g><g stroke-linejoin="miter" stroke-opacity="1.0" fill-opacity="0.63" stroke="rgb(0,0,0)" fill-rule="evenodd" stroke-width="0.0" fill="rgb(0,0,0)" stroke-linecap="butt" stroke-miterlimit="10.0"><path d="M 114.7247,245.7836 ZM 126.7500,244.3477 v -4.5868 c 0.0000,-1.3361 -0.5185,-1.8347 -1.2763 -1.8347c -0.7778,-0.0000 -1.3960,0.3988 -2.3532 1.4558c 0.0399,0.2393 0.0399,0.5185 0.0399 0.7977v 4.1680 c 0.0000,0.5783 0.1994,0.8775 0.8575 0.8775h 0.3390 c 0.0997,-0.0000 0.1795,0.0598 0.1795 0.1595v 0.3789 l -0.0399,0.0399 c 0.0000,-0.0000 -1.3361,-0.0399 -2.1139 -0.0399c -0.7179,-0.0000 -2.0940,0.0399 -2.0940 0.0399l -0.0399,-0.0399 v -0.3789 c 0.0000,-0.0997 0.0598,-0.1595 0.1595 -0.1595h 0.3988 c 0.6780,-0.0000 0.8575,-0.2991 0.8575 -0.8775v -4.5469 c 0.0000,-1.3361 -0.5384,-1.8746 -1.2963 -1.8746c -0.6980,-0.0000 -1.3561,0.4986 -2.2934 1.4757v 4.9457 c 0.0000,0.5783 0.1994,0.8775 0.8575 0.8775h 0.3789 c 0.0798,-0.0000 0.1595,0.0598 0.1595 0.1595v 0.3789 l -0.0399,0.0399 c 0.0000,-0.0000 -1.3561,-0.0399 -2.1338 -0.0399c -0.7179,-0.0000 -2.0740,0.0399 -2.0740 0.0399l -0.0399,-0.0399 v -0.3789 c 0.0000,-0.0997 0.0598,-0.1595 0.1595 -0.1595h 0.3789 c 0.6780,-0.0000 0.8575,-0.2991 0.8575 -0.8775v -4.9657 c 0.0000,-1.1367 -0.1795,-1.2165 -0.4387 -1.2165c -0.2593,-0.0000 -0.4986,0.0199 -0.8376 0.0997l -0.0997,-0.5584 c 1.2564,-0.2194 1.5356,-0.2991 2.0740 -0.5783c 0.1994,-0.0997 0.3590,-0.1595 0.4986 -0.1595h 0.2991 l -0.0598,1.7350 h 0.0598 c 0.9373,-0.9971 1.7749,-1.7350 3.0113 -1.7350c 1.1168,-0.0000 1.8148,0.8176 1.9344 1.7151c 1.1567,-1.1965 2.0940,-1.7151 3.1708 -1.7151c 1.7549,-0.0000 2.0541,1.4558 2.0541 3.2307v 4.1480 c 0.0000,0.5783 0.1994,0.8775 0.8575 0.8775h 0.3789 c 0.0798,-0.0000 0.1595,0.0598 0.1595 0.1595v 0.3789 l -0.0399,0.0399 c 0.0000,-0.0000 -1.3561,-0.0399 -2.1338 -0.0399c -0.7179,-0.0000 -2.0740,0.0399 -2.0740 0.0399l -0.0399,-0.0399 v -0.3789 c 0.0000,-0.0997 0.0598,-0.1595 0.1595 -0.1595h 0.3789 c 0.6581,-0.0000 0.8575,-0.2991 0.8575 -0.8775ZM 129.8809,245.7836 ZM 138.4362,243.4703 c 0.0000,0.9971 0.0997,1.3162 0.4986 1.3162c 0.2393,-0.0000 0.6780,-0.0399 1.0171 -0.0997l 0.0798,0.5584 c -1.2165,0.2194 -2.1937,0.4188 -2.6523 0.7778h -0.4387 l 0.0598,-1.4757 h -0.0598 c -1.0968,1.1965 -1.9942,1.4757 -2.8119 1.4757c -1.9743,-0.0000 -2.4928,-1.3361 -2.4928 -2.7122v -4.5469 c 0.0000,-0.6581 -0.1396,-0.9971 -0.8775 -0.9971c -0.0798,-0.0000 -0.2194,0.0199 -0.3390 0.0199l -0.0598,-0.0199 v -0.5185 l 0.0598,-0.0598 c 0.0000,-0.0000 1.3561,0.0399 1.9942 0.0399c 0.2792,-0.0000 0.7379,-0.0399 0.7379 -0.0399l -0.0199,1.5954 v 4.2477 c 0.0000,1.7749 0.9174,2.0940 1.5156 2.0940c 0.4587,-0.0000 0.8775,-0.1795 1.2963 -0.4786c 0.4786,-0.3590 0.7977,-0.6382 0.9971 -0.8974v -4.9258 c 0.0000,-0.7179 -0.0997,-1.0569 -0.8376 -1.0569c -0.1197,-0.0000 -0.3390,0.0199 -0.3988 0.0199l -0.0399,-0.0399 v -0.4986 l 0.0399,-0.0598 c 0.0000,-0.0000 1.4159,0.0399 1.9743 0.0399c 0.4587,-0.0000 0.7778,-0.0399 0.7778 -0.0399l -0.0199,1.5755 v 4.7064 ZM 140.1912,245.7836 ZM 154.4899,244.3477 v -4.0683 c 0.0000,-1.6153 -0.4188,-2.3732 -1.3361 -2.3732c -0.5783,-0.0000 -1.4359,0.3390 -2.6125 1.4558v 4.9856 c 0.0000,0.5783 0.1994,0.8775 0.8575 0.8775h 0.3789 c 0.0798,-0.0000 0.1595,0.0598 0.1595 0.1595v 0.3789 l -0.0399,0.0399 c 0.0000,-0.0000 -1.3561,-0.0399 -2.1338 -0.0399c -0.7179,-0.0000 -1.5156,0.0399 -1.5156 0.0399l -0.0399,-0.0399 v -0.3789 c 0.0000,-0.0997 0.0598,-0.1595 0.1595 -0.1595h 0.0399 c 0.5185,-0.0000 0.6382,-0.2991 0.6382 -0.8775v -10.0909 c 0.0000,-0.9373 -0.1795,-1.3561 -0.5783 -1.3561l -0.6581,0.0798 c -0.0598,-0.0000 -0.0997,-0.0399 -0.0997 -0.0997l -0.0399,-0.4986 c 0.3191,-0.0000 1.0370,-0.1197 1.3760 -0.1795c 0.3590,-0.0798 0.6581,-0.1595 1.0569 -0.3390h 0.4387 v 6.7605 c 1.3361,-1.3361 2.7122,-1.6552 3.4899 -1.6552c 1.4558,-0.0000 1.9544,1.0968 1.9544 3.1509v 4.2278 c 0.0000,0.5783 0.1994,0.8775 0.8376 0.8775h 0.3988 c 0.0798,-0.0000 0.1595,0.0598 0.1595 0.1595v 0.3789 l -0.0399,0.0399 c 0.0000,-0.0000 -1.3561,-0.0399 -2.1538 -0.0399c -0.6980,-0.0000 -2.0541,0.0399 -2.0541 0.0399l -0.0399,-0.0399 v -0.3789 c 0.0000,-0.0997 0.0598,-0.1595 0.1595 -0.1595h 0.3789 c 0.6780,-0.0000 0.8575,-0.2991 0.8575 -0.8775ZM 154.4899,244.3477 ZM 147.6496,243.9090 c -0.8775,1.5156 -1.8347,2.0541 -3.0113 2.0541c -2.3931,-0.0000 -3.7093,-1.8347 -3.7093 -4.4073c 0.0000,-2.8318 1.5954,-4.6266 3.7292 -4.6266c 1.9145,-0.0000 2.9315,0.9772 2.9315 2.0341c 0.0000,0.5983 -0.3590,0.8775 -0.7578 0.8775c -0.4387,-0.0000 -0.8376,-0.2194 -0.8974 -0.6980c -0.0598,-0.6780 -0.1994,-1.5356 -1.3760 -1.5356c -1.3162,-0.0000 -2.0940,1.3561 -2.0940 3.5099c 0.0000,2.3333 1.0569,3.9685 2.6125 3.9685c 0.8575,-0.0000 1.5954,-0.5584 2.2136 -1.4558ZM 162.6065,245.7836 ZM 164.5010,244.3477 v -9.9912 c 0.0000,-1.1367 -0.1994,-1.4558 -0.5983 -1.4558l -0.6382,0.0798 c -0.0598,-0.0000 -0.1197,-0.0399 -0.1197 -0.0997l -0.0399,-0.4986 c 0.3191,-0.0000 1.0569,-0.1197 1.3960 -0.1795c 0.3590,-0.0798 0.6382,-0.1595 1.0370 -0.3390h 0.4387 v 12.4840 c 0.0000,0.5783 0.2194,0.8775 0.8575 0.8775h 0.4786 c 0.0798,-0.0000 0.1595,0.0598 0.1595 0.1595v 0.3789 l -0.0399,0.0399 c 0.0000,-0.0000 -1.4558,-0.0399 -2.2336 -0.0399c -0.6980,-0.0000 -2.1538,0.0399 -2.1538 0.0399l -0.0199,-0.0399 v -0.3789 c 0.0000,-0.0997 0.0399,-0.1595 0.1396 -0.1595h 0.4786 c 0.6581,-0.0000 0.8575,-0.2991 0.8575 -0.8775ZM 167.7915,245.7836 ZM 168.4696,241.6954 c 0.0000,-2.7321 1.4757,-4.7264 4.1281 -4.7264c 2.9515,-0.0000 4.0882,2.4729 4.0882 4.5469c 0.0000,1.9942 -1.2963,4.5070 -4.1281 4.5070c -2.6723,-0.0000 -4.0882,-2.2934 -4.0882 -4.3275ZM 168.4696,241.6954 ZM 172.3783,237.6271 c -1.5954,-0.0000 -2.3333,1.8746 -2.3333 3.6096c 0.0000,1.5356 0.8775,4.0882 2.8518 4.0882c 0.8974,-0.0000 2.2136,-0.5384 2.2136 -3.1708c 0.0000,-2.9315 -1.0968,-4.5269 -2.7321 -4.5269ZM 177.3440,245.7836 ZM 184.6030,244.3477 v -4.3674 c 0.0000,-1.3960 -0.2393,-2.0541 -1.2963 -2.0541c -0.8775,-0.0000 -1.6353,0.3390 -2.6523 1.5356v 4.8859 c 0.0000,0.5783 0.1994,0.8775 0.8575 0.8775h 0.2792 c 0.0997,-0.0000 0.1595,0.0598 0.1595 0.1595v 0.3789 l -0.0399,0.0399 c 0.0000,-0.0000 -1.2564,-0.0399 -2.0341 -0.0399c -0.7179,-0.0000 -2.0740,0.0399 -2.0740 0.0399l -0.0399,-0.0399 v -0.3789 c 0.0000,-0.0997 0.0598,-0.1595 0.1595 -0.1595h 0.3789 c 0.6780,-0.0000 0.8575,-0.2991 0.8575 -0.8775v -4.9657 c 0.0000,-1.0769 -0.1595,-1.2165 -0.4387 -1.2165c -0.2593,-0.0000 -0.4986,0.0199 -0.8376 0.0997l -0.0997,-0.5584 c 0.8376,-0.1396 1.4359,-0.2393 2.0541 -0.5783c 0.2194,-0.0997 0.3789,-0.1595 0.5185 -0.1595h 0.2991 l -0.0598,1.7749 h 0.0598 c 1.2763,-1.4957 2.2336,-1.7749 3.2506 -1.7749c 1.7948,-0.0000 2.1737,1.3760 2.1737 3.1509v 4.2278 c 0.0000,0.5783 0.2194,0.8775 0.8575 0.8775h 0.3789 c 0.0997,-0.0000 0.1795,0.0598 0.1795 0.1595v 0.3789 l -0.0399,0.0399 c 0.0000,-0.0000 -1.3760,-0.0399 -2.1538 -0.0399c -0.6980,-0.0000 -1.9544,0.0399 -1.9544 0.0399l -0.0399,-0.0399 v -0.3789 c 0.0000,-0.0997 0.0598,-0.1595 0.1595 -0.1595h 0.2792 c 0.6581,-0.0000 0.8575,-0.2991 0.8575 -0.8775ZM 187.7140,245.7836 ZM 194.0158,240.1399 c 0.0000,-1.6552 -0.7778,-2.6125 -1.9743 -2.6125c -1.0370,-0.0000 -1.7350,0.7179 -1.7350 2.2734c 0.0000,1.0370 0.3988,2.6723 1.9942 2.6723c 0.6980,-0.0000 1.7151,-0.3390 1.7151 -2.3333ZM 194.0158,240.1399 ZM 190.2866,245.9232 c -0.6182,0.5783 -0.7578,1.1965 -0.7578 1.8746c 0.0000,1.4957 1.7948,1.9344 2.4729 1.9344c 1.7151,-0.0000 3.8888,-0.5983 3.8888 -2.0341c 0.0000,-0.5185 -0.2792,-0.8575 -1.0569 -1.2364c -0.5584,-0.2792 -1.3760,-0.4986 -2.3333 -0.4986c -0.1595,-0.0000 -0.3789,0.0199 -0.6581 0.0399c -0.2792,0.0199 -0.5783,0.0199 -0.7977 0.0199c -0.3191,-0.0000 -0.4786,-0.0399 -0.7578 -0.0997ZM 190.2866,245.9232 ZM 196.3491,238.0459 c -0.3191,-0.0000 -0.5185,-0.1795 -0.5983 -0.3390c -0.1197,-0.1795 -0.1994,-0.2393 -0.3390 -0.2393c -0.2393,-0.0000 -0.6182,0.2792 -0.7578 0.4786c 0.5584,0.5983 0.8176,1.1766 0.8176 2.1139c 0.0000,1.9544 -1.5954,3.0113 -3.2706 3.0113c -0.7379,-0.0000 -1.3361,-0.1396 -1.7948 -0.4188c -0.2194,0.3390 -0.3390,0.7578 -0.3390 1.1567c 0.0000,0.8575 0.6581,1.0769 1.2165 1.0769c 0.0997,-0.0000 0.3390,-0.0199 0.6182 -0.0399c 0.4587,-0.0598 0.9572,-0.0997 1.2963 -0.0997c 0.6980,-0.0000 2.0142,0.1396 2.8119 0.8176c 0.5384,0.4986 0.8376,0.9772 0.8376 1.6153c 0.0000,2.1538 -2.8318,3.2905 -5.4044 3.2905c -1.4558,-0.0000 -3.0711,-0.5384 -3.0711 -2.2734c 0.0000,-0.8575 0.5384,-1.7749 1.5555 -2.4130c -0.4986,-0.2593 -0.8575,-0.7578 -0.8575 -1.4757c 0.0000,-0.6780 0.2991,-1.5356 0.8376 -2.0142c -0.5384,-0.5384 -0.9971,-1.2165 -0.9971 -2.3133c 0.0000,-1.8347 1.6153,-3.0113 3.3104 -3.0113c 1.1168,-0.0000 1.8148,0.4587 2.0341 0.6182c 0.4986,-0.6780 1.3960,-1.0171 1.8945 -1.0171c 0.5185,-0.0000 0.8775,0.3390 0.8775 0.7578c 0.0000,0.4387 -0.2792,0.7179 -0.6780 0.7179ZM 197.3662,245.7836 ZM 199.6396,240.2595 h 3.6694 c 0.1994,-0.0000 0.2792,-0.0997 0.2792 -0.2792c 0.0000,-1.8546 -0.9373,-2.3333 -1.6552 -2.3333c -0.4587,-0.0000 -1.9544,0.1795 -2.2934 2.6125ZM 199.6396,240.2595 ZM 204.9044,243.9289 l 0.3988,0.3191 c -0.7578,1.0370 -1.9344,1.7749 -3.3703 1.7749c -2.7321,-0.0000 -3.8888,-2.0341 -3.8888 -4.2079c 0.0000,-3.0313 1.9942,-4.8460 3.8888 -4.8460c 2.6324,-0.0000 3.2506,2.0541 3.2506 3.7292c 0.0000,0.2194 -0.1396,0.3390 -0.3590 0.3390h -5.2449 c -0.0199,0.1197 -0.0199,0.2393 -0.0199 0.3988c 0.0000,2.0341 1.4159,3.6096 2.8518 3.6096c 1.0968,-0.0000 1.7948,-0.3590 2.4928 -1.1168ZM 205.9015,245.7836 ZM 207.6764,244.3477 v -4.9657 c 0.0000,-0.9971 -0.1396,-1.2165 -0.4387 -1.2165c -0.2593,-0.0000 -0.4986,0.0199 -0.8376 0.0997l -0.0997,-0.5584 c 1.2564,-0.2194 1.4757,-0.2792 2.0740 -0.5783c 0.1994,-0.0997 0.3590,-0.1595 0.4986 -0.1595h 0.2991 l -0.0598,1.7948 h 0.0598 c 0.5185,-0.7778 1.3960,-1.7948 2.3333 -1.7948c 0.8176,-0.0000 1.1168,0.3988 1.1168 0.9174c 0.0000,0.5185 -0.3390,0.8376 -0.8575 0.8376c -0.3988,-0.0000 -0.6182,-0.1595 -0.8176 -0.3590c -0.1197,-0.1197 -0.2593,-0.1795 -0.3988 -0.1795c -0.2194,-0.0000 -0.6581,0.3590 -1.1367 1.0370c -0.1396,0.1795 -0.2393,0.4387 -0.2393 0.6980v 4.4272 c 0.0000,0.5783 0.1994,0.8775 0.8575 0.8775h 0.5783 c 0.0997,-0.0000 0.1795,0.0598 0.1795 0.1595v 0.3789 l -0.0399,0.0399 c 0.0000,-0.0000 -1.5755,-0.0399 -2.3532 -0.0399c -0.7179,-0.0000 -2.0740,0.0399 -2.0740 0.0399l -0.0199,-0.0399 v -0.3789 c 0.0000,-0.0997 0.0399,-0.1595 0.1396 -0.1595h 0.3789 c 0.6780,-0.0000 0.8575,-0.2991 0.8575 -0.8775ZM 217.8072,245.7836 ZM 225.0662,244.3477 v -4.3674 c 0.0000,-1.3960 -0.2393,-2.0541 -1.2963 -2.0541c -0.8775,-0.0000 -1.6353,0.3390 -2.6523 1.5356v 4.8859 c 0.0000,0.5783 0.1994,0.8775 0.8575 0.8775h 0.2792 c 0.0997,-0.0000 0.1595,0.0598 0.1595 0.1595v 0.3789 l -0.0399,0.0399 c 0.0000,-0.0000 -1.2564,-0.0399 -2.0341 -0.0399c -0.7179,-0.0000 -2.0740,0.0399 -2.0740 0.0399l -0.0399,-0.0399 v -0.3789 c 0.0000,-0.0997 0.0598,-0.1595 0.1595 -0.1595h 0.3789 c 0.6780,-0.0000 0.8575,-0.2991 0.8575 -0.8775v -4.9657 c 0.0000,-1.0769 -0.1595,-1.2165 -0.4387 -1.2165c -0.2593,-0.0000 -0.4986,0.0199 -0.8376 0.0997l -0.0997,-0.5584 c 0.8376,-0.1396 1.4359,-0.2393 2.0541 -0.5783c 0.2194,-0.0997 0.3789,-0.1595 0.5185 -0.1595h 0.2991 l -0.0598,1.7749 h 0.0598 c 1.2763,-1.4957 2.2336,-1.7749 3.2506 -1.7749c 1.7948,-0.0000 2.1737,1.3760 2.1737 3.1509v 4.2278 c 0.0000,0.5783 0.2194,0.8775 0.8575 0.8775h 0.3789 c 0.0997,-0.0000 0.1795,0.0598 0.1795 0.1595v 0.3789 l -0.0399,0.0399 c 0.0000,-0.0000 -1.3760,-0.0399 -2.1538 -0.0399c -0.6980,-0.0000 -1.9544,0.0399 -1.9544 0.0399l -0.0399,-0.0399 v -0.3789 c 0.0000,-0.0997 0.0598,-0.1595 0.1595 -0.1595h 0.2792 c 0.6581,-0.0000 0.8575,-0.2991 0.8575 -0.8775ZM 228.1773,245.7836 ZM 233.9805,240.8977 l -1.5755,0.3988 c -1.7549,0.5384 -2.0142,1.4558 -2.0142 2.3532c 0.0000,0.6182 0.2991,1.5555 1.5555 1.5555c 0.5983,-0.0000 1.5156,-0.5783 2.0341 -1.0171v -3.2905 ZM 233.9805,240.8977 ZM 235.2568,246.0229 c -0.7578,-0.0000 -1.1766,-0.6780 -1.2564 -1.1567l -0.4587,0.3191 c -0.9174,0.6382 -1.2564,0.8376 -2.1737 0.8376c -1.3960,-0.0000 -2.4130,-0.7977 -2.4130 -2.2934c 0.0000,-1.5156 1.2963,-2.5526 3.1908 -3.0313l 1.8347,-0.4587 c 0.0000,-2.2535 -1.0370,-2.6723 -1.7151 -2.6723c -0.7578,-0.0000 -1.6353,0.3390 -1.6353 0.9572c 0.0000,0.2194 0.0399,0.3390 0.0598 0.3988c 0.0399,0.0798 0.0598,0.2194 0.0598 0.3590c 0.0000,0.2593 -0.1994,0.6581 -0.7778 0.6581c -0.4786,-0.0000 -0.7977,-0.3191 -0.7977 -0.7977c 0.0000,-1.1567 1.8746,-2.1737 3.1509 -2.1737c 1.4558,-0.0000 3.1310,0.5983 3.1310 3.4301v 2.9315 c 0.0000,1.2165 0.0199,1.7350 0.4786 1.7350c 0.4387,-0.0000 0.5584,-0.5584 0.5783 -0.9971l 0.4986,0.0997 c -0.1197,1.4558 -0.7379,1.8546 -1.7549 1.8546ZM 237.1713,245.7836 ZM 249.1966,244.3477 v -4.5868 c 0.0000,-1.3361 -0.5185,-1.8347 -1.2763 -1.8347c -0.7778,-0.0000 -1.3960,0.3988 -2.3532 1.4558c 0.0399,0.2393 0.0399,0.5185 0.0399 0.7977v 4.1680 c 0.0000,0.5783 0.1994,0.8775 0.8575 0.8775h 0.3390 c 0.0997,-0.0000 0.1795,0.0598 0.1795 0.1595v 0.3789 l -0.0399,0.0399 c 0.0000,-0.0000 -1.3361,-0.0399 -2.1139 -0.0399c -0.7179,-0.0000 -2.0940,0.0399 -2.0940 0.0399l -0.0399,-0.0399 v -0.3789 c 0.0000,-0.0997 0.0598,-0.1595 0.1595 -0.1595h 0.3988 c 0.6780,-0.0000 0.8575,-0.2991 0.8575 -0.8775v -4.5469 c 0.0000,-1.3361 -0.5384,-1.8746 -1.2963 -1.8746c -0.6980,-0.0000 -1.3561,0.4986 -2.2934 1.4757v 4.9457 c 0.0000,0.5783 0.1994,0.8775 0.8575 0.8775h 0.3789 c 0.0798,-0.0000 0.1595,0.0598 0.1595 0.1595v 0.3789 l -0.0399,0.0399 c 0.0000,-0.0000 -1.3561,-0.0399 -2.1338 -0.0399c -0.7179,-0.0000 -2.0740,0.0399 -2.0740 0.0399l -0.0399,-0.0399 v -0.3789 c 0.0000,-0.0997 0.0598,-0.1595 0.1595 -0.1595h 0.3789 c 0.6780,-0.0000 0.8575,-0.2991 0.8575 -0.8775v -4.9657 c 0.0000,-1.1367 -0.1795,-1.2165 -0.4387 -1.2165c -0.2593,-0.0000 -0.4986,0.0199 -0.8376 0.0997l -0.0997,-0.5584 c 1.2564,-0.2194 1.5356,-0.2991 2.0740 -0.5783c 0.1994,-0.0997 0.3590,-0.1595 0.4986 -0.1595h 0.2991 l -0.0598,1.7350 h 0.0598 c 0.9373,-0.9971 1.7749,-1.7350 3.0113 -1.7350c 1.1168,-0.0000 1.8148,0.8176 1.9344 1.7151c 1.1567,-1.1965 2.0940,-1.7151 3.1708 -1.7151c 1.7549,-0.0000 2.0541,1.4558 2.0541 3.2307v 4.1480 c 0.0000,0.5783 0.1994,0.8775 0.8575 0.8775h 0.3789 c 0.0798,-0.0000 0.1595,0.0598 0.1595 0.1595v 0.3789 l -0.0399,0.0399 c 0.0000,-0.0000 -1.3561,-0.0399 -2.1338 -0.0399c -0.7179,-0.0000 -2.0740,0.0399 -2.0740 0.0399l -0.0399,-0.0399 v -0.3789 c 0.0000,-0.0997 0.0598,-0.1595 0.1595 -0.1595h 0.3789 c 0.6581,-0.0000 0.8575,-0.2991 0.8575 -0.8775ZM 252.3276,245.7836 ZM 254.6010,240.2595 h 3.6694 c 0.1994,-0.0000 0.2792,-0.0997 0.2792 -0.2792c 0.0000,-1.8546 -0.9373,-2.3333 -1.6552 -2.3333c -0.4587,-0.0000 -1.9544,0.1795 -2.2934 2.6125ZM 254.6010,240.2595 ZM 259.8658,243.9289 l 0.3988,0.3191 c -0.7578,1.0370 -1.9344,1.7749 -3.3703 1.7749c -2.7321,-0.0000 -3.8888,-2.0341 -3.8888 -4.2079c 0.0000,-3.0313 1.9942,-4.8460 3.8888 -4.8460c 2.6324,-0.0000 3.2506,2.0541 3.2506 3.7292c 0.0000,0.2194 -0.1396,0.3390 -0.3590 0.3390h -5.2449 c -0.0199,0.1197 -0.0199,0.2393 -0.0199 0.3988c 0.0000,2.0341 1.4159,3.6096 2.8518 3.6096c 1.0968,-0.0000 1.7948,-0.3590 2.4928 -1.1168Z"/></g><g stroke-linejoin="miter" stroke-opacity="0.6" fill-opacity="0.0" stroke="rgb(255,127,14)" stroke-width="5.390887474132001" fill="rgb(0,0,0)" stroke-linecap="butt" stroke-miterlimit="10.0"><path d="M 90.6741,245.7836 h 17.1790 "/></g><g stroke-linejoin="miter" stroke-opacity="1.0" fill-opacity="0.63" stroke="rgb(0,0,0)" fill-rule="evenodd" stroke-width="0.0" fill="rgb(0,0,0)" stroke-linecap="butt" stroke-miterlimit="10.0"><path d="M 114.7247,211.4256 ZM 115.5822,208.6337 l 0.5384,-0.0199 c 0.0598,0.4986 0.2792,1.4558 0.7179 1.9145c 0.1994,0.2194 0.7379,0.5783 1.4757 0.5783c 0.6980,-0.0000 1.7350,-0.5584 1.7350 -1.5356c 0.0000,-0.8575 -0.4786,-1.4359 -2.0541 -2.1139c -1.4558,-0.6382 -2.2136,-1.0569 -2.2136 -2.5526c 0.0000,-1.3361 1.1766,-2.2934 2.7521 -2.2934c 0.9971,-0.0000 1.7350,0.1795 2.3532 0.4986c 0.1197,0.6382 0.1795,1.3162 0.2194 2.0341l -0.5384,0.0199 c -0.4188,-1.6353 -1.6153,-1.9544 -2.0341 -1.9544c -0.7578,-0.0000 -1.5356,0.2991 -1.5356 1.3960c 0.0000,0.7977 0.3789,1.1965 1.4757 1.5954c 1.6153,0.5983 2.9116,1.3162 2.9116 2.9116c 0.0000,1.9743 -2.0940,2.5526 -3.0313 2.5526c -0.6980,-0.0000 -1.2763,-0.0798 -1.7948 -0.2194c -0.1396,-0.0199 -0.2393,-0.0399 -0.3789 -0.0399c -0.0997,-0.0000 -0.2593,0.0199 -0.4587 0.0598c 0.0000,-0.8376 -0.0598,-1.8546 -0.1396 -2.8318ZM 122.1233,211.4256 ZM 125.3739,197.5058 v 6.7605 c 1.3361,-1.3361 2.5127,-1.6552 3.2905 -1.6552c 1.4359,-0.0000 2.1538,1.0968 2.1538 3.1509v 4.2278 c 0.0000,0.5783 0.1994,0.8775 0.8575 0.8775h 0.3789 c 0.0798,-0.0000 0.1595,0.0598 0.1595 0.1595v 0.3789 l -0.0399,0.0399 c 0.0000,-0.0000 -1.3561,-0.0399 -2.1538 -0.0399c -0.6980,-0.0000 -2.0541,0.0399 -2.0541 0.0399l -0.0399,-0.0399 v -0.3789 c 0.0000,-0.0997 0.0598,-0.1595 0.1595 -0.1595h 0.3789 c 0.6780,-0.0000 0.8575,-0.2991 0.8575 -0.8775v -4.4472 c 0.0000,-1.6153 -0.4387,-1.9942 -1.5555 -1.9942c -0.5783,-0.0000 -1.4359,0.5185 -2.3931 1.4558v 4.9856 c 0.0000,0.5783 0.1994,0.8775 0.8575 0.8775h 0.3789 c 0.0798,-0.0000 0.1595,0.0598 0.1595 0.1595v 0.3789 l -0.0399,0.0399 c 0.0000,-0.0000 -1.3561,-0.0399 -2.1338 -0.0399c -0.7179,-0.0000 -2.0541,0.0399 -2.0541 0.0399l -0.0399,-0.0399 v -0.3789 c 0.0000,-0.0997 0.0399,-0.1595 0.1396 -0.1595h 0.3789 c 0.6780,-0.0000 0.8575,-0.2991 0.8575 -0.8775v -9.9912 c 0.0000,-1.1367 -0.1795,-1.4558 -0.5783 -1.4558l -0.6581,0.0798 c -0.0598,-0.0000 -0.0997,-0.0399 -0.0997 -0.0997l -0.0399,-0.4986 c 0.3191,-0.0000 1.0370,-0.1197 1.3760 -0.1795c 0.3590,-0.0798 0.6581,-0.1595 1.0569 -0.3390h 0.4387 ZM 132.4535,211.4256 ZM 133.1315,207.3374 c 0.0000,-2.7321 1.4757,-4.7264 4.1281 -4.7264c 2.9515,-0.0000 4.0882,2.4729 4.0882 4.5469c 0.0000,1.9942 -1.2963,4.5070 -4.1281 4.5070c -2.6723,-0.0000 -4.0882,-2.2934 -4.0882 -4.3275ZM 133.1315,207.3374 ZM 137.0403,203.2691 c -1.5954,-0.0000 -2.3333,1.8746 -2.3333 3.6096c 0.0000,1.5356 0.8775,4.0882 2.8518 4.0882c 0.8974,-0.0000 2.2136,-0.5384 2.2136 -3.1708c 0.0000,-2.9315 -1.0968,-4.5269 -2.7321 -4.5269ZM 142.0059,211.4256 ZM 143.7808,209.9897 v -4.9657 c 0.0000,-0.9971 -0.1396,-1.2165 -0.4387 -1.2165c -0.2593,-0.0000 -0.4986,0.0199 -0.8376 0.0997l -0.0997,-0.5584 c 1.2564,-0.2194 1.4757,-0.2792 2.0740 -0.5783c 0.1994,-0.0997 0.3590,-0.1595 0.4986 -0.1595h 0.2991 l -0.0598,1.7948 h 0.0598 c 0.5185,-0.7778 1.3960,-1.7948 2.3333 -1.7948c 0.8176,-0.0000 1.1168,0.3988 1.1168 0.9174c 0.0000,0.5185 -0.3390,0.8376 -0.8575 0.8376c -0.3988,-0.0000 -0.6182,-0.1595 -0.8176 -0.3590c -0.1197,-0.1197 -0.2593,-0.1795 -0.3988 -0.1795c -0.2194,-0.0000 -0.6581,0.3590 -1.1367 1.0370c -0.1396,0.1795 -0.2393,0.4387 -0.2393 0.6980v 4.4272 c 0.0000,0.5783 0.1994,0.8775 0.8575 0.8775h 0.5783 c 0.0997,-0.0000 0.1795,0.0598 0.1795 0.1595v 0.3789 l -0.0399,0.0399 c 0.0000,-0.0000 -1.5755,-0.0399 -2.3532 -0.0399c -0.7179,-0.0000 -2.0740,0.0399 -2.0740 0.0399l -0.0199,-0.0399 v -0.3789 c 0.0000,-0.0997 0.0399,-0.1595 0.1396 -0.1595h 0.3789 c 0.6780,-0.0000 0.8575,-0.2991 0.8575 -0.8775ZM 148.9260,211.4256 ZM 152.1965,203.6281 v 5.1053 c 0.0000,1.2364 0.1197,1.8347 0.6581 1.8347c 0.5185,-0.0000 0.9174,-0.1595 1.4359 -0.5584l 0.3590,0.3390 c -0.7778,0.8775 -1.5755,1.3162 -2.4928 1.3162c -0.9174,-0.0000 -1.4558,-0.5584 -1.4558 -1.9743v -6.0625 h -1.2963 c -0.0598,-0.0000 -0.0798,-0.0199 -0.0798 -0.0798v -0.6182 c 0.0000,-0.0598 0.0199,-0.0798 0.0598 -0.0798c 1.3361,-0.0000 1.6552,-0.7778 1.6552 -2.2934v -0.3789 l 1.1567,-0.3988 v 3.0711 h 2.1937 c 0.0997,-0.0000 0.1595,0.0399 0.1595 0.1197v 0.3988 c 0.0000,0.1795 -0.2792,0.2593 -0.4786 0.2593h -1.8746 Z"/></g><g stroke-linejoin="miter" stroke-opacity="0.6" fill-opacity="0.0" stroke="rgb(31,119,180)" stroke-width="2.6954437370660007" fill="rgb(0,0,0)" stroke-linecap="butt" stroke-miterlimit="10.0"><path d="M 90.6741,211.4256 h 17.1790 "/></g><g stroke-linejoin="miter" stroke-opacity="1.0" fill-opacity="0.63" stroke="rgb(0,0,0)" fill-rule="evenodd" stroke-width="0.0" fill="rgb(0,0,0)" stroke-linecap="butt" stroke-miterlimit="10.0"><path d="M 102.6994,177.0676 ZM 104.7734,165.6805 c 0.0000,-0.5185 0.4188,-0.9572 0.9572 -0.9572c 0.5185,-0.0000 0.9572,0.4387 0.9572 0.9572c 0.0000,0.5384 -0.4387,0.9572 -0.9572 0.9572c -0.5384,-0.0000 -0.9572,-0.4188 -0.9572 -0.9572ZM 104.7734,165.6805 ZM 103.7164,180.9364 c 0.8775,-0.0000 1.4757,-1.5755 1.4757 -4.3873v -5.8830 c 0.0000,-1.0569 -0.1795,-1.2165 -0.4387 -1.2165c -0.2792,-0.0000 -0.4986,0.0199 -0.8376 0.0997l -0.0997,-0.5584 c 1.4558,-0.2393 1.8945,-0.4786 2.1538 -0.6182c 0.1396,-0.0598 0.2194,-0.1197 0.4188 -0.1197h 0.2991 v 7.6778 c 0.0000,2.6125 -0.1994,3.7093 -1.2963 4.8261c -0.5384,0.5185 -1.1168,0.7578 -1.5954 0.7578c -0.8176,-0.0000 -1.8746,-0.4188 -1.8746 -1.0171c 0.0000,-0.4986 0.2991,-0.7578 0.6382 -0.7578c 0.4786,-0.0000 0.7379,0.4587 0.8376 0.8775c 0.0598,0.1994 0.1595,0.3191 0.3191 0.3191ZM 108.2234,177.0676 ZM 116.7787,174.7543 c 0.0000,0.9971 0.0997,1.3162 0.4986 1.3162c 0.2393,-0.0000 0.6780,-0.0399 1.0171 -0.0997l 0.0798,0.5584 c -1.2165,0.2194 -2.1937,0.4188 -2.6523 0.7778h -0.4387 l 0.0598,-1.4757 h -0.0598 c -1.0968,1.1965 -1.9942,1.4757 -2.8119 1.4757c -1.9743,-0.0000 -2.4928,-1.3361 -2.4928 -2.7122v -4.5469 c 0.0000,-0.6581 -0.1396,-0.9971 -0.8775 -0.9971c -0.0798,-0.0000 -0.2194,0.0199 -0.3390 0.0199l -0.0598,-0.0199 v -0.5185 l 0.0598,-0.0598 c 0.0000,-0.0000 1.3561,0.0399 1.9942 0.0399c 0.2792,-0.0000 0.7379,-0.0399 0.7379 -0.0399l -0.0199,1.5954 v 4.2477 c 0.0000,1.7749 0.9174,2.0940 1.5156 2.0940c 0.4587,-0.0000 0.8775,-0.1795 1.2963 -0.4786c 0.4786,-0.3590 0.7977,-0.6382 0.9971 -0.8974v -4.9258 c 0.0000,-0.7179 -0.0997,-1.0569 -0.8376 -1.0569c -0.1197,-0.0000 -0.3390,0.0199 -0.3988 0.0199l -0.0399,-0.0399 v -0.4986 l 0.0399,-0.0598 c 0.0000,-0.0000 1.4159,0.0399 1.9743 0.0399c 0.4587,-0.0000 0.7778,-0.0399 0.7778 -0.0399l -0.0199,1.5755 v 4.7064 ZM 118.5337,177.0676 ZM 119.3912,174.2757 l 0.5384,-0.0199 c 0.0598,0.4986 0.2792,1.4558 0.7179 1.9145c 0.1994,0.2194 0.7379,0.5783 1.4757 0.5783c 0.6980,-0.0000 1.7350,-0.5584 1.7350 -1.5356c 0.0000,-0.8575 -0.4786,-1.4359 -2.0541 -2.1139c -1.4558,-0.6382 -2.2136,-1.0569 -2.2136 -2.5526c 0.0000,-1.3361 1.1766,-2.2934 2.7521 -2.2934c 0.9971,-0.0000 1.7350,0.1795 2.3532 0.4986c 0.1197,0.6382 0.1795,1.3162 0.2194 2.0341l -0.5384,0.0199 c -0.4188,-1.6353 -1.6153,-1.9544 -2.0341 -1.9544c -0.7578,-0.0000 -1.5356,0.2991 -1.5356 1.3960c 0.0000,0.7977 0.3789,1.1965 1.4757 1.5954c 1.6153,0.5983 2.9116,1.3162 2.9116 2.9116c 0.0000,1.9743 -2.0940,2.5526 -3.0313 2.5526c -0.6980,-0.0000 -1.2763,-0.0798 -1.7948 -0.2194c -0.1396,-0.0199 -0.2393,-0.0399 -0.3789 -0.0399c -0.0997,-0.0000 -0.2593,0.0199 -0.4587 0.0598c 0.0000,-0.8376 -0.0598,-1.8546 -0.1396 -2.8318ZM 125.9323,177.0676 ZM 129.2029,169.2701 v 5.1053 c 0.0000,1.2364 0.1197,1.8347 0.6581 1.8347c 0.5185,-0.0000 0.9174,-0.1595 1.4359 -0.5584l 0.3590,0.3390 c -0.7778,0.8775 -1.5755,1.3162 -2.4928 1.3162c -0.9174,-0.0000 -1.4558,-0.5584 -1.4558 -1.9743v -6.0625 h -1.2963 c -0.0598,-0.0000 -0.0798,-0.0199 -0.0798 -0.0798v -0.6182 c 0.0000,-0.0598 0.0199,-0.0798 0.0598 -0.0798c 1.3361,-0.0000 1.6552,-0.7778 1.6552 -2.2934v -0.3789 l 1.1567,-0.3988 v 3.0711 h 2.1937 c 0.0997,-0.0000 0.1595,0.0399 0.1595 0.1197v 0.3988 c 0.0000,0.1795 -0.2792,0.2593 -0.4786 0.2593h -1.8746 ZM 136.9405,177.0676 ZM 142.7438,172.1817 l -1.5755,0.3988 c -1.7549,0.5384 -2.0142,1.4558 -2.0142 2.3532c 0.0000,0.6182 0.2991,1.5555 1.5555 1.5555c 0.5983,-0.0000 1.5156,-0.5783 2.0341 -1.0171v -3.2905 ZM 142.7438,172.1817 ZM 144.0201,177.3069 c -0.7578,-0.0000 -1.1766,-0.6780 -1.2564 -1.1567l -0.4587,0.3191 c -0.9174,0.6382 -1.2564,0.8376 -2.1737 0.8376c -1.3960,-0.0000 -2.4130,-0.7977 -2.4130 -2.2934c 0.0000,-1.5156 1.2963,-2.5526 3.1908 -3.0313l 1.8347,-0.4587 c 0.0000,-2.2535 -1.0370,-2.6723 -1.7151 -2.6723c -0.7578,-0.0000 -1.6353,0.3390 -1.6353 0.9572c 0.0000,0.2194 0.0399,0.3390 0.0598 0.3988c 0.0399,0.0798 0.0598,0.2194 0.0598 0.3590c 0.0000,0.2593 -0.1994,0.6581 -0.7778 0.6581c -0.4786,-0.0000 -0.7977,-0.3191 -0.7977 -0.7977c 0.0000,-1.1567 1.8746,-2.1737 3.1509 -2.1737c 1.4558,-0.0000 3.1310,0.5983 3.1310 3.4301v 2.9315 c 0.0000,1.2165 0.0199,1.7350 0.4786 1.7350c 0.4387,-0.0000 0.5584,-0.5584 0.5783 -0.9971l 0.4986,0.0997 c -0.1197,1.4558 -0.7379,1.8546 -1.7549 1.8546ZM 150.9202,177.0676 ZM 157.2220,171.4239 c 0.0000,-1.6552 -0.7778,-2.6125 -1.9743 -2.6125c -1.0370,-0.0000 -1.7350,0.7179 -1.7350 2.2734c 0.0000,1.0370 0.3988,2.6723 1.9942 2.6723c 0.6980,-0.0000 1.7151,-0.3390 1.7151 -2.3333ZM 157.2220,171.4239 ZM 153.4928,177.2072 c -0.6182,0.5783 -0.7578,1.1965 -0.7578 1.8746c 0.0000,1.4957 1.7948,1.9344 2.4729 1.9344c 1.7151,-0.0000 3.8888,-0.5983 3.8888 -2.0341c 0.0000,-0.5185 -0.2792,-0.8575 -1.0569 -1.2364c -0.5584,-0.2792 -1.3760,-0.4986 -2.3333 -0.4986c -0.1595,-0.0000 -0.3789,0.0199 -0.6581 0.0399c -0.2792,0.0199 -0.5783,0.0199 -0.7977 0.0199c -0.3191,-0.0000 -0.4786,-0.0399 -0.7578 -0.0997ZM 153.4928,177.2072 ZM 159.5553,169.3299 c -0.3191,-0.0000 -0.5185,-0.1795 -0.5983 -0.3390c -0.1197,-0.1795 -0.1994,-0.2393 -0.3390 -0.2393c -0.2393,-0.0000 -0.6182,0.2792 -0.7578 0.4786c 0.5584,0.5983 0.8176,1.1766 0.8176 2.1139c 0.0000,1.9544 -1.5954,3.0113 -3.2706 3.0113c -0.7379,-0.0000 -1.3361,-0.1396 -1.7948 -0.4188c -0.2194,0.3390 -0.3390,0.7578 -0.3390 1.1567c 0.0000,0.8575 0.6581,1.0769 1.2165 1.0769c 0.0997,-0.0000 0.3390,-0.0199 0.6182 -0.0399c 0.4587,-0.0598 0.9572,-0.0997 1.2963 -0.0997c 0.6980,-0.0000 2.0142,0.1396 2.8119 0.8176c 0.5384,0.4986 0.8376,0.9772 0.8376 1.6153c 0.0000,2.1538 -2.8318,3.2905 -5.4044 3.2905c -1.4558,-0.0000 -3.0711,-0.5384 -3.0711 -2.2734c 0.0000,-0.8575 0.5384,-1.7749 1.5555 -2.4130c -0.4986,-0.2593 -0.8575,-0.7578 -0.8575 -1.4757c 0.0000,-0.6780 0.2991,-1.5356 0.8376 -2.0142c -0.5384,-0.5384 -0.9971,-1.2165 -0.9971 -2.3133c 0.0000,-1.8347 1.6153,-3.0113 3.3104 -3.0113c 1.1168,-0.0000 1.8148,0.4587 2.0341 0.6182c 0.4986,-0.6780 1.3960,-1.0171 1.8945 -1.0171c 0.5185,-0.0000 0.8775,0.3390 0.8775 0.7578c 0.0000,0.4387 -0.2792,0.7179 -0.6780 0.7179ZM 160.4726,177.0676 ZM 162.3672,175.6317 v -9.9912 c 0.0000,-1.1367 -0.1994,-1.4558 -0.5983 -1.4558l -0.6382,0.0798 c -0.0598,-0.0000 -0.1197,-0.0399 -0.1197 -0.0997l -0.0399,-0.4986 c 0.3191,-0.0000 1.0569,-0.1197 1.3960 -0.1795c 0.3590,-0.0798 0.6382,-0.1595 1.0370 -0.3390h 0.4387 v 12.4840 c 0.0000,0.5783 0.2194,0.8775 0.8575 0.8775h 0.4786 c 0.0798,-0.0000 0.1595,0.0598 0.1595 0.1595v 0.3789 l -0.0399,0.0399 c 0.0000,-0.0000 -1.4558,-0.0399 -2.2336 -0.0399c -0.6980,-0.0000 -2.1538,0.0399 -2.1538 0.0399l -0.0199,-0.0399 v -0.3789 c 0.0000,-0.0997 0.0399,-0.1595 0.1396 -0.1595h 0.4786 c 0.6581,-0.0000 0.8575,-0.2991 0.8575 -0.8775ZM 165.6577,177.0676 ZM 169.8057,168.8912 c 0.0000,0.0997 -0.1197,0.1595 -0.2194 0.1595c -0.5983,-0.0000 -0.8575,0.1197 -0.8575 0.4387c 0.0000,0.1197 0.0399,0.2792 0.1197 0.4587l 2.1937,5.1452 l 2.2136,-5.0654 c 0.0997,-0.1795 0.1396,-0.3390 0.1396 -0.4587c 0.0000,-0.4188 -0.3988,-0.5185 -0.8376 -0.5185h -0.0798 c -0.0997,-0.0000 -0.1994,-0.0798 -0.1994 -0.1396v -0.3789 l 0.0399,-0.0598 c 0.0000,-0.0000 1.1766,0.0399 1.8746 0.0399c 0.5584,-0.0000 1.3760,-0.0399 1.3760 -0.0399l 0.0598,0.0399 v 0.3789 c 0.0000,0.0997 -0.0798,0.1595 -0.2194 0.1595c -0.7578,-0.0000 -1.1367,0.7778 -1.4159 1.3561c -1.0569,2.2336 -1.9344,4.2876 -3.5298 8.1365c -0.5983,1.4359 -1.3162,3.1110 -2.7321 3.1110c -0.3789,-0.0000 -1.1567,-0.2194 -1.1567 -0.9373c 0.0000,-0.5983 0.4387,-0.7778 0.7578 -0.7778c 0.2991,-0.0000 0.4986,0.1197 0.6182 0.2792c 0.1994,0.1994 0.3390,0.3390 0.5384 0.3390c 0.2991,-0.0000 0.9971,-1.7151 1.4957 -2.9315c 0.1197,-0.2393 0.1595,-0.4387 0.1595 -0.6182c 0.0000,-0.1994 -0.1795,-0.7379 -0.3390 -1.1367l -2.5127,-5.8431 c -0.3191,-0.7578 -0.5384,-0.9772 -1.2165 -0.9772c -0.1197,-0.0000 -0.1994,-0.0598 -0.1994 -0.1396v -0.3988 l 0.0399,-0.0399 c 0.0000,-0.0000 0.8775,0.0399 1.4757 0.0399c 0.9373,-0.0000 2.3732,-0.0399 2.3732 -0.0399l 0.0399,0.0598 v 0.3590 ZM 175.8084,177.0676 ZM 178.7798,170.8057 v 4.9657 c 0.6980,0.8176 1.3561,0.8575 1.6752 0.8575c 2.1338,-0.0000 2.6125,-1.9942 2.6125 -3.7093c 0.0000,-2.4130 -0.9772,-3.7492 -2.1937 -3.7492c -0.6780,-0.0000 -1.6552,0.5783 -2.0940 1.6353ZM 178.7798,170.8057 ZM 177.3041,180.2185 v -9.8715 c 0.0000,-0.7578 -0.1795,-0.8974 -0.4587 -0.8974c -0.2593,-0.0000 -0.4986,0.0199 -0.8376 0.0997l -0.0997,-0.5584 c 1.2763,-0.2194 1.5156,-0.2991 2.0740 -0.5783c 0.2194,-0.0997 0.3590,-0.1595 0.4986 -0.1595h 0.2991 l -0.0598,1.5954 h 0.0598 c 0.9174,-1.3960 1.9942,-1.5954 2.6324 -1.5954c 1.9344,-0.0000 3.2107,2.0142 3.2107 4.1281c 0.0000,1.6153 -0.4986,2.8518 -1.3960 3.7691c -0.7778,0.7778 -1.5954,1.1567 -2.6523 1.1567c -0.7179,-0.0000 -1.2763,-0.1595 -1.7948 -0.4387v 3.3503 c 0.0000,0.5783 0.2194,0.8775 0.8575 0.8775h 0.3789 c 0.0997,-0.0000 0.1795,0.0598 0.1795 0.1595v 0.3789 l -0.0399,0.0399 c 0.0000,-0.0000 -1.3760,-0.0399 -2.1538 -0.0399c -0.6980,-0.0000 -2.0541,0.0399 -2.0541 0.0399l -0.0399,-0.0399 v -0.3789 c 0.0000,-0.0997 0.0598,-0.1595 0.1595 -0.1595h 0.3789 c 0.6581,-0.0000 0.8575,-0.2991 0.8575 -0.8775ZM 185.3608,177.0676 ZM 188.6114,163.1478 v 6.7605 c 1.3361,-1.3361 2.5127,-1.6552 3.2905 -1.6552c 1.4359,-0.0000 2.1538,1.0968 2.1538 3.1509v 4.2278 c 0.0000,0.5783 0.1994,0.8775 0.8575 0.8775h 0.3789 c 0.0798,-0.0000 0.1595,0.0598 0.1595 0.1595v 0.3789 l -0.0399,0.0399 c 0.0000,-0.0000 -1.3561,-0.0399 -2.1538 -0.0399c -0.6980,-0.0000 -2.0541,0.0399 -2.0541 0.0399l -0.0399,-0.0399 v -0.3789 c 0.0000,-0.0997 0.0598,-0.1595 0.1595 -0.1595h 0.3789 c 0.6780,-0.0000 0.8575,-0.2991 0.8575 -0.8775v -4.4472 c 0.0000,-1.6153 -0.4387,-1.9942 -1.5555 -1.9942c -0.5783,-0.0000 -1.4359,0.5185 -2.3931 1.4558v 4.9856 c 0.0000,0.5783 0.1994,0.8775 0.8575 0.8775h 0.3789 c 0.0798,-0.0000 0.1595,0.0598 0.1595 0.1595v 0.3789 l -0.0399,0.0399 c 0.0000,-0.0000 -1.3561,-0.0399 -2.1338 -0.0399c -0.7179,-0.0000 -2.0541,0.0399 -2.0541 0.0399l -0.0399,-0.0399 v -0.3789 c 0.0000,-0.0997 0.0399,-0.1595 0.1396 -0.1595h 0.3789 c 0.6780,-0.0000 0.8575,-0.2991 0.8575 -0.8775v -9.9912 c 0.0000,-1.1367 -0.1795,-1.4558 -0.5783 -1.4558l -0.6581,0.0798 c -0.0598,-0.0000 -0.0997,-0.0399 -0.0997 -0.0997l -0.0399,-0.4986 c 0.3191,-0.0000 1.0370,-0.1197 1.3760 -0.1795c 0.3590,-0.0798 0.6581,-0.1595 1.0569 -0.3390h 0.4387 Z"/></g><g stroke-linejoin="miter" stroke-opacity="1.0" fill-opacity="0.5" stroke="rgb(102,102,102)" stroke-width="4.043165605599001" fill="rgb(93,165,218)" stroke-linecap="butt" stroke-miterlimit="10.0"><path d="M 95.8278,177.0676 c 0.0000,-2.8463 -2.3074,-5.1537 -5.1537 -5.1537c -2.8463,-0.0000 -5.1537,2.3074 -5.1537 5.1537c -0.0000,2.8463 2.3074,5.1537 5.1537 5.1537c 2.8463,0.0000 5.1537,-2.3074 5.1537 -5.1537Z"/></g><g stroke-linejoin="miter" stroke-opacity="1.0" fill-opacity="0.63" stroke="rgb(0,0,0)" fill-rule="evenodd" stroke-width="0.0" fill="rgb(0,0,0)" stroke-linecap="butt" stroke-miterlimit="10.0"><path d="M 131.9036,142.7096 ZM 138.2055,137.0659 c 0.0000,-1.6552 -0.7778,-2.6125 -1.9743 -2.6125c -1.0370,-0.0000 -1.7350,0.7179 -1.7350 2.2734c 0.0000,1.0370 0.3988,2.6723 1.9942 2.6723c 0.6980,-0.0000 1.7151,-0.3390 1.7151 -2.3333ZM 138.2055,137.0659 ZM 134.4762,142.8492 c -0.6182,0.5783 -0.7578,1.1965 -0.7578 1.8746c 0.0000,1.4957 1.7948,1.9344 2.4729 1.9344c 1.7151,-0.0000 3.8888,-0.5983 3.8888 -2.0341c 0.0000,-0.5185 -0.2792,-0.8575 -1.0569 -1.2364c -0.5584,-0.2792 -1.3760,-0.4986 -2.3333 -0.4986c -0.1595,-0.0000 -0.3789,0.0199 -0.6581 0.0399c -0.2792,0.0199 -0.5783,0.0199 -0.7977 0.0199c -0.3191,-0.0000 -0.4786,-0.0399 -0.7578 -0.0997ZM 134.4762,142.8492 ZM 140.5387,134.9719 c -0.3191,-0.0000 -0.5185,-0.1795 -0.5983 -0.3390c -0.1197,-0.1795 -0.1994,-0.2393 -0.3390 -0.2393c -0.2393,-0.0000 -0.6182,0.2792 -0.7578 0.4786c 0.5584,0.5983 0.8176,1.1766 0.8176 2.1139c 0.0000,1.9544 -1.5954,3.0113 -3.2706 3.0113c -0.7379,-0.0000 -1.3361,-0.1396 -1.7948 -0.4188c -0.2194,0.3390 -0.3390,0.7578 -0.3390 1.1567c 0.0000,0.8575 0.6581,1.0769 1.2165 1.0769c 0.0997,-0.0000 0.3390,-0.0199 0.6182 -0.0399c 0.4587,-0.0598 0.9572,-0.0997 1.2963 -0.0997c 0.6980,-0.0000 2.0142,0.1396 2.8119 0.8176c 0.5384,0.4986 0.8376,0.9772 0.8376 1.6153c 0.0000,2.1538 -2.8318,3.2905 -5.4044 3.2905c -1.4558,-0.0000 -3.0711,-0.5384 -3.0711 -2.2734c 0.0000,-0.8575 0.5384,-1.7749 1.5555 -2.4130c -0.4986,-0.2593 -0.8575,-0.7578 -0.8575 -1.4757c 0.0000,-0.6780 0.2991,-1.5356 0.8376 -2.0142c -0.5384,-0.5384 -0.9971,-1.2165 -0.9971 -2.3133c 0.0000,-1.8347 1.6153,-3.0113 3.3104 -3.0113c 1.1168,-0.0000 1.8148,0.4587 2.0341 0.6182c 0.4986,-0.6780 1.3960,-1.0171 1.8945 -1.0171c 0.5185,-0.0000 0.8775,0.3390 0.8775 0.7578c 0.0000,0.4387 -0.2792,0.7179 -0.6780 0.7179ZM 141.4561,142.7096 ZM 143.3506,141.2738 v -9.9912 c 0.0000,-1.1367 -0.1994,-1.4558 -0.5983 -1.4558l -0.6382,0.0798 c -0.0598,-0.0000 -0.1197,-0.0399 -0.1197 -0.0997l -0.0399,-0.4986 c 0.3191,-0.0000 1.0569,-0.1197 1.3960 -0.1795c 0.3590,-0.0798 0.6382,-0.1595 1.0370 -0.3390h 0.4387 v 12.4840 c 0.0000,0.5783 0.2194,0.8775 0.8575 0.8775h 0.4786 c 0.0798,-0.0000 0.1595,0.0598 0.1595 0.1595v 0.3789 l -0.0399,0.0399 c 0.0000,-0.0000 -1.4558,-0.0399 -2.2336 -0.0399c -0.6980,-0.0000 -2.1538,0.0399 -2.1538 0.0399l -0.0199,-0.0399 v -0.3789 c 0.0000,-0.0997 0.0399,-0.1595 0.1396 -0.1595h 0.4786 c 0.6581,-0.0000 0.8575,-0.2991 0.8575 -0.8775ZM 146.6411,142.7096 ZM 150.7892,134.5332 c 0.0000,0.0997 -0.1197,0.1595 -0.2194 0.1595c -0.5983,-0.0000 -0.8575,0.1197 -0.8575 0.4387c 0.0000,0.1197 0.0399,0.2792 0.1197 0.4587l 2.1937,5.1452 l 2.2136,-5.0654 c 0.0997,-0.1795 0.1396,-0.3390 0.1396 -0.4587c 0.0000,-0.4188 -0.3988,-0.5185 -0.8376 -0.5185h -0.0798 c -0.0997,-0.0000 -0.1994,-0.0798 -0.1994 -0.1396v -0.3789 l 0.0399,-0.0598 c 0.0000,-0.0000 1.1766,0.0399 1.8746 0.0399c 0.5584,-0.0000 1.3760,-0.0399 1.3760 -0.0399l 0.0598,0.0399 v 0.3789 c 0.0000,0.0997 -0.0798,0.1595 -0.2194 0.1595c -0.7578,-0.0000 -1.1367,0.7778 -1.4159 1.3561c -1.0569,2.2336 -1.9344,4.2876 -3.5298 8.1365c -0.5983,1.4359 -1.3162,3.1110 -2.7321 3.1110c -0.3789,-0.0000 -1.1567,-0.2194 -1.1567 -0.9373c 0.0000,-0.5983 0.4387,-0.7778 0.7578 -0.7778c 0.2991,-0.0000 0.4986,0.1197 0.6182 0.2792c 0.1994,0.1994 0.3390,0.3390 0.5384 0.3390c 0.2991,-0.0000 0.9971,-1.7151 1.4957 -2.9315c 0.1197,-0.2393 0.1595,-0.4387 0.1595 -0.6182c 0.0000,-0.1994 -0.1795,-0.7379 -0.3390 -1.1367l -2.5127,-5.8431 c -0.3191,-0.7578 -0.5384,-0.9772 -1.2165 -0.9772c -0.1197,-0.0000 -0.1994,-0.0598 -0.1994 -0.1396v -0.3988 l 0.0399,-0.0399 c 0.0000,-0.0000 0.8775,0.0399 1.4757 0.0399c 0.9373,-0.0000 2.3732,-0.0399 2.3732 -0.0399l 0.0399,0.0598 v 0.3590 ZM 156.7918,142.7096 ZM 159.7633,136.4477 v 4.9657 c 0.6980,0.8176 1.3561,0.8575 1.6752 0.8575c 2.1338,-0.0000 2.6125,-1.9942 2.6125 -3.7093c 0.0000,-2.4130 -0.9772,-3.7492 -2.1937 -3.7492c -0.6780,-0.0000 -1.6552,0.5783 -2.0940 1.6353ZM 159.7633,136.4477 ZM 158.2875,145.8605 v -9.8715 c 0.0000,-0.7578 -0.1795,-0.8974 -0.4587 -0.8974c -0.2593,-0.0000 -0.4986,0.0199 -0.8376 0.0997l -0.0997,-0.5584 c 1.2763,-0.2194 1.5156,-0.2991 2.0740 -0.5783c 0.2194,-0.0997 0.3590,-0.1595 0.4986 -0.1595h 0.2991 l -0.0598,1.5954 h 0.0598 c 0.9174,-1.3960 1.9942,-1.5954 2.6324 -1.5954c 1.9344,-0.0000 3.2107,2.0142 3.2107 4.1281c 0.0000,1.6153 -0.4986,2.8518 -1.3960 3.7691c -0.7778,0.7778 -1.5954,1.1567 -2.6523 1.1567c -0.7179,-0.0000 -1.2763,-0.1595 -1.7948 -0.4387v 3.3503 c 0.0000,0.5783 0.2194,0.8775 0.8575 0.8775h 0.3789 c 0.0997,-0.0000 0.1795,0.0598 0.1795 0.1595v 0.3789 l -0.0399,0.0399 c 0.0000,-0.0000 -1.3760,-0.0399 -2.1538 -0.0399c -0.6980,-0.0000 -2.0541,0.0399 -2.0541 0.0399l -0.0399,-0.0399 v -0.3789 c 0.0000,-0.0997 0.0598,-0.1595 0.1595 -0.1595h 0.3789 c 0.6581,-0.0000 0.8575,-0.2991 0.8575 -0.8775ZM 166.3443,142.7096 ZM 169.5949,128.7898 v 6.7605 c 1.3361,-1.3361 2.5127,-1.6552 3.2905 -1.6552c 1.4359,-0.0000 2.1538,1.0968 2.1538 3.1509v 4.2278 c 0.0000,0.5783 0.1994,0.8775 0.8575 0.8775h 0.3789 c 0.0798,-0.0000 0.1595,0.0598 0.1595 0.1595v 0.3789 l -0.0399,0.0399 c 0.0000,-0.0000 -1.3561,-0.0399 -2.1538 -0.0399c -0.6980,-0.0000 -2.0541,0.0399 -2.0541 0.0399l -0.0399,-0.0399 v -0.3789 c 0.0000,-0.0997 0.0598,-0.1595 0.1595 -0.1595h 0.3789 c 0.6780,-0.0000 0.8575,-0.2991 0.8575 -0.8775v -4.4472 c 0.0000,-1.6153 -0.4387,-1.9942 -1.5555 -1.9942c -0.5783,-0.0000 -1.4359,0.5185 -2.3931 1.4558v 4.9856 c 0.0000,0.5783 0.1994,0.8775 0.8575 0.8775h 0.3789 c 0.0798,-0.0000 0.1595,0.0598 0.1595 0.1595v 0.3789 l -0.0399,0.0399 c 0.0000,-0.0000 -1.3561,-0.0399 -2.1338 -0.0399c -0.7179,-0.0000 -2.0541,0.0399 -2.0541 0.0399l -0.0399,-0.0399 v -0.3789 c 0.0000,-0.0997 0.0399,-0.1595 0.1396 -0.1595h 0.3789 c 0.6780,-0.0000 0.8575,-0.2991 0.8575 -0.8775v -9.9912 c 0.0000,-1.1367 -0.1795,-1.4558 -0.5783 -1.4558l -0.6581,0.0798 c -0.0598,-0.0000 -0.0997,-0.0399 -0.0997 -0.0997l -0.0399,-0.4986 c 0.3191,-0.0000 1.0370,-0.1197 1.3760 -0.1795c 0.3590,-0.0798 0.6581,-0.1595 1.0569 -0.3390h 0.4387 ZM 176.6745,142.7096 ZM 182.4378,137.6043 h 3.4301 v 0.9772 h -3.4301 v 3.4500 h -0.9971 v -3.4500 h -3.4500 v -0.9772 h 3.4500 v -3.4700 h 0.9971 v 3.4700 ZM 187.1841,142.7096 ZM 189.0787,141.2738 v -9.9912 c 0.0000,-1.1367 -0.1994,-1.4558 -0.5983 -1.4558l -0.6382,0.0798 c -0.0598,-0.0000 -0.1197,-0.0399 -0.1197 -0.0997l -0.0399,-0.4986 c 0.3191,-0.0000 1.0569,-0.1197 1.3960 -0.1795c 0.3590,-0.0798 0.6382,-0.1595 1.0370 -0.3390h 0.4387 v 12.4840 c 0.0000,0.5783 0.2194,0.8775 0.8575 0.8775h 0.4786 c 0.0798,-0.0000 0.1595,0.0598 0.1595 0.1595v 0.3789 l -0.0399,0.0399 c 0.0000,-0.0000 -1.4558,-0.0399 -2.2336 -0.0399c -0.6980,-0.0000 -2.1538,0.0399 -2.1538 0.0399l -0.0199,-0.0399 v -0.3789 c 0.0000,-0.0997 0.0399,-0.1595 0.1396 -0.1595h 0.4786 c 0.6581,-0.0000 0.8575,-0.2991 0.8575 -0.8775ZM 192.3692,142.7096 ZM 193.9247,131.3225 c 0.0000,-0.5185 0.4188,-0.9572 0.9373 -0.9572c 0.5384,-0.0000 0.9572,0.4387 0.9572 0.9572c 0.0000,0.5384 -0.4188,0.9572 -0.9572 0.9572c -0.5185,-0.0000 -0.9373,-0.4188 -0.9373 -0.9572ZM 193.9247,131.3225 ZM 195.8192,141.2738 c 0.0000,0.5783 0.2194,0.8775 0.8575 0.8775h 0.3789 c 0.0997,-0.0000 0.1795,0.0598 0.1795 0.1595v 0.3789 l -0.0399,0.0399 c 0.0000,-0.0000 -1.3760,-0.0399 -2.1538 -0.0399c -0.6980,-0.0000 -2.0541,0.0399 -2.0541 0.0399l -0.0399,-0.0399 v -0.3789 c 0.0000,-0.0997 0.0598,-0.1595 0.1595 -0.1595h 0.3789 c 0.6581,-0.0000 0.8575,-0.2991 0.8575 -0.8775v -4.9657 c 0.0000,-1.0569 -0.1795,-1.2165 -0.4587 -1.2165c -0.2593,-0.0000 -0.4986,0.0199 -0.8376 0.0997l -0.0997,-0.5584 c 1.2763,-0.2194 1.4957,-0.2991 2.0740 -0.5783c 0.2194,-0.0798 0.3590,-0.1595 0.4986 -0.1595h 0.2991 v 7.3787 ZM 197.6340,142.7096 ZM 204.8930,141.2738 v -4.3674 c 0.0000,-1.3960 -0.2393,-2.0541 -1.2963 -2.0541c -0.8775,-0.0000 -1.6353,0.3390 -2.6523 1.5356v 4.8859 c 0.0000,0.5783 0.1994,0.8775 0.8575 0.8775h 0.2792 c 0.0997,-0.0000 0.1595,0.0598 0.1595 0.1595v 0.3789 l -0.0399,0.0399 c 0.0000,-0.0000 -1.2564,-0.0399 -2.0341 -0.0399c -0.7179,-0.0000 -2.0740,0.0399 -2.0740 0.0399l -0.0399,-0.0399 v -0.3789 c 0.0000,-0.0997 0.0598,-0.1595 0.1595 -0.1595h 0.3789 c 0.6780,-0.0000 0.8575,-0.2991 0.8575 -0.8775v -4.9657 c 0.0000,-1.0769 -0.1595,-1.2165 -0.4387 -1.2165c -0.2593,-0.0000 -0.4986,0.0199 -0.8376 0.0997l -0.0997,-0.5584 c 0.8376,-0.1396 1.4359,-0.2393 2.0541 -0.5783c 0.2194,-0.0997 0.3789,-0.1595 0.5185 -0.1595h 0.2991 l -0.0598,1.7749 h 0.0598 c 1.2763,-1.4957 2.2336,-1.7749 3.2506 -1.7749c 1.7948,-0.0000 2.1737,1.3760 2.1737 3.1509v 4.2278 c 0.0000,0.5783 0.2194,0.8775 0.8575 0.8775h 0.3789 c 0.0997,-0.0000 0.1795,0.0598 0.1795 0.1595v 0.3789 l -0.0399,0.0399 c 0.0000,-0.0000 -1.3760,-0.0399 -2.1538 -0.0399c -0.6980,-0.0000 -1.9544,0.0399 -1.9544 0.0399l -0.0399,-0.0399 v -0.3789 c 0.0000,-0.0997 0.0598,-0.1595 0.1595 -0.1595h 0.2792 c 0.6581,-0.0000 0.8575,-0.2991 0.8575 -0.8775ZM 208.0040,142.7096 ZM 210.2775,137.1856 h 3.6694 c 0.1994,-0.0000 0.2792,-0.0997 0.2792 -0.2792c 0.0000,-1.8546 -0.9373,-2.3333 -1.6552 -2.3333c -0.4587,-0.0000 -1.9544,0.1795 -2.2934 2.6125ZM 210.2775,137.1856 ZM 215.5423,140.8550 l 0.3988,0.3191 c -0.7578,1.0370 -1.9344,1.7749 -3.3703 1.7749c -2.7321,-0.0000 -3.8888,-2.0341 -3.8888 -4.2079c 0.0000,-3.0313 1.9942,-4.8460 3.8888 -4.8460c 2.6324,-0.0000 3.2506,2.0541 3.2506 3.7292c 0.0000,0.2194 -0.1396,0.3390 -0.3590 0.3390h -5.2449 c -0.0199,0.1197 -0.0199,0.2393 -0.0199 0.3988c 0.0000,2.0341 1.4159,3.6096 2.8518 3.6096c 1.0968,-0.0000 1.7948,-0.3590 2.4928 -1.1168Z"/></g><g stroke-linejoin="miter" stroke-opacity="0.5" fill-opacity="0.0" stroke="rgb(93,165,218)" stroke-width="5.390887474132001" fill="rgb(0,0,0)" stroke-linecap="butt" stroke-miterlimit="10.0"><path d="M 56.3161,142.7096 h 68.7160 "/></g><g stroke-linejoin="miter" stroke-opacity="1.0" fill-opacity="0.5" stroke="rgb(102,102,102)" stroke-width="4.043165605599001" fill="rgb(93,165,218)" stroke-linecap="butt" stroke-miterlimit="10.0"><path d="M 95.8278,142.7096 c 0.0000,-2.8463 -2.3074,-5.1537 -5.1537 -5.1537c -2.8463,-0.0000 -5.1537,2.3074 -5.1537 5.1537c -0.0000,2.8463 2.3074,5.1537 5.1537 5.1537c 2.8463,0.0000 5.1537,-2.3074 5.1537 -5.1537Z"/></g><g stroke-linejoin="miter" stroke-opacity="1.0" fill-opacity="0.63" stroke="rgb(0,0,0)" fill-rule="evenodd" stroke-width="0.0" fill="rgb(0,0,0)" stroke-linecap="butt" stroke-miterlimit="10.0"><path d="M 106.1352,105.9842 ZM 107.9100,104.5483 v -4.9657 c 0.0000,-0.9971 -0.1396,-1.2165 -0.4387 -1.2165c -0.2593,-0.0000 -0.4986,0.0199 -0.8376 0.0997l -0.0997,-0.5584 c 1.2564,-0.2194 1.4757,-0.2792 2.0740 -0.5783c 0.1994,-0.0997 0.3590,-0.1595 0.4986 -0.1595h 0.2991 l -0.0598,1.7948 h 0.0598 c 0.5185,-0.7778 1.3960,-1.7948 2.3333 -1.7948c 0.8176,-0.0000 1.1168,0.3988 1.1168 0.9174c 0.0000,0.5185 -0.3390,0.8376 -0.8575 0.8376c -0.3988,-0.0000 -0.6182,-0.1595 -0.8176 -0.3590c -0.1197,-0.1197 -0.2593,-0.1795 -0.3988 -0.1795c -0.2194,-0.0000 -0.6581,0.3590 -1.1367 1.0370c -0.1396,0.1795 -0.2393,0.4387 -0.2393 0.6980v 4.4272 c 0.0000,0.5783 0.1994,0.8775 0.8575 0.8775h 0.5783 c 0.0997,-0.0000 0.1795,0.0598 0.1795 0.1595v 0.3789 l -0.0399,0.0399 c 0.0000,-0.0000 -1.5755,-0.0399 -2.3532 -0.0399c -0.7179,-0.0000 -2.0740,0.0399 -2.0740 0.0399l -0.0199,-0.0399 v -0.3789 c 0.0000,-0.0997 0.0399,-0.1595 0.1396 -0.1595h 0.3789 c 0.6780,-0.0000 0.8575,-0.2991 0.8575 -0.8775ZM 113.0552,105.9842 ZM 115.3286,100.4601 h 3.6694 c 0.1994,-0.0000 0.2792,-0.0997 0.2792 -0.2792c 0.0000,-1.8546 -0.9373,-2.3333 -1.6552 -2.3333c -0.4587,-0.0000 -1.9544,0.1795 -2.2934 2.6125ZM 115.3286,100.4601 ZM 120.5934,104.1295 l 0.3988,0.3191 c -0.7578,1.0370 -1.9344,1.7749 -3.3703 1.7749c -2.7321,-0.0000 -3.8888,-2.0341 -3.8888 -4.2079c 0.0000,-3.0313 1.9942,-4.8460 3.8888 -4.8460c 2.6324,-0.0000 3.2506,2.0541 3.2506 3.7292c 0.0000,0.2194 -0.1396,0.3390 -0.3590 0.3390h -5.2449 c -0.0199,0.1197 -0.0199,0.2393 -0.0199 0.3988c 0.0000,2.0341 1.4159,3.6096 2.8518 3.6096c 1.0968,-0.0000 1.7948,-0.3590 2.4928 -1.1168ZM 121.5906,105.9842 ZM 129.2485,104.1694 c -0.8775,1.5156 -1.8347,2.0541 -3.0313 2.0541c -2.3931,-0.0000 -3.8888,-1.8148 -3.8888 -4.3873c 0.0000,-2.8318 1.7749,-4.6665 3.9287 -4.6665c 1.9145,-0.0000 2.9315,0.9772 2.9315 2.0341c 0.0000,0.5783 -0.3590,0.8775 -0.7778 0.8775c -0.4188,-0.0000 -0.8176,-0.2194 -0.8775 -0.7179c -0.0798,-0.6581 -0.1994,-1.5156 -1.3760 -1.5156c -1.3162,-0.0000 -2.2934,1.3960 -2.2934 3.5498c 0.0000,2.3333 1.2564,3.9486 2.7919 3.9486c 0.8575,-0.0000 1.6153,-0.5584 2.2336 -1.4558ZM 129.6274,105.9842 ZM 132.8979,98.1867 v 5.1053 c 0.0000,1.2364 0.1197,1.8347 0.6581 1.8347c 0.5185,-0.0000 0.9174,-0.1595 1.4359 -0.5584l 0.3590,0.3390 c -0.7778,0.8775 -1.5755,1.3162 -2.4928 1.3162c -0.9174,-0.0000 -1.4558,-0.5584 -1.4558 -1.9743v -6.0625 h -1.2963 c -0.0598,-0.0000 -0.0798,-0.0199 -0.0798 -0.0798v -0.6182 c 0.0000,-0.0598 0.0199,-0.0798 0.0598 -0.0798c 1.3361,-0.0000 1.6552,-0.7778 1.6552 -2.2934v -0.3789 l 1.1567,-0.3988 v 3.0711 h 2.1937 c 0.0997,-0.0000 0.1595,0.0399 0.1595 0.1197v 0.3988 c 0.0000,0.1795 -0.2792,0.2593 -0.4786 0.2593h -1.8746 Z"/></g><g stroke-linejoin="miter" stroke-opacity="1.0" fill-opacity="0.5" stroke="rgb(102,102,102)" stroke-width="1.3477218685330004" fill="rgb(93,165,218)" stroke-linecap="butt" stroke-miterlimit="10.0"><path d="M 99.2636,114.5737 l -0.0000,-17.1790 h -17.1790 l -0.0000,17.1790 Z"/></g><g stroke-linejoin="miter" stroke-opacity="1.0" fill-opacity="0.63" stroke="rgb(0,0,0)" fill-rule="evenodd" stroke-width="0.0" fill="rgb(0,0,0)" stroke-linecap="butt" stroke-miterlimit="10.0"><path d="M 106.1352,69.2587 ZM 109.1066,62.9968 v 4.9657 c 0.6980,0.8176 1.3561,0.8575 1.6752 0.8575c 2.1338,-0.0000 2.6125,-1.9942 2.6125 -3.7093c 0.0000,-2.4130 -0.9772,-3.7492 -2.1937 -3.7492c -0.6780,-0.0000 -1.6552,0.5783 -2.0940 1.6353ZM 109.1066,62.9968 ZM 107.6308,72.4096 v -9.8715 c 0.0000,-0.7578 -0.1795,-0.8974 -0.4587 -0.8974c -0.2593,-0.0000 -0.4986,0.0199 -0.8376 0.0997l -0.0997,-0.5584 c 1.2763,-0.2194 1.5156,-0.2991 2.0740 -0.5783c 0.2194,-0.0997 0.3590,-0.1595 0.4986 -0.1595h 0.2991 l -0.0598,1.5954 h 0.0598 c 0.9174,-1.3960 1.9942,-1.5954 2.6324 -1.5954c 1.9344,-0.0000 3.2107,2.0142 3.2107 4.1281c 0.0000,1.6153 -0.4986,2.8518 -1.3960 3.7691c -0.7778,0.7778 -1.5954,1.1567 -2.6523 1.1567c -0.7179,-0.0000 -1.2763,-0.1595 -1.7948 -0.4387v 3.3503 c 0.0000,0.5783 0.2194,0.8775 0.8575 0.8775h 0.3789 c 0.0997,-0.0000 0.1795,0.0598 0.1795 0.1595v 0.3789 l -0.0399,0.0399 c 0.0000,-0.0000 -1.3760,-0.0399 -2.1538 -0.0399c -0.6980,-0.0000 -2.0541,0.0399 -2.0541 0.0399l -0.0399,-0.0399 v -0.3789 c 0.0000,-0.0997 0.0598,-0.1595 0.1595 -0.1595h 0.3789 c 0.6581,-0.0000 0.8575,-0.2991 0.8575 -0.8775ZM 115.6876,69.2587 ZM 117.2431,57.8716 c 0.0000,-0.5185 0.4188,-0.9572 0.9373 -0.9572c 0.5384,-0.0000 0.9572,0.4387 0.9572 0.9572c 0.0000,0.5384 -0.4188,0.9572 -0.9572 0.9572c -0.5185,-0.0000 -0.9373,-0.4188 -0.9373 -0.9572ZM 117.2431,57.8716 ZM 119.1376,67.8229 c 0.0000,0.5783 0.2194,0.8775 0.8575 0.8775h 0.3789 c 0.0997,-0.0000 0.1795,0.0598 0.1795 0.1595v 0.3789 l -0.0399,0.0399 c 0.0000,-0.0000 -1.3760,-0.0399 -2.1538 -0.0399c -0.6980,-0.0000 -2.0541,0.0399 -2.0541 0.0399l -0.0399,-0.0399 v -0.3789 c 0.0000,-0.0997 0.0598,-0.1595 0.1595 -0.1595h 0.3789 c 0.6581,-0.0000 0.8575,-0.2991 0.8575 -0.8775v -4.9657 c 0.0000,-1.0569 -0.1795,-1.2165 -0.4587 -1.2165c -0.2593,-0.0000 -0.4986,0.0199 -0.8376 0.0997l -0.0997,-0.5584 c 1.2763,-0.2194 1.4957,-0.2991 2.0740 -0.5783c 0.2194,-0.0798 0.3590,-0.1595 0.4986 -0.1595h 0.2991 v 7.3787 ZM 120.9524,69.2587 ZM 124.8811,61.2418 c -0.3988,-0.0000 -0.4786,0.0997 -0.4786 0.2393c 0.0000,0.0997 0.0798,0.2792 0.2991 0.6382l 1.2165,1.7948 c 0.0598,0.1197 0.1197,0.1795 0.1994 0.1795c 0.0598,-0.0000 0.0997,-0.0399 0.1795 -0.1396l 1.2963,-1.8148 c 0.2194,-0.2792 0.3390,-0.4986 0.3390 -0.6581c 0.0000,-0.1595 -0.1396,-0.2393 -0.4188 -0.2393h -0.3191 c -0.0598,-0.0000 -0.1197,-0.0399 -0.1197 -0.1396v -0.3789 l 0.0598,-0.0598 c 0.0000,-0.0000 0.9373,0.0399 1.5555 0.0399c 0.6382,-0.0000 1.6153,-0.0399 1.6153 -0.0399l 0.0199,0.0399 v 0.3789 c 0.0000,0.1396 -0.1197,0.1595 -0.2393 0.1595c -0.7379,-0.0000 -1.0370,0.2393 -1.7749 1.1766l -1.6752,2.1338 c -0.0399,0.0598 -0.0598,0.0997 -0.0598 0.1396c 0.0000,0.0399 0.0199,0.0997 0.0598 0.1595l 1.7948,2.5327 c 0.9174,1.2963 1.1766,1.3162 1.8148 1.3162c 0.1994,-0.0000 0.2792,0.0399 0.2792 0.1595v 0.3789 l -0.0199,0.0399 c 0.0000,-0.0000 -1.0769,-0.0399 -1.7549 -0.0399c -0.8176,-0.0000 -2.0740,0.0399 -2.0740 0.0399l -0.0399,-0.0399 v -0.3789 c 0.0000,-0.0997 0.0399,-0.1595 0.1396 -0.1595h 0.2393 c 0.3191,-0.0000 0.4587,-0.0598 0.4587 -0.2194c 0.0000,-0.1795 -0.2194,-0.4786 -0.5384 -0.8974l -1.1567,-1.5954 c -0.0798,-0.0997 -0.1197,-0.1396 -0.1795 -0.1396c -0.0399,-0.0000 -0.0997,0.0598 -0.1795 0.1795l -1.2564,1.8148 c -0.2991,0.3988 -0.3590,0.4986 -0.3590 0.6382c 0.0000,0.1396 0.1197,0.2194 0.4188 0.2194h 0.2792 c 0.0997,-0.0000 0.1396,0.0598 0.1396 0.1595v 0.3789 l -0.0399,0.0399 c 0.0000,-0.0000 -1.0370,-0.0399 -1.6752 -0.0399c -0.5783,-0.0000 -1.4957,0.0399 -1.4957 0.0399l -0.0399,-0.0399 v -0.3390 c 0.0000,-0.1197 0.0798,-0.1994 0.2593 -0.1994c 0.4786,-0.0000 0.9373,-0.0997 1.7749 -1.1766l 1.6752,-2.1538 c 0.0199,-0.0399 0.0399,-0.0798 0.0399 -0.1396c 0.0000,-0.0598 -0.0199,-0.0997 -0.0598 -0.1595l -1.7350,-2.5327 c -0.5584,-0.8176 -0.9174,-1.2963 -1.6153 -1.2963c -0.1396,-0.0000 -0.2792,-0.0598 -0.2792 -0.1396v -0.3789 l 0.0399,-0.0598 l 1.5755,0.0399 l 2.2136,-0.0399 l 0.0598,0.0598 v 0.3590 c 0.0000,0.0997 -0.0798,0.1595 -0.1595 0.1595h -0.2991 ZM 130.8638,69.2587 ZM 133.1372,63.7347 h 3.6694 c 0.1994,-0.0000 0.2792,-0.0997 0.2792 -0.2792c 0.0000,-1.8546 -0.9373,-2.3333 -1.6552 -2.3333c -0.4587,-0.0000 -1.9544,0.1795 -2.2934 2.6125ZM 133.1372,63.7347 ZM 138.4020,67.4041 l 0.3988,0.3191 c -0.7578,1.0370 -1.9344,1.7749 -3.3703 1.7749c -2.7321,-0.0000 -3.8888,-2.0341 -3.8888 -4.2079c 0.0000,-3.0313 1.9942,-4.8460 3.8888 -4.8460c 2.6324,-0.0000 3.2506,2.0541 3.2506 3.7292c 0.0000,0.2194 -0.1396,0.3390 -0.3590 0.3390h -5.2449 c -0.0199,0.1197 -0.0199,0.2393 -0.0199 0.3988c 0.0000,2.0341 1.4159,3.6096 2.8518 3.6096c 1.0968,-0.0000 1.7948,-0.3590 2.4928 -1.1168ZM 139.3992,69.2587 ZM 141.2937,67.8229 v -9.9912 c 0.0000,-1.1367 -0.1994,-1.4558 -0.5983 -1.4558l -0.6382,0.0798 c -0.0598,-0.0000 -0.1197,-0.0399 -0.1197 -0.0997l -0.0399,-0.4986 c 0.3191,-0.0000 1.0569,-0.1197 1.3960 -0.1795c 0.3590,-0.0798 0.6382,-0.1595 1.0370 -0.3390h 0.4387 v 12.4840 c 0.0000,0.5783 0.2194,0.8775 0.8575 0.8775h 0.4786 c 0.0798,-0.0000 0.1595,0.0598 0.1595 0.1595v 0.3789 l -0.0399,0.0399 c 0.0000,-0.0000 -1.4558,-0.0399 -2.2336 -0.0399c -0.6980,-0.0000 -2.1538,0.0399 -2.1538 0.0399l -0.0199,-0.0399 v -0.3789 c 0.0000,-0.0997 0.0399,-0.1595 0.1396 -0.1595h 0.4786 c 0.6581,-0.0000 0.8575,-0.2991 0.8575 -0.8775Z"/></g><g stroke-linejoin="miter" stroke-opacity="0.0" fill-opacity="0.5" stroke="rgb(0,0,0)" stroke-width="0.0" fill="rgb(93,165,218)" stroke-linecap="butt" stroke-miterlimit="10.0"><path d="M 99.2636,77.8482 l -0.0000,-17.1790 h -17.1790 l -0.0000,17.1790 Z"/></g><g stroke-linejoin="miter" stroke-opacity="1.0" fill-opacity="0.33" stroke="rgb(0,0,0)" fill-rule="evenodd" stroke-width="0.0" fill="rgb(0,0,0)" stroke-linecap="butt" stroke-miterlimit="10.0"><path d="M 60.8857,34.0119 ZM 63.0509,32.3709 v -11.4185 c 0.0000,-1.2991 -0.2279,-1.6638 -0.6837 -1.6638l -0.7293,0.0912 c -0.0684,-0.0000 -0.1367,-0.0456 -0.1367 -0.1140l -0.0456,-0.5698 c 0.3647,-0.0000 1.2079,-0.1367 1.5954 -0.2051c 0.4102,-0.0912 0.7293,-0.1823 1.1852 -0.3875h 0.5014 v 14.2674 c 0.0000,0.6609 0.2507,1.0028 0.9800 1.0028h 0.5470 c 0.0912,-0.0000 0.1823,0.0684 0.1823 0.1823v 0.4330 l -0.0456,0.0456 c 0.0000,-0.0000 -1.6638,-0.0456 -2.5526 -0.0456c -0.7977,-0.0000 -2.4615,0.0456 -2.4615 0.0456l -0.0228,-0.0456 v -0.4330 c 0.0000,-0.1140 0.0456,-0.1823 0.1595 -0.1823h 0.5470 c 0.7521,-0.0000 0.9800,-0.3419 0.9800 -1.0028ZM 66.8115,34.0119 ZM 69.4097,27.6986 h 4.1936 c 0.2279,-0.0000 0.3191,-0.1140 0.3191 -0.3191c 0.0000,-2.1196 -1.0712,-2.6666 -1.8917 -2.6666c -0.5242,-0.0000 -2.2336,0.2051 -2.6210 2.9857ZM 69.4097,27.6986 ZM 75.4266,31.8923 l 0.4558,0.3647 c -0.8661,1.1852 -2.2108,2.0284 -3.8517 2.0284c -3.1224,-0.0000 -4.4443,-2.3247 -4.4443 -4.8090c 0.0000,-3.4643 2.2791,-5.5383 4.4443 -5.5383c 3.0085,-0.0000 3.7150,2.3475 3.7150 4.2620c 0.0000,0.2507 -0.1595,0.3875 -0.4102 0.3875h -5.9941 c -0.0228,0.1367 -0.0228,0.2735 -0.0228 0.4558c 0.0000,2.3247 1.6182,4.1252 3.2592 4.1252c 1.2535,-0.0000 2.0512,-0.4102 2.8489 -1.2763ZM 76.5662,34.0119 ZM 83.7683,27.5619 c 0.0000,-1.8917 -0.8889,-2.9857 -2.2563 -2.9857c -1.1852,-0.0000 -1.9828,0.8205 -1.9828 2.5982c 0.0000,1.1852 0.4558,3.0540 2.2791 3.0540c 0.7977,-0.0000 1.9601,-0.3875 1.9601 -2.6666ZM 83.7683,27.5619 ZM 79.5063,34.1714 c -0.7065,0.6609 -0.8661,1.3675 -0.8661 2.1424c 0.0000,1.7094 2.0512,2.2108 2.8261 2.2108c 1.9601,-0.0000 4.4443,-0.6837 4.4443 -2.3247c 0.0000,-0.5926 -0.3191,-0.9800 -1.2079 -1.4131c -0.6382,-0.3191 -1.5726,-0.5698 -2.6666 -0.5698c -0.1823,-0.0000 -0.4330,0.0228 -0.7521 0.0456c -0.3191,0.0228 -0.6609,0.0228 -0.9117 0.0228c -0.3647,-0.0000 -0.5470,-0.0456 -0.8661 -0.1140ZM 79.5063,34.1714 ZM 86.4349,25.1688 c -0.3647,-0.0000 -0.5926,-0.2051 -0.6837 -0.3875c -0.1367,-0.2051 -0.2279,-0.2735 -0.3875 -0.2735c -0.2735,-0.0000 -0.7065,0.3191 -0.8661 0.5470c 0.6382,0.6837 0.9344,1.3447 0.9344 2.4159c 0.0000,2.2336 -1.8233,3.4415 -3.7378 3.4415c -0.8433,-0.0000 -1.5270,-0.1595 -2.0512 -0.4786c -0.2507,0.3875 -0.3875,0.8661 -0.3875 1.3219c 0.0000,0.9800 0.7521,1.2307 1.3903 1.2307c 0.1140,-0.0000 0.3875,-0.0228 0.7065 -0.0456c 0.5242,-0.0684 1.0940,-0.1140 1.4814 -0.1140c 0.7977,-0.0000 2.3019,0.1595 3.2136 0.9344c 0.6154,0.5698 0.9572,1.1168 0.9572 1.8461c 0.0000,2.4615 -3.2364,3.7606 -6.1765 3.7606c -1.6638,-0.0000 -3.5099,-0.6154 -3.5099 -2.5982c 0.0000,-0.9800 0.6154,-2.0284 1.7777 -2.7578c -0.5698,-0.2963 -0.9800,-0.8661 -0.9800 -1.6866c 0.0000,-0.7749 0.3419,-1.7549 0.9572 -2.3019c -0.6154,-0.6154 -1.1396,-1.3903 -1.1396 -2.6438c 0.0000,-2.0968 1.8461,-3.4415 3.7834 -3.4415c 1.2763,-0.0000 2.0740,0.5242 2.3247 0.7065c 0.5698,-0.7749 1.5954,-1.1624 2.1652 -1.1624c 0.5926,-0.0000 1.0028,0.3875 1.0028 0.8661c 0.0000,0.5014 -0.3191,0.8205 -0.7749 0.8205ZM 87.5972,34.0119 ZM 90.1954,27.6986 h 4.1936 c 0.2279,-0.0000 0.3191,-0.1140 0.3191 -0.3191c 0.0000,-2.1196 -1.0712,-2.6666 -1.8917 -2.6666c -0.5242,-0.0000 -2.2336,0.2051 -2.6210 2.9857ZM 90.1954,27.6986 ZM 96.2124,31.8923 l 0.4558,0.3647 c -0.8661,1.1852 -2.2108,2.0284 -3.8517 2.0284c -3.1224,-0.0000 -4.4443,-2.3247 -4.4443 -4.8090c 0.0000,-3.4643 2.2791,-5.5383 4.4443 -5.5383c 3.0085,-0.0000 3.7150,2.3475 3.7150 4.2620c 0.0000,0.2507 -0.1595,0.3875 -0.4102 0.3875h -5.9941 c -0.0228,0.1367 -0.0228,0.2735 -0.0228 0.4558c 0.0000,2.3247 1.6182,4.1252 3.2592 4.1252c 1.2535,-0.0000 2.0512,-0.4102 2.8489 -1.2763ZM 97.3519,34.0119 ZM 105.6480,32.3709 v -4.9913 c 0.0000,-1.5954 -0.2735,-2.3475 -1.4814 -2.3475c -1.0028,-0.0000 -1.8689,0.3875 -3.0313 1.7549v 5.5839 c 0.0000,0.6609 0.2279,1.0028 0.9800 1.0028h 0.3191 c 0.1140,-0.0000 0.1823,0.0684 0.1823 0.1823v 0.4330 l -0.0456,0.0456 c 0.0000,-0.0000 -1.4359,-0.0456 -2.3247 -0.0456c -0.8205,-0.0000 -2.3703,0.0456 -2.3703 0.0456l -0.0456,-0.0456 v -0.4330 c 0.0000,-0.1140 0.0684,-0.1823 0.1823 -0.1823h 0.4330 c 0.7749,-0.0000 0.9800,-0.3419 0.9800 -1.0028v -5.6751 c 0.0000,-1.2307 -0.1823,-1.3903 -0.5014 -1.3903c -0.2963,-0.0000 -0.5698,0.0228 -0.9572 0.1140l -0.1140,-0.6382 c 0.9572,-0.1595 1.6410,-0.2735 2.3475 -0.6609c 0.2507,-0.1140 0.4330,-0.1823 0.5926 -0.1823h 0.3419 l -0.0684,2.0284 h 0.0684 c 1.4586,-1.7094 2.5526,-2.0284 3.7150 -2.0284c 2.0512,-0.0000 2.4843,1.5726 2.4843 3.6010v 4.8318 c 0.0000,0.6609 0.2507,1.0028 0.9800 1.0028h 0.4330 c 0.1140,-0.0000 0.2051,0.0684 0.2051 0.1823v 0.4330 l -0.0456,0.0456 c 0.0000,-0.0000 -1.5726,-0.0456 -2.4615 -0.0456c -0.7977,-0.0000 -2.2336,0.0456 -2.2336 0.0456l -0.0456,-0.0456 v -0.4330 c 0.0000,-0.1140 0.0684,-0.1823 0.1823 -0.1823h 0.3191 c 0.7521,-0.0000 0.9800,-0.3419 0.9800 -1.0028ZM 109.2034,34.0119 ZM 116.8158,31.9834 v -5.9030 c -0.5470,-0.8661 -1.1624,-1.3447 -2.2336 -1.3447c -0.4558,-0.0000 -1.3903,0.0684 -2.1196 1.1396c -0.3191,0.4786 -0.7065,1.4586 -0.7065 3.0996c 0.0000,2.9857 1.5498,4.3532 2.7805 4.3532c 0.7521,-0.0000 1.3675,-0.4558 2.2791 -1.3447ZM 116.8158,31.9834 ZM 118.5251,18.1035 v 13.1734 c 0.0000,0.6837 0.0456,1.0484 0.0912 1.2079c 0.0684,0.2051 0.3191,0.3419 0.5014 0.3419c 0.2735,-0.0000 0.7749,-0.0000 1.1168 -0.0684l 0.0912,0.6382 c -1.3219,0.2279 -2.5071,0.4786 -2.9857 0.8889h -0.5470 l 0.0684,-1.5726 c -0.8661,0.8889 -1.7549,1.5726 -2.9173 1.5726c -2.4615,-0.0000 -3.9657,-2.0968 -3.9657 -4.9001c 0.0000,-1.6866 0.4558,-3.0996 1.4359 -4.0797c 0.9117,-0.8661 1.9145,-1.3675 3.4187 -1.3675c 0.4558,-0.0000 1.4586,0.2051 1.9828 0.5014v -3.4871 c 0.0000,-1.2991 -0.2051,-1.6638 -0.6609 -1.6638l -0.7521,0.0912 c -0.0456,-0.0000 -0.1140,-0.0456 -0.1140 -0.1140l -0.0456,-0.5698 c 0.3647,-0.0000 1.1852,-0.1367 1.5726 -0.2051c 0.4330,-0.0912 0.7521,-0.1823 1.2079 -0.3875h 0.5014 Z"/></g><g stroke-linejoin="miter" stroke-opacity="0.2" fill-opacity="0.0" stroke="rgb(0,0,0)" stroke-width="0.5390887474132002" fill="rgb(0,0,0)" stroke-linecap="butt" stroke-miterlimit="10.0"><path d="M 271.0903,300.0000 l -0.0000,-300.0000 h -225.0016 l -0.0000,300.0000 Z"/></g></svg>