<?xml version="1.0" encoding="UTF-8"?>
<!DOCTYPE svg PUBLIC "-//W3C//DTD SVG 1.1//EN"
    "http://www.w3.org/Graphics/SVG/1.1/DTD/svg11.dtd">
<svg xmlns="http://www.w3.org/2000/svg" height="300.0000" stroke-opacity="1" viewBox="0 0 300 300" font-size="1" width="300.0000" xmlns:xlink="http://www.w3.org/1999/xlink" stroke="rgb(0,0,0)" version="1.1">
  <defs>
  </defs>
  <g stroke-linejoin="miter" stroke-opacity="1.0" fill-opacity="0.63" stroke="rgb(0,0,0)" fill-rule="evenodd" stroke-width="0.0" fill="rgb(0,0,0)" stroke-linecap="butt" stroke-miterlimit="10.0">
    <path d="M 114.1014,280.0317 ZM 116.0294,278.5704 v -10.1677 c 0.0000,-1.1568 -0.2029,-1.4815 -0.6088 -1.4815l -0.6494,0.0812 c -0.0609,-0.0000 -0.1218,-0.0406 -0.1218 -0.1015l -0.0406,-0.5074 c 0.3247,-0.0000 1.0756,-0.1218 1.4206 -0.1827c 0.3653,-0.0812 0.6494,-0.1624 1.0553 -0.3450h 0.4465 v 12.7045 c 0.0000,0.5885 0.2232,0.8930 0.8727 0.8930h 0.4871 c 0.0812,-0.0000 0.1624,0.0609 0.1624 0.1624v 0.3856 l -0.0406,0.0406 c 0.0000,-0.0000 -1.4815,-0.0406 -2.2730 -0.0406c -0.7103,-0.0000 -2.1918,0.0406 -2.1918 0.0406l -0.0203,-0.0406 v -0.3856 c 0.0000,-0.1015 0.0406,-0.1624 0.1421 -0.1624h 0.4871 c 0.6697,-0.0000 0.8727,-0.3044 0.8727 -0.8930ZM 119.3781,280.0317 ZM 120.9610,268.4433 c 0.0000,-0.5277 0.4262,-0.9742 0.9539 -0.9742c 0.5480,-0.0000 0.9742,0.4465 0.9742 0.9742c 0.0000,0.5480 -0.4262,0.9742 -0.9742 0.9742c -0.5277,-0.0000 -0.9539,-0.4262 -0.9539 -0.9742ZM 120.9610,268.4433 ZM 122.8891,278.5704 c 0.0000,0.5885 0.2232,0.8930 0.8727 0.8930h 0.3856 c 0.1015,-0.0000 0.1827,0.0609 0.1827 0.1624v 0.3856 l -0.0406,0.0406 c 0.0000,-0.0000 -1.4003,-0.0406 -2.1918 -0.0406c -0.7103,-0.0000 -2.0904,0.0406 -2.0904 0.0406l -0.0406,-0.0406 v -0.3856 c 0.0000,-0.1015 0.0609,-0.1624 0.1624 -0.1624h 0.3856 c 0.6697,-0.0000 0.8727,-0.3044 0.8727 -0.8930v -5.0534 c 0.0000,-1.0756 -0.1827,-1.2380 -0.4668 -1.2380c -0.2638,-0.0000 -0.5074,0.0203 -0.8524 0.1015l -0.1015,-0.5683 c 1.2989,-0.2232 1.5221,-0.3044 2.1107 -0.5885c 0.2232,-0.0812 0.3653,-0.1624 0.5074 -0.1624h 0.3044 v 7.5091 ZM 124.7359,280.0317 ZM 132.1232,278.5704 v -4.4446 c 0.0000,-1.4206 -0.2435,-2.0904 -1.3192 -2.0904c -0.8930,-0.0000 -1.6642,0.3450 -2.6992 1.5627v 4.9722 c 0.0000,0.5885 0.2029,0.8930 0.8727 0.8930h 0.2841 c 0.1015,-0.0000 0.1624,0.0609 0.1624 0.1624v 0.3856 l -0.0406,0.0406 c 0.0000,-0.0000 -1.2786,-0.0406 -2.0701 -0.0406c -0.7306,-0.0000 -2.1107,0.0406 -2.1107 0.0406l -0.0406,-0.0406 v -0.3856 c 0.0000,-0.1015 0.0609,-0.1624 0.1624 -0.1624h 0.3856 c 0.6900,-0.0000 0.8727,-0.3044 0.8727 -0.8930v -5.0534 c 0.0000,-1.0959 -0.1624,-1.2380 -0.4465 -1.2380c -0.2638,-0.0000 -0.5074,0.0203 -0.8524 0.1015l -0.1015,-0.5683 c 0.8524,-0.1421 1.4612,-0.2435 2.0904 -0.5885c 0.2232,-0.1015 0.3856,-0.1624 0.5277 -0.1624h 0.3044 l -0.0609,1.8062 h 0.0609 c 1.2989,-1.5221 2.2730,-1.8062 3.3081 -1.8062c 1.8265,-0.0000 2.2121,1.4003 2.2121 3.2066v 4.3025 c 0.0000,0.5885 0.2232,0.8930 0.8727 0.8930h 0.3856 c 0.1015,-0.0000 0.1827,0.0609 0.1827 0.1624v 0.3856 l -0.0406,0.0406 c 0.0000,-0.0000 -1.4003,-0.0406 -2.1918 -0.0406c -0.7103,-0.0000 -1.9889,0.0406 -1.9889 0.0406l -0.0406,-0.0406 v -0.3856 c 0.0000,-0.1015 0.0609,-0.1624 0.1624 -0.1624h 0.2841 c 0.6697,-0.0000 0.8727,-0.3044 0.8727 -0.8930ZM 135.2892,280.0317 ZM 137.6028,274.4100 h 3.7342 c 0.2029,-0.0000 0.2841,-0.1015 0.2841 -0.2841c 0.0000,-1.8874 -0.9539,-2.3745 -1.6845 -2.3745c -0.4668,-0.0000 -1.9889,0.1827 -2.3339 2.6586ZM 137.6028,274.4100 ZM 142.9606,278.1442 l 0.4059,0.3247 c -0.7712,1.0553 -1.9686,1.8062 -3.4298 1.8062c -2.7804,-0.0000 -3.9575,-2.0701 -3.9575 -4.2822c 0.0000,-3.0848 2.0295,-4.9316 3.9575 -4.9316c 2.6789,-0.0000 3.3081,2.0904 3.3081 3.7951c 0.0000,0.2232 -0.1421,0.3450 -0.3653 0.3450h -5.3375 c -0.0203,0.1218 -0.0203,0.2435 -0.0203 0.4059c 0.0000,2.0701 1.4409,3.6734 2.9022 3.6734c 1.1162,-0.0000 1.8265,-0.3653 2.5368 -1.1365ZM 149.0490,280.0317 ZM 153.4327,268.9304 c -0.5074,-0.0000 -1.9889,0.2841 -1.9889 1.5221c 0.0000,0.3653 -0.1421,0.9944 -0.6900 0.9944c -0.5277,-0.0000 -0.5683,-0.5885 -0.5683 -0.6494c 0.0000,-0.6291 0.8321,-2.4963 3.6531 -2.4963c 1.9686,-0.0000 2.5571,1.2380 2.5571 2.0498c 0.0000,0.5074 -0.1624,1.5221 -1.9889 2.6789c 1.1365,0.1827 2.6383,1.0147 2.6383 3.1254c 0.0000,2.6789 -2.0295,4.1198 -4.3228 4.1198c -1.1568,-0.0000 -2.7804,-0.5074 -2.7804 -1.2786c 0.0000,-0.3044 0.3044,-0.6494 0.7103 -0.6494c 0.3856,-0.0000 0.5683,0.2029 0.7509 0.4668c 0.2232,0.3450 0.5885,0.8321 1.5627 0.8321c 0.6697,-0.0000 2.5774,-0.6697 2.5774 -3.2269c 0.0000,-2.1715 -1.5221,-2.5166 -2.6180 -2.5166c -0.1827,-0.0000 -0.4059,0.0406 -0.6291 0.0812l -0.0812,-0.6088 c 1.5627,-0.2638 2.8616,-1.7859 2.8616 -2.7195c 0.0000,-1.1568 -0.8118,-1.7251 -1.6439 -1.7251Z"/>
  </g>
  <g stroke-linejoin="miter" stroke-opacity="0.6" fill-opacity="0.0" stroke="rgb(44,160,44)" stroke-width="1.3595755619017047" fill="rgb(0,0,0)" stroke-linecap="butt" stroke-miterlimit="10.0">
    <path d="M 89.6259,273.9128 h 17.4825 "/>
  </g>
  <g stroke-linejoin="miter" stroke-opacity="1.0" fill-opacity="0.63" stroke="rgb(0,0,0)" fill-rule="evenodd" stroke-width="0.0" fill="rgb(0,0,0)" stroke-linecap="butt" stroke-miterlimit="10.0">
    <path d="M 114.1014,245.0666 ZM 126.3392,243.6054 v -4.6678 c 0.0000,-1.3598 -0.5277,-1.8671 -1.2989 -1.8671c -0.7915,-0.0000 -1.4206,0.4059 -2.3948 1.4815c 0.0406,0.2435 0.0406,0.5277 0.0406 0.8118v 4.2416 c 0.0000,0.5885 0.2029,0.8930 0.8727 0.8930h 0.3450 c 0.1015,-0.0000 0.1827,0.0609 0.1827 0.1624v 0.3856 l -0.0406,0.0406 c 0.0000,-0.0000 -1.3598,-0.0406 -2.1512 -0.0406c -0.7306,-0.0000 -2.1310,0.0406 -2.1310 0.0406l -0.0406,-0.0406 v -0.3856 c 0.0000,-0.1015 0.0609,-0.1624 0.1624 -0.1624h 0.4059 c 0.6900,-0.0000 0.8727,-0.3044 0.8727 -0.8930v -4.6272 c 0.0000,-1.3598 -0.5480,-1.9077 -1.3192 -1.9077c -0.7103,-0.0000 -1.3800,0.5074 -2.3339 1.5018v 5.0331 c 0.0000,0.5885 0.2029,0.8930 0.8727 0.8930h 0.3856 c 0.0812,-0.0000 0.1624,0.0609 0.1624 0.1624v 0.3856 l -0.0406,0.0406 c 0.0000,-0.0000 -1.3800,-0.0406 -2.1715 -0.0406c -0.7306,-0.0000 -2.1107,0.0406 -2.1107 0.0406l -0.0406,-0.0406 v -0.3856 c 0.0000,-0.1015 0.0609,-0.1624 0.1624 -0.1624h 0.3856 c 0.6900,-0.0000 0.8727,-0.3044 0.8727 -0.8930v -5.0534 c 0.0000,-1.1568 -0.1827,-1.2380 -0.4465 -1.2380c -0.2638,-0.0000 -0.5074,0.0203 -0.8524 0.1015l -0.1015,-0.5683 c 1.2786,-0.2232 1.5627,-0.3044 2.1107 -0.5885c 0.2029,-0.1015 0.3653,-0.1624 0.5074 -0.1624h 0.3044 l -0.0609,1.7656 h 0.0609 c 0.9539,-1.0147 1.8062,-1.7656 3.0645 -1.7656c 1.1365,-0.0000 1.8468,0.8321 1.9686 1.7454c 1.1771,-1.2177 2.1310,-1.7454 3.2269 -1.7454c 1.7859,-0.0000 2.0904,1.4815 2.0904 3.2878v 4.2213 c 0.0000,0.5885 0.2029,0.8930 0.8727 0.8930h 0.3856 c 0.0812,-0.0000 0.1624,0.0609 0.1624 0.1624v 0.3856 l -0.0406,0.0406 c 0.0000,-0.0000 -1.3800,-0.0406 -2.1715 -0.0406c -0.7306,-0.0000 -2.1107,0.0406 -2.1107 0.0406l -0.0406,-0.0406 v -0.3856 c 0.0000,-0.1015 0.0609,-0.1624 0.1624 -0.1624h 0.3856 c 0.6697,-0.0000 0.8727,-0.3044 0.8727 -0.8930ZM 129.5254,245.0666 ZM 138.2319,242.7124 c 0.0000,1.0147 0.1015,1.3395 0.5074 1.3395c 0.2435,-0.0000 0.6900,-0.0406 1.0350 -0.1015l 0.0812,0.5683 c -1.2380,0.2232 -2.2324,0.4262 -2.6992 0.7915h -0.4465 l 0.0609,-1.5018 h -0.0609 c -1.1162,1.2177 -2.0295,1.5018 -2.8616 1.5018c -2.0092,-0.0000 -2.5368,-1.3598 -2.5368 -2.7601v -4.6272 c 0.0000,-0.6697 -0.1421,-1.0147 -0.8930 -1.0147c -0.0812,-0.0000 -0.2232,0.0203 -0.3450 0.0203l -0.0609,-0.0203 v -0.5277 l 0.0609,-0.0609 c 0.0000,-0.0000 1.3800,0.0406 2.0295 0.0406c 0.2841,-0.0000 0.7509,-0.0406 0.7509 -0.0406l -0.0203,1.6236 v 4.3228 c 0.0000,1.8062 0.9336,2.1310 1.5424 2.1310c 0.4668,-0.0000 0.8930,-0.1827 1.3192 -0.4871c 0.4871,-0.3653 0.8118,-0.6494 1.0147 -0.9133v -5.0128 c 0.0000,-0.7306 -0.1015,-1.0756 -0.8524 -1.0756c -0.1218,-0.0000 -0.3450,0.0203 -0.4059 0.0203l -0.0406,-0.0406 v -0.5074 l 0.0406,-0.0609 c 0.0000,-0.0000 1.4409,0.0406 2.0092 0.0406c 0.4668,-0.0000 0.7915,-0.0406 0.7915 -0.0406l -0.0203,1.6033 v 4.7896 ZM 140.0179,245.0666 ZM 154.5692,243.6054 v -4.1401 c 0.0000,-1.6439 -0.4262,-2.4151 -1.3598 -2.4151c -0.5885,-0.0000 -1.4612,0.3450 -2.6586 1.4815v 5.0737 c 0.0000,0.5885 0.2029,0.8930 0.8727 0.8930h 0.3856 c 0.0812,-0.0000 0.1624,0.0609 0.1624 0.1624v 0.3856 l -0.0406,0.0406 c 0.0000,-0.0000 -1.3800,-0.0406 -2.1715 -0.0406c -0.7306,-0.0000 -1.5424,0.0406 -1.5424 0.0406l -0.0406,-0.0406 v -0.3856 c 0.0000,-0.1015 0.0609,-0.1624 0.1624 -0.1624h 0.0406 c 0.5277,-0.0000 0.6494,-0.3044 0.6494 -0.8930v -10.2692 c 0.0000,-0.9539 -0.1827,-1.3800 -0.5885 -1.3800l -0.6697,0.0812 c -0.0609,-0.0000 -0.1015,-0.0406 -0.1015 -0.1015l -0.0406,-0.5074 c 0.3247,-0.0000 1.0553,-0.1218 1.4003 -0.1827c 0.3653,-0.0812 0.6697,-0.1624 1.0756 -0.3450h 0.4465 v 6.8799 c 1.3598,-1.3598 2.7601,-1.6845 3.5516 -1.6845c 1.4815,-0.0000 1.9889,1.1162 1.9889 3.2066v 4.3025 c 0.0000,0.5885 0.2029,0.8930 0.8524 0.8930h 0.4059 c 0.0812,-0.0000 0.1624,0.0609 0.1624 0.1624v 0.3856 l -0.0406,0.0406 c 0.0000,-0.0000 -1.3800,-0.0406 -2.1918 -0.0406c -0.7103,-0.0000 -2.0904,0.0406 -2.0904 0.0406l -0.0406,-0.0406 v -0.3856 c 0.0000,-0.1015 0.0609,-0.1624 0.1624 -0.1624h 0.3856 c 0.6900,-0.0000 0.8727,-0.3044 0.8727 -0.8930ZM 154.5692,243.6054 ZM 147.6081,243.1589 c -0.8930,1.5424 -1.8671,2.0904 -3.0645 2.0904c -2.4354,-0.0000 -3.7748,-1.8671 -3.7748 -4.4852c 0.0000,-2.8819 1.6236,-4.7084 3.7951 -4.7084c 1.9483,-0.0000 2.9833,0.9944 2.9833 2.0701c 0.0000,0.6088 -0.3653,0.8930 -0.7712 0.8930c -0.4465,-0.0000 -0.8524,-0.2232 -0.9133 -0.7103c -0.0609,-0.6900 -0.2029,-1.5627 -1.4003 -1.5627c -1.3395,-0.0000 -2.1310,1.3800 -2.1310 3.5719c 0.0000,2.3745 1.0756,4.0387 2.6586 4.0387c 0.8727,-0.0000 1.6236,-0.5683 2.2527 -1.4815ZM 162.8292,245.0666 ZM 164.7572,243.6054 v -10.1677 c 0.0000,-1.1568 -0.2029,-1.4815 -0.6088 -1.4815l -0.6494,0.0812 c -0.0609,-0.0000 -0.1218,-0.0406 -0.1218 -0.1015l -0.0406,-0.5074 c 0.3247,-0.0000 1.0756,-0.1218 1.4206 -0.1827c 0.3653,-0.0812 0.6494,-0.1624 1.0553 -0.3450h 0.4465 v 12.7045 c 0.0000,0.5885 0.2232,0.8930 0.8727 0.8930h 0.4871 c 0.0812,-0.0000 0.1624,0.0609 0.1624 0.1624v 0.3856 l -0.0406,0.0406 c 0.0000,-0.0000 -1.4815,-0.0406 -2.2730 -0.0406c -0.7103,-0.0000 -2.1918,0.0406 -2.1918 0.0406l -0.0203,-0.0406 v -0.3856 c 0.0000,-0.1015 0.0406,-0.1624 0.1421 -0.1624h 0.4871 c 0.6697,-0.0000 0.8727,-0.3044 0.8727 -0.8930ZM 168.1059,245.0666 ZM 168.7959,240.9062 c 0.0000,-2.7804 1.5018,-4.8099 4.2010 -4.8099c 3.0036,-0.0000 4.1604,2.5166 4.1604 4.6272c 0.0000,2.0295 -1.3192,4.5866 -4.2010 4.5866c -2.7195,-0.0000 -4.1604,-2.3339 -4.1604 -4.4040ZM 168.7959,240.9062 ZM 172.7737,236.7661 c -1.6236,-0.0000 -2.3745,1.9077 -2.3745 3.6734c 0.0000,1.5627 0.8930,4.1604 2.9022 4.1604c 0.9133,-0.0000 2.2527,-0.5480 2.2527 -3.2269c 0.0000,-2.9833 -1.1162,-4.6069 -2.7804 -4.6069ZM 177.8271,245.0666 ZM 185.2144,243.6054 v -4.4446 c 0.0000,-1.4206 -0.2435,-2.0904 -1.3192 -2.0904c -0.8930,-0.0000 -1.6642,0.3450 -2.6992 1.5627v 4.9722 c 0.0000,0.5885 0.2029,0.8930 0.8727 0.8930h 0.2841 c 0.1015,-0.0000 0.1624,0.0609 0.1624 0.1624v 0.3856 l -0.0406,0.0406 c 0.0000,-0.0000 -1.2786,-0.0406 -2.0701 -0.0406c -0.7306,-0.0000 -2.1107,0.0406 -2.1107 0.0406l -0.0406,-0.0406 v -0.3856 c 0.0000,-0.1015 0.0609,-0.1624 0.1624 -0.1624h 0.3856 c 0.6900,-0.0000 0.8727,-0.3044 0.8727 -0.8930v -5.0534 c 0.0000,-1.0959 -0.1624,-1.2380 -0.4465 -1.2380c -0.2638,-0.0000 -0.5074,0.0203 -0.8524 0.1015l -0.1015,-0.5683 c 0.8524,-0.1421 1.4612,-0.2435 2.0904 -0.5885c 0.2232,-0.1015 0.3856,-0.1624 0.5277 -0.1624h 0.3044 l -0.0609,1.8062 h 0.0609 c 1.2989,-1.5221 2.2730,-1.8062 3.3081 -1.8062c 1.8265,-0.0000 2.2121,1.4003 2.2121 3.2066v 4.3025 c 0.0000,0.5885 0.2232,0.8930 0.8727 0.8930h 0.3856 c 0.1015,-0.0000 0.1827,0.0609 0.1827 0.1624v 0.3856 l -0.0406,0.0406 c 0.0000,-0.0000 -1.4003,-0.0406 -2.1918 -0.0406c -0.7103,-0.0000 -1.9889,0.0406 -1.9889 0.0406l -0.0406,-0.0406 v -0.3856 c 0.0000,-0.1015 0.0609,-0.1624 0.1624 -0.1624h 0.2841 c 0.6697,-0.0000 0.8727,-0.3044 0.8727 -0.8930ZM 188.3804,245.0666 ZM 194.7935,239.3232 c 0.0000,-1.6845 -0.7915,-2.6586 -2.0092 -2.6586c -1.0553,-0.0000 -1.7656,0.7306 -1.7656 2.3136c 0.0000,1.0553 0.4059,2.7195 2.0295 2.7195c 0.7103,-0.0000 1.7454,-0.3450 1.7454 -2.3745ZM 194.7935,239.3232 ZM 190.9984,245.2087 c -0.6291,0.5885 -0.7712,1.2177 -0.7712 1.9077c 0.0000,1.5221 1.8265,1.9686 2.5166 1.9686c 1.7454,-0.0000 3.9575,-0.6088 3.9575 -2.0701c 0.0000,-0.5277 -0.2841,-0.8727 -1.0756 -1.2583c -0.5683,-0.2841 -1.4003,-0.5074 -2.3745 -0.5074c -0.1624,-0.0000 -0.3856,0.0203 -0.6697 0.0406c -0.2841,0.0203 -0.5885,0.0203 -0.8118 0.0203c -0.3247,-0.0000 -0.4871,-0.0406 -0.7712 -0.1015ZM 190.9984,245.2087 ZM 197.1680,237.1922 c -0.3247,-0.0000 -0.5277,-0.1827 -0.6088 -0.3450c -0.1218,-0.1827 -0.2029,-0.2435 -0.3450 -0.2435c -0.2435,-0.0000 -0.6291,0.2841 -0.7712 0.4871c 0.5683,0.6088 0.8321,1.1974 0.8321 2.1512c 0.0000,1.9889 -1.6236,3.0645 -3.3283 3.0645c -0.7509,-0.0000 -1.3598,-0.1421 -1.8265 -0.4262c -0.2232,0.3450 -0.3450,0.7712 -0.3450 1.1771c 0.0000,0.8727 0.6697,1.0959 1.2380 1.0959c 0.1015,-0.0000 0.3450,-0.0203 0.6291 -0.0406c 0.4668,-0.0609 0.9742,-0.1015 1.3192 -0.1015c 0.7103,-0.0000 2.0498,0.1421 2.8616 0.8321c 0.5480,0.5074 0.8524,0.9944 0.8524 1.6439c 0.0000,2.1918 -2.8819,3.3486 -5.4999 3.3486c -1.4815,-0.0000 -3.1254,-0.5480 -3.1254 -2.3136c 0.0000,-0.8727 0.5480,-1.8062 1.5830 -2.4557c -0.5074,-0.2638 -0.8727,-0.7712 -0.8727 -1.5018c 0.0000,-0.6900 0.3044,-1.5627 0.8524 -2.0498c -0.5480,-0.5480 -1.0147,-1.2380 -1.0147 -2.3542c 0.0000,-1.8671 1.6439,-3.0645 3.3689 -3.0645c 1.1365,-0.0000 1.8468,0.4668 2.0701 0.6291c 0.5074,-0.6900 1.4206,-1.0350 1.9280 -1.0350c 0.5277,-0.0000 0.8930,0.3450 0.8930 0.7712c 0.0000,0.4465 -0.2841,0.7306 -0.6900 0.7306ZM 198.2030,245.0666 ZM 200.5166,239.4450 h 3.7342 c 0.2029,-0.0000 0.2841,-0.1015 0.2841 -0.2841c 0.0000,-1.8874 -0.9539,-2.3745 -1.6845 -2.3745c -0.4668,-0.0000 -1.9889,0.1827 -2.3339 2.6586ZM 200.5166,239.4450 ZM 205.8745,243.1792 l 0.4059,0.3247 c -0.7712,1.0553 -1.9686,1.8062 -3.4298 1.8062c -2.7804,-0.0000 -3.9575,-2.0701 -3.9575 -4.2822c 0.0000,-3.0848 2.0295,-4.9316 3.9575 -4.9316c 2.6789,-0.0000 3.3081,2.0904 3.3081 3.7951c 0.0000,0.2232 -0.1421,0.3450 -0.3653 0.3450h -5.3375 c -0.0203,0.1218 -0.0203,0.2435 -0.0203 0.4059c 0.0000,2.0701 1.4409,3.6734 2.9022 3.6734c 1.1162,-0.0000 1.8265,-0.3653 2.5368 -1.1365ZM 206.8892,245.0666 ZM 208.6955,243.6054 v -5.0534 c 0.0000,-1.0147 -0.1421,-1.2380 -0.4465 -1.2380c -0.2638,-0.0000 -0.5074,0.0203 -0.8524 0.1015l -0.1015,-0.5683 c 1.2786,-0.2232 1.5018,-0.2841 2.1107 -0.5885c 0.2029,-0.1015 0.3653,-0.1624 0.5074 -0.1624h 0.3044 l -0.0609,1.8265 h 0.0609 c 0.5277,-0.7915 1.4206,-1.8265 2.3745 -1.8265c 0.8321,-0.0000 1.1365,0.4059 1.1365 0.9336c 0.0000,0.5277 -0.3450,0.8524 -0.8727 0.8524c -0.4059,-0.0000 -0.6291,-0.1624 -0.8321 -0.3653c -0.1218,-0.1218 -0.2638,-0.1827 -0.4059 -0.1827c -0.2232,-0.0000 -0.6697,0.3653 -1.1568 1.0553c -0.1421,0.1827 -0.2435,0.4465 -0.2435 0.7103v 4.5054 c 0.0000,0.5885 0.2029,0.8930 0.8727 0.8930h 0.5885 c 0.1015,-0.0000 0.1827,0.0609 0.1827 0.1624v 0.3856 l -0.0406,0.0406 c 0.0000,-0.0000 -1.6033,-0.0406 -2.3948 -0.0406c -0.7306,-0.0000 -2.1107,0.0406 -2.1107 0.0406l -0.0203,-0.0406 v -0.3856 c 0.0000,-0.1015 0.0406,-0.1624 0.1421 -0.1624h 0.3856 c 0.6900,-0.0000 0.8727,-0.3044 0.8727 -0.8930ZM 219.0052,245.0666 ZM 226.3925,243.6054 v -4.4446 c 0.0000,-1.4206 -0.2435,-2.0904 -1.3192 -2.0904c -0.8930,-0.0000 -1.6642,0.3450 -2.6992 1.5627v 4.9722 c 0.0000,0.5885 0.2029,0.8930 0.8727 0.8930h 0.2841 c 0.1015,-0.0000 0.1624,0.0609 0.1624 0.1624v 0.3856 l -0.0406,0.0406 c 0.0000,-0.0000 -1.2786,-0.0406 -2.0701 -0.0406c -0.7306,-0.0000 -2.1107,0.0406 -2.1107 0.0406l -0.0406,-0.0406 v -0.3856 c 0.0000,-0.1015 0.0609,-0.1624 0.1624 -0.1624h 0.3856 c 0.6900,-0.0000 0.8727,-0.3044 0.8727 -0.8930v -5.0534 c 0.0000,-1.0959 -0.1624,-1.2380 -0.4465 -1.2380c -0.2638,-0.0000 -0.5074,0.0203 -0.8524 0.1015l -0.1015,-0.5683 c 0.8524,-0.1421 1.4612,-0.2435 2.0904 -0.5885c 0.2232,-0.1015 0.3856,-0.1624 0.5277 -0.1624h 0.3044 l -0.0609,1.8062 h 0.0609 c 1.2989,-1.5221 2.2730,-1.8062 3.3081 -1.8062c 1.8265,-0.0000 2.2121,1.4003 2.2121 3.2066v 4.3025 c 0.0000,0.5885 0.2232,0.8930 0.8727 0.8930h 0.3856 c 0.1015,-0.0000 0.1827,0.0609 0.1827 0.1624v 0.3856 l -0.0406,0.0406 c 0.0000,-0.0000 -1.4003,-0.0406 -2.1918 -0.0406c -0.7103,-0.0000 -1.9889,0.0406 -1.9889 0.0406l -0.0406,-0.0406 v -0.3856 c 0.0000,-0.1015 0.0609,-0.1624 0.1624 -0.1624h 0.2841 c 0.6697,-0.0000 0.8727,-0.3044 0.8727 -0.8930ZM 229.5585,245.0666 ZM 235.4643,240.0944 l -1.6033,0.4059 c -1.7859,0.5480 -2.0498,1.4815 -2.0498 2.3948c 0.0000,0.6291 0.3044,1.5830 1.5830 1.5830c 0.6088,-0.0000 1.5424,-0.5885 2.0701 -1.0350v -3.3486 ZM 235.4643,240.0944 ZM 236.7632,245.3102 c -0.7712,-0.0000 -1.1974,-0.6900 -1.2786 -1.1771l -0.4668,0.3247 c -0.9336,0.6494 -1.2786,0.8524 -2.2121 0.8524c -1.4206,-0.0000 -2.4557,-0.8118 -2.4557 -2.3339c 0.0000,-1.5424 1.3192,-2.5977 3.2472 -3.0848l 1.8671,-0.4668 c 0.0000,-2.2933 -1.0553,-2.7195 -1.7454 -2.7195c -0.7712,-0.0000 -1.6642,0.3450 -1.6642 0.9742c 0.0000,0.2232 0.0406,0.3450 0.0609 0.4059c 0.0406,0.0812 0.0609,0.2232 0.0609 0.3653c 0.0000,0.2638 -0.2029,0.6697 -0.7915 0.6697c -0.4871,-0.0000 -0.8118,-0.3247 -0.8118 -0.8118c 0.0000,-1.1771 1.9077,-2.2121 3.2066 -2.2121c 1.4815,-0.0000 3.1863,0.6088 3.1863 3.4907v 2.9833 c 0.0000,1.2380 0.0203,1.7656 0.4871 1.7656c 0.4465,-0.0000 0.5683,-0.5683 0.5885 -1.0147l 0.5074,0.1015 c -0.1218,1.4815 -0.7509,1.8874 -1.7859 1.8874ZM 238.7115,245.0666 ZM 250.9492,243.6054 v -4.6678 c 0.0000,-1.3598 -0.5277,-1.8671 -1.2989 -1.8671c -0.7915,-0.0000 -1.4206,0.4059 -2.3948 1.4815c 0.0406,0.2435 0.0406,0.5277 0.0406 0.8118v 4.2416 c 0.0000,0.5885 0.2029,0.8930 0.8727 0.8930h 0.3450 c 0.1015,-0.0000 0.1827,0.0609 0.1827 0.1624v 0.3856 l -0.0406,0.0406 c 0.0000,-0.0000 -1.3598,-0.0406 -2.1512 -0.0406c -0.7306,-0.0000 -2.1310,0.0406 -2.1310 0.0406l -0.0406,-0.0406 v -0.3856 c 0.0000,-0.1015 0.0609,-0.1624 0.1624 -0.1624h 0.4059 c 0.6900,-0.0000 0.8727,-0.3044 0.8727 -0.8930v -4.6272 c 0.0000,-1.3598 -0.5480,-1.9077 -1.3192 -1.9077c -0.7103,-0.0000 -1.3800,0.5074 -2.3339 1.5018v 5.0331 c 0.0000,0.5885 0.2029,0.8930 0.8727 0.8930h 0.3856 c 0.0812,-0.0000 0.1624,0.0609 0.1624 0.1624v 0.3856 l -0.0406,0.0406 c 0.0000,-0.0000 -1.3800,-0.0406 -2.1715 -0.0406c -0.7306,-0.0000 -2.1107,0.0406 -2.1107 0.0406l -0.0406,-0.0406 v -0.3856 c 0.0000,-0.1015 0.0609,-0.1624 0.1624 -0.1624h 0.3856 c 0.6900,-0.0000 0.8727,-0.3044 0.8727 -0.8930v -5.0534 c 0.0000,-1.1568 -0.1827,-1.2380 -0.4465 -1.2380c -0.2638,-0.0000 -0.5074,0.0203 -0.8524 0.1015l -0.1015,-0.5683 c 1.2786,-0.2232 1.5627,-0.3044 2.1107 -0.5885c 0.2029,-0.1015 0.3653,-0.1624 0.5074 -0.1624h 0.3044 l -0.0609,1.7656 h 0.0609 c 0.9539,-1.0147 1.8062,-1.7656 3.0645 -1.7656c 1.1365,-0.0000 1.8468,0.8321 1.9686 1.7454c 1.1771,-1.2177 2.1310,-1.7454 3.2269 -1.7454c 1.7859,-0.0000 2.0904,1.4815 2.0904 3.2878v 4.2213 c 0.0000,0.5885 0.2029,0.8930 0.8727 0.8930h 0.3856 c 0.0812,-0.0000 0.1624,0.0609 0.1624 0.1624v 0.3856 l -0.0406,0.0406 c 0.0000,-0.0000 -1.3800,-0.0406 -2.1715 -0.0406c -0.7306,-0.0000 -2.1107,0.0406 -2.1107 0.0406l -0.0406,-0.0406 v -0.3856 c 0.0000,-0.1015 0.0609,-0.1624 0.1624 -0.1624h 0.3856 c 0.6697,-0.0000 0.8727,-0.3044 0.8727 -0.8930ZM 254.1355,245.0666 ZM 256.4491,239.4450 h 3.7342 c 0.2029,-0.0000 0.2841,-0.1015 0.2841 -0.2841c 0.0000,-1.8874 -0.9539,-2.3745 -1.6845 -2.3745c -0.4668,-0.0000 -1.9889,0.1827 -2.3339 2.6586ZM 256.4491,239.4450 ZM 261.8069,243.1792 l 0.4059,0.3247 c -0.7712,1.0553 -1.9686,1.8062 -3.4298 1.8062c -2.7804,-0.0000 -3.9575,-2.0701 -3.9575 -4.2822c 0.0000,-3.0848 2.0295,-4.9316 3.9575 -4.9316c 2.6789,-0.0000 3.3081,2.0904 3.3081 3.7951c 0.0000,0.2232 -0.1421,0.3450 -0.3653 0.3450h -5.3375 c -0.0203,0.1218 -0.0203,0.2435 -0.0203 0.4059c 0.0000,2.0701 1.4409,3.6734 2.9022 3.6734c 1.1162,-0.0000 1.8265,-0.3653 2.5368 -1.1365Z"/>
  </g>
  <g stroke-linejoin="miter" stroke-opacity="0.6" fill-opacity="0.0" stroke="rgb(255,127,14)" stroke-width="5.438302247606819" fill="rgb(0,0,0)" stroke-linecap="butt" stroke-miterlimit="10.0">
    <path d="M 89.6259,238.9477 h 17.4825 "/>
  </g>
  <g stroke-linejoin="miter" stroke-opacity="1.0" fill-opacity="0.63" stroke="rgb(0,0,0)" fill-rule="evenodd" stroke-width="0.0" fill="rgb(0,0,0)" stroke-linecap="butt" stroke-miterlimit="10.0">
    <path d="M 114.1014,210.1016 ZM 114.9741,207.2603 l 0.5480,-0.0203 c 0.0609,0.5074 0.2841,1.4815 0.7306 1.9483c 0.2029,0.2232 0.7509,0.5885 1.5018 0.5885c 0.7103,-0.0000 1.7656,-0.5683 1.7656 -1.5627c 0.0000,-0.8727 -0.4871,-1.4612 -2.0904 -2.1512c -1.4815,-0.6494 -2.2527,-1.0756 -2.2527 -2.5977c 0.0000,-1.3598 1.1974,-2.3339 2.8007 -2.3339c 1.0147,-0.0000 1.7656,0.1827 2.3948 0.5074c 0.1218,0.6494 0.1827,1.3395 0.2232 2.0701l -0.5480,0.0203 c -0.4262,-1.6642 -1.6439,-1.9889 -2.0701 -1.9889c -0.7712,-0.0000 -1.5627,0.3044 -1.5627 1.4206c 0.0000,0.8118 0.3856,1.2177 1.5018 1.6236c 1.6439,0.6088 2.9630,1.3395 2.9630 2.9630c 0.0000,2.0092 -2.1310,2.5977 -3.0848 2.5977c -0.7103,-0.0000 -1.2989,-0.0812 -1.8265 -0.2232c -0.1421,-0.0203 -0.2435,-0.0406 -0.3856 -0.0406c -0.1015,-0.0000 -0.2638,0.0203 -0.4668 0.0609c 0.0000,-0.8524 -0.0609,-1.8874 -0.1421 -2.8819ZM 121.6308,210.1016 ZM 124.9388,195.9358 v 6.8799 c 1.3598,-1.3598 2.5571,-1.6845 3.3486 -1.6845c 1.4612,-0.0000 2.1918,1.1162 2.1918 3.2066v 4.3025 c 0.0000,0.5885 0.2029,0.8930 0.8727 0.8930h 0.3856 c 0.0812,-0.0000 0.1624,0.0609 0.1624 0.1624v 0.3856 l -0.0406,0.0406 c 0.0000,-0.0000 -1.3800,-0.0406 -2.1918 -0.0406c -0.7103,-0.0000 -2.0904,0.0406 -2.0904 0.0406l -0.0406,-0.0406 v -0.3856 c 0.0000,-0.1015 0.0609,-0.1624 0.1624 -0.1624h 0.3856 c 0.6900,-0.0000 0.8727,-0.3044 0.8727 -0.8930v -4.5257 c 0.0000,-1.6439 -0.4465,-2.0295 -1.5830 -2.0295c -0.5885,-0.0000 -1.4612,0.5277 -2.4354 1.4815v 5.0737 c 0.0000,0.5885 0.2029,0.8930 0.8727 0.8930h 0.3856 c 0.0812,-0.0000 0.1624,0.0609 0.1624 0.1624v 0.3856 l -0.0406,0.0406 c 0.0000,-0.0000 -1.3800,-0.0406 -2.1715 -0.0406c -0.7306,-0.0000 -2.0904,0.0406 -2.0904 0.0406l -0.0406,-0.0406 v -0.3856 c 0.0000,-0.1015 0.0406,-0.1624 0.1421 -0.1624h 0.3856 c 0.6900,-0.0000 0.8727,-0.3044 0.8727 -0.8930v -10.1677 c 0.0000,-1.1568 -0.1827,-1.4815 -0.5885 -1.4815l -0.6697,0.0812 c -0.0609,-0.0000 -0.1015,-0.0406 -0.1015 -0.1015l -0.0406,-0.5074 c 0.3247,-0.0000 1.0553,-0.1218 1.4003 -0.1827c 0.3653,-0.0812 0.6697,-0.1624 1.0756 -0.3450h 0.4465 ZM 132.1435,210.1016 ZM 132.8335,205.9412 c 0.0000,-2.7804 1.5018,-4.8099 4.2010 -4.8099c 3.0036,-0.0000 4.1604,2.5166 4.1604 4.6272c 0.0000,2.0295 -1.3192,4.5866 -4.2010 4.5866c -2.7195,-0.0000 -4.1604,-2.3339 -4.1604 -4.4040ZM 132.8335,205.9412 ZM 136.8113,201.8010 c -1.6236,-0.0000 -2.3745,1.9077 -2.3745 3.6734c 0.0000,1.5627 0.8930,4.1604 2.9022 4.1604c 0.9133,-0.0000 2.2527,-0.5480 2.2527 -3.2269c 0.0000,-2.9833 -1.1162,-4.6069 -2.7804 -4.6069ZM 141.8647,210.1016 ZM 143.6709,208.6404 v -5.0534 c 0.0000,-1.0147 -0.1421,-1.2380 -0.4465 -1.2380c -0.2638,-0.0000 -0.5074,0.0203 -0.8524 0.1015l -0.1015,-0.5683 c 1.2786,-0.2232 1.5018,-0.2841 2.1107 -0.5885c 0.2029,-0.1015 0.3653,-0.1624 0.5074 -0.1624h 0.3044 l -0.0609,1.8265 h 0.0609 c 0.5277,-0.7915 1.4206,-1.8265 2.3745 -1.8265c 0.8321,-0.0000 1.1365,0.4059 1.1365 0.9336c 0.0000,0.5277 -0.3450,0.8524 -0.8727 0.8524c -0.4059,-0.0000 -0.6291,-0.1624 -0.8321 -0.3653c -0.1218,-0.1218 -0.2638,-0.1827 -0.4059 -0.1827c -0.2232,-0.0000 -0.6697,0.3653 -1.1568 1.0553c -0.1421,0.1827 -0.2435,0.4465 -0.2435 0.7103v 4.5054 c 0.0000,0.5885 0.2029,0.8930 0.8727 0.8930h 0.5885 c 0.1015,-0.0000 0.1827,0.0609 0.1827 0.1624v 0.3856 l -0.0406,0.0406 c 0.0000,-0.0000 -1.6033,-0.0406 -2.3948 -0.0406c -0.7306,-0.0000 -2.1107,0.0406 -2.1107 0.0406l -0.0203,-0.0406 v -0.3856 c 0.0000,-0.1015 0.0406,-0.1624 0.1421 -0.1624h 0.3856 c 0.6900,-0.0000 0.8727,-0.3044 0.8727 -0.8930ZM 148.9070,210.1016 ZM 152.2353,202.1663 v 5.1955 c 0.0000,1.2583 0.1218,1.8671 0.6697 1.8671c 0.5277,-0.0000 0.9336,-0.1624 1.4612 -0.5683l 0.3653,0.3450 c -0.7915,0.8930 -1.6033,1.3395 -2.5368 1.3395c -0.9336,-0.0000 -1.4815,-0.5683 -1.4815 -2.0092v -6.1696 h -1.3192 c -0.0609,-0.0000 -0.0812,-0.0203 -0.0812 -0.0812v -0.6291 c 0.0000,-0.0609 0.0203,-0.0812 0.0609 -0.0812c 1.3598,-0.0000 1.6845,-0.7915 1.6845 -2.3339v -0.3856 l 1.1771,-0.4059 v 3.1254 h 2.2324 c 0.1015,-0.0000 0.1624,0.0406 0.1624 0.1218v 0.4059 c 0.0000,0.1827 -0.2841,0.2638 -0.4871 0.2638h -1.9077 Z"/>
  </g>
  <g stroke-linejoin="miter" stroke-opacity="0.6" fill-opacity="0.0" stroke="rgb(31,119,180)" stroke-width="2.7191511238034094" fill="rgb(0,0,0)" stroke-linecap="butt" stroke-miterlimit="10.0">
    <path d="M 89.6259,203.9827 h 17.4825 "/>
  </g>
  <g stroke-linejoin="miter" stroke-opacity="1.0" fill-opacity="0.63" stroke="rgb(0,0,0)" fill-rule="evenodd" stroke-width="0.0" fill="rgb(0,0,0)" stroke-linecap="butt" stroke-miterlimit="10.0">
    <path d="M 101.8636,175.1366 ZM 103.9743,163.5482 c 0.0000,-0.5277 0.4262,-0.9742 0.9742 -0.9742c 0.5277,-0.0000 0.9742,0.4465 0.9742 0.9742c 0.0000,0.5480 -0.4465,0.9742 -0.9742 0.9742c -0.5480,-0.0000 -0.9742,-0.4262 -0.9742 -0.9742ZM 103.9743,163.5482 ZM 102.8987,179.0737 c 0.8930,-0.0000 1.5018,-1.6033 1.5018 -4.4649v -5.9870 c 0.0000,-1.0756 -0.1827,-1.2380 -0.4465 -1.2380c -0.2841,-0.0000 -0.5074,0.0203 -0.8524 0.1015l -0.1015,-0.5683 c 1.4815,-0.2435 1.9280,-0.4871 2.1918 -0.6291c 0.1421,-0.0609 0.2232,-0.1218 0.4262 -0.1218h 0.3044 v 7.8135 c 0.0000,2.6586 -0.2029,3.7748 -1.3192 4.9113c -0.5480,0.5277 -1.1365,0.7712 -1.6236 0.7712c -0.8321,-0.0000 -1.9077,-0.4262 -1.9077 -1.0350c 0.0000,-0.5074 0.3044,-0.7712 0.6494 -0.7712c 0.4871,-0.0000 0.7509,0.4668 0.8524 0.8930c 0.0609,0.2029 0.1624,0.3247 0.3247 0.3247ZM 107.4853,175.1366 ZM 116.1918,172.7824 c 0.0000,1.0147 0.1015,1.3395 0.5074 1.3395c 0.2435,-0.0000 0.6900,-0.0406 1.0350 -0.1015l 0.0812,0.5683 c -1.2380,0.2232 -2.2324,0.4262 -2.6992 0.7915h -0.4465 l 0.0609,-1.5018 h -0.0609 c -1.1162,1.2177 -2.0295,1.5018 -2.8616 1.5018c -2.0092,-0.0000 -2.5368,-1.3598 -2.5368 -2.7601v -4.6272 c 0.0000,-0.6697 -0.1421,-1.0147 -0.8930 -1.0147c -0.0812,-0.0000 -0.2232,0.0203 -0.3450 0.0203l -0.0609,-0.0203 v -0.5277 l 0.0609,-0.0609 c 0.0000,-0.0000 1.3800,0.0406 2.0295 0.0406c 0.2841,-0.0000 0.7509,-0.0406 0.7509 -0.0406l -0.0203,1.6236 v 4.3228 c 0.0000,1.8062 0.9336,2.1310 1.5424 2.1310c 0.4668,-0.0000 0.8930,-0.1827 1.3192 -0.4871c 0.4871,-0.3653 0.8118,-0.6494 1.0147 -0.9133v -5.0128 c 0.0000,-0.7306 -0.1015,-1.0756 -0.8524 -1.0756c -0.1218,-0.0000 -0.3450,0.0203 -0.4059 0.0203l -0.0406,-0.0406 v -0.5074 l 0.0406,-0.0609 c 0.0000,-0.0000 1.4409,0.0406 2.0092 0.0406c 0.4668,-0.0000 0.7915,-0.0406 0.7915 -0.0406l -0.0203,1.6033 v 4.7896 ZM 117.9777,175.1366 ZM 118.8504,172.2953 l 0.5480,-0.0203 c 0.0609,0.5074 0.2841,1.4815 0.7306 1.9483c 0.2029,0.2232 0.7509,0.5885 1.5018 0.5885c 0.7103,-0.0000 1.7656,-0.5683 1.7656 -1.5627c 0.0000,-0.8727 -0.4871,-1.4612 -2.0904 -2.1512c -1.4815,-0.6494 -2.2527,-1.0756 -2.2527 -2.5977c 0.0000,-1.3598 1.1974,-2.3339 2.8007 -2.3339c 1.0147,-0.0000 1.7656,0.1827 2.3948 0.5074c 0.1218,0.6494 0.1827,1.3395 0.2232 2.0701l -0.5480,0.0203 c -0.4262,-1.6642 -1.6439,-1.9889 -2.0701 -1.9889c -0.7712,-0.0000 -1.5627,0.3044 -1.5627 1.4206c 0.0000,0.8118 0.3856,1.2177 1.5018 1.6236c 1.6439,0.6088 2.9630,1.3395 2.9630 2.9630c 0.0000,2.0092 -2.1310,2.5977 -3.0848 2.5977c -0.7103,-0.0000 -1.2989,-0.0812 -1.8265 -0.2232c -0.1421,-0.0203 -0.2435,-0.0406 -0.3856 -0.0406c -0.1015,-0.0000 -0.2638,0.0203 -0.4668 0.0609c 0.0000,-0.8524 -0.0609,-1.8874 -0.1421 -2.8819ZM 125.5071,175.1366 ZM 128.8354,167.2013 v 5.1955 c 0.0000,1.2583 0.1218,1.8671 0.6697 1.8671c 0.5277,-0.0000 0.9336,-0.1624 1.4612 -0.5683l 0.3653,0.3450 c -0.7915,0.8930 -1.6033,1.3395 -2.5368 1.3395c -0.9336,-0.0000 -1.4815,-0.5683 -1.4815 -2.0092v -6.1696 h -1.3192 c -0.0609,-0.0000 -0.0812,-0.0203 -0.0812 -0.0812v -0.6291 c 0.0000,-0.0609 0.0203,-0.0812 0.0609 -0.0812c 1.3598,-0.0000 1.6845,-0.7915 1.6845 -2.3339v -0.3856 l 1.1771,-0.4059 v 3.1254 h 2.2324 c 0.1015,-0.0000 0.1624,0.0406 0.1624 0.1218v 0.4059 c 0.0000,0.1827 -0.2841,0.2638 -0.4871 0.2638h -1.9077 ZM 136.7098,175.1366 ZM 142.6156,170.1643 l -1.6033,0.4059 c -1.7859,0.5480 -2.0498,1.4815 -2.0498 2.3948c 0.0000,0.6291 0.3044,1.5830 1.5830 1.5830c 0.6088,-0.0000 1.5424,-0.5885 2.0701 -1.0350v -3.3486 ZM 142.6156,170.1643 ZM 143.9145,175.3801 c -0.7712,-0.0000 -1.1974,-0.6900 -1.2786 -1.1771l -0.4668,0.3247 c -0.9336,0.6494 -1.2786,0.8524 -2.2121 0.8524c -1.4206,-0.0000 -2.4557,-0.8118 -2.4557 -2.3339c 0.0000,-1.5424 1.3192,-2.5977 3.2472 -3.0848l 1.8671,-0.4668 c 0.0000,-2.2933 -1.0553,-2.7195 -1.7454 -2.7195c -0.7712,-0.0000 -1.6642,0.3450 -1.6642 0.9742c 0.0000,0.2232 0.0406,0.3450 0.0609 0.4059c 0.0406,0.0812 0.0609,0.2232 0.0609 0.3653c 0.0000,0.2638 -0.2029,0.6697 -0.7915 0.6697c -0.4871,-0.0000 -0.8118,-0.3247 -0.8118 -0.8118c 0.0000,-1.1771 1.9077,-2.2121 3.2066 -2.2121c 1.4815,-0.0000 3.1863,0.6088 3.1863 3.4907v 2.9833 c 0.0000,1.2380 0.0203,1.7656 0.4871 1.7656c 0.4465,-0.0000 0.5683,-0.5683 0.5885 -1.0147l 0.5074,0.1015 c -0.1218,1.4815 -0.7509,1.8874 -1.7859 1.8874ZM 150.9365,175.1366 ZM 157.3496,169.3931 c 0.0000,-1.6845 -0.7915,-2.6586 -2.0092 -2.6586c -1.0553,-0.0000 -1.7656,0.7306 -1.7656 2.3136c 0.0000,1.0553 0.4059,2.7195 2.0295 2.7195c 0.7103,-0.0000 1.7454,-0.3450 1.7454 -2.3745ZM 157.3496,169.3931 ZM 153.5545,175.2786 c -0.6291,0.5885 -0.7712,1.2177 -0.7712 1.9077c 0.0000,1.5221 1.8265,1.9686 2.5166 1.9686c 1.7454,-0.0000 3.9575,-0.6088 3.9575 -2.0701c 0.0000,-0.5277 -0.2841,-0.8727 -1.0756 -1.2583c -0.5683,-0.2841 -1.4003,-0.5074 -2.3745 -0.5074c -0.1624,-0.0000 -0.3856,0.0203 -0.6697 0.0406c -0.2841,0.0203 -0.5885,0.0203 -0.8118 0.0203c -0.3247,-0.0000 -0.4871,-0.0406 -0.7712 -0.1015ZM 153.5545,175.2786 ZM 159.7241,167.2622 c -0.3247,-0.0000 -0.5277,-0.1827 -0.6088 -0.3450c -0.1218,-0.1827 -0.2029,-0.2435 -0.3450 -0.2435c -0.2435,-0.0000 -0.6291,0.2841 -0.7712 0.4871c 0.5683,0.6088 0.8321,1.1974 0.8321 2.1512c 0.0000,1.9889 -1.6236,3.0645 -3.3283 3.0645c -0.7509,-0.0000 -1.3598,-0.1421 -1.8265 -0.4262c -0.2232,0.3450 -0.3450,0.7712 -0.3450 1.1771c 0.0000,0.8727 0.6697,1.0959 1.2380 1.0959c 0.1015,-0.0000 0.3450,-0.0203 0.6291 -0.0406c 0.4668,-0.0609 0.9742,-0.1015 1.3192 -0.1015c 0.7103,-0.0000 2.0498,0.1421 2.8616 0.8321c 0.5480,0.5074 0.8524,0.9944 0.8524 1.6439c 0.0000,2.1918 -2.8819,3.3486 -5.4999 3.3486c -1.4815,-0.0000 -3.1254,-0.5480 -3.1254 -2.3136c 0.0000,-0.8727 0.5480,-1.8062 1.5830 -2.4557c -0.5074,-0.2638 -0.8727,-0.7712 -0.8727 -1.5018c 0.0000,-0.6900 0.3044,-1.5627 0.8524 -2.0498c -0.5480,-0.5480 -1.0147,-1.2380 -1.0147 -2.3542c 0.0000,-1.8671 1.6439,-3.0645 3.3689 -3.0645c 1.1365,-0.0000 1.8468,0.4668 2.0701 0.6291c 0.5074,-0.6900 1.4206,-1.0350 1.9280 -1.0350c 0.5277,-0.0000 0.8930,0.3450 0.8930 0.7712c 0.0000,0.4465 -0.2841,0.7306 -0.6900 0.7306ZM 160.6577,175.1366 ZM 162.5857,173.6753 v -10.1677 c 0.0000,-1.1568 -0.2029,-1.4815 -0.6088 -1.4815l -0.6494,0.0812 c -0.0609,-0.0000 -0.1218,-0.0406 -0.1218 -0.1015l -0.0406,-0.5074 c 0.3247,-0.0000 1.0756,-0.1218 1.4206 -0.1827c 0.3653,-0.0812 0.6494,-0.1624 1.0553 -0.3450h 0.4465 v 12.7045 c 0.0000,0.5885 0.2232,0.8930 0.8727 0.8930h 0.4871 c 0.0812,-0.0000 0.1624,0.0609 0.1624 0.1624v 0.3856 l -0.0406,0.0406 c 0.0000,-0.0000 -1.4815,-0.0406 -2.2730 -0.0406c -0.7103,-0.0000 -2.1918,0.0406 -2.1918 0.0406l -0.0203,-0.0406 v -0.3856 c 0.0000,-0.1015 0.0406,-0.1624 0.1421 -0.1624h 0.4871 c 0.6697,-0.0000 0.8727,-0.3044 0.8727 -0.8930ZM 165.9343,175.1366 ZM 170.1556,166.8157 c 0.0000,0.1015 -0.1218,0.1624 -0.2232 0.1624c -0.6088,-0.0000 -0.8727,0.1218 -0.8727 0.4465c 0.0000,0.1218 0.0406,0.2841 0.1218 0.4668l 2.2324,5.2361 l 2.2527,-5.1549 c 0.1015,-0.1827 0.1421,-0.3450 0.1421 -0.4668c 0.0000,-0.4262 -0.4059,-0.5277 -0.8524 -0.5277h -0.0812 c -0.1015,-0.0000 -0.2029,-0.0812 -0.2029 -0.1421v -0.3856 l 0.0406,-0.0609 c 0.0000,-0.0000 1.1974,0.0406 1.9077 0.0406c 0.5683,-0.0000 1.4003,-0.0406 1.4003 -0.0406l 0.0609,0.0406 v 0.3856 c 0.0000,0.1015 -0.0812,0.1624 -0.2232 0.1624c -0.7712,-0.0000 -1.1568,0.7915 -1.4409 1.3800c -1.0756,2.2730 -1.9686,4.3634 -3.5922 8.2803c -0.6088,1.4612 -1.3395,3.1660 -2.7804 3.1660c -0.3856,-0.0000 -1.1771,-0.2232 -1.1771 -0.9539c 0.0000,-0.6088 0.4465,-0.7915 0.7712 -0.7915c 0.3044,-0.0000 0.5074,0.1218 0.6291 0.2841c 0.2029,0.2029 0.3450,0.3450 0.5480 0.3450c 0.3044,-0.0000 1.0147,-1.7454 1.5221 -2.9833c 0.1218,-0.2435 0.1624,-0.4465 0.1624 -0.6291c 0.0000,-0.2029 -0.1827,-0.7509 -0.3450 -1.1568l -2.5571,-5.9464 c -0.3247,-0.7712 -0.5480,-0.9944 -1.2380 -0.9944c -0.1218,-0.0000 -0.2029,-0.0609 -0.2029 -0.1421v -0.4059 l 0.0406,-0.0406 c 0.0000,-0.0000 0.8930,0.0406 1.5018 0.0406c 0.9539,-0.0000 2.4151,-0.0406 2.4151 -0.0406l 0.0406,0.0609 v 0.3653 ZM 176.2644,175.1366 ZM 179.2883,168.7640 v 5.0534 c 0.7103,0.8321 1.3800,0.8727 1.7048 0.8727c 2.1715,-0.0000 2.6586,-2.0295 2.6586 -3.7748c 0.0000,-2.4557 -0.9944,-3.8154 -2.2324 -3.8154c -0.6900,-0.0000 -1.6845,0.5885 -2.1310 1.6642ZM 179.2883,168.7640 ZM 177.7865,178.3431 v -10.0459 c 0.0000,-0.7712 -0.1827,-0.9133 -0.4668 -0.9133c -0.2638,-0.0000 -0.5074,0.0203 -0.8524 0.1015l -0.1015,-0.5683 c 1.2989,-0.2232 1.5424,-0.3044 2.1107 -0.5885c 0.2232,-0.1015 0.3653,-0.1624 0.5074 -0.1624h 0.3044 l -0.0609,1.6236 h 0.0609 c 0.9336,-1.4206 2.0295,-1.6236 2.6789 -1.6236c 1.9686,-0.0000 3.2675,2.0498 3.2675 4.2010c 0.0000,1.6439 -0.5074,2.9022 -1.4206 3.8357c -0.7915,0.7915 -1.6236,1.1771 -2.6992 1.1771c -0.7306,-0.0000 -1.2989,-0.1624 -1.8265 -0.4465v 3.4095 c 0.0000,0.5885 0.2232,0.8930 0.8727 0.8930h 0.3856 c 0.1015,-0.0000 0.1827,0.0609 0.1827 0.1624v 0.3856 l -0.0406,0.0406 c 0.0000,-0.0000 -1.4003,-0.0406 -2.1918 -0.0406c -0.7103,-0.0000 -2.0904,0.0406 -2.0904 0.0406l -0.0406,-0.0406 v -0.3856 c 0.0000,-0.1015 0.0609,-0.1624 0.1624 -0.1624h 0.3856 c 0.6697,-0.0000 0.8727,-0.3044 0.8727 -0.8930ZM 185.9856,175.1366 ZM 189.2936,160.9708 v 6.8799 c 1.3598,-1.3598 2.5571,-1.6845 3.3486 -1.6845c 1.4612,-0.0000 2.1918,1.1162 2.1918 3.2066v 4.3025 c 0.0000,0.5885 0.2029,0.8930 0.8727 0.8930h 0.3856 c 0.0812,-0.0000 0.1624,0.0609 0.1624 0.1624v 0.3856 l -0.0406,0.0406 c 0.0000,-0.0000 -1.3800,-0.0406 -2.1918 -0.0406c -0.7103,-0.0000 -2.0904,0.0406 -2.0904 0.0406l -0.0406,-0.0406 v -0.3856 c 0.0000,-0.1015 0.0609,-0.1624 0.1624 -0.1624h 0.3856 c 0.6900,-0.0000 0.8727,-0.3044 0.8727 -0.8930v -4.5257 c 0.0000,-1.6439 -0.4465,-2.0295 -1.5830 -2.0295c -0.5885,-0.0000 -1.4612,0.5277 -2.4354 1.4815v 5.0737 c 0.0000,0.5885 0.2029,0.8930 0.8727 0.8930h 0.3856 c 0.0812,-0.0000 0.1624,0.0609 0.1624 0.1624v 0.3856 l -0.0406,0.0406 c 0.0000,-0.0000 -1.3800,-0.0406 -2.1715 -0.0406c -0.7306,-0.0000 -2.0904,0.0406 -2.0904 0.0406l -0.0406,-0.0406 v -0.3856 c 0.0000,-0.1015 0.0406,-0.1624 0.1421 -0.1624h 0.3856 c 0.6900,-0.0000 0.8727,-0.3044 0.8727 -0.8930v -10.1677 c 0.0000,-1.1568 -0.1827,-1.4815 -0.5885 -1.4815l -0.6697,0.0812 c -0.0609,-0.0000 -0.1015,-0.0406 -0.1015 -0.1015l -0.0406,-0.5074 c 0.3247,-0.0000 1.0553,-0.1218 1.4003 -0.1827c 0.3653,-0.0812 0.6697,-0.1624 1.0756 -0.3450h 0.4465 Z"/>
  </g>
  <g stroke-linejoin="miter" stroke-opacity="1.0" fill-opacity="0.5" stroke="rgb(102,102,102)" stroke-width="4.078726685705114" fill="rgb(93,165,218)" stroke-linecap="butt" stroke-miterlimit="10.0">
    <path d="M 94.8706,169.0177 c 0.0000,-2.8966 -2.3482,-5.2448 -5.2448 -5.2448c -2.8966,-0.0000 -5.2448,2.3482 -5.2448 5.2448c -0.0000,2.8966 2.3482,5.2448 5.2448 5.2448c 2.8966,0.0000 5.2448,-2.3482 5.2448 -5.2448Z"/>
  </g>
  <g stroke-linejoin="miter" stroke-opacity="1.0" fill-opacity="0.63" stroke="rgb(0,0,0)" fill-rule="evenodd" stroke-width="0.0" fill="rgb(0,0,0)" stroke-linecap="butt" stroke-miterlimit="10.0">
    <path d="M 131.5839,140.1715 ZM 137.9971,134.4281 c 0.0000,-1.6845 -0.7915,-2.6586 -2.0092 -2.6586c -1.0553,-0.0000 -1.7656,0.7306 -1.7656 2.3136c 0.0000,1.0553 0.4059,2.7195 2.0295 2.7195c 0.7103,-0.0000 1.7454,-0.3450 1.7454 -2.3745ZM 137.9971,134.4281 ZM 134.2020,140.3136 c -0.6291,0.5885 -0.7712,1.2177 -0.7712 1.9077c 0.0000,1.5221 1.8265,1.9686 2.5166 1.9686c 1.7454,-0.0000 3.9575,-0.6088 3.9575 -2.0701c 0.0000,-0.5277 -0.2841,-0.8727 -1.0756 -1.2583c -0.5683,-0.2841 -1.4003,-0.5074 -2.3745 -0.5074c -0.1624,-0.0000 -0.3856,0.0203 -0.6697 0.0406c -0.2841,0.0203 -0.5885,0.0203 -0.8118 0.0203c -0.3247,-0.0000 -0.4871,-0.0406 -0.7712 -0.1015ZM 134.2020,140.3136 ZM 140.3716,132.2971 c -0.3247,-0.0000 -0.5277,-0.1827 -0.6088 -0.3450c -0.1218,-0.1827 -0.2029,-0.2435 -0.3450 -0.2435c -0.2435,-0.0000 -0.6291,0.2841 -0.7712 0.4871c 0.5683,0.6088 0.8321,1.1974 0.8321 2.1512c 0.0000,1.9889 -1.6236,3.0645 -3.3283 3.0645c -0.7509,-0.0000 -1.3598,-0.1421 -1.8265 -0.4262c -0.2232,0.3450 -0.3450,0.7712 -0.3450 1.1771c 0.0000,0.8727 0.6697,1.0959 1.2380 1.0959c 0.1015,-0.0000 0.3450,-0.0203 0.6291 -0.0406c 0.4668,-0.0609 0.9742,-0.1015 1.3192 -0.1015c 0.7103,-0.0000 2.0498,0.1421 2.8616 0.8321c 0.5480,0.5074 0.8524,0.9944 0.8524 1.6439c 0.0000,2.1918 -2.8819,3.3486 -5.4999 3.3486c -1.4815,-0.0000 -3.1254,-0.5480 -3.1254 -2.3136c 0.0000,-0.8727 0.5480,-1.8062 1.5830 -2.4557c -0.5074,-0.2638 -0.8727,-0.7712 -0.8727 -1.5018c 0.0000,-0.6900 0.3044,-1.5627 0.8524 -2.0498c -0.5480,-0.5480 -1.0147,-1.2380 -1.0147 -2.3542c 0.0000,-1.8671 1.6439,-3.0645 3.3689 -3.0645c 1.1365,-0.0000 1.8468,0.4668 2.0701 0.6291c 0.5074,-0.6900 1.4206,-1.0350 1.9280 -1.0350c 0.5277,-0.0000 0.8930,0.3450 0.8930 0.7712c 0.0000,0.4465 -0.2841,0.7306 -0.6900 0.7306ZM 141.3051,140.1715 ZM 143.2331,138.7103 v -10.1677 c 0.0000,-1.1568 -0.2029,-1.4815 -0.6088 -1.4815l -0.6494,0.0812 c -0.0609,-0.0000 -0.1218,-0.0406 -0.1218 -0.1015l -0.0406,-0.5074 c 0.3247,-0.0000 1.0756,-0.1218 1.4206 -0.1827c 0.3653,-0.0812 0.6494,-0.1624 1.0553 -0.3450h 0.4465 v 12.7045 c 0.0000,0.5885 0.2232,0.8930 0.8727 0.8930h 0.4871 c 0.0812,-0.0000 0.1624,0.0609 0.1624 0.1624v 0.3856 l -0.0406,0.0406 c 0.0000,-0.0000 -1.4815,-0.0406 -2.2730 -0.0406c -0.7103,-0.0000 -2.1918,0.0406 -2.1918 0.0406l -0.0203,-0.0406 v -0.3856 c 0.0000,-0.1015 0.0406,-0.1624 0.1421 -0.1624h 0.4871 c 0.6697,-0.0000 0.8727,-0.3044 0.8727 -0.8930ZM 146.5818,140.1715 ZM 150.8031,131.8507 c 0.0000,0.1015 -0.1218,0.1624 -0.2232 0.1624c -0.6088,-0.0000 -0.8727,0.1218 -0.8727 0.4465c 0.0000,0.1218 0.0406,0.2841 0.1218 0.4668l 2.2324,5.2361 l 2.2527,-5.1549 c 0.1015,-0.1827 0.1421,-0.3450 0.1421 -0.4668c 0.0000,-0.4262 -0.4059,-0.5277 -0.8524 -0.5277h -0.0812 c -0.1015,-0.0000 -0.2029,-0.0812 -0.2029 -0.1421v -0.3856 l 0.0406,-0.0609 c 0.0000,-0.0000 1.1974,0.0406 1.9077 0.0406c 0.5683,-0.0000 1.4003,-0.0406 1.4003 -0.0406l 0.0609,0.0406 v 0.3856 c 0.0000,0.1015 -0.0812,0.1624 -0.2232 0.1624c -0.7712,-0.0000 -1.1568,0.7915 -1.4409 1.3800c -1.0756,2.2730 -1.9686,4.3634 -3.5922 8.2803c -0.6088,1.4612 -1.3395,3.1660 -2.7804 3.1660c -0.3856,-0.0000 -1.1771,-0.2232 -1.1771 -0.9539c 0.0000,-0.6088 0.4465,-0.7915 0.7712 -0.7915c 0.3044,-0.0000 0.5074,0.1218 0.6291 0.2841c 0.2029,0.2029 0.3450,0.3450 0.5480 0.3450c 0.3044,-0.0000 1.0147,-1.7454 1.5221 -2.9833c 0.1218,-0.2435 0.1624,-0.4465 0.1624 -0.6291c 0.0000,-0.2029 -0.1827,-0.7509 -0.3450 -1.1568l -2.5571,-5.9464 c -0.3247,-0.7712 -0.5480,-0.9944 -1.2380 -0.9944c -0.1218,-0.0000 -0.2029,-0.0609 -0.2029 -0.1421v -0.4059 l 0.0406,-0.0406 c 0.0000,-0.0000 0.8930,0.0406 1.5018 0.0406c 0.9539,-0.0000 2.4151,-0.0406 2.4151 -0.0406l 0.0406,0.0609 v 0.3653 ZM 156.9118,140.1715 ZM 159.9358,133.7990 v 5.0534 c 0.7103,0.8321 1.3800,0.8727 1.7048 0.8727c 2.1715,-0.0000 2.6586,-2.0295 2.6586 -3.7748c 0.0000,-2.4557 -0.9944,-3.8154 -2.2324 -3.8154c -0.6900,-0.0000 -1.6845,0.5885 -2.1310 1.6642ZM 159.9358,133.7990 ZM 158.4339,143.3781 v -10.0459 c 0.0000,-0.7712 -0.1827,-0.9133 -0.4668 -0.9133c -0.2638,-0.0000 -0.5074,0.0203 -0.8524 0.1015l -0.1015,-0.5683 c 1.2989,-0.2232 1.5424,-0.3044 2.1107 -0.5885c 0.2232,-0.1015 0.3653,-0.1624 0.5074 -0.1624h 0.3044 l -0.0609,1.6236 h 0.0609 c 0.9336,-1.4206 2.0295,-1.6236 2.6789 -1.6236c 1.9686,-0.0000 3.2675,2.0498 3.2675 4.2010c 0.0000,1.6439 -0.5074,2.9022 -1.4206 3.8357c -0.7915,0.7915 -1.6236,1.1771 -2.6992 1.1771c -0.7306,-0.0000 -1.2989,-0.1624 -1.8265 -0.4465v 3.4095 c 0.0000,0.5885 0.2232,0.8930 0.8727 0.8930h 0.3856 c 0.1015,-0.0000 0.1827,0.0609 0.1827 0.1624v 0.3856 l -0.0406,0.0406 c 0.0000,-0.0000 -1.4003,-0.0406 -2.1918 -0.0406c -0.7103,-0.0000 -2.0904,0.0406 -2.0904 0.0406l -0.0406,-0.0406 v -0.3856 c 0.0000,-0.1015 0.0609,-0.1624 0.1624 -0.1624h 0.3856 c 0.6697,-0.0000 0.8727,-0.3044 0.8727 -0.8930ZM 166.6330,140.1715 ZM 169.9411,126.0058 v 6.8799 c 1.3598,-1.3598 2.5571,-1.6845 3.3486 -1.6845c 1.4612,-0.0000 2.1918,1.1162 2.1918 3.2066v 4.3025 c 0.0000,0.5885 0.2029,0.8930 0.8727 0.8930h 0.3856 c 0.0812,-0.0000 0.1624,0.0609 0.1624 0.1624v 0.3856 l -0.0406,0.0406 c 0.0000,-0.0000 -1.3800,-0.0406 -2.1918 -0.0406c -0.7103,-0.0000 -2.0904,0.0406 -2.0904 0.0406l -0.0406,-0.0406 v -0.3856 c 0.0000,-0.1015 0.0609,-0.1624 0.1624 -0.1624h 0.3856 c 0.6900,-0.0000 0.8727,-0.3044 0.8727 -0.8930v -4.5257 c 0.0000,-1.6439 -0.4465,-2.0295 -1.5830 -2.0295c -0.5885,-0.0000 -1.4612,0.5277 -2.4354 1.4815v 5.0737 c 0.0000,0.5885 0.2029,0.8930 0.8727 0.8930h 0.3856 c 0.0812,-0.0000 0.1624,0.0609 0.1624 0.1624v 0.3856 l -0.0406,0.0406 c 0.0000,-0.0000 -1.3800,-0.0406 -2.1715 -0.0406c -0.7306,-0.0000 -2.0904,0.0406 -2.0904 0.0406l -0.0406,-0.0406 v -0.3856 c 0.0000,-0.1015 0.0406,-0.1624 0.1421 -0.1624h 0.3856 c 0.6900,-0.0000 0.8727,-0.3044 0.8727 -0.8930v -10.1677 c 0.0000,-1.1568 -0.1827,-1.4815 -0.5885 -1.4815l -0.6697,0.0812 c -0.0609,-0.0000 -0.1015,-0.0406 -0.1015 -0.1015l -0.0406,-0.5074 c 0.3247,-0.0000 1.0553,-0.1218 1.4003 -0.1827c 0.3653,-0.0812 0.6697,-0.1624 1.0756 -0.3450h 0.4465 ZM 177.1457,140.1715 ZM 183.0109,134.9761 h 3.4907 v 0.9944 h -3.4907 v 3.5110 h -1.0147 v -3.5110 h -3.5110 v -0.9944 h 3.5110 v -3.5313 h 1.0147 v 3.5313 ZM 187.8411,140.1715 ZM 189.7691,138.7103 v -10.1677 c 0.0000,-1.1568 -0.2029,-1.4815 -0.6088 -1.4815l -0.6494,0.0812 c -0.0609,-0.0000 -0.1218,-0.0406 -0.1218 -0.1015l -0.0406,-0.5074 c 0.3247,-0.0000 1.0756,-0.1218 1.4206 -0.1827c 0.3653,-0.0812 0.6494,-0.1624 1.0553 -0.3450h 0.4465 v 12.7045 c 0.0000,0.5885 0.2232,0.8930 0.8727 0.8930h 0.4871 c 0.0812,-0.0000 0.1624,0.0609 0.1624 0.1624v 0.3856 l -0.0406,0.0406 c 0.0000,-0.0000 -1.4815,-0.0406 -2.2730 -0.0406c -0.7103,-0.0000 -2.1918,0.0406 -2.1918 0.0406l -0.0203,-0.0406 v -0.3856 c 0.0000,-0.1015 0.0406,-0.1624 0.1421 -0.1624h 0.4871 c 0.6697,-0.0000 0.8727,-0.3044 0.8727 -0.8930ZM 193.1177,140.1715 ZM 194.7007,128.5832 c 0.0000,-0.5277 0.4262,-0.9742 0.9539 -0.9742c 0.5480,-0.0000 0.9742,0.4465 0.9742 0.9742c 0.0000,0.5480 -0.4262,0.9742 -0.9742 0.9742c -0.5277,-0.0000 -0.9539,-0.4262 -0.9539 -0.9742ZM 194.7007,128.5832 ZM 196.6287,138.7103 c 0.0000,0.5885 0.2232,0.8930 0.8727 0.8930h 0.3856 c 0.1015,-0.0000 0.1827,0.0609 0.1827 0.1624v 0.3856 l -0.0406,0.0406 c 0.0000,-0.0000 -1.4003,-0.0406 -2.1918 -0.0406c -0.7103,-0.0000 -2.0904,0.0406 -2.0904 0.0406l -0.0406,-0.0406 v -0.3856 c 0.0000,-0.1015 0.0609,-0.1624 0.1624 -0.1624h 0.3856 c 0.6697,-0.0000 0.8727,-0.3044 0.8727 -0.8930v -5.0534 c 0.0000,-1.0756 -0.1827,-1.2380 -0.4668 -1.2380c -0.2638,-0.0000 -0.5074,0.0203 -0.8524 0.1015l -0.1015,-0.5683 c 1.2989,-0.2232 1.5221,-0.3044 2.1107 -0.5885c 0.2232,-0.0812 0.3653,-0.1624 0.5074 -0.1624h 0.3044 v 7.5091 ZM 198.4756,140.1715 ZM 205.8629,138.7103 v -4.4446 c 0.0000,-1.4206 -0.2435,-2.0904 -1.3192 -2.0904c -0.8930,-0.0000 -1.6642,0.3450 -2.6992 1.5627v 4.9722 c 0.0000,0.5885 0.2029,0.8930 0.8727 0.8930h 0.2841 c 0.1015,-0.0000 0.1624,0.0609 0.1624 0.1624v 0.3856 l -0.0406,0.0406 c 0.0000,-0.0000 -1.2786,-0.0406 -2.0701 -0.0406c -0.7306,-0.0000 -2.1107,0.0406 -2.1107 0.0406l -0.0406,-0.0406 v -0.3856 c 0.0000,-0.1015 0.0609,-0.1624 0.1624 -0.1624h 0.3856 c 0.6900,-0.0000 0.8727,-0.3044 0.8727 -0.8930v -5.0534 c 0.0000,-1.0959 -0.1624,-1.2380 -0.4465 -1.2380c -0.2638,-0.0000 -0.5074,0.0203 -0.8524 0.1015l -0.1015,-0.5683 c 0.8524,-0.1421 1.4612,-0.2435 2.0904 -0.5885c 0.2232,-0.1015 0.3856,-0.1624 0.5277 -0.1624h 0.3044 l -0.0609,1.8062 h 0.0609 c 1.2989,-1.5221 2.2730,-1.8062 3.3081 -1.8062c 1.8265,-0.0000 2.2121,1.4003 2.2121 3.2066v 4.3025 c 0.0000,0.5885 0.2232,0.8930 0.8727 0.8930h 0.3856 c 0.1015,-0.0000 0.1827,0.0609 0.1827 0.1624v 0.3856 l -0.0406,0.0406 c 0.0000,-0.0000 -1.4003,-0.0406 -2.1918 -0.0406c -0.7103,-0.0000 -1.9889,0.0406 -1.9889 0.0406l -0.0406,-0.0406 v -0.3856 c 0.0000,-0.1015 0.0609,-0.1624 0.1624 -0.1624h 0.2841 c 0.6697,-0.0000 0.8727,-0.3044 0.8727 -0.8930ZM 209.0289,140.1715 ZM 211.3425,134.5499 h 3.7342 c 0.2029,-0.0000 0.2841,-0.1015 0.2841 -0.2841c 0.0000,-1.8874 -0.9539,-2.3745 -1.6845 -2.3745c -0.4668,-0.0000 -1.9889,0.1827 -2.3339 2.6586ZM 211.3425,134.5499 ZM 216.7003,138.2841 l 0.4059,0.3247 c -0.7712,1.0553 -1.9686,1.8062 -3.4298 1.8062c -2.7804,-0.0000 -3.9575,-2.0701 -3.9575 -4.2822c 0.0000,-3.0848 2.0295,-4.9316 3.9575 -4.9316c 2.6789,-0.0000 3.3081,2.0904 3.3081 3.7951c 0.0000,0.2232 -0.1421,0.3450 -0.3653 0.3450h -5.3375 c -0.0203,0.1218 -0.0203,0.2435 -0.0203 0.4059c 0.0000,2.0701 1.4409,3.6734 2.9022 3.6734c 1.1162,-0.0000 1.8265,-0.3653 2.5368 -1.1365Z"/>
  </g>
  <g stroke-linejoin="miter" stroke-opacity="0.5" fill-opacity="0.0" stroke="rgb(93,165,218)" stroke-width="5.438302247606819" fill="rgb(0,0,0)" stroke-linecap="butt" stroke-miterlimit="10.0">
    <path d="M 54.6608,134.0526 h 69.9301 "/>
  </g>
  <g stroke-linejoin="miter" stroke-opacity="1.0" fill-opacity="0.5" stroke="rgb(102,102,102)" stroke-width="4.078726685705114" fill="rgb(93,165,218)" stroke-linecap="butt" stroke-miterlimit="10.0">
    <path d="M 94.8706,134.0526 c 0.0000,-2.8966 -2.3482,-5.2448 -5.2448 -5.2448c -2.8966,-0.0000 -5.2448,2.3482 -5.2448 5.2448c -0.0000,2.8966 2.3482,5.2448 5.2448 5.2448c 2.8966,0.0000 5.2448,-2.3482 5.2448 -5.2448Z"/>
  </g>
  <g stroke-linejoin="miter" stroke-opacity="1.0" fill-opacity="0.63" stroke="rgb(0,0,0)" fill-rule="evenodd" stroke-width="0.0" fill="rgb(0,0,0)" stroke-linecap="butt" stroke-miterlimit="10.0">
    <path d="M 105.3601,105.2065 ZM 107.1664,103.7453 v -5.0534 c 0.0000,-1.0147 -0.1421,-1.2380 -0.4465 -1.2380c -0.2638,-0.0000 -0.5074,0.0203 -0.8524 0.1015l -0.1015,-0.5683 c 1.2786,-0.2232 1.5018,-0.2841 2.1107 -0.5885c 0.2029,-0.1015 0.3653,-0.1624 0.5074 -0.1624h 0.3044 l -0.0609,1.8265 h 0.0609 c 0.5277,-0.7915 1.4206,-1.8265 2.3745 -1.8265c 0.8321,-0.0000 1.1365,0.4059 1.1365 0.9336c 0.0000,0.5277 -0.3450,0.8524 -0.8727 0.8524c -0.4059,-0.0000 -0.6291,-0.1624 -0.8321 -0.3653c -0.1218,-0.1218 -0.2638,-0.1827 -0.4059 -0.1827c -0.2232,-0.0000 -0.6697,0.3653 -1.1568 1.0553c -0.1421,0.1827 -0.2435,0.4465 -0.2435 0.7103v 4.5054 c 0.0000,0.5885 0.2029,0.8930 0.8727 0.8930h 0.5885 c 0.1015,-0.0000 0.1827,0.0609 0.1827 0.1624v 0.3856 l -0.0406,0.0406 c 0.0000,-0.0000 -1.6033,-0.0406 -2.3948 -0.0406c -0.7306,-0.0000 -2.1107,0.0406 -2.1107 0.0406l -0.0203,-0.0406 v -0.3856 c 0.0000,-0.1015 0.0406,-0.1624 0.1421 -0.1624h 0.3856 c 0.6900,-0.0000 0.8727,-0.3044 0.8727 -0.8930ZM 112.4024,105.2065 ZM 114.7160,99.5848 h 3.7342 c 0.2029,-0.0000 0.2841,-0.1015 0.2841 -0.2841c 0.0000,-1.8874 -0.9539,-2.3745 -1.6845 -2.3745c -0.4668,-0.0000 -1.9889,0.1827 -2.3339 2.6586ZM 114.7160,99.5848 ZM 120.0739,103.3191 l 0.4059,0.3247 c -0.7712,1.0553 -1.9686,1.8062 -3.4298 1.8062c -2.7804,-0.0000 -3.9575,-2.0701 -3.9575 -4.2822c 0.0000,-3.0848 2.0295,-4.9316 3.9575 -4.9316c 2.6789,-0.0000 3.3081,2.0904 3.3081 3.7951c 0.0000,0.2232 -0.1421,0.3450 -0.3653 0.3450h -5.3375 c -0.0203,0.1218 -0.0203,0.2435 -0.0203 0.4059c 0.0000,2.0701 1.4409,3.6734 2.9022 3.6734c 1.1162,-0.0000 1.8265,-0.3653 2.5368 -1.1365ZM 121.0886,105.2065 ZM 128.8818,103.3597 c -0.8930,1.5424 -1.8671,2.0904 -3.0848 2.0904c -2.4354,-0.0000 -3.9575,-1.8468 -3.9575 -4.4649c 0.0000,-2.8819 1.8062,-4.7490 3.9981 -4.7490c 1.9483,-0.0000 2.9833,0.9944 2.9833 2.0701c 0.0000,0.5885 -0.3653,0.8930 -0.7915 0.8930c -0.4262,-0.0000 -0.8321,-0.2232 -0.8930 -0.7306c -0.0812,-0.6697 -0.2029,-1.5424 -1.4003 -1.5424c -1.3395,-0.0000 -2.3339,1.4206 -2.3339 3.6125c 0.0000,2.3745 1.2786,4.0184 2.8413 4.0184c 0.8727,-0.0000 1.6439,-0.5683 2.2730 -1.4815ZM 129.2674,105.2065 ZM 132.5958,97.2712 v 5.1955 c 0.0000,1.2583 0.1218,1.8671 0.6697 1.8671c 0.5277,-0.0000 0.9336,-0.1624 1.4612 -0.5683l 0.3653,0.3450 c -0.7915,0.8930 -1.6033,1.3395 -2.5368 1.3395c -0.9336,-0.0000 -1.4815,-0.5683 -1.4815 -2.0092v -6.1696 h -1.3192 c -0.0609,-0.0000 -0.0812,-0.0203 -0.0812 -0.0812v -0.6291 c 0.0000,-0.0609 0.0203,-0.0812 0.0609 -0.0812c 1.3598,-0.0000 1.6845,-0.7915 1.6845 -2.3339v -0.3856 l 1.1771,-0.4059 v 3.1254 h 2.2324 c 0.1015,-0.0000 0.1624,0.0406 0.1624 0.1218v 0.4059 c 0.0000,0.1827 -0.2841,0.2638 -0.4871 0.2638h -1.9077 Z"/>
  </g>
  <g stroke-linejoin="miter" stroke-opacity="1.0" fill-opacity="0.5" stroke="rgb(102,102,102)" stroke-width="1.3595755619017047" fill="rgb(93,165,218)" stroke-linecap="butt" stroke-miterlimit="10.0">
    <path d="M 98.3671,107.8289 l -0.0000,-17.4825 h -17.4825 l -0.0000,17.4825 Z"/>
  </g>
  <g stroke-linejoin="miter" stroke-opacity="1.0" fill-opacity="0.63" stroke="rgb(0,0,0)" fill-rule="evenodd" stroke-width="0.0" fill="rgb(0,0,0)" stroke-linecap="butt" stroke-miterlimit="10.0">
    <path d="M 105.3601,70.2415 ZM 108.3841,63.8689 v 5.0534 c 0.7103,0.8321 1.3800,0.8727 1.7048 0.8727c 2.1715,-0.0000 2.6586,-2.0295 2.6586 -3.7748c 0.0000,-2.4557 -0.9944,-3.8154 -2.2324 -3.8154c -0.6900,-0.0000 -1.6845,0.5885 -2.1310 1.6642ZM 108.3841,63.8689 ZM 106.8823,73.4480 v -10.0459 c 0.0000,-0.7712 -0.1827,-0.9133 -0.4668 -0.9133c -0.2638,-0.0000 -0.5074,0.0203 -0.8524 0.1015l -0.1015,-0.5683 c 1.2989,-0.2232 1.5424,-0.3044 2.1107 -0.5885c 0.2232,-0.1015 0.3653,-0.1624 0.5074 -0.1624h 0.3044 l -0.0609,1.6236 h 0.0609 c 0.9336,-1.4206 2.0295,-1.6236 2.6789 -1.6236c 1.9686,-0.0000 3.2675,2.0498 3.2675 4.2010c 0.0000,1.6439 -0.5074,2.9022 -1.4206 3.8357c -0.7915,0.7915 -1.6236,1.1771 -2.6992 1.1771c -0.7306,-0.0000 -1.2989,-0.1624 -1.8265 -0.4465v 3.4095 c 0.0000,0.5885 0.2232,0.8930 0.8727 0.8930h 0.3856 c 0.1015,-0.0000 0.1827,0.0609 0.1827 0.1624v 0.3856 l -0.0406,0.0406 c 0.0000,-0.0000 -1.4003,-0.0406 -2.1918 -0.0406c -0.7103,-0.0000 -2.0904,0.0406 -2.0904 0.0406l -0.0406,-0.0406 v -0.3856 c 0.0000,-0.1015 0.0609,-0.1624 0.1624 -0.1624h 0.3856 c 0.6697,-0.0000 0.8727,-0.3044 0.8727 -0.8930ZM 115.0814,70.2415 ZM 116.6643,58.6531 c 0.0000,-0.5277 0.4262,-0.9742 0.9539 -0.9742c 0.5480,-0.0000 0.9742,0.4465 0.9742 0.9742c 0.0000,0.5480 -0.4262,0.9742 -0.9742 0.9742c -0.5277,-0.0000 -0.9539,-0.4262 -0.9539 -0.9742ZM 116.6643,58.6531 ZM 118.5924,68.7802 c 0.0000,0.5885 0.2232,0.8930 0.8727 0.8930h 0.3856 c 0.1015,-0.0000 0.1827,0.0609 0.1827 0.1624v 0.3856 l -0.0406,0.0406 c 0.0000,-0.0000 -1.4003,-0.0406 -2.1918 -0.0406c -0.7103,-0.0000 -2.0904,0.0406 -2.0904 0.0406l -0.0406,-0.0406 v -0.3856 c 0.0000,-0.1015 0.0609,-0.1624 0.1624 -0.1624h 0.3856 c 0.6697,-0.0000 0.8727,-0.3044 0.8727 -0.8930v -5.0534 c 0.0000,-1.0756 -0.1827,-1.2380 -0.4668 -1.2380c -0.2638,-0.0000 -0.5074,0.0203 -0.8524 0.1015l -0.1015,-0.5683 c 1.2989,-0.2232 1.5221,-0.3044 2.1107 -0.5885c 0.2232,-0.0812 0.3653,-0.1624 0.5074 -0.1624h 0.3044 v 7.5091 ZM 120.4392,70.2415 ZM 124.4373,62.0829 c -0.4059,-0.0000 -0.4871,0.1015 -0.4871 0.2435c 0.0000,0.1015 0.0812,0.2841 0.3044 0.6494l 1.2380,1.8265 c 0.0609,0.1218 0.1218,0.1827 0.2029 0.1827c 0.0609,-0.0000 0.1015,-0.0406 0.1827 -0.1421l 1.3192,-1.8468 c 0.2232,-0.2841 0.3450,-0.5074 0.3450 -0.6697c 0.0000,-0.1624 -0.1421,-0.2435 -0.4262 -0.2435h -0.3247 c -0.0609,-0.0000 -0.1218,-0.0406 -0.1218 -0.1421v -0.3856 l 0.0609,-0.0609 c 0.0000,-0.0000 0.9539,0.0406 1.5830 0.0406c 0.6494,-0.0000 1.6439,-0.0406 1.6439 -0.0406l 0.0203,0.0406 v 0.3856 c 0.0000,0.1421 -0.1218,0.1624 -0.2435 0.1624c -0.7509,-0.0000 -1.0553,0.2435 -1.8062 1.1974l -1.7048,2.1715 c -0.0406,0.0609 -0.0609,0.1015 -0.0609 0.1421c 0.0000,0.0406 0.0203,0.1015 0.0609 0.1624l 1.8265,2.5774 c 0.9336,1.3192 1.1974,1.3395 1.8468 1.3395c 0.2029,-0.0000 0.2841,0.0406 0.2841 0.1624v 0.3856 l -0.0203,0.0406 c 0.0000,-0.0000 -1.0959,-0.0406 -1.7859 -0.0406c -0.8321,-0.0000 -2.1107,0.0406 -2.1107 0.0406l -0.0406,-0.0406 v -0.3856 c 0.0000,-0.1015 0.0406,-0.1624 0.1421 -0.1624h 0.2435 c 0.3247,-0.0000 0.4668,-0.0609 0.4668 -0.2232c 0.0000,-0.1827 -0.2232,-0.4871 -0.5480 -0.9133l -1.1771,-1.6236 c -0.0812,-0.1015 -0.1218,-0.1421 -0.1827 -0.1421c -0.0406,-0.0000 -0.1015,0.0609 -0.1827 0.1827l -1.2786,1.8468 c -0.3044,0.4059 -0.3653,0.5074 -0.3653 0.6494c 0.0000,0.1421 0.1218,0.2232 0.4262 0.2232h 0.2841 c 0.1015,-0.0000 0.1421,0.0609 0.1421 0.1624v 0.3856 l -0.0406,0.0406 c 0.0000,-0.0000 -1.0553,-0.0406 -1.7048 -0.0406c -0.5885,-0.0000 -1.5221,0.0406 -1.5221 0.0406l -0.0406,-0.0406 v -0.3450 c 0.0000,-0.1218 0.0812,-0.2029 0.2638 -0.2029c 0.4871,-0.0000 0.9539,-0.1015 1.8062 -1.1974l 1.7048,-2.1918 c 0.0203,-0.0406 0.0406,-0.0812 0.0406 -0.1421c 0.0000,-0.0609 -0.0203,-0.1015 -0.0609 -0.1624l -1.7656,-2.5774 c -0.5683,-0.8321 -0.9336,-1.3192 -1.6439 -1.3192c -0.1421,-0.0000 -0.2841,-0.0609 -0.2841 -0.1421v -0.3856 l 0.0406,-0.0609 l 1.6033,0.0406 l 2.2527,-0.0406 l 0.0609,0.0609 v 0.3653 c 0.0000,0.1015 -0.0812,0.1624 -0.1624 0.1624h -0.3044 ZM 130.5257,70.2415 ZM 132.8393,64.6198 h 3.7342 c 0.2029,-0.0000 0.2841,-0.1015 0.2841 -0.2841c 0.0000,-1.8874 -0.9539,-2.3745 -1.6845 -2.3745c -0.4668,-0.0000 -1.9889,0.1827 -2.3339 2.6586ZM 132.8393,64.6198 ZM 138.1971,68.3540 l 0.4059,0.3247 c -0.7712,1.0553 -1.9686,1.8062 -3.4298 1.8062c -2.7804,-0.0000 -3.9575,-2.0701 -3.9575 -4.2822c 0.0000,-3.0848 2.0295,-4.9316 3.9575 -4.9316c 2.6789,-0.0000 3.3081,2.0904 3.3081 3.7951c 0.0000,0.2232 -0.1421,0.3450 -0.3653 0.3450h -5.3375 c -0.0203,0.1218 -0.0203,0.2435 -0.0203 0.4059c 0.0000,2.0701 1.4409,3.6734 2.9022 3.6734c 1.1162,-0.0000 1.8265,-0.3653 2.5368 -1.1365ZM 139.2119,70.2415 ZM 141.1399,68.7802 v -10.1677 c 0.0000,-1.1568 -0.2029,-1.4815 -0.6088 -1.4815l -0.6494,0.0812 c -0.0609,-0.0000 -0.1218,-0.0406 -0.1218 -0.1015l -0.0406,-0.5074 c 0.3247,-0.0000 1.0756,-0.1218 1.4206 -0.1827c 0.3653,-0.0812 0.6494,-0.1624 1.0553 -0.3450h 0.4465 v 12.7045 c 0.0000,0.5885 0.2232,0.8930 0.8727 0.8930h 0.4871 c 0.0812,-0.0000 0.1624,0.0609 0.1624 0.1624v 0.3856 l -0.0406,0.0406 c 0.0000,-0.0000 -1.4815,-0.0406 -2.2730 -0.0406c -0.7103,-0.0000 -2.1918,0.0406 -2.1918 0.0406l -0.0203,-0.0406 v -0.3856 c 0.0000,-0.1015 0.0406,-0.1624 0.1421 -0.1624h 0.4871 c 0.6697,-0.0000 0.8727,-0.3044 0.8727 -0.8930Z"/>
  </g>
  <g stroke-linejoin="miter" stroke-opacity="0.0" fill-opacity="0.5" stroke="rgb(0,0,0)" stroke-width="0.0" fill="rgb(93,165,218)" stroke-linecap="butt" stroke-miterlimit="10.0">
    <path d="M 98.3671,72.8638 l -0.0000,-17.4825 h -17.4825 l -0.0000,17.4825 Z"/>
  </g>
  <g stroke-linejoin="miter" stroke-opacity="1.0" fill-opacity="0.33" stroke="rgb(0,0,0)" fill-rule="evenodd" stroke-width="0.0" fill="rgb(0,0,0)" stroke-linecap="butt" stroke-miterlimit="10.0">
    <path d="M 59.3113,34.3718 ZM 61.5147,32.7019 v -11.6202 c 0.0000,-1.3221 -0.2319,-1.6932 -0.6958 -1.6932l -0.7422,0.0928 c -0.0696,-0.0000 -0.1392,-0.0464 -0.1392 -0.1160l -0.0464,-0.5799 c 0.3711,-0.0000 1.2293,-0.1392 1.6236 -0.2087c 0.4175,-0.0928 0.7422,-0.1856 1.2061 -0.3943h 0.5103 v 14.5195 c 0.0000,0.6726 0.2551,1.0205 0.9973 1.0205h 0.5567 c 0.0928,-0.0000 0.1856,0.0696 0.1856 0.1856v 0.4407 l -0.0464,0.0464 c 0.0000,-0.0000 -1.6932,-0.0464 -2.5977 -0.0464c -0.8118,-0.0000 -2.5050,0.0464 -2.5050 0.0464l -0.0232,-0.0464 v -0.4407 c 0.0000,-0.1160 0.0464,-0.1856 0.1624 -0.1856h 0.5567 c 0.7654,-0.0000 0.9973,-0.3479 0.9973 -1.0205ZM 65.3417,34.3718 ZM 67.9858,27.9471 h 4.2677 c 0.2319,-0.0000 0.3247,-0.1160 0.3247 -0.3247c 0.0000,-2.1570 -1.0901,-2.7137 -1.9251 -2.7137c -0.5335,-0.0000 -2.2730,0.2087 -2.6673 3.0384ZM 67.9858,27.9471 ZM 74.1091,32.2148 l 0.4639,0.3711 c -0.8814,1.2061 -2.2498,2.0643 -3.9198 2.0643c -3.1776,-0.0000 -4.5228,-2.3658 -4.5228 -4.8939c 0.0000,-3.5255 2.3194,-5.6362 4.5228 -5.6362c 3.0616,-0.0000 3.7806,2.3890 3.7806 4.3373c 0.0000,0.2551 -0.1624,0.3943 -0.4175 0.3943h -6.1000 c -0.0232,0.1392 -0.0232,0.2783 -0.0232 0.4639c 0.0000,2.3658 1.6468,4.1981 3.3167 4.1981c 1.2757,-0.0000 2.0875,-0.4175 2.8993 -1.2989ZM 75.2688,34.3718 ZM 82.5981,27.8079 c 0.0000,-1.9251 -0.9046,-3.0384 -2.2962 -3.0384c -1.2061,-0.0000 -2.0179,0.8350 -2.0179 2.6441c 0.0000,1.2061 0.4639,3.1080 2.3194 3.1080c 0.8118,-0.0000 1.9947,-0.3943 1.9947 -2.7137ZM 82.5981,27.8079 ZM 78.2608,34.5342 c -0.7190,0.6726 -0.8814,1.3916 -0.8814 2.1802c 0.0000,1.7396 2.0875,2.2498 2.8761 2.2498c 1.9947,-0.0000 4.5228,-0.6958 4.5228 -2.3658c 0.0000,-0.6030 -0.3247,-0.9973 -1.2293 -1.4380c -0.6494,-0.3247 -1.6004,-0.5799 -2.7137 -0.5799c -0.1856,-0.0000 -0.4407,0.0232 -0.7654 0.0464c -0.3247,0.0232 -0.6726,0.0232 -0.9278 0.0232c -0.3711,-0.0000 -0.5567,-0.0464 -0.8814 -0.1160ZM 78.2608,34.5342 ZM 85.3118,25.3726 c -0.3711,-0.0000 -0.6030,-0.2087 -0.6958 -0.3943c -0.1392,-0.2087 -0.2319,-0.2783 -0.3943 -0.2783c -0.2783,-0.0000 -0.7190,0.3247 -0.8814 0.5567c 0.6494,0.6958 0.9510,1.3684 0.9510 2.4586c 0.0000,2.2730 -1.8555,3.5023 -3.8038 3.5023c -0.8582,-0.0000 -1.5540,-0.1624 -2.0875 -0.4871c -0.2551,0.3943 -0.3943,0.8814 -0.3943 1.3453c 0.0000,0.9973 0.7654,1.2525 1.4148 1.2525c 0.1160,-0.0000 0.3943,-0.0232 0.7190 -0.0464c 0.5335,-0.0696 1.1133,-0.1160 1.5076 -0.1160c 0.8118,-0.0000 2.3426,0.1624 3.2704 0.9510c 0.6262,0.5799 0.9742,1.1365 0.9742 1.8787c 0.0000,2.5050 -3.2936,3.8270 -6.2856 3.8270c -1.6932,-0.0000 -3.5719,-0.6262 -3.5719 -2.6441c 0.0000,-0.9973 0.6262,-2.0643 1.8091 -2.8065c -0.5799,-0.3015 -0.9973,-0.8814 -0.9973 -1.7164c 0.0000,-0.7886 0.3479,-1.7859 0.9742 -2.3426c -0.6262,-0.6262 -1.1597,-1.4148 -1.1597 -2.6905c 0.0000,-2.1339 1.8787,-3.5023 3.8502 -3.5023c 1.2989,-0.0000 2.1107,0.5335 2.3658 0.7190c 0.5799,-0.7886 1.6236,-1.1829 2.2034 -1.1829c 0.6030,-0.0000 1.0205,0.3943 1.0205 0.8814c 0.0000,0.5103 -0.3247,0.8350 -0.7886 0.8350ZM 86.4947,34.3718 ZM 89.1388,27.9471 h 4.2677 c 0.2319,-0.0000 0.3247,-0.1160 0.3247 -0.3247c 0.0000,-2.1570 -1.0901,-2.7137 -1.9251 -2.7137c -0.5335,-0.0000 -2.2730,0.2087 -2.6673 3.0384ZM 89.1388,27.9471 ZM 95.2620,32.2148 l 0.4639,0.3711 c -0.8814,1.2061 -2.2498,2.0643 -3.9198 2.0643c -3.1776,-0.0000 -4.5228,-2.3658 -4.5228 -4.8939c 0.0000,-3.5255 2.3194,-5.6362 4.5228 -5.6362c 3.0616,-0.0000 3.7806,2.3890 3.7806 4.3373c 0.0000,0.2551 -0.1624,0.3943 -0.4175 0.3943h -6.1000 c -0.0232,0.1392 -0.0232,0.2783 -0.0232 0.4639c 0.0000,2.3658 1.6468,4.1981 3.3167 4.1981c 1.2757,-0.0000 2.0875,-0.4175 2.8993 -1.2989ZM 96.4217,34.3718 ZM 104.8644,32.7019 v -5.0795 c 0.0000,-1.6236 -0.2783,-2.3890 -1.5076 -2.3890c -1.0205,-0.0000 -1.9019,0.3943 -3.0848 1.7859v 5.6825 c 0.0000,0.6726 0.2319,1.0205 0.9973 1.0205h 0.3247 c 0.1160,-0.0000 0.1856,0.0696 0.1856 0.1856v 0.4407 l -0.0464,0.0464 c 0.0000,-0.0000 -1.4612,-0.0464 -2.3658 -0.0464c -0.8350,-0.0000 -2.4122,0.0464 -2.4122 0.0464l -0.0464,-0.0464 v -0.4407 c 0.0000,-0.1160 0.0696,-0.1856 0.1856 -0.1856h 0.4407 c 0.7886,-0.0000 0.9973,-0.3479 0.9973 -1.0205v -5.7753 c 0.0000,-1.2525 -0.1856,-1.4148 -0.5103 -1.4148c -0.3015,-0.0000 -0.5799,0.0232 -0.9742 0.1160l -0.1160,-0.6494 c 0.9742,-0.1624 1.6700,-0.2783 2.3890 -0.6726c 0.2551,-0.1160 0.4407,-0.1856 0.6030 -0.1856h 0.3479 l -0.0696,2.0643 h 0.0696 c 1.4844,-1.7396 2.5977,-2.0643 3.7806 -2.0643c 2.0875,-0.0000 2.5282,1.6004 2.5282 3.6647v 4.9171 c 0.0000,0.6726 0.2551,1.0205 0.9973 1.0205h 0.4407 c 0.1160,-0.0000 0.2087,0.0696 0.2087 0.1856v 0.4407 l -0.0464,0.0464 c 0.0000,-0.0000 -1.6004,-0.0464 -2.5050 -0.0464c -0.8118,-0.0000 -2.2730,0.0464 -2.2730 0.0464l -0.0464,-0.0464 v -0.4407 c 0.0000,-0.1160 0.0696,-0.1856 0.1856 -0.1856h 0.3247 c 0.7654,-0.0000 0.9973,-0.3479 0.9973 -1.0205ZM 108.4826,34.3718 ZM 116.2295,32.3076 v -6.0073 c -0.5567,-0.8814 -1.1829,-1.3684 -2.2730 -1.3684c -0.4639,-0.0000 -1.4148,0.0696 -2.1570 1.1597c -0.3247,0.4871 -0.7190,1.4844 -0.7190 3.1544c 0.0000,3.0384 1.5772,4.4301 2.8297 4.4301c 0.7654,-0.0000 1.3916,-0.4639 2.3194 -1.3684ZM 116.2295,32.3076 ZM 117.9690,18.1824 v 13.4062 c 0.0000,0.6958 0.0464,1.0669 0.0928 1.2293c 0.0696,0.2087 0.3247,0.3479 0.5103 0.3479c 0.2783,-0.0000 0.7886,-0.0000 1.1365 -0.0696l 0.0928,0.6494 c -1.3453,0.2319 -2.5513,0.4871 -3.0384 0.9046h -0.5567 l 0.0696,-1.6004 c -0.8814,0.9046 -1.7859,1.6004 -2.9688 1.6004c -2.5050,-0.0000 -4.0358,-2.1339 -4.0358 -4.9867c 0.0000,-1.7164 0.4639,-3.1544 1.4612 -4.1517c 0.9278,-0.8814 1.9483,-1.3916 3.4791 -1.3916c 0.4639,-0.0000 1.4844,0.2087 2.0179 0.5103v -3.5487 c 0.0000,-1.3221 -0.2087,-1.6932 -0.6726 -1.6932l -0.7654,0.0928 c -0.0464,-0.0000 -0.1160,-0.0464 -0.1160 -0.1160l -0.0464,-0.5799 c 0.3711,-0.0000 1.2061,-0.1392 1.6004 -0.2087c 0.4407,-0.0928 0.7654,-0.1856 1.2293 -0.3943h 0.5103 Z"/>
  </g>
  <g stroke-linejoin="miter" stroke-opacity="0.2" fill-opacity="0.0" stroke="rgb(0,0,0)" stroke-width="0.5438302247606819" fill="rgb(0,0,0)" stroke-linecap="butt" stroke-miterlimit="10.0">
    <path d="M 273.2297,300.0000 l -0.0000,-300.0000 h -228.9769 l -0.0000,300.0000 Z"/>
  </g>
</svg>