<?xml version="1.0" encoding="UTF-8"?>
<!DOCTYPE svg PUBLIC "-//W3C//DTD SVG 1.1//EN"
    "http://www.w3.org/Graphics/SVG/1.1/DTD/svg11.dtd">
<svg xmlns="http://www.w3.org/2000/svg" height="100.0000" stroke-opacity="1" viewBox="0 0 400 100" font-size="1" width="400.0000" xmlns:xlink="http://www.w3.org/1999/xlink" stroke="rgb(0,0,0)" version="1.1">
  <defs>
  </defs>
  <g stroke-linejoin="miter" stroke-opacity="0.0" fill-opacity="0.0" stroke="rgb(0,0,0)" fill-rule="evenodd" stroke-width="0.0" fill="rgb(0,0,0)" stroke-linecap="butt" stroke-miterlimit="10.0">
    <path d="M 353.0680,64.6284 l -0.0000,-19.9844 h -19.9844 l -0.0000,19.9844 Z"/>
  </g>
  <g stroke-linejoin="miter" stroke-opacity="1.0" fill-opacity="0.33" font-size="18.167618000579278px" stroke="rgb(0,0,0)" fill-rule="evenodd" stroke-width="0.0" fill="rgb(255,255,255)" stroke-linecap="butt" stroke-miterlimit="10.0">
    <text dominant-baseline="middle" transform="matrix(1.0000,-0.0000,0.0000,1.0000,343.0758,54.6362)" stroke="none" text-anchor="middle">10
    </text>
  </g>
  <g stroke-linejoin="miter" stroke-opacity="1.0" fill-opacity="0.5" stroke="rgb(102,102,102)" stroke-width="2.62451142261213" fill="rgb(93,165,218)" stroke-linecap="butt" stroke-miterlimit="10.0">
    <path d="M 347.4430,83.5530 c 0.0000,-2.4119 -1.9553,-4.3672 -4.3672 -4.3672c -2.4119,-0.0000 -4.3672,1.9553 -4.3672 4.3672c -0.0000,2.4119 1.9553,4.3672 4.3672 4.3672c 2.4119,0.0000 4.3672,-1.9553 4.3672 -4.3672Z"/>
  </g>
  <g stroke-linejoin="miter" stroke-opacity="0.0" fill-opacity="0.0" stroke="rgb(0,0,0)" fill-rule="evenodd" stroke-width="0.0" fill="rgb(0,0,0)" stroke-linecap="butt" stroke-miterlimit="10.0">
    <path d="M 318.9571,36.7906 l -0.0000,-19.9844 h -9.9922 l -0.0000,19.9844 Z"/>
  </g>
  <g stroke-linejoin="miter" stroke-opacity="1.0" fill-opacity="0.33" font-size="18.167618000579278px" stroke="rgb(0,0,0)" fill-rule="evenodd" stroke-width="0.0" fill="rgb(255,255,255)" stroke-linecap="butt" stroke-miterlimit="10.0">
    <text dominant-baseline="middle" transform="matrix(1.0000,-0.0000,0.0000,1.0000,313.9610,26.7984)" stroke="none" text-anchor="middle">9
    </text>
  </g>
  <g stroke-linejoin="miter" stroke-opacity="1.0" fill-opacity="0.5" stroke="rgb(102,102,102)" stroke-width="2.62451142261213" fill="rgb(93,165,218)" stroke-linecap="butt" stroke-miterlimit="10.0">
    <path d="M 318.3283,55.7152 c 0.0000,-2.4119 -1.9553,-4.3672 -4.3672 -4.3672c -2.4119,-0.0000 -4.3672,1.9553 -4.3672 4.3672c -0.0000,2.4119 1.9553,4.3672 4.3672 4.3672c 2.4119,0.0000 4.3672,-1.9553 4.3672 -4.3672Z"/>
  </g>
  <g stroke-linejoin="miter" stroke-opacity="0.0" fill-opacity="0.0" stroke="rgb(0,0,0)" fill-rule="evenodd" stroke-width="0.0" fill="rgb(0,0,0)" stroke-linecap="butt" stroke-miterlimit="10.0">
    <path d="M 289.8424,19.9844 l -0.0000,-19.9844 h -9.9922 l -0.0000,19.9844 Z"/>
  </g>
  <g stroke-linejoin="miter" stroke-opacity="1.0" fill-opacity="0.33" font-size="18.167618000579278px" stroke="rgb(0,0,0)" fill-rule="evenodd" stroke-width="0.0" fill="rgb(255,255,255)" stroke-linecap="butt" stroke-miterlimit="10.0">
    <text dominant-baseline="middle" transform="matrix(1.0000,-0.0000,0.0000,1.0000,284.8463,9.9922)" stroke="none" text-anchor="middle">8
    </text>
  </g>
  <g stroke-linejoin="miter" stroke-opacity="1.0" fill-opacity="0.5" stroke="rgb(102,102,102)" stroke-width="2.62451142261213" fill="rgb(93,165,218)" stroke-linecap="butt" stroke-miterlimit="10.0">
    <path d="M 289.2135,38.9090 c 0.0000,-2.4119 -1.9553,-4.3672 -4.3672 -4.3672c -2.4119,-0.0000 -4.3672,1.9553 -4.3672 4.3672c -0.0000,2.4119 1.9553,4.3672 4.3672 4.3672c 2.4119,0.0000 4.3672,-1.9553 4.3672 -4.3672Z"/>
  </g>
  <g stroke-linejoin="miter" stroke-opacity="0.0" fill-opacity="0.0" stroke="rgb(0,0,0)" fill-rule="evenodd" stroke-width="0.0" fill="rgb(0,0,0)" stroke-linecap="butt" stroke-miterlimit="10.0">
    <path d="M 260.7276,29.6613 l -0.0000,-19.9844 h -9.9922 l -0.0000,19.9844 Z"/>
  </g>
  <g stroke-linejoin="miter" stroke-opacity="1.0" fill-opacity="0.33" font-size="18.167618000579278px" stroke="rgb(0,0,0)" fill-rule="evenodd" stroke-width="0.0" fill="rgb(255,255,255)" stroke-linecap="butt" stroke-miterlimit="10.0">
    <text dominant-baseline="middle" transform="matrix(1.0000,-0.0000,0.0000,1.0000,255.7315,19.6691)" stroke="none" text-anchor="middle">7
    </text>
  </g>
  <g stroke-linejoin="miter" stroke-opacity="1.0" fill-opacity="0.5" stroke="rgb(102,102,102)" stroke-width="2.62451142261213" fill="rgb(93,165,218)" stroke-linecap="butt" stroke-miterlimit="10.0">
    <path d="M 260.0987,48.5859 c 0.0000,-2.4119 -1.9553,-4.3672 -4.3672 -4.3672c -2.4119,-0.0000 -4.3672,1.9553 -4.3672 4.3672c -0.0000,2.4119 1.9553,4.3672 4.3672 4.3672c 2.4119,0.0000 4.3672,-1.9553 4.3672 -4.3672Z"/>
  </g>
  <g stroke-linejoin="miter" stroke-opacity="0.0" fill-opacity="0.0" stroke="rgb(0,0,0)" fill-rule="evenodd" stroke-width="0.0" fill="rgb(0,0,0)" stroke-linecap="butt" stroke-miterlimit="10.0">
    <path d="M 231.6128,56.9244 l -0.0000,-19.9844 h -9.9922 l -0.0000,19.9844 Z"/>
  </g>
  <g stroke-linejoin="miter" stroke-opacity="1.0" fill-opacity="0.33" font-size="18.167618000579278px" stroke="rgb(0,0,0)" fill-rule="evenodd" stroke-width="0.0" fill="rgb(255,255,255)" stroke-linecap="butt" stroke-miterlimit="10.0">
    <text dominant-baseline="middle" transform="matrix(1.0000,-0.0000,0.0000,1.0000,226.6167,46.9322)" stroke="none" text-anchor="middle">6
    </text>
  </g>
  <g stroke-linejoin="miter" stroke-opacity="1.0" fill-opacity="0.5" stroke="rgb(102,102,102)" stroke-width="2.62451142261213" fill="rgb(93,165,218)" stroke-linecap="butt" stroke-miterlimit="10.0">
    <path d="M 230.9839,75.8490 c 0.0000,-2.4119 -1.9553,-4.3672 -4.3672 -4.3672c -2.4119,-0.0000 -4.3672,1.9553 -4.3672 4.3672c -0.0000,2.4119 1.9553,4.3672 4.3672 4.3672c 2.4119,0.0000 4.3672,-1.9553 4.3672 -4.3672Z"/>
  </g>
  <g stroke-linejoin="miter" stroke-opacity="0.0" fill-opacity="0.0" stroke="rgb(0,0,0)" fill-rule="evenodd" stroke-width="0.0" fill="rgb(0,0,0)" stroke-linecap="butt" stroke-miterlimit="10.0">
    <path d="M 202.4980,76.7082 l -0.0000,-19.9844 h -9.9922 l -0.0000,19.9844 Z"/>
  </g>
  <g stroke-linejoin="miter" stroke-opacity="1.0" fill-opacity="0.33" font-size="18.167618000579278px" stroke="rgb(0,0,0)" fill-rule="evenodd" stroke-width="0.0" fill="rgb(255,255,255)" stroke-linecap="butt" stroke-miterlimit="10.0">
    <text dominant-baseline="middle" transform="matrix(1.0000,-0.0000,0.0000,1.0000,197.5020,66.7160)" stroke="none" text-anchor="middle">5
    </text>
  </g>
  <g stroke-linejoin="miter" stroke-opacity="1.0" fill-opacity="0.5" stroke="rgb(102,102,102)" stroke-width="2.62451142261213" fill="rgb(93,165,218)" stroke-linecap="butt" stroke-miterlimit="10.0">
    <path d="M 201.8692,95.6328 c 0.0000,-2.4119 -1.9553,-4.3672 -4.3672 -4.3672c -2.4119,-0.0000 -4.3672,1.9553 -4.3672 4.3672c -0.0000,2.4119 1.9553,4.3672 4.3672 4.3672c 2.4119,0.0000 4.3672,-1.9553 4.3672 -4.3672Z"/>
  </g>
  <g stroke-linejoin="miter" stroke-opacity="0.0" fill-opacity="0.0" stroke="rgb(0,0,0)" fill-rule="evenodd" stroke-width="0.0" fill="rgb(0,0,0)" stroke-linecap="butt" stroke-miterlimit="10.0">
    <path d="M 173.3833,70.8235 l -0.0000,-19.9844 h -9.9922 l -0.0000,19.9844 Z"/>
  </g>
  <g stroke-linejoin="miter" stroke-opacity="1.0" fill-opacity="0.33" font-size="18.167618000579278px" stroke="rgb(0,0,0)" fill-rule="evenodd" stroke-width="0.0" fill="rgb(255,255,255)" stroke-linecap="butt" stroke-miterlimit="10.0">
    <text dominant-baseline="middle" transform="matrix(1.0000,-0.0000,0.0000,1.0000,168.3872,60.8313)" stroke="none" text-anchor="middle">4
    </text>
  </g>
  <g stroke-linejoin="miter" stroke-opacity="1.0" fill-opacity="0.5" stroke="rgb(102,102,102)" stroke-width="2.62451142261213" fill="rgb(93,165,218)" stroke-linecap="butt" stroke-miterlimit="10.0">
    <path d="M 172.7544,89.7481 c 0.0000,-2.4119 -1.9553,-4.3672 -4.3672 -4.3672c -2.4119,-0.0000 -4.3672,1.9553 -4.3672 4.3672c -0.0000,2.4119 1.9553,4.3672 4.3672 4.3672c 2.4119,0.0000 4.3672,-1.9553 4.3672 -4.3672Z"/>
  </g>
  <g stroke-linejoin="miter" stroke-opacity="0.0" fill-opacity="0.0" stroke="rgb(0,0,0)" fill-rule="evenodd" stroke-width="0.0" fill="rgb(0,0,0)" stroke-linecap="butt" stroke-miterlimit="10.0">
    <path d="M 144.2685,44.6806 l -0.0000,-19.9844 h -9.9922 l -0.0000,19.9844 Z"/>
  </g>
  <g stroke-linejoin="miter" stroke-opacity="1.0" fill-opacity="0.33" font-size="18.167618000579278px" stroke="rgb(0,0,0)" fill-rule="evenodd" stroke-width="0.0" fill="rgb(255,255,255)" stroke-linecap="butt" stroke-miterlimit="10.0">
    <text dominant-baseline="middle" transform="matrix(1.0000,-0.0000,0.0000,1.0000,139.2724,34.6885)" stroke="none" text-anchor="middle">3
    </text>
  </g>
  <g stroke-linejoin="miter" stroke-opacity="1.0" fill-opacity="0.5" stroke="rgb(102,102,102)" stroke-width="2.62451142261213" fill="rgb(93,165,218)" stroke-linecap="butt" stroke-miterlimit="10.0">
    <path d="M 143.6396,63.6052 c 0.0000,-2.4119 -1.9553,-4.3672 -4.3672 -4.3672c -2.4119,-0.0000 -4.3672,1.9553 -4.3672 4.3672c -0.0000,2.4119 1.9553,4.3672 4.3672 4.3672c 2.4119,0.0000 4.3672,-1.9553 4.3672 -4.3672Z"/>
  </g>
  <g stroke-linejoin="miter" stroke-opacity="0.0" fill-opacity="0.0" stroke="rgb(0,0,0)" fill-rule="evenodd" stroke-width="0.0" fill="rgb(0,0,0)" stroke-linecap="butt" stroke-miterlimit="10.0">
    <path d="M 115.1537,22.3153 l -0.0000,-19.9844 h -9.9922 l -0.0000,19.9844 Z"/>
  </g>
  <g stroke-linejoin="miter" stroke-opacity="1.0" fill-opacity="0.33" font-size="18.167618000579278px" stroke="rgb(0,0,0)" fill-rule="evenodd" stroke-width="0.0" fill="rgb(255,255,255)" stroke-linecap="butt" stroke-miterlimit="10.0">
    <text dominant-baseline="middle" transform="matrix(1.0000,-0.0000,0.0000,1.0000,110.1576,12.3231)" stroke="none" text-anchor="middle">2
    </text>
  </g>
  <g stroke-linejoin="miter" stroke-opacity="1.0" fill-opacity="0.5" stroke="rgb(102,102,102)" stroke-width="2.62451142261213" fill="rgb(93,165,218)" stroke-linecap="butt" stroke-miterlimit="10.0">
    <path d="M 114.5249,41.2399 c 0.0000,-2.4119 -1.9553,-4.3672 -4.3672 -4.3672c -2.4119,-0.0000 -4.3672,1.9553 -4.3672 4.3672c -0.0000,2.4119 1.9553,4.3672 4.3672 4.3672c 2.4119,0.0000 4.3672,-1.9553 4.3672 -4.3672Z"/>
  </g>
  <g stroke-linejoin="miter" stroke-opacity="0.0" fill-opacity="0.0" stroke="rgb(0,0,0)" fill-rule="evenodd" stroke-width="0.0" fill="rgb(0,0,0)" stroke-linecap="butt" stroke-miterlimit="10.0">
    <path d="M 86.0390,24.2901 l -0.0000,-19.9844 h -9.9922 l -0.0000,19.9844 Z"/>
  </g>
  <g stroke-linejoin="miter" stroke-opacity="1.0" fill-opacity="0.33" font-size="18.167618000579278px" stroke="rgb(0,0,0)" fill-rule="evenodd" stroke-width="0.0" fill="rgb(255,255,255)" stroke-linecap="butt" stroke-miterlimit="10.0">
    <text dominant-baseline="middle" transform="matrix(1.0000,-0.0000,0.0000,1.0000,81.0429,14.2979)" stroke="none" text-anchor="middle">1
    </text>
  </g>
  <g stroke-linejoin="miter" stroke-opacity="1.0" fill-opacity="0.5" stroke="rgb(102,102,102)" stroke-width="2.62451142261213" fill="rgb(93,165,218)" stroke-linecap="butt" stroke-miterlimit="10.0">
    <path d="M 85.4101,43.2147 c 0.0000,-2.4119 -1.9553,-4.3672 -4.3672 -4.3672c -2.4119,-0.0000 -4.3672,1.9553 -4.3672 4.3672c -0.0000,2.4119 1.9553,4.3672 4.3672 4.3672c 2.4119,0.0000 4.3672,-1.9553 4.3672 -4.3672Z"/>
  </g>
  <g stroke-linejoin="miter" stroke-opacity="0.0" fill-opacity="0.0" stroke="rgb(0,0,0)" fill-rule="evenodd" stroke-width="0.0" fill="rgb(0,0,0)" stroke-linecap="butt" stroke-miterlimit="10.0">
    <path d="M 56.9242,48.7893 l -0.0000,-19.9844 h -9.9922 l -0.0000,19.9844 Z"/>
  </g>
  <g stroke-linejoin="miter" stroke-opacity="1.0" fill-opacity="0.33" font-size="18.167618000579278px" stroke="rgb(0,0,0)" fill-rule="evenodd" stroke-width="0.0" fill="rgb(255,255,255)" stroke-linecap="butt" stroke-miterlimit="10.0">
    <text dominant-baseline="middle" transform="matrix(1.0000,-0.0000,0.0000,1.0000,51.9281,38.7971)" stroke="none" text-anchor="middle">0
    </text>
  </g>
  <g stroke-linejoin="miter" stroke-opacity="1.0" fill-opacity="0.5" stroke="rgb(102,102,102)" stroke-width="2.62451142261213" fill="rgb(93,165,218)" stroke-linecap="butt" stroke-miterlimit="10.0">
    <path d="M 56.2953,67.7139 c 0.0000,-2.4119 -1.9553,-4.3672 -4.3672 -4.3672c -2.4119,-0.0000 -4.3672,1.9553 -4.3672 4.3672c -0.0000,2.4119 1.9553,4.3672 4.3672 4.3672c 2.4119,0.0000 4.3672,-1.9553 4.3672 -4.3672Z"/>
  </g>
</svg>