<?xml version="1.0" encoding="UTF-8"?>
<!DOCTYPE svg PUBLIC "-//W3C//DTD SVG 1.1//EN"
    "http://www.w3.org/Graphics/SVG/1.1/DTD/svg11.dtd"><svg xmlns="http://www.w3.org/2000/svg" height="200.0000" stroke-opacity="1" viewBox="0 0 600 200" font-size="1" width="600.0000" xmlns:xlink="http://www.w3.org/1999/xlink" stroke="rgb(0,0,0)" version="1.1"><defs></defs><g stroke-linejoin="miter" stroke-opacity="1.0" fill-opacity="0.33" stroke="rgb(0,0,0)" fill-rule="evenodd" stroke-width="0.0" fill="rgb(0,0,0)" stroke-linecap="butt" stroke-miterlimit="10.0"><path d="M 550.3069,15.4035 ZM 555.6309,12.4917 c 0.0000,-1.7747 -0.9649,-2.6534 -2.0331 -2.6534c -0.7926,-0.0000 -1.3956,0.1206 -2.0676 0.3963l 0.5514,-4.7038 c 0.5686,0.0517 1.1544,0.0689 1.7574 0.0689c 0.8615,-0.0000 1.7574,-0.0517 2.6879 -0.1551l 0.1034,0.0517 l -0.2584,1.1199 c -0.6720,0.0689 -1.2233,0.0861 -1.7058 0.0861c -0.7753,-0.0000 -1.3612,-0.0689 -1.9642 -0.1378l -0.3274,2.7223 c 0.3618,-0.1378 0.9821,-0.2584 1.6541 -0.2584c 1.8264,-0.0000 2.8429,1.5851 2.8429 3.1703c 0.0000,1.9297 -1.3439,3.4115 -3.2909 3.4115c -0.9821,-0.0000 -2.4122,-0.5514 -2.4122 -1.2233c 0.0000,-0.3274 0.2757,-0.5514 0.5858 -0.5514c 0.3446,-0.0000 0.5686,0.2584 0.7753 0.5341c 0.2584,0.3101 0.5341,0.6547 1.0855 0.6547c 1.1027,-0.0000 2.0159,-1.0338 2.0159 -2.5328ZM 557.8536,15.4035 ZM 559.6455,13.7667 c 0.6892,-0.0000 1.1372,0.6720 1.1372 1.7058c 0.0000,1.2061 -0.8615,1.7747 -1.8953 1.9642l -0.0861,-0.4307 c 0.8960,-0.2240 1.3095,-0.7409 1.3095 -1.1027c 0.0000,-0.3963 -0.2929,-0.4652 -0.6203 -0.4997c -0.3101,-0.0517 -0.7581,-0.1895 -0.7581 -0.7581c 0.0000,-0.4824 0.3791,-0.8787 0.9132 -0.8787ZM 561.6269,15.4035 ZM 566.9510,12.4917 c 0.0000,-1.7747 -0.9649,-2.6534 -2.0331 -2.6534c -0.7926,-0.0000 -1.3956,0.1206 -2.0676 0.3963l 0.5514,-4.7038 c 0.5686,0.0517 1.1544,0.0689 1.7574 0.0689c 0.8615,-0.0000 1.7574,-0.0517 2.6879 -0.1551l 0.1034,0.0517 l -0.2584,1.1199 c -0.6720,0.0689 -1.2233,0.0861 -1.7058 0.0861c -0.7753,-0.0000 -1.3612,-0.0689 -1.9642 -0.1378l -0.3274,2.7223 c 0.3618,-0.1378 0.9821,-0.2584 1.6541 -0.2584c 1.8264,-0.0000 2.8429,1.5851 2.8429 3.1703c 0.0000,1.9297 -1.3439,3.4115 -3.2909 3.4115c -0.9821,-0.0000 -2.4122,-0.5514 -2.4122 -1.2233c 0.0000,-0.3274 0.2757,-0.5514 0.5858 -0.5514c 0.3446,-0.0000 0.5686,0.2584 0.7753 0.5341c 0.2584,0.3101 0.5341,0.6547 1.0855 0.6547c 1.1027,-0.0000 2.0159,-1.0338 2.0159 -2.5328Z"/></g><g stroke-linejoin="miter" stroke-opacity="1.0" fill-opacity="1.0" stroke="rgb(102,102,102)" stroke-width="0.0" fill="rgb(0,0,0)" stroke-linecap="butt" stroke-miterlimit="10.0"><path d="M 561.4719,25.1082 c 0.0000,-0.9563 -0.7753,-1.7316 -1.7316 -1.7316c -0.9563,-0.0000 -1.7316,0.7753 -1.7316 1.7316c -0.0000,0.9563 0.7753,1.7316 1.7316 1.7316c 0.9563,0.0000 1.7316,-0.7753 1.7316 -1.7316Z"/></g><g stroke-linejoin="miter" stroke-opacity="1.0" fill-opacity="0.33" stroke="rgb(0,0,0)" fill-rule="evenodd" stroke-width="0.0" fill="rgb(0,0,0)" stroke-linecap="butt" stroke-miterlimit="10.0"><path d="M 550.3069,50.0355 ZM 555.6309,47.1237 c 0.0000,-1.7747 -0.9649,-2.6534 -2.0331 -2.6534c -0.7926,-0.0000 -1.3956,0.1206 -2.0676 0.3963l 0.5514,-4.7038 c 0.5686,0.0517 1.1544,0.0689 1.7574 0.0689c 0.8615,-0.0000 1.7574,-0.0517 2.6879 -0.1551l 0.1034,0.0517 l -0.2584,1.1199 c -0.6720,0.0689 -1.2233,0.0861 -1.7058 0.0861c -0.7753,-0.0000 -1.3612,-0.0689 -1.9642 -0.1378l -0.3274,2.7223 c 0.3618,-0.1378 0.9821,-0.2584 1.6541 -0.2584c 1.8264,-0.0000 2.8429,1.5851 2.8429 3.1703c 0.0000,1.9297 -1.3439,3.4115 -3.2909 3.4115c -0.9821,-0.0000 -2.4122,-0.5514 -2.4122 -1.2233c 0.0000,-0.3274 0.2757,-0.5514 0.5858 -0.5514c 0.3446,-0.0000 0.5686,0.2584 0.7753 0.5341c 0.2584,0.3101 0.5341,0.6547 1.0855 0.6547c 1.1027,-0.0000 2.0159,-1.0338 2.0159 -2.5328ZM 557.8536,50.0355 ZM 559.6455,48.3987 c 0.6892,-0.0000 1.1372,0.6720 1.1372 1.7058c 0.0000,1.2061 -0.8615,1.7747 -1.8953 1.9642l -0.0861,-0.4307 c 0.8960,-0.2240 1.3095,-0.7409 1.3095 -1.1027c 0.0000,-0.3963 -0.2929,-0.4652 -0.6203 -0.4997c -0.3101,-0.0517 -0.7581,-0.1895 -0.7581 -0.7581c 0.0000,-0.4824 0.3791,-0.8787 0.9132 -0.8787ZM 561.6269,50.0355 ZM 566.0722,43.9189 c 0.0000,-0.1206 0.0172,-0.2584 0.1723 -0.3446c 0.1895,-0.1378 0.4997,-0.2929 0.7581 -0.2929c 0.2240,-0.0000 0.2412,0.1895 0.2412 0.5341v 2.7740 h 1.3956 l -0.1034,0.8098 h -1.2922 v 1.4301 c 0.0000,0.4824 0.0689,0.7237 0.5686 0.7237h 0.4652 c 0.1034,-0.0000 0.1206,0.0861 0.1206 0.1206v 0.3791 c 0.0000,-0.0000 -1.1027,-0.0345 -1.8264 -0.0345c -0.6547,-0.0000 -1.6713,0.0345 -1.6713 0.0345v -0.3791 c 0.0000,-0.0345 0.0172,-0.1206 0.1206 -0.1206h 0.4652 c 0.5341,-0.0000 0.5858,-0.2240 0.5858 -0.7237v -1.4301 h -3.3771 c -0.0689,-0.0000 -0.1034,-0.0345 -0.1551 -0.1034l -0.1378,-0.1895 l -0.2068,-0.3618 c -0.0172,-0.0000 -0.0172,-0.0172 -0.0172 -0.0345c 0.0000,-0.0172 0.0172,-0.0345 0.0345 -0.0517c 1.1199,-1.2406 3.1014,-5.0828 3.7217 -6.4957c 0.0172,-0.0689 0.0517,-0.0861 0.1206 -0.0861c 0.0172,-0.0000 0.3963,0.1551 0.6030 0.1895c -0.7753,2.0848 -2.0504,4.3247 -3.3081 6.3234h 2.7223 v -2.6706 Z"/></g><g stroke-linejoin="miter" stroke-opacity="1.0" fill-opacity="1.0" stroke="rgb(102,102,102)" stroke-width="0.0" fill="rgb(0,0,0)" stroke-linecap="butt" stroke-miterlimit="10.0"><path d="M 561.4719,59.7403 c 0.0000,-0.9563 -0.7753,-1.7316 -1.7316 -1.7316c -0.9563,-0.0000 -1.7316,0.7753 -1.7316 1.7316c -0.0000,0.9563 0.7753,1.7316 1.7316 1.7316c 0.9563,0.0000 1.7316,-0.7753 1.7316 -1.7316Z"/></g><g stroke-linejoin="miter" stroke-opacity="1.0" fill-opacity="0.33" stroke="rgb(0,0,0)" fill-rule="evenodd" stroke-width="0.0" fill="rgb(0,0,0)" stroke-linecap="butt" stroke-miterlimit="10.0"><path d="M 550.3069,84.6676 ZM 555.6309,81.7557 c 0.0000,-1.7747 -0.9649,-2.6534 -2.0331 -2.6534c -0.7926,-0.0000 -1.3956,0.1206 -2.0676 0.3963l 0.5514,-4.7038 c 0.5686,0.0517 1.1544,0.0689 1.7574 0.0689c 0.8615,-0.0000 1.7574,-0.0517 2.6879 -0.1551l 0.1034,0.0517 l -0.2584,1.1199 c -0.6720,0.0689 -1.2233,0.0861 -1.7058 0.0861c -0.7753,-0.0000 -1.3612,-0.0689 -1.9642 -0.1378l -0.3274,2.7223 c 0.3618,-0.1378 0.9821,-0.2584 1.6541 -0.2584c 1.8264,-0.0000 2.8429,1.5851 2.8429 3.1703c 0.0000,1.9297 -1.3439,3.4115 -3.2909 3.4115c -0.9821,-0.0000 -2.4122,-0.5514 -2.4122 -1.2233c 0.0000,-0.3274 0.2757,-0.5514 0.5858 -0.5514c 0.3446,-0.0000 0.5686,0.2584 0.7753 0.5341c 0.2584,0.3101 0.5341,0.6547 1.0855 0.6547c 1.1027,-0.0000 2.0159,-1.0338 2.0159 -2.5328ZM 557.8536,84.6676 ZM 559.6455,83.0307 c 0.6892,-0.0000 1.1372,0.6720 1.1372 1.7058c 0.0000,1.2061 -0.8615,1.7747 -1.8953 1.9642l -0.0861,-0.4307 c 0.8960,-0.2240 1.3095,-0.7409 1.3095 -1.1027c 0.0000,-0.3963 -0.2929,-0.4652 -0.6203 -0.4997c -0.3101,-0.0517 -0.7581,-0.1895 -0.7581 -0.7581c 0.0000,-0.4824 0.3791,-0.8787 0.9132 -0.8787ZM 561.6269,84.6676 ZM 565.3486,75.2428 c -0.4307,-0.0000 -1.6885,0.2412 -1.6885 1.2922c 0.0000,0.3101 -0.1206,0.8443 -0.5858 0.8443c -0.4480,-0.0000 -0.4824,-0.4997 -0.4824 -0.5514c 0.0000,-0.5341 0.7064,-2.1193 3.1014 -2.1193c 1.6713,-0.0000 2.1710,1.0510 2.1710 1.7402c 0.0000,0.4307 -0.1378,1.2922 -1.6885 2.2743c 0.9649,0.1551 2.2399,0.8615 2.2399 2.6534c 0.0000,2.2743 -1.7230,3.4977 -3.6700 3.4977c -0.9821,-0.0000 -2.3605,-0.4307 -2.3605 -1.0855c 0.0000,-0.2584 0.2584,-0.5514 0.6030 -0.5514c 0.3274,-0.0000 0.4824,0.1723 0.6375 0.3963c 0.1895,0.2929 0.4997,0.7064 1.3267 0.7064c 0.5686,-0.0000 2.1882,-0.5686 2.1882 -2.7395c 0.0000,-1.8436 -1.2922,-2.1365 -2.2227 -2.1365c -0.1551,-0.0000 -0.3446,0.0345 -0.5341 0.0689l -0.0689,-0.5169 c 1.3267,-0.2240 2.4294,-1.5162 2.4294 -2.3088c 0.0000,-0.9821 -0.6892,-1.4645 -1.3956 -1.4645Z"/></g><g stroke-linejoin="miter" stroke-opacity="1.0" fill-opacity="1.0" stroke="rgb(102,102,102)" stroke-width="0.0" fill="rgb(0,0,0)" stroke-linecap="butt" stroke-miterlimit="10.0"><path d="M 561.4719,94.3723 c 0.0000,-0.9563 -0.7753,-1.7316 -1.7316 -1.7316c -0.9563,-0.0000 -1.7316,0.7753 -1.7316 1.7316c -0.0000,0.9563 0.7753,1.7316 1.7316 1.7316c 0.9563,0.0000 1.7316,-0.7753 1.7316 -1.7316Z"/></g><g stroke-linejoin="miter" stroke-opacity="1.0" fill-opacity="0.33" stroke="rgb(0,0,0)" fill-rule="evenodd" stroke-width="0.0" fill="rgb(0,0,0)" stroke-linecap="butt" stroke-miterlimit="10.0"><path d="M 550.3069,119.2996 ZM 555.6309,116.3878 c 0.0000,-1.7747 -0.9649,-2.6534 -2.0331 -2.6534c -0.7926,-0.0000 -1.3956,0.1206 -2.0676 0.3963l 0.5514,-4.7038 c 0.5686,0.0517 1.1544,0.0689 1.7574 0.0689c 0.8615,-0.0000 1.7574,-0.0517 2.6879 -0.1551l 0.1034,0.0517 l -0.2584,1.1199 c -0.6720,0.0689 -1.2233,0.0861 -1.7058 0.0861c -0.7753,-0.0000 -1.3612,-0.0689 -1.9642 -0.1378l -0.3274,2.7223 c 0.3618,-0.1378 0.9821,-0.2584 1.6541 -0.2584c 1.8264,-0.0000 2.8429,1.5851 2.8429 3.1703c 0.0000,1.9297 -1.3439,3.4115 -3.2909 3.4115c -0.9821,-0.0000 -2.4122,-0.5514 -2.4122 -1.2233c 0.0000,-0.3274 0.2757,-0.5514 0.5858 -0.5514c 0.3446,-0.0000 0.5686,0.2584 0.7753 0.5341c 0.2584,0.3101 0.5341,0.6547 1.0855 0.6547c 1.1027,-0.0000 2.0159,-1.0338 2.0159 -2.5328ZM 557.8536,119.2996 ZM 559.6455,117.6628 c 0.6892,-0.0000 1.1372,0.6720 1.1372 1.7058c 0.0000,1.2061 -0.8615,1.7747 -1.8953 1.9642l -0.0861,-0.4307 c 0.8960,-0.2240 1.3095,-0.7409 1.3095 -1.1027c 0.0000,-0.3963 -0.2929,-0.4652 -0.6203 -0.4997c -0.3101,-0.0517 -0.7581,-0.1895 -0.7581 -0.7581c 0.0000,-0.4824 0.3791,-0.8787 0.9132 -0.8787ZM 561.6269,119.2996 ZM 562.6263,111.6668 c 0.0000,-0.9821 0.9476,-2.3260 2.7568 -2.3260c 1.3267,-0.0000 2.8774,0.4997 2.8774 2.4811c 0.0000,1.3095 -0.6720,1.9642 -1.6024 2.8602l -1.6368,1.5851 c -0.0861,0.0861 -1.2406,1.2233 -1.2406 2.0331h 2.9291 c 0.5858,-0.0000 0.8960,-0.2929 1.1372 -1.2406l 0.4307,0.0689 l -0.3446,2.1710 h -5.3240 c 0.0000,-0.9649 0.1551,-1.7058 1.7574 -3.3426l 1.2061,-1.1889 c 0.9649,-0.9821 1.3612,-1.8264 1.3612 -2.8774c 0.0000,-1.5679 -1.0683,-2.0159 -1.6541 -2.0159c -1.1889,-0.0000 -1.5162,0.6203 -1.5162 1.0338c 0.0000,0.1378 0.0345,0.2757 0.0689 0.3963c 0.0345,0.1206 0.0689,0.2412 0.0689 0.3791c 0.0000,0.4480 -0.3446,0.6203 -0.6203 0.6203c -0.3791,-0.0000 -0.6547,-0.2929 -0.6547 -0.6375Z"/></g><g stroke-linejoin="miter" stroke-opacity="1.0" fill-opacity="1.0" stroke="rgb(102,102,102)" stroke-width="0.0" fill="rgb(0,0,0)" stroke-linecap="butt" stroke-miterlimit="10.0"><path d="M 561.4719,129.0043 c 0.0000,-0.9563 -0.7753,-1.7316 -1.7316 -1.7316c -0.9563,-0.0000 -1.7316,0.7753 -1.7316 1.7316c -0.0000,0.9563 0.7753,1.7316 1.7316 1.7316c 0.9563,0.0000 1.7316,-0.7753 1.7316 -1.7316Z"/></g><g stroke-linejoin="miter" stroke-opacity="1.0" fill-opacity="0.33" stroke="rgb(0,0,0)" fill-rule="evenodd" stroke-width="0.0" fill="rgb(0,0,0)" stroke-linecap="butt" stroke-miterlimit="10.0"><path d="M 550.3069,153.9316 ZM 555.6309,151.0198 c 0.0000,-1.7747 -0.9649,-2.6534 -2.0331 -2.6534c -0.7926,-0.0000 -1.3956,0.1206 -2.0676 0.3963l 0.5514,-4.7038 c 0.5686,0.0517 1.1544,0.0689 1.7574 0.0689c 0.8615,-0.0000 1.7574,-0.0517 2.6879 -0.1551l 0.1034,0.0517 l -0.2584,1.1199 c -0.6720,0.0689 -1.2233,0.0861 -1.7058 0.0861c -0.7753,-0.0000 -1.3612,-0.0689 -1.9642 -0.1378l -0.3274,2.7223 c 0.3618,-0.1378 0.9821,-0.2584 1.6541 -0.2584c 1.8264,-0.0000 2.8429,1.5851 2.8429 3.1703c 0.0000,1.9297 -1.3439,3.4115 -3.2909 3.4115c -0.9821,-0.0000 -2.4122,-0.5514 -2.4122 -1.2233c 0.0000,-0.3274 0.2757,-0.5514 0.5858 -0.5514c 0.3446,-0.0000 0.5686,0.2584 0.7753 0.5341c 0.2584,0.3101 0.5341,0.6547 1.0855 0.6547c 1.1027,-0.0000 2.0159,-1.0338 2.0159 -2.5328ZM 557.8536,153.9316 ZM 559.6455,152.2948 c 0.6892,-0.0000 1.1372,0.6720 1.1372 1.7058c 0.0000,1.2061 -0.8615,1.7747 -1.8953 1.9642l -0.0861,-0.4307 c 0.8960,-0.2240 1.3095,-0.7409 1.3095 -1.1027c 0.0000,-0.3963 -0.2929,-0.4652 -0.6203 -0.4997c -0.3101,-0.0517 -0.7581,-0.1895 -0.7581 -0.7581c 0.0000,-0.4824 0.3791,-0.8787 0.9132 -0.8787ZM 561.6269,153.9316 ZM 564.8661,145.7130 c -0.3274,-0.0000 -1.0855,0.3101 -1.4645 0.4824l -0.2068,-0.5341 c 1.5162,-0.7064 2.1020,-1.0683 2.9635 -1.6885h 0.3274 v 8.6666 c 0.0000,0.6203 0.0861,0.7926 0.6547 0.7926h 0.8960 c 0.0517,-0.0000 0.1378,0.0345 0.1378 0.1378v 0.3791 l -2.3605,-0.0345 l -2.3950,0.0345 v -0.3791 c 0.0172,-0.0517 0.0345,-0.1378 0.1378 -0.1378h 1.0338 c 0.6547,-0.0000 0.6547,-0.2929 0.6547 -0.7926v -5.9271 c 0.0000,-0.5858 0.0000,-0.9993 -0.3791 -0.9993Z"/></g><g stroke-linejoin="miter" stroke-opacity="1.0" fill-opacity="1.0" stroke="rgb(102,102,102)" stroke-width="0.0" fill="rgb(0,0,0)" stroke-linecap="butt" stroke-miterlimit="10.0"><path d="M 561.4719,163.6364 c 0.0000,-0.9563 -0.7753,-1.7316 -1.7316 -1.7316c -0.9563,-0.0000 -1.7316,0.7753 -1.7316 1.7316c -0.0000,0.9563 0.7753,1.7316 1.7316 1.7316c 0.9563,0.0000 1.7316,-0.7753 1.7316 -1.7316Z"/></g><g stroke-linejoin="miter" stroke-opacity="1.0" fill-opacity="0.33" stroke="rgb(0,0,0)" fill-rule="evenodd" stroke-width="0.0" fill="rgb(0,0,0)" stroke-linecap="butt" stroke-miterlimit="10.0"><path d="M 550.3069,188.5637 ZM 555.6309,185.6518 c 0.0000,-1.7747 -0.9649,-2.6534 -2.0331 -2.6534c -0.7926,-0.0000 -1.3956,0.1206 -2.0676 0.3963l 0.5514,-4.7038 c 0.5686,0.0517 1.1544,0.0689 1.7574 0.0689c 0.8615,-0.0000 1.7574,-0.0517 2.6879 -0.1551l 0.1034,0.0517 l -0.2584,1.1199 c -0.6720,0.0689 -1.2233,0.0861 -1.7058 0.0861c -0.7753,-0.0000 -1.3612,-0.0689 -1.9642 -0.1378l -0.3274,2.7223 c 0.3618,-0.1378 0.9821,-0.2584 1.6541 -0.2584c 1.8264,-0.0000 2.8429,1.5851 2.8429 3.1703c 0.0000,1.9297 -1.3439,3.4115 -3.2909 3.4115c -0.9821,-0.0000 -2.4122,-0.5514 -2.4122 -1.2233c 0.0000,-0.3274 0.2757,-0.5514 0.5858 -0.5514c 0.3446,-0.0000 0.5686,0.2584 0.7753 0.5341c 0.2584,0.3101 0.5341,0.6547 1.0855 0.6547c 1.1027,-0.0000 2.0159,-1.0338 2.0159 -2.5328ZM 557.8536,188.5637 ZM 559.6455,186.9268 c 0.6892,-0.0000 1.1372,0.6720 1.1372 1.7058c 0.0000,1.2061 -0.8615,1.7747 -1.8953 1.9642l -0.0861,-0.4307 c 0.8960,-0.2240 1.3095,-0.7409 1.3095 -1.1027c 0.0000,-0.3963 -0.2929,-0.4652 -0.6203 -0.4997c -0.3101,-0.0517 -0.7581,-0.1895 -0.7581 -0.7581c 0.0000,-0.4824 0.3791,-0.8787 0.9132 -0.8787ZM 561.6269,188.5637 ZM 565.4003,179.2079 c -0.7409,-0.0000 -1.8264,0.7237 -1.8264 4.7382c 0.0000,1.4128 0.2584,4.2558 1.7747 4.2558c 0.2929,-0.0000 1.1199,-0.1895 1.4818 -1.5335c 0.2240,-0.8270 0.3446,-1.8608 0.3446 -3.3598c 0.0000,-2.1882 -0.5514,-3.4115 -1.0510 -3.8423c -0.1895,-0.1723 -0.4480,-0.2584 -0.7237 -0.2584ZM 565.4003,179.2079 ZM 565.3314,188.7704 c -1.8436,-0.0000 -3.0841,-2.3605 -3.0841 -4.9967c 0.0000,-3.2220 1.5335,-5.1690 3.1531 -5.1690c 0.7409,-0.0000 1.4818,0.4652 1.9814 1.1372c 0.7237,0.9649 1.1027,2.2571 1.1027 3.8767c 0.0000,3.8250 -1.8953,5.1517 -3.1531 5.1517Z"/></g><g stroke-linejoin="miter" stroke-opacity="1.0" fill-opacity="1.0" stroke="rgb(102,102,102)" stroke-width="0.0" fill="rgb(0,0,0)" stroke-linecap="butt" stroke-miterlimit="10.0"><path d="M 561.4719,198.2684 c 0.0000,-0.9563 -0.7753,-1.7316 -1.7316 -1.7316c -0.9563,-0.0000 -1.7316,0.7753 -1.7316 1.7316c -0.0000,0.9563 0.7753,1.7316 1.7316 1.7316c 0.9563,0.0000 1.7316,-0.7753 1.7316 -1.7316Z"/></g><g stroke-linejoin="miter" stroke-opacity="1.0" fill-opacity="0.33" stroke="rgb(0,0,0)" fill-rule="evenodd" stroke-width="0.0" fill="rgb(0,0,0)" stroke-linecap="butt" stroke-miterlimit="10.0"><path d="M 446.4108,15.4035 ZM 450.8561,9.2869 c 0.0000,-0.1206 0.0172,-0.2584 0.1723 -0.3446c 0.1895,-0.1378 0.4997,-0.2929 0.7581 -0.2929c 0.2240,-0.0000 0.2412,0.1895 0.2412 0.5341v 2.7740 h 1.3956 l -0.1034,0.8098 h -1.2922 v 1.4301 c 0.0000,0.4824 0.0689,0.7237 0.5686 0.7237h 0.4652 c 0.1034,-0.0000 0.1206,0.0861 0.1206 0.1206v 0.3791 c 0.0000,-0.0000 -1.1027,-0.0345 -1.8264 -0.0345c -0.6547,-0.0000 -1.6713,0.0345 -1.6713 0.0345v -0.3791 c 0.0000,-0.0345 0.0172,-0.1206 0.1206 -0.1206h 0.4652 c 0.5341,-0.0000 0.5858,-0.2240 0.5858 -0.7237v -1.4301 h -3.3771 c -0.0689,-0.0000 -0.1034,-0.0345 -0.1551 -0.1034l -0.1378,-0.1895 l -0.2068,-0.3618 c -0.0172,-0.0000 -0.0172,-0.0172 -0.0172 -0.0345c 0.0000,-0.0172 0.0172,-0.0345 0.0345 -0.0517c 1.1199,-1.2406 3.1014,-5.0828 3.7217 -6.4957c 0.0172,-0.0689 0.0517,-0.0861 0.1206 -0.0861c 0.0172,-0.0000 0.3963,0.1551 0.6030 0.1895c -0.7753,2.0848 -2.0504,4.3247 -3.3081 6.3234h 2.7223 v -2.6706 ZM 453.9575,15.4035 ZM 455.7494,13.7667 c 0.6892,-0.0000 1.1372,0.6720 1.1372 1.7058c 0.0000,1.2061 -0.8615,1.7747 -1.8953 1.9642l -0.0861,-0.4307 c 0.8960,-0.2240 1.3095,-0.7409 1.3095 -1.1027c 0.0000,-0.3963 -0.2929,-0.4652 -0.6203 -0.4997c -0.3101,-0.0517 -0.7581,-0.1895 -0.7581 -0.7581c 0.0000,-0.4824 0.3791,-0.8787 0.9132 -0.8787ZM 457.7308,15.4035 ZM 463.0549,12.4917 c 0.0000,-1.7747 -0.9649,-2.6534 -2.0331 -2.6534c -0.7926,-0.0000 -1.3956,0.1206 -2.0676 0.3963l 0.5514,-4.7038 c 0.5686,0.0517 1.1544,0.0689 1.7574 0.0689c 0.8615,-0.0000 1.7574,-0.0517 2.6879 -0.1551l 0.1034,0.0517 l -0.2584,1.1199 c -0.6720,0.0689 -1.2233,0.0861 -1.7058 0.0861c -0.7753,-0.0000 -1.3612,-0.0689 -1.9642 -0.1378l -0.3274,2.7223 c 0.3618,-0.1378 0.9821,-0.2584 1.6541 -0.2584c 1.8264,-0.0000 2.8429,1.5851 2.8429 3.1703c 0.0000,1.9297 -1.3439,3.4115 -3.2909 3.4115c -0.9821,-0.0000 -2.4122,-0.5514 -2.4122 -1.2233c 0.0000,-0.3274 0.2757,-0.5514 0.5858 -0.5514c 0.3446,-0.0000 0.5686,0.2584 0.7753 0.5341c 0.2584,0.3101 0.5341,0.6547 1.0855 0.6547c 1.1027,-0.0000 2.0159,-1.0338 2.0159 -2.5328Z"/></g><g stroke-linejoin="miter" stroke-opacity="1.0" fill-opacity="1.0" stroke="rgb(102,102,102)" stroke-width="0.0" fill="rgb(0,0,0)" stroke-linecap="butt" stroke-miterlimit="10.0"><path d="M 457.5758,25.1082 c 0.0000,-0.9563 -0.7753,-1.7316 -1.7316 -1.7316c -0.9563,-0.0000 -1.7316,0.7753 -1.7316 1.7316c -0.0000,0.9563 0.7753,1.7316 1.7316 1.7316c 0.9563,0.0000 1.7316,-0.7753 1.7316 -1.7316Z"/></g><g stroke-linejoin="miter" stroke-opacity="1.0" fill-opacity="0.33" stroke="rgb(0,0,0)" fill-rule="evenodd" stroke-width="0.0" fill="rgb(0,0,0)" stroke-linecap="butt" stroke-miterlimit="10.0"><path d="M 446.4108,50.0355 ZM 450.8561,43.9189 c 0.0000,-0.1206 0.0172,-0.2584 0.1723 -0.3446c 0.1895,-0.1378 0.4997,-0.2929 0.7581 -0.2929c 0.2240,-0.0000 0.2412,0.1895 0.2412 0.5341v 2.7740 h 1.3956 l -0.1034,0.8098 h -1.2922 v 1.4301 c 0.0000,0.4824 0.0689,0.7237 0.5686 0.7237h 0.4652 c 0.1034,-0.0000 0.1206,0.0861 0.1206 0.1206v 0.3791 c 0.0000,-0.0000 -1.1027,-0.0345 -1.8264 -0.0345c -0.6547,-0.0000 -1.6713,0.0345 -1.6713 0.0345v -0.3791 c 0.0000,-0.0345 0.0172,-0.1206 0.1206 -0.1206h 0.4652 c 0.5341,-0.0000 0.5858,-0.2240 0.5858 -0.7237v -1.4301 h -3.3771 c -0.0689,-0.0000 -0.1034,-0.0345 -0.1551 -0.1034l -0.1378,-0.1895 l -0.2068,-0.3618 c -0.0172,-0.0000 -0.0172,-0.0172 -0.0172 -0.0345c 0.0000,-0.0172 0.0172,-0.0345 0.0345 -0.0517c 1.1199,-1.2406 3.1014,-5.0828 3.7217 -6.4957c 0.0172,-0.0689 0.0517,-0.0861 0.1206 -0.0861c 0.0172,-0.0000 0.3963,0.1551 0.6030 0.1895c -0.7753,2.0848 -2.0504,4.3247 -3.3081 6.3234h 2.7223 v -2.6706 ZM 453.9575,50.0355 ZM 455.7494,48.3987 c 0.6892,-0.0000 1.1372,0.6720 1.1372 1.7058c 0.0000,1.2061 -0.8615,1.7747 -1.8953 1.9642l -0.0861,-0.4307 c 0.8960,-0.2240 1.3095,-0.7409 1.3095 -1.1027c 0.0000,-0.3963 -0.2929,-0.4652 -0.6203 -0.4997c -0.3101,-0.0517 -0.7581,-0.1895 -0.7581 -0.7581c 0.0000,-0.4824 0.3791,-0.8787 0.9132 -0.8787ZM 457.7308,50.0355 ZM 462.1761,43.9189 c 0.0000,-0.1206 0.0172,-0.2584 0.1723 -0.3446c 0.1895,-0.1378 0.4997,-0.2929 0.7581 -0.2929c 0.2240,-0.0000 0.2412,0.1895 0.2412 0.5341v 2.7740 h 1.3956 l -0.1034,0.8098 h -1.2922 v 1.4301 c 0.0000,0.4824 0.0689,0.7237 0.5686 0.7237h 0.4652 c 0.1034,-0.0000 0.1206,0.0861 0.1206 0.1206v 0.3791 c 0.0000,-0.0000 -1.1027,-0.0345 -1.8264 -0.0345c -0.6547,-0.0000 -1.6713,0.0345 -1.6713 0.0345v -0.3791 c 0.0000,-0.0345 0.0172,-0.1206 0.1206 -0.1206h 0.4652 c 0.5341,-0.0000 0.5858,-0.2240 0.5858 -0.7237v -1.4301 h -3.3771 c -0.0689,-0.0000 -0.1034,-0.0345 -0.1551 -0.1034l -0.1378,-0.1895 l -0.2068,-0.3618 c -0.0172,-0.0000 -0.0172,-0.0172 -0.0172 -0.0345c 0.0000,-0.0172 0.0172,-0.0345 0.0345 -0.0517c 1.1199,-1.2406 3.1014,-5.0828 3.7217 -6.4957c 0.0172,-0.0689 0.0517,-0.0861 0.1206 -0.0861c 0.0172,-0.0000 0.3963,0.1551 0.6030 0.1895c -0.7753,2.0848 -2.0504,4.3247 -3.3081 6.3234h 2.7223 v -2.6706 Z"/></g><g stroke-linejoin="miter" stroke-opacity="1.0" fill-opacity="1.0" stroke="rgb(102,102,102)" stroke-width="0.0" fill="rgb(0,0,0)" stroke-linecap="butt" stroke-miterlimit="10.0"><path d="M 457.5758,59.7403 c 0.0000,-0.9563 -0.7753,-1.7316 -1.7316 -1.7316c -0.9563,-0.0000 -1.7316,0.7753 -1.7316 1.7316c -0.0000,0.9563 0.7753,1.7316 1.7316 1.7316c 0.9563,0.0000 1.7316,-0.7753 1.7316 -1.7316Z"/></g><g stroke-linejoin="miter" stroke-opacity="1.0" fill-opacity="0.33" stroke="rgb(0,0,0)" fill-rule="evenodd" stroke-width="0.0" fill="rgb(0,0,0)" stroke-linecap="butt" stroke-miterlimit="10.0"><path d="M 446.4108,84.6676 ZM 450.8561,78.5510 c 0.0000,-0.1206 0.0172,-0.2584 0.1723 -0.3446c 0.1895,-0.1378 0.4997,-0.2929 0.7581 -0.2929c 0.2240,-0.0000 0.2412,0.1895 0.2412 0.5341v 2.7740 h 1.3956 l -0.1034,0.8098 h -1.2922 v 1.4301 c 0.0000,0.4824 0.0689,0.7237 0.5686 0.7237h 0.4652 c 0.1034,-0.0000 0.1206,0.0861 0.1206 0.1206v 0.3791 c 0.0000,-0.0000 -1.1027,-0.0345 -1.8264 -0.0345c -0.6547,-0.0000 -1.6713,0.0345 -1.6713 0.0345v -0.3791 c 0.0000,-0.0345 0.0172,-0.1206 0.1206 -0.1206h 0.4652 c 0.5341,-0.0000 0.5858,-0.2240 0.5858 -0.7237v -1.4301 h -3.3771 c -0.0689,-0.0000 -0.1034,-0.0345 -0.1551 -0.1034l -0.1378,-0.1895 l -0.2068,-0.3618 c -0.0172,-0.0000 -0.0172,-0.0172 -0.0172 -0.0345c 0.0000,-0.0172 0.0172,-0.0345 0.0345 -0.0517c 1.1199,-1.2406 3.1014,-5.0828 3.7217 -6.4957c 0.0172,-0.0689 0.0517,-0.0861 0.1206 -0.0861c 0.0172,-0.0000 0.3963,0.1551 0.6030 0.1895c -0.7753,2.0848 -2.0504,4.3247 -3.3081 6.3234h 2.7223 v -2.6706 ZM 453.9575,84.6676 ZM 455.7494,83.0307 c 0.6892,-0.0000 1.1372,0.6720 1.1372 1.7058c 0.0000,1.2061 -0.8615,1.7747 -1.8953 1.9642l -0.0861,-0.4307 c 0.8960,-0.2240 1.3095,-0.7409 1.3095 -1.1027c 0.0000,-0.3963 -0.2929,-0.4652 -0.6203 -0.4997c -0.3101,-0.0517 -0.7581,-0.1895 -0.7581 -0.7581c 0.0000,-0.4824 0.3791,-0.8787 0.9132 -0.8787ZM 457.7308,84.6676 ZM 461.4525,75.2428 c -0.4307,-0.0000 -1.6885,0.2412 -1.6885 1.2922c 0.0000,0.3101 -0.1206,0.8443 -0.5858 0.8443c -0.4480,-0.0000 -0.4824,-0.4997 -0.4824 -0.5514c 0.0000,-0.5341 0.7064,-2.1193 3.1014 -2.1193c 1.6713,-0.0000 2.1710,1.0510 2.1710 1.7402c 0.0000,0.4307 -0.1378,1.2922 -1.6885 2.2743c 0.9649,0.1551 2.2399,0.8615 2.2399 2.6534c 0.0000,2.2743 -1.7230,3.4977 -3.6700 3.4977c -0.9821,-0.0000 -2.3605,-0.4307 -2.3605 -1.0855c 0.0000,-0.2584 0.2584,-0.5514 0.6030 -0.5514c 0.3274,-0.0000 0.4824,0.1723 0.6375 0.3963c 0.1895,0.2929 0.4997,0.7064 1.3267 0.7064c 0.5686,-0.0000 2.1882,-0.5686 2.1882 -2.7395c 0.0000,-1.8436 -1.2922,-2.1365 -2.2227 -2.1365c -0.1551,-0.0000 -0.3446,0.0345 -0.5341 0.0689l -0.0689,-0.5169 c 1.3267,-0.2240 2.4294,-1.5162 2.4294 -2.3088c 0.0000,-0.9821 -0.6892,-1.4645 -1.3956 -1.4645Z"/></g><g stroke-linejoin="miter" stroke-opacity="1.0" fill-opacity="1.0" stroke="rgb(102,102,102)" stroke-width="0.0" fill="rgb(0,0,0)" stroke-linecap="butt" stroke-miterlimit="10.0"><path d="M 457.5758,94.3723 c 0.0000,-0.9563 -0.7753,-1.7316 -1.7316 -1.7316c -0.9563,-0.0000 -1.7316,0.7753 -1.7316 1.7316c -0.0000,0.9563 0.7753,1.7316 1.7316 1.7316c 0.9563,0.0000 1.7316,-0.7753 1.7316 -1.7316Z"/></g><g stroke-linejoin="miter" stroke-opacity="1.0" fill-opacity="0.33" stroke="rgb(0,0,0)" fill-rule="evenodd" stroke-width="0.0" fill="rgb(0,0,0)" stroke-linecap="butt" stroke-miterlimit="10.0"><path d="M 446.4108,119.2996 ZM 450.8561,113.1830 c 0.0000,-0.1206 0.0172,-0.2584 0.1723 -0.3446c 0.1895,-0.1378 0.4997,-0.2929 0.7581 -0.2929c 0.2240,-0.0000 0.2412,0.1895 0.2412 0.5341v 2.7740 h 1.3956 l -0.1034,0.8098 h -1.2922 v 1.4301 c 0.0000,0.4824 0.0689,0.7237 0.5686 0.7237h 0.4652 c 0.1034,-0.0000 0.1206,0.0861 0.1206 0.1206v 0.3791 c 0.0000,-0.0000 -1.1027,-0.0345 -1.8264 -0.0345c -0.6547,-0.0000 -1.6713,0.0345 -1.6713 0.0345v -0.3791 c 0.0000,-0.0345 0.0172,-0.1206 0.1206 -0.1206h 0.4652 c 0.5341,-0.0000 0.5858,-0.2240 0.5858 -0.7237v -1.4301 h -3.3771 c -0.0689,-0.0000 -0.1034,-0.0345 -0.1551 -0.1034l -0.1378,-0.1895 l -0.2068,-0.3618 c -0.0172,-0.0000 -0.0172,-0.0172 -0.0172 -0.0345c 0.0000,-0.0172 0.0172,-0.0345 0.0345 -0.0517c 1.1199,-1.2406 3.1014,-5.0828 3.7217 -6.4957c 0.0172,-0.0689 0.0517,-0.0861 0.1206 -0.0861c 0.0172,-0.0000 0.3963,0.1551 0.6030 0.1895c -0.7753,2.0848 -2.0504,4.3247 -3.3081 6.3234h 2.7223 v -2.6706 ZM 453.9575,119.2996 ZM 455.7494,117.6628 c 0.6892,-0.0000 1.1372,0.6720 1.1372 1.7058c 0.0000,1.2061 -0.8615,1.7747 -1.8953 1.9642l -0.0861,-0.4307 c 0.8960,-0.2240 1.3095,-0.7409 1.3095 -1.1027c 0.0000,-0.3963 -0.2929,-0.4652 -0.6203 -0.4997c -0.3101,-0.0517 -0.7581,-0.1895 -0.7581 -0.7581c 0.0000,-0.4824 0.3791,-0.8787 0.9132 -0.8787ZM 457.7308,119.2996 ZM 458.7302,111.6668 c 0.0000,-0.9821 0.9476,-2.3260 2.7568 -2.3260c 1.3267,-0.0000 2.8774,0.4997 2.8774 2.4811c 0.0000,1.3095 -0.6720,1.9642 -1.6024 2.8602l -1.6368,1.5851 c -0.0861,0.0861 -1.2406,1.2233 -1.2406 2.0331h 2.9291 c 0.5858,-0.0000 0.8960,-0.2929 1.1372 -1.2406l 0.4307,0.0689 l -0.3446,2.1710 h -5.3240 c 0.0000,-0.9649 0.1551,-1.7058 1.7574 -3.3426l 1.2061,-1.1889 c 0.9649,-0.9821 1.3612,-1.8264 1.3612 -2.8774c 0.0000,-1.5679 -1.0683,-2.0159 -1.6541 -2.0159c -1.1889,-0.0000 -1.5162,0.6203 -1.5162 1.0338c 0.0000,0.1378 0.0345,0.2757 0.0689 0.3963c 0.0345,0.1206 0.0689,0.2412 0.0689 0.3791c 0.0000,0.4480 -0.3446,0.6203 -0.6203 0.6203c -0.3791,-0.0000 -0.6547,-0.2929 -0.6547 -0.6375Z"/></g><g stroke-linejoin="miter" stroke-opacity="1.0" fill-opacity="1.0" stroke="rgb(102,102,102)" stroke-width="0.0" fill="rgb(0,0,0)" stroke-linecap="butt" stroke-miterlimit="10.0"><path d="M 457.5758,129.0043 c 0.0000,-0.9563 -0.7753,-1.7316 -1.7316 -1.7316c -0.9563,-0.0000 -1.7316,0.7753 -1.7316 1.7316c -0.0000,0.9563 0.7753,1.7316 1.7316 1.7316c 0.9563,0.0000 1.7316,-0.7753 1.7316 -1.7316Z"/></g><g stroke-linejoin="miter" stroke-opacity="1.0" fill-opacity="0.33" stroke="rgb(0,0,0)" fill-rule="evenodd" stroke-width="0.0" fill="rgb(0,0,0)" stroke-linecap="butt" stroke-miterlimit="10.0"><path d="M 446.4108,153.9316 ZM 450.8561,147.8150 c 0.0000,-0.1206 0.0172,-0.2584 0.1723 -0.3446c 0.1895,-0.1378 0.4997,-0.2929 0.7581 -0.2929c 0.2240,-0.0000 0.2412,0.1895 0.2412 0.5341v 2.7740 h 1.3956 l -0.1034,0.8098 h -1.2922 v 1.4301 c 0.0000,0.4824 0.0689,0.7237 0.5686 0.7237h 0.4652 c 0.1034,-0.0000 0.1206,0.0861 0.1206 0.1206v 0.3791 c 0.0000,-0.0000 -1.1027,-0.0345 -1.8264 -0.0345c -0.6547,-0.0000 -1.6713,0.0345 -1.6713 0.0345v -0.3791 c 0.0000,-0.0345 0.0172,-0.1206 0.1206 -0.1206h 0.4652 c 0.5341,-0.0000 0.5858,-0.2240 0.5858 -0.7237v -1.4301 h -3.3771 c -0.0689,-0.0000 -0.1034,-0.0345 -0.1551 -0.1034l -0.1378,-0.1895 l -0.2068,-0.3618 c -0.0172,-0.0000 -0.0172,-0.0172 -0.0172 -0.0345c 0.0000,-0.0172 0.0172,-0.0345 0.0345 -0.0517c 1.1199,-1.2406 3.1014,-5.0828 3.7217 -6.4957c 0.0172,-0.0689 0.0517,-0.0861 0.1206 -0.0861c 0.0172,-0.0000 0.3963,0.1551 0.6030 0.1895c -0.7753,2.0848 -2.0504,4.3247 -3.3081 6.3234h 2.7223 v -2.6706 ZM 453.9575,153.9316 ZM 455.7494,152.2948 c 0.6892,-0.0000 1.1372,0.6720 1.1372 1.7058c 0.0000,1.2061 -0.8615,1.7747 -1.8953 1.9642l -0.0861,-0.4307 c 0.8960,-0.2240 1.3095,-0.7409 1.3095 -1.1027c 0.0000,-0.3963 -0.2929,-0.4652 -0.6203 -0.4997c -0.3101,-0.0517 -0.7581,-0.1895 -0.7581 -0.7581c 0.0000,-0.4824 0.3791,-0.8787 0.9132 -0.8787ZM 457.7308,153.9316 ZM 460.9700,145.7130 c -0.3274,-0.0000 -1.0855,0.3101 -1.4645 0.4824l -0.2068,-0.5341 c 1.5162,-0.7064 2.1020,-1.0683 2.9635 -1.6885h 0.3274 v 8.6666 c 0.0000,0.6203 0.0861,0.7926 0.6547 0.7926h 0.8960 c 0.0517,-0.0000 0.1378,0.0345 0.1378 0.1378v 0.3791 l -2.3605,-0.0345 l -2.3950,0.0345 v -0.3791 c 0.0172,-0.0517 0.0345,-0.1378 0.1378 -0.1378h 1.0338 c 0.6547,-0.0000 0.6547,-0.2929 0.6547 -0.7926v -5.9271 c 0.0000,-0.5858 0.0000,-0.9993 -0.3791 -0.9993Z"/></g><g stroke-linejoin="miter" stroke-opacity="1.0" fill-opacity="1.0" stroke="rgb(102,102,102)" stroke-width="0.0" fill="rgb(0,0,0)" stroke-linecap="butt" stroke-miterlimit="10.0"><path d="M 457.5758,163.6364 c 0.0000,-0.9563 -0.7753,-1.7316 -1.7316 -1.7316c -0.9563,-0.0000 -1.7316,0.7753 -1.7316 1.7316c -0.0000,0.9563 0.7753,1.7316 1.7316 1.7316c 0.9563,0.0000 1.7316,-0.7753 1.7316 -1.7316Z"/></g><g stroke-linejoin="miter" stroke-opacity="1.0" fill-opacity="0.33" stroke="rgb(0,0,0)" fill-rule="evenodd" stroke-width="0.0" fill="rgb(0,0,0)" stroke-linecap="butt" stroke-miterlimit="10.0"><path d="M 446.4108,188.5637 ZM 450.8561,182.4471 c 0.0000,-0.1206 0.0172,-0.2584 0.1723 -0.3446c 0.1895,-0.1378 0.4997,-0.2929 0.7581 -0.2929c 0.2240,-0.0000 0.2412,0.1895 0.2412 0.5341v 2.7740 h 1.3956 l -0.1034,0.8098 h -1.2922 v 1.4301 c 0.0000,0.4824 0.0689,0.7237 0.5686 0.7237h 0.4652 c 0.1034,-0.0000 0.1206,0.0861 0.1206 0.1206v 0.3791 c 0.0000,-0.0000 -1.1027,-0.0345 -1.8264 -0.0345c -0.6547,-0.0000 -1.6713,0.0345 -1.6713 0.0345v -0.3791 c 0.0000,-0.0345 0.0172,-0.1206 0.1206 -0.1206h 0.4652 c 0.5341,-0.0000 0.5858,-0.2240 0.5858 -0.7237v -1.4301 h -3.3771 c -0.0689,-0.0000 -0.1034,-0.0345 -0.1551 -0.1034l -0.1378,-0.1895 l -0.2068,-0.3618 c -0.0172,-0.0000 -0.0172,-0.0172 -0.0172 -0.0345c 0.0000,-0.0172 0.0172,-0.0345 0.0345 -0.0517c 1.1199,-1.2406 3.1014,-5.0828 3.7217 -6.4957c 0.0172,-0.0689 0.0517,-0.0861 0.1206 -0.0861c 0.0172,-0.0000 0.3963,0.1551 0.6030 0.1895c -0.7753,2.0848 -2.0504,4.3247 -3.3081 6.3234h 2.7223 v -2.6706 ZM 453.9575,188.5637 ZM 455.7494,186.9268 c 0.6892,-0.0000 1.1372,0.6720 1.1372 1.7058c 0.0000,1.2061 -0.8615,1.7747 -1.8953 1.9642l -0.0861,-0.4307 c 0.8960,-0.2240 1.3095,-0.7409 1.3095 -1.1027c 0.0000,-0.3963 -0.2929,-0.4652 -0.6203 -0.4997c -0.3101,-0.0517 -0.7581,-0.1895 -0.7581 -0.7581c 0.0000,-0.4824 0.3791,-0.8787 0.9132 -0.8787ZM 457.7308,188.5637 ZM 461.5042,179.2079 c -0.7409,-0.0000 -1.8264,0.7237 -1.8264 4.7382c 0.0000,1.4128 0.2584,4.2558 1.7747 4.2558c 0.2929,-0.0000 1.1199,-0.1895 1.4818 -1.5335c 0.2240,-0.8270 0.3446,-1.8608 0.3446 -3.3598c 0.0000,-2.1882 -0.5514,-3.4115 -1.0510 -3.8423c -0.1895,-0.1723 -0.4480,-0.2584 -0.7237 -0.2584ZM 461.5042,179.2079 ZM 461.4352,188.7704 c -1.8436,-0.0000 -3.0841,-2.3605 -3.0841 -4.9967c 0.0000,-3.2220 1.5335,-5.1690 3.1531 -5.1690c 0.7409,-0.0000 1.4818,0.4652 1.9814 1.1372c 0.7237,0.9649 1.1027,2.2571 1.1027 3.8767c 0.0000,3.8250 -1.8953,5.1517 -3.1531 5.1517Z"/></g><g stroke-linejoin="miter" stroke-opacity="1.0" fill-opacity="1.0" stroke="rgb(102,102,102)" stroke-width="0.0" fill="rgb(0,0,0)" stroke-linecap="butt" stroke-miterlimit="10.0"><path d="M 457.5758,198.2684 c 0.0000,-0.9563 -0.7753,-1.7316 -1.7316 -1.7316c -0.9563,-0.0000 -1.7316,0.7753 -1.7316 1.7316c -0.0000,0.9563 0.7753,1.7316 1.7316 1.7316c 0.9563,0.0000 1.7316,-0.7753 1.7316 -1.7316Z"/></g><g stroke-linejoin="miter" stroke-opacity="1.0" fill-opacity="0.33" stroke="rgb(0,0,0)" fill-rule="evenodd" stroke-width="0.0" fill="rgb(0,0,0)" stroke-linecap="butt" stroke-miterlimit="10.0"><path d="M 342.5147,15.4035 ZM 346.2364,5.9788 c -0.4307,-0.0000 -1.6885,0.2412 -1.6885 1.2922c 0.0000,0.3101 -0.1206,0.8443 -0.5858 0.8443c -0.4480,-0.0000 -0.4824,-0.4997 -0.4824 -0.5514c 0.0000,-0.5341 0.7064,-2.1193 3.1014 -2.1193c 1.6713,-0.0000 2.1710,1.0510 2.1710 1.7402c 0.0000,0.4307 -0.1378,1.2922 -1.6885 2.2743c 0.9649,0.1551 2.2399,0.8615 2.2399 2.6534c 0.0000,2.2743 -1.7230,3.4977 -3.6700 3.4977c -0.9821,-0.0000 -2.3605,-0.4307 -2.3605 -1.0855c 0.0000,-0.2584 0.2584,-0.5514 0.6030 -0.5514c 0.3274,-0.0000 0.4824,0.1723 0.6375 0.3963c 0.1895,0.2929 0.4997,0.7064 1.3267 0.7064c 0.5686,-0.0000 2.1882,-0.5686 2.1882 -2.7395c 0.0000,-1.8436 -1.2922,-2.1365 -2.2227 -2.1365c -0.1551,-0.0000 -0.3446,0.0345 -0.5341 0.0689l -0.0689,-0.5169 c 1.3267,-0.2240 2.4294,-1.5162 2.4294 -2.3088c 0.0000,-0.9821 -0.6892,-1.4645 -1.3956 -1.4645ZM 350.0614,15.4035 ZM 351.8533,13.7667 c 0.6892,-0.0000 1.1372,0.6720 1.1372 1.7058c 0.0000,1.2061 -0.8615,1.7747 -1.8953 1.9642l -0.0861,-0.4307 c 0.8960,-0.2240 1.3095,-0.7409 1.3095 -1.1027c 0.0000,-0.3963 -0.2929,-0.4652 -0.6203 -0.4997c -0.3101,-0.0517 -0.7581,-0.1895 -0.7581 -0.7581c 0.0000,-0.4824 0.3791,-0.8787 0.9132 -0.8787ZM 353.8347,15.4035 ZM 359.1588,12.4917 c 0.0000,-1.7747 -0.9649,-2.6534 -2.0331 -2.6534c -0.7926,-0.0000 -1.3956,0.1206 -2.0676 0.3963l 0.5514,-4.7038 c 0.5686,0.0517 1.1544,0.0689 1.7574 0.0689c 0.8615,-0.0000 1.7574,-0.0517 2.6879 -0.1551l 0.1034,0.0517 l -0.2584,1.1199 c -0.6720,0.0689 -1.2233,0.0861 -1.7058 0.0861c -0.7753,-0.0000 -1.3612,-0.0689 -1.9642 -0.1378l -0.3274,2.7223 c 0.3618,-0.1378 0.9821,-0.2584 1.6541 -0.2584c 1.8264,-0.0000 2.8429,1.5851 2.8429 3.1703c 0.0000,1.9297 -1.3439,3.4115 -3.2909 3.4115c -0.9821,-0.0000 -2.4122,-0.5514 -2.4122 -1.2233c 0.0000,-0.3274 0.2757,-0.5514 0.5858 -0.5514c 0.3446,-0.0000 0.5686,0.2584 0.7753 0.5341c 0.2584,0.3101 0.5341,0.6547 1.0855 0.6547c 1.1027,-0.0000 2.0159,-1.0338 2.0159 -2.5328Z"/></g><g stroke-linejoin="miter" stroke-opacity="1.0" fill-opacity="1.0" stroke="rgb(102,102,102)" stroke-width="0.0" fill="rgb(0,0,0)" stroke-linecap="butt" stroke-miterlimit="10.0"><path d="M 353.6797,25.1082 c 0.0000,-0.9563 -0.7753,-1.7316 -1.7316 -1.7316c -0.9563,-0.0000 -1.7316,0.7753 -1.7316 1.7316c -0.0000,0.9563 0.7753,1.7316 1.7316 1.7316c 0.9563,0.0000 1.7316,-0.7753 1.7316 -1.7316Z"/></g><g stroke-linejoin="miter" stroke-opacity="1.0" fill-opacity="0.33" stroke="rgb(0,0,0)" fill-rule="evenodd" stroke-width="0.0" fill="rgb(0,0,0)" stroke-linecap="butt" stroke-miterlimit="10.0"><path d="M 342.5147,50.0355 ZM 346.2364,40.6108 c -0.4307,-0.0000 -1.6885,0.2412 -1.6885 1.2922c 0.0000,0.3101 -0.1206,0.8443 -0.5858 0.8443c -0.4480,-0.0000 -0.4824,-0.4997 -0.4824 -0.5514c 0.0000,-0.5341 0.7064,-2.1193 3.1014 -2.1193c 1.6713,-0.0000 2.1710,1.0510 2.1710 1.7402c 0.0000,0.4307 -0.1378,1.2922 -1.6885 2.2743c 0.9649,0.1551 2.2399,0.8615 2.2399 2.6534c 0.0000,2.2743 -1.7230,3.4977 -3.6700 3.4977c -0.9821,-0.0000 -2.3605,-0.4307 -2.3605 -1.0855c 0.0000,-0.2584 0.2584,-0.5514 0.6030 -0.5514c 0.3274,-0.0000 0.4824,0.1723 0.6375 0.3963c 0.1895,0.2929 0.4997,0.7064 1.3267 0.7064c 0.5686,-0.0000 2.1882,-0.5686 2.1882 -2.7395c 0.0000,-1.8436 -1.2922,-2.1365 -2.2227 -2.1365c -0.1551,-0.0000 -0.3446,0.0345 -0.5341 0.0689l -0.0689,-0.5169 c 1.3267,-0.2240 2.4294,-1.5162 2.4294 -2.3088c 0.0000,-0.9821 -0.6892,-1.4645 -1.3956 -1.4645ZM 350.0614,50.0355 ZM 351.8533,48.3987 c 0.6892,-0.0000 1.1372,0.6720 1.1372 1.7058c 0.0000,1.2061 -0.8615,1.7747 -1.8953 1.9642l -0.0861,-0.4307 c 0.8960,-0.2240 1.3095,-0.7409 1.3095 -1.1027c 0.0000,-0.3963 -0.2929,-0.4652 -0.6203 -0.4997c -0.3101,-0.0517 -0.7581,-0.1895 -0.7581 -0.7581c 0.0000,-0.4824 0.3791,-0.8787 0.9132 -0.8787ZM 353.8347,50.0355 ZM 358.2800,43.9189 c 0.0000,-0.1206 0.0172,-0.2584 0.1723 -0.3446c 0.1895,-0.1378 0.4997,-0.2929 0.7581 -0.2929c 0.2240,-0.0000 0.2412,0.1895 0.2412 0.5341v 2.7740 h 1.3956 l -0.1034,0.8098 h -1.2922 v 1.4301 c 0.0000,0.4824 0.0689,0.7237 0.5686 0.7237h 0.4652 c 0.1034,-0.0000 0.1206,0.0861 0.1206 0.1206v 0.3791 c 0.0000,-0.0000 -1.1027,-0.0345 -1.8264 -0.0345c -0.6547,-0.0000 -1.6713,0.0345 -1.6713 0.0345v -0.3791 c 0.0000,-0.0345 0.0172,-0.1206 0.1206 -0.1206h 0.4652 c 0.5341,-0.0000 0.5858,-0.2240 0.5858 -0.7237v -1.4301 h -3.3771 c -0.0689,-0.0000 -0.1034,-0.0345 -0.1551 -0.1034l -0.1378,-0.1895 l -0.2068,-0.3618 c -0.0172,-0.0000 -0.0172,-0.0172 -0.0172 -0.0345c 0.0000,-0.0172 0.0172,-0.0345 0.0345 -0.0517c 1.1199,-1.2406 3.1014,-5.0828 3.7217 -6.4957c 0.0172,-0.0689 0.0517,-0.0861 0.1206 -0.0861c 0.0172,-0.0000 0.3963,0.1551 0.6030 0.1895c -0.7753,2.0848 -2.0504,4.3247 -3.3081 6.3234h 2.7223 v -2.6706 Z"/></g><g stroke-linejoin="miter" stroke-opacity="1.0" fill-opacity="1.0" stroke="rgb(102,102,102)" stroke-width="0.0" fill="rgb(0,0,0)" stroke-linecap="butt" stroke-miterlimit="10.0"><path d="M 353.6797,59.7403 c 0.0000,-0.9563 -0.7753,-1.7316 -1.7316 -1.7316c -0.9563,-0.0000 -1.7316,0.7753 -1.7316 1.7316c -0.0000,0.9563 0.7753,1.7316 1.7316 1.7316c 0.9563,0.0000 1.7316,-0.7753 1.7316 -1.7316Z"/></g><g stroke-linejoin="miter" stroke-opacity="1.0" fill-opacity="0.33" stroke="rgb(0,0,0)" fill-rule="evenodd" stroke-width="0.0" fill="rgb(0,0,0)" stroke-linecap="butt" stroke-miterlimit="10.0"><path d="M 342.5147,84.6676 ZM 346.2364,75.2428 c -0.4307,-0.0000 -1.6885,0.2412 -1.6885 1.2922c 0.0000,0.3101 -0.1206,0.8443 -0.5858 0.8443c -0.4480,-0.0000 -0.4824,-0.4997 -0.4824 -0.5514c 0.0000,-0.5341 0.7064,-2.1193 3.1014 -2.1193c 1.6713,-0.0000 2.1710,1.0510 2.1710 1.7402c 0.0000,0.4307 -0.1378,1.2922 -1.6885 2.2743c 0.9649,0.1551 2.2399,0.8615 2.2399 2.6534c 0.0000,2.2743 -1.7230,3.4977 -3.6700 3.4977c -0.9821,-0.0000 -2.3605,-0.4307 -2.3605 -1.0855c 0.0000,-0.2584 0.2584,-0.5514 0.6030 -0.5514c 0.3274,-0.0000 0.4824,0.1723 0.6375 0.3963c 0.1895,0.2929 0.4997,0.7064 1.3267 0.7064c 0.5686,-0.0000 2.1882,-0.5686 2.1882 -2.7395c 0.0000,-1.8436 -1.2922,-2.1365 -2.2227 -2.1365c -0.1551,-0.0000 -0.3446,0.0345 -0.5341 0.0689l -0.0689,-0.5169 c 1.3267,-0.2240 2.4294,-1.5162 2.4294 -2.3088c 0.0000,-0.9821 -0.6892,-1.4645 -1.3956 -1.4645ZM 350.0614,84.6676 ZM 351.8533,83.0307 c 0.6892,-0.0000 1.1372,0.6720 1.1372 1.7058c 0.0000,1.2061 -0.8615,1.7747 -1.8953 1.9642l -0.0861,-0.4307 c 0.8960,-0.2240 1.3095,-0.7409 1.3095 -1.1027c 0.0000,-0.3963 -0.2929,-0.4652 -0.6203 -0.4997c -0.3101,-0.0517 -0.7581,-0.1895 -0.7581 -0.7581c 0.0000,-0.4824 0.3791,-0.8787 0.9132 -0.8787ZM 353.8347,84.6676 ZM 357.5564,75.2428 c -0.4307,-0.0000 -1.6885,0.2412 -1.6885 1.2922c 0.0000,0.3101 -0.1206,0.8443 -0.5858 0.8443c -0.4480,-0.0000 -0.4824,-0.4997 -0.4824 -0.5514c 0.0000,-0.5341 0.7064,-2.1193 3.1014 -2.1193c 1.6713,-0.0000 2.1710,1.0510 2.1710 1.7402c 0.0000,0.4307 -0.1378,1.2922 -1.6885 2.2743c 0.9649,0.1551 2.2399,0.8615 2.2399 2.6534c 0.0000,2.2743 -1.7230,3.4977 -3.6700 3.4977c -0.9821,-0.0000 -2.3605,-0.4307 -2.3605 -1.0855c 0.0000,-0.2584 0.2584,-0.5514 0.6030 -0.5514c 0.3274,-0.0000 0.4824,0.1723 0.6375 0.3963c 0.1895,0.2929 0.4997,0.7064 1.3267 0.7064c 0.5686,-0.0000 2.1882,-0.5686 2.1882 -2.7395c 0.0000,-1.8436 -1.2922,-2.1365 -2.2227 -2.1365c -0.1551,-0.0000 -0.3446,0.0345 -0.5341 0.0689l -0.0689,-0.5169 c 1.3267,-0.2240 2.4294,-1.5162 2.4294 -2.3088c 0.0000,-0.9821 -0.6892,-1.4645 -1.3956 -1.4645Z"/></g><g stroke-linejoin="miter" stroke-opacity="1.0" fill-opacity="1.0" stroke="rgb(102,102,102)" stroke-width="0.0" fill="rgb(0,0,0)" stroke-linecap="butt" stroke-miterlimit="10.0"><path d="M 353.6797,94.3723 c 0.0000,-0.9563 -0.7753,-1.7316 -1.7316 -1.7316c -0.9563,-0.0000 -1.7316,0.7753 -1.7316 1.7316c -0.0000,0.9563 0.7753,1.7316 1.7316 1.7316c 0.9563,0.0000 1.7316,-0.7753 1.7316 -1.7316Z"/></g><g stroke-linejoin="miter" stroke-opacity="1.0" fill-opacity="0.33" stroke="rgb(0,0,0)" fill-rule="evenodd" stroke-width="0.0" fill="rgb(0,0,0)" stroke-linecap="butt" stroke-miterlimit="10.0"><path d="M 342.5147,119.2996 ZM 346.2364,109.8749 c -0.4307,-0.0000 -1.6885,0.2412 -1.6885 1.2922c 0.0000,0.3101 -0.1206,0.8443 -0.5858 0.8443c -0.4480,-0.0000 -0.4824,-0.4997 -0.4824 -0.5514c 0.0000,-0.5341 0.7064,-2.1193 3.1014 -2.1193c 1.6713,-0.0000 2.1710,1.0510 2.1710 1.7402c 0.0000,0.4307 -0.1378,1.2922 -1.6885 2.2743c 0.9649,0.1551 2.2399,0.8615 2.2399 2.6534c 0.0000,2.2743 -1.7230,3.4977 -3.6700 3.4977c -0.9821,-0.0000 -2.3605,-0.4307 -2.3605 -1.0855c 0.0000,-0.2584 0.2584,-0.5514 0.6030 -0.5514c 0.3274,-0.0000 0.4824,0.1723 0.6375 0.3963c 0.1895,0.2929 0.4997,0.7064 1.3267 0.7064c 0.5686,-0.0000 2.1882,-0.5686 2.1882 -2.7395c 0.0000,-1.8436 -1.2922,-2.1365 -2.2227 -2.1365c -0.1551,-0.0000 -0.3446,0.0345 -0.5341 0.0689l -0.0689,-0.5169 c 1.3267,-0.2240 2.4294,-1.5162 2.4294 -2.3088c 0.0000,-0.9821 -0.6892,-1.4645 -1.3956 -1.4645ZM 350.0614,119.2996 ZM 351.8533,117.6628 c 0.6892,-0.0000 1.1372,0.6720 1.1372 1.7058c 0.0000,1.2061 -0.8615,1.7747 -1.8953 1.9642l -0.0861,-0.4307 c 0.8960,-0.2240 1.3095,-0.7409 1.3095 -1.1027c 0.0000,-0.3963 -0.2929,-0.4652 -0.6203 -0.4997c -0.3101,-0.0517 -0.7581,-0.1895 -0.7581 -0.7581c 0.0000,-0.4824 0.3791,-0.8787 0.9132 -0.8787ZM 353.8347,119.2996 ZM 354.8341,111.6668 c 0.0000,-0.9821 0.9476,-2.3260 2.7568 -2.3260c 1.3267,-0.0000 2.8774,0.4997 2.8774 2.4811c 0.0000,1.3095 -0.6720,1.9642 -1.6024 2.8602l -1.6368,1.5851 c -0.0861,0.0861 -1.2406,1.2233 -1.2406 2.0331h 2.9291 c 0.5858,-0.0000 0.8960,-0.2929 1.1372 -1.2406l 0.4307,0.0689 l -0.3446,2.1710 h -5.3240 c 0.0000,-0.9649 0.1551,-1.7058 1.7574 -3.3426l 1.2061,-1.1889 c 0.9649,-0.9821 1.3612,-1.8264 1.3612 -2.8774c 0.0000,-1.5679 -1.0683,-2.0159 -1.6541 -2.0159c -1.1889,-0.0000 -1.5162,0.6203 -1.5162 1.0338c 0.0000,0.1378 0.0345,0.2757 0.0689 0.3963c 0.0345,0.1206 0.0689,0.2412 0.0689 0.3791c 0.0000,0.4480 -0.3446,0.6203 -0.6203 0.6203c -0.3791,-0.0000 -0.6547,-0.2929 -0.6547 -0.6375Z"/></g><g stroke-linejoin="miter" stroke-opacity="1.0" fill-opacity="1.0" stroke="rgb(102,102,102)" stroke-width="0.0" fill="rgb(0,0,0)" stroke-linecap="butt" stroke-miterlimit="10.0"><path d="M 353.6797,129.0043 c 0.0000,-0.9563 -0.7753,-1.7316 -1.7316 -1.7316c -0.9563,-0.0000 -1.7316,0.7753 -1.7316 1.7316c -0.0000,0.9563 0.7753,1.7316 1.7316 1.7316c 0.9563,0.0000 1.7316,-0.7753 1.7316 -1.7316Z"/></g><g stroke-linejoin="miter" stroke-opacity="1.0" fill-opacity="0.33" stroke="rgb(0,0,0)" fill-rule="evenodd" stroke-width="0.0" fill="rgb(0,0,0)" stroke-linecap="butt" stroke-miterlimit="10.0"><path d="M 342.5147,153.9316 ZM 346.2364,144.5069 c -0.4307,-0.0000 -1.6885,0.2412 -1.6885 1.2922c 0.0000,0.3101 -0.1206,0.8443 -0.5858 0.8443c -0.4480,-0.0000 -0.4824,-0.4997 -0.4824 -0.5514c 0.0000,-0.5341 0.7064,-2.1193 3.1014 -2.1193c 1.6713,-0.0000 2.1710,1.0510 2.1710 1.7402c 0.0000,0.4307 -0.1378,1.2922 -1.6885 2.2743c 0.9649,0.1551 2.2399,0.8615 2.2399 2.6534c 0.0000,2.2743 -1.7230,3.4977 -3.6700 3.4977c -0.9821,-0.0000 -2.3605,-0.4307 -2.3605 -1.0855c 0.0000,-0.2584 0.2584,-0.5514 0.6030 -0.5514c 0.3274,-0.0000 0.4824,0.1723 0.6375 0.3963c 0.1895,0.2929 0.4997,0.7064 1.3267 0.7064c 0.5686,-0.0000 2.1882,-0.5686 2.1882 -2.7395c 0.0000,-1.8436 -1.2922,-2.1365 -2.2227 -2.1365c -0.1551,-0.0000 -0.3446,0.0345 -0.5341 0.0689l -0.0689,-0.5169 c 1.3267,-0.2240 2.4294,-1.5162 2.4294 -2.3088c 0.0000,-0.9821 -0.6892,-1.4645 -1.3956 -1.4645ZM 350.0614,153.9316 ZM 351.8533,152.2948 c 0.6892,-0.0000 1.1372,0.6720 1.1372 1.7058c 0.0000,1.2061 -0.8615,1.7747 -1.8953 1.9642l -0.0861,-0.4307 c 0.8960,-0.2240 1.3095,-0.7409 1.3095 -1.1027c 0.0000,-0.3963 -0.2929,-0.4652 -0.6203 -0.4997c -0.3101,-0.0517 -0.7581,-0.1895 -0.7581 -0.7581c 0.0000,-0.4824 0.3791,-0.8787 0.9132 -0.8787ZM 353.8347,153.9316 ZM 357.0739,145.7130 c -0.3274,-0.0000 -1.0855,0.3101 -1.4645 0.4824l -0.2068,-0.5341 c 1.5162,-0.7064 2.1020,-1.0683 2.9635 -1.6885h 0.3274 v 8.6666 c 0.0000,0.6203 0.0861,0.7926 0.6547 0.7926h 0.8960 c 0.0517,-0.0000 0.1378,0.0345 0.1378 0.1378v 0.3791 l -2.3605,-0.0345 l -2.3950,0.0345 v -0.3791 c 0.0172,-0.0517 0.0345,-0.1378 0.1378 -0.1378h 1.0338 c 0.6547,-0.0000 0.6547,-0.2929 0.6547 -0.7926v -5.9271 c 0.0000,-0.5858 0.0000,-0.9993 -0.3791 -0.9993Z"/></g><g stroke-linejoin="miter" stroke-opacity="1.0" fill-opacity="1.0" stroke="rgb(102,102,102)" stroke-width="0.0" fill="rgb(0,0,0)" stroke-linecap="butt" stroke-miterlimit="10.0"><path d="M 353.6797,163.6364 c 0.0000,-0.9563 -0.7753,-1.7316 -1.7316 -1.7316c -0.9563,-0.0000 -1.7316,0.7753 -1.7316 1.7316c -0.0000,0.9563 0.7753,1.7316 1.7316 1.7316c 0.9563,0.0000 1.7316,-0.7753 1.7316 -1.7316Z"/></g><g stroke-linejoin="miter" stroke-opacity="1.0" fill-opacity="0.33" stroke="rgb(0,0,0)" fill-rule="evenodd" stroke-width="0.0" fill="rgb(0,0,0)" stroke-linecap="butt" stroke-miterlimit="10.0"><path d="M 342.5147,188.5637 ZM 346.2364,179.1389 c -0.4307,-0.0000 -1.6885,0.2412 -1.6885 1.2922c 0.0000,0.3101 -0.1206,0.8443 -0.5858 0.8443c -0.4480,-0.0000 -0.4824,-0.4997 -0.4824 -0.5514c 0.0000,-0.5341 0.7064,-2.1193 3.1014 -2.1193c 1.6713,-0.0000 2.1710,1.0510 2.1710 1.7402c 0.0000,0.4307 -0.1378,1.2922 -1.6885 2.2743c 0.9649,0.1551 2.2399,0.8615 2.2399 2.6534c 0.0000,2.2743 -1.7230,3.4977 -3.6700 3.4977c -0.9821,-0.0000 -2.3605,-0.4307 -2.3605 -1.0855c 0.0000,-0.2584 0.2584,-0.5514 0.6030 -0.5514c 0.3274,-0.0000 0.4824,0.1723 0.6375 0.3963c 0.1895,0.2929 0.4997,0.7064 1.3267 0.7064c 0.5686,-0.0000 2.1882,-0.5686 2.1882 -2.7395c 0.0000,-1.8436 -1.2922,-2.1365 -2.2227 -2.1365c -0.1551,-0.0000 -0.3446,0.0345 -0.5341 0.0689l -0.0689,-0.5169 c 1.3267,-0.2240 2.4294,-1.5162 2.4294 -2.3088c 0.0000,-0.9821 -0.6892,-1.4645 -1.3956 -1.4645ZM 350.0614,188.5637 ZM 351.8533,186.9268 c 0.6892,-0.0000 1.1372,0.6720 1.1372 1.7058c 0.0000,1.2061 -0.8615,1.7747 -1.8953 1.9642l -0.0861,-0.4307 c 0.8960,-0.2240 1.3095,-0.7409 1.3095 -1.1027c 0.0000,-0.3963 -0.2929,-0.4652 -0.6203 -0.4997c -0.3101,-0.0517 -0.7581,-0.1895 -0.7581 -0.7581c 0.0000,-0.4824 0.3791,-0.8787 0.9132 -0.8787ZM 353.8347,188.5637 ZM 357.6081,179.2079 c -0.7409,-0.0000 -1.8264,0.7237 -1.8264 4.7382c 0.0000,1.4128 0.2584,4.2558 1.7747 4.2558c 0.2929,-0.0000 1.1199,-0.1895 1.4818 -1.5335c 0.2240,-0.8270 0.3446,-1.8608 0.3446 -3.3598c 0.0000,-2.1882 -0.5514,-3.4115 -1.0510 -3.8423c -0.1895,-0.1723 -0.4480,-0.2584 -0.7237 -0.2584ZM 357.6081,179.2079 ZM 357.5391,188.7704 c -1.8436,-0.0000 -3.0841,-2.3605 -3.0841 -4.9967c 0.0000,-3.2220 1.5335,-5.1690 3.1531 -5.1690c 0.7409,-0.0000 1.4818,0.4652 1.9814 1.1372c 0.7237,0.9649 1.1027,2.2571 1.1027 3.8767c 0.0000,3.8250 -1.8953,5.1517 -3.1531 5.1517Z"/></g><g stroke-linejoin="miter" stroke-opacity="1.0" fill-opacity="1.0" stroke="rgb(102,102,102)" stroke-width="0.0" fill="rgb(0,0,0)" stroke-linecap="butt" stroke-miterlimit="10.0"><path d="M 353.6797,198.2684 c 0.0000,-0.9563 -0.7753,-1.7316 -1.7316 -1.7316c -0.9563,-0.0000 -1.7316,0.7753 -1.7316 1.7316c -0.0000,0.9563 0.7753,1.7316 1.7316 1.7316c 0.9563,0.0000 1.7316,-0.7753 1.7316 -1.7316Z"/></g><g stroke-linejoin="miter" stroke-opacity="1.0" fill-opacity="0.33" stroke="rgb(0,0,0)" fill-rule="evenodd" stroke-width="0.0" fill="rgb(0,0,0)" stroke-linecap="butt" stroke-miterlimit="10.0"><path d="M 238.6186,15.4035 ZM 239.6179,7.7707 c 0.0000,-0.9821 0.9476,-2.3260 2.7568 -2.3260c 1.3267,-0.0000 2.8774,0.4997 2.8774 2.4811c 0.0000,1.3095 -0.6720,1.9642 -1.6024 2.8602l -1.6368,1.5851 c -0.0861,0.0861 -1.2406,1.2233 -1.2406 2.0331h 2.9291 c 0.5858,-0.0000 0.8960,-0.2929 1.1372 -1.2406l 0.4307,0.0689 l -0.3446,2.1710 h -5.3240 c 0.0000,-0.9649 0.1551,-1.7058 1.7574 -3.3426l 1.2061,-1.1889 c 0.9649,-0.9821 1.3612,-1.8264 1.3612 -2.8774c 0.0000,-1.5679 -1.0683,-2.0159 -1.6541 -2.0159c -1.1889,-0.0000 -1.5162,0.6203 -1.5162 1.0338c 0.0000,0.1378 0.0345,0.2757 0.0689 0.3963c 0.0345,0.1206 0.0689,0.2412 0.0689 0.3791c 0.0000,0.4480 -0.3446,0.6203 -0.6203 0.6203c -0.3791,-0.0000 -0.6547,-0.2929 -0.6547 -0.6375ZM 246.1653,15.4035 ZM 247.9572,13.7667 c 0.6892,-0.0000 1.1372,0.6720 1.1372 1.7058c 0.0000,1.2061 -0.8615,1.7747 -1.8953 1.9642l -0.0861,-0.4307 c 0.8960,-0.2240 1.3095,-0.7409 1.3095 -1.1027c 0.0000,-0.3963 -0.2929,-0.4652 -0.6203 -0.4997c -0.3101,-0.0517 -0.7581,-0.1895 -0.7581 -0.7581c 0.0000,-0.4824 0.3791,-0.8787 0.9132 -0.8787ZM 249.9386,15.4035 ZM 255.2626,12.4917 c 0.0000,-1.7747 -0.9649,-2.6534 -2.0331 -2.6534c -0.7926,-0.0000 -1.3956,0.1206 -2.0676 0.3963l 0.5514,-4.7038 c 0.5686,0.0517 1.1544,0.0689 1.7574 0.0689c 0.8615,-0.0000 1.7574,-0.0517 2.6879 -0.1551l 0.1034,0.0517 l -0.2584,1.1199 c -0.6720,0.0689 -1.2233,0.0861 -1.7058 0.0861c -0.7753,-0.0000 -1.3612,-0.0689 -1.9642 -0.1378l -0.3274,2.7223 c 0.3618,-0.1378 0.9821,-0.2584 1.6541 -0.2584c 1.8264,-0.0000 2.8429,1.5851 2.8429 3.1703c 0.0000,1.9297 -1.3439,3.4115 -3.2909 3.4115c -0.9821,-0.0000 -2.4122,-0.5514 -2.4122 -1.2233c 0.0000,-0.3274 0.2757,-0.5514 0.5858 -0.5514c 0.3446,-0.0000 0.5686,0.2584 0.7753 0.5341c 0.2584,0.3101 0.5341,0.6547 1.0855 0.6547c 1.1027,-0.0000 2.0159,-1.0338 2.0159 -2.5328Z"/></g><g stroke-linejoin="miter" stroke-opacity="1.0" fill-opacity="1.0" stroke="rgb(102,102,102)" stroke-width="0.0" fill="rgb(0,0,0)" stroke-linecap="butt" stroke-miterlimit="10.0"><path d="M 249.7835,25.1082 c 0.0000,-0.9563 -0.7753,-1.7316 -1.7316 -1.7316c -0.9563,-0.0000 -1.7316,0.7753 -1.7316 1.7316c -0.0000,0.9563 0.7753,1.7316 1.7316 1.7316c 0.9563,0.0000 1.7316,-0.7753 1.7316 -1.7316Z"/></g><g stroke-linejoin="miter" stroke-opacity="1.0" fill-opacity="0.33" stroke="rgb(0,0,0)" fill-rule="evenodd" stroke-width="0.0" fill="rgb(0,0,0)" stroke-linecap="butt" stroke-miterlimit="10.0"><path d="M 238.6186,50.0355 ZM 239.6179,42.4027 c 0.0000,-0.9821 0.9476,-2.3260 2.7568 -2.3260c 1.3267,-0.0000 2.8774,0.4997 2.8774 2.4811c 0.0000,1.3095 -0.6720,1.9642 -1.6024 2.8602l -1.6368,1.5851 c -0.0861,0.0861 -1.2406,1.2233 -1.2406 2.0331h 2.9291 c 0.5858,-0.0000 0.8960,-0.2929 1.1372 -1.2406l 0.4307,0.0689 l -0.3446,2.1710 h -5.3240 c 0.0000,-0.9649 0.1551,-1.7058 1.7574 -3.3426l 1.2061,-1.1889 c 0.9649,-0.9821 1.3612,-1.8264 1.3612 -2.8774c 0.0000,-1.5679 -1.0683,-2.0159 -1.6541 -2.0159c -1.1889,-0.0000 -1.5162,0.6203 -1.5162 1.0338c 0.0000,0.1378 0.0345,0.2757 0.0689 0.3963c 0.0345,0.1206 0.0689,0.2412 0.0689 0.3791c 0.0000,0.4480 -0.3446,0.6203 -0.6203 0.6203c -0.3791,-0.0000 -0.6547,-0.2929 -0.6547 -0.6375ZM 246.1653,50.0355 ZM 247.9572,48.3987 c 0.6892,-0.0000 1.1372,0.6720 1.1372 1.7058c 0.0000,1.2061 -0.8615,1.7747 -1.8953 1.9642l -0.0861,-0.4307 c 0.8960,-0.2240 1.3095,-0.7409 1.3095 -1.1027c 0.0000,-0.3963 -0.2929,-0.4652 -0.6203 -0.4997c -0.3101,-0.0517 -0.7581,-0.1895 -0.7581 -0.7581c 0.0000,-0.4824 0.3791,-0.8787 0.9132 -0.8787ZM 249.9386,50.0355 ZM 254.3839,43.9189 c 0.0000,-0.1206 0.0172,-0.2584 0.1723 -0.3446c 0.1895,-0.1378 0.4997,-0.2929 0.7581 -0.2929c 0.2240,-0.0000 0.2412,0.1895 0.2412 0.5341v 2.7740 h 1.3956 l -0.1034,0.8098 h -1.2922 v 1.4301 c 0.0000,0.4824 0.0689,0.7237 0.5686 0.7237h 0.4652 c 0.1034,-0.0000 0.1206,0.0861 0.1206 0.1206v 0.3791 c 0.0000,-0.0000 -1.1027,-0.0345 -1.8264 -0.0345c -0.6547,-0.0000 -1.6713,0.0345 -1.6713 0.0345v -0.3791 c 0.0000,-0.0345 0.0172,-0.1206 0.1206 -0.1206h 0.4652 c 0.5341,-0.0000 0.5858,-0.2240 0.5858 -0.7237v -1.4301 h -3.3771 c -0.0689,-0.0000 -0.1034,-0.0345 -0.1551 -0.1034l -0.1378,-0.1895 l -0.2068,-0.3618 c -0.0172,-0.0000 -0.0172,-0.0172 -0.0172 -0.0345c 0.0000,-0.0172 0.0172,-0.0345 0.0345 -0.0517c 1.1199,-1.2406 3.1014,-5.0828 3.7217 -6.4957c 0.0172,-0.0689 0.0517,-0.0861 0.1206 -0.0861c 0.0172,-0.0000 0.3963,0.1551 0.6030 0.1895c -0.7753,2.0848 -2.0504,4.3247 -3.3081 6.3234h 2.7223 v -2.6706 Z"/></g><g stroke-linejoin="miter" stroke-opacity="1.0" fill-opacity="1.0" stroke="rgb(102,102,102)" stroke-width="0.0" fill="rgb(0,0,0)" stroke-linecap="butt" stroke-miterlimit="10.0"><path d="M 249.7835,59.7403 c 0.0000,-0.9563 -0.7753,-1.7316 -1.7316 -1.7316c -0.9563,-0.0000 -1.7316,0.7753 -1.7316 1.7316c -0.0000,0.9563 0.7753,1.7316 1.7316 1.7316c 0.9563,0.0000 1.7316,-0.7753 1.7316 -1.7316Z"/></g><g stroke-linejoin="miter" stroke-opacity="1.0" fill-opacity="0.33" stroke="rgb(0,0,0)" fill-rule="evenodd" stroke-width="0.0" fill="rgb(0,0,0)" stroke-linecap="butt" stroke-miterlimit="10.0"><path d="M 238.6186,84.6676 ZM 239.6179,77.0347 c 0.0000,-0.9821 0.9476,-2.3260 2.7568 -2.3260c 1.3267,-0.0000 2.8774,0.4997 2.8774 2.4811c 0.0000,1.3095 -0.6720,1.9642 -1.6024 2.8602l -1.6368,1.5851 c -0.0861,0.0861 -1.2406,1.2233 -1.2406 2.0331h 2.9291 c 0.5858,-0.0000 0.8960,-0.2929 1.1372 -1.2406l 0.4307,0.0689 l -0.3446,2.1710 h -5.3240 c 0.0000,-0.9649 0.1551,-1.7058 1.7574 -3.3426l 1.2061,-1.1889 c 0.9649,-0.9821 1.3612,-1.8264 1.3612 -2.8774c 0.0000,-1.5679 -1.0683,-2.0159 -1.6541 -2.0159c -1.1889,-0.0000 -1.5162,0.6203 -1.5162 1.0338c 0.0000,0.1378 0.0345,0.2757 0.0689 0.3963c 0.0345,0.1206 0.0689,0.2412 0.0689 0.3791c 0.0000,0.4480 -0.3446,0.6203 -0.6203 0.6203c -0.3791,-0.0000 -0.6547,-0.2929 -0.6547 -0.6375ZM 246.1653,84.6676 ZM 247.9572,83.0307 c 0.6892,-0.0000 1.1372,0.6720 1.1372 1.7058c 0.0000,1.2061 -0.8615,1.7747 -1.8953 1.9642l -0.0861,-0.4307 c 0.8960,-0.2240 1.3095,-0.7409 1.3095 -1.1027c 0.0000,-0.3963 -0.2929,-0.4652 -0.6203 -0.4997c -0.3101,-0.0517 -0.7581,-0.1895 -0.7581 -0.7581c 0.0000,-0.4824 0.3791,-0.8787 0.9132 -0.8787ZM 249.9386,84.6676 ZM 253.6603,75.2428 c -0.4307,-0.0000 -1.6885,0.2412 -1.6885 1.2922c 0.0000,0.3101 -0.1206,0.8443 -0.5858 0.8443c -0.4480,-0.0000 -0.4824,-0.4997 -0.4824 -0.5514c 0.0000,-0.5341 0.7064,-2.1193 3.1014 -2.1193c 1.6713,-0.0000 2.1710,1.0510 2.1710 1.7402c 0.0000,0.4307 -0.1378,1.2922 -1.6885 2.2743c 0.9649,0.1551 2.2399,0.8615 2.2399 2.6534c 0.0000,2.2743 -1.7230,3.4977 -3.6700 3.4977c -0.9821,-0.0000 -2.3605,-0.4307 -2.3605 -1.0855c 0.0000,-0.2584 0.2584,-0.5514 0.6030 -0.5514c 0.3274,-0.0000 0.4824,0.1723 0.6375 0.3963c 0.1895,0.2929 0.4997,0.7064 1.3267 0.7064c 0.5686,-0.0000 2.1882,-0.5686 2.1882 -2.7395c 0.0000,-1.8436 -1.2922,-2.1365 -2.2227 -2.1365c -0.1551,-0.0000 -0.3446,0.0345 -0.5341 0.0689l -0.0689,-0.5169 c 1.3267,-0.2240 2.4294,-1.5162 2.4294 -2.3088c 0.0000,-0.9821 -0.6892,-1.4645 -1.3956 -1.4645Z"/></g><g stroke-linejoin="miter" stroke-opacity="1.0" fill-opacity="1.0" stroke="rgb(102,102,102)" stroke-width="0.0" fill="rgb(0,0,0)" stroke-linecap="butt" stroke-miterlimit="10.0"><path d="M 249.7835,94.3723 c 0.0000,-0.9563 -0.7753,-1.7316 -1.7316 -1.7316c -0.9563,-0.0000 -1.7316,0.7753 -1.7316 1.7316c -0.0000,0.9563 0.7753,1.7316 1.7316 1.7316c 0.9563,0.0000 1.7316,-0.7753 1.7316 -1.7316Z"/></g><g stroke-linejoin="miter" stroke-opacity="1.0" fill-opacity="0.33" stroke="rgb(0,0,0)" fill-rule="evenodd" stroke-width="0.0" fill="rgb(0,0,0)" stroke-linecap="butt" stroke-miterlimit="10.0"><path d="M 238.6186,119.2996 ZM 239.6179,111.6668 c 0.0000,-0.9821 0.9476,-2.3260 2.7568 -2.3260c 1.3267,-0.0000 2.8774,0.4997 2.8774 2.4811c 0.0000,1.3095 -0.6720,1.9642 -1.6024 2.8602l -1.6368,1.5851 c -0.0861,0.0861 -1.2406,1.2233 -1.2406 2.0331h 2.9291 c 0.5858,-0.0000 0.8960,-0.2929 1.1372 -1.2406l 0.4307,0.0689 l -0.3446,2.1710 h -5.3240 c 0.0000,-0.9649 0.1551,-1.7058 1.7574 -3.3426l 1.2061,-1.1889 c 0.9649,-0.9821 1.3612,-1.8264 1.3612 -2.8774c 0.0000,-1.5679 -1.0683,-2.0159 -1.6541 -2.0159c -1.1889,-0.0000 -1.5162,0.6203 -1.5162 1.0338c 0.0000,0.1378 0.0345,0.2757 0.0689 0.3963c 0.0345,0.1206 0.0689,0.2412 0.0689 0.3791c 0.0000,0.4480 -0.3446,0.6203 -0.6203 0.6203c -0.3791,-0.0000 -0.6547,-0.2929 -0.6547 -0.6375ZM 246.1653,119.2996 ZM 247.9572,117.6628 c 0.6892,-0.0000 1.1372,0.6720 1.1372 1.7058c 0.0000,1.2061 -0.8615,1.7747 -1.8953 1.9642l -0.0861,-0.4307 c 0.8960,-0.2240 1.3095,-0.7409 1.3095 -1.1027c 0.0000,-0.3963 -0.2929,-0.4652 -0.6203 -0.4997c -0.3101,-0.0517 -0.7581,-0.1895 -0.7581 -0.7581c 0.0000,-0.4824 0.3791,-0.8787 0.9132 -0.8787ZM 249.9386,119.2996 ZM 250.9380,111.6668 c 0.0000,-0.9821 0.9476,-2.3260 2.7568 -2.3260c 1.3267,-0.0000 2.8774,0.4997 2.8774 2.4811c 0.0000,1.3095 -0.6720,1.9642 -1.6024 2.8602l -1.6368,1.5851 c -0.0861,0.0861 -1.2406,1.2233 -1.2406 2.0331h 2.9291 c 0.5858,-0.0000 0.8960,-0.2929 1.1372 -1.2406l 0.4307,0.0689 l -0.3446,2.1710 h -5.3240 c 0.0000,-0.9649 0.1551,-1.7058 1.7574 -3.3426l 1.2061,-1.1889 c 0.9649,-0.9821 1.3612,-1.8264 1.3612 -2.8774c 0.0000,-1.5679 -1.0683,-2.0159 -1.6541 -2.0159c -1.1889,-0.0000 -1.5162,0.6203 -1.5162 1.0338c 0.0000,0.1378 0.0345,0.2757 0.0689 0.3963c 0.0345,0.1206 0.0689,0.2412 0.0689 0.3791c 0.0000,0.4480 -0.3446,0.6203 -0.6203 0.6203c -0.3791,-0.0000 -0.6547,-0.2929 -0.6547 -0.6375Z"/></g><g stroke-linejoin="miter" stroke-opacity="1.0" fill-opacity="1.0" stroke="rgb(102,102,102)" stroke-width="0.0" fill="rgb(0,0,0)" stroke-linecap="butt" stroke-miterlimit="10.0"><path d="M 249.7835,129.0043 c 0.0000,-0.9563 -0.7753,-1.7316 -1.7316 -1.7316c -0.9563,-0.0000 -1.7316,0.7753 -1.7316 1.7316c -0.0000,0.9563 0.7753,1.7316 1.7316 1.7316c 0.9563,0.0000 1.7316,-0.7753 1.7316 -1.7316Z"/></g><g stroke-linejoin="miter" stroke-opacity="1.0" fill-opacity="0.33" stroke="rgb(0,0,0)" fill-rule="evenodd" stroke-width="0.0" fill="rgb(0,0,0)" stroke-linecap="butt" stroke-miterlimit="10.0"><path d="M 238.6186,153.9316 ZM 239.6179,146.2988 c 0.0000,-0.9821 0.9476,-2.3260 2.7568 -2.3260c 1.3267,-0.0000 2.8774,0.4997 2.8774 2.4811c 0.0000,1.3095 -0.6720,1.9642 -1.6024 2.8602l -1.6368,1.5851 c -0.0861,0.0861 -1.2406,1.2233 -1.2406 2.0331h 2.9291 c 0.5858,-0.0000 0.8960,-0.2929 1.1372 -1.2406l 0.4307,0.0689 l -0.3446,2.1710 h -5.3240 c 0.0000,-0.9649 0.1551,-1.7058 1.7574 -3.3426l 1.2061,-1.1889 c 0.9649,-0.9821 1.3612,-1.8264 1.3612 -2.8774c 0.0000,-1.5679 -1.0683,-2.0159 -1.6541 -2.0159c -1.1889,-0.0000 -1.5162,0.6203 -1.5162 1.0338c 0.0000,0.1378 0.0345,0.2757 0.0689 0.3963c 0.0345,0.1206 0.0689,0.2412 0.0689 0.3791c 0.0000,0.4480 -0.3446,0.6203 -0.6203 0.6203c -0.3791,-0.0000 -0.6547,-0.2929 -0.6547 -0.6375ZM 246.1653,153.9316 ZM 247.9572,152.2948 c 0.6892,-0.0000 1.1372,0.6720 1.1372 1.7058c 0.0000,1.2061 -0.8615,1.7747 -1.8953 1.9642l -0.0861,-0.4307 c 0.8960,-0.2240 1.3095,-0.7409 1.3095 -1.1027c 0.0000,-0.3963 -0.2929,-0.4652 -0.6203 -0.4997c -0.3101,-0.0517 -0.7581,-0.1895 -0.7581 -0.7581c 0.0000,-0.4824 0.3791,-0.8787 0.9132 -0.8787ZM 249.9386,153.9316 ZM 253.1778,145.7130 c -0.3274,-0.0000 -1.0855,0.3101 -1.4645 0.4824l -0.2068,-0.5341 c 1.5162,-0.7064 2.1020,-1.0683 2.9635 -1.6885h 0.3274 v 8.6666 c 0.0000,0.6203 0.0861,0.7926 0.6547 0.7926h 0.8960 c 0.0517,-0.0000 0.1378,0.0345 0.1378 0.1378v 0.3791 l -2.3605,-0.0345 l -2.3950,0.0345 v -0.3791 c 0.0172,-0.0517 0.0345,-0.1378 0.1378 -0.1378h 1.0338 c 0.6547,-0.0000 0.6547,-0.2929 0.6547 -0.7926v -5.9271 c 0.0000,-0.5858 0.0000,-0.9993 -0.3791 -0.9993Z"/></g><g stroke-linejoin="miter" stroke-opacity="1.0" fill-opacity="1.0" stroke="rgb(102,102,102)" stroke-width="0.0" fill="rgb(0,0,0)" stroke-linecap="butt" stroke-miterlimit="10.0"><path d="M 249.7835,163.6364 c 0.0000,-0.9563 -0.7753,-1.7316 -1.7316 -1.7316c -0.9563,-0.0000 -1.7316,0.7753 -1.7316 1.7316c -0.0000,0.9563 0.7753,1.7316 1.7316 1.7316c 0.9563,0.0000 1.7316,-0.7753 1.7316 -1.7316Z"/></g><g stroke-linejoin="miter" stroke-opacity="1.0" fill-opacity="0.33" stroke="rgb(0,0,0)" fill-rule="evenodd" stroke-width="0.0" fill="rgb(0,0,0)" stroke-linecap="butt" stroke-miterlimit="10.0"><path d="M 238.6186,188.5637 ZM 239.6179,180.9308 c 0.0000,-0.9821 0.9476,-2.3260 2.7568 -2.3260c 1.3267,-0.0000 2.8774,0.4997 2.8774 2.4811c 0.0000,1.3095 -0.6720,1.9642 -1.6024 2.8602l -1.6368,1.5851 c -0.0861,0.0861 -1.2406,1.2233 -1.2406 2.0331h 2.9291 c 0.5858,-0.0000 0.8960,-0.2929 1.1372 -1.2406l 0.4307,0.0689 l -0.3446,2.1710 h -5.3240 c 0.0000,-0.9649 0.1551,-1.7058 1.7574 -3.3426l 1.2061,-1.1889 c 0.9649,-0.9821 1.3612,-1.8264 1.3612 -2.8774c 0.0000,-1.5679 -1.0683,-2.0159 -1.6541 -2.0159c -1.1889,-0.0000 -1.5162,0.6203 -1.5162 1.0338c 0.0000,0.1378 0.0345,0.2757 0.0689 0.3963c 0.0345,0.1206 0.0689,0.2412 0.0689 0.3791c 0.0000,0.4480 -0.3446,0.6203 -0.6203 0.6203c -0.3791,-0.0000 -0.6547,-0.2929 -0.6547 -0.6375ZM 246.1653,188.5637 ZM 247.9572,186.9268 c 0.6892,-0.0000 1.1372,0.6720 1.1372 1.7058c 0.0000,1.2061 -0.8615,1.7747 -1.8953 1.9642l -0.0861,-0.4307 c 0.8960,-0.2240 1.3095,-0.7409 1.3095 -1.1027c 0.0000,-0.3963 -0.2929,-0.4652 -0.6203 -0.4997c -0.3101,-0.0517 -0.7581,-0.1895 -0.7581 -0.7581c 0.0000,-0.4824 0.3791,-0.8787 0.9132 -0.8787ZM 249.9386,188.5637 ZM 253.7120,179.2079 c -0.7409,-0.0000 -1.8264,0.7237 -1.8264 4.7382c 0.0000,1.4128 0.2584,4.2558 1.7747 4.2558c 0.2929,-0.0000 1.1199,-0.1895 1.4818 -1.5335c 0.2240,-0.8270 0.3446,-1.8608 0.3446 -3.3598c 0.0000,-2.1882 -0.5514,-3.4115 -1.0510 -3.8423c -0.1895,-0.1723 -0.4480,-0.2584 -0.7237 -0.2584ZM 253.7120,179.2079 ZM 253.6430,188.7704 c -1.8436,-0.0000 -3.0841,-2.3605 -3.0841 -4.9967c 0.0000,-3.2220 1.5335,-5.1690 3.1531 -5.1690c 0.7409,-0.0000 1.4818,0.4652 1.9814 1.1372c 0.7237,0.9649 1.1027,2.2571 1.1027 3.8767c 0.0000,3.8250 -1.8953,5.1517 -3.1531 5.1517Z"/></g><g stroke-linejoin="miter" stroke-opacity="1.0" fill-opacity="1.0" stroke="rgb(102,102,102)" stroke-width="0.0" fill="rgb(0,0,0)" stroke-linecap="butt" stroke-miterlimit="10.0"><path d="M 249.7835,198.2684 c 0.0000,-0.9563 -0.7753,-1.7316 -1.7316 -1.7316c -0.9563,-0.0000 -1.7316,0.7753 -1.7316 1.7316c -0.0000,0.9563 0.7753,1.7316 1.7316 1.7316c 0.9563,0.0000 1.7316,-0.7753 1.7316 -1.7316Z"/></g><g stroke-linejoin="miter" stroke-opacity="1.0" fill-opacity="0.33" stroke="rgb(0,0,0)" fill-rule="evenodd" stroke-width="0.0" fill="rgb(0,0,0)" stroke-linecap="butt" stroke-miterlimit="10.0"><path d="M 134.7225,15.4035 ZM 137.9617,7.1849 c -0.3274,-0.0000 -1.0855,0.3101 -1.4645 0.4824l -0.2068,-0.5341 c 1.5162,-0.7064 2.1020,-1.0683 2.9635 -1.6885h 0.3274 v 8.6666 c 0.0000,0.6203 0.0861,0.7926 0.6547 0.7926h 0.8960 c 0.0517,-0.0000 0.1378,0.0345 0.1378 0.1378v 0.3791 l -2.3605,-0.0345 l -2.3950,0.0345 v -0.3791 c 0.0172,-0.0517 0.0345,-0.1378 0.1378 -0.1378h 1.0338 c 0.6547,-0.0000 0.6547,-0.2929 0.6547 -0.7926v -5.9271 c 0.0000,-0.5858 0.0000,-0.9993 -0.3791 -0.9993ZM 142.2692,15.4035 ZM 144.0611,13.7667 c 0.6892,-0.0000 1.1372,0.6720 1.1372 1.7058c 0.0000,1.2061 -0.8615,1.7747 -1.8953 1.9642l -0.0861,-0.4307 c 0.8960,-0.2240 1.3095,-0.7409 1.3095 -1.1027c 0.0000,-0.3963 -0.2929,-0.4652 -0.6203 -0.4997c -0.3101,-0.0517 -0.7581,-0.1895 -0.7581 -0.7581c 0.0000,-0.4824 0.3791,-0.8787 0.9132 -0.8787ZM 146.0425,15.4035 ZM 151.3665,12.4917 c 0.0000,-1.7747 -0.9649,-2.6534 -2.0331 -2.6534c -0.7926,-0.0000 -1.3956,0.1206 -2.0676 0.3963l 0.5514,-4.7038 c 0.5686,0.0517 1.1544,0.0689 1.7574 0.0689c 0.8615,-0.0000 1.7574,-0.0517 2.6879 -0.1551l 0.1034,0.0517 l -0.2584,1.1199 c -0.6720,0.0689 -1.2233,0.0861 -1.7058 0.0861c -0.7753,-0.0000 -1.3612,-0.0689 -1.9642 -0.1378l -0.3274,2.7223 c 0.3618,-0.1378 0.9821,-0.2584 1.6541 -0.2584c 1.8264,-0.0000 2.8429,1.5851 2.8429 3.1703c 0.0000,1.9297 -1.3439,3.4115 -3.2909 3.4115c -0.9821,-0.0000 -2.4122,-0.5514 -2.4122 -1.2233c 0.0000,-0.3274 0.2757,-0.5514 0.5858 -0.5514c 0.3446,-0.0000 0.5686,0.2584 0.7753 0.5341c 0.2584,0.3101 0.5341,0.6547 1.0855 0.6547c 1.1027,-0.0000 2.0159,-1.0338 2.0159 -2.5328Z"/></g><g stroke-linejoin="miter" stroke-opacity="1.0" fill-opacity="1.0" stroke="rgb(102,102,102)" stroke-width="0.0" fill="rgb(0,0,0)" stroke-linecap="butt" stroke-miterlimit="10.0"><path d="M 145.8874,25.1082 c 0.0000,-0.9563 -0.7753,-1.7316 -1.7316 -1.7316c -0.9563,-0.0000 -1.7316,0.7753 -1.7316 1.7316c -0.0000,0.9563 0.7753,1.7316 1.7316 1.7316c 0.9563,0.0000 1.7316,-0.7753 1.7316 -1.7316Z"/></g><g stroke-linejoin="miter" stroke-opacity="1.0" fill-opacity="0.33" stroke="rgb(0,0,0)" fill-rule="evenodd" stroke-width="0.0" fill="rgb(0,0,0)" stroke-linecap="butt" stroke-miterlimit="10.0"><path d="M 134.7225,50.0355 ZM 137.9617,41.8169 c -0.3274,-0.0000 -1.0855,0.3101 -1.4645 0.4824l -0.2068,-0.5341 c 1.5162,-0.7064 2.1020,-1.0683 2.9635 -1.6885h 0.3274 v 8.6666 c 0.0000,0.6203 0.0861,0.7926 0.6547 0.7926h 0.8960 c 0.0517,-0.0000 0.1378,0.0345 0.1378 0.1378v 0.3791 l -2.3605,-0.0345 l -2.3950,0.0345 v -0.3791 c 0.0172,-0.0517 0.0345,-0.1378 0.1378 -0.1378h 1.0338 c 0.6547,-0.0000 0.6547,-0.2929 0.6547 -0.7926v -5.9271 c 0.0000,-0.5858 0.0000,-0.9993 -0.3791 -0.9993ZM 142.2692,50.0355 ZM 144.0611,48.3987 c 0.6892,-0.0000 1.1372,0.6720 1.1372 1.7058c 0.0000,1.2061 -0.8615,1.7747 -1.8953 1.9642l -0.0861,-0.4307 c 0.8960,-0.2240 1.3095,-0.7409 1.3095 -1.1027c 0.0000,-0.3963 -0.2929,-0.4652 -0.6203 -0.4997c -0.3101,-0.0517 -0.7581,-0.1895 -0.7581 -0.7581c 0.0000,-0.4824 0.3791,-0.8787 0.9132 -0.8787ZM 146.0425,50.0355 ZM 150.4878,43.9189 c 0.0000,-0.1206 0.0172,-0.2584 0.1723 -0.3446c 0.1895,-0.1378 0.4997,-0.2929 0.7581 -0.2929c 0.2240,-0.0000 0.2412,0.1895 0.2412 0.5341v 2.7740 h 1.3956 l -0.1034,0.8098 h -1.2922 v 1.4301 c 0.0000,0.4824 0.0689,0.7237 0.5686 0.7237h 0.4652 c 0.1034,-0.0000 0.1206,0.0861 0.1206 0.1206v 0.3791 c 0.0000,-0.0000 -1.1027,-0.0345 -1.8264 -0.0345c -0.6547,-0.0000 -1.6713,0.0345 -1.6713 0.0345v -0.3791 c 0.0000,-0.0345 0.0172,-0.1206 0.1206 -0.1206h 0.4652 c 0.5341,-0.0000 0.5858,-0.2240 0.5858 -0.7237v -1.4301 h -3.3771 c -0.0689,-0.0000 -0.1034,-0.0345 -0.1551 -0.1034l -0.1378,-0.1895 l -0.2068,-0.3618 c -0.0172,-0.0000 -0.0172,-0.0172 -0.0172 -0.0345c 0.0000,-0.0172 0.0172,-0.0345 0.0345 -0.0517c 1.1199,-1.2406 3.1014,-5.0828 3.7217 -6.4957c 0.0172,-0.0689 0.0517,-0.0861 0.1206 -0.0861c 0.0172,-0.0000 0.3963,0.1551 0.6030 0.1895c -0.7753,2.0848 -2.0504,4.3247 -3.3081 6.3234h 2.7223 v -2.6706 Z"/></g><g stroke-linejoin="miter" stroke-opacity="1.0" fill-opacity="1.0" stroke="rgb(102,102,102)" stroke-width="0.0" fill="rgb(0,0,0)" stroke-linecap="butt" stroke-miterlimit="10.0"><path d="M 145.8874,59.7403 c 0.0000,-0.9563 -0.7753,-1.7316 -1.7316 -1.7316c -0.9563,-0.0000 -1.7316,0.7753 -1.7316 1.7316c -0.0000,0.9563 0.7753,1.7316 1.7316 1.7316c 0.9563,0.0000 1.7316,-0.7753 1.7316 -1.7316Z"/></g><g stroke-linejoin="miter" stroke-opacity="1.0" fill-opacity="0.33" stroke="rgb(0,0,0)" fill-rule="evenodd" stroke-width="0.0" fill="rgb(0,0,0)" stroke-linecap="butt" stroke-miterlimit="10.0"><path d="M 134.7225,84.6676 ZM 137.9617,76.4489 c -0.3274,-0.0000 -1.0855,0.3101 -1.4645 0.4824l -0.2068,-0.5341 c 1.5162,-0.7064 2.1020,-1.0683 2.9635 -1.6885h 0.3274 v 8.6666 c 0.0000,0.6203 0.0861,0.7926 0.6547 0.7926h 0.8960 c 0.0517,-0.0000 0.1378,0.0345 0.1378 0.1378v 0.3791 l -2.3605,-0.0345 l -2.3950,0.0345 v -0.3791 c 0.0172,-0.0517 0.0345,-0.1378 0.1378 -0.1378h 1.0338 c 0.6547,-0.0000 0.6547,-0.2929 0.6547 -0.7926v -5.9271 c 0.0000,-0.5858 0.0000,-0.9993 -0.3791 -0.9993ZM 142.2692,84.6676 ZM 144.0611,83.0307 c 0.6892,-0.0000 1.1372,0.6720 1.1372 1.7058c 0.0000,1.2061 -0.8615,1.7747 -1.8953 1.9642l -0.0861,-0.4307 c 0.8960,-0.2240 1.3095,-0.7409 1.3095 -1.1027c 0.0000,-0.3963 -0.2929,-0.4652 -0.6203 -0.4997c -0.3101,-0.0517 -0.7581,-0.1895 -0.7581 -0.7581c 0.0000,-0.4824 0.3791,-0.8787 0.9132 -0.8787ZM 146.0425,84.6676 ZM 149.7642,75.2428 c -0.4307,-0.0000 -1.6885,0.2412 -1.6885 1.2922c 0.0000,0.3101 -0.1206,0.8443 -0.5858 0.8443c -0.4480,-0.0000 -0.4824,-0.4997 -0.4824 -0.5514c 0.0000,-0.5341 0.7064,-2.1193 3.1014 -2.1193c 1.6713,-0.0000 2.1710,1.0510 2.1710 1.7402c 0.0000,0.4307 -0.1378,1.2922 -1.6885 2.2743c 0.9649,0.1551 2.2399,0.8615 2.2399 2.6534c 0.0000,2.2743 -1.7230,3.4977 -3.6700 3.4977c -0.9821,-0.0000 -2.3605,-0.4307 -2.3605 -1.0855c 0.0000,-0.2584 0.2584,-0.5514 0.6030 -0.5514c 0.3274,-0.0000 0.4824,0.1723 0.6375 0.3963c 0.1895,0.2929 0.4997,0.7064 1.3267 0.7064c 0.5686,-0.0000 2.1882,-0.5686 2.1882 -2.7395c 0.0000,-1.8436 -1.2922,-2.1365 -2.2227 -2.1365c -0.1551,-0.0000 -0.3446,0.0345 -0.5341 0.0689l -0.0689,-0.5169 c 1.3267,-0.2240 2.4294,-1.5162 2.4294 -2.3088c 0.0000,-0.9821 -0.6892,-1.4645 -1.3956 -1.4645Z"/></g><g stroke-linejoin="miter" stroke-opacity="1.0" fill-opacity="1.0" stroke="rgb(102,102,102)" stroke-width="0.0" fill="rgb(0,0,0)" stroke-linecap="butt" stroke-miterlimit="10.0"><path d="M 145.8874,94.3723 c 0.0000,-0.9563 -0.7753,-1.7316 -1.7316 -1.7316c -0.9563,-0.0000 -1.7316,0.7753 -1.7316 1.7316c -0.0000,0.9563 0.7753,1.7316 1.7316 1.7316c 0.9563,0.0000 1.7316,-0.7753 1.7316 -1.7316Z"/></g><g stroke-linejoin="miter" stroke-opacity="1.0" fill-opacity="0.33" stroke="rgb(0,0,0)" fill-rule="evenodd" stroke-width="0.0" fill="rgb(0,0,0)" stroke-linecap="butt" stroke-miterlimit="10.0"><path d="M 134.7225,119.2996 ZM 137.9617,111.0810 c -0.3274,-0.0000 -1.0855,0.3101 -1.4645 0.4824l -0.2068,-0.5341 c 1.5162,-0.7064 2.1020,-1.0683 2.9635 -1.6885h 0.3274 v 8.6666 c 0.0000,0.6203 0.0861,0.7926 0.6547 0.7926h 0.8960 c 0.0517,-0.0000 0.1378,0.0345 0.1378 0.1378v 0.3791 l -2.3605,-0.0345 l -2.3950,0.0345 v -0.3791 c 0.0172,-0.0517 0.0345,-0.1378 0.1378 -0.1378h 1.0338 c 0.6547,-0.0000 0.6547,-0.2929 0.6547 -0.7926v -5.9271 c 0.0000,-0.5858 0.0000,-0.9993 -0.3791 -0.9993ZM 142.2692,119.2996 ZM 144.0611,117.6628 c 0.6892,-0.0000 1.1372,0.6720 1.1372 1.7058c 0.0000,1.2061 -0.8615,1.7747 -1.8953 1.9642l -0.0861,-0.4307 c 0.8960,-0.2240 1.3095,-0.7409 1.3095 -1.1027c 0.0000,-0.3963 -0.2929,-0.4652 -0.6203 -0.4997c -0.3101,-0.0517 -0.7581,-0.1895 -0.7581 -0.7581c 0.0000,-0.4824 0.3791,-0.8787 0.9132 -0.8787ZM 146.0425,119.2996 ZM 147.0418,111.6668 c 0.0000,-0.9821 0.9476,-2.3260 2.7568 -2.3260c 1.3267,-0.0000 2.8774,0.4997 2.8774 2.4811c 0.0000,1.3095 -0.6720,1.9642 -1.6024 2.8602l -1.6368,1.5851 c -0.0861,0.0861 -1.2406,1.2233 -1.2406 2.0331h 2.9291 c 0.5858,-0.0000 0.8960,-0.2929 1.1372 -1.2406l 0.4307,0.0689 l -0.3446,2.1710 h -5.3240 c 0.0000,-0.9649 0.1551,-1.7058 1.7574 -3.3426l 1.2061,-1.1889 c 0.9649,-0.9821 1.3612,-1.8264 1.3612 -2.8774c 0.0000,-1.5679 -1.0683,-2.0159 -1.6541 -2.0159c -1.1889,-0.0000 -1.5162,0.6203 -1.5162 1.0338c 0.0000,0.1378 0.0345,0.2757 0.0689 0.3963c 0.0345,0.1206 0.0689,0.2412 0.0689 0.3791c 0.0000,0.4480 -0.3446,0.6203 -0.6203 0.6203c -0.3791,-0.0000 -0.6547,-0.2929 -0.6547 -0.6375Z"/></g><g stroke-linejoin="miter" stroke-opacity="1.0" fill-opacity="1.0" stroke="rgb(102,102,102)" stroke-width="0.0" fill="rgb(0,0,0)" stroke-linecap="butt" stroke-miterlimit="10.0"><path d="M 145.8874,129.0043 c 0.0000,-0.9563 -0.7753,-1.7316 -1.7316 -1.7316c -0.9563,-0.0000 -1.7316,0.7753 -1.7316 1.7316c -0.0000,0.9563 0.7753,1.7316 1.7316 1.7316c 0.9563,0.0000 1.7316,-0.7753 1.7316 -1.7316Z"/></g><g stroke-linejoin="miter" stroke-opacity="1.0" fill-opacity="0.33" stroke="rgb(0,0,0)" fill-rule="evenodd" stroke-width="0.0" fill="rgb(0,0,0)" stroke-linecap="butt" stroke-miterlimit="10.0"><path d="M 134.7225,153.9316 ZM 137.9617,145.7130 c -0.3274,-0.0000 -1.0855,0.3101 -1.4645 0.4824l -0.2068,-0.5341 c 1.5162,-0.7064 2.1020,-1.0683 2.9635 -1.6885h 0.3274 v 8.6666 c 0.0000,0.6203 0.0861,0.7926 0.6547 0.7926h 0.8960 c 0.0517,-0.0000 0.1378,0.0345 0.1378 0.1378v 0.3791 l -2.3605,-0.0345 l -2.3950,0.0345 v -0.3791 c 0.0172,-0.0517 0.0345,-0.1378 0.1378 -0.1378h 1.0338 c 0.6547,-0.0000 0.6547,-0.2929 0.6547 -0.7926v -5.9271 c 0.0000,-0.5858 0.0000,-0.9993 -0.3791 -0.9993ZM 142.2692,153.9316 ZM 144.0611,152.2948 c 0.6892,-0.0000 1.1372,0.6720 1.1372 1.7058c 0.0000,1.2061 -0.8615,1.7747 -1.8953 1.9642l -0.0861,-0.4307 c 0.8960,-0.2240 1.3095,-0.7409 1.3095 -1.1027c 0.0000,-0.3963 -0.2929,-0.4652 -0.6203 -0.4997c -0.3101,-0.0517 -0.7581,-0.1895 -0.7581 -0.7581c 0.0000,-0.4824 0.3791,-0.8787 0.9132 -0.8787ZM 146.0425,153.9316 ZM 149.2817,145.7130 c -0.3274,-0.0000 -1.0855,0.3101 -1.4645 0.4824l -0.2068,-0.5341 c 1.5162,-0.7064 2.1020,-1.0683 2.9635 -1.6885h 0.3274 v 8.6666 c 0.0000,0.6203 0.0861,0.7926 0.6547 0.7926h 0.8960 c 0.0517,-0.0000 0.1378,0.0345 0.1378 0.1378v 0.3791 l -2.3605,-0.0345 l -2.3950,0.0345 v -0.3791 c 0.0172,-0.0517 0.0345,-0.1378 0.1378 -0.1378h 1.0338 c 0.6547,-0.0000 0.6547,-0.2929 0.6547 -0.7926v -5.9271 c 0.0000,-0.5858 0.0000,-0.9993 -0.3791 -0.9993Z"/></g><g stroke-linejoin="miter" stroke-opacity="1.0" fill-opacity="1.0" stroke="rgb(102,102,102)" stroke-width="0.0" fill="rgb(0,0,0)" stroke-linecap="butt" stroke-miterlimit="10.0"><path d="M 145.8874,163.6364 c 0.0000,-0.9563 -0.7753,-1.7316 -1.7316 -1.7316c -0.9563,-0.0000 -1.7316,0.7753 -1.7316 1.7316c -0.0000,0.9563 0.7753,1.7316 1.7316 1.7316c 0.9563,0.0000 1.7316,-0.7753 1.7316 -1.7316Z"/></g><g stroke-linejoin="miter" stroke-opacity="1.0" fill-opacity="0.33" stroke="rgb(0,0,0)" fill-rule="evenodd" stroke-width="0.0" fill="rgb(0,0,0)" stroke-linecap="butt" stroke-miterlimit="10.0"><path d="M 134.7225,188.5637 ZM 137.9617,180.3450 c -0.3274,-0.0000 -1.0855,0.3101 -1.4645 0.4824l -0.2068,-0.5341 c 1.5162,-0.7064 2.1020,-1.0683 2.9635 -1.6885h 0.3274 v 8.6666 c 0.0000,0.6203 0.0861,0.7926 0.6547 0.7926h 0.8960 c 0.0517,-0.0000 0.1378,0.0345 0.1378 0.1378v 0.3791 l -2.3605,-0.0345 l -2.3950,0.0345 v -0.3791 c 0.0172,-0.0517 0.0345,-0.1378 0.1378 -0.1378h 1.0338 c 0.6547,-0.0000 0.6547,-0.2929 0.6547 -0.7926v -5.9271 c 0.0000,-0.5858 0.0000,-0.9993 -0.3791 -0.9993ZM 142.2692,188.5637 ZM 144.0611,186.9268 c 0.6892,-0.0000 1.1372,0.6720 1.1372 1.7058c 0.0000,1.2061 -0.8615,1.7747 -1.8953 1.9642l -0.0861,-0.4307 c 0.8960,-0.2240 1.3095,-0.7409 1.3095 -1.1027c 0.0000,-0.3963 -0.2929,-0.4652 -0.6203 -0.4997c -0.3101,-0.0517 -0.7581,-0.1895 -0.7581 -0.7581c 0.0000,-0.4824 0.3791,-0.8787 0.9132 -0.8787ZM 146.0425,188.5637 ZM 149.8159,179.2079 c -0.7409,-0.0000 -1.8264,0.7237 -1.8264 4.7382c 0.0000,1.4128 0.2584,4.2558 1.7747 4.2558c 0.2929,-0.0000 1.1199,-0.1895 1.4818 -1.5335c 0.2240,-0.8270 0.3446,-1.8608 0.3446 -3.3598c 0.0000,-2.1882 -0.5514,-3.4115 -1.0510 -3.8423c -0.1895,-0.1723 -0.4480,-0.2584 -0.7237 -0.2584ZM 149.8159,179.2079 ZM 149.7469,188.7704 c -1.8436,-0.0000 -3.0841,-2.3605 -3.0841 -4.9967c 0.0000,-3.2220 1.5335,-5.1690 3.1531 -5.1690c 0.7409,-0.0000 1.4818,0.4652 1.9814 1.1372c 0.7237,0.9649 1.1027,2.2571 1.1027 3.8767c 0.0000,3.8250 -1.8953,5.1517 -3.1531 5.1517Z"/></g><g stroke-linejoin="miter" stroke-opacity="1.0" fill-opacity="1.0" stroke="rgb(102,102,102)" stroke-width="0.0" fill="rgb(0,0,0)" stroke-linecap="butt" stroke-miterlimit="10.0"><path d="M 145.8874,198.2684 c 0.0000,-0.9563 -0.7753,-1.7316 -1.7316 -1.7316c -0.9563,-0.0000 -1.7316,0.7753 -1.7316 1.7316c -0.0000,0.9563 0.7753,1.7316 1.7316 1.7316c 0.9563,0.0000 1.7316,-0.7753 1.7316 -1.7316Z"/></g><g stroke-linejoin="miter" stroke-opacity="1.0" fill-opacity="0.33" stroke="rgb(0,0,0)" fill-rule="evenodd" stroke-width="0.0" fill="rgb(0,0,0)" stroke-linecap="butt" stroke-miterlimit="10.0"><path d="M 30.8264,15.4035 ZM 34.5997,6.0477 c -0.7409,-0.0000 -1.8264,0.7237 -1.8264 4.7382c 0.0000,1.4128 0.2584,4.2558 1.7747 4.2558c 0.2929,-0.0000 1.1199,-0.1895 1.4818 -1.5335c 0.2240,-0.8270 0.3446,-1.8608 0.3446 -3.3598c 0.0000,-2.1882 -0.5514,-3.4115 -1.0510 -3.8423c -0.1895,-0.1723 -0.4480,-0.2584 -0.7237 -0.2584ZM 34.5997,6.0477 ZM 34.5308,15.6103 c -1.8436,-0.0000 -3.0841,-2.3605 -3.0841 -4.9967c 0.0000,-3.2220 1.5335,-5.1690 3.1531 -5.1690c 0.7409,-0.0000 1.4818,0.4652 1.9814 1.1372c 0.7237,0.9649 1.1027,2.2571 1.1027 3.8767c 0.0000,3.8250 -1.8953,5.1517 -3.1531 5.1517ZM 38.3731,15.4035 ZM 40.1650,13.7667 c 0.6892,-0.0000 1.1372,0.6720 1.1372 1.7058c 0.0000,1.2061 -0.8615,1.7747 -1.8953 1.9642l -0.0861,-0.4307 c 0.8960,-0.2240 1.3095,-0.7409 1.3095 -1.1027c 0.0000,-0.3963 -0.2929,-0.4652 -0.6203 -0.4997c -0.3101,-0.0517 -0.7581,-0.1895 -0.7581 -0.7581c 0.0000,-0.4824 0.3791,-0.8787 0.9132 -0.8787ZM 42.1464,15.4035 ZM 47.4704,12.4917 c 0.0000,-1.7747 -0.9649,-2.6534 -2.0331 -2.6534c -0.7926,-0.0000 -1.3956,0.1206 -2.0676 0.3963l 0.5514,-4.7038 c 0.5686,0.0517 1.1544,0.0689 1.7574 0.0689c 0.8615,-0.0000 1.7574,-0.0517 2.6879 -0.1551l 0.1034,0.0517 l -0.2584,1.1199 c -0.6720,0.0689 -1.2233,0.0861 -1.7058 0.0861c -0.7753,-0.0000 -1.3612,-0.0689 -1.9642 -0.1378l -0.3274,2.7223 c 0.3618,-0.1378 0.9821,-0.2584 1.6541 -0.2584c 1.8264,-0.0000 2.8429,1.5851 2.8429 3.1703c 0.0000,1.9297 -1.3439,3.4115 -3.2909 3.4115c -0.9821,-0.0000 -2.4122,-0.5514 -2.4122 -1.2233c 0.0000,-0.3274 0.2757,-0.5514 0.5858 -0.5514c 0.3446,-0.0000 0.5686,0.2584 0.7753 0.5341c 0.2584,0.3101 0.5341,0.6547 1.0855 0.6547c 1.1027,-0.0000 2.0159,-1.0338 2.0159 -2.5328Z"/></g><g stroke-linejoin="miter" stroke-opacity="1.0" fill-opacity="1.0" stroke="rgb(102,102,102)" stroke-width="0.0" fill="rgb(0,0,0)" stroke-linecap="butt" stroke-miterlimit="10.0"><path d="M 41.9913,25.1082 c 0.0000,-0.9563 -0.7753,-1.7316 -1.7316 -1.7316c -0.9563,-0.0000 -1.7316,0.7753 -1.7316 1.7316c -0.0000,0.9563 0.7753,1.7316 1.7316 1.7316c 0.9563,0.0000 1.7316,-0.7753 1.7316 -1.7316Z"/></g><g stroke-linejoin="miter" stroke-opacity="1.0" fill-opacity="0.33" stroke="rgb(0,0,0)" fill-rule="evenodd" stroke-width="0.0" fill="rgb(0,0,0)" stroke-linecap="butt" stroke-miterlimit="10.0"><path d="M 30.8264,50.0355 ZM 34.5997,40.6797 c -0.7409,-0.0000 -1.8264,0.7237 -1.8264 4.7382c 0.0000,1.4128 0.2584,4.2558 1.7747 4.2558c 0.2929,-0.0000 1.1199,-0.1895 1.4818 -1.5335c 0.2240,-0.8270 0.3446,-1.8608 0.3446 -3.3598c 0.0000,-2.1882 -0.5514,-3.4115 -1.0510 -3.8423c -0.1895,-0.1723 -0.4480,-0.2584 -0.7237 -0.2584ZM 34.5997,40.6797 ZM 34.5308,50.2423 c -1.8436,-0.0000 -3.0841,-2.3605 -3.0841 -4.9967c 0.0000,-3.2220 1.5335,-5.1690 3.1531 -5.1690c 0.7409,-0.0000 1.4818,0.4652 1.9814 1.1372c 0.7237,0.9649 1.1027,2.2571 1.1027 3.8767c 0.0000,3.8250 -1.8953,5.1517 -3.1531 5.1517ZM 38.3731,50.0355 ZM 40.1650,48.3987 c 0.6892,-0.0000 1.1372,0.6720 1.1372 1.7058c 0.0000,1.2061 -0.8615,1.7747 -1.8953 1.9642l -0.0861,-0.4307 c 0.8960,-0.2240 1.3095,-0.7409 1.3095 -1.1027c 0.0000,-0.3963 -0.2929,-0.4652 -0.6203 -0.4997c -0.3101,-0.0517 -0.7581,-0.1895 -0.7581 -0.7581c 0.0000,-0.4824 0.3791,-0.8787 0.9132 -0.8787ZM 42.1464,50.0355 ZM 46.5917,43.9189 c 0.0000,-0.1206 0.0172,-0.2584 0.1723 -0.3446c 0.1895,-0.1378 0.4997,-0.2929 0.7581 -0.2929c 0.2240,-0.0000 0.2412,0.1895 0.2412 0.5341v 2.7740 h 1.3956 l -0.1034,0.8098 h -1.2922 v 1.4301 c 0.0000,0.4824 0.0689,0.7237 0.5686 0.7237h 0.4652 c 0.1034,-0.0000 0.1206,0.0861 0.1206 0.1206v 0.3791 c 0.0000,-0.0000 -1.1027,-0.0345 -1.8264 -0.0345c -0.6547,-0.0000 -1.6713,0.0345 -1.6713 0.0345v -0.3791 c 0.0000,-0.0345 0.0172,-0.1206 0.1206 -0.1206h 0.4652 c 0.5341,-0.0000 0.5858,-0.2240 0.5858 -0.7237v -1.4301 h -3.3771 c -0.0689,-0.0000 -0.1034,-0.0345 -0.1551 -0.1034l -0.1378,-0.1895 l -0.2068,-0.3618 c -0.0172,-0.0000 -0.0172,-0.0172 -0.0172 -0.0345c 0.0000,-0.0172 0.0172,-0.0345 0.0345 -0.0517c 1.1199,-1.2406 3.1014,-5.0828 3.7217 -6.4957c 0.0172,-0.0689 0.0517,-0.0861 0.1206 -0.0861c 0.0172,-0.0000 0.3963,0.1551 0.6030 0.1895c -0.7753,2.0848 -2.0504,4.3247 -3.3081 6.3234h 2.7223 v -2.6706 Z"/></g><g stroke-linejoin="miter" stroke-opacity="1.0" fill-opacity="1.0" stroke="rgb(102,102,102)" stroke-width="0.0" fill="rgb(0,0,0)" stroke-linecap="butt" stroke-miterlimit="10.0"><path d="M 41.9913,59.7403 c 0.0000,-0.9563 -0.7753,-1.7316 -1.7316 -1.7316c -0.9563,-0.0000 -1.7316,0.7753 -1.7316 1.7316c -0.0000,0.9563 0.7753,1.7316 1.7316 1.7316c 0.9563,0.0000 1.7316,-0.7753 1.7316 -1.7316Z"/></g><g stroke-linejoin="miter" stroke-opacity="1.0" fill-opacity="0.33" stroke="rgb(0,0,0)" fill-rule="evenodd" stroke-width="0.0" fill="rgb(0,0,0)" stroke-linecap="butt" stroke-miterlimit="10.0"><path d="M 30.8264,84.6676 ZM 34.5997,75.3118 c -0.7409,-0.0000 -1.8264,0.7237 -1.8264 4.7382c 0.0000,1.4128 0.2584,4.2558 1.7747 4.2558c 0.2929,-0.0000 1.1199,-0.1895 1.4818 -1.5335c 0.2240,-0.8270 0.3446,-1.8608 0.3446 -3.3598c 0.0000,-2.1882 -0.5514,-3.4115 -1.0510 -3.8423c -0.1895,-0.1723 -0.4480,-0.2584 -0.7237 -0.2584ZM 34.5997,75.3118 ZM 34.5308,84.8743 c -1.8436,-0.0000 -3.0841,-2.3605 -3.0841 -4.9967c 0.0000,-3.2220 1.5335,-5.1690 3.1531 -5.1690c 0.7409,-0.0000 1.4818,0.4652 1.9814 1.1372c 0.7237,0.9649 1.1027,2.2571 1.1027 3.8767c 0.0000,3.8250 -1.8953,5.1517 -3.1531 5.1517ZM 38.3731,84.6676 ZM 40.1650,83.0307 c 0.6892,-0.0000 1.1372,0.6720 1.1372 1.7058c 0.0000,1.2061 -0.8615,1.7747 -1.8953 1.9642l -0.0861,-0.4307 c 0.8960,-0.2240 1.3095,-0.7409 1.3095 -1.1027c 0.0000,-0.3963 -0.2929,-0.4652 -0.6203 -0.4997c -0.3101,-0.0517 -0.7581,-0.1895 -0.7581 -0.7581c 0.0000,-0.4824 0.3791,-0.8787 0.9132 -0.8787ZM 42.1464,84.6676 ZM 45.8681,75.2428 c -0.4307,-0.0000 -1.6885,0.2412 -1.6885 1.2922c 0.0000,0.3101 -0.1206,0.8443 -0.5858 0.8443c -0.4480,-0.0000 -0.4824,-0.4997 -0.4824 -0.5514c 0.0000,-0.5341 0.7064,-2.1193 3.1014 -2.1193c 1.6713,-0.0000 2.1710,1.0510 2.1710 1.7402c 0.0000,0.4307 -0.1378,1.2922 -1.6885 2.2743c 0.9649,0.1551 2.2399,0.8615 2.2399 2.6534c 0.0000,2.2743 -1.7230,3.4977 -3.6700 3.4977c -0.9821,-0.0000 -2.3605,-0.4307 -2.3605 -1.0855c 0.0000,-0.2584 0.2584,-0.5514 0.6030 -0.5514c 0.3274,-0.0000 0.4824,0.1723 0.6375 0.3963c 0.1895,0.2929 0.4997,0.7064 1.3267 0.7064c 0.5686,-0.0000 2.1882,-0.5686 2.1882 -2.7395c 0.0000,-1.8436 -1.2922,-2.1365 -2.2227 -2.1365c -0.1551,-0.0000 -0.3446,0.0345 -0.5341 0.0689l -0.0689,-0.5169 c 1.3267,-0.2240 2.4294,-1.5162 2.4294 -2.3088c 0.0000,-0.9821 -0.6892,-1.4645 -1.3956 -1.4645Z"/></g><g stroke-linejoin="miter" stroke-opacity="1.0" fill-opacity="1.0" stroke="rgb(102,102,102)" stroke-width="0.0" fill="rgb(0,0,0)" stroke-linecap="butt" stroke-miterlimit="10.0"><path d="M 41.9913,94.3723 c 0.0000,-0.9563 -0.7753,-1.7316 -1.7316 -1.7316c -0.9563,-0.0000 -1.7316,0.7753 -1.7316 1.7316c -0.0000,0.9563 0.7753,1.7316 1.7316 1.7316c 0.9563,0.0000 1.7316,-0.7753 1.7316 -1.7316Z"/></g><g stroke-linejoin="miter" stroke-opacity="1.0" fill-opacity="0.33" stroke="rgb(0,0,0)" fill-rule="evenodd" stroke-width="0.0" fill="rgb(0,0,0)" stroke-linecap="butt" stroke-miterlimit="10.0"><path d="M 30.8264,119.2996 ZM 34.5997,109.9438 c -0.7409,-0.0000 -1.8264,0.7237 -1.8264 4.7382c 0.0000,1.4128 0.2584,4.2558 1.7747 4.2558c 0.2929,-0.0000 1.1199,-0.1895 1.4818 -1.5335c 0.2240,-0.8270 0.3446,-1.8608 0.3446 -3.3598c 0.0000,-2.1882 -0.5514,-3.4115 -1.0510 -3.8423c -0.1895,-0.1723 -0.4480,-0.2584 -0.7237 -0.2584ZM 34.5997,109.9438 ZM 34.5308,119.5064 c -1.8436,-0.0000 -3.0841,-2.3605 -3.0841 -4.9967c 0.0000,-3.2220 1.5335,-5.1690 3.1531 -5.1690c 0.7409,-0.0000 1.4818,0.4652 1.9814 1.1372c 0.7237,0.9649 1.1027,2.2571 1.1027 3.8767c 0.0000,3.8250 -1.8953,5.1517 -3.1531 5.1517ZM 38.3731,119.2996 ZM 40.1650,117.6628 c 0.6892,-0.0000 1.1372,0.6720 1.1372 1.7058c 0.0000,1.2061 -0.8615,1.7747 -1.8953 1.9642l -0.0861,-0.4307 c 0.8960,-0.2240 1.3095,-0.7409 1.3095 -1.1027c 0.0000,-0.3963 -0.2929,-0.4652 -0.6203 -0.4997c -0.3101,-0.0517 -0.7581,-0.1895 -0.7581 -0.7581c 0.0000,-0.4824 0.3791,-0.8787 0.9132 -0.8787ZM 42.1464,119.2996 ZM 43.1457,111.6668 c 0.0000,-0.9821 0.9476,-2.3260 2.7568 -2.3260c 1.3267,-0.0000 2.8774,0.4997 2.8774 2.4811c 0.0000,1.3095 -0.6720,1.9642 -1.6024 2.8602l -1.6368,1.5851 c -0.0861,0.0861 -1.2406,1.2233 -1.2406 2.0331h 2.9291 c 0.5858,-0.0000 0.8960,-0.2929 1.1372 -1.2406l 0.4307,0.0689 l -0.3446,2.1710 h -5.3240 c 0.0000,-0.9649 0.1551,-1.7058 1.7574 -3.3426l 1.2061,-1.1889 c 0.9649,-0.9821 1.3612,-1.8264 1.3612 -2.8774c 0.0000,-1.5679 -1.0683,-2.0159 -1.6541 -2.0159c -1.1889,-0.0000 -1.5162,0.6203 -1.5162 1.0338c 0.0000,0.1378 0.0345,0.2757 0.0689 0.3963c 0.0345,0.1206 0.0689,0.2412 0.0689 0.3791c 0.0000,0.4480 -0.3446,0.6203 -0.6203 0.6203c -0.3791,-0.0000 -0.6547,-0.2929 -0.6547 -0.6375Z"/></g><g stroke-linejoin="miter" stroke-opacity="1.0" fill-opacity="1.0" stroke="rgb(102,102,102)" stroke-width="0.0" fill="rgb(0,0,0)" stroke-linecap="butt" stroke-miterlimit="10.0"><path d="M 41.9913,129.0043 c 0.0000,-0.9563 -0.7753,-1.7316 -1.7316 -1.7316c -0.9563,-0.0000 -1.7316,0.7753 -1.7316 1.7316c -0.0000,0.9563 0.7753,1.7316 1.7316 1.7316c 0.9563,0.0000 1.7316,-0.7753 1.7316 -1.7316Z"/></g><g stroke-linejoin="miter" stroke-opacity="1.0" fill-opacity="0.33" stroke="rgb(0,0,0)" fill-rule="evenodd" stroke-width="0.0" fill="rgb(0,0,0)" stroke-linecap="butt" stroke-miterlimit="10.0"><path d="M 30.8264,153.9316 ZM 34.5997,144.5758 c -0.7409,-0.0000 -1.8264,0.7237 -1.8264 4.7382c 0.0000,1.4128 0.2584,4.2558 1.7747 4.2558c 0.2929,-0.0000 1.1199,-0.1895 1.4818 -1.5335c 0.2240,-0.8270 0.3446,-1.8608 0.3446 -3.3598c 0.0000,-2.1882 -0.5514,-3.4115 -1.0510 -3.8423c -0.1895,-0.1723 -0.4480,-0.2584 -0.7237 -0.2584ZM 34.5997,144.5758 ZM 34.5308,154.1384 c -1.8436,-0.0000 -3.0841,-2.3605 -3.0841 -4.9967c 0.0000,-3.2220 1.5335,-5.1690 3.1531 -5.1690c 0.7409,-0.0000 1.4818,0.4652 1.9814 1.1372c 0.7237,0.9649 1.1027,2.2571 1.1027 3.8767c 0.0000,3.8250 -1.8953,5.1517 -3.1531 5.1517ZM 38.3731,153.9316 ZM 40.1650,152.2948 c 0.6892,-0.0000 1.1372,0.6720 1.1372 1.7058c 0.0000,1.2061 -0.8615,1.7747 -1.8953 1.9642l -0.0861,-0.4307 c 0.8960,-0.2240 1.3095,-0.7409 1.3095 -1.1027c 0.0000,-0.3963 -0.2929,-0.4652 -0.6203 -0.4997c -0.3101,-0.0517 -0.7581,-0.1895 -0.7581 -0.7581c 0.0000,-0.4824 0.3791,-0.8787 0.9132 -0.8787ZM 42.1464,153.9316 ZM 45.3856,145.7130 c -0.3274,-0.0000 -1.0855,0.3101 -1.4645 0.4824l -0.2068,-0.5341 c 1.5162,-0.7064 2.1020,-1.0683 2.9635 -1.6885h 0.3274 v 8.6666 c 0.0000,0.6203 0.0861,0.7926 0.6547 0.7926h 0.8960 c 0.0517,-0.0000 0.1378,0.0345 0.1378 0.1378v 0.3791 l -2.3605,-0.0345 l -2.3950,0.0345 v -0.3791 c 0.0172,-0.0517 0.0345,-0.1378 0.1378 -0.1378h 1.0338 c 0.6547,-0.0000 0.6547,-0.2929 0.6547 -0.7926v -5.9271 c 0.0000,-0.5858 0.0000,-0.9993 -0.3791 -0.9993Z"/></g><g stroke-linejoin="miter" stroke-opacity="1.0" fill-opacity="1.0" stroke="rgb(102,102,102)" stroke-width="0.0" fill="rgb(0,0,0)" stroke-linecap="butt" stroke-miterlimit="10.0"><path d="M 41.9913,163.6364 c 0.0000,-0.9563 -0.7753,-1.7316 -1.7316 -1.7316c -0.9563,-0.0000 -1.7316,0.7753 -1.7316 1.7316c -0.0000,0.9563 0.7753,1.7316 1.7316 1.7316c 0.9563,0.0000 1.7316,-0.7753 1.7316 -1.7316Z"/></g><g stroke-linejoin="miter" stroke-opacity="1.0" fill-opacity="0.33" stroke="rgb(0,0,0)" fill-rule="evenodd" stroke-width="0.0" fill="rgb(0,0,0)" stroke-linecap="butt" stroke-miterlimit="10.0"><path d="M 30.8264,188.5637 ZM 34.5997,179.2079 c -0.7409,-0.0000 -1.8264,0.7237 -1.8264 4.7382c 0.0000,1.4128 0.2584,4.2558 1.7747 4.2558c 0.2929,-0.0000 1.1199,-0.1895 1.4818 -1.5335c 0.2240,-0.8270 0.3446,-1.8608 0.3446 -3.3598c 0.0000,-2.1882 -0.5514,-3.4115 -1.0510 -3.8423c -0.1895,-0.1723 -0.4480,-0.2584 -0.7237 -0.2584ZM 34.5997,179.2079 ZM 34.5308,188.7704 c -1.8436,-0.0000 -3.0841,-2.3605 -3.0841 -4.9967c 0.0000,-3.2220 1.5335,-5.1690 3.1531 -5.1690c 0.7409,-0.0000 1.4818,0.4652 1.9814 1.1372c 0.7237,0.9649 1.1027,2.2571 1.1027 3.8767c 0.0000,3.8250 -1.8953,5.1517 -3.1531 5.1517ZM 38.3731,188.5637 ZM 40.1650,186.9268 c 0.6892,-0.0000 1.1372,0.6720 1.1372 1.7058c 0.0000,1.2061 -0.8615,1.7747 -1.8953 1.9642l -0.0861,-0.4307 c 0.8960,-0.2240 1.3095,-0.7409 1.3095 -1.1027c 0.0000,-0.3963 -0.2929,-0.4652 -0.6203 -0.4997c -0.3101,-0.0517 -0.7581,-0.1895 -0.7581 -0.7581c 0.0000,-0.4824 0.3791,-0.8787 0.9132 -0.8787ZM 42.1464,188.5637 ZM 45.9198,179.2079 c -0.7409,-0.0000 -1.8264,0.7237 -1.8264 4.7382c 0.0000,1.4128 0.2584,4.2558 1.7747 4.2558c 0.2929,-0.0000 1.1199,-0.1895 1.4818 -1.5335c 0.2240,-0.8270 0.3446,-1.8608 0.3446 -3.3598c 0.0000,-2.1882 -0.5514,-3.4115 -1.0510 -3.8423c -0.1895,-0.1723 -0.4480,-0.2584 -0.7237 -0.2584ZM 45.9198,179.2079 ZM 45.8508,188.7704 c -1.8436,-0.0000 -3.0841,-2.3605 -3.0841 -4.9967c 0.0000,-3.2220 1.5335,-5.1690 3.1531 -5.1690c 0.7409,-0.0000 1.4818,0.4652 1.9814 1.1372c 0.7237,0.9649 1.1027,2.2571 1.1027 3.8767c 0.0000,3.8250 -1.8953,5.1517 -3.1531 5.1517Z"/></g><g stroke-linejoin="miter" stroke-opacity="1.0" fill-opacity="1.0" stroke="rgb(102,102,102)" stroke-width="0.0" fill="rgb(0,0,0)" stroke-linecap="butt" stroke-miterlimit="10.0"><path d="M 41.9913,198.2684 c 0.0000,-0.9563 -0.7753,-1.7316 -1.7316 -1.7316c -0.9563,-0.0000 -1.7316,0.7753 -1.7316 1.7316c -0.0000,0.9563 0.7753,1.7316 1.7316 1.7316c 0.9563,0.0000 1.7316,-0.7753 1.7316 -1.7316Z"/></g></svg>