<?xml version="1.0" encoding="UTF-8"?>
<!DOCTYPE svg PUBLIC "-//W3C//DTD SVG 1.1//EN"
    "http://www.w3.org/Graphics/SVG/1.1/DTD/svg11.dtd">
<svg xmlns="http://www.w3.org/2000/svg" height="200.0000" stroke-opacity="1" viewBox="0 0 600 200" font-size="1" width="600.0000" xmlns:xlink="http://www.w3.org/1999/xlink" stroke="rgb(0,0,0)" version="1.1">
  <defs>
  </defs>
  <g stroke-linejoin="miter" stroke-opacity="0.0" fill-opacity="0.0" stroke="rgb(0,0,0)" fill-rule="evenodd" stroke-width="0.0" fill="rgb(0,0,0)" stroke-linecap="butt" stroke-miterlimit="10.0">
    <path d="M 579.6589,18.2560 l -0.0000,-18.2560 h -27.3839 l -0.0000,18.2560 Z"/>
  </g>
  <g stroke-linejoin="miter" stroke-opacity="1.0" fill-opacity="0.33" font-size="16.596333203305086px" stroke="rgb(0,0,0)" fill-rule="evenodd" stroke-width="0.0" fill="rgb(255,255,255)" stroke-linecap="butt" stroke-miterlimit="10.0">
    <text dominant-baseline="middle" transform="matrix(1.0000,-0.0000,0.0000,1.0000,565.9669,9.1280)" stroke="none" text-anchor="middle">5,5
    </text>
  </g>
  <g stroke-linejoin="miter" stroke-opacity="1.0" fill-opacity="1.0" stroke="rgb(102,102,102)" stroke-width="0.0" fill="rgb(0,0,0)" stroke-linecap="butt" stroke-miterlimit="10.0">
    <path d="M 566.8534,21.8022 c 0.0000,-0.4896 -0.3969,-0.8866 -0.8866 -0.8866c -0.4896,-0.0000 -0.8866,0.3969 -0.8866 0.8866c -0.0000,0.4896 0.3969,0.8866 0.8866 0.8866c 0.4896,0.0000 0.8866,-0.3969 0.8866 -0.8866Z"/>
  </g>
  <g stroke-linejoin="miter" stroke-opacity="0.0" fill-opacity="0.0" stroke="rgb(0,0,0)" fill-rule="evenodd" stroke-width="0.0" fill="rgb(0,0,0)" stroke-linecap="butt" stroke-miterlimit="10.0">
    <path d="M 579.6589,53.7182 l -0.0000,-18.2560 h -27.3839 l -0.0000,18.2560 Z"/>
  </g>
  <g stroke-linejoin="miter" stroke-opacity="1.0" fill-opacity="0.33" font-size="16.596333203305086px" stroke="rgb(0,0,0)" fill-rule="evenodd" stroke-width="0.0" fill="rgb(255,255,255)" stroke-linecap="butt" stroke-miterlimit="10.0">
    <text dominant-baseline="middle" transform="matrix(1.0000,-0.0000,0.0000,1.0000,565.9669,44.5902)" stroke="none" text-anchor="middle">5,4
    </text>
  </g>
  <g stroke-linejoin="miter" stroke-opacity="1.0" fill-opacity="1.0" stroke="rgb(102,102,102)" stroke-width="0.0" fill="rgb(0,0,0)" stroke-linecap="butt" stroke-miterlimit="10.0">
    <path d="M 566.8534,57.2644 c 0.0000,-0.4896 -0.3969,-0.8866 -0.8866 -0.8866c -0.4896,-0.0000 -0.8866,0.3969 -0.8866 0.8866c -0.0000,0.4896 0.3969,0.8866 0.8866 0.8866c 0.4896,0.0000 0.8866,-0.3969 0.8866 -0.8866Z"/>
  </g>
  <g stroke-linejoin="miter" stroke-opacity="0.0" fill-opacity="0.0" stroke="rgb(0,0,0)" fill-rule="evenodd" stroke-width="0.0" fill="rgb(0,0,0)" stroke-linecap="butt" stroke-miterlimit="10.0">
    <path d="M 579.6589,89.1805 l -0.0000,-18.2560 h -27.3839 l -0.0000,18.2560 Z"/>
  </g>
  <g stroke-linejoin="miter" stroke-opacity="1.0" fill-opacity="0.33" font-size="16.596333203305086px" stroke="rgb(0,0,0)" fill-rule="evenodd" stroke-width="0.0" fill="rgb(255,255,255)" stroke-linecap="butt" stroke-miterlimit="10.0">
    <text dominant-baseline="middle" transform="matrix(1.0000,-0.0000,0.0000,1.0000,565.9669,80.0525)" stroke="none" text-anchor="middle">5,3
    </text>
  </g>
  <g stroke-linejoin="miter" stroke-opacity="1.0" fill-opacity="1.0" stroke="rgb(102,102,102)" stroke-width="0.0" fill="rgb(0,0,0)" stroke-linecap="butt" stroke-miterlimit="10.0">
    <path d="M 566.8534,92.7267 c 0.0000,-0.4896 -0.3969,-0.8866 -0.8866 -0.8866c -0.4896,-0.0000 -0.8866,0.3969 -0.8866 0.8866c -0.0000,0.4896 0.3969,0.8866 0.8866 0.8866c 0.4896,0.0000 0.8866,-0.3969 0.8866 -0.8866Z"/>
  </g>
  <g stroke-linejoin="miter" stroke-opacity="0.0" fill-opacity="0.0" stroke="rgb(0,0,0)" fill-rule="evenodd" stroke-width="0.0" fill="rgb(0,0,0)" stroke-linecap="butt" stroke-miterlimit="10.0">
    <path d="M 579.6589,124.6427 l -0.0000,-18.2560 h -27.3839 l -0.0000,18.2560 Z"/>
  </g>
  <g stroke-linejoin="miter" stroke-opacity="1.0" fill-opacity="0.33" font-size="16.596333203305086px" stroke="rgb(0,0,0)" fill-rule="evenodd" stroke-width="0.0" fill="rgb(255,255,255)" stroke-linecap="butt" stroke-miterlimit="10.0">
    <text dominant-baseline="middle" transform="matrix(1.0000,-0.0000,0.0000,1.0000,565.9669,115.5147)" stroke="none" text-anchor="middle">5,2
    </text>
  </g>
  <g stroke-linejoin="miter" stroke-opacity="1.0" fill-opacity="1.0" stroke="rgb(102,102,102)" stroke-width="0.0" fill="rgb(0,0,0)" stroke-linecap="butt" stroke-miterlimit="10.0">
    <path d="M 566.8534,128.1889 c 0.0000,-0.4896 -0.3969,-0.8866 -0.8866 -0.8866c -0.4896,-0.0000 -0.8866,0.3969 -0.8866 0.8866c -0.0000,0.4896 0.3969,0.8866 0.8866 0.8866c 0.4896,0.0000 0.8866,-0.3969 0.8866 -0.8866Z"/>
  </g>
  <g stroke-linejoin="miter" stroke-opacity="0.0" fill-opacity="0.0" stroke="rgb(0,0,0)" fill-rule="evenodd" stroke-width="0.0" fill="rgb(0,0,0)" stroke-linecap="butt" stroke-miterlimit="10.0">
    <path d="M 579.6589,160.1050 l -0.0000,-18.2560 h -27.3839 l -0.0000,18.2560 Z"/>
  </g>
  <g stroke-linejoin="miter" stroke-opacity="1.0" fill-opacity="0.33" font-size="16.596333203305086px" stroke="rgb(0,0,0)" fill-rule="evenodd" stroke-width="0.0" fill="rgb(255,255,255)" stroke-linecap="butt" stroke-miterlimit="10.0">
    <text dominant-baseline="middle" transform="matrix(1.0000,-0.0000,0.0000,1.0000,565.9669,150.9770)" stroke="none" text-anchor="middle">5,1
    </text>
  </g>
  <g stroke-linejoin="miter" stroke-opacity="1.0" fill-opacity="1.0" stroke="rgb(102,102,102)" stroke-width="0.0" fill="rgb(0,0,0)" stroke-linecap="butt" stroke-miterlimit="10.0">
    <path d="M 566.8534,163.6512 c 0.0000,-0.4896 -0.3969,-0.8866 -0.8866 -0.8866c -0.4896,-0.0000 -0.8866,0.3969 -0.8866 0.8866c -0.0000,0.4896 0.3969,0.8866 0.8866 0.8866c 0.4896,0.0000 0.8866,-0.3969 0.8866 -0.8866Z"/>
  </g>
  <g stroke-linejoin="miter" stroke-opacity="0.0" fill-opacity="0.0" stroke="rgb(0,0,0)" fill-rule="evenodd" stroke-width="0.0" fill="rgb(0,0,0)" stroke-linecap="butt" stroke-miterlimit="10.0">
    <path d="M 579.6589,195.5672 l -0.0000,-18.2560 h -27.3839 l -0.0000,18.2560 Z"/>
  </g>
  <g stroke-linejoin="miter" stroke-opacity="1.0" fill-opacity="0.33" font-size="16.596333203305086px" stroke="rgb(0,0,0)" fill-rule="evenodd" stroke-width="0.0" fill="rgb(255,255,255)" stroke-linecap="butt" stroke-miterlimit="10.0">
    <text dominant-baseline="middle" transform="matrix(1.0000,-0.0000,0.0000,1.0000,565.9669,186.4392)" stroke="none" text-anchor="middle">5,0
    </text>
  </g>
  <g stroke-linejoin="miter" stroke-opacity="1.0" fill-opacity="1.0" stroke="rgb(102,102,102)" stroke-width="0.0" fill="rgb(0,0,0)" stroke-linecap="butt" stroke-miterlimit="10.0">
    <path d="M 566.8534,199.1134 c 0.0000,-0.4896 -0.3969,-0.8866 -0.8866 -0.8866c -0.4896,-0.0000 -0.8866,0.3969 -0.8866 0.8866c -0.0000,0.4896 0.3969,0.8866 0.8866 0.8866c 0.4896,0.0000 0.8866,-0.3969 0.8866 -0.8866Z"/>
  </g>
  <g stroke-linejoin="miter" stroke-opacity="0.0" fill-opacity="0.0" stroke="rgb(0,0,0)" fill-rule="evenodd" stroke-width="0.0" fill="rgb(0,0,0)" stroke-linecap="butt" stroke-miterlimit="10.0">
    <path d="M 473.2721,18.2560 l -0.0000,-18.2560 h -27.3839 l -0.0000,18.2560 Z"/>
  </g>
  <g stroke-linejoin="miter" stroke-opacity="1.0" fill-opacity="0.33" font-size="16.596333203305086px" stroke="rgb(0,0,0)" fill-rule="evenodd" stroke-width="0.0" fill="rgb(255,255,255)" stroke-linecap="butt" stroke-miterlimit="10.0">
    <text dominant-baseline="middle" transform="matrix(1.0000,-0.0000,0.0000,1.0000,459.5801,9.1280)" stroke="none" text-anchor="middle">4,5
    </text>
  </g>
  <g stroke-linejoin="miter" stroke-opacity="1.0" fill-opacity="1.0" stroke="rgb(102,102,102)" stroke-width="0.0" fill="rgb(0,0,0)" stroke-linecap="butt" stroke-miterlimit="10.0">
    <path d="M 460.4667,21.8022 c 0.0000,-0.4896 -0.3969,-0.8866 -0.8866 -0.8866c -0.4896,-0.0000 -0.8866,0.3969 -0.8866 0.8866c -0.0000,0.4896 0.3969,0.8866 0.8866 0.8866c 0.4896,0.0000 0.8866,-0.3969 0.8866 -0.8866Z"/>
  </g>
  <g stroke-linejoin="miter" stroke-opacity="0.0" fill-opacity="0.0" stroke="rgb(0,0,0)" fill-rule="evenodd" stroke-width="0.0" fill="rgb(0,0,0)" stroke-linecap="butt" stroke-miterlimit="10.0">
    <path d="M 473.2721,53.7182 l -0.0000,-18.2560 h -27.3839 l -0.0000,18.2560 Z"/>
  </g>
  <g stroke-linejoin="miter" stroke-opacity="1.0" fill-opacity="0.33" font-size="16.596333203305086px" stroke="rgb(0,0,0)" fill-rule="evenodd" stroke-width="0.0" fill="rgb(255,255,255)" stroke-linecap="butt" stroke-miterlimit="10.0">
    <text dominant-baseline="middle" transform="matrix(1.0000,-0.0000,0.0000,1.0000,459.5801,44.5902)" stroke="none" text-anchor="middle">4,4
    </text>
  </g>
  <g stroke-linejoin="miter" stroke-opacity="1.0" fill-opacity="1.0" stroke="rgb(102,102,102)" stroke-width="0.0" fill="rgb(0,0,0)" stroke-linecap="butt" stroke-miterlimit="10.0">
    <path d="M 460.4667,57.2644 c 0.0000,-0.4896 -0.3969,-0.8866 -0.8866 -0.8866c -0.4896,-0.0000 -0.8866,0.3969 -0.8866 0.8866c -0.0000,0.4896 0.3969,0.8866 0.8866 0.8866c 0.4896,0.0000 0.8866,-0.3969 0.8866 -0.8866Z"/>
  </g>
  <g stroke-linejoin="miter" stroke-opacity="0.0" fill-opacity="0.0" stroke="rgb(0,0,0)" fill-rule="evenodd" stroke-width="0.0" fill="rgb(0,0,0)" stroke-linecap="butt" stroke-miterlimit="10.0">
    <path d="M 473.2721,89.1805 l -0.0000,-18.2560 h -27.3839 l -0.0000,18.2560 Z"/>
  </g>
  <g stroke-linejoin="miter" stroke-opacity="1.0" fill-opacity="0.33" font-size="16.596333203305086px" stroke="rgb(0,0,0)" fill-rule="evenodd" stroke-width="0.0" fill="rgb(255,255,255)" stroke-linecap="butt" stroke-miterlimit="10.0">
    <text dominant-baseline="middle" transform="matrix(1.0000,-0.0000,0.0000,1.0000,459.5801,80.0525)" stroke="none" text-anchor="middle">4,3
    </text>
  </g>
  <g stroke-linejoin="miter" stroke-opacity="1.0" fill-opacity="1.0" stroke="rgb(102,102,102)" stroke-width="0.0" fill="rgb(0,0,0)" stroke-linecap="butt" stroke-miterlimit="10.0">
    <path d="M 460.4667,92.7267 c 0.0000,-0.4896 -0.3969,-0.8866 -0.8866 -0.8866c -0.4896,-0.0000 -0.8866,0.3969 -0.8866 0.8866c -0.0000,0.4896 0.3969,0.8866 0.8866 0.8866c 0.4896,0.0000 0.8866,-0.3969 0.8866 -0.8866Z"/>
  </g>
  <g stroke-linejoin="miter" stroke-opacity="0.0" fill-opacity="0.0" stroke="rgb(0,0,0)" fill-rule="evenodd" stroke-width="0.0" fill="rgb(0,0,0)" stroke-linecap="butt" stroke-miterlimit="10.0">
    <path d="M 473.2721,124.6427 l -0.0000,-18.2560 h -27.3839 l -0.0000,18.2560 Z"/>
  </g>
  <g stroke-linejoin="miter" stroke-opacity="1.0" fill-opacity="0.33" font-size="16.596333203305086px" stroke="rgb(0,0,0)" fill-rule="evenodd" stroke-width="0.0" fill="rgb(255,255,255)" stroke-linecap="butt" stroke-miterlimit="10.0">
    <text dominant-baseline="middle" transform="matrix(1.0000,-0.0000,0.0000,1.0000,459.5801,115.5147)" stroke="none" text-anchor="middle">4,2
    </text>
  </g>
  <g stroke-linejoin="miter" stroke-opacity="1.0" fill-opacity="1.0" stroke="rgb(102,102,102)" stroke-width="0.0" fill="rgb(0,0,0)" stroke-linecap="butt" stroke-miterlimit="10.0">
    <path d="M 460.4667,128.1889 c 0.0000,-0.4896 -0.3969,-0.8866 -0.8866 -0.8866c -0.4896,-0.0000 -0.8866,0.3969 -0.8866 0.8866c -0.0000,0.4896 0.3969,0.8866 0.8866 0.8866c 0.4896,0.0000 0.8866,-0.3969 0.8866 -0.8866Z"/>
  </g>
  <g stroke-linejoin="miter" stroke-opacity="0.0" fill-opacity="0.0" stroke="rgb(0,0,0)" fill-rule="evenodd" stroke-width="0.0" fill="rgb(0,0,0)" stroke-linecap="butt" stroke-miterlimit="10.0">
    <path d="M 473.2721,160.1050 l -0.0000,-18.2560 h -27.3839 l -0.0000,18.2560 Z"/>
  </g>
  <g stroke-linejoin="miter" stroke-opacity="1.0" fill-opacity="0.33" font-size="16.596333203305086px" stroke="rgb(0,0,0)" fill-rule="evenodd" stroke-width="0.0" fill="rgb(255,255,255)" stroke-linecap="butt" stroke-miterlimit="10.0">
    <text dominant-baseline="middle" transform="matrix(1.0000,-0.0000,0.0000,1.0000,459.5801,150.9770)" stroke="none" text-anchor="middle">4,1
    </text>
  </g>
  <g stroke-linejoin="miter" stroke-opacity="1.0" fill-opacity="1.0" stroke="rgb(102,102,102)" stroke-width="0.0" fill="rgb(0,0,0)" stroke-linecap="butt" stroke-miterlimit="10.0">
    <path d="M 460.4667,163.6512 c 0.0000,-0.4896 -0.3969,-0.8866 -0.8866 -0.8866c -0.4896,-0.0000 -0.8866,0.3969 -0.8866 0.8866c -0.0000,0.4896 0.3969,0.8866 0.8866 0.8866c 0.4896,0.0000 0.8866,-0.3969 0.8866 -0.8866Z"/>
  </g>
  <g stroke-linejoin="miter" stroke-opacity="0.0" fill-opacity="0.0" stroke="rgb(0,0,0)" fill-rule="evenodd" stroke-width="0.0" fill="rgb(0,0,0)" stroke-linecap="butt" stroke-miterlimit="10.0">
    <path d="M 473.2721,195.5672 l -0.0000,-18.2560 h -27.3839 l -0.0000,18.2560 Z"/>
  </g>
  <g stroke-linejoin="miter" stroke-opacity="1.0" fill-opacity="0.33" font-size="16.596333203305086px" stroke="rgb(0,0,0)" fill-rule="evenodd" stroke-width="0.0" fill="rgb(255,255,255)" stroke-linecap="butt" stroke-miterlimit="10.0">
    <text dominant-baseline="middle" transform="matrix(1.0000,-0.0000,0.0000,1.0000,459.5801,186.4392)" stroke="none" text-anchor="middle">4,0
    </text>
  </g>
  <g stroke-linejoin="miter" stroke-opacity="1.0" fill-opacity="1.0" stroke="rgb(102,102,102)" stroke-width="0.0" fill="rgb(0,0,0)" stroke-linecap="butt" stroke-miterlimit="10.0">
    <path d="M 460.4667,199.1134 c 0.0000,-0.4896 -0.3969,-0.8866 -0.8866 -0.8866c -0.4896,-0.0000 -0.8866,0.3969 -0.8866 0.8866c -0.0000,0.4896 0.3969,0.8866 0.8866 0.8866c 0.4896,0.0000 0.8866,-0.3969 0.8866 -0.8866Z"/>
  </g>
  <g stroke-linejoin="miter" stroke-opacity="0.0" fill-opacity="0.0" stroke="rgb(0,0,0)" fill-rule="evenodd" stroke-width="0.0" fill="rgb(0,0,0)" stroke-linecap="butt" stroke-miterlimit="10.0">
    <path d="M 366.8854,18.2560 l -0.0000,-18.2560 h -27.3839 l -0.0000,18.2560 Z"/>
  </g>
  <g stroke-linejoin="miter" stroke-opacity="1.0" fill-opacity="0.33" font-size="16.596333203305086px" stroke="rgb(0,0,0)" fill-rule="evenodd" stroke-width="0.0" fill="rgb(255,255,255)" stroke-linecap="butt" stroke-miterlimit="10.0">
    <text dominant-baseline="middle" transform="matrix(1.0000,-0.0000,0.0000,1.0000,353.1934,9.1280)" stroke="none" text-anchor="middle">3,5
    </text>
  </g>
  <g stroke-linejoin="miter" stroke-opacity="1.0" fill-opacity="1.0" stroke="rgb(102,102,102)" stroke-width="0.0" fill="rgb(0,0,0)" stroke-linecap="butt" stroke-miterlimit="10.0">
    <path d="M 354.0799,21.8022 c 0.0000,-0.4896 -0.3969,-0.8866 -0.8866 -0.8866c -0.4896,-0.0000 -0.8866,0.3969 -0.8866 0.8866c -0.0000,0.4896 0.3969,0.8866 0.8866 0.8866c 0.4896,0.0000 0.8866,-0.3969 0.8866 -0.8866Z"/>
  </g>
  <g stroke-linejoin="miter" stroke-opacity="0.0" fill-opacity="0.0" stroke="rgb(0,0,0)" fill-rule="evenodd" stroke-width="0.0" fill="rgb(0,0,0)" stroke-linecap="butt" stroke-miterlimit="10.0">
    <path d="M 366.8854,53.7182 l -0.0000,-18.2560 h -27.3839 l -0.0000,18.2560 Z"/>
  </g>
  <g stroke-linejoin="miter" stroke-opacity="1.0" fill-opacity="0.33" font-size="16.596333203305086px" stroke="rgb(0,0,0)" fill-rule="evenodd" stroke-width="0.0" fill="rgb(255,255,255)" stroke-linecap="butt" stroke-miterlimit="10.0">
    <text dominant-baseline="middle" transform="matrix(1.0000,-0.0000,0.0000,1.0000,353.1934,44.5902)" stroke="none" text-anchor="middle">3,4
    </text>
  </g>
  <g stroke-linejoin="miter" stroke-opacity="1.0" fill-opacity="1.0" stroke="rgb(102,102,102)" stroke-width="0.0" fill="rgb(0,0,0)" stroke-linecap="butt" stroke-miterlimit="10.0">
    <path d="M 354.0799,57.2644 c 0.0000,-0.4896 -0.3969,-0.8866 -0.8866 -0.8866c -0.4896,-0.0000 -0.8866,0.3969 -0.8866 0.8866c -0.0000,0.4896 0.3969,0.8866 0.8866 0.8866c 0.4896,0.0000 0.8866,-0.3969 0.8866 -0.8866Z"/>
  </g>
  <g stroke-linejoin="miter" stroke-opacity="0.0" fill-opacity="0.0" stroke="rgb(0,0,0)" fill-rule="evenodd" stroke-width="0.0" fill="rgb(0,0,0)" stroke-linecap="butt" stroke-miterlimit="10.0">
    <path d="M 366.8854,89.1805 l -0.0000,-18.2560 h -27.3839 l -0.0000,18.2560 Z"/>
  </g>
  <g stroke-linejoin="miter" stroke-opacity="1.0" fill-opacity="0.33" font-size="16.596333203305086px" stroke="rgb(0,0,0)" fill-rule="evenodd" stroke-width="0.0" fill="rgb(255,255,255)" stroke-linecap="butt" stroke-miterlimit="10.0">
    <text dominant-baseline="middle" transform="matrix(1.0000,-0.0000,0.0000,1.0000,353.1934,80.0525)" stroke="none" text-anchor="middle">3,3
    </text>
  </g>
  <g stroke-linejoin="miter" stroke-opacity="1.0" fill-opacity="1.0" stroke="rgb(102,102,102)" stroke-width="0.0" fill="rgb(0,0,0)" stroke-linecap="butt" stroke-miterlimit="10.0">
    <path d="M 354.0799,92.7267 c 0.0000,-0.4896 -0.3969,-0.8866 -0.8866 -0.8866c -0.4896,-0.0000 -0.8866,0.3969 -0.8866 0.8866c -0.0000,0.4896 0.3969,0.8866 0.8866 0.8866c 0.4896,0.0000 0.8866,-0.3969 0.8866 -0.8866Z"/>
  </g>
  <g stroke-linejoin="miter" stroke-opacity="0.0" fill-opacity="0.0" stroke="rgb(0,0,0)" fill-rule="evenodd" stroke-width="0.0" fill="rgb(0,0,0)" stroke-linecap="butt" stroke-miterlimit="10.0">
    <path d="M 366.8854,124.6427 l -0.0000,-18.2560 h -27.3839 l -0.0000,18.2560 Z"/>
  </g>
  <g stroke-linejoin="miter" stroke-opacity="1.0" fill-opacity="0.33" font-size="16.596333203305086px" stroke="rgb(0,0,0)" fill-rule="evenodd" stroke-width="0.0" fill="rgb(255,255,255)" stroke-linecap="butt" stroke-miterlimit="10.0">
    <text dominant-baseline="middle" transform="matrix(1.0000,-0.0000,0.0000,1.0000,353.1934,115.5147)" stroke="none" text-anchor="middle">3,2
    </text>
  </g>
  <g stroke-linejoin="miter" stroke-opacity="1.0" fill-opacity="1.0" stroke="rgb(102,102,102)" stroke-width="0.0" fill="rgb(0,0,0)" stroke-linecap="butt" stroke-miterlimit="10.0">
    <path d="M 354.0799,128.1889 c 0.0000,-0.4896 -0.3969,-0.8866 -0.8866 -0.8866c -0.4896,-0.0000 -0.8866,0.3969 -0.8866 0.8866c -0.0000,0.4896 0.3969,0.8866 0.8866 0.8866c 0.4896,0.0000 0.8866,-0.3969 0.8866 -0.8866Z"/>
  </g>
  <g stroke-linejoin="miter" stroke-opacity="0.0" fill-opacity="0.0" stroke="rgb(0,0,0)" fill-rule="evenodd" stroke-width="0.0" fill="rgb(0,0,0)" stroke-linecap="butt" stroke-miterlimit="10.0">
    <path d="M 366.8854,160.1050 l -0.0000,-18.2560 h -27.3839 l -0.0000,18.2560 Z"/>
  </g>
  <g stroke-linejoin="miter" stroke-opacity="1.0" fill-opacity="0.33" font-size="16.596333203305086px" stroke="rgb(0,0,0)" fill-rule="evenodd" stroke-width="0.0" fill="rgb(255,255,255)" stroke-linecap="butt" stroke-miterlimit="10.0">
    <text dominant-baseline="middle" transform="matrix(1.0000,-0.0000,0.0000,1.0000,353.1934,150.9770)" stroke="none" text-anchor="middle">3,1
    </text>
  </g>
  <g stroke-linejoin="miter" stroke-opacity="1.0" fill-opacity="1.0" stroke="rgb(102,102,102)" stroke-width="0.0" fill="rgb(0,0,0)" stroke-linecap="butt" stroke-miterlimit="10.0">
    <path d="M 354.0799,163.6512 c 0.0000,-0.4896 -0.3969,-0.8866 -0.8866 -0.8866c -0.4896,-0.0000 -0.8866,0.3969 -0.8866 0.8866c -0.0000,0.4896 0.3969,0.8866 0.8866 0.8866c 0.4896,0.0000 0.8866,-0.3969 0.8866 -0.8866Z"/>
  </g>
  <g stroke-linejoin="miter" stroke-opacity="0.0" fill-opacity="0.0" stroke="rgb(0,0,0)" fill-rule="evenodd" stroke-width="0.0" fill="rgb(0,0,0)" stroke-linecap="butt" stroke-miterlimit="10.0">
    <path d="M 366.8854,195.5672 l -0.0000,-18.2560 h -27.3839 l -0.0000,18.2560 Z"/>
  </g>
  <g stroke-linejoin="miter" stroke-opacity="1.0" fill-opacity="0.33" font-size="16.596333203305086px" stroke="rgb(0,0,0)" fill-rule="evenodd" stroke-width="0.0" fill="rgb(255,255,255)" stroke-linecap="butt" stroke-miterlimit="10.0">
    <text dominant-baseline="middle" transform="matrix(1.0000,-0.0000,0.0000,1.0000,353.1934,186.4392)" stroke="none" text-anchor="middle">3,0
    </text>
  </g>
  <g stroke-linejoin="miter" stroke-opacity="1.0" fill-opacity="1.0" stroke="rgb(102,102,102)" stroke-width="0.0" fill="rgb(0,0,0)" stroke-linecap="butt" stroke-miterlimit="10.0">
    <path d="M 354.0799,199.1134 c 0.0000,-0.4896 -0.3969,-0.8866 -0.8866 -0.8866c -0.4896,-0.0000 -0.8866,0.3969 -0.8866 0.8866c -0.0000,0.4896 0.3969,0.8866 0.8866 0.8866c 0.4896,0.0000 0.8866,-0.3969 0.8866 -0.8866Z"/>
  </g>
  <g stroke-linejoin="miter" stroke-opacity="0.0" fill-opacity="0.0" stroke="rgb(0,0,0)" fill-rule="evenodd" stroke-width="0.0" fill="rgb(0,0,0)" stroke-linecap="butt" stroke-miterlimit="10.0">
    <path d="M 260.4986,18.2560 l -0.0000,-18.2560 h -27.3839 l -0.0000,18.2560 Z"/>
  </g>
  <g stroke-linejoin="miter" stroke-opacity="1.0" fill-opacity="0.33" font-size="16.596333203305086px" stroke="rgb(0,0,0)" fill-rule="evenodd" stroke-width="0.0" fill="rgb(255,255,255)" stroke-linecap="butt" stroke-miterlimit="10.0">
    <text dominant-baseline="middle" transform="matrix(1.0000,-0.0000,0.0000,1.0000,246.8066,9.1280)" stroke="none" text-anchor="middle">2,5
    </text>
  </g>
  <g stroke-linejoin="miter" stroke-opacity="1.0" fill-opacity="1.0" stroke="rgb(102,102,102)" stroke-width="0.0" fill="rgb(0,0,0)" stroke-linecap="butt" stroke-miterlimit="10.0">
    <path d="M 247.6932,21.8022 c 0.0000,-0.4896 -0.3969,-0.8866 -0.8866 -0.8866c -0.4896,-0.0000 -0.8866,0.3969 -0.8866 0.8866c -0.0000,0.4896 0.3969,0.8866 0.8866 0.8866c 0.4896,0.0000 0.8866,-0.3969 0.8866 -0.8866Z"/>
  </g>
  <g stroke-linejoin="miter" stroke-opacity="0.0" fill-opacity="0.0" stroke="rgb(0,0,0)" fill-rule="evenodd" stroke-width="0.0" fill="rgb(0,0,0)" stroke-linecap="butt" stroke-miterlimit="10.0">
    <path d="M 260.4986,53.7182 l -0.0000,-18.2560 h -27.3839 l -0.0000,18.2560 Z"/>
  </g>
  <g stroke-linejoin="miter" stroke-opacity="1.0" fill-opacity="0.33" font-size="16.596333203305086px" stroke="rgb(0,0,0)" fill-rule="evenodd" stroke-width="0.0" fill="rgb(255,255,255)" stroke-linecap="butt" stroke-miterlimit="10.0">
    <text dominant-baseline="middle" transform="matrix(1.0000,-0.0000,0.0000,1.0000,246.8066,44.5902)" stroke="none" text-anchor="middle">2,4
    </text>
  </g>
  <g stroke-linejoin="miter" stroke-opacity="1.0" fill-opacity="1.0" stroke="rgb(102,102,102)" stroke-width="0.0" fill="rgb(0,0,0)" stroke-linecap="butt" stroke-miterlimit="10.0">
    <path d="M 247.6932,57.2644 c 0.0000,-0.4896 -0.3969,-0.8866 -0.8866 -0.8866c -0.4896,-0.0000 -0.8866,0.3969 -0.8866 0.8866c -0.0000,0.4896 0.3969,0.8866 0.8866 0.8866c 0.4896,0.0000 0.8866,-0.3969 0.8866 -0.8866Z"/>
  </g>
  <g stroke-linejoin="miter" stroke-opacity="0.0" fill-opacity="0.0" stroke="rgb(0,0,0)" fill-rule="evenodd" stroke-width="0.0" fill="rgb(0,0,0)" stroke-linecap="butt" stroke-miterlimit="10.0">
    <path d="M 260.4986,89.1805 l -0.0000,-18.2560 h -27.3839 l -0.0000,18.2560 Z"/>
  </g>
  <g stroke-linejoin="miter" stroke-opacity="1.0" fill-opacity="0.33" font-size="16.596333203305086px" stroke="rgb(0,0,0)" fill-rule="evenodd" stroke-width="0.0" fill="rgb(255,255,255)" stroke-linecap="butt" stroke-miterlimit="10.0">
    <text dominant-baseline="middle" transform="matrix(1.0000,-0.0000,0.0000,1.0000,246.8066,80.0525)" stroke="none" text-anchor="middle">2,3
    </text>
  </g>
  <g stroke-linejoin="miter" stroke-opacity="1.0" fill-opacity="1.0" stroke="rgb(102,102,102)" stroke-width="0.0" fill="rgb(0,0,0)" stroke-linecap="butt" stroke-miterlimit="10.0">
    <path d="M 247.6932,92.7267 c 0.0000,-0.4896 -0.3969,-0.8866 -0.8866 -0.8866c -0.4896,-0.0000 -0.8866,0.3969 -0.8866 0.8866c -0.0000,0.4896 0.3969,0.8866 0.8866 0.8866c 0.4896,0.0000 0.8866,-0.3969 0.8866 -0.8866Z"/>
  </g>
  <g stroke-linejoin="miter" stroke-opacity="0.0" fill-opacity="0.0" stroke="rgb(0,0,0)" fill-rule="evenodd" stroke-width="0.0" fill="rgb(0,0,0)" stroke-linecap="butt" stroke-miterlimit="10.0">
    <path d="M 260.4986,124.6427 l -0.0000,-18.2560 h -27.3839 l -0.0000,18.2560 Z"/>
  </g>
  <g stroke-linejoin="miter" stroke-opacity="1.0" fill-opacity="0.33" font-size="16.596333203305086px" stroke="rgb(0,0,0)" fill-rule="evenodd" stroke-width="0.0" fill="rgb(255,255,255)" stroke-linecap="butt" stroke-miterlimit="10.0">
    <text dominant-baseline="middle" transform="matrix(1.0000,-0.0000,0.0000,1.0000,246.8066,115.5147)" stroke="none" text-anchor="middle">2,2
    </text>
  </g>
  <g stroke-linejoin="miter" stroke-opacity="1.0" fill-opacity="1.0" stroke="rgb(102,102,102)" stroke-width="0.0" fill="rgb(0,0,0)" stroke-linecap="butt" stroke-miterlimit="10.0">
    <path d="M 247.6932,128.1889 c 0.0000,-0.4896 -0.3969,-0.8866 -0.8866 -0.8866c -0.4896,-0.0000 -0.8866,0.3969 -0.8866 0.8866c -0.0000,0.4896 0.3969,0.8866 0.8866 0.8866c 0.4896,0.0000 0.8866,-0.3969 0.8866 -0.8866Z"/>
  </g>
  <g stroke-linejoin="miter" stroke-opacity="0.0" fill-opacity="0.0" stroke="rgb(0,0,0)" fill-rule="evenodd" stroke-width="0.0" fill="rgb(0,0,0)" stroke-linecap="butt" stroke-miterlimit="10.0">
    <path d="M 260.4986,160.1050 l -0.0000,-18.2560 h -27.3839 l -0.0000,18.2560 Z"/>
  </g>
  <g stroke-linejoin="miter" stroke-opacity="1.0" fill-opacity="0.33" font-size="16.596333203305086px" stroke="rgb(0,0,0)" fill-rule="evenodd" stroke-width="0.0" fill="rgb(255,255,255)" stroke-linecap="butt" stroke-miterlimit="10.0">
    <text dominant-baseline="middle" transform="matrix(1.0000,-0.0000,0.0000,1.0000,246.8066,150.9770)" stroke="none" text-anchor="middle">2,1
    </text>
  </g>
  <g stroke-linejoin="miter" stroke-opacity="1.0" fill-opacity="1.0" stroke="rgb(102,102,102)" stroke-width="0.0" fill="rgb(0,0,0)" stroke-linecap="butt" stroke-miterlimit="10.0">
    <path d="M 247.6932,163.6512 c 0.0000,-0.4896 -0.3969,-0.8866 -0.8866 -0.8866c -0.4896,-0.0000 -0.8866,0.3969 -0.8866 0.8866c -0.0000,0.4896 0.3969,0.8866 0.8866 0.8866c 0.4896,0.0000 0.8866,-0.3969 0.8866 -0.8866Z"/>
  </g>
  <g stroke-linejoin="miter" stroke-opacity="0.0" fill-opacity="0.0" stroke="rgb(0,0,0)" fill-rule="evenodd" stroke-width="0.0" fill="rgb(0,0,0)" stroke-linecap="butt" stroke-miterlimit="10.0">
    <path d="M 260.4986,195.5672 l -0.0000,-18.2560 h -27.3839 l -0.0000,18.2560 Z"/>
  </g>
  <g stroke-linejoin="miter" stroke-opacity="1.0" fill-opacity="0.33" font-size="16.596333203305086px" stroke="rgb(0,0,0)" fill-rule="evenodd" stroke-width="0.0" fill="rgb(255,255,255)" stroke-linecap="butt" stroke-miterlimit="10.0">
    <text dominant-baseline="middle" transform="matrix(1.0000,-0.0000,0.0000,1.0000,246.8066,186.4392)" stroke="none" text-anchor="middle">2,0
    </text>
  </g>
  <g stroke-linejoin="miter" stroke-opacity="1.0" fill-opacity="1.0" stroke="rgb(102,102,102)" stroke-width="0.0" fill="rgb(0,0,0)" stroke-linecap="butt" stroke-miterlimit="10.0">
    <path d="M 247.6932,199.1134 c 0.0000,-0.4896 -0.3969,-0.8866 -0.8866 -0.8866c -0.4896,-0.0000 -0.8866,0.3969 -0.8866 0.8866c -0.0000,0.4896 0.3969,0.8866 0.8866 0.8866c 0.4896,0.0000 0.8866,-0.3969 0.8866 -0.8866Z"/>
  </g>
  <g stroke-linejoin="miter" stroke-opacity="0.0" fill-opacity="0.0" stroke="rgb(0,0,0)" fill-rule="evenodd" stroke-width="0.0" fill="rgb(0,0,0)" stroke-linecap="butt" stroke-miterlimit="10.0">
    <path d="M 154.1118,18.2560 l -0.0000,-18.2560 h -27.3839 l -0.0000,18.2560 Z"/>
  </g>
  <g stroke-linejoin="miter" stroke-opacity="1.0" fill-opacity="0.33" font-size="16.596333203305086px" stroke="rgb(0,0,0)" fill-rule="evenodd" stroke-width="0.0" fill="rgb(255,255,255)" stroke-linecap="butt" stroke-miterlimit="10.0">
    <text dominant-baseline="middle" transform="matrix(1.0000,-0.0000,0.0000,1.0000,140.4199,9.1280)" stroke="none" text-anchor="middle">1,5
    </text>
  </g>
  <g stroke-linejoin="miter" stroke-opacity="1.0" fill-opacity="1.0" stroke="rgb(102,102,102)" stroke-width="0.0" fill="rgb(0,0,0)" stroke-linecap="butt" stroke-miterlimit="10.0">
    <path d="M 141.3064,21.8022 c 0.0000,-0.4896 -0.3969,-0.8866 -0.8866 -0.8866c -0.4896,-0.0000 -0.8866,0.3969 -0.8866 0.8866c -0.0000,0.4896 0.3969,0.8866 0.8866 0.8866c 0.4896,0.0000 0.8866,-0.3969 0.8866 -0.8866Z"/>
  </g>
  <g stroke-linejoin="miter" stroke-opacity="0.0" fill-opacity="0.0" stroke="rgb(0,0,0)" fill-rule="evenodd" stroke-width="0.0" fill="rgb(0,0,0)" stroke-linecap="butt" stroke-miterlimit="10.0">
    <path d="M 154.1118,53.7182 l -0.0000,-18.2560 h -27.3839 l -0.0000,18.2560 Z"/>
  </g>
  <g stroke-linejoin="miter" stroke-opacity="1.0" fill-opacity="0.33" font-size="16.596333203305086px" stroke="rgb(0,0,0)" fill-rule="evenodd" stroke-width="0.0" fill="rgb(255,255,255)" stroke-linecap="butt" stroke-miterlimit="10.0">
    <text dominant-baseline="middle" transform="matrix(1.0000,-0.0000,0.0000,1.0000,140.4199,44.5902)" stroke="none" text-anchor="middle">1,4
    </text>
  </g>
  <g stroke-linejoin="miter" stroke-opacity="1.0" fill-opacity="1.0" stroke="rgb(102,102,102)" stroke-width="0.0" fill="rgb(0,0,0)" stroke-linecap="butt" stroke-miterlimit="10.0">
    <path d="M 141.3064,57.2644 c 0.0000,-0.4896 -0.3969,-0.8866 -0.8866 -0.8866c -0.4896,-0.0000 -0.8866,0.3969 -0.8866 0.8866c -0.0000,0.4896 0.3969,0.8866 0.8866 0.8866c 0.4896,0.0000 0.8866,-0.3969 0.8866 -0.8866Z"/>
  </g>
  <g stroke-linejoin="miter" stroke-opacity="0.0" fill-opacity="0.0" stroke="rgb(0,0,0)" fill-rule="evenodd" stroke-width="0.0" fill="rgb(0,0,0)" stroke-linecap="butt" stroke-miterlimit="10.0">
    <path d="M 154.1118,89.1805 l -0.0000,-18.2560 h -27.3839 l -0.0000,18.2560 Z"/>
  </g>
  <g stroke-linejoin="miter" stroke-opacity="1.0" fill-opacity="0.33" font-size="16.596333203305086px" stroke="rgb(0,0,0)" fill-rule="evenodd" stroke-width="0.0" fill="rgb(255,255,255)" stroke-linecap="butt" stroke-miterlimit="10.0">
    <text dominant-baseline="middle" transform="matrix(1.0000,-0.0000,0.0000,1.0000,140.4199,80.0525)" stroke="none" text-anchor="middle">1,3
    </text>
  </g>
  <g stroke-linejoin="miter" stroke-opacity="1.0" fill-opacity="1.0" stroke="rgb(102,102,102)" stroke-width="0.0" fill="rgb(0,0,0)" stroke-linecap="butt" stroke-miterlimit="10.0">
    <path d="M 141.3064,92.7267 c 0.0000,-0.4896 -0.3969,-0.8866 -0.8866 -0.8866c -0.4896,-0.0000 -0.8866,0.3969 -0.8866 0.8866c -0.0000,0.4896 0.3969,0.8866 0.8866 0.8866c 0.4896,0.0000 0.8866,-0.3969 0.8866 -0.8866Z"/>
  </g>
  <g stroke-linejoin="miter" stroke-opacity="0.0" fill-opacity="0.0" stroke="rgb(0,0,0)" fill-rule="evenodd" stroke-width="0.0" fill="rgb(0,0,0)" stroke-linecap="butt" stroke-miterlimit="10.0">
    <path d="M 154.1118,124.6427 l -0.0000,-18.2560 h -27.3839 l -0.0000,18.2560 Z"/>
  </g>
  <g stroke-linejoin="miter" stroke-opacity="1.0" fill-opacity="0.33" font-size="16.596333203305086px" stroke="rgb(0,0,0)" fill-rule="evenodd" stroke-width="0.0" fill="rgb(255,255,255)" stroke-linecap="butt" stroke-miterlimit="10.0">
    <text dominant-baseline="middle" transform="matrix(1.0000,-0.0000,0.0000,1.0000,140.4199,115.5147)" stroke="none" text-anchor="middle">1,2
    </text>
  </g>
  <g stroke-linejoin="miter" stroke-opacity="1.0" fill-opacity="1.0" stroke="rgb(102,102,102)" stroke-width="0.0" fill="rgb(0,0,0)" stroke-linecap="butt" stroke-miterlimit="10.0">
    <path d="M 141.3064,128.1889 c 0.0000,-0.4896 -0.3969,-0.8866 -0.8866 -0.8866c -0.4896,-0.0000 -0.8866,0.3969 -0.8866 0.8866c -0.0000,0.4896 0.3969,0.8866 0.8866 0.8866c 0.4896,0.0000 0.8866,-0.3969 0.8866 -0.8866Z"/>
  </g>
  <g stroke-linejoin="miter" stroke-opacity="0.0" fill-opacity="0.0" stroke="rgb(0,0,0)" fill-rule="evenodd" stroke-width="0.0" fill="rgb(0,0,0)" stroke-linecap="butt" stroke-miterlimit="10.0">
    <path d="M 154.1118,160.1050 l -0.0000,-18.2560 h -27.3839 l -0.0000,18.2560 Z"/>
  </g>
  <g stroke-linejoin="miter" stroke-opacity="1.0" fill-opacity="0.33" font-size="16.596333203305086px" stroke="rgb(0,0,0)" fill-rule="evenodd" stroke-width="0.0" fill="rgb(255,255,255)" stroke-linecap="butt" stroke-miterlimit="10.0">
    <text dominant-baseline="middle" transform="matrix(1.0000,-0.0000,0.0000,1.0000,140.4199,150.9770)" stroke="none" text-anchor="middle">1,1
    </text>
  </g>
  <g stroke-linejoin="miter" stroke-opacity="1.0" fill-opacity="1.0" stroke="rgb(102,102,102)" stroke-width="0.0" fill="rgb(0,0,0)" stroke-linecap="butt" stroke-miterlimit="10.0">
    <path d="M 141.3064,163.6512 c 0.0000,-0.4896 -0.3969,-0.8866 -0.8866 -0.8866c -0.4896,-0.0000 -0.8866,0.3969 -0.8866 0.8866c -0.0000,0.4896 0.3969,0.8866 0.8866 0.8866c 0.4896,0.0000 0.8866,-0.3969 0.8866 -0.8866Z"/>
  </g>
  <g stroke-linejoin="miter" stroke-opacity="0.0" fill-opacity="0.0" stroke="rgb(0,0,0)" fill-rule="evenodd" stroke-width="0.0" fill="rgb(0,0,0)" stroke-linecap="butt" stroke-miterlimit="10.0">
    <path d="M 154.1118,195.5672 l -0.0000,-18.2560 h -27.3839 l -0.0000,18.2560 Z"/>
  </g>
  <g stroke-linejoin="miter" stroke-opacity="1.0" fill-opacity="0.33" font-size="16.596333203305086px" stroke="rgb(0,0,0)" fill-rule="evenodd" stroke-width="0.0" fill="rgb(255,255,255)" stroke-linecap="butt" stroke-miterlimit="10.0">
    <text dominant-baseline="middle" transform="matrix(1.0000,-0.0000,0.0000,1.0000,140.4199,186.4392)" stroke="none" text-anchor="middle">1,0
    </text>
  </g>
  <g stroke-linejoin="miter" stroke-opacity="1.0" fill-opacity="1.0" stroke="rgb(102,102,102)" stroke-width="0.0" fill="rgb(0,0,0)" stroke-linecap="butt" stroke-miterlimit="10.0">
    <path d="M 141.3064,199.1134 c 0.0000,-0.4896 -0.3969,-0.8866 -0.8866 -0.8866c -0.4896,-0.0000 -0.8866,0.3969 -0.8866 0.8866c -0.0000,0.4896 0.3969,0.8866 0.8866 0.8866c 0.4896,0.0000 0.8866,-0.3969 0.8866 -0.8866Z"/>
  </g>
  <g stroke-linejoin="miter" stroke-opacity="0.0" fill-opacity="0.0" stroke="rgb(0,0,0)" fill-rule="evenodd" stroke-width="0.0" fill="rgb(0,0,0)" stroke-linecap="butt" stroke-miterlimit="10.0">
    <path d="M 47.7251,18.2560 l -0.0000,-18.2560 h -27.3839 l -0.0000,18.2560 Z"/>
  </g>
  <g stroke-linejoin="miter" stroke-opacity="1.0" fill-opacity="0.33" font-size="16.596333203305086px" stroke="rgb(0,0,0)" fill-rule="evenodd" stroke-width="0.0" fill="rgb(255,255,255)" stroke-linecap="butt" stroke-miterlimit="10.0">
    <text dominant-baseline="middle" transform="matrix(1.0000,-0.0000,0.0000,1.0000,34.0331,9.1280)" stroke="none" text-anchor="middle">0,5
    </text>
  </g>
  <g stroke-linejoin="miter" stroke-opacity="1.0" fill-opacity="1.0" stroke="rgb(102,102,102)" stroke-width="0.0" fill="rgb(0,0,0)" stroke-linecap="butt" stroke-miterlimit="10.0">
    <path d="M 34.9197,21.8022 c 0.0000,-0.4896 -0.3969,-0.8866 -0.8866 -0.8866c -0.4896,-0.0000 -0.8866,0.3969 -0.8866 0.8866c -0.0000,0.4896 0.3969,0.8866 0.8866 0.8866c 0.4896,0.0000 0.8866,-0.3969 0.8866 -0.8866Z"/>
  </g>
  <g stroke-linejoin="miter" stroke-opacity="0.0" fill-opacity="0.0" stroke="rgb(0,0,0)" fill-rule="evenodd" stroke-width="0.0" fill="rgb(0,0,0)" stroke-linecap="butt" stroke-miterlimit="10.0">
    <path d="M 47.7251,53.7182 l -0.0000,-18.2560 h -27.3839 l -0.0000,18.2560 Z"/>
  </g>
  <g stroke-linejoin="miter" stroke-opacity="1.0" fill-opacity="0.33" font-size="16.596333203305086px" stroke="rgb(0,0,0)" fill-rule="evenodd" stroke-width="0.0" fill="rgb(255,255,255)" stroke-linecap="butt" stroke-miterlimit="10.0">
    <text dominant-baseline="middle" transform="matrix(1.0000,-0.0000,0.0000,1.0000,34.0331,44.5902)" stroke="none" text-anchor="middle">0,4
    </text>
  </g>
  <g stroke-linejoin="miter" stroke-opacity="1.0" fill-opacity="1.0" stroke="rgb(102,102,102)" stroke-width="0.0" fill="rgb(0,0,0)" stroke-linecap="butt" stroke-miterlimit="10.0">
    <path d="M 34.9197,57.2644 c 0.0000,-0.4896 -0.3969,-0.8866 -0.8866 -0.8866c -0.4896,-0.0000 -0.8866,0.3969 -0.8866 0.8866c -0.0000,0.4896 0.3969,0.8866 0.8866 0.8866c 0.4896,0.0000 0.8866,-0.3969 0.8866 -0.8866Z"/>
  </g>
  <g stroke-linejoin="miter" stroke-opacity="0.0" fill-opacity="0.0" stroke="rgb(0,0,0)" fill-rule="evenodd" stroke-width="0.0" fill="rgb(0,0,0)" stroke-linecap="butt" stroke-miterlimit="10.0">
    <path d="M 47.7251,89.1805 l -0.0000,-18.2560 h -27.3839 l -0.0000,18.2560 Z"/>
  </g>
  <g stroke-linejoin="miter" stroke-opacity="1.0" fill-opacity="0.33" font-size="16.596333203305086px" stroke="rgb(0,0,0)" fill-rule="evenodd" stroke-width="0.0" fill="rgb(255,255,255)" stroke-linecap="butt" stroke-miterlimit="10.0">
    <text dominant-baseline="middle" transform="matrix(1.0000,-0.0000,0.0000,1.0000,34.0331,80.0525)" stroke="none" text-anchor="middle">0,3
    </text>
  </g>
  <g stroke-linejoin="miter" stroke-opacity="1.0" fill-opacity="1.0" stroke="rgb(102,102,102)" stroke-width="0.0" fill="rgb(0,0,0)" stroke-linecap="butt" stroke-miterlimit="10.0">
    <path d="M 34.9197,92.7267 c 0.0000,-0.4896 -0.3969,-0.8866 -0.8866 -0.8866c -0.4896,-0.0000 -0.8866,0.3969 -0.8866 0.8866c -0.0000,0.4896 0.3969,0.8866 0.8866 0.8866c 0.4896,0.0000 0.8866,-0.3969 0.8866 -0.8866Z"/>
  </g>
  <g stroke-linejoin="miter" stroke-opacity="0.0" fill-opacity="0.0" stroke="rgb(0,0,0)" fill-rule="evenodd" stroke-width="0.0" fill="rgb(0,0,0)" stroke-linecap="butt" stroke-miterlimit="10.0">
    <path d="M 47.7251,124.6427 l -0.0000,-18.2560 h -27.3839 l -0.0000,18.2560 Z"/>
  </g>
  <g stroke-linejoin="miter" stroke-opacity="1.0" fill-opacity="0.33" font-size="16.596333203305086px" stroke="rgb(0,0,0)" fill-rule="evenodd" stroke-width="0.0" fill="rgb(255,255,255)" stroke-linecap="butt" stroke-miterlimit="10.0">
    <text dominant-baseline="middle" transform="matrix(1.0000,-0.0000,0.0000,1.0000,34.0331,115.5147)" stroke="none" text-anchor="middle">0,2
    </text>
  </g>
  <g stroke-linejoin="miter" stroke-opacity="1.0" fill-opacity="1.0" stroke="rgb(102,102,102)" stroke-width="0.0" fill="rgb(0,0,0)" stroke-linecap="butt" stroke-miterlimit="10.0">
    <path d="M 34.9197,128.1889 c 0.0000,-0.4896 -0.3969,-0.8866 -0.8866 -0.8866c -0.4896,-0.0000 -0.8866,0.3969 -0.8866 0.8866c -0.0000,0.4896 0.3969,0.8866 0.8866 0.8866c 0.4896,0.0000 0.8866,-0.3969 0.8866 -0.8866Z"/>
  </g>
  <g stroke-linejoin="miter" stroke-opacity="0.0" fill-opacity="0.0" stroke="rgb(0,0,0)" fill-rule="evenodd" stroke-width="0.0" fill="rgb(0,0,0)" stroke-linecap="butt" stroke-miterlimit="10.0">
    <path d="M 47.7251,160.1050 l -0.0000,-18.2560 h -27.3839 l -0.0000,18.2560 Z"/>
  </g>
  <g stroke-linejoin="miter" stroke-opacity="1.0" fill-opacity="0.33" font-size="16.596333203305086px" stroke="rgb(0,0,0)" fill-rule="evenodd" stroke-width="0.0" fill="rgb(255,255,255)" stroke-linecap="butt" stroke-miterlimit="10.0">
    <text dominant-baseline="middle" transform="matrix(1.0000,-0.0000,0.0000,1.0000,34.0331,150.9770)" stroke="none" text-anchor="middle">0,1
    </text>
  </g>
  <g stroke-linejoin="miter" stroke-opacity="1.0" fill-opacity="1.0" stroke="rgb(102,102,102)" stroke-width="0.0" fill="rgb(0,0,0)" stroke-linecap="butt" stroke-miterlimit="10.0">
    <path d="M 34.9197,163.6512 c 0.0000,-0.4896 -0.3969,-0.8866 -0.8866 -0.8866c -0.4896,-0.0000 -0.8866,0.3969 -0.8866 0.8866c -0.0000,0.4896 0.3969,0.8866 0.8866 0.8866c 0.4896,0.0000 0.8866,-0.3969 0.8866 -0.8866Z"/>
  </g>
  <g stroke-linejoin="miter" stroke-opacity="0.0" fill-opacity="0.0" stroke="rgb(0,0,0)" fill-rule="evenodd" stroke-width="0.0" fill="rgb(0,0,0)" stroke-linecap="butt" stroke-miterlimit="10.0">
    <path d="M 47.7251,195.5672 l -0.0000,-18.2560 h -27.3839 l -0.0000,18.2560 Z"/>
  </g>
  <g stroke-linejoin="miter" stroke-opacity="1.0" fill-opacity="0.33" font-size="16.596333203305086px" stroke="rgb(0,0,0)" fill-rule="evenodd" stroke-width="0.0" fill="rgb(255,255,255)" stroke-linecap="butt" stroke-miterlimit="10.0">
    <text dominant-baseline="middle" transform="matrix(1.0000,-0.0000,0.0000,1.0000,34.0331,186.4392)" stroke="none" text-anchor="middle">0,0
    </text>
  </g>
  <g stroke-linejoin="miter" stroke-opacity="1.0" fill-opacity="1.0" stroke="rgb(102,102,102)" stroke-width="0.0" fill="rgb(0,0,0)" stroke-linecap="butt" stroke-miterlimit="10.0">
    <path d="M 34.9197,199.1134 c 0.0000,-0.4896 -0.3969,-0.8866 -0.8866 -0.8866c -0.4896,-0.0000 -0.8866,0.3969 -0.8866 0.8866c -0.0000,0.4896 0.3969,0.8866 0.8866 0.8866c 0.4896,0.0000 0.8866,-0.3969 0.8866 -0.8866Z"/>
  </g>
</svg>