<?xml version="1.0" encoding="UTF-8"?>
<!DOCTYPE svg PUBLIC "-//W3C//DTD SVG 1.1//EN"
    "http://www.w3.org/Graphics/SVG/1.1/DTD/svg11.dtd"><svg xmlns="http://www.w3.org/2000/svg" height="200.0000" stroke-opacity="1" viewBox="0 0 600 200" font-size="1" width="600.0000" xmlns:xlink="http://www.w3.org/1999/xlink" stroke="rgb(0,0,0)" version="1.1"><defs></defs><g stroke-linejoin="miter" stroke-opacity="1.0" fill-opacity="0.33" stroke="rgb(0,0,0)" fill-rule="evenodd" stroke-width="0.0" fill="rgb(0,0,0)" stroke-linecap="butt" stroke-miterlimit="10.0"><path d="M 552.4930,15.5380 ZM 557.8635,12.6008 c 0.0000,-1.7902 -0.9733,-2.6766 -2.0509 -2.6766c -0.7995,-0.0000 -1.4078,0.1217 -2.0856 0.3997l 0.5562,-4.7448 c 0.5736,0.0521 1.1645,0.0695 1.7728 0.0695c 0.8690,-0.0000 1.7728,-0.0521 2.7113 -0.1564l 0.1043,0.0521 l -0.2607,1.1297 c -0.6778,0.0695 -1.2340,0.0869 -1.7207 0.0869c -0.7821,-0.0000 -1.3730,-0.0695 -1.9814 -0.1390l -0.3302,2.7461 c 0.3650,-0.1390 0.9907,-0.2607 1.6685 -0.2607c 1.8423,-0.0000 2.8678,1.5990 2.8678 3.1980c 0.0000,1.9466 -1.3557,3.4413 -3.3196 3.4413c -0.9907,-0.0000 -2.4332,-0.5562 -2.4332 -1.2340c 0.0000,-0.3302 0.2781,-0.5562 0.5909 -0.5562c 0.3476,-0.0000 0.5736,0.2607 0.7821 0.5388c 0.2607,0.3128 0.5388,0.6605 1.0950 0.6605c 1.1123,-0.0000 2.0335,-1.0428 2.0335 -2.5549ZM 560.1056,15.5380 ZM 561.9131,13.8869 c 0.6952,-0.0000 1.1471,0.6778 1.1471 1.7207c 0.0000,1.2166 -0.8690,1.7902 -1.9118 1.9814l -0.0869,-0.4345 c 0.9038,-0.2259 1.3209,-0.7474 1.3209 -1.1123c 0.0000,-0.3997 -0.2955,-0.4693 -0.6257 -0.5040c -0.3128,-0.0521 -0.7647,-0.1912 -0.7647 -0.7647c 0.0000,-0.4866 0.3824,-0.8864 0.9212 -0.8864ZM 563.9119,15.5380 ZM 569.2824,12.6008 c 0.0000,-1.7902 -0.9733,-2.6766 -2.0509 -2.6766c -0.7995,-0.0000 -1.4078,0.1217 -2.0856 0.3997l 0.5562,-4.7448 c 0.5736,0.0521 1.1645,0.0695 1.7728 0.0695c 0.8690,-0.0000 1.7728,-0.0521 2.7113 -0.1564l 0.1043,0.0521 l -0.2607,1.1297 c -0.6778,0.0695 -1.2340,0.0869 -1.7207 0.0869c -0.7821,-0.0000 -1.3730,-0.0695 -1.9814 -0.1390l -0.3302,2.7461 c 0.3650,-0.1390 0.9907,-0.2607 1.6685 -0.2607c 1.8423,-0.0000 2.8678,1.5990 2.8678 3.1980c 0.0000,1.9466 -1.3557,3.4413 -3.3196 3.4413c -0.9907,-0.0000 -2.4332,-0.5562 -2.4332 -1.2340c 0.0000,-0.3302 0.2781,-0.5562 0.5909 -0.5562c 0.3476,-0.0000 0.5736,0.2607 0.7821 0.5388c 0.2607,0.3128 0.5388,0.6605 1.0950 0.6605c 1.1123,-0.0000 2.0335,-1.0428 2.0335 -2.5549Z"/></g><g stroke-linejoin="miter" stroke-opacity="1.0" fill-opacity="1.0" stroke="rgb(102,102,102)" stroke-width="0.0" fill="rgb(0,0,0)" stroke-linecap="butt" stroke-miterlimit="10.0"><path d="M 562.8821,24.4541 c 0.0000,-0.4823 -0.3910,-0.8734 -0.8734 -0.8734c -0.4823,-0.0000 -0.8734,0.3910 -0.8734 0.8734c -0.0000,0.4823 0.3910,0.8734 0.8734 0.8734c 0.4823,0.0000 0.8734,-0.3910 0.8734 -0.8734Z"/></g><g stroke-linejoin="miter" stroke-opacity="1.0" fill-opacity="0.33" stroke="rgb(0,0,0)" fill-rule="evenodd" stroke-width="0.0" fill="rgb(0,0,0)" stroke-linecap="butt" stroke-miterlimit="10.0"><path d="M 552.4930,50.4725 ZM 557.8635,47.5352 c 0.0000,-1.7902 -0.9733,-2.6766 -2.0509 -2.6766c -0.7995,-0.0000 -1.4078,0.1217 -2.0856 0.3997l 0.5562,-4.7448 c 0.5736,0.0521 1.1645,0.0695 1.7728 0.0695c 0.8690,-0.0000 1.7728,-0.0521 2.7113 -0.1564l 0.1043,0.0521 l -0.2607,1.1297 c -0.6778,0.0695 -1.2340,0.0869 -1.7207 0.0869c -0.7821,-0.0000 -1.3730,-0.0695 -1.9814 -0.1390l -0.3302,2.7461 c 0.3650,-0.1390 0.9907,-0.2607 1.6685 -0.2607c 1.8423,-0.0000 2.8678,1.5990 2.8678 3.1980c 0.0000,1.9466 -1.3557,3.4413 -3.3196 3.4413c -0.9907,-0.0000 -2.4332,-0.5562 -2.4332 -1.2340c 0.0000,-0.3302 0.2781,-0.5562 0.5909 -0.5562c 0.3476,-0.0000 0.5736,0.2607 0.7821 0.5388c 0.2607,0.3128 0.5388,0.6605 1.0950 0.6605c 1.1123,-0.0000 2.0335,-1.0428 2.0335 -2.5549ZM 560.1056,50.4725 ZM 561.9131,48.8214 c 0.6952,-0.0000 1.1471,0.6778 1.1471 1.7207c 0.0000,1.2166 -0.8690,1.7902 -1.9118 1.9814l -0.0869,-0.4345 c 0.9038,-0.2259 1.3209,-0.7474 1.3209 -1.1123c 0.0000,-0.3997 -0.2955,-0.4693 -0.6257 -0.5040c -0.3128,-0.0521 -0.7647,-0.1912 -0.7647 -0.7647c 0.0000,-0.4866 0.3824,-0.8864 0.9212 -0.8864ZM 563.9119,50.4725 ZM 568.3960,44.3025 c 0.0000,-0.1217 0.0174,-0.2607 0.1738 -0.3476c 0.1912,-0.1390 0.5040,-0.2955 0.7647 -0.2955c 0.2259,-0.0000 0.2433,0.1912 0.2433 0.5388v 2.7982 h 1.4078 l -0.1043,0.8169 h -1.3035 v 1.4426 c 0.0000,0.4866 0.0695,0.7300 0.5736 0.7300h 0.4693 c 0.1043,-0.0000 0.1217,0.0869 0.1217 0.1217v 0.3824 c 0.0000,-0.0000 -1.1123,-0.0348 -1.8423 -0.0348c -0.6605,-0.0000 -1.6859,0.0348 -1.6859 0.0348v -0.3824 c 0.0000,-0.0348 0.0174,-0.1217 0.1217 -0.1217h 0.4693 c 0.5388,-0.0000 0.5909,-0.2259 0.5909 -0.7300v -1.4426 h -3.4065 c -0.0695,-0.0000 -0.1043,-0.0348 -0.1564 -0.1043l -0.1390,-0.1912 l -0.2086,-0.3650 c -0.0174,-0.0000 -0.0174,-0.0174 -0.0174 -0.0348c 0.0000,-0.0174 0.0174,-0.0348 0.0348 -0.0521c 1.1297,-1.2514 3.1285,-5.1272 3.7542 -6.5524c 0.0174,-0.0695 0.0521,-0.0869 0.1217 -0.0869c 0.0174,-0.0000 0.3997,0.1564 0.6083 0.1912c -0.7821,2.1030 -2.0683,4.3625 -3.3370 6.3786h 2.7461 v -2.6940 Z"/></g><g stroke-linejoin="miter" stroke-opacity="1.0" fill-opacity="1.0" stroke="rgb(102,102,102)" stroke-width="0.0" fill="rgb(0,0,0)" stroke-linecap="butt" stroke-miterlimit="10.0"><path d="M 562.8821,59.3886 c 0.0000,-0.4823 -0.3910,-0.8734 -0.8734 -0.8734c -0.4823,-0.0000 -0.8734,0.3910 -0.8734 0.8734c -0.0000,0.4823 0.3910,0.8734 0.8734 0.8734c 0.4823,0.0000 0.8734,-0.3910 0.8734 -0.8734Z"/></g><g stroke-linejoin="miter" stroke-opacity="1.0" fill-opacity="0.33" stroke="rgb(0,0,0)" fill-rule="evenodd" stroke-width="0.0" fill="rgb(0,0,0)" stroke-linecap="butt" stroke-miterlimit="10.0"><path d="M 552.4930,85.4070 ZM 557.8635,82.4697 c 0.0000,-1.7902 -0.9733,-2.6766 -2.0509 -2.6766c -0.7995,-0.0000 -1.4078,0.1217 -2.0856 0.3997l 0.5562,-4.7448 c 0.5736,0.0521 1.1645,0.0695 1.7728 0.0695c 0.8690,-0.0000 1.7728,-0.0521 2.7113 -0.1564l 0.1043,0.0521 l -0.2607,1.1297 c -0.6778,0.0695 -1.2340,0.0869 -1.7207 0.0869c -0.7821,-0.0000 -1.3730,-0.0695 -1.9814 -0.1390l -0.3302,2.7461 c 0.3650,-0.1390 0.9907,-0.2607 1.6685 -0.2607c 1.8423,-0.0000 2.8678,1.5990 2.8678 3.1980c 0.0000,1.9466 -1.3557,3.4413 -3.3196 3.4413c -0.9907,-0.0000 -2.4332,-0.5562 -2.4332 -1.2340c 0.0000,-0.3302 0.2781,-0.5562 0.5909 -0.5562c 0.3476,-0.0000 0.5736,0.2607 0.7821 0.5388c 0.2607,0.3128 0.5388,0.6605 1.0950 0.6605c 1.1123,-0.0000 2.0335,-1.0428 2.0335 -2.5549ZM 560.1056,85.4070 ZM 561.9131,83.7559 c 0.6952,-0.0000 1.1471,0.6778 1.1471 1.7207c 0.0000,1.2166 -0.8690,1.7902 -1.9118 1.9814l -0.0869,-0.4345 c 0.9038,-0.2259 1.3209,-0.7474 1.3209 -1.1123c 0.0000,-0.3997 -0.2955,-0.4693 -0.6257 -0.5040c -0.3128,-0.0521 -0.7647,-0.1912 -0.7647 -0.7647c 0.0000,-0.4866 0.3824,-0.8864 0.9212 -0.8864ZM 563.9119,85.4070 ZM 567.6660,75.9000 c -0.4345,-0.0000 -1.7033,0.2433 -1.7033 1.3035c 0.0000,0.3128 -0.1217,0.8516 -0.5909 0.8516c -0.4519,-0.0000 -0.4866,-0.5040 -0.4866 -0.5562c 0.0000,-0.5388 0.7126,-2.1378 3.1285 -2.1378c 1.6859,-0.0000 2.1899,1.0602 2.1899 1.7554c 0.0000,0.4345 -0.1390,1.3035 -1.7033 2.2942c 0.9733,0.1564 2.2594,0.8690 2.2594 2.6766c 0.0000,2.2942 -1.7380,3.5282 -3.7020 3.5282c -0.9907,-0.0000 -2.3811,-0.4345 -2.3811 -1.0950c 0.0000,-0.2607 0.2607,-0.5562 0.6083 -0.5562c 0.3302,-0.0000 0.4866,0.1738 0.6431 0.3997c 0.1912,0.2955 0.5040,0.7126 1.3383 0.7126c 0.5736,-0.0000 2.2073,-0.5736 2.2073 -2.7635c 0.0000,-1.8597 -1.3035,-2.1552 -2.2421 -2.1552c -0.1564,-0.0000 -0.3476,0.0348 -0.5388 0.0695l -0.0695,-0.5214 c 1.3383,-0.2259 2.4506,-1.5295 2.4506 -2.3290c 0.0000,-0.9907 -0.6952,-1.4773 -1.4078 -1.4773Z"/></g><g stroke-linejoin="miter" stroke-opacity="1.0" fill-opacity="1.0" stroke="rgb(102,102,102)" stroke-width="0.0" fill="rgb(0,0,0)" stroke-linecap="butt" stroke-miterlimit="10.0"><path d="M 562.8821,94.3231 c 0.0000,-0.4823 -0.3910,-0.8734 -0.8734 -0.8734c -0.4823,-0.0000 -0.8734,0.3910 -0.8734 0.8734c -0.0000,0.4823 0.3910,0.8734 0.8734 0.8734c 0.4823,0.0000 0.8734,-0.3910 0.8734 -0.8734Z"/></g><g stroke-linejoin="miter" stroke-opacity="1.0" fill-opacity="0.33" stroke="rgb(0,0,0)" fill-rule="evenodd" stroke-width="0.0" fill="rgb(0,0,0)" stroke-linecap="butt" stroke-miterlimit="10.0"><path d="M 552.4930,120.3415 ZM 557.8635,117.4042 c 0.0000,-1.7902 -0.9733,-2.6766 -2.0509 -2.6766c -0.7995,-0.0000 -1.4078,0.1217 -2.0856 0.3997l 0.5562,-4.7448 c 0.5736,0.0521 1.1645,0.0695 1.7728 0.0695c 0.8690,-0.0000 1.7728,-0.0521 2.7113 -0.1564l 0.1043,0.0521 l -0.2607,1.1297 c -0.6778,0.0695 -1.2340,0.0869 -1.7207 0.0869c -0.7821,-0.0000 -1.3730,-0.0695 -1.9814 -0.1390l -0.3302,2.7461 c 0.3650,-0.1390 0.9907,-0.2607 1.6685 -0.2607c 1.8423,-0.0000 2.8678,1.5990 2.8678 3.1980c 0.0000,1.9466 -1.3557,3.4413 -3.3196 3.4413c -0.9907,-0.0000 -2.4332,-0.5562 -2.4332 -1.2340c 0.0000,-0.3302 0.2781,-0.5562 0.5909 -0.5562c 0.3476,-0.0000 0.5736,0.2607 0.7821 0.5388c 0.2607,0.3128 0.5388,0.6605 1.0950 0.6605c 1.1123,-0.0000 2.0335,-1.0428 2.0335 -2.5549ZM 560.1056,120.3415 ZM 561.9131,118.6904 c 0.6952,-0.0000 1.1471,0.6778 1.1471 1.7207c 0.0000,1.2166 -0.8690,1.7902 -1.9118 1.9814l -0.0869,-0.4345 c 0.9038,-0.2259 1.3209,-0.7474 1.3209 -1.1123c 0.0000,-0.3997 -0.2955,-0.4693 -0.6257 -0.5040c -0.3128,-0.0521 -0.7647,-0.1912 -0.7647 -0.7647c 0.0000,-0.4866 0.3824,-0.8864 0.9212 -0.8864ZM 563.9119,120.3415 ZM 564.9199,112.6420 c 0.0000,-0.9907 0.9559,-2.3463 2.7809 -2.3463c 1.3383,-0.0000 2.9025,0.5040 2.9025 2.5028c 0.0000,1.3209 -0.6778,1.9814 -1.6164 2.8851l -1.6511,1.5990 c -0.0869,0.0869 -1.2514,1.2340 -1.2514 2.0509h 2.9547 c 0.5909,-0.0000 0.9038,-0.2955 1.1471 -1.2514l 0.4345,0.0695 l -0.3476,2.1899 h -5.3705 c 0.0000,-0.9733 0.1564,-1.7207 1.7728 -3.3718l 1.2166,-1.1992 c 0.9733,-0.9907 1.3730,-1.8423 1.3730 -2.9025c 0.0000,-1.5816 -1.0776,-2.0335 -1.6685 -2.0335c -1.1992,-0.0000 -1.5295,0.6257 -1.5295 1.0428c 0.0000,0.1390 0.0348,0.2781 0.0695 0.3997c 0.0348,0.1217 0.0695,0.2433 0.0695 0.3824c 0.0000,0.4519 -0.3476,0.6257 -0.6257 0.6257c -0.3824,-0.0000 -0.6605,-0.2955 -0.6605 -0.6431Z"/></g><g stroke-linejoin="miter" stroke-opacity="1.0" fill-opacity="1.0" stroke="rgb(102,102,102)" stroke-width="0.0" fill="rgb(0,0,0)" stroke-linecap="butt" stroke-miterlimit="10.0"><path d="M 562.8821,129.2576 c 0.0000,-0.4823 -0.3910,-0.8734 -0.8734 -0.8734c -0.4823,-0.0000 -0.8734,0.3910 -0.8734 0.8734c -0.0000,0.4823 0.3910,0.8734 0.8734 0.8734c 0.4823,0.0000 0.8734,-0.3910 0.8734 -0.8734Z"/></g><g stroke-linejoin="miter" stroke-opacity="1.0" fill-opacity="0.33" stroke="rgb(0,0,0)" fill-rule="evenodd" stroke-width="0.0" fill="rgb(0,0,0)" stroke-linecap="butt" stroke-miterlimit="10.0"><path d="M 552.4930,155.2760 ZM 557.8635,152.3387 c 0.0000,-1.7902 -0.9733,-2.6766 -2.0509 -2.6766c -0.7995,-0.0000 -1.4078,0.1217 -2.0856 0.3997l 0.5562,-4.7448 c 0.5736,0.0521 1.1645,0.0695 1.7728 0.0695c 0.8690,-0.0000 1.7728,-0.0521 2.7113 -0.1564l 0.1043,0.0521 l -0.2607,1.1297 c -0.6778,0.0695 -1.2340,0.0869 -1.7207 0.0869c -0.7821,-0.0000 -1.3730,-0.0695 -1.9814 -0.1390l -0.3302,2.7461 c 0.3650,-0.1390 0.9907,-0.2607 1.6685 -0.2607c 1.8423,-0.0000 2.8678,1.5990 2.8678 3.1980c 0.0000,1.9466 -1.3557,3.4413 -3.3196 3.4413c -0.9907,-0.0000 -2.4332,-0.5562 -2.4332 -1.2340c 0.0000,-0.3302 0.2781,-0.5562 0.5909 -0.5562c 0.3476,-0.0000 0.5736,0.2607 0.7821 0.5388c 0.2607,0.3128 0.5388,0.6605 1.0950 0.6605c 1.1123,-0.0000 2.0335,-1.0428 2.0335 -2.5549ZM 560.1056,155.2760 ZM 561.9131,153.6249 c 0.6952,-0.0000 1.1471,0.6778 1.1471 1.7207c 0.0000,1.2166 -0.8690,1.7902 -1.9118 1.9814l -0.0869,-0.4345 c 0.9038,-0.2259 1.3209,-0.7474 1.3209 -1.1123c 0.0000,-0.3997 -0.2955,-0.4693 -0.6257 -0.5040c -0.3128,-0.0521 -0.7647,-0.1912 -0.7647 -0.7647c 0.0000,-0.4866 0.3824,-0.8864 0.9212 -0.8864ZM 563.9119,155.2760 ZM 567.1794,146.9856 c -0.3302,-0.0000 -1.0950,0.3128 -1.4773 0.4866l -0.2086,-0.5388 c 1.5295,-0.7126 2.1204,-1.0776 2.9894 -1.7033h 0.3302 v 8.7423 c 0.0000,0.6257 0.0869,0.7995 0.6605 0.7995h 0.9038 c 0.0521,-0.0000 0.1390,0.0348 0.1390 0.1390v 0.3824 l -2.3811,-0.0348 l -2.4159,0.0348 v -0.3824 c 0.0174,-0.0521 0.0348,-0.1390 0.1390 -0.1390h 1.0428 c 0.6605,-0.0000 0.6605,-0.2955 0.6605 -0.7995v -5.9788 c 0.0000,-0.5909 0.0000,-1.0081 -0.3824 -1.0081Z"/></g><g stroke-linejoin="miter" stroke-opacity="1.0" fill-opacity="1.0" stroke="rgb(102,102,102)" stroke-width="0.0" fill="rgb(0,0,0)" stroke-linecap="butt" stroke-miterlimit="10.0"><path d="M 562.8821,164.1921 c 0.0000,-0.4823 -0.3910,-0.8734 -0.8734 -0.8734c -0.4823,-0.0000 -0.8734,0.3910 -0.8734 0.8734c -0.0000,0.4823 0.3910,0.8734 0.8734 0.8734c 0.4823,0.0000 0.8734,-0.3910 0.8734 -0.8734Z"/></g><g stroke-linejoin="miter" stroke-opacity="1.0" fill-opacity="0.33" stroke="rgb(0,0,0)" fill-rule="evenodd" stroke-width="0.0" fill="rgb(0,0,0)" stroke-linecap="butt" stroke-miterlimit="10.0"><path d="M 552.4930,190.2105 ZM 557.8635,187.2732 c 0.0000,-1.7902 -0.9733,-2.6766 -2.0509 -2.6766c -0.7995,-0.0000 -1.4078,0.1217 -2.0856 0.3997l 0.5562,-4.7448 c 0.5736,0.0521 1.1645,0.0695 1.7728 0.0695c 0.8690,-0.0000 1.7728,-0.0521 2.7113 -0.1564l 0.1043,0.0521 l -0.2607,1.1297 c -0.6778,0.0695 -1.2340,0.0869 -1.7207 0.0869c -0.7821,-0.0000 -1.3730,-0.0695 -1.9814 -0.1390l -0.3302,2.7461 c 0.3650,-0.1390 0.9907,-0.2607 1.6685 -0.2607c 1.8423,-0.0000 2.8678,1.5990 2.8678 3.1980c 0.0000,1.9466 -1.3557,3.4413 -3.3196 3.4413c -0.9907,-0.0000 -2.4332,-0.5562 -2.4332 -1.2340c 0.0000,-0.3302 0.2781,-0.5562 0.5909 -0.5562c 0.3476,-0.0000 0.5736,0.2607 0.7821 0.5388c 0.2607,0.3128 0.5388,0.6605 1.0950 0.6605c 1.1123,-0.0000 2.0335,-1.0428 2.0335 -2.5549ZM 560.1056,190.2105 ZM 561.9131,188.5594 c 0.6952,-0.0000 1.1471,0.6778 1.1471 1.7207c 0.0000,1.2166 -0.8690,1.7902 -1.9118 1.9814l -0.0869,-0.4345 c 0.9038,-0.2259 1.3209,-0.7474 1.3209 -1.1123c 0.0000,-0.3997 -0.2955,-0.4693 -0.6257 -0.5040c -0.3128,-0.0521 -0.7647,-0.1912 -0.7647 -0.7647c 0.0000,-0.4866 0.3824,-0.8864 0.9212 -0.8864ZM 563.9119,190.2105 ZM 567.7182,180.7730 c -0.7474,-0.0000 -1.8423,0.7300 -1.8423 4.7796c 0.0000,1.4252 0.2607,4.2929 1.7902 4.2929c 0.2955,-0.0000 1.1297,-0.1912 1.4947 -1.5469c 0.2259,-0.8343 0.3476,-1.8771 0.3476 -3.3892c 0.0000,-2.2073 -0.5562,-3.4413 -1.0602 -3.8758c -0.1912,-0.1738 -0.4519,-0.2607 -0.7300 -0.2607ZM 567.7182,180.7730 ZM 567.6487,190.4191 c -1.8597,-0.0000 -3.1111,-2.3811 -3.1111 -5.0403c 0.0000,-3.2501 1.5469,-5.2141 3.1806 -5.2141c 0.7474,-0.0000 1.4947,0.4693 1.9987 1.1471c 0.7300,0.9733 1.1123,2.2768 1.1123 3.9106c 0.0000,3.8584 -1.9118,5.1967 -3.1806 5.1967Z"/></g><g stroke-linejoin="miter" stroke-opacity="1.0" fill-opacity="1.0" stroke="rgb(102,102,102)" stroke-width="0.0" fill="rgb(0,0,0)" stroke-linecap="butt" stroke-miterlimit="10.0"><path d="M 562.8821,199.1266 c 0.0000,-0.4823 -0.3910,-0.8734 -0.8734 -0.8734c -0.4823,-0.0000 -0.8734,0.3910 -0.8734 0.8734c -0.0000,0.4823 0.3910,0.8734 0.8734 0.8734c 0.4823,0.0000 0.8734,-0.3910 0.8734 -0.8734Z"/></g><g stroke-linejoin="miter" stroke-opacity="1.0" fill-opacity="0.33" stroke="rgb(0,0,0)" fill-rule="evenodd" stroke-width="0.0" fill="rgb(0,0,0)" stroke-linecap="butt" stroke-miterlimit="10.0"><path d="M 447.6895,15.5380 ZM 452.1736,9.3680 c 0.0000,-0.1217 0.0174,-0.2607 0.1738 -0.3476c 0.1912,-0.1390 0.5040,-0.2955 0.7647 -0.2955c 0.2259,-0.0000 0.2433,0.1912 0.2433 0.5388v 2.7982 h 1.4078 l -0.1043,0.8169 h -1.3035 v 1.4426 c 0.0000,0.4866 0.0695,0.7300 0.5736 0.7300h 0.4693 c 0.1043,-0.0000 0.1217,0.0869 0.1217 0.1217v 0.3824 c 0.0000,-0.0000 -1.1123,-0.0348 -1.8423 -0.0348c -0.6605,-0.0000 -1.6859,0.0348 -1.6859 0.0348v -0.3824 c 0.0000,-0.0348 0.0174,-0.1217 0.1217 -0.1217h 0.4693 c 0.5388,-0.0000 0.5909,-0.2259 0.5909 -0.7300v -1.4426 h -3.4065 c -0.0695,-0.0000 -0.1043,-0.0348 -0.1564 -0.1043l -0.1390,-0.1912 l -0.2086,-0.3650 c -0.0174,-0.0000 -0.0174,-0.0174 -0.0174 -0.0348c 0.0000,-0.0174 0.0174,-0.0348 0.0348 -0.0521c 1.1297,-1.2514 3.1285,-5.1272 3.7542 -6.5524c 0.0174,-0.0695 0.0521,-0.0869 0.1217 -0.0869c 0.0174,-0.0000 0.3997,0.1564 0.6083 0.1912c -0.7821,2.1030 -2.0683,4.3625 -3.3370 6.3786h 2.7461 v -2.6940 ZM 455.3021,15.5380 ZM 457.1096,13.8869 c 0.6952,-0.0000 1.1471,0.6778 1.1471 1.7207c 0.0000,1.2166 -0.8690,1.7902 -1.9118 1.9814l -0.0869,-0.4345 c 0.9038,-0.2259 1.3209,-0.7474 1.3209 -1.1123c 0.0000,-0.3997 -0.2955,-0.4693 -0.6257 -0.5040c -0.3128,-0.0521 -0.7647,-0.1912 -0.7647 -0.7647c 0.0000,-0.4866 0.3824,-0.8864 0.9212 -0.8864ZM 459.1084,15.5380 ZM 464.4789,12.6008 c 0.0000,-1.7902 -0.9733,-2.6766 -2.0509 -2.6766c -0.7995,-0.0000 -1.4078,0.1217 -2.0856 0.3997l 0.5562,-4.7448 c 0.5736,0.0521 1.1645,0.0695 1.7728 0.0695c 0.8690,-0.0000 1.7728,-0.0521 2.7113 -0.1564l 0.1043,0.0521 l -0.2607,1.1297 c -0.6778,0.0695 -1.2340,0.0869 -1.7207 0.0869c -0.7821,-0.0000 -1.3730,-0.0695 -1.9814 -0.1390l -0.3302,2.7461 c 0.3650,-0.1390 0.9907,-0.2607 1.6685 -0.2607c 1.8423,-0.0000 2.8678,1.5990 2.8678 3.1980c 0.0000,1.9466 -1.3557,3.4413 -3.3196 3.4413c -0.9907,-0.0000 -2.4332,-0.5562 -2.4332 -1.2340c 0.0000,-0.3302 0.2781,-0.5562 0.5909 -0.5562c 0.3476,-0.0000 0.5736,0.2607 0.7821 0.5388c 0.2607,0.3128 0.5388,0.6605 1.0950 0.6605c 1.1123,-0.0000 2.0335,-1.0428 2.0335 -2.5549Z"/></g><g stroke-linejoin="miter" stroke-opacity="1.0" fill-opacity="1.0" stroke="rgb(102,102,102)" stroke-width="0.0" fill="rgb(0,0,0)" stroke-linecap="butt" stroke-miterlimit="10.0"><path d="M 458.0786,24.4541 c 0.0000,-0.4823 -0.3910,-0.8734 -0.8734 -0.8734c -0.4823,-0.0000 -0.8734,0.3910 -0.8734 0.8734c -0.0000,0.4823 0.3910,0.8734 0.8734 0.8734c 0.4823,0.0000 0.8734,-0.3910 0.8734 -0.8734Z"/></g><g stroke-linejoin="miter" stroke-opacity="1.0" fill-opacity="0.33" stroke="rgb(0,0,0)" fill-rule="evenodd" stroke-width="0.0" fill="rgb(0,0,0)" stroke-linecap="butt" stroke-miterlimit="10.0"><path d="M 447.6895,50.4725 ZM 452.1736,44.3025 c 0.0000,-0.1217 0.0174,-0.2607 0.1738 -0.3476c 0.1912,-0.1390 0.5040,-0.2955 0.7647 -0.2955c 0.2259,-0.0000 0.2433,0.1912 0.2433 0.5388v 2.7982 h 1.4078 l -0.1043,0.8169 h -1.3035 v 1.4426 c 0.0000,0.4866 0.0695,0.7300 0.5736 0.7300h 0.4693 c 0.1043,-0.0000 0.1217,0.0869 0.1217 0.1217v 0.3824 c 0.0000,-0.0000 -1.1123,-0.0348 -1.8423 -0.0348c -0.6605,-0.0000 -1.6859,0.0348 -1.6859 0.0348v -0.3824 c 0.0000,-0.0348 0.0174,-0.1217 0.1217 -0.1217h 0.4693 c 0.5388,-0.0000 0.5909,-0.2259 0.5909 -0.7300v -1.4426 h -3.4065 c -0.0695,-0.0000 -0.1043,-0.0348 -0.1564 -0.1043l -0.1390,-0.1912 l -0.2086,-0.3650 c -0.0174,-0.0000 -0.0174,-0.0174 -0.0174 -0.0348c 0.0000,-0.0174 0.0174,-0.0348 0.0348 -0.0521c 1.1297,-1.2514 3.1285,-5.1272 3.7542 -6.5524c 0.0174,-0.0695 0.0521,-0.0869 0.1217 -0.0869c 0.0174,-0.0000 0.3997,0.1564 0.6083 0.1912c -0.7821,2.1030 -2.0683,4.3625 -3.3370 6.3786h 2.7461 v -2.6940 ZM 455.3021,50.4725 ZM 457.1096,48.8214 c 0.6952,-0.0000 1.1471,0.6778 1.1471 1.7207c 0.0000,1.2166 -0.8690,1.7902 -1.9118 1.9814l -0.0869,-0.4345 c 0.9038,-0.2259 1.3209,-0.7474 1.3209 -1.1123c 0.0000,-0.3997 -0.2955,-0.4693 -0.6257 -0.5040c -0.3128,-0.0521 -0.7647,-0.1912 -0.7647 -0.7647c 0.0000,-0.4866 0.3824,-0.8864 0.9212 -0.8864ZM 459.1084,50.4725 ZM 463.5925,44.3025 c 0.0000,-0.1217 0.0174,-0.2607 0.1738 -0.3476c 0.1912,-0.1390 0.5040,-0.2955 0.7647 -0.2955c 0.2259,-0.0000 0.2433,0.1912 0.2433 0.5388v 2.7982 h 1.4078 l -0.1043,0.8169 h -1.3035 v 1.4426 c 0.0000,0.4866 0.0695,0.7300 0.5736 0.7300h 0.4693 c 0.1043,-0.0000 0.1217,0.0869 0.1217 0.1217v 0.3824 c 0.0000,-0.0000 -1.1123,-0.0348 -1.8423 -0.0348c -0.6605,-0.0000 -1.6859,0.0348 -1.6859 0.0348v -0.3824 c 0.0000,-0.0348 0.0174,-0.1217 0.1217 -0.1217h 0.4693 c 0.5388,-0.0000 0.5909,-0.2259 0.5909 -0.7300v -1.4426 h -3.4065 c -0.0695,-0.0000 -0.1043,-0.0348 -0.1564 -0.1043l -0.1390,-0.1912 l -0.2086,-0.3650 c -0.0174,-0.0000 -0.0174,-0.0174 -0.0174 -0.0348c 0.0000,-0.0174 0.0174,-0.0348 0.0348 -0.0521c 1.1297,-1.2514 3.1285,-5.1272 3.7542 -6.5524c 0.0174,-0.0695 0.0521,-0.0869 0.1217 -0.0869c 0.0174,-0.0000 0.3997,0.1564 0.6083 0.1912c -0.7821,2.1030 -2.0683,4.3625 -3.3370 6.3786h 2.7461 v -2.6940 Z"/></g><g stroke-linejoin="miter" stroke-opacity="1.0" fill-opacity="1.0" stroke="rgb(102,102,102)" stroke-width="0.0" fill="rgb(0,0,0)" stroke-linecap="butt" stroke-miterlimit="10.0"><path d="M 458.0786,59.3886 c 0.0000,-0.4823 -0.3910,-0.8734 -0.8734 -0.8734c -0.4823,-0.0000 -0.8734,0.3910 -0.8734 0.8734c -0.0000,0.4823 0.3910,0.8734 0.8734 0.8734c 0.4823,0.0000 0.8734,-0.3910 0.8734 -0.8734Z"/></g><g stroke-linejoin="miter" stroke-opacity="1.0" fill-opacity="0.33" stroke="rgb(0,0,0)" fill-rule="evenodd" stroke-width="0.0" fill="rgb(0,0,0)" stroke-linecap="butt" stroke-miterlimit="10.0"><path d="M 447.6895,85.4070 ZM 452.1736,79.2370 c 0.0000,-0.1217 0.0174,-0.2607 0.1738 -0.3476c 0.1912,-0.1390 0.5040,-0.2955 0.7647 -0.2955c 0.2259,-0.0000 0.2433,0.1912 0.2433 0.5388v 2.7982 h 1.4078 l -0.1043,0.8169 h -1.3035 v 1.4426 c 0.0000,0.4866 0.0695,0.7300 0.5736 0.7300h 0.4693 c 0.1043,-0.0000 0.1217,0.0869 0.1217 0.1217v 0.3824 c 0.0000,-0.0000 -1.1123,-0.0348 -1.8423 -0.0348c -0.6605,-0.0000 -1.6859,0.0348 -1.6859 0.0348v -0.3824 c 0.0000,-0.0348 0.0174,-0.1217 0.1217 -0.1217h 0.4693 c 0.5388,-0.0000 0.5909,-0.2259 0.5909 -0.7300v -1.4426 h -3.4065 c -0.0695,-0.0000 -0.1043,-0.0348 -0.1564 -0.1043l -0.1390,-0.1912 l -0.2086,-0.3650 c -0.0174,-0.0000 -0.0174,-0.0174 -0.0174 -0.0348c 0.0000,-0.0174 0.0174,-0.0348 0.0348 -0.0521c 1.1297,-1.2514 3.1285,-5.1272 3.7542 -6.5524c 0.0174,-0.0695 0.0521,-0.0869 0.1217 -0.0869c 0.0174,-0.0000 0.3997,0.1564 0.6083 0.1912c -0.7821,2.1030 -2.0683,4.3625 -3.3370 6.3786h 2.7461 v -2.6940 ZM 455.3021,85.4070 ZM 457.1096,83.7559 c 0.6952,-0.0000 1.1471,0.6778 1.1471 1.7207c 0.0000,1.2166 -0.8690,1.7902 -1.9118 1.9814l -0.0869,-0.4345 c 0.9038,-0.2259 1.3209,-0.7474 1.3209 -1.1123c 0.0000,-0.3997 -0.2955,-0.4693 -0.6257 -0.5040c -0.3128,-0.0521 -0.7647,-0.1912 -0.7647 -0.7647c 0.0000,-0.4866 0.3824,-0.8864 0.9212 -0.8864ZM 459.1084,85.4070 ZM 462.8625,75.9000 c -0.4345,-0.0000 -1.7033,0.2433 -1.7033 1.3035c 0.0000,0.3128 -0.1217,0.8516 -0.5909 0.8516c -0.4519,-0.0000 -0.4866,-0.5040 -0.4866 -0.5562c 0.0000,-0.5388 0.7126,-2.1378 3.1285 -2.1378c 1.6859,-0.0000 2.1899,1.0602 2.1899 1.7554c 0.0000,0.4345 -0.1390,1.3035 -1.7033 2.2942c 0.9733,0.1564 2.2594,0.8690 2.2594 2.6766c 0.0000,2.2942 -1.7380,3.5282 -3.7020 3.5282c -0.9907,-0.0000 -2.3811,-0.4345 -2.3811 -1.0950c 0.0000,-0.2607 0.2607,-0.5562 0.6083 -0.5562c 0.3302,-0.0000 0.4866,0.1738 0.6431 0.3997c 0.1912,0.2955 0.5040,0.7126 1.3383 0.7126c 0.5736,-0.0000 2.2073,-0.5736 2.2073 -2.7635c 0.0000,-1.8597 -1.3035,-2.1552 -2.2421 -2.1552c -0.1564,-0.0000 -0.3476,0.0348 -0.5388 0.0695l -0.0695,-0.5214 c 1.3383,-0.2259 2.4506,-1.5295 2.4506 -2.3290c 0.0000,-0.9907 -0.6952,-1.4773 -1.4078 -1.4773Z"/></g><g stroke-linejoin="miter" stroke-opacity="1.0" fill-opacity="1.0" stroke="rgb(102,102,102)" stroke-width="0.0" fill="rgb(0,0,0)" stroke-linecap="butt" stroke-miterlimit="10.0"><path d="M 458.0786,94.3231 c 0.0000,-0.4823 -0.3910,-0.8734 -0.8734 -0.8734c -0.4823,-0.0000 -0.8734,0.3910 -0.8734 0.8734c -0.0000,0.4823 0.3910,0.8734 0.8734 0.8734c 0.4823,0.0000 0.8734,-0.3910 0.8734 -0.8734Z"/></g><g stroke-linejoin="miter" stroke-opacity="1.0" fill-opacity="0.33" stroke="rgb(0,0,0)" fill-rule="evenodd" stroke-width="0.0" fill="rgb(0,0,0)" stroke-linecap="butt" stroke-miterlimit="10.0"><path d="M 447.6895,120.3415 ZM 452.1736,114.1715 c 0.0000,-0.1217 0.0174,-0.2607 0.1738 -0.3476c 0.1912,-0.1390 0.5040,-0.2955 0.7647 -0.2955c 0.2259,-0.0000 0.2433,0.1912 0.2433 0.5388v 2.7982 h 1.4078 l -0.1043,0.8169 h -1.3035 v 1.4426 c 0.0000,0.4866 0.0695,0.7300 0.5736 0.7300h 0.4693 c 0.1043,-0.0000 0.1217,0.0869 0.1217 0.1217v 0.3824 c 0.0000,-0.0000 -1.1123,-0.0348 -1.8423 -0.0348c -0.6605,-0.0000 -1.6859,0.0348 -1.6859 0.0348v -0.3824 c 0.0000,-0.0348 0.0174,-0.1217 0.1217 -0.1217h 0.4693 c 0.5388,-0.0000 0.5909,-0.2259 0.5909 -0.7300v -1.4426 h -3.4065 c -0.0695,-0.0000 -0.1043,-0.0348 -0.1564 -0.1043l -0.1390,-0.1912 l -0.2086,-0.3650 c -0.0174,-0.0000 -0.0174,-0.0174 -0.0174 -0.0348c 0.0000,-0.0174 0.0174,-0.0348 0.0348 -0.0521c 1.1297,-1.2514 3.1285,-5.1272 3.7542 -6.5524c 0.0174,-0.0695 0.0521,-0.0869 0.1217 -0.0869c 0.0174,-0.0000 0.3997,0.1564 0.6083 0.1912c -0.7821,2.1030 -2.0683,4.3625 -3.3370 6.3786h 2.7461 v -2.6940 ZM 455.3021,120.3415 ZM 457.1096,118.6904 c 0.6952,-0.0000 1.1471,0.6778 1.1471 1.7207c 0.0000,1.2166 -0.8690,1.7902 -1.9118 1.9814l -0.0869,-0.4345 c 0.9038,-0.2259 1.3209,-0.7474 1.3209 -1.1123c 0.0000,-0.3997 -0.2955,-0.4693 -0.6257 -0.5040c -0.3128,-0.0521 -0.7647,-0.1912 -0.7647 -0.7647c 0.0000,-0.4866 0.3824,-0.8864 0.9212 -0.8864ZM 459.1084,120.3415 ZM 460.1164,112.6420 c 0.0000,-0.9907 0.9559,-2.3463 2.7809 -2.3463c 1.3383,-0.0000 2.9025,0.5040 2.9025 2.5028c 0.0000,1.3209 -0.6778,1.9814 -1.6164 2.8851l -1.6511,1.5990 c -0.0869,0.0869 -1.2514,1.2340 -1.2514 2.0509h 2.9547 c 0.5909,-0.0000 0.9038,-0.2955 1.1471 -1.2514l 0.4345,0.0695 l -0.3476,2.1899 h -5.3705 c 0.0000,-0.9733 0.1564,-1.7207 1.7728 -3.3718l 1.2166,-1.1992 c 0.9733,-0.9907 1.3730,-1.8423 1.3730 -2.9025c 0.0000,-1.5816 -1.0776,-2.0335 -1.6685 -2.0335c -1.1992,-0.0000 -1.5295,0.6257 -1.5295 1.0428c 0.0000,0.1390 0.0348,0.2781 0.0695 0.3997c 0.0348,0.1217 0.0695,0.2433 0.0695 0.3824c 0.0000,0.4519 -0.3476,0.6257 -0.6257 0.6257c -0.3824,-0.0000 -0.6605,-0.2955 -0.6605 -0.6431Z"/></g><g stroke-linejoin="miter" stroke-opacity="1.0" fill-opacity="1.0" stroke="rgb(102,102,102)" stroke-width="0.0" fill="rgb(0,0,0)" stroke-linecap="butt" stroke-miterlimit="10.0"><path d="M 458.0786,129.2576 c 0.0000,-0.4823 -0.3910,-0.8734 -0.8734 -0.8734c -0.4823,-0.0000 -0.8734,0.3910 -0.8734 0.8734c -0.0000,0.4823 0.3910,0.8734 0.8734 0.8734c 0.4823,0.0000 0.8734,-0.3910 0.8734 -0.8734Z"/></g><g stroke-linejoin="miter" stroke-opacity="1.0" fill-opacity="0.33" stroke="rgb(0,0,0)" fill-rule="evenodd" stroke-width="0.0" fill="rgb(0,0,0)" stroke-linecap="butt" stroke-miterlimit="10.0"><path d="M 447.6895,155.2760 ZM 452.1736,149.1060 c 0.0000,-0.1217 0.0174,-0.2607 0.1738 -0.3476c 0.1912,-0.1390 0.5040,-0.2955 0.7647 -0.2955c 0.2259,-0.0000 0.2433,0.1912 0.2433 0.5388v 2.7982 h 1.4078 l -0.1043,0.8169 h -1.3035 v 1.4426 c 0.0000,0.4866 0.0695,0.7300 0.5736 0.7300h 0.4693 c 0.1043,-0.0000 0.1217,0.0869 0.1217 0.1217v 0.3824 c 0.0000,-0.0000 -1.1123,-0.0348 -1.8423 -0.0348c -0.6605,-0.0000 -1.6859,0.0348 -1.6859 0.0348v -0.3824 c 0.0000,-0.0348 0.0174,-0.1217 0.1217 -0.1217h 0.4693 c 0.5388,-0.0000 0.5909,-0.2259 0.5909 -0.7300v -1.4426 h -3.4065 c -0.0695,-0.0000 -0.1043,-0.0348 -0.1564 -0.1043l -0.1390,-0.1912 l -0.2086,-0.3650 c -0.0174,-0.0000 -0.0174,-0.0174 -0.0174 -0.0348c 0.0000,-0.0174 0.0174,-0.0348 0.0348 -0.0521c 1.1297,-1.2514 3.1285,-5.1272 3.7542 -6.5524c 0.0174,-0.0695 0.0521,-0.0869 0.1217 -0.0869c 0.0174,-0.0000 0.3997,0.1564 0.6083 0.1912c -0.7821,2.1030 -2.0683,4.3625 -3.3370 6.3786h 2.7461 v -2.6940 ZM 455.3021,155.2760 ZM 457.1096,153.6249 c 0.6952,-0.0000 1.1471,0.6778 1.1471 1.7207c 0.0000,1.2166 -0.8690,1.7902 -1.9118 1.9814l -0.0869,-0.4345 c 0.9038,-0.2259 1.3209,-0.7474 1.3209 -1.1123c 0.0000,-0.3997 -0.2955,-0.4693 -0.6257 -0.5040c -0.3128,-0.0521 -0.7647,-0.1912 -0.7647 -0.7647c 0.0000,-0.4866 0.3824,-0.8864 0.9212 -0.8864ZM 459.1084,155.2760 ZM 462.3759,146.9856 c -0.3302,-0.0000 -1.0950,0.3128 -1.4773 0.4866l -0.2086,-0.5388 c 1.5295,-0.7126 2.1204,-1.0776 2.9894 -1.7033h 0.3302 v 8.7423 c 0.0000,0.6257 0.0869,0.7995 0.6605 0.7995h 0.9038 c 0.0521,-0.0000 0.1390,0.0348 0.1390 0.1390v 0.3824 l -2.3811,-0.0348 l -2.4159,0.0348 v -0.3824 c 0.0174,-0.0521 0.0348,-0.1390 0.1390 -0.1390h 1.0428 c 0.6605,-0.0000 0.6605,-0.2955 0.6605 -0.7995v -5.9788 c 0.0000,-0.5909 0.0000,-1.0081 -0.3824 -1.0081Z"/></g><g stroke-linejoin="miter" stroke-opacity="1.0" fill-opacity="1.0" stroke="rgb(102,102,102)" stroke-width="0.0" fill="rgb(0,0,0)" stroke-linecap="butt" stroke-miterlimit="10.0"><path d="M 458.0786,164.1921 c 0.0000,-0.4823 -0.3910,-0.8734 -0.8734 -0.8734c -0.4823,-0.0000 -0.8734,0.3910 -0.8734 0.8734c -0.0000,0.4823 0.3910,0.8734 0.8734 0.8734c 0.4823,0.0000 0.8734,-0.3910 0.8734 -0.8734Z"/></g><g stroke-linejoin="miter" stroke-opacity="1.0" fill-opacity="0.33" stroke="rgb(0,0,0)" fill-rule="evenodd" stroke-width="0.0" fill="rgb(0,0,0)" stroke-linecap="butt" stroke-miterlimit="10.0"><path d="M 447.6895,190.2105 ZM 452.1736,184.0405 c 0.0000,-0.1217 0.0174,-0.2607 0.1738 -0.3476c 0.1912,-0.1390 0.5040,-0.2955 0.7647 -0.2955c 0.2259,-0.0000 0.2433,0.1912 0.2433 0.5388v 2.7982 h 1.4078 l -0.1043,0.8169 h -1.3035 v 1.4426 c 0.0000,0.4866 0.0695,0.7300 0.5736 0.7300h 0.4693 c 0.1043,-0.0000 0.1217,0.0869 0.1217 0.1217v 0.3824 c 0.0000,-0.0000 -1.1123,-0.0348 -1.8423 -0.0348c -0.6605,-0.0000 -1.6859,0.0348 -1.6859 0.0348v -0.3824 c 0.0000,-0.0348 0.0174,-0.1217 0.1217 -0.1217h 0.4693 c 0.5388,-0.0000 0.5909,-0.2259 0.5909 -0.7300v -1.4426 h -3.4065 c -0.0695,-0.0000 -0.1043,-0.0348 -0.1564 -0.1043l -0.1390,-0.1912 l -0.2086,-0.3650 c -0.0174,-0.0000 -0.0174,-0.0174 -0.0174 -0.0348c 0.0000,-0.0174 0.0174,-0.0348 0.0348 -0.0521c 1.1297,-1.2514 3.1285,-5.1272 3.7542 -6.5524c 0.0174,-0.0695 0.0521,-0.0869 0.1217 -0.0869c 0.0174,-0.0000 0.3997,0.1564 0.6083 0.1912c -0.7821,2.1030 -2.0683,4.3625 -3.3370 6.3786h 2.7461 v -2.6940 ZM 455.3021,190.2105 ZM 457.1096,188.5594 c 0.6952,-0.0000 1.1471,0.6778 1.1471 1.7207c 0.0000,1.2166 -0.8690,1.7902 -1.9118 1.9814l -0.0869,-0.4345 c 0.9038,-0.2259 1.3209,-0.7474 1.3209 -1.1123c 0.0000,-0.3997 -0.2955,-0.4693 -0.6257 -0.5040c -0.3128,-0.0521 -0.7647,-0.1912 -0.7647 -0.7647c 0.0000,-0.4866 0.3824,-0.8864 0.9212 -0.8864ZM 459.1084,190.2105 ZM 462.9147,180.7730 c -0.7474,-0.0000 -1.8423,0.7300 -1.8423 4.7796c 0.0000,1.4252 0.2607,4.2929 1.7902 4.2929c 0.2955,-0.0000 1.1297,-0.1912 1.4947 -1.5469c 0.2259,-0.8343 0.3476,-1.8771 0.3476 -3.3892c 0.0000,-2.2073 -0.5562,-3.4413 -1.0602 -3.8758c -0.1912,-0.1738 -0.4519,-0.2607 -0.7300 -0.2607ZM 462.9147,180.7730 ZM 462.8452,190.4191 c -1.8597,-0.0000 -3.1111,-2.3811 -3.1111 -5.0403c 0.0000,-3.2501 1.5469,-5.2141 3.1806 -5.2141c 0.7474,-0.0000 1.4947,0.4693 1.9987 1.1471c 0.7300,0.9733 1.1123,2.2768 1.1123 3.9106c 0.0000,3.8584 -1.9118,5.1967 -3.1806 5.1967Z"/></g><g stroke-linejoin="miter" stroke-opacity="1.0" fill-opacity="1.0" stroke="rgb(102,102,102)" stroke-width="0.0" fill="rgb(0,0,0)" stroke-linecap="butt" stroke-miterlimit="10.0"><path d="M 458.0786,199.1266 c 0.0000,-0.4823 -0.3910,-0.8734 -0.8734 -0.8734c -0.4823,-0.0000 -0.8734,0.3910 -0.8734 0.8734c -0.0000,0.4823 0.3910,0.8734 0.8734 0.8734c 0.4823,0.0000 0.8734,-0.3910 0.8734 -0.8734Z"/></g><g stroke-linejoin="miter" stroke-opacity="1.0" fill-opacity="0.33" stroke="rgb(0,0,0)" fill-rule="evenodd" stroke-width="0.0" fill="rgb(0,0,0)" stroke-linecap="butt" stroke-miterlimit="10.0"><path d="M 342.8860,15.5380 ZM 346.6402,6.0310 c -0.4345,-0.0000 -1.7033,0.2433 -1.7033 1.3035c 0.0000,0.3128 -0.1217,0.8516 -0.5909 0.8516c -0.4519,-0.0000 -0.4866,-0.5040 -0.4866 -0.5562c 0.0000,-0.5388 0.7126,-2.1378 3.1285 -2.1378c 1.6859,-0.0000 2.1899,1.0602 2.1899 1.7554c 0.0000,0.4345 -0.1390,1.3035 -1.7033 2.2942c 0.9733,0.1564 2.2594,0.8690 2.2594 2.6766c 0.0000,2.2942 -1.7380,3.5282 -3.7020 3.5282c -0.9907,-0.0000 -2.3811,-0.4345 -2.3811 -1.0950c 0.0000,-0.2607 0.2607,-0.5562 0.6083 -0.5562c 0.3302,-0.0000 0.4866,0.1738 0.6431 0.3997c 0.1912,0.2955 0.5040,0.7126 1.3383 0.7126c 0.5736,-0.0000 2.2073,-0.5736 2.2073 -2.7635c 0.0000,-1.8597 -1.3035,-2.1552 -2.2421 -2.1552c -0.1564,-0.0000 -0.3476,0.0348 -0.5388 0.0695l -0.0695,-0.5214 c 1.3383,-0.2259 2.4506,-1.5295 2.4506 -2.3290c 0.0000,-0.9907 -0.6952,-1.4773 -1.4078 -1.4773ZM 350.4986,15.5380 ZM 352.3062,13.8869 c 0.6952,-0.0000 1.1471,0.6778 1.1471 1.7207c 0.0000,1.2166 -0.8690,1.7902 -1.9118 1.9814l -0.0869,-0.4345 c 0.9038,-0.2259 1.3209,-0.7474 1.3209 -1.1123c 0.0000,-0.3997 -0.2955,-0.4693 -0.6257 -0.5040c -0.3128,-0.0521 -0.7647,-0.1912 -0.7647 -0.7647c 0.0000,-0.4866 0.3824,-0.8864 0.9212 -0.8864ZM 354.3049,15.5380 ZM 359.6754,12.6008 c 0.0000,-1.7902 -0.9733,-2.6766 -2.0509 -2.6766c -0.7995,-0.0000 -1.4078,0.1217 -2.0856 0.3997l 0.5562,-4.7448 c 0.5736,0.0521 1.1645,0.0695 1.7728 0.0695c 0.8690,-0.0000 1.7728,-0.0521 2.7113 -0.1564l 0.1043,0.0521 l -0.2607,1.1297 c -0.6778,0.0695 -1.2340,0.0869 -1.7207 0.0869c -0.7821,-0.0000 -1.3730,-0.0695 -1.9814 -0.1390l -0.3302,2.7461 c 0.3650,-0.1390 0.9907,-0.2607 1.6685 -0.2607c 1.8423,-0.0000 2.8678,1.5990 2.8678 3.1980c 0.0000,1.9466 -1.3557,3.4413 -3.3196 3.4413c -0.9907,-0.0000 -2.4332,-0.5562 -2.4332 -1.2340c 0.0000,-0.3302 0.2781,-0.5562 0.5909 -0.5562c 0.3476,-0.0000 0.5736,0.2607 0.7821 0.5388c 0.2607,0.3128 0.5388,0.6605 1.0950 0.6605c 1.1123,-0.0000 2.0335,-1.0428 2.0335 -2.5549Z"/></g><g stroke-linejoin="miter" stroke-opacity="1.0" fill-opacity="1.0" stroke="rgb(102,102,102)" stroke-width="0.0" fill="rgb(0,0,0)" stroke-linecap="butt" stroke-miterlimit="10.0"><path d="M 353.2751,24.4541 c 0.0000,-0.4823 -0.3910,-0.8734 -0.8734 -0.8734c -0.4823,-0.0000 -0.8734,0.3910 -0.8734 0.8734c -0.0000,0.4823 0.3910,0.8734 0.8734 0.8734c 0.4823,0.0000 0.8734,-0.3910 0.8734 -0.8734Z"/></g><g stroke-linejoin="miter" stroke-opacity="1.0" fill-opacity="0.33" stroke="rgb(0,0,0)" fill-rule="evenodd" stroke-width="0.0" fill="rgb(0,0,0)" stroke-linecap="butt" stroke-miterlimit="10.0"><path d="M 342.8860,50.4725 ZM 346.6402,40.9655 c -0.4345,-0.0000 -1.7033,0.2433 -1.7033 1.3035c 0.0000,0.3128 -0.1217,0.8516 -0.5909 0.8516c -0.4519,-0.0000 -0.4866,-0.5040 -0.4866 -0.5562c 0.0000,-0.5388 0.7126,-2.1378 3.1285 -2.1378c 1.6859,-0.0000 2.1899,1.0602 2.1899 1.7554c 0.0000,0.4345 -0.1390,1.3035 -1.7033 2.2942c 0.9733,0.1564 2.2594,0.8690 2.2594 2.6766c 0.0000,2.2942 -1.7380,3.5282 -3.7020 3.5282c -0.9907,-0.0000 -2.3811,-0.4345 -2.3811 -1.0950c 0.0000,-0.2607 0.2607,-0.5562 0.6083 -0.5562c 0.3302,-0.0000 0.4866,0.1738 0.6431 0.3997c 0.1912,0.2955 0.5040,0.7126 1.3383 0.7126c 0.5736,-0.0000 2.2073,-0.5736 2.2073 -2.7635c 0.0000,-1.8597 -1.3035,-2.1552 -2.2421 -2.1552c -0.1564,-0.0000 -0.3476,0.0348 -0.5388 0.0695l -0.0695,-0.5214 c 1.3383,-0.2259 2.4506,-1.5295 2.4506 -2.3290c 0.0000,-0.9907 -0.6952,-1.4773 -1.4078 -1.4773ZM 350.4986,50.4725 ZM 352.3062,48.8214 c 0.6952,-0.0000 1.1471,0.6778 1.1471 1.7207c 0.0000,1.2166 -0.8690,1.7902 -1.9118 1.9814l -0.0869,-0.4345 c 0.9038,-0.2259 1.3209,-0.7474 1.3209 -1.1123c 0.0000,-0.3997 -0.2955,-0.4693 -0.6257 -0.5040c -0.3128,-0.0521 -0.7647,-0.1912 -0.7647 -0.7647c 0.0000,-0.4866 0.3824,-0.8864 0.9212 -0.8864ZM 354.3049,50.4725 ZM 358.7890,44.3025 c 0.0000,-0.1217 0.0174,-0.2607 0.1738 -0.3476c 0.1912,-0.1390 0.5040,-0.2955 0.7647 -0.2955c 0.2259,-0.0000 0.2433,0.1912 0.2433 0.5388v 2.7982 h 1.4078 l -0.1043,0.8169 h -1.3035 v 1.4426 c 0.0000,0.4866 0.0695,0.7300 0.5736 0.7300h 0.4693 c 0.1043,-0.0000 0.1217,0.0869 0.1217 0.1217v 0.3824 c 0.0000,-0.0000 -1.1123,-0.0348 -1.8423 -0.0348c -0.6605,-0.0000 -1.6859,0.0348 -1.6859 0.0348v -0.3824 c 0.0000,-0.0348 0.0174,-0.1217 0.1217 -0.1217h 0.4693 c 0.5388,-0.0000 0.5909,-0.2259 0.5909 -0.7300v -1.4426 h -3.4065 c -0.0695,-0.0000 -0.1043,-0.0348 -0.1564 -0.1043l -0.1390,-0.1912 l -0.2086,-0.3650 c -0.0174,-0.0000 -0.0174,-0.0174 -0.0174 -0.0348c 0.0000,-0.0174 0.0174,-0.0348 0.0348 -0.0521c 1.1297,-1.2514 3.1285,-5.1272 3.7542 -6.5524c 0.0174,-0.0695 0.0521,-0.0869 0.1217 -0.0869c 0.0174,-0.0000 0.3997,0.1564 0.6083 0.1912c -0.7821,2.1030 -2.0683,4.3625 -3.3370 6.3786h 2.7461 v -2.6940 Z"/></g><g stroke-linejoin="miter" stroke-opacity="1.0" fill-opacity="1.0" stroke="rgb(102,102,102)" stroke-width="0.0" fill="rgb(0,0,0)" stroke-linecap="butt" stroke-miterlimit="10.0"><path d="M 353.2751,59.3886 c 0.0000,-0.4823 -0.3910,-0.8734 -0.8734 -0.8734c -0.4823,-0.0000 -0.8734,0.3910 -0.8734 0.8734c -0.0000,0.4823 0.3910,0.8734 0.8734 0.8734c 0.4823,0.0000 0.8734,-0.3910 0.8734 -0.8734Z"/></g><g stroke-linejoin="miter" stroke-opacity="1.0" fill-opacity="0.33" stroke="rgb(0,0,0)" fill-rule="evenodd" stroke-width="0.0" fill="rgb(0,0,0)" stroke-linecap="butt" stroke-miterlimit="10.0"><path d="M 342.8860,85.4070 ZM 346.6402,75.9000 c -0.4345,-0.0000 -1.7033,0.2433 -1.7033 1.3035c 0.0000,0.3128 -0.1217,0.8516 -0.5909 0.8516c -0.4519,-0.0000 -0.4866,-0.5040 -0.4866 -0.5562c 0.0000,-0.5388 0.7126,-2.1378 3.1285 -2.1378c 1.6859,-0.0000 2.1899,1.0602 2.1899 1.7554c 0.0000,0.4345 -0.1390,1.3035 -1.7033 2.2942c 0.9733,0.1564 2.2594,0.8690 2.2594 2.6766c 0.0000,2.2942 -1.7380,3.5282 -3.7020 3.5282c -0.9907,-0.0000 -2.3811,-0.4345 -2.3811 -1.0950c 0.0000,-0.2607 0.2607,-0.5562 0.6083 -0.5562c 0.3302,-0.0000 0.4866,0.1738 0.6431 0.3997c 0.1912,0.2955 0.5040,0.7126 1.3383 0.7126c 0.5736,-0.0000 2.2073,-0.5736 2.2073 -2.7635c 0.0000,-1.8597 -1.3035,-2.1552 -2.2421 -2.1552c -0.1564,-0.0000 -0.3476,0.0348 -0.5388 0.0695l -0.0695,-0.5214 c 1.3383,-0.2259 2.4506,-1.5295 2.4506 -2.3290c 0.0000,-0.9907 -0.6952,-1.4773 -1.4078 -1.4773ZM 350.4986,85.4070 ZM 352.3062,83.7559 c 0.6952,-0.0000 1.1471,0.6778 1.1471 1.7207c 0.0000,1.2166 -0.8690,1.7902 -1.9118 1.9814l -0.0869,-0.4345 c 0.9038,-0.2259 1.3209,-0.7474 1.3209 -1.1123c 0.0000,-0.3997 -0.2955,-0.4693 -0.6257 -0.5040c -0.3128,-0.0521 -0.7647,-0.1912 -0.7647 -0.7647c 0.0000,-0.4866 0.3824,-0.8864 0.9212 -0.8864ZM 354.3049,85.4070 ZM 358.0590,75.9000 c -0.4345,-0.0000 -1.7033,0.2433 -1.7033 1.3035c 0.0000,0.3128 -0.1217,0.8516 -0.5909 0.8516c -0.4519,-0.0000 -0.4866,-0.5040 -0.4866 -0.5562c 0.0000,-0.5388 0.7126,-2.1378 3.1285 -2.1378c 1.6859,-0.0000 2.1899,1.0602 2.1899 1.7554c 0.0000,0.4345 -0.1390,1.3035 -1.7033 2.2942c 0.9733,0.1564 2.2594,0.8690 2.2594 2.6766c 0.0000,2.2942 -1.7380,3.5282 -3.7020 3.5282c -0.9907,-0.0000 -2.3811,-0.4345 -2.3811 -1.0950c 0.0000,-0.2607 0.2607,-0.5562 0.6083 -0.5562c 0.3302,-0.0000 0.4866,0.1738 0.6431 0.3997c 0.1912,0.2955 0.5040,0.7126 1.3383 0.7126c 0.5736,-0.0000 2.2073,-0.5736 2.2073 -2.7635c 0.0000,-1.8597 -1.3035,-2.1552 -2.2421 -2.1552c -0.1564,-0.0000 -0.3476,0.0348 -0.5388 0.0695l -0.0695,-0.5214 c 1.3383,-0.2259 2.4506,-1.5295 2.4506 -2.3290c 0.0000,-0.9907 -0.6952,-1.4773 -1.4078 -1.4773Z"/></g><g stroke-linejoin="miter" stroke-opacity="1.0" fill-opacity="1.0" stroke="rgb(102,102,102)" stroke-width="0.0" fill="rgb(0,0,0)" stroke-linecap="butt" stroke-miterlimit="10.0"><path d="M 353.2751,94.3231 c 0.0000,-0.4823 -0.3910,-0.8734 -0.8734 -0.8734c -0.4823,-0.0000 -0.8734,0.3910 -0.8734 0.8734c -0.0000,0.4823 0.3910,0.8734 0.8734 0.8734c 0.4823,0.0000 0.8734,-0.3910 0.8734 -0.8734Z"/></g><g stroke-linejoin="miter" stroke-opacity="1.0" fill-opacity="0.33" stroke="rgb(0,0,0)" fill-rule="evenodd" stroke-width="0.0" fill="rgb(0,0,0)" stroke-linecap="butt" stroke-miterlimit="10.0"><path d="M 342.8860,120.3415 ZM 346.6402,110.8345 c -0.4345,-0.0000 -1.7033,0.2433 -1.7033 1.3035c 0.0000,0.3128 -0.1217,0.8516 -0.5909 0.8516c -0.4519,-0.0000 -0.4866,-0.5040 -0.4866 -0.5562c 0.0000,-0.5388 0.7126,-2.1378 3.1285 -2.1378c 1.6859,-0.0000 2.1899,1.0602 2.1899 1.7554c 0.0000,0.4345 -0.1390,1.3035 -1.7033 2.2942c 0.9733,0.1564 2.2594,0.8690 2.2594 2.6766c 0.0000,2.2942 -1.7380,3.5282 -3.7020 3.5282c -0.9907,-0.0000 -2.3811,-0.4345 -2.3811 -1.0950c 0.0000,-0.2607 0.2607,-0.5562 0.6083 -0.5562c 0.3302,-0.0000 0.4866,0.1738 0.6431 0.3997c 0.1912,0.2955 0.5040,0.7126 1.3383 0.7126c 0.5736,-0.0000 2.2073,-0.5736 2.2073 -2.7635c 0.0000,-1.8597 -1.3035,-2.1552 -2.2421 -2.1552c -0.1564,-0.0000 -0.3476,0.0348 -0.5388 0.0695l -0.0695,-0.5214 c 1.3383,-0.2259 2.4506,-1.5295 2.4506 -2.3290c 0.0000,-0.9907 -0.6952,-1.4773 -1.4078 -1.4773ZM 350.4986,120.3415 ZM 352.3062,118.6904 c 0.6952,-0.0000 1.1471,0.6778 1.1471 1.7207c 0.0000,1.2166 -0.8690,1.7902 -1.9118 1.9814l -0.0869,-0.4345 c 0.9038,-0.2259 1.3209,-0.7474 1.3209 -1.1123c 0.0000,-0.3997 -0.2955,-0.4693 -0.6257 -0.5040c -0.3128,-0.0521 -0.7647,-0.1912 -0.7647 -0.7647c 0.0000,-0.4866 0.3824,-0.8864 0.9212 -0.8864ZM 354.3049,120.3415 ZM 355.3130,112.6420 c 0.0000,-0.9907 0.9559,-2.3463 2.7809 -2.3463c 1.3383,-0.0000 2.9025,0.5040 2.9025 2.5028c 0.0000,1.3209 -0.6778,1.9814 -1.6164 2.8851l -1.6511,1.5990 c -0.0869,0.0869 -1.2514,1.2340 -1.2514 2.0509h 2.9547 c 0.5909,-0.0000 0.9038,-0.2955 1.1471 -1.2514l 0.4345,0.0695 l -0.3476,2.1899 h -5.3705 c 0.0000,-0.9733 0.1564,-1.7207 1.7728 -3.3718l 1.2166,-1.1992 c 0.9733,-0.9907 1.3730,-1.8423 1.3730 -2.9025c 0.0000,-1.5816 -1.0776,-2.0335 -1.6685 -2.0335c -1.1992,-0.0000 -1.5295,0.6257 -1.5295 1.0428c 0.0000,0.1390 0.0348,0.2781 0.0695 0.3997c 0.0348,0.1217 0.0695,0.2433 0.0695 0.3824c 0.0000,0.4519 -0.3476,0.6257 -0.6257 0.6257c -0.3824,-0.0000 -0.6605,-0.2955 -0.6605 -0.6431Z"/></g><g stroke-linejoin="miter" stroke-opacity="1.0" fill-opacity="1.0" stroke="rgb(102,102,102)" stroke-width="0.0" fill="rgb(0,0,0)" stroke-linecap="butt" stroke-miterlimit="10.0"><path d="M 353.2751,129.2576 c 0.0000,-0.4823 -0.3910,-0.8734 -0.8734 -0.8734c -0.4823,-0.0000 -0.8734,0.3910 -0.8734 0.8734c -0.0000,0.4823 0.3910,0.8734 0.8734 0.8734c 0.4823,0.0000 0.8734,-0.3910 0.8734 -0.8734Z"/></g><g stroke-linejoin="miter" stroke-opacity="1.0" fill-opacity="0.33" stroke="rgb(0,0,0)" fill-rule="evenodd" stroke-width="0.0" fill="rgb(0,0,0)" stroke-linecap="butt" stroke-miterlimit="10.0"><path d="M 342.8860,155.2760 ZM 346.6402,145.7690 c -0.4345,-0.0000 -1.7033,0.2433 -1.7033 1.3035c 0.0000,0.3128 -0.1217,0.8516 -0.5909 0.8516c -0.4519,-0.0000 -0.4866,-0.5040 -0.4866 -0.5562c 0.0000,-0.5388 0.7126,-2.1378 3.1285 -2.1378c 1.6859,-0.0000 2.1899,1.0602 2.1899 1.7554c 0.0000,0.4345 -0.1390,1.3035 -1.7033 2.2942c 0.9733,0.1564 2.2594,0.8690 2.2594 2.6766c 0.0000,2.2942 -1.7380,3.5282 -3.7020 3.5282c -0.9907,-0.0000 -2.3811,-0.4345 -2.3811 -1.0950c 0.0000,-0.2607 0.2607,-0.5562 0.6083 -0.5562c 0.3302,-0.0000 0.4866,0.1738 0.6431 0.3997c 0.1912,0.2955 0.5040,0.7126 1.3383 0.7126c 0.5736,-0.0000 2.2073,-0.5736 2.2073 -2.7635c 0.0000,-1.8597 -1.3035,-2.1552 -2.2421 -2.1552c -0.1564,-0.0000 -0.3476,0.0348 -0.5388 0.0695l -0.0695,-0.5214 c 1.3383,-0.2259 2.4506,-1.5295 2.4506 -2.3290c 0.0000,-0.9907 -0.6952,-1.4773 -1.4078 -1.4773ZM 350.4986,155.2760 ZM 352.3062,153.6249 c 0.6952,-0.0000 1.1471,0.6778 1.1471 1.7207c 0.0000,1.2166 -0.8690,1.7902 -1.9118 1.9814l -0.0869,-0.4345 c 0.9038,-0.2259 1.3209,-0.7474 1.3209 -1.1123c 0.0000,-0.3997 -0.2955,-0.4693 -0.6257 -0.5040c -0.3128,-0.0521 -0.7647,-0.1912 -0.7647 -0.7647c 0.0000,-0.4866 0.3824,-0.8864 0.9212 -0.8864ZM 354.3049,155.2760 ZM 357.5724,146.9856 c -0.3302,-0.0000 -1.0950,0.3128 -1.4773 0.4866l -0.2086,-0.5388 c 1.5295,-0.7126 2.1204,-1.0776 2.9894 -1.7033h 0.3302 v 8.7423 c 0.0000,0.6257 0.0869,0.7995 0.6605 0.7995h 0.9038 c 0.0521,-0.0000 0.1390,0.0348 0.1390 0.1390v 0.3824 l -2.3811,-0.0348 l -2.4159,0.0348 v -0.3824 c 0.0174,-0.0521 0.0348,-0.1390 0.1390 -0.1390h 1.0428 c 0.6605,-0.0000 0.6605,-0.2955 0.6605 -0.7995v -5.9788 c 0.0000,-0.5909 0.0000,-1.0081 -0.3824 -1.0081Z"/></g><g stroke-linejoin="miter" stroke-opacity="1.0" fill-opacity="1.0" stroke="rgb(102,102,102)" stroke-width="0.0" fill="rgb(0,0,0)" stroke-linecap="butt" stroke-miterlimit="10.0"><path d="M 353.2751,164.1921 c 0.0000,-0.4823 -0.3910,-0.8734 -0.8734 -0.8734c -0.4823,-0.0000 -0.8734,0.3910 -0.8734 0.8734c -0.0000,0.4823 0.3910,0.8734 0.8734 0.8734c 0.4823,0.0000 0.8734,-0.3910 0.8734 -0.8734Z"/></g><g stroke-linejoin="miter" stroke-opacity="1.0" fill-opacity="0.33" stroke="rgb(0,0,0)" fill-rule="evenodd" stroke-width="0.0" fill="rgb(0,0,0)" stroke-linecap="butt" stroke-miterlimit="10.0"><path d="M 342.8860,190.2105 ZM 346.6402,180.7035 c -0.4345,-0.0000 -1.7033,0.2433 -1.7033 1.3035c 0.0000,0.3128 -0.1217,0.8516 -0.5909 0.8516c -0.4519,-0.0000 -0.4866,-0.5040 -0.4866 -0.5562c 0.0000,-0.5388 0.7126,-2.1378 3.1285 -2.1378c 1.6859,-0.0000 2.1899,1.0602 2.1899 1.7554c 0.0000,0.4345 -0.1390,1.3035 -1.7033 2.2942c 0.9733,0.1564 2.2594,0.8690 2.2594 2.6766c 0.0000,2.2942 -1.7380,3.5282 -3.7020 3.5282c -0.9907,-0.0000 -2.3811,-0.4345 -2.3811 -1.0950c 0.0000,-0.2607 0.2607,-0.5562 0.6083 -0.5562c 0.3302,-0.0000 0.4866,0.1738 0.6431 0.3997c 0.1912,0.2955 0.5040,0.7126 1.3383 0.7126c 0.5736,-0.0000 2.2073,-0.5736 2.2073 -2.7635c 0.0000,-1.8597 -1.3035,-2.1552 -2.2421 -2.1552c -0.1564,-0.0000 -0.3476,0.0348 -0.5388 0.0695l -0.0695,-0.5214 c 1.3383,-0.2259 2.4506,-1.5295 2.4506 -2.3290c 0.0000,-0.9907 -0.6952,-1.4773 -1.4078 -1.4773ZM 350.4986,190.2105 ZM 352.3062,188.5594 c 0.6952,-0.0000 1.1471,0.6778 1.1471 1.7207c 0.0000,1.2166 -0.8690,1.7902 -1.9118 1.9814l -0.0869,-0.4345 c 0.9038,-0.2259 1.3209,-0.7474 1.3209 -1.1123c 0.0000,-0.3997 -0.2955,-0.4693 -0.6257 -0.5040c -0.3128,-0.0521 -0.7647,-0.1912 -0.7647 -0.7647c 0.0000,-0.4866 0.3824,-0.8864 0.9212 -0.8864ZM 354.3049,190.2105 ZM 358.1112,180.7730 c -0.7474,-0.0000 -1.8423,0.7300 -1.8423 4.7796c 0.0000,1.4252 0.2607,4.2929 1.7902 4.2929c 0.2955,-0.0000 1.1297,-0.1912 1.4947 -1.5469c 0.2259,-0.8343 0.3476,-1.8771 0.3476 -3.3892c 0.0000,-2.2073 -0.5562,-3.4413 -1.0602 -3.8758c -0.1912,-0.1738 -0.4519,-0.2607 -0.7300 -0.2607ZM 358.1112,180.7730 ZM 358.0417,190.4191 c -1.8597,-0.0000 -3.1111,-2.3811 -3.1111 -5.0403c 0.0000,-3.2501 1.5469,-5.2141 3.1806 -5.2141c 0.7474,-0.0000 1.4947,0.4693 1.9987 1.1471c 0.7300,0.9733 1.1123,2.2768 1.1123 3.9106c 0.0000,3.8584 -1.9118,5.1967 -3.1806 5.1967Z"/></g><g stroke-linejoin="miter" stroke-opacity="1.0" fill-opacity="1.0" stroke="rgb(102,102,102)" stroke-width="0.0" fill="rgb(0,0,0)" stroke-linecap="butt" stroke-miterlimit="10.0"><path d="M 353.2751,199.1266 c 0.0000,-0.4823 -0.3910,-0.8734 -0.8734 -0.8734c -0.4823,-0.0000 -0.8734,0.3910 -0.8734 0.8734c -0.0000,0.4823 0.3910,0.8734 0.8734 0.8734c 0.4823,0.0000 0.8734,-0.3910 0.8734 -0.8734Z"/></g><g stroke-linejoin="miter" stroke-opacity="1.0" fill-opacity="0.33" stroke="rgb(0,0,0)" fill-rule="evenodd" stroke-width="0.0" fill="rgb(0,0,0)" stroke-linecap="butt" stroke-miterlimit="10.0"><path d="M 238.0825,15.5380 ZM 239.0906,7.8385 c 0.0000,-0.9907 0.9559,-2.3463 2.7809 -2.3463c 1.3383,-0.0000 2.9025,0.5040 2.9025 2.5028c 0.0000,1.3209 -0.6778,1.9814 -1.6164 2.8851l -1.6511,1.5990 c -0.0869,0.0869 -1.2514,1.2340 -1.2514 2.0509h 2.9547 c 0.5909,-0.0000 0.9038,-0.2955 1.1471 -1.2514l 0.4345,0.0695 l -0.3476,2.1899 h -5.3705 c 0.0000,-0.9733 0.1564,-1.7207 1.7728 -3.3718l 1.2166,-1.1992 c 0.9733,-0.9907 1.3730,-1.8423 1.3730 -2.9025c 0.0000,-1.5816 -1.0776,-2.0335 -1.6685 -2.0335c -1.1992,-0.0000 -1.5295,0.6257 -1.5295 1.0428c 0.0000,0.1390 0.0348,0.2781 0.0695 0.3997c 0.0348,0.1217 0.0695,0.2433 0.0695 0.3824c 0.0000,0.4519 -0.3476,0.6257 -0.6257 0.6257c -0.3824,-0.0000 -0.6605,-0.2955 -0.6605 -0.6431ZM 245.6951,15.5380 ZM 247.5027,13.8869 c 0.6952,-0.0000 1.1471,0.6778 1.1471 1.7207c 0.0000,1.2166 -0.8690,1.7902 -1.9118 1.9814l -0.0869,-0.4345 c 0.9038,-0.2259 1.3209,-0.7474 1.3209 -1.1123c 0.0000,-0.3997 -0.2955,-0.4693 -0.6257 -0.5040c -0.3128,-0.0521 -0.7647,-0.1912 -0.7647 -0.7647c 0.0000,-0.4866 0.3824,-0.8864 0.9212 -0.8864ZM 249.5014,15.5380 ZM 254.8719,12.6008 c 0.0000,-1.7902 -0.9733,-2.6766 -2.0509 -2.6766c -0.7995,-0.0000 -1.4078,0.1217 -2.0856 0.3997l 0.5562,-4.7448 c 0.5736,0.0521 1.1645,0.0695 1.7728 0.0695c 0.8690,-0.0000 1.7728,-0.0521 2.7113 -0.1564l 0.1043,0.0521 l -0.2607,1.1297 c -0.6778,0.0695 -1.2340,0.0869 -1.7207 0.0869c -0.7821,-0.0000 -1.3730,-0.0695 -1.9814 -0.1390l -0.3302,2.7461 c 0.3650,-0.1390 0.9907,-0.2607 1.6685 -0.2607c 1.8423,-0.0000 2.8678,1.5990 2.8678 3.1980c 0.0000,1.9466 -1.3557,3.4413 -3.3196 3.4413c -0.9907,-0.0000 -2.4332,-0.5562 -2.4332 -1.2340c 0.0000,-0.3302 0.2781,-0.5562 0.5909 -0.5562c 0.3476,-0.0000 0.5736,0.2607 0.7821 0.5388c 0.2607,0.3128 0.5388,0.6605 1.0950 0.6605c 1.1123,-0.0000 2.0335,-1.0428 2.0335 -2.5549Z"/></g><g stroke-linejoin="miter" stroke-opacity="1.0" fill-opacity="1.0" stroke="rgb(102,102,102)" stroke-width="0.0" fill="rgb(0,0,0)" stroke-linecap="butt" stroke-miterlimit="10.0"><path d="M 248.4716,24.4541 c 0.0000,-0.4823 -0.3910,-0.8734 -0.8734 -0.8734c -0.4823,-0.0000 -0.8734,0.3910 -0.8734 0.8734c -0.0000,0.4823 0.3910,0.8734 0.8734 0.8734c 0.4823,0.0000 0.8734,-0.3910 0.8734 -0.8734Z"/></g><g stroke-linejoin="miter" stroke-opacity="1.0" fill-opacity="0.33" stroke="rgb(0,0,0)" fill-rule="evenodd" stroke-width="0.0" fill="rgb(0,0,0)" stroke-linecap="butt" stroke-miterlimit="10.0"><path d="M 238.0825,50.4725 ZM 239.0906,42.7730 c 0.0000,-0.9907 0.9559,-2.3463 2.7809 -2.3463c 1.3383,-0.0000 2.9025,0.5040 2.9025 2.5028c 0.0000,1.3209 -0.6778,1.9814 -1.6164 2.8851l -1.6511,1.5990 c -0.0869,0.0869 -1.2514,1.2340 -1.2514 2.0509h 2.9547 c 0.5909,-0.0000 0.9038,-0.2955 1.1471 -1.2514l 0.4345,0.0695 l -0.3476,2.1899 h -5.3705 c 0.0000,-0.9733 0.1564,-1.7207 1.7728 -3.3718l 1.2166,-1.1992 c 0.9733,-0.9907 1.3730,-1.8423 1.3730 -2.9025c 0.0000,-1.5816 -1.0776,-2.0335 -1.6685 -2.0335c -1.1992,-0.0000 -1.5295,0.6257 -1.5295 1.0428c 0.0000,0.1390 0.0348,0.2781 0.0695 0.3997c 0.0348,0.1217 0.0695,0.2433 0.0695 0.3824c 0.0000,0.4519 -0.3476,0.6257 -0.6257 0.6257c -0.3824,-0.0000 -0.6605,-0.2955 -0.6605 -0.6431ZM 245.6951,50.4725 ZM 247.5027,48.8214 c 0.6952,-0.0000 1.1471,0.6778 1.1471 1.7207c 0.0000,1.2166 -0.8690,1.7902 -1.9118 1.9814l -0.0869,-0.4345 c 0.9038,-0.2259 1.3209,-0.7474 1.3209 -1.1123c 0.0000,-0.3997 -0.2955,-0.4693 -0.6257 -0.5040c -0.3128,-0.0521 -0.7647,-0.1912 -0.7647 -0.7647c 0.0000,-0.4866 0.3824,-0.8864 0.9212 -0.8864ZM 249.5014,50.4725 ZM 253.9855,44.3025 c 0.0000,-0.1217 0.0174,-0.2607 0.1738 -0.3476c 0.1912,-0.1390 0.5040,-0.2955 0.7647 -0.2955c 0.2259,-0.0000 0.2433,0.1912 0.2433 0.5388v 2.7982 h 1.4078 l -0.1043,0.8169 h -1.3035 v 1.4426 c 0.0000,0.4866 0.0695,0.7300 0.5736 0.7300h 0.4693 c 0.1043,-0.0000 0.1217,0.0869 0.1217 0.1217v 0.3824 c 0.0000,-0.0000 -1.1123,-0.0348 -1.8423 -0.0348c -0.6605,-0.0000 -1.6859,0.0348 -1.6859 0.0348v -0.3824 c 0.0000,-0.0348 0.0174,-0.1217 0.1217 -0.1217h 0.4693 c 0.5388,-0.0000 0.5909,-0.2259 0.5909 -0.7300v -1.4426 h -3.4065 c -0.0695,-0.0000 -0.1043,-0.0348 -0.1564 -0.1043l -0.1390,-0.1912 l -0.2086,-0.3650 c -0.0174,-0.0000 -0.0174,-0.0174 -0.0174 -0.0348c 0.0000,-0.0174 0.0174,-0.0348 0.0348 -0.0521c 1.1297,-1.2514 3.1285,-5.1272 3.7542 -6.5524c 0.0174,-0.0695 0.0521,-0.0869 0.1217 -0.0869c 0.0174,-0.0000 0.3997,0.1564 0.6083 0.1912c -0.7821,2.1030 -2.0683,4.3625 -3.3370 6.3786h 2.7461 v -2.6940 Z"/></g><g stroke-linejoin="miter" stroke-opacity="1.0" fill-opacity="1.0" stroke="rgb(102,102,102)" stroke-width="0.0" fill="rgb(0,0,0)" stroke-linecap="butt" stroke-miterlimit="10.0"><path d="M 248.4716,59.3886 c 0.0000,-0.4823 -0.3910,-0.8734 -0.8734 -0.8734c -0.4823,-0.0000 -0.8734,0.3910 -0.8734 0.8734c -0.0000,0.4823 0.3910,0.8734 0.8734 0.8734c 0.4823,0.0000 0.8734,-0.3910 0.8734 -0.8734Z"/></g><g stroke-linejoin="miter" stroke-opacity="1.0" fill-opacity="0.33" stroke="rgb(0,0,0)" fill-rule="evenodd" stroke-width="0.0" fill="rgb(0,0,0)" stroke-linecap="butt" stroke-miterlimit="10.0"><path d="M 238.0825,85.4070 ZM 239.0906,77.7075 c 0.0000,-0.9907 0.9559,-2.3463 2.7809 -2.3463c 1.3383,-0.0000 2.9025,0.5040 2.9025 2.5028c 0.0000,1.3209 -0.6778,1.9814 -1.6164 2.8851l -1.6511,1.5990 c -0.0869,0.0869 -1.2514,1.2340 -1.2514 2.0509h 2.9547 c 0.5909,-0.0000 0.9038,-0.2955 1.1471 -1.2514l 0.4345,0.0695 l -0.3476,2.1899 h -5.3705 c 0.0000,-0.9733 0.1564,-1.7207 1.7728 -3.3718l 1.2166,-1.1992 c 0.9733,-0.9907 1.3730,-1.8423 1.3730 -2.9025c 0.0000,-1.5816 -1.0776,-2.0335 -1.6685 -2.0335c -1.1992,-0.0000 -1.5295,0.6257 -1.5295 1.0428c 0.0000,0.1390 0.0348,0.2781 0.0695 0.3997c 0.0348,0.1217 0.0695,0.2433 0.0695 0.3824c 0.0000,0.4519 -0.3476,0.6257 -0.6257 0.6257c -0.3824,-0.0000 -0.6605,-0.2955 -0.6605 -0.6431ZM 245.6951,85.4070 ZM 247.5027,83.7559 c 0.6952,-0.0000 1.1471,0.6778 1.1471 1.7207c 0.0000,1.2166 -0.8690,1.7902 -1.9118 1.9814l -0.0869,-0.4345 c 0.9038,-0.2259 1.3209,-0.7474 1.3209 -1.1123c 0.0000,-0.3997 -0.2955,-0.4693 -0.6257 -0.5040c -0.3128,-0.0521 -0.7647,-0.1912 -0.7647 -0.7647c 0.0000,-0.4866 0.3824,-0.8864 0.9212 -0.8864ZM 249.5014,85.4070 ZM 253.2556,75.9000 c -0.4345,-0.0000 -1.7033,0.2433 -1.7033 1.3035c 0.0000,0.3128 -0.1217,0.8516 -0.5909 0.8516c -0.4519,-0.0000 -0.4866,-0.5040 -0.4866 -0.5562c 0.0000,-0.5388 0.7126,-2.1378 3.1285 -2.1378c 1.6859,-0.0000 2.1899,1.0602 2.1899 1.7554c 0.0000,0.4345 -0.1390,1.3035 -1.7033 2.2942c 0.9733,0.1564 2.2594,0.8690 2.2594 2.6766c 0.0000,2.2942 -1.7380,3.5282 -3.7020 3.5282c -0.9907,-0.0000 -2.3811,-0.4345 -2.3811 -1.0950c 0.0000,-0.2607 0.2607,-0.5562 0.6083 -0.5562c 0.3302,-0.0000 0.4866,0.1738 0.6431 0.3997c 0.1912,0.2955 0.5040,0.7126 1.3383 0.7126c 0.5736,-0.0000 2.2073,-0.5736 2.2073 -2.7635c 0.0000,-1.8597 -1.3035,-2.1552 -2.2421 -2.1552c -0.1564,-0.0000 -0.3476,0.0348 -0.5388 0.0695l -0.0695,-0.5214 c 1.3383,-0.2259 2.4506,-1.5295 2.4506 -2.3290c 0.0000,-0.9907 -0.6952,-1.4773 -1.4078 -1.4773Z"/></g><g stroke-linejoin="miter" stroke-opacity="1.0" fill-opacity="1.0" stroke="rgb(102,102,102)" stroke-width="0.0" fill="rgb(0,0,0)" stroke-linecap="butt" stroke-miterlimit="10.0"><path d="M 248.4716,94.3231 c 0.0000,-0.4823 -0.3910,-0.8734 -0.8734 -0.8734c -0.4823,-0.0000 -0.8734,0.3910 -0.8734 0.8734c -0.0000,0.4823 0.3910,0.8734 0.8734 0.8734c 0.4823,0.0000 0.8734,-0.3910 0.8734 -0.8734Z"/></g><g stroke-linejoin="miter" stroke-opacity="1.0" fill-opacity="0.33" stroke="rgb(0,0,0)" fill-rule="evenodd" stroke-width="0.0" fill="rgb(0,0,0)" stroke-linecap="butt" stroke-miterlimit="10.0"><path d="M 238.0825,120.3415 ZM 239.0906,112.6420 c 0.0000,-0.9907 0.9559,-2.3463 2.7809 -2.3463c 1.3383,-0.0000 2.9025,0.5040 2.9025 2.5028c 0.0000,1.3209 -0.6778,1.9814 -1.6164 2.8851l -1.6511,1.5990 c -0.0869,0.0869 -1.2514,1.2340 -1.2514 2.0509h 2.9547 c 0.5909,-0.0000 0.9038,-0.2955 1.1471 -1.2514l 0.4345,0.0695 l -0.3476,2.1899 h -5.3705 c 0.0000,-0.9733 0.1564,-1.7207 1.7728 -3.3718l 1.2166,-1.1992 c 0.9733,-0.9907 1.3730,-1.8423 1.3730 -2.9025c 0.0000,-1.5816 -1.0776,-2.0335 -1.6685 -2.0335c -1.1992,-0.0000 -1.5295,0.6257 -1.5295 1.0428c 0.0000,0.1390 0.0348,0.2781 0.0695 0.3997c 0.0348,0.1217 0.0695,0.2433 0.0695 0.3824c 0.0000,0.4519 -0.3476,0.6257 -0.6257 0.6257c -0.3824,-0.0000 -0.6605,-0.2955 -0.6605 -0.6431ZM 245.6951,120.3415 ZM 247.5027,118.6904 c 0.6952,-0.0000 1.1471,0.6778 1.1471 1.7207c 0.0000,1.2166 -0.8690,1.7902 -1.9118 1.9814l -0.0869,-0.4345 c 0.9038,-0.2259 1.3209,-0.7474 1.3209 -1.1123c 0.0000,-0.3997 -0.2955,-0.4693 -0.6257 -0.5040c -0.3128,-0.0521 -0.7647,-0.1912 -0.7647 -0.7647c 0.0000,-0.4866 0.3824,-0.8864 0.9212 -0.8864ZM 249.5014,120.3415 ZM 250.5095,112.6420 c 0.0000,-0.9907 0.9559,-2.3463 2.7809 -2.3463c 1.3383,-0.0000 2.9025,0.5040 2.9025 2.5028c 0.0000,1.3209 -0.6778,1.9814 -1.6164 2.8851l -1.6511,1.5990 c -0.0869,0.0869 -1.2514,1.2340 -1.2514 2.0509h 2.9547 c 0.5909,-0.0000 0.9038,-0.2955 1.1471 -1.2514l 0.4345,0.0695 l -0.3476,2.1899 h -5.3705 c 0.0000,-0.9733 0.1564,-1.7207 1.7728 -3.3718l 1.2166,-1.1992 c 0.9733,-0.9907 1.3730,-1.8423 1.3730 -2.9025c 0.0000,-1.5816 -1.0776,-2.0335 -1.6685 -2.0335c -1.1992,-0.0000 -1.5295,0.6257 -1.5295 1.0428c 0.0000,0.1390 0.0348,0.2781 0.0695 0.3997c 0.0348,0.1217 0.0695,0.2433 0.0695 0.3824c 0.0000,0.4519 -0.3476,0.6257 -0.6257 0.6257c -0.3824,-0.0000 -0.6605,-0.2955 -0.6605 -0.6431Z"/></g><g stroke-linejoin="miter" stroke-opacity="1.0" fill-opacity="1.0" stroke="rgb(102,102,102)" stroke-width="0.0" fill="rgb(0,0,0)" stroke-linecap="butt" stroke-miterlimit="10.0"><path d="M 248.4716,129.2576 c 0.0000,-0.4823 -0.3910,-0.8734 -0.8734 -0.8734c -0.4823,-0.0000 -0.8734,0.3910 -0.8734 0.8734c -0.0000,0.4823 0.3910,0.8734 0.8734 0.8734c 0.4823,0.0000 0.8734,-0.3910 0.8734 -0.8734Z"/></g><g stroke-linejoin="miter" stroke-opacity="1.0" fill-opacity="0.33" stroke="rgb(0,0,0)" fill-rule="evenodd" stroke-width="0.0" fill="rgb(0,0,0)" stroke-linecap="butt" stroke-miterlimit="10.0"><path d="M 238.0825,155.2760 ZM 239.0906,147.5765 c 0.0000,-0.9907 0.9559,-2.3463 2.7809 -2.3463c 1.3383,-0.0000 2.9025,0.5040 2.9025 2.5028c 0.0000,1.3209 -0.6778,1.9814 -1.6164 2.8851l -1.6511,1.5990 c -0.0869,0.0869 -1.2514,1.2340 -1.2514 2.0509h 2.9547 c 0.5909,-0.0000 0.9038,-0.2955 1.1471 -1.2514l 0.4345,0.0695 l -0.3476,2.1899 h -5.3705 c 0.0000,-0.9733 0.1564,-1.7207 1.7728 -3.3718l 1.2166,-1.1992 c 0.9733,-0.9907 1.3730,-1.8423 1.3730 -2.9025c 0.0000,-1.5816 -1.0776,-2.0335 -1.6685 -2.0335c -1.1992,-0.0000 -1.5295,0.6257 -1.5295 1.0428c 0.0000,0.1390 0.0348,0.2781 0.0695 0.3997c 0.0348,0.1217 0.0695,0.2433 0.0695 0.3824c 0.0000,0.4519 -0.3476,0.6257 -0.6257 0.6257c -0.3824,-0.0000 -0.6605,-0.2955 -0.6605 -0.6431ZM 245.6951,155.2760 ZM 247.5027,153.6249 c 0.6952,-0.0000 1.1471,0.6778 1.1471 1.7207c 0.0000,1.2166 -0.8690,1.7902 -1.9118 1.9814l -0.0869,-0.4345 c 0.9038,-0.2259 1.3209,-0.7474 1.3209 -1.1123c 0.0000,-0.3997 -0.2955,-0.4693 -0.6257 -0.5040c -0.3128,-0.0521 -0.7647,-0.1912 -0.7647 -0.7647c 0.0000,-0.4866 0.3824,-0.8864 0.9212 -0.8864ZM 249.5014,155.2760 ZM 252.7689,146.9856 c -0.3302,-0.0000 -1.0950,0.3128 -1.4773 0.4866l -0.2086,-0.5388 c 1.5295,-0.7126 2.1204,-1.0776 2.9894 -1.7033h 0.3302 v 8.7423 c 0.0000,0.6257 0.0869,0.7995 0.6605 0.7995h 0.9038 c 0.0521,-0.0000 0.1390,0.0348 0.1390 0.1390v 0.3824 l -2.3811,-0.0348 l -2.4159,0.0348 v -0.3824 c 0.0174,-0.0521 0.0348,-0.1390 0.1390 -0.1390h 1.0428 c 0.6605,-0.0000 0.6605,-0.2955 0.6605 -0.7995v -5.9788 c 0.0000,-0.5909 0.0000,-1.0081 -0.3824 -1.0081Z"/></g><g stroke-linejoin="miter" stroke-opacity="1.0" fill-opacity="1.0" stroke="rgb(102,102,102)" stroke-width="0.0" fill="rgb(0,0,0)" stroke-linecap="butt" stroke-miterlimit="10.0"><path d="M 248.4716,164.1921 c 0.0000,-0.4823 -0.3910,-0.8734 -0.8734 -0.8734c -0.4823,-0.0000 -0.8734,0.3910 -0.8734 0.8734c -0.0000,0.4823 0.3910,0.8734 0.8734 0.8734c 0.4823,0.0000 0.8734,-0.3910 0.8734 -0.8734Z"/></g><g stroke-linejoin="miter" stroke-opacity="1.0" fill-opacity="0.33" stroke="rgb(0,0,0)" fill-rule="evenodd" stroke-width="0.0" fill="rgb(0,0,0)" stroke-linecap="butt" stroke-miterlimit="10.0"><path d="M 238.0825,190.2105 ZM 239.0906,182.5110 c 0.0000,-0.9907 0.9559,-2.3463 2.7809 -2.3463c 1.3383,-0.0000 2.9025,0.5040 2.9025 2.5028c 0.0000,1.3209 -0.6778,1.9814 -1.6164 2.8851l -1.6511,1.5990 c -0.0869,0.0869 -1.2514,1.2340 -1.2514 2.0509h 2.9547 c 0.5909,-0.0000 0.9038,-0.2955 1.1471 -1.2514l 0.4345,0.0695 l -0.3476,2.1899 h -5.3705 c 0.0000,-0.9733 0.1564,-1.7207 1.7728 -3.3718l 1.2166,-1.1992 c 0.9733,-0.9907 1.3730,-1.8423 1.3730 -2.9025c 0.0000,-1.5816 -1.0776,-2.0335 -1.6685 -2.0335c -1.1992,-0.0000 -1.5295,0.6257 -1.5295 1.0428c 0.0000,0.1390 0.0348,0.2781 0.0695 0.3997c 0.0348,0.1217 0.0695,0.2433 0.0695 0.3824c 0.0000,0.4519 -0.3476,0.6257 -0.6257 0.6257c -0.3824,-0.0000 -0.6605,-0.2955 -0.6605 -0.6431ZM 245.6951,190.2105 ZM 247.5027,188.5594 c 0.6952,-0.0000 1.1471,0.6778 1.1471 1.7207c 0.0000,1.2166 -0.8690,1.7902 -1.9118 1.9814l -0.0869,-0.4345 c 0.9038,-0.2259 1.3209,-0.7474 1.3209 -1.1123c 0.0000,-0.3997 -0.2955,-0.4693 -0.6257 -0.5040c -0.3128,-0.0521 -0.7647,-0.1912 -0.7647 -0.7647c 0.0000,-0.4866 0.3824,-0.8864 0.9212 -0.8864ZM 249.5014,190.2105 ZM 253.3077,180.7730 c -0.7474,-0.0000 -1.8423,0.7300 -1.8423 4.7796c 0.0000,1.4252 0.2607,4.2929 1.7902 4.2929c 0.2955,-0.0000 1.1297,-0.1912 1.4947 -1.5469c 0.2259,-0.8343 0.3476,-1.8771 0.3476 -3.3892c 0.0000,-2.2073 -0.5562,-3.4413 -1.0602 -3.8758c -0.1912,-0.1738 -0.4519,-0.2607 -0.7300 -0.2607ZM 253.3077,180.7730 ZM 253.2382,190.4191 c -1.8597,-0.0000 -3.1111,-2.3811 -3.1111 -5.0403c 0.0000,-3.2501 1.5469,-5.2141 3.1806 -5.2141c 0.7474,-0.0000 1.4947,0.4693 1.9987 1.1471c 0.7300,0.9733 1.1123,2.2768 1.1123 3.9106c 0.0000,3.8584 -1.9118,5.1967 -3.1806 5.1967Z"/></g><g stroke-linejoin="miter" stroke-opacity="1.0" fill-opacity="1.0" stroke="rgb(102,102,102)" stroke-width="0.0" fill="rgb(0,0,0)" stroke-linecap="butt" stroke-miterlimit="10.0"><path d="M 248.4716,199.1266 c 0.0000,-0.4823 -0.3910,-0.8734 -0.8734 -0.8734c -0.4823,-0.0000 -0.8734,0.3910 -0.8734 0.8734c -0.0000,0.4823 0.3910,0.8734 0.8734 0.8734c 0.4823,0.0000 0.8734,-0.3910 0.8734 -0.8734Z"/></g><g stroke-linejoin="miter" stroke-opacity="1.0" fill-opacity="0.33" stroke="rgb(0,0,0)" fill-rule="evenodd" stroke-width="0.0" fill="rgb(0,0,0)" stroke-linecap="butt" stroke-miterlimit="10.0"><path d="M 133.2790,15.5380 ZM 136.5465,7.2476 c -0.3302,-0.0000 -1.0950,0.3128 -1.4773 0.4866l -0.2086,-0.5388 c 1.5295,-0.7126 2.1204,-1.0776 2.9894 -1.7033h 0.3302 v 8.7423 c 0.0000,0.6257 0.0869,0.7995 0.6605 0.7995h 0.9038 c 0.0521,-0.0000 0.1390,0.0348 0.1390 0.1390v 0.3824 l -2.3811,-0.0348 l -2.4159,0.0348 v -0.3824 c 0.0174,-0.0521 0.0348,-0.1390 0.1390 -0.1390h 1.0428 c 0.6605,-0.0000 0.6605,-0.2955 0.6605 -0.7995v -5.9788 c 0.0000,-0.5909 0.0000,-1.0081 -0.3824 -1.0081ZM 140.8916,15.5380 ZM 142.6992,13.8869 c 0.6952,-0.0000 1.1471,0.6778 1.1471 1.7207c 0.0000,1.2166 -0.8690,1.7902 -1.9118 1.9814l -0.0869,-0.4345 c 0.9038,-0.2259 1.3209,-0.7474 1.3209 -1.1123c 0.0000,-0.3997 -0.2955,-0.4693 -0.6257 -0.5040c -0.3128,-0.0521 -0.7647,-0.1912 -0.7647 -0.7647c 0.0000,-0.4866 0.3824,-0.8864 0.9212 -0.8864ZM 144.6979,15.5380 ZM 150.0684,12.6008 c 0.0000,-1.7902 -0.9733,-2.6766 -2.0509 -2.6766c -0.7995,-0.0000 -1.4078,0.1217 -2.0856 0.3997l 0.5562,-4.7448 c 0.5736,0.0521 1.1645,0.0695 1.7728 0.0695c 0.8690,-0.0000 1.7728,-0.0521 2.7113 -0.1564l 0.1043,0.0521 l -0.2607,1.1297 c -0.6778,0.0695 -1.2340,0.0869 -1.7207 0.0869c -0.7821,-0.0000 -1.3730,-0.0695 -1.9814 -0.1390l -0.3302,2.7461 c 0.3650,-0.1390 0.9907,-0.2607 1.6685 -0.2607c 1.8423,-0.0000 2.8678,1.5990 2.8678 3.1980c 0.0000,1.9466 -1.3557,3.4413 -3.3196 3.4413c -0.9907,-0.0000 -2.4332,-0.5562 -2.4332 -1.2340c 0.0000,-0.3302 0.2781,-0.5562 0.5909 -0.5562c 0.3476,-0.0000 0.5736,0.2607 0.7821 0.5388c 0.2607,0.3128 0.5388,0.6605 1.0950 0.6605c 1.1123,-0.0000 2.0335,-1.0428 2.0335 -2.5549Z"/></g><g stroke-linejoin="miter" stroke-opacity="1.0" fill-opacity="1.0" stroke="rgb(102,102,102)" stroke-width="0.0" fill="rgb(0,0,0)" stroke-linecap="butt" stroke-miterlimit="10.0"><path d="M 143.6681,24.4541 c 0.0000,-0.4823 -0.3910,-0.8734 -0.8734 -0.8734c -0.4823,-0.0000 -0.8734,0.3910 -0.8734 0.8734c -0.0000,0.4823 0.3910,0.8734 0.8734 0.8734c 0.4823,0.0000 0.8734,-0.3910 0.8734 -0.8734Z"/></g><g stroke-linejoin="miter" stroke-opacity="1.0" fill-opacity="0.33" stroke="rgb(0,0,0)" fill-rule="evenodd" stroke-width="0.0" fill="rgb(0,0,0)" stroke-linecap="butt" stroke-miterlimit="10.0"><path d="M 133.2790,50.4725 ZM 136.5465,42.1821 c -0.3302,-0.0000 -1.0950,0.3128 -1.4773 0.4866l -0.2086,-0.5388 c 1.5295,-0.7126 2.1204,-1.0776 2.9894 -1.7033h 0.3302 v 8.7423 c 0.0000,0.6257 0.0869,0.7995 0.6605 0.7995h 0.9038 c 0.0521,-0.0000 0.1390,0.0348 0.1390 0.1390v 0.3824 l -2.3811,-0.0348 l -2.4159,0.0348 v -0.3824 c 0.0174,-0.0521 0.0348,-0.1390 0.1390 -0.1390h 1.0428 c 0.6605,-0.0000 0.6605,-0.2955 0.6605 -0.7995v -5.9788 c 0.0000,-0.5909 0.0000,-1.0081 -0.3824 -1.0081ZM 140.8916,50.4725 ZM 142.6992,48.8214 c 0.6952,-0.0000 1.1471,0.6778 1.1471 1.7207c 0.0000,1.2166 -0.8690,1.7902 -1.9118 1.9814l -0.0869,-0.4345 c 0.9038,-0.2259 1.3209,-0.7474 1.3209 -1.1123c 0.0000,-0.3997 -0.2955,-0.4693 -0.6257 -0.5040c -0.3128,-0.0521 -0.7647,-0.1912 -0.7647 -0.7647c 0.0000,-0.4866 0.3824,-0.8864 0.9212 -0.8864ZM 144.6979,50.4725 ZM 149.1820,44.3025 c 0.0000,-0.1217 0.0174,-0.2607 0.1738 -0.3476c 0.1912,-0.1390 0.5040,-0.2955 0.7647 -0.2955c 0.2259,-0.0000 0.2433,0.1912 0.2433 0.5388v 2.7982 h 1.4078 l -0.1043,0.8169 h -1.3035 v 1.4426 c 0.0000,0.4866 0.0695,0.7300 0.5736 0.7300h 0.4693 c 0.1043,-0.0000 0.1217,0.0869 0.1217 0.1217v 0.3824 c 0.0000,-0.0000 -1.1123,-0.0348 -1.8423 -0.0348c -0.6605,-0.0000 -1.6859,0.0348 -1.6859 0.0348v -0.3824 c 0.0000,-0.0348 0.0174,-0.1217 0.1217 -0.1217h 0.4693 c 0.5388,-0.0000 0.5909,-0.2259 0.5909 -0.7300v -1.4426 h -3.4065 c -0.0695,-0.0000 -0.1043,-0.0348 -0.1564 -0.1043l -0.1390,-0.1912 l -0.2086,-0.3650 c -0.0174,-0.0000 -0.0174,-0.0174 -0.0174 -0.0348c 0.0000,-0.0174 0.0174,-0.0348 0.0348 -0.0521c 1.1297,-1.2514 3.1285,-5.1272 3.7542 -6.5524c 0.0174,-0.0695 0.0521,-0.0869 0.1217 -0.0869c 0.0174,-0.0000 0.3997,0.1564 0.6083 0.1912c -0.7821,2.1030 -2.0683,4.3625 -3.3370 6.3786h 2.7461 v -2.6940 Z"/></g><g stroke-linejoin="miter" stroke-opacity="1.0" fill-opacity="1.0" stroke="rgb(102,102,102)" stroke-width="0.0" fill="rgb(0,0,0)" stroke-linecap="butt" stroke-miterlimit="10.0"><path d="M 143.6681,59.3886 c 0.0000,-0.4823 -0.3910,-0.8734 -0.8734 -0.8734c -0.4823,-0.0000 -0.8734,0.3910 -0.8734 0.8734c -0.0000,0.4823 0.3910,0.8734 0.8734 0.8734c 0.4823,0.0000 0.8734,-0.3910 0.8734 -0.8734Z"/></g><g stroke-linejoin="miter" stroke-opacity="1.0" fill-opacity="0.33" stroke="rgb(0,0,0)" fill-rule="evenodd" stroke-width="0.0" fill="rgb(0,0,0)" stroke-linecap="butt" stroke-miterlimit="10.0"><path d="M 133.2790,85.4070 ZM 136.5465,77.1166 c -0.3302,-0.0000 -1.0950,0.3128 -1.4773 0.4866l -0.2086,-0.5388 c 1.5295,-0.7126 2.1204,-1.0776 2.9894 -1.7033h 0.3302 v 8.7423 c 0.0000,0.6257 0.0869,0.7995 0.6605 0.7995h 0.9038 c 0.0521,-0.0000 0.1390,0.0348 0.1390 0.1390v 0.3824 l -2.3811,-0.0348 l -2.4159,0.0348 v -0.3824 c 0.0174,-0.0521 0.0348,-0.1390 0.1390 -0.1390h 1.0428 c 0.6605,-0.0000 0.6605,-0.2955 0.6605 -0.7995v -5.9788 c 0.0000,-0.5909 0.0000,-1.0081 -0.3824 -1.0081ZM 140.8916,85.4070 ZM 142.6992,83.7559 c 0.6952,-0.0000 1.1471,0.6778 1.1471 1.7207c 0.0000,1.2166 -0.8690,1.7902 -1.9118 1.9814l -0.0869,-0.4345 c 0.9038,-0.2259 1.3209,-0.7474 1.3209 -1.1123c 0.0000,-0.3997 -0.2955,-0.4693 -0.6257 -0.5040c -0.3128,-0.0521 -0.7647,-0.1912 -0.7647 -0.7647c 0.0000,-0.4866 0.3824,-0.8864 0.9212 -0.8864ZM 144.6979,85.4070 ZM 148.4521,75.9000 c -0.4345,-0.0000 -1.7033,0.2433 -1.7033 1.3035c 0.0000,0.3128 -0.1217,0.8516 -0.5909 0.8516c -0.4519,-0.0000 -0.4866,-0.5040 -0.4866 -0.5562c 0.0000,-0.5388 0.7126,-2.1378 3.1285 -2.1378c 1.6859,-0.0000 2.1899,1.0602 2.1899 1.7554c 0.0000,0.4345 -0.1390,1.3035 -1.7033 2.2942c 0.9733,0.1564 2.2594,0.8690 2.2594 2.6766c 0.0000,2.2942 -1.7380,3.5282 -3.7020 3.5282c -0.9907,-0.0000 -2.3811,-0.4345 -2.3811 -1.0950c 0.0000,-0.2607 0.2607,-0.5562 0.6083 -0.5562c 0.3302,-0.0000 0.4866,0.1738 0.6431 0.3997c 0.1912,0.2955 0.5040,0.7126 1.3383 0.7126c 0.5736,-0.0000 2.2073,-0.5736 2.2073 -2.7635c 0.0000,-1.8597 -1.3035,-2.1552 -2.2421 -2.1552c -0.1564,-0.0000 -0.3476,0.0348 -0.5388 0.0695l -0.0695,-0.5214 c 1.3383,-0.2259 2.4506,-1.5295 2.4506 -2.3290c 0.0000,-0.9907 -0.6952,-1.4773 -1.4078 -1.4773Z"/></g><g stroke-linejoin="miter" stroke-opacity="1.0" fill-opacity="1.0" stroke="rgb(102,102,102)" stroke-width="0.0" fill="rgb(0,0,0)" stroke-linecap="butt" stroke-miterlimit="10.0"><path d="M 143.6681,94.3231 c 0.0000,-0.4823 -0.3910,-0.8734 -0.8734 -0.8734c -0.4823,-0.0000 -0.8734,0.3910 -0.8734 0.8734c -0.0000,0.4823 0.3910,0.8734 0.8734 0.8734c 0.4823,0.0000 0.8734,-0.3910 0.8734 -0.8734Z"/></g><g stroke-linejoin="miter" stroke-opacity="1.0" fill-opacity="0.33" stroke="rgb(0,0,0)" fill-rule="evenodd" stroke-width="0.0" fill="rgb(0,0,0)" stroke-linecap="butt" stroke-miterlimit="10.0"><path d="M 133.2790,120.3415 ZM 136.5465,112.0511 c -0.3302,-0.0000 -1.0950,0.3128 -1.4773 0.4866l -0.2086,-0.5388 c 1.5295,-0.7126 2.1204,-1.0776 2.9894 -1.7033h 0.3302 v 8.7423 c 0.0000,0.6257 0.0869,0.7995 0.6605 0.7995h 0.9038 c 0.0521,-0.0000 0.1390,0.0348 0.1390 0.1390v 0.3824 l -2.3811,-0.0348 l -2.4159,0.0348 v -0.3824 c 0.0174,-0.0521 0.0348,-0.1390 0.1390 -0.1390h 1.0428 c 0.6605,-0.0000 0.6605,-0.2955 0.6605 -0.7995v -5.9788 c 0.0000,-0.5909 0.0000,-1.0081 -0.3824 -1.0081ZM 140.8916,120.3415 ZM 142.6992,118.6904 c 0.6952,-0.0000 1.1471,0.6778 1.1471 1.7207c 0.0000,1.2166 -0.8690,1.7902 -1.9118 1.9814l -0.0869,-0.4345 c 0.9038,-0.2259 1.3209,-0.7474 1.3209 -1.1123c 0.0000,-0.3997 -0.2955,-0.4693 -0.6257 -0.5040c -0.3128,-0.0521 -0.7647,-0.1912 -0.7647 -0.7647c 0.0000,-0.4866 0.3824,-0.8864 0.9212 -0.8864ZM 144.6979,120.3415 ZM 145.7060,112.6420 c 0.0000,-0.9907 0.9559,-2.3463 2.7809 -2.3463c 1.3383,-0.0000 2.9025,0.5040 2.9025 2.5028c 0.0000,1.3209 -0.6778,1.9814 -1.6164 2.8851l -1.6511,1.5990 c -0.0869,0.0869 -1.2514,1.2340 -1.2514 2.0509h 2.9547 c 0.5909,-0.0000 0.9038,-0.2955 1.1471 -1.2514l 0.4345,0.0695 l -0.3476,2.1899 h -5.3705 c 0.0000,-0.9733 0.1564,-1.7207 1.7728 -3.3718l 1.2166,-1.1992 c 0.9733,-0.9907 1.3730,-1.8423 1.3730 -2.9025c 0.0000,-1.5816 -1.0776,-2.0335 -1.6685 -2.0335c -1.1992,-0.0000 -1.5295,0.6257 -1.5295 1.0428c 0.0000,0.1390 0.0348,0.2781 0.0695 0.3997c 0.0348,0.1217 0.0695,0.2433 0.0695 0.3824c 0.0000,0.4519 -0.3476,0.6257 -0.6257 0.6257c -0.3824,-0.0000 -0.6605,-0.2955 -0.6605 -0.6431Z"/></g><g stroke-linejoin="miter" stroke-opacity="1.0" fill-opacity="1.0" stroke="rgb(102,102,102)" stroke-width="0.0" fill="rgb(0,0,0)" stroke-linecap="butt" stroke-miterlimit="10.0"><path d="M 143.6681,129.2576 c 0.0000,-0.4823 -0.3910,-0.8734 -0.8734 -0.8734c -0.4823,-0.0000 -0.8734,0.3910 -0.8734 0.8734c -0.0000,0.4823 0.3910,0.8734 0.8734 0.8734c 0.4823,0.0000 0.8734,-0.3910 0.8734 -0.8734Z"/></g><g stroke-linejoin="miter" stroke-opacity="1.0" fill-opacity="0.33" stroke="rgb(0,0,0)" fill-rule="evenodd" stroke-width="0.0" fill="rgb(0,0,0)" stroke-linecap="butt" stroke-miterlimit="10.0"><path d="M 133.2790,155.2760 ZM 136.5465,146.9856 c -0.3302,-0.0000 -1.0950,0.3128 -1.4773 0.4866l -0.2086,-0.5388 c 1.5295,-0.7126 2.1204,-1.0776 2.9894 -1.7033h 0.3302 v 8.7423 c 0.0000,0.6257 0.0869,0.7995 0.6605 0.7995h 0.9038 c 0.0521,-0.0000 0.1390,0.0348 0.1390 0.1390v 0.3824 l -2.3811,-0.0348 l -2.4159,0.0348 v -0.3824 c 0.0174,-0.0521 0.0348,-0.1390 0.1390 -0.1390h 1.0428 c 0.6605,-0.0000 0.6605,-0.2955 0.6605 -0.7995v -5.9788 c 0.0000,-0.5909 0.0000,-1.0081 -0.3824 -1.0081ZM 140.8916,155.2760 ZM 142.6992,153.6249 c 0.6952,-0.0000 1.1471,0.6778 1.1471 1.7207c 0.0000,1.2166 -0.8690,1.7902 -1.9118 1.9814l -0.0869,-0.4345 c 0.9038,-0.2259 1.3209,-0.7474 1.3209 -1.1123c 0.0000,-0.3997 -0.2955,-0.4693 -0.6257 -0.5040c -0.3128,-0.0521 -0.7647,-0.1912 -0.7647 -0.7647c 0.0000,-0.4866 0.3824,-0.8864 0.9212 -0.8864ZM 144.6979,155.2760 ZM 147.9654,146.9856 c -0.3302,-0.0000 -1.0950,0.3128 -1.4773 0.4866l -0.2086,-0.5388 c 1.5295,-0.7126 2.1204,-1.0776 2.9894 -1.7033h 0.3302 v 8.7423 c 0.0000,0.6257 0.0869,0.7995 0.6605 0.7995h 0.9038 c 0.0521,-0.0000 0.1390,0.0348 0.1390 0.1390v 0.3824 l -2.3811,-0.0348 l -2.4159,0.0348 v -0.3824 c 0.0174,-0.0521 0.0348,-0.1390 0.1390 -0.1390h 1.0428 c 0.6605,-0.0000 0.6605,-0.2955 0.6605 -0.7995v -5.9788 c 0.0000,-0.5909 0.0000,-1.0081 -0.3824 -1.0081Z"/></g><g stroke-linejoin="miter" stroke-opacity="1.0" fill-opacity="1.0" stroke="rgb(102,102,102)" stroke-width="0.0" fill="rgb(0,0,0)" stroke-linecap="butt" stroke-miterlimit="10.0"><path d="M 143.6681,164.1921 c 0.0000,-0.4823 -0.3910,-0.8734 -0.8734 -0.8734c -0.4823,-0.0000 -0.8734,0.3910 -0.8734 0.8734c -0.0000,0.4823 0.3910,0.8734 0.8734 0.8734c 0.4823,0.0000 0.8734,-0.3910 0.8734 -0.8734Z"/></g><g stroke-linejoin="miter" stroke-opacity="1.0" fill-opacity="0.33" stroke="rgb(0,0,0)" fill-rule="evenodd" stroke-width="0.0" fill="rgb(0,0,0)" stroke-linecap="butt" stroke-miterlimit="10.0"><path d="M 133.2790,190.2105 ZM 136.5465,181.9201 c -0.3302,-0.0000 -1.0950,0.3128 -1.4773 0.4866l -0.2086,-0.5388 c 1.5295,-0.7126 2.1204,-1.0776 2.9894 -1.7033h 0.3302 v 8.7423 c 0.0000,0.6257 0.0869,0.7995 0.6605 0.7995h 0.9038 c 0.0521,-0.0000 0.1390,0.0348 0.1390 0.1390v 0.3824 l -2.3811,-0.0348 l -2.4159,0.0348 v -0.3824 c 0.0174,-0.0521 0.0348,-0.1390 0.1390 -0.1390h 1.0428 c 0.6605,-0.0000 0.6605,-0.2955 0.6605 -0.7995v -5.9788 c 0.0000,-0.5909 0.0000,-1.0081 -0.3824 -1.0081ZM 140.8916,190.2105 ZM 142.6992,188.5594 c 0.6952,-0.0000 1.1471,0.6778 1.1471 1.7207c 0.0000,1.2166 -0.8690,1.7902 -1.9118 1.9814l -0.0869,-0.4345 c 0.9038,-0.2259 1.3209,-0.7474 1.3209 -1.1123c 0.0000,-0.3997 -0.2955,-0.4693 -0.6257 -0.5040c -0.3128,-0.0521 -0.7647,-0.1912 -0.7647 -0.7647c 0.0000,-0.4866 0.3824,-0.8864 0.9212 -0.8864ZM 144.6979,190.2105 ZM 148.5042,180.7730 c -0.7474,-0.0000 -1.8423,0.7300 -1.8423 4.7796c 0.0000,1.4252 0.2607,4.2929 1.7902 4.2929c 0.2955,-0.0000 1.1297,-0.1912 1.4947 -1.5469c 0.2259,-0.8343 0.3476,-1.8771 0.3476 -3.3892c 0.0000,-2.2073 -0.5562,-3.4413 -1.0602 -3.8758c -0.1912,-0.1738 -0.4519,-0.2607 -0.7300 -0.2607ZM 148.5042,180.7730 ZM 148.4347,190.4191 c -1.8597,-0.0000 -3.1111,-2.3811 -3.1111 -5.0403c 0.0000,-3.2501 1.5469,-5.2141 3.1806 -5.2141c 0.7474,-0.0000 1.4947,0.4693 1.9987 1.1471c 0.7300,0.9733 1.1123,2.2768 1.1123 3.9106c 0.0000,3.8584 -1.9118,5.1967 -3.1806 5.1967Z"/></g><g stroke-linejoin="miter" stroke-opacity="1.0" fill-opacity="1.0" stroke="rgb(102,102,102)" stroke-width="0.0" fill="rgb(0,0,0)" stroke-linecap="butt" stroke-miterlimit="10.0"><path d="M 143.6681,199.1266 c 0.0000,-0.4823 -0.3910,-0.8734 -0.8734 -0.8734c -0.4823,-0.0000 -0.8734,0.3910 -0.8734 0.8734c -0.0000,0.4823 0.3910,0.8734 0.8734 0.8734c 0.4823,0.0000 0.8734,-0.3910 0.8734 -0.8734Z"/></g><g stroke-linejoin="miter" stroke-opacity="1.0" fill-opacity="0.33" stroke="rgb(0,0,0)" fill-rule="evenodd" stroke-width="0.0" fill="rgb(0,0,0)" stroke-linecap="butt" stroke-miterlimit="10.0"><path d="M 28.4755,15.5380 ZM 32.2818,6.1005 c -0.7474,-0.0000 -1.8423,0.7300 -1.8423 4.7796c 0.0000,1.4252 0.2607,4.2929 1.7902 4.2929c 0.2955,-0.0000 1.1297,-0.1912 1.4947 -1.5469c 0.2259,-0.8343 0.3476,-1.8771 0.3476 -3.3892c 0.0000,-2.2073 -0.5562,-3.4413 -1.0602 -3.8758c -0.1912,-0.1738 -0.4519,-0.2607 -0.7300 -0.2607ZM 32.2818,6.1005 ZM 32.2123,15.7466 c -1.8597,-0.0000 -3.1111,-2.3811 -3.1111 -5.0403c 0.0000,-3.2501 1.5469,-5.2141 3.1806 -5.2141c 0.7474,-0.0000 1.4947,0.4693 1.9987 1.1471c 0.7300,0.9733 1.1123,2.2768 1.1123 3.9106c 0.0000,3.8584 -1.9118,5.1967 -3.1806 5.1967ZM 36.0881,15.5380 ZM 37.8957,13.8869 c 0.6952,-0.0000 1.1471,0.6778 1.1471 1.7207c 0.0000,1.2166 -0.8690,1.7902 -1.9118 1.9814l -0.0869,-0.4345 c 0.9038,-0.2259 1.3209,-0.7474 1.3209 -1.1123c 0.0000,-0.3997 -0.2955,-0.4693 -0.6257 -0.5040c -0.3128,-0.0521 -0.7647,-0.1912 -0.7647 -0.7647c 0.0000,-0.4866 0.3824,-0.8864 0.9212 -0.8864ZM 39.8944,15.5380 ZM 45.2649,12.6008 c 0.0000,-1.7902 -0.9733,-2.6766 -2.0509 -2.6766c -0.7995,-0.0000 -1.4078,0.1217 -2.0856 0.3997l 0.5562,-4.7448 c 0.5736,0.0521 1.1645,0.0695 1.7728 0.0695c 0.8690,-0.0000 1.7728,-0.0521 2.7113 -0.1564l 0.1043,0.0521 l -0.2607,1.1297 c -0.6778,0.0695 -1.2340,0.0869 -1.7207 0.0869c -0.7821,-0.0000 -1.3730,-0.0695 -1.9814 -0.1390l -0.3302,2.7461 c 0.3650,-0.1390 0.9907,-0.2607 1.6685 -0.2607c 1.8423,-0.0000 2.8678,1.5990 2.8678 3.1980c 0.0000,1.9466 -1.3557,3.4413 -3.3196 3.4413c -0.9907,-0.0000 -2.4332,-0.5562 -2.4332 -1.2340c 0.0000,-0.3302 0.2781,-0.5562 0.5909 -0.5562c 0.3476,-0.0000 0.5736,0.2607 0.7821 0.5388c 0.2607,0.3128 0.5388,0.6605 1.0950 0.6605c 1.1123,-0.0000 2.0335,-1.0428 2.0335 -2.5549Z"/></g><g stroke-linejoin="miter" stroke-opacity="1.0" fill-opacity="1.0" stroke="rgb(102,102,102)" stroke-width="0.0" fill="rgb(0,0,0)" stroke-linecap="butt" stroke-miterlimit="10.0"><path d="M 38.8646,24.4541 c 0.0000,-0.4823 -0.3910,-0.8734 -0.8734 -0.8734c -0.4823,-0.0000 -0.8734,0.3910 -0.8734 0.8734c -0.0000,0.4823 0.3910,0.8734 0.8734 0.8734c 0.4823,0.0000 0.8734,-0.3910 0.8734 -0.8734Z"/></g><g stroke-linejoin="miter" stroke-opacity="1.0" fill-opacity="0.33" stroke="rgb(0,0,0)" fill-rule="evenodd" stroke-width="0.0" fill="rgb(0,0,0)" stroke-linecap="butt" stroke-miterlimit="10.0"><path d="M 28.4755,50.4725 ZM 32.2818,41.0350 c -0.7474,-0.0000 -1.8423,0.7300 -1.8423 4.7796c 0.0000,1.4252 0.2607,4.2929 1.7902 4.2929c 0.2955,-0.0000 1.1297,-0.1912 1.4947 -1.5469c 0.2259,-0.8343 0.3476,-1.8771 0.3476 -3.3892c 0.0000,-2.2073 -0.5562,-3.4413 -1.0602 -3.8758c -0.1912,-0.1738 -0.4519,-0.2607 -0.7300 -0.2607ZM 32.2818,41.0350 ZM 32.2123,50.6811 c -1.8597,-0.0000 -3.1111,-2.3811 -3.1111 -5.0403c 0.0000,-3.2501 1.5469,-5.2141 3.1806 -5.2141c 0.7474,-0.0000 1.4947,0.4693 1.9987 1.1471c 0.7300,0.9733 1.1123,2.2768 1.1123 3.9106c 0.0000,3.8584 -1.9118,5.1967 -3.1806 5.1967ZM 36.0881,50.4725 ZM 37.8957,48.8214 c 0.6952,-0.0000 1.1471,0.6778 1.1471 1.7207c 0.0000,1.2166 -0.8690,1.7902 -1.9118 1.9814l -0.0869,-0.4345 c 0.9038,-0.2259 1.3209,-0.7474 1.3209 -1.1123c 0.0000,-0.3997 -0.2955,-0.4693 -0.6257 -0.5040c -0.3128,-0.0521 -0.7647,-0.1912 -0.7647 -0.7647c 0.0000,-0.4866 0.3824,-0.8864 0.9212 -0.8864ZM 39.8944,50.4725 ZM 44.3785,44.3025 c 0.0000,-0.1217 0.0174,-0.2607 0.1738 -0.3476c 0.1912,-0.1390 0.5040,-0.2955 0.7647 -0.2955c 0.2259,-0.0000 0.2433,0.1912 0.2433 0.5388v 2.7982 h 1.4078 l -0.1043,0.8169 h -1.3035 v 1.4426 c 0.0000,0.4866 0.0695,0.7300 0.5736 0.7300h 0.4693 c 0.1043,-0.0000 0.1217,0.0869 0.1217 0.1217v 0.3824 c 0.0000,-0.0000 -1.1123,-0.0348 -1.8423 -0.0348c -0.6605,-0.0000 -1.6859,0.0348 -1.6859 0.0348v -0.3824 c 0.0000,-0.0348 0.0174,-0.1217 0.1217 -0.1217h 0.4693 c 0.5388,-0.0000 0.5909,-0.2259 0.5909 -0.7300v -1.4426 h -3.4065 c -0.0695,-0.0000 -0.1043,-0.0348 -0.1564 -0.1043l -0.1390,-0.1912 l -0.2086,-0.3650 c -0.0174,-0.0000 -0.0174,-0.0174 -0.0174 -0.0348c 0.0000,-0.0174 0.0174,-0.0348 0.0348 -0.0521c 1.1297,-1.2514 3.1285,-5.1272 3.7542 -6.5524c 0.0174,-0.0695 0.0521,-0.0869 0.1217 -0.0869c 0.0174,-0.0000 0.3997,0.1564 0.6083 0.1912c -0.7821,2.1030 -2.0683,4.3625 -3.3370 6.3786h 2.7461 v -2.6940 Z"/></g><g stroke-linejoin="miter" stroke-opacity="1.0" fill-opacity="1.0" stroke="rgb(102,102,102)" stroke-width="0.0" fill="rgb(0,0,0)" stroke-linecap="butt" stroke-miterlimit="10.0"><path d="M 38.8646,59.3886 c 0.0000,-0.4823 -0.3910,-0.8734 -0.8734 -0.8734c -0.4823,-0.0000 -0.8734,0.3910 -0.8734 0.8734c -0.0000,0.4823 0.3910,0.8734 0.8734 0.8734c 0.4823,0.0000 0.8734,-0.3910 0.8734 -0.8734Z"/></g><g stroke-linejoin="miter" stroke-opacity="1.0" fill-opacity="0.33" stroke="rgb(0,0,0)" fill-rule="evenodd" stroke-width="0.0" fill="rgb(0,0,0)" stroke-linecap="butt" stroke-miterlimit="10.0"><path d="M 28.4755,85.4070 ZM 32.2818,75.9695 c -0.7474,-0.0000 -1.8423,0.7300 -1.8423 4.7796c 0.0000,1.4252 0.2607,4.2929 1.7902 4.2929c 0.2955,-0.0000 1.1297,-0.1912 1.4947 -1.5469c 0.2259,-0.8343 0.3476,-1.8771 0.3476 -3.3892c 0.0000,-2.2073 -0.5562,-3.4413 -1.0602 -3.8758c -0.1912,-0.1738 -0.4519,-0.2607 -0.7300 -0.2607ZM 32.2818,75.9695 ZM 32.2123,85.6156 c -1.8597,-0.0000 -3.1111,-2.3811 -3.1111 -5.0403c 0.0000,-3.2501 1.5469,-5.2141 3.1806 -5.2141c 0.7474,-0.0000 1.4947,0.4693 1.9987 1.1471c 0.7300,0.9733 1.1123,2.2768 1.1123 3.9106c 0.0000,3.8584 -1.9118,5.1967 -3.1806 5.1967ZM 36.0881,85.4070 ZM 37.8957,83.7559 c 0.6952,-0.0000 1.1471,0.6778 1.1471 1.7207c 0.0000,1.2166 -0.8690,1.7902 -1.9118 1.9814l -0.0869,-0.4345 c 0.9038,-0.2259 1.3209,-0.7474 1.3209 -1.1123c 0.0000,-0.3997 -0.2955,-0.4693 -0.6257 -0.5040c -0.3128,-0.0521 -0.7647,-0.1912 -0.7647 -0.7647c 0.0000,-0.4866 0.3824,-0.8864 0.9212 -0.8864ZM 39.8944,85.4070 ZM 43.6486,75.9000 c -0.4345,-0.0000 -1.7033,0.2433 -1.7033 1.3035c 0.0000,0.3128 -0.1217,0.8516 -0.5909 0.8516c -0.4519,-0.0000 -0.4866,-0.5040 -0.4866 -0.5562c 0.0000,-0.5388 0.7126,-2.1378 3.1285 -2.1378c 1.6859,-0.0000 2.1899,1.0602 2.1899 1.7554c 0.0000,0.4345 -0.1390,1.3035 -1.7033 2.2942c 0.9733,0.1564 2.2594,0.8690 2.2594 2.6766c 0.0000,2.2942 -1.7380,3.5282 -3.7020 3.5282c -0.9907,-0.0000 -2.3811,-0.4345 -2.3811 -1.0950c 0.0000,-0.2607 0.2607,-0.5562 0.6083 -0.5562c 0.3302,-0.0000 0.4866,0.1738 0.6431 0.3997c 0.1912,0.2955 0.5040,0.7126 1.3383 0.7126c 0.5736,-0.0000 2.2073,-0.5736 2.2073 -2.7635c 0.0000,-1.8597 -1.3035,-2.1552 -2.2421 -2.1552c -0.1564,-0.0000 -0.3476,0.0348 -0.5388 0.0695l -0.0695,-0.5214 c 1.3383,-0.2259 2.4506,-1.5295 2.4506 -2.3290c 0.0000,-0.9907 -0.6952,-1.4773 -1.4078 -1.4773Z"/></g><g stroke-linejoin="miter" stroke-opacity="1.0" fill-opacity="1.0" stroke="rgb(102,102,102)" stroke-width="0.0" fill="rgb(0,0,0)" stroke-linecap="butt" stroke-miterlimit="10.0"><path d="M 38.8646,94.3231 c 0.0000,-0.4823 -0.3910,-0.8734 -0.8734 -0.8734c -0.4823,-0.0000 -0.8734,0.3910 -0.8734 0.8734c -0.0000,0.4823 0.3910,0.8734 0.8734 0.8734c 0.4823,0.0000 0.8734,-0.3910 0.8734 -0.8734Z"/></g><g stroke-linejoin="miter" stroke-opacity="1.0" fill-opacity="0.33" stroke="rgb(0,0,0)" fill-rule="evenodd" stroke-width="0.0" fill="rgb(0,0,0)" stroke-linecap="butt" stroke-miterlimit="10.0"><path d="M 28.4755,120.3415 ZM 32.2818,110.9040 c -0.7474,-0.0000 -1.8423,0.7300 -1.8423 4.7796c 0.0000,1.4252 0.2607,4.2929 1.7902 4.2929c 0.2955,-0.0000 1.1297,-0.1912 1.4947 -1.5469c 0.2259,-0.8343 0.3476,-1.8771 0.3476 -3.3892c 0.0000,-2.2073 -0.5562,-3.4413 -1.0602 -3.8758c -0.1912,-0.1738 -0.4519,-0.2607 -0.7300 -0.2607ZM 32.2818,110.9040 ZM 32.2123,120.5501 c -1.8597,-0.0000 -3.1111,-2.3811 -3.1111 -5.0403c 0.0000,-3.2501 1.5469,-5.2141 3.1806 -5.2141c 0.7474,-0.0000 1.4947,0.4693 1.9987 1.1471c 0.7300,0.9733 1.1123,2.2768 1.1123 3.9106c 0.0000,3.8584 -1.9118,5.1967 -3.1806 5.1967ZM 36.0881,120.3415 ZM 37.8957,118.6904 c 0.6952,-0.0000 1.1471,0.6778 1.1471 1.7207c 0.0000,1.2166 -0.8690,1.7902 -1.9118 1.9814l -0.0869,-0.4345 c 0.9038,-0.2259 1.3209,-0.7474 1.3209 -1.1123c 0.0000,-0.3997 -0.2955,-0.4693 -0.6257 -0.5040c -0.3128,-0.0521 -0.7647,-0.1912 -0.7647 -0.7647c 0.0000,-0.4866 0.3824,-0.8864 0.9212 -0.8864ZM 39.8944,120.3415 ZM 40.9025,112.6420 c 0.0000,-0.9907 0.9559,-2.3463 2.7809 -2.3463c 1.3383,-0.0000 2.9025,0.5040 2.9025 2.5028c 0.0000,1.3209 -0.6778,1.9814 -1.6164 2.8851l -1.6511,1.5990 c -0.0869,0.0869 -1.2514,1.2340 -1.2514 2.0509h 2.9547 c 0.5909,-0.0000 0.9038,-0.2955 1.1471 -1.2514l 0.4345,0.0695 l -0.3476,2.1899 h -5.3705 c 0.0000,-0.9733 0.1564,-1.7207 1.7728 -3.3718l 1.2166,-1.1992 c 0.9733,-0.9907 1.3730,-1.8423 1.3730 -2.9025c 0.0000,-1.5816 -1.0776,-2.0335 -1.6685 -2.0335c -1.1992,-0.0000 -1.5295,0.6257 -1.5295 1.0428c 0.0000,0.1390 0.0348,0.2781 0.0695 0.3997c 0.0348,0.1217 0.0695,0.2433 0.0695 0.3824c 0.0000,0.4519 -0.3476,0.6257 -0.6257 0.6257c -0.3824,-0.0000 -0.6605,-0.2955 -0.6605 -0.6431Z"/></g><g stroke-linejoin="miter" stroke-opacity="1.0" fill-opacity="1.0" stroke="rgb(102,102,102)" stroke-width="0.0" fill="rgb(0,0,0)" stroke-linecap="butt" stroke-miterlimit="10.0"><path d="M 38.8646,129.2576 c 0.0000,-0.4823 -0.3910,-0.8734 -0.8734 -0.8734c -0.4823,-0.0000 -0.8734,0.3910 -0.8734 0.8734c -0.0000,0.4823 0.3910,0.8734 0.8734 0.8734c 0.4823,0.0000 0.8734,-0.3910 0.8734 -0.8734Z"/></g><g stroke-linejoin="miter" stroke-opacity="1.0" fill-opacity="0.33" stroke="rgb(0,0,0)" fill-rule="evenodd" stroke-width="0.0" fill="rgb(0,0,0)" stroke-linecap="butt" stroke-miterlimit="10.0"><path d="M 28.4755,155.2760 ZM 32.2818,145.8385 c -0.7474,-0.0000 -1.8423,0.7300 -1.8423 4.7796c 0.0000,1.4252 0.2607,4.2929 1.7902 4.2929c 0.2955,-0.0000 1.1297,-0.1912 1.4947 -1.5469c 0.2259,-0.8343 0.3476,-1.8771 0.3476 -3.3892c 0.0000,-2.2073 -0.5562,-3.4413 -1.0602 -3.8758c -0.1912,-0.1738 -0.4519,-0.2607 -0.7300 -0.2607ZM 32.2818,145.8385 ZM 32.2123,155.4846 c -1.8597,-0.0000 -3.1111,-2.3811 -3.1111 -5.0403c 0.0000,-3.2501 1.5469,-5.2141 3.1806 -5.2141c 0.7474,-0.0000 1.4947,0.4693 1.9987 1.1471c 0.7300,0.9733 1.1123,2.2768 1.1123 3.9106c 0.0000,3.8584 -1.9118,5.1967 -3.1806 5.1967ZM 36.0881,155.2760 ZM 37.8957,153.6249 c 0.6952,-0.0000 1.1471,0.6778 1.1471 1.7207c 0.0000,1.2166 -0.8690,1.7902 -1.9118 1.9814l -0.0869,-0.4345 c 0.9038,-0.2259 1.3209,-0.7474 1.3209 -1.1123c 0.0000,-0.3997 -0.2955,-0.4693 -0.6257 -0.5040c -0.3128,-0.0521 -0.7647,-0.1912 -0.7647 -0.7647c 0.0000,-0.4866 0.3824,-0.8864 0.9212 -0.8864ZM 39.8944,155.2760 ZM 43.1619,146.9856 c -0.3302,-0.0000 -1.0950,0.3128 -1.4773 0.4866l -0.2086,-0.5388 c 1.5295,-0.7126 2.1204,-1.0776 2.9894 -1.7033h 0.3302 v 8.7423 c 0.0000,0.6257 0.0869,0.7995 0.6605 0.7995h 0.9038 c 0.0521,-0.0000 0.1390,0.0348 0.1390 0.1390v 0.3824 l -2.3811,-0.0348 l -2.4159,0.0348 v -0.3824 c 0.0174,-0.0521 0.0348,-0.1390 0.1390 -0.1390h 1.0428 c 0.6605,-0.0000 0.6605,-0.2955 0.6605 -0.7995v -5.9788 c 0.0000,-0.5909 0.0000,-1.0081 -0.3824 -1.0081Z"/></g><g stroke-linejoin="miter" stroke-opacity="1.0" fill-opacity="1.0" stroke="rgb(102,102,102)" stroke-width="0.0" fill="rgb(0,0,0)" stroke-linecap="butt" stroke-miterlimit="10.0"><path d="M 38.8646,164.1921 c 0.0000,-0.4823 -0.3910,-0.8734 -0.8734 -0.8734c -0.4823,-0.0000 -0.8734,0.3910 -0.8734 0.8734c -0.0000,0.4823 0.3910,0.8734 0.8734 0.8734c 0.4823,0.0000 0.8734,-0.3910 0.8734 -0.8734Z"/></g><g stroke-linejoin="miter" stroke-opacity="1.0" fill-opacity="0.33" stroke="rgb(0,0,0)" fill-rule="evenodd" stroke-width="0.0" fill="rgb(0,0,0)" stroke-linecap="butt" stroke-miterlimit="10.0"><path d="M 28.4755,190.2105 ZM 32.2818,180.7730 c -0.7474,-0.0000 -1.8423,0.7300 -1.8423 4.7796c 0.0000,1.4252 0.2607,4.2929 1.7902 4.2929c 0.2955,-0.0000 1.1297,-0.1912 1.4947 -1.5469c 0.2259,-0.8343 0.3476,-1.8771 0.3476 -3.3892c 0.0000,-2.2073 -0.5562,-3.4413 -1.0602 -3.8758c -0.1912,-0.1738 -0.4519,-0.2607 -0.7300 -0.2607ZM 32.2818,180.7730 ZM 32.2123,190.4191 c -1.8597,-0.0000 -3.1111,-2.3811 -3.1111 -5.0403c 0.0000,-3.2501 1.5469,-5.2141 3.1806 -5.2141c 0.7474,-0.0000 1.4947,0.4693 1.9987 1.1471c 0.7300,0.9733 1.1123,2.2768 1.1123 3.9106c 0.0000,3.8584 -1.9118,5.1967 -3.1806 5.1967ZM 36.0881,190.2105 ZM 37.8957,188.5594 c 0.6952,-0.0000 1.1471,0.6778 1.1471 1.7207c 0.0000,1.2166 -0.8690,1.7902 -1.9118 1.9814l -0.0869,-0.4345 c 0.9038,-0.2259 1.3209,-0.7474 1.3209 -1.1123c 0.0000,-0.3997 -0.2955,-0.4693 -0.6257 -0.5040c -0.3128,-0.0521 -0.7647,-0.1912 -0.7647 -0.7647c 0.0000,-0.4866 0.3824,-0.8864 0.9212 -0.8864ZM 39.8944,190.2105 ZM 43.7007,180.7730 c -0.7474,-0.0000 -1.8423,0.7300 -1.8423 4.7796c 0.0000,1.4252 0.2607,4.2929 1.7902 4.2929c 0.2955,-0.0000 1.1297,-0.1912 1.4947 -1.5469c 0.2259,-0.8343 0.3476,-1.8771 0.3476 -3.3892c 0.0000,-2.2073 -0.5562,-3.4413 -1.0602 -3.8758c -0.1912,-0.1738 -0.4519,-0.2607 -0.7300 -0.2607ZM 43.7007,180.7730 ZM 43.6312,190.4191 c -1.8597,-0.0000 -3.1111,-2.3811 -3.1111 -5.0403c 0.0000,-3.2501 1.5469,-5.2141 3.1806 -5.2141c 0.7474,-0.0000 1.4947,0.4693 1.9987 1.1471c 0.7300,0.9733 1.1123,2.2768 1.1123 3.9106c 0.0000,3.8584 -1.9118,5.1967 -3.1806 5.1967Z"/></g><g stroke-linejoin="miter" stroke-opacity="1.0" fill-opacity="1.0" stroke="rgb(102,102,102)" stroke-width="0.0" fill="rgb(0,0,0)" stroke-linecap="butt" stroke-miterlimit="10.0"><path d="M 38.8646,199.1266 c 0.0000,-0.4823 -0.3910,-0.8734 -0.8734 -0.8734c -0.4823,-0.0000 -0.8734,0.3910 -0.8734 0.8734c -0.0000,0.4823 0.3910,0.8734 0.8734 0.8734c 0.4823,0.0000 0.8734,-0.3910 0.8734 -0.8734Z"/></g></svg>