<?xml version="1.0" encoding="UTF-8"?>
<!DOCTYPE svg PUBLIC "-//W3C//DTD SVG 1.1//EN"
    "http://www.w3.org/Graphics/SVG/1.1/DTD/svg11.dtd"><svg xmlns="http://www.w3.org/2000/svg" height="100.0000" stroke-opacity="1" viewBox="0 0 400 100" font-size="1" width="400.0000" xmlns:xlink="http://www.w3.org/1999/xlink" stroke="rgb(0,0,0)" version="1.1"><defs></defs><g stroke-linejoin="miter" stroke-opacity="1.0" fill-opacity="0.33" stroke="rgb(0,0,0)" fill-rule="evenodd" stroke-width="0.0" fill="rgb(0,0,0)" stroke-linecap="butt" stroke-miterlimit="10.0"><path d="M 322.3780,55.2562 ZM 325.6187,47.0339 c -0.3275,-0.0000 -1.0860,0.3103 -1.4652 0.4827l -0.2069,-0.5344 c 1.5169,-0.7067 2.1030,-1.0687 2.9649 -1.6893h 0.3275 v 8.6705 c 0.0000,0.6206 0.0862,0.7929 0.6550 0.7929h 0.8964 c 0.0517,-0.0000 0.1379,0.0345 0.1379 0.1379v 0.3792 l -2.3615,-0.0345 l -2.3960,0.0345 v -0.3792 c 0.0172,-0.0517 0.0345,-0.1379 0.1379 -0.1379h 1.0343 c 0.6550,-0.0000 0.6550,-0.2930 0.6550 -0.7929v -5.9297 c 0.0000,-0.5861 0.0000,-0.9998 -0.3792 -0.9998ZM 329.9281,55.2562 ZM 333.7031,45.8962 c -0.7412,-0.0000 -1.8272,0.7240 -1.8272 4.7403c 0.0000,1.4135 0.2586,4.2577 1.7755 4.2577c 0.2930,-0.0000 1.1204,-0.1896 1.4824 -1.5341c 0.2241,-0.8274 0.3448,-1.8617 0.3448 -3.3613c 0.0000,-2.1892 -0.5516,-3.4130 -1.0515 -3.8440c -0.1896,-0.1724 -0.4482,-0.2586 -0.7240 -0.2586ZM 333.7031,45.8962 ZM 333.6342,55.4630 c -1.8444,-0.0000 -3.0855,-2.3615 -3.0855 -4.9989c 0.0000,-3.2234 1.5341,-5.1713 3.1545 -5.1713c 0.7412,-0.0000 1.4824,0.4654 1.9823 1.1377c 0.7240,0.9653 1.1032,2.2581 1.1032 3.8785c 0.0000,3.8267 -1.8961,5.1540 -3.1545 5.1540Z"/></g><g stroke-linejoin="miter" stroke-opacity="1.0" fill-opacity="0.5" stroke="rgb(102,102,102)" stroke-width="2.489491900092669" fill="rgb(93,165,218)" stroke-linecap="butt" stroke-miterlimit="10.0"><path d="M 337.7238,81.4228 c 0.0000,-4.3054 -3.4902,-7.7957 -7.7957 -7.7957c -4.3054,-0.0000 -7.7957,3.4902 -7.7957 7.7957c -0.0000,4.3054 3.4902,7.7957 7.7957 7.7957c 4.3054,0.0000 7.7957,-3.4902 7.7957 -7.7957Z"/></g><g stroke-linejoin="miter" stroke-opacity="1.0" fill-opacity="0.33" stroke="rgb(0,0,0)" fill-rule="evenodd" stroke-width="0.0" fill="rgb(0,0,0)" stroke-linecap="butt" stroke-miterlimit="10.0"><path d="M 300.1674,30.4103 ZM 305.6662,25.1701 c 0.0000,-0.1724 0.0172,-0.4309 0.0172 -0.6033c 0.0000,-2.8959 -1.2928,-3.6199 -2.1719 -3.6199c -0.7929,-0.0000 -1.6203,0.7412 -1.6203 2.5339c 0.0000,0.8274 0.4137,2.4650 2.0513 2.4650c 0.3620,-0.0000 1.0170,-0.0345 1.7238 -0.7757ZM 305.6662,25.1701 ZM 301.1328,30.1690 c 1.1377,-0.1034 2.0857,-0.3965 2.9304 -1.2066c 0.7757,-0.7757 1.3445,-1.9306 1.5514 -3.3096c -0.3965,0.4827 -1.3618,0.8446 -1.9996 0.8446c -2.5512,-0.0000 -2.8959,-2.1030 -2.8959 -2.8959c 0.0000,-1.1722 0.5861,-3.1545 2.9649 -3.1545c 1.2756,-0.0000 3.1889,0.7412 3.1889 4.1715c 0.0000,1.5859 -0.5516,3.1372 -1.7238 4.3266c -1.1032,1.1204 -2.2754,1.5859 -3.9646 1.6720Z"/></g><g stroke-linejoin="miter" stroke-opacity="1.0" fill-opacity="0.5" stroke="rgb(102,102,102)" stroke-width="2.489491900092669" fill="rgb(93,165,218)" stroke-linecap="butt" stroke-miterlimit="10.0"><path d="M 311.7382,56.5769 c 0.0000,-4.3054 -3.4902,-7.7957 -7.7957 -7.7957c -4.3054,-0.0000 -7.7957,3.4902 -7.7957 7.7957c -0.0000,4.3054 3.4902,7.7957 7.7957 7.7957c 4.3054,0.0000 7.7957,-3.4902 7.7957 -7.7957Z"/></g><g stroke-linejoin="miter" stroke-opacity="1.0" fill-opacity="0.33" stroke="rgb(0,0,0)" fill-rule="evenodd" stroke-width="0.0" fill="rgb(0,0,0)" stroke-linecap="butt" stroke-miterlimit="10.0"><path d="M 274.1818,15.4104 ZM 278.0086,5.8608 c -0.9825,-0.0000 -1.6203,0.7757 -1.6203 1.5341c 0.0000,0.4999 0.2069,1.1032 1.2411 1.7755l 0.4999,0.3103 c 0.4482,-0.3275 1.4997,-1.1204 1.4997 -1.9996c 0.0000,-0.7585 -0.5516,-1.6203 -1.6203 -1.6203ZM 278.0086,5.8608 ZM 280.6459,7.4983 c 0.0000,1.0515 -1.1894,1.8789 -1.9134 2.3615l 0.9998,0.6550 c 0.8446,0.5516 1.2756,1.3101 1.2756 2.2581c 0.0000,1.2411 -1.0170,2.8442 -3.1545 2.8442c -1.7238,-0.0000 -2.9131,-0.9136 -2.9131 -2.5856c 0.0000,-0.6378 0.2758,-1.3790 0.9481 -1.9651c 0.4137,-0.3620 0.7757,-0.6723 1.1894 -0.9825l -0.2930,-0.1724 c -0.9998,-0.6206 -1.4997,-1.2928 -1.4997 -2.2064c 0.0000,-1.2583 1.1377,-2.2581 2.8097 -2.2581c 1.6031,-0.0000 2.5512,0.8791 2.5512 2.0513ZM 280.6459,7.4983 ZM 277.8879,15.1346 c 0.7412,-0.0000 2.0340,-0.3965 2.0340 -2.0340c 0.0000,-0.7757 -0.4827,-1.5514 -1.4997 -2.1719l -0.7585,-0.4654 c -1.3962,0.9308 -1.7065,2.0857 -1.7065 2.5684c 0.0000,1.4652 1.1894,2.1030 1.9306 2.1030Z"/></g><g stroke-linejoin="miter" stroke-opacity="1.0" fill-opacity="0.5" stroke="rgb(102,102,102)" stroke-width="2.489491900092669" fill="rgb(93,165,218)" stroke-linecap="butt" stroke-miterlimit="10.0"><path d="M 285.7525,41.5770 c 0.0000,-4.3054 -3.4902,-7.7957 -7.7957 -7.7957c -4.3054,-0.0000 -7.7957,3.4902 -7.7957 7.7957c -0.0000,4.3054 3.4902,7.7957 7.7957 7.7957c 4.3054,0.0000 7.7957,-3.4902 7.7957 -7.7957Z"/></g><g stroke-linejoin="miter" stroke-opacity="1.0" fill-opacity="0.33" stroke="rgb(0,0,0)" fill-rule="evenodd" stroke-width="0.0" fill="rgb(0,0,0)" stroke-linecap="butt" stroke-miterlimit="10.0"><path d="M 248.1962,24.0473 ZM 250.7818,15.2906 c -0.7585,-0.0000 -1.0170,0.3103 -1.3445 1.1894l -0.4482,-0.0690 c 0.2069,-0.7067 0.3792,-1.3618 0.4309 -2.3271h 0.3620 c 0.0690,0.1034 0.1207,0.1896 0.5171 0.1896h 3.2751 c 0.6206,-0.0000 0.9825,-0.0172 1.2583 -0.1034l 0.2586,0.1207 c -1.8272,4.4473 -2.7925,7.1363 -3.7233 9.9116l -1.1204,0.0517 l -0.0517,-0.1034 c 1.1032,-2.4822 2.4133,-5.6884 3.6888 -8.8601h -3.1028 Z"/></g><g stroke-linejoin="miter" stroke-opacity="1.0" fill-opacity="0.5" stroke="rgb(102,102,102)" stroke-width="2.489491900092669" fill="rgb(93,165,218)" stroke-linecap="butt" stroke-miterlimit="10.0"><path d="M 259.7669,50.2139 c 0.0000,-4.3054 -3.4902,-7.7957 -7.7957 -7.7957c -4.3054,-0.0000 -7.7957,3.4902 -7.7957 7.7957c -0.0000,4.3054 3.4902,7.7957 7.7957 7.7957c 4.3054,0.0000 7.7957,-3.4902 7.7957 -7.7957Z"/></g><g stroke-linejoin="miter" stroke-opacity="1.0" fill-opacity="0.33" stroke="rgb(0,0,0)" fill-rule="evenodd" stroke-width="0.0" fill="rgb(0,0,0)" stroke-linecap="butt" stroke-miterlimit="10.0"><path d="M 222.2106,48.3802 ZM 224.2101,43.8640 c -0.0172,0.1724 -0.0172,0.4309 -0.0172 0.6033c 0.0000,2.8959 1.2928,3.6199 2.1547 3.6199c 0.7929,-0.0000 1.6376,-0.7412 1.6376 -2.5339c 0.0000,-0.8102 -0.4137,-2.4650 -2.0685 -2.4650c -0.3620,-0.0000 -1.0170,0.0345 -1.7065 0.7757ZM 224.2101,43.8640 ZM 228.7264,38.8651 c -1.1204,0.1034 -2.0857,0.3965 -2.9131 1.2066c -0.7929,0.7757 -1.3618,1.9306 -1.5514 3.3096c 0.3965,-0.4827 1.3445,-0.8446 1.9996 -0.8446c 2.5512,-0.0000 2.8787,2.1030 2.8787 2.8959c 0.0000,1.1722 -0.5861,3.1545 -2.9649 3.1545c -1.2583,-0.0000 -3.1717,-0.7412 -3.1717 -4.1715c 0.0000,-1.5859 0.5344,-3.1372 1.7238 -4.3266c 1.1032,-1.1204 2.2581,-1.5859 3.9474 -1.6720Z"/></g><g stroke-linejoin="miter" stroke-opacity="1.0" fill-opacity="0.5" stroke="rgb(102,102,102)" stroke-width="2.489491900092669" fill="rgb(93,165,218)" stroke-linecap="butt" stroke-miterlimit="10.0"><path d="M 233.7813,74.5469 c 0.0000,-4.3054 -3.4902,-7.7957 -7.7957 -7.7957c -4.3054,-0.0000 -7.7957,3.4902 -7.7957 7.7957c -0.0000,4.3054 3.4902,7.7957 7.7957 7.7957c 4.3054,0.0000 7.7957,-3.4902 7.7957 -7.7957Z"/></g><g stroke-linejoin="miter" stroke-opacity="1.0" fill-opacity="0.33" stroke="rgb(0,0,0)" fill-rule="evenodd" stroke-width="0.0" fill="rgb(0,0,0)" stroke-linecap="butt" stroke-miterlimit="10.0"><path d="M 196.2250,66.0377 ZM 201.5514,63.1246 c 0.0000,-1.7755 -0.9653,-2.6546 -2.0340 -2.6546c -0.7929,-0.0000 -1.3962,0.1207 -2.0685 0.3965l 0.5516,-4.7059 c 0.5688,0.0517 1.1549,0.0690 1.7582 0.0690c 0.8619,-0.0000 1.7582,-0.0517 2.6891 -0.1551l 0.1034,0.0517 l -0.2586,1.1204 c -0.6723,0.0690 -1.2239,0.0862 -1.7065 0.0862c -0.7757,-0.0000 -1.3618,-0.0690 -1.9651 -0.1379l -0.3275,2.7235 c 0.3620,-0.1379 0.9825,-0.2586 1.6548 -0.2586c 1.8272,-0.0000 2.8442,1.5859 2.8442 3.1717c 0.0000,1.9306 -1.3445,3.4130 -3.2924 3.4130c -0.9825,-0.0000 -2.4133,-0.5516 -2.4133 -1.2239c 0.0000,-0.3275 0.2758,-0.5516 0.5861 -0.5516c 0.3448,-0.0000 0.5688,0.2586 0.7757 0.5344c 0.2586,0.3103 0.5344,0.6550 1.0860 0.6550c 1.1032,-0.0000 2.0168,-1.0343 2.0168 -2.5339Z"/></g><g stroke-linejoin="miter" stroke-opacity="1.0" fill-opacity="0.5" stroke="rgb(102,102,102)" stroke-width="2.489491900092669" fill="rgb(93,165,218)" stroke-linecap="butt" stroke-miterlimit="10.0"><path d="M 207.7957,92.2043 c 0.0000,-4.3054 -3.4902,-7.7957 -7.7957 -7.7957c -4.3054,-0.0000 -7.7957,3.4902 -7.7957 7.7957c -0.0000,4.3054 3.4902,7.7957 7.7957 7.7957c 4.3054,0.0000 7.7957,-3.4902 7.7957 -7.7957Z"/></g><g stroke-linejoin="miter" stroke-opacity="1.0" fill-opacity="0.33" stroke="rgb(0,0,0)" fill-rule="evenodd" stroke-width="0.0" fill="rgb(0,0,0)" stroke-linecap="butt" stroke-miterlimit="10.0"><path d="M 170.2394,60.7854 ZM 174.6866,54.6661 c 0.0000,-0.1207 0.0172,-0.2586 0.1724 -0.3448c 0.1896,-0.1379 0.4999,-0.2930 0.7585 -0.2930c 0.2241,-0.0000 0.2413,0.1896 0.2413 0.5344v 2.7752 h 1.3962 l -0.1034,0.8102 h -1.2928 v 1.4307 c 0.0000,0.4827 0.0690,0.7240 0.5688 0.7240h 0.4654 c 0.1034,-0.0000 0.1207,0.0862 0.1207 0.1207v 0.3792 c 0.0000,-0.0000 -1.1032,-0.0345 -1.8272 -0.0345c -0.6550,-0.0000 -1.6720,0.0345 -1.6720 0.0345v -0.3792 c 0.0000,-0.0345 0.0172,-0.1207 0.1207 -0.1207h 0.4654 c 0.5344,-0.0000 0.5861,-0.2241 0.5861 -0.7240v -1.4307 h -3.3786 c -0.0690,-0.0000 -0.1034,-0.0345 -0.1551 -0.1034l -0.1379,-0.1896 l -0.2069,-0.3620 c -0.0172,-0.0000 -0.0172,-0.0172 -0.0172 -0.0345c 0.0000,-0.0172 0.0172,-0.0345 0.0345 -0.0517c 1.1204,-1.2411 3.1028,-5.0851 3.7233 -6.4986c 0.0172,-0.0690 0.0517,-0.0862 0.1207 -0.0862c 0.0172,-0.0000 0.3965,0.1551 0.6033 0.1896c -0.7757,2.0857 -2.0513,4.3266 -3.3096 6.3262h 2.7235 v -2.6718 Z"/></g><g stroke-linejoin="miter" stroke-opacity="1.0" fill-opacity="0.5" stroke="rgb(102,102,102)" stroke-width="2.489491900092669" fill="rgb(93,165,218)" stroke-linecap="butt" stroke-miterlimit="10.0"><path d="M 181.8101,86.9521 c 0.0000,-4.3054 -3.4902,-7.7957 -7.7957 -7.7957c -4.3054,-0.0000 -7.7957,3.4902 -7.7957 7.7957c -0.0000,4.3054 3.4902,7.7957 7.7957 7.7957c 4.3054,0.0000 7.7957,-3.4902 7.7957 -7.7957Z"/></g><g stroke-linejoin="miter" stroke-opacity="1.0" fill-opacity="0.33" stroke="rgb(0,0,0)" fill-rule="evenodd" stroke-width="0.0" fill="rgb(0,0,0)" stroke-linecap="butt" stroke-miterlimit="10.0"><path d="M 144.2537,37.4524 ZM 147.9771,28.0234 c -0.4309,-0.0000 -1.6893,0.2413 -1.6893 1.2928c 0.0000,0.3103 -0.1207,0.8446 -0.5861 0.8446c -0.4482,-0.0000 -0.4827,-0.4999 -0.4827 -0.5516c 0.0000,-0.5344 0.7067,-2.1202 3.1028 -2.1202c 1.6720,-0.0000 2.1719,1.0515 2.1719 1.7410c 0.0000,0.4309 -0.1379,1.2928 -1.6893 2.2754c 0.9653,0.1551 2.2409,0.8619 2.2409 2.6546c 0.0000,2.2754 -1.7238,3.4992 -3.6716 3.4992c -0.9825,-0.0000 -2.3615,-0.4309 -2.3615 -1.0860c 0.0000,-0.2586 0.2586,-0.5516 0.6033 -0.5516c 0.3275,-0.0000 0.4827,0.1724 0.6378 0.3965c 0.1896,0.2930 0.4999,0.7067 1.3273 0.7067c 0.5688,-0.0000 2.1892,-0.5688 2.1892 -2.7408c 0.0000,-1.8444 -1.2928,-2.1375 -2.2236 -2.1375c -0.1551,-0.0000 -0.3448,0.0345 -0.5344 0.0690l -0.0690,-0.5171 c 1.3273,-0.2241 2.4305,-1.5169 2.4305 -2.3098c 0.0000,-0.9825 -0.6895,-1.4652 -1.3962 -1.4652Z"/></g><g stroke-linejoin="miter" stroke-opacity="1.0" fill-opacity="0.5" stroke="rgb(102,102,102)" stroke-width="2.489491900092669" fill="rgb(93,165,218)" stroke-linecap="butt" stroke-miterlimit="10.0"><path d="M 155.8244,63.6190 c 0.0000,-4.3054 -3.4902,-7.7957 -7.7957 -7.7957c -4.3054,-0.0000 -7.7957,3.4902 -7.7957 7.7957c -0.0000,4.3054 3.4902,7.7957 7.7957 7.7957c 4.3054,0.0000 7.7957,-3.4902 7.7957 -7.7957Z"/></g><g stroke-linejoin="miter" stroke-opacity="1.0" fill-opacity="0.33" stroke="rgb(0,0,0)" fill-rule="evenodd" stroke-width="0.0" fill="rgb(0,0,0)" stroke-linecap="butt" stroke-miterlimit="10.0"><path d="M 118.2681,17.4908 ZM 119.2679,9.8546 c 0.0000,-0.9825 0.9481,-2.3271 2.7580 -2.3271c 1.3273,-0.0000 2.8787,0.4999 2.8787 2.4822c 0.0000,1.3101 -0.6723,1.9651 -1.6031 2.8614l -1.6376,1.5859 c -0.0862,0.0862 -1.2411,1.2239 -1.2411 2.0340h 2.9304 c 0.5861,-0.0000 0.8964,-0.2930 1.1377 -1.2411l 0.4309,0.0690 l -0.3448,2.1719 h -5.3264 c 0.0000,-0.9653 0.1551,-1.7065 1.7582 -3.3441l 1.2066,-1.1894 c 0.9653,-0.9825 1.3618,-1.8272 1.3618 -2.8787c 0.0000,-1.5686 -1.0687,-2.0168 -1.6548 -2.0168c -1.1894,-0.0000 -1.5169,0.6206 -1.5169 1.0343c 0.0000,0.1379 0.0345,0.2758 0.0690 0.3965c 0.0345,0.1207 0.0690,0.2413 0.0690 0.3792c 0.0000,0.4482 -0.3448,0.6206 -0.6206 0.6206c -0.3792,-0.0000 -0.6550,-0.2930 -0.6550 -0.6378Z"/></g><g stroke-linejoin="miter" stroke-opacity="1.0" fill-opacity="0.5" stroke="rgb(102,102,102)" stroke-width="2.489491900092669" fill="rgb(93,165,218)" stroke-linecap="butt" stroke-miterlimit="10.0"><path d="M 129.8388,43.6574 c 0.0000,-4.3054 -3.4902,-7.7957 -7.7957 -7.7957c -4.3054,-0.0000 -7.7957,3.4902 -7.7957 7.7957c -0.0000,4.3054 3.4902,7.7957 7.7957 7.7957c 4.3054,0.0000 7.7957,-3.4902 7.7957 -7.7957Z"/></g><g stroke-linejoin="miter" stroke-opacity="1.0" fill-opacity="0.33" stroke="rgb(0,0,0)" fill-rule="evenodd" stroke-width="0.0" fill="rgb(0,0,0)" stroke-linecap="butt" stroke-miterlimit="10.0"><path d="M 92.2825,19.2533 ZM 95.5232,11.0310 c -0.3275,-0.0000 -1.0860,0.3103 -1.4652 0.4827l -0.2069,-0.5344 c 1.5169,-0.7067 2.1030,-1.0687 2.9649 -1.6893h 0.3275 v 8.6705 c 0.0000,0.6206 0.0862,0.7929 0.6550 0.7929h 0.8964 c 0.0517,-0.0000 0.1379,0.0345 0.1379 0.1379v 0.3792 l -2.3615,-0.0345 l -2.3960,0.0345 v -0.3792 c 0.0172,-0.0517 0.0345,-0.1379 0.1379 -0.1379h 1.0343 c 0.6550,-0.0000 0.6550,-0.2930 0.6550 -0.7929v -5.9297 c 0.0000,-0.5861 0.0000,-0.9998 -0.3792 -0.9998Z"/></g><g stroke-linejoin="miter" stroke-opacity="1.0" fill-opacity="0.5" stroke="rgb(102,102,102)" stroke-width="2.489491900092669" fill="rgb(93,165,218)" stroke-linecap="butt" stroke-miterlimit="10.0"><path d="M 103.8532,45.4199 c 0.0000,-4.3054 -3.4902,-7.7957 -7.7957 -7.7957c -4.3054,-0.0000 -7.7957,3.4902 -7.7957 7.7957c -0.0000,4.3054 3.4902,7.7957 7.7957 7.7957c 4.3054,0.0000 7.7957,-3.4902 7.7957 -7.7957Z"/></g><g stroke-linejoin="miter" stroke-opacity="1.0" fill-opacity="0.33" stroke="rgb(0,0,0)" fill-rule="evenodd" stroke-width="0.0" fill="rgb(0,0,0)" stroke-linecap="butt" stroke-miterlimit="10.0"><path d="M 66.2969,41.1195 ZM 70.0719,31.7595 c -0.7412,-0.0000 -1.8272,0.7240 -1.8272 4.7403c 0.0000,1.4135 0.2586,4.2577 1.7755 4.2577c 0.2930,-0.0000 1.1204,-0.1896 1.4824 -1.5341c 0.2241,-0.8274 0.3448,-1.8617 0.3448 -3.3613c 0.0000,-2.1892 -0.5516,-3.4130 -1.0515 -3.8440c -0.1896,-0.1724 -0.4482,-0.2586 -0.7240 -0.2586ZM 70.0719,31.7595 ZM 70.0030,41.3263 c -1.8444,-0.0000 -3.0855,-2.3615 -3.0855 -4.9989c 0.0000,-3.2234 1.5341,-5.1713 3.1545 -5.1713c 0.7412,-0.0000 1.4824,0.4654 1.9823 1.1377c 0.7240,0.9653 1.1032,2.2581 1.1032 3.8785c 0.0000,3.8267 -1.8961,5.1540 -3.1545 5.1540Z"/></g><g stroke-linejoin="miter" stroke-opacity="1.0" fill-opacity="0.5" stroke="rgb(102,102,102)" stroke-width="2.489491900092669" fill="rgb(93,165,218)" stroke-linecap="butt" stroke-miterlimit="10.0"><path d="M 77.8676,67.2861 c 0.0000,-4.3054 -3.4902,-7.7957 -7.7957 -7.7957c -4.3054,-0.0000 -7.7957,3.4902 -7.7957 7.7957c -0.0000,4.3054 3.4902,7.7957 7.7957 7.7957c 4.3054,0.0000 7.7957,-3.4902 7.7957 -7.7957Z"/></g></svg>