<?xml version="1.0" encoding="UTF-8"?>
<!DOCTYPE svg PUBLIC "-//W3C//DTD SVG 1.1//EN"
    "http://www.w3.org/Graphics/SVG/1.1/DTD/svg11.dtd"><svg xmlns="http://www.w3.org/2000/svg" height="200.0000" stroke-opacity="1" viewBox="0 0 200 200" font-size="1" width="200.0000" xmlns:xlink="http://www.w3.org/1999/xlink" stroke="rgb(0,0,0)" version="1.1"><defs></defs><defs></defs><g stroke-linejoin="miter" stroke-opacity="0.0" fill-opacity="0.5" stroke="rgb(0,0,0)" stroke-width="0.0" fill="rgb(94,19,94)" stroke-linecap="butt" stroke-miterlimit="10.0"><path d="M 31.5018,168.4982 l -0.0000,-146.5201 h -2.9304 l -0.0000,146.5201 Z"/></g><defs></defs><g stroke-linejoin="miter" stroke-opacity="1.0" fill-opacity="0.7" font-size="5.86080586080586px" stroke="rgb(0,0,0)" stroke-width="0.8" fill="rgb(30,30,30)" stroke-linecap="butt" stroke-miterlimit="10.0"><text dominant-baseline="middle" transform="matrix(1.0000,0.0000,0.0000,1.0000,24.1758,21.9780)" stroke="none" text-anchor="end">   -5.2</text></g><defs></defs><g stroke-linejoin="miter" stroke-opacity="0.5" fill-opacity="0.0" stroke="rgb(0,102,200)" stroke-width="0.8" fill="rgb(0,0,0)" stroke-linecap="butt" stroke-miterlimit="10.0"><path d="M 27.1062,21.9780 h 2.9304 "/></g><defs></defs><g stroke-linejoin="miter" stroke-opacity="1.0" fill-opacity="0.7" font-size="5.86080586080586px" stroke="rgb(0,0,0)" stroke-width="0.8" fill="rgb(30,30,30)" stroke-linecap="butt" stroke-miterlimit="10.0"><text dominant-baseline="middle" transform="matrix(1.0000,0.0000,0.0000,1.0000,24.1758,40.2930)" stroke="none" text-anchor="end">   -5.3</text></g><defs></defs><g stroke-linejoin="miter" stroke-opacity="0.5" fill-opacity="0.0" stroke="rgb(0,102,200)" stroke-width="0.8" fill="rgb(0,0,0)" stroke-linecap="butt" stroke-miterlimit="10.0"><path d="M 27.1062,40.2930 h 2.9304 "/></g><defs></defs><g stroke-linejoin="miter" stroke-opacity="1.0" fill-opacity="0.7" font-size="5.86080586080586px" stroke="rgb(0,0,0)" stroke-width="0.8" fill="rgb(30,30,30)" stroke-linecap="butt" stroke-miterlimit="10.0"><text dominant-baseline="middle" transform="matrix(1.0000,0.0000,0.0000,1.0000,24.1758,58.6081)" stroke="none" text-anchor="end">   -5.4</text></g><defs></defs><g stroke-linejoin="miter" stroke-opacity="0.5" fill-opacity="0.0" stroke="rgb(0,102,200)" stroke-width="0.8" fill="rgb(0,0,0)" stroke-linecap="butt" stroke-miterlimit="10.0"><path d="M 27.1062,58.6081 h 2.9304 "/></g><defs></defs><g stroke-linejoin="miter" stroke-opacity="1.0" fill-opacity="0.7" font-size="5.86080586080586px" stroke="rgb(0,0,0)" stroke-width="0.8" fill="rgb(30,30,30)" stroke-linecap="butt" stroke-miterlimit="10.0"><text dominant-baseline="middle" transform="matrix(1.0000,0.0000,0.0000,1.0000,24.1758,76.9231)" stroke="none" text-anchor="end">   -5.5</text></g><defs></defs><g stroke-linejoin="miter" stroke-opacity="0.5" fill-opacity="0.0" stroke="rgb(0,102,200)" stroke-width="0.8" fill="rgb(0,0,0)" stroke-linecap="butt" stroke-miterlimit="10.0"><path d="M 27.1062,76.9231 h 2.9304 "/></g><defs></defs><g stroke-linejoin="miter" stroke-opacity="1.0" fill-opacity="0.7" font-size="5.86080586080586px" stroke="rgb(0,0,0)" stroke-width="0.8" fill="rgb(30,30,30)" stroke-linecap="butt" stroke-miterlimit="10.0"><text dominant-baseline="middle" transform="matrix(1.0000,0.0000,0.0000,1.0000,24.1758,95.2381)" stroke="none" text-anchor="end">   -5.6</text></g><defs></defs><g stroke-linejoin="miter" stroke-opacity="0.5" fill-opacity="0.0" stroke="rgb(0,102,200)" stroke-width="0.8" fill="rgb(0,0,0)" stroke-linecap="butt" stroke-miterlimit="10.0"><path d="M 27.1062,95.2381 h 2.9304 "/></g><defs></defs><g stroke-linejoin="miter" stroke-opacity="1.0" fill-opacity="0.7" font-size="5.86080586080586px" stroke="rgb(0,0,0)" stroke-width="0.8" fill="rgb(30,30,30)" stroke-linecap="butt" stroke-miterlimit="10.0"><text dominant-baseline="middle" transform="matrix(1.0000,0.0000,0.0000,1.0000,24.1758,113.5531)" stroke="none" text-anchor="end">   -5.7</text></g><defs></defs><g stroke-linejoin="miter" stroke-opacity="0.5" fill-opacity="0.0" stroke="rgb(0,102,200)" stroke-width="0.8" fill="rgb(0,0,0)" stroke-linecap="butt" stroke-miterlimit="10.0"><path d="M 27.1062,113.5531 h 2.9304 "/></g><defs></defs><g stroke-linejoin="miter" stroke-opacity="1.0" fill-opacity="0.7" font-size="5.86080586080586px" stroke="rgb(0,0,0)" stroke-width="0.8" fill="rgb(30,30,30)" stroke-linecap="butt" stroke-miterlimit="10.0"><text dominant-baseline="middle" transform="matrix(1.0000,0.0000,0.0000,1.0000,24.1758,131.8681)" stroke="none" text-anchor="end">   -5.8</text></g><defs></defs><g stroke-linejoin="miter" stroke-opacity="0.5" fill-opacity="0.0" stroke="rgb(0,102,200)" stroke-width="0.8" fill="rgb(0,0,0)" stroke-linecap="butt" stroke-miterlimit="10.0"><path d="M 27.1062,131.8681 h 2.9304 "/></g><defs></defs><g stroke-linejoin="miter" stroke-opacity="1.0" fill-opacity="0.7" font-size="5.86080586080586px" stroke="rgb(0,0,0)" stroke-width="0.8" fill="rgb(30,30,30)" stroke-linecap="butt" stroke-miterlimit="10.0"><text dominant-baseline="middle" transform="matrix(1.0000,0.0000,0.0000,1.0000,24.1758,150.1832)" stroke="none" text-anchor="end">   -5.9</text></g><defs></defs><g stroke-linejoin="miter" stroke-opacity="0.5" fill-opacity="0.0" stroke="rgb(0,102,200)" stroke-width="0.8" fill="rgb(0,0,0)" stroke-linecap="butt" stroke-miterlimit="10.0"><path d="M 27.1062,150.1832 h 2.9304 "/></g><defs></defs><g stroke-linejoin="miter" stroke-opacity="1.0" fill-opacity="0.7" font-size="5.86080586080586px" stroke="rgb(0,0,0)" stroke-width="0.8" fill="rgb(30,30,30)" stroke-linecap="butt" stroke-miterlimit="10.0"><text dominant-baseline="middle" transform="matrix(1.0000,0.0000,0.0000,1.0000,24.1758,168.4982)" stroke="none" text-anchor="end">   -6.0</text></g><defs></defs><g stroke-linejoin="miter" stroke-opacity="0.5" fill-opacity="0.0" stroke="rgb(0,102,200)" stroke-width="0.8" fill="rgb(0,0,0)" stroke-linecap="butt" stroke-miterlimit="10.0"><path d="M 27.1062,168.4982 h 2.9304 "/></g><defs></defs><g stroke-linejoin="miter" stroke-opacity="0.0" fill-opacity="0.5" stroke="rgb(0,0,0)" stroke-width="0.0" fill="rgb(94,19,94)" stroke-linecap="butt" stroke-miterlimit="10.0"><path d="M 178.0220,171.4286 l -0.0000,-2.9304 h -146.5201 l -0.0000,2.9304 Z"/></g><defs></defs><g stroke-linejoin="miter" stroke-opacity="1.0" fill-opacity="0.7" font-size="5.86080586080586px" stroke="rgb(0,0,0)" stroke-width="0.8" fill="rgb(30,30,30)" stroke-linecap="butt" stroke-miterlimit="10.0"><text dominant-baseline="text-before-edge" transform="matrix(1.0000,0.0000,0.0000,1.0000,178.0220,175.8242)" stroke="none" text-anchor="middle">   -2.2</text></g><defs></defs><g stroke-linejoin="miter" stroke-opacity="0.5" fill-opacity="0.0" stroke="rgb(0,102,200)" stroke-width="0.8" fill="rgb(0,0,0)" stroke-linecap="butt" stroke-miterlimit="10.0"><path d="M 178.0220,169.9634 v 2.9304 "/></g><defs></defs><g stroke-linejoin="miter" stroke-opacity="1.0" fill-opacity="0.7" font-size="5.86080586080586px" stroke="rgb(0,0,0)" stroke-width="0.8" fill="rgb(30,30,30)" stroke-linecap="butt" stroke-miterlimit="10.0"><text dominant-baseline="text-before-edge" transform="matrix(1.0000,0.0000,0.0000,1.0000,159.7070,175.8242)" stroke="none" text-anchor="middle">   -2.3</text></g><defs></defs><g stroke-linejoin="miter" stroke-opacity="0.5" fill-opacity="0.0" stroke="rgb(0,102,200)" stroke-width="0.8" fill="rgb(0,0,0)" stroke-linecap="butt" stroke-miterlimit="10.0"><path d="M 159.7070,169.9634 v 2.9304 "/></g><defs></defs><g stroke-linejoin="miter" stroke-opacity="1.0" fill-opacity="0.7" font-size="5.86080586080586px" stroke="rgb(0,0,0)" stroke-width="0.8" fill="rgb(30,30,30)" stroke-linecap="butt" stroke-miterlimit="10.0"><text dominant-baseline="text-before-edge" transform="matrix(1.0000,0.0000,0.0000,1.0000,141.3919,175.8242)" stroke="none" text-anchor="middle">   -2.4</text></g><defs></defs><g stroke-linejoin="miter" stroke-opacity="0.5" fill-opacity="0.0" stroke="rgb(0,102,200)" stroke-width="0.8" fill="rgb(0,0,0)" stroke-linecap="butt" stroke-miterlimit="10.0"><path d="M 141.3919,169.9634 v 2.9304 "/></g><defs></defs><g stroke-linejoin="miter" stroke-opacity="1.0" fill-opacity="0.7" font-size="5.86080586080586px" stroke="rgb(0,0,0)" stroke-width="0.8" fill="rgb(30,30,30)" stroke-linecap="butt" stroke-miterlimit="10.0"><text dominant-baseline="text-before-edge" transform="matrix(1.0000,0.0000,0.0000,1.0000,123.0769,175.8242)" stroke="none" text-anchor="middle">   -2.5</text></g><defs></defs><g stroke-linejoin="miter" stroke-opacity="0.5" fill-opacity="0.0" stroke="rgb(0,102,200)" stroke-width="0.8" fill="rgb(0,0,0)" stroke-linecap="butt" stroke-miterlimit="10.0"><path d="M 123.0769,169.9634 v 2.9304 "/></g><defs></defs><g stroke-linejoin="miter" stroke-opacity="1.0" fill-opacity="0.7" font-size="5.86080586080586px" stroke="rgb(0,0,0)" stroke-width="0.8" fill="rgb(30,30,30)" stroke-linecap="butt" stroke-miterlimit="10.0"><text dominant-baseline="text-before-edge" transform="matrix(1.0000,0.0000,0.0000,1.0000,104.7619,175.8242)" stroke="none" text-anchor="middle">   -2.6</text></g><defs></defs><g stroke-linejoin="miter" stroke-opacity="0.5" fill-opacity="0.0" stroke="rgb(0,102,200)" stroke-width="0.8" fill="rgb(0,0,0)" stroke-linecap="butt" stroke-miterlimit="10.0"><path d="M 104.7619,169.9634 v 2.9304 "/></g><defs></defs><g stroke-linejoin="miter" stroke-opacity="1.0" fill-opacity="0.7" font-size="5.86080586080586px" stroke="rgb(0,0,0)" stroke-width="0.8" fill="rgb(30,30,30)" stroke-linecap="butt" stroke-miterlimit="10.0"><text dominant-baseline="text-before-edge" transform="matrix(1.0000,0.0000,0.0000,1.0000,86.4469,175.8242)" stroke="none" text-anchor="middle">   -2.7</text></g><defs></defs><g stroke-linejoin="miter" stroke-opacity="0.5" fill-opacity="0.0" stroke="rgb(0,102,200)" stroke-width="0.8" fill="rgb(0,0,0)" stroke-linecap="butt" stroke-miterlimit="10.0"><path d="M 86.4469,169.9634 v 2.9304 "/></g><defs></defs><g stroke-linejoin="miter" stroke-opacity="1.0" fill-opacity="0.7" font-size="5.86080586080586px" stroke="rgb(0,0,0)" stroke-width="0.8" fill="rgb(30,30,30)" stroke-linecap="butt" stroke-miterlimit="10.0"><text dominant-baseline="text-before-edge" transform="matrix(1.0000,0.0000,0.0000,1.0000,68.1319,175.8242)" stroke="none" text-anchor="middle">   -2.8</text></g><defs></defs><g stroke-linejoin="miter" stroke-opacity="0.5" fill-opacity="0.0" stroke="rgb(0,102,200)" stroke-width="0.8" fill="rgb(0,0,0)" stroke-linecap="butt" stroke-miterlimit="10.0"><path d="M 68.1319,169.9634 v 2.9304 "/></g><defs></defs><g stroke-linejoin="miter" stroke-opacity="1.0" fill-opacity="0.7" font-size="5.86080586080586px" stroke="rgb(0,0,0)" stroke-width="0.8" fill="rgb(30,30,30)" stroke-linecap="butt" stroke-miterlimit="10.0"><text dominant-baseline="text-before-edge" transform="matrix(1.0000,0.0000,0.0000,1.0000,49.8168,175.8242)" stroke="none" text-anchor="middle">   -2.9</text></g><defs></defs><g stroke-linejoin="miter" stroke-opacity="0.5" fill-opacity="0.0" stroke="rgb(0,102,200)" stroke-width="0.8" fill="rgb(0,0,0)" stroke-linecap="butt" stroke-miterlimit="10.0"><path d="M 49.8168,169.9634 v 2.9304 "/></g><defs></defs><g stroke-linejoin="miter" stroke-opacity="1.0" fill-opacity="0.7" font-size="5.86080586080586px" stroke="rgb(0,0,0)" stroke-width="0.8" fill="rgb(30,30,30)" stroke-linecap="butt" stroke-miterlimit="10.0"><text dominant-baseline="text-before-edge" transform="matrix(1.0000,0.0000,0.0000,1.0000,31.5018,175.8242)" stroke="none" text-anchor="middle">   -3.0</text></g><defs></defs><g stroke-linejoin="miter" stroke-opacity="0.5" fill-opacity="0.0" stroke="rgb(0,102,200)" stroke-width="0.8" fill="rgb(0,0,0)" stroke-linecap="butt" stroke-miterlimit="10.0"><path d="M 31.5018,169.9634 v 2.9304 "/></g><defs></defs><g stroke-linejoin="miter" stroke-opacity="0.6" fill-opacity="0.0" stroke="rgb(59,89,152)" stroke-width="0.2" fill="rgb(0,0,0)" stroke-linecap="butt" stroke-miterlimit="10.0"><path d="M 79.5261,62.1596 l 17.1697,-8.1590 l -19.4133,23.8144 l -6.7430,6.1185 l -24.5345,7.8850 l 4.0243,7.3787 l 41.7023,-30.3159 l 6.9167,-19.4527 l -17.1402,20.2797 l -18.0647,29.2547 l 35.9364,-39.9253 l -19.8185,3.7012 l 2.3515,11.0582 l 8.4439,-17.6735 l 8.7726,-3.0383 l -8.8881,-0.6676 l 24.2471,-26.0541 l -7.4493,12.3013 l -1.0674,-7.8464 l 3.6296,-8.8406 l -21.4840,39.0490 l 11.2999,-9.2499 l 30.0428,-16.8776 l -38.4933,31.8383 l -4.2728,6.6068 l 2.0617,-1.6155 l -0.5946,4.4251 l 6.2080,-3.2447 l -6.9612,-6.5924 l -25.0006,24.0938 l -4.6423,-0.3588 l -17.2817,19.4582 l 10.7642,7.5228 l 16.1128,-18.9792 l 7.3365,-9.8682 l 13.9708,-16.5163 l 4.4371,-0.4877 l -20.4219,13.1129 l -6.7598,3.3375 l 20.7485,-19.4145 l 20.0807,2.5355 l -12.1819,-1.6308 l -2.3473,2.2246 l 28.5998,-3.0868 l -22.6352,27.7636 l -31.1893,30.1762 l -22.6404,5.2047 l -3.5252,14.0417 l -9.3305,12.0754 l 6.8833,10.9762 l 26.2561,-39.3786 l 26.7132,-12.5787 l 12.7689,-6.8946 l -19.0976,27.4544 l 1.1910,8.4920 l -9.1055,1.7913 l -1.9650,4.2715 l 33.6589,-18.0397 l -2.3310,-17.7497 l -55.6778,34.5268 l -9.6084,-3.2592 l 32.1336,-34.6753 l 17.9015,-8.0618 l -24.4130,8.5280 l -0.4487,20.7642 l 16.0159,6.7077 l -7.5111,-9.0450 l 7.2565,0.7525 l 23.7949,-23.1652 l 15.3753,-24.9587 l 5.4861,1.8946 l 25.9601,-20.7706 l -21.2062,-3.9464 l -7.3357,11.8947 l -18.8631,24.1301 l -11.5253,25.5640 l 11.7458,-14.2850 l -11.2326,18.0961 l -20.4015,23.1642 l -5.3602,10.3458 l 30.5478,-23.7922 l -12.9757,3.9896 l 21.2022,-0.4029 l -18.2726,-8.7265 l -18.4690,-5.9603 l -12.9720,13.7682 l -5.3206,5.7094 l 33.3902,-6.9825 l 30.4224,-33.2054 l 28.7215,-5.9001 l 33.1878,-10.9974 l -0.5682,14.9534 l -30.0997,33.7316 l -10.5609,18.1442 l 16.7469,-26.9294 l -15.4380,6.0283 l 9.9226,-3.6650 l -13.8471,12.8773 l -13.9411,6.5728 l 6.4401,-13.3459 l 21.8658,-30.6447 "/></g></svg>