<?xml version="1.0" encoding="UTF-8"?>
<!DOCTYPE svg PUBLIC "-//W3C//DTD SVG 1.1//EN"
    "http://www.w3.org/Graphics/SVG/1.1/DTD/svg11.dtd"><svg xmlns="http://www.w3.org/2000/svg" height="200.0000" stroke-opacity="1" viewBox="0 0 200 200" font-size="1" width="200.0000" xmlns:xlink="http://www.w3.org/1999/xlink" stroke="rgb(0,0,0)" version="1.1"><defs></defs><defs></defs><g stroke-linejoin="miter" stroke-opacity="0.0" fill-opacity="0.5" stroke="rgb(0,0,0)" stroke-width="0.0" fill="rgb(94,19,94)" stroke-linecap="butt" stroke-miterlimit="10.0"><path d="M 31.5018,168.4982 l -0.0000,-146.5201 h -2.9304 l -0.0000,146.5201 Z"/></g><defs></defs><g stroke-linejoin="miter" stroke-opacity="1.0" fill-opacity="0.7" font-size="5.86080586080586px" stroke="rgb(0,0,0)" stroke-width="0.8" fill="rgb(30,30,30)" stroke-linecap="butt" stroke-miterlimit="10.0"><text dominant-baseline="middle" transform="matrix(1.0000,0.0000,0.0000,1.0000,24.1758,21.9780)" stroke="none" text-anchor="end">0.0</text></g><defs></defs><g stroke-linejoin="miter" stroke-opacity="0.5" fill-opacity="0.0" stroke="rgb(0,102,200)" stroke-width="0.8" fill="rgb(0,0,0)" stroke-linecap="butt" stroke-miterlimit="10.0"><path d="M 27.1062,21.9780 h 2.9304 "/></g><defs></defs><g stroke-linejoin="miter" stroke-opacity="1.0" fill-opacity="0.7" font-size="5.86080586080586px" stroke="rgb(0,0,0)" stroke-width="0.8" fill="rgb(30,30,30)" stroke-linecap="butt" stroke-miterlimit="10.0"><text dominant-baseline="middle" transform="matrix(1.0000,0.0000,0.0000,1.0000,24.1758,38.2580)" stroke="none" text-anchor="end">-2.0</text></g><defs></defs><g stroke-linejoin="miter" stroke-opacity="0.5" fill-opacity="0.0" stroke="rgb(0,102,200)" stroke-width="0.8" fill="rgb(0,0,0)" stroke-linecap="butt" stroke-miterlimit="10.0"><path d="M 27.1062,38.2580 h 2.9304 "/></g><defs></defs><g stroke-linejoin="miter" stroke-opacity="1.0" fill-opacity="0.7" font-size="5.86080586080586px" stroke="rgb(0,0,0)" stroke-width="0.8" fill="rgb(30,30,30)" stroke-linecap="butt" stroke-miterlimit="10.0"><text dominant-baseline="middle" transform="matrix(1.0000,0.0000,0.0000,1.0000,24.1758,54.5381)" stroke="none" text-anchor="end">-4.0</text></g><defs></defs><g stroke-linejoin="miter" stroke-opacity="0.5" fill-opacity="0.0" stroke="rgb(0,102,200)" stroke-width="0.8" fill="rgb(0,0,0)" stroke-linecap="butt" stroke-miterlimit="10.0"><path d="M 27.1062,54.5381 h 2.9304 "/></g><defs></defs><g stroke-linejoin="miter" stroke-opacity="1.0" fill-opacity="0.7" font-size="5.86080586080586px" stroke="rgb(0,0,0)" stroke-width="0.8" fill="rgb(30,30,30)" stroke-linecap="butt" stroke-miterlimit="10.0"><text dominant-baseline="middle" transform="matrix(1.0000,0.0000,0.0000,1.0000,24.1758,70.8181)" stroke="none" text-anchor="end">-6.0</text></g><defs></defs><g stroke-linejoin="miter" stroke-opacity="0.5" fill-opacity="0.0" stroke="rgb(0,102,200)" stroke-width="0.8" fill="rgb(0,0,0)" stroke-linecap="butt" stroke-miterlimit="10.0"><path d="M 27.1062,70.8181 h 2.9304 "/></g><defs></defs><g stroke-linejoin="miter" stroke-opacity="1.0" fill-opacity="0.7" font-size="5.86080586080586px" stroke="rgb(0,0,0)" stroke-width="0.8" fill="rgb(30,30,30)" stroke-linecap="butt" stroke-miterlimit="10.0"><text dominant-baseline="middle" transform="matrix(1.0000,0.0000,0.0000,1.0000,24.1758,87.0981)" stroke="none" text-anchor="end">-8.0</text></g><defs></defs><g stroke-linejoin="miter" stroke-opacity="0.5" fill-opacity="0.0" stroke="rgb(0,102,200)" stroke-width="0.8" fill="rgb(0,0,0)" stroke-linecap="butt" stroke-miterlimit="10.0"><path d="M 27.1062,87.0981 h 2.9304 "/></g><defs></defs><g stroke-linejoin="miter" stroke-opacity="1.0" fill-opacity="0.7" font-size="5.86080586080586px" stroke="rgb(0,0,0)" stroke-width="0.8" fill="rgb(30,30,30)" stroke-linecap="butt" stroke-miterlimit="10.0"><text dominant-baseline="middle" transform="matrix(1.0000,0.0000,0.0000,1.0000,24.1758,103.3781)" stroke="none" text-anchor="end">-10</text></g><defs></defs><g stroke-linejoin="miter" stroke-opacity="0.5" fill-opacity="0.0" stroke="rgb(0,102,200)" stroke-width="0.8" fill="rgb(0,0,0)" stroke-linecap="butt" stroke-miterlimit="10.0"><path d="M 27.1062,103.3781 h 2.9304 "/></g><defs></defs><g stroke-linejoin="miter" stroke-opacity="1.0" fill-opacity="0.7" font-size="5.86080586080586px" stroke="rgb(0,0,0)" stroke-width="0.8" fill="rgb(30,30,30)" stroke-linecap="butt" stroke-miterlimit="10.0"><text dominant-baseline="middle" transform="matrix(1.0000,0.0000,0.0000,1.0000,24.1758,119.6581)" stroke="none" text-anchor="end">-12</text></g><defs></defs><g stroke-linejoin="miter" stroke-opacity="0.5" fill-opacity="0.0" stroke="rgb(0,102,200)" stroke-width="0.8" fill="rgb(0,0,0)" stroke-linecap="butt" stroke-miterlimit="10.0"><path d="M 27.1062,119.6581 h 2.9304 "/></g><defs></defs><g stroke-linejoin="miter" stroke-opacity="1.0" fill-opacity="0.7" font-size="5.86080586080586px" stroke="rgb(0,0,0)" stroke-width="0.8" fill="rgb(30,30,30)" stroke-linecap="butt" stroke-miterlimit="10.0"><text dominant-baseline="middle" transform="matrix(1.0000,0.0000,0.0000,1.0000,24.1758,135.9381)" stroke="none" text-anchor="end">-14</text></g><defs></defs><g stroke-linejoin="miter" stroke-opacity="0.5" fill-opacity="0.0" stroke="rgb(0,102,200)" stroke-width="0.8" fill="rgb(0,0,0)" stroke-linecap="butt" stroke-miterlimit="10.0"><path d="M 27.1062,135.9381 h 2.9304 "/></g><defs></defs><g stroke-linejoin="miter" stroke-opacity="1.0" fill-opacity="0.7" font-size="5.86080586080586px" stroke="rgb(0,0,0)" stroke-width="0.8" fill="rgb(30,30,30)" stroke-linecap="butt" stroke-miterlimit="10.0"><text dominant-baseline="middle" transform="matrix(1.0000,0.0000,0.0000,1.0000,24.1758,152.2182)" stroke="none" text-anchor="end">-16</text></g><defs></defs><g stroke-linejoin="miter" stroke-opacity="0.5" fill-opacity="0.0" stroke="rgb(0,102,200)" stroke-width="0.8" fill="rgb(0,0,0)" stroke-linecap="butt" stroke-miterlimit="10.0"><path d="M 27.1062,152.2182 h 2.9304 "/></g><defs></defs><g stroke-linejoin="miter" stroke-opacity="1.0" fill-opacity="0.7" font-size="5.86080586080586px" stroke="rgb(0,0,0)" stroke-width="0.8" fill="rgb(30,30,30)" stroke-linecap="butt" stroke-miterlimit="10.0"><text dominant-baseline="middle" transform="matrix(1.0000,0.0000,0.0000,1.0000,24.1758,168.4982)" stroke="none" text-anchor="end">-18</text></g><defs></defs><g stroke-linejoin="miter" stroke-opacity="0.5" fill-opacity="0.0" stroke="rgb(0,102,200)" stroke-width="0.8" fill="rgb(0,0,0)" stroke-linecap="butt" stroke-miterlimit="10.0"><path d="M 27.1062,168.4982 h 2.9304 "/></g><defs></defs><g stroke-linejoin="miter" stroke-opacity="0.0" fill-opacity="0.5" stroke="rgb(0,0,0)" stroke-width="0.0" fill="rgb(94,19,94)" stroke-linecap="butt" stroke-miterlimit="10.0"><path d="M 178.0220,171.4286 l -0.0000,-2.9304 h -146.5201 l -0.0000,2.9304 Z"/></g><defs></defs><g stroke-linejoin="miter" stroke-opacity="1.0" fill-opacity="0.7" font-size="5.86080586080586px" stroke="rgb(0,0,0)" stroke-width="0.8" fill="rgb(30,30,30)" stroke-linecap="butt" stroke-miterlimit="10.0"><text dominant-baseline="text-before-edge" transform="matrix(1.0000,0.0000,0.0000,1.0000,178.0220,175.8242)" stroke="none" text-anchor="middle">0.0</text></g><defs></defs><g stroke-linejoin="miter" stroke-opacity="0.5" fill-opacity="0.0" stroke="rgb(0,102,200)" stroke-width="0.8" fill="rgb(0,0,0)" stroke-linecap="butt" stroke-miterlimit="10.0"><path d="M 178.0220,169.9634 v 2.9304 "/></g><defs></defs><g stroke-linejoin="miter" stroke-opacity="1.0" fill-opacity="0.7" font-size="5.86080586080586px" stroke="rgb(0,0,0)" stroke-width="0.8" fill="rgb(30,30,30)" stroke-linecap="butt" stroke-miterlimit="10.0"><text dominant-baseline="text-before-edge" transform="matrix(1.0000,0.0000,0.0000,1.0000,157.0905,175.8242)" stroke="none" text-anchor="middle">-2.0</text></g><defs></defs><g stroke-linejoin="miter" stroke-opacity="0.5" fill-opacity="0.0" stroke="rgb(0,102,200)" stroke-width="0.8" fill="rgb(0,0,0)" stroke-linecap="butt" stroke-miterlimit="10.0"><path d="M 157.0905,169.9634 v 2.9304 "/></g><defs></defs><g stroke-linejoin="miter" stroke-opacity="1.0" fill-opacity="0.7" font-size="5.86080586080586px" stroke="rgb(0,0,0)" stroke-width="0.8" fill="rgb(30,30,30)" stroke-linecap="butt" stroke-miterlimit="10.0"><text dominant-baseline="text-before-edge" transform="matrix(1.0000,0.0000,0.0000,1.0000,136.1591,175.8242)" stroke="none" text-anchor="middle">-4.0</text></g><defs></defs><g stroke-linejoin="miter" stroke-opacity="0.5" fill-opacity="0.0" stroke="rgb(0,102,200)" stroke-width="0.8" fill="rgb(0,0,0)" stroke-linecap="butt" stroke-miterlimit="10.0"><path d="M 136.1591,169.9634 v 2.9304 "/></g><defs></defs><g stroke-linejoin="miter" stroke-opacity="1.0" fill-opacity="0.7" font-size="5.86080586080586px" stroke="rgb(0,0,0)" stroke-width="0.8" fill="rgb(30,30,30)" stroke-linecap="butt" stroke-miterlimit="10.0"><text dominant-baseline="text-before-edge" transform="matrix(1.0000,0.0000,0.0000,1.0000,115.2276,175.8242)" stroke="none" text-anchor="middle">-6.0</text></g><defs></defs><g stroke-linejoin="miter" stroke-opacity="0.5" fill-opacity="0.0" stroke="rgb(0,102,200)" stroke-width="0.8" fill="rgb(0,0,0)" stroke-linecap="butt" stroke-miterlimit="10.0"><path d="M 115.2276,169.9634 v 2.9304 "/></g><defs></defs><g stroke-linejoin="miter" stroke-opacity="1.0" fill-opacity="0.7" font-size="5.86080586080586px" stroke="rgb(0,0,0)" stroke-width="0.8" fill="rgb(30,30,30)" stroke-linecap="butt" stroke-miterlimit="10.0"><text dominant-baseline="text-before-edge" transform="matrix(1.0000,0.0000,0.0000,1.0000,94.2962,175.8242)" stroke="none" text-anchor="middle">-8.0</text></g><defs></defs><g stroke-linejoin="miter" stroke-opacity="0.5" fill-opacity="0.0" stroke="rgb(0,102,200)" stroke-width="0.8" fill="rgb(0,0,0)" stroke-linecap="butt" stroke-miterlimit="10.0"><path d="M 94.2962,169.9634 v 2.9304 "/></g><defs></defs><g stroke-linejoin="miter" stroke-opacity="1.0" fill-opacity="0.7" font-size="5.86080586080586px" stroke="rgb(0,0,0)" stroke-width="0.8" fill="rgb(30,30,30)" stroke-linecap="butt" stroke-miterlimit="10.0"><text dominant-baseline="text-before-edge" transform="matrix(1.0000,0.0000,0.0000,1.0000,73.3647,175.8242)" stroke="none" text-anchor="middle">-10</text></g><defs></defs><g stroke-linejoin="miter" stroke-opacity="0.5" fill-opacity="0.0" stroke="rgb(0,102,200)" stroke-width="0.8" fill="rgb(0,0,0)" stroke-linecap="butt" stroke-miterlimit="10.0"><path d="M 73.3647,169.9634 v 2.9304 "/></g><defs></defs><g stroke-linejoin="miter" stroke-opacity="1.0" fill-opacity="0.7" font-size="5.86080586080586px" stroke="rgb(0,0,0)" stroke-width="0.8" fill="rgb(30,30,30)" stroke-linecap="butt" stroke-miterlimit="10.0"><text dominant-baseline="text-before-edge" transform="matrix(1.0000,0.0000,0.0000,1.0000,52.4333,175.8242)" stroke="none" text-anchor="middle">-12</text></g><defs></defs><g stroke-linejoin="miter" stroke-opacity="0.5" fill-opacity="0.0" stroke="rgb(0,102,200)" stroke-width="0.8" fill="rgb(0,0,0)" stroke-linecap="butt" stroke-miterlimit="10.0"><path d="M 52.4333,169.9634 v 2.9304 "/></g><defs></defs><g stroke-linejoin="miter" stroke-opacity="1.0" fill-opacity="0.7" font-size="5.86080586080586px" stroke="rgb(0,0,0)" stroke-width="0.8" fill="rgb(30,30,30)" stroke-linecap="butt" stroke-miterlimit="10.0"><text dominant-baseline="text-before-edge" transform="matrix(1.0000,0.0000,0.0000,1.0000,31.5018,175.8242)" stroke="none" text-anchor="middle">-14</text></g><defs></defs><g stroke-linejoin="miter" stroke-opacity="0.5" fill-opacity="0.0" stroke="rgb(0,102,200)" stroke-width="0.8" fill="rgb(0,0,0)" stroke-linecap="butt" stroke-miterlimit="10.0"><path d="M 31.5018,169.9634 v 2.9304 "/></g><defs></defs><g stroke-linejoin="miter" stroke-opacity="0.6" fill-opacity="0.0" stroke="rgb(59,89,152)" stroke-width="0.2" fill="rgb(0,0,0)" stroke-linecap="butt" stroke-miterlimit="10.0"><path d="M 178.0220,21.9780 l -11.8567,4.7653 l -21.6530,16.8354 l -9.2161,1.4574 l 1.0000,-1.0517 l -7.6122,9.8568 l -1.9762,4.0378 l 0.6448,-4.3137 l -13.7100,6.9575 l -0.5913,0.6229 l -1.2462,-4.3504 l -6.9063,6.1331 l 16.1938,-6.1197 l 6.4156,-4.6180 l 3.8898,-7.4104 l -8.1034,3.0884 l -12.7307,11.1223 l 0.1525,0.5787 l -3.4388,6.4960 l -6.5721,6.8750 l 2.1437,-1.5524 l -4.6902,9.1845 l 1.5607,-2.2616 l 2.9873,-0.0601 l 5.9580,-1.8360 l -6.7700,7.3261 l -1.9942,9.2651 l -0.1919,0.0953 l -7.6830,3.4036 l 9.4892,2.3501 l -4.0570,3.8870 l 0.2899,-1.9192 l -21.6426,21.7134 l 12.9289,-1.0799 l 6.5301,-1.3322 l -1.0212,-0.6723 l -1.4365,4.0468 l -0.5319,1.2274 l 3.0952,-1.7939 l 3.5676,-5.7671 l -4.1456,0.6207 l 2.6190,-0.1665 l -3.8356,6.1456 l 4.2079,0.5430 l 10.5007,-5.4981 l -4.5754,-11.1940 l -8.1254,4.6021 l 23.3048,-21.7044 l -3.5031,14.6913 l 20.9971,-15.2715 l 13.8909,-9.3058 l -2.5009,7.7694 l -0.5675,0.7153 l 5.8490,-1.1279 l -0.8638,2.9730 l -7.2198,4.7256 l 3.2976,-7.6043 l -3.1808,2.9896 l 7.5365,-10.3392 l 5.1763,10.8566 l -6.7109,11.5447 l -9.6519,7.6605 l -4.7343,-2.2935 l -20.4050,12.3364 l -10.4590,13.5444 l 8.7303,-4.7599 l -7.6530,4.7154 l -0.2773,0.9984 l 7.4088,-2.1442 l 8.5003,-7.6983 l -1.4799,-0.8016 l 1.6444,2.6441 l 1.1156,-1.3568 l -10.5277,-1.3810 l -21.2728,19.3306 l 10.9275,-9.4260 l -12.3015,1.6206 l -11.7896,-8.7610 l -7.2799,9.5901 l 13.1245,-7.1523 l -12.0818,5.4760 l 14.1256,-5.6083 l -1.2057,4.4248 l -12.7505,13.0600 l -13.7866,3.9337 l -0.8686,5.8883 l -13.4334,8.8863 l -2.7863,2.6409 l -5.2398,-3.2446 l -4.7719,-4.4390 l 0.4133,5.1322 l -1.1202,-0.1249 l 11.2261,-8.4042 l 6.9935,-10.3438 l 6.9040,-5.8834 l 6.1933,-3.6084 l -9.1748,1.3320 l -14.4433,5.6991 l -2.8992,2.3915 l 1.3762,-3.2267 l -1.4606,-4.8299 "/></g></svg>