<?xml version="1.0" encoding="UTF-8"?>
<!DOCTYPE svg PUBLIC "-//W3C//DTD SVG 1.1//EN"
    "http://www.w3.org/Graphics/SVG/1.1/DTD/svg11.dtd"><svg xmlns="http://www.w3.org/2000/svg" height="100.0000" stroke-opacity="1" viewBox="0 0 100 100" font-size="1" width="100.0000" xmlns:xlink="http://www.w3.org/1999/xlink" stroke="rgb(0,0,0)" version="1.1"><defs></defs><defs></defs><g stroke-linejoin="miter" stroke-opacity="0.0" fill-opacity="0.5" stroke="rgb(0,0,0)" stroke-width="0.0" fill="rgb(94,19,94)" stroke-linecap="butt" stroke-miterlimit="10.0"><path d="M 15.7509,84.2491 l -0.0000,-73.2601 h -1.4652 l -0.0000,73.2601 Z"/></g><defs></defs><g stroke-linejoin="miter" stroke-opacity="1.0" fill-opacity="1.0" font-size="2.93040293040293px" stroke="rgb(0,0,0)" stroke-width="0.5" fill="rgb(30,30,30)" stroke-linecap="butt" stroke-miterlimit="10.0"><text dominant-baseline="text-before-edge" transform="matrix(1.0000,0.0000,0.0000,1.0000,12.0879,10.9890)" stroke="none" text-anchor="middle">2.0</text></g><defs></defs><g stroke-linejoin="miter" stroke-opacity="1.0" fill-opacity="0.0" stroke="rgb(0,0,0)" stroke-width="0.5" fill="rgb(0,0,0)" stroke-linecap="butt" stroke-miterlimit="10.0"><path d="M 13.5531,10.9890 h 1.4652 "/></g><defs></defs><g stroke-linejoin="miter" stroke-opacity="1.0" fill-opacity="1.0" font-size="2.93040293040293px" stroke="rgb(0,0,0)" stroke-width="0.5" fill="rgb(30,30,30)" stroke-linecap="butt" stroke-miterlimit="10.0"><text dominant-baseline="text-before-edge" transform="matrix(1.0000,0.0000,0.0000,1.0000,12.0879,20.1465)" stroke="none" text-anchor="middle">0.0</text></g><defs></defs><g stroke-linejoin="miter" stroke-opacity="1.0" fill-opacity="0.0" stroke="rgb(0,0,0)" stroke-width="0.5" fill="rgb(0,0,0)" stroke-linecap="butt" stroke-miterlimit="10.0"><path d="M 13.5531,20.1465 h 1.4652 "/></g><defs></defs><g stroke-linejoin="miter" stroke-opacity="1.0" fill-opacity="1.0" font-size="2.93040293040293px" stroke="rgb(0,0,0)" stroke-width="0.5" fill="rgb(30,30,30)" stroke-linecap="butt" stroke-miterlimit="10.0"><text dominant-baseline="text-before-edge" transform="matrix(1.0000,0.0000,0.0000,1.0000,12.0879,29.3040)" stroke="none" text-anchor="middle">-2.0</text></g><defs></defs><g stroke-linejoin="miter" stroke-opacity="1.0" fill-opacity="0.0" stroke="rgb(0,0,0)" stroke-width="0.5" fill="rgb(0,0,0)" stroke-linecap="butt" stroke-miterlimit="10.0"><path d="M 13.5531,29.3040 h 1.4652 "/></g><defs></defs><g stroke-linejoin="miter" stroke-opacity="1.0" fill-opacity="1.0" font-size="2.93040293040293px" stroke="rgb(0,0,0)" stroke-width="0.5" fill="rgb(30,30,30)" stroke-linecap="butt" stroke-miterlimit="10.0"><text dominant-baseline="text-before-edge" transform="matrix(1.0000,0.0000,0.0000,1.0000,12.0879,38.4615)" stroke="none" text-anchor="middle">-4.0</text></g><defs></defs><g stroke-linejoin="miter" stroke-opacity="1.0" fill-opacity="0.0" stroke="rgb(0,0,0)" stroke-width="0.5" fill="rgb(0,0,0)" stroke-linecap="butt" stroke-miterlimit="10.0"><path d="M 13.5531,38.4615 h 1.4652 "/></g><defs></defs><g stroke-linejoin="miter" stroke-opacity="1.0" fill-opacity="1.0" font-size="2.93040293040293px" stroke="rgb(0,0,0)" stroke-width="0.5" fill="rgb(30,30,30)" stroke-linecap="butt" stroke-miterlimit="10.0"><text dominant-baseline="text-before-edge" transform="matrix(1.0000,0.0000,0.0000,1.0000,12.0879,47.6190)" stroke="none" text-anchor="middle">-6.0</text></g><defs></defs><g stroke-linejoin="miter" stroke-opacity="1.0" fill-opacity="0.0" stroke="rgb(0,0,0)" stroke-width="0.5" fill="rgb(0,0,0)" stroke-linecap="butt" stroke-miterlimit="10.0"><path d="M 13.5531,47.6190 h 1.4652 "/></g><defs></defs><g stroke-linejoin="miter" stroke-opacity="1.0" fill-opacity="1.0" font-size="2.93040293040293px" stroke="rgb(0,0,0)" stroke-width="0.5" fill="rgb(30,30,30)" stroke-linecap="butt" stroke-miterlimit="10.0"><text dominant-baseline="text-before-edge" transform="matrix(1.0000,0.0000,0.0000,1.0000,12.0879,56.7766)" stroke="none" text-anchor="middle">-8.0</text></g><defs></defs><g stroke-linejoin="miter" stroke-opacity="1.0" fill-opacity="0.0" stroke="rgb(0,0,0)" stroke-width="0.5" fill="rgb(0,0,0)" stroke-linecap="butt" stroke-miterlimit="10.0"><path d="M 13.5531,56.7766 h 1.4652 "/></g><defs></defs><g stroke-linejoin="miter" stroke-opacity="1.0" fill-opacity="1.0" font-size="2.93040293040293px" stroke="rgb(0,0,0)" stroke-width="0.5" fill="rgb(30,30,30)" stroke-linecap="butt" stroke-miterlimit="10.0"><text dominant-baseline="text-before-edge" transform="matrix(1.0000,0.0000,0.0000,1.0000,12.0879,65.9341)" stroke="none" text-anchor="middle">-10</text></g><defs></defs><g stroke-linejoin="miter" stroke-opacity="1.0" fill-opacity="0.0" stroke="rgb(0,0,0)" stroke-width="0.5" fill="rgb(0,0,0)" stroke-linecap="butt" stroke-miterlimit="10.0"><path d="M 13.5531,65.9341 h 1.4652 "/></g><defs></defs><g stroke-linejoin="miter" stroke-opacity="1.0" fill-opacity="1.0" font-size="2.93040293040293px" stroke="rgb(0,0,0)" stroke-width="0.5" fill="rgb(30,30,30)" stroke-linecap="butt" stroke-miterlimit="10.0"><text dominant-baseline="text-before-edge" transform="matrix(1.0000,0.0000,0.0000,1.0000,12.0879,75.0916)" stroke="none" text-anchor="middle">-12</text></g><defs></defs><g stroke-linejoin="miter" stroke-opacity="1.0" fill-opacity="0.0" stroke="rgb(0,0,0)" stroke-width="0.5" fill="rgb(0,0,0)" stroke-linecap="butt" stroke-miterlimit="10.0"><path d="M 13.5531,75.0916 h 1.4652 "/></g><defs></defs><g stroke-linejoin="miter" stroke-opacity="1.0" fill-opacity="1.0" font-size="2.93040293040293px" stroke="rgb(0,0,0)" stroke-width="0.5" fill="rgb(30,30,30)" stroke-linecap="butt" stroke-miterlimit="10.0"><text dominant-baseline="text-before-edge" transform="matrix(1.0000,0.0000,0.0000,1.0000,12.0879,84.2491)" stroke="none" text-anchor="middle">-14</text></g><defs></defs><g stroke-linejoin="miter" stroke-opacity="1.0" fill-opacity="0.0" stroke="rgb(0,0,0)" stroke-width="0.5" fill="rgb(0,0,0)" stroke-linecap="butt" stroke-miterlimit="10.0"><path d="M 13.5531,84.2491 h 1.4652 "/></g><defs></defs><g stroke-linejoin="miter" stroke-opacity="0.0" fill-opacity="0.5" stroke="rgb(0,0,0)" stroke-width="0.0" fill="rgb(94,19,94)" stroke-linecap="butt" stroke-miterlimit="10.0"><path d="M 89.0110,85.7143 l -0.0000,-1.4652 h -73.2601 l -0.0000,1.4652 Z"/></g><defs></defs><g stroke-linejoin="miter" stroke-opacity="1.0" fill-opacity="1.0" font-size="2.93040293040293px" stroke="rgb(0,0,0)" stroke-width="0.5" fill="rgb(30,30,30)" stroke-linecap="butt" stroke-miterlimit="10.0"><text dominant-baseline="text-before-edge" transform="matrix(1.0000,0.0000,0.0000,1.0000,89.0110,87.9121)" stroke="none" text-anchor="middle">6.0</text></g><defs></defs><g stroke-linejoin="miter" stroke-opacity="1.0" fill-opacity="0.0" stroke="rgb(0,0,0)" stroke-width="0.5" fill="rgb(0,0,0)" stroke-linecap="butt" stroke-miterlimit="10.0"><path d="M 89.0110,84.9817 v 1.4652 "/></g><defs></defs><g stroke-linejoin="miter" stroke-opacity="1.0" fill-opacity="1.0" font-size="2.93040293040293px" stroke="rgb(0,0,0)" stroke-width="0.5" fill="rgb(30,30,30)" stroke-linecap="butt" stroke-miterlimit="10.0"><text dominant-baseline="text-before-edge" transform="matrix(1.0000,0.0000,0.0000,1.0000,82.3510,87.9121)" stroke="none" text-anchor="middle">5.0</text></g><defs></defs><g stroke-linejoin="miter" stroke-opacity="1.0" fill-opacity="0.0" stroke="rgb(0,0,0)" stroke-width="0.5" fill="rgb(0,0,0)" stroke-linecap="butt" stroke-miterlimit="10.0"><path d="M 82.3510,84.9817 v 1.4652 "/></g><defs></defs><g stroke-linejoin="miter" stroke-opacity="1.0" fill-opacity="1.0" font-size="2.93040293040293px" stroke="rgb(0,0,0)" stroke-width="0.5" fill="rgb(30,30,30)" stroke-linecap="butt" stroke-miterlimit="10.0"><text dominant-baseline="text-before-edge" transform="matrix(1.0000,0.0000,0.0000,1.0000,75.6910,87.9121)" stroke="none" text-anchor="middle">4.0</text></g><defs></defs><g stroke-linejoin="miter" stroke-opacity="1.0" fill-opacity="0.0" stroke="rgb(0,0,0)" stroke-width="0.5" fill="rgb(0,0,0)" stroke-linecap="butt" stroke-miterlimit="10.0"><path d="M 75.6910,84.9817 v 1.4652 "/></g><defs></defs><g stroke-linejoin="miter" stroke-opacity="1.0" fill-opacity="1.0" font-size="2.93040293040293px" stroke="rgb(0,0,0)" stroke-width="0.5" fill="rgb(30,30,30)" stroke-linecap="butt" stroke-miterlimit="10.0"><text dominant-baseline="text-before-edge" transform="matrix(1.0000,0.0000,0.0000,1.0000,69.0310,87.9121)" stroke="none" text-anchor="middle">3.0</text></g><defs></defs><g stroke-linejoin="miter" stroke-opacity="1.0" fill-opacity="0.0" stroke="rgb(0,0,0)" stroke-width="0.5" fill="rgb(0,0,0)" stroke-linecap="butt" stroke-miterlimit="10.0"><path d="M 69.0310,84.9817 v 1.4652 "/></g><defs></defs><g stroke-linejoin="miter" stroke-opacity="1.0" fill-opacity="1.0" font-size="2.93040293040293px" stroke="rgb(0,0,0)" stroke-width="0.5" fill="rgb(30,30,30)" stroke-linecap="butt" stroke-miterlimit="10.0"><text dominant-baseline="text-before-edge" transform="matrix(1.0000,0.0000,0.0000,1.0000,62.3710,87.9121)" stroke="none" text-anchor="middle">2.0</text></g><defs></defs><g stroke-linejoin="miter" stroke-opacity="1.0" fill-opacity="0.0" stroke="rgb(0,0,0)" stroke-width="0.5" fill="rgb(0,0,0)" stroke-linecap="butt" stroke-miterlimit="10.0"><path d="M 62.3710,84.9817 v 1.4652 "/></g><defs></defs><g stroke-linejoin="miter" stroke-opacity="1.0" fill-opacity="1.0" font-size="2.93040293040293px" stroke="rgb(0,0,0)" stroke-width="0.5" fill="rgb(30,30,30)" stroke-linecap="butt" stroke-miterlimit="10.0"><text dominant-baseline="text-before-edge" transform="matrix(1.0000,0.0000,0.0000,1.0000,55.7110,87.9121)" stroke="none" text-anchor="middle">1.0</text></g><defs></defs><g stroke-linejoin="miter" stroke-opacity="1.0" fill-opacity="0.0" stroke="rgb(0,0,0)" stroke-width="0.5" fill="rgb(0,0,0)" stroke-linecap="butt" stroke-miterlimit="10.0"><path d="M 55.7110,84.9817 v 1.4652 "/></g><defs></defs><g stroke-linejoin="miter" stroke-opacity="1.0" fill-opacity="1.0" font-size="2.93040293040293px" stroke="rgb(0,0,0)" stroke-width="0.5" fill="rgb(30,30,30)" stroke-linecap="butt" stroke-miterlimit="10.0"><text dominant-baseline="text-before-edge" transform="matrix(1.0000,0.0000,0.0000,1.0000,49.0509,87.9121)" stroke="none" text-anchor="middle">0.0</text></g><defs></defs><g stroke-linejoin="miter" stroke-opacity="1.0" fill-opacity="0.0" stroke="rgb(0,0,0)" stroke-width="0.5" fill="rgb(0,0,0)" stroke-linecap="butt" stroke-miterlimit="10.0"><path d="M 49.0509,84.9817 v 1.4652 "/></g><defs></defs><g stroke-linejoin="miter" stroke-opacity="1.0" fill-opacity="1.0" font-size="2.93040293040293px" stroke="rgb(0,0,0)" stroke-width="0.5" fill="rgb(30,30,30)" stroke-linecap="butt" stroke-miterlimit="10.0"><text dominant-baseline="text-before-edge" transform="matrix(1.0000,0.0000,0.0000,1.0000,42.3909,87.9121)" stroke="none" text-anchor="middle">-1.0</text></g><defs></defs><g stroke-linejoin="miter" stroke-opacity="1.0" fill-opacity="0.0" stroke="rgb(0,0,0)" stroke-width="0.5" fill="rgb(0,0,0)" stroke-linecap="butt" stroke-miterlimit="10.0"><path d="M 42.3909,84.9817 v 1.4652 "/></g><defs></defs><g stroke-linejoin="miter" stroke-opacity="1.0" fill-opacity="1.0" font-size="2.93040293040293px" stroke="rgb(0,0,0)" stroke-width="0.5" fill="rgb(30,30,30)" stroke-linecap="butt" stroke-miterlimit="10.0"><text dominant-baseline="text-before-edge" transform="matrix(1.0000,0.0000,0.0000,1.0000,35.7309,87.9121)" stroke="none" text-anchor="middle">-2.0</text></g><defs></defs><g stroke-linejoin="miter" stroke-opacity="1.0" fill-opacity="0.0" stroke="rgb(0,0,0)" stroke-width="0.5" fill="rgb(0,0,0)" stroke-linecap="butt" stroke-miterlimit="10.0"><path d="M 35.7309,84.9817 v 1.4652 "/></g><defs></defs><g stroke-linejoin="miter" stroke-opacity="1.0" fill-opacity="1.0" font-size="2.93040293040293px" stroke="rgb(0,0,0)" stroke-width="0.5" fill="rgb(30,30,30)" stroke-linecap="butt" stroke-miterlimit="10.0"><text dominant-baseline="text-before-edge" transform="matrix(1.0000,0.0000,0.0000,1.0000,29.0709,87.9121)" stroke="none" text-anchor="middle">-3.0</text></g><defs></defs><g stroke-linejoin="miter" stroke-opacity="1.0" fill-opacity="0.0" stroke="rgb(0,0,0)" stroke-width="0.5" fill="rgb(0,0,0)" stroke-linecap="butt" stroke-miterlimit="10.0"><path d="M 29.0709,84.9817 v 1.4652 "/></g><defs></defs><g stroke-linejoin="miter" stroke-opacity="1.0" fill-opacity="1.0" font-size="2.93040293040293px" stroke="rgb(0,0,0)" stroke-width="0.5" fill="rgb(30,30,30)" stroke-linecap="butt" stroke-miterlimit="10.0"><text dominant-baseline="text-before-edge" transform="matrix(1.0000,0.0000,0.0000,1.0000,22.4109,87.9121)" stroke="none" text-anchor="middle">-4.0</text></g><defs></defs><g stroke-linejoin="miter" stroke-opacity="1.0" fill-opacity="0.0" stroke="rgb(0,0,0)" stroke-width="0.5" fill="rgb(0,0,0)" stroke-linecap="butt" stroke-miterlimit="10.0"><path d="M 22.4109,84.9817 v 1.4652 "/></g><defs></defs><g stroke-linejoin="miter" stroke-opacity="1.0" fill-opacity="1.0" font-size="2.93040293040293px" stroke="rgb(0,0,0)" stroke-width="0.5" fill="rgb(30,30,30)" stroke-linecap="butt" stroke-miterlimit="10.0"><text dominant-baseline="text-before-edge" transform="matrix(1.0000,0.0000,0.0000,1.0000,15.7509,87.9121)" stroke="none" text-anchor="middle">-5.0</text></g><defs></defs><g stroke-linejoin="miter" stroke-opacity="1.0" fill-opacity="0.0" stroke="rgb(0,0,0)" stroke-width="0.5" fill="rgb(0,0,0)" stroke-linecap="butt" stroke-miterlimit="10.0"><path d="M 15.7509,84.9817 v 1.4652 "/></g><defs></defs><g stroke-linejoin="miter" stroke-opacity="0.6" fill-opacity="0.0" stroke="rgb(59,89,152)" stroke-width="0.1" fill="rgb(0,0,0)" stroke-linecap="butt" stroke-miterlimit="10.0"><path d="M 47.5183,23.2814 l -8.3005,5.3820 l -1.7658,3.4392 l 4.9491,-1.1337 l -2.7060,5.4829 l -1.5271,1.8911 l -5.5010,-4.2287 l 8.2886,-2.2305 l 4.4683,-4.3562 l -5.8671,3.8283 l 12.4000,-3.8753 l 5.1947,-0.3886 l 1.1178,-2.1011 l 4.0953,-1.4813 l 10.9288,-4.4133 l 7.5282,-8.1073 l 5.1964,0.8076 l 2.6221,-0.2924 l 0.3707,-0.2964 l -6.2208,6.5339 l -0.9407,1.9852 l -8.2849,3.9566 l -6.6501,3.2373 l 0.6849,4.3330 l 0.6926,-0.9229 l 9.4757,-1.8554 l -8.5580,5.1552 l 7.8942,-2.5161 l -13.7252,3.2273 l -7.2793,8.3843 l -7.4817,6.1940 l 3.7423,-0.0901 l -3.6940,1.5254 l 5.2055,0.1667 l -3.6650,0.8458 l -6.1010,1.0561 l -3.1716,3.8554 l 1.0585,-1.6541 l 1.8303,-2.9234 l 1.8646,-1.1841 l 4.6420,-0.2528 l -5.0019,1.3784 l -8.3279,5.3390 l -1.3398,2.8910 l 0.8462,0.4833 l 11.7373,-6.2669 l 13.1478,-7.8109 l -3.4223,0.6822 l -4.6205,1.6117 l -4.0464,4.4368 l 12.8173,-8.9554 l 1.6933,3.1770 l -6.0813,3.9232 l -1.6263,1.5261 l -2.9791,1.5161 l -9.6647,2.1448 l 8.1237,-7.1116 l 4.2656,1.0060 l -12.1539,5.3060 l -1.4182,0.0388 l 1.3780,-3.0817 l -0.7433,1.2793 l -10.4136,5.3910 l -6.5837,3.4488 l 9.9194,-5.4512 l -1.6551,4.1766 l 2.1188,2.7062 l -4.3587,0.4709 l 0.7396,1.8879 l 6.5748,-1.1886 l -0.3730,-1.3155 l 3.1899,-0.8878 l -6.8103,4.4826 l 4.0794,1.6697 l -15.2178,10.2239 l 4.7176,-3.5073 l -8.2120,4.4981 l 1.2100,0.5090 l -6.0873,3.3561 l 9.4232,-9.2295 l -2.5329,0.5556 l 3.6550,-0.2971 l -5.6847,5.2431 l 10.3018,-5.1026 l 0.4065,-1.5935 l 4.6799,-2.7062 l 4.8876,-5.8571 l -1.7374,5.5528 l 6.2040,-3.9335 l -0.0504,-2.4898 l 4.5680,-3.3369 l 0.0520,-4.8861 l -9.9651,6.5781 l 3.8460,-3.2049 l -0.8875,-3.4573 l 5.6835,-2.0928 l 3.6033,1.3665 l -0.4879,5.5217 l 7.9554,-5.2112 l 8.9716,-6.4844 l -2.9935,-1.9472 "/></g></svg>