<?xml version="1.0" encoding="UTF-8"?>
<!DOCTYPE svg PUBLIC "-//W3C//DTD SVG 1.1//EN"
    "http://www.w3.org/Graphics/SVG/1.1/DTD/svg11.dtd"><svg xmlns="http://www.w3.org/2000/svg" height="200.0000" stroke-opacity="1" viewBox="0 0 200 200" font-size="1" width="200.0000" xmlns:xlink="http://www.w3.org/1999/xlink" stroke="rgb(0,0,0)" version="1.1"><defs></defs><g stroke-linejoin="miter" stroke-opacity="0.0" fill-opacity="0.5" stroke="rgb(0,0,0)" stroke-width="0.0" fill="rgb(102,26,102)" stroke-linecap="butt" stroke-miterlimit="10.0"><path d="M 31.5018,168.4982 l -0.0000,-146.5201 h -2.9304 l -0.0000,146.5201 Z"/></g><g stroke-linejoin="miter" stroke-opacity="1.0" fill-opacity="0.7" font-size="5.860805860805852px" stroke="rgb(0,0,0)" stroke-width="0.7999999999999996" fill="rgb(51,51,51)" stroke-linecap="butt" stroke-miterlimit="10.0"><text dominant-baseline="middle" transform="matrix(1.0000,0.0000,0.0000,1.0000,24.1758,40.2320)" stroke="none" text-anchor="end">20</text></g><g stroke-linejoin="miter" stroke-opacity="0.5" fill-opacity="0.0" stroke="rgb(26,102,204)" stroke-width="0.7999999999999996" fill="rgb(0,0,0)" stroke-linecap="butt" stroke-miterlimit="10.0"><path d="M 27.1062,40.2320 h 2.9304 "/></g><g stroke-linejoin="miter" stroke-opacity="1.0" fill-opacity="0.7" font-size="5.860805860805852px" stroke="rgb(0,0,0)" stroke-width="0.7999999999999996" fill="rgb(51,51,51)" stroke-linecap="butt" stroke-miterlimit="10.0"><text dominant-baseline="middle" transform="matrix(1.0000,0.0000,0.0000,1.0000,24.1758,58.9055)" stroke="none" text-anchor="end">15</text></g><g stroke-linejoin="miter" stroke-opacity="0.5" fill-opacity="0.0" stroke="rgb(26,102,204)" stroke-width="0.7999999999999996" fill="rgb(0,0,0)" stroke-linecap="butt" stroke-miterlimit="10.0"><path d="M 27.1062,58.9055 h 2.9304 "/></g><g stroke-linejoin="miter" stroke-opacity="1.0" fill-opacity="0.7" font-size="5.860805860805852px" stroke="rgb(0,0,0)" stroke-width="0.7999999999999996" fill="rgb(51,51,51)" stroke-linecap="butt" stroke-miterlimit="10.0"><text dominant-baseline="middle" transform="matrix(1.0000,0.0000,0.0000,1.0000,24.1758,77.5790)" stroke="none" text-anchor="end">10</text></g><g stroke-linejoin="miter" stroke-opacity="0.5" fill-opacity="0.0" stroke="rgb(26,102,204)" stroke-width="0.7999999999999996" fill="rgb(0,0,0)" stroke-linecap="butt" stroke-miterlimit="10.0"><path d="M 27.1062,77.5790 h 2.9304 "/></g><g stroke-linejoin="miter" stroke-opacity="1.0" fill-opacity="0.7" font-size="5.860805860805852px" stroke="rgb(0,0,0)" stroke-width="0.7999999999999996" fill="rgb(51,51,51)" stroke-linecap="butt" stroke-miterlimit="10.0"><text dominant-baseline="middle" transform="matrix(1.0000,0.0000,0.0000,1.0000,24.1758,96.2525)" stroke="none" text-anchor="end">5.0</text></g><g stroke-linejoin="miter" stroke-opacity="0.5" fill-opacity="0.0" stroke="rgb(26,102,204)" stroke-width="0.7999999999999996" fill="rgb(0,0,0)" stroke-linecap="butt" stroke-miterlimit="10.0"><path d="M 27.1062,96.2525 h 2.9304 "/></g><g stroke-linejoin="miter" stroke-opacity="1.0" fill-opacity="0.7" font-size="5.860805860805852px" stroke="rgb(0,0,0)" stroke-width="0.7999999999999996" fill="rgb(51,51,51)" stroke-linecap="butt" stroke-miterlimit="10.0"><text dominant-baseline="middle" transform="matrix(1.0000,0.0000,0.0000,1.0000,24.1758,114.9260)" stroke="none" text-anchor="end">0.0</text></g><g stroke-linejoin="miter" stroke-opacity="0.5" fill-opacity="0.0" stroke="rgb(26,102,204)" stroke-width="0.7999999999999996" fill="rgb(0,0,0)" stroke-linecap="butt" stroke-miterlimit="10.0"><path d="M 27.1062,114.9260 h 2.9304 "/></g><g stroke-linejoin="miter" stroke-opacity="1.0" fill-opacity="0.7" font-size="5.860805860805852px" stroke="rgb(0,0,0)" stroke-width="0.7999999999999996" fill="rgb(51,51,51)" stroke-linecap="butt" stroke-miterlimit="10.0"><text dominant-baseline="middle" transform="matrix(1.0000,0.0000,0.0000,1.0000,24.1758,133.5995)" stroke="none" text-anchor="end">-5.0</text></g><g stroke-linejoin="miter" stroke-opacity="0.5" fill-opacity="0.0" stroke="rgb(26,102,204)" stroke-width="0.7999999999999996" fill="rgb(0,0,0)" stroke-linecap="butt" stroke-miterlimit="10.0"><path d="M 27.1062,133.5995 h 2.9304 "/></g><g stroke-linejoin="miter" stroke-opacity="1.0" fill-opacity="0.7" font-size="5.860805860805852px" stroke="rgb(0,0,0)" stroke-width="0.7999999999999996" fill="rgb(51,51,51)" stroke-linecap="butt" stroke-miterlimit="10.0"><text dominant-baseline="middle" transform="matrix(1.0000,0.0000,0.0000,1.0000,24.1758,152.2729)" stroke="none" text-anchor="end">-10</text></g><g stroke-linejoin="miter" stroke-opacity="0.5" fill-opacity="0.0" stroke="rgb(26,102,204)" stroke-width="0.7999999999999996" fill="rgb(0,0,0)" stroke-linecap="butt" stroke-miterlimit="10.0"><path d="M 27.1062,152.2729 h 2.9304 "/></g><g stroke-linejoin="miter" stroke-opacity="0.0" fill-opacity="0.5" stroke="rgb(0,0,0)" stroke-width="0.0" fill="rgb(102,26,102)" stroke-linecap="butt" stroke-miterlimit="10.0"><path d="M 178.0220,171.4286 l -0.0000,-2.9304 h -146.5201 l -0.0000,2.9304 Z"/></g><g stroke-linejoin="miter" stroke-opacity="1.0" fill-opacity="0.7" font-size="5.860805860805852px" stroke="rgb(0,0,0)" stroke-width="0.7999999999999996" fill="rgb(51,51,51)" stroke-linecap="butt" stroke-miterlimit="10.0"><text dominant-baseline="text-before-edge" transform="matrix(1.0000,0.0000,0.0000,1.0000,164.7020,175.8242)" stroke="none" text-anchor="middle">90</text></g><g stroke-linejoin="miter" stroke-opacity="0.5" fill-opacity="0.0" stroke="rgb(26,102,204)" stroke-width="0.7999999999999996" fill="rgb(0,0,0)" stroke-linecap="butt" stroke-miterlimit="10.0"><path d="M 164.7020,169.9634 v 2.9304 "/></g><g stroke-linejoin="miter" stroke-opacity="1.0" fill-opacity="0.7" font-size="5.860805860805852px" stroke="rgb(0,0,0)" stroke-width="0.7999999999999996" fill="rgb(51,51,51)" stroke-linecap="butt" stroke-miterlimit="10.0"><text dominant-baseline="text-before-edge" transform="matrix(1.0000,0.0000,0.0000,1.0000,149.9019,175.8242)" stroke="none" text-anchor="middle">80</text></g><g stroke-linejoin="miter" stroke-opacity="0.5" fill-opacity="0.0" stroke="rgb(26,102,204)" stroke-width="0.7999999999999996" fill="rgb(0,0,0)" stroke-linecap="butt" stroke-miterlimit="10.0"><path d="M 149.9019,169.9634 v 2.9304 "/></g><g stroke-linejoin="miter" stroke-opacity="1.0" fill-opacity="0.7" font-size="5.860805860805852px" stroke="rgb(0,0,0)" stroke-width="0.7999999999999996" fill="rgb(51,51,51)" stroke-linecap="butt" stroke-miterlimit="10.0"><text dominant-baseline="text-before-edge" transform="matrix(1.0000,0.0000,0.0000,1.0000,135.1019,175.8242)" stroke="none" text-anchor="middle">70</text></g><g stroke-linejoin="miter" stroke-opacity="0.5" fill-opacity="0.0" stroke="rgb(26,102,204)" stroke-width="0.7999999999999996" fill="rgb(0,0,0)" stroke-linecap="butt" stroke-miterlimit="10.0"><path d="M 135.1019,169.9634 v 2.9304 "/></g><g stroke-linejoin="miter" stroke-opacity="1.0" fill-opacity="0.7" font-size="5.860805860805852px" stroke="rgb(0,0,0)" stroke-width="0.7999999999999996" fill="rgb(51,51,51)" stroke-linecap="butt" stroke-miterlimit="10.0"><text dominant-baseline="text-before-edge" transform="matrix(1.0000,0.0000,0.0000,1.0000,120.3019,175.8242)" stroke="none" text-anchor="middle">60</text></g><g stroke-linejoin="miter" stroke-opacity="0.5" fill-opacity="0.0" stroke="rgb(26,102,204)" stroke-width="0.7999999999999996" fill="rgb(0,0,0)" stroke-linecap="butt" stroke-miterlimit="10.0"><path d="M 120.3019,169.9634 v 2.9304 "/></g><g stroke-linejoin="miter" stroke-opacity="1.0" fill-opacity="0.7" font-size="5.860805860805852px" stroke="rgb(0,0,0)" stroke-width="0.7999999999999996" fill="rgb(51,51,51)" stroke-linecap="butt" stroke-miterlimit="10.0"><text dominant-baseline="text-before-edge" transform="matrix(1.0000,0.0000,0.0000,1.0000,105.5019,175.8242)" stroke="none" text-anchor="middle">50</text></g><g stroke-linejoin="miter" stroke-opacity="0.5" fill-opacity="0.0" stroke="rgb(26,102,204)" stroke-width="0.7999999999999996" fill="rgb(0,0,0)" stroke-linecap="butt" stroke-miterlimit="10.0"><path d="M 105.5019,169.9634 v 2.9304 "/></g><g stroke-linejoin="miter" stroke-opacity="1.0" fill-opacity="0.7" font-size="5.860805860805852px" stroke="rgb(0,0,0)" stroke-width="0.7999999999999996" fill="rgb(51,51,51)" stroke-linecap="butt" stroke-miterlimit="10.0"><text dominant-baseline="text-before-edge" transform="matrix(1.0000,0.0000,0.0000,1.0000,90.7019,175.8242)" stroke="none" text-anchor="middle">40</text></g><g stroke-linejoin="miter" stroke-opacity="0.5" fill-opacity="0.0" stroke="rgb(26,102,204)" stroke-width="0.7999999999999996" fill="rgb(0,0,0)" stroke-linecap="butt" stroke-miterlimit="10.0"><path d="M 90.7019,169.9634 v 2.9304 "/></g><g stroke-linejoin="miter" stroke-opacity="1.0" fill-opacity="0.7" font-size="5.860805860805852px" stroke="rgb(0,0,0)" stroke-width="0.7999999999999996" fill="rgb(51,51,51)" stroke-linecap="butt" stroke-miterlimit="10.0"><text dominant-baseline="text-before-edge" transform="matrix(1.0000,0.0000,0.0000,1.0000,75.9019,175.8242)" stroke="none" text-anchor="middle">30</text></g><g stroke-linejoin="miter" stroke-opacity="0.5" fill-opacity="0.0" stroke="rgb(26,102,204)" stroke-width="0.7999999999999996" fill="rgb(0,0,0)" stroke-linecap="butt" stroke-miterlimit="10.0"><path d="M 75.9019,169.9634 v 2.9304 "/></g><g stroke-linejoin="miter" stroke-opacity="1.0" fill-opacity="0.7" font-size="5.860805860805852px" stroke="rgb(0,0,0)" stroke-width="0.7999999999999996" fill="rgb(51,51,51)" stroke-linecap="butt" stroke-miterlimit="10.0"><text dominant-baseline="text-before-edge" transform="matrix(1.0000,0.0000,0.0000,1.0000,61.1019,175.8242)" stroke="none" text-anchor="middle">20</text></g><g stroke-linejoin="miter" stroke-opacity="0.5" fill-opacity="0.0" stroke="rgb(26,102,204)" stroke-width="0.7999999999999996" fill="rgb(0,0,0)" stroke-linecap="butt" stroke-miterlimit="10.0"><path d="M 61.1019,169.9634 v 2.9304 "/></g><g stroke-linejoin="miter" stroke-opacity="1.0" fill-opacity="0.7" font-size="5.860805860805852px" stroke="rgb(0,0,0)" stroke-width="0.7999999999999996" fill="rgb(51,51,51)" stroke-linecap="butt" stroke-miterlimit="10.0"><text dominant-baseline="text-before-edge" transform="matrix(1.0000,0.0000,0.0000,1.0000,46.3018,175.8242)" stroke="none" text-anchor="middle">10</text></g><g stroke-linejoin="miter" stroke-opacity="0.5" fill-opacity="0.0" stroke="rgb(26,102,204)" stroke-width="0.7999999999999996" fill="rgb(0,0,0)" stroke-linecap="butt" stroke-miterlimit="10.0"><path d="M 46.3018,169.9634 v 2.9304 "/></g><g stroke-linejoin="miter" stroke-opacity="1.0" fill-opacity="0.7" font-size="5.860805860805852px" stroke="rgb(0,0,0)" stroke-width="0.7999999999999996" fill="rgb(51,51,51)" stroke-linecap="butt" stroke-miterlimit="10.0"><text dominant-baseline="text-before-edge" transform="matrix(1.0000,0.0000,0.0000,1.0000,31.5018,175.8242)" stroke="none" text-anchor="middle">0.0</text></g><g stroke-linejoin="miter" stroke-opacity="0.5" fill-opacity="0.0" stroke="rgb(26,102,204)" stroke-width="0.7999999999999996" fill="rgb(0,0,0)" stroke-linecap="butt" stroke-miterlimit="10.0"><path d="M 31.5018,169.9634 v 2.9304 "/></g><g stroke-linejoin="miter" stroke-opacity="0.5" fill-opacity="0.0" stroke="rgb(241,124,176)" stroke-width="1.999999999999999" fill="rgb(0,0,0)" stroke-linecap="butt" stroke-miterlimit="10.0"><path d="M 31.5018,109.3318 l 1.4800,3.9087 l 1.4800,-3.1821 l 1.4800,3.2023 l 1.4800,0.6187 l 1.4800,-4.9127 l 1.4800,10.4318 l 1.4800,-5.8733 l 1.4800,-0.1971 l 1.4800,-1.3438 l 1.4800,1.5108 l 1.4800,-3.3290 l 1.4800,-4.8258 l 1.4800,-0.2119 l 1.4800,-1.1787 l 1.4800,-2.6345 l 1.4800,-2.7508 l 1.4800,0.5180 l 1.4800,-0.9523 l 1.4800,3.8734 l 1.4800,-3.3072 l 1.4800,1.2468 l 1.4800,-4.7240 l 1.4800,4.2671 l 1.4800,-1.2911 l 1.4800,2.2892 l 1.4800,1.9066 l 1.4800,2.8991 l 1.4800,1.7275 l 1.4800,6.6331 l 1.4800,-1.2986 l 1.4800,2.3969 l 1.4800,3.2343 l 1.4800,0.8150 l 1.4800,4.0963 l 1.4800,2.8384 l 1.4800,5.9188 l 1.4800,4.1489 l 1.4800,-0.1133 l 1.4800,-2.5801 l 1.4800,-1.3567 l 1.4800,-3.7706 l 1.4800,-2.1084 l 1.4800,6.7604 l 1.4800,0.9839 l 1.4800,-1.5133 l 1.4800,-1.1198 l 1.4800,-1.0544 l 1.4800,3.2066 l 1.4800,1.6962 l 1.4800,-0.3428 l 1.4800,1.7766 l 1.4800,-1.7289 l 1.4800,-2.5412 l 1.4800,0.0712 l 1.4800,-1.4146 l 1.4800,6.6698 l 1.4800,6.5244 l 1.4800,-5.5030 l 1.4800,1.0218 l 1.4800,-1.8838 l 1.4800,-7.2711 l 1.4800,5.7595 l 1.4800,-0.4412 l 1.4800,-1.5331 l 1.4800,-2.0059 l 1.4800,1.1835 l 1.4800,-0.9793 l 1.4800,-3.8735 l 1.4800,2.5134 l 1.4800,-1.6175 l 1.4800,2.4882 l 1.4800,2.8643 l 1.4800,-5.9658 l 1.4800,0.8102 l 1.4800,3.0285 l 1.4800,-7.6552 l 1.4800,3.8044 l 1.4800,-0.8603 l 1.4800,1.4877 l 1.4800,2.8005 l 1.4800,0.9116 l 1.4800,0.6929 l 1.4800,1.4205 l 1.4800,1.3067 l 1.4800,2.5676 l 1.4800,-6.6274 l 1.4800,-0.6502 l 1.4800,-5.2600 l 1.4800,-2.0014 l 1.4800,0.3852 l 1.4800,1.6761 l 1.4800,9.6658 l 1.4800,-2.6542 l 1.4800,-3.6324 l 1.4800,0.1586 l 1.4800,3.2149 l 1.4800,-3.4031 l 1.4800,-5.1375 l 1.4800,-10.7345 "/></g><g stroke-linejoin="miter" stroke-opacity="0.5" fill-opacity="0.0" stroke="rgb(96,189,104)" stroke-width="1.999999999999999" fill="rgb(0,0,0)" stroke-linecap="butt" stroke-miterlimit="10.0"><path d="M 31.5018,122.0283 l 1.4800,2.3521 l 1.4800,9.2799 l 1.4800,0.2832 l 1.4800,-2.5539 l 1.4800,6.3107 l 1.4800,-0.7813 l 1.4800,0.1246 l 1.4800,-3.1754 l 1.4800,-2.3669 l 1.4800,0.2902 l 1.4800,-0.2635 l 1.4800,-5.6446 l 1.4800,2.1120 l 1.4800,0.1811 l 1.4800,-2.1532 l 1.4800,-1.6418 l 1.4800,-1.6837 l 1.4800,-4.2381 l 1.4800,1.4387 l 1.4800,1.3434 l 1.4800,-5.4338 l 1.4800,-6.7954 l 1.4800,-2.9984 l 1.4800,-1.4379 l 1.4800,-1.6975 l 1.4800,-2.1770 l 1.4800,-4.4578 l 1.4800,-0.6972 l 1.4800,-0.8200 l 1.4800,-1.3582 l 1.4800,-3.3195 l 1.4800,4.9286 l 1.4800,1.0678 l 1.4800,-2.6151 l 1.4800,-6.4299 l 1.4800,-5.1709 l 1.4800,1.5398 l 1.4800,-0.8898 l 1.4800,-0.1348 l 1.4800,-3.0488 l 1.4800,-4.3767 l 1.4800,2.6789 l 1.4800,-0.7312 l 1.4800,-2.8346 l 1.4800,2.3396 l 1.4800,2.0430 l 1.4800,-5.3916 l 1.4800,-1.8210 l 1.4800,-0.2686 l 1.4800,3.5305 l 1.4800,4.2203 l 1.4800,-8.2355 l 1.4800,-1.4851 l 1.4800,1.6271 l 1.4800,6.2399 l 1.4800,-0.3765 l 1.4800,-0.4854 l 1.4800,0.3454 l 1.4800,-2.7234 l 1.4800,-3.2982 l 1.4800,-3.5889 l 1.4800,-3.7557 l 1.4800,-4.2124 l 1.4800,-7.3720 l 1.4800,-2.2824 l 1.4800,1.5384 l 1.4800,-1.7676 l 1.4800,2.3725 l 1.4800,0.5166 l 1.4800,6.0830 l 1.4800,-4.2680 l 1.4800,6.7513 l 1.4800,-0.6589 l 1.4800,-2.1430 l 1.4800,0.1727 l 1.4800,-6.9807 l 1.4800,-4.1658 l 1.4800,-2.3914 l 1.4800,-0.3937 l 1.4800,2.3121 l 1.4800,0.8627 l 1.4800,2.8936 l 1.4800,6.8942 l 1.4800,-3.1435 l 1.4800,1.9822 l 1.4800,-4.4390 l 1.4800,-0.6914 l 1.4800,-5.9008 l 1.4800,-3.9681 l 1.4800,2.2708 l 1.4800,-0.4206 l 1.4800,4.7985 l 1.4800,-2.6132 l 1.4800,5.5661 l 1.4800,-7.1441 l 1.4800,-1.5211 l 1.4800,0.3206 l 1.4800,1.1084 l 1.4800,-5.6890 "/></g><g stroke-linejoin="miter" stroke-opacity="0.5" fill-opacity="0.0" stroke="rgb(250,165,218)" stroke-width="1.999999999999999" fill="rgb(0,0,0)" stroke-linecap="butt" stroke-miterlimit="10.0"><path d="M 31.5018,112.7991 l 1.4800,-6.9009 l 1.4800,-9.3670 l 1.4800,-2.6464 l 1.4800,7.2678 l 1.4800,0.1650 l 1.4800,4.1193 l 1.4800,-0.4329 l 1.4800,7.2186 l 1.4800,1.6061 l 1.4800,5.1780 l 1.4800,-2.7916 l 1.4800,-8.2636 l 1.4800,-1.7518 l 1.4800,3.4217 l 1.4800,-4.1413 l 1.4800,-4.0108 l 1.4800,-4.0823 l 1.4800,-2.5652 l 1.4800,-0.9073 l 1.4800,-5.9856 l 1.4800,-3.8184 l 1.4800,1.7428 l 1.4800,-1.2564 l 1.4800,9.1454 l 1.4800,0.2372 l 1.4800,1.0187 l 1.4800,2.0509 l 1.4800,-2.3972 l 1.4800,3.2045 l 1.4800,1.7807 l 1.4800,1.4112 l 1.4800,-6.3648 l 1.4800,-2.5742 l 1.4800,-3.1236 l 1.4800,-0.4210 l 1.4800,-1.4794 l 1.4800,5.1501 l 1.4800,1.5502 l 1.4800,5.0070 l 1.4800,-7.8725 l 1.4800,1.0118 l 1.4800,3.4946 l 1.4800,-2.2162 l 1.4800,2.8554 l 1.4800,4.2963 l 1.4800,7.9150 l 1.4800,1.1881 l 1.4800,-0.8469 l 1.4800,-2.5175 l 1.4800,7.0282 l 1.4800,-6.1143 l 1.4800,-1.6404 l 1.4800,6.7807 l 1.4800,1.4486 l 1.4800,4.1984 l 1.4800,5.2062 l 1.4800,0.9470 l 1.4800,-0.8652 l 1.4800,2.9756 l 1.4800,-2.8912 l 1.4800,5.1241 l 1.4800,-2.1326 l 1.4800,-1.6340 l 1.4800,0.1816 l 1.4800,-0.6298 l 1.4800,0.9939 l 1.4800,-1.7165 l 1.4800,5.1070 l 1.4800,1.6148 l 1.4800,5.6742 l 1.4800,0.3729 l 1.4800,5.9065 l 1.4800,1.7755 l 1.4800,-5.0929 l 1.4800,3.7250 l 1.4800,-0.2420 l 1.4800,0.3932 l 1.4800,3.2147 l 1.4800,1.4037 l 1.4800,-2.2321 l 1.4800,-2.9486 l 1.4800,-1.6227 l 1.4800,0.1497 l 1.4800,0.7671 l 1.4800,0.6214 l 1.4800,-2.1990 l 1.4800,-1.5236 l 1.4800,0.9689 l 1.4800,-1.7991 l 1.4800,0.6272 l 1.4800,-1.5644 l 1.4800,5.5915 l 1.4800,-3.4137 l 1.4800,-0.8679 l 1.4800,5.4490 l 1.4800,1.5273 l 1.4800,-4.4584 l 1.4800,3.4805 l 1.4800,3.0842 "/></g><g stroke-linejoin="miter" stroke-opacity="0.5" fill-opacity="0.0" stroke="rgb(93,165,218)" stroke-width="1.999999999999999" fill="rgb(0,0,0)" stroke-linecap="butt" stroke-miterlimit="10.0"><path d="M 31.5018,120.0701 l 1.4800,-0.2408 l 1.4800,2.0829 l 1.4800,1.7075 l 1.4800,-0.7799 l 1.4800,-3.4184 l 1.4800,3.3675 l 1.4800,0.5351 l 1.4800,0.6621 l 1.4800,-4.2228 l 1.4800,2.8879 l 1.4800,6.7081 l 1.4800,-3.6607 l 1.4800,-0.1117 l 1.4800,-1.5201 l 1.4800,1.0389 l 1.4800,5.5077 l 1.4800,4.8857 l 1.4800,-1.6179 l 1.4800,3.6168 l 1.4800,-4.2303 l 1.4800,5.6378 l 1.4800,-2.9552 l 1.4800,4.7055 l 1.4800,4.4883 l 1.4800,-9.6350 l 1.4800,3.3645 l 1.4800,-6.3042 l 1.4800,-1.9292 l 1.4800,4.3709 l 1.4800,-1.5577 l 1.4800,2.3904 l 1.4800,5.3808 l 1.4800,-11.7887 l 1.4800,-1.0684 l 1.4800,-3.7148 l 1.4800,5.5235 l 1.4800,2.0345 l 1.4800,-1.1065 l 1.4800,-0.2484 l 1.4800,2.4097 l 1.4800,-2.0390 l 1.4800,3.7735 l 1.4800,5.4175 l 1.4800,-4.7940 l 1.4800,-2.5066 l 1.4800,3.7959 l 1.4800,5.7026 l 1.4800,3.6163 l 1.4800,-1.0602 l 1.4800,-5.6013 l 1.4800,3.7413 l 1.4800,3.8612 l 1.4800,6.4649 l 1.4800,-4.3496 l 1.4800,-0.1374 l 1.4800,4.2788 l 1.4800,3.7530 l 1.4800,-5.1006 l 1.4800,-9.9630 l 1.4800,-4.3397 l 1.4800,3.3724 l 1.4800,3.4329 l 1.4800,1.4149 l 1.4800,4.6463 l 1.4800,3.7090 l 1.4800,-0.5717 l 1.4800,0.1217 l 1.4800,3.0194 l 1.4800,-4.6294 l 1.4800,7.1875 l 1.4800,2.4826 l 1.4800,3.8780 l 1.4800,1.7976 l 1.4800,-3.4652 l 1.4800,1.6776 l 1.4800,-2.8780 l 1.4800,1.6890 l 1.4800,-1.2910 l 1.4800,-1.4603 l 1.4800,2.4372 l 1.4800,3.9468 l 1.4800,-0.2503 l 1.4800,0.4521 l 1.4800,-1.4508 l 1.4800,0.1349 l 1.4800,-1.1494 l 1.4800,-3.1321 l 1.4800,-3.1058 l 1.4800,1.3033 l 1.4800,0.1768 l 1.4800,-5.3977 l 1.4800,-3.3596 l 1.4800,-0.5826 l 1.4800,-4.8191 l 1.4800,1.8043 l 1.4800,-3.2586 l 1.4800,4.2524 l 1.4800,-4.4361 l 1.4800,3.7643 "/></g><g stroke-linejoin="miter" stroke-opacity="0.5" fill-opacity="0.0" stroke="rgb(85,85,85)" stroke-width="1.999999999999999" fill="rgb(0,0,0)" stroke-linecap="butt" stroke-miterlimit="10.0"><path d="M 31.5018,110.7848 l 1.4800,3.1199 l 1.4800,-7.4497 l 1.4800,1.0456 l 1.4800,-5.3942 l 1.4800,7.1937 l 1.4800,-0.8508 l 1.4800,-2.2316 l 1.4800,-5.4672 l 1.4800,-0.9989 l 1.4800,-0.1857 l 1.4800,-3.8447 l 1.4800,3.9815 l 1.4800,-1.8501 l 1.4800,3.2843 l 1.4800,-2.8795 l 1.4800,-1.5429 l 1.4800,-6.3613 l 1.4800,-1.7604 l 1.4800,3.4570 l 1.4800,0.6089 l 1.4800,1.9712 l 1.4800,-2.6562 l 1.4800,0.0827 l 1.4800,-0.8192 l 1.4800,2.1789 l 1.4800,5.0118 l 1.4800,-2.2055 l 1.4800,1.0933 l 1.4800,-3.5863 l 1.4800,-4.4894 l 1.4800,-6.5434 l 1.4800,0.6259 l 1.4800,-2.9206 l 1.4800,4.2381 l 1.4800,2.1102 l 1.4800,-7.4513 l 1.4800,2.0888 l 1.4800,3.4159 l 1.4800,2.6411 l 1.4800,-1.4020 l 1.4800,2.2074 l 1.4800,-0.6696 l 1.4800,-0.7864 l 1.4800,0.8695 l 1.4800,-3.8622 l 1.4800,-3.1575 l 1.4800,4.4528 l 1.4800,0.4986 l 1.4800,2.7482 l 1.4800,-5.6148 l 1.4800,6.7879 l 1.4800,-4.0245 l 1.4800,-3.1868 l 1.4800,-1.4478 l 1.4800,3.5086 l 1.4800,-2.3176 l 1.4800,5.3531 l 1.4800,-2.7299 l 1.4800,0.5235 l 1.4800,-7.5208 l 1.4800,0.4870 l 1.4800,-1.7094 l 1.4800,-0.0400 l 1.4800,-3.4504 l 1.4800,1.1133 l 1.4800,-2.2672 l 1.4800,-9.1536 l 1.4800,0.3300 l 1.4800,-1.5040 l 1.4800,-6.9733 l 1.4800,1.2152 l 1.4800,-1.4300 l 1.4800,-7.5564 l 1.4800,-5.0990 l 1.4800,3.9913 l 1.4800,-3.6574 l 1.4800,-1.1606 l 1.4800,-4.7375 l 1.4800,2.1198 l 1.4800,4.7107 l 1.4800,3.1801 l 1.4800,-2.2520 l 1.4800,-0.1637 l 1.4800,-3.9251 l 1.4800,-0.5834 l 1.4800,-8.0138 l 1.4800,1.6918 l 1.4800,-1.3527 l 1.4800,-5.0697 l 1.4800,-4.0259 l 1.4800,0.0319 l 1.4800,1.8184 l 1.4800,-2.2610 l 1.4800,0.9202 l 1.4800,1.0151 l 1.4800,5.2511 l 1.4800,5.5230 l 1.4800,-3.7405 l 1.4800,0.4630 "/></g></svg>