<?xml version="1.0" encoding="UTF-8"?>
<!DOCTYPE svg PUBLIC "-//W3C//DTD SVG 1.1//EN"
    "http://www.w3.org/Graphics/SVG/1.1/DTD/svg11.dtd"><svg xmlns="http://www.w3.org/2000/svg" height="200.0000" stroke-opacity="1" viewBox="0 0 200 200" font-size="1" width="200.0000" xmlns:xlink="http://www.w3.org/1999/xlink" stroke="rgb(0,0,0)" version="1.1"><defs></defs><defs></defs><g stroke-linejoin="miter" stroke-opacity="0.0" fill-opacity="0.5" stroke="rgb(0,0,0)" stroke-width="0.0" fill="rgb(94,19,94)" stroke-linecap="butt" stroke-miterlimit="10.0"><path d="M 31.5018,168.4982 l -0.0000,-146.5201 h -2.9304 l -0.0000,146.5201 Z"/></g><defs></defs><g stroke-linejoin="miter" stroke-opacity="1.0" fill-opacity="0.7" font-size="5.86080586080586px" stroke="rgb(0,0,0)" stroke-width="0.8" fill="rgb(30,30,30)" stroke-linecap="butt" stroke-miterlimit="10.0"><text dominant-baseline="middle" transform="matrix(1.0000,0.0000,0.0000,1.0000,24.1758,21.9780)" stroke="none" text-anchor="end">   -7.0</text></g><defs></defs><g stroke-linejoin="miter" stroke-opacity="0.5" fill-opacity="0.0" stroke="rgb(0,102,200)" stroke-width="0.8" fill="rgb(0,0,0)" stroke-linecap="butt" stroke-miterlimit="10.0"><path d="M 27.1062,21.9780 h 2.9304 "/></g><defs></defs><g stroke-linejoin="miter" stroke-opacity="1.0" fill-opacity="0.7" font-size="5.86080586080586px" stroke="rgb(0,0,0)" stroke-width="0.8" fill="rgb(30,30,30)" stroke-linecap="butt" stroke-miterlimit="10.0"><text dominant-baseline="middle" transform="matrix(1.0000,0.0000,0.0000,1.0000,24.1758,42.9095)" stroke="none" text-anchor="end">   -8.0</text></g><defs></defs><g stroke-linejoin="miter" stroke-opacity="0.5" fill-opacity="0.0" stroke="rgb(0,102,200)" stroke-width="0.8" fill="rgb(0,0,0)" stroke-linecap="butt" stroke-miterlimit="10.0"><path d="M 27.1062,42.9095 h 2.9304 "/></g><defs></defs><g stroke-linejoin="miter" stroke-opacity="1.0" fill-opacity="0.7" font-size="5.86080586080586px" stroke="rgb(0,0,0)" stroke-width="0.8" fill="rgb(30,30,30)" stroke-linecap="butt" stroke-miterlimit="10.0"><text dominant-baseline="middle" transform="matrix(1.0000,0.0000,0.0000,1.0000,24.1758,63.8409)" stroke="none" text-anchor="end">   -9.0</text></g><defs></defs><g stroke-linejoin="miter" stroke-opacity="0.5" fill-opacity="0.0" stroke="rgb(0,102,200)" stroke-width="0.8" fill="rgb(0,0,0)" stroke-linecap="butt" stroke-miterlimit="10.0"><path d="M 27.1062,63.8409 h 2.9304 "/></g><defs></defs><g stroke-linejoin="miter" stroke-opacity="1.0" fill-opacity="0.7" font-size="5.86080586080586px" stroke="rgb(0,0,0)" stroke-width="0.8" fill="rgb(30,30,30)" stroke-linecap="butt" stroke-miterlimit="10.0"><text dominant-baseline="middle" transform="matrix(1.0000,0.0000,0.0000,1.0000,24.1758,84.7724)" stroke="none" text-anchor="end">  -10.0</text></g><defs></defs><g stroke-linejoin="miter" stroke-opacity="0.5" fill-opacity="0.0" stroke="rgb(0,102,200)" stroke-width="0.8" fill="rgb(0,0,0)" stroke-linecap="butt" stroke-miterlimit="10.0"><path d="M 27.1062,84.7724 h 2.9304 "/></g><defs></defs><g stroke-linejoin="miter" stroke-opacity="1.0" fill-opacity="0.7" font-size="5.86080586080586px" stroke="rgb(0,0,0)" stroke-width="0.8" fill="rgb(30,30,30)" stroke-linecap="butt" stroke-miterlimit="10.0"><text dominant-baseline="middle" transform="matrix(1.0000,0.0000,0.0000,1.0000,24.1758,105.7038)" stroke="none" text-anchor="end">  -11.0</text></g><defs></defs><g stroke-linejoin="miter" stroke-opacity="0.5" fill-opacity="0.0" stroke="rgb(0,102,200)" stroke-width="0.8" fill="rgb(0,0,0)" stroke-linecap="butt" stroke-miterlimit="10.0"><path d="M 27.1062,105.7038 h 2.9304 "/></g><defs></defs><g stroke-linejoin="miter" stroke-opacity="1.0" fill-opacity="0.7" font-size="5.86080586080586px" stroke="rgb(0,0,0)" stroke-width="0.8" fill="rgb(30,30,30)" stroke-linecap="butt" stroke-miterlimit="10.0"><text dominant-baseline="middle" transform="matrix(1.0000,0.0000,0.0000,1.0000,24.1758,126.6353)" stroke="none" text-anchor="end">  -12.0</text></g><defs></defs><g stroke-linejoin="miter" stroke-opacity="0.5" fill-opacity="0.0" stroke="rgb(0,102,200)" stroke-width="0.8" fill="rgb(0,0,0)" stroke-linecap="butt" stroke-miterlimit="10.0"><path d="M 27.1062,126.6353 h 2.9304 "/></g><defs></defs><g stroke-linejoin="miter" stroke-opacity="1.0" fill-opacity="0.7" font-size="5.86080586080586px" stroke="rgb(0,0,0)" stroke-width="0.8" fill="rgb(30,30,30)" stroke-linecap="butt" stroke-miterlimit="10.0"><text dominant-baseline="middle" transform="matrix(1.0000,0.0000,0.0000,1.0000,24.1758,147.5667)" stroke="none" text-anchor="end">  -13.0</text></g><defs></defs><g stroke-linejoin="miter" stroke-opacity="0.5" fill-opacity="0.0" stroke="rgb(0,102,200)" stroke-width="0.8" fill="rgb(0,0,0)" stroke-linecap="butt" stroke-miterlimit="10.0"><path d="M 27.1062,147.5667 h 2.9304 "/></g><defs></defs><g stroke-linejoin="miter" stroke-opacity="1.0" fill-opacity="0.7" font-size="5.86080586080586px" stroke="rgb(0,0,0)" stroke-width="0.8" fill="rgb(30,30,30)" stroke-linecap="butt" stroke-miterlimit="10.0"><text dominant-baseline="middle" transform="matrix(1.0000,0.0000,0.0000,1.0000,24.1758,168.4982)" stroke="none" text-anchor="end">  -14.0</text></g><defs></defs><g stroke-linejoin="miter" stroke-opacity="0.5" fill-opacity="0.0" stroke="rgb(0,102,200)" stroke-width="0.8" fill="rgb(0,0,0)" stroke-linecap="butt" stroke-miterlimit="10.0"><path d="M 27.1062,168.4982 h 2.9304 "/></g><defs></defs><g stroke-linejoin="miter" stroke-opacity="0.0" fill-opacity="0.5" stroke="rgb(0,0,0)" stroke-width="0.0" fill="rgb(94,19,94)" stroke-linecap="butt" stroke-miterlimit="10.0"><path d="M 178.0220,171.4286 l -0.0000,-2.9304 h -146.5201 l -0.0000,2.9304 Z"/></g><defs></defs><g stroke-linejoin="miter" stroke-opacity="1.0" fill-opacity="0.7" font-size="5.86080586080586px" stroke="rgb(0,0,0)" stroke-width="0.8" fill="rgb(30,30,30)" stroke-linecap="butt" stroke-miterlimit="10.0"><text dominant-baseline="text-before-edge" transform="matrix(1.0000,0.0000,0.0000,1.0000,178.0220,175.8242)" stroke="none" text-anchor="middle">   -8.0</text></g><defs></defs><g stroke-linejoin="miter" stroke-opacity="0.5" fill-opacity="0.0" stroke="rgb(0,102,200)" stroke-width="0.8" fill="rgb(0,0,0)" stroke-linecap="butt" stroke-miterlimit="10.0"><path d="M 178.0220,169.9634 v 2.9304 "/></g><defs></defs><g stroke-linejoin="miter" stroke-opacity="1.0" fill-opacity="0.7" font-size="5.86080586080586px" stroke="rgb(0,0,0)" stroke-width="0.8" fill="rgb(30,30,30)" stroke-linecap="butt" stroke-miterlimit="10.0"><text dominant-baseline="text-before-edge" transform="matrix(1.0000,0.0000,0.0000,1.0000,159.7070,175.8242)" stroke="none" text-anchor="middle">   -9.0</text></g><defs></defs><g stroke-linejoin="miter" stroke-opacity="0.5" fill-opacity="0.0" stroke="rgb(0,102,200)" stroke-width="0.8" fill="rgb(0,0,0)" stroke-linecap="butt" stroke-miterlimit="10.0"><path d="M 159.7070,169.9634 v 2.9304 "/></g><defs></defs><g stroke-linejoin="miter" stroke-opacity="1.0" fill-opacity="0.7" font-size="5.86080586080586px" stroke="rgb(0,0,0)" stroke-width="0.8" fill="rgb(30,30,30)" stroke-linecap="butt" stroke-miterlimit="10.0"><text dominant-baseline="text-before-edge" transform="matrix(1.0000,0.0000,0.0000,1.0000,141.3919,175.8242)" stroke="none" text-anchor="middle">  -10.0</text></g><defs></defs><g stroke-linejoin="miter" stroke-opacity="0.5" fill-opacity="0.0" stroke="rgb(0,102,200)" stroke-width="0.8" fill="rgb(0,0,0)" stroke-linecap="butt" stroke-miterlimit="10.0"><path d="M 141.3919,169.9634 v 2.9304 "/></g><defs></defs><g stroke-linejoin="miter" stroke-opacity="1.0" fill-opacity="0.7" font-size="5.86080586080586px" stroke="rgb(0,0,0)" stroke-width="0.8" fill="rgb(30,30,30)" stroke-linecap="butt" stroke-miterlimit="10.0"><text dominant-baseline="text-before-edge" transform="matrix(1.0000,0.0000,0.0000,1.0000,123.0769,175.8242)" stroke="none" text-anchor="middle">  -11.0</text></g><defs></defs><g stroke-linejoin="miter" stroke-opacity="0.5" fill-opacity="0.0" stroke="rgb(0,102,200)" stroke-width="0.8" fill="rgb(0,0,0)" stroke-linecap="butt" stroke-miterlimit="10.0"><path d="M 123.0769,169.9634 v 2.9304 "/></g><defs></defs><g stroke-linejoin="miter" stroke-opacity="1.0" fill-opacity="0.7" font-size="5.86080586080586px" stroke="rgb(0,0,0)" stroke-width="0.8" fill="rgb(30,30,30)" stroke-linecap="butt" stroke-miterlimit="10.0"><text dominant-baseline="text-before-edge" transform="matrix(1.0000,0.0000,0.0000,1.0000,104.7619,175.8242)" stroke="none" text-anchor="middle">  -12.0</text></g><defs></defs><g stroke-linejoin="miter" stroke-opacity="0.5" fill-opacity="0.0" stroke="rgb(0,102,200)" stroke-width="0.8" fill="rgb(0,0,0)" stroke-linecap="butt" stroke-miterlimit="10.0"><path d="M 104.7619,169.9634 v 2.9304 "/></g><defs></defs><g stroke-linejoin="miter" stroke-opacity="1.0" fill-opacity="0.7" font-size="5.86080586080586px" stroke="rgb(0,0,0)" stroke-width="0.8" fill="rgb(30,30,30)" stroke-linecap="butt" stroke-miterlimit="10.0"><text dominant-baseline="text-before-edge" transform="matrix(1.0000,0.0000,0.0000,1.0000,86.4469,175.8242)" stroke="none" text-anchor="middle">  -13.0</text></g><defs></defs><g stroke-linejoin="miter" stroke-opacity="0.5" fill-opacity="0.0" stroke="rgb(0,102,200)" stroke-width="0.8" fill="rgb(0,0,0)" stroke-linecap="butt" stroke-miterlimit="10.0"><path d="M 86.4469,169.9634 v 2.9304 "/></g><defs></defs><g stroke-linejoin="miter" stroke-opacity="1.0" fill-opacity="0.7" font-size="5.86080586080586px" stroke="rgb(0,0,0)" stroke-width="0.8" fill="rgb(30,30,30)" stroke-linecap="butt" stroke-miterlimit="10.0"><text dominant-baseline="text-before-edge" transform="matrix(1.0000,0.0000,0.0000,1.0000,68.1319,175.8242)" stroke="none" text-anchor="middle">  -14.0</text></g><defs></defs><g stroke-linejoin="miter" stroke-opacity="0.5" fill-opacity="0.0" stroke="rgb(0,102,200)" stroke-width="0.8" fill="rgb(0,0,0)" stroke-linecap="butt" stroke-miterlimit="10.0"><path d="M 68.1319,169.9634 v 2.9304 "/></g><defs></defs><g stroke-linejoin="miter" stroke-opacity="1.0" fill-opacity="0.7" font-size="5.86080586080586px" stroke="rgb(0,0,0)" stroke-width="0.8" fill="rgb(30,30,30)" stroke-linecap="butt" stroke-miterlimit="10.0"><text dominant-baseline="text-before-edge" transform="matrix(1.0000,0.0000,0.0000,1.0000,49.8168,175.8242)" stroke="none" text-anchor="middle">  -15.0</text></g><defs></defs><g stroke-linejoin="miter" stroke-opacity="0.5" fill-opacity="0.0" stroke="rgb(0,102,200)" stroke-width="0.8" fill="rgb(0,0,0)" stroke-linecap="butt" stroke-miterlimit="10.0"><path d="M 49.8168,169.9634 v 2.9304 "/></g><defs></defs><g stroke-linejoin="miter" stroke-opacity="1.0" fill-opacity="0.7" font-size="5.86080586080586px" stroke="rgb(0,0,0)" stroke-width="0.8" fill="rgb(30,30,30)" stroke-linecap="butt" stroke-miterlimit="10.0"><text dominant-baseline="text-before-edge" transform="matrix(1.0000,0.0000,0.0000,1.0000,31.5018,175.8242)" stroke="none" text-anchor="middle">  -16.0</text></g><defs></defs><g stroke-linejoin="miter" stroke-opacity="0.5" fill-opacity="0.0" stroke="rgb(0,102,200)" stroke-width="0.8" fill="rgb(0,0,0)" stroke-linecap="butt" stroke-miterlimit="10.0"><path d="M 31.5018,169.9634 v 2.9304 "/></g><defs></defs><g stroke-linejoin="miter" stroke-opacity="0.6" fill-opacity="0.0" stroke="rgb(59,89,152)" stroke-width="0.2" fill="rgb(0,0,0)" stroke-linecap="butt" stroke-miterlimit="10.0"><path d="M 164.5193,26.0727 l -6.8176,0.8146 l 0.5060,4.2639 l 5.9099,2.3633 l -4.6793,6.6362 l 7.5761,-12.0496 l 11.0075,-6.1231 l -13.3825,10.4060 l -0.5552,6.1784 l -7.1824,15.2759 l 7.9418,-15.4161 l 5.8177,-8.4441 l -13.8814,9.1714 l -20.1955,11.5896 l 2.8730,4.4529 l -10.6105,14.4922 l -5.6259,-2.6134 l -9.3753,15.0394 l 9.5203,-8.7906 l 10.5256,-9.1278 l -11.1627,-0.1719 l 7.9980,-6.0582 l 4.9062,-3.7115 l -1.4967,-6.1349 l -11.2076,10.3275 l 9.7765,-4.9868 l -20.4266,17.2701 l 0.9678,-7.8425 l -9.5501,4.6214 l -23.3283,19.6809 l -6.3777,18.0205 l -3.4636,15.5762 l -12.7848,20.3197 l -9.5986,4.6366 l -2.2898,4.2088 l 5.3333,-1.2904 l 1.4871,-7.2989 l -7.8320,9.9247 l -1.6853,-3.3934 l -11.6552,3.4171 l 15.2167,-12.6280 l -4.0592,-2.1390 l 12.3130,-18.0939 l 1.8969,1.2023 l 2.3913,2.3145 l 0.3191,-1.0616 l -7.9839,9.0204 l 16.4068,-13.0177 l 8.1599,-9.5210 l -5.0412,-2.7542 l 11.4248,-1.5637 l -16.6408,21.8810 l -9.8179,12.4186 l 4.5113,-14.9794 l 1.9809,-6.1032 l -2.4997,-6.8282 l 5.6262,6.8166 l -8.6191,6.5447 l 12.9227,-15.3818 l 12.8164,-10.3276 l -11.8203,16.4859 l 16.3128,-8.4296 l 7.1731,-0.9615 l -21.7978,23.0033 l 2.6217,-3.3004 l -1.5281,-2.8759 l -0.6117,1.3568 l 1.1411,-5.6898 l 8.5529,-11.1662 l -3.7497,8.9098 l -6.7242,5.1564 l -10.5522,19.1016 l -4.9068,21.1196 l 7.2138,-18.8862 l -14.1434,10.9349 l 6.9331,-5.6709 l 10.8236,-18.2494 l -21.3573,11.3356 l 3.9493,-7.7871 l 3.3226,-2.6142 l 4.9712,-2.8382 l 5.9269,0.8252 l 5.0046,-2.3196 l -17.8288,11.5569 l 12.6139,-8.0525 l 9.2001,-6.3118 l -1.5200,10.1849 l 5.6810,-0.5201 l 11.0336,-14.0188 l 9.5736,-12.2758 l 13.0311,-15.1346 l -8.6379,8.5620 l 8.5735,-7.2904 l -8.8934,0.1391 l -13.7347,20.6162 l -8.2751,3.7040 l -7.1292,9.9386 l 1.5473,-2.2616 l -16.1769,23.7048 l -2.8088,-0.3973 l -13.1304,21.8083 "/></g></svg>