<?xml version="1.0" encoding="UTF-8"?>
<!DOCTYPE svg PUBLIC "-//W3C//DTD SVG 1.1//EN"
    "http://www.w3.org/Graphics/SVG/1.1/DTD/svg11.dtd"><svg xmlns="http://www.w3.org/2000/svg" height="200.0000" stroke-opacity="1" viewBox="0 0 200 200" font-size="1" width="200.0000" xmlns:xlink="http://www.w3.org/1999/xlink" stroke="rgb(0,0,0)" version="1.1"><defs></defs><g stroke-linejoin="miter" stroke-opacity="0.0" fill-opacity="0.5" stroke="rgb(0,0,0)" stroke-width="0.0" fill="rgb(102,26,102)" stroke-linecap="butt" stroke-miterlimit="10.0"><path d="M 31.5018,168.4982 l -0.0000,-146.5201 h -2.9304 l -0.0000,146.5201 Z"/></g><g stroke-linejoin="miter" stroke-opacity="1.0" fill-opacity="0.7" font-size="5.860805860805852px" stroke="rgb(0,0,0)" stroke-width="0.7999999999999995" fill="rgb(51,51,51)" stroke-linecap="butt" stroke-miterlimit="10.0"><text dominant-baseline="middle" transform="matrix(1.0000,0.0000,0.0000,1.0000,24.1758,29.5804)" stroke="none" text-anchor="end">5.0</text></g><g stroke-linejoin="miter" stroke-opacity="0.5" fill-opacity="0.0" stroke="rgb(26,102,204)" stroke-width="0.7999999999999995" fill="rgb(0,0,0)" stroke-linecap="butt" stroke-miterlimit="10.0"><path d="M 27.1062,29.5804 h 2.9304 "/></g><g stroke-linejoin="miter" stroke-opacity="1.0" fill-opacity="0.7" font-size="5.860805860805852px" stroke="rgb(0,0,0)" stroke-width="0.7999999999999995" fill="rgb(51,51,51)" stroke-linecap="butt" stroke-miterlimit="10.0"><text dominant-baseline="middle" transform="matrix(1.0000,0.0000,0.0000,1.0000,24.1758,56.8991)" stroke="none" text-anchor="end">0.0</text></g><g stroke-linejoin="miter" stroke-opacity="0.5" fill-opacity="0.0" stroke="rgb(26,102,204)" stroke-width="0.7999999999999995" fill="rgb(0,0,0)" stroke-linecap="butt" stroke-miterlimit="10.0"><path d="M 27.1062,56.8991 h 2.9304 "/></g><g stroke-linejoin="miter" stroke-opacity="1.0" fill-opacity="0.7" font-size="5.860805860805852px" stroke="rgb(0,0,0)" stroke-width="0.7999999999999995" fill="rgb(51,51,51)" stroke-linecap="butt" stroke-miterlimit="10.0"><text dominant-baseline="middle" transform="matrix(1.0000,0.0000,0.0000,1.0000,24.1758,84.2179)" stroke="none" text-anchor="end">-5.0</text></g><g stroke-linejoin="miter" stroke-opacity="0.5" fill-opacity="0.0" stroke="rgb(26,102,204)" stroke-width="0.7999999999999995" fill="rgb(0,0,0)" stroke-linecap="butt" stroke-miterlimit="10.0"><path d="M 27.1062,84.2179 h 2.9304 "/></g><g stroke-linejoin="miter" stroke-opacity="1.0" fill-opacity="0.7" font-size="5.860805860805852px" stroke="rgb(0,0,0)" stroke-width="0.7999999999999995" fill="rgb(51,51,51)" stroke-linecap="butt" stroke-miterlimit="10.0"><text dominant-baseline="middle" transform="matrix(1.0000,0.0000,0.0000,1.0000,24.1758,111.5367)" stroke="none" text-anchor="end">-10</text></g><g stroke-linejoin="miter" stroke-opacity="0.5" fill-opacity="0.0" stroke="rgb(26,102,204)" stroke-width="0.7999999999999995" fill="rgb(0,0,0)" stroke-linecap="butt" stroke-miterlimit="10.0"><path d="M 27.1062,111.5367 h 2.9304 "/></g><g stroke-linejoin="miter" stroke-opacity="1.0" fill-opacity="0.7" font-size="5.860805860805852px" stroke="rgb(0,0,0)" stroke-width="0.7999999999999995" fill="rgb(51,51,51)" stroke-linecap="butt" stroke-miterlimit="10.0"><text dominant-baseline="middle" transform="matrix(1.0000,0.0000,0.0000,1.0000,24.1758,138.8555)" stroke="none" text-anchor="end">-15</text></g><g stroke-linejoin="miter" stroke-opacity="0.5" fill-opacity="0.0" stroke="rgb(26,102,204)" stroke-width="0.7999999999999995" fill="rgb(0,0,0)" stroke-linecap="butt" stroke-miterlimit="10.0"><path d="M 27.1062,138.8555 h 2.9304 "/></g><g stroke-linejoin="miter" stroke-opacity="1.0" fill-opacity="0.7" font-size="5.860805860805852px" stroke="rgb(0,0,0)" stroke-width="0.7999999999999995" fill="rgb(51,51,51)" stroke-linecap="butt" stroke-miterlimit="10.0"><text dominant-baseline="middle" transform="matrix(1.0000,0.0000,0.0000,1.0000,24.1758,166.1742)" stroke="none" text-anchor="end">-20</text></g><g stroke-linejoin="miter" stroke-opacity="0.5" fill-opacity="0.0" stroke="rgb(26,102,204)" stroke-width="0.7999999999999995" fill="rgb(0,0,0)" stroke-linecap="butt" stroke-miterlimit="10.0"><path d="M 27.1062,166.1742 h 2.9304 "/></g><g stroke-linejoin="miter" stroke-opacity="0.0" fill-opacity="0.5" stroke="rgb(0,0,0)" stroke-width="0.0" fill="rgb(102,26,102)" stroke-linecap="butt" stroke-miterlimit="10.0"><path d="M 178.0220,171.4286 l -0.0000,-2.9304 h -146.5201 l -0.0000,2.9304 Z"/></g><g stroke-linejoin="miter" stroke-opacity="1.0" fill-opacity="0.7" font-size="5.860805860805852px" stroke="rgb(0,0,0)" stroke-width="0.7999999999999995" fill="rgb(51,51,51)" stroke-linecap="butt" stroke-miterlimit="10.0"><text dominant-baseline="text-before-edge" transform="matrix(1.0000,0.0000,0.0000,1.0000,164.7020,175.8242)" stroke="none" text-anchor="middle">90</text></g><g stroke-linejoin="miter" stroke-opacity="0.5" fill-opacity="0.0" stroke="rgb(26,102,204)" stroke-width="0.7999999999999995" fill="rgb(0,0,0)" stroke-linecap="butt" stroke-miterlimit="10.0"><path d="M 164.7020,169.9634 v 2.9304 "/></g><g stroke-linejoin="miter" stroke-opacity="1.0" fill-opacity="0.7" font-size="5.860805860805852px" stroke="rgb(0,0,0)" stroke-width="0.7999999999999995" fill="rgb(51,51,51)" stroke-linecap="butt" stroke-miterlimit="10.0"><text dominant-baseline="text-before-edge" transform="matrix(1.0000,0.0000,0.0000,1.0000,149.9019,175.8242)" stroke="none" text-anchor="middle">80</text></g><g stroke-linejoin="miter" stroke-opacity="0.5" fill-opacity="0.0" stroke="rgb(26,102,204)" stroke-width="0.7999999999999995" fill="rgb(0,0,0)" stroke-linecap="butt" stroke-miterlimit="10.0"><path d="M 149.9019,169.9634 v 2.9304 "/></g><g stroke-linejoin="miter" stroke-opacity="1.0" fill-opacity="0.7" font-size="5.860805860805852px" stroke="rgb(0,0,0)" stroke-width="0.7999999999999995" fill="rgb(51,51,51)" stroke-linecap="butt" stroke-miterlimit="10.0"><text dominant-baseline="text-before-edge" transform="matrix(1.0000,0.0000,0.0000,1.0000,135.1019,175.8242)" stroke="none" text-anchor="middle">70</text></g><g stroke-linejoin="miter" stroke-opacity="0.5" fill-opacity="0.0" stroke="rgb(26,102,204)" stroke-width="0.7999999999999995" fill="rgb(0,0,0)" stroke-linecap="butt" stroke-miterlimit="10.0"><path d="M 135.1019,169.9634 v 2.9304 "/></g><g stroke-linejoin="miter" stroke-opacity="1.0" fill-opacity="0.7" font-size="5.860805860805852px" stroke="rgb(0,0,0)" stroke-width="0.7999999999999995" fill="rgb(51,51,51)" stroke-linecap="butt" stroke-miterlimit="10.0"><text dominant-baseline="text-before-edge" transform="matrix(1.0000,0.0000,0.0000,1.0000,120.3019,175.8242)" stroke="none" text-anchor="middle">60</text></g><g stroke-linejoin="miter" stroke-opacity="0.5" fill-opacity="0.0" stroke="rgb(26,102,204)" stroke-width="0.7999999999999995" fill="rgb(0,0,0)" stroke-linecap="butt" stroke-miterlimit="10.0"><path d="M 120.3019,169.9634 v 2.9304 "/></g><g stroke-linejoin="miter" stroke-opacity="1.0" fill-opacity="0.7" font-size="5.860805860805852px" stroke="rgb(0,0,0)" stroke-width="0.7999999999999995" fill="rgb(51,51,51)" stroke-linecap="butt" stroke-miterlimit="10.0"><text dominant-baseline="text-before-edge" transform="matrix(1.0000,0.0000,0.0000,1.0000,105.5019,175.8242)" stroke="none" text-anchor="middle">50</text></g><g stroke-linejoin="miter" stroke-opacity="0.5" fill-opacity="0.0" stroke="rgb(26,102,204)" stroke-width="0.7999999999999995" fill="rgb(0,0,0)" stroke-linecap="butt" stroke-miterlimit="10.0"><path d="M 105.5019,169.9634 v 2.9304 "/></g><g stroke-linejoin="miter" stroke-opacity="1.0" fill-opacity="0.7" font-size="5.860805860805852px" stroke="rgb(0,0,0)" stroke-width="0.7999999999999995" fill="rgb(51,51,51)" stroke-linecap="butt" stroke-miterlimit="10.0"><text dominant-baseline="text-before-edge" transform="matrix(1.0000,0.0000,0.0000,1.0000,90.7019,175.8242)" stroke="none" text-anchor="middle">40</text></g><g stroke-linejoin="miter" stroke-opacity="0.5" fill-opacity="0.0" stroke="rgb(26,102,204)" stroke-width="0.7999999999999995" fill="rgb(0,0,0)" stroke-linecap="butt" stroke-miterlimit="10.0"><path d="M 90.7019,169.9634 v 2.9304 "/></g><g stroke-linejoin="miter" stroke-opacity="1.0" fill-opacity="0.7" font-size="5.860805860805852px" stroke="rgb(0,0,0)" stroke-width="0.7999999999999995" fill="rgb(51,51,51)" stroke-linecap="butt" stroke-miterlimit="10.0"><text dominant-baseline="text-before-edge" transform="matrix(1.0000,0.0000,0.0000,1.0000,75.9019,175.8242)" stroke="none" text-anchor="middle">30</text></g><g stroke-linejoin="miter" stroke-opacity="0.5" fill-opacity="0.0" stroke="rgb(26,102,204)" stroke-width="0.7999999999999995" fill="rgb(0,0,0)" stroke-linecap="butt" stroke-miterlimit="10.0"><path d="M 75.9019,169.9634 v 2.9304 "/></g><g stroke-linejoin="miter" stroke-opacity="1.0" fill-opacity="0.7" font-size="5.860805860805852px" stroke="rgb(0,0,0)" stroke-width="0.7999999999999995" fill="rgb(51,51,51)" stroke-linecap="butt" stroke-miterlimit="10.0"><text dominant-baseline="text-before-edge" transform="matrix(1.0000,0.0000,0.0000,1.0000,61.1019,175.8242)" stroke="none" text-anchor="middle">20</text></g><g stroke-linejoin="miter" stroke-opacity="0.5" fill-opacity="0.0" stroke="rgb(26,102,204)" stroke-width="0.7999999999999995" fill="rgb(0,0,0)" stroke-linecap="butt" stroke-miterlimit="10.0"><path d="M 61.1019,169.9634 v 2.9304 "/></g><g stroke-linejoin="miter" stroke-opacity="1.0" fill-opacity="0.7" font-size="5.860805860805852px" stroke="rgb(0,0,0)" stroke-width="0.7999999999999995" fill="rgb(51,51,51)" stroke-linecap="butt" stroke-miterlimit="10.0"><text dominant-baseline="text-before-edge" transform="matrix(1.0000,0.0000,0.0000,1.0000,46.3018,175.8242)" stroke="none" text-anchor="middle">10</text></g><g stroke-linejoin="miter" stroke-opacity="0.5" fill-opacity="0.0" stroke="rgb(26,102,204)" stroke-width="0.7999999999999995" fill="rgb(0,0,0)" stroke-linecap="butt" stroke-miterlimit="10.0"><path d="M 46.3018,169.9634 v 2.9304 "/></g><g stroke-linejoin="miter" stroke-opacity="1.0" fill-opacity="0.7" font-size="5.860805860805852px" stroke="rgb(0,0,0)" stroke-width="0.7999999999999995" fill="rgb(51,51,51)" stroke-linecap="butt" stroke-miterlimit="10.0"><text dominant-baseline="text-before-edge" transform="matrix(1.0000,0.0000,0.0000,1.0000,31.5018,175.8242)" stroke="none" text-anchor="middle">0.0</text></g><g stroke-linejoin="miter" stroke-opacity="0.5" fill-opacity="0.0" stroke="rgb(26,102,204)" stroke-width="0.7999999999999995" fill="rgb(0,0,0)" stroke-linecap="butt" stroke-miterlimit="10.0"><path d="M 31.5018,169.9634 v 2.9304 "/></g><g stroke-linejoin="miter" stroke-opacity="0.5" fill-opacity="0.0" stroke="rgb(241,124,176)" stroke-width="1.9999999999999987" fill="rgb(0,0,0)" stroke-linecap="butt" stroke-miterlimit="10.0"><path d="M 31.5018,60.0317 l 1.4800,-10.5450 l 1.4800,5.9476 l 1.4800,11.4574 l 1.4800,5.4660 l 1.4800,-1.7077 l 1.4800,5.2297 l 1.4800,-2.7009 l 1.4800,-3.5131 l 1.4800,-0.5819 l 1.4800,1.4241 l 1.4800,-5.7097 l 1.4800,-1.1629 l 1.4800,5.4615 l 1.4800,2.1934 l 1.4800,8.0020 l 1.4800,1.1905 l 1.4800,6.8789 l 1.4800,-11.4559 l 1.4800,-3.1963 l 1.4800,-0.7328 l 1.4800,-3.1666 l 1.4800,-2.5334 l 1.4800,4.6096 l 1.4800,-2.0251 l 1.4800,1.7540 l 1.4800,-1.2053 l 1.4800,10.1392 l 1.4800,-5.2563 l 1.4800,5.2826 l 1.4800,-1.9106 l 1.4800,-0.2733 l 1.4800,1.8123 l 1.4800,-3.4895 l 1.4800,11.4815 l 1.4800,-1.5662 l 1.4800,0.1091 l 1.4800,-4.5870 l 1.4800,6.1061 l 1.4800,-3.1271 l 1.4800,-10.1952 l 1.4800,0.3171 l 1.4800,4.8874 l 1.4800,2.3470 l 1.4800,5.3115 l 1.4800,4.2142 l 1.4800,-4.9171 l 1.4800,-9.0817 l 1.4800,4.1135 l 1.4800,6.9338 l 1.4800,-0.9179 l 1.4800,1.5370 l 1.4800,12.7780 l 1.4800,6.2800 l 1.4800,7.6755 l 1.4800,-12.6701 l 1.4800,-2.3430 l 1.4800,-6.6297 l 1.4800,-1.2072 l 1.4800,2.3709 l 1.4800,6.5068 l 1.4800,-8.5625 l 1.4800,3.8043 l 1.4800,-2.3759 l 1.4800,-0.9919 l 1.4800,0.0424 l 1.4800,-0.6224 l 1.4800,-7.7535 l 1.4800,5.9815 l 1.4800,-3.8868 l 1.4800,-4.4919 l 1.4800,2.2682 l 1.4800,4.1533 l 1.4800,-5.0521 l 1.4800,1.0677 l 1.4800,-0.0655 l 1.4800,4.9283 l 1.4800,-7.1350 l 1.4800,-6.8842 l 1.4800,9.8420 l 1.4800,-1.4640 l 1.4800,6.3114 l 1.4800,4.0332 l 1.4800,0.7719 l 1.4800,-11.5082 l 1.4800,-7.9340 l 1.4800,-14.4748 l 1.4800,-6.9424 l 1.4800,5.8399 l 1.4800,-6.1347 l 1.4800,5.5731 l 1.4800,6.8729 l 1.4800,5.0238 l 1.4800,8.7859 l 1.4800,0.0179 l 1.4800,-1.7532 l 1.4800,-3.0072 l 1.4800,-3.3018 l 1.4800,7.8942 l 1.4800,-0.9136 "/></g><g stroke-linejoin="miter" stroke-opacity="0.5" fill-opacity="0.0" stroke="rgb(96,189,104)" stroke-width="1.9999999999999987" fill="rgb(0,0,0)" stroke-linecap="butt" stroke-miterlimit="10.0"><path d="M 31.5018,55.6210 l 1.4800,12.5108 l 1.4800,0.8661 l 1.4800,0.9896 l 1.4800,2.0569 l 1.4800,-0.5089 l 1.4800,-0.1575 l 1.4800,2.2597 l 1.4800,-1.5398 l 1.4800,4.4650 l 1.4800,0.4874 l 1.4800,5.3797 l 1.4800,-3.8633 l 1.4800,-1.0455 l 1.4800,13.2752 l 1.4800,4.4908 l 1.4800,-6.4066 l 1.4800,-5.2783 l 1.4800,1.1207 l 1.4800,8.1510 l 1.4800,2.7983 l 1.4800,4.5610 l 1.4800,-1.9661 l 1.4800,7.2675 l 1.4800,1.6203 l 1.4800,-1.3933 l 1.4800,-0.7424 l 1.4800,-6.3284 l 1.4800,0.6890 l 1.4800,-4.3934 l 1.4800,12.2625 l 1.4800,-5.6665 l 1.4800,3.4770 l 1.4800,-5.3784 l 1.4800,-4.0992 l 1.4800,4.8447 l 1.4800,-1.6647 l 1.4800,4.4177 l 1.4800,0.6107 l 1.4800,3.0693 l 1.4800,2.1522 l 1.4800,-4.4914 l 1.4800,-0.6663 l 1.4800,-9.1676 l 1.4800,8.1855 l 1.4800,-1.7745 l 1.4800,-3.3100 l 1.4800,2.5623 l 1.4800,3.5995 l 1.4800,-1.9248 l 1.4800,-6.9432 l 1.4800,6.8742 l 1.4800,-1.6020 l 1.4800,5.7871 l 1.4800,3.7139 l 1.4800,4.7253 l 1.4800,2.8649 l 1.4800,-0.5348 l 1.4800,-2.1636 l 1.4800,8.2953 l 1.4800,4.4790 l 1.4800,-9.5523 l 1.4800,1.5728 l 1.4800,1.4449 l 1.4800,-0.5964 l 1.4800,3.5894 l 1.4800,-6.4800 l 1.4800,3.5887 l 1.4800,9.4675 l 1.4800,9.8913 l 1.4800,-9.7885 l 1.4800,-3.5111 l 1.4800,-2.2735 l 1.4800,1.2370 l 1.4800,1.3990 l 1.4800,-10.9488 l 1.4800,11.1154 l 1.4800,9.5981 l 1.4800,-4.1991 l 1.4800,-0.1539 l 1.4800,1.1966 l 1.4800,7.9491 l 1.4800,-2.5846 l 1.4800,1.8131 l 1.4800,-2.0068 l 1.4800,2.3288 l 1.4800,3.9928 l 1.4800,7.3100 l 1.4800,5.2748 l 1.4800,-3.2979 l 1.4800,0.0850 l 1.4800,-2.9157 l 1.4800,-9.8614 l 1.4800,-1.7607 l 1.4800,1.5466 l 1.4800,-0.7700 l 1.4800,1.8290 l 1.4800,0.1024 l 1.4800,-1.9459 l 1.4800,9.8282 "/></g><g stroke-linejoin="miter" stroke-opacity="0.5" fill-opacity="0.0" stroke="rgb(250,165,218)" stroke-width="1.9999999999999987" fill="rgb(0,0,0)" stroke-linecap="butt" stroke-miterlimit="10.0"><path d="M 31.5018,61.3692 l 1.4800,-2.7750 l 1.4800,7.4090 l 1.4800,0.2320 l 1.4800,4.6011 l 1.4800,1.9737 l 1.4800,-5.6045 l 1.4800,-3.5111 l 1.4800,-7.8002 l 1.4800,0.2135 l 1.4800,7.2229 l 1.4800,9.9388 l 1.4800,-8.0734 l 1.4800,-4.3141 l 1.4800,-2.0380 l 1.4800,-2.0566 l 1.4800,-8.2214 l 1.4800,6.3262 l 1.4800,-6.9489 l 1.4800,8.0665 l 1.4800,2.4477 l 1.4800,3.6168 l 1.4800,3.6859 l 1.4800,9.6048 l 1.4800,-1.4937 l 1.4800,-8.9741 l 1.4800,1.8805 l 1.4800,0.5190 l 1.4800,9.6521 l 1.4800,4.1484 l 1.4800,7.9519 l 1.4800,5.0532 l 1.4800,-1.0062 l 1.4800,12.4665 l 1.4800,-5.1511 l 1.4800,-6.4896 l 1.4800,-2.5970 l 1.4800,0.8423 l 1.4800,-15.1612 l 1.4800,1.1659 l 1.4800,8.5976 l 1.4800,2.7118 l 1.4800,-5.2627 l 1.4800,6.6782 l 1.4800,7.1196 l 1.4800,-1.4281 l 1.4800,-5.0714 l 1.4800,5.3623 l 1.4800,6.3211 l 1.4800,-6.0170 l 1.4800,3.1998 l 1.4800,-1.3278 l 1.4800,-2.8021 l 1.4800,7.7009 l 1.4800,-0.4739 l 1.4800,10.1171 l 1.4800,-2.2827 l 1.4800,4.6421 l 1.4800,-13.4347 l 1.4800,-3.7854 l 1.4800,-1.0338 l 1.4800,1.5134 l 1.4800,-4.0981 l 1.4800,-1.9494 l 1.4800,-2.7638 l 1.4800,-1.7350 l 1.4800,-1.1522 l 1.4800,-3.4227 l 1.4800,7.5105 l 1.4800,5.2702 l 1.4800,-4.4278 l 1.4800,1.6204 l 1.4800,-0.8629 l 1.4800,8.9762 l 1.4800,-2.8879 l 1.4800,5.4943 l 1.4800,11.4998 l 1.4800,-2.6842 l 1.4800,-6.9852 l 1.4800,-2.0854 l 1.4800,4.0576 l 1.4800,11.5543 l 1.4800,-7.7114 l 1.4800,2.2741 l 1.4800,4.9390 l 1.4800,11.1518 l 1.4800,3.8650 l 1.4800,2.1804 l 1.4800,9.8834 l 1.4800,1.0272 l 1.4800,1.2659 l 1.4800,2.5327 l 1.4800,-1.8058 l 1.4800,7.5342 l 1.4800,4.5873 l 1.4800,1.7888 l 1.4800,4.8410 l 1.4800,-7.2243 l 1.4800,-2.1154 l 1.4800,-4.7062 "/></g><g stroke-linejoin="miter" stroke-opacity="0.5" fill-opacity="0.0" stroke="rgb(93,165,218)" stroke-width="1.9999999999999987" fill="rgb(0,0,0)" stroke-linecap="butt" stroke-miterlimit="10.0"><path d="M 31.5018,50.4708 l 1.4800,9.0811 l 1.4800,-9.3842 l 1.4800,-5.3147 l 1.4800,-0.7192 l 1.4800,4.4678 l 1.4800,4.0329 l 1.4800,5.7156 l 1.4800,1.4788 l 1.4800,6.0104 l 1.4800,-1.5697 l 1.4800,4.0878 l 1.4800,-0.0774 l 1.4800,1.4543 l 1.4800,-4.4400 l 1.4800,6.1734 l 1.4800,8.2593 l 1.4800,4.3329 l 1.4800,-6.9231 l 1.4800,7.9935 l 1.4800,2.3642 l 1.4800,-3.7484 l 1.4800,-1.2059 l 1.4800,3.4922 l 1.4800,0.4947 l 1.4800,8.6060 l 1.4800,1.1422 l 1.4800,3.8728 l 1.4800,2.4839 l 1.4800,4.9304 l 1.4800,-6.9503 l 1.4800,6.0634 l 1.4800,4.9774 l 1.4800,1.0115 l 1.4800,-1.3704 l 1.4800,-1.1165 l 1.4800,-1.2788 l 1.4800,-8.6039 l 1.4800,-3.6695 l 1.4800,3.2010 l 1.4800,2.7186 l 1.4800,8.2089 l 1.4800,-0.3792 l 1.4800,-8.0385 l 1.4800,6.7373 l 1.4800,-2.0727 l 1.4800,5.7797 l 1.4800,6.0140 l 1.4800,-2.1939 l 1.4800,8.8151 l 1.4800,-4.7909 l 1.4800,-1.1555 l 1.4800,2.2907 l 1.4800,5.9257 l 1.4800,5.8202 l 1.4800,10.9700 l 1.4800,4.8871 l 1.4800,-0.1829 l 1.4800,0.2362 l 1.4800,-0.0886 l 1.4800,2.1185 l 1.4800,7.6463 l 1.4800,-4.5433 l 1.4800,-5.8135 l 1.4800,-3.5072 l 1.4800,-3.0356 l 1.4800,-0.0071 l 1.4800,3.6176 l 1.4800,-1.7572 l 1.4800,14.2420 l 1.4800,-1.5379 l 1.4800,-1.5486 l 1.4800,3.7765 l 1.4800,-5.7517 l 1.4800,-2.5860 l 1.4800,9.4936 l 1.4800,-7.7939 l 1.4800,3.1666 l 1.4800,-6.1134 l 1.4800,6.5088 l 1.4800,-0.5958 l 1.4800,-11.4886 l 1.4800,4.6769 l 1.4800,1.8277 l 1.4800,6.7075 l 1.4800,-9.4172 l 1.4800,-2.7312 l 1.4800,-2.3818 l 1.4800,4.3814 l 1.4800,11.9968 l 1.4800,-0.0699 l 1.4800,-6.4608 l 1.4800,5.9030 l 1.4800,-6.3988 l 1.4800,2.8375 l 1.4800,2.5352 l 1.4800,2.6606 l 1.4800,3.3419 l 1.4800,0.2397 l 1.4800,-9.9042 "/></g><g stroke-linejoin="miter" stroke-opacity="0.5" fill-opacity="0.0" stroke="rgb(85,85,85)" stroke-width="1.9999999999999987" fill="rgb(0,0,0)" stroke-linecap="butt" stroke-miterlimit="10.0"><path d="M 31.5018,65.7577 l 1.4800,4.4553 l 1.4800,-5.3367 l 1.4800,3.5279 l 1.4800,6.3380 l 1.4800,-1.7838 l 1.4800,-2.0269 l 1.4800,-2.0042 l 1.4800,1.9695 l 1.4800,5.9453 l 1.4800,4.4674 l 1.4800,0.9264 l 1.4800,9.9136 l 1.4800,-1.0764 l 1.4800,1.7088 l 1.4800,1.9102 l 1.4800,-2.2050 l 1.4800,-7.3448 l 1.4800,-6.1983 l 1.4800,-2.0832 l 1.4800,0.2364 l 1.4800,2.1342 l 1.4800,-3.5337 l 1.4800,-4.2048 l 1.4800,-3.4406 l 1.4800,3.2120 l 1.4800,-1.2442 l 1.4800,11.3605 l 1.4800,-7.9294 l 1.4800,-3.2468 l 1.4800,5.9213 l 1.4800,-1.5821 l 1.4800,-0.6765 l 1.4800,0.3326 l 1.4800,5.2506 l 1.4800,-3.1939 l 1.4800,-10.0803 l 1.4800,1.3684 l 1.4800,-7.6245 l 1.4800,-11.6441 l 1.4800,2.6961 l 1.4800,-9.2685 l 1.4800,5.7070 l 1.4800,-7.2542 l 1.4800,0.1694 l 1.4800,2.0738 l 1.4800,1.7844 l 1.4800,-7.6432 l 1.4800,1.6365 l 1.4800,1.9944 l 1.4800,-3.3727 l 1.4800,-0.7147 l 1.4800,-7.3607 l 1.4800,-1.0979 l 1.4800,6.5108 l 1.4800,12.8326 l 1.4800,4.6058 l 1.4800,3.1983 l 1.4800,-13.4460 l 1.4800,11.0887 l 1.4800,1.5575 l 1.4800,2.6175 l 1.4800,-2.1966 l 1.4800,3.8140 l 1.4800,-8.1907 l 1.4800,3.3652 l 1.4800,-3.8599 l 1.4800,0.9581 l 1.4800,5.7549 l 1.4800,4.2327 l 1.4800,-0.4895 l 1.4800,8.5254 l 1.4800,9.5784 l 1.4800,3.6976 l 1.4800,-9.2653 l 1.4800,-7.8188 l 1.4800,7.5994 l 1.4800,0.4960 l 1.4800,0.4142 l 1.4800,-0.6455 l 1.4800,10.4884 l 1.4800,1.1096 l 1.4800,-7.1680 l 1.4800,2.8131 l 1.4800,-0.9222 l 1.4800,-4.7653 l 1.4800,-4.8721 l 1.4800,-9.5012 l 1.4800,1.8701 l 1.4800,-0.1700 l 1.4800,-5.9781 l 1.4800,-4.6044 l 1.4800,-4.1847 l 1.4800,-2.4479 l 1.4800,3.6962 l 1.4800,-11.0835 l 1.4800,-14.7154 l 1.4800,4.5933 l 1.4800,0.9976 l 1.4800,-5.7381 "/></g></svg>