<?xml version="1.0" encoding="UTF-8"?>
<!DOCTYPE svg PUBLIC "-//W3C//DTD SVG 1.1//EN"
    "http://www.w3.org/Graphics/SVG/1.1/DTD/svg11.dtd"><svg xmlns="http://www.w3.org/2000/svg" height="200.0000" stroke-opacity="1" viewBox="0 0 200 200" font-size="1" width="200.0000" xmlns:xlink="http://www.w3.org/1999/xlink" stroke="rgb(0,0,0)" version="1.1"><defs></defs><g stroke-linejoin="miter" stroke-opacity="0.0" fill-opacity="0.5" stroke="rgb(0,0,0)" stroke-width="0.0" fill="rgb(102,26,102)" stroke-linecap="butt" stroke-miterlimit="10.0"><path d="M 31.5018,168.4982 l -0.0000,-146.5201 h -2.9304 l -0.0000,146.5201 Z"/></g><g stroke-linejoin="miter" stroke-opacity="1.0" fill-opacity="0.7" font-size="5.860805860805852px" stroke="rgb(0,0,0)" stroke-width="0.7999999999999995" fill="rgb(51,51,51)" stroke-linecap="butt" stroke-miterlimit="10.0"><text dominant-baseline="middle" transform="matrix(1.0000,0.0000,0.0000,1.0000,24.1758,23.9578)" stroke="none" text-anchor="end">15</text></g><g stroke-linejoin="miter" stroke-opacity="0.5" fill-opacity="0.0" stroke="rgb(26,102,204)" stroke-width="0.7999999999999995" fill="rgb(0,0,0)" stroke-linecap="butt" stroke-miterlimit="10.0"><path d="M 27.1062,23.9578 h 2.9304 "/></g><g stroke-linejoin="miter" stroke-opacity="1.0" fill-opacity="0.7" font-size="5.860805860805852px" stroke="rgb(0,0,0)" stroke-width="0.7999999999999995" fill="rgb(51,51,51)" stroke-linecap="butt" stroke-miterlimit="10.0"><text dominant-baseline="middle" transform="matrix(1.0000,0.0000,0.0000,1.0000,24.1758,46.9936)" stroke="none" text-anchor="end">10</text></g><g stroke-linejoin="miter" stroke-opacity="0.5" fill-opacity="0.0" stroke="rgb(26,102,204)" stroke-width="0.7999999999999995" fill="rgb(0,0,0)" stroke-linecap="butt" stroke-miterlimit="10.0"><path d="M 27.1062,46.9936 h 2.9304 "/></g><g stroke-linejoin="miter" stroke-opacity="1.0" fill-opacity="0.7" font-size="5.860805860805852px" stroke="rgb(0,0,0)" stroke-width="0.7999999999999995" fill="rgb(51,51,51)" stroke-linecap="butt" stroke-miterlimit="10.0"><text dominant-baseline="middle" transform="matrix(1.0000,0.0000,0.0000,1.0000,24.1758,70.0295)" stroke="none" text-anchor="end">5.0</text></g><g stroke-linejoin="miter" stroke-opacity="0.5" fill-opacity="0.0" stroke="rgb(26,102,204)" stroke-width="0.7999999999999995" fill="rgb(0,0,0)" stroke-linecap="butt" stroke-miterlimit="10.0"><path d="M 27.1062,70.0295 h 2.9304 "/></g><g stroke-linejoin="miter" stroke-opacity="1.0" fill-opacity="0.7" font-size="5.860805860805852px" stroke="rgb(0,0,0)" stroke-width="0.7999999999999995" fill="rgb(51,51,51)" stroke-linecap="butt" stroke-miterlimit="10.0"><text dominant-baseline="middle" transform="matrix(1.0000,0.0000,0.0000,1.0000,24.1758,93.0653)" stroke="none" text-anchor="end">0.0</text></g><g stroke-linejoin="miter" stroke-opacity="0.5" fill-opacity="0.0" stroke="rgb(26,102,204)" stroke-width="0.7999999999999995" fill="rgb(0,0,0)" stroke-linecap="butt" stroke-miterlimit="10.0"><path d="M 27.1062,93.0653 h 2.9304 "/></g><g stroke-linejoin="miter" stroke-opacity="1.0" fill-opacity="0.7" font-size="5.860805860805852px" stroke="rgb(0,0,0)" stroke-width="0.7999999999999995" fill="rgb(51,51,51)" stroke-linecap="butt" stroke-miterlimit="10.0"><text dominant-baseline="middle" transform="matrix(1.0000,0.0000,0.0000,1.0000,24.1758,116.1011)" stroke="none" text-anchor="end">-5.0</text></g><g stroke-linejoin="miter" stroke-opacity="0.5" fill-opacity="0.0" stroke="rgb(26,102,204)" stroke-width="0.7999999999999995" fill="rgb(0,0,0)" stroke-linecap="butt" stroke-miterlimit="10.0"><path d="M 27.1062,116.1011 h 2.9304 "/></g><g stroke-linejoin="miter" stroke-opacity="1.0" fill-opacity="0.7" font-size="5.860805860805852px" stroke="rgb(0,0,0)" stroke-width="0.7999999999999995" fill="rgb(51,51,51)" stroke-linecap="butt" stroke-miterlimit="10.0"><text dominant-baseline="middle" transform="matrix(1.0000,0.0000,0.0000,1.0000,24.1758,139.1369)" stroke="none" text-anchor="end">-10</text></g><g stroke-linejoin="miter" stroke-opacity="0.5" fill-opacity="0.0" stroke="rgb(26,102,204)" stroke-width="0.7999999999999995" fill="rgb(0,0,0)" stroke-linecap="butt" stroke-miterlimit="10.0"><path d="M 27.1062,139.1369 h 2.9304 "/></g><g stroke-linejoin="miter" stroke-opacity="1.0" fill-opacity="0.7" font-size="5.860805860805852px" stroke="rgb(0,0,0)" stroke-width="0.7999999999999995" fill="rgb(51,51,51)" stroke-linecap="butt" stroke-miterlimit="10.0"><text dominant-baseline="middle" transform="matrix(1.0000,0.0000,0.0000,1.0000,24.1758,162.1727)" stroke="none" text-anchor="end">-15</text></g><g stroke-linejoin="miter" stroke-opacity="0.5" fill-opacity="0.0" stroke="rgb(26,102,204)" stroke-width="0.7999999999999995" fill="rgb(0,0,0)" stroke-linecap="butt" stroke-miterlimit="10.0"><path d="M 27.1062,162.1727 h 2.9304 "/></g><g stroke-linejoin="miter" stroke-opacity="0.0" fill-opacity="0.5" stroke="rgb(0,0,0)" stroke-width="0.0" fill="rgb(102,26,102)" stroke-linecap="butt" stroke-miterlimit="10.0"><path d="M 178.0220,171.4286 l -0.0000,-2.9304 h -146.5201 l -0.0000,2.9304 Z"/></g><g stroke-linejoin="miter" stroke-opacity="1.0" fill-opacity="0.7" font-size="5.860805860805852px" stroke="rgb(0,0,0)" stroke-width="0.7999999999999995" fill="rgb(51,51,51)" stroke-linecap="butt" stroke-miterlimit="10.0"><text dominant-baseline="text-before-edge" transform="matrix(1.0000,0.0000,0.0000,1.0000,164.7020,175.8242)" stroke="none" text-anchor="middle">90</text></g><g stroke-linejoin="miter" stroke-opacity="0.5" fill-opacity="0.0" stroke="rgb(26,102,204)" stroke-width="0.7999999999999995" fill="rgb(0,0,0)" stroke-linecap="butt" stroke-miterlimit="10.0"><path d="M 164.7020,169.9634 v 2.9304 "/></g><g stroke-linejoin="miter" stroke-opacity="1.0" fill-opacity="0.7" font-size="5.860805860805852px" stroke="rgb(0,0,0)" stroke-width="0.7999999999999995" fill="rgb(51,51,51)" stroke-linecap="butt" stroke-miterlimit="10.0"><text dominant-baseline="text-before-edge" transform="matrix(1.0000,0.0000,0.0000,1.0000,149.9019,175.8242)" stroke="none" text-anchor="middle">80</text></g><g stroke-linejoin="miter" stroke-opacity="0.5" fill-opacity="0.0" stroke="rgb(26,102,204)" stroke-width="0.7999999999999995" fill="rgb(0,0,0)" stroke-linecap="butt" stroke-miterlimit="10.0"><path d="M 149.9019,169.9634 v 2.9304 "/></g><g stroke-linejoin="miter" stroke-opacity="1.0" fill-opacity="0.7" font-size="5.860805860805852px" stroke="rgb(0,0,0)" stroke-width="0.7999999999999995" fill="rgb(51,51,51)" stroke-linecap="butt" stroke-miterlimit="10.0"><text dominant-baseline="text-before-edge" transform="matrix(1.0000,0.0000,0.0000,1.0000,135.1019,175.8242)" stroke="none" text-anchor="middle">70</text></g><g stroke-linejoin="miter" stroke-opacity="0.5" fill-opacity="0.0" stroke="rgb(26,102,204)" stroke-width="0.7999999999999995" fill="rgb(0,0,0)" stroke-linecap="butt" stroke-miterlimit="10.0"><path d="M 135.1019,169.9634 v 2.9304 "/></g><g stroke-linejoin="miter" stroke-opacity="1.0" fill-opacity="0.7" font-size="5.860805860805852px" stroke="rgb(0,0,0)" stroke-width="0.7999999999999995" fill="rgb(51,51,51)" stroke-linecap="butt" stroke-miterlimit="10.0"><text dominant-baseline="text-before-edge" transform="matrix(1.0000,0.0000,0.0000,1.0000,120.3019,175.8242)" stroke="none" text-anchor="middle">60</text></g><g stroke-linejoin="miter" stroke-opacity="0.5" fill-opacity="0.0" stroke="rgb(26,102,204)" stroke-width="0.7999999999999995" fill="rgb(0,0,0)" stroke-linecap="butt" stroke-miterlimit="10.0"><path d="M 120.3019,169.9634 v 2.9304 "/></g><g stroke-linejoin="miter" stroke-opacity="1.0" fill-opacity="0.7" font-size="5.860805860805852px" stroke="rgb(0,0,0)" stroke-width="0.7999999999999995" fill="rgb(51,51,51)" stroke-linecap="butt" stroke-miterlimit="10.0"><text dominant-baseline="text-before-edge" transform="matrix(1.0000,0.0000,0.0000,1.0000,105.5019,175.8242)" stroke="none" text-anchor="middle">50</text></g><g stroke-linejoin="miter" stroke-opacity="0.5" fill-opacity="0.0" stroke="rgb(26,102,204)" stroke-width="0.7999999999999995" fill="rgb(0,0,0)" stroke-linecap="butt" stroke-miterlimit="10.0"><path d="M 105.5019,169.9634 v 2.9304 "/></g><g stroke-linejoin="miter" stroke-opacity="1.0" fill-opacity="0.7" font-size="5.860805860805852px" stroke="rgb(0,0,0)" stroke-width="0.7999999999999995" fill="rgb(51,51,51)" stroke-linecap="butt" stroke-miterlimit="10.0"><text dominant-baseline="text-before-edge" transform="matrix(1.0000,0.0000,0.0000,1.0000,90.7019,175.8242)" stroke="none" text-anchor="middle">40</text></g><g stroke-linejoin="miter" stroke-opacity="0.5" fill-opacity="0.0" stroke="rgb(26,102,204)" stroke-width="0.7999999999999995" fill="rgb(0,0,0)" stroke-linecap="butt" stroke-miterlimit="10.0"><path d="M 90.7019,169.9634 v 2.9304 "/></g><g stroke-linejoin="miter" stroke-opacity="1.0" fill-opacity="0.7" font-size="5.860805860805852px" stroke="rgb(0,0,0)" stroke-width="0.7999999999999995" fill="rgb(51,51,51)" stroke-linecap="butt" stroke-miterlimit="10.0"><text dominant-baseline="text-before-edge" transform="matrix(1.0000,0.0000,0.0000,1.0000,75.9019,175.8242)" stroke="none" text-anchor="middle">30</text></g><g stroke-linejoin="miter" stroke-opacity="0.5" fill-opacity="0.0" stroke="rgb(26,102,204)" stroke-width="0.7999999999999995" fill="rgb(0,0,0)" stroke-linecap="butt" stroke-miterlimit="10.0"><path d="M 75.9019,169.9634 v 2.9304 "/></g><g stroke-linejoin="miter" stroke-opacity="1.0" fill-opacity="0.7" font-size="5.860805860805852px" stroke="rgb(0,0,0)" stroke-width="0.7999999999999995" fill="rgb(51,51,51)" stroke-linecap="butt" stroke-miterlimit="10.0"><text dominant-baseline="text-before-edge" transform="matrix(1.0000,0.0000,0.0000,1.0000,61.1019,175.8242)" stroke="none" text-anchor="middle">20</text></g><g stroke-linejoin="miter" stroke-opacity="0.5" fill-opacity="0.0" stroke="rgb(26,102,204)" stroke-width="0.7999999999999995" fill="rgb(0,0,0)" stroke-linecap="butt" stroke-miterlimit="10.0"><path d="M 61.1019,169.9634 v 2.9304 "/></g><g stroke-linejoin="miter" stroke-opacity="1.0" fill-opacity="0.7" font-size="5.860805860805852px" stroke="rgb(0,0,0)" stroke-width="0.7999999999999995" fill="rgb(51,51,51)" stroke-linecap="butt" stroke-miterlimit="10.0"><text dominant-baseline="text-before-edge" transform="matrix(1.0000,0.0000,0.0000,1.0000,46.3018,175.8242)" stroke="none" text-anchor="middle">10</text></g><g stroke-linejoin="miter" stroke-opacity="0.5" fill-opacity="0.0" stroke="rgb(26,102,204)" stroke-width="0.7999999999999995" fill="rgb(0,0,0)" stroke-linecap="butt" stroke-miterlimit="10.0"><path d="M 46.3018,169.9634 v 2.9304 "/></g><g stroke-linejoin="miter" stroke-opacity="1.0" fill-opacity="0.7" font-size="5.860805860805852px" stroke="rgb(0,0,0)" stroke-width="0.7999999999999995" fill="rgb(51,51,51)" stroke-linecap="butt" stroke-miterlimit="10.0"><text dominant-baseline="text-before-edge" transform="matrix(1.0000,0.0000,0.0000,1.0000,31.5018,175.8242)" stroke="none" text-anchor="middle">0.0</text></g><g stroke-linejoin="miter" stroke-opacity="0.5" fill-opacity="0.0" stroke="rgb(26,102,204)" stroke-width="0.7999999999999995" fill="rgb(0,0,0)" stroke-linecap="butt" stroke-miterlimit="10.0"><path d="M 31.5018,169.9634 v 2.9304 "/></g><g stroke-linejoin="miter" stroke-opacity="0.5" fill-opacity="0.0" stroke="rgb(241,124,176)" stroke-width="1.9999999999999987" fill="rgb(0,0,0)" stroke-linecap="butt" stroke-miterlimit="10.0"><path d="M 31.5018,91.0576 l 1.4800,4.2584 l 1.4800,-2.2012 l 1.4800,-9.1958 l 1.4800,-2.4595 l 1.4800,-1.8718 l 1.4800,-4.1335 l 1.4800,-3.3605 l 1.4800,-2.4022 l 1.4800,-3.6556 l 1.4800,-2.4959 l 1.4800,1.8635 l 1.4800,-1.5871 l 1.4800,1.2325 l 1.4800,-1.8110 l 1.4800,-4.9884 l 1.4800,0.4555 l 1.4800,-3.9443 l 1.4800,6.3967 l 1.4800,0.7121 l 1.4800,-3.6680 l 1.4800,-4.3661 l 1.4800,-6.4263 l 1.4800,4.3330 l 1.4800,0.4635 l 1.4800,0.1005 l 1.4800,0.9387 l 1.4800,3.1365 l 1.4800,-4.0324 l 1.4800,-6.7730 l 1.4800,12.8621 l 1.4800,-7.1263 l 1.4800,5.8069 l 1.4800,-0.1500 l 1.4800,-4.6508 l 1.4800,-8.9467 l 1.4800,7.5854 l 1.4800,-4.6904 l 1.4800,-4.7169 l 1.4800,3.8753 l 1.4800,-2.7984 l 1.4800,-5.2282 l 1.4800,6.8556 l 1.4800,6.0343 l 1.4800,-3.2121 l 1.4800,-1.6710 l 1.4800,-3.8000 l 1.4800,2.5494 l 1.4800,7.7127 l 1.4800,-0.9390 l 1.4800,1.5361 l 1.4800,-5.6717 l 1.4800,-0.4669 l 1.4800,-2.5741 l 1.4800,-9.9024 l 1.4800,-1.5658 l 1.4800,5.8088 l 1.4800,9.5030 l 1.4800,3.6739 l 1.4800,1.4186 l 1.4800,4.3610 l 1.4800,0.2554 l 1.4800,-0.5907 l 1.4800,1.9426 l 1.4800,-5.7373 l 1.4800,3.4071 l 1.4800,-7.9617 l 1.4800,0.2872 l 1.4800,0.5555 l 1.4800,1.4535 l 1.4800,-4.9101 l 1.4800,4.1023 l 1.4800,4.7673 l 1.4800,4.9629 l 1.4800,4.1744 l 1.4800,0.6724 l 1.4800,-0.3004 l 1.4800,-0.2623 l 1.4800,-6.7870 l 1.4800,-2.7039 l 1.4800,-5.3025 l 1.4800,1.9881 l 1.4800,-2.1726 l 1.4800,1.2643 l 1.4800,-5.8477 l 1.4800,-6.8804 l 1.4800,0.9601 l 1.4800,-5.8002 l 1.4800,-8.2949 l 1.4800,5.2094 l 1.4800,2.3080 l 1.4800,-2.1636 l 1.4800,-5.2851 l 1.4800,-2.3344 l 1.4800,4.4456 l 1.4800,0.5127 l 1.4800,-4.2949 l 1.4800,0.9911 l 1.4800,1.4432 l 1.4800,-3.1444 "/></g><g stroke-linejoin="miter" stroke-opacity="0.5" fill-opacity="0.0" stroke="rgb(96,189,104)" stroke-width="1.9999999999999987" fill="rgb(0,0,0)" stroke-linecap="butt" stroke-miterlimit="10.0"><path d="M 31.5018,93.0990 l 1.4800,5.1046 l 1.4800,-7.7607 l 1.4800,2.5332 l 1.4800,5.1703 l 1.4800,-7.9934 l 1.4800,-5.5140 l 1.4800,-1.1591 l 1.4800,-0.4196 l 1.4800,-1.7399 l 1.4800,2.5709 l 1.4800,-0.4328 l 1.4800,-1.3910 l 1.4800,-1.5614 l 1.4800,-3.0388 l 1.4800,-4.5768 l 1.4800,3.4947 l 1.4800,-0.3716 l 1.4800,0.9462 l 1.4800,5.0849 l 1.4800,8.4226 l 1.4800,3.7357 l 1.4800,0.8144 l 1.4800,-1.0405 l 1.4800,6.1194 l 1.4800,-2.0002 l 1.4800,-4.2754 l 1.4800,5.2105 l 1.4800,3.3409 l 1.4800,-5.2665 l 1.4800,2.8001 l 1.4800,2.3675 l 1.4800,0.9205 l 1.4800,-3.2487 l 1.4800,2.3587 l 1.4800,6.7235 l 1.4800,-0.2802 l 1.4800,2.0218 l 1.4800,3.8782 l 1.4800,-4.2647 l 1.4800,-1.6713 l 1.4800,1.9660 l 1.4800,-5.7053 l 1.4800,1.4507 l 1.4800,3.4437 l 1.4800,-7.1993 l 1.4800,-3.2709 l 1.4800,-1.5597 l 1.4800,8.1323 l 1.4800,1.1733 l 1.4800,-2.3052 l 1.4800,-2.5898 l 1.4800,-5.2983 l 1.4800,-1.1620 l 1.4800,-7.9618 l 1.4800,6.4153 l 1.4800,3.3418 l 1.4800,-3.2230 l 1.4800,-5.4174 l 1.4800,-0.0606 l 1.4800,3.4331 l 1.4800,-3.1255 l 1.4800,-1.1083 l 1.4800,-1.8957 l 1.4800,3.8993 l 1.4800,-7.3617 l 1.4800,6.8956 l 1.4800,2.2053 l 1.4800,1.4618 l 1.4800,-4.0297 l 1.4800,-2.5282 l 1.4800,-0.7821 l 1.4800,0.6689 l 1.4800,-1.2150 l 1.4800,3.2198 l 1.4800,5.4913 l 1.4800,-2.1820 l 1.4800,0.2338 l 1.4800,-3.5525 l 1.4800,1.4295 l 1.4800,-1.1701 l 1.4800,-4.4232 l 1.4800,8.9142 l 1.4800,1.7843 l 1.4800,6.4273 l 1.4800,-4.4229 l 1.4800,2.6827 l 1.4800,4.3048 l 1.4800,-1.2601 l 1.4800,9.1642 l 1.4800,1.9025 l 1.4800,6.3738 l 1.4800,2.1385 l 1.4800,-0.1923 l 1.4800,8.2314 l 1.4800,-2.6509 l 1.4800,-8.8551 l 1.4800,2.4221 l 1.4800,-1.7085 l 1.4800,6.1561 "/></g><g stroke-linejoin="miter" stroke-opacity="0.5" fill-opacity="0.0" stroke="rgb(250,165,218)" stroke-width="1.9999999999999987" fill="rgb(0,0,0)" stroke-linecap="butt" stroke-miterlimit="10.0"><path d="M 31.5018,93.8906 l 1.4800,-1.8390 l 1.4800,5.7722 l 1.4800,-4.2512 l 1.4800,-7.5904 l 1.4800,-0.9004 l 1.4800,3.6593 l 1.4800,1.9850 l 1.4800,0.2348 l 1.4800,-0.1893 l 1.4800,2.4661 l 1.4800,3.5369 l 1.4800,2.6708 l 1.4800,-6.9838 l 1.4800,-1.5162 l 1.4800,1.6334 l 1.4800,2.0090 l 1.4800,-4.7198 l 1.4800,4.5782 l 1.4800,-2.4518 l 1.4800,4.1948 l 1.4800,-9.3963 l 1.4800,3.3598 l 1.4800,-0.2066 l 1.4800,-6.2314 l 1.4800,-9.2295 l 1.4800,2.5162 l 1.4800,-2.1239 l 1.4800,6.0348 l 1.4800,3.9863 l 1.4800,-1.5883 l 1.4800,2.8423 l 1.4800,-11.4751 l 1.4800,-0.9924 l 1.4800,-5.9664 l 1.4800,6.7795 l 1.4800,-4.6171 l 1.4800,-0.2923 l 1.4800,-4.7764 l 1.4800,1.2334 l 1.4800,2.5655 l 1.4800,4.8390 l 1.4800,-4.5037 l 1.4800,-3.2762 l 1.4800,-7.0324 l 1.4800,-1.2014 l 1.4800,-13.7202 l 1.4800,-6.0251 l 1.4800,-0.7270 l 1.4800,-3.2963 l 1.4800,11.5059 l 1.4800,6.5839 l 1.4800,10.6288 l 1.4800,-0.5191 l 1.4800,-2.5581 l 1.4800,5.6923 l 1.4800,-6.7771 l 1.4800,-6.2915 l 1.4800,5.9312 l 1.4800,-3.1613 l 1.4800,12.4670 l 1.4800,-5.5756 l 1.4800,1.9234 l 1.4800,-0.1390 l 1.4800,-0.2195 l 1.4800,-3.2085 l 1.4800,4.7111 l 1.4800,4.3217 l 1.4800,-3.3473 l 1.4800,-0.6018 l 1.4800,-3.4060 l 1.4800,-6.6341 l 1.4800,4.1340 l 1.4800,-8.6807 l 1.4800,4.9672 l 1.4800,6.8192 l 1.4800,2.8513 l 1.4800,3.7005 l 1.4800,-5.1735 l 1.4800,2.3003 l 1.4800,-3.8265 l 1.4800,4.2793 l 1.4800,-2.2412 l 1.4800,-1.5444 l 1.4800,-6.0124 l 1.4800,-3.6543 l 1.4800,-3.7320 l 1.4800,8.3316 l 1.4800,-0.1505 l 1.4800,-3.6236 l 1.4800,-5.5026 l 1.4800,-1.3506 l 1.4800,-10.3330 l 1.4800,-0.6478 l 1.4800,1.3744 l 1.4800,3.0327 l 1.4800,0.1753 l 1.4800,0.5803 l 1.4800,-0.6918 l 1.4800,-4.7445 "/></g><g stroke-linejoin="miter" stroke-opacity="0.5" fill-opacity="0.0" stroke="rgb(93,165,218)" stroke-width="1.9999999999999987" fill="rgb(0,0,0)" stroke-linecap="butt" stroke-miterlimit="10.0"><path d="M 31.5018,83.8459 l 1.4800,0.2473 l 1.4800,0.6435 l 1.4800,-0.3367 l 1.4800,-2.3271 l 1.4800,4.4266 l 1.4800,-2.4446 l 1.4800,-0.7881 l 1.4800,-3.1099 l 1.4800,-12.6981 l 1.4800,1.4717 l 1.4800,-3.7601 l 1.4800,-6.8844 l 1.4800,2.8776 l 1.4800,-1.6538 l 1.4800,-4.7277 l 1.4800,-1.5408 l 1.4800,8.8440 l 1.4800,-2.9745 l 1.4800,-5.0300 l 1.4800,5.6574 l 1.4800,1.2136 l 1.4800,-7.9085 l 1.4800,-2.3793 l 1.4800,2.0990 l 1.4800,-3.8241 l 1.4800,2.0703 l 1.4800,-7.9667 l 1.4800,4.3110 l 1.4800,1.9756 l 1.4800,-3.4336 l 1.4800,-4.1797 l 1.4800,8.5959 l 1.4800,2.9666 l 1.4800,4.8350 l 1.4800,-2.0903 l 1.4800,-8.0261 l 1.4800,0.7107 l 1.4800,2.1406 l 1.4800,8.3728 l 1.4800,1.7578 l 1.4800,4.4046 l 1.4800,-4.1114 l 1.4800,-1.8656 l 1.4800,-0.5605 l 1.4800,5.0189 l 1.4800,4.7098 l 1.4800,11.6033 l 1.4800,-1.3558 l 1.4800,3.8586 l 1.4800,-1.3902 l 1.4800,-2.1087 l 1.4800,3.9795 l 1.4800,3.2633 l 1.4800,0.1350 l 1.4800,1.2525 l 1.4800,4.6180 l 1.4800,5.4042 l 1.4800,-10.6343 l 1.4800,1.3468 l 1.4800,-2.8552 l 1.4800,-6.8194 l 1.4800,5.2007 l 1.4800,4.4826 l 1.4800,0.8317 l 1.4800,5.6407 l 1.4800,-1.3929 l 1.4800,-2.9991 l 1.4800,-3.7743 l 1.4800,3.2145 l 1.4800,3.4333 l 1.4800,3.8221 l 1.4800,2.8137 l 1.4800,3.2400 l 1.4800,-8.4391 l 1.4800,-3.5321 l 1.4800,2.7236 l 1.4800,-2.3095 l 1.4800,6.5190 l 1.4800,8.9009 l 1.4800,1.8158 l 1.4800,4.1790 l 1.4800,-5.3990 l 1.4800,6.7872 l 1.4800,-7.1430 l 1.4800,-2.5395 l 1.4800,0.8784 l 1.4800,5.2572 l 1.4800,-4.0517 l 1.4800,-7.6208 l 1.4800,-2.5846 l 1.4800,5.0297 l 1.4800,-6.4258 l 1.4800,5.3211 l 1.4800,-2.0261 l 1.4800,6.2019 l 1.4800,-4.0204 l 1.4800,5.0965 l 1.4800,-1.6103 l 1.4800,14.0481 "/></g><g stroke-linejoin="miter" stroke-opacity="0.5" fill-opacity="0.0" stroke="rgb(85,85,85)" stroke-width="1.9999999999999987" fill="rgb(0,0,0)" stroke-linecap="butt" stroke-miterlimit="10.0"><path d="M 31.5018,97.1493 l 1.4800,3.2331 l 1.4800,11.8543 l 1.4800,-5.0568 l 1.4800,2.8231 l 1.4800,4.4901 l 1.4800,0.6161 l 1.4800,0.6047 l 1.4800,-5.8802 l 1.4800,-5.9713 l 1.4800,0.7752 l 1.4800,-0.4363 l 1.4800,-1.4954 l 1.4800,-6.0955 l 1.4800,3.4306 l 1.4800,2.3379 l 1.4800,1.5356 l 1.4800,2.3098 l 1.4800,1.9035 l 1.4800,-6.4375 l 1.4800,6.3985 l 1.4800,0.6184 l 1.4800,1.3146 l 1.4800,-6.3494 l 1.4800,1.2551 l 1.4800,-1.7101 l 1.4800,4.8351 l 1.4800,-7.9055 l 1.4800,-1.9548 l 1.4800,7.0461 l 1.4800,-1.0441 l 1.4800,0.9781 l 1.4800,3.7651 l 1.4800,1.5829 l 1.4800,-0.0225 l 1.4800,-2.7662 l 1.4800,-3.4976 l 1.4800,0.7176 l 1.4800,3.4312 l 1.4800,0.1699 l 1.4800,-5.4377 l 1.4800,-1.3755 l 1.4800,4.1345 l 1.4800,6.2232 l 1.4800,0.1160 l 1.4800,7.8861 l 1.4800,-1.0290 l 1.4800,4.5769 l 1.4800,0.1682 l 1.4800,4.0183 l 1.4800,-6.8931 l 1.4800,3.2799 l 1.4800,6.2074 l 1.4800,5.9217 l 1.4800,-5.8960 l 1.4800,-3.0594 l 1.4800,-0.8228 l 1.4800,0.6970 l 1.4800,3.1270 l 1.4800,-3.7468 l 1.4800,1.5976 l 1.4800,6.7150 l 1.4800,0.3311 l 1.4800,4.4923 l 1.4800,0.6423 l 1.4800,2.2021 l 1.4800,2.6301 l 1.4800,4.7831 l 1.4800,6.5860 l 1.4800,5.3814 l 1.4800,4.7084 l 1.4800,-3.1396 l 1.4800,2.9753 l 1.4800,1.9441 l 1.4800,-5.6528 l 1.4800,-0.3517 l 1.4800,3.7265 l 1.4800,-2.7738 l 1.4800,1.6650 l 1.4800,-0.6522 l 1.4800,1.3351 l 1.4800,-4.1158 l 1.4800,-0.2821 l 1.4800,-6.4476 l 1.4800,-8.4252 l 1.4800,-7.2111 l 1.4800,-0.8918 l 1.4800,-0.4356 l 1.4800,0.8773 l 1.4800,3.4738 l 1.4800,-1.2237 l 1.4800,-1.5013 l 1.4800,-0.5317 l 1.4800,7.2218 l 1.4800,3.3646 l 1.4800,-1.9517 l 1.4800,3.1782 l 1.4800,6.9098 l 1.4800,0.1794 l 1.4800,7.7273 "/></g></svg>