<?xml version="1.0" encoding="UTF-8"?>
<!DOCTYPE svg PUBLIC "-//W3C//DTD SVG 1.1//EN"
    "http://www.w3.org/Graphics/SVG/1.1/DTD/svg11.dtd"><svg xmlns="http://www.w3.org/2000/svg" height="200.0000" stroke-opacity="1" viewBox="0 0 200 200" font-size="1" width="200.0000" xmlns:xlink="http://www.w3.org/1999/xlink" stroke="rgb(0,0,0)" version="1.1"><defs></defs><g stroke-linejoin="miter" stroke-opacity="0.0" fill-opacity="0.5" stroke="rgb(0,0,0)" stroke-width="0.0" fill="rgb(102,26,102)" stroke-linecap="butt" stroke-miterlimit="10.0"><path d="M 31.5018,168.4982 l -0.0000,-146.5201 h -2.9304 l -0.0000,146.5201 Z"/></g><g stroke-linejoin="miter" stroke-opacity="1.0" fill-opacity="0.7" font-size="5.860805860805852px" stroke="rgb(0,0,0)" stroke-width="0.7999999999999995" fill="rgb(51,51,51)" stroke-linecap="butt" stroke-miterlimit="10.0"><text dominant-baseline="middle" transform="matrix(1.0000,0.0000,0.0000,1.0000,24.1758,34.8667)" stroke="none" text-anchor="end">8.0</text></g><g stroke-linejoin="miter" stroke-opacity="0.5" fill-opacity="0.0" stroke="rgb(26,102,204)" stroke-width="0.7999999999999995" fill="rgb(0,0,0)" stroke-linecap="butt" stroke-miterlimit="10.0"><path d="M 27.1062,34.8667 h 2.9304 "/></g><g stroke-linejoin="miter" stroke-opacity="1.0" fill-opacity="0.7" font-size="5.860805860805852px" stroke="rgb(0,0,0)" stroke-width="0.7999999999999995" fill="rgb(51,51,51)" stroke-linecap="butt" stroke-miterlimit="10.0"><text dominant-baseline="middle" transform="matrix(1.0000,0.0000,0.0000,1.0000,24.1758,49.5793)" stroke="none" text-anchor="end">6.0</text></g><g stroke-linejoin="miter" stroke-opacity="0.5" fill-opacity="0.0" stroke="rgb(26,102,204)" stroke-width="0.7999999999999995" fill="rgb(0,0,0)" stroke-linecap="butt" stroke-miterlimit="10.0"><path d="M 27.1062,49.5793 h 2.9304 "/></g><g stroke-linejoin="miter" stroke-opacity="1.0" fill-opacity="0.7" font-size="5.860805860805852px" stroke="rgb(0,0,0)" stroke-width="0.7999999999999995" fill="rgb(51,51,51)" stroke-linecap="butt" stroke-miterlimit="10.0"><text dominant-baseline="middle" transform="matrix(1.0000,0.0000,0.0000,1.0000,24.1758,64.2918)" stroke="none" text-anchor="end">4.0</text></g><g stroke-linejoin="miter" stroke-opacity="0.5" fill-opacity="0.0" stroke="rgb(26,102,204)" stroke-width="0.7999999999999995" fill="rgb(0,0,0)" stroke-linecap="butt" stroke-miterlimit="10.0"><path d="M 27.1062,64.2918 h 2.9304 "/></g><g stroke-linejoin="miter" stroke-opacity="1.0" fill-opacity="0.7" font-size="5.860805860805852px" stroke="rgb(0,0,0)" stroke-width="0.7999999999999995" fill="rgb(51,51,51)" stroke-linecap="butt" stroke-miterlimit="10.0"><text dominant-baseline="middle" transform="matrix(1.0000,0.0000,0.0000,1.0000,24.1758,79.0044)" stroke="none" text-anchor="end">2.0</text></g><g stroke-linejoin="miter" stroke-opacity="0.5" fill-opacity="0.0" stroke="rgb(26,102,204)" stroke-width="0.7999999999999995" fill="rgb(0,0,0)" stroke-linecap="butt" stroke-miterlimit="10.0"><path d="M 27.1062,79.0044 h 2.9304 "/></g><g stroke-linejoin="miter" stroke-opacity="1.0" fill-opacity="0.7" font-size="5.860805860805852px" stroke="rgb(0,0,0)" stroke-width="0.7999999999999995" fill="rgb(51,51,51)" stroke-linecap="butt" stroke-miterlimit="10.0"><text dominant-baseline="middle" transform="matrix(1.0000,0.0000,0.0000,1.0000,24.1758,93.7169)" stroke="none" text-anchor="end">0.0</text></g><g stroke-linejoin="miter" stroke-opacity="0.5" fill-opacity="0.0" stroke="rgb(26,102,204)" stroke-width="0.7999999999999995" fill="rgb(0,0,0)" stroke-linecap="butt" stroke-miterlimit="10.0"><path d="M 27.1062,93.7169 h 2.9304 "/></g><g stroke-linejoin="miter" stroke-opacity="1.0" fill-opacity="0.7" font-size="5.860805860805852px" stroke="rgb(0,0,0)" stroke-width="0.7999999999999995" fill="rgb(51,51,51)" stroke-linecap="butt" stroke-miterlimit="10.0"><text dominant-baseline="middle" transform="matrix(1.0000,0.0000,0.0000,1.0000,24.1758,108.4295)" stroke="none" text-anchor="end">-2.0</text></g><g stroke-linejoin="miter" stroke-opacity="0.5" fill-opacity="0.0" stroke="rgb(26,102,204)" stroke-width="0.7999999999999995" fill="rgb(0,0,0)" stroke-linecap="butt" stroke-miterlimit="10.0"><path d="M 27.1062,108.4295 h 2.9304 "/></g><g stroke-linejoin="miter" stroke-opacity="1.0" fill-opacity="0.7" font-size="5.860805860805852px" stroke="rgb(0,0,0)" stroke-width="0.7999999999999995" fill="rgb(51,51,51)" stroke-linecap="butt" stroke-miterlimit="10.0"><text dominant-baseline="middle" transform="matrix(1.0000,0.0000,0.0000,1.0000,24.1758,123.1421)" stroke="none" text-anchor="end">-4.0</text></g><g stroke-linejoin="miter" stroke-opacity="0.5" fill-opacity="0.0" stroke="rgb(26,102,204)" stroke-width="0.7999999999999995" fill="rgb(0,0,0)" stroke-linecap="butt" stroke-miterlimit="10.0"><path d="M 27.1062,123.1421 h 2.9304 "/></g><g stroke-linejoin="miter" stroke-opacity="1.0" fill-opacity="0.7" font-size="5.860805860805852px" stroke="rgb(0,0,0)" stroke-width="0.7999999999999995" fill="rgb(51,51,51)" stroke-linecap="butt" stroke-miterlimit="10.0"><text dominant-baseline="middle" transform="matrix(1.0000,0.0000,0.0000,1.0000,24.1758,137.8546)" stroke="none" text-anchor="end">-6.0</text></g><g stroke-linejoin="miter" stroke-opacity="0.5" fill-opacity="0.0" stroke="rgb(26,102,204)" stroke-width="0.7999999999999995" fill="rgb(0,0,0)" stroke-linecap="butt" stroke-miterlimit="10.0"><path d="M 27.1062,137.8546 h 2.9304 "/></g><g stroke-linejoin="miter" stroke-opacity="1.0" fill-opacity="0.7" font-size="5.860805860805852px" stroke="rgb(0,0,0)" stroke-width="0.7999999999999995" fill="rgb(51,51,51)" stroke-linecap="butt" stroke-miterlimit="10.0"><text dominant-baseline="middle" transform="matrix(1.0000,0.0000,0.0000,1.0000,24.1758,152.5672)" stroke="none" text-anchor="end">-8.0</text></g><g stroke-linejoin="miter" stroke-opacity="0.5" fill-opacity="0.0" stroke="rgb(26,102,204)" stroke-width="0.7999999999999995" fill="rgb(0,0,0)" stroke-linecap="butt" stroke-miterlimit="10.0"><path d="M 27.1062,152.5672 h 2.9304 "/></g><g stroke-linejoin="miter" stroke-opacity="1.0" fill-opacity="0.7" font-size="5.860805860805852px" stroke="rgb(0,0,0)" stroke-width="0.7999999999999995" fill="rgb(51,51,51)" stroke-linecap="butt" stroke-miterlimit="10.0"><text dominant-baseline="middle" transform="matrix(1.0000,0.0000,0.0000,1.0000,24.1758,167.2797)" stroke="none" text-anchor="end">-10</text></g><g stroke-linejoin="miter" stroke-opacity="0.5" fill-opacity="0.0" stroke="rgb(26,102,204)" stroke-width="0.7999999999999995" fill="rgb(0,0,0)" stroke-linecap="butt" stroke-miterlimit="10.0"><path d="M 27.1062,167.2797 h 2.9304 "/></g><g stroke-linejoin="miter" stroke-opacity="0.0" fill-opacity="0.5" stroke="rgb(0,0,0)" stroke-width="0.0" fill="rgb(102,26,102)" stroke-linecap="butt" stroke-miterlimit="10.0"><path d="M 178.0220,171.4286 l -0.0000,-2.9304 h -146.5201 l -0.0000,2.9304 Z"/></g><g stroke-linejoin="miter" stroke-opacity="1.0" fill-opacity="0.7" font-size="5.860805860805852px" stroke="rgb(0,0,0)" stroke-width="0.7999999999999995" fill="rgb(51,51,51)" stroke-linecap="butt" stroke-miterlimit="10.0"><text dominant-baseline="text-before-edge" transform="matrix(1.0000,0.0000,0.0000,1.0000,164.7020,175.8242)" stroke="none" text-anchor="middle">90</text></g><g stroke-linejoin="miter" stroke-opacity="0.5" fill-opacity="0.0" stroke="rgb(26,102,204)" stroke-width="0.7999999999999995" fill="rgb(0,0,0)" stroke-linecap="butt" stroke-miterlimit="10.0"><path d="M 164.7020,169.9634 v 2.9304 "/></g><g stroke-linejoin="miter" stroke-opacity="1.0" fill-opacity="0.7" font-size="5.860805860805852px" stroke="rgb(0,0,0)" stroke-width="0.7999999999999995" fill="rgb(51,51,51)" stroke-linecap="butt" stroke-miterlimit="10.0"><text dominant-baseline="text-before-edge" transform="matrix(1.0000,0.0000,0.0000,1.0000,149.9019,175.8242)" stroke="none" text-anchor="middle">80</text></g><g stroke-linejoin="miter" stroke-opacity="0.5" fill-opacity="0.0" stroke="rgb(26,102,204)" stroke-width="0.7999999999999995" fill="rgb(0,0,0)" stroke-linecap="butt" stroke-miterlimit="10.0"><path d="M 149.9019,169.9634 v 2.9304 "/></g><g stroke-linejoin="miter" stroke-opacity="1.0" fill-opacity="0.7" font-size="5.860805860805852px" stroke="rgb(0,0,0)" stroke-width="0.7999999999999995" fill="rgb(51,51,51)" stroke-linecap="butt" stroke-miterlimit="10.0"><text dominant-baseline="text-before-edge" transform="matrix(1.0000,0.0000,0.0000,1.0000,135.1019,175.8242)" stroke="none" text-anchor="middle">70</text></g><g stroke-linejoin="miter" stroke-opacity="0.5" fill-opacity="0.0" stroke="rgb(26,102,204)" stroke-width="0.7999999999999995" fill="rgb(0,0,0)" stroke-linecap="butt" stroke-miterlimit="10.0"><path d="M 135.1019,169.9634 v 2.9304 "/></g><g stroke-linejoin="miter" stroke-opacity="1.0" fill-opacity="0.7" font-size="5.860805860805852px" stroke="rgb(0,0,0)" stroke-width="0.7999999999999995" fill="rgb(51,51,51)" stroke-linecap="butt" stroke-miterlimit="10.0"><text dominant-baseline="text-before-edge" transform="matrix(1.0000,0.0000,0.0000,1.0000,120.3019,175.8242)" stroke="none" text-anchor="middle">60</text></g><g stroke-linejoin="miter" stroke-opacity="0.5" fill-opacity="0.0" stroke="rgb(26,102,204)" stroke-width="0.7999999999999995" fill="rgb(0,0,0)" stroke-linecap="butt" stroke-miterlimit="10.0"><path d="M 120.3019,169.9634 v 2.9304 "/></g><g stroke-linejoin="miter" stroke-opacity="1.0" fill-opacity="0.7" font-size="5.860805860805852px" stroke="rgb(0,0,0)" stroke-width="0.7999999999999995" fill="rgb(51,51,51)" stroke-linecap="butt" stroke-miterlimit="10.0"><text dominant-baseline="text-before-edge" transform="matrix(1.0000,0.0000,0.0000,1.0000,105.5019,175.8242)" stroke="none" text-anchor="middle">50</text></g><g stroke-linejoin="miter" stroke-opacity="0.5" fill-opacity="0.0" stroke="rgb(26,102,204)" stroke-width="0.7999999999999995" fill="rgb(0,0,0)" stroke-linecap="butt" stroke-miterlimit="10.0"><path d="M 105.5019,169.9634 v 2.9304 "/></g><g stroke-linejoin="miter" stroke-opacity="1.0" fill-opacity="0.7" font-size="5.860805860805852px" stroke="rgb(0,0,0)" stroke-width="0.7999999999999995" fill="rgb(51,51,51)" stroke-linecap="butt" stroke-miterlimit="10.0"><text dominant-baseline="text-before-edge" transform="matrix(1.0000,0.0000,0.0000,1.0000,90.7019,175.8242)" stroke="none" text-anchor="middle">40</text></g><g stroke-linejoin="miter" stroke-opacity="0.5" fill-opacity="0.0" stroke="rgb(26,102,204)" stroke-width="0.7999999999999995" fill="rgb(0,0,0)" stroke-linecap="butt" stroke-miterlimit="10.0"><path d="M 90.7019,169.9634 v 2.9304 "/></g><g stroke-linejoin="miter" stroke-opacity="1.0" fill-opacity="0.7" font-size="5.860805860805852px" stroke="rgb(0,0,0)" stroke-width="0.7999999999999995" fill="rgb(51,51,51)" stroke-linecap="butt" stroke-miterlimit="10.0"><text dominant-baseline="text-before-edge" transform="matrix(1.0000,0.0000,0.0000,1.0000,75.9019,175.8242)" stroke="none" text-anchor="middle">30</text></g><g stroke-linejoin="miter" stroke-opacity="0.5" fill-opacity="0.0" stroke="rgb(26,102,204)" stroke-width="0.7999999999999995" fill="rgb(0,0,0)" stroke-linecap="butt" stroke-miterlimit="10.0"><path d="M 75.9019,169.9634 v 2.9304 "/></g><g stroke-linejoin="miter" stroke-opacity="1.0" fill-opacity="0.7" font-size="5.860805860805852px" stroke="rgb(0,0,0)" stroke-width="0.7999999999999995" fill="rgb(51,51,51)" stroke-linecap="butt" stroke-miterlimit="10.0"><text dominant-baseline="text-before-edge" transform="matrix(1.0000,0.0000,0.0000,1.0000,61.1019,175.8242)" stroke="none" text-anchor="middle">20</text></g><g stroke-linejoin="miter" stroke-opacity="0.5" fill-opacity="0.0" stroke="rgb(26,102,204)" stroke-width="0.7999999999999995" fill="rgb(0,0,0)" stroke-linecap="butt" stroke-miterlimit="10.0"><path d="M 61.1019,169.9634 v 2.9304 "/></g><g stroke-linejoin="miter" stroke-opacity="1.0" fill-opacity="0.7" font-size="5.860805860805852px" stroke="rgb(0,0,0)" stroke-width="0.7999999999999995" fill="rgb(51,51,51)" stroke-linecap="butt" stroke-miterlimit="10.0"><text dominant-baseline="text-before-edge" transform="matrix(1.0000,0.0000,0.0000,1.0000,46.3018,175.8242)" stroke="none" text-anchor="middle">10</text></g><g stroke-linejoin="miter" stroke-opacity="0.5" fill-opacity="0.0" stroke="rgb(26,102,204)" stroke-width="0.7999999999999995" fill="rgb(0,0,0)" stroke-linecap="butt" stroke-miterlimit="10.0"><path d="M 46.3018,169.9634 v 2.9304 "/></g><g stroke-linejoin="miter" stroke-opacity="1.0" fill-opacity="0.7" font-size="5.860805860805852px" stroke="rgb(0,0,0)" stroke-width="0.7999999999999995" fill="rgb(51,51,51)" stroke-linecap="butt" stroke-miterlimit="10.0"><text dominant-baseline="text-before-edge" transform="matrix(1.0000,0.0000,0.0000,1.0000,31.5018,175.8242)" stroke="none" text-anchor="middle">0.0</text></g><g stroke-linejoin="miter" stroke-opacity="0.5" fill-opacity="0.0" stroke="rgb(26,102,204)" stroke-width="0.7999999999999995" fill="rgb(0,0,0)" stroke-linecap="butt" stroke-miterlimit="10.0"><path d="M 31.5018,169.9634 v 2.9304 "/></g><g stroke-linejoin="miter" stroke-opacity="0.5" fill-opacity="0.0" stroke="rgb(241,124,176)" stroke-width="1.9999999999999987" fill="rgb(0,0,0)" stroke-linecap="butt" stroke-miterlimit="10.0"><path d="M 31.5018,94.7445 l 1.4800,10.3389 l 1.4800,-4.5482 l 1.4800,-9.8760 l 1.4800,4.4832 l 1.4800,-1.3212 l 1.4800,-1.0399 l 1.4800,-1.0853 l 1.4800,5.7893 l 1.4800,-4.5182 l 1.4800,3.9976 l 1.4800,11.4019 l 1.4800,-6.9718 l 1.4800,1.9793 l 1.4800,2.7398 l 1.4800,-1.5809 l 1.4800,-2.9250 l 1.4800,15.5230 l 1.4800,14.8872 l 1.4800,5.5279 l 1.4800,-2.7824 l 1.4800,1.8116 l 1.4800,2.4766 l 1.4800,1.4259 l 1.4800,7.8417 l 1.4800,5.5059 l 1.4800,-0.7456 l 1.4800,2.7487 l 1.4800,2.4293 l 1.4800,2.1054 l 1.4800,8.1349 l 1.4800,-6.4617 l 1.4800,1.7393 l 1.4800,-3.5099 l 1.4800,-4.4057 l 1.4800,-7.8764 l 1.4800,2.5567 l 1.4800,-4.5678 l 1.4800,6.2771 l 1.4800,-5.8825 l 1.4800,-14.0861 l 1.4800,-3.7606 l 1.4800,-10.0667 l 1.4800,1.7679 l 1.4800,6.2313 l 1.4800,-10.3677 l 1.4800,-10.0684 l 1.4800,6.0637 l 1.4800,7.8394 l 1.4800,-6.4203 l 1.4800,-0.5785 l 1.4800,-7.9674 l 1.4800,-6.8400 l 1.4800,10.6230 l 1.4800,8.0364 l 1.4800,-4.6590 l 1.4800,3.3286 l 1.4800,-6.4980 l 1.4800,-4.0057 l 1.4800,-4.6200 l 1.4800,-1.5011 l 1.4800,-6.2244 l 1.4800,-2.8996 l 1.4800,-2.1728 l 1.4800,0.8736 l 1.4800,6.2368 l 1.4800,-0.4458 l 1.4800,5.7761 l 1.4800,0.2592 l 1.4800,-4.8502 l 1.4800,4.8912 l 1.4800,5.0949 l 1.4800,-12.9101 l 1.4800,5.9916 l 1.4800,-5.1427 l 1.4800,-7.3224 l 1.4800,12.7779 l 1.4800,-1.2108 l 1.4800,-6.2287 l 1.4800,3.0409 l 1.4800,6.5446 l 1.4800,-0.3243 l 1.4800,1.2316 l 1.4800,-11.0158 l 1.4800,-4.2300 l 1.4800,1.7266 l 1.4800,-4.9376 l 1.4800,8.7032 l 1.4800,-6.9760 l 1.4800,-12.6332 l 1.4800,-12.2645 l 1.4800,8.5422 l 1.4800,-6.0552 l 1.4800,2.6927 l 1.4800,-4.1957 l 1.4800,-0.5783 l 1.4800,2.7305 l 1.4800,-5.3877 l 1.4800,10.9292 l 1.4800,18.6503 "/></g><g stroke-linejoin="miter" stroke-opacity="0.5" fill-opacity="0.0" stroke="rgb(96,189,104)" stroke-width="1.9999999999999987" fill="rgb(0,0,0)" stroke-linecap="butt" stroke-miterlimit="10.0"><path d="M 31.5018,92.6501 l 1.4800,0.3684 l 1.4800,7.0621 l 1.4800,3.2754 l 1.4800,-0.9450 l 1.4800,7.8286 l 1.4800,8.0129 l 1.4800,2.8325 l 1.4800,-0.6033 l 1.4800,8.9494 l 1.4800,-3.5571 l 1.4800,-3.8126 l 1.4800,-1.3066 l 1.4800,-3.4061 l 1.4800,3.8869 l 1.4800,1.4575 l 1.4800,-7.7440 l 1.4800,2.6416 l 1.4800,11.9386 l 1.4800,-3.8339 l 1.4800,-1.6041 l 1.4800,4.6069 l 1.4800,9.8754 l 1.4800,-5.8197 l 1.4800,-14.1775 l 1.4800,-8.7500 l 1.4800,-11.1530 l 1.4800,-2.0928 l 1.4800,1.3118 l 1.4800,-5.4774 l 1.4800,3.8852 l 1.4800,-13.3471 l 1.4800,7.3111 l 1.4800,-9.1779 l 1.4800,-2.8765 l 1.4800,-2.1589 l 1.4800,11.5355 l 1.4800,-8.9725 l 1.4800,0.1449 l 1.4800,16.9092 l 1.4800,-4.5848 l 1.4800,-9.2800 l 1.4800,2.2680 l 1.4800,9.0936 l 1.4800,-2.1029 l 1.4800,2.5115 l 1.4800,-6.2759 l 1.4800,-6.0488 l 1.4800,-5.6217 l 1.4800,8.7482 l 1.4800,-6.9248 l 1.4800,-0.9112 l 1.4800,-9.7712 l 1.4800,-0.1753 l 1.4800,1.2263 l 1.4800,1.2931 l 1.4800,2.6212 l 1.4800,-5.4729 l 1.4800,1.4932 l 1.4800,4.3577 l 1.4800,-3.3079 l 1.4800,0.8337 l 1.4800,9.0430 l 1.4800,-4.0142 l 1.4800,0.3794 l 1.4800,-8.9272 l 1.4800,22.0067 l 1.4800,5.8827 l 1.4800,14.0707 l 1.4800,1.1057 l 1.4800,16.0312 l 1.4800,-3.2388 l 1.4800,-1.1642 l 1.4800,8.0000 l 1.4800,2.9956 l 1.4800,-5.4659 l 1.4800,-5.0211 l 1.4800,6.5537 l 1.4800,-4.7450 l 1.4800,-3.9071 l 1.4800,-4.2016 l 1.4800,-12.4800 l 1.4800,-8.0036 l 1.4800,4.0047 l 1.4800,-8.4443 l 1.4800,4.6197 l 1.4800,1.0828 l 1.4800,-4.3703 l 1.4800,-1.5539 l 1.4800,2.7476 l 1.4800,-6.3588 l 1.4800,12.7705 l 1.4800,-10.0544 l 1.4800,0.9886 l 1.4800,-1.4024 l 1.4800,-4.8842 l 1.4800,8.1911 l 1.4800,3.9010 l 1.4800,3.7227 l 1.4800,17.2567 "/></g><g stroke-linejoin="miter" stroke-opacity="0.5" fill-opacity="0.0" stroke="rgb(250,165,218)" stroke-width="1.9999999999999987" fill="rgb(0,0,0)" stroke-linecap="butt" stroke-miterlimit="10.0"><path d="M 31.5018,78.4645 l 1.4800,-7.0239 l 1.4800,-0.8645 l 1.4800,-2.4897 l 1.4800,-14.4188 l 1.4800,1.9524 l 1.4800,-0.1802 l 1.4800,1.7852 l 1.4800,-8.3932 l 1.4800,-8.6479 l 1.4800,-3.1707 l 1.4800,0.2091 l 1.4800,-5.4288 l 1.4800,-6.4420 l 1.4800,4.5189 l 1.4800,4.1543 l 1.4800,10.3726 l 1.4800,-5.3510 l 1.4800,-6.3208 l 1.4800,3.2419 l 1.4800,9.9553 l 1.4800,-5.4404 l 1.4800,-3.9353 l 1.4800,-2.3750 l 1.4800,-3.3254 l 1.4800,-8.8686 l 1.4800,0.1811 l 1.4800,3.1218 l 1.4800,10.1770 l 1.4800,-12.3756 l 1.4800,1.5636 l 1.4800,8.4775 l 1.4800,-5.3040 l 1.4800,7.4455 l 1.4800,2.9596 l 1.4800,-3.6461 l 1.4800,-3.7185 l 1.4800,3.4903 l 1.4800,-7.5101 l 1.4800,1.7694 l 1.4800,-2.8178 l 1.4800,2.2181 l 1.4800,10.3050 l 1.4800,-0.4685 l 1.4800,11.6650 l 1.4800,-2.1920 l 1.4800,4.9971 l 1.4800,10.3606 l 1.4800,5.8122 l 1.4800,0.7854 l 1.4800,-2.3366 l 1.4800,0.1323 l 1.4800,-7.5149 l 1.4800,1.9704 l 1.4800,5.2931 l 1.4800,-4.1878 l 1.4800,-7.5138 l 1.4800,-2.1353 l 1.4800,3.3932 l 1.4800,-6.8372 l 1.4800,-4.9369 l 1.4800,4.7339 l 1.4800,6.9276 l 1.4800,-1.0889 l 1.4800,-8.1028 l 1.4800,1.7946 l 1.4800,6.4552 l 1.4800,3.8986 l 1.4800,1.6025 l 1.4800,14.3846 l 1.4800,5.2693 l 1.4800,8.0557 l 1.4800,4.2607 l 1.4800,2.3098 l 1.4800,5.1024 l 1.4800,7.2304 l 1.4800,-5.6153 l 1.4800,-0.6772 l 1.4800,-1.3085 l 1.4800,13.0139 l 1.4800,-0.3217 l 1.4800,-13.0068 l 1.4800,-1.7777 l 1.4800,1.9787 l 1.4800,-2.3378 l 1.4800,7.7695 l 1.4800,1.9590 l 1.4800,3.4440 l 1.4800,2.8082 l 1.4800,-6.0695 l 1.4800,-9.7726 l 1.4800,7.9347 l 1.4800,-0.8520 l 1.4800,14.8345 l 1.4800,14.6194 l 1.4800,6.3114 l 1.4800,6.9598 l 1.4800,-0.1424 l 1.4800,-11.2016 l 1.4800,-12.8712 "/></g><g stroke-linejoin="miter" stroke-opacity="0.5" fill-opacity="0.0" stroke="rgb(93,165,218)" stroke-width="1.9999999999999987" fill="rgb(0,0,0)" stroke-linecap="butt" stroke-miterlimit="10.0"><path d="M 31.5018,97.5753 l 1.4800,19.5851 l 1.4800,-2.0509 l 1.4800,0.7273 l 1.4800,-1.0784 l 1.4800,-8.8755 l 1.4800,0.0557 l 1.4800,6.1030 l 1.4800,-5.2955 l 1.4800,-6.6435 l 1.4800,4.0014 l 1.4800,-7.1914 l 1.4800,4.0130 l 1.4800,2.9937 l 1.4800,-8.9113 l 1.4800,-0.7912 l 1.4800,1.1690 l 1.4800,-9.8957 l 1.4800,-0.2371 l 1.4800,-0.7707 l 1.4800,-0.7543 l 1.4800,1.9061 l 1.4800,-11.3505 l 1.4800,-11.4276 l 1.4800,5.7023 l 1.4800,3.8013 l 1.4800,-2.2550 l 1.4800,3.2965 l 1.4800,5.0459 l 1.4800,3.5329 l 1.4800,18.5000 l 1.4800,15.7538 l 1.4800,13.2504 l 1.4800,-3.6712 l 1.4800,3.1053 l 1.4800,8.6209 l 1.4800,0.4946 l 1.4800,-7.2467 l 1.4800,11.6656 l 1.4800,-4.4457 l 1.4800,4.2832 l 1.4800,4.8409 l 1.4800,2.0839 l 1.4800,1.9970 l 1.4800,4.2334 l 1.4800,-10.6211 l 1.4800,4.0145 l 1.4800,-4.8810 l 1.4800,-4.1972 l 1.4800,-5.5298 l 1.4800,7.7101 l 1.4800,1.7941 l 1.4800,-4.1626 l 1.4800,-14.8055 l 1.4800,-1.1701 l 1.4800,-5.8045 l 1.4800,-4.7964 l 1.4800,-10.2584 l 1.4800,-1.6136 l 1.4800,-8.1144 l 1.4800,0.2710 l 1.4800,-9.7431 l 1.4800,10.4953 l 1.4800,-0.9532 l 1.4800,-10.1724 l 1.4800,6.0208 l 1.4800,11.8628 l 1.4800,-10.7840 l 1.4800,-8.9191 l 1.4800,-0.0434 l 1.4800,-2.2558 l 1.4800,-0.5397 l 1.4800,0.1402 l 1.4800,-4.8121 l 1.4800,14.3189 l 1.4800,-9.2520 l 1.4800,-2.1394 l 1.4800,-13.8627 l 1.4800,2.7771 l 1.4800,4.3141 l 1.4800,-21.0342 l 1.4800,1.6545 l 1.4800,-9.9768 l 1.4800,7.7812 l 1.4800,-0.5703 l 1.4800,8.9752 l 1.4800,-1.1869 l 1.4800,2.7742 l 1.4800,1.9694 l 1.4800,-3.3437 l 1.4800,7.1516 l 1.4800,0.8413 l 1.4800,13.0935 l 1.4800,-11.1038 l 1.4800,2.9685 l 1.4800,1.6010 l 1.4800,2.3061 l 1.4800,3.3328 l 1.4800,-5.1631 l 1.4800,8.2217 "/></g><g stroke-linejoin="miter" stroke-opacity="0.5" fill-opacity="0.0" stroke="rgb(85,85,85)" stroke-width="1.9999999999999987" fill="rgb(0,0,0)" stroke-linecap="butt" stroke-miterlimit="10.0"><path d="M 31.5018,97.6312 l 1.4800,8.6486 l 1.4800,-4.3918 l 1.4800,-6.6570 l 1.4800,13.7171 l 1.4800,-1.5195 l 1.4800,11.1859 l 1.4800,-2.1829 l 1.4800,1.7109 l 1.4800,-5.9411 l 1.4800,-6.3518 l 1.4800,13.2753 l 1.4800,-10.4698 l 1.4800,5.3180 l 1.4800,14.1887 l 1.4800,-4.7537 l 1.4800,-10.6703 l 1.4800,-5.3393 l 1.4800,7.2662 l 1.4800,8.2687 l 1.4800,-8.6442 l 1.4800,-12.1509 l 1.4800,-7.5049 l 1.4800,-4.2179 l 1.4800,7.1628 l 1.4800,11.8293 l 1.4800,8.1178 l 1.4800,-18.3523 l 1.4800,-9.0038 l 1.4800,-4.8868 l 1.4800,2.5518 l 1.4800,-0.3145 l 1.4800,-1.4163 l 1.4800,3.1922 l 1.4800,5.1192 l 1.4800,8.5235 l 1.4800,1.1211 l 1.4800,4.1059 l 1.4800,-1.9624 l 1.4800,-9.0459 l 1.4800,-4.6351 l 1.4800,-0.2664 l 1.4800,7.2357 l 1.4800,3.4570 l 1.4800,-0.6928 l 1.4800,-2.0643 l 1.4800,12.0356 l 1.4800,0.2576 l 1.4800,1.5652 l 1.4800,-1.6361 l 1.4800,-3.3636 l 1.4800,-6.5998 l 1.4800,5.7614 l 1.4800,-11.2830 l 1.4800,5.6286 l 1.4800,11.1492 l 1.4800,9.6404 l 1.4800,14.1001 l 1.4800,4.2129 l 1.4800,8.1140 l 1.4800,-0.7433 l 1.4800,-1.3869 l 1.4800,-7.3511 l 1.4800,-3.9526 l 1.4800,-0.5779 l 1.4800,-10.5590 l 1.4800,-0.3968 l 1.4800,6.4642 l 1.4800,1.0607 l 1.4800,-13.7862 l 1.4800,-0.9849 l 1.4800,-9.3692 l 1.4800,-6.4833 l 1.4800,12.2458 l 1.4800,-3.3661 l 1.4800,-15.6303 l 1.4800,7.7422 l 1.4800,5.5141 l 1.4800,4.7712 l 1.4800,2.2682 l 1.4800,8.9889 l 1.4800,14.1226 l 1.4800,-3.1971 l 1.4800,0.6217 l 1.4800,2.6742 l 1.4800,-5.3072 l 1.4800,9.9142 l 1.4800,11.9827 l 1.4800,-14.6843 l 1.4800,5.4348 l 1.4800,-2.7240 l 1.4800,1.6123 l 1.4800,-3.1393 l 1.4800,1.0417 l 1.4800,1.4299 l 1.4800,-1.2121 l 1.4800,9.1076 l 1.4800,8.1163 l 1.4800,-7.3664 l 1.4800,5.9083 "/></g></svg>