<?xml version="1.0" encoding="UTF-8"?>
<!DOCTYPE svg PUBLIC "-//W3C//DTD SVG 1.1//EN"
    "http://www.w3.org/Graphics/SVG/1.1/DTD/svg11.dtd"><svg xmlns="http://www.w3.org/2000/svg" height="200.0000" stroke-opacity="1" viewBox="0 0 200 200" font-size="1" width="200.0000" xmlns:xlink="http://www.w3.org/1999/xlink" stroke="rgb(0,0,0)" version="1.1"><defs></defs><g stroke-linejoin="miter" stroke-opacity="0.0" fill-opacity="0.5" stroke="rgb(0,0,0)" stroke-width="0.0" fill="rgb(102,26,102)" stroke-linecap="butt" stroke-miterlimit="10.0"><path d="M 31.5018,168.4982 l -0.0000,-146.5201 h -2.9304 l -0.0000,146.5201 Z"/></g><g stroke-linejoin="miter" stroke-opacity="1.0" fill-opacity="0.7" font-size="5.860805860805852px" stroke="rgb(0,0,0)" stroke-width="0.7999999999999994" fill="rgb(51,51,51)" stroke-linecap="butt" stroke-miterlimit="10.0"><text dominant-baseline="middle" transform="matrix(1.0000,0.0000,0.0000,1.0000,24.1758,38.7668)" stroke="none" text-anchor="end">6.0</text></g><g stroke-linejoin="miter" stroke-opacity="0.5" fill-opacity="0.0" stroke="rgb(26,102,204)" stroke-width="0.7999999999999994" fill="rgb(0,0,0)" stroke-linecap="butt" stroke-miterlimit="10.0"><path d="M 27.1062,38.7668 h 2.9304 "/></g><g stroke-linejoin="miter" stroke-opacity="1.0" fill-opacity="0.7" font-size="5.860805860805852px" stroke="rgb(0,0,0)" stroke-width="0.7999999999999994" fill="rgb(51,51,51)" stroke-linecap="butt" stroke-miterlimit="10.0"><text dominant-baseline="middle" transform="matrix(1.0000,0.0000,0.0000,1.0000,24.1758,57.5750)" stroke="none" text-anchor="end">4.0</text></g><g stroke-linejoin="miter" stroke-opacity="0.5" fill-opacity="0.0" stroke="rgb(26,102,204)" stroke-width="0.7999999999999994" fill="rgb(0,0,0)" stroke-linecap="butt" stroke-miterlimit="10.0"><path d="M 27.1062,57.5750 h 2.9304 "/></g><g stroke-linejoin="miter" stroke-opacity="1.0" fill-opacity="0.7" font-size="5.860805860805852px" stroke="rgb(0,0,0)" stroke-width="0.7999999999999994" fill="rgb(51,51,51)" stroke-linecap="butt" stroke-miterlimit="10.0"><text dominant-baseline="middle" transform="matrix(1.0000,0.0000,0.0000,1.0000,24.1758,76.3832)" stroke="none" text-anchor="end">2.0</text></g><g stroke-linejoin="miter" stroke-opacity="0.5" fill-opacity="0.0" stroke="rgb(26,102,204)" stroke-width="0.7999999999999994" fill="rgb(0,0,0)" stroke-linecap="butt" stroke-miterlimit="10.0"><path d="M 27.1062,76.3832 h 2.9304 "/></g><g stroke-linejoin="miter" stroke-opacity="1.0" fill-opacity="0.7" font-size="5.860805860805852px" stroke="rgb(0,0,0)" stroke-width="0.7999999999999994" fill="rgb(51,51,51)" stroke-linecap="butt" stroke-miterlimit="10.0"><text dominant-baseline="middle" transform="matrix(1.0000,0.0000,0.0000,1.0000,24.1758,95.1914)" stroke="none" text-anchor="end">0.0</text></g><g stroke-linejoin="miter" stroke-opacity="0.5" fill-opacity="0.0" stroke="rgb(26,102,204)" stroke-width="0.7999999999999994" fill="rgb(0,0,0)" stroke-linecap="butt" stroke-miterlimit="10.0"><path d="M 27.1062,95.1914 h 2.9304 "/></g><g stroke-linejoin="miter" stroke-opacity="1.0" fill-opacity="0.7" font-size="5.860805860805852px" stroke="rgb(0,0,0)" stroke-width="0.7999999999999994" fill="rgb(51,51,51)" stroke-linecap="butt" stroke-miterlimit="10.0"><text dominant-baseline="middle" transform="matrix(1.0000,0.0000,0.0000,1.0000,24.1758,113.9996)" stroke="none" text-anchor="end">-2.0</text></g><g stroke-linejoin="miter" stroke-opacity="0.5" fill-opacity="0.0" stroke="rgb(26,102,204)" stroke-width="0.7999999999999994" fill="rgb(0,0,0)" stroke-linecap="butt" stroke-miterlimit="10.0"><path d="M 27.1062,113.9996 h 2.9304 "/></g><g stroke-linejoin="miter" stroke-opacity="1.0" fill-opacity="0.7" font-size="5.860805860805852px" stroke="rgb(0,0,0)" stroke-width="0.7999999999999994" fill="rgb(51,51,51)" stroke-linecap="butt" stroke-miterlimit="10.0"><text dominant-baseline="middle" transform="matrix(1.0000,0.0000,0.0000,1.0000,24.1758,132.8078)" stroke="none" text-anchor="end">-4.0</text></g><g stroke-linejoin="miter" stroke-opacity="0.5" fill-opacity="0.0" stroke="rgb(26,102,204)" stroke-width="0.7999999999999994" fill="rgb(0,0,0)" stroke-linecap="butt" stroke-miterlimit="10.0"><path d="M 27.1062,132.8078 h 2.9304 "/></g><g stroke-linejoin="miter" stroke-opacity="1.0" fill-opacity="0.7" font-size="5.860805860805852px" stroke="rgb(0,0,0)" stroke-width="0.7999999999999994" fill="rgb(51,51,51)" stroke-linecap="butt" stroke-miterlimit="10.0"><text dominant-baseline="middle" transform="matrix(1.0000,0.0000,0.0000,1.0000,24.1758,151.6160)" stroke="none" text-anchor="end">-6.0</text></g><g stroke-linejoin="miter" stroke-opacity="0.5" fill-opacity="0.0" stroke="rgb(26,102,204)" stroke-width="0.7999999999999994" fill="rgb(0,0,0)" stroke-linecap="butt" stroke-miterlimit="10.0"><path d="M 27.1062,151.6160 h 2.9304 "/></g><g stroke-linejoin="miter" stroke-opacity="0.0" fill-opacity="0.5" stroke="rgb(0,0,0)" stroke-width="0.0" fill="rgb(102,26,102)" stroke-linecap="butt" stroke-miterlimit="10.0"><path d="M 178.0220,171.4286 l -0.0000,-2.9304 h -146.5201 l -0.0000,2.9304 Z"/></g><g stroke-linejoin="miter" stroke-opacity="1.0" fill-opacity="0.7" font-size="5.860805860805852px" stroke="rgb(0,0,0)" stroke-width="0.7999999999999994" fill="rgb(51,51,51)" stroke-linecap="butt" stroke-miterlimit="10.0"><text dominant-baseline="text-before-edge" transform="matrix(1.0000,0.0000,0.0000,1.0000,164.7020,175.8242)" stroke="none" text-anchor="middle">90</text></g><g stroke-linejoin="miter" stroke-opacity="0.5" fill-opacity="0.0" stroke="rgb(26,102,204)" stroke-width="0.7999999999999994" fill="rgb(0,0,0)" stroke-linecap="butt" stroke-miterlimit="10.0"><path d="M 164.7020,169.9634 v 2.9304 "/></g><g stroke-linejoin="miter" stroke-opacity="1.0" fill-opacity="0.7" font-size="5.860805860805852px" stroke="rgb(0,0,0)" stroke-width="0.7999999999999994" fill="rgb(51,51,51)" stroke-linecap="butt" stroke-miterlimit="10.0"><text dominant-baseline="text-before-edge" transform="matrix(1.0000,0.0000,0.0000,1.0000,149.9019,175.8242)" stroke="none" text-anchor="middle">80</text></g><g stroke-linejoin="miter" stroke-opacity="0.5" fill-opacity="0.0" stroke="rgb(26,102,204)" stroke-width="0.7999999999999994" fill="rgb(0,0,0)" stroke-linecap="butt" stroke-miterlimit="10.0"><path d="M 149.9019,169.9634 v 2.9304 "/></g><g stroke-linejoin="miter" stroke-opacity="1.0" fill-opacity="0.7" font-size="5.860805860805852px" stroke="rgb(0,0,0)" stroke-width="0.7999999999999994" fill="rgb(51,51,51)" stroke-linecap="butt" stroke-miterlimit="10.0"><text dominant-baseline="text-before-edge" transform="matrix(1.0000,0.0000,0.0000,1.0000,135.1019,175.8242)" stroke="none" text-anchor="middle">70</text></g><g stroke-linejoin="miter" stroke-opacity="0.5" fill-opacity="0.0" stroke="rgb(26,102,204)" stroke-width="0.7999999999999994" fill="rgb(0,0,0)" stroke-linecap="butt" stroke-miterlimit="10.0"><path d="M 135.1019,169.9634 v 2.9304 "/></g><g stroke-linejoin="miter" stroke-opacity="1.0" fill-opacity="0.7" font-size="5.860805860805852px" stroke="rgb(0,0,0)" stroke-width="0.7999999999999994" fill="rgb(51,51,51)" stroke-linecap="butt" stroke-miterlimit="10.0"><text dominant-baseline="text-before-edge" transform="matrix(1.0000,0.0000,0.0000,1.0000,120.3019,175.8242)" stroke="none" text-anchor="middle">60</text></g><g stroke-linejoin="miter" stroke-opacity="0.5" fill-opacity="0.0" stroke="rgb(26,102,204)" stroke-width="0.7999999999999994" fill="rgb(0,0,0)" stroke-linecap="butt" stroke-miterlimit="10.0"><path d="M 120.3019,169.9634 v 2.9304 "/></g><g stroke-linejoin="miter" stroke-opacity="1.0" fill-opacity="0.7" font-size="5.860805860805852px" stroke="rgb(0,0,0)" stroke-width="0.7999999999999994" fill="rgb(51,51,51)" stroke-linecap="butt" stroke-miterlimit="10.0"><text dominant-baseline="text-before-edge" transform="matrix(1.0000,0.0000,0.0000,1.0000,105.5019,175.8242)" stroke="none" text-anchor="middle">50</text></g><g stroke-linejoin="miter" stroke-opacity="0.5" fill-opacity="0.0" stroke="rgb(26,102,204)" stroke-width="0.7999999999999994" fill="rgb(0,0,0)" stroke-linecap="butt" stroke-miterlimit="10.0"><path d="M 105.5019,169.9634 v 2.9304 "/></g><g stroke-linejoin="miter" stroke-opacity="1.0" fill-opacity="0.7" font-size="5.860805860805852px" stroke="rgb(0,0,0)" stroke-width="0.7999999999999994" fill="rgb(51,51,51)" stroke-linecap="butt" stroke-miterlimit="10.0"><text dominant-baseline="text-before-edge" transform="matrix(1.0000,0.0000,0.0000,1.0000,90.7019,175.8242)" stroke="none" text-anchor="middle">40</text></g><g stroke-linejoin="miter" stroke-opacity="0.5" fill-opacity="0.0" stroke="rgb(26,102,204)" stroke-width="0.7999999999999994" fill="rgb(0,0,0)" stroke-linecap="butt" stroke-miterlimit="10.0"><path d="M 90.7019,169.9634 v 2.9304 "/></g><g stroke-linejoin="miter" stroke-opacity="1.0" fill-opacity="0.7" font-size="5.860805860805852px" stroke="rgb(0,0,0)" stroke-width="0.7999999999999994" fill="rgb(51,51,51)" stroke-linecap="butt" stroke-miterlimit="10.0"><text dominant-baseline="text-before-edge" transform="matrix(1.0000,0.0000,0.0000,1.0000,75.9019,175.8242)" stroke="none" text-anchor="middle">30</text></g><g stroke-linejoin="miter" stroke-opacity="0.5" fill-opacity="0.0" stroke="rgb(26,102,204)" stroke-width="0.7999999999999994" fill="rgb(0,0,0)" stroke-linecap="butt" stroke-miterlimit="10.0"><path d="M 75.9019,169.9634 v 2.9304 "/></g><g stroke-linejoin="miter" stroke-opacity="1.0" fill-opacity="0.7" font-size="5.860805860805852px" stroke="rgb(0,0,0)" stroke-width="0.7999999999999994" fill="rgb(51,51,51)" stroke-linecap="butt" stroke-miterlimit="10.0"><text dominant-baseline="text-before-edge" transform="matrix(1.0000,0.0000,0.0000,1.0000,61.1019,175.8242)" stroke="none" text-anchor="middle">20</text></g><g stroke-linejoin="miter" stroke-opacity="0.5" fill-opacity="0.0" stroke="rgb(26,102,204)" stroke-width="0.7999999999999994" fill="rgb(0,0,0)" stroke-linecap="butt" stroke-miterlimit="10.0"><path d="M 61.1019,169.9634 v 2.9304 "/></g><g stroke-linejoin="miter" stroke-opacity="1.0" fill-opacity="0.7" font-size="5.860805860805852px" stroke="rgb(0,0,0)" stroke-width="0.7999999999999994" fill="rgb(51,51,51)" stroke-linecap="butt" stroke-miterlimit="10.0"><text dominant-baseline="text-before-edge" transform="matrix(1.0000,0.0000,0.0000,1.0000,46.3018,175.8242)" stroke="none" text-anchor="middle">10</text></g><g stroke-linejoin="miter" stroke-opacity="0.5" fill-opacity="0.0" stroke="rgb(26,102,204)" stroke-width="0.7999999999999994" fill="rgb(0,0,0)" stroke-linecap="butt" stroke-miterlimit="10.0"><path d="M 46.3018,169.9634 v 2.9304 "/></g><g stroke-linejoin="miter" stroke-opacity="1.0" fill-opacity="0.7" font-size="5.860805860805852px" stroke="rgb(0,0,0)" stroke-width="0.7999999999999994" fill="rgb(51,51,51)" stroke-linecap="butt" stroke-miterlimit="10.0"><text dominant-baseline="text-before-edge" transform="matrix(1.0000,0.0000,0.0000,1.0000,31.5018,175.8242)" stroke="none" text-anchor="middle">0.0</text></g><g stroke-linejoin="miter" stroke-opacity="0.5" fill-opacity="0.0" stroke="rgb(26,102,204)" stroke-width="0.7999999999999994" fill="rgb(0,0,0)" stroke-linecap="butt" stroke-miterlimit="10.0"><path d="M 31.5018,169.9634 v 2.9304 "/></g><g stroke-linejoin="miter" stroke-opacity="0.5" fill-opacity="0.0" stroke="rgb(241,124,176)" stroke-width="1.9999999999999984" fill="rgb(0,0,0)" stroke-linecap="butt" stroke-miterlimit="10.0"><path d="M 31.5018,100.8648 l 1.4800,-4.3132 l 1.4800,0.5603 l 1.4800,-15.1982 l 1.4800,5.1999 l 1.4800,2.7712 l 1.4800,-0.3187 l 1.4800,-13.6013 l 1.4800,9.0812 l 1.4800,17.0682 l 1.4800,-13.7864 l 1.4800,10.5669 l 1.4800,-14.2103 l 1.4800,5.7043 l 1.4800,12.1664 l 1.4800,1.0881 l 1.4800,-9.5349 l 1.4800,8.7409 l 1.4800,-6.8398 l 1.4800,-15.0329 l 1.4800,1.1867 l 1.4800,-8.9018 l 1.4800,-0.3738 l 1.4800,5.1742 l 1.4800,-2.8396 l 1.4800,7.3906 l 1.4800,4.7935 l 1.4800,-4.6123 l 1.4800,-5.2622 l 1.4800,13.2907 l 1.4800,-7.7802 l 1.4800,-3.2581 l 1.4800,-0.4629 l 1.4800,17.2043 l 1.4800,11.1702 l 1.4800,1.9153 l 1.4800,-7.9323 l 1.4800,0.4915 l 1.4800,-2.6899 l 1.4800,-6.2094 l 1.4800,1.4351 l 1.4800,4.2299 l 1.4800,-15.5280 l 1.4800,5.3797 l 1.4800,-3.0217 l 1.4800,-10.8162 l 1.4800,-0.7777 l 1.4800,-5.2057 l 1.4800,-7.8958 l 1.4800,2.8500 l 1.4800,1.4820 l 1.4800,-4.0874 l 1.4800,13.3039 l 1.4800,-2.2090 l 1.4800,9.6494 l 1.4800,9.6704 l 1.4800,2.0737 l 1.4800,-4.7141 l 1.4800,3.9959 l 1.4800,-18.2865 l 1.4800,15.8112 l 1.4800,-13.1502 l 1.4800,12.1817 l 1.4800,-12.1578 l 1.4800,-5.5210 l 1.4800,3.4322 l 1.4800,2.3931 l 1.4800,-10.8308 l 1.4800,-2.4679 l 1.4800,-2.6129 l 1.4800,-10.9266 l 1.4800,-7.3388 l 1.4800,4.0034 l 1.4800,3.1128 l 1.4800,-1.5963 l 1.4800,10.2922 l 1.4800,-8.3177 l 1.4800,2.2552 l 1.4800,-14.5636 l 1.4800,12.4622 l 1.4800,15.9640 l 1.4800,9.0684 l 1.4800,13.3986 l 1.4800,1.2379 l 1.4800,-0.3160 l 1.4800,9.7038 l 1.4800,-2.3730 l 1.4800,-1.9475 l 1.4800,-7.5795 l 1.4800,10.6332 l 1.4800,12.1264 l 1.4800,-9.6716 l 1.4800,7.7112 l 1.4800,17.2449 l 1.4800,7.7063 l 1.4800,-3.5480 l 1.4800,-10.0528 l 1.4800,-7.9326 l 1.4800,-10.9576 l 1.4800,-5.5116 "/></g><g stroke-linejoin="miter" stroke-opacity="0.5" fill-opacity="0.0" stroke="rgb(96,189,104)" stroke-width="1.9999999999999984" fill="rgb(0,0,0)" stroke-linecap="butt" stroke-miterlimit="10.0"><path d="M 31.5018,93.5349 l 1.4800,-15.1365 l 1.4800,-2.4782 l 1.4800,7.1092 l 1.4800,-8.2425 l 1.4800,1.1430 l 1.4800,-9.6050 l 1.4800,11.9164 l 1.4800,17.2061 l 1.4800,-8.6511 l 1.4800,16.7886 l 1.4800,15.4515 l 1.4800,2.2320 l 1.4800,-7.2523 l 1.4800,4.8174 l 1.4800,7.7052 l 1.4800,2.2007 l 1.4800,-0.0279 l 1.4800,-9.2601 l 1.4800,-18.8502 l 1.4800,3.3765 l 1.4800,5.4245 l 1.4800,1.2651 l 1.4800,-6.4891 l 1.4800,7.1558 l 1.4800,-6.7300 l 1.4800,-16.0124 l 1.4800,-3.2409 l 1.4800,-14.0171 l 1.4800,-2.6341 l 1.4800,19.0976 l 1.4800,0.1692 l 1.4800,5.2739 l 1.4800,-5.6089 l 1.4800,2.3675 l 1.4800,0.6165 l 1.4800,15.6413 l 1.4800,-0.2195 l 1.4800,4.6090 l 1.4800,3.1543 l 1.4800,1.8420 l 1.4800,-15.0822 l 1.4800,-0.5928 l 1.4800,5.0548 l 1.4800,-2.3287 l 1.4800,-2.7300 l 1.4800,-3.9960 l 1.4800,2.0273 l 1.4800,2.5523 l 1.4800,-15.7739 l 1.4800,-4.6488 l 1.4800,-3.9836 l 1.4800,7.1086 l 1.4800,-8.8072 l 1.4800,-1.8316 l 1.4800,0.0656 l 1.4800,1.8187 l 1.4800,-5.6102 l 1.4800,-11.9260 l 1.4800,-13.8616 l 1.4800,10.7610 l 1.4800,-5.7199 l 1.4800,7.5717 l 1.4800,-10.8785 l 1.4800,19.3272 l 1.4800,1.1981 l 1.4800,-21.8558 l 1.4800,-18.3531 l 1.4800,3.2689 l 1.4800,2.7855 l 1.4800,-4.5139 l 1.4800,1.4703 l 1.4800,-6.1803 l 1.4800,14.1268 l 1.4800,-0.6155 l 1.4800,-1.7948 l 1.4800,1.3741 l 1.4800,-11.3212 l 1.4800,26.7479 l 1.4800,-13.2463 l 1.4800,7.7935 l 1.4800,7.7274 l 1.4800,10.5912 l 1.4800,3.7978 l 1.4800,12.5712 l 1.4800,-27.6125 l 1.4800,-7.2909 l 1.4800,6.2722 l 1.4800,6.3966 l 1.4800,-10.9277 l 1.4800,-3.0888 l 1.4800,-14.2735 l 1.4800,1.1114 l 1.4800,10.2724 l 1.4800,4.0129 l 1.4800,15.4679 l 1.4800,7.7452 l 1.4800,-9.6078 l 1.4800,10.2604 l 1.4800,-1.0483 "/></g><g stroke-linejoin="miter" stroke-opacity="0.5" fill-opacity="0.0" stroke="rgb(250,165,218)" stroke-width="1.9999999999999984" fill="rgb(0,0,0)" stroke-linecap="butt" stroke-miterlimit="10.0"><path d="M 31.5018,94.1042 l 1.4800,-2.9515 l 1.4800,-11.3491 l 1.4800,8.3497 l 1.4800,6.5852 l 1.4800,-18.0346 l 1.4800,-13.4322 l 1.4800,2.5751 l 1.4800,5.5203 l 1.4800,8.9425 l 1.4800,-3.2541 l 1.4800,7.3258 l 1.4800,11.4402 l 1.4800,3.0037 l 1.4800,-6.3604 l 1.4800,8.5242 l 1.4800,-10.4442 l 1.4800,-3.8451 l 1.4800,-15.4840 l 1.4800,-5.7071 l 1.4800,-9.0871 l 1.4800,-0.5560 l 1.4800,10.7364 l 1.4800,1.5213 l 1.4800,6.6578 l 1.4800,6.1338 l 1.4800,12.3177 l 1.4800,5.2915 l 1.4800,2.9685 l 1.4800,-7.5211 l 1.4800,16.5284 l 1.4800,9.8169 l 1.4800,9.4489 l 1.4800,-9.5172 l 1.4800,0.9035 l 1.4800,-3.2875 l 1.4800,-7.8767 l 1.4800,-14.6344 l 1.4800,8.9304 l 1.4800,2.0977 l 1.4800,10.3683 l 1.4800,1.0581 l 1.4800,-2.2338 l 1.4800,3.4553 l 1.4800,10.2206 l 1.4800,-7.5504 l 1.4800,8.8999 l 1.4800,-5.8745 l 1.4800,8.7900 l 1.4800,-8.9430 l 1.4800,14.5108 l 1.4800,1.2712 l 1.4800,14.5081 l 1.4800,8.0790 l 1.4800,-17.7151 l 1.4800,-6.7158 l 1.4800,-0.3699 l 1.4800,-13.0003 l 1.4800,12.9638 l 1.4800,-15.1694 l 1.4800,-4.6043 l 1.4800,11.7343 l 1.4800,-10.4338 l 1.4800,-9.6917 l 1.4800,-2.1062 l 1.4800,-13.5220 l 1.4800,5.9678 l 1.4800,7.0415 l 1.4800,-6.0726 l 1.4800,-8.6066 l 1.4800,2.1544 l 1.4800,-9.2068 l 1.4800,-0.1744 l 1.4800,26.1918 l 1.4800,-3.8775 l 1.4800,-2.1198 l 1.4800,5.5352 l 1.4800,-21.3630 l 1.4800,-2.8691 l 1.4800,-2.0002 l 1.4800,9.4216 l 1.4800,0.2803 l 1.4800,-10.5577 l 1.4800,-1.6854 l 1.4800,-3.4871 l 1.4800,18.6286 l 1.4800,0.1029 l 1.4800,-5.0265 l 1.4800,11.1921 l 1.4800,-22.4733 l 1.4800,-4.3498 l 1.4800,23.4302 l 1.4800,0.9211 l 1.4800,-11.4142 l 1.4800,13.6538 l 1.4800,6.1725 l 1.4800,12.7476 l 1.4800,-25.8261 l 1.4800,-11.7823 l 1.4800,-11.4142 "/></g><g stroke-linejoin="miter" stroke-opacity="0.5" fill-opacity="0.0" stroke="rgb(93,165,218)" stroke-width="1.9999999999999984" fill="rgb(0,0,0)" stroke-linecap="butt" stroke-miterlimit="10.0"><path d="M 31.5018,98.5811 l 1.4800,-6.3386 l 1.4800,-1.4485 l 1.4800,-11.1588 l 1.4800,-2.4964 l 1.4800,-9.4503 l 1.4800,-5.4472 l 1.4800,-4.8656 l 1.4800,1.6848 l 1.4800,7.3396 l 1.4800,4.8704 l 1.4800,-2.1066 l 1.4800,-8.8077 l 1.4800,4.9643 l 1.4800,16.1540 l 1.4800,1.4143 l 1.4800,7.1774 l 1.4800,-6.7341 l 1.4800,12.0965 l 1.4800,-0.5181 l 1.4800,10.2375 l 1.4800,-11.3943 l 1.4800,3.6073 l 1.4800,-11.3426 l 1.4800,4.1434 l 1.4800,14.0640 l 1.4800,-6.2544 l 1.4800,8.9165 l 1.4800,-2.6854 l 1.4800,-1.1839 l 1.4800,7.4047 l 1.4800,3.9414 l 1.4800,-15.1892 l 1.4800,29.7962 l 1.4800,-9.3274 l 1.4800,21.6473 l 1.4800,4.6460 l 1.4800,5.2346 l 1.4800,17.2777 l 1.4800,0.0486 l 1.4800,-5.5267 l 1.4800,-11.6856 l 1.4800,7.1167 l 1.4800,-2.8596 l 1.4800,12.1400 l 1.4800,-9.9449 l 1.4800,-5.0932 l 1.4800,7.0738 l 1.4800,7.4609 l 1.4800,-7.4310 l 1.4800,1.6369 l 1.4800,-8.8603 l 1.4800,-5.3239 l 1.4800,-0.4785 l 1.4800,-12.2894 l 1.4800,-13.1976 l 1.4800,11.0581 l 1.4800,-9.1180 l 1.4800,-1.6318 l 1.4800,-20.7753 l 1.4800,8.5723 l 1.4800,-0.6151 l 1.4800,6.3114 l 1.4800,-12.8708 l 1.4800,-4.0029 l 1.4800,1.7788 l 1.4800,4.7154 l 1.4800,-6.7886 l 1.4800,9.2171 l 1.4800,1.1643 l 1.4800,-17.8226 l 1.4800,-2.2517 l 1.4800,2.9186 l 1.4800,2.4670 l 1.4800,-17.7122 l 1.4800,-20.6323 l 1.4800,-0.5865 l 1.4800,-9.8673 l 1.4800,4.5906 l 1.4800,0.6490 l 1.4800,-9.1456 l 1.4800,-4.2650 l 1.4800,19.8073 l 1.4800,1.6863 l 1.4800,-4.6382 l 1.4800,-4.2761 l 1.4800,0.1600 l 1.4800,-10.4299 l 1.4800,-6.7350 l 1.4800,13.9268 l 1.4800,-8.4621 l 1.4800,-1.3104 l 1.4800,-8.6945 l 1.4800,14.8153 l 1.4800,5.7700 l 1.4800,-0.7821 l 1.4800,-14.7901 l 1.4800,10.6788 l 1.4800,8.5914 l 1.4800,-11.6225 "/></g><g stroke-linejoin="miter" stroke-opacity="0.5" fill-opacity="0.0" stroke="rgb(85,85,85)" stroke-width="1.9999999999999984" fill="rgb(0,0,0)" stroke-linecap="butt" stroke-miterlimit="10.0"><path d="M 31.5018,110.8625 l 1.4800,6.8296 l 1.4800,-4.7893 l 1.4800,5.3912 l 1.4800,-12.2914 l 1.4800,-20.1217 l 1.4800,3.0952 l 1.4800,-5.6940 l 1.4800,13.7478 l 1.4800,19.6645 l 1.4800,-12.6509 l 1.4800,-8.7152 l 1.4800,4.6841 l 1.4800,16.6239 l 1.4800,3.3829 l 1.4800,12.6148 l 1.4800,-19.9683 l 1.4800,-2.8721 l 1.4800,-5.5696 l 1.4800,-3.1769 l 1.4800,1.0811 l 1.4800,6.8718 l 1.4800,-5.8543 l 1.4800,4.5167 l 1.4800,2.9065 l 1.4800,-6.4919 l 1.4800,0.1999 l 1.4800,-5.5978 l 1.4800,-1.2867 l 1.4800,16.1556 l 1.4800,-2.9118 l 1.4800,6.1099 l 1.4800,-1.6612 l 1.4800,3.5772 l 1.4800,5.3225 l 1.4800,5.2882 l 1.4800,8.1412 l 1.4800,-6.4499 l 1.4800,3.9601 l 1.4800,-1.5687 l 1.4800,-2.8694 l 1.4800,10.0434 l 1.4800,6.2148 l 1.4800,-8.1923 l 1.4800,-17.4118 l 1.4800,3.8060 l 1.4800,0.6407 l 1.4800,-2.5159 l 1.4800,5.9344 l 1.4800,3.7442 l 1.4800,7.5924 l 1.4800,20.0388 l 1.4800,-0.8878 l 1.4800,0.4160 l 1.4800,5.7838 l 1.4800,-0.2066 l 1.4800,-13.7850 l 1.4800,7.9299 l 1.4800,-15.3952 l 1.4800,-4.7942 l 1.4800,7.8850 l 1.4800,-9.4606 l 1.4800,-1.4148 l 1.4800,4.0451 l 1.4800,-4.2335 l 1.4800,1.9080 l 1.4800,-12.5968 l 1.4800,5.5628 l 1.4800,1.3489 l 1.4800,-3.2778 l 1.4800,-6.6147 l 1.4800,-18.5367 l 1.4800,-2.3112 l 1.4800,-6.5830 l 1.4800,9.8860 l 1.4800,-8.9513 l 1.4800,3.1366 l 1.4800,-8.2783 l 1.4800,2.0841 l 1.4800,-14.5732 l 1.4800,-10.6411 l 1.4800,-12.1269 l 1.4800,6.3479 l 1.4800,-6.6188 l 1.4800,10.5758 l 1.4800,1.8668 l 1.4800,-0.9691 l 1.4800,8.9412 l 1.4800,-21.9001 l 1.4800,10.3478 l 1.4800,-11.5499 l 1.4800,-15.5845 l 1.4800,9.2484 l 1.4800,-5.5038 l 1.4800,12.2085 l 1.4800,7.6814 l 1.4800,1.1377 l 1.4800,9.5365 l 1.4800,4.7309 l 1.4800,17.6300 "/></g></svg>