<?xml version="1.0" encoding="UTF-8"?>
<!DOCTYPE svg PUBLIC "-//W3C//DTD SVG 1.1//EN"
    "http://www.w3.org/Graphics/SVG/1.1/DTD/svg11.dtd"><svg xmlns="http://www.w3.org/2000/svg" height="200.0000" stroke-opacity="1" viewBox="0 0 200 200" font-size="1" width="200.0000" xmlns:xlink="http://www.w3.org/1999/xlink" stroke="rgb(0,0,0)" version="1.1"><defs></defs><g stroke-linejoin="miter" stroke-opacity="0.0" fill-opacity="0.5" stroke="rgb(0,0,0)" stroke-width="0.0" fill="rgb(102,26,102)" stroke-linecap="butt" stroke-miterlimit="10.0"><path d="M 31.5018,168.4982 l -0.0000,-146.5201 h -2.9304 l -0.0000,146.5201 Z"/></g><g stroke-linejoin="miter" stroke-opacity="1.0" fill-opacity="0.7" font-size="5.860805860805852px" stroke="rgb(0,0,0)" stroke-width="0.7999999999999995" fill="rgb(51,51,51)" stroke-linecap="butt" stroke-miterlimit="10.0"><text dominant-baseline="middle" transform="matrix(1.0000,0.0000,0.0000,1.0000,24.1758,38.2997)" stroke="none" text-anchor="end">10</text></g><g stroke-linejoin="miter" stroke-opacity="0.5" fill-opacity="0.0" stroke="rgb(26,102,204)" stroke-width="0.7999999999999995" fill="rgb(0,0,0)" stroke-linecap="butt" stroke-miterlimit="10.0"><path d="M 27.1062,38.2997 h 2.9304 "/></g><g stroke-linejoin="miter" stroke-opacity="1.0" fill-opacity="0.7" font-size="5.860805860805852px" stroke="rgb(0,0,0)" stroke-width="0.7999999999999995" fill="rgb(51,51,51)" stroke-linecap="butt" stroke-miterlimit="10.0"><text dominant-baseline="middle" transform="matrix(1.0000,0.0000,0.0000,1.0000,24.1758,61.0711)" stroke="none" text-anchor="end">5.0</text></g><g stroke-linejoin="miter" stroke-opacity="0.5" fill-opacity="0.0" stroke="rgb(26,102,204)" stroke-width="0.7999999999999995" fill="rgb(0,0,0)" stroke-linecap="butt" stroke-miterlimit="10.0"><path d="M 27.1062,61.0711 h 2.9304 "/></g><g stroke-linejoin="miter" stroke-opacity="1.0" fill-opacity="0.7" font-size="5.860805860805852px" stroke="rgb(0,0,0)" stroke-width="0.7999999999999995" fill="rgb(51,51,51)" stroke-linecap="butt" stroke-miterlimit="10.0"><text dominant-baseline="middle" transform="matrix(1.0000,0.0000,0.0000,1.0000,24.1758,83.8425)" stroke="none" text-anchor="end">0.0</text></g><g stroke-linejoin="miter" stroke-opacity="0.5" fill-opacity="0.0" stroke="rgb(26,102,204)" stroke-width="0.7999999999999995" fill="rgb(0,0,0)" stroke-linecap="butt" stroke-miterlimit="10.0"><path d="M 27.1062,83.8425 h 2.9304 "/></g><g stroke-linejoin="miter" stroke-opacity="1.0" fill-opacity="0.7" font-size="5.860805860805852px" stroke="rgb(0,0,0)" stroke-width="0.7999999999999995" fill="rgb(51,51,51)" stroke-linecap="butt" stroke-miterlimit="10.0"><text dominant-baseline="middle" transform="matrix(1.0000,0.0000,0.0000,1.0000,24.1758,106.6140)" stroke="none" text-anchor="end">-5.0</text></g><g stroke-linejoin="miter" stroke-opacity="0.5" fill-opacity="0.0" stroke="rgb(26,102,204)" stroke-width="0.7999999999999995" fill="rgb(0,0,0)" stroke-linecap="butt" stroke-miterlimit="10.0"><path d="M 27.1062,106.6140 h 2.9304 "/></g><g stroke-linejoin="miter" stroke-opacity="1.0" fill-opacity="0.7" font-size="5.860805860805852px" stroke="rgb(0,0,0)" stroke-width="0.7999999999999995" fill="rgb(51,51,51)" stroke-linecap="butt" stroke-miterlimit="10.0"><text dominant-baseline="middle" transform="matrix(1.0000,0.0000,0.0000,1.0000,24.1758,129.3854)" stroke="none" text-anchor="end">-10</text></g><g stroke-linejoin="miter" stroke-opacity="0.5" fill-opacity="0.0" stroke="rgb(26,102,204)" stroke-width="0.7999999999999995" fill="rgb(0,0,0)" stroke-linecap="butt" stroke-miterlimit="10.0"><path d="M 27.1062,129.3854 h 2.9304 "/></g><g stroke-linejoin="miter" stroke-opacity="1.0" fill-opacity="0.7" font-size="5.860805860805852px" stroke="rgb(0,0,0)" stroke-width="0.7999999999999995" fill="rgb(51,51,51)" stroke-linecap="butt" stroke-miterlimit="10.0"><text dominant-baseline="middle" transform="matrix(1.0000,0.0000,0.0000,1.0000,24.1758,152.1568)" stroke="none" text-anchor="end">-15</text></g><g stroke-linejoin="miter" stroke-opacity="0.5" fill-opacity="0.0" stroke="rgb(26,102,204)" stroke-width="0.7999999999999995" fill="rgb(0,0,0)" stroke-linecap="butt" stroke-miterlimit="10.0"><path d="M 27.1062,152.1568 h 2.9304 "/></g><g stroke-linejoin="miter" stroke-opacity="0.0" fill-opacity="0.5" stroke="rgb(0,0,0)" stroke-width="0.0" fill="rgb(102,26,102)" stroke-linecap="butt" stroke-miterlimit="10.0"><path d="M 178.0220,171.4286 l -0.0000,-2.9304 h -146.5201 l -0.0000,2.9304 Z"/></g><g stroke-linejoin="miter" stroke-opacity="1.0" fill-opacity="0.7" font-size="5.860805860805852px" stroke="rgb(0,0,0)" stroke-width="0.7999999999999995" fill="rgb(51,51,51)" stroke-linecap="butt" stroke-miterlimit="10.0"><text dominant-baseline="text-before-edge" transform="matrix(1.0000,0.0000,0.0000,1.0000,164.7020,175.8242)" stroke="none" text-anchor="middle">90</text></g><g stroke-linejoin="miter" stroke-opacity="0.5" fill-opacity="0.0" stroke="rgb(26,102,204)" stroke-width="0.7999999999999995" fill="rgb(0,0,0)" stroke-linecap="butt" stroke-miterlimit="10.0"><path d="M 164.7020,169.9634 v 2.9304 "/></g><g stroke-linejoin="miter" stroke-opacity="1.0" fill-opacity="0.7" font-size="5.860805860805852px" stroke="rgb(0,0,0)" stroke-width="0.7999999999999995" fill="rgb(51,51,51)" stroke-linecap="butt" stroke-miterlimit="10.0"><text dominant-baseline="text-before-edge" transform="matrix(1.0000,0.0000,0.0000,1.0000,149.9019,175.8242)" stroke="none" text-anchor="middle">80</text></g><g stroke-linejoin="miter" stroke-opacity="0.5" fill-opacity="0.0" stroke="rgb(26,102,204)" stroke-width="0.7999999999999995" fill="rgb(0,0,0)" stroke-linecap="butt" stroke-miterlimit="10.0"><path d="M 149.9019,169.9634 v 2.9304 "/></g><g stroke-linejoin="miter" stroke-opacity="1.0" fill-opacity="0.7" font-size="5.860805860805852px" stroke="rgb(0,0,0)" stroke-width="0.7999999999999995" fill="rgb(51,51,51)" stroke-linecap="butt" stroke-miterlimit="10.0"><text dominant-baseline="text-before-edge" transform="matrix(1.0000,0.0000,0.0000,1.0000,135.1019,175.8242)" stroke="none" text-anchor="middle">70</text></g><g stroke-linejoin="miter" stroke-opacity="0.5" fill-opacity="0.0" stroke="rgb(26,102,204)" stroke-width="0.7999999999999995" fill="rgb(0,0,0)" stroke-linecap="butt" stroke-miterlimit="10.0"><path d="M 135.1019,169.9634 v 2.9304 "/></g><g stroke-linejoin="miter" stroke-opacity="1.0" fill-opacity="0.7" font-size="5.860805860805852px" stroke="rgb(0,0,0)" stroke-width="0.7999999999999995" fill="rgb(51,51,51)" stroke-linecap="butt" stroke-miterlimit="10.0"><text dominant-baseline="text-before-edge" transform="matrix(1.0000,0.0000,0.0000,1.0000,120.3019,175.8242)" stroke="none" text-anchor="middle">60</text></g><g stroke-linejoin="miter" stroke-opacity="0.5" fill-opacity="0.0" stroke="rgb(26,102,204)" stroke-width="0.7999999999999995" fill="rgb(0,0,0)" stroke-linecap="butt" stroke-miterlimit="10.0"><path d="M 120.3019,169.9634 v 2.9304 "/></g><g stroke-linejoin="miter" stroke-opacity="1.0" fill-opacity="0.7" font-size="5.860805860805852px" stroke="rgb(0,0,0)" stroke-width="0.7999999999999995" fill="rgb(51,51,51)" stroke-linecap="butt" stroke-miterlimit="10.0"><text dominant-baseline="text-before-edge" transform="matrix(1.0000,0.0000,0.0000,1.0000,105.5019,175.8242)" stroke="none" text-anchor="middle">50</text></g><g stroke-linejoin="miter" stroke-opacity="0.5" fill-opacity="0.0" stroke="rgb(26,102,204)" stroke-width="0.7999999999999995" fill="rgb(0,0,0)" stroke-linecap="butt" stroke-miterlimit="10.0"><path d="M 105.5019,169.9634 v 2.9304 "/></g><g stroke-linejoin="miter" stroke-opacity="1.0" fill-opacity="0.7" font-size="5.860805860805852px" stroke="rgb(0,0,0)" stroke-width="0.7999999999999995" fill="rgb(51,51,51)" stroke-linecap="butt" stroke-miterlimit="10.0"><text dominant-baseline="text-before-edge" transform="matrix(1.0000,0.0000,0.0000,1.0000,90.7019,175.8242)" stroke="none" text-anchor="middle">40</text></g><g stroke-linejoin="miter" stroke-opacity="0.5" fill-opacity="0.0" stroke="rgb(26,102,204)" stroke-width="0.7999999999999995" fill="rgb(0,0,0)" stroke-linecap="butt" stroke-miterlimit="10.0"><path d="M 90.7019,169.9634 v 2.9304 "/></g><g stroke-linejoin="miter" stroke-opacity="1.0" fill-opacity="0.7" font-size="5.860805860805852px" stroke="rgb(0,0,0)" stroke-width="0.7999999999999995" fill="rgb(51,51,51)" stroke-linecap="butt" stroke-miterlimit="10.0"><text dominant-baseline="text-before-edge" transform="matrix(1.0000,0.0000,0.0000,1.0000,75.9019,175.8242)" stroke="none" text-anchor="middle">30</text></g><g stroke-linejoin="miter" stroke-opacity="0.5" fill-opacity="0.0" stroke="rgb(26,102,204)" stroke-width="0.7999999999999995" fill="rgb(0,0,0)" stroke-linecap="butt" stroke-miterlimit="10.0"><path d="M 75.9019,169.9634 v 2.9304 "/></g><g stroke-linejoin="miter" stroke-opacity="1.0" fill-opacity="0.7" font-size="5.860805860805852px" stroke="rgb(0,0,0)" stroke-width="0.7999999999999995" fill="rgb(51,51,51)" stroke-linecap="butt" stroke-miterlimit="10.0"><text dominant-baseline="text-before-edge" transform="matrix(1.0000,0.0000,0.0000,1.0000,61.1019,175.8242)" stroke="none" text-anchor="middle">20</text></g><g stroke-linejoin="miter" stroke-opacity="0.5" fill-opacity="0.0" stroke="rgb(26,102,204)" stroke-width="0.7999999999999995" fill="rgb(0,0,0)" stroke-linecap="butt" stroke-miterlimit="10.0"><path d="M 61.1019,169.9634 v 2.9304 "/></g><g stroke-linejoin="miter" stroke-opacity="1.0" fill-opacity="0.7" font-size="5.860805860805852px" stroke="rgb(0,0,0)" stroke-width="0.7999999999999995" fill="rgb(51,51,51)" stroke-linecap="butt" stroke-miterlimit="10.0"><text dominant-baseline="text-before-edge" transform="matrix(1.0000,0.0000,0.0000,1.0000,46.3018,175.8242)" stroke="none" text-anchor="middle">10</text></g><g stroke-linejoin="miter" stroke-opacity="0.5" fill-opacity="0.0" stroke="rgb(26,102,204)" stroke-width="0.7999999999999995" fill="rgb(0,0,0)" stroke-linecap="butt" stroke-miterlimit="10.0"><path d="M 46.3018,169.9634 v 2.9304 "/></g><g stroke-linejoin="miter" stroke-opacity="1.0" fill-opacity="0.7" font-size="5.860805860805852px" stroke="rgb(0,0,0)" stroke-width="0.7999999999999995" fill="rgb(51,51,51)" stroke-linecap="butt" stroke-miterlimit="10.0"><text dominant-baseline="text-before-edge" transform="matrix(1.0000,0.0000,0.0000,1.0000,31.5018,175.8242)" stroke="none" text-anchor="middle">0.0</text></g><g stroke-linejoin="miter" stroke-opacity="0.5" fill-opacity="0.0" stroke="rgb(26,102,204)" stroke-width="0.7999999999999995" fill="rgb(0,0,0)" stroke-linecap="butt" stroke-miterlimit="10.0"><path d="M 31.5018,169.9634 v 2.9304 "/></g><g stroke-linejoin="miter" stroke-opacity="0.5" fill-opacity="0.0" stroke="rgb(241,124,176)" stroke-width="1.9999999999999987" fill="rgb(0,0,0)" stroke-linecap="butt" stroke-miterlimit="10.0"><path d="M 31.5018,76.2960 l 1.4800,-2.9299 l 1.4800,5.1194 l 1.4800,4.6557 l 1.4800,-4.0648 l 1.4800,-0.9008 l 1.4800,-7.2632 l 1.4800,-3.6829 l 1.4800,0.0290 l 1.4800,-7.0728 l 1.4800,1.4424 l 1.4800,-11.1847 l 1.4800,1.0600 l 1.4800,1.6277 l 1.4800,1.0891 l 1.4800,-3.1896 l 1.4800,-3.1629 l 1.4800,0.2248 l 1.4800,-5.2621 l 1.4800,3.8085 l 1.4800,-4.3996 l 1.4800,2.4970 l 1.4800,3.4248 l 1.4800,-3.1918 l 1.4800,-5.0702 l 1.4800,-12.3564 l 1.4800,1.0935 l 1.4800,-6.6584 l 1.4800,3.3695 l 1.4800,0.4713 l 1.4800,0.8983 l 1.4800,2.0324 l 1.4800,-0.0108 l 1.4800,3.7593 l 1.4800,1.5179 l 1.4800,5.4524 l 1.4800,0.7156 l 1.4800,-2.2302 l 1.4800,0.0130 l 1.4800,1.0117 l 1.4800,11.7266 l 1.4800,1.4061 l 1.4800,-3.5459 l 1.4800,-1.8366 l 1.4800,6.1119 l 1.4800,-0.7341 l 1.4800,1.0059 l 1.4800,1.3323 l 1.4800,-0.9354 l 1.4800,-3.4238 l 1.4800,2.6338 l 1.4800,-1.3979 l 1.4800,2.8716 l 1.4800,-2.4650 l 1.4800,5.3772 l 1.4800,6.0581 l 1.4800,4.7819 l 1.4800,-5.4282 l 1.4800,-1.2865 l 1.4800,5.9819 l 1.4800,-2.3094 l 1.4800,-8.1553 l 1.4800,4.4891 l 1.4800,-3.8074 l 1.4800,2.2298 l 1.4800,-3.9543 l 1.4800,-6.6301 l 1.4800,2.4264 l 1.4800,2.4771 l 1.4800,2.4368 l 1.4800,-6.5845 l 1.4800,1.0923 l 1.4800,-1.5477 l 1.4800,-0.2222 l 1.4800,-2.2487 l 1.4800,2.0951 l 1.4800,4.6545 l 1.4800,3.4791 l 1.4800,-3.9663 l 1.4800,5.3497 l 1.4800,1.5842 l 1.4800,-2.2124 l 1.4800,-1.1261 l 1.4800,-6.1794 l 1.4800,-0.9184 l 1.4800,-5.3637 l 1.4800,-4.0201 l 1.4800,-2.4207 l 1.4800,4.8705 l 1.4800,13.5764 l 1.4800,-1.6781 l 1.4800,-4.0239 l 1.4800,-0.5439 l 1.4800,-4.9581 l 1.4800,-8.8766 l 1.4800,-0.0492 l 1.4800,3.2587 l 1.4800,-4.0440 l 1.4800,2.9594 l 1.4800,-0.7127 "/></g><g stroke-linejoin="miter" stroke-opacity="0.5" fill-opacity="0.0" stroke="rgb(96,189,104)" stroke-width="1.9999999999999987" fill="rgb(0,0,0)" stroke-linecap="butt" stroke-miterlimit="10.0"><path d="M 31.5018,100.2955 l 1.4800,0.3895 l 1.4800,0.0822 l 1.4800,-9.1892 l 1.4800,4.7853 l 1.4800,0.5477 l 1.4800,-3.2161 l 1.4800,-12.7824 l 1.4800,-3.4163 l 1.4800,3.9934 l 1.4800,3.0596 l 1.4800,2.9006 l 1.4800,0.0523 l 1.4800,0.3197 l 1.4800,1.0708 l 1.4800,-2.2732 l 1.4800,2.6342 l 1.4800,-6.2114 l 1.4800,-11.7923 l 1.4800,4.9581 l 1.4800,-2.6194 l 1.4800,-5.5725 l 1.4800,-1.9376 l 1.4800,-0.5743 l 1.4800,0.9025 l 1.4800,6.6540 l 1.4800,4.2770 l 1.4800,10.0944 l 1.4800,1.5146 l 1.4800,7.1889 l 1.4800,6.0741 l 1.4800,3.2072 l 1.4800,0.8374 l 1.4800,-1.0714 l 1.4800,2.3851 l 1.4800,-2.4585 l 1.4800,8.4986 l 1.4800,0.7150 l 1.4800,-1.0320 l 1.4800,1.4878 l 1.4800,0.9022 l 1.4800,-3.2908 l 1.4800,-5.1813 l 1.4800,-3.4393 l 1.4800,3.3676 l 1.4800,0.0894 l 1.4800,6.1124 l 1.4800,1.8439 l 1.4800,-5.4018 l 1.4800,-4.2444 l 1.4800,-8.2303 l 1.4800,-7.1639 l 1.4800,-4.9515 l 1.4800,6.2787 l 1.4800,5.3614 l 1.4800,0.2529 l 1.4800,4.7436 l 1.4800,-2.8553 l 1.4800,5.5715 l 1.4800,-6.6108 l 1.4800,-7.4089 l 1.4800,2.0839 l 1.4800,-4.6346 l 1.4800,4.5527 l 1.4800,-7.1814 l 1.4800,-0.4893 l 1.4800,0.7505 l 1.4800,-1.2842 l 1.4800,1.8397 l 1.4800,-7.1612 l 1.4800,1.9277 l 1.4800,0.9197 l 1.4800,-2.9442 l 1.4800,1.9948 l 1.4800,-2.5823 l 1.4800,0.9931 l 1.4800,-1.1359 l 1.4800,-4.2358 l 1.4800,-9.1237 l 1.4800,-2.4403 l 1.4800,3.3699 l 1.4800,0.0209 l 1.4800,-0.3609 l 1.4800,-2.3740 l 1.4800,-1.4964 l 1.4800,4.5696 l 1.4800,4.5143 l 1.4800,1.8039 l 1.4800,5.1519 l 1.4800,-1.3675 l 1.4800,-5.4168 l 1.4800,3.6097 l 1.4800,1.1654 l 1.4800,-7.3124 l 1.4800,-2.6823 l 1.4800,-4.8716 l 1.4800,-0.3803 l 1.4800,3.7767 l 1.4800,-4.5179 l 1.4800,-5.4555 "/></g><g stroke-linejoin="miter" stroke-opacity="0.5" fill-opacity="0.0" stroke="rgb(250,165,218)" stroke-width="1.9999999999999987" fill="rgb(0,0,0)" stroke-linecap="butt" stroke-miterlimit="10.0"><path d="M 31.5018,85.5112 l 1.4800,3.6961 l 1.4800,-5.2037 l 1.4800,2.3430 l 1.4800,3.7573 l 1.4800,6.0814 l 1.4800,-7.7939 l 1.4800,0.6491 l 1.4800,5.6582 l 1.4800,-1.8874 l 1.4800,3.6768 l 1.4800,-0.8895 l 1.4800,2.4372 l 1.4800,-1.0153 l 1.4800,1.8152 l 1.4800,3.3838 l 1.4800,-0.6032 l 1.4800,5.6034 l 1.4800,0.6256 l 1.4800,-1.6397 l 1.4800,-3.1409 l 1.4800,3.9650 l 1.4800,1.5971 l 1.4800,3.3077 l 1.4800,0.7059 l 1.4800,1.6377 l 1.4800,5.2722 l 1.4800,1.7869 l 1.4800,1.7383 l 1.4800,7.8456 l 1.4800,-7.4336 l 1.4800,12.1122 l 1.4800,8.1830 l 1.4800,6.4329 l 1.4800,0.8831 l 1.4800,-6.8190 l 1.4800,9.5005 l 1.4800,-3.4307 l 1.4800,3.4960 l 1.4800,-4.7142 l 1.4800,-2.5105 l 1.4800,-2.4530 l 1.4800,4.0632 l 1.4800,-5.8091 l 1.4800,0.4621 l 1.4800,2.8713 l 1.4800,-8.4888 l 1.4800,1.6434 l 1.4800,3.2102 l 1.4800,6.6112 l 1.4800,2.0389 l 1.4800,5.6751 l 1.4800,1.1837 l 1.4800,-0.8607 l 1.4800,-5.3447 l 1.4800,0.3623 l 1.4800,4.0491 l 1.4800,4.7270 l 1.4800,5.3895 l 1.4800,-2.3157 l 1.4800,-4.0157 l 1.4800,-5.6629 l 1.4800,1.8020 l 1.4800,-2.8758 l 1.4800,-2.5023 l 1.4800,-1.5651 l 1.4800,-1.7281 l 1.4800,0.4236 l 1.4800,-0.0326 l 1.4800,-2.4161 l 1.4800,-10.6006 l 1.4800,-4.5582 l 1.4800,2.4037 l 1.4800,-1.4961 l 1.4800,0.7482 l 1.4800,8.1229 l 1.4800,-1.8184 l 1.4800,-1.8581 l 1.4800,-3.4349 l 1.4800,0.4426 l 1.4800,2.5420 l 1.4800,4.2375 l 1.4800,-0.1994 l 1.4800,4.3688 l 1.4800,10.8924 l 1.4800,-2.9644 l 1.4800,-2.6634 l 1.4800,1.6566 l 1.4800,7.6212 l 1.4800,3.7448 l 1.4800,2.8472 l 1.4800,-6.3157 l 1.4800,4.2888 l 1.4800,-5.5888 l 1.4800,4.3406 l 1.4800,-2.1248 l 1.4800,7.1396 l 1.4800,1.6612 l 1.4800,-2.4853 l 1.4800,-0.2401 "/></g><g stroke-linejoin="miter" stroke-opacity="0.5" fill-opacity="0.0" stroke="rgb(93,165,218)" stroke-width="1.9999999999999987" fill="rgb(0,0,0)" stroke-linecap="butt" stroke-miterlimit="10.0"><path d="M 31.5018,79.1009 l 1.4800,-4.2974 l 1.4800,1.1641 l 1.4800,-8.0182 l 1.4800,1.1194 l 1.4800,-6.8157 l 1.4800,11.0665 l 1.4800,-0.6084 l 1.4800,-5.4427 l 1.4800,-2.5077 l 1.4800,-1.2393 l 1.4800,3.9625 l 1.4800,-0.0634 l 1.4800,8.3132 l 1.4800,-5.4142 l 1.4800,3.7406 l 1.4800,-0.8805 l 1.4800,3.5401 l 1.4800,1.6799 l 1.4800,0.5486 l 1.4800,-7.2114 l 1.4800,3.1853 l 1.4800,4.5769 l 1.4800,11.3942 l 1.4800,6.8567 l 1.4800,-4.3893 l 1.4800,10.5418 l 1.4800,0.7688 l 1.4800,-1.9729 l 1.4800,-4.8881 l 1.4800,-1.3337 l 1.4800,4.3946 l 1.4800,-1.7527 l 1.4800,-0.6296 l 1.4800,-2.6906 l 1.4800,1.0359 l 1.4800,-4.3932 l 1.4800,-5.3944 l 1.4800,-2.9292 l 1.4800,-1.1774 l 1.4800,2.3233 l 1.4800,-0.0747 l 1.4800,-1.8485 l 1.4800,-3.1997 l 1.4800,6.4576 l 1.4800,9.5945 l 1.4800,-3.5582 l 1.4800,2.5677 l 1.4800,1.6867 l 1.4800,0.7282 l 1.4800,0.8320 l 1.4800,-1.1349 l 1.4800,1.2684 l 1.4800,5.9783 l 1.4800,-1.0073 l 1.4800,2.7940 l 1.4800,2.0631 l 1.4800,3.6772 l 1.4800,-1.7355 l 1.4800,4.3010 l 1.4800,2.6251 l 1.4800,5.0648 l 1.4800,6.0279 l 1.4800,-4.2130 l 1.4800,-3.8223 l 1.4800,-4.1677 l 1.4800,3.3868 l 1.4800,0.5003 l 1.4800,7.6432 l 1.4800,-4.2989 l 1.4800,1.1841 l 1.4800,4.2721 l 1.4800,5.0972 l 1.4800,-6.0022 l 1.4800,-4.0611 l 1.4800,-9.2676 l 1.4800,5.0212 l 1.4800,6.6693 l 1.4800,3.3354 l 1.4800,7.0069 l 1.4800,-5.1559 l 1.4800,4.0963 l 1.4800,-3.9032 l 1.4800,-5.6548 l 1.4800,-1.6314 l 1.4800,-2.1230 l 1.4800,-4.5995 l 1.4800,1.1470 l 1.4800,-6.6514 l 1.4800,-0.4670 l 1.4800,4.8927 l 1.4800,3.3717 l 1.4800,-1.2325 l 1.4800,7.0100 l 1.4800,-1.4034 l 1.4800,-2.1760 l 1.4800,2.9697 l 1.4800,-1.4833 l 1.4800,2.7413 l 1.4800,0.2164 "/></g><g stroke-linejoin="miter" stroke-opacity="0.5" fill-opacity="0.0" stroke="rgb(85,85,85)" stroke-width="1.9999999999999987" fill="rgb(0,0,0)" stroke-linecap="butt" stroke-miterlimit="10.0"><path d="M 31.5018,84.2853 l 1.4800,-2.3053 l 1.4800,4.4330 l 1.4800,9.1421 l 1.4800,-2.0403 l 1.4800,-1.3336 l 1.4800,2.3472 l 1.4800,7.5131 l 1.4800,-6.3199 l 1.4800,-2.5442 l 1.4800,-1.7839 l 1.4800,-1.7335 l 1.4800,5.0109 l 1.4800,1.7348 l 1.4800,0.6999 l 1.4800,4.0664 l 1.4800,-2.2088 l 1.4800,-5.2145 l 1.4800,6.2502 l 1.4800,4.3239 l 1.4800,-4.0305 l 1.4800,4.0374 l 1.4800,4.2577 l 1.4800,2.4866 l 1.4800,-0.7075 l 1.4800,10.9320 l 1.4800,7.7242 l 1.4800,-5.3152 l 1.4800,-9.0968 l 1.4800,0.8647 l 1.4800,1.5222 l 1.4800,-6.8567 l 1.4800,1.4862 l 1.4800,-1.1403 l 1.4800,8.0515 l 1.4800,3.7958 l 1.4800,7.2779 l 1.4800,6.3364 l 1.4800,-6.3877 l 1.4800,8.6122 l 1.4800,-0.4283 l 1.4800,-1.6451 l 1.4800,-3.0450 l 1.4800,-3.3186 l 1.4800,2.7328 l 1.4800,-1.0760 l 1.4800,0.6066 l 1.4800,5.6121 l 1.4800,-3.5516 l 1.4800,-7.2973 l 1.4800,7.1240 l 1.4800,-0.2400 l 1.4800,-5.4318 l 1.4800,1.3046 l 1.4800,-5.6904 l 1.4800,-0.9386 l 1.4800,-2.8127 l 1.4800,-6.8297 l 1.4800,-3.0266 l 1.4800,-3.6828 l 1.4800,3.1009 l 1.4800,4.6168 l 1.4800,-7.8422 l 1.4800,-8.3881 l 1.4800,-8.7670 l 1.4800,1.4822 l 1.4800,-2.5043 l 1.4800,4.0496 l 1.4800,1.8115 l 1.4800,6.6993 l 1.4800,4.1165 l 1.4800,-2.5027 l 1.4800,-2.7433 l 1.4800,0.3101 l 1.4800,-3.7235 l 1.4800,3.7649 l 1.4800,-1.8998 l 1.4800,2.5884 l 1.4800,-3.7966 l 1.4800,-1.8140 l 1.4800,-0.1786 l 1.4800,-3.5575 l 1.4800,7.0243 l 1.4800,2.5384 l 1.4800,-5.2574 l 1.4800,-3.5420 l 1.4800,-2.0316 l 1.4800,1.7496 l 1.4800,0.4870 l 1.4800,4.0992 l 1.4800,-0.3571 l 1.4800,-4.2176 l 1.4800,6.1739 l 1.4800,-4.0940 l 1.4800,5.8548 l 1.4800,5.6636 l 1.4800,-0.5648 l 1.4800,4.0894 l 1.4800,0.5070 l 1.4800,-4.3781 "/></g></svg>