<?xml version="1.0" encoding="UTF-8"?>
<!DOCTYPE svg PUBLIC "-//W3C//DTD SVG 1.1//EN"
    "http://www.w3.org/Graphics/SVG/1.1/DTD/svg11.dtd"><svg xmlns="http://www.w3.org/2000/svg" height="200.0000" stroke-opacity="1" viewBox="0 0 200 200" font-size="1" width="200.0000" xmlns:xlink="http://www.w3.org/1999/xlink" stroke="rgb(0,0,0)" version="1.1"><defs></defs><defs></defs><g stroke-linejoin="miter" stroke-opacity="0.0" fill-opacity="0.5" stroke="rgb(0,0,0)" stroke-width="0.0" fill="rgb(94,19,94)" stroke-linecap="butt" stroke-miterlimit="10.0"><path d="M 31.5018,168.4982 l -0.0000,-146.5201 h -2.9304 l -0.0000,146.5201 Z"/></g><defs></defs><g stroke-linejoin="miter" stroke-opacity="1.0" fill-opacity="0.7" font-size="5.86080586080586px" stroke="rgb(0,0,0)" stroke-width="0.8" fill="rgb(30,30,30)" stroke-linecap="butt" stroke-miterlimit="10.0"><text dominant-baseline="middle" transform="matrix(1.0000,0.0000,0.0000,1.0000,24.1758,21.9780)" stroke="none" text-anchor="end">10</text></g><defs></defs><g stroke-linejoin="miter" stroke-opacity="0.5" fill-opacity="0.0" stroke="rgb(0,102,200)" stroke-width="0.8" fill="rgb(0,0,0)" stroke-linecap="butt" stroke-miterlimit="10.0"><path d="M 27.1062,21.9780 h 2.9304 "/></g><defs></defs><g stroke-linejoin="miter" stroke-opacity="1.0" fill-opacity="0.7" font-size="5.86080586080586px" stroke="rgb(0,0,0)" stroke-width="0.8" fill="rgb(30,30,30)" stroke-linecap="butt" stroke-miterlimit="10.0"><text dominant-baseline="middle" transform="matrix(1.0000,0.0000,0.0000,1.0000,24.1758,42.9095)" stroke="none" text-anchor="end">8.0</text></g><defs></defs><g stroke-linejoin="miter" stroke-opacity="0.5" fill-opacity="0.0" stroke="rgb(0,102,200)" stroke-width="0.8" fill="rgb(0,0,0)" stroke-linecap="butt" stroke-miterlimit="10.0"><path d="M 27.1062,42.9095 h 2.9304 "/></g><defs></defs><g stroke-linejoin="miter" stroke-opacity="1.0" fill-opacity="0.7" font-size="5.86080586080586px" stroke="rgb(0,0,0)" stroke-width="0.8" fill="rgb(30,30,30)" stroke-linecap="butt" stroke-miterlimit="10.0"><text dominant-baseline="middle" transform="matrix(1.0000,0.0000,0.0000,1.0000,24.1758,63.8409)" stroke="none" text-anchor="end">6.0</text></g><defs></defs><g stroke-linejoin="miter" stroke-opacity="0.5" fill-opacity="0.0" stroke="rgb(0,102,200)" stroke-width="0.8" fill="rgb(0,0,0)" stroke-linecap="butt" stroke-miterlimit="10.0"><path d="M 27.1062,63.8409 h 2.9304 "/></g><defs></defs><g stroke-linejoin="miter" stroke-opacity="1.0" fill-opacity="0.7" font-size="5.86080586080586px" stroke="rgb(0,0,0)" stroke-width="0.8" fill="rgb(30,30,30)" stroke-linecap="butt" stroke-miterlimit="10.0"><text dominant-baseline="middle" transform="matrix(1.0000,0.0000,0.0000,1.0000,24.1758,84.7724)" stroke="none" text-anchor="end">4.0</text></g><defs></defs><g stroke-linejoin="miter" stroke-opacity="0.5" fill-opacity="0.0" stroke="rgb(0,102,200)" stroke-width="0.8" fill="rgb(0,0,0)" stroke-linecap="butt" stroke-miterlimit="10.0"><path d="M 27.1062,84.7724 h 2.9304 "/></g><defs></defs><g stroke-linejoin="miter" stroke-opacity="1.0" fill-opacity="0.7" font-size="5.86080586080586px" stroke="rgb(0,0,0)" stroke-width="0.8" fill="rgb(30,30,30)" stroke-linecap="butt" stroke-miterlimit="10.0"><text dominant-baseline="middle" transform="matrix(1.0000,0.0000,0.0000,1.0000,24.1758,105.7038)" stroke="none" text-anchor="end">2.0</text></g><defs></defs><g stroke-linejoin="miter" stroke-opacity="0.5" fill-opacity="0.0" stroke="rgb(0,102,200)" stroke-width="0.8" fill="rgb(0,0,0)" stroke-linecap="butt" stroke-miterlimit="10.0"><path d="M 27.1062,105.7038 h 2.9304 "/></g><defs></defs><g stroke-linejoin="miter" stroke-opacity="1.0" fill-opacity="0.7" font-size="5.86080586080586px" stroke="rgb(0,0,0)" stroke-width="0.8" fill="rgb(30,30,30)" stroke-linecap="butt" stroke-miterlimit="10.0"><text dominant-baseline="middle" transform="matrix(1.0000,0.0000,0.0000,1.0000,24.1758,126.6353)" stroke="none" text-anchor="end">0.0</text></g><defs></defs><g stroke-linejoin="miter" stroke-opacity="0.5" fill-opacity="0.0" stroke="rgb(0,102,200)" stroke-width="0.8" fill="rgb(0,0,0)" stroke-linecap="butt" stroke-miterlimit="10.0"><path d="M 27.1062,126.6353 h 2.9304 "/></g><defs></defs><g stroke-linejoin="miter" stroke-opacity="1.0" fill-opacity="0.7" font-size="5.86080586080586px" stroke="rgb(0,0,0)" stroke-width="0.8" fill="rgb(30,30,30)" stroke-linecap="butt" stroke-miterlimit="10.0"><text dominant-baseline="middle" transform="matrix(1.0000,0.0000,0.0000,1.0000,24.1758,147.5667)" stroke="none" text-anchor="end">-2.0</text></g><defs></defs><g stroke-linejoin="miter" stroke-opacity="0.5" fill-opacity="0.0" stroke="rgb(0,102,200)" stroke-width="0.8" fill="rgb(0,0,0)" stroke-linecap="butt" stroke-miterlimit="10.0"><path d="M 27.1062,147.5667 h 2.9304 "/></g><defs></defs><g stroke-linejoin="miter" stroke-opacity="1.0" fill-opacity="0.7" font-size="5.86080586080586px" stroke="rgb(0,0,0)" stroke-width="0.8" fill="rgb(30,30,30)" stroke-linecap="butt" stroke-miterlimit="10.0"><text dominant-baseline="middle" transform="matrix(1.0000,0.0000,0.0000,1.0000,24.1758,168.4982)" stroke="none" text-anchor="end">-4.0</text></g><defs></defs><g stroke-linejoin="miter" stroke-opacity="0.5" fill-opacity="0.0" stroke="rgb(0,102,200)" stroke-width="0.8" fill="rgb(0,0,0)" stroke-linecap="butt" stroke-miterlimit="10.0"><path d="M 27.1062,168.4982 h 2.9304 "/></g><defs></defs><g stroke-linejoin="miter" stroke-opacity="0.0" fill-opacity="0.5" stroke="rgb(0,0,0)" stroke-width="0.0" fill="rgb(94,19,94)" stroke-linecap="butt" stroke-miterlimit="10.0"><path d="M 178.0220,171.4286 l -0.0000,-2.9304 h -146.5201 l -0.0000,2.9304 Z"/></g><defs></defs><g stroke-linejoin="miter" stroke-opacity="1.0" fill-opacity="0.7" font-size="5.86080586080586px" stroke="rgb(0,0,0)" stroke-width="0.8" fill="rgb(30,30,30)" stroke-linecap="butt" stroke-miterlimit="10.0"><text dominant-baseline="text-before-edge" transform="matrix(1.0000,0.0000,0.0000,1.0000,178.0220,175.8242)" stroke="none" text-anchor="middle">35</text></g><defs></defs><g stroke-linejoin="miter" stroke-opacity="0.5" fill-opacity="0.0" stroke="rgb(0,102,200)" stroke-width="0.8" fill="rgb(0,0,0)" stroke-linecap="butt" stroke-miterlimit="10.0"><path d="M 178.0220,169.9634 v 2.9304 "/></g><defs></defs><g stroke-linejoin="miter" stroke-opacity="1.0" fill-opacity="0.7" font-size="5.86080586080586px" stroke="rgb(0,0,0)" stroke-width="0.8" fill="rgb(30,30,30)" stroke-linecap="butt" stroke-miterlimit="10.0"><text dominant-baseline="text-before-edge" transform="matrix(1.0000,0.0000,0.0000,1.0000,153.6020,175.8242)" stroke="none" text-anchor="middle">30</text></g><defs></defs><g stroke-linejoin="miter" stroke-opacity="0.5" fill-opacity="0.0" stroke="rgb(0,102,200)" stroke-width="0.8" fill="rgb(0,0,0)" stroke-linecap="butt" stroke-miterlimit="10.0"><path d="M 153.6020,169.9634 v 2.9304 "/></g><defs></defs><g stroke-linejoin="miter" stroke-opacity="1.0" fill-opacity="0.7" font-size="5.86080586080586px" stroke="rgb(0,0,0)" stroke-width="0.8" fill="rgb(30,30,30)" stroke-linecap="butt" stroke-miterlimit="10.0"><text dominant-baseline="text-before-edge" transform="matrix(1.0000,0.0000,0.0000,1.0000,129.1819,175.8242)" stroke="none" text-anchor="middle">25</text></g><defs></defs><g stroke-linejoin="miter" stroke-opacity="0.5" fill-opacity="0.0" stroke="rgb(0,102,200)" stroke-width="0.8" fill="rgb(0,0,0)" stroke-linecap="butt" stroke-miterlimit="10.0"><path d="M 129.1819,169.9634 v 2.9304 "/></g><defs></defs><g stroke-linejoin="miter" stroke-opacity="1.0" fill-opacity="0.7" font-size="5.86080586080586px" stroke="rgb(0,0,0)" stroke-width="0.8" fill="rgb(30,30,30)" stroke-linecap="butt" stroke-miterlimit="10.0"><text dominant-baseline="text-before-edge" transform="matrix(1.0000,0.0000,0.0000,1.0000,104.7619,175.8242)" stroke="none" text-anchor="middle">20</text></g><defs></defs><g stroke-linejoin="miter" stroke-opacity="0.5" fill-opacity="0.0" stroke="rgb(0,102,200)" stroke-width="0.8" fill="rgb(0,0,0)" stroke-linecap="butt" stroke-miterlimit="10.0"><path d="M 104.7619,169.9634 v 2.9304 "/></g><defs></defs><g stroke-linejoin="miter" stroke-opacity="1.0" fill-opacity="0.7" font-size="5.86080586080586px" stroke="rgb(0,0,0)" stroke-width="0.8" fill="rgb(30,30,30)" stroke-linecap="butt" stroke-miterlimit="10.0"><text dominant-baseline="text-before-edge" transform="matrix(1.0000,0.0000,0.0000,1.0000,80.3419,175.8242)" stroke="none" text-anchor="middle">15</text></g><defs></defs><g stroke-linejoin="miter" stroke-opacity="0.5" fill-opacity="0.0" stroke="rgb(0,102,200)" stroke-width="0.8" fill="rgb(0,0,0)" stroke-linecap="butt" stroke-miterlimit="10.0"><path d="M 80.3419,169.9634 v 2.9304 "/></g><defs></defs><g stroke-linejoin="miter" stroke-opacity="1.0" fill-opacity="0.7" font-size="5.86080586080586px" stroke="rgb(0,0,0)" stroke-width="0.8" fill="rgb(30,30,30)" stroke-linecap="butt" stroke-miterlimit="10.0"><text dominant-baseline="text-before-edge" transform="matrix(1.0000,0.0000,0.0000,1.0000,55.9219,175.8242)" stroke="none" text-anchor="middle">10</text></g><defs></defs><g stroke-linejoin="miter" stroke-opacity="0.5" fill-opacity="0.0" stroke="rgb(0,102,200)" stroke-width="0.8" fill="rgb(0,0,0)" stroke-linecap="butt" stroke-miterlimit="10.0"><path d="M 55.9219,169.9634 v 2.9304 "/></g><defs></defs><g stroke-linejoin="miter" stroke-opacity="1.0" fill-opacity="0.7" font-size="5.86080586080586px" stroke="rgb(0,0,0)" stroke-width="0.8" fill="rgb(30,30,30)" stroke-linecap="butt" stroke-miterlimit="10.0"><text dominant-baseline="text-before-edge" transform="matrix(1.0000,0.0000,0.0000,1.0000,31.5018,175.8242)" stroke="none" text-anchor="middle">5.0</text></g><defs></defs><g stroke-linejoin="miter" stroke-opacity="0.5" fill-opacity="0.0" stroke="rgb(0,102,200)" stroke-width="0.8" fill="rgb(0,0,0)" stroke-linecap="butt" stroke-miterlimit="10.0"><path d="M 31.5018,169.9634 v 2.9304 "/></g><defs></defs><g stroke-linejoin="miter" stroke-opacity="1.0" fill-opacity="0.0" stroke="rgb(0,255,255)" stroke-width="0.4" fill="rgb(0,0,0)" stroke-linecap="butt" stroke-miterlimit="10.0"><path d="M 31.5018,112.8700 l 3.7569,-2.4192 l 3.7569,-1.4136 l 3.7569,2.2315 l 3.7569,18.4366 l 3.7569,-7.0081 l 3.7569,1.4977 l 3.7569,-6.9413 l 3.7569,11.1998 l 3.7569,-16.8210 l 3.7569,-4.8074 l 3.7569,9.8552 l 3.7569,12.2791 l 3.7569,-1.7032 l 3.7569,-3.4538 l 3.7569,-13.9355 l 3.7569,-3.0790 l 3.7569,-2.1529 l 3.7569,-13.9591 l 3.7569,-8.7880 l 3.7569,-11.0683 l 3.7569,7.2673 l 3.7569,19.3258 l 3.7569,-11.3900 l 3.7569,8.0321 l 3.7569,-13.9469 l 3.7569,13.4743 l 3.7569,11.3631 l 3.7569,-5.8020 l 3.7569,-4.8079 l 3.7569,1.9627 l 3.7569,3.5029 l 3.7569,2.2594 l 3.7569,-17.8425 l 3.7569,5.8991 l 3.7569,-1.7601 l 3.7569,-2.1374 l 3.7569,-0.7166 l 3.7569,-7.9373 l 3.7569,-16.7950 "/></g><defs></defs><g stroke-linejoin="miter" stroke-opacity="1.0" fill-opacity="0.0" stroke="rgb(128,0,255)" stroke-width="0.4" fill="rgb(0,0,0)" stroke-linecap="butt" stroke-miterlimit="10.0"><path d="M 31.5018,153.7802 l 3.7569,10.3377 l 3.7569,0.9871 l 3.7569,-2.7869 l 3.7569,-17.0657 l 3.7569,22.6137 l 3.7569,-1.5259 l 3.7569,-9.9808 l 3.7569,5.1474 l 3.7569,3.8180 l 3.7569,3.1733 l 3.7569,-12.5628 l 3.7569,-2.4930 l 3.7569,0.0710 l 3.7569,-13.8110 l 3.7569,-32.5804 l 3.7569,-13.0850 l 3.7569,0.9716 l 3.7569,12.7324 l 3.7569,-0.9469 l 3.7569,-18.2285 l 3.7569,-12.0210 l 3.7569,-6.6182 l 3.7569,-0.8765 l 3.7569,5.7998 l 3.7569,-17.9774 l 3.7569,-7.0120 l 3.7569,-7.8056 l 3.7569,7.8658 l 3.7569,-11.0185 l 3.7569,-15.5580 l 3.7569,-1.3660 l 3.7569,0.4198 l 3.7569,25.3654 l 3.7569,6.7196 l 3.7569,0.8151 l 3.7569,-2.8451 l 3.7569,-0.2838 l 3.7569,11.1905 l 3.7569,19.0964 "/></g><defs></defs><g stroke-linejoin="miter" stroke-opacity="1.0" fill-opacity="0.0" stroke="rgb(255,128,0)" stroke-width="0.4" fill="rgb(0,0,0)" stroke-linecap="butt" stroke-miterlimit="10.0"><path d="M 31.5018,144.7919 l 3.7569,15.8813 l 3.7569,-23.9255 l 3.7569,-18.5704 l 3.7569,-14.5710 l 3.7569,-4.1957 l 3.7569,-17.3537 l 3.7569,1.1894 l 3.7569,13.9812 l 3.7569,-0.6137 l 3.7569,-10.8531 l 3.7569,-22.1417 l 3.7569,3.6601 l 3.7569,-19.9575 l 3.7569,8.6037 l 3.7569,-3.8605 l 3.7569,-10.6725 l 3.7569,7.4447 l 3.7569,-12.7716 l 3.7569,11.4017 l 3.7569,0.5072 l 3.7569,10.1947 l 3.7569,1.6163 l 3.7569,-19.1793 l 3.7569,1.4863 l 3.7569,-3.1026 l 3.7569,-9.1867 l 3.7569,19.3627 l 3.7569,-12.4244 l 3.7569,25.7233 l 3.7569,19.8791 l 3.7569,-14.8974 l 3.7569,13.6192 l 3.7569,22.3881 l 3.7569,-11.8451 l 3.7569,31.1569 l 3.7569,-13.4268 l 3.7569,-4.1859 l 3.7569,12.7869 l 3.7569,-3.8360 "/></g><defs></defs><g stroke-linejoin="miter" stroke-opacity="1.0" fill-opacity="0.0" stroke="rgb(0,128,255)" stroke-width="0.4" fill="rgb(0,0,0)" stroke-linecap="butt" stroke-miterlimit="10.0"><path d="M 31.5018,149.0949 l 3.7569,4.9544 l 3.7569,-4.7509 l 3.7569,-20.6689 l 3.7569,-3.2481 l 3.7569,-21.4570 l 3.7569,-20.2076 l 3.7569,-25.9205 l 3.7569,-2.9764 l 3.7569,-8.2071 l 3.7569,-10.1860 l 3.7569,4.7656 l 3.7569,7.5143 l 3.7569,11.0856 l 3.7569,-2.1339 l 3.7569,4.3118 l 3.7569,-9.7199 l 3.7569,23.1218 l 3.7569,-3.4031 l 3.7569,7.3708 l 3.7569,-3.3295 l 3.7569,-3.5571 l 3.7569,-6.9070 l 3.7569,11.4778 l 3.7569,18.1792 l 3.7569,-0.3900 l 3.7569,-0.7617 l 3.7569,16.7739 l 3.7569,-8.9980 l 3.7569,21.1555 l 3.7569,-25.7401 l 3.7569,-5.9146 l 3.7569,13.1367 l 3.7569,19.5211 l 3.7569,20.5112 l 3.7569,-10.7860 l 3.7569,-9.4675 l 3.7569,-22.6098 l 3.7569,-5.3730 l 3.7569,8.6654 "/></g><defs></defs><g stroke-linejoin="miter" stroke-opacity="1.0" fill-opacity="0.0" stroke="rgb(60,90,150)" stroke-width="0.4" fill="rgb(0,0,0)" stroke-linecap="butt" stroke-miterlimit="10.0"><path d="M 31.5018,93.1904 l 3.7569,-7.9657 l 3.7569,-23.3482 l 3.7569,-6.9538 l 3.7569,17.6323 l 3.7569,17.9290 l 3.7569,4.1205 l 3.7569,17.6080 l 3.7569,-4.9314 l 3.7569,-10.3168 l 3.7569,-22.4093 l 3.7569,13.6958 l 3.7569,13.2050 l 3.7569,7.4864 l 3.7569,2.0967 l 3.7569,-11.5463 l 3.7569,-7.6801 l 3.7569,1.9084 l 3.7569,-4.4640 l 3.7569,8.3393 l 3.7569,-1.5893 l 3.7569,-3.4260 l 3.7569,-3.0573 l 3.7569,-3.7028 l 3.7569,14.3880 l 3.7569,6.9041 l 3.7569,-8.2472 l 3.7569,17.9822 l 3.7569,13.7876 l 3.7569,-12.5015 l 3.7569,2.8722 l 3.7569,-3.2932 l 3.7569,-10.1193 l 3.7569,4.1313 l 3.7569,5.8766 l 3.7569,0.8082 l 3.7569,17.1434 l 3.7569,-12.3831 l 3.7569,-13.2780 l 3.7569,-3.6215 "/></g></svg>