<?xml version="1.0" encoding="UTF-8"?>
<!DOCTYPE svg PUBLIC "-//W3C//DTD SVG 1.1//EN"
    "http://www.w3.org/Graphics/SVG/1.1/DTD/svg11.dtd"><svg xmlns="http://www.w3.org/2000/svg" height="200.0000" stroke-opacity="1" viewBox="0 0 200 200" font-size="1" width="200.0000" xmlns:xlink="http://www.w3.org/1999/xlink" stroke="rgb(0,0,0)" version="1.1"><defs></defs><g stroke-linejoin="miter" stroke-opacity="0.0" fill-opacity="0.5" stroke="rgb(0,0,0)" stroke-width="0.0" fill="rgb(102,26,102)" stroke-linecap="butt" stroke-miterlimit="10.0"><path d="M 31.5018,168.4982 l -0.0000,-146.5201 h -2.9304 l -0.0000,146.5201 Z"/></g><g stroke-linejoin="miter" stroke-opacity="1.0" fill-opacity="0.7" font-size="5.860805860805852px" stroke="rgb(0,0,0)" stroke-width="0.7999999999999995" fill="rgb(51,51,51)" stroke-linecap="butt" stroke-miterlimit="10.0"><text dominant-baseline="middle" transform="matrix(1.0000,0.0000,0.0000,1.0000,24.1758,33.8222)" stroke="none" text-anchor="end">15</text></g><g stroke-linejoin="miter" stroke-opacity="0.5" fill-opacity="0.0" stroke="rgb(26,102,204)" stroke-width="0.7999999999999995" fill="rgb(0,0,0)" stroke-linecap="butt" stroke-miterlimit="10.0"><path d="M 27.1062,33.8222 h 2.9304 "/></g><g stroke-linejoin="miter" stroke-opacity="1.0" fill-opacity="0.7" font-size="5.860805860805852px" stroke="rgb(0,0,0)" stroke-width="0.7999999999999995" fill="rgb(51,51,51)" stroke-linecap="butt" stroke-miterlimit="10.0"><text dominant-baseline="middle" transform="matrix(1.0000,0.0000,0.0000,1.0000,24.1758,55.8248)" stroke="none" text-anchor="end">10</text></g><g stroke-linejoin="miter" stroke-opacity="0.5" fill-opacity="0.0" stroke="rgb(26,102,204)" stroke-width="0.7999999999999995" fill="rgb(0,0,0)" stroke-linecap="butt" stroke-miterlimit="10.0"><path d="M 27.1062,55.8248 h 2.9304 "/></g><g stroke-linejoin="miter" stroke-opacity="1.0" fill-opacity="0.7" font-size="5.860805860805852px" stroke="rgb(0,0,0)" stroke-width="0.7999999999999995" fill="rgb(51,51,51)" stroke-linecap="butt" stroke-miterlimit="10.0"><text dominant-baseline="middle" transform="matrix(1.0000,0.0000,0.0000,1.0000,24.1758,77.8273)" stroke="none" text-anchor="end">5.0</text></g><g stroke-linejoin="miter" stroke-opacity="0.5" fill-opacity="0.0" stroke="rgb(26,102,204)" stroke-width="0.7999999999999995" fill="rgb(0,0,0)" stroke-linecap="butt" stroke-miterlimit="10.0"><path d="M 27.1062,77.8273 h 2.9304 "/></g><g stroke-linejoin="miter" stroke-opacity="1.0" fill-opacity="0.7" font-size="5.860805860805852px" stroke="rgb(0,0,0)" stroke-width="0.7999999999999995" fill="rgb(51,51,51)" stroke-linecap="butt" stroke-miterlimit="10.0"><text dominant-baseline="middle" transform="matrix(1.0000,0.0000,0.0000,1.0000,24.1758,99.8299)" stroke="none" text-anchor="end">0.0</text></g><g stroke-linejoin="miter" stroke-opacity="0.5" fill-opacity="0.0" stroke="rgb(26,102,204)" stroke-width="0.7999999999999995" fill="rgb(0,0,0)" stroke-linecap="butt" stroke-miterlimit="10.0"><path d="M 27.1062,99.8299 h 2.9304 "/></g><g stroke-linejoin="miter" stroke-opacity="1.0" fill-opacity="0.7" font-size="5.860805860805852px" stroke="rgb(0,0,0)" stroke-width="0.7999999999999995" fill="rgb(51,51,51)" stroke-linecap="butt" stroke-miterlimit="10.0"><text dominant-baseline="middle" transform="matrix(1.0000,0.0000,0.0000,1.0000,24.1758,121.8325)" stroke="none" text-anchor="end">-5.0</text></g><g stroke-linejoin="miter" stroke-opacity="0.5" fill-opacity="0.0" stroke="rgb(26,102,204)" stroke-width="0.7999999999999995" fill="rgb(0,0,0)" stroke-linecap="butt" stroke-miterlimit="10.0"><path d="M 27.1062,121.8325 h 2.9304 "/></g><g stroke-linejoin="miter" stroke-opacity="1.0" fill-opacity="0.7" font-size="5.860805860805852px" stroke="rgb(0,0,0)" stroke-width="0.7999999999999995" fill="rgb(51,51,51)" stroke-linecap="butt" stroke-miterlimit="10.0"><text dominant-baseline="middle" transform="matrix(1.0000,0.0000,0.0000,1.0000,24.1758,143.8351)" stroke="none" text-anchor="end">-10</text></g><g stroke-linejoin="miter" stroke-opacity="0.5" fill-opacity="0.0" stroke="rgb(26,102,204)" stroke-width="0.7999999999999995" fill="rgb(0,0,0)" stroke-linecap="butt" stroke-miterlimit="10.0"><path d="M 27.1062,143.8351 h 2.9304 "/></g><g stroke-linejoin="miter" stroke-opacity="1.0" fill-opacity="0.7" font-size="5.860805860805852px" stroke="rgb(0,0,0)" stroke-width="0.7999999999999995" fill="rgb(51,51,51)" stroke-linecap="butt" stroke-miterlimit="10.0"><text dominant-baseline="middle" transform="matrix(1.0000,0.0000,0.0000,1.0000,24.1758,165.8377)" stroke="none" text-anchor="end">-15</text></g><g stroke-linejoin="miter" stroke-opacity="0.5" fill-opacity="0.0" stroke="rgb(26,102,204)" stroke-width="0.7999999999999995" fill="rgb(0,0,0)" stroke-linecap="butt" stroke-miterlimit="10.0"><path d="M 27.1062,165.8377 h 2.9304 "/></g><g stroke-linejoin="miter" stroke-opacity="0.0" fill-opacity="0.5" stroke="rgb(0,0,0)" stroke-width="0.0" fill="rgb(102,26,102)" stroke-linecap="butt" stroke-miterlimit="10.0"><path d="M 178.0220,171.4286 l -0.0000,-2.9304 h -146.5201 l -0.0000,2.9304 Z"/></g><g stroke-linejoin="miter" stroke-opacity="1.0" fill-opacity="0.7" font-size="5.860805860805852px" stroke="rgb(0,0,0)" stroke-width="0.7999999999999995" fill="rgb(51,51,51)" stroke-linecap="butt" stroke-miterlimit="10.0"><text dominant-baseline="text-before-edge" transform="matrix(1.0000,0.0000,0.0000,1.0000,164.7020,175.8242)" stroke="none" text-anchor="middle">90</text></g><g stroke-linejoin="miter" stroke-opacity="0.5" fill-opacity="0.0" stroke="rgb(26,102,204)" stroke-width="0.7999999999999995" fill="rgb(0,0,0)" stroke-linecap="butt" stroke-miterlimit="10.0"><path d="M 164.7020,169.9634 v 2.9304 "/></g><g stroke-linejoin="miter" stroke-opacity="1.0" fill-opacity="0.7" font-size="5.860805860805852px" stroke="rgb(0,0,0)" stroke-width="0.7999999999999995" fill="rgb(51,51,51)" stroke-linecap="butt" stroke-miterlimit="10.0"><text dominant-baseline="text-before-edge" transform="matrix(1.0000,0.0000,0.0000,1.0000,149.9019,175.8242)" stroke="none" text-anchor="middle">80</text></g><g stroke-linejoin="miter" stroke-opacity="0.5" fill-opacity="0.0" stroke="rgb(26,102,204)" stroke-width="0.7999999999999995" fill="rgb(0,0,0)" stroke-linecap="butt" stroke-miterlimit="10.0"><path d="M 149.9019,169.9634 v 2.9304 "/></g><g stroke-linejoin="miter" stroke-opacity="1.0" fill-opacity="0.7" font-size="5.860805860805852px" stroke="rgb(0,0,0)" stroke-width="0.7999999999999995" fill="rgb(51,51,51)" stroke-linecap="butt" stroke-miterlimit="10.0"><text dominant-baseline="text-before-edge" transform="matrix(1.0000,0.0000,0.0000,1.0000,135.1019,175.8242)" stroke="none" text-anchor="middle">70</text></g><g stroke-linejoin="miter" stroke-opacity="0.5" fill-opacity="0.0" stroke="rgb(26,102,204)" stroke-width="0.7999999999999995" fill="rgb(0,0,0)" stroke-linecap="butt" stroke-miterlimit="10.0"><path d="M 135.1019,169.9634 v 2.9304 "/></g><g stroke-linejoin="miter" stroke-opacity="1.0" fill-opacity="0.7" font-size="5.860805860805852px" stroke="rgb(0,0,0)" stroke-width="0.7999999999999995" fill="rgb(51,51,51)" stroke-linecap="butt" stroke-miterlimit="10.0"><text dominant-baseline="text-before-edge" transform="matrix(1.0000,0.0000,0.0000,1.0000,120.3019,175.8242)" stroke="none" text-anchor="middle">60</text></g><g stroke-linejoin="miter" stroke-opacity="0.5" fill-opacity="0.0" stroke="rgb(26,102,204)" stroke-width="0.7999999999999995" fill="rgb(0,0,0)" stroke-linecap="butt" stroke-miterlimit="10.0"><path d="M 120.3019,169.9634 v 2.9304 "/></g><g stroke-linejoin="miter" stroke-opacity="1.0" fill-opacity="0.7" font-size="5.860805860805852px" stroke="rgb(0,0,0)" stroke-width="0.7999999999999995" fill="rgb(51,51,51)" stroke-linecap="butt" stroke-miterlimit="10.0"><text dominant-baseline="text-before-edge" transform="matrix(1.0000,0.0000,0.0000,1.0000,105.5019,175.8242)" stroke="none" text-anchor="middle">50</text></g><g stroke-linejoin="miter" stroke-opacity="0.5" fill-opacity="0.0" stroke="rgb(26,102,204)" stroke-width="0.7999999999999995" fill="rgb(0,0,0)" stroke-linecap="butt" stroke-miterlimit="10.0"><path d="M 105.5019,169.9634 v 2.9304 "/></g><g stroke-linejoin="miter" stroke-opacity="1.0" fill-opacity="0.7" font-size="5.860805860805852px" stroke="rgb(0,0,0)" stroke-width="0.7999999999999995" fill="rgb(51,51,51)" stroke-linecap="butt" stroke-miterlimit="10.0"><text dominant-baseline="text-before-edge" transform="matrix(1.0000,0.0000,0.0000,1.0000,90.7019,175.8242)" stroke="none" text-anchor="middle">40</text></g><g stroke-linejoin="miter" stroke-opacity="0.5" fill-opacity="0.0" stroke="rgb(26,102,204)" stroke-width="0.7999999999999995" fill="rgb(0,0,0)" stroke-linecap="butt" stroke-miterlimit="10.0"><path d="M 90.7019,169.9634 v 2.9304 "/></g><g stroke-linejoin="miter" stroke-opacity="1.0" fill-opacity="0.7" font-size="5.860805860805852px" stroke="rgb(0,0,0)" stroke-width="0.7999999999999995" fill="rgb(51,51,51)" stroke-linecap="butt" stroke-miterlimit="10.0"><text dominant-baseline="text-before-edge" transform="matrix(1.0000,0.0000,0.0000,1.0000,75.9019,175.8242)" stroke="none" text-anchor="middle">30</text></g><g stroke-linejoin="miter" stroke-opacity="0.5" fill-opacity="0.0" stroke="rgb(26,102,204)" stroke-width="0.7999999999999995" fill="rgb(0,0,0)" stroke-linecap="butt" stroke-miterlimit="10.0"><path d="M 75.9019,169.9634 v 2.9304 "/></g><g stroke-linejoin="miter" stroke-opacity="1.0" fill-opacity="0.7" font-size="5.860805860805852px" stroke="rgb(0,0,0)" stroke-width="0.7999999999999995" fill="rgb(51,51,51)" stroke-linecap="butt" stroke-miterlimit="10.0"><text dominant-baseline="text-before-edge" transform="matrix(1.0000,0.0000,0.0000,1.0000,61.1019,175.8242)" stroke="none" text-anchor="middle">20</text></g><g stroke-linejoin="miter" stroke-opacity="0.5" fill-opacity="0.0" stroke="rgb(26,102,204)" stroke-width="0.7999999999999995" fill="rgb(0,0,0)" stroke-linecap="butt" stroke-miterlimit="10.0"><path d="M 61.1019,169.9634 v 2.9304 "/></g><g stroke-linejoin="miter" stroke-opacity="1.0" fill-opacity="0.7" font-size="5.860805860805852px" stroke="rgb(0,0,0)" stroke-width="0.7999999999999995" fill="rgb(51,51,51)" stroke-linecap="butt" stroke-miterlimit="10.0"><text dominant-baseline="text-before-edge" transform="matrix(1.0000,0.0000,0.0000,1.0000,46.3018,175.8242)" stroke="none" text-anchor="middle">10</text></g><g stroke-linejoin="miter" stroke-opacity="0.5" fill-opacity="0.0" stroke="rgb(26,102,204)" stroke-width="0.7999999999999995" fill="rgb(0,0,0)" stroke-linecap="butt" stroke-miterlimit="10.0"><path d="M 46.3018,169.9634 v 2.9304 "/></g><g stroke-linejoin="miter" stroke-opacity="1.0" fill-opacity="0.7" font-size="5.860805860805852px" stroke="rgb(0,0,0)" stroke-width="0.7999999999999995" fill="rgb(51,51,51)" stroke-linecap="butt" stroke-miterlimit="10.0"><text dominant-baseline="text-before-edge" transform="matrix(1.0000,0.0000,0.0000,1.0000,31.5018,175.8242)" stroke="none" text-anchor="middle">0.0</text></g><g stroke-linejoin="miter" stroke-opacity="0.5" fill-opacity="0.0" stroke="rgb(26,102,204)" stroke-width="0.7999999999999995" fill="rgb(0,0,0)" stroke-linecap="butt" stroke-miterlimit="10.0"><path d="M 31.5018,169.9634 v 2.9304 "/></g><g stroke-linejoin="miter" stroke-opacity="0.5" fill-opacity="0.0" stroke="rgb(241,124,176)" stroke-width="1.9999999999999987" fill="rgb(0,0,0)" stroke-linecap="butt" stroke-miterlimit="10.0"><path d="M 31.5018,101.6820 l 1.4800,-4.9623 l 1.4800,-3.5044 l 1.4800,-3.6594 l 1.4800,5.6064 l 1.4800,4.1368 l 1.4800,1.3724 l 1.4800,-3.4549 l 1.4800,-6.5105 l 1.4800,2.0731 l 1.4800,1.5692 l 1.4800,-2.2680 l 1.4800,7.2588 l 1.4800,-8.9498 l 1.4800,0.5033 l 1.4800,8.2621 l 1.4800,1.0990 l 1.4800,1.8065 l 1.4800,-4.8813 l 1.4800,0.4761 l 1.4800,-8.9778 l 1.4800,3.8810 l 1.4800,4.1713 l 1.4800,-5.2814 l 1.4800,-4.8361 l 1.4800,2.7489 l 1.4800,2.2212 l 1.4800,-0.6123 l 1.4800,0.4230 l 1.4800,0.7238 l 1.4800,4.0558 l 1.4800,-3.7979 l 1.4800,-5.3777 l 1.4800,-2.3566 l 1.4800,1.5799 l 1.4800,1.7932 l 1.4800,8.6776 l 1.4800,-3.4397 l 1.4800,-1.0429 l 1.4800,-3.9234 l 1.4800,-5.3569 l 1.4800,-7.5359 l 1.4800,4.9921 l 1.4800,3.0661 l 1.4800,-7.2047 l 1.4800,-0.7203 l 1.4800,-7.9768 l 1.4800,-1.9070 l 1.4800,4.3816 l 1.4800,-0.3301 l 1.4800,-1.0170 l 1.4800,3.4659 l 1.4800,-0.8314 l 1.4800,3.8154 l 1.4800,-2.3311 l 1.4800,1.0057 l 1.4800,4.4153 l 1.4800,7.2986 l 1.4800,5.5971 l 1.4800,-0.5983 l 1.4800,-5.4173 l 1.4800,-0.8455 l 1.4800,-1.5828 l 1.4800,-1.6996 l 1.4800,1.1248 l 1.4800,-5.3049 l 1.4800,-7.7472 l 1.4800,-1.0382 l 1.4800,1.1091 l 1.4800,-2.2566 l 1.4800,3.0917 l 1.4800,-4.1749 l 1.4800,-3.1447 l 1.4800,-1.1932 l 1.4800,-1.2274 l 1.4800,0.4519 l 1.4800,-0.3121 l 1.4800,-4.5805 l 1.4800,-3.1200 l 1.4800,-0.8214 l 1.4800,-0.9075 l 1.4800,-3.8147 l 1.4800,0.0588 l 1.4800,-8.3771 l 1.4800,-8.2628 l 1.4800,0.5098 l 1.4800,-2.8101 l 1.4800,-2.0933 l 1.4800,-1.0755 l 1.4800,1.6969 l 1.4800,-1.7813 l 1.4800,-1.9107 l 1.4800,2.1884 l 1.4800,0.7675 l 1.4800,-4.0348 l 1.4800,4.7627 l 1.4800,1.3409 l 1.4800,6.4476 l 1.4800,-3.8515 l 1.4800,-0.7691 "/></g><g stroke-linejoin="miter" stroke-opacity="0.5" fill-opacity="0.0" stroke="rgb(96,189,104)" stroke-width="1.9999999999999987" fill="rgb(0,0,0)" stroke-linecap="butt" stroke-miterlimit="10.0"><path d="M 31.5018,97.0567 l 1.4800,-3.8004 l 1.4800,5.6288 l 1.4800,6.3928 l 1.4800,-1.3283 l 1.4800,-1.8571 l 1.4800,-3.2526 l 1.4800,0.2931 l 1.4800,-6.5514 l 1.4800,6.7312 l 1.4800,-2.5227 l 1.4800,-6.4234 l 1.4800,-6.0519 l 1.4800,-3.4420 l 1.4800,-0.0668 l 1.4800,1.2519 l 1.4800,1.1191 l 1.4800,0.9712 l 1.4800,-4.9305 l 1.4800,6.9591 l 1.4800,-6.2618 l 1.4800,0.1786 l 1.4800,-4.5903 l 1.4800,-0.7199 l 1.4800,1.7556 l 1.4800,-6.0924 l 1.4800,8.8496 l 1.4800,-6.9702 l 1.4800,-0.5231 l 1.4800,10.5343 l 1.4800,-10.7879 l 1.4800,3.8566 l 1.4800,6.5470 l 1.4800,0.4116 l 1.4800,3.4225 l 1.4800,-4.4315 l 1.4800,-5.4209 l 1.4800,4.0454 l 1.4800,7.3115 l 1.4800,2.7683 l 1.4800,-9.9353 l 1.4800,1.0703 l 1.4800,-0.6282 l 1.4800,7.2508 l 1.4800,0.4781 l 1.4800,6.1926 l 1.4800,3.9252 l 1.4800,-1.0224 l 1.4800,-0.1100 l 1.4800,4.3026 l 1.4800,-4.8395 l 1.4800,-8.9300 l 1.4800,-3.6202 l 1.4800,-0.6246 l 1.4800,5.5569 l 1.4800,0.4459 l 1.4800,-4.1461 l 1.4800,-2.2871 l 1.4800,0.5814 l 1.4800,-0.3090 l 1.4800,-4.4954 l 1.4800,3.8013 l 1.4800,3.3959 l 1.4800,-5.1209 l 1.4800,-4.2429 l 1.4800,1.0821 l 1.4800,0.5163 l 1.4800,-2.9983 l 1.4800,3.8700 l 1.4800,-6.0856 l 1.4800,-5.6597 l 1.4800,-4.8864 l 1.4800,2.3834 l 1.4800,2.9697 l 1.4800,0.7599 l 1.4800,0.6817 l 1.4800,2.2663 l 1.4800,-0.2602 l 1.4800,-3.3760 l 1.4800,-5.3395 l 1.4800,-2.3155 l 1.4800,2.9128 l 1.4800,-3.6985 l 1.4800,-2.3650 l 1.4800,-0.6111 l 1.4800,6.4076 l 1.4800,-0.7126 l 1.4800,5.2567 l 1.4800,0.5125 l 1.4800,-5.6386 l 1.4800,3.5490 l 1.4800,3.9444 l 1.4800,-0.5035 l 1.4800,-5.1468 l 1.4800,-6.3980 l 1.4800,1.1653 l 1.4800,5.0182 l 1.4800,-1.3957 l 1.4800,-10.7563 l 1.4800,1.1151 "/></g><g stroke-linejoin="miter" stroke-opacity="0.5" fill-opacity="0.0" stroke="rgb(250,165,218)" stroke-width="1.9999999999999987" fill="rgb(0,0,0)" stroke-linecap="butt" stroke-miterlimit="10.0"><path d="M 31.5018,100.9623 l 1.4800,-0.1123 l 1.4800,-4.4503 l 1.4800,1.2140 l 1.4800,-0.1160 l 1.4800,-3.7662 l 1.4800,3.2924 l 1.4800,0.7990 l 1.4800,-6.2483 l 1.4800,7.2314 l 1.4800,4.3406 l 1.4800,-4.2428 l 1.4800,-5.4645 l 1.4800,1.8482 l 1.4800,0.5332 l 1.4800,-6.2287 l 1.4800,-1.6579 l 1.4800,1.4327 l 1.4800,0.3873 l 1.4800,3.0683 l 1.4800,-7.6836 l 1.4800,7.3626 l 1.4800,-2.0196 l 1.4800,-6.6119 l 1.4800,6.6505 l 1.4800,-2.9404 l 1.4800,-3.1768 l 1.4800,0.9930 l 1.4800,6.2481 l 1.4800,0.2833 l 1.4800,0.8437 l 1.4800,2.9173 l 1.4800,1.4760 l 1.4800,-2.7382 l 1.4800,6.6363 l 1.4800,4.9301 l 1.4800,7.7483 l 1.4800,3.0618 l 1.4800,-9.3907 l 1.4800,3.3275 l 1.4800,-11.2349 l 1.4800,-1.1814 l 1.4800,-0.4846 l 1.4800,8.8443 l 1.4800,6.6570 l 1.4800,5.5103 l 1.4800,8.6088 l 1.4800,-4.1040 l 1.4800,-5.0475 l 1.4800,-5.4098 l 1.4800,4.7846 l 1.4800,-7.4627 l 1.4800,-0.3847 l 1.4800,5.2719 l 1.4800,-4.7093 l 1.4800,1.3001 l 1.4800,2.2404 l 1.4800,1.4406 l 1.4800,-6.5856 l 1.4800,2.3234 l 1.4800,-7.8439 l 1.4800,-6.0050 l 1.4800,-2.9929 l 1.4800,-4.4534 l 1.4800,3.4503 l 1.4800,-4.6965 l 1.4800,-3.4113 l 1.4800,1.1726 l 1.4800,-1.4602 l 1.4800,-4.2027 l 1.4800,-1.5795 l 1.4800,-1.4909 l 1.4800,-4.7592 l 1.4800,2.0135 l 1.4800,-0.6261 l 1.4800,2.1421 l 1.4800,1.9126 l 1.4800,8.9071 l 1.4800,-11.2058 l 1.4800,-1.1287 l 1.4800,2.1164 l 1.4800,-8.7276 l 1.4800,-0.6350 l 1.4800,-3.3493 l 1.4800,-3.4729 l 1.4800,2.1343 l 1.4800,6.5713 l 1.4800,1.2755 l 1.4800,5.8881 l 1.4800,5.6672 l 1.4800,-7.7443 l 1.4800,-1.9288 l 1.4800,-0.7872 l 1.4800,-5.2189 l 1.4800,1.9254 l 1.4800,1.9474 l 1.4800,1.2863 l 1.4800,-4.0702 l 1.4800,-7.3144 l 1.4800,1.8069 "/></g><g stroke-linejoin="miter" stroke-opacity="0.5" fill-opacity="0.0" stroke="rgb(93,165,218)" stroke-width="1.9999999999999987" fill="rgb(0,0,0)" stroke-linecap="butt" stroke-miterlimit="10.0"><path d="M 31.5018,102.1911 l 1.4800,-2.3659 l 1.4800,-7.0586 l 1.4800,0.4785 l 1.4800,3.3232 l 1.4800,6.5334 l 1.4800,-5.1578 l 1.4800,-2.2984 l 1.4800,2.8469 l 1.4800,6.0887 l 1.4800,1.7486 l 1.4800,-2.8530 l 1.4800,5.8936 l 1.4800,8.2984 l 1.4800,-5.8910 l 1.4800,2.9353 l 1.4800,-0.5825 l 1.4800,2.5160 l 1.4800,-1.7450 l 1.4800,2.9714 l 1.4800,-1.3233 l 1.4800,-1.5570 l 1.4800,0.3888 l 1.4800,-6.7266 l 1.4800,6.4361 l 1.4800,-2.0212 l 1.4800,6.2934 l 1.4800,4.7945 l 1.4800,1.2336 l 1.4800,3.9602 l 1.4800,-3.1544 l 1.4800,-3.7908 l 1.4800,2.9702 l 1.4800,3.7054 l 1.4800,6.6464 l 1.4800,-4.2141 l 1.4800,5.0512 l 1.4800,-7.7247 l 1.4800,3.1045 l 1.4800,3.4526 l 1.4800,-6.9656 l 1.4800,8.0778 l 1.4800,-6.5870 l 1.4800,-0.4417 l 1.4800,3.6978 l 1.4800,0.2419 l 1.4800,-4.0659 l 1.4800,-2.6752 l 1.4800,-4.7604 l 1.4800,1.9201 l 1.4800,-5.0442 l 1.4800,-4.6878 l 1.4800,5.3690 l 1.4800,-8.4754 l 1.4800,-5.3178 l 1.4800,1.1880 l 1.4800,-3.8617 l 1.4800,-6.2716 l 1.4800,-1.2349 l 1.4800,-2.5447 l 1.4800,1.2793 l 1.4800,-2.5748 l 1.4800,1.5022 l 1.4800,5.7591 l 1.4800,-5.2574 l 1.4800,-3.0657 l 1.4800,-0.8676 l 1.4800,3.8566 l 1.4800,-1.7257 l 1.4800,-1.8994 l 1.4800,10.4021 l 1.4800,4.9922 l 1.4800,6.1034 l 1.4800,1.6434 l 1.4800,2.0715 l 1.4800,2.5424 l 1.4800,-5.9195 l 1.4800,-3.9679 l 1.4800,1.0874 l 1.4800,-0.3747 l 1.4800,7.8343 l 1.4800,-2.8669 l 1.4800,-8.9760 l 1.4800,-0.0927 l 1.4800,5.0150 l 1.4800,-1.8863 l 1.4800,-1.7488 l 1.4800,-5.2349 l 1.4800,-4.8150 l 1.4800,6.6455 l 1.4800,-0.6090 l 1.4800,-3.1841 l 1.4800,-1.5042 l 1.4800,-4.4724 l 1.4800,-0.0527 l 1.4800,-1.4885 l 1.4800,1.6194 l 1.4800,-0.0853 l 1.4800,3.2608 l 1.4800,-5.6397 "/></g><g stroke-linejoin="miter" stroke-opacity="0.5" fill-opacity="0.0" stroke="rgb(85,85,85)" stroke-width="1.9999999999999987" fill="rgb(0,0,0)" stroke-linecap="butt" stroke-miterlimit="10.0"><path d="M 31.5018,104.2764 l 1.4800,8.3617 l 1.4800,4.3446 l 1.4800,7.9250 l 1.4800,7.3477 l 1.4800,-1.3390 l 1.4800,-2.4369 l 1.4800,1.5002 l 1.4800,-2.9154 l 1.4800,0.2922 l 1.4800,0.7360 l 1.4800,1.1058 l 1.4800,2.1353 l 1.4800,1.0036 l 1.4800,6.7330 l 1.4800,-4.1377 l 1.4800,-0.8231 l 1.4800,-1.0534 l 1.4800,0.6428 l 1.4800,0.9087 l 1.4800,3.4412 l 1.4800,1.8922 l 1.4800,-0.9443 l 1.4800,-5.6891 l 1.4800,-0.7588 l 1.4800,1.3237 l 1.4800,-5.9870 l 1.4800,2.5144 l 1.4800,0.1158 l 1.4800,3.2551 l 1.4800,3.9210 l 1.4800,5.3810 l 1.4800,11.6125 l 1.4800,4.0553 l 1.4800,0.5853 l 1.4800,6.0708 l 1.4800,-3.7550 l 1.4800,-1.0260 l 1.4800,1.0261 l 1.4800,1.1333 l 1.4800,1.6019 l 1.4800,-4.9664 l 1.4800,-14.2760 l 1.4800,-2.8090 l 1.4800,2.4977 l 1.4800,5.7895 l 1.4800,4.6427 l 1.4800,1.9434 l 1.4800,2.9562 l 1.4800,-0.1034 l 1.4800,-3.7853 l 1.4800,2.0017 l 1.4800,2.6378 l 1.4800,0.0466 l 1.4800,4.0423 l 1.4800,-3.4227 l 1.4800,4.6570 l 1.4800,-4.7697 l 1.4800,-2.5243 l 1.4800,-2.9538 l 1.4800,0.3509 l 1.4800,0.8788 l 1.4800,1.3429 l 1.4800,9.3388 l 1.4800,-6.3724 l 1.4800,3.2458 l 1.4800,-0.5726 l 1.4800,2.9006 l 1.4800,-8.6532 l 1.4800,0.8381 l 1.4800,1.0113 l 1.4800,-3.5016 l 1.4800,-8.1515 l 1.4800,-1.1358 l 1.4800,3.4317 l 1.4800,4.6170 l 1.4800,-5.7411 l 1.4800,4.9985 l 1.4800,6.2313 l 1.4800,-4.0238 l 1.4800,9.8886 l 1.4800,-6.7631 l 1.4800,4.3266 l 1.4800,-2.0497 l 1.4800,0.9542 l 1.4800,2.0166 l 1.4800,3.0908 l 1.4800,0.0195 l 1.4800,-1.9261 l 1.4800,-6.4143 l 1.4800,-6.1687 l 1.4800,4.0998 l 1.4800,1.9002 l 1.4800,-3.0214 l 1.4800,5.1178 l 1.4800,-5.8039 l 1.4800,0.3245 l 1.4800,6.3824 l 1.4800,-6.5492 l 1.4800,1.2439 "/></g></svg>