<?xml version="1.0" encoding="UTF-8"?>
<!DOCTYPE svg PUBLIC "-//W3C//DTD SVG 1.1//EN"
    "http://www.w3.org/Graphics/SVG/1.1/DTD/svg11.dtd"><svg xmlns="http://www.w3.org/2000/svg" height="200.0000" stroke-opacity="1" viewBox="0 0 200 200" font-size="1" width="200.0000" xmlns:xlink="http://www.w3.org/1999/xlink" stroke="rgb(0,0,0)" version="1.1"><defs></defs><defs></defs><g stroke-linejoin="miter" stroke-opacity="0.0" fill-opacity="0.5" stroke="rgb(0,0,0)" stroke-width="0.0" fill="rgb(94,19,94)" stroke-linecap="butt" stroke-miterlimit="10.0"><path d="M 31.5018,168.4982 l -0.0000,-146.5201 h -2.9304 l -0.0000,146.5201 Z"/></g><defs></defs><g stroke-linejoin="miter" stroke-opacity="1.0" fill-opacity="0.7" font-size="5.86080586080586px" stroke="rgb(0,0,0)" stroke-width="0.8" fill="rgb(30,30,30)" stroke-linecap="butt" stroke-miterlimit="10.0"><text dominant-baseline="middle" transform="matrix(1.0000,0.0000,0.0000,1.0000,24.1758,21.9780)" stroke="none" text-anchor="end">8.0</text></g><defs></defs><g stroke-linejoin="miter" stroke-opacity="0.5" fill-opacity="0.0" stroke="rgb(0,102,200)" stroke-width="0.8" fill="rgb(0,0,0)" stroke-linecap="butt" stroke-miterlimit="10.0"><path d="M 27.1062,21.9780 h 2.9304 "/></g><defs></defs><g stroke-linejoin="miter" stroke-opacity="1.0" fill-opacity="0.7" font-size="5.86080586080586px" stroke="rgb(0,0,0)" stroke-width="0.8" fill="rgb(30,30,30)" stroke-linecap="butt" stroke-miterlimit="10.0"><text dominant-baseline="middle" transform="matrix(1.0000,0.0000,0.0000,1.0000,24.1758,46.3980)" stroke="none" text-anchor="end">6.0</text></g><defs></defs><g stroke-linejoin="miter" stroke-opacity="0.5" fill-opacity="0.0" stroke="rgb(0,102,200)" stroke-width="0.8" fill="rgb(0,0,0)" stroke-linecap="butt" stroke-miterlimit="10.0"><path d="M 27.1062,46.3980 h 2.9304 "/></g><defs></defs><g stroke-linejoin="miter" stroke-opacity="1.0" fill-opacity="0.7" font-size="5.86080586080586px" stroke="rgb(0,0,0)" stroke-width="0.8" fill="rgb(30,30,30)" stroke-linecap="butt" stroke-miterlimit="10.0"><text dominant-baseline="middle" transform="matrix(1.0000,0.0000,0.0000,1.0000,24.1758,70.8181)" stroke="none" text-anchor="end">4.0</text></g><defs></defs><g stroke-linejoin="miter" stroke-opacity="0.5" fill-opacity="0.0" stroke="rgb(0,102,200)" stroke-width="0.8" fill="rgb(0,0,0)" stroke-linecap="butt" stroke-miterlimit="10.0"><path d="M 27.1062,70.8181 h 2.9304 "/></g><defs></defs><g stroke-linejoin="miter" stroke-opacity="1.0" fill-opacity="0.7" font-size="5.86080586080586px" stroke="rgb(0,0,0)" stroke-width="0.8" fill="rgb(30,30,30)" stroke-linecap="butt" stroke-miterlimit="10.0"><text dominant-baseline="middle" transform="matrix(1.0000,0.0000,0.0000,1.0000,24.1758,95.2381)" stroke="none" text-anchor="end">2.0</text></g><defs></defs><g stroke-linejoin="miter" stroke-opacity="0.5" fill-opacity="0.0" stroke="rgb(0,102,200)" stroke-width="0.8" fill="rgb(0,0,0)" stroke-linecap="butt" stroke-miterlimit="10.0"><path d="M 27.1062,95.2381 h 2.9304 "/></g><defs></defs><g stroke-linejoin="miter" stroke-opacity="1.0" fill-opacity="0.7" font-size="5.86080586080586px" stroke="rgb(0,0,0)" stroke-width="0.8" fill="rgb(30,30,30)" stroke-linecap="butt" stroke-miterlimit="10.0"><text dominant-baseline="middle" transform="matrix(1.0000,0.0000,0.0000,1.0000,24.1758,119.6581)" stroke="none" text-anchor="end">0.0</text></g><defs></defs><g stroke-linejoin="miter" stroke-opacity="0.5" fill-opacity="0.0" stroke="rgb(0,102,200)" stroke-width="0.8" fill="rgb(0,0,0)" stroke-linecap="butt" stroke-miterlimit="10.0"><path d="M 27.1062,119.6581 h 2.9304 "/></g><defs></defs><g stroke-linejoin="miter" stroke-opacity="1.0" fill-opacity="0.7" font-size="5.86080586080586px" stroke="rgb(0,0,0)" stroke-width="0.8" fill="rgb(30,30,30)" stroke-linecap="butt" stroke-miterlimit="10.0"><text dominant-baseline="middle" transform="matrix(1.0000,0.0000,0.0000,1.0000,24.1758,144.0781)" stroke="none" text-anchor="end">-2.0</text></g><defs></defs><g stroke-linejoin="miter" stroke-opacity="0.5" fill-opacity="0.0" stroke="rgb(0,102,200)" stroke-width="0.8" fill="rgb(0,0,0)" stroke-linecap="butt" stroke-miterlimit="10.0"><path d="M 27.1062,144.0781 h 2.9304 "/></g><defs></defs><g stroke-linejoin="miter" stroke-opacity="1.0" fill-opacity="0.7" font-size="5.86080586080586px" stroke="rgb(0,0,0)" stroke-width="0.8" fill="rgb(30,30,30)" stroke-linecap="butt" stroke-miterlimit="10.0"><text dominant-baseline="middle" transform="matrix(1.0000,0.0000,0.0000,1.0000,24.1758,168.4982)" stroke="none" text-anchor="end">-4.0</text></g><defs></defs><g stroke-linejoin="miter" stroke-opacity="0.5" fill-opacity="0.0" stroke="rgb(0,102,200)" stroke-width="0.8" fill="rgb(0,0,0)" stroke-linecap="butt" stroke-miterlimit="10.0"><path d="M 27.1062,168.4982 h 2.9304 "/></g><defs></defs><g stroke-linejoin="miter" stroke-opacity="0.0" fill-opacity="0.5" stroke="rgb(0,0,0)" stroke-width="0.0" fill="rgb(94,19,94)" stroke-linecap="butt" stroke-miterlimit="10.0"><path d="M 178.0220,171.4286 l -0.0000,-2.9304 h -146.5201 l -0.0000,2.9304 Z"/></g><defs></defs><g stroke-linejoin="miter" stroke-opacity="1.0" fill-opacity="0.7" font-size="5.86080586080586px" stroke="rgb(0,0,0)" stroke-width="0.8" fill="rgb(30,30,30)" stroke-linecap="butt" stroke-miterlimit="10.0"><text dominant-baseline="text-before-edge" transform="matrix(1.0000,0.0000,0.0000,1.0000,178.0220,175.8242)" stroke="none" text-anchor="middle">35</text></g><defs></defs><g stroke-linejoin="miter" stroke-opacity="0.5" fill-opacity="0.0" stroke="rgb(0,102,200)" stroke-width="0.8" fill="rgb(0,0,0)" stroke-linecap="butt" stroke-miterlimit="10.0"><path d="M 178.0220,169.9634 v 2.9304 "/></g><defs></defs><g stroke-linejoin="miter" stroke-opacity="1.0" fill-opacity="0.7" font-size="5.86080586080586px" stroke="rgb(0,0,0)" stroke-width="0.8" fill="rgb(30,30,30)" stroke-linecap="butt" stroke-miterlimit="10.0"><text dominant-baseline="text-before-edge" transform="matrix(1.0000,0.0000,0.0000,1.0000,153.6020,175.8242)" stroke="none" text-anchor="middle">30</text></g><defs></defs><g stroke-linejoin="miter" stroke-opacity="0.5" fill-opacity="0.0" stroke="rgb(0,102,200)" stroke-width="0.8" fill="rgb(0,0,0)" stroke-linecap="butt" stroke-miterlimit="10.0"><path d="M 153.6020,169.9634 v 2.9304 "/></g><defs></defs><g stroke-linejoin="miter" stroke-opacity="1.0" fill-opacity="0.7" font-size="5.86080586080586px" stroke="rgb(0,0,0)" stroke-width="0.8" fill="rgb(30,30,30)" stroke-linecap="butt" stroke-miterlimit="10.0"><text dominant-baseline="text-before-edge" transform="matrix(1.0000,0.0000,0.0000,1.0000,129.1819,175.8242)" stroke="none" text-anchor="middle">25</text></g><defs></defs><g stroke-linejoin="miter" stroke-opacity="0.5" fill-opacity="0.0" stroke="rgb(0,102,200)" stroke-width="0.8" fill="rgb(0,0,0)" stroke-linecap="butt" stroke-miterlimit="10.0"><path d="M 129.1819,169.9634 v 2.9304 "/></g><defs></defs><g stroke-linejoin="miter" stroke-opacity="1.0" fill-opacity="0.7" font-size="5.86080586080586px" stroke="rgb(0,0,0)" stroke-width="0.8" fill="rgb(30,30,30)" stroke-linecap="butt" stroke-miterlimit="10.0"><text dominant-baseline="text-before-edge" transform="matrix(1.0000,0.0000,0.0000,1.0000,104.7619,175.8242)" stroke="none" text-anchor="middle">20</text></g><defs></defs><g stroke-linejoin="miter" stroke-opacity="0.5" fill-opacity="0.0" stroke="rgb(0,102,200)" stroke-width="0.8" fill="rgb(0,0,0)" stroke-linecap="butt" stroke-miterlimit="10.0"><path d="M 104.7619,169.9634 v 2.9304 "/></g><defs></defs><g stroke-linejoin="miter" stroke-opacity="1.0" fill-opacity="0.7" font-size="5.86080586080586px" stroke="rgb(0,0,0)" stroke-width="0.8" fill="rgb(30,30,30)" stroke-linecap="butt" stroke-miterlimit="10.0"><text dominant-baseline="text-before-edge" transform="matrix(1.0000,0.0000,0.0000,1.0000,80.3419,175.8242)" stroke="none" text-anchor="middle">15</text></g><defs></defs><g stroke-linejoin="miter" stroke-opacity="0.5" fill-opacity="0.0" stroke="rgb(0,102,200)" stroke-width="0.8" fill="rgb(0,0,0)" stroke-linecap="butt" stroke-miterlimit="10.0"><path d="M 80.3419,169.9634 v 2.9304 "/></g><defs></defs><g stroke-linejoin="miter" stroke-opacity="1.0" fill-opacity="0.7" font-size="5.86080586080586px" stroke="rgb(0,0,0)" stroke-width="0.8" fill="rgb(30,30,30)" stroke-linecap="butt" stroke-miterlimit="10.0"><text dominant-baseline="text-before-edge" transform="matrix(1.0000,0.0000,0.0000,1.0000,55.9219,175.8242)" stroke="none" text-anchor="middle">10</text></g><defs></defs><g stroke-linejoin="miter" stroke-opacity="0.5" fill-opacity="0.0" stroke="rgb(0,102,200)" stroke-width="0.8" fill="rgb(0,0,0)" stroke-linecap="butt" stroke-miterlimit="10.0"><path d="M 55.9219,169.9634 v 2.9304 "/></g><defs></defs><g stroke-linejoin="miter" stroke-opacity="1.0" fill-opacity="0.7" font-size="5.86080586080586px" stroke="rgb(0,0,0)" stroke-width="0.8" fill="rgb(30,30,30)" stroke-linecap="butt" stroke-miterlimit="10.0"><text dominant-baseline="text-before-edge" transform="matrix(1.0000,0.0000,0.0000,1.0000,31.5018,175.8242)" stroke="none" text-anchor="middle">5.0</text></g><defs></defs><g stroke-linejoin="miter" stroke-opacity="0.5" fill-opacity="0.0" stroke="rgb(0,102,200)" stroke-width="0.8" fill="rgb(0,0,0)" stroke-linecap="butt" stroke-miterlimit="10.0"><path d="M 31.5018,169.9634 v 2.9304 "/></g><defs></defs><g stroke-linejoin="miter" stroke-opacity="1.0" fill-opacity="0.0" stroke="rgb(0,255,255)" stroke-width="0.4" fill="rgb(0,0,0)" stroke-linecap="butt" stroke-miterlimit="10.0"><path d="M 31.5018,142.4363 l 3.7569,15.6510 l 3.7569,0.5443 l 3.7569,9.8665 l 3.7569,-3.1984 l 3.7569,-13.3966 l 3.7569,-30.3931 l 3.7569,-14.3931 l 3.7569,-7.6631 l 3.7569,6.6229 l 3.7569,-19.6398 l 3.7569,-4.0656 l 3.7569,8.1391 l 3.7569,-2.8504 l 3.7569,-25.5615 l 3.7569,-5.5469 l 3.7569,-17.1656 l 3.7569,-17.4081 l 3.7569,1.2574 l 3.7569,12.7881 l 3.7569,4.1365 l 3.7569,-13.2766 l 3.7569,14.7701 l 3.7569,4.1453 l 3.7569,21.6890 l 3.7569,1.0466 l 3.7569,-0.5362 l 3.7569,3.6687 l 3.7569,-6.0050 l 3.7569,11.1532 l 3.7569,-8.2766 l 3.7569,-6.0503 l 3.7569,-16.9948 l 3.7569,-2.0032 l 3.7569,4.9269 l 3.7569,26.6781 l 3.7569,-1.7537 l 3.7569,22.5631 l 3.7569,1.4968 l 3.7569,17.2062 "/></g><defs></defs><g stroke-linejoin="miter" stroke-opacity="1.0" fill-opacity="0.0" stroke="rgb(128,0,255)" stroke-width="0.4" fill="rgb(0,0,0)" stroke-linecap="butt" stroke-miterlimit="10.0"><path d="M 31.5018,84.1271 l 3.7569,-0.9936 l 3.7569,-4.8231 l 3.7569,5.7384 l 3.7569,5.4320 l 3.7569,-9.0036 l 3.7569,2.2736 l 3.7569,0.1104 l 3.7569,4.5161 l 3.7569,-7.9899 l 3.7569,-29.1290 l 3.7569,-3.9199 l 3.7569,8.1271 l 3.7569,-11.5496 l 3.7569,-5.1213 l 3.7569,14.7293 l 3.7569,0.3415 l 3.7569,2.8351 l 3.7569,1.0626 l 3.7569,0.0825 l 3.7569,-10.4074 l 3.7569,-2.6263 l 3.7569,-3.0095 l 3.7569,25.9393 l 3.7569,-2.0485 l 3.7569,-7.1234 l 3.7569,12.0316 l 3.7569,5.5302 l 3.7569,14.0008 l 3.7569,-1.8575 l 3.7569,3.2977 l 3.7569,13.1280 l 3.7569,19.2883 l 3.7569,7.7143 l 3.7569,12.9815 l 3.7569,8.9969 l 3.7569,-4.0518 l 3.7569,1.5346 l 3.7569,-21.3819 l 3.7569,9.0091 "/></g><defs></defs><g stroke-linejoin="miter" stroke-opacity="1.0" fill-opacity="0.0" stroke="rgb(255,128,0)" stroke-width="0.4" fill="rgb(0,0,0)" stroke-linecap="butt" stroke-miterlimit="10.0"><path d="M 31.5018,65.5496 l 3.7569,-12.2334 l 3.7569,6.8445 l 3.7569,12.8493 l 3.7569,8.6698 l 3.7569,34.0243 l 3.7569,-14.1414 l 3.7569,9.8729 l 3.7569,4.9234 l 3.7569,-9.9759 l 3.7569,3.9274 l 3.7569,-18.5665 l 3.7569,-4.7437 l 3.7569,1.0637 l 3.7569,-10.9204 l 3.7569,-1.6789 l 3.7569,6.8634 l 3.7569,3.7952 l 3.7569,9.3399 l 3.7569,16.5243 l 3.7569,5.0491 l 3.7569,-9.8030 l 3.7569,-11.9791 l 3.7569,3.3083 l 3.7569,-0.9037 l 3.7569,7.3772 l 3.7569,18.3543 l 3.7569,13.3826 l 3.7569,13.7639 l 3.7569,3.2253 l 3.7569,-14.0290 l 3.7569,-6.9409 l 3.7569,2.0743 l 3.7569,-11.9425 l 3.7569,5.4982 l 3.7569,-9.0452 l 3.7569,-34.1235 l 3.7569,-30.2802 l 3.7569,-18.2602 l 3.7569,28.2401 "/></g><defs></defs><g stroke-linejoin="miter" stroke-opacity="1.0" fill-opacity="0.0" stroke="rgb(0,128,255)" stroke-width="0.4" fill="rgb(0,0,0)" stroke-linecap="butt" stroke-miterlimit="10.0"><path d="M 31.5018,70.5173 l 3.7569,-21.8541 l 3.7569,8.0085 l 3.7569,9.5930 l 3.7569,14.4358 l 3.7569,1.7443 l 3.7569,11.8988 l 3.7569,-2.5045 l 3.7569,6.0514 l 3.7569,-14.2478 l 3.7569,14.4744 l 3.7569,17.6336 l 3.7569,2.9774 l 3.7569,11.9277 l 3.7569,-10.2259 l 3.7569,-10.2542 l 3.7569,21.5199 l 3.7569,-31.0560 l 3.7569,-16.4312 l 3.7569,8.3033 l 3.7569,0.9002 l 3.7569,2.6745 l 3.7569,7.1339 l 3.7569,6.6297 l 3.7569,12.2301 l 3.7569,19.7329 l 3.7569,-0.7100 l 3.7569,-12.2304 l 3.7569,-0.9700 l 3.7569,-0.1127 l 3.7569,-16.6918 l 3.7569,-8.3939 l 3.7569,-11.8842 l 3.7569,-4.4291 l 3.7569,6.5679 l 3.7569,-0.1279 l 3.7569,-6.6576 l 3.7569,7.6954 l 3.7569,2.0534 l 3.7569,17.5505 "/></g><defs></defs><g stroke-linejoin="miter" stroke-opacity="1.0" fill-opacity="0.0" stroke="rgb(60,90,150)" stroke-width="0.4" fill="rgb(0,0,0)" stroke-linecap="butt" stroke-miterlimit="10.0"><path d="M 31.5018,95.0187 l 3.7569,11.6974 l 3.7569,3.8820 l 3.7569,-5.0093 l 3.7569,6.6088 l 3.7569,6.0954 l 3.7569,-16.7495 l 3.7569,12.6224 l 3.7569,-2.4416 l 3.7569,10.0552 l 3.7569,-8.7635 l 3.7569,-16.9845 l 3.7569,12.5589 l 3.7569,11.3269 l 3.7569,-1.2957 l 3.7569,-15.7309 l 3.7569,20.3506 l 3.7569,-22.6003 l 3.7569,22.5609 l 3.7569,8.2901 l 3.7569,-32.4160 l 3.7569,-4.7358 l 3.7569,-1.5591 l 3.7569,4.9926 l 3.7569,-14.2302 l 3.7569,-9.0536 l 3.7569,2.0812 l 3.7569,6.1489 l 3.7569,-0.2672 l 3.7569,23.6926 l 3.7569,2.6818 l 3.7569,-0.7411 l 3.7569,-16.5452 l 3.7569,-23.1582 l 3.7569,16.4969 l 3.7569,-10.2599 l 3.7569,-15.6350 l 3.7569,5.8491 l 3.7569,8.3941 l 3.7569,-12.1084 "/></g></svg>