<?xml version="1.0" encoding="UTF-8"?>
<!DOCTYPE svg PUBLIC "-//W3C//DTD SVG 1.1//EN"
    "http://www.w3.org/Graphics/SVG/1.1/DTD/svg11.dtd"><svg xmlns="http://www.w3.org/2000/svg" height="400.0000" stroke-opacity="1" viewBox="0 0 600 400" font-size="1" width="600.0000" xmlns:xlink="http://www.w3.org/1999/xlink" stroke="rgb(0,0,0)" version="1.1"><defs></defs><g stroke-linejoin="miter" stroke-opacity="0.6" fill-opacity="0.0" stroke="rgb(44,160,44)" stroke-width="2.1660796198608843" fill="rgb(0,0,0)" stroke-linecap="butt" stroke-miterlimit="10.0"><path d="M 192.2615,113.3992 v 177.1280 "/></g><g stroke-linejoin="miter" stroke-opacity="0.6" fill-opacity="0.0" stroke="rgb(255,127,14)" stroke-width="8.664318479443537" fill="rgb(0,0,0)" stroke-linecap="butt" stroke-miterlimit="10.0"><path d="M 136.9090,290.5272 l 332.1150,-132.8460 "/></g><g stroke-linejoin="miter" stroke-opacity="0.6" fill-opacity="0.0" stroke="rgb(31,119,180)" stroke-width="4.3321592397217685" fill="rgb(0,0,0)" stroke-linecap="butt" stroke-miterlimit="10.0"><path d="M 136.9090,246.2452 h 110.7050 l 110.7050,-177.1280 "/></g><g stroke-linejoin="miter" stroke-opacity="1.0" fill-opacity="1.0" stroke="rgb(0,0,0)" fill-rule="evenodd" stroke-width="0.0" fill="rgb(31,119,180)" stroke-linecap="butt" stroke-miterlimit="10.0"><path d="M 60.3684,290.5272 ZM 58.9364,277.7126 c 0.0000,-2.7906 -2.1664,-3.8921 -4.8101 -4.6265l 0.1836,-1.1015 c 1.9093,0.4039 4.0023,0.8078 6.0585 0.9547l -0.0000,9.3631 l -0.0367,2.8640 c -0.0000,0.4406 0.0734,4.6632 0.0734 4.6632l -0.0734,0.0734 l -0.6976,-0.0000 c -0.1836,-0.0000 -0.2937,-0.1469 -0.2937 -0.2937l 0.0000,-1.1015 c 0.0000,-1.5422 -0.3305,-1.8726 -1.6156 -1.8726l -18.4325,-0.0000 c -1.1015,-0.0000 -1.6156,0.5508 -1.6156 1.9828l -0.0000,0.9914 c -0.0000,0.1469 -0.1102,0.2937 -0.2937 0.2937l -0.6976,-0.0000 l -0.0367,-0.0734 c 0.0000,-0.0000 0.0367,-3.1945 0.0367 -4.6265c 0.0000,-1.3219 -0.0367,-4.7366 -0.0367 -4.7366l 0.0367,-0.0734 l 0.6976,0.0000 c 0.1836,0.0000 0.2937,0.1102 0.2937 0.2937l -0.0000,0.9547 c -0.0000,1.5054 0.5875,2.0195 1.6156 2.0195l 17.8083,0.0000 c 1.1383,0.0000 1.8359,-0.6609 1.8359 -1.7257l 0.0000,-4.2226 ZM 60.3684,271.2135 ZM 39.4024,268.3495 c -0.9547,-0.0000 -1.7625,-0.7711 -1.7625 -1.7257c 0.0000,-0.9914 0.8078,-1.7625 1.7625 -1.7625c 0.9914,0.0000 1.7625,0.7711 1.7625 1.7625c -0.0000,0.9547 -0.7711,1.7257 -1.7625 1.7257ZM 39.4024,268.3495 ZM 57.7247,264.8613 c 1.0648,0.0000 1.6156,-0.4039 1.6156 -1.5789l 0.0000,-0.6976 c 0.0000,-0.1836 0.1102,-0.3305 0.2937 -0.3305l 0.6976,0.0000 l 0.0734,0.0734 c 0.0000,-0.0000 -0.0734,2.5335 -0.0734 3.9656c -0.0000,1.2851 0.0734,3.7820 0.0734 3.7820l -0.0734,0.0734 l -0.6976,-0.0000 c -0.1836,-0.0000 -0.2937,-0.1102 -0.2937 -0.2937l 0.0000,-0.6976 c 0.0000,-1.2117 -0.5508,-1.5789 -1.6156 -1.5789l -9.1428,-0.0000 c -1.9461,-0.0000 -2.2398,0.3305 -2.2398 0.8445c -0.0000,0.4773 0.0367,0.9180 0.1836 1.5422l -1.0281,0.1836 c -0.4039,-2.3500 -0.5508,-2.7539 -1.0648 -3.8187c -0.1469,-0.4039 -0.2937,-0.6609 -0.2937 -0.9180l 0.0000,-0.5508 l 13.5857,0.0000 ZM 60.3684,261.5199 ZM 57.7247,248.1546 l -8.0413,-0.0000 c -2.5703,-0.0000 -3.7820,0.4406 -3.7820 2.3867c -0.0000,1.6156 0.6242,3.0109 2.8273 4.8835l 8.9959,0.0000 c 1.0648,0.0000 1.6156,-0.3672 1.6156 -1.5789l 0.0000,-0.5141 c 0.0000,-0.1836 0.1102,-0.2937 0.2937 -0.2937l 0.6976,0.0000 l 0.0734,0.0734 c 0.0000,-0.0000 -0.0734,2.3132 -0.0734 3.7452c -0.0000,1.3219 0.0734,3.8187 0.0734 3.8187l -0.0734,0.0734 l -0.6976,-0.0000 c -0.1836,-0.0000 -0.2937,-0.1102 -0.2937 -0.2937l 0.0000,-0.6976 c 0.0000,-1.2484 -0.5508,-1.5789 -1.6156 -1.5789l -9.1428,-0.0000 c -1.9828,-0.0000 -2.2398,0.2937 -2.2398 0.8078c -0.0000,0.4773 0.0367,0.9180 0.1836 1.5422l -1.0281,0.1836 c -0.2570,-1.5422 -0.4406,-2.6437 -1.0648 -3.7820c -0.1836,-0.4039 -0.2937,-0.6976 -0.2937 -0.9547l 0.0000,-0.5508 l 3.2679,0.1102 l 0.0000,-0.1102 c -2.7539,-2.3500 -3.2679,-4.1124 -3.2679 -5.9850c 0.0000,-3.3046 2.5335,-4.0023 5.8015 -4.0023l 7.7842,0.0000 c 1.0648,0.0000 1.6156,-0.4039 1.6156 -1.5789l 0.0000,-0.6976 c 0.0000,-0.1836 0.1102,-0.3305 0.2937 -0.3305l 0.6976,0.0000 l 0.0734,0.0734 c 0.0000,-0.0000 -0.0734,2.5335 -0.0734 3.9656c -0.0000,1.2851 0.0734,3.5984 0.0734 3.5984l -0.0734,0.0734 l -0.6976,-0.0000 c -0.1836,-0.0000 -0.2937,-0.1102 -0.2937 -0.2937l 0.0000,-0.5141 c 0.0000,-1.2117 -0.5508,-1.5789 -1.6156 -1.5789ZM 60.3684,242.4265 ZM 50.1975,238.2407 l 0.0000,-6.7561 c 0.0000,-0.3672 -0.1836,-0.5141 -0.5141 -0.5141c -3.4148,-0.0000 -4.2960,1.7257 -4.2960 3.0476c -0.0000,0.8445 0.3305,3.5984 4.8101 4.2226ZM 50.1975,238.2407 ZM 56.9536,228.5471 l 0.5875,-0.7344 c 1.9093,1.3953 3.2679,3.5617 3.2679 6.2054c -0.0000,5.0304 -3.7452,7.1600 -7.7475 7.1600c -5.5811,-0.0000 -8.9225,-3.6718 -8.9225 -7.1600c 0.0000,-4.8468 3.7820,-5.9850 6.8663 -5.9850c 0.4039,0.0000 0.6242,0.2570 0.6242 0.6609l -0.0000,9.6569 c 0.2203,0.0367 0.4406,0.0367 0.7344 0.0367c 3.7452,0.0000 6.6460,-2.6070 6.6460 -5.2507c 0.0000,-2.0195 -0.6609,-3.3046 -2.0562 -4.5898ZM 60.3684,217.5317 ZM 60.8090,204.4968 c -0.0000,7.8944 -6.0952,11.6763 -12.0068 11.6763c -7.2335,-0.0000 -12.5943,-5.6179 -12.5943 -11.7131c 0.0000,-4.5163 1.5422,-5.9483 1.6523 -8.0413c 2.0195,-0.1102 3.7820,-0.4406 5.6913 -0.8078l 0.1469,1.1015 c -3.1578,0.9547 -6.1319,3.0843 -6.1319 8.1514c -0.0000,2.9007 3.0843,8.1147 10.5381 8.1147c 5.3608,0.0000 11.1990,-2.7539 11.1990 -8.4452c 0.0000,-3.4148 -1.2117,-5.9116 -4.0757 -8.5186l 0.5508,-0.8445 c 3.2679,2.4968 5.0304,5.7647 5.0304 9.3264ZM 60.3684,193.8852 ZM 34.7392,187.9002 l 12.4474,0.0000 c -2.4601,-2.4601 -3.0476,-4.6265 -3.0476 -6.0585c 0.0000,-2.6437 2.0195,-3.9656 5.8015 -3.9656l 7.7842,0.0000 c 1.0648,0.0000 1.6156,-0.3672 1.6156 -1.5789l 0.0000,-0.6976 c 0.0000,-0.1469 0.1102,-0.2937 0.2937 -0.2937l 0.6976,0.0000 l 0.0734,0.0734 c 0.0000,-0.0000 -0.0734,2.4968 -0.0734 3.9656c -0.0000,1.2851 0.0734,3.7820 0.0734 3.7820l -0.0734,0.0734 l -0.6976,-0.0000 c -0.1836,-0.0000 -0.2937,-0.1102 -0.2937 -0.2937l 0.0000,-0.6976 c 0.0000,-1.2484 -0.5508,-1.5789 -1.6156 -1.5789l -8.1881,-0.0000 c -2.9742,-0.0000 -3.6718,0.8078 -3.6718 2.8640c -0.0000,1.0648 0.9547,2.6437 2.6804 4.4062l 9.1795,0.0000 c 1.0648,0.0000 1.6156,-0.3672 1.6156 -1.5789l 0.0000,-0.6976 c 0.0000,-0.1469 0.1102,-0.2937 0.2937 -0.2937l 0.6976,0.0000 l 0.0734,0.0734 c 0.0000,-0.0000 -0.0734,2.4968 -0.0734 3.9288c -0.0000,1.3219 0.0734,3.7820 0.0734 3.7820l -0.0734,0.0734 l -0.6976,-0.0000 c -0.1836,-0.0000 -0.2937,-0.0734 -0.2937 -0.2570l 0.0000,-0.6976 c 0.0000,-1.2484 -0.5508,-1.5789 -1.6156 -1.5789l -18.3958,-0.0000 c -2.0929,-0.0000 -2.6804,0.3305 -2.6804 1.0648l 0.1469,1.2117 c -0.0000,0.1102 -0.0734,0.1836 -0.1836 0.1836l -0.9180,0.0734 c 0.0000,-0.5875 -0.2203,-1.9093 -0.3305 -2.5335c -0.1469,-0.6609 -0.2937,-1.2117 -0.6242 -1.9461l 0.0000,-0.8078 ZM 60.3684,174.8653 ZM 51.3724,164.1803 l 0.7344,2.9007 c 0.9914,3.2312 2.6804,3.7085 4.3327 3.7085c 1.1383,0.0000 2.8640,-0.5508 2.8640 -2.8640c 0.0000,-1.1015 -1.0648,-2.7906 -1.8726 -3.7452l -6.0585,-0.0000 ZM 51.3724,164.1803 ZM 60.8090,161.8304 c -0.0000,1.3953 -1.2484,2.1664 -2.1296 2.3132l 0.5875,0.8445 c 1.1750,1.6890 1.5422,2.3132 1.5422 4.0023c -0.0000,2.5703 -1.4687,4.4429 -4.2226 4.4429c -2.7906,-0.0000 -4.6999,-2.3867 -5.5811 -5.8749l -0.8445,-3.3781 c -4.1491,-0.0000 -4.9202,1.9093 -4.9202 3.1578c -0.0000,1.3953 0.6242,3.0109 1.7625 3.0109c 0.4039,0.0000 0.6242,-0.0734 0.7344 -0.1102c 0.1469,-0.0734 0.4039,-0.1102 0.6609 -0.1102c 0.4773,0.0000 1.2117,0.3672 1.2117 1.4320c -0.0000,0.8812 -0.5875,1.4687 -1.4687 1.4687c -2.1296,-0.0000 -4.0023,-3.4515 -4.0023 -5.8015c 0.0000,-2.6804 1.1015,-5.7647 6.3155 -5.7647l 5.3976,0.0000 c 2.2398,0.0000 3.1945,-0.0367 3.1945 -0.8812c 0.0000,-0.8078 -1.0281,-1.0281 -1.8359 -1.0648l 0.1836,-0.9180 c 2.6804,0.2203 3.4148,1.3586 3.4148 3.2312ZM 60.3684,158.3054 ZM 57.7247,155.0375 l -9.1428,-0.0000 c -1.8359,-0.0000 -2.2398,0.2570 -2.2398 0.8078c -0.0000,0.4773 0.0367,0.9180 0.1836 1.5422l -1.0281,0.1836 c -0.4039,-2.3132 -0.5141,-2.7171 -1.0648 -3.8187c -0.1836,-0.3672 -0.2937,-0.6609 -0.2937 -0.9180l 0.0000,-0.5508 l 3.3046,0.1102 l 0.0000,-0.1102 c -1.4320,-0.9547 -3.3046,-2.5703 -3.3046 -4.2960c 0.0000,-1.5054 0.7344,-2.0562 1.6890 -2.0562c 0.9547,0.0000 1.5422,0.6242 1.5422 1.5789c -0.0000,0.7344 -0.2937,1.1383 -0.6609 1.5054c -0.2203,0.2203 -0.3305,0.4773 -0.3305 0.7344c -0.0000,0.4039 0.6609,1.2117 1.9093 2.0929c 0.3305,0.2570 0.8078,0.4406 1.2851 0.4406l 8.1514,0.0000 c 1.0648,0.0000 1.6156,-0.3672 1.6156 -1.5789l 0.0000,-1.0648 c 0.0000,-0.1836 0.1102,-0.3305 0.2937 -0.3305l 0.6976,0.0000 l 0.0734,0.0734 c 0.0000,-0.0000 -0.0734,2.9007 -0.0734 4.3327c -0.0000,1.3219 0.0734,3.8187 0.0734 3.8187l -0.0734,0.0367 l -0.6976,-0.0000 c -0.1836,-0.0000 -0.2937,-0.0734 -0.2937 -0.2570l 0.0000,-0.6976 c 0.0000,-1.2484 -0.5508,-1.5789 -1.6156 -1.5789ZM 60.3684,145.5643 ZM 46.0116,139.5425 l 9.3998,0.0000 c 2.2765,0.0000 3.3781,-0.2203 3.3781 -1.2117c 0.0000,-0.9547 -0.2937,-1.6890 -1.0281 -2.6437l 0.6242,-0.6609 c 1.6156,1.4320 2.4234,2.9007 2.4234 4.5898c -0.0000,1.6890 -1.0281,2.6804 -3.6351 2.6804l -11.1623,-0.0000 l -0.0000,2.3867 c -0.0000,0.1102 -0.0367,0.1469 -0.1469 0.1469l -1.1383,-0.0000 c -0.1102,-0.0000 -0.1469,-0.0367 -0.1469 -0.1102c 0.0000,-2.4601 -1.4320,-3.0476 -4.2226 -3.0476l -0.6976,-0.0000 l -0.7344,-2.1296 l 5.6546,0.0000 l 0.0000,-4.0390 c 0.0000,-0.1836 0.0734,-0.2937 0.2203 -0.2937l 0.7344,0.0000 c 0.3305,0.0000 0.4773,0.5141 0.4773 0.8812l -0.0000,3.4515 Z"/></g><g stroke-linejoin="miter" stroke-opacity="1.0" fill-opacity="0.63" stroke="rgb(0,0,0)" fill-rule="evenodd" stroke-width="0.0" fill="rgb(0,0,0)" stroke-linecap="butt" stroke-miterlimit="10.0"><path d="M 507.4918,283.5286 ZM 511.7328,278.3623 h -0.0643 c -0.0643,-0.0000 -0.1028,-0.0514 -0.1028 -0.0900v -0.2570 l 0.0514,-0.0257 c 0.0000,-0.0000 0.7325,0.0257 1.2080 0.0257c 0.3341,-0.0000 0.8739,-0.0257 0.8739 -0.0257l 0.0257,0.0257 v 0.2313 c 0.0000,0.0643 -0.0643,0.1157 -0.1414 0.1157c -0.3727,-0.0000 -0.6683,0.1671 -0.8739 0.6683l -1.7735,4.3566 c -0.0900,0.2185 -0.1799,0.2956 -0.3084 0.2956c -0.1671,-0.0000 -0.2442,-0.0771 -0.3213 -0.2699l -1.7478,-4.4337 c -0.1799,-0.4626 -0.4498,-0.6169 -0.8225 -0.6169c -0.0643,-0.0000 -0.1285,-0.0257 -0.1285 -0.0900v -0.2570 l 0.0386,-0.0257 c 0.0000,-0.0000 0.6811,0.0257 1.1181 0.0257c 0.5012,-0.0000 1.2851,-0.0257 1.2851 -0.0257l 0.0514,0.0257 v 0.2442 c 0.0000,0.0900 -0.0771,0.1028 -0.1157 0.1028h -0.2185 c -0.2570,0.0129 -0.3727,0.0900 -0.3727 0.2185c 0.0000,0.0900 0.0514,0.1928 0.1285 0.3727l 1.1052,2.8016 l 0.2185,0.5912 l 0.2185,-0.5526 l 1.1438,-2.8144 c 0.0643,-0.1414 0.1028,-0.2570 0.1028 -0.3470c 0.0000,-0.1928 -0.1414,-0.2699 -0.5783 -0.2699ZM 513.8789,283.5286 ZM 515.3440,279.9688 h 2.3646 c 0.1285,-0.0000 0.1799,-0.0643 0.1799 -0.1799c 0.0000,-1.1952 -0.6040,-1.5036 -1.0667 -1.5036c -0.2956,-0.0000 -1.2594,0.1157 -1.4779 1.6835ZM 515.3440,279.9688 ZM 518.7367,282.3334 l 0.2570,0.2056 c -0.4884,0.6683 -1.2466,1.1438 -2.1719 1.1438c -1.7606,-0.0000 -2.5060,-1.3108 -2.5060 -2.7116c 0.0000,-1.9534 1.2851,-3.1229 2.5060 -3.1229c 1.6964,-0.0000 2.0948,1.3237 2.0948 2.4032c 0.0000,0.1414 -0.0900,0.2185 -0.2313 0.2185h -3.3799 c -0.0129,0.0771 -0.0129,0.1542 -0.0129 0.2570c 0.0000,1.3108 0.9124,2.3261 1.8377 2.3261c 0.7068,-0.0000 1.1566,-0.2313 1.6064 -0.7197ZM 519.3793,283.5286 ZM 520.5231,282.6033 v -3.2000 c 0.0000,-0.6426 -0.0900,-0.7839 -0.2827 -0.7839c -0.1671,-0.0000 -0.3213,0.0129 -0.5398 0.0643l -0.0643,-0.3598 c 0.8096,-0.1414 0.9510,-0.1799 1.3365 -0.3727c 0.1285,-0.0643 0.2313,-0.1028 0.3213 -0.1028h 0.1928 l -0.0386,1.1566 h 0.0386 c 0.3341,-0.5012 0.8996,-1.1566 1.5036 -1.1566c 0.5269,-0.0000 0.7197,0.2570 0.7197 0.5912c 0.0000,0.3341 -0.2185,0.5398 -0.5526 0.5398c -0.2570,-0.0000 -0.3984,-0.1028 -0.5269 -0.2313c -0.0771,-0.0771 -0.1671,-0.1157 -0.2570 -0.1157c -0.1414,-0.0000 -0.4241,0.2313 -0.7325 0.6683c -0.0900,0.1157 -0.1542,0.2827 -0.1542 0.4498v 2.8530 c 0.0000,0.3727 0.1285,0.5655 0.5526 0.5655h 0.3727 c 0.0643,-0.0000 0.1157,0.0386 0.1157 0.1028v 0.2442 l -0.0257,0.0257 c 0.0000,-0.0000 -1.0153,-0.0257 -1.5165 -0.0257c -0.4626,-0.0000 -1.3365,0.0257 -1.3365 0.0257l -0.0129,-0.0257 v -0.2442 c 0.0000,-0.0643 0.0257,-0.1028 0.0900 -0.1028h 0.2442 c 0.4369,-0.0000 0.5526,-0.1928 0.5526 -0.5655ZM 523.8387,283.5286 ZM 525.9463,278.5037 v 3.2899 c 0.0000,0.7968 0.0771,1.1823 0.4241 1.1823c 0.3341,-0.0000 0.5912,-0.1028 0.9253 -0.3598l 0.2313,0.2185 c -0.5012,0.5655 -1.0153,0.8482 -1.6064 0.8482c -0.5912,-0.0000 -0.9381,-0.3598 -0.9381 -1.2723v -3.9068 h -0.8353 c -0.0386,-0.0000 -0.0514,-0.0129 -0.0514 -0.0514v -0.3984 c 0.0000,-0.0386 0.0129,-0.0514 0.0386 -0.0514c 0.8610,-0.0000 1.0667,-0.5012 1.0667 -1.4779v -0.2442 l 0.7454,-0.2570 v 1.9791 h 1.4136 c 0.0643,-0.0000 0.1028,0.0257 0.1028 0.0771v 0.2570 c 0.0000,0.1157 -0.1799,0.1671 -0.3084 0.1671h -1.2080 ZM 527.7198,283.5286 ZM 528.7222,276.1905 c 0.0000,-0.3341 0.2699,-0.6169 0.6040 -0.6169c 0.3470,-0.0000 0.6169,0.2827 0.6169 0.6169c 0.0000,0.3470 -0.2699,0.6169 -0.6169 0.6169c -0.3341,-0.0000 -0.6040,-0.2699 -0.6040 -0.6169ZM 528.7222,276.1905 ZM 529.9431,282.6033 c 0.0000,0.3727 0.1414,0.5655 0.5526 0.5655h 0.2442 c 0.0643,-0.0000 0.1157,0.0386 0.1157 0.1028v 0.2442 l -0.0257,0.0257 c 0.0000,-0.0000 -0.8867,-0.0257 -1.3879 -0.0257c -0.4498,-0.0000 -1.3237,0.0257 -1.3237 0.0257l -0.0257,-0.0257 v -0.2442 c 0.0000,-0.0643 0.0386,-0.1028 0.1028 -0.1028h 0.2442 c 0.4241,-0.0000 0.5526,-0.1928 0.5526 -0.5655v -3.2000 c 0.0000,-0.6811 -0.1157,-0.7839 -0.2956 -0.7839c -0.1671,-0.0000 -0.3213,0.0129 -0.5398 0.0643l -0.0643,-0.3598 c 0.8225,-0.1414 0.9638,-0.1928 1.3365 -0.3727c 0.1414,-0.0514 0.2313,-0.1028 0.3213 -0.1028h 0.1928 v 4.7550 ZM 531.1126,283.5286 ZM 536.0475,282.3591 c -0.5655,0.9767 -1.1823,1.3237 -1.9534 1.3237c -1.5422,-0.0000 -2.5060,-1.1695 -2.5060 -2.8273c 0.0000,-1.8249 1.1438,-3.0072 2.5317 -3.0072c 1.2337,-0.0000 1.8891,0.6297 1.8891 1.3108c 0.0000,0.3727 -0.2313,0.5655 -0.5012 0.5655c -0.2699,-0.0000 -0.5269,-0.1414 -0.5655 -0.4626c -0.0514,-0.4241 -0.1285,-0.9767 -0.8867 -0.9767c -0.8482,-0.0000 -1.4779,0.8996 -1.4779 2.2875c 0.0000,1.5036 0.8096,2.5446 1.7992 2.5446c 0.5526,-0.0000 1.0410,-0.3598 1.4393 -0.9381ZM 536.2916,283.5286 ZM 540.0314,280.3800 l -1.0153,0.2570 c -1.1309,0.3470 -1.2980,0.9381 -1.2980 1.5165c 0.0000,0.3984 0.1928,1.0024 1.0024 1.0024c 0.3855,-0.0000 0.9767,-0.3727 1.3108 -0.6554v -2.1205 ZM 540.0314,280.3800 ZM 540.8539,283.6828 c -0.4884,-0.0000 -0.7582,-0.4369 -0.8096 -0.7454l -0.2956,0.2056 c -0.5912,0.4112 -0.8096,0.5398 -1.4008 0.5398c -0.8996,-0.0000 -1.5550,-0.5141 -1.5550 -1.4779c 0.0000,-0.9767 0.8353,-1.6450 2.0562 -1.9534l 1.1823,-0.2956 c 0.0000,-1.4522 -0.6683,-1.7221 -1.1052 -1.7221c -0.4884,-0.0000 -1.0538,0.2185 -1.0538 0.6169c 0.0000,0.1414 0.0257,0.2185 0.0386 0.2570c 0.0257,0.0514 0.0386,0.1414 0.0386 0.2313c 0.0000,0.1671 -0.1285,0.4241 -0.5012 0.4241c -0.3084,-0.0000 -0.5141,-0.2056 -0.5141 -0.5141c 0.0000,-0.7454 1.2080,-1.4008 2.0305 -1.4008c 0.9381,-0.0000 2.0177,0.3855 2.0177 2.2104v 1.8891 c 0.0000,0.7839 0.0129,1.1181 0.3084 1.1181c 0.2827,-0.0000 0.3598,-0.3598 0.3727 -0.6426l 0.3213,0.0643 c -0.0771,0.9381 -0.4755,1.1952 -1.1309 1.1952ZM 542.0876,283.5286 ZM 543.3085,282.6033 v -6.4385 c 0.0000,-0.7325 -0.1285,-0.9381 -0.3855 -0.9381l -0.4112,0.0514 c -0.0386,-0.0000 -0.0771,-0.0257 -0.0771 -0.0643l -0.0257,-0.3213 c 0.2056,-0.0000 0.6811,-0.0771 0.8996 -0.1157c 0.2313,-0.0514 0.4112,-0.1028 0.6683 -0.2185h 0.2827 v 8.0449 c 0.0000,0.3727 0.1414,0.5655 0.5526 0.5655h 0.3084 c 0.0514,-0.0000 0.1028,0.0386 0.1028 0.1028v 0.2442 l -0.0257,0.0257 c 0.0000,-0.0000 -0.9381,-0.0257 -1.4393 -0.0257c -0.4498,-0.0000 -1.3879,0.0257 -1.3879 0.0257l -0.0129,-0.0257 v -0.2442 c 0.0000,-0.0643 0.0257,-0.1028 0.0900 -0.1028h 0.3084 c 0.4241,-0.0000 0.5526,-0.1928 0.5526 -0.5655Z"/></g><g stroke-linejoin="miter" stroke-opacity="0.6" fill-opacity="0.0" stroke="rgb(44,160,44)" stroke-width="2.1660796198608843" fill="rgb(0,0,0)" stroke-linecap="butt" stroke-miterlimit="10.0"><path d="M 491.9931,283.5286 h 11.0705 "/></g><g stroke-linejoin="miter" stroke-opacity="1.0" fill-opacity="0.63" stroke="rgb(0,0,0)" fill-rule="evenodd" stroke-width="0.0" fill="rgb(0,0,0)" stroke-linecap="butt" stroke-miterlimit="10.0"><path d="M 507.4918,261.3876 ZM 508.0444,259.5884 l 0.3470,-0.0129 c 0.0386,0.3213 0.1799,0.9381 0.4626 1.2337c 0.1285,0.1414 0.4755,0.3727 0.9510 0.3727c 0.4498,-0.0000 1.1181,-0.3598 1.1181 -0.9896c 0.0000,-0.5526 -0.3084,-0.9253 -1.3237 -1.3622c -0.9381,-0.4112 -1.4265,-0.6811 -1.4265 -1.6450c 0.0000,-0.8610 0.7582,-1.4779 1.7735 -1.4779c 0.6426,-0.0000 1.1181,0.1157 1.5165 0.3213c 0.0771,0.4112 0.1157,0.8482 0.1414 1.3108l -0.3470,0.0129 c -0.2699,-1.0538 -1.0410,-1.2594 -1.3108 -1.2594c -0.4884,-0.0000 -0.9896,0.1928 -0.9896 0.8996c 0.0000,0.5141 0.2442,0.7711 0.9510 1.0281c 1.0410,0.3855 1.8763,0.8482 1.8763 1.8763c 0.0000,1.2723 -1.3494,1.6450 -1.9534 1.6450c -0.4498,-0.0000 -0.8225,-0.0514 -1.1566 -0.1414c -0.0900,-0.0129 -0.1542,-0.0257 -0.2442 -0.0257c -0.0643,-0.0000 -0.1671,0.0129 -0.2956 0.0386c 0.0000,-0.5398 -0.0386,-1.1952 -0.0900 -1.8249ZM 512.2597,261.3876 ZM 513.4805,260.4623 v -6.4385 c 0.0000,-0.7325 -0.1285,-0.9381 -0.3855 -0.9381l -0.4112,0.0514 c -0.0386,-0.0000 -0.0771,-0.0257 -0.0771 -0.0643l -0.0257,-0.3213 c 0.2056,-0.0000 0.6811,-0.0771 0.8996 -0.1157c 0.2313,-0.0514 0.4112,-0.1028 0.6683 -0.2185h 0.2827 v 8.0449 c 0.0000,0.3727 0.1414,0.5655 0.5526 0.5655h 0.3084 c 0.0514,-0.0000 0.1028,0.0386 0.1028 0.1028v 0.2442 l -0.0257,0.0257 c 0.0000,-0.0000 -0.9381,-0.0257 -1.4393 -0.0257c -0.4498,-0.0000 -1.3879,0.0257 -1.3879 0.0257l -0.0129,-0.0257 v -0.2442 c 0.0000,-0.0643 0.0257,-0.1028 0.0900 -0.1028h 0.3084 c 0.4241,-0.0000 0.5526,-0.1928 0.5526 -0.5655ZM 515.6010,261.3876 ZM 516.0380,258.7531 c 0.0000,-1.7606 0.9510,-3.0458 2.6602 -3.0458c 1.9020,-0.0000 2.6345,1.5936 2.6345 2.9301c 0.0000,1.2851 -0.8353,2.9044 -2.6602 2.9044c -1.7221,-0.0000 -2.6345,-1.4779 -2.6345 -2.7887ZM 516.0380,258.7531 ZM 518.5568,256.1314 c -1.0281,-0.0000 -1.5036,1.2080 -1.5036 2.3261c 0.0000,0.9896 0.5655,2.6345 1.8377 2.6345c 0.5783,-0.0000 1.4265,-0.3470 1.4265 -2.0434c 0.0000,-1.8891 -0.7068,-2.9173 -1.7606 -2.9173ZM 521.7568,261.3876 ZM 523.6716,257.3523 v 3.2000 c 0.4498,0.5269 0.8739,0.5526 1.0795 0.5526c 1.3751,-0.0000 1.6835,-1.2851 1.6835 -2.3903c 0.0000,-1.5550 -0.6297,-2.4160 -1.4136 -2.4160c -0.4369,-0.0000 -1.0667,0.3727 -1.3494 1.0538ZM 523.6716,257.3523 ZM 522.7206,263.4181 v -6.3614 c 0.0000,-0.4884 -0.1157,-0.5783 -0.2956 -0.5783c -0.1671,-0.0000 -0.3213,0.0129 -0.5398 0.0643l -0.0643,-0.3598 c 0.8225,-0.1414 0.9767,-0.1928 1.3365 -0.3727c 0.1414,-0.0643 0.2313,-0.1028 0.3213 -0.1028h 0.1928 l -0.0386,1.0281 h 0.0386 c 0.5912,-0.8996 1.2851,-1.0281 1.6964 -1.0281c 1.2466,-0.0000 2.0691,1.2980 2.0691 2.6602c 0.0000,1.0410 -0.3213,1.8377 -0.8996 2.4289c -0.5012,0.5012 -1.0281,0.7454 -1.7092 0.7454c -0.4626,-0.0000 -0.8225,-0.1028 -1.1566 -0.2827v 2.1590 c 0.0000,0.3727 0.1414,0.5655 0.5526 0.5655h 0.2442 c 0.0643,-0.0000 0.1157,0.0386 0.1157 0.1028v 0.2442 l -0.0257,0.0257 c 0.0000,-0.0000 -0.8867,-0.0257 -1.3879 -0.0257c -0.4498,-0.0000 -1.3237,0.0257 -1.3237 0.0257l -0.0257,-0.0257 v -0.2442 c 0.0000,-0.0643 0.0386,-0.1028 0.1028 -0.1028h 0.2442 c 0.4241,-0.0000 0.5526,-0.1928 0.5526 -0.5655ZM 527.9126,261.3876 ZM 529.3776,257.8278 h 2.3646 c 0.1285,-0.0000 0.1799,-0.0643 0.1799 -0.1799c 0.0000,-1.1952 -0.6040,-1.5036 -1.0667 -1.5036c -0.2956,-0.0000 -1.2594,0.1157 -1.4779 1.6835ZM 529.3776,257.8278 ZM 532.7704,260.1924 l 0.2570,0.2056 c -0.4884,0.6683 -1.2466,1.1438 -2.1719 1.1438c -1.7606,-0.0000 -2.5060,-1.3108 -2.5060 -2.7116c 0.0000,-1.9534 1.2851,-3.1229 2.5060 -3.1229c 1.6964,-0.0000 2.0948,1.3237 2.0948 2.4032c 0.0000,0.1414 -0.0900,0.2185 -0.2313 0.2185h -3.3799 c -0.0129,0.0771 -0.0129,0.1542 -0.0129 0.2570c 0.0000,1.3108 0.9124,2.3261 1.8377 2.3261c 0.7068,-0.0000 1.1566,-0.2313 1.6064 -0.7197Z"/></g><g stroke-linejoin="miter" stroke-opacity="0.6" fill-opacity="0.0" stroke="rgb(255,127,14)" stroke-width="8.664318479443537" fill="rgb(0,0,0)" stroke-linecap="butt" stroke-miterlimit="10.0"><path d="M 491.9931,261.3876 h 11.0705 "/></g><g stroke-linejoin="miter" stroke-opacity="1.0" fill-opacity="0.63" stroke="rgb(0,0,0)" fill-rule="evenodd" stroke-width="0.0" fill="rgb(0,0,0)" stroke-linecap="butt" stroke-miterlimit="10.0"><path d="M 507.4918,239.2466 ZM 509.5866,230.2763 v 4.3566 c 0.8610,-0.8610 1.6193,-1.0667 2.1205 -1.0667c 0.9253,-0.0000 1.3879,0.7068 1.3879 2.0305v 2.7245 c 0.0000,0.3727 0.1285,0.5655 0.5526 0.5655h 0.2442 c 0.0514,-0.0000 0.1028,0.0386 0.1028 0.1028v 0.2442 l -0.0257,0.0257 c 0.0000,-0.0000 -0.8739,-0.0257 -1.3879 -0.0257c -0.4498,-0.0000 -1.3237,0.0257 -1.3237 0.0257l -0.0257,-0.0257 v -0.2442 c 0.0000,-0.0643 0.0386,-0.1028 0.1028 -0.1028h 0.2442 c 0.4369,-0.0000 0.5526,-0.1928 0.5526 -0.5655v -2.8658 c 0.0000,-1.0410 -0.2827,-1.2851 -1.0024 -1.2851c -0.3727,-0.0000 -0.9253,0.3341 -1.5422 0.9381v 3.2128 c 0.0000,0.3727 0.1285,0.5655 0.5526 0.5655h 0.2442 c 0.0514,-0.0000 0.1028,0.0386 0.1028 0.1028v 0.2442 l -0.0257,0.0257 c 0.0000,-0.0000 -0.8739,-0.0257 -1.3751 -0.0257c -0.4626,-0.0000 -1.3237,0.0257 -1.3237 0.0257l -0.0257,-0.0257 v -0.2442 c 0.0000,-0.0643 0.0257,-0.1028 0.0900 -0.1028h 0.2442 c 0.4369,-0.0000 0.5526,-0.1928 0.5526 -0.5655v -6.4385 c 0.0000,-0.7325 -0.1157,-0.9381 -0.3727 -0.9381l -0.4241,0.0514 c -0.0386,-0.0000 -0.0643,-0.0257 -0.0643 -0.0643l -0.0257,-0.3213 c 0.2056,-0.0000 0.6683,-0.0771 0.8867 -0.1157c 0.2313,-0.0514 0.4241,-0.1028 0.6811 -0.2185h 0.2827 ZM 514.1488,239.2466 ZM 514.5858,236.6121 c 0.0000,-1.7606 0.9510,-3.0458 2.6602 -3.0458c 1.9020,-0.0000 2.6345,1.5936 2.6345 2.9301c 0.0000,1.2851 -0.8353,2.9044 -2.6602 2.9044c -1.7221,-0.0000 -2.6345,-1.4779 -2.6345 -2.7887ZM 514.5858,236.6121 ZM 517.1046,233.9904 c -1.0281,-0.0000 -1.5036,1.2080 -1.5036 2.3261c 0.0000,0.9896 0.5655,2.6345 1.8377 2.6345c 0.5783,-0.0000 1.4265,-0.3470 1.4265 -2.0434c 0.0000,-1.8891 -0.7068,-2.9173 -1.7606 -2.9173ZM 520.3046,239.2466 ZM 527.0772,236.6121 v 1.7092 c 0.0000,0.3727 0.1414,0.5655 0.5526 0.5655h 0.0257 c 0.0643,-0.0000 0.1157,0.0386 0.1157 0.1028v 0.2442 l -0.0257,0.0257 c 0.0000,-0.0000 -0.6683,-0.0257 -1.1695 -0.0257c -0.4498,-0.0000 -1.3237,0.0257 -1.3237 0.0257l -0.0257,-0.0257 v -0.2442 c 0.0000,-0.0643 0.0386,-0.1028 0.1028 -0.1028h 0.2442 c 0.4241,-0.0000 0.5526,-0.1928 0.5526 -0.5655v -6.5028 c 0.0000,-0.6040 -0.1285,-0.8739 -0.3855 -0.8739c 0.0000,-0.0000 -0.1928,0.0257 -0.3213 0.0386c -0.0386,-0.0000 -0.0900,0.0129 -0.1028 0.0129c -0.0386,-0.0000 -0.0643,-0.0386 -0.0643 -0.0643l -0.0257,-0.3213 c 0.2056,-0.0000 0.6811,-0.0771 0.8996 -0.1157c 0.2313,-0.0514 0.4112,-0.1028 0.6683 -0.2185h 0.2827 v 5.9373 c 0.5655,-0.2827 0.9896,-0.6811 1.6964 -1.4265c 0.1928,-0.2056 0.2570,-0.3727 0.2570 -0.5012c 0.0000,-0.1028 -0.0771,-0.2056 -0.3855 -0.2056h -0.0386 c -0.0643,-0.0000 -0.1157,-0.0514 -0.1157 -0.1028v -0.2442 l 0.0386,-0.0257 c 0.0000,-0.0000 0.6169,0.0257 1.0667 0.0257c 0.5012,-0.0000 1.1952,-0.0257 1.1952 -0.0257l 0.0514,0.0257 v 0.2442 c 0.0000,0.0643 -0.0771,0.1028 -0.1285 0.1028h -0.1028 c -0.3470,-0.0000 -0.9124,0.2827 -1.2209 0.6169l -0.9896,1.0795 c -0.0386,0.0386 -0.0514,0.0771 -0.0514 0.1285c 0.0000,0.0643 0.0257,0.1285 0.0643 0.1799l 1.5165,2.2233 c 0.2313,0.3470 0.6297,0.5783 0.9510 0.5783h 0.0386 c 0.0900,-0.0000 0.1671,0.0386 0.1671 0.1028v 0.2313 l -0.0257,0.0386 c 0.0000,-0.0000 -0.6426,-0.0257 -1.1438 -0.0257c -0.4626,-0.0000 -0.7968,0.0257 -0.7968 0.0257l -0.0386,-0.0514 v -0.2185 c 0.0000,-0.1542 -0.0386,-0.3084 -0.2956 -0.6811l -0.9510,-1.3237 c -0.1671,-0.2442 -0.3213,-0.4626 -0.6169 -0.4626c -0.0514,-0.0000 -0.0900,-0.0000 -0.1414 0.0129v 0.0771 ZM 527.0772,236.6121 ZM 525.1110,238.0385 c -0.5655,0.9767 -1.1823,1.3237 -1.9406 1.3237c -1.5422,-0.0000 -2.3903,-1.1823 -2.3903 -2.8401c 0.0000,-1.8249 1.0281,-2.9815 2.4032 -2.9815c 1.2337,-0.0000 1.8891,0.6297 1.8891 1.3108c 0.0000,0.3855 -0.2313,0.5655 -0.4884 0.5655c -0.2827,-0.0000 -0.5398,-0.1414 -0.5783 -0.4498c -0.0386,-0.4369 -0.1285,-0.9896 -0.8867 -0.9896c -0.8482,-0.0000 -1.3494,0.8739 -1.3494 2.2618c 0.0000,1.5036 0.6811,2.5574 1.6835 2.5574c 0.5526,-0.0000 1.0281,-0.3598 1.4265 -0.9381ZM 531.0740,239.2466 ZM 532.5391,235.6868 h 2.3646 c 0.1285,-0.0000 0.1799,-0.0643 0.1799 -0.1799c 0.0000,-1.1952 -0.6040,-1.5036 -1.0667 -1.5036c -0.2956,-0.0000 -1.2594,0.1157 -1.4779 1.6835ZM 532.5391,235.6868 ZM 535.9318,238.0514 l 0.2570,0.2056 c -0.4884,0.6683 -1.2466,1.1438 -2.1719 1.1438c -1.7606,-0.0000 -2.5060,-1.3108 -2.5060 -2.7116c 0.0000,-1.9534 1.2851,-3.1229 2.5060 -3.1229c 1.6964,-0.0000 2.0948,1.3237 2.0948 2.4032c 0.0000,0.1414 -0.0900,0.2185 -0.2313 0.2185h -3.3799 c -0.0129,0.0771 -0.0129,0.1542 -0.0129 0.2570c 0.0000,1.3108 0.9124,2.3261 1.8377 2.3261c 0.7068,-0.0000 1.1566,-0.2313 1.6064 -0.7197ZM 536.5744,239.2466 ZM 539.2474,233.9775 c 0.0000,0.0643 -0.0771,0.1028 -0.1414 0.1028c -0.3855,-0.0000 -0.5526,0.0771 -0.5526 0.2827c 0.0000,0.0771 0.0257,0.1799 0.0771 0.2956l 1.4136,3.3156 l 1.4265,-3.2642 c 0.0643,-0.1157 0.0900,-0.2185 0.0900 -0.2956c 0.0000,-0.2699 -0.2570,-0.3341 -0.5398 -0.3341h -0.0514 c -0.0643,-0.0000 -0.1285,-0.0514 -0.1285 -0.0900v -0.2442 l 0.0257,-0.0386 c 0.0000,-0.0000 0.7582,0.0257 1.2080 0.0257c 0.3598,-0.0000 0.8867,-0.0257 0.8867 -0.0257l 0.0386,0.0257 v 0.2442 c 0.0000,0.0643 -0.0514,0.1028 -0.1414 0.1028c -0.4884,-0.0000 -0.7325,0.5012 -0.9124 0.8739c -0.6811,1.4393 -1.2466,2.7630 -2.2747 5.2433c -0.3855,0.9253 -0.8482,2.0048 -1.7606 2.0048c -0.2442,-0.0000 -0.7454,-0.1414 -0.7454 -0.6040c 0.0000,-0.3855 0.2827,-0.5012 0.4884 -0.5012c 0.1928,-0.0000 0.3213,0.0771 0.3984 0.1799c 0.1285,0.1285 0.2185,0.2185 0.3470 0.2185c 0.1928,-0.0000 0.6426,-1.1052 0.9638 -1.8891c 0.0771,-0.1542 0.1028,-0.2827 0.1028 -0.3984c 0.0000,-0.1285 -0.1157,-0.4755 -0.2185 -0.7325l -1.6193,-3.7654 c -0.2056,-0.4884 -0.3470,-0.6297 -0.7839 -0.6297c -0.0771,-0.0000 -0.1285,-0.0386 -0.1285 -0.0900v -0.2570 l 0.0257,-0.0257 c 0.0000,-0.0000 0.5655,0.0257 0.9510 0.0257c 0.6040,-0.0000 1.5293,-0.0257 1.5293 -0.0257l 0.0257,0.0386 v 0.2313 ZM 546.3285,239.2466 ZM 546.8811,237.4474 l 0.3470,-0.0129 c 0.0386,0.3213 0.1799,0.9381 0.4626 1.2337c 0.1285,0.1414 0.4755,0.3727 0.9510 0.3727c 0.4498,-0.0000 1.1181,-0.3598 1.1181 -0.9896c 0.0000,-0.5526 -0.3084,-0.9253 -1.3237 -1.3622c -0.9381,-0.4112 -1.4265,-0.6811 -1.4265 -1.6450c 0.0000,-0.8610 0.7582,-1.4779 1.7735 -1.4779c 0.6426,-0.0000 1.1181,0.1157 1.5165 0.3213c 0.0771,0.4112 0.1157,0.8482 0.1414 1.3108l -0.3470,0.0129 c -0.2699,-1.0538 -1.0410,-1.2594 -1.3108 -1.2594c -0.4884,-0.0000 -0.9896,0.1928 -0.9896 0.8996c 0.0000,0.5141 0.2442,0.7711 0.9510 1.0281c 1.0410,0.3855 1.8763,0.8482 1.8763 1.8763c 0.0000,1.2723 -1.3494,1.6450 -1.9534 1.6450c -0.4498,-0.0000 -0.8225,-0.0514 -1.1566 -0.1414c -0.0900,-0.0129 -0.1542,-0.0257 -0.2442 -0.0257c -0.0643,-0.0000 -0.1671,0.0129 -0.2956 0.0386c 0.0000,-0.5398 -0.0386,-1.1952 -0.0900 -1.8249ZM 551.0964,239.2466 ZM 553.2040,234.2217 v 3.2899 c 0.0000,0.7968 0.0771,1.1823 0.4241 1.1823c 0.3341,-0.0000 0.5912,-0.1028 0.9253 -0.3598l 0.2313,0.2185 c -0.5012,0.5655 -1.0153,0.8482 -1.6064 0.8482c -0.5912,-0.0000 -0.9381,-0.3598 -0.9381 -1.2723v -3.9068 h -0.8353 c -0.0386,-0.0000 -0.0514,-0.0129 -0.0514 -0.0514v -0.3984 c 0.0000,-0.0386 0.0129,-0.0514 0.0386 -0.0514c 0.8610,-0.0000 1.0667,-0.5012 1.0667 -1.4779v -0.2442 l 0.7454,-0.2570 v 1.9791 h 1.4136 c 0.0643,-0.0000 0.1028,0.0257 0.1028 0.0771v 0.2570 c 0.0000,0.1157 -0.1799,0.1671 -0.3084 0.1671h -1.2080 ZM 554.9775,239.2466 ZM 555.9799,231.9085 c 0.0000,-0.3341 0.2699,-0.6169 0.6040 -0.6169c 0.3470,-0.0000 0.6169,0.2827 0.6169 0.6169c 0.0000,0.3470 -0.2699,0.6169 -0.6169 0.6169c -0.3341,-0.0000 -0.6040,-0.2699 -0.6040 -0.6169ZM 555.9799,231.9085 ZM 557.2007,238.3213 c 0.0000,0.3727 0.1414,0.5655 0.5526 0.5655h 0.2442 c 0.0643,-0.0000 0.1157,0.0386 0.1157 0.1028v 0.2442 l -0.0257,0.0257 c 0.0000,-0.0000 -0.8867,-0.0257 -1.3879 -0.0257c -0.4498,-0.0000 -1.3237,0.0257 -1.3237 0.0257l -0.0257,-0.0257 v -0.2442 c 0.0000,-0.0643 0.0386,-0.1028 0.1028 -0.1028h 0.2442 c 0.4241,-0.0000 0.5526,-0.1928 0.5526 -0.5655v -3.2000 c 0.0000,-0.6811 -0.1157,-0.7839 -0.2956 -0.7839c -0.1671,-0.0000 -0.3213,0.0129 -0.5398 0.0643l -0.0643,-0.3598 c 0.8225,-0.1414 0.9638,-0.1928 1.3365 -0.3727c 0.1414,-0.0514 0.2313,-0.1028 0.3213 -0.1028h 0.1928 v 4.7550 ZM 558.3702,239.2466 ZM 565.1429,236.6121 v 1.7092 c 0.0000,0.3727 0.1414,0.5655 0.5526 0.5655h 0.0257 c 0.0643,-0.0000 0.1157,0.0386 0.1157 0.1028v 0.2442 l -0.0257,0.0257 c 0.0000,-0.0000 -0.6683,-0.0257 -1.1695 -0.0257c -0.4498,-0.0000 -1.3237,0.0257 -1.3237 0.0257l -0.0257,-0.0257 v -0.2442 c 0.0000,-0.0643 0.0386,-0.1028 0.1028 -0.1028h 0.2442 c 0.4241,-0.0000 0.5526,-0.1928 0.5526 -0.5655v -6.5028 c 0.0000,-0.6040 -0.1285,-0.8739 -0.3855 -0.8739c 0.0000,-0.0000 -0.1928,0.0257 -0.3213 0.0386c -0.0386,-0.0000 -0.0900,0.0129 -0.1028 0.0129c -0.0386,-0.0000 -0.0643,-0.0386 -0.0643 -0.0643l -0.0257,-0.3213 c 0.2056,-0.0000 0.6811,-0.0771 0.8996 -0.1157c 0.2313,-0.0514 0.4112,-0.1028 0.6683 -0.2185h 0.2827 v 5.9373 c 0.5655,-0.2827 0.9896,-0.6811 1.6964 -1.4265c 0.1928,-0.2056 0.2570,-0.3727 0.2570 -0.5012c 0.0000,-0.1028 -0.0771,-0.2056 -0.3855 -0.2056h -0.0386 c -0.0643,-0.0000 -0.1157,-0.0514 -0.1157 -0.1028v -0.2442 l 0.0386,-0.0257 c 0.0000,-0.0000 0.6169,0.0257 1.0667 0.0257c 0.5012,-0.0000 1.1952,-0.0257 1.1952 -0.0257l 0.0514,0.0257 v 0.2442 c 0.0000,0.0643 -0.0771,0.1028 -0.1285 0.1028h -0.1028 c -0.3470,-0.0000 -0.9124,0.2827 -1.2209 0.6169l -0.9896,1.0795 c -0.0386,0.0386 -0.0514,0.0771 -0.0514 0.1285c 0.0000,0.0643 0.0257,0.1285 0.0643 0.1799l 1.5165,2.2233 c 0.2313,0.3470 0.6297,0.5783 0.9510 0.5783h 0.0386 c 0.0900,-0.0000 0.1671,0.0386 0.1671 0.1028v 0.2313 l -0.0257,0.0386 c 0.0000,-0.0000 -0.6426,-0.0257 -1.1438 -0.0257c -0.4626,-0.0000 -0.7968,0.0257 -0.7968 0.0257l -0.0386,-0.0514 v -0.2185 c 0.0000,-0.1542 -0.0386,-0.3084 -0.2956 -0.6811l -0.9510,-1.3237 c -0.1671,-0.2442 -0.3213,-0.4626 -0.6169 -0.4626c -0.0514,-0.0000 -0.0900,-0.0000 -0.1414 0.0129v 0.0771 ZM 565.1429,236.6121 ZM 563.1766,238.0385 c -0.5655,0.9767 -1.1823,1.3237 -1.9406 1.3237c -1.5422,-0.0000 -2.3903,-1.1823 -2.3903 -2.8401c 0.0000,-1.8249 1.0281,-2.9815 2.4032 -2.9815c 1.2337,-0.0000 1.8891,0.6297 1.8891 1.3108c 0.0000,0.3855 -0.2313,0.5655 -0.4884 0.5655c -0.2827,-0.0000 -0.5398,-0.1414 -0.5783 -0.4498c -0.0386,-0.4369 -0.1285,-0.9896 -0.8867 -0.9896c -0.8482,-0.0000 -1.3494,0.8739 -1.3494 2.2618c 0.0000,1.5036 0.6811,2.5574 1.6835 2.5574c 0.5526,-0.0000 1.0281,-0.3598 1.4265 -0.9381Z"/></g><g stroke-linejoin="miter" stroke-opacity="0.6" fill-opacity="0.0" stroke="rgb(31,119,180)" stroke-width="4.3321592397217685" fill="rgb(0,0,0)" stroke-linecap="butt" stroke-miterlimit="10.0"><path d="M 491.9931,239.2466 h 11.0705 "/></g><g stroke-linejoin="miter" stroke-opacity="0.2" fill-opacity="0.0" stroke="rgb(0,0,0)" stroke-width="0.8664318479443537" fill="rgb(0,0,0)" stroke-linecap="butt" stroke-miterlimit="10.0"><path d="M 572.9970,290.5272 l -0.0000,-65.7588 h -84.8612 l -0.0000,65.7588 Z"/></g><g stroke-linejoin="miter" stroke-opacity="0.0" fill-opacity="0.1" stroke="rgb(0,0,0)" stroke-width="0.0" fill="rgb(0,0,0)" stroke-linecap="butt" stroke-miterlimit="10.0"><path d="M 106.7268,290.5272 l -0.0000,-221.4100 h -4.4282 l -0.0000,221.4100 Z"/></g><g stroke-linejoin="miter" stroke-opacity="1.0" fill-opacity="0.6" stroke="rgb(0,0,0)" fill-rule="evenodd" stroke-width="0.0" fill="rgb(0,0,0)" stroke-linecap="butt" stroke-miterlimit="10.0"><path d="M 80.6808,69.1172 ZM 85.2192,66.6351 c 0.0000,-1.5128 -0.8225,-2.2618 -1.7331 -2.2618c -0.6756,-0.0000 -1.1897,0.1028 -1.7625 0.3378l 0.4700,-4.0096 c 0.4847,0.0441 0.9840,0.0587 1.4981 0.0587c 0.7344,-0.0000 1.4981,-0.0441 2.2912 -0.1322l 0.0881,0.0441 l -0.2203,0.9547 c -0.5728,0.0587 -1.0428,0.0734 -1.4540 0.0734c -0.6609,-0.0000 -1.1603,-0.0587 -1.6743 -0.1175l -0.2791,2.3206 c 0.3084,-0.1175 0.8372,-0.2203 1.4100 -0.2203c 1.5568,-0.0000 2.4234,1.3512 2.4234 2.7025c 0.0000,1.6450 -1.1456,2.9081 -2.8053 2.9081c -0.8372,-0.0000 -2.0562,-0.4700 -2.0562 -1.0428c 0.0000,-0.2791 0.2350,-0.4700 0.4994 -0.4700c 0.2937,-0.0000 0.4847,0.2203 0.6609 0.4553c 0.2203,0.2644 0.4553,0.5581 0.9253 0.5581c 0.9400,-0.0000 1.7184,-0.8812 1.7184 -2.1590ZM 87.1138,69.1172 ZM 87.9510,68.5150 c 0.0000,-0.4259 0.3525,-0.7784 0.7784 -0.7784c 0.4259,-0.0000 0.7784,0.3525 0.7784 0.7784c 0.0000,0.4259 -0.3525,0.7784 -0.7784 0.7784c -0.4259,-0.0000 -0.7784,-0.3525 -0.7784 -0.7784ZM 90.3303,69.1172 ZM 93.5468,61.1421 c -0.6316,-0.0000 -1.5568,0.6169 -1.5568 4.0390c 0.0000,1.2044 0.2203,3.6277 1.5128 3.6277c 0.2497,-0.0000 0.9547,-0.1616 1.2631 -1.3072c 0.1909,-0.7050 0.2937,-1.5862 0.2937 -2.8640c 0.0000,-1.8653 -0.4700,-2.9081 -0.8959 -3.2753c -0.1616,-0.1469 -0.3819,-0.2203 -0.6169 -0.2203ZM 93.5468,61.1421 ZM 93.4881,69.2935 c -1.5715,-0.0000 -2.6290,-2.0122 -2.6290 -4.2593c 0.0000,-2.7465 1.3072,-4.4062 2.6878 -4.4062c 0.6316,-0.0000 1.2631,0.3966 1.6890 0.9694c 0.6169,0.8225 0.9400,1.9240 0.9400 3.3046c 0.0000,3.2606 -1.6156,4.3915 -2.6878 4.3915Z"/></g><g stroke-linejoin="miter" stroke-opacity="0.6" fill-opacity="0.0" stroke="rgb(0,0,0)" stroke-width="2.1660796198608843" fill="rgb(0,0,0)" stroke-linecap="butt" stroke-miterlimit="10.0"><path d="M 100.0845,69.1172 h 6.6423 "/></g><g stroke-linejoin="miter" stroke-opacity="1.0" fill-opacity="0.6" stroke="rgb(0,0,0)" fill-rule="evenodd" stroke-width="0.0" fill="rgb(0,0,0)" stroke-linecap="butt" stroke-miterlimit="10.0"><path d="M 80.6808,91.2582 ZM 84.4701,86.0443 c 0.0000,-0.1028 0.0147,-0.2203 0.1469 -0.2937c 0.1616,-0.1175 0.4259,-0.2497 0.6462 -0.2497c 0.1909,-0.0000 0.2056,0.1616 0.2056 0.4553v 2.3646 h 1.1897 l -0.0881,0.6903 h -1.1015 v 1.2190 c 0.0000,0.4112 0.0587,0.6169 0.4847 0.6169h 0.3966 c 0.0881,-0.0000 0.1028,0.0734 0.1028 0.1028v 0.3231 c 0.0000,-0.0000 -0.9400,-0.0294 -1.5568 -0.0294c -0.5581,-0.0000 -1.4247,0.0294 -1.4247 0.0294v -0.3231 c 0.0000,-0.0294 0.0147,-0.1028 0.1028 -0.1028h 0.3966 c 0.4553,-0.0000 0.4994,-0.1909 0.4994 -0.6169v -1.2190 h -2.8787 c -0.0587,-0.0000 -0.0881,-0.0294 -0.1322 -0.0881l -0.1175,-0.1616 l -0.1762,-0.3084 c -0.0147,-0.0000 -0.0147,-0.0147 -0.0147 -0.0294c 0.0000,-0.0147 0.0147,-0.0294 0.0294 -0.0441c 0.9547,-1.0575 2.6437,-4.3327 3.1724 -5.5371c 0.0147,-0.0587 0.0441,-0.0734 0.1028 -0.0734c 0.0147,-0.0000 0.3378,0.1322 0.5141 0.1616c -0.6609,1.7772 -1.7478,3.6865 -2.8199 5.3902h 2.3206 v -2.2765 ZM 87.1138,91.2582 ZM 87.9510,90.6560 c 0.0000,-0.4259 0.3525,-0.7784 0.7784 -0.7784c 0.4259,-0.0000 0.7784,0.3525 0.7784 0.7784c 0.0000,0.4259 -0.3525,0.7784 -0.7784 0.7784c -0.4259,-0.0000 -0.7784,-0.3525 -0.7784 -0.7784ZM 90.3303,91.2582 ZM 94.8687,88.7761 c 0.0000,-1.5128 -0.8225,-2.2618 -1.7331 -2.2618c -0.6756,-0.0000 -1.1897,0.1028 -1.7625 0.3378l 0.4700,-4.0096 c 0.4847,0.0441 0.9840,0.0587 1.4981 0.0587c 0.7344,-0.0000 1.4981,-0.0441 2.2912 -0.1322l 0.0881,0.0441 l -0.2203,0.9547 c -0.5728,0.0587 -1.0428,0.0734 -1.4540 0.0734c -0.6609,-0.0000 -1.1603,-0.0587 -1.6743 -0.1175l -0.2791,2.3206 c 0.3084,-0.1175 0.8372,-0.2203 1.4100 -0.2203c 1.5568,-0.0000 2.4234,1.3512 2.4234 2.7025c 0.0000,1.6450 -1.1456,2.9081 -2.8053 2.9081c -0.8372,-0.0000 -2.0562,-0.4700 -2.0562 -1.0428c 0.0000,-0.2791 0.2350,-0.4700 0.4994 -0.4700c 0.2937,-0.0000 0.4847,0.2203 0.6609 0.4553c 0.2203,0.2644 0.4553,0.5581 0.9253 0.5581c 0.9400,-0.0000 1.7184,-0.8812 1.7184 -2.1590Z"/></g><g stroke-linejoin="miter" stroke-opacity="0.6" fill-opacity="0.0" stroke="rgb(0,0,0)" stroke-width="2.1660796198608843" fill="rgb(0,0,0)" stroke-linecap="butt" stroke-miterlimit="10.0"><path d="M 100.0845,91.2582 h 6.6423 "/></g><g stroke-linejoin="miter" stroke-opacity="1.0" fill-opacity="0.6" stroke="rgb(0,0,0)" fill-rule="evenodd" stroke-width="0.0" fill="rgb(0,0,0)" stroke-linecap="butt" stroke-miterlimit="10.0"><path d="M 80.6808,113.3992 ZM 84.4701,108.1853 c 0.0000,-0.1028 0.0147,-0.2203 0.1469 -0.2937c 0.1616,-0.1175 0.4259,-0.2497 0.6462 -0.2497c 0.1909,-0.0000 0.2056,0.1616 0.2056 0.4553v 2.3646 h 1.1897 l -0.0881,0.6903 h -1.1015 v 1.2190 c 0.0000,0.4112 0.0587,0.6169 0.4847 0.6169h 0.3966 c 0.0881,-0.0000 0.1028,0.0734 0.1028 0.1028v 0.3231 c 0.0000,-0.0000 -0.9400,-0.0294 -1.5568 -0.0294c -0.5581,-0.0000 -1.4247,0.0294 -1.4247 0.0294v -0.3231 c 0.0000,-0.0294 0.0147,-0.1028 0.1028 -0.1028h 0.3966 c 0.4553,-0.0000 0.4994,-0.1909 0.4994 -0.6169v -1.2190 h -2.8787 c -0.0587,-0.0000 -0.0881,-0.0294 -0.1322 -0.0881l -0.1175,-0.1616 l -0.1762,-0.3084 c -0.0147,-0.0000 -0.0147,-0.0147 -0.0147 -0.0294c 0.0000,-0.0147 0.0147,-0.0294 0.0294 -0.0441c 0.9547,-1.0575 2.6437,-4.3327 3.1724 -5.5371c 0.0147,-0.0587 0.0441,-0.0734 0.1028 -0.0734c 0.0147,-0.0000 0.3378,0.1322 0.5141 0.1616c -0.6609,1.7772 -1.7478,3.6865 -2.8199 5.3902h 2.3206 v -2.2765 ZM 87.1138,113.3992 ZM 87.9510,112.7970 c 0.0000,-0.4259 0.3525,-0.7784 0.7784 -0.7784c 0.4259,-0.0000 0.7784,0.3525 0.7784 0.7784c 0.0000,0.4259 -0.3525,0.7784 -0.7784 0.7784c -0.4259,-0.0000 -0.7784,-0.3525 -0.7784 -0.7784ZM 90.3303,113.3992 ZM 93.5468,105.4241 c -0.6316,-0.0000 -1.5568,0.6169 -1.5568 4.0390c 0.0000,1.2044 0.2203,3.6277 1.5128 3.6277c 0.2497,-0.0000 0.9547,-0.1616 1.2631 -1.3072c 0.1909,-0.7050 0.2937,-1.5862 0.2937 -2.8640c 0.0000,-1.8653 -0.4700,-2.9081 -0.8959 -3.2753c -0.1616,-0.1469 -0.3819,-0.2203 -0.6169 -0.2203ZM 93.5468,105.4241 ZM 93.4881,113.5755 c -1.5715,-0.0000 -2.6290,-2.0122 -2.6290 -4.2593c 0.0000,-2.7465 1.3072,-4.4062 2.6878 -4.4062c 0.6316,-0.0000 1.2631,0.3966 1.6890 0.9694c 0.6169,0.8225 0.9400,1.9240 0.9400 3.3046c 0.0000,3.2606 -1.6156,4.3915 -2.6878 4.3915Z"/></g><g stroke-linejoin="miter" stroke-opacity="0.6" fill-opacity="0.0" stroke="rgb(0,0,0)" stroke-width="2.1660796198608843" fill="rgb(0,0,0)" stroke-linecap="butt" stroke-miterlimit="10.0"><path d="M 100.0845,113.3992 h 6.6423 "/></g><g stroke-linejoin="miter" stroke-opacity="1.0" fill-opacity="0.6" stroke="rgb(0,0,0)" fill-rule="evenodd" stroke-width="0.0" fill="rgb(0,0,0)" stroke-linecap="butt" stroke-miterlimit="10.0"><path d="M 80.6808,135.5402 ZM 83.8533,127.5063 c -0.3672,-0.0000 -1.4393,0.2056 -1.4393 1.1015c 0.0000,0.2644 -0.1028,0.7197 -0.4994 0.7197c -0.3819,-0.0000 -0.4112,-0.4259 -0.4112 -0.4700c 0.0000,-0.4553 0.6022,-1.8065 2.6437 -1.8065c 1.4247,-0.0000 1.8506,0.8959 1.8506 1.4834c 0.0000,0.3672 -0.1175,1.1015 -1.4393 1.9387c 0.8225,0.1322 1.9093,0.7344 1.9093 2.2618c 0.0000,1.9387 -1.4687,2.9815 -3.1284 2.9815c -0.8372,-0.0000 -2.0122,-0.3672 -2.0122 -0.9253c 0.0000,-0.2203 0.2203,-0.4700 0.5141 -0.4700c 0.2791,-0.0000 0.4112,0.1469 0.5434 0.3378c 0.1616,0.2497 0.4259,0.6022 1.1309 0.6022c 0.4847,-0.0000 1.8653,-0.4847 1.8653 -2.3353c 0.0000,-1.5715 -1.1015,-1.8212 -1.8947 -1.8212c -0.1322,-0.0000 -0.2937,0.0294 -0.4553 0.0587l -0.0587,-0.4406 c 1.1309,-0.1909 2.0709,-1.2925 2.0709 -1.9681c 0.0000,-0.8372 -0.5875,-1.2484 -1.1897 -1.2484ZM 87.1138,135.5402 ZM 87.9510,134.9380 c 0.0000,-0.4259 0.3525,-0.7784 0.7784 -0.7784c 0.4259,-0.0000 0.7784,0.3525 0.7784 0.7784c 0.0000,0.4259 -0.3525,0.7784 -0.7784 0.7784c -0.4259,-0.0000 -0.7784,-0.3525 -0.7784 -0.7784ZM 90.3303,135.5402 ZM 94.8687,133.0581 c 0.0000,-1.5128 -0.8225,-2.2618 -1.7331 -2.2618c -0.6756,-0.0000 -1.1897,0.1028 -1.7625 0.3378l 0.4700,-4.0096 c 0.4847,0.0441 0.9840,0.0587 1.4981 0.0587c 0.7344,-0.0000 1.4981,-0.0441 2.2912 -0.1322l 0.0881,0.0441 l -0.2203,0.9547 c -0.5728,0.0587 -1.0428,0.0734 -1.4540 0.0734c -0.6609,-0.0000 -1.1603,-0.0587 -1.6743 -0.1175l -0.2791,2.3206 c 0.3084,-0.1175 0.8372,-0.2203 1.4100 -0.2203c 1.5568,-0.0000 2.4234,1.3512 2.4234 2.7025c 0.0000,1.6450 -1.1456,2.9081 -2.8053 2.9081c -0.8372,-0.0000 -2.0562,-0.4700 -2.0562 -1.0428c 0.0000,-0.2791 0.2350,-0.4700 0.4994 -0.4700c 0.2937,-0.0000 0.4847,0.2203 0.6609 0.4553c 0.2203,0.2644 0.4553,0.5581 0.9253 0.5581c 0.9400,-0.0000 1.7184,-0.8812 1.7184 -2.1590Z"/></g><g stroke-linejoin="miter" stroke-opacity="0.6" fill-opacity="0.0" stroke="rgb(0,0,0)" stroke-width="2.1660796198608843" fill="rgb(0,0,0)" stroke-linecap="butt" stroke-miterlimit="10.0"><path d="M 100.0845,135.5402 h 6.6423 "/></g><g stroke-linejoin="miter" stroke-opacity="1.0" fill-opacity="0.6" stroke="rgb(0,0,0)" fill-rule="evenodd" stroke-width="0.0" fill="rgb(0,0,0)" stroke-linecap="butt" stroke-miterlimit="10.0"><path d="M 80.6808,157.6812 ZM 83.8533,149.6473 c -0.3672,-0.0000 -1.4393,0.2056 -1.4393 1.1015c 0.0000,0.2644 -0.1028,0.7197 -0.4994 0.7197c -0.3819,-0.0000 -0.4112,-0.4259 -0.4112 -0.4700c 0.0000,-0.4553 0.6022,-1.8065 2.6437 -1.8065c 1.4247,-0.0000 1.8506,0.8959 1.8506 1.4834c 0.0000,0.3672 -0.1175,1.1015 -1.4393 1.9387c 0.8225,0.1322 1.9093,0.7344 1.9093 2.2618c 0.0000,1.9387 -1.4687,2.9815 -3.1284 2.9815c -0.8372,-0.0000 -2.0122,-0.3672 -2.0122 -0.9253c 0.0000,-0.2203 0.2203,-0.4700 0.5141 -0.4700c 0.2791,-0.0000 0.4112,0.1469 0.5434 0.3378c 0.1616,0.2497 0.4259,0.6022 1.1309 0.6022c 0.4847,-0.0000 1.8653,-0.4847 1.8653 -2.3353c 0.0000,-1.5715 -1.1015,-1.8212 -1.8947 -1.8212c -0.1322,-0.0000 -0.2937,0.0294 -0.4553 0.0587l -0.0587,-0.4406 c 1.1309,-0.1909 2.0709,-1.2925 2.0709 -1.9681c 0.0000,-0.8372 -0.5875,-1.2484 -1.1897 -1.2484ZM 87.1138,157.6812 ZM 87.9510,157.0790 c 0.0000,-0.4259 0.3525,-0.7784 0.7784 -0.7784c 0.4259,-0.0000 0.7784,0.3525 0.7784 0.7784c 0.0000,0.4259 -0.3525,0.7784 -0.7784 0.7784c -0.4259,-0.0000 -0.7784,-0.3525 -0.7784 -0.7784ZM 90.3303,157.6812 ZM 93.5468,149.7061 c -0.6316,-0.0000 -1.5568,0.6169 -1.5568 4.0390c 0.0000,1.2044 0.2203,3.6277 1.5128 3.6277c 0.2497,-0.0000 0.9547,-0.1616 1.2631 -1.3072c 0.1909,-0.7050 0.2937,-1.5862 0.2937 -2.8640c 0.0000,-1.8653 -0.4700,-2.9081 -0.8959 -3.2753c -0.1616,-0.1469 -0.3819,-0.2203 -0.6169 -0.2203ZM 93.5468,149.7061 ZM 93.4881,157.8575 c -1.5715,-0.0000 -2.6290,-2.0122 -2.6290 -4.2593c 0.0000,-2.7465 1.3072,-4.4062 2.6878 -4.4062c 0.6316,-0.0000 1.2631,0.3966 1.6890 0.9694c 0.6169,0.8225 0.9400,1.9240 0.9400 3.3046c 0.0000,3.2606 -1.6156,4.3915 -2.6878 4.3915Z"/></g><g stroke-linejoin="miter" stroke-opacity="0.6" fill-opacity="0.0" stroke="rgb(0,0,0)" stroke-width="2.1660796198608843" fill="rgb(0,0,0)" stroke-linecap="butt" stroke-miterlimit="10.0"><path d="M 100.0845,157.6812 h 6.6423 "/></g><g stroke-linejoin="miter" stroke-opacity="1.0" fill-opacity="0.6" stroke="rgb(0,0,0)" fill-rule="evenodd" stroke-width="0.0" fill="rgb(0,0,0)" stroke-linecap="butt" stroke-miterlimit="10.0"><path d="M 80.6808,179.8222 ZM 81.5327,173.3158 c 0.0000,-0.8372 0.8078,-1.9828 2.3500 -1.9828c 1.1309,-0.0000 2.4528,0.4259 2.4528 2.1150c 0.0000,1.1162 -0.5728,1.6743 -1.3659 2.4381l -1.3953,1.3512 c -0.0734,0.0734 -1.0575,1.0428 -1.0575 1.7331h 2.4968 c 0.4994,-0.0000 0.7637,-0.2497 0.9694 -1.0575l 0.3672,0.0587 l -0.2937,1.8506 h -4.5384 c 0.0000,-0.8225 0.1322,-1.4540 1.4981 -2.8493l 1.0281,-1.0134 c 0.8225,-0.8372 1.1603,-1.5568 1.1603 -2.4528c 0.0000,-1.3365 -0.9106,-1.7184 -1.4100 -1.7184c -1.0134,-0.0000 -1.2925,0.5287 -1.2925 0.8812c 0.0000,0.1175 0.0294,0.2350 0.0587 0.3378c 0.0294,0.1028 0.0587,0.2056 0.0587 0.3231c 0.0000,0.3819 -0.2937,0.5287 -0.5287 0.5287c -0.3231,-0.0000 -0.5581,-0.2497 -0.5581 -0.5434ZM 87.1138,179.8222 ZM 87.9510,179.2200 c 0.0000,-0.4259 0.3525,-0.7784 0.7784 -0.7784c 0.4259,-0.0000 0.7784,0.3525 0.7784 0.7784c 0.0000,0.4259 -0.3525,0.7784 -0.7784 0.7784c -0.4259,-0.0000 -0.7784,-0.3525 -0.7784 -0.7784ZM 90.3303,179.8222 ZM 94.8687,177.3401 c 0.0000,-1.5128 -0.8225,-2.2618 -1.7331 -2.2618c -0.6756,-0.0000 -1.1897,0.1028 -1.7625 0.3378l 0.4700,-4.0096 c 0.4847,0.0441 0.9840,0.0587 1.4981 0.0587c 0.7344,-0.0000 1.4981,-0.0441 2.2912 -0.1322l 0.0881,0.0441 l -0.2203,0.9547 c -0.5728,0.0587 -1.0428,0.0734 -1.4540 0.0734c -0.6609,-0.0000 -1.1603,-0.0587 -1.6743 -0.1175l -0.2791,2.3206 c 0.3084,-0.1175 0.8372,-0.2203 1.4100 -0.2203c 1.5568,-0.0000 2.4234,1.3512 2.4234 2.7025c 0.0000,1.6450 -1.1456,2.9081 -2.8053 2.9081c -0.8372,-0.0000 -2.0562,-0.4700 -2.0562 -1.0428c 0.0000,-0.2791 0.2350,-0.4700 0.4994 -0.4700c 0.2937,-0.0000 0.4847,0.2203 0.6609 0.4553c 0.2203,0.2644 0.4553,0.5581 0.9253 0.5581c 0.9400,-0.0000 1.7184,-0.8812 1.7184 -2.1590Z"/></g><g stroke-linejoin="miter" stroke-opacity="0.6" fill-opacity="0.0" stroke="rgb(0,0,0)" stroke-width="2.1660796198608843" fill="rgb(0,0,0)" stroke-linecap="butt" stroke-miterlimit="10.0"><path d="M 100.0845,179.8222 h 6.6423 "/></g><g stroke-linejoin="miter" stroke-opacity="1.0" fill-opacity="0.6" stroke="rgb(0,0,0)" fill-rule="evenodd" stroke-width="0.0" fill="rgb(0,0,0)" stroke-linecap="butt" stroke-miterlimit="10.0"><path d="M 80.6808,201.9632 ZM 81.5327,195.4568 c 0.0000,-0.8372 0.8078,-1.9828 2.3500 -1.9828c 1.1309,-0.0000 2.4528,0.4259 2.4528 2.1150c 0.0000,1.1162 -0.5728,1.6743 -1.3659 2.4381l -1.3953,1.3512 c -0.0734,0.0734 -1.0575,1.0428 -1.0575 1.7331h 2.4968 c 0.4994,-0.0000 0.7637,-0.2497 0.9694 -1.0575l 0.3672,0.0587 l -0.2937,1.8506 h -4.5384 c 0.0000,-0.8225 0.1322,-1.4540 1.4981 -2.8493l 1.0281,-1.0134 c 0.8225,-0.8372 1.1603,-1.5568 1.1603 -2.4528c 0.0000,-1.3365 -0.9106,-1.7184 -1.4100 -1.7184c -1.0134,-0.0000 -1.2925,0.5287 -1.2925 0.8812c 0.0000,0.1175 0.0294,0.2350 0.0587 0.3378c 0.0294,0.1028 0.0587,0.2056 0.0587 0.3231c 0.0000,0.3819 -0.2937,0.5287 -0.5287 0.5287c -0.3231,-0.0000 -0.5581,-0.2497 -0.5581 -0.5434ZM 87.1138,201.9632 ZM 87.9510,201.3610 c 0.0000,-0.4259 0.3525,-0.7784 0.7784 -0.7784c 0.4259,-0.0000 0.7784,0.3525 0.7784 0.7784c 0.0000,0.4259 -0.3525,0.7784 -0.7784 0.7784c -0.4259,-0.0000 -0.7784,-0.3525 -0.7784 -0.7784ZM 90.3303,201.9632 ZM 93.5468,193.9881 c -0.6316,-0.0000 -1.5568,0.6169 -1.5568 4.0390c 0.0000,1.2044 0.2203,3.6277 1.5128 3.6277c 0.2497,-0.0000 0.9547,-0.1616 1.2631 -1.3072c 0.1909,-0.7050 0.2937,-1.5862 0.2937 -2.8640c 0.0000,-1.8653 -0.4700,-2.9081 -0.8959 -3.2753c -0.1616,-0.1469 -0.3819,-0.2203 -0.6169 -0.2203ZM 93.5468,193.9881 ZM 93.4881,202.1395 c -1.5715,-0.0000 -2.6290,-2.0122 -2.6290 -4.2593c 0.0000,-2.7465 1.3072,-4.4062 2.6878 -4.4062c 0.6316,-0.0000 1.2631,0.3966 1.6890 0.9694c 0.6169,0.8225 0.9400,1.9240 0.9400 3.3046c 0.0000,3.2606 -1.6156,4.3915 -2.6878 4.3915Z"/></g><g stroke-linejoin="miter" stroke-opacity="0.6" fill-opacity="0.0" stroke="rgb(0,0,0)" stroke-width="2.1660796198608843" fill="rgb(0,0,0)" stroke-linecap="butt" stroke-miterlimit="10.0"><path d="M 100.0845,201.9632 h 6.6423 "/></g><g stroke-linejoin="miter" stroke-opacity="1.0" fill-opacity="0.6" stroke="rgb(0,0,0)" fill-rule="evenodd" stroke-width="0.0" fill="rgb(0,0,0)" stroke-linecap="butt" stroke-miterlimit="10.0"><path d="M 80.6808,224.1042 ZM 83.4420,217.0984 c -0.2791,-0.0000 -0.9253,0.2644 -1.2484 0.4112l -0.1762,-0.4553 c 1.2925,-0.6022 1.7918,-0.9106 2.5262 -1.4393h 0.2791 v 7.3877 c 0.0000,0.5287 0.0734,0.6756 0.5581 0.6756h 0.7637 c 0.0441,-0.0000 0.1175,0.0294 0.1175 0.1175v 0.3231 l -2.0122,-0.0294 l -2.0415,0.0294 v -0.3231 c 0.0147,-0.0441 0.0294,-0.1175 0.1175 -0.1175h 0.8812 c 0.5581,-0.0000 0.5581,-0.2497 0.5581 -0.6756v -5.0524 c 0.0000,-0.4994 0.0000,-0.8519 -0.3231 -0.8519ZM 87.1138,224.1042 ZM 87.9510,223.5020 c 0.0000,-0.4259 0.3525,-0.7784 0.7784 -0.7784c 0.4259,-0.0000 0.7784,0.3525 0.7784 0.7784c 0.0000,0.4259 -0.3525,0.7784 -0.7784 0.7784c -0.4259,-0.0000 -0.7784,-0.3525 -0.7784 -0.7784ZM 90.3303,224.1042 ZM 94.8687,221.6221 c 0.0000,-1.5128 -0.8225,-2.2618 -1.7331 -2.2618c -0.6756,-0.0000 -1.1897,0.1028 -1.7625 0.3378l 0.4700,-4.0096 c 0.4847,0.0441 0.9840,0.0587 1.4981 0.0587c 0.7344,-0.0000 1.4981,-0.0441 2.2912 -0.1322l 0.0881,0.0441 l -0.2203,0.9547 c -0.5728,0.0587 -1.0428,0.0734 -1.4540 0.0734c -0.6609,-0.0000 -1.1603,-0.0587 -1.6743 -0.1175l -0.2791,2.3206 c 0.3084,-0.1175 0.8372,-0.2203 1.4100 -0.2203c 1.5568,-0.0000 2.4234,1.3512 2.4234 2.7025c 0.0000,1.6450 -1.1456,2.9081 -2.8053 2.9081c -0.8372,-0.0000 -2.0562,-0.4700 -2.0562 -1.0428c 0.0000,-0.2791 0.2350,-0.4700 0.4994 -0.4700c 0.2937,-0.0000 0.4847,0.2203 0.6609 0.4553c 0.2203,0.2644 0.4553,0.5581 0.9253 0.5581c 0.9400,-0.0000 1.7184,-0.8812 1.7184 -2.1590Z"/></g><g stroke-linejoin="miter" stroke-opacity="0.6" fill-opacity="0.0" stroke="rgb(0,0,0)" stroke-width="2.1660796198608843" fill="rgb(0,0,0)" stroke-linecap="butt" stroke-miterlimit="10.0"><path d="M 100.0845,224.1042 h 6.6423 "/></g><g stroke-linejoin="miter" stroke-opacity="1.0" fill-opacity="0.6" stroke="rgb(0,0,0)" fill-rule="evenodd" stroke-width="0.0" fill="rgb(0,0,0)" stroke-linecap="butt" stroke-miterlimit="10.0"><path d="M 80.6808,246.2452 ZM 83.4420,239.2394 c -0.2791,-0.0000 -0.9253,0.2644 -1.2484 0.4112l -0.1762,-0.4553 c 1.2925,-0.6022 1.7918,-0.9106 2.5262 -1.4393h 0.2791 v 7.3877 c 0.0000,0.5287 0.0734,0.6756 0.5581 0.6756h 0.7637 c 0.0441,-0.0000 0.1175,0.0294 0.1175 0.1175v 0.3231 l -2.0122,-0.0294 l -2.0415,0.0294 v -0.3231 c 0.0147,-0.0441 0.0294,-0.1175 0.1175 -0.1175h 0.8812 c 0.5581,-0.0000 0.5581,-0.2497 0.5581 -0.6756v -5.0524 c 0.0000,-0.4994 0.0000,-0.8519 -0.3231 -0.8519ZM 87.1138,246.2452 ZM 87.9510,245.6430 c 0.0000,-0.4259 0.3525,-0.7784 0.7784 -0.7784c 0.4259,-0.0000 0.7784,0.3525 0.7784 0.7784c 0.0000,0.4259 -0.3525,0.7784 -0.7784 0.7784c -0.4259,-0.0000 -0.7784,-0.3525 -0.7784 -0.7784ZM 90.3303,246.2452 ZM 93.5468,238.2701 c -0.6316,-0.0000 -1.5568,0.6169 -1.5568 4.0390c 0.0000,1.2044 0.2203,3.6277 1.5128 3.6277c 0.2497,-0.0000 0.9547,-0.1616 1.2631 -1.3072c 0.1909,-0.7050 0.2937,-1.5862 0.2937 -2.8640c 0.0000,-1.8653 -0.4700,-2.9081 -0.8959 -3.2753c -0.1616,-0.1469 -0.3819,-0.2203 -0.6169 -0.2203ZM 93.5468,238.2701 ZM 93.4881,246.4215 c -1.5715,-0.0000 -2.6290,-2.0122 -2.6290 -4.2593c 0.0000,-2.7465 1.3072,-4.4062 2.6878 -4.4062c 0.6316,-0.0000 1.2631,0.3966 1.6890 0.9694c 0.6169,0.8225 0.9400,1.9240 0.9400 3.3046c 0.0000,3.2606 -1.6156,4.3915 -2.6878 4.3915Z"/></g><g stroke-linejoin="miter" stroke-opacity="0.6" fill-opacity="0.0" stroke="rgb(0,0,0)" stroke-width="2.1660796198608843" fill="rgb(0,0,0)" stroke-linecap="butt" stroke-miterlimit="10.0"><path d="M 100.0845,246.2452 h 6.6423 "/></g><g stroke-linejoin="miter" stroke-opacity="1.0" fill-opacity="0.6" stroke="rgb(0,0,0)" fill-rule="evenodd" stroke-width="0.0" fill="rgb(0,0,0)" stroke-linecap="butt" stroke-miterlimit="10.0"><path d="M 80.6808,268.3862 ZM 83.8973,260.4111 c -0.6316,-0.0000 -1.5568,0.6169 -1.5568 4.0390c 0.0000,1.2044 0.2203,3.6277 1.5128 3.6277c 0.2497,-0.0000 0.9547,-0.1616 1.2631 -1.3072c 0.1909,-0.7050 0.2937,-1.5862 0.2937 -2.8640c 0.0000,-1.8653 -0.4700,-2.9081 -0.8959 -3.2753c -0.1616,-0.1469 -0.3819,-0.2203 -0.6169 -0.2203ZM 83.8973,260.4111 ZM 83.8386,268.5625 c -1.5715,-0.0000 -2.6290,-2.0122 -2.6290 -4.2593c 0.0000,-2.7465 1.3072,-4.4062 2.6878 -4.4062c 0.6316,-0.0000 1.2631,0.3966 1.6890 0.9694c 0.6169,0.8225 0.9400,1.9240 0.9400 3.3046c 0.0000,3.2606 -1.6156,4.3915 -2.6878 4.3915ZM 87.1138,268.3862 ZM 87.9510,267.7840 c 0.0000,-0.4259 0.3525,-0.7784 0.7784 -0.7784c 0.4259,-0.0000 0.7784,0.3525 0.7784 0.7784c 0.0000,0.4259 -0.3525,0.7784 -0.7784 0.7784c -0.4259,-0.0000 -0.7784,-0.3525 -0.7784 -0.7784ZM 90.3303,268.3862 ZM 94.8687,265.9041 c 0.0000,-1.5128 -0.8225,-2.2618 -1.7331 -2.2618c -0.6756,-0.0000 -1.1897,0.1028 -1.7625 0.3378l 0.4700,-4.0096 c 0.4847,0.0441 0.9840,0.0587 1.4981 0.0587c 0.7344,-0.0000 1.4981,-0.0441 2.2912 -0.1322l 0.0881,0.0441 l -0.2203,0.9547 c -0.5728,0.0587 -1.0428,0.0734 -1.4540 0.0734c -0.6609,-0.0000 -1.1603,-0.0587 -1.6743 -0.1175l -0.2791,2.3206 c 0.3084,-0.1175 0.8372,-0.2203 1.4100 -0.2203c 1.5568,-0.0000 2.4234,1.3512 2.4234 2.7025c 0.0000,1.6450 -1.1456,2.9081 -2.8053 2.9081c -0.8372,-0.0000 -2.0562,-0.4700 -2.0562 -1.0428c 0.0000,-0.2791 0.2350,-0.4700 0.4994 -0.4700c 0.2937,-0.0000 0.4847,0.2203 0.6609 0.4553c 0.2203,0.2644 0.4553,0.5581 0.9253 0.5581c 0.9400,-0.0000 1.7184,-0.8812 1.7184 -2.1590Z"/></g><g stroke-linejoin="miter" stroke-opacity="0.6" fill-opacity="0.0" stroke="rgb(0,0,0)" stroke-width="2.1660796198608843" fill="rgb(0,0,0)" stroke-linecap="butt" stroke-miterlimit="10.0"><path d="M 100.0845,268.3862 h 6.6423 "/></g><g stroke-linejoin="miter" stroke-opacity="1.0" fill-opacity="0.6" stroke="rgb(0,0,0)" fill-rule="evenodd" stroke-width="0.0" fill="rgb(0,0,0)" stroke-linecap="butt" stroke-miterlimit="10.0"><path d="M 80.6808,290.5272 ZM 83.8973,282.5521 c -0.6316,-0.0000 -1.5568,0.6169 -1.5568 4.0390c 0.0000,1.2044 0.2203,3.6277 1.5128 3.6277c 0.2497,-0.0000 0.9547,-0.1616 1.2631 -1.3072c 0.1909,-0.7050 0.2937,-1.5862 0.2937 -2.8640c 0.0000,-1.8653 -0.4700,-2.9081 -0.8959 -3.2753c -0.1616,-0.1469 -0.3819,-0.2203 -0.6169 -0.2203ZM 83.8973,282.5521 ZM 83.8386,290.7035 c -1.5715,-0.0000 -2.6290,-2.0122 -2.6290 -4.2593c 0.0000,-2.7465 1.3072,-4.4062 2.6878 -4.4062c 0.6316,-0.0000 1.2631,0.3966 1.6890 0.9694c 0.6169,0.8225 0.9400,1.9240 0.9400 3.3046c 0.0000,3.2606 -1.6156,4.3915 -2.6878 4.3915ZM 87.1138,290.5272 ZM 87.9510,289.9250 c 0.0000,-0.4259 0.3525,-0.7784 0.7784 -0.7784c 0.4259,-0.0000 0.7784,0.3525 0.7784 0.7784c 0.0000,0.4259 -0.3525,0.7784 -0.7784 0.7784c -0.4259,-0.0000 -0.7784,-0.3525 -0.7784 -0.7784ZM 90.3303,290.5272 ZM 93.5468,282.5521 c -0.6316,-0.0000 -1.5568,0.6169 -1.5568 4.0390c 0.0000,1.2044 0.2203,3.6277 1.5128 3.6277c 0.2497,-0.0000 0.9547,-0.1616 1.2631 -1.3072c 0.1909,-0.7050 0.2937,-1.5862 0.2937 -2.8640c 0.0000,-1.8653 -0.4700,-2.9081 -0.8959 -3.2753c -0.1616,-0.1469 -0.3819,-0.2203 -0.6169 -0.2203ZM 93.5468,282.5521 ZM 93.4881,290.7035 c -1.5715,-0.0000 -2.6290,-2.0122 -2.6290 -4.2593c 0.0000,-2.7465 1.3072,-4.4062 2.6878 -4.4062c 0.6316,-0.0000 1.2631,0.3966 1.6890 0.9694c 0.6169,0.8225 0.9400,1.9240 0.9400 3.3046c 0.0000,3.2606 -1.6156,4.3915 -2.6878 4.3915Z"/></g><g stroke-linejoin="miter" stroke-opacity="0.6" fill-opacity="0.0" stroke="rgb(0,0,0)" stroke-width="2.1660796198608843" fill="rgb(0,0,0)" stroke-linecap="butt" stroke-miterlimit="10.0"><path d="M 100.0845,290.5272 h 6.6423 "/></g><g stroke-linejoin="miter" stroke-opacity="0.0" fill-opacity="0.1" stroke="rgb(0,0,0)" stroke-width="0.0" fill="rgb(0,0,0)" stroke-linecap="butt" stroke-miterlimit="10.0"><path d="M 469.0240,317.0964 l -0.0000,-4.4282 h -332.1150 l -0.0000,4.4282 Z"/></g><g stroke-linejoin="miter" stroke-opacity="1.0" fill-opacity="0.6" stroke="rgb(0,0,0)" fill-rule="evenodd" stroke-width="0.0" fill="rgb(0,0,0)" stroke-linecap="butt" stroke-miterlimit="10.0"><path d="M 460.9828,335.7621 ZM 464.1552,327.7281 c -0.3672,-0.0000 -1.4393,0.2056 -1.4393 1.1015c 0.0000,0.2644 -0.1028,0.7197 -0.4994 0.7197c -0.3819,-0.0000 -0.4112,-0.4259 -0.4112 -0.4700c 0.0000,-0.4553 0.6022,-1.8065 2.6437 -1.8065c 1.4247,-0.0000 1.8506,0.8959 1.8506 1.4834c 0.0000,0.3672 -0.1175,1.1015 -1.4393 1.9387c 0.8225,0.1322 1.9093,0.7344 1.9093 2.2618c 0.0000,1.9387 -1.4687,2.9815 -3.1284 2.9815c -0.8372,-0.0000 -2.0122,-0.3672 -2.0122 -0.9253c 0.0000,-0.2203 0.2203,-0.4700 0.5141 -0.4700c 0.2791,-0.0000 0.4112,0.1469 0.5434 0.3378c 0.1616,0.2497 0.4259,0.6022 1.1309 0.6022c 0.4847,-0.0000 1.8653,-0.4847 1.8653 -2.3353c 0.0000,-1.5715 -1.1015,-1.8212 -1.8947 -1.8212c -0.1322,-0.0000 -0.2937,0.0294 -0.4553 0.0587l -0.0587,-0.4406 c 1.1309,-0.1909 2.0709,-1.2925 2.0709 -1.9681c 0.0000,-0.8372 -0.5875,-1.2484 -1.1897 -1.2484ZM 467.4158,335.7621 ZM 468.2530,335.1599 c 0.0000,-0.4259 0.3525,-0.7784 0.7784 -0.7784c 0.4259,-0.0000 0.7784,0.3525 0.7784 0.7784c 0.0000,0.4259 -0.3525,0.7784 -0.7784 0.7784c -0.4259,-0.0000 -0.7784,-0.3525 -0.7784 -0.7784ZM 470.6323,335.7621 ZM 473.8488,327.7869 c -0.6316,-0.0000 -1.5568,0.6169 -1.5568 4.0390c 0.0000,1.2044 0.2203,3.6277 1.5128 3.6277c 0.2497,-0.0000 0.9547,-0.1616 1.2631 -1.3072c 0.1909,-0.7050 0.2937,-1.5862 0.2937 -2.8640c 0.0000,-1.8653 -0.4700,-2.9081 -0.8959 -3.2753c -0.1616,-0.1469 -0.3819,-0.2203 -0.6169 -0.2203ZM 473.8488,327.7869 ZM 473.7900,335.9383 c -1.5715,-0.0000 -2.6290,-2.0122 -2.6290 -4.2593c 0.0000,-2.7465 1.3072,-4.4062 2.6878 -4.4062c 0.6316,-0.0000 1.2631,0.3966 1.6890 0.9694c 0.6169,0.8225 0.9400,1.9240 0.9400 3.3046c 0.0000,3.2606 -1.6156,4.3915 -2.6878 4.3915Z"/></g><g stroke-linejoin="miter" stroke-opacity="0.6" fill-opacity="0.0" stroke="rgb(0,0,0)" stroke-width="2.1660796198608843" fill="rgb(0,0,0)" stroke-linecap="butt" stroke-miterlimit="10.0"><path d="M 469.0240,312.6682 v 6.6423 "/></g><g stroke-linejoin="miter" stroke-opacity="1.0" fill-opacity="0.6" stroke="rgb(0,0,0)" fill-rule="evenodd" stroke-width="0.0" fill="rgb(0,0,0)" stroke-linecap="butt" stroke-miterlimit="10.0"><path d="M 405.6303,335.7621 ZM 406.4821,329.2556 c 0.0000,-0.8372 0.8078,-1.9828 2.3500 -1.9828c 1.1309,-0.0000 2.4528,0.4259 2.4528 2.1150c 0.0000,1.1162 -0.5728,1.6743 -1.3659 2.4381l -1.3953,1.3512 c -0.0734,0.0734 -1.0575,1.0428 -1.0575 1.7331h 2.4968 c 0.4994,-0.0000 0.7637,-0.2497 0.9694 -1.0575l 0.3672,0.0587 l -0.2937,1.8506 h -4.5384 c 0.0000,-0.8225 0.1322,-1.4540 1.4981 -2.8493l 1.0281,-1.0134 c 0.8225,-0.8372 1.1603,-1.5568 1.1603 -2.4528c 0.0000,-1.3365 -0.9106,-1.7184 -1.4100 -1.7184c -1.0134,-0.0000 -1.2925,0.5287 -1.2925 0.8812c 0.0000,0.1175 0.0294,0.2350 0.0587 0.3378c 0.0294,0.1028 0.0587,0.2056 0.0587 0.3231c 0.0000,0.3819 -0.2937,0.5287 -0.5287 0.5287c -0.3231,-0.0000 -0.5581,-0.2497 -0.5581 -0.5434ZM 412.0633,335.7621 ZM 412.9005,335.1599 c 0.0000,-0.4259 0.3525,-0.7784 0.7784 -0.7784c 0.4259,-0.0000 0.7784,0.3525 0.7784 0.7784c 0.0000,0.4259 -0.3525,0.7784 -0.7784 0.7784c -0.4259,-0.0000 -0.7784,-0.3525 -0.7784 -0.7784ZM 415.2798,335.7621 ZM 419.8181,333.2799 c 0.0000,-1.5128 -0.8225,-2.2618 -1.7331 -2.2618c -0.6756,-0.0000 -1.1897,0.1028 -1.7625 0.3378l 0.4700,-4.0096 c 0.4847,0.0441 0.9840,0.0587 1.4981 0.0587c 0.7344,-0.0000 1.4981,-0.0441 2.2912 -0.1322l 0.0881,0.0441 l -0.2203,0.9547 c -0.5728,0.0587 -1.0428,0.0734 -1.4540 0.0734c -0.6609,-0.0000 -1.1603,-0.0587 -1.6743 -0.1175l -0.2791,2.3206 c 0.3084,-0.1175 0.8372,-0.2203 1.4100 -0.2203c 1.5568,-0.0000 2.4234,1.3512 2.4234 2.7025c 0.0000,1.6450 -1.1456,2.9081 -2.8053 2.9081c -0.8372,-0.0000 -2.0562,-0.4700 -2.0562 -1.0428c 0.0000,-0.2791 0.2350,-0.4700 0.4994 -0.4700c 0.2937,-0.0000 0.4847,0.2203 0.6609 0.4553c 0.2203,0.2644 0.4553,0.5581 0.9253 0.5581c 0.9400,-0.0000 1.7184,-0.8812 1.7184 -2.1590Z"/></g><g stroke-linejoin="miter" stroke-opacity="0.6" fill-opacity="0.0" stroke="rgb(0,0,0)" stroke-width="2.1660796198608843" fill="rgb(0,0,0)" stroke-linecap="butt" stroke-miterlimit="10.0"><path d="M 413.6715,312.6682 v 6.6423 "/></g><g stroke-linejoin="miter" stroke-opacity="1.0" fill-opacity="0.6" stroke="rgb(0,0,0)" fill-rule="evenodd" stroke-width="0.0" fill="rgb(0,0,0)" stroke-linecap="butt" stroke-miterlimit="10.0"><path d="M 350.2778,335.7621 ZM 351.1296,329.2556 c 0.0000,-0.8372 0.8078,-1.9828 2.3500 -1.9828c 1.1309,-0.0000 2.4528,0.4259 2.4528 2.1150c 0.0000,1.1162 -0.5728,1.6743 -1.3659 2.4381l -1.3953,1.3512 c -0.0734,0.0734 -1.0575,1.0428 -1.0575 1.7331h 2.4968 c 0.4994,-0.0000 0.7637,-0.2497 0.9694 -1.0575l 0.3672,0.0587 l -0.2937,1.8506 h -4.5384 c 0.0000,-0.8225 0.1322,-1.4540 1.4981 -2.8493l 1.0281,-1.0134 c 0.8225,-0.8372 1.1603,-1.5568 1.1603 -2.4528c 0.0000,-1.3365 -0.9106,-1.7184 -1.4100 -1.7184c -1.0134,-0.0000 -1.2925,0.5287 -1.2925 0.8812c 0.0000,0.1175 0.0294,0.2350 0.0587 0.3378c 0.0294,0.1028 0.0587,0.2056 0.0587 0.3231c 0.0000,0.3819 -0.2937,0.5287 -0.5287 0.5287c -0.3231,-0.0000 -0.5581,-0.2497 -0.5581 -0.5434ZM 356.7108,335.7621 ZM 357.5480,335.1599 c 0.0000,-0.4259 0.3525,-0.7784 0.7784 -0.7784c 0.4259,-0.0000 0.7784,0.3525 0.7784 0.7784c 0.0000,0.4259 -0.3525,0.7784 -0.7784 0.7784c -0.4259,-0.0000 -0.7784,-0.3525 -0.7784 -0.7784ZM 359.9273,335.7621 ZM 363.1438,327.7869 c -0.6316,-0.0000 -1.5568,0.6169 -1.5568 4.0390c 0.0000,1.2044 0.2203,3.6277 1.5128 3.6277c 0.2497,-0.0000 0.9547,-0.1616 1.2631 -1.3072c 0.1909,-0.7050 0.2937,-1.5862 0.2937 -2.8640c 0.0000,-1.8653 -0.4700,-2.9081 -0.8959 -3.2753c -0.1616,-0.1469 -0.3819,-0.2203 -0.6169 -0.2203ZM 363.1438,327.7869 ZM 363.0850,335.9383 c -1.5715,-0.0000 -2.6290,-2.0122 -2.6290 -4.2593c 0.0000,-2.7465 1.3072,-4.4062 2.6878 -4.4062c 0.6316,-0.0000 1.2631,0.3966 1.6890 0.9694c 0.6169,0.8225 0.9400,1.9240 0.9400 3.3046c 0.0000,3.2606 -1.6156,4.3915 -2.6878 4.3915Z"/></g><g stroke-linejoin="miter" stroke-opacity="0.6" fill-opacity="0.0" stroke="rgb(0,0,0)" stroke-width="2.1660796198608843" fill="rgb(0,0,0)" stroke-linecap="butt" stroke-miterlimit="10.0"><path d="M 358.3190,312.6682 v 6.6423 "/></g><g stroke-linejoin="miter" stroke-opacity="1.0" fill-opacity="0.6" stroke="rgb(0,0,0)" fill-rule="evenodd" stroke-width="0.0" fill="rgb(0,0,0)" stroke-linecap="butt" stroke-miterlimit="10.0"><path d="M 294.9253,335.7621 ZM 297.6865,328.7562 c -0.2791,-0.0000 -0.9253,0.2644 -1.2484 0.4112l -0.1762,-0.4553 c 1.2925,-0.6022 1.7918,-0.9106 2.5262 -1.4393h 0.2791 v 7.3877 c 0.0000,0.5287 0.0734,0.6756 0.5581 0.6756h 0.7637 c 0.0441,-0.0000 0.1175,0.0294 0.1175 0.1175v 0.3231 l -2.0122,-0.0294 l -2.0415,0.0294 v -0.3231 c 0.0147,-0.0441 0.0294,-0.1175 0.1175 -0.1175h 0.8812 c 0.5581,-0.0000 0.5581,-0.2497 0.5581 -0.6756v -5.0524 c 0.0000,-0.4994 0.0000,-0.8519 -0.3231 -0.8519ZM 301.3583,335.7621 ZM 302.1955,335.1599 c 0.0000,-0.4259 0.3525,-0.7784 0.7784 -0.7784c 0.4259,-0.0000 0.7784,0.3525 0.7784 0.7784c 0.0000,0.4259 -0.3525,0.7784 -0.7784 0.7784c -0.4259,-0.0000 -0.7784,-0.3525 -0.7784 -0.7784ZM 304.5748,335.7621 ZM 309.1131,333.2799 c 0.0000,-1.5128 -0.8225,-2.2618 -1.7331 -2.2618c -0.6756,-0.0000 -1.1897,0.1028 -1.7625 0.3378l 0.4700,-4.0096 c 0.4847,0.0441 0.9840,0.0587 1.4981 0.0587c 0.7344,-0.0000 1.4981,-0.0441 2.2912 -0.1322l 0.0881,0.0441 l -0.2203,0.9547 c -0.5728,0.0587 -1.0428,0.0734 -1.4540 0.0734c -0.6609,-0.0000 -1.1603,-0.0587 -1.6743 -0.1175l -0.2791,2.3206 c 0.3084,-0.1175 0.8372,-0.2203 1.4100 -0.2203c 1.5568,-0.0000 2.4234,1.3512 2.4234 2.7025c 0.0000,1.6450 -1.1456,2.9081 -2.8053 2.9081c -0.8372,-0.0000 -2.0562,-0.4700 -2.0562 -1.0428c 0.0000,-0.2791 0.2350,-0.4700 0.4994 -0.4700c 0.2937,-0.0000 0.4847,0.2203 0.6609 0.4553c 0.2203,0.2644 0.4553,0.5581 0.9253 0.5581c 0.9400,-0.0000 1.7184,-0.8812 1.7184 -2.1590Z"/></g><g stroke-linejoin="miter" stroke-opacity="0.6" fill-opacity="0.0" stroke="rgb(0,0,0)" stroke-width="2.1660796198608843" fill="rgb(0,0,0)" stroke-linecap="butt" stroke-miterlimit="10.0"><path d="M 302.9665,312.6682 v 6.6423 "/></g><g stroke-linejoin="miter" stroke-opacity="1.0" fill-opacity="0.6" stroke="rgb(0,0,0)" fill-rule="evenodd" stroke-width="0.0" fill="rgb(0,0,0)" stroke-linecap="butt" stroke-miterlimit="10.0"><path d="M 239.5728,335.7621 ZM 242.3340,328.7562 c -0.2791,-0.0000 -0.9253,0.2644 -1.2484 0.4112l -0.1762,-0.4553 c 1.2925,-0.6022 1.7918,-0.9106 2.5262 -1.4393h 0.2791 v 7.3877 c 0.0000,0.5287 0.0734,0.6756 0.5581 0.6756h 0.7637 c 0.0441,-0.0000 0.1175,0.0294 0.1175 0.1175v 0.3231 l -2.0122,-0.0294 l -2.0415,0.0294 v -0.3231 c 0.0147,-0.0441 0.0294,-0.1175 0.1175 -0.1175h 0.8812 c 0.5581,-0.0000 0.5581,-0.2497 0.5581 -0.6756v -5.0524 c 0.0000,-0.4994 0.0000,-0.8519 -0.3231 -0.8519ZM 246.0058,335.7621 ZM 246.8430,335.1599 c 0.0000,-0.4259 0.3525,-0.7784 0.7784 -0.7784c 0.4259,-0.0000 0.7784,0.3525 0.7784 0.7784c 0.0000,0.4259 -0.3525,0.7784 -0.7784 0.7784c -0.4259,-0.0000 -0.7784,-0.3525 -0.7784 -0.7784ZM 249.2223,335.7621 ZM 252.4388,327.7869 c -0.6316,-0.0000 -1.5568,0.6169 -1.5568 4.0390c 0.0000,1.2044 0.2203,3.6277 1.5128 3.6277c 0.2497,-0.0000 0.9547,-0.1616 1.2631 -1.3072c 0.1909,-0.7050 0.2937,-1.5862 0.2937 -2.8640c 0.0000,-1.8653 -0.4700,-2.9081 -0.8959 -3.2753c -0.1616,-0.1469 -0.3819,-0.2203 -0.6169 -0.2203ZM 252.4388,327.7869 ZM 252.3800,335.9383 c -1.5715,-0.0000 -2.6290,-2.0122 -2.6290 -4.2593c 0.0000,-2.7465 1.3072,-4.4062 2.6878 -4.4062c 0.6316,-0.0000 1.2631,0.3966 1.6890 0.9694c 0.6169,0.8225 0.9400,1.9240 0.9400 3.3046c 0.0000,3.2606 -1.6156,4.3915 -2.6878 4.3915Z"/></g><g stroke-linejoin="miter" stroke-opacity="0.6" fill-opacity="0.0" stroke="rgb(0,0,0)" stroke-width="2.1660796198608843" fill="rgb(0,0,0)" stroke-linecap="butt" stroke-miterlimit="10.0"><path d="M 247.6140,312.6682 v 6.6423 "/></g><g stroke-linejoin="miter" stroke-opacity="1.0" fill-opacity="0.6" stroke="rgb(0,0,0)" fill-rule="evenodd" stroke-width="0.0" fill="rgb(0,0,0)" stroke-linecap="butt" stroke-miterlimit="10.0"><path d="M 184.2203,335.7621 ZM 187.4368,327.7869 c -0.6316,-0.0000 -1.5568,0.6169 -1.5568 4.0390c 0.0000,1.2044 0.2203,3.6277 1.5128 3.6277c 0.2497,-0.0000 0.9547,-0.1616 1.2631 -1.3072c 0.1909,-0.7050 0.2937,-1.5862 0.2937 -2.8640c 0.0000,-1.8653 -0.4700,-2.9081 -0.8959 -3.2753c -0.1616,-0.1469 -0.3819,-0.2203 -0.6169 -0.2203ZM 187.4368,327.7869 ZM 187.3780,335.9383 c -1.5715,-0.0000 -2.6290,-2.0122 -2.6290 -4.2593c 0.0000,-2.7465 1.3072,-4.4062 2.6878 -4.4062c 0.6316,-0.0000 1.2631,0.3966 1.6890 0.9694c 0.6169,0.8225 0.9400,1.9240 0.9400 3.3046c 0.0000,3.2606 -1.6156,4.3915 -2.6878 4.3915ZM 190.6533,335.7621 ZM 191.4905,335.1599 c 0.0000,-0.4259 0.3525,-0.7784 0.7784 -0.7784c 0.4259,-0.0000 0.7784,0.3525 0.7784 0.7784c 0.0000,0.4259 -0.3525,0.7784 -0.7784 0.7784c -0.4259,-0.0000 -0.7784,-0.3525 -0.7784 -0.7784ZM 193.8698,335.7621 ZM 198.4081,333.2799 c 0.0000,-1.5128 -0.8225,-2.2618 -1.7331 -2.2618c -0.6756,-0.0000 -1.1897,0.1028 -1.7625 0.3378l 0.4700,-4.0096 c 0.4847,0.0441 0.9840,0.0587 1.4981 0.0587c 0.7344,-0.0000 1.4981,-0.0441 2.2912 -0.1322l 0.0881,0.0441 l -0.2203,0.9547 c -0.5728,0.0587 -1.0428,0.0734 -1.4540 0.0734c -0.6609,-0.0000 -1.1603,-0.0587 -1.6743 -0.1175l -0.2791,2.3206 c 0.3084,-0.1175 0.8372,-0.2203 1.4100 -0.2203c 1.5568,-0.0000 2.4234,1.3512 2.4234 2.7025c 0.0000,1.6450 -1.1456,2.9081 -2.8053 2.9081c -0.8372,-0.0000 -2.0562,-0.4700 -2.0562 -1.0428c 0.0000,-0.2791 0.2350,-0.4700 0.4994 -0.4700c 0.2937,-0.0000 0.4847,0.2203 0.6609 0.4553c 0.2203,0.2644 0.4553,0.5581 0.9253 0.5581c 0.9400,-0.0000 1.7184,-0.8812 1.7184 -2.1590Z"/></g><g stroke-linejoin="miter" stroke-opacity="0.6" fill-opacity="0.0" stroke="rgb(0,0,0)" stroke-width="2.1660796198608843" fill="rgb(0,0,0)" stroke-linecap="butt" stroke-miterlimit="10.0"><path d="M 192.2615,312.6682 v 6.6423 "/></g><g stroke-linejoin="miter" stroke-opacity="1.0" fill-opacity="0.6" stroke="rgb(0,0,0)" fill-rule="evenodd" stroke-width="0.0" fill="rgb(0,0,0)" stroke-linecap="butt" stroke-miterlimit="10.0"><path d="M 128.8678,335.7621 ZM 132.0843,327.7869 c -0.6316,-0.0000 -1.5568,0.6169 -1.5568 4.0390c 0.0000,1.2044 0.2203,3.6277 1.5128 3.6277c 0.2497,-0.0000 0.9547,-0.1616 1.2631 -1.3072c 0.1909,-0.7050 0.2937,-1.5862 0.2937 -2.8640c 0.0000,-1.8653 -0.4700,-2.9081 -0.8959 -3.2753c -0.1616,-0.1469 -0.3819,-0.2203 -0.6169 -0.2203ZM 132.0843,327.7869 ZM 132.0255,335.9383 c -1.5715,-0.0000 -2.6290,-2.0122 -2.6290 -4.2593c 0.0000,-2.7465 1.3072,-4.4062 2.6878 -4.4062c 0.6316,-0.0000 1.2631,0.3966 1.6890 0.9694c 0.6169,0.8225 0.9400,1.9240 0.9400 3.3046c 0.0000,3.2606 -1.6156,4.3915 -2.6878 4.3915ZM 135.3008,335.7621 ZM 136.1380,335.1599 c 0.0000,-0.4259 0.3525,-0.7784 0.7784 -0.7784c 0.4259,-0.0000 0.7784,0.3525 0.7784 0.7784c 0.0000,0.4259 -0.3525,0.7784 -0.7784 0.7784c -0.4259,-0.0000 -0.7784,-0.3525 -0.7784 -0.7784ZM 138.5173,335.7621 ZM 141.7338,327.7869 c -0.6316,-0.0000 -1.5568,0.6169 -1.5568 4.0390c 0.0000,1.2044 0.2203,3.6277 1.5128 3.6277c 0.2497,-0.0000 0.9547,-0.1616 1.2631 -1.3072c 0.1909,-0.7050 0.2937,-1.5862 0.2937 -2.8640c 0.0000,-1.8653 -0.4700,-2.9081 -0.8959 -3.2753c -0.1616,-0.1469 -0.3819,-0.2203 -0.6169 -0.2203ZM 141.7338,327.7869 ZM 141.6750,335.9383 c -1.5715,-0.0000 -2.6290,-2.0122 -2.6290 -4.2593c 0.0000,-2.7465 1.3072,-4.4062 2.6878 -4.4062c 0.6316,-0.0000 1.2631,0.3966 1.6890 0.9694c 0.6169,0.8225 0.9400,1.9240 0.9400 3.3046c 0.0000,3.2606 -1.6156,4.3915 -2.6878 4.3915Z"/></g><g stroke-linejoin="miter" stroke-opacity="0.6" fill-opacity="0.0" stroke="rgb(0,0,0)" stroke-width="2.1660796198608843" fill="rgb(0,0,0)" stroke-linecap="butt" stroke-miterlimit="10.0"><path d="M 136.9090,312.6682 v 6.6423 "/></g><g stroke-linejoin="miter" stroke-opacity="0.0" fill-opacity="0.0" stroke="rgb(0,0,0)" stroke-width="0.0" fill="rgb(0,0,0)" stroke-linecap="butt" stroke-miterlimit="10.0"><path d="M 469.0240,290.5272 l -0.0000,-221.4100 h -332.1150 l -0.0000,221.4100 Z"/></g></svg>