<?xml version="1.0" encoding="UTF-8"?>
<!DOCTYPE svg PUBLIC "-//W3C//DTD SVG 1.1//EN"
    "http://www.w3.org/Graphics/SVG/1.1/DTD/svg11.dtd"><svg xmlns="http://www.w3.org/2000/svg" height="400.0000" stroke-opacity="1" viewBox="0 0 600 400" font-size="1" width="600.0000" xmlns:xlink="http://www.w3.org/1999/xlink" stroke="rgb(0,0,0)" version="1.1"><defs></defs><g stroke-linejoin="miter" stroke-opacity="0.6" fill-opacity="0.0" stroke="rgb(44,160,44)" stroke-width="2.128250649526074" fill="rgb(0,0,0)" stroke-linecap="butt" stroke-miterlimit="10.0"><path d="M 200.3723,112.8180 v 173.6045 "/></g><g stroke-linejoin="miter" stroke-opacity="0.6" fill-opacity="0.0" stroke="rgb(255,127,14)" stroke-width="8.513002598104295" fill="rgb(0,0,0)" stroke-linecap="butt" stroke-miterlimit="10.0"><path d="M 146.1209,286.4225 l 325.5085,-130.2034 "/></g><g stroke-linejoin="miter" stroke-opacity="0.6" fill-opacity="0.0" stroke="rgb(31,119,180)" stroke-width="4.256501299052148" fill="rgb(0,0,0)" stroke-linecap="butt" stroke-miterlimit="10.0"><path d="M 146.1209,243.0214 h 108.5028 l 108.5028,-173.6045 "/></g><g stroke-linejoin="miter" stroke-opacity="1.0" fill-opacity="1.0" stroke="rgb(0,0,0)" fill-rule="evenodd" stroke-width="0.0" fill="rgb(31,119,180)" stroke-linecap="butt" stroke-miterlimit="10.0"><path d="M 68.2958,286.4225 ZM 66.5414,270.7229 c 0.0000,-3.4188 -2.6541,-4.7684 -5.8930 -5.6681l 0.2249,-1.3495 c 2.3392,0.4948 4.9033,0.9897 7.4225 1.1696l -0.0000,11.4711 l -0.0450,3.5088 c -0.0000,0.5398 0.0900,5.7130 0.0900 5.7130l -0.0900,0.0900 l -0.8547,-0.0000 c -0.2249,-0.0000 -0.3599,-0.1799 -0.3599 -0.3599l 0.0000,-1.3495 c 0.0000,-1.8894 -0.4049,-2.2942 -1.9793 -2.2942l -22.5823,-0.0000 c -1.3495,-0.0000 -1.9793,0.6748 -1.9793 2.4292l -0.0000,1.2146 c -0.0000,0.1799 -0.1350,0.3599 -0.3599 0.3599l -0.8547,-0.0000 l -0.0450,-0.0900 c 0.0000,-0.0000 0.0450,-3.9137 0.0450 -5.6681c 0.0000,-1.6194 -0.0450,-5.8030 -0.0450 -5.8030l 0.0450,-0.0900 l 0.8547,0.0000 c 0.2249,0.0000 0.3599,0.1350 0.3599 0.3599l -0.0000,1.1696 c -0.0000,1.8444 0.7198,2.4742 1.9793 2.4742l 21.8175,0.0000 c 1.3945,0.0000 2.2492,-0.8097 2.2492 -2.1143l 0.0000,-5.1732 ZM 68.2958,262.7606 ZM 42.6096,259.2518 c -1.1696,-0.0000 -2.1593,-0.9447 -2.1593 -2.1143c 0.0000,-1.2146 0.9897,-2.1593 2.1593 -2.1593c 1.2146,0.0000 2.1593,0.9447 2.1593 2.1593c -0.0000,1.1696 -0.9447,2.1143 -2.1593 2.1143ZM 42.6096,259.2518 ZM 65.0569,254.9783 c 1.3046,0.0000 1.9793,-0.4948 1.9793 -1.9343l 0.0000,-0.8547 c 0.0000,-0.2249 0.1350,-0.4049 0.3599 -0.4049l 0.8547,0.0000 l 0.0900,0.0900 c 0.0000,-0.0000 -0.0900,3.1039 -0.0900 4.8583c -0.0000,1.5745 0.0900,4.6334 0.0900 4.6334l -0.0900,0.0900 l -0.8547,-0.0000 c -0.2249,-0.0000 -0.3599,-0.1350 -0.3599 -0.3599l 0.0000,-0.8547 c 0.0000,-1.4845 -0.6748,-1.9343 -1.9793 -1.9343l -11.2012,-0.0000 c -2.3842,-0.0000 -2.7441,0.4049 -2.7441 1.0346c -0.0000,0.5848 0.0450,1.1246 0.2249 1.8894l -1.2596,0.2249 c -0.4948,-2.8790 -0.6748,-3.3738 -1.3046 -4.6784c -0.1799,-0.4948 -0.3599,-0.8097 -0.3599 -1.1246l 0.0000,-0.6748 l 16.6443,0.0000 ZM 68.2958,250.8847 ZM 65.0569,234.5103 l -9.8516,-0.0000 c -3.1489,-0.0000 -4.6334,0.5398 -4.6334 2.9240c -0.0000,1.9793 0.7647,3.6887 3.4638 5.9830l 11.0212,0.0000 c 1.3046,0.0000 1.9793,-0.4498 1.9793 -1.9343l 0.0000,-0.6298 c 0.0000,-0.2249 0.1350,-0.3599 0.3599 -0.3599l 0.8547,0.0000 l 0.0900,0.0900 c 0.0000,-0.0000 -0.0900,2.8340 -0.0900 4.5884c -0.0000,1.6194 0.0900,4.6784 0.0900 4.6784l -0.0900,0.0900 l -0.8547,-0.0000 c -0.2249,-0.0000 -0.3599,-0.1350 -0.3599 -0.3599l 0.0000,-0.8547 c 0.0000,-1.5295 -0.6748,-1.9343 -1.9793 -1.9343l -11.2012,-0.0000 c -2.4292,-0.0000 -2.7441,0.3599 -2.7441 0.9897c -0.0000,0.5848 0.0450,1.1246 0.2249 1.8894l -1.2596,0.2249 c -0.3149,-1.8894 -0.5398,-3.2389 -1.3046 -4.6334c -0.2249,-0.4948 -0.3599,-0.8547 -0.3599 -1.1696l 0.0000,-0.6748 l 4.0036,0.1350 l 0.0000,-0.1350 c -3.3738,-2.8790 -4.0036,-5.0383 -4.0036 -7.3325c 0.0000,-4.0486 3.1039,-4.9033 7.1076 -4.9033l 9.5367,0.0000 c 1.3046,0.0000 1.9793,-0.4948 1.9793 -1.9343l 0.0000,-0.8547 c 0.0000,-0.2249 0.1350,-0.4049 0.3599 -0.4049l 0.8547,0.0000 l 0.0900,0.0900 c 0.0000,-0.0000 -0.0900,3.1039 -0.0900 4.8583c -0.0000,1.5745 0.0900,4.4085 0.0900 4.4085l -0.0900,0.0900 l -0.8547,-0.0000 c -0.2249,-0.0000 -0.3599,-0.1350 -0.3599 -0.3599l 0.0000,-0.6298 c 0.0000,-1.4845 -0.6748,-1.9343 -1.9793 -1.9343ZM 68.2958,227.4927 ZM 55.8351,222.3644 l 0.0000,-8.2772 c 0.0000,-0.4498 -0.2249,-0.6298 -0.6298 -0.6298c -4.1836,-0.0000 -5.2632,2.1143 -5.2632 3.7337c -0.0000,1.0346 0.4049,4.4085 5.8930 5.1732ZM 55.8351,222.3644 ZM 64.1122,210.4885 l 0.7198,-0.8997 c 2.3392,1.7094 4.0036,4.3635 4.0036 7.6024c -0.0000,6.1629 -4.5884,8.7720 -9.4917 8.7720c -6.8377,-0.0000 -10.9313,-4.4985 -10.9313 -8.7720c 0.0000,-5.9380 4.6334,-7.3325 8.4121 -7.3325c 0.4948,0.0000 0.7647,0.3149 0.7647 0.8097l -0.0000,11.8309 c 0.2699,0.0450 0.5398,0.0450 0.8997 0.0450c 4.5884,0.0000 8.1422,-3.1939 8.1422 -6.4328c 0.0000,-2.4742 -0.8097,-4.0486 -2.5191 -5.6231ZM 68.2958,196.9931 ZM 68.8356,181.0236 c -0.0000,9.6717 -7.4674,14.3051 -14.7100 14.3051c -8.8620,-0.0000 -15.4297,-6.8826 -15.4297 -14.3501c 0.0000,-5.5331 1.8894,-7.2875 2.0243 -9.8516c 2.4742,-0.1350 4.6334,-0.5398 6.9726 -0.9897l 0.1799,1.3495 c -3.8687,1.1696 -7.5124,3.7787 -7.5124 9.9866c -0.0000,3.5538 3.7787,9.9416 12.9106 9.9416c 6.5678,0.0000 13.7203,-3.3738 13.7203 -10.3465c 0.0000,-4.1836 -1.4845,-7.2425 -4.9933 -10.4364l 0.6748,-1.0346 c 4.0036,3.0590 6.1629,7.0626 6.1629 11.4261ZM 68.2958,168.0231 ZM 36.8965,160.6906 l 15.2498,0.0000 c -3.0140,-3.0140 -3.7337,-5.6681 -3.7337 -7.4225c 0.0000,-3.2389 2.4742,-4.8583 7.1076 -4.8583l 9.5367,0.0000 c 1.3046,0.0000 1.9793,-0.4498 1.9793 -1.9343l 0.0000,-0.8547 c 0.0000,-0.1799 0.1350,-0.3599 0.3599 -0.3599l 0.8547,0.0000 l 0.0900,0.0900 c 0.0000,-0.0000 -0.0900,3.0590 -0.0900 4.8583c -0.0000,1.5745 0.0900,4.6334 0.0900 4.6334l -0.0900,0.0900 l -0.8547,-0.0000 c -0.2249,-0.0000 -0.3599,-0.1350 -0.3599 -0.3599l 0.0000,-0.8547 c 0.0000,-1.5295 -0.6748,-1.9343 -1.9793 -1.9343l -10.0316,-0.0000 c -3.6438,-0.0000 -4.4985,0.9897 -4.4985 3.5088c -0.0000,1.3046 1.1696,3.2389 3.2839 5.3982l 11.2461,0.0000 c 1.3046,0.0000 1.9793,-0.4498 1.9793 -1.9343l 0.0000,-0.8547 c 0.0000,-0.1799 0.1350,-0.3599 0.3599 -0.3599l 0.8547,0.0000 l 0.0900,0.0900 c 0.0000,-0.0000 -0.0900,3.0590 -0.0900 4.8134c -0.0000,1.6194 0.0900,4.6334 0.0900 4.6334l -0.0900,0.0900 l -0.8547,-0.0000 c -0.2249,-0.0000 -0.3599,-0.0900 -0.3599 -0.3149l 0.0000,-0.8547 c 0.0000,-1.5295 -0.6748,-1.9343 -1.9793 -1.9343l -22.5373,-0.0000 c -2.5641,-0.0000 -3.2839,0.4049 -3.2839 1.3046l 0.1799,1.4845 c -0.0000,0.1350 -0.0900,0.2249 -0.2249 0.2249l -1.1246,0.0900 c 0.0000,-0.7198 -0.2699,-2.3392 -0.4049 -3.1039c -0.1799,-0.8097 -0.3599,-1.4845 -0.7647 -2.3842l 0.0000,-0.9897 ZM 68.2958,144.7210 ZM 57.2746,131.6305 l 0.8997,3.5538 c 1.2146,3.9586 3.2839,4.5434 5.3082 4.5434c 1.3945,0.0000 3.5088,-0.6748 3.5088 -3.5088c 0.0000,-1.3495 -1.3046,-3.4188 -2.2942 -4.5884l -7.4225,-0.0000 ZM 57.2746,131.6305 ZM 68.8356,128.7515 c -0.0000,1.7094 -1.5295,2.6541 -2.6091 2.8340l 0.7198,1.0346 c 1.4395,2.0693 1.8894,2.8340 1.8894 4.9033c -0.0000,3.1489 -1.7994,5.4431 -5.1732 5.4431c -3.4188,-0.0000 -5.7580,-2.9240 -6.8377 -7.1975l -1.0346,-4.1386 c -5.0833,-0.0000 -6.0279,2.3392 -6.0279 3.8687c -0.0000,1.7094 0.7647,3.6887 2.1593 3.6887c 0.4948,0.0000 0.7647,-0.0900 0.8997 -0.1350c 0.1799,-0.0900 0.4948,-0.1350 0.8097 -0.1350c 0.5848,0.0000 1.4845,0.4498 1.4845 1.7544c -0.0000,1.0796 -0.7198,1.7994 -1.7994 1.7994c -2.6091,-0.0000 -4.9033,-4.2286 -4.9033 -7.1076c 0.0000,-3.2839 1.3495,-7.0626 7.7373 -7.0626l 6.6127,0.0000 c 2.7441,0.0000 3.9137,-0.0450 3.9137 -1.0796c 0.0000,-0.9897 -1.2596,-1.2596 -2.2492 -1.3046l 0.2249,-1.1246 c 3.2839,0.2699 4.1836,1.6644 4.1836 3.9586ZM 68.2958,124.4330 ZM 65.0569,120.4294 l -11.2012,-0.0000 c -2.2492,-0.0000 -2.7441,0.3149 -2.7441 0.9897c -0.0000,0.5848 0.0450,1.1246 0.2249 1.8894l -1.2596,0.2249 c -0.4948,-2.8340 -0.6298,-3.3289 -1.3046 -4.6784c -0.2249,-0.4498 -0.3599,-0.8097 -0.3599 -1.1246l 0.0000,-0.6748 l 4.0486,0.1350 l 0.0000,-0.1350 c -1.7544,-1.1696 -4.0486,-3.1489 -4.0486 -5.2632c 0.0000,-1.8444 0.8997,-2.5191 2.0693 -2.5191c 1.1696,0.0000 1.8894,0.7647 1.8894 1.9343c -0.0000,0.8997 -0.3599,1.3945 -0.8097 1.8444c -0.2699,0.2699 -0.4049,0.5848 -0.4049 0.8997c -0.0000,0.4948 0.8097,1.4845 2.3392 2.5641c 0.4049,0.3149 0.9897,0.5398 1.5745 0.5398l 9.9866,0.0000 c 1.3046,0.0000 1.9793,-0.4498 1.9793 -1.9343l 0.0000,-1.3046 c 0.0000,-0.2249 0.1350,-0.4049 0.3599 -0.4049l 0.8547,0.0000 l 0.0900,0.0900 c 0.0000,-0.0000 -0.0900,3.5538 -0.0900 5.3082c -0.0000,1.6194 0.0900,4.6784 0.0900 4.6784l -0.0900,0.0450 l -0.8547,-0.0000 c -0.2249,-0.0000 -0.3599,-0.0900 -0.3599 -0.3149l 0.0000,-0.8547 c 0.0000,-1.5295 -0.6748,-1.9343 -1.9793 -1.9343ZM 68.2958,108.8233 ZM 50.7068,101.4459 l 11.5161,0.0000 c 2.7890,0.0000 4.1386,-0.2699 4.1386 -1.4845c 0.0000,-1.1696 -0.3599,-2.0693 -1.2596 -3.2389l 0.7647,-0.8097 c 1.9793,1.7544 2.9690,3.5538 2.9690 5.6231c -0.0000,2.0693 -1.2596,3.2839 -4.4535 3.2839l -13.6753,-0.0000 l -0.0000,2.9240 c -0.0000,0.1350 -0.0450,0.1799 -0.1799 0.1799l -1.3945,-0.0000 c -0.1350,-0.0000 -0.1799,-0.0450 -0.1799 -0.1350c 0.0000,-3.0140 -1.7544,-3.7337 -5.1732 -3.7337l -0.8547,-0.0000 l -0.8997,-2.6091 l 6.9276,0.0000 l 0.0000,-4.9483 c 0.0000,-0.2249 0.0900,-0.3599 0.2699 -0.3599l 0.8997,0.0000 c 0.4049,0.0000 0.5848,0.6298 0.5848 1.0796l -0.0000,4.2286 Z"/></g><g stroke-linejoin="miter" stroke-opacity="1.0" fill-opacity="0.63" stroke="rgb(0,0,0)" fill-rule="evenodd" stroke-width="0.0" fill="rgb(0,0,0)" stroke-linecap="butt" stroke-miterlimit="10.0"><path d="M 509.3320,279.5631 ZM 513.4886,274.4996 h -0.0630 c -0.0630,-0.0000 -0.1008,-0.0504 -0.1008 -0.0882v -0.2519 l 0.0504,-0.0252 c 0.0000,-0.0000 0.7180,0.0252 1.1840 0.0252c 0.3275,-0.0000 0.8565,-0.0252 0.8565 -0.0252l 0.0252,0.0252 v 0.2267 c 0.0000,0.0630 -0.0630,0.1134 -0.1386 0.1134c -0.3653,-0.0000 -0.6550,0.1637 -0.8565 0.6550l -1.7382,4.2699 c -0.0882,0.2141 -0.1763,0.2897 -0.3023 0.2897c -0.1637,-0.0000 -0.2393,-0.0756 -0.3149 -0.2645l -1.7130,-4.3455 c -0.1763,-0.4534 -0.4408,-0.6046 -0.8061 -0.6046c -0.0630,-0.0000 -0.1260,-0.0252 -0.1260 -0.0882v -0.2519 l 0.0378,-0.0252 c 0.0000,-0.0000 0.6676,0.0252 1.0958 0.0252c 0.4912,-0.0000 1.2596,-0.0252 1.2596 -0.0252l 0.0504,0.0252 v 0.2393 c 0.0000,0.0882 -0.0756,0.1008 -0.1134 0.1008h -0.2141 c -0.2519,0.0126 -0.3653,0.0882 -0.3653 0.2141c 0.0000,0.0882 0.0504,0.1889 0.1260 0.3653l 1.0832,2.7459 l 0.2141,0.5794 l 0.2141,-0.5416 l 1.1210,-2.7585 c 0.0630,-0.1386 0.1008,-0.2519 0.1008 -0.3401c 0.0000,-0.1889 -0.1386,-0.2645 -0.5668 -0.2645ZM 515.5921,279.5631 ZM 517.0280,276.0741 h 2.3176 c 0.1260,-0.0000 0.1763,-0.0630 0.1763 -0.1763c 0.0000,-1.1714 -0.5920,-1.4737 -1.0454 -1.4737c -0.2897,-0.0000 -1.2344,0.1134 -1.4485 1.6500ZM 517.0280,276.0741 ZM 520.3532,278.3917 l 0.2519,0.2015 c -0.4786,0.6550 -1.2218,1.1210 -2.1287 1.1210c -1.7256,-0.0000 -2.4562,-1.2848 -2.4562 -2.6577c 0.0000,-1.9145 1.2596,-3.0608 2.4562 -3.0608c 1.6626,-0.0000 2.0531,1.2974 2.0531 2.3554c 0.0000,0.1386 -0.0882,0.2141 -0.2267 0.2141h -3.3127 c -0.0126,0.0756 -0.0126,0.1511 -0.0126 0.2519c 0.0000,1.2848 0.8943,2.2798 1.8012 2.2798c 0.6928,-0.0000 1.1336,-0.2267 1.5745 -0.7054ZM 520.9830,279.5631 ZM 522.1040,278.6562 v -3.1363 c 0.0000,-0.6298 -0.0882,-0.7683 -0.2771 -0.7683c -0.1637,-0.0000 -0.3149,0.0126 -0.5290 0.0630l -0.0630,-0.3527 c 0.7935,-0.1386 0.9321,-0.1763 1.3100 -0.3653c 0.1260,-0.0630 0.2267,-0.1008 0.3149 -0.1008h 0.1889 l -0.0378,1.1336 h 0.0378 c 0.3275,-0.4912 0.8817,-1.1336 1.4737 -1.1336c 0.5164,-0.0000 0.7054,0.2519 0.7054 0.5794c 0.0000,0.3275 -0.2141,0.5290 -0.5416 0.5290c -0.2519,-0.0000 -0.3905,-0.1008 -0.5164 -0.2267c -0.0756,-0.0756 -0.1637,-0.1134 -0.2519 -0.1134c -0.1386,-0.0000 -0.4157,0.2267 -0.7180 0.6550c -0.0882,0.1134 -0.1511,0.2771 -0.1511 0.4408v 2.7962 c 0.0000,0.3653 0.1260,0.5542 0.5416 0.5542h 0.3653 c 0.0630,-0.0000 0.1134,0.0378 0.1134 0.1008v 0.2393 l -0.0252,0.0252 c 0.0000,-0.0000 -0.9951,-0.0252 -1.4863 -0.0252c -0.4534,-0.0000 -1.3100,0.0252 -1.3100 0.0252l -0.0126,-0.0252 v -0.2393 c 0.0000,-0.0630 0.0252,-0.1008 0.0882 -0.1008h 0.2393 c 0.4283,-0.0000 0.5416,-0.1889 0.5416 -0.5542ZM 525.3537,279.5631 ZM 527.4194,274.6382 v 3.2245 c 0.0000,0.7809 0.0756,1.1588 0.4157 1.1588c 0.3275,-0.0000 0.5794,-0.1008 0.9069 -0.3527l 0.2267,0.2141 c -0.4912,0.5542 -0.9951,0.8313 -1.5745 0.8313c -0.5794,-0.0000 -0.9195,-0.3527 -0.9195 -1.2470v -3.8291 h -0.8187 c -0.0378,-0.0000 -0.0504,-0.0126 -0.0504 -0.0504v -0.3905 c 0.0000,-0.0378 0.0126,-0.0504 0.0378 -0.0504c 0.8439,-0.0000 1.0454,-0.4912 1.0454 -1.4485v -0.2393 l 0.7305,-0.2519 v 1.9397 h 1.3855 c 0.0630,-0.0000 0.1008,0.0252 0.1008 0.0756v 0.2519 c 0.0000,0.1134 -0.1763,0.1637 -0.3023 0.1637h -1.1840 ZM 529.1576,279.5631 ZM 530.1401,272.3709 c 0.0000,-0.3275 0.2645,-0.6046 0.5920 -0.6046c 0.3401,-0.0000 0.6046,0.2771 0.6046 0.6046c 0.0000,0.3401 -0.2645,0.6046 -0.6046 0.6046c -0.3275,-0.0000 -0.5920,-0.2645 -0.5920 -0.6046ZM 530.1401,272.3709 ZM 531.3367,278.6562 c 0.0000,0.3653 0.1386,0.5542 0.5416 0.5542h 0.2393 c 0.0630,-0.0000 0.1134,0.0378 0.1134 0.1008v 0.2393 l -0.0252,0.0252 c 0.0000,-0.0000 -0.8691,-0.0252 -1.3603 -0.0252c -0.4408,-0.0000 -1.2974,0.0252 -1.2974 0.0252l -0.0252,-0.0252 v -0.2393 c 0.0000,-0.0630 0.0378,-0.1008 0.1008 -0.1008h 0.2393 c 0.4157,-0.0000 0.5416,-0.1889 0.5416 -0.5542v -3.1363 c 0.0000,-0.6676 -0.1134,-0.7683 -0.2897 -0.7683c -0.1637,-0.0000 -0.3149,0.0126 -0.5290 0.0630l -0.0630,-0.3527 c 0.8061,-0.1386 0.9447,-0.1889 1.3100 -0.3653c 0.1386,-0.0504 0.2267,-0.1008 0.3149 -0.1008h 0.1889 v 4.6604 ZM 532.4829,279.5631 ZM 537.3196,278.4169 c -0.5542,0.9573 -1.1588,1.2974 -1.9145 1.2974c -1.5115,-0.0000 -2.4562,-1.1462 -2.4562 -2.7711c 0.0000,-1.7886 1.1210,-2.9474 2.4814 -2.9474c 1.2092,-0.0000 1.8516,0.6172 1.8516 1.2848c 0.0000,0.3653 -0.2267,0.5542 -0.4912 0.5542c -0.2645,-0.0000 -0.5164,-0.1386 -0.5542 -0.4534c -0.0504,-0.4157 -0.1260,-0.9573 -0.8691 -0.9573c -0.8313,-0.0000 -1.4485,0.8817 -1.4485 2.2420c 0.0000,1.4737 0.7935,2.4939 1.7634 2.4939c 0.5416,-0.0000 1.0203,-0.3527 1.4107 -0.9195ZM 537.5589,279.5631 ZM 541.2243,276.4771 l -0.9951,0.2519 c -1.1084,0.3401 -1.2722,0.9195 -1.2722 1.4863c 0.0000,0.3905 0.1889,0.9825 0.9825 0.9825c 0.3779,-0.0000 0.9573,-0.3653 1.2848 -0.6424v -2.0783 ZM 541.2243,276.4771 ZM 542.0304,279.7142 c -0.4786,-0.0000 -0.7431,-0.4283 -0.7935 -0.7305l -0.2897,0.2015 c -0.5794,0.4031 -0.7935,0.5290 -1.3729 0.5290c -0.8817,-0.0000 -1.5241,-0.5038 -1.5241 -1.4485c 0.0000,-0.9573 0.8187,-1.6122 2.0153 -1.9145l 1.1588,-0.2897 c 0.0000,-1.4233 -0.6550,-1.6878 -1.0832 -1.6878c -0.4786,-0.0000 -1.0328,0.2141 -1.0328 0.6046c 0.0000,0.1386 0.0252,0.2141 0.0378 0.2519c 0.0252,0.0504 0.0378,0.1386 0.0378 0.2267c 0.0000,0.1637 -0.1260,0.4157 -0.4912 0.4157c -0.3023,-0.0000 -0.5038,-0.2015 -0.5038 -0.5038c 0.0000,-0.7305 1.1840,-1.3729 1.9901 -1.3729c 0.9195,-0.0000 1.9775,0.3779 1.9775 2.1665v 1.8516 c 0.0000,0.7683 0.0126,1.0958 0.3023 1.0958c 0.2771,-0.0000 0.3527,-0.3527 0.3653 -0.6298l 0.3149,0.0630 c -0.0756,0.9195 -0.4660,1.1714 -1.1084 1.1714ZM 543.2396,279.5631 ZM 544.4362,278.6562 v -6.3104 c 0.0000,-0.7180 -0.1260,-0.9195 -0.3779 -0.9195l -0.4031,0.0504 c -0.0378,-0.0000 -0.0756,-0.0252 -0.0756 -0.0630l -0.0252,-0.3149 c 0.2015,-0.0000 0.6676,-0.0756 0.8817 -0.1134c 0.2267,-0.0504 0.4031,-0.1008 0.6550 -0.2141h 0.2771 v 7.8849 c 0.0000,0.3653 0.1386,0.5542 0.5416 0.5542h 0.3023 c 0.0504,-0.0000 0.1008,0.0378 0.1008 0.1008v 0.2393 l -0.0252,0.0252 c 0.0000,-0.0000 -0.9195,-0.0252 -1.4107 -0.0252c -0.4408,-0.0000 -1.3603,0.0252 -1.3603 0.0252l -0.0126,-0.0252 v -0.2393 c 0.0000,-0.0630 0.0252,-0.1008 0.0882 -0.1008h 0.3023 c 0.4157,-0.0000 0.5416,-0.1889 0.5416 -0.5542Z"/></g><g stroke-linejoin="miter" stroke-opacity="0.6" fill-opacity="0.0" stroke="rgb(44,160,44)" stroke-width="2.128250649526074" fill="rgb(0,0,0)" stroke-linecap="butt" stroke-miterlimit="10.0"><path d="M 494.1416,279.5631 h 10.8503 "/></g><g stroke-linejoin="miter" stroke-opacity="1.0" fill-opacity="0.63" stroke="rgb(0,0,0)" fill-rule="evenodd" stroke-width="0.0" fill="rgb(0,0,0)" stroke-linecap="butt" stroke-miterlimit="10.0"><path d="M 509.3320,257.8625 ZM 509.8736,256.0991 l 0.3401,-0.0126 c 0.0378,0.3149 0.1763,0.9195 0.4534 1.2092c 0.1260,0.1386 0.4660,0.3653 0.9321 0.3653c 0.4408,-0.0000 1.0958,-0.3527 1.0958 -0.9699c 0.0000,-0.5416 -0.3023,-0.9069 -1.2974 -1.3351c -0.9195,-0.4031 -1.3981,-0.6676 -1.3981 -1.6122c 0.0000,-0.8439 0.7431,-1.4485 1.7382 -1.4485c 0.6298,-0.0000 1.0958,0.1134 1.4863 0.3149c 0.0756,0.4031 0.1134,0.8313 0.1386 1.2848l -0.3401,0.0126 c -0.2645,-1.0328 -1.0203,-1.2344 -1.2848 -1.2344c -0.4786,-0.0000 -0.9699,0.1889 -0.9699 0.8817c 0.0000,0.5038 0.2393,0.7557 0.9321 1.0077c 1.0203,0.3779 1.8390,0.8313 1.8390 1.8390c 0.0000,1.2470 -1.3225,1.6122 -1.9145 1.6122c -0.4408,-0.0000 -0.8061,-0.0504 -1.1336 -0.1386c -0.0882,-0.0126 -0.1511,-0.0252 -0.2393 -0.0252c -0.0630,-0.0000 -0.1637,0.0126 -0.2897 0.0378c 0.0000,-0.5290 -0.0378,-1.1714 -0.0882 -1.7886ZM 514.0050,257.8625 ZM 515.2016,256.9556 v -6.3104 c 0.0000,-0.7180 -0.1260,-0.9195 -0.3779 -0.9195l -0.4031,0.0504 c -0.0378,-0.0000 -0.0756,-0.0252 -0.0756 -0.0630l -0.0252,-0.3149 c 0.2015,-0.0000 0.6676,-0.0756 0.8817 -0.1134c 0.2267,-0.0504 0.4031,-0.1008 0.6550 -0.2141h 0.2771 v 7.8849 c 0.0000,0.3653 0.1386,0.5542 0.5416 0.5542h 0.3023 c 0.0504,-0.0000 0.1008,0.0378 0.1008 0.1008v 0.2393 l -0.0252,0.0252 c 0.0000,-0.0000 -0.9195,-0.0252 -1.4107 -0.0252c -0.4408,-0.0000 -1.3603,0.0252 -1.3603 0.0252l -0.0126,-0.0252 v -0.2393 c 0.0000,-0.0630 0.0252,-0.1008 0.0882 -0.1008h 0.3023 c 0.4157,-0.0000 0.5416,-0.1889 0.5416 -0.5542ZM 517.2799,257.8625 ZM 517.7081,255.2804 c 0.0000,-1.7256 0.9321,-2.9852 2.6073 -2.9852c 1.8642,-0.0000 2.5821,1.5619 2.5821 2.8718c 0.0000,1.2596 -0.8187,2.8466 -2.6073 2.8466c -1.6878,-0.0000 -2.5821,-1.4485 -2.5821 -2.7333ZM 517.7081,255.2804 ZM 520.1769,252.7109 c -1.0077,-0.0000 -1.4737,1.1840 -1.4737 2.2798c 0.0000,0.9699 0.5542,2.5821 1.8012 2.5821c 0.5668,-0.0000 1.3981,-0.3401 1.3981 -2.0027c 0.0000,-1.8516 -0.6928,-2.8592 -1.7256 -2.8592ZM 523.3132,257.8625 ZM 525.1900,253.9075 v 3.1363 c 0.4408,0.5164 0.8565,0.5416 1.0580 0.5416c 1.3477,-0.0000 1.6500,-1.2596 1.6500 -2.3428c 0.0000,-1.5241 -0.6172,-2.3680 -1.3855 -2.3680c -0.4283,-0.0000 -1.0454,0.3653 -1.3225 1.0328ZM 525.1900,253.9075 ZM 524.2579,259.8526 v -6.2349 c 0.0000,-0.4786 -0.1134,-0.5668 -0.2897 -0.5668c -0.1637,-0.0000 -0.3149,0.0126 -0.5290 0.0630l -0.0630,-0.3527 c 0.8061,-0.1386 0.9573,-0.1889 1.3100 -0.3653c 0.1386,-0.0630 0.2267,-0.1008 0.3149 -0.1008h 0.1889 l -0.0378,1.0077 h 0.0378 c 0.5794,-0.8817 1.2596,-1.0077 1.6626 -1.0077c 1.2218,-0.0000 2.0279,1.2722 2.0279 2.6073c 0.0000,1.0203 -0.3149,1.8012 -0.8817 2.3806c -0.4912,0.4912 -1.0077,0.7305 -1.6752 0.7305c -0.4534,-0.0000 -0.8061,-0.1008 -1.1336 -0.2771v 2.1161 c 0.0000,0.3653 0.1386,0.5542 0.5416 0.5542h 0.2393 c 0.0630,-0.0000 0.1134,0.0378 0.1134 0.1008v 0.2393 l -0.0252,0.0252 c 0.0000,-0.0000 -0.8691,-0.0252 -1.3603 -0.0252c -0.4408,-0.0000 -1.2974,0.0252 -1.2974 0.0252l -0.0252,-0.0252 v -0.2393 c 0.0000,-0.0630 0.0378,-0.1008 0.1008 -0.1008h 0.2393 c 0.4157,-0.0000 0.5416,-0.1889 0.5416 -0.5542ZM 529.3466,257.8625 ZM 530.7825,254.3735 h 2.3176 c 0.1260,-0.0000 0.1763,-0.0630 0.1763 -0.1763c 0.0000,-1.1714 -0.5920,-1.4737 -1.0454 -1.4737c -0.2897,-0.0000 -1.2344,0.1134 -1.4485 1.6500ZM 530.7825,254.3735 ZM 534.1077,256.6911 l 0.2519,0.2015 c -0.4786,0.6550 -1.2218,1.1210 -2.1287 1.1210c -1.7256,-0.0000 -2.4562,-1.2848 -2.4562 -2.6577c 0.0000,-1.9145 1.2596,-3.0608 2.4562 -3.0608c 1.6626,-0.0000 2.0531,1.2974 2.0531 2.3554c 0.0000,0.1386 -0.0882,0.2141 -0.2267 0.2141h -3.3127 c -0.0126,0.0756 -0.0126,0.1511 -0.0126 0.2519c 0.0000,1.2848 0.8943,2.2798 1.8012 2.2798c 0.6928,-0.0000 1.1336,-0.2267 1.5745 -0.7054Z"/></g><g stroke-linejoin="miter" stroke-opacity="0.6" fill-opacity="0.0" stroke="rgb(255,127,14)" stroke-width="8.513002598104295" fill="rgb(0,0,0)" stroke-linecap="butt" stroke-miterlimit="10.0"><path d="M 494.1416,257.8625 h 10.8503 "/></g><g stroke-linejoin="miter" stroke-opacity="1.0" fill-opacity="0.63" stroke="rgb(0,0,0)" fill-rule="evenodd" stroke-width="0.0" fill="rgb(0,0,0)" stroke-linecap="butt" stroke-miterlimit="10.0"><path d="M 509.3320,236.1619 ZM 511.3851,227.3702 v 4.2699 c 0.8439,-0.8439 1.5871,-1.0454 2.0783 -1.0454c 0.9069,-0.0000 1.3603,0.6928 1.3603 1.9901v 2.6703 c 0.0000,0.3653 0.1260,0.5542 0.5416 0.5542h 0.2393 c 0.0504,-0.0000 0.1008,0.0378 0.1008 0.1008v 0.2393 l -0.0252,0.0252 c 0.0000,-0.0000 -0.8565,-0.0252 -1.3603 -0.0252c -0.4408,-0.0000 -1.2974,0.0252 -1.2974 0.0252l -0.0252,-0.0252 v -0.2393 c 0.0000,-0.0630 0.0378,-0.1008 0.1008 -0.1008h 0.2393 c 0.4283,-0.0000 0.5416,-0.1889 0.5416 -0.5542v -2.8088 c 0.0000,-1.0203 -0.2771,-1.2596 -0.9825 -1.2596c -0.3653,-0.0000 -0.9069,0.3275 -1.5115 0.9195v 3.1489 c 0.0000,0.3653 0.1260,0.5542 0.5416 0.5542h 0.2393 c 0.0504,-0.0000 0.1008,0.0378 0.1008 0.1008v 0.2393 l -0.0252,0.0252 c 0.0000,-0.0000 -0.8565,-0.0252 -1.3477 -0.0252c -0.4534,-0.0000 -1.2974,0.0252 -1.2974 0.0252l -0.0252,-0.0252 v -0.2393 c 0.0000,-0.0630 0.0252,-0.1008 0.0882 -0.1008h 0.2393 c 0.4283,-0.0000 0.5416,-0.1889 0.5416 -0.5542v -6.3104 c 0.0000,-0.7180 -0.1134,-0.9195 -0.3653 -0.9195l -0.4157,0.0504 c -0.0378,-0.0000 -0.0630,-0.0252 -0.0630 -0.0630l -0.0252,-0.3149 c 0.2015,-0.0000 0.6550,-0.0756 0.8691 -0.1134c 0.2267,-0.0504 0.4157,-0.1008 0.6676 -0.2141h 0.2771 ZM 515.8566,236.1619 ZM 516.2848,233.5798 c 0.0000,-1.7256 0.9321,-2.9852 2.6073 -2.9852c 1.8642,-0.0000 2.5821,1.5619 2.5821 2.8718c 0.0000,1.2596 -0.8187,2.8466 -2.6073 2.8466c -1.6878,-0.0000 -2.5821,-1.4485 -2.5821 -2.7333ZM 516.2848,233.5798 ZM 518.7536,231.0103 c -1.0077,-0.0000 -1.4737,1.1840 -1.4737 2.2798c 0.0000,0.9699 0.5542,2.5821 1.8012 2.5821c 0.5668,-0.0000 1.3981,-0.3401 1.3981 -2.0027c 0.0000,-1.8516 -0.6928,-2.8592 -1.7256 -2.8592ZM 521.8899,236.1619 ZM 528.5278,233.5798 v 1.6752 c 0.0000,0.3653 0.1386,0.5542 0.5416 0.5542h 0.0252 c 0.0630,-0.0000 0.1134,0.0378 0.1134 0.1008v 0.2393 l -0.0252,0.0252 c 0.0000,-0.0000 -0.6550,-0.0252 -1.1462 -0.0252c -0.4408,-0.0000 -1.2974,0.0252 -1.2974 0.0252l -0.0252,-0.0252 v -0.2393 c 0.0000,-0.0630 0.0378,-0.1008 0.1008 -0.1008h 0.2393 c 0.4157,-0.0000 0.5416,-0.1889 0.5416 -0.5542v -6.3734 c 0.0000,-0.5920 -0.1260,-0.8565 -0.3779 -0.8565c 0.0000,-0.0000 -0.1889,0.0252 -0.3149 0.0378c -0.0378,-0.0000 -0.0882,0.0126 -0.1008 0.0126c -0.0378,-0.0000 -0.0630,-0.0378 -0.0630 -0.0630l -0.0252,-0.3149 c 0.2015,-0.0000 0.6676,-0.0756 0.8817 -0.1134c 0.2267,-0.0504 0.4031,-0.1008 0.6550 -0.2141h 0.2771 v 5.8192 c 0.5542,-0.2771 0.9699,-0.6676 1.6626 -1.3981c 0.1889,-0.2015 0.2519,-0.3653 0.2519 -0.4912c 0.0000,-0.1008 -0.0756,-0.2015 -0.3779 -0.2015h -0.0378 c -0.0630,-0.0000 -0.1134,-0.0504 -0.1134 -0.1008v -0.2393 l 0.0378,-0.0252 c 0.0000,-0.0000 0.6046,0.0252 1.0454 0.0252c 0.4912,-0.0000 1.1714,-0.0252 1.1714 -0.0252l 0.0504,0.0252 v 0.2393 c 0.0000,0.0630 -0.0756,0.1008 -0.1260 0.1008h -0.1008 c -0.3401,-0.0000 -0.8943,0.2771 -1.1966 0.6046l -0.9699,1.0580 c -0.0378,0.0378 -0.0504,0.0756 -0.0504 0.1260c 0.0000,0.0630 0.0252,0.1260 0.0630 0.1763l 1.4863,2.1791 c 0.2267,0.3401 0.6172,0.5668 0.9321 0.5668h 0.0378 c 0.0882,-0.0000 0.1637,0.0378 0.1637 0.1008v 0.2267 l -0.0252,0.0378 c 0.0000,-0.0000 -0.6298,-0.0252 -1.1210 -0.0252c -0.4534,-0.0000 -0.7809,0.0252 -0.7809 0.0252l -0.0378,-0.0504 v -0.2141 c 0.0000,-0.1511 -0.0378,-0.3023 -0.2897 -0.6676l -0.9321,-1.2974 c -0.1637,-0.2393 -0.3149,-0.4534 -0.6046 -0.4534c -0.0504,-0.0000 -0.0882,-0.0000 -0.1386 0.0126v 0.0756 ZM 528.5278,233.5798 ZM 526.6007,234.9779 c -0.5542,0.9573 -1.1588,1.2974 -1.9019 1.2974c -1.5115,-0.0000 -2.3428,-1.1588 -2.3428 -2.7836c 0.0000,-1.7886 1.0077,-2.9222 2.3554 -2.9222c 1.2092,-0.0000 1.8516,0.6172 1.8516 1.2848c 0.0000,0.3779 -0.2267,0.5542 -0.4786 0.5542c -0.2771,-0.0000 -0.5290,-0.1386 -0.5668 -0.4408c -0.0378,-0.4283 -0.1260,-0.9699 -0.8691 -0.9699c -0.8313,-0.0000 -1.3225,0.8565 -1.3225 2.2168c 0.0000,1.4737 0.6676,2.5065 1.6500 2.5065c 0.5416,-0.0000 1.0077,-0.3527 1.3981 -0.9195ZM 532.4451,236.1619 ZM 533.8810,232.6729 h 2.3176 c 0.1260,-0.0000 0.1763,-0.0630 0.1763 -0.1763c 0.0000,-1.1714 -0.5920,-1.4737 -1.0454 -1.4737c -0.2897,-0.0000 -1.2344,0.1134 -1.4485 1.6500ZM 533.8810,232.6729 ZM 537.2063,234.9905 l 0.2519,0.2015 c -0.4786,0.6550 -1.2218,1.1210 -2.1287 1.1210c -1.7256,-0.0000 -2.4562,-1.2848 -2.4562 -2.6577c 0.0000,-1.9145 1.2596,-3.0608 2.4562 -3.0608c 1.6626,-0.0000 2.0531,1.2974 2.0531 2.3554c 0.0000,0.1386 -0.0882,0.2141 -0.2267 0.2141h -3.3127 c -0.0126,0.0756 -0.0126,0.1511 -0.0126 0.2519c 0.0000,1.2848 0.8943,2.2798 1.8012 2.2798c 0.6928,-0.0000 1.1336,-0.2267 1.5745 -0.7054ZM 537.8360,236.1619 ZM 540.4559,230.9977 c 0.0000,0.0630 -0.0756,0.1008 -0.1386 0.1008c -0.3779,-0.0000 -0.5416,0.0756 -0.5416 0.2771c 0.0000,0.0756 0.0252,0.1763 0.0756 0.2897l 1.3855,3.2497 l 1.3981,-3.1993 c 0.0630,-0.1134 0.0882,-0.2141 0.0882 -0.2897c 0.0000,-0.2645 -0.2519,-0.3275 -0.5290 -0.3275h -0.0504 c -0.0630,-0.0000 -0.1260,-0.0504 -0.1260 -0.0882v -0.2393 l 0.0252,-0.0378 c 0.0000,-0.0000 0.7431,0.0252 1.1840 0.0252c 0.3527,-0.0000 0.8691,-0.0252 0.8691 -0.0252l 0.0378,0.0252 v 0.2393 c 0.0000,0.0630 -0.0504,0.1008 -0.1386 0.1008c -0.4786,-0.0000 -0.7180,0.4912 -0.8943 0.8565c -0.6676,1.4107 -1.2218,2.7081 -2.2294 5.1390c -0.3779,0.9069 -0.8313,1.9649 -1.7256 1.9649c -0.2393,-0.0000 -0.7305,-0.1386 -0.7305 -0.5920c 0.0000,-0.3779 0.2771,-0.4912 0.4786 -0.4912c 0.1889,-0.0000 0.3149,0.0756 0.3905 0.1763c 0.1260,0.1260 0.2141,0.2141 0.3401 0.2141c 0.1889,-0.0000 0.6298,-1.0832 0.9447 -1.8516c 0.0756,-0.1511 0.1008,-0.2771 0.1008 -0.3905c 0.0000,-0.1260 -0.1134,-0.4660 -0.2141 -0.7180l -1.5871,-3.6905 c -0.2015,-0.4786 -0.3401,-0.6172 -0.7683 -0.6172c -0.0756,-0.0000 -0.1260,-0.0378 -0.1260 -0.0882v -0.2519 l 0.0252,-0.0252 c 0.0000,-0.0000 0.5542,0.0252 0.9321 0.0252c 0.5920,-0.0000 1.4989,-0.0252 1.4989 -0.0252l 0.0252,0.0378 v 0.2267 ZM 547.3962,236.1619 ZM 547.9378,234.3985 l 0.3401,-0.0126 c 0.0378,0.3149 0.1763,0.9195 0.4534 1.2092c 0.1260,0.1386 0.4660,0.3653 0.9321 0.3653c 0.4408,-0.0000 1.0958,-0.3527 1.0958 -0.9699c 0.0000,-0.5416 -0.3023,-0.9069 -1.2974 -1.3351c -0.9195,-0.4031 -1.3981,-0.6676 -1.3981 -1.6122c 0.0000,-0.8439 0.7431,-1.4485 1.7382 -1.4485c 0.6298,-0.0000 1.0958,0.1134 1.4863 0.3149c 0.0756,0.4031 0.1134,0.8313 0.1386 1.2848l -0.3401,0.0126 c -0.2645,-1.0328 -1.0203,-1.2344 -1.2848 -1.2344c -0.4786,-0.0000 -0.9699,0.1889 -0.9699 0.8817c 0.0000,0.5038 0.2393,0.7557 0.9321 1.0077c 1.0203,0.3779 1.8390,0.8313 1.8390 1.8390c 0.0000,1.2470 -1.3225,1.6122 -1.9145 1.6122c -0.4408,-0.0000 -0.8061,-0.0504 -1.1336 -0.1386c -0.0882,-0.0126 -0.1511,-0.0252 -0.2393 -0.0252c -0.0630,-0.0000 -0.1637,0.0126 -0.2897 0.0378c 0.0000,-0.5290 -0.0378,-1.1714 -0.0882 -1.7886ZM 552.0692,236.1619 ZM 554.1349,231.2370 v 3.2245 c 0.0000,0.7809 0.0756,1.1588 0.4157 1.1588c 0.3275,-0.0000 0.5794,-0.1008 0.9069 -0.3527l 0.2267,0.2141 c -0.4912,0.5542 -0.9951,0.8313 -1.5745 0.8313c -0.5794,-0.0000 -0.9195,-0.3527 -0.9195 -1.2470v -3.8291 h -0.8187 c -0.0378,-0.0000 -0.0504,-0.0126 -0.0504 -0.0504v -0.3905 c 0.0000,-0.0378 0.0126,-0.0504 0.0378 -0.0504c 0.8439,-0.0000 1.0454,-0.4912 1.0454 -1.4485v -0.2393 l 0.7305,-0.2519 v 1.9397 h 1.3855 c 0.0630,-0.0000 0.1008,0.0252 0.1008 0.0756v 0.2519 c 0.0000,0.1134 -0.1763,0.1637 -0.3023 0.1637h -1.1840 ZM 555.8731,236.1619 ZM 556.8555,228.9698 c 0.0000,-0.3275 0.2645,-0.6046 0.5920 -0.6046c 0.3401,-0.0000 0.6046,0.2771 0.6046 0.6046c 0.0000,0.3401 -0.2645,0.6046 -0.6046 0.6046c -0.3275,-0.0000 -0.5920,-0.2645 -0.5920 -0.6046ZM 556.8555,228.9698 ZM 558.0521,235.2551 c 0.0000,0.3653 0.1386,0.5542 0.5416 0.5542h 0.2393 c 0.0630,-0.0000 0.1134,0.0378 0.1134 0.1008v 0.2393 l -0.0252,0.0252 c 0.0000,-0.0000 -0.8691,-0.0252 -1.3603 -0.0252c -0.4408,-0.0000 -1.2974,0.0252 -1.2974 0.0252l -0.0252,-0.0252 v -0.2393 c 0.0000,-0.0630 0.0378,-0.1008 0.1008 -0.1008h 0.2393 c 0.4157,-0.0000 0.5416,-0.1889 0.5416 -0.5542v -3.1363 c 0.0000,-0.6676 -0.1134,-0.7683 -0.2897 -0.7683c -0.1637,-0.0000 -0.3149,0.0126 -0.5290 0.0630l -0.0630,-0.3527 c 0.8061,-0.1386 0.9447,-0.1889 1.3100 -0.3653c 0.1386,-0.0504 0.2267,-0.1008 0.3149 -0.1008h 0.1889 v 4.6604 ZM 559.1983,236.1619 ZM 565.8363,233.5798 v 1.6752 c 0.0000,0.3653 0.1386,0.5542 0.5416 0.5542h 0.0252 c 0.0630,-0.0000 0.1134,0.0378 0.1134 0.1008v 0.2393 l -0.0252,0.0252 c 0.0000,-0.0000 -0.6550,-0.0252 -1.1462 -0.0252c -0.4408,-0.0000 -1.2974,0.0252 -1.2974 0.0252l -0.0252,-0.0252 v -0.2393 c 0.0000,-0.0630 0.0378,-0.1008 0.1008 -0.1008h 0.2393 c 0.4157,-0.0000 0.5416,-0.1889 0.5416 -0.5542v -6.3734 c 0.0000,-0.5920 -0.1260,-0.8565 -0.3779 -0.8565c 0.0000,-0.0000 -0.1889,0.0252 -0.3149 0.0378c -0.0378,-0.0000 -0.0882,0.0126 -0.1008 0.0126c -0.0378,-0.0000 -0.0630,-0.0378 -0.0630 -0.0630l -0.0252,-0.3149 c 0.2015,-0.0000 0.6676,-0.0756 0.8817 -0.1134c 0.2267,-0.0504 0.4031,-0.1008 0.6550 -0.2141h 0.2771 v 5.8192 c 0.5542,-0.2771 0.9699,-0.6676 1.6626 -1.3981c 0.1889,-0.2015 0.2519,-0.3653 0.2519 -0.4912c 0.0000,-0.1008 -0.0756,-0.2015 -0.3779 -0.2015h -0.0378 c -0.0630,-0.0000 -0.1134,-0.0504 -0.1134 -0.1008v -0.2393 l 0.0378,-0.0252 c 0.0000,-0.0000 0.6046,0.0252 1.0454 0.0252c 0.4912,-0.0000 1.1714,-0.0252 1.1714 -0.0252l 0.0504,0.0252 v 0.2393 c 0.0000,0.0630 -0.0756,0.1008 -0.1260 0.1008h -0.1008 c -0.3401,-0.0000 -0.8943,0.2771 -1.1966 0.6046l -0.9699,1.0580 c -0.0378,0.0378 -0.0504,0.0756 -0.0504 0.1260c 0.0000,0.0630 0.0252,0.1260 0.0630 0.1763l 1.4863,2.1791 c 0.2267,0.3401 0.6172,0.5668 0.9321 0.5668h 0.0378 c 0.0882,-0.0000 0.1637,0.0378 0.1637 0.1008v 0.2267 l -0.0252,0.0378 c 0.0000,-0.0000 -0.6298,-0.0252 -1.1210 -0.0252c -0.4534,-0.0000 -0.7809,0.0252 -0.7809 0.0252l -0.0378,-0.0504 v -0.2141 c 0.0000,-0.1511 -0.0378,-0.3023 -0.2897 -0.6676l -0.9321,-1.2974 c -0.1637,-0.2393 -0.3149,-0.4534 -0.6046 -0.4534c -0.0504,-0.0000 -0.0882,-0.0000 -0.1386 0.0126v 0.0756 ZM 565.8363,233.5798 ZM 563.9091,234.9779 c -0.5542,0.9573 -1.1588,1.2974 -1.9019 1.2974c -1.5115,-0.0000 -2.3428,-1.1588 -2.3428 -2.7836c 0.0000,-1.7886 1.0077,-2.9222 2.3554 -2.9222c 1.2092,-0.0000 1.8516,0.6172 1.8516 1.2848c 0.0000,0.3779 -0.2267,0.5542 -0.4786 0.5542c -0.2771,-0.0000 -0.5290,-0.1386 -0.5668 -0.4408c -0.0378,-0.4283 -0.1260,-0.9699 -0.8691 -0.9699c -0.8313,-0.0000 -1.3225,0.8565 -1.3225 2.2168c 0.0000,1.4737 0.6676,2.5065 1.6500 2.5065c 0.5416,-0.0000 1.0077,-0.3527 1.3981 -0.9195Z"/></g><g stroke-linejoin="miter" stroke-opacity="0.6" fill-opacity="0.0" stroke="rgb(31,119,180)" stroke-width="4.256501299052148" fill="rgb(0,0,0)" stroke-linecap="butt" stroke-miterlimit="10.0"><path d="M 494.1416,236.1619 h 10.8503 "/></g><g stroke-linejoin="miter" stroke-opacity="0.2" fill-opacity="0.0" stroke="rgb(0,0,0)" stroke-width="0.8513002598104296" fill="rgb(0,0,0)" stroke-linecap="butt" stroke-miterlimit="10.0"><path d="M 573.5341,286.4225 l -0.0000,-64.4507 h -83.1731 l -0.0000,64.4507 Z"/></g><g stroke-linejoin="miter" stroke-opacity="0.0" fill-opacity="0.1" stroke="rgb(0,0,0)" stroke-width="0.0" fill="rgb(0,0,0)" stroke-linecap="butt" stroke-miterlimit="10.0"><path d="M 116.5391,290.6115 l -0.0000,-217.0057 h -4.3401 l -0.0000,217.0057 Z"/></g><g stroke-linejoin="miter" stroke-opacity="1.0" fill-opacity="0.6" stroke="rgb(0,0,0)" fill-rule="evenodd" stroke-width="0.0" fill="rgb(0,0,0)" stroke-linecap="butt" stroke-miterlimit="10.0"><path d="M 91.0112,73.6058 ZM 95.4593,71.1730 c 0.0000,-1.4827 -0.8061,-2.2168 -1.6986 -2.2168c -0.6622,-0.0000 -1.1660,0.1008 -1.7274 0.3311l 0.4606,-3.9299 c 0.4750,0.0432 0.9645,0.0576 1.4683 0.0576c 0.7198,-0.0000 1.4683,-0.0432 2.2456 -0.1296l 0.0864,0.0432 l -0.2159,0.9357 c -0.5614,0.0576 -1.0220,0.0720 -1.4251 0.0720c -0.6478,-0.0000 -1.1372,-0.0576 -1.6410 -0.1152l -0.2735,2.2744 c 0.3023,-0.1152 0.8205,-0.2159 1.3819 -0.2159c 1.5259,-0.0000 2.3752,1.3243 2.3752 2.6487c 0.0000,1.6122 -1.1228,2.8502 -2.7495 2.8502c -0.8205,-0.0000 -2.0153,-0.4606 -2.0153 -1.0220c 0.0000,-0.2735 0.2303,-0.4606 0.4894 -0.4606c 0.2879,-0.0000 0.4750,0.2159 0.6478 0.4462c 0.2159,0.2591 0.4462,0.5470 0.9069 0.5470c 0.9213,-0.0000 1.6842,-0.8637 1.6842 -2.1161ZM 97.3162,73.6058 ZM 98.1368,73.0156 c 0.0000,-0.4175 0.3455,-0.7629 0.7629 -0.7629c 0.4175,-0.0000 0.7629,0.3455 0.7629 0.7629c 0.0000,0.4175 -0.3455,0.7629 -0.7629 0.7629c -0.4175,-0.0000 -0.7629,-0.3455 -0.7629 -0.7629ZM 100.4688,73.6058 ZM 103.6213,65.7893 c -0.6190,-0.0000 -1.5259,0.6046 -1.5259 3.9586c 0.0000,1.1804 0.2159,3.5556 1.4827 3.5556c 0.2447,-0.0000 0.9357,-0.1583 1.2380 -1.2812c 0.1871,-0.6910 0.2879,-1.5547 0.2879 -2.8070c 0.0000,-1.8282 -0.4606,-2.8502 -0.8781 -3.2101c -0.1583,-0.1440 -0.3743,-0.2159 -0.6046 -0.2159ZM 103.6213,65.7893 ZM 103.5637,73.7785 c -1.5403,-0.0000 -2.5767,-1.9721 -2.5767 -4.1746c 0.0000,-2.6919 1.2812,-4.3185 2.6343 -4.3185c 0.6190,-0.0000 1.2380,0.3887 1.6554 0.9501c 0.6046,0.8061 0.9213,1.8858 0.9213 3.2389c 0.0000,3.1957 -1.5835,4.3041 -2.6343 4.3041Z"/></g><g stroke-linejoin="miter" stroke-opacity="0.6" fill-opacity="0.0" stroke="rgb(0,0,0)" stroke-width="2.128250649526074" fill="rgb(0,0,0)" stroke-linecap="butt" stroke-miterlimit="10.0"><path d="M 110.0289,73.6058 h 6.5102 "/></g><g stroke-linejoin="miter" stroke-opacity="1.0" fill-opacity="0.6" stroke="rgb(0,0,0)" fill-rule="evenodd" stroke-width="0.0" fill="rgb(0,0,0)" stroke-linecap="butt" stroke-miterlimit="10.0"><path d="M 91.0112,95.3064 ZM 94.7251,90.1961 c 0.0000,-0.1008 0.0144,-0.2159 0.1440 -0.2879c 0.1583,-0.1152 0.4175,-0.2447 0.6334 -0.2447c 0.1871,-0.0000 0.2015,0.1583 0.2015 0.4462v 2.3176 h 1.1660 l -0.0864,0.6766 h -1.0796 v 1.1948 c 0.0000,0.4031 0.0576,0.6046 0.4750 0.6046h 0.3887 c 0.0864,-0.0000 0.1008,0.0720 0.1008 0.1008v 0.3167 c 0.0000,-0.0000 -0.9213,-0.0288 -1.5259 -0.0288c -0.5470,-0.0000 -1.3963,0.0288 -1.3963 0.0288v -0.3167 c 0.0000,-0.0288 0.0144,-0.1008 0.1008 -0.1008h 0.3887 c 0.4462,-0.0000 0.4894,-0.1871 0.4894 -0.6046v -1.1948 h -2.8214 c -0.0576,-0.0000 -0.0864,-0.0288 -0.1296 -0.0864l -0.1152,-0.1583 l -0.1727,-0.3023 c -0.0144,-0.0000 -0.0144,-0.0144 -0.0144 -0.0288c 0.0000,-0.0144 0.0144,-0.0288 0.0288 -0.0432c 0.9357,-1.0364 2.5911,-4.2465 3.1093 -5.4269c 0.0144,-0.0576 0.0432,-0.0720 0.1008 -0.0720c 0.0144,-0.0000 0.3311,0.1296 0.5038 0.1583c -0.6478,1.7418 -1.7130,3.6132 -2.7639 5.2830h 2.2744 v -2.2312 ZM 97.3162,95.3064 ZM 98.1368,94.7162 c 0.0000,-0.4175 0.3455,-0.7629 0.7629 -0.7629c 0.4175,-0.0000 0.7629,0.3455 0.7629 0.7629c 0.0000,0.4175 -0.3455,0.7629 -0.7629 0.7629c -0.4175,-0.0000 -0.7629,-0.3455 -0.7629 -0.7629ZM 100.4688,95.3064 ZM 104.9168,92.8736 c 0.0000,-1.4827 -0.8061,-2.2168 -1.6986 -2.2168c -0.6622,-0.0000 -1.1660,0.1008 -1.7274 0.3311l 0.4606,-3.9299 c 0.4750,0.0432 0.9645,0.0576 1.4683 0.0576c 0.7198,-0.0000 1.4683,-0.0432 2.2456 -0.1296l 0.0864,0.0432 l -0.2159,0.9357 c -0.5614,0.0576 -1.0220,0.0720 -1.4251 0.0720c -0.6478,-0.0000 -1.1372,-0.0576 -1.6410 -0.1152l -0.2735,2.2744 c 0.3023,-0.1152 0.8205,-0.2159 1.3819 -0.2159c 1.5259,-0.0000 2.3752,1.3243 2.3752 2.6487c 0.0000,1.6122 -1.1228,2.8502 -2.7495 2.8502c -0.8205,-0.0000 -2.0153,-0.4606 -2.0153 -1.0220c 0.0000,-0.2735 0.2303,-0.4606 0.4894 -0.4606c 0.2879,-0.0000 0.4750,0.2159 0.6478 0.4462c 0.2159,0.2591 0.4462,0.5470 0.9069 0.5470c 0.9213,-0.0000 1.6842,-0.8637 1.6842 -2.1161Z"/></g><g stroke-linejoin="miter" stroke-opacity="0.6" fill-opacity="0.0" stroke="rgb(0,0,0)" stroke-width="2.128250649526074" fill="rgb(0,0,0)" stroke-linecap="butt" stroke-miterlimit="10.0"><path d="M 110.0289,95.3064 h 6.5102 "/></g><g stroke-linejoin="miter" stroke-opacity="1.0" fill-opacity="0.6" stroke="rgb(0,0,0)" fill-rule="evenodd" stroke-width="0.0" fill="rgb(0,0,0)" stroke-linecap="butt" stroke-miterlimit="10.0"><path d="M 91.0112,117.0069 ZM 94.7251,111.8967 c 0.0000,-0.1008 0.0144,-0.2159 0.1440 -0.2879c 0.1583,-0.1152 0.4175,-0.2447 0.6334 -0.2447c 0.1871,-0.0000 0.2015,0.1583 0.2015 0.4462v 2.3176 h 1.1660 l -0.0864,0.6766 h -1.0796 v 1.1948 c 0.0000,0.4031 0.0576,0.6046 0.4750 0.6046h 0.3887 c 0.0864,-0.0000 0.1008,0.0720 0.1008 0.1008v 0.3167 c 0.0000,-0.0000 -0.9213,-0.0288 -1.5259 -0.0288c -0.5470,-0.0000 -1.3963,0.0288 -1.3963 0.0288v -0.3167 c 0.0000,-0.0288 0.0144,-0.1008 0.1008 -0.1008h 0.3887 c 0.4462,-0.0000 0.4894,-0.1871 0.4894 -0.6046v -1.1948 h -2.8214 c -0.0576,-0.0000 -0.0864,-0.0288 -0.1296 -0.0864l -0.1152,-0.1583 l -0.1727,-0.3023 c -0.0144,-0.0000 -0.0144,-0.0144 -0.0144 -0.0288c 0.0000,-0.0144 0.0144,-0.0288 0.0288 -0.0432c 0.9357,-1.0364 2.5911,-4.2465 3.1093 -5.4269c 0.0144,-0.0576 0.0432,-0.0720 0.1008 -0.0720c 0.0144,-0.0000 0.3311,0.1296 0.5038 0.1583c -0.6478,1.7418 -1.7130,3.6132 -2.7639 5.2830h 2.2744 v -2.2312 ZM 97.3162,117.0069 ZM 98.1368,116.4167 c 0.0000,-0.4175 0.3455,-0.7629 0.7629 -0.7629c 0.4175,-0.0000 0.7629,0.3455 0.7629 0.7629c 0.0000,0.4175 -0.3455,0.7629 -0.7629 0.7629c -0.4175,-0.0000 -0.7629,-0.3455 -0.7629 -0.7629ZM 100.4688,117.0069 ZM 103.6213,109.1904 c -0.6190,-0.0000 -1.5259,0.6046 -1.5259 3.9586c 0.0000,1.1804 0.2159,3.5556 1.4827 3.5556c 0.2447,-0.0000 0.9357,-0.1583 1.2380 -1.2812c 0.1871,-0.6910 0.2879,-1.5547 0.2879 -2.8070c 0.0000,-1.8282 -0.4606,-2.8502 -0.8781 -3.2101c -0.1583,-0.1440 -0.3743,-0.2159 -0.6046 -0.2159ZM 103.6213,109.1904 ZM 103.5637,117.1797 c -1.5403,-0.0000 -2.5767,-1.9721 -2.5767 -4.1746c 0.0000,-2.6919 1.2812,-4.3185 2.6343 -4.3185c 0.6190,-0.0000 1.2380,0.3887 1.6554 0.9501c 0.6046,0.8061 0.9213,1.8858 0.9213 3.2389c 0.0000,3.1957 -1.5835,4.3041 -2.6343 4.3041Z"/></g><g stroke-linejoin="miter" stroke-opacity="0.6" fill-opacity="0.0" stroke="rgb(0,0,0)" stroke-width="2.128250649526074" fill="rgb(0,0,0)" stroke-linecap="butt" stroke-miterlimit="10.0"><path d="M 110.0289,117.0069 h 6.5102 "/></g><g stroke-linejoin="miter" stroke-opacity="1.0" fill-opacity="0.6" stroke="rgb(0,0,0)" fill-rule="evenodd" stroke-width="0.0" fill="rgb(0,0,0)" stroke-linecap="butt" stroke-miterlimit="10.0"><path d="M 91.0112,138.7075 ZM 94.1205,130.8334 c -0.3599,-0.0000 -1.4107,0.2015 -1.4107 1.0796c 0.0000,0.2591 -0.1008,0.7054 -0.4894 0.7054c -0.3743,-0.0000 -0.4031,-0.4175 -0.4031 -0.4606c 0.0000,-0.4462 0.5902,-1.7706 2.5911 -1.7706c 1.3963,-0.0000 1.8138,0.8781 1.8138 1.4539c 0.0000,0.3599 -0.1152,1.0796 -1.4107 1.9001c 0.8061,0.1296 1.8714,0.7198 1.8714 2.2168c 0.0000,1.9001 -1.4395,2.9222 -3.0661 2.9222c -0.8205,-0.0000 -1.9721,-0.3599 -1.9721 -0.9069c 0.0000,-0.2159 0.2159,-0.4606 0.5038 -0.4606c 0.2735,-0.0000 0.4031,0.1440 0.5326 0.3311c 0.1583,0.2447 0.4175,0.5902 1.1084 0.5902c 0.4750,-0.0000 1.8282,-0.4750 1.8282 -2.2888c 0.0000,-1.5403 -1.0796,-1.7850 -1.8570 -1.7850c -0.1296,-0.0000 -0.2879,0.0288 -0.4462 0.0576l -0.0576,-0.4319 c 1.1084,-0.1871 2.0297,-1.2668 2.0297 -1.9289c 0.0000,-0.8205 -0.5758,-1.2236 -1.1660 -1.2236ZM 97.3162,138.7075 ZM 98.1368,138.1173 c 0.0000,-0.4175 0.3455,-0.7629 0.7629 -0.7629c 0.4175,-0.0000 0.7629,0.3455 0.7629 0.7629c 0.0000,0.4175 -0.3455,0.7629 -0.7629 0.7629c -0.4175,-0.0000 -0.7629,-0.3455 -0.7629 -0.7629ZM 100.4688,138.7075 ZM 104.9168,136.2747 c 0.0000,-1.4827 -0.8061,-2.2168 -1.6986 -2.2168c -0.6622,-0.0000 -1.1660,0.1008 -1.7274 0.3311l 0.4606,-3.9299 c 0.4750,0.0432 0.9645,0.0576 1.4683 0.0576c 0.7198,-0.0000 1.4683,-0.0432 2.2456 -0.1296l 0.0864,0.0432 l -0.2159,0.9357 c -0.5614,0.0576 -1.0220,0.0720 -1.4251 0.0720c -0.6478,-0.0000 -1.1372,-0.0576 -1.6410 -0.1152l -0.2735,2.2744 c 0.3023,-0.1152 0.8205,-0.2159 1.3819 -0.2159c 1.5259,-0.0000 2.3752,1.3243 2.3752 2.6487c 0.0000,1.6122 -1.1228,2.8502 -2.7495 2.8502c -0.8205,-0.0000 -2.0153,-0.4606 -2.0153 -1.0220c 0.0000,-0.2735 0.2303,-0.4606 0.4894 -0.4606c 0.2879,-0.0000 0.4750,0.2159 0.6478 0.4462c 0.2159,0.2591 0.4462,0.5470 0.9069 0.5470c 0.9213,-0.0000 1.6842,-0.8637 1.6842 -2.1161Z"/></g><g stroke-linejoin="miter" stroke-opacity="0.6" fill-opacity="0.0" stroke="rgb(0,0,0)" stroke-width="2.128250649526074" fill="rgb(0,0,0)" stroke-linecap="butt" stroke-miterlimit="10.0"><path d="M 110.0289,138.7075 h 6.5102 "/></g><g stroke-linejoin="miter" stroke-opacity="1.0" fill-opacity="0.6" stroke="rgb(0,0,0)" fill-rule="evenodd" stroke-width="0.0" fill="rgb(0,0,0)" stroke-linecap="butt" stroke-miterlimit="10.0"><path d="M 91.0112,160.4081 ZM 94.1205,152.5340 c -0.3599,-0.0000 -1.4107,0.2015 -1.4107 1.0796c 0.0000,0.2591 -0.1008,0.7054 -0.4894 0.7054c -0.3743,-0.0000 -0.4031,-0.4175 -0.4031 -0.4606c 0.0000,-0.4462 0.5902,-1.7706 2.5911 -1.7706c 1.3963,-0.0000 1.8138,0.8781 1.8138 1.4539c 0.0000,0.3599 -0.1152,1.0796 -1.4107 1.9001c 0.8061,0.1296 1.8714,0.7198 1.8714 2.2168c 0.0000,1.9001 -1.4395,2.9222 -3.0661 2.9222c -0.8205,-0.0000 -1.9721,-0.3599 -1.9721 -0.9069c 0.0000,-0.2159 0.2159,-0.4606 0.5038 -0.4606c 0.2735,-0.0000 0.4031,0.1440 0.5326 0.3311c 0.1583,0.2447 0.4175,0.5902 1.1084 0.5902c 0.4750,-0.0000 1.8282,-0.4750 1.8282 -2.2888c 0.0000,-1.5403 -1.0796,-1.7850 -1.8570 -1.7850c -0.1296,-0.0000 -0.2879,0.0288 -0.4462 0.0576l -0.0576,-0.4319 c 1.1084,-0.1871 2.0297,-1.2668 2.0297 -1.9289c 0.0000,-0.8205 -0.5758,-1.2236 -1.1660 -1.2236ZM 97.3162,160.4081 ZM 98.1368,159.8179 c 0.0000,-0.4175 0.3455,-0.7629 0.7629 -0.7629c 0.4175,-0.0000 0.7629,0.3455 0.7629 0.7629c 0.0000,0.4175 -0.3455,0.7629 -0.7629 0.7629c -0.4175,-0.0000 -0.7629,-0.3455 -0.7629 -0.7629ZM 100.4688,160.4081 ZM 103.6213,152.5915 c -0.6190,-0.0000 -1.5259,0.6046 -1.5259 3.9586c 0.0000,1.1804 0.2159,3.5556 1.4827 3.5556c 0.2447,-0.0000 0.9357,-0.1583 1.2380 -1.2812c 0.1871,-0.6910 0.2879,-1.5547 0.2879 -2.8070c 0.0000,-1.8282 -0.4606,-2.8502 -0.8781 -3.2101c -0.1583,-0.1440 -0.3743,-0.2159 -0.6046 -0.2159ZM 103.6213,152.5915 ZM 103.5637,160.5808 c -1.5403,-0.0000 -2.5767,-1.9721 -2.5767 -4.1746c 0.0000,-2.6919 1.2812,-4.3185 2.6343 -4.3185c 0.6190,-0.0000 1.2380,0.3887 1.6554 0.9501c 0.6046,0.8061 0.9213,1.8858 0.9213 3.2389c 0.0000,3.1957 -1.5835,4.3041 -2.6343 4.3041Z"/></g><g stroke-linejoin="miter" stroke-opacity="0.6" fill-opacity="0.0" stroke="rgb(0,0,0)" stroke-width="2.128250649526074" fill="rgb(0,0,0)" stroke-linecap="butt" stroke-miterlimit="10.0"><path d="M 110.0289,160.4081 h 6.5102 "/></g><g stroke-linejoin="miter" stroke-opacity="1.0" fill-opacity="0.6" stroke="rgb(0,0,0)" fill-rule="evenodd" stroke-width="0.0" fill="rgb(0,0,0)" stroke-linecap="butt" stroke-miterlimit="10.0"><path d="M 91.0112,182.1086 ZM 91.8461,175.7316 c 0.0000,-0.8205 0.7917,-1.9433 2.3032 -1.9433c 1.1084,-0.0000 2.4040,0.4175 2.4040 2.0729c 0.0000,1.0940 -0.5614,1.6410 -1.3387 2.3896l -1.3675,1.3243 c -0.0720,0.0720 -1.0364,1.0220 -1.0364 1.6986h 2.4472 c 0.4894,-0.0000 0.7485,-0.2447 0.9501 -1.0364l 0.3599,0.0576 l -0.2879,1.8138 h -4.4481 c 0.0000,-0.8061 0.1296,-1.4251 1.4683 -2.7926l 1.0077,-0.9933 c 0.8061,-0.8205 1.1372,-1.5259 1.1372 -2.4040c 0.0000,-1.3100 -0.8925,-1.6842 -1.3819 -1.6842c -0.9933,-0.0000 -1.2668,0.5182 -1.2668 0.8637c 0.0000,0.1152 0.0288,0.2303 0.0576 0.3311c 0.0288,0.1008 0.0576,0.2015 0.0576 0.3167c 0.0000,0.3743 -0.2879,0.5182 -0.5182 0.5182c -0.3167,-0.0000 -0.5470,-0.2447 -0.5470 -0.5326ZM 97.3162,182.1086 ZM 98.1368,181.5184 c 0.0000,-0.4175 0.3455,-0.7629 0.7629 -0.7629c 0.4175,-0.0000 0.7629,0.3455 0.7629 0.7629c 0.0000,0.4175 -0.3455,0.7629 -0.7629 0.7629c -0.4175,-0.0000 -0.7629,-0.3455 -0.7629 -0.7629ZM 100.4688,182.1086 ZM 104.9168,179.6759 c 0.0000,-1.4827 -0.8061,-2.2168 -1.6986 -2.2168c -0.6622,-0.0000 -1.1660,0.1008 -1.7274 0.3311l 0.4606,-3.9299 c 0.4750,0.0432 0.9645,0.0576 1.4683 0.0576c 0.7198,-0.0000 1.4683,-0.0432 2.2456 -0.1296l 0.0864,0.0432 l -0.2159,0.9357 c -0.5614,0.0576 -1.0220,0.0720 -1.4251 0.0720c -0.6478,-0.0000 -1.1372,-0.0576 -1.6410 -0.1152l -0.2735,2.2744 c 0.3023,-0.1152 0.8205,-0.2159 1.3819 -0.2159c 1.5259,-0.0000 2.3752,1.3243 2.3752 2.6487c 0.0000,1.6122 -1.1228,2.8502 -2.7495 2.8502c -0.8205,-0.0000 -2.0153,-0.4606 -2.0153 -1.0220c 0.0000,-0.2735 0.2303,-0.4606 0.4894 -0.4606c 0.2879,-0.0000 0.4750,0.2159 0.6478 0.4462c 0.2159,0.2591 0.4462,0.5470 0.9069 0.5470c 0.9213,-0.0000 1.6842,-0.8637 1.6842 -2.1161Z"/></g><g stroke-linejoin="miter" stroke-opacity="0.6" fill-opacity="0.0" stroke="rgb(0,0,0)" stroke-width="2.128250649526074" fill="rgb(0,0,0)" stroke-linecap="butt" stroke-miterlimit="10.0"><path d="M 110.0289,182.1086 h 6.5102 "/></g><g stroke-linejoin="miter" stroke-opacity="1.0" fill-opacity="0.6" stroke="rgb(0,0,0)" fill-rule="evenodd" stroke-width="0.0" fill="rgb(0,0,0)" stroke-linecap="butt" stroke-miterlimit="10.0"><path d="M 91.0112,203.8092 ZM 91.8461,197.4322 c 0.0000,-0.8205 0.7917,-1.9433 2.3032 -1.9433c 1.1084,-0.0000 2.4040,0.4175 2.4040 2.0729c 0.0000,1.0940 -0.5614,1.6410 -1.3387 2.3896l -1.3675,1.3243 c -0.0720,0.0720 -1.0364,1.0220 -1.0364 1.6986h 2.4472 c 0.4894,-0.0000 0.7485,-0.2447 0.9501 -1.0364l 0.3599,0.0576 l -0.2879,1.8138 h -4.4481 c 0.0000,-0.8061 0.1296,-1.4251 1.4683 -2.7926l 1.0077,-0.9933 c 0.8061,-0.8205 1.1372,-1.5259 1.1372 -2.4040c 0.0000,-1.3100 -0.8925,-1.6842 -1.3819 -1.6842c -0.9933,-0.0000 -1.2668,0.5182 -1.2668 0.8637c 0.0000,0.1152 0.0288,0.2303 0.0576 0.3311c 0.0288,0.1008 0.0576,0.2015 0.0576 0.3167c 0.0000,0.3743 -0.2879,0.5182 -0.5182 0.5182c -0.3167,-0.0000 -0.5470,-0.2447 -0.5470 -0.5326ZM 97.3162,203.8092 ZM 98.1368,203.2190 c 0.0000,-0.4175 0.3455,-0.7629 0.7629 -0.7629c 0.4175,-0.0000 0.7629,0.3455 0.7629 0.7629c 0.0000,0.4175 -0.3455,0.7629 -0.7629 0.7629c -0.4175,-0.0000 -0.7629,-0.3455 -0.7629 -0.7629ZM 100.4688,203.8092 ZM 103.6213,195.9927 c -0.6190,-0.0000 -1.5259,0.6046 -1.5259 3.9586c 0.0000,1.1804 0.2159,3.5556 1.4827 3.5556c 0.2447,-0.0000 0.9357,-0.1583 1.2380 -1.2812c 0.1871,-0.6910 0.2879,-1.5547 0.2879 -2.8070c 0.0000,-1.8282 -0.4606,-2.8502 -0.8781 -3.2101c -0.1583,-0.1440 -0.3743,-0.2159 -0.6046 -0.2159ZM 103.6213,195.9927 ZM 103.5637,203.9819 c -1.5403,-0.0000 -2.5767,-1.9721 -2.5767 -4.1746c 0.0000,-2.6919 1.2812,-4.3185 2.6343 -4.3185c 0.6190,-0.0000 1.2380,0.3887 1.6554 0.9501c 0.6046,0.8061 0.9213,1.8858 0.9213 3.2389c 0.0000,3.1957 -1.5835,4.3041 -2.6343 4.3041Z"/></g><g stroke-linejoin="miter" stroke-opacity="0.6" fill-opacity="0.0" stroke="rgb(0,0,0)" stroke-width="2.128250649526074" fill="rgb(0,0,0)" stroke-linecap="butt" stroke-miterlimit="10.0"><path d="M 110.0289,203.8092 h 6.5102 "/></g><g stroke-linejoin="miter" stroke-opacity="1.0" fill-opacity="0.6" stroke="rgb(0,0,0)" fill-rule="evenodd" stroke-width="0.0" fill="rgb(0,0,0)" stroke-linecap="butt" stroke-miterlimit="10.0"><path d="M 91.0112,225.5098 ZM 93.7175,218.6433 c -0.2735,-0.0000 -0.9069,0.2591 -1.2236 0.4031l -0.1727,-0.4462 c 1.2668,-0.5902 1.7562,-0.8925 2.4760 -1.4107h 0.2735 v 7.2407 c 0.0000,0.5182 0.0720,0.6622 0.5470 0.6622h 0.7485 c 0.0432,-0.0000 0.1152,0.0288 0.1152 0.1152v 0.3167 l -1.9721,-0.0288 l -2.0009,0.0288 v -0.3167 c 0.0144,-0.0432 0.0288,-0.1152 0.1152 -0.1152h 0.8637 c 0.5470,-0.0000 0.5470,-0.2447 0.5470 -0.6622v -4.9519 c 0.0000,-0.4894 0.0000,-0.8349 -0.3167 -0.8349ZM 97.3162,225.5098 ZM 98.1368,224.9196 c 0.0000,-0.4175 0.3455,-0.7629 0.7629 -0.7629c 0.4175,-0.0000 0.7629,0.3455 0.7629 0.7629c 0.0000,0.4175 -0.3455,0.7629 -0.7629 0.7629c -0.4175,-0.0000 -0.7629,-0.3455 -0.7629 -0.7629ZM 100.4688,225.5098 ZM 104.9168,223.0770 c 0.0000,-1.4827 -0.8061,-2.2168 -1.6986 -2.2168c -0.6622,-0.0000 -1.1660,0.1008 -1.7274 0.3311l 0.4606,-3.9299 c 0.4750,0.0432 0.9645,0.0576 1.4683 0.0576c 0.7198,-0.0000 1.4683,-0.0432 2.2456 -0.1296l 0.0864,0.0432 l -0.2159,0.9357 c -0.5614,0.0576 -1.0220,0.0720 -1.4251 0.0720c -0.6478,-0.0000 -1.1372,-0.0576 -1.6410 -0.1152l -0.2735,2.2744 c 0.3023,-0.1152 0.8205,-0.2159 1.3819 -0.2159c 1.5259,-0.0000 2.3752,1.3243 2.3752 2.6487c 0.0000,1.6122 -1.1228,2.8502 -2.7495 2.8502c -0.8205,-0.0000 -2.0153,-0.4606 -2.0153 -1.0220c 0.0000,-0.2735 0.2303,-0.4606 0.4894 -0.4606c 0.2879,-0.0000 0.4750,0.2159 0.6478 0.4462c 0.2159,0.2591 0.4462,0.5470 0.9069 0.5470c 0.9213,-0.0000 1.6842,-0.8637 1.6842 -2.1161Z"/></g><g stroke-linejoin="miter" stroke-opacity="0.6" fill-opacity="0.0" stroke="rgb(0,0,0)" stroke-width="2.128250649526074" fill="rgb(0,0,0)" stroke-linecap="butt" stroke-miterlimit="10.0"><path d="M 110.0289,225.5098 h 6.5102 "/></g><g stroke-linejoin="miter" stroke-opacity="1.0" fill-opacity="0.6" stroke="rgb(0,0,0)" fill-rule="evenodd" stroke-width="0.0" fill="rgb(0,0,0)" stroke-linecap="butt" stroke-miterlimit="10.0"><path d="M 91.0112,247.2103 ZM 93.7175,240.3439 c -0.2735,-0.0000 -0.9069,0.2591 -1.2236 0.4031l -0.1727,-0.4462 c 1.2668,-0.5902 1.7562,-0.8925 2.4760 -1.4107h 0.2735 v 7.2407 c 0.0000,0.5182 0.0720,0.6622 0.5470 0.6622h 0.7485 c 0.0432,-0.0000 0.1152,0.0288 0.1152 0.1152v 0.3167 l -1.9721,-0.0288 l -2.0009,0.0288 v -0.3167 c 0.0144,-0.0432 0.0288,-0.1152 0.1152 -0.1152h 0.8637 c 0.5470,-0.0000 0.5470,-0.2447 0.5470 -0.6622v -4.9519 c 0.0000,-0.4894 0.0000,-0.8349 -0.3167 -0.8349ZM 97.3162,247.2103 ZM 98.1368,246.6201 c 0.0000,-0.4175 0.3455,-0.7629 0.7629 -0.7629c 0.4175,-0.0000 0.7629,0.3455 0.7629 0.7629c 0.0000,0.4175 -0.3455,0.7629 -0.7629 0.7629c -0.4175,-0.0000 -0.7629,-0.3455 -0.7629 -0.7629ZM 100.4688,247.2103 ZM 103.6213,239.3938 c -0.6190,-0.0000 -1.5259,0.6046 -1.5259 3.9586c 0.0000,1.1804 0.2159,3.5556 1.4827 3.5556c 0.2447,-0.0000 0.9357,-0.1583 1.2380 -1.2812c 0.1871,-0.6910 0.2879,-1.5547 0.2879 -2.8070c 0.0000,-1.8282 -0.4606,-2.8502 -0.8781 -3.2101c -0.1583,-0.1440 -0.3743,-0.2159 -0.6046 -0.2159ZM 103.6213,239.3938 ZM 103.5637,247.3831 c -1.5403,-0.0000 -2.5767,-1.9721 -2.5767 -4.1746c 0.0000,-2.6919 1.2812,-4.3185 2.6343 -4.3185c 0.6190,-0.0000 1.2380,0.3887 1.6554 0.9501c 0.6046,0.8061 0.9213,1.8858 0.9213 3.2389c 0.0000,3.1957 -1.5835,4.3041 -2.6343 4.3041Z"/></g><g stroke-linejoin="miter" stroke-opacity="0.6" fill-opacity="0.0" stroke="rgb(0,0,0)" stroke-width="2.128250649526074" fill="rgb(0,0,0)" stroke-linecap="butt" stroke-miterlimit="10.0"><path d="M 110.0289,247.2103 h 6.5102 "/></g><g stroke-linejoin="miter" stroke-opacity="1.0" fill-opacity="0.6" stroke="rgb(0,0,0)" fill-rule="evenodd" stroke-width="0.0" fill="rgb(0,0,0)" stroke-linecap="butt" stroke-miterlimit="10.0"><path d="M 91.0112,268.9109 ZM 94.1637,261.0944 c -0.6190,-0.0000 -1.5259,0.6046 -1.5259 3.9586c 0.0000,1.1804 0.2159,3.5556 1.4827 3.5556c 0.2447,-0.0000 0.9357,-0.1583 1.2380 -1.2812c 0.1871,-0.6910 0.2879,-1.5547 0.2879 -2.8070c 0.0000,-1.8282 -0.4606,-2.8502 -0.8781 -3.2101c -0.1583,-0.1440 -0.3743,-0.2159 -0.6046 -0.2159ZM 94.1637,261.0944 ZM 94.1061,269.0836 c -1.5403,-0.0000 -2.5767,-1.9721 -2.5767 -4.1746c 0.0000,-2.6919 1.2812,-4.3185 2.6343 -4.3185c 0.6190,-0.0000 1.2380,0.3887 1.6554 0.9501c 0.6046,0.8061 0.9213,1.8858 0.9213 3.2389c 0.0000,3.1957 -1.5835,4.3041 -2.6343 4.3041ZM 97.3162,268.9109 ZM 98.1368,268.3207 c 0.0000,-0.4175 0.3455,-0.7629 0.7629 -0.7629c 0.4175,-0.0000 0.7629,0.3455 0.7629 0.7629c 0.0000,0.4175 -0.3455,0.7629 -0.7629 0.7629c -0.4175,-0.0000 -0.7629,-0.3455 -0.7629 -0.7629ZM 100.4688,268.9109 ZM 104.9168,266.4781 c 0.0000,-1.4827 -0.8061,-2.2168 -1.6986 -2.2168c -0.6622,-0.0000 -1.1660,0.1008 -1.7274 0.3311l 0.4606,-3.9299 c 0.4750,0.0432 0.9645,0.0576 1.4683 0.0576c 0.7198,-0.0000 1.4683,-0.0432 2.2456 -0.1296l 0.0864,0.0432 l -0.2159,0.9357 c -0.5614,0.0576 -1.0220,0.0720 -1.4251 0.0720c -0.6478,-0.0000 -1.1372,-0.0576 -1.6410 -0.1152l -0.2735,2.2744 c 0.3023,-0.1152 0.8205,-0.2159 1.3819 -0.2159c 1.5259,-0.0000 2.3752,1.3243 2.3752 2.6487c 0.0000,1.6122 -1.1228,2.8502 -2.7495 2.8502c -0.8205,-0.0000 -2.0153,-0.4606 -2.0153 -1.0220c 0.0000,-0.2735 0.2303,-0.4606 0.4894 -0.4606c 0.2879,-0.0000 0.4750,0.2159 0.6478 0.4462c 0.2159,0.2591 0.4462,0.5470 0.9069 0.5470c 0.9213,-0.0000 1.6842,-0.8637 1.6842 -2.1161Z"/></g><g stroke-linejoin="miter" stroke-opacity="0.6" fill-opacity="0.0" stroke="rgb(0,0,0)" stroke-width="2.128250649526074" fill="rgb(0,0,0)" stroke-linecap="butt" stroke-miterlimit="10.0"><path d="M 110.0289,268.9109 h 6.5102 "/></g><g stroke-linejoin="miter" stroke-opacity="1.0" fill-opacity="0.6" stroke="rgb(0,0,0)" fill-rule="evenodd" stroke-width="0.0" fill="rgb(0,0,0)" stroke-linecap="butt" stroke-miterlimit="10.0"><path d="M 91.0112,290.6115 ZM 94.1637,282.7950 c -0.6190,-0.0000 -1.5259,0.6046 -1.5259 3.9586c 0.0000,1.1804 0.2159,3.5556 1.4827 3.5556c 0.2447,-0.0000 0.9357,-0.1583 1.2380 -1.2812c 0.1871,-0.6910 0.2879,-1.5547 0.2879 -2.8070c 0.0000,-1.8282 -0.4606,-2.8502 -0.8781 -3.2101c -0.1583,-0.1440 -0.3743,-0.2159 -0.6046 -0.2159ZM 94.1637,282.7950 ZM 94.1061,290.7842 c -1.5403,-0.0000 -2.5767,-1.9721 -2.5767 -4.1746c 0.0000,-2.6919 1.2812,-4.3185 2.6343 -4.3185c 0.6190,-0.0000 1.2380,0.3887 1.6554 0.9501c 0.6046,0.8061 0.9213,1.8858 0.9213 3.2389c 0.0000,3.1957 -1.5835,4.3041 -2.6343 4.3041ZM 97.3162,290.6115 ZM 98.1368,290.0213 c 0.0000,-0.4175 0.3455,-0.7629 0.7629 -0.7629c 0.4175,-0.0000 0.7629,0.3455 0.7629 0.7629c 0.0000,0.4175 -0.3455,0.7629 -0.7629 0.7629c -0.4175,-0.0000 -0.7629,-0.3455 -0.7629 -0.7629ZM 100.4688,290.6115 ZM 103.6213,282.7950 c -0.6190,-0.0000 -1.5259,0.6046 -1.5259 3.9586c 0.0000,1.1804 0.2159,3.5556 1.4827 3.5556c 0.2447,-0.0000 0.9357,-0.1583 1.2380 -1.2812c 0.1871,-0.6910 0.2879,-1.5547 0.2879 -2.8070c 0.0000,-1.8282 -0.4606,-2.8502 -0.8781 -3.2101c -0.1583,-0.1440 -0.3743,-0.2159 -0.6046 -0.2159ZM 103.6213,282.7950 ZM 103.5637,290.7842 c -1.5403,-0.0000 -2.5767,-1.9721 -2.5767 -4.1746c 0.0000,-2.6919 1.2812,-4.3185 2.6343 -4.3185c 0.6190,-0.0000 1.2380,0.3887 1.6554 0.9501c 0.6046,0.8061 0.9213,1.8858 0.9213 3.2389c 0.0000,3.1957 -1.5835,4.3041 -2.6343 4.3041Z"/></g><g stroke-linejoin="miter" stroke-opacity="0.6" fill-opacity="0.0" stroke="rgb(0,0,0)" stroke-width="2.128250649526074" fill="rgb(0,0,0)" stroke-linecap="butt" stroke-miterlimit="10.0"><path d="M 110.0289,290.6115 h 6.5102 "/></g><g stroke-linejoin="miter" stroke-opacity="0.0" fill-opacity="0.1" stroke="rgb(0,0,0)" stroke-width="0.0" fill="rgb(0,0,0)" stroke-linecap="butt" stroke-miterlimit="10.0"><path d="M 471.6294,312.4632 l -0.0000,-4.3401 h -325.5085 l -0.0000,4.3401 Z"/></g><g stroke-linejoin="miter" stroke-opacity="1.0" fill-opacity="0.6" stroke="rgb(0,0,0)" fill-rule="evenodd" stroke-width="0.0" fill="rgb(0,0,0)" stroke-linecap="butt" stroke-miterlimit="10.0"><path d="M 463.7481,330.7575 ZM 466.8575,322.8834 c -0.3599,-0.0000 -1.4107,0.2015 -1.4107 1.0796c 0.0000,0.2591 -0.1008,0.7054 -0.4894 0.7054c -0.3743,-0.0000 -0.4031,-0.4175 -0.4031 -0.4606c 0.0000,-0.4462 0.5902,-1.7706 2.5911 -1.7706c 1.3963,-0.0000 1.8138,0.8781 1.8138 1.4539c 0.0000,0.3599 -0.1152,1.0796 -1.4107 1.9001c 0.8061,0.1296 1.8714,0.7198 1.8714 2.2168c 0.0000,1.9001 -1.4395,2.9222 -3.0661 2.9222c -0.8205,-0.0000 -1.9721,-0.3599 -1.9721 -0.9069c 0.0000,-0.2159 0.2159,-0.4606 0.5038 -0.4606c 0.2735,-0.0000 0.4031,0.1440 0.5326 0.3311c 0.1583,0.2447 0.4175,0.5902 1.1084 0.5902c 0.4750,-0.0000 1.8282,-0.4750 1.8282 -2.2888c 0.0000,-1.5403 -1.0796,-1.7850 -1.8570 -1.7850c -0.1296,-0.0000 -0.2879,0.0288 -0.4462 0.0576l -0.0576,-0.4319 c 1.1084,-0.1871 2.0297,-1.2668 2.0297 -1.9289c 0.0000,-0.8205 -0.5758,-1.2236 -1.1660 -1.2236ZM 470.0532,330.7575 ZM 470.8737,330.1673 c 0.0000,-0.4175 0.3455,-0.7629 0.7629 -0.7629c 0.4175,-0.0000 0.7629,0.3455 0.7629 0.7629c 0.0000,0.4175 -0.3455,0.7629 -0.7629 0.7629c -0.4175,-0.0000 -0.7629,-0.3455 -0.7629 -0.7629ZM 473.2057,330.7575 ZM 476.3582,322.9410 c -0.6190,-0.0000 -1.5259,0.6046 -1.5259 3.9586c 0.0000,1.1804 0.2159,3.5556 1.4827 3.5556c 0.2447,-0.0000 0.9357,-0.1583 1.2380 -1.2812c 0.1871,-0.6910 0.2879,-1.5547 0.2879 -2.8070c 0.0000,-1.8282 -0.4606,-2.8502 -0.8781 -3.2101c -0.1583,-0.1440 -0.3743,-0.2159 -0.6046 -0.2159ZM 476.3582,322.9410 ZM 476.3006,330.9303 c -1.5403,-0.0000 -2.5767,-1.9721 -2.5767 -4.1746c 0.0000,-2.6919 1.2812,-4.3185 2.6343 -4.3185c 0.6190,-0.0000 1.2380,0.3887 1.6554 0.9501c 0.6046,0.8061 0.9213,1.8858 0.9213 3.2389c 0.0000,3.1957 -1.5835,4.3041 -2.6343 4.3041Z"/></g><g stroke-linejoin="miter" stroke-opacity="0.6" fill-opacity="0.0" stroke="rgb(0,0,0)" stroke-width="2.128250649526074" fill="rgb(0,0,0)" stroke-linecap="butt" stroke-miterlimit="10.0"><path d="M 471.6294,308.1231 v 6.5102 "/></g><g stroke-linejoin="miter" stroke-opacity="1.0" fill-opacity="0.6" stroke="rgb(0,0,0)" fill-rule="evenodd" stroke-width="0.0" fill="rgb(0,0,0)" stroke-linecap="butt" stroke-miterlimit="10.0"><path d="M 409.4967,330.7575 ZM 410.3316,324.3805 c 0.0000,-0.8205 0.7917,-1.9433 2.3032 -1.9433c 1.1084,-0.0000 2.4040,0.4175 2.4040 2.0729c 0.0000,1.0940 -0.5614,1.6410 -1.3387 2.3896l -1.3675,1.3243 c -0.0720,0.0720 -1.0364,1.0220 -1.0364 1.6986h 2.4472 c 0.4894,-0.0000 0.7485,-0.2447 0.9501 -1.0364l 0.3599,0.0576 l -0.2879,1.8138 h -4.4481 c 0.0000,-0.8061 0.1296,-1.4251 1.4683 -2.7926l 1.0077,-0.9933 c 0.8061,-0.8205 1.1372,-1.5259 1.1372 -2.4040c 0.0000,-1.3100 -0.8925,-1.6842 -1.3819 -1.6842c -0.9933,-0.0000 -1.2668,0.5182 -1.2668 0.8637c 0.0000,0.1152 0.0288,0.2303 0.0576 0.3311c 0.0288,0.1008 0.0576,0.2015 0.0576 0.3167c 0.0000,0.3743 -0.2879,0.5182 -0.5182 0.5182c -0.3167,-0.0000 -0.5470,-0.2447 -0.5470 -0.5326ZM 415.8018,330.7575 ZM 416.6223,330.1673 c 0.0000,-0.4175 0.3455,-0.7629 0.7629 -0.7629c 0.4175,-0.0000 0.7629,0.3455 0.7629 0.7629c 0.0000,0.4175 -0.3455,0.7629 -0.7629 0.7629c -0.4175,-0.0000 -0.7629,-0.3455 -0.7629 -0.7629ZM 418.9543,330.7575 ZM 423.4024,328.3248 c 0.0000,-1.4827 -0.8061,-2.2168 -1.6986 -2.2168c -0.6622,-0.0000 -1.1660,0.1008 -1.7274 0.3311l 0.4606,-3.9299 c 0.4750,0.0432 0.9645,0.0576 1.4683 0.0576c 0.7198,-0.0000 1.4683,-0.0432 2.2456 -0.1296l 0.0864,0.0432 l -0.2159,0.9357 c -0.5614,0.0576 -1.0220,0.0720 -1.4251 0.0720c -0.6478,-0.0000 -1.1372,-0.0576 -1.6410 -0.1152l -0.2735,2.2744 c 0.3023,-0.1152 0.8205,-0.2159 1.3819 -0.2159c 1.5259,-0.0000 2.3752,1.3243 2.3752 2.6487c 0.0000,1.6122 -1.1228,2.8502 -2.7495 2.8502c -0.8205,-0.0000 -2.0153,-0.4606 -2.0153 -1.0220c 0.0000,-0.2735 0.2303,-0.4606 0.4894 -0.4606c 0.2879,-0.0000 0.4750,0.2159 0.6478 0.4462c 0.2159,0.2591 0.4462,0.5470 0.9069 0.5470c 0.9213,-0.0000 1.6842,-0.8637 1.6842 -2.1161Z"/></g><g stroke-linejoin="miter" stroke-opacity="0.6" fill-opacity="0.0" stroke="rgb(0,0,0)" stroke-width="2.128250649526074" fill="rgb(0,0,0)" stroke-linecap="butt" stroke-miterlimit="10.0"><path d="M 417.3780,308.1231 v 6.5102 "/></g><g stroke-linejoin="miter" stroke-opacity="1.0" fill-opacity="0.6" stroke="rgb(0,0,0)" fill-rule="evenodd" stroke-width="0.0" fill="rgb(0,0,0)" stroke-linecap="butt" stroke-miterlimit="10.0"><path d="M 355.2453,330.7575 ZM 356.0802,324.3805 c 0.0000,-0.8205 0.7917,-1.9433 2.3032 -1.9433c 1.1084,-0.0000 2.4040,0.4175 2.4040 2.0729c 0.0000,1.0940 -0.5614,1.6410 -1.3387 2.3896l -1.3675,1.3243 c -0.0720,0.0720 -1.0364,1.0220 -1.0364 1.6986h 2.4472 c 0.4894,-0.0000 0.7485,-0.2447 0.9501 -1.0364l 0.3599,0.0576 l -0.2879,1.8138 h -4.4481 c 0.0000,-0.8061 0.1296,-1.4251 1.4683 -2.7926l 1.0077,-0.9933 c 0.8061,-0.8205 1.1372,-1.5259 1.1372 -2.4040c 0.0000,-1.3100 -0.8925,-1.6842 -1.3819 -1.6842c -0.9933,-0.0000 -1.2668,0.5182 -1.2668 0.8637c 0.0000,0.1152 0.0288,0.2303 0.0576 0.3311c 0.0288,0.1008 0.0576,0.2015 0.0576 0.3167c 0.0000,0.3743 -0.2879,0.5182 -0.5182 0.5182c -0.3167,-0.0000 -0.5470,-0.2447 -0.5470 -0.5326ZM 361.5503,330.7575 ZM 362.3709,330.1673 c 0.0000,-0.4175 0.3455,-0.7629 0.7629 -0.7629c 0.4175,-0.0000 0.7629,0.3455 0.7629 0.7629c 0.0000,0.4175 -0.3455,0.7629 -0.7629 0.7629c -0.4175,-0.0000 -0.7629,-0.3455 -0.7629 -0.7629ZM 364.7029,330.7575 ZM 367.8554,322.9410 c -0.6190,-0.0000 -1.5259,0.6046 -1.5259 3.9586c 0.0000,1.1804 0.2159,3.5556 1.4827 3.5556c 0.2447,-0.0000 0.9357,-0.1583 1.2380 -1.2812c 0.1871,-0.6910 0.2879,-1.5547 0.2879 -2.8070c 0.0000,-1.8282 -0.4606,-2.8502 -0.8781 -3.2101c -0.1583,-0.1440 -0.3743,-0.2159 -0.6046 -0.2159ZM 367.8554,322.9410 ZM 367.7978,330.9303 c -1.5403,-0.0000 -2.5767,-1.9721 -2.5767 -4.1746c 0.0000,-2.6919 1.2812,-4.3185 2.6343 -4.3185c 0.6190,-0.0000 1.2380,0.3887 1.6554 0.9501c 0.6046,0.8061 0.9213,1.8858 0.9213 3.2389c 0.0000,3.1957 -1.5835,4.3041 -2.6343 4.3041Z"/></g><g stroke-linejoin="miter" stroke-opacity="0.6" fill-opacity="0.0" stroke="rgb(0,0,0)" stroke-width="2.128250649526074" fill="rgb(0,0,0)" stroke-linecap="butt" stroke-miterlimit="10.0"><path d="M 363.1266,308.1231 v 6.5102 "/></g><g stroke-linejoin="miter" stroke-opacity="1.0" fill-opacity="0.6" stroke="rgb(0,0,0)" fill-rule="evenodd" stroke-width="0.0" fill="rgb(0,0,0)" stroke-linecap="butt" stroke-miterlimit="10.0"><path d="M 300.9939,330.7575 ZM 303.7002,323.8911 c -0.2735,-0.0000 -0.9069,0.2591 -1.2236 0.4031l -0.1727,-0.4462 c 1.2668,-0.5902 1.7562,-0.8925 2.4760 -1.4107h 0.2735 v 7.2407 c 0.0000,0.5182 0.0720,0.6622 0.5470 0.6622h 0.7485 c 0.0432,-0.0000 0.1152,0.0288 0.1152 0.1152v 0.3167 l -1.9721,-0.0288 l -2.0009,0.0288 v -0.3167 c 0.0144,-0.0432 0.0288,-0.1152 0.1152 -0.1152h 0.8637 c 0.5470,-0.0000 0.5470,-0.2447 0.5470 -0.6622v -4.9519 c 0.0000,-0.4894 0.0000,-0.8349 -0.3167 -0.8349ZM 307.2989,330.7575 ZM 308.1194,330.1673 c 0.0000,-0.4175 0.3455,-0.7629 0.7629 -0.7629c 0.4175,-0.0000 0.7629,0.3455 0.7629 0.7629c 0.0000,0.4175 -0.3455,0.7629 -0.7629 0.7629c -0.4175,-0.0000 -0.7629,-0.3455 -0.7629 -0.7629ZM 310.4514,330.7575 ZM 314.8995,328.3248 c 0.0000,-1.4827 -0.8061,-2.2168 -1.6986 -2.2168c -0.6622,-0.0000 -1.1660,0.1008 -1.7274 0.3311l 0.4606,-3.9299 c 0.4750,0.0432 0.9645,0.0576 1.4683 0.0576c 0.7198,-0.0000 1.4683,-0.0432 2.2456 -0.1296l 0.0864,0.0432 l -0.2159,0.9357 c -0.5614,0.0576 -1.0220,0.0720 -1.4251 0.0720c -0.6478,-0.0000 -1.1372,-0.0576 -1.6410 -0.1152l -0.2735,2.2744 c 0.3023,-0.1152 0.8205,-0.2159 1.3819 -0.2159c 1.5259,-0.0000 2.3752,1.3243 2.3752 2.6487c 0.0000,1.6122 -1.1228,2.8502 -2.7495 2.8502c -0.8205,-0.0000 -2.0153,-0.4606 -2.0153 -1.0220c 0.0000,-0.2735 0.2303,-0.4606 0.4894 -0.4606c 0.2879,-0.0000 0.4750,0.2159 0.6478 0.4462c 0.2159,0.2591 0.4462,0.5470 0.9069 0.5470c 0.9213,-0.0000 1.6842,-0.8637 1.6842 -2.1161Z"/></g><g stroke-linejoin="miter" stroke-opacity="0.6" fill-opacity="0.0" stroke="rgb(0,0,0)" stroke-width="2.128250649526074" fill="rgb(0,0,0)" stroke-linecap="butt" stroke-miterlimit="10.0"><path d="M 308.8752,308.1231 v 6.5102 "/></g><g stroke-linejoin="miter" stroke-opacity="1.0" fill-opacity="0.6" stroke="rgb(0,0,0)" fill-rule="evenodd" stroke-width="0.0" fill="rgb(0,0,0)" stroke-linecap="butt" stroke-miterlimit="10.0"><path d="M 246.7425,330.7575 ZM 249.4487,323.8911 c -0.2735,-0.0000 -0.9069,0.2591 -1.2236 0.4031l -0.1727,-0.4462 c 1.2668,-0.5902 1.7562,-0.8925 2.4760 -1.4107h 0.2735 v 7.2407 c 0.0000,0.5182 0.0720,0.6622 0.5470 0.6622h 0.7485 c 0.0432,-0.0000 0.1152,0.0288 0.1152 0.1152v 0.3167 l -1.9721,-0.0288 l -2.0009,0.0288 v -0.3167 c 0.0144,-0.0432 0.0288,-0.1152 0.1152 -0.1152h 0.8637 c 0.5470,-0.0000 0.5470,-0.2447 0.5470 -0.6622v -4.9519 c 0.0000,-0.4894 0.0000,-0.8349 -0.3167 -0.8349ZM 253.0475,330.7575 ZM 253.8680,330.1673 c 0.0000,-0.4175 0.3455,-0.7629 0.7629 -0.7629c 0.4175,-0.0000 0.7629,0.3455 0.7629 0.7629c 0.0000,0.4175 -0.3455,0.7629 -0.7629 0.7629c -0.4175,-0.0000 -0.7629,-0.3455 -0.7629 -0.7629ZM 256.2000,330.7575 ZM 259.3525,322.9410 c -0.6190,-0.0000 -1.5259,0.6046 -1.5259 3.9586c 0.0000,1.1804 0.2159,3.5556 1.4827 3.5556c 0.2447,-0.0000 0.9357,-0.1583 1.2380 -1.2812c 0.1871,-0.6910 0.2879,-1.5547 0.2879 -2.8070c 0.0000,-1.8282 -0.4606,-2.8502 -0.8781 -3.2101c -0.1583,-0.1440 -0.3743,-0.2159 -0.6046 -0.2159ZM 259.3525,322.9410 ZM 259.2950,330.9303 c -1.5403,-0.0000 -2.5767,-1.9721 -2.5767 -4.1746c 0.0000,-2.6919 1.2812,-4.3185 2.6343 -4.3185c 0.6190,-0.0000 1.2380,0.3887 1.6554 0.9501c 0.6046,0.8061 0.9213,1.8858 0.9213 3.2389c 0.0000,3.1957 -1.5835,4.3041 -2.6343 4.3041Z"/></g><g stroke-linejoin="miter" stroke-opacity="0.6" fill-opacity="0.0" stroke="rgb(0,0,0)" stroke-width="2.128250649526074" fill="rgb(0,0,0)" stroke-linecap="butt" stroke-miterlimit="10.0"><path d="M 254.6238,308.1231 v 6.5102 "/></g><g stroke-linejoin="miter" stroke-opacity="1.0" fill-opacity="0.6" stroke="rgb(0,0,0)" fill-rule="evenodd" stroke-width="0.0" fill="rgb(0,0,0)" stroke-linecap="butt" stroke-miterlimit="10.0"><path d="M 192.4910,330.7575 ZM 195.6436,322.9410 c -0.6190,-0.0000 -1.5259,0.6046 -1.5259 3.9586c 0.0000,1.1804 0.2159,3.5556 1.4827 3.5556c 0.2447,-0.0000 0.9357,-0.1583 1.2380 -1.2812c 0.1871,-0.6910 0.2879,-1.5547 0.2879 -2.8070c 0.0000,-1.8282 -0.4606,-2.8502 -0.8781 -3.2101c -0.1583,-0.1440 -0.3743,-0.2159 -0.6046 -0.2159ZM 195.6436,322.9410 ZM 195.5860,330.9303 c -1.5403,-0.0000 -2.5767,-1.9721 -2.5767 -4.1746c 0.0000,-2.6919 1.2812,-4.3185 2.6343 -4.3185c 0.6190,-0.0000 1.2380,0.3887 1.6554 0.9501c 0.6046,0.8061 0.9213,1.8858 0.9213 3.2389c 0.0000,3.1957 -1.5835,4.3041 -2.6343 4.3041ZM 198.7961,330.7575 ZM 199.6166,330.1673 c 0.0000,-0.4175 0.3455,-0.7629 0.7629 -0.7629c 0.4175,-0.0000 0.7629,0.3455 0.7629 0.7629c 0.0000,0.4175 -0.3455,0.7629 -0.7629 0.7629c -0.4175,-0.0000 -0.7629,-0.3455 -0.7629 -0.7629ZM 201.9486,330.7575 ZM 206.3967,328.3248 c 0.0000,-1.4827 -0.8061,-2.2168 -1.6986 -2.2168c -0.6622,-0.0000 -1.1660,0.1008 -1.7274 0.3311l 0.4606,-3.9299 c 0.4750,0.0432 0.9645,0.0576 1.4683 0.0576c 0.7198,-0.0000 1.4683,-0.0432 2.2456 -0.1296l 0.0864,0.0432 l -0.2159,0.9357 c -0.5614,0.0576 -1.0220,0.0720 -1.4251 0.0720c -0.6478,-0.0000 -1.1372,-0.0576 -1.6410 -0.1152l -0.2735,2.2744 c 0.3023,-0.1152 0.8205,-0.2159 1.3819 -0.2159c 1.5259,-0.0000 2.3752,1.3243 2.3752 2.6487c 0.0000,1.6122 -1.1228,2.8502 -2.7495 2.8502c -0.8205,-0.0000 -2.0153,-0.4606 -2.0153 -1.0220c 0.0000,-0.2735 0.2303,-0.4606 0.4894 -0.4606c 0.2879,-0.0000 0.4750,0.2159 0.6478 0.4462c 0.2159,0.2591 0.4462,0.5470 0.9069 0.5470c 0.9213,-0.0000 1.6842,-0.8637 1.6842 -2.1161Z"/></g><g stroke-linejoin="miter" stroke-opacity="0.6" fill-opacity="0.0" stroke="rgb(0,0,0)" stroke-width="2.128250649526074" fill="rgb(0,0,0)" stroke-linecap="butt" stroke-miterlimit="10.0"><path d="M 200.3723,308.1231 v 6.5102 "/></g><g stroke-linejoin="miter" stroke-opacity="1.0" fill-opacity="0.6" stroke="rgb(0,0,0)" fill-rule="evenodd" stroke-width="0.0" fill="rgb(0,0,0)" stroke-linecap="butt" stroke-miterlimit="10.0"><path d="M 138.2396,330.7575 ZM 141.3921,322.9410 c -0.6190,-0.0000 -1.5259,0.6046 -1.5259 3.9586c 0.0000,1.1804 0.2159,3.5556 1.4827 3.5556c 0.2447,-0.0000 0.9357,-0.1583 1.2380 -1.2812c 0.1871,-0.6910 0.2879,-1.5547 0.2879 -2.8070c 0.0000,-1.8282 -0.4606,-2.8502 -0.8781 -3.2101c -0.1583,-0.1440 -0.3743,-0.2159 -0.6046 -0.2159ZM 141.3921,322.9410 ZM 141.3346,330.9303 c -1.5403,-0.0000 -2.5767,-1.9721 -2.5767 -4.1746c 0.0000,-2.6919 1.2812,-4.3185 2.6343 -4.3185c 0.6190,-0.0000 1.2380,0.3887 1.6554 0.9501c 0.6046,0.8061 0.9213,1.8858 0.9213 3.2389c 0.0000,3.1957 -1.5835,4.3041 -2.6343 4.3041ZM 144.5447,330.7575 ZM 145.3652,330.1673 c 0.0000,-0.4175 0.3455,-0.7629 0.7629 -0.7629c 0.4175,-0.0000 0.7629,0.3455 0.7629 0.7629c 0.0000,0.4175 -0.3455,0.7629 -0.7629 0.7629c -0.4175,-0.0000 -0.7629,-0.3455 -0.7629 -0.7629ZM 147.6972,330.7575 ZM 150.8497,322.9410 c -0.6190,-0.0000 -1.5259,0.6046 -1.5259 3.9586c 0.0000,1.1804 0.2159,3.5556 1.4827 3.5556c 0.2447,-0.0000 0.9357,-0.1583 1.2380 -1.2812c 0.1871,-0.6910 0.2879,-1.5547 0.2879 -2.8070c 0.0000,-1.8282 -0.4606,-2.8502 -0.8781 -3.2101c -0.1583,-0.1440 -0.3743,-0.2159 -0.6046 -0.2159ZM 150.8497,322.9410 ZM 150.7921,330.9303 c -1.5403,-0.0000 -2.5767,-1.9721 -2.5767 -4.1746c 0.0000,-2.6919 1.2812,-4.3185 2.6343 -4.3185c 0.6190,-0.0000 1.2380,0.3887 1.6554 0.9501c 0.6046,0.8061 0.9213,1.8858 0.9213 3.2389c 0.0000,3.1957 -1.5835,4.3041 -2.6343 4.3041Z"/></g><g stroke-linejoin="miter" stroke-opacity="0.6" fill-opacity="0.0" stroke="rgb(0,0,0)" stroke-width="2.128250649526074" fill="rgb(0,0,0)" stroke-linecap="butt" stroke-miterlimit="10.0"><path d="M 146.1209,308.1231 v 6.5102 "/></g><g stroke-linejoin="miter" stroke-opacity="0.0" fill-opacity="0.0" stroke="rgb(0,0,0)" stroke-width="0.0" fill="rgb(0,0,0)" stroke-linecap="butt" stroke-miterlimit="10.0"><path d="M 471.6294,286.4225 l -0.0000,-217.0057 h -325.5085 l -0.0000,217.0057 Z"/></g><g stroke-linejoin="miter" stroke-opacity="0.5" fill-opacity="0.0" stroke="rgb(93,165,218)" stroke-width="0.8513002598104296" fill="rgb(0,0,0)" stroke-linecap="butt" stroke-miterlimit="10.0"><path d="M 471.6294,286.4225 v -217.0057 "/></g><g stroke-linejoin="miter" stroke-opacity="0.5" fill-opacity="0.0" stroke="rgb(93,165,218)" stroke-width="0.8513002598104296" fill="rgb(0,0,0)" stroke-linecap="butt" stroke-miterlimit="10.0"><path d="M 417.3780,286.4225 v -217.0057 "/></g><g stroke-linejoin="miter" stroke-opacity="0.5" fill-opacity="0.0" stroke="rgb(93,165,218)" stroke-width="0.8513002598104296" fill="rgb(0,0,0)" stroke-linecap="butt" stroke-miterlimit="10.0"><path d="M 363.1266,286.4225 v -217.0057 "/></g><g stroke-linejoin="miter" stroke-opacity="0.5" fill-opacity="0.0" stroke="rgb(93,165,218)" stroke-width="0.8513002598104296" fill="rgb(0,0,0)" stroke-linecap="butt" stroke-miterlimit="10.0"><path d="M 308.8752,286.4225 v -217.0057 "/></g><g stroke-linejoin="miter" stroke-opacity="0.5" fill-opacity="0.0" stroke="rgb(93,165,218)" stroke-width="0.8513002598104296" fill="rgb(0,0,0)" stroke-linecap="butt" stroke-miterlimit="10.0"><path d="M 254.6238,286.4225 v -217.0057 "/></g><g stroke-linejoin="miter" stroke-opacity="0.5" fill-opacity="0.0" stroke="rgb(93,165,218)" stroke-width="0.8513002598104296" fill="rgb(0,0,0)" stroke-linecap="butt" stroke-miterlimit="10.0"><path d="M 200.3723,286.4225 v -217.0057 "/></g><g stroke-linejoin="miter" stroke-opacity="0.5" fill-opacity="0.0" stroke="rgb(93,165,218)" stroke-width="0.8513002598104296" fill="rgb(0,0,0)" stroke-linecap="butt" stroke-miterlimit="10.0"><path d="M 146.1209,286.4225 v -217.0057 "/></g><g stroke-linejoin="miter" stroke-opacity="0.5" fill-opacity="0.0" stroke="rgb(93,165,218)" stroke-width="0.8513002598104296" fill="rgb(0,0,0)" stroke-linecap="butt" stroke-miterlimit="10.0"><path d="M 146.1209,69.4168 h 325.5085 "/></g><g stroke-linejoin="miter" stroke-opacity="0.5" fill-opacity="0.0" stroke="rgb(93,165,218)" stroke-width="0.8513002598104296" fill="rgb(0,0,0)" stroke-linecap="butt" stroke-miterlimit="10.0"><path d="M 146.1209,91.1174 h 325.5085 "/></g><g stroke-linejoin="miter" stroke-opacity="0.5" fill-opacity="0.0" stroke="rgb(93,165,218)" stroke-width="0.8513002598104296" fill="rgb(0,0,0)" stroke-linecap="butt" stroke-miterlimit="10.0"><path d="M 146.1209,112.8180 h 325.5085 "/></g><g stroke-linejoin="miter" stroke-opacity="0.5" fill-opacity="0.0" stroke="rgb(93,165,218)" stroke-width="0.8513002598104296" fill="rgb(0,0,0)" stroke-linecap="butt" stroke-miterlimit="10.0"><path d="M 146.1209,134.5185 h 325.5085 "/></g><g stroke-linejoin="miter" stroke-opacity="0.5" fill-opacity="0.0" stroke="rgb(93,165,218)" stroke-width="0.8513002598104296" fill="rgb(0,0,0)" stroke-linecap="butt" stroke-miterlimit="10.0"><path d="M 146.1209,156.2191 h 325.5085 "/></g><g stroke-linejoin="miter" stroke-opacity="0.5" fill-opacity="0.0" stroke="rgb(93,165,218)" stroke-width="0.8513002598104296" fill="rgb(0,0,0)" stroke-linecap="butt" stroke-miterlimit="10.0"><path d="M 146.1209,177.9197 h 325.5085 "/></g><g stroke-linejoin="miter" stroke-opacity="0.5" fill-opacity="0.0" stroke="rgb(93,165,218)" stroke-width="0.8513002598104296" fill="rgb(0,0,0)" stroke-linecap="butt" stroke-miterlimit="10.0"><path d="M 146.1209,199.6202 h 325.5085 "/></g><g stroke-linejoin="miter" stroke-opacity="0.5" fill-opacity="0.0" stroke="rgb(93,165,218)" stroke-width="0.8513002598104296" fill="rgb(0,0,0)" stroke-linecap="butt" stroke-miterlimit="10.0"><path d="M 146.1209,221.3208 h 325.5085 "/></g><g stroke-linejoin="miter" stroke-opacity="0.5" fill-opacity="0.0" stroke="rgb(93,165,218)" stroke-width="0.8513002598104296" fill="rgb(0,0,0)" stroke-linecap="butt" stroke-miterlimit="10.0"><path d="M 146.1209,243.0214 h 325.5085 "/></g><g stroke-linejoin="miter" stroke-opacity="0.5" fill-opacity="0.0" stroke="rgb(93,165,218)" stroke-width="0.8513002598104296" fill="rgb(0,0,0)" stroke-linecap="butt" stroke-miterlimit="10.0"><path d="M 146.1209,264.7219 h 325.5085 "/></g><g stroke-linejoin="miter" stroke-opacity="0.5" fill-opacity="0.0" stroke="rgb(93,165,218)" stroke-width="0.8513002598104296" fill="rgb(0,0,0)" stroke-linecap="butt" stroke-miterlimit="10.0"><path d="M 146.1209,286.4225 h 325.5085 "/></g></svg>