<?xml version="1.0" encoding="UTF-8"?>
<!DOCTYPE svg PUBLIC "-//W3C//DTD SVG 1.1//EN"
    "http://www.w3.org/Graphics/SVG/1.1/DTD/svg11.dtd"><svg xmlns="http://www.w3.org/2000/svg" height="100.0000" stroke-opacity="1" viewBox="0 0 400 100" font-size="1" width="400.0000" xmlns:xlink="http://www.w3.org/1999/xlink" stroke="rgb(0,0,0)" version="1.1"><defs></defs><g stroke-linejoin="miter" stroke-opacity="0.5" fill-opacity="0.0" stroke="rgb(93,165,218)" stroke-width="3.5774342019141785" fill="rgb(0,0,0)" stroke-linecap="butt" stroke-miterlimit="10.0"><path d="M 0.0000,10.0061 l 4.0000,0.1998 l 4.0000,0.5975 l 4.0000,0.9892 l 4.0000,1.3710 l 4.0000,1.7391 l 4.0000,2.0899 l 4.0000,2.4197 l 4.0000,2.7254 l 4.0000,3.0039 l 4.0000,3.2523 l 4.0000,3.4682 l 4.0000,3.6495 l 4.0000,3.7944 l 4.0000,3.9013 l 4.0000,3.9692 l 4.0000,3.9975 l 4.0000,3.9858 l 4.0000,3.9343 l 4.0000,3.8435 l 4.0000,3.7143 l 4.0000,3.5480 l 4.0000,3.3462 l 4.0000,3.1110 l 4.0000,2.8447 l 4.0000,2.5500 l 4.0000,2.2298 l 4.0000,1.8873 l 4.0000,1.5260 l 4.0000,1.1494 l 4.0000,0.7614 l 4.0000,0.3657 l 4.0000,-0.0336 l 4.0000,-0.4326 l 4.0000,-0.8273 l 4.0000,-1.2137 l 4.0000,-1.5879 l 4.0000,-1.9463 l 4.0000,-2.2853 l 4.0000,-2.6014 l 4.0000,-2.8915 l 4.0000,-3.1528 l 4.0000,-3.3825 l 4.0000,-3.5785 l 4.0000,-3.7387 l 4.0000,-3.8615 l 4.0000,-3.9457 l 4.0000,-3.9906 l 4.0000,-3.9955 l 4.0000,-3.9605 l 4.0000,-3.8860 l 4.0000,-3.7726 l 4.0000,-3.6216 l 4.0000,-3.4343 l 4.0000,-3.2127 l 4.0000,-2.9591 l 4.0000,-2.6758 l 4.0000,-2.3659 l 4.0000,-2.0323 l 4.0000,-1.6784 l 4.0000,-1.3077 l 4.0000,-0.9239 l 4.0000,-0.5309 l 4.0000,-0.1327 l 4.0000,0.2669 l 4.0000,0.6639 l 4.0000,1.0542 l 4.0000,1.4340 l 4.0000,1.7994 l 4.0000,2.1469 l 4.0000,2.4729 l 4.0000,2.7742 l 4.0000,3.0478 l 4.0000,3.2910 l 4.0000,3.5012 l 4.0000,3.6765 l 4.0000,3.8150 l 4.0000,3.9154 l 4.0000,3.9767 l 4.0000,3.9983 l 4.0000,3.9799 l 4.0000,3.9218 l 4.0000,3.8244 l 4.0000,3.6889 l 4.0000,3.5165 l 4.0000,3.3089 l 4.0000,3.0683 l 4.0000,2.7971 l 4.0000,2.4979 l 4.0000,2.1737 l 4.0000,1.8278 l 4.0000,1.4637 l 4.0000,1.0849 l 4.0000,0.6953 l 4.0000,0.2987 l 4.0000,-0.1008 l 4.0000,-0.4994 l 4.0000,-0.8929 l 4.0000,-1.2775 l 4.0000,-1.6494 l 4.0000,-2.0048 "/></g></svg>