<?xml version="1.0" encoding="UTF-8"?>
<!DOCTYPE svg PUBLIC "-//W3C//DTD SVG 1.1//EN"
    "http://www.w3.org/Graphics/SVG/1.1/DTD/svg11.dtd"><svg xmlns="http://www.w3.org/2000/svg" height="100.0000" stroke-opacity="1" viewBox="0 0 300 100" font-size="1" width="300.0000" xmlns:xlink="http://www.w3.org/1999/xlink" stroke="rgb(0,0,0)" version="1.1"><defs></defs><g stroke-linejoin="miter" stroke-opacity="0.0" fill-opacity="1.0" stroke="rgb(0,0,0)" stroke-width="0.0" fill="rgb(93,165,218)" stroke-linecap="butt" stroke-miterlimit="10.0"><path d="M 271.4577,78.2852 l -0.0000,-4.7630 h -4.7630 l -0.0000,4.7630 Z"/></g><g stroke-linejoin="miter" stroke-opacity="0.0" fill-opacity="0.99" stroke="rgb(0,0,0)" stroke-width="0.0" fill="rgb(93,165,218)" stroke-linecap="butt" stroke-miterlimit="10.0"><path d="M 269.0761,74.1658 l -0.0000,-4.7630 h -4.7630 l -0.0000,4.7630 Z"/></g><g stroke-linejoin="miter" stroke-opacity="0.0" fill-opacity="0.98" stroke="rgb(0,0,0)" stroke-width="0.0" fill="rgb(93,165,218)" stroke-linecap="butt" stroke-miterlimit="10.0"><path d="M 266.6946,69.8288 l -0.0000,-4.7630 h -4.7630 l -0.0000,4.7630 Z"/></g><g stroke-linejoin="miter" stroke-opacity="0.0" fill-opacity="0.97" stroke="rgb(0,0,0)" stroke-width="0.0" fill="rgb(93,165,218)" stroke-linecap="butt" stroke-miterlimit="10.0"><path d="M 264.3131,65.3173 l -0.0000,-4.7630 h -4.7630 l -0.0000,4.7630 Z"/></g><g stroke-linejoin="miter" stroke-opacity="0.0" fill-opacity="0.96" stroke="rgb(0,0,0)" stroke-width="0.0" fill="rgb(93,165,218)" stroke-linecap="butt" stroke-miterlimit="10.0"><path d="M 261.9316,60.6765 l -0.0000,-4.7630 h -4.7630 l -0.0000,4.7630 Z"/></g><g stroke-linejoin="miter" stroke-opacity="0.0" fill-opacity="0.9500000000000001" stroke="rgb(0,0,0)" stroke-width="0.0" fill="rgb(93,165,218)" stroke-linecap="butt" stroke-miterlimit="10.0"><path d="M 259.5501,55.9527 l -0.0000,-4.7630 h -4.7630 l -0.0000,4.7630 Z"/></g><g stroke-linejoin="miter" stroke-opacity="0.0" fill-opacity="0.9400000000000001" stroke="rgb(0,0,0)" stroke-width="0.0" fill="rgb(93,165,218)" stroke-linecap="butt" stroke-miterlimit="10.0"><path d="M 257.1685,51.1931 l -0.0000,-4.7630 h -4.7630 l -0.0000,4.7630 Z"/></g><g stroke-linejoin="miter" stroke-opacity="0.0" fill-opacity="0.93" stroke="rgb(0,0,0)" stroke-width="0.0" fill="rgb(93,165,218)" stroke-linecap="butt" stroke-miterlimit="10.0"><path d="M 254.7870,46.4454 l -0.0000,-4.7630 h -4.7630 l -0.0000,4.7630 Z"/></g><g stroke-linejoin="miter" stroke-opacity="0.0" fill-opacity="0.92" stroke="rgb(0,0,0)" stroke-width="0.0" fill="rgb(93,165,218)" stroke-linecap="butt" stroke-miterlimit="10.0"><path d="M 252.4055,41.7568 l -0.0000,-4.7630 h -4.7630 l -0.0000,4.7630 Z"/></g><g stroke-linejoin="miter" stroke-opacity="0.0" fill-opacity="0.91" stroke="rgb(0,0,0)" stroke-width="0.0" fill="rgb(93,165,218)" stroke-linecap="butt" stroke-miterlimit="10.0"><path d="M 250.0240,37.1744 l -0.0000,-4.7630 h -4.7630 l -0.0000,4.7630 Z"/></g><g stroke-linejoin="miter" stroke-opacity="0.0" fill-opacity="0.9" stroke="rgb(0,0,0)" stroke-width="0.0" fill="rgb(93,165,218)" stroke-linecap="butt" stroke-miterlimit="10.0"><path d="M 247.6424,32.7438 l -0.0000,-4.7630 h -4.7630 l -0.0000,4.7630 Z"/></g><g stroke-linejoin="miter" stroke-opacity="0.0" fill-opacity="0.89" stroke="rgb(0,0,0)" stroke-width="0.0" fill="rgb(93,165,218)" stroke-linecap="butt" stroke-miterlimit="10.0"><path d="M 245.2609,28.5093 l -0.0000,-4.7630 h -4.7630 l -0.0000,4.7630 Z"/></g><g stroke-linejoin="miter" stroke-opacity="0.0" fill-opacity="0.88" stroke="rgb(0,0,0)" stroke-width="0.0" fill="rgb(93,165,218)" stroke-linecap="butt" stroke-miterlimit="10.0"><path d="M 242.8794,24.5133 l -0.0000,-4.7630 h -4.7630 l -0.0000,4.7630 Z"/></g><g stroke-linejoin="miter" stroke-opacity="0.0" fill-opacity="0.87" stroke="rgb(0,0,0)" stroke-width="0.0" fill="rgb(93,165,218)" stroke-linecap="butt" stroke-miterlimit="10.0"><path d="M 240.4979,20.7957 l -0.0000,-4.7630 h -4.7630 l -0.0000,4.7630 Z"/></g><g stroke-linejoin="miter" stroke-opacity="0.0" fill-opacity="0.86" stroke="rgb(0,0,0)" stroke-width="0.0" fill="rgb(93,165,218)" stroke-linecap="butt" stroke-miterlimit="10.0"><path d="M 238.1163,17.3935 l -0.0000,-4.7630 h -4.7630 l -0.0000,4.7630 Z"/></g><g stroke-linejoin="miter" stroke-opacity="0.0" fill-opacity="0.85" stroke="rgb(0,0,0)" stroke-width="0.0" fill="rgb(93,165,218)" stroke-linecap="butt" stroke-miterlimit="10.0"><path d="M 235.7348,14.3409 l -0.0000,-4.7630 h -4.7630 l -0.0000,4.7630 Z"/></g><g stroke-linejoin="miter" stroke-opacity="0.0" fill-opacity="0.84" stroke="rgb(0,0,0)" stroke-width="0.0" fill="rgb(93,165,218)" stroke-linecap="butt" stroke-miterlimit="10.0"><path d="M 233.3533,11.6683 l -0.0000,-4.7630 h -4.7630 l -0.0000,4.7630 Z"/></g><g stroke-linejoin="miter" stroke-opacity="0.0" fill-opacity="0.8300000000000001" stroke="rgb(0,0,0)" stroke-width="0.0" fill="rgb(93,165,218)" stroke-linecap="butt" stroke-miterlimit="10.0"><path d="M 230.9718,9.4023 l -0.0000,-4.7630 h -4.7630 l -0.0000,4.7630 Z"/></g><g stroke-linejoin="miter" stroke-opacity="0.0" fill-opacity="0.8200000000000001" stroke="rgb(0,0,0)" stroke-width="0.0" fill="rgb(93,165,218)" stroke-linecap="butt" stroke-miterlimit="10.0"><path d="M 228.5903,7.5658 l -0.0000,-4.7630 h -4.7630 l -0.0000,4.7630 Z"/></g><g stroke-linejoin="miter" stroke-opacity="0.0" fill-opacity="0.81" stroke="rgb(0,0,0)" stroke-width="0.0" fill="rgb(93,165,218)" stroke-linecap="butt" stroke-miterlimit="10.0"><path d="M 226.2087,6.1769 l -0.0000,-4.7630 h -4.7630 l -0.0000,4.7630 Z"/></g><g stroke-linejoin="miter" stroke-opacity="0.0" fill-opacity="0.8" stroke="rgb(0,0,0)" stroke-width="0.0" fill="rgb(93,165,218)" stroke-linecap="butt" stroke-miterlimit="10.0"><path d="M 223.8272,5.2496 l -0.0000,-4.7630 h -4.7630 l -0.0000,4.7630 Z"/></g><g stroke-linejoin="miter" stroke-opacity="0.0" fill-opacity="0.79" stroke="rgb(0,0,0)" stroke-width="0.0" fill="rgb(93,165,218)" stroke-linecap="butt" stroke-miterlimit="10.0"><path d="M 221.4457,4.7932 l -0.0000,-4.7630 h -4.7630 l -0.0000,4.7630 Z"/></g><g stroke-linejoin="miter" stroke-opacity="0.0" fill-opacity="0.78" stroke="rgb(0,0,0)" stroke-width="0.0" fill="rgb(93,165,218)" stroke-linecap="butt" stroke-miterlimit="10.0"><path d="M 219.0642,4.8121 l -0.0000,-4.7630 h -4.7630 l -0.0000,4.7630 Z"/></g><g stroke-linejoin="miter" stroke-opacity="0.0" fill-opacity="0.77" stroke="rgb(0,0,0)" stroke-width="0.0" fill="rgb(93,165,218)" stroke-linecap="butt" stroke-miterlimit="10.0"><path d="M 216.6826,5.3063 l -0.0000,-4.7630 h -4.7630 l -0.0000,4.7630 Z"/></g><g stroke-linejoin="miter" stroke-opacity="0.0" fill-opacity="0.76" stroke="rgb(0,0,0)" stroke-width="0.0" fill="rgb(93,165,218)" stroke-linecap="butt" stroke-miterlimit="10.0"><path d="M 214.3011,6.2707 l -0.0000,-4.7630 h -4.7630 l -0.0000,4.7630 Z"/></g><g stroke-linejoin="miter" stroke-opacity="0.0" fill-opacity="0.75" stroke="rgb(0,0,0)" stroke-width="0.0" fill="rgb(93,165,218)" stroke-linecap="butt" stroke-miterlimit="10.0"><path d="M 211.9196,7.6958 l -0.0000,-4.7630 h -4.7630 l -0.0000,4.7630 Z"/></g><g stroke-linejoin="miter" stroke-opacity="0.0" fill-opacity="0.74" stroke="rgb(0,0,0)" stroke-width="0.0" fill="rgb(93,165,218)" stroke-linecap="butt" stroke-miterlimit="10.0"><path d="M 209.5381,9.5673 l -0.0000,-4.7630 h -4.7630 l -0.0000,4.7630 Z"/></g><g stroke-linejoin="miter" stroke-opacity="0.0" fill-opacity="0.73" stroke="rgb(0,0,0)" stroke-width="0.0" fill="rgb(93,165,218)" stroke-linecap="butt" stroke-miterlimit="10.0"><path d="M 207.1566,11.8665 l -0.0000,-4.7630 h -4.7630 l -0.0000,4.7630 Z"/></g><g stroke-linejoin="miter" stroke-opacity="0.0" fill-opacity="0.72" stroke="rgb(0,0,0)" stroke-width="0.0" fill="rgb(93,165,218)" stroke-linecap="butt" stroke-miterlimit="10.0"><path d="M 204.7750,14.5704 l -0.0000,-4.7630 h -4.7630 l -0.0000,4.7630 Z"/></g><g stroke-linejoin="miter" stroke-opacity="0.0" fill-opacity="0.71" stroke="rgb(0,0,0)" stroke-width="0.0" fill="rgb(93,165,218)" stroke-linecap="butt" stroke-miterlimit="10.0"><path d="M 202.3935,17.6521 l -0.0000,-4.7630 h -4.7630 l -0.0000,4.7630 Z"/></g><g stroke-linejoin="miter" stroke-opacity="0.0" fill-opacity="0.7000000000000001" stroke="rgb(0,0,0)" stroke-width="0.0" fill="rgb(93,165,218)" stroke-linecap="butt" stroke-miterlimit="10.0"><path d="M 200.0120,21.0806 l -0.0000,-4.7630 h -4.7630 l -0.0000,4.7630 Z"/></g><g stroke-linejoin="miter" stroke-opacity="0.0" fill-opacity="0.6900000000000001" stroke="rgb(0,0,0)" stroke-width="0.0" fill="rgb(93,165,218)" stroke-linecap="butt" stroke-miterlimit="10.0"><path d="M 197.6305,24.8218 l -0.0000,-4.7630 h -4.7630 l -0.0000,4.7630 Z"/></g><g stroke-linejoin="miter" stroke-opacity="0.0" fill-opacity="0.68" stroke="rgb(0,0,0)" stroke-width="0.0" fill="rgb(93,165,218)" stroke-linecap="butt" stroke-miterlimit="10.0"><path d="M 195.2489,28.8383 l -0.0000,-4.7630 h -4.7630 l -0.0000,4.7630 Z"/></g><g stroke-linejoin="miter" stroke-opacity="0.0" fill-opacity="0.67" stroke="rgb(0,0,0)" stroke-width="0.0" fill="rgb(93,165,218)" stroke-linecap="butt" stroke-miterlimit="10.0"><path d="M 192.8674,33.0900 l -0.0000,-4.7630 h -4.7630 l -0.0000,4.7630 Z"/></g><g stroke-linejoin="miter" stroke-opacity="0.0" fill-opacity="0.66" stroke="rgb(0,0,0)" stroke-width="0.0" fill="rgb(93,165,218)" stroke-linecap="butt" stroke-miterlimit="10.0"><path d="M 190.4859,37.5343 l -0.0000,-4.7630 h -4.7630 l -0.0000,4.7630 Z"/></g><g stroke-linejoin="miter" stroke-opacity="0.0" fill-opacity="0.65" stroke="rgb(0,0,0)" stroke-width="0.0" fill="rgb(93,165,218)" stroke-linecap="butt" stroke-miterlimit="10.0"><path d="M 188.1044,42.1269 l -0.0000,-4.7630 h -4.7630 l -0.0000,4.7630 Z"/></g><g stroke-linejoin="miter" stroke-opacity="0.0" fill-opacity="0.64" stroke="rgb(0,0,0)" stroke-width="0.0" fill="rgb(93,165,218)" stroke-linecap="butt" stroke-miterlimit="10.0"><path d="M 185.7228,46.8219 l -0.0000,-4.7630 h -4.7630 l -0.0000,4.7630 Z"/></g><g stroke-linejoin="miter" stroke-opacity="0.0" fill-opacity="0.63" stroke="rgb(0,0,0)" stroke-width="0.0" fill="rgb(93,165,218)" stroke-linecap="butt" stroke-miterlimit="10.0"><path d="M 183.3413,51.5723 l -0.0000,-4.7630 h -4.7630 l -0.0000,4.7630 Z"/></g><g stroke-linejoin="miter" stroke-opacity="0.0" fill-opacity="0.62" stroke="rgb(0,0,0)" stroke-width="0.0" fill="rgb(93,165,218)" stroke-linecap="butt" stroke-miterlimit="10.0"><path d="M 180.9598,56.3308 l -0.0000,-4.7630 h -4.7630 l -0.0000,4.7630 Z"/></g><g stroke-linejoin="miter" stroke-opacity="0.0" fill-opacity="0.61" stroke="rgb(0,0,0)" stroke-width="0.0" fill="rgb(93,165,218)" stroke-linecap="butt" stroke-miterlimit="10.0"><path d="M 178.5783,61.0497 l -0.0000,-4.7630 h -4.7630 l -0.0000,4.7630 Z"/></g><g stroke-linejoin="miter" stroke-opacity="0.0" fill-opacity="0.6" stroke="rgb(0,0,0)" stroke-width="0.0" fill="rgb(93,165,218)" stroke-linecap="butt" stroke-miterlimit="10.0"><path d="M 176.1968,65.6819 l -0.0000,-4.7630 h -4.7630 l -0.0000,4.7630 Z"/></g><g stroke-linejoin="miter" stroke-opacity="0.0" fill-opacity="0.59" stroke="rgb(0,0,0)" stroke-width="0.0" fill="rgb(93,165,218)" stroke-linecap="butt" stroke-miterlimit="10.0"><path d="M 173.8152,70.1811 l -0.0000,-4.7630 h -4.7630 l -0.0000,4.7630 Z"/></g><g stroke-linejoin="miter" stroke-opacity="0.0" fill-opacity="0.58" stroke="rgb(0,0,0)" stroke-width="0.0" fill="rgb(93,165,218)" stroke-linecap="butt" stroke-miterlimit="10.0"><path d="M 171.4337,74.5024 l -0.0000,-4.7630 h -4.7630 l -0.0000,4.7630 Z"/></g><g stroke-linejoin="miter" stroke-opacity="0.0" fill-opacity="0.5700000000000001" stroke="rgb(0,0,0)" stroke-width="0.0" fill="rgb(93,165,218)" stroke-linecap="butt" stroke-miterlimit="10.0"><path d="M 169.0522,78.6026 l -0.0000,-4.7630 h -4.7630 l -0.0000,4.7630 Z"/></g><g stroke-linejoin="miter" stroke-opacity="0.0" fill-opacity="0.56" stroke="rgb(0,0,0)" stroke-width="0.0" fill="rgb(93,165,218)" stroke-linecap="butt" stroke-miterlimit="10.0"><path d="M 166.6707,82.4407 l -0.0000,-4.7630 h -4.7630 l -0.0000,4.7630 Z"/></g><g stroke-linejoin="miter" stroke-opacity="0.0" fill-opacity="0.55" stroke="rgb(0,0,0)" stroke-width="0.0" fill="rgb(93,165,218)" stroke-linecap="butt" stroke-miterlimit="10.0"><path d="M 164.2891,85.9784 l -0.0000,-4.7630 h -4.7630 l -0.0000,4.7630 Z"/></g><g stroke-linejoin="miter" stroke-opacity="0.0" fill-opacity="0.54" stroke="rgb(0,0,0)" stroke-width="0.0" fill="rgb(93,165,218)" stroke-linecap="butt" stroke-miterlimit="10.0"><path d="M 161.9076,89.1803 l -0.0000,-4.7630 h -4.7630 l -0.0000,4.7630 Z"/></g><g stroke-linejoin="miter" stroke-opacity="0.0" fill-opacity="0.53" stroke="rgb(0,0,0)" stroke-width="0.0" fill="rgb(93,165,218)" stroke-linecap="butt" stroke-miterlimit="10.0"><path d="M 159.5261,92.0145 l -0.0000,-4.7630 h -4.7630 l -0.0000,4.7630 Z"/></g><g stroke-linejoin="miter" stroke-opacity="0.0" fill-opacity="0.52" stroke="rgb(0,0,0)" stroke-width="0.0" fill="rgb(93,165,218)" stroke-linecap="butt" stroke-miterlimit="10.0"><path d="M 157.1446,94.4525 l -0.0000,-4.7630 h -4.7630 l -0.0000,4.7630 Z"/></g><g stroke-linejoin="miter" stroke-opacity="0.0" fill-opacity="0.51" stroke="rgb(0,0,0)" stroke-width="0.0" fill="rgb(93,165,218)" stroke-linecap="butt" stroke-miterlimit="10.0"><path d="M 154.7630,96.4702 l -0.0000,-4.7630 h -4.7630 l -0.0000,4.7630 Z"/></g><g stroke-linejoin="miter" stroke-opacity="0.0" fill-opacity="0.5" stroke="rgb(0,0,0)" stroke-width="0.0" fill="rgb(93,165,218)" stroke-linecap="butt" stroke-miterlimit="10.0"><path d="M 152.3815,98.0472 l -0.0000,-4.7630 h -4.7630 l -0.0000,4.7630 Z"/></g><g stroke-linejoin="miter" stroke-opacity="0.0" fill-opacity="0.49" stroke="rgb(0,0,0)" stroke-width="0.0" fill="rgb(93,165,218)" stroke-linecap="butt" stroke-miterlimit="10.0"><path d="M 150.0000,99.1679 l -0.0000,-4.7630 h -4.7630 l -0.0000,4.7630 Z"/></g><g stroke-linejoin="miter" stroke-opacity="0.0" fill-opacity="0.48" stroke="rgb(0,0,0)" stroke-width="0.0" fill="rgb(93,165,218)" stroke-linecap="butt" stroke-miterlimit="10.0"><path d="M 147.6185,99.8210 l -0.0000,-4.7630 h -4.7630 l -0.0000,4.7630 Z"/></g><g stroke-linejoin="miter" stroke-opacity="0.0" fill-opacity="0.47000000000000003" stroke="rgb(0,0,0)" stroke-width="0.0" fill="rgb(93,165,218)" stroke-linecap="butt" stroke-miterlimit="10.0"><path d="M 145.2370,100.0000 l -0.0000,-4.7630 h -4.7630 l -0.0000,4.7630 Z"/></g><g stroke-linejoin="miter" stroke-opacity="0.0" fill-opacity="0.46" stroke="rgb(0,0,0)" stroke-width="0.0" fill="rgb(93,165,218)" stroke-linecap="butt" stroke-miterlimit="10.0"><path d="M 142.8554,99.7032 l -0.0000,-4.7630 h -4.7630 l -0.0000,4.7630 Z"/></g><g stroke-linejoin="miter" stroke-opacity="0.0" fill-opacity="0.45" stroke="rgb(0,0,0)" stroke-width="0.0" fill="rgb(93,165,218)" stroke-linecap="butt" stroke-miterlimit="10.0"><path d="M 140.4739,98.9334 l -0.0000,-4.7630 h -4.7630 l -0.0000,4.7630 Z"/></g><g stroke-linejoin="miter" stroke-opacity="0.0" fill-opacity="0.44" stroke="rgb(0,0,0)" stroke-width="0.0" fill="rgb(93,165,218)" stroke-linecap="butt" stroke-miterlimit="10.0"><path d="M 138.0924,97.6984 l -0.0000,-4.7630 h -4.7630 l -0.0000,4.7630 Z"/></g><g stroke-linejoin="miter" stroke-opacity="0.0" fill-opacity="0.43" stroke="rgb(0,0,0)" stroke-width="0.0" fill="rgb(93,165,218)" stroke-linecap="butt" stroke-miterlimit="10.0"><path d="M 135.7109,96.0106 l -0.0000,-4.7630 h -4.7630 l -0.0000,4.7630 Z"/></g><g stroke-linejoin="miter" stroke-opacity="0.0" fill-opacity="0.42" stroke="rgb(0,0,0)" stroke-width="0.0" fill="rgb(93,165,218)" stroke-linecap="butt" stroke-miterlimit="10.0"><path d="M 133.3293,93.8868 l -0.0000,-4.7630 h -4.7630 l -0.0000,4.7630 Z"/></g><g stroke-linejoin="miter" stroke-opacity="0.0" fill-opacity="0.41000000000000003" stroke="rgb(0,0,0)" stroke-width="0.0" fill="rgb(93,165,218)" stroke-linecap="butt" stroke-miterlimit="10.0"><path d="M 130.9478,91.3481 l -0.0000,-4.7630 h -4.7630 l -0.0000,4.7630 Z"/></g><g stroke-linejoin="miter" stroke-opacity="0.0" fill-opacity="0.4" stroke="rgb(0,0,0)" stroke-width="0.0" fill="rgb(93,165,218)" stroke-linecap="butt" stroke-miterlimit="10.0"><path d="M 128.5663,88.4200 l -0.0000,-4.7630 h -4.7630 l -0.0000,4.7630 Z"/></g><g stroke-linejoin="miter" stroke-opacity="0.0" fill-opacity="0.39" stroke="rgb(0,0,0)" stroke-width="0.0" fill="rgb(93,165,218)" stroke-linecap="butt" stroke-miterlimit="10.0"><path d="M 126.1848,85.1318 l -0.0000,-4.7630 h -4.7630 l -0.0000,4.7630 Z"/></g><g stroke-linejoin="miter" stroke-opacity="0.0" fill-opacity="0.38" stroke="rgb(0,0,0)" stroke-width="0.0" fill="rgb(93,165,218)" stroke-linecap="butt" stroke-miterlimit="10.0"><path d="M 123.8032,81.5163 l -0.0000,-4.7630 h -4.7630 l -0.0000,4.7630 Z"/></g><g stroke-linejoin="miter" stroke-opacity="0.0" fill-opacity="0.37" stroke="rgb(0,0,0)" stroke-width="0.0" fill="rgb(93,165,218)" stroke-linecap="butt" stroke-miterlimit="10.0"><path d="M 121.4217,77.6095 l -0.0000,-4.7630 h -4.7630 l -0.0000,4.7630 Z"/></g><g stroke-linejoin="miter" stroke-opacity="0.0" fill-opacity="0.36" stroke="rgb(0,0,0)" stroke-width="0.0" fill="rgb(93,165,218)" stroke-linecap="butt" stroke-miterlimit="10.0"><path d="M 119.0402,73.4506 l -0.0000,-4.7630 h -4.7630 l -0.0000,4.7630 Z"/></g><g stroke-linejoin="miter" stroke-opacity="0.0" fill-opacity="0.35000000000000003" stroke="rgb(0,0,0)" stroke-width="0.0" fill="rgb(93,165,218)" stroke-linecap="butt" stroke-miterlimit="10.0"><path d="M 116.6587,69.0812 l -0.0000,-4.7630 h -4.7630 l -0.0000,4.7630 Z"/></g><g stroke-linejoin="miter" stroke-opacity="0.0" fill-opacity="0.34" stroke="rgb(0,0,0)" stroke-width="0.0" fill="rgb(93,165,218)" stroke-linecap="butt" stroke-miterlimit="10.0"><path d="M 114.2772,64.5447 l -0.0000,-4.7630 h -4.7630 l -0.0000,4.7630 Z"/></g><g stroke-linejoin="miter" stroke-opacity="0.0" fill-opacity="0.33" stroke="rgb(0,0,0)" stroke-width="0.0" fill="rgb(93,165,218)" stroke-linecap="butt" stroke-miterlimit="10.0"><path d="M 111.8956,59.8867 l -0.0000,-4.7630 h -4.7630 l -0.0000,4.7630 Z"/></g><g stroke-linejoin="miter" stroke-opacity="0.0" fill-opacity="0.32" stroke="rgb(0,0,0)" stroke-width="0.0" fill="rgb(93,165,218)" stroke-linecap="butt" stroke-miterlimit="10.0"><path d="M 109.5141,55.1536 l -0.0000,-4.7630 h -4.7630 l -0.0000,4.7630 Z"/></g><g stroke-linejoin="miter" stroke-opacity="0.0" fill-opacity="0.31" stroke="rgb(0,0,0)" stroke-width="0.0" fill="rgb(93,165,218)" stroke-linecap="butt" stroke-miterlimit="10.0"><path d="M 107.1326,50.3927 l -0.0000,-4.7630 h -4.7630 l -0.0000,4.7630 Z"/></g><g stroke-linejoin="miter" stroke-opacity="0.0" fill-opacity="0.3" stroke="rgb(0,0,0)" stroke-width="0.0" fill="rgb(93,165,218)" stroke-linecap="butt" stroke-miterlimit="10.0"><path d="M 104.7511,45.6516 l -0.0000,-4.7630 h -4.7630 l -0.0000,4.7630 Z"/></g><g stroke-linejoin="miter" stroke-opacity="0.0" fill-opacity="0.29" stroke="rgb(0,0,0)" stroke-width="0.0" fill="rgb(93,165,218)" stroke-linecap="butt" stroke-miterlimit="10.0"><path d="M 102.3695,40.9776 l -0.0000,-4.7630 h -4.7630 l -0.0000,4.7630 Z"/></g><g stroke-linejoin="miter" stroke-opacity="0.0" fill-opacity="0.28" stroke="rgb(0,0,0)" stroke-width="0.0" fill="rgb(93,165,218)" stroke-linecap="butt" stroke-miterlimit="10.0"><path d="M 99.9880,36.4176 l -0.0000,-4.7630 h -4.7630 l -0.0000,4.7630 Z"/></g><g stroke-linejoin="miter" stroke-opacity="0.0" fill-opacity="0.27" stroke="rgb(0,0,0)" stroke-width="0.0" fill="rgb(93,165,218)" stroke-linecap="butt" stroke-miterlimit="10.0"><path d="M 97.6065,32.0169 l -0.0000,-4.7630 h -4.7630 l -0.0000,4.7630 Z"/></g><g stroke-linejoin="miter" stroke-opacity="0.0" fill-opacity="0.26" stroke="rgb(0,0,0)" stroke-width="0.0" fill="rgb(93,165,218)" stroke-linecap="butt" stroke-miterlimit="10.0"><path d="M 95.2250,27.8196 l -0.0000,-4.7630 h -4.7630 l -0.0000,4.7630 Z"/></g><g stroke-linejoin="miter" stroke-opacity="0.0" fill-opacity="0.25" stroke="rgb(0,0,0)" stroke-width="0.0" fill="rgb(93,165,218)" stroke-linecap="butt" stroke-miterlimit="10.0"><path d="M 92.8434,23.8677 l -0.0000,-4.7630 h -4.7630 l -0.0000,4.7630 Z"/></g><g stroke-linejoin="miter" stroke-opacity="0.0" fill-opacity="0.24" stroke="rgb(0,0,0)" stroke-width="0.0" fill="rgb(93,165,218)" stroke-linecap="butt" stroke-miterlimit="10.0"><path d="M 90.4619,20.2006 l -0.0000,-4.7630 h -4.7630 l -0.0000,4.7630 Z"/></g><g stroke-linejoin="miter" stroke-opacity="0.0" fill-opacity="0.23" stroke="rgb(0,0,0)" stroke-width="0.0" fill="rgb(93,165,218)" stroke-linecap="butt" stroke-miterlimit="10.0"><path d="M 88.0804,16.8549 l -0.0000,-4.7630 h -4.7630 l -0.0000,4.7630 Z"/></g><g stroke-linejoin="miter" stroke-opacity="0.0" fill-opacity="0.22" stroke="rgb(0,0,0)" stroke-width="0.0" fill="rgb(93,165,218)" stroke-linecap="butt" stroke-miterlimit="10.0"><path d="M 85.6989,13.8641 l -0.0000,-4.7630 h -4.7630 l -0.0000,4.7630 Z"/></g><g stroke-linejoin="miter" stroke-opacity="0.0" fill-opacity="0.21" stroke="rgb(0,0,0)" stroke-width="0.0" fill="rgb(93,165,218)" stroke-linecap="butt" stroke-miterlimit="10.0"><path d="M 83.3174,11.2581 l -0.0000,-4.7630 h -4.7630 l -0.0000,4.7630 Z"/></g><g stroke-linejoin="miter" stroke-opacity="0.0" fill-opacity="0.2" stroke="rgb(0,0,0)" stroke-width="0.0" fill="rgb(93,165,218)" stroke-linecap="butt" stroke-miterlimit="10.0"><path d="M 80.9358,9.0629 l -0.0000,-4.7630 h -4.7630 l -0.0000,4.7630 Z"/></g><g stroke-linejoin="miter" stroke-opacity="0.0" fill-opacity="0.19" stroke="rgb(0,0,0)" stroke-width="0.0" fill="rgb(93,165,218)" stroke-linecap="butt" stroke-miterlimit="10.0"><path d="M 78.5543,7.3005 l -0.0000,-4.7630 h -4.7630 l -0.0000,4.7630 Z"/></g><g stroke-linejoin="miter" stroke-opacity="0.0" fill-opacity="0.18" stroke="rgb(0,0,0)" stroke-width="0.0" fill="rgb(93,165,218)" stroke-linecap="butt" stroke-miterlimit="10.0"><path d="M 76.1728,5.9884 l -0.0000,-4.7630 h -4.7630 l -0.0000,4.7630 Z"/></g><g stroke-linejoin="miter" stroke-opacity="0.0" fill-opacity="0.17" stroke="rgb(0,0,0)" stroke-width="0.0" fill="rgb(93,165,218)" stroke-linecap="butt" stroke-miterlimit="10.0"><path d="M 73.7913,5.1397 l -0.0000,-4.7630 h -4.7630 l -0.0000,4.7630 Z"/></g><g stroke-linejoin="miter" stroke-opacity="0.0" fill-opacity="0.16" stroke="rgb(0,0,0)" stroke-width="0.0" fill="rgb(93,165,218)" stroke-linecap="butt" stroke-miterlimit="10.0"><path d="M 71.4097,4.7630 l -0.0000,-4.7630 h -4.7630 l -0.0000,4.7630 Z"/></g><g stroke-linejoin="miter" stroke-opacity="0.0" fill-opacity="0.15" stroke="rgb(0,0,0)" stroke-width="0.0" fill="rgb(93,165,218)" stroke-linecap="butt" stroke-miterlimit="10.0"><path d="M 69.0282,4.8621 l -0.0000,-4.7630 h -4.7630 l -0.0000,4.7630 Z"/></g><g stroke-linejoin="miter" stroke-opacity="0.0" fill-opacity="0.14" stroke="rgb(0,0,0)" stroke-width="0.0" fill="rgb(93,165,218)" stroke-linecap="butt" stroke-miterlimit="10.0"><path d="M 66.6467,5.4358 l -0.0000,-4.7630 h -4.7630 l -0.0000,4.7630 Z"/></g><g stroke-linejoin="miter" stroke-opacity="0.0" fill-opacity="0.13" stroke="rgb(0,0,0)" stroke-width="0.0" fill="rgb(93,165,218)" stroke-linecap="butt" stroke-miterlimit="10.0"><path d="M 64.2652,6.4785 l -0.0000,-4.7630 h -4.7630 l -0.0000,4.7630 Z"/></g><g stroke-linejoin="miter" stroke-opacity="0.0" fill-opacity="0.12" stroke="rgb(0,0,0)" stroke-width="0.0" fill="rgb(93,165,218)" stroke-linecap="butt" stroke-miterlimit="10.0"><path d="M 61.8837,7.9797 l -0.0000,-4.7630 h -4.7630 l -0.0000,4.7630 Z"/></g><g stroke-linejoin="miter" stroke-opacity="0.0" fill-opacity="0.11" stroke="rgb(0,0,0)" stroke-width="0.0" fill="rgb(93,165,218)" stroke-linecap="butt" stroke-miterlimit="10.0"><path d="M 59.5021,9.9246 l -0.0000,-4.7630 h -4.7630 l -0.0000,4.7630 Z"/></g><g stroke-linejoin="miter" stroke-opacity="0.0" fill-opacity="0.1" stroke="rgb(0,0,0)" stroke-width="0.0" fill="rgb(93,165,218)" stroke-linecap="butt" stroke-miterlimit="10.0"><path d="M 57.1206,12.2935 l -0.0000,-4.7630 h -4.7630 l -0.0000,4.7630 Z"/></g><g stroke-linejoin="miter" stroke-opacity="0.0" fill-opacity="9.0e-2" stroke="rgb(0,0,0)" stroke-width="0.0" fill="rgb(93,165,218)" stroke-linecap="butt" stroke-miterlimit="10.0"><path d="M 54.7391,15.0630 l -0.0000,-4.7630 h -4.7630 l -0.0000,4.7630 Z"/></g><g stroke-linejoin="miter" stroke-opacity="0.0" fill-opacity="8.0e-2" stroke="rgb(0,0,0)" stroke-width="0.0" fill="rgb(93,165,218)" stroke-linecap="butt" stroke-miterlimit="10.0"><path d="M 52.3576,18.2052 l -0.0000,-4.7630 h -4.7630 l -0.0000,4.7630 Z"/></g><g stroke-linejoin="miter" stroke-opacity="0.0" fill-opacity="7.0e-2" stroke="rgb(0,0,0)" stroke-width="0.0" fill="rgb(93,165,218)" stroke-linecap="butt" stroke-miterlimit="10.0"><path d="M 49.9760,21.6888 l -0.0000,-4.7630 h -4.7630 l -0.0000,4.7630 Z"/></g><g stroke-linejoin="miter" stroke-opacity="0.0" fill-opacity="6.0e-2" stroke="rgb(0,0,0)" stroke-width="0.0" fill="rgb(93,165,218)" stroke-linecap="butt" stroke-miterlimit="10.0"><path d="M 47.5945,25.4790 l -0.0000,-4.7630 h -4.7630 l -0.0000,4.7630 Z"/></g><g stroke-linejoin="miter" stroke-opacity="0.0" fill-opacity="5.0e-2" stroke="rgb(0,0,0)" stroke-width="0.0" fill="rgb(93,165,218)" stroke-linecap="butt" stroke-miterlimit="10.0"><path d="M 45.2130,29.5379 l -0.0000,-4.7630 h -4.7630 l -0.0000,4.7630 Z"/></g><g stroke-linejoin="miter" stroke-opacity="0.0" fill-opacity="4.0e-2" stroke="rgb(0,0,0)" stroke-width="0.0" fill="rgb(93,165,218)" stroke-linecap="butt" stroke-miterlimit="10.0"><path d="M 42.8315,33.8250 l -0.0000,-4.7630 h -4.7630 l -0.0000,4.7630 Z"/></g><g stroke-linejoin="miter" stroke-opacity="0.0" fill-opacity="3.0e-2" stroke="rgb(0,0,0)" stroke-width="0.0" fill="rgb(93,165,218)" stroke-linecap="butt" stroke-miterlimit="10.0"><path d="M 40.4499,38.2974 l -0.0000,-4.7630 h -4.7630 l -0.0000,4.7630 Z"/></g><g stroke-linejoin="miter" stroke-opacity="0.0" fill-opacity="2.0e-2" stroke="rgb(0,0,0)" stroke-width="0.0" fill="rgb(93,165,218)" stroke-linecap="butt" stroke-miterlimit="10.0"><path d="M 38.0684,42.9105 l -0.0000,-4.7630 h -4.7630 l -0.0000,4.7630 Z"/></g><g stroke-linejoin="miter" stroke-opacity="0.0" fill-opacity="1.0e-2" stroke="rgb(0,0,0)" stroke-width="0.0" fill="rgb(93,165,218)" stroke-linecap="butt" stroke-miterlimit="10.0"><path d="M 35.6869,47.6181 l -0.0000,-4.7630 h -4.7630 l -0.0000,4.7630 Z"/></g><g stroke-linejoin="miter" stroke-opacity="0.0" fill-opacity="0.0" stroke="rgb(0,0,0)" stroke-width="0.0" fill="rgb(0,0,0)" stroke-linecap="butt" stroke-miterlimit="10.0"><path d="M 33.3054,52.3732 l -0.0000,-4.7630 h -4.7630 l -0.0000,4.7630 Z"/></g></svg>