<?xml version="1.0" encoding="UTF-8"?>
<!DOCTYPE svg PUBLIC "-//W3C//DTD SVG 1.1//EN"
    "http://www.w3.org/Graphics/SVG/1.1/DTD/svg11.dtd"><svg xmlns="http://www.w3.org/2000/svg" height="100.0000" stroke-opacity="1" viewBox="0 0 100 100" font-size="1" width="100.0000" xmlns:xlink="http://www.w3.org/1999/xlink" stroke="rgb(0,0,0)" version="1.1"><defs></defs><g stroke-linejoin="miter" stroke-opacity="0.0" fill-opacity="0.5" stroke="rgb(0,0,0)" stroke-width="0.0" fill="rgb(93,165,218)" stroke-linecap="butt" stroke-miterlimit="10.0"><path d="M 100.0000,100.0000 l -0.0000,-100.0000 h -100.0000 l -0.0000,100.0000 Z"/></g><g stroke-linejoin="miter" stroke-opacity="1.0" fill-opacity="0.8" stroke="rgb(0,0,0)" fill-rule="evenodd" stroke-width="0.0" fill="rgb(0,0,0)" stroke-linecap="butt" stroke-miterlimit="10.0"><path d="M 13.9386,55.0000 ZM 17.0398,45.4809 v 8.3416 c 0.0000,0.4975 0.2488,0.7131 0.9121 0.7131h 0.4312 c 0.0663,-0.0000 0.1327,0.0498 0.1327 0.1327v 0.3151 l -0.0332,0.0332 c 0.0000,-0.0000 -1.4262,-0.0332 -2.0896 -0.0332c -0.5804,-0.0000 -2.1227,0.0332 -2.1227 0.0332l -0.0332,-0.0332 v -0.3151 c 0.0000,-0.0829 0.0498,-0.1327 0.1161 -0.1327h 0.4478 c 0.6799,-0.0000 0.8955,-0.2488 0.8955 -0.7131v -8.3416 c 0.0000,-0.4975 -0.2488,-0.7297 -0.8955 -0.7297h -0.4478 c -0.0663,-0.0000 -0.1327,-0.0498 -0.1327 -0.1327v -0.3151 l 0.0332,-0.0166 c 0.0000,-0.0000 1.4428,0.0166 2.0896 0.0166c 0.5970,-0.0000 2.1393,-0.0166 2.1393 -0.0166l 0.0332,0.0166 v 0.3151 c 0.0000,0.0829 -0.0498,0.1327 -0.1327 0.1327h -0.4312 c -0.6799,-0.0000 -0.9121,0.2653 -0.9121 0.7297ZM 18.7977,55.0000 ZM 20.1078,47.9353 c 0.0000,-0.0000 -0.4312,-2.6368 -0.4312 -2.7861c 0.0000,-0.3648 0.3483,-0.8292 0.8458 -0.8292c 0.4312,-0.0000 0.5804,0.2819 0.5804 0.5473c 0.0000,0.2653 -0.5473,3.0017 -0.5473 3.0017ZM 21.9486,55.0000 ZM 31.9486,53.8060 v -3.8143 c 0.0000,-1.1111 -0.4312,-1.5257 -1.0614 -1.5257c -0.6468,-0.0000 -1.1609,0.3317 -1.9569 1.2106c 0.0332,0.1990 0.0332,0.4312 0.0332 0.6633v 3.4660 c 0.0000,0.4809 0.1658,0.7297 0.7131 0.7297h 0.2819 c 0.0829,-0.0000 0.1493,0.0498 0.1493 0.1327v 0.3151 l -0.0332,0.0332 c 0.0000,-0.0000 -1.1111,-0.0332 -1.7579 -0.0332c -0.5970,-0.0000 -1.7413,0.0332 -1.7413 0.0332l -0.0332,-0.0332 v -0.3151 c 0.0000,-0.0829 0.0498,-0.1327 0.1327 -0.1327h 0.3317 c 0.5638,-0.0000 0.7131,-0.2488 0.7131 -0.7297v -3.7811 c 0.0000,-1.1111 -0.4478,-1.5589 -1.0779 -1.5589c -0.5804,-0.0000 -1.1277,0.4146 -1.9071 1.2272v 4.1128 c 0.0000,0.4809 0.1658,0.7297 0.7131 0.7297h 0.3151 c 0.0663,-0.0000 0.1327,0.0498 0.1327 0.1327v 0.3151 l -0.0332,0.0332 c 0.0000,-0.0000 -1.1277,-0.0332 -1.7745 -0.0332c -0.5970,-0.0000 -1.7247,0.0332 -1.7247 0.0332l -0.0332,-0.0332 v -0.3151 c 0.0000,-0.0829 0.0498,-0.1327 0.1327 -0.1327h 0.3151 c 0.5638,-0.0000 0.7131,-0.2488 0.7131 -0.7297v -4.1294 c 0.0000,-0.9453 -0.1493,-1.0116 -0.3648 -1.0116c -0.2156,-0.0000 -0.4146,0.0166 -0.6965 0.0829l -0.0829,-0.4643 c 1.0448,-0.1824 1.2769,-0.2488 1.7247 -0.4809c 0.1658,-0.0829 0.2985,-0.1327 0.4146 -0.1327h 0.2488 l -0.0498,1.4428 h 0.0498 c 0.7794,-0.8292 1.4760,-1.4428 2.5041 -1.4428c 0.9287,-0.0000 1.5091,0.6799 1.6086 1.4262c 0.9619,-0.9950 1.7413,-1.4262 2.6368 -1.4262c 1.4594,-0.0000 1.7081,1.2106 1.7081 2.6866v 3.4494 c 0.0000,0.4809 0.1658,0.7297 0.7131 0.7297h 0.3151 c 0.0663,-0.0000 0.1327,0.0498 0.1327 0.1327v 0.3151 l -0.0332,0.0332 c 0.0000,-0.0000 -1.1277,-0.0332 -1.7745 -0.0332c -0.5970,-0.0000 -1.7247,0.0332 -1.7247 0.0332l -0.0332,-0.0332 v -0.3151 c 0.0000,-0.0829 0.0498,-0.1327 0.1327 -0.1327h 0.3151 c 0.5473,-0.0000 0.7131,-0.2488 0.7131 -0.7297ZM 38.6982,55.0000 ZM 43.5240,50.9370 l -1.3101,0.3317 c -1.4594,0.4478 -1.6750,1.2106 -1.6750 1.9569c 0.0000,0.5141 0.2488,1.2935 1.2935 1.2935c 0.4975,-0.0000 1.2604,-0.4809 1.6915 -0.8458v -2.7363 ZM 43.5240,50.9370 ZM 44.5854,55.1990 c -0.6302,-0.0000 -0.9784,-0.5638 -1.0448 -0.9619l -0.3814,0.2653 c -0.7629,0.5307 -1.0448,0.6965 -1.8076 0.6965c -1.1609,-0.0000 -2.0066,-0.6633 -2.0066 -1.9071c 0.0000,-1.2604 1.0779,-2.1227 2.6534 -2.5207l 1.5257,-0.3814 c 0.0000,-1.8740 -0.8624,-2.2222 -1.4262 -2.2222c -0.6302,-0.0000 -1.3599,0.2819 -1.3599 0.7960c 0.0000,0.1824 0.0332,0.2819 0.0498 0.3317c 0.0332,0.0663 0.0498,0.1824 0.0498 0.2985c 0.0000,0.2156 -0.1658,0.5473 -0.6468 0.5473c -0.3980,-0.0000 -0.6633,-0.2653 -0.6633 -0.6633c 0.0000,-0.9619 1.5589,-1.8076 2.6202 -1.8076c 1.2106,-0.0000 2.6036,0.4975 2.6036 2.8524v 2.4378 c 0.0000,1.0116 0.0166,1.4428 0.3980 1.4428c 0.3648,-0.0000 0.4643,-0.4643 0.4809 -0.8292l 0.4146,0.0829 c -0.0995,1.2106 -0.6136,1.5423 -1.4594 1.5423ZM 50.3234,55.0000 ZM 52.7944,49.7927 v 4.1294 c 0.5804,0.6799 1.1277,0.7131 1.3930 0.7131c 1.7745,-0.0000 2.1725,-1.6584 2.1725 -3.0846c 0.0000,-2.0066 -0.8126,-3.1177 -1.8242 -3.1177c -0.5638,-0.0000 -1.3765,0.4809 -1.7413 1.3599ZM 52.7944,49.7927 ZM 51.5672,57.6202 v -8.2090 c 0.0000,-0.6302 -0.1493,-0.7463 -0.3814 -0.7463c -0.2156,-0.0000 -0.4146,0.0166 -0.6965 0.0829l -0.0829,-0.4643 c 1.0614,-0.1824 1.2604,-0.2488 1.7247 -0.4809c 0.1824,-0.0829 0.2985,-0.1327 0.4146 -0.1327h 0.2488 l -0.0498,1.3267 h 0.0498 c 0.7629,-1.1609 1.6584,-1.3267 2.1891 -1.3267c 1.6086,-0.0000 2.6700,1.6750 2.6700 3.4328c 0.0000,1.3433 -0.4146,2.3715 -1.1609 3.1343c -0.6468,0.6468 -1.3267,0.9619 -2.2056 0.9619c -0.5970,-0.0000 -1.0614,-0.1327 -1.4925 -0.3648v 2.7861 c 0.0000,0.4809 0.1824,0.7297 0.7131 0.7297h 0.3151 c 0.0829,-0.0000 0.1493,0.0498 0.1493 0.1327v 0.3151 l -0.0332,0.0332 c 0.0000,-0.0000 -1.1443,-0.0332 -1.7910 -0.0332c -0.5804,-0.0000 -1.7081,0.0332 -1.7081 0.0332l -0.0332,-0.0332 v -0.3151 c 0.0000,-0.0829 0.0498,-0.1327 0.1327 -0.1327h 0.3151 c 0.5473,-0.0000 0.7131,-0.2488 0.7131 -0.7297ZM 58.2670,55.0000 ZM 59.5605,45.5307 c 0.0000,-0.4312 0.3483,-0.7960 0.7794 -0.7960c 0.4478,-0.0000 0.7960,0.3648 0.7960 0.7960c 0.0000,0.4478 -0.3483,0.7960 -0.7960 0.7960c -0.4312,-0.0000 -0.7794,-0.3483 -0.7794 -0.7960ZM 59.5605,45.5307 ZM 61.1360,53.8060 c 0.0000,0.4809 0.1824,0.7297 0.7131 0.7297h 0.3151 c 0.0829,-0.0000 0.1493,0.0498 0.1493 0.1327v 0.3151 l -0.0332,0.0332 c 0.0000,-0.0000 -1.1443,-0.0332 -1.7910 -0.0332c -0.5804,-0.0000 -1.7081,0.0332 -1.7081 0.0332l -0.0332,-0.0332 v -0.3151 c 0.0000,-0.0829 0.0498,-0.1327 0.1327 -0.1327h 0.3151 c 0.5473,-0.0000 0.7131,-0.2488 0.7131 -0.7297v -4.1294 c 0.0000,-0.8789 -0.1493,-1.0116 -0.3814 -1.0116c -0.2156,-0.0000 -0.4146,0.0166 -0.6965 0.0829l -0.0829,-0.4643 c 1.0614,-0.1824 1.2438,-0.2488 1.7247 -0.4809c 0.1824,-0.0663 0.2985,-0.1327 0.4146 -0.1327h 0.2488 v 6.1360 ZM 62.6451,55.0000 ZM 65.9121,48.3333 c -0.3317,-0.0000 -0.3980,0.0829 -0.3980 0.1990c 0.0000,0.0829 0.0663,0.2322 0.2488 0.5307l 1.0116,1.4925 c 0.0498,0.0995 0.0995,0.1493 0.1658 0.1493c 0.0498,-0.0000 0.0829,-0.0332 0.1493 -0.1161l 1.0779,-1.5091 c 0.1824,-0.2322 0.2819,-0.4146 0.2819 -0.5473c 0.0000,-0.1327 -0.1161,-0.1990 -0.3483 -0.1990h -0.2653 c -0.0498,-0.0000 -0.0995,-0.0332 -0.0995 -0.1161v -0.3151 l 0.0498,-0.0498 c 0.0000,-0.0000 0.7794,0.0332 1.2935 0.0332c 0.5307,-0.0000 1.3433,-0.0332 1.3433 -0.0332l 0.0166,0.0332 v 0.3151 c 0.0000,0.1161 -0.0995,0.1327 -0.1990 0.1327c -0.6136,-0.0000 -0.8624,0.1990 -1.4760 0.9784l -1.3930,1.7745 c -0.0332,0.0498 -0.0498,0.0829 -0.0498 0.1161c 0.0000,0.0332 0.0166,0.0829 0.0498 0.1327l 1.4925,2.1061 c 0.7629,1.0779 0.9784,1.0945 1.5091 1.0945c 0.1658,-0.0000 0.2322,0.0332 0.2322 0.1327v 0.3151 l -0.0166,0.0332 c 0.0000,-0.0000 -0.8955,-0.0332 -1.4594 -0.0332c -0.6799,-0.0000 -1.7247,0.0332 -1.7247 0.0332l -0.0332,-0.0332 v -0.3151 c 0.0000,-0.0829 0.0332,-0.1327 0.1161 -0.1327h 0.1990 c 0.2653,-0.0000 0.3814,-0.0498 0.3814 -0.1824c 0.0000,-0.1493 -0.1824,-0.3980 -0.4478 -0.7463l -0.9619,-1.3267 c -0.0663,-0.0829 -0.0995,-0.1161 -0.1493 -0.1161c -0.0332,-0.0000 -0.0829,0.0498 -0.1493 0.1493l -1.0448,1.5091 c -0.2488,0.3317 -0.2985,0.4146 -0.2985 0.5307c 0.0000,0.1161 0.0995,0.1824 0.3483 0.1824h 0.2322 c 0.0829,-0.0000 0.1161,0.0498 0.1161 0.1327v 0.3151 l -0.0332,0.0332 c 0.0000,-0.0000 -0.8624,-0.0332 -1.3930 -0.0332c -0.4809,-0.0000 -1.2438,0.0332 -1.2438 0.0332l -0.0332,-0.0332 v -0.2819 c 0.0000,-0.0995 0.0663,-0.1658 0.2156 -0.1658c 0.3980,-0.0000 0.7794,-0.0829 1.4760 -0.9784l 1.3930,-1.7910 c 0.0166,-0.0332 0.0332,-0.0663 0.0332 -0.1161c 0.0000,-0.0498 -0.0166,-0.0829 -0.0498 -0.1327l -1.4428,-2.1061 c -0.4643,-0.6799 -0.7629,-1.0779 -1.3433 -1.0779c -0.1161,-0.0000 -0.2322,-0.0498 -0.2322 -0.1161v -0.3151 l 0.0332,-0.0498 l 1.3101,0.0332 l 1.8408,-0.0332 l 0.0498,0.0498 v 0.2985 c 0.0000,0.0829 -0.0663,0.1327 -0.1327 0.1327h -0.2488 ZM 70.8872,55.0000 ZM 72.7778,50.4063 h 3.0514 c 0.1658,-0.0000 0.2322,-0.0829 0.2322 -0.2322c 0.0000,-1.5423 -0.7794,-1.9403 -1.3765 -1.9403c -0.3814,-0.0000 -1.6252,0.1493 -1.9071 2.1725ZM 72.7778,50.4063 ZM 77.1559,53.4577 l 0.3317,0.2653 c -0.6302,0.8624 -1.6086,1.4760 -2.8027 1.4760c -2.2720,-0.0000 -3.2338,-1.6915 -3.2338 -3.4992c 0.0000,-2.5207 1.6584,-4.0299 3.2338 -4.0299c 2.1891,-0.0000 2.7032,1.7081 2.7032 3.1012c 0.0000,0.1824 -0.1161,0.2819 -0.2985 0.2819h -4.3615 c -0.0166,0.0995 -0.0166,0.1990 -0.0166 0.3317c 0.0000,1.6915 1.1774,3.0017 2.3715 3.0017c 0.9121,-0.0000 1.4925,-0.2985 2.0730 -0.9287ZM 77.9851,55.0000 ZM 79.5605,53.8060 v -8.3085 c 0.0000,-0.9453 -0.1658,-1.2106 -0.4975 -1.2106l -0.5307,0.0663 c -0.0498,-0.0000 -0.0995,-0.0332 -0.0995 -0.0829l -0.0332,-0.4146 c 0.2653,-0.0000 0.8789,-0.0995 1.1609 -0.1493c 0.2985,-0.0663 0.5307,-0.1327 0.8624 -0.2819h 0.3648 v 10.3814 c 0.0000,0.4809 0.1824,0.7297 0.7131 0.7297h 0.3980 c 0.0663,-0.0000 0.1327,0.0498 0.1327 0.1327v 0.3151 l -0.0332,0.0332 c 0.0000,-0.0000 -1.2106,-0.0332 -1.8574 -0.0332c -0.5804,-0.0000 -1.7910,0.0332 -1.7910 0.0332l -0.0166,-0.0332 v -0.3151 c 0.0000,-0.0829 0.0332,-0.1327 0.1161 -0.1327h 0.3980 c 0.5473,-0.0000 0.7131,-0.2488 0.7131 -0.7297ZM 82.2968,55.0000 ZM 84.1708,44.0879 c 0.4478,-0.0000 0.9287,0.3814 0.9287 1.2106c 0.0000,1.0779 -0.2653,1.7745 -0.4312 3.2007c -0.2156,1.7910 -0.2322,2.7861 -0.2653 3.0182c -0.0166,0.1824 -0.0663,0.3317 -0.2322 0.3317c -0.1824,-0.0000 -0.2156,-0.1161 -0.2322 -0.2156c -0.0332,-0.3483 -0.1161,-1.8408 -0.2488 -3.1343c -0.1493,-1.4594 -0.4146,-2.0398 -0.4146 -3.2007c 0.0000,-0.8955 0.5307,-1.2106 0.8955 -1.2106ZM 84.1708,44.0879 ZM 83.2919,54.3201 c 0.0000,-0.4809 0.3814,-0.8789 0.8789 -0.8789c 0.4809,-0.0000 0.8789,0.3980 0.8789 0.8789c 0.0000,0.4809 -0.3980,0.8789 -0.8789 0.8789c -0.4975,-0.0000 -0.8789,-0.3980 -0.8789 -0.8789Z"/></g></svg>