<?xml version="1.0" encoding="UTF-8"?>
<!DOCTYPE svg PUBLIC "-//W3C//DTD SVG 1.1//EN"
    "http://www.w3.org/Graphics/SVG/1.1/DTD/svg11.dtd"><svg xmlns="http://www.w3.org/2000/svg" height="400.0000" stroke-opacity="1" viewBox="0 0 600 400" font-size="1" width="600.0000" xmlns:xlink="http://www.w3.org/1999/xlink" stroke="rgb(0,0,0)" version="1.1"><defs></defs><g stroke-linejoin="miter" stroke-opacity="1.0" fill-opacity="0.6" stroke="rgb(0,0,0)" fill-rule="evenodd" stroke-width="0.0" fill="rgb(0,0,0)" stroke-linecap="butt" stroke-miterlimit="10.0"><path d="M 114.7890,23.9710 ZM 123.4497,23.6492 c -0.1073,0.3754 -0.3754,0.6435 -0.7508 0.6435c -0.4022,-0.0000 -0.7240,-0.2145 -0.8848 -0.6435l -4.8800,-14.7472 c -0.2413,-0.6703 -0.7240,-1.5015 -1.4747 -1.5015h -0.3486 c -0.1877,-0.0000 -0.3218,-0.0804 -0.3218 -0.1877v -0.5095 l 0.0536,-0.0536 c 0.0000,-0.0000 1.3943,0.0268 2.4132 0.0268c 1.3675,-0.0000 3.2444,-0.0268 3.2444 -0.0268l 0.0536,0.0536 v 0.4826 c 0.0000,0.1341 -0.0804,0.2145 -0.2413 0.2145h -0.5899 c -0.5095,-0.0000 -0.7508,0.1877 -0.7508 0.5363c 0.0000,0.1877 0.0536,0.4022 0.1609 0.6971l 4.0756,12.3609 l 2.8422,-8.8752 c 0.1073,-0.3218 0.1877,-0.6703 0.1877 -1.0189c 0.0000,-0.2413 -0.0268,-0.4826 -0.1341 -0.7508l -0.5631,-1.7160 c -0.2145,-0.7240 -0.6971,-1.2334 -1.7429 -1.2334h -0.0804 c -0.1877,-0.0000 -0.3218,-0.0804 -0.3218 -0.1877v -0.5095 l 0.0536,-0.0536 c 0.0000,-0.0000 1.5015,0.0268 2.5741 0.0268c 1.3138,-0.0000 3.4321,-0.0268 3.4321 -0.0268l 0.0804,0.0536 v 0.5095 c 0.0000,0.1341 -0.1341,0.1877 -0.2413 0.1877h -0.7776 c -0.5363,-0.0000 -0.7508,0.3754 -0.7508 0.8312c 0.0000,0.2681 0.0536,0.5631 0.1609 0.8848l 3.9415,11.9319 l 4.1024,-12.3341 c 0.0536,-0.2145 0.1073,-0.4290 0.1073 -0.6167c 0.0000,-0.4022 -0.2413,-0.6971 -0.9116 -0.6971h -0.7240 c -0.1341,-0.0000 -0.2145,-0.1073 -0.2145 -0.1877v -0.5095 l 0.0536,-0.0536 c 0.0000,-0.0000 1.6088,0.0268 2.7349 0.0268c 0.8580,-0.0000 2.2791,-0.0268 2.2791 -0.0268l 0.0268,0.0268 v 0.5095 c 0.0000,0.2145 -0.2949,0.2145 -0.2949 0.2145h -0.2949 c -0.7776,-0.0000 -1.3138,0.2949 -1.6624 1.3407l -4.9336,14.9349 c -0.1341,0.4022 -0.4290,0.6167 -0.8044 0.6167c -0.3486,-0.0000 -0.6971,-0.1877 -0.8580 -0.6435l -3.1371,-9.5187 c -0.1341,-0.3754 -0.2681,-0.7508 -0.3754 -0.7508c -0.1341,-0.0000 -0.2681,0.3486 -0.3754 0.6703ZM 139.3231,23.9710 ZM 143.6936,5.2554 v 9.0897 c 1.7965,-1.7965 3.3785,-2.2255 4.4242 -2.2255c 1.9305,-0.0000 2.8958,1.4747 2.8958 4.2365v 5.6844 c 0.0000,0.7776 0.2681,1.1798 1.1530 1.1798h 0.5095 c 0.1073,-0.0000 0.2145,0.0804 0.2145 0.2145v 0.5095 l -0.0536,0.0536 c 0.0000,-0.0000 -1.8233,-0.0536 -2.8958 -0.0536c -0.9385,-0.0000 -2.7618,0.0536 -2.7618 0.0536l -0.0536,-0.0536 v -0.5095 c 0.0000,-0.1341 0.0804,-0.2145 0.2145 -0.2145h 0.5095 c 0.9116,-0.0000 1.1530,-0.4022 1.1530 -1.1798v -5.9793 c 0.0000,-2.1719 -0.5899,-2.6813 -2.0914 -2.6813c -0.7776,-0.0000 -1.9305,0.6971 -3.2176 1.9574v 6.7033 c 0.0000,0.7776 0.2681,1.1798 1.1530 1.1798h 0.5095 c 0.1073,-0.0000 0.2145,0.0804 0.2145 0.2145v 0.5095 l -0.0536,0.0536 c 0.0000,-0.0000 -1.8233,-0.0536 -2.8690 -0.0536c -0.9653,-0.0000 -2.7618,0.0536 -2.7618 0.0536l -0.0536,-0.0536 v -0.5095 c 0.0000,-0.1341 0.0536,-0.2145 0.1877 -0.2145h 0.5095 c 0.9116,-0.0000 1.1530,-0.4022 1.1530 -1.1798v -13.4334 c 0.0000,-1.5284 -0.2413,-1.9574 -0.7776 -1.9574l -0.8848,0.1073 c -0.0804,-0.0000 -0.1341,-0.0536 -0.1341 -0.1341l -0.0536,-0.6703 c 0.4290,-0.0000 1.3943,-0.1609 1.8501 -0.2413c 0.4826,-0.1073 0.8848,-0.2145 1.4211 -0.4558h 0.5899 ZM 153.2123,23.9710 ZM 155.3037,8.6607 c 0.0000,-0.6971 0.5631,-1.2870 1.2602 -1.2870c 0.7240,-0.0000 1.2870,0.5899 1.2870 1.2870c 0.0000,0.7240 -0.5631,1.2870 -1.2870 1.2870c -0.6971,-0.0000 -1.2602,-0.5631 -1.2602 -1.2870ZM 155.3037,8.6607 ZM 157.8510,22.0404 c 0.0000,0.7776 0.2949,1.1798 1.1530 1.1798h 0.5095 c 0.1341,-0.0000 0.2413,0.0804 0.2413 0.2145v 0.5095 l -0.0536,0.0536 c 0.0000,-0.0000 -1.8501,-0.0536 -2.8958 -0.0536c -0.9385,-0.0000 -2.7618,0.0536 -2.7618 0.0536l -0.0536,-0.0536 v -0.5095 c 0.0000,-0.1341 0.0804,-0.2145 0.2145 -0.2145h 0.5095 c 0.8848,-0.0000 1.1530,-0.4022 1.1530 -1.1798v -6.6765 c 0.0000,-1.4211 -0.2413,-1.6356 -0.6167 -1.6356c -0.3486,-0.0000 -0.6703,0.0268 -1.1262 0.1341l -0.1341,-0.7508 c 1.7160,-0.2949 2.0110,-0.4022 2.7886 -0.7776c 0.2949,-0.1073 0.4826,-0.2145 0.6703 -0.2145h 0.4022 v 9.9209 ZM 160.2910,23.9710 ZM 179.5160,22.0404 v -5.4699 c 0.0000,-2.1719 -0.5631,-3.1908 -1.7965 -3.1908c -0.7776,-0.0000 -1.9305,0.4558 -3.5125 1.9574v 6.7033 c 0.0000,0.7776 0.2681,1.1798 1.1530 1.1798h 0.5095 c 0.1073,-0.0000 0.2145,0.0804 0.2145 0.2145v 0.5095 l -0.0536,0.0536 c 0.0000,-0.0000 -1.8233,-0.0536 -2.8690 -0.0536c -0.9653,-0.0000 -2.0378,0.0536 -2.0378 0.0536l -0.0536,-0.0536 v -0.5095 c 0.0000,-0.1341 0.0804,-0.2145 0.2145 -0.2145h 0.0536 c 0.6971,-0.0000 0.8580,-0.4022 0.8580 -1.1798v -13.5675 c 0.0000,-1.2602 -0.2413,-1.8233 -0.7776 -1.8233l -0.8848,0.1073 c -0.0804,-0.0000 -0.1341,-0.0536 -0.1341 -0.1341l -0.0536,-0.6703 c 0.4290,-0.0000 1.3943,-0.1609 1.8501 -0.2413c 0.4826,-0.1073 0.8848,-0.2145 1.4211 -0.4558h 0.5899 v 9.0897 c 1.7965,-1.7965 3.6466,-2.2255 4.6923 -2.2255c 1.9574,-0.0000 2.6277,1.4747 2.6277 4.2365v 5.6844 c 0.0000,0.7776 0.2681,1.1798 1.1262 1.1798h 0.5363 c 0.1073,-0.0000 0.2145,0.0804 0.2145 0.2145v 0.5095 l -0.0536,0.0536 c 0.0000,-0.0000 -1.8233,-0.0536 -2.8958 -0.0536c -0.9385,-0.0000 -2.7618,0.0536 -2.7618 0.0536l -0.0536,-0.0536 v -0.5095 c 0.0000,-0.1341 0.0804,-0.2145 0.2145 -0.2145h 0.5095 c 0.9116,-0.0000 1.1530,-0.4022 1.1530 -1.1798ZM 179.5160,22.0404 ZM 170.3191,21.4505 c -1.1798,2.0378 -2.4668,2.7618 -4.0488 2.7618c -3.2176,-0.0000 -4.9872,-2.4668 -4.9872 -5.9257c 0.0000,-3.8075 2.1451,-6.2207 5.0141 -6.2207c 2.5741,-0.0000 3.9415,1.3138 3.9415 2.7349c 0.0000,0.8044 -0.4826,1.1798 -1.0189 1.1798c -0.5899,-0.0000 -1.1262,-0.2949 -1.2066 -0.9385c -0.0804,-0.9116 -0.2681,-2.0646 -1.8501 -2.0646c -1.7697,-0.0000 -2.8154,1.8233 -2.8154 4.7191c 0.0000,3.1371 1.4211,5.3358 3.5125 5.3358c 1.1530,-0.0000 2.1451,-0.7508 2.9763 -1.9574ZM 190.4290,23.9710 ZM 193.4857,16.5437 h 4.9336 c 0.2681,-0.0000 0.3754,-0.1341 0.3754 -0.3754c 0.0000,-2.4936 -1.2602,-3.1371 -2.2255 -3.1371c -0.6167,-0.0000 -2.6277,0.2413 -3.0835 3.5125ZM 193.4857,16.5437 ZM 200.5643,21.4773 l 0.5363,0.4290 c -1.0189,1.3943 -2.6009,2.3864 -4.5314 2.3864c -3.6734,-0.0000 -5.2286,-2.7349 -5.2286 -5.6576c 0.0000,-4.0756 2.6813,-6.5156 5.2286 -6.5156c 3.5393,-0.0000 4.3705,2.7618 4.3705 5.0141c 0.0000,0.2949 -0.1877,0.4558 -0.4826 0.4558h -7.0519 c -0.0268,0.1609 -0.0268,0.3218 -0.0268 0.5363c 0.0000,2.7349 1.9037,4.8532 3.8343 4.8532c 1.4747,-0.0000 2.4132,-0.4826 3.3516 -1.5015ZM 200.5912,23.9710 ZM 209.5467,21.5846 v -6.9446 c -0.6435,-1.0189 -1.3675,-1.5820 -2.6277 -1.5820c -0.5363,-0.0000 -1.6356,0.0804 -2.4936 1.3407c -0.3754,0.5631 -0.8312,1.7160 -0.8312 3.6466c 0.0000,3.5125 1.8233,5.1213 3.2712 5.1213c 0.8848,-0.0000 1.6088,-0.5363 2.6813 -1.5820ZM 209.5467,21.5846 ZM 211.5577,5.2554 v 15.4980 c 0.0000,0.8044 0.0536,1.2334 0.1073 1.4211c 0.0804,0.2413 0.3754,0.4022 0.5899 0.4022c 0.3218,-0.0000 0.9116,-0.0000 1.3138 -0.0804l 0.1073,0.7508 c -1.5552,0.2681 -2.9494,0.5631 -3.5125 1.0457h -0.6435 l 0.0804,-1.8501 c -1.0189,1.0457 -2.0646,1.8501 -3.4321 1.8501c -2.8958,-0.0000 -4.6655,-2.4668 -4.6655 -5.7648c 0.0000,-1.9842 0.5363,-3.6466 1.6892 -4.7996c 1.0725,-1.0189 2.2523,-1.6088 4.0220 -1.6088c 0.5363,-0.0000 1.7160,0.2413 2.3327 0.5899v -4.1024 c 0.0000,-1.5284 -0.2413,-1.9574 -0.7776 -1.9574l -0.8848,0.1073 c -0.0536,-0.0000 -0.1341,-0.0536 -0.1341 -0.1341l -0.0536,-0.6703 c 0.4290,-0.0000 1.3943,-0.1609 1.8501 -0.2413c 0.5095,-0.1073 0.8848,-0.2145 1.4211 -0.4558h 0.5899 ZM 213.8369,23.9710 ZM 215.9283,8.6607 c 0.0000,-0.6971 0.5631,-1.2870 1.2602 -1.2870c 0.7240,-0.0000 1.2870,0.5899 1.2870 1.2870c 0.0000,0.7240 -0.5631,1.2870 -1.2870 1.2870c -0.6971,-0.0000 -1.2602,-0.5631 -1.2602 -1.2870ZM 215.9283,8.6607 ZM 218.4755,22.0404 c 0.0000,0.7776 0.2949,1.1798 1.1530 1.1798h 0.5095 c 0.1341,-0.0000 0.2413,0.0804 0.2413 0.2145v 0.5095 l -0.0536,0.0536 c 0.0000,-0.0000 -1.8501,-0.0536 -2.8958 -0.0536c -0.9385,-0.0000 -2.7618,0.0536 -2.7618 0.0536l -0.0536,-0.0536 v -0.5095 c 0.0000,-0.1341 0.0804,-0.2145 0.2145 -0.2145h 0.5095 c 0.8848,-0.0000 1.1530,-0.4022 1.1530 -1.1798v -6.6765 c 0.0000,-1.4211 -0.2413,-1.6356 -0.6167 -1.6356c -0.3486,-0.0000 -0.6703,0.0268 -1.1262 0.1341l -0.1341,-0.7508 c 1.7160,-0.2949 2.0110,-0.4022 2.7886 -0.7776c 0.2949,-0.1073 0.4826,-0.2145 0.6703 -0.2145h 0.4022 v 9.9209 ZM 220.9155,23.9710 ZM 225.3129,13.4870 v 6.8642 c 0.0000,1.6624 0.1609,2.4668 0.8848 2.4668c 0.6971,-0.0000 1.2334,-0.2145 1.9305 -0.7508l 0.4826,0.4558 c -1.0457,1.1798 -2.1182,1.7697 -3.3516 1.7697c -1.2334,-0.0000 -1.9574,-0.7508 -1.9574 -2.6545v -8.1512 h -1.7429 c -0.0804,-0.0000 -0.1073,-0.0268 -0.1073 -0.1073v -0.8312 c 0.0000,-0.0804 0.0268,-0.1073 0.0804 -0.1073c 1.7965,-0.0000 2.2255,-1.0457 2.2255 -3.0835v -0.5095 l 1.5552,-0.5363 v 4.1292 h 2.9494 c 0.1341,-0.0000 0.2145,0.0536 0.2145 0.1609v 0.5363 c 0.0000,0.2413 -0.3754,0.3486 -0.6435 0.3486h -2.5204 ZM 229.0131,23.9710 ZM 229.9248,18.4743 c 0.0000,-3.6734 1.9842,-6.3547 5.5503 -6.3547c 3.9683,-0.0000 5.4967,3.3248 5.4967 6.1134c 0.0000,2.6813 -1.7429,6.0598 -5.5503 6.0598c -3.5930,-0.0000 -5.4967,-3.0835 -5.4967 -5.8185ZM 229.9248,18.4743 ZM 235.1801,13.0044 c -2.1451,-0.0000 -3.1371,2.5204 -3.1371 4.8532c 0.0000,2.0646 1.1798,5.4967 3.8343 5.4967c 1.2066,-0.0000 2.9763,-0.7240 2.9763 -4.2633c 0.0000,-3.9415 -1.4747,-6.0866 -3.6734 -6.0866ZM 241.8566,23.9710 ZM 244.2430,22.0404 v -6.6765 c 0.0000,-1.3407 -0.1877,-1.6356 -0.5899 -1.6356c -0.3486,-0.0000 -0.6703,0.0268 -1.1262 0.1341l -0.1341,-0.7508 c 1.6892,-0.2949 1.9842,-0.3754 2.7886 -0.7776c 0.2681,-0.1341 0.4826,-0.2145 0.6703 -0.2145h 0.4022 l -0.0804,2.4132 h 0.0804 c 0.6971,-1.0457 1.8769,-2.4132 3.1371 -2.4132c 1.0993,-0.0000 1.5015,0.5363 1.5015 1.2334c 0.0000,0.6971 -0.4558,1.1262 -1.1530 1.1262c -0.5363,-0.0000 -0.8312,-0.2145 -1.0993 -0.4826c -0.1609,-0.1609 -0.3486,-0.2413 -0.5363 -0.2413c -0.2949,-0.0000 -0.8848,0.4826 -1.5284 1.3943c -0.1877,0.2413 -0.3218,0.5899 -0.3218 0.9385v 5.9525 c 0.0000,0.7776 0.2681,1.1798 1.1530 1.1798h 0.7776 c 0.1341,-0.0000 0.2413,0.0804 0.2413 0.2145v 0.5095 l -0.0536,0.0536 c 0.0000,-0.0000 -2.1182,-0.0536 -3.1640 -0.0536c -0.9653,-0.0000 -2.7886,0.0536 -2.7886 0.0536l -0.0268,-0.0536 v -0.5095 c 0.0000,-0.1341 0.0536,-0.2145 0.1877 -0.2145h 0.5095 c 0.9116,-0.0000 1.1530,-0.4022 1.1530 -1.1798ZM 251.1608,23.9710 ZM 252.3137,20.2171 l 0.7240,-0.0268 c 0.0804,0.6703 0.3754,1.9574 0.9653 2.5741c 0.2681,0.2949 0.9921,0.7776 1.9842 0.7776c 0.9385,-0.0000 2.3327,-0.7508 2.3327 -2.0646c 0.0000,-1.1530 -0.6435,-1.9305 -2.7618 -2.8422c -1.9574,-0.8580 -2.9763,-1.4211 -2.9763 -3.4321c 0.0000,-1.7965 1.5820,-3.0835 3.7002 -3.0835c 1.3407,-0.0000 2.3327,0.2413 3.1640 0.6703c 0.1609,0.8580 0.2413,1.7697 0.2949 2.7349l -0.7240,0.0268 c -0.5631,-2.1987 -2.1719,-2.6277 -2.7349 -2.6277c -1.0189,-0.0000 -2.0646,0.4022 -2.0646 1.8769c 0.0000,1.0725 0.5095,1.6088 1.9842 2.1451c 2.1719,0.8044 3.9147,1.7697 3.9147 3.9147c 0.0000,2.6545 -2.8154,3.4321 -4.0756 3.4321c -0.9385,-0.0000 -1.7160,-0.1073 -2.4132 -0.2949c -0.1877,-0.0268 -0.3218,-0.0536 -0.5095 -0.0536c -0.1341,-0.0000 -0.3486,0.0268 -0.6167 0.0804c 0.0000,-1.1262 -0.0804,-2.4936 -0.1877 -3.8075ZM 267.8118,23.9710 ZM 276.7673,21.5846 v -6.9446 c -0.6435,-1.0189 -1.3675,-1.5820 -2.6277 -1.5820c -0.5363,-0.0000 -1.6356,0.0804 -2.4936 1.3407c -0.3754,0.5631 -0.8312,1.7160 -0.8312 3.6466c 0.0000,3.5125 1.8233,5.1213 3.2712 5.1213c 0.8848,-0.0000 1.6088,-0.5363 2.6813 -1.5820ZM 276.7673,21.5846 ZM 278.7783,5.2554 v 15.4980 c 0.0000,0.8044 0.0536,1.2334 0.1073 1.4211c 0.0804,0.2413 0.3754,0.4022 0.5899 0.4022c 0.3218,-0.0000 0.9116,-0.0000 1.3138 -0.0804l 0.1073,0.7508 c -1.5552,0.2681 -2.9494,0.5631 -3.5125 1.0457h -0.6435 l 0.0804,-1.8501 c -1.0189,1.0457 -2.0646,1.8501 -3.4321 1.8501c -2.8958,-0.0000 -4.6655,-2.4668 -4.6655 -5.7648c 0.0000,-1.9842 0.5363,-3.6466 1.6892 -4.7996c 1.0725,-1.0189 2.2523,-1.6088 4.0220 -1.6088c 0.5363,-0.0000 1.7160,0.2413 2.3327 0.5899v -4.1024 c 0.0000,-1.5284 -0.2413,-1.9574 -0.7776 -1.9574l -0.8848,0.1073 c -0.0536,-0.0000 -0.1341,-0.0536 -0.1341 -0.1341l -0.0536,-0.6703 c 0.4290,-0.0000 1.3943,-0.1609 1.8501 -0.2413c 0.5095,-0.1073 0.8848,-0.2145 1.4211 -0.4558h 0.5899 ZM 281.0575,23.9710 ZM 281.9691,18.4743 c 0.0000,-3.6734 1.9842,-6.3547 5.5503 -6.3547c 3.9683,-0.0000 5.4967,3.3248 5.4967 6.1134c 0.0000,2.6813 -1.7429,6.0598 -5.5503 6.0598c -3.5930,-0.0000 -5.4967,-3.0835 -5.4967 -5.8185ZM 281.9691,18.4743 ZM 287.2245,13.0044 c -2.1451,-0.0000 -3.1371,2.5204 -3.1371 4.8532c 0.0000,2.0646 1.1798,5.4967 3.8343 5.4967c 1.2066,-0.0000 2.9763,-0.7240 2.9763 -4.2633c 0.0000,-3.9415 -1.4747,-6.0866 -3.6734 -6.0866ZM 300.6043,23.9710 ZM 306.1814,12.9776 c 0.0000,0.1341 -0.1609,0.2145 -0.2949 0.2145c -0.8044,-0.0000 -1.1530,0.1609 -1.1530 0.5899c 0.0000,0.1609 0.0536,0.3754 0.1609 0.6167l 2.9494,6.9178 l 2.9763,-6.8105 c 0.1341,-0.2413 0.1877,-0.4558 0.1877 -0.6167c 0.0000,-0.5631 -0.5363,-0.6971 -1.1262 -0.6971h -0.1073 c -0.1341,-0.0000 -0.2681,-0.1073 -0.2681 -0.1877v -0.5095 l 0.0536,-0.0804 c 0.0000,-0.0000 1.5820,0.0536 2.5204 0.0536c 0.7508,-0.0000 1.8501,-0.0536 1.8501 -0.0536l 0.0804,0.0536 v 0.5095 c 0.0000,0.1341 -0.1073,0.2145 -0.2949 0.2145c -1.0189,-0.0000 -1.5284,1.0457 -1.9037 1.8233c -1.4211,3.0031 -2.6009,5.7648 -4.7459 10.9398c -0.8044,1.9305 -1.7697,4.1829 -3.6734 4.1829c -0.5095,-0.0000 -1.5552,-0.2949 -1.5552 -1.2602c 0.0000,-0.8044 0.5899,-1.0457 1.0189 -1.0457c 0.4022,-0.0000 0.6703,0.1609 0.8312 0.3754c 0.2681,0.2681 0.4558,0.4558 0.7240 0.4558c 0.4022,-0.0000 1.3407,-2.3059 2.0110 -3.9415c 0.1609,-0.3218 0.2145,-0.5899 0.2145 -0.8312c 0.0000,-0.2681 -0.2413,-0.9921 -0.4558 -1.5284l -3.3785,-7.8563 c -0.4290,-1.0189 -0.7240,-1.3138 -1.6356 -1.3138c -0.1609,-0.0000 -0.2681,-0.0804 -0.2681 -0.1877v -0.5363 l 0.0536,-0.0536 c 0.0000,-0.0000 1.1798,0.0536 1.9842 0.0536c 1.2602,-0.0000 3.1908,-0.0536 3.1908 -0.0536l 0.0536,0.0804 v 0.4826 ZM 314.2522,23.9710 ZM 315.1638,18.4743 c 0.0000,-3.6734 1.9842,-6.3547 5.5503 -6.3547c 3.9683,-0.0000 5.4967,3.3248 5.4967 6.1134c 0.0000,2.6813 -1.7429,6.0598 -5.5503 6.0598c -3.5930,-0.0000 -5.4967,-3.0835 -5.4967 -5.8185ZM 315.1638,18.4743 ZM 320.4192,13.0044 c -2.1451,-0.0000 -3.1371,2.5204 -3.1371 4.8532c 0.0000,2.0646 1.1798,5.4967 3.8343 5.4967c 1.2066,-0.0000 2.9763,-0.7240 2.9763 -4.2633c 0.0000,-3.9415 -1.4747,-6.0866 -3.6734 -6.0866ZM 327.0957,23.9710 ZM 338.5985,20.8606 c 0.0000,1.3407 0.1341,1.7697 0.6703 1.7697c 0.3218,-0.0000 0.9116,-0.0536 1.3675 -0.1341l 0.1073,0.7508 c -1.6356,0.2949 -2.9494,0.5631 -3.5662 1.0457h -0.5899 l 0.0804,-1.9842 h -0.0804 c -1.4747,1.6088 -2.6813,1.9842 -3.7807 1.9842c -2.6545,-0.0000 -3.3516,-1.7965 -3.3516 -3.6466v -6.1134 c 0.0000,-0.8848 -0.1877,-1.3407 -1.1798 -1.3407c -0.1073,-0.0000 -0.2949,0.0268 -0.4558 0.0268l -0.0804,-0.0268 v -0.6971 l 0.0804,-0.0804 c 0.0000,-0.0000 1.8233,0.0536 2.6813 0.0536c 0.3754,-0.0000 0.9921,-0.0536 0.9921 -0.0536l -0.0268,2.1451 v 5.7112 c 0.0000,2.3864 1.2334,2.8154 2.0378 2.8154c 0.6167,-0.0000 1.1798,-0.2413 1.7429 -0.6435c 0.6435,-0.4826 1.0725,-0.8580 1.3407 -1.2066v -6.6229 c 0.0000,-0.9653 -0.1341,-1.4211 -1.1262 -1.4211c -0.1609,-0.0000 -0.4558,0.0268 -0.5363 0.0268l -0.0536,-0.0536 v -0.6703 l 0.0536,-0.0804 c 0.0000,-0.0000 1.9037,0.0536 2.6545 0.0536c 0.6167,-0.0000 1.0457,-0.0536 1.0457 -0.0536l -0.0268,2.1182 v 6.3279 ZM 347.6614,23.9710 ZM 359.1642,20.8606 c 0.0000,1.3407 0.1341,1.7697 0.6703 1.7697c 0.3218,-0.0000 0.9116,-0.0536 1.3675 -0.1341l 0.1073,0.7508 c -1.6356,0.2949 -2.9494,0.5631 -3.5662 1.0457h -0.5899 l 0.0804,-1.9842 h -0.0804 c -1.4747,1.6088 -2.6813,1.9842 -3.7807 1.9842c -2.6545,-0.0000 -3.3516,-1.7965 -3.3516 -3.6466v -6.1134 c 0.0000,-0.8848 -0.1877,-1.3407 -1.1798 -1.3407c -0.1073,-0.0000 -0.2949,0.0268 -0.4558 0.0268l -0.0804,-0.0268 v -0.6971 l 0.0804,-0.0804 c 0.0000,-0.0000 1.8233,0.0536 2.6813 0.0536c 0.3754,-0.0000 0.9921,-0.0536 0.9921 -0.0536l -0.0268,2.1451 v 5.7112 c 0.0000,2.3864 1.2334,2.8154 2.0378 2.8154c 0.6167,-0.0000 1.1798,-0.2413 1.7429 -0.6435c 0.6435,-0.4826 1.0725,-0.8580 1.3407 -1.2066v -6.6229 c 0.0000,-0.9653 -0.1341,-1.4211 -1.1262 -1.4211c -0.1609,-0.0000 -0.4558,0.0268 -0.5363 0.0268l -0.0536,-0.0536 v -0.6703 l 0.0536,-0.0804 c 0.0000,-0.0000 1.9037,0.0536 2.6545 0.0536c 0.6167,-0.0000 1.0457,-0.0536 1.0457 -0.0536l -0.0268,2.1182 v 6.3279 ZM 361.5238,23.9710 ZM 362.6767,20.2171 l 0.7240,-0.0268 c 0.0804,0.6703 0.3754,1.9574 0.9653 2.5741c 0.2681,0.2949 0.9921,0.7776 1.9842 0.7776c 0.9385,-0.0000 2.3327,-0.7508 2.3327 -2.0646c 0.0000,-1.1530 -0.6435,-1.9305 -2.7618 -2.8422c -1.9574,-0.8580 -2.9763,-1.4211 -2.9763 -3.4321c 0.0000,-1.7965 1.5820,-3.0835 3.7002 -3.0835c 1.3407,-0.0000 2.3327,0.2413 3.1640 0.6703c 0.1609,0.8580 0.2413,1.7697 0.2949 2.7349l -0.7240,0.0268 c -0.5631,-2.1987 -2.1719,-2.6277 -2.7349 -2.6277c -1.0189,-0.0000 -2.0646,0.4022 -2.0646 1.8769c 0.0000,1.0725 0.5095,1.6088 1.9842 2.1451c 2.1719,0.8044 3.9147,1.7697 3.9147 3.9147c 0.0000,2.6545 -2.8154,3.4321 -4.0756 3.4321c -0.9385,-0.0000 -1.7160,-0.1073 -2.4132 -0.2949c -0.1877,-0.0268 -0.3218,-0.0536 -0.5095 -0.0536c -0.1341,-0.0000 -0.3486,0.0268 -0.6167 0.0804c 0.0000,-1.1262 -0.0804,-2.4936 -0.1877 -3.8075ZM 371.4714,23.9710 ZM 374.5281,16.5437 h 4.9336 c 0.2681,-0.0000 0.3754,-0.1341 0.3754 -0.3754c 0.0000,-2.4936 -1.2602,-3.1371 -2.2255 -3.1371c -0.6167,-0.0000 -2.6277,0.2413 -3.0835 3.5125ZM 374.5281,16.5437 ZM 381.6068,21.4773 l 0.5363,0.4290 c -1.0189,1.3943 -2.6009,2.3864 -4.5314 2.3864c -3.6734,-0.0000 -5.2286,-2.7349 -5.2286 -5.6576c 0.0000,-4.0756 2.6813,-6.5156 5.2286 -6.5156c 3.5393,-0.0000 4.3705,2.7618 4.3705 5.0141c 0.0000,0.2949 -0.1877,0.4558 -0.4826 0.4558h -7.0519 c -0.0268,0.1609 -0.0268,0.3218 -0.0268 0.5363c 0.0000,2.7349 1.9037,4.8532 3.8343 4.8532c 1.4747,-0.0000 2.4132,-0.4826 3.3516 -1.5015ZM 389.6508,23.9710 ZM 392.1176,22.0404 v -8.5534 h -1.8501 c -0.1073,-0.0000 -0.1341,-0.0268 -0.1341 -0.1341v -0.3754 c 0.0000,-0.2145 0.1341,-0.5363 0.6167 -0.5363h 1.3675 v -1.0457 c 0.0000,-4.1829 2.1719,-6.1402 4.4242 -6.1402c 1.0189,-0.0000 1.7160,0.2681 2.3864 0.7240c 0.5363,0.4022 0.7776,0.8580 0.7776 1.2870c 0.0000,0.5631 -0.4022,0.9653 -0.9116 0.9653c -0.5363,-0.0000 -0.8848,-0.2949 -1.0993 -0.7508c -0.3486,-0.8848 -0.8580,-1.3138 -1.6624 -1.3138c -0.8848,-0.0000 -1.9037,0.6435 -1.9037 4.7727v 1.5015 h 2.9494 c 0.1341,-0.0000 0.2145,0.0536 0.2145 0.1609v 0.5363 c 0.0000,0.2413 -0.3754,0.3486 -0.6167 0.3486h -2.5473 v 8.5534 c 0.0000,0.7776 0.2681,1.1798 1.1530 1.1798h 0.8848 c 0.1073,-0.0000 0.2145,0.0804 0.2145 0.2145v 0.5095 l -0.0536,0.0536 c 0.0000,-0.0000 -2.1987,-0.0536 -3.2444 -0.0536c -0.9653,-0.0000 -2.7886,0.0536 -2.7886 0.0536l -0.0536,-0.0536 v -0.5095 c 0.0000,-0.1341 0.0804,-0.2145 0.2145 -0.2145h 0.5095 c 0.9116,-0.0000 1.1530,-0.4022 1.1530 -1.1798ZM 397.8020,23.9710 ZM 398.7136,18.4743 c 0.0000,-3.6734 1.9842,-6.3547 5.5503 -6.3547c 3.9683,-0.0000 5.4967,3.3248 5.4967 6.1134c 0.0000,2.6813 -1.7429,6.0598 -5.5503 6.0598c -3.5930,-0.0000 -5.4967,-3.0835 -5.4967 -5.8185ZM 398.7136,18.4743 ZM 403.9690,13.0044 c -2.1451,-0.0000 -3.1371,2.5204 -3.1371 4.8532c 0.0000,2.0646 1.1798,5.4967 3.8343 5.4967c 1.2066,-0.0000 2.9763,-0.7240 2.9763 -4.2633c 0.0000,-3.9415 -1.4747,-6.0866 -3.6734 -6.0866ZM 410.6455,23.9710 ZM 413.0318,22.0404 v -6.6765 c 0.0000,-1.3407 -0.1877,-1.6356 -0.5899 -1.6356c -0.3486,-0.0000 -0.6703,0.0268 -1.1262 0.1341l -0.1341,-0.7508 c 1.6892,-0.2949 1.9842,-0.3754 2.7886 -0.7776c 0.2681,-0.1341 0.4826,-0.2145 0.6703 -0.2145h 0.4022 l -0.0804,2.4132 h 0.0804 c 0.6971,-1.0457 1.8769,-2.4132 3.1371 -2.4132c 1.0993,-0.0000 1.5015,0.5363 1.5015 1.2334c 0.0000,0.6971 -0.4558,1.1262 -1.1530 1.1262c -0.5363,-0.0000 -0.8312,-0.2145 -1.0993 -0.4826c -0.1609,-0.1609 -0.3486,-0.2413 -0.5363 -0.2413c -0.2949,-0.0000 -0.8848,0.4826 -1.5284 1.3943c -0.1877,0.2413 -0.3218,0.5899 -0.3218 0.9385v 5.9525 c 0.0000,0.7776 0.2681,1.1798 1.1530 1.1798h 0.7776 c 0.1341,-0.0000 0.2413,0.0804 0.2413 0.2145v 0.5095 l -0.0536,0.0536 c 0.0000,-0.0000 -2.1182,-0.0536 -3.1640 -0.0536c -0.9653,-0.0000 -2.7886,0.0536 -2.7886 0.0536l -0.0268,-0.0536 v -0.5095 c 0.0000,-0.1341 0.0536,-0.2145 0.1877 -0.2145h 0.5095 c 0.9116,-0.0000 1.1530,-0.4022 1.1530 -1.1798ZM 426.6529,23.9710 ZM 440.4349,22.0404 v -6.7569 h -8.7679 v 6.7569 c 0.0000,0.8312 0.4022,1.1798 1.4747 1.1798h 0.6971 c 0.1073,-0.0000 0.2145,0.0804 0.2145 0.2145v 0.5095 l -0.0536,0.0536 c 0.0000,-0.0000 -2.3059,-0.0536 -3.3785 -0.0536c -0.9385,-0.0000 -3.4321,0.0536 -3.4321 0.0536l -0.0536,-0.0536 v -0.5095 c 0.0000,-0.1341 0.0804,-0.2145 0.1877 -0.2145h 0.7240 c 1.0993,-0.0000 1.4479,-0.4290 1.4479 -1.1798v -13.4602 c 0.0000,-0.8044 -0.4022,-1.1798 -1.4479 -1.1798h -0.7240 c -0.1073,-0.0000 -0.2145,-0.0804 -0.2145 -0.2145v -0.5095 l 0.0536,-0.0268 c 0.0000,-0.0000 2.3327,0.0268 3.3785 0.0268c 0.9653,-0.0000 3.4589,-0.0268 3.4589 -0.0268l 0.0536,0.0268 v 0.5095 c 0.0000,0.1341 -0.0804,0.2145 -0.2145 0.2145h -0.6971 c -1.0993,-0.0000 -1.4747,0.4290 -1.4747 1.1798v 5.6576 h 8.7679 v -5.6576 c 0.0000,-0.8044 -0.4022,-1.1798 -1.4747 -1.1798h -0.6971 c -0.1341,-0.0000 -0.2413,-0.0804 -0.2413 -0.2145v -0.5095 l 0.0536,-0.0268 c 0.0000,-0.0000 2.3327,0.0268 3.3785 0.0268c 0.9653,-0.0000 3.4589,-0.0268 3.4589 -0.0268l 0.0536,0.0268 v 0.5095 c 0.0000,0.1341 -0.0804,0.2145 -0.2145 0.2145h -0.6971 c -1.0993,-0.0000 -1.4747,0.4290 -1.4747 1.1798v 13.4602 c 0.0000,0.8312 0.4022,1.1798 1.4747 1.1798h 0.6971 c 0.1341,-0.0000 0.2413,0.0804 0.2413 0.2145v 0.5095 l -0.0536,0.0536 c 0.0000,-0.0000 -2.3327,-0.0536 -3.3785 -0.0536c -0.9653,-0.0000 -3.4589,0.0536 -3.4589 0.0536l -0.0536,-0.0536 v -0.5095 c 0.0000,-0.1341 0.0804,-0.2145 0.2145 -0.2145h 0.6971 c 1.0993,-0.0000 1.4747,-0.4290 1.4747 -1.1798ZM 445.4221,23.9710 ZM 453.2248,17.4017 l -2.1182,0.5363 c -2.3596,0.7240 -2.7081,1.9574 -2.7081 3.1640c 0.0000,0.8312 0.4022,2.0914 2.0914 2.0914c 0.8044,-0.0000 2.0378,-0.7776 2.7349 -1.3675v -4.4242 ZM 453.2248,17.4017 ZM 454.9408,24.2927 c -1.0189,-0.0000 -1.5820,-0.9116 -1.6892 -1.5552l -0.6167,0.4290 c -1.2334,0.8580 -1.6892,1.1262 -2.9226 1.1262c -1.8769,-0.0000 -3.2444,-1.0725 -3.2444 -3.0835c 0.0000,-2.0378 1.7429,-3.4321 4.2901 -4.0756l 2.4668,-0.6167 c 0.0000,-3.0299 -1.3943,-3.5930 -2.3059 -3.5930c -1.0189,-0.0000 -2.1987,0.4558 -2.1987 1.2870c 0.0000,0.2949 0.0536,0.4558 0.0804 0.5363c 0.0536,0.1073 0.0804,0.2949 0.0804 0.4826c 0.0000,0.3486 -0.2681,0.8848 -1.0457 0.8848c -0.6435,-0.0000 -1.0725,-0.4290 -1.0725 -1.0725c 0.0000,-1.5552 2.5204,-2.9226 4.2365 -2.9226c 1.9574,-0.0000 4.2097,0.8044 4.2097 4.6119v 3.9415 c 0.0000,1.6356 0.0268,2.3327 0.6435 2.3327c 0.5899,-0.0000 0.7508,-0.7508 0.7776 -1.3407l 0.6703,0.1341 c -0.1609,1.9574 -0.9921,2.4936 -2.3596 2.4936ZM 457.5149,23.9710 ZM 458.6678,20.2171 l 0.7240,-0.0268 c 0.0804,0.6703 0.3754,1.9574 0.9653 2.5741c 0.2681,0.2949 0.9921,0.7776 1.9842 0.7776c 0.9385,-0.0000 2.3327,-0.7508 2.3327 -2.0646c 0.0000,-1.1530 -0.6435,-1.9305 -2.7618 -2.8422c -1.9574,-0.8580 -2.9763,-1.4211 -2.9763 -3.4321c 0.0000,-1.7965 1.5820,-3.0835 3.7002 -3.0835c 1.3407,-0.0000 2.3327,0.2413 3.1640 0.6703c 0.1609,0.8580 0.2413,1.7697 0.2949 2.7349l -0.7240,0.0268 c -0.5631,-2.1987 -2.1719,-2.6277 -2.7349 -2.6277c -1.0189,-0.0000 -2.0646,0.4022 -2.0646 1.8769c 0.0000,1.0725 0.5095,1.6088 1.9842 2.1451c 2.1719,0.8044 3.9147,1.7697 3.9147 3.9147c 0.0000,2.6545 -2.8154,3.4321 -4.0756 3.4321c -0.9385,-0.0000 -1.7160,-0.1073 -2.4132 -0.2949c -0.1877,-0.0268 -0.3218,-0.0536 -0.5095 -0.0536c -0.1341,-0.0000 -0.3486,0.0268 -0.6167 0.0804c 0.0000,-1.1262 -0.0804,-2.4936 -0.1877 -3.8075ZM 467.4626,23.9710 ZM 471.8331,18.2866 v 3.7538 c 0.0000,0.7776 0.2681,1.1798 1.1530 1.1798h 0.0536 c 0.1073,-0.0000 0.2145,0.0804 0.2145 0.2145v 0.5095 l -0.0536,0.0536 c 0.0000,-0.0000 -1.3675,-0.0536 -2.4132 -0.0536c -0.9653,-0.0000 -2.7618,0.0536 -2.7618 0.0536l -0.0536,-0.0536 v -0.5095 c 0.0000,-0.1341 0.0536,-0.2145 0.1877 -0.2145h 0.5095 c 0.9116,-0.0000 1.1530,-0.4022 1.1530 -1.1798v -13.4334 c 0.0000,-1.5284 -0.2413,-1.9574 -0.7776 -1.9574l -0.8848,0.1073 c -0.0804,-0.0000 -0.1341,-0.0536 -0.1341 -0.1341l -0.0536,-0.6703 c 0.4290,-0.0000 1.3943,-0.1609 1.8501 -0.2413c 0.4826,-0.1073 0.8848,-0.2145 1.4211 -0.4558h 0.5899 v 12.3609 c 0.6971,-0.1609 2.0646,-1.3675 3.5125 -2.9494c 0.4290,-0.4290 0.5363,-0.7776 0.5363 -1.0457c 0.0000,-0.2145 -0.1341,-0.4290 -0.7776 -0.4290h -0.1073 c -0.1341,-0.0000 -0.2145,-0.1073 -0.2145 -0.2145v -0.5095 l 0.0804,-0.0536 c 0.0000,-0.0000 1.2870,0.0536 2.2255 0.0536c 1.0457,-0.0000 2.4936,-0.0536 2.4936 -0.0536l 0.1073,0.0536 v 0.5095 c 0.0000,0.1341 -0.1609,0.2145 -0.2949 0.2145h -0.1877 c -0.7240,-0.0000 -1.9037,0.5899 -2.5741 1.2870l -2.0378,2.2523 c -0.0804,0.0804 -0.1073,0.1609 -0.1073 0.2681c 0.0000,0.1341 0.0536,0.2681 0.1341 0.3754l 3.1371,4.6387 c 0.4826,0.7240 1.3407,1.2066 2.0110 1.2066h 0.1877 c 0.1877,-0.0000 0.2413,0.0804 0.2413 0.2145v 0.5095 l -0.0536,0.0536 c 0.0000,-0.0000 -1.3675,-0.0536 -2.4132 -0.0536c -0.9385,-0.0000 -1.6624,0.0536 -1.6624 0.0536l -0.0804,-0.0536 v -0.5095 c 0.0000,-0.3486 -0.0804,-0.6435 -0.6167 -1.4211l -1.9574,-2.7618 c -0.5363,-0.7776 -0.9116,-0.9653 -1.5820 -0.9653ZM 480.3061,23.9710 ZM 483.3628,16.5437 h 4.9336 c 0.2681,-0.0000 0.3754,-0.1341 0.3754 -0.3754c 0.0000,-2.4936 -1.2602,-3.1371 -2.2255 -3.1371c -0.6167,-0.0000 -2.6277,0.2413 -3.0835 3.5125ZM 483.3628,16.5437 ZM 490.4414,21.4773 l 0.5363,0.4290 c -1.0189,1.3943 -2.6009,2.3864 -4.5314 2.3864c -3.6734,-0.0000 -5.2286,-2.7349 -5.2286 -5.6576c 0.0000,-4.0756 2.6813,-6.5156 5.2286 -6.5156c 3.5393,-0.0000 4.3705,2.7618 4.3705 5.0141c 0.0000,0.2949 -0.1877,0.4558 -0.4826 0.4558h -7.0519 c -0.0268,0.1609 -0.0268,0.3218 -0.0268 0.5363c 0.0000,2.7349 1.9037,4.8532 3.8343 4.8532c 1.4747,-0.0000 2.4132,-0.4826 3.3516 -1.5015ZM 491.7821,23.9710 ZM 494.3294,22.0404 v -13.4334 c 0.0000,-1.5284 -0.2681,-1.9574 -0.8044 -1.9574l -0.8580,0.1073 c -0.0804,-0.0000 -0.1609,-0.0536 -0.1609 -0.1341l -0.0536,-0.6703 c 0.4290,-0.0000 1.4211,-0.1609 1.8769 -0.2413c 0.4826,-0.1073 0.8580,-0.2145 1.3943 -0.4558h 0.5899 v 16.7850 c 0.0000,0.7776 0.2949,1.1798 1.1530 1.1798h 0.6435 c 0.1073,-0.0000 0.2145,0.0804 0.2145 0.2145v 0.5095 l -0.0536,0.0536 c 0.0000,-0.0000 -1.9574,-0.0536 -3.0031 -0.0536c -0.9385,-0.0000 -2.8958,0.0536 -2.8958 0.0536l -0.0268,-0.0536 v -0.5095 c 0.0000,-0.1341 0.0536,-0.2145 0.1877 -0.2145h 0.6435 c 0.8848,-0.0000 1.1530,-0.4022 1.1530 -1.1798ZM 498.7535,23.9710 ZM 501.3008,22.0404 v -13.4334 c 0.0000,-1.5284 -0.2681,-1.9574 -0.8044 -1.9574l -0.8580,0.1073 c -0.0804,-0.0000 -0.1609,-0.0536 -0.1609 -0.1341l -0.0536,-0.6703 c 0.4290,-0.0000 1.4211,-0.1609 1.8769 -0.2413c 0.4826,-0.1073 0.8580,-0.2145 1.3943 -0.4558h 0.5899 v 16.7850 c 0.0000,0.7776 0.2949,1.1798 1.1530 1.1798h 0.6435 c 0.1073,-0.0000 0.2145,0.0804 0.2145 0.2145v 0.5095 l -0.0536,0.0536 c 0.0000,-0.0000 -1.9574,-0.0536 -3.0031 -0.0536c -0.9385,-0.0000 -2.8958,0.0536 -2.8958 0.0536l -0.0268,-0.0536 v -0.5095 c 0.0000,-0.1341 0.0536,-0.2145 0.1877 -0.2145h 0.6435 c 0.8848,-0.0000 1.1530,-0.4022 1.1530 -1.1798ZM 505.7250,23.9710 ZM 508.3258,8.6338 c 0.0000,0.4022 0.0536,0.5631 0.1609 0.6971c 0.1073,0.1341 0.1609,0.2949 0.1609 0.6435c 0.0000,0.6167 -0.5363,0.9385 -1.0457 0.9385c -0.4290,-0.0000 -1.0993,-0.2145 -1.0993 -1.1530c 0.0000,-1.0189 0.5631,-1.7697 1.3675 -2.4132c 0.7776,-0.6703 1.9037,-1.0457 3.3248 -1.0457c 2.7349,-0.0000 4.4242,1.6088 4.4242 4.0488c 0.0000,2.1182 -1.5820,3.2980 -2.8422 4.2097c -0.6167,0.4558 -1.1530,0.8848 -1.3943 1.3407c -0.3486,0.6703 -0.4826,1.3138 -0.4826 1.9574v 1.1798 c 0.0000,0.1877 -0.1341,0.2681 -0.3486 0.2681c -0.2145,-0.0000 -0.3486,-0.0804 -0.3486 -0.2681v -1.2334 c 0.0000,-1.1530 0.0536,-2.7349 1.7965 -4.3169c 1.0725,-0.9921 1.6088,-1.7697 1.6088 -3.0299c 0.0000,-1.7429 -1.1530,-3.3516 -2.6813 -3.3516c -1.5284,-0.0000 -2.6009,0.7240 -2.6009 1.5284ZM 508.3258,8.6338 ZM 509.1302,22.8716 c 0.0000,-0.7776 0.6435,-1.4211 1.4211 -1.4211c 0.7776,-0.0000 1.4211,0.6435 1.4211 1.4211c 0.0000,0.7776 -0.6435,1.4211 -1.4211 1.4211c -0.7776,-0.0000 -1.4211,-0.6435 -1.4211 -1.4211Z"/></g><g stroke-linejoin="miter" stroke-opacity="0.0" fill-opacity="0.1" stroke="rgb(0,0,0)" stroke-width="0.0" fill="rgb(0,0,0)" stroke-linecap="butt" stroke-miterlimit="10.0"><path d="M 517.7909,323.5544 l -0.0000,-5.3894 h -404.2084 l -0.0000,5.3894 Z"/></g><g stroke-linejoin="miter" stroke-opacity="1.0" fill-opacity="0.6" stroke="rgb(0,0,0)" fill-rule="evenodd" stroke-width="0.0" fill="rgb(0,0,0)" stroke-linecap="butt" stroke-miterlimit="10.0"><path d="M 492.5278,341.5913 ZM 504.6368,337.9257 c -1.2134,-1.2134 -3.7035,-1.5041 -6.3578 1.1502c -2.4269,2.4269 -2.3384,5.3719 -0.8216 6.8887c 1.4409,1.4409 3.9310,1.1755 6.1935 -1.0870c 2.6291,-2.6291 2.7681,-5.1697 0.9859 -6.9519ZM 504.6368,337.9257 ZM 505.0539,345.8003 c -2.5280,2.5280 -5.8649,2.7555 -8.2791 0.3413c -2.1741,-2.1741 -2.3510,-5.5110 0.1390 -8.0010c 2.4774,-2.4774 6.0545,-2.7428 8.3170 -0.4803c 2.2752,2.2752 2.3257,5.6374 -0.1770 8.1401ZM 501.3505,350.4139 ZM 508.3656,347.5446 l -3.2358,3.2358 c -0.7837,0.7837 -1.0870,1.2387 -0.7458 1.5800c 0.3286,0.3286 0.6826,0.4803 1.2640 0.5562l 0.0126,0.4424 c -1.0491,0.0632 -1.8328,-0.1643 -2.4142 -0.7458c -0.5814,-0.5814 -0.5688,-1.2766 0.3286 -2.1741l 3.8425,-3.8425 l -0.8216,-0.8216 c -0.0379,-0.0379 -0.0379,-0.0632 -0.0000 -0.1011l 0.3918,-0.3918 c 0.0379,-0.0379 0.0632,-0.0379 0.0885 -0.0126c 0.8469,0.8469 1.5421,0.5562 2.5027 -0.4045l 0.2402,-0.2402 l 0.9859,0.4803 l -1.9465,1.9465 l 1.3904,1.3904 c 0.0632,0.0632 0.0758,0.1264 0.0253 0.1770l -0.2528,0.2528 c -0.1138,0.1138 -0.3413,-0.0126 -0.4677 -0.1390l -1.1881,-1.1881 ZM 505.1677,354.2311 ZM 516.0506,347.4688 l -4.2849,4.2849 c 1.6937,-0.0000 2.6417,0.5435 3.1347 1.0365c 0.9101,0.9101 0.6699,2.0603 -0.6320 3.3622l -2.6796,2.6796 c -0.3666,0.3666 -0.4298,0.6826 -0.0126 1.0997l 0.2402,0.2402 c 0.0506,0.0506 0.0632,0.1390 0.0000 0.2022l -0.2402,0.2402 l -0.0506,0.0000 c 0.0000,-0.0000 -0.8342,-0.8848 -1.3398 -1.3904c -0.4424,-0.4424 -1.3272,-1.2766 -1.3272 -1.2766l -0.0000,-0.0506 l 0.2402,-0.2402 c 0.0632,-0.0632 0.1390,-0.0632 0.2022 -0.0000l 0.2402,0.2402 c 0.4298,0.4298 0.7331,0.3539 1.0997 -0.0126l 2.8187,-2.8187 c 1.0238,-1.0238 0.9859,-1.5421 0.2781 -2.2499c -0.3666,-0.3666 -1.2387,-0.5814 -2.4395 -0.5941l -3.1600,3.1600 c -0.3666,0.3666 -0.4298,0.6826 -0.0126 1.0997l 0.2402,0.2402 c 0.0506,0.0506 0.0632,0.1390 0.0000 0.2022l -0.2402,0.2402 l -0.0506,0.0000 c 0.0000,-0.0000 -0.8342,-0.8848 -1.3272 -1.3777c -0.4550,-0.4550 -1.3272,-1.2766 -1.3272 -1.2766l -0.0000,-0.0506 l 0.2402,-0.2402 c 0.0632,-0.0632 0.1264,-0.0758 0.1896 -0.0126l 0.2402,0.2402 c 0.4298,0.4298 0.7331,0.3539 1.0997 -0.0126l 6.3326,-6.3326 c 0.7205,-0.7205 0.8090,-1.0365 0.5562 -1.2893l -0.4677,-0.3666 c -0.0379,-0.0379 -0.0379,-0.0885 -0.0000 -0.1264l 0.2907,-0.3413 c 0.2022,0.2022 0.7331,0.5814 0.9859 0.7584c 0.2781,0.1770 0.5182,0.3160 0.8848 0.4550l 0.2781,0.2781 ZM 511.7151,360.7786 ZM 516.6573,358.7183 l 2.3257,2.3257 c 0.1264,0.1264 0.2402,0.1138 0.3539 -0.0000c 1.1755,-1.1755 0.8848,-2.0729 0.4298 -2.5280c -0.2907,-0.2907 -1.3525,-1.1249 -3.1094 0.2022ZM 516.6573,358.7183 ZM 517.6685,364.3809 l 0.0506,0.4550 c -1.1376,0.1770 -2.3510,-0.1011 -3.2611 -1.0112c -1.7317,-1.7317 -1.1755,-3.7540 0.2022 -5.1318c 1.9213,-1.9213 4.3355,-1.8075 5.5363 -0.6067c 1.6685,1.6685 0.7584,3.3622 -0.3034 4.4239c -0.1390,0.1390 -0.3034,0.1264 -0.4424 -0.0126l -3.3243,-3.3243 c -0.0885,0.0632 -0.1643,0.1390 -0.2654 0.2402c -1.2893,1.2893 -1.3904,3.1852 -0.4803 4.0953c 0.6952,0.6952 1.3651,0.9101 2.2878 0.8721ZM 517.1250,366.1884 ZM 519.1600,366.4033 l 3.1473,-3.1473 c 0.6320,-0.6320 0.6826,-0.8595 0.4930 -1.0491c -0.1643,-0.1643 -0.3286,-0.3034 -0.5941 -0.4677l 0.2907,-0.4171 c 0.9353,0.6573 1.1123,0.7584 1.6811 0.9480c 0.1896,0.0632 0.3286,0.1264 0.4171 0.2149l 0.1896,0.1896 l -1.1755,1.0997 l 0.0379,0.0379 c 0.8216,-0.1643 2.0224,-0.2528 2.6164 0.3413c 0.5182,0.5182 0.4550,0.9606 0.1264 1.2893c -0.3286,0.3286 -0.7458,0.3160 -1.0744 -0.0126c -0.2528,-0.2528 -0.2907,-0.4930 -0.2907 -0.7458c -0.0000,-0.1517 -0.0506,-0.2781 -0.1390 -0.3666c -0.1390,-0.1390 -0.6446,-0.1896 -1.3777 -0.0632c -0.2022,0.0253 -0.4298,0.1264 -0.5941 0.2907l -2.8060,2.8060 c -0.3666,0.3666 -0.4298,0.6826 -0.0126 1.0997l 0.3666,0.3666 c 0.0632,0.0632 0.0758,0.1517 0.0126 0.2149l -0.2402,0.2402 l -0.0506,0.0000 c 0.0000,-0.0000 -0.9733,-1.0238 -1.4662 -1.5168c -0.4550,-0.4550 -1.3398,-1.2893 -1.3398 -1.2893l 0.0126,-0.0379 l 0.2402,-0.2402 c 0.0632,-0.0632 0.1264,-0.0758 0.1896 -0.0126l 0.2402,0.2402 c 0.4298,0.4298 0.7331,0.3539 1.0997 -0.0126Z"/></g><g stroke-linejoin="miter" stroke-opacity="0.6" fill-opacity="0.0" stroke="rgb(0,0,0)" stroke-width="2.157827782149205" fill="rgb(0,0,0)" stroke-linecap="butt" stroke-miterlimit="10.0"><path d="M 492.5278,318.1650 v 8.0842 "/></g><g stroke-linejoin="miter" stroke-opacity="1.0" fill-opacity="0.6" stroke="rgb(0,0,0)" fill-rule="evenodd" stroke-width="0.0" fill="rgb(0,0,0)" stroke-linecap="butt" stroke-miterlimit="10.0"><path d="M 442.0018,341.5913 ZM 455.4253,340.5042 c 0.2149,-0.0885 0.3413,-0.1643 0.4298 -0.2528c 0.1896,-0.1896 -0.0506,-0.4803 -0.4803 -0.9101l -0.2275,-0.2275 c -0.0506,-0.0506 -0.0632,-0.1390 -0.0000 -0.2022l 0.2402,-0.2402 l 0.0379,0.0126 c 0.0000,-0.0000 0.9101,0.9353 1.4030 1.4283c 0.4424,0.4424 1.1123,1.0870 1.1123 1.0870l 0.0126,0.0379 l -0.2402,0.2402 c -0.0632,0.0632 -0.1390,0.0632 -0.2022 0.0000c -0.5182,-0.5182 -0.8721,-0.6446 -1.4789 -0.3666l -9.7706,4.4619 c -0.2654,0.1138 -0.4677,0.1138 -0.6067 -0.0253c -0.1264,-0.1264 -0.1264,-0.3286 -0.0000 -0.5814l 4.6009,-9.5810 c 0.3286,-0.6826 0.0758,-1.0870 -0.3413 -1.5041c -0.0506,-0.0506 -0.0632,-0.1390 -0.0000 -0.2022l 0.2402,-0.2402 l 0.0379,0.0126 c 0.0000,-0.0000 0.9733,0.9985 1.4662 1.4915c 0.4424,0.4424 1.5800,1.5547 1.5800 1.5547l 0.0126,0.0379 l -0.2402,0.2402 c -0.0632,0.0632 -0.1390,0.0632 -0.2022 0.0000l -0.3413,-0.3413 c -0.4550,-0.4550 -0.7331,-0.4803 -0.9353 -0.2781c -0.0758,0.0758 -0.1264,0.1770 -0.2022 0.3034l -2.9198,6.0798 l -0.7078,1.4915 l 1.4536,-0.6699 ZM 449.8006,349.3901 ZM 462.6047,346.2427 c -0.6194,0.7205 -1.1502,1.4536 -1.6558 2.1867l -0.4424,-0.3160 c 0.5941,-1.0744 1.3019,-2.4900 0.0506 -3.7414c -0.8342,-0.8342 -2.0350,-0.7458 -2.8060 0.0253c -1.0491,1.0491 -0.2781,2.7808 0.0632 3.5012c 0.6826,1.4409 1.3398,3.1347 -0.1896 4.6641c -1.2893,1.2893 -3.5265,1.4283 -4.9801 -0.0253c -1.2387,-1.2387 -1.2261,-1.6558 -1.5294 -1.9592c -0.2528,-0.2528 -0.4298,-0.3034 -0.6446 -0.5182c 0.6194,-0.6699 1.1376,-1.3651 1.9718 -2.4521l 0.4171,0.3413 c -0.8974,1.4030 -1.0997,2.7934 0.0253 3.9184c 0.9606,0.9606 2.2499,1.1376 3.2737 0.1138c 1.1502,-1.1502 0.8595,-2.1235 0.3918 -3.1979c -0.5688,-1.2513 -1.4915,-3.4380 -0.0126 -4.9169c 1.3398,-1.3398 3.4633,-0.9101 4.5630 0.1896c 1.1755,1.1755 0.9101,1.3904 1.5041 2.1867Z"/></g><g stroke-linejoin="miter" stroke-opacity="0.6" fill-opacity="0.0" stroke="rgb(0,0,0)" stroke-width="2.157827782149205" fill="rgb(0,0,0)" stroke-linecap="butt" stroke-miterlimit="10.0"><path d="M 442.0018,318.1650 v 8.0842 "/></g><g stroke-linejoin="miter" stroke-opacity="1.0" fill-opacity="0.6" stroke="rgb(0,0,0)" fill-rule="evenodd" stroke-width="0.0" fill="rgb(0,0,0)" stroke-linecap="butt" stroke-miterlimit="10.0"><path d="M 391.4757,341.5913 ZM 406.1380,342.1727 l -6.7750,6.7750 c -0.2402,0.2402 -0.4550,0.2781 -0.6320 0.1011c -0.1896,-0.2149 -0.2781,-0.4550 -0.2275 -0.7837l 1.1629,-9.9855 c 0.0632,-0.4930 0.0632,-0.7710 -0.0126 -0.8469c -0.1011,-0.1011 -0.3160,0.0632 -0.7458 0.4930l -4.4366,4.4366 c -0.3792,0.3792 -0.5688,0.9480 -0.0632 1.4536l 0.3286,0.3286 c 0.0506,0.0506 0.0632,0.1390 0.0000 0.2022l -0.2402,0.2402 l -0.0506,0.0000 c 0.0000,-0.0000 -0.8721,-0.9227 -1.3777 -1.4283c -0.4424,-0.4424 -1.3777,-1.3272 -1.3777 -1.3272l -0.0632,-0.1138 l 0.2275,-0.2275 c 0.0632,-0.0632 0.2149,-0.0126 0.2781 0.0506l 0.3286,0.3286 c 0.5182,0.5182 1.0997,0.2654 1.4409 -0.0758l 5.8396,-5.8396 c 0.2528,-0.4045 0.4171,-1.3019 -0.0000 -1.7190c -0.1011,-0.1011 -0.2022,-0.2275 -0.1138 -0.3160l 0.2022,-0.2022 l 0.0758,-0.0253 l 1.6558,1.6558 l -1.1629,9.9855 c -0.1011,0.8342 -0.2907,1.3525 -0.1896 1.4536c 0.0885,0.0885 0.3286,-0.1517 0.5688 -0.3918l 4.7905,-4.7905 c 0.3413,-0.3413 0.6067,-0.9353 0.0885 -1.4536l -0.3286,-0.3286 c -0.0632,-0.0632 -0.1390,-0.2149 -0.0758 -0.2781l 0.2402,-0.2402 l 0.0758,0.0506 c 0.0000,-0.0000 0.9227,0.9480 1.3777 1.4030c 0.4930,0.4930 1.4157,1.3904 1.4157 1.3904l 0.0126,0.0379 l -0.2402,0.2402 c -0.0632,0.0632 -0.1517,0.0506 -0.2022 0.0000l -0.3413,-0.3413 c -0.4930,-0.4930 -1.0744,-0.2907 -1.4536 0.0885ZM 399.9571,350.0726 ZM 402.9780,347.9112 c 1.7317,-1.7317 3.9310,-2.0603 5.6121 -0.3792c 1.8707,1.8707 1.0238,4.1585 -0.2907 5.4731c -1.2640,1.2640 -3.6782,2.0350 -5.4731 0.2402c -1.6937,-1.6937 -1.1376,-4.0448 0.1517 -5.3340ZM 402.9780,347.9112 ZM 408.0339,347.8101 c -1.0112,-1.0112 -2.6670,-0.2907 -3.7667 0.8090c -0.9733,0.9733 -2.0350,3.1473 -0.7837 4.3987c 0.5688,0.5688 1.7443,1.0617 3.4128 -0.6067c 1.8581,-1.8581 2.1741,-3.5644 1.1376 -4.6009ZM 406.0116,356.1271 ZM 413.0267,353.2578 l -3.2358,3.2358 c -0.7837,0.7837 -1.0870,1.2387 -0.7458 1.5800c 0.3286,0.3286 0.6826,0.4803 1.2640 0.5562l 0.0126,0.4424 c -1.0491,0.0632 -1.8328,-0.1643 -2.4142 -0.7458c -0.5814,-0.5814 -0.5688,-1.2766 0.3286 -2.1741l 3.8425,-3.8425 l -0.8216,-0.8216 c -0.0379,-0.0379 -0.0379,-0.0632 -0.0000 -0.1011l 0.3918,-0.3918 c 0.0379,-0.0379 0.0632,-0.0379 0.0885 -0.0126c 0.8469,0.8469 1.5421,0.5562 2.5027 -0.4045l 0.2402,-0.2402 l 0.9859,0.4803 l -1.9465,1.9465 l 1.3904,1.3904 c 0.0632,0.0632 0.0758,0.1264 0.0253 0.1770l -0.2528,0.2528 c -0.1138,0.1138 -0.3413,-0.0126 -0.4677 -0.1390l -1.1881,-1.1881 ZM 409.8288,359.9443 ZM 414.7710,357.8840 l 2.3257,2.3257 c 0.1264,0.1264 0.2402,0.1138 0.3539 -0.0000c 1.1755,-1.1755 0.8848,-2.0729 0.4298 -2.5280c -0.2907,-0.2907 -1.3525,-1.1249 -3.1094 0.2022ZM 414.7710,357.8840 ZM 415.7822,363.5467 l 0.0506,0.4550 c -1.1376,0.1770 -2.3510,-0.1011 -3.2611 -1.0112c -1.7317,-1.7317 -1.1755,-3.7540 0.2022 -5.1318c 1.9213,-1.9213 4.3355,-1.8075 5.5363 -0.6067c 1.6685,1.6685 0.7584,3.3622 -0.3034 4.4239c -0.1390,0.1390 -0.3034,0.1264 -0.4424 -0.0126l -3.3243,-3.3243 c -0.0885,0.0632 -0.1643,0.1390 -0.2654 0.2402c -1.2893,1.2893 -1.3904,3.1852 -0.4803 4.0953c 0.6952,0.6952 1.3651,0.9101 2.2878 0.8721ZM 415.2386,365.3542 ZM 421.0909,363.2686 l -3.1473,3.1473 c -0.0758,0.9606 0.3160,1.4030 0.5182 1.6053c 1.3525,1.3525 2.9198,0.3918 4.0068 -0.6952c 1.5294,-1.5294 1.7569,-2.9956 0.9859 -3.7667c -0.4298,-0.4298 -1.4157,-0.6826 -2.3637 -0.2907ZM 421.0909,363.2686 ZM 414.1895,368.2993 l 6.2567,-6.2567 c 0.4803,-0.4803 0.4550,-0.6826 0.2781 -0.8595c -0.1643,-0.1643 -0.3286,-0.3034 -0.5941 -0.4677l 0.2907,-0.4171 c 0.9480,0.6699 1.1502,0.7710 1.6811 0.9480c 0.2022,0.0758 0.3286,0.1264 0.4171 0.2149l 0.1896,0.1896 l -1.0491,0.9733 l 0.0379,0.0379 c 1.4662,-0.3034 2.2752,0.2528 2.6796 0.6573c 1.2261,1.2261 0.7584,3.3116 -0.5814 4.6515c -1.0238,1.0238 -2.1235,1.4915 -3.2737 1.5041c -0.9859,0.0000 -1.7443,-0.2781 -2.4142 -0.9480c -0.4550,-0.4550 -0.7078,-0.9101 -0.8595 -1.4157l -2.1235,2.1235 c -0.3666,0.3666 -0.4171,0.6952 -0.0126 1.0997l 0.2402,0.2402 c 0.0632,0.0632 0.0758,0.1517 0.0126 0.2149l -0.2402,0.2402 l -0.0506,0.0000 c 0.0000,-0.0000 -0.8469,-0.8974 -1.3398 -1.3904c -0.4424,-0.4424 -1.3272,-1.2766 -1.3272 -1.2766l -0.0000,-0.0506 l 0.2402,-0.2402 c 0.0632,-0.0632 0.1390,-0.0632 0.2022 -0.0000l 0.2402,0.2402 c 0.4171,0.4171 0.7331,0.3539 1.0997 -0.0126ZM 420.6738,370.7893 ZM 427.4487,371.3707 l -1.2513,-0.7458 c -1.4536,-0.7710 -2.1993,-0.3539 -2.7681 0.2149c -0.3918,0.3918 -0.7963,1.1755 0.0000 1.9718c 0.3792,0.3792 1.3272,0.5941 1.9339 0.6446l 2.0856,-2.0856 ZM 427.4487,371.3707 ZM 425.0093,375.4281 c -0.4803,-0.4803 -0.3160,-1.1755 -0.0632 -1.5294l -0.4930,-0.0885 c -0.9859,-0.1770 -1.3272,-0.2654 -1.9086 -0.8469c -0.8848,-0.8848 -1.0238,-2.0350 -0.0758 -2.9830c 0.9606,-0.9606 2.4395,-0.7963 3.9436 0.1011l 1.4536,0.8721 c 1.4283,-1.4283 1.0365,-2.3510 0.6067 -2.7808c -0.4803,-0.4803 -1.2513,-0.8216 -1.6432 -0.4298c -0.1390,0.1390 -0.1896,0.2402 -0.2149 0.2907c -0.0253,0.0758 -0.1011,0.1770 -0.1896 0.2654c -0.1643,0.1643 -0.5435,0.2907 -0.9101 -0.0758c -0.3034,-0.3034 -0.3034,-0.7078 -0.0000 -1.0112c 0.7331,-0.7331 2.5659,-0.1896 3.3748 0.6194c 0.9227,0.9227 1.6053,2.3637 -0.1896 4.1585l -1.8581,1.8581 c -0.7710,0.7710 -1.0870,1.1123 -0.7963 1.4030c 0.2781,0.2781 0.7078,-0.0000 0.9985 -0.2654l 0.2528,0.3792 c -0.9985,0.8469 -1.6432,0.7078 -2.2878 0.0632ZM 426.3744,376.4899 ZM 431.7210,379.5866 l 3.2737,-3.2737 c 0.1770,-0.7837 0.1011,-1.3904 -0.4930 -1.9845c -0.2528,-0.2528 -0.8090,-0.7331 -1.8075 -0.5435c -0.4424,0.0885 -1.2008,0.4171 -2.1109 1.3272c -1.6558,1.6558 -1.5547,3.2737 -0.8721 3.9563c 0.4171,0.4171 1.0112,0.5056 2.0097 0.5182ZM 431.7210,379.5866 ZM 440.3667,372.8370 l -7.3058,7.3058 c -0.3792,0.3792 -0.5562,0.6067 -0.6194 0.7205c -0.0758,0.1517 -0.0126,0.3666 0.0885 0.4677c 0.1517,0.1517 0.4298,0.4298 0.6573 0.5814l -0.3034,0.4045 c -0.8595,-0.6067 -1.6558,-1.1249 -2.1488 -1.1629l -0.3034,-0.3034 l 0.9101,-0.8342 c -0.9733,0.0126 -1.8454,-0.1011 -2.4900 -0.7458c -1.3651,-1.3651 -1.0365,-3.3622 0.5182 -4.9169c 0.9353,-0.9353 1.9718,-1.4662 3.0588 -1.4662c 0.9859,0.0253 1.8201,0.3034 2.6544 1.1376c 0.2528,0.2528 0.6952,0.9227 0.8216 1.3777l 1.9339,-1.9339 c 0.7205,-0.7205 0.8090,-1.0365 0.5562 -1.2893l -0.4677,-0.3666 c -0.0253,-0.0253 -0.0379,-0.0885 -0.0000 -0.1264l 0.2907,-0.3413 c 0.2022,0.2022 0.7331,0.5814 0.9859 0.7584c 0.2907,0.1896 0.5182,0.3160 0.8848 0.4550l 0.2781,0.2781 ZM 432.6184,382.7340 ZM 439.5072,383.1511 l 2.1741,2.1741 l -0.6194,0.6194 l -2.1741,-2.1741 l -2.1867,2.1867 l -0.6320,-0.6320 l 2.1867,-2.1867 l -2.1867,-2.1867 l 0.6194,-0.6194 l 2.1867,2.1867 l 2.1993,-2.1993 l 0.6320,0.6320 l -2.1993,2.1993 ZM 439.2796,389.3952 ZM 446.1684,389.8123 l 2.1741,2.1741 l -0.6194,0.6194 l -2.1741,-2.1741 l -2.1867,2.1867 l -0.6320,-0.6320 l 2.1867,-2.1867 l -2.1867,-2.1867 l 0.6194,-0.6194 l 2.1867,2.1867 l 2.1993,-2.1993 l 0.6320,0.6320 l -2.1993,2.1993 Z"/></g><g stroke-linejoin="miter" stroke-opacity="0.6" fill-opacity="0.0" stroke="rgb(0,0,0)" stroke-width="2.157827782149205" fill="rgb(0,0,0)" stroke-linecap="butt" stroke-miterlimit="10.0"><path d="M 391.4757,318.1650 v 8.0842 "/></g><g stroke-linejoin="miter" stroke-opacity="1.0" fill-opacity="0.6" stroke="rgb(0,0,0)" fill-rule="evenodd" stroke-width="0.0" fill="rgb(0,0,0)" stroke-linecap="butt" stroke-miterlimit="10.0"><path d="M 340.9497,341.5913 ZM 353.7538,338.4439 c -0.6194,0.7205 -1.1502,1.4536 -1.6558 2.1867l -0.4424,-0.3160 c 0.5941,-1.0744 1.3019,-2.4900 0.0506 -3.7414c -0.8342,-0.8342 -2.0350,-0.7458 -2.8060 0.0253c -1.0491,1.0491 -0.2781,2.7808 0.0632 3.5012c 0.6826,1.4409 1.3398,3.1347 -0.1896 4.6641c -1.2893,1.2893 -3.5265,1.4283 -4.9801 -0.0253c -1.2387,-1.2387 -1.2261,-1.6558 -1.5294 -1.9592c -0.2528,-0.2528 -0.4298,-0.3034 -0.6446 -0.5182c 0.6194,-0.6699 1.1376,-1.3651 1.9718 -2.4521l 0.4171,0.3413 c -0.8974,1.4030 -1.0997,2.7934 0.0253 3.9184c 0.9606,0.9606 2.2499,1.1376 3.2737 0.1138c 1.1502,-1.1502 0.8595,-2.1235 0.3918 -3.1979c -0.5688,-1.2513 -1.4915,-3.4380 -0.0126 -4.9169c 1.3398,-1.3398 3.4633,-0.9101 4.5630 0.1896c 1.1755,1.1755 0.9101,1.3904 1.5041 2.1867ZM 346.9536,347.5952 ZM 353.8423,351.5515 c -0.6320,0.6320 -0.7710,0.8974 -0.5182 1.1502c 0.1517,0.1517 0.4550,0.4045 0.7078 0.5814l -0.3034,0.4045 c -0.9101,-0.6320 -1.6558,-1.1249 -2.1741 -1.1881l -0.2781,-0.2781 l 0.9733,-0.8974 l -0.0379,-0.0379 c -1.4536,0.0632 -2.1993,-0.3286 -2.7176 -0.8469c -1.2513,-1.2513 -0.7331,-2.4269 0.1390 -3.2990l 2.8819,-2.8819 c 0.4171,-0.4171 0.5435,-0.7205 0.0758 -1.1881c -0.0506,-0.0506 -0.1517,-0.1264 -0.2275 -0.2022l -0.0253,-0.0506 l 0.3286,-0.3286 l 0.0758,-0.0000 c 0.0000,-0.0000 0.8342,0.8848 1.2387 1.2893c 0.1770,0.1770 0.4930,0.4424 0.4930 0.4424l -1.0238,0.9985 l -2.6923,2.6923 c -1.1249,1.1249 -0.7458,1.9086 -0.3666 2.2878c 0.2907,0.2907 0.6699,0.4424 1.1249 0.5182c 0.5309,0.0758 0.9101,0.1011 1.2008 0.0632l 3.1220,-3.1220 c 0.4550,-0.4550 0.6067,-0.7331 0.1390 -1.2008c -0.0758,-0.0758 -0.2275,-0.2022 -0.2654 -0.2402l -0.0000,-0.0506 l 0.3160,-0.3160 l 0.0632,-0.0126 c 0.0000,-0.0000 0.8721,0.9227 1.2261 1.2766c 0.2907,0.2907 0.5182,0.4677 0.5182 0.4677l -1.0112,0.9859 l -2.9830,2.9830 ZM 353.4884,354.1300 ZM 356.0669,355.3181 c -0.0506,0.5562 0.1138,0.9227 0.5056 1.3145c 1.2008,1.2008 2.9198,0.6952 4.3607 -0.7458c 1.2893,-1.2893 1.5547,-2.8692 0.7837 -3.6403c -0.1390,-0.1390 -0.8216,-0.7710 -1.8328 -0.7458l -3.8172,3.8172 ZM 356.0669,355.3181 ZM 361.6664,347.8227 c 0.7205,-0.7205 0.7963,-1.0491 0.5435 -1.3019l -0.4550,-0.3539 c -0.0379,-0.0379 -0.0379,-0.0885 -0.0000 -0.1264l 0.2907,-0.3413 c 0.2022,0.2022 0.7331,0.5814 0.9859 0.7584c 0.2781,0.1770 0.5182,0.3160 0.8848 0.4550l 0.2781,0.2781 l -3.9184,3.9184 c 0.8974,-0.0379 1.6305,0.2402 2.2373 0.8469c 1.0997,1.0997 1.0997,3.1979 -0.4424 4.7399c -2.0097,2.0097 -4.5630,1.7317 -5.8522 0.4424c -0.5435,-0.5435 -0.7963,-1.0997 -0.8469 -1.7822c -0.2654,0.0379 -0.6194,0.0632 -0.8595 0.0758l -0.2022,-0.3286 c 0.3413,-0.2654 0.5435,-0.4677 1.0365 -0.9606l 6.3199,-6.3199 ZM 359.4418,360.0834 ZM 361.5526,360.3741 l 6.3326,-6.3326 c 0.7205,-0.7205 0.7963,-1.0491 0.5435 -1.3019l -0.4550,-0.3539 c -0.0379,-0.0379 -0.0506,-0.1011 -0.0126 -0.1390l 0.2907,-0.3413 c 0.2022,0.2022 0.7458,0.5941 0.9985 0.7710c 0.2781,0.1770 0.5056,0.3034 0.8721 0.4424l 0.2781,0.2781 l -7.9125,7.9125 c -0.3666,0.3666 -0.4171,0.6952 -0.0126 1.0997l 0.3034,0.3034 c 0.0506,0.0506 0.0632,0.1390 0.0000 0.2022l -0.2402,0.2402 l -0.0506,0.0000 c 0.0000,-0.0000 -0.8974,-0.9480 -1.3904 -1.4409c -0.4424,-0.4424 -1.3904,-1.3398 -1.3904 -1.3398l 0.0126,-0.0379 l 0.2402,-0.2402 c 0.0632,-0.0632 0.1264,-0.0758 0.1896 -0.0126l 0.3034,0.3034 c 0.4171,0.4171 0.7331,0.3539 1.0997 -0.0126ZM 362.7281,363.3697 ZM 370.9314,357.1383 c 0.3286,-0.3286 0.8721,-0.3413 1.2008 -0.0126c 0.3413,0.3413 0.3286,0.8848 0.0000 1.2134c -0.3413,0.3413 -0.8721,0.3413 -1.2134 0.0000c -0.3286,-0.3286 -0.3286,-0.8595 0.0126 -1.2008ZM 370.9314,357.1383 ZM 365.8249,364.6463 c -0.3666,0.3666 -0.4171,0.6952 -0.0126 1.0997l 0.2402,0.2402 c 0.0632,0.0632 0.0758,0.1517 0.0126 0.2149l -0.2402,0.2402 l -0.0506,0.0000 c 0.0000,-0.0000 -0.8469,-0.8974 -1.3398 -1.3904c -0.4424,-0.4424 -1.3272,-1.2766 -1.3272 -1.2766l -0.0000,-0.0506 l 0.2402,-0.2402 c 0.0632,-0.0632 0.1390,-0.0632 0.2022 -0.0000l 0.2402,0.2402 c 0.4171,0.4171 0.7331,0.3539 1.0997 -0.0126l 3.1473,-3.1473 c 0.6699,-0.6699 0.6573,-0.8848 0.4803 -1.0617c -0.1643,-0.1643 -0.3286,-0.3034 -0.5941 -0.4677l 0.2907,-0.4171 c 0.9480,0.6699 1.1376,0.7584 1.6811 0.9480c 0.1896,0.0885 0.3286,0.1264 0.4171 0.2149l 0.1896,0.1896 l -4.6767,4.6767 ZM 366.0651,366.7066 ZM 374.5970,373.4184 l 2.9072,-2.9072 c 0.8469,-0.8469 0.8342,-1.4915 0.3539 -1.9718c -0.4930,-0.4930 -1.1376,-0.6320 -2.4142 -0.5688c -0.1264,0.1770 -0.3034,0.3539 -0.4803 0.5309l -2.6417,2.6417 c -0.3666,0.3666 -0.4298,0.6826 -0.0126 1.0997l 0.2149,0.2149 c 0.0632,0.0632 0.0758,0.1517 0.0126 0.2149l -0.2402,0.2402 l -0.0506,0.0000 c 0.0000,-0.0000 -0.8216,-0.8721 -1.3145 -1.3651c -0.4550,-0.4550 -1.3525,-1.3019 -1.3525 -1.3019l -0.0000,-0.0506 l 0.2402,-0.2402 c 0.0632,-0.0632 0.1390,-0.0632 0.2022 -0.0000l 0.2528,0.2528 c 0.4298,0.4298 0.7331,0.3539 1.0997 -0.0126l 2.8819,-2.8819 c 0.8469,-0.8469 0.8469,-1.5294 0.3666 -2.0097c -0.4424,-0.4424 -1.1755,-0.5435 -2.3889 -0.5182l -3.1347,3.1347 c -0.3666,0.3666 -0.4298,0.6826 -0.0126 1.0997l 0.2402,0.2402 c 0.0506,0.0506 0.0632,0.1390 0.0000 0.2022l -0.2402,0.2402 l -0.0506,0.0000 c 0.0000,-0.0000 -0.8342,-0.8848 -1.3272 -1.3777c -0.4550,-0.4550 -1.3398,-1.2893 -1.3398 -1.2893l -0.0000,-0.0506 l 0.2402,-0.2402 c 0.0632,-0.0632 0.1390,-0.0632 0.2022 -0.0000l 0.2402,0.2402 c 0.4298,0.4298 0.7331,0.3539 1.0997 -0.0126l 3.1473,-3.1473 c 0.7205,-0.7205 0.6573,-0.8848 0.4930 -1.0491c -0.1643,-0.1643 -0.3286,-0.3034 -0.5941 -0.4677l 0.2907,-0.4171 c 0.9353,0.6573 1.1629,0.7837 1.6811 0.9480c 0.1896,0.0632 0.3286,0.1264 0.4171 0.2149l 0.1896,0.1896 l -1.1376,1.0617 l 0.0379,0.0379 c 1.2261,-0.0379 2.2246,0.0253 3.0083 0.8090c 0.7078,0.7078 0.6320,1.6685 0.1390 2.3131c 1.4915,-0.0253 2.4142,0.2402 3.0968 0.9227c 1.1123,1.1123 0.3792,2.2246 -0.7458 3.3496l -2.6291,2.6291 c -0.3666,0.3666 -0.4298,0.6826 -0.0126 1.0997l 0.2402,0.2402 c 0.0506,0.0506 0.0632,0.1390 0.0000 0.2022l -0.2402,0.2402 l -0.0506,0.0000 c 0.0000,-0.0000 -0.8342,-0.8848 -1.3272 -1.3777c -0.4550,-0.4550 -1.3398,-1.2893 -1.3398 -1.2893l -0.0000,-0.0506 l 0.2402,-0.2402 c 0.0632,-0.0632 0.1390,-0.0632 0.2022 -0.0000l 0.2402,0.2402 c 0.4171,0.4171 0.7331,0.3539 1.0997 -0.0126ZM 375.6713,376.3129 ZM 380.6135,374.2526 l 2.3257,2.3257 c 0.1264,0.1264 0.2402,0.1138 0.3539 -0.0000c 1.1755,-1.1755 0.8848,-2.0729 0.4298 -2.5280c -0.2907,-0.2907 -1.3525,-1.1249 -3.1094 0.2022ZM 380.6135,374.2526 ZM 381.6247,379.9153 l 0.0506,0.4550 c -1.1376,0.1770 -2.3510,-0.1011 -3.2611 -1.0112c -1.7317,-1.7317 -1.1755,-3.7540 0.2022 -5.1318c 1.9213,-1.9213 4.3355,-1.8075 5.5363 -0.6067c 1.6685,1.6685 0.7584,3.3622 -0.3034 4.4239c -0.1390,0.1390 -0.3034,0.1264 -0.4424 -0.0126l -3.3243,-3.3243 c -0.0885,0.0632 -0.1643,0.1390 -0.2654 0.2402c -1.2893,1.2893 -1.3904,3.1852 -0.4803 4.0953c 0.6952,0.6952 1.3651,0.9101 2.2878 0.8721Z"/></g><g stroke-linejoin="miter" stroke-opacity="0.6" fill-opacity="0.0" stroke="rgb(0,0,0)" stroke-width="2.157827782149205" fill="rgb(0,0,0)" stroke-linecap="butt" stroke-miterlimit="10.0"><path d="M 340.9497,318.1650 v 8.0842 "/></g><g stroke-linejoin="miter" stroke-opacity="1.0" fill-opacity="0.6" stroke="rgb(0,0,0)" fill-rule="evenodd" stroke-width="0.0" fill="rgb(0,0,0)" stroke-linecap="butt" stroke-miterlimit="10.0"><path d="M 290.4236,341.5913 ZM 297.2744,341.2879 l 2.2625,2.2625 l 2.1235,-4.6262 l -4.4619,1.8328 c -0.0632,0.0379 -0.1011,0.0506 -0.1390 0.0885c -0.0758,0.0758 -0.0253,0.2022 0.2149 0.4424ZM 297.2744,341.2879 ZM 293.1033,342.4508 c -0.1264,0.0506 -0.2149,0.1138 -0.2907 0.1896c -0.2022,0.2022 -0.1138,0.5182 0.2654 0.8974l 0.3666,0.3666 c 0.0506,0.0506 0.0632,0.1390 0.0000 0.2022l -0.2402,0.2402 l -0.0506,0.0000 c 0.0000,-0.0000 -1.2261,-1.2766 -1.5294 -1.5800c -0.3286,-0.3286 -1.1629,-1.1123 -1.1629 -1.1123l -0.0000,-0.0506 l 0.2402,-0.2402 c 0.0632,-0.0632 0.1390,-0.0632 0.2022 -0.0000l 0.1517,0.1517 c 0.5182,0.5182 0.9859,0.5056 1.5926 0.2528l 9.8717,-3.9563 c 0.4045,-0.1770 0.5941,-0.1643 0.7205 -0.0379c 0.2275,0.2275 0.2022,0.4550 0.0506 0.8090l -4.2596,9.4420 c -0.3160,0.6699 -0.3034,1.1629 0.2022 1.6685l 0.1390,0.1390 c 0.0632,0.0632 0.0885,0.1643 0.0253 0.2275l -0.2402,0.2402 l -0.0632,-0.0126 c 0.0000,-0.0000 -0.9480,-0.9985 -1.4409 -1.4915c -0.4424,-0.4424 -1.7064,-1.6558 -1.7064 -1.6558l 0.0126,-0.0379 l 0.2402,-0.2402 c 0.0632,-0.0632 0.1264,-0.0758 0.1896 -0.0126l 0.3539,0.3539 c 0.3918,0.3918 0.7331,0.4550 0.9353 0.2528c 0.0632,-0.0632 0.1264,-0.1517 0.1770 -0.2528l 1.3651,-2.9830 l -2.6670,-2.6670 c -0.3034,-0.3034 -0.4803,-0.3286 -0.6699 -0.2402ZM 299.2083,350.3760 ZM 306.2234,347.5067 l -3.2358,3.2358 c -0.7837,0.7837 -1.0870,1.2387 -0.7458 1.5800c 0.3286,0.3286 0.6826,0.4803 1.2640 0.5562l 0.0126,0.4424 c -1.0491,0.0632 -1.8328,-0.1643 -2.4142 -0.7458c -0.5814,-0.5814 -0.5688,-1.2766 0.3286 -2.1741l 3.8425,-3.8425 l -0.8216,-0.8216 c -0.0379,-0.0379 -0.0379,-0.0632 -0.0000 -0.1011l 0.3918,-0.3918 c 0.0379,-0.0379 0.0632,-0.0379 0.0885 -0.0126c 0.8469,0.8469 1.5421,0.5562 2.5027 -0.4045l 0.2402,-0.2402 l 0.9859,0.4803 l -1.9465,1.9465 l 1.3904,1.3904 c 0.0632,0.0632 0.0758,0.1264 0.0253 0.1770l -0.2528,0.2528 c -0.1138,0.1138 -0.3413,-0.0126 -0.4677 -0.1390l -1.1881,-1.1881 ZM 303.0256,354.1932 ZM 306.0465,352.0318 c 1.7317,-1.7317 3.9310,-2.0603 5.6121 -0.3792c 1.8707,1.8707 1.0238,4.1585 -0.2907 5.4731c -1.2640,1.2640 -3.6782,2.0350 -5.4731 0.2402c -1.6937,-1.6937 -1.1376,-4.0448 0.1517 -5.3340ZM 306.0465,352.0318 ZM 311.1024,351.9307 c -1.0112,-1.0112 -2.6670,-0.2907 -3.7667 0.8090c -0.9733,0.9733 -2.0350,3.1473 -0.7837 4.3987c 0.5688,0.5688 1.7443,1.0617 3.4128 -0.6067c 1.8581,-1.8581 2.1741,-3.5644 1.1376 -4.6009ZM 309.0800,360.2477 ZM 317.6119,366.9594 l 2.9072,-2.9072 c 0.8469,-0.8469 0.8342,-1.4915 0.3539 -1.9718c -0.4930,-0.4930 -1.1376,-0.6320 -2.4142 -0.5688c -0.1264,0.1770 -0.3034,0.3539 -0.4803 0.5309l -2.6417,2.6417 c -0.3666,0.3666 -0.4298,0.6826 -0.0126 1.0997l 0.2149,0.2149 c 0.0632,0.0632 0.0758,0.1517 0.0126 0.2149l -0.2402,0.2402 l -0.0506,0.0000 c 0.0000,-0.0000 -0.8216,-0.8721 -1.3145 -1.3651c -0.4550,-0.4550 -1.3525,-1.3019 -1.3525 -1.3019l -0.0000,-0.0506 l 0.2402,-0.2402 c 0.0632,-0.0632 0.1390,-0.0632 0.2022 -0.0000l 0.2528,0.2528 c 0.4298,0.4298 0.7331,0.3539 1.0997 -0.0126l 2.8819,-2.8819 c 0.8469,-0.8469 0.8469,-1.5294 0.3666 -2.0097c -0.4424,-0.4424 -1.1755,-0.5435 -2.3889 -0.5182l -3.1347,3.1347 c -0.3666,0.3666 -0.4298,0.6826 -0.0126 1.0997l 0.2402,0.2402 c 0.0506,0.0506 0.0632,0.1390 0.0000 0.2022l -0.2402,0.2402 l -0.0506,0.0000 c 0.0000,-0.0000 -0.8342,-0.8848 -1.3272 -1.3777c -0.4550,-0.4550 -1.3398,-1.2893 -1.3398 -1.2893l -0.0000,-0.0506 l 0.2402,-0.2402 c 0.0632,-0.0632 0.1390,-0.0632 0.2022 -0.0000l 0.2402,0.2402 c 0.4298,0.4298 0.7331,0.3539 1.0997 -0.0126l 3.1473,-3.1473 c 0.7205,-0.7205 0.6573,-0.8848 0.4930 -1.0491c -0.1643,-0.1643 -0.3286,-0.3034 -0.5941 -0.4677l 0.2907,-0.4171 c 0.9353,0.6573 1.1629,0.7837 1.6811 0.9480c 0.1896,0.0632 0.3286,0.1264 0.4171 0.2149l 0.1896,0.1896 l -1.1376,1.0617 l 0.0379,0.0379 c 1.2261,-0.0379 2.2246,0.0253 3.0083 0.8090c 0.7078,0.7078 0.6320,1.6685 0.1390 2.3131c 1.4915,-0.0253 2.4142,0.2402 3.0968 0.9227c 1.1123,1.1123 0.3792,2.2246 -0.7458 3.3496l -2.6291,2.6291 c -0.3666,0.3666 -0.4298,0.6826 -0.0126 1.0997l 0.2402,0.2402 c 0.0506,0.0506 0.0632,0.1390 0.0000 0.2022l -0.2402,0.2402 l -0.0506,0.0000 c 0.0000,-0.0000 -0.8342,-0.8848 -1.3272 -1.3777c -0.4550,-0.4550 -1.3398,-1.2893 -1.3398 -1.2893l -0.0000,-0.0506 l 0.2402,-0.2402 c 0.0632,-0.0632 0.1390,-0.0632 0.2022 -0.0000l 0.2402,0.2402 c 0.4171,0.4171 0.7331,0.3539 1.0997 -0.0126Z"/></g><g stroke-linejoin="miter" stroke-opacity="0.6" fill-opacity="0.0" stroke="rgb(0,0,0)" stroke-width="2.157827782149205" fill="rgb(0,0,0)" stroke-linecap="butt" stroke-miterlimit="10.0"><path d="M 290.4236,318.1650 v 8.0842 "/></g><g stroke-linejoin="miter" stroke-opacity="1.0" fill-opacity="0.6" stroke="rgb(0,0,0)" fill-rule="evenodd" stroke-width="0.0" fill="rgb(0,0,0)" stroke-linecap="butt" stroke-miterlimit="10.0"><path d="M 239.8976,341.5913 ZM 253.3211,340.5042 c 0.2149,-0.0885 0.3413,-0.1643 0.4298 -0.2528c 0.1896,-0.1896 -0.0506,-0.4803 -0.4803 -0.9101l -0.2275,-0.2275 c -0.0506,-0.0506 -0.0632,-0.1390 -0.0000 -0.2022l 0.2402,-0.2402 l 0.0379,0.0126 c 0.0000,-0.0000 0.9101,0.9353 1.4030 1.4283c 0.4424,0.4424 1.1123,1.0870 1.1123 1.0870l 0.0126,0.0379 l -0.2402,0.2402 c -0.0632,0.0632 -0.1390,0.0632 -0.2022 0.0000c -0.5182,-0.5182 -0.8721,-0.6446 -1.4789 -0.3666l -9.7706,4.4619 c -0.2654,0.1138 -0.4677,0.1138 -0.6067 -0.0253c -0.1264,-0.1264 -0.1264,-0.3286 -0.0000 -0.5814l 4.6009,-9.5810 c 0.3286,-0.6826 0.0758,-1.0870 -0.3413 -1.5041c -0.0506,-0.0506 -0.0632,-0.1390 -0.0000 -0.2022l 0.2402,-0.2402 l 0.0379,0.0126 c 0.0000,-0.0000 0.9733,0.9985 1.4662 1.4915c 0.4424,0.4424 1.5800,1.5547 1.5800 1.5547l 0.0126,0.0379 l -0.2402,0.2402 c -0.0632,0.0632 -0.1390,0.0632 -0.2022 0.0000l -0.3413,-0.3413 c -0.4550,-0.4550 -0.7331,-0.4803 -0.9353 -0.2781c -0.0758,0.0758 -0.1264,0.1770 -0.2022 0.3034l -2.9198,6.0798 l -0.7078,1.4915 l 1.4536,-0.6699 ZM 247.6964,349.3901 ZM 260.5005,346.2427 c -0.6194,0.7205 -1.1502,1.4536 -1.6558 2.1867l -0.4424,-0.3160 c 0.5941,-1.0744 1.3019,-2.4900 0.0506 -3.7414c -0.8342,-0.8342 -2.0350,-0.7458 -2.8060 0.0253c -1.0491,1.0491 -0.2781,2.7808 0.0632 3.5012c 0.6826,1.4409 1.3398,3.1347 -0.1896 4.6641c -1.2893,1.2893 -3.5265,1.4283 -4.9801 -0.0253c -1.2387,-1.2387 -1.2261,-1.6558 -1.5294 -1.9592c -0.2528,-0.2528 -0.4298,-0.3034 -0.6446 -0.5182c 0.6194,-0.6699 1.1376,-1.3651 1.9718 -2.4521l 0.4171,0.3413 c -0.8974,1.4030 -1.0997,2.7934 0.0253 3.9184c 0.9606,0.9606 2.2499,1.1376 3.2737 0.1138c 1.1502,-1.1502 0.8595,-2.1235 0.3918 -3.1979c -0.5688,-1.2513 -1.4915,-3.4380 -0.0126 -4.9169c 1.3398,-1.3398 3.4633,-0.9101 4.5630 0.1896c 1.1755,1.1755 0.9101,1.3904 1.5041 2.1867ZM 256.8602,358.5539 ZM 261.1957,363.1928 c -2.7176,-2.7176 -1.9213,-6.1177 0.1138 -8.1527c 2.4900,-2.4900 6.2694,-2.4016 8.3676 -0.3034c 1.5547,1.5547 1.5168,2.5785 2.1993 3.3369c -0.6573,0.7331 -1.1502,1.4536 -1.6811 2.2373l -0.4298,-0.3286 c 0.7584,-1.4157 1.0491,-3.1726 -0.6952 -4.9169c -0.9985,-0.9985 -3.8552,-1.7317 -6.4210 0.8342c -1.8454,1.8454 -2.9072,4.8031 -0.9480 6.7623c 1.1755,1.1755 2.4521,1.6179 4.3355 1.5294l 0.1011,0.4803 c -1.9845,0.2654 -3.7161,-0.2528 -4.9422 -1.4789ZM 265.0003,366.6940 ZM 268.0212,364.5326 c 1.7317,-1.7317 3.9310,-2.0603 5.6121 -0.3792c 1.8707,1.8707 1.0238,4.1585 -0.2907 5.4731c -1.2640,1.2640 -3.6782,2.0350 -5.4731 0.2402c -1.6937,-1.6937 -1.1376,-4.0448 0.1517 -5.3340ZM 268.0212,364.5326 ZM 273.0772,364.4315 c -1.0112,-1.0112 -2.6670,-0.2907 -3.7667 0.8090c -0.9733,0.9733 -2.0350,3.1473 -0.7837 4.3987c 0.5688,0.5688 1.7443,1.0617 3.4128 -0.6067c 1.8581,-1.8581 2.1741,-3.5644 1.1376 -4.6009ZM 270.4354,372.1291 ZM 275.7821,375.2259 l 3.2737,-3.2737 c 0.1770,-0.7837 0.1011,-1.3904 -0.4930 -1.9845c -0.2528,-0.2528 -0.8090,-0.7331 -1.8075 -0.5435c -0.4424,0.0885 -1.2008,0.4171 -2.1109 1.3272c -1.6558,1.6558 -1.5547,3.2737 -0.8721 3.9563c 0.4171,0.4171 1.0112,0.5056 2.0097 0.5182ZM 275.7821,375.2259 ZM 284.4278,368.4762 l -7.3058,7.3058 c -0.3792,0.3792 -0.5562,0.6067 -0.6194 0.7205c -0.0758,0.1517 -0.0126,0.3666 0.0885 0.4677c 0.1517,0.1517 0.4298,0.4298 0.6573 0.5814l -0.3034,0.4045 c -0.8595,-0.6067 -1.6558,-1.1249 -2.1488 -1.1629l -0.3034,-0.3034 l 0.9101,-0.8342 c -0.9733,0.0126 -1.8454,-0.1011 -2.4900 -0.7458c -1.3651,-1.3651 -1.0365,-3.3622 0.5182 -4.9169c 0.9353,-0.9353 1.9718,-1.4662 3.0588 -1.4662c 0.9859,0.0253 1.8201,0.3034 2.6544 1.1376c 0.2528,0.2528 0.6952,0.9227 0.8216 1.3777l 1.9339,-1.9339 c 0.7205,-0.7205 0.8090,-1.0365 0.5562 -1.2893l -0.4677,-0.3666 c -0.0253,-0.0253 -0.0379,-0.0885 -0.0000 -0.1264l 0.2907,-0.3413 c 0.2022,0.2022 0.7331,0.5814 0.9859 0.7584c 0.2907,0.1896 0.5182,0.3160 0.8848 0.4550l 0.2781,0.2781 ZM 276.6795,378.3732 ZM 281.6217,376.3129 l 2.3257,2.3257 c 0.1264,0.1264 0.2402,0.1138 0.3539 -0.0000c 1.1755,-1.1755 0.8848,-2.0729 0.4298 -2.5280c -0.2907,-0.2907 -1.3525,-1.1249 -3.1094 0.2022ZM 281.6217,376.3129 ZM 282.6329,381.9756 l 0.0506,0.4550 c -1.1376,0.1770 -2.3510,-0.1011 -3.2611 -1.0112c -1.7317,-1.7317 -1.1755,-3.7540 0.2022 -5.1318c 1.9213,-1.9213 4.3355,-1.8075 5.5363 -0.6067c 1.6685,1.6685 0.7584,3.3622 -0.3034 4.4239c -0.1390,0.1390 -0.3034,0.1264 -0.4424 -0.0126l -3.3243,-3.3243 c -0.0885,0.0632 -0.1643,0.1390 -0.2654 0.2402c -1.2893,1.2893 -1.3904,3.1852 -0.4803 4.0953c 0.6952,0.6952 1.3651,0.9101 2.2878 0.8721Z"/></g><g stroke-linejoin="miter" stroke-opacity="0.6" fill-opacity="0.0" stroke="rgb(0,0,0)" stroke-width="2.157827782149205" fill="rgb(0,0,0)" stroke-linecap="butt" stroke-miterlimit="10.0"><path d="M 239.8976,318.1650 v 8.0842 "/></g><g stroke-linejoin="miter" stroke-opacity="1.0" fill-opacity="0.6" stroke="rgb(0,0,0)" fill-rule="evenodd" stroke-width="0.0" fill="rgb(0,0,0)" stroke-linecap="butt" stroke-miterlimit="10.0"><path d="M 189.3715,341.5913 ZM 201.4931,338.3934 l -1.7064,-1.7064 c -0.3034,-0.3034 -0.5562,-0.3539 -0.8595 -0.0506l -2.6923,2.6923 l 1.7317,1.7317 c 0.4424,0.4424 0.7584,0.3539 1.1881 0.0758l 0.4677,-0.2907 c 0.0506,-0.0506 0.1390,-0.0632 0.1896 -0.0126l 0.2781,0.2781 c 0.0379,0.0379 0.0253,0.0758 0.0000 0.1011c -0.3666,0.2654 -0.8848,0.6826 -1.3019 1.0997c -0.4298,0.4298 -0.9353,1.0617 -1.1123 1.3145l -0.0758,0.0000 l -0.2907,-0.2907 c -0.0632,-0.0632 -0.0506,-0.1517 -0.0126 -0.1896l 0.3160,-0.4677 c 0.3034,-0.4298 0.3539,-0.7584 -0.0758 -1.1881l -1.7317,-1.7317 l -3.2232,3.2232 c -0.3413,0.3413 -0.2402,0.5941 0.0379 0.8721l 2.0982,2.0982 c 0.9606,0.9606 2.0729,0.5814 3.2358 -0.0758l 0.3286,0.4550 c -0.8090,0.5056 -1.6558,1.0997 -2.4269 1.7443l -3.7161,-3.7161 l -0.9606,-0.9859 l -1.6432,-1.5926 v -0.0506 l 0.2528,-0.2528 c 0.0379,-0.0379 0.1138,-0.0632 0.1896 0.0126l 0.3792,0.3792 c 0.5056,0.5056 0.8595,0.4550 1.2134 0.1011l 6.3326,-6.3326 c 0.3918,-0.3918 0.3918,-0.7458 -0.0885 -1.2261l -0.3792,-0.3792 c -0.0885,-0.0885 -0.0506,-0.1517 -0.0126 -0.1896l 0.2528,-0.2528 l 0.0379,0.0126 l 1.6053,1.6305 l 0.9985,0.9733 l 3.2358,3.2358 c -0.6194,0.7205 -1.2766,1.6053 -1.6937 2.2246l -0.4298,-0.3034 c 0.5941,-1.1502 1.0112,-2.0224 0.0632 -2.9704ZM 196.5636,348.7833 ZM 205.0955,355.4951 l 2.9072,-2.9072 c 0.8469,-0.8469 0.8342,-1.4915 0.3539 -1.9718c -0.4930,-0.4930 -1.1376,-0.6320 -2.4142 -0.5688c -0.1264,0.1770 -0.3034,0.3539 -0.4803 0.5309l -2.6417,2.6417 c -0.3666,0.3666 -0.4298,0.6826 -0.0126 1.0997l 0.2149,0.2149 c 0.0632,0.0632 0.0758,0.1517 0.0126 0.2149l -0.2402,0.2402 l -0.0506,0.0000 c 0.0000,-0.0000 -0.8216,-0.8721 -1.3145 -1.3651c -0.4550,-0.4550 -1.3525,-1.3019 -1.3525 -1.3019v -0.0506 l 0.2402,-0.2402 c 0.0632,-0.0632 0.1390,-0.0632 0.2022 -0.0000l 0.2528,0.2528 c 0.4298,0.4298 0.7331,0.3539 1.0997 -0.0126l 2.8819,-2.8819 c 0.8469,-0.8469 0.8469,-1.5294 0.3666 -2.0097c -0.4424,-0.4424 -1.1755,-0.5435 -2.3889 -0.5182l -3.1347,3.1347 c -0.3666,0.3666 -0.4298,0.6826 -0.0126 1.0997l 0.2402,0.2402 c 0.0506,0.0506 0.0632,0.1390 0.0000 0.2022l -0.2402,0.2402 l -0.0506,0.0000 c 0.0000,-0.0000 -0.8342,-0.8848 -1.3272 -1.3777c -0.4550,-0.4550 -1.3398,-1.2893 -1.3398 -1.2893v -0.0506 l 0.2402,-0.2402 c 0.0632,-0.0632 0.1390,-0.0632 0.2022 -0.0000l 0.2402,0.2402 c 0.4298,0.4298 0.7331,0.3539 1.0997 -0.0126l 3.1473,-3.1473 c 0.7205,-0.7205 0.6573,-0.8848 0.4930 -1.0491c -0.1643,-0.1643 -0.3286,-0.3034 -0.5941 -0.4677l 0.2907,-0.4171 c 0.9353,0.6573 1.1629,0.7837 1.6811 0.9480c 0.1896,0.0632 0.3286,0.1264 0.4171 0.2149l 0.1896,0.1896 l -1.1376,1.0617 l 0.0379,0.0379 c 1.2261,-0.0379 2.2246,0.0253 3.0083 0.8090c 0.7078,0.7078 0.6320,1.6685 0.1390 2.3131c 1.4915,-0.0253 2.4142,0.2402 3.0968 0.9227c 1.1123,1.1123 0.3792,2.2246 -0.7458 3.3496l -2.6291,2.6291 c -0.3666,0.3666 -0.4298,0.6826 -0.0126 1.0997l 0.2402,0.2402 c 0.0506,0.0506 0.0632,0.1390 0.0000 0.2022l -0.2402,0.2402 l -0.0506,0.0000 c 0.0000,-0.0000 -0.8342,-0.8848 -1.3272 -1.3777c -0.4550,-0.4550 -1.3398,-1.2893 -1.3398 -1.2893v -0.0506 l 0.2402,-0.2402 c 0.0632,-0.0632 0.1390,-0.0632 0.2022 -0.0000l 0.2402,0.2402 c 0.4171,0.4171 0.7331,0.3539 1.0997 -0.0126ZM 206.1699,358.3896 ZM 212.9448,358.9711 l -1.2513,-0.7458 c -1.4536,-0.7710 -2.1993,-0.3539 -2.7681 0.2149c -0.3918,0.3918 -0.7963,1.1755 0.0000 1.9718c 0.3792,0.3792 1.3272,0.5941 1.9339 0.6446l 2.0856,-2.0856 ZM 212.9448,358.9711 ZM 210.5053,363.0284 c -0.4803,-0.4803 -0.3160,-1.1755 -0.0632 -1.5294l -0.4930,-0.0885 c -0.9859,-0.1770 -1.3272,-0.2654 -1.9086 -0.8469c -0.8848,-0.8848 -1.0238,-2.0350 -0.0758 -2.9830c 0.9606,-0.9606 2.4395,-0.7963 3.9436 0.1011l 1.4536,0.8721 c 1.4283,-1.4283 1.0365,-2.3510 0.6067 -2.7808c -0.4803,-0.4803 -1.2513,-0.8216 -1.6432 -0.4298c -0.1390,0.1390 -0.1896,0.2402 -0.2149 0.2907c -0.0253,0.0758 -0.1011,0.1770 -0.1896 0.2654c -0.1643,0.1643 -0.5435,0.2907 -0.9101 -0.0758c -0.3034,-0.3034 -0.3034,-0.7078 0.0000 -1.0112c 0.7331,-0.7331 2.5659,-0.1896 3.3748 0.6194c 0.9227,0.9227 1.6053,2.3637 -0.1896 4.1585l -1.8581,1.8581 c -0.7710,0.7710 -1.0870,1.1123 -0.7963 1.4030c 0.2781,0.2781 0.7078,-0.0000 0.9985 -0.2654l 0.2528,0.3792 c -0.9985,0.8469 -1.6432,0.7078 -2.2878 0.0632ZM 211.8704,364.0902 ZM 217.8744,367.7937 c -1.5168,0.4045 -2.4648,0.1390 -3.2232 -0.6194c -1.5168,-1.5168 -1.3145,-3.6150 0.3160 -5.2455c 1.7949,-1.7949 4.0827,-1.8328 5.4478 -0.4677c 1.2134,1.2134 1.2387,2.4774 0.5688 3.1473c -0.3666,0.3666 -0.7837,0.3286 -1.0491 0.0632c -0.2654,-0.2654 -0.3792,-0.6573 -0.1011 -1.0112c 0.3666,-0.4677 0.8342,-1.0870 0.0885 -1.8328c -0.8342,-0.8342 -2.3384,-0.5688 -3.7035 0.7963c -1.4789,1.4789 -1.7064,3.2990 -0.7331 4.2723c 0.5435,0.5435 1.3777,0.6699 2.3384 0.4930ZM 216.9643,369.1841 ZM 219.2774,367.9580 l 0.3539,0.3286 c -0.2781,0.3539 -0.7458,1.0997 -0.7584 1.6685c -0.0126,0.2654 0.1011,0.8342 0.5688 1.3019c 0.4424,0.4424 1.4536,0.7458 2.0729 0.1264c 0.5435,-0.5435 0.6067,-1.2134 0.0379 -2.6417c -0.5182,-1.3272 -0.7331,-2.0729 0.2149 -3.0209c 0.8469,-0.8469 2.1993,-0.7078 3.1979 0.2907c 0.6320,0.6320 0.9859,1.2134 1.1755 1.8075c -0.3286,0.4803 -0.7205,0.9480 -1.1502 1.4283l -0.3539,-0.3286 c 0.7710,-1.3019 0.2149,-2.2625 -0.0506 -2.5280c -0.4803,-0.4803 -1.1629,-0.7837 -1.8581 -0.0885c -0.5056,0.5056 -0.5182,0.9985 -0.0758 1.9465c 0.6446,1.4030 1.0112,2.6796 -0.0000 3.6908c -1.2513,1.2513 -2.9451,0.2907 -3.5392 -0.3034c -0.4424,-0.4424 -0.7584,-0.8595 -0.9985 -1.2766c -0.0758,-0.1011 -0.1264,-0.1770 -0.2149 -0.2654c -0.0632,-0.0632 -0.1770,-0.1517 -0.3286 -0.2528c 0.5309,-0.5309 1.1376,-1.2134 1.7064 -1.8833Z"/></g><g stroke-linejoin="miter" stroke-opacity="0.6" fill-opacity="0.0" stroke="rgb(0,0,0)" stroke-width="2.157827782149205" fill="rgb(0,0,0)" stroke-linecap="butt" stroke-miterlimit="10.0"><path d="M 189.3715,318.1650 v 8.0842 "/></g><g stroke-linejoin="miter" stroke-opacity="1.0" fill-opacity="0.6" stroke="rgb(0,0,0)" fill-rule="evenodd" stroke-width="0.0" fill="rgb(0,0,0)" stroke-linecap="butt" stroke-miterlimit="10.0"><path d="M 138.8455,341.5913 ZM 152.2690,340.5042 c 0.2149,-0.0885 0.3413,-0.1643 0.4298 -0.2528c 0.1896,-0.1896 -0.0506,-0.4803 -0.4803 -0.9101l -0.2275,-0.2275 c -0.0506,-0.0506 -0.0632,-0.1390 -0.0000 -0.2022l 0.2402,-0.2402 l 0.0379,0.0126 c 0.0000,-0.0000 0.9101,0.9353 1.4030 1.4283c 0.4424,0.4424 1.1123,1.0870 1.1123 1.0870l 0.0126,0.0379 l -0.2402,0.2402 c -0.0632,0.0632 -0.1390,0.0632 -0.2022 0.0000c -0.5182,-0.5182 -0.8721,-0.6446 -1.4789 -0.3666l -9.7706,4.4619 c -0.2654,0.1138 -0.4677,0.1138 -0.6067 -0.0253c -0.1264,-0.1264 -0.1264,-0.3286 -0.0000 -0.5814l 4.6009,-9.5810 c 0.3286,-0.6826 0.0758,-1.0870 -0.3413 -1.5041c -0.0506,-0.0506 -0.0632,-0.1390 -0.0000 -0.2022l 0.2402,-0.2402 l 0.0379,0.0126 c 0.0000,-0.0000 0.9733,0.9985 1.4662 1.4915c 0.4424,0.4424 1.5800,1.5547 1.5800 1.5547l 0.0126,0.0379 l -0.2402,0.2402 c -0.0632,0.0632 -0.1390,0.0632 -0.2022 0.0000l -0.3413,-0.3413 c -0.4550,-0.4550 -0.7331,-0.4803 -0.9353 -0.2781c -0.0758,0.0758 -0.1264,0.1770 -0.2022 0.3034l -2.9198,6.0798 l -0.7078,1.4915 l 1.4536,-0.6699 ZM 146.6443,349.3901 ZM 154.8475,343.1586 c 0.3286,-0.3286 0.8721,-0.3413 1.2008 -0.0126c 0.3413,0.3413 0.3286,0.8848 0.0000 1.2134c -0.3413,0.3413 -0.8721,0.3413 -1.2134 0.0000c -0.3286,-0.3286 -0.3286,-0.8595 0.0126 -1.2008ZM 154.8475,343.1586 ZM 149.7410,350.6667 c -0.3666,0.3666 -0.4171,0.6952 -0.0126 1.0997l 0.2402,0.2402 c 0.0632,0.0632 0.0758,0.1517 0.0126 0.2149l -0.2402,0.2402 l -0.0506,0.0000 c 0.0000,-0.0000 -0.8469,-0.8974 -1.3398 -1.3904c -0.4424,-0.4424 -1.3272,-1.2766 -1.3272 -1.2766l -0.0000,-0.0506 l 0.2402,-0.2402 c 0.0632,-0.0632 0.1390,-0.0632 0.2022 -0.0000l 0.2402,0.2402 c 0.4171,0.4171 0.7331,0.3539 1.0997 -0.0126l 3.1473,-3.1473 c 0.6699,-0.6699 0.6573,-0.8848 0.4803 -1.0617c -0.1643,-0.1643 -0.3286,-0.3034 -0.5941 -0.4677l 0.2907,-0.4171 c 0.9480,0.6699 1.1376,0.7584 1.6811 0.9480c 0.1896,0.0885 0.3286,0.1264 0.4171 0.2149l 0.1896,0.1896 l -4.6767,4.6767 ZM 149.9812,352.7270 ZM 158.5131,359.4387 l 2.9072,-2.9072 c 0.8469,-0.8469 0.8342,-1.4915 0.3539 -1.9718c -0.4930,-0.4930 -1.1376,-0.6320 -2.4142 -0.5688c -0.1264,0.1770 -0.3034,0.3539 -0.4803 0.5309l -2.6417,2.6417 c -0.3666,0.3666 -0.4298,0.6826 -0.0126 1.0997l 0.2149,0.2149 c 0.0632,0.0632 0.0758,0.1517 0.0126 0.2149l -0.2402,0.2402 l -0.0506,0.0000 c 0.0000,-0.0000 -0.8216,-0.8721 -1.3145 -1.3651c -0.4550,-0.4550 -1.3525,-1.3019 -1.3525 -1.3019l -0.0000,-0.0506 l 0.2402,-0.2402 c 0.0632,-0.0632 0.1390,-0.0632 0.2022 -0.0000l 0.2528,0.2528 c 0.4298,0.4298 0.7331,0.3539 1.0997 -0.0126l 2.8819,-2.8819 c 0.8469,-0.8469 0.8469,-1.5294 0.3666 -2.0097c -0.4424,-0.4424 -1.1755,-0.5435 -2.3889 -0.5182l -3.1347,3.1347 c -0.3666,0.3666 -0.4298,0.6826 -0.0126 1.0997l 0.2402,0.2402 c 0.0506,0.0506 0.0632,0.1390 0.0000 0.2022l -0.2402,0.2402 l -0.0506,0.0000 c 0.0000,-0.0000 -0.8342,-0.8848 -1.3272 -1.3777c -0.4550,-0.4550 -1.3398,-1.2893 -1.3398 -1.2893l -0.0000,-0.0506 l 0.2402,-0.2402 c 0.0632,-0.0632 0.1390,-0.0632 0.2022 -0.0000l 0.2402,0.2402 c 0.4298,0.4298 0.7331,0.3539 1.0997 -0.0126l 3.1473,-3.1473 c 0.7205,-0.7205 0.6573,-0.8848 0.4930 -1.0491c -0.1643,-0.1643 -0.3286,-0.3034 -0.5941 -0.4677l 0.2907,-0.4171 c 0.9353,0.6573 1.1629,0.7837 1.6811 0.9480c 0.1896,0.0632 0.3286,0.1264 0.4171 0.2149l 0.1896,0.1896 l -1.1376,1.0617 l 0.0379,0.0379 c 1.2261,-0.0379 2.2246,0.0253 3.0083 0.8090c 0.7078,0.7078 0.6320,1.6685 0.1390 2.3131c 1.4915,-0.0253 2.4142,0.2402 3.0968 0.9227c 1.1123,1.1123 0.3792,2.2246 -0.7458 3.3496l -2.6291,2.6291 c -0.3666,0.3666 -0.4298,0.6826 -0.0126 1.0997l 0.2402,0.2402 c 0.0506,0.0506 0.0632,0.1390 0.0000 0.2022l -0.2402,0.2402 l -0.0506,0.0000 c 0.0000,-0.0000 -0.8342,-0.8848 -1.3272 -1.3777c -0.4550,-0.4550 -1.3398,-1.2893 -1.3398 -1.2893l -0.0000,-0.0506 l 0.2402,-0.2402 c 0.0632,-0.0632 0.1390,-0.0632 0.2022 -0.0000l 0.2402,0.2402 c 0.4171,0.4171 0.7331,0.3539 1.0997 -0.0126Z"/></g><g stroke-linejoin="miter" stroke-opacity="0.6" fill-opacity="0.0" stroke="rgb(0,0,0)" stroke-width="2.157827782149205" fill="rgb(0,0,0)" stroke-linecap="butt" stroke-miterlimit="10.0"><path d="M 138.8455,318.1650 v 8.0842 "/></g><g stroke-linejoin="miter" stroke-opacity="0.0" fill-opacity="0.1" stroke="rgb(0,0,0)" stroke-width="0.0" fill="rgb(0,0,0)" stroke-linecap="butt" stroke-miterlimit="10.0"><path d="M 102.8035,312.5879 l -0.0000,-269.4723 h -5.3894 l -0.0000,269.4723 Z"/></g><g stroke-linejoin="miter" stroke-opacity="1.0" fill-opacity="0.6" stroke="rgb(0,0,0)" fill-rule="evenodd" stroke-width="0.0" fill="rgb(0,0,0)" stroke-linecap="butt" stroke-miterlimit="10.0"><path d="M 67.1890,110.7360 ZM 71.8008,104.3902 c 0.0000,-0.1251 0.0179,-0.2681 0.1788 -0.3575c 0.1966,-0.1430 0.5184,-0.3039 0.7865 -0.3039c 0.2324,-0.0000 0.2503,0.1966 0.2503 0.5541v 2.8779 h 1.4479 l -0.1073,0.8401 h -1.3407 v 1.4837 c 0.0000,0.5005 0.0715,0.7508 0.5899 0.7508h 0.4826 c 0.1073,-0.0000 0.1251,0.0894 0.1251 0.1251v 0.3933 c 0.0000,-0.0000 -1.1440,-0.0358 -1.8948 -0.0358c -0.6793,-0.0000 -1.7339,0.0358 -1.7339 0.0358v -0.3933 c 0.0000,-0.0358 0.0179,-0.1251 0.1251 -0.1251h 0.4826 c 0.5541,-0.0000 0.6078,-0.2324 0.6078 -0.7508v -1.4837 h -3.5036 c -0.0715,-0.0000 -0.1073,-0.0358 -0.1609 -0.1073l -0.1430,-0.1966 l -0.2145,-0.3754 c -0.0179,-0.0000 -0.0179,-0.0179 -0.0179 -0.0358c 0.0000,-0.0179 0.0179,-0.0358 0.0358 -0.0536c 1.1619,-1.2870 3.2176,-5.2733 3.8611 -6.7390c 0.0179,-0.0715 0.0536,-0.0894 0.1251 -0.0894c 0.0179,-0.0000 0.4111,0.1609 0.6256 0.1966c -0.8044,2.1629 -2.1272,4.4867 -3.4321 6.5603h 2.8243 v -2.7707 ZM 75.0184,110.7360 ZM 78.9331,101.0296 c -0.7686,-0.0000 -1.8948,0.7508 -1.8948 4.9157c 0.0000,1.4658 0.2681,4.4152 1.8412 4.4152c 0.3039,-0.0000 1.1619,-0.1966 1.5373 -1.5909c 0.2324,-0.8580 0.3575,-1.9305 0.3575 -3.4857c 0.0000,-2.2702 -0.5720,-3.5393 -1.0904 -3.9862c -0.1966,-0.1788 -0.4648,-0.2681 -0.7508 -0.2681ZM 78.9331,101.0296 ZM 78.8616,110.9505 c -1.9127,-0.0000 -3.1997,-2.4489 -3.1997 -5.1839c 0.0000,-3.3427 1.5909,-5.3626 3.2712 -5.3626c 0.7686,-0.0000 1.5373,0.4826 2.0557 1.1798c 0.7508,1.0010 1.1440,2.3417 1.1440 4.0220c 0.0000,3.9683 -1.9663,5.3448 -3.2712 5.3448ZM 82.8479,110.7360 ZM 86.7626,101.0296 c -0.7686,-0.0000 -1.8948,0.7508 -1.8948 4.9157c 0.0000,1.4658 0.2681,4.4152 1.8412 4.4152c 0.3039,-0.0000 1.1619,-0.1966 1.5373 -1.5909c 0.2324,-0.8580 0.3575,-1.9305 0.3575 -3.4857c 0.0000,-2.2702 -0.5720,-3.5393 -1.0904 -3.9862c -0.1966,-0.1788 -0.4648,-0.2681 -0.7508 -0.2681ZM 86.7626,101.0296 ZM 86.6911,110.9505 c -1.9127,-0.0000 -3.1997,-2.4489 -3.1997 -5.1839c 0.0000,-3.3427 1.5909,-5.3626 3.2712 -5.3626c 0.7686,-0.0000 1.5373,0.4826 2.0557 1.1798c 0.7508,1.0010 1.1440,2.3417 1.1440 4.0220c 0.0000,3.9683 -1.9663,5.3448 -3.2712 5.3448Z"/></g><g stroke-linejoin="miter" stroke-opacity="0.6" fill-opacity="0.0" stroke="rgb(0,0,0)" stroke-width="2.157827782149205" fill="rgb(0,0,0)" stroke-linecap="butt" stroke-miterlimit="10.0"><path d="M 94.7194,110.7360 h 8.0842 "/></g><g stroke-linejoin="miter" stroke-opacity="1.0" fill-opacity="0.6" stroke="rgb(0,0,0)" fill-rule="evenodd" stroke-width="0.0" fill="rgb(0,0,0)" stroke-linecap="butt" stroke-miterlimit="10.0"><path d="M 67.1890,211.6619 ZM 68.2257,203.7431 c 0.0000,-1.0189 0.9831,-2.4132 2.8601 -2.4132c 1.3764,-0.0000 2.9852,0.5184 2.9852 2.5741c 0.0000,1.3585 -0.6971,2.0378 -1.6624 2.9673l -1.6982,1.6445 c -0.0894,0.0894 -1.2870,1.2692 -1.2870 2.1093h 3.0388 c 0.6078,-0.0000 0.9295,-0.3039 1.1798 -1.2870l 0.4469,0.0715 l -0.3575,2.2523 h -5.5235 c 0.0000,-1.0010 0.1609,-1.7697 1.8233 -3.4678l 1.2513,-1.2334 c 1.0010,-1.0189 1.4122,-1.8948 1.4122 -2.9852c 0.0000,-1.6267 -1.1083,-2.0914 -1.7160 -2.0914c -1.2334,-0.0000 -1.5730,0.6435 -1.5730 1.0725c 0.0000,0.1430 0.0358,0.2860 0.0715 0.4111c 0.0358,0.1251 0.0715,0.2503 0.0715 0.3933c 0.0000,0.4648 -0.3575,0.6435 -0.6435 0.6435c -0.3933,-0.0000 -0.6793,-0.3039 -0.6793 -0.6614ZM 75.0184,211.6619 ZM 78.9331,201.9555 c -0.7686,-0.0000 -1.8948,0.7508 -1.8948 4.9157c 0.0000,1.4658 0.2681,4.4152 1.8412 4.4152c 0.3039,-0.0000 1.1619,-0.1966 1.5373 -1.5909c 0.2324,-0.8580 0.3575,-1.9305 0.3575 -3.4857c 0.0000,-2.2702 -0.5720,-3.5393 -1.0904 -3.9862c -0.1966,-0.1788 -0.4648,-0.2681 -0.7508 -0.2681ZM 78.9331,201.9555 ZM 78.8616,211.8764 c -1.9127,-0.0000 -3.1997,-2.4489 -3.1997 -5.1839c 0.0000,-3.3427 1.5909,-5.3626 3.2712 -5.3626c 0.7686,-0.0000 1.5373,0.4826 2.0557 1.1798c 0.7508,1.0010 1.1440,2.3417 1.1440 4.0220c 0.0000,3.9683 -1.9663,5.3448 -3.2712 5.3448ZM 82.8479,211.6619 ZM 86.7626,201.9555 c -0.7686,-0.0000 -1.8948,0.7508 -1.8948 4.9157c 0.0000,1.4658 0.2681,4.4152 1.8412 4.4152c 0.3039,-0.0000 1.1619,-0.1966 1.5373 -1.5909c 0.2324,-0.8580 0.3575,-1.9305 0.3575 -3.4857c 0.0000,-2.2702 -0.5720,-3.5393 -1.0904 -3.9862c -0.1966,-0.1788 -0.4648,-0.2681 -0.7508 -0.2681ZM 86.7626,201.9555 ZM 86.6911,211.8764 c -1.9127,-0.0000 -3.1997,-2.4489 -3.1997 -5.1839c 0.0000,-3.3427 1.5909,-5.3626 3.2712 -5.3626c 0.7686,-0.0000 1.5373,0.4826 2.0557 1.1798c 0.7508,1.0010 1.1440,2.3417 1.1440 4.0220c 0.0000,3.9683 -1.9663,5.3448 -3.2712 5.3448Z"/></g><g stroke-linejoin="miter" stroke-opacity="0.6" fill-opacity="0.0" stroke="rgb(0,0,0)" stroke-width="2.157827782149205" fill="rgb(0,0,0)" stroke-linecap="butt" stroke-miterlimit="10.0"><path d="M 94.7194,211.6619 h 8.0842 "/></g><g stroke-linejoin="miter" stroke-opacity="1.0" fill-opacity="0.6" stroke="rgb(0,0,0)" fill-rule="evenodd" stroke-width="0.0" fill="rgb(0,0,0)" stroke-linecap="butt" stroke-miterlimit="10.0"><path d="M 82.8479,312.5879 ZM 86.7626,302.8815 c -0.7686,-0.0000 -1.8948,0.7508 -1.8948 4.9157c 0.0000,1.4658 0.2681,4.4152 1.8412 4.4152c 0.3039,-0.0000 1.1619,-0.1966 1.5373 -1.5909c 0.2324,-0.8580 0.3575,-1.9305 0.3575 -3.4857c 0.0000,-2.2702 -0.5720,-3.5393 -1.0904 -3.9862c -0.1966,-0.1788 -0.4648,-0.2681 -0.7508 -0.2681ZM 86.7626,302.8815 ZM 86.6911,312.8024 c -1.9127,-0.0000 -3.1997,-2.4489 -3.1997 -5.1839c 0.0000,-3.3427 1.5909,-5.3626 3.2712 -5.3626c 0.7686,-0.0000 1.5373,0.4826 2.0557 1.1798c 0.7508,1.0010 1.1440,2.3417 1.1440 4.0220c 0.0000,3.9683 -1.9663,5.3448 -3.2712 5.3448Z"/></g><g stroke-linejoin="miter" stroke-opacity="0.6" fill-opacity="0.0" stroke="rgb(0,0,0)" stroke-width="2.157827782149205" fill="rgb(0,0,0)" stroke-linecap="butt" stroke-miterlimit="10.0"><path d="M 94.7194,312.5879 h 8.0842 "/></g><g stroke-linejoin="miter" stroke-opacity="0.0" fill-opacity="0.0" stroke="rgb(0,0,0)" stroke-width="0.0" fill="rgb(0,0,0)" stroke-linecap="butt" stroke-miterlimit="10.0"><path d="M 517.7909,312.5879 l -0.0000,-269.4723 h -404.2084 l -0.0000,269.4723 Z"/></g><g stroke-linejoin="miter" stroke-opacity="1.0" fill-opacity="1.0" stroke="rgb(102,102,102)" stroke-width="0.0" fill="rgb(87,57,99)" stroke-linecap="butt" stroke-miterlimit="10.0"><path d="M 507.6857,312.5879 l -0.0000,-67.6204 h -30.3156 l -0.0000,67.6204 Z"/></g><g stroke-linejoin="miter" stroke-opacity="1.0" fill-opacity="1.0" stroke="rgb(102,102,102)" stroke-width="0.0" fill="rgb(87,57,99)" stroke-linecap="butt" stroke-miterlimit="10.0"><path d="M 457.1596,312.5879 l -0.0000,-1.5139 h -30.3156 l -0.0000,1.5139 Z"/></g><g stroke-linejoin="miter" stroke-opacity="1.0" fill-opacity="1.0" stroke="rgb(102,102,102)" stroke-width="0.0" fill="rgb(87,57,99)" stroke-linecap="butt" stroke-miterlimit="10.0"><path d="M 406.6336,312.5879 l -0.0000,-14.1296 h -30.3156 l -0.0000,14.1296 Z"/></g><g stroke-linejoin="miter" stroke-opacity="1.0" fill-opacity="1.0" stroke="rgb(102,102,102)" stroke-width="0.0" fill="rgb(87,57,99)" stroke-linecap="butt" stroke-miterlimit="10.0"><path d="M 356.1075,312.5879 l -0.0000,-46.4259 h -30.3156 l -0.0000,46.4259 Z"/></g><g stroke-linejoin="miter" stroke-opacity="1.0" fill-opacity="1.0" stroke="rgb(102,102,102)" stroke-width="0.0" fill="rgb(87,57,99)" stroke-linecap="butt" stroke-miterlimit="10.0"><path d="M 305.5814,312.5879 l -0.0000,-85.2824 h -30.3156 l -0.0000,85.2824 Z"/></g><g stroke-linejoin="miter" stroke-opacity="1.0" fill-opacity="1.0" stroke="rgb(102,102,102)" stroke-width="0.0" fill="rgb(87,57,99)" stroke-linecap="butt" stroke-miterlimit="10.0"><path d="M 255.0554,312.5879 l -0.0000,-101.9352 h -30.3156 l -0.0000,101.9352 Z"/></g><g stroke-linejoin="miter" stroke-opacity="1.0" fill-opacity="1.0" stroke="rgb(102,102,102)" stroke-width="0.0" fill="rgb(87,57,99)" stroke-linecap="butt" stroke-miterlimit="10.0"><path d="M 204.5293,312.5879 l -0.0000,-252.8195 h -30.3156 l -0.0000,252.8195 Z"/></g><g stroke-linejoin="miter" stroke-opacity="1.0" fill-opacity="1.0" stroke="rgb(102,102,102)" stroke-width="0.0" fill="rgb(87,57,99)" stroke-linecap="butt" stroke-miterlimit="10.0"><path d="M 154.0033,312.5879 l -0.0000,-269.4723 h -30.3156 l -0.0000,269.4723 Z"/></g><g stroke-linejoin="miter" stroke-opacity="1.0" fill-opacity="1.0" stroke="rgb(0,0,0)" fill-rule="evenodd" stroke-width="0.0" fill="rgb(84,84,84)" stroke-linecap="butt" stroke-miterlimit="10.0"><path d="M 480.7837,236.8833 ZM 484.1443,228.3567 c -0.3396,-0.0000 -1.1262,0.3218 -1.5194 0.5005l -0.2145,-0.5541 c 1.5730,-0.7329 2.1808,-1.1083 3.0746 -1.7518h 0.3396 v 8.9913 c 0.0000,0.6435 0.0894,0.8223 0.6793 0.8223h 0.9295 c 0.0536,-0.0000 0.1430,0.0358 0.1430 0.1430v 0.3933 l -2.4489,-0.0358 l -2.4847,0.0358 v -0.3933 c 0.0179,-0.0536 0.0358,-0.1430 0.1430 -0.1430h 1.0725 c 0.6793,-0.0000 0.6793,-0.3039 0.6793 -0.8223v -6.1492 c 0.0000,-0.6078 0.0000,-1.0368 -0.3933 -1.0368ZM 488.6131,236.8833 ZM 492.4742,227.1054 c -0.4469,-0.0000 -1.7518,0.2503 -1.7518 1.3407c 0.0000,0.3218 -0.1251,0.8759 -0.6078 0.8759c -0.4648,-0.0000 -0.5005,-0.5184 -0.5005 -0.5720c 0.0000,-0.5541 0.7329,-2.1987 3.2176 -2.1987c 1.7339,-0.0000 2.2523,1.0904 2.2523 1.8054c 0.0000,0.4469 -0.1430,1.3407 -1.7518 2.3596c 1.0010,0.1609 2.3238,0.8938 2.3238 2.7528c 0.0000,2.3596 -1.7875,3.6287 -3.8075 3.6287c -1.0189,-0.0000 -2.4489,-0.4469 -2.4489 -1.1262c 0.0000,-0.2681 0.2681,-0.5720 0.6256 -0.5720c 0.3396,-0.0000 0.5005,0.1788 0.6614 0.4111c 0.1966,0.3039 0.5184,0.7329 1.3764 0.7329c 0.5899,-0.0000 2.2702,-0.5899 2.2702 -2.8422c 0.0000,-1.9127 -1.3407,-2.2166 -2.3059 -2.2166c -0.1609,-0.0000 -0.3575,0.0358 -0.5541 0.0715l -0.0715,-0.5363 c 1.3764,-0.2324 2.5204,-1.5730 2.5204 -2.3953c 0.0000,-1.0189 -0.7150,-1.5194 -1.4479 -1.5194ZM 496.4426,236.8833 ZM 501.0544,230.5375 c 0.0000,-0.1251 0.0179,-0.2681 0.1788 -0.3575c 0.1966,-0.1430 0.5184,-0.3039 0.7865 -0.3039c 0.2324,-0.0000 0.2503,0.1966 0.2503 0.5541v 2.8779 h 1.4479 l -0.1073,0.8401 h -1.3407 v 1.4837 c 0.0000,0.5005 0.0715,0.7508 0.5899 0.7508h 0.4826 c 0.1073,-0.0000 0.1251,0.0894 0.1251 0.1251v 0.3933 c 0.0000,-0.0000 -1.1440,-0.0358 -1.8948 -0.0358c -0.6793,-0.0000 -1.7339,0.0358 -1.7339 0.0358v -0.3933 c 0.0000,-0.0358 0.0179,-0.1251 0.1251 -0.1251h 0.4826 c 0.5541,-0.0000 0.6078,-0.2324 0.6078 -0.7508v -1.4837 h -3.5036 c -0.0715,-0.0000 -0.1073,-0.0358 -0.1609 -0.1073l -0.1430,-0.1966 l -0.2145,-0.3754 c -0.0179,-0.0000 -0.0179,-0.0179 -0.0179 -0.0358c 0.0000,-0.0179 0.0179,-0.0358 0.0358 -0.0536c 1.1619,-1.2870 3.2176,-5.2733 3.8611 -6.7390c 0.0179,-0.0715 0.0536,-0.0894 0.1251 -0.0894c 0.0179,-0.0000 0.4111,0.1609 0.6256 0.1966c -0.8044,2.1629 -2.1272,4.4867 -3.4321 6.5603h 2.8243 v -2.7707 Z"/></g><g stroke-linejoin="miter" stroke-opacity="1.0" fill-opacity="1.0" stroke="rgb(0,0,0)" fill-rule="evenodd" stroke-width="0.0" fill="rgb(84,84,84)" stroke-linecap="butt" stroke-miterlimit="10.0"><path d="M 438.0871,302.9898 ZM 441.9482,293.2119 c -0.4469,-0.0000 -1.7518,0.2503 -1.7518 1.3407c 0.0000,0.3218 -0.1251,0.8759 -0.6078 0.8759c -0.4648,-0.0000 -0.5005,-0.5184 -0.5005 -0.5720c 0.0000,-0.5541 0.7329,-2.1987 3.2176 -2.1987c 1.7339,-0.0000 2.2523,1.0904 2.2523 1.8054c 0.0000,0.4469 -0.1430,1.3407 -1.7518 2.3596c 1.0010,0.1609 2.3238,0.8938 2.3238 2.7528c 0.0000,2.3596 -1.7875,3.6287 -3.8075 3.6287c -1.0189,-0.0000 -2.4489,-0.4469 -2.4489 -1.1262c 0.0000,-0.2681 0.2681,-0.5720 0.6256 -0.5720c 0.3396,-0.0000 0.5005,0.1788 0.6614 0.4111c 0.1966,0.3039 0.5184,0.7329 1.3764 0.7329c 0.5899,-0.0000 2.2702,-0.5899 2.2702 -2.8422c 0.0000,-1.9127 -1.3407,-2.2166 -2.3059 -2.2166c -0.1609,-0.0000 -0.3575,0.0358 -0.5541 0.0715l -0.0715,-0.5363 c 1.3764,-0.2324 2.5204,-1.5730 2.5204 -2.3953c 0.0000,-1.0189 -0.7150,-1.5194 -1.4479 -1.5194Z"/></g><g stroke-linejoin="miter" stroke-opacity="1.0" fill-opacity="1.0" stroke="rgb(0,0,0)" fill-rule="evenodd" stroke-width="0.0" fill="rgb(84,84,84)" stroke-linecap="butt" stroke-miterlimit="10.0"><path d="M 383.6463,290.3741 ZM 384.6831,282.4552 c 0.0000,-1.0189 0.9831,-2.4132 2.8601 -2.4132c 1.3764,-0.0000 2.9852,0.5184 2.9852 2.5741c 0.0000,1.3585 -0.6971,2.0378 -1.6624 2.9673l -1.6982,1.6445 c -0.0894,0.0894 -1.2870,1.2692 -1.2870 2.1093h 3.0388 c 0.6078,-0.0000 0.9295,-0.3039 1.1798 -1.2870l 0.4469,0.0715 l -0.3575,2.2523 h -5.5235 c 0.0000,-1.0010 0.1609,-1.7697 1.8233 -3.4678l 1.2513,-1.2334 c 1.0010,-1.0189 1.4122,-1.8948 1.4122 -2.9852c 0.0000,-1.6267 -1.1083,-2.0914 -1.7160 -2.0914c -1.2334,-0.0000 -1.5730,0.6435 -1.5730 1.0725c 0.0000,0.1430 0.0358,0.2860 0.0715 0.4111c 0.0358,0.1251 0.0715,0.2503 0.0715 0.3933c 0.0000,0.4648 -0.3575,0.6435 -0.6435 0.6435c -0.3933,-0.0000 -0.6793,-0.3039 -0.6793 -0.6614ZM 391.4757,290.3741 ZM 395.4441,280.4711 c -1.0189,-0.0000 -1.6803,0.8044 -1.6803 1.5909c 0.0000,0.5184 0.2145,1.1440 1.2870 1.8412l 0.5184,0.3218 c 0.4648,-0.3396 1.5552,-1.1619 1.5552 -2.0736c 0.0000,-0.7865 -0.5720,-1.6803 -1.6803 -1.6803ZM 395.4441,280.4711 ZM 398.1790,282.1692 c 0.0000,1.0904 -1.2334,1.9484 -1.9842 2.4489l 1.0368,0.6793 c 0.8759,0.5720 1.3228,1.3585 1.3228 2.3417c 0.0000,1.2870 -1.0547,2.9494 -3.2712 2.9494c -1.7875,-0.0000 -3.0209,-0.9474 -3.0209 -2.6813c 0.0000,-0.6614 0.2860,-1.4300 0.9831 -2.0378c 0.4290,-0.3754 0.8044,-0.6971 1.2334 -1.0189l -0.3039,-0.1788 c -1.0368,-0.6435 -1.5552,-1.3407 -1.5552 -2.2881c 0.0000,-1.3049 1.1798,-2.3417 2.9137 -2.3417c 1.6624,-0.0000 2.6456,0.9116 2.6456 2.1272ZM 398.1790,282.1692 ZM 395.3190,290.0880 c 0.7686,-0.0000 2.1093,-0.4111 2.1093 -2.1093c 0.0000,-0.8044 -0.5005,-1.6088 -1.5552 -2.2523l -0.7865,-0.4826 c -1.4479,0.9653 -1.7697,2.1629 -1.7697 2.6634c 0.0000,1.5194 1.2334,2.1808 2.0020 2.1808Z"/></g><g stroke-linejoin="miter" stroke-opacity="1.0" fill-opacity="1.0" stroke="rgb(0,0,0)" fill-rule="evenodd" stroke-width="0.0" fill="rgb(84,84,84)" stroke-linecap="butt" stroke-miterlimit="10.0"><path d="M 333.1202,258.0778 ZM 338.8225,252.6436 c 0.0000,-0.1788 0.0179,-0.4469 0.0179 -0.6256c 0.0000,-3.0031 -1.3407,-3.7538 -2.2523 -3.7538c -0.8223,-0.0000 -1.6803,0.7686 -1.6803 2.6277c 0.0000,0.8580 0.4290,2.5562 2.1272 2.5562c 0.3754,-0.0000 1.0547,-0.0358 1.7875 -0.8044ZM 338.8225,252.6436 ZM 334.1213,257.8275 c 1.1798,-0.1073 2.1629,-0.4111 3.0388 -1.2513c 0.8044,-0.8044 1.3943,-2.0020 1.6088 -3.4321c -0.4111,0.5005 -1.4122,0.8759 -2.0736 0.8759c -2.6456,-0.0000 -3.0031,-2.1808 -3.0031 -3.0031c 0.0000,-1.2155 0.6078,-3.2712 3.0746 -3.2712c 1.3228,-0.0000 3.3070,0.7686 3.3070 4.3259c 0.0000,1.6445 -0.5720,3.2533 -1.7875 4.4867c -1.1440,1.1619 -2.3596,1.6445 -4.1114 1.7339ZM 340.9497,258.0778 ZM 341.9865,250.1589 c 0.0000,-1.0189 0.9831,-2.4132 2.8601 -2.4132c 1.3764,-0.0000 2.9852,0.5184 2.9852 2.5741c 0.0000,1.3585 -0.6971,2.0378 -1.6624 2.9673l -1.6982,1.6445 c -0.0894,0.0894 -1.2870,1.2692 -1.2870 2.1093h 3.0388 c 0.6078,-0.0000 0.9295,-0.3039 1.1798 -1.2870l 0.4469,0.0715 l -0.3575,2.2523 h -5.5235 c 0.0000,-1.0010 0.1609,-1.7697 1.8233 -3.4678l 1.2513,-1.2334 c 1.0010,-1.0189 1.4122,-1.8948 1.4122 -2.9852c 0.0000,-1.6267 -1.1083,-2.0914 -1.7160 -2.0914c -1.2334,-0.0000 -1.5730,0.6435 -1.5730 1.0725c 0.0000,0.1430 0.0358,0.2860 0.0715 0.4111c 0.0358,0.1251 0.0715,0.2503 0.0715 0.3933c 0.0000,0.4648 -0.3575,0.6435 -0.6435 0.6435c -0.3933,-0.0000 -0.6793,-0.3039 -0.6793 -0.6614Z"/></g><g stroke-linejoin="miter" stroke-opacity="1.0" fill-opacity="1.0" stroke="rgb(0,0,0)" fill-rule="evenodd" stroke-width="0.0" fill="rgb(84,84,84)" stroke-linecap="butt" stroke-miterlimit="10.0"><path d="M 278.6795,219.2213 ZM 282.0400,210.6947 c -0.3396,-0.0000 -1.1262,0.3218 -1.5194 0.5005l -0.2145,-0.5541 c 1.5730,-0.7329 2.1808,-1.1083 3.0746 -1.7518h 0.3396 v 8.9913 c 0.0000,0.6435 0.0894,0.8223 0.6793 0.8223h 0.9295 c 0.0536,-0.0000 0.1430,0.0358 0.1430 0.1430v 0.3933 l -2.4489,-0.0358 l -2.4847,0.0358 v -0.3933 c 0.0179,-0.0536 0.0358,-0.1430 0.1430 -0.1430h 1.0725 c 0.6793,-0.0000 0.6793,-0.3039 0.6793 -0.8223v -6.1492 c 0.0000,-0.6078 0.0000,-1.0368 -0.3933 -1.0368ZM 286.5089,219.2213 ZM 288.5825,214.5379 c -0.0179,0.1788 -0.0179,0.4469 -0.0179 0.6256c 0.0000,3.0031 1.3407,3.7538 2.2344 3.7538c 0.8223,-0.0000 1.6982,-0.7686 1.6982 -2.6277c 0.0000,-0.8401 -0.4290,-2.5562 -2.1451 -2.5562c -0.3754,-0.0000 -1.0547,0.0358 -1.7697 0.8044ZM 288.5825,214.5379 ZM 293.2658,209.3540 c -1.1619,0.1073 -2.1629,0.4111 -3.0209 1.2513c -0.8223,0.8044 -1.4122,2.0020 -1.6088 3.4321c 0.4111,-0.5005 1.3943,-0.8759 2.0736 -0.8759c 2.6456,-0.0000 2.9852,2.1808 2.9852 3.0031c 0.0000,1.2155 -0.6078,3.2712 -3.0746 3.2712c -1.3049,-0.0000 -3.2891,-0.7686 -3.2891 -4.3259c 0.0000,-1.6445 0.5541,-3.2533 1.7875 -4.4867c 1.1440,-1.1619 2.3417,-1.6445 4.0935 -1.7339ZM 294.3384,219.2213 ZM 300.0406,213.7871 c 0.0000,-0.1788 0.0179,-0.4469 0.0179 -0.6256c 0.0000,-3.0031 -1.3407,-3.7538 -2.2523 -3.7538c -0.8223,-0.0000 -1.6803,0.7686 -1.6803 2.6277c 0.0000,0.8580 0.4290,2.5562 2.1272 2.5562c 0.3754,-0.0000 1.0547,-0.0358 1.7875 -0.8044ZM 300.0406,213.7871 ZM 295.3394,218.9710 c 1.1798,-0.1073 2.1629,-0.4111 3.0388 -1.2513c 0.8044,-0.8044 1.3943,-2.0020 1.6088 -3.4321c -0.4111,0.5005 -1.4122,0.8759 -2.0736 0.8759c -2.6456,-0.0000 -3.0031,-2.1808 -3.0031 -3.0031c 0.0000,-1.2155 0.6078,-3.2712 3.0746 -3.2712c 1.3228,-0.0000 3.3070,0.7686 3.3070 4.3259c 0.0000,1.6445 -0.5720,3.2533 -1.7875 4.4867c -1.1440,1.1619 -2.3596,1.6445 -4.1114 1.7339Z"/></g><g stroke-linejoin="miter" stroke-opacity="1.0" fill-opacity="1.0" stroke="rgb(0,0,0)" fill-rule="evenodd" stroke-width="0.0" fill="rgb(84,84,84)" stroke-linecap="butt" stroke-miterlimit="10.0"><path d="M 228.1534,202.5685 ZM 229.1902,194.6497 c 0.0000,-1.0189 0.9831,-2.4132 2.8601 -2.4132c 1.3764,-0.0000 2.9852,0.5184 2.9852 2.5741c 0.0000,1.3585 -0.6971,2.0378 -1.6624 2.9673l -1.6982,1.6445 c -0.0894,0.0894 -1.2870,1.2692 -1.2870 2.1093h 3.0388 c 0.6078,-0.0000 0.9295,-0.3039 1.1798 -1.2870l 0.4469,0.0715 l -0.3575,2.2523 h -5.5235 c 0.0000,-1.0010 0.1609,-1.7697 1.8233 -3.4678l 1.2513,-1.2334 c 1.0010,-1.0189 1.4122,-1.8948 1.4122 -2.9852c 0.0000,-1.6267 -1.1083,-2.0914 -1.7160 -2.0914c -1.2334,-0.0000 -1.5730,0.6435 -1.5730 1.0725c 0.0000,0.1430 0.0358,0.2860 0.0715 0.4111c 0.0358,0.1251 0.0715,0.2503 0.0715 0.3933c 0.0000,0.4648 -0.3575,0.6435 -0.6435 0.6435c -0.3933,-0.0000 -0.6793,-0.3039 -0.6793 -0.6614ZM 235.9829,202.5685 ZM 239.8976,192.8621 c -0.7686,-0.0000 -1.8948,0.7508 -1.8948 4.9157c 0.0000,1.4658 0.2681,4.4152 1.8412 4.4152c 0.3039,-0.0000 1.1619,-0.1966 1.5373 -1.5909c 0.2324,-0.8580 0.3575,-1.9305 0.3575 -3.4857c 0.0000,-2.2702 -0.5720,-3.5393 -1.0904 -3.9862c -0.1966,-0.1788 -0.4648,-0.2681 -0.7508 -0.2681ZM 239.8976,192.8621 ZM 239.8261,202.7830 c -1.9127,-0.0000 -3.1997,-2.4489 -3.1997 -5.1839c 0.0000,-3.3427 1.5909,-5.3626 3.2712 -5.3626c 0.7686,-0.0000 1.5373,0.4826 2.0557 1.1798c 0.7508,1.0010 1.1440,2.3417 1.1440 4.0220c 0.0000,3.9683 -1.9663,5.3448 -3.2712 5.3448ZM 243.8123,202.5685 ZM 244.8491,194.6497 c 0.0000,-1.0189 0.9831,-2.4132 2.8601 -2.4132c 1.3764,-0.0000 2.9852,0.5184 2.9852 2.5741c 0.0000,1.3585 -0.6971,2.0378 -1.6624 2.9673l -1.6982,1.6445 c -0.0894,0.0894 -1.2870,1.2692 -1.2870 2.1093h 3.0388 c 0.6078,-0.0000 0.9295,-0.3039 1.1798 -1.2870l 0.4469,0.0715 l -0.3575,2.2523 h -5.5235 c 0.0000,-1.0010 0.1609,-1.7697 1.8233 -3.4678l 1.2513,-1.2334 c 1.0010,-1.0189 1.4122,-1.8948 1.4122 -2.9852c 0.0000,-1.6267 -1.1083,-2.0914 -1.7160 -2.0914c -1.2334,-0.0000 -1.5730,0.6435 -1.5730 1.0725c 0.0000,0.1430 0.0358,0.2860 0.0715 0.4111c 0.0358,0.1251 0.0715,0.2503 0.0715 0.3933c 0.0000,0.4648 -0.3575,0.6435 -0.6435 0.6435c -0.3933,-0.0000 -0.6793,-0.3039 -0.6793 -0.6614Z"/></g><g stroke-linejoin="miter" stroke-opacity="1.0" fill-opacity="1.0" stroke="rgb(0,0,0)" fill-rule="evenodd" stroke-width="0.0" fill="rgb(84,84,84)" stroke-linecap="butt" stroke-miterlimit="10.0"><path d="M 177.6274,51.6842 ZM 183.1509,48.6632 c 0.0000,-1.8412 -1.0010,-2.7528 -2.1093 -2.7528c -0.8223,-0.0000 -1.4479,0.1251 -2.1451 0.4111l 0.5720,-4.8800 c 0.5899,0.0536 1.1977,0.0715 1.8233 0.0715c 0.8938,-0.0000 1.8233,-0.0536 2.7886 -0.1609l 0.1073,0.0536 l -0.2681,1.1619 c -0.6971,0.0715 -1.2692,0.0894 -1.7697 0.0894c -0.8044,-0.0000 -1.4122,-0.0715 -2.0378 -0.1430l -0.3396,2.8243 c 0.3754,-0.1430 1.0189,-0.2681 1.7160 -0.2681c 1.8948,-0.0000 2.9494,1.6445 2.9494 3.2891c 0.0000,2.0020 -1.3943,3.5393 -3.4142 3.5393c -1.0189,-0.0000 -2.5026,-0.5720 -2.5026 -1.2692c 0.0000,-0.3396 0.2860,-0.5720 0.6078 -0.5720c 0.3575,-0.0000 0.5899,0.2681 0.8044 0.5541c 0.2681,0.3218 0.5541,0.6793 1.1262 0.6793c 1.1440,-0.0000 2.0914,-1.0725 2.0914 -2.6277ZM 185.4568,51.6842 ZM 189.3715,41.9778 c -0.7686,-0.0000 -1.8948,0.7508 -1.8948 4.9157c 0.0000,1.4658 0.2681,4.4152 1.8412 4.4152c 0.3039,-0.0000 1.1619,-0.1966 1.5373 -1.5909c 0.2324,-0.8580 0.3575,-1.9305 0.3575 -3.4857c 0.0000,-2.2702 -0.5720,-3.5393 -1.0904 -3.9862c -0.1966,-0.1788 -0.4648,-0.2681 -0.7508 -0.2681ZM 189.3715,41.9778 ZM 189.3000,51.8987 c -1.9127,-0.0000 -3.1997,-2.4489 -3.1997 -5.1839c 0.0000,-3.3427 1.5909,-5.3626 3.2712 -5.3626c 0.7686,-0.0000 1.5373,0.4826 2.0557 1.1798c 0.7508,1.0010 1.1440,2.3417 1.1440 4.0220c 0.0000,3.9683 -1.9663,5.3448 -3.2712 5.3448ZM 193.2862,51.6842 ZM 196.6468,43.1576 c -0.3396,-0.0000 -1.1262,0.3218 -1.5194 0.5005l -0.2145,-0.5541 c 1.5730,-0.7329 2.1808,-1.1083 3.0746 -1.7518h 0.3396 v 8.9913 c 0.0000,0.6435 0.0894,0.8223 0.6793 0.8223h 0.9295 c 0.0536,-0.0000 0.1430,0.0358 0.1430 0.1430v 0.3933 l -2.4489,-0.0358 l -2.4847,0.0358 v -0.3933 c 0.0179,-0.0536 0.0358,-0.1430 0.1430 -0.1430h 1.0725 c 0.6793,-0.0000 0.6793,-0.3039 0.6793 -0.8223v -6.1492 c 0.0000,-0.6078 0.0000,-1.0368 -0.3933 -1.0368Z"/></g><g stroke-linejoin="miter" stroke-opacity="1.0" fill-opacity="1.0" stroke="rgb(0,0,0)" fill-rule="evenodd" stroke-width="0.0" fill="rgb(84,84,84)" stroke-linecap="butt" stroke-miterlimit="10.0"><path d="M 127.1013,35.0314 ZM 132.6248,32.0104 c 0.0000,-1.8412 -1.0010,-2.7528 -2.1093 -2.7528c -0.8223,-0.0000 -1.4479,0.1251 -2.1451 0.4111l 0.5720,-4.8800 c 0.5899,0.0536 1.1977,0.0715 1.8233 0.0715c 0.8938,-0.0000 1.8233,-0.0536 2.7886 -0.1609l 0.1073,0.0536 l -0.2681,1.1619 c -0.6971,0.0715 -1.2692,0.0894 -1.7697 0.0894c -0.8044,-0.0000 -1.4122,-0.0715 -2.0378 -0.1430l -0.3396,2.8243 c 0.3754,-0.1430 1.0189,-0.2681 1.7160 -0.2681c 1.8948,-0.0000 2.9494,1.6445 2.9494 3.2891c 0.0000,2.0020 -1.3943,3.5393 -3.4142 3.5393c -1.0189,-0.0000 -2.5026,-0.5720 -2.5026 -1.2692c 0.0000,-0.3396 0.2860,-0.5720 0.6078 -0.5720c 0.3575,-0.0000 0.5899,0.2681 0.8044 0.5541c 0.2681,0.3218 0.5541,0.6793 1.1262 0.6793c 1.1440,-0.0000 2.0914,-1.0725 2.0914 -2.6277ZM 134.9307,35.0314 ZM 138.7918,25.2535 c -0.4469,-0.0000 -1.7518,0.2503 -1.7518 1.3407c 0.0000,0.3218 -0.1251,0.8759 -0.6078 0.8759c -0.4648,-0.0000 -0.5005,-0.5184 -0.5005 -0.5720c 0.0000,-0.5541 0.7329,-2.1987 3.2176 -2.1987c 1.7339,-0.0000 2.2523,1.0904 2.2523 1.8054c 0.0000,0.4469 -0.1430,1.3407 -1.7518 2.3596c 1.0010,0.1609 2.3238,0.8938 2.3238 2.7528c 0.0000,2.3596 -1.7875,3.6287 -3.8075 3.6287c -1.0189,-0.0000 -2.4489,-0.4469 -2.4489 -1.1262c 0.0000,-0.2681 0.2681,-0.5720 0.6256 -0.5720c 0.3396,-0.0000 0.5005,0.1788 0.6614 0.4111c 0.1966,0.3039 0.5184,0.7329 1.3764 0.7329c 0.5899,-0.0000 2.2702,-0.5899 2.2702 -2.8422c 0.0000,-1.9127 -1.3407,-2.2166 -2.3059 -2.2166c -0.1609,-0.0000 -0.3575,0.0358 -0.5541 0.0715l -0.0715,-0.5363 c 1.3764,-0.2324 2.5204,-1.5730 2.5204 -2.3953c 0.0000,-1.0189 -0.7150,-1.5194 -1.4479 -1.5194ZM 142.7602,35.0314 ZM 147.3721,28.6856 c 0.0000,-0.1251 0.0179,-0.2681 0.1788 -0.3575c 0.1966,-0.1430 0.5184,-0.3039 0.7865 -0.3039c 0.2324,-0.0000 0.2503,0.1966 0.2503 0.5541v 2.8779 h 1.4479 l -0.1073,0.8401 h -1.3407 v 1.4837 c 0.0000,0.5005 0.0715,0.7508 0.5899 0.7508h 0.4826 c 0.1073,-0.0000 0.1251,0.0894 0.1251 0.1251v 0.3933 c 0.0000,-0.0000 -1.1440,-0.0358 -1.8948 -0.0358c -0.6793,-0.0000 -1.7339,0.0358 -1.7339 0.0358v -0.3933 c 0.0000,-0.0358 0.0179,-0.1251 0.1251 -0.1251h 0.4826 c 0.5541,-0.0000 0.6078,-0.2324 0.6078 -0.7508v -1.4837 h -3.5036 c -0.0715,-0.0000 -0.1073,-0.0358 -0.1609 -0.1073l -0.1430,-0.1966 l -0.2145,-0.3754 c -0.0179,-0.0000 -0.0179,-0.0179 -0.0179 -0.0358c 0.0000,-0.0179 0.0179,-0.0358 0.0358 -0.0536c 1.1619,-1.2870 3.2176,-5.2733 3.8611 -6.7390c 0.0179,-0.0715 0.0536,-0.0894 0.1251 -0.0894c 0.0179,-0.0000 0.4111,0.1609 0.6256 0.1966c -0.8044,2.1629 -2.1272,4.4867 -3.4321 6.5603h 2.8243 v -2.7707 Z"/></g></svg>