<?xml version="1.0" encoding="UTF-8"?>
<!DOCTYPE svg PUBLIC "-//W3C//DTD SVG 1.1//EN"
    "http://www.w3.org/Graphics/SVG/1.1/DTD/svg11.dtd">
<svg xmlns="http://www.w3.org/2000/svg" height="400.0000" stroke-opacity="1" viewBox="0 0 600 400" font-size="1" width="600.0000" xmlns:xlink="http://www.w3.org/1999/xlink" stroke="rgb(0,0,0)" version="1.1">
  <defs>
  </defs>
  <g stroke-linejoin="miter" stroke-opacity="1.0" fill-opacity="0.6" stroke="rgb(0,0,0)" fill-rule="evenodd" stroke-width="0.0" fill="rgb(0,0,0)" stroke-linecap="butt" stroke-miterlimit="10.0">
    <path d="M 117.2513,23.6523 ZM 125.7968,23.3348 c -0.1058,0.3704 -0.3704,0.6350 -0.7408 0.6350c -0.3969,-0.0000 -0.7143,-0.2117 -0.8731 -0.6350l -4.8151,-14.5512 c -0.2381,-0.6614 -0.7143,-1.4816 -1.4551 -1.4816h -0.3439 c -0.1852,-0.0000 -0.3175,-0.0794 -0.3175 -0.1852v -0.5027 l 0.0529,-0.0529 c 0.0000,-0.0000 1.3757,0.0265 2.3811 0.0265c 1.3493,-0.0000 3.2013,-0.0265 3.2013 -0.0265l 0.0529,0.0529 v 0.4762 c 0.0000,0.1323 -0.0794,0.2117 -0.2381 0.2117h -0.5820 c -0.5027,-0.0000 -0.7408,0.1852 -0.7408 0.5291c 0.0000,0.1852 0.0529,0.3969 0.1587 0.6879l 4.0214,12.1965 l 2.8044,-8.7572 c 0.1058,-0.3175 0.1852,-0.6614 0.1852 -1.0054c 0.0000,-0.2381 -0.0265,-0.4762 -0.1323 -0.7408l -0.5556,-1.6932 c -0.2117,-0.7143 -0.6879,-1.2170 -1.7197 -1.2170h -0.0794 c -0.1852,-0.0000 -0.3175,-0.0794 -0.3175 -0.1852v -0.5027 l 0.0529,-0.0529 c 0.0000,-0.0000 1.4816,0.0265 2.5398 0.0265c 1.2964,-0.0000 3.3865,-0.0265 3.3865 -0.0265l 0.0794,0.0529 v 0.5027 c 0.0000,0.1323 -0.1323,0.1852 -0.2381 0.1852h -0.7672 c -0.5291,-0.0000 -0.7408,0.3704 -0.7408 0.8202c 0.0000,0.2646 0.0529,0.5556 0.1587 0.8731l 3.8891,11.7732 l 4.0479,-12.1701 c 0.0529,-0.2117 0.1058,-0.4233 0.1058 -0.6085c 0.0000,-0.3969 -0.2381,-0.6879 -0.8995 -0.6879h -0.7143 c -0.1323,-0.0000 -0.2117,-0.1058 -0.2117 -0.1852v -0.5027 l 0.0529,-0.0529 c 0.0000,-0.0000 1.5874,0.0265 2.6986 0.0265c 0.8466,-0.0000 2.2488,-0.0265 2.2488 -0.0265l 0.0265,0.0265 v 0.5027 c 0.0000,0.2117 -0.2910,0.2117 -0.2910 0.2117h -0.2910 c -0.7672,-0.0000 -1.2964,0.2910 -1.6403 1.3228l -4.8680,14.7364 c -0.1323,0.3969 -0.4233,0.6085 -0.7937 0.6085c -0.3439,-0.0000 -0.6879,-0.1852 -0.8466 -0.6350l -3.0954,-9.3921 c -0.1323,-0.3704 -0.2646,-0.7408 -0.3704 -0.7408c -0.1323,-0.0000 -0.2646,0.3439 -0.3704 0.6614ZM 141.4592,23.6523 ZM 145.7716,5.1855 v 8.9688 c 1.7726,-1.7726 3.3335,-2.1959 4.3654 -2.1959c 1.9049,-0.0000 2.8573,1.4551 2.8573 4.1802v 5.6088 c 0.0000,0.7672 0.2646,1.1641 1.1376 1.1641h 0.5027 c 0.1058,-0.0000 0.2117,0.0794 0.2117 0.2117v 0.5027 l -0.0529,0.0529 c 0.0000,-0.0000 -1.7991,-0.0529 -2.8573 -0.0529c -0.9260,-0.0000 -2.7250,0.0529 -2.7250 0.0529l -0.0529,-0.0529 v -0.5027 c 0.0000,-0.1323 0.0794,-0.2117 0.2117 -0.2117h 0.5027 c 0.8995,-0.0000 1.1376,-0.3969 1.1376 -1.1641v -5.8998 c 0.0000,-2.1430 -0.5820,-2.6457 -2.0636 -2.6457c -0.7672,-0.0000 -1.9049,0.6879 -3.1748 1.9313v 6.6142 c 0.0000,0.7672 0.2646,1.1641 1.1376 1.1641h 0.5027 c 0.1058,-0.0000 0.2117,0.0794 0.2117 0.2117v 0.5027 l -0.0529,0.0529 c 0.0000,-0.0000 -1.7991,-0.0529 -2.8309 -0.0529c -0.9524,-0.0000 -2.7250,0.0529 -2.7250 0.0529l -0.0529,-0.0529 v -0.5027 c 0.0000,-0.1323 0.0529,-0.2117 0.1852 -0.2117h 0.5027 c 0.8995,-0.0000 1.1376,-0.3969 1.1376 -1.1641v -13.2548 c 0.0000,-1.5080 -0.2381,-1.9313 -0.7672 -1.9313l -0.8731,0.1058 c -0.0794,-0.0000 -0.1323,-0.0529 -0.1323 -0.1323l -0.0529,-0.6614 c 0.4233,-0.0000 1.3757,-0.1587 1.8255 -0.2381c 0.4762,-0.1058 0.8731,-0.2117 1.4022 -0.4498h 0.5820 ZM 155.1638,23.6523 ZM 157.2274,8.5455 c 0.0000,-0.6879 0.5556,-1.2699 1.2435 -1.2699c 0.7143,-0.0000 1.2699,0.5820 1.2699 1.2699c 0.0000,0.7143 -0.5556,1.2699 -1.2699 1.2699c -0.6879,-0.0000 -1.2435,-0.5556 -1.2435 -1.2699ZM 157.2274,8.5455 ZM 159.7408,21.7474 c 0.0000,0.7672 0.2910,1.1641 1.1376 1.1641h 0.5027 c 0.1323,-0.0000 0.2381,0.0794 0.2381 0.2117v 0.5027 l -0.0529,0.0529 c 0.0000,-0.0000 -1.8255,-0.0529 -2.8573 -0.0529c -0.9260,-0.0000 -2.7250,0.0529 -2.7250 0.0529l -0.0529,-0.0529 v -0.5027 c 0.0000,-0.1323 0.0794,-0.2117 0.2117 -0.2117h 0.5027 c 0.8731,-0.0000 1.1376,-0.3969 1.1376 -1.1641v -6.5877 c 0.0000,-1.4022 -0.2381,-1.6139 -0.6085 -1.6139c -0.3439,-0.0000 -0.6614,0.0265 -1.1112 0.1323l -0.1323,-0.7408 c 1.6932,-0.2910 1.9843,-0.3969 2.7515 -0.7672c 0.2910,-0.1058 0.4762,-0.2117 0.6614 -0.2117h 0.3969 v 9.7890 ZM 162.1483,23.6523 ZM 181.1178,21.7474 v -5.3972 c 0.0000,-2.1430 -0.5556,-3.1483 -1.7726 -3.1483c -0.7672,-0.0000 -1.9049,0.4498 -3.4658 1.9313v 6.6142 c 0.0000,0.7672 0.2646,1.1641 1.1376 1.1641h 0.5027 c 0.1058,-0.0000 0.2117,0.0794 0.2117 0.2117v 0.5027 l -0.0529,0.0529 c 0.0000,-0.0000 -1.7991,-0.0529 -2.8309 -0.0529c -0.9524,-0.0000 -2.0107,0.0529 -2.0107 0.0529l -0.0529,-0.0529 v -0.5027 c 0.0000,-0.1323 0.0794,-0.2117 0.2117 -0.2117h 0.0529 c 0.6879,-0.0000 0.8466,-0.3969 0.8466 -1.1641v -13.3871 c 0.0000,-1.2435 -0.2381,-1.7991 -0.7672 -1.7991l -0.8731,0.1058 c -0.0794,-0.0000 -0.1323,-0.0529 -0.1323 -0.1323l -0.0529,-0.6614 c 0.4233,-0.0000 1.3757,-0.1587 1.8255 -0.2381c 0.4762,-0.1058 0.8731,-0.2117 1.4022 -0.4498h 0.5820 v 8.9688 c 1.7726,-1.7726 3.5981,-2.1959 4.6299 -2.1959c 1.9313,-0.0000 2.5928,1.4551 2.5928 4.1802v 5.6088 c 0.0000,0.7672 0.2646,1.1641 1.1112 1.1641h 0.5291 c 0.1058,-0.0000 0.2117,0.0794 0.2117 0.2117v 0.5027 l -0.0529,0.0529 c 0.0000,-0.0000 -1.7991,-0.0529 -2.8573 -0.0529c -0.9260,-0.0000 -2.7250,0.0529 -2.7250 0.0529l -0.0529,-0.0529 v -0.5027 c 0.0000,-0.1323 0.0794,-0.2117 0.2117 -0.2117h 0.5027 c 0.8995,-0.0000 1.1376,-0.3969 1.1376 -1.1641ZM 181.1178,21.7474 ZM 172.0431,21.1654 c -1.1641,2.0107 -2.4340,2.7250 -3.9950 2.7250c -3.1748,-0.0000 -4.9209,-2.4340 -4.9209 -5.8469c 0.0000,-3.7569 2.1165,-6.1380 4.9474 -6.1380c 2.5398,-0.0000 3.8891,1.2964 3.8891 2.6986c 0.0000,0.7937 -0.4762,1.1641 -1.0054 1.1641c -0.5820,-0.0000 -1.1112,-0.2910 -1.1906 -0.9260c -0.0794,-0.8995 -0.2646,-2.0372 -1.8255 -2.0372c -1.7461,-0.0000 -2.7780,1.7991 -2.7780 4.6564c 0.0000,3.0954 1.4022,5.2649 3.4658 5.2649c 1.1376,-0.0000 2.1165,-0.7408 2.9367 -1.9313ZM 191.8857,23.6523 ZM 194.9017,16.3238 h 4.8680 c 0.2646,-0.0000 0.3704,-0.1323 0.3704 -0.3704c 0.0000,-2.4605 -1.2435,-3.0954 -2.1959 -3.0954c -0.6085,-0.0000 -2.5928,0.2381 -3.0425 3.4658ZM 194.9017,16.3238 ZM 201.8863,21.1918 l 0.5291,0.4233 c -1.0054,1.3757 -2.5663,2.3546 -4.4712 2.3546c -3.6246,-0.0000 -5.1591,-2.6986 -5.1591 -5.5824c 0.0000,-4.0214 2.6457,-6.4290 5.1591 -6.4290c 3.4923,-0.0000 4.3124,2.7250 4.3124 4.9474c 0.0000,0.2910 -0.1852,0.4498 -0.4762 0.4498h -6.9581 c -0.0265,0.1587 -0.0265,0.3175 -0.0265 0.5291c 0.0000,2.6986 1.8784,4.7887 3.7833 4.7887c 1.4551,-0.0000 2.3811,-0.4762 3.3071 -1.4816ZM 201.9127,23.6523 ZM 210.7493,21.2976 v -6.8523 c -0.6350,-1.0054 -1.3493,-1.5609 -2.5928 -1.5609c -0.5291,-0.0000 -1.6139,0.0794 -2.4605 1.3228c -0.3704,0.5556 -0.8202,1.6932 -0.8202 3.5981c 0.0000,3.4658 1.7991,5.0532 3.2277 5.0532c 0.8731,-0.0000 1.5874,-0.5291 2.6457 -1.5609ZM 210.7493,21.2976 ZM 212.7335,5.1855 v 15.2920 c 0.0000,0.7937 0.0529,1.2170 0.1058 1.4022c 0.0794,0.2381 0.3704,0.3969 0.5820 0.3969c 0.3175,-0.0000 0.8995,-0.0000 1.2964 -0.0794l 0.1058,0.7408 c -1.5345,0.2646 -2.9102,0.5556 -3.4658 1.0318h -0.6350 l 0.0794,-1.8255 c -1.0054,1.0318 -2.0372,1.8255 -3.3865 1.8255c -2.8573,-0.0000 -4.6035,-2.4340 -4.6035 -5.6882c 0.0000,-1.9578 0.5291,-3.5981 1.6668 -4.7357c 1.0583,-1.0054 2.2224,-1.5874 3.9685 -1.5874c 0.5291,-0.0000 1.6932,0.2381 2.3017 0.5820v -4.0479 c 0.0000,-1.5080 -0.2381,-1.9313 -0.7672 -1.9313l -0.8731,0.1058 c -0.0529,-0.0000 -0.1323,-0.0529 -0.1323 -0.1323l -0.0529,-0.6614 c 0.4233,-0.0000 1.3757,-0.1587 1.8255 -0.2381c 0.5027,-0.1058 0.8731,-0.2117 1.4022 -0.4498h 0.5820 ZM 214.9824,23.6523 ZM 217.0460,8.5455 c 0.0000,-0.6879 0.5556,-1.2699 1.2435 -1.2699c 0.7143,-0.0000 1.2699,0.5820 1.2699 1.2699c 0.0000,0.7143 -0.5556,1.2699 -1.2699 1.2699c -0.6879,-0.0000 -1.2435,-0.5556 -1.2435 -1.2699ZM 217.0460,8.5455 ZM 219.5594,21.7474 c 0.0000,0.7672 0.2910,1.1641 1.1376 1.1641h 0.5027 c 0.1323,-0.0000 0.2381,0.0794 0.2381 0.2117v 0.5027 l -0.0529,0.0529 c 0.0000,-0.0000 -1.8255,-0.0529 -2.8573 -0.0529c -0.9260,-0.0000 -2.7250,0.0529 -2.7250 0.0529l -0.0529,-0.0529 v -0.5027 c 0.0000,-0.1323 0.0794,-0.2117 0.2117 -0.2117h 0.5027 c 0.8731,-0.0000 1.1376,-0.3969 1.1376 -1.1641v -6.5877 c 0.0000,-1.4022 -0.2381,-1.6139 -0.6085 -1.6139c -0.3439,-0.0000 -0.6614,0.0265 -1.1112 0.1323l -0.1323,-0.7408 c 1.6932,-0.2910 1.9843,-0.3969 2.7515 -0.7672c 0.2910,-0.1058 0.4762,-0.2117 0.6614 -0.2117h 0.3969 v 9.7890 ZM 221.9669,23.6523 ZM 226.3058,13.3077 v 6.7729 c 0.0000,1.6403 0.1587,2.4340 0.8731 2.4340c 0.6879,-0.0000 1.2170,-0.2117 1.9049 -0.7408l 0.4762,0.4498 c -1.0318,1.1641 -2.0901,1.7461 -3.3071 1.7461c -1.2170,-0.0000 -1.9313,-0.7408 -1.9313 -2.6192v -8.0428 h -1.7197 c -0.0794,-0.0000 -0.1058,-0.0265 -0.1058 -0.1058v -0.8202 c 0.0000,-0.0794 0.0265,-0.1058 0.0794 -0.1058c 1.7726,-0.0000 2.1959,-1.0318 2.1959 -3.0425v -0.5027 l 1.5345,-0.5291 v 4.0743 h 2.9102 c 0.1323,-0.0000 0.2117,0.0529 0.2117 0.1587v 0.5291 c 0.0000,0.2381 -0.3704,0.3439 -0.6350 0.3439h -2.4869 ZM 229.9568,23.6523 ZM 230.8564,18.2287 c 0.0000,-3.6246 1.9578,-6.2702 5.4765 -6.2702c 3.9156,-0.0000 5.4236,3.2806 5.4236 6.0321c 0.0000,2.6457 -1.7197,5.9792 -5.4765 5.9792c -3.5452,-0.0000 -5.4236,-3.0425 -5.4236 -5.7411ZM 230.8564,18.2287 ZM 236.0419,12.8315 c -2.1165,-0.0000 -3.0954,2.4869 -3.0954 4.7887c 0.0000,2.0372 1.1641,5.4236 3.7833 5.4236c 1.1906,-0.0000 2.9367,-0.7143 2.9367 -4.2066c 0.0000,-3.8891 -1.4551,-6.0057 -3.6246 -6.0057ZM 242.6296,23.6523 ZM 244.9842,21.7474 v -6.5877 c 0.0000,-1.3228 -0.1852,-1.6139 -0.5820 -1.6139c -0.3439,-0.0000 -0.6614,0.0265 -1.1112 0.1323l -0.1323,-0.7408 c 1.6668,-0.2910 1.9578,-0.3704 2.7515 -0.7672c 0.2646,-0.1323 0.4762,-0.2117 0.6614 -0.2117h 0.3969 l -0.0794,2.3811 h 0.0794 c 0.6879,-1.0318 1.8520,-2.3811 3.0954 -2.3811c 1.0847,-0.0000 1.4816,0.5291 1.4816 1.2170c 0.0000,0.6879 -0.4498,1.1112 -1.1376 1.1112c -0.5291,-0.0000 -0.8202,-0.2117 -1.0847 -0.4762c -0.1587,-0.1587 -0.3439,-0.2381 -0.5291 -0.2381c -0.2910,-0.0000 -0.8731,0.4762 -1.5080 1.3757c -0.1852,0.2381 -0.3175,0.5820 -0.3175 0.9260v 5.8734 c 0.0000,0.7672 0.2646,1.1641 1.1376 1.1641h 0.7672 c 0.1323,-0.0000 0.2381,0.0794 0.2381 0.2117v 0.5027 l -0.0529,0.0529 c 0.0000,-0.0000 -2.0901,-0.0529 -3.1219 -0.0529c -0.9524,-0.0000 -2.7515,0.0529 -2.7515 0.0529l -0.0265,-0.0529 v -0.5027 c 0.0000,-0.1323 0.0529,-0.2117 0.1852 -0.2117h 0.5027 c 0.8995,-0.0000 1.1376,-0.3969 1.1376 -1.1641ZM 251.8101,23.6523 ZM 252.9477,19.9483 l 0.7143,-0.0265 c 0.0794,0.6614 0.3704,1.9313 0.9524 2.5398c 0.2646,0.2910 0.9789,0.7672 1.9578 0.7672c 0.9260,-0.0000 2.3017,-0.7408 2.3017 -2.0372c 0.0000,-1.1376 -0.6350,-1.9049 -2.7250 -2.8044c -1.9313,-0.8466 -2.9367,-1.4022 -2.9367 -3.3865c 0.0000,-1.7726 1.5609,-3.0425 3.6510 -3.0425c 1.3228,-0.0000 2.3017,0.2381 3.1219 0.6614c 0.1587,0.8466 0.2381,1.7461 0.2910 2.6986l -0.7143,0.0265 c -0.5556,-2.1694 -2.1430,-2.5928 -2.6986 -2.5928c -1.0054,-0.0000 -2.0372,0.3969 -2.0372 1.8520c 0.0000,1.0583 0.5027,1.5874 1.9578 2.1165c 2.1430,0.7937 3.8627,1.7461 3.8627 3.8627c 0.0000,2.6192 -2.7780,3.3865 -4.0214 3.3865c -0.9260,-0.0000 -1.6932,-0.1058 -2.3811 -0.2910c -0.1852,-0.0265 -0.3175,-0.0529 -0.5027 -0.0529c -0.1323,-0.0000 -0.3439,0.0265 -0.6085 0.0794c 0.0000,-1.1112 -0.0794,-2.4605 -0.1852 -3.7569ZM 268.2397,23.6523 ZM 277.0762,21.2976 v -6.8523 c -0.6350,-1.0054 -1.3493,-1.5609 -2.5928 -1.5609c -0.5291,-0.0000 -1.6139,0.0794 -2.4605 1.3228c -0.3704,0.5556 -0.8202,1.6932 -0.8202 3.5981c 0.0000,3.4658 1.7991,5.0532 3.2277 5.0532c 0.8731,-0.0000 1.5874,-0.5291 2.6457 -1.5609ZM 277.0762,21.2976 ZM 279.0605,5.1855 v 15.2920 c 0.0000,0.7937 0.0529,1.2170 0.1058 1.4022c 0.0794,0.2381 0.3704,0.3969 0.5820 0.3969c 0.3175,-0.0000 0.8995,-0.0000 1.2964 -0.0794l 0.1058,0.7408 c -1.5345,0.2646 -2.9102,0.5556 -3.4658 1.0318h -0.6350 l 0.0794,-1.8255 c -1.0054,1.0318 -2.0372,1.8255 -3.3865 1.8255c -2.8573,-0.0000 -4.6035,-2.4340 -4.6035 -5.6882c 0.0000,-1.9578 0.5291,-3.5981 1.6668 -4.7357c 1.0583,-1.0054 2.2224,-1.5874 3.9685 -1.5874c 0.5291,-0.0000 1.6932,0.2381 2.3017 0.5820v -4.0479 c 0.0000,-1.5080 -0.2381,-1.9313 -0.7672 -1.9313l -0.8731,0.1058 c -0.0529,-0.0000 -0.1323,-0.0529 -0.1323 -0.1323l -0.0529,-0.6614 c 0.4233,-0.0000 1.3757,-0.1587 1.8255 -0.2381c 0.5027,-0.1058 0.8731,-0.2117 1.4022 -0.4498h 0.5820 ZM 281.3093,23.6523 ZM 282.2088,18.2287 c 0.0000,-3.6246 1.9578,-6.2702 5.4765 -6.2702c 3.9156,-0.0000 5.4236,3.2806 5.4236 6.0321c 0.0000,2.6457 -1.7197,5.9792 -5.4765 5.9792c -3.5452,-0.0000 -5.4236,-3.0425 -5.4236 -5.7411ZM 282.2088,18.2287 ZM 287.3943,12.8315 c -2.1165,-0.0000 -3.0954,2.4869 -3.0954 4.7887c 0.0000,2.0372 1.1641,5.4236 3.7833 5.4236c 1.1906,-0.0000 2.9367,-0.7143 2.9367 -4.2066c 0.0000,-3.8891 -1.4551,-6.0057 -3.6246 -6.0057ZM 300.5962,23.6523 ZM 306.0992,12.8050 c 0.0000,0.1323 -0.1587,0.2117 -0.2910 0.2117c -0.7937,-0.0000 -1.1376,0.1587 -1.1376 0.5820c 0.0000,0.1587 0.0529,0.3704 0.1587 0.6085l 2.9102,6.8258 l 2.9367,-6.7200 c 0.1323,-0.2381 0.1852,-0.4498 0.1852 -0.6085c 0.0000,-0.5556 -0.5291,-0.6879 -1.1112 -0.6879h -0.1058 c -0.1323,-0.0000 -0.2646,-0.1058 -0.2646 -0.1852v -0.5027 l 0.0529,-0.0794 c 0.0000,-0.0000 1.5609,0.0529 2.4869 0.0529c 0.7408,-0.0000 1.8255,-0.0529 1.8255 -0.0529l 0.0794,0.0529 v 0.5027 c 0.0000,0.1323 -0.1058,0.2117 -0.2910 0.2117c -1.0054,-0.0000 -1.5080,1.0318 -1.8784 1.7991c -1.4022,2.9631 -2.5663,5.6882 -4.6828 10.7943c -0.7937,1.9049 -1.7461,4.1272 -3.6246 4.1272c -0.5027,-0.0000 -1.5345,-0.2910 -1.5345 -1.2435c 0.0000,-0.7937 0.5820,-1.0318 1.0054 -1.0318c 0.3969,-0.0000 0.6614,0.1587 0.8202 0.3704c 0.2646,0.2646 0.4498,0.4498 0.7143 0.4498c 0.3969,-0.0000 1.3228,-2.2753 1.9843 -3.8891c 0.1587,-0.3175 0.2117,-0.5820 0.2117 -0.8202c 0.0000,-0.2646 -0.2381,-0.9789 -0.4498 -1.5080l -3.3335,-7.7518 c -0.4233,-1.0054 -0.7143,-1.2964 -1.6139 -1.2964c -0.1587,-0.0000 -0.2646,-0.0794 -0.2646 -0.1852v -0.5291 l 0.0529,-0.0529 c 0.0000,-0.0000 1.1641,0.0529 1.9578 0.0529c 1.2435,-0.0000 3.1483,-0.0529 3.1483 -0.0529l 0.0529,0.0794 v 0.4762 ZM 314.0627,23.6523 ZM 314.9622,18.2287 c 0.0000,-3.6246 1.9578,-6.2702 5.4765 -6.2702c 3.9156,-0.0000 5.4236,3.2806 5.4236 6.0321c 0.0000,2.6457 -1.7197,5.9792 -5.4765 5.9792c -3.5452,-0.0000 -5.4236,-3.0425 -5.4236 -5.7411ZM 314.9622,18.2287 ZM 320.1477,12.8315 c -2.1165,-0.0000 -3.0954,2.4869 -3.0954 4.7887c 0.0000,2.0372 1.1641,5.4236 3.7833 5.4236c 1.1906,-0.0000 2.9367,-0.7143 2.9367 -4.2066c 0.0000,-3.8891 -1.4551,-6.0057 -3.6246 -6.0057ZM 326.7354,23.6523 ZM 338.0854,20.5833 c 0.0000,1.3228 0.1323,1.7461 0.6614 1.7461c 0.3175,-0.0000 0.8995,-0.0529 1.3493 -0.1323l 0.1058,0.7408 c -1.6139,0.2910 -2.9102,0.5556 -3.5187 1.0318h -0.5820 l 0.0794,-1.9578 h -0.0794 c -1.4551,1.5874 -2.6457,1.9578 -3.7304 1.9578c -2.6192,-0.0000 -3.3071,-1.7726 -3.3071 -3.5981v -6.0321 c 0.0000,-0.8731 -0.1852,-1.3228 -1.1641 -1.3228c -0.1058,-0.0000 -0.2910,0.0265 -0.4498 0.0265l -0.0794,-0.0265 v -0.6879 l 0.0794,-0.0794 c 0.0000,-0.0000 1.7991,0.0529 2.6457 0.0529c 0.3704,-0.0000 0.9789,-0.0529 0.9789 -0.0529l -0.0265,2.1165 v 5.6353 c 0.0000,2.3546 1.2170,2.7780 2.0107 2.7780c 0.6085,-0.0000 1.1641,-0.2381 1.7197 -0.6350c 0.6350,-0.4762 1.0583,-0.8466 1.3228 -1.1906v -6.5348 c 0.0000,-0.9524 -0.1323,-1.4022 -1.1112 -1.4022c -0.1587,-0.0000 -0.4498,0.0265 -0.5291 0.0265l -0.0529,-0.0529 v -0.6614 l 0.0529,-0.0794 c 0.0000,-0.0000 1.8784,0.0529 2.6192 0.0529c 0.6085,-0.0000 1.0318,-0.0529 1.0318 -0.0529l -0.0265,2.0901 v 6.2438 ZM 347.0277,23.6523 ZM 358.3776,20.5833 c 0.0000,1.3228 0.1323,1.7461 0.6614 1.7461c 0.3175,-0.0000 0.8995,-0.0529 1.3493 -0.1323l 0.1058,0.7408 c -1.6139,0.2910 -2.9102,0.5556 -3.5187 1.0318h -0.5820 l 0.0794,-1.9578 h -0.0794 c -1.4551,1.5874 -2.6457,1.9578 -3.7304 1.9578c -2.6192,-0.0000 -3.3071,-1.7726 -3.3071 -3.5981v -6.0321 c 0.0000,-0.8731 -0.1852,-1.3228 -1.1641 -1.3228c -0.1058,-0.0000 -0.2910,0.0265 -0.4498 0.0265l -0.0794,-0.0265 v -0.6879 l 0.0794,-0.0794 c 0.0000,-0.0000 1.7991,0.0529 2.6457 0.0529c 0.3704,-0.0000 0.9789,-0.0529 0.9789 -0.0529l -0.0265,2.1165 v 5.6353 c 0.0000,2.3546 1.2170,2.7780 2.0107 2.7780c 0.6085,-0.0000 1.1641,-0.2381 1.7197 -0.6350c 0.6350,-0.4762 1.0583,-0.8466 1.3228 -1.1906v -6.5348 c 0.0000,-0.9524 -0.1323,-1.4022 -1.1112 -1.4022c -0.1587,-0.0000 -0.4498,0.0265 -0.5291 0.0265l -0.0529,-0.0529 v -0.6614 l 0.0529,-0.0794 c 0.0000,-0.0000 1.8784,0.0529 2.6192 0.0529c 0.6085,-0.0000 1.0318,-0.0529 1.0318 -0.0529l -0.0265,2.0901 v 6.2438 ZM 360.7058,23.6523 ZM 361.8435,19.9483 l 0.7143,-0.0265 c 0.0794,0.6614 0.3704,1.9313 0.9524 2.5398c 0.2646,0.2910 0.9789,0.7672 1.9578 0.7672c 0.9260,-0.0000 2.3017,-0.7408 2.3017 -2.0372c 0.0000,-1.1376 -0.6350,-1.9049 -2.7250 -2.8044c -1.9313,-0.8466 -2.9367,-1.4022 -2.9367 -3.3865c 0.0000,-1.7726 1.5609,-3.0425 3.6510 -3.0425c 1.3228,-0.0000 2.3017,0.2381 3.1219 0.6614c 0.1587,0.8466 0.2381,1.7461 0.2910 2.6986l -0.7143,0.0265 c -0.5556,-2.1694 -2.1430,-2.5928 -2.6986 -2.5928c -1.0054,-0.0000 -2.0372,0.3969 -2.0372 1.8520c 0.0000,1.0583 0.5027,1.5874 1.9578 2.1165c 2.1430,0.7937 3.8627,1.7461 3.8627 3.8627c 0.0000,2.6192 -2.7780,3.3865 -4.0214 3.3865c -0.9260,-0.0000 -1.6932,-0.1058 -2.3811 -0.2910c -0.1852,-0.0265 -0.3175,-0.0529 -0.5027 -0.0529c -0.1323,-0.0000 -0.3439,0.0265 -0.6085 0.0794c 0.0000,-1.1112 -0.0794,-2.4605 -0.1852 -3.7569ZM 370.5213,23.6523 ZM 373.5373,16.3238 h 4.8680 c 0.2646,-0.0000 0.3704,-0.1323 0.3704 -0.3704c 0.0000,-2.4605 -1.2435,-3.0954 -2.1959 -3.0954c -0.6085,-0.0000 -2.5928,0.2381 -3.0425 3.4658ZM 373.5373,16.3238 ZM 380.5219,21.1918 l 0.5291,0.4233 c -1.0054,1.3757 -2.5663,2.3546 -4.4712 2.3546c -3.6246,-0.0000 -5.1591,-2.6986 -5.1591 -5.5824c 0.0000,-4.0214 2.6457,-6.4290 5.1591 -6.4290c 3.4923,-0.0000 4.3124,2.7250 4.3124 4.9474c 0.0000,0.2910 -0.1852,0.4498 -0.4762 0.4498h -6.9581 c -0.0265,0.1587 -0.0265,0.3175 -0.0265 0.5291c 0.0000,2.6986 1.8784,4.7887 3.7833 4.7887c 1.4551,-0.0000 2.3811,-0.4762 3.3071 -1.4816ZM 388.4589,23.6523 ZM 390.8929,21.7474 v -8.4397 h -1.8255 c -0.1058,-0.0000 -0.1323,-0.0265 -0.1323 -0.1323v -0.3704 c 0.0000,-0.2117 0.1323,-0.5291 0.6085 -0.5291h 1.3493 v -1.0318 c 0.0000,-4.1272 2.1430,-6.0586 4.3654 -6.0586c 1.0054,-0.0000 1.6932,0.2646 2.3546 0.7143c 0.5291,0.3969 0.7672,0.8466 0.7672 1.2699c 0.0000,0.5556 -0.3969,0.9524 -0.8995 0.9524c -0.5291,-0.0000 -0.8731,-0.2910 -1.0847 -0.7408c -0.3439,-0.8731 -0.8466,-1.2964 -1.6403 -1.2964c -0.8731,-0.0000 -1.8784,0.6350 -1.8784 4.7093v 1.4816 h 2.9102 c 0.1323,-0.0000 0.2117,0.0529 0.2117 0.1587v 0.5291 c 0.0000,0.2381 -0.3704,0.3439 -0.6085 0.3439h -2.5134 v 8.4397 c 0.0000,0.7672 0.2646,1.1641 1.1376 1.1641h 0.8731 c 0.1058,-0.0000 0.2117,0.0794 0.2117 0.2117v 0.5027 l -0.0529,0.0529 c 0.0000,-0.0000 -2.1694,-0.0529 -3.2013 -0.0529c -0.9524,-0.0000 -2.7515,0.0529 -2.7515 0.0529l -0.0529,-0.0529 v -0.5027 c 0.0000,-0.1323 0.0794,-0.2117 0.2117 -0.2117h 0.5027 c 0.8995,-0.0000 1.1376,-0.3969 1.1376 -1.1641ZM 396.5017,23.6523 ZM 397.4013,18.2287 c 0.0000,-3.6246 1.9578,-6.2702 5.4765 -6.2702c 3.9156,-0.0000 5.4236,3.2806 5.4236 6.0321c 0.0000,2.6457 -1.7197,5.9792 -5.4765 5.9792c -3.5452,-0.0000 -5.4236,-3.0425 -5.4236 -5.7411ZM 397.4013,18.2287 ZM 402.5868,12.8315 c -2.1165,-0.0000 -3.0954,2.4869 -3.0954 4.7887c 0.0000,2.0372 1.1641,5.4236 3.7833 5.4236c 1.1906,-0.0000 2.9367,-0.7143 2.9367 -4.2066c 0.0000,-3.8891 -1.4551,-6.0057 -3.6246 -6.0057ZM 409.1745,23.6523 ZM 411.5291,21.7474 v -6.5877 c 0.0000,-1.3228 -0.1852,-1.6139 -0.5820 -1.6139c -0.3439,-0.0000 -0.6614,0.0265 -1.1112 0.1323l -0.1323,-0.7408 c 1.6668,-0.2910 1.9578,-0.3704 2.7515 -0.7672c 0.2646,-0.1323 0.4762,-0.2117 0.6614 -0.2117h 0.3969 l -0.0794,2.3811 h 0.0794 c 0.6879,-1.0318 1.8520,-2.3811 3.0954 -2.3811c 1.0847,-0.0000 1.4816,0.5291 1.4816 1.2170c 0.0000,0.6879 -0.4498,1.1112 -1.1376 1.1112c -0.5291,-0.0000 -0.8202,-0.2117 -1.0847 -0.4762c -0.1587,-0.1587 -0.3439,-0.2381 -0.5291 -0.2381c -0.2910,-0.0000 -0.8731,0.4762 -1.5080 1.3757c -0.1852,0.2381 -0.3175,0.5820 -0.3175 0.9260v 5.8734 c 0.0000,0.7672 0.2646,1.1641 1.1376 1.1641h 0.7672 c 0.1323,-0.0000 0.2381,0.0794 0.2381 0.2117v 0.5027 l -0.0529,0.0529 c 0.0000,-0.0000 -2.0901,-0.0529 -3.1219 -0.0529c -0.9524,-0.0000 -2.7515,0.0529 -2.7515 0.0529l -0.0265,-0.0529 v -0.5027 c 0.0000,-0.1323 0.0529,-0.2117 0.1852 -0.2117h 0.5027 c 0.8995,-0.0000 1.1376,-0.3969 1.1376 -1.1641ZM 424.9691,23.6523 ZM 438.5679,21.7474 v -6.6671 h -8.6513 v 6.6671 c 0.0000,0.8202 0.3969,1.1641 1.4551 1.1641h 0.6879 c 0.1058,-0.0000 0.2117,0.0794 0.2117 0.2117v 0.5027 l -0.0529,0.0529 c 0.0000,-0.0000 -2.2753,-0.0529 -3.3335 -0.0529c -0.9260,-0.0000 -3.3865,0.0529 -3.3865 0.0529l -0.0529,-0.0529 v -0.5027 c 0.0000,-0.1323 0.0794,-0.2117 0.1852 -0.2117h 0.7143 c 1.0847,-0.0000 1.4287,-0.4233 1.4287 -1.1641v -13.2813 c 0.0000,-0.7937 -0.3969,-1.1641 -1.4287 -1.1641h -0.7143 c -0.1058,-0.0000 -0.2117,-0.0794 -0.2117 -0.2117v -0.5027 l 0.0529,-0.0265 c 0.0000,-0.0000 2.3017,0.0265 3.3335 0.0265c 0.9524,-0.0000 3.4129,-0.0265 3.4129 -0.0265l 0.0529,0.0265 v 0.5027 c 0.0000,0.1323 -0.0794,0.2117 -0.2117 0.2117h -0.6879 c -1.0847,-0.0000 -1.4551,0.4233 -1.4551 1.1641v 5.5824 h 8.6513 v -5.5824 c 0.0000,-0.7937 -0.3969,-1.1641 -1.4551 -1.1641h -0.6879 c -0.1323,-0.0000 -0.2381,-0.0794 -0.2381 -0.2117v -0.5027 l 0.0529,-0.0265 c 0.0000,-0.0000 2.3017,0.0265 3.3335 0.0265c 0.9524,-0.0000 3.4129,-0.0265 3.4129 -0.0265l 0.0529,0.0265 v 0.5027 c 0.0000,0.1323 -0.0794,0.2117 -0.2117 0.2117h -0.6879 c -1.0847,-0.0000 -1.4551,0.4233 -1.4551 1.1641v 13.2813 c 0.0000,0.8202 0.3969,1.1641 1.4551 1.1641h 0.6879 c 0.1323,-0.0000 0.2381,0.0794 0.2381 0.2117v 0.5027 l -0.0529,0.0529 c 0.0000,-0.0000 -2.3017,-0.0529 -3.3335 -0.0529c -0.9524,-0.0000 -3.4129,0.0529 -3.4129 0.0529l -0.0529,-0.0529 v -0.5027 c 0.0000,-0.1323 0.0794,-0.2117 0.2117 -0.2117h 0.6879 c 1.0847,-0.0000 1.4551,-0.4233 1.4551 -1.1641ZM 443.4888,23.6523 ZM 451.1877,17.1704 l -2.0901,0.5291 c -2.3282,0.7143 -2.6721,1.9313 -2.6721 3.1219c 0.0000,0.8202 0.3969,2.0636 2.0636 2.0636c 0.7937,-0.0000 2.0107,-0.7672 2.6986 -1.3493v -4.3654 ZM 451.1877,17.1704 ZM 452.8810,23.9698 c -1.0054,-0.0000 -1.5609,-0.8995 -1.6668 -1.5345l -0.6085,0.4233 c -1.2170,0.8466 -1.6668,1.1112 -2.8838 1.1112c -1.8520,-0.0000 -3.2013,-1.0583 -3.2013 -3.0425c 0.0000,-2.0107 1.7197,-3.3865 4.2331 -4.0214l 2.4340,-0.6085 c 0.0000,-2.9896 -1.3757,-3.5452 -2.2753 -3.5452c -1.0054,-0.0000 -2.1694,0.4498 -2.1694 1.2699c 0.0000,0.2910 0.0529,0.4498 0.0794 0.5291c 0.0529,0.1058 0.0794,0.2910 0.0794 0.4762c 0.0000,0.3439 -0.2646,0.8731 -1.0318 0.8731c -0.6350,-0.0000 -1.0583,-0.4233 -1.0583 -1.0583c 0.0000,-1.5345 2.4869,-2.8838 4.1802 -2.8838c 1.9313,-0.0000 4.1537,0.7937 4.1537 4.5506v 3.8891 c 0.0000,1.6139 0.0265,2.3017 0.6350 2.3017c 0.5820,-0.0000 0.7408,-0.7408 0.7672 -1.3228l 0.6614,0.1323 c -0.1587,1.9313 -0.9789,2.4605 -2.3282 2.4605ZM 455.4208,23.6523 ZM 456.5584,19.9483 l 0.7143,-0.0265 c 0.0794,0.6614 0.3704,1.9313 0.9524 2.5398c 0.2646,0.2910 0.9789,0.7672 1.9578 0.7672c 0.9260,-0.0000 2.3017,-0.7408 2.3017 -2.0372c 0.0000,-1.1376 -0.6350,-1.9049 -2.7250 -2.8044c -1.9313,-0.8466 -2.9367,-1.4022 -2.9367 -3.3865c 0.0000,-1.7726 1.5609,-3.0425 3.6510 -3.0425c 1.3228,-0.0000 2.3017,0.2381 3.1219 0.6614c 0.1587,0.8466 0.2381,1.7461 0.2910 2.6986l -0.7143,0.0265 c -0.5556,-2.1694 -2.1430,-2.5928 -2.6986 -2.5928c -1.0054,-0.0000 -2.0372,0.3969 -2.0372 1.8520c 0.0000,1.0583 0.5027,1.5874 1.9578 2.1165c 2.1430,0.7937 3.8627,1.7461 3.8627 3.8627c 0.0000,2.6192 -2.7780,3.3865 -4.0214 3.3865c -0.9260,-0.0000 -1.6932,-0.1058 -2.3811 -0.2910c -0.1852,-0.0265 -0.3175,-0.0529 -0.5027 -0.0529c -0.1323,-0.0000 -0.3439,0.0265 -0.6085 0.0794c 0.0000,-1.1112 -0.0794,-2.4605 -0.1852 -3.7569ZM 465.2362,23.6523 ZM 469.5487,18.0435 v 3.7039 c 0.0000,0.7672 0.2646,1.1641 1.1376 1.1641h 0.0529 c 0.1058,-0.0000 0.2117,0.0794 0.2117 0.2117v 0.5027 l -0.0529,0.0529 c 0.0000,-0.0000 -1.3493,-0.0529 -2.3811 -0.0529c -0.9524,-0.0000 -2.7250,0.0529 -2.7250 0.0529l -0.0529,-0.0529 v -0.5027 c 0.0000,-0.1323 0.0529,-0.2117 0.1852 -0.2117h 0.5027 c 0.8995,-0.0000 1.1376,-0.3969 1.1376 -1.1641v -13.2548 c 0.0000,-1.5080 -0.2381,-1.9313 -0.7672 -1.9313l -0.8731,0.1058 c -0.0794,-0.0000 -0.1323,-0.0529 -0.1323 -0.1323l -0.0529,-0.6614 c 0.4233,-0.0000 1.3757,-0.1587 1.8255 -0.2381c 0.4762,-0.1058 0.8731,-0.2117 1.4022 -0.4498h 0.5820 v 12.1965 c 0.6879,-0.1587 2.0372,-1.3493 3.4658 -2.9102c 0.4233,-0.4233 0.5291,-0.7672 0.5291 -1.0318c 0.0000,-0.2117 -0.1323,-0.4233 -0.7672 -0.4233h -0.1058 c -0.1323,-0.0000 -0.2117,-0.1058 -0.2117 -0.2117v -0.5027 l 0.0794,-0.0529 c 0.0000,-0.0000 1.2699,0.0529 2.1959 0.0529c 1.0318,-0.0000 2.4605,-0.0529 2.4605 -0.0529l 0.1058,0.0529 v 0.5027 c 0.0000,0.1323 -0.1587,0.2117 -0.2910 0.2117h -0.1852 c -0.7143,-0.0000 -1.8784,0.5820 -2.5398 1.2699l -2.0107,2.2224 c -0.0794,0.0794 -0.1058,0.1587 -0.1058 0.2646c 0.0000,0.1323 0.0529,0.2646 0.1323 0.3704l 3.0954,4.5770 c 0.4762,0.7143 1.3228,1.1906 1.9843 1.1906h 0.1852 c 0.1852,-0.0000 0.2381,0.0794 0.2381 0.2117v 0.5027 l -0.0529,0.0529 c 0.0000,-0.0000 -1.3493,-0.0529 -2.3811 -0.0529c -0.9260,-0.0000 -1.6403,0.0529 -1.6403 0.0529l -0.0794,-0.0529 v -0.5027 c 0.0000,-0.3439 -0.0794,-0.6350 -0.6085 -1.4022l -1.9313,-2.7250 c -0.5291,-0.7672 -0.8995,-0.9524 -1.5609 -0.9524ZM 477.9090,23.6523 ZM 480.9251,16.3238 h 4.8680 c 0.2646,-0.0000 0.3704,-0.1323 0.3704 -0.3704c 0.0000,-2.4605 -1.2435,-3.0954 -2.1959 -3.0954c -0.6085,-0.0000 -2.5928,0.2381 -3.0425 3.4658ZM 480.9251,16.3238 ZM 487.9096,21.1918 l 0.5291,0.4233 c -1.0054,1.3757 -2.5663,2.3546 -4.4712 2.3546c -3.6246,-0.0000 -5.1591,-2.6986 -5.1591 -5.5824c 0.0000,-4.0214 2.6457,-6.4290 5.1591 -6.4290c 3.4923,-0.0000 4.3124,2.7250 4.3124 4.9474c 0.0000,0.2910 -0.1852,0.4498 -0.4762 0.4498h -6.9581 c -0.0265,0.1587 -0.0265,0.3175 -0.0265 0.5291c 0.0000,2.6986 1.8784,4.7887 3.7833 4.7887c 1.4551,-0.0000 2.3811,-0.4762 3.3071 -1.4816ZM 489.2325,23.6523 ZM 491.7458,21.7474 v -13.2548 c 0.0000,-1.5080 -0.2646,-1.9313 -0.7937 -1.9313l -0.8466,0.1058 c -0.0794,-0.0000 -0.1587,-0.0529 -0.1587 -0.1323l -0.0529,-0.6614 c 0.4233,-0.0000 1.4022,-0.1587 1.8520 -0.2381c 0.4762,-0.1058 0.8466,-0.2117 1.3757 -0.4498h 0.5820 v 16.5619 c 0.0000,0.7672 0.2910,1.1641 1.1376 1.1641h 0.6350 c 0.1058,-0.0000 0.2117,0.0794 0.2117 0.2117v 0.5027 l -0.0529,0.0529 c 0.0000,-0.0000 -1.9313,-0.0529 -2.9631 -0.0529c -0.9260,-0.0000 -2.8573,0.0529 -2.8573 0.0529l -0.0265,-0.0529 v -0.5027 c 0.0000,-0.1323 0.0529,-0.2117 0.1852 -0.2117h 0.6350 c 0.8731,-0.0000 1.1376,-0.3969 1.1376 -1.1641ZM 496.1112,23.6523 ZM 498.6246,21.7474 v -13.2548 c 0.0000,-1.5080 -0.2646,-1.9313 -0.7937 -1.9313l -0.8466,0.1058 c -0.0794,-0.0000 -0.1587,-0.0529 -0.1587 -0.1323l -0.0529,-0.6614 c 0.4233,-0.0000 1.4022,-0.1587 1.8520 -0.2381c 0.4762,-0.1058 0.8466,-0.2117 1.3757 -0.4498h 0.5820 v 16.5619 c 0.0000,0.7672 0.2910,1.1641 1.1376 1.1641h 0.6350 c 0.1058,-0.0000 0.2117,0.0794 0.2117 0.2117v 0.5027 l -0.0529,0.0529 c 0.0000,-0.0000 -1.9313,-0.0529 -2.9631 -0.0529c -0.9260,-0.0000 -2.8573,0.0529 -2.8573 0.0529l -0.0265,-0.0529 v -0.5027 c 0.0000,-0.1323 0.0529,-0.2117 0.1852 -0.2117h 0.6350 c 0.8731,-0.0000 1.1376,-0.3969 1.1376 -1.1641ZM 502.9899,23.6523 ZM 505.5562,8.5191 c 0.0000,0.3969 0.0529,0.5556 0.1587 0.6879c 0.1058,0.1323 0.1587,0.2910 0.1587 0.6350c 0.0000,0.6085 -0.5291,0.9260 -1.0318 0.9260c -0.4233,-0.0000 -1.0847,-0.2117 -1.0847 -1.1376c 0.0000,-1.0054 0.5556,-1.7461 1.3493 -2.3811c 0.7672,-0.6614 1.8784,-1.0318 3.2806 -1.0318c 2.6986,-0.0000 4.3654,1.5874 4.3654 3.9950c 0.0000,2.0901 -1.5609,3.2542 -2.8044 4.1537c -0.6085,0.4498 -1.1376,0.8731 -1.3757 1.3228c -0.3439,0.6614 -0.4762,1.2964 -0.4762 1.9313v 1.1641 c 0.0000,0.1852 -0.1323,0.2646 -0.3439 0.2646c -0.2117,-0.0000 -0.3439,-0.0794 -0.3439 -0.2646v -1.2170 c 0.0000,-1.1376 0.0529,-2.6986 1.7726 -4.2595c 1.0583,-0.9789 1.5874,-1.7461 1.5874 -2.9896c 0.0000,-1.7197 -1.1376,-3.3071 -2.6457 -3.3071c -1.5080,-0.0000 -2.5663,0.7143 -2.5663 1.5080ZM 505.5562,8.5191 ZM 506.3499,22.5676 c 0.0000,-0.7672 0.6350,-1.4022 1.4022 -1.4022c 0.7672,-0.0000 1.4022,0.6350 1.4022 1.4022c 0.0000,0.7672 -0.6350,1.4022 -1.4022 1.4022c -0.7672,-0.0000 -1.4022,-0.6350 -1.4022 -1.4022Z"/>
  </g>
  <g stroke-linejoin="miter" stroke-opacity="0.0" fill-opacity="0.1" stroke="rgb(0,0,0)" stroke-width="0.0" fill="rgb(0,0,0)" stroke-linecap="butt" stroke-miterlimit="10.0">
    <path d="M 514.8955,324.5707 l -0.0000,-5.3178 h -398.8347 l -0.0000,5.3178 Z"/>
  </g>
  <g stroke-linejoin="miter" stroke-opacity="1.0" fill-opacity="0.6" stroke="rgb(0,0,0)" fill-rule="evenodd" stroke-width="0.0" fill="rgb(0,0,0)" stroke-linecap="butt" stroke-miterlimit="10.0">
    <path d="M 489.9683,342.3678 ZM 501.9163,338.7510 c -1.1973,-1.1973 -3.6542,-1.4841 -6.2733 1.1349c -2.3946,2.3946 -2.3073,5.3005 -0.8107 6.7971c 1.4218,1.4218 3.8787,1.1599 6.1112 -1.0726c 2.5941,-2.5941 2.7313,-5.1010 0.9728 -6.8595ZM 501.9163,338.7510 ZM 502.3278,346.5209 c -2.4944,2.4944 -5.7869,2.7189 -8.1690 0.3367c -2.1452,-2.1452 -2.3198,-5.4377 0.1372 -7.8947c 2.4445,-2.4445 5.9740,-2.7064 8.2064 -0.4739c 2.2449,2.2449 2.2948,5.5624 -0.1746 8.0318ZM 498.6736,351.0731 ZM 505.5955,348.2420 l -3.1928,3.1928 c -0.7733,0.7733 -1.0726,1.2222 -0.7358 1.5590c 0.3243,0.3243 0.6735,0.4739 1.2472 0.5488l 0.0125,0.4365 c -1.0352,0.0624 -1.8084,-0.1621 -2.3821 -0.7358c -0.5737,-0.5737 -0.5612,-1.2597 0.3243 -2.1452l 3.7914,-3.7914 l -0.8107,-0.8107 c -0.0374,-0.0374 -0.0374,-0.0624 -0.0000 -0.0998l 0.3866,-0.3866 c 0.0374,-0.0374 0.0624,-0.0374 0.0873 -0.0125c 0.8356,0.8356 1.5216,0.5488 2.4694 -0.3991l 0.2370,-0.2370 l 0.9728,0.4739 l -1.9207,1.9207 l 1.3719,1.3719 c 0.0624,0.0624 0.0748,0.1247 0.0249 0.1746l -0.2494,0.2494 c -0.1122,0.1122 -0.3367,-0.0125 -0.4615 -0.1372l -1.1723,-1.1723 ZM 502.4401,354.8396 ZM 513.1783,348.1672 l -4.2279,4.2279 c 1.6712,-0.0000 2.6066,0.5363 3.0930 1.0227c 0.8980,0.8980 0.6610,2.0329 -0.6236 3.3175l -2.6440,2.6440 c -0.3617,0.3617 -0.4240,0.6735 -0.0125 1.0850l 0.2370,0.2370 c 0.0499,0.0499 0.0624,0.1372 0.0000 0.1995l -0.2370,0.2370 l -0.0499,0.0000 c 0.0000,-0.0000 -0.8231,-0.8730 -1.3220 -1.3719c -0.4365,-0.4365 -1.3095,-1.2597 -1.3095 -1.2597l -0.0000,-0.0499 l 0.2370,-0.2370 c 0.0624,-0.0624 0.1372,-0.0624 0.1995 -0.0000l 0.2370,0.2370 c 0.4240,0.4240 0.7234,0.3492 1.0850 -0.0125l 2.7812,-2.7812 c 1.0102,-1.0102 0.9728,-1.5216 0.2744 -2.2200c -0.3617,-0.3617 -1.2222,-0.5737 -2.4071 -0.5862l -3.1180,3.1180 c -0.3617,0.3617 -0.4240,0.6735 -0.0125 1.0850l 0.2370,0.2370 c 0.0499,0.0499 0.0624,0.1372 0.0000 0.1995l -0.2370,0.2370 l -0.0499,0.0000 c 0.0000,-0.0000 -0.8231,-0.8730 -1.3095 -1.3594c -0.4490,-0.4490 -1.3095,-1.2597 -1.3095 -1.2597l -0.0000,-0.0499 l 0.2370,-0.2370 c 0.0624,-0.0624 0.1247,-0.0748 0.1871 -0.0125l 0.2370,0.2370 c 0.4240,0.4240 0.7234,0.3492 1.0850 -0.0125l 6.2484,-6.2484 c 0.7109,-0.7109 0.7982,-1.0227 0.5488 -1.2721l -0.4615,-0.3617 c -0.0374,-0.0374 -0.0374,-0.0873 -0.0000 -0.1247l 0.2869,-0.3367 c 0.1995,0.1995 0.7234,0.5737 0.9728 0.7483c 0.2744,0.1746 0.5113,0.3118 0.8730 0.4490l 0.2744,0.2744 ZM 508.9005,361.3000 ZM 513.7770,359.2671 l 2.2948,2.2948 c 0.1247,0.1247 0.2370,0.1122 0.3492 -0.0000c 1.1599,-1.1599 0.8730,-2.0454 0.4240 -2.4944c -0.2869,-0.2869 -1.3345,-1.1100 -3.0681 0.1995ZM 513.7770,359.2671 ZM 514.7747,364.8545 l 0.0499,0.4490 c -1.1225,0.1746 -2.3198,-0.0998 -3.2177 -0.9977c -1.7086,-1.7086 -1.1599,-3.7041 0.1995 -5.0636c 1.8957,-1.8957 4.2778,-1.7835 5.4627 -0.5986c 1.6463,1.6463 0.7483,3.3175 -0.2993 4.3651c -0.1372,0.1372 -0.2993,0.1247 -0.4365 -0.0125l -3.2801,-3.2801 c -0.0873,0.0624 -0.1621,0.1372 -0.2619 0.2370c -1.2721,1.2721 -1.3719,3.1429 -0.4739 4.0409c 0.6859,0.6859 1.3470,0.8980 2.2574 0.8606ZM 514.2384,366.6379 ZM 516.2464,366.8499 l 3.1055,-3.1055 c 0.6236,-0.6236 0.6735,-0.8481 0.4864 -1.0352c -0.1621,-0.1621 -0.3243,-0.2993 -0.5862 -0.4615l 0.2869,-0.4116 c 0.9229,0.6485 1.0975,0.7483 1.6588 0.9354c 0.1871,0.0624 0.3243,0.1247 0.4116 0.2120l 0.1871,0.1871 l -1.1599,1.0850 l 0.0374,0.0374 c 0.8107,-0.1621 1.9955,-0.2494 2.5817 0.3367c 0.5113,0.5113 0.4490,0.9479 0.1247 1.2721c -0.3243,0.3243 -0.7358,0.3118 -1.0601 -0.0125c -0.2494,-0.2494 -0.2869,-0.4864 -0.2869 -0.7358c -0.0000,-0.1497 -0.0499,-0.2744 -0.1372 -0.3617c -0.1372,-0.1372 -0.6361,-0.1871 -1.3594 -0.0624c -0.1995,0.0249 -0.4240,0.1247 -0.5862 0.2869l -2.7687,2.7687 c -0.3617,0.3617 -0.4240,0.6735 -0.0125 1.0850l 0.3617,0.3617 c 0.0624,0.0624 0.0748,0.1497 0.0125 0.2120l -0.2370,0.2370 l -0.0499,0.0000 c 0.0000,-0.0000 -0.9603,-1.0102 -1.4467 -1.4966c -0.4490,-0.4490 -1.3220,-1.2721 -1.3220 -1.2721l 0.0125,-0.0374 l 0.2370,-0.2370 c 0.0624,-0.0624 0.1247,-0.0748 0.1871 -0.0125l 0.2370,0.2370 c 0.4240,0.4240 0.7234,0.3492 1.0850 -0.0125Z"/>
  </g>
  <g stroke-linejoin="miter" stroke-opacity="0.6" fill-opacity="0.0" stroke="rgb(0,0,0)" stroke-width="2.1434361802744433" fill="rgb(0,0,0)" stroke-linecap="butt" stroke-miterlimit="10.0">
    <path d="M 489.9683,319.2529 v 7.9767 "/>
  </g>
  <g stroke-linejoin="miter" stroke-opacity="1.0" fill-opacity="0.6" stroke="rgb(0,0,0)" fill-rule="evenodd" stroke-width="0.0" fill="rgb(0,0,0)" stroke-linecap="butt" stroke-miterlimit="10.0">
    <path d="M 440.1140,342.3678 ZM 453.3590,341.2952 c 0.2120,-0.0873 0.3367,-0.1621 0.4240 -0.2494c 0.1871,-0.1871 -0.0499,-0.4739 -0.4739 -0.8980l -0.2245,-0.2245 c -0.0499,-0.0499 -0.0624,-0.1372 -0.0000 -0.1995l 0.2370,-0.2370 l 0.0374,0.0125 c 0.0000,-0.0000 0.8980,0.9229 1.3844 1.4093c 0.4365,0.4365 1.0975,1.0726 1.0975 1.0726l 0.0125,0.0374 l -0.2370,0.2370 c -0.0624,0.0624 -0.1372,0.0624 -0.1995 0.0000c -0.5113,-0.5113 -0.8606,-0.6361 -1.4592 -0.3617l -9.6407,4.4025 c -0.2619,0.1122 -0.4615,0.1122 -0.5986 -0.0249c -0.1247,-0.1247 -0.1247,-0.3243 -0.0000 -0.5737l 4.5397,-9.4536 c 0.3243,-0.6735 0.0748,-1.0726 -0.3367 -1.4841c -0.0499,-0.0499 -0.0624,-0.1372 -0.0000 -0.1995l 0.2370,-0.2370 l 0.0374,0.0125 c 0.0000,-0.0000 0.9603,0.9853 1.4467 1.4717c 0.4365,0.4365 1.5590,1.5340 1.5590 1.5340l 0.0125,0.0374 l -0.2370,0.2370 c -0.0624,0.0624 -0.1372,0.0624 -0.1995 0.0000l -0.3367,-0.3367 c -0.4490,-0.4490 -0.7234,-0.4739 -0.9229 -0.2744c -0.0748,0.0748 -0.1247,0.1746 -0.1995 0.2993l -2.8810,5.9989 l -0.6984,1.4717 l 1.4343,-0.6610 ZM 447.8091,350.0629 ZM 460.4430,346.9574 c -0.6111,0.7109 -1.1349,1.4343 -1.6338 2.1576l -0.4365,-0.3118 c 0.5862,-1.0601 1.2846,-2.4569 0.0499 -3.6917c -0.8231,-0.8231 -2.0080,-0.7358 -2.7687 0.0249c -1.0352,1.0352 -0.2744,2.7438 0.0624 3.4547c 0.6735,1.4218 1.3220,3.0930 -0.1871 4.6021c -1.2721,1.2721 -3.4796,1.4093 -4.9139 -0.0249c -1.2222,-1.2222 -1.2098,-1.6338 -1.5091 -1.9331c -0.2494,-0.2494 -0.4240,-0.2993 -0.6361 -0.5113c 0.6111,-0.6610 1.1225,-1.3470 1.9456 -2.4195l 0.4116,0.3367 c -0.8855,1.3844 -1.0850,2.7563 0.0249 3.8663c 0.9479,0.9479 2.2200,1.1225 3.2302 0.1122c 1.1349,-1.1349 0.8481,-2.0953 0.3866 -3.1554c -0.5612,-1.2347 -1.4717,-3.3923 -0.0125 -4.8515c 1.3220,-1.3220 3.4173,-0.8980 4.5023 0.1871c 1.1599,1.1599 0.8980,1.3719 1.4841 2.1576Z"/>
  </g>
  <g stroke-linejoin="miter" stroke-opacity="0.6" fill-opacity="0.0" stroke="rgb(0,0,0)" stroke-width="2.1434361802744433" fill="rgb(0,0,0)" stroke-linecap="butt" stroke-miterlimit="10.0">
    <path d="M 440.1140,319.2529 v 7.9767 "/>
  </g>
  <g stroke-linejoin="miter" stroke-opacity="1.0" fill-opacity="0.6" stroke="rgb(0,0,0)" fill-rule="evenodd" stroke-width="0.0" fill="rgb(0,0,0)" stroke-linecap="butt" stroke-miterlimit="10.0">
    <path d="M 390.2596,342.3678 ZM 404.7269,342.9415 l -6.6849,6.6849 c -0.2370,0.2370 -0.4490,0.2744 -0.6236 0.0998c -0.1871,-0.2120 -0.2744,-0.4490 -0.2245 -0.7733l 1.1474,-9.8527 c 0.0624,-0.4864 0.0624,-0.7608 -0.0125 -0.8356c -0.0998,-0.0998 -0.3118,0.0624 -0.7358 0.4864l -4.3776,4.3776 c -0.3742,0.3742 -0.5612,0.9354 -0.0624 1.4343l 0.3243,0.3243 c 0.0499,0.0499 0.0624,0.1372 0.0000 0.1995l -0.2370,0.2370 l -0.0499,0.0000 c 0.0000,-0.0000 -0.8606,-0.9104 -1.3594 -1.4093c -0.4365,-0.4365 -1.3594,-1.3095 -1.3594 -1.3095l -0.0624,-0.1122 l 0.2245,-0.2245 c 0.0624,-0.0624 0.2120,-0.0125 0.2744 0.0499l 0.3243,0.3243 c 0.5113,0.5113 1.0850,0.2619 1.4218 -0.0748l 5.7620,-5.7620 c 0.2494,-0.3991 0.4116,-1.2846 -0.0000 -1.6962c -0.0998,-0.0998 -0.1995,-0.2245 -0.1122 -0.3118l 0.1995,-0.1995 l 0.0748,-0.0249 l 1.6338,1.6338 l -1.1474,9.8527 c -0.0998,0.8231 -0.2869,1.3345 -0.1871 1.4343c 0.0873,0.0873 0.3243,-0.1497 0.5612 -0.3866l 4.7268,-4.7268 c 0.3367,-0.3367 0.5986,-0.9229 0.0873 -1.4343l -0.3243,-0.3243 c -0.0624,-0.0624 -0.1372,-0.2120 -0.0748 -0.2744l 0.2370,-0.2370 l 0.0748,0.0499 c 0.0000,-0.0000 0.9104,0.9354 1.3594 1.3844c 0.4864,0.4864 1.3968,1.3719 1.3968 1.3719l 0.0125,0.0374 l -0.2370,0.2370 c -0.0624,0.0624 -0.1497,0.0499 -0.1995 0.0000l -0.3367,-0.3367 c -0.4864,-0.4864 -1.0601,-0.2869 -1.4343 0.0873ZM 398.6282,350.7364 ZM 401.6090,348.6037 c 1.7086,-1.7086 3.8787,-2.0329 5.5375 -0.3742c 1.8458,1.8458 1.0102,4.1032 -0.2869 5.4003c -1.2472,1.2472 -3.6293,2.0080 -5.4003 0.2370c -1.6712,-1.6712 -1.1225,-3.9910 0.1497 -5.2631ZM 401.6090,348.6037 ZM 406.5977,348.5039 c -0.9977,-0.9977 -2.6316,-0.2869 -3.7166 0.7982c -0.9603,0.9603 -2.0080,3.1055 -0.7733 4.3402c 0.5612,0.5612 1.7211,1.0476 3.3674 -0.5986c 1.8334,-1.8334 2.1452,-3.5170 1.1225 -4.5397ZM 404.6022,356.7104 ZM 411.5240,353.8793 l -3.1928,3.1928 c -0.7733,0.7733 -1.0726,1.2222 -0.7358 1.5590c 0.3243,0.3243 0.6735,0.4739 1.2472 0.5488l 0.0125,0.4365 c -1.0352,0.0624 -1.8084,-0.1621 -2.3821 -0.7358c -0.5737,-0.5737 -0.5612,-1.2597 0.3243 -2.1452l 3.7914,-3.7914 l -0.8107,-0.8107 c -0.0374,-0.0374 -0.0374,-0.0624 -0.0000 -0.0998l 0.3866,-0.3866 c 0.0374,-0.0374 0.0624,-0.0374 0.0873 -0.0125c 0.8356,0.8356 1.5216,0.5488 2.4694 -0.3991l 0.2370,-0.2370 l 0.9728,0.4739 l -1.9207,1.9207 l 1.3719,1.3719 c 0.0624,0.0624 0.0748,0.1247 0.0249 0.1746l -0.2494,0.2494 c -0.1122,0.1122 -0.3367,-0.0125 -0.4615 -0.1372l -1.1723,-1.1723 ZM 408.3687,360.4768 ZM 413.2452,358.4439 l 2.2948,2.2948 c 0.1247,0.1247 0.2370,0.1122 0.3492 -0.0000c 1.1599,-1.1599 0.8730,-2.0454 0.4240 -2.4944c -0.2869,-0.2869 -1.3345,-1.1100 -3.0681 0.1995ZM 413.2452,358.4439 ZM 414.2429,364.0313 l 0.0499,0.4490 c -1.1225,0.1746 -2.3198,-0.0998 -3.2177 -0.9977c -1.7086,-1.7086 -1.1599,-3.7041 0.1995 -5.0636c 1.8957,-1.8957 4.2778,-1.7835 5.4627 -0.5986c 1.6463,1.6463 0.7483,3.3175 -0.2993 4.3651c -0.1372,0.1372 -0.2993,0.1247 -0.4365 -0.0125l -3.2801,-3.2801 c -0.0873,0.0624 -0.1621,0.1372 -0.2619 0.2370c -1.2721,1.2721 -1.3719,3.1429 -0.4739 4.0409c 0.6859,0.6859 1.3470,0.8980 2.2574 0.8606ZM 413.7066,365.8148 ZM 419.4811,363.7569 l -3.1055,3.1055 c -0.0748,0.9479 0.3118,1.3844 0.5113 1.5839c 1.3345,1.3345 2.8810,0.3866 3.9536 -0.6859c 1.5091,-1.5091 1.7336,-2.9558 0.9728 -3.7166c -0.4240,-0.4240 -1.3968,-0.6735 -2.3322 -0.2869ZM 419.4811,363.7569 ZM 412.6715,368.7207 l 6.1735,-6.1735 c 0.4739,-0.4739 0.4490,-0.6735 0.2744 -0.8481c -0.1621,-0.1621 -0.3243,-0.2993 -0.5862 -0.4615l 0.2869,-0.4116 c 0.9354,0.6610 1.1349,0.7608 1.6588 0.9354c 0.1995,0.0748 0.3243,0.1247 0.4116 0.2120l 0.1871,0.1871 l -1.0352,0.9603 l 0.0374,0.0374 c 1.4467,-0.2993 2.2449,0.2494 2.6440 0.6485c 1.2098,1.2098 0.7483,3.2676 -0.5737 4.5896c -1.0102,1.0102 -2.0953,1.4717 -3.2302 1.4841c -0.9728,0.0000 -1.7211,-0.2744 -2.3821 -0.9354c -0.4490,-0.4490 -0.6984,-0.8980 -0.8481 -1.3968l -2.0953,2.0953 c -0.3617,0.3617 -0.4116,0.6859 -0.0125 1.0850l 0.2370,0.2370 c 0.0624,0.0624 0.0748,0.1497 0.0125 0.2120l -0.2370,0.2370 l -0.0499,0.0000 c 0.0000,-0.0000 -0.8356,-0.8855 -1.3220 -1.3719c -0.4365,-0.4365 -1.3095,-1.2597 -1.3095 -1.2597l -0.0000,-0.0499 l 0.2370,-0.2370 c 0.0624,-0.0624 0.1372,-0.0624 0.1995 -0.0000l 0.2370,0.2370 c 0.4116,0.4116 0.7234,0.3492 1.0850 -0.0125ZM 419.0695,371.1777 ZM 425.7544,371.7514 l -1.2347,-0.7358 c -1.4343,-0.7608 -2.1701,-0.3492 -2.7313 0.2120c -0.3866,0.3866 -0.7857,1.1599 0.0000 1.9456c 0.3742,0.3742 1.3095,0.5862 1.9082 0.6361l 2.0578,-2.0578 ZM 425.7544,371.7514 ZM 423.3473,375.7548 c -0.4739,-0.4739 -0.3118,-1.1599 -0.0624 -1.5091l -0.4864,-0.0873 c -0.9728,-0.1746 -1.3095,-0.2619 -1.8832 -0.8356c -0.8730,-0.8730 -1.0102,-2.0080 -0.0748 -2.9433c 0.9479,-0.9479 2.4071,-0.7857 3.8912 0.0998l 1.4343,0.8606 c 1.4093,-1.4093 1.0227,-2.3198 0.5986 -2.7438c -0.4739,-0.4739 -1.2347,-0.8107 -1.6213 -0.4240c -0.1372,0.1372 -0.1871,0.2370 -0.2120 0.2869c -0.0249,0.0748 -0.0998,0.1746 -0.1871 0.2619c -0.1621,0.1621 -0.5363,0.2869 -0.8980 -0.0748c -0.2993,-0.2993 -0.2993,-0.6984 -0.0000 -0.9977c 0.7234,-0.7234 2.5318,-0.1871 3.3300 0.6111c 0.9104,0.9104 1.5839,2.3322 -0.1871 4.1032l -1.8334,1.8334 c -0.7608,0.7608 -1.0726,1.0975 -0.7857 1.3844c 0.2744,0.2744 0.6984,-0.0000 0.9853 -0.2619l 0.2494,0.3742 c -0.9853,0.8356 -1.6213,0.6984 -2.2574 0.0624ZM 424.6943,376.8024 ZM 429.9698,379.8580 l 3.2302,-3.2302 c 0.1746,-0.7733 0.0998,-1.3719 -0.4864 -1.9581c -0.2494,-0.2494 -0.7982,-0.7234 -1.7835 -0.5363c -0.4365,0.0873 -1.1848,0.4116 -2.0828 1.3095c -1.6338,1.6338 -1.5340,3.2302 -0.8606 3.9037c 0.4116,0.4116 0.9977,0.4989 1.9830 0.5113ZM 429.9698,379.8580 ZM 438.5006,373.1981 l -7.2087,7.2087 c -0.3742,0.3742 -0.5488,0.5986 -0.6111 0.7109c -0.0748,0.1497 -0.0125,0.3617 0.0873 0.4615c 0.1497,0.1497 0.4240,0.4240 0.6485 0.5737l -0.2993,0.3991 c -0.8481,-0.5986 -1.6338,-1.1100 -2.1202 -1.1474l -0.2993,-0.2993 l 0.8980,-0.8231 c -0.9603,0.0125 -1.8209,-0.0998 -2.4569 -0.7358c -1.3470,-1.3470 -1.0227,-3.3175 0.5113 -4.8515c 0.9229,-0.9229 1.9456,-1.4467 3.0182 -1.4467c 0.9728,0.0249 1.7959,0.2993 2.6191 1.1225c 0.2494,0.2494 0.6859,0.9104 0.8107 1.3594l 1.9082,-1.9082 c 0.7109,-0.7109 0.7982,-1.0227 0.5488 -1.2721l -0.4615,-0.3617 c -0.0249,-0.0249 -0.0374,-0.0873 -0.0000 -0.1247l 0.2869,-0.3367 c 0.1995,0.1995 0.7234,0.5737 0.9728 0.7483c 0.2869,0.1871 0.5113,0.3118 0.8730 0.4490l 0.2744,0.2744 ZM 430.8553,382.9635 ZM 437.6525,383.3751 l 2.1452,2.1452 l -0.6111,0.6111 l -2.1452,-2.1452 l -2.1576,2.1576 l -0.6236,-0.6236 l 2.1576,-2.1576 l -2.1576,-2.1576 l 0.6111,-0.6111 l 2.1576,2.1576 l 2.1701,-2.1701 l 0.6236,0.6236 l -2.1701,2.1701 ZM 437.4280,389.5362 ZM 444.2251,389.9477 l 2.1452,2.1452 l -0.6111,0.6111 l -2.1452,-2.1452 l -2.1576,2.1576 l -0.6236,-0.6236 l 2.1576,-2.1576 l -2.1576,-2.1576 l 0.6111,-0.6111 l 2.1576,2.1576 l 2.1701,-2.1701 l 0.6236,0.6236 l -2.1701,2.1701 Z"/>
  </g>
  <g stroke-linejoin="miter" stroke-opacity="0.6" fill-opacity="0.0" stroke="rgb(0,0,0)" stroke-width="2.1434361802744433" fill="rgb(0,0,0)" stroke-linecap="butt" stroke-miterlimit="10.0">
    <path d="M 390.2596,319.2529 v 7.9767 "/>
  </g>
  <g stroke-linejoin="miter" stroke-opacity="1.0" fill-opacity="0.6" stroke="rgb(0,0,0)" fill-rule="evenodd" stroke-width="0.0" fill="rgb(0,0,0)" stroke-linecap="butt" stroke-miterlimit="10.0">
    <path d="M 340.4053,342.3678 ZM 353.0392,339.2623 c -0.6111,0.7109 -1.1349,1.4343 -1.6338 2.1576l -0.4365,-0.3118 c 0.5862,-1.0601 1.2846,-2.4569 0.0499 -3.6917c -0.8231,-0.8231 -2.0080,-0.7358 -2.7687 0.0249c -1.0352,1.0352 -0.2744,2.7438 0.0624 3.4547c 0.6735,1.4218 1.3220,3.0930 -0.1871 4.6021c -1.2721,1.2721 -3.4796,1.4093 -4.9139 -0.0249c -1.2222,-1.2222 -1.2098,-1.6338 -1.5091 -1.9331c -0.2494,-0.2494 -0.4240,-0.2993 -0.6361 -0.5113c 0.6111,-0.6610 1.1225,-1.3470 1.9456 -2.4195l 0.4116,0.3367 c -0.8855,1.3844 -1.0850,2.7563 0.0249 3.8663c 0.9479,0.9479 2.2200,1.1225 3.2302 0.1122c 1.1349,-1.1349 0.8481,-2.0953 0.3866 -3.1554c -0.5612,-1.2347 -1.4717,-3.3923 -0.0125 -4.8515c 1.3220,-1.3220 3.4173,-0.8980 4.5023 0.1871c 1.1599,1.1599 0.8980,1.3719 1.4841 2.1576ZM 346.3294,348.2919 ZM 353.1265,352.1956 c -0.6236,0.6236 -0.7608,0.8855 -0.5113 1.1349c 0.1497,0.1497 0.4490,0.3991 0.6984 0.5737l -0.2993,0.3991 c -0.8980,-0.6236 -1.6338,-1.1100 -2.1452 -1.1723l -0.2744,-0.2744 l 0.9603,-0.8855 l -0.0374,-0.0374 c -1.4343,0.0624 -2.1701,-0.3243 -2.6814 -0.8356c -1.2347,-1.2347 -0.7234,-2.3946 0.1372 -3.2551l 2.8436,-2.8436 c 0.4116,-0.4116 0.5363,-0.7109 0.0748 -1.1723c -0.0499,-0.0499 -0.1497,-0.1247 -0.2245 -0.1995l -0.0249,-0.0499 l 0.3243,-0.3243 l 0.0748,-0.0000 c 0.0000,-0.0000 0.8231,0.8730 1.2222 1.2721c 0.1746,0.1746 0.4864,0.4365 0.4864 0.4365l -1.0102,0.9853 l -2.6565,2.6565 c -1.1100,1.1100 -0.7358,1.8832 -0.3617 2.2574c 0.2869,0.2869 0.6610,0.4365 1.1100 0.5113c 0.5238,0.0748 0.8980,0.0998 1.1848 0.0624l 3.0805,-3.0805 c 0.4490,-0.4490 0.5986,-0.7234 0.1372 -1.1848c -0.0748,-0.0748 -0.2245,-0.1995 -0.2619 -0.2370l -0.0000,-0.0499 l 0.3118,-0.3118 l 0.0624,-0.0125 c 0.0000,-0.0000 0.8606,0.9104 1.2098 1.2597c 0.2869,0.2869 0.5113,0.4615 0.5113 0.4615l -0.9977,0.9728 l -2.9433,2.9433 ZM 352.7773,354.7398 ZM 355.3216,355.9122 c -0.0499,0.5488 0.1122,0.9104 0.4989 1.2971c 1.1848,1.1848 2.8810,0.6859 4.3028 -0.7358c 1.2721,-1.2721 1.5340,-2.8311 0.7733 -3.5919c -0.1372,-0.1372 -0.8107,-0.7608 -1.8084 -0.7358l -3.7665,3.7665 ZM 355.3216,355.9122 ZM 360.8466,348.5164 c 0.7109,-0.7109 0.7857,-1.0352 0.5363 -1.2846l -0.4490,-0.3492 c -0.0374,-0.0374 -0.0374,-0.0873 -0.0000 -0.1247l 0.2869,-0.3367 c 0.1995,0.1995 0.7234,0.5737 0.9728 0.7483c 0.2744,0.1746 0.5113,0.3118 0.8730 0.4490l 0.2744,0.2744 l -3.8663,3.8663 c 0.8855,-0.0374 1.6089,0.2370 2.2075 0.8356c 1.0850,1.0850 1.0850,3.1554 -0.4365 4.6769c -1.9830,1.9830 -4.5023,1.7086 -5.7744 0.4365c -0.5363,-0.5363 -0.7857,-1.0850 -0.8356 -1.7585c -0.2619,0.0374 -0.6111,0.0624 -0.8481 0.0748l -0.1995,-0.3243 c 0.3367,-0.2619 0.5363,-0.4615 1.0227 -0.9479l 6.2359,-6.2359 ZM 358.6515,360.6140 ZM 360.7343,360.9009 l 6.2484,-6.2484 c 0.7109,-0.7109 0.7857,-1.0352 0.5363 -1.2846l -0.4490,-0.3492 c -0.0374,-0.0374 -0.0499,-0.0998 -0.0125 -0.1372l 0.2869,-0.3367 c 0.1995,0.1995 0.7358,0.5862 0.9853 0.7608c 0.2744,0.1746 0.4989,0.2993 0.8606 0.4365l 0.2744,0.2744 l -7.8074,7.8074 c -0.3617,0.3617 -0.4116,0.6859 -0.0125 1.0850l 0.2993,0.2993 c 0.0499,0.0499 0.0624,0.1372 0.0000 0.1995l -0.2370,0.2370 l -0.0499,0.0000 c 0.0000,-0.0000 -0.8855,-0.9354 -1.3719 -1.4218c -0.4365,-0.4365 -1.3719,-1.3220 -1.3719 -1.3220l 0.0125,-0.0374 l 0.2370,-0.2370 c 0.0624,-0.0624 0.1247,-0.0748 0.1871 -0.0125l 0.2993,0.2993 c 0.4116,0.4116 0.7234,0.3492 1.0850 -0.0125ZM 361.8942,363.8567 ZM 369.9884,357.7081 c 0.3243,-0.3243 0.8606,-0.3367 1.1848 -0.0125c 0.3367,0.3367 0.3243,0.8730 0.0000 1.1973c -0.3367,0.3367 -0.8606,0.3367 -1.1973 0.0000c -0.3243,-0.3243 -0.3243,-0.8481 0.0125 -1.1848ZM 369.9884,357.7081 ZM 364.9498,365.1164 c -0.3617,0.3617 -0.4116,0.6859 -0.0125 1.0850l 0.2370,0.2370 c 0.0624,0.0624 0.0748,0.1497 0.0125 0.2120l -0.2370,0.2370 l -0.0499,0.0000 c 0.0000,-0.0000 -0.8356,-0.8855 -1.3220 -1.3719c -0.4365,-0.4365 -1.3095,-1.2597 -1.3095 -1.2597l -0.0000,-0.0499 l 0.2370,-0.2370 c 0.0624,-0.0624 0.1372,-0.0624 0.1995 -0.0000l 0.2370,0.2370 c 0.4116,0.4116 0.7234,0.3492 1.0850 -0.0125l 3.1055,-3.1055 c 0.6610,-0.6610 0.6485,-0.8730 0.4739 -1.0476c -0.1621,-0.1621 -0.3243,-0.2993 -0.5862 -0.4615l 0.2869,-0.4116 c 0.9354,0.6610 1.1225,0.7483 1.6588 0.9354c 0.1871,0.0873 0.3243,0.1247 0.4116 0.2120l 0.1871,0.1871 l -4.6146,4.6146 ZM 365.1868,367.1493 ZM 373.6052,373.7718 l 2.8685,-2.8685 c 0.8356,-0.8356 0.8231,-1.4717 0.3492 -1.9456c -0.4864,-0.4864 -1.1225,-0.6236 -2.3821 -0.5612c -0.1247,0.1746 -0.2993,0.3492 -0.4739 0.5238l -2.6066,2.6066 c -0.3617,0.3617 -0.4240,0.6735 -0.0125 1.0850l 0.2120,0.2120 c 0.0624,0.0624 0.0748,0.1497 0.0125 0.2120l -0.2370,0.2370 l -0.0499,0.0000 c 0.0000,-0.0000 -0.8107,-0.8606 -1.2971 -1.3470c -0.4490,-0.4490 -1.3345,-1.2846 -1.3345 -1.2846l -0.0000,-0.0499 l 0.2370,-0.2370 c 0.0624,-0.0624 0.1372,-0.0624 0.1995 -0.0000l 0.2494,0.2494 c 0.4240,0.4240 0.7234,0.3492 1.0850 -0.0125l 2.8436,-2.8436 c 0.8356,-0.8356 0.8356,-1.5091 0.3617 -1.9830c -0.4365,-0.4365 -1.1599,-0.5363 -2.3572 -0.5113l -3.0930,3.0930 c -0.3617,0.3617 -0.4240,0.6735 -0.0125 1.0850l 0.2370,0.2370 c 0.0499,0.0499 0.0624,0.1372 0.0000 0.1995l -0.2370,0.2370 l -0.0499,0.0000 c 0.0000,-0.0000 -0.8231,-0.8730 -1.3095 -1.3594c -0.4490,-0.4490 -1.3220,-1.2721 -1.3220 -1.2721l -0.0000,-0.0499 l 0.2370,-0.2370 c 0.0624,-0.0624 0.1372,-0.0624 0.1995 -0.0000l 0.2370,0.2370 c 0.4240,0.4240 0.7234,0.3492 1.0850 -0.0125l 3.1055,-3.1055 c 0.7109,-0.7109 0.6485,-0.8730 0.4864 -1.0352c -0.1621,-0.1621 -0.3243,-0.2993 -0.5862 -0.4615l 0.2869,-0.4116 c 0.9229,0.6485 1.1474,0.7733 1.6588 0.9354c 0.1871,0.0624 0.3243,0.1247 0.4116 0.2120l 0.1871,0.1871 l -1.1225,1.0476 l 0.0374,0.0374 c 1.2098,-0.0374 2.1950,0.0249 2.9683 0.7982c 0.6984,0.6984 0.6236,1.6463 0.1372 2.2823c 1.4717,-0.0249 2.3821,0.2370 3.0556 0.9104c 1.0975,1.0975 0.3742,2.1950 -0.7358 3.3050l -2.5941,2.5941 c -0.3617,0.3617 -0.4240,0.6735 -0.0125 1.0850l 0.2370,0.2370 c 0.0499,0.0499 0.0624,0.1372 0.0000 0.1995l -0.2370,0.2370 l -0.0499,0.0000 c 0.0000,-0.0000 -0.8231,-0.8730 -1.3095 -1.3594c -0.4490,-0.4490 -1.3220,-1.2721 -1.3220 -1.2721l -0.0000,-0.0499 l 0.2370,-0.2370 c 0.0624,-0.0624 0.1372,-0.0624 0.1995 -0.0000l 0.2370,0.2370 c 0.4116,0.4116 0.7234,0.3492 1.0850 -0.0125ZM 374.6653,376.6278 ZM 379.5418,374.5949 l 2.2948,2.2948 c 0.1247,0.1247 0.2370,0.1122 0.3492 -0.0000c 1.1599,-1.1599 0.8730,-2.0454 0.4240 -2.4944c -0.2869,-0.2869 -1.3345,-1.1100 -3.0681 0.1995ZM 379.5418,374.5949 ZM 380.5396,380.1823 l 0.0499,0.4490 c -1.1225,0.1746 -2.3198,-0.0998 -3.2177 -0.9977c -1.7086,-1.7086 -1.1599,-3.7041 0.1995 -5.0636c 1.8957,-1.8957 4.2778,-1.7835 5.4627 -0.5986c 1.6463,1.6463 0.7483,3.3175 -0.2993 4.3651c -0.1372,0.1372 -0.2993,0.1247 -0.4365 -0.0125l -3.2801,-3.2801 c -0.0873,0.0624 -0.1621,0.1372 -0.2619 0.2370c -1.2721,1.2721 -1.3719,3.1429 -0.4739 4.0409c 0.6859,0.6859 1.3470,0.8980 2.2574 0.8606Z"/>
  </g>
  <g stroke-linejoin="miter" stroke-opacity="0.6" fill-opacity="0.0" stroke="rgb(0,0,0)" stroke-width="2.1434361802744433" fill="rgb(0,0,0)" stroke-linecap="butt" stroke-miterlimit="10.0">
    <path d="M 340.4053,319.2529 v 7.9767 "/>
  </g>
  <g stroke-linejoin="miter" stroke-opacity="1.0" fill-opacity="0.6" stroke="rgb(0,0,0)" fill-rule="evenodd" stroke-width="0.0" fill="rgb(0,0,0)" stroke-linecap="butt" stroke-miterlimit="10.0">
    <path d="M 290.5509,342.3678 ZM 297.3107,342.0685 l 2.2325,2.2325 l 2.0953,-4.5647 l -4.4025,1.8084 c -0.0624,0.0374 -0.0998,0.0499 -0.1372 0.0873c -0.0748,0.0748 -0.0249,0.1995 0.2120 0.4365ZM 297.3107,342.0685 ZM 293.1950,343.2159 c -0.1247,0.0499 -0.2120,0.1122 -0.2869 0.1871c -0.1995,0.1995 -0.1122,0.5113 0.2619 0.8855l 0.3617,0.3617 c 0.0499,0.0499 0.0624,0.1372 0.0000 0.1995l -0.2370,0.2370 l -0.0499,0.0000 c 0.0000,-0.0000 -1.2098,-1.2597 -1.5091 -1.5590c -0.3243,-0.3243 -1.1474,-1.0975 -1.1474 -1.0975l -0.0000,-0.0499 l 0.2370,-0.2370 c 0.0624,-0.0624 0.1372,-0.0624 0.1995 -0.0000l 0.1497,0.1497 c 0.5113,0.5113 0.9728,0.4989 1.5714 0.2494l 9.7405,-3.9037 c 0.3991,-0.1746 0.5862,-0.1621 0.7109 -0.0374c 0.2245,0.2245 0.1995,0.4490 0.0499 0.7982l -4.2030,9.3164 c -0.3118,0.6610 -0.2993,1.1474 0.1995 1.6463l 0.1372,0.1372 c 0.0624,0.0624 0.0873,0.1621 0.0249 0.2245l -0.2370,0.2370 l -0.0624,-0.0125 c 0.0000,-0.0000 -0.9354,-0.9853 -1.4218 -1.4717c -0.4365,-0.4365 -1.6837,-1.6338 -1.6837 -1.6338l 0.0125,-0.0374 l 0.2370,-0.2370 c 0.0624,-0.0624 0.1247,-0.0748 0.1871 -0.0125l 0.3492,0.3492 c 0.3866,0.3866 0.7234,0.4490 0.9229 0.2494c 0.0624,-0.0624 0.1247,-0.1497 0.1746 -0.2494l 1.3470,-2.9433 l -2.6316,-2.6316 c -0.2993,-0.2993 -0.4739,-0.3243 -0.6610 -0.2370ZM 299.2188,351.0357 ZM 306.1407,348.2046 l -3.1928,3.1928 c -0.7733,0.7733 -1.0726,1.2222 -0.7358 1.5590c 0.3243,0.3243 0.6735,0.4739 1.2472 0.5488l 0.0125,0.4365 c -1.0352,0.0624 -1.8084,-0.1621 -2.3821 -0.7358c -0.5737,-0.5737 -0.5612,-1.2597 0.3243 -2.1452l 3.7914,-3.7914 l -0.8107,-0.8107 c -0.0374,-0.0374 -0.0374,-0.0624 -0.0000 -0.0998l 0.3866,-0.3866 c 0.0374,-0.0374 0.0624,-0.0374 0.0873 -0.0125c 0.8356,0.8356 1.5216,0.5488 2.4694 -0.3991l 0.2370,-0.2370 l 0.9728,0.4739 l -1.9207,1.9207 l 1.3719,1.3719 c 0.0624,0.0624 0.0748,0.1247 0.0249 0.1746l -0.2494,0.2494 c -0.1122,0.1122 -0.3367,-0.0125 -0.4615 -0.1372l -1.1723,-1.1723 ZM 302.9853,354.8022 ZM 305.9661,352.6695 c 1.7086,-1.7086 3.8787,-2.0329 5.5375 -0.3742c 1.8458,1.8458 1.0102,4.1032 -0.2869 5.4003c -1.2472,1.2472 -3.6293,2.0080 -5.4003 0.2370c -1.6712,-1.6712 -1.1225,-3.9910 0.1497 -5.2631ZM 305.9661,352.6695 ZM 310.9548,352.5697 c -0.9977,-0.9977 -2.6316,-0.2869 -3.7166 0.7982c -0.9603,0.9603 -2.0080,3.1055 -0.7733 4.3402c 0.5612,0.5612 1.7211,1.0476 3.3674 -0.5986c 1.8334,-1.8334 2.1452,-3.5170 1.1225 -4.5397ZM 308.9593,360.7762 ZM 317.3778,367.3987 l 2.8685,-2.8685 c 0.8356,-0.8356 0.8231,-1.4717 0.3492 -1.9456c -0.4864,-0.4864 -1.1225,-0.6236 -2.3821 -0.5612c -0.1247,0.1746 -0.2993,0.3492 -0.4739 0.5238l -2.6066,2.6066 c -0.3617,0.3617 -0.4240,0.6735 -0.0125 1.0850l 0.2120,0.2120 c 0.0624,0.0624 0.0748,0.1497 0.0125 0.2120l -0.2370,0.2370 l -0.0499,0.0000 c 0.0000,-0.0000 -0.8107,-0.8606 -1.2971 -1.3470c -0.4490,-0.4490 -1.3345,-1.2846 -1.3345 -1.2846l -0.0000,-0.0499 l 0.2370,-0.2370 c 0.0624,-0.0624 0.1372,-0.0624 0.1995 -0.0000l 0.2494,0.2494 c 0.4240,0.4240 0.7234,0.3492 1.0850 -0.0125l 2.8436,-2.8436 c 0.8356,-0.8356 0.8356,-1.5091 0.3617 -1.9830c -0.4365,-0.4365 -1.1599,-0.5363 -2.3572 -0.5113l -3.0930,3.0930 c -0.3617,0.3617 -0.4240,0.6735 -0.0125 1.0850l 0.2370,0.2370 c 0.0499,0.0499 0.0624,0.1372 0.0000 0.1995l -0.2370,0.2370 l -0.0499,0.0000 c 0.0000,-0.0000 -0.8231,-0.8730 -1.3095 -1.3594c -0.4490,-0.4490 -1.3220,-1.2721 -1.3220 -1.2721l -0.0000,-0.0499 l 0.2370,-0.2370 c 0.0624,-0.0624 0.1372,-0.0624 0.1995 -0.0000l 0.2370,0.2370 c 0.4240,0.4240 0.7234,0.3492 1.0850 -0.0125l 3.1055,-3.1055 c 0.7109,-0.7109 0.6485,-0.8730 0.4864 -1.0352c -0.1621,-0.1621 -0.3243,-0.2993 -0.5862 -0.4615l 0.2869,-0.4116 c 0.9229,0.6485 1.1474,0.7733 1.6588 0.9354c 0.1871,0.0624 0.3243,0.1247 0.4116 0.2120l 0.1871,0.1871 l -1.1225,1.0476 l 0.0374,0.0374 c 1.2098,-0.0374 2.1950,0.0249 2.9683 0.7982c 0.6984,0.6984 0.6236,1.6463 0.1372 2.2823c 1.4717,-0.0249 2.3821,0.2370 3.0556 0.9104c 1.0975,1.0975 0.3742,2.1950 -0.7358 3.3050l -2.5941,2.5941 c -0.3617,0.3617 -0.4240,0.6735 -0.0125 1.0850l 0.2370,0.2370 c 0.0499,0.0499 0.0624,0.1372 0.0000 0.1995l -0.2370,0.2370 l -0.0499,0.0000 c 0.0000,-0.0000 -0.8231,-0.8730 -1.3095 -1.3594c -0.4490,-0.4490 -1.3220,-1.2721 -1.3220 -1.2721l -0.0000,-0.0499 l 0.2370,-0.2370 c 0.0624,-0.0624 0.1372,-0.0624 0.1995 -0.0000l 0.2370,0.2370 c 0.4116,0.4116 0.7234,0.3492 1.0850 -0.0125Z"/>
  </g>
  <g stroke-linejoin="miter" stroke-opacity="0.6" fill-opacity="0.0" stroke="rgb(0,0,0)" stroke-width="2.1434361802744433" fill="rgb(0,0,0)" stroke-linecap="butt" stroke-miterlimit="10.0">
    <path d="M 290.5509,319.2529 v 7.9767 "/>
  </g>
  <g stroke-linejoin="miter" stroke-opacity="1.0" fill-opacity="0.6" stroke="rgb(0,0,0)" fill-rule="evenodd" stroke-width="0.0" fill="rgb(0,0,0)" stroke-linecap="butt" stroke-miterlimit="10.0">
    <path d="M 240.6966,342.3678 ZM 253.9417,341.2952 c 0.2120,-0.0873 0.3367,-0.1621 0.4240 -0.2494c 0.1871,-0.1871 -0.0499,-0.4739 -0.4739 -0.8980l -0.2245,-0.2245 c -0.0499,-0.0499 -0.0624,-0.1372 -0.0000 -0.1995l 0.2370,-0.2370 l 0.0374,0.0125 c 0.0000,-0.0000 0.8980,0.9229 1.3844 1.4093c 0.4365,0.4365 1.0975,1.0726 1.0975 1.0726l 0.0125,0.0374 l -0.2370,0.2370 c -0.0624,0.0624 -0.1372,0.0624 -0.1995 0.0000c -0.5113,-0.5113 -0.8606,-0.6361 -1.4592 -0.3617l -9.6407,4.4025 c -0.2619,0.1122 -0.4615,0.1122 -0.5986 -0.0249c -0.1247,-0.1247 -0.1247,-0.3243 -0.0000 -0.5737l 4.5397,-9.4536 c 0.3243,-0.6735 0.0748,-1.0726 -0.3367 -1.4841c -0.0499,-0.0499 -0.0624,-0.1372 -0.0000 -0.1995l 0.2370,-0.2370 l 0.0374,0.0125 c 0.0000,-0.0000 0.9603,0.9853 1.4467 1.4717c 0.4365,0.4365 1.5590,1.5340 1.5590 1.5340l 0.0125,0.0374 l -0.2370,0.2370 c -0.0624,0.0624 -0.1372,0.0624 -0.1995 0.0000l -0.3367,-0.3367 c -0.4490,-0.4490 -0.7234,-0.4739 -0.9229 -0.2744c -0.0748,0.0748 -0.1247,0.1746 -0.1995 0.2993l -2.8810,5.9989 l -0.6984,1.4717 l 1.4343,-0.6610 ZM 248.3917,350.0629 ZM 261.0256,346.9574 c -0.6111,0.7109 -1.1349,1.4343 -1.6338 2.1576l -0.4365,-0.3118 c 0.5862,-1.0601 1.2846,-2.4569 0.0499 -3.6917c -0.8231,-0.8231 -2.0080,-0.7358 -2.7687 0.0249c -1.0352,1.0352 -0.2744,2.7438 0.0624 3.4547c 0.6735,1.4218 1.3220,3.0930 -0.1871 4.6021c -1.2721,1.2721 -3.4796,1.4093 -4.9139 -0.0249c -1.2222,-1.2222 -1.2098,-1.6338 -1.5091 -1.9331c -0.2494,-0.2494 -0.4240,-0.2993 -0.6361 -0.5113c 0.6111,-0.6610 1.1225,-1.3470 1.9456 -2.4195l 0.4116,0.3367 c -0.8855,1.3844 -1.0850,2.7563 0.0249 3.8663c 0.9479,0.9479 2.2200,1.1225 3.2302 0.1122c 1.1349,-1.1349 0.8481,-2.0953 0.3866 -3.1554c -0.5612,-1.2347 -1.4717,-3.3923 -0.0125 -4.8515c 1.3220,-1.3220 3.4173,-0.8980 4.5023 0.1871c 1.1599,1.1599 0.8980,1.3719 1.4841 2.1576ZM 257.4338,359.1049 ZM 261.7116,363.6821 c -2.6814,-2.6814 -1.8957,-6.0364 0.1122 -8.0443c 2.4569,-2.4569 6.1860,-2.3696 8.2563 -0.2993c 1.5340,1.5340 1.4966,2.5442 2.1701 3.2926c -0.6485,0.7234 -1.1349,1.4343 -1.6588 2.2075l -0.4240,-0.3243 c 0.7483,-1.3968 1.0352,-3.1304 -0.6859 -4.8515c -0.9853,-0.9853 -3.8039,-1.7086 -6.3357 0.8231c -1.8209,1.8209 -2.8685,4.7393 -0.9354 6.6724c 1.1599,1.1599 2.4195,1.5964 4.2778 1.5091l 0.0998,0.4739 c -1.9581,0.2619 -3.6667,-0.2494 -4.8765 -1.4592ZM 265.4656,367.1368 ZM 268.4464,365.0041 c 1.7086,-1.7086 3.8787,-2.0329 5.5375 -0.3742c 1.8458,1.8458 1.0102,4.1032 -0.2869 5.4003c -1.2472,1.2472 -3.6293,2.0080 -5.4003 0.2370c -1.6712,-1.6712 -1.1225,-3.9910 0.1497 -5.2631ZM 268.4464,365.0041 ZM 273.4351,364.9043 c -0.9977,-0.9977 -2.6316,-0.2869 -3.7166 0.7982c -0.9603,0.9603 -2.0080,3.1055 -0.7733 4.3402c 0.5612,0.5612 1.7211,1.0476 3.3674 -0.5986c 1.8334,-1.8334 2.1452,-3.5170 1.1225 -4.5397ZM 270.8285,372.4997 ZM 276.1041,375.5553 l 3.2302,-3.2302 c 0.1746,-0.7733 0.0998,-1.3719 -0.4864 -1.9581c -0.2494,-0.2494 -0.7982,-0.7234 -1.7835 -0.5363c -0.4365,0.0873 -1.1848,0.4116 -2.0828 1.3095c -1.6338,1.6338 -1.5340,3.2302 -0.8606 3.9037c 0.4116,0.4116 0.9977,0.4989 1.9830 0.5113ZM 276.1041,375.5553 ZM 284.6348,368.8953 l -7.2087,7.2087 c -0.3742,0.3742 -0.5488,0.5986 -0.6111 0.7109c -0.0748,0.1497 -0.0125,0.3617 0.0873 0.4615c 0.1497,0.1497 0.4240,0.4240 0.6485 0.5737l -0.2993,0.3991 c -0.8481,-0.5986 -1.6338,-1.1100 -2.1202 -1.1474l -0.2993,-0.2993 l 0.8980,-0.8231 c -0.9603,0.0125 -1.8209,-0.0998 -2.4569 -0.7358c -1.3470,-1.3470 -1.0227,-3.3175 0.5113 -4.8515c 0.9229,-0.9229 1.9456,-1.4467 3.0182 -1.4467c 0.9728,0.0249 1.7959,0.2993 2.6191 1.1225c 0.2494,0.2494 0.6859,0.9104 0.8107 1.3594l 1.9082,-1.9082 c 0.7109,-0.7109 0.7982,-1.0227 0.5488 -1.2721l -0.4615,-0.3617 c -0.0249,-0.0249 -0.0374,-0.0873 -0.0000 -0.1247l 0.2869,-0.3367 c 0.1995,0.1995 0.7234,0.5737 0.9728 0.7483c 0.2869,0.1871 0.5113,0.3118 0.8730 0.4490l 0.2744,0.2744 ZM 276.9896,378.6607 ZM 281.8660,376.6278 l 2.2948,2.2948 c 0.1247,0.1247 0.2370,0.1122 0.3492 -0.0000c 1.1599,-1.1599 0.8730,-2.0454 0.4240 -2.4944c -0.2869,-0.2869 -1.3345,-1.1100 -3.0681 0.1995ZM 281.8660,376.6278 ZM 282.8638,382.2152 l 0.0499,0.4490 c -1.1225,0.1746 -2.3198,-0.0998 -3.2177 -0.9977c -1.7086,-1.7086 -1.1599,-3.7041 0.1995 -5.0636c 1.8957,-1.8957 4.2778,-1.7835 5.4627 -0.5986c 1.6463,1.6463 0.7483,3.3175 -0.2993 4.3651c -0.1372,0.1372 -0.2993,0.1247 -0.4365 -0.0125l -3.2801,-3.2801 c -0.0873,0.0624 -0.1621,0.1372 -0.2619 0.2370c -1.2721,1.2721 -1.3719,3.1429 -0.4739 4.0409c 0.6859,0.6859 1.3470,0.8980 2.2574 0.8606Z"/>
  </g>
  <g stroke-linejoin="miter" stroke-opacity="0.6" fill-opacity="0.0" stroke="rgb(0,0,0)" stroke-width="2.1434361802744433" fill="rgb(0,0,0)" stroke-linecap="butt" stroke-miterlimit="10.0">
    <path d="M 240.6966,319.2529 v 7.9767 "/>
  </g>
  <g stroke-linejoin="miter" stroke-opacity="1.0" fill-opacity="0.6" stroke="rgb(0,0,0)" fill-rule="evenodd" stroke-width="0.0" fill="rgb(0,0,0)" stroke-linecap="butt" stroke-miterlimit="10.0">
    <path d="M 190.8423,342.3678 ZM 202.8027,339.2124 l -1.6837,-1.6837 c -0.2993,-0.2993 -0.5488,-0.3492 -0.8481 -0.0499l -2.6565,2.6565 l 1.7086,1.7086 c 0.4365,0.4365 0.7483,0.3492 1.1723 0.0748l 0.4615,-0.2869 c 0.0499,-0.0499 0.1372,-0.0624 0.1871 -0.0125l 0.2744,0.2744 c 0.0374,0.0374 0.0249,0.0748 0.0000 0.0998c -0.3617,0.2619 -0.8730,0.6735 -1.2846 1.0850c -0.4240,0.4240 -0.9229,1.0476 -1.0975 1.2971l -0.0748,0.0000 l -0.2869,-0.2869 c -0.0624,-0.0624 -0.0499,-0.1497 -0.0125 -0.1871l 0.3118,-0.4615 c 0.2993,-0.4240 0.3492,-0.7483 -0.0748 -1.1723l -1.7086,-1.7086 l -3.1803,3.1803 c -0.3367,0.3367 -0.2370,0.5862 0.0374 0.8606l 2.0703,2.0703 c 0.9479,0.9479 2.0454,0.5737 3.1928 -0.0748l 0.3243,0.4490 c -0.7982,0.4989 -1.6338,1.0850 -2.3946 1.7211l -3.6667,-3.6667 l -0.9479,-0.9728 l -1.6213,-1.5714 v -0.0499 l 0.2494,-0.2494 c 0.0374,-0.0374 0.1122,-0.0624 0.1871 0.0125l 0.3742,0.3742 c 0.4989,0.4989 0.8481,0.4490 1.1973 0.0998l 6.2484,-6.2484 c 0.3866,-0.3866 0.3866,-0.7358 -0.0873 -1.2098l -0.3742,-0.3742 c -0.0873,-0.0873 -0.0499,-0.1497 -0.0125 -0.1871l 0.2494,-0.2494 l 0.0374,0.0125 l 1.5839,1.6089 l 0.9853,0.9603 l 3.1928,3.1928 c -0.6111,0.7109 -1.2597,1.5839 -1.6712 2.1950l -0.4240,-0.2993 c 0.5862,-1.1349 0.9977,-1.9955 0.0624 -2.9309ZM 197.9387,349.4642 ZM 206.3572,356.0868 l 2.8685,-2.8685 c 0.8356,-0.8356 0.8231,-1.4717 0.3492 -1.9456c -0.4864,-0.4864 -1.1225,-0.6236 -2.3821 -0.5612c -0.1247,0.1746 -0.2993,0.3492 -0.4739 0.5238l -2.6066,2.6066 c -0.3617,0.3617 -0.4240,0.6735 -0.0125 1.0850l 0.2120,0.2120 c 0.0624,0.0624 0.0748,0.1497 0.0125 0.2120l -0.2370,0.2370 l -0.0499,0.0000 c 0.0000,-0.0000 -0.8107,-0.8606 -1.2971 -1.3470c -0.4490,-0.4490 -1.3345,-1.2846 -1.3345 -1.2846v -0.0499 l 0.2370,-0.2370 c 0.0624,-0.0624 0.1372,-0.0624 0.1995 -0.0000l 0.2494,0.2494 c 0.4240,0.4240 0.7234,0.3492 1.0850 -0.0125l 2.8436,-2.8436 c 0.8356,-0.8356 0.8356,-1.5091 0.3617 -1.9830c -0.4365,-0.4365 -1.1599,-0.5363 -2.3572 -0.5113l -3.0930,3.0930 c -0.3617,0.3617 -0.4240,0.6735 -0.0125 1.0850l 0.2370,0.2370 c 0.0499,0.0499 0.0624,0.1372 0.0000 0.1995l -0.2370,0.2370 l -0.0499,0.0000 c 0.0000,-0.0000 -0.8231,-0.8730 -1.3095 -1.3594c -0.4490,-0.4490 -1.3220,-1.2721 -1.3220 -1.2721v -0.0499 l 0.2370,-0.2370 c 0.0624,-0.0624 0.1372,-0.0624 0.1995 -0.0000l 0.2370,0.2370 c 0.4240,0.4240 0.7234,0.3492 1.0850 -0.0125l 3.1055,-3.1055 c 0.7109,-0.7109 0.6485,-0.8730 0.4864 -1.0352c -0.1621,-0.1621 -0.3243,-0.2993 -0.5862 -0.4615l 0.2869,-0.4116 c 0.9229,0.6485 1.1474,0.7733 1.6588 0.9354c 0.1871,0.0624 0.3243,0.1247 0.4116 0.2120l 0.1871,0.1871 l -1.1225,1.0476 l 0.0374,0.0374 c 1.2098,-0.0374 2.1950,0.0249 2.9683 0.7982c 0.6984,0.6984 0.6236,1.6463 0.1372 2.2823c 1.4717,-0.0249 2.3821,0.2370 3.0556 0.9104c 1.0975,1.0975 0.3742,2.1950 -0.7358 3.3050l -2.5941,2.5941 c -0.3617,0.3617 -0.4240,0.6735 -0.0125 1.0850l 0.2370,0.2370 c 0.0499,0.0499 0.0624,0.1372 0.0000 0.1995l -0.2370,0.2370 l -0.0499,0.0000 c 0.0000,-0.0000 -0.8231,-0.8730 -1.3095 -1.3594c -0.4490,-0.4490 -1.3220,-1.2721 -1.3220 -1.2721v -0.0499 l 0.2370,-0.2370 c 0.0624,-0.0624 0.1372,-0.0624 0.1995 -0.0000l 0.2370,0.2370 c 0.4116,0.4116 0.7234,0.3492 1.0850 -0.0125ZM 207.4173,358.9428 ZM 214.1022,359.5165 l -1.2347,-0.7358 c -1.4343,-0.7608 -2.1701,-0.3492 -2.7313 0.2120c -0.3866,0.3866 -0.7857,1.1599 0.0000 1.9456c 0.3742,0.3742 1.3095,0.5862 1.9082 0.6361l 2.0578,-2.0578 ZM 214.1022,359.5165 ZM 211.6951,363.5200 c -0.4739,-0.4739 -0.3118,-1.1599 -0.0624 -1.5091l -0.4864,-0.0873 c -0.9728,-0.1746 -1.3095,-0.2619 -1.8832 -0.8356c -0.8730,-0.8730 -1.0102,-2.0080 -0.0748 -2.9433c 0.9479,-0.9479 2.4071,-0.7857 3.8912 0.0998l 1.4343,0.8606 c 1.4093,-1.4093 1.0227,-2.3198 0.5986 -2.7438c -0.4739,-0.4739 -1.2347,-0.8107 -1.6213 -0.4240c -0.1372,0.1372 -0.1871,0.2370 -0.2120 0.2869c -0.0249,0.0748 -0.0998,0.1746 -0.1871 0.2619c -0.1621,0.1621 -0.5363,0.2869 -0.8980 -0.0748c -0.2993,-0.2993 -0.2993,-0.6984 0.0000 -0.9977c 0.7234,-0.7234 2.5318,-0.1871 3.3300 0.6111c 0.9104,0.9104 1.5839,2.3322 -0.1871 4.1032l -1.8334,1.8334 c -0.7608,0.7608 -1.0726,1.0975 -0.7857 1.3844c 0.2744,0.2744 0.6984,-0.0000 0.9853 -0.2619l 0.2494,0.3742 c -0.9853,0.8356 -1.6213,0.6984 -2.2574 0.0624ZM 213.0421,364.5676 ZM 218.9662,368.2218 c -1.4966,0.3991 -2.4320,0.1372 -3.1803 -0.6111c -1.4966,-1.4966 -1.2971,-3.5669 0.3118 -5.1758c 1.7710,-1.7710 4.0284,-1.8084 5.3753 -0.4615c 1.1973,1.1973 1.2222,2.4445 0.5612 3.1055c -0.3617,0.3617 -0.7733,0.3243 -1.0352 0.0624c -0.2619,-0.2619 -0.3742,-0.6485 -0.0998 -0.9977c 0.3617,-0.4615 0.8231,-1.0726 0.0873 -1.8084c -0.8231,-0.8231 -2.3073,-0.5612 -3.6542 0.7857c -1.4592,1.4592 -1.6837,3.2551 -0.7234 4.2155c 0.5363,0.5363 1.3594,0.6610 2.3073 0.4864ZM 218.0682,369.5937 ZM 220.3506,368.3840 l 0.3492,0.3243 c -0.2744,0.3492 -0.7358,1.0850 -0.7483 1.6463c -0.0125,0.2619 0.0998,0.8231 0.5612 1.2846c 0.4365,0.4365 1.4343,0.7358 2.0454 0.1247c 0.5363,-0.5363 0.5986,-1.1973 0.0374 -2.6066c -0.5113,-1.3095 -0.7234,-2.0454 0.2120 -2.9808c 0.8356,-0.8356 2.1701,-0.6984 3.1554 0.2869c 0.6236,0.6236 0.9728,1.1973 1.1599 1.7835c -0.3243,0.4739 -0.7109,0.9354 -1.1349 1.4093l -0.3492,-0.3243 c 0.7608,-1.2846 0.2120,-2.2325 -0.0499 -2.4944c -0.4739,-0.4739 -1.1474,-0.7733 -1.8334 -0.0873c -0.4989,0.4989 -0.5113,0.9853 -0.0748 1.9207c 0.6361,1.3844 0.9977,2.6440 -0.0000 3.6418c -1.2347,1.2347 -2.9059,0.2869 -3.4921 -0.2993c -0.4365,-0.4365 -0.7483,-0.8481 -0.9853 -1.2597c -0.0748,-0.0998 -0.1247,-0.1746 -0.2120 -0.2619c -0.0624,-0.0624 -0.1746,-0.1497 -0.3243 -0.2494c 0.5238,-0.5238 1.1225,-1.1973 1.6837 -1.8583Z"/>
  </g>
  <g stroke-linejoin="miter" stroke-opacity="0.6" fill-opacity="0.0" stroke="rgb(0,0,0)" stroke-width="2.1434361802744433" fill="rgb(0,0,0)" stroke-linecap="butt" stroke-miterlimit="10.0">
    <path d="M 190.8423,319.2529 v 7.9767 "/>
  </g>
  <g stroke-linejoin="miter" stroke-opacity="1.0" fill-opacity="0.6" stroke="rgb(0,0,0)" fill-rule="evenodd" stroke-width="0.0" fill="rgb(0,0,0)" stroke-linecap="butt" stroke-miterlimit="10.0">
    <path d="M 140.9879,342.3678 ZM 154.2330,341.2952 c 0.2120,-0.0873 0.3367,-0.1621 0.4240 -0.2494c 0.1871,-0.1871 -0.0499,-0.4739 -0.4739 -0.8980l -0.2245,-0.2245 c -0.0499,-0.0499 -0.0624,-0.1372 -0.0000 -0.1995l 0.2370,-0.2370 l 0.0374,0.0125 c 0.0000,-0.0000 0.8980,0.9229 1.3844 1.4093c 0.4365,0.4365 1.0975,1.0726 1.0975 1.0726l 0.0125,0.0374 l -0.2370,0.2370 c -0.0624,0.0624 -0.1372,0.0624 -0.1995 0.0000c -0.5113,-0.5113 -0.8606,-0.6361 -1.4592 -0.3617l -9.6407,4.4025 c -0.2619,0.1122 -0.4615,0.1122 -0.5986 -0.0249c -0.1247,-0.1247 -0.1247,-0.3243 -0.0000 -0.5737l 4.5397,-9.4536 c 0.3243,-0.6735 0.0748,-1.0726 -0.3367 -1.4841c -0.0499,-0.0499 -0.0624,-0.1372 -0.0000 -0.1995l 0.2370,-0.2370 l 0.0374,0.0125 c 0.0000,-0.0000 0.9603,0.9853 1.4467 1.4717c 0.4365,0.4365 1.5590,1.5340 1.5590 1.5340l 0.0125,0.0374 l -0.2370,0.2370 c -0.0624,0.0624 -0.1372,0.0624 -0.1995 0.0000l -0.3367,-0.3367 c -0.4490,-0.4490 -0.7234,-0.4739 -0.9229 -0.2744c -0.0748,0.0748 -0.1247,0.1746 -0.1995 0.2993l -2.8810,5.9989 l -0.6984,1.4717 l 1.4343,-0.6610 ZM 148.6830,350.0629 ZM 156.7772,343.9143 c 0.3243,-0.3243 0.8606,-0.3367 1.1848 -0.0125c 0.3367,0.3367 0.3243,0.8730 0.0000 1.1973c -0.3367,0.3367 -0.8606,0.3367 -1.1973 0.0000c -0.3243,-0.3243 -0.3243,-0.8481 0.0125 -1.1848ZM 156.7772,343.9143 ZM 151.7386,351.3225 c -0.3617,0.3617 -0.4116,0.6859 -0.0125 1.0850l 0.2370,0.2370 c 0.0624,0.0624 0.0748,0.1497 0.0125 0.2120l -0.2370,0.2370 l -0.0499,0.0000 c 0.0000,-0.0000 -0.8356,-0.8855 -1.3220 -1.3719c -0.4365,-0.4365 -1.3095,-1.2597 -1.3095 -1.2597l -0.0000,-0.0499 l 0.2370,-0.2370 c 0.0624,-0.0624 0.1372,-0.0624 0.1995 -0.0000l 0.2370,0.2370 c 0.4116,0.4116 0.7234,0.3492 1.0850 -0.0125l 3.1055,-3.1055 c 0.6610,-0.6610 0.6485,-0.8730 0.4739 -1.0476c -0.1621,-0.1621 -0.3243,-0.2993 -0.5862 -0.4615l 0.2869,-0.4116 c 0.9354,0.6610 1.1225,0.7483 1.6588 0.9354c 0.1871,0.0873 0.3243,0.1247 0.4116 0.2120l 0.1871,0.1871 l -4.6146,4.6146 ZM 151.9756,353.3554 ZM 160.3941,359.9780 l 2.8685,-2.8685 c 0.8356,-0.8356 0.8231,-1.4717 0.3492 -1.9456c -0.4864,-0.4864 -1.1225,-0.6236 -2.3821 -0.5612c -0.1247,0.1746 -0.2993,0.3492 -0.4739 0.5238l -2.6066,2.6066 c -0.3617,0.3617 -0.4240,0.6735 -0.0125 1.0850l 0.2120,0.2120 c 0.0624,0.0624 0.0748,0.1497 0.0125 0.2120l -0.2370,0.2370 l -0.0499,0.0000 c 0.0000,-0.0000 -0.8107,-0.8606 -1.2971 -1.3470c -0.4490,-0.4490 -1.3345,-1.2846 -1.3345 -1.2846l -0.0000,-0.0499 l 0.2370,-0.2370 c 0.0624,-0.0624 0.1372,-0.0624 0.1995 -0.0000l 0.2494,0.2494 c 0.4240,0.4240 0.7234,0.3492 1.0850 -0.0125l 2.8436,-2.8436 c 0.8356,-0.8356 0.8356,-1.5091 0.3617 -1.9830c -0.4365,-0.4365 -1.1599,-0.5363 -2.3572 -0.5113l -3.0930,3.0930 c -0.3617,0.3617 -0.4240,0.6735 -0.0125 1.0850l 0.2370,0.2370 c 0.0499,0.0499 0.0624,0.1372 0.0000 0.1995l -0.2370,0.2370 l -0.0499,0.0000 c 0.0000,-0.0000 -0.8231,-0.8730 -1.3095 -1.3594c -0.4490,-0.4490 -1.3220,-1.2721 -1.3220 -1.2721l -0.0000,-0.0499 l 0.2370,-0.2370 c 0.0624,-0.0624 0.1372,-0.0624 0.1995 -0.0000l 0.2370,0.2370 c 0.4240,0.4240 0.7234,0.3492 1.0850 -0.0125l 3.1055,-3.1055 c 0.7109,-0.7109 0.6485,-0.8730 0.4864 -1.0352c -0.1621,-0.1621 -0.3243,-0.2993 -0.5862 -0.4615l 0.2869,-0.4116 c 0.9229,0.6485 1.1474,0.7733 1.6588 0.9354c 0.1871,0.0624 0.3243,0.1247 0.4116 0.2120l 0.1871,0.1871 l -1.1225,1.0476 l 0.0374,0.0374 c 1.2098,-0.0374 2.1950,0.0249 2.9683 0.7982c 0.6984,0.6984 0.6236,1.6463 0.1372 2.2823c 1.4717,-0.0249 2.3821,0.2370 3.0556 0.9104c 1.0975,1.0975 0.3742,2.1950 -0.7358 3.3050l -2.5941,2.5941 c -0.3617,0.3617 -0.4240,0.6735 -0.0125 1.0850l 0.2370,0.2370 c 0.0499,0.0499 0.0624,0.1372 0.0000 0.1995l -0.2370,0.2370 l -0.0499,0.0000 c 0.0000,-0.0000 -0.8231,-0.8730 -1.3095 -1.3594c -0.4490,-0.4490 -1.3220,-1.2721 -1.3220 -1.2721l -0.0000,-0.0499 l 0.2370,-0.2370 c 0.0624,-0.0624 0.1372,-0.0624 0.1995 -0.0000l 0.2370,0.2370 c 0.4116,0.4116 0.7234,0.3492 1.0850 -0.0125Z"/>
  </g>
  <g stroke-linejoin="miter" stroke-opacity="0.6" fill-opacity="0.0" stroke="rgb(0,0,0)" stroke-width="2.1434361802744433" fill="rgb(0,0,0)" stroke-linecap="butt" stroke-miterlimit="10.0">
    <path d="M 140.9879,319.2529 v 7.9767 "/>
  </g>
  <g stroke-linejoin="miter" stroke-opacity="0.0" fill-opacity="0.1" stroke="rgb(0,0,0)" stroke-width="0.0" fill="rgb(0,0,0)" stroke-linecap="butt" stroke-miterlimit="10.0">
    <path d="M 105.4252,308.4322 l -0.0000,-265.8898 h -5.3178 l -0.0000,265.8898 Z"/>
  </g>
  <g stroke-linejoin="miter" stroke-opacity="1.0" fill-opacity="0.6" stroke="rgb(0,0,0)" fill-rule="evenodd" stroke-width="0.0" fill="rgb(0,0,0)" stroke-linecap="butt" stroke-miterlimit="10.0">
    <path d="M 70.2841,114.5816 ZM 74.8346,108.3202 c 0.0000,-0.1235 0.0176,-0.2646 0.1764 -0.3528c 0.1940,-0.1411 0.5115,-0.2998 0.7761 -0.2998c 0.2293,-0.0000 0.2469,0.1940 0.2469 0.5468v 2.8397 h 1.4287 l -0.1058,0.8290 h -1.3228 v 1.4639 c 0.0000,0.4939 0.0706,0.7408 0.5820 0.7408h 0.4762 c 0.1058,-0.0000 0.1235,0.0882 0.1235 0.1235v 0.3880 c 0.0000,-0.0000 -1.1288,-0.0353 -1.8696 -0.0353c -0.6702,-0.0000 -1.7109,0.0353 -1.7109 0.0353v -0.3880 c 0.0000,-0.0353 0.0176,-0.1235 0.1235 -0.1235h 0.4762 c 0.5468,-0.0000 0.5997,-0.2293 0.5997 -0.7408v -1.4639 h -3.4570 c -0.0706,-0.0000 -0.1058,-0.0353 -0.1587 -0.1058l -0.1411,-0.1940 l -0.2117,-0.3704 c -0.0176,-0.0000 -0.0176,-0.0176 -0.0176 -0.0353c 0.0000,-0.0176 0.0176,-0.0353 0.0353 -0.0529c 1.1465,-1.2699 3.1748,-5.2032 3.8098 -6.6494c 0.0176,-0.0706 0.0529,-0.0882 0.1235 -0.0882c 0.0176,-0.0000 0.4057,0.1587 0.6173 0.1940c -0.7937,2.1342 -2.0989,4.4271 -3.3865 6.4731h 2.7868 v -2.7339 ZM 78.0094,114.5816 ZM 81.8721,105.0042 c -0.7584,-0.0000 -1.8696,0.7408 -1.8696 4.8504c 0.0000,1.4463 0.2646,4.3565 1.8167 4.3565c 0.2998,-0.0000 1.1465,-0.1940 1.5169 -1.5698c 0.2293,-0.8466 0.3528,-1.9049 0.3528 -3.4394c 0.0000,-2.2400 -0.5644,-3.4923 -1.0759 -3.9332c -0.1940,-0.1764 -0.4586,-0.2646 -0.7408 -0.2646ZM 81.8721,105.0042 ZM 81.8015,114.7932 c -1.8872,-0.0000 -3.1572,-2.4164 -3.1572 -5.1150c 0.0000,-3.2983 1.5698,-5.2913 3.2277 -5.2913c 0.7584,-0.0000 1.5169,0.4762 2.0283 1.1641c 0.7408,0.9877 1.1288,2.3106 1.1288 3.9685c 0.0000,3.9156 -1.9402,5.2737 -3.2277 5.2737ZM 85.7348,114.5816 ZM 89.5975,105.0042 c -0.7584,-0.0000 -1.8696,0.7408 -1.8696 4.8504c 0.0000,1.4463 0.2646,4.3565 1.8167 4.3565c 0.2998,-0.0000 1.1465,-0.1940 1.5169 -1.5698c 0.2293,-0.8466 0.3528,-1.9049 0.3528 -3.4394c 0.0000,-2.2400 -0.5644,-3.4923 -1.0759 -3.9332c -0.1940,-0.1764 -0.4586,-0.2646 -0.7408 -0.2646ZM 89.5975,105.0042 ZM 89.5269,114.7932 c -1.8872,-0.0000 -3.1572,-2.4164 -3.1572 -5.1150c 0.0000,-3.2983 1.5698,-5.2913 3.2277 -5.2913c 0.7584,-0.0000 1.5169,0.4762 2.0283 1.1641c 0.7408,0.9877 1.1288,2.3106 1.1288 3.9685c 0.0000,3.9156 -1.9402,5.2737 -3.2277 5.2737Z"/>
  </g>
  <g stroke-linejoin="miter" stroke-opacity="0.6" fill-opacity="0.0" stroke="rgb(0,0,0)" stroke-width="2.1434361802744433" fill="rgb(0,0,0)" stroke-linecap="butt" stroke-miterlimit="10.0">
    <path d="M 97.4485,109.2638 h 7.9767 "/>
  </g>
  <g stroke-linejoin="miter" stroke-opacity="1.0" fill-opacity="0.6" stroke="rgb(0,0,0)" fill-rule="evenodd" stroke-width="0.0" fill="rgb(0,0,0)" stroke-linecap="butt" stroke-miterlimit="10.0">
    <path d="M 70.2841,214.1658 ZM 71.3071,206.3522 c 0.0000,-1.0054 0.9701,-2.3811 2.8220 -2.3811c 1.3581,-0.0000 2.9455,0.5115 2.9455 2.5398c 0.0000,1.3405 -0.6879,2.0107 -1.6403 2.9279l -1.6756,1.6227 c -0.0882,0.0882 -1.2699,1.2523 -1.2699 2.0813h 2.9984 c 0.5997,-0.0000 0.9172,-0.2998 1.1641 -1.2699l 0.4409,0.0706 l -0.3528,2.2224 h -5.4501 c 0.0000,-0.9877 0.1587,-1.7461 1.7991 -3.4217l 1.2346,-1.2170 c 0.9877,-1.0054 1.3934,-1.8696 1.3934 -2.9455c 0.0000,-1.6050 -1.0935,-2.0636 -1.6932 -2.0636c -1.2170,-0.0000 -1.5521,0.6350 -1.5521 1.0583c 0.0000,0.1411 0.0353,0.2822 0.0706 0.4057c 0.0353,0.1235 0.0706,0.2469 0.0706 0.3880c 0.0000,0.4586 -0.3528,0.6350 -0.6350 0.6350c -0.3880,-0.0000 -0.6702,-0.2998 -0.6702 -0.6526ZM 78.0094,214.1658 ZM 81.8721,204.5884 c -0.7584,-0.0000 -1.8696,0.7408 -1.8696 4.8504c 0.0000,1.4463 0.2646,4.3565 1.8167 4.3565c 0.2998,-0.0000 1.1465,-0.1940 1.5169 -1.5698c 0.2293,-0.8466 0.3528,-1.9049 0.3528 -3.4394c 0.0000,-2.2400 -0.5644,-3.4923 -1.0759 -3.9332c -0.1940,-0.1764 -0.4586,-0.2646 -0.7408 -0.2646ZM 81.8721,204.5884 ZM 81.8015,214.3774 c -1.8872,-0.0000 -3.1572,-2.4164 -3.1572 -5.1150c 0.0000,-3.2983 1.5698,-5.2913 3.2277 -5.2913c 0.7584,-0.0000 1.5169,0.4762 2.0283 1.1641c 0.7408,0.9877 1.1288,2.3106 1.1288 3.9685c 0.0000,3.9156 -1.9402,5.2737 -3.2277 5.2737ZM 85.7348,214.1658 ZM 89.5975,204.5884 c -0.7584,-0.0000 -1.8696,0.7408 -1.8696 4.8504c 0.0000,1.4463 0.2646,4.3565 1.8167 4.3565c 0.2998,-0.0000 1.1465,-0.1940 1.5169 -1.5698c 0.2293,-0.8466 0.3528,-1.9049 0.3528 -3.4394c 0.0000,-2.2400 -0.5644,-3.4923 -1.0759 -3.9332c -0.1940,-0.1764 -0.4586,-0.2646 -0.7408 -0.2646ZM 89.5975,204.5884 ZM 89.5269,214.3774 c -1.8872,-0.0000 -3.1572,-2.4164 -3.1572 -5.1150c 0.0000,-3.2983 1.5698,-5.2913 3.2277 -5.2913c 0.7584,-0.0000 1.5169,0.4762 2.0283 1.1641c 0.7408,0.9877 1.1288,2.3106 1.1288 3.9685c 0.0000,3.9156 -1.9402,5.2737 -3.2277 5.2737Z"/>
  </g>
  <g stroke-linejoin="miter" stroke-opacity="0.6" fill-opacity="0.0" stroke="rgb(0,0,0)" stroke-width="2.1434361802744433" fill="rgb(0,0,0)" stroke-linecap="butt" stroke-miterlimit="10.0">
    <path d="M 97.4485,208.8480 h 7.9767 "/>
  </g>
  <g stroke-linejoin="miter" stroke-opacity="1.0" fill-opacity="0.6" stroke="rgb(0,0,0)" fill-rule="evenodd" stroke-width="0.0" fill="rgb(0,0,0)" stroke-linecap="butt" stroke-miterlimit="10.0">
    <path d="M 85.7348,313.7500 ZM 89.5975,304.1726 c -0.7584,-0.0000 -1.8696,0.7408 -1.8696 4.8504c 0.0000,1.4463 0.2646,4.3565 1.8167 4.3565c 0.2998,-0.0000 1.1465,-0.1940 1.5169 -1.5698c 0.2293,-0.8466 0.3528,-1.9049 0.3528 -3.4394c 0.0000,-2.2400 -0.5644,-3.4923 -1.0759 -3.9332c -0.1940,-0.1764 -0.4586,-0.2646 -0.7408 -0.2646ZM 89.5975,304.1726 ZM 89.5269,313.9616 c -1.8872,-0.0000 -3.1572,-2.4164 -3.1572 -5.1150c 0.0000,-3.2983 1.5698,-5.2913 3.2277 -5.2913c 0.7584,-0.0000 1.5169,0.4762 2.0283 1.1641c 0.7408,0.9877 1.1288,2.3106 1.1288 3.9685c 0.0000,3.9156 -1.9402,5.2737 -3.2277 5.2737Z"/>
  </g>
  <g stroke-linejoin="miter" stroke-opacity="0.6" fill-opacity="0.0" stroke="rgb(0,0,0)" stroke-width="2.1434361802744433" fill="rgb(0,0,0)" stroke-linecap="butt" stroke-miterlimit="10.0">
    <path d="M 97.4485,308.4322 h 7.9767 "/>
  </g>
  <g stroke-linejoin="miter" stroke-opacity="0.0" fill-opacity="0.0" stroke="rgb(0,0,0)" stroke-width="0.0" fill="rgb(0,0,0)" stroke-linecap="butt" stroke-miterlimit="10.0">
    <path d="M 514.8955,308.4322 l -0.0000,-265.8898 h -398.8347 l -0.0000,265.8898 Z"/>
  </g>
  <g stroke-linejoin="miter" stroke-opacity="1.0" fill-opacity="1.0" stroke="rgb(102,102,102)" stroke-width="0.0" fill="rgb(87,57,99)" stroke-linecap="butt" stroke-miterlimit="10.0">
    <path d="M 504.9246,308.4322 l -0.0000,-66.7214 h -29.9126 l -0.0000,66.7214 Z"/>
  </g>
  <g stroke-linejoin="miter" stroke-opacity="1.0" fill-opacity="1.0" stroke="rgb(102,102,102)" stroke-width="0.0" fill="rgb(87,57,99)" stroke-linecap="butt" stroke-miterlimit="10.0">
    <path d="M 455.0703,308.4322 l -0.0000,-1.4938 h -29.9126 l -0.0000,1.4938 Z"/>
  </g>
  <g stroke-linejoin="miter" stroke-opacity="1.0" fill-opacity="1.0" stroke="rgb(102,102,102)" stroke-width="0.0" fill="rgb(87,57,99)" stroke-linecap="butt" stroke-miterlimit="10.0">
    <path d="M 405.2159,308.4322 l -0.0000,-13.9418 h -29.9126 l -0.0000,13.9418 Z"/>
  </g>
  <g stroke-linejoin="miter" stroke-opacity="1.0" fill-opacity="1.0" stroke="rgb(102,102,102)" stroke-width="0.0" fill="rgb(87,57,99)" stroke-linecap="butt" stroke-miterlimit="10.0">
    <path d="M 355.3616,308.4322 l -0.0000,-45.8087 h -29.9126 l -0.0000,45.8087 Z"/>
  </g>
  <g stroke-linejoin="miter" stroke-opacity="1.0" fill-opacity="1.0" stroke="rgb(102,102,102)" stroke-width="0.0" fill="rgb(87,57,99)" stroke-linecap="butt" stroke-miterlimit="10.0">
    <path d="M 305.5072,308.4322 l -0.0000,-84.1486 h -29.9126 l -0.0000,84.1486 Z"/>
  </g>
  <g stroke-linejoin="miter" stroke-opacity="1.0" fill-opacity="1.0" stroke="rgb(102,102,102)" stroke-width="0.0" fill="rgb(87,57,99)" stroke-linecap="butt" stroke-miterlimit="10.0">
    <path d="M 255.6529,308.4322 l -0.0000,-100.5800 h -29.9126 l -0.0000,100.5800 Z"/>
  </g>
  <g stroke-linejoin="miter" stroke-opacity="1.0" fill-opacity="1.0" stroke="rgb(102,102,102)" stroke-width="0.0" fill="rgb(87,57,99)" stroke-linecap="butt" stroke-miterlimit="10.0">
    <path d="M 205.7986,308.4322 l -0.0000,-249.4584 h -29.9126 l -0.0000,249.4584 Z"/>
  </g>
  <g stroke-linejoin="miter" stroke-opacity="1.0" fill-opacity="1.0" stroke="rgb(102,102,102)" stroke-width="0.0" fill="rgb(87,57,99)" stroke-linecap="butt" stroke-miterlimit="10.0">
    <path d="M 155.9442,308.4322 l -0.0000,-265.8898 h -29.9126 l -0.0000,265.8898 Z"/>
  </g>
  <g stroke-linejoin="miter" stroke-opacity="1.0" fill-opacity="1.0" stroke="rgb(0,0,0)" fill-rule="evenodd" stroke-width="0.0" fill="rgb(84,84,84)" stroke-linecap="butt" stroke-miterlimit="10.0">
    <path d="M 478.3803,239.0519 ZM 481.6962,230.6386 c -0.3351,-0.0000 -1.1112,0.3175 -1.4992 0.4939l -0.2117,-0.5468 c 1.5521,-0.7231 2.1518,-1.0935 3.0337 -1.7285h 0.3351 v 8.8718 c 0.0000,0.6350 0.0882,0.8113 0.6702 0.8113h 0.9172 c 0.0529,-0.0000 0.1411,0.0353 0.1411 0.1411v 0.3880 l -2.4164,-0.0353 l -2.4517,0.0353 v -0.3880 c 0.0176,-0.0529 0.0353,-0.1411 0.1411 -0.1411h 1.0583 c 0.6702,-0.0000 0.6702,-0.2998 0.6702 -0.8113v -6.0674 c 0.0000,-0.5997 0.0000,-1.0230 -0.3880 -1.0230ZM 486.1056,239.0519 ZM 489.9154,229.4040 c -0.4409,-0.0000 -1.7285,0.2469 -1.7285 1.3228c 0.0000,0.3175 -0.1235,0.8643 -0.5997 0.8643c -0.4586,-0.0000 -0.4939,-0.5115 -0.4939 -0.5644c 0.0000,-0.5468 0.7231,-2.1694 3.1748 -2.1694c 1.7109,-0.0000 2.2224,1.0759 2.2224 1.7814c 0.0000,0.4409 -0.1411,1.3228 -1.7285 2.3282c 0.9877,0.1587 2.2929,0.8819 2.2929 2.7162c 0.0000,2.3282 -1.7638,3.5805 -3.7569 3.5805c -1.0054,-0.0000 -2.4164,-0.4409 -2.4164 -1.1112c 0.0000,-0.2646 0.2646,-0.5644 0.6173 -0.5644c 0.3351,-0.0000 0.4939,0.1764 0.6526 0.4057c 0.1940,0.2998 0.5115,0.7231 1.3581 0.7231c 0.5820,-0.0000 2.2400,-0.5820 2.2400 -2.8044c 0.0000,-1.8872 -1.3228,-2.1871 -2.2753 -2.1871c -0.1587,-0.0000 -0.3528,0.0353 -0.5468 0.0706l -0.0706,-0.5291 c 1.3581,-0.2293 2.4869,-1.5521 2.4869 -2.3635c 0.0000,-1.0054 -0.7055,-1.4992 -1.4287 -1.4992ZM 493.8310,239.0519 ZM 498.3815,232.7904 c 0.0000,-0.1235 0.0176,-0.2646 0.1764 -0.3528c 0.1940,-0.1411 0.5115,-0.2998 0.7761 -0.2998c 0.2293,-0.0000 0.2469,0.1940 0.2469 0.5468v 2.8397 h 1.4287 l -0.1058,0.8290 h -1.3228 v 1.4639 c 0.0000,0.4939 0.0706,0.7408 0.5820 0.7408h 0.4762 c 0.1058,-0.0000 0.1235,0.0882 0.1235 0.1235v 0.3880 c 0.0000,-0.0000 -1.1288,-0.0353 -1.8696 -0.0353c -0.6702,-0.0000 -1.7109,0.0353 -1.7109 0.0353v -0.3880 c 0.0000,-0.0353 0.0176,-0.1235 0.1235 -0.1235h 0.4762 c 0.5468,-0.0000 0.5997,-0.2293 0.5997 -0.7408v -1.4639 h -3.4570 c -0.0706,-0.0000 -0.1058,-0.0353 -0.1587 -0.1058l -0.1411,-0.1940 l -0.2117,-0.3704 c -0.0176,-0.0000 -0.0176,-0.0176 -0.0176 -0.0353c 0.0000,-0.0176 0.0176,-0.0353 0.0353 -0.0529c 1.1465,-1.2699 3.1748,-5.2032 3.8098 -6.6494c 0.0176,-0.0706 0.0529,-0.0882 0.1235 -0.0882c 0.0176,-0.0000 0.4057,0.1587 0.6173 0.1940c -0.7937,2.1342 -2.0989,4.4271 -3.3865 6.4731h 2.7868 v -2.7339 Z"/>
  </g>
  <g stroke-linejoin="miter" stroke-opacity="1.0" fill-opacity="1.0" stroke="rgb(0,0,0)" fill-rule="evenodd" stroke-width="0.0" fill="rgb(84,84,84)" stroke-linecap="butt" stroke-miterlimit="10.0">
    <path d="M 436.2513,304.2795 ZM 440.0610,294.6316 c -0.4409,-0.0000 -1.7285,0.2469 -1.7285 1.3228c 0.0000,0.3175 -0.1235,0.8643 -0.5997 0.8643c -0.4586,-0.0000 -0.4939,-0.5115 -0.4939 -0.5644c 0.0000,-0.5468 0.7231,-2.1694 3.1748 -2.1694c 1.7109,-0.0000 2.2224,1.0759 2.2224 1.7814c 0.0000,0.4409 -0.1411,1.3228 -1.7285 2.3282c 0.9877,0.1587 2.2929,0.8819 2.2929 2.7162c 0.0000,2.3282 -1.7638,3.5805 -3.7569 3.5805c -1.0054,-0.0000 -2.4164,-0.4409 -2.4164 -1.1112c 0.0000,-0.2646 0.2646,-0.5644 0.6173 -0.5644c 0.3351,-0.0000 0.4939,0.1764 0.6526 0.4057c 0.1940,0.2998 0.5115,0.7231 1.3581 0.7231c 0.5820,-0.0000 2.2400,-0.5820 2.2400 -2.8044c 0.0000,-1.8872 -1.3228,-2.1871 -2.2753 -2.1871c -0.1587,-0.0000 -0.3528,0.0353 -0.5468 0.0706l -0.0706,-0.5291 c 1.3581,-0.2293 2.4869,-1.5521 2.4869 -2.3635c 0.0000,-1.0054 -0.7055,-1.4992 -1.4287 -1.4992Z"/>
  </g>
  <g stroke-linejoin="miter" stroke-opacity="1.0" fill-opacity="1.0" stroke="rgb(0,0,0)" fill-rule="evenodd" stroke-width="0.0" fill="rgb(84,84,84)" stroke-linecap="butt" stroke-miterlimit="10.0">
    <path d="M 382.5343,291.8315 ZM 383.5573,284.0179 c 0.0000,-1.0054 0.9701,-2.3811 2.8220 -2.3811c 1.3581,-0.0000 2.9455,0.5115 2.9455 2.5398c 0.0000,1.3405 -0.6879,2.0107 -1.6403 2.9279l -1.6756,1.6227 c -0.0882,0.0882 -1.2699,1.2523 -1.2699 2.0813h 2.9984 c 0.5997,-0.0000 0.9172,-0.2998 1.1641 -1.2699l 0.4409,0.0706 l -0.3528,2.2224 h -5.4501 c 0.0000,-0.9877 0.1587,-1.7461 1.7991 -3.4217l 1.2346,-1.2170 c 0.9877,-1.0054 1.3934,-1.8696 1.3934 -2.9455c 0.0000,-1.6050 -1.0935,-2.0636 -1.6932 -2.0636c -1.2170,-0.0000 -1.5521,0.6350 -1.5521 1.0583c 0.0000,0.1411 0.0353,0.2822 0.0706 0.4057c 0.0353,0.1235 0.0706,0.2469 0.0706 0.3880c 0.0000,0.4586 -0.3528,0.6350 -0.6350 0.6350c -0.3880,-0.0000 -0.6702,-0.2998 -0.6702 -0.6526ZM 390.2596,291.8315 ZM 394.1752,282.0601 c -1.0054,-0.0000 -1.6580,0.7937 -1.6580 1.5698c 0.0000,0.5115 0.2117,1.1288 1.2699 1.8167l 0.5115,0.3175 c 0.4586,-0.3351 1.5345,-1.1465 1.5345 -2.0460c 0.0000,-0.7761 -0.5644,-1.6580 -1.6580 -1.6580ZM 394.1752,282.0601 ZM 396.8738,283.7357 c 0.0000,1.0759 -1.2170,1.9225 -1.9578 2.4164l 1.0230,0.6702 c 0.8643,0.5644 1.3052,1.3405 1.3052 2.3106c 0.0000,1.2699 -1.0406,2.9102 -3.2277 2.9102c -1.7638,-0.0000 -2.9808,-0.9348 -2.9808 -2.6457c 0.0000,-0.6526 0.2822,-1.4110 0.9701 -2.0107c 0.4233,-0.3704 0.7937,-0.6879 1.2170 -1.0054l -0.2998,-0.1764 c -1.0230,-0.6350 -1.5345,-1.3228 -1.5345 -2.2576c 0.0000,-1.2876 1.1641,-2.3106 2.8750 -2.3106c 1.6403,-0.0000 2.6104,0.8995 2.6104 2.0989ZM 396.8738,283.7357 ZM 394.0517,291.5493 c 0.7584,-0.0000 2.0813,-0.4057 2.0813 -2.0813c 0.0000,-0.7937 -0.4939,-1.5874 -1.5345 -2.2224l -0.7761,-0.4762 c -1.4287,0.9524 -1.7461,2.1342 -1.7461 2.6280c 0.0000,1.4992 1.2170,2.1518 1.9754 2.1518Z"/>
  </g>
  <g stroke-linejoin="miter" stroke-opacity="1.0" fill-opacity="1.0" stroke="rgb(0,0,0)" fill-rule="evenodd" stroke-width="0.0" fill="rgb(84,84,84)" stroke-linecap="butt" stroke-miterlimit="10.0">
    <path d="M 332.6799,259.9645 ZM 338.3064,254.6026 c 0.0000,-0.1764 0.0176,-0.4409 0.0176 -0.6173c 0.0000,-2.9631 -1.3228,-3.7039 -2.2224 -3.7039c -0.8113,-0.0000 -1.6580,0.7584 -1.6580 2.5928c 0.0000,0.8466 0.4233,2.5222 2.0989 2.5222c 0.3704,-0.0000 1.0406,-0.0353 1.7638 -0.7937ZM 338.3064,254.6026 ZM 333.6676,259.7176 c 1.1641,-0.1058 2.1342,-0.4057 2.9984 -1.2346c 0.7937,-0.7937 1.3757,-1.9754 1.5874 -3.3865c -0.4057,0.4939 -1.3934,0.8643 -2.0460 0.8643c -2.6104,-0.0000 -2.9631,-2.1518 -2.9631 -2.9631c 0.0000,-1.1994 0.5997,-3.2277 3.0337 -3.2277c 1.3052,-0.0000 3.2630,0.7584 3.2630 4.2683c 0.0000,1.6227 -0.5644,3.2101 -1.7638 4.4271c -1.1288,1.1465 -2.3282,1.6227 -4.0567 1.7109ZM 340.4053,259.9645 ZM 341.4283,252.1510 c 0.0000,-1.0054 0.9701,-2.3811 2.8220 -2.3811c 1.3581,-0.0000 2.9455,0.5115 2.9455 2.5398c 0.0000,1.3405 -0.6879,2.0107 -1.6403 2.9279l -1.6756,1.6227 c -0.0882,0.0882 -1.2699,1.2523 -1.2699 2.0813h 2.9984 c 0.5997,-0.0000 0.9172,-0.2998 1.1641 -1.2699l 0.4409,0.0706 l -0.3528,2.2224 h -5.4501 c 0.0000,-0.9877 0.1587,-1.7461 1.7991 -3.4217l 1.2346,-1.2170 c 0.9877,-1.0054 1.3934,-1.8696 1.3934 -2.9455c 0.0000,-1.6050 -1.0935,-2.0636 -1.6932 -2.0636c -1.2170,-0.0000 -1.5521,0.6350 -1.5521 1.0583c 0.0000,0.1411 0.0353,0.2822 0.0706 0.4057c 0.0353,0.1235 0.0706,0.2469 0.0706 0.3880c 0.0000,0.4586 -0.3528,0.6350 -0.6350 0.6350c -0.3880,-0.0000 -0.6702,-0.2998 -0.6702 -0.6526Z"/>
  </g>
  <g stroke-linejoin="miter" stroke-opacity="1.0" fill-opacity="1.0" stroke="rgb(0,0,0)" fill-rule="evenodd" stroke-width="0.0" fill="rgb(84,84,84)" stroke-linecap="butt" stroke-miterlimit="10.0">
    <path d="M 278.9629,221.6246 ZM 282.2788,213.2114 c -0.3351,-0.0000 -1.1112,0.3175 -1.4992 0.4939l -0.2117,-0.5468 c 1.5521,-0.7231 2.1518,-1.0935 3.0337 -1.7285h 0.3351 v 8.8718 c 0.0000,0.6350 0.0882,0.8113 0.6702 0.8113h 0.9172 c 0.0529,-0.0000 0.1411,0.0353 0.1411 0.1411v 0.3880 l -2.4164,-0.0353 l -2.4517,0.0353 v -0.3880 c 0.0176,-0.0529 0.0353,-0.1411 0.1411 -0.1411h 1.0583 c 0.6702,-0.0000 0.6702,-0.2998 0.6702 -0.8113v -6.0674 c 0.0000,-0.5997 0.0000,-1.0230 -0.3880 -1.0230ZM 286.6883,221.6246 ZM 288.7342,217.0035 c -0.0176,0.1764 -0.0176,0.4409 -0.0176 0.6173c 0.0000,2.9631 1.3228,3.7039 2.2047 3.7039c 0.8113,-0.0000 1.6756,-0.7584 1.6756 -2.5928c 0.0000,-0.8290 -0.4233,-2.5222 -2.1165 -2.5222c -0.3704,-0.0000 -1.0406,0.0353 -1.7461 0.7937ZM 288.7342,217.0035 ZM 293.3554,211.8886 c -1.1465,0.1058 -2.1342,0.4057 -2.9808 1.2346c -0.8113,0.7937 -1.3934,1.9754 -1.5874 3.3865c 0.4057,-0.4939 1.3757,-0.8643 2.0460 -0.8643c 2.6104,-0.0000 2.9455,2.1518 2.9455 2.9631c 0.0000,1.1994 -0.5997,3.2277 -3.0337 3.2277c -1.2876,-0.0000 -3.2454,-0.7584 -3.2454 -4.2683c 0.0000,-1.6227 0.5468,-3.2101 1.7638 -4.4271c 1.1288,-1.1465 2.3106,-1.6227 4.0391 -1.7109ZM 294.4136,221.6246 ZM 300.0401,216.2627 c 0.0000,-0.1764 0.0176,-0.4409 0.0176 -0.6173c 0.0000,-2.9631 -1.3228,-3.7039 -2.2224 -3.7039c -0.8113,-0.0000 -1.6580,0.7584 -1.6580 2.5928c 0.0000,0.8466 0.4233,2.5222 2.0989 2.5222c 0.3704,-0.0000 1.0406,-0.0353 1.7638 -0.7937ZM 300.0401,216.2627 ZM 295.4013,221.3777 c 1.1641,-0.1058 2.1342,-0.4057 2.9984 -1.2346c 0.7937,-0.7937 1.3757,-1.9754 1.5874 -3.3865c -0.4057,0.4939 -1.3934,0.8643 -2.0460 0.8643c -2.6104,-0.0000 -2.9631,-2.1518 -2.9631 -2.9631c 0.0000,-1.1994 0.5997,-3.2277 3.0337 -3.2277c 1.3052,-0.0000 3.2630,0.7584 3.2630 4.2683c 0.0000,1.6227 -0.5644,3.2101 -1.7638 4.4271c -1.1288,1.1465 -2.3282,1.6227 -4.0567 1.7109Z"/>
  </g>
  <g stroke-linejoin="miter" stroke-opacity="1.0" fill-opacity="1.0" stroke="rgb(0,0,0)" fill-rule="evenodd" stroke-width="0.0" fill="rgb(84,84,84)" stroke-linecap="butt" stroke-miterlimit="10.0">
    <path d="M 229.1086,205.1932 ZM 230.1316,197.3797 c 0.0000,-1.0054 0.9701,-2.3811 2.8220 -2.3811c 1.3581,-0.0000 2.9455,0.5115 2.9455 2.5398c 0.0000,1.3405 -0.6879,2.0107 -1.6403 2.9279l -1.6756,1.6227 c -0.0882,0.0882 -1.2699,1.2523 -1.2699 2.0813h 2.9984 c 0.5997,-0.0000 0.9172,-0.2998 1.1641 -1.2699l 0.4409,0.0706 l -0.3528,2.2224 h -5.4501 c 0.0000,-0.9877 0.1587,-1.7461 1.7991 -3.4217l 1.2346,-1.2170 c 0.9877,-1.0054 1.3934,-1.8696 1.3934 -2.9455c 0.0000,-1.6050 -1.0935,-2.0636 -1.6932 -2.0636c -1.2170,-0.0000 -1.5521,0.6350 -1.5521 1.0583c 0.0000,0.1411 0.0353,0.2822 0.0706 0.4057c 0.0353,0.1235 0.0706,0.2469 0.0706 0.3880c 0.0000,0.4586 -0.3528,0.6350 -0.6350 0.6350c -0.3880,-0.0000 -0.6702,-0.2998 -0.6702 -0.6526ZM 236.8339,205.1932 ZM 240.6966,195.6159 c -0.7584,-0.0000 -1.8696,0.7408 -1.8696 4.8504c 0.0000,1.4463 0.2646,4.3565 1.8167 4.3565c 0.2998,-0.0000 1.1465,-0.1940 1.5169 -1.5698c 0.2293,-0.8466 0.3528,-1.9049 0.3528 -3.4394c 0.0000,-2.2400 -0.5644,-3.4923 -1.0759 -3.9332c -0.1940,-0.1764 -0.4586,-0.2646 -0.7408 -0.2646ZM 240.6966,195.6159 ZM 240.6261,205.4049 c -1.8872,-0.0000 -3.1572,-2.4164 -3.1572 -5.1150c 0.0000,-3.2983 1.5698,-5.2913 3.2277 -5.2913c 0.7584,-0.0000 1.5169,0.4762 2.0283 1.1641c 0.7408,0.9877 1.1288,2.3106 1.1288 3.9685c 0.0000,3.9156 -1.9402,5.2737 -3.2277 5.2737ZM 244.5593,205.1932 ZM 245.5823,197.3797 c 0.0000,-1.0054 0.9701,-2.3811 2.8220 -2.3811c 1.3581,-0.0000 2.9455,0.5115 2.9455 2.5398c 0.0000,1.3405 -0.6879,2.0107 -1.6403 2.9279l -1.6756,1.6227 c -0.0882,0.0882 -1.2699,1.2523 -1.2699 2.0813h 2.9984 c 0.5997,-0.0000 0.9172,-0.2998 1.1641 -1.2699l 0.4409,0.0706 l -0.3528,2.2224 h -5.4501 c 0.0000,-0.9877 0.1587,-1.7461 1.7991 -3.4217l 1.2346,-1.2170 c 0.9877,-1.0054 1.3934,-1.8696 1.3934 -2.9455c 0.0000,-1.6050 -1.0935,-2.0636 -1.6932 -2.0636c -1.2170,-0.0000 -1.5521,0.6350 -1.5521 1.0583c 0.0000,0.1411 0.0353,0.2822 0.0706 0.4057c 0.0353,0.1235 0.0706,0.2469 0.0706 0.3880c 0.0000,0.4586 -0.3528,0.6350 -0.6350 0.6350c -0.3880,-0.0000 -0.6702,-0.2998 -0.6702 -0.6526Z"/>
  </g>
  <g stroke-linejoin="miter" stroke-opacity="1.0" fill-opacity="1.0" stroke="rgb(0,0,0)" fill-rule="evenodd" stroke-width="0.0" fill="rgb(84,84,84)" stroke-linecap="butt" stroke-miterlimit="10.0">
    <path d="M 179.2542,56.3149 ZM 184.7043,53.3341 c 0.0000,-1.8167 -0.9877,-2.7162 -2.0813 -2.7162c -0.8113,-0.0000 -1.4287,0.1235 -2.1165 0.4057l 0.5644,-4.8151 c 0.5820,0.0529 1.1817,0.0706 1.7991 0.0706c 0.8819,-0.0000 1.7991,-0.0529 2.7515 -0.1587l 0.1058,0.0529 l -0.2646,1.1465 c -0.6879,0.0706 -1.2523,0.0882 -1.7461 0.0882c -0.7937,-0.0000 -1.3934,-0.0706 -2.0107 -0.1411l -0.3351,2.7868 c 0.3704,-0.1411 1.0054,-0.2646 1.6932 -0.2646c 1.8696,-0.0000 2.9102,1.6227 2.9102 3.2454c 0.0000,1.9754 -1.3757,3.4923 -3.3688 3.4923c -1.0054,-0.0000 -2.4693,-0.5644 -2.4693 -1.2523c 0.0000,-0.3351 0.2822,-0.5644 0.5997 -0.5644c 0.3528,-0.0000 0.5820,0.2646 0.7937 0.5468c 0.2646,0.3175 0.5468,0.6702 1.1112 0.6702c 1.1288,-0.0000 2.0636,-1.0583 2.0636 -2.5928ZM 186.9796,56.3149 ZM 190.8423,46.7375 c -0.7584,-0.0000 -1.8696,0.7408 -1.8696 4.8504c 0.0000,1.4463 0.2646,4.3565 1.8167 4.3565c 0.2998,-0.0000 1.1465,-0.1940 1.5169 -1.5698c 0.2293,-0.8466 0.3528,-1.9049 0.3528 -3.4394c 0.0000,-2.2400 -0.5644,-3.4923 -1.0759 -3.9332c -0.1940,-0.1764 -0.4586,-0.2646 -0.7408 -0.2646ZM 190.8423,46.7375 ZM 190.7717,56.5265 c -1.8872,-0.0000 -3.1572,-2.4164 -3.1572 -5.1150c 0.0000,-3.2983 1.5698,-5.2913 3.2277 -5.2913c 0.7584,-0.0000 1.5169,0.4762 2.0283 1.1641c 0.7408,0.9877 1.1288,2.3106 1.1288 3.9685c 0.0000,3.9156 -1.9402,5.2737 -3.2277 5.2737ZM 194.7049,56.3149 ZM 198.0209,47.9016 c -0.3351,-0.0000 -1.1112,0.3175 -1.4992 0.4939l -0.2117,-0.5468 c 1.5521,-0.7231 2.1518,-1.0935 3.0337 -1.7285h 0.3351 v 8.8718 c 0.0000,0.6350 0.0882,0.8113 0.6702 0.8113h 0.9172 c 0.0529,-0.0000 0.1411,0.0353 0.1411 0.1411v 0.3880 l -2.4164,-0.0353 l -2.4517,0.0353 v -0.3880 c 0.0176,-0.0529 0.0353,-0.1411 0.1411 -0.1411h 1.0583 c 0.6702,-0.0000 0.6702,-0.2998 0.6702 -0.8113v -6.0674 c 0.0000,-0.5997 0.0000,-1.0230 -0.3880 -1.0230Z"/>
  </g>
  <g stroke-linejoin="miter" stroke-opacity="1.0" fill-opacity="1.0" stroke="rgb(0,0,0)" fill-rule="evenodd" stroke-width="0.0" fill="rgb(84,84,84)" stroke-linecap="butt" stroke-miterlimit="10.0">
    <path d="M 129.3999,39.8835 ZM 134.8500,36.9027 c 0.0000,-1.8167 -0.9877,-2.7162 -2.0813 -2.7162c -0.8113,-0.0000 -1.4287,0.1235 -2.1165 0.4057l 0.5644,-4.8151 c 0.5820,0.0529 1.1817,0.0706 1.7991 0.0706c 0.8819,-0.0000 1.7991,-0.0529 2.7515 -0.1587l 0.1058,0.0529 l -0.2646,1.1465 c -0.6879,0.0706 -1.2523,0.0882 -1.7461 0.0882c -0.7937,-0.0000 -1.3934,-0.0706 -2.0107 -0.1411l -0.3351,2.7868 c 0.3704,-0.1411 1.0054,-0.2646 1.6932 -0.2646c 1.8696,-0.0000 2.9102,1.6227 2.9102 3.2454c 0.0000,1.9754 -1.3757,3.4923 -3.3688 3.4923c -1.0054,-0.0000 -2.4693,-0.5644 -2.4693 -1.2523c 0.0000,-0.3351 0.2822,-0.5644 0.5997 -0.5644c 0.3528,-0.0000 0.5820,0.2646 0.7937 0.5468c 0.2646,0.3175 0.5468,0.6702 1.1112 0.6702c 1.1288,-0.0000 2.0636,-1.0583 2.0636 -2.5928ZM 137.1253,39.8835 ZM 140.9350,30.2356 c -0.4409,-0.0000 -1.7285,0.2469 -1.7285 1.3228c 0.0000,0.3175 -0.1235,0.8643 -0.5997 0.8643c -0.4586,-0.0000 -0.4939,-0.5115 -0.4939 -0.5644c 0.0000,-0.5468 0.7231,-2.1694 3.1748 -2.1694c 1.7109,-0.0000 2.2224,1.0759 2.2224 1.7814c 0.0000,0.4409 -0.1411,1.3228 -1.7285 2.3282c 0.9877,0.1587 2.2929,0.8819 2.2929 2.7162c 0.0000,2.3282 -1.7638,3.5805 -3.7569 3.5805c -1.0054,-0.0000 -2.4164,-0.4409 -2.4164 -1.1112c 0.0000,-0.2646 0.2646,-0.5644 0.6173 -0.5644c 0.3351,-0.0000 0.4939,0.1764 0.6526 0.4057c 0.1940,0.2998 0.5115,0.7231 1.3581 0.7231c 0.5820,-0.0000 2.2400,-0.5820 2.2400 -2.8044c 0.0000,-1.8872 -1.3228,-2.1871 -2.2753 -2.1871c -0.1587,-0.0000 -0.3528,0.0353 -0.5468 0.0706l -0.0706,-0.5291 c 1.3581,-0.2293 2.4869,-1.5521 2.4869 -2.3635c 0.0000,-1.0054 -0.7055,-1.4992 -1.4287 -1.4992ZM 144.8506,39.8835 ZM 149.4012,33.6221 c 0.0000,-0.1235 0.0176,-0.2646 0.1764 -0.3528c 0.1940,-0.1411 0.5115,-0.2998 0.7761 -0.2998c 0.2293,-0.0000 0.2469,0.1940 0.2469 0.5468v 2.8397 h 1.4287 l -0.1058,0.8290 h -1.3228 v 1.4639 c 0.0000,0.4939 0.0706,0.7408 0.5820 0.7408h 0.4762 c 0.1058,-0.0000 0.1235,0.0882 0.1235 0.1235v 0.3880 c 0.0000,-0.0000 -1.1288,-0.0353 -1.8696 -0.0353c -0.6702,-0.0000 -1.7109,0.0353 -1.7109 0.0353v -0.3880 c 0.0000,-0.0353 0.0176,-0.1235 0.1235 -0.1235h 0.4762 c 0.5468,-0.0000 0.5997,-0.2293 0.5997 -0.7408v -1.4639 h -3.4570 c -0.0706,-0.0000 -0.1058,-0.0353 -0.1587 -0.1058l -0.1411,-0.1940 l -0.2117,-0.3704 c -0.0176,-0.0000 -0.0176,-0.0176 -0.0176 -0.0353c 0.0000,-0.0176 0.0176,-0.0353 0.0353 -0.0529c 1.1465,-1.2699 3.1748,-5.2032 3.8098 -6.6494c 0.0176,-0.0706 0.0529,-0.0882 0.1235 -0.0882c 0.0176,-0.0000 0.4057,0.1587 0.6173 0.1940c -0.7937,2.1342 -2.0989,4.4271 -3.3865 6.4731h 2.7868 v -2.7339 Z"/>
  </g>
</svg>