<?xml version="1.0" encoding="UTF-8"?>
<!DOCTYPE svg PUBLIC "-//W3C//DTD SVG 1.1//EN"
    "http://www.w3.org/Graphics/SVG/1.1/DTD/svg11.dtd"><svg xmlns="http://www.w3.org/2000/svg" height="400.0000" stroke-opacity="1" viewBox="0 0 600 400" font-size="1" width="600.0000" xmlns:xlink="http://www.w3.org/1999/xlink" stroke="rgb(0,0,0)" version="1.1"><defs></defs><g stroke-linejoin="miter" stroke-opacity="1.0" fill-opacity="0.6" stroke="rgb(0,0,0)" fill-rule="evenodd" stroke-width="0.0" fill="rgb(0,0,0)" stroke-linecap="butt" stroke-miterlimit="10.0"><path d="M 105.8908,27.2514 ZM 121.5588,25.0567 v -7.6816 h -9.9678 v 7.6816 c 0.0000,0.9450 0.4572,1.3412 1.6765 1.3412h 0.7925 c 0.1219,-0.0000 0.2439,0.0914 0.2439 0.2439v 0.5792 l -0.0610,0.0610 c 0.0000,-0.0000 -2.6215,-0.0610 -3.8408 -0.0610c -1.0669,-0.0000 -3.9018,0.0610 -3.9018 0.0610l -0.0610,-0.0610 v -0.5792 c 0.0000,-0.1524 0.0914,-0.2439 0.2134 -0.2439h 0.8230 c 1.2498,-0.0000 1.6461,-0.4877 1.6461 -1.3412v -15.3023 c 0.0000,-0.9145 -0.4572,-1.3412 -1.6461 -1.3412h -0.8230 c -0.1219,-0.0000 -0.2439,-0.0914 -0.2439 -0.2439v -0.5792 l 0.0610,-0.0305 c 0.0000,-0.0000 2.6520,0.0305 3.8408 0.0305c 1.0974,-0.0000 3.9323,-0.0305 3.9323 -0.0305l 0.0610,0.0305 v 0.5792 c 0.0000,0.1524 -0.0914,0.2439 -0.2439 0.2439h -0.7925 c -1.2498,-0.0000 -1.6765,0.4877 -1.6765 1.3412v 6.4318 h 9.9678 v -6.4318 c 0.0000,-0.9145 -0.4572,-1.3412 -1.6765 -1.3412h -0.7925 c -0.1524,-0.0000 -0.2743,-0.0914 -0.2743 -0.2439v -0.5792 l 0.0610,-0.0305 c 0.0000,-0.0000 2.6520,0.0305 3.8408 0.0305c 1.0974,-0.0000 3.9323,-0.0305 3.9323 -0.0305l 0.0610,0.0305 v 0.5792 c 0.0000,0.1524 -0.0914,0.2439 -0.2439 0.2439h -0.7925 c -1.2498,-0.0000 -1.6765,0.4877 -1.6765 1.3412v 15.3023 c 0.0000,0.9450 0.4572,1.3412 1.6765 1.3412h 0.7925 c 0.1524,-0.0000 0.2743,0.0914 0.2743 0.2439v 0.5792 l -0.0610,0.0610 c 0.0000,-0.0000 -2.6520,-0.0610 -3.8408 -0.0610c -1.0974,-0.0000 -3.9323,0.0610 -3.9323 0.0610l -0.0610,-0.0610 v -0.5792 c 0.0000,-0.1524 0.0914,-0.2439 0.2439 -0.2439h 0.7925 c 1.2498,-0.0000 1.6765,-0.4877 1.6765 -1.3412ZM 126.4970,27.2514 ZM 127.5334,21.0025 c 0.0000,-4.1761 2.2557,-7.2244 6.3099 -7.2244c 4.5114,-0.0000 6.2489,3.7798 6.2489 6.9500c 0.0000,3.0483 -1.9814,6.8891 -6.3099 6.8891c -4.0847,-0.0000 -6.2489,-3.5055 -6.2489 -6.6147ZM 127.5334,21.0025 ZM 133.5080,14.7840 c -2.4386,-0.0000 -3.5665,2.8654 -3.5665 5.5173c 0.0000,2.3472 1.3412,6.2489 4.3590 6.2489c 1.3717,-0.0000 3.3836,-0.8230 3.3836 -4.8467c 0.0000,-4.4809 -1.6765,-6.9195 -4.1761 -6.9195ZM 141.0981,27.2514 ZM 147.2556,14.7536 c 0.0000,0.1524 -0.1219,0.2439 -0.2743 0.2439h -0.4572 c -0.6706,-0.0000 -0.8840,0.1829 -0.8840 0.4877c 0.0000,0.2134 0.1219,0.4877 0.2743 0.9145l 3.2007,8.0474 l 2.6520,-6.6147 l -0.5487,-1.3717 c -0.3963,-1.0364 -1.0364,-1.4632 -1.9509 -1.4632c -0.1524,-0.0000 -0.3048,-0.0610 -0.3048 -0.2134v -0.6097 l 0.0610,-0.0610 c 0.0000,-0.0000 1.7070,0.0610 2.7739 0.0610l 3.0483,-0.0610 l 0.0914,0.0610 v 0.5792 c 0.0000,0.1524 -0.1524,0.2439 -0.3048 0.2439h -0.5487 c -0.6097,-0.0000 -0.8840,0.1219 -0.8840 0.4268c 0.0000,0.2439 0.1219,0.5487 0.3048 0.9754l 3.1702,8.0474 l 3.1702,-7.8950 c 0.0914,-0.1829 0.1524,-0.4268 0.1524 -0.6706c 0.0000,-0.5182 -0.3353,-0.8840 -1.3717 -0.8840h -0.4572 c -0.1524,-0.0000 -0.2743,-0.1219 -0.2743 -0.2134v -0.6097 l 0.0914,-0.0610 c 0.0000,-0.0000 2.0119,0.0610 3.1397 0.0610c 1.0364,-0.0000 2.2557,-0.0610 2.2557 -0.0610l 0.0305,0.0610 v 0.5792 c 0.0000,0.1829 -0.1829,0.2439 -0.3658 0.2439c -0.7621,-0.0000 -1.5546,0.3353 -2.1033 1.6765l -4.1456,10.3031 c -0.1829,0.4572 -0.4268,0.6401 -0.7011 0.6401c -0.3048,-0.0000 -0.5487,-0.1829 -0.7316 -0.6097l -3.0483,-7.6206 l -3.0483,7.5597 c -0.2134,0.4877 -0.4572,0.6706 -0.7316 0.6706c -0.3048,-0.0000 -0.5487,-0.1829 -0.7316 -0.6097l -4.1761,-10.5470 c -0.4572,-1.1888 -1.0059,-1.4632 -1.9204 -1.4632c -0.1524,-0.0000 -0.3658,-0.0610 -0.3658 -0.2134v -0.6097 l 0.0610,-0.0610 c 0.0000,-0.0000 1.4327,0.0610 2.7739 0.0610c 1.4022,-0.0000 3.0178,-0.0610 3.0178 -0.0610l 0.0610,0.0914 v 0.5487 ZM 171.3978,27.2514 ZM 174.2022,25.0567 v -9.7239 h -2.1033 c -0.1219,-0.0000 -0.1524,-0.0305 -0.1524 -0.1524v -0.4268 c 0.0000,-0.2439 0.1524,-0.6097 0.7011 -0.6097h 1.5546 v -1.1888 c 0.0000,-4.7553 2.4691,-6.9805 5.0296 -6.9805c 1.1583,-0.0000 1.9509,0.3048 2.7129 0.8230c 0.6097,0.4572 0.8840,0.9754 0.8840 1.4632c 0.0000,0.6401 -0.4572,1.0974 -1.0364 1.0974c -0.6097,-0.0000 -1.0059,-0.3353 -1.2498 -0.8535c -0.3963,-1.0059 -0.9754,-1.4936 -1.8899 -1.4936c -1.0059,-0.0000 -2.1643,0.7316 -2.1643 5.4259v 1.7070 h 3.3531 c 0.1524,-0.0000 0.2439,0.0610 0.2439 0.1829v 0.6097 c 0.0000,0.2743 -0.4268,0.3963 -0.7011 0.3963h -2.8958 v 9.7239 c 0.0000,0.8840 0.3048,1.3412 1.3108 1.3412h 1.0059 c 0.1219,-0.0000 0.2439,0.0914 0.2439 0.2439v 0.5792 l -0.0610,0.0610 c 0.0000,-0.0000 -2.4996,-0.0610 -3.6884 -0.0610c -1.0974,-0.0000 -3.1702,0.0610 -3.1702 0.0610l -0.0610,-0.0610 v -0.5792 c 0.0000,-0.1524 0.0914,-0.2439 0.2439 -0.2439h 0.5792 c 1.0364,-0.0000 1.3108,-0.4572 1.3108 -1.3412ZM 182.5240,27.2514 ZM 185.2369,25.0567 v -7.5902 c 0.0000,-1.5241 -0.2134,-1.8594 -0.6706 -1.8594c -0.3963,-0.0000 -0.7621,0.0305 -1.2803 0.1524l -0.1524,-0.8535 c 1.9204,-0.3353 2.2557,-0.4268 3.1702 -0.8840c 0.3048,-0.1524 0.5487,-0.2439 0.7621 -0.2439h 0.4572 l -0.0914,2.7434 h 0.0914 c 0.7925,-1.1888 2.1338,-2.7434 3.5665 -2.7434c 1.2498,-0.0000 1.7070,0.6097 1.7070 1.4022c 0.0000,0.7925 -0.5182,1.2803 -1.3108 1.2803c -0.6097,-0.0000 -0.9450,-0.2439 -1.2498 -0.5487c -0.1829,-0.1829 -0.3963,-0.2743 -0.6097 -0.2743c -0.3353,-0.0000 -1.0059,0.5487 -1.7375 1.5851c -0.2134,0.2743 -0.3658,0.6706 -0.3658 1.0669v 6.7671 c 0.0000,0.8840 0.3048,1.3412 1.3108 1.3412h 0.8840 c 0.1524,-0.0000 0.2743,0.0914 0.2743 0.2439v 0.5792 l -0.0610,0.0610 c 0.0000,-0.0000 -2.4081,-0.0610 -3.5969 -0.0610c -1.0974,-0.0000 -3.1702,0.0610 -3.1702 0.0610l -0.0305,-0.0610 v -0.5792 c 0.0000,-0.1524 0.0610,-0.2439 0.2134 -0.2439h 0.5792 c 1.0364,-0.0000 1.3108,-0.4572 1.3108 -1.3412ZM 193.1014,27.2514 ZM 196.5764,18.8078 h 5.6088 c 0.3048,-0.0000 0.4268,-0.1524 0.4268 -0.4268c 0.0000,-2.8349 -1.4327,-3.5665 -2.5301 -3.5665c -0.7011,-0.0000 -2.9873,0.2743 -3.5055 3.9932ZM 196.5764,18.8078 ZM 204.6238,24.4165 l 0.6097,0.4877 c -1.1583,1.5851 -2.9568,2.7129 -5.1516 2.7129c -4.1761,-0.0000 -5.9441,-3.1092 -5.9441 -6.4318c 0.0000,-4.6334 3.0483,-7.4073 5.9441 -7.4073c 4.0237,-0.0000 4.9687,3.1397 4.9687 5.7002c 0.0000,0.3353 -0.2134,0.5182 -0.5487 0.5182h -8.0169 c -0.0305,0.1829 -0.0305,0.3658 -0.0305 0.6097c 0.0000,3.1092 2.1643,5.5173 4.3590 5.5173c 1.6765,-0.0000 2.7434,-0.5487 3.8103 -1.7070ZM 206.1480,27.2514 ZM 216.4511,17.0093 c -0.8230,-1.3717 -1.8594,-2.1947 -3.1397 -2.1947c -2.4386,-0.0000 -3.7494,2.3472 -3.7494 5.5173c 0.0000,4.6029 2.6825,5.9441 4.4505 5.9441c 0.5792,-0.0000 1.6461,-0.0610 2.4386 -0.6706v -8.5961 ZM 216.4511,17.0093 ZM 216.4511,32.0677 v -5.4564 c -0.4572,0.3963 -1.4327,1.0059 -3.1702 1.0059c -4.3895,-0.0000 -6.0356,-3.8408 -6.0356 -6.6757c 0.0000,-4.0237 2.4691,-7.1634 6.1880 -7.1634c 1.4936,-0.0000 2.8044,0.4268 3.8103 1.3108l 0.4572,-0.7316 c 0.2134,-0.3658 0.4268,-0.5792 0.6401 -0.5792c 0.3353,-0.0000 0.3963,0.3353 0.3963 0.7621v 17.5275 c 0.0000,0.8840 0.3048,1.3412 1.3108 1.3412h 0.5792 c 0.1219,-0.0000 0.2439,0.0914 0.2439 0.2439v 0.5792 l -0.0610,0.0610 c 0.0000,-0.0000 -2.0728,-0.0610 -3.2616 -0.0610c -1.0974,-0.0000 -3.4750,0.0610 -3.4750 0.0610l -0.0610,-0.0610 v -0.5792 c 0.0000,-0.1524 0.0914,-0.2439 0.2439 -0.2439h 0.8840 c 1.0364,-0.0000 1.3108,-0.4572 1.3108 -1.3412ZM 221.1759,27.2514 ZM 234.2529,23.7154 c 0.0000,1.5241 0.1524,2.0119 0.7621 2.0119c 0.3658,-0.0000 1.0364,-0.0610 1.5546 -0.1524l 0.1219,0.8535 c -1.8594,0.3353 -3.3531,0.6401 -4.0542 1.1888h -0.6706 l 0.0914,-2.2557 h -0.0914 c -1.6765,1.8290 -3.0483,2.2557 -4.2980 2.2557c -3.0178,-0.0000 -3.8103,-2.0423 -3.8103 -4.1456v -6.9500 c 0.0000,-1.0059 -0.2134,-1.5241 -1.3412 -1.5241c -0.1219,-0.0000 -0.3353,0.0305 -0.5182 0.0305l -0.0914,-0.0305 v -0.7925 l 0.0914,-0.0914 c 0.0000,-0.0000 2.0728,0.0610 3.0483 0.0610c 0.4268,-0.0000 1.1279,-0.0610 1.1279 -0.0610l -0.0305,2.4386 v 6.4928 c 0.0000,2.7129 1.4022,3.2007 2.3167 3.2007c 0.7011,-0.0000 1.3412,-0.2743 1.9814 -0.7316c 0.7316,-0.5487 1.2193,-0.9754 1.5241 -1.3717v -7.5292 c 0.0000,-1.0974 -0.1524,-1.6156 -1.2803 -1.6156c -0.1829,-0.0000 -0.5182,0.0305 -0.6097 0.0305l -0.0610,-0.0610 v -0.7621 l 0.0610,-0.0914 c 0.0000,-0.0000 2.1643,0.0610 3.0178 0.0610c 0.7011,-0.0000 1.1888,-0.0610 1.1888 -0.0610l -0.0305,2.4081 v 7.1939 ZM 236.9354,27.2514 ZM 240.4104,18.8078 h 5.6088 c 0.3048,-0.0000 0.4268,-0.1524 0.4268 -0.4268c 0.0000,-2.8349 -1.4327,-3.5665 -2.5301 -3.5665c -0.7011,-0.0000 -2.9873,0.2743 -3.5055 3.9932ZM 240.4104,18.8078 ZM 248.4578,24.4165 l 0.6097,0.4877 c -1.1583,1.5851 -2.9568,2.7129 -5.1516 2.7129c -4.1761,-0.0000 -5.9441,-3.1092 -5.9441 -6.4318c 0.0000,-4.6334 3.0483,-7.4073 5.9441 -7.4073c 4.0237,-0.0000 4.9687,3.1397 4.9687 5.7002c 0.0000,0.3353 -0.2134,0.5182 -0.5487 0.5182h -8.0169 c -0.0305,0.1829 -0.0305,0.3658 -0.0305 0.6097c 0.0000,3.1092 2.1643,5.5173 4.3590 5.5173c 1.6765,-0.0000 2.7434,-0.5487 3.8103 -1.7070ZM 249.9819,27.2514 ZM 261.0776,25.0567 v -6.6757 c 0.0000,-2.1338 -0.3658,-3.1397 -1.9814 -3.1397c -1.3412,-0.0000 -2.4996,0.5182 -4.0542 2.3472v 7.4682 c 0.0000,0.8840 0.3048,1.3412 1.3108 1.3412h 0.4268 c 0.1524,-0.0000 0.2439,0.0914 0.2439 0.2439v 0.5792 l -0.0610,0.0610 c 0.0000,-0.0000 -1.9204,-0.0610 -3.1092 -0.0610c -1.0974,-0.0000 -3.1702,0.0610 -3.1702 0.0610l -0.0610,-0.0610 v -0.5792 c 0.0000,-0.1524 0.0914,-0.2439 0.2439 -0.2439h 0.5792 c 1.0364,-0.0000 1.3108,-0.4572 1.3108 -1.3412v -7.5902 c 0.0000,-1.6461 -0.2439,-1.8594 -0.6706 -1.8594c -0.3963,-0.0000 -0.7621,0.0305 -1.2803 0.1524l -0.1524,-0.8535 c 1.2803,-0.2134 2.1947,-0.3658 3.1397 -0.8840c 0.3353,-0.1524 0.5792,-0.2439 0.7925 -0.2439h 0.4572 l -0.0914,2.7129 h 0.0914 c 1.9509,-2.2862 3.4140,-2.7129 4.9687 -2.7129c 2.7434,-0.0000 3.3226,2.1033 3.3226 4.8162v 6.4623 c 0.0000,0.8840 0.3353,1.3412 1.3108 1.3412h 0.5792 c 0.1524,-0.0000 0.2743,0.0914 0.2743 0.2439v 0.5792 l -0.0610,0.0610 c 0.0000,-0.0000 -2.1033,-0.0610 -3.2921 -0.0610c -1.0669,-0.0000 -2.9873,0.0610 -2.9873 0.0610l -0.0610,-0.0610 v -0.5792 c 0.0000,-0.1524 0.0914,-0.2439 0.2439 -0.2439h 0.4268 c 1.0059,-0.0000 1.3108,-0.4572 1.3108 -1.3412ZM 265.8328,27.2514 ZM 270.8320,15.3327 v 7.8035 c 0.0000,1.8899 0.1829,2.8044 1.0059 2.8044c 0.7925,-0.0000 1.4022,-0.2439 2.1947 -0.8535l 0.5487,0.5182 c -1.1888,1.3412 -2.4081,2.0119 -3.8103 2.0119c -1.4022,-0.0000 -2.2252,-0.8535 -2.2252 -3.0178v -9.2667 h -1.9814 c -0.0914,-0.0000 -0.1219,-0.0305 -0.1219 -0.1219v -0.9450 c 0.0000,-0.0914 0.0305,-0.1219 0.0914 -0.1219c 2.0423,-0.0000 2.5301,-1.1888 2.5301 -3.5055v -0.5792 l 1.7680,-0.6097 v 4.6943 h 3.3531 c 0.1524,-0.0000 0.2439,0.0610 0.2439 0.1829v 0.6097 c 0.0000,0.2743 -0.4268,0.3963 -0.7316 0.3963h -2.8654 ZM 275.0386,27.2514 ZM 277.9344,25.0567 v -15.2718 c 0.0000,-1.7375 -0.3048,-2.2252 -0.9145 -2.2252l -0.9754,0.1219 c -0.0914,-0.0000 -0.1829,-0.0610 -0.1829 -0.1524l -0.0610,-0.7621 c 0.4877,-0.0000 1.6156,-0.1829 2.1338 -0.2743c 0.5487,-0.1219 0.9754,-0.2439 1.5851 -0.5182h 0.6706 v 19.0821 c 0.0000,0.8840 0.3353,1.3412 1.3108 1.3412h 0.7316 c 0.1219,-0.0000 0.2439,0.0914 0.2439 0.2439v 0.5792 l -0.0610,0.0610 c 0.0000,-0.0000 -2.2252,-0.0610 -3.4140 -0.0610c -1.0669,-0.0000 -3.2921,0.0610 -3.2921 0.0610l -0.0305,-0.0610 v -0.5792 c 0.0000,-0.1524 0.0610,-0.2439 0.2134 -0.2439h 0.7316 c 1.0059,-0.0000 1.3108,-0.4572 1.3108 -1.3412ZM 282.9640,27.2514 ZM 289.3044,14.7536 c 0.0000,0.1524 -0.1829,0.2439 -0.3353 0.2439c -0.9145,-0.0000 -1.3108,0.1829 -1.3108 0.6706c 0.0000,0.1829 0.0610,0.4268 0.1829 0.7011l 3.3531,7.8645 l 3.3836,-7.7426 c 0.1524,-0.2743 0.2134,-0.5182 0.2134 -0.7011c 0.0000,-0.6401 -0.6097,-0.7925 -1.2803 -0.7925h -0.1219 c -0.1524,-0.0000 -0.3048,-0.1219 -0.3048 -0.2134v -0.5792 l 0.0610,-0.0914 c 0.0000,-0.0000 1.7985,0.0610 2.8654 0.0610c 0.8535,-0.0000 2.1033,-0.0610 2.1033 -0.0610l 0.0914,0.0610 v 0.5792 c 0.0000,0.1524 -0.1219,0.2439 -0.3353 0.2439c -1.1583,-0.0000 -1.7375,1.1888 -2.1643 2.0728c -1.6156,3.4140 -2.9568,6.5538 -5.3954 12.4369c -0.9145,2.1947 -2.0119,4.7553 -4.1761 4.7553c -0.5792,-0.0000 -1.7680,-0.3353 -1.7680 -1.4327c 0.0000,-0.9145 0.6706,-1.1888 1.1583 -1.1888c 0.4572,-0.0000 0.7621,0.1829 0.9450 0.4268c 0.3048,0.3048 0.5182,0.5182 0.8230 0.5182c 0.4572,-0.0000 1.5241,-2.6215 2.2862 -4.4809c 0.1829,-0.3658 0.2439,-0.6706 0.2439 -0.9450c 0.0000,-0.3048 -0.2743,-1.1279 -0.5182 -1.7375l -3.8408,-8.9314 c -0.4877,-1.1583 -0.8230,-1.4936 -1.8594 -1.4936c -0.1829,-0.0000 -0.3048,-0.0914 -0.3048 -0.2134v -0.6097 l 0.0610,-0.0610 c 0.0000,-0.0000 1.3412,0.0610 2.2557 0.0610c 1.4327,-0.0000 3.6274,-0.0610 3.6274 -0.0610l 0.0610,0.0914 v 0.5487 ZM 306.1003,27.2514 ZM 316.2815,24.5385 v -7.8950 c -0.7316,-1.1583 -1.5546,-1.7985 -2.9873 -1.7985c -0.6097,-0.0000 -1.8594,0.0914 -2.8349 1.5241c -0.4268,0.6401 -0.9450,1.9509 -0.9450 4.1456c 0.0000,3.9932 2.0728,5.8222 3.7189 5.8222c 1.0059,-0.0000 1.8290,-0.6097 3.0483 -1.7985ZM 316.2815,24.5385 ZM 318.5677,5.9746 v 17.6189 c 0.0000,0.9145 0.0610,1.4022 0.1219 1.6156c 0.0914,0.2743 0.4268,0.4572 0.6706 0.4572c 0.3658,-0.0000 1.0364,-0.0000 1.4936 -0.0914l 0.1219,0.8535 c -1.7680,0.3048 -3.3531,0.6401 -3.9932 1.1888h -0.7316 l 0.0914,-2.1033 c -1.1583,1.1888 -2.3472,2.1033 -3.9018 2.1033c -3.2921,-0.0000 -5.3040,-2.8044 -5.3040 -6.5538c 0.0000,-2.2557 0.6097,-4.1456 1.9204 -5.4564c 1.2193,-1.1583 2.5605,-1.8290 4.5724 -1.8290c 0.6097,-0.0000 1.9509,0.2743 2.6520 0.6706v -4.6638 c 0.0000,-1.7375 -0.2743,-2.2252 -0.8840 -2.2252l -1.0059,0.1219 c -0.0610,-0.0000 -0.1524,-0.0610 -0.1524 -0.1524l -0.0610,-0.7621 c 0.4877,-0.0000 1.5851,-0.1829 2.1033 -0.2743c 0.5792,-0.1219 1.0059,-0.2439 1.6156 -0.5182h 0.6706 ZM 321.1587,27.2514 ZM 322.1951,21.0025 c 0.0000,-4.1761 2.2557,-7.2244 6.3099 -7.2244c 4.5114,-0.0000 6.2489,3.7798 6.2489 6.9500c 0.0000,3.0483 -1.9814,6.8891 -6.3099 6.8891c -4.0847,-0.0000 -6.2489,-3.5055 -6.2489 -6.6147ZM 322.1951,21.0025 ZM 328.1697,14.7840 c -2.4386,-0.0000 -3.5665,2.8654 -3.5665 5.5173c 0.0000,2.3472 1.3412,6.2489 4.3590 6.2489c 1.3717,-0.0000 3.3836,-0.8230 3.3836 -4.8467c 0.0000,-4.4809 -1.6765,-6.9195 -4.1761 -6.9195ZM 343.3805,27.2514 ZM 349.7209,14.7536 c 0.0000,0.1524 -0.1829,0.2439 -0.3353 0.2439c -0.9145,-0.0000 -1.3108,0.1829 -1.3108 0.6706c 0.0000,0.1829 0.0610,0.4268 0.1829 0.7011l 3.3531,7.8645 l 3.3836,-7.7426 c 0.1524,-0.2743 0.2134,-0.5182 0.2134 -0.7011c 0.0000,-0.6401 -0.6097,-0.7925 -1.2803 -0.7925h -0.1219 c -0.1524,-0.0000 -0.3048,-0.1219 -0.3048 -0.2134v -0.5792 l 0.0610,-0.0914 c 0.0000,-0.0000 1.7985,0.0610 2.8654 0.0610c 0.8535,-0.0000 2.1033,-0.0610 2.1033 -0.0610l 0.0914,0.0610 v 0.5792 c 0.0000,0.1524 -0.1219,0.2439 -0.3353 0.2439c -1.1583,-0.0000 -1.7375,1.1888 -2.1643 2.0728c -1.6156,3.4140 -2.9568,6.5538 -5.3954 12.4369c -0.9145,2.1947 -2.0119,4.7553 -4.1761 4.7553c -0.5792,-0.0000 -1.7680,-0.3353 -1.7680 -1.4327c 0.0000,-0.9145 0.6706,-1.1888 1.1583 -1.1888c 0.4572,-0.0000 0.7621,0.1829 0.9450 0.4268c 0.3048,0.3048 0.5182,0.5182 0.8230 0.5182c 0.4572,-0.0000 1.5241,-2.6215 2.2862 -4.4809c 0.1829,-0.3658 0.2439,-0.6706 0.2439 -0.9450c 0.0000,-0.3048 -0.2743,-1.1279 -0.5182 -1.7375l -3.8408,-8.9314 c -0.4877,-1.1583 -0.8230,-1.4936 -1.8594 -1.4936c -0.1829,-0.0000 -0.3048,-0.0914 -0.3048 -0.2134v -0.6097 l 0.0610,-0.0610 c 0.0000,-0.0000 1.3412,0.0610 2.2557 0.0610c 1.4327,-0.0000 3.6274,-0.0610 3.6274 -0.0610l 0.0610,0.0914 v 0.5487 ZM 358.8961,27.2514 ZM 359.9326,21.0025 c 0.0000,-4.1761 2.2557,-7.2244 6.3099 -7.2244c 4.5114,-0.0000 6.2489,3.7798 6.2489 6.9500c 0.0000,3.0483 -1.9814,6.8891 -6.3099 6.8891c -4.0847,-0.0000 -6.2489,-3.5055 -6.2489 -6.6147ZM 359.9326,21.0025 ZM 365.9071,14.7840 c -2.4386,-0.0000 -3.5665,2.8654 -3.5665 5.5173c 0.0000,2.3472 1.3412,6.2489 4.3590 6.2489c 1.3717,-0.0000 3.3836,-0.8230 3.3836 -4.8467c 0.0000,-4.4809 -1.6765,-6.9195 -4.1761 -6.9195ZM 373.4973,27.2514 ZM 386.5743,23.7154 c 0.0000,1.5241 0.1524,2.0119 0.7621 2.0119c 0.3658,-0.0000 1.0364,-0.0610 1.5546 -0.1524l 0.1219,0.8535 c -1.8594,0.3353 -3.3531,0.6401 -4.0542 1.1888h -0.6706 l 0.0914,-2.2557 h -0.0914 c -1.6765,1.8290 -3.0483,2.2557 -4.2980 2.2557c -3.0178,-0.0000 -3.8103,-2.0423 -3.8103 -4.1456v -6.9500 c 0.0000,-1.0059 -0.2134,-1.5241 -1.3412 -1.5241c -0.1219,-0.0000 -0.3353,0.0305 -0.5182 0.0305l -0.0914,-0.0305 v -0.7925 l 0.0914,-0.0914 c 0.0000,-0.0000 2.0728,0.0610 3.0483 0.0610c 0.4268,-0.0000 1.1279,-0.0610 1.1279 -0.0610l -0.0305,2.4386 v 6.4928 c 0.0000,2.7129 1.4022,3.2007 2.3167 3.2007c 0.7011,-0.0000 1.3412,-0.2743 1.9814 -0.7316c 0.7316,-0.5487 1.2193,-0.9754 1.5241 -1.3717v -7.5292 c 0.0000,-1.0974 -0.1524,-1.6156 -1.2803 -1.6156c -0.1829,-0.0000 -0.5182,0.0305 -0.6097 0.0305l -0.0610,-0.0610 v -0.7621 l 0.0610,-0.0914 c 0.0000,-0.0000 2.1643,0.0610 3.0178 0.0610c 0.7011,-0.0000 1.1888,-0.0610 1.1888 -0.0610l -0.0305,2.4081 v 7.1939 ZM 396.8774,27.2514 ZM 409.9545,23.7154 c 0.0000,1.5241 0.1524,2.0119 0.7621 2.0119c 0.3658,-0.0000 1.0364,-0.0610 1.5546 -0.1524l 0.1219,0.8535 c -1.8594,0.3353 -3.3531,0.6401 -4.0542 1.1888h -0.6706 l 0.0914,-2.2557 h -0.0914 c -1.6765,1.8290 -3.0483,2.2557 -4.2980 2.2557c -3.0178,-0.0000 -3.8103,-2.0423 -3.8103 -4.1456v -6.9500 c 0.0000,-1.0059 -0.2134,-1.5241 -1.3412 -1.5241c -0.1219,-0.0000 -0.3353,0.0305 -0.5182 0.0305l -0.0914,-0.0305 v -0.7925 l 0.0914,-0.0914 c 0.0000,-0.0000 2.0728,0.0610 3.0483 0.0610c 0.4268,-0.0000 1.1279,-0.0610 1.1279 -0.0610l -0.0305,2.4386 v 6.4928 c 0.0000,2.7129 1.4022,3.2007 2.3167 3.2007c 0.7011,-0.0000 1.3412,-0.2743 1.9814 -0.7316c 0.7316,-0.5487 1.2193,-0.9754 1.5241 -1.3717v -7.5292 c 0.0000,-1.0974 -0.1524,-1.6156 -1.2803 -1.6156c -0.1829,-0.0000 -0.5182,0.0305 -0.6097 0.0305l -0.0610,-0.0610 v -0.7621 l 0.0610,-0.0914 c 0.0000,-0.0000 2.1643,0.0610 3.0178 0.0610c 0.7011,-0.0000 1.1888,-0.0610 1.1888 -0.0610l -0.0305,2.4081 v 7.1939 ZM 412.6369,27.2514 ZM 413.9477,22.9839 l 0.8230,-0.0305 c 0.0914,0.7621 0.4268,2.2252 1.0974 2.9263c 0.3048,0.3353 1.1279,0.8840 2.2557 0.8840c 1.0669,-0.0000 2.6520,-0.8535 2.6520 -2.3472c 0.0000,-1.3108 -0.7316,-2.1947 -3.1397 -3.2312c -2.2252,-0.9754 -3.3836,-1.6156 -3.3836 -3.9018c 0.0000,-2.0423 1.7985,-3.5055 4.2066 -3.5055c 1.5241,-0.0000 2.6520,0.2743 3.5969 0.7621c 0.1829,0.9754 0.2743,2.0119 0.3353 3.1092l -0.8230,0.0305 c -0.6401,-2.4996 -2.4691,-2.9873 -3.1092 -2.9873c -1.1583,-0.0000 -2.3472,0.4572 -2.3472 2.1338c 0.0000,1.2193 0.5792,1.8290 2.2557 2.4386c 2.4691,0.9145 4.4505,2.0119 4.4505 4.4505c 0.0000,3.0178 -3.2007,3.9018 -4.6334 3.9018c -1.0669,-0.0000 -1.9509,-0.1219 -2.7434 -0.3353c -0.2134,-0.0305 -0.3658,-0.0610 -0.5792 -0.0610c -0.1524,-0.0000 -0.3963,0.0305 -0.7011 0.0914c 0.0000,-1.2803 -0.0914,-2.8349 -0.2134 -4.3285ZM 423.9460,27.2514 ZM 427.4210,18.8078 h 5.6088 c 0.3048,-0.0000 0.4268,-0.1524 0.4268 -0.4268c 0.0000,-2.8349 -1.4327,-3.5665 -2.5301 -3.5665c -0.7011,-0.0000 -2.9873,0.2743 -3.5055 3.9932ZM 427.4210,18.8078 ZM 435.4684,24.4165 l 0.6097,0.4877 c -1.1583,1.5851 -2.9568,2.7129 -5.1516 2.7129c -4.1761,-0.0000 -5.9441,-3.1092 -5.9441 -6.4318c 0.0000,-4.6334 3.0483,-7.4073 5.9441 -7.4073c 4.0237,-0.0000 4.9687,3.1397 4.9687 5.7002c 0.0000,0.3353 -0.2134,0.5182 -0.5487 0.5182h -8.0169 c -0.0305,0.1829 -0.0305,0.3658 -0.0305 0.6097c 0.0000,3.1092 2.1643,5.5173 4.3590 5.5173c 1.6765,-0.0000 2.7434,-0.5487 3.8103 -1.7070ZM 444.6132,27.2514 ZM 460.2812,25.0567 v -7.6816 h -9.9678 v 7.6816 c 0.0000,0.9450 0.4572,1.3412 1.6765 1.3412h 0.7925 c 0.1219,-0.0000 0.2439,0.0914 0.2439 0.2439v 0.5792 l -0.0610,0.0610 c 0.0000,-0.0000 -2.6215,-0.0610 -3.8408 -0.0610c -1.0669,-0.0000 -3.9018,0.0610 -3.9018 0.0610l -0.0610,-0.0610 v -0.5792 c 0.0000,-0.1524 0.0914,-0.2439 0.2134 -0.2439h 0.8230 c 1.2498,-0.0000 1.6461,-0.4877 1.6461 -1.3412v -15.3023 c 0.0000,-0.9145 -0.4572,-1.3412 -1.6461 -1.3412h -0.8230 c -0.1219,-0.0000 -0.2439,-0.0914 -0.2439 -0.2439v -0.5792 l 0.0610,-0.0305 c 0.0000,-0.0000 2.6520,0.0305 3.8408 0.0305c 1.0974,-0.0000 3.9323,-0.0305 3.9323 -0.0305l 0.0610,0.0305 v 0.5792 c 0.0000,0.1524 -0.0914,0.2439 -0.2439 0.2439h -0.7925 c -1.2498,-0.0000 -1.6765,0.4877 -1.6765 1.3412v 6.4318 h 9.9678 v -6.4318 c 0.0000,-0.9145 -0.4572,-1.3412 -1.6765 -1.3412h -0.7925 c -0.1524,-0.0000 -0.2743,-0.0914 -0.2743 -0.2439v -0.5792 l 0.0610,-0.0305 c 0.0000,-0.0000 2.6520,0.0305 3.8408 0.0305c 1.0974,-0.0000 3.9323,-0.0305 3.9323 -0.0305l 0.0610,0.0305 v 0.5792 c 0.0000,0.1524 -0.0914,0.2439 -0.2439 0.2439h -0.7925 c -1.2498,-0.0000 -1.6765,0.4877 -1.6765 1.3412v 15.3023 c 0.0000,0.9450 0.4572,1.3412 1.6765 1.3412h 0.7925 c 0.1524,-0.0000 0.2743,0.0914 0.2743 0.2439v 0.5792 l -0.0610,0.0610 c 0.0000,-0.0000 -2.6520,-0.0610 -3.8408 -0.0610c -1.0974,-0.0000 -3.9323,0.0610 -3.9323 0.0610l -0.0610,-0.0610 v -0.5792 c 0.0000,-0.1524 0.0914,-0.2439 0.2439 -0.2439h 0.7925 c 1.2498,-0.0000 1.6765,-0.4877 1.6765 -1.3412ZM 465.9510,27.2514 ZM 474.8214,19.7832 l -2.4081,0.6097 c -2.6825,0.8230 -3.0787,2.2252 -3.0787 3.5969c 0.0000,0.9450 0.4572,2.3776 2.3776 2.3776c 0.9145,-0.0000 2.3167,-0.8840 3.1092 -1.5546v -5.0296 ZM 474.8214,19.7832 ZM 476.7723,27.6172 c -1.1583,-0.0000 -1.7985,-1.0364 -1.9204 -1.7680l -0.7011,0.4877 c -1.4022,0.9754 -1.9204,1.2803 -3.3226 1.2803c -2.1338,-0.0000 -3.6884,-1.2193 -3.6884 -3.5055c 0.0000,-2.3167 1.9814,-3.9018 4.8772 -4.6334l 2.8044,-0.7011 c 0.0000,-3.4445 -1.5851,-4.0847 -2.6215 -4.0847c -1.1583,-0.0000 -2.4996,0.5182 -2.4996 1.4632c 0.0000,0.3353 0.0610,0.5182 0.0914 0.6097c 0.0610,0.1219 0.0914,0.3353 0.0914 0.5487c 0.0000,0.3963 -0.3048,1.0059 -1.1888 1.0059c -0.7316,-0.0000 -1.2193,-0.4877 -1.2193 -1.2193c 0.0000,-1.7680 2.8654,-3.3226 4.8162 -3.3226c 2.2252,-0.0000 4.7858,0.9145 4.7858 5.2430v 4.4809 c 0.0000,1.8594 0.0305,2.6520 0.7316 2.6520c 0.6706,-0.0000 0.8535,-0.8535 0.8840 -1.5241l 0.7621,0.1524 c -0.1829,2.2252 -1.1279,2.8349 -2.6825 2.8349ZM 479.6986,27.2514 ZM 481.0094,22.9839 l 0.8230,-0.0305 c 0.0914,0.7621 0.4268,2.2252 1.0974 2.9263c 0.3048,0.3353 1.1279,0.8840 2.2557 0.8840c 1.0669,-0.0000 2.6520,-0.8535 2.6520 -2.3472c 0.0000,-1.3108 -0.7316,-2.1947 -3.1397 -3.2312c -2.2252,-0.9754 -3.3836,-1.6156 -3.3836 -3.9018c 0.0000,-2.0423 1.7985,-3.5055 4.2066 -3.5055c 1.5241,-0.0000 2.6520,0.2743 3.5969 0.7621c 0.1829,0.9754 0.2743,2.0119 0.3353 3.1092l -0.8230,0.0305 c -0.6401,-2.4996 -2.4691,-2.9873 -3.1092 -2.9873c -1.1583,-0.0000 -2.3472,0.4572 -2.3472 2.1338c 0.0000,1.2193 0.5792,1.8290 2.2557 2.4386c 2.4691,0.9145 4.4505,2.0119 4.4505 4.4505c 0.0000,3.0178 -3.2007,3.9018 -4.6334 3.9018c -1.0669,-0.0000 -1.9509,-0.1219 -2.7434 -0.3353c -0.2134,-0.0305 -0.3658,-0.0610 -0.5792 -0.0610c -0.1524,-0.0000 -0.3963,0.0305 -0.7011 0.0914c 0.0000,-1.2803 -0.0914,-2.8349 -0.2134 -4.3285ZM 491.0076,27.2514 ZM 495.9763,20.7891 v 4.2676 c 0.0000,0.8840 0.3048,1.3412 1.3108 1.3412h 0.0610 c 0.1219,-0.0000 0.2439,0.0914 0.2439 0.2439v 0.5792 l -0.0610,0.0610 c 0.0000,-0.0000 -1.5546,-0.0610 -2.7434 -0.0610c -1.0974,-0.0000 -3.1397,0.0610 -3.1397 0.0610l -0.0610,-0.0610 v -0.5792 c 0.0000,-0.1524 0.0610,-0.2439 0.2134 -0.2439h 0.5792 c 1.0364,-0.0000 1.3108,-0.4572 1.3108 -1.3412v -15.2718 c 0.0000,-1.7375 -0.2743,-2.2252 -0.8840 -2.2252l -1.0059,0.1219 c -0.0914,-0.0000 -0.1524,-0.0610 -0.1524 -0.1524l -0.0610,-0.7621 c 0.4877,-0.0000 1.5851,-0.1829 2.1033 -0.2743c 0.5487,-0.1219 1.0059,-0.2439 1.6156 -0.5182h 0.6706 v 14.0525 c 0.7925,-0.1829 2.3472,-1.5546 3.9932 -3.3531c 0.4877,-0.4877 0.6097,-0.8840 0.6097 -1.1888c 0.0000,-0.2439 -0.1524,-0.4877 -0.8840 -0.4877h -0.1219 c -0.1524,-0.0000 -0.2439,-0.1219 -0.2439 -0.2439v -0.5792 l 0.0914,-0.0610 c 0.0000,-0.0000 1.4632,0.0610 2.5301 0.0610c 1.1888,-0.0000 2.8349,-0.0610 2.8349 -0.0610l 0.1219,0.0610 v 0.5792 c 0.0000,0.1524 -0.1829,0.2439 -0.3353 0.2439h -0.2134 c -0.8230,-0.0000 -2.1643,0.6706 -2.9263 1.4632l -2.3167,2.5605 c -0.0914,0.0914 -0.1219,0.1829 -0.1219 0.3048c 0.0000,0.1524 0.0610,0.3048 0.1524 0.4268l 3.5665,5.2735 c 0.5487,0.8230 1.5241,1.3717 2.2862 1.3717h 0.2134 c 0.2134,-0.0000 0.2743,0.0914 0.2743 0.2439v 0.5792 l -0.0610,0.0610 c 0.0000,-0.0000 -1.5546,-0.0610 -2.7434 -0.0610c -1.0669,-0.0000 -1.8899,0.0610 -1.8899 0.0610l -0.0914,-0.0610 v -0.5792 c 0.0000,-0.3963 -0.0914,-0.7316 -0.7011 -1.6156l -2.2252,-3.1397 c -0.6097,-0.8840 -1.0364,-1.0974 -1.7985 -1.0974ZM 505.6088,27.2514 ZM 509.0838,18.8078 h 5.6088 c 0.3048,-0.0000 0.4268,-0.1524 0.4268 -0.4268c 0.0000,-2.8349 -1.4327,-3.5665 -2.5301 -3.5665c -0.7011,-0.0000 -2.9873,0.2743 -3.5055 3.9932ZM 509.0838,18.8078 ZM 517.1312,24.4165 l 0.6097,0.4877 c -1.1583,1.5851 -2.9568,2.7129 -5.1516 2.7129c -4.1761,-0.0000 -5.9441,-3.1092 -5.9441 -6.4318c 0.0000,-4.6334 3.0483,-7.4073 5.9441 -7.4073c 4.0237,-0.0000 4.9687,3.1397 4.9687 5.7002c 0.0000,0.3353 -0.2134,0.5182 -0.5487 0.5182h -8.0169 c -0.0305,0.1829 -0.0305,0.3658 -0.0305 0.6097c 0.0000,3.1092 2.1643,5.5173 4.3590 5.5173c 1.6765,-0.0000 2.7434,-0.5487 3.8103 -1.7070ZM 518.6553,27.2514 ZM 521.5512,25.0567 v -15.2718 c 0.0000,-1.7375 -0.3048,-2.2252 -0.9145 -2.2252l -0.9754,0.1219 c -0.0914,-0.0000 -0.1829,-0.0610 -0.1829 -0.1524l -0.0610,-0.7621 c 0.4877,-0.0000 1.6156,-0.1829 2.1338 -0.2743c 0.5487,-0.1219 0.9754,-0.2439 1.5851 -0.5182h 0.6706 v 19.0821 c 0.0000,0.8840 0.3353,1.3412 1.3108 1.3412h 0.7316 c 0.1219,-0.0000 0.2439,0.0914 0.2439 0.2439v 0.5792 l -0.0610,0.0610 c 0.0000,-0.0000 -2.2252,-0.0610 -3.4140 -0.0610c -1.0669,-0.0000 -3.2921,0.0610 -3.2921 0.0610l -0.0305,-0.0610 v -0.5792 c 0.0000,-0.1524 0.0610,-0.2439 0.2134 -0.2439h 0.7316 c 1.0059,-0.0000 1.3108,-0.4572 1.3108 -1.3412ZM 526.5808,27.2514 ZM 529.4767,25.0567 v -15.2718 c 0.0000,-1.7375 -0.3048,-2.2252 -0.9145 -2.2252l -0.9754,0.1219 c -0.0914,-0.0000 -0.1829,-0.0610 -0.1829 -0.1524l -0.0610,-0.7621 c 0.4877,-0.0000 1.6156,-0.1829 2.1338 -0.2743c 0.5487,-0.1219 0.9754,-0.2439 1.5851 -0.5182h 0.6706 v 19.0821 c 0.0000,0.8840 0.3353,1.3412 1.3108 1.3412h 0.7316 c 0.1219,-0.0000 0.2439,0.0914 0.2439 0.2439v 0.5792 l -0.0610,0.0610 c 0.0000,-0.0000 -2.2252,-0.0610 -3.4140 -0.0610c -1.0669,-0.0000 -3.2921,0.0610 -3.2921 0.0610l -0.0305,-0.0610 v -0.5792 c 0.0000,-0.1524 0.0610,-0.2439 0.2134 -0.2439h 0.7316 c 1.0059,-0.0000 1.3108,-0.4572 1.3108 -1.3412ZM 534.5063,27.2514 ZM 537.4631,9.8154 c 0.0000,0.4572 0.0610,0.6401 0.1829 0.7925c 0.1219,0.1524 0.1829,0.3353 0.1829 0.7316c 0.0000,0.7011 -0.6097,1.0669 -1.1888 1.0669c -0.4877,-0.0000 -1.2498,-0.2439 -1.2498 -1.3108c 0.0000,-1.1583 0.6401,-2.0119 1.5546 -2.7434c 0.8840,-0.7621 2.1643,-1.1888 3.7798 -1.1888c 3.1092,-0.0000 5.0296,1.8290 5.0296 4.6029c 0.0000,2.4081 -1.7985,3.7494 -3.2312 4.7858c -0.7011,0.5182 -1.3108,1.0059 -1.5851 1.5241c -0.3963,0.7621 -0.5487,1.4936 -0.5487 2.2252v 1.3412 c 0.0000,0.2134 -0.1524,0.3048 -0.3963 0.3048c -0.2439,-0.0000 -0.3963,-0.0914 -0.3963 -0.3048v -1.4022 c 0.0000,-1.3108 0.0610,-3.1092 2.0423 -4.9077c 1.2193,-1.1279 1.8290,-2.0119 1.8290 -3.4445c 0.0000,-1.9814 -1.3108,-3.8103 -3.0483 -3.8103c -1.7375,-0.0000 -2.9568,0.8230 -2.9568 1.7375ZM 537.4631,9.8154 ZM 538.3776,26.0016 c 0.0000,-0.8840 0.7316,-1.6156 1.6156 -1.6156c 0.8840,-0.0000 1.6156,0.7316 1.6156 1.6156c 0.0000,0.8840 -0.7316,1.6156 -1.6156 1.6156c -0.8840,-0.0000 -1.6156,-0.7316 -1.6156 -1.6156Z"/></g><g stroke-linejoin="miter" stroke-opacity="0.0" fill-opacity="0.1" stroke="rgb(0,0,0)" stroke-width="0.0" fill="rgb(0,0,0)" stroke-linecap="butt" stroke-miterlimit="10.0"><path d="M 556.1337,367.8333 l -0.0000,-6.1270 h -459.5249 l -0.0000,6.1270 Z"/></g><g stroke-linejoin="miter" stroke-opacity="1.0" fill-opacity="0.6" stroke="rgb(0,0,0)" fill-rule="evenodd" stroke-width="0.0" fill="rgb(0,0,0)" stroke-linecap="butt" stroke-miterlimit="10.0"><path d="M 484.0779,393.6596 ZM 492.5318,383.9458 c 0.0000,-2.3980 -1.6664,-3.0076 -2.8857 -3.0076c -0.7316,-0.0000 -1.3006,0.0610 -1.7680 0.1626v 6.0152 h 1.0161 c 1.5241,-0.0000 2.4996,-0.3455 2.9873 -1.0364c 0.3861,-0.5690 0.6503,-1.2803 0.6503 -2.1338ZM 492.5318,383.9458 ZM 494.1778,383.9255 c 0.0000,2.1338 -1.9102,3.2921 -2.7841 3.5766l 2.1541,4.1660 c 0.4471,0.8738 0.9958,1.5648 1.9102 1.5648l 0.0610,0.4268 c -0.2032,0.0813 -0.5487,0.1219 -0.8535 0.1219c -1.2193,-0.0000 -2.1135,-0.7722 -2.6418 -1.7273l -2.0931,-3.9018 c -0.0813,-0.1423 -0.6909,-0.2642 -2.0525 -0.2642v 4.3082 c 0.0000,0.6097 0.3048,0.8942 1.0974 0.8942h 0.5487 c 0.0813,-0.0000 0.1626,0.0610 0.1626 0.1626v 0.3861 l -0.0406,0.0406 c 0.0000,-0.0000 -1.7680,-0.0406 -2.5605 -0.0406c -0.7316,-0.0000 -2.6215,0.0406 -2.6215 0.0406l -0.0406,-0.0406 v -0.3861 c 0.0000,-0.1016 0.0610,-0.1626 0.1626 -0.1626h 0.5284 c 0.8332,-0.0000 1.1177,-0.3251 1.1177 -0.8942v -10.2015 c 0.0000,-0.5893 -0.0813,-0.9348 -0.6097 -0.9348c -0.0610,-0.0000 -0.1016,-0.0000 -0.1423 0.0203l -0.6097,0.0610 c -0.1016,-0.0000 -0.1626,-0.0610 -0.1626 -0.1423v -0.3861 c 0.4268,-0.1016 2.3370,-0.2439 4.7146 -0.2439c 1.2803,-0.0000 2.7028,0.1016 3.6782 1.0161c 0.7316,0.6909 1.0771,1.5241 1.0771 2.5402ZM 495.7426,393.6596 ZM 501.6562,388.6808 l -1.6054,0.4064 c -1.7883,0.5487 -2.0525,1.4835 -2.0525 2.3980c 0.0000,0.6300 0.3048,1.5851 1.5851 1.5851c 0.6097,-0.0000 1.5445,-0.5893 2.0728 -1.0364v -3.3531 ZM 501.6562,388.6808 ZM 502.9568,393.9035 c -0.7722,-0.0000 -1.1990,-0.6909 -1.2803 -1.1787l -0.4674,0.3251 c -0.9348,0.6503 -1.2803,0.8535 -2.2151 0.8535c -1.4225,-0.0000 -2.4589,-0.8129 -2.4589 -2.3370c 0.0000,-1.5445 1.3209,-2.6012 3.2515 -3.0889l 1.8696,-0.4674 c 0.0000,-2.2964 -1.0567,-2.7231 -1.7477 -2.7231c -0.7722,-0.0000 -1.6664,0.3455 -1.6664 0.9754c 0.0000,0.2235 0.0406,0.3455 0.0610 0.4064c 0.0406,0.0813 0.0610,0.2235 0.0610 0.3658c 0.0000,0.2642 -0.2032,0.6706 -0.7925 0.6706c -0.4877,-0.0000 -0.8129,-0.3251 -0.8129 -0.8129c 0.0000,-1.1787 1.9102,-2.2151 3.2108 -2.2151c 1.4835,-0.0000 3.1905,0.6097 3.1905 3.4953v 2.9873 c 0.0000,1.2396 0.0203,1.7680 0.4877 1.7680c 0.4471,-0.0000 0.5690,-0.5690 0.5893 -1.0161l 0.5080,0.1016 c -0.1219,1.4835 -0.7519,1.8899 -1.7883 1.8899ZM 504.9077,393.6596 ZM 506.7163,392.1965 v -5.0601 c 0.0000,-1.0161 -0.1423,-1.2396 -0.4471 -1.2396c -0.2642,-0.0000 -0.5080,0.0203 -0.8535 0.1016l -0.1016,-0.5690 c 1.2803,-0.2235 1.5038,-0.2845 2.1135 -0.5893c 0.2032,-0.1016 0.3658,-0.1626 0.5080 -0.1626h 0.3048 l -0.0610,1.8290 h 0.0610 c 0.5284,-0.7925 1.4225,-1.8290 2.3776 -1.8290c 0.8332,-0.0000 1.1380,0.4064 1.1380 0.9348c 0.0000,0.5284 -0.3455,0.8535 -0.8738 0.8535c -0.4064,-0.0000 -0.6300,-0.1626 -0.8332 -0.3658c -0.1219,-0.1219 -0.2642,-0.1829 -0.4064 -0.1829c -0.2235,-0.0000 -0.6706,0.3658 -1.1583 1.0567c -0.1423,0.1829 -0.2439,0.4471 -0.2439 0.7113v 4.5114 c 0.0000,0.5893 0.2032,0.8942 0.8738 0.8942h 0.5893 c 0.1016,-0.0000 0.1829,0.0610 0.1829 0.1626v 0.3861 l -0.0406,0.0406 c 0.0000,-0.0000 -1.6054,-0.0406 -2.3980 -0.0406c -0.7316,-0.0000 -2.1135,0.0406 -2.1135 0.0406l -0.0203,-0.0406 v -0.3861 c 0.0000,-0.1016 0.0406,-0.1626 0.1423 -0.1626h 0.3861 c 0.6909,-0.0000 0.8738,-0.3048 0.8738 -0.8942ZM 511.9593,393.6596 ZM 514.2760,388.0305 h 3.7392 c 0.2032,-0.0000 0.2845,-0.1016 0.2845 -0.2845c 0.0000,-1.8899 -0.9551,-2.3776 -1.6867 -2.3776c -0.4674,-0.0000 -1.9915,0.1829 -2.3370 2.6621ZM 514.2760,388.0305 ZM 519.6409,391.7697 l 0.4064,0.3251 c -0.7722,1.0567 -1.9712,1.8086 -3.4344 1.8086c -2.7841,-0.0000 -3.9627,-2.0728 -3.9627 -4.2879c 0.0000,-3.0889 2.0322,-4.9382 3.9627 -4.9382c 2.6825,-0.0000 3.3124,2.0931 3.3124 3.8002c 0.0000,0.2235 -0.1423,0.3455 -0.3658 0.3455h -5.3446 c -0.0203,0.1219 -0.0203,0.2439 -0.0203 0.4064c 0.0000,2.0728 1.4428,3.6782 2.9060 3.6782c 1.1177,-0.0000 1.8290,-0.3658 2.5402 -1.1380ZM 520.6570,393.6596 ZM 522.5876,392.1965 v -10.1812 c 0.0000,-1.1583 -0.2032,-1.4835 -0.6097 -1.4835l -0.6503,0.0813 c -0.0610,-0.0000 -0.1219,-0.0406 -0.1219 -0.1016l -0.0406,-0.5080 c 0.3251,-0.0000 1.0771,-0.1219 1.4225 -0.1829c 0.3658,-0.0813 0.6503,-0.1626 1.0567 -0.3455h 0.4471 v 12.7214 c 0.0000,0.5893 0.2235,0.8942 0.8738 0.8942h 0.4877 c 0.0813,-0.0000 0.1626,0.0610 0.1626 0.1626v 0.3861 l -0.0406,0.0406 c 0.0000,-0.0000 -1.4835,-0.0406 -2.2760 -0.0406c -0.7113,-0.0000 -2.1947,0.0406 -2.1947 0.0406l -0.0203,-0.0406 v -0.3861 c 0.0000,-0.1016 0.0406,-0.1626 0.1423 -0.1626h 0.4877 c 0.6706,-0.0000 0.8738,-0.3048 0.8738 -0.8942ZM 525.9407,393.6596 ZM 530.1676,385.3277 c 0.0000,0.1016 -0.1219,0.1626 -0.2235 0.1626c -0.6097,-0.0000 -0.8738,0.1219 -0.8738 0.4471c 0.0000,0.1219 0.0406,0.2845 0.1219 0.4674l 2.2354,5.2430 l 2.2557,-5.1617 c 0.1016,-0.1829 0.1423,-0.3455 0.1423 -0.4674c 0.0000,-0.4268 -0.4064,-0.5284 -0.8535 -0.5284h -0.0813 c -0.1016,-0.0000 -0.2032,-0.0813 -0.2032 -0.1423v -0.3861 l 0.0406,-0.0610 c 0.0000,-0.0000 1.1990,0.0406 1.9102 0.0406c 0.5690,-0.0000 1.4022,-0.0406 1.4022 -0.0406l 0.0610,0.0406 v 0.3861 c 0.0000,0.1016 -0.0813,0.1626 -0.2235 0.1626c -0.7722,-0.0000 -1.1583,0.7925 -1.4428 1.3819c -1.0771,2.2760 -1.9712,4.3692 -3.5969 8.2913c -0.6097,1.4632 -1.3412,3.1702 -2.7841 3.1702c -0.3861,-0.0000 -1.1787,-0.2235 -1.1787 -0.9551c 0.0000,-0.6097 0.4471,-0.7925 0.7722 -0.7925c 0.3048,-0.0000 0.5080,0.1219 0.6300 0.2845c 0.2032,0.2032 0.3455,0.3455 0.5487 0.3455c 0.3048,-0.0000 1.0161,-1.7477 1.5241 -2.9873c 0.1219,-0.2439 0.1626,-0.4471 0.1626 -0.6300c 0.0000,-0.2032 -0.1829,-0.7519 -0.3455 -1.1583l -2.5605,-5.9543 c -0.3251,-0.7722 -0.5487,-0.9958 -1.2396 -0.9958c -0.1219,-0.0000 -0.2032,-0.0610 -0.2032 -0.1423v -0.4064 l 0.0406,-0.0406 c 0.0000,-0.0000 0.8942,0.0406 1.5038 0.0406c 0.9551,-0.0000 2.4183,-0.0406 2.4183 -0.0406l 0.0406,0.0610 v 0.3658 Z"/></g><g stroke-linejoin="miter" stroke-opacity="0.6" fill-opacity="0.0" stroke="rgb(0,0,0)" stroke-width="2.263332348999894" fill="rgb(0,0,0)" stroke-linecap="butt" stroke-miterlimit="10.0"><path d="M 510.1812,361.7063 v 9.1905 "/></g><g stroke-linejoin="miter" stroke-opacity="1.0" fill-opacity="0.6" stroke="rgb(0,0,0)" fill-rule="evenodd" stroke-width="0.0" fill="rgb(0,0,0)" stroke-linecap="butt" stroke-miterlimit="10.0"><path d="M 392.6708,393.6596 ZM 397.8326,392.1965 v -4.2472 l -3.4547,-5.9543 c -0.2235,-0.4064 -0.4064,-0.6300 -0.6706 -0.7925c -0.1016,-0.0610 -0.2845,-0.1016 -0.5893 -0.1016h -0.2439 c -0.0610,-0.0000 -0.2032,-0.0203 -0.2032 -0.1423v -0.4064 l 0.0203,-0.0203 c 0.0000,-0.0000 1.8899,0.0203 2.1541 0.0203c 0.1219,-0.0000 2.3370,-0.0203 2.3370 -0.0203l 0.0203,0.0203 v 0.3861 c 0.0000,0.0813 -0.0406,0.1626 -0.1219 0.1626h -0.5893 c -0.3861,-0.0000 -0.5080,0.0813 -0.5080 0.2642c 0.0000,0.1219 0.0813,0.3048 0.2439 0.5893l 2.8450,4.7756 l 2.5809,-4.7756 c 0.1626,-0.2845 0.2235,-0.4674 0.2235 -0.5690c 0.0000,-0.2235 -0.1016,-0.2845 -0.5080 -0.2845h -0.6097 c -0.0813,-0.0000 -0.1016,-0.0813 -0.1016 -0.1423v -0.4064 l 0.0203,-0.0203 c 0.0000,-0.0000 1.6054,0.0203 1.8696 0.0203c 0.1829,-0.0000 1.7680,-0.0203 1.7680 -0.0203l 0.0406,0.0203 v 0.4064 c 0.0000,0.1016 -0.0813,0.1423 -0.2032 0.1423h -0.4268 c -0.6097,-0.0000 -0.8738,0.2439 -1.2396 0.8942l -3.0279,5.7104 v 4.4911 c 0.0000,0.6300 0.3251,0.8942 1.1177 0.8942h 0.5487 c 0.0813,-0.0000 0.1626,0.0610 0.1626 0.1626v 0.3861 l -0.0406,0.0406 c 0.0000,-0.0000 -1.7680,-0.0406 -2.5605 -0.0406c -0.7316,-0.0000 -2.6215,0.0406 -2.6215 0.0406l -0.0406,-0.0406 v -0.3861 c 0.0000,-0.1016 0.0610,-0.1626 0.1626 -0.1626h 0.5284 c 0.8332,-0.0000 1.1177,-0.3251 1.1177 -0.8942ZM 404.3355,393.6596 ZM 406.6522,388.0305 h 3.7392 c 0.2032,-0.0000 0.2845,-0.1016 0.2845 -0.2845c 0.0000,-1.8899 -0.9551,-2.3776 -1.6867 -2.3776c -0.4674,-0.0000 -1.9915,0.1829 -2.3370 2.6621ZM 406.6522,388.0305 ZM 412.0171,391.7697 l 0.4064,0.3251 c -0.7722,1.0567 -1.9712,1.8086 -3.4344 1.8086c -2.7841,-0.0000 -3.9627,-2.0728 -3.9627 -4.2879c 0.0000,-3.0889 2.0322,-4.9382 3.9627 -4.9382c 2.6825,-0.0000 3.3124,2.0931 3.3124 3.8002c 0.0000,0.2235 -0.1423,0.3455 -0.3658 0.3455h -5.3446 c -0.0203,0.1219 -0.0203,0.2439 -0.0203 0.4064c 0.0000,2.0728 1.4428,3.6782 2.9060 3.6782c 1.1177,-0.0000 1.8290,-0.3658 2.5402 -1.1380ZM 412.0374,393.6596 ZM 417.9511,388.6808 l -1.6054,0.4064 c -1.7883,0.5487 -2.0525,1.4835 -2.0525 2.3980c 0.0000,0.6300 0.3048,1.5851 1.5851 1.5851c 0.6097,-0.0000 1.5445,-0.5893 2.0728 -1.0364v -3.3531 ZM 417.9511,388.6808 ZM 419.2517,393.9035 c -0.7722,-0.0000 -1.1990,-0.6909 -1.2803 -1.1787l -0.4674,0.3251 c -0.9348,0.6503 -1.2803,0.8535 -2.2151 0.8535c -1.4225,-0.0000 -2.4589,-0.8129 -2.4589 -2.3370c 0.0000,-1.5445 1.3209,-2.6012 3.2515 -3.0889l 1.8696,-0.4674 c 0.0000,-2.2964 -1.0567,-2.7231 -1.7477 -2.7231c -0.7722,-0.0000 -1.6664,0.3455 -1.6664 0.9754c 0.0000,0.2235 0.0406,0.3455 0.0610 0.4064c 0.0406,0.0813 0.0610,0.2235 0.0610 0.3658c 0.0000,0.2642 -0.2032,0.6706 -0.7925 0.6706c -0.4877,-0.0000 -0.8129,-0.3251 -0.8129 -0.8129c 0.0000,-1.1787 1.9102,-2.2151 3.2108 -2.2151c 1.4835,-0.0000 3.1905,0.6097 3.1905 3.4953v 2.9873 c 0.0000,1.2396 0.0203,1.7680 0.4877 1.7680c 0.4471,-0.0000 0.5690,-0.5690 0.5893 -1.0161l 0.5080,0.1016 c -0.1219,1.4835 -0.7519,1.8899 -1.7883 1.8899ZM 421.2025,393.6596 ZM 423.0112,392.1965 v -5.0601 c 0.0000,-1.0161 -0.1423,-1.2396 -0.4471 -1.2396c -0.2642,-0.0000 -0.5080,0.0203 -0.8535 0.1016l -0.1016,-0.5690 c 1.2803,-0.2235 1.5038,-0.2845 2.1135 -0.5893c 0.2032,-0.1016 0.3658,-0.1626 0.5080 -0.1626h 0.3048 l -0.0610,1.8290 h 0.0610 c 0.5284,-0.7925 1.4225,-1.8290 2.3776 -1.8290c 0.8332,-0.0000 1.1380,0.4064 1.1380 0.9348c 0.0000,0.5284 -0.3455,0.8535 -0.8738 0.8535c -0.4064,-0.0000 -0.6300,-0.1626 -0.8332 -0.3658c -0.1219,-0.1219 -0.2642,-0.1829 -0.4064 -0.1829c -0.2235,-0.0000 -0.6706,0.3658 -1.1583 1.0567c -0.1423,0.1829 -0.2439,0.4471 -0.2439 0.7113v 4.5114 c 0.0000,0.5893 0.2032,0.8942 0.8738 0.8942h 0.5893 c 0.1016,-0.0000 0.1829,0.0610 0.1829 0.1626v 0.3861 l -0.0406,0.0406 c 0.0000,-0.0000 -1.6054,-0.0406 -2.3980 -0.0406c -0.7316,-0.0000 -2.1135,0.0406 -2.1135 0.0406l -0.0203,-0.0406 v -0.3861 c 0.0000,-0.1016 0.0406,-0.1626 0.1423 -0.1626h 0.3861 c 0.6909,-0.0000 0.8738,-0.3048 0.8738 -0.8942ZM 428.2542,393.6596 ZM 430.1847,392.1965 v -10.1812 c 0.0000,-1.1583 -0.2032,-1.4835 -0.6097 -1.4835l -0.6503,0.0813 c -0.0610,-0.0000 -0.1219,-0.0406 -0.1219 -0.1016l -0.0406,-0.5080 c 0.3251,-0.0000 1.0771,-0.1219 1.4225 -0.1829c 0.3658,-0.0813 0.6503,-0.1626 1.0567 -0.3455h 0.4471 v 12.7214 c 0.0000,0.5893 0.2235,0.8942 0.8738 0.8942h 0.4877 c 0.0813,-0.0000 0.1626,0.0610 0.1626 0.1626v 0.3861 l -0.0406,0.0406 c 0.0000,-0.0000 -1.4835,-0.0406 -2.2760 -0.0406c -0.7113,-0.0000 -2.1947,0.0406 -2.1947 0.0406l -0.0203,-0.0406 v -0.3861 c 0.0000,-0.1016 0.0406,-0.1626 0.1423 -0.1626h 0.4877 c 0.6706,-0.0000 0.8738,-0.3048 0.8738 -0.8942ZM 433.5378,393.6596 ZM 437.7647,385.3277 c 0.0000,0.1016 -0.1219,0.1626 -0.2235 0.1626c -0.6097,-0.0000 -0.8738,0.1219 -0.8738 0.4471c 0.0000,0.1219 0.0406,0.2845 0.1219 0.4674l 2.2354,5.2430 l 2.2557,-5.1617 c 0.1016,-0.1829 0.1423,-0.3455 0.1423 -0.4674c 0.0000,-0.4268 -0.4064,-0.5284 -0.8535 -0.5284h -0.0813 c -0.1016,-0.0000 -0.2032,-0.0813 -0.2032 -0.1423v -0.3861 l 0.0406,-0.0610 c 0.0000,-0.0000 1.1990,0.0406 1.9102 0.0406c 0.5690,-0.0000 1.4022,-0.0406 1.4022 -0.0406l 0.0610,0.0406 v 0.3861 c 0.0000,0.1016 -0.0813,0.1626 -0.2235 0.1626c -0.7722,-0.0000 -1.1583,0.7925 -1.4428 1.3819c -1.0771,2.2760 -1.9712,4.3692 -3.5969 8.2913c -0.6097,1.4632 -1.3412,3.1702 -2.7841 3.1702c -0.3861,-0.0000 -1.1787,-0.2235 -1.1787 -0.9551c 0.0000,-0.6097 0.4471,-0.7925 0.7722 -0.7925c 0.3048,-0.0000 0.5080,0.1219 0.6300 0.2845c 0.2032,0.2032 0.3455,0.3455 0.5487 0.3455c 0.3048,-0.0000 1.0161,-1.7477 1.5241 -2.9873c 0.1219,-0.2439 0.1626,-0.4471 0.1626 -0.6300c 0.0000,-0.2032 -0.1829,-0.7519 -0.3455 -1.1583l -2.5605,-5.9543 c -0.3251,-0.7722 -0.5487,-0.9958 -1.2396 -0.9958c -0.1219,-0.0000 -0.2032,-0.0610 -0.2032 -0.1423v -0.4064 l 0.0406,-0.0406 c 0.0000,-0.0000 0.8942,0.0406 1.5038 0.0406c 0.9551,-0.0000 2.4183,-0.0406 2.4183 -0.0406l 0.0406,0.0610 v 0.3658 Z"/></g><g stroke-linejoin="miter" stroke-opacity="0.6" fill-opacity="0.0" stroke="rgb(0,0,0)" stroke-width="2.263332348999894" fill="rgb(0,0,0)" stroke-linecap="butt" stroke-miterlimit="10.0"><path d="M 418.2762,361.7063 v 9.1905 "/></g><g stroke-linejoin="miter" stroke-opacity="1.0" fill-opacity="0.6" stroke="rgb(0,0,0)" fill-rule="evenodd" stroke-width="0.0" fill="rgb(0,0,0)" stroke-linecap="butt" stroke-miterlimit="10.0"><path d="M 291.5500,393.6596 ZM 305.0639,391.8916 l -0.6097,-9.0838 l -4.5724,10.7502 c -0.0813,0.1626 -0.1626,0.2235 -0.2845 0.2235c -0.1219,-0.0000 -0.2439,-0.0813 -0.3048 -0.2235l -4.2472,-10.5470 l -0.8535,8.9009 c 0.0000,0.5893 0.0813,1.1787 0.6909 1.1787h 0.5284 c 0.1016,-0.0000 0.2032,0.0610 0.2032 0.1626v 0.3658 l -0.0406,0.0610 c 0.0000,-0.0000 -1.0567,-0.0406 -1.8696 -0.0406c -0.7113,-0.0000 -1.8290,0.0406 -1.8290 0.0406l -0.0203,-0.0406 v -0.3861 c 0.0000,-0.1016 0.0610,-0.1626 0.1829 -0.1626h 0.5487 c 0.6503,-0.0000 0.8129,-0.6300 0.8535 -1.1787l 0.9348,-9.9170 c 0.0000,-0.5893 -0.1219,-0.8942 -0.7722 -0.8942h -0.5893 c -0.1423,-0.0000 -0.2032,-0.0610 -0.2032 -0.1423v -0.3658 l 0.0610,-0.0610 h 2.9873 l 4.1660,10.3438 c 0.0610,0.1829 0.1016,0.2642 0.1626 0.2642c 0.0406,-0.0000 0.1016,-0.0813 0.1829 -0.2845l 4.4098,-10.3234 h 2.6215 l 0.0406,0.0610 v 0.3658 c 0.0000,0.1219 -0.1626,0.1423 -0.2235 0.1423h -0.5487 c -0.6097,-0.0000 -0.7722,0.3658 -0.7722 0.8942l 0.6706,9.8967 c 0.0406,0.6503 0.2032,1.1990 0.8738 1.1990h 0.5487 c 0.1423,-0.0000 0.2235,0.0610 0.2235 0.1626v 0.3861 l -0.0406,0.0406 c 0.0000,-0.0000 -1.4835,-0.0406 -2.2760 -0.0406c -0.7316,-0.0000 -2.1744,0.0406 -2.1744 0.0406l -0.0610,-0.0406 v -0.3861 c 0.0000,-0.1016 0.1016,-0.1626 0.1829 -0.1626h 0.5487 c 0.5893,-0.0000 0.6706,-0.6706 0.6706 -1.1990ZM 308.5999,393.6596 ZM 309.2908,389.4937 c 0.0000,-2.7841 1.5038,-4.8162 4.2066 -4.8162c 3.0076,-0.0000 4.1660,2.5199 4.1660 4.6334c 0.0000,2.0322 -1.3209,4.5927 -4.2066 4.5927c -2.7231,-0.0000 -4.1660,-2.3370 -4.1660 -4.4098ZM 309.2908,389.4937 ZM 313.2739,385.3480 c -1.6257,-0.0000 -2.3776,1.9102 -2.3776 3.6782c 0.0000,1.5648 0.8942,4.1660 2.9060 4.1660c 0.9145,-0.0000 2.2557,-0.5487 2.2557 -3.2312c 0.0000,-2.9873 -1.1177,-4.6130 -2.7841 -4.6130ZM 318.3340,393.6596 ZM 325.7311,392.1965 v -4.4505 c 0.0000,-1.4225 -0.2439,-2.0931 -1.3209 -2.0931c -0.8942,-0.0000 -1.6664,0.3455 -2.7028 1.5648v 4.9788 c 0.0000,0.5893 0.2032,0.8942 0.8738 0.8942h 0.2845 c 0.1016,-0.0000 0.1626,0.0610 0.1626 0.1626v 0.3861 l -0.0406,0.0406 c 0.0000,-0.0000 -1.2803,-0.0406 -2.0728 -0.0406c -0.7316,-0.0000 -2.1135,0.0406 -2.1135 0.0406l -0.0406,-0.0406 v -0.3861 c 0.0000,-0.1016 0.0610,-0.1626 0.1626 -0.1626h 0.3861 c 0.6909,-0.0000 0.8738,-0.3048 0.8738 -0.8942v -5.0601 c 0.0000,-1.0974 -0.1626,-1.2396 -0.4471 -1.2396c -0.2642,-0.0000 -0.5080,0.0203 -0.8535 0.1016l -0.1016,-0.5690 c 0.8535,-0.1423 1.4632,-0.2439 2.0931 -0.5893c 0.2235,-0.1016 0.3861,-0.1626 0.5284 -0.1626h 0.3048 l -0.0610,1.8086 h 0.0610 c 1.3006,-1.5241 2.2760,-1.8086 3.3124 -1.8086c 1.8290,-0.0000 2.2151,1.4022 2.2151 3.2108v 4.3082 c 0.0000,0.5893 0.2235,0.8942 0.8738 0.8942h 0.3861 c 0.1016,-0.0000 0.1829,0.0610 0.1829 0.1626v 0.3861 l -0.0406,0.0406 c 0.0000,-0.0000 -1.4022,-0.0406 -2.1947 -0.0406c -0.7113,-0.0000 -1.9915,0.0406 -1.9915 0.0406l -0.0406,-0.0406 v -0.3861 c 0.0000,-0.1016 0.0610,-0.1626 0.1626 -0.1626h 0.2845 c 0.6706,-0.0000 0.8738,-0.3048 0.8738 -0.8942ZM 328.9013,393.6596 ZM 332.2341,385.7138 v 5.2024 c 0.0000,1.2599 0.1219,1.8696 0.6706 1.8696c 0.5284,-0.0000 0.9348,-0.1626 1.4632 -0.5690l 0.3658,0.3455 c -0.7925,0.8942 -1.6054,1.3412 -2.5402 1.3412c -0.9348,-0.0000 -1.4835,-0.5690 -1.4835 -2.0119v -6.1778 h -1.3209 c -0.0610,-0.0000 -0.0813,-0.0203 -0.0813 -0.0813v -0.6300 c 0.0000,-0.0610 0.0203,-0.0813 0.0610 -0.0813c 1.3616,-0.0000 1.6867,-0.7925 1.6867 -2.3370v -0.3861 l 1.1787,-0.4064 v 3.1295 h 2.2354 c 0.1016,-0.0000 0.1626,0.0406 0.1626 0.1219v 0.4064 c 0.0000,0.1829 -0.2845,0.2642 -0.4877 0.2642h -1.9102 ZM 335.0385,393.6596 ZM 338.3509,379.4751 v 6.8891 c 1.3616,-1.3616 2.5605,-1.6867 3.3531 -1.6867c 1.4632,-0.0000 2.1947,1.1177 2.1947 3.2108v 4.3082 c 0.0000,0.5893 0.2032,0.8942 0.8738 0.8942h 0.3861 c 0.0813,-0.0000 0.1626,0.0610 0.1626 0.1626v 0.3861 l -0.0406,0.0406 c 0.0000,-0.0000 -1.3819,-0.0406 -2.1947 -0.0406c -0.7113,-0.0000 -2.0931,0.0406 -2.0931 0.0406l -0.0406,-0.0406 v -0.3861 c 0.0000,-0.1016 0.0610,-0.1626 0.1626 -0.1626h 0.3861 c 0.6909,-0.0000 0.8738,-0.3048 0.8738 -0.8942v -4.5317 c 0.0000,-1.6461 -0.4471,-2.0322 -1.5851 -2.0322c -0.5893,-0.0000 -1.4632,0.5284 -2.4386 1.4835v 5.0804 c 0.0000,0.5893 0.2032,0.8942 0.8738 0.8942h 0.3861 c 0.0813,-0.0000 0.1626,0.0610 0.1626 0.1626v 0.3861 l -0.0406,0.0406 c 0.0000,-0.0000 -1.3819,-0.0406 -2.1744 -0.0406c -0.7316,-0.0000 -2.0931,0.0406 -2.0931 0.0406l -0.0406,-0.0406 v -0.3861 c 0.0000,-0.1016 0.0406,-0.1626 0.1423 -0.1626h 0.3861 c 0.6909,-0.0000 0.8738,-0.3048 0.8738 -0.8942v -10.1812 c 0.0000,-1.1583 -0.1829,-1.4835 -0.5893 -1.4835l -0.6706,0.0813 c -0.0610,-0.0000 -0.1016,-0.0406 -0.1016 -0.1016l -0.0406,-0.5080 c 0.3251,-0.0000 1.0567,-0.1219 1.4022 -0.1829c 0.3658,-0.0813 0.6706,-0.1626 1.0771 -0.3455h 0.4471 ZM 345.5651,393.6596 ZM 347.4957,392.1965 v -10.1812 c 0.0000,-1.1583 -0.2032,-1.4835 -0.6097 -1.4835l -0.6503,0.0813 c -0.0610,-0.0000 -0.1219,-0.0406 -0.1219 -0.1016l -0.0406,-0.5080 c 0.3251,-0.0000 1.0771,-0.1219 1.4225 -0.1829c 0.3658,-0.0813 0.6503,-0.1626 1.0567 -0.3455h 0.4471 v 12.7214 c 0.0000,0.5893 0.2235,0.8942 0.8738 0.8942h 0.4877 c 0.0813,-0.0000 0.1626,0.0610 0.1626 0.1626v 0.3861 l -0.0406,0.0406 c 0.0000,-0.0000 -1.4835,-0.0406 -2.2760 -0.0406c -0.7113,-0.0000 -2.1947,0.0406 -2.1947 0.0406l -0.0203,-0.0406 v -0.3861 c 0.0000,-0.1016 0.0406,-0.1626 0.1423 -0.1626h 0.4877 c 0.6706,-0.0000 0.8738,-0.3048 0.8738 -0.8942ZM 350.8487,393.6596 ZM 355.0757,385.3277 c 0.0000,0.1016 -0.1219,0.1626 -0.2235 0.1626c -0.6097,-0.0000 -0.8738,0.1219 -0.8738 0.4471c 0.0000,0.1219 0.0406,0.2845 0.1219 0.4674l 2.2354,5.2430 l 2.2557,-5.1617 c 0.1016,-0.1829 0.1423,-0.3455 0.1423 -0.4674c 0.0000,-0.4268 -0.4064,-0.5284 -0.8535 -0.5284h -0.0813 c -0.1016,-0.0000 -0.2032,-0.0813 -0.2032 -0.1423v -0.3861 l 0.0406,-0.0610 c 0.0000,-0.0000 1.1990,0.0406 1.9102 0.0406c 0.5690,-0.0000 1.4022,-0.0406 1.4022 -0.0406l 0.0610,0.0406 v 0.3861 c 0.0000,0.1016 -0.0813,0.1626 -0.2235 0.1626c -0.7722,-0.0000 -1.1583,0.7925 -1.4428 1.3819c -1.0771,2.2760 -1.9712,4.3692 -3.5969 8.2913c -0.6097,1.4632 -1.3412,3.1702 -2.7841 3.1702c -0.3861,-0.0000 -1.1787,-0.2235 -1.1787 -0.9551c 0.0000,-0.6097 0.4471,-0.7925 0.7722 -0.7925c 0.3048,-0.0000 0.5080,0.1219 0.6300 0.2845c 0.2032,0.2032 0.3455,0.3455 0.5487 0.3455c 0.3048,-0.0000 1.0161,-1.7477 1.5241 -2.9873c 0.1219,-0.2439 0.1626,-0.4471 0.1626 -0.6300c 0.0000,-0.2032 -0.1829,-0.7519 -0.3455 -1.1583l -2.5605,-5.9543 c -0.3251,-0.7722 -0.5487,-0.9958 -1.2396 -0.9958c -0.1219,-0.0000 -0.2032,-0.0610 -0.2032 -0.1423v -0.4064 l 0.0406,-0.0406 c 0.0000,-0.0000 0.8942,0.0406 1.5038 0.0406c 0.9551,-0.0000 2.4183,-0.0406 2.4183 -0.0406l 0.0406,0.0610 v 0.3658 Z"/></g><g stroke-linejoin="miter" stroke-opacity="0.6" fill-opacity="0.0" stroke="rgb(0,0,0)" stroke-width="2.263332348999894" fill="rgb(0,0,0)" stroke-linecap="butt" stroke-miterlimit="10.0"><path d="M 326.3712,361.7063 v 9.1905 "/></g><g stroke-linejoin="miter" stroke-opacity="1.0" fill-opacity="0.6" stroke="rgb(0,0,0)" fill-rule="evenodd" stroke-width="0.0" fill="rgb(0,0,0)" stroke-linecap="butt" stroke-miterlimit="10.0"><path d="M 203.8414,393.6596 ZM 210.4054,393.4158 c -0.0813,0.2845 -0.2845,0.4877 -0.5690 0.4877c -0.3048,-0.0000 -0.5487,-0.1626 -0.6706 -0.4877l -3.6986,-11.1769 c -0.1829,-0.5080 -0.5487,-1.1380 -1.1177 -1.1380h -0.2642 c -0.1423,-0.0000 -0.2439,-0.0610 -0.2439 -0.1423v -0.3861 l 0.0406,-0.0406 c 0.0000,-0.0000 1.0567,0.0203 1.8290 0.0203c 1.0364,-0.0000 2.4589,-0.0203 2.4589 -0.0203l 0.0406,0.0406 v 0.3658 c 0.0000,0.1016 -0.0610,0.1626 -0.1829 0.1626h -0.4471 c -0.3861,-0.0000 -0.5690,0.1423 -0.5690 0.4064c 0.0000,0.1423 0.0406,0.3048 0.1219 0.5284l 3.0889,9.3683 l 2.1541,-6.7265 c 0.0813,-0.2439 0.1423,-0.5080 0.1423 -0.7722c 0.0000,-0.1829 -0.0203,-0.3658 -0.1016 -0.5690l -0.4268,-1.3006 c -0.1626,-0.5487 -0.5284,-0.9348 -1.3209 -0.9348h -0.0610 c -0.1423,-0.0000 -0.2439,-0.0610 -0.2439 -0.1423v -0.3861 l 0.0406,-0.0406 c 0.0000,-0.0000 1.1380,0.0203 1.9509 0.0203c 0.9958,-0.0000 2.6012,-0.0203 2.6012 -0.0203l 0.0610,0.0406 v 0.3861 c 0.0000,0.1016 -0.1016,0.1423 -0.1829 0.1423h -0.5893 c -0.4064,-0.0000 -0.5690,0.2845 -0.5690 0.6300c 0.0000,0.2032 0.0406,0.4268 0.1219 0.6706l 2.9873,9.0432 l 3.1092,-9.3480 c 0.0406,-0.1626 0.0813,-0.3251 0.0813 -0.4674c 0.0000,-0.3048 -0.1829,-0.5284 -0.6909 -0.5284h -0.5487 c -0.1016,-0.0000 -0.1626,-0.0813 -0.1626 -0.1423v -0.3861 l 0.0406,-0.0406 c 0.0000,-0.0000 1.2193,0.0203 2.0728 0.0203c 0.6503,-0.0000 1.7273,-0.0203 1.7273 -0.0203l 0.0203,0.0203 v 0.3861 c 0.0000,0.1626 -0.2235,0.1626 -0.2235 0.1626h -0.2235 c -0.5893,-0.0000 -0.9958,0.2235 -1.2599 1.0161l -3.7392,11.3192 c -0.1016,0.3048 -0.3251,0.4674 -0.6097 0.4674c -0.2642,-0.0000 -0.5284,-0.1423 -0.6503 -0.4877l -2.3776,-7.2142 c -0.1016,-0.2845 -0.2032,-0.5690 -0.2845 -0.5690c -0.1016,-0.0000 -0.2032,0.2642 -0.2845 0.5080ZM 222.4358,393.6596 ZM 224.7525,388.0305 h 3.7392 c 0.2032,-0.0000 0.2845,-0.1016 0.2845 -0.2845c 0.0000,-1.8899 -0.9551,-2.3776 -1.6867 -2.3776c -0.4674,-0.0000 -1.9915,0.1829 -2.3370 2.6621ZM 224.7525,388.0305 ZM 230.1174,391.7697 l 0.4064,0.3251 c -0.7722,1.0567 -1.9712,1.8086 -3.4344 1.8086c -2.7841,-0.0000 -3.9627,-2.0728 -3.9627 -4.2879c 0.0000,-3.0889 2.0322,-4.9382 3.9627 -4.9382c 2.6825,-0.0000 3.3124,2.0931 3.3124 3.8002c 0.0000,0.2235 -0.1423,0.3455 -0.3658 0.3455h -5.3446 c -0.0203,0.1219 -0.0203,0.2439 -0.0203 0.4064c 0.0000,2.0728 1.4428,3.6782 2.9060 3.6782c 1.1177,-0.0000 1.8290,-0.3658 2.5402 -1.1380ZM 231.1335,393.6596 ZM 233.4502,388.0305 h 3.7392 c 0.2032,-0.0000 0.2845,-0.1016 0.2845 -0.2845c 0.0000,-1.8899 -0.9551,-2.3776 -1.6867 -2.3776c -0.4674,-0.0000 -1.9915,0.1829 -2.3370 2.6621ZM 233.4502,388.0305 ZM 238.8151,391.7697 l 0.4064,0.3251 c -0.7722,1.0567 -1.9712,1.8086 -3.4344 1.8086c -2.7841,-0.0000 -3.9627,-2.0728 -3.9627 -4.2879c 0.0000,-3.0889 2.0322,-4.9382 3.9627 -4.9382c 2.6825,-0.0000 3.3124,2.0931 3.3124 3.8002c 0.0000,0.2235 -0.1423,0.3455 -0.3658 0.3455h -5.3446 c -0.0203,0.1219 -0.0203,0.2439 -0.0203 0.4064c 0.0000,2.0728 1.4428,3.6782 2.9060 3.6782c 1.1177,-0.0000 1.8290,-0.3658 2.5402 -1.1380ZM 239.8312,393.6596 ZM 243.1436,389.3514 v 2.8450 c 0.0000,0.5893 0.2032,0.8942 0.8738 0.8942h 0.0406 c 0.0813,-0.0000 0.1626,0.0610 0.1626 0.1626v 0.3861 l -0.0406,0.0406 c 0.0000,-0.0000 -1.0364,-0.0406 -1.8290 -0.0406c -0.7316,-0.0000 -2.0931,0.0406 -2.0931 0.0406l -0.0406,-0.0406 v -0.3861 c 0.0000,-0.1016 0.0406,-0.1626 0.1423 -0.1626h 0.3861 c 0.6909,-0.0000 0.8738,-0.3048 0.8738 -0.8942v -10.1812 c 0.0000,-1.1583 -0.1829,-1.4835 -0.5893 -1.4835l -0.6706,0.0813 c -0.0610,-0.0000 -0.1016,-0.0406 -0.1016 -0.1016l -0.0406,-0.5080 c 0.3251,-0.0000 1.0567,-0.1219 1.4022 -0.1829c 0.3658,-0.0813 0.6706,-0.1626 1.0771 -0.3455h 0.4471 v 9.3683 c 0.5284,-0.1219 1.5648,-1.0364 2.6621 -2.2354c 0.3251,-0.3251 0.4064,-0.5893 0.4064 -0.7925c 0.0000,-0.1626 -0.1016,-0.3251 -0.5893 -0.3251h -0.0813 c -0.1016,-0.0000 -0.1626,-0.0813 -0.1626 -0.1626v -0.3861 l 0.0610,-0.0406 c 0.0000,-0.0000 0.9754,0.0406 1.6867 0.0406c 0.7925,-0.0000 1.8899,-0.0406 1.8899 -0.0406l 0.0813,0.0406 v 0.3861 c 0.0000,0.1016 -0.1219,0.1626 -0.2235 0.1626h -0.1423 c -0.5487,-0.0000 -1.4428,0.4471 -1.9509 0.9754l -1.5445,1.7070 c -0.0610,0.0610 -0.0813,0.1219 -0.0813 0.2032c 0.0000,0.1016 0.0406,0.2032 0.1016 0.2845l 2.3776,3.5157 c 0.3658,0.5487 1.0161,0.9145 1.5241 0.9145h 0.1423 c 0.1423,-0.0000 0.1829,0.0610 0.1829 0.1626v 0.3861 l -0.0406,0.0406 c 0.0000,-0.0000 -1.0364,-0.0406 -1.8290 -0.0406c -0.7113,-0.0000 -1.2599,0.0406 -1.2599 0.0406l -0.0610,-0.0406 v -0.3861 c 0.0000,-0.2642 -0.0610,-0.4877 -0.4674 -1.0771l -1.4835,-2.0931 c -0.4064,-0.5893 -0.6909,-0.7316 -1.1990 -0.7316ZM 249.4637,393.6596 ZM 251.3943,392.1965 v -10.1812 c 0.0000,-1.1583 -0.2032,-1.4835 -0.6097 -1.4835l -0.6503,0.0813 c -0.0610,-0.0000 -0.1219,-0.0406 -0.1219 -0.1016l -0.0406,-0.5080 c 0.3251,-0.0000 1.0771,-0.1219 1.4225 -0.1829c 0.3658,-0.0813 0.6503,-0.1626 1.0567 -0.3455h 0.4471 v 12.7214 c 0.0000,0.5893 0.2235,0.8942 0.8738 0.8942h 0.4877 c 0.0813,-0.0000 0.1626,0.0610 0.1626 0.1626v 0.3861 l -0.0406,0.0406 c 0.0000,-0.0000 -1.4835,-0.0406 -2.2760 -0.0406c -0.7113,-0.0000 -2.1947,0.0406 -2.1947 0.0406l -0.0203,-0.0406 v -0.3861 c 0.0000,-0.1016 0.0406,-0.1626 0.1423 -0.1626h 0.4877 c 0.6706,-0.0000 0.8738,-0.3048 0.8738 -0.8942ZM 254.7473,393.6596 ZM 258.9743,385.3277 c 0.0000,0.1016 -0.1219,0.1626 -0.2235 0.1626c -0.6097,-0.0000 -0.8738,0.1219 -0.8738 0.4471c 0.0000,0.1219 0.0406,0.2845 0.1219 0.4674l 2.2354,5.2430 l 2.2557,-5.1617 c 0.1016,-0.1829 0.1423,-0.3455 0.1423 -0.4674c 0.0000,-0.4268 -0.4064,-0.5284 -0.8535 -0.5284h -0.0813 c -0.1016,-0.0000 -0.2032,-0.0813 -0.2032 -0.1423v -0.3861 l 0.0406,-0.0610 c 0.0000,-0.0000 1.1990,0.0406 1.9102 0.0406c 0.5690,-0.0000 1.4022,-0.0406 1.4022 -0.0406l 0.0610,0.0406 v 0.3861 c 0.0000,0.1016 -0.0813,0.1626 -0.2235 0.1626c -0.7722,-0.0000 -1.1583,0.7925 -1.4428 1.3819c -1.0771,2.2760 -1.9712,4.3692 -3.5969 8.2913c -0.6097,1.4632 -1.3412,3.1702 -2.7841 3.1702c -0.3861,-0.0000 -1.1787,-0.2235 -1.1787 -0.9551c 0.0000,-0.6097 0.4471,-0.7925 0.7722 -0.7925c 0.3048,-0.0000 0.5080,0.1219 0.6300 0.2845c 0.2032,0.2032 0.3455,0.3455 0.5487 0.3455c 0.3048,-0.0000 1.0161,-1.7477 1.5241 -2.9873c 0.1219,-0.2439 0.1626,-0.4471 0.1626 -0.6300c 0.0000,-0.2032 -0.1829,-0.7519 -0.3455 -1.1583l -2.5605,-5.9543 c -0.3251,-0.7722 -0.5487,-0.9958 -1.2396 -0.9958c -0.1219,-0.0000 -0.2032,-0.0610 -0.2032 -0.1423v -0.4064 l 0.0406,-0.0406 c 0.0000,-0.0000 0.8942,0.0406 1.5038 0.0406c 0.9551,-0.0000 2.4183,-0.0406 2.4183 -0.0406l 0.0406,0.0610 v 0.3658 Z"/></g><g stroke-linejoin="miter" stroke-opacity="0.6" fill-opacity="0.0" stroke="rgb(0,0,0)" stroke-width="2.263332348999894" fill="rgb(0,0,0)" stroke-linecap="butt" stroke-miterlimit="10.0"><path d="M 234.4663,361.7063 v 9.1905 "/></g><g stroke-linejoin="miter" stroke-opacity="1.0" fill-opacity="0.6" stroke="rgb(0,0,0)" fill-rule="evenodd" stroke-width="0.0" fill="rgb(0,0,0)" stroke-linecap="butt" stroke-miterlimit="10.0"><path d="M 120.4005,393.6596 ZM 120.7459,393.2735 c 0.0000,-0.1016 0.0610,-0.1829 0.1423 -0.1829h 0.6097 c 0.7722,-0.0000 1.0567,-0.2845 1.0567 -0.9348v -10.1202 c 0.0000,-0.7316 -0.2032,-0.9348 -1.0567 -0.9348h -0.5690 c -0.1016,-0.0000 -0.1829,-0.0610 -0.1829 -0.1626v -0.3658 l 0.0406,-0.0406 l 2.5605,0.0203 c 0.0000,-0.0000 2.6418,-0.0203 3.3328 -0.0203c 3.9018,-0.0000 7.0110,3.0889 7.0110 6.8687c 0.0000,4.9991 -3.7798,6.2794 -6.6452 6.2794c -2.0931,-0.0000 -3.6986,-0.0406 -3.6986 -0.0406l -2.5605,0.0406 l -0.0406,-0.0406 v -0.3658 ZM 120.7459,393.2735 ZM 124.2006,392.1965 c 0.0000,0.6503 0.2235,0.7925 2.2151 0.7925c 2.8654,-0.0000 5.4056,-0.9958 5.4056 -5.1008c 0.0000,-3.1295 -1.5241,-6.6858 -5.9136 -6.6858c -0.9958,-0.0000 -1.7070,0.0813 -1.7070 0.7925v 10.2015 ZM 134.5647,393.6596 ZM 140.4783,388.6808 l -1.6054,0.4064 c -1.7883,0.5487 -2.0525,1.4835 -2.0525 2.3980c 0.0000,0.6300 0.3048,1.5851 1.5851 1.5851c 0.6097,-0.0000 1.5445,-0.5893 2.0728 -1.0364v -3.3531 ZM 140.4783,388.6808 ZM 141.7789,393.9035 c -0.7722,-0.0000 -1.1990,-0.6909 -1.2803 -1.1787l -0.4674,0.3251 c -0.9348,0.6503 -1.2803,0.8535 -2.2151 0.8535c -1.4225,-0.0000 -2.4589,-0.8129 -2.4589 -2.3370c 0.0000,-1.5445 1.3209,-2.6012 3.2515 -3.0889l 1.8696,-0.4674 c 0.0000,-2.2964 -1.0567,-2.7231 -1.7477 -2.7231c -0.7722,-0.0000 -1.6664,0.3455 -1.6664 0.9754c 0.0000,0.2235 0.0406,0.3455 0.0610 0.4064c 0.0406,0.0813 0.0610,0.2235 0.0610 0.3658c 0.0000,0.2642 -0.2032,0.6706 -0.7925 0.6706c -0.4877,-0.0000 -0.8129,-0.3251 -0.8129 -0.8129c 0.0000,-1.1787 1.9102,-2.2151 3.2108 -2.2151c 1.4835,-0.0000 3.1905,0.6097 3.1905 3.4953v 2.9873 c 0.0000,1.2396 0.0203,1.7680 0.4877 1.7680c 0.4471,-0.0000 0.5690,-0.5690 0.5893 -1.0161l 0.5080,0.1016 c -0.1219,1.4835 -0.7519,1.8899 -1.7883 1.8899ZM 143.7298,393.6596 ZM 145.3149,382.0559 c 0.0000,-0.5284 0.4268,-0.9754 0.9551 -0.9754c 0.5487,-0.0000 0.9754,0.4471 0.9754 0.9754c 0.0000,0.5487 -0.4268,0.9754 -0.9754 0.9754c -0.5284,-0.0000 -0.9551,-0.4268 -0.9551 -0.9754ZM 145.3149,382.0559 ZM 147.2455,392.1965 c 0.0000,0.5893 0.2235,0.8942 0.8738 0.8942h 0.3861 c 0.1016,-0.0000 0.1829,0.0610 0.1829 0.1626v 0.3861 l -0.0406,0.0406 c 0.0000,-0.0000 -1.4022,-0.0406 -2.1947 -0.0406c -0.7113,-0.0000 -2.0931,0.0406 -2.0931 0.0406l -0.0406,-0.0406 v -0.3861 c 0.0000,-0.1016 0.0610,-0.1626 0.1626 -0.1626h 0.3861 c 0.6706,-0.0000 0.8738,-0.3048 0.8738 -0.8942v -5.0601 c 0.0000,-1.0771 -0.1829,-1.2396 -0.4674 -1.2396c -0.2642,-0.0000 -0.5080,0.0203 -0.8535 0.1016l -0.1016,-0.5690 c 1.3006,-0.2235 1.5241,-0.3048 2.1135 -0.5893c 0.2235,-0.0813 0.3658,-0.1626 0.5080 -0.1626h 0.3048 v 7.5190 ZM 149.0947,393.6596 ZM 151.0253,392.1965 v -10.1812 c 0.0000,-1.1583 -0.2032,-1.4835 -0.6097 -1.4835l -0.6503,0.0813 c -0.0610,-0.0000 -0.1219,-0.0406 -0.1219 -0.1016l -0.0406,-0.5080 c 0.3251,-0.0000 1.0771,-0.1219 1.4225 -0.1829c 0.3658,-0.0813 0.6503,-0.1626 1.0567 -0.3455h 0.4471 v 12.7214 c 0.0000,0.5893 0.2235,0.8942 0.8738 0.8942h 0.4877 c 0.0813,-0.0000 0.1626,0.0610 0.1626 0.1626v 0.3861 l -0.0406,0.0406 c 0.0000,-0.0000 -1.4835,-0.0406 -2.2760 -0.0406c -0.7113,-0.0000 -2.1947,0.0406 -2.1947 0.0406l -0.0203,-0.0406 v -0.3861 c 0.0000,-0.1016 0.0406,-0.1626 0.1423 -0.1626h 0.4877 c 0.6706,-0.0000 0.8738,-0.3048 0.8738 -0.8942ZM 154.3784,393.6596 ZM 158.6053,385.3277 c 0.0000,0.1016 -0.1219,0.1626 -0.2235 0.1626c -0.6097,-0.0000 -0.8738,0.1219 -0.8738 0.4471c 0.0000,0.1219 0.0406,0.2845 0.1219 0.4674l 2.2354,5.2430 l 2.2557,-5.1617 c 0.1016,-0.1829 0.1423,-0.3455 0.1423 -0.4674c 0.0000,-0.4268 -0.4064,-0.5284 -0.8535 -0.5284h -0.0813 c -0.1016,-0.0000 -0.2032,-0.0813 -0.2032 -0.1423v -0.3861 l 0.0406,-0.0610 c 0.0000,-0.0000 1.1990,0.0406 1.9102 0.0406c 0.5690,-0.0000 1.4022,-0.0406 1.4022 -0.0406l 0.0610,0.0406 v 0.3861 c 0.0000,0.1016 -0.0813,0.1626 -0.2235 0.1626c -0.7722,-0.0000 -1.1583,0.7925 -1.4428 1.3819c -1.0771,2.2760 -1.9712,4.3692 -3.5969 8.2913c -0.6097,1.4632 -1.3412,3.1702 -2.7841 3.1702c -0.3861,-0.0000 -1.1787,-0.2235 -1.1787 -0.9551c 0.0000,-0.6097 0.4471,-0.7925 0.7722 -0.7925c 0.3048,-0.0000 0.5080,0.1219 0.6300 0.2845c 0.2032,0.2032 0.3455,0.3455 0.5487 0.3455c 0.3048,-0.0000 1.0161,-1.7477 1.5241 -2.9873c 0.1219,-0.2439 0.1626,-0.4471 0.1626 -0.6300c 0.0000,-0.2032 -0.1829,-0.7519 -0.3455 -1.1583l -2.5605,-5.9543 c -0.3251,-0.7722 -0.5487,-0.9958 -1.2396 -0.9958c -0.1219,-0.0000 -0.2032,-0.0610 -0.2032 -0.1423v -0.4064 l 0.0406,-0.0406 c 0.0000,-0.0000 0.8942,0.0406 1.5038 0.0406c 0.9551,-0.0000 2.4183,-0.0406 2.4183 -0.0406l 0.0406,0.0610 v 0.3658 Z"/></g><g stroke-linejoin="miter" stroke-opacity="0.6" fill-opacity="0.0" stroke="rgb(0,0,0)" stroke-width="2.263332348999894" fill="rgb(0,0,0)" stroke-linecap="butt" stroke-miterlimit="10.0"><path d="M 142.5613,361.7063 v 9.1905 "/></g><g stroke-linejoin="miter" stroke-opacity="0.0" fill-opacity="0.1" stroke="rgb(0,0,0)" stroke-width="0.0" fill="rgb(0,0,0)" stroke-linecap="butt" stroke-miterlimit="10.0"><path d="M 84.3548,355.3659 l -0.0000,-306.3499 h -6.1270 l -0.0000,306.3499 Z"/></g><g stroke-linejoin="miter" stroke-opacity="1.0" fill-opacity="0.6" stroke="rgb(0,0,0)" fill-rule="evenodd" stroke-width="0.0" fill="rgb(0,0,0)" stroke-linecap="butt" stroke-miterlimit="10.0"><path d="M 43.8663,94.0867 ZM 49.1093,86.8724 c 0.0000,-0.1423 0.0203,-0.3048 0.2032 -0.4064c 0.2235,-0.1626 0.5893,-0.3455 0.8942 -0.3455c 0.2642,-0.0000 0.2845,0.2235 0.2845 0.6300v 3.2718 h 1.6461 l -0.1219,0.9551 h -1.5241 v 1.6867 c 0.0000,0.5690 0.0813,0.8535 0.6706 0.8535h 0.5487 c 0.1219,-0.0000 0.1423,0.1016 0.1423 0.1423v 0.4471 c 0.0000,-0.0000 -1.3006,-0.0406 -2.1541 -0.0406c -0.7722,-0.0000 -1.9712,0.0406 -1.9712 0.0406v -0.4471 c 0.0000,-0.0406 0.0203,-0.1423 0.1423 -0.1423h 0.5487 c 0.6300,-0.0000 0.6909,-0.2642 0.6909 -0.8535v -1.6867 h -3.9831 c -0.0813,-0.0000 -0.1219,-0.0406 -0.1829 -0.1219l -0.1626,-0.2235 l -0.2439,-0.4268 c -0.0203,-0.0000 -0.0203,-0.0203 -0.0203 -0.0406c 0.0000,-0.0203 0.0203,-0.0406 0.0406 -0.0610c 1.3209,-1.4632 3.6579,-5.9949 4.3895 -7.6613c 0.0203,-0.0813 0.0610,-0.1016 0.1423 -0.1016c 0.0203,-0.0000 0.4674,0.1829 0.7113 0.2235c -0.9145,2.4589 -2.4183,5.1008 -3.9018 7.4581h 3.2108 v -3.1499 ZM 52.7672,94.0867 ZM 57.2177,83.0520 c -0.8738,-0.0000 -2.1541,0.8535 -2.1541 5.5885c 0.0000,1.6664 0.3048,5.0195 2.0931 5.0195c 0.3455,-0.0000 1.3209,-0.2235 1.7477 -1.8086c 0.2642,-0.9754 0.4064,-2.1947 0.4064 -3.9627c 0.0000,-2.5809 -0.6503,-4.0237 -1.2396 -4.5317c -0.2235,-0.2032 -0.5284,-0.3048 -0.8535 -0.3048ZM 57.2177,83.0520 ZM 57.1364,94.3305 c -2.1744,-0.0000 -3.6376,-2.7841 -3.6376 -5.8933c 0.0000,-3.8002 1.8086,-6.0965 3.7189 -6.0965c 0.8738,-0.0000 1.7477,0.5487 2.3370 1.3412c 0.8535,1.1380 1.3006,2.6621 1.3006 4.5724c 0.0000,4.5114 -2.2354,6.0762 -3.7189 6.0762ZM 61.6682,94.0867 ZM 66.1186,83.0520 c -0.8738,-0.0000 -2.1541,0.8535 -2.1541 5.5885c 0.0000,1.6664 0.3048,5.0195 2.0931 5.0195c 0.3455,-0.0000 1.3209,-0.2235 1.7477 -1.8086c 0.2642,-0.9754 0.4064,-2.1947 0.4064 -3.9627c 0.0000,-2.5809 -0.6503,-4.0237 -1.2396 -4.5317c -0.2235,-0.2032 -0.5284,-0.3048 -0.8535 -0.3048ZM 66.1186,83.0520 ZM 66.0373,94.3305 c -2.1744,-0.0000 -3.6376,-2.7841 -3.6376 -5.8933c 0.0000,-3.8002 1.8086,-6.0965 3.7189 -6.0965c 0.8738,-0.0000 1.7477,0.5487 2.3370 1.3412c 0.8535,1.1380 1.3006,2.6621 1.3006 4.5724c 0.0000,4.5114 -2.2354,6.0762 -3.7189 6.0762Z"/></g><g stroke-linejoin="miter" stroke-opacity="0.6" fill-opacity="0.0" stroke="rgb(0,0,0)" stroke-width="2.263332348999894" fill="rgb(0,0,0)" stroke-linecap="butt" stroke-miterlimit="10.0"><path d="M 75.1643,94.0867 h 9.1905 "/></g><g stroke-linejoin="miter" stroke-opacity="1.0" fill-opacity="0.6" stroke="rgb(0,0,0)" fill-rule="evenodd" stroke-width="0.0" fill="rgb(0,0,0)" stroke-linecap="butt" stroke-miterlimit="10.0"><path d="M 43.8663,159.4065 ZM 48.2558,148.2905 c -0.5080,-0.0000 -1.9915,0.2845 -1.9915 1.5241c 0.0000,0.3658 -0.1423,0.9958 -0.6909 0.9958c -0.5284,-0.0000 -0.5690,-0.5893 -0.5690 -0.6503c 0.0000,-0.6300 0.8332,-2.4996 3.6579 -2.4996c 1.9712,-0.0000 2.5605,1.2396 2.5605 2.0525c 0.0000,0.5080 -0.1626,1.5241 -1.9915 2.6825c 1.1380,0.1829 2.6418,1.0161 2.6418 3.1295c 0.0000,2.6825 -2.0322,4.1253 -4.3285 4.1253c -1.1583,-0.0000 -2.7841,-0.5080 -2.7841 -1.2803c 0.0000,-0.3048 0.3048,-0.6503 0.7113 -0.6503c 0.3861,-0.0000 0.5690,0.2032 0.7519 0.4674c 0.2235,0.3455 0.5893,0.8332 1.5648 0.8332c 0.6706,-0.0000 2.5809,-0.6706 2.5809 -3.2312c 0.0000,-2.1744 -1.5241,-2.5199 -2.6215 -2.5199c -0.1829,-0.0000 -0.4064,0.0406 -0.6300 0.0813l -0.0813,-0.6097 c 1.5648,-0.2642 2.8654,-1.7883 2.8654 -2.7231c 0.0000,-1.1583 -0.8129,-1.7273 -1.6461 -1.7273ZM 52.7672,159.4065 ZM 57.2177,148.3718 c -0.8738,-0.0000 -2.1541,0.8535 -2.1541 5.5885c 0.0000,1.6664 0.3048,5.0195 2.0931 5.0195c 0.3455,-0.0000 1.3209,-0.2235 1.7477 -1.8086c 0.2642,-0.9754 0.4064,-2.1947 0.4064 -3.9627c 0.0000,-2.5809 -0.6503,-4.0237 -1.2396 -4.5317c -0.2235,-0.2032 -0.5284,-0.3048 -0.8535 -0.3048ZM 57.2177,148.3718 ZM 57.1364,159.6503 c -2.1744,-0.0000 -3.6376,-2.7841 -3.6376 -5.8933c 0.0000,-3.8002 1.8086,-6.0965 3.7189 -6.0965c 0.8738,-0.0000 1.7477,0.5487 2.3370 1.3412c 0.8535,1.1380 1.3006,2.6621 1.3006 4.5724c 0.0000,4.5114 -2.2354,6.0762 -3.7189 6.0762ZM 61.6682,159.4065 ZM 66.1186,148.3718 c -0.8738,-0.0000 -2.1541,0.8535 -2.1541 5.5885c 0.0000,1.6664 0.3048,5.0195 2.0931 5.0195c 0.3455,-0.0000 1.3209,-0.2235 1.7477 -1.8086c 0.2642,-0.9754 0.4064,-2.1947 0.4064 -3.9627c 0.0000,-2.5809 -0.6503,-4.0237 -1.2396 -4.5317c -0.2235,-0.2032 -0.5284,-0.3048 -0.8535 -0.3048ZM 66.1186,148.3718 ZM 66.0373,159.6503 c -2.1744,-0.0000 -3.6376,-2.7841 -3.6376 -5.8933c 0.0000,-3.8002 1.8086,-6.0965 3.7189 -6.0965c 0.8738,-0.0000 1.7477,0.5487 2.3370 1.3412c 0.8535,1.1380 1.3006,2.6621 1.3006 4.5724c 0.0000,4.5114 -2.2354,6.0762 -3.7189 6.0762Z"/></g><g stroke-linejoin="miter" stroke-opacity="0.6" fill-opacity="0.0" stroke="rgb(0,0,0)" stroke-width="2.263332348999894" fill="rgb(0,0,0)" stroke-linecap="butt" stroke-miterlimit="10.0"><path d="M 75.1643,159.4065 h 9.1905 "/></g><g stroke-linejoin="miter" stroke-opacity="1.0" fill-opacity="0.6" stroke="rgb(0,0,0)" fill-rule="evenodd" stroke-width="0.0" fill="rgb(0,0,0)" stroke-linecap="butt" stroke-miterlimit="10.0"><path d="M 43.8663,224.7263 ZM 45.0450,215.7237 c 0.0000,-1.1583 1.1177,-2.7434 3.2515 -2.7434c 1.5648,-0.0000 3.3937,0.5893 3.3937 2.9263c 0.0000,1.5445 -0.7925,2.3167 -1.8899 3.3734l -1.9306,1.8696 c -0.1016,0.1016 -1.4632,1.4428 -1.4632 2.3980h 3.4547 c 0.6909,-0.0000 1.0567,-0.3455 1.3412 -1.4632l 0.5080,0.0813 l -0.4064,2.5605 h -6.2794 c 0.0000,-1.1380 0.1829,-2.0119 2.0728 -3.9424l 1.4225,-1.4022 c 1.1380,-1.1583 1.6054,-2.1541 1.6054 -3.3937c 0.0000,-1.8493 -1.2599,-2.3776 -1.9509 -2.3776c -1.4022,-0.0000 -1.7883,0.7316 -1.7883 1.2193c 0.0000,0.1626 0.0406,0.3251 0.0813 0.4674c 0.0406,0.1423 0.0813,0.2845 0.0813 0.4471c 0.0000,0.5284 -0.4064,0.7316 -0.7316 0.7316c -0.4471,-0.0000 -0.7722,-0.3455 -0.7722 -0.7519ZM 52.7672,224.7263 ZM 57.2177,213.6916 c -0.8738,-0.0000 -2.1541,0.8535 -2.1541 5.5885c 0.0000,1.6664 0.3048,5.0195 2.0931 5.0195c 0.3455,-0.0000 1.3209,-0.2235 1.7477 -1.8086c 0.2642,-0.9754 0.4064,-2.1947 0.4064 -3.9627c 0.0000,-2.5809 -0.6503,-4.0237 -1.2396 -4.5317c -0.2235,-0.2032 -0.5284,-0.3048 -0.8535 -0.3048ZM 57.2177,213.6916 ZM 57.1364,224.9701 c -2.1744,-0.0000 -3.6376,-2.7841 -3.6376 -5.8933c 0.0000,-3.8002 1.8086,-6.0965 3.7189 -6.0965c 0.8738,-0.0000 1.7477,0.5487 2.3370 1.3412c 0.8535,1.1380 1.3006,2.6621 1.3006 4.5724c 0.0000,4.5114 -2.2354,6.0762 -3.7189 6.0762ZM 61.6682,224.7263 ZM 66.1186,213.6916 c -0.8738,-0.0000 -2.1541,0.8535 -2.1541 5.5885c 0.0000,1.6664 0.3048,5.0195 2.0931 5.0195c 0.3455,-0.0000 1.3209,-0.2235 1.7477 -1.8086c 0.2642,-0.9754 0.4064,-2.1947 0.4064 -3.9627c 0.0000,-2.5809 -0.6503,-4.0237 -1.2396 -4.5317c -0.2235,-0.2032 -0.5284,-0.3048 -0.8535 -0.3048ZM 66.1186,213.6916 ZM 66.0373,224.9701 c -2.1744,-0.0000 -3.6376,-2.7841 -3.6376 -5.8933c 0.0000,-3.8002 1.8086,-6.0965 3.7189 -6.0965c 0.8738,-0.0000 1.7477,0.5487 2.3370 1.3412c 0.8535,1.1380 1.3006,2.6621 1.3006 4.5724c 0.0000,4.5114 -2.2354,6.0762 -3.7189 6.0762Z"/></g><g stroke-linejoin="miter" stroke-opacity="0.6" fill-opacity="0.0" stroke="rgb(0,0,0)" stroke-width="2.263332348999894" fill="rgb(0,0,0)" stroke-linecap="butt" stroke-miterlimit="10.0"><path d="M 75.1643,224.7263 h 9.1905 "/></g><g stroke-linejoin="miter" stroke-opacity="1.0" fill-opacity="0.6" stroke="rgb(0,0,0)" fill-rule="evenodd" stroke-width="0.0" fill="rgb(0,0,0)" stroke-linecap="butt" stroke-miterlimit="10.0"><path d="M 43.8663,290.0461 ZM 47.6868,280.3526 c -0.3861,-0.0000 -1.2803,0.3658 -1.7273 0.5690l -0.2439,-0.6300 c 1.7883,-0.8332 2.4792,-1.2599 3.4953 -1.9915h 0.3861 v 10.2218 c 0.0000,0.7316 0.1016,0.9348 0.7722 0.9348h 1.0567 c 0.0610,-0.0000 0.1626,0.0406 0.1626 0.1626v 0.4471 l -2.7841,-0.0406 l -2.8247,0.0406 v -0.4471 c 0.0203,-0.0610 0.0406,-0.1626 0.1626 -0.1626h 1.2193 c 0.7722,-0.0000 0.7722,-0.3455 0.7722 -0.9348v -6.9907 c 0.0000,-0.6909 0.0000,-1.1787 -0.4471 -1.1787ZM 52.7672,290.0461 ZM 57.2177,279.0114 c -0.8738,-0.0000 -2.1541,0.8535 -2.1541 5.5885c 0.0000,1.6664 0.3048,5.0195 2.0931 5.0195c 0.3455,-0.0000 1.3209,-0.2235 1.7477 -1.8086c 0.2642,-0.9754 0.4064,-2.1947 0.4064 -3.9627c 0.0000,-2.5809 -0.6503,-4.0237 -1.2396 -4.5317c -0.2235,-0.2032 -0.5284,-0.3048 -0.8535 -0.3048ZM 57.2177,279.0114 ZM 57.1364,290.2899 c -2.1744,-0.0000 -3.6376,-2.7841 -3.6376 -5.8933c 0.0000,-3.8002 1.8086,-6.0965 3.7189 -6.0965c 0.8738,-0.0000 1.7477,0.5487 2.3370 1.3412c 0.8535,1.1380 1.3006,2.6621 1.3006 4.5724c 0.0000,4.5114 -2.2354,6.0762 -3.7189 6.0762ZM 61.6682,290.0461 ZM 66.1186,279.0114 c -0.8738,-0.0000 -2.1541,0.8535 -2.1541 5.5885c 0.0000,1.6664 0.3048,5.0195 2.0931 5.0195c 0.3455,-0.0000 1.3209,-0.2235 1.7477 -1.8086c 0.2642,-0.9754 0.4064,-2.1947 0.4064 -3.9627c 0.0000,-2.5809 -0.6503,-4.0237 -1.2396 -4.5317c -0.2235,-0.2032 -0.5284,-0.3048 -0.8535 -0.3048ZM 66.1186,279.0114 ZM 66.0373,290.2899 c -2.1744,-0.0000 -3.6376,-2.7841 -3.6376 -5.8933c 0.0000,-3.8002 1.8086,-6.0965 3.7189 -6.0965c 0.8738,-0.0000 1.7477,0.5487 2.3370 1.3412c 0.8535,1.1380 1.3006,2.6621 1.3006 4.5724c 0.0000,4.5114 -2.2354,6.0762 -3.7189 6.0762Z"/></g><g stroke-linejoin="miter" stroke-opacity="0.6" fill-opacity="0.0" stroke="rgb(0,0,0)" stroke-width="2.263332348999894" fill="rgb(0,0,0)" stroke-linecap="butt" stroke-miterlimit="10.0"><path d="M 75.1643,290.0461 h 9.1905 "/></g><g stroke-linejoin="miter" stroke-opacity="1.0" fill-opacity="0.6" stroke="rgb(0,0,0)" fill-rule="evenodd" stroke-width="0.0" fill="rgb(0,0,0)" stroke-linecap="butt" stroke-miterlimit="10.0"><path d="M 61.6682,355.3659 ZM 66.1186,344.3312 c -0.8738,-0.0000 -2.1541,0.8535 -2.1541 5.5885c 0.0000,1.6664 0.3048,5.0195 2.0931 5.0195c 0.3455,-0.0000 1.3209,-0.2235 1.7477 -1.8086c 0.2642,-0.9754 0.4064,-2.1947 0.4064 -3.9627c 0.0000,-2.5809 -0.6503,-4.0237 -1.2396 -4.5317c -0.2235,-0.2032 -0.5284,-0.3048 -0.8535 -0.3048ZM 66.1186,344.3312 ZM 66.0373,355.6097 c -2.1744,-0.0000 -3.6376,-2.7841 -3.6376 -5.8933c 0.0000,-3.8002 1.8086,-6.0965 3.7189 -6.0965c 0.8738,-0.0000 1.7477,0.5487 2.3370 1.3412c 0.8535,1.1380 1.3006,2.6621 1.3006 4.5724c 0.0000,4.5114 -2.2354,6.0762 -3.7189 6.0762Z"/></g><g stroke-linejoin="miter" stroke-opacity="0.6" fill-opacity="0.0" stroke="rgb(0,0,0)" stroke-width="2.263332348999894" fill="rgb(0,0,0)" stroke-linecap="butt" stroke-miterlimit="10.0"><path d="M 75.1643,355.3659 h 9.1905 "/></g><g stroke-linejoin="miter" stroke-opacity="0.0" fill-opacity="0.0" stroke="rgb(0,0,0)" stroke-width="0.0" fill="rgb(0,0,0)" stroke-linecap="butt" stroke-miterlimit="10.0"><path d="M 556.1337,355.3659 l -0.0000,-306.3499 h -459.5249 l -0.0000,306.3499 Z"/></g><g stroke-linejoin="miter" stroke-opacity="1.0" fill-opacity="1.0" stroke="rgb(102,102,102)" stroke-width="0.0" fill="rgb(87,57,99)" stroke-linecap="butt" stroke-miterlimit="10.0"><path d="M 537.7527,355.3659 l -0.0000,-33.3131 h -55.1430 l -0.0000,33.3131 Z"/></g><g stroke-linejoin="miter" stroke-opacity="1.0" fill-opacity="1.0" stroke="rgb(102,102,102)" stroke-width="0.0" fill="rgb(87,57,99)" stroke-linecap="butt" stroke-miterlimit="10.0"><path d="M 445.8477,355.3659 l -0.0000,-23.5151 h -55.1430 l -0.0000,23.5151 Z"/></g><g stroke-linejoin="miter" stroke-opacity="1.0" fill-opacity="1.0" stroke="rgb(102,102,102)" stroke-width="0.0" fill="rgb(87,57,99)" stroke-linecap="butt" stroke-miterlimit="10.0"><path d="M 353.9427,355.3659 l -0.0000,-140.4376 h -55.1430 l -0.0000,140.4376 Z"/></g><g stroke-linejoin="miter" stroke-opacity="1.0" fill-opacity="1.0" stroke="rgb(102,102,102)" stroke-width="0.0" fill="rgb(87,57,99)" stroke-linecap="butt" stroke-miterlimit="10.0"><path d="M 262.0378,355.3659 l -0.0000,-295.2455 h -55.1430 l -0.0000,295.2455 Z"/></g><g stroke-linejoin="miter" stroke-opacity="1.0" fill-opacity="1.0" stroke="rgb(102,102,102)" stroke-width="0.0" fill="rgb(87,57,99)" stroke-linecap="butt" stroke-miterlimit="10.0"><path d="M 170.1328,355.3659 l -0.0000,-306.3499 h -55.1430 l -0.0000,306.3499 Z"/></g><g stroke-linejoin="miter" stroke-opacity="1.0" fill-opacity="1.0" stroke="rgb(0,0,0)" fill-rule="evenodd" stroke-width="0.0" fill="rgb(255,255,84)" stroke-linecap="butt" stroke-miterlimit="10.0"><path d="M 501.2803,343.4973 ZM 507.5597,340.0629 c 0.0000,-2.0931 -1.1380,-3.1295 -2.3980 -3.1295c -0.9348,-0.0000 -1.6461,0.1423 -2.4386 0.4674l 0.6503,-5.5478 c 0.6706,0.0610 1.3616,0.0813 2.0728 0.0813c 1.0161,-0.0000 2.0728,-0.0610 3.1702 -0.1829l 0.1219,0.0610 l -0.3048,1.3209 c -0.7925,0.0813 -1.4428,0.1016 -2.0119 0.1016c -0.9145,-0.0000 -1.6054,-0.0813 -2.3167 -0.1626l -0.3861,3.2108 c 0.4268,-0.1626 1.1583,-0.3048 1.9509 -0.3048c 2.1541,-0.0000 3.3531,1.8696 3.3531 3.7392c 0.0000,2.2760 -1.5851,4.0237 -3.8814 4.0237c -1.1583,-0.0000 -2.8450,-0.6503 -2.8450 -1.4428c 0.0000,-0.3861 0.3251,-0.6503 0.6909 -0.6503c 0.4064,-0.0000 0.6706,0.3048 0.9145 0.6300c 0.3048,0.3658 0.6300,0.7722 1.2803 0.7722c 1.3006,-0.0000 2.3776,-1.2193 2.3776 -2.9873ZM 510.1812,343.4973 ZM 514.0017,333.8038 c -0.3861,-0.0000 -1.2803,0.3658 -1.7273 0.5690l -0.2439,-0.6300 c 1.7883,-0.8332 2.4792,-1.2599 3.4953 -1.9915h 0.3861 v 10.2218 c 0.0000,0.7316 0.1016,0.9348 0.7722 0.9348h 1.0567 c 0.0610,-0.0000 0.1626,0.0406 0.1626 0.1626v 0.4471 l -2.7841,-0.0406 l -2.8247,0.0406 v -0.4471 c 0.0203,-0.0610 0.0406,-0.1626 0.1626 -0.1626h 1.2193 c 0.7722,-0.0000 0.7722,-0.3455 0.7722 -0.9348v -6.9907 c 0.0000,-0.6909 0.0000,-1.1787 -0.4471 -1.1787Z"/></g><g stroke-linejoin="miter" stroke-opacity="1.0" fill-opacity="1.0" stroke="rgb(0,0,0)" fill-rule="evenodd" stroke-width="0.0" fill="rgb(255,255,84)" stroke-linecap="butt" stroke-miterlimit="10.0"><path d="M 409.3753,353.2952 ZM 413.7648,342.1793 c -0.5080,-0.0000 -1.9915,0.2845 -1.9915 1.5241c 0.0000,0.3658 -0.1423,0.9958 -0.6909 0.9958c -0.5284,-0.0000 -0.5690,-0.5893 -0.5690 -0.6503c 0.0000,-0.6300 0.8332,-2.4996 3.6579 -2.4996c 1.9712,-0.0000 2.5605,1.2396 2.5605 2.0525c 0.0000,0.5080 -0.1626,1.5241 -1.9915 2.6825c 1.1380,0.1829 2.6418,1.0161 2.6418 3.1295c 0.0000,2.6825 -2.0322,4.1253 -4.3285 4.1253c -1.1583,-0.0000 -2.7841,-0.5080 -2.7841 -1.2803c 0.0000,-0.3048 0.3048,-0.6503 0.7113 -0.6503c 0.3861,-0.0000 0.5690,0.2032 0.7519 0.4674c 0.2235,0.3455 0.5893,0.8332 1.5648 0.8332c 0.6706,-0.0000 2.5809,-0.6706 2.5809 -3.2312c 0.0000,-2.1744 -1.5241,-2.5199 -2.6215 -2.5199c -0.1829,-0.0000 -0.4064,0.0406 -0.6300 0.0813l -0.0813,-0.6097 c 1.5648,-0.2642 2.8654,-1.7883 2.8654 -2.7231c 0.0000,-1.1583 -0.8129,-1.7273 -1.6461 -1.7273ZM 418.2762,353.2952 ZM 420.6335,347.9710 c -0.0203,0.2032 -0.0203,0.5080 -0.0203 0.7113c 0.0000,3.4140 1.5241,4.2676 2.5402 4.2676c 0.9348,-0.0000 1.9306,-0.8738 1.9306 -2.9873c 0.0000,-0.9551 -0.4877,-2.9060 -2.4386 -2.9060c -0.4268,-0.0000 -1.1990,0.0406 -2.0119 0.9145ZM 420.6335,347.9710 ZM 425.9578,342.0777 c -1.3209,0.1219 -2.4589,0.4674 -3.4344 1.4225c -0.9348,0.9145 -1.6054,2.2760 -1.8290 3.9018c 0.4674,-0.5690 1.5851,-0.9958 2.3573 -0.9958c 3.0076,-0.0000 3.3937,2.4792 3.3937 3.4140c 0.0000,1.3819 -0.6909,3.7189 -3.4953 3.7189c -1.4835,-0.0000 -3.7392,-0.8738 -3.7392 -4.9179c 0.0000,-1.8696 0.6300,-3.6986 2.0322 -5.1008c 1.3006,-1.3209 2.6621,-1.8696 4.6537 -1.9712Z"/></g><g stroke-linejoin="miter" stroke-opacity="1.0" fill-opacity="1.0" stroke="rgb(0,0,0)" fill-rule="evenodd" stroke-width="0.0" fill="rgb(255,255,84)" stroke-linecap="butt" stroke-miterlimit="10.0"><path d="M 313.0199,236.3728 ZM 314.1985,227.3703 c 0.0000,-1.1583 1.1177,-2.7434 3.2515 -2.7434c 1.5648,-0.0000 3.3937,0.5893 3.3937 2.9263c 0.0000,1.5445 -0.7925,2.3167 -1.8899 3.3734l -1.9306,1.8696 c -0.1016,0.1016 -1.4632,1.4428 -1.4632 2.3980h 3.4547 c 0.6909,-0.0000 1.0567,-0.3455 1.3412 -1.4632l 0.5080,0.0813 l -0.4064,2.5605 h -6.2794 c 0.0000,-1.1380 0.1829,-2.0119 2.0728 -3.9424l 1.4225,-1.4022 c 1.1380,-1.1583 1.6054,-2.1541 1.6054 -3.3937c 0.0000,-1.8493 -1.2599,-2.3776 -1.9509 -2.3776c -1.4022,-0.0000 -1.7883,0.7316 -1.7883 1.2193c 0.0000,0.1626 0.0406,0.3251 0.0813 0.4674c 0.0406,0.1423 0.0813,0.2845 0.0813 0.4471c 0.0000,0.5284 -0.4064,0.7316 -0.7316 0.7316c -0.4471,-0.0000 -0.7722,-0.3455 -0.7722 -0.7519ZM 321.9208,236.3728 ZM 325.7413,226.6793 c -0.3861,-0.0000 -1.2803,0.3658 -1.7273 0.5690l -0.2439,-0.6300 c 1.7883,-0.8332 2.4792,-1.2599 3.4953 -1.9915h 0.3861 v 10.2218 c 0.0000,0.7316 0.1016,0.9348 0.7722 0.9348h 1.0567 c 0.0610,-0.0000 0.1626,0.0406 0.1626 0.1626v 0.4471 l -2.7841,-0.0406 l -2.8247,0.0406 v -0.4471 c 0.0203,-0.0610 0.0406,-0.1626 0.1626 -0.1626h 1.2193 c 0.7722,-0.0000 0.7722,-0.3455 0.7722 -0.9348v -6.9907 c 0.0000,-0.6909 0.0000,-1.1787 -0.4471 -1.1787ZM 330.8217,236.3728 ZM 337.1011,232.9384 c 0.0000,-2.0931 -1.1380,-3.1295 -2.3980 -3.1295c -0.9348,-0.0000 -1.6461,0.1423 -2.4386 0.4674l 0.6503,-5.5478 c 0.6706,0.0610 1.3616,0.0813 2.0728 0.0813c 1.0161,-0.0000 2.0728,-0.0610 3.1702 -0.1829l 0.1219,0.0610 l -0.3048,1.3209 c -0.7925,0.0813 -1.4428,0.1016 -2.0119 0.1016c -0.9145,-0.0000 -1.6054,-0.0813 -2.3167 -0.1626l -0.3861,3.2108 c 0.4268,-0.1626 1.1583,-0.3048 1.9509 -0.3048c 2.1541,-0.0000 3.3531,1.8696 3.3531 3.7392c 0.0000,2.2760 -1.5851,4.0237 -3.8814 4.0237c -1.1583,-0.0000 -2.8450,-0.6503 -2.8450 -1.4428c 0.0000,-0.3861 0.3251,-0.6503 0.6909 -0.6503c 0.4064,-0.0000 0.6706,0.3048 0.9145 0.6300c 0.3048,0.3658 0.6300,0.7722 1.2803 0.7722c 1.3006,-0.0000 2.3776,-1.2193 2.3776 -2.9873Z"/></g><g stroke-linejoin="miter" stroke-opacity="1.0" fill-opacity="1.0" stroke="rgb(0,0,0)" fill-rule="evenodd" stroke-width="0.0" fill="rgb(255,255,84)" stroke-linecap="butt" stroke-miterlimit="10.0"><path d="M 221.1149,81.5648 ZM 226.3579,74.3506 c 0.0000,-0.1423 0.0203,-0.3048 0.2032 -0.4064c 0.2235,-0.1626 0.5893,-0.3455 0.8942 -0.3455c 0.2642,-0.0000 0.2845,0.2235 0.2845 0.6300v 3.2718 h 1.6461 l -0.1219,0.9551 h -1.5241 v 1.6867 c 0.0000,0.5690 0.0813,0.8535 0.6706 0.8535h 0.5487 c 0.1219,-0.0000 0.1423,0.1016 0.1423 0.1423v 0.4471 c 0.0000,-0.0000 -1.3006,-0.0406 -2.1541 -0.0406c -0.7722,-0.0000 -1.9712,0.0406 -1.9712 0.0406v -0.4471 c 0.0000,-0.0406 0.0203,-0.1423 0.1423 -0.1423h 0.5487 c 0.6300,-0.0000 0.6909,-0.2642 0.6909 -0.8535v -1.6867 h -3.9831 c -0.0813,-0.0000 -0.1219,-0.0406 -0.1829 -0.1219l -0.1626,-0.2235 l -0.2439,-0.4268 c -0.0203,-0.0000 -0.0203,-0.0203 -0.0203 -0.0406c 0.0000,-0.0203 0.0203,-0.0406 0.0406 -0.0610c 1.3209,-1.4632 3.6579,-5.9949 4.3895 -7.6613c 0.0203,-0.0813 0.0610,-0.1016 0.1423 -0.1016c 0.0203,-0.0000 0.4674,0.1829 0.7113 0.2235c -0.9145,2.4589 -2.4183,5.1008 -3.9018 7.4581h 3.2108 v -3.1499 ZM 230.0158,81.5648 ZM 236.2952,78.1305 c 0.0000,-2.0931 -1.1380,-3.1295 -2.3980 -3.1295c -0.9348,-0.0000 -1.6461,0.1423 -2.4386 0.4674l 0.6503,-5.5478 c 0.6706,0.0610 1.3616,0.0813 2.0728 0.0813c 1.0161,-0.0000 2.0728,-0.0610 3.1702 -0.1829l 0.1219,0.0610 l -0.3048,1.3209 c -0.7925,0.0813 -1.4428,0.1016 -2.0119 0.1016c -0.9145,-0.0000 -1.6054,-0.0813 -2.3167 -0.1626l -0.3861,3.2108 c 0.4268,-0.1626 1.1583,-0.3048 1.9509 -0.3048c 2.1541,-0.0000 3.3531,1.8696 3.3531 3.7392c 0.0000,2.2760 -1.5851,4.0237 -3.8814 4.0237c -1.1583,-0.0000 -2.8450,-0.6503 -2.8450 -1.4428c 0.0000,-0.3861 0.3251,-0.6503 0.6909 -0.6503c 0.4064,-0.0000 0.6706,0.3048 0.9145 0.6300c 0.3048,0.3658 0.6300,0.7722 1.2803 0.7722c 1.3006,-0.0000 2.3776,-1.2193 2.3776 -2.9873ZM 238.9167,81.5648 ZM 240.0954,72.5623 c 0.0000,-1.1583 1.1177,-2.7434 3.2515 -2.7434c 1.5648,-0.0000 3.3937,0.5893 3.3937 2.9263c 0.0000,1.5445 -0.7925,2.3167 -1.8899 3.3734l -1.9306,1.8696 c -0.1016,0.1016 -1.4632,1.4428 -1.4632 2.3980h 3.4547 c 0.6909,-0.0000 1.0567,-0.3455 1.3412 -1.4632l 0.5080,0.0813 l -0.4064,2.5605 h -6.2794 c 0.0000,-1.1380 0.1829,-2.0119 2.0728 -3.9424l 1.4225,-1.4022 c 1.1380,-1.1583 1.6054,-2.1541 1.6054 -3.3937c 0.0000,-1.8493 -1.2599,-2.3776 -1.9509 -2.3776c -1.4022,-0.0000 -1.7883,0.7316 -1.7883 1.2193c 0.0000,0.1626 0.0406,0.3251 0.0813 0.4674c 0.0406,0.1423 0.0813,0.2845 0.0813 0.4471c 0.0000,0.5284 -0.4064,0.7316 -0.7316 0.7316c -0.4471,-0.0000 -0.7722,-0.3455 -0.7722 -0.7519Z"/></g><g stroke-linejoin="miter" stroke-opacity="1.0" fill-opacity="1.0" stroke="rgb(0,0,0)" fill-rule="evenodd" stroke-width="0.0" fill="rgb(255,255,84)" stroke-linecap="butt" stroke-miterlimit="10.0"><path d="M 129.2099,70.4605 ZM 134.4529,63.2463 c 0.0000,-0.1423 0.0203,-0.3048 0.2032 -0.4064c 0.2235,-0.1626 0.5893,-0.3455 0.8942 -0.3455c 0.2642,-0.0000 0.2845,0.2235 0.2845 0.6300v 3.2718 h 1.6461 l -0.1219,0.9551 h -1.5241 v 1.6867 c 0.0000,0.5690 0.0813,0.8535 0.6706 0.8535h 0.5487 c 0.1219,-0.0000 0.1423,0.1016 0.1423 0.1423v 0.4471 c 0.0000,-0.0000 -1.3006,-0.0406 -2.1541 -0.0406c -0.7722,-0.0000 -1.9712,0.0406 -1.9712 0.0406v -0.4471 c 0.0000,-0.0406 0.0203,-0.1423 0.1423 -0.1423h 0.5487 c 0.6300,-0.0000 0.6909,-0.2642 0.6909 -0.8535v -1.6867 h -3.9831 c -0.0813,-0.0000 -0.1219,-0.0406 -0.1829 -0.1219l -0.1626,-0.2235 l -0.2439,-0.4268 c -0.0203,-0.0000 -0.0203,-0.0203 -0.0203 -0.0406c 0.0000,-0.0203 0.0203,-0.0406 0.0406 -0.0610c 1.3209,-1.4632 3.6579,-5.9949 4.3895 -7.6613c 0.0203,-0.0813 0.0610,-0.1016 0.1423 -0.1016c 0.0203,-0.0000 0.4674,0.1829 0.7113 0.2235c -0.9145,2.4589 -2.4183,5.1008 -3.9018 7.4581h 3.2108 v -3.1499 ZM 138.1108,70.4605 ZM 140.4682,65.1362 c -0.0203,0.2032 -0.0203,0.5080 -0.0203 0.7113c 0.0000,3.4140 1.5241,4.2676 2.5402 4.2676c 0.9348,-0.0000 1.9306,-0.8738 1.9306 -2.9873c 0.0000,-0.9551 -0.4877,-2.9060 -2.4386 -2.9060c -0.4268,-0.0000 -1.1990,0.0406 -2.0119 0.9145ZM 140.4682,65.1362 ZM 145.7925,59.2429 c -1.3209,0.1219 -2.4589,0.4674 -3.4344 1.4225c -0.9348,0.9145 -1.6054,2.2760 -1.8290 3.9018c 0.4674,-0.5690 1.5851,-0.9958 2.3573 -0.9958c 3.0076,-0.0000 3.3937,2.4792 3.3937 3.4140c 0.0000,1.3819 -0.6909,3.7189 -3.4953 3.7189c -1.4835,-0.0000 -3.7392,-0.8738 -3.7392 -4.9179c 0.0000,-1.8696 0.6300,-3.6986 2.0322 -5.1008c 1.3006,-1.3209 2.6621,-1.8696 4.6537 -1.9712ZM 147.0118,70.4605 ZM 153.4944,64.2827 c 0.0000,-0.2032 0.0203,-0.5080 0.0203 -0.7113c 0.0000,-3.4140 -1.5241,-4.2676 -2.5605 -4.2676c -0.9348,-0.0000 -1.9102,0.8738 -1.9102 2.9873c 0.0000,0.9754 0.4877,2.9060 2.4183 2.9060c 0.4268,-0.0000 1.1990,-0.0406 2.0322 -0.9145ZM 153.4944,64.2827 ZM 148.1498,70.1760 c 1.3412,-0.1219 2.4589,-0.4674 3.4547 -1.4225c 0.9145,-0.9145 1.5851,-2.2760 1.8290 -3.9018c -0.4674,0.5690 -1.6054,0.9958 -2.3573 0.9958c -3.0076,-0.0000 -3.4140,-2.4792 -3.4140 -3.4140c 0.0000,-1.3819 0.6909,-3.7189 3.4953 -3.7189c 1.5038,-0.0000 3.7595,0.8738 3.7595 4.9179c 0.0000,1.8696 -0.6503,3.6986 -2.0322 5.1008c -1.3006,1.3209 -2.6825,1.8696 -4.6740 1.9712Z"/></g></svg>