<?xml version="1.0" encoding="UTF-8"?>
<!DOCTYPE svg PUBLIC "-//W3C//DTD SVG 1.1//EN"
    "http://www.w3.org/Graphics/SVG/1.1/DTD/svg11.dtd"><svg xmlns="http://www.w3.org/2000/svg" height="400.0000" stroke-opacity="1" viewBox="0 0 600 400" font-size="1" width="600.0000" xmlns:xlink="http://www.w3.org/1999/xlink" stroke="rgb(0,0,0)" version="1.1"><defs></defs><g stroke-linejoin="miter" stroke-opacity="1.0" fill-opacity="0.6" stroke="rgb(0,0,0)" fill-rule="evenodd" stroke-width="0.0" fill="rgb(0,0,0)" stroke-linecap="butt" stroke-miterlimit="10.0"><path d="M 108.8192,26.8403 ZM 124.2508,24.6787 v -7.5657 h -9.8174 v 7.5657 c 0.0000,0.9307 0.4503,1.3210 1.6512 1.3210h 0.7806 c 0.1201,-0.0000 0.2402,0.0901 0.2402 0.2402v 0.5704 l -0.0600,0.0600 c 0.0000,-0.0000 -2.5820,-0.0600 -3.7829 -0.0600c -1.0508,-0.0000 -3.8429,0.0600 -3.8429 0.0600l -0.0600,-0.0600 v -0.5704 c 0.0000,-0.1501 0.0901,-0.2402 0.2102 -0.2402h 0.8106 c 1.2309,-0.0000 1.6212,-0.4804 1.6212 -1.3210v -15.0714 c 0.0000,-0.9007 -0.4503,-1.3210 -1.6212 -1.3210h -0.8106 c -0.1201,-0.0000 -0.2402,-0.0901 -0.2402 -0.2402v -0.5704 l 0.0600,-0.0300 c 0.0000,-0.0000 2.6120,0.0300 3.7829 0.0300c 1.0808,-0.0000 3.8729,-0.0300 3.8729 -0.0300l 0.0600,0.0300 v 0.5704 c 0.0000,0.1501 -0.0901,0.2402 -0.2402 0.2402h -0.7806 c -1.2309,-0.0000 -1.6512,0.4804 -1.6512 1.3210v 6.3348 h 9.8174 v -6.3348 c 0.0000,-0.9007 -0.4503,-1.3210 -1.6512 -1.3210h -0.7806 c -0.1501,-0.0000 -0.2702,-0.0901 -0.2702 -0.2402v -0.5704 l 0.0600,-0.0300 c 0.0000,-0.0000 2.6120,0.0300 3.7829 0.0300c 1.0808,-0.0000 3.8729,-0.0300 3.8729 -0.0300l 0.0600,0.0300 v 0.5704 c 0.0000,0.1501 -0.0901,0.2402 -0.2402 0.2402h -0.7806 c -1.2309,-0.0000 -1.6512,0.4804 -1.6512 1.3210v 15.0714 c 0.0000,0.9307 0.4503,1.3210 1.6512 1.3210h 0.7806 c 0.1501,-0.0000 0.2702,0.0901 0.2702 0.2402v 0.5704 l -0.0600,0.0600 c 0.0000,-0.0000 -2.6120,-0.0600 -3.7829 -0.0600c -1.0808,-0.0000 -3.8729,0.0600 -3.8729 0.0600l -0.0600,-0.0600 v -0.5704 c 0.0000,-0.1501 0.0901,-0.2402 0.2402 -0.2402h 0.7806 c 1.2309,-0.0000 1.6512,-0.4804 1.6512 -1.3210ZM 129.1145,26.8403 ZM 130.1353,20.6856 c 0.0000,-4.1131 2.2217,-7.1154 6.2147 -7.1154c 4.4434,-0.0000 6.1547,3.7228 6.1547 6.8452c 0.0000,3.0023 -1.9515,6.7851 -6.2147 6.7851c -4.0230,-0.0000 -6.1547,-3.4526 -6.1547 -6.5149ZM 130.1353,20.6856 ZM 136.0197,14.5610 c -2.4018,-0.0000 -3.5127,2.8221 -3.5127 5.4341c 0.0000,2.3117 1.3210,6.1547 4.2932 6.1547c 1.3510,-0.0000 3.3325,-0.8106 3.3325 -4.7736c 0.0000,-4.4133 -1.6512,-6.8152 -4.1131 -6.8152ZM 143.4954,26.8403 ZM 149.5600,14.5310 c 0.0000,0.1501 -0.1201,0.2402 -0.2702 0.2402h -0.4503 c -0.6605,-0.0000 -0.8707,0.1801 -0.8707 0.4804c 0.0000,0.2102 0.1201,0.4804 0.2702 0.9007l 3.1524,7.9260 l 2.6120,-6.5149 l -0.5404,-1.3510 c -0.3903,-1.0208 -1.0208,-1.4411 -1.9215 -1.4411c -0.1501,-0.0000 -0.3002,-0.0600 -0.3002 -0.2102v -0.6005 l 0.0600,-0.0600 c 0.0000,-0.0000 1.6813,0.0600 2.7321 0.0600l 3.0023,-0.0600 l 0.0901,0.0600 v 0.5704 c 0.0000,0.1501 -0.1501,0.2402 -0.3002 0.2402h -0.5404 c -0.6005,-0.0000 -0.8707,0.1201 -0.8707 0.4203c 0.0000,0.2402 0.1201,0.5404 0.3002 0.9607l 3.1224,7.9260 l 3.1224,-7.7759 c 0.0901,-0.1801 0.1501,-0.4203 0.1501 -0.6605c 0.0000,-0.5104 -0.3302,-0.8707 -1.3510 -0.8707h -0.4503 c -0.1501,-0.0000 -0.2702,-0.1201 -0.2702 -0.2102v -0.6005 l 0.0901,-0.0600 c 0.0000,-0.0000 1.9815,0.0600 3.0923 0.0600c 1.0208,-0.0000 2.2217,-0.0600 2.2217 -0.0600l 0.0300,0.0600 v 0.5704 c 0.0000,0.1801 -0.1801,0.2402 -0.3603 0.2402c -0.7506,-0.0000 -1.5312,0.3302 -2.0716 1.6512l -4.0831,10.1477 c -0.1801,0.4503 -0.4203,0.6305 -0.6905 0.6305c -0.3002,-0.0000 -0.5404,-0.1801 -0.7205 -0.6005l -3.0023,-7.5057 l -3.0023,7.4456 c -0.2102,0.4804 -0.4503,0.6605 -0.7205 0.6605c -0.3002,-0.0000 -0.5404,-0.1801 -0.7205 -0.6005l -4.1131,-10.3879 c -0.4503,-1.1709 -0.9907,-1.4411 -1.8914 -1.4411c -0.1501,-0.0000 -0.3603,-0.0600 -0.3603 -0.2102v -0.6005 l 0.0600,-0.0600 c 0.0000,-0.0000 1.4111,0.0600 2.7321 0.0600c 1.3810,-0.0000 2.9722,-0.0600 2.9722 -0.0600l 0.0600,0.0901 v 0.5404 ZM 173.3380,26.8403 ZM 176.1001,24.6787 v -9.5772 h -2.0716 c -0.1201,-0.0000 -0.1501,-0.0300 -0.1501 -0.1501v -0.4203 c 0.0000,-0.2402 0.1501,-0.6005 0.6905 -0.6005h 1.5312 v -1.1709 c 0.0000,-4.6835 2.4318,-6.8752 4.9537 -6.8752c 1.1409,-0.0000 1.9215,0.3002 2.6720 0.8106c 0.6005,0.4503 0.8707,0.9607 0.8707 1.4411c 0.0000,0.6305 -0.4503,1.0808 -1.0208 1.0808c -0.6005,-0.0000 -0.9907,-0.3302 -1.2309 -0.8406c -0.3903,-0.9907 -0.9607,-1.4711 -1.8614 -1.4711c -0.9907,-0.0000 -2.1316,0.7205 -2.1316 5.3440v 1.6813 h 3.3025 c 0.1501,-0.0000 0.2402,0.0600 0.2402 0.1801v 0.6005 c 0.0000,0.2702 -0.4203,0.3903 -0.6905 0.3903h -2.8522 v 9.5772 c 0.0000,0.8707 0.3002,1.3210 1.2910 1.3210h 0.9907 c 0.1201,-0.0000 0.2402,0.0901 0.2402 0.2402v 0.5704 l -0.0600,0.0600 c 0.0000,-0.0000 -2.4619,-0.0600 -3.6327 -0.0600c -1.0808,-0.0000 -3.1224,0.0600 -3.1224 0.0600l -0.0600,-0.0600 v -0.5704 c 0.0000,-0.1501 0.0901,-0.2402 0.2402 -0.2402h 0.5704 c 1.0208,-0.0000 1.2910,-0.4503 1.2910 -1.3210ZM 184.2962,26.8403 ZM 186.9683,24.6787 v -7.4757 c 0.0000,-1.5011 -0.2102,-1.8314 -0.6605 -1.8314c -0.3903,-0.0000 -0.7506,0.0300 -1.2610 0.1501l -0.1501,-0.8406 c 1.8914,-0.3302 2.2217,-0.4203 3.1224 -0.8707c 0.3002,-0.1501 0.5404,-0.2402 0.7506 -0.2402h 0.4503 l -0.0901,2.7020 h 0.0901 c 0.7806,-1.1709 2.1016,-2.7020 3.5127 -2.7020c 1.2309,-0.0000 1.6813,0.6005 1.6813 1.3810c 0.0000,0.7806 -0.5104,1.2610 -1.2910 1.2610c -0.6005,-0.0000 -0.9307,-0.2402 -1.2309 -0.5404c -0.1801,-0.1801 -0.3903,-0.2702 -0.6005 -0.2702c -0.3302,-0.0000 -0.9907,0.5404 -1.7113 1.5612c -0.2102,0.2702 -0.3603,0.6605 -0.3603 1.0508v 6.6650 c 0.0000,0.8707 0.3002,1.3210 1.2910 1.3210h 0.8707 c 0.1501,-0.0000 0.2702,0.0901 0.2702 0.2402v 0.5704 l -0.0600,0.0600 c 0.0000,-0.0000 -2.3718,-0.0600 -3.5427 -0.0600c -1.0808,-0.0000 -3.1224,0.0600 -3.1224 0.0600l -0.0300,-0.0600 v -0.5704 c 0.0000,-0.1501 0.0600,-0.2402 0.2102 -0.2402h 0.5704 c 1.0208,-0.0000 1.2910,-0.4503 1.2910 -1.3210ZM 194.7141,26.8403 ZM 198.1367,18.5240 h 5.5242 c 0.3002,-0.0000 0.4203,-0.1501 0.4203 -0.4203c 0.0000,-2.7921 -1.4111,-3.5127 -2.4919 -3.5127c -0.6905,-0.0000 -2.9422,0.2702 -3.4526 3.9330ZM 198.1367,18.5240 ZM 206.0627,24.0482 l 0.6005,0.4804 c -1.1409,1.5612 -2.9122,2.6720 -5.0738 2.6720c -4.1131,-0.0000 -5.8544,-3.0623 -5.8544 -6.3348c 0.0000,-4.5635 3.0023,-7.2955 5.8544 -7.2955c 3.9630,-0.0000 4.8937,3.0923 4.8937 5.6142c 0.0000,0.3302 -0.2102,0.5104 -0.5404 0.5104h -7.8960 c -0.0300,0.1801 -0.0300,0.3603 -0.0300 0.6005c 0.0000,3.0623 2.1316,5.4341 4.2932 5.4341c 1.6512,-0.0000 2.7020,-0.5404 3.7528 -1.6813ZM 207.5638,26.8403 ZM 217.7115,16.7527 c -0.8106,-1.3510 -1.8314,-2.1616 -3.0923 -2.1616c -2.4018,-0.0000 -3.6928,2.3117 -3.6928 5.4341c 0.0000,4.5334 2.6420,5.8544 4.3833 5.8544c 0.5704,-0.0000 1.6212,-0.0600 2.4018 -0.6605v -8.4664 ZM 217.7115,16.7527 ZM 217.7115,31.5839 v -5.3741 c -0.4503,0.3903 -1.4111,0.9907 -3.1224 0.9907c -4.3233,-0.0000 -5.9445,-3.7829 -5.9445 -6.5750c 0.0000,-3.9630 2.4318,-7.0553 6.0946 -7.0553c 1.4711,-0.0000 2.7621,0.4203 3.7528 1.2910l 0.4503,-0.7205 c 0.2102,-0.3603 0.4203,-0.5704 0.6305 -0.5704c 0.3302,-0.0000 0.3903,0.3302 0.3903 0.7506v 17.2631 c 0.0000,0.8707 0.3002,1.3210 1.2910 1.3210h 0.5704 c 0.1201,-0.0000 0.2402,0.0901 0.2402 0.2402v 0.5704 l -0.0600,0.0600 c 0.0000,-0.0000 -2.0415,-0.0600 -3.2124 -0.0600c -1.0808,-0.0000 -3.4226,0.0600 -3.4226 0.0600l -0.0600,-0.0600 v -0.5704 c 0.0000,-0.1501 0.0901,-0.2402 0.2402 -0.2402h 0.8707 c 1.0208,-0.0000 1.2910,-0.4503 1.2910 -1.3210ZM 222.3650,26.8403 ZM 235.2448,23.3577 c 0.0000,1.5011 0.1501,1.9815 0.7506 1.9815c 0.3603,-0.0000 1.0208,-0.0600 1.5312 -0.1501l 0.1201,0.8406 c -1.8314,0.3302 -3.3025,0.6305 -3.9930 1.1709h -0.6605 l 0.0901,-2.2217 h -0.0901 c -1.6512,1.8014 -3.0023,2.2217 -4.2332 2.2217c -2.9722,-0.0000 -3.7528,-2.0115 -3.7528 -4.0831v -6.8452 c 0.0000,-0.9907 -0.2102,-1.5011 -1.3210 -1.5011c -0.1201,-0.0000 -0.3302,0.0300 -0.5104 0.0300l -0.0901,-0.0300 v -0.7806 l 0.0901,-0.0901 c 0.0000,-0.0000 2.0415,0.0600 3.0023 0.0600c 0.4203,-0.0000 1.1108,-0.0600 1.1108 -0.0600l -0.0300,2.4018 v 6.3948 c 0.0000,2.6720 1.3810,3.1524 2.2817 3.1524c 0.6905,-0.0000 1.3210,-0.2702 1.9515 -0.7205c 0.7205,-0.5404 1.2009,-0.9607 1.5011 -1.3510v -7.4156 c 0.0000,-1.0808 -0.1501,-1.5912 -1.2610 -1.5912c -0.1801,-0.0000 -0.5104,0.0300 -0.6005 0.0300l -0.0600,-0.0600 v -0.7506 l 0.0600,-0.0901 c 0.0000,-0.0000 2.1316,0.0600 2.9722 0.0600c 0.6905,-0.0000 1.1709,-0.0600 1.1709 -0.0600l -0.0300,2.3718 v 7.0854 ZM 237.8868,26.8403 ZM 241.3094,18.5240 h 5.5242 c 0.3002,-0.0000 0.4203,-0.1501 0.4203 -0.4203c 0.0000,-2.7921 -1.4111,-3.5127 -2.4919 -3.5127c -0.6905,-0.0000 -2.9422,0.2702 -3.4526 3.9330ZM 241.3094,18.5240 ZM 249.2354,24.0482 l 0.6005,0.4804 c -1.1409,1.5612 -2.9122,2.6720 -5.0738 2.6720c -4.1131,-0.0000 -5.8544,-3.0623 -5.8544 -6.3348c 0.0000,-4.5635 3.0023,-7.2955 5.8544 -7.2955c 3.9630,-0.0000 4.8937,3.0923 4.8937 5.6142c 0.0000,0.3302 -0.2102,0.5104 -0.5404 0.5104h -7.8960 c -0.0300,0.1801 -0.0300,0.3603 -0.0300 0.6005c 0.0000,3.0623 2.1316,5.4341 4.2932 5.4341c 1.6512,-0.0000 2.7020,-0.5404 3.7528 -1.6813ZM 250.7365,26.8403 ZM 261.6648,24.6787 v -6.5750 c 0.0000,-2.1016 -0.3603,-3.0923 -1.9515 -3.0923c -1.3210,-0.0000 -2.4619,0.5104 -3.9930 2.3117v 7.3556 c 0.0000,0.8707 0.3002,1.3210 1.2910 1.3210h 0.4203 c 0.1501,-0.0000 0.2402,0.0901 0.2402 0.2402v 0.5704 l -0.0600,0.0600 c 0.0000,-0.0000 -1.8914,-0.0600 -3.0623 -0.0600c -1.0808,-0.0000 -3.1224,0.0600 -3.1224 0.0600l -0.0600,-0.0600 v -0.5704 c 0.0000,-0.1501 0.0901,-0.2402 0.2402 -0.2402h 0.5704 c 1.0208,-0.0000 1.2910,-0.4503 1.2910 -1.3210v -7.4757 c 0.0000,-1.6212 -0.2402,-1.8314 -0.6605 -1.8314c -0.3903,-0.0000 -0.7506,0.0300 -1.2610 0.1501l -0.1501,-0.8406 c 1.2610,-0.2102 2.1616,-0.3603 3.0923 -0.8707c 0.3302,-0.1501 0.5704,-0.2402 0.7806 -0.2402h 0.4503 l -0.0901,2.6720 h 0.0901 c 1.9215,-2.2517 3.3625,-2.6720 4.8937 -2.6720c 2.7020,-0.0000 3.2725,2.0716 3.2725 4.7436v 6.3648 c 0.0000,0.8707 0.3302,1.3210 1.2910 1.3210h 0.5704 c 0.1501,-0.0000 0.2702,0.0901 0.2702 0.2402v 0.5704 l -0.0600,0.0600 c 0.0000,-0.0000 -2.0716,-0.0600 -3.2425 -0.0600c -1.0508,-0.0000 -2.9422,0.0600 -2.9422 0.0600l -0.0600,-0.0600 v -0.5704 c 0.0000,-0.1501 0.0901,-0.2402 0.2402 -0.2402h 0.4203 c 0.9907,-0.0000 1.2910,-0.4503 1.2910 -1.3210ZM 266.3483,26.8403 ZM 271.2720,15.1014 v 7.6858 c 0.0000,1.8614 0.1801,2.7621 0.9907 2.7621c 0.7806,-0.0000 1.3810,-0.2402 2.1616 -0.8406l 0.5404,0.5104 c -1.1709,1.3210 -2.3718,1.9815 -3.7528 1.9815c -1.3810,-0.0000 -2.1917,-0.8406 -2.1917 -2.9722v -9.1269 h -1.9515 c -0.0901,-0.0000 -0.1201,-0.0300 -0.1201 -0.1201v -0.9307 c 0.0000,-0.0901 0.0300,-0.1201 0.0901 -0.1201c 2.0115,-0.0000 2.4919,-1.1709 2.4919 -3.4526v -0.5704 l 1.7413,-0.6005 v 4.6235 h 3.3025 c 0.1501,-0.0000 0.2402,0.0600 0.2402 0.1801v 0.6005 c 0.0000,0.2702 -0.4203,0.3903 -0.7205 0.3903h -2.8221 ZM 275.4152,26.8403 ZM 278.2673,24.6787 v -15.0414 c 0.0000,-1.7113 -0.3002,-2.1917 -0.9007 -2.1917l -0.9607,0.1201 c -0.0901,-0.0000 -0.1801,-0.0600 -0.1801 -0.1501l -0.0600,-0.7506 c 0.4804,-0.0000 1.5912,-0.1801 2.1016 -0.2702c 0.5404,-0.1201 0.9607,-0.2402 1.5612 -0.5104h 0.6605 v 18.7942 c 0.0000,0.8707 0.3302,1.3210 1.2910 1.3210h 0.7205 c 0.1201,-0.0000 0.2402,0.0901 0.2402 0.2402v 0.5704 l -0.0600,0.0600 c 0.0000,-0.0000 -2.1917,-0.0600 -3.3625 -0.0600c -1.0508,-0.0000 -3.2425,0.0600 -3.2425 0.0600l -0.0300,-0.0600 v -0.5704 c 0.0000,-0.1501 0.0600,-0.2402 0.2102 -0.2402h 0.7205 c 0.9907,-0.0000 1.2910,-0.4503 1.2910 -1.3210ZM 283.2211,26.8403 ZM 289.4658,14.5310 c 0.0000,0.1501 -0.1801,0.2402 -0.3302 0.2402c -0.9007,-0.0000 -1.2910,0.1801 -1.2910 0.6605c 0.0000,0.1801 0.0600,0.4203 0.1801 0.6905l 3.3025,7.7459 l 3.3325,-7.6258 c 0.1501,-0.2702 0.2102,-0.5104 0.2102 -0.6905c 0.0000,-0.6305 -0.6005,-0.7806 -1.2610 -0.7806h -0.1201 c -0.1501,-0.0000 -0.3002,-0.1201 -0.3002 -0.2102v -0.5704 l 0.0600,-0.0901 c 0.0000,-0.0000 1.7713,0.0600 2.8221 0.0600c 0.8406,-0.0000 2.0716,-0.0600 2.0716 -0.0600l 0.0901,0.0600 v 0.5704 c 0.0000,0.1501 -0.1201,0.2402 -0.3302 0.2402c -1.1409,-0.0000 -1.7113,1.1709 -2.1316 2.0415c -1.5912,3.3625 -2.9122,6.4549 -5.3140 12.2493c -0.9007,2.1616 -1.9815,4.6835 -4.1131 4.6835c -0.5704,-0.0000 -1.7413,-0.3302 -1.7413 -1.4111c 0.0000,-0.9007 0.6605,-1.1709 1.1409 -1.1709c 0.4503,-0.0000 0.7506,0.1801 0.9307 0.4203c 0.3002,0.3002 0.5104,0.5104 0.8106 0.5104c 0.4503,-0.0000 1.5011,-2.5820 2.2517 -4.4133c 0.1801,-0.3603 0.2402,-0.6605 0.2402 -0.9307c 0.0000,-0.3002 -0.2702,-1.1108 -0.5104 -1.7113l -3.7829,-8.7967 c -0.4804,-1.1409 -0.8106,-1.4711 -1.8314 -1.4711c -0.1801,-0.0000 -0.3002,-0.0901 -0.3002 -0.2102v -0.6005 l 0.0600,-0.0600 c 0.0000,-0.0000 1.3210,0.0600 2.2217 0.0600c 1.4111,-0.0000 3.5727,-0.0600 3.5727 -0.0600l 0.0600,0.0901 v 0.5404 ZM 306.0083,26.8403 ZM 316.0359,24.1683 v -7.7759 c -0.7205,-1.1409 -1.5312,-1.7713 -2.9422 -1.7713c -0.6005,-0.0000 -1.8314,0.0901 -2.7921 1.5011c -0.4203,0.6305 -0.9307,1.9215 -0.9307 4.0831c 0.0000,3.9330 2.0415,5.7343 3.6628 5.7343c 0.9907,-0.0000 1.8014,-0.6005 3.0023 -1.7713ZM 316.0359,24.1683 ZM 318.2876,5.8845 v 17.3531 c 0.0000,0.9007 0.0600,1.3810 0.1201 1.5912c 0.0901,0.2702 0.4203,0.4503 0.6605 0.4503c 0.3603,-0.0000 1.0208,-0.0000 1.4711 -0.0901l 0.1201,0.8406 c -1.7413,0.3002 -3.3025,0.6305 -3.9330 1.1709h -0.7205 l 0.0901,-2.0716 c -1.1409,1.1709 -2.3117,2.0716 -3.8429 2.0716c -3.2425,-0.0000 -5.2240,-2.7621 -5.2240 -6.4549c 0.0000,-2.2217 0.6005,-4.0831 1.8914 -5.3741c 1.2009,-1.1409 2.5219,-1.8014 4.5034 -1.8014c 0.6005,-0.0000 1.9215,0.2702 2.6120 0.6605v -4.5935 c 0.0000,-1.7113 -0.2702,-2.1917 -0.8707 -2.1917l -0.9907,0.1201 c -0.0600,-0.0000 -0.1501,-0.0600 -0.1501 -0.1501l -0.0600,-0.7506 c 0.4804,-0.0000 1.5612,-0.1801 2.0716 -0.2702c 0.5704,-0.1201 0.9907,-0.2402 1.5912 -0.5104h 0.6605 ZM 320.8395,26.8403 ZM 321.8603,20.6856 c 0.0000,-4.1131 2.2217,-7.1154 6.2147 -7.1154c 4.4434,-0.0000 6.1547,3.7228 6.1547 6.8452c 0.0000,3.0023 -1.9515,6.7851 -6.2147 6.7851c -4.0230,-0.0000 -6.1547,-3.4526 -6.1547 -6.5149ZM 321.8603,20.6856 ZM 327.7447,14.5610 c -2.4018,-0.0000 -3.5127,2.8221 -3.5127 5.4341c 0.0000,2.3117 1.3210,6.1547 4.2932 6.1547c 1.3510,-0.0000 3.3325,-0.8106 3.3325 -4.7736c 0.0000,-4.4133 -1.6512,-6.8152 -4.1131 -6.8152ZM 342.7261,26.8403 ZM 348.9708,14.5310 c 0.0000,0.1501 -0.1801,0.2402 -0.3302 0.2402c -0.9007,-0.0000 -1.2910,0.1801 -1.2910 0.6605c 0.0000,0.1801 0.0600,0.4203 0.1801 0.6905l 3.3025,7.7459 l 3.3325,-7.6258 c 0.1501,-0.2702 0.2102,-0.5104 0.2102 -0.6905c 0.0000,-0.6305 -0.6005,-0.7806 -1.2610 -0.7806h -0.1201 c -0.1501,-0.0000 -0.3002,-0.1201 -0.3002 -0.2102v -0.5704 l 0.0600,-0.0901 c 0.0000,-0.0000 1.7713,0.0600 2.8221 0.0600c 0.8406,-0.0000 2.0716,-0.0600 2.0716 -0.0600l 0.0901,0.0600 v 0.5704 c 0.0000,0.1501 -0.1201,0.2402 -0.3302 0.2402c -1.1409,-0.0000 -1.7113,1.1709 -2.1316 2.0415c -1.5912,3.3625 -2.9122,6.4549 -5.3140 12.2493c -0.9007,2.1616 -1.9815,4.6835 -4.1131 4.6835c -0.5704,-0.0000 -1.7413,-0.3302 -1.7413 -1.4111c 0.0000,-0.9007 0.6605,-1.1709 1.1409 -1.1709c 0.4503,-0.0000 0.7506,0.1801 0.9307 0.4203c 0.3002,0.3002 0.5104,0.5104 0.8106 0.5104c 0.4503,-0.0000 1.5011,-2.5820 2.2517 -4.4133c 0.1801,-0.3603 0.2402,-0.6605 0.2402 -0.9307c 0.0000,-0.3002 -0.2702,-1.1108 -0.5104 -1.7113l -3.7829,-8.7967 c -0.4804,-1.1409 -0.8106,-1.4711 -1.8314 -1.4711c -0.1801,-0.0000 -0.3002,-0.0901 -0.3002 -0.2102v -0.6005 l 0.0600,-0.0600 c 0.0000,-0.0000 1.3210,0.0600 2.2217 0.0600c 1.4111,-0.0000 3.5727,-0.0600 3.5727 -0.0600l 0.0600,0.0901 v 0.5404 ZM 358.0076,26.8403 ZM 359.0284,20.6856 c 0.0000,-4.1131 2.2217,-7.1154 6.2147 -7.1154c 4.4434,-0.0000 6.1547,3.7228 6.1547 6.8452c 0.0000,3.0023 -1.9515,6.7851 -6.2147 6.7851c -4.0230,-0.0000 -6.1547,-3.4526 -6.1547 -6.5149ZM 359.0284,20.6856 ZM 364.9128,14.5610 c -2.4018,-0.0000 -3.5127,2.8221 -3.5127 5.4341c 0.0000,2.3117 1.3210,6.1547 4.2932 6.1547c 1.3510,-0.0000 3.3325,-0.8106 3.3325 -4.7736c 0.0000,-4.4133 -1.6512,-6.8152 -4.1131 -6.8152ZM 372.3885,26.8403 ZM 385.2682,23.3577 c 0.0000,1.5011 0.1501,1.9815 0.7506 1.9815c 0.3603,-0.0000 1.0208,-0.0600 1.5312 -0.1501l 0.1201,0.8406 c -1.8314,0.3302 -3.3025,0.6305 -3.9930 1.1709h -0.6605 l 0.0901,-2.2217 h -0.0901 c -1.6512,1.8014 -3.0023,2.2217 -4.2332 2.2217c -2.9722,-0.0000 -3.7528,-2.0115 -3.7528 -4.0831v -6.8452 c 0.0000,-0.9907 -0.2102,-1.5011 -1.3210 -1.5011c -0.1201,-0.0000 -0.3302,0.0300 -0.5104 0.0300l -0.0901,-0.0300 v -0.7806 l 0.0901,-0.0901 c 0.0000,-0.0000 2.0415,0.0600 3.0023 0.0600c 0.4203,-0.0000 1.1108,-0.0600 1.1108 -0.0600l -0.0300,2.4018 v 6.3948 c 0.0000,2.6720 1.3810,3.1524 2.2817 3.1524c 0.6905,-0.0000 1.3210,-0.2702 1.9515 -0.7205c 0.7205,-0.5404 1.2009,-0.9607 1.5011 -1.3510v -7.4156 c 0.0000,-1.0808 -0.1501,-1.5912 -1.2610 -1.5912c -0.1801,-0.0000 -0.5104,0.0300 -0.6005 0.0300l -0.0600,-0.0600 v -0.7506 l 0.0600,-0.0901 c 0.0000,-0.0000 2.1316,0.0600 2.9722 0.0600c 0.6905,-0.0000 1.1709,-0.0600 1.1709 -0.0600l -0.0300,2.3718 v 7.0854 ZM 395.4159,26.8403 ZM 408.2956,23.3577 c 0.0000,1.5011 0.1501,1.9815 0.7506 1.9815c 0.3603,-0.0000 1.0208,-0.0600 1.5312 -0.1501l 0.1201,0.8406 c -1.8314,0.3302 -3.3025,0.6305 -3.9930 1.1709h -0.6605 l 0.0901,-2.2217 h -0.0901 c -1.6512,1.8014 -3.0023,2.2217 -4.2332 2.2217c -2.9722,-0.0000 -3.7528,-2.0115 -3.7528 -4.0831v -6.8452 c 0.0000,-0.9907 -0.2102,-1.5011 -1.3210 -1.5011c -0.1201,-0.0000 -0.3302,0.0300 -0.5104 0.0300l -0.0901,-0.0300 v -0.7806 l 0.0901,-0.0901 c 0.0000,-0.0000 2.0415,0.0600 3.0023 0.0600c 0.4203,-0.0000 1.1108,-0.0600 1.1108 -0.0600l -0.0300,2.4018 v 6.3948 c 0.0000,2.6720 1.3810,3.1524 2.2817 3.1524c 0.6905,-0.0000 1.3210,-0.2702 1.9515 -0.7205c 0.7205,-0.5404 1.2009,-0.9607 1.5011 -1.3510v -7.4156 c 0.0000,-1.0808 -0.1501,-1.5912 -1.2610 -1.5912c -0.1801,-0.0000 -0.5104,0.0300 -0.6005 0.0300l -0.0600,-0.0600 v -0.7506 l 0.0600,-0.0901 c 0.0000,-0.0000 2.1316,0.0600 2.9722 0.0600c 0.6905,-0.0000 1.1709,-0.0600 1.1709 -0.0600l -0.0300,2.3718 v 7.0854 ZM 410.9376,26.8403 ZM 412.2286,22.6371 l 0.8106,-0.0300 c 0.0901,0.7506 0.4203,2.1917 1.0808 2.8822c 0.3002,0.3302 1.1108,0.8707 2.2217 0.8707c 1.0508,-0.0000 2.6120,-0.8406 2.6120 -2.3117c 0.0000,-1.2910 -0.7205,-2.1616 -3.0923 -3.1824c -2.1917,-0.9607 -3.3325,-1.5912 -3.3325 -3.8429c 0.0000,-2.0115 1.7713,-3.4526 4.1431 -3.4526c 1.5011,-0.0000 2.6120,0.2702 3.5427 0.7506c 0.1801,0.9607 0.2702,1.9815 0.3302 3.0623l -0.8106,0.0300 c -0.6305,-2.4619 -2.4318,-2.9422 -3.0623 -2.9422c -1.1409,-0.0000 -2.3117,0.4503 -2.3117 2.1016c 0.0000,1.2009 0.5704,1.8014 2.2217 2.4018c 2.4318,0.9007 4.3833,1.9815 4.3833 4.3833c 0.0000,2.9722 -3.1524,3.8429 -4.5635 3.8429c -1.0508,-0.0000 -1.9215,-0.1201 -2.7020 -0.3302c -0.2102,-0.0300 -0.3603,-0.0600 -0.5704 -0.0600c -0.1501,-0.0000 -0.3903,0.0300 -0.6905 0.0901c 0.0000,-1.2610 -0.0901,-2.7921 -0.2102 -4.2632ZM 422.0761,26.8403 ZM 425.4987,18.5240 h 5.5242 c 0.3002,-0.0000 0.4203,-0.1501 0.4203 -0.4203c 0.0000,-2.7921 -1.4111,-3.5127 -2.4919 -3.5127c -0.6905,-0.0000 -2.9422,0.2702 -3.4526 3.9330ZM 425.4987,18.5240 ZM 433.4247,24.0482 l 0.6005,0.4804 c -1.1409,1.5612 -2.9122,2.6720 -5.0738 2.6720c -4.1131,-0.0000 -5.8544,-3.0623 -5.8544 -6.3348c 0.0000,-4.5635 3.0023,-7.2955 5.8544 -7.2955c 3.9630,-0.0000 4.8937,3.0923 4.8937 5.6142c 0.0000,0.3302 -0.2102,0.5104 -0.5404 0.5104h -7.8960 c -0.0300,0.1801 -0.0300,0.3603 -0.0300 0.6005c 0.0000,3.0623 2.1316,5.4341 4.2932 5.4341c 1.6512,-0.0000 2.7020,-0.5404 3.7528 -1.6813ZM 442.4315,26.8403 ZM 457.8631,24.6787 v -7.5657 h -9.8174 v 7.5657 c 0.0000,0.9307 0.4503,1.3210 1.6512 1.3210h 0.7806 c 0.1201,-0.0000 0.2402,0.0901 0.2402 0.2402v 0.5704 l -0.0600,0.0600 c 0.0000,-0.0000 -2.5820,-0.0600 -3.7829 -0.0600c -1.0508,-0.0000 -3.8429,0.0600 -3.8429 0.0600l -0.0600,-0.0600 v -0.5704 c 0.0000,-0.1501 0.0901,-0.2402 0.2102 -0.2402h 0.8106 c 1.2309,-0.0000 1.6212,-0.4804 1.6212 -1.3210v -15.0714 c 0.0000,-0.9007 -0.4503,-1.3210 -1.6212 -1.3210h -0.8106 c -0.1201,-0.0000 -0.2402,-0.0901 -0.2402 -0.2402v -0.5704 l 0.0600,-0.0300 c 0.0000,-0.0000 2.6120,0.0300 3.7829 0.0300c 1.0808,-0.0000 3.8729,-0.0300 3.8729 -0.0300l 0.0600,0.0300 v 0.5704 c 0.0000,0.1501 -0.0901,0.2402 -0.2402 0.2402h -0.7806 c -1.2309,-0.0000 -1.6512,0.4804 -1.6512 1.3210v 6.3348 h 9.8174 v -6.3348 c 0.0000,-0.9007 -0.4503,-1.3210 -1.6512 -1.3210h -0.7806 c -0.1501,-0.0000 -0.2702,-0.0901 -0.2702 -0.2402v -0.5704 l 0.0600,-0.0300 c 0.0000,-0.0000 2.6120,0.0300 3.7829 0.0300c 1.0808,-0.0000 3.8729,-0.0300 3.8729 -0.0300l 0.0600,0.0300 v 0.5704 c 0.0000,0.1501 -0.0901,0.2402 -0.2402 0.2402h -0.7806 c -1.2309,-0.0000 -1.6512,0.4804 -1.6512 1.3210v 15.0714 c 0.0000,0.9307 0.4503,1.3210 1.6512 1.3210h 0.7806 c 0.1501,-0.0000 0.2702,0.0901 0.2702 0.2402v 0.5704 l -0.0600,0.0600 c 0.0000,-0.0000 -2.6120,-0.0600 -3.7829 -0.0600c -1.0808,-0.0000 -3.8729,0.0600 -3.8729 0.0600l -0.0600,-0.0600 v -0.5704 c 0.0000,-0.1501 0.0901,-0.2402 0.2402 -0.2402h 0.7806 c 1.2309,-0.0000 1.6512,-0.4804 1.6512 -1.3210ZM 463.4474,26.8403 ZM 472.1840,19.4847 l -2.3718,0.6005 c -2.6420,0.8106 -3.0323,2.1917 -3.0323 3.5427c 0.0000,0.9307 0.4503,2.3418 2.3418 2.3418c 0.9007,-0.0000 2.2817,-0.8707 3.0623 -1.5312v -4.9537 ZM 472.1840,19.4847 ZM 474.1054,27.2006 c -1.1409,-0.0000 -1.7713,-1.0208 -1.8914 -1.7413l -0.6905,0.4804 c -1.3810,0.9607 -1.8914,1.2610 -3.2725 1.2610c -2.1016,-0.0000 -3.6327,-1.2009 -3.6327 -3.4526c 0.0000,-2.2817 1.9515,-3.8429 4.8036 -4.5635l 2.7621,-0.6905 c 0.0000,-3.3926 -1.5612,-4.0230 -2.5820 -4.0230c -1.1409,-0.0000 -2.4619,0.5104 -2.4619 1.4411c 0.0000,0.3302 0.0600,0.5104 0.0901 0.6005c 0.0600,0.1201 0.0901,0.3302 0.0901 0.5404c 0.0000,0.3903 -0.3002,0.9907 -1.1709 0.9907c -0.7205,-0.0000 -1.2009,-0.4804 -1.2009 -1.2009c 0.0000,-1.7413 2.8221,-3.2725 4.7436 -3.2725c 2.1917,-0.0000 4.7136,0.9007 4.7136 5.1639v 4.4133 c 0.0000,1.8314 0.0300,2.6120 0.7205 2.6120c 0.6605,-0.0000 0.8406,-0.8406 0.8707 -1.5011l 0.7506,0.1501 c -0.1801,2.1917 -1.1108,2.7921 -2.6420 2.7921ZM 476.9876,26.8403 ZM 478.2786,22.6371 l 0.8106,-0.0300 c 0.0901,0.7506 0.4203,2.1917 1.0808 2.8822c 0.3002,0.3302 1.1108,0.8707 2.2217 0.8707c 1.0508,-0.0000 2.6120,-0.8406 2.6120 -2.3117c 0.0000,-1.2910 -0.7205,-2.1616 -3.0923 -3.1824c -2.1917,-0.9607 -3.3325,-1.5912 -3.3325 -3.8429c 0.0000,-2.0115 1.7713,-3.4526 4.1431 -3.4526c 1.5011,-0.0000 2.6120,0.2702 3.5427 0.7506c 0.1801,0.9607 0.2702,1.9815 0.3302 3.0623l -0.8106,0.0300 c -0.6305,-2.4619 -2.4318,-2.9422 -3.0623 -2.9422c -1.1409,-0.0000 -2.3117,0.4503 -2.3117 2.1016c 0.0000,1.2009 0.5704,1.8014 2.2217 2.4018c 2.4318,0.9007 4.3833,1.9815 4.3833 4.3833c 0.0000,2.9722 -3.1524,3.8429 -4.5635 3.8429c -1.0508,-0.0000 -1.9215,-0.1201 -2.7020 -0.3302c -0.2102,-0.0300 -0.3603,-0.0600 -0.5704 -0.0600c -0.1501,-0.0000 -0.3903,0.0300 -0.6905 0.0901c 0.0000,-1.2610 -0.0901,-2.7921 -0.2102 -4.2632ZM 488.1260,26.8403 ZM 493.0197,20.4755 v 4.2032 c 0.0000,0.8707 0.3002,1.3210 1.2910 1.3210h 0.0600 c 0.1201,-0.0000 0.2402,0.0901 0.2402 0.2402v 0.5704 l -0.0600,0.0600 c 0.0000,-0.0000 -1.5312,-0.0600 -2.7020 -0.0600c -1.0808,-0.0000 -3.0923,0.0600 -3.0923 0.0600l -0.0600,-0.0600 v -0.5704 c 0.0000,-0.1501 0.0600,-0.2402 0.2102 -0.2402h 0.5704 c 1.0208,-0.0000 1.2910,-0.4503 1.2910 -1.3210v -15.0414 c 0.0000,-1.7113 -0.2702,-2.1917 -0.8707 -2.1917l -0.9907,0.1201 c -0.0901,-0.0000 -0.1501,-0.0600 -0.1501 -0.1501l -0.0600,-0.7506 c 0.4804,-0.0000 1.5612,-0.1801 2.0716 -0.2702c 0.5404,-0.1201 0.9907,-0.2402 1.5912 -0.5104h 0.6605 v 13.8405 c 0.7806,-0.1801 2.3117,-1.5312 3.9330 -3.3025c 0.4804,-0.4804 0.6005,-0.8707 0.6005 -1.1709c 0.0000,-0.2402 -0.1501,-0.4804 -0.8707 -0.4804h -0.1201 c -0.1501,-0.0000 -0.2402,-0.1201 -0.2402 -0.2402v -0.5704 l 0.0901,-0.0600 c 0.0000,-0.0000 1.4411,0.0600 2.4919 0.0600c 1.1709,-0.0000 2.7921,-0.0600 2.7921 -0.0600l 0.1201,0.0600 v 0.5704 c 0.0000,0.1501 -0.1801,0.2402 -0.3302 0.2402h -0.2102 c -0.8106,-0.0000 -2.1316,0.6605 -2.8822 1.4411l -2.2817,2.5219 c -0.0901,0.0901 -0.1201,0.1801 -0.1201 0.3002c 0.0000,0.1501 0.0600,0.3002 0.1501 0.4203l 3.5127,5.1939 c 0.5404,0.8106 1.5011,1.3510 2.2517 1.3510h 0.2102 c 0.2102,-0.0000 0.2702,0.0901 0.2702 0.2402v 0.5704 l -0.0600,0.0600 c 0.0000,-0.0000 -1.5312,-0.0600 -2.7020 -0.0600c -1.0508,-0.0000 -1.8614,0.0600 -1.8614 0.0600l -0.0901,-0.0600 v -0.5704 c 0.0000,-0.3903 -0.0901,-0.7205 -0.6905 -1.5912l -2.1917,-3.0923 c -0.6005,-0.8707 -1.0208,-1.0808 -1.7713 -1.0808ZM 502.5069,26.8403 ZM 505.9295,18.5240 h 5.5242 c 0.3002,-0.0000 0.4203,-0.1501 0.4203 -0.4203c 0.0000,-2.7921 -1.4111,-3.5127 -2.4919 -3.5127c -0.6905,-0.0000 -2.9422,0.2702 -3.4526 3.9330ZM 505.9295,18.5240 ZM 513.8555,24.0482 l 0.6005,0.4804 c -1.1409,1.5612 -2.9122,2.6720 -5.0738 2.6720c -4.1131,-0.0000 -5.8544,-3.0623 -5.8544 -6.3348c 0.0000,-4.5635 3.0023,-7.2955 5.8544 -7.2955c 3.9630,-0.0000 4.8937,3.0923 4.8937 5.6142c 0.0000,0.3302 -0.2102,0.5104 -0.5404 0.5104h -7.8960 c -0.0300,0.1801 -0.0300,0.3603 -0.0300 0.6005c 0.0000,3.0623 2.1316,5.4341 4.2932 5.4341c 1.6512,-0.0000 2.7020,-0.5404 3.7528 -1.6813ZM 515.3566,26.8403 ZM 518.2088,24.6787 v -15.0414 c 0.0000,-1.7113 -0.3002,-2.1917 -0.9007 -2.1917l -0.9607,0.1201 c -0.0901,-0.0000 -0.1801,-0.0600 -0.1801 -0.1501l -0.0600,-0.7506 c 0.4804,-0.0000 1.5912,-0.1801 2.1016 -0.2702c 0.5404,-0.1201 0.9607,-0.2402 1.5612 -0.5104h 0.6605 v 18.7942 c 0.0000,0.8707 0.3302,1.3210 1.2910 1.3210h 0.7205 c 0.1201,-0.0000 0.2402,0.0901 0.2402 0.2402v 0.5704 l -0.0600,0.0600 c 0.0000,-0.0000 -2.1917,-0.0600 -3.3625 -0.0600c -1.0508,-0.0000 -3.2425,0.0600 -3.2425 0.0600l -0.0300,-0.0600 v -0.5704 c 0.0000,-0.1501 0.0600,-0.2402 0.2102 -0.2402h 0.7205 c 0.9907,-0.0000 1.2910,-0.4503 1.2910 -1.3210ZM 523.1625,26.8403 ZM 526.0147,24.6787 v -15.0414 c 0.0000,-1.7113 -0.3002,-2.1917 -0.9007 -2.1917l -0.9607,0.1201 c -0.0901,-0.0000 -0.1801,-0.0600 -0.1801 -0.1501l -0.0600,-0.7506 c 0.4804,-0.0000 1.5912,-0.1801 2.1016 -0.2702c 0.5404,-0.1201 0.9607,-0.2402 1.5612 -0.5104h 0.6605 v 18.7942 c 0.0000,0.8707 0.3302,1.3210 1.2910 1.3210h 0.7205 c 0.1201,-0.0000 0.2402,0.0901 0.2402 0.2402v 0.5704 l -0.0600,0.0600 c 0.0000,-0.0000 -2.1917,-0.0600 -3.3625 -0.0600c -1.0508,-0.0000 -3.2425,0.0600 -3.2425 0.0600l -0.0300,-0.0600 v -0.5704 c 0.0000,-0.1501 0.0600,-0.2402 0.2102 -0.2402h 0.7205 c 0.9907,-0.0000 1.2910,-0.4503 1.2910 -1.3210ZM 530.9684,26.8403 ZM 533.8806,9.6673 c 0.0000,0.4503 0.0600,0.6305 0.1801 0.7806c 0.1201,0.1501 0.1801,0.3302 0.1801 0.7205c 0.0000,0.6905 -0.6005,1.0508 -1.1709 1.0508c -0.4804,-0.0000 -1.2309,-0.2402 -1.2309 -1.2910c 0.0000,-1.1409 0.6305,-1.9815 1.5312 -2.7020c 0.8707,-0.7506 2.1316,-1.1709 3.7228 -1.1709c 3.0623,-0.0000 4.9537,1.8014 4.9537 4.5334c 0.0000,2.3718 -1.7713,3.6928 -3.1824 4.7136c -0.6905,0.5104 -1.2910,0.9907 -1.5612 1.5011c -0.3903,0.7506 -0.5404,1.4711 -0.5404 2.1917v 1.3210 c 0.0000,0.2102 -0.1501,0.3002 -0.3903 0.3002c -0.2402,-0.0000 -0.3903,-0.0901 -0.3903 -0.3002v -1.3810 c 0.0000,-1.2910 0.0600,-3.0623 2.0115 -4.8337c 1.2009,-1.1108 1.8014,-1.9815 1.8014 -3.3926c 0.0000,-1.9515 -1.2910,-3.7528 -3.0023 -3.7528c -1.7113,-0.0000 -2.9122,0.8106 -2.9122 1.7113ZM 533.8806,9.6673 ZM 534.7813,25.6094 c 0.0000,-0.8707 0.7205,-1.5912 1.5912 -1.5912c 0.8707,-0.0000 1.5912,0.7205 1.5912 1.5912c 0.0000,0.8707 -0.7205,1.5912 -1.5912 1.5912c -0.8707,-0.0000 -1.5912,-0.7205 -1.5912 -1.5912Z"/></g><g stroke-linejoin="miter" stroke-opacity="0.0" fill-opacity="0.1" stroke="rgb(0,0,0)" stroke-width="0.0" fill="rgb(0,0,0)" stroke-linecap="butt" stroke-miterlimit="10.0"><path d="M 552.2695,368.3185 l -0.0000,-6.0346 h -452.5923 l -0.0000,6.0346 Z"/></g><g stroke-linejoin="miter" stroke-opacity="1.0" fill-opacity="0.6" stroke="rgb(0,0,0)" fill-rule="evenodd" stroke-width="0.0" fill="rgb(0,0,0)" stroke-linecap="butt" stroke-miterlimit="10.0"><path d="M 481.3009,393.7553 ZM 489.6272,384.1880 c 0.0000,-2.3618 -1.6412,-2.9622 -2.8421 -2.9622c -0.7205,-0.0000 -1.2810,0.0600 -1.7413 0.1601v 5.9245 h 1.0008 c 1.5011,-0.0000 2.4619,-0.3403 2.9422 -1.0208c 0.3803,-0.5604 0.6405,-1.2610 0.6405 -2.1016ZM 489.6272,384.1880 ZM 491.2484,384.1680 c 0.0000,2.1016 -1.8814,3.2425 -2.7421 3.5227l 2.1216,4.1031 c 0.4403,0.8607 0.9807,1.5412 1.8814 1.5412l 0.0600,0.4203 c -0.2002,0.0801 -0.5404,0.1201 -0.8406 0.1201c -1.2009,-0.0000 -2.0816,-0.7606 -2.6020 -1.7013l -2.0616,-3.8429 c -0.0801,-0.1401 -0.6805,-0.2602 -2.0215 -0.2602v 4.2432 c 0.0000,0.6005 0.3002,0.8807 1.0808 0.8807h 0.5404 c 0.0801,-0.0000 0.1601,0.0600 0.1601 0.1601v 0.3803 l -0.0400,0.0400 c 0.0000,-0.0000 -1.7413,-0.0400 -2.5219 -0.0400c -0.7205,-0.0000 -2.5820,0.0400 -2.5820 0.0400l -0.0400,-0.0400 v -0.3803 c 0.0000,-0.1001 0.0600,-0.1601 0.1601 -0.1601h 0.5204 c 0.8206,-0.0000 1.1008,-0.3202 1.1008 -0.8807v -10.0476 c 0.0000,-0.5804 -0.0801,-0.9207 -0.6005 -0.9207c -0.0600,-0.0000 -0.1001,-0.0000 -0.1401 0.0200l -0.6005,0.0600 c -0.1001,-0.0000 -0.1601,-0.0600 -0.1601 -0.1401v -0.3803 c 0.4203,-0.1001 2.3017,-0.2402 4.6435 -0.2402c 1.2610,-0.0000 2.6620,0.1001 3.6227 1.0008c 0.7205,0.6805 1.0608,1.5011 1.0608 2.5019ZM 492.7895,393.7553 ZM 498.6140,388.8516 l -1.5812,0.4003 c -1.7613,0.5404 -2.0215,1.4611 -2.0215 2.3618c 0.0000,0.6205 0.3002,1.5612 1.5612 1.5612c 0.6005,-0.0000 1.5212,-0.5804 2.0415 -1.0208v -3.3025 ZM 498.6140,388.8516 ZM 499.8949,393.9955 c -0.7606,-0.0000 -1.1809,-0.6805 -1.2610 -1.1609l -0.4603,0.3202 c -0.9207,0.6405 -1.2610,0.8406 -2.1816 0.8406c -1.4011,-0.0000 -2.4218,-0.8006 -2.4218 -2.3017c 0.0000,-1.5212 1.3010,-2.5619 3.2024 -3.0423l 1.8414,-0.4603 c 0.0000,-2.2617 -1.0408,-2.6820 -1.7213 -2.6820c -0.7606,-0.0000 -1.6412,0.3403 -1.6412 0.9607c 0.0000,0.2202 0.0400,0.3403 0.0600 0.4003c 0.0400,0.0801 0.0600,0.2202 0.0600 0.3603c 0.0000,0.2602 -0.2002,0.6605 -0.7806 0.6605c -0.4804,-0.0000 -0.8006,-0.3202 -0.8006 -0.8006c 0.0000,-1.1609 1.8814,-2.1816 3.1624 -2.1816c 1.4611,-0.0000 3.1424,0.6005 3.1424 3.4426v 2.9422 c 0.0000,1.2209 0.0200,1.7413 0.4804 1.7413c 0.4403,-0.0000 0.5604,-0.5604 0.5804 -1.0008l 0.5004,0.1001 c -0.1201,1.4611 -0.7406,1.8614 -1.7613 1.8614ZM 501.8164,393.7553 ZM 503.5977,392.3142 v -4.9838 c 0.0000,-1.0008 -0.1401,-1.2209 -0.4403 -1.2209c -0.2602,-0.0000 -0.5004,0.0200 -0.8406 0.1001l -0.1001,-0.5604 c 1.2610,-0.2202 1.4811,-0.2802 2.0816 -0.5804c 0.2002,-0.1001 0.3603,-0.1601 0.5004 -0.1601h 0.3002 l -0.0600,1.8014 h 0.0600 c 0.5204,-0.7806 1.4011,-1.8014 2.3418 -1.8014c 0.8206,-0.0000 1.1208,0.4003 1.1208 0.9207c 0.0000,0.5204 -0.3403,0.8406 -0.8607 0.8406c -0.4003,-0.0000 -0.6205,-0.1601 -0.8206 -0.3603c -0.1201,-0.1201 -0.2602,-0.1801 -0.4003 -0.1801c -0.2202,-0.0000 -0.6605,0.3603 -1.1409 1.0408c -0.1401,0.1801 -0.2402,0.4403 -0.2402 0.7005v 4.4434 c 0.0000,0.5804 0.2002,0.8807 0.8607 0.8807h 0.5804 c 0.1001,-0.0000 0.1801,0.0600 0.1801 0.1601v 0.3803 l -0.0400,0.0400 c 0.0000,-0.0000 -1.5812,-0.0400 -2.3618 -0.0400c -0.7205,-0.0000 -2.0816,0.0400 -2.0816 0.0400l -0.0200,-0.0400 v -0.3803 c 0.0000,-0.1001 0.0400,-0.1601 0.1401 -0.1601h 0.3803 c 0.6805,-0.0000 0.8607,-0.3002 0.8607 -0.8807ZM 508.7616,393.7553 ZM 511.0434,388.2111 h 3.6828 c 0.2002,-0.0000 0.2802,-0.1001 0.2802 -0.2802c 0.0000,-1.8614 -0.9407,-2.3418 -1.6613 -2.3418c -0.4603,-0.0000 -1.9615,0.1801 -2.3017 2.6220ZM 511.0434,388.2111 ZM 516.3273,391.8939 l 0.4003,0.3202 c -0.7606,1.0408 -1.9415,1.7813 -3.3826 1.7813c -2.7421,-0.0000 -3.9030,-2.0415 -3.9030 -4.2232c 0.0000,-3.0423 2.0015,-4.8637 3.9030 -4.8637c 2.6420,-0.0000 3.2625,2.0616 3.2625 3.7428c 0.0000,0.2202 -0.1401,0.3403 -0.3603 0.3403h -5.2640 c -0.0200,0.1201 -0.0200,0.2402 -0.0200 0.4003c 0.0000,2.0415 1.4211,3.6227 2.8622 3.6227c 1.1008,-0.0000 1.8014,-0.3603 2.5019 -1.1208ZM 517.3281,393.7553 ZM 519.2295,392.3142 v -10.0276 c 0.0000,-1.1409 -0.2002,-1.4611 -0.6005 -1.4611l -0.6405,0.0801 c -0.0600,-0.0000 -0.1201,-0.0400 -0.1201 -0.1001l -0.0400,-0.5004 c 0.3202,-0.0000 1.0608,-0.1201 1.4011 -0.1801c 0.3603,-0.0801 0.6405,-0.1601 1.0408 -0.3403h 0.4403 v 12.5295 c 0.0000,0.5804 0.2202,0.8807 0.8607 0.8807h 0.4804 c 0.0801,-0.0000 0.1601,0.0600 0.1601 0.1601v 0.3803 l -0.0400,0.0400 c 0.0000,-0.0000 -1.4611,-0.0400 -2.2417 -0.0400c -0.7005,-0.0000 -2.1616,0.0400 -2.1616 0.0400l -0.0200,-0.0400 v -0.3803 c 0.0000,-0.1001 0.0400,-0.1601 0.1401 -0.1601h 0.4804 c 0.6605,-0.0000 0.8607,-0.3002 0.8607 -0.8807ZM 522.5320,393.7553 ZM 526.6952,385.5491 c 0.0000,0.1001 -0.1201,0.1601 -0.2202 0.1601c -0.6005,-0.0000 -0.8607,0.1201 -0.8607 0.4403c 0.0000,0.1201 0.0400,0.2802 0.1201 0.4603l 2.2017,5.1639 l 2.2217,-5.0838 c 0.1001,-0.1801 0.1401,-0.3403 0.1401 -0.4603c 0.0000,-0.4203 -0.4003,-0.5204 -0.8406 -0.5204h -0.0801 c -0.1001,-0.0000 -0.2002,-0.0801 -0.2002 -0.1401v -0.3803 l 0.0400,-0.0600 c 0.0000,-0.0000 1.1809,0.0400 1.8814 0.0400c 0.5604,-0.0000 1.3810,-0.0400 1.3810 -0.0400l 0.0600,0.0400 v 0.3803 c 0.0000,0.1001 -0.0801,0.1601 -0.2202 0.1601c -0.7606,-0.0000 -1.1409,0.7806 -1.4211 1.3610c -1.0608,2.2417 -1.9415,4.3033 -3.5427 8.1662c -0.6005,1.4411 -1.3210,3.1224 -2.7421 3.1224c -0.3803,-0.0000 -1.1609,-0.2202 -1.1609 -0.9407c 0.0000,-0.6005 0.4403,-0.7806 0.7606 -0.7806c 0.3002,-0.0000 0.5004,0.1201 0.6205 0.2802c 0.2002,0.2002 0.3403,0.3403 0.5404 0.3403c 0.3002,-0.0000 1.0008,-1.7213 1.5011 -2.9422c 0.1201,-0.2402 0.1601,-0.4403 0.1601 -0.6205c 0.0000,-0.2002 -0.1801,-0.7406 -0.3403 -1.1409l -2.5219,-5.8644 c -0.3202,-0.7606 -0.5404,-0.9807 -1.2209 -0.9807c -0.1201,-0.0000 -0.2002,-0.0600 -0.2002 -0.1401v -0.4003 l 0.0400,-0.0400 c 0.0000,-0.0000 0.8807,0.0400 1.4811 0.0400c 0.9407,-0.0000 2.3818,-0.0400 2.3818 -0.0400l 0.0400,0.0600 v 0.3603 Z"/></g><g stroke-linejoin="miter" stroke-opacity="0.6" fill-opacity="0.0" stroke="rgb(0,0,0)" stroke-width="2.2461946880498966" fill="rgb(0,0,0)" stroke-linecap="butt" stroke-miterlimit="10.0"><path d="M 507.0103,362.2840 v 9.0518 "/></g><g stroke-linejoin="miter" stroke-opacity="1.0" fill-opacity="0.6" stroke="rgb(0,0,0)" fill-rule="evenodd" stroke-width="0.0" fill="rgb(0,0,0)" stroke-linecap="butt" stroke-miterlimit="10.0"><path d="M 391.2728,393.7553 ZM 396.3566,392.3142 v -4.1832 l -3.4026,-5.8644 c -0.2202,-0.4003 -0.4003,-0.6205 -0.6605 -0.7806c -0.1001,-0.0600 -0.2802,-0.1001 -0.5804 -0.1001h -0.2402 c -0.0600,-0.0000 -0.2002,-0.0200 -0.2002 -0.1401v -0.4003 l 0.0200,-0.0200 c 0.0000,-0.0000 1.8614,0.0200 2.1216 0.0200c 0.1201,-0.0000 2.3017,-0.0200 2.3017 -0.0200l 0.0200,0.0200 v 0.3803 c 0.0000,0.0801 -0.0400,0.1601 -0.1201 0.1601h -0.5804 c -0.3803,-0.0000 -0.5004,0.0801 -0.5004 0.2602c 0.0000,0.1201 0.0801,0.3002 0.2402 0.5804l 2.8021,4.7036 l 2.5419,-4.7036 c 0.1601,-0.2802 0.2202,-0.4603 0.2202 -0.5604c 0.0000,-0.2202 -0.1001,-0.2802 -0.5004 -0.2802h -0.6005 c -0.0801,-0.0000 -0.1001,-0.0801 -0.1001 -0.1401v -0.4003 l 0.0200,-0.0200 c 0.0000,-0.0000 1.5812,0.0200 1.8414 0.0200c 0.1801,-0.0000 1.7413,-0.0200 1.7413 -0.0200l 0.0400,0.0200 v 0.4003 c 0.0000,0.1001 -0.0801,0.1401 -0.2002 0.1401h -0.4203 c -0.6005,-0.0000 -0.8607,0.2402 -1.2209 0.8807l -2.9823,5.6243 v 4.4233 c 0.0000,0.6205 0.3202,0.8807 1.1008 0.8807h 0.5404 c 0.0801,-0.0000 0.1601,0.0600 0.1601 0.1601v 0.3803 l -0.0400,0.0400 c 0.0000,-0.0000 -1.7413,-0.0400 -2.5219 -0.0400c -0.7205,-0.0000 -2.5820,0.0400 -2.5820 0.0400l -0.0400,-0.0400 v -0.3803 c 0.0000,-0.1001 0.0600,-0.1601 0.1601 -0.1601h 0.5204 c 0.8206,-0.0000 1.1008,-0.3202 1.1008 -0.8807ZM 402.7615,393.7553 ZM 405.0432,388.2111 h 3.6828 c 0.2002,-0.0000 0.2802,-0.1001 0.2802 -0.2802c 0.0000,-1.8614 -0.9407,-2.3418 -1.6613 -2.3418c -0.4603,-0.0000 -1.9615,0.1801 -2.3017 2.6220ZM 405.0432,388.2111 ZM 410.3272,391.8939 l 0.4003,0.3202 c -0.7606,1.0408 -1.9415,1.7813 -3.3826 1.7813c -2.7421,-0.0000 -3.9030,-2.0415 -3.9030 -4.2232c 0.0000,-3.0423 2.0015,-4.8637 3.9030 -4.8637c 2.6420,-0.0000 3.2625,2.0616 3.2625 3.7428c 0.0000,0.2202 -0.1401,0.3403 -0.3603 0.3403h -5.2640 c -0.0200,0.1201 -0.0200,0.2402 -0.0200 0.4003c 0.0000,2.0415 1.4211,3.6227 2.8622 3.6227c 1.1008,-0.0000 1.8014,-0.3603 2.5019 -1.1208ZM 410.3472,393.7553 ZM 416.1716,388.8516 l -1.5812,0.4003 c -1.7613,0.5404 -2.0215,1.4611 -2.0215 2.3618c 0.0000,0.6205 0.3002,1.5612 1.5612 1.5612c 0.6005,-0.0000 1.5212,-0.5804 2.0415 -1.0208v -3.3025 ZM 416.1716,388.8516 ZM 417.4526,393.9955 c -0.7606,-0.0000 -1.1809,-0.6805 -1.2610 -1.1609l -0.4603,0.3202 c -0.9207,0.6405 -1.2610,0.8406 -2.1816 0.8406c -1.4011,-0.0000 -2.4218,-0.8006 -2.4218 -2.3017c 0.0000,-1.5212 1.3010,-2.5619 3.2024 -3.0423l 1.8414,-0.4603 c 0.0000,-2.2617 -1.0408,-2.6820 -1.7213 -2.6820c -0.7606,-0.0000 -1.6412,0.3403 -1.6412 0.9607c 0.0000,0.2202 0.0400,0.3403 0.0600 0.4003c 0.0400,0.0801 0.0600,0.2202 0.0600 0.3603c 0.0000,0.2602 -0.2002,0.6605 -0.7806 0.6605c -0.4804,-0.0000 -0.8006,-0.3202 -0.8006 -0.8006c 0.0000,-1.1609 1.8814,-2.1816 3.1624 -2.1816c 1.4611,-0.0000 3.1424,0.6005 3.1424 3.4426v 2.9422 c 0.0000,1.2209 0.0200,1.7413 0.4804 1.7413c 0.4403,-0.0000 0.5604,-0.5604 0.5804 -1.0008l 0.5004,0.1001 c -0.1201,1.4611 -0.7406,1.8614 -1.7613 1.8614ZM 419.3740,393.7553 ZM 421.1554,392.3142 v -4.9838 c 0.0000,-1.0008 -0.1401,-1.2209 -0.4403 -1.2209c -0.2602,-0.0000 -0.5004,0.0200 -0.8406 0.1001l -0.1001,-0.5604 c 1.2610,-0.2202 1.4811,-0.2802 2.0816 -0.5804c 0.2002,-0.1001 0.3603,-0.1601 0.5004 -0.1601h 0.3002 l -0.0600,1.8014 h 0.0600 c 0.5204,-0.7806 1.4011,-1.8014 2.3418 -1.8014c 0.8206,-0.0000 1.1208,0.4003 1.1208 0.9207c 0.0000,0.5204 -0.3403,0.8406 -0.8607 0.8406c -0.4003,-0.0000 -0.6205,-0.1601 -0.8206 -0.3603c -0.1201,-0.1201 -0.2602,-0.1801 -0.4003 -0.1801c -0.2202,-0.0000 -0.6605,0.3603 -1.1409 1.0408c -0.1401,0.1801 -0.2402,0.4403 -0.2402 0.7005v 4.4434 c 0.0000,0.5804 0.2002,0.8807 0.8607 0.8807h 0.5804 c 0.1001,-0.0000 0.1801,0.0600 0.1801 0.1601v 0.3803 l -0.0400,0.0400 c 0.0000,-0.0000 -1.5812,-0.0400 -2.3618 -0.0400c -0.7205,-0.0000 -2.0816,0.0400 -2.0816 0.0400l -0.0200,-0.0400 v -0.3803 c 0.0000,-0.1001 0.0400,-0.1601 0.1401 -0.1601h 0.3803 c 0.6805,-0.0000 0.8607,-0.3002 0.8607 -0.8807ZM 426.3193,393.7553 ZM 428.2207,392.3142 v -10.0276 c 0.0000,-1.1409 -0.2002,-1.4611 -0.6005 -1.4611l -0.6405,0.0801 c -0.0600,-0.0000 -0.1201,-0.0400 -0.1201 -0.1001l -0.0400,-0.5004 c 0.3202,-0.0000 1.0608,-0.1201 1.4011 -0.1801c 0.3603,-0.0801 0.6405,-0.1601 1.0408 -0.3403h 0.4403 v 12.5295 c 0.0000,0.5804 0.2202,0.8807 0.8607 0.8807h 0.4804 c 0.0801,-0.0000 0.1601,0.0600 0.1601 0.1601v 0.3803 l -0.0400,0.0400 c 0.0000,-0.0000 -1.4611,-0.0400 -2.2417 -0.0400c -0.7005,-0.0000 -2.1616,0.0400 -2.1616 0.0400l -0.0200,-0.0400 v -0.3803 c 0.0000,-0.1001 0.0400,-0.1601 0.1401 -0.1601h 0.4804 c 0.6605,-0.0000 0.8607,-0.3002 0.8607 -0.8807ZM 431.5232,393.7553 ZM 435.6864,385.5491 c 0.0000,0.1001 -0.1201,0.1601 -0.2202 0.1601c -0.6005,-0.0000 -0.8607,0.1201 -0.8607 0.4403c 0.0000,0.1201 0.0400,0.2802 0.1201 0.4603l 2.2017,5.1639 l 2.2217,-5.0838 c 0.1001,-0.1801 0.1401,-0.3403 0.1401 -0.4603c 0.0000,-0.4203 -0.4003,-0.5204 -0.8406 -0.5204h -0.0801 c -0.1001,-0.0000 -0.2002,-0.0801 -0.2002 -0.1401v -0.3803 l 0.0400,-0.0600 c 0.0000,-0.0000 1.1809,0.0400 1.8814 0.0400c 0.5604,-0.0000 1.3810,-0.0400 1.3810 -0.0400l 0.0600,0.0400 v 0.3803 c 0.0000,0.1001 -0.0801,0.1601 -0.2202 0.1601c -0.7606,-0.0000 -1.1409,0.7806 -1.4211 1.3610c -1.0608,2.2417 -1.9415,4.3033 -3.5427 8.1662c -0.6005,1.4411 -1.3210,3.1224 -2.7421 3.1224c -0.3803,-0.0000 -1.1609,-0.2202 -1.1609 -0.9407c 0.0000,-0.6005 0.4403,-0.7806 0.7606 -0.7806c 0.3002,-0.0000 0.5004,0.1201 0.6205 0.2802c 0.2002,0.2002 0.3403,0.3403 0.5404 0.3403c 0.3002,-0.0000 1.0008,-1.7213 1.5011 -2.9422c 0.1201,-0.2402 0.1601,-0.4403 0.1601 -0.6205c 0.0000,-0.2002 -0.1801,-0.7406 -0.3403 -1.1409l -2.5219,-5.8644 c -0.3202,-0.7606 -0.5404,-0.9807 -1.2209 -0.9807c -0.1201,-0.0000 -0.2002,-0.0600 -0.2002 -0.1401v -0.4003 l 0.0400,-0.0400 c 0.0000,-0.0000 0.8807,0.0400 1.4811 0.0400c 0.9407,-0.0000 2.3818,-0.0400 2.3818 -0.0400l 0.0400,0.0600 v 0.3603 Z"/></g><g stroke-linejoin="miter" stroke-opacity="0.6" fill-opacity="0.0" stroke="rgb(0,0,0)" stroke-width="2.2461946880498966" fill="rgb(0,0,0)" stroke-linecap="butt" stroke-miterlimit="10.0"><path d="M 416.4918,362.2840 v 9.0518 "/></g><g stroke-linejoin="miter" stroke-opacity="1.0" fill-opacity="0.6" stroke="rgb(0,0,0)" fill-rule="evenodd" stroke-width="0.0" fill="rgb(0,0,0)" stroke-linecap="butt" stroke-miterlimit="10.0"><path d="M 291.6775,393.7553 ZM 304.9875,392.0140 l -0.6005,-8.9468 l -4.5034,10.5880 c -0.0801,0.1601 -0.1601,0.2202 -0.2802 0.2202c -0.1201,-0.0000 -0.2402,-0.0801 -0.3002 -0.2202l -4.1832,-10.3879 l -0.8406,8.7666 c 0.0000,0.5804 0.0801,1.1609 0.6805 1.1609h 0.5204 c 0.1001,-0.0000 0.2002,0.0600 0.2002 0.1601v 0.3603 l -0.0400,0.0600 c 0.0000,-0.0000 -1.0408,-0.0400 -1.8414 -0.0400c -0.7005,-0.0000 -1.8014,0.0400 -1.8014 0.0400l -0.0200,-0.0400 v -0.3803 c 0.0000,-0.1001 0.0600,-0.1601 0.1801 -0.1601h 0.5404 c 0.6405,-0.0000 0.8006,-0.6205 0.8406 -1.1609l 0.9207,-9.7674 c 0.0000,-0.5804 -0.1201,-0.8807 -0.7606 -0.8807h -0.5804 c -0.1401,-0.0000 -0.2002,-0.0600 -0.2002 -0.1401v -0.3603 l 0.0600,-0.0600 h 2.9422 l 4.1031,10.1877 c 0.0600,0.1801 0.1001,0.2602 0.1601 0.2602c 0.0400,-0.0000 0.1001,-0.0801 0.1801 -0.2802l 4.3433,-10.1677 h 2.5820 l 0.0400,0.0600 v 0.3603 c 0.0000,0.1201 -0.1601,0.1401 -0.2202 0.1401h -0.5404 c -0.6005,-0.0000 -0.7606,0.3603 -0.7606 0.8807l 0.6605,9.7474 c 0.0400,0.6405 0.2002,1.1809 0.8607 1.1809h 0.5404 c 0.1401,-0.0000 0.2202,0.0600 0.2202 0.1601v 0.3803 l -0.0400,0.0400 c 0.0000,-0.0000 -1.4611,-0.0400 -2.2417 -0.0400c -0.7205,-0.0000 -2.1416,0.0400 -2.1416 0.0400l -0.0600,-0.0400 v -0.3803 c 0.0000,-0.1001 0.1001,-0.1601 0.1801 -0.1601h 0.5404 c 0.5804,-0.0000 0.6605,-0.6605 0.6605 -1.1809ZM 308.4702,393.7553 ZM 309.1507,389.6522 c 0.0000,-2.7421 1.4811,-4.7436 4.1431 -4.7436c 2.9622,-0.0000 4.1031,2.4819 4.1031 4.5635c 0.0000,2.0015 -1.3010,4.5234 -4.1431 4.5234c -2.6820,-0.0000 -4.1031,-2.3017 -4.1031 -4.3433ZM 309.1507,389.6522 ZM 313.0736,385.5691 c -1.6012,-0.0000 -2.3418,1.8814 -2.3418 3.6227c 0.0000,1.5412 0.8807,4.1031 2.8622 4.1031c 0.9007,-0.0000 2.2217,-0.5404 2.2217 -3.1824c 0.0000,-2.9422 -1.1008,-4.5434 -2.7421 -4.5434ZM 318.0574,393.7553 ZM 325.3429,392.3142 v -4.3833 c 0.0000,-1.4011 -0.2402,-2.0616 -1.3010 -2.0616c -0.8807,-0.0000 -1.6412,0.3403 -2.6620 1.5412v 4.9037 c 0.0000,0.5804 0.2002,0.8807 0.8607 0.8807h 0.2802 c 0.1001,-0.0000 0.1601,0.0600 0.1601 0.1601v 0.3803 l -0.0400,0.0400 c 0.0000,-0.0000 -1.2610,-0.0400 -2.0415 -0.0400c -0.7205,-0.0000 -2.0816,0.0400 -2.0816 0.0400l -0.0400,-0.0400 v -0.3803 c 0.0000,-0.1001 0.0600,-0.1601 0.1601 -0.1601h 0.3803 c 0.6805,-0.0000 0.8607,-0.3002 0.8607 -0.8807v -4.9838 c 0.0000,-1.0808 -0.1601,-1.2209 -0.4403 -1.2209c -0.2602,-0.0000 -0.5004,0.0200 -0.8406 0.1001l -0.1001,-0.5604 c 0.8406,-0.1401 1.4411,-0.2402 2.0616 -0.5804c 0.2202,-0.1001 0.3803,-0.1601 0.5204 -0.1601h 0.3002 l -0.0600,1.7813 h 0.0600 c 1.2810,-1.5011 2.2417,-1.7813 3.2625 -1.7813c 1.8014,-0.0000 2.1816,1.3810 2.1816 3.1624v 4.2432 c 0.0000,0.5804 0.2202,0.8807 0.8607 0.8807h 0.3803 c 0.1001,-0.0000 0.1801,0.0600 0.1801 0.1601v 0.3803 l -0.0400,0.0400 c 0.0000,-0.0000 -1.3810,-0.0400 -2.1616 -0.0400c -0.7005,-0.0000 -1.9615,0.0400 -1.9615 0.0400l -0.0400,-0.0400 v -0.3803 c 0.0000,-0.1001 0.0600,-0.1601 0.1601 -0.1601h 0.2802 c 0.6605,-0.0000 0.8607,-0.3002 0.8607 -0.8807ZM 328.4653,393.7553 ZM 331.7478,385.9294 v 5.1239 c 0.0000,1.2409 0.1201,1.8414 0.6605 1.8414c 0.5204,-0.0000 0.9207,-0.1601 1.4411 -0.5604l 0.3603,0.3403 c -0.7806,0.8807 -1.5812,1.3210 -2.5019 1.3210c -0.9207,-0.0000 -1.4611,-0.5604 -1.4611 -1.9815v -6.0846 h -1.3010 c -0.0600,-0.0000 -0.0801,-0.0200 -0.0801 -0.0801v -0.6205 c 0.0000,-0.0600 0.0200,-0.0801 0.0600 -0.0801c 1.3410,-0.0000 1.6613,-0.7806 1.6613 -2.3017v -0.3803 l 1.1609,-0.4003 v 3.0823 h 2.2017 c 0.1001,-0.0000 0.1601,0.0400 0.1601 0.1201v 0.4003 c 0.0000,0.1801 -0.2802,0.2602 -0.4804 0.2602h -1.8814 ZM 334.5098,393.7553 ZM 337.7723,379.7847 v 6.7851 c 1.3410,-1.3410 2.5219,-1.6613 3.3025 -1.6613c 1.4411,-0.0000 2.1616,1.1008 2.1616 3.1624v 4.2432 c 0.0000,0.5804 0.2002,0.8807 0.8607 0.8807h 0.3803 c 0.0801,-0.0000 0.1601,0.0600 0.1601 0.1601v 0.3803 l -0.0400,0.0400 c 0.0000,-0.0000 -1.3610,-0.0400 -2.1616 -0.0400c -0.7005,-0.0000 -2.0616,0.0400 -2.0616 0.0400l -0.0400,-0.0400 v -0.3803 c 0.0000,-0.1001 0.0600,-0.1601 0.1601 -0.1601h 0.3803 c 0.6805,-0.0000 0.8607,-0.3002 0.8607 -0.8807v -4.4634 c 0.0000,-1.6212 -0.4403,-2.0015 -1.5612 -2.0015c -0.5804,-0.0000 -1.4411,0.5204 -2.4018 1.4611v 5.0038 c 0.0000,0.5804 0.2002,0.8807 0.8607 0.8807h 0.3803 c 0.0801,-0.0000 0.1601,0.0600 0.1601 0.1601v 0.3803 l -0.0400,0.0400 c 0.0000,-0.0000 -1.3610,-0.0400 -2.1416 -0.0400c -0.7205,-0.0000 -2.0616,0.0400 -2.0616 0.0400l -0.0400,-0.0400 v -0.3803 c 0.0000,-0.1001 0.0400,-0.1601 0.1401 -0.1601h 0.3803 c 0.6805,-0.0000 0.8607,-0.3002 0.8607 -0.8807v -10.0276 c 0.0000,-1.1409 -0.1801,-1.4611 -0.5804 -1.4611l -0.6605,0.0801 c -0.0600,-0.0000 -0.1001,-0.0400 -0.1001 -0.1001l -0.0400,-0.5004 c 0.3202,-0.0000 1.0408,-0.1201 1.3810 -0.1801c 0.3603,-0.0801 0.6605,-0.1601 1.0608 -0.3403h 0.4403 ZM 344.8777,393.7553 ZM 346.7791,392.3142 v -10.0276 c 0.0000,-1.1409 -0.2002,-1.4611 -0.6005 -1.4611l -0.6405,0.0801 c -0.0600,-0.0000 -0.1201,-0.0400 -0.1201 -0.1001l -0.0400,-0.5004 c 0.3202,-0.0000 1.0608,-0.1201 1.4011 -0.1801c 0.3603,-0.0801 0.6405,-0.1601 1.0408 -0.3403h 0.4403 v 12.5295 c 0.0000,0.5804 0.2202,0.8807 0.8607 0.8807h 0.4804 c 0.0801,-0.0000 0.1601,0.0600 0.1601 0.1601v 0.3803 l -0.0400,0.0400 c 0.0000,-0.0000 -1.4611,-0.0400 -2.2417 -0.0400c -0.7005,-0.0000 -2.1616,0.0400 -2.1616 0.0400l -0.0200,-0.0400 v -0.3803 c 0.0000,-0.1001 0.0400,-0.1601 0.1401 -0.1601h 0.4804 c 0.6605,-0.0000 0.8607,-0.3002 0.8607 -0.8807ZM 350.0816,393.7553 ZM 354.2448,385.5491 c 0.0000,0.1001 -0.1201,0.1601 -0.2202 0.1601c -0.6005,-0.0000 -0.8607,0.1201 -0.8607 0.4403c 0.0000,0.1201 0.0400,0.2802 0.1201 0.4603l 2.2017,5.1639 l 2.2217,-5.0838 c 0.1001,-0.1801 0.1401,-0.3403 0.1401 -0.4603c 0.0000,-0.4203 -0.4003,-0.5204 -0.8406 -0.5204h -0.0801 c -0.1001,-0.0000 -0.2002,-0.0801 -0.2002 -0.1401v -0.3803 l 0.0400,-0.0600 c 0.0000,-0.0000 1.1809,0.0400 1.8814 0.0400c 0.5604,-0.0000 1.3810,-0.0400 1.3810 -0.0400l 0.0600,0.0400 v 0.3803 c 0.0000,0.1001 -0.0801,0.1601 -0.2202 0.1601c -0.7606,-0.0000 -1.1409,0.7806 -1.4211 1.3610c -1.0608,2.2417 -1.9415,4.3033 -3.5427 8.1662c -0.6005,1.4411 -1.3210,3.1224 -2.7421 3.1224c -0.3803,-0.0000 -1.1609,-0.2202 -1.1609 -0.9407c 0.0000,-0.6005 0.4403,-0.7806 0.7606 -0.7806c 0.3002,-0.0000 0.5004,0.1201 0.6205 0.2802c 0.2002,0.2002 0.3403,0.3403 0.5404 0.3403c 0.3002,-0.0000 1.0008,-1.7213 1.5011 -2.9422c 0.1201,-0.2402 0.1601,-0.4403 0.1601 -0.6205c 0.0000,-0.2002 -0.1801,-0.7406 -0.3403 -1.1409l -2.5219,-5.8644 c -0.3202,-0.7606 -0.5404,-0.9807 -1.2209 -0.9807c -0.1201,-0.0000 -0.2002,-0.0600 -0.2002 -0.1401v -0.4003 l 0.0400,-0.0400 c 0.0000,-0.0000 0.8807,0.0400 1.4811 0.0400c 0.9407,-0.0000 2.3818,-0.0400 2.3818 -0.0400l 0.0400,0.0600 v 0.3603 Z"/></g><g stroke-linejoin="miter" stroke-opacity="0.6" fill-opacity="0.0" stroke="rgb(0,0,0)" stroke-width="2.2461946880498966" fill="rgb(0,0,0)" stroke-linecap="butt" stroke-miterlimit="10.0"><path d="M 325.9734,362.2840 v 9.0518 "/></g><g stroke-linejoin="miter" stroke-opacity="1.0" fill-opacity="0.6" stroke="rgb(0,0,0)" fill-rule="evenodd" stroke-width="0.0" fill="rgb(0,0,0)" stroke-linecap="butt" stroke-miterlimit="10.0"><path d="M 205.2921,393.7553 ZM 211.7570,393.5151 c -0.0801,0.2802 -0.2802,0.4804 -0.5604 0.4804c -0.3002,-0.0000 -0.5404,-0.1601 -0.6605 -0.4804l -3.6428,-11.0083 c -0.1801,-0.5004 -0.5404,-1.1208 -1.1008 -1.1208h -0.2602 c -0.1401,-0.0000 -0.2402,-0.0600 -0.2402 -0.1401v -0.3803 l 0.0400,-0.0400 c 0.0000,-0.0000 1.0408,0.0200 1.8014 0.0200c 1.0208,-0.0000 2.4218,-0.0200 2.4218 -0.0200l 0.0400,0.0400 v 0.3603 c 0.0000,0.1001 -0.0600,0.1601 -0.1801 0.1601h -0.4403 c -0.3803,-0.0000 -0.5604,0.1401 -0.5604 0.4003c 0.0000,0.1401 0.0400,0.3002 0.1201 0.5204l 3.0423,9.2270 l 2.1216,-6.6250 c 0.0801,-0.2402 0.1401,-0.5004 0.1401 -0.7606c 0.0000,-0.1801 -0.0200,-0.3603 -0.1001 -0.5604l -0.4203,-1.2810 c -0.1601,-0.5404 -0.5204,-0.9207 -1.3010 -0.9207h -0.0600 c -0.1401,-0.0000 -0.2402,-0.0600 -0.2402 -0.1401v -0.3803 l 0.0400,-0.0400 c 0.0000,-0.0000 1.1208,0.0200 1.9215 0.0200c 0.9807,-0.0000 2.5619,-0.0200 2.5619 -0.0200l 0.0600,0.0400 v 0.3803 c 0.0000,0.1001 -0.1001,0.1401 -0.1801 0.1401h -0.5804 c -0.4003,-0.0000 -0.5604,0.2802 -0.5604 0.6205c 0.0000,0.2002 0.0400,0.4203 0.1201 0.6605l 2.9422,8.9067 l 3.0623,-9.2070 c 0.0400,-0.1601 0.0801,-0.3202 0.0801 -0.4603c 0.0000,-0.3002 -0.1801,-0.5204 -0.6805 -0.5204h -0.5404 c -0.1001,-0.0000 -0.1601,-0.0801 -0.1601 -0.1401v -0.3803 l 0.0400,-0.0400 c 0.0000,-0.0000 1.2009,0.0200 2.0415 0.0200c 0.6405,-0.0000 1.7013,-0.0200 1.7013 -0.0200l 0.0200,0.0200 v 0.3803 c 0.0000,0.1601 -0.2202,0.1601 -0.2202 0.1601h -0.2202 c -0.5804,-0.0000 -0.9807,0.2202 -1.2409 1.0008l -3.6828,11.1484 c -0.1001,0.3002 -0.3202,0.4603 -0.6005 0.4603c -0.2602,-0.0000 -0.5204,-0.1401 -0.6405 -0.4804l -2.3418,-7.1054 c -0.1001,-0.2802 -0.2002,-0.5604 -0.2802 -0.5604c -0.1001,-0.0000 -0.2002,0.2602 -0.2802 0.5004ZM 223.6060,393.7553 ZM 225.8877,388.2111 h 3.6828 c 0.2002,-0.0000 0.2802,-0.1001 0.2802 -0.2802c 0.0000,-1.8614 -0.9407,-2.3418 -1.6613 -2.3418c -0.4603,-0.0000 -1.9615,0.1801 -2.3017 2.6220ZM 225.8877,388.2111 ZM 231.1717,391.8939 l 0.4003,0.3202 c -0.7606,1.0408 -1.9415,1.7813 -3.3826 1.7813c -2.7421,-0.0000 -3.9030,-2.0415 -3.9030 -4.2232c 0.0000,-3.0423 2.0015,-4.8637 3.9030 -4.8637c 2.6420,-0.0000 3.2625,2.0616 3.2625 3.7428c 0.0000,0.2202 -0.1401,0.3403 -0.3603 0.3403h -5.2640 c -0.0200,0.1201 -0.0200,0.2402 -0.0200 0.4003c 0.0000,2.0415 1.4211,3.6227 2.8622 3.6227c 1.1008,-0.0000 1.8014,-0.3603 2.5019 -1.1208ZM 232.1725,393.7553 ZM 234.4542,388.2111 h 3.6828 c 0.2002,-0.0000 0.2802,-0.1001 0.2802 -0.2802c 0.0000,-1.8614 -0.9407,-2.3418 -1.6613 -2.3418c -0.4603,-0.0000 -1.9615,0.1801 -2.3017 2.6220ZM 234.4542,388.2111 ZM 239.7382,391.8939 l 0.4003,0.3202 c -0.7606,1.0408 -1.9415,1.7813 -3.3826 1.7813c -2.7421,-0.0000 -3.9030,-2.0415 -3.9030 -4.2232c 0.0000,-3.0423 2.0015,-4.8637 3.9030 -4.8637c 2.6420,-0.0000 3.2625,2.0616 3.2625 3.7428c 0.0000,0.2202 -0.1401,0.3403 -0.3603 0.3403h -5.2640 c -0.0200,0.1201 -0.0200,0.2402 -0.0200 0.4003c 0.0000,2.0415 1.4211,3.6227 2.8622 3.6227c 1.1008,-0.0000 1.8014,-0.3603 2.5019 -1.1208ZM 240.7389,393.7553 ZM 244.0014,389.5121 v 2.8021 c 0.0000,0.5804 0.2002,0.8807 0.8607 0.8807h 0.0400 c 0.0801,-0.0000 0.1601,0.0600 0.1601 0.1601v 0.3803 l -0.0400,0.0400 c 0.0000,-0.0000 -1.0208,-0.0400 -1.8014 -0.0400c -0.7205,-0.0000 -2.0616,0.0400 -2.0616 0.0400l -0.0400,-0.0400 v -0.3803 c 0.0000,-0.1001 0.0400,-0.1601 0.1401 -0.1601h 0.3803 c 0.6805,-0.0000 0.8607,-0.3002 0.8607 -0.8807v -10.0276 c 0.0000,-1.1409 -0.1801,-1.4611 -0.5804 -1.4611l -0.6605,0.0801 c -0.0600,-0.0000 -0.1001,-0.0400 -0.1001 -0.1001l -0.0400,-0.5004 c 0.3202,-0.0000 1.0408,-0.1201 1.3810 -0.1801c 0.3603,-0.0801 0.6605,-0.1601 1.0608 -0.3403h 0.4403 v 9.2270 c 0.5204,-0.1201 1.5412,-1.0208 2.6220 -2.2017c 0.3202,-0.3202 0.4003,-0.5804 0.4003 -0.7806c 0.0000,-0.1601 -0.1001,-0.3202 -0.5804 -0.3202h -0.0801 c -0.1001,-0.0000 -0.1601,-0.0801 -0.1601 -0.1601v -0.3803 l 0.0600,-0.0400 c 0.0000,-0.0000 0.9607,0.0400 1.6613 0.0400c 0.7806,-0.0000 1.8614,-0.0400 1.8614 -0.0400l 0.0801,0.0400 v 0.3803 c 0.0000,0.1001 -0.1201,0.1601 -0.2202 0.1601h -0.1401 c -0.5404,-0.0000 -1.4211,0.4403 -1.9215 0.9607l -1.5212,1.6813 c -0.0600,0.0600 -0.0801,0.1201 -0.0801 0.2002c 0.0000,0.1001 0.0400,0.2002 0.1001 0.2802l 2.3418,3.4626 c 0.3603,0.5404 1.0008,0.9007 1.5011 0.9007h 0.1401 c 0.1401,-0.0000 0.1801,0.0600 0.1801 0.1601v 0.3803 l -0.0400,0.0400 c 0.0000,-0.0000 -1.0208,-0.0400 -1.8014 -0.0400c -0.7005,-0.0000 -1.2409,0.0400 -1.2409 0.0400l -0.0600,-0.0400 v -0.3803 c 0.0000,-0.2602 -0.0600,-0.4804 -0.4603 -1.0608l -1.4611,-2.0616 c -0.4003,-0.5804 -0.6805,-0.7205 -1.1809 -0.7205ZM 250.2261,393.7553 ZM 252.1275,392.3142 v -10.0276 c 0.0000,-1.1409 -0.2002,-1.4611 -0.6005 -1.4611l -0.6405,0.0801 c -0.0600,-0.0000 -0.1201,-0.0400 -0.1201 -0.1001l -0.0400,-0.5004 c 0.3202,-0.0000 1.0608,-0.1201 1.4011 -0.1801c 0.3603,-0.0801 0.6405,-0.1601 1.0408 -0.3403h 0.4403 v 12.5295 c 0.0000,0.5804 0.2202,0.8807 0.8607 0.8807h 0.4804 c 0.0801,-0.0000 0.1601,0.0600 0.1601 0.1601v 0.3803 l -0.0400,0.0400 c 0.0000,-0.0000 -1.4611,-0.0400 -2.2417 -0.0400c -0.7005,-0.0000 -2.1616,0.0400 -2.1616 0.0400l -0.0200,-0.0400 v -0.3803 c 0.0000,-0.1001 0.0400,-0.1601 0.1401 -0.1601h 0.4804 c 0.6605,-0.0000 0.8607,-0.3002 0.8607 -0.8807ZM 255.4300,393.7553 ZM 259.5932,385.5491 c 0.0000,0.1001 -0.1201,0.1601 -0.2202 0.1601c -0.6005,-0.0000 -0.8607,0.1201 -0.8607 0.4403c 0.0000,0.1201 0.0400,0.2802 0.1201 0.4603l 2.2017,5.1639 l 2.2217,-5.0838 c 0.1001,-0.1801 0.1401,-0.3403 0.1401 -0.4603c 0.0000,-0.4203 -0.4003,-0.5204 -0.8406 -0.5204h -0.0801 c -0.1001,-0.0000 -0.2002,-0.0801 -0.2002 -0.1401v -0.3803 l 0.0400,-0.0600 c 0.0000,-0.0000 1.1809,0.0400 1.8814 0.0400c 0.5604,-0.0000 1.3810,-0.0400 1.3810 -0.0400l 0.0600,0.0400 v 0.3803 c 0.0000,0.1001 -0.0801,0.1601 -0.2202 0.1601c -0.7606,-0.0000 -1.1409,0.7806 -1.4211 1.3610c -1.0608,2.2417 -1.9415,4.3033 -3.5427 8.1662c -0.6005,1.4411 -1.3210,3.1224 -2.7421 3.1224c -0.3803,-0.0000 -1.1609,-0.2202 -1.1609 -0.9407c 0.0000,-0.6005 0.4403,-0.7806 0.7606 -0.7806c 0.3002,-0.0000 0.5004,0.1201 0.6205 0.2802c 0.2002,0.2002 0.3403,0.3403 0.5404 0.3403c 0.3002,-0.0000 1.0008,-1.7213 1.5011 -2.9422c 0.1201,-0.2402 0.1601,-0.4403 0.1601 -0.6205c 0.0000,-0.2002 -0.1801,-0.7406 -0.3403 -1.1409l -2.5219,-5.8644 c -0.3202,-0.7606 -0.5404,-0.9807 -1.2209 -0.9807c -0.1201,-0.0000 -0.2002,-0.0600 -0.2002 -0.1401v -0.4003 l 0.0400,-0.0400 c 0.0000,-0.0000 0.8807,0.0400 1.4811 0.0400c 0.9407,-0.0000 2.3818,-0.0400 2.3818 -0.0400l 0.0400,0.0600 v 0.3603 Z"/></g><g stroke-linejoin="miter" stroke-opacity="0.6" fill-opacity="0.0" stroke="rgb(0,0,0)" stroke-width="2.2461946880498966" fill="rgb(0,0,0)" stroke-linecap="butt" stroke-miterlimit="10.0"><path d="M 235.4549,362.2840 v 9.0518 "/></g><g stroke-linejoin="miter" stroke-opacity="1.0" fill-opacity="0.6" stroke="rgb(0,0,0)" fill-rule="evenodd" stroke-width="0.0" fill="rgb(0,0,0)" stroke-linecap="butt" stroke-miterlimit="10.0"><path d="M 123.1100,393.7553 ZM 123.4502,393.3750 c 0.0000,-0.1001 0.0600,-0.1801 0.1401 -0.1801h 0.6005 c 0.7606,-0.0000 1.0408,-0.2802 1.0408 -0.9207v -9.9675 c 0.0000,-0.7205 -0.2002,-0.9207 -1.0408 -0.9207h -0.5604 c -0.1001,-0.0000 -0.1801,-0.0600 -0.1801 -0.1601v -0.3603 l 0.0400,-0.0400 l 2.5219,0.0200 c 0.0000,-0.0000 2.6020,-0.0200 3.2825 -0.0200c 3.8429,-0.0000 6.9052,3.0423 6.9052 6.7651c 0.0000,4.9237 -3.7228,6.1847 -6.5449 6.1847c -2.0616,-0.0000 -3.6428,-0.0400 -3.6428 -0.0400l -2.5219,0.0400 l -0.0400,-0.0400 v -0.3603 ZM 123.4502,393.3750 ZM 126.8528,392.3142 c 0.0000,0.6405 0.2202,0.7806 2.1816 0.7806c 2.8221,-0.0000 5.3240,-0.9807 5.3240 -5.0238c 0.0000,-3.0823 -1.5011,-6.5850 -5.8244 -6.5850c -0.9807,-0.0000 -1.6813,0.0801 -1.6813 0.7806v 10.0476 ZM 137.0605,393.7553 ZM 142.8849,388.8516 l -1.5812,0.4003 c -1.7613,0.5404 -2.0215,1.4611 -2.0215 2.3618c 0.0000,0.6205 0.3002,1.5612 1.5612 1.5612c 0.6005,-0.0000 1.5212,-0.5804 2.0415 -1.0208v -3.3025 ZM 142.8849,388.8516 ZM 144.1659,393.9955 c -0.7606,-0.0000 -1.1809,-0.6805 -1.2610 -1.1609l -0.4603,0.3202 c -0.9207,0.6405 -1.2610,0.8406 -2.1816 0.8406c -1.4011,-0.0000 -2.4218,-0.8006 -2.4218 -2.3017c 0.0000,-1.5212 1.3010,-2.5619 3.2024 -3.0423l 1.8414,-0.4603 c 0.0000,-2.2617 -1.0408,-2.6820 -1.7213 -2.6820c -0.7606,-0.0000 -1.6412,0.3403 -1.6412 0.9607c 0.0000,0.2202 0.0400,0.3403 0.0600 0.4003c 0.0400,0.0801 0.0600,0.2202 0.0600 0.3603c 0.0000,0.2602 -0.2002,0.6605 -0.7806 0.6605c -0.4804,-0.0000 -0.8006,-0.3202 -0.8006 -0.8006c 0.0000,-1.1609 1.8814,-2.1816 3.1624 -2.1816c 1.4611,-0.0000 3.1424,0.6005 3.1424 3.4426v 2.9422 c 0.0000,1.2209 0.0200,1.7413 0.4804 1.7413c 0.4403,-0.0000 0.5604,-0.5604 0.5804 -1.0008l 0.5004,0.1001 c -0.1201,1.4611 -0.7406,1.8614 -1.7613 1.8614ZM 146.0874,393.7553 ZM 147.6485,382.3266 c 0.0000,-0.5204 0.4203,-0.9607 0.9407 -0.9607c 0.5404,-0.0000 0.9607,0.4403 0.9607 0.9607c 0.0000,0.5404 -0.4203,0.9607 -0.9607 0.9607c -0.5204,-0.0000 -0.9407,-0.4203 -0.9407 -0.9607ZM 147.6485,382.3266 ZM 149.5500,392.3142 c 0.0000,0.5804 0.2202,0.8807 0.8607 0.8807h 0.3803 c 0.1001,-0.0000 0.1801,0.0600 0.1801 0.1601v 0.3803 l -0.0400,0.0400 c 0.0000,-0.0000 -1.3810,-0.0400 -2.1616 -0.0400c -0.7005,-0.0000 -2.0616,0.0400 -2.0616 0.0400l -0.0400,-0.0400 v -0.3803 c 0.0000,-0.1001 0.0600,-0.1601 0.1601 -0.1601h 0.3803 c 0.6605,-0.0000 0.8607,-0.3002 0.8607 -0.8807v -4.9838 c 0.0000,-1.0608 -0.1801,-1.2209 -0.4603 -1.2209c -0.2602,-0.0000 -0.5004,0.0200 -0.8406 0.1001l -0.1001,-0.5604 c 1.2810,-0.2202 1.5011,-0.3002 2.0816 -0.5804c 0.2202,-0.0801 0.3603,-0.1601 0.5004 -0.1601h 0.3002 v 7.4056 ZM 151.3713,393.7553 ZM 153.2728,392.3142 v -10.0276 c 0.0000,-1.1409 -0.2002,-1.4611 -0.6005 -1.4611l -0.6405,0.0801 c -0.0600,-0.0000 -0.1201,-0.0400 -0.1201 -0.1001l -0.0400,-0.5004 c 0.3202,-0.0000 1.0608,-0.1201 1.4011 -0.1801c 0.3603,-0.0801 0.6405,-0.1601 1.0408 -0.3403h 0.4403 v 12.5295 c 0.0000,0.5804 0.2202,0.8807 0.8607 0.8807h 0.4804 c 0.0801,-0.0000 0.1601,0.0600 0.1601 0.1601v 0.3803 l -0.0400,0.0400 c 0.0000,-0.0000 -1.4611,-0.0400 -2.2417 -0.0400c -0.7005,-0.0000 -2.1616,0.0400 -2.1616 0.0400l -0.0200,-0.0400 v -0.3803 c 0.0000,-0.1001 0.0400,-0.1601 0.1401 -0.1601h 0.4804 c 0.6605,-0.0000 0.8607,-0.3002 0.8607 -0.8807ZM 156.5753,393.7553 ZM 160.7384,385.5491 c 0.0000,0.1001 -0.1201,0.1601 -0.2202 0.1601c -0.6005,-0.0000 -0.8607,0.1201 -0.8607 0.4403c 0.0000,0.1201 0.0400,0.2802 0.1201 0.4603l 2.2017,5.1639 l 2.2217,-5.0838 c 0.1001,-0.1801 0.1401,-0.3403 0.1401 -0.4603c 0.0000,-0.4203 -0.4003,-0.5204 -0.8406 -0.5204h -0.0801 c -0.1001,-0.0000 -0.2002,-0.0801 -0.2002 -0.1401v -0.3803 l 0.0400,-0.0600 c 0.0000,-0.0000 1.1809,0.0400 1.8814 0.0400c 0.5604,-0.0000 1.3810,-0.0400 1.3810 -0.0400l 0.0600,0.0400 v 0.3803 c 0.0000,0.1001 -0.0801,0.1601 -0.2202 0.1601c -0.7606,-0.0000 -1.1409,0.7806 -1.4211 1.3610c -1.0608,2.2417 -1.9415,4.3033 -3.5427 8.1662c -0.6005,1.4411 -1.3210,3.1224 -2.7421 3.1224c -0.3803,-0.0000 -1.1609,-0.2202 -1.1609 -0.9407c 0.0000,-0.6005 0.4403,-0.7806 0.7606 -0.7806c 0.3002,-0.0000 0.5004,0.1201 0.6205 0.2802c 0.2002,0.2002 0.3403,0.3403 0.5404 0.3403c 0.3002,-0.0000 1.0008,-1.7213 1.5011 -2.9422c 0.1201,-0.2402 0.1601,-0.4403 0.1601 -0.6205c 0.0000,-0.2002 -0.1801,-0.7406 -0.3403 -1.1409l -2.5219,-5.8644 c -0.3202,-0.7606 -0.5404,-0.9807 -1.2209 -0.9807c -0.1201,-0.0000 -0.2002,-0.0600 -0.2002 -0.1401v -0.4003 l 0.0400,-0.0400 c 0.0000,-0.0000 0.8807,0.0400 1.4811 0.0400c 0.9407,-0.0000 2.3818,-0.0400 2.3818 -0.0400l 0.0400,0.0600 v 0.3603 Z"/></g><g stroke-linejoin="miter" stroke-opacity="0.6" fill-opacity="0.0" stroke="rgb(0,0,0)" stroke-width="2.2461946880498966" fill="rgb(0,0,0)" stroke-linecap="butt" stroke-miterlimit="10.0"><path d="M 144.9365,362.2840 v 9.0518 "/></g><g stroke-linejoin="miter" stroke-opacity="0.0" fill-opacity="0.1" stroke="rgb(0,0,0)" stroke-width="0.0" fill="rgb(0,0,0)" stroke-linecap="butt" stroke-miterlimit="10.0"><path d="M 87.6081,350.0047 l -0.0000,-301.7282 h -6.0346 l -0.0000,301.7282 Z"/></g><g stroke-linejoin="miter" stroke-opacity="1.0" fill-opacity="0.6" stroke="rgb(0,0,0)" fill-rule="evenodd" stroke-width="0.0" fill="rgb(0,0,0)" stroke-linecap="butt" stroke-miterlimit="10.0"><path d="M 47.7305,98.7018 ZM 52.8944,91.5964 c 0.0000,-0.1401 0.0200,-0.3002 0.2002 -0.4003c 0.2202,-0.1601 0.5804,-0.3403 0.8807 -0.3403c 0.2602,-0.0000 0.2802,0.2202 0.2802 0.6205v 3.2224 h 1.6212 l -0.1201,0.9407 h -1.5011 v 1.6613 c 0.0000,0.5604 0.0801,0.8406 0.6605 0.8406h 0.5404 c 0.1201,-0.0000 0.1401,0.1001 0.1401 0.1401v 0.4403 c 0.0000,-0.0000 -1.2810,-0.0400 -2.1216 -0.0400c -0.7606,-0.0000 -1.9415,0.0400 -1.9415 0.0400v -0.4403 c 0.0000,-0.0400 0.0200,-0.1401 0.1401 -0.1401h 0.5404 c 0.6205,-0.0000 0.6805,-0.2602 0.6805 -0.8406v -1.6613 h -3.9230 c -0.0801,-0.0000 -0.1201,-0.0400 -0.1801 -0.1201l -0.1601,-0.2202 l -0.2402,-0.4203 c -0.0200,-0.0000 -0.0200,-0.0200 -0.0200 -0.0400c 0.0000,-0.0200 0.0200,-0.0400 0.0400 -0.0600c 1.3010,-1.4411 3.6027,-5.9045 4.3233 -7.5457c 0.0200,-0.0801 0.0600,-0.1001 0.1401 -0.1001c 0.0200,-0.0000 0.4603,0.1801 0.7005 0.2202c -0.9007,2.4218 -2.3818,5.0238 -3.8429 7.3456h 3.1624 v -3.1023 ZM 56.4971,98.7018 ZM 60.8804,87.8336 c -0.8607,-0.0000 -2.1216,0.8406 -2.1216 5.5042c 0.0000,1.6412 0.3002,4.9437 2.0616 4.9437c 0.3403,-0.0000 1.3010,-0.2202 1.7213 -1.7813c 0.2602,-0.9607 0.4003,-2.1616 0.4003 -3.9030c 0.0000,-2.5419 -0.6405,-3.9630 -1.2209 -4.4634c -0.2202,-0.2002 -0.5204,-0.3002 -0.8406 -0.3002ZM 60.8804,87.8336 ZM 60.8004,98.9420 c -2.1416,-0.0000 -3.5827,-2.7421 -3.5827 -5.8044c 0.0000,-3.7428 1.7813,-6.0045 3.6628 -6.0045c 0.8607,-0.0000 1.7213,0.5404 2.3017 1.3210c 0.8406,1.1208 1.2810,2.6220 1.2810 4.5034c 0.0000,4.4434 -2.2017,5.9845 -3.6628 5.9845ZM 65.2637,98.7018 ZM 69.6470,87.8336 c -0.8607,-0.0000 -2.1216,0.8406 -2.1216 5.5042c 0.0000,1.6412 0.3002,4.9437 2.0616 4.9437c 0.3403,-0.0000 1.3010,-0.2202 1.7213 -1.7813c 0.2602,-0.9607 0.4003,-2.1616 0.4003 -3.9030c 0.0000,-2.5419 -0.6405,-3.9630 -1.2209 -4.4634c -0.2202,-0.2002 -0.5204,-0.3002 -0.8406 -0.3002ZM 69.6470,87.8336 ZM 69.5670,98.9420 c -2.1416,-0.0000 -3.5827,-2.7421 -3.5827 -5.8044c 0.0000,-3.7428 1.7813,-6.0045 3.6628 -6.0045c 0.8607,-0.0000 1.7213,0.5404 2.3017 1.3210c 0.8406,1.1208 1.2810,2.6220 1.2810 4.5034c 0.0000,4.4434 -2.2017,5.9845 -3.6628 5.9845Z"/></g><g stroke-linejoin="miter" stroke-opacity="0.6" fill-opacity="0.0" stroke="rgb(0,0,0)" stroke-width="2.2461946880498966" fill="rgb(0,0,0)" stroke-linecap="butt" stroke-miterlimit="10.0"><path d="M 78.5563,92.6672 h 9.0518 "/></g><g stroke-linejoin="miter" stroke-opacity="1.0" fill-opacity="0.6" stroke="rgb(0,0,0)" fill-rule="evenodd" stroke-width="0.0" fill="rgb(0,0,0)" stroke-linecap="butt" stroke-miterlimit="10.0"><path d="M 47.7305,163.0362 ZM 52.0537,152.0879 c -0.5004,-0.0000 -1.9615,0.2802 -1.9615 1.5011c 0.0000,0.3603 -0.1401,0.9807 -0.6805 0.9807c -0.5204,-0.0000 -0.5604,-0.5804 -0.5604 -0.6405c 0.0000,-0.6205 0.8206,-2.4619 3.6027 -2.4619c 1.9415,-0.0000 2.5219,1.2209 2.5219 2.0215c 0.0000,0.5004 -0.1601,1.5011 -1.9615 2.6420c 1.1208,0.1801 2.6020,1.0008 2.6020 3.0823c 0.0000,2.6420 -2.0015,4.0631 -4.2632 4.0631c -1.1409,-0.0000 -2.7421,-0.5004 -2.7421 -1.2610c 0.0000,-0.3002 0.3002,-0.6405 0.7005 -0.6405c 0.3803,-0.0000 0.5604,0.2002 0.7406 0.4603c 0.2202,0.3403 0.5804,0.8206 1.5412 0.8206c 0.6605,-0.0000 2.5419,-0.6605 2.5419 -3.1824c 0.0000,-2.1416 -1.5011,-2.4819 -2.5820 -2.4819c -0.1801,-0.0000 -0.4003,0.0400 -0.6205 0.0801l -0.0801,-0.6005 c 1.5412,-0.2602 2.8221,-1.7613 2.8221 -2.6820c 0.0000,-1.1409 -0.8006,-1.7013 -1.6212 -1.7013ZM 56.4971,163.0362 ZM 60.8804,152.1679 c -0.8607,-0.0000 -2.1216,0.8406 -2.1216 5.5042c 0.0000,1.6412 0.3002,4.9437 2.0616 4.9437c 0.3403,-0.0000 1.3010,-0.2202 1.7213 -1.7813c 0.2602,-0.9607 0.4003,-2.1616 0.4003 -3.9030c 0.0000,-2.5419 -0.6405,-3.9630 -1.2209 -4.4634c -0.2202,-0.2002 -0.5204,-0.3002 -0.8406 -0.3002ZM 60.8804,152.1679 ZM 60.8004,163.2763 c -2.1416,-0.0000 -3.5827,-2.7421 -3.5827 -5.8044c 0.0000,-3.7428 1.7813,-6.0045 3.6628 -6.0045c 0.8607,-0.0000 1.7213,0.5404 2.3017 1.3210c 0.8406,1.1208 1.2810,2.6220 1.2810 4.5034c 0.0000,4.4434 -2.2017,5.9845 -3.6628 5.9845ZM 65.2637,163.0362 ZM 69.6470,152.1679 c -0.8607,-0.0000 -2.1216,0.8406 -2.1216 5.5042c 0.0000,1.6412 0.3002,4.9437 2.0616 4.9437c 0.3403,-0.0000 1.3010,-0.2202 1.7213 -1.7813c 0.2602,-0.9607 0.4003,-2.1616 0.4003 -3.9030c 0.0000,-2.5419 -0.6405,-3.9630 -1.2209 -4.4634c -0.2202,-0.2002 -0.5204,-0.3002 -0.8406 -0.3002ZM 69.6470,152.1679 ZM 69.5670,163.2763 c -2.1416,-0.0000 -3.5827,-2.7421 -3.5827 -5.8044c 0.0000,-3.7428 1.7813,-6.0045 3.6628 -6.0045c 0.8607,-0.0000 1.7213,0.5404 2.3017 1.3210c 0.8406,1.1208 1.2810,2.6220 1.2810 4.5034c 0.0000,4.4434 -2.2017,5.9845 -3.6628 5.9845Z"/></g><g stroke-linejoin="miter" stroke-opacity="0.6" fill-opacity="0.0" stroke="rgb(0,0,0)" stroke-width="2.2461946880498966" fill="rgb(0,0,0)" stroke-linecap="butt" stroke-miterlimit="10.0"><path d="M 78.5563,157.0016 h 9.0518 "/></g><g stroke-linejoin="miter" stroke-opacity="1.0" fill-opacity="0.6" stroke="rgb(0,0,0)" fill-rule="evenodd" stroke-width="0.0" fill="rgb(0,0,0)" stroke-linecap="butt" stroke-miterlimit="10.0"><path d="M 47.7305,227.3705 ZM 48.8913,218.5038 c 0.0000,-1.1409 1.1008,-2.7020 3.2024 -2.7020c 1.5412,-0.0000 3.3425,0.5804 3.3425 2.8822c 0.0000,1.5212 -0.7806,2.2817 -1.8614 3.3225l -1.9014,1.8414 c -0.1001,0.1001 -1.4411,1.4211 -1.4411 2.3618h 3.4026 c 0.6805,-0.0000 1.0408,-0.3403 1.3210 -1.4411l 0.5004,0.0801 l -0.4003,2.5219 h -6.1847 c 0.0000,-1.1208 0.1801,-1.9815 2.0415 -3.8829l 1.4011,-1.3810 c 1.1208,-1.1409 1.5812,-2.1216 1.5812 -3.3425c 0.0000,-1.8214 -1.2409,-2.3418 -1.9215 -2.3418c -1.3810,-0.0000 -1.7613,0.7205 -1.7613 1.2009c 0.0000,0.1601 0.0400,0.3202 0.0801 0.4603c 0.0400,0.1401 0.0801,0.2802 0.0801 0.4403c 0.0000,0.5204 -0.4003,0.7205 -0.7205 0.7205c -0.4403,-0.0000 -0.7606,-0.3403 -0.7606 -0.7406ZM 56.4971,227.3705 ZM 60.8804,216.5023 c -0.8607,-0.0000 -2.1216,0.8406 -2.1216 5.5042c 0.0000,1.6412 0.3002,4.9437 2.0616 4.9437c 0.3403,-0.0000 1.3010,-0.2202 1.7213 -1.7813c 0.2602,-0.9607 0.4003,-2.1616 0.4003 -3.9030c 0.0000,-2.5419 -0.6405,-3.9630 -1.2209 -4.4634c -0.2202,-0.2002 -0.5204,-0.3002 -0.8406 -0.3002ZM 60.8804,216.5023 ZM 60.8004,227.6107 c -2.1416,-0.0000 -3.5827,-2.7421 -3.5827 -5.8044c 0.0000,-3.7428 1.7813,-6.0045 3.6628 -6.0045c 0.8607,-0.0000 1.7213,0.5404 2.3017 1.3210c 0.8406,1.1208 1.2810,2.6220 1.2810 4.5034c 0.0000,4.4434 -2.2017,5.9845 -3.6628 5.9845ZM 65.2637,227.3705 ZM 69.6470,216.5023 c -0.8607,-0.0000 -2.1216,0.8406 -2.1216 5.5042c 0.0000,1.6412 0.3002,4.9437 2.0616 4.9437c 0.3403,-0.0000 1.3010,-0.2202 1.7213 -1.7813c 0.2602,-0.9607 0.4003,-2.1616 0.4003 -3.9030c 0.0000,-2.5419 -0.6405,-3.9630 -1.2209 -4.4634c -0.2202,-0.2002 -0.5204,-0.3002 -0.8406 -0.3002ZM 69.6470,216.5023 ZM 69.5670,227.6107 c -2.1416,-0.0000 -3.5827,-2.7421 -3.5827 -5.8044c 0.0000,-3.7428 1.7813,-6.0045 3.6628 -6.0045c 0.8607,-0.0000 1.7213,0.5404 2.3017 1.3210c 0.8406,1.1208 1.2810,2.6220 1.2810 4.5034c 0.0000,4.4434 -2.2017,5.9845 -3.6628 5.9845Z"/></g><g stroke-linejoin="miter" stroke-opacity="0.6" fill-opacity="0.0" stroke="rgb(0,0,0)" stroke-width="2.2461946880498966" fill="rgb(0,0,0)" stroke-linecap="butt" stroke-miterlimit="10.0"><path d="M 78.5563,221.3360 h 9.0518 "/></g><g stroke-linejoin="miter" stroke-opacity="1.0" fill-opacity="0.6" stroke="rgb(0,0,0)" fill-rule="evenodd" stroke-width="0.0" fill="rgb(0,0,0)" stroke-linecap="butt" stroke-miterlimit="10.0"><path d="M 47.7305,291.7049 ZM 51.4933,282.1577 c -0.3803,-0.0000 -1.2610,0.3603 -1.7013 0.5604l -0.2402,-0.6205 c 1.7613,-0.8206 2.4418,-1.2409 3.4426 -1.9615h 0.3803 v 10.0676 c 0.0000,0.7205 0.1001,0.9207 0.7606 0.9207h 1.0408 c 0.0600,-0.0000 0.1601,0.0400 0.1601 0.1601v 0.4403 l -2.7421,-0.0400 l -2.7821,0.0400 v -0.4403 c 0.0200,-0.0600 0.0400,-0.1601 0.1601 -0.1601h 1.2009 c 0.7606,-0.0000 0.7606,-0.3403 0.7606 -0.9207v -6.8852 c 0.0000,-0.6805 0.0000,-1.1609 -0.4403 -1.1609ZM 56.4971,291.7049 ZM 60.8804,280.8367 c -0.8607,-0.0000 -2.1216,0.8406 -2.1216 5.5042c 0.0000,1.6412 0.3002,4.9437 2.0616 4.9437c 0.3403,-0.0000 1.3010,-0.2202 1.7213 -1.7813c 0.2602,-0.9607 0.4003,-2.1616 0.4003 -3.9030c 0.0000,-2.5419 -0.6405,-3.9630 -1.2209 -4.4634c -0.2202,-0.2002 -0.5204,-0.3002 -0.8406 -0.3002ZM 60.8804,280.8367 ZM 60.8004,291.9451 c -2.1416,-0.0000 -3.5827,-2.7421 -3.5827 -5.8044c 0.0000,-3.7428 1.7813,-6.0045 3.6628 -6.0045c 0.8607,-0.0000 1.7213,0.5404 2.3017 1.3210c 0.8406,1.1208 1.2810,2.6220 1.2810 4.5034c 0.0000,4.4434 -2.2017,5.9845 -3.6628 5.9845ZM 65.2637,291.7049 ZM 69.6470,280.8367 c -0.8607,-0.0000 -2.1216,0.8406 -2.1216 5.5042c 0.0000,1.6412 0.3002,4.9437 2.0616 4.9437c 0.3403,-0.0000 1.3010,-0.2202 1.7213 -1.7813c 0.2602,-0.9607 0.4003,-2.1616 0.4003 -3.9030c 0.0000,-2.5419 -0.6405,-3.9630 -1.2209 -4.4634c -0.2202,-0.2002 -0.5204,-0.3002 -0.8406 -0.3002ZM 69.6470,280.8367 ZM 69.5670,291.9451 c -2.1416,-0.0000 -3.5827,-2.7421 -3.5827 -5.8044c 0.0000,-3.7428 1.7813,-6.0045 3.6628 -6.0045c 0.8607,-0.0000 1.7213,0.5404 2.3017 1.3210c 0.8406,1.1208 1.2810,2.6220 1.2810 4.5034c 0.0000,4.4434 -2.2017,5.9845 -3.6628 5.9845Z"/></g><g stroke-linejoin="miter" stroke-opacity="0.6" fill-opacity="0.0" stroke="rgb(0,0,0)" stroke-width="2.2461946880498966" fill="rgb(0,0,0)" stroke-linecap="butt" stroke-miterlimit="10.0"><path d="M 78.5563,285.6703 h 9.0518 "/></g><g stroke-linejoin="miter" stroke-opacity="1.0" fill-opacity="0.6" stroke="rgb(0,0,0)" fill-rule="evenodd" stroke-width="0.0" fill="rgb(0,0,0)" stroke-linecap="butt" stroke-miterlimit="10.0"><path d="M 65.2637,356.0393 ZM 69.6470,345.1710 c -0.8607,-0.0000 -2.1216,0.8406 -2.1216 5.5042c 0.0000,1.6412 0.3002,4.9437 2.0616 4.9437c 0.3403,-0.0000 1.3010,-0.2202 1.7213 -1.7813c 0.2602,-0.9607 0.4003,-2.1616 0.4003 -3.9030c 0.0000,-2.5419 -0.6405,-3.9630 -1.2209 -4.4634c -0.2202,-0.2002 -0.5204,-0.3002 -0.8406 -0.3002ZM 69.6470,345.1710 ZM 69.5670,356.2794 c -2.1416,-0.0000 -3.5827,-2.7421 -3.5827 -5.8044c 0.0000,-3.7428 1.7813,-6.0045 3.6628 -6.0045c 0.8607,-0.0000 1.7213,0.5404 2.3017 1.3210c 0.8406,1.1208 1.2810,2.6220 1.2810 4.5034c 0.0000,4.4434 -2.2017,5.9845 -3.6628 5.9845Z"/></g><g stroke-linejoin="miter" stroke-opacity="0.6" fill-opacity="0.0" stroke="rgb(0,0,0)" stroke-width="2.2461946880498966" fill="rgb(0,0,0)" stroke-linecap="butt" stroke-miterlimit="10.0"><path d="M 78.5563,350.0047 h 9.0518 "/></g><g stroke-linejoin="miter" stroke-opacity="0.0" fill-opacity="0.0" stroke="rgb(0,0,0)" stroke-width="0.0" fill="rgb(0,0,0)" stroke-linecap="butt" stroke-miterlimit="10.0"><path d="M 552.2695,350.0047 l -0.0000,-301.7282 h -452.5923 l -0.0000,301.7282 Z"/></g><g stroke-linejoin="miter" stroke-opacity="1.0" fill-opacity="1.0" stroke="rgb(102,102,102)" stroke-width="0.0" fill="rgb(87,57,99)" stroke-linecap="butt" stroke-miterlimit="10.0"><path d="M 534.1658,350.0047 l -0.0000,-32.8105 h -54.3111 l -0.0000,32.8105 Z"/></g><g stroke-linejoin="miter" stroke-opacity="1.0" fill-opacity="1.0" stroke="rgb(102,102,102)" stroke-width="0.0" fill="rgb(87,57,99)" stroke-linecap="butt" stroke-miterlimit="10.0"><path d="M 443.6474,350.0047 l -0.0000,-23.1604 h -54.3111 l -0.0000,23.1604 Z"/></g><g stroke-linejoin="miter" stroke-opacity="1.0" fill-opacity="1.0" stroke="rgb(102,102,102)" stroke-width="0.0" fill="rgb(87,57,99)" stroke-linecap="butt" stroke-miterlimit="10.0"><path d="M 353.1289,350.0047 l -0.0000,-138.3189 h -54.3111 l -0.0000,138.3189 Z"/></g><g stroke-linejoin="miter" stroke-opacity="1.0" fill-opacity="1.0" stroke="rgb(102,102,102)" stroke-width="0.0" fill="rgb(87,57,99)" stroke-linecap="butt" stroke-miterlimit="10.0"><path d="M 262.6105,350.0047 l -0.0000,-290.7913 h -54.3111 l -0.0000,290.7913 Z"/></g><g stroke-linejoin="miter" stroke-opacity="1.0" fill-opacity="1.0" stroke="rgb(102,102,102)" stroke-width="0.0" fill="rgb(87,57,99)" stroke-linecap="butt" stroke-miterlimit="10.0"><path d="M 172.0920,350.0047 l -0.0000,-301.7282 h -54.3111 l -0.0000,301.7282 Z"/></g><g stroke-linejoin="miter" stroke-opacity="1.0" fill-opacity="1.0" stroke="rgb(0,0,0)" fill-rule="evenodd" stroke-width="0.0" fill="rgb(255,255,84)" stroke-linecap="butt" stroke-miterlimit="10.0"><path d="M 498.2437,344.3497 ZM 504.4283,340.9671 c 0.0000,-2.0616 -1.1208,-3.0823 -2.3618 -3.0823c -0.9207,-0.0000 -1.6212,0.1401 -2.4018 0.4603l 0.6405,-5.4641 c 0.6605,0.0600 1.3410,0.0801 2.0415 0.0801c 1.0008,-0.0000 2.0415,-0.0600 3.1224 -0.1801l 0.1201,0.0600 l -0.3002,1.3010 c -0.7806,0.0801 -1.4211,0.1001 -1.9815 0.1001c -0.9007,-0.0000 -1.5812,-0.0801 -2.2817 -0.1601l -0.3803,3.1624 c 0.4203,-0.1601 1.1409,-0.3002 1.9215 -0.3002c 2.1216,-0.0000 3.3025,1.8414 3.3025 3.6828c 0.0000,2.2417 -1.5612,3.9630 -3.8229 3.9630c -1.1409,-0.0000 -2.8021,-0.6405 -2.8021 -1.4211c 0.0000,-0.3803 0.3202,-0.6405 0.6805 -0.6405c 0.4003,-0.0000 0.6605,0.3002 0.9007 0.6205c 0.3002,0.3603 0.6205,0.7606 1.2610 0.7606c 1.2810,-0.0000 2.3418,-1.2009 2.3418 -2.9422ZM 507.0103,344.3497 ZM 510.7731,334.8025 c -0.3803,-0.0000 -1.2610,0.3603 -1.7013 0.5604l -0.2402,-0.6205 c 1.7613,-0.8206 2.4418,-1.2409 3.4426 -1.9615h 0.3803 v 10.0676 c 0.0000,0.7205 0.1001,0.9207 0.7606 0.9207h 1.0408 c 0.0600,-0.0000 0.1601,0.0400 0.1601 0.1601v 0.4403 l -2.7421,-0.0400 l -2.7821,0.0400 v -0.4403 c 0.0200,-0.0600 0.0400,-0.1601 0.1601 -0.1601h 1.2009 c 0.7606,-0.0000 0.7606,-0.3403 0.7606 -0.9207v -6.8852 c 0.0000,-0.6805 0.0000,-1.1609 -0.4403 -1.1609Z"/></g><g stroke-linejoin="miter" stroke-opacity="1.0" fill-opacity="1.0" stroke="rgb(0,0,0)" fill-rule="evenodd" stroke-width="0.0" fill="rgb(255,255,84)" stroke-linecap="butt" stroke-miterlimit="10.0"><path d="M 407.7252,353.9999 ZM 412.0485,343.0516 c -0.5004,-0.0000 -1.9615,0.2802 -1.9615 1.5011c 0.0000,0.3603 -0.1401,0.9807 -0.6805 0.9807c -0.5204,-0.0000 -0.5604,-0.5804 -0.5604 -0.6405c 0.0000,-0.6205 0.8206,-2.4619 3.6027 -2.4619c 1.9415,-0.0000 2.5219,1.2209 2.5219 2.0215c 0.0000,0.5004 -0.1601,1.5011 -1.9615 2.6420c 1.1208,0.1801 2.6020,1.0008 2.6020 3.0823c 0.0000,2.6420 -2.0015,4.0631 -4.2632 4.0631c -1.1409,-0.0000 -2.7421,-0.5004 -2.7421 -1.2610c 0.0000,-0.3002 0.3002,-0.6405 0.7005 -0.6405c 0.3803,-0.0000 0.5604,0.2002 0.7406 0.4603c 0.2202,0.3403 0.5804,0.8206 1.5412 0.8206c 0.6605,-0.0000 2.5419,-0.6605 2.5419 -3.1824c 0.0000,-2.1416 -1.5011,-2.4819 -2.5820 -2.4819c -0.1801,-0.0000 -0.4003,0.0400 -0.6205 0.0801l -0.0801,-0.6005 c 1.5412,-0.2602 2.8221,-1.7613 2.8221 -2.6820c 0.0000,-1.1409 -0.8006,-1.7013 -1.6212 -1.7013ZM 416.4918,353.9999 ZM 418.8136,348.7559 c -0.0200,0.2002 -0.0200,0.5004 -0.0200 0.7005c 0.0000,3.3625 1.5011,4.2032 2.5019 4.2032c 0.9207,-0.0000 1.9014,-0.8607 1.9014 -2.9422c 0.0000,-0.9407 -0.4804,-2.8622 -2.4018 -2.8622c -0.4203,-0.0000 -1.1809,0.0400 -1.9815 0.9007ZM 418.8136,348.7559 ZM 424.0576,342.9515 c -1.3010,0.1201 -2.4218,0.4603 -3.3826 1.4011c -0.9207,0.9007 -1.5812,2.2417 -1.8014 3.8429c 0.4603,-0.5604 1.5612,-0.9807 2.3218 -0.9807c 2.9622,-0.0000 3.3425,2.4418 3.3425 3.3625c 0.0000,1.3610 -0.6805,3.6628 -3.4426 3.6628c -1.4611,-0.0000 -3.6828,-0.8607 -3.6828 -4.8437c 0.0000,-1.8414 0.6205,-3.6428 2.0015 -5.0238c 1.2810,-1.3010 2.6220,-1.8414 4.5835 -1.9415Z"/></g><g stroke-linejoin="miter" stroke-opacity="1.0" fill-opacity="1.0" stroke="rgb(0,0,0)" fill-rule="evenodd" stroke-width="0.0" fill="rgb(255,255,84)" stroke-linecap="butt" stroke-miterlimit="10.0"><path d="M 312.8234,238.8413 ZM 313.9843,229.9746 c 0.0000,-1.1409 1.1008,-2.7020 3.2024 -2.7020c 1.5412,-0.0000 3.3425,0.5804 3.3425 2.8822c 0.0000,1.5212 -0.7806,2.2817 -1.8614 3.3225l -1.9014,1.8414 c -0.1001,0.1001 -1.4411,1.4211 -1.4411 2.3618h 3.4026 c 0.6805,-0.0000 1.0408,-0.3403 1.3210 -1.4411l 0.5004,0.0801 l -0.4003,2.5219 h -6.1847 c 0.0000,-1.1208 0.1801,-1.9815 2.0415 -3.8829l 1.4011,-1.3810 c 1.1208,-1.1409 1.5812,-2.1216 1.5812 -3.3425c 0.0000,-1.8214 -1.2409,-2.3418 -1.9215 -2.3418c -1.3810,-0.0000 -1.7613,0.7205 -1.7613 1.2009c 0.0000,0.1601 0.0400,0.3202 0.0801 0.4603c 0.0400,0.1401 0.0801,0.2802 0.0801 0.4403c 0.0000,0.5204 -0.4003,0.7205 -0.7205 0.7205c -0.4403,-0.0000 -0.7606,-0.3403 -0.7606 -0.7406ZM 321.5901,238.8413 ZM 325.3529,229.2941 c -0.3803,-0.0000 -1.2610,0.3603 -1.7013 0.5604l -0.2402,-0.6205 c 1.7613,-0.8206 2.4418,-1.2409 3.4426 -1.9615h 0.3803 v 10.0676 c 0.0000,0.7205 0.1001,0.9207 0.7606 0.9207h 1.0408 c 0.0600,-0.0000 0.1601,0.0400 0.1601 0.1601v 0.4403 l -2.7421,-0.0400 l -2.7821,0.0400 v -0.4403 c 0.0200,-0.0600 0.0400,-0.1601 0.1601 -0.1601h 1.2009 c 0.7606,-0.0000 0.7606,-0.3403 0.7606 -0.9207v -6.8852 c 0.0000,-0.6805 0.0000,-1.1609 -0.4403 -1.1609ZM 330.3567,238.8413 ZM 336.5414,235.4588 c 0.0000,-2.0616 -1.1208,-3.0823 -2.3618 -3.0823c -0.9207,-0.0000 -1.6212,0.1401 -2.4018 0.4603l 0.6405,-5.4641 c 0.6605,0.0600 1.3410,0.0801 2.0415 0.0801c 1.0008,-0.0000 2.0415,-0.0600 3.1224 -0.1801l 0.1201,0.0600 l -0.3002,1.3010 c -0.7806,0.0801 -1.4211,0.1001 -1.9815 0.1001c -0.9007,-0.0000 -1.5812,-0.0801 -2.2817 -0.1601l -0.3803,3.1624 c 0.4203,-0.1601 1.1409,-0.3002 1.9215 -0.3002c 2.1216,-0.0000 3.3025,1.8414 3.3025 3.6828c 0.0000,2.2417 -1.5612,3.9630 -3.8229 3.9630c -1.1409,-0.0000 -2.8021,-0.6405 -2.8021 -1.4211c 0.0000,-0.3803 0.3202,-0.6405 0.6805 -0.6405c 0.4003,-0.0000 0.6605,0.3002 0.9007 0.6205c 0.3002,0.3603 0.6205,0.7606 1.2610 0.7606c 1.2810,-0.0000 2.3418,-1.2009 2.3418 -2.9422Z"/></g><g stroke-linejoin="miter" stroke-opacity="1.0" fill-opacity="1.0" stroke="rgb(0,0,0)" fill-rule="evenodd" stroke-width="0.0" fill="rgb(255,255,84)" stroke-linecap="butt" stroke-miterlimit="10.0"><path d="M 222.3050,86.3689 ZM 227.4689,79.2635 c 0.0000,-0.1401 0.0200,-0.3002 0.2002 -0.4003c 0.2202,-0.1601 0.5804,-0.3403 0.8807 -0.3403c 0.2602,-0.0000 0.2802,0.2202 0.2802 0.6205v 3.2224 h 1.6212 l -0.1201,0.9407 h -1.5011 v 1.6613 c 0.0000,0.5604 0.0801,0.8406 0.6605 0.8406h 0.5404 c 0.1201,-0.0000 0.1401,0.1001 0.1401 0.1401v 0.4403 c 0.0000,-0.0000 -1.2810,-0.0400 -2.1216 -0.0400c -0.7606,-0.0000 -1.9415,0.0400 -1.9415 0.0400v -0.4403 c 0.0000,-0.0400 0.0200,-0.1401 0.1401 -0.1401h 0.5404 c 0.6205,-0.0000 0.6805,-0.2602 0.6805 -0.8406v -1.6613 h -3.9230 c -0.0801,-0.0000 -0.1201,-0.0400 -0.1801 -0.1201l -0.1601,-0.2202 l -0.2402,-0.4203 c -0.0200,-0.0000 -0.0200,-0.0200 -0.0200 -0.0400c 0.0000,-0.0200 0.0200,-0.0400 0.0400 -0.0600c 1.3010,-1.4411 3.6027,-5.9045 4.3233 -7.5457c 0.0200,-0.0801 0.0600,-0.1001 0.1401 -0.1001c 0.0200,-0.0000 0.4603,0.1801 0.7005 0.2202c -0.9007,2.4218 -2.3818,5.0238 -3.8429 7.3456h 3.1624 v -3.1023 ZM 231.0716,86.3689 ZM 237.2563,82.9863 c 0.0000,-2.0616 -1.1208,-3.0823 -2.3618 -3.0823c -0.9207,-0.0000 -1.6212,0.1401 -2.4018 0.4603l 0.6405,-5.4641 c 0.6605,0.0600 1.3410,0.0801 2.0415 0.0801c 1.0008,-0.0000 2.0415,-0.0600 3.1224 -0.1801l 0.1201,0.0600 l -0.3002,1.3010 c -0.7806,0.0801 -1.4211,0.1001 -1.9815 0.1001c -0.9007,-0.0000 -1.5812,-0.0801 -2.2817 -0.1601l -0.3803,3.1624 c 0.4203,-0.1601 1.1409,-0.3002 1.9215 -0.3002c 2.1216,-0.0000 3.3025,1.8414 3.3025 3.6828c 0.0000,2.2417 -1.5612,3.9630 -3.8229 3.9630c -1.1409,-0.0000 -2.8021,-0.6405 -2.8021 -1.4211c 0.0000,-0.3803 0.3202,-0.6405 0.6805 -0.6405c 0.4003,-0.0000 0.6605,0.3002 0.9007 0.6205c 0.3002,0.3603 0.6205,0.7606 1.2610 0.7606c 1.2810,-0.0000 2.3418,-1.2009 2.3418 -2.9422ZM 239.8383,86.3689 ZM 240.9991,77.5022 c 0.0000,-1.1409 1.1008,-2.7020 3.2024 -2.7020c 1.5412,-0.0000 3.3425,0.5804 3.3425 2.8822c 0.0000,1.5212 -0.7806,2.2817 -1.8614 3.3225l -1.9014,1.8414 c -0.1001,0.1001 -1.4411,1.4211 -1.4411 2.3618h 3.4026 c 0.6805,-0.0000 1.0408,-0.3403 1.3210 -1.4411l 0.5004,0.0801 l -0.4003,2.5219 h -6.1847 c 0.0000,-1.1208 0.1801,-1.9815 2.0415 -3.8829l 1.4011,-1.3810 c 1.1208,-1.1409 1.5812,-2.1216 1.5812 -3.3425c 0.0000,-1.8214 -1.2409,-2.3418 -1.9215 -2.3418c -1.3810,-0.0000 -1.7613,0.7205 -1.7613 1.2009c 0.0000,0.1601 0.0400,0.3202 0.0801 0.4603c 0.0400,0.1401 0.0801,0.2802 0.0801 0.4403c 0.0000,0.5204 -0.4003,0.7205 -0.7205 0.7205c -0.4403,-0.0000 -0.7606,-0.3403 -0.7606 -0.7406Z"/></g><g stroke-linejoin="miter" stroke-opacity="1.0" fill-opacity="1.0" stroke="rgb(0,0,0)" fill-rule="evenodd" stroke-width="0.0" fill="rgb(255,255,84)" stroke-linecap="butt" stroke-miterlimit="10.0"><path d="M 131.7865,75.4320 ZM 136.9504,68.3267 c 0.0000,-0.1401 0.0200,-0.3002 0.2002 -0.4003c 0.2202,-0.1601 0.5804,-0.3403 0.8807 -0.3403c 0.2602,-0.0000 0.2802,0.2202 0.2802 0.6205v 3.2224 h 1.6212 l -0.1201,0.9407 h -1.5011 v 1.6613 c 0.0000,0.5604 0.0801,0.8406 0.6605 0.8406h 0.5404 c 0.1201,-0.0000 0.1401,0.1001 0.1401 0.1401v 0.4403 c 0.0000,-0.0000 -1.2810,-0.0400 -2.1216 -0.0400c -0.7606,-0.0000 -1.9415,0.0400 -1.9415 0.0400v -0.4403 c 0.0000,-0.0400 0.0200,-0.1401 0.1401 -0.1401h 0.5404 c 0.6205,-0.0000 0.6805,-0.2602 0.6805 -0.8406v -1.6613 h -3.9230 c -0.0801,-0.0000 -0.1201,-0.0400 -0.1801 -0.1201l -0.1601,-0.2202 l -0.2402,-0.4203 c -0.0200,-0.0000 -0.0200,-0.0200 -0.0200 -0.0400c 0.0000,-0.0200 0.0200,-0.0400 0.0400 -0.0600c 1.3010,-1.4411 3.6027,-5.9045 4.3233 -7.5457c 0.0200,-0.0801 0.0600,-0.1001 0.1401 -0.1001c 0.0200,-0.0000 0.4603,0.1801 0.7005 0.2202c -0.9007,2.4218 -2.3818,5.0238 -3.8429 7.3456h 3.1624 v -3.1023 ZM 140.5532,75.4320 ZM 142.8749,70.1881 c -0.0200,0.2002 -0.0200,0.5004 -0.0200 0.7005c 0.0000,3.3625 1.5011,4.2032 2.5019 4.2032c 0.9207,-0.0000 1.9014,-0.8607 1.9014 -2.9422c 0.0000,-0.9407 -0.4804,-2.8622 -2.4018 -2.8622c -0.4203,-0.0000 -1.1809,0.0400 -1.9815 0.9007ZM 142.8749,70.1881 ZM 148.1189,64.3837 c -1.3010,0.1201 -2.4218,0.4603 -3.3826 1.4011c -0.9207,0.9007 -1.5812,2.2417 -1.8014 3.8429c 0.4603,-0.5604 1.5612,-0.9807 2.3218 -0.9807c 2.9622,-0.0000 3.3425,2.4418 3.3425 3.3625c 0.0000,1.3610 -0.6805,3.6628 -3.4426 3.6628c -1.4611,-0.0000 -3.6828,-0.8607 -3.6828 -4.8437c 0.0000,-1.8414 0.6205,-3.6428 2.0015 -5.0238c 1.2810,-1.3010 2.6220,-1.8414 4.5835 -1.9415ZM 149.3198,75.4320 ZM 155.7046,69.3474 c 0.0000,-0.2002 0.0200,-0.5004 0.0200 -0.7005c 0.0000,-3.3625 -1.5011,-4.2032 -2.5219 -4.2032c -0.9207,-0.0000 -1.8814,0.8607 -1.8814 2.9422c 0.0000,0.9607 0.4804,2.8622 2.3818 2.8622c 0.4203,-0.0000 1.1809,-0.0400 2.0015 -0.9007ZM 155.7046,69.3474 ZM 150.4406,75.1518 c 1.3210,-0.1201 2.4218,-0.4603 3.4026 -1.4011c 0.9007,-0.9007 1.5612,-2.2417 1.8014 -3.8429c -0.4603,0.5604 -1.5812,0.9807 -2.3218 0.9807c -2.9622,-0.0000 -3.3625,-2.4418 -3.3625 -3.3625c 0.0000,-1.3610 0.6805,-3.6628 3.4426 -3.6628c 1.4811,-0.0000 3.7028,0.8607 3.7028 4.8437c 0.0000,1.8414 -0.6405,3.6428 -2.0015 5.0238c -1.2810,1.3010 -2.6420,1.8414 -4.6035 1.9415Z"/></g></svg>