<?xml version="1.0" encoding="UTF-8"?>
<!DOCTYPE svg PUBLIC "-//W3C//DTD SVG 1.1//EN"
    "http://www.w3.org/Graphics/SVG/1.1/DTD/svg11.dtd"><svg xmlns="http://www.w3.org/2000/svg" height="100.0000" stroke-opacity="1" viewBox="0 0 300 100" font-size="1" width="300.0000" xmlns:xlink="http://www.w3.org/1999/xlink" stroke="rgb(0,0,0)" version="1.1"><defs></defs><g stroke-linejoin="miter" stroke-opacity="1.0" fill-opacity="0.2" stroke="rgb(102,102,102)" stroke-width="0.0" fill="rgb(76,76,76)" stroke-linecap="butt" stroke-miterlimit="10.0"><path d="M 300.0000,100.0000 l -0.0000,-2.4987 h -6.0000 l -0.0000,2.4987 Z"/></g><g stroke-linejoin="miter" stroke-opacity="1.0" fill-opacity="0.2" stroke="rgb(102,102,102)" stroke-width="0.0" fill="rgb(76,76,76)" stroke-linecap="butt" stroke-miterlimit="10.0"><path d="M 294.0000,100.0000 l -0.0000,-3.1765 h -6.0000 l -0.0000,3.1765 Z"/></g><g stroke-linejoin="miter" stroke-opacity="1.0" fill-opacity="0.2" stroke="rgb(102,102,102)" stroke-width="0.0" fill="rgb(76,76,76)" stroke-linecap="butt" stroke-miterlimit="10.0"><path d="M 288.0000,100.0000 l -0.0000,-3.9979 h -6.0000 l -0.0000,3.9979 Z"/></g><g stroke-linejoin="miter" stroke-opacity="1.0" fill-opacity="0.2" stroke="rgb(102,102,102)" stroke-width="0.0" fill="rgb(76,76,76)" stroke-linecap="butt" stroke-miterlimit="10.0"><path d="M 282.0000,100.0000 l -0.0000,-4.9817 h -6.0000 l -0.0000,4.9817 Z"/></g><g stroke-linejoin="miter" stroke-opacity="1.0" fill-opacity="0.2" stroke="rgb(102,102,102)" stroke-width="0.0" fill="rgb(76,76,76)" stroke-linecap="butt" stroke-miterlimit="10.0"><path d="M 276.0000,100.0000 l -0.0000,-6.1458 h -6.0000 l -0.0000,6.1458 Z"/></g><g stroke-linejoin="miter" stroke-opacity="1.0" fill-opacity="0.2" stroke="rgb(102,102,102)" stroke-width="0.0" fill="rgb(76,76,76)" stroke-linecap="butt" stroke-miterlimit="10.0"><path d="M 270.0000,100.0000 l -0.0000,-7.5065 h -6.0000 l -0.0000,7.5065 Z"/></g><g stroke-linejoin="miter" stroke-opacity="1.0" fill-opacity="0.2" stroke="rgb(102,102,102)" stroke-width="0.0" fill="rgb(76,76,76)" stroke-linecap="butt" stroke-miterlimit="10.0"><path d="M 264.0000,100.0000 l -0.0000,-9.0773 h -6.0000 l -0.0000,9.0773 Z"/></g><g stroke-linejoin="miter" stroke-opacity="1.0" fill-opacity="0.2" stroke="rgb(102,102,102)" stroke-width="0.0" fill="rgb(76,76,76)" stroke-linecap="butt" stroke-miterlimit="10.0"><path d="M 258.0000,100.0000 l -0.0000,-10.8675 h -6.0000 l -0.0000,10.8675 Z"/></g><g stroke-linejoin="miter" stroke-opacity="1.0" fill-opacity="0.2" stroke="rgb(102,102,102)" stroke-width="0.0" fill="rgb(76,76,76)" stroke-linecap="butt" stroke-miterlimit="10.0"><path d="M 252.0000,100.0000 l -0.0000,-12.8813 h -6.0000 l -0.0000,12.8813 Z"/></g><g stroke-linejoin="miter" stroke-opacity="1.0" fill-opacity="0.2" stroke="rgb(102,102,102)" stroke-width="0.0" fill="rgb(76,76,76)" stroke-linecap="butt" stroke-miterlimit="10.0"><path d="M 246.0000,100.0000 l -0.0000,-15.1163 h -6.0000 l -0.0000,15.1163 Z"/></g><g stroke-linejoin="miter" stroke-opacity="1.0" fill-opacity="0.2" stroke="rgb(102,102,102)" stroke-width="0.0" fill="rgb(76,76,76)" stroke-linecap="butt" stroke-miterlimit="10.0"><path d="M 240.0000,100.0000 l -0.0000,-17.5626 h -6.0000 l -0.0000,17.5626 Z"/></g><g stroke-linejoin="miter" stroke-opacity="1.0" fill-opacity="0.2" stroke="rgb(102,102,102)" stroke-width="0.0" fill="rgb(76,76,76)" stroke-linecap="butt" stroke-miterlimit="10.0"><path d="M 234.0000,100.0000 l -0.0000,-20.2018 h -6.0000 l -0.0000,20.2018 Z"/></g><g stroke-linejoin="miter" stroke-opacity="1.0" fill-opacity="0.2" stroke="rgb(102,102,102)" stroke-width="0.0" fill="rgb(76,76,76)" stroke-linecap="butt" stroke-miterlimit="10.0"><path d="M 228.0000,100.0000 l -0.0000,-23.0064 h -6.0000 l -0.0000,23.0064 Z"/></g><g stroke-linejoin="miter" stroke-opacity="1.0" fill-opacity="0.2" stroke="rgb(102,102,102)" stroke-width="0.0" fill="rgb(76,76,76)" stroke-linecap="butt" stroke-miterlimit="10.0"><path d="M 222.0000,100.0000 l -0.0000,-25.9397 h -6.0000 l -0.0000,25.9397 Z"/></g><g stroke-linejoin="miter" stroke-opacity="1.0" fill-opacity="0.2" stroke="rgb(102,102,102)" stroke-width="0.0" fill="rgb(76,76,76)" stroke-linecap="butt" stroke-miterlimit="10.0"><path d="M 216.0000,100.0000 l -0.0000,-28.9559 h -6.0000 l -0.0000,28.9559 Z"/></g><g stroke-linejoin="miter" stroke-opacity="1.0" fill-opacity="0.2" stroke="rgb(102,102,102)" stroke-width="0.0" fill="rgb(76,76,76)" stroke-linecap="butt" stroke-miterlimit="10.0"><path d="M 210.0000,100.0000 l -0.0000,-32.0012 h -6.0000 l -0.0000,32.0012 Z"/></g><g stroke-linejoin="miter" stroke-opacity="1.0" fill-opacity="0.2" stroke="rgb(102,102,102)" stroke-width="0.0" fill="rgb(76,76,76)" stroke-linecap="butt" stroke-miterlimit="10.0"><path d="M 204.0000,100.0000 l -0.0000,-35.0149 h -6.0000 l -0.0000,35.0149 Z"/></g><g stroke-linejoin="miter" stroke-opacity="1.0" fill-opacity="0.2" stroke="rgb(102,102,102)" stroke-width="0.0" fill="rgb(76,76,76)" stroke-linecap="butt" stroke-miterlimit="10.0"><path d="M 198.0000,100.0000 l -0.0000,-37.9312 h -6.0000 l -0.0000,37.9312 Z"/></g><g stroke-linejoin="miter" stroke-opacity="1.0" fill-opacity="0.2" stroke="rgb(102,102,102)" stroke-width="0.0" fill="rgb(76,76,76)" stroke-linecap="butt" stroke-miterlimit="10.0"><path d="M 192.0000,100.0000 l -0.0000,-40.6815 h -6.0000 l -0.0000,40.6815 Z"/></g><g stroke-linejoin="miter" stroke-opacity="1.0" fill-opacity="0.2" stroke="rgb(102,102,102)" stroke-width="0.0" fill="rgb(76,76,76)" stroke-linecap="butt" stroke-miterlimit="10.0"><path d="M 186.0000,100.0000 l -0.0000,-43.1971 h -6.0000 l -0.0000,43.1971 Z"/></g><g stroke-linejoin="miter" stroke-opacity="1.0" fill-opacity="0.2" stroke="rgb(102,102,102)" stroke-width="0.0" fill="rgb(76,76,76)" stroke-linecap="butt" stroke-miterlimit="10.0"><path d="M 180.0000,100.0000 l -0.0000,-45.4118 h -6.0000 l -0.0000,45.4118 Z"/></g><g stroke-linejoin="miter" stroke-opacity="1.0" fill-opacity="0.2" stroke="rgb(102,102,102)" stroke-width="0.0" fill="rgb(76,76,76)" stroke-linecap="butt" stroke-miterlimit="10.0"><path d="M 174.0000,100.0000 l -0.0000,-47.2651 h -6.0000 l -0.0000,47.2651 Z"/></g><g stroke-linejoin="miter" stroke-opacity="1.0" fill-opacity="0.2" stroke="rgb(102,102,102)" stroke-width="0.0" fill="rgb(76,76,76)" stroke-linecap="butt" stroke-miterlimit="10.0"><path d="M 168.0000,100.0000 l -0.0000,-48.7046 h -6.0000 l -0.0000,48.7046 Z"/></g><g stroke-linejoin="miter" stroke-opacity="1.0" fill-opacity="0.2" stroke="rgb(102,102,102)" stroke-width="0.0" fill="rgb(76,76,76)" stroke-linecap="butt" stroke-miterlimit="10.0"><path d="M 162.0000,100.0000 l -0.0000,-49.6885 h -6.0000 l -0.0000,49.6885 Z"/></g><g stroke-linejoin="miter" stroke-opacity="1.0" fill-opacity="0.2" stroke="rgb(102,102,102)" stroke-width="0.0" fill="rgb(76,76,76)" stroke-linecap="butt" stroke-miterlimit="10.0"><path d="M 156.0000,100.0000 l -0.0000,-50.1879 h -6.0000 l -0.0000,50.1879 Z"/></g><g stroke-linejoin="miter" stroke-opacity="1.0" fill-opacity="0.2" stroke="rgb(102,102,102)" stroke-width="0.0" fill="rgb(76,76,76)" stroke-linecap="butt" stroke-miterlimit="10.0"><path d="M 150.0000,100.0000 l -0.0000,-50.1879 h -6.0000 l -0.0000,50.1879 Z"/></g><g stroke-linejoin="miter" stroke-opacity="1.0" fill-opacity="0.2" stroke="rgb(102,102,102)" stroke-width="0.0" fill="rgb(76,76,76)" stroke-linecap="butt" stroke-miterlimit="10.0"><path d="M 144.0000,100.0000 l -0.0000,-49.6885 h -6.0000 l -0.0000,49.6885 Z"/></g><g stroke-linejoin="miter" stroke-opacity="1.0" fill-opacity="0.2" stroke="rgb(102,102,102)" stroke-width="0.0" fill="rgb(76,76,76)" stroke-linecap="butt" stroke-miterlimit="10.0"><path d="M 138.0000,100.0000 l -0.0000,-48.7046 h -6.0000 l -0.0000,48.7046 Z"/></g><g stroke-linejoin="miter" stroke-opacity="1.0" fill-opacity="0.2" stroke="rgb(102,102,102)" stroke-width="0.0" fill="rgb(76,76,76)" stroke-linecap="butt" stroke-miterlimit="10.0"><path d="M 132.0000,100.0000 l -0.0000,-47.2651 h -6.0000 l -0.0000,47.2651 Z"/></g><g stroke-linejoin="miter" stroke-opacity="1.0" fill-opacity="0.2" stroke="rgb(102,102,102)" stroke-width="0.0" fill="rgb(76,76,76)" stroke-linecap="butt" stroke-miterlimit="10.0"><path d="M 126.0000,100.0000 l -0.0000,-45.4118 h -6.0000 l -0.0000,45.4118 Z"/></g><g stroke-linejoin="miter" stroke-opacity="1.0" fill-opacity="0.2" stroke="rgb(102,102,102)" stroke-width="0.0" fill="rgb(76,76,76)" stroke-linecap="butt" stroke-miterlimit="10.0"><path d="M 120.0000,100.0000 l -0.0000,-43.1971 h -6.0000 l -0.0000,43.1971 Z"/></g><g stroke-linejoin="miter" stroke-opacity="1.0" fill-opacity="0.2" stroke="rgb(102,102,102)" stroke-width="0.0" fill="rgb(76,76,76)" stroke-linecap="butt" stroke-miterlimit="10.0"><path d="M 114.0000,100.0000 l -0.0000,-40.6815 h -6.0000 l -0.0000,40.6815 Z"/></g><g stroke-linejoin="miter" stroke-opacity="1.0" fill-opacity="0.2" stroke="rgb(102,102,102)" stroke-width="0.0" fill="rgb(76,76,76)" stroke-linecap="butt" stroke-miterlimit="10.0"><path d="M 108.0000,100.0000 l -0.0000,-37.9312 h -6.0000 l -0.0000,37.9312 Z"/></g><g stroke-linejoin="miter" stroke-opacity="1.0" fill-opacity="0.2" stroke="rgb(102,102,102)" stroke-width="0.0" fill="rgb(76,76,76)" stroke-linecap="butt" stroke-miterlimit="10.0"><path d="M 102.0000,100.0000 l -0.0000,-35.0149 h -6.0000 l -0.0000,35.0149 Z"/></g><g stroke-linejoin="miter" stroke-opacity="1.0" fill-opacity="0.2" stroke="rgb(102,102,102)" stroke-width="0.0" fill="rgb(76,76,76)" stroke-linecap="butt" stroke-miterlimit="10.0"><path d="M 96.0000,100.0000 l -0.0000,-32.0012 h -6.0000 l -0.0000,32.0012 Z"/></g><g stroke-linejoin="miter" stroke-opacity="1.0" fill-opacity="0.2" stroke="rgb(102,102,102)" stroke-width="0.0" fill="rgb(76,76,76)" stroke-linecap="butt" stroke-miterlimit="10.0"><path d="M 90.0000,100.0000 l -0.0000,-28.9559 h -6.0000 l -0.0000,28.9559 Z"/></g><g stroke-linejoin="miter" stroke-opacity="1.0" fill-opacity="0.2" stroke="rgb(102,102,102)" stroke-width="0.0" fill="rgb(76,76,76)" stroke-linecap="butt" stroke-miterlimit="10.0"><path d="M 84.0000,100.0000 l -0.0000,-25.9397 h -6.0000 l -0.0000,25.9397 Z"/></g><g stroke-linejoin="miter" stroke-opacity="1.0" fill-opacity="0.2" stroke="rgb(102,102,102)" stroke-width="0.0" fill="rgb(76,76,76)" stroke-linecap="butt" stroke-miterlimit="10.0"><path d="M 78.0000,100.0000 l -0.0000,-23.0064 h -6.0000 l -0.0000,23.0064 Z"/></g><g stroke-linejoin="miter" stroke-opacity="1.0" fill-opacity="0.2" stroke="rgb(102,102,102)" stroke-width="0.0" fill="rgb(76,76,76)" stroke-linecap="butt" stroke-miterlimit="10.0"><path d="M 72.0000,100.0000 l -0.0000,-20.2018 h -6.0000 l -0.0000,20.2018 Z"/></g><g stroke-linejoin="miter" stroke-opacity="1.0" fill-opacity="0.2" stroke="rgb(102,102,102)" stroke-width="0.0" fill="rgb(76,76,76)" stroke-linecap="butt" stroke-miterlimit="10.0"><path d="M 66.0000,100.0000 l -0.0000,-17.5626 h -6.0000 l -0.0000,17.5626 Z"/></g><g stroke-linejoin="miter" stroke-opacity="1.0" fill-opacity="0.2" stroke="rgb(102,102,102)" stroke-width="0.0" fill="rgb(76,76,76)" stroke-linecap="butt" stroke-miterlimit="10.0"><path d="M 60.0000,100.0000 l -0.0000,-15.1163 h -6.0000 l -0.0000,15.1163 Z"/></g><g stroke-linejoin="miter" stroke-opacity="1.0" fill-opacity="0.2" stroke="rgb(102,102,102)" stroke-width="0.0" fill="rgb(76,76,76)" stroke-linecap="butt" stroke-miterlimit="10.0"><path d="M 54.0000,100.0000 l -0.0000,-12.8813 h -6.0000 l -0.0000,12.8813 Z"/></g><g stroke-linejoin="miter" stroke-opacity="1.0" fill-opacity="0.2" stroke="rgb(102,102,102)" stroke-width="0.0" fill="rgb(76,76,76)" stroke-linecap="butt" stroke-miterlimit="10.0"><path d="M 48.0000,100.0000 l -0.0000,-10.8675 h -6.0000 l -0.0000,10.8675 Z"/></g><g stroke-linejoin="miter" stroke-opacity="1.0" fill-opacity="0.2" stroke="rgb(102,102,102)" stroke-width="0.0" fill="rgb(76,76,76)" stroke-linecap="butt" stroke-miterlimit="10.0"><path d="M 42.0000,100.0000 l -0.0000,-9.0773 h -6.0000 l -0.0000,9.0773 Z"/></g><g stroke-linejoin="miter" stroke-opacity="1.0" fill-opacity="0.2" stroke="rgb(102,102,102)" stroke-width="0.0" fill="rgb(76,76,76)" stroke-linecap="butt" stroke-miterlimit="10.0"><path d="M 36.0000,100.0000 l -0.0000,-7.5065 h -6.0000 l -0.0000,7.5065 Z"/></g><g stroke-linejoin="miter" stroke-opacity="1.0" fill-opacity="0.2" stroke="rgb(102,102,102)" stroke-width="0.0" fill="rgb(76,76,76)" stroke-linecap="butt" stroke-miterlimit="10.0"><path d="M 30.0000,100.0000 l -0.0000,-6.1458 h -6.0000 l -0.0000,6.1458 Z"/></g><g stroke-linejoin="miter" stroke-opacity="1.0" fill-opacity="0.2" stroke="rgb(102,102,102)" stroke-width="0.0" fill="rgb(76,76,76)" stroke-linecap="butt" stroke-miterlimit="10.0"><path d="M 24.0000,100.0000 l -0.0000,-4.9817 h -6.0000 l -0.0000,4.9817 Z"/></g><g stroke-linejoin="miter" stroke-opacity="1.0" fill-opacity="0.2" stroke="rgb(102,102,102)" stroke-width="0.0" fill="rgb(76,76,76)" stroke-linecap="butt" stroke-miterlimit="10.0"><path d="M 18.0000,100.0000 l -0.0000,-3.9979 h -6.0000 l -0.0000,3.9979 Z"/></g><g stroke-linejoin="miter" stroke-opacity="1.0" fill-opacity="0.2" stroke="rgb(102,102,102)" stroke-width="0.0" fill="rgb(76,76,76)" stroke-linecap="butt" stroke-miterlimit="10.0"><path d="M 12.0000,100.0000 l -0.0000,-3.1765 h -6.0000 l -0.0000,3.1765 Z"/></g><g stroke-linejoin="miter" stroke-opacity="1.0" fill-opacity="0.2" stroke="rgb(102,102,102)" stroke-width="0.0" fill="rgb(76,76,76)" stroke-linecap="butt" stroke-miterlimit="10.0"><path d="M 6.0000,100.0000 l -0.0000,-2.4987 h -6.0000 l -0.0000,2.4987 Z"/></g><g stroke-linejoin="miter" stroke-opacity="1.0" fill-opacity="0.5" stroke="rgb(102,102,102)" stroke-width="0.0" fill="rgb(93,165,218)" stroke-linecap="butt" stroke-miterlimit="10.0"><path d="M 300.0000,100.0000 l -0.0000,-0.0006 h -6.0000 l -0.0000,0.0006 Z"/></g><g stroke-linejoin="miter" stroke-opacity="1.0" fill-opacity="0.5" stroke="rgb(102,102,102)" stroke-width="0.0" fill="rgb(93,165,218)" stroke-linecap="butt" stroke-miterlimit="10.0"><path d="M 294.0000,100.0000 l -0.0000,-0.0016 h -6.0000 l -0.0000,0.0016 Z"/></g><g stroke-linejoin="miter" stroke-opacity="1.0" fill-opacity="0.5" stroke="rgb(102,102,102)" stroke-width="0.0" fill="rgb(93,165,218)" stroke-linecap="butt" stroke-miterlimit="10.0"><path d="M 288.0000,100.0000 l -0.0000,-0.0040 h -6.0000 l -0.0000,0.0040 Z"/></g><g stroke-linejoin="miter" stroke-opacity="1.0" fill-opacity="0.5" stroke="rgb(102,102,102)" stroke-width="0.0" fill="rgb(93,165,218)" stroke-linecap="butt" stroke-miterlimit="10.0"><path d="M 282.0000,100.0000 l -0.0000,-0.0097 h -6.0000 l -0.0000,0.0097 Z"/></g><g stroke-linejoin="miter" stroke-opacity="1.0" fill-opacity="0.5" stroke="rgb(102,102,102)" stroke-width="0.0" fill="rgb(93,165,218)" stroke-linecap="butt" stroke-miterlimit="10.0"><path d="M 276.0000,100.0000 l -0.0000,-0.0225 h -6.0000 l -0.0000,0.0225 Z"/></g><g stroke-linejoin="miter" stroke-opacity="1.0" fill-opacity="0.5" stroke="rgb(102,102,102)" stroke-width="0.0" fill="rgb(93,165,218)" stroke-linecap="butt" stroke-miterlimit="10.0"><path d="M 270.0000,100.0000 l -0.0000,-0.0500 h -6.0000 l -0.0000,0.0500 Z"/></g><g stroke-linejoin="miter" stroke-opacity="1.0" fill-opacity="0.5" stroke="rgb(102,102,102)" stroke-width="0.0" fill="rgb(93,165,218)" stroke-linecap="butt" stroke-miterlimit="10.0"><path d="M 264.0000,100.0000 l -0.0000,-0.1070 h -6.0000 l -0.0000,0.1070 Z"/></g><g stroke-linejoin="miter" stroke-opacity="1.0" fill-opacity="0.5" stroke="rgb(102,102,102)" stroke-width="0.0" fill="rgb(93,165,218)" stroke-linecap="butt" stroke-miterlimit="10.0"><path d="M 258.0000,100.0000 l -0.0000,-0.2198 h -6.0000 l -0.0000,0.2198 Z"/></g><g stroke-linejoin="miter" stroke-opacity="1.0" fill-opacity="0.5" stroke="rgb(102,102,102)" stroke-width="0.0" fill="rgb(93,165,218)" stroke-linecap="butt" stroke-miterlimit="10.0"><path d="M 252.0000,100.0000 l -0.0000,-0.4339 h -6.0000 l -0.0000,0.4339 Z"/></g><g stroke-linejoin="miter" stroke-opacity="1.0" fill-opacity="0.5" stroke="rgb(102,102,102)" stroke-width="0.0" fill="rgb(93,165,218)" stroke-linecap="butt" stroke-miterlimit="10.0"><path d="M 246.0000,100.0000 l -0.0000,-0.8230 h -6.0000 l -0.0000,0.8230 Z"/></g><g stroke-linejoin="miter" stroke-opacity="1.0" fill-opacity="0.5" stroke="rgb(102,102,102)" stroke-width="0.0" fill="rgb(93,165,218)" stroke-linecap="butt" stroke-miterlimit="10.0"><path d="M 240.0000,100.0000 l -0.0000,-1.4996 h -6.0000 l -0.0000,1.4996 Z"/></g><g stroke-linejoin="miter" stroke-opacity="1.0" fill-opacity="0.5" stroke="rgb(102,102,102)" stroke-width="0.0" fill="rgb(93,165,218)" stroke-linecap="butt" stroke-miterlimit="10.0"><path d="M 234.0000,100.0000 l -0.0000,-2.6252 h -6.0000 l -0.0000,2.6252 Z"/></g><g stroke-linejoin="miter" stroke-opacity="1.0" fill-opacity="0.5" stroke="rgb(102,102,102)" stroke-width="0.0" fill="rgb(93,165,218)" stroke-linecap="butt" stroke-miterlimit="10.0"><path d="M 228.0000,100.0000 l -0.0000,-4.4157 h -6.0000 l -0.0000,4.4157 Z"/></g><g stroke-linejoin="miter" stroke-opacity="1.0" fill-opacity="0.5" stroke="rgb(102,102,102)" stroke-width="0.0" fill="rgb(93,165,218)" stroke-linecap="butt" stroke-miterlimit="10.0"><path d="M 222.0000,100.0000 l -0.0000,-7.1361 h -6.0000 l -0.0000,7.1361 Z"/></g><g stroke-linejoin="miter" stroke-opacity="1.0" fill-opacity="0.5" stroke="rgb(102,102,102)" stroke-width="0.0" fill="rgb(93,165,218)" stroke-linecap="butt" stroke-miterlimit="10.0"><path d="M 216.0000,100.0000 l -0.0000,-11.0803 h -6.0000 l -0.0000,11.0803 Z"/></g><g stroke-linejoin="miter" stroke-opacity="1.0" fill-opacity="0.5" stroke="rgb(102,102,102)" stroke-width="0.0" fill="rgb(93,165,218)" stroke-linecap="butt" stroke-miterlimit="10.0"><path d="M 210.0000,100.0000 l -0.0000,-16.5299 h -6.0000 l -0.0000,16.5299 Z"/></g><g stroke-linejoin="miter" stroke-opacity="1.0" fill-opacity="0.5" stroke="rgb(102,102,102)" stroke-width="0.0" fill="rgb(93,165,218)" stroke-linecap="butt" stroke-miterlimit="10.0"><path d="M 204.0000,100.0000 l -0.0000,-23.6928 h -6.0000 l -0.0000,23.6928 Z"/></g><g stroke-linejoin="miter" stroke-opacity="1.0" fill-opacity="0.5" stroke="rgb(102,102,102)" stroke-width="0.0" fill="rgb(93,165,218)" stroke-linecap="butt" stroke-miterlimit="10.0"><path d="M 198.0000,100.0000 l -0.0000,-32.6280 h -6.0000 l -0.0000,32.6280 Z"/></g><g stroke-linejoin="miter" stroke-opacity="1.0" fill-opacity="0.5" stroke="rgb(102,102,102)" stroke-width="0.0" fill="rgb(93,165,218)" stroke-linecap="butt" stroke-miterlimit="10.0"><path d="M 192.0000,100.0000 l -0.0000,-43.1711 h -6.0000 l -0.0000,43.1711 Z"/></g><g stroke-linejoin="miter" stroke-opacity="1.0" fill-opacity="0.5" stroke="rgb(102,102,102)" stroke-width="0.0" fill="rgb(93,165,218)" stroke-linecap="butt" stroke-miterlimit="10.0"><path d="M 186.0000,100.0000 l -0.0000,-54.8812 h -6.0000 l -0.0000,54.8812 Z"/></g><g stroke-linejoin="miter" stroke-opacity="1.0" fill-opacity="0.5" stroke="rgb(102,102,102)" stroke-width="0.0" fill="rgb(93,165,218)" stroke-linecap="butt" stroke-miterlimit="10.0"><path d="M 180.0000,100.0000 l -0.0000,-67.0320 h -6.0000 l -0.0000,67.0320 Z"/></g><g stroke-linejoin="miter" stroke-opacity="1.0" fill-opacity="0.5" stroke="rgb(102,102,102)" stroke-width="0.0" fill="rgb(93,165,218)" stroke-linecap="butt" stroke-miterlimit="10.0"><path d="M 174.0000,100.0000 l -0.0000,-78.6628 h -6.0000 l -0.0000,78.6628 Z"/></g><g stroke-linejoin="miter" stroke-opacity="1.0" fill-opacity="0.5" stroke="rgb(102,102,102)" stroke-width="0.0" fill="rgb(93,165,218)" stroke-linecap="butt" stroke-miterlimit="10.0"><path d="M 168.0000,100.0000 l -0.0000,-88.6920 h -6.0000 l -0.0000,88.6920 Z"/></g><g stroke-linejoin="miter" stroke-opacity="1.0" fill-opacity="0.5" stroke="rgb(102,102,102)" stroke-width="0.0" fill="rgb(93,165,218)" stroke-linecap="butt" stroke-miterlimit="10.0"><path d="M 162.0000,100.0000 l -0.0000,-96.0789 h -6.0000 l -0.0000,96.0789 Z"/></g><g stroke-linejoin="miter" stroke-opacity="1.0" fill-opacity="0.5" stroke="rgb(102,102,102)" stroke-width="0.0" fill="rgb(93,165,218)" stroke-linecap="butt" stroke-miterlimit="10.0"><path d="M 156.0000,100.0000 l -0.0000,-100.0000 h -6.0000 l -0.0000,100.0000 Z"/></g><g stroke-linejoin="miter" stroke-opacity="1.0" fill-opacity="0.5" stroke="rgb(102,102,102)" stroke-width="0.0" fill="rgb(93,165,218)" stroke-linecap="butt" stroke-miterlimit="10.0"><path d="M 150.0000,100.0000 l -0.0000,-100.0000 h -6.0000 l -0.0000,100.0000 Z"/></g><g stroke-linejoin="miter" stroke-opacity="1.0" fill-opacity="0.5" stroke="rgb(102,102,102)" stroke-width="0.0" fill="rgb(93,165,218)" stroke-linecap="butt" stroke-miterlimit="10.0"><path d="M 144.0000,100.0000 l -0.0000,-96.0789 h -6.0000 l -0.0000,96.0789 Z"/></g><g stroke-linejoin="miter" stroke-opacity="1.0" fill-opacity="0.5" stroke="rgb(102,102,102)" stroke-width="0.0" fill="rgb(93,165,218)" stroke-linecap="butt" stroke-miterlimit="10.0"><path d="M 138.0000,100.0000 l -0.0000,-88.6920 h -6.0000 l -0.0000,88.6920 Z"/></g><g stroke-linejoin="miter" stroke-opacity="1.0" fill-opacity="0.5" stroke="rgb(102,102,102)" stroke-width="0.0" fill="rgb(93,165,218)" stroke-linecap="butt" stroke-miterlimit="10.0"><path d="M 132.0000,100.0000 l -0.0000,-78.6628 h -6.0000 l -0.0000,78.6628 Z"/></g><g stroke-linejoin="miter" stroke-opacity="1.0" fill-opacity="0.5" stroke="rgb(102,102,102)" stroke-width="0.0" fill="rgb(93,165,218)" stroke-linecap="butt" stroke-miterlimit="10.0"><path d="M 126.0000,100.0000 l -0.0000,-67.0320 h -6.0000 l -0.0000,67.0320 Z"/></g><g stroke-linejoin="miter" stroke-opacity="1.0" fill-opacity="0.5" stroke="rgb(102,102,102)" stroke-width="0.0" fill="rgb(93,165,218)" stroke-linecap="butt" stroke-miterlimit="10.0"><path d="M 120.0000,100.0000 l -0.0000,-54.8812 h -6.0000 l -0.0000,54.8812 Z"/></g><g stroke-linejoin="miter" stroke-opacity="1.0" fill-opacity="0.5" stroke="rgb(102,102,102)" stroke-width="0.0" fill="rgb(93,165,218)" stroke-linecap="butt" stroke-miterlimit="10.0"><path d="M 114.0000,100.0000 l -0.0000,-43.1711 h -6.0000 l -0.0000,43.1711 Z"/></g><g stroke-linejoin="miter" stroke-opacity="1.0" fill-opacity="0.5" stroke="rgb(102,102,102)" stroke-width="0.0" fill="rgb(93,165,218)" stroke-linecap="butt" stroke-miterlimit="10.0"><path d="M 108.0000,100.0000 l -0.0000,-32.6280 h -6.0000 l -0.0000,32.6280 Z"/></g><g stroke-linejoin="miter" stroke-opacity="1.0" fill-opacity="0.5" stroke="rgb(102,102,102)" stroke-width="0.0" fill="rgb(93,165,218)" stroke-linecap="butt" stroke-miterlimit="10.0"><path d="M 102.0000,100.0000 l -0.0000,-23.6928 h -6.0000 l -0.0000,23.6928 Z"/></g><g stroke-linejoin="miter" stroke-opacity="1.0" fill-opacity="0.5" stroke="rgb(102,102,102)" stroke-width="0.0" fill="rgb(93,165,218)" stroke-linecap="butt" stroke-miterlimit="10.0"><path d="M 96.0000,100.0000 l -0.0000,-16.5299 h -6.0000 l -0.0000,16.5299 Z"/></g><g stroke-linejoin="miter" stroke-opacity="1.0" fill-opacity="0.5" stroke="rgb(102,102,102)" stroke-width="0.0" fill="rgb(93,165,218)" stroke-linecap="butt" stroke-miterlimit="10.0"><path d="M 90.0000,100.0000 l -0.0000,-11.0803 h -6.0000 l -0.0000,11.0803 Z"/></g><g stroke-linejoin="miter" stroke-opacity="1.0" fill-opacity="0.5" stroke="rgb(102,102,102)" stroke-width="0.0" fill="rgb(93,165,218)" stroke-linecap="butt" stroke-miterlimit="10.0"><path d="M 84.0000,100.0000 l -0.0000,-7.1361 h -6.0000 l -0.0000,7.1361 Z"/></g><g stroke-linejoin="miter" stroke-opacity="1.0" fill-opacity="0.5" stroke="rgb(102,102,102)" stroke-width="0.0" fill="rgb(93,165,218)" stroke-linecap="butt" stroke-miterlimit="10.0"><path d="M 78.0000,100.0000 l -0.0000,-4.4157 h -6.0000 l -0.0000,4.4157 Z"/></g><g stroke-linejoin="miter" stroke-opacity="1.0" fill-opacity="0.5" stroke="rgb(102,102,102)" stroke-width="0.0" fill="rgb(93,165,218)" stroke-linecap="butt" stroke-miterlimit="10.0"><path d="M 72.0000,100.0000 l -0.0000,-2.6252 h -6.0000 l -0.0000,2.6252 Z"/></g><g stroke-linejoin="miter" stroke-opacity="1.0" fill-opacity="0.5" stroke="rgb(102,102,102)" stroke-width="0.0" fill="rgb(93,165,218)" stroke-linecap="butt" stroke-miterlimit="10.0"><path d="M 66.0000,100.0000 l -0.0000,-1.4996 h -6.0000 l -0.0000,1.4996 Z"/></g><g stroke-linejoin="miter" stroke-opacity="1.0" fill-opacity="0.5" stroke="rgb(102,102,102)" stroke-width="0.0" fill="rgb(93,165,218)" stroke-linecap="butt" stroke-miterlimit="10.0"><path d="M 60.0000,100.0000 l -0.0000,-0.8230 h -6.0000 l -0.0000,0.8230 Z"/></g><g stroke-linejoin="miter" stroke-opacity="1.0" fill-opacity="0.5" stroke="rgb(102,102,102)" stroke-width="0.0" fill="rgb(93,165,218)" stroke-linecap="butt" stroke-miterlimit="10.0"><path d="M 54.0000,100.0000 l -0.0000,-0.4339 h -6.0000 l -0.0000,0.4339 Z"/></g><g stroke-linejoin="miter" stroke-opacity="1.0" fill-opacity="0.5" stroke="rgb(102,102,102)" stroke-width="0.0" fill="rgb(93,165,218)" stroke-linecap="butt" stroke-miterlimit="10.0"><path d="M 48.0000,100.0000 l -0.0000,-0.2198 h -6.0000 l -0.0000,0.2198 Z"/></g><g stroke-linejoin="miter" stroke-opacity="1.0" fill-opacity="0.5" stroke="rgb(102,102,102)" stroke-width="0.0" fill="rgb(93,165,218)" stroke-linecap="butt" stroke-miterlimit="10.0"><path d="M 42.0000,100.0000 l -0.0000,-0.1070 h -6.0000 l -0.0000,0.1070 Z"/></g><g stroke-linejoin="miter" stroke-opacity="1.0" fill-opacity="0.5" stroke="rgb(102,102,102)" stroke-width="0.0" fill="rgb(93,165,218)" stroke-linecap="butt" stroke-miterlimit="10.0"><path d="M 36.0000,100.0000 l -0.0000,-0.0500 h -6.0000 l -0.0000,0.0500 Z"/></g><g stroke-linejoin="miter" stroke-opacity="1.0" fill-opacity="0.5" stroke="rgb(102,102,102)" stroke-width="0.0" fill="rgb(93,165,218)" stroke-linecap="butt" stroke-miterlimit="10.0"><path d="M 30.0000,100.0000 l -0.0000,-0.0225 h -6.0000 l -0.0000,0.0225 Z"/></g><g stroke-linejoin="miter" stroke-opacity="1.0" fill-opacity="0.5" stroke="rgb(102,102,102)" stroke-width="0.0" fill="rgb(93,165,218)" stroke-linecap="butt" stroke-miterlimit="10.0"><path d="M 24.0000,100.0000 l -0.0000,-0.0097 h -6.0000 l -0.0000,0.0097 Z"/></g><g stroke-linejoin="miter" stroke-opacity="1.0" fill-opacity="0.5" stroke="rgb(102,102,102)" stroke-width="0.0" fill="rgb(93,165,218)" stroke-linecap="butt" stroke-miterlimit="10.0"><path d="M 18.0000,100.0000 l -0.0000,-0.0040 h -6.0000 l -0.0000,0.0040 Z"/></g><g stroke-linejoin="miter" stroke-opacity="1.0" fill-opacity="0.5" stroke="rgb(102,102,102)" stroke-width="0.0" fill="rgb(93,165,218)" stroke-linecap="butt" stroke-miterlimit="10.0"><path d="M 12.0000,100.0000 l -0.0000,-0.0016 h -6.0000 l -0.0000,0.0016 Z"/></g><g stroke-linejoin="miter" stroke-opacity="1.0" fill-opacity="0.5" stroke="rgb(102,102,102)" stroke-width="0.0" fill="rgb(93,165,218)" stroke-linecap="butt" stroke-miterlimit="10.0"><path d="M 6.0000,100.0000 l -0.0000,-0.0006 h -6.0000 l -0.0000,0.0006 Z"/></g></svg>