<?xml version="1.0" encoding="UTF-8"?>
<!DOCTYPE svg PUBLIC "-//W3C//DTD SVG 1.1//EN"
    "http://www.w3.org/Graphics/SVG/1.1/DTD/svg11.dtd">
<svg xmlns="http://www.w3.org/2000/svg" height="200.0000" stroke-opacity="1" viewBox="0 0 300 200" font-size="1" width="300.0000" xmlns:xlink="http://www.w3.org/1999/xlink" stroke="rgb(0,0,0)" version="1.1">
  <defs>
  </defs>
  <g stroke-linejoin="miter" stroke-opacity="1.0" fill-opacity="0.8" stroke="rgb(0,0,0)" fill-rule="evenodd" stroke-width="0.0" fill="rgb(0,0,0)" stroke-linecap="butt" stroke-miterlimit="10.0">
    <path d="M 265.3188,42.1500 ZM 267.9943,31.2964 h 4.9472 c 0.7320,-0.0000 1.6154,-0.1262 1.6912 -0.1262c 0.1767,-0.0000 0.3281,0.0505 0.3281 0.1514c 0.0000,0.1010 -0.1262,0.4039 -0.5553 1.0601l -5.9569,8.7839 h 3.2561 c 1.4892,-0.0000 1.8931,-0.5553 2.4989 -1.8931l 0.3281,-0.7320 l 0.6815,0.1767 c -0.4291,1.4640 -0.7067,2.6503 -0.8330 3.4328h -7.6480 c -0.3786,-0.0000 -0.5805,-0.1262 -0.5805 -0.3029c 0.0000,-0.1262 0.0252,-0.2019 0.2272 -0.5048l 6.1336,-9.0615 h -3.4075 c -0.7572,-0.0000 -1.6154,0.4291 -2.1202 2.2717l -0.6563,-0.0757 c 0.2019,-1.2368 0.3534,-2.3474 0.3786 -3.4833h 0.6310 c 0.0505,0.1514 0.2777,0.3029 0.6563 0.3029ZM 275.6929,42.1500 ZM 278.3179,39.7521 c 1.0096,-0.0000 1.6659,0.9844 1.6659 2.4989c 0.0000,1.7669 -1.2621,2.5998 -2.7765 2.8775l -0.1262,-0.6310 c 1.3125,-0.3281 1.9183,-1.0854 1.9183 -1.6154c 0.0000,-0.5805 -0.4291,-0.6815 -0.9087 -0.7320c -0.4543,-0.0757 -1.1106,-0.2777 -1.1106 -1.1106c 0.0000,-0.7067 0.5553,-1.2873 1.3378 -1.2873ZM 281.2207,42.1500 ZM 286.3193,31.8012 c 0.0000,0.1262 -0.1010,0.2019 -0.2272 0.2019h -0.3786 c -0.5553,-0.0000 -0.7320,0.1514 -0.7320 0.4039c 0.0000,0.1767 0.1010,0.4039 0.2272 0.7572l 2.6503,6.6636 l 2.1960,-5.4773 l -0.4543,-1.1358 c -0.3281,-0.8582 -0.8582,-1.2116 -1.6154 -1.2116c -0.1262,-0.0000 -0.2524,-0.0505 -0.2524 -0.1767v -0.5048 l 0.0505,-0.0505 c 0.0000,-0.0000 1.4135,0.0505 2.2969 0.0505l 2.5241,-0.0505 l 0.0757,0.0505 v 0.4796 c 0.0000,0.1262 -0.1262,0.2019 -0.2524 0.2019h -0.4543 c -0.5048,-0.0000 -0.7320,0.1010 -0.7320 0.3534c 0.0000,0.2019 0.1010,0.4543 0.2524 0.8077l 2.6251,6.6636 l 2.6251,-6.5374 c 0.0757,-0.1514 0.1262,-0.3534 0.1262 -0.5553c 0.0000,-0.4291 -0.2777,-0.7320 -1.1358 -0.7320h -0.3786 c -0.1262,-0.0000 -0.2272,-0.1010 -0.2272 -0.1767v -0.5048 l 0.0757,-0.0505 c 0.0000,-0.0000 1.6659,0.0505 2.5998 0.0505c 0.8582,-0.0000 1.8678,-0.0505 1.8678 -0.0505l 0.0252,0.0505 v 0.4796 c 0.0000,0.1514 -0.1514,0.2019 -0.3029 0.2019c -0.6310,-0.0000 -1.2873,0.2777 -1.7416 1.3883l -3.4328,8.5315 c -0.1514,0.3786 -0.3534,0.5301 -0.5805 0.5301c -0.2524,-0.0000 -0.4543,-0.1514 -0.6058 -0.5048l -2.5241,-6.3103 l -2.5241,6.2598 c -0.1767,0.4039 -0.3786,0.5553 -0.6058 0.5553c -0.2524,-0.0000 -0.4543,-0.1514 -0.6058 -0.5048l -3.4580,-8.7334 c -0.3786,-0.9844 -0.8330,-1.2116 -1.5902 -1.2116c -0.1262,-0.0000 -0.3029,-0.0505 -0.3029 -0.1767v -0.5048 l 0.0505,-0.0505 c 0.0000,-0.0000 1.1863,0.0505 2.2969 0.0505c 1.1611,-0.0000 2.4989,-0.0505 2.4989 -0.0505l 0.0505,0.0757 v 0.4543 Z"/>
  </g>
  <g stroke-linejoin="miter" stroke-opacity="1.0" fill-opacity="0.8" stroke="rgb(0,0,0)" fill-rule="evenodd" stroke-width="0.0" fill="rgb(0,0,0)" stroke-linecap="butt" stroke-miterlimit="10.0">
    <path d="M 265.6999,172.5403 ZM 268.3755,161.6866 h 4.9472 c 0.7320,-0.0000 1.6154,-0.1262 1.6912 -0.1262c 0.1767,-0.0000 0.3281,0.0505 0.3281 0.1514c 0.0000,0.1010 -0.1262,0.4039 -0.5553 1.0601l -5.9569,8.7839 h 3.2561 c 1.4892,-0.0000 1.8931,-0.5553 2.4989 -1.8931l 0.3281,-0.7320 l 0.6815,0.1767 c -0.4291,1.4640 -0.7067,2.6503 -0.8330 3.4328h -7.6480 c -0.3786,-0.0000 -0.5805,-0.1262 -0.5805 -0.3029c 0.0000,-0.1262 0.0252,-0.2019 0.2272 -0.5048l 6.1336,-9.0615 h -3.4075 c -0.7572,-0.0000 -1.6154,0.4291 -2.1202 2.2717l -0.6563,-0.0757 c 0.2019,-1.2368 0.3534,-2.3474 0.3786 -3.4833h 0.6310 c 0.0505,0.1514 0.2777,0.3029 0.6563 0.3029ZM 276.0740,172.5403 ZM 278.6991,170.1424 c 1.0096,-0.0000 1.6659,0.9844 1.6659 2.4989c 0.0000,1.7669 -1.2621,2.5998 -2.7765 2.8775l -0.1262,-0.6310 c 1.3125,-0.3281 1.9183,-1.0854 1.9183 -1.6154c 0.0000,-0.5805 -0.4291,-0.6815 -0.9087 -0.7320c -0.4543,-0.0757 -1.1106,-0.2777 -1.1106 -1.1106c 0.0000,-0.7067 0.5553,-1.2873 1.3378 -1.2873ZM 281.6018,172.5403 ZM 286.8519,162.1914 c 0.0000,0.1262 -0.1514,0.2019 -0.2777 0.2019c -0.7572,-0.0000 -1.0854,0.1514 -1.0854 0.5553c 0.0000,0.1514 0.0505,0.3534 0.1514 0.5805l 2.7765,6.5122 l 2.8018,-6.4112 c 0.1262,-0.2272 0.1767,-0.4291 0.1767 -0.5805c 0.0000,-0.5301 -0.5048,-0.6563 -1.0601 -0.6563h -0.1010 c -0.1262,-0.0000 -0.2524,-0.1010 -0.2524 -0.1767v -0.4796 l 0.0505,-0.0757 c 0.0000,-0.0000 1.4892,0.0505 2.3727 0.0505c 0.7067,-0.0000 1.7416,-0.0505 1.7416 -0.0505l 0.0757,0.0505 v 0.4796 c 0.0000,0.1262 -0.1010,0.2019 -0.2777 0.2019c -0.9592,-0.0000 -1.4387,0.9844 -1.7921 1.7164c -1.3378,2.8270 -2.4484,5.4268 -4.4677 10.2983c -0.7572,1.8174 -1.6659,3.9376 -3.4580 3.9376c -0.4796,-0.0000 -1.4640,-0.2777 -1.4640 -1.1863c 0.0000,-0.7572 0.5553,-0.9844 0.9592 -0.9844c 0.3786,-0.0000 0.6310,0.1514 0.7825 0.3534c 0.2524,0.2524 0.4291,0.4291 0.6815 0.4291c 0.3786,-0.0000 1.2621,-2.1707 1.8931 -3.7104c 0.1514,-0.3029 0.2019,-0.5553 0.2019 -0.7825c 0.0000,-0.2524 -0.2272,-0.9339 -0.4291 -1.4387l -3.1804,-7.3956 c -0.4039,-0.9592 -0.6815,-1.2368 -1.5397 -1.2368c -0.1514,-0.0000 -0.2524,-0.0757 -0.2524 -0.1767v -0.5048 l 0.0505,-0.0505 c 0.0000,-0.0000 1.1106,0.0505 1.8678 0.0505c 1.1863,-0.0000 3.0037,-0.0505 3.0037 -0.0505l 0.0505,0.0757 v 0.4543 Z"/>
  </g>
  <g stroke-linejoin="miter" stroke-opacity="1.0" fill-opacity="0.8" stroke="rgb(0,0,0)" fill-rule="evenodd" stroke-width="0.0" fill="rgb(0,0,0)" stroke-linecap="butt" stroke-miterlimit="10.0">
    <path d="M -0.0000,41.7159 ZM 4.9725,31.5690 c -0.5048,-0.0000 -0.6058,0.1262 -0.6058 0.3029c 0.0000,0.1262 0.1010,0.3534 0.3786 0.8077l 1.5397,2.2717 c 0.0757,0.1514 0.1514,0.2272 0.2524 0.2272c 0.0757,-0.0000 0.1262,-0.0505 0.2272 -0.1767l 1.6407,-2.2969 c 0.2777,-0.3534 0.4291,-0.6310 0.4291 -0.8330c 0.0000,-0.2019 -0.1767,-0.3029 -0.5301 -0.3029h -0.4039 c -0.0757,-0.0000 -0.1514,-0.0505 -0.1514 -0.1767v -0.4796 l 0.0757,-0.0757 c 0.0000,-0.0000 1.1863,0.0505 1.9688 0.0505c 0.8077,-0.0000 2.0445,-0.0505 2.0445 -0.0505l 0.0252,0.0505 v 0.4796 c 0.0000,0.1767 -0.1514,0.2019 -0.3029 0.2019c -0.9339,-0.0000 -1.3125,0.3029 -2.2465 1.4892l -2.1202,2.7008 c -0.0505,0.0757 -0.0757,0.1262 -0.0757 0.1767c 0.0000,0.0505 0.0252,0.1262 0.0757 0.2019l 2.2717,3.2056 c 1.1611,1.6407 1.4892,1.6659 2.2969 1.6659c 0.2524,-0.0000 0.3534,0.0505 0.3534 0.2019v 0.4796 l -0.0252,0.0505 c 0.0000,-0.0000 -1.3630,-0.0505 -2.2212 -0.0505c -1.0349,-0.0000 -2.6251,0.0505 -2.6251 0.0505l -0.0505,-0.0505 v -0.4796 c 0.0000,-0.1262 0.0505,-0.2019 0.1767 -0.2019h 0.3029 c 0.4039,-0.0000 0.5805,-0.0757 0.5805 -0.2777c 0.0000,-0.2272 -0.2777,-0.6058 -0.6815 -1.1358l -1.4640,-2.0193 c -0.1010,-0.1262 -0.1514,-0.1767 -0.2272 -0.1767c -0.0505,-0.0000 -0.1262,0.0757 -0.2272 0.2272l -1.5902,2.2969 c -0.3786,0.5048 -0.4543,0.6310 -0.4543 0.8077c 0.0000,0.1767 0.1514,0.2777 0.5301 0.2777h 0.3534 c 0.1262,-0.0000 0.1767,0.0757 0.1767 0.2019v 0.4796 l -0.0505,0.0505 c 0.0000,-0.0000 -1.3125,-0.0505 -2.1202 -0.0505c -0.7320,-0.0000 -1.8931,0.0505 -1.8931 0.0505l -0.0505,-0.0505 v -0.4291 c 0.0000,-0.1514 0.1010,-0.2524 0.3281 -0.2524c 0.6058,-0.0000 1.1863,-0.1262 2.2465 -1.4892l 2.1202,-2.7260 c 0.0252,-0.0505 0.0505,-0.1010 0.0505 -0.1767c 0.0000,-0.0757 -0.0252,-0.1262 -0.0757 -0.2019l -2.1960,-3.2056 c -0.7067,-1.0349 -1.1611,-1.6407 -2.0445 -1.6407c -0.1767,-0.0000 -0.3534,-0.0757 -0.3534 -0.1767v -0.4796 l 0.0505,-0.0757 l 1.9940,0.0505 l 2.8018,-0.0505 l 0.0757,0.0757 v 0.4543 c 0.0000,0.1262 -0.1010,0.2019 -0.2019 0.2019h -0.3786 ZM 12.5448,41.7159 ZM 15.1699,39.3180 c 1.0096,-0.0000 1.6659,0.9844 1.6659 2.4989c 0.0000,1.7669 -1.2621,2.5998 -2.7765 2.8775l -0.1262,-0.6310 c 1.3125,-0.3281 1.9183,-1.0854 1.9183 -1.6154c 0.0000,-0.5805 -0.4291,-0.6815 -0.9087 -0.7320c -0.4543,-0.0757 -1.1106,-0.2777 -1.1106 -1.1106c 0.0000,-0.7067 0.5553,-1.2873 1.3378 -1.2873ZM 18.0726,41.7159 ZM 23.1713,31.3671 c 0.0000,0.1262 -0.1010,0.2019 -0.2272 0.2019h -0.3786 c -0.5553,-0.0000 -0.7320,0.1514 -0.7320 0.4039c 0.0000,0.1767 0.1010,0.4039 0.2272 0.7572l 2.6503,6.6636 l 2.1960,-5.4773 l -0.4543,-1.1358 c -0.3281,-0.8582 -0.8582,-1.2116 -1.6154 -1.2116c -0.1262,-0.0000 -0.2524,-0.0505 -0.2524 -0.1767v -0.5048 l 0.0505,-0.0505 c 0.0000,-0.0000 1.4135,0.0505 2.2969 0.0505l 2.5241,-0.0505 l 0.0757,0.0505 v 0.4796 c 0.0000,0.1262 -0.1262,0.2019 -0.2524 0.2019h -0.4543 c -0.5048,-0.0000 -0.7320,0.1010 -0.7320 0.3534c 0.0000,0.2019 0.1010,0.4543 0.2524 0.8077l 2.6251,6.6636 l 2.6251,-6.5374 c 0.0757,-0.1514 0.1262,-0.3534 0.1262 -0.5553c 0.0000,-0.4291 -0.2777,-0.7320 -1.1358 -0.7320h -0.3786 c -0.1262,-0.0000 -0.2272,-0.1010 -0.2272 -0.1767v -0.5048 l 0.0757,-0.0505 c 0.0000,-0.0000 1.6659,0.0505 2.5998 0.0505c 0.8582,-0.0000 1.8678,-0.0505 1.8678 -0.0505l 0.0252,0.0505 v 0.4796 c 0.0000,0.1514 -0.1514,0.2019 -0.3029 0.2019c -0.6310,-0.0000 -1.2873,0.2777 -1.7416 1.3883l -3.4328,8.5315 c -0.1514,0.3786 -0.3534,0.5301 -0.5805 0.5301c -0.2524,-0.0000 -0.4543,-0.1514 -0.6058 -0.5048l -2.5241,-6.3103 l -2.5241,6.2598 c -0.1767,0.4039 -0.3786,0.5553 -0.6058 0.5553c -0.2524,-0.0000 -0.4543,-0.1514 -0.6058 -0.5048l -3.4580,-8.7334 c -0.3786,-0.9844 -0.8330,-1.2116 -1.5902 -1.2116c -0.1262,-0.0000 -0.3029,-0.0505 -0.3029 -0.1767v -0.5048 l 0.0505,-0.0505 c 0.0000,-0.0000 1.1863,0.0505 2.2969 0.0505c 1.1611,-0.0000 2.4989,-0.0505 2.4989 -0.0505l 0.0505,0.0757 v 0.4543 Z"/>
  </g>
  <g stroke-linejoin="miter" stroke-opacity="1.0" fill-opacity="0.8" stroke="rgb(0,0,0)" fill-rule="evenodd" stroke-width="0.0" fill="rgb(0,0,0)" stroke-linecap="butt" stroke-miterlimit="10.0">
    <path d="M 5.5505,172.9744 ZM 10.5230,162.8275 c -0.5048,-0.0000 -0.6058,0.1262 -0.6058 0.3029c 0.0000,0.1262 0.1010,0.3534 0.3786 0.8077l 1.5397,2.2717 c 0.0757,0.1514 0.1514,0.2272 0.2524 0.2272c 0.0757,-0.0000 0.1262,-0.0505 0.2272 -0.1767l 1.6407,-2.2969 c 0.2777,-0.3534 0.4291,-0.6310 0.4291 -0.8330c 0.0000,-0.2019 -0.1767,-0.3029 -0.5301 -0.3029h -0.4039 c -0.0757,-0.0000 -0.1514,-0.0505 -0.1514 -0.1767v -0.4796 l 0.0757,-0.0757 c 0.0000,-0.0000 1.1863,0.0505 1.9688 0.0505c 0.8077,-0.0000 2.0445,-0.0505 2.0445 -0.0505l 0.0252,0.0505 v 0.4796 c 0.0000,0.1767 -0.1514,0.2019 -0.3029 0.2019c -0.9339,-0.0000 -1.3125,0.3029 -2.2465 1.4892l -2.1202,2.7008 c -0.0505,0.0757 -0.0757,0.1262 -0.0757 0.1767c 0.0000,0.0505 0.0252,0.1262 0.0757 0.2019l 2.2717,3.2056 c 1.1611,1.6407 1.4892,1.6659 2.2969 1.6659c 0.2524,-0.0000 0.3534,0.0505 0.3534 0.2019v 0.4796 l -0.0252,0.0505 c 0.0000,-0.0000 -1.3630,-0.0505 -2.2212 -0.0505c -1.0349,-0.0000 -2.6251,0.0505 -2.6251 0.0505l -0.0505,-0.0505 v -0.4796 c 0.0000,-0.1262 0.0505,-0.2019 0.1767 -0.2019h 0.3029 c 0.4039,-0.0000 0.5805,-0.0757 0.5805 -0.2777c 0.0000,-0.2272 -0.2777,-0.6058 -0.6815 -1.1358l -1.4640,-2.0193 c -0.1010,-0.1262 -0.1514,-0.1767 -0.2272 -0.1767c -0.0505,-0.0000 -0.1262,0.0757 -0.2272 0.2272l -1.5902,2.2969 c -0.3786,0.5048 -0.4543,0.6310 -0.4543 0.8077c 0.0000,0.1767 0.1514,0.2777 0.5301 0.2777h 0.3534 c 0.1262,-0.0000 0.1767,0.0757 0.1767 0.2019v 0.4796 l -0.0505,0.0505 c 0.0000,-0.0000 -1.3125,-0.0505 -2.1202 -0.0505c -0.7320,-0.0000 -1.8931,0.0505 -1.8931 0.0505l -0.0505,-0.0505 v -0.4291 c 0.0000,-0.1514 0.1010,-0.2524 0.3281 -0.2524c 0.6058,-0.0000 1.1863,-0.1262 2.2465 -1.4892l 2.1202,-2.7260 c 0.0252,-0.0505 0.0505,-0.1010 0.0505 -0.1767c 0.0000,-0.0757 -0.0252,-0.1262 -0.0757 -0.2019l -2.1960,-3.2056 c -0.7067,-1.0349 -1.1611,-1.6407 -2.0445 -1.6407c -0.1767,-0.0000 -0.3534,-0.0757 -0.3534 -0.1767v -0.4796 l 0.0505,-0.0757 l 1.9940,0.0505 l 2.8018,-0.0505 l 0.0757,0.0757 v 0.4543 c 0.0000,0.1262 -0.1010,0.2019 -0.2019 0.2019h -0.3786 ZM 18.0953,172.9744 ZM 20.7204,170.5765 c 1.0096,-0.0000 1.6659,0.9844 1.6659 2.4989c 0.0000,1.7669 -1.2621,2.5998 -2.7765 2.8775l -0.1262,-0.6310 c 1.3125,-0.3281 1.9183,-1.0854 1.9183 -1.6154c 0.0000,-0.5805 -0.4291,-0.6815 -0.9087 -0.7320c -0.4543,-0.0757 -1.1106,-0.2777 -1.1106 -1.1106c 0.0000,-0.7067 0.5553,-1.2873 1.3378 -1.2873ZM 23.6231,172.9744 ZM 28.8732,162.6256 c 0.0000,0.1262 -0.1514,0.2019 -0.2777 0.2019c -0.7572,-0.0000 -1.0854,0.1514 -1.0854 0.5553c 0.0000,0.1514 0.0505,0.3534 0.1514 0.5805l 2.7765,6.5122 l 2.8018,-6.4112 c 0.1262,-0.2272 0.1767,-0.4291 0.1767 -0.5805c 0.0000,-0.5301 -0.5048,-0.6563 -1.0601 -0.6563h -0.1010 c -0.1262,-0.0000 -0.2524,-0.1010 -0.2524 -0.1767v -0.4796 l 0.0505,-0.0757 c 0.0000,-0.0000 1.4892,0.0505 2.3727 0.0505c 0.7067,-0.0000 1.7416,-0.0505 1.7416 -0.0505l 0.0757,0.0505 v 0.4796 c 0.0000,0.1262 -0.1010,0.2019 -0.2777 0.2019c -0.9592,-0.0000 -1.4387,0.9844 -1.7921 1.7164c -1.3378,2.8270 -2.4484,5.4268 -4.4677 10.2983c -0.7572,1.8174 -1.6659,3.9376 -3.4580 3.9376c -0.4796,-0.0000 -1.4640,-0.2777 -1.4640 -1.1863c 0.0000,-0.7572 0.5553,-0.9844 0.9592 -0.9844c 0.3786,-0.0000 0.6310,0.1514 0.7825 0.3534c 0.2524,0.2524 0.4291,0.4291 0.6815 0.4291c 0.3786,-0.0000 1.2621,-2.1707 1.8931 -3.7104c 0.1514,-0.3029 0.2019,-0.5553 0.2019 -0.7825c 0.0000,-0.2524 -0.2272,-0.9339 -0.4291 -1.4387l -3.1804,-7.3956 c -0.4039,-0.9592 -0.6815,-1.2368 -1.5397 -1.2368c -0.1514,-0.0000 -0.2524,-0.0757 -0.2524 -0.1767v -0.5048 l 0.0505,-0.0505 c 0.0000,-0.0000 1.1106,0.0505 1.8678 0.0505c 1.1863,-0.0000 3.0037,-0.0505 3.0037 -0.0505l 0.0505,0.0757 v 0.4543 Z"/>
  </g>
  <g stroke-linejoin="miter" stroke-opacity="1.0" fill-opacity="0.5" stroke="rgb(102,102,102)" stroke-width="1.101246660461931" fill="rgb(93,165,218)" stroke-linecap="butt" stroke-miterlimit="10.0">
    <path d="M 252.4459,151.1157 l -0.0000,-101.4690 h -202.9381 l -0.0000,101.4690 Z"/>
  </g>
</svg>