<?xml version="1.0" encoding="UTF-8"?>
<!DOCTYPE svg PUBLIC "-//W3C//DTD SVG 1.1//EN"
    "http://www.w3.org/Graphics/SVG/1.1/DTD/svg11.dtd"><svg xmlns="http://www.w3.org/2000/svg" height="200.0000" stroke-opacity="1" viewBox="0 0 300 200" font-size="1" width="300.0000" xmlns:xlink="http://www.w3.org/1999/xlink" stroke="rgb(0,0,0)" version="1.1"><defs></defs><g stroke-linejoin="miter" stroke-opacity="1.0" fill-opacity="0.8" stroke="rgb(0,0,0)" fill-rule="evenodd" stroke-width="0.0" fill="rgb(0,0,0)" stroke-linecap="butt" stroke-miterlimit="10.0"><path d="M 264.1827,41.1670 ZM 266.9037,30.1289 h 5.0313 c 0.7444,-0.0000 1.6429,-0.1283 1.7199 -0.1283c 0.1797,-0.0000 0.3337,0.0513 0.3337 0.1540c 0.0000,0.1027 -0.1283,0.4107 -0.5647 1.0781l -6.0581,8.9332 h 3.3114 c 1.5145,-0.0000 1.9252,-0.5647 2.5413 -1.9252l 0.3337,-0.7444 l 0.6931,0.1797 c -0.4364,1.4889 -0.7188,2.6953 -0.8471 3.4911h -7.7780 c -0.3850,-0.0000 -0.5904,-0.1283 -0.5904 -0.3080c 0.0000,-0.1283 0.0257,-0.2054 0.2310 -0.5134l 6.2378,-9.2155 h -3.4654 c -0.7701,-0.0000 -1.6429,0.4364 -2.1563 2.3103l -0.6674,-0.0770 c 0.2054,-1.2578 0.3594,-2.3873 0.3850 -3.5425h 0.6417 c 0.0513,0.1540 0.2824,0.3080 0.6674 0.3080ZM 274.7330,41.1670 ZM 277.4027,38.7283 c 1.0268,-0.0000 1.6942,1.0011 1.6942 2.5413c 0.0000,1.7969 -1.2835,2.6440 -2.8237 2.9264l -0.1283,-0.6417 c 1.3348,-0.3337 1.9509,-1.1038 1.9509 -1.6429c 0.0000,-0.5904 -0.4364,-0.6931 -0.9241 -0.7444c -0.4621,-0.0770 -1.1295,-0.2824 -1.1295 -1.1295c 0.0000,-0.7188 0.5647,-1.3092 1.3605 -1.3092ZM 280.3548,41.1670 ZM 285.5401,30.6423 c 0.0000,0.1283 -0.1027,0.2054 -0.2310 0.2054h -0.3850 c -0.5647,-0.0000 -0.7444,0.1540 -0.7444 0.4107c 0.0000,0.1797 0.1027,0.4107 0.2310 0.7701l 2.6953,6.7769 l 2.2333,-5.5704 l -0.4621,-1.1551 c -0.3337,-0.8728 -0.8728,-1.2322 -1.6429 -1.2322c -0.1283,-0.0000 -0.2567,-0.0513 -0.2567 -0.1797v -0.5134 l 0.0513,-0.0513 c 0.0000,-0.0000 1.4375,0.0513 2.3360 0.0513l 2.5670,-0.0513 l 0.0770,0.0513 v 0.4877 c 0.0000,0.1283 -0.1283,0.2054 -0.2567 0.2054h -0.4621 c -0.5134,-0.0000 -0.7444,0.1027 -0.7444 0.3594c 0.0000,0.2054 0.1027,0.4621 0.2567 0.8214l 2.6697,6.7769 l 2.6697,-6.6485 c 0.0770,-0.1540 0.1283,-0.3594 0.1283 -0.5647c 0.0000,-0.4364 -0.2824,-0.7444 -1.1551 -0.7444h -0.3850 c -0.1283,-0.0000 -0.2310,-0.1027 -0.2310 -0.1797v -0.5134 l 0.0770,-0.0513 c 0.0000,-0.0000 1.6942,0.0513 2.6440 0.0513c 0.8728,-0.0000 1.8996,-0.0513 1.8996 -0.0513l 0.0257,0.0513 v 0.4877 c 0.0000,0.1540 -0.1540,0.2054 -0.3080 0.2054c -0.6417,-0.0000 -1.3092,0.2824 -1.7712 1.4118l -3.4911,8.6765 c -0.1540,0.3850 -0.3594,0.5391 -0.5904 0.5391c -0.2567,-0.0000 -0.4621,-0.1540 -0.6161 -0.5134l -2.5670,-6.4175 l -2.5670,6.3662 c -0.1797,0.4107 -0.3850,0.5647 -0.6161 0.5647c -0.2567,-0.0000 -0.4621,-0.1540 -0.6161 -0.5134l -3.5168,-8.8818 c -0.3850,-1.0011 -0.8471,-1.2322 -1.6172 -1.2322c -0.1283,-0.0000 -0.3080,-0.0513 -0.3080 -0.1797v -0.5134 l 0.0513,-0.0513 c 0.0000,-0.0000 1.2065,0.0513 2.3360 0.0513c 1.1808,-0.0000 2.5413,-0.0513 2.5413 -0.0513l 0.0513,0.0770 v 0.4621 Z"/></g><g stroke-linejoin="miter" stroke-opacity="1.0" fill-opacity="0.8" stroke="rgb(0,0,0)" fill-rule="evenodd" stroke-width="0.0" fill="rgb(0,0,0)" stroke-linecap="butt" stroke-miterlimit="10.0"><path d="M 270.7619,173.7730 ZM 273.4829,162.7349 h 5.0313 c 0.7444,-0.0000 1.6429,-0.1283 1.7199 -0.1283c 0.1797,-0.0000 0.3337,0.0513 0.3337 0.1540c 0.0000,0.1027 -0.1283,0.4107 -0.5647 1.0781l -6.0581,8.9332 h 3.3114 c 1.5145,-0.0000 1.9252,-0.5647 2.5413 -1.9252l 0.3337,-0.7444 l 0.6931,0.1797 c -0.4364,1.4889 -0.7188,2.6953 -0.8471 3.4911h -7.7780 c -0.3850,-0.0000 -0.5904,-0.1283 -0.5904 -0.3080c 0.0000,-0.1283 0.0257,-0.2054 0.2310 -0.5134l 6.2378,-9.2155 h -3.4654 c -0.7701,-0.0000 -1.6429,0.4364 -2.1563 2.3103l -0.6674,-0.0770 c 0.2054,-1.2578 0.3594,-2.3873 0.3850 -3.5425h 0.6417 c 0.0513,0.1540 0.2824,0.3080 0.6674 0.3080ZM 281.3122,173.7730 ZM 283.9819,171.3343 c 1.0268,-0.0000 1.6942,1.0011 1.6942 2.5413c 0.0000,1.7969 -1.2835,2.6440 -2.8237 2.9264l -0.1283,-0.6417 c 1.3348,-0.3337 1.9509,-1.1038 1.9509 -1.6429c 0.0000,-0.5904 -0.4364,-0.6931 -0.9241 -0.7444c -0.4621,-0.0770 -1.1295,-0.2824 -1.1295 -1.1295c 0.0000,-0.7188 0.5647,-1.3092 1.3605 -1.3092ZM 286.9340,173.7730 ZM 292.2733,163.2483 c 0.0000,0.1283 -0.1540,0.2054 -0.2824 0.2054c -0.7701,-0.0000 -1.1038,0.1540 -1.1038 0.5647c 0.0000,0.1540 0.0513,0.3594 0.1540 0.5904l 2.8237,6.6229 l 2.8494,-6.5202 c 0.1283,-0.2310 0.1797,-0.4364 0.1797 -0.5904c 0.0000,-0.5391 -0.5134,-0.6674 -1.0781 -0.6674h -0.1027 c -0.1283,-0.0000 -0.2567,-0.1027 -0.2567 -0.1797v -0.4877 l 0.0513,-0.0770 c 0.0000,-0.0000 1.5145,0.0513 2.4130 0.0513c 0.7188,-0.0000 1.7712,-0.0513 1.7712 -0.0513l 0.0770,0.0513 v 0.4877 c 0.0000,0.1283 -0.1027,0.2054 -0.2824 0.2054c -0.9755,-0.0000 -1.4632,1.0011 -1.8226 1.7456c -1.3605,2.8750 -2.4900,5.5190 -4.5436 10.4734c -0.7701,1.8482 -1.6942,4.0045 -3.5168 4.0045c -0.4877,-0.0000 -1.4889,-0.2824 -1.4889 -1.2065c 0.0000,-0.7701 0.5647,-1.0011 0.9755 -1.0011c 0.3850,-0.0000 0.6417,0.1540 0.7958 0.3594c 0.2567,0.2567 0.4364,0.4364 0.6931 0.4364c 0.3850,-0.0000 1.2835,-2.2076 1.9252 -3.7735c 0.1540,-0.3080 0.2054,-0.5647 0.2054 -0.7958c 0.0000,-0.2567 -0.2310,-0.9498 -0.4364 -1.4632l -3.2344,-7.5213 c -0.4107,-0.9755 -0.6931,-1.2578 -1.5659 -1.2578c -0.1540,-0.0000 -0.2567,-0.0770 -0.2567 -0.1797v -0.5134 l 0.0513,-0.0513 c 0.0000,-0.0000 1.1295,0.0513 1.8996 0.0513c 1.2065,-0.0000 3.0547,-0.0513 3.0547 -0.0513l 0.0513,0.0770 v 0.4621 Z"/></g><g stroke-linejoin="miter" stroke-opacity="1.0" fill-opacity="0.8" stroke="rgb(0,0,0)" fill-rule="evenodd" stroke-width="0.0" fill="rgb(0,0,0)" stroke-linecap="butt" stroke-miterlimit="10.0"><path d="M 0.5468,40.7254 ZM 5.6038,30.4061 c -0.5134,-0.0000 -0.6161,0.1283 -0.6161 0.3080c 0.0000,0.1283 0.1027,0.3594 0.3850 0.8214l 1.5659,2.3103 c 0.0770,0.1540 0.1540,0.2310 0.2567 0.2310c 0.0770,-0.0000 0.1283,-0.0513 0.2310 -0.1797l 1.6685,-2.3360 c 0.2824,-0.3594 0.4364,-0.6417 0.4364 -0.8471c 0.0000,-0.2054 -0.1797,-0.3080 -0.5391 -0.3080h -0.4107 c -0.0770,-0.0000 -0.1540,-0.0513 -0.1540 -0.1797v -0.4877 l 0.0770,-0.0770 c 0.0000,-0.0000 1.2065,0.0513 2.0023 0.0513c 0.8214,-0.0000 2.0793,-0.0513 2.0793 -0.0513l 0.0257,0.0513 v 0.4877 c 0.0000,0.1797 -0.1540,0.2054 -0.3080 0.2054c -0.9498,-0.0000 -1.3348,0.3080 -2.2846 1.5145l -2.1563,2.7467 c -0.0513,0.0770 -0.0770,0.1283 -0.0770 0.1797c 0.0000,0.0513 0.0257,0.1283 0.0770 0.2054l 2.3103,3.2601 c 1.1808,1.6685 1.5145,1.6942 2.3360 1.6942c 0.2567,-0.0000 0.3594,0.0513 0.3594 0.2054v 0.4877 l -0.0257,0.0513 c 0.0000,-0.0000 -1.3862,-0.0513 -2.2590 -0.0513c -1.0525,-0.0000 -2.6697,0.0513 -2.6697 0.0513l -0.0513,-0.0513 v -0.4877 c 0.0000,-0.1283 0.0513,-0.2054 0.1797 -0.2054h 0.3080 c 0.4107,-0.0000 0.5904,-0.0770 0.5904 -0.2824c 0.0000,-0.2310 -0.2824,-0.6161 -0.6931 -1.1551l -1.4889,-2.0536 c -0.1027,-0.1283 -0.1540,-0.1797 -0.2310 -0.1797c -0.0513,-0.0000 -0.1283,0.0770 -0.2310 0.2310l -1.6172,2.3360 c -0.3850,0.5134 -0.4621,0.6417 -0.4621 0.8214c 0.0000,0.1797 0.1540,0.2824 0.5391 0.2824h 0.3594 c 0.1283,-0.0000 0.1797,0.0770 0.1797 0.2054v 0.4877 l -0.0513,0.0513 c 0.0000,-0.0000 -1.3348,-0.0513 -2.1563 -0.0513c -0.7444,-0.0000 -1.9252,0.0513 -1.9252 0.0513l -0.0513,-0.0513 v -0.4364 c 0.0000,-0.1540 0.1027,-0.2567 0.3337 -0.2567c 0.6161,-0.0000 1.2065,-0.1283 2.2846 -1.5145l 2.1563,-2.7724 c 0.0257,-0.0513 0.0513,-0.1027 0.0513 -0.1797c 0.0000,-0.0770 -0.0257,-0.1283 -0.0770 -0.2054l -2.2333,-3.2601 c -0.7188,-1.0525 -1.1808,-1.6685 -2.0793 -1.6685c -0.1797,-0.0000 -0.3594,-0.0770 -0.3594 -0.1797v -0.4877 l 0.0513,-0.0770 l 2.0279,0.0513 l 2.8494,-0.0513 l 0.0770,0.0770 v 0.4621 c 0.0000,0.1283 -0.1027,0.2054 -0.2054 0.2054h -0.3850 ZM 13.3048,40.7254 ZM 15.9744,38.2868 c 1.0268,-0.0000 1.6942,1.0011 1.6942 2.5413c 0.0000,1.7969 -1.2835,2.6440 -2.8237 2.9264l -0.1283,-0.6417 c 1.3348,-0.3337 1.9509,-1.1038 1.9509 -1.6429c 0.0000,-0.5904 -0.4364,-0.6931 -0.9241 -0.7444c -0.4621,-0.0770 -1.1295,-0.2824 -1.1295 -1.1295c 0.0000,-0.7188 0.5647,-1.3092 1.3605 -1.3092ZM 18.9265,40.7254 ZM 24.1118,30.2007 c 0.0000,0.1283 -0.1027,0.2054 -0.2310 0.2054h -0.3850 c -0.5647,-0.0000 -0.7444,0.1540 -0.7444 0.4107c 0.0000,0.1797 0.1027,0.4107 0.2310 0.7701l 2.6953,6.7769 l 2.2333,-5.5704 l -0.4621,-1.1551 c -0.3337,-0.8728 -0.8728,-1.2322 -1.6429 -1.2322c -0.1283,-0.0000 -0.2567,-0.0513 -0.2567 -0.1797v -0.5134 l 0.0513,-0.0513 c 0.0000,-0.0000 1.4375,0.0513 2.3360 0.0513l 2.5670,-0.0513 l 0.0770,0.0513 v 0.4877 c 0.0000,0.1283 -0.1283,0.2054 -0.2567 0.2054h -0.4621 c -0.5134,-0.0000 -0.7444,0.1027 -0.7444 0.3594c 0.0000,0.2054 0.1027,0.4621 0.2567 0.8214l 2.6697,6.7769 l 2.6697,-6.6485 c 0.0770,-0.1540 0.1283,-0.3594 0.1283 -0.5647c 0.0000,-0.4364 -0.2824,-0.7444 -1.1551 -0.7444h -0.3850 c -0.1283,-0.0000 -0.2310,-0.1027 -0.2310 -0.1797v -0.5134 l 0.0770,-0.0513 c 0.0000,-0.0000 1.6942,0.0513 2.6440 0.0513c 0.8728,-0.0000 1.8996,-0.0513 1.8996 -0.0513l 0.0257,0.0513 v 0.4877 c 0.0000,0.1540 -0.1540,0.2054 -0.3080 0.2054c -0.6417,-0.0000 -1.3092,0.2824 -1.7712 1.4118l -3.4911,8.6765 c -0.1540,0.3850 -0.3594,0.5391 -0.5904 0.5391c -0.2567,-0.0000 -0.4621,-0.1540 -0.6161 -0.5134l -2.5670,-6.4175 l -2.5670,6.3662 c -0.1797,0.4107 -0.3850,0.5647 -0.6161 0.5647c -0.2567,-0.0000 -0.4621,-0.1540 -0.6161 -0.5134l -3.5168,-8.8818 c -0.3850,-1.0011 -0.8471,-1.2322 -1.6172 -1.2322c -0.1283,-0.0000 -0.3080,-0.0513 -0.3080 -0.1797v -0.5134 l 0.0513,-0.0513 c 0.0000,-0.0000 1.2065,0.0513 2.3360 0.0513c 1.1808,-0.0000 2.5413,-0.0513 2.5413 -0.0513l 0.0513,0.0770 v 0.4621 Z"/></g><g stroke-linejoin="miter" stroke-opacity="1.0" fill-opacity="0.8" stroke="rgb(0,0,0)" fill-rule="evenodd" stroke-width="0.0" fill="rgb(0,0,0)" stroke-linecap="butt" stroke-miterlimit="10.0"><path d="M -0.0000,174.2145 ZM 5.0570,163.8952 c -0.5134,-0.0000 -0.6161,0.1283 -0.6161 0.3080c 0.0000,0.1283 0.1027,0.3594 0.3850 0.8214l 1.5659,2.3103 c 0.0770,0.1540 0.1540,0.2310 0.2567 0.2310c 0.0770,-0.0000 0.1283,-0.0513 0.2310 -0.1797l 1.6685,-2.3360 c 0.2824,-0.3594 0.4364,-0.6417 0.4364 -0.8471c 0.0000,-0.2054 -0.1797,-0.3080 -0.5391 -0.3080h -0.4107 c -0.0770,-0.0000 -0.1540,-0.0513 -0.1540 -0.1797v -0.4877 l 0.0770,-0.0770 c 0.0000,-0.0000 1.2065,0.0513 2.0023 0.0513c 0.8214,-0.0000 2.0793,-0.0513 2.0793 -0.0513l 0.0257,0.0513 v 0.4877 c 0.0000,0.1797 -0.1540,0.2054 -0.3080 0.2054c -0.9498,-0.0000 -1.3348,0.3080 -2.2846 1.5145l -2.1563,2.7467 c -0.0513,0.0770 -0.0770,0.1283 -0.0770 0.1797c 0.0000,0.0513 0.0257,0.1283 0.0770 0.2054l 2.3103,3.2601 c 1.1808,1.6685 1.5145,1.6942 2.3360 1.6942c 0.2567,-0.0000 0.3594,0.0513 0.3594 0.2054v 0.4877 l -0.0257,0.0513 c 0.0000,-0.0000 -1.3862,-0.0513 -2.2590 -0.0513c -1.0525,-0.0000 -2.6697,0.0513 -2.6697 0.0513l -0.0513,-0.0513 v -0.4877 c 0.0000,-0.1283 0.0513,-0.2054 0.1797 -0.2054h 0.3080 c 0.4107,-0.0000 0.5904,-0.0770 0.5904 -0.2824c 0.0000,-0.2310 -0.2824,-0.6161 -0.6931 -1.1551l -1.4889,-2.0536 c -0.1027,-0.1283 -0.1540,-0.1797 -0.2310 -0.1797c -0.0513,-0.0000 -0.1283,0.0770 -0.2310 0.2310l -1.6172,2.3360 c -0.3850,0.5134 -0.4621,0.6417 -0.4621 0.8214c 0.0000,0.1797 0.1540,0.2824 0.5391 0.2824h 0.3594 c 0.1283,-0.0000 0.1797,0.0770 0.1797 0.2054v 0.4877 l -0.0513,0.0513 c 0.0000,-0.0000 -1.3348,-0.0513 -2.1563 -0.0513c -0.7444,-0.0000 -1.9252,0.0513 -1.9252 0.0513l -0.0513,-0.0513 v -0.4364 c 0.0000,-0.1540 0.1027,-0.2567 0.3337 -0.2567c 0.6161,-0.0000 1.2065,-0.1283 2.2846 -1.5145l 2.1563,-2.7724 c 0.0257,-0.0513 0.0513,-0.1027 0.0513 -0.1797c 0.0000,-0.0770 -0.0257,-0.1283 -0.0770 -0.2054l -2.2333,-3.2601 c -0.7188,-1.0525 -1.1808,-1.6685 -2.0793 -1.6685c -0.1797,-0.0000 -0.3594,-0.0770 -0.3594 -0.1797v -0.4877 l 0.0513,-0.0770 l 2.0279,0.0513 l 2.8494,-0.0513 l 0.0770,0.0770 v 0.4621 c 0.0000,0.1283 -0.1027,0.2054 -0.2054 0.2054h -0.3850 ZM 12.7580,174.2145 ZM 15.4277,171.7758 c 1.0268,-0.0000 1.6942,1.0011 1.6942 2.5413c 0.0000,1.7969 -1.2835,2.6440 -2.8237 2.9264l -0.1283,-0.6417 c 1.3348,-0.3337 1.9509,-1.1038 1.9509 -1.6429c 0.0000,-0.5904 -0.4364,-0.6931 -0.9241 -0.7444c -0.4621,-0.0770 -1.1295,-0.2824 -1.1295 -1.1295c 0.0000,-0.7188 0.5647,-1.3092 1.3605 -1.3092ZM 18.3797,174.2145 ZM 23.7191,163.6898 c 0.0000,0.1283 -0.1540,0.2054 -0.2824 0.2054c -0.7701,-0.0000 -1.1038,0.1540 -1.1038 0.5647c 0.0000,0.1540 0.0513,0.3594 0.1540 0.5904l 2.8237,6.6229 l 2.8494,-6.5202 c 0.1283,-0.2310 0.1797,-0.4364 0.1797 -0.5904c 0.0000,-0.5391 -0.5134,-0.6674 -1.0781 -0.6674h -0.1027 c -0.1283,-0.0000 -0.2567,-0.1027 -0.2567 -0.1797v -0.4877 l 0.0513,-0.0770 c 0.0000,-0.0000 1.5145,0.0513 2.4130 0.0513c 0.7188,-0.0000 1.7712,-0.0513 1.7712 -0.0513l 0.0770,0.0513 v 0.4877 c 0.0000,0.1283 -0.1027,0.2054 -0.2824 0.2054c -0.9755,-0.0000 -1.4632,1.0011 -1.8226 1.7456c -1.3605,2.8750 -2.4900,5.5190 -4.5436 10.4734c -0.7701,1.8482 -1.6942,4.0045 -3.5168 4.0045c -0.4877,-0.0000 -1.4889,-0.2824 -1.4889 -1.2065c 0.0000,-0.7701 0.5647,-1.0011 0.9755 -1.0011c 0.3850,-0.0000 0.6417,0.1540 0.7958 0.3594c 0.2567,0.2567 0.4364,0.4364 0.6931 0.4364c 0.3850,-0.0000 1.2835,-2.2076 1.9252 -3.7735c 0.1540,-0.3080 0.2054,-0.5647 0.2054 -0.7958c 0.0000,-0.2567 -0.2310,-0.9498 -0.4364 -1.4632l -3.2344,-7.5213 c -0.4107,-0.9755 -0.6931,-1.2578 -1.5659 -1.2578c -0.1540,-0.0000 -0.2567,-0.0770 -0.2567 -0.1797v -0.5134 l 0.0513,-0.0513 c 0.0000,-0.0000 1.1295,0.0513 1.8996 0.0513c 1.2065,-0.0000 3.0547,-0.0513 3.0547 -0.0513l 0.0513,0.0770 v 0.4621 Z"/></g><g stroke-linejoin="miter" stroke-opacity="1.0" fill-opacity="0.5" stroke="rgb(102,102,102)" stroke-width="1.1105642771386235" fill="rgb(93,165,218)" stroke-linecap="butt" stroke-miterlimit="10.0"><path d="M 254.1868,158.1759 l -0.0000,-103.1933 h -206.3867 l -0.0000,103.1933 Z"/></g></svg>