<?xml version="1.0" encoding="UTF-8"?>
<!DOCTYPE svg PUBLIC "-//W3C//DTD SVG 1.1//EN"
    "http://www.w3.org/Graphics/SVG/1.1/DTD/svg11.dtd"><svg xmlns="http://www.w3.org/2000/svg" height="400.0000" stroke-opacity="1" viewBox="0 0 600 400" font-size="1" width="600.0000" xmlns:xlink="http://www.w3.org/1999/xlink" stroke="rgb(0,0,0)" version="1.1"><defs></defs><g stroke-linejoin="miter" stroke-opacity="1.0" fill-opacity="0.2" stroke="rgb(102,102,102)" stroke-width="0.0" fill="rgb(76,76,76)" stroke-linecap="butt" stroke-miterlimit="10.0"><path d="M 572.3988,239.5048 l -0.0000,-4.1552 h -9.9775 l -0.0000,4.1552 Z"/></g><g stroke-linejoin="miter" stroke-opacity="1.0" fill-opacity="0.2" stroke="rgb(102,102,102)" stroke-width="0.0" fill="rgb(76,76,76)" stroke-linecap="butt" stroke-miterlimit="10.0"><path d="M 562.4213,239.5048 l -0.0000,-5.2822 h -9.9775 l -0.0000,5.2822 Z"/></g><g stroke-linejoin="miter" stroke-opacity="1.0" fill-opacity="0.2" stroke="rgb(102,102,102)" stroke-width="0.0" fill="rgb(76,76,76)" stroke-linecap="butt" stroke-miterlimit="10.0"><path d="M 552.4438,239.5048 l -0.0000,-6.6482 h -9.9775 l -0.0000,6.6482 Z"/></g><g stroke-linejoin="miter" stroke-opacity="1.0" fill-opacity="0.2" stroke="rgb(102,102,102)" stroke-width="0.0" fill="rgb(76,76,76)" stroke-linecap="butt" stroke-miterlimit="10.0"><path d="M 542.4663,239.5048 l -0.0000,-8.2842 h -9.9775 l -0.0000,8.2842 Z"/></g><g stroke-linejoin="miter" stroke-opacity="1.0" fill-opacity="0.2" stroke="rgb(102,102,102)" stroke-width="0.0" fill="rgb(76,76,76)" stroke-linecap="butt" stroke-miterlimit="10.0"><path d="M 532.4887,239.5048 l -0.0000,-10.2200 h -9.9775 l -0.0000,10.2200 Z"/></g><g stroke-linejoin="miter" stroke-opacity="1.0" fill-opacity="0.2" stroke="rgb(102,102,102)" stroke-width="0.0" fill="rgb(76,76,76)" stroke-linecap="butt" stroke-miterlimit="10.0"><path d="M 522.5112,239.5048 l -0.0000,-12.4828 h -9.9775 l -0.0000,12.4828 Z"/></g><g stroke-linejoin="miter" stroke-opacity="1.0" fill-opacity="0.2" stroke="rgb(102,102,102)" stroke-width="0.0" fill="rgb(76,76,76)" stroke-linecap="butt" stroke-miterlimit="10.0"><path d="M 512.5337,239.5048 l -0.0000,-15.0948 h -9.9775 l -0.0000,15.0948 Z"/></g><g stroke-linejoin="miter" stroke-opacity="1.0" fill-opacity="0.2" stroke="rgb(102,102,102)" stroke-width="0.0" fill="rgb(76,76,76)" stroke-linecap="butt" stroke-miterlimit="10.0"><path d="M 502.5562,239.5048 l -0.0000,-18.0717 h -9.9775 l -0.0000,18.0717 Z"/></g><g stroke-linejoin="miter" stroke-opacity="1.0" fill-opacity="0.2" stroke="rgb(102,102,102)" stroke-width="0.0" fill="rgb(76,76,76)" stroke-linecap="butt" stroke-miterlimit="10.0"><path d="M 492.5786,239.5048 l -0.0000,-21.4205 h -9.9775 l -0.0000,21.4205 Z"/></g><g stroke-linejoin="miter" stroke-opacity="1.0" fill-opacity="0.2" stroke="rgb(102,102,102)" stroke-width="0.0" fill="rgb(76,76,76)" stroke-linecap="butt" stroke-miterlimit="10.0"><path d="M 482.6011,239.5048 l -0.0000,-25.1372 h -9.9775 l -0.0000,25.1372 Z"/></g><g stroke-linejoin="miter" stroke-opacity="1.0" fill-opacity="0.2" stroke="rgb(102,102,102)" stroke-width="0.0" fill="rgb(76,76,76)" stroke-linecap="butt" stroke-miterlimit="10.0"><path d="M 472.6236,239.5048 l -0.0000,-29.2053 h -9.9775 l -0.0000,29.2053 Z"/></g><g stroke-linejoin="miter" stroke-opacity="1.0" fill-opacity="0.2" stroke="rgb(102,102,102)" stroke-width="0.0" fill="rgb(76,76,76)" stroke-linecap="butt" stroke-miterlimit="10.0"><path d="M 462.6461,239.5048 l -0.0000,-33.5940 h -9.9775 l -0.0000,33.5940 Z"/></g><g stroke-linejoin="miter" stroke-opacity="1.0" fill-opacity="0.2" stroke="rgb(102,102,102)" stroke-width="0.0" fill="rgb(76,76,76)" stroke-linecap="butt" stroke-miterlimit="10.0"><path d="M 452.6685,239.5048 l -0.0000,-38.2578 h -9.9775 l -0.0000,38.2578 Z"/></g><g stroke-linejoin="miter" stroke-opacity="1.0" fill-opacity="0.2" stroke="rgb(102,102,102)" stroke-width="0.0" fill="rgb(76,76,76)" stroke-linecap="butt" stroke-miterlimit="10.0"><path d="M 442.6910,239.5048 l -0.0000,-43.1356 h -9.9775 l -0.0000,43.1356 Z"/></g><g stroke-linejoin="miter" stroke-opacity="1.0" fill-opacity="0.2" stroke="rgb(102,102,102)" stroke-width="0.0" fill="rgb(76,76,76)" stroke-linecap="butt" stroke-miterlimit="10.0"><path d="M 432.7135,239.5048 l -0.0000,-48.1513 h -9.9775 l -0.0000,48.1513 Z"/></g><g stroke-linejoin="miter" stroke-opacity="1.0" fill-opacity="0.2" stroke="rgb(102,102,102)" stroke-width="0.0" fill="rgb(76,76,76)" stroke-linecap="butt" stroke-miterlimit="10.0"><path d="M 422.7360,239.5048 l -0.0000,-53.2154 h -9.9775 l -0.0000,53.2154 Z"/></g><g stroke-linejoin="miter" stroke-opacity="1.0" fill-opacity="0.2" stroke="rgb(102,102,102)" stroke-width="0.0" fill="rgb(76,76,76)" stroke-linecap="butt" stroke-miterlimit="10.0"><path d="M 412.7584,239.5048 l -0.0000,-58.2270 h -9.9775 l -0.0000,58.2270 Z"/></g><g stroke-linejoin="miter" stroke-opacity="1.0" fill-opacity="0.2" stroke="rgb(102,102,102)" stroke-width="0.0" fill="rgb(76,76,76)" stroke-linecap="butt" stroke-miterlimit="10.0"><path d="M 402.7809,239.5048 l -0.0000,-63.0765 h -9.9775 l -0.0000,63.0765 Z"/></g><g stroke-linejoin="miter" stroke-opacity="1.0" fill-opacity="0.2" stroke="rgb(102,102,102)" stroke-width="0.0" fill="rgb(76,76,76)" stroke-linecap="butt" stroke-miterlimit="10.0"><path d="M 392.8034,239.5048 l -0.0000,-67.6501 h -9.9775 l -0.0000,67.6501 Z"/></g><g stroke-linejoin="miter" stroke-opacity="1.0" fill-opacity="0.2" stroke="rgb(102,102,102)" stroke-width="0.0" fill="rgb(76,76,76)" stroke-linecap="butt" stroke-miterlimit="10.0"><path d="M 382.8259,239.5048 l -0.0000,-71.8333 h -9.9775 l -0.0000,71.8333 Z"/></g><g stroke-linejoin="miter" stroke-opacity="1.0" fill-opacity="0.2" stroke="rgb(102,102,102)" stroke-width="0.0" fill="rgb(76,76,76)" stroke-linecap="butt" stroke-miterlimit="10.0"><path d="M 372.8483,239.5048 l -0.0000,-75.5163 h -9.9775 l -0.0000,75.5163 Z"/></g><g stroke-linejoin="miter" stroke-opacity="1.0" fill-opacity="0.2" stroke="rgb(102,102,102)" stroke-width="0.0" fill="rgb(76,76,76)" stroke-linecap="butt" stroke-miterlimit="10.0"><path d="M 362.8708,239.5048 l -0.0000,-78.5982 h -9.9775 l -0.0000,78.5982 Z"/></g><g stroke-linejoin="miter" stroke-opacity="1.0" fill-opacity="0.2" stroke="rgb(102,102,102)" stroke-width="0.0" fill="rgb(76,76,76)" stroke-linecap="butt" stroke-miterlimit="10.0"><path d="M 352.8933,239.5048 l -0.0000,-80.9919 h -9.9775 l -0.0000,80.9919 Z"/></g><g stroke-linejoin="miter" stroke-opacity="1.0" fill-opacity="0.2" stroke="rgb(102,102,102)" stroke-width="0.0" fill="rgb(76,76,76)" stroke-linecap="butt" stroke-miterlimit="10.0"><path d="M 342.9158,239.5048 l -0.0000,-82.6280 h -9.9775 l -0.0000,82.6280 Z"/></g><g stroke-linejoin="miter" stroke-opacity="1.0" fill-opacity="0.2" stroke="rgb(102,102,102)" stroke-width="0.0" fill="rgb(76,76,76)" stroke-linecap="butt" stroke-miterlimit="10.0"><path d="M 332.9382,239.5048 l -0.0000,-83.4584 h -9.9775 l -0.0000,83.4584 Z"/></g><g stroke-linejoin="miter" stroke-opacity="1.0" fill-opacity="0.2" stroke="rgb(102,102,102)" stroke-width="0.0" fill="rgb(76,76,76)" stroke-linecap="butt" stroke-miterlimit="10.0"><path d="M 322.9607,239.5048 l -0.0000,-83.4584 h -9.9775 l -0.0000,83.4584 Z"/></g><g stroke-linejoin="miter" stroke-opacity="1.0" fill-opacity="0.2" stroke="rgb(102,102,102)" stroke-width="0.0" fill="rgb(76,76,76)" stroke-linecap="butt" stroke-miterlimit="10.0"><path d="M 312.9832,239.5048 l -0.0000,-82.6280 h -9.9775 l -0.0000,82.6280 Z"/></g><g stroke-linejoin="miter" stroke-opacity="1.0" fill-opacity="0.2" stroke="rgb(102,102,102)" stroke-width="0.0" fill="rgb(76,76,76)" stroke-linecap="butt" stroke-miterlimit="10.0"><path d="M 303.0057,239.5048 l -0.0000,-80.9919 h -9.9775 l -0.0000,80.9919 Z"/></g><g stroke-linejoin="miter" stroke-opacity="1.0" fill-opacity="0.2" stroke="rgb(102,102,102)" stroke-width="0.0" fill="rgb(76,76,76)" stroke-linecap="butt" stroke-miterlimit="10.0"><path d="M 293.0281,239.5048 l -0.0000,-78.5982 h -9.9775 l -0.0000,78.5982 Z"/></g><g stroke-linejoin="miter" stroke-opacity="1.0" fill-opacity="0.2" stroke="rgb(102,102,102)" stroke-width="0.0" fill="rgb(76,76,76)" stroke-linecap="butt" stroke-miterlimit="10.0"><path d="M 283.0506,239.5048 l -0.0000,-75.5163 h -9.9775 l -0.0000,75.5163 Z"/></g><g stroke-linejoin="miter" stroke-opacity="1.0" fill-opacity="0.2" stroke="rgb(102,102,102)" stroke-width="0.0" fill="rgb(76,76,76)" stroke-linecap="butt" stroke-miterlimit="10.0"><path d="M 273.0731,239.5048 l -0.0000,-71.8333 h -9.9775 l -0.0000,71.8333 Z"/></g><g stroke-linejoin="miter" stroke-opacity="1.0" fill-opacity="0.2" stroke="rgb(102,102,102)" stroke-width="0.0" fill="rgb(76,76,76)" stroke-linecap="butt" stroke-miterlimit="10.0"><path d="M 263.0956,239.5048 l -0.0000,-67.6501 h -9.9775 l -0.0000,67.6501 Z"/></g><g stroke-linejoin="miter" stroke-opacity="1.0" fill-opacity="0.2" stroke="rgb(102,102,102)" stroke-width="0.0" fill="rgb(76,76,76)" stroke-linecap="butt" stroke-miterlimit="10.0"><path d="M 253.1180,239.5048 l -0.0000,-63.0765 h -9.9775 l -0.0000,63.0765 Z"/></g><g stroke-linejoin="miter" stroke-opacity="1.0" fill-opacity="0.2" stroke="rgb(102,102,102)" stroke-width="0.0" fill="rgb(76,76,76)" stroke-linecap="butt" stroke-miterlimit="10.0"><path d="M 243.1405,239.5048 l -0.0000,-58.2270 h -9.9775 l -0.0000,58.2270 Z"/></g><g stroke-linejoin="miter" stroke-opacity="1.0" fill-opacity="0.2" stroke="rgb(102,102,102)" stroke-width="0.0" fill="rgb(76,76,76)" stroke-linecap="butt" stroke-miterlimit="10.0"><path d="M 233.1630,239.5048 l -0.0000,-53.2154 h -9.9775 l -0.0000,53.2154 Z"/></g><g stroke-linejoin="miter" stroke-opacity="1.0" fill-opacity="0.2" stroke="rgb(102,102,102)" stroke-width="0.0" fill="rgb(76,76,76)" stroke-linecap="butt" stroke-miterlimit="10.0"><path d="M 223.1855,239.5048 l -0.0000,-48.1513 h -9.9775 l -0.0000,48.1513 Z"/></g><g stroke-linejoin="miter" stroke-opacity="1.0" fill-opacity="0.2" stroke="rgb(102,102,102)" stroke-width="0.0" fill="rgb(76,76,76)" stroke-linecap="butt" stroke-miterlimit="10.0"><path d="M 213.2079,239.5048 l -0.0000,-43.1356 h -9.9775 l -0.0000,43.1356 Z"/></g><g stroke-linejoin="miter" stroke-opacity="1.0" fill-opacity="0.2" stroke="rgb(102,102,102)" stroke-width="0.0" fill="rgb(76,76,76)" stroke-linecap="butt" stroke-miterlimit="10.0"><path d="M 203.2304,239.5048 l -0.0000,-38.2578 h -9.9775 l -0.0000,38.2578 Z"/></g><g stroke-linejoin="miter" stroke-opacity="1.0" fill-opacity="0.2" stroke="rgb(102,102,102)" stroke-width="0.0" fill="rgb(76,76,76)" stroke-linecap="butt" stroke-miterlimit="10.0"><path d="M 193.2529,239.5048 l -0.0000,-33.5940 h -9.9775 l -0.0000,33.5940 Z"/></g><g stroke-linejoin="miter" stroke-opacity="1.0" fill-opacity="0.2" stroke="rgb(102,102,102)" stroke-width="0.0" fill="rgb(76,76,76)" stroke-linecap="butt" stroke-miterlimit="10.0"><path d="M 183.2754,239.5048 l -0.0000,-29.2053 h -9.9775 l -0.0000,29.2053 Z"/></g><g stroke-linejoin="miter" stroke-opacity="1.0" fill-opacity="0.2" stroke="rgb(102,102,102)" stroke-width="0.0" fill="rgb(76,76,76)" stroke-linecap="butt" stroke-miterlimit="10.0"><path d="M 173.2979,239.5048 l -0.0000,-25.1372 h -9.9775 l -0.0000,25.1372 Z"/></g><g stroke-linejoin="miter" stroke-opacity="1.0" fill-opacity="0.2" stroke="rgb(102,102,102)" stroke-width="0.0" fill="rgb(76,76,76)" stroke-linecap="butt" stroke-miterlimit="10.0"><path d="M 163.3203,239.5048 l -0.0000,-21.4205 h -9.9775 l -0.0000,21.4205 Z"/></g><g stroke-linejoin="miter" stroke-opacity="1.0" fill-opacity="0.2" stroke="rgb(102,102,102)" stroke-width="0.0" fill="rgb(76,76,76)" stroke-linecap="butt" stroke-miterlimit="10.0"><path d="M 153.3428,239.5048 l -0.0000,-18.0717 h -9.9775 l -0.0000,18.0717 Z"/></g><g stroke-linejoin="miter" stroke-opacity="1.0" fill-opacity="0.2" stroke="rgb(102,102,102)" stroke-width="0.0" fill="rgb(76,76,76)" stroke-linecap="butt" stroke-miterlimit="10.0"><path d="M 143.3653,239.5048 l -0.0000,-15.0948 h -9.9775 l -0.0000,15.0948 Z"/></g><g stroke-linejoin="miter" stroke-opacity="1.0" fill-opacity="0.2" stroke="rgb(102,102,102)" stroke-width="0.0" fill="rgb(76,76,76)" stroke-linecap="butt" stroke-miterlimit="10.0"><path d="M 133.3878,239.5048 l -0.0000,-12.4828 h -9.9775 l -0.0000,12.4828 Z"/></g><g stroke-linejoin="miter" stroke-opacity="1.0" fill-opacity="0.2" stroke="rgb(102,102,102)" stroke-width="0.0" fill="rgb(76,76,76)" stroke-linecap="butt" stroke-miterlimit="10.0"><path d="M 123.4102,239.5048 l -0.0000,-10.2200 h -9.9775 l -0.0000,10.2200 Z"/></g><g stroke-linejoin="miter" stroke-opacity="1.0" fill-opacity="0.2" stroke="rgb(102,102,102)" stroke-width="0.0" fill="rgb(76,76,76)" stroke-linecap="butt" stroke-miterlimit="10.0"><path d="M 113.4327,239.5048 l -0.0000,-8.2842 h -9.9775 l -0.0000,8.2842 Z"/></g><g stroke-linejoin="miter" stroke-opacity="1.0" fill-opacity="0.2" stroke="rgb(102,102,102)" stroke-width="0.0" fill="rgb(76,76,76)" stroke-linecap="butt" stroke-miterlimit="10.0"><path d="M 103.4552,239.5048 l -0.0000,-6.6482 h -9.9775 l -0.0000,6.6482 Z"/></g><g stroke-linejoin="miter" stroke-opacity="1.0" fill-opacity="0.2" stroke="rgb(102,102,102)" stroke-width="0.0" fill="rgb(76,76,76)" stroke-linecap="butt" stroke-miterlimit="10.0"><path d="M 93.4777,239.5048 l -0.0000,-5.2822 h -9.9775 l -0.0000,5.2822 Z"/></g><g stroke-linejoin="miter" stroke-opacity="1.0" fill-opacity="0.2" stroke="rgb(102,102,102)" stroke-width="0.0" fill="rgb(76,76,76)" stroke-linecap="butt" stroke-miterlimit="10.0"><path d="M 83.5001,239.5048 l -0.0000,-4.1552 h -9.9775 l -0.0000,4.1552 Z"/></g><g stroke-linejoin="miter" stroke-opacity="1.0" fill-opacity="0.5" stroke="rgb(102,102,102)" stroke-width="0.0" fill="rgb(93,165,218)" stroke-linecap="butt" stroke-miterlimit="10.0"><path d="M 572.3988,239.5048 l -0.0000,-0.0010 h -9.9775 l -0.0000,0.0010 Z"/></g><g stroke-linejoin="miter" stroke-opacity="1.0" fill-opacity="0.5" stroke="rgb(102,102,102)" stroke-width="0.0" fill="rgb(93,165,218)" stroke-linecap="butt" stroke-miterlimit="10.0"><path d="M 562.4213,239.5048 l -0.0000,-0.0027 h -9.9775 l -0.0000,0.0027 Z"/></g><g stroke-linejoin="miter" stroke-opacity="1.0" fill-opacity="0.5" stroke="rgb(102,102,102)" stroke-width="0.0" fill="rgb(93,165,218)" stroke-linecap="butt" stroke-miterlimit="10.0"><path d="M 552.4438,239.5048 l -0.0000,-0.0067 h -9.9775 l -0.0000,0.0067 Z"/></g><g stroke-linejoin="miter" stroke-opacity="1.0" fill-opacity="0.5" stroke="rgb(102,102,102)" stroke-width="0.0" fill="rgb(93,165,218)" stroke-linecap="butt" stroke-miterlimit="10.0"><path d="M 542.4663,239.5048 l -0.0000,-0.0161 h -9.9775 l -0.0000,0.0161 Z"/></g><g stroke-linejoin="miter" stroke-opacity="1.0" fill-opacity="0.5" stroke="rgb(102,102,102)" stroke-width="0.0" fill="rgb(93,165,218)" stroke-linecap="butt" stroke-miterlimit="10.0"><path d="M 532.4887,239.5048 l -0.0000,-0.0374 h -9.9775 l -0.0000,0.0374 Z"/></g><g stroke-linejoin="miter" stroke-opacity="1.0" fill-opacity="0.5" stroke="rgb(102,102,102)" stroke-width="0.0" fill="rgb(93,165,218)" stroke-linecap="butt" stroke-miterlimit="10.0"><path d="M 522.5112,239.5048 l -0.0000,-0.0832 h -9.9775 l -0.0000,0.0832 Z"/></g><g stroke-linejoin="miter" stroke-opacity="1.0" fill-opacity="0.5" stroke="rgb(102,102,102)" stroke-width="0.0" fill="rgb(93,165,218)" stroke-linecap="butt" stroke-miterlimit="10.0"><path d="M 512.5337,239.5048 l -0.0000,-0.1779 h -9.9775 l -0.0000,0.1779 Z"/></g><g stroke-linejoin="miter" stroke-opacity="1.0" fill-opacity="0.5" stroke="rgb(102,102,102)" stroke-width="0.0" fill="rgb(93,165,218)" stroke-linecap="butt" stroke-miterlimit="10.0"><path d="M 502.5562,239.5048 l -0.0000,-0.3656 h -9.9775 l -0.0000,0.3656 Z"/></g><g stroke-linejoin="miter" stroke-opacity="1.0" fill-opacity="0.5" stroke="rgb(102,102,102)" stroke-width="0.0" fill="rgb(93,165,218)" stroke-linecap="butt" stroke-miterlimit="10.0"><path d="M 492.5786,239.5048 l -0.0000,-0.7216 h -9.9775 l -0.0000,0.7216 Z"/></g><g stroke-linejoin="miter" stroke-opacity="1.0" fill-opacity="0.5" stroke="rgb(102,102,102)" stroke-width="0.0" fill="rgb(93,165,218)" stroke-linecap="butt" stroke-miterlimit="10.0"><path d="M 482.6011,239.5048 l -0.0000,-1.3685 h -9.9775 l -0.0000,1.3685 Z"/></g><g stroke-linejoin="miter" stroke-opacity="1.0" fill-opacity="0.5" stroke="rgb(102,102,102)" stroke-width="0.0" fill="rgb(93,165,218)" stroke-linecap="butt" stroke-miterlimit="10.0"><path d="M 472.6236,239.5048 l -0.0000,-2.4936 h -9.9775 l -0.0000,2.4936 Z"/></g><g stroke-linejoin="miter" stroke-opacity="1.0" fill-opacity="0.5" stroke="rgb(102,102,102)" stroke-width="0.0" fill="rgb(93,165,218)" stroke-linecap="butt" stroke-miterlimit="10.0"><path d="M 462.6461,239.5048 l -0.0000,-4.3656 h -9.9775 l -0.0000,4.3656 Z"/></g><g stroke-linejoin="miter" stroke-opacity="1.0" fill-opacity="0.5" stroke="rgb(102,102,102)" stroke-width="0.0" fill="rgb(93,165,218)" stroke-linecap="butt" stroke-miterlimit="10.0"><path d="M 452.6685,239.5048 l -0.0000,-7.3430 h -9.9775 l -0.0000,7.3430 Z"/></g><g stroke-linejoin="miter" stroke-opacity="1.0" fill-opacity="0.5" stroke="rgb(102,102,102)" stroke-width="0.0" fill="rgb(93,165,218)" stroke-linecap="butt" stroke-miterlimit="10.0"><path d="M 442.6910,239.5048 l -0.0000,-11.8668 h -9.9775 l -0.0000,11.8668 Z"/></g><g stroke-linejoin="miter" stroke-opacity="1.0" fill-opacity="0.5" stroke="rgb(102,102,102)" stroke-width="0.0" fill="rgb(93,165,218)" stroke-linecap="butt" stroke-miterlimit="10.0"><path d="M 432.7135,239.5048 l -0.0000,-18.4257 h -9.9775 l -0.0000,18.4257 Z"/></g><g stroke-linejoin="miter" stroke-opacity="1.0" fill-opacity="0.5" stroke="rgb(102,102,102)" stroke-width="0.0" fill="rgb(93,165,218)" stroke-linecap="butt" stroke-miterlimit="10.0"><path d="M 422.7360,239.5048 l -0.0000,-27.4879 h -9.9775 l -0.0000,27.4879 Z"/></g><g stroke-linejoin="miter" stroke-opacity="1.0" fill-opacity="0.5" stroke="rgb(102,102,102)" stroke-width="0.0" fill="rgb(93,165,218)" stroke-linecap="butt" stroke-miterlimit="10.0"><path d="M 412.7584,239.5048 l -0.0000,-39.3992 h -9.9775 l -0.0000,39.3992 Z"/></g><g stroke-linejoin="miter" stroke-opacity="1.0" fill-opacity="0.5" stroke="rgb(102,102,102)" stroke-width="0.0" fill="rgb(93,165,218)" stroke-linecap="butt" stroke-miterlimit="10.0"><path d="M 402.7809,239.5048 l -0.0000,-54.2577 h -9.9775 l -0.0000,54.2577 Z"/></g><g stroke-linejoin="miter" stroke-opacity="1.0" fill-opacity="0.5" stroke="rgb(102,102,102)" stroke-width="0.0" fill="rgb(93,165,218)" stroke-linecap="butt" stroke-miterlimit="10.0"><path d="M 392.8034,239.5048 l -0.0000,-71.7900 h -9.9775 l -0.0000,71.7900 Z"/></g><g stroke-linejoin="miter" stroke-opacity="1.0" fill-opacity="0.5" stroke="rgb(102,102,102)" stroke-width="0.0" fill="rgb(93,165,218)" stroke-linecap="butt" stroke-miterlimit="10.0"><path d="M 382.8259,239.5048 l -0.0000,-91.2630 h -9.9775 l -0.0000,91.2630 Z"/></g><g stroke-linejoin="miter" stroke-opacity="1.0" fill-opacity="0.5" stroke="rgb(102,102,102)" stroke-width="0.0" fill="rgb(93,165,218)" stroke-linecap="butt" stroke-miterlimit="10.0"><path d="M 372.8483,239.5048 l -0.0000,-111.4689 h -9.9775 l -0.0000,111.4689 Z"/></g><g stroke-linejoin="miter" stroke-opacity="1.0" fill-opacity="0.5" stroke="rgb(102,102,102)" stroke-width="0.0" fill="rgb(93,165,218)" stroke-linecap="butt" stroke-miterlimit="10.0"><path d="M 362.8708,239.5048 l -0.0000,-130.8100 h -9.9775 l -0.0000,130.8100 Z"/></g><g stroke-linejoin="miter" stroke-opacity="1.0" fill-opacity="0.5" stroke="rgb(102,102,102)" stroke-width="0.0" fill="rgb(93,165,218)" stroke-linecap="butt" stroke-miterlimit="10.0"><path d="M 352.8933,239.5048 l -0.0000,-147.4878 h -9.9775 l -0.0000,147.4878 Z"/></g><g stroke-linejoin="miter" stroke-opacity="1.0" fill-opacity="0.5" stroke="rgb(102,102,102)" stroke-width="0.0" fill="rgb(93,165,218)" stroke-linecap="butt" stroke-miterlimit="10.0"><path d="M 342.9158,239.5048 l -0.0000,-159.7717 h -9.9775 l -0.0000,159.7717 Z"/></g><g stroke-linejoin="miter" stroke-opacity="1.0" fill-opacity="0.5" stroke="rgb(102,102,102)" stroke-width="0.0" fill="rgb(93,165,218)" stroke-linecap="butt" stroke-miterlimit="10.0"><path d="M 332.9382,239.5048 l -0.0000,-166.2921 h -9.9775 l -0.0000,166.2921 Z"/></g><g stroke-linejoin="miter" stroke-opacity="1.0" fill-opacity="0.5" stroke="rgb(102,102,102)" stroke-width="0.0" fill="rgb(93,165,218)" stroke-linecap="butt" stroke-miterlimit="10.0"><path d="M 322.9607,239.5048 l -0.0000,-166.2921 h -9.9775 l -0.0000,166.2921 Z"/></g><g stroke-linejoin="miter" stroke-opacity="1.0" fill-opacity="0.5" stroke="rgb(102,102,102)" stroke-width="0.0" fill="rgb(93,165,218)" stroke-linecap="butt" stroke-miterlimit="10.0"><path d="M 312.9832,239.5048 l -0.0000,-159.7717 h -9.9775 l -0.0000,159.7717 Z"/></g><g stroke-linejoin="miter" stroke-opacity="1.0" fill-opacity="0.5" stroke="rgb(102,102,102)" stroke-width="0.0" fill="rgb(93,165,218)" stroke-linecap="butt" stroke-miterlimit="10.0"><path d="M 303.0057,239.5048 l -0.0000,-147.4878 h -9.9775 l -0.0000,147.4878 Z"/></g><g stroke-linejoin="miter" stroke-opacity="1.0" fill-opacity="0.5" stroke="rgb(102,102,102)" stroke-width="0.0" fill="rgb(93,165,218)" stroke-linecap="butt" stroke-miterlimit="10.0"><path d="M 293.0281,239.5048 l -0.0000,-130.8100 h -9.9775 l -0.0000,130.8100 Z"/></g><g stroke-linejoin="miter" stroke-opacity="1.0" fill-opacity="0.5" stroke="rgb(102,102,102)" stroke-width="0.0" fill="rgb(93,165,218)" stroke-linecap="butt" stroke-miterlimit="10.0"><path d="M 283.0506,239.5048 l -0.0000,-111.4689 h -9.9775 l -0.0000,111.4689 Z"/></g><g stroke-linejoin="miter" stroke-opacity="1.0" fill-opacity="0.5" stroke="rgb(102,102,102)" stroke-width="0.0" fill="rgb(93,165,218)" stroke-linecap="butt" stroke-miterlimit="10.0"><path d="M 273.0731,239.5048 l -0.0000,-91.2630 h -9.9775 l -0.0000,91.2630 Z"/></g><g stroke-linejoin="miter" stroke-opacity="1.0" fill-opacity="0.5" stroke="rgb(102,102,102)" stroke-width="0.0" fill="rgb(93,165,218)" stroke-linecap="butt" stroke-miterlimit="10.0"><path d="M 263.0956,239.5048 l -0.0000,-71.7900 h -9.9775 l -0.0000,71.7900 Z"/></g><g stroke-linejoin="miter" stroke-opacity="1.0" fill-opacity="0.5" stroke="rgb(102,102,102)" stroke-width="0.0" fill="rgb(93,165,218)" stroke-linecap="butt" stroke-miterlimit="10.0"><path d="M 253.1180,239.5048 l -0.0000,-54.2577 h -9.9775 l -0.0000,54.2577 Z"/></g><g stroke-linejoin="miter" stroke-opacity="1.0" fill-opacity="0.5" stroke="rgb(102,102,102)" stroke-width="0.0" fill="rgb(93,165,218)" stroke-linecap="butt" stroke-miterlimit="10.0"><path d="M 243.1405,239.5048 l -0.0000,-39.3992 h -9.9775 l -0.0000,39.3992 Z"/></g><g stroke-linejoin="miter" stroke-opacity="1.0" fill-opacity="0.5" stroke="rgb(102,102,102)" stroke-width="0.0" fill="rgb(93,165,218)" stroke-linecap="butt" stroke-miterlimit="10.0"><path d="M 233.1630,239.5048 l -0.0000,-27.4879 h -9.9775 l -0.0000,27.4879 Z"/></g><g stroke-linejoin="miter" stroke-opacity="1.0" fill-opacity="0.5" stroke="rgb(102,102,102)" stroke-width="0.0" fill="rgb(93,165,218)" stroke-linecap="butt" stroke-miterlimit="10.0"><path d="M 223.1855,239.5048 l -0.0000,-18.4257 h -9.9775 l -0.0000,18.4257 Z"/></g><g stroke-linejoin="miter" stroke-opacity="1.0" fill-opacity="0.5" stroke="rgb(102,102,102)" stroke-width="0.0" fill="rgb(93,165,218)" stroke-linecap="butt" stroke-miterlimit="10.0"><path d="M 213.2079,239.5048 l -0.0000,-11.8668 h -9.9775 l -0.0000,11.8668 Z"/></g><g stroke-linejoin="miter" stroke-opacity="1.0" fill-opacity="0.5" stroke="rgb(102,102,102)" stroke-width="0.0" fill="rgb(93,165,218)" stroke-linecap="butt" stroke-miterlimit="10.0"><path d="M 203.2304,239.5048 l -0.0000,-7.3430 h -9.9775 l -0.0000,7.3430 Z"/></g><g stroke-linejoin="miter" stroke-opacity="1.0" fill-opacity="0.5" stroke="rgb(102,102,102)" stroke-width="0.0" fill="rgb(93,165,218)" stroke-linecap="butt" stroke-miterlimit="10.0"><path d="M 193.2529,239.5048 l -0.0000,-4.3656 h -9.9775 l -0.0000,4.3656 Z"/></g><g stroke-linejoin="miter" stroke-opacity="1.0" fill-opacity="0.5" stroke="rgb(102,102,102)" stroke-width="0.0" fill="rgb(93,165,218)" stroke-linecap="butt" stroke-miterlimit="10.0"><path d="M 183.2754,239.5048 l -0.0000,-2.4936 h -9.9775 l -0.0000,2.4936 Z"/></g><g stroke-linejoin="miter" stroke-opacity="1.0" fill-opacity="0.5" stroke="rgb(102,102,102)" stroke-width="0.0" fill="rgb(93,165,218)" stroke-linecap="butt" stroke-miterlimit="10.0"><path d="M 173.2979,239.5048 l -0.0000,-1.3685 h -9.9775 l -0.0000,1.3685 Z"/></g><g stroke-linejoin="miter" stroke-opacity="1.0" fill-opacity="0.5" stroke="rgb(102,102,102)" stroke-width="0.0" fill="rgb(93,165,218)" stroke-linecap="butt" stroke-miterlimit="10.0"><path d="M 163.3203,239.5048 l -0.0000,-0.7216 h -9.9775 l -0.0000,0.7216 Z"/></g><g stroke-linejoin="miter" stroke-opacity="1.0" fill-opacity="0.5" stroke="rgb(102,102,102)" stroke-width="0.0" fill="rgb(93,165,218)" stroke-linecap="butt" stroke-miterlimit="10.0"><path d="M 153.3428,239.5048 l -0.0000,-0.3656 h -9.9775 l -0.0000,0.3656 Z"/></g><g stroke-linejoin="miter" stroke-opacity="1.0" fill-opacity="0.5" stroke="rgb(102,102,102)" stroke-width="0.0" fill="rgb(93,165,218)" stroke-linecap="butt" stroke-miterlimit="10.0"><path d="M 143.3653,239.5048 l -0.0000,-0.1779 h -9.9775 l -0.0000,0.1779 Z"/></g><g stroke-linejoin="miter" stroke-opacity="1.0" fill-opacity="0.5" stroke="rgb(102,102,102)" stroke-width="0.0" fill="rgb(93,165,218)" stroke-linecap="butt" stroke-miterlimit="10.0"><path d="M 133.3878,239.5048 l -0.0000,-0.0832 h -9.9775 l -0.0000,0.0832 Z"/></g><g stroke-linejoin="miter" stroke-opacity="1.0" fill-opacity="0.5" stroke="rgb(102,102,102)" stroke-width="0.0" fill="rgb(93,165,218)" stroke-linecap="butt" stroke-miterlimit="10.0"><path d="M 123.4102,239.5048 l -0.0000,-0.0374 h -9.9775 l -0.0000,0.0374 Z"/></g><g stroke-linejoin="miter" stroke-opacity="1.0" fill-opacity="0.5" stroke="rgb(102,102,102)" stroke-width="0.0" fill="rgb(93,165,218)" stroke-linecap="butt" stroke-miterlimit="10.0"><path d="M 113.4327,239.5048 l -0.0000,-0.0161 h -9.9775 l -0.0000,0.0161 Z"/></g><g stroke-linejoin="miter" stroke-opacity="1.0" fill-opacity="0.5" stroke="rgb(102,102,102)" stroke-width="0.0" fill="rgb(93,165,218)" stroke-linecap="butt" stroke-miterlimit="10.0"><path d="M 103.4552,239.5048 l -0.0000,-0.0067 h -9.9775 l -0.0000,0.0067 Z"/></g><g stroke-linejoin="miter" stroke-opacity="1.0" fill-opacity="0.5" stroke="rgb(102,102,102)" stroke-width="0.0" fill="rgb(93,165,218)" stroke-linecap="butt" stroke-miterlimit="10.0"><path d="M 93.4777,239.5048 l -0.0000,-0.0027 h -9.9775 l -0.0000,0.0027 Z"/></g><g stroke-linejoin="miter" stroke-opacity="1.0" fill-opacity="0.5" stroke="rgb(102,102,102)" stroke-width="0.0" fill="rgb(93,165,218)" stroke-linecap="butt" stroke-miterlimit="10.0"><path d="M 83.5001,239.5048 l -0.0000,-0.0010 h -9.9775 l -0.0000,0.0010 Z"/></g><g stroke-linejoin="miter" stroke-opacity="1.0" fill-opacity="1.0" stroke="rgb(0,0,0)" fill-rule="evenodd" stroke-width="0.0" fill="rgb(31,119,180)" stroke-linecap="butt" stroke-miterlimit="10.0"><path d="M 54.0143,239.5048 ZM 40.8323,228.0325 c -3.2541,-0.0000 -4.0815,2.2614 -4.0815 3.9160c -0.0000,0.9928 0.0827,1.7650 0.2206 2.3992l 8.1629,0.0000 l 0.0000,-1.3789 c 0.0000,-2.0683 -0.4688,-3.3920 -1.4065 -4.0539c -0.7722,-0.5240 -1.7374,-0.8825 -2.8956 -0.8825ZM 40.8323,228.0325 ZM 40.8047,225.7988 c 2.8956,0.0000 4.4675,2.5923 4.8536 3.7781l 5.6534,-2.9232 c 1.1858,-0.6067 2.1235,-1.3513 2.1235 -2.5923l 0.5791,-0.0827 c 0.1103,0.2758 0.1655,0.7446 0.1655 1.1583c -0.0000,1.6546 -1.0479,2.8681 -2.3441 3.5851l -5.2949,2.8405 c -0.1930,0.1103 -0.3585,0.9376 -0.3585 2.7853l 5.8464,0.0000 c 0.8273,0.0000 1.2134,-0.4137 1.2134 -1.4892l 0.0000,-0.7446 c 0.0000,-0.1103 0.0827,-0.2206 0.2206 -0.2206l 0.5240,0.0000 l 0.0552,0.0552 c 0.0000,-0.0000 -0.0552,2.3992 -0.0552 3.4748c -0.0000,0.9928 0.0552,3.5575 0.0552 3.5575l -0.0552,0.0552 l -0.5240,-0.0000 c -0.1379,-0.0000 -0.2206,-0.0827 -0.2206 -0.2206l 0.0000,-0.7170 c 0.0000,-1.1307 -0.4412,-1.5168 -1.2134 -1.5168l -13.8439,-0.0000 c -0.7997,-0.0000 -1.2686,0.1103 -1.2686 0.8273c -0.0000,0.0827 -0.0000,0.1379 0.0276 0.1930l 0.0827,0.8273 c -0.0000,0.1379 -0.0827,0.2206 -0.1930 0.2206l -0.5240,-0.0000 c -0.1379,-0.5791 -0.3309,-3.1714 -0.3309 -6.3980c 0.0000,-1.7374 0.1379,-3.6678 1.3789 -4.9915c 0.9376,-0.9928 2.0683,-1.4616 3.4472 -1.4616ZM 54.0143,223.6753 ZM 46.3754,220.5315 l 0.0000,-5.0743 c 0.0000,-0.2758 -0.1379,-0.3861 -0.3861 -0.3861c -2.5647,-0.0000 -3.2266,1.2961 -3.2266 2.2889c -0.0000,0.6343 0.2482,2.7026 3.6126 3.1714ZM 46.3754,220.5315 ZM 51.4496,213.2510 l 0.4412,-0.5515 c 1.4340,1.0479 2.4544,2.6750 2.4544 4.6606c -0.0000,3.7781 -2.8129,5.3776 -5.8188 5.3776c -4.1918,-0.0000 -6.7013,-2.7577 -6.7013 -5.3776c 0.0000,-3.6402 2.8405,-4.4951 5.1570 -4.4951c 0.3034,0.0000 0.4688,0.1930 0.4688 0.4964l -0.0000,7.2529 c 0.1655,0.0276 0.3309,0.0276 0.5515 0.0276c 2.8129,0.0000 4.9915,-1.9580 4.9915 -3.9436c 0.0000,-1.5168 -0.4964,-2.4820 -1.5443 -3.4472ZM 54.0143,211.8721 ZM 51.5048,201.2824 c 2.0959,1.2134 2.8405,2.5371 2.8405 4.1918c -0.0000,3.3093 -2.5095,5.3776 -6.0670 5.3776c -3.9160,-0.0000 -6.4531,-2.4544 -6.4531 -5.4328c 0.0000,-2.6474 1.3513,-4.0539 2.8129 -4.0539c 0.7997,0.0000 1.2134,0.4964 1.2134 1.0755c -0.0000,0.5791 -0.3034,1.1307 -0.9928 1.2134c -0.9101,0.1103 -2.0959,0.2758 -2.0959 1.9028c -0.0000,1.8201 1.9304,3.1714 4.9088 3.1714c 3.2266,0.0000 5.4603,-1.7374 5.4603 -3.8608c 0.0000,-1.1858 -0.7722,-2.2338 -2.0132 -3.0887ZM 54.0143,200.7584 ZM 43.2315,196.2357 l 7.0598,0.0000 c 1.7098,0.0000 2.5371,-0.1655 2.5371 -0.9101c 0.0000,-0.7170 -0.2206,-1.2686 -0.7722 -1.9856l 0.4688,-0.4964 c 1.2134,1.0755 1.8201,2.1786 1.8201 3.4472c -0.0000,1.2686 -0.7722,2.0132 -2.7302 2.0132l -8.3835,-0.0000 l -0.0000,1.7925 c -0.0000,0.0827 -0.0276,0.1103 -0.1103 0.1103l -0.8549,-0.0000 c -0.0827,-0.0000 -0.1103,-0.0276 -0.1103 -0.0827c 0.0000,-1.8477 -1.0755,-2.2889 -3.1714 -2.2889l -0.5240,-0.0000 l -0.5515,-1.5995 l 4.2469,0.0000 l 0.0000,-3.0335 c 0.0000,-0.1379 0.0552,-0.2206 0.1655 -0.2206l 0.5515,0.0000 c 0.2482,0.0000 0.3585,0.3861 0.3585 0.6619l -0.0000,2.5923 ZM 54.0143,185.5357 ZM 54.3452,175.7457 c -0.0000,5.9292 -4.5779,8.7696 -9.0178 8.7696c -5.4328,-0.0000 -9.4591,-4.2194 -9.4591 -8.7972c 0.0000,-3.3920 1.1583,-4.4675 1.2410 -6.0395c 1.5168,-0.0827 2.8405,-0.3309 4.2745 -0.6067l 0.1103,0.8273 c -2.3717,0.7170 -4.6054,2.3165 -4.6054 6.1222c -0.0000,2.1786 2.3165,6.0946 7.9147 6.0946c 4.0263,0.0000 8.4111,-2.0683 8.4111 -6.3428c 0.0000,-2.5647 -0.9101,-4.4400 -3.0611 -6.3980l 0.4137,-0.6343 c 2.4544,1.8753 3.7781,4.3297 3.7781 7.0047ZM 54.0143,167.7758 ZM 34.7652,163.2807 l 9.3488,0.0000 c -1.8477,-1.8477 -2.2889,-3.4748 -2.2889 -4.5503c 0.0000,-1.9856 1.5168,-2.9784 4.3572 -2.9784l 5.8464,0.0000 c 0.7997,0.0000 1.2134,-0.2758 1.2134 -1.1858l 0.0000,-0.5240 c 0.0000,-0.1103 0.0827,-0.2206 0.2206 -0.2206l 0.5240,0.0000 l 0.0552,0.0552 c 0.0000,-0.0000 -0.0552,1.8753 -0.0552 2.9784c -0.0000,0.9652 0.0552,2.8405 0.0552 2.8405l -0.0552,0.0552 l -0.5240,-0.0000 c -0.1379,-0.0000 -0.2206,-0.0827 -0.2206 -0.2206l 0.0000,-0.5240 c 0.0000,-0.9376 -0.4137,-1.1858 -1.2134 -1.1858l -6.1498,-0.0000 c -2.2338,-0.0000 -2.7577,0.6067 -2.7577 2.1510c -0.0000,0.7997 0.7170,1.9856 2.0132 3.3093l 6.8944,0.0000 c 0.7997,0.0000 1.2134,-0.2758 1.2134 -1.1858l 0.0000,-0.5240 c 0.0000,-0.1103 0.0827,-0.2206 0.2206 -0.2206l 0.5240,0.0000 l 0.0552,0.0552 c 0.0000,-0.0000 -0.0552,1.8753 -0.0552 2.9508c -0.0000,0.9928 0.0552,2.8405 0.0552 2.8405l -0.0552,0.0552 l -0.5240,-0.0000 c -0.1379,-0.0000 -0.2206,-0.0552 -0.2206 -0.1930l 0.0000,-0.5240 c 0.0000,-0.9376 -0.4137,-1.1858 -1.2134 -1.1858l -13.8163,-0.0000 c -1.5719,-0.0000 -2.0132,0.2482 -2.0132 0.7997l 0.1103,0.9101 c -0.0000,0.0827 -0.0552,0.1379 -0.1379 0.1379l -0.6894,0.0552 c 0.0000,-0.4412 -0.1655,-1.4340 -0.2482 -1.9028c -0.1103,-0.4964 -0.2206,-0.9101 -0.4688 -1.4616l 0.0000,-0.6067 ZM 54.0143,153.4907 ZM 47.2578,145.4656 l 0.5515,2.1786 c 0.7446,2.4268 2.0132,2.7853 3.2541 2.7853c 0.8549,0.0000 2.1510,-0.4137 2.1510 -2.1510c 0.0000,-0.8273 -0.7997,-2.0959 -1.4065 -2.8129l -4.5503,-0.0000 ZM 47.2578,145.4656 ZM 54.3452,143.7007 c -0.0000,1.0479 -0.9376,1.6271 -1.5995 1.7374l 0.4412,0.6343 c 0.8825,1.2686 1.1583,1.7374 1.1583 3.0059c -0.0000,1.9304 -1.1031,3.3369 -3.1714 3.3369c -2.0959,-0.0000 -3.5299,-1.7925 -4.1918 -4.4124l -0.6343,-2.5371 c -3.1163,-0.0000 -3.6954,1.4340 -3.6954 2.3717c -0.0000,1.0479 0.4688,2.2614 1.3237 2.2614c 0.3034,0.0000 0.4688,-0.0552 0.5515 -0.0827c 0.1103,-0.0552 0.3034,-0.0827 0.4964 -0.0827c 0.3585,0.0000 0.9101,0.2758 0.9101 1.0755c -0.0000,0.6619 -0.4412,1.1031 -1.1031 1.1031c -1.5995,-0.0000 -3.0059,-2.5923 -3.0059 -4.3572c 0.0000,-2.0132 0.8273,-4.3297 4.7433 -4.3297l 4.0539,0.0000 c 1.6822,0.0000 2.3992,-0.0276 2.3992 -0.6619c 0.0000,-0.6067 -0.7722,-0.7722 -1.3789 -0.7997l 0.1379,-0.6894 c 2.0132,0.1655 2.5647,1.0204 2.5647 2.4268ZM 54.0143,141.0532 ZM 52.0287,138.5988 l -6.8668,-0.0000 c -1.3789,-0.0000 -1.6822,0.1930 -1.6822 0.6067c -0.0000,0.3585 0.0276,0.6894 0.1379 1.1583l -0.7722,0.1379 c -0.3034,-1.7374 -0.3861,-2.0407 -0.7997 -2.8681c -0.1379,-0.2758 -0.2206,-0.4964 -0.2206 -0.6894l 0.0000,-0.4137 l 2.4820,0.0827 l 0.0000,-0.0827 c -1.0755,-0.7170 -2.4820,-1.9304 -2.4820 -3.2266c 0.0000,-1.1307 0.5515,-1.5443 1.2686 -1.5443c 0.7170,0.0000 1.1583,0.4688 1.1583 1.1858c -0.0000,0.5515 -0.2206,0.8549 -0.4964 1.1307c -0.1655,0.1655 -0.2482,0.3585 -0.2482 0.5515c -0.0000,0.3034 0.4964,0.9101 1.4340 1.5719c 0.2482,0.1930 0.6067,0.3309 0.9652 0.3309l 6.1222,0.0000 c 0.7997,0.0000 1.2134,-0.2758 1.2134 -1.1858l 0.0000,-0.7997 c 0.0000,-0.1379 0.0827,-0.2482 0.2206 -0.2482l 0.5240,0.0000 l 0.0552,0.0552 c 0.0000,-0.0000 -0.0552,2.1786 -0.0552 3.2541c -0.0000,0.9928 0.0552,2.8681 0.0552 2.8681l -0.0552,0.0276 l -0.5240,-0.0000 c -0.1379,-0.0000 -0.2206,-0.0552 -0.2206 -0.1930l 0.0000,-0.5240 c 0.0000,-0.9376 -0.4137,-1.1858 -1.2134 -1.1858ZM 54.0143,131.4838 ZM 43.2315,126.9611 l 7.0598,0.0000 c 1.7098,0.0000 2.5371,-0.1655 2.5371 -0.9101c 0.0000,-0.7170 -0.2206,-1.2686 -0.7722 -1.9856l 0.4688,-0.4964 c 1.2134,1.0755 1.8201,2.1786 1.8201 3.4472c -0.0000,1.2686 -0.7722,2.0132 -2.7302 2.0132l -8.3835,-0.0000 l -0.0000,1.7925 c -0.0000,0.0827 -0.0276,0.1103 -0.1103 0.1103l -0.8549,-0.0000 c -0.0827,-0.0000 -0.1103,-0.0276 -0.1103 -0.0827c 0.0000,-1.8477 -1.0755,-2.2889 -3.1714 -2.2889l -0.5240,-0.0000 l -0.5515,-1.5995 l 4.2469,0.0000 l 0.0000,-3.0335 c 0.0000,-0.1379 0.0552,-0.2206 0.1655 -0.2206l 0.5515,0.0000 c 0.2482,0.0000 0.3585,0.3861 0.3585 0.6619l -0.0000,2.5923 Z"/></g><g stroke-linejoin="miter" stroke-opacity="1.0" fill-opacity="0.63" stroke="rgb(0,0,0)" fill-rule="evenodd" stroke-width="0.0" fill="rgb(0,0,0)" stroke-linecap="butt" stroke-miterlimit="10.0"><path d="M 285.0376,313.1672 ZM 288.0876,310.4356 c 0.0000,-0.8011 -0.3764,-1.2644 -0.9556 -1.2644c -0.5019,-0.0000 -0.8397,0.3475 -0.8397 1.1003c 0.0000,0.5019 0.1930,1.2934 0.9652 1.2934c 0.3378,-0.0000 0.8301,-0.1641 0.8301 -1.1293ZM 288.0876,310.4356 ZM 286.2827,313.2347 c -0.2992,0.2799 -0.3668,0.5791 -0.3668 0.9073c 0.0000,0.7239 0.8687,0.9363 1.1969 0.9363c 0.8301,-0.0000 1.8822,-0.2896 1.8822 -0.9845c 0.0000,-0.2510 -0.1351,-0.4150 -0.5116 -0.5984c -0.2703,-0.1351 -0.6660,-0.2413 -1.1293 -0.2413c -0.0772,-0.0000 -0.1834,0.0097 -0.3185 0.0193c -0.1351,0.0097 -0.2799,0.0097 -0.3861 0.0097c -0.1544,-0.0000 -0.2317,-0.0193 -0.3668 -0.0483ZM 286.2827,313.2347 ZM 289.2169,309.4222 c -0.1544,-0.0000 -0.2510,-0.0869 -0.2896 -0.1641c -0.0579,-0.0869 -0.0965,-0.1158 -0.1641 -0.1158c -0.1158,-0.0000 -0.2992,0.1351 -0.3668 0.2317c 0.2703,0.2896 0.3957,0.5695 0.3957 1.0231c 0.0000,0.9459 -0.7722,1.4575 -1.5829 1.4575c -0.3571,-0.0000 -0.6467,-0.0676 -0.8687 -0.2027c -0.1062,0.1641 -0.1641,0.3668 -0.1641 0.5598c 0.0000,0.4150 0.3185,0.5212 0.5888 0.5212c 0.0483,-0.0000 0.1641,-0.0097 0.2992 -0.0193c 0.2220,-0.0290 0.4633,-0.0483 0.6274 -0.0483c 0.3378,-0.0000 0.9749,0.0676 1.3609 0.3957c 0.2606,0.2413 0.4054,0.4730 0.4054 0.7818c 0.0000,1.0424 -1.3706,1.5926 -2.6157 1.5926c -0.7046,-0.0000 -1.4864,-0.2606 -1.4864 -1.1003c 0.0000,-0.4150 0.2606,-0.8590 0.7529 -1.1679c -0.2413,-0.1255 -0.4150,-0.3668 -0.4150 -0.7143c 0.0000,-0.3282 0.1448,-0.7432 0.4054 -0.9749c -0.2606,-0.2606 -0.4826,-0.5888 -0.4826 -1.1196c 0.0000,-0.8880 0.7818,-1.4575 1.6023 -1.4575c 0.5405,-0.0000 0.8783,0.2220 0.9845 0.2992c 0.2413,-0.3282 0.6756,-0.4923 0.9170 -0.4923c 0.2510,-0.0000 0.4247,0.1641 0.4247 0.3668c 0.0000,0.2123 -0.1351,0.3475 -0.3282 0.3475ZM 289.4293,313.1672 ZM 290.2883,312.4722 v -2.4034 c 0.0000,-0.4826 -0.0676,-0.5888 -0.2123 -0.5888c -0.1255,-0.0000 -0.2413,0.0097 -0.4054 0.0483l -0.0483,-0.2703 c 0.6081,-0.1062 0.7143,-0.1351 1.0038 -0.2799c 0.0965,-0.0483 0.1737,-0.0772 0.2413 -0.0772h 0.1448 l -0.0290,0.8687 h 0.0290 c 0.2510,-0.3764 0.6756,-0.8687 1.1293 -0.8687c 0.3957,-0.0000 0.5405,0.1930 0.5405 0.4440c 0.0000,0.2510 -0.1641,0.4054 -0.4150 0.4054c -0.1930,-0.0000 -0.2992,-0.0772 -0.3957 -0.1737c -0.0579,-0.0579 -0.1255,-0.0869 -0.1930 -0.0869c -0.1062,-0.0000 -0.3185,0.1737 -0.5502 0.5019c -0.0676,0.0869 -0.1158,0.2123 -0.1158 0.3378v 2.1428 c 0.0000,0.2799 0.0965,0.4247 0.4150 0.4247h 0.2799 c 0.0483,-0.0000 0.0869,0.0290 0.0869 0.0772v 0.1834 l -0.0193,0.0193 c 0.0000,-0.0000 -0.7625,-0.0193 -1.1389 -0.0193c -0.3475,-0.0000 -1.0038,0.0193 -1.0038 0.0193l -0.0097,-0.0193 v -0.1834 c 0.0000,-0.0483 0.0193,-0.0772 0.0676 -0.0772h 0.1834 c 0.3282,-0.0000 0.4150,-0.1448 0.4150 -0.4247ZM 292.7786,313.1672 ZM 293.8789,310.4935 h 1.7760 c 0.0965,-0.0000 0.1351,-0.0483 0.1351 -0.1351c 0.0000,-0.8976 -0.4536,-1.1293 -0.8011 -1.1293c -0.2220,-0.0000 -0.9459,0.0869 -1.1100 1.2644ZM 293.8789,310.4935 ZM 296.4271,312.2695 l 0.1930,0.1544 c -0.3668,0.5019 -0.9363,0.8590 -1.6312 0.8590c -1.3223,-0.0000 -1.8822,-0.9845 -1.8822 -2.0366c 0.0000,-1.4671 0.9652,-2.3455 1.8822 -2.3455c 1.2741,-0.0000 1.5733,0.9942 1.5733 1.8049c 0.0000,0.1062 -0.0676,0.1641 -0.1737 0.1641h -2.5385 c -0.0097,0.0579 -0.0097,0.1158 -0.0097 0.1930c 0.0000,0.9845 0.6853,1.7470 1.3803 1.7470c 0.5309,-0.0000 0.8687,-0.1737 1.2065 -0.5405ZM 296.9097,313.1672 ZM 298.9173,309.2098 c 0.0000,0.0483 -0.0579,0.0772 -0.1062 0.0772c -0.2896,-0.0000 -0.4150,0.0579 -0.4150 0.2123c 0.0000,0.0579 0.0193,0.1351 0.0579 0.2220l 1.0617,2.4902 l 1.0714,-2.4516 c 0.0483,-0.0869 0.0676,-0.1641 0.0676 -0.2220c 0.0000,-0.2027 -0.1930,-0.2510 -0.4054 -0.2510h -0.0386 c -0.0483,-0.0000 -0.0965,-0.0386 -0.0965 -0.0676v -0.1834 l 0.0193,-0.0290 c 0.0000,-0.0000 0.5695,0.0193 0.9073 0.0193c 0.2703,-0.0000 0.6660,-0.0193 0.6660 -0.0193l 0.0290,0.0193 v 0.1834 c 0.0000,0.0483 -0.0386,0.0772 -0.1062 0.0772c -0.3668,-0.0000 -0.5502,0.3764 -0.6853 0.6563c -0.5116,1.0810 -0.9363,2.0752 -1.7084 3.9381c -0.2896,0.6950 -0.6370,1.5057 -1.3223 1.5057c -0.1834,-0.0000 -0.5598,-0.1062 -0.5598 -0.4536c 0.0000,-0.2896 0.2123,-0.3764 0.3668 -0.3764c 0.1448,-0.0000 0.2413,0.0579 0.2992 0.1351c 0.0965,0.0965 0.1641,0.1641 0.2606 0.1641c 0.1448,-0.0000 0.4826,-0.8301 0.7239 -1.4189c 0.0579,-0.1158 0.0772,-0.2123 0.0772 -0.2992c 0.0000,-0.0965 -0.0869,-0.3571 -0.1641 -0.5502l -1.2162,-2.8281 c -0.1544,-0.3668 -0.2606,-0.4730 -0.5888 -0.4730c -0.0579,-0.0000 -0.0965,-0.0290 -0.0965 -0.0676v -0.1930 l 0.0193,-0.0193 c 0.0000,-0.0000 0.4247,0.0193 0.7143 0.0193c 0.4536,-0.0000 1.1486,-0.0193 1.1486 -0.0193l 0.0193,0.0290 v 0.1737 ZM 304.2356,313.1672 ZM 306.1853,309.2098 c 0.0000,0.0483 -0.0386,0.0772 -0.0869 0.0772h -0.1448 c -0.2123,-0.0000 -0.2799,0.0579 -0.2799 0.1544c 0.0000,0.0676 0.0386,0.1544 0.0869 0.2896l 1.0135,2.5482 l 0.8397,-2.0945 l -0.1737,-0.4343 c -0.1255,-0.3282 -0.3282,-0.4633 -0.6177 -0.4633c -0.0483,-0.0000 -0.0965,-0.0193 -0.0965 -0.0676v -0.1930 l 0.0193,-0.0193 c 0.0000,-0.0000 0.5405,0.0193 0.8783 0.0193l 0.9652,-0.0193 l 0.0290,0.0193 v 0.1834 c 0.0000,0.0483 -0.0483,0.0772 -0.0965 0.0772h -0.1737 c -0.1930,-0.0000 -0.2799,0.0386 -0.2799 0.1351c 0.0000,0.0772 0.0386,0.1737 0.0965 0.3089l 1.0038,2.5482 l 1.0038,-2.4999 c 0.0290,-0.0579 0.0483,-0.1351 0.0483 -0.2123c 0.0000,-0.1641 -0.1062,-0.2799 -0.4343 -0.2799h -0.1448 c -0.0483,-0.0000 -0.0869,-0.0386 -0.0869 -0.0676v -0.1930 l 0.0290,-0.0193 c 0.0000,-0.0000 0.6370,0.0193 0.9942 0.0193c 0.3282,-0.0000 0.7143,-0.0193 0.7143 -0.0193l 0.0097,0.0193 v 0.1834 c 0.0000,0.0579 -0.0579,0.0772 -0.1158 0.0772c -0.2413,-0.0000 -0.4923,0.1062 -0.6660 0.5309l -1.3127,3.2624 c -0.0579,0.1448 -0.1351,0.2027 -0.2220 0.2027c -0.0965,-0.0000 -0.1737,-0.0579 -0.2317 -0.1930l -0.9652,-2.4130 l -0.9652,2.3937 c -0.0676,0.1544 -0.1448,0.2123 -0.2317 0.2123c -0.0965,-0.0000 -0.1737,-0.0579 -0.2317 -0.1930l -1.3223,-3.3396 c -0.1448,-0.3764 -0.3185,-0.4633 -0.6081 -0.4633c -0.0483,-0.0000 -0.1158,-0.0193 -0.1158 -0.0676v -0.1930 l 0.0193,-0.0193 c 0.0000,-0.0000 0.4536,0.0193 0.8783 0.0193c 0.4440,-0.0000 0.9556,-0.0193 0.9556 -0.0193l 0.0193,0.0290 v 0.1737 ZM 311.4168,313.1672 ZM 312.1697,307.6558 c 0.0000,-0.2510 0.2027,-0.4633 0.4536 -0.4633c 0.2606,-0.0000 0.4633,0.2123 0.4633 0.4633c 0.0000,0.2606 -0.2027,0.4633 -0.4633 0.4633c -0.2510,-0.0000 -0.4536,-0.2027 -0.4536 -0.4633ZM 312.1697,307.6558 ZM 313.0866,312.4722 c 0.0000,0.2799 0.1062,0.4247 0.4150 0.4247h 0.1834 c 0.0483,-0.0000 0.0869,0.0290 0.0869 0.0772v 0.1834 l -0.0193,0.0193 c 0.0000,-0.0000 -0.6660,-0.0193 -1.0424 -0.0193c -0.3378,-0.0000 -0.9942,0.0193 -0.9942 0.0193l -0.0193,-0.0193 v -0.1834 c 0.0000,-0.0483 0.0290,-0.0772 0.0772 -0.0772h 0.1834 c 0.3185,-0.0000 0.4150,-0.1448 0.4150 -0.4247v -2.4034 c 0.0000,-0.5116 -0.0869,-0.5888 -0.2220 -0.5888c -0.1255,-0.0000 -0.2413,0.0097 -0.4054 0.0483l -0.0483,-0.2703 c 0.6177,-0.1062 0.7239,-0.1448 1.0038 -0.2799c 0.1062,-0.0386 0.1737,-0.0772 0.2413 -0.0772h 0.1448 v 3.5713 ZM 313.9649,313.1672 ZM 317.1888,312.3081 v -2.4999 c -0.2317,-0.3668 -0.4923,-0.5695 -0.9459 -0.5695c -0.1930,-0.0000 -0.5888,0.0290 -0.8976 0.4826c -0.1351,0.2027 -0.2992,0.6177 -0.2992 1.3127c 0.0000,1.2644 0.6563,1.8436 1.1776 1.8436c 0.3185,-0.0000 0.5791,-0.1930 0.9652 -0.5695ZM 317.1888,312.3081 ZM 317.9127,306.4300 v 5.5789 c 0.0000,0.2896 0.0193,0.4440 0.0386 0.5116c 0.0290,0.0869 0.1351,0.1448 0.2123 0.1448c 0.1158,-0.0000 0.3282,-0.0000 0.4730 -0.0290l 0.0386,0.2703 c -0.5598,0.0965 -1.0617,0.2027 -1.2644 0.3764h -0.2317 l 0.0290,-0.6660 c -0.3668,0.3764 -0.7432,0.6660 -1.2355 0.6660c -1.0424,-0.0000 -1.6795,-0.8880 -1.6795 -2.0752c 0.0000,-0.7143 0.1930,-1.3127 0.6081 -1.7277c 0.3861,-0.3668 0.8108,-0.5791 1.4478 -0.5791c 0.1930,-0.0000 0.6177,0.0869 0.8397 0.2123v -1.4768 c 0.0000,-0.5502 -0.0869,-0.7046 -0.2799 -0.7046l -0.3185,0.0386 c -0.0193,-0.0000 -0.0483,-0.0193 -0.0483 -0.0483l -0.0193,-0.2413 c 0.1544,-0.0000 0.5019,-0.0579 0.6660 -0.0869c 0.1834,-0.0386 0.3185,-0.0772 0.5116 -0.1641h 0.2123 ZM 318.7331,313.1672 ZM 319.8334,310.4935 h 1.7760 c 0.0965,-0.0000 0.1351,-0.0483 0.1351 -0.1351c 0.0000,-0.8976 -0.4536,-1.1293 -0.8011 -1.1293c -0.2220,-0.0000 -0.9459,0.0869 -1.1100 1.2644ZM 319.8334,310.4935 ZM 322.3816,312.2695 l 0.1930,0.1544 c -0.3668,0.5019 -0.9363,0.8590 -1.6312 0.8590c -1.3223,-0.0000 -1.8822,-0.9845 -1.8822 -2.0366c 0.0000,-1.4671 0.9652,-2.3455 1.8822 -2.3455c 1.2741,-0.0000 1.5733,0.9942 1.5733 1.8049c 0.0000,0.1062 -0.0676,0.1641 -0.1737 0.1641h -2.5385 c -0.0097,0.0579 -0.0097,0.1158 -0.0097 0.1930c 0.0000,0.9845 0.6853,1.7470 1.3803 1.7470c 0.5309,-0.0000 0.8687,-0.1737 1.2065 -0.5405ZM 322.8642,313.1672 ZM 323.7232,312.4722 v -2.4034 c 0.0000,-0.4826 -0.0676,-0.5888 -0.2123 -0.5888c -0.1255,-0.0000 -0.2413,0.0097 -0.4054 0.0483l -0.0483,-0.2703 c 0.6081,-0.1062 0.7143,-0.1351 1.0038 -0.2799c 0.0965,-0.0483 0.1737,-0.0772 0.2413 -0.0772h 0.1448 l -0.0290,0.8687 h 0.0290 c 0.2510,-0.3764 0.6756,-0.8687 1.1293 -0.8687c 0.3957,-0.0000 0.5405,0.1930 0.5405 0.4440c 0.0000,0.2510 -0.1641,0.4054 -0.4150 0.4054c -0.1930,-0.0000 -0.2992,-0.0772 -0.3957 -0.1737c -0.0579,-0.0579 -0.1255,-0.0869 -0.1930 -0.0869c -0.1062,-0.0000 -0.3185,0.1737 -0.5502 0.5019c -0.0676,0.0869 -0.1158,0.2123 -0.1158 0.3378v 2.1428 c 0.0000,0.2799 0.0965,0.4247 0.4150 0.4247h 0.2799 c 0.0483,-0.0000 0.0869,0.0290 0.0869 0.0772v 0.1834 l -0.0193,0.0193 c 0.0000,-0.0000 -0.7625,-0.0193 -1.1389 -0.0193c -0.3475,-0.0000 -1.0038,0.0193 -1.0038 0.0193l -0.0097,-0.0193 v -0.1834 c 0.0000,-0.0483 0.0193,-0.0772 0.0676 -0.0772h 0.1834 c 0.3282,-0.0000 0.4150,-0.1448 0.4150 -0.4247ZM 328.6265,313.1672 ZM 331.8503,312.3081 v -2.4999 c -0.2317,-0.3668 -0.4923,-0.5695 -0.9459 -0.5695c -0.1930,-0.0000 -0.5888,0.0290 -0.8976 0.4826c -0.1351,0.2027 -0.2992,0.6177 -0.2992 1.3127c 0.0000,1.2644 0.6563,1.8436 1.1776 1.8436c 0.3185,-0.0000 0.5791,-0.1930 0.9652 -0.5695ZM 331.8503,312.3081 ZM 332.5742,306.4300 v 5.5789 c 0.0000,0.2896 0.0193,0.4440 0.0386 0.5116c 0.0290,0.0869 0.1351,0.1448 0.2123 0.1448c 0.1158,-0.0000 0.3282,-0.0000 0.4730 -0.0290l 0.0386,0.2703 c -0.5598,0.0965 -1.0617,0.2027 -1.2644 0.3764h -0.2317 l 0.0290,-0.6660 c -0.3668,0.3764 -0.7432,0.6660 -1.2355 0.6660c -1.0424,-0.0000 -1.6795,-0.8880 -1.6795 -2.0752c 0.0000,-0.7143 0.1930,-1.3127 0.6081 -1.7277c 0.3861,-0.3668 0.8108,-0.5791 1.4478 -0.5791c 0.1930,-0.0000 0.6177,0.0869 0.8397 0.2123v -1.4768 c 0.0000,-0.5502 -0.0869,-0.7046 -0.2799 -0.7046l -0.3185,0.0386 c -0.0193,-0.0000 -0.0483,-0.0193 -0.0483 -0.0483l -0.0193,-0.2413 c 0.1544,-0.0000 0.5019,-0.0579 0.6660 -0.0869c 0.1834,-0.0386 0.3185,-0.0772 0.5116 -0.1641h 0.2123 ZM 333.3946,313.1672 ZM 334.1475,307.6558 c 0.0000,-0.2510 0.2027,-0.4633 0.4536 -0.4633c 0.2606,-0.0000 0.4633,0.2123 0.4633 0.4633c 0.0000,0.2606 -0.2027,0.4633 -0.4633 0.4633c -0.2510,-0.0000 -0.4536,-0.2027 -0.4536 -0.4633ZM 334.1475,307.6558 ZM 335.0645,312.4722 c 0.0000,0.2799 0.1062,0.4247 0.4150 0.4247h 0.1834 c 0.0483,-0.0000 0.0869,0.0290 0.0869 0.0772v 0.1834 l -0.0193,0.0193 c 0.0000,-0.0000 -0.6660,-0.0193 -1.0424 -0.0193c -0.3378,-0.0000 -0.9942,0.0193 -0.9942 0.0193l -0.0193,-0.0193 v -0.1834 c 0.0000,-0.0483 0.0290,-0.0772 0.0772 -0.0772h 0.1834 c 0.3185,-0.0000 0.4150,-0.1448 0.4150 -0.4247v -2.4034 c 0.0000,-0.5116 -0.0869,-0.5888 -0.2220 -0.5888c -0.1255,-0.0000 -0.2413,0.0097 -0.4054 0.0483l -0.0483,-0.2703 c 0.6177,-0.1062 0.7239,-0.1448 1.0038 -0.2799c 0.1062,-0.0386 0.1737,-0.0772 0.2413 -0.0772h 0.1448 v 3.5713 ZM 335.9428,313.1672 ZM 336.3578,311.8159 l 0.2606,-0.0097 c 0.0290,0.2413 0.1351,0.7046 0.3475 0.9266c 0.0965,0.1062 0.3571,0.2799 0.7143 0.2799c 0.3378,-0.0000 0.8397,-0.2703 0.8397 -0.7432c 0.0000,-0.4150 -0.2317,-0.6950 -0.9942 -1.0231c -0.7046,-0.3089 -1.0714,-0.5116 -1.0714 -1.2355c 0.0000,-0.6467 0.5695,-1.1100 1.3320 -1.1100c 0.4826,-0.0000 0.8397,0.0869 1.1389 0.2413c 0.0579,0.3089 0.0869,0.6370 0.1062 0.9845l -0.2606,0.0097 c -0.2027,-0.7915 -0.7818,-0.9459 -0.9845 -0.9459c -0.3668,-0.0000 -0.7432,0.1448 -0.7432 0.6756c 0.0000,0.3861 0.1834,0.5791 0.7143 0.7722c 0.7818,0.2896 1.4092,0.6370 1.4092 1.4092c 0.0000,0.9556 -1.0135,1.2355 -1.4671 1.2355c -0.3378,-0.0000 -0.6177,-0.0386 -0.8687 -0.1062c -0.0676,-0.0097 -0.1158,-0.0193 -0.1834 -0.0193c -0.0483,-0.0000 -0.1255,0.0097 -0.2220 0.0290c 0.0000,-0.4054 -0.0290,-0.8976 -0.0676 -1.3706ZM 339.5237,313.1672 ZM 341.1067,309.3932 v 2.4709 c 0.0000,0.5984 0.0579,0.8880 0.3185 0.8880c 0.2510,-0.0000 0.4440,-0.0772 0.6950 -0.2703l 0.1737,0.1641 c -0.3764,0.4247 -0.7625,0.6370 -1.2065 0.6370c -0.4440,-0.0000 -0.7046,-0.2703 -0.7046 -0.9556v -2.9342 h -0.6274 c -0.0290,-0.0000 -0.0386,-0.0097 -0.0386 -0.0386v -0.2992 c 0.0000,-0.0290 0.0097,-0.0386 0.0290 -0.0386c 0.6467,-0.0000 0.8011,-0.3764 0.8011 -1.1100v -0.1834 l 0.5598,-0.1930 v 1.4864 h 1.0617 c 0.0483,-0.0000 0.0772,0.0193 0.0772 0.0579v 0.1930 c 0.0000,0.0869 -0.1351,0.1255 -0.2317 0.1255h -0.9073 ZM 342.4387,313.1672 ZM 343.2977,312.4722 v -2.4034 c 0.0000,-0.4826 -0.0676,-0.5888 -0.2123 -0.5888c -0.1255,-0.0000 -0.2413,0.0097 -0.4054 0.0483l -0.0483,-0.2703 c 0.6081,-0.1062 0.7143,-0.1351 1.0038 -0.2799c 0.0965,-0.0483 0.1737,-0.0772 0.2413 -0.0772h 0.1448 l -0.0290,0.8687 h 0.0290 c 0.2510,-0.3764 0.6756,-0.8687 1.1293 -0.8687c 0.3957,-0.0000 0.5405,0.1930 0.5405 0.4440c 0.0000,0.2510 -0.1641,0.4054 -0.4150 0.4054c -0.1930,-0.0000 -0.2992,-0.0772 -0.3957 -0.1737c -0.0579,-0.0579 -0.1255,-0.0869 -0.1930 -0.0869c -0.1062,-0.0000 -0.3185,0.1737 -0.5502 0.5019c -0.0676,0.0869 -0.1158,0.2123 -0.1158 0.3378v 2.1428 c 0.0000,0.2799 0.0965,0.4247 0.4150 0.4247h 0.2799 c 0.0483,-0.0000 0.0869,0.0290 0.0869 0.0772v 0.1834 l -0.0193,0.0193 c 0.0000,-0.0000 -0.7625,-0.0193 -1.1389 -0.0193c -0.3475,-0.0000 -1.0038,0.0193 -1.0038 0.0193l -0.0097,-0.0193 v -0.1834 c 0.0000,-0.0483 0.0193,-0.0772 0.0676 -0.0772h 0.1834 c 0.3282,-0.0000 0.4150,-0.1448 0.4150 -0.4247ZM 345.7880,313.1672 ZM 346.5408,307.6558 c 0.0000,-0.2510 0.2027,-0.4633 0.4536 -0.4633c 0.2606,-0.0000 0.4633,0.2123 0.4633 0.4633c 0.0000,0.2606 -0.2027,0.4633 -0.4633 0.4633c -0.2510,-0.0000 -0.4536,-0.2027 -0.4536 -0.4633ZM 346.5408,307.6558 ZM 347.4578,312.4722 c 0.0000,0.2799 0.1062,0.4247 0.4150 0.4247h 0.1834 c 0.0483,-0.0000 0.0869,0.0290 0.0869 0.0772v 0.1834 l -0.0193,0.0193 c 0.0000,-0.0000 -0.6660,-0.0193 -1.0424 -0.0193c -0.3378,-0.0000 -0.9942,0.0193 -0.9942 0.0193l -0.0193,-0.0193 v -0.1834 c 0.0000,-0.0483 0.0290,-0.0772 0.0772 -0.0772h 0.1834 c 0.3185,-0.0000 0.4150,-0.1448 0.4150 -0.4247v -2.4034 c 0.0000,-0.5116 -0.0869,-0.5888 -0.2220 -0.5888c -0.1255,-0.0000 -0.2413,0.0097 -0.4054 0.0483l -0.0483,-0.2703 c 0.6177,-0.1062 0.7239,-0.1448 1.0038 -0.2799c 0.1062,-0.0386 0.1737,-0.0772 0.2413 -0.0772h 0.1448 v 3.5713 ZM 348.3361,313.1672 ZM 349.7743,312.6363 c 0.1930,0.2317 0.3957,0.3089 0.6950 0.3089c 0.9170,-0.0000 1.3803,-0.8494 1.3803 -1.9497c 0.0000,-0.9845 -0.5019,-1.6891 -1.0907 -1.6891c -0.1062,-0.0000 -0.6081,0.0193 -0.9845 0.4150v 2.9149 ZM 349.7743,312.6363 ZM 349.0504,307.6365 c 0.0000,-0.5502 -0.0965,-0.7046 -0.2896 -0.7046l -0.3089,0.0386 c -0.0290,-0.0000 -0.0483,-0.0193 -0.0483 -0.0483l -0.0193,-0.2413 c 0.1544,-0.0000 0.5019,-0.0579 0.6660 -0.0869c 0.1737,-0.0386 0.3185,-0.0772 0.5116 -0.1641h 0.2123 v 2.9922 c 0.3282,-0.3571 0.7143,-0.5309 1.1776 -0.5309c 0.8397,-0.0000 1.6409,0.8011 1.6409 1.9787c 0.0000,1.5347 -1.0810,2.4034 -2.0656 2.4034c -0.4150,-0.0000 -0.7239,-0.1158 -1.0038 -0.3571c -0.0869,0.1158 -0.2123,0.2606 -0.2992 0.3571l -0.2027,-0.0483 c 0.0290,-0.2317 0.0290,-0.3861 0.0290 -0.7625v -4.8261 ZM 352.4286,313.1672 ZM 356.5694,312.0475 c 0.0000,0.4826 0.0483,0.6370 0.2413 0.6370c 0.1158,-0.0000 0.3282,-0.0193 0.4923 -0.0483l 0.0386,0.2703 c -0.5888,0.1062 -1.0617,0.2027 -1.2837 0.3764h -0.2123 l 0.0290,-0.7143 h -0.0290 c -0.5309,0.5791 -0.9652,0.7143 -1.3609 0.7143c -0.9556,-0.0000 -1.2065,-0.6467 -1.2065 -1.3127v -2.2007 c 0.0000,-0.3185 -0.0676,-0.4826 -0.4247 -0.4826c -0.0386,-0.0000 -0.1062,0.0097 -0.1641 0.0097l -0.0290,-0.0097 v -0.2510 l 0.0290,-0.0290 c 0.0000,-0.0000 0.6563,0.0193 0.9652 0.0193c 0.1351,-0.0000 0.3571,-0.0193 0.3571 -0.0193l -0.0097,0.7722 v 2.0559 c 0.0000,0.8590 0.4440,1.0135 0.7336 1.0135c 0.2220,-0.0000 0.4247,-0.0869 0.6274 -0.2317c 0.2317,-0.1737 0.3861,-0.3089 0.4826 -0.4343v -2.3841 c 0.0000,-0.3475 -0.0483,-0.5116 -0.4054 -0.5116c -0.0579,-0.0000 -0.1641,0.0097 -0.1930 0.0097l -0.0193,-0.0193 v -0.2413 l 0.0193,-0.0290 c 0.0000,-0.0000 0.6853,0.0193 0.9556 0.0193c 0.2220,-0.0000 0.3764,-0.0193 0.3764 -0.0193l -0.0097,0.7625 v 2.2779 ZM 357.4187,313.1672 ZM 359.0017,309.3932 v 2.4709 c 0.0000,0.5984 0.0579,0.8880 0.3185 0.8880c 0.2510,-0.0000 0.4440,-0.0772 0.6950 -0.2703l 0.1737,0.1641 c -0.3764,0.4247 -0.7625,0.6370 -1.2065 0.6370c -0.4440,-0.0000 -0.7046,-0.2703 -0.7046 -0.9556v -2.9342 h -0.6274 c -0.0290,-0.0000 -0.0386,-0.0097 -0.0386 -0.0386v -0.2992 c 0.0000,-0.0290 0.0097,-0.0386 0.0290 -0.0386c 0.6467,-0.0000 0.8011,-0.3764 0.8011 -1.1100v -0.1834 l 0.5598,-0.1930 v 1.4864 h 1.0617 c 0.0483,-0.0000 0.0772,0.0193 0.0772 0.0579v 0.1930 c 0.0000,0.0869 -0.1351,0.1255 -0.2317 0.1255h -0.9073 ZM 360.3337,313.1672 ZM 361.0866,307.6558 c 0.0000,-0.2510 0.2027,-0.4633 0.4536 -0.4633c 0.2606,-0.0000 0.4633,0.2123 0.4633 0.4633c 0.0000,0.2606 -0.2027,0.4633 -0.4633 0.4633c -0.2510,-0.0000 -0.4536,-0.2027 -0.4536 -0.4633ZM 361.0866,307.6558 ZM 362.0035,312.4722 c 0.0000,0.2799 0.1062,0.4247 0.4150 0.4247h 0.1834 c 0.0483,-0.0000 0.0869,0.0290 0.0869 0.0772v 0.1834 l -0.0193,0.0193 c 0.0000,-0.0000 -0.6660,-0.0193 -1.0424 -0.0193c -0.3378,-0.0000 -0.9942,0.0193 -0.9942 0.0193l -0.0193,-0.0193 v -0.1834 c 0.0000,-0.0483 0.0290,-0.0772 0.0772 -0.0772h 0.1834 c 0.3185,-0.0000 0.4150,-0.1448 0.4150 -0.4247v -2.4034 c 0.0000,-0.5116 -0.0869,-0.5888 -0.2220 -0.5888c -0.1255,-0.0000 -0.2413,0.0097 -0.4054 0.0483l -0.0483,-0.2703 c 0.6177,-0.1062 0.7239,-0.1448 1.0038 -0.2799c 0.1062,-0.0386 0.1737,-0.0772 0.2413 -0.0772h 0.1448 v 3.5713 ZM 362.8818,313.1672 ZM 363.2100,311.1885 c 0.0000,-1.3223 0.7143,-2.2876 1.9980 -2.2876c 1.4285,-0.0000 1.9787,1.1969 1.9787 2.2007c 0.0000,0.9652 -0.6274,2.1814 -1.9980 2.1814c -1.2934,-0.0000 -1.9787,-1.1100 -1.9787 -2.0945ZM 363.2100,311.1885 ZM 365.1018,309.2195 c -0.7722,-0.0000 -1.1293,0.9073 -1.1293 1.7470c 0.0000,0.7432 0.4247,1.9787 1.3803 1.9787c 0.4343,-0.0000 1.0714,-0.2606 1.0714 -1.5347c 0.0000,-1.4189 -0.5309,-2.1910 -1.3223 -2.1910ZM 367.5052,313.1672 ZM 371.0186,312.4722 v -2.1138 c 0.0000,-0.6756 -0.1158,-0.9942 -0.6274 -0.9942c -0.4247,-0.0000 -0.7915,0.1641 -1.2837 0.7432v 2.3648 c 0.0000,0.2799 0.0965,0.4247 0.4150 0.4247h 0.1351 c 0.0483,-0.0000 0.0772,0.0290 0.0772 0.0772v 0.1834 l -0.0193,0.0193 c 0.0000,-0.0000 -0.6081,-0.0193 -0.9845 -0.0193c -0.3475,-0.0000 -1.0038,0.0193 -1.0038 0.0193l -0.0193,-0.0193 v -0.1834 c 0.0000,-0.0483 0.0290,-0.0772 0.0772 -0.0772h 0.1834 c 0.3282,-0.0000 0.4150,-0.1448 0.4150 -0.4247v -2.4034 c 0.0000,-0.5212 -0.0772,-0.5888 -0.2123 -0.5888c -0.1255,-0.0000 -0.2413,0.0097 -0.4054 0.0483l -0.0483,-0.2703 c 0.4054,-0.0676 0.6950,-0.1158 0.9942 -0.2799c 0.1062,-0.0483 0.1834,-0.0772 0.2510 -0.0772h 0.1448 l -0.0290,0.8590 h 0.0290 c 0.6177,-0.7239 1.0810,-0.8590 1.5733 -0.8590c 0.8687,-0.0000 1.0521,0.6660 1.0521 1.5250v 2.0462 c 0.0000,0.2799 0.1062,0.4247 0.4150 0.4247h 0.1834 c 0.0483,-0.0000 0.0869,0.0290 0.0869 0.0772v 0.1834 l -0.0193,0.0193 c 0.0000,-0.0000 -0.6660,-0.0193 -1.0424 -0.0193c -0.3378,-0.0000 -0.9459,0.0193 -0.9459 0.0193l -0.0193,-0.0193 v -0.1834 c 0.0000,-0.0483 0.0290,-0.0772 0.0772 -0.0772h 0.1351 c 0.3185,-0.0000 0.4150,-0.1448 0.4150 -0.4247Z"/></g><g stroke-linejoin="miter" stroke-opacity="1.0" fill-opacity="0.2" stroke="rgb(102,102,102)" stroke-width="0.0" fill="rgb(76,76,76)" stroke-linecap="butt" stroke-miterlimit="10.0"><path d="M 281.7117,317.3245 l -0.0000,-8.3146 h -8.3146 l -0.0000,8.3146 Z"/></g><g stroke-linejoin="miter" stroke-opacity="1.0" fill-opacity="0.63" stroke="rgb(0,0,0)" fill-rule="evenodd" stroke-width="0.0" fill="rgb(0,0,0)" stroke-linecap="butt" stroke-miterlimit="10.0"><path d="M 285.0376,295.3921 ZM 286.4757,294.8613 c 0.1930,0.2317 0.3957,0.3089 0.6950 0.3089c 0.9170,-0.0000 1.3803,-0.8494 1.3803 -1.9497c 0.0000,-0.9845 -0.5019,-1.6891 -1.0907 -1.6891c -0.1062,-0.0000 -0.6081,0.0193 -0.9845 0.4150v 2.9149 ZM 286.4757,294.8613 ZM 285.7518,289.8615 c 0.0000,-0.5502 -0.0965,-0.7046 -0.2896 -0.7046l -0.3089,0.0386 c -0.0290,-0.0000 -0.0483,-0.0193 -0.0483 -0.0483l -0.0193,-0.2413 c 0.1544,-0.0000 0.5019,-0.0579 0.6660 -0.0869c 0.1737,-0.0386 0.3185,-0.0772 0.5116 -0.1641h 0.2123 v 2.9922 c 0.3282,-0.3571 0.7143,-0.5309 1.1776 -0.5309c 0.8397,-0.0000 1.6409,0.8011 1.6409 1.9787c 0.0000,1.5347 -1.0810,2.4034 -2.0656 2.4034c -0.4150,-0.0000 -0.7239,-0.1158 -1.0038 -0.3571c -0.0869,0.1158 -0.2123,0.2606 -0.2992 0.3571l -0.2027,-0.0483 c 0.0290,-0.2317 0.0290,-0.3861 0.0290 -0.7625v -4.8261 ZM 289.5837,295.3921 ZM 290.5007,294.6972 v -4.8357 c 0.0000,-0.5502 -0.0965,-0.7046 -0.2896 -0.7046l -0.3089,0.0386 c -0.0290,-0.0000 -0.0579,-0.0193 -0.0579 -0.0483l -0.0193,-0.2413 c 0.1544,-0.0000 0.5116,-0.0579 0.6756 -0.0869c 0.1737,-0.0386 0.3089,-0.0772 0.5019 -0.1641h 0.2123 v 6.0422 c 0.0000,0.2799 0.1062,0.4247 0.4150 0.4247h 0.2317 c 0.0386,-0.0000 0.0772,0.0290 0.0772 0.0772v 0.1834 l -0.0193,0.0193 c 0.0000,-0.0000 -0.7046,-0.0193 -1.0810 -0.0193c -0.3378,-0.0000 -1.0424,0.0193 -1.0424 0.0193l -0.0097,-0.0193 v -0.1834 c 0.0000,-0.0483 0.0193,-0.0772 0.0676 -0.0772h 0.2317 c 0.3185,-0.0000 0.4150,-0.1448 0.4150 -0.4247ZM 292.0933,295.3921 ZM 296.2340,294.2725 c 0.0000,0.4826 0.0483,0.6370 0.2413 0.6370c 0.1158,-0.0000 0.3282,-0.0193 0.4923 -0.0483l 0.0386,0.2703 c -0.5888,0.1062 -1.0617,0.2027 -1.2837 0.3764h -0.2123 l 0.0290,-0.7143 h -0.0290 c -0.5309,0.5791 -0.9652,0.7143 -1.3609 0.7143c -0.9556,-0.0000 -1.2065,-0.6467 -1.2065 -1.3127v -2.2007 c 0.0000,-0.3185 -0.0676,-0.4826 -0.4247 -0.4826c -0.0386,-0.0000 -0.1062,0.0097 -0.1641 0.0097l -0.0290,-0.0097 v -0.2510 l 0.0290,-0.0290 c 0.0000,-0.0000 0.6563,0.0193 0.9652 0.0193c 0.1351,-0.0000 0.3571,-0.0193 0.3571 -0.0193l -0.0097,0.7722 v 2.0559 c 0.0000,0.8590 0.4440,1.0135 0.7336 1.0135c 0.2220,-0.0000 0.4247,-0.0869 0.6274 -0.2317c 0.2317,-0.1737 0.3861,-0.3089 0.4826 -0.4343v -2.3841 c 0.0000,-0.3475 -0.0483,-0.5116 -0.4054 -0.5116c -0.0579,-0.0000 -0.1641,0.0097 -0.1930 0.0097l -0.0193,-0.0193 v -0.2413 l 0.0193,-0.0290 c 0.0000,-0.0000 0.6853,0.0193 0.9556 0.0193c 0.2220,-0.0000 0.3764,-0.0193 0.3764 -0.0193l -0.0097,0.7625 v 2.2779 ZM 297.0834,295.3921 ZM 298.1837,292.7185 h 1.7760 c 0.0965,-0.0000 0.1351,-0.0483 0.1351 -0.1351c 0.0000,-0.8976 -0.4536,-1.1293 -0.8011 -1.1293c -0.2220,-0.0000 -0.9459,0.0869 -1.1100 1.2644ZM 298.1837,292.7185 ZM 300.7319,294.4945 l 0.1930,0.1544 c -0.3668,0.5019 -0.9363,0.8590 -1.6312 0.8590c -1.3223,-0.0000 -1.8822,-0.9845 -1.8822 -2.0366c 0.0000,-1.4671 0.9652,-2.3455 1.8822 -2.3455c 1.2741,-0.0000 1.5733,0.9942 1.5733 1.8049c 0.0000,0.1062 -0.0676,0.1641 -0.1737 0.1641h -2.5385 c -0.0097,0.0579 -0.0097,0.1158 -0.0097 0.1930c 0.0000,0.9845 0.6853,1.7470 1.3803 1.7470c 0.5309,-0.0000 0.8687,-0.1737 1.2065 -0.5405ZM 303.6275,295.3921 ZM 306.6776,292.6606 c 0.0000,-0.8011 -0.3764,-1.2644 -0.9556 -1.2644c -0.5019,-0.0000 -0.8397,0.3475 -0.8397 1.1003c 0.0000,0.5019 0.1930,1.2934 0.9652 1.2934c 0.3378,-0.0000 0.8301,-0.1641 0.8301 -1.1293ZM 306.6776,292.6606 ZM 304.8727,295.4597 c -0.2992,0.2799 -0.3668,0.5791 -0.3668 0.9073c 0.0000,0.7239 0.8687,0.9363 1.1969 0.9363c 0.8301,-0.0000 1.8822,-0.2896 1.8822 -0.9845c 0.0000,-0.2510 -0.1351,-0.4150 -0.5116 -0.5984c -0.2703,-0.1351 -0.6660,-0.2413 -1.1293 -0.2413c -0.0772,-0.0000 -0.1834,0.0097 -0.3185 0.0193c -0.1351,0.0097 -0.2799,0.0097 -0.3861 0.0097c -0.1544,-0.0000 -0.2317,-0.0193 -0.3668 -0.0483ZM 304.8727,295.4597 ZM 307.8069,291.6471 c -0.1544,-0.0000 -0.2510,-0.0869 -0.2896 -0.1641c -0.0579,-0.0869 -0.0965,-0.1158 -0.1641 -0.1158c -0.1158,-0.0000 -0.2992,0.1351 -0.3668 0.2317c 0.2703,0.2896 0.3957,0.5695 0.3957 1.0231c 0.0000,0.9459 -0.7722,1.4575 -1.5829 1.4575c -0.3571,-0.0000 -0.6467,-0.0676 -0.8687 -0.2027c -0.1062,0.1641 -0.1641,0.3668 -0.1641 0.5598c 0.0000,0.4150 0.3185,0.5212 0.5888 0.5212c 0.0483,-0.0000 0.1641,-0.0097 0.2992 -0.0193c 0.2220,-0.0290 0.4633,-0.0483 0.6274 -0.0483c 0.3378,-0.0000 0.9749,0.0676 1.3609 0.3957c 0.2606,0.2413 0.4054,0.4730 0.4054 0.7818c 0.0000,1.0424 -1.3706,1.5926 -2.6157 1.5926c -0.7046,-0.0000 -1.4864,-0.2606 -1.4864 -1.1003c 0.0000,-0.4150 0.2606,-0.8590 0.7529 -1.1679c -0.2413,-0.1255 -0.4150,-0.3668 -0.4150 -0.7143c 0.0000,-0.3282 0.1448,-0.7432 0.4054 -0.9749c -0.2606,-0.2606 -0.4826,-0.5888 -0.4826 -1.1196c 0.0000,-0.8880 0.7818,-1.4575 1.6023 -1.4575c 0.5405,-0.0000 0.8783,0.2220 0.9845 0.2992c 0.2413,-0.3282 0.6756,-0.4923 0.9170 -0.4923c 0.2510,-0.0000 0.4247,0.1641 0.4247 0.3668c 0.0000,0.2123 -0.1351,0.3475 -0.3282 0.3475ZM 308.2992,295.3921 ZM 311.1079,293.0274 l -0.7625,0.1930 c -0.8494,0.2606 -0.9749,0.7046 -0.9749 1.1389c 0.0000,0.2992 0.1448,0.7529 0.7529 0.7529c 0.2896,-0.0000 0.7336,-0.2799 0.9845 -0.4923v -1.5926 ZM 311.1079,293.0274 ZM 311.7257,295.5079 c -0.3668,-0.0000 -0.5695,-0.3282 -0.6081 -0.5598l -0.2220,0.1544 c -0.4440,0.3089 -0.6081,0.4054 -1.0521 0.4054c -0.6756,-0.0000 -1.1679,-0.3861 -1.1679 -1.1100c 0.0000,-0.7336 0.6274,-1.2355 1.5443 -1.4671l 0.8880,-0.2220 c 0.0000,-1.0907 -0.5019,-1.2934 -0.8301 -1.2934c -0.3668,-0.0000 -0.7915,0.1641 -0.7915 0.4633c 0.0000,0.1062 0.0193,0.1641 0.0290 0.1930c 0.0193,0.0386 0.0290,0.1062 0.0290 0.1737c 0.0000,0.1255 -0.0965,0.3185 -0.3764 0.3185c -0.2317,-0.0000 -0.3861,-0.1544 -0.3861 -0.3861c 0.0000,-0.5598 0.9073,-1.0521 1.5250 -1.0521c 0.7046,-0.0000 1.5154,0.2896 1.5154 1.6602v 1.4189 c 0.0000,0.5888 0.0097,0.8397 0.2317 0.8397c 0.2123,-0.0000 0.2703,-0.2703 0.2799 -0.4826l 0.2413,0.0483 c -0.0579,0.7046 -0.3571,0.8976 -0.8494 0.8976ZM 312.6523,295.3921 ZM 316.7930,294.2725 c 0.0000,0.4826 0.0483,0.6370 0.2413 0.6370c 0.1158,-0.0000 0.3282,-0.0193 0.4923 -0.0483l 0.0386,0.2703 c -0.5888,0.1062 -1.0617,0.2027 -1.2837 0.3764h -0.2123 l 0.0290,-0.7143 h -0.0290 c -0.5309,0.5791 -0.9652,0.7143 -1.3609 0.7143c -0.9556,-0.0000 -1.2065,-0.6467 -1.2065 -1.3127v -2.2007 c 0.0000,-0.3185 -0.0676,-0.4826 -0.4247 -0.4826c -0.0386,-0.0000 -0.1062,0.0097 -0.1641 0.0097l -0.0290,-0.0097 v -0.2510 l 0.0290,-0.0290 c 0.0000,-0.0000 0.6563,0.0193 0.9652 0.0193c 0.1351,-0.0000 0.3571,-0.0193 0.3571 -0.0193l -0.0097,0.7722 v 2.0559 c 0.0000,0.8590 0.4440,1.0135 0.7336 1.0135c 0.2220,-0.0000 0.4247,-0.0869 0.6274 -0.2317c 0.2317,-0.1737 0.3861,-0.3089 0.4826 -0.4343v -2.3841 c 0.0000,-0.3475 -0.0483,-0.5116 -0.4054 -0.5116c -0.0579,-0.0000 -0.1641,0.0097 -0.1930 0.0097l -0.0193,-0.0193 v -0.2413 l 0.0193,-0.0290 c 0.0000,-0.0000 0.6853,0.0193 0.9556 0.0193c 0.2220,-0.0000 0.3764,-0.0193 0.3764 -0.0193l -0.0097,0.7625 v 2.2779 ZM 317.6424,295.3921 ZM 321.2040,294.0408 l 0.2606,-0.0097 c 0.0290,0.2413 0.1448,0.6950 0.3475 0.9266c 0.0965,0.1062 0.2606,0.2799 0.6177 0.2799c 0.3185,-0.0000 0.7529,-0.2992 0.7529 -0.7432c 0.0000,-0.4150 -0.1930,-0.6853 -0.9556 -1.0135c -0.7046,-0.3089 -1.0231,-0.5212 -1.0231 -1.2451c 0.0000,-0.6081 0.5309,-1.1100 1.2837 -1.1100c 0.4826,-0.0000 0.7915,0.0869 1.1003 0.2413c 0.0579,0.3089 0.0869,0.6370 0.0965 0.9845l -0.2510,0.0097 c -0.2027,-0.7915 -0.7336,-0.9459 -0.9363 -0.9459c -0.3668,-0.0000 -0.6950,0.2027 -0.6950 0.6756c 0.0000,0.3861 0.1351,0.5695 0.6563 0.7625c 0.7818,0.2896 1.3706,0.6467 1.3706 1.4189c 0.0000,0.9170 -0.9459,1.2355 -1.3706 1.2355c -0.3378,-0.0000 -0.5309,-0.0386 -0.7818 -0.1062c -0.0579,-0.0097 -0.1158,-0.0193 -0.1834 -0.0193c -0.0483,-0.0000 -0.1255,0.0097 -0.2220 0.0290c 0.0000,-0.4054 -0.0290,-0.8976 -0.0676 -1.3706ZM 321.2040,294.0408 ZM 318.1057,294.0408 l 0.2606,-0.0097 c 0.0290,0.2413 0.1255,0.7046 0.3475 0.9266c 0.0965,0.1062 0.3089,0.2799 0.6660 0.2799c 0.3378,-0.0000 0.7432,-0.2896 0.7432 -0.7432c 0.0000,-0.4150 -0.1351,-0.6853 -0.8976 -1.0135c -0.7046,-0.3089 -1.0231,-0.5212 -1.0231 -1.2451c 0.0000,-0.6081 0.5695,-1.1100 1.2837 -1.1100c 0.4826,-0.0000 0.7432,0.0869 1.0424 0.2413c 0.0579,0.3089 0.0965,0.6370 0.1062 0.9845l -0.2606,0.0097 c -0.1930,-0.7915 -0.6853,-0.9459 -0.8880 -0.9459c -0.3668,-0.0000 -0.6950,0.1544 -0.6950 0.6756c 0.0000,0.3861 0.1351,0.5695 0.6660 0.7625c 0.7818,0.2896 1.3223,0.6467 1.3223 1.4189c 0.0000,0.9170 -0.9266,1.2355 -1.3803 1.2355c -0.3378,-0.0000 -0.5695,-0.0386 -0.8204 -0.1062c -0.0676,-0.0097 -0.1158,-0.0193 -0.1834 -0.0193c -0.0483,-0.0000 -0.1351,0.0097 -0.2220 0.0290c 0.0000,-0.4054 -0.0290,-0.8976 -0.0676 -1.3706ZM 324.2927,295.3921 ZM 325.0456,289.8808 c 0.0000,-0.2510 0.2027,-0.4633 0.4536 -0.4633c 0.2606,-0.0000 0.4633,0.2123 0.4633 0.4633c 0.0000,0.2606 -0.2027,0.4633 -0.4633 0.4633c -0.2510,-0.0000 -0.4536,-0.2027 -0.4536 -0.4633ZM 325.0456,289.8808 ZM 325.9625,294.6972 c 0.0000,0.2799 0.1062,0.4247 0.4150 0.4247h 0.1834 c 0.0483,-0.0000 0.0869,0.0290 0.0869 0.0772v 0.1834 l -0.0193,0.0193 c 0.0000,-0.0000 -0.6660,-0.0193 -1.0424 -0.0193c -0.3378,-0.0000 -0.9942,0.0193 -0.9942 0.0193l -0.0193,-0.0193 v -0.1834 c 0.0000,-0.0483 0.0290,-0.0772 0.0772 -0.0772h 0.1834 c 0.3185,-0.0000 0.4150,-0.1448 0.4150 -0.4247v -2.4034 c 0.0000,-0.5116 -0.0869,-0.5888 -0.2220 -0.5888c -0.1255,-0.0000 -0.2413,0.0097 -0.4054 0.0483l -0.0483,-0.2703 c 0.6177,-0.1062 0.7239,-0.1448 1.0038 -0.2799c 0.1062,-0.0386 0.1737,-0.0772 0.2413 -0.0772h 0.1448 v 3.5713 ZM 326.8409,295.3921 ZM 329.6496,293.0274 l -0.7625,0.1930 c -0.8494,0.2606 -0.9749,0.7046 -0.9749 1.1389c 0.0000,0.2992 0.1448,0.7529 0.7529 0.7529c 0.2896,-0.0000 0.7336,-0.2799 0.9845 -0.4923v -1.5926 ZM 329.6496,293.0274 ZM 330.2674,295.5079 c -0.3668,-0.0000 -0.5695,-0.3282 -0.6081 -0.5598l -0.2220,0.1544 c -0.4440,0.3089 -0.6081,0.4054 -1.0521 0.4054c -0.6756,-0.0000 -1.1679,-0.3861 -1.1679 -1.1100c 0.0000,-0.7336 0.6274,-1.2355 1.5443 -1.4671l 0.8880,-0.2220 c 0.0000,-1.0907 -0.5019,-1.2934 -0.8301 -1.2934c -0.3668,-0.0000 -0.7915,0.1641 -0.7915 0.4633c 0.0000,0.1062 0.0193,0.1641 0.0290 0.1930c 0.0193,0.0386 0.0290,0.1062 0.0290 0.1737c 0.0000,0.1255 -0.0965,0.3185 -0.3764 0.3185c -0.2317,-0.0000 -0.3861,-0.1544 -0.3861 -0.3861c 0.0000,-0.5598 0.9073,-1.0521 1.5250 -1.0521c 0.7046,-0.0000 1.5154,0.2896 1.5154 1.6602v 1.4189 c 0.0000,0.5888 0.0097,0.8397 0.2317 0.8397c 0.2123,-0.0000 0.2703,-0.2703 0.2799 -0.4826l 0.2413,0.0483 c -0.0579,0.7046 -0.3571,0.8976 -0.8494 0.8976ZM 331.1940,295.3921 ZM 334.7073,294.6972 v -2.1138 c 0.0000,-0.6756 -0.1158,-0.9942 -0.6274 -0.9942c -0.4247,-0.0000 -0.7915,0.1641 -1.2837 0.7432v 2.3648 c 0.0000,0.2799 0.0965,0.4247 0.4150 0.4247h 0.1351 c 0.0483,-0.0000 0.0772,0.0290 0.0772 0.0772v 0.1834 l -0.0193,0.0193 c 0.0000,-0.0000 -0.6081,-0.0193 -0.9845 -0.0193c -0.3475,-0.0000 -1.0038,0.0193 -1.0038 0.0193l -0.0193,-0.0193 v -0.1834 c 0.0000,-0.0483 0.0290,-0.0772 0.0772 -0.0772h 0.1834 c 0.3282,-0.0000 0.4150,-0.1448 0.4150 -0.4247v -2.4034 c 0.0000,-0.5212 -0.0772,-0.5888 -0.2123 -0.5888c -0.1255,-0.0000 -0.2413,0.0097 -0.4054 0.0483l -0.0483,-0.2703 c 0.4054,-0.0676 0.6950,-0.1158 0.9942 -0.2799c 0.1062,-0.0483 0.1834,-0.0772 0.2510 -0.0772h 0.1448 l -0.0290,0.8590 h 0.0290 c 0.6177,-0.7239 1.0810,-0.8590 1.5733 -0.8590c 0.8687,-0.0000 1.0521,0.6660 1.0521 1.5250v 2.0462 c 0.0000,0.2799 0.1062,0.4247 0.4150 0.4247h 0.1834 c 0.0483,-0.0000 0.0869,0.0290 0.0869 0.0772v 0.1834 l -0.0193,0.0193 c 0.0000,-0.0000 -0.6660,-0.0193 -1.0424 -0.0193c -0.3378,-0.0000 -0.9459,0.0193 -0.9459 0.0193l -0.0193,-0.0193 v -0.1834 c 0.0000,-0.0483 0.0290,-0.0772 0.0772 -0.0772h 0.1351 c 0.3185,-0.0000 0.4150,-0.1448 0.4150 -0.4247Z"/></g><g stroke-linejoin="miter" stroke-opacity="1.0" fill-opacity="0.5" stroke="rgb(102,102,102)" stroke-width="0.0" fill="rgb(93,165,218)" stroke-linecap="butt" stroke-miterlimit="10.0"><path d="M 281.7117,299.5494 l -0.0000,-8.3146 h -8.3146 l -0.0000,8.3146 Z"/></g><g stroke-linejoin="miter" stroke-opacity="0.2" fill-opacity="0.0" stroke="rgb(0,0,0)" stroke-width="0.8052883000330879" fill="rgb(0,0,0)" stroke-linecap="butt" stroke-miterlimit="10.0"><path d="M 377.4807,318.8525 l -0.0000,-33.6175 h -109.0399 l -0.0000,33.6175 Z"/></g><g stroke-linejoin="miter" stroke-opacity="0.0" fill-opacity="0.1" stroke="rgb(0,0,0)" stroke-width="0.0" fill="rgb(0,0,0)" stroke-linecap="butt" stroke-miterlimit="10.0"><path d="M 572.3988,259.4598 l -0.0000,-3.3258 h -498.8762 l -0.0000,3.3258 Z"/></g><g stroke-linejoin="miter" stroke-opacity="1.0" fill-opacity="0.6" stroke="rgb(0,0,0)" fill-rule="evenodd" stroke-width="0.0" fill="rgb(0,0,0)" stroke-linecap="butt" stroke-miterlimit="10.0"><path d="M 569.9830,273.4788 ZM 573.3916,271.6146 c 0.0000,-1.1362 -0.6177,-1.6988 -1.3017 -1.6988c -0.5074,-0.0000 -0.8935,0.0772 -1.3237 0.2537l 0.3530,-3.0115 c 0.3640,0.0331 0.7391,0.0441 1.1252 0.0441c 0.5515,-0.0000 1.1252,-0.0331 1.7208 -0.0993l 0.0662,0.0331 l -0.1655,0.7170 c -0.4302,0.0441 -0.7832,0.0552 -1.0921 0.0552c -0.4964,-0.0000 -0.8714,-0.0441 -1.2575 -0.0882l -0.2096,1.7429 c 0.2317,-0.0882 0.6288,-0.1655 1.0590 -0.1655c 1.1693,-0.0000 1.8201,1.0149 1.8201 2.0297c 0.0000,1.2355 -0.8604,2.1841 -2.1069 2.1841c -0.6288,-0.0000 -1.5443,-0.3530 -1.5443 -0.7832c 0.0000,-0.2096 0.1765,-0.3530 0.3751 -0.3530c 0.2206,-0.0000 0.3640,0.1655 0.4964 0.3420c 0.1655,0.1986 0.3420,0.4192 0.6950 0.4192c 0.7060,-0.0000 1.2906,-0.6619 1.2906 -1.6216Z"/></g><g stroke-linejoin="miter" stroke-opacity="0.6" fill-opacity="0.0" stroke="rgb(0,0,0)" stroke-width="2.01322075008272" fill="rgb(0,0,0)" stroke-linecap="butt" stroke-miterlimit="10.0"><path d="M 572.3988,256.1340 v 4.9888 "/></g><g stroke-linejoin="miter" stroke-opacity="1.0" fill-opacity="0.6" stroke="rgb(0,0,0)" fill-rule="evenodd" stroke-width="0.0" fill="rgb(0,0,0)" stroke-linecap="butt" stroke-miterlimit="10.0"><path d="M 520.0954,273.4788 ZM 522.9414,269.5628 c 0.0000,-0.0772 0.0110,-0.1655 0.1103 -0.2206c 0.1213,-0.0882 0.3199,-0.1875 0.4854 -0.1875c 0.1434,-0.0000 0.1544,0.1213 0.1544 0.3420v 1.7760 h 0.8935 l -0.0662,0.5185 h -0.8273 v 0.9156 c 0.0000,0.3089 0.0441,0.4633 0.3640 0.4633h 0.2978 c 0.0662,-0.0000 0.0772,0.0552 0.0772 0.0772v 0.2427 c 0.0000,-0.0000 -0.7060,-0.0221 -1.1693 -0.0221c -0.4192,-0.0000 -1.0700,0.0221 -1.0700 0.0221v -0.2427 c 0.0000,-0.0221 0.0110,-0.0772 0.0772 -0.0772h 0.2978 c 0.3420,-0.0000 0.3751,-0.1434 0.3751 -0.4633v -0.9156 h -2.1621 c -0.0441,-0.0000 -0.0662,-0.0221 -0.0993 -0.0662l -0.0882,-0.1213 l -0.1324,-0.2317 c -0.0110,-0.0000 -0.0110,-0.0110 -0.0110 -0.0221c 0.0000,-0.0110 0.0110,-0.0221 0.0221 -0.0331c 0.7170,-0.7942 1.9856,-3.2541 2.3827 -4.1587c 0.0110,-0.0441 0.0331,-0.0552 0.0772 -0.0552c 0.0110,-0.0000 0.2537,0.0993 0.3861 0.1213c -0.4964,1.3347 -1.3127,2.7688 -2.1179 4.0484h 1.7429 v -1.7098 Z"/></g><g stroke-linejoin="miter" stroke-opacity="0.6" fill-opacity="0.0" stroke="rgb(0,0,0)" stroke-width="2.01322075008272" fill="rgb(0,0,0)" stroke-linecap="butt" stroke-miterlimit="10.0"><path d="M 522.5112,256.1340 v 4.9888 "/></g><g stroke-linejoin="miter" stroke-opacity="1.0" fill-opacity="0.6" stroke="rgb(0,0,0)" fill-rule="evenodd" stroke-width="0.0" fill="rgb(0,0,0)" stroke-linecap="butt" stroke-miterlimit="10.0"><path d="M 470.2078,273.4788 ZM 472.5905,267.4449 c -0.2758,-0.0000 -1.0810,0.1544 -1.0810 0.8273c 0.0000,0.1986 -0.0772,0.5405 -0.3751 0.5405c -0.2868,-0.0000 -0.3089,-0.3199 -0.3089 -0.3530c 0.0000,-0.3420 0.4523,-1.3568 1.9856 -1.3568c 1.0700,-0.0000 1.3899,0.6729 1.3899 1.1141c 0.0000,0.2758 -0.0882,0.8273 -1.0810 1.4561c 0.6177,0.0993 1.4340,0.5515 1.4340 1.6988c 0.0000,1.4561 -1.1031,2.2393 -2.3496 2.2393c -0.6288,-0.0000 -1.5112,-0.2758 -1.5112 -0.6950c 0.0000,-0.1655 0.1655,-0.3530 0.3861 -0.3530c 0.2096,-0.0000 0.3089,0.1103 0.4081 0.2537c 0.1213,0.1875 0.3199,0.4523 0.8494 0.4523c 0.3640,-0.0000 1.4009,-0.3640 1.4009 -1.7539c 0.0000,-1.1803 -0.8273,-1.3678 -1.4230 -1.3678c -0.0993,-0.0000 -0.2206,0.0221 -0.3420 0.0441l -0.0441,-0.3309 c 0.8494,-0.1434 1.5554,-0.9707 1.5554 -1.4782c 0.0000,-0.6288 -0.4412,-0.9376 -0.8935 -0.9376Z"/></g><g stroke-linejoin="miter" stroke-opacity="0.6" fill-opacity="0.0" stroke="rgb(0,0,0)" stroke-width="2.01322075008272" fill="rgb(0,0,0)" stroke-linecap="butt" stroke-miterlimit="10.0"><path d="M 472.6236,256.1340 v 4.9888 "/></g><g stroke-linejoin="miter" stroke-opacity="1.0" fill-opacity="0.6" stroke="rgb(0,0,0)" fill-rule="evenodd" stroke-width="0.0" fill="rgb(0,0,0)" stroke-linecap="butt" stroke-miterlimit="10.0"><path d="M 420.3202,273.4788 ZM 420.9600,268.5921 c 0.0000,-0.6288 0.6067,-1.4892 1.7650 -1.4892c 0.8494,-0.0000 1.8422,0.3199 1.8422 1.5885c 0.0000,0.8384 -0.4302,1.2575 -1.0259 1.8311l -1.0479,1.0149 c -0.0552,0.0552 -0.7942,0.7832 -0.7942 1.3017h 1.8753 c 0.3751,-0.0000 0.5736,-0.1875 0.7280 -0.7942l 0.2758,0.0441 l -0.2206,1.3899 h -3.4086 c 0.0000,-0.6177 0.0993,-1.0921 1.1252 -2.1400l 0.7722,-0.7611 c 0.6177,-0.6288 0.8714,-1.1693 0.8714 -1.8422c 0.0000,-1.0038 -0.6839,-1.2906 -1.0590 -1.2906c -0.7611,-0.0000 -0.9707,0.3971 -0.9707 0.6619c 0.0000,0.0882 0.0221,0.1765 0.0441 0.2537c 0.0221,0.0772 0.0441,0.1544 0.0441 0.2427c 0.0000,0.2868 -0.2206,0.3971 -0.3971 0.3971c -0.2427,-0.0000 -0.4192,-0.1875 -0.4192 -0.4081Z"/></g><g stroke-linejoin="miter" stroke-opacity="0.6" fill-opacity="0.0" stroke="rgb(0,0,0)" stroke-width="2.01322075008272" fill="rgb(0,0,0)" stroke-linecap="butt" stroke-miterlimit="10.0"><path d="M 422.7360,256.1340 v 4.9888 "/></g><g stroke-linejoin="miter" stroke-opacity="1.0" fill-opacity="0.6" stroke="rgb(0,0,0)" fill-rule="evenodd" stroke-width="0.0" fill="rgb(0,0,0)" stroke-linecap="butt" stroke-miterlimit="10.0"><path d="M 370.4326,273.4788 ZM 372.5064,268.2170 c -0.2096,-0.0000 -0.6950,0.1986 -0.9376 0.3089l -0.1324,-0.3420 c 0.9707,-0.4523 1.3458,-0.6839 1.8973 -1.0810h 0.2096 v 5.5486 c 0.0000,0.3971 0.0552,0.5074 0.4192 0.5074h 0.5736 c 0.0331,-0.0000 0.0882,0.0221 0.0882 0.0882v 0.2427 l -1.5112,-0.0221 l -1.5333,0.0221 v -0.2427 c 0.0110,-0.0331 0.0221,-0.0882 0.0882 -0.0882h 0.6619 c 0.4192,-0.0000 0.4192,-0.1875 0.4192 -0.5074v -3.7947 c 0.0000,-0.3751 0.0000,-0.6398 -0.2427 -0.6398Z"/></g><g stroke-linejoin="miter" stroke-opacity="0.6" fill-opacity="0.0" stroke="rgb(0,0,0)" stroke-width="2.01322075008272" fill="rgb(0,0,0)" stroke-linecap="butt" stroke-miterlimit="10.0"><path d="M 372.8483,256.1340 v 4.9888 "/></g><g stroke-linejoin="miter" stroke-opacity="1.0" fill-opacity="0.6" stroke="rgb(0,0,0)" fill-rule="evenodd" stroke-width="0.0" fill="rgb(0,0,0)" stroke-linecap="butt" stroke-miterlimit="10.0"><path d="M 320.5449,273.4788 ZM 322.9607,267.4890 c -0.4743,-0.0000 -1.1693,0.4633 -1.1693 3.0335c 0.0000,0.9045 0.1655,2.7247 1.1362 2.7247c 0.1875,-0.0000 0.7170,-0.1213 0.9487 -0.9818c 0.1434,-0.5295 0.2206,-1.1913 0.2206 -2.1510c 0.0000,-1.4009 -0.3530,-2.1841 -0.6729 -2.4599c -0.1213,-0.1103 -0.2868,-0.1655 -0.4633 -0.1655ZM 322.9607,267.4890 ZM 322.9166,273.6112 c -1.1803,-0.0000 -1.9745,-1.5112 -1.9745 -3.1990c 0.0000,-2.0628 0.9818,-3.3093 2.0187 -3.3093c 0.4743,-0.0000 0.9487,0.2978 1.2686 0.7280c 0.4633,0.6177 0.7060,1.4451 0.7060 2.4820c 0.0000,2.4489 -1.2134,3.2983 -2.0187 3.2983Z"/></g><g stroke-linejoin="miter" stroke-opacity="0.6" fill-opacity="0.0" stroke="rgb(0,0,0)" stroke-width="2.01322075008272" fill="rgb(0,0,0)" stroke-linecap="butt" stroke-miterlimit="10.0"><path d="M 322.9607,256.1340 v 4.9888 "/></g><g stroke-linejoin="miter" stroke-opacity="1.0" fill-opacity="0.6" stroke="rgb(0,0,0)" fill-rule="evenodd" stroke-width="0.0" fill="rgb(0,0,0)" stroke-linecap="butt" stroke-miterlimit="10.0"><path d="M 268.8207,273.4788 ZM 271.8431,270.8755 h -2.4930 c -0.0993,-0.0000 -0.1655,-0.0882 -0.1655 -0.1875c 0.0000,-0.1765 0.1434,-0.4081 0.2758 -0.4081h 2.5261 c 0.1103,-0.0000 0.1544,0.0993 0.1544 0.1986c 0.0000,0.1213 -0.1544,0.3971 -0.2978 0.3971ZM 272.4940,273.4788 ZM 274.5678,268.2170 c -0.2096,-0.0000 -0.6950,0.1986 -0.9376 0.3089l -0.1324,-0.3420 c 0.9707,-0.4523 1.3458,-0.6839 1.8973 -1.0810h 0.2096 v 5.5486 c 0.0000,0.3971 0.0552,0.5074 0.4192 0.5074h 0.5736 c 0.0331,-0.0000 0.0882,0.0221 0.0882 0.0882v 0.2427 l -1.5112,-0.0221 l -1.5333,0.0221 v -0.2427 c 0.0110,-0.0331 0.0221,-0.0882 0.0882 -0.0882h 0.6619 c 0.4192,-0.0000 0.4192,-0.1875 0.4192 -0.5074v -3.7947 c 0.0000,-0.3751 0.0000,-0.6398 -0.2427 -0.6398Z"/></g><g stroke-linejoin="miter" stroke-opacity="0.6" fill-opacity="0.0" stroke="rgb(0,0,0)" stroke-width="2.01322075008272" fill="rgb(0,0,0)" stroke-linecap="butt" stroke-miterlimit="10.0"><path d="M 273.0731,256.1340 v 4.9888 "/></g><g stroke-linejoin="miter" stroke-opacity="1.0" fill-opacity="0.6" stroke="rgb(0,0,0)" fill-rule="evenodd" stroke-width="0.0" fill="rgb(0,0,0)" stroke-linecap="butt" stroke-miterlimit="10.0"><path d="M 218.9330,273.4788 ZM 221.9555,270.8755 h -2.4930 c -0.0993,-0.0000 -0.1655,-0.0882 -0.1655 -0.1875c 0.0000,-0.1765 0.1434,-0.4081 0.2758 -0.4081h 2.5261 c 0.1103,-0.0000 0.1544,0.0993 0.1544 0.1986c 0.0000,0.1213 -0.1544,0.3971 -0.2978 0.3971ZM 222.6063,273.4788 ZM 223.2461,268.5921 c 0.0000,-0.6288 0.6067,-1.4892 1.7650 -1.4892c 0.8494,-0.0000 1.8422,0.3199 1.8422 1.5885c 0.0000,0.8384 -0.4302,1.2575 -1.0259 1.8311l -1.0479,1.0149 c -0.0552,0.0552 -0.7942,0.7832 -0.7942 1.3017h 1.8753 c 0.3751,-0.0000 0.5736,-0.1875 0.7280 -0.7942l 0.2758,0.0441 l -0.2206,1.3899 h -3.4086 c 0.0000,-0.6177 0.0993,-1.0921 1.1252 -2.1400l 0.7722,-0.7611 c 0.6177,-0.6288 0.8714,-1.1693 0.8714 -1.8422c 0.0000,-1.0038 -0.6839,-1.2906 -1.0590 -1.2906c -0.7611,-0.0000 -0.9707,0.3971 -0.9707 0.6619c 0.0000,0.0882 0.0221,0.1765 0.0441 0.2537c 0.0221,0.0772 0.0441,0.1544 0.0441 0.2427c 0.0000,0.2868 -0.2206,0.3971 -0.3971 0.3971c -0.2427,-0.0000 -0.4192,-0.1875 -0.4192 -0.4081Z"/></g><g stroke-linejoin="miter" stroke-opacity="0.6" fill-opacity="0.0" stroke="rgb(0,0,0)" stroke-width="2.01322075008272" fill="rgb(0,0,0)" stroke-linecap="butt" stroke-miterlimit="10.0"><path d="M 223.1855,256.1340 v 4.9888 "/></g><g stroke-linejoin="miter" stroke-opacity="1.0" fill-opacity="0.6" stroke="rgb(0,0,0)" fill-rule="evenodd" stroke-width="0.0" fill="rgb(0,0,0)" stroke-linecap="butt" stroke-miterlimit="10.0"><path d="M 169.0454,273.4788 ZM 172.0679,270.8755 h -2.4930 c -0.0993,-0.0000 -0.1655,-0.0882 -0.1655 -0.1875c 0.0000,-0.1765 0.1434,-0.4081 0.2758 -0.4081h 2.5261 c 0.1103,-0.0000 0.1544,0.0993 0.1544 0.1986c 0.0000,0.1213 -0.1544,0.3971 -0.2978 0.3971ZM 172.7187,273.4788 ZM 175.1014,267.4449 c -0.2758,-0.0000 -1.0810,0.1544 -1.0810 0.8273c 0.0000,0.1986 -0.0772,0.5405 -0.3751 0.5405c -0.2868,-0.0000 -0.3089,-0.3199 -0.3089 -0.3530c 0.0000,-0.3420 0.4523,-1.3568 1.9856 -1.3568c 1.0700,-0.0000 1.3899,0.6729 1.3899 1.1141c 0.0000,0.2758 -0.0882,0.8273 -1.0810 1.4561c 0.6177,0.0993 1.4340,0.5515 1.4340 1.6988c 0.0000,1.4561 -1.1031,2.2393 -2.3496 2.2393c -0.6288,-0.0000 -1.5112,-0.2758 -1.5112 -0.6950c 0.0000,-0.1655 0.1655,-0.3530 0.3861 -0.3530c 0.2096,-0.0000 0.3089,0.1103 0.4081 0.2537c 0.1213,0.1875 0.3199,0.4523 0.8494 0.4523c 0.3640,-0.0000 1.4009,-0.3640 1.4009 -1.7539c 0.0000,-1.1803 -0.8273,-1.3678 -1.4230 -1.3678c -0.0993,-0.0000 -0.2206,0.0221 -0.3420 0.0441l -0.0441,-0.3309 c 0.8494,-0.1434 1.5554,-0.9707 1.5554 -1.4782c 0.0000,-0.6288 -0.4412,-0.9376 -0.8935 -0.9376Z"/></g><g stroke-linejoin="miter" stroke-opacity="0.6" fill-opacity="0.0" stroke="rgb(0,0,0)" stroke-width="2.01322075008272" fill="rgb(0,0,0)" stroke-linecap="butt" stroke-miterlimit="10.0"><path d="M 173.2979,256.1340 v 4.9888 "/></g><g stroke-linejoin="miter" stroke-opacity="1.0" fill-opacity="0.6" stroke="rgb(0,0,0)" fill-rule="evenodd" stroke-width="0.0" fill="rgb(0,0,0)" stroke-linecap="butt" stroke-miterlimit="10.0"><path d="M 119.1578,273.4788 ZM 122.1803,270.8755 h -2.4930 c -0.0993,-0.0000 -0.1655,-0.0882 -0.1655 -0.1875c 0.0000,-0.1765 0.1434,-0.4081 0.2758 -0.4081h 2.5261 c 0.1103,-0.0000 0.1544,0.0993 0.1544 0.1986c 0.0000,0.1213 -0.1544,0.3971 -0.2978 0.3971ZM 122.8311,273.4788 ZM 125.6771,269.5628 c 0.0000,-0.0772 0.0110,-0.1655 0.1103 -0.2206c 0.1213,-0.0882 0.3199,-0.1875 0.4854 -0.1875c 0.1434,-0.0000 0.1544,0.1213 0.1544 0.3420v 1.7760 h 0.8935 l -0.0662,0.5185 h -0.8273 v 0.9156 c 0.0000,0.3089 0.0441,0.4633 0.3640 0.4633h 0.2978 c 0.0662,-0.0000 0.0772,0.0552 0.0772 0.0772v 0.2427 c 0.0000,-0.0000 -0.7060,-0.0221 -1.1693 -0.0221c -0.4192,-0.0000 -1.0700,0.0221 -1.0700 0.0221v -0.2427 c 0.0000,-0.0221 0.0110,-0.0772 0.0772 -0.0772h 0.2978 c 0.3420,-0.0000 0.3751,-0.1434 0.3751 -0.4633v -0.9156 h -2.1621 c -0.0441,-0.0000 -0.0662,-0.0221 -0.0993 -0.0662l -0.0882,-0.1213 l -0.1324,-0.2317 c -0.0110,-0.0000 -0.0110,-0.0110 -0.0110 -0.0221c 0.0000,-0.0110 0.0110,-0.0221 0.0221 -0.0331c 0.7170,-0.7942 1.9856,-3.2541 2.3827 -4.1587c 0.0110,-0.0441 0.0331,-0.0552 0.0772 -0.0552c 0.0110,-0.0000 0.2537,0.0993 0.3861 0.1213c -0.4964,1.3347 -1.3127,2.7688 -2.1179 4.0484h 1.7429 v -1.7098 Z"/></g><g stroke-linejoin="miter" stroke-opacity="0.6" fill-opacity="0.0" stroke="rgb(0,0,0)" stroke-width="2.01322075008272" fill="rgb(0,0,0)" stroke-linecap="butt" stroke-miterlimit="10.0"><path d="M 123.4102,256.1340 v 4.9888 "/></g><g stroke-linejoin="miter" stroke-opacity="1.0" fill-opacity="0.6" stroke="rgb(0,0,0)" fill-rule="evenodd" stroke-width="0.0" fill="rgb(0,0,0)" stroke-linecap="butt" stroke-miterlimit="10.0"><path d="M 69.2702,273.4788 ZM 72.2927,270.8755 h -2.4930 c -0.0993,-0.0000 -0.1655,-0.0882 -0.1655 -0.1875c 0.0000,-0.1765 0.1434,-0.4081 0.2758 -0.4081h 2.5261 c 0.1103,-0.0000 0.1544,0.0993 0.1544 0.1986c 0.0000,0.1213 -0.1544,0.3971 -0.2978 0.3971ZM 72.9435,273.4788 ZM 76.3521,271.6146 c 0.0000,-1.1362 -0.6177,-1.6988 -1.3017 -1.6988c -0.5074,-0.0000 -0.8935,0.0772 -1.3237 0.2537l 0.3530,-3.0115 c 0.3640,0.0331 0.7391,0.0441 1.1252 0.0441c 0.5515,-0.0000 1.1252,-0.0331 1.7208 -0.0993l 0.0662,0.0331 l -0.1655,0.7170 c -0.4302,0.0441 -0.7832,0.0552 -1.0921 0.0552c -0.4964,-0.0000 -0.8714,-0.0441 -1.2575 -0.0882l -0.2096,1.7429 c 0.2317,-0.0882 0.6288,-0.1655 1.0590 -0.1655c 1.1693,-0.0000 1.8201,1.0149 1.8201 2.0297c 0.0000,1.2355 -0.8604,2.1841 -2.1069 2.1841c -0.6288,-0.0000 -1.5443,-0.3530 -1.5443 -0.7832c 0.0000,-0.2096 0.1765,-0.3530 0.3751 -0.3530c 0.2206,-0.0000 0.3640,0.1655 0.4964 0.3420c 0.1655,0.1986 0.3420,0.4192 0.6950 0.4192c 0.7060,-0.0000 1.2906,-0.6619 1.2906 -1.6216Z"/></g><g stroke-linejoin="miter" stroke-opacity="0.6" fill-opacity="0.0" stroke="rgb(0,0,0)" stroke-width="2.01322075008272" fill="rgb(0,0,0)" stroke-linecap="butt" stroke-miterlimit="10.0"><path d="M 73.5226,256.1340 v 4.9888 "/></g><g stroke-linejoin="miter" stroke-opacity="0.0" fill-opacity="0.0" stroke="rgb(0,0,0)" stroke-width="0.0" fill="rgb(0,0,0)" stroke-linecap="butt" stroke-miterlimit="10.0"><path d="M 572.3988,239.5048 l -0.0000,-166.2921 h -498.8762 l -0.0000,166.2921 Z"/></g></svg>