<?xml version="1.0" encoding="UTF-8"?>
<!DOCTYPE svg PUBLIC "-//W3C//DTD SVG 1.1//EN"
    "http://www.w3.org/Graphics/SVG/1.1/DTD/svg11.dtd"><svg xmlns="http://www.w3.org/2000/svg" height="400.0000" stroke-opacity="1" viewBox="0 0 600 400" font-size="1" width="600.0000" xmlns:xlink="http://www.w3.org/1999/xlink" stroke="rgb(0,0,0)" version="1.1"><defs></defs><g stroke-linejoin="miter" stroke-opacity="1.0" fill-opacity="0.2" stroke="rgb(102,102,102)" stroke-width="0.0" fill="rgb(76,76,76)" stroke-linecap="butt" stroke-miterlimit="10.0"><path d="M 571.8182,238.9116 l -0.0000,-4.0928 h -9.8277 l -0.0000,4.0928 Z"/></g><g stroke-linejoin="miter" stroke-opacity="1.0" fill-opacity="0.2" stroke="rgb(102,102,102)" stroke-width="0.0" fill="rgb(76,76,76)" stroke-linecap="butt" stroke-miterlimit="10.0"><path d="M 561.9905,238.9116 l -0.0000,-5.2029 h -9.8277 l -0.0000,5.2029 Z"/></g><g stroke-linejoin="miter" stroke-opacity="1.0" fill-opacity="0.2" stroke="rgb(102,102,102)" stroke-width="0.0" fill="rgb(76,76,76)" stroke-linecap="butt" stroke-miterlimit="10.0"><path d="M 552.1628,238.9116 l -0.0000,-6.5484 h -9.8277 l -0.0000,6.5484 Z"/></g><g stroke-linejoin="miter" stroke-opacity="1.0" fill-opacity="0.2" stroke="rgb(102,102,102)" stroke-width="0.0" fill="rgb(76,76,76)" stroke-linecap="butt" stroke-miterlimit="10.0"><path d="M 542.3351,238.9116 l -0.0000,-8.1598 h -9.8277 l -0.0000,8.1598 Z"/></g><g stroke-linejoin="miter" stroke-opacity="1.0" fill-opacity="0.2" stroke="rgb(102,102,102)" stroke-width="0.0" fill="rgb(76,76,76)" stroke-linecap="butt" stroke-miterlimit="10.0"><path d="M 532.5074,238.9116 l -0.0000,-10.0666 h -9.8277 l -0.0000,10.0666 Z"/></g><g stroke-linejoin="miter" stroke-opacity="1.0" fill-opacity="0.2" stroke="rgb(102,102,102)" stroke-width="0.0" fill="rgb(76,76,76)" stroke-linecap="butt" stroke-miterlimit="10.0"><path d="M 522.6797,238.9116 l -0.0000,-12.2953 h -9.8277 l -0.0000,12.2953 Z"/></g><g stroke-linejoin="miter" stroke-opacity="1.0" fill-opacity="0.2" stroke="rgb(102,102,102)" stroke-width="0.0" fill="rgb(76,76,76)" stroke-linecap="butt" stroke-miterlimit="10.0"><path d="M 512.8520,238.9116 l -0.0000,-14.8681 h -9.8277 l -0.0000,14.8681 Z"/></g><g stroke-linejoin="miter" stroke-opacity="1.0" fill-opacity="0.2" stroke="rgb(102,102,102)" stroke-width="0.0" fill="rgb(76,76,76)" stroke-linecap="butt" stroke-miterlimit="10.0"><path d="M 503.0242,238.9116 l -0.0000,-17.8004 h -9.8277 l -0.0000,17.8004 Z"/></g><g stroke-linejoin="miter" stroke-opacity="1.0" fill-opacity="0.2" stroke="rgb(102,102,102)" stroke-width="0.0" fill="rgb(76,76,76)" stroke-linecap="butt" stroke-miterlimit="10.0"><path d="M 493.1965,238.9116 l -0.0000,-21.0989 h -9.8277 l -0.0000,21.0989 Z"/></g><g stroke-linejoin="miter" stroke-opacity="1.0" fill-opacity="0.2" stroke="rgb(102,102,102)" stroke-width="0.0" fill="rgb(76,76,76)" stroke-linecap="butt" stroke-miterlimit="10.0"><path d="M 483.3688,238.9116 l -0.0000,-24.7598 h -9.8277 l -0.0000,24.7598 Z"/></g><g stroke-linejoin="miter" stroke-opacity="1.0" fill-opacity="0.2" stroke="rgb(102,102,102)" stroke-width="0.0" fill="rgb(76,76,76)" stroke-linecap="butt" stroke-miterlimit="10.0"><path d="M 473.5411,238.9116 l -0.0000,-28.7667 h -9.8277 l -0.0000,28.7667 Z"/></g><g stroke-linejoin="miter" stroke-opacity="1.0" fill-opacity="0.2" stroke="rgb(102,102,102)" stroke-width="0.0" fill="rgb(76,76,76)" stroke-linecap="butt" stroke-miterlimit="10.0"><path d="M 463.7134,238.9116 l -0.0000,-33.0896 h -9.8277 l -0.0000,33.0896 Z"/></g><g stroke-linejoin="miter" stroke-opacity="1.0" fill-opacity="0.2" stroke="rgb(102,102,102)" stroke-width="0.0" fill="rgb(76,76,76)" stroke-linecap="butt" stroke-miterlimit="10.0"><path d="M 453.8857,238.9116 l -0.0000,-37.6834 h -9.8277 l -0.0000,37.6834 Z"/></g><g stroke-linejoin="miter" stroke-opacity="1.0" fill-opacity="0.2" stroke="rgb(102,102,102)" stroke-width="0.0" fill="rgb(76,76,76)" stroke-linecap="butt" stroke-miterlimit="10.0"><path d="M 444.0579,238.9116 l -0.0000,-42.4879 h -9.8277 l -0.0000,42.4879 Z"/></g><g stroke-linejoin="miter" stroke-opacity="1.0" fill-opacity="0.2" stroke="rgb(102,102,102)" stroke-width="0.0" fill="rgb(76,76,76)" stroke-linecap="butt" stroke-miterlimit="10.0"><path d="M 434.2302,238.9116 l -0.0000,-47.4283 h -9.8277 l -0.0000,47.4283 Z"/></g><g stroke-linejoin="miter" stroke-opacity="1.0" fill-opacity="0.2" stroke="rgb(102,102,102)" stroke-width="0.0" fill="rgb(76,76,76)" stroke-linecap="butt" stroke-miterlimit="10.0"><path d="M 424.4025,238.9116 l -0.0000,-52.4164 h -9.8277 l -0.0000,52.4164 Z"/></g><g stroke-linejoin="miter" stroke-opacity="1.0" fill-opacity="0.2" stroke="rgb(102,102,102)" stroke-width="0.0" fill="rgb(76,76,76)" stroke-linecap="butt" stroke-miterlimit="10.0"><path d="M 414.5748,238.9116 l -0.0000,-57.3527 h -9.8277 l -0.0000,57.3527 Z"/></g><g stroke-linejoin="miter" stroke-opacity="1.0" fill-opacity="0.2" stroke="rgb(102,102,102)" stroke-width="0.0" fill="rgb(76,76,76)" stroke-linecap="butt" stroke-miterlimit="10.0"><path d="M 404.7471,238.9116 l -0.0000,-62.1294 h -9.8277 l -0.0000,62.1294 Z"/></g><g stroke-linejoin="miter" stroke-opacity="1.0" fill-opacity="0.2" stroke="rgb(102,102,102)" stroke-width="0.0" fill="rgb(76,76,76)" stroke-linecap="butt" stroke-miterlimit="10.0"><path d="M 394.9194,238.9116 l -0.0000,-66.6343 h -9.8277 l -0.0000,66.6343 Z"/></g><g stroke-linejoin="miter" stroke-opacity="1.0" fill-opacity="0.2" stroke="rgb(102,102,102)" stroke-width="0.0" fill="rgb(76,76,76)" stroke-linecap="butt" stroke-miterlimit="10.0"><path d="M 385.0916,238.9116 l -0.0000,-70.7548 h -9.8277 l -0.0000,70.7548 Z"/></g><g stroke-linejoin="miter" stroke-opacity="1.0" fill-opacity="0.2" stroke="rgb(102,102,102)" stroke-width="0.0" fill="rgb(76,76,76)" stroke-linecap="butt" stroke-miterlimit="10.0"><path d="M 375.2639,238.9116 l -0.0000,-74.3825 h -9.8277 l -0.0000,74.3825 Z"/></g><g stroke-linejoin="miter" stroke-opacity="1.0" fill-opacity="0.2" stroke="rgb(102,102,102)" stroke-width="0.0" fill="rgb(76,76,76)" stroke-linecap="butt" stroke-miterlimit="10.0"><path d="M 365.4362,238.9116 l -0.0000,-77.4181 h -9.8277 l -0.0000,77.4181 Z"/></g><g stroke-linejoin="miter" stroke-opacity="1.0" fill-opacity="0.2" stroke="rgb(102,102,102)" stroke-width="0.0" fill="rgb(76,76,76)" stroke-linecap="butt" stroke-miterlimit="10.0"><path d="M 355.6085,238.9116 l -0.0000,-79.7758 h -9.8277 l -0.0000,79.7758 Z"/></g><g stroke-linejoin="miter" stroke-opacity="1.0" fill-opacity="0.2" stroke="rgb(102,102,102)" stroke-width="0.0" fill="rgb(76,76,76)" stroke-linecap="butt" stroke-miterlimit="10.0"><path d="M 345.7808,238.9116 l -0.0000,-81.3874 h -9.8277 l -0.0000,81.3874 Z"/></g><g stroke-linejoin="miter" stroke-opacity="1.0" fill-opacity="0.2" stroke="rgb(102,102,102)" stroke-width="0.0" fill="rgb(76,76,76)" stroke-linecap="butt" stroke-miterlimit="10.0"><path d="M 335.9531,238.9116 l -0.0000,-82.2053 h -9.8277 l -0.0000,82.2053 Z"/></g><g stroke-linejoin="miter" stroke-opacity="1.0" fill-opacity="0.2" stroke="rgb(102,102,102)" stroke-width="0.0" fill="rgb(76,76,76)" stroke-linecap="butt" stroke-miterlimit="10.0"><path d="M 326.1253,238.9116 l -0.0000,-82.2053 h -9.8277 l -0.0000,82.2053 Z"/></g><g stroke-linejoin="miter" stroke-opacity="1.0" fill-opacity="0.2" stroke="rgb(102,102,102)" stroke-width="0.0" fill="rgb(76,76,76)" stroke-linecap="butt" stroke-miterlimit="10.0"><path d="M 316.2976,238.9116 l -0.0000,-81.3874 h -9.8277 l -0.0000,81.3874 Z"/></g><g stroke-linejoin="miter" stroke-opacity="1.0" fill-opacity="0.2" stroke="rgb(102,102,102)" stroke-width="0.0" fill="rgb(76,76,76)" stroke-linecap="butt" stroke-miterlimit="10.0"><path d="M 306.4699,238.9116 l -0.0000,-79.7758 h -9.8277 l -0.0000,79.7758 Z"/></g><g stroke-linejoin="miter" stroke-opacity="1.0" fill-opacity="0.2" stroke="rgb(102,102,102)" stroke-width="0.0" fill="rgb(76,76,76)" stroke-linecap="butt" stroke-miterlimit="10.0"><path d="M 296.6422,238.9116 l -0.0000,-77.4181 h -9.8277 l -0.0000,77.4181 Z"/></g><g stroke-linejoin="miter" stroke-opacity="1.0" fill-opacity="0.2" stroke="rgb(102,102,102)" stroke-width="0.0" fill="rgb(76,76,76)" stroke-linecap="butt" stroke-miterlimit="10.0"><path d="M 286.8145,238.9116 l -0.0000,-74.3825 h -9.8277 l -0.0000,74.3825 Z"/></g><g stroke-linejoin="miter" stroke-opacity="1.0" fill-opacity="0.2" stroke="rgb(102,102,102)" stroke-width="0.0" fill="rgb(76,76,76)" stroke-linecap="butt" stroke-miterlimit="10.0"><path d="M 276.9868,238.9116 l -0.0000,-70.7548 h -9.8277 l -0.0000,70.7548 Z"/></g><g stroke-linejoin="miter" stroke-opacity="1.0" fill-opacity="0.2" stroke="rgb(102,102,102)" stroke-width="0.0" fill="rgb(76,76,76)" stroke-linecap="butt" stroke-miterlimit="10.0"><path d="M 267.1590,238.9116 l -0.0000,-66.6343 h -9.8277 l -0.0000,66.6343 Z"/></g><g stroke-linejoin="miter" stroke-opacity="1.0" fill-opacity="0.2" stroke="rgb(102,102,102)" stroke-width="0.0" fill="rgb(76,76,76)" stroke-linecap="butt" stroke-miterlimit="10.0"><path d="M 257.3313,238.9116 l -0.0000,-62.1294 h -9.8277 l -0.0000,62.1294 Z"/></g><g stroke-linejoin="miter" stroke-opacity="1.0" fill-opacity="0.2" stroke="rgb(102,102,102)" stroke-width="0.0" fill="rgb(76,76,76)" stroke-linecap="butt" stroke-miterlimit="10.0"><path d="M 247.5036,238.9116 l -0.0000,-57.3527 h -9.8277 l -0.0000,57.3527 Z"/></g><g stroke-linejoin="miter" stroke-opacity="1.0" fill-opacity="0.2" stroke="rgb(102,102,102)" stroke-width="0.0" fill="rgb(76,76,76)" stroke-linecap="butt" stroke-miterlimit="10.0"><path d="M 237.6759,238.9116 l -0.0000,-52.4164 h -9.8277 l -0.0000,52.4164 Z"/></g><g stroke-linejoin="miter" stroke-opacity="1.0" fill-opacity="0.2" stroke="rgb(102,102,102)" stroke-width="0.0" fill="rgb(76,76,76)" stroke-linecap="butt" stroke-miterlimit="10.0"><path d="M 227.8482,238.9116 l -0.0000,-47.4283 h -9.8277 l -0.0000,47.4283 Z"/></g><g stroke-linejoin="miter" stroke-opacity="1.0" fill-opacity="0.2" stroke="rgb(102,102,102)" stroke-width="0.0" fill="rgb(76,76,76)" stroke-linecap="butt" stroke-miterlimit="10.0"><path d="M 218.0205,238.9116 l -0.0000,-42.4879 h -9.8277 l -0.0000,42.4879 Z"/></g><g stroke-linejoin="miter" stroke-opacity="1.0" fill-opacity="0.2" stroke="rgb(102,102,102)" stroke-width="0.0" fill="rgb(76,76,76)" stroke-linecap="butt" stroke-miterlimit="10.0"><path d="M 208.1928,238.9116 l -0.0000,-37.6834 h -9.8277 l -0.0000,37.6834 Z"/></g><g stroke-linejoin="miter" stroke-opacity="1.0" fill-opacity="0.2" stroke="rgb(102,102,102)" stroke-width="0.0" fill="rgb(76,76,76)" stroke-linecap="butt" stroke-miterlimit="10.0"><path d="M 198.3650,238.9116 l -0.0000,-33.0896 h -9.8277 l -0.0000,33.0896 Z"/></g><g stroke-linejoin="miter" stroke-opacity="1.0" fill-opacity="0.2" stroke="rgb(102,102,102)" stroke-width="0.0" fill="rgb(76,76,76)" stroke-linecap="butt" stroke-miterlimit="10.0"><path d="M 188.5373,238.9116 l -0.0000,-28.7667 h -9.8277 l -0.0000,28.7667 Z"/></g><g stroke-linejoin="miter" stroke-opacity="1.0" fill-opacity="0.2" stroke="rgb(102,102,102)" stroke-width="0.0" fill="rgb(76,76,76)" stroke-linecap="butt" stroke-miterlimit="10.0"><path d="M 178.7096,238.9116 l -0.0000,-24.7598 h -9.8277 l -0.0000,24.7598 Z"/></g><g stroke-linejoin="miter" stroke-opacity="1.0" fill-opacity="0.2" stroke="rgb(102,102,102)" stroke-width="0.0" fill="rgb(76,76,76)" stroke-linecap="butt" stroke-miterlimit="10.0"><path d="M 168.8819,238.9116 l -0.0000,-21.0989 h -9.8277 l -0.0000,21.0989 Z"/></g><g stroke-linejoin="miter" stroke-opacity="1.0" fill-opacity="0.2" stroke="rgb(102,102,102)" stroke-width="0.0" fill="rgb(76,76,76)" stroke-linecap="butt" stroke-miterlimit="10.0"><path d="M 159.0542,238.9116 l -0.0000,-17.8004 h -9.8277 l -0.0000,17.8004 Z"/></g><g stroke-linejoin="miter" stroke-opacity="1.0" fill-opacity="0.2" stroke="rgb(102,102,102)" stroke-width="0.0" fill="rgb(76,76,76)" stroke-linecap="butt" stroke-miterlimit="10.0"><path d="M 149.2265,238.9116 l -0.0000,-14.8681 h -9.8277 l -0.0000,14.8681 Z"/></g><g stroke-linejoin="miter" stroke-opacity="1.0" fill-opacity="0.2" stroke="rgb(102,102,102)" stroke-width="0.0" fill="rgb(76,76,76)" stroke-linecap="butt" stroke-miterlimit="10.0"><path d="M 139.3987,238.9116 l -0.0000,-12.2953 h -9.8277 l -0.0000,12.2953 Z"/></g><g stroke-linejoin="miter" stroke-opacity="1.0" fill-opacity="0.2" stroke="rgb(102,102,102)" stroke-width="0.0" fill="rgb(76,76,76)" stroke-linecap="butt" stroke-miterlimit="10.0"><path d="M 129.5710,238.9116 l -0.0000,-10.0666 h -9.8277 l -0.0000,10.0666 Z"/></g><g stroke-linejoin="miter" stroke-opacity="1.0" fill-opacity="0.2" stroke="rgb(102,102,102)" stroke-width="0.0" fill="rgb(76,76,76)" stroke-linecap="butt" stroke-miterlimit="10.0"><path d="M 119.7433,238.9116 l -0.0000,-8.1598 h -9.8277 l -0.0000,8.1598 Z"/></g><g stroke-linejoin="miter" stroke-opacity="1.0" fill-opacity="0.2" stroke="rgb(102,102,102)" stroke-width="0.0" fill="rgb(76,76,76)" stroke-linecap="butt" stroke-miterlimit="10.0"><path d="M 109.9156,238.9116 l -0.0000,-6.5484 h -9.8277 l -0.0000,6.5484 Z"/></g><g stroke-linejoin="miter" stroke-opacity="1.0" fill-opacity="0.2" stroke="rgb(102,102,102)" stroke-width="0.0" fill="rgb(76,76,76)" stroke-linecap="butt" stroke-miterlimit="10.0"><path d="M 100.0879,238.9116 l -0.0000,-5.2029 h -9.8277 l -0.0000,5.2029 Z"/></g><g stroke-linejoin="miter" stroke-opacity="1.0" fill-opacity="0.2" stroke="rgb(102,102,102)" stroke-width="0.0" fill="rgb(76,76,76)" stroke-linecap="butt" stroke-miterlimit="10.0"><path d="M 90.2602,238.9116 l -0.0000,-4.0928 h -9.8277 l -0.0000,4.0928 Z"/></g><g stroke-linejoin="miter" stroke-opacity="1.0" fill-opacity="0.5" stroke="rgb(102,102,102)" stroke-width="0.0" fill="rgb(93,165,218)" stroke-linecap="butt" stroke-miterlimit="10.0"><path d="M 571.8182,238.9116 l -0.0000,-0.0010 h -9.8277 l -0.0000,0.0010 Z"/></g><g stroke-linejoin="miter" stroke-opacity="1.0" fill-opacity="0.5" stroke="rgb(102,102,102)" stroke-width="0.0" fill="rgb(93,165,218)" stroke-linecap="butt" stroke-miterlimit="10.0"><path d="M 561.9905,238.9116 l -0.0000,-0.0026 h -9.8277 l -0.0000,0.0026 Z"/></g><g stroke-linejoin="miter" stroke-opacity="1.0" fill-opacity="0.5" stroke="rgb(102,102,102)" stroke-width="0.0" fill="rgb(93,165,218)" stroke-linecap="butt" stroke-miterlimit="10.0"><path d="M 552.1628,238.9116 l -0.0000,-0.0066 h -9.8277 l -0.0000,0.0066 Z"/></g><g stroke-linejoin="miter" stroke-opacity="1.0" fill-opacity="0.5" stroke="rgb(102,102,102)" stroke-width="0.0" fill="rgb(93,165,218)" stroke-linecap="butt" stroke-miterlimit="10.0"><path d="M 542.3351,238.9116 l -0.0000,-0.0159 h -9.8277 l -0.0000,0.0159 Z"/></g><g stroke-linejoin="miter" stroke-opacity="1.0" fill-opacity="0.5" stroke="rgb(102,102,102)" stroke-width="0.0" fill="rgb(93,165,218)" stroke-linecap="butt" stroke-miterlimit="10.0"><path d="M 532.5074,238.9116 l -0.0000,-0.0368 h -9.8277 l -0.0000,0.0368 Z"/></g><g stroke-linejoin="miter" stroke-opacity="1.0" fill-opacity="0.5" stroke="rgb(102,102,102)" stroke-width="0.0" fill="rgb(93,165,218)" stroke-linecap="butt" stroke-miterlimit="10.0"><path d="M 522.6797,238.9116 l -0.0000,-0.0820 h -9.8277 l -0.0000,0.0820 Z"/></g><g stroke-linejoin="miter" stroke-opacity="1.0" fill-opacity="0.5" stroke="rgb(102,102,102)" stroke-width="0.0" fill="rgb(93,165,218)" stroke-linecap="butt" stroke-miterlimit="10.0"><path d="M 512.8520,238.9116 l -0.0000,-0.1753 h -9.8277 l -0.0000,0.1753 Z"/></g><g stroke-linejoin="miter" stroke-opacity="1.0" fill-opacity="0.5" stroke="rgb(102,102,102)" stroke-width="0.0" fill="rgb(93,165,218)" stroke-linecap="butt" stroke-miterlimit="10.0"><path d="M 503.0242,238.9116 l -0.0000,-0.3601 h -9.8277 l -0.0000,0.3601 Z"/></g><g stroke-linejoin="miter" stroke-opacity="1.0" fill-opacity="0.5" stroke="rgb(102,102,102)" stroke-width="0.0" fill="rgb(93,165,218)" stroke-linecap="butt" stroke-miterlimit="10.0"><path d="M 493.1965,238.9116 l -0.0000,-0.7108 h -9.8277 l -0.0000,0.7108 Z"/></g><g stroke-linejoin="miter" stroke-opacity="1.0" fill-opacity="0.5" stroke="rgb(102,102,102)" stroke-width="0.0" fill="rgb(93,165,218)" stroke-linecap="butt" stroke-miterlimit="10.0"><path d="M 483.3688,238.9116 l -0.0000,-1.3480 h -9.8277 l -0.0000,1.3480 Z"/></g><g stroke-linejoin="miter" stroke-opacity="1.0" fill-opacity="0.5" stroke="rgb(102,102,102)" stroke-width="0.0" fill="rgb(93,165,218)" stroke-linecap="butt" stroke-miterlimit="10.0"><path d="M 473.5411,238.9116 l -0.0000,-2.4562 h -9.8277 l -0.0000,2.4562 Z"/></g><g stroke-linejoin="miter" stroke-opacity="1.0" fill-opacity="0.5" stroke="rgb(102,102,102)" stroke-width="0.0" fill="rgb(93,165,218)" stroke-linecap="butt" stroke-miterlimit="10.0"><path d="M 463.7134,238.9116 l -0.0000,-4.3000 h -9.8277 l -0.0000,4.3000 Z"/></g><g stroke-linejoin="miter" stroke-opacity="1.0" fill-opacity="0.5" stroke="rgb(102,102,102)" stroke-width="0.0" fill="rgb(93,165,218)" stroke-linecap="butt" stroke-miterlimit="10.0"><path d="M 453.8857,238.9116 l -0.0000,-7.2327 h -9.8277 l -0.0000,7.2327 Z"/></g><g stroke-linejoin="miter" stroke-opacity="1.0" fill-opacity="0.5" stroke="rgb(102,102,102)" stroke-width="0.0" fill="rgb(93,165,218)" stroke-linecap="butt" stroke-miterlimit="10.0"><path d="M 444.0579,238.9116 l -0.0000,-11.6886 h -9.8277 l -0.0000,11.6886 Z"/></g><g stroke-linejoin="miter" stroke-opacity="1.0" fill-opacity="0.5" stroke="rgb(102,102,102)" stroke-width="0.0" fill="rgb(93,165,218)" stroke-linecap="butt" stroke-miterlimit="10.0"><path d="M 434.2302,238.9116 l -0.0000,-18.1490 h -9.8277 l -0.0000,18.1490 Z"/></g><g stroke-linejoin="miter" stroke-opacity="1.0" fill-opacity="0.5" stroke="rgb(102,102,102)" stroke-width="0.0" fill="rgb(93,165,218)" stroke-linecap="butt" stroke-miterlimit="10.0"><path d="M 424.4025,238.9116 l -0.0000,-27.0752 h -9.8277 l -0.0000,27.0752 Z"/></g><g stroke-linejoin="miter" stroke-opacity="1.0" fill-opacity="0.5" stroke="rgb(102,102,102)" stroke-width="0.0" fill="rgb(93,165,218)" stroke-linecap="butt" stroke-miterlimit="10.0"><path d="M 414.5748,238.9116 l -0.0000,-38.8076 h -9.8277 l -0.0000,38.8076 Z"/></g><g stroke-linejoin="miter" stroke-opacity="1.0" fill-opacity="0.5" stroke="rgb(102,102,102)" stroke-width="0.0" fill="rgb(93,165,218)" stroke-linecap="butt" stroke-miterlimit="10.0"><path d="M 404.7471,238.9116 l -0.0000,-53.4431 h -9.8277 l -0.0000,53.4431 Z"/></g><g stroke-linejoin="miter" stroke-opacity="1.0" fill-opacity="0.5" stroke="rgb(102,102,102)" stroke-width="0.0" fill="rgb(93,165,218)" stroke-linecap="butt" stroke-miterlimit="10.0"><path d="M 394.9194,238.9116 l -0.0000,-70.7121 h -9.8277 l -0.0000,70.7121 Z"/></g><g stroke-linejoin="miter" stroke-opacity="1.0" fill-opacity="0.5" stroke="rgb(102,102,102)" stroke-width="0.0" fill="rgb(93,165,218)" stroke-linecap="butt" stroke-miterlimit="10.0"><path d="M 385.0916,238.9116 l -0.0000,-89.8927 h -9.8277 l -0.0000,89.8927 Z"/></g><g stroke-linejoin="miter" stroke-opacity="1.0" fill-opacity="0.5" stroke="rgb(102,102,102)" stroke-width="0.0" fill="rgb(93,165,218)" stroke-linecap="butt" stroke-miterlimit="10.0"><path d="M 375.2639,238.9116 l -0.0000,-109.7953 h -9.8277 l -0.0000,109.7953 Z"/></g><g stroke-linejoin="miter" stroke-opacity="1.0" fill-opacity="0.5" stroke="rgb(102,102,102)" stroke-width="0.0" fill="rgb(93,165,218)" stroke-linecap="butt" stroke-miterlimit="10.0"><path d="M 365.4362,238.9116 l -0.0000,-128.8459 h -9.8277 l -0.0000,128.8459 Z"/></g><g stroke-linejoin="miter" stroke-opacity="1.0" fill-opacity="0.5" stroke="rgb(102,102,102)" stroke-width="0.0" fill="rgb(93,165,218)" stroke-linecap="butt" stroke-miterlimit="10.0"><path d="M 355.6085,238.9116 l -0.0000,-145.2734 h -9.8277 l -0.0000,145.2734 Z"/></g><g stroke-linejoin="miter" stroke-opacity="1.0" fill-opacity="0.5" stroke="rgb(102,102,102)" stroke-width="0.0" fill="rgb(93,165,218)" stroke-linecap="butt" stroke-miterlimit="10.0"><path d="M 345.7808,238.9116 l -0.0000,-157.3728 h -9.8277 l -0.0000,157.3728 Z"/></g><g stroke-linejoin="miter" stroke-opacity="1.0" fill-opacity="0.5" stroke="rgb(102,102,102)" stroke-width="0.0" fill="rgb(93,165,218)" stroke-linecap="butt" stroke-miterlimit="10.0"><path d="M 335.9531,238.9116 l -0.0000,-163.7953 h -9.8277 l -0.0000,163.7953 Z"/></g><g stroke-linejoin="miter" stroke-opacity="1.0" fill-opacity="0.5" stroke="rgb(102,102,102)" stroke-width="0.0" fill="rgb(93,165,218)" stroke-linecap="butt" stroke-miterlimit="10.0"><path d="M 326.1253,238.9116 l -0.0000,-163.7953 h -9.8277 l -0.0000,163.7953 Z"/></g><g stroke-linejoin="miter" stroke-opacity="1.0" fill-opacity="0.5" stroke="rgb(102,102,102)" stroke-width="0.0" fill="rgb(93,165,218)" stroke-linecap="butt" stroke-miterlimit="10.0"><path d="M 316.2976,238.9116 l -0.0000,-157.3728 h -9.8277 l -0.0000,157.3728 Z"/></g><g stroke-linejoin="miter" stroke-opacity="1.0" fill-opacity="0.5" stroke="rgb(102,102,102)" stroke-width="0.0" fill="rgb(93,165,218)" stroke-linecap="butt" stroke-miterlimit="10.0"><path d="M 306.4699,238.9116 l -0.0000,-145.2734 h -9.8277 l -0.0000,145.2734 Z"/></g><g stroke-linejoin="miter" stroke-opacity="1.0" fill-opacity="0.5" stroke="rgb(102,102,102)" stroke-width="0.0" fill="rgb(93,165,218)" stroke-linecap="butt" stroke-miterlimit="10.0"><path d="M 296.6422,238.9116 l -0.0000,-128.8459 h -9.8277 l -0.0000,128.8459 Z"/></g><g stroke-linejoin="miter" stroke-opacity="1.0" fill-opacity="0.5" stroke="rgb(102,102,102)" stroke-width="0.0" fill="rgb(93,165,218)" stroke-linecap="butt" stroke-miterlimit="10.0"><path d="M 286.8145,238.9116 l -0.0000,-109.7953 h -9.8277 l -0.0000,109.7953 Z"/></g><g stroke-linejoin="miter" stroke-opacity="1.0" fill-opacity="0.5" stroke="rgb(102,102,102)" stroke-width="0.0" fill="rgb(93,165,218)" stroke-linecap="butt" stroke-miterlimit="10.0"><path d="M 276.9868,238.9116 l -0.0000,-89.8927 h -9.8277 l -0.0000,89.8927 Z"/></g><g stroke-linejoin="miter" stroke-opacity="1.0" fill-opacity="0.5" stroke="rgb(102,102,102)" stroke-width="0.0" fill="rgb(93,165,218)" stroke-linecap="butt" stroke-miterlimit="10.0"><path d="M 267.1590,238.9116 l -0.0000,-70.7121 h -9.8277 l -0.0000,70.7121 Z"/></g><g stroke-linejoin="miter" stroke-opacity="1.0" fill-opacity="0.5" stroke="rgb(102,102,102)" stroke-width="0.0" fill="rgb(93,165,218)" stroke-linecap="butt" stroke-miterlimit="10.0"><path d="M 257.3313,238.9116 l -0.0000,-53.4431 h -9.8277 l -0.0000,53.4431 Z"/></g><g stroke-linejoin="miter" stroke-opacity="1.0" fill-opacity="0.5" stroke="rgb(102,102,102)" stroke-width="0.0" fill="rgb(93,165,218)" stroke-linecap="butt" stroke-miterlimit="10.0"><path d="M 247.5036,238.9116 l -0.0000,-38.8076 h -9.8277 l -0.0000,38.8076 Z"/></g><g stroke-linejoin="miter" stroke-opacity="1.0" fill-opacity="0.5" stroke="rgb(102,102,102)" stroke-width="0.0" fill="rgb(93,165,218)" stroke-linecap="butt" stroke-miterlimit="10.0"><path d="M 237.6759,238.9116 l -0.0000,-27.0752 h -9.8277 l -0.0000,27.0752 Z"/></g><g stroke-linejoin="miter" stroke-opacity="1.0" fill-opacity="0.5" stroke="rgb(102,102,102)" stroke-width="0.0" fill="rgb(93,165,218)" stroke-linecap="butt" stroke-miterlimit="10.0"><path d="M 227.8482,238.9116 l -0.0000,-18.1490 h -9.8277 l -0.0000,18.1490 Z"/></g><g stroke-linejoin="miter" stroke-opacity="1.0" fill-opacity="0.5" stroke="rgb(102,102,102)" stroke-width="0.0" fill="rgb(93,165,218)" stroke-linecap="butt" stroke-miterlimit="10.0"><path d="M 218.0205,238.9116 l -0.0000,-11.6886 h -9.8277 l -0.0000,11.6886 Z"/></g><g stroke-linejoin="miter" stroke-opacity="1.0" fill-opacity="0.5" stroke="rgb(102,102,102)" stroke-width="0.0" fill="rgb(93,165,218)" stroke-linecap="butt" stroke-miterlimit="10.0"><path d="M 208.1928,238.9116 l -0.0000,-7.2327 h -9.8277 l -0.0000,7.2327 Z"/></g><g stroke-linejoin="miter" stroke-opacity="1.0" fill-opacity="0.5" stroke="rgb(102,102,102)" stroke-width="0.0" fill="rgb(93,165,218)" stroke-linecap="butt" stroke-miterlimit="10.0"><path d="M 198.3650,238.9116 l -0.0000,-4.3000 h -9.8277 l -0.0000,4.3000 Z"/></g><g stroke-linejoin="miter" stroke-opacity="1.0" fill-opacity="0.5" stroke="rgb(102,102,102)" stroke-width="0.0" fill="rgb(93,165,218)" stroke-linecap="butt" stroke-miterlimit="10.0"><path d="M 188.5373,238.9116 l -0.0000,-2.4562 h -9.8277 l -0.0000,2.4562 Z"/></g><g stroke-linejoin="miter" stroke-opacity="1.0" fill-opacity="0.5" stroke="rgb(102,102,102)" stroke-width="0.0" fill="rgb(93,165,218)" stroke-linecap="butt" stroke-miterlimit="10.0"><path d="M 178.7096,238.9116 l -0.0000,-1.3480 h -9.8277 l -0.0000,1.3480 Z"/></g><g stroke-linejoin="miter" stroke-opacity="1.0" fill-opacity="0.5" stroke="rgb(102,102,102)" stroke-width="0.0" fill="rgb(93,165,218)" stroke-linecap="butt" stroke-miterlimit="10.0"><path d="M 168.8819,238.9116 l -0.0000,-0.7108 h -9.8277 l -0.0000,0.7108 Z"/></g><g stroke-linejoin="miter" stroke-opacity="1.0" fill-opacity="0.5" stroke="rgb(102,102,102)" stroke-width="0.0" fill="rgb(93,165,218)" stroke-linecap="butt" stroke-miterlimit="10.0"><path d="M 159.0542,238.9116 l -0.0000,-0.3601 h -9.8277 l -0.0000,0.3601 Z"/></g><g stroke-linejoin="miter" stroke-opacity="1.0" fill-opacity="0.5" stroke="rgb(102,102,102)" stroke-width="0.0" fill="rgb(93,165,218)" stroke-linecap="butt" stroke-miterlimit="10.0"><path d="M 149.2265,238.9116 l -0.0000,-0.1753 h -9.8277 l -0.0000,0.1753 Z"/></g><g stroke-linejoin="miter" stroke-opacity="1.0" fill-opacity="0.5" stroke="rgb(102,102,102)" stroke-width="0.0" fill="rgb(93,165,218)" stroke-linecap="butt" stroke-miterlimit="10.0"><path d="M 139.3987,238.9116 l -0.0000,-0.0820 h -9.8277 l -0.0000,0.0820 Z"/></g><g stroke-linejoin="miter" stroke-opacity="1.0" fill-opacity="0.5" stroke="rgb(102,102,102)" stroke-width="0.0" fill="rgb(93,165,218)" stroke-linecap="butt" stroke-miterlimit="10.0"><path d="M 129.5710,238.9116 l -0.0000,-0.0368 h -9.8277 l -0.0000,0.0368 Z"/></g><g stroke-linejoin="miter" stroke-opacity="1.0" fill-opacity="0.5" stroke="rgb(102,102,102)" stroke-width="0.0" fill="rgb(93,165,218)" stroke-linecap="butt" stroke-miterlimit="10.0"><path d="M 119.7433,238.9116 l -0.0000,-0.0159 h -9.8277 l -0.0000,0.0159 Z"/></g><g stroke-linejoin="miter" stroke-opacity="1.0" fill-opacity="0.5" stroke="rgb(102,102,102)" stroke-width="0.0" fill="rgb(93,165,218)" stroke-linecap="butt" stroke-miterlimit="10.0"><path d="M 109.9156,238.9116 l -0.0000,-0.0066 h -9.8277 l -0.0000,0.0066 Z"/></g><g stroke-linejoin="miter" stroke-opacity="1.0" fill-opacity="0.5" stroke="rgb(102,102,102)" stroke-width="0.0" fill="rgb(93,165,218)" stroke-linecap="butt" stroke-miterlimit="10.0"><path d="M 100.0879,238.9116 l -0.0000,-0.0026 h -9.8277 l -0.0000,0.0026 Z"/></g><g stroke-linejoin="miter" stroke-opacity="1.0" fill-opacity="0.5" stroke="rgb(102,102,102)" stroke-width="0.0" fill="rgb(93,165,218)" stroke-linecap="butt" stroke-miterlimit="10.0"><path d="M 90.2602,238.9116 l -0.0000,-0.0010 h -9.8277 l -0.0000,0.0010 Z"/></g><g stroke-linejoin="miter" stroke-opacity="1.0" fill-opacity="1.0" stroke="rgb(0,0,0)" fill-rule="evenodd" stroke-width="0.0" fill="rgb(31,119,180)" stroke-linecap="butt" stroke-miterlimit="10.0"><path d="M 60.0029,238.9116 ZM 43.7727,224.7866 c -4.0066,-0.0000 -5.0252,2.7842 -5.0252 4.8215c -0.0000,1.2224 0.1019,2.1731 0.2716 2.9540l 10.0505,0.0000 l 0.0000,-1.6977 c 0.0000,-2.5466 -0.5772,-4.1764 -1.7317 -4.9913c -0.9507,-0.6451 -2.1391,-1.0865 -3.5652 -1.0865ZM 43.7727,224.7866 ZM 43.7388,222.0363 c 3.5652,0.0000 5.5006,3.1917 5.9759 4.6517l 6.9606,-3.5991 c 1.4600,-0.7470 2.6145,-1.6638 2.6145 -3.1917l 0.7130,-0.1019 c 0.1358,0.3395 0.2037,0.9168 0.2037 1.4261c -0.0000,2.0373 -1.2903,3.5312 -2.8861 4.4141l -6.5192,3.4973 c -0.2377,0.1358 -0.4414,1.1544 -0.4414 3.4294l 7.1983,0.0000 c 1.0186,0.0000 1.4940,-0.5093 1.4940 -1.8335l 0.0000,-0.9168 c 0.0000,-0.1358 0.1019,-0.2716 0.2716 -0.2716l 0.6451,0.0000 l 0.0679,0.0679 c 0.0000,-0.0000 -0.0679,2.9540 -0.0679 4.2782c -0.0000,1.2224 0.0679,4.3801 0.0679 4.3801l -0.0679,0.0679 l -0.6451,-0.0000 c -0.1698,-0.0000 -0.2716,-0.1019 -0.2716 -0.2716l 0.0000,-0.8828 c 0.0000,-1.3921 -0.5433,-1.8675 -1.4940 -1.8675l -17.0450,-0.0000 c -0.9847,-0.0000 -1.5619,0.1358 -1.5619 1.0186c -0.0000,0.1019 -0.0000,0.1698 0.0340 0.2377l 0.1019,1.0186 c -0.0000,0.1698 -0.1019,0.2716 -0.2377 0.2716l -0.6451,-0.0000 c -0.1698,-0.7130 -0.4075,-3.9047 -0.4075 -7.8774c 0.0000,-2.1391 0.1698,-4.5159 1.6977 -6.1457c 1.1544,-1.2224 2.5466,-1.7996 4.2443 -1.7996ZM 60.0029,219.4219 ZM 50.5975,215.5511 l 0.0000,-6.2476 c 0.0000,-0.3395 -0.1698,-0.4754 -0.4754 -0.4754c -3.1577,-0.0000 -3.9726,1.5958 -3.9726 2.8182c -0.0000,0.7809 0.3056,3.3275 4.4480 3.9047ZM 50.5975,215.5511 ZM 56.8451,206.5872 l 0.5433,-0.6791 c 1.7656,1.2903 3.0219,3.2936 3.0219 5.7383c -0.0000,4.6517 -3.4633,6.6211 -7.1643 6.6211c -5.1610,-0.0000 -8.2509,-3.3954 -8.2509 -6.6211c 0.0000,-4.4820 3.4973,-5.5345 6.3494 -5.5345c 0.3735,0.0000 0.5772,0.2377 0.5772 0.6112l -0.0000,8.9300 c 0.2037,0.0340 0.4075,0.0340 0.6791 0.0340c 3.4633,0.0000 6.1457,-2.4108 6.1457 -4.8555c 0.0000,-1.8675 -0.6112,-3.0559 -1.9014 -4.2443ZM 60.0029,204.8895 ZM 56.9130,191.8510 c 2.5805,1.4940 3.4973,3.1238 3.4973 5.1610c -0.0000,4.0745 -3.0898,6.6211 -7.4699 6.6211c -4.8215,-0.0000 -7.9453,-3.0219 -7.9453 -6.6890c 0.0000,-3.2596 1.6638,-4.9913 3.4633 -4.9913c 0.9847,0.0000 1.4940,0.6112 1.4940 1.3242c -0.0000,0.7130 -0.3735,1.3921 -1.2224 1.4940c -1.1205,0.1358 -2.5805,0.3395 -2.5805 2.3428c -0.0000,2.2410 2.3768,3.9047 6.0439 3.9047c 3.9726,0.0000 6.7229,-2.1391 6.7229 -4.7536c 0.0000,-1.4600 -0.9507,-2.7503 -2.4787 -3.8029ZM 60.0029,191.2059 ZM 46.7267,185.6374 l 8.6923,0.0000 c 2.1052,0.0000 3.1238,-0.2037 3.1238 -1.1205c 0.0000,-0.8828 -0.2716,-1.5619 -0.9507 -2.4447l 0.5772,-0.6112 c 1.4940,1.3242 2.2410,2.6824 2.2410 4.2443c -0.0000,1.5619 -0.9507,2.4787 -3.3615 2.4787l -10.3221,-0.0000 l -0.0000,2.2070 c -0.0000,0.1019 -0.0340,0.1358 -0.1358 0.1358l -1.0526,-0.0000 c -0.1019,-0.0000 -0.1358,-0.0340 -0.1358 -0.1019c 0.0000,-2.2749 -1.3242,-2.8182 -3.9047 -2.8182l -0.6451,-0.0000 l -0.6791,-1.9693 l 5.2290,0.0000 l 0.0000,-3.7350 c 0.0000,-0.1698 0.0679,-0.2716 0.2037 -0.2716l 0.6791,0.0000 c 0.3056,0.0000 0.4414,0.4754 0.4414 0.8149l -0.0000,3.1917 ZM 60.0029,172.4631 ZM 60.4103,160.4094 c -0.0000,7.3002 -5.6364,10.7974 -11.1030 10.7974c -6.6890,-0.0000 -11.6463,-5.1950 -11.6463 -10.8314c 0.0000,-4.1764 1.4261,-5.5006 1.5279 -7.4360c 1.8675,-0.1019 3.4973,-0.4075 5.2629 -0.7470l 0.1358,1.0186 c -2.9201,0.8828 -5.6704,2.8522 -5.6704 7.5378c -0.0000,2.6824 2.8522,7.5039 9.7449 7.5039c 4.9573,0.0000 10.3560,-2.5466 10.3560 -7.8095c 0.0000,-3.1577 -1.1205,-5.4666 -3.7689 -7.8774l 0.5093,-0.7809 c 3.0219,2.3089 4.6517,5.3308 4.6517 8.6244ZM 60.0029,150.5966 ZM 36.3028,145.0621 l 11.5105,0.0000 c -2.2749,-2.2749 -2.8182,-4.2782 -2.8182 -5.6025c 0.0000,-2.4447 1.8675,-3.6671 5.3648 -3.6671l 7.1983,0.0000 c 0.9847,0.0000 1.4940,-0.3395 1.4940 -1.4600l 0.0000,-0.6451 c 0.0000,-0.1358 0.1019,-0.2716 0.2716 -0.2716l 0.6451,0.0000 l 0.0679,0.0679 c 0.0000,-0.0000 -0.0679,2.3089 -0.0679 3.6671c -0.0000,1.1884 0.0679,3.4973 0.0679 3.4973l -0.0679,0.0679 l -0.6451,-0.0000 c -0.1698,-0.0000 -0.2716,-0.1019 -0.2716 -0.2716l 0.0000,-0.6451 c 0.0000,-1.1544 -0.5093,-1.4600 -1.4940 -1.4600l -7.5718,-0.0000 c -2.7503,-0.0000 -3.3954,0.7470 -3.3954 2.6484c -0.0000,0.9847 0.8828,2.4447 2.4787 4.0745l 8.4886,0.0000 c 0.9847,0.0000 1.4940,-0.3395 1.4940 -1.4600l 0.0000,-0.6451 c 0.0000,-0.1358 0.1019,-0.2716 0.2716 -0.2716l 0.6451,0.0000 l 0.0679,0.0679 c 0.0000,-0.0000 -0.0679,2.3089 -0.0679 3.6331c -0.0000,1.2224 0.0679,3.4973 0.0679 3.4973l -0.0679,0.0679 l -0.6451,-0.0000 c -0.1698,-0.0000 -0.2716,-0.0679 -0.2716 -0.2377l 0.0000,-0.6451 c 0.0000,-1.1544 -0.5093,-1.4600 -1.4940 -1.4600l -17.0111,-0.0000 c -1.9354,-0.0000 -2.4787,0.3056 -2.4787 0.9847l 0.1358,1.1205 c -0.0000,0.1019 -0.0679,0.1698 -0.1698 0.1698l -0.8489,0.0679 c 0.0000,-0.5433 -0.2037,-1.7656 -0.3056 -2.3428c -0.1358,-0.6112 -0.2716,-1.1205 -0.5772 -1.7996l 0.0000,-0.7470 ZM 60.0029,133.0083 ZM 51.6841,123.1276 l 0.6791,2.6824 c 0.9168,2.9880 2.4787,3.4294 4.0066 3.4294c 1.0526,0.0000 2.6484,-0.5093 2.6484 -2.6484c 0.0000,-1.0186 -0.9847,-2.5805 -1.7317 -3.4633l -5.6025,-0.0000 ZM 51.6841,123.1276 ZM 60.4103,120.9546 c -0.0000,1.2903 -1.1544,2.0033 -1.9693 2.1391l 0.5433,0.7809 c 1.0865,1.5619 1.4261,2.1391 1.4261 3.7010c -0.0000,2.3768 -1.3582,4.1085 -3.9047 4.1085c -2.5805,-0.0000 -4.3461,-2.2070 -5.1610 -5.4327l -0.7809,-3.1238 c -3.8368,-0.0000 -4.5499,1.7656 -4.5499 2.9201c -0.0000,1.2903 0.5772,2.7842 1.6298 2.7842c 0.3735,0.0000 0.5772,-0.0679 0.6791 -0.1019c 0.1358,-0.0679 0.3735,-0.1019 0.6112 -0.1019c 0.4414,0.0000 1.1205,0.3395 1.1205 1.3242c -0.0000,0.8149 -0.5433,1.3582 -1.3582 1.3582c -1.9693,-0.0000 -3.7010,-3.1917 -3.7010 -5.3648c 0.0000,-2.4787 1.0186,-5.3308 5.8401 -5.3308l 4.9913,0.0000 c 2.0712,0.0000 2.9540,-0.0340 2.9540 -0.8149c 0.0000,-0.7470 -0.9507,-0.9507 -1.6977 -0.9847l 0.1698,-0.8489 c 2.4787,0.2037 3.1577,1.2563 3.1577 2.9880ZM 60.0029,117.6950 ZM 57.5581,114.6730 l -8.4546,-0.0000 c -1.6977,-0.0000 -2.0712,0.2377 -2.0712 0.7470c -0.0000,0.4414 0.0340,0.8489 0.1698 1.4261l -0.9507,0.1698 c -0.3735,-2.1391 -0.4754,-2.5126 -0.9847 -3.5312c -0.1698,-0.3395 -0.2716,-0.6112 -0.2716 -0.8489l 0.0000,-0.5093 l 3.0559,0.1019 l 0.0000,-0.1019 c -1.3242,-0.8828 -3.0559,-2.3768 -3.0559 -3.9726c 0.0000,-1.3921 0.6791,-1.9014 1.5619 -1.9014c 0.8828,0.0000 1.4261,0.5772 1.4261 1.4600c -0.0000,0.6791 -0.2716,1.0526 -0.6112 1.3921c -0.2037,0.2037 -0.3056,0.4414 -0.3056 0.6791c -0.0000,0.3735 0.6112,1.1205 1.7656 1.9354c 0.3056,0.2377 0.7470,0.4075 1.1884 0.4075l 7.5378,0.0000 c 0.9847,0.0000 1.4940,-0.3395 1.4940 -1.4600l 0.0000,-0.9847 c 0.0000,-0.1698 0.1019,-0.3056 0.2716 -0.3056l 0.6451,0.0000 l 0.0679,0.0679 c 0.0000,-0.0000 -0.0679,2.6824 -0.0679 4.0066c -0.0000,1.2224 0.0679,3.5312 0.0679 3.5312l -0.0679,0.0340 l -0.6451,-0.0000 c -0.1698,-0.0000 -0.2716,-0.0679 -0.2716 -0.2377l 0.0000,-0.6451 c 0.0000,-1.1544 -0.5093,-1.4600 -1.4940 -1.4600ZM 60.0029,105.9128 ZM 46.7267,100.3443 l 8.6923,0.0000 c 2.1052,0.0000 3.1238,-0.2037 3.1238 -1.1205c 0.0000,-0.8828 -0.2716,-1.5619 -0.9507 -2.4447l 0.5772,-0.6112 c 1.4940,1.3242 2.2410,2.6824 2.2410 4.2443c -0.0000,1.5619 -0.9507,2.4787 -3.3615 2.4787l -10.3221,-0.0000 l -0.0000,2.2070 c -0.0000,0.1019 -0.0340,0.1358 -0.1358 0.1358l -1.0526,-0.0000 c -0.1019,-0.0000 -0.1358,-0.0340 -0.1358 -0.1019c 0.0000,-2.2749 -1.3242,-2.8182 -3.9047 -2.8182l -0.6451,-0.0000 l -0.6791,-1.9693 l 5.2290,0.0000 l 0.0000,-3.7350 c 0.0000,-0.1698 0.0679,-0.2716 0.2037 -0.2716l 0.6791,0.0000 c 0.3056,0.0000 0.4414,0.4754 0.4414 0.8149l -0.0000,3.1917 Z"/></g><g stroke-linejoin="miter" stroke-opacity="1.0" fill-opacity="0.63" stroke="rgb(0,0,0)" fill-rule="evenodd" stroke-width="0.0" fill="rgb(0,0,0)" stroke-linecap="butt" stroke-miterlimit="10.0"><path d="M 288.7716,311.4680 ZM 291.7759,308.7775 c 0.0000,-0.7891 -0.3708,-1.2454 -0.9412 -1.2454c -0.4944,-0.0000 -0.8271,0.3423 -0.8271 1.0838c 0.0000,0.4944 0.1901,1.2740 0.9507 1.2740c 0.3328,-0.0000 0.8176,-0.1616 0.8176 -1.1123ZM 291.7759,308.7775 ZM 289.9980,311.5346 c -0.2947,0.2757 -0.3613,0.5704 -0.3613 0.8937c 0.0000,0.7130 0.8556,0.9222 1.1789 0.9222c 0.8176,-0.0000 1.8539,-0.2852 1.8539 -0.9697c 0.0000,-0.2472 -0.1331,-0.4088 -0.5039 -0.5894c -0.2662,-0.1331 -0.6560,-0.2377 -1.1123 -0.2377c -0.0761,-0.0000 -0.1806,0.0095 -0.3137 0.0190c -0.1331,0.0095 -0.2757,0.0095 -0.3803 0.0095c -0.1521,-0.0000 -0.2282,-0.0190 -0.3613 -0.0475ZM 289.9980,311.5346 ZM 292.8882,307.7792 c -0.1521,-0.0000 -0.2472,-0.0856 -0.2852 -0.1616c -0.0570,-0.0856 -0.0951,-0.1141 -0.1616 -0.1141c -0.1141,-0.0000 -0.2947,0.1331 -0.3613 0.2282c 0.2662,0.2852 0.3898,0.5609 0.3898 1.0078c 0.0000,0.9317 -0.7606,1.4356 -1.5592 1.4356c -0.3518,-0.0000 -0.6370,-0.0666 -0.8556 -0.1997c -0.1046,0.1616 -0.1616,0.3613 -0.1616 0.5514c 0.0000,0.4088 0.3137,0.5134 0.5799 0.5134c 0.0475,-0.0000 0.1616,-0.0095 0.2947 -0.0190c 0.2187,-0.0285 0.4563,-0.0475 0.6180 -0.0475c 0.3328,-0.0000 0.9602,0.0666 1.3405 0.3898c 0.2567,0.2377 0.3993,0.4659 0.3993 0.7701c 0.0000,1.0268 -1.3500,1.5687 -2.5764 1.5687c -0.6940,-0.0000 -1.4641,-0.2567 -1.4641 -1.0838c 0.0000,-0.4088 0.2567,-0.8461 0.7416 -1.1504c -0.2377,-0.1236 -0.4088,-0.3613 -0.4088 -0.7035c 0.0000,-0.3232 0.1426,-0.7321 0.3993 -0.9602c -0.2567,-0.2567 -0.4754,-0.5799 -0.4754 -1.1028c 0.0000,-0.8747 0.7701,-1.4356 1.5782 -1.4356c 0.5324,-0.0000 0.8652,0.2187 0.9697 0.2947c 0.2377,-0.3232 0.6655,-0.4849 0.9032 -0.4849c 0.2472,-0.0000 0.4183,0.1616 0.4183 0.3613c 0.0000,0.2092 -0.1331,0.3423 -0.3232 0.3423ZM 293.0974,311.4680 ZM 293.9435,310.7835 v -2.3673 c 0.0000,-0.4754 -0.0666,-0.5799 -0.2092 -0.5799c -0.1236,-0.0000 -0.2377,0.0095 -0.3993 0.0475l -0.0475,-0.2662 c 0.5990,-0.1046 0.7035,-0.1331 0.9887 -0.2757c 0.0951,-0.0475 0.1711,-0.0761 0.2377 -0.0761h 0.1426 l -0.0285,0.8556 h 0.0285 c 0.2472,-0.3708 0.6655,-0.8556 1.1123 -0.8556c 0.3898,-0.0000 0.5324,0.1901 0.5324 0.4373c 0.0000,0.2472 -0.1616,0.3993 -0.4088 0.3993c -0.1901,-0.0000 -0.2947,-0.0761 -0.3898 -0.1711c -0.0570,-0.0570 -0.1236,-0.0856 -0.1901 -0.0856c -0.1046,-0.0000 -0.3137,0.1711 -0.5419 0.4944c -0.0666,0.0856 -0.1141,0.2092 -0.1141 0.3328v 2.1106 c 0.0000,0.2757 0.0951,0.4183 0.4088 0.4183h 0.2757 c 0.0475,-0.0000 0.0856,0.0285 0.0856 0.0761v 0.1806 l -0.0190,0.0190 c 0.0000,-0.0000 -0.7511,-0.0190 -1.1218 -0.0190c -0.3423,-0.0000 -0.9887,0.0190 -0.9887 0.0190l -0.0095,-0.0190 v -0.1806 c 0.0000,-0.0475 0.0190,-0.0761 0.0666 -0.0761h 0.1806 c 0.3232,-0.0000 0.4088,-0.1426 0.4088 -0.4183ZM 296.3964,311.4680 ZM 297.4802,308.8345 h 1.7493 c 0.0951,-0.0000 0.1331,-0.0475 0.1331 -0.1331c 0.0000,-0.8842 -0.4468,-1.1123 -0.7891 -1.1123c -0.2187,-0.0000 -0.9317,0.0856 -1.0933 1.2454ZM 297.4802,308.8345 ZM 299.9901,310.5839 l 0.1901,0.1521 c -0.3613,0.4944 -0.9222,0.8461 -1.6067 0.8461c -1.3025,-0.0000 -1.8539,-0.9697 -1.8539 -2.0060c 0.0000,-1.4451 0.9507,-2.3102 1.8539 -2.3102c 1.2549,-0.0000 1.5497,0.9792 1.5497 1.7778c 0.0000,0.1046 -0.0666,0.1616 -0.1711 0.1616h -2.5004 c -0.0095,0.0570 -0.0095,0.1141 -0.0095 0.1901c 0.0000,0.9697 0.6750,1.7208 1.3595 1.7208c 0.5229,-0.0000 0.8556,-0.1711 1.1884 -0.5324ZM 300.4654,311.4680 ZM 302.4429,307.5701 c 0.0000,0.0475 -0.0570,0.0761 -0.1046 0.0761c -0.2852,-0.0000 -0.4088,0.0570 -0.4088 0.2092c 0.0000,0.0570 0.0190,0.1331 0.0570 0.2187l 1.0458,2.4529 l 1.0553,-2.4148 c 0.0475,-0.0856 0.0666,-0.1616 0.0666 -0.2187c 0.0000,-0.1997 -0.1901,-0.2472 -0.3993 -0.2472h -0.0380 c -0.0475,-0.0000 -0.0951,-0.0380 -0.0951 -0.0666v -0.1806 l 0.0190,-0.0285 c 0.0000,-0.0000 0.5609,0.0190 0.8937 0.0190c 0.2662,-0.0000 0.6560,-0.0190 0.6560 -0.0190l 0.0285,0.0190 v 0.1806 c 0.0000,0.0475 -0.0380,0.0761 -0.1046 0.0761c -0.3613,-0.0000 -0.5419,0.3708 -0.6750 0.6465c -0.5039,1.0648 -0.9222,2.0440 -1.6828 3.8789c -0.2852,0.6845 -0.6275,1.4831 -1.3025 1.4831c -0.1806,-0.0000 -0.5514,-0.1046 -0.5514 -0.4468c 0.0000,-0.2852 0.2092,-0.3708 0.3613 -0.3708c 0.1426,-0.0000 0.2377,0.0570 0.2947 0.1331c 0.0951,0.0951 0.1616,0.1616 0.2567 0.1616c 0.1426,-0.0000 0.4754,-0.8176 0.7130 -1.3976c 0.0570,-0.1141 0.0761,-0.2092 0.0761 -0.2947c 0.0000,-0.0951 -0.0856,-0.3518 -0.1616 -0.5419l -1.1979,-2.7856 c -0.1521,-0.3613 -0.2567,-0.4659 -0.5799 -0.4659c -0.0570,-0.0000 -0.0951,-0.0285 -0.0951 -0.0666v -0.1901 l 0.0190,-0.0190 c 0.0000,-0.0000 0.4183,0.0190 0.7035 0.0190c 0.4468,-0.0000 1.1314,-0.0190 1.1314 -0.0190l 0.0190,0.0285 v 0.1711 ZM 307.6814,311.4680 ZM 309.6019,307.5701 c 0.0000,0.0475 -0.0380,0.0761 -0.0856 0.0761h -0.1426 c -0.2092,-0.0000 -0.2757,0.0570 -0.2757 0.1521c 0.0000,0.0666 0.0380,0.1521 0.0856 0.2852l 0.9983,2.5099 l 0.8271,-2.0631 l -0.1711,-0.4278 c -0.1236,-0.3232 -0.3232,-0.4563 -0.6085 -0.4563c -0.0475,-0.0000 -0.0951,-0.0190 -0.0951 -0.0666v -0.1901 l 0.0190,-0.0190 c 0.0000,-0.0000 0.5324,0.0190 0.8652 0.0190l 0.9507,-0.0190 l 0.0285,0.0190 v 0.1806 c 0.0000,0.0475 -0.0475,0.0761 -0.0951 0.0761h -0.1711 c -0.1901,-0.0000 -0.2757,0.0380 -0.2757 0.1331c 0.0000,0.0761 0.0380,0.1711 0.0951 0.3042l 0.9887,2.5099 l 0.9887,-2.4624 c 0.0285,-0.0570 0.0475,-0.1331 0.0475 -0.2092c 0.0000,-0.1616 -0.1046,-0.2757 -0.4278 -0.2757h -0.1426 c -0.0475,-0.0000 -0.0856,-0.0380 -0.0856 -0.0666v -0.1901 l 0.0285,-0.0190 c 0.0000,-0.0000 0.6275,0.0190 0.9792 0.0190c 0.3232,-0.0000 0.7035,-0.0190 0.7035 -0.0190l 0.0095,0.0190 v 0.1806 c 0.0000,0.0570 -0.0570,0.0761 -0.1141 0.0761c -0.2377,-0.0000 -0.4849,0.1046 -0.6560 0.5229l -1.2930,3.2134 c -0.0570,0.1426 -0.1331,0.1997 -0.2187 0.1997c -0.0951,-0.0000 -0.1711,-0.0570 -0.2282 -0.1901l -0.9507,-2.3768 l -0.9507,2.3578 c -0.0666,0.1521 -0.1426,0.2092 -0.2282 0.2092c -0.0951,-0.0000 -0.1711,-0.0570 -0.2282 -0.1901l -1.3025,-3.2895 c -0.1426,-0.3708 -0.3137,-0.4563 -0.5990 -0.4563c -0.0475,-0.0000 -0.1141,-0.0190 -0.1141 -0.0666v -0.1901 l 0.0190,-0.0190 c 0.0000,-0.0000 0.4468,0.0190 0.8652 0.0190c 0.4373,-0.0000 0.9412,-0.0190 0.9412 -0.0190l 0.0190,0.0285 v 0.1711 ZM 314.7547,311.4680 ZM 315.4963,306.0394 c 0.0000,-0.2472 0.1997,-0.4563 0.4468 -0.4563c 0.2567,-0.0000 0.4563,0.2092 0.4563 0.4563c 0.0000,0.2567 -0.1997,0.4563 -0.4563 0.4563c -0.2472,-0.0000 -0.4468,-0.1997 -0.4468 -0.4563ZM 315.4963,306.0394 ZM 316.3995,310.7835 c 0.0000,0.2757 0.1046,0.4183 0.4088 0.4183h 0.1806 c 0.0475,-0.0000 0.0856,0.0285 0.0856 0.0761v 0.1806 l -0.0190,0.0190 c 0.0000,-0.0000 -0.6560,-0.0190 -1.0268 -0.0190c -0.3328,-0.0000 -0.9792,0.0190 -0.9792 0.0190l -0.0190,-0.0190 v -0.1806 c 0.0000,-0.0475 0.0285,-0.0761 0.0761 -0.0761h 0.1806 c 0.3137,-0.0000 0.4088,-0.1426 0.4088 -0.4183v -2.3673 c 0.0000,-0.5039 -0.0856,-0.5799 -0.2187 -0.5799c -0.1236,-0.0000 -0.2377,0.0095 -0.3993 0.0475l -0.0475,-0.2662 c 0.6085,-0.1046 0.7130,-0.1426 0.9887 -0.2757c 0.1046,-0.0380 0.1711,-0.0761 0.2377 -0.0761h 0.1426 v 3.5177 ZM 317.2646,311.4680 ZM 320.4400,310.6219 v -2.4624 c -0.2282,-0.3613 -0.4849,-0.5609 -0.9317 -0.5609c -0.1901,-0.0000 -0.5799,0.0285 -0.8842 0.4754c -0.1331,0.1997 -0.2947,0.6085 -0.2947 1.2930c 0.0000,1.2454 0.6465,1.8159 1.1599 1.8159c 0.3137,-0.0000 0.5704,-0.1901 0.9507 -0.5609ZM 320.4400,310.6219 ZM 321.1531,304.8320 v 5.4952 c 0.0000,0.2852 0.0190,0.4373 0.0380 0.5039c 0.0285,0.0856 0.1331,0.1426 0.2092 0.1426c 0.1141,-0.0000 0.3232,-0.0000 0.4659 -0.0285l 0.0380,0.2662 c -0.5514,0.0951 -1.0458,0.1997 -1.2454 0.3708h -0.2282 l 0.0285,-0.6560 c -0.3613,0.3708 -0.7321,0.6560 -1.2169 0.6560c -1.0268,-0.0000 -1.6543,-0.8747 -1.6543 -2.0440c 0.0000,-0.7035 0.1901,-1.2930 0.5990 -1.7018c 0.3803,-0.3613 0.7986,-0.5704 1.4261 -0.5704c 0.1901,-0.0000 0.6085,0.0856 0.8271 0.2092v -1.4546 c 0.0000,-0.5419 -0.0856,-0.6940 -0.2757 -0.6940l -0.3137,0.0380 c -0.0190,-0.0000 -0.0475,-0.0190 -0.0475 -0.0475l -0.0190,-0.2377 c 0.1521,-0.0000 0.4944,-0.0570 0.6560 -0.0856c 0.1806,-0.0380 0.3137,-0.0761 0.5039 -0.1616h 0.2092 ZM 321.9612,311.4680 ZM 323.0450,308.8345 h 1.7493 c 0.0951,-0.0000 0.1331,-0.0475 0.1331 -0.1331c 0.0000,-0.8842 -0.4468,-1.1123 -0.7891 -1.1123c -0.2187,-0.0000 -0.9317,0.0856 -1.0933 1.2454ZM 323.0450,308.8345 ZM 325.5549,310.5839 l 0.1901,0.1521 c -0.3613,0.4944 -0.9222,0.8461 -1.6067 0.8461c -1.3025,-0.0000 -1.8539,-0.9697 -1.8539 -2.0060c 0.0000,-1.4451 0.9507,-2.3102 1.8539 -2.3102c 1.2549,-0.0000 1.5497,0.9792 1.5497 1.7778c 0.0000,0.1046 -0.0666,0.1616 -0.1711 0.1616h -2.5004 c -0.0095,0.0570 -0.0095,0.1141 -0.0095 0.1901c 0.0000,0.9697 0.6750,1.7208 1.3595 1.7208c 0.5229,-0.0000 0.8556,-0.1711 1.1884 -0.5324ZM 326.0303,311.4680 ZM 326.8764,310.7835 v -2.3673 c 0.0000,-0.4754 -0.0666,-0.5799 -0.2092 -0.5799c -0.1236,-0.0000 -0.2377,0.0095 -0.3993 0.0475l -0.0475,-0.2662 c 0.5990,-0.1046 0.7035,-0.1331 0.9887 -0.2757c 0.0951,-0.0475 0.1711,-0.0761 0.2377 -0.0761h 0.1426 l -0.0285,0.8556 h 0.0285 c 0.2472,-0.3708 0.6655,-0.8556 1.1123 -0.8556c 0.3898,-0.0000 0.5324,0.1901 0.5324 0.4373c 0.0000,0.2472 -0.1616,0.3993 -0.4088 0.3993c -0.1901,-0.0000 -0.2947,-0.0761 -0.3898 -0.1711c -0.0570,-0.0570 -0.1236,-0.0856 -0.1901 -0.0856c -0.1046,-0.0000 -0.3137,0.1711 -0.5419 0.4944c -0.0666,0.0856 -0.1141,0.2092 -0.1141 0.3328v 2.1106 c 0.0000,0.2757 0.0951,0.4183 0.4088 0.4183h 0.2757 c 0.0475,-0.0000 0.0856,0.0285 0.0856 0.0761v 0.1806 l -0.0190,0.0190 c 0.0000,-0.0000 -0.7511,-0.0190 -1.1218 -0.0190c -0.3423,-0.0000 -0.9887,0.0190 -0.9887 0.0190l -0.0095,-0.0190 v -0.1806 c 0.0000,-0.0475 0.0190,-0.0761 0.0666 -0.0761h 0.1806 c 0.3232,-0.0000 0.4088,-0.1426 0.4088 -0.4183ZM 331.7061,311.4680 ZM 334.8815,310.6219 v -2.4624 c -0.2282,-0.3613 -0.4849,-0.5609 -0.9317 -0.5609c -0.1901,-0.0000 -0.5799,0.0285 -0.8842 0.4754c -0.1331,0.1997 -0.2947,0.6085 -0.2947 1.2930c 0.0000,1.2454 0.6465,1.8159 1.1599 1.8159c 0.3137,-0.0000 0.5704,-0.1901 0.9507 -0.5609ZM 334.8815,310.6219 ZM 335.5945,304.8320 v 5.4952 c 0.0000,0.2852 0.0190,0.4373 0.0380 0.5039c 0.0285,0.0856 0.1331,0.1426 0.2092 0.1426c 0.1141,-0.0000 0.3232,-0.0000 0.4659 -0.0285l 0.0380,0.2662 c -0.5514,0.0951 -1.0458,0.1997 -1.2454 0.3708h -0.2282 l 0.0285,-0.6560 c -0.3613,0.3708 -0.7321,0.6560 -1.2169 0.6560c -1.0268,-0.0000 -1.6543,-0.8747 -1.6543 -2.0440c 0.0000,-0.7035 0.1901,-1.2930 0.5990 -1.7018c 0.3803,-0.3613 0.7986,-0.5704 1.4261 -0.5704c 0.1901,-0.0000 0.6085,0.0856 0.8271 0.2092v -1.4546 c 0.0000,-0.5419 -0.0856,-0.6940 -0.2757 -0.6940l -0.3137,0.0380 c -0.0190,-0.0000 -0.0475,-0.0190 -0.0475 -0.0475l -0.0190,-0.2377 c 0.1521,-0.0000 0.4944,-0.0570 0.6560 -0.0856c 0.1806,-0.0380 0.3137,-0.0761 0.5039 -0.1616h 0.2092 ZM 336.4026,311.4680 ZM 337.1442,306.0394 c 0.0000,-0.2472 0.1997,-0.4563 0.4468 -0.4563c 0.2567,-0.0000 0.4563,0.2092 0.4563 0.4563c 0.0000,0.2567 -0.1997,0.4563 -0.4563 0.4563c -0.2472,-0.0000 -0.4468,-0.1997 -0.4468 -0.4563ZM 337.1442,306.0394 ZM 338.0474,310.7835 c 0.0000,0.2757 0.1046,0.4183 0.4088 0.4183h 0.1806 c 0.0475,-0.0000 0.0856,0.0285 0.0856 0.0761v 0.1806 l -0.0190,0.0190 c 0.0000,-0.0000 -0.6560,-0.0190 -1.0268 -0.0190c -0.3328,-0.0000 -0.9792,0.0190 -0.9792 0.0190l -0.0190,-0.0190 v -0.1806 c 0.0000,-0.0475 0.0285,-0.0761 0.0761 -0.0761h 0.1806 c 0.3137,-0.0000 0.4088,-0.1426 0.4088 -0.4183v -2.3673 c 0.0000,-0.5039 -0.0856,-0.5799 -0.2187 -0.5799c -0.1236,-0.0000 -0.2377,0.0095 -0.3993 0.0475l -0.0475,-0.2662 c 0.6085,-0.1046 0.7130,-0.1426 0.9887 -0.2757c 0.1046,-0.0380 0.1711,-0.0761 0.2377 -0.0761h 0.1426 v 3.5177 ZM 338.9125,311.4680 ZM 339.3213,310.1370 l 0.2567,-0.0095 c 0.0285,0.2377 0.1331,0.6940 0.3423 0.9127c 0.0951,0.1046 0.3518,0.2757 0.7035 0.2757c 0.3328,-0.0000 0.8271,-0.2662 0.8271 -0.7321c 0.0000,-0.4088 -0.2282,-0.6845 -0.9792 -1.0078c -0.6940,-0.3042 -1.0553,-0.5039 -1.0553 -1.2169c 0.0000,-0.6370 0.5609,-1.0933 1.3120 -1.0933c 0.4754,-0.0000 0.8271,0.0856 1.1218 0.2377c 0.0570,0.3042 0.0856,0.6275 0.1046 0.9697l -0.2567,0.0095 c -0.1997,-0.7796 -0.7701,-0.9317 -0.9697 -0.9317c -0.3613,-0.0000 -0.7321,0.1426 -0.7321 0.6655c 0.0000,0.3803 0.1806,0.5704 0.7035 0.7606c 0.7701,0.2852 1.3880,0.6275 1.3880 1.3880c 0.0000,0.9412 -0.9983,1.2169 -1.4451 1.2169c -0.3328,-0.0000 -0.6085,-0.0380 -0.8556 -0.1046c -0.0666,-0.0095 -0.1141,-0.0190 -0.1806 -0.0190c -0.0475,-0.0000 -0.1236,0.0095 -0.2187 0.0285c 0.0000,-0.3993 -0.0285,-0.8842 -0.0666 -1.3500ZM 342.4397,311.4680 ZM 343.9989,307.7507 v 2.4338 c 0.0000,0.5894 0.0570,0.8747 0.3137 0.8747c 0.2472,-0.0000 0.4373,-0.0761 0.6845 -0.2662l 0.1711,0.1616 c -0.3708,0.4183 -0.7511,0.6275 -1.1884 0.6275c -0.4373,-0.0000 -0.6940,-0.2662 -0.6940 -0.9412v -2.8902 h -0.6180 c -0.0285,-0.0000 -0.0380,-0.0095 -0.0380 -0.0380v -0.2947 c 0.0000,-0.0285 0.0095,-0.0380 0.0285 -0.0380c 0.6370,-0.0000 0.7891,-0.3708 0.7891 -1.0933v -0.1806 l 0.5514,-0.1901 v 1.4641 h 1.0458 c 0.0475,-0.0000 0.0761,0.0190 0.0761 0.0570v 0.1901 c 0.0000,0.0856 -0.1331,0.1236 -0.2282 0.1236h -0.8937 ZM 345.3109,311.4680 ZM 346.1570,310.7835 v -2.3673 c 0.0000,-0.4754 -0.0666,-0.5799 -0.2092 -0.5799c -0.1236,-0.0000 -0.2377,0.0095 -0.3993 0.0475l -0.0475,-0.2662 c 0.5990,-0.1046 0.7035,-0.1331 0.9887 -0.2757c 0.0951,-0.0475 0.1711,-0.0761 0.2377 -0.0761h 0.1426 l -0.0285,0.8556 h 0.0285 c 0.2472,-0.3708 0.6655,-0.8556 1.1123 -0.8556c 0.3898,-0.0000 0.5324,0.1901 0.5324 0.4373c 0.0000,0.2472 -0.1616,0.3993 -0.4088 0.3993c -0.1901,-0.0000 -0.2947,-0.0761 -0.3898 -0.1711c -0.0570,-0.0570 -0.1236,-0.0856 -0.1901 -0.0856c -0.1046,-0.0000 -0.3137,0.1711 -0.5419 0.4944c -0.0666,0.0856 -0.1141,0.2092 -0.1141 0.3328v 2.1106 c 0.0000,0.2757 0.0951,0.4183 0.4088 0.4183h 0.2757 c 0.0475,-0.0000 0.0856,0.0285 0.0856 0.0761v 0.1806 l -0.0190,0.0190 c 0.0000,-0.0000 -0.7511,-0.0190 -1.1218 -0.0190c -0.3423,-0.0000 -0.9887,0.0190 -0.9887 0.0190l -0.0095,-0.0190 v -0.1806 c 0.0000,-0.0475 0.0190,-0.0761 0.0666 -0.0761h 0.1806 c 0.3232,-0.0000 0.4088,-0.1426 0.4088 -0.4183ZM 348.6098,311.4680 ZM 349.3514,306.0394 c 0.0000,-0.2472 0.1997,-0.4563 0.4468 -0.4563c 0.2567,-0.0000 0.4563,0.2092 0.4563 0.4563c 0.0000,0.2567 -0.1997,0.4563 -0.4563 0.4563c -0.2472,-0.0000 -0.4468,-0.1997 -0.4468 -0.4563ZM 349.3514,306.0394 ZM 350.2546,310.7835 c 0.0000,0.2757 0.1046,0.4183 0.4088 0.4183h 0.1806 c 0.0475,-0.0000 0.0856,0.0285 0.0856 0.0761v 0.1806 l -0.0190,0.0190 c 0.0000,-0.0000 -0.6560,-0.0190 -1.0268 -0.0190c -0.3328,-0.0000 -0.9792,0.0190 -0.9792 0.0190l -0.0190,-0.0190 v -0.1806 c 0.0000,-0.0475 0.0285,-0.0761 0.0761 -0.0761h 0.1806 c 0.3137,-0.0000 0.4088,-0.1426 0.4088 -0.4183v -2.3673 c 0.0000,-0.5039 -0.0856,-0.5799 -0.2187 -0.5799c -0.1236,-0.0000 -0.2377,0.0095 -0.3993 0.0475l -0.0475,-0.2662 c 0.6085,-0.1046 0.7130,-0.1426 0.9887 -0.2757c 0.1046,-0.0380 0.1711,-0.0761 0.2377 -0.0761h 0.1426 v 3.5177 ZM 351.1197,311.4680 ZM 352.5363,310.9451 c 0.1901,0.2282 0.3898,0.3042 0.6845 0.3042c 0.9032,-0.0000 1.3595,-0.8366 1.3595 -1.9205c 0.0000,-0.9697 -0.4944,-1.6638 -1.0743 -1.6638c -0.1046,-0.0000 -0.5990,0.0190 -0.9697 0.4088v 2.8712 ZM 352.5363,310.9451 ZM 351.8233,306.0204 c 0.0000,-0.5419 -0.0951,-0.6940 -0.2852 -0.6940l -0.3042,0.0380 c -0.0285,-0.0000 -0.0475,-0.0190 -0.0475 -0.0475l -0.0190,-0.2377 c 0.1521,-0.0000 0.4944,-0.0570 0.6560 -0.0856c 0.1711,-0.0380 0.3137,-0.0761 0.5039 -0.1616h 0.2092 v 2.9472 c 0.3232,-0.3518 0.7035,-0.5229 1.1599 -0.5229c 0.8271,-0.0000 1.6162,0.7891 1.6162 1.9490c 0.0000,1.5116 -1.0648,2.3673 -2.0345 2.3673c -0.4088,-0.0000 -0.7130,-0.1141 -0.9887 -0.3518c -0.0856,0.1141 -0.2092,0.2567 -0.2947 0.3518l -0.1997,-0.0475 c 0.0285,-0.2282 0.0285,-0.3803 0.0285 -0.7511v -4.7536 ZM 355.1508,311.4680 ZM 359.2294,310.3652 c 0.0000,0.4754 0.0475,0.6275 0.2377 0.6275c 0.1141,-0.0000 0.3232,-0.0190 0.4849 -0.0475l 0.0380,0.2662 c -0.5799,0.1046 -1.0458,0.1997 -1.2645 0.3708h -0.2092 l 0.0285,-0.7035 h -0.0285 c -0.5229,0.5704 -0.9507,0.7035 -1.3405 0.7035c -0.9412,-0.0000 -1.1884,-0.6370 -1.1884 -1.2930v -2.1676 c 0.0000,-0.3137 -0.0666,-0.4754 -0.4183 -0.4754c -0.0380,-0.0000 -0.1046,0.0095 -0.1616 0.0095l -0.0285,-0.0095 v -0.2472 l 0.0285,-0.0285 c 0.0000,-0.0000 0.6465,0.0190 0.9507 0.0190c 0.1331,-0.0000 0.3518,-0.0190 0.3518 -0.0190l -0.0095,0.7606 v 2.0250 c 0.0000,0.8461 0.4373,0.9983 0.7225 0.9983c 0.2187,-0.0000 0.4183,-0.0856 0.6180 -0.2282c 0.2282,-0.1711 0.3803,-0.3042 0.4754 -0.4278v -2.3483 c 0.0000,-0.3423 -0.0475,-0.5039 -0.3993 -0.5039c -0.0570,-0.0000 -0.1616,0.0095 -0.1901 0.0095l -0.0190,-0.0190 v -0.2377 l 0.0190,-0.0285 c 0.0000,-0.0000 0.6750,0.0190 0.9412 0.0190c 0.2187,-0.0000 0.3708,-0.0190 0.3708 -0.0190l -0.0095,0.7511 v 2.2437 ZM 360.0660,311.4680 ZM 361.6252,307.7507 v 2.4338 c 0.0000,0.5894 0.0570,0.8747 0.3137 0.8747c 0.2472,-0.0000 0.4373,-0.0761 0.6845 -0.2662l 0.1711,0.1616 c -0.3708,0.4183 -0.7511,0.6275 -1.1884 0.6275c -0.4373,-0.0000 -0.6940,-0.2662 -0.6940 -0.9412v -2.8902 h -0.6180 c -0.0285,-0.0000 -0.0380,-0.0095 -0.0380 -0.0380v -0.2947 c 0.0000,-0.0285 0.0095,-0.0380 0.0285 -0.0380c 0.6370,-0.0000 0.7891,-0.3708 0.7891 -1.0933v -0.1806 l 0.5514,-0.1901 v 1.4641 h 1.0458 c 0.0475,-0.0000 0.0761,0.0190 0.0761 0.0570v 0.1901 c 0.0000,0.0856 -0.1331,0.1236 -0.2282 0.1236h -0.8937 ZM 362.9372,311.4680 ZM 363.6787,306.0394 c 0.0000,-0.2472 0.1997,-0.4563 0.4468 -0.4563c 0.2567,-0.0000 0.4563,0.2092 0.4563 0.4563c 0.0000,0.2567 -0.1997,0.4563 -0.4563 0.4563c -0.2472,-0.0000 -0.4468,-0.1997 -0.4468 -0.4563ZM 363.6787,306.0394 ZM 364.5819,310.7835 c 0.0000,0.2757 0.1046,0.4183 0.4088 0.4183h 0.1806 c 0.0475,-0.0000 0.0856,0.0285 0.0856 0.0761v 0.1806 l -0.0190,0.0190 c 0.0000,-0.0000 -0.6560,-0.0190 -1.0268 -0.0190c -0.3328,-0.0000 -0.9792,0.0190 -0.9792 0.0190l -0.0190,-0.0190 v -0.1806 c 0.0000,-0.0475 0.0285,-0.0761 0.0761 -0.0761h 0.1806 c 0.3137,-0.0000 0.4088,-0.1426 0.4088 -0.4183v -2.3673 c 0.0000,-0.5039 -0.0856,-0.5799 -0.2187 -0.5799c -0.1236,-0.0000 -0.2377,0.0095 -0.3993 0.0475l -0.0475,-0.2662 c 0.6085,-0.1046 0.7130,-0.1426 0.9887 -0.2757c 0.1046,-0.0380 0.1711,-0.0761 0.2377 -0.0761h 0.1426 v 3.5177 ZM 365.4471,311.4680 ZM 365.7703,309.5190 c 0.0000,-1.3025 0.7035,-2.2532 1.9680 -2.2532c 1.4071,-0.0000 1.9490,1.1789 1.9490 2.1676c 0.0000,0.9507 -0.6180,2.1486 -1.9680 2.1486c -1.2740,-0.0000 -1.9490,-1.0933 -1.9490 -2.0631ZM 365.7703,309.5190 ZM 367.6337,307.5796 c -0.7606,-0.0000 -1.1123,0.8937 -1.1123 1.7208c 0.0000,0.7321 0.4183,1.9490 1.3595 1.9490c 0.4278,-0.0000 1.0553,-0.2567 1.0553 -1.5116c 0.0000,-1.3976 -0.5229,-2.1581 -1.3025 -2.1581ZM 370.0010,311.4680 ZM 373.4616,310.7835 v -2.0821 c 0.0000,-0.6655 -0.1141,-0.9792 -0.6180 -0.9792c -0.4183,-0.0000 -0.7796,0.1616 -1.2645 0.7321v 2.3293 c 0.0000,0.2757 0.0951,0.4183 0.4088 0.4183h 0.1331 c 0.0475,-0.0000 0.0761,0.0285 0.0761 0.0761v 0.1806 l -0.0190,0.0190 c 0.0000,-0.0000 -0.5990,-0.0190 -0.9697 -0.0190c -0.3423,-0.0000 -0.9887,0.0190 -0.9887 0.0190l -0.0190,-0.0190 v -0.1806 c 0.0000,-0.0475 0.0285,-0.0761 0.0761 -0.0761h 0.1806 c 0.3232,-0.0000 0.4088,-0.1426 0.4088 -0.4183v -2.3673 c 0.0000,-0.5134 -0.0761,-0.5799 -0.2092 -0.5799c -0.1236,-0.0000 -0.2377,0.0095 -0.3993 0.0475l -0.0475,-0.2662 c 0.3993,-0.0666 0.6845,-0.1141 0.9792 -0.2757c 0.1046,-0.0475 0.1806,-0.0761 0.2472 -0.0761h 0.1426 l -0.0285,0.8461 h 0.0285 c 0.6085,-0.7130 1.0648,-0.8461 1.5497 -0.8461c 0.8556,-0.0000 1.0363,0.6560 1.0363 1.5021v 2.0155 c 0.0000,0.2757 0.1046,0.4183 0.4088 0.4183h 0.1806 c 0.0475,-0.0000 0.0856,0.0285 0.0856 0.0761v 0.1806 l -0.0190,0.0190 c 0.0000,-0.0000 -0.6560,-0.0190 -1.0268 -0.0190c -0.3328,-0.0000 -0.9317,0.0190 -0.9317 0.0190l -0.0190,-0.0190 v -0.1806 c 0.0000,-0.0475 0.0285,-0.0761 0.0761 -0.0761h 0.1331 c 0.3137,-0.0000 0.4088,-0.1426 0.4088 -0.4183Z"/></g><g stroke-linejoin="miter" stroke-opacity="1.0" fill-opacity="0.2" stroke="rgb(102,102,102)" stroke-width="0.0" fill="rgb(76,76,76)" stroke-linecap="butt" stroke-miterlimit="10.0"><path d="M 285.4957,315.5629 l -0.0000,-8.1898 h -8.1898 l -0.0000,8.1898 Z"/></g><g stroke-linejoin="miter" stroke-opacity="1.0" fill-opacity="0.63" stroke="rgb(0,0,0)" fill-rule="evenodd" stroke-width="0.0" fill="rgb(0,0,0)" stroke-linecap="butt" stroke-miterlimit="10.0"><path d="M 288.7716,293.9599 ZM 290.1882,293.4370 c 0.1901,0.2282 0.3898,0.3042 0.6845 0.3042c 0.9032,-0.0000 1.3595,-0.8366 1.3595 -1.9205c 0.0000,-0.9697 -0.4944,-1.6638 -1.0743 -1.6638c -0.1046,-0.0000 -0.5990,0.0190 -0.9697 0.4088v 2.8712 ZM 290.1882,293.4370 ZM 289.4751,288.5122 c 0.0000,-0.5419 -0.0951,-0.6940 -0.2852 -0.6940l -0.3042,0.0380 c -0.0285,-0.0000 -0.0475,-0.0190 -0.0475 -0.0475l -0.0190,-0.2377 c 0.1521,-0.0000 0.4944,-0.0570 0.6560 -0.0856c 0.1711,-0.0380 0.3137,-0.0761 0.5039 -0.1616h 0.2092 v 2.9472 c 0.3232,-0.3518 0.7035,-0.5229 1.1599 -0.5229c 0.8271,-0.0000 1.6162,0.7891 1.6162 1.9490c 0.0000,1.5116 -1.0648,2.3673 -2.0345 2.3673c -0.4088,-0.0000 -0.7130,-0.1141 -0.9887 -0.3518c -0.0856,0.1141 -0.2092,0.2567 -0.2947 0.3518l -0.1997,-0.0475 c 0.0285,-0.2282 0.0285,-0.3803 0.0285 -0.7511v -4.7536 ZM 293.2495,293.9599 ZM 294.1527,293.2753 v -4.7631 c 0.0000,-0.5419 -0.0951,-0.6940 -0.2852 -0.6940l -0.3042,0.0380 c -0.0285,-0.0000 -0.0570,-0.0190 -0.0570 -0.0475l -0.0190,-0.2377 c 0.1521,-0.0000 0.5039,-0.0570 0.6655 -0.0856c 0.1711,-0.0380 0.3042,-0.0761 0.4944 -0.1616h 0.2092 v 5.9515 c 0.0000,0.2757 0.1046,0.4183 0.4088 0.4183h 0.2282 c 0.0380,-0.0000 0.0761,0.0285 0.0761 0.0761v 0.1806 l -0.0190,0.0190 c 0.0000,-0.0000 -0.6940,-0.0190 -1.0648 -0.0190c -0.3328,-0.0000 -1.0268,0.0190 -1.0268 0.0190l -0.0095,-0.0190 v -0.1806 c 0.0000,-0.0475 0.0190,-0.0761 0.0666 -0.0761h 0.2282 c 0.3137,-0.0000 0.4088,-0.1426 0.4088 -0.4183ZM 295.7214,293.9599 ZM 299.7999,292.8570 c 0.0000,0.4754 0.0475,0.6275 0.2377 0.6275c 0.1141,-0.0000 0.3232,-0.0190 0.4849 -0.0475l 0.0380,0.2662 c -0.5799,0.1046 -1.0458,0.1997 -1.2645 0.3708h -0.2092 l 0.0285,-0.7035 h -0.0285 c -0.5229,0.5704 -0.9507,0.7035 -1.3405 0.7035c -0.9412,-0.0000 -1.1884,-0.6370 -1.1884 -1.2930v -2.1676 c 0.0000,-0.3137 -0.0666,-0.4754 -0.4183 -0.4754c -0.0380,-0.0000 -0.1046,0.0095 -0.1616 0.0095l -0.0285,-0.0095 v -0.2472 l 0.0285,-0.0285 c 0.0000,-0.0000 0.6465,0.0190 0.9507 0.0190c 0.1331,-0.0000 0.3518,-0.0190 0.3518 -0.0190l -0.0095,0.7606 v 2.0250 c 0.0000,0.8461 0.4373,0.9983 0.7225 0.9983c 0.2187,-0.0000 0.4183,-0.0856 0.6180 -0.2282c 0.2282,-0.1711 0.3803,-0.3042 0.4754 -0.4278v -2.3483 c 0.0000,-0.3423 -0.0475,-0.5039 -0.3993 -0.5039c -0.0570,-0.0000 -0.1616,0.0095 -0.1901 0.0095l -0.0190,-0.0190 v -0.2377 l 0.0190,-0.0285 c 0.0000,-0.0000 0.6750,0.0190 0.9412 0.0190c 0.2187,-0.0000 0.3708,-0.0190 0.3708 -0.0190l -0.0095,0.7511 v 2.2437 ZM 300.6366,293.9599 ZM 301.7204,291.3264 h 1.7493 c 0.0951,-0.0000 0.1331,-0.0475 0.1331 -0.1331c 0.0000,-0.8842 -0.4468,-1.1123 -0.7891 -1.1123c -0.2187,-0.0000 -0.9317,0.0856 -1.0933 1.2454ZM 301.7204,291.3264 ZM 304.2303,293.0757 l 0.1901,0.1521 c -0.3613,0.4944 -0.9222,0.8461 -1.6067 0.8461c -1.3025,-0.0000 -1.8539,-0.9697 -1.8539 -2.0060c 0.0000,-1.4451 0.9507,-2.3102 1.8539 -2.3102c 1.2549,-0.0000 1.5497,0.9792 1.5497 1.7778c 0.0000,0.1046 -0.0666,0.1616 -0.1711 0.1616h -2.5004 c -0.0095,0.0570 -0.0095,0.1141 -0.0095 0.1901c 0.0000,0.9697 0.6750,1.7208 1.3595 1.7208c 0.5229,-0.0000 0.8556,-0.1711 1.1884 -0.5324ZM 307.0824,293.9599 ZM 310.0867,291.2693 c 0.0000,-0.7891 -0.3708,-1.2454 -0.9412 -1.2454c -0.4944,-0.0000 -0.8271,0.3423 -0.8271 1.0838c 0.0000,0.4944 0.1901,1.2740 0.9507 1.2740c 0.3328,-0.0000 0.8176,-0.1616 0.8176 -1.1123ZM 310.0867,291.2693 ZM 308.3089,294.0264 c -0.2947,0.2757 -0.3613,0.5704 -0.3613 0.8937c 0.0000,0.7130 0.8556,0.9222 1.1789 0.9222c 0.8176,-0.0000 1.8539,-0.2852 1.8539 -0.9697c 0.0000,-0.2472 -0.1331,-0.4088 -0.5039 -0.5894c -0.2662,-0.1331 -0.6560,-0.2377 -1.1123 -0.2377c -0.0761,-0.0000 -0.1806,0.0095 -0.3137 0.0190c -0.1331,0.0095 -0.2757,0.0095 -0.3803 0.0095c -0.1521,-0.0000 -0.2282,-0.0190 -0.3613 -0.0475ZM 308.3089,294.0264 ZM 311.1991,290.2711 c -0.1521,-0.0000 -0.2472,-0.0856 -0.2852 -0.1616c -0.0570,-0.0856 -0.0951,-0.1141 -0.1616 -0.1141c -0.1141,-0.0000 -0.2947,0.1331 -0.3613 0.2282c 0.2662,0.2852 0.3898,0.5609 0.3898 1.0078c 0.0000,0.9317 -0.7606,1.4356 -1.5592 1.4356c -0.3518,-0.0000 -0.6370,-0.0666 -0.8556 -0.1997c -0.1046,0.1616 -0.1616,0.3613 -0.1616 0.5514c 0.0000,0.4088 0.3137,0.5134 0.5799 0.5134c 0.0475,-0.0000 0.1616,-0.0095 0.2947 -0.0190c 0.2187,-0.0285 0.4563,-0.0475 0.6180 -0.0475c 0.3328,-0.0000 0.9602,0.0666 1.3405 0.3898c 0.2567,0.2377 0.3993,0.4659 0.3993 0.7701c 0.0000,1.0268 -1.3500,1.5687 -2.5764 1.5687c -0.6940,-0.0000 -1.4641,-0.2567 -1.4641 -1.0838c 0.0000,-0.4088 0.2567,-0.8461 0.7416 -1.1504c -0.2377,-0.1236 -0.4088,-0.3613 -0.4088 -0.7035c 0.0000,-0.3232 0.1426,-0.7321 0.3993 -0.9602c -0.2567,-0.2567 -0.4754,-0.5799 -0.4754 -1.1028c 0.0000,-0.8747 0.7701,-1.4356 1.5782 -1.4356c 0.5324,-0.0000 0.8652,0.2187 0.9697 0.2947c 0.2377,-0.3232 0.6655,-0.4849 0.9032 -0.4849c 0.2472,-0.0000 0.4183,0.1616 0.4183 0.3613c 0.0000,0.2092 -0.1331,0.3423 -0.3232 0.3423ZM 311.6839,293.9599 ZM 314.4505,291.6306 l -0.7511,0.1901 c -0.8366,0.2567 -0.9602,0.6940 -0.9602 1.1218c 0.0000,0.2947 0.1426,0.7416 0.7416 0.7416c 0.2852,-0.0000 0.7225,-0.2757 0.9697 -0.4849v -1.5687 ZM 314.4505,291.6306 ZM 315.0590,294.0739 c -0.3613,-0.0000 -0.5609,-0.3232 -0.5990 -0.5514l -0.2187,0.1521 c -0.4373,0.3042 -0.5990,0.3993 -1.0363 0.3993c -0.6655,-0.0000 -1.1504,-0.3803 -1.1504 -1.0933c 0.0000,-0.7225 0.6180,-1.2169 1.5212 -1.4451l 0.8747,-0.2187 c 0.0000,-1.0743 -0.4944,-1.2740 -0.8176 -1.2740c -0.3613,-0.0000 -0.7796,0.1616 -0.7796 0.4563c 0.0000,0.1046 0.0190,0.1616 0.0285 0.1901c 0.0190,0.0380 0.0285,0.1046 0.0285 0.1711c 0.0000,0.1236 -0.0951,0.3137 -0.3708 0.3137c -0.2282,-0.0000 -0.3803,-0.1521 -0.3803 -0.3803c 0.0000,-0.5514 0.8937,-1.0363 1.5021 -1.0363c 0.6940,-0.0000 1.4926,0.2852 1.4926 1.6352v 1.3976 c 0.0000,0.5799 0.0095,0.8271 0.2282 0.8271c 0.2092,-0.0000 0.2662,-0.2662 0.2757 -0.4754l 0.2377,0.0475 c -0.0570,0.6940 -0.3518,0.8842 -0.8366 0.8842ZM 315.9717,293.9599 ZM 320.0503,292.8570 c 0.0000,0.4754 0.0475,0.6275 0.2377 0.6275c 0.1141,-0.0000 0.3232,-0.0190 0.4849 -0.0475l 0.0380,0.2662 c -0.5799,0.1046 -1.0458,0.1997 -1.2645 0.3708h -0.2092 l 0.0285,-0.7035 h -0.0285 c -0.5229,0.5704 -0.9507,0.7035 -1.3405 0.7035c -0.9412,-0.0000 -1.1884,-0.6370 -1.1884 -1.2930v -2.1676 c 0.0000,-0.3137 -0.0666,-0.4754 -0.4183 -0.4754c -0.0380,-0.0000 -0.1046,0.0095 -0.1616 0.0095l -0.0285,-0.0095 v -0.2472 l 0.0285,-0.0285 c 0.0000,-0.0000 0.6465,0.0190 0.9507 0.0190c 0.1331,-0.0000 0.3518,-0.0190 0.3518 -0.0190l -0.0095,0.7606 v 2.0250 c 0.0000,0.8461 0.4373,0.9983 0.7225 0.9983c 0.2187,-0.0000 0.4183,-0.0856 0.6180 -0.2282c 0.2282,-0.1711 0.3803,-0.3042 0.4754 -0.4278v -2.3483 c 0.0000,-0.3423 -0.0475,-0.5039 -0.3993 -0.5039c -0.0570,-0.0000 -0.1616,0.0095 -0.1901 0.0095l -0.0190,-0.0190 v -0.2377 l 0.0190,-0.0285 c 0.0000,-0.0000 0.6750,0.0190 0.9412 0.0190c 0.2187,-0.0000 0.3708,-0.0190 0.3708 -0.0190l -0.0095,0.7511 v 2.2437 ZM 320.8869,293.9599 ZM 324.3950,292.6288 l 0.2567,-0.0095 c 0.0285,0.2377 0.1426,0.6845 0.3423 0.9127c 0.0951,0.1046 0.2567,0.2757 0.6085 0.2757c 0.3137,-0.0000 0.7416,-0.2947 0.7416 -0.7321c 0.0000,-0.4088 -0.1901,-0.6750 -0.9412 -0.9983c -0.6940,-0.3042 -1.0078,-0.5134 -1.0078 -1.2264c 0.0000,-0.5990 0.5229,-1.0933 1.2645 -1.0933c 0.4754,-0.0000 0.7796,0.0856 1.0838 0.2377c 0.0570,0.3042 0.0856,0.6275 0.0951 0.9697l -0.2472,0.0095 c -0.1997,-0.7796 -0.7225,-0.9317 -0.9222 -0.9317c -0.3613,-0.0000 -0.6845,0.1997 -0.6845 0.6655c 0.0000,0.3803 0.1331,0.5609 0.6465 0.7511c 0.7701,0.2852 1.3500,0.6370 1.3500 1.3976c 0.0000,0.9032 -0.9317,1.2169 -1.3500 1.2169c -0.3328,-0.0000 -0.5229,-0.0380 -0.7701 -0.1046c -0.0570,-0.0095 -0.1141,-0.0190 -0.1806 -0.0190c -0.0475,-0.0000 -0.1236,0.0095 -0.2187 0.0285c 0.0000,-0.3993 -0.0285,-0.8842 -0.0666 -1.3500ZM 324.3950,292.6288 ZM 321.3432,292.6288 l 0.2567,-0.0095 c 0.0285,0.2377 0.1236,0.6940 0.3423 0.9127c 0.0951,0.1046 0.3042,0.2757 0.6560 0.2757c 0.3328,-0.0000 0.7321,-0.2852 0.7321 -0.7321c 0.0000,-0.4088 -0.1331,-0.6750 -0.8842 -0.9983c -0.6940,-0.3042 -1.0078,-0.5134 -1.0078 -1.2264c 0.0000,-0.5990 0.5609,-1.0933 1.2645 -1.0933c 0.4754,-0.0000 0.7321,0.0856 1.0268 0.2377c 0.0570,0.3042 0.0951,0.6275 0.1046 0.9697l -0.2567,0.0095 c -0.1901,-0.7796 -0.6750,-0.9317 -0.8747 -0.9317c -0.3613,-0.0000 -0.6845,0.1521 -0.6845 0.6655c 0.0000,0.3803 0.1331,0.5609 0.6560 0.7511c 0.7701,0.2852 1.3025,0.6370 1.3025 1.3976c 0.0000,0.9032 -0.9127,1.2169 -1.3595 1.2169c -0.3328,-0.0000 -0.5609,-0.0380 -0.8081 -0.1046c -0.0666,-0.0095 -0.1141,-0.0190 -0.1806 -0.0190c -0.0475,-0.0000 -0.1331,0.0095 -0.2187 0.0285c 0.0000,-0.3993 -0.0285,-0.8842 -0.0666 -1.3500ZM 327.4373,293.9599 ZM 328.1789,288.5312 c 0.0000,-0.2472 0.1997,-0.4563 0.4468 -0.4563c 0.2567,-0.0000 0.4563,0.2092 0.4563 0.4563c 0.0000,0.2567 -0.1997,0.4563 -0.4563 0.4563c -0.2472,-0.0000 -0.4468,-0.1997 -0.4468 -0.4563ZM 328.1789,288.5312 ZM 329.0821,293.2753 c 0.0000,0.2757 0.1046,0.4183 0.4088 0.4183h 0.1806 c 0.0475,-0.0000 0.0856,0.0285 0.0856 0.0761v 0.1806 l -0.0190,0.0190 c 0.0000,-0.0000 -0.6560,-0.0190 -1.0268 -0.0190c -0.3328,-0.0000 -0.9792,0.0190 -0.9792 0.0190l -0.0190,-0.0190 v -0.1806 c 0.0000,-0.0475 0.0285,-0.0761 0.0761 -0.0761h 0.1806 c 0.3137,-0.0000 0.4088,-0.1426 0.4088 -0.4183v -2.3673 c 0.0000,-0.5039 -0.0856,-0.5799 -0.2187 -0.5799c -0.1236,-0.0000 -0.2377,0.0095 -0.3993 0.0475l -0.0475,-0.2662 c 0.6085,-0.1046 0.7130,-0.1426 0.9887 -0.2757c 0.1046,-0.0380 0.1711,-0.0761 0.2377 -0.0761h 0.1426 v 3.5177 ZM 329.9472,293.9599 ZM 332.7138,291.6306 l -0.7511,0.1901 c -0.8366,0.2567 -0.9602,0.6940 -0.9602 1.1218c 0.0000,0.2947 0.1426,0.7416 0.7416 0.7416c 0.2852,-0.0000 0.7225,-0.2757 0.9697 -0.4849v -1.5687 ZM 332.7138,291.6306 ZM 333.3223,294.0739 c -0.3613,-0.0000 -0.5609,-0.3232 -0.5990 -0.5514l -0.2187,0.1521 c -0.4373,0.3042 -0.5990,0.3993 -1.0363 0.3993c -0.6655,-0.0000 -1.1504,-0.3803 -1.1504 -1.0933c 0.0000,-0.7225 0.6180,-1.2169 1.5212 -1.4451l 0.8747,-0.2187 c 0.0000,-1.0743 -0.4944,-1.2740 -0.8176 -1.2740c -0.3613,-0.0000 -0.7796,0.1616 -0.7796 0.4563c 0.0000,0.1046 0.0190,0.1616 0.0285 0.1901c 0.0190,0.0380 0.0285,0.1046 0.0285 0.1711c 0.0000,0.1236 -0.0951,0.3137 -0.3708 0.3137c -0.2282,-0.0000 -0.3803,-0.1521 -0.3803 -0.3803c 0.0000,-0.5514 0.8937,-1.0363 1.5021 -1.0363c 0.6940,-0.0000 1.4926,0.2852 1.4926 1.6352v 1.3976 c 0.0000,0.5799 0.0095,0.8271 0.2282 0.8271c 0.2092,-0.0000 0.2662,-0.2662 0.2757 -0.4754l 0.2377,0.0475 c -0.0570,0.6940 -0.3518,0.8842 -0.8366 0.8842ZM 334.2350,293.9599 ZM 337.6956,293.2753 v -2.0821 c 0.0000,-0.6655 -0.1141,-0.9792 -0.6180 -0.9792c -0.4183,-0.0000 -0.7796,0.1616 -1.2645 0.7321v 2.3293 c 0.0000,0.2757 0.0951,0.4183 0.4088 0.4183h 0.1331 c 0.0475,-0.0000 0.0761,0.0285 0.0761 0.0761v 0.1806 l -0.0190,0.0190 c 0.0000,-0.0000 -0.5990,-0.0190 -0.9697 -0.0190c -0.3423,-0.0000 -0.9887,0.0190 -0.9887 0.0190l -0.0190,-0.0190 v -0.1806 c 0.0000,-0.0475 0.0285,-0.0761 0.0761 -0.0761h 0.1806 c 0.3232,-0.0000 0.4088,-0.1426 0.4088 -0.4183v -2.3673 c 0.0000,-0.5134 -0.0761,-0.5799 -0.2092 -0.5799c -0.1236,-0.0000 -0.2377,0.0095 -0.3993 0.0475l -0.0475,-0.2662 c 0.3993,-0.0666 0.6845,-0.1141 0.9792 -0.2757c 0.1046,-0.0475 0.1806,-0.0761 0.2472 -0.0761h 0.1426 l -0.0285,0.8461 h 0.0285 c 0.6085,-0.7130 1.0648,-0.8461 1.5497 -0.8461c 0.8556,-0.0000 1.0363,0.6560 1.0363 1.5021v 2.0155 c 0.0000,0.2757 0.1046,0.4183 0.4088 0.4183h 0.1806 c 0.0475,-0.0000 0.0856,0.0285 0.0856 0.0761v 0.1806 l -0.0190,0.0190 c 0.0000,-0.0000 -0.6560,-0.0190 -1.0268 -0.0190c -0.3328,-0.0000 -0.9317,0.0190 -0.9317 0.0190l -0.0190,-0.0190 v -0.1806 c 0.0000,-0.0475 0.0285,-0.0761 0.0761 -0.0761h 0.1331 c 0.3137,-0.0000 0.4088,-0.1426 0.4088 -0.4183Z"/></g><g stroke-linejoin="miter" stroke-opacity="1.0" fill-opacity="0.5" stroke="rgb(102,102,102)" stroke-width="0.0" fill="rgb(93,165,218)" stroke-linecap="butt" stroke-miterlimit="10.0"><path d="M 285.4957,298.0547 l -0.0000,-8.1898 h -8.1898 l -0.0000,8.1898 Z"/></g><g stroke-linejoin="miter" stroke-opacity="0.2" fill-opacity="0.0" stroke="rgb(0,0,0)" stroke-width="0.7992199079997283" fill="rgb(0,0,0)" stroke-linecap="butt" stroke-miterlimit="10.0"><path d="M 379.8267,317.0680 l -0.0000,-33.1127 h -107.4027 l -0.0000,33.1127 Z"/></g><g stroke-linejoin="miter" stroke-opacity="0.0" fill-opacity="0.1" stroke="rgb(0,0,0)" stroke-width="0.0" fill="rgb(0,0,0)" stroke-linecap="butt" stroke-miterlimit="10.0"><path d="M 572.7228,258.5670 l -0.0000,-3.2759 h -491.3858 l -0.0000,3.2759 Z"/></g><g stroke-linejoin="miter" stroke-opacity="1.0" fill-opacity="0.6" stroke="rgb(0,0,0)" fill-rule="evenodd" stroke-width="0.0" fill="rgb(0,0,0)" stroke-linecap="butt" stroke-miterlimit="10.0"><path d="M 570.3433,272.3755 ZM 573.7007,270.5393 c 0.0000,-1.1191 -0.6085,-1.6733 -1.2821 -1.6733c -0.4998,-0.0000 -0.8801,0.0761 -1.3038 0.2499l 0.3477,-2.9662 c 0.3586,0.0326 0.7280,0.0435 1.1083 0.0435c 0.5433,-0.0000 1.1083,-0.0326 1.6950 -0.0978l 0.0652,0.0326 l -0.1630,0.7062 c -0.4237,0.0435 -0.7714,0.0543 -1.0757 0.0543c -0.4889,-0.0000 -0.8584,-0.0435 -1.2387 -0.0869l -0.2064,1.7167 c 0.2282,-0.0869 0.6193,-0.1630 1.0431 -0.1630c 1.1517,-0.0000 1.7928,0.9996 1.7928 1.9992c 0.0000,1.2169 -0.8475,2.1513 -2.0753 2.1513c -0.6193,-0.0000 -1.5212,-0.3477 -1.5212 -0.7714c 0.0000,-0.2064 0.1738,-0.3477 0.3694 -0.3477c 0.2173,-0.0000 0.3586,0.1630 0.4889 0.3368c 0.1630,0.1956 0.3368,0.4129 0.6845 0.4129c 0.6954,-0.0000 1.2712,-0.6519 1.2712 -1.5972Z"/></g><g stroke-linejoin="miter" stroke-opacity="0.6" fill-opacity="0.0" stroke="rgb(0,0,0)" stroke-width="1.998049769999321" fill="rgb(0,0,0)" stroke-linecap="butt" stroke-miterlimit="10.0"><path d="M 572.7228,255.2911 v 4.9139 "/></g><g stroke-linejoin="miter" stroke-opacity="1.0" fill-opacity="0.6" stroke="rgb(0,0,0)" fill-rule="evenodd" stroke-width="0.0" fill="rgb(0,0,0)" stroke-linecap="butt" stroke-miterlimit="10.0"><path d="M 521.2047,272.3755 ZM 524.0080,268.5183 c 0.0000,-0.0761 0.0109,-0.1630 0.1087 -0.2173c 0.1195,-0.0869 0.3151,-0.1847 0.4781 -0.1847c 0.1412,-0.0000 0.1521,0.1195 0.1521 0.3368v 1.7493 h 0.8801 l -0.0652,0.5107 h -0.8149 v 0.9018 c 0.0000,0.3042 0.0435,0.4563 0.3586 0.4563h 0.2934 c 0.0652,-0.0000 0.0761,0.0543 0.0761 0.0761v 0.2390 c 0.0000,-0.0000 -0.6954,-0.0217 -1.1517 -0.0217c -0.4129,-0.0000 -1.0539,0.0217 -1.0539 0.0217v -0.2390 c 0.0000,-0.0217 0.0109,-0.0761 0.0761 -0.0761h 0.2934 c 0.3368,-0.0000 0.3694,-0.1412 0.3694 -0.4563v -0.9018 h -2.1296 c -0.0435,-0.0000 -0.0652,-0.0217 -0.0978 -0.0652l -0.0869,-0.1195 l -0.1304,-0.2282 c -0.0109,-0.0000 -0.0109,-0.0109 -0.0109 -0.0217c 0.0000,-0.0109 0.0109,-0.0217 0.0217 -0.0326c 0.7062,-0.7823 1.9558,-3.2053 2.3469 -4.0962c 0.0109,-0.0435 0.0326,-0.0543 0.0761 -0.0543c 0.0109,-0.0000 0.2499,0.0978 0.3803 0.1195c -0.4889,1.3147 -1.2930,2.7272 -2.0861 3.9876h 1.7167 v -1.6841 Z"/></g><g stroke-linejoin="miter" stroke-opacity="0.6" fill-opacity="0.0" stroke="rgb(0,0,0)" stroke-width="1.998049769999321" fill="rgb(0,0,0)" stroke-linecap="butt" stroke-miterlimit="10.0"><path d="M 523.5842,255.2911 v 4.9139 "/></g><g stroke-linejoin="miter" stroke-opacity="1.0" fill-opacity="0.6" stroke="rgb(0,0,0)" fill-rule="evenodd" stroke-width="0.0" fill="rgb(0,0,0)" stroke-linecap="butt" stroke-miterlimit="10.0"><path d="M 472.0661,272.3755 ZM 474.4130,266.4322 c -0.2716,-0.0000 -1.0648,0.1521 -1.0648 0.8149c 0.0000,0.1956 -0.0761,0.5324 -0.3694 0.5324c -0.2825,-0.0000 -0.3042,-0.3151 -0.3042 -0.3477c 0.0000,-0.3368 0.4455,-1.3364 1.9558 -1.3364c 1.0539,-0.0000 1.3690,0.6628 1.3690 1.0974c 0.0000,0.2716 -0.0869,0.8149 -1.0648 1.4342c 0.6085,0.0978 1.4125,0.5433 1.4125 1.6733c 0.0000,1.4342 -1.0865,2.2057 -2.3143 2.2057c -0.6193,-0.0000 -1.4886,-0.2716 -1.4886 -0.6845c 0.0000,-0.1630 0.1630,-0.3477 0.3803 -0.3477c 0.2064,-0.0000 0.3042,0.1087 0.4020 0.2499c 0.1195,0.1847 0.3151,0.4455 0.8366 0.4455c 0.3586,-0.0000 1.3799,-0.3586 1.3799 -1.7276c 0.0000,-1.1626 -0.8149,-1.3473 -1.4016 -1.3473c -0.0978,-0.0000 -0.2173,0.0217 -0.3368 0.0435l -0.0435,-0.3260 c 0.8366,-0.1412 1.5320,-0.9562 1.5320 -1.4560c 0.0000,-0.6193 -0.4346,-0.9236 -0.8801 -0.9236Z"/></g><g stroke-linejoin="miter" stroke-opacity="0.6" fill-opacity="0.0" stroke="rgb(0,0,0)" stroke-width="1.998049769999321" fill="rgb(0,0,0)" stroke-linecap="butt" stroke-miterlimit="10.0"><path d="M 474.4456,255.2911 v 4.9139 "/></g><g stroke-linejoin="miter" stroke-opacity="1.0" fill-opacity="0.6" stroke="rgb(0,0,0)" fill-rule="evenodd" stroke-width="0.0" fill="rgb(0,0,0)" stroke-linecap="butt" stroke-miterlimit="10.0"><path d="M 422.9275,272.3755 ZM 423.5577,267.5622 c 0.0000,-0.6193 0.5976,-1.4668 1.7385 -1.4668c 0.8366,-0.0000 1.8145,0.3151 1.8145 1.5646c 0.0000,0.8258 -0.4237,1.2387 -1.0105 1.8036l -1.0322,0.9996 c -0.0543,0.0543 -0.7823,0.7714 -0.7823 1.2821h 1.8471 c 0.3694,-0.0000 0.5650,-0.1847 0.7171 -0.7823l 0.2716,0.0435 l -0.2173,1.3690 h -3.3574 c 0.0000,-0.6085 0.0978,-1.0757 1.1083 -2.1079l 0.7606,-0.7497 c 0.6085,-0.6193 0.8584,-1.1517 0.8584 -1.8145c 0.0000,-0.9887 -0.6737,-1.2712 -1.0431 -1.2712c -0.7497,-0.0000 -0.9562,0.3912 -0.9562 0.6519c 0.0000,0.0869 0.0217,0.1738 0.0435 0.2499c 0.0217,0.0761 0.0435,0.1521 0.0435 0.2390c 0.0000,0.2825 -0.2173,0.3912 -0.3912 0.3912c -0.2390,-0.0000 -0.4129,-0.1847 -0.4129 -0.4020Z"/></g><g stroke-linejoin="miter" stroke-opacity="0.6" fill-opacity="0.0" stroke="rgb(0,0,0)" stroke-width="1.998049769999321" fill="rgb(0,0,0)" stroke-linecap="butt" stroke-miterlimit="10.0"><path d="M 425.3070,255.2911 v 4.9139 "/></g><g stroke-linejoin="miter" stroke-opacity="1.0" fill-opacity="0.6" stroke="rgb(0,0,0)" fill-rule="evenodd" stroke-width="0.0" fill="rgb(0,0,0)" stroke-linecap="butt" stroke-miterlimit="10.0"><path d="M 373.7890,272.3755 ZM 375.8316,267.1928 c -0.2064,-0.0000 -0.6845,0.1956 -0.9236 0.3042l -0.1304,-0.3368 c 0.9562,-0.4455 1.3256,-0.6737 1.8688 -1.0648h 0.2064 v 5.4653 c 0.0000,0.3912 0.0543,0.4998 0.4129 0.4998h 0.5650 c 0.0326,-0.0000 0.0869,0.0217 0.0869 0.0869v 0.2390 l -1.4886,-0.0217 l -1.5103,0.0217 v -0.2390 c 0.0109,-0.0326 0.0217,-0.0869 0.0869 -0.0869h 0.6519 c 0.4129,-0.0000 0.4129,-0.1847 0.4129 -0.4998v -3.7377 c 0.0000,-0.3694 0.0000,-0.6302 -0.2390 -0.6302Z"/></g><g stroke-linejoin="miter" stroke-opacity="0.6" fill-opacity="0.0" stroke="rgb(0,0,0)" stroke-width="1.998049769999321" fill="rgb(0,0,0)" stroke-linecap="butt" stroke-miterlimit="10.0"><path d="M 376.1685,255.2911 v 4.9139 "/></g><g stroke-linejoin="miter" stroke-opacity="1.0" fill-opacity="0.6" stroke="rgb(0,0,0)" fill-rule="evenodd" stroke-width="0.0" fill="rgb(0,0,0)" stroke-linecap="butt" stroke-miterlimit="10.0"><path d="M 324.6504,272.3755 ZM 327.0299,266.4757 c -0.4672,-0.0000 -1.1517,0.4563 -1.1517 2.9880c 0.0000,0.8910 0.1630,2.6837 1.1191 2.6837c 0.1847,-0.0000 0.7062,-0.1195 0.9344 -0.9670c 0.1412,-0.5215 0.2173,-1.1735 0.2173 -2.1187c 0.0000,-1.3799 -0.3477,-2.1513 -0.6628 -2.4230c -0.1195,-0.1087 -0.2825,-0.1630 -0.4563 -0.1630ZM 327.0299,266.4757 ZM 326.9864,272.5059 c -1.1626,-0.0000 -1.9449,-1.4886 -1.9449 -3.1510c 0.0000,-2.0318 0.9670,-3.2596 1.9884 -3.2596c 0.4672,-0.0000 0.9344,0.2934 1.2495 0.7171c 0.4563,0.6085 0.6954,1.4234 0.6954 2.4447c 0.0000,2.4121 -1.1952,3.2487 -1.9884 3.2487Z"/></g><g stroke-linejoin="miter" stroke-opacity="0.6" fill-opacity="0.0" stroke="rgb(0,0,0)" stroke-width="1.998049769999321" fill="rgb(0,0,0)" stroke-linecap="butt" stroke-miterlimit="10.0"><path d="M 327.0299,255.2911 v 4.9139 "/></g><g stroke-linejoin="miter" stroke-opacity="1.0" fill-opacity="0.6" stroke="rgb(0,0,0)" fill-rule="evenodd" stroke-width="0.0" fill="rgb(0,0,0)" stroke-linecap="butt" stroke-miterlimit="10.0"><path d="M 273.7027,272.3755 ZM 276.6798,269.8113 h -2.4556 c -0.0978,-0.0000 -0.1630,-0.0869 -0.1630 -0.1847c 0.0000,-0.1738 0.1412,-0.4020 0.2716 -0.4020h 2.4882 c 0.1087,-0.0000 0.1521,0.0978 0.1521 0.1956c 0.0000,0.1195 -0.1521,0.3912 -0.2934 0.3912ZM 277.3209,272.3755 ZM 279.3636,267.1928 c -0.2064,-0.0000 -0.6845,0.1956 -0.9236 0.3042l -0.1304,-0.3368 c 0.9562,-0.4455 1.3256,-0.6737 1.8688 -1.0648h 0.2064 v 5.4653 c 0.0000,0.3912 0.0543,0.4998 0.4129 0.4998h 0.5650 c 0.0326,-0.0000 0.0869,0.0217 0.0869 0.0869v 0.2390 l -1.4886,-0.0217 l -1.5103,0.0217 v -0.2390 c 0.0109,-0.0326 0.0217,-0.0869 0.0869 -0.0869h 0.6519 c 0.4129,-0.0000 0.4129,-0.1847 0.4129 -0.4998v -3.7377 c 0.0000,-0.3694 0.0000,-0.6302 -0.2390 -0.6302Z"/></g><g stroke-linejoin="miter" stroke-opacity="0.6" fill-opacity="0.0" stroke="rgb(0,0,0)" stroke-width="1.998049769999321" fill="rgb(0,0,0)" stroke-linecap="butt" stroke-miterlimit="10.0"><path d="M 277.8913,255.2911 v 4.9139 "/></g><g stroke-linejoin="miter" stroke-opacity="1.0" fill-opacity="0.6" stroke="rgb(0,0,0)" fill-rule="evenodd" stroke-width="0.0" fill="rgb(0,0,0)" stroke-linecap="butt" stroke-miterlimit="10.0"><path d="M 224.5641,272.3755 ZM 227.5412,269.8113 h -2.4556 c -0.0978,-0.0000 -0.1630,-0.0869 -0.1630 -0.1847c 0.0000,-0.1738 0.1412,-0.4020 0.2716 -0.4020h 2.4882 c 0.1087,-0.0000 0.1521,0.0978 0.1521 0.1956c 0.0000,0.1195 -0.1521,0.3912 -0.2934 0.3912ZM 228.1823,272.3755 ZM 228.8125,267.5622 c 0.0000,-0.6193 0.5976,-1.4668 1.7385 -1.4668c 0.8366,-0.0000 1.8145,0.3151 1.8145 1.5646c 0.0000,0.8258 -0.4237,1.2387 -1.0105 1.8036l -1.0322,0.9996 c -0.0543,0.0543 -0.7823,0.7714 -0.7823 1.2821h 1.8471 c 0.3694,-0.0000 0.5650,-0.1847 0.7171 -0.7823l 0.2716,0.0435 l -0.2173,1.3690 h -3.3574 c 0.0000,-0.6085 0.0978,-1.0757 1.1083 -2.1079l 0.7606,-0.7497 c 0.6085,-0.6193 0.8584,-1.1517 0.8584 -1.8145c 0.0000,-0.9887 -0.6737,-1.2712 -1.0431 -1.2712c -0.7497,-0.0000 -0.9562,0.3912 -0.9562 0.6519c 0.0000,0.0869 0.0217,0.1738 0.0435 0.2499c 0.0217,0.0761 0.0435,0.1521 0.0435 0.2390c 0.0000,0.2825 -0.2173,0.3912 -0.3912 0.3912c -0.2390,-0.0000 -0.4129,-0.1847 -0.4129 -0.4020Z"/></g><g stroke-linejoin="miter" stroke-opacity="0.6" fill-opacity="0.0" stroke="rgb(0,0,0)" stroke-width="1.998049769999321" fill="rgb(0,0,0)" stroke-linecap="butt" stroke-miterlimit="10.0"><path d="M 228.7527,255.2911 v 4.9139 "/></g><g stroke-linejoin="miter" stroke-opacity="1.0" fill-opacity="0.6" stroke="rgb(0,0,0)" fill-rule="evenodd" stroke-width="0.0" fill="rgb(0,0,0)" stroke-linecap="butt" stroke-miterlimit="10.0"><path d="M 175.4255,272.3755 ZM 178.4027,269.8113 h -2.4556 c -0.0978,-0.0000 -0.1630,-0.0869 -0.1630 -0.1847c 0.0000,-0.1738 0.1412,-0.4020 0.2716 -0.4020h 2.4882 c 0.1087,-0.0000 0.1521,0.0978 0.1521 0.1956c 0.0000,0.1195 -0.1521,0.3912 -0.2934 0.3912ZM 179.0437,272.3755 ZM 181.3906,266.4322 c -0.2716,-0.0000 -1.0648,0.1521 -1.0648 0.8149c 0.0000,0.1956 -0.0761,0.5324 -0.3694 0.5324c -0.2825,-0.0000 -0.3042,-0.3151 -0.3042 -0.3477c 0.0000,-0.3368 0.4455,-1.3364 1.9558 -1.3364c 1.0539,-0.0000 1.3690,0.6628 1.3690 1.0974c 0.0000,0.2716 -0.0869,0.8149 -1.0648 1.4342c 0.6085,0.0978 1.4125,0.5433 1.4125 1.6733c 0.0000,1.4342 -1.0865,2.2057 -2.3143 2.2057c -0.6193,-0.0000 -1.4886,-0.2716 -1.4886 -0.6845c 0.0000,-0.1630 0.1630,-0.3477 0.3803 -0.3477c 0.2064,-0.0000 0.3042,0.1087 0.4020 0.2499c 0.1195,0.1847 0.3151,0.4455 0.8366 0.4455c 0.3586,-0.0000 1.3799,-0.3586 1.3799 -1.7276c 0.0000,-1.1626 -0.8149,-1.3473 -1.4016 -1.3473c -0.0978,-0.0000 -0.2173,0.0217 -0.3368 0.0435l -0.0435,-0.3260 c 0.8366,-0.1412 1.5320,-0.9562 1.5320 -1.4560c 0.0000,-0.6193 -0.4346,-0.9236 -0.8801 -0.9236Z"/></g><g stroke-linejoin="miter" stroke-opacity="0.6" fill-opacity="0.0" stroke="rgb(0,0,0)" stroke-width="1.998049769999321" fill="rgb(0,0,0)" stroke-linecap="butt" stroke-miterlimit="10.0"><path d="M 179.6141,255.2911 v 4.9139 "/></g><g stroke-linejoin="miter" stroke-opacity="1.0" fill-opacity="0.6" stroke="rgb(0,0,0)" fill-rule="evenodd" stroke-width="0.0" fill="rgb(0,0,0)" stroke-linecap="butt" stroke-miterlimit="10.0"><path d="M 126.2870,272.3755 ZM 129.2641,269.8113 h -2.4556 c -0.0978,-0.0000 -0.1630,-0.0869 -0.1630 -0.1847c 0.0000,-0.1738 0.1412,-0.4020 0.2716 -0.4020h 2.4882 c 0.1087,-0.0000 0.1521,0.0978 0.1521 0.1956c 0.0000,0.1195 -0.1521,0.3912 -0.2934 0.3912ZM 129.9051,272.3755 ZM 132.7084,268.5183 c 0.0000,-0.0761 0.0109,-0.1630 0.1087 -0.2173c 0.1195,-0.0869 0.3151,-0.1847 0.4781 -0.1847c 0.1412,-0.0000 0.1521,0.1195 0.1521 0.3368v 1.7493 h 0.8801 l -0.0652,0.5107 h -0.8149 v 0.9018 c 0.0000,0.3042 0.0435,0.4563 0.3586 0.4563h 0.2934 c 0.0652,-0.0000 0.0761,0.0543 0.0761 0.0761v 0.2390 c 0.0000,-0.0000 -0.6954,-0.0217 -1.1517 -0.0217c -0.4129,-0.0000 -1.0539,0.0217 -1.0539 0.0217v -0.2390 c 0.0000,-0.0217 0.0109,-0.0761 0.0761 -0.0761h 0.2934 c 0.3368,-0.0000 0.3694,-0.1412 0.3694 -0.4563v -0.9018 h -2.1296 c -0.0435,-0.0000 -0.0652,-0.0217 -0.0978 -0.0652l -0.0869,-0.1195 l -0.1304,-0.2282 c -0.0109,-0.0000 -0.0109,-0.0109 -0.0109 -0.0217c 0.0000,-0.0109 0.0109,-0.0217 0.0217 -0.0326c 0.7062,-0.7823 1.9558,-3.2053 2.3469 -4.0962c 0.0109,-0.0435 0.0326,-0.0543 0.0761 -0.0543c 0.0109,-0.0000 0.2499,0.0978 0.3803 0.1195c -0.4889,1.3147 -1.2930,2.7272 -2.0861 3.9876h 1.7167 v -1.6841 Z"/></g><g stroke-linejoin="miter" stroke-opacity="0.6" fill-opacity="0.0" stroke="rgb(0,0,0)" stroke-width="1.998049769999321" fill="rgb(0,0,0)" stroke-linecap="butt" stroke-miterlimit="10.0"><path d="M 130.4756,255.2911 v 4.9139 "/></g><g stroke-linejoin="miter" stroke-opacity="1.0" fill-opacity="0.6" stroke="rgb(0,0,0)" fill-rule="evenodd" stroke-width="0.0" fill="rgb(0,0,0)" stroke-linecap="butt" stroke-miterlimit="10.0"><path d="M 77.1484,272.3755 ZM 80.1255,269.8113 h -2.4556 c -0.0978,-0.0000 -0.1630,-0.0869 -0.1630 -0.1847c 0.0000,-0.1738 0.1412,-0.4020 0.2716 -0.4020h 2.4882 c 0.1087,-0.0000 0.1521,0.0978 0.1521 0.1956c 0.0000,0.1195 -0.1521,0.3912 -0.2934 0.3912ZM 80.7666,272.3755 ZM 84.1239,270.5393 c 0.0000,-1.1191 -0.6085,-1.6733 -1.2821 -1.6733c -0.4998,-0.0000 -0.8801,0.0761 -1.3038 0.2499l 0.3477,-2.9662 c 0.3586,0.0326 0.7280,0.0435 1.1083 0.0435c 0.5433,-0.0000 1.1083,-0.0326 1.6950 -0.0978l 0.0652,0.0326 l -0.1630,0.7062 c -0.4237,0.0435 -0.7714,0.0543 -1.0757 0.0543c -0.4889,-0.0000 -0.8584,-0.0435 -1.2387 -0.0869l -0.2064,1.7167 c 0.2282,-0.0869 0.6193,-0.1630 1.0431 -0.1630c 1.1517,-0.0000 1.7928,0.9996 1.7928 1.9992c 0.0000,1.2169 -0.8475,2.1513 -2.0753 2.1513c -0.6193,-0.0000 -1.5212,-0.3477 -1.5212 -0.7714c 0.0000,-0.2064 0.1738,-0.3477 0.3694 -0.3477c 0.2173,-0.0000 0.3586,0.1630 0.4889 0.3368c 0.1630,0.1956 0.3368,0.4129 0.6845 0.4129c 0.6954,-0.0000 1.2712,-0.6519 1.2712 -1.5972Z"/></g><g stroke-linejoin="miter" stroke-opacity="0.6" fill-opacity="0.0" stroke="rgb(0,0,0)" stroke-width="1.998049769999321" fill="rgb(0,0,0)" stroke-linecap="butt" stroke-miterlimit="10.0"><path d="M 81.3370,255.2911 v 4.9139 "/></g><g stroke-linejoin="miter" stroke-opacity="0.0" fill-opacity="0.0" stroke="rgb(0,0,0)" stroke-width="0.0" fill="rgb(0,0,0)" stroke-linecap="butt" stroke-miterlimit="10.0"><path d="M 571.8182,238.9116 l -0.0000,-163.7953 h -491.3858 l -0.0000,163.7953 Z"/></g><g stroke-linejoin="miter" stroke-opacity="0.5" fill-opacity="0.0" stroke="rgb(93,165,218)" stroke-width="0.7992199079997283" fill="rgb(0,0,0)" stroke-linecap="butt" stroke-miterlimit="10.0"><path d="M 571.8182,238.9116 v -163.7953 "/></g><g stroke-linejoin="miter" stroke-opacity="0.5" fill-opacity="0.0" stroke="rgb(93,165,218)" stroke-width="0.7992199079997283" fill="rgb(0,0,0)" stroke-linecap="butt" stroke-miterlimit="10.0"><path d="M 522.6797,238.9116 v -163.7953 "/></g><g stroke-linejoin="miter" stroke-opacity="0.5" fill-opacity="0.0" stroke="rgb(93,165,218)" stroke-width="0.7992199079997283" fill="rgb(0,0,0)" stroke-linecap="butt" stroke-miterlimit="10.0"><path d="M 473.5411,238.9116 v -163.7953 "/></g><g stroke-linejoin="miter" stroke-opacity="0.5" fill-opacity="0.0" stroke="rgb(93,165,218)" stroke-width="0.7992199079997283" fill="rgb(0,0,0)" stroke-linecap="butt" stroke-miterlimit="10.0"><path d="M 424.4025,238.9116 v -163.7953 "/></g><g stroke-linejoin="miter" stroke-opacity="0.5" fill-opacity="0.0" stroke="rgb(93,165,218)" stroke-width="0.7992199079997283" fill="rgb(0,0,0)" stroke-linecap="butt" stroke-miterlimit="10.0"><path d="M 375.2639,238.9116 v -163.7953 "/></g><g stroke-linejoin="miter" stroke-opacity="0.5" fill-opacity="0.0" stroke="rgb(93,165,218)" stroke-width="0.7992199079997283" fill="rgb(0,0,0)" stroke-linecap="butt" stroke-miterlimit="10.0"><path d="M 326.1253,238.9116 v -163.7953 "/></g><g stroke-linejoin="miter" stroke-opacity="0.5" fill-opacity="0.0" stroke="rgb(93,165,218)" stroke-width="0.7992199079997283" fill="rgb(0,0,0)" stroke-linecap="butt" stroke-miterlimit="10.0"><path d="M 276.9868,238.9116 v -163.7953 "/></g><g stroke-linejoin="miter" stroke-opacity="0.5" fill-opacity="0.0" stroke="rgb(93,165,218)" stroke-width="0.7992199079997283" fill="rgb(0,0,0)" stroke-linecap="butt" stroke-miterlimit="10.0"><path d="M 227.8482,238.9116 v -163.7953 "/></g><g stroke-linejoin="miter" stroke-opacity="0.5" fill-opacity="0.0" stroke="rgb(93,165,218)" stroke-width="0.7992199079997283" fill="rgb(0,0,0)" stroke-linecap="butt" stroke-miterlimit="10.0"><path d="M 178.7096,238.9116 v -163.7953 "/></g><g stroke-linejoin="miter" stroke-opacity="0.5" fill-opacity="0.0" stroke="rgb(93,165,218)" stroke-width="0.7992199079997283" fill="rgb(0,0,0)" stroke-linecap="butt" stroke-miterlimit="10.0"><path d="M 129.5710,238.9116 v -163.7953 "/></g><g stroke-linejoin="miter" stroke-opacity="0.5" fill-opacity="0.0" stroke="rgb(93,165,218)" stroke-width="0.7992199079997283" fill="rgb(0,0,0)" stroke-linecap="butt" stroke-miterlimit="10.0"><path d="M 80.4324,238.9116 v -163.7953 "/></g><g stroke-linejoin="miter" stroke-opacity="0.5" fill-opacity="0.0" stroke="rgb(93,165,218)" stroke-width="0.7992199079997283" fill="rgb(0,0,0)" stroke-linecap="butt" stroke-miterlimit="10.0"><path d="M 80.4324,90.7569 h 491.3858 "/></g><g stroke-linejoin="miter" stroke-opacity="0.5" fill-opacity="0.0" stroke="rgb(93,165,218)" stroke-width="0.7992199079997283" fill="rgb(0,0,0)" stroke-linecap="butt" stroke-miterlimit="10.0"><path d="M 80.4324,107.2186 h 491.3858 "/></g><g stroke-linejoin="miter" stroke-opacity="0.5" fill-opacity="0.0" stroke="rgb(93,165,218)" stroke-width="0.7992199079997283" fill="rgb(0,0,0)" stroke-linecap="butt" stroke-miterlimit="10.0"><path d="M 80.4324,123.6802 h 491.3858 "/></g><g stroke-linejoin="miter" stroke-opacity="0.5" fill-opacity="0.0" stroke="rgb(93,165,218)" stroke-width="0.7992199079997283" fill="rgb(0,0,0)" stroke-linecap="butt" stroke-miterlimit="10.0"><path d="M 80.4324,140.1418 h 491.3858 "/></g><g stroke-linejoin="miter" stroke-opacity="0.5" fill-opacity="0.0" stroke="rgb(93,165,218)" stroke-width="0.7992199079997283" fill="rgb(0,0,0)" stroke-linecap="butt" stroke-miterlimit="10.0"><path d="M 80.4324,156.6035 h 491.3858 "/></g><g stroke-linejoin="miter" stroke-opacity="0.5" fill-opacity="0.0" stroke="rgb(93,165,218)" stroke-width="0.7992199079997283" fill="rgb(0,0,0)" stroke-linecap="butt" stroke-miterlimit="10.0"><path d="M 80.4324,173.0651 h 491.3858 "/></g><g stroke-linejoin="miter" stroke-opacity="0.5" fill-opacity="0.0" stroke="rgb(93,165,218)" stroke-width="0.7992199079997283" fill="rgb(0,0,0)" stroke-linecap="butt" stroke-miterlimit="10.0"><path d="M 80.4324,189.5267 h 491.3858 "/></g><g stroke-linejoin="miter" stroke-opacity="0.5" fill-opacity="0.0" stroke="rgb(93,165,218)" stroke-width="0.7992199079997283" fill="rgb(0,0,0)" stroke-linecap="butt" stroke-miterlimit="10.0"><path d="M 80.4324,205.9883 h 491.3858 "/></g><g stroke-linejoin="miter" stroke-opacity="0.5" fill-opacity="0.0" stroke="rgb(93,165,218)" stroke-width="0.7992199079997283" fill="rgb(0,0,0)" stroke-linecap="butt" stroke-miterlimit="10.0"><path d="M 80.4324,222.4500 h 491.3858 "/></g><g stroke-linejoin="miter" stroke-opacity="0.5" fill-opacity="0.0" stroke="rgb(93,165,218)" stroke-width="0.7992199079997283" fill="rgb(0,0,0)" stroke-linecap="butt" stroke-miterlimit="10.0"><path d="M 80.4324,238.9116 h 491.3858 "/></g></svg>