<?xml version="1.0" encoding="UTF-8"?>
<!DOCTYPE svg PUBLIC "-//W3C//DTD SVG 1.1//EN"
    "http://www.w3.org/Graphics/SVG/1.1/DTD/svg11.dtd"><svg xmlns="http://www.w3.org/2000/svg" height="120.0000" stroke-opacity="1" viewBox="0 0 300 120" font-size="1" width="300.0000" xmlns:xlink="http://www.w3.org/1999/xlink" stroke="rgb(0,0,0)" version="1.1"><defs></defs><g stroke-linejoin="miter" stroke-opacity="0.0" fill-opacity="0.1" stroke="rgb(0,0,0)" stroke-width="0.0" fill="rgb(0,0,0)" stroke-linecap="butt" stroke-miterlimit="10.0"><path d="M 26.7481,97.3062 l -0.0000,-84.4285 h -1.6886 l -0.0000,84.4285 Z"/></g><g stroke-linejoin="miter" stroke-opacity="1.0" fill-opacity="0.6" stroke="rgb(0,0,0)" fill-rule="evenodd" stroke-width="0.0" fill="rgb(0,0,0)" stroke-linecap="butt" stroke-miterlimit="10.0"><path d="M 14.3631,12.8776 ZM 15.5897,9.8365 c -0.2408,-0.0000 -0.5937,0.2352 -0.5937 1.5402c 0.0000,0.4592 0.0840,1.3833 0.5769 1.3833c 0.0952,-0.0000 0.3640,-0.0616 0.4816 -0.4985c 0.0728,-0.2688 0.1120,-0.6049 0.1120 -1.0921c 0.0000,-0.7113 -0.1792,-1.1089 -0.3416 -1.2489c -0.0616,-0.0560 -0.1456,-0.0840 -0.2352 -0.0840ZM 15.5897,9.8365 ZM 15.5673,12.9448 c -0.5993,-0.0000 -1.0025,-0.7673 -1.0025 -1.6242c 0.0000,-1.0473 0.4985,-1.6802 1.0249 -1.6802c 0.2408,-0.0000 0.4816,0.1512 0.6441 0.3696c 0.2352,0.3136 0.3584,0.7337 0.3584 1.2601c 0.0000,1.2433 -0.6161,1.6746 -1.0249 1.6746ZM 16.8162,12.8776 ZM 17.1354,12.6480 c 0.0000,-0.1624 0.1344,-0.2968 0.2968 -0.2968c 0.1624,-0.0000 0.2968,0.1344 0.2968 0.2968c 0.0000,0.1624 -0.1344,0.2968 -0.2968 0.2968c -0.1624,-0.0000 -0.2968,-0.1344 -0.2968 -0.2968ZM 18.0427,12.8776 ZM 18.3675,10.3966 c 0.0000,-0.3192 0.3080,-0.7561 0.8961 -0.7561c 0.4312,-0.0000 0.9353,0.1624 0.9353 0.8065c 0.0000,0.4256 -0.2184,0.6385 -0.5209 0.9297l -0.5321,0.5153 c -0.0280,0.0280 -0.4032,0.3976 -0.4032 0.6609h 0.9521 c 0.1904,-0.0000 0.2912,-0.0952 0.3696 -0.4032l 0.1400,0.0224 l -0.1120,0.7057 h -1.7306 c 0.0000,-0.3136 0.0504,-0.5545 0.5713 -1.0865l 0.3920,-0.3864 c 0.3136,-0.3192 0.4424,-0.5937 0.4424 -0.9353c 0.0000,-0.5097 -0.3472,-0.6553 -0.5377 -0.6553c -0.3864,-0.0000 -0.4928,0.2016 -0.4928 0.3360c 0.0000,0.0448 0.0112,0.0896 0.0224 0.1288c 0.0112,0.0392 0.0224,0.0784 0.0224 0.1232c 0.0000,0.1456 -0.1120,0.2016 -0.2016 0.2016c -0.1232,-0.0000 -0.2128,-0.0952 -0.2128 -0.2072ZM 20.4958,12.8776 ZM 21.7223,9.8365 c -0.2408,-0.0000 -0.5937,0.2352 -0.5937 1.5402c 0.0000,0.4592 0.0840,1.3833 0.5769 1.3833c 0.0952,-0.0000 0.3640,-0.0616 0.4816 -0.4985c 0.0728,-0.2688 0.1120,-0.6049 0.1120 -1.0921c 0.0000,-0.7113 -0.1792,-1.1089 -0.3416 -1.2489c -0.0616,-0.0560 -0.1456,-0.0840 -0.2352 -0.0840ZM 21.7223,9.8365 ZM 21.6999,12.9448 c -0.5993,-0.0000 -1.0025,-0.7673 -1.0025 -1.6242c 0.0000,-1.0473 0.4985,-1.6802 1.0249 -1.6802c 0.2408,-0.0000 0.4816,0.1512 0.6441 0.3696c 0.2352,0.3136 0.3584,0.7337 0.3584 1.2601c 0.0000,1.2433 -0.6161,1.6746 -1.0249 1.6746Z"/></g><g stroke-linejoin="miter" stroke-opacity="0.6" fill-opacity="0.0" stroke="rgb(0,0,0)" stroke-width="0.9234558679881927" fill="rgb(0,0,0)" stroke-linecap="butt" stroke-miterlimit="10.0"><path d="M 24.2152,12.8776 h 2.5329 "/></g><g stroke-linejoin="miter" stroke-opacity="1.0" fill-opacity="0.6" stroke="rgb(0,0,0)" fill-rule="evenodd" stroke-width="0.0" fill="rgb(0,0,0)" stroke-linecap="butt" stroke-miterlimit="10.0"><path d="M 14.3631,21.3205 ZM 15.5897,18.2794 c -0.2408,-0.0000 -0.5937,0.2352 -0.5937 1.5402c 0.0000,0.4592 0.0840,1.3833 0.5769 1.3833c 0.0952,-0.0000 0.3640,-0.0616 0.4816 -0.4985c 0.0728,-0.2688 0.1120,-0.6049 0.1120 -1.0921c 0.0000,-0.7113 -0.1792,-1.1089 -0.3416 -1.2489c -0.0616,-0.0560 -0.1456,-0.0840 -0.2352 -0.0840ZM 15.5897,18.2794 ZM 15.5673,21.3877 c -0.5993,-0.0000 -1.0025,-0.7673 -1.0025 -1.6242c 0.0000,-1.0473 0.4985,-1.6802 1.0249 -1.6802c 0.2408,-0.0000 0.4816,0.1512 0.6441 0.3696c 0.2352,0.3136 0.3584,0.7337 0.3584 1.2601c 0.0000,1.2433 -0.6161,1.6746 -1.0249 1.6746ZM 16.8162,21.3205 ZM 17.1354,21.0909 c 0.0000,-0.1624 0.1344,-0.2968 0.2968 -0.2968c 0.1624,-0.0000 0.2968,0.1344 0.2968 0.2968c 0.0000,0.1624 -0.1344,0.2968 -0.2968 0.2968c -0.1624,-0.0000 -0.2968,-0.1344 -0.2968 -0.2968ZM 18.0427,21.3205 ZM 19.0956,18.6490 c -0.1064,-0.0000 -0.3528,0.1008 -0.4760 0.1568l -0.0672,-0.1736 c 0.4928,-0.2296 0.6833,-0.3472 0.9633 -0.5489h 0.1064 v 2.8171 c 0.0000,0.2016 0.0280,0.2576 0.2128 0.2576h 0.2912 c 0.0168,-0.0000 0.0448,0.0112 0.0448 0.0448v 0.1232 l -0.7673,-0.0112 l -0.7785,0.0112 v -0.1232 c 0.0056,-0.0168 0.0112,-0.0448 0.0448 -0.0448h 0.3360 c 0.2128,-0.0000 0.2128,-0.0952 0.2128 -0.2576v -1.9266 c 0.0000,-0.1904 0.0000,-0.3248 -0.1232 -0.3248ZM 20.4958,21.3205 ZM 21.7391,18.2178 c -0.3192,-0.0000 -0.5265,0.2520 -0.5265 0.4985c 0.0000,0.1624 0.0672,0.3584 0.4032 0.5769l 0.1624,0.1008 c 0.1456,-0.1064 0.4872,-0.3640 0.4872 -0.6497c 0.0000,-0.2464 -0.1792,-0.5265 -0.5265 -0.5265ZM 21.7391,18.2178 ZM 22.5960,18.7498 c 0.0000,0.3416 -0.3864,0.6105 -0.6217 0.7673l 0.3248,0.2128 c 0.2744,0.1792 0.4144,0.4256 0.4144 0.7337c 0.0000,0.4032 -0.3304,0.9241 -1.0249 0.9241c -0.5601,-0.0000 -0.9465,-0.2968 -0.9465 -0.8401c 0.0000,-0.2072 0.0896,-0.4480 0.3080 -0.6385c 0.1344,-0.1176 0.2520,-0.2184 0.3864 -0.3192l -0.0952,-0.0560 c -0.3248,-0.2016 -0.4872,-0.4200 -0.4872 -0.7169c 0.0000,-0.4088 0.3696,-0.7337 0.9129 -0.7337c 0.5209,-0.0000 0.8289,0.2856 0.8289 0.6665ZM 22.5960,18.7498 ZM 21.6999,21.2309 c 0.2408,-0.0000 0.6609,-0.1288 0.6609 -0.6609c 0.0000,-0.2520 -0.1568,-0.5041 -0.4872 -0.7057l -0.2464,-0.1512 c -0.4536,0.3024 -0.5545,0.6777 -0.5545 0.8345c 0.0000,0.4760 0.3864,0.6833 0.6273 0.6833Z"/></g><g stroke-linejoin="miter" stroke-opacity="0.6" fill-opacity="0.0" stroke="rgb(0,0,0)" stroke-width="0.9234558679881927" fill="rgb(0,0,0)" stroke-linecap="butt" stroke-miterlimit="10.0"><path d="M 24.2152,21.3205 h 2.5329 "/></g><g stroke-linejoin="miter" stroke-opacity="1.0" fill-opacity="0.6" stroke="rgb(0,0,0)" fill-rule="evenodd" stroke-width="0.0" fill="rgb(0,0,0)" stroke-linecap="butt" stroke-miterlimit="10.0"><path d="M 14.3631,29.7633 ZM 15.5897,26.7222 c -0.2408,-0.0000 -0.5937,0.2352 -0.5937 1.5402c 0.0000,0.4592 0.0840,1.3833 0.5769 1.3833c 0.0952,-0.0000 0.3640,-0.0616 0.4816 -0.4985c 0.0728,-0.2688 0.1120,-0.6049 0.1120 -1.0921c 0.0000,-0.7113 -0.1792,-1.1089 -0.3416 -1.2489c -0.0616,-0.0560 -0.1456,-0.0840 -0.2352 -0.0840ZM 15.5897,26.7222 ZM 15.5673,29.8306 c -0.5993,-0.0000 -1.0025,-0.7673 -1.0025 -1.6242c 0.0000,-1.0473 0.4985,-1.6802 1.0249 -1.6802c 0.2408,-0.0000 0.4816,0.1512 0.6441 0.3696c 0.2352,0.3136 0.3584,0.7337 0.3584 1.2601c 0.0000,1.2433 -0.6161,1.6746 -1.0249 1.6746ZM 16.8162,29.7633 ZM 17.1354,29.5337 c 0.0000,-0.1624 0.1344,-0.2968 0.2968 -0.2968c 0.1624,-0.0000 0.2968,0.1344 0.2968 0.2968c 0.0000,0.1624 -0.1344,0.2968 -0.2968 0.2968c -0.1624,-0.0000 -0.2968,-0.1344 -0.2968 -0.2968ZM 18.0427,29.7633 ZM 19.0956,27.0919 c -0.1064,-0.0000 -0.3528,0.1008 -0.4760 0.1568l -0.0672,-0.1736 c 0.4928,-0.2296 0.6833,-0.3472 0.9633 -0.5489h 0.1064 v 2.8171 c 0.0000,0.2016 0.0280,0.2576 0.2128 0.2576h 0.2912 c 0.0168,-0.0000 0.0448,0.0112 0.0448 0.0448v 0.1232 l -0.7673,-0.0112 l -0.7785,0.0112 v -0.1232 c 0.0056,-0.0168 0.0112,-0.0448 0.0448 -0.0448h 0.3360 c 0.2128,-0.0000 0.2128,-0.0952 0.2128 -0.2576v -1.9266 c 0.0000,-0.1904 0.0000,-0.3248 -0.1232 -0.3248ZM 20.4958,29.7633 ZM 21.1454,28.2960 c -0.0056,0.0560 -0.0056,0.1400 -0.0056 0.1960c 0.0000,0.9409 0.4200,1.1761 0.7001 1.1761c 0.2576,-0.0000 0.5321,-0.2408 0.5321 -0.8233c 0.0000,-0.2632 -0.1344,-0.8009 -0.6721 -0.8009c -0.1176,-0.0000 -0.3304,0.0112 -0.5545 0.2520ZM 21.1454,28.2960 ZM 22.6128,26.6718 c -0.3640,0.0336 -0.6777,0.1288 -0.9465 0.3920c -0.2576,0.2520 -0.4424,0.6273 -0.5041 1.0753c 0.1288,-0.1568 0.4368,-0.2744 0.6497 -0.2744c 0.8289,-0.0000 0.9353,0.6833 0.9353 0.9409c 0.0000,0.3808 -0.1904,1.0249 -0.9633 1.0249c -0.4088,-0.0000 -1.0305,-0.2408 -1.0305 -1.3553c 0.0000,-0.5153 0.1736,-1.0193 0.5601 -1.4057c 0.3584,-0.3640 0.7337,-0.5153 1.2825 -0.5433Z"/></g><g stroke-linejoin="miter" stroke-opacity="0.6" fill-opacity="0.0" stroke="rgb(0,0,0)" stroke-width="0.9234558679881927" fill="rgb(0,0,0)" stroke-linecap="butt" stroke-miterlimit="10.0"><path d="M 24.2152,29.7633 h 2.5329 "/></g><g stroke-linejoin="miter" stroke-opacity="1.0" fill-opacity="0.6" stroke="rgb(0,0,0)" fill-rule="evenodd" stroke-width="0.0" fill="rgb(0,0,0)" stroke-linecap="butt" stroke-miterlimit="10.0"><path d="M 14.3631,38.2062 ZM 15.5897,35.1651 c -0.2408,-0.0000 -0.5937,0.2352 -0.5937 1.5402c 0.0000,0.4592 0.0840,1.3833 0.5769 1.3833c 0.0952,-0.0000 0.3640,-0.0616 0.4816 -0.4985c 0.0728,-0.2688 0.1120,-0.6049 0.1120 -1.0921c 0.0000,-0.7113 -0.1792,-1.1089 -0.3416 -1.2489c -0.0616,-0.0560 -0.1456,-0.0840 -0.2352 -0.0840ZM 15.5897,35.1651 ZM 15.5673,38.2734 c -0.5993,-0.0000 -1.0025,-0.7673 -1.0025 -1.6242c 0.0000,-1.0473 0.4985,-1.6802 1.0249 -1.6802c 0.2408,-0.0000 0.4816,0.1512 0.6441 0.3696c 0.2352,0.3136 0.3584,0.7337 0.3584 1.2601c 0.0000,1.2433 -0.6161,1.6746 -1.0249 1.6746ZM 16.8162,38.2062 ZM 17.1354,37.9766 c 0.0000,-0.1624 0.1344,-0.2968 0.2968 -0.2968c 0.1624,-0.0000 0.2968,0.1344 0.2968 0.2968c 0.0000,0.1624 -0.1344,0.2968 -0.2968 0.2968c -0.1624,-0.0000 -0.2968,-0.1344 -0.2968 -0.2968ZM 18.0427,38.2062 ZM 19.0956,35.5347 c -0.1064,-0.0000 -0.3528,0.1008 -0.4760 0.1568l -0.0672,-0.1736 c 0.4928,-0.2296 0.6833,-0.3472 0.9633 -0.5489h 0.1064 v 2.8171 c 0.0000,0.2016 0.0280,0.2576 0.2128 0.2576h 0.2912 c 0.0168,-0.0000 0.0448,0.0112 0.0448 0.0448v 0.1232 l -0.7673,-0.0112 l -0.7785,0.0112 v -0.1232 c 0.0056,-0.0168 0.0112,-0.0448 0.0448 -0.0448h 0.3360 c 0.2128,-0.0000 0.2128,-0.0952 0.2128 -0.2576v -1.9266 c 0.0000,-0.1904 0.0000,-0.3248 -0.1232 -0.3248ZM 20.4958,38.2062 ZM 21.9407,36.2180 c 0.0000,-0.0392 0.0056,-0.0840 0.0560 -0.1120c 0.0616,-0.0448 0.1624,-0.0952 0.2464 -0.0952c 0.0728,-0.0000 0.0784,0.0616 0.0784 0.1736v 0.9017 h 0.4536 l -0.0336,0.2632 h -0.4200 v 0.4648 c 0.0000,0.1568 0.0224,0.2352 0.1848 0.2352h 0.1512 c 0.0336,-0.0000 0.0392,0.0280 0.0392 0.0392v 0.1232 c 0.0000,-0.0000 -0.3584,-0.0112 -0.5937 -0.0112c -0.2128,-0.0000 -0.5433,0.0112 -0.5433 0.0112v -0.1232 c 0.0000,-0.0112 0.0056,-0.0392 0.0392 -0.0392h 0.1512 c 0.1736,-0.0000 0.1904,-0.0728 0.1904 -0.2352v -0.4648 h -1.0977 c -0.0224,-0.0000 -0.0336,-0.0112 -0.0504 -0.0336l -0.0448,-0.0616 l -0.0672,-0.1176 c -0.0056,-0.0000 -0.0056,-0.0056 -0.0056 -0.0112c 0.0000,-0.0056 0.0056,-0.0112 0.0112 -0.0168c 0.3640,-0.4032 1.0081,-1.6522 1.2097 -2.1114c 0.0056,-0.0224 0.0168,-0.0280 0.0392 -0.0280c 0.0056,-0.0000 0.1288,0.0504 0.1960 0.0616c -0.2520,0.6777 -0.6665,1.4057 -1.0753 2.0554h 0.8849 v -0.8681 Z"/></g><g stroke-linejoin="miter" stroke-opacity="0.6" fill-opacity="0.0" stroke="rgb(0,0,0)" stroke-width="0.9234558679881927" fill="rgb(0,0,0)" stroke-linecap="butt" stroke-miterlimit="10.0"><path d="M 24.2152,38.2062 h 2.5329 "/></g><g stroke-linejoin="miter" stroke-opacity="1.0" fill-opacity="0.6" stroke="rgb(0,0,0)" fill-rule="evenodd" stroke-width="0.0" fill="rgb(0,0,0)" stroke-linecap="butt" stroke-miterlimit="10.0"><path d="M 14.3631,46.6491 ZM 15.5897,43.6079 c -0.2408,-0.0000 -0.5937,0.2352 -0.5937 1.5402c 0.0000,0.4592 0.0840,1.3833 0.5769 1.3833c 0.0952,-0.0000 0.3640,-0.0616 0.4816 -0.4985c 0.0728,-0.2688 0.1120,-0.6049 0.1120 -1.0921c 0.0000,-0.7113 -0.1792,-1.1089 -0.3416 -1.2489c -0.0616,-0.0560 -0.1456,-0.0840 -0.2352 -0.0840ZM 15.5897,43.6079 ZM 15.5673,46.7163 c -0.5993,-0.0000 -1.0025,-0.7673 -1.0025 -1.6242c 0.0000,-1.0473 0.4985,-1.6802 1.0249 -1.6802c 0.2408,-0.0000 0.4816,0.1512 0.6441 0.3696c 0.2352,0.3136 0.3584,0.7337 0.3584 1.2601c 0.0000,1.2433 -0.6161,1.6746 -1.0249 1.6746ZM 16.8162,46.6491 ZM 17.1354,46.4194 c 0.0000,-0.1624 0.1344,-0.2968 0.2968 -0.2968c 0.1624,-0.0000 0.2968,0.1344 0.2968 0.2968c 0.0000,0.1624 -0.1344,0.2968 -0.2968 0.2968c -0.1624,-0.0000 -0.2968,-0.1344 -0.2968 -0.2968ZM 18.0427,46.6491 ZM 19.0956,43.9776 c -0.1064,-0.0000 -0.3528,0.1008 -0.4760 0.1568l -0.0672,-0.1736 c 0.4928,-0.2296 0.6833,-0.3472 0.9633 -0.5489h 0.1064 v 2.8171 c 0.0000,0.2016 0.0280,0.2576 0.2128 0.2576h 0.2912 c 0.0168,-0.0000 0.0448,0.0112 0.0448 0.0448v 0.1232 l -0.7673,-0.0112 l -0.7785,0.0112 v -0.1232 c 0.0056,-0.0168 0.0112,-0.0448 0.0448 -0.0448h 0.3360 c 0.2128,-0.0000 0.2128,-0.0952 0.2128 -0.2576v -1.9266 c 0.0000,-0.1904 0.0000,-0.3248 -0.1232 -0.3248ZM 20.4958,46.6491 ZM 20.8206,44.1680 c 0.0000,-0.3192 0.3080,-0.7561 0.8961 -0.7561c 0.4312,-0.0000 0.9353,0.1624 0.9353 0.8065c 0.0000,0.4256 -0.2184,0.6385 -0.5209 0.9297l -0.5321,0.5153 c -0.0280,0.0280 -0.4032,0.3976 -0.4032 0.6609h 0.9521 c 0.1904,-0.0000 0.2912,-0.0952 0.3696 -0.4032l 0.1400,0.0224 l -0.1120,0.7057 h -1.7306 c 0.0000,-0.3136 0.0504,-0.5545 0.5713 -1.0865l 0.3920,-0.3864 c 0.3136,-0.3192 0.4424,-0.5937 0.4424 -0.9353c 0.0000,-0.5097 -0.3472,-0.6553 -0.5377 -0.6553c -0.3864,-0.0000 -0.4928,0.2016 -0.4928 0.3360c 0.0000,0.0448 0.0112,0.0896 0.0224 0.1288c 0.0112,0.0392 0.0224,0.0784 0.0224 0.1232c 0.0000,0.1456 -0.1120,0.2016 -0.2016 0.2016c -0.1232,-0.0000 -0.2128,-0.0952 -0.2128 -0.2072Z"/></g><g stroke-linejoin="miter" stroke-opacity="0.6" fill-opacity="0.0" stroke="rgb(0,0,0)" stroke-width="0.9234558679881927" fill="rgb(0,0,0)" stroke-linecap="butt" stroke-miterlimit="10.0"><path d="M 24.2152,46.6491 h 2.5329 "/></g><g stroke-linejoin="miter" stroke-opacity="1.0" fill-opacity="0.6" stroke="rgb(0,0,0)" fill-rule="evenodd" stroke-width="0.0" fill="rgb(0,0,0)" stroke-linecap="butt" stroke-miterlimit="10.0"><path d="M 14.3631,55.0919 ZM 15.5897,52.0508 c -0.2408,-0.0000 -0.5937,0.2352 -0.5937 1.5402c 0.0000,0.4592 0.0840,1.3833 0.5769 1.3833c 0.0952,-0.0000 0.3640,-0.0616 0.4816 -0.4985c 0.0728,-0.2688 0.1120,-0.6049 0.1120 -1.0921c 0.0000,-0.7113 -0.1792,-1.1089 -0.3416 -1.2489c -0.0616,-0.0560 -0.1456,-0.0840 -0.2352 -0.0840ZM 15.5897,52.0508 ZM 15.5673,55.1591 c -0.5993,-0.0000 -1.0025,-0.7673 -1.0025 -1.6242c 0.0000,-1.0473 0.4985,-1.6802 1.0249 -1.6802c 0.2408,-0.0000 0.4816,0.1512 0.6441 0.3696c 0.2352,0.3136 0.3584,0.7337 0.3584 1.2601c 0.0000,1.2433 -0.6161,1.6746 -1.0249 1.6746ZM 16.8162,55.0919 ZM 17.1354,54.8623 c 0.0000,-0.1624 0.1344,-0.2968 0.2968 -0.2968c 0.1624,-0.0000 0.2968,0.1344 0.2968 0.2968c 0.0000,0.1624 -0.1344,0.2968 -0.2968 0.2968c -0.1624,-0.0000 -0.2968,-0.1344 -0.2968 -0.2968ZM 18.0427,55.0919 ZM 19.0956,52.4204 c -0.1064,-0.0000 -0.3528,0.1008 -0.4760 0.1568l -0.0672,-0.1736 c 0.4928,-0.2296 0.6833,-0.3472 0.9633 -0.5489h 0.1064 v 2.8171 c 0.0000,0.2016 0.0280,0.2576 0.2128 0.2576h 0.2912 c 0.0168,-0.0000 0.0448,0.0112 0.0448 0.0448v 0.1232 l -0.7673,-0.0112 l -0.7785,0.0112 v -0.1232 c 0.0056,-0.0168 0.0112,-0.0448 0.0448 -0.0448h 0.3360 c 0.2128,-0.0000 0.2128,-0.0952 0.2128 -0.2576v -1.9266 c 0.0000,-0.1904 0.0000,-0.3248 -0.1232 -0.3248ZM 20.4958,55.0919 ZM 21.7223,52.0508 c -0.2408,-0.0000 -0.5937,0.2352 -0.5937 1.5402c 0.0000,0.4592 0.0840,1.3833 0.5769 1.3833c 0.0952,-0.0000 0.3640,-0.0616 0.4816 -0.4985c 0.0728,-0.2688 0.1120,-0.6049 0.1120 -1.0921c 0.0000,-0.7113 -0.1792,-1.1089 -0.3416 -1.2489c -0.0616,-0.0560 -0.1456,-0.0840 -0.2352 -0.0840ZM 21.7223,52.0508 ZM 21.6999,55.1591 c -0.5993,-0.0000 -1.0025,-0.7673 -1.0025 -1.6242c 0.0000,-1.0473 0.4985,-1.6802 1.0249 -1.6802c 0.2408,-0.0000 0.4816,0.1512 0.6441 0.3696c 0.2352,0.3136 0.3584,0.7337 0.3584 1.2601c 0.0000,1.2433 -0.6161,1.6746 -1.0249 1.6746Z"/></g><g stroke-linejoin="miter" stroke-opacity="0.6" fill-opacity="0.0" stroke="rgb(0,0,0)" stroke-width="0.9234558679881927" fill="rgb(0,0,0)" stroke-linecap="butt" stroke-miterlimit="10.0"><path d="M 24.2152,55.0919 h 2.5329 "/></g><g stroke-linejoin="miter" stroke-opacity="1.0" fill-opacity="0.6" stroke="rgb(0,0,0)" fill-rule="evenodd" stroke-width="0.0" fill="rgb(0,0,0)" stroke-linecap="butt" stroke-miterlimit="10.0"><path d="M 14.3631,63.5348 ZM 15.5897,60.4937 c -0.2408,-0.0000 -0.5937,0.2352 -0.5937 1.5402c 0.0000,0.4592 0.0840,1.3833 0.5769 1.3833c 0.0952,-0.0000 0.3640,-0.0616 0.4816 -0.4985c 0.0728,-0.2688 0.1120,-0.6049 0.1120 -1.0921c 0.0000,-0.7113 -0.1792,-1.1089 -0.3416 -1.2489c -0.0616,-0.0560 -0.1456,-0.0840 -0.2352 -0.0840ZM 15.5897,60.4937 ZM 15.5673,63.6020 c -0.5993,-0.0000 -1.0025,-0.7673 -1.0025 -1.6242c 0.0000,-1.0473 0.4985,-1.6802 1.0249 -1.6802c 0.2408,-0.0000 0.4816,0.1512 0.6441 0.3696c 0.2352,0.3136 0.3584,0.7337 0.3584 1.2601c 0.0000,1.2433 -0.6161,1.6746 -1.0249 1.6746ZM 16.8162,63.5348 ZM 17.1354,63.3051 c 0.0000,-0.1624 0.1344,-0.2968 0.2968 -0.2968c 0.1624,-0.0000 0.2968,0.1344 0.2968 0.2968c 0.0000,0.1624 -0.1344,0.2968 -0.2968 0.2968c -0.1624,-0.0000 -0.2968,-0.1344 -0.2968 -0.2968ZM 18.0427,63.5348 ZM 19.2692,60.4937 c -0.2408,-0.0000 -0.5937,0.2352 -0.5937 1.5402c 0.0000,0.4592 0.0840,1.3833 0.5769 1.3833c 0.0952,-0.0000 0.3640,-0.0616 0.4816 -0.4985c 0.0728,-0.2688 0.1120,-0.6049 0.1120 -1.0921c 0.0000,-0.7113 -0.1792,-1.1089 -0.3416 -1.2489c -0.0616,-0.0560 -0.1456,-0.0840 -0.2352 -0.0840ZM 19.2692,60.4937 ZM 19.2468,63.6020 c -0.5993,-0.0000 -1.0025,-0.7673 -1.0025 -1.6242c 0.0000,-1.0473 0.4985,-1.6802 1.0249 -1.6802c 0.2408,-0.0000 0.4816,0.1512 0.6441 0.3696c 0.2352,0.3136 0.3584,0.7337 0.3584 1.2601c 0.0000,1.2433 -0.6161,1.6746 -1.0249 1.6746ZM 20.4958,63.5348 ZM 21.7391,60.4320 c -0.3192,-0.0000 -0.5265,0.2520 -0.5265 0.4985c 0.0000,0.1624 0.0672,0.3584 0.4032 0.5769l 0.1624,0.1008 c 0.1456,-0.1064 0.4872,-0.3640 0.4872 -0.6497c 0.0000,-0.2464 -0.1792,-0.5265 -0.5265 -0.5265ZM 21.7391,60.4320 ZM 22.5960,60.9641 c 0.0000,0.3416 -0.3864,0.6105 -0.6217 0.7673l 0.3248,0.2128 c 0.2744,0.1792 0.4144,0.4256 0.4144 0.7337c 0.0000,0.4032 -0.3304,0.9241 -1.0249 0.9241c -0.5601,-0.0000 -0.9465,-0.2968 -0.9465 -0.8401c 0.0000,-0.2072 0.0896,-0.4480 0.3080 -0.6385c 0.1344,-0.1176 0.2520,-0.2184 0.3864 -0.3192l -0.0952,-0.0560 c -0.3248,-0.2016 -0.4872,-0.4200 -0.4872 -0.7169c 0.0000,-0.4088 0.3696,-0.7337 0.9129 -0.7337c 0.5209,-0.0000 0.8289,0.2856 0.8289 0.6665ZM 22.5960,60.9641 ZM 21.6999,63.4452 c 0.2408,-0.0000 0.6609,-0.1288 0.6609 -0.6609c 0.0000,-0.2520 -0.1568,-0.5041 -0.4872 -0.7057l -0.2464,-0.1512 c -0.4536,0.3024 -0.5545,0.6777 -0.5545 0.8345c 0.0000,0.4760 0.3864,0.6833 0.6273 0.6833Z"/></g><g stroke-linejoin="miter" stroke-opacity="0.6" fill-opacity="0.0" stroke="rgb(0,0,0)" stroke-width="0.9234558679881927" fill="rgb(0,0,0)" stroke-linecap="butt" stroke-miterlimit="10.0"><path d="M 24.2152,63.5348 h 2.5329 "/></g><g stroke-linejoin="miter" stroke-opacity="1.0" fill-opacity="0.6" stroke="rgb(0,0,0)" fill-rule="evenodd" stroke-width="0.0" fill="rgb(0,0,0)" stroke-linecap="butt" stroke-miterlimit="10.0"><path d="M 14.3631,71.9776 ZM 15.5897,68.9365 c -0.2408,-0.0000 -0.5937,0.2352 -0.5937 1.5402c 0.0000,0.4592 0.0840,1.3833 0.5769 1.3833c 0.0952,-0.0000 0.3640,-0.0616 0.4816 -0.4985c 0.0728,-0.2688 0.1120,-0.6049 0.1120 -1.0921c 0.0000,-0.7113 -0.1792,-1.1089 -0.3416 -1.2489c -0.0616,-0.0560 -0.1456,-0.0840 -0.2352 -0.0840ZM 15.5897,68.9365 ZM 15.5673,72.0448 c -0.5993,-0.0000 -1.0025,-0.7673 -1.0025 -1.6242c 0.0000,-1.0473 0.4985,-1.6802 1.0249 -1.6802c 0.2408,-0.0000 0.4816,0.1512 0.6441 0.3696c 0.2352,0.3136 0.3584,0.7337 0.3584 1.2601c 0.0000,1.2433 -0.6161,1.6746 -1.0249 1.6746ZM 16.8162,71.9776 ZM 17.1354,71.7480 c 0.0000,-0.1624 0.1344,-0.2968 0.2968 -0.2968c 0.1624,-0.0000 0.2968,0.1344 0.2968 0.2968c 0.0000,0.1624 -0.1344,0.2968 -0.2968 0.2968c -0.1624,-0.0000 -0.2968,-0.1344 -0.2968 -0.2968ZM 18.0427,71.9776 ZM 19.2692,68.9365 c -0.2408,-0.0000 -0.5937,0.2352 -0.5937 1.5402c 0.0000,0.4592 0.0840,1.3833 0.5769 1.3833c 0.0952,-0.0000 0.3640,-0.0616 0.4816 -0.4985c 0.0728,-0.2688 0.1120,-0.6049 0.1120 -1.0921c 0.0000,-0.7113 -0.1792,-1.1089 -0.3416 -1.2489c -0.0616,-0.0560 -0.1456,-0.0840 -0.2352 -0.0840ZM 19.2692,68.9365 ZM 19.2468,72.0448 c -0.5993,-0.0000 -1.0025,-0.7673 -1.0025 -1.6242c 0.0000,-1.0473 0.4985,-1.6802 1.0249 -1.6802c 0.2408,-0.0000 0.4816,0.1512 0.6441 0.3696c 0.2352,0.3136 0.3584,0.7337 0.3584 1.2601c 0.0000,1.2433 -0.6161,1.6746 -1.0249 1.6746ZM 20.4958,71.9776 ZM 21.1454,70.5103 c -0.0056,0.0560 -0.0056,0.1400 -0.0056 0.1960c 0.0000,0.9409 0.4200,1.1761 0.7001 1.1761c 0.2576,-0.0000 0.5321,-0.2408 0.5321 -0.8233c 0.0000,-0.2632 -0.1344,-0.8009 -0.6721 -0.8009c -0.1176,-0.0000 -0.3304,0.0112 -0.5545 0.2520ZM 21.1454,70.5103 ZM 22.6128,68.8861 c -0.3640,0.0336 -0.6777,0.1288 -0.9465 0.3920c -0.2576,0.2520 -0.4424,0.6273 -0.5041 1.0753c 0.1288,-0.1568 0.4368,-0.2744 0.6497 -0.2744c 0.8289,-0.0000 0.9353,0.6833 0.9353 0.9409c 0.0000,0.3808 -0.1904,1.0249 -0.9633 1.0249c -0.4088,-0.0000 -1.0305,-0.2408 -1.0305 -1.3553c 0.0000,-0.5153 0.1736,-1.0193 0.5601 -1.4057c 0.3584,-0.3640 0.7337,-0.5153 1.2825 -0.5433Z"/></g><g stroke-linejoin="miter" stroke-opacity="0.6" fill-opacity="0.0" stroke="rgb(0,0,0)" stroke-width="0.9234558679881927" fill="rgb(0,0,0)" stroke-linecap="butt" stroke-miterlimit="10.0"><path d="M 24.2152,71.9776 h 2.5329 "/></g><g stroke-linejoin="miter" stroke-opacity="1.0" fill-opacity="0.6" stroke="rgb(0,0,0)" fill-rule="evenodd" stroke-width="0.0" fill="rgb(0,0,0)" stroke-linecap="butt" stroke-miterlimit="10.0"><path d="M 14.3631,80.4205 ZM 15.5897,77.3794 c -0.2408,-0.0000 -0.5937,0.2352 -0.5937 1.5402c 0.0000,0.4592 0.0840,1.3833 0.5769 1.3833c 0.0952,-0.0000 0.3640,-0.0616 0.4816 -0.4985c 0.0728,-0.2688 0.1120,-0.6049 0.1120 -1.0921c 0.0000,-0.7113 -0.1792,-1.1089 -0.3416 -1.2489c -0.0616,-0.0560 -0.1456,-0.0840 -0.2352 -0.0840ZM 15.5897,77.3794 ZM 15.5673,80.4877 c -0.5993,-0.0000 -1.0025,-0.7673 -1.0025 -1.6242c 0.0000,-1.0473 0.4985,-1.6802 1.0249 -1.6802c 0.2408,-0.0000 0.4816,0.1512 0.6441 0.3696c 0.2352,0.3136 0.3584,0.7337 0.3584 1.2601c 0.0000,1.2433 -0.6161,1.6746 -1.0249 1.6746ZM 16.8162,80.4205 ZM 17.1354,80.1908 c 0.0000,-0.1624 0.1344,-0.2968 0.2968 -0.2968c 0.1624,-0.0000 0.2968,0.1344 0.2968 0.2968c 0.0000,0.1624 -0.1344,0.2968 -0.2968 0.2968c -0.1624,-0.0000 -0.2968,-0.1344 -0.2968 -0.2968ZM 18.0427,80.4205 ZM 19.2692,77.3794 c -0.2408,-0.0000 -0.5937,0.2352 -0.5937 1.5402c 0.0000,0.4592 0.0840,1.3833 0.5769 1.3833c 0.0952,-0.0000 0.3640,-0.0616 0.4816 -0.4985c 0.0728,-0.2688 0.1120,-0.6049 0.1120 -1.0921c 0.0000,-0.7113 -0.1792,-1.1089 -0.3416 -1.2489c -0.0616,-0.0560 -0.1456,-0.0840 -0.2352 -0.0840ZM 19.2692,77.3794 ZM 19.2468,80.4877 c -0.5993,-0.0000 -1.0025,-0.7673 -1.0025 -1.6242c 0.0000,-1.0473 0.4985,-1.6802 1.0249 -1.6802c 0.2408,-0.0000 0.4816,0.1512 0.6441 0.3696c 0.2352,0.3136 0.3584,0.7337 0.3584 1.2601c 0.0000,1.2433 -0.6161,1.6746 -1.0249 1.6746ZM 20.4958,80.4205 ZM 21.9407,78.4323 c 0.0000,-0.0392 0.0056,-0.0840 0.0560 -0.1120c 0.0616,-0.0448 0.1624,-0.0952 0.2464 -0.0952c 0.0728,-0.0000 0.0784,0.0616 0.0784 0.1736v 0.9017 h 0.4536 l -0.0336,0.2632 h -0.4200 v 0.4648 c 0.0000,0.1568 0.0224,0.2352 0.1848 0.2352h 0.1512 c 0.0336,-0.0000 0.0392,0.0280 0.0392 0.0392v 0.1232 c 0.0000,-0.0000 -0.3584,-0.0112 -0.5937 -0.0112c -0.2128,-0.0000 -0.5433,0.0112 -0.5433 0.0112v -0.1232 c 0.0000,-0.0112 0.0056,-0.0392 0.0392 -0.0392h 0.1512 c 0.1736,-0.0000 0.1904,-0.0728 0.1904 -0.2352v -0.4648 h -1.0977 c -0.0224,-0.0000 -0.0336,-0.0112 -0.0504 -0.0336l -0.0448,-0.0616 l -0.0672,-0.1176 c -0.0056,-0.0000 -0.0056,-0.0056 -0.0056 -0.0112c 0.0000,-0.0056 0.0056,-0.0112 0.0112 -0.0168c 0.3640,-0.4032 1.0081,-1.6522 1.2097 -2.1114c 0.0056,-0.0224 0.0168,-0.0280 0.0392 -0.0280c 0.0056,-0.0000 0.1288,0.0504 0.1960 0.0616c -0.2520,0.6777 -0.6665,1.4057 -1.0753 2.0554h 0.8849 v -0.8681 Z"/></g><g stroke-linejoin="miter" stroke-opacity="0.6" fill-opacity="0.0" stroke="rgb(0,0,0)" stroke-width="0.9234558679881927" fill="rgb(0,0,0)" stroke-linecap="butt" stroke-miterlimit="10.0"><path d="M 24.2152,80.4205 h 2.5329 "/></g><g stroke-linejoin="miter" stroke-opacity="1.0" fill-opacity="0.6" stroke="rgb(0,0,0)" fill-rule="evenodd" stroke-width="0.0" fill="rgb(0,0,0)" stroke-linecap="butt" stroke-miterlimit="10.0"><path d="M 14.3631,88.8633 ZM 15.5897,85.8222 c -0.2408,-0.0000 -0.5937,0.2352 -0.5937 1.5402c 0.0000,0.4592 0.0840,1.3833 0.5769 1.3833c 0.0952,-0.0000 0.3640,-0.0616 0.4816 -0.4985c 0.0728,-0.2688 0.1120,-0.6049 0.1120 -1.0921c 0.0000,-0.7113 -0.1792,-1.1089 -0.3416 -1.2489c -0.0616,-0.0560 -0.1456,-0.0840 -0.2352 -0.0840ZM 15.5897,85.8222 ZM 15.5673,88.9305 c -0.5993,-0.0000 -1.0025,-0.7673 -1.0025 -1.6242c 0.0000,-1.0473 0.4985,-1.6802 1.0249 -1.6802c 0.2408,-0.0000 0.4816,0.1512 0.6441 0.3696c 0.2352,0.3136 0.3584,0.7337 0.3584 1.2601c 0.0000,1.2433 -0.6161,1.6746 -1.0249 1.6746ZM 16.8162,88.8633 ZM 17.1354,88.6337 c 0.0000,-0.1624 0.1344,-0.2968 0.2968 -0.2968c 0.1624,-0.0000 0.2968,0.1344 0.2968 0.2968c 0.0000,0.1624 -0.1344,0.2968 -0.2968 0.2968c -0.1624,-0.0000 -0.2968,-0.1344 -0.2968 -0.2968ZM 18.0427,88.8633 ZM 19.2692,85.8222 c -0.2408,-0.0000 -0.5937,0.2352 -0.5937 1.5402c 0.0000,0.4592 0.0840,1.3833 0.5769 1.3833c 0.0952,-0.0000 0.3640,-0.0616 0.4816 -0.4985c 0.0728,-0.2688 0.1120,-0.6049 0.1120 -1.0921c 0.0000,-0.7113 -0.1792,-1.1089 -0.3416 -1.2489c -0.0616,-0.0560 -0.1456,-0.0840 -0.2352 -0.0840ZM 19.2692,85.8222 ZM 19.2468,88.9305 c -0.5993,-0.0000 -1.0025,-0.7673 -1.0025 -1.6242c 0.0000,-1.0473 0.4985,-1.6802 1.0249 -1.6802c 0.2408,-0.0000 0.4816,0.1512 0.6441 0.3696c 0.2352,0.3136 0.3584,0.7337 0.3584 1.2601c 0.0000,1.2433 -0.6161,1.6746 -1.0249 1.6746ZM 20.4958,88.8633 ZM 20.8206,86.3823 c 0.0000,-0.3192 0.3080,-0.7561 0.8961 -0.7561c 0.4312,-0.0000 0.9353,0.1624 0.9353 0.8065c 0.0000,0.4256 -0.2184,0.6385 -0.5209 0.9297l -0.5321,0.5153 c -0.0280,0.0280 -0.4032,0.3976 -0.4032 0.6609h 0.9521 c 0.1904,-0.0000 0.2912,-0.0952 0.3696 -0.4032l 0.1400,0.0224 l -0.1120,0.7057 h -1.7306 c 0.0000,-0.3136 0.0504,-0.5545 0.5713 -1.0865l 0.3920,-0.3864 c 0.3136,-0.3192 0.4424,-0.5937 0.4424 -0.9353c 0.0000,-0.5097 -0.3472,-0.6553 -0.5377 -0.6553c -0.3864,-0.0000 -0.4928,0.2016 -0.4928 0.3360c 0.0000,0.0448 0.0112,0.0896 0.0224 0.1288c 0.0112,0.0392 0.0224,0.0784 0.0224 0.1232c 0.0000,0.1456 -0.1120,0.2016 -0.2016 0.2016c -0.1232,-0.0000 -0.2128,-0.0952 -0.2128 -0.2072Z"/></g><g stroke-linejoin="miter" stroke-opacity="0.6" fill-opacity="0.0" stroke="rgb(0,0,0)" stroke-width="0.9234558679881927" fill="rgb(0,0,0)" stroke-linecap="butt" stroke-miterlimit="10.0"><path d="M 24.2152,88.8633 h 2.5329 "/></g><g stroke-linejoin="miter" stroke-opacity="1.0" fill-opacity="0.6" stroke="rgb(0,0,0)" fill-rule="evenodd" stroke-width="0.0" fill="rgb(0,0,0)" stroke-linecap="butt" stroke-miterlimit="10.0"><path d="M 14.3631,97.3062 ZM 15.5897,94.2651 c -0.2408,-0.0000 -0.5937,0.2352 -0.5937 1.5402c 0.0000,0.4592 0.0840,1.3833 0.5769 1.3833c 0.0952,-0.0000 0.3640,-0.0616 0.4816 -0.4985c 0.0728,-0.2688 0.1120,-0.6049 0.1120 -1.0921c 0.0000,-0.7113 -0.1792,-1.1089 -0.3416 -1.2489c -0.0616,-0.0560 -0.1456,-0.0840 -0.2352 -0.0840ZM 15.5897,94.2651 ZM 15.5673,97.3734 c -0.5993,-0.0000 -1.0025,-0.7673 -1.0025 -1.6242c 0.0000,-1.0473 0.4985,-1.6802 1.0249 -1.6802c 0.2408,-0.0000 0.4816,0.1512 0.6441 0.3696c 0.2352,0.3136 0.3584,0.7337 0.3584 1.2601c 0.0000,1.2433 -0.6161,1.6746 -1.0249 1.6746ZM 16.8162,97.3062 ZM 17.1354,97.0766 c 0.0000,-0.1624 0.1344,-0.2968 0.2968 -0.2968c 0.1624,-0.0000 0.2968,0.1344 0.2968 0.2968c 0.0000,0.1624 -0.1344,0.2968 -0.2968 0.2968c -0.1624,-0.0000 -0.2968,-0.1344 -0.2968 -0.2968ZM 18.0427,97.3062 ZM 19.2692,94.2651 c -0.2408,-0.0000 -0.5937,0.2352 -0.5937 1.5402c 0.0000,0.4592 0.0840,1.3833 0.5769 1.3833c 0.0952,-0.0000 0.3640,-0.0616 0.4816 -0.4985c 0.0728,-0.2688 0.1120,-0.6049 0.1120 -1.0921c 0.0000,-0.7113 -0.1792,-1.1089 -0.3416 -1.2489c -0.0616,-0.0560 -0.1456,-0.0840 -0.2352 -0.0840ZM 19.2692,94.2651 ZM 19.2468,97.3734 c -0.5993,-0.0000 -1.0025,-0.7673 -1.0025 -1.6242c 0.0000,-1.0473 0.4985,-1.6802 1.0249 -1.6802c 0.2408,-0.0000 0.4816,0.1512 0.6441 0.3696c 0.2352,0.3136 0.3584,0.7337 0.3584 1.2601c 0.0000,1.2433 -0.6161,1.6746 -1.0249 1.6746ZM 20.4958,97.3062 ZM 21.7223,94.2651 c -0.2408,-0.0000 -0.5937,0.2352 -0.5937 1.5402c 0.0000,0.4592 0.0840,1.3833 0.5769 1.3833c 0.0952,-0.0000 0.3640,-0.0616 0.4816 -0.4985c 0.0728,-0.2688 0.1120,-0.6049 0.1120 -1.0921c 0.0000,-0.7113 -0.1792,-1.1089 -0.3416 -1.2489c -0.0616,-0.0560 -0.1456,-0.0840 -0.2352 -0.0840ZM 21.7223,94.2651 ZM 21.6999,97.3734 c -0.5993,-0.0000 -1.0025,-0.7673 -1.0025 -1.6242c 0.0000,-1.0473 0.4985,-1.6802 1.0249 -1.6802c 0.2408,-0.0000 0.4816,0.1512 0.6441 0.3696c 0.2352,0.3136 0.3584,0.7337 0.3584 1.2601c 0.0000,1.2433 -0.6161,1.6746 -1.0249 1.6746Z"/></g><g stroke-linejoin="miter" stroke-opacity="0.6" fill-opacity="0.0" stroke="rgb(0,0,0)" stroke-width="0.9234558679881927" fill="rgb(0,0,0)" stroke-linecap="butt" stroke-miterlimit="10.0"><path d="M 24.2152,97.3062 h 2.5329 "/></g><g stroke-linejoin="miter" stroke-opacity="0.0" fill-opacity="0.1" stroke="rgb(0,0,0)" stroke-width="0.0" fill="rgb(0,0,0)" stroke-linecap="butt" stroke-miterlimit="10.0"><path d="M 284.6374,102.3719 l -0.0000,-1.6886 h -253.2856 l -0.0000,1.6886 Z"/></g><g stroke-linejoin="miter" stroke-opacity="1.0" fill-opacity="0.6" stroke="rgb(0,0,0)" fill-rule="evenodd" stroke-width="0.0" fill="rgb(0,0,0)" stroke-linecap="butt" stroke-miterlimit="10.0"><path d="M 282.1843,109.4895 ZM 283.2372,106.8180 c -0.1064,-0.0000 -0.3528,0.1008 -0.4760 0.1568l -0.0672,-0.1736 c 0.4928,-0.2296 0.6833,-0.3472 0.9633 -0.5489h 0.1064 v 2.8171 c 0.0000,0.2016 0.0280,0.2576 0.2128 0.2576h 0.2912 c 0.0168,-0.0000 0.0448,0.0112 0.0448 0.0448v 0.1232 l -0.7673,-0.0112 l -0.7785,0.0112 v -0.1232 c 0.0056,-0.0168 0.0112,-0.0448 0.0448 -0.0448h 0.3360 c 0.2128,-0.0000 0.2128,-0.0952 0.2128 -0.2576v -1.9266 c 0.0000,-0.1904 0.0000,-0.3248 -0.1232 -0.3248ZM 284.6374,109.4895 ZM 284.9622,107.0085 c 0.0000,-0.3192 0.3080,-0.7561 0.8961 -0.7561c 0.4312,-0.0000 0.9353,0.1624 0.9353 0.8065c 0.0000,0.4256 -0.2184,0.6385 -0.5209 0.9297l -0.5321,0.5153 c -0.0280,0.0280 -0.4032,0.3976 -0.4032 0.6609h 0.9521 c 0.1904,-0.0000 0.2912,-0.0952 0.3696 -0.4032l 0.1400,0.0224 l -0.1120,0.7057 h -1.7306 c 0.0000,-0.3136 0.0504,-0.5545 0.5713 -1.0865l 0.3920,-0.3864 c 0.3136,-0.3192 0.4424,-0.5937 0.4424 -0.9353c 0.0000,-0.5097 -0.3472,-0.6553 -0.5377 -0.6553c -0.3864,-0.0000 -0.4928,0.2016 -0.4928 0.3360c 0.0000,0.0448 0.0112,0.0896 0.0224 0.1288c 0.0112,0.0392 0.0224,0.0784 0.0224 0.1232c 0.0000,0.1456 -0.1120,0.2016 -0.2016 0.2016c -0.1232,-0.0000 -0.2128,-0.0952 -0.2128 -0.2072Z"/></g><g stroke-linejoin="miter" stroke-opacity="0.6" fill-opacity="0.0" stroke="rgb(0,0,0)" stroke-width="0.9234558679881927" fill="rgb(0,0,0)" stroke-linecap="butt" stroke-miterlimit="10.0"><path d="M 284.6374,100.6833 v 2.5329 "/></g><g stroke-linejoin="miter" stroke-opacity="1.0" fill-opacity="0.6" stroke="rgb(0,0,0)" fill-rule="evenodd" stroke-width="0.0" fill="rgb(0,0,0)" stroke-linecap="butt" stroke-miterlimit="10.0"><path d="M 239.9701,109.4895 ZM 241.0230,106.8180 c -0.1064,-0.0000 -0.3528,0.1008 -0.4760 0.1568l -0.0672,-0.1736 c 0.4928,-0.2296 0.6833,-0.3472 0.9633 -0.5489h 0.1064 v 2.8171 c 0.0000,0.2016 0.0280,0.2576 0.2128 0.2576h 0.2912 c 0.0168,-0.0000 0.0448,0.0112 0.0448 0.0448v 0.1232 l -0.7673,-0.0112 l -0.7785,0.0112 v -0.1232 c 0.0056,-0.0168 0.0112,-0.0448 0.0448 -0.0448h 0.3360 c 0.2128,-0.0000 0.2128,-0.0952 0.2128 -0.2576v -1.9266 c 0.0000,-0.1904 0.0000,-0.3248 -0.1232 -0.3248ZM 242.4231,109.4895 ZM 243.6496,106.4484 c -0.2408,-0.0000 -0.5937,0.2352 -0.5937 1.5402c 0.0000,0.4592 0.0840,1.3833 0.5769 1.3833c 0.0952,-0.0000 0.3640,-0.0616 0.4816 -0.4985c 0.0728,-0.2688 0.1120,-0.6049 0.1120 -1.0921c 0.0000,-0.7113 -0.1792,-1.1089 -0.3416 -1.2489c -0.0616,-0.0560 -0.1456,-0.0840 -0.2352 -0.0840ZM 243.6496,106.4484 ZM 243.6272,109.5567 c -0.5993,-0.0000 -1.0025,-0.7673 -1.0025 -1.6242c 0.0000,-1.0473 0.4985,-1.6802 1.0249 -1.6802c 0.2408,-0.0000 0.4816,0.1512 0.6441 0.3696c 0.2352,0.3136 0.3584,0.7337 0.3584 1.2601c 0.0000,1.2433 -0.6161,1.6746 -1.0249 1.6746Z"/></g><g stroke-linejoin="miter" stroke-opacity="0.6" fill-opacity="0.0" stroke="rgb(0,0,0)" stroke-width="0.9234558679881927" fill="rgb(0,0,0)" stroke-linecap="butt" stroke-miterlimit="10.0"><path d="M 242.4231,100.6833 v 2.5329 "/></g><g stroke-linejoin="miter" stroke-opacity="1.0" fill-opacity="0.6" stroke="rgb(0,0,0)" fill-rule="evenodd" stroke-width="0.0" fill="rgb(0,0,0)" stroke-linecap="butt" stroke-miterlimit="10.0"><path d="M 198.9823,109.4895 ZM 200.2256,106.3868 c -0.3192,-0.0000 -0.5265,0.2520 -0.5265 0.4985c 0.0000,0.1624 0.0672,0.3584 0.4032 0.5769l 0.1624,0.1008 c 0.1456,-0.1064 0.4872,-0.3640 0.4872 -0.6497c 0.0000,-0.2464 -0.1792,-0.5265 -0.5265 -0.5265ZM 200.2256,106.3868 ZM 201.0825,106.9188 c 0.0000,0.3416 -0.3864,0.6105 -0.6217 0.7673l 0.3248,0.2128 c 0.2744,0.1792 0.4144,0.4256 0.4144 0.7337c 0.0000,0.4032 -0.3304,0.9241 -1.0249 0.9241c -0.5601,-0.0000 -0.9465,-0.2968 -0.9465 -0.8401c 0.0000,-0.2072 0.0896,-0.4480 0.3080 -0.6385c 0.1344,-0.1176 0.2520,-0.2184 0.3864 -0.3192l -0.0952,-0.0560 c -0.3248,-0.2016 -0.4872,-0.4200 -0.4872 -0.7169c 0.0000,-0.4088 0.3696,-0.7337 0.9129 -0.7337c 0.5209,-0.0000 0.8289,0.2856 0.8289 0.6665ZM 201.0825,106.9188 ZM 200.1864,109.3999 c 0.2408,-0.0000 0.6609,-0.1288 0.6609 -0.6609c 0.0000,-0.2520 -0.1568,-0.5041 -0.4872 -0.7057l -0.2464,-0.1512 c -0.4536,0.3024 -0.5545,0.6777 -0.5545 0.8345c 0.0000,0.4760 0.3864,0.6833 0.6273 0.6833Z"/></g><g stroke-linejoin="miter" stroke-opacity="0.6" fill-opacity="0.0" stroke="rgb(0,0,0)" stroke-width="0.9234558679881927" fill="rgb(0,0,0)" stroke-linecap="butt" stroke-miterlimit="10.0"><path d="M 200.2088,100.6833 v 2.5329 "/></g><g stroke-linejoin="miter" stroke-opacity="1.0" fill-opacity="0.6" stroke="rgb(0,0,0)" fill-rule="evenodd" stroke-width="0.0" fill="rgb(0,0,0)" stroke-linecap="butt" stroke-miterlimit="10.0"><path d="M 156.7680,109.4895 ZM 157.4177,108.0222 c -0.0056,0.0560 -0.0056,0.1400 -0.0056 0.1960c 0.0000,0.9409 0.4200,1.1761 0.7001 1.1761c 0.2576,-0.0000 0.5321,-0.2408 0.5321 -0.8233c 0.0000,-0.2632 -0.1344,-0.8009 -0.6721 -0.8009c -0.1176,-0.0000 -0.3304,0.0112 -0.5545 0.2520ZM 157.4177,108.0222 ZM 158.8851,106.3980 c -0.3640,0.0336 -0.6777,0.1288 -0.9465 0.3920c -0.2576,0.2520 -0.4424,0.6273 -0.5041 1.0753c 0.1288,-0.1568 0.4368,-0.2744 0.6497 -0.2744c 0.8289,-0.0000 0.9353,0.6833 0.9353 0.9409c 0.0000,0.3808 -0.1904,1.0249 -0.9633 1.0249c -0.4088,-0.0000 -1.0305,-0.2408 -1.0305 -1.3553c 0.0000,-0.5153 0.1736,-1.0193 0.5601 -1.4057c 0.3584,-0.3640 0.7337,-0.5153 1.2825 -0.5433Z"/></g><g stroke-linejoin="miter" stroke-opacity="0.6" fill-opacity="0.0" stroke="rgb(0,0,0)" stroke-width="0.9234558679881927" fill="rgb(0,0,0)" stroke-linecap="butt" stroke-miterlimit="10.0"><path d="M 157.9946,100.6833 v 2.5329 "/></g><g stroke-linejoin="miter" stroke-opacity="1.0" fill-opacity="0.6" stroke="rgb(0,0,0)" fill-rule="evenodd" stroke-width="0.0" fill="rgb(0,0,0)" stroke-linecap="butt" stroke-miterlimit="10.0"><path d="M 114.5538,109.4895 ZM 115.9987,107.5013 c 0.0000,-0.0392 0.0056,-0.0840 0.0560 -0.1120c 0.0616,-0.0448 0.1624,-0.0952 0.2464 -0.0952c 0.0728,-0.0000 0.0784,0.0616 0.0784 0.1736v 0.9017 h 0.4536 l -0.0336,0.2632 h -0.4200 v 0.4648 c 0.0000,0.1568 0.0224,0.2352 0.1848 0.2352h 0.1512 c 0.0336,-0.0000 0.0392,0.0280 0.0392 0.0392v 0.1232 c 0.0000,-0.0000 -0.3584,-0.0112 -0.5937 -0.0112c -0.2128,-0.0000 -0.5433,0.0112 -0.5433 0.0112v -0.1232 c 0.0000,-0.0112 0.0056,-0.0392 0.0392 -0.0392h 0.1512 c 0.1736,-0.0000 0.1904,-0.0728 0.1904 -0.2352v -0.4648 h -1.0977 c -0.0224,-0.0000 -0.0336,-0.0112 -0.0504 -0.0336l -0.0448,-0.0616 l -0.0672,-0.1176 c -0.0056,-0.0000 -0.0056,-0.0056 -0.0056 -0.0112c 0.0000,-0.0056 0.0056,-0.0112 0.0112 -0.0168c 0.3640,-0.4032 1.0081,-1.6522 1.2097 -2.1114c 0.0056,-0.0224 0.0168,-0.0280 0.0392 -0.0280c 0.0056,-0.0000 0.1288,0.0504 0.1960 0.0616c -0.2520,0.6777 -0.6665,1.4057 -1.0753 2.0554h 0.8849 v -0.8681 Z"/></g><g stroke-linejoin="miter" stroke-opacity="0.6" fill-opacity="0.0" stroke="rgb(0,0,0)" stroke-width="0.9234558679881927" fill="rgb(0,0,0)" stroke-linecap="butt" stroke-miterlimit="10.0"><path d="M 115.7803,100.6833 v 2.5329 "/></g><g stroke-linejoin="miter" stroke-opacity="1.0" fill-opacity="0.6" stroke="rgb(0,0,0)" fill-rule="evenodd" stroke-width="0.0" fill="rgb(0,0,0)" stroke-linecap="butt" stroke-miterlimit="10.0"><path d="M 72.3395,109.4895 ZM 72.6643,107.0085 c 0.0000,-0.3192 0.3080,-0.7561 0.8961 -0.7561c 0.4312,-0.0000 0.9353,0.1624 0.9353 0.8065c 0.0000,0.4256 -0.2184,0.6385 -0.5209 0.9297l -0.5321,0.5153 c -0.0280,0.0280 -0.4032,0.3976 -0.4032 0.6609h 0.9521 c 0.1904,-0.0000 0.2912,-0.0952 0.3696 -0.4032l 0.1400,0.0224 l -0.1120,0.7057 h -1.7306 c 0.0000,-0.3136 0.0504,-0.5545 0.5713 -1.0865l 0.3920,-0.3864 c 0.3136,-0.3192 0.4424,-0.5937 0.4424 -0.9353c 0.0000,-0.5097 -0.3472,-0.6553 -0.5377 -0.6553c -0.3864,-0.0000 -0.4928,0.2016 -0.4928 0.3360c 0.0000,0.0448 0.0112,0.0896 0.0224 0.1288c 0.0112,0.0392 0.0224,0.0784 0.0224 0.1232c 0.0000,0.1456 -0.1120,0.2016 -0.2016 0.2016c -0.1232,-0.0000 -0.2128,-0.0952 -0.2128 -0.2072Z"/></g><g stroke-linejoin="miter" stroke-opacity="0.6" fill-opacity="0.0" stroke="rgb(0,0,0)" stroke-width="0.9234558679881927" fill="rgb(0,0,0)" stroke-linecap="butt" stroke-miterlimit="10.0"><path d="M 73.5660,100.6833 v 2.5329 "/></g><g stroke-linejoin="miter" stroke-opacity="1.0" fill-opacity="0.6" stroke="rgb(0,0,0)" fill-rule="evenodd" stroke-width="0.0" fill="rgb(0,0,0)" stroke-linecap="butt" stroke-miterlimit="10.0"><path d="M 30.1252,109.4895 ZM 31.3518,106.4484 c -0.2408,-0.0000 -0.5937,0.2352 -0.5937 1.5402c 0.0000,0.4592 0.0840,1.3833 0.5769 1.3833c 0.0952,-0.0000 0.3640,-0.0616 0.4816 -0.4985c 0.0728,-0.2688 0.1120,-0.6049 0.1120 -1.0921c 0.0000,-0.7113 -0.1792,-1.1089 -0.3416 -1.2489c -0.0616,-0.0560 -0.1456,-0.0840 -0.2352 -0.0840ZM 31.3518,106.4484 ZM 31.3294,109.5567 c -0.5993,-0.0000 -1.0025,-0.7673 -1.0025 -1.6242c 0.0000,-1.0473 0.4985,-1.6802 1.0249 -1.6802c 0.2408,-0.0000 0.4816,0.1512 0.6441 0.3696c 0.2352,0.3136 0.3584,0.7337 0.3584 1.2601c 0.0000,1.2433 -0.6161,1.6746 -1.0249 1.6746Z"/></g><g stroke-linejoin="miter" stroke-opacity="0.6" fill-opacity="0.0" stroke="rgb(0,0,0)" stroke-width="0.9234558679881927" fill="rgb(0,0,0)" stroke-linecap="butt" stroke-miterlimit="10.0"><path d="M 31.3518,100.6833 v 2.5329 "/></g><g stroke-linejoin="miter" stroke-opacity="0.0" fill-opacity="0.0" stroke="rgb(0,0,0)" stroke-width="0.0" fill="rgb(0,0,0)" stroke-linecap="butt" stroke-miterlimit="10.0"><path d="M 284.6374,97.3062 l -0.0000,-84.4285 h -253.2856 l -0.0000,84.4285 Z"/></g><g stroke-linejoin="miter" stroke-opacity="0.5" fill-opacity="0.0" stroke="rgb(93,165,218)" stroke-width="3.6938234719527707" fill="rgb(0,0,0)" stroke-linecap="butt" stroke-miterlimit="10.0"><path d="M 242.4231,97.3062 v -42.2143 "/></g><g stroke-linejoin="miter" stroke-opacity="0.5" fill-opacity="0.0" stroke="rgb(93,165,218)" stroke-width="3.6938234719527707" fill="rgb(0,0,0)" stroke-linecap="butt" stroke-miterlimit="10.0"><path d="M 221.3160,97.3062 v -37.9928 "/></g><g stroke-linejoin="miter" stroke-opacity="0.5" fill-opacity="0.0" stroke="rgb(93,165,218)" stroke-width="3.6938234719527707" fill="rgb(0,0,0)" stroke-linecap="butt" stroke-miterlimit="10.0"><path d="M 200.2088,97.3062 v -33.7714 "/></g><g stroke-linejoin="miter" stroke-opacity="0.5" fill-opacity="0.0" stroke="rgb(93,165,218)" stroke-width="3.6938234719527707" fill="rgb(0,0,0)" stroke-linecap="butt" stroke-miterlimit="10.0"><path d="M 179.1017,97.3062 v -29.5500 "/></g><g stroke-linejoin="miter" stroke-opacity="0.5" fill-opacity="0.0" stroke="rgb(93,165,218)" stroke-width="3.6938234719527707" fill="rgb(0,0,0)" stroke-linecap="butt" stroke-miterlimit="10.0"><path d="M 157.9946,97.3062 v -25.3286 "/></g><g stroke-linejoin="miter" stroke-opacity="0.5" fill-opacity="0.0" stroke="rgb(93,165,218)" stroke-width="3.6938234719527707" fill="rgb(0,0,0)" stroke-linecap="butt" stroke-miterlimit="10.0"><path d="M 136.8874,97.3062 v -21.1071 "/></g><g stroke-linejoin="miter" stroke-opacity="0.5" fill-opacity="0.0" stroke="rgb(93,165,218)" stroke-width="3.6938234719527707" fill="rgb(0,0,0)" stroke-linecap="butt" stroke-miterlimit="10.0"><path d="M 115.7803,97.3062 v -16.8857 "/></g><g stroke-linejoin="miter" stroke-opacity="0.5" fill-opacity="0.0" stroke="rgb(93,165,218)" stroke-width="3.6938234719527707" fill="rgb(0,0,0)" stroke-linecap="butt" stroke-miterlimit="10.0"><path d="M 94.6732,97.3062 v -12.6643 "/></g><g stroke-linejoin="miter" stroke-opacity="0.5" fill-opacity="0.0" stroke="rgb(93,165,218)" stroke-width="3.6938234719527707" fill="rgb(0,0,0)" stroke-linecap="butt" stroke-miterlimit="10.0"><path d="M 73.5660,97.3062 v -8.4429 "/></g><g stroke-linejoin="miter" stroke-opacity="0.5" fill-opacity="0.0" stroke="rgb(93,165,218)" stroke-width="3.6938234719527707" fill="rgb(0,0,0)" stroke-linecap="butt" stroke-miterlimit="10.0"><path d="M 52.4589,97.3062 v -4.2214 "/></g><g stroke-linejoin="miter" stroke-opacity="0.5" fill-opacity="0.0" stroke="rgb(93,165,218)" stroke-width="3.6938234719527707" fill="rgb(0,0,0)" stroke-linecap="butt" stroke-miterlimit="10.0"><path d="M 31.3518,97.3062 h 0.0000 "/></g></svg>