<?xml version="1.0" encoding="UTF-8"?>
<!DOCTYPE svg PUBLIC "-//W3C//DTD SVG 1.1//EN"
    "http://www.w3.org/Graphics/SVG/1.1/DTD/svg11.dtd"><svg xmlns="http://www.w3.org/2000/svg" height="120.0000" stroke-opacity="1" viewBox="0 0 300 120" font-size="1" width="300.0000" xmlns:xlink="http://www.w3.org/1999/xlink" stroke="rgb(0,0,0)" version="1.1"><defs></defs><g stroke-linejoin="miter" stroke-opacity="0.0" fill-opacity="0.1" stroke="rgb(0,0,0)" stroke-width="0.0" fill="rgb(0,0,0)" stroke-linecap="butt" stroke-miterlimit="10.0"><path d="M 116.5310,115.1326 l -0.0000,-22.9380 h -0.4588 l -0.0000,22.9380 Z"/></g><g stroke-linejoin="miter" stroke-opacity="1.0" fill-opacity="0.6" stroke="rgb(0,0,0)" fill-rule="evenodd" stroke-width="0.0" fill="rgb(0,0,0)" stroke-linecap="butt" stroke-miterlimit="10.0"><path d="M 113.1662,92.1947 ZM 113.4994,91.3684 c -0.0654,-0.0000 -0.1613,0.0639 -0.1613 0.4184c 0.0000,0.1248 0.0228,0.3758 0.1567 0.3758c 0.0259,-0.0000 0.0989,-0.0167 0.1309 -0.1354c 0.0198,-0.0730 0.0304,-0.1643 0.0304 -0.2967c 0.0000,-0.1932 -0.0487,-0.3013 -0.0928 -0.3393c -0.0167,-0.0152 -0.0396,-0.0228 -0.0639 -0.0228ZM 113.4994,91.3684 ZM 113.4933,92.2129 c -0.1628,-0.0000 -0.2724,-0.2085 -0.2724 -0.4413c 0.0000,-0.2845 0.1354,-0.4565 0.2785 -0.4565c 0.0654,-0.0000 0.1309,0.0411 0.1750 0.1004c 0.0639,0.0852 0.0974,0.1993 0.0974 0.3424c 0.0000,0.3378 -0.1674,0.4550 -0.2785 0.4550ZM 113.8326,92.1947 ZM 113.9193,92.1323 c 0.0000,-0.0441 0.0365,-0.0806 0.0806 -0.0806c 0.0441,-0.0000 0.0806,0.0365 0.0806 0.0806c 0.0000,0.0441 -0.0365,0.0806 -0.0806 0.0806c -0.0441,-0.0000 -0.0806,-0.0365 -0.0806 -0.0806ZM 114.1658,92.1947 ZM 114.2541,91.5206 c 0.0000,-0.0867 0.0837,-0.2054 0.2435 -0.2054c 0.1172,-0.0000 0.2541,0.0441 0.2541 0.2191c 0.0000,0.1156 -0.0593,0.1735 -0.1415 0.2526l -0.1446,0.1400 c -0.0076,0.0076 -0.1096,0.1080 -0.1096 0.1795h 0.2587 c 0.0517,-0.0000 0.0791,-0.0259 0.1004 -0.1096l 0.0380,0.0061 l -0.0304,0.1917 h -0.4702 c 0.0000,-0.0852 0.0137,-0.1506 0.1552 -0.2952l 0.1065,-0.1050 c 0.0852,-0.0867 0.1202,-0.1613 0.1202 -0.2541c 0.0000,-0.1385 -0.0943,-0.1780 -0.1461 -0.1780c -0.1050,-0.0000 -0.1339,0.0548 -0.1339 0.0913c 0.0000,0.0122 0.0030,0.0243 0.0061 0.0350c 0.0030,0.0107 0.0061,0.0213 0.0061 0.0335c 0.0000,0.0396 -0.0304,0.0548 -0.0548 0.0548c -0.0335,-0.0000 -0.0578,-0.0259 -0.0578 -0.0563ZM 114.8323,92.1947 ZM 115.1655,91.3684 c -0.0654,-0.0000 -0.1613,0.0639 -0.1613 0.4184c 0.0000,0.1248 0.0228,0.3758 0.1567 0.3758c 0.0259,-0.0000 0.0989,-0.0167 0.1309 -0.1354c 0.0198,-0.0730 0.0304,-0.1643 0.0304 -0.2967c 0.0000,-0.1932 -0.0487,-0.3013 -0.0928 -0.3393c -0.0167,-0.0152 -0.0396,-0.0228 -0.0639 -0.0228ZM 115.1655,91.3684 ZM 115.1594,92.2129 c -0.1628,-0.0000 -0.2724,-0.2085 -0.2724 -0.4413c 0.0000,-0.2845 0.1354,-0.4565 0.2785 -0.4565c 0.0654,-0.0000 0.1309,0.0411 0.1750 0.1004c 0.0639,0.0852 0.0974,0.1993 0.0974 0.3424c 0.0000,0.3378 -0.1674,0.4550 -0.2785 0.4550Z"/></g><g stroke-linejoin="miter" stroke-opacity="0.6" fill-opacity="0.0" stroke="rgb(0,0,0)" stroke-width="0.4944861526259979" fill="rgb(0,0,0)" stroke-linecap="butt" stroke-miterlimit="10.0"><path d="M 115.8428,92.1947 h 0.6881 "/></g><g stroke-linejoin="miter" stroke-opacity="1.0" fill-opacity="0.6" stroke="rgb(0,0,0)" fill-rule="evenodd" stroke-width="0.0" fill="rgb(0,0,0)" stroke-linecap="butt" stroke-miterlimit="10.0"><path d="M 113.1662,94.4885 ZM 113.4994,93.6622 c -0.0654,-0.0000 -0.1613,0.0639 -0.1613 0.4184c 0.0000,0.1248 0.0228,0.3758 0.1567 0.3758c 0.0259,-0.0000 0.0989,-0.0167 0.1309 -0.1354c 0.0198,-0.0730 0.0304,-0.1643 0.0304 -0.2967c 0.0000,-0.1932 -0.0487,-0.3013 -0.0928 -0.3393c -0.0167,-0.0152 -0.0396,-0.0228 -0.0639 -0.0228ZM 113.4994,93.6622 ZM 113.4933,94.5067 c -0.1628,-0.0000 -0.2724,-0.2085 -0.2724 -0.4413c 0.0000,-0.2845 0.1354,-0.4565 0.2785 -0.4565c 0.0654,-0.0000 0.1309,0.0411 0.1750 0.1004c 0.0639,0.0852 0.0974,0.1993 0.0974 0.3424c 0.0000,0.3378 -0.1674,0.4550 -0.2785 0.4550ZM 113.8326,94.4885 ZM 113.9193,94.4261 c 0.0000,-0.0441 0.0365,-0.0806 0.0806 -0.0806c 0.0441,-0.0000 0.0806,0.0365 0.0806 0.0806c 0.0000,0.0441 -0.0365,0.0806 -0.0806 0.0806c -0.0441,-0.0000 -0.0806,-0.0365 -0.0806 -0.0806ZM 114.1658,94.4885 ZM 114.4519,93.7627 c -0.0289,-0.0000 -0.0959,0.0274 -0.1293 0.0426l -0.0183,-0.0472 c 0.1339,-0.0624 0.1856,-0.0943 0.2617 -0.1491h 0.0289 v 0.7654 c 0.0000,0.0548 0.0076,0.0700 0.0578 0.0700h 0.0791 c 0.0046,-0.0000 0.0122,0.0030 0.0122 0.0122v 0.0335 l -0.2085,-0.0030 l -0.2115,0.0030 v -0.0335 c 0.0015,-0.0046 0.0030,-0.0122 0.0122 -0.0122h 0.0913 c 0.0578,-0.0000 0.0578,-0.0259 0.0578 -0.0700v -0.5234 c 0.0000,-0.0517 0.0000,-0.0883 -0.0335 -0.0883ZM 114.8323,94.4885 ZM 115.1701,93.6455 c -0.0867,-0.0000 -0.1430,0.0685 -0.1430 0.1354c 0.0000,0.0441 0.0183,0.0974 0.1096 0.1567l 0.0441,0.0274 c 0.0396,-0.0289 0.1324,-0.0989 0.1324 -0.1765c 0.0000,-0.0669 -0.0487,-0.1430 -0.1430 -0.1430ZM 115.1701,93.6455 ZM 115.4029,93.7901 c 0.0000,0.0928 -0.1050,0.1659 -0.1689 0.2085l 0.0883,0.0578 c 0.0746,0.0487 0.1126,0.1156 0.1126 0.1993c 0.0000,0.1096 -0.0898,0.2511 -0.2785 0.2511c -0.1522,-0.0000 -0.2571,-0.0806 -0.2571 -0.2282c 0.0000,-0.0563 0.0243,-0.1217 0.0837 -0.1735c 0.0365,-0.0320 0.0685,-0.0593 0.1050 -0.0867l -0.0259,-0.0152 c -0.0883,-0.0548 -0.1324,-0.1141 -0.1324 -0.1948c 0.0000,-0.1111 0.1004,-0.1993 0.2480 -0.1993c 0.1415,-0.0000 0.2252,0.0776 0.2252 0.1811ZM 115.4029,93.7901 ZM 115.1594,94.4641 c 0.0654,-0.0000 0.1795,-0.0350 0.1795 -0.1795c 0.0000,-0.0685 -0.0426,-0.1369 -0.1324 -0.1917l -0.0669,-0.0411 c -0.1232,0.0822 -0.1506,0.1841 -0.1506 0.2267c 0.0000,0.1293 0.1050,0.1856 0.1704 0.1856Z"/></g><g stroke-linejoin="miter" stroke-opacity="0.6" fill-opacity="0.0" stroke="rgb(0,0,0)" stroke-width="0.4944861526259979" fill="rgb(0,0,0)" stroke-linecap="butt" stroke-miterlimit="10.0"><path d="M 115.8428,94.4885 h 0.6881 "/></g><g stroke-linejoin="miter" stroke-opacity="1.0" fill-opacity="0.6" stroke="rgb(0,0,0)" fill-rule="evenodd" stroke-width="0.0" fill="rgb(0,0,0)" stroke-linecap="butt" stroke-miterlimit="10.0"><path d="M 113.1662,96.7823 ZM 113.4994,95.9560 c -0.0654,-0.0000 -0.1613,0.0639 -0.1613 0.4184c 0.0000,0.1248 0.0228,0.3758 0.1567 0.3758c 0.0259,-0.0000 0.0989,-0.0167 0.1309 -0.1354c 0.0198,-0.0730 0.0304,-0.1643 0.0304 -0.2967c 0.0000,-0.1932 -0.0487,-0.3013 -0.0928 -0.3393c -0.0167,-0.0152 -0.0396,-0.0228 -0.0639 -0.0228ZM 113.4994,95.9560 ZM 113.4933,96.8005 c -0.1628,-0.0000 -0.2724,-0.2085 -0.2724 -0.4413c 0.0000,-0.2845 0.1354,-0.4565 0.2785 -0.4565c 0.0654,-0.0000 0.1309,0.0411 0.1750 0.1004c 0.0639,0.0852 0.0974,0.1993 0.0974 0.3424c 0.0000,0.3378 -0.1674,0.4550 -0.2785 0.4550ZM 113.8326,96.7823 ZM 113.9193,96.7199 c 0.0000,-0.0441 0.0365,-0.0806 0.0806 -0.0806c 0.0441,-0.0000 0.0806,0.0365 0.0806 0.0806c 0.0000,0.0441 -0.0365,0.0806 -0.0806 0.0806c -0.0441,-0.0000 -0.0806,-0.0365 -0.0806 -0.0806ZM 114.1658,96.7823 ZM 114.4519,96.0565 c -0.0289,-0.0000 -0.0959,0.0274 -0.1293 0.0426l -0.0183,-0.0472 c 0.1339,-0.0624 0.1856,-0.0943 0.2617 -0.1491h 0.0289 v 0.7654 c 0.0000,0.0548 0.0076,0.0700 0.0578 0.0700h 0.0791 c 0.0046,-0.0000 0.0122,0.0030 0.0122 0.0122v 0.0335 l -0.2085,-0.0030 l -0.2115,0.0030 v -0.0335 c 0.0015,-0.0046 0.0030,-0.0122 0.0122 -0.0122h 0.0913 c 0.0578,-0.0000 0.0578,-0.0259 0.0578 -0.0700v -0.5234 c 0.0000,-0.0517 0.0000,-0.0883 -0.0335 -0.0883ZM 114.8323,96.7823 ZM 115.0088,96.3836 c -0.0015,0.0152 -0.0015,0.0380 -0.0015 0.0533c 0.0000,0.2556 0.1141,0.3195 0.1902 0.3195c 0.0700,-0.0000 0.1446,-0.0654 0.1446 -0.2237c 0.0000,-0.0715 -0.0365,-0.2176 -0.1826 -0.2176c -0.0320,-0.0000 -0.0898,0.0030 -0.1506 0.0685ZM 115.0088,96.3836 ZM 115.4075,95.9423 c -0.0989,0.0091 -0.1841,0.0350 -0.2571 0.1065c -0.0700,0.0685 -0.1202,0.1704 -0.1369 0.2921c 0.0350,-0.0426 0.1187,-0.0746 0.1765 -0.0746c 0.2252,-0.0000 0.2541,0.1856 0.2541 0.2556c 0.0000,0.1035 -0.0517,0.2785 -0.2617 0.2785c -0.1111,-0.0000 -0.2800,-0.0654 -0.2800 -0.3682c 0.0000,-0.1400 0.0472,-0.2769 0.1522 -0.3819c 0.0974,-0.0989 0.1993,-0.1400 0.3484 -0.1476Z"/></g><g stroke-linejoin="miter" stroke-opacity="0.6" fill-opacity="0.0" stroke="rgb(0,0,0)" stroke-width="0.4944861526259979" fill="rgb(0,0,0)" stroke-linecap="butt" stroke-miterlimit="10.0"><path d="M 115.8428,96.7823 h 0.6881 "/></g><g stroke-linejoin="miter" stroke-opacity="1.0" fill-opacity="0.6" stroke="rgb(0,0,0)" fill-rule="evenodd" stroke-width="0.0" fill="rgb(0,0,0)" stroke-linecap="butt" stroke-miterlimit="10.0"><path d="M 113.1662,99.0761 ZM 113.4994,98.2498 c -0.0654,-0.0000 -0.1613,0.0639 -0.1613 0.4184c 0.0000,0.1248 0.0228,0.3758 0.1567 0.3758c 0.0259,-0.0000 0.0989,-0.0167 0.1309 -0.1354c 0.0198,-0.0730 0.0304,-0.1643 0.0304 -0.2967c 0.0000,-0.1932 -0.0487,-0.3013 -0.0928 -0.3393c -0.0167,-0.0152 -0.0396,-0.0228 -0.0639 -0.0228ZM 113.4994,98.2498 ZM 113.4933,99.0943 c -0.1628,-0.0000 -0.2724,-0.2085 -0.2724 -0.4413c 0.0000,-0.2845 0.1354,-0.4565 0.2785 -0.4565c 0.0654,-0.0000 0.1309,0.0411 0.1750 0.1004c 0.0639,0.0852 0.0974,0.1993 0.0974 0.3424c 0.0000,0.3378 -0.1674,0.4550 -0.2785 0.4550ZM 113.8326,99.0761 ZM 113.9193,99.0137 c 0.0000,-0.0441 0.0365,-0.0806 0.0806 -0.0806c 0.0441,-0.0000 0.0806,0.0365 0.0806 0.0806c 0.0000,0.0441 -0.0365,0.0806 -0.0806 0.0806c -0.0441,-0.0000 -0.0806,-0.0365 -0.0806 -0.0806ZM 114.1658,99.0761 ZM 114.4519,98.3503 c -0.0289,-0.0000 -0.0959,0.0274 -0.1293 0.0426l -0.0183,-0.0472 c 0.1339,-0.0624 0.1856,-0.0943 0.2617 -0.1491h 0.0289 v 0.7654 c 0.0000,0.0548 0.0076,0.0700 0.0578 0.0700h 0.0791 c 0.0046,-0.0000 0.0122,0.0030 0.0122 0.0122v 0.0335 l -0.2085,-0.0030 l -0.2115,0.0030 v -0.0335 c 0.0015,-0.0046 0.0030,-0.0122 0.0122 -0.0122h 0.0913 c 0.0578,-0.0000 0.0578,-0.0259 0.0578 -0.0700v -0.5234 c 0.0000,-0.0517 0.0000,-0.0883 -0.0335 -0.0883ZM 114.8323,99.0761 ZM 115.2249,98.5359 c 0.0000,-0.0107 0.0015,-0.0228 0.0152 -0.0304c 0.0167,-0.0122 0.0441,-0.0259 0.0669 -0.0259c 0.0198,-0.0000 0.0213,0.0167 0.0213 0.0472v 0.2450 h 0.1232 l -0.0091,0.0715 h -0.1141 v 0.1263 c 0.0000,0.0426 0.0061,0.0639 0.0502 0.0639h 0.0411 c 0.0091,-0.0000 0.0107,0.0076 0.0107 0.0107v 0.0335 c 0.0000,-0.0000 -0.0974,-0.0030 -0.1613 -0.0030c -0.0578,-0.0000 -0.1476,0.0030 -0.1476 0.0030v -0.0335 c 0.0000,-0.0030 0.0015,-0.0107 0.0107 -0.0107h 0.0411 c 0.0472,-0.0000 0.0517,-0.0198 0.0517 -0.0639v -0.1263 h -0.2982 c -0.0061,-0.0000 -0.0091,-0.0030 -0.0137 -0.0091l -0.0122,-0.0167 l -0.0183,-0.0320 c -0.0015,-0.0000 -0.0015,-0.0015 -0.0015 -0.0030c 0.0000,-0.0015 0.0015,-0.0030 0.0030 -0.0046c 0.0989,-0.1096 0.2739,-0.4489 0.3287 -0.5736c 0.0015,-0.0061 0.0046,-0.0076 0.0107 -0.0076c 0.0015,-0.0000 0.0350,0.0137 0.0533 0.0167c -0.0685,0.1841 -0.1811,0.3819 -0.2921 0.5584h 0.2404 v -0.2358 Z"/></g><g stroke-linejoin="miter" stroke-opacity="0.6" fill-opacity="0.0" stroke="rgb(0,0,0)" stroke-width="0.4944861526259979" fill="rgb(0,0,0)" stroke-linecap="butt" stroke-miterlimit="10.0"><path d="M 115.8428,99.0761 h 0.6881 "/></g><g stroke-linejoin="miter" stroke-opacity="1.0" fill-opacity="0.6" stroke="rgb(0,0,0)" fill-rule="evenodd" stroke-width="0.0" fill="rgb(0,0,0)" stroke-linecap="butt" stroke-miterlimit="10.0"><path d="M 113.1662,101.3699 ZM 113.4994,100.5436 c -0.0654,-0.0000 -0.1613,0.0639 -0.1613 0.4184c 0.0000,0.1248 0.0228,0.3758 0.1567 0.3758c 0.0259,-0.0000 0.0989,-0.0167 0.1309 -0.1354c 0.0198,-0.0730 0.0304,-0.1643 0.0304 -0.2967c 0.0000,-0.1932 -0.0487,-0.3013 -0.0928 -0.3393c -0.0167,-0.0152 -0.0396,-0.0228 -0.0639 -0.0228ZM 113.4994,100.5436 ZM 113.4933,101.3881 c -0.1628,-0.0000 -0.2724,-0.2085 -0.2724 -0.4413c 0.0000,-0.2845 0.1354,-0.4565 0.2785 -0.4565c 0.0654,-0.0000 0.1309,0.0411 0.1750 0.1004c 0.0639,0.0852 0.0974,0.1993 0.0974 0.3424c 0.0000,0.3378 -0.1674,0.4550 -0.2785 0.4550ZM 113.8326,101.3699 ZM 113.9193,101.3075 c 0.0000,-0.0441 0.0365,-0.0806 0.0806 -0.0806c 0.0441,-0.0000 0.0806,0.0365 0.0806 0.0806c 0.0000,0.0441 -0.0365,0.0806 -0.0806 0.0806c -0.0441,-0.0000 -0.0806,-0.0365 -0.0806 -0.0806ZM 114.1658,101.3699 ZM 114.4519,100.6441 c -0.0289,-0.0000 -0.0959,0.0274 -0.1293 0.0426l -0.0183,-0.0472 c 0.1339,-0.0624 0.1856,-0.0943 0.2617 -0.1491h 0.0289 v 0.7654 c 0.0000,0.0548 0.0076,0.0700 0.0578 0.0700h 0.0791 c 0.0046,-0.0000 0.0122,0.0030 0.0122 0.0122v 0.0335 l -0.2085,-0.0030 l -0.2115,0.0030 v -0.0335 c 0.0015,-0.0046 0.0030,-0.0122 0.0122 -0.0122h 0.0913 c 0.0578,-0.0000 0.0578,-0.0259 0.0578 -0.0700v -0.5234 c 0.0000,-0.0517 0.0000,-0.0883 -0.0335 -0.0883ZM 114.8323,101.3699 ZM 114.9205,100.6958 c 0.0000,-0.0867 0.0837,-0.2054 0.2435 -0.2054c 0.1172,-0.0000 0.2541,0.0441 0.2541 0.2191c 0.0000,0.1156 -0.0593,0.1735 -0.1415 0.2526l -0.1446,0.1400 c -0.0076,0.0076 -0.1096,0.1080 -0.1096 0.1795h 0.2587 c 0.0517,-0.0000 0.0791,-0.0259 0.1004 -0.1096l 0.0380,0.0061 l -0.0304,0.1917 h -0.4702 c 0.0000,-0.0852 0.0137,-0.1506 0.1552 -0.2952l 0.1065,-0.1050 c 0.0852,-0.0867 0.1202,-0.1613 0.1202 -0.2541c 0.0000,-0.1385 -0.0943,-0.1780 -0.1461 -0.1780c -0.1050,-0.0000 -0.1339,0.0548 -0.1339 0.0913c 0.0000,0.0122 0.0030,0.0243 0.0061 0.0350c 0.0030,0.0107 0.0061,0.0213 0.0061 0.0335c 0.0000,0.0396 -0.0304,0.0548 -0.0548 0.0548c -0.0335,-0.0000 -0.0578,-0.0259 -0.0578 -0.0563Z"/></g><g stroke-linejoin="miter" stroke-opacity="0.6" fill-opacity="0.0" stroke="rgb(0,0,0)" stroke-width="0.4944861526259979" fill="rgb(0,0,0)" stroke-linecap="butt" stroke-miterlimit="10.0"><path d="M 115.8428,101.3699 h 0.6881 "/></g><g stroke-linejoin="miter" stroke-opacity="1.0" fill-opacity="0.6" stroke="rgb(0,0,0)" fill-rule="evenodd" stroke-width="0.0" fill="rgb(0,0,0)" stroke-linecap="butt" stroke-miterlimit="10.0"><path d="M 113.1662,103.6637 ZM 113.4994,102.8374 c -0.0654,-0.0000 -0.1613,0.0639 -0.1613 0.4184c 0.0000,0.1248 0.0228,0.3758 0.1567 0.3758c 0.0259,-0.0000 0.0989,-0.0167 0.1309 -0.1354c 0.0198,-0.0730 0.0304,-0.1643 0.0304 -0.2967c 0.0000,-0.1932 -0.0487,-0.3013 -0.0928 -0.3393c -0.0167,-0.0152 -0.0396,-0.0228 -0.0639 -0.0228ZM 113.4994,102.8374 ZM 113.4933,103.6819 c -0.1628,-0.0000 -0.2724,-0.2085 -0.2724 -0.4413c 0.0000,-0.2845 0.1354,-0.4565 0.2785 -0.4565c 0.0654,-0.0000 0.1309,0.0411 0.1750 0.1004c 0.0639,0.0852 0.0974,0.1993 0.0974 0.3424c 0.0000,0.3378 -0.1674,0.4550 -0.2785 0.4550ZM 113.8326,103.6637 ZM 113.9193,103.6013 c 0.0000,-0.0441 0.0365,-0.0806 0.0806 -0.0806c 0.0441,-0.0000 0.0806,0.0365 0.0806 0.0806c 0.0000,0.0441 -0.0365,0.0806 -0.0806 0.0806c -0.0441,-0.0000 -0.0806,-0.0365 -0.0806 -0.0806ZM 114.1658,103.6637 ZM 114.4519,102.9379 c -0.0289,-0.0000 -0.0959,0.0274 -0.1293 0.0426l -0.0183,-0.0472 c 0.1339,-0.0624 0.1856,-0.0943 0.2617 -0.1491h 0.0289 v 0.7654 c 0.0000,0.0548 0.0076,0.0700 0.0578 0.0700h 0.0791 c 0.0046,-0.0000 0.0122,0.0030 0.0122 0.0122v 0.0335 l -0.2085,-0.0030 l -0.2115,0.0030 v -0.0335 c 0.0015,-0.0046 0.0030,-0.0122 0.0122 -0.0122h 0.0913 c 0.0578,-0.0000 0.0578,-0.0259 0.0578 -0.0700v -0.5234 c 0.0000,-0.0517 0.0000,-0.0883 -0.0335 -0.0883ZM 114.8323,103.6637 ZM 115.1655,102.8374 c -0.0654,-0.0000 -0.1613,0.0639 -0.1613 0.4184c 0.0000,0.1248 0.0228,0.3758 0.1567 0.3758c 0.0259,-0.0000 0.0989,-0.0167 0.1309 -0.1354c 0.0198,-0.0730 0.0304,-0.1643 0.0304 -0.2967c 0.0000,-0.1932 -0.0487,-0.3013 -0.0928 -0.3393c -0.0167,-0.0152 -0.0396,-0.0228 -0.0639 -0.0228ZM 115.1655,102.8374 ZM 115.1594,103.6819 c -0.1628,-0.0000 -0.2724,-0.2085 -0.2724 -0.4413c 0.0000,-0.2845 0.1354,-0.4565 0.2785 -0.4565c 0.0654,-0.0000 0.1309,0.0411 0.1750 0.1004c 0.0639,0.0852 0.0974,0.1993 0.0974 0.3424c 0.0000,0.3378 -0.1674,0.4550 -0.2785 0.4550Z"/></g><g stroke-linejoin="miter" stroke-opacity="0.6" fill-opacity="0.0" stroke="rgb(0,0,0)" stroke-width="0.4944861526259979" fill="rgb(0,0,0)" stroke-linecap="butt" stroke-miterlimit="10.0"><path d="M 115.8428,103.6637 h 0.6881 "/></g><g stroke-linejoin="miter" stroke-opacity="1.0" fill-opacity="0.6" stroke="rgb(0,0,0)" fill-rule="evenodd" stroke-width="0.0" fill="rgb(0,0,0)" stroke-linecap="butt" stroke-miterlimit="10.0"><path d="M 113.1662,105.9575 ZM 113.4994,105.1312 c -0.0654,-0.0000 -0.1613,0.0639 -0.1613 0.4184c 0.0000,0.1248 0.0228,0.3758 0.1567 0.3758c 0.0259,-0.0000 0.0989,-0.0167 0.1309 -0.1354c 0.0198,-0.0730 0.0304,-0.1643 0.0304 -0.2967c 0.0000,-0.1932 -0.0487,-0.3013 -0.0928 -0.3393c -0.0167,-0.0152 -0.0396,-0.0228 -0.0639 -0.0228ZM 113.4994,105.1312 ZM 113.4933,105.9757 c -0.1628,-0.0000 -0.2724,-0.2085 -0.2724 -0.4413c 0.0000,-0.2845 0.1354,-0.4565 0.2785 -0.4565c 0.0654,-0.0000 0.1309,0.0411 0.1750 0.1004c 0.0639,0.0852 0.0974,0.1993 0.0974 0.3424c 0.0000,0.3378 -0.1674,0.4550 -0.2785 0.4550ZM 113.8326,105.9575 ZM 113.9193,105.8951 c 0.0000,-0.0441 0.0365,-0.0806 0.0806 -0.0806c 0.0441,-0.0000 0.0806,0.0365 0.0806 0.0806c 0.0000,0.0441 -0.0365,0.0806 -0.0806 0.0806c -0.0441,-0.0000 -0.0806,-0.0365 -0.0806 -0.0806ZM 114.1658,105.9575 ZM 114.4991,105.1312 c -0.0654,-0.0000 -0.1613,0.0639 -0.1613 0.4184c 0.0000,0.1248 0.0228,0.3758 0.1567 0.3758c 0.0259,-0.0000 0.0989,-0.0167 0.1309 -0.1354c 0.0198,-0.0730 0.0304,-0.1643 0.0304 -0.2967c 0.0000,-0.1932 -0.0487,-0.3013 -0.0928 -0.3393c -0.0167,-0.0152 -0.0396,-0.0228 -0.0639 -0.0228ZM 114.4991,105.1312 ZM 114.4930,105.9757 c -0.1628,-0.0000 -0.2724,-0.2085 -0.2724 -0.4413c 0.0000,-0.2845 0.1354,-0.4565 0.2785 -0.4565c 0.0654,-0.0000 0.1309,0.0411 0.1750 0.1004c 0.0639,0.0852 0.0974,0.1993 0.0974 0.3424c 0.0000,0.3378 -0.1674,0.4550 -0.2785 0.4550ZM 114.8323,105.9575 ZM 115.1701,105.1145 c -0.0867,-0.0000 -0.1430,0.0685 -0.1430 0.1354c 0.0000,0.0441 0.0183,0.0974 0.1096 0.1567l 0.0441,0.0274 c 0.0396,-0.0289 0.1324,-0.0989 0.1324 -0.1765c 0.0000,-0.0669 -0.0487,-0.1430 -0.1430 -0.1430ZM 115.1701,105.1145 ZM 115.4029,105.2590 c 0.0000,0.0928 -0.1050,0.1659 -0.1689 0.2085l 0.0883,0.0578 c 0.0746,0.0487 0.1126,0.1156 0.1126 0.1993c 0.0000,0.1096 -0.0898,0.2511 -0.2785 0.2511c -0.1522,-0.0000 -0.2571,-0.0806 -0.2571 -0.2282c 0.0000,-0.0563 0.0243,-0.1217 0.0837 -0.1735c 0.0365,-0.0320 0.0685,-0.0593 0.1050 -0.0867l -0.0259,-0.0152 c -0.0883,-0.0548 -0.1324,-0.1141 -0.1324 -0.1948c 0.0000,-0.1111 0.1004,-0.1993 0.2480 -0.1993c 0.1415,-0.0000 0.2252,0.0776 0.2252 0.1811ZM 115.4029,105.2590 ZM 115.1594,105.9331 c 0.0654,-0.0000 0.1795,-0.0350 0.1795 -0.1795c 0.0000,-0.0685 -0.0426,-0.1369 -0.1324 -0.1917l -0.0669,-0.0411 c -0.1232,0.0822 -0.1506,0.1841 -0.1506 0.2267c 0.0000,0.1293 0.1050,0.1856 0.1704 0.1856Z"/></g><g stroke-linejoin="miter" stroke-opacity="0.6" fill-opacity="0.0" stroke="rgb(0,0,0)" stroke-width="0.4944861526259979" fill="rgb(0,0,0)" stroke-linecap="butt" stroke-miterlimit="10.0"><path d="M 115.8428,105.9575 h 0.6881 "/></g><g stroke-linejoin="miter" stroke-opacity="1.0" fill-opacity="0.6" stroke="rgb(0,0,0)" fill-rule="evenodd" stroke-width="0.0" fill="rgb(0,0,0)" stroke-linecap="butt" stroke-miterlimit="10.0"><path d="M 113.1662,108.2513 ZM 113.4994,107.4250 c -0.0654,-0.0000 -0.1613,0.0639 -0.1613 0.4184c 0.0000,0.1248 0.0228,0.3758 0.1567 0.3758c 0.0259,-0.0000 0.0989,-0.0167 0.1309 -0.1354c 0.0198,-0.0730 0.0304,-0.1643 0.0304 -0.2967c 0.0000,-0.1932 -0.0487,-0.3013 -0.0928 -0.3393c -0.0167,-0.0152 -0.0396,-0.0228 -0.0639 -0.0228ZM 113.4994,107.4250 ZM 113.4933,108.2695 c -0.1628,-0.0000 -0.2724,-0.2085 -0.2724 -0.4413c 0.0000,-0.2845 0.1354,-0.4565 0.2785 -0.4565c 0.0654,-0.0000 0.1309,0.0411 0.1750 0.1004c 0.0639,0.0852 0.0974,0.1993 0.0974 0.3424c 0.0000,0.3378 -0.1674,0.4550 -0.2785 0.4550ZM 113.8326,108.2513 ZM 113.9193,108.1889 c 0.0000,-0.0441 0.0365,-0.0806 0.0806 -0.0806c 0.0441,-0.0000 0.0806,0.0365 0.0806 0.0806c 0.0000,0.0441 -0.0365,0.0806 -0.0806 0.0806c -0.0441,-0.0000 -0.0806,-0.0365 -0.0806 -0.0806ZM 114.1658,108.2513 ZM 114.4991,107.4250 c -0.0654,-0.0000 -0.1613,0.0639 -0.1613 0.4184c 0.0000,0.1248 0.0228,0.3758 0.1567 0.3758c 0.0259,-0.0000 0.0989,-0.0167 0.1309 -0.1354c 0.0198,-0.0730 0.0304,-0.1643 0.0304 -0.2967c 0.0000,-0.1932 -0.0487,-0.3013 -0.0928 -0.3393c -0.0167,-0.0152 -0.0396,-0.0228 -0.0639 -0.0228ZM 114.4991,107.4250 ZM 114.4930,108.2695 c -0.1628,-0.0000 -0.2724,-0.2085 -0.2724 -0.4413c 0.0000,-0.2845 0.1354,-0.4565 0.2785 -0.4565c 0.0654,-0.0000 0.1309,0.0411 0.1750 0.1004c 0.0639,0.0852 0.0974,0.1993 0.0974 0.3424c 0.0000,0.3378 -0.1674,0.4550 -0.2785 0.4550ZM 114.8323,108.2513 ZM 115.0088,107.8526 c -0.0015,0.0152 -0.0015,0.0380 -0.0015 0.0533c 0.0000,0.2556 0.1141,0.3195 0.1902 0.3195c 0.0700,-0.0000 0.1446,-0.0654 0.1446 -0.2237c 0.0000,-0.0715 -0.0365,-0.2176 -0.1826 -0.2176c -0.0320,-0.0000 -0.0898,0.0030 -0.1506 0.0685ZM 115.0088,107.8526 ZM 115.4075,107.4113 c -0.0989,0.0091 -0.1841,0.0350 -0.2571 0.1065c -0.0700,0.0685 -0.1202,0.1704 -0.1369 0.2921c 0.0350,-0.0426 0.1187,-0.0746 0.1765 -0.0746c 0.2252,-0.0000 0.2541,0.1856 0.2541 0.2556c 0.0000,0.1035 -0.0517,0.2785 -0.2617 0.2785c -0.1111,-0.0000 -0.2800,-0.0654 -0.2800 -0.3682c 0.0000,-0.1400 0.0472,-0.2769 0.1522 -0.3819c 0.0974,-0.0989 0.1993,-0.1400 0.3484 -0.1476Z"/></g><g stroke-linejoin="miter" stroke-opacity="0.6" fill-opacity="0.0" stroke="rgb(0,0,0)" stroke-width="0.4944861526259979" fill="rgb(0,0,0)" stroke-linecap="butt" stroke-miterlimit="10.0"><path d="M 115.8428,108.2513 h 0.6881 "/></g><g stroke-linejoin="miter" stroke-opacity="1.0" fill-opacity="0.6" stroke="rgb(0,0,0)" fill-rule="evenodd" stroke-width="0.0" fill="rgb(0,0,0)" stroke-linecap="butt" stroke-miterlimit="10.0"><path d="M 113.1662,110.5450 ZM 113.4994,109.7188 c -0.0654,-0.0000 -0.1613,0.0639 -0.1613 0.4184c 0.0000,0.1248 0.0228,0.3758 0.1567 0.3758c 0.0259,-0.0000 0.0989,-0.0167 0.1309 -0.1354c 0.0198,-0.0730 0.0304,-0.1643 0.0304 -0.2967c 0.0000,-0.1932 -0.0487,-0.3013 -0.0928 -0.3393c -0.0167,-0.0152 -0.0396,-0.0228 -0.0639 -0.0228ZM 113.4994,109.7188 ZM 113.4933,110.5633 c -0.1628,-0.0000 -0.2724,-0.2085 -0.2724 -0.4413c 0.0000,-0.2845 0.1354,-0.4565 0.2785 -0.4565c 0.0654,-0.0000 0.1309,0.0411 0.1750 0.1004c 0.0639,0.0852 0.0974,0.1993 0.0974 0.3424c 0.0000,0.3378 -0.1674,0.4550 -0.2785 0.4550ZM 113.8326,110.5450 ZM 113.9193,110.4827 c 0.0000,-0.0441 0.0365,-0.0806 0.0806 -0.0806c 0.0441,-0.0000 0.0806,0.0365 0.0806 0.0806c 0.0000,0.0441 -0.0365,0.0806 -0.0806 0.0806c -0.0441,-0.0000 -0.0806,-0.0365 -0.0806 -0.0806ZM 114.1658,110.5450 ZM 114.4991,109.7188 c -0.0654,-0.0000 -0.1613,0.0639 -0.1613 0.4184c 0.0000,0.1248 0.0228,0.3758 0.1567 0.3758c 0.0259,-0.0000 0.0989,-0.0167 0.1309 -0.1354c 0.0198,-0.0730 0.0304,-0.1643 0.0304 -0.2967c 0.0000,-0.1932 -0.0487,-0.3013 -0.0928 -0.3393c -0.0167,-0.0152 -0.0396,-0.0228 -0.0639 -0.0228ZM 114.4991,109.7188 ZM 114.4930,110.5633 c -0.1628,-0.0000 -0.2724,-0.2085 -0.2724 -0.4413c 0.0000,-0.2845 0.1354,-0.4565 0.2785 -0.4565c 0.0654,-0.0000 0.1309,0.0411 0.1750 0.1004c 0.0639,0.0852 0.0974,0.1993 0.0974 0.3424c 0.0000,0.3378 -0.1674,0.4550 -0.2785 0.4550ZM 114.8323,110.5450 ZM 115.2249,110.0049 c 0.0000,-0.0107 0.0015,-0.0228 0.0152 -0.0304c 0.0167,-0.0122 0.0441,-0.0259 0.0669 -0.0259c 0.0198,-0.0000 0.0213,0.0167 0.0213 0.0472v 0.2450 h 0.1232 l -0.0091,0.0715 h -0.1141 v 0.1263 c 0.0000,0.0426 0.0061,0.0639 0.0502 0.0639h 0.0411 c 0.0091,-0.0000 0.0107,0.0076 0.0107 0.0107v 0.0335 c 0.0000,-0.0000 -0.0974,-0.0030 -0.1613 -0.0030c -0.0578,-0.0000 -0.1476,0.0030 -0.1476 0.0030v -0.0335 c 0.0000,-0.0030 0.0015,-0.0107 0.0107 -0.0107h 0.0411 c 0.0472,-0.0000 0.0517,-0.0198 0.0517 -0.0639v -0.1263 h -0.2982 c -0.0061,-0.0000 -0.0091,-0.0030 -0.0137 -0.0091l -0.0122,-0.0167 l -0.0183,-0.0320 c -0.0015,-0.0000 -0.0015,-0.0015 -0.0015 -0.0030c 0.0000,-0.0015 0.0015,-0.0030 0.0030 -0.0046c 0.0989,-0.1096 0.2739,-0.4489 0.3287 -0.5736c 0.0015,-0.0061 0.0046,-0.0076 0.0107 -0.0076c 0.0015,-0.0000 0.0350,0.0137 0.0533 0.0167c -0.0685,0.1841 -0.1811,0.3819 -0.2921 0.5584h 0.2404 v -0.2358 Z"/></g><g stroke-linejoin="miter" stroke-opacity="0.6" fill-opacity="0.0" stroke="rgb(0,0,0)" stroke-width="0.4944861526259979" fill="rgb(0,0,0)" stroke-linecap="butt" stroke-miterlimit="10.0"><path d="M 115.8428,110.5450 h 0.6881 "/></g><g stroke-linejoin="miter" stroke-opacity="1.0" fill-opacity="0.6" stroke="rgb(0,0,0)" fill-rule="evenodd" stroke-width="0.0" fill="rgb(0,0,0)" stroke-linecap="butt" stroke-miterlimit="10.0"><path d="M 113.1662,112.8388 ZM 113.4994,112.0126 c -0.0654,-0.0000 -0.1613,0.0639 -0.1613 0.4184c 0.0000,0.1248 0.0228,0.3758 0.1567 0.3758c 0.0259,-0.0000 0.0989,-0.0167 0.1309 -0.1354c 0.0198,-0.0730 0.0304,-0.1643 0.0304 -0.2967c 0.0000,-0.1932 -0.0487,-0.3013 -0.0928 -0.3393c -0.0167,-0.0152 -0.0396,-0.0228 -0.0639 -0.0228ZM 113.4994,112.0126 ZM 113.4933,112.8571 c -0.1628,-0.0000 -0.2724,-0.2085 -0.2724 -0.4413c 0.0000,-0.2845 0.1354,-0.4565 0.2785 -0.4565c 0.0654,-0.0000 0.1309,0.0411 0.1750 0.1004c 0.0639,0.0852 0.0974,0.1993 0.0974 0.3424c 0.0000,0.3378 -0.1674,0.4550 -0.2785 0.4550ZM 113.8326,112.8388 ZM 113.9193,112.7765 c 0.0000,-0.0441 0.0365,-0.0806 0.0806 -0.0806c 0.0441,-0.0000 0.0806,0.0365 0.0806 0.0806c 0.0000,0.0441 -0.0365,0.0806 -0.0806 0.0806c -0.0441,-0.0000 -0.0806,-0.0365 -0.0806 -0.0806ZM 114.1658,112.8388 ZM 114.4991,112.0126 c -0.0654,-0.0000 -0.1613,0.0639 -0.1613 0.4184c 0.0000,0.1248 0.0228,0.3758 0.1567 0.3758c 0.0259,-0.0000 0.0989,-0.0167 0.1309 -0.1354c 0.0198,-0.0730 0.0304,-0.1643 0.0304 -0.2967c 0.0000,-0.1932 -0.0487,-0.3013 -0.0928 -0.3393c -0.0167,-0.0152 -0.0396,-0.0228 -0.0639 -0.0228ZM 114.4991,112.0126 ZM 114.4930,112.8571 c -0.1628,-0.0000 -0.2724,-0.2085 -0.2724 -0.4413c 0.0000,-0.2845 0.1354,-0.4565 0.2785 -0.4565c 0.0654,-0.0000 0.1309,0.0411 0.1750 0.1004c 0.0639,0.0852 0.0974,0.1993 0.0974 0.3424c 0.0000,0.3378 -0.1674,0.4550 -0.2785 0.4550ZM 114.8323,112.8388 ZM 114.9205,112.1648 c 0.0000,-0.0867 0.0837,-0.2054 0.2435 -0.2054c 0.1172,-0.0000 0.2541,0.0441 0.2541 0.2191c 0.0000,0.1156 -0.0593,0.1735 -0.1415 0.2526l -0.1446,0.1400 c -0.0076,0.0076 -0.1096,0.1080 -0.1096 0.1795h 0.2587 c 0.0517,-0.0000 0.0791,-0.0259 0.1004 -0.1096l 0.0380,0.0061 l -0.0304,0.1917 h -0.4702 c 0.0000,-0.0852 0.0137,-0.1506 0.1552 -0.2952l 0.1065,-0.1050 c 0.0852,-0.0867 0.1202,-0.1613 0.1202 -0.2541c 0.0000,-0.1385 -0.0943,-0.1780 -0.1461 -0.1780c -0.1050,-0.0000 -0.1339,0.0548 -0.1339 0.0913c 0.0000,0.0122 0.0030,0.0243 0.0061 0.0350c 0.0030,0.0107 0.0061,0.0213 0.0061 0.0335c 0.0000,0.0396 -0.0304,0.0548 -0.0548 0.0548c -0.0335,-0.0000 -0.0578,-0.0259 -0.0578 -0.0563Z"/></g><g stroke-linejoin="miter" stroke-opacity="0.6" fill-opacity="0.0" stroke="rgb(0,0,0)" stroke-width="0.4944861526259979" fill="rgb(0,0,0)" stroke-linecap="butt" stroke-miterlimit="10.0"><path d="M 115.8428,112.8388 h 0.6881 "/></g><g stroke-linejoin="miter" stroke-opacity="1.0" fill-opacity="0.6" stroke="rgb(0,0,0)" fill-rule="evenodd" stroke-width="0.0" fill="rgb(0,0,0)" stroke-linecap="butt" stroke-miterlimit="10.0"><path d="M 113.1662,115.1326 ZM 113.4994,114.3064 c -0.0654,-0.0000 -0.1613,0.0639 -0.1613 0.4184c 0.0000,0.1248 0.0228,0.3758 0.1567 0.3758c 0.0259,-0.0000 0.0989,-0.0167 0.1309 -0.1354c 0.0198,-0.0730 0.0304,-0.1643 0.0304 -0.2967c 0.0000,-0.1932 -0.0487,-0.3013 -0.0928 -0.3393c -0.0167,-0.0152 -0.0396,-0.0228 -0.0639 -0.0228ZM 113.4994,114.3064 ZM 113.4933,115.1509 c -0.1628,-0.0000 -0.2724,-0.2085 -0.2724 -0.4413c 0.0000,-0.2845 0.1354,-0.4565 0.2785 -0.4565c 0.0654,-0.0000 0.1309,0.0411 0.1750 0.1004c 0.0639,0.0852 0.0974,0.1993 0.0974 0.3424c 0.0000,0.3378 -0.1674,0.4550 -0.2785 0.4550ZM 113.8326,115.1326 ZM 113.9193,115.0703 c 0.0000,-0.0441 0.0365,-0.0806 0.0806 -0.0806c 0.0441,-0.0000 0.0806,0.0365 0.0806 0.0806c 0.0000,0.0441 -0.0365,0.0806 -0.0806 0.0806c -0.0441,-0.0000 -0.0806,-0.0365 -0.0806 -0.0806ZM 114.1658,115.1326 ZM 114.4991,114.3064 c -0.0654,-0.0000 -0.1613,0.0639 -0.1613 0.4184c 0.0000,0.1248 0.0228,0.3758 0.1567 0.3758c 0.0259,-0.0000 0.0989,-0.0167 0.1309 -0.1354c 0.0198,-0.0730 0.0304,-0.1643 0.0304 -0.2967c 0.0000,-0.1932 -0.0487,-0.3013 -0.0928 -0.3393c -0.0167,-0.0152 -0.0396,-0.0228 -0.0639 -0.0228ZM 114.4991,114.3064 ZM 114.4930,115.1509 c -0.1628,-0.0000 -0.2724,-0.2085 -0.2724 -0.4413c 0.0000,-0.2845 0.1354,-0.4565 0.2785 -0.4565c 0.0654,-0.0000 0.1309,0.0411 0.1750 0.1004c 0.0639,0.0852 0.0974,0.1993 0.0974 0.3424c 0.0000,0.3378 -0.1674,0.4550 -0.2785 0.4550ZM 114.8323,115.1326 ZM 115.1655,114.3064 c -0.0654,-0.0000 -0.1613,0.0639 -0.1613 0.4184c 0.0000,0.1248 0.0228,0.3758 0.1567 0.3758c 0.0259,-0.0000 0.0989,-0.0167 0.1309 -0.1354c 0.0198,-0.0730 0.0304,-0.1643 0.0304 -0.2967c 0.0000,-0.1932 -0.0487,-0.3013 -0.0928 -0.3393c -0.0167,-0.0152 -0.0396,-0.0228 -0.0639 -0.0228ZM 115.1655,114.3064 ZM 115.1594,115.1509 c -0.1628,-0.0000 -0.2724,-0.2085 -0.2724 -0.4413c 0.0000,-0.2845 0.1354,-0.4565 0.2785 -0.4565c 0.0654,-0.0000 0.1309,0.0411 0.1750 0.1004c 0.0639,0.0852 0.0974,0.1993 0.0974 0.3424c 0.0000,0.3378 -0.1674,0.4550 -0.2785 0.4550Z"/></g><g stroke-linejoin="miter" stroke-opacity="0.6" fill-opacity="0.0" stroke="rgb(0,0,0)" stroke-width="0.4944861526259979" fill="rgb(0,0,0)" stroke-linecap="butt" stroke-miterlimit="10.0"><path d="M 115.8428,115.1326 h 0.6881 "/></g><g stroke-linejoin="miter" stroke-opacity="0.0" fill-opacity="0.1" stroke="rgb(0,0,0)" stroke-width="0.0" fill="rgb(0,0,0)" stroke-linecap="butt" stroke-miterlimit="10.0"><path d="M 186.5956,116.0661 l -0.0000,-0.4588 h -68.8139 l -0.0000,0.4588 Z"/></g><g stroke-linejoin="miter" stroke-opacity="1.0" fill-opacity="0.6" stroke="rgb(0,0,0)" fill-rule="evenodd" stroke-width="0.0" fill="rgb(0,0,0)" stroke-linecap="butt" stroke-miterlimit="10.0"><path d="M 185.9292,117.9999 ZM 186.2152,117.2741 c -0.0289,-0.0000 -0.0959,0.0274 -0.1293 0.0426l -0.0183,-0.0472 c 0.1339,-0.0624 0.1856,-0.0943 0.2617 -0.1491h 0.0289 v 0.7654 c 0.0000,0.0548 0.0076,0.0700 0.0578 0.0700h 0.0791 c 0.0046,-0.0000 0.0122,0.0030 0.0122 0.0122v 0.0335 l -0.2085,-0.0030 l -0.2115,0.0030 v -0.0335 c 0.0015,-0.0046 0.0030,-0.0122 0.0122 -0.0122h 0.0913 c 0.0578,-0.0000 0.0578,-0.0259 0.0578 -0.0700v -0.5234 c 0.0000,-0.0517 0.0000,-0.0883 -0.0335 -0.0883ZM 186.5956,117.9999 ZM 186.6839,117.3258 c 0.0000,-0.0867 0.0837,-0.2054 0.2435 -0.2054c 0.1172,-0.0000 0.2541,0.0441 0.2541 0.2191c 0.0000,0.1156 -0.0593,0.1735 -0.1415 0.2526l -0.1446,0.1400 c -0.0076,0.0076 -0.1096,0.1080 -0.1096 0.1795h 0.2587 c 0.0517,-0.0000 0.0791,-0.0259 0.1004 -0.1096l 0.0380,0.0061 l -0.0304,0.1917 h -0.4702 c 0.0000,-0.0852 0.0137,-0.1506 0.1552 -0.2952l 0.1065,-0.1050 c 0.0852,-0.0867 0.1202,-0.1613 0.1202 -0.2541c 0.0000,-0.1385 -0.0943,-0.1780 -0.1461 -0.1780c -0.1050,-0.0000 -0.1339,0.0548 -0.1339 0.0913c 0.0000,0.0122 0.0030,0.0243 0.0061 0.0350c 0.0030,0.0107 0.0061,0.0213 0.0061 0.0335c 0.0000,0.0396 -0.0304,0.0548 -0.0548 0.0548c -0.0335,-0.0000 -0.0578,-0.0259 -0.0578 -0.0563Z"/></g><g stroke-linejoin="miter" stroke-opacity="0.6" fill-opacity="0.0" stroke="rgb(0,0,0)" stroke-width="0.4944861526259979" fill="rgb(0,0,0)" stroke-linecap="butt" stroke-miterlimit="10.0"><path d="M 186.5956,115.6074 v 0.6881 "/></g><g stroke-linejoin="miter" stroke-opacity="1.0" fill-opacity="0.6" stroke="rgb(0,0,0)" fill-rule="evenodd" stroke-width="0.0" fill="rgb(0,0,0)" stroke-linecap="butt" stroke-miterlimit="10.0"><path d="M 174.4602,117.9999 ZM 174.7462,117.2741 c -0.0289,-0.0000 -0.0959,0.0274 -0.1293 0.0426l -0.0183,-0.0472 c 0.1339,-0.0624 0.1856,-0.0943 0.2617 -0.1491h 0.0289 v 0.7654 c 0.0000,0.0548 0.0076,0.0700 0.0578 0.0700h 0.0791 c 0.0046,-0.0000 0.0122,0.0030 0.0122 0.0122v 0.0335 l -0.2085,-0.0030 l -0.2115,0.0030 v -0.0335 c 0.0015,-0.0046 0.0030,-0.0122 0.0122 -0.0122h 0.0913 c 0.0578,-0.0000 0.0578,-0.0259 0.0578 -0.0700v -0.5234 c 0.0000,-0.0517 0.0000,-0.0883 -0.0335 -0.0883ZM 175.1266,117.9999 ZM 175.4599,117.1737 c -0.0654,-0.0000 -0.1613,0.0639 -0.1613 0.4184c 0.0000,0.1248 0.0228,0.3758 0.1567 0.3758c 0.0259,-0.0000 0.0989,-0.0167 0.1309 -0.1354c 0.0198,-0.0730 0.0304,-0.1643 0.0304 -0.2967c 0.0000,-0.1932 -0.0487,-0.3013 -0.0928 -0.3393c -0.0167,-0.0152 -0.0396,-0.0228 -0.0639 -0.0228ZM 175.4599,117.1737 ZM 175.4538,118.0181 c -0.1628,-0.0000 -0.2724,-0.2085 -0.2724 -0.4413c 0.0000,-0.2845 0.1354,-0.4565 0.2785 -0.4565c 0.0654,-0.0000 0.1309,0.0411 0.1750 0.1004c 0.0639,0.0852 0.0974,0.1993 0.0974 0.3424c 0.0000,0.3378 -0.1674,0.4550 -0.2785 0.4550Z"/></g><g stroke-linejoin="miter" stroke-opacity="0.6" fill-opacity="0.0" stroke="rgb(0,0,0)" stroke-width="0.4944861526259979" fill="rgb(0,0,0)" stroke-linecap="butt" stroke-miterlimit="10.0"><path d="M 175.1266,115.6074 v 0.6881 "/></g><g stroke-linejoin="miter" stroke-opacity="1.0" fill-opacity="0.6" stroke="rgb(0,0,0)" fill-rule="evenodd" stroke-width="0.0" fill="rgb(0,0,0)" stroke-linecap="butt" stroke-miterlimit="10.0"><path d="M 163.3244,117.9999 ZM 163.6622,117.1569 c -0.0867,-0.0000 -0.1430,0.0685 -0.1430 0.1354c 0.0000,0.0441 0.0183,0.0974 0.1096 0.1567l 0.0441,0.0274 c 0.0396,-0.0289 0.1324,-0.0989 0.1324 -0.1765c 0.0000,-0.0669 -0.0487,-0.1430 -0.1430 -0.1430ZM 163.6622,117.1569 ZM 163.8950,117.3015 c 0.0000,0.0928 -0.1050,0.1659 -0.1689 0.2085l 0.0883,0.0578 c 0.0746,0.0487 0.1126,0.1156 0.1126 0.1993c 0.0000,0.1096 -0.0898,0.2511 -0.2785 0.2511c -0.1522,-0.0000 -0.2571,-0.0806 -0.2571 -0.2282c 0.0000,-0.0563 0.0243,-0.1217 0.0837 -0.1735c 0.0365,-0.0320 0.0685,-0.0593 0.1050 -0.0867l -0.0259,-0.0152 c -0.0883,-0.0548 -0.1324,-0.1141 -0.1324 -0.1948c 0.0000,-0.1111 0.1004,-0.1993 0.2480 -0.1993c 0.1415,-0.0000 0.2252,0.0776 0.2252 0.1811ZM 163.8950,117.3015 ZM 163.6516,117.9755 c 0.0654,-0.0000 0.1795,-0.0350 0.1795 -0.1795c 0.0000,-0.0685 -0.0426,-0.1369 -0.1324 -0.1917l -0.0669,-0.0411 c -0.1232,0.0822 -0.1506,0.1841 -0.1506 0.2267c 0.0000,0.1293 0.1050,0.1856 0.1704 0.1856Z"/></g><g stroke-linejoin="miter" stroke-opacity="0.6" fill-opacity="0.0" stroke="rgb(0,0,0)" stroke-width="0.4944861526259979" fill="rgb(0,0,0)" stroke-linecap="butt" stroke-miterlimit="10.0"><path d="M 163.6577,115.6074 v 0.6881 "/></g><g stroke-linejoin="miter" stroke-opacity="1.0" fill-opacity="0.6" stroke="rgb(0,0,0)" fill-rule="evenodd" stroke-width="0.0" fill="rgb(0,0,0)" stroke-linecap="butt" stroke-miterlimit="10.0"><path d="M 151.8554,117.9999 ZM 152.0319,117.6012 c -0.0015,0.0152 -0.0015,0.0380 -0.0015 0.0533c 0.0000,0.2556 0.1141,0.3195 0.1902 0.3195c 0.0700,-0.0000 0.1446,-0.0654 0.1446 -0.2237c 0.0000,-0.0715 -0.0365,-0.2176 -0.1826 -0.2176c -0.0320,-0.0000 -0.0898,0.0030 -0.1506 0.0685ZM 152.0319,117.6012 ZM 152.4306,117.1600 c -0.0989,0.0091 -0.1841,0.0350 -0.2571 0.1065c -0.0700,0.0685 -0.1202,0.1704 -0.1369 0.2921c 0.0350,-0.0426 0.1187,-0.0746 0.1765 -0.0746c 0.2252,-0.0000 0.2541,0.1856 0.2541 0.2556c 0.0000,0.1035 -0.0517,0.2785 -0.2617 0.2785c -0.1111,-0.0000 -0.2800,-0.0654 -0.2800 -0.3682c 0.0000,-0.1400 0.0472,-0.2769 0.1522 -0.3819c 0.0974,-0.0989 0.1993,-0.1400 0.3484 -0.1476Z"/></g><g stroke-linejoin="miter" stroke-opacity="0.6" fill-opacity="0.0" stroke="rgb(0,0,0)" stroke-width="0.4944861526259979" fill="rgb(0,0,0)" stroke-linecap="butt" stroke-miterlimit="10.0"><path d="M 152.1887,115.6074 v 0.6881 "/></g><g stroke-linejoin="miter" stroke-opacity="1.0" fill-opacity="0.6" stroke="rgb(0,0,0)" fill-rule="evenodd" stroke-width="0.0" fill="rgb(0,0,0)" stroke-linecap="butt" stroke-miterlimit="10.0"><path d="M 140.3865,117.9999 ZM 140.7790,117.4597 c 0.0000,-0.0107 0.0015,-0.0228 0.0152 -0.0304c 0.0167,-0.0122 0.0441,-0.0259 0.0669 -0.0259c 0.0198,-0.0000 0.0213,0.0167 0.0213 0.0472v 0.2450 h 0.1232 l -0.0091,0.0715 h -0.1141 v 0.1263 c 0.0000,0.0426 0.0061,0.0639 0.0502 0.0639h 0.0411 c 0.0091,-0.0000 0.0107,0.0076 0.0107 0.0107v 0.0335 c 0.0000,-0.0000 -0.0974,-0.0030 -0.1613 -0.0030c -0.0578,-0.0000 -0.1476,0.0030 -0.1476 0.0030v -0.0335 c 0.0000,-0.0030 0.0015,-0.0107 0.0107 -0.0107h 0.0411 c 0.0472,-0.0000 0.0517,-0.0198 0.0517 -0.0639v -0.1263 h -0.2982 c -0.0061,-0.0000 -0.0091,-0.0030 -0.0137 -0.0091l -0.0122,-0.0167 l -0.0183,-0.0320 c -0.0015,-0.0000 -0.0015,-0.0015 -0.0015 -0.0030c 0.0000,-0.0015 0.0015,-0.0030 0.0030 -0.0046c 0.0989,-0.1096 0.2739,-0.4489 0.3287 -0.5736c 0.0015,-0.0061 0.0046,-0.0076 0.0107 -0.0076c 0.0015,-0.0000 0.0350,0.0137 0.0533 0.0167c -0.0685,0.1841 -0.1811,0.3819 -0.2921 0.5584h 0.2404 v -0.2358 Z"/></g><g stroke-linejoin="miter" stroke-opacity="0.6" fill-opacity="0.0" stroke="rgb(0,0,0)" stroke-width="0.4944861526259979" fill="rgb(0,0,0)" stroke-linecap="butt" stroke-miterlimit="10.0"><path d="M 140.7197,115.6074 v 0.6881 "/></g><g stroke-linejoin="miter" stroke-opacity="1.0" fill-opacity="0.6" stroke="rgb(0,0,0)" fill-rule="evenodd" stroke-width="0.0" fill="rgb(0,0,0)" stroke-linecap="butt" stroke-miterlimit="10.0"><path d="M 128.9175,117.9999 ZM 129.0057,117.3258 c 0.0000,-0.0867 0.0837,-0.2054 0.2435 -0.2054c 0.1172,-0.0000 0.2541,0.0441 0.2541 0.2191c 0.0000,0.1156 -0.0593,0.1735 -0.1415 0.2526l -0.1446,0.1400 c -0.0076,0.0076 -0.1096,0.1080 -0.1096 0.1795h 0.2587 c 0.0517,-0.0000 0.0791,-0.0259 0.1004 -0.1096l 0.0380,0.0061 l -0.0304,0.1917 h -0.4702 c 0.0000,-0.0852 0.0137,-0.1506 0.1552 -0.2952l 0.1065,-0.1050 c 0.0852,-0.0867 0.1202,-0.1613 0.1202 -0.2541c 0.0000,-0.1385 -0.0943,-0.1780 -0.1461 -0.1780c -0.1050,-0.0000 -0.1339,0.0548 -0.1339 0.0913c 0.0000,0.0122 0.0030,0.0243 0.0061 0.0350c 0.0030,0.0107 0.0061,0.0213 0.0061 0.0335c 0.0000,0.0396 -0.0304,0.0548 -0.0548 0.0548c -0.0335,-0.0000 -0.0578,-0.0259 -0.0578 -0.0563Z"/></g><g stroke-linejoin="miter" stroke-opacity="0.6" fill-opacity="0.0" stroke="rgb(0,0,0)" stroke-width="0.4944861526259979" fill="rgb(0,0,0)" stroke-linecap="butt" stroke-miterlimit="10.0"><path d="M 129.2507,115.6074 v 0.6881 "/></g><g stroke-linejoin="miter" stroke-opacity="1.0" fill-opacity="0.6" stroke="rgb(0,0,0)" fill-rule="evenodd" stroke-width="0.0" fill="rgb(0,0,0)" stroke-linecap="butt" stroke-miterlimit="10.0"><path d="M 117.4485,117.9999 ZM 117.7817,117.1737 c -0.0654,-0.0000 -0.1613,0.0639 -0.1613 0.4184c 0.0000,0.1248 0.0228,0.3758 0.1567 0.3758c 0.0259,-0.0000 0.0989,-0.0167 0.1309 -0.1354c 0.0198,-0.0730 0.0304,-0.1643 0.0304 -0.2967c 0.0000,-0.1932 -0.0487,-0.3013 -0.0928 -0.3393c -0.0167,-0.0152 -0.0396,-0.0228 -0.0639 -0.0228ZM 117.7817,117.1737 ZM 117.7756,118.0181 c -0.1628,-0.0000 -0.2724,-0.2085 -0.2724 -0.4413c 0.0000,-0.2845 0.1354,-0.4565 0.2785 -0.4565c 0.0654,-0.0000 0.1309,0.0411 0.1750 0.1004c 0.0639,0.0852 0.0974,0.1993 0.0974 0.3424c 0.0000,0.3378 -0.1674,0.4550 -0.2785 0.4550Z"/></g><g stroke-linejoin="miter" stroke-opacity="0.6" fill-opacity="0.0" stroke="rgb(0,0,0)" stroke-width="0.4944861526259979" fill="rgb(0,0,0)" stroke-linecap="butt" stroke-miterlimit="10.0"><path d="M 117.7817,115.6074 v 0.6881 "/></g><g stroke-linejoin="miter" stroke-opacity="0.0" fill-opacity="0.0" stroke="rgb(0,0,0)" stroke-width="0.0" fill="rgb(0,0,0)" stroke-linecap="butt" stroke-miterlimit="10.0"><path d="M 186.7622,114.6899 l -0.0000,-22.9380 h -68.8139 l -0.0000,22.9380 Z"/></g><g stroke-linejoin="miter" stroke-opacity="0.5" fill-opacity="0.0" stroke="rgb(93,165,218)" stroke-width="0.19779446105039916" fill="rgb(0,0,0)" stroke-linecap="butt" stroke-miterlimit="10.0"><path d="M 186.7622,114.6899 v -22.9380 "/></g><g stroke-linejoin="miter" stroke-opacity="0.5" fill-opacity="0.0" stroke="rgb(93,165,218)" stroke-width="0.19779446105039916" fill="rgb(0,0,0)" stroke-linecap="butt" stroke-miterlimit="10.0"><path d="M 181.0277,114.6899 v -22.9380 "/></g><g stroke-linejoin="miter" stroke-opacity="0.5" fill-opacity="0.0" stroke="rgb(93,165,218)" stroke-width="0.19779446105039916" fill="rgb(0,0,0)" stroke-linecap="butt" stroke-miterlimit="10.0"><path d="M 175.2933,114.6899 v -22.9380 "/></g><g stroke-linejoin="miter" stroke-opacity="0.5" fill-opacity="0.0" stroke="rgb(93,165,218)" stroke-width="0.19779446105039916" fill="rgb(0,0,0)" stroke-linecap="butt" stroke-miterlimit="10.0"><path d="M 169.5588,114.6899 v -22.9380 "/></g><g stroke-linejoin="miter" stroke-opacity="0.5" fill-opacity="0.0" stroke="rgb(93,165,218)" stroke-width="0.19779446105039916" fill="rgb(0,0,0)" stroke-linecap="butt" stroke-miterlimit="10.0"><path d="M 163.8243,114.6899 v -22.9380 "/></g><g stroke-linejoin="miter" stroke-opacity="0.5" fill-opacity="0.0" stroke="rgb(93,165,218)" stroke-width="0.19779446105039916" fill="rgb(0,0,0)" stroke-linecap="butt" stroke-miterlimit="10.0"><path d="M 158.0898,114.6899 v -22.9380 "/></g><g stroke-linejoin="miter" stroke-opacity="0.5" fill-opacity="0.0" stroke="rgb(93,165,218)" stroke-width="0.19779446105039916" fill="rgb(0,0,0)" stroke-linecap="butt" stroke-miterlimit="10.0"><path d="M 152.3553,114.6899 v -22.9380 "/></g><g stroke-linejoin="miter" stroke-opacity="0.5" fill-opacity="0.0" stroke="rgb(93,165,218)" stroke-width="0.19779446105039916" fill="rgb(0,0,0)" stroke-linecap="butt" stroke-miterlimit="10.0"><path d="M 146.6208,114.6899 v -22.9380 "/></g><g stroke-linejoin="miter" stroke-opacity="0.5" fill-opacity="0.0" stroke="rgb(93,165,218)" stroke-width="0.19779446105039916" fill="rgb(0,0,0)" stroke-linecap="butt" stroke-miterlimit="10.0"><path d="M 140.8863,114.6899 v -22.9380 "/></g><g stroke-linejoin="miter" stroke-opacity="0.5" fill-opacity="0.0" stroke="rgb(93,165,218)" stroke-width="0.19779446105039916" fill="rgb(0,0,0)" stroke-linecap="butt" stroke-miterlimit="10.0"><path d="M 135.1518,114.6899 v -22.9380 "/></g><g stroke-linejoin="miter" stroke-opacity="0.5" fill-opacity="0.0" stroke="rgb(93,165,218)" stroke-width="0.19779446105039916" fill="rgb(0,0,0)" stroke-linecap="butt" stroke-miterlimit="10.0"><path d="M 129.4173,114.6899 v -22.9380 "/></g><g stroke-linejoin="miter" stroke-opacity="0.5" fill-opacity="0.0" stroke="rgb(93,165,218)" stroke-width="0.19779446105039916" fill="rgb(0,0,0)" stroke-linecap="butt" stroke-miterlimit="10.0"><path d="M 123.6828,114.6899 v -22.9380 "/></g><g stroke-linejoin="miter" stroke-opacity="0.5" fill-opacity="0.0" stroke="rgb(93,165,218)" stroke-width="0.19779446105039916" fill="rgb(0,0,0)" stroke-linecap="butt" stroke-miterlimit="10.0"><path d="M 117.9483,114.6899 v -22.9380 "/></g><g stroke-linejoin="miter" stroke-opacity="0.5" fill-opacity="0.0" stroke="rgb(93,165,218)" stroke-width="0.19779446105039916" fill="rgb(0,0,0)" stroke-linecap="butt" stroke-miterlimit="10.0"><path d="M 117.9483,91.7519 h 68.8139 "/></g><g stroke-linejoin="miter" stroke-opacity="0.5" fill-opacity="0.0" stroke="rgb(93,165,218)" stroke-width="0.19779446105039916" fill="rgb(0,0,0)" stroke-linecap="butt" stroke-miterlimit="10.0"><path d="M 117.9483,94.0457 h 68.8139 "/></g><g stroke-linejoin="miter" stroke-opacity="0.5" fill-opacity="0.0" stroke="rgb(93,165,218)" stroke-width="0.19779446105039916" fill="rgb(0,0,0)" stroke-linecap="butt" stroke-miterlimit="10.0"><path d="M 117.9483,96.3395 h 68.8139 "/></g><g stroke-linejoin="miter" stroke-opacity="0.5" fill-opacity="0.0" stroke="rgb(93,165,218)" stroke-width="0.19779446105039916" fill="rgb(0,0,0)" stroke-linecap="butt" stroke-miterlimit="10.0"><path d="M 117.9483,98.6333 h 68.8139 "/></g><g stroke-linejoin="miter" stroke-opacity="0.5" fill-opacity="0.0" stroke="rgb(93,165,218)" stroke-width="0.19779446105039916" fill="rgb(0,0,0)" stroke-linecap="butt" stroke-miterlimit="10.0"><path d="M 117.9483,100.9271 h 68.8139 "/></g><g stroke-linejoin="miter" stroke-opacity="0.5" fill-opacity="0.0" stroke="rgb(93,165,218)" stroke-width="0.19779446105039916" fill="rgb(0,0,0)" stroke-linecap="butt" stroke-miterlimit="10.0"><path d="M 117.9483,103.2209 h 68.8139 "/></g><g stroke-linejoin="miter" stroke-opacity="0.5" fill-opacity="0.0" stroke="rgb(93,165,218)" stroke-width="0.19779446105039916" fill="rgb(0,0,0)" stroke-linecap="butt" stroke-miterlimit="10.0"><path d="M 117.9483,105.5147 h 68.8139 "/></g><g stroke-linejoin="miter" stroke-opacity="0.5" fill-opacity="0.0" stroke="rgb(93,165,218)" stroke-width="0.19779446105039916" fill="rgb(0,0,0)" stroke-linecap="butt" stroke-miterlimit="10.0"><path d="M 117.9483,107.8085 h 68.8139 "/></g><g stroke-linejoin="miter" stroke-opacity="0.5" fill-opacity="0.0" stroke="rgb(93,165,218)" stroke-width="0.19779446105039916" fill="rgb(0,0,0)" stroke-linecap="butt" stroke-miterlimit="10.0"><path d="M 117.9483,110.1023 h 68.8139 "/></g><g stroke-linejoin="miter" stroke-opacity="0.5" fill-opacity="0.0" stroke="rgb(93,165,218)" stroke-width="0.19779446105039916" fill="rgb(0,0,0)" stroke-linecap="butt" stroke-miterlimit="10.0"><path d="M 117.9483,112.3961 h 68.8139 "/></g><g stroke-linejoin="miter" stroke-opacity="0.5" fill-opacity="0.0" stroke="rgb(93,165,218)" stroke-width="0.19779446105039916" fill="rgb(0,0,0)" stroke-linecap="butt" stroke-miterlimit="10.0"><path d="M 117.9483,114.6899 h 68.8139 "/></g><g stroke-linejoin="miter" stroke-opacity="0.5" fill-opacity="0.0" stroke="rgb(93,165,218)" stroke-width="1.9779446105039915" fill="rgb(0,0,0)" stroke-linecap="butt" stroke-miterlimit="10.0"><path d="M 175.2933,114.6899 v -114.6899 "/></g><g stroke-linejoin="miter" stroke-opacity="0.5" fill-opacity="0.0" stroke="rgb(93,165,218)" stroke-width="1.9779446105039915" fill="rgb(0,0,0)" stroke-linecap="butt" stroke-miterlimit="10.0"><path d="M 169.5588,114.6899 v -103.2209 "/></g><g stroke-linejoin="miter" stroke-opacity="0.5" fill-opacity="0.0" stroke="rgb(93,165,218)" stroke-width="1.9779446105039915" fill="rgb(0,0,0)" stroke-linecap="butt" stroke-miterlimit="10.0"><path d="M 163.8243,114.6899 v -91.7519 "/></g><g stroke-linejoin="miter" stroke-opacity="0.5" fill-opacity="0.0" stroke="rgb(93,165,218)" stroke-width="1.9779446105039915" fill="rgb(0,0,0)" stroke-linecap="butt" stroke-miterlimit="10.0"><path d="M 158.0898,114.6899 v -80.2829 "/></g><g stroke-linejoin="miter" stroke-opacity="0.5" fill-opacity="0.0" stroke="rgb(93,165,218)" stroke-width="1.9779446105039915" fill="rgb(0,0,0)" stroke-linecap="butt" stroke-miterlimit="10.0"><path d="M 152.3553,114.6899 v -68.8139 "/></g><g stroke-linejoin="miter" stroke-opacity="0.5" fill-opacity="0.0" stroke="rgb(93,165,218)" stroke-width="1.9779446105039915" fill="rgb(0,0,0)" stroke-linecap="butt" stroke-miterlimit="10.0"><path d="M 146.6208,114.6899 v -57.3449 "/></g><g stroke-linejoin="miter" stroke-opacity="0.5" fill-opacity="0.0" stroke="rgb(93,165,218)" stroke-width="1.9779446105039915" fill="rgb(0,0,0)" stroke-linecap="butt" stroke-miterlimit="10.0"><path d="M 140.8863,114.6899 v -45.8759 "/></g><g stroke-linejoin="miter" stroke-opacity="0.5" fill-opacity="0.0" stroke="rgb(93,165,218)" stroke-width="1.9779446105039915" fill="rgb(0,0,0)" stroke-linecap="butt" stroke-miterlimit="10.0"><path d="M 135.1518,114.6899 v -34.4070 "/></g><g stroke-linejoin="miter" stroke-opacity="0.5" fill-opacity="0.0" stroke="rgb(93,165,218)" stroke-width="1.9779446105039915" fill="rgb(0,0,0)" stroke-linecap="butt" stroke-miterlimit="10.0"><path d="M 129.4173,114.6899 v -22.9380 "/></g><g stroke-linejoin="miter" stroke-opacity="0.5" fill-opacity="0.0" stroke="rgb(93,165,218)" stroke-width="1.9779446105039915" fill="rgb(0,0,0)" stroke-linecap="butt" stroke-miterlimit="10.0"><path d="M 123.6828,114.6899 v -11.4690 "/></g><g stroke-linejoin="miter" stroke-opacity="0.5" fill-opacity="0.0" stroke="rgb(93,165,218)" stroke-width="1.9779446105039915" fill="rgb(0,0,0)" stroke-linecap="butt" stroke-miterlimit="10.0"><path d="M 117.9483,114.6899 h 0.0000 "/></g></svg>