<?xml version="1.0" encoding="UTF-8"?>
<!DOCTYPE svg PUBLIC "-//W3C//DTD SVG 1.1//EN"
    "http://www.w3.org/Graphics/SVG/1.1/DTD/svg11.dtd"><svg xmlns="http://www.w3.org/2000/svg" height="120.0000" stroke-opacity="1" viewBox="0 0 300 120" font-size="1" width="300.0000" xmlns:xlink="http://www.w3.org/1999/xlink" stroke="rgb(0,0,0)" version="1.1"><defs></defs><g stroke-linejoin="miter" stroke-opacity="0.0" fill-opacity="0.1" stroke="rgb(0,0,0)" stroke-width="0.0" fill="rgb(0,0,0)" stroke-linecap="butt" stroke-miterlimit="10.0"><path d="M 26.7481,96.3775 l -0.0000,-84.4285 h -1.6886 l -0.0000,84.4285 Z"/></g><g stroke-linejoin="miter" stroke-opacity="1.0" fill-opacity="0.6" stroke="rgb(0,0,0)" fill-rule="evenodd" stroke-width="0.0" fill="rgb(0,0,0)" stroke-linecap="butt" stroke-miterlimit="10.0"><path d="M 14.3631,13.6375 ZM 15.5897,10.5964 c -0.2408,-0.0000 -0.5937,0.2352 -0.5937 1.5402c 0.0000,0.4592 0.0840,1.3833 0.5769 1.3833c 0.0952,-0.0000 0.3640,-0.0616 0.4816 -0.4985c 0.0728,-0.2688 0.1120,-0.6049 0.1120 -1.0921c 0.0000,-0.7113 -0.1792,-1.1089 -0.3416 -1.2489c -0.0616,-0.0560 -0.1456,-0.0840 -0.2352 -0.0840ZM 15.5897,10.5964 ZM 15.5673,13.7047 c -0.5993,-0.0000 -1.0025,-0.7673 -1.0025 -1.6242c 0.0000,-1.0473 0.4985,-1.6802 1.0249 -1.6802c 0.2408,-0.0000 0.4816,0.1512 0.6441 0.3696c 0.2352,0.3136 0.3584,0.7337 0.3584 1.2601c 0.0000,1.2433 -0.6161,1.6746 -1.0249 1.6746ZM 16.8162,13.6375 ZM 17.1354,13.4079 c 0.0000,-0.1624 0.1344,-0.2968 0.2968 -0.2968c 0.1624,-0.0000 0.2968,0.1344 0.2968 0.2968c 0.0000,0.1624 -0.1344,0.2968 -0.2968 0.2968c -0.1624,-0.0000 -0.2968,-0.1344 -0.2968 -0.2968ZM 18.0427,13.6375 ZM 18.3675,11.1564 c 0.0000,-0.3192 0.3080,-0.7561 0.8961 -0.7561c 0.4312,-0.0000 0.9353,0.1624 0.9353 0.8065c 0.0000,0.4256 -0.2184,0.6385 -0.5209 0.9297l -0.5321,0.5153 c -0.0280,0.0280 -0.4032,0.3976 -0.4032 0.6609h 0.9521 c 0.1904,-0.0000 0.2912,-0.0952 0.3696 -0.4032l 0.1400,0.0224 l -0.1120,0.7057 h -1.7306 c 0.0000,-0.3136 0.0504,-0.5545 0.5713 -1.0865l 0.3920,-0.3864 c 0.3136,-0.3192 0.4424,-0.5937 0.4424 -0.9353c 0.0000,-0.5097 -0.3472,-0.6553 -0.5377 -0.6553c -0.3864,-0.0000 -0.4928,0.2016 -0.4928 0.3360c 0.0000,0.0448 0.0112,0.0896 0.0224 0.1288c 0.0112,0.0392 0.0224,0.0784 0.0224 0.1232c 0.0000,0.1456 -0.1120,0.2016 -0.2016 0.2016c -0.1232,-0.0000 -0.2128,-0.0952 -0.2128 -0.2072ZM 20.4958,13.6375 ZM 21.7223,10.5964 c -0.2408,-0.0000 -0.5937,0.2352 -0.5937 1.5402c 0.0000,0.4592 0.0840,1.3833 0.5769 1.3833c 0.0952,-0.0000 0.3640,-0.0616 0.4816 -0.4985c 0.0728,-0.2688 0.1120,-0.6049 0.1120 -1.0921c 0.0000,-0.7113 -0.1792,-1.1089 -0.3416 -1.2489c -0.0616,-0.0560 -0.1456,-0.0840 -0.2352 -0.0840ZM 21.7223,10.5964 ZM 21.6999,13.7047 c -0.5993,-0.0000 -1.0025,-0.7673 -1.0025 -1.6242c 0.0000,-1.0473 0.4985,-1.6802 1.0249 -1.6802c 0.2408,-0.0000 0.4816,0.1512 0.6441 0.3696c 0.2352,0.3136 0.3584,0.7337 0.3584 1.2601c 0.0000,1.2433 -0.6161,1.6746 -1.0249 1.6746Z"/></g><g stroke-linejoin="miter" stroke-opacity="0.6" fill-opacity="0.0" stroke="rgb(0,0,0)" stroke-width="0.9158821058014004" fill="rgb(0,0,0)" stroke-linecap="butt" stroke-miterlimit="10.0"><path d="M 24.2152,11.9489 h 2.5329 "/></g><g stroke-linejoin="miter" stroke-opacity="1.0" fill-opacity="0.6" stroke="rgb(0,0,0)" fill-rule="evenodd" stroke-width="0.0" fill="rgb(0,0,0)" stroke-linecap="butt" stroke-miterlimit="10.0"><path d="M 14.3631,22.0804 ZM 15.5897,19.0392 c -0.2408,-0.0000 -0.5937,0.2352 -0.5937 1.5402c 0.0000,0.4592 0.0840,1.3833 0.5769 1.3833c 0.0952,-0.0000 0.3640,-0.0616 0.4816 -0.4985c 0.0728,-0.2688 0.1120,-0.6049 0.1120 -1.0921c 0.0000,-0.7113 -0.1792,-1.1089 -0.3416 -1.2489c -0.0616,-0.0560 -0.1456,-0.0840 -0.2352 -0.0840ZM 15.5897,19.0392 ZM 15.5673,22.1476 c -0.5993,-0.0000 -1.0025,-0.7673 -1.0025 -1.6242c 0.0000,-1.0473 0.4985,-1.6802 1.0249 -1.6802c 0.2408,-0.0000 0.4816,0.1512 0.6441 0.3696c 0.2352,0.3136 0.3584,0.7337 0.3584 1.2601c 0.0000,1.2433 -0.6161,1.6746 -1.0249 1.6746ZM 16.8162,22.0804 ZM 17.1354,21.8507 c 0.0000,-0.1624 0.1344,-0.2968 0.2968 -0.2968c 0.1624,-0.0000 0.2968,0.1344 0.2968 0.2968c 0.0000,0.1624 -0.1344,0.2968 -0.2968 0.2968c -0.1624,-0.0000 -0.2968,-0.1344 -0.2968 -0.2968ZM 18.0427,22.0804 ZM 19.0956,19.4089 c -0.1064,-0.0000 -0.3528,0.1008 -0.4760 0.1568l -0.0672,-0.1736 c 0.4928,-0.2296 0.6833,-0.3472 0.9633 -0.5489h 0.1064 v 2.8171 c 0.0000,0.2016 0.0280,0.2576 0.2128 0.2576h 0.2912 c 0.0168,-0.0000 0.0448,0.0112 0.0448 0.0448v 0.1232 l -0.7673,-0.0112 l -0.7785,0.0112 v -0.1232 c 0.0056,-0.0168 0.0112,-0.0448 0.0448 -0.0448h 0.3360 c 0.2128,-0.0000 0.2128,-0.0952 0.2128 -0.2576v -1.9266 c 0.0000,-0.1904 0.0000,-0.3248 -0.1232 -0.3248ZM 20.4958,22.0804 ZM 21.7391,18.9776 c -0.3192,-0.0000 -0.5265,0.2520 -0.5265 0.4985c 0.0000,0.1624 0.0672,0.3584 0.4032 0.5769l 0.1624,0.1008 c 0.1456,-0.1064 0.4872,-0.3640 0.4872 -0.6497c 0.0000,-0.2464 -0.1792,-0.5265 -0.5265 -0.5265ZM 21.7391,18.9776 ZM 22.5960,19.5097 c 0.0000,0.3416 -0.3864,0.6105 -0.6217 0.7673l 0.3248,0.2128 c 0.2744,0.1792 0.4144,0.4256 0.4144 0.7337c 0.0000,0.4032 -0.3304,0.9241 -1.0249 0.9241c -0.5601,-0.0000 -0.9465,-0.2968 -0.9465 -0.8401c 0.0000,-0.2072 0.0896,-0.4480 0.3080 -0.6385c 0.1344,-0.1176 0.2520,-0.2184 0.3864 -0.3192l -0.0952,-0.0560 c -0.3248,-0.2016 -0.4872,-0.4200 -0.4872 -0.7169c 0.0000,-0.4088 0.3696,-0.7337 0.9129 -0.7337c 0.5209,-0.0000 0.8289,0.2856 0.8289 0.6665ZM 22.5960,19.5097 ZM 21.6999,21.9907 c 0.2408,-0.0000 0.6609,-0.1288 0.6609 -0.6609c 0.0000,-0.2520 -0.1568,-0.5041 -0.4872 -0.7057l -0.2464,-0.1512 c -0.4536,0.3024 -0.5545,0.6777 -0.5545 0.8345c 0.0000,0.4760 0.3864,0.6833 0.6273 0.6833Z"/></g><g stroke-linejoin="miter" stroke-opacity="0.6" fill-opacity="0.0" stroke="rgb(0,0,0)" stroke-width="0.9158821058014004" fill="rgb(0,0,0)" stroke-linecap="butt" stroke-miterlimit="10.0"><path d="M 24.2152,20.3918 h 2.5329 "/></g><g stroke-linejoin="miter" stroke-opacity="1.0" fill-opacity="0.6" stroke="rgb(0,0,0)" fill-rule="evenodd" stroke-width="0.0" fill="rgb(0,0,0)" stroke-linecap="butt" stroke-miterlimit="10.0"><path d="M 14.3631,30.5232 ZM 15.5897,27.4821 c -0.2408,-0.0000 -0.5937,0.2352 -0.5937 1.5402c 0.0000,0.4592 0.0840,1.3833 0.5769 1.3833c 0.0952,-0.0000 0.3640,-0.0616 0.4816 -0.4985c 0.0728,-0.2688 0.1120,-0.6049 0.1120 -1.0921c 0.0000,-0.7113 -0.1792,-1.1089 -0.3416 -1.2489c -0.0616,-0.0560 -0.1456,-0.0840 -0.2352 -0.0840ZM 15.5897,27.4821 ZM 15.5673,30.5904 c -0.5993,-0.0000 -1.0025,-0.7673 -1.0025 -1.6242c 0.0000,-1.0473 0.4985,-1.6802 1.0249 -1.6802c 0.2408,-0.0000 0.4816,0.1512 0.6441 0.3696c 0.2352,0.3136 0.3584,0.7337 0.3584 1.2601c 0.0000,1.2433 -0.6161,1.6746 -1.0249 1.6746ZM 16.8162,30.5232 ZM 17.1354,30.2936 c 0.0000,-0.1624 0.1344,-0.2968 0.2968 -0.2968c 0.1624,-0.0000 0.2968,0.1344 0.2968 0.2968c 0.0000,0.1624 -0.1344,0.2968 -0.2968 0.2968c -0.1624,-0.0000 -0.2968,-0.1344 -0.2968 -0.2968ZM 18.0427,30.5232 ZM 19.0956,27.8517 c -0.1064,-0.0000 -0.3528,0.1008 -0.4760 0.1568l -0.0672,-0.1736 c 0.4928,-0.2296 0.6833,-0.3472 0.9633 -0.5489h 0.1064 v 2.8171 c 0.0000,0.2016 0.0280,0.2576 0.2128 0.2576h 0.2912 c 0.0168,-0.0000 0.0448,0.0112 0.0448 0.0448v 0.1232 l -0.7673,-0.0112 l -0.7785,0.0112 v -0.1232 c 0.0056,-0.0168 0.0112,-0.0448 0.0448 -0.0448h 0.3360 c 0.2128,-0.0000 0.2128,-0.0952 0.2128 -0.2576v -1.9266 c 0.0000,-0.1904 0.0000,-0.3248 -0.1232 -0.3248ZM 20.4958,30.5232 ZM 21.1454,29.0559 c -0.0056,0.0560 -0.0056,0.1400 -0.0056 0.1960c 0.0000,0.9409 0.4200,1.1761 0.7001 1.1761c 0.2576,-0.0000 0.5321,-0.2408 0.5321 -0.8233c 0.0000,-0.2632 -0.1344,-0.8009 -0.6721 -0.8009c -0.1176,-0.0000 -0.3304,0.0112 -0.5545 0.2520ZM 21.1454,29.0559 ZM 22.6128,27.4317 c -0.3640,0.0336 -0.6777,0.1288 -0.9465 0.3920c -0.2576,0.2520 -0.4424,0.6273 -0.5041 1.0753c 0.1288,-0.1568 0.4368,-0.2744 0.6497 -0.2744c 0.8289,-0.0000 0.9353,0.6833 0.9353 0.9409c 0.0000,0.3808 -0.1904,1.0249 -0.9633 1.0249c -0.4088,-0.0000 -1.0305,-0.2408 -1.0305 -1.3553c 0.0000,-0.5153 0.1736,-1.0193 0.5601 -1.4057c 0.3584,-0.3640 0.7337,-0.5153 1.2825 -0.5433Z"/></g><g stroke-linejoin="miter" stroke-opacity="0.6" fill-opacity="0.0" stroke="rgb(0,0,0)" stroke-width="0.9158821058014004" fill="rgb(0,0,0)" stroke-linecap="butt" stroke-miterlimit="10.0"><path d="M 24.2152,28.8346 h 2.5329 "/></g><g stroke-linejoin="miter" stroke-opacity="1.0" fill-opacity="0.6" stroke="rgb(0,0,0)" fill-rule="evenodd" stroke-width="0.0" fill="rgb(0,0,0)" stroke-linecap="butt" stroke-miterlimit="10.0"><path d="M 14.3631,38.9661 ZM 15.5897,35.9250 c -0.2408,-0.0000 -0.5937,0.2352 -0.5937 1.5402c 0.0000,0.4592 0.0840,1.3833 0.5769 1.3833c 0.0952,-0.0000 0.3640,-0.0616 0.4816 -0.4985c 0.0728,-0.2688 0.1120,-0.6049 0.1120 -1.0921c 0.0000,-0.7113 -0.1792,-1.1089 -0.3416 -1.2489c -0.0616,-0.0560 -0.1456,-0.0840 -0.2352 -0.0840ZM 15.5897,35.9250 ZM 15.5673,39.0333 c -0.5993,-0.0000 -1.0025,-0.7673 -1.0025 -1.6242c 0.0000,-1.0473 0.4985,-1.6802 1.0249 -1.6802c 0.2408,-0.0000 0.4816,0.1512 0.6441 0.3696c 0.2352,0.3136 0.3584,0.7337 0.3584 1.2601c 0.0000,1.2433 -0.6161,1.6746 -1.0249 1.6746ZM 16.8162,38.9661 ZM 17.1354,38.7364 c 0.0000,-0.1624 0.1344,-0.2968 0.2968 -0.2968c 0.1624,-0.0000 0.2968,0.1344 0.2968 0.2968c 0.0000,0.1624 -0.1344,0.2968 -0.2968 0.2968c -0.1624,-0.0000 -0.2968,-0.1344 -0.2968 -0.2968ZM 18.0427,38.9661 ZM 19.0956,36.2946 c -0.1064,-0.0000 -0.3528,0.1008 -0.4760 0.1568l -0.0672,-0.1736 c 0.4928,-0.2296 0.6833,-0.3472 0.9633 -0.5489h 0.1064 v 2.8171 c 0.0000,0.2016 0.0280,0.2576 0.2128 0.2576h 0.2912 c 0.0168,-0.0000 0.0448,0.0112 0.0448 0.0448v 0.1232 l -0.7673,-0.0112 l -0.7785,0.0112 v -0.1232 c 0.0056,-0.0168 0.0112,-0.0448 0.0448 -0.0448h 0.3360 c 0.2128,-0.0000 0.2128,-0.0952 0.2128 -0.2576v -1.9266 c 0.0000,-0.1904 0.0000,-0.3248 -0.1232 -0.3248ZM 20.4958,38.9661 ZM 21.9407,36.9779 c 0.0000,-0.0392 0.0056,-0.0840 0.0560 -0.1120c 0.0616,-0.0448 0.1624,-0.0952 0.2464 -0.0952c 0.0728,-0.0000 0.0784,0.0616 0.0784 0.1736v 0.9017 h 0.4536 l -0.0336,0.2632 h -0.4200 v 0.4648 c 0.0000,0.1568 0.0224,0.2352 0.1848 0.2352h 0.1512 c 0.0336,-0.0000 0.0392,0.0280 0.0392 0.0392v 0.1232 c 0.0000,-0.0000 -0.3584,-0.0112 -0.5937 -0.0112c -0.2128,-0.0000 -0.5433,0.0112 -0.5433 0.0112v -0.1232 c 0.0000,-0.0112 0.0056,-0.0392 0.0392 -0.0392h 0.1512 c 0.1736,-0.0000 0.1904,-0.0728 0.1904 -0.2352v -0.4648 h -1.0977 c -0.0224,-0.0000 -0.0336,-0.0112 -0.0504 -0.0336l -0.0448,-0.0616 l -0.0672,-0.1176 c -0.0056,-0.0000 -0.0056,-0.0056 -0.0056 -0.0112c 0.0000,-0.0056 0.0056,-0.0112 0.0112 -0.0168c 0.3640,-0.4032 1.0081,-1.6522 1.2097 -2.1114c 0.0056,-0.0224 0.0168,-0.0280 0.0392 -0.0280c 0.0056,-0.0000 0.1288,0.0504 0.1960 0.0616c -0.2520,0.6777 -0.6665,1.4057 -1.0753 2.0554h 0.8849 v -0.8681 Z"/></g><g stroke-linejoin="miter" stroke-opacity="0.6" fill-opacity="0.0" stroke="rgb(0,0,0)" stroke-width="0.9158821058014004" fill="rgb(0,0,0)" stroke-linecap="butt" stroke-miterlimit="10.0"><path d="M 24.2152,37.2775 h 2.5329 "/></g><g stroke-linejoin="miter" stroke-opacity="1.0" fill-opacity="0.6" stroke="rgb(0,0,0)" fill-rule="evenodd" stroke-width="0.0" fill="rgb(0,0,0)" stroke-linecap="butt" stroke-miterlimit="10.0"><path d="M 14.3631,47.4089 ZM 15.5897,44.3678 c -0.2408,-0.0000 -0.5937,0.2352 -0.5937 1.5402c 0.0000,0.4592 0.0840,1.3833 0.5769 1.3833c 0.0952,-0.0000 0.3640,-0.0616 0.4816 -0.4985c 0.0728,-0.2688 0.1120,-0.6049 0.1120 -1.0921c 0.0000,-0.7113 -0.1792,-1.1089 -0.3416 -1.2489c -0.0616,-0.0560 -0.1456,-0.0840 -0.2352 -0.0840ZM 15.5897,44.3678 ZM 15.5673,47.4761 c -0.5993,-0.0000 -1.0025,-0.7673 -1.0025 -1.6242c 0.0000,-1.0473 0.4985,-1.6802 1.0249 -1.6802c 0.2408,-0.0000 0.4816,0.1512 0.6441 0.3696c 0.2352,0.3136 0.3584,0.7337 0.3584 1.2601c 0.0000,1.2433 -0.6161,1.6746 -1.0249 1.6746ZM 16.8162,47.4089 ZM 17.1354,47.1793 c 0.0000,-0.1624 0.1344,-0.2968 0.2968 -0.2968c 0.1624,-0.0000 0.2968,0.1344 0.2968 0.2968c 0.0000,0.1624 -0.1344,0.2968 -0.2968 0.2968c -0.1624,-0.0000 -0.2968,-0.1344 -0.2968 -0.2968ZM 18.0427,47.4089 ZM 19.0956,44.7374 c -0.1064,-0.0000 -0.3528,0.1008 -0.4760 0.1568l -0.0672,-0.1736 c 0.4928,-0.2296 0.6833,-0.3472 0.9633 -0.5489h 0.1064 v 2.8171 c 0.0000,0.2016 0.0280,0.2576 0.2128 0.2576h 0.2912 c 0.0168,-0.0000 0.0448,0.0112 0.0448 0.0448v 0.1232 l -0.7673,-0.0112 l -0.7785,0.0112 v -0.1232 c 0.0056,-0.0168 0.0112,-0.0448 0.0448 -0.0448h 0.3360 c 0.2128,-0.0000 0.2128,-0.0952 0.2128 -0.2576v -1.9266 c 0.0000,-0.1904 0.0000,-0.3248 -0.1232 -0.3248ZM 20.4958,47.4089 ZM 20.8206,44.9279 c 0.0000,-0.3192 0.3080,-0.7561 0.8961 -0.7561c 0.4312,-0.0000 0.9353,0.1624 0.9353 0.8065c 0.0000,0.4256 -0.2184,0.6385 -0.5209 0.9297l -0.5321,0.5153 c -0.0280,0.0280 -0.4032,0.3976 -0.4032 0.6609h 0.9521 c 0.1904,-0.0000 0.2912,-0.0952 0.3696 -0.4032l 0.1400,0.0224 l -0.1120,0.7057 h -1.7306 c 0.0000,-0.3136 0.0504,-0.5545 0.5713 -1.0865l 0.3920,-0.3864 c 0.3136,-0.3192 0.4424,-0.5937 0.4424 -0.9353c 0.0000,-0.5097 -0.3472,-0.6553 -0.5377 -0.6553c -0.3864,-0.0000 -0.4928,0.2016 -0.4928 0.3360c 0.0000,0.0448 0.0112,0.0896 0.0224 0.1288c 0.0112,0.0392 0.0224,0.0784 0.0224 0.1232c 0.0000,0.1456 -0.1120,0.2016 -0.2016 0.2016c -0.1232,-0.0000 -0.2128,-0.0952 -0.2128 -0.2072Z"/></g><g stroke-linejoin="miter" stroke-opacity="0.6" fill-opacity="0.0" stroke="rgb(0,0,0)" stroke-width="0.9158821058014004" fill="rgb(0,0,0)" stroke-linecap="butt" stroke-miterlimit="10.0"><path d="M 24.2152,45.7203 h 2.5329 "/></g><g stroke-linejoin="miter" stroke-opacity="1.0" fill-opacity="0.6" stroke="rgb(0,0,0)" fill-rule="evenodd" stroke-width="0.0" fill="rgb(0,0,0)" stroke-linecap="butt" stroke-miterlimit="10.0"><path d="M 14.3631,55.8518 ZM 15.5897,52.8107 c -0.2408,-0.0000 -0.5937,0.2352 -0.5937 1.5402c 0.0000,0.4592 0.0840,1.3833 0.5769 1.3833c 0.0952,-0.0000 0.3640,-0.0616 0.4816 -0.4985c 0.0728,-0.2688 0.1120,-0.6049 0.1120 -1.0921c 0.0000,-0.7113 -0.1792,-1.1089 -0.3416 -1.2489c -0.0616,-0.0560 -0.1456,-0.0840 -0.2352 -0.0840ZM 15.5897,52.8107 ZM 15.5673,55.9190 c -0.5993,-0.0000 -1.0025,-0.7673 -1.0025 -1.6242c 0.0000,-1.0473 0.4985,-1.6802 1.0249 -1.6802c 0.2408,-0.0000 0.4816,0.1512 0.6441 0.3696c 0.2352,0.3136 0.3584,0.7337 0.3584 1.2601c 0.0000,1.2433 -0.6161,1.6746 -1.0249 1.6746ZM 16.8162,55.8518 ZM 17.1354,55.6221 c 0.0000,-0.1624 0.1344,-0.2968 0.2968 -0.2968c 0.1624,-0.0000 0.2968,0.1344 0.2968 0.2968c 0.0000,0.1624 -0.1344,0.2968 -0.2968 0.2968c -0.1624,-0.0000 -0.2968,-0.1344 -0.2968 -0.2968ZM 18.0427,55.8518 ZM 19.0956,53.1803 c -0.1064,-0.0000 -0.3528,0.1008 -0.4760 0.1568l -0.0672,-0.1736 c 0.4928,-0.2296 0.6833,-0.3472 0.9633 -0.5489h 0.1064 v 2.8171 c 0.0000,0.2016 0.0280,0.2576 0.2128 0.2576h 0.2912 c 0.0168,-0.0000 0.0448,0.0112 0.0448 0.0448v 0.1232 l -0.7673,-0.0112 l -0.7785,0.0112 v -0.1232 c 0.0056,-0.0168 0.0112,-0.0448 0.0448 -0.0448h 0.3360 c 0.2128,-0.0000 0.2128,-0.0952 0.2128 -0.2576v -1.9266 c 0.0000,-0.1904 0.0000,-0.3248 -0.1232 -0.3248ZM 20.4958,55.8518 ZM 21.7223,52.8107 c -0.2408,-0.0000 -0.5937,0.2352 -0.5937 1.5402c 0.0000,0.4592 0.0840,1.3833 0.5769 1.3833c 0.0952,-0.0000 0.3640,-0.0616 0.4816 -0.4985c 0.0728,-0.2688 0.1120,-0.6049 0.1120 -1.0921c 0.0000,-0.7113 -0.1792,-1.1089 -0.3416 -1.2489c -0.0616,-0.0560 -0.1456,-0.0840 -0.2352 -0.0840ZM 21.7223,52.8107 ZM 21.6999,55.9190 c -0.5993,-0.0000 -1.0025,-0.7673 -1.0025 -1.6242c 0.0000,-1.0473 0.4985,-1.6802 1.0249 -1.6802c 0.2408,-0.0000 0.4816,0.1512 0.6441 0.3696c 0.2352,0.3136 0.3584,0.7337 0.3584 1.2601c 0.0000,1.2433 -0.6161,1.6746 -1.0249 1.6746Z"/></g><g stroke-linejoin="miter" stroke-opacity="0.6" fill-opacity="0.0" stroke="rgb(0,0,0)" stroke-width="0.9158821058014004" fill="rgb(0,0,0)" stroke-linecap="butt" stroke-miterlimit="10.0"><path d="M 24.2152,54.1632 h 2.5329 "/></g><g stroke-linejoin="miter" stroke-opacity="1.0" fill-opacity="0.6" stroke="rgb(0,0,0)" fill-rule="evenodd" stroke-width="0.0" fill="rgb(0,0,0)" stroke-linecap="butt" stroke-miterlimit="10.0"><path d="M 14.3631,64.2946 ZM 15.5897,61.2535 c -0.2408,-0.0000 -0.5937,0.2352 -0.5937 1.5402c 0.0000,0.4592 0.0840,1.3833 0.5769 1.3833c 0.0952,-0.0000 0.3640,-0.0616 0.4816 -0.4985c 0.0728,-0.2688 0.1120,-0.6049 0.1120 -1.0921c 0.0000,-0.7113 -0.1792,-1.1089 -0.3416 -1.2489c -0.0616,-0.0560 -0.1456,-0.0840 -0.2352 -0.0840ZM 15.5897,61.2535 ZM 15.5673,64.3618 c -0.5993,-0.0000 -1.0025,-0.7673 -1.0025 -1.6242c 0.0000,-1.0473 0.4985,-1.6802 1.0249 -1.6802c 0.2408,-0.0000 0.4816,0.1512 0.6441 0.3696c 0.2352,0.3136 0.3584,0.7337 0.3584 1.2601c 0.0000,1.2433 -0.6161,1.6746 -1.0249 1.6746ZM 16.8162,64.2946 ZM 17.1354,64.0650 c 0.0000,-0.1624 0.1344,-0.2968 0.2968 -0.2968c 0.1624,-0.0000 0.2968,0.1344 0.2968 0.2968c 0.0000,0.1624 -0.1344,0.2968 -0.2968 0.2968c -0.1624,-0.0000 -0.2968,-0.1344 -0.2968 -0.2968ZM 18.0427,64.2946 ZM 19.2692,61.2535 c -0.2408,-0.0000 -0.5937,0.2352 -0.5937 1.5402c 0.0000,0.4592 0.0840,1.3833 0.5769 1.3833c 0.0952,-0.0000 0.3640,-0.0616 0.4816 -0.4985c 0.0728,-0.2688 0.1120,-0.6049 0.1120 -1.0921c 0.0000,-0.7113 -0.1792,-1.1089 -0.3416 -1.2489c -0.0616,-0.0560 -0.1456,-0.0840 -0.2352 -0.0840ZM 19.2692,61.2535 ZM 19.2468,64.3618 c -0.5993,-0.0000 -1.0025,-0.7673 -1.0025 -1.6242c 0.0000,-1.0473 0.4985,-1.6802 1.0249 -1.6802c 0.2408,-0.0000 0.4816,0.1512 0.6441 0.3696c 0.2352,0.3136 0.3584,0.7337 0.3584 1.2601c 0.0000,1.2433 -0.6161,1.6746 -1.0249 1.6746ZM 20.4958,64.2946 ZM 21.7391,61.1919 c -0.3192,-0.0000 -0.5265,0.2520 -0.5265 0.4985c 0.0000,0.1624 0.0672,0.3584 0.4032 0.5769l 0.1624,0.1008 c 0.1456,-0.1064 0.4872,-0.3640 0.4872 -0.6497c 0.0000,-0.2464 -0.1792,-0.5265 -0.5265 -0.5265ZM 21.7391,61.1919 ZM 22.5960,61.7240 c 0.0000,0.3416 -0.3864,0.6105 -0.6217 0.7673l 0.3248,0.2128 c 0.2744,0.1792 0.4144,0.4256 0.4144 0.7337c 0.0000,0.4032 -0.3304,0.9241 -1.0249 0.9241c -0.5601,-0.0000 -0.9465,-0.2968 -0.9465 -0.8401c 0.0000,-0.2072 0.0896,-0.4480 0.3080 -0.6385c 0.1344,-0.1176 0.2520,-0.2184 0.3864 -0.3192l -0.0952,-0.0560 c -0.3248,-0.2016 -0.4872,-0.4200 -0.4872 -0.7169c 0.0000,-0.4088 0.3696,-0.7337 0.9129 -0.7337c 0.5209,-0.0000 0.8289,0.2856 0.8289 0.6665ZM 22.5960,61.7240 ZM 21.6999,64.2050 c 0.2408,-0.0000 0.6609,-0.1288 0.6609 -0.6609c 0.0000,-0.2520 -0.1568,-0.5041 -0.4872 -0.7057l -0.2464,-0.1512 c -0.4536,0.3024 -0.5545,0.6777 -0.5545 0.8345c 0.0000,0.4760 0.3864,0.6833 0.6273 0.6833Z"/></g><g stroke-linejoin="miter" stroke-opacity="0.6" fill-opacity="0.0" stroke="rgb(0,0,0)" stroke-width="0.9158821058014004" fill="rgb(0,0,0)" stroke-linecap="butt" stroke-miterlimit="10.0"><path d="M 24.2152,62.6060 h 2.5329 "/></g><g stroke-linejoin="miter" stroke-opacity="1.0" fill-opacity="0.6" stroke="rgb(0,0,0)" fill-rule="evenodd" stroke-width="0.0" fill="rgb(0,0,0)" stroke-linecap="butt" stroke-miterlimit="10.0"><path d="M 14.3631,72.7375 ZM 15.5897,69.6964 c -0.2408,-0.0000 -0.5937,0.2352 -0.5937 1.5402c 0.0000,0.4592 0.0840,1.3833 0.5769 1.3833c 0.0952,-0.0000 0.3640,-0.0616 0.4816 -0.4985c 0.0728,-0.2688 0.1120,-0.6049 0.1120 -1.0921c 0.0000,-0.7113 -0.1792,-1.1089 -0.3416 -1.2489c -0.0616,-0.0560 -0.1456,-0.0840 -0.2352 -0.0840ZM 15.5897,69.6964 ZM 15.5673,72.8047 c -0.5993,-0.0000 -1.0025,-0.7673 -1.0025 -1.6242c 0.0000,-1.0473 0.4985,-1.6802 1.0249 -1.6802c 0.2408,-0.0000 0.4816,0.1512 0.6441 0.3696c 0.2352,0.3136 0.3584,0.7337 0.3584 1.2601c 0.0000,1.2433 -0.6161,1.6746 -1.0249 1.6746ZM 16.8162,72.7375 ZM 17.1354,72.5078 c 0.0000,-0.1624 0.1344,-0.2968 0.2968 -0.2968c 0.1624,-0.0000 0.2968,0.1344 0.2968 0.2968c 0.0000,0.1624 -0.1344,0.2968 -0.2968 0.2968c -0.1624,-0.0000 -0.2968,-0.1344 -0.2968 -0.2968ZM 18.0427,72.7375 ZM 19.2692,69.6964 c -0.2408,-0.0000 -0.5937,0.2352 -0.5937 1.5402c 0.0000,0.4592 0.0840,1.3833 0.5769 1.3833c 0.0952,-0.0000 0.3640,-0.0616 0.4816 -0.4985c 0.0728,-0.2688 0.1120,-0.6049 0.1120 -1.0921c 0.0000,-0.7113 -0.1792,-1.1089 -0.3416 -1.2489c -0.0616,-0.0560 -0.1456,-0.0840 -0.2352 -0.0840ZM 19.2692,69.6964 ZM 19.2468,72.8047 c -0.5993,-0.0000 -1.0025,-0.7673 -1.0025 -1.6242c 0.0000,-1.0473 0.4985,-1.6802 1.0249 -1.6802c 0.2408,-0.0000 0.4816,0.1512 0.6441 0.3696c 0.2352,0.3136 0.3584,0.7337 0.3584 1.2601c 0.0000,1.2433 -0.6161,1.6746 -1.0249 1.6746ZM 20.4958,72.7375 ZM 21.1454,71.2701 c -0.0056,0.0560 -0.0056,0.1400 -0.0056 0.1960c 0.0000,0.9409 0.4200,1.1761 0.7001 1.1761c 0.2576,-0.0000 0.5321,-0.2408 0.5321 -0.8233c 0.0000,-0.2632 -0.1344,-0.8009 -0.6721 -0.8009c -0.1176,-0.0000 -0.3304,0.0112 -0.5545 0.2520ZM 21.1454,71.2701 ZM 22.6128,69.6460 c -0.3640,0.0336 -0.6777,0.1288 -0.9465 0.3920c -0.2576,0.2520 -0.4424,0.6273 -0.5041 1.0753c 0.1288,-0.1568 0.4368,-0.2744 0.6497 -0.2744c 0.8289,-0.0000 0.9353,0.6833 0.9353 0.9409c 0.0000,0.3808 -0.1904,1.0249 -0.9633 1.0249c -0.4088,-0.0000 -1.0305,-0.2408 -1.0305 -1.3553c 0.0000,-0.5153 0.1736,-1.0193 0.5601 -1.4057c 0.3584,-0.3640 0.7337,-0.5153 1.2825 -0.5433Z"/></g><g stroke-linejoin="miter" stroke-opacity="0.6" fill-opacity="0.0" stroke="rgb(0,0,0)" stroke-width="0.9158821058014004" fill="rgb(0,0,0)" stroke-linecap="butt" stroke-miterlimit="10.0"><path d="M 24.2152,71.0489 h 2.5329 "/></g><g stroke-linejoin="miter" stroke-opacity="1.0" fill-opacity="0.6" stroke="rgb(0,0,0)" fill-rule="evenodd" stroke-width="0.0" fill="rgb(0,0,0)" stroke-linecap="butt" stroke-miterlimit="10.0"><path d="M 14.3631,81.1803 ZM 15.5897,78.1392 c -0.2408,-0.0000 -0.5937,0.2352 -0.5937 1.5402c 0.0000,0.4592 0.0840,1.3833 0.5769 1.3833c 0.0952,-0.0000 0.3640,-0.0616 0.4816 -0.4985c 0.0728,-0.2688 0.1120,-0.6049 0.1120 -1.0921c 0.0000,-0.7113 -0.1792,-1.1089 -0.3416 -1.2489c -0.0616,-0.0560 -0.1456,-0.0840 -0.2352 -0.0840ZM 15.5897,78.1392 ZM 15.5673,81.2475 c -0.5993,-0.0000 -1.0025,-0.7673 -1.0025 -1.6242c 0.0000,-1.0473 0.4985,-1.6802 1.0249 -1.6802c 0.2408,-0.0000 0.4816,0.1512 0.6441 0.3696c 0.2352,0.3136 0.3584,0.7337 0.3584 1.2601c 0.0000,1.2433 -0.6161,1.6746 -1.0249 1.6746ZM 16.8162,81.1803 ZM 17.1354,80.9507 c 0.0000,-0.1624 0.1344,-0.2968 0.2968 -0.2968c 0.1624,-0.0000 0.2968,0.1344 0.2968 0.2968c 0.0000,0.1624 -0.1344,0.2968 -0.2968 0.2968c -0.1624,-0.0000 -0.2968,-0.1344 -0.2968 -0.2968ZM 18.0427,81.1803 ZM 19.2692,78.1392 c -0.2408,-0.0000 -0.5937,0.2352 -0.5937 1.5402c 0.0000,0.4592 0.0840,1.3833 0.5769 1.3833c 0.0952,-0.0000 0.3640,-0.0616 0.4816 -0.4985c 0.0728,-0.2688 0.1120,-0.6049 0.1120 -1.0921c 0.0000,-0.7113 -0.1792,-1.1089 -0.3416 -1.2489c -0.0616,-0.0560 -0.1456,-0.0840 -0.2352 -0.0840ZM 19.2692,78.1392 ZM 19.2468,81.2475 c -0.5993,-0.0000 -1.0025,-0.7673 -1.0025 -1.6242c 0.0000,-1.0473 0.4985,-1.6802 1.0249 -1.6802c 0.2408,-0.0000 0.4816,0.1512 0.6441 0.3696c 0.2352,0.3136 0.3584,0.7337 0.3584 1.2601c 0.0000,1.2433 -0.6161,1.6746 -1.0249 1.6746ZM 20.4958,81.1803 ZM 21.9407,79.1921 c 0.0000,-0.0392 0.0056,-0.0840 0.0560 -0.1120c 0.0616,-0.0448 0.1624,-0.0952 0.2464 -0.0952c 0.0728,-0.0000 0.0784,0.0616 0.0784 0.1736v 0.9017 h 0.4536 l -0.0336,0.2632 h -0.4200 v 0.4648 c 0.0000,0.1568 0.0224,0.2352 0.1848 0.2352h 0.1512 c 0.0336,-0.0000 0.0392,0.0280 0.0392 0.0392v 0.1232 c 0.0000,-0.0000 -0.3584,-0.0112 -0.5937 -0.0112c -0.2128,-0.0000 -0.5433,0.0112 -0.5433 0.0112v -0.1232 c 0.0000,-0.0112 0.0056,-0.0392 0.0392 -0.0392h 0.1512 c 0.1736,-0.0000 0.1904,-0.0728 0.1904 -0.2352v -0.4648 h -1.0977 c -0.0224,-0.0000 -0.0336,-0.0112 -0.0504 -0.0336l -0.0448,-0.0616 l -0.0672,-0.1176 c -0.0056,-0.0000 -0.0056,-0.0056 -0.0056 -0.0112c 0.0000,-0.0056 0.0056,-0.0112 0.0112 -0.0168c 0.3640,-0.4032 1.0081,-1.6522 1.2097 -2.1114c 0.0056,-0.0224 0.0168,-0.0280 0.0392 -0.0280c 0.0056,-0.0000 0.1288,0.0504 0.1960 0.0616c -0.2520,0.6777 -0.6665,1.4057 -1.0753 2.0554h 0.8849 v -0.8681 Z"/></g><g stroke-linejoin="miter" stroke-opacity="0.6" fill-opacity="0.0" stroke="rgb(0,0,0)" stroke-width="0.9158821058014004" fill="rgb(0,0,0)" stroke-linecap="butt" stroke-miterlimit="10.0"><path d="M 24.2152,79.4918 h 2.5329 "/></g><g stroke-linejoin="miter" stroke-opacity="1.0" fill-opacity="0.6" stroke="rgb(0,0,0)" fill-rule="evenodd" stroke-width="0.0" fill="rgb(0,0,0)" stroke-linecap="butt" stroke-miterlimit="10.0"><path d="M 14.3631,89.6232 ZM 15.5897,86.5821 c -0.2408,-0.0000 -0.5937,0.2352 -0.5937 1.5402c 0.0000,0.4592 0.0840,1.3833 0.5769 1.3833c 0.0952,-0.0000 0.3640,-0.0616 0.4816 -0.4985c 0.0728,-0.2688 0.1120,-0.6049 0.1120 -1.0921c 0.0000,-0.7113 -0.1792,-1.1089 -0.3416 -1.2489c -0.0616,-0.0560 -0.1456,-0.0840 -0.2352 -0.0840ZM 15.5897,86.5821 ZM 15.5673,89.6904 c -0.5993,-0.0000 -1.0025,-0.7673 -1.0025 -1.6242c 0.0000,-1.0473 0.4985,-1.6802 1.0249 -1.6802c 0.2408,-0.0000 0.4816,0.1512 0.6441 0.3696c 0.2352,0.3136 0.3584,0.7337 0.3584 1.2601c 0.0000,1.2433 -0.6161,1.6746 -1.0249 1.6746ZM 16.8162,89.6232 ZM 17.1354,89.3936 c 0.0000,-0.1624 0.1344,-0.2968 0.2968 -0.2968c 0.1624,-0.0000 0.2968,0.1344 0.2968 0.2968c 0.0000,0.1624 -0.1344,0.2968 -0.2968 0.2968c -0.1624,-0.0000 -0.2968,-0.1344 -0.2968 -0.2968ZM 18.0427,89.6232 ZM 19.2692,86.5821 c -0.2408,-0.0000 -0.5937,0.2352 -0.5937 1.5402c 0.0000,0.4592 0.0840,1.3833 0.5769 1.3833c 0.0952,-0.0000 0.3640,-0.0616 0.4816 -0.4985c 0.0728,-0.2688 0.1120,-0.6049 0.1120 -1.0921c 0.0000,-0.7113 -0.1792,-1.1089 -0.3416 -1.2489c -0.0616,-0.0560 -0.1456,-0.0840 -0.2352 -0.0840ZM 19.2692,86.5821 ZM 19.2468,89.6904 c -0.5993,-0.0000 -1.0025,-0.7673 -1.0025 -1.6242c 0.0000,-1.0473 0.4985,-1.6802 1.0249 -1.6802c 0.2408,-0.0000 0.4816,0.1512 0.6441 0.3696c 0.2352,0.3136 0.3584,0.7337 0.3584 1.2601c 0.0000,1.2433 -0.6161,1.6746 -1.0249 1.6746ZM 20.4958,89.6232 ZM 20.8206,87.1421 c 0.0000,-0.3192 0.3080,-0.7561 0.8961 -0.7561c 0.4312,-0.0000 0.9353,0.1624 0.9353 0.8065c 0.0000,0.4256 -0.2184,0.6385 -0.5209 0.9297l -0.5321,0.5153 c -0.0280,0.0280 -0.4032,0.3976 -0.4032 0.6609h 0.9521 c 0.1904,-0.0000 0.2912,-0.0952 0.3696 -0.4032l 0.1400,0.0224 l -0.1120,0.7057 h -1.7306 c 0.0000,-0.3136 0.0504,-0.5545 0.5713 -1.0865l 0.3920,-0.3864 c 0.3136,-0.3192 0.4424,-0.5937 0.4424 -0.9353c 0.0000,-0.5097 -0.3472,-0.6553 -0.5377 -0.6553c -0.3864,-0.0000 -0.4928,0.2016 -0.4928 0.3360c 0.0000,0.0448 0.0112,0.0896 0.0224 0.1288c 0.0112,0.0392 0.0224,0.0784 0.0224 0.1232c 0.0000,0.1456 -0.1120,0.2016 -0.2016 0.2016c -0.1232,-0.0000 -0.2128,-0.0952 -0.2128 -0.2072Z"/></g><g stroke-linejoin="miter" stroke-opacity="0.6" fill-opacity="0.0" stroke="rgb(0,0,0)" stroke-width="0.9158821058014004" fill="rgb(0,0,0)" stroke-linecap="butt" stroke-miterlimit="10.0"><path d="M 24.2152,87.9346 h 2.5329 "/></g><g stroke-linejoin="miter" stroke-opacity="1.0" fill-opacity="0.6" stroke="rgb(0,0,0)" fill-rule="evenodd" stroke-width="0.0" fill="rgb(0,0,0)" stroke-linecap="butt" stroke-miterlimit="10.0"><path d="M 14.3631,98.0660 ZM 15.5897,95.0249 c -0.2408,-0.0000 -0.5937,0.2352 -0.5937 1.5402c 0.0000,0.4592 0.0840,1.3833 0.5769 1.3833c 0.0952,-0.0000 0.3640,-0.0616 0.4816 -0.4985c 0.0728,-0.2688 0.1120,-0.6049 0.1120 -1.0921c 0.0000,-0.7113 -0.1792,-1.1089 -0.3416 -1.2489c -0.0616,-0.0560 -0.1456,-0.0840 -0.2352 -0.0840ZM 15.5897,95.0249 ZM 15.5673,98.1332 c -0.5993,-0.0000 -1.0025,-0.7673 -1.0025 -1.6242c 0.0000,-1.0473 0.4985,-1.6802 1.0249 -1.6802c 0.2408,-0.0000 0.4816,0.1512 0.6441 0.3696c 0.2352,0.3136 0.3584,0.7337 0.3584 1.2601c 0.0000,1.2433 -0.6161,1.6746 -1.0249 1.6746ZM 16.8162,98.0660 ZM 17.1354,97.8364 c 0.0000,-0.1624 0.1344,-0.2968 0.2968 -0.2968c 0.1624,-0.0000 0.2968,0.1344 0.2968 0.2968c 0.0000,0.1624 -0.1344,0.2968 -0.2968 0.2968c -0.1624,-0.0000 -0.2968,-0.1344 -0.2968 -0.2968ZM 18.0427,98.0660 ZM 19.2692,95.0249 c -0.2408,-0.0000 -0.5937,0.2352 -0.5937 1.5402c 0.0000,0.4592 0.0840,1.3833 0.5769 1.3833c 0.0952,-0.0000 0.3640,-0.0616 0.4816 -0.4985c 0.0728,-0.2688 0.1120,-0.6049 0.1120 -1.0921c 0.0000,-0.7113 -0.1792,-1.1089 -0.3416 -1.2489c -0.0616,-0.0560 -0.1456,-0.0840 -0.2352 -0.0840ZM 19.2692,95.0249 ZM 19.2468,98.1332 c -0.5993,-0.0000 -1.0025,-0.7673 -1.0025 -1.6242c 0.0000,-1.0473 0.4985,-1.6802 1.0249 -1.6802c 0.2408,-0.0000 0.4816,0.1512 0.6441 0.3696c 0.2352,0.3136 0.3584,0.7337 0.3584 1.2601c 0.0000,1.2433 -0.6161,1.6746 -1.0249 1.6746ZM 20.4958,98.0660 ZM 21.7223,95.0249 c -0.2408,-0.0000 -0.5937,0.2352 -0.5937 1.5402c 0.0000,0.4592 0.0840,1.3833 0.5769 1.3833c 0.0952,-0.0000 0.3640,-0.0616 0.4816 -0.4985c 0.0728,-0.2688 0.1120,-0.6049 0.1120 -1.0921c 0.0000,-0.7113 -0.1792,-1.1089 -0.3416 -1.2489c -0.0616,-0.0560 -0.1456,-0.0840 -0.2352 -0.0840ZM 21.7223,95.0249 ZM 21.6999,98.1332 c -0.5993,-0.0000 -1.0025,-0.7673 -1.0025 -1.6242c 0.0000,-1.0473 0.4985,-1.6802 1.0249 -1.6802c 0.2408,-0.0000 0.4816,0.1512 0.6441 0.3696c 0.2352,0.3136 0.3584,0.7337 0.3584 1.2601c 0.0000,1.2433 -0.6161,1.6746 -1.0249 1.6746Z"/></g><g stroke-linejoin="miter" stroke-opacity="0.6" fill-opacity="0.0" stroke="rgb(0,0,0)" stroke-width="0.9158821058014004" fill="rgb(0,0,0)" stroke-linecap="butt" stroke-miterlimit="10.0"><path d="M 24.2152,96.3775 h 2.5329 "/></g><g stroke-linejoin="miter" stroke-opacity="0.0" fill-opacity="0.1" stroke="rgb(0,0,0)" stroke-width="0.0" fill="rgb(0,0,0)" stroke-linecap="butt" stroke-miterlimit="10.0"><path d="M 284.6374,101.4432 l -0.0000,-1.6886 h -253.2856 l -0.0000,1.6886 Z"/></g><g stroke-linejoin="miter" stroke-opacity="1.0" fill-opacity="0.6" stroke="rgb(0,0,0)" fill-rule="evenodd" stroke-width="0.0" fill="rgb(0,0,0)" stroke-linecap="butt" stroke-miterlimit="10.0"><path d="M 282.1843,108.5608 ZM 283.2372,105.8893 c -0.1064,-0.0000 -0.3528,0.1008 -0.4760 0.1568l -0.0672,-0.1736 c 0.4928,-0.2296 0.6833,-0.3472 0.9633 -0.5489h 0.1064 v 2.8171 c 0.0000,0.2016 0.0280,0.2576 0.2128 0.2576h 0.2912 c 0.0168,-0.0000 0.0448,0.0112 0.0448 0.0448v 0.1232 l -0.7673,-0.0112 l -0.7785,0.0112 v -0.1232 c 0.0056,-0.0168 0.0112,-0.0448 0.0448 -0.0448h 0.3360 c 0.2128,-0.0000 0.2128,-0.0952 0.2128 -0.2576v -1.9266 c 0.0000,-0.1904 0.0000,-0.3248 -0.1232 -0.3248ZM 284.6374,108.5608 ZM 284.9622,106.0797 c 0.0000,-0.3192 0.3080,-0.7561 0.8961 -0.7561c 0.4312,-0.0000 0.9353,0.1624 0.9353 0.8065c 0.0000,0.4256 -0.2184,0.6385 -0.5209 0.9297l -0.5321,0.5153 c -0.0280,0.0280 -0.4032,0.3976 -0.4032 0.6609h 0.9521 c 0.1904,-0.0000 0.2912,-0.0952 0.3696 -0.4032l 0.1400,0.0224 l -0.1120,0.7057 h -1.7306 c 0.0000,-0.3136 0.0504,-0.5545 0.5713 -1.0865l 0.3920,-0.3864 c 0.3136,-0.3192 0.4424,-0.5937 0.4424 -0.9353c 0.0000,-0.5097 -0.3472,-0.6553 -0.5377 -0.6553c -0.3864,-0.0000 -0.4928,0.2016 -0.4928 0.3360c 0.0000,0.0448 0.0112,0.0896 0.0224 0.1288c 0.0112,0.0392 0.0224,0.0784 0.0224 0.1232c 0.0000,0.1456 -0.1120,0.2016 -0.2016 0.2016c -0.1232,-0.0000 -0.2128,-0.0952 -0.2128 -0.2072Z"/></g><g stroke-linejoin="miter" stroke-opacity="0.6" fill-opacity="0.0" stroke="rgb(0,0,0)" stroke-width="0.9158821058014004" fill="rgb(0,0,0)" stroke-linecap="butt" stroke-miterlimit="10.0"><path d="M 284.6374,99.7546 v 2.5329 "/></g><g stroke-linejoin="miter" stroke-opacity="1.0" fill-opacity="0.6" stroke="rgb(0,0,0)" fill-rule="evenodd" stroke-width="0.0" fill="rgb(0,0,0)" stroke-linecap="butt" stroke-miterlimit="10.0"><path d="M 239.9701,108.5608 ZM 241.0230,105.8893 c -0.1064,-0.0000 -0.3528,0.1008 -0.4760 0.1568l -0.0672,-0.1736 c 0.4928,-0.2296 0.6833,-0.3472 0.9633 -0.5489h 0.1064 v 2.8171 c 0.0000,0.2016 0.0280,0.2576 0.2128 0.2576h 0.2912 c 0.0168,-0.0000 0.0448,0.0112 0.0448 0.0448v 0.1232 l -0.7673,-0.0112 l -0.7785,0.0112 v -0.1232 c 0.0056,-0.0168 0.0112,-0.0448 0.0448 -0.0448h 0.3360 c 0.2128,-0.0000 0.2128,-0.0952 0.2128 -0.2576v -1.9266 c 0.0000,-0.1904 0.0000,-0.3248 -0.1232 -0.3248ZM 242.4231,108.5608 ZM 243.6496,105.5197 c -0.2408,-0.0000 -0.5937,0.2352 -0.5937 1.5402c 0.0000,0.4592 0.0840,1.3833 0.5769 1.3833c 0.0952,-0.0000 0.3640,-0.0616 0.4816 -0.4985c 0.0728,-0.2688 0.1120,-0.6049 0.1120 -1.0921c 0.0000,-0.7113 -0.1792,-1.1089 -0.3416 -1.2489c -0.0616,-0.0560 -0.1456,-0.0840 -0.2352 -0.0840ZM 243.6496,105.5197 ZM 243.6272,108.6280 c -0.5993,-0.0000 -1.0025,-0.7673 -1.0025 -1.6242c 0.0000,-1.0473 0.4985,-1.6802 1.0249 -1.6802c 0.2408,-0.0000 0.4816,0.1512 0.6441 0.3696c 0.2352,0.3136 0.3584,0.7337 0.3584 1.2601c 0.0000,1.2433 -0.6161,1.6746 -1.0249 1.6746Z"/></g><g stroke-linejoin="miter" stroke-opacity="0.6" fill-opacity="0.0" stroke="rgb(0,0,0)" stroke-width="0.9158821058014004" fill="rgb(0,0,0)" stroke-linecap="butt" stroke-miterlimit="10.0"><path d="M 242.4231,99.7546 v 2.5329 "/></g><g stroke-linejoin="miter" stroke-opacity="1.0" fill-opacity="0.6" stroke="rgb(0,0,0)" fill-rule="evenodd" stroke-width="0.0" fill="rgb(0,0,0)" stroke-linecap="butt" stroke-miterlimit="10.0"><path d="M 198.9823,108.5608 ZM 200.2256,105.4581 c -0.3192,-0.0000 -0.5265,0.2520 -0.5265 0.4985c 0.0000,0.1624 0.0672,0.3584 0.4032 0.5769l 0.1624,0.1008 c 0.1456,-0.1064 0.4872,-0.3640 0.4872 -0.6497c 0.0000,-0.2464 -0.1792,-0.5265 -0.5265 -0.5265ZM 200.2256,105.4581 ZM 201.0825,105.9901 c 0.0000,0.3416 -0.3864,0.6105 -0.6217 0.7673l 0.3248,0.2128 c 0.2744,0.1792 0.4144,0.4256 0.4144 0.7337c 0.0000,0.4032 -0.3304,0.9241 -1.0249 0.9241c -0.5601,-0.0000 -0.9465,-0.2968 -0.9465 -0.8401c 0.0000,-0.2072 0.0896,-0.4480 0.3080 -0.6385c 0.1344,-0.1176 0.2520,-0.2184 0.3864 -0.3192l -0.0952,-0.0560 c -0.3248,-0.2016 -0.4872,-0.4200 -0.4872 -0.7169c 0.0000,-0.4088 0.3696,-0.7337 0.9129 -0.7337c 0.5209,-0.0000 0.8289,0.2856 0.8289 0.6665ZM 201.0825,105.9901 ZM 200.1864,108.4712 c 0.2408,-0.0000 0.6609,-0.1288 0.6609 -0.6609c 0.0000,-0.2520 -0.1568,-0.5041 -0.4872 -0.7057l -0.2464,-0.1512 c -0.4536,0.3024 -0.5545,0.6777 -0.5545 0.8345c 0.0000,0.4760 0.3864,0.6833 0.6273 0.6833Z"/></g><g stroke-linejoin="miter" stroke-opacity="0.6" fill-opacity="0.0" stroke="rgb(0,0,0)" stroke-width="0.9158821058014004" fill="rgb(0,0,0)" stroke-linecap="butt" stroke-miterlimit="10.0"><path d="M 200.2088,99.7546 v 2.5329 "/></g><g stroke-linejoin="miter" stroke-opacity="1.0" fill-opacity="0.6" stroke="rgb(0,0,0)" fill-rule="evenodd" stroke-width="0.0" fill="rgb(0,0,0)" stroke-linecap="butt" stroke-miterlimit="10.0"><path d="M 156.7680,108.5608 ZM 157.4177,107.0934 c -0.0056,0.0560 -0.0056,0.1400 -0.0056 0.1960c 0.0000,0.9409 0.4200,1.1761 0.7001 1.1761c 0.2576,-0.0000 0.5321,-0.2408 0.5321 -0.8233c 0.0000,-0.2632 -0.1344,-0.8009 -0.6721 -0.8009c -0.1176,-0.0000 -0.3304,0.0112 -0.5545 0.2520ZM 157.4177,107.0934 ZM 158.8851,105.4693 c -0.3640,0.0336 -0.6777,0.1288 -0.9465 0.3920c -0.2576,0.2520 -0.4424,0.6273 -0.5041 1.0753c 0.1288,-0.1568 0.4368,-0.2744 0.6497 -0.2744c 0.8289,-0.0000 0.9353,0.6833 0.9353 0.9409c 0.0000,0.3808 -0.1904,1.0249 -0.9633 1.0249c -0.4088,-0.0000 -1.0305,-0.2408 -1.0305 -1.3553c 0.0000,-0.5153 0.1736,-1.0193 0.5601 -1.4057c 0.3584,-0.3640 0.7337,-0.5153 1.2825 -0.5433Z"/></g><g stroke-linejoin="miter" stroke-opacity="0.6" fill-opacity="0.0" stroke="rgb(0,0,0)" stroke-width="0.9158821058014004" fill="rgb(0,0,0)" stroke-linecap="butt" stroke-miterlimit="10.0"><path d="M 157.9946,99.7546 v 2.5329 "/></g><g stroke-linejoin="miter" stroke-opacity="1.0" fill-opacity="0.6" stroke="rgb(0,0,0)" fill-rule="evenodd" stroke-width="0.0" fill="rgb(0,0,0)" stroke-linecap="butt" stroke-miterlimit="10.0"><path d="M 114.5538,108.5608 ZM 115.9987,106.5726 c 0.0000,-0.0392 0.0056,-0.0840 0.0560 -0.1120c 0.0616,-0.0448 0.1624,-0.0952 0.2464 -0.0952c 0.0728,-0.0000 0.0784,0.0616 0.0784 0.1736v 0.9017 h 0.4536 l -0.0336,0.2632 h -0.4200 v 0.4648 c 0.0000,0.1568 0.0224,0.2352 0.1848 0.2352h 0.1512 c 0.0336,-0.0000 0.0392,0.0280 0.0392 0.0392v 0.1232 c 0.0000,-0.0000 -0.3584,-0.0112 -0.5937 -0.0112c -0.2128,-0.0000 -0.5433,0.0112 -0.5433 0.0112v -0.1232 c 0.0000,-0.0112 0.0056,-0.0392 0.0392 -0.0392h 0.1512 c 0.1736,-0.0000 0.1904,-0.0728 0.1904 -0.2352v -0.4648 h -1.0977 c -0.0224,-0.0000 -0.0336,-0.0112 -0.0504 -0.0336l -0.0448,-0.0616 l -0.0672,-0.1176 c -0.0056,-0.0000 -0.0056,-0.0056 -0.0056 -0.0112c 0.0000,-0.0056 0.0056,-0.0112 0.0112 -0.0168c 0.3640,-0.4032 1.0081,-1.6522 1.2097 -2.1114c 0.0056,-0.0224 0.0168,-0.0280 0.0392 -0.0280c 0.0056,-0.0000 0.1288,0.0504 0.1960 0.0616c -0.2520,0.6777 -0.6665,1.4057 -1.0753 2.0554h 0.8849 v -0.8681 Z"/></g><g stroke-linejoin="miter" stroke-opacity="0.6" fill-opacity="0.0" stroke="rgb(0,0,0)" stroke-width="0.9158821058014004" fill="rgb(0,0,0)" stroke-linecap="butt" stroke-miterlimit="10.0"><path d="M 115.7803,99.7546 v 2.5329 "/></g><g stroke-linejoin="miter" stroke-opacity="1.0" fill-opacity="0.6" stroke="rgb(0,0,0)" fill-rule="evenodd" stroke-width="0.0" fill="rgb(0,0,0)" stroke-linecap="butt" stroke-miterlimit="10.0"><path d="M 72.3395,108.5608 ZM 72.6643,106.0797 c 0.0000,-0.3192 0.3080,-0.7561 0.8961 -0.7561c 0.4312,-0.0000 0.9353,0.1624 0.9353 0.8065c 0.0000,0.4256 -0.2184,0.6385 -0.5209 0.9297l -0.5321,0.5153 c -0.0280,0.0280 -0.4032,0.3976 -0.4032 0.6609h 0.9521 c 0.1904,-0.0000 0.2912,-0.0952 0.3696 -0.4032l 0.1400,0.0224 l -0.1120,0.7057 h -1.7306 c 0.0000,-0.3136 0.0504,-0.5545 0.5713 -1.0865l 0.3920,-0.3864 c 0.3136,-0.3192 0.4424,-0.5937 0.4424 -0.9353c 0.0000,-0.5097 -0.3472,-0.6553 -0.5377 -0.6553c -0.3864,-0.0000 -0.4928,0.2016 -0.4928 0.3360c 0.0000,0.0448 0.0112,0.0896 0.0224 0.1288c 0.0112,0.0392 0.0224,0.0784 0.0224 0.1232c 0.0000,0.1456 -0.1120,0.2016 -0.2016 0.2016c -0.1232,-0.0000 -0.2128,-0.0952 -0.2128 -0.2072Z"/></g><g stroke-linejoin="miter" stroke-opacity="0.6" fill-opacity="0.0" stroke="rgb(0,0,0)" stroke-width="0.9158821058014004" fill="rgb(0,0,0)" stroke-linecap="butt" stroke-miterlimit="10.0"><path d="M 73.5660,99.7546 v 2.5329 "/></g><g stroke-linejoin="miter" stroke-opacity="1.0" fill-opacity="0.6" stroke="rgb(0,0,0)" fill-rule="evenodd" stroke-width="0.0" fill="rgb(0,0,0)" stroke-linecap="butt" stroke-miterlimit="10.0"><path d="M 30.1252,108.5608 ZM 31.3518,105.5197 c -0.2408,-0.0000 -0.5937,0.2352 -0.5937 1.5402c 0.0000,0.4592 0.0840,1.3833 0.5769 1.3833c 0.0952,-0.0000 0.3640,-0.0616 0.4816 -0.4985c 0.0728,-0.2688 0.1120,-0.6049 0.1120 -1.0921c 0.0000,-0.7113 -0.1792,-1.1089 -0.3416 -1.2489c -0.0616,-0.0560 -0.1456,-0.0840 -0.2352 -0.0840ZM 31.3518,105.5197 ZM 31.3294,108.6280 c -0.5993,-0.0000 -1.0025,-0.7673 -1.0025 -1.6242c 0.0000,-1.0473 0.4985,-1.6802 1.0249 -1.6802c 0.2408,-0.0000 0.4816,0.1512 0.6441 0.3696c 0.2352,0.3136 0.3584,0.7337 0.3584 1.2601c 0.0000,1.2433 -0.6161,1.6746 -1.0249 1.6746Z"/></g><g stroke-linejoin="miter" stroke-opacity="0.6" fill-opacity="0.0" stroke="rgb(0,0,0)" stroke-width="0.9158821058014004" fill="rgb(0,0,0)" stroke-linecap="butt" stroke-miterlimit="10.0"><path d="M 31.3518,99.7546 v 2.5329 "/></g><g stroke-linejoin="miter" stroke-opacity="0.0" fill-opacity="0.0" stroke="rgb(0,0,0)" stroke-width="0.0" fill="rgb(0,0,0)" stroke-linecap="butt" stroke-miterlimit="10.0"><path d="M 284.6374,96.3775 l -0.0000,-84.4285 h -253.2856 l -0.0000,84.4285 Z"/></g><g stroke-linejoin="miter" stroke-opacity="0.5" fill-opacity="0.0" stroke="rgb(93,165,218)" stroke-width="3.6635284232056016" fill="rgb(0,0,0)" stroke-linecap="butt" stroke-miterlimit="10.0"><path d="M 242.4231,96.3775 v -42.2143 "/></g><g stroke-linejoin="miter" stroke-opacity="0.5" fill-opacity="0.0" stroke="rgb(93,165,218)" stroke-width="3.6635284232056016" fill="rgb(0,0,0)" stroke-linecap="butt" stroke-miterlimit="10.0"><path d="M 221.3160,96.3775 v -37.9928 "/></g><g stroke-linejoin="miter" stroke-opacity="0.5" fill-opacity="0.0" stroke="rgb(93,165,218)" stroke-width="3.6635284232056016" fill="rgb(0,0,0)" stroke-linecap="butt" stroke-miterlimit="10.0"><path d="M 200.2088,96.3775 v -33.7714 "/></g><g stroke-linejoin="miter" stroke-opacity="0.5" fill-opacity="0.0" stroke="rgb(93,165,218)" stroke-width="3.6635284232056016" fill="rgb(0,0,0)" stroke-linecap="butt" stroke-miterlimit="10.0"><path d="M 179.1017,96.3775 v -29.5500 "/></g><g stroke-linejoin="miter" stroke-opacity="0.5" fill-opacity="0.0" stroke="rgb(93,165,218)" stroke-width="3.6635284232056016" fill="rgb(0,0,0)" stroke-linecap="butt" stroke-miterlimit="10.0"><path d="M 157.9946,96.3775 v -25.3286 "/></g><g stroke-linejoin="miter" stroke-opacity="0.5" fill-opacity="0.0" stroke="rgb(93,165,218)" stroke-width="3.6635284232056016" fill="rgb(0,0,0)" stroke-linecap="butt" stroke-miterlimit="10.0"><path d="M 136.8874,96.3775 v -21.1071 "/></g><g stroke-linejoin="miter" stroke-opacity="0.5" fill-opacity="0.0" stroke="rgb(93,165,218)" stroke-width="3.6635284232056016" fill="rgb(0,0,0)" stroke-linecap="butt" stroke-miterlimit="10.0"><path d="M 115.7803,96.3775 v -16.8857 "/></g><g stroke-linejoin="miter" stroke-opacity="0.5" fill-opacity="0.0" stroke="rgb(93,165,218)" stroke-width="3.6635284232056016" fill="rgb(0,0,0)" stroke-linecap="butt" stroke-miterlimit="10.0"><path d="M 94.6732,96.3775 v -12.6643 "/></g><g stroke-linejoin="miter" stroke-opacity="0.5" fill-opacity="0.0" stroke="rgb(93,165,218)" stroke-width="3.6635284232056016" fill="rgb(0,0,0)" stroke-linecap="butt" stroke-miterlimit="10.0"><path d="M 73.5660,96.3775 v -8.4429 "/></g><g stroke-linejoin="miter" stroke-opacity="0.5" fill-opacity="0.0" stroke="rgb(93,165,218)" stroke-width="3.6635284232056016" fill="rgb(0,0,0)" stroke-linecap="butt" stroke-miterlimit="10.0"><path d="M 52.4589,96.3775 v -4.2214 "/></g><g stroke-linejoin="miter" stroke-opacity="0.5" fill-opacity="0.0" stroke="rgb(93,165,218)" stroke-width="3.6635284232056016" fill="rgb(0,0,0)" stroke-linecap="butt" stroke-miterlimit="10.0"><path d="M 31.3518,96.3775 h 0.0000 "/></g></svg>