<?xml version="1.0" encoding="UTF-8"?>
<!DOCTYPE svg PUBLIC "-//W3C//DTD SVG 1.1//EN"
    "http://www.w3.org/Graphics/SVG/1.1/DTD/svg11.dtd"><svg xmlns="http://www.w3.org/2000/svg" height="120.0000" stroke-opacity="1" viewBox="0 0 300 120" font-size="1" width="300.0000" xmlns:xlink="http://www.w3.org/1999/xlink" stroke="rgb(0,0,0)" version="1.1"><defs></defs><g stroke-linejoin="miter" stroke-opacity="0.0" fill-opacity="0.1" stroke="rgb(0,0,0)" stroke-width="0.0" fill="rgb(0,0,0)" stroke-linecap="butt" stroke-miterlimit="10.0"><path d="M 26.8094,98.0396 l -0.0000,-84.4285 h -1.6886 l -0.0000,84.4285 Z"/></g><g stroke-linejoin="miter" stroke-opacity="1.0" fill-opacity="0.6" stroke="rgb(0,0,0)" fill-rule="evenodd" stroke-width="0.0" fill="rgb(0,0,0)" stroke-linecap="butt" stroke-miterlimit="10.0"><path d="M 14.4245,13.6110 ZM 15.6510,10.5699 c -0.2408,-0.0000 -0.5937,0.2352 -0.5937 1.5402c 0.0000,0.4592 0.0840,1.3833 0.5769 1.3833c 0.0952,-0.0000 0.3640,-0.0616 0.4816 -0.4985c 0.0728,-0.2688 0.1120,-0.6049 0.1120 -1.0921c 0.0000,-0.7113 -0.1792,-1.1089 -0.3416 -1.2489c -0.0616,-0.0560 -0.1456,-0.0840 -0.2352 -0.0840ZM 15.6510,10.5699 ZM 15.6286,13.6782 c -0.5993,-0.0000 -1.0025,-0.7673 -1.0025 -1.6242c 0.0000,-1.0473 0.4985,-1.6802 1.0249 -1.6802c 0.2408,-0.0000 0.4816,0.1512 0.6441 0.3696c 0.2352,0.3136 0.3584,0.7337 0.3584 1.2601c 0.0000,1.2433 -0.6161,1.6746 -1.0249 1.6746ZM 16.8775,13.6110 ZM 17.1967,13.3814 c 0.0000,-0.1624 0.1344,-0.2968 0.2968 -0.2968c 0.1624,-0.0000 0.2968,0.1344 0.2968 0.2968c 0.0000,0.1624 -0.1344,0.2968 -0.2968 0.2968c -0.1624,-0.0000 -0.2968,-0.1344 -0.2968 -0.2968ZM 18.1040,13.6110 ZM 18.4289,11.1300 c 0.0000,-0.3192 0.3080,-0.7561 0.8961 -0.7561c 0.4312,-0.0000 0.9353,0.1624 0.9353 0.8065c 0.0000,0.4256 -0.2184,0.6385 -0.5209 0.9297l -0.5321,0.5153 c -0.0280,0.0280 -0.4032,0.3976 -0.4032 0.6609h 0.9521 c 0.1904,-0.0000 0.2912,-0.0952 0.3696 -0.4032l 0.1400,0.0224 l -0.1120,0.7057 h -1.7306 c 0.0000,-0.3136 0.0504,-0.5545 0.5713 -1.0865l 0.3920,-0.3864 c 0.3136,-0.3192 0.4424,-0.5937 0.4424 -0.9353c 0.0000,-0.5097 -0.3472,-0.6553 -0.5377 -0.6553c -0.3864,-0.0000 -0.4928,0.2016 -0.4928 0.3360c 0.0000,0.0448 0.0112,0.0896 0.0224 0.1288c 0.0112,0.0392 0.0224,0.0784 0.0224 0.1232c 0.0000,0.1456 -0.1120,0.2016 -0.2016 0.2016c -0.1232,-0.0000 -0.2128,-0.0952 -0.2128 -0.2072ZM 20.5571,13.6110 ZM 21.7836,10.5699 c -0.2408,-0.0000 -0.5937,0.2352 -0.5937 1.5402c 0.0000,0.4592 0.0840,1.3833 0.5769 1.3833c 0.0952,-0.0000 0.3640,-0.0616 0.4816 -0.4985c 0.0728,-0.2688 0.1120,-0.6049 0.1120 -1.0921c 0.0000,-0.7113 -0.1792,-1.1089 -0.3416 -1.2489c -0.0616,-0.0560 -0.1456,-0.0840 -0.2352 -0.0840ZM 21.7836,10.5699 ZM 21.7612,13.6782 c -0.5993,-0.0000 -1.0025,-0.7673 -1.0025 -1.6242c 0.0000,-1.0473 0.4985,-1.6802 1.0249 -1.6802c 0.2408,-0.0000 0.4816,0.1512 0.6441 0.3696c 0.2352,0.3136 0.3584,0.7337 0.3584 1.2601c 0.0000,1.2433 -0.6161,1.6746 -1.0249 1.6746Z"/></g><g stroke-linejoin="miter" stroke-opacity="0.6" fill-opacity="0.0" stroke="rgb(0,0,0)" stroke-width="0.9161469209552453" fill="rgb(0,0,0)" stroke-linecap="butt" stroke-miterlimit="10.0"><path d="M 24.2766,13.6110 h 2.5329 "/></g><g stroke-linejoin="miter" stroke-opacity="1.0" fill-opacity="0.6" stroke="rgb(0,0,0)" fill-rule="evenodd" stroke-width="0.0" fill="rgb(0,0,0)" stroke-linecap="butt" stroke-miterlimit="10.0"><path d="M 14.4245,22.0539 ZM 15.6510,19.0128 c -0.2408,-0.0000 -0.5937,0.2352 -0.5937 1.5402c 0.0000,0.4592 0.0840,1.3833 0.5769 1.3833c 0.0952,-0.0000 0.3640,-0.0616 0.4816 -0.4985c 0.0728,-0.2688 0.1120,-0.6049 0.1120 -1.0921c 0.0000,-0.7113 -0.1792,-1.1089 -0.3416 -1.2489c -0.0616,-0.0560 -0.1456,-0.0840 -0.2352 -0.0840ZM 15.6510,19.0128 ZM 15.6286,22.1211 c -0.5993,-0.0000 -1.0025,-0.7673 -1.0025 -1.6242c 0.0000,-1.0473 0.4985,-1.6802 1.0249 -1.6802c 0.2408,-0.0000 0.4816,0.1512 0.6441 0.3696c 0.2352,0.3136 0.3584,0.7337 0.3584 1.2601c 0.0000,1.2433 -0.6161,1.6746 -1.0249 1.6746ZM 16.8775,22.0539 ZM 17.1967,21.8243 c 0.0000,-0.1624 0.1344,-0.2968 0.2968 -0.2968c 0.1624,-0.0000 0.2968,0.1344 0.2968 0.2968c 0.0000,0.1624 -0.1344,0.2968 -0.2968 0.2968c -0.1624,-0.0000 -0.2968,-0.1344 -0.2968 -0.2968ZM 18.1040,22.0539 ZM 19.1569,19.3824 c -0.1064,-0.0000 -0.3528,0.1008 -0.4760 0.1568l -0.0672,-0.1736 c 0.4928,-0.2296 0.6833,-0.3472 0.9633 -0.5489h 0.1064 v 2.8171 c 0.0000,0.2016 0.0280,0.2576 0.2128 0.2576h 0.2912 c 0.0168,-0.0000 0.0448,0.0112 0.0448 0.0448v 0.1232 l -0.7673,-0.0112 l -0.7785,0.0112 v -0.1232 c 0.0056,-0.0168 0.0112,-0.0448 0.0448 -0.0448h 0.3360 c 0.2128,-0.0000 0.2128,-0.0952 0.2128 -0.2576v -1.9266 c 0.0000,-0.1904 0.0000,-0.3248 -0.1232 -0.3248ZM 20.5571,22.0539 ZM 21.8004,18.9512 c -0.3192,-0.0000 -0.5265,0.2520 -0.5265 0.4985c 0.0000,0.1624 0.0672,0.3584 0.4032 0.5769l 0.1624,0.1008 c 0.1456,-0.1064 0.4872,-0.3640 0.4872 -0.6497c 0.0000,-0.2464 -0.1792,-0.5265 -0.5265 -0.5265ZM 21.8004,18.9512 ZM 22.6573,19.4832 c 0.0000,0.3416 -0.3864,0.6105 -0.6217 0.7673l 0.3248,0.2128 c 0.2744,0.1792 0.4144,0.4256 0.4144 0.7337c 0.0000,0.4032 -0.3304,0.9241 -1.0249 0.9241c -0.5601,-0.0000 -0.9465,-0.2968 -0.9465 -0.8401c 0.0000,-0.2072 0.0896,-0.4480 0.3080 -0.6385c 0.1344,-0.1176 0.2520,-0.2184 0.3864 -0.3192l -0.0952,-0.0560 c -0.3248,-0.2016 -0.4872,-0.4200 -0.4872 -0.7169c 0.0000,-0.4088 0.3696,-0.7337 0.9129 -0.7337c 0.5209,-0.0000 0.8289,0.2856 0.8289 0.6665ZM 22.6573,19.4832 ZM 21.7612,21.9643 c 0.2408,-0.0000 0.6609,-0.1288 0.6609 -0.6609c 0.0000,-0.2520 -0.1568,-0.5041 -0.4872 -0.7057l -0.2464,-0.1512 c -0.4536,0.3024 -0.5545,0.6777 -0.5545 0.8345c 0.0000,0.4760 0.3864,0.6833 0.6273 0.6833Z"/></g><g stroke-linejoin="miter" stroke-opacity="0.6" fill-opacity="0.0" stroke="rgb(0,0,0)" stroke-width="0.9161469209552453" fill="rgb(0,0,0)" stroke-linecap="butt" stroke-miterlimit="10.0"><path d="M 24.2766,22.0539 h 2.5329 "/></g><g stroke-linejoin="miter" stroke-opacity="1.0" fill-opacity="0.6" stroke="rgb(0,0,0)" fill-rule="evenodd" stroke-width="0.0" fill="rgb(0,0,0)" stroke-linecap="butt" stroke-miterlimit="10.0"><path d="M 14.4245,30.4967 ZM 15.6510,27.4556 c -0.2408,-0.0000 -0.5937,0.2352 -0.5937 1.5402c 0.0000,0.4592 0.0840,1.3833 0.5769 1.3833c 0.0952,-0.0000 0.3640,-0.0616 0.4816 -0.4985c 0.0728,-0.2688 0.1120,-0.6049 0.1120 -1.0921c 0.0000,-0.7113 -0.1792,-1.1089 -0.3416 -1.2489c -0.0616,-0.0560 -0.1456,-0.0840 -0.2352 -0.0840ZM 15.6510,27.4556 ZM 15.6286,30.5639 c -0.5993,-0.0000 -1.0025,-0.7673 -1.0025 -1.6242c 0.0000,-1.0473 0.4985,-1.6802 1.0249 -1.6802c 0.2408,-0.0000 0.4816,0.1512 0.6441 0.3696c 0.2352,0.3136 0.3584,0.7337 0.3584 1.2601c 0.0000,1.2433 -0.6161,1.6746 -1.0249 1.6746ZM 16.8775,30.4967 ZM 17.1967,30.2671 c 0.0000,-0.1624 0.1344,-0.2968 0.2968 -0.2968c 0.1624,-0.0000 0.2968,0.1344 0.2968 0.2968c 0.0000,0.1624 -0.1344,0.2968 -0.2968 0.2968c -0.1624,-0.0000 -0.2968,-0.1344 -0.2968 -0.2968ZM 18.1040,30.4967 ZM 19.1569,27.8253 c -0.1064,-0.0000 -0.3528,0.1008 -0.4760 0.1568l -0.0672,-0.1736 c 0.4928,-0.2296 0.6833,-0.3472 0.9633 -0.5489h 0.1064 v 2.8171 c 0.0000,0.2016 0.0280,0.2576 0.2128 0.2576h 0.2912 c 0.0168,-0.0000 0.0448,0.0112 0.0448 0.0448v 0.1232 l -0.7673,-0.0112 l -0.7785,0.0112 v -0.1232 c 0.0056,-0.0168 0.0112,-0.0448 0.0448 -0.0448h 0.3360 c 0.2128,-0.0000 0.2128,-0.0952 0.2128 -0.2576v -1.9266 c 0.0000,-0.1904 0.0000,-0.3248 -0.1232 -0.3248ZM 20.5571,30.4967 ZM 21.2068,29.0294 c -0.0056,0.0560 -0.0056,0.1400 -0.0056 0.1960c 0.0000,0.9409 0.4200,1.1761 0.7001 1.1761c 0.2576,-0.0000 0.5321,-0.2408 0.5321 -0.8233c 0.0000,-0.2632 -0.1344,-0.8009 -0.6721 -0.8009c -0.1176,-0.0000 -0.3304,0.0112 -0.5545 0.2520ZM 21.2068,29.0294 ZM 22.6741,27.4052 c -0.3640,0.0336 -0.6777,0.1288 -0.9465 0.3920c -0.2576,0.2520 -0.4424,0.6273 -0.5041 1.0753c 0.1288,-0.1568 0.4368,-0.2744 0.6497 -0.2744c 0.8289,-0.0000 0.9353,0.6833 0.9353 0.9409c 0.0000,0.3808 -0.1904,1.0249 -0.9633 1.0249c -0.4088,-0.0000 -1.0305,-0.2408 -1.0305 -1.3553c 0.0000,-0.5153 0.1736,-1.0193 0.5601 -1.4057c 0.3584,-0.3640 0.7337,-0.5153 1.2825 -0.5433Z"/></g><g stroke-linejoin="miter" stroke-opacity="0.6" fill-opacity="0.0" stroke="rgb(0,0,0)" stroke-width="0.9161469209552453" fill="rgb(0,0,0)" stroke-linecap="butt" stroke-miterlimit="10.0"><path d="M 24.2766,30.4967 h 2.5329 "/></g><g stroke-linejoin="miter" stroke-opacity="1.0" fill-opacity="0.6" stroke="rgb(0,0,0)" fill-rule="evenodd" stroke-width="0.0" fill="rgb(0,0,0)" stroke-linecap="butt" stroke-miterlimit="10.0"><path d="M 14.4245,38.9396 ZM 15.6510,35.8985 c -0.2408,-0.0000 -0.5937,0.2352 -0.5937 1.5402c 0.0000,0.4592 0.0840,1.3833 0.5769 1.3833c 0.0952,-0.0000 0.3640,-0.0616 0.4816 -0.4985c 0.0728,-0.2688 0.1120,-0.6049 0.1120 -1.0921c 0.0000,-0.7113 -0.1792,-1.1089 -0.3416 -1.2489c -0.0616,-0.0560 -0.1456,-0.0840 -0.2352 -0.0840ZM 15.6510,35.8985 ZM 15.6286,39.0068 c -0.5993,-0.0000 -1.0025,-0.7673 -1.0025 -1.6242c 0.0000,-1.0473 0.4985,-1.6802 1.0249 -1.6802c 0.2408,-0.0000 0.4816,0.1512 0.6441 0.3696c 0.2352,0.3136 0.3584,0.7337 0.3584 1.2601c 0.0000,1.2433 -0.6161,1.6746 -1.0249 1.6746ZM 16.8775,38.9396 ZM 17.1967,38.7100 c 0.0000,-0.1624 0.1344,-0.2968 0.2968 -0.2968c 0.1624,-0.0000 0.2968,0.1344 0.2968 0.2968c 0.0000,0.1624 -0.1344,0.2968 -0.2968 0.2968c -0.1624,-0.0000 -0.2968,-0.1344 -0.2968 -0.2968ZM 18.1040,38.9396 ZM 19.1569,36.2681 c -0.1064,-0.0000 -0.3528,0.1008 -0.4760 0.1568l -0.0672,-0.1736 c 0.4928,-0.2296 0.6833,-0.3472 0.9633 -0.5489h 0.1064 v 2.8171 c 0.0000,0.2016 0.0280,0.2576 0.2128 0.2576h 0.2912 c 0.0168,-0.0000 0.0448,0.0112 0.0448 0.0448v 0.1232 l -0.7673,-0.0112 l -0.7785,0.0112 v -0.1232 c 0.0056,-0.0168 0.0112,-0.0448 0.0448 -0.0448h 0.3360 c 0.2128,-0.0000 0.2128,-0.0952 0.2128 -0.2576v -1.9266 c 0.0000,-0.1904 0.0000,-0.3248 -0.1232 -0.3248ZM 20.5571,38.9396 ZM 22.0020,36.9514 c 0.0000,-0.0392 0.0056,-0.0840 0.0560 -0.1120c 0.0616,-0.0448 0.1624,-0.0952 0.2464 -0.0952c 0.0728,-0.0000 0.0784,0.0616 0.0784 0.1736v 0.9017 h 0.4536 l -0.0336,0.2632 h -0.4200 v 0.4648 c 0.0000,0.1568 0.0224,0.2352 0.1848 0.2352h 0.1512 c 0.0336,-0.0000 0.0392,0.0280 0.0392 0.0392v 0.1232 c 0.0000,-0.0000 -0.3584,-0.0112 -0.5937 -0.0112c -0.2128,-0.0000 -0.5433,0.0112 -0.5433 0.0112v -0.1232 c 0.0000,-0.0112 0.0056,-0.0392 0.0392 -0.0392h 0.1512 c 0.1736,-0.0000 0.1904,-0.0728 0.1904 -0.2352v -0.4648 h -1.0977 c -0.0224,-0.0000 -0.0336,-0.0112 -0.0504 -0.0336l -0.0448,-0.0616 l -0.0672,-0.1176 c -0.0056,-0.0000 -0.0056,-0.0056 -0.0056 -0.0112c 0.0000,-0.0056 0.0056,-0.0112 0.0112 -0.0168c 0.3640,-0.4032 1.0081,-1.6522 1.2097 -2.1114c 0.0056,-0.0224 0.0168,-0.0280 0.0392 -0.0280c 0.0056,-0.0000 0.1288,0.0504 0.1960 0.0616c -0.2520,0.6777 -0.6665,1.4057 -1.0753 2.0554h 0.8849 v -0.8681 Z"/></g><g stroke-linejoin="miter" stroke-opacity="0.6" fill-opacity="0.0" stroke="rgb(0,0,0)" stroke-width="0.9161469209552453" fill="rgb(0,0,0)" stroke-linecap="butt" stroke-miterlimit="10.0"><path d="M 24.2766,38.9396 h 2.5329 "/></g><g stroke-linejoin="miter" stroke-opacity="1.0" fill-opacity="0.6" stroke="rgb(0,0,0)" fill-rule="evenodd" stroke-width="0.0" fill="rgb(0,0,0)" stroke-linecap="butt" stroke-miterlimit="10.0"><path d="M 14.4245,47.3824 ZM 15.6510,44.3413 c -0.2408,-0.0000 -0.5937,0.2352 -0.5937 1.5402c 0.0000,0.4592 0.0840,1.3833 0.5769 1.3833c 0.0952,-0.0000 0.3640,-0.0616 0.4816 -0.4985c 0.0728,-0.2688 0.1120,-0.6049 0.1120 -1.0921c 0.0000,-0.7113 -0.1792,-1.1089 -0.3416 -1.2489c -0.0616,-0.0560 -0.1456,-0.0840 -0.2352 -0.0840ZM 15.6510,44.3413 ZM 15.6286,47.4497 c -0.5993,-0.0000 -1.0025,-0.7673 -1.0025 -1.6242c 0.0000,-1.0473 0.4985,-1.6802 1.0249 -1.6802c 0.2408,-0.0000 0.4816,0.1512 0.6441 0.3696c 0.2352,0.3136 0.3584,0.7337 0.3584 1.2601c 0.0000,1.2433 -0.6161,1.6746 -1.0249 1.6746ZM 16.8775,47.3824 ZM 17.1967,47.1528 c 0.0000,-0.1624 0.1344,-0.2968 0.2968 -0.2968c 0.1624,-0.0000 0.2968,0.1344 0.2968 0.2968c 0.0000,0.1624 -0.1344,0.2968 -0.2968 0.2968c -0.1624,-0.0000 -0.2968,-0.1344 -0.2968 -0.2968ZM 18.1040,47.3824 ZM 19.1569,44.7110 c -0.1064,-0.0000 -0.3528,0.1008 -0.4760 0.1568l -0.0672,-0.1736 c 0.4928,-0.2296 0.6833,-0.3472 0.9633 -0.5489h 0.1064 v 2.8171 c 0.0000,0.2016 0.0280,0.2576 0.2128 0.2576h 0.2912 c 0.0168,-0.0000 0.0448,0.0112 0.0448 0.0448v 0.1232 l -0.7673,-0.0112 l -0.7785,0.0112 v -0.1232 c 0.0056,-0.0168 0.0112,-0.0448 0.0448 -0.0448h 0.3360 c 0.2128,-0.0000 0.2128,-0.0952 0.2128 -0.2576v -1.9266 c 0.0000,-0.1904 0.0000,-0.3248 -0.1232 -0.3248ZM 20.5571,47.3824 ZM 20.8819,44.9014 c 0.0000,-0.3192 0.3080,-0.7561 0.8961 -0.7561c 0.4312,-0.0000 0.9353,0.1624 0.9353 0.8065c 0.0000,0.4256 -0.2184,0.6385 -0.5209 0.9297l -0.5321,0.5153 c -0.0280,0.0280 -0.4032,0.3976 -0.4032 0.6609h 0.9521 c 0.1904,-0.0000 0.2912,-0.0952 0.3696 -0.4032l 0.1400,0.0224 l -0.1120,0.7057 h -1.7306 c 0.0000,-0.3136 0.0504,-0.5545 0.5713 -1.0865l 0.3920,-0.3864 c 0.3136,-0.3192 0.4424,-0.5937 0.4424 -0.9353c 0.0000,-0.5097 -0.3472,-0.6553 -0.5377 -0.6553c -0.3864,-0.0000 -0.4928,0.2016 -0.4928 0.3360c 0.0000,0.0448 0.0112,0.0896 0.0224 0.1288c 0.0112,0.0392 0.0224,0.0784 0.0224 0.1232c 0.0000,0.1456 -0.1120,0.2016 -0.2016 0.2016c -0.1232,-0.0000 -0.2128,-0.0952 -0.2128 -0.2072Z"/></g><g stroke-linejoin="miter" stroke-opacity="0.6" fill-opacity="0.0" stroke="rgb(0,0,0)" stroke-width="0.9161469209552453" fill="rgb(0,0,0)" stroke-linecap="butt" stroke-miterlimit="10.0"><path d="M 24.2766,47.3824 h 2.5329 "/></g><g stroke-linejoin="miter" stroke-opacity="1.0" fill-opacity="0.6" stroke="rgb(0,0,0)" fill-rule="evenodd" stroke-width="0.0" fill="rgb(0,0,0)" stroke-linecap="butt" stroke-miterlimit="10.0"><path d="M 14.4245,55.8253 ZM 15.6510,52.7842 c -0.2408,-0.0000 -0.5937,0.2352 -0.5937 1.5402c 0.0000,0.4592 0.0840,1.3833 0.5769 1.3833c 0.0952,-0.0000 0.3640,-0.0616 0.4816 -0.4985c 0.0728,-0.2688 0.1120,-0.6049 0.1120 -1.0921c 0.0000,-0.7113 -0.1792,-1.1089 -0.3416 -1.2489c -0.0616,-0.0560 -0.1456,-0.0840 -0.2352 -0.0840ZM 15.6510,52.7842 ZM 15.6286,55.8925 c -0.5993,-0.0000 -1.0025,-0.7673 -1.0025 -1.6242c 0.0000,-1.0473 0.4985,-1.6802 1.0249 -1.6802c 0.2408,-0.0000 0.4816,0.1512 0.6441 0.3696c 0.2352,0.3136 0.3584,0.7337 0.3584 1.2601c 0.0000,1.2433 -0.6161,1.6746 -1.0249 1.6746ZM 16.8775,55.8253 ZM 17.1967,55.5957 c 0.0000,-0.1624 0.1344,-0.2968 0.2968 -0.2968c 0.1624,-0.0000 0.2968,0.1344 0.2968 0.2968c 0.0000,0.1624 -0.1344,0.2968 -0.2968 0.2968c -0.1624,-0.0000 -0.2968,-0.1344 -0.2968 -0.2968ZM 18.1040,55.8253 ZM 19.1569,53.1538 c -0.1064,-0.0000 -0.3528,0.1008 -0.4760 0.1568l -0.0672,-0.1736 c 0.4928,-0.2296 0.6833,-0.3472 0.9633 -0.5489h 0.1064 v 2.8171 c 0.0000,0.2016 0.0280,0.2576 0.2128 0.2576h 0.2912 c 0.0168,-0.0000 0.0448,0.0112 0.0448 0.0448v 0.1232 l -0.7673,-0.0112 l -0.7785,0.0112 v -0.1232 c 0.0056,-0.0168 0.0112,-0.0448 0.0448 -0.0448h 0.3360 c 0.2128,-0.0000 0.2128,-0.0952 0.2128 -0.2576v -1.9266 c 0.0000,-0.1904 0.0000,-0.3248 -0.1232 -0.3248ZM 20.5571,55.8253 ZM 21.7836,52.7842 c -0.2408,-0.0000 -0.5937,0.2352 -0.5937 1.5402c 0.0000,0.4592 0.0840,1.3833 0.5769 1.3833c 0.0952,-0.0000 0.3640,-0.0616 0.4816 -0.4985c 0.0728,-0.2688 0.1120,-0.6049 0.1120 -1.0921c 0.0000,-0.7113 -0.1792,-1.1089 -0.3416 -1.2489c -0.0616,-0.0560 -0.1456,-0.0840 -0.2352 -0.0840ZM 21.7836,52.7842 ZM 21.7612,55.8925 c -0.5993,-0.0000 -1.0025,-0.7673 -1.0025 -1.6242c 0.0000,-1.0473 0.4985,-1.6802 1.0249 -1.6802c 0.2408,-0.0000 0.4816,0.1512 0.6441 0.3696c 0.2352,0.3136 0.3584,0.7337 0.3584 1.2601c 0.0000,1.2433 -0.6161,1.6746 -1.0249 1.6746Z"/></g><g stroke-linejoin="miter" stroke-opacity="0.6" fill-opacity="0.0" stroke="rgb(0,0,0)" stroke-width="0.9161469209552453" fill="rgb(0,0,0)" stroke-linecap="butt" stroke-miterlimit="10.0"><path d="M 24.2766,55.8253 h 2.5329 "/></g><g stroke-linejoin="miter" stroke-opacity="1.0" fill-opacity="0.6" stroke="rgb(0,0,0)" fill-rule="evenodd" stroke-width="0.0" fill="rgb(0,0,0)" stroke-linecap="butt" stroke-miterlimit="10.0"><path d="M 14.4245,64.2682 ZM 15.6510,61.2270 c -0.2408,-0.0000 -0.5937,0.2352 -0.5937 1.5402c 0.0000,0.4592 0.0840,1.3833 0.5769 1.3833c 0.0952,-0.0000 0.3640,-0.0616 0.4816 -0.4985c 0.0728,-0.2688 0.1120,-0.6049 0.1120 -1.0921c 0.0000,-0.7113 -0.1792,-1.1089 -0.3416 -1.2489c -0.0616,-0.0560 -0.1456,-0.0840 -0.2352 -0.0840ZM 15.6510,61.2270 ZM 15.6286,64.3354 c -0.5993,-0.0000 -1.0025,-0.7673 -1.0025 -1.6242c 0.0000,-1.0473 0.4985,-1.6802 1.0249 -1.6802c 0.2408,-0.0000 0.4816,0.1512 0.6441 0.3696c 0.2352,0.3136 0.3584,0.7337 0.3584 1.2601c 0.0000,1.2433 -0.6161,1.6746 -1.0249 1.6746ZM 16.8775,64.2682 ZM 17.1967,64.0385 c 0.0000,-0.1624 0.1344,-0.2968 0.2968 -0.2968c 0.1624,-0.0000 0.2968,0.1344 0.2968 0.2968c 0.0000,0.1624 -0.1344,0.2968 -0.2968 0.2968c -0.1624,-0.0000 -0.2968,-0.1344 -0.2968 -0.2968ZM 18.1040,64.2682 ZM 19.3306,61.2270 c -0.2408,-0.0000 -0.5937,0.2352 -0.5937 1.5402c 0.0000,0.4592 0.0840,1.3833 0.5769 1.3833c 0.0952,-0.0000 0.3640,-0.0616 0.4816 -0.4985c 0.0728,-0.2688 0.1120,-0.6049 0.1120 -1.0921c 0.0000,-0.7113 -0.1792,-1.1089 -0.3416 -1.2489c -0.0616,-0.0560 -0.1456,-0.0840 -0.2352 -0.0840ZM 19.3306,61.2270 ZM 19.3082,64.3354 c -0.5993,-0.0000 -1.0025,-0.7673 -1.0025 -1.6242c 0.0000,-1.0473 0.4985,-1.6802 1.0249 -1.6802c 0.2408,-0.0000 0.4816,0.1512 0.6441 0.3696c 0.2352,0.3136 0.3584,0.7337 0.3584 1.2601c 0.0000,1.2433 -0.6161,1.6746 -1.0249 1.6746ZM 20.5571,64.2682 ZM 21.8004,61.1654 c -0.3192,-0.0000 -0.5265,0.2520 -0.5265 0.4985c 0.0000,0.1624 0.0672,0.3584 0.4032 0.5769l 0.1624,0.1008 c 0.1456,-0.1064 0.4872,-0.3640 0.4872 -0.6497c 0.0000,-0.2464 -0.1792,-0.5265 -0.5265 -0.5265ZM 21.8004,61.1654 ZM 22.6573,61.6975 c 0.0000,0.3416 -0.3864,0.6105 -0.6217 0.7673l 0.3248,0.2128 c 0.2744,0.1792 0.4144,0.4256 0.4144 0.7337c 0.0000,0.4032 -0.3304,0.9241 -1.0249 0.9241c -0.5601,-0.0000 -0.9465,-0.2968 -0.9465 -0.8401c 0.0000,-0.2072 0.0896,-0.4480 0.3080 -0.6385c 0.1344,-0.1176 0.2520,-0.2184 0.3864 -0.3192l -0.0952,-0.0560 c -0.3248,-0.2016 -0.4872,-0.4200 -0.4872 -0.7169c 0.0000,-0.4088 0.3696,-0.7337 0.9129 -0.7337c 0.5209,-0.0000 0.8289,0.2856 0.8289 0.6665ZM 22.6573,61.6975 ZM 21.7612,64.1785 c 0.2408,-0.0000 0.6609,-0.1288 0.6609 -0.6609c 0.0000,-0.2520 -0.1568,-0.5041 -0.4872 -0.7057l -0.2464,-0.1512 c -0.4536,0.3024 -0.5545,0.6777 -0.5545 0.8345c 0.0000,0.4760 0.3864,0.6833 0.6273 0.6833Z"/></g><g stroke-linejoin="miter" stroke-opacity="0.6" fill-opacity="0.0" stroke="rgb(0,0,0)" stroke-width="0.9161469209552453" fill="rgb(0,0,0)" stroke-linecap="butt" stroke-miterlimit="10.0"><path d="M 24.2766,64.2682 h 2.5329 "/></g><g stroke-linejoin="miter" stroke-opacity="1.0" fill-opacity="0.6" stroke="rgb(0,0,0)" fill-rule="evenodd" stroke-width="0.0" fill="rgb(0,0,0)" stroke-linecap="butt" stroke-miterlimit="10.0"><path d="M 14.4245,72.7110 ZM 15.6510,69.6699 c -0.2408,-0.0000 -0.5937,0.2352 -0.5937 1.5402c 0.0000,0.4592 0.0840,1.3833 0.5769 1.3833c 0.0952,-0.0000 0.3640,-0.0616 0.4816 -0.4985c 0.0728,-0.2688 0.1120,-0.6049 0.1120 -1.0921c 0.0000,-0.7113 -0.1792,-1.1089 -0.3416 -1.2489c -0.0616,-0.0560 -0.1456,-0.0840 -0.2352 -0.0840ZM 15.6510,69.6699 ZM 15.6286,72.7782 c -0.5993,-0.0000 -1.0025,-0.7673 -1.0025 -1.6242c 0.0000,-1.0473 0.4985,-1.6802 1.0249 -1.6802c 0.2408,-0.0000 0.4816,0.1512 0.6441 0.3696c 0.2352,0.3136 0.3584,0.7337 0.3584 1.2601c 0.0000,1.2433 -0.6161,1.6746 -1.0249 1.6746ZM 16.8775,72.7110 ZM 17.1967,72.4814 c 0.0000,-0.1624 0.1344,-0.2968 0.2968 -0.2968c 0.1624,-0.0000 0.2968,0.1344 0.2968 0.2968c 0.0000,0.1624 -0.1344,0.2968 -0.2968 0.2968c -0.1624,-0.0000 -0.2968,-0.1344 -0.2968 -0.2968ZM 18.1040,72.7110 ZM 19.3306,69.6699 c -0.2408,-0.0000 -0.5937,0.2352 -0.5937 1.5402c 0.0000,0.4592 0.0840,1.3833 0.5769 1.3833c 0.0952,-0.0000 0.3640,-0.0616 0.4816 -0.4985c 0.0728,-0.2688 0.1120,-0.6049 0.1120 -1.0921c 0.0000,-0.7113 -0.1792,-1.1089 -0.3416 -1.2489c -0.0616,-0.0560 -0.1456,-0.0840 -0.2352 -0.0840ZM 19.3306,69.6699 ZM 19.3082,72.7782 c -0.5993,-0.0000 -1.0025,-0.7673 -1.0025 -1.6242c 0.0000,-1.0473 0.4985,-1.6802 1.0249 -1.6802c 0.2408,-0.0000 0.4816,0.1512 0.6441 0.3696c 0.2352,0.3136 0.3584,0.7337 0.3584 1.2601c 0.0000,1.2433 -0.6161,1.6746 -1.0249 1.6746ZM 20.5571,72.7110 ZM 21.2068,71.2437 c -0.0056,0.0560 -0.0056,0.1400 -0.0056 0.1960c 0.0000,0.9409 0.4200,1.1761 0.7001 1.1761c 0.2576,-0.0000 0.5321,-0.2408 0.5321 -0.8233c 0.0000,-0.2632 -0.1344,-0.8009 -0.6721 -0.8009c -0.1176,-0.0000 -0.3304,0.0112 -0.5545 0.2520ZM 21.2068,71.2437 ZM 22.6741,69.6195 c -0.3640,0.0336 -0.6777,0.1288 -0.9465 0.3920c -0.2576,0.2520 -0.4424,0.6273 -0.5041 1.0753c 0.1288,-0.1568 0.4368,-0.2744 0.6497 -0.2744c 0.8289,-0.0000 0.9353,0.6833 0.9353 0.9409c 0.0000,0.3808 -0.1904,1.0249 -0.9633 1.0249c -0.4088,-0.0000 -1.0305,-0.2408 -1.0305 -1.3553c 0.0000,-0.5153 0.1736,-1.0193 0.5601 -1.4057c 0.3584,-0.3640 0.7337,-0.5153 1.2825 -0.5433Z"/></g><g stroke-linejoin="miter" stroke-opacity="0.6" fill-opacity="0.0" stroke="rgb(0,0,0)" stroke-width="0.9161469209552453" fill="rgb(0,0,0)" stroke-linecap="butt" stroke-miterlimit="10.0"><path d="M 24.2766,72.7110 h 2.5329 "/></g><g stroke-linejoin="miter" stroke-opacity="1.0" fill-opacity="0.6" stroke="rgb(0,0,0)" fill-rule="evenodd" stroke-width="0.0" fill="rgb(0,0,0)" stroke-linecap="butt" stroke-miterlimit="10.0"><path d="M 14.4245,81.1539 ZM 15.6510,78.1128 c -0.2408,-0.0000 -0.5937,0.2352 -0.5937 1.5402c 0.0000,0.4592 0.0840,1.3833 0.5769 1.3833c 0.0952,-0.0000 0.3640,-0.0616 0.4816 -0.4985c 0.0728,-0.2688 0.1120,-0.6049 0.1120 -1.0921c 0.0000,-0.7113 -0.1792,-1.1089 -0.3416 -1.2489c -0.0616,-0.0560 -0.1456,-0.0840 -0.2352 -0.0840ZM 15.6510,78.1128 ZM 15.6286,81.2211 c -0.5993,-0.0000 -1.0025,-0.7673 -1.0025 -1.6242c 0.0000,-1.0473 0.4985,-1.6802 1.0249 -1.6802c 0.2408,-0.0000 0.4816,0.1512 0.6441 0.3696c 0.2352,0.3136 0.3584,0.7337 0.3584 1.2601c 0.0000,1.2433 -0.6161,1.6746 -1.0249 1.6746ZM 16.8775,81.1539 ZM 17.1967,80.9242 c 0.0000,-0.1624 0.1344,-0.2968 0.2968 -0.2968c 0.1624,-0.0000 0.2968,0.1344 0.2968 0.2968c 0.0000,0.1624 -0.1344,0.2968 -0.2968 0.2968c -0.1624,-0.0000 -0.2968,-0.1344 -0.2968 -0.2968ZM 18.1040,81.1539 ZM 19.3306,78.1128 c -0.2408,-0.0000 -0.5937,0.2352 -0.5937 1.5402c 0.0000,0.4592 0.0840,1.3833 0.5769 1.3833c 0.0952,-0.0000 0.3640,-0.0616 0.4816 -0.4985c 0.0728,-0.2688 0.1120,-0.6049 0.1120 -1.0921c 0.0000,-0.7113 -0.1792,-1.1089 -0.3416 -1.2489c -0.0616,-0.0560 -0.1456,-0.0840 -0.2352 -0.0840ZM 19.3306,78.1128 ZM 19.3082,81.2211 c -0.5993,-0.0000 -1.0025,-0.7673 -1.0025 -1.6242c 0.0000,-1.0473 0.4985,-1.6802 1.0249 -1.6802c 0.2408,-0.0000 0.4816,0.1512 0.6441 0.3696c 0.2352,0.3136 0.3584,0.7337 0.3584 1.2601c 0.0000,1.2433 -0.6161,1.6746 -1.0249 1.6746ZM 20.5571,81.1539 ZM 22.0020,79.1657 c 0.0000,-0.0392 0.0056,-0.0840 0.0560 -0.1120c 0.0616,-0.0448 0.1624,-0.0952 0.2464 -0.0952c 0.0728,-0.0000 0.0784,0.0616 0.0784 0.1736v 0.9017 h 0.4536 l -0.0336,0.2632 h -0.4200 v 0.4648 c 0.0000,0.1568 0.0224,0.2352 0.1848 0.2352h 0.1512 c 0.0336,-0.0000 0.0392,0.0280 0.0392 0.0392v 0.1232 c 0.0000,-0.0000 -0.3584,-0.0112 -0.5937 -0.0112c -0.2128,-0.0000 -0.5433,0.0112 -0.5433 0.0112v -0.1232 c 0.0000,-0.0112 0.0056,-0.0392 0.0392 -0.0392h 0.1512 c 0.1736,-0.0000 0.1904,-0.0728 0.1904 -0.2352v -0.4648 h -1.0977 c -0.0224,-0.0000 -0.0336,-0.0112 -0.0504 -0.0336l -0.0448,-0.0616 l -0.0672,-0.1176 c -0.0056,-0.0000 -0.0056,-0.0056 -0.0056 -0.0112c 0.0000,-0.0056 0.0056,-0.0112 0.0112 -0.0168c 0.3640,-0.4032 1.0081,-1.6522 1.2097 -2.1114c 0.0056,-0.0224 0.0168,-0.0280 0.0392 -0.0280c 0.0056,-0.0000 0.1288,0.0504 0.1960 0.0616c -0.2520,0.6777 -0.6665,1.4057 -1.0753 2.0554h 0.8849 v -0.8681 Z"/></g><g stroke-linejoin="miter" stroke-opacity="0.6" fill-opacity="0.0" stroke="rgb(0,0,0)" stroke-width="0.9161469209552453" fill="rgb(0,0,0)" stroke-linecap="butt" stroke-miterlimit="10.0"><path d="M 24.2766,81.1539 h 2.5329 "/></g><g stroke-linejoin="miter" stroke-opacity="1.0" fill-opacity="0.6" stroke="rgb(0,0,0)" fill-rule="evenodd" stroke-width="0.0" fill="rgb(0,0,0)" stroke-linecap="butt" stroke-miterlimit="10.0"><path d="M 14.4245,89.5967 ZM 15.6510,86.5556 c -0.2408,-0.0000 -0.5937,0.2352 -0.5937 1.5402c 0.0000,0.4592 0.0840,1.3833 0.5769 1.3833c 0.0952,-0.0000 0.3640,-0.0616 0.4816 -0.4985c 0.0728,-0.2688 0.1120,-0.6049 0.1120 -1.0921c 0.0000,-0.7113 -0.1792,-1.1089 -0.3416 -1.2489c -0.0616,-0.0560 -0.1456,-0.0840 -0.2352 -0.0840ZM 15.6510,86.5556 ZM 15.6286,89.6639 c -0.5993,-0.0000 -1.0025,-0.7673 -1.0025 -1.6242c 0.0000,-1.0473 0.4985,-1.6802 1.0249 -1.6802c 0.2408,-0.0000 0.4816,0.1512 0.6441 0.3696c 0.2352,0.3136 0.3584,0.7337 0.3584 1.2601c 0.0000,1.2433 -0.6161,1.6746 -1.0249 1.6746ZM 16.8775,89.5967 ZM 17.1967,89.3671 c 0.0000,-0.1624 0.1344,-0.2968 0.2968 -0.2968c 0.1624,-0.0000 0.2968,0.1344 0.2968 0.2968c 0.0000,0.1624 -0.1344,0.2968 -0.2968 0.2968c -0.1624,-0.0000 -0.2968,-0.1344 -0.2968 -0.2968ZM 18.1040,89.5967 ZM 19.3306,86.5556 c -0.2408,-0.0000 -0.5937,0.2352 -0.5937 1.5402c 0.0000,0.4592 0.0840,1.3833 0.5769 1.3833c 0.0952,-0.0000 0.3640,-0.0616 0.4816 -0.4985c 0.0728,-0.2688 0.1120,-0.6049 0.1120 -1.0921c 0.0000,-0.7113 -0.1792,-1.1089 -0.3416 -1.2489c -0.0616,-0.0560 -0.1456,-0.0840 -0.2352 -0.0840ZM 19.3306,86.5556 ZM 19.3082,89.6639 c -0.5993,-0.0000 -1.0025,-0.7673 -1.0025 -1.6242c 0.0000,-1.0473 0.4985,-1.6802 1.0249 -1.6802c 0.2408,-0.0000 0.4816,0.1512 0.6441 0.3696c 0.2352,0.3136 0.3584,0.7337 0.3584 1.2601c 0.0000,1.2433 -0.6161,1.6746 -1.0249 1.6746ZM 20.5571,89.5967 ZM 20.8819,87.1157 c 0.0000,-0.3192 0.3080,-0.7561 0.8961 -0.7561c 0.4312,-0.0000 0.9353,0.1624 0.9353 0.8065c 0.0000,0.4256 -0.2184,0.6385 -0.5209 0.9297l -0.5321,0.5153 c -0.0280,0.0280 -0.4032,0.3976 -0.4032 0.6609h 0.9521 c 0.1904,-0.0000 0.2912,-0.0952 0.3696 -0.4032l 0.1400,0.0224 l -0.1120,0.7057 h -1.7306 c 0.0000,-0.3136 0.0504,-0.5545 0.5713 -1.0865l 0.3920,-0.3864 c 0.3136,-0.3192 0.4424,-0.5937 0.4424 -0.9353c 0.0000,-0.5097 -0.3472,-0.6553 -0.5377 -0.6553c -0.3864,-0.0000 -0.4928,0.2016 -0.4928 0.3360c 0.0000,0.0448 0.0112,0.0896 0.0224 0.1288c 0.0112,0.0392 0.0224,0.0784 0.0224 0.1232c 0.0000,0.1456 -0.1120,0.2016 -0.2016 0.2016c -0.1232,-0.0000 -0.2128,-0.0952 -0.2128 -0.2072Z"/></g><g stroke-linejoin="miter" stroke-opacity="0.6" fill-opacity="0.0" stroke="rgb(0,0,0)" stroke-width="0.9161469209552453" fill="rgb(0,0,0)" stroke-linecap="butt" stroke-miterlimit="10.0"><path d="M 24.2766,89.5967 h 2.5329 "/></g><g stroke-linejoin="miter" stroke-opacity="1.0" fill-opacity="0.6" stroke="rgb(0,0,0)" fill-rule="evenodd" stroke-width="0.0" fill="rgb(0,0,0)" stroke-linecap="butt" stroke-miterlimit="10.0"><path d="M 14.4245,98.0396 ZM 15.6510,94.9985 c -0.2408,-0.0000 -0.5937,0.2352 -0.5937 1.5402c 0.0000,0.4592 0.0840,1.3833 0.5769 1.3833c 0.0952,-0.0000 0.3640,-0.0616 0.4816 -0.4985c 0.0728,-0.2688 0.1120,-0.6049 0.1120 -1.0921c 0.0000,-0.7113 -0.1792,-1.1089 -0.3416 -1.2489c -0.0616,-0.0560 -0.1456,-0.0840 -0.2352 -0.0840ZM 15.6510,94.9985 ZM 15.6286,98.1068 c -0.5993,-0.0000 -1.0025,-0.7673 -1.0025 -1.6242c 0.0000,-1.0473 0.4985,-1.6802 1.0249 -1.6802c 0.2408,-0.0000 0.4816,0.1512 0.6441 0.3696c 0.2352,0.3136 0.3584,0.7337 0.3584 1.2601c 0.0000,1.2433 -0.6161,1.6746 -1.0249 1.6746ZM 16.8775,98.0396 ZM 17.1967,97.8099 c 0.0000,-0.1624 0.1344,-0.2968 0.2968 -0.2968c 0.1624,-0.0000 0.2968,0.1344 0.2968 0.2968c 0.0000,0.1624 -0.1344,0.2968 -0.2968 0.2968c -0.1624,-0.0000 -0.2968,-0.1344 -0.2968 -0.2968ZM 18.1040,98.0396 ZM 19.3306,94.9985 c -0.2408,-0.0000 -0.5937,0.2352 -0.5937 1.5402c 0.0000,0.4592 0.0840,1.3833 0.5769 1.3833c 0.0952,-0.0000 0.3640,-0.0616 0.4816 -0.4985c 0.0728,-0.2688 0.1120,-0.6049 0.1120 -1.0921c 0.0000,-0.7113 -0.1792,-1.1089 -0.3416 -1.2489c -0.0616,-0.0560 -0.1456,-0.0840 -0.2352 -0.0840ZM 19.3306,94.9985 ZM 19.3082,98.1068 c -0.5993,-0.0000 -1.0025,-0.7673 -1.0025 -1.6242c 0.0000,-1.0473 0.4985,-1.6802 1.0249 -1.6802c 0.2408,-0.0000 0.4816,0.1512 0.6441 0.3696c 0.2352,0.3136 0.3584,0.7337 0.3584 1.2601c 0.0000,1.2433 -0.6161,1.6746 -1.0249 1.6746ZM 20.5571,98.0396 ZM 21.7836,94.9985 c -0.2408,-0.0000 -0.5937,0.2352 -0.5937 1.5402c 0.0000,0.4592 0.0840,1.3833 0.5769 1.3833c 0.0952,-0.0000 0.3640,-0.0616 0.4816 -0.4985c 0.0728,-0.2688 0.1120,-0.6049 0.1120 -1.0921c 0.0000,-0.7113 -0.1792,-1.1089 -0.3416 -1.2489c -0.0616,-0.0560 -0.1456,-0.0840 -0.2352 -0.0840ZM 21.7836,94.9985 ZM 21.7612,98.1068 c -0.5993,-0.0000 -1.0025,-0.7673 -1.0025 -1.6242c 0.0000,-1.0473 0.4985,-1.6802 1.0249 -1.6802c 0.2408,-0.0000 0.4816,0.1512 0.6441 0.3696c 0.2352,0.3136 0.3584,0.7337 0.3584 1.2601c 0.0000,1.2433 -0.6161,1.6746 -1.0249 1.6746Z"/></g><g stroke-linejoin="miter" stroke-opacity="0.6" fill-opacity="0.0" stroke="rgb(0,0,0)" stroke-width="0.9161469209552453" fill="rgb(0,0,0)" stroke-linecap="butt" stroke-miterlimit="10.0"><path d="M 24.2766,98.0396 h 2.5329 "/></g><g stroke-linejoin="miter" stroke-opacity="0.0" fill-opacity="0.1" stroke="rgb(0,0,0)" stroke-width="0.0" fill="rgb(0,0,0)" stroke-linecap="butt" stroke-miterlimit="10.0"><path d="M 284.6987,101.4755 l -0.0000,-1.6886 h -253.2856 l -0.0000,1.6886 Z"/></g><g stroke-linejoin="miter" stroke-opacity="1.0" fill-opacity="0.6" stroke="rgb(0,0,0)" fill-rule="evenodd" stroke-width="0.0" fill="rgb(0,0,0)" stroke-linecap="butt" stroke-miterlimit="10.0"><path d="M 282.2456,108.5931 ZM 283.2986,105.9217 c -0.1064,-0.0000 -0.3528,0.1008 -0.4760 0.1568l -0.0672,-0.1736 c 0.4928,-0.2296 0.6833,-0.3472 0.9633 -0.5489h 0.1064 v 2.8171 c 0.0000,0.2016 0.0280,0.2576 0.2128 0.2576h 0.2912 c 0.0168,-0.0000 0.0448,0.0112 0.0448 0.0448v 0.1232 l -0.7673,-0.0112 l -0.7785,0.0112 v -0.1232 c 0.0056,-0.0168 0.0112,-0.0448 0.0448 -0.0448h 0.3360 c 0.2128,-0.0000 0.2128,-0.0952 0.2128 -0.2576v -1.9266 c 0.0000,-0.1904 0.0000,-0.3248 -0.1232 -0.3248ZM 284.6987,108.5931 ZM 285.0235,106.1121 c 0.0000,-0.3192 0.3080,-0.7561 0.8961 -0.7561c 0.4312,-0.0000 0.9353,0.1624 0.9353 0.8065c 0.0000,0.4256 -0.2184,0.6385 -0.5209 0.9297l -0.5321,0.5153 c -0.0280,0.0280 -0.4032,0.3976 -0.4032 0.6609h 0.9521 c 0.1904,-0.0000 0.2912,-0.0952 0.3696 -0.4032l 0.1400,0.0224 l -0.1120,0.7057 h -1.7306 c 0.0000,-0.3136 0.0504,-0.5545 0.5713 -1.0865l 0.3920,-0.3864 c 0.3136,-0.3192 0.4424,-0.5937 0.4424 -0.9353c 0.0000,-0.5097 -0.3472,-0.6553 -0.5377 -0.6553c -0.3864,-0.0000 -0.4928,0.2016 -0.4928 0.3360c 0.0000,0.0448 0.0112,0.0896 0.0224 0.1288c 0.0112,0.0392 0.0224,0.0784 0.0224 0.1232c 0.0000,0.1456 -0.1120,0.2016 -0.2016 0.2016c -0.1232,-0.0000 -0.2128,-0.0952 -0.2128 -0.2072Z"/></g><g stroke-linejoin="miter" stroke-opacity="0.6" fill-opacity="0.0" stroke="rgb(0,0,0)" stroke-width="0.9161469209552453" fill="rgb(0,0,0)" stroke-linecap="butt" stroke-miterlimit="10.0"><path d="M 284.6987,99.7869 v 2.5329 "/></g><g stroke-linejoin="miter" stroke-opacity="1.0" fill-opacity="0.6" stroke="rgb(0,0,0)" fill-rule="evenodd" stroke-width="0.0" fill="rgb(0,0,0)" stroke-linecap="butt" stroke-miterlimit="10.0"><path d="M 240.0314,108.5931 ZM 241.0843,105.9217 c -0.1064,-0.0000 -0.3528,0.1008 -0.4760 0.1568l -0.0672,-0.1736 c 0.4928,-0.2296 0.6833,-0.3472 0.9633 -0.5489h 0.1064 v 2.8171 c 0.0000,0.2016 0.0280,0.2576 0.2128 0.2576h 0.2912 c 0.0168,-0.0000 0.0448,0.0112 0.0448 0.0448v 0.1232 l -0.7673,-0.0112 l -0.7785,0.0112 v -0.1232 c 0.0056,-0.0168 0.0112,-0.0448 0.0448 -0.0448h 0.3360 c 0.2128,-0.0000 0.2128,-0.0952 0.2128 -0.2576v -1.9266 c 0.0000,-0.1904 0.0000,-0.3248 -0.1232 -0.3248ZM 242.4844,108.5931 ZM 243.7109,105.5520 c -0.2408,-0.0000 -0.5937,0.2352 -0.5937 1.5402c 0.0000,0.4592 0.0840,1.3833 0.5769 1.3833c 0.0952,-0.0000 0.3640,-0.0616 0.4816 -0.4985c 0.0728,-0.2688 0.1120,-0.6049 0.1120 -1.0921c 0.0000,-0.7113 -0.1792,-1.1089 -0.3416 -1.2489c -0.0616,-0.0560 -0.1456,-0.0840 -0.2352 -0.0840ZM 243.7109,105.5520 ZM 243.6885,108.6603 c -0.5993,-0.0000 -1.0025,-0.7673 -1.0025 -1.6242c 0.0000,-1.0473 0.4985,-1.6802 1.0249 -1.6802c 0.2408,-0.0000 0.4816,0.1512 0.6441 0.3696c 0.2352,0.3136 0.3584,0.7337 0.3584 1.2601c 0.0000,1.2433 -0.6161,1.6746 -1.0249 1.6746Z"/></g><g stroke-linejoin="miter" stroke-opacity="0.6" fill-opacity="0.0" stroke="rgb(0,0,0)" stroke-width="0.9161469209552453" fill="rgb(0,0,0)" stroke-linecap="butt" stroke-miterlimit="10.0"><path d="M 242.4844,99.7869 v 2.5329 "/></g><g stroke-linejoin="miter" stroke-opacity="1.0" fill-opacity="0.6" stroke="rgb(0,0,0)" fill-rule="evenodd" stroke-width="0.0" fill="rgb(0,0,0)" stroke-linecap="butt" stroke-miterlimit="10.0"><path d="M 199.0436,108.5931 ZM 200.2870,105.4904 c -0.3192,-0.0000 -0.5265,0.2520 -0.5265 0.4985c 0.0000,0.1624 0.0672,0.3584 0.4032 0.5769l 0.1624,0.1008 c 0.1456,-0.1064 0.4872,-0.3640 0.4872 -0.6497c 0.0000,-0.2464 -0.1792,-0.5265 -0.5265 -0.5265ZM 200.2870,105.4904 ZM 201.1438,106.0225 c 0.0000,0.3416 -0.3864,0.6105 -0.6217 0.7673l 0.3248,0.2128 c 0.2744,0.1792 0.4144,0.4256 0.4144 0.7337c 0.0000,0.4032 -0.3304,0.9241 -1.0249 0.9241c -0.5601,-0.0000 -0.9465,-0.2968 -0.9465 -0.8401c 0.0000,-0.2072 0.0896,-0.4480 0.3080 -0.6385c 0.1344,-0.1176 0.2520,-0.2184 0.3864 -0.3192l -0.0952,-0.0560 c -0.3248,-0.2016 -0.4872,-0.4200 -0.4872 -0.7169c 0.0000,-0.4088 0.3696,-0.7337 0.9129 -0.7337c 0.5209,-0.0000 0.8289,0.2856 0.8289 0.6665ZM 201.1438,106.0225 ZM 200.2478,108.5035 c 0.2408,-0.0000 0.6609,-0.1288 0.6609 -0.6609c 0.0000,-0.2520 -0.1568,-0.5041 -0.4872 -0.7057l -0.2464,-0.1512 c -0.4536,0.3024 -0.5545,0.6777 -0.5545 0.8345c 0.0000,0.4760 0.3864,0.6833 0.6273 0.6833Z"/></g><g stroke-linejoin="miter" stroke-opacity="0.6" fill-opacity="0.0" stroke="rgb(0,0,0)" stroke-width="0.9161469209552453" fill="rgb(0,0,0)" stroke-linecap="butt" stroke-miterlimit="10.0"><path d="M 200.2702,99.7869 v 2.5329 "/></g><g stroke-linejoin="miter" stroke-opacity="1.0" fill-opacity="0.6" stroke="rgb(0,0,0)" fill-rule="evenodd" stroke-width="0.0" fill="rgb(0,0,0)" stroke-linecap="butt" stroke-miterlimit="10.0"><path d="M 156.8294,108.5931 ZM 157.4790,107.1258 c -0.0056,0.0560 -0.0056,0.1400 -0.0056 0.1960c 0.0000,0.9409 0.4200,1.1761 0.7001 1.1761c 0.2576,-0.0000 0.5321,-0.2408 0.5321 -0.8233c 0.0000,-0.2632 -0.1344,-0.8009 -0.6721 -0.8009c -0.1176,-0.0000 -0.3304,0.0112 -0.5545 0.2520ZM 157.4790,107.1258 ZM 158.9464,105.5016 c -0.3640,0.0336 -0.6777,0.1288 -0.9465 0.3920c -0.2576,0.2520 -0.4424,0.6273 -0.5041 1.0753c 0.1288,-0.1568 0.4368,-0.2744 0.6497 -0.2744c 0.8289,-0.0000 0.9353,0.6833 0.9353 0.9409c 0.0000,0.3808 -0.1904,1.0249 -0.9633 1.0249c -0.4088,-0.0000 -1.0305,-0.2408 -1.0305 -1.3553c 0.0000,-0.5153 0.1736,-1.0193 0.5601 -1.4057c 0.3584,-0.3640 0.7337,-0.5153 1.2825 -0.5433Z"/></g><g stroke-linejoin="miter" stroke-opacity="0.6" fill-opacity="0.0" stroke="rgb(0,0,0)" stroke-width="0.9161469209552453" fill="rgb(0,0,0)" stroke-linecap="butt" stroke-miterlimit="10.0"><path d="M 158.0559,99.7869 v 2.5329 "/></g><g stroke-linejoin="miter" stroke-opacity="1.0" fill-opacity="0.6" stroke="rgb(0,0,0)" fill-rule="evenodd" stroke-width="0.0" fill="rgb(0,0,0)" stroke-linecap="butt" stroke-miterlimit="10.0"><path d="M 114.6151,108.5931 ZM 116.0600,106.6049 c 0.0000,-0.0392 0.0056,-0.0840 0.0560 -0.1120c 0.0616,-0.0448 0.1624,-0.0952 0.2464 -0.0952c 0.0728,-0.0000 0.0784,0.0616 0.0784 0.1736v 0.9017 h 0.4536 l -0.0336,0.2632 h -0.4200 v 0.4648 c 0.0000,0.1568 0.0224,0.2352 0.1848 0.2352h 0.1512 c 0.0336,-0.0000 0.0392,0.0280 0.0392 0.0392v 0.1232 c 0.0000,-0.0000 -0.3584,-0.0112 -0.5937 -0.0112c -0.2128,-0.0000 -0.5433,0.0112 -0.5433 0.0112v -0.1232 c 0.0000,-0.0112 0.0056,-0.0392 0.0392 -0.0392h 0.1512 c 0.1736,-0.0000 0.1904,-0.0728 0.1904 -0.2352v -0.4648 h -1.0977 c -0.0224,-0.0000 -0.0336,-0.0112 -0.0504 -0.0336l -0.0448,-0.0616 l -0.0672,-0.1176 c -0.0056,-0.0000 -0.0056,-0.0056 -0.0056 -0.0112c 0.0000,-0.0056 0.0056,-0.0112 0.0112 -0.0168c 0.3640,-0.4032 1.0081,-1.6522 1.2097 -2.1114c 0.0056,-0.0224 0.0168,-0.0280 0.0392 -0.0280c 0.0056,-0.0000 0.1288,0.0504 0.1960 0.0616c -0.2520,0.6777 -0.6665,1.4057 -1.0753 2.0554h 0.8849 v -0.8681 Z"/></g><g stroke-linejoin="miter" stroke-opacity="0.6" fill-opacity="0.0" stroke="rgb(0,0,0)" stroke-width="0.9161469209552453" fill="rgb(0,0,0)" stroke-linecap="butt" stroke-miterlimit="10.0"><path d="M 115.8416,99.7869 v 2.5329 "/></g><g stroke-linejoin="miter" stroke-opacity="1.0" fill-opacity="0.6" stroke="rgb(0,0,0)" fill-rule="evenodd" stroke-width="0.0" fill="rgb(0,0,0)" stroke-linecap="butt" stroke-miterlimit="10.0"><path d="M 72.4008,108.5931 ZM 72.7257,106.1121 c 0.0000,-0.3192 0.3080,-0.7561 0.8961 -0.7561c 0.4312,-0.0000 0.9353,0.1624 0.9353 0.8065c 0.0000,0.4256 -0.2184,0.6385 -0.5209 0.9297l -0.5321,0.5153 c -0.0280,0.0280 -0.4032,0.3976 -0.4032 0.6609h 0.9521 c 0.1904,-0.0000 0.2912,-0.0952 0.3696 -0.4032l 0.1400,0.0224 l -0.1120,0.7057 h -1.7306 c 0.0000,-0.3136 0.0504,-0.5545 0.5713 -1.0865l 0.3920,-0.3864 c 0.3136,-0.3192 0.4424,-0.5937 0.4424 -0.9353c 0.0000,-0.5097 -0.3472,-0.6553 -0.5377 -0.6553c -0.3864,-0.0000 -0.4928,0.2016 -0.4928 0.3360c 0.0000,0.0448 0.0112,0.0896 0.0224 0.1288c 0.0112,0.0392 0.0224,0.0784 0.0224 0.1232c 0.0000,0.1456 -0.1120,0.2016 -0.2016 0.2016c -0.1232,-0.0000 -0.2128,-0.0952 -0.2128 -0.2072Z"/></g><g stroke-linejoin="miter" stroke-opacity="0.6" fill-opacity="0.0" stroke="rgb(0,0,0)" stroke-width="0.9161469209552453" fill="rgb(0,0,0)" stroke-linecap="butt" stroke-miterlimit="10.0"><path d="M 73.6274,99.7869 v 2.5329 "/></g><g stroke-linejoin="miter" stroke-opacity="1.0" fill-opacity="0.6" stroke="rgb(0,0,0)" fill-rule="evenodd" stroke-width="0.0" fill="rgb(0,0,0)" stroke-linecap="butt" stroke-miterlimit="10.0"><path d="M 30.1866,108.5931 ZM 31.4131,105.5520 c -0.2408,-0.0000 -0.5937,0.2352 -0.5937 1.5402c 0.0000,0.4592 0.0840,1.3833 0.5769 1.3833c 0.0952,-0.0000 0.3640,-0.0616 0.4816 -0.4985c 0.0728,-0.2688 0.1120,-0.6049 0.1120 -1.0921c 0.0000,-0.7113 -0.1792,-1.1089 -0.3416 -1.2489c -0.0616,-0.0560 -0.1456,-0.0840 -0.2352 -0.0840ZM 31.4131,105.5520 ZM 31.3907,108.6603 c -0.5993,-0.0000 -1.0025,-0.7673 -1.0025 -1.6242c 0.0000,-1.0473 0.4985,-1.6802 1.0249 -1.6802c 0.2408,-0.0000 0.4816,0.1512 0.6441 0.3696c 0.2352,0.3136 0.3584,0.7337 0.3584 1.2601c 0.0000,1.2433 -0.6161,1.6746 -1.0249 1.6746Z"/></g><g stroke-linejoin="miter" stroke-opacity="0.6" fill-opacity="0.0" stroke="rgb(0,0,0)" stroke-width="0.9161469209552453" fill="rgb(0,0,0)" stroke-linecap="butt" stroke-miterlimit="10.0"><path d="M 31.4131,99.7869 v 2.5329 "/></g><g stroke-linejoin="miter" stroke-opacity="0.0" fill-opacity="0.0" stroke="rgb(0,0,0)" stroke-width="0.0" fill="rgb(0,0,0)" stroke-linecap="butt" stroke-miterlimit="10.0"><path d="M 285.3120,96.4098 l -0.0000,-84.4285 h -253.2856 l -0.0000,84.4285 Z"/></g><g stroke-linejoin="miter" stroke-opacity="0.5" fill-opacity="0.0" stroke="rgb(93,165,218)" stroke-width="3.664587683820981" fill="rgb(0,0,0)" stroke-linecap="butt" stroke-miterlimit="10.0"><path d="M 243.0977,96.4098 v -42.2143 "/></g><g stroke-linejoin="miter" stroke-opacity="0.5" fill-opacity="0.0" stroke="rgb(93,165,218)" stroke-width="3.664587683820981" fill="rgb(0,0,0)" stroke-linecap="butt" stroke-miterlimit="10.0"><path d="M 221.9906,96.4098 v -37.9928 "/></g><g stroke-linejoin="miter" stroke-opacity="0.5" fill-opacity="0.0" stroke="rgb(93,165,218)" stroke-width="3.664587683820981" fill="rgb(0,0,0)" stroke-linecap="butt" stroke-miterlimit="10.0"><path d="M 200.8834,96.4098 v -33.7714 "/></g><g stroke-linejoin="miter" stroke-opacity="0.5" fill-opacity="0.0" stroke="rgb(93,165,218)" stroke-width="3.664587683820981" fill="rgb(0,0,0)" stroke-linecap="butt" stroke-miterlimit="10.0"><path d="M 179.7763,96.4098 v -29.5500 "/></g><g stroke-linejoin="miter" stroke-opacity="0.5" fill-opacity="0.0" stroke="rgb(93,165,218)" stroke-width="3.664587683820981" fill="rgb(0,0,0)" stroke-linecap="butt" stroke-miterlimit="10.0"><path d="M 158.6692,96.4098 v -25.3286 "/></g><g stroke-linejoin="miter" stroke-opacity="0.5" fill-opacity="0.0" stroke="rgb(93,165,218)" stroke-width="3.664587683820981" fill="rgb(0,0,0)" stroke-linecap="butt" stroke-miterlimit="10.0"><path d="M 137.5620,96.4098 v -21.1071 "/></g><g stroke-linejoin="miter" stroke-opacity="0.5" fill-opacity="0.0" stroke="rgb(93,165,218)" stroke-width="3.664587683820981" fill="rgb(0,0,0)" stroke-linecap="butt" stroke-miterlimit="10.0"><path d="M 116.4549,96.4098 v -16.8857 "/></g><g stroke-linejoin="miter" stroke-opacity="0.5" fill-opacity="0.0" stroke="rgb(93,165,218)" stroke-width="3.664587683820981" fill="rgb(0,0,0)" stroke-linecap="butt" stroke-miterlimit="10.0"><path d="M 95.3477,96.4098 v -12.6643 "/></g><g stroke-linejoin="miter" stroke-opacity="0.5" fill-opacity="0.0" stroke="rgb(93,165,218)" stroke-width="3.664587683820981" fill="rgb(0,0,0)" stroke-linecap="butt" stroke-miterlimit="10.0"><path d="M 74.2406,96.4098 v -8.4429 "/></g><g stroke-linejoin="miter" stroke-opacity="0.5" fill-opacity="0.0" stroke="rgb(93,165,218)" stroke-width="3.664587683820981" fill="rgb(0,0,0)" stroke-linecap="butt" stroke-miterlimit="10.0"><path d="M 53.1335,96.4098 v -4.2214 "/></g><g stroke-linejoin="miter" stroke-opacity="0.5" fill-opacity="0.0" stroke="rgb(93,165,218)" stroke-width="3.664587683820981" fill="rgb(0,0,0)" stroke-linecap="butt" stroke-miterlimit="10.0"><path d="M 32.0263,96.4098 h 0.0000 "/></g></svg>