<?xml version="1.0" encoding="UTF-8"?>
<!DOCTYPE svg PUBLIC "-//W3C//DTD SVG 1.1//EN"
    "http://www.w3.org/Graphics/SVG/1.1/DTD/svg11.dtd"><svg xmlns="http://www.w3.org/2000/svg" height="200.0000" stroke-opacity="1" viewBox="0 0 200 200" font-size="1" width="200.0000" xmlns:xlink="http://www.w3.org/1999/xlink" stroke="rgb(0,0,0)" version="1.1"><defs></defs><defs></defs><g stroke-linejoin="miter" stroke-opacity="0.0" fill-opacity="0.5" stroke="rgb(0,0,0)" stroke-width="0.0" fill="rgb(102,26,102)" stroke-linecap="butt" stroke-miterlimit="10.0"><path d="M 31.0194,164.5759 l -0.0000,-138.1303 h -2.7626 l -0.0000,138.1303 Z"/></g><defs></defs><g stroke-linejoin="miter" stroke-opacity="1.0" fill-opacity="0.7" font-size="5.5252101631429325px" stroke="rgb(0,0,0)" stroke-width="0.7914150769942931" fill="rgb(51,51,51)" stroke-linecap="butt" stroke-miterlimit="10.0"><text dominant-baseline="middle" transform="matrix(1.0000,0.0000,0.0000,1.0000,24.1129,26.4456)" stroke="none" text-anchor="end">    2.0</text></g><defs></defs><g stroke-linejoin="miter" stroke-opacity="0.5" fill-opacity="0.0" stroke="rgb(26,102,204)" stroke-width="0.7914150769942931" fill="rgb(0,0,0)" stroke-linecap="butt" stroke-miterlimit="10.0"><path d="M 26.8755,26.4456 h 2.7626 "/></g><defs></defs><g stroke-linejoin="miter" stroke-opacity="1.0" fill-opacity="0.7" font-size="5.5252101631429325px" stroke="rgb(0,0,0)" stroke-width="0.7914150769942931" fill="rgb(51,51,51)" stroke-linecap="butt" stroke-miterlimit="10.0"><text dominant-baseline="middle" transform="matrix(1.0000,0.0000,0.0000,1.0000,24.1129,54.0717)" stroke="none" text-anchor="end">    1.0</text></g><defs></defs><g stroke-linejoin="miter" stroke-opacity="0.5" fill-opacity="0.0" stroke="rgb(26,102,204)" stroke-width="0.7914150769942931" fill="rgb(0,0,0)" stroke-linecap="butt" stroke-miterlimit="10.0"><path d="M 26.8755,54.0717 h 2.7626 "/></g><defs></defs><g stroke-linejoin="miter" stroke-opacity="1.0" fill-opacity="0.7" font-size="5.5252101631429325px" stroke="rgb(0,0,0)" stroke-width="0.7914150769942931" fill="rgb(51,51,51)" stroke-linecap="butt" stroke-miterlimit="10.0"><text dominant-baseline="middle" transform="matrix(1.0000,0.0000,0.0000,1.0000,24.1129,81.6977)" stroke="none" text-anchor="end">    0.0</text></g><defs></defs><g stroke-linejoin="miter" stroke-opacity="0.5" fill-opacity="0.0" stroke="rgb(26,102,204)" stroke-width="0.7914150769942931" fill="rgb(0,0,0)" stroke-linecap="butt" stroke-miterlimit="10.0"><path d="M 26.8755,81.6977 h 2.7626 "/></g><defs></defs><g stroke-linejoin="miter" stroke-opacity="1.0" fill-opacity="0.7" font-size="5.5252101631429325px" stroke="rgb(0,0,0)" stroke-width="0.7914150769942931" fill="rgb(51,51,51)" stroke-linecap="butt" stroke-miterlimit="10.0"><text dominant-baseline="middle" transform="matrix(1.0000,0.0000,0.0000,1.0000,24.1129,109.3238)" stroke="none" text-anchor="end">   -1.0</text></g><defs></defs><g stroke-linejoin="miter" stroke-opacity="0.5" fill-opacity="0.0" stroke="rgb(26,102,204)" stroke-width="0.7914150769942931" fill="rgb(0,0,0)" stroke-linecap="butt" stroke-miterlimit="10.0"><path d="M 26.8755,109.3238 h 2.7626 "/></g><defs></defs><g stroke-linejoin="miter" stroke-opacity="1.0" fill-opacity="0.7" font-size="5.5252101631429325px" stroke="rgb(0,0,0)" stroke-width="0.7914150769942931" fill="rgb(51,51,51)" stroke-linecap="butt" stroke-miterlimit="10.0"><text dominant-baseline="middle" transform="matrix(1.0000,0.0000,0.0000,1.0000,24.1129,136.9498)" stroke="none" text-anchor="end">   -2.0</text></g><defs></defs><g stroke-linejoin="miter" stroke-opacity="0.5" fill-opacity="0.0" stroke="rgb(26,102,204)" stroke-width="0.7914150769942931" fill="rgb(0,0,0)" stroke-linecap="butt" stroke-miterlimit="10.0"><path d="M 26.8755,136.9498 h 2.7626 "/></g><defs></defs><g stroke-linejoin="miter" stroke-opacity="1.0" fill-opacity="0.7" font-size="5.5252101631429325px" stroke="rgb(0,0,0)" stroke-width="0.7914150769942931" fill="rgb(51,51,51)" stroke-linecap="butt" stroke-miterlimit="10.0"><text dominant-baseline="middle" transform="matrix(1.0000,0.0000,0.0000,1.0000,24.1129,164.5759)" stroke="none" text-anchor="end">   -3.0</text></g><defs></defs><g stroke-linejoin="miter" stroke-opacity="0.5" fill-opacity="0.0" stroke="rgb(26,102,204)" stroke-width="0.7914150769942931" fill="rgb(0,0,0)" stroke-linecap="butt" stroke-miterlimit="10.0"><path d="M 26.8755,164.5759 h 2.7626 "/></g><defs></defs><g stroke-linejoin="miter" stroke-opacity="0.0" fill-opacity="0.5" stroke="rgb(0,0,0)" stroke-width="0.0" fill="rgb(102,26,102)" stroke-linecap="butt" stroke-miterlimit="10.0"><path d="M 173.5544,170.1011 l -0.0000,-2.7626 h -138.1303 l -0.0000,2.7626 Z"/></g><defs></defs><g stroke-linejoin="miter" stroke-opacity="1.0" fill-opacity="0.7" font-size="5.5252101631429325px" stroke="rgb(0,0,0)" stroke-width="0.7914150769942931" fill="rgb(51,51,51)" stroke-linecap="butt" stroke-miterlimit="10.0"><text dominant-baseline="text-before-edge" transform="matrix(1.0000,0.0000,0.0000,1.0000,173.5544,174.2450)" stroke="none" text-anchor="middle">    3.0</text></g><defs></defs><g stroke-linejoin="miter" stroke-opacity="0.5" fill-opacity="0.0" stroke="rgb(26,102,204)" stroke-width="0.7914150769942931" fill="rgb(0,0,0)" stroke-linecap="butt" stroke-miterlimit="10.0"><path d="M 173.5544,168.7198 v 2.7626 "/></g><defs></defs><g stroke-linejoin="miter" stroke-opacity="1.0" fill-opacity="0.7" font-size="5.5252101631429325px" stroke="rgb(0,0,0)" stroke-width="0.7914150769942931" fill="rgb(51,51,51)" stroke-linecap="butt" stroke-miterlimit="10.0"><text dominant-baseline="text-before-edge" transform="matrix(1.0000,0.0000,0.0000,1.0000,150.5327,174.2450)" stroke="none" text-anchor="middle">    2.0</text></g><defs></defs><g stroke-linejoin="miter" stroke-opacity="0.5" fill-opacity="0.0" stroke="rgb(26,102,204)" stroke-width="0.7914150769942931" fill="rgb(0,0,0)" stroke-linecap="butt" stroke-miterlimit="10.0"><path d="M 150.5327,168.7198 v 2.7626 "/></g><defs></defs><g stroke-linejoin="miter" stroke-opacity="1.0" fill-opacity="0.7" font-size="5.5252101631429325px" stroke="rgb(0,0,0)" stroke-width="0.7914150769942931" fill="rgb(51,51,51)" stroke-linecap="butt" stroke-miterlimit="10.0"><text dominant-baseline="text-before-edge" transform="matrix(1.0000,0.0000,0.0000,1.0000,127.5109,174.2450)" stroke="none" text-anchor="middle">    1.0</text></g><defs></defs><g stroke-linejoin="miter" stroke-opacity="0.5" fill-opacity="0.0" stroke="rgb(26,102,204)" stroke-width="0.7914150769942931" fill="rgb(0,0,0)" stroke-linecap="butt" stroke-miterlimit="10.0"><path d="M 127.5109,168.7198 v 2.7626 "/></g><defs></defs><g stroke-linejoin="miter" stroke-opacity="1.0" fill-opacity="0.7" font-size="5.5252101631429325px" stroke="rgb(0,0,0)" stroke-width="0.7914150769942931" fill="rgb(51,51,51)" stroke-linecap="butt" stroke-miterlimit="10.0"><text dominant-baseline="text-before-edge" transform="matrix(1.0000,0.0000,0.0000,1.0000,104.4892,174.2450)" stroke="none" text-anchor="middle">    0.0</text></g><defs></defs><g stroke-linejoin="miter" stroke-opacity="0.5" fill-opacity="0.0" stroke="rgb(26,102,204)" stroke-width="0.7914150769942931" fill="rgb(0,0,0)" stroke-linecap="butt" stroke-miterlimit="10.0"><path d="M 104.4892,168.7198 v 2.7626 "/></g><defs></defs><g stroke-linejoin="miter" stroke-opacity="1.0" fill-opacity="0.7" font-size="5.5252101631429325px" stroke="rgb(0,0,0)" stroke-width="0.7914150769942931" fill="rgb(51,51,51)" stroke-linecap="butt" stroke-miterlimit="10.0"><text dominant-baseline="text-before-edge" transform="matrix(1.0000,0.0000,0.0000,1.0000,81.4675,174.2450)" stroke="none" text-anchor="middle">   -1.0</text></g><defs></defs><g stroke-linejoin="miter" stroke-opacity="0.5" fill-opacity="0.0" stroke="rgb(26,102,204)" stroke-width="0.7914150769942931" fill="rgb(0,0,0)" stroke-linecap="butt" stroke-miterlimit="10.0"><path d="M 81.4675,168.7198 v 2.7626 "/></g><defs></defs><g stroke-linejoin="miter" stroke-opacity="1.0" fill-opacity="0.7" font-size="5.5252101631429325px" stroke="rgb(0,0,0)" stroke-width="0.7914150769942931" fill="rgb(51,51,51)" stroke-linecap="butt" stroke-miterlimit="10.0"><text dominant-baseline="text-before-edge" transform="matrix(1.0000,0.0000,0.0000,1.0000,58.4458,174.2450)" stroke="none" text-anchor="middle">   -2.0</text></g><defs></defs><g stroke-linejoin="miter" stroke-opacity="0.5" fill-opacity="0.0" stroke="rgb(26,102,204)" stroke-width="0.7914150769942931" fill="rgb(0,0,0)" stroke-linecap="butt" stroke-miterlimit="10.0"><path d="M 58.4458,168.7198 v 2.7626 "/></g><defs></defs><g stroke-linejoin="miter" stroke-opacity="1.0" fill-opacity="0.7" font-size="5.5252101631429325px" stroke="rgb(0,0,0)" stroke-width="0.7914150769942931" fill="rgb(51,51,51)" stroke-linecap="butt" stroke-miterlimit="10.0"><text dominant-baseline="text-before-edge" transform="matrix(1.0000,0.0000,0.0000,1.0000,35.4241,174.2450)" stroke="none" text-anchor="middle">   -3.0</text></g><defs></defs><g stroke-linejoin="miter" stroke-opacity="0.5" fill-opacity="0.0" stroke="rgb(26,102,204)" stroke-width="0.7914150769942931" fill="rgb(0,0,0)" stroke-linecap="butt" stroke-miterlimit="10.0"><path d="M 35.4241,168.7198 v 2.7626 "/></g><defs></defs><g stroke-linejoin="miter" stroke-opacity="0.0" fill-opacity="0.1" stroke="rgb(0,0,0)" stroke-width="0.0" fill="rgb(93,165,218)" stroke-linecap="butt" stroke-miterlimit="10.0"><path d="M 77.0935,123.3233 c 0.0000,-3.8144 -3.0922,-6.9065 -6.9065 -6.9065c -3.8144,-0.0000 -6.9065,3.0922 -6.9065 6.9065c -0.0000,3.8144 3.0922,6.9065 6.9065 6.9065c 3.8144,0.0000 6.9065,-3.0922 6.9065 -6.9065Z"/></g><defs></defs><g stroke-linejoin="miter" stroke-opacity="0.0" fill-opacity="0.1" stroke="rgb(0,0,0)" stroke-width="0.0" fill="rgb(93,165,218)" stroke-linecap="butt" stroke-miterlimit="10.0"><path d="M 119.7343,80.1788 c 0.0000,-3.8144 -3.0922,-6.9065 -6.9065 -6.9065c -3.8144,-0.0000 -6.9065,3.0922 -6.9065 6.9065c -0.0000,3.8144 3.0922,6.9065 6.9065 6.9065c 3.8144,0.0000 6.9065,-3.0922 6.9065 -6.9065Z"/></g><defs></defs><g stroke-linejoin="miter" stroke-opacity="0.0" fill-opacity="0.1" stroke="rgb(0,0,0)" stroke-width="0.0" fill="rgb(93,165,218)" stroke-linecap="butt" stroke-miterlimit="10.0"><path d="M 120.0002,82.2481 c 0.0000,-3.8144 -3.0922,-6.9065 -6.9065 -6.9065c -3.8144,-0.0000 -6.9065,3.0922 -6.9065 6.9065c -0.0000,3.8144 3.0922,6.9065 6.9065 6.9065c 3.8144,0.0000 6.9065,-3.0922 6.9065 -6.9065Z"/></g><defs></defs><g stroke-linejoin="miter" stroke-opacity="0.0" fill-opacity="0.1" stroke="rgb(0,0,0)" stroke-width="0.0" fill="rgb(93,165,218)" stroke-linecap="butt" stroke-miterlimit="10.0"><path d="M 85.8377,122.4189 c 0.0000,-3.8144 -3.0922,-6.9065 -6.9065 -6.9065c -3.8144,-0.0000 -6.9065,3.0922 -6.9065 6.9065c -0.0000,3.8144 3.0922,6.9065 6.9065 6.9065c 3.8144,0.0000 6.9065,-3.0922 6.9065 -6.9065Z"/></g><defs></defs><g stroke-linejoin="miter" stroke-opacity="0.0" fill-opacity="0.1" stroke="rgb(0,0,0)" stroke-width="0.0" fill="rgb(93,165,218)" stroke-linecap="butt" stroke-miterlimit="10.0"><path d="M 139.0753,69.6765 c 0.0000,-3.8144 -3.0922,-6.9065 -6.9065 -6.9065c -3.8144,-0.0000 -6.9065,3.0922 -6.9065 6.9065c -0.0000,3.8144 3.0922,6.9065 6.9065 6.9065c 3.8144,0.0000 6.9065,-3.0922 6.9065 -6.9065Z"/></g><defs></defs><g stroke-linejoin="miter" stroke-opacity="0.0" fill-opacity="0.1" stroke="rgb(0,0,0)" stroke-width="0.0" fill="rgb(93,165,218)" stroke-linecap="butt" stroke-miterlimit="10.0"><path d="M 101.1529,113.7526 c 0.0000,-3.8144 -3.0922,-6.9065 -6.9065 -6.9065c -3.8144,-0.0000 -6.9065,3.0922 -6.9065 6.9065c -0.0000,3.8144 3.0922,6.9065 6.9065 6.9065c 3.8144,0.0000 6.9065,-3.0922 6.9065 -6.9065Z"/></g><defs></defs><g stroke-linejoin="miter" stroke-opacity="0.0" fill-opacity="0.1" stroke="rgb(0,0,0)" stroke-width="0.0" fill="rgb(93,165,218)" stroke-linecap="butt" stroke-miterlimit="10.0"><path d="M 100.4193,111.8122 c 0.0000,-3.8144 -3.0922,-6.9065 -6.9065 -6.9065c -3.8144,-0.0000 -6.9065,3.0922 -6.9065 6.9065c -0.0000,3.8144 3.0922,6.9065 6.9065 6.9065c 3.8144,0.0000 6.9065,-3.0922 6.9065 -6.9065Z"/></g><defs></defs><g stroke-linejoin="miter" stroke-opacity="0.0" fill-opacity="0.1" stroke="rgb(0,0,0)" stroke-width="0.0" fill="rgb(93,165,218)" stroke-linecap="butt" stroke-miterlimit="10.0"><path d="M 115.1703,80.1904 c 0.0000,-3.8144 -3.0922,-6.9065 -6.9065 -6.9065c -3.8144,-0.0000 -6.9065,3.0922 -6.9065 6.9065c -0.0000,3.8144 3.0922,6.9065 6.9065 6.9065c 3.8144,0.0000 6.9065,-3.0922 6.9065 -6.9065Z"/></g><defs></defs><g stroke-linejoin="miter" stroke-opacity="0.0" fill-opacity="0.1" stroke="rgb(0,0,0)" stroke-width="0.0" fill="rgb(93,165,218)" stroke-linecap="butt" stroke-miterlimit="10.0"><path d="M 139.5676,47.5264 c 0.0000,-3.8144 -3.0922,-6.9065 -6.9065 -6.9065c -3.8144,-0.0000 -6.9065,3.0922 -6.9065 6.9065c -0.0000,3.8144 3.0922,6.9065 6.9065 6.9065c 3.8144,0.0000 6.9065,-3.0922 6.9065 -6.9065Z"/></g><defs></defs><g stroke-linejoin="miter" stroke-opacity="0.0" fill-opacity="0.1" stroke="rgb(0,0,0)" stroke-width="0.0" fill="rgb(93,165,218)" stroke-linecap="butt" stroke-miterlimit="10.0"><path d="M 177.9591,39.7079 c 0.0000,-3.8144 -3.0922,-6.9065 -6.9065 -6.9065c -3.8144,-0.0000 -6.9065,3.0922 -6.9065 6.9065c -0.0000,3.8144 3.0922,6.9065 6.9065 6.9065c 3.8144,0.0000 6.9065,-3.0922 6.9065 -6.9065Z"/></g><defs></defs><g stroke-linejoin="miter" stroke-opacity="0.0" fill-opacity="0.1" stroke="rgb(0,0,0)" stroke-width="0.0" fill="rgb(93,165,218)" stroke-linecap="butt" stroke-miterlimit="10.0"><path d="M 108.3302,103.6599 c 0.0000,-3.8144 -3.0922,-6.9065 -6.9065 -6.9065c -3.8144,-0.0000 -6.9065,3.0922 -6.9065 6.9065c -0.0000,3.8144 3.0922,6.9065 6.9065 6.9065c 3.8144,0.0000 6.9065,-3.0922 6.9065 -6.9065Z"/></g><defs></defs><g stroke-linejoin="miter" stroke-opacity="0.0" fill-opacity="0.1" stroke="rgb(0,0,0)" stroke-width="0.0" fill="rgb(93,165,218)" stroke-linecap="butt" stroke-miterlimit="10.0"><path d="M 83.6738,110.8106 c 0.0000,-3.8144 -3.0922,-6.9065 -6.9065 -6.9065c -3.8144,-0.0000 -6.9065,3.0922 -6.9065 6.9065c -0.0000,3.8144 3.0922,6.9065 6.9065 6.9065c 3.8144,0.0000 6.9065,-3.0922 6.9065 -6.9065Z"/></g><defs></defs><g stroke-linejoin="miter" stroke-opacity="0.0" fill-opacity="0.1" stroke="rgb(0,0,0)" stroke-width="0.0" fill="rgb(93,165,218)" stroke-linecap="butt" stroke-miterlimit="10.0"><path d="M 91.1225,81.0677 c 0.0000,-3.8144 -3.0922,-6.9065 -6.9065 -6.9065c -3.8144,-0.0000 -6.9065,3.0922 -6.9065 6.9065c -0.0000,3.8144 3.0922,6.9065 6.9065 6.9065c 3.8144,0.0000 6.9065,-3.0922 6.9065 -6.9065Z"/></g><defs></defs><g stroke-linejoin="miter" stroke-opacity="0.0" fill-opacity="0.1" stroke="rgb(0,0,0)" stroke-width="0.0" fill="rgb(93,165,218)" stroke-linecap="butt" stroke-miterlimit="10.0"><path d="M 91.2153,132.2183 c 0.0000,-3.8144 -3.0922,-6.9065 -6.9065 -6.9065c -3.8144,-0.0000 -6.9065,3.0922 -6.9065 6.9065c -0.0000,3.8144 3.0922,6.9065 6.9065 6.9065c 3.8144,0.0000 6.9065,-3.0922 6.9065 -6.9065Z"/></g><defs></defs><g stroke-linejoin="miter" stroke-opacity="0.0" fill-opacity="0.1" stroke="rgb(0,0,0)" stroke-width="0.0" fill="rgb(93,165,218)" stroke-linecap="butt" stroke-miterlimit="10.0"><path d="M 67.3621,131.1712 c 0.0000,-3.8144 -3.0922,-6.9065 -6.9065 -6.9065c -3.8144,-0.0000 -6.9065,3.0922 -6.9065 6.9065c -0.0000,3.8144 3.0922,6.9065 6.9065 6.9065c 3.8144,0.0000 6.9065,-3.0922 6.9065 -6.9065Z"/></g><defs></defs><g stroke-linejoin="miter" stroke-opacity="0.0" fill-opacity="0.1" stroke="rgb(0,0,0)" stroke-width="0.0" fill="rgb(93,165,218)" stroke-linecap="butt" stroke-miterlimit="10.0"><path d="M 136.4661,59.8518 c 0.0000,-3.8144 -3.0922,-6.9065 -6.9065 -6.9065c -3.8144,-0.0000 -6.9065,3.0922 -6.9065 6.9065c -0.0000,3.8144 3.0922,6.9065 6.9065 6.9065c 3.8144,0.0000 6.9065,-3.0922 6.9065 -6.9065Z"/></g><defs></defs><g stroke-linejoin="miter" stroke-opacity="0.0" fill-opacity="0.1" stroke="rgb(0,0,0)" stroke-width="0.0" fill="rgb(93,165,218)" stroke-linecap="butt" stroke-miterlimit="10.0"><path d="M 89.1246,119.6741 c 0.0000,-3.8144 -3.0922,-6.9065 -6.9065 -6.9065c -3.8144,-0.0000 -6.9065,3.0922 -6.9065 6.9065c -0.0000,3.8144 3.0922,6.9065 6.9065 6.9065c 3.8144,0.0000 6.9065,-3.0922 6.9065 -6.9065Z"/></g><defs></defs><g stroke-linejoin="miter" stroke-opacity="0.0" fill-opacity="0.1" stroke="rgb(0,0,0)" stroke-width="0.0" fill="rgb(93,165,218)" stroke-linecap="butt" stroke-miterlimit="10.0"><path d="M 113.8540,71.3774 c 0.0000,-3.8144 -3.0922,-6.9065 -6.9065 -6.9065c -3.8144,-0.0000 -6.9065,3.0922 -6.9065 6.9065c -0.0000,3.8144 3.0922,6.9065 6.9065 6.9065c 3.8144,0.0000 6.9065,-3.0922 6.9065 -6.9065Z"/></g><defs></defs><g stroke-linejoin="miter" stroke-opacity="0.0" fill-opacity="0.1" stroke="rgb(0,0,0)" stroke-width="0.0" fill="rgb(93,165,218)" stroke-linecap="butt" stroke-miterlimit="10.0"><path d="M 102.0404,74.3077 c 0.0000,-3.8144 -3.0922,-6.9065 -6.9065 -6.9065c -3.8144,-0.0000 -6.9065,3.0922 -6.9065 6.9065c -0.0000,3.8144 3.0922,6.9065 6.9065 6.9065c 3.8144,0.0000 6.9065,-3.0922 6.9065 -6.9065Z"/></g><defs></defs><g stroke-linejoin="miter" stroke-opacity="0.0" fill-opacity="0.1" stroke="rgb(0,0,0)" stroke-width="0.0" fill="rgb(93,165,218)" stroke-linecap="butt" stroke-miterlimit="10.0"><path d="M 98.5607,97.4659 c 0.0000,-3.8144 -3.0922,-6.9065 -6.9065 -6.9065c -3.8144,-0.0000 -6.9065,3.0922 -6.9065 6.9065c -0.0000,3.8144 3.0922,6.9065 6.9065 6.9065c 3.8144,0.0000 6.9065,-3.0922 6.9065 -6.9065Z"/></g><defs></defs><g stroke-linejoin="miter" stroke-opacity="1.0" fill-opacity="1.0" stroke="rgb(0,0,0)" stroke-width="0.0" fill="rgb(255,0,0)" stroke-linecap="butt" stroke-miterlimit="10.0"><path d="M 105.3353,95.5108 c 0.0000,-1.3742 -1.1140,-2.4882 -2.4882 -2.4882c -1.3742,-0.0000 -2.4882,1.1140 -2.4882 2.4882c -0.0000,1.3742 1.1140,2.4882 2.4882 2.4882c 1.3742,0.0000 2.4882,-1.1140 2.4882 -2.4882Z"/></g><defs></defs><g stroke-linejoin="miter" stroke-opacity="0.0" fill-opacity="0.1" stroke="rgb(0,0,0)" stroke-width="0.0" fill="rgb(85,85,85)" stroke-linecap="butt" stroke-miterlimit="10.0"><path d="M 106.4951,51.5423 c 0.0000,-1.5257 -1.2369,-2.7626 -2.7626 -2.7626c -1.5257,-0.0000 -2.7626,1.2369 -2.7626 2.7626c -0.0000,1.5257 1.2369,2.7626 2.7626 2.7626c 1.5257,0.0000 2.7626,-1.2369 2.7626 -2.7626Z"/></g><defs></defs><g stroke-linejoin="miter" stroke-opacity="0.0" fill-opacity="0.1" stroke="rgb(0,0,0)" stroke-width="0.0" fill="rgb(85,85,85)" stroke-linecap="butt" stroke-miterlimit="10.0"><path d="M 74.5654,123.1654 c 0.0000,-1.5257 -1.2369,-2.7626 -2.7626 -2.7626c -1.5257,-0.0000 -2.7626,1.2369 -2.7626 2.7626c -0.0000,1.5257 1.2369,2.7626 2.7626 2.7626c 1.5257,0.0000 2.7626,-1.2369 2.7626 -2.7626Z"/></g><defs></defs><g stroke-linejoin="miter" stroke-opacity="0.0" fill-opacity="0.1" stroke="rgb(0,0,0)" stroke-width="0.0" fill="rgb(85,85,85)" stroke-linecap="butt" stroke-miterlimit="10.0"><path d="M 146.4927,63.1609 c 0.0000,-1.5257 -1.2369,-2.7626 -2.7626 -2.7626c -1.5257,-0.0000 -2.7626,1.2369 -2.7626 2.7626c -0.0000,1.5257 1.2369,2.7626 2.7626 2.7626c 1.5257,0.0000 2.7626,-1.2369 2.7626 -2.7626Z"/></g><defs></defs><g stroke-linejoin="miter" stroke-opacity="0.0" fill-opacity="0.1" stroke="rgb(0,0,0)" stroke-width="0.0" fill="rgb(85,85,85)" stroke-linecap="butt" stroke-miterlimit="10.0"><path d="M 94.4956,95.1948 c 0.0000,-1.5257 -1.2369,-2.7626 -2.7626 -2.7626c -1.5257,-0.0000 -2.7626,1.2369 -2.7626 2.7626c -0.0000,1.5257 1.2369,2.7626 2.7626 2.7626c 1.5257,0.0000 2.7626,-1.2369 2.7626 -2.7626Z"/></g><defs></defs><g stroke-linejoin="miter" stroke-opacity="0.0" fill-opacity="0.1" stroke="rgb(0,0,0)" stroke-width="0.0" fill="rgb(85,85,85)" stroke-linecap="butt" stroke-miterlimit="10.0"><path d="M 72.8329,104.0530 c 0.0000,-1.5257 -1.2369,-2.7626 -2.7626 -2.7626c -1.5257,-0.0000 -2.7626,1.2369 -2.7626 2.7626c -0.0000,1.5257 1.2369,2.7626 2.7626 2.7626c 1.5257,0.0000 2.7626,-1.2369 2.7626 -2.7626Z"/></g><defs></defs><g stroke-linejoin="miter" stroke-opacity="0.0" fill-opacity="0.1" stroke="rgb(0,0,0)" stroke-width="0.0" fill="rgb(85,85,85)" stroke-linecap="butt" stroke-miterlimit="10.0"><path d="M 73.0789,105.5008 c 0.0000,-1.5257 -1.2369,-2.7626 -2.7626 -2.7626c -1.5257,-0.0000 -2.7626,1.2369 -2.7626 2.7626c -0.0000,1.5257 1.2369,2.7626 2.7626 2.7626c 1.5257,0.0000 2.7626,-1.2369 2.7626 -2.7626Z"/></g><defs></defs><g stroke-linejoin="miter" stroke-opacity="0.0" fill-opacity="0.1" stroke="rgb(0,0,0)" stroke-width="0.0" fill="rgb(85,85,85)" stroke-linecap="butt" stroke-miterlimit="10.0"><path d="M 89.7094,124.0070 c 0.0000,-1.5257 -1.2369,-2.7626 -2.7626 -2.7626c -1.5257,-0.0000 -2.7626,1.2369 -2.7626 2.7626c -0.0000,1.5257 1.2369,2.7626 2.7626 2.7626c 1.5257,0.0000 2.7626,-1.2369 2.7626 -2.7626Z"/></g><defs></defs><g stroke-linejoin="miter" stroke-opacity="0.0" fill-opacity="0.1" stroke="rgb(0,0,0)" stroke-width="0.0" fill="rgb(85,85,85)" stroke-linecap="butt" stroke-miterlimit="10.0"><path d="M 102.8411,90.3712 c 0.0000,-1.5257 -1.2369,-2.7626 -2.7626 -2.7626c -1.5257,-0.0000 -2.7626,1.2369 -2.7626 2.7626c -0.0000,1.5257 1.2369,2.7626 2.7626 2.7626c 1.5257,0.0000 2.7626,-1.2369 2.7626 -2.7626Z"/></g><defs></defs><g stroke-linejoin="miter" stroke-opacity="0.0" fill-opacity="0.1" stroke="rgb(0,0,0)" stroke-width="0.0" fill="rgb(85,85,85)" stroke-linecap="butt" stroke-miterlimit="10.0"><path d="M 76.2741,110.3414 c 0.0000,-1.5257 -1.2369,-2.7626 -2.7626 -2.7626c -1.5257,-0.0000 -2.7626,1.2369 -2.7626 2.7626c -0.0000,1.5257 1.2369,2.7626 2.7626 2.7626c 1.5257,0.0000 2.7626,-1.2369 2.7626 -2.7626Z"/></g><defs></defs><g stroke-linejoin="miter" stroke-opacity="0.0" fill-opacity="0.1" stroke="rgb(0,0,0)" stroke-width="0.0" fill="rgb(85,85,85)" stroke-linecap="butt" stroke-miterlimit="10.0"><path d="M 108.1084,87.3178 c 0.0000,-1.5257 -1.2369,-2.7626 -2.7626 -2.7626c -1.5257,-0.0000 -2.7626,1.2369 -2.7626 2.7626c -0.0000,1.5257 1.2369,2.7626 2.7626 2.7626c 1.5257,0.0000 2.7626,-1.2369 2.7626 -2.7626Z"/></g><defs></defs><g stroke-linejoin="miter" stroke-opacity="0.0" fill-opacity="0.1" stroke="rgb(0,0,0)" stroke-width="0.0" fill="rgb(85,85,85)" stroke-linecap="butt" stroke-miterlimit="10.0"><path d="M 112.1221,85.9141 c 0.0000,-1.5257 -1.2369,-2.7626 -2.7626 -2.7626c -1.5257,-0.0000 -2.7626,1.2369 -2.7626 2.7626c -0.0000,1.5257 1.2369,2.7626 2.7626 2.7626c 1.5257,0.0000 2.7626,-1.2369 2.7626 -2.7626Z"/></g><defs></defs><g stroke-linejoin="miter" stroke-opacity="0.0" fill-opacity="0.1" stroke="rgb(0,0,0)" stroke-width="0.0" fill="rgb(85,85,85)" stroke-linecap="butt" stroke-miterlimit="10.0"><path d="M 82.3853,106.4122 c 0.0000,-1.5257 -1.2369,-2.7626 -2.7626 -2.7626c -1.5257,-0.0000 -2.7626,1.2369 -2.7626 2.7626c -0.0000,1.5257 1.2369,2.7626 2.7626 2.7626c 1.5257,0.0000 2.7626,-1.2369 2.7626 -2.7626Z"/></g><defs></defs><g stroke-linejoin="miter" stroke-opacity="0.0" fill-opacity="0.1" stroke="rgb(0,0,0)" stroke-width="0.0" fill="rgb(85,85,85)" stroke-linecap="butt" stroke-miterlimit="10.0"><path d="M 113.2798,74.1209 c 0.0000,-1.5257 -1.2369,-2.7626 -2.7626 -2.7626c -1.5257,-0.0000 -2.7626,1.2369 -2.7626 2.7626c -0.0000,1.5257 1.2369,2.7626 2.7626 2.7626c 1.5257,0.0000 2.7626,-1.2369 2.7626 -2.7626Z"/></g><defs></defs><g stroke-linejoin="miter" stroke-opacity="0.0" fill-opacity="0.1" stroke="rgb(0,0,0)" stroke-width="0.0" fill="rgb(85,85,85)" stroke-linecap="butt" stroke-miterlimit="10.0"><path d="M 124.2055,66.8709 c 0.0000,-1.5257 -1.2369,-2.7626 -2.7626 -2.7626c -1.5257,-0.0000 -2.7626,1.2369 -2.7626 2.7626c -0.0000,1.5257 1.2369,2.7626 2.7626 2.7626c 1.5257,0.0000 2.7626,-1.2369 2.7626 -2.7626Z"/></g><defs></defs><g stroke-linejoin="miter" stroke-opacity="0.0" fill-opacity="0.1" stroke="rgb(0,0,0)" stroke-width="0.0" fill="rgb(85,85,85)" stroke-linecap="butt" stroke-miterlimit="10.0"><path d="M 97.7327,66.2072 c 0.0000,-1.5257 -1.2369,-2.7626 -2.7626 -2.7626c -1.5257,-0.0000 -2.7626,1.2369 -2.7626 2.7626c -0.0000,1.5257 1.2369,2.7626 2.7626 2.7626c 1.5257,0.0000 2.7626,-1.2369 2.7626 -2.7626Z"/></g><defs></defs><g stroke-linejoin="miter" stroke-opacity="0.0" fill-opacity="0.1" stroke="rgb(0,0,0)" stroke-width="0.0" fill="rgb(85,85,85)" stroke-linecap="butt" stroke-miterlimit="10.0"><path d="M 120.0247,77.7767 c 0.0000,-1.5257 -1.2369,-2.7626 -2.7626 -2.7626c -1.5257,-0.0000 -2.7626,1.2369 -2.7626 2.7626c -0.0000,1.5257 1.2369,2.7626 2.7626 2.7626c 1.5257,0.0000 2.7626,-1.2369 2.7626 -2.7626Z"/></g><defs></defs><g stroke-linejoin="miter" stroke-opacity="0.0" fill-opacity="0.1" stroke="rgb(0,0,0)" stroke-width="0.0" fill="rgb(85,85,85)" stroke-linecap="butt" stroke-miterlimit="10.0"><path d="M 139.4489,63.0142 c 0.0000,-1.5257 -1.2369,-2.7626 -2.7626 -2.7626c -1.5257,-0.0000 -2.7626,1.2369 -2.7626 2.7626c -0.0000,1.5257 1.2369,2.7626 2.7626 2.7626c 1.5257,0.0000 2.7626,-1.2369 2.7626 -2.7626Z"/></g><defs></defs><g stroke-linejoin="miter" stroke-opacity="0.0" fill-opacity="0.1" stroke="rgb(0,0,0)" stroke-width="0.0" fill="rgb(85,85,85)" stroke-linecap="butt" stroke-miterlimit="10.0"><path d="M 108.6963,61.8099 c 0.0000,-1.5257 -1.2369,-2.7626 -2.7626 -2.7626c -1.5257,-0.0000 -2.7626,1.2369 -2.7626 2.7626c -0.0000,1.5257 1.2369,2.7626 2.7626 2.7626c 1.5257,0.0000 2.7626,-1.2369 2.7626 -2.7626Z"/></g><defs></defs><g stroke-linejoin="miter" stroke-opacity="0.0" fill-opacity="0.1" stroke="rgb(0,0,0)" stroke-width="0.0" fill="rgb(85,85,85)" stroke-linecap="butt" stroke-miterlimit="10.0"><path d="M 142.3415,75.4997 c 0.0000,-1.5257 -1.2369,-2.7626 -2.7626 -2.7626c -1.5257,-0.0000 -2.7626,1.2369 -2.7626 2.7626c -0.0000,1.5257 1.2369,2.7626 2.7626 2.7626c 1.5257,0.0000 2.7626,-1.2369 2.7626 -2.7626Z"/></g><defs></defs><g stroke-linejoin="miter" stroke-opacity="0.0" fill-opacity="0.1" stroke="rgb(0,0,0)" stroke-width="0.0" fill="rgb(85,85,85)" stroke-linecap="butt" stroke-miterlimit="10.0"><path d="M 63.8916,122.3004 c 0.0000,-1.5257 -1.2369,-2.7626 -2.7626 -2.7626c -1.5257,-0.0000 -2.7626,1.2369 -2.7626 2.7626c -0.0000,1.5257 1.2369,2.7626 2.7626 2.7626c 1.5257,0.0000 2.7626,-1.2369 2.7626 -2.7626Z"/></g><defs></defs><g stroke-linejoin="miter" stroke-opacity="0.0" fill-opacity="0.1" stroke="rgb(0,0,0)" stroke-width="0.0" fill="rgb(85,85,85)" stroke-linecap="butt" stroke-miterlimit="10.0"><path d="M 66.3255,116.0001 c 0.0000,-1.5257 -1.2369,-2.7626 -2.7626 -2.7626c -1.5257,-0.0000 -2.7626,1.2369 -2.7626 2.7626c -0.0000,1.5257 1.2369,2.7626 2.7626 2.7626c 1.5257,0.0000 2.7626,-1.2369 2.7626 -2.7626Z"/></g><defs></defs><g stroke-linejoin="miter" stroke-opacity="0.0" fill-opacity="0.1" stroke="rgb(0,0,0)" stroke-width="0.0" fill="rgb(85,85,85)" stroke-linecap="butt" stroke-miterlimit="10.0"><path d="M 90.6501,101.7243 c 0.0000,-1.5257 -1.2369,-2.7626 -2.7626 -2.7626c -1.5257,-0.0000 -2.7626,1.2369 -2.7626 2.7626c -0.0000,1.5257 1.2369,2.7626 2.7626 2.7626c 1.5257,0.0000 2.7626,-1.2369 2.7626 -2.7626Z"/></g><defs></defs><g stroke-linejoin="miter" stroke-opacity="0.0" fill-opacity="0.1" stroke="rgb(0,0,0)" stroke-width="0.0" fill="rgb(85,85,85)" stroke-linecap="butt" stroke-miterlimit="10.0"><path d="M 81.6359,115.6344 c 0.0000,-1.5257 -1.2369,-2.7626 -2.7626 -2.7626c -1.5257,-0.0000 -2.7626,1.2369 -2.7626 2.7626c -0.0000,1.5257 1.2369,2.7626 2.7626 2.7626c 1.5257,0.0000 2.7626,-1.2369 2.7626 -2.7626Z"/></g><defs></defs><g stroke-linejoin="miter" stroke-opacity="0.0" fill-opacity="0.1" stroke="rgb(0,0,0)" stroke-width="0.0" fill="rgb(85,85,85)" stroke-linecap="butt" stroke-miterlimit="10.0"><path d="M 90.3380,139.2606 c 0.0000,-1.5257 -1.2369,-2.7626 -2.7626 -2.7626c -1.5257,-0.0000 -2.7626,1.2369 -2.7626 2.7626c -0.0000,1.5257 1.2369,2.7626 2.7626 2.7626c 1.5257,0.0000 2.7626,-1.2369 2.7626 -2.7626Z"/></g><defs></defs><g stroke-linejoin="miter" stroke-opacity="0.0" fill-opacity="0.1" stroke="rgb(0,0,0)" stroke-width="0.0" fill="rgb(85,85,85)" stroke-linecap="butt" stroke-miterlimit="10.0"><path d="M 123.0609,62.4937 c 0.0000,-1.5257 -1.2369,-2.7626 -2.7626 -2.7626c -1.5257,-0.0000 -2.7626,1.2369 -2.7626 2.7626c -0.0000,1.5257 1.2369,2.7626 2.7626 2.7626c 1.5257,0.0000 2.7626,-1.2369 2.7626 -2.7626Z"/></g><defs></defs><g stroke-linejoin="miter" stroke-opacity="0.0" fill-opacity="0.1" stroke="rgb(0,0,0)" stroke-width="0.0" fill="rgb(85,85,85)" stroke-linecap="butt" stroke-miterlimit="10.0"><path d="M 92.8965,67.9700 c 0.0000,-1.5257 -1.2369,-2.7626 -2.7626 -2.7626c -1.5257,-0.0000 -2.7626,1.2369 -2.7626 2.7626c -0.0000,1.5257 1.2369,2.7626 2.7626 2.7626c 1.5257,0.0000 2.7626,-1.2369 2.7626 -2.7626Z"/></g><defs></defs><g stroke-linejoin="miter" stroke-opacity="0.0" fill-opacity="0.1" stroke="rgb(0,0,0)" stroke-width="0.0" fill="rgb(85,85,85)" stroke-linecap="butt" stroke-miterlimit="10.0"><path d="M 115.7218,75.8171 c 0.0000,-1.5257 -1.2369,-2.7626 -2.7626 -2.7626c -1.5257,-0.0000 -2.7626,1.2369 -2.7626 2.7626c -0.0000,1.5257 1.2369,2.7626 2.7626 2.7626c 1.5257,0.0000 2.7626,-1.2369 2.7626 -2.7626Z"/></g><defs></defs><g stroke-linejoin="miter" stroke-opacity="0.0" fill-opacity="0.1" stroke="rgb(0,0,0)" stroke-width="0.0" fill="rgb(85,85,85)" stroke-linecap="butt" stroke-miterlimit="10.0"><path d="M 61.0579,162.0973 c 0.0000,-1.5257 -1.2369,-2.7626 -2.7626 -2.7626c -1.5257,-0.0000 -2.7626,1.2369 -2.7626 2.7626c -0.0000,1.5257 1.2369,2.7626 2.7626 2.7626c 1.5257,0.0000 2.7626,-1.2369 2.7626 -2.7626Z"/></g><defs></defs><g stroke-linejoin="miter" stroke-opacity="0.0" fill-opacity="0.1" stroke="rgb(0,0,0)" stroke-width="0.0" fill="rgb(85,85,85)" stroke-linecap="butt" stroke-miterlimit="10.0"><path d="M 60.5577,107.3086 c 0.0000,-1.5257 -1.2369,-2.7626 -2.7626 -2.7626c -1.5257,-0.0000 -2.7626,1.2369 -2.7626 2.7626c -0.0000,1.5257 1.2369,2.7626 2.7626 2.7626c 1.5257,0.0000 2.7626,-1.2369 2.7626 -2.7626Z"/></g><defs></defs><g stroke-linejoin="miter" stroke-opacity="0.0" fill-opacity="0.1" stroke="rgb(0,0,0)" stroke-width="0.0" fill="rgb(85,85,85)" stroke-linecap="butt" stroke-miterlimit="10.0"><path d="M 93.1413,97.0595 c 0.0000,-1.5257 -1.2369,-2.7626 -2.7626 -2.7626c -1.5257,-0.0000 -2.7626,1.2369 -2.7626 2.7626c -0.0000,1.5257 1.2369,2.7626 2.7626 2.7626c 1.5257,0.0000 2.7626,-1.2369 2.7626 -2.7626Z"/></g><defs></defs><g stroke-linejoin="miter" stroke-opacity="0.0" fill-opacity="0.1" stroke="rgb(0,0,0)" stroke-width="0.0" fill="rgb(85,85,85)" stroke-linecap="butt" stroke-miterlimit="10.0"><path d="M 95.6246,100.5891 c 0.0000,-1.5257 -1.2369,-2.7626 -2.7626 -2.7626c -1.5257,-0.0000 -2.7626,1.2369 -2.7626 2.7626c -0.0000,1.5257 1.2369,2.7626 2.7626 2.7626c 1.5257,0.0000 2.7626,-1.2369 2.7626 -2.7626Z"/></g><defs></defs><g stroke-linejoin="miter" stroke-opacity="0.0" fill-opacity="0.1" stroke="rgb(0,0,0)" stroke-width="0.0" fill="rgb(85,85,85)" stroke-linecap="butt" stroke-miterlimit="10.0"><path d="M 117.5134,84.8950 c 0.0000,-1.5257 -1.2369,-2.7626 -2.7626 -2.7626c -1.5257,-0.0000 -2.7626,1.2369 -2.7626 2.7626c -0.0000,1.5257 1.2369,2.7626 2.7626 2.7626c 1.5257,0.0000 2.7626,-1.2369 2.7626 -2.7626Z"/></g><defs></defs><g stroke-linejoin="miter" stroke-opacity="0.0" fill-opacity="0.1" stroke="rgb(0,0,0)" stroke-width="0.0" fill="rgb(85,85,85)" stroke-linecap="butt" stroke-miterlimit="10.0"><path d="M 122.7767,75.5031 c 0.0000,-1.5257 -1.2369,-2.7626 -2.7626 -2.7626c -1.5257,-0.0000 -2.7626,1.2369 -2.7626 2.7626c -0.0000,1.5257 1.2369,2.7626 2.7626 2.7626c 1.5257,0.0000 2.7626,-1.2369 2.7626 -2.7626Z"/></g><defs></defs><g stroke-linejoin="miter" stroke-opacity="0.0" fill-opacity="0.1" stroke="rgb(0,0,0)" stroke-width="0.0" fill="rgb(85,85,85)" stroke-linecap="butt" stroke-miterlimit="10.0"><path d="M 65.7016,139.4144 c 0.0000,-1.5257 -1.2369,-2.7626 -2.7626 -2.7626c -1.5257,-0.0000 -2.7626,1.2369 -2.7626 2.7626c -0.0000,1.5257 1.2369,2.7626 2.7626 2.7626c 1.5257,0.0000 2.7626,-1.2369 2.7626 -2.7626Z"/></g><defs></defs><g stroke-linejoin="miter" stroke-opacity="0.0" fill-opacity="0.1" stroke="rgb(0,0,0)" stroke-width="0.0" fill="rgb(85,85,85)" stroke-linecap="butt" stroke-miterlimit="10.0"><path d="M 51.1720,164.5759 c 0.0000,-1.5257 -1.2369,-2.7626 -2.7626 -2.7626c -1.5257,-0.0000 -2.7626,1.2369 -2.7626 2.7626c -0.0000,1.5257 1.2369,2.7626 2.7626 2.7626c 1.5257,0.0000 2.7626,-1.2369 2.7626 -2.7626Z"/></g><defs></defs><g stroke-linejoin="miter" stroke-opacity="0.0" fill-opacity="0.1" stroke="rgb(0,0,0)" stroke-width="0.0" fill="rgb(85,85,85)" stroke-linecap="butt" stroke-miterlimit="10.0"><path d="M 123.3113,80.4562 c 0.0000,-1.5257 -1.2369,-2.7626 -2.7626 -2.7626c -1.5257,-0.0000 -2.7626,1.2369 -2.7626 2.7626c -0.0000,1.5257 1.2369,2.7626 2.7626 2.7626c 1.5257,0.0000 2.7626,-1.2369 2.7626 -2.7626Z"/></g><defs></defs><g stroke-linejoin="miter" stroke-opacity="0.0" fill-opacity="0.1" stroke="rgb(0,0,0)" stroke-width="0.0" fill="rgb(85,85,85)" stroke-linecap="butt" stroke-miterlimit="10.0"><path d="M 87.5351,92.7882 c 0.0000,-1.5257 -1.2369,-2.7626 -2.7626 -2.7626c -1.5257,-0.0000 -2.7626,1.2369 -2.7626 2.7626c -0.0000,1.5257 1.2369,2.7626 2.7626 2.7626c 1.5257,0.0000 2.7626,-1.2369 2.7626 -2.7626Z"/></g><defs></defs><g stroke-linejoin="miter" stroke-opacity="0.0" fill-opacity="0.1" stroke="rgb(0,0,0)" stroke-width="0.0" fill="rgb(85,85,85)" stroke-linecap="butt" stroke-miterlimit="10.0"><path d="M 100.7932,90.7919 c 0.0000,-1.5257 -1.2369,-2.7626 -2.7626 -2.7626c -1.5257,-0.0000 -2.7626,1.2369 -2.7626 2.7626c -0.0000,1.5257 1.2369,2.7626 2.7626 2.7626c 1.5257,0.0000 2.7626,-1.2369 2.7626 -2.7626Z"/></g><defs></defs><g stroke-linejoin="miter" stroke-opacity="0.0" fill-opacity="0.1" stroke="rgb(0,0,0)" stroke-width="0.0" fill="rgb(85,85,85)" stroke-linecap="butt" stroke-miterlimit="10.0"><path d="M 85.2669,74.9897 c 0.0000,-1.5257 -1.2369,-2.7626 -2.7626 -2.7626c -1.5257,-0.0000 -2.7626,1.2369 -2.7626 2.7626c -0.0000,1.5257 1.2369,2.7626 2.7626 2.7626c 1.5257,0.0000 2.7626,-1.2369 2.7626 -2.7626Z"/></g><defs></defs><g stroke-linejoin="miter" stroke-opacity="0.0" fill-opacity="0.1" stroke="rgb(0,0,0)" stroke-width="0.0" fill="rgb(85,85,85)" stroke-linecap="butt" stroke-miterlimit="10.0"><path d="M 110.1335,85.5990 c 0.0000,-1.5257 -1.2369,-2.7626 -2.7626 -2.7626c -1.5257,-0.0000 -2.7626,1.2369 -2.7626 2.7626c -0.0000,1.5257 1.2369,2.7626 2.7626 2.7626c 1.5257,0.0000 2.7626,-1.2369 2.7626 -2.7626Z"/></g><defs></defs><g stroke-linejoin="miter" stroke-opacity="0.0" fill-opacity="0.1" stroke="rgb(0,0,0)" stroke-width="0.0" fill="rgb(85,85,85)" stroke-linecap="butt" stroke-miterlimit="10.0"><path d="M 107.5132,79.0458 c 0.0000,-1.5257 -1.2369,-2.7626 -2.7626 -2.7626c -1.5257,-0.0000 -2.7626,1.2369 -2.7626 2.7626c -0.0000,1.5257 1.2369,2.7626 2.7626 2.7626c 1.5257,0.0000 2.7626,-1.2369 2.7626 -2.7626Z"/></g><defs></defs><g stroke-linejoin="miter" stroke-opacity="0.0" fill-opacity="0.1" stroke="rgb(0,0,0)" stroke-width="0.0" fill="rgb(85,85,85)" stroke-linecap="butt" stroke-miterlimit="10.0"><path d="M 36.5446,151.8370 c 0.0000,-1.5257 -1.2369,-2.7626 -2.7626 -2.7626c -1.5257,-0.0000 -2.7626,1.2369 -2.7626 2.7626c -0.0000,1.5257 1.2369,2.7626 2.7626 2.7626c 1.5257,0.0000 2.7626,-1.2369 2.7626 -2.7626Z"/></g><defs></defs><g stroke-linejoin="miter" stroke-opacity="0.0" fill-opacity="0.1" stroke="rgb(0,0,0)" stroke-width="0.0" fill="rgb(85,85,85)" stroke-linecap="butt" stroke-miterlimit="10.0"><path d="M 123.6292,90.5607 c 0.0000,-1.5257 -1.2369,-2.7626 -2.7626 -2.7626c -1.5257,-0.0000 -2.7626,1.2369 -2.7626 2.7626c -0.0000,1.5257 1.2369,2.7626 2.7626 2.7626c 1.5257,0.0000 2.7626,-1.2369 2.7626 -2.7626Z"/></g><defs></defs><g stroke-linejoin="miter" stroke-opacity="0.0" fill-opacity="0.1" stroke="rgb(0,0,0)" stroke-width="0.0" fill="rgb(85,85,85)" stroke-linecap="butt" stroke-miterlimit="10.0"><path d="M 88.0199,113.8604 c 0.0000,-1.5257 -1.2369,-2.7626 -2.7626 -2.7626c -1.5257,-0.0000 -2.7626,1.2369 -2.7626 2.7626c -0.0000,1.5257 1.2369,2.7626 2.7626 2.7626c 1.5257,0.0000 2.7626,-1.2369 2.7626 -2.7626Z"/></g><defs></defs><g stroke-linejoin="miter" stroke-opacity="0.0" fill-opacity="0.1" stroke="rgb(0,0,0)" stroke-width="0.0" fill="rgb(85,85,85)" stroke-linecap="butt" stroke-miterlimit="10.0"><path d="M 98.7005,102.9407 c 0.0000,-1.5257 -1.2369,-2.7626 -2.7626 -2.7626c -1.5257,-0.0000 -2.7626,1.2369 -2.7626 2.7626c -0.0000,1.5257 1.2369,2.7626 2.7626 2.7626c 1.5257,0.0000 2.7626,-1.2369 2.7626 -2.7626Z"/></g><defs></defs><g stroke-linejoin="miter" stroke-opacity="0.0" fill-opacity="0.1" stroke="rgb(0,0,0)" stroke-width="0.0" fill="rgb(85,85,85)" stroke-linecap="butt" stroke-miterlimit="10.0"><path d="M 141.0254,45.0318 c 0.0000,-1.5257 -1.2369,-2.7626 -2.7626 -2.7626c -1.5257,-0.0000 -2.7626,1.2369 -2.7626 2.7626c -0.0000,1.5257 1.2369,2.7626 2.7626 2.7626c 1.5257,0.0000 2.7626,-1.2369 2.7626 -2.7626Z"/></g><defs></defs><g stroke-linejoin="miter" stroke-opacity="0.0" fill-opacity="0.1" stroke="rgb(0,0,0)" stroke-width="0.0" fill="rgb(85,85,85)" stroke-linecap="butt" stroke-miterlimit="10.0"><path d="M 140.9519,50.3961 c 0.0000,-1.5257 -1.2369,-2.7626 -2.7626 -2.7626c -1.5257,-0.0000 -2.7626,1.2369 -2.7626 2.7626c -0.0000,1.5257 1.2369,2.7626 2.7626 2.7626c 1.5257,0.0000 2.7626,-1.2369 2.7626 -2.7626Z"/></g><defs></defs><g stroke-linejoin="miter" stroke-opacity="0.0" fill-opacity="0.1" stroke="rgb(0,0,0)" stroke-width="0.0" fill="rgb(85,85,85)" stroke-linecap="butt" stroke-miterlimit="10.0"><path d="M 121.0262,82.1798 c 0.0000,-1.5257 -1.2369,-2.7626 -2.7626 -2.7626c -1.5257,-0.0000 -2.7626,1.2369 -2.7626 2.7626c -0.0000,1.5257 1.2369,2.7626 2.7626 2.7626c 1.5257,0.0000 2.7626,-1.2369 2.7626 -2.7626Z"/></g><defs></defs><g stroke-linejoin="miter" stroke-opacity="0.0" fill-opacity="0.1" stroke="rgb(0,0,0)" stroke-width="0.0" fill="rgb(85,85,85)" stroke-linecap="butt" stroke-miterlimit="10.0"><path d="M 74.5572,137.8570 c 0.0000,-1.5257 -1.2369,-2.7626 -2.7626 -2.7626c -1.5257,-0.0000 -2.7626,1.2369 -2.7626 2.7626c -0.0000,1.5257 1.2369,2.7626 2.7626 2.7626c 1.5257,0.0000 2.7626,-1.2369 2.7626 -2.7626Z"/></g><defs></defs><g stroke-linejoin="miter" stroke-opacity="0.0" fill-opacity="0.1" stroke="rgb(0,0,0)" stroke-width="0.0" fill="rgb(85,85,85)" stroke-linecap="butt" stroke-miterlimit="10.0"><path d="M 74.9291,117.8804 c 0.0000,-1.5257 -1.2369,-2.7626 -2.7626 -2.7626c -1.5257,-0.0000 -2.7626,1.2369 -2.7626 2.7626c -0.0000,1.5257 1.2369,2.7626 2.7626 2.7626c 1.5257,0.0000 2.7626,-1.2369 2.7626 -2.7626Z"/></g><defs></defs><g stroke-linejoin="miter" stroke-opacity="0.0" fill-opacity="0.1" stroke="rgb(0,0,0)" stroke-width="0.0" fill="rgb(85,85,85)" stroke-linecap="butt" stroke-miterlimit="10.0"><path d="M 99.3870,101.7895 c 0.0000,-1.5257 -1.2369,-2.7626 -2.7626 -2.7626c -1.5257,-0.0000 -2.7626,1.2369 -2.7626 2.7626c -0.0000,1.5257 1.2369,2.7626 2.7626 2.7626c 1.5257,0.0000 2.7626,-1.2369 2.7626 -2.7626Z"/></g><defs></defs><g stroke-linejoin="miter" stroke-opacity="0.0" fill-opacity="0.1" stroke="rgb(0,0,0)" stroke-width="0.0" fill="rgb(85,85,85)" stroke-linecap="butt" stroke-miterlimit="10.0"><path d="M 121.7140,83.2544 c 0.0000,-1.5257 -1.2369,-2.7626 -2.7626 -2.7626c -1.5257,-0.0000 -2.7626,1.2369 -2.7626 2.7626c -0.0000,1.5257 1.2369,2.7626 2.7626 2.7626c 1.5257,0.0000 2.7626,-1.2369 2.7626 -2.7626Z"/></g><defs></defs><g stroke-linejoin="miter" stroke-opacity="0.0" fill-opacity="0.1" stroke="rgb(0,0,0)" stroke-width="0.0" fill="rgb(85,85,85)" stroke-linecap="butt" stroke-miterlimit="10.0"><path d="M 107.7794,91.8524 c 0.0000,-1.5257 -1.2369,-2.7626 -2.7626 -2.7626c -1.5257,-0.0000 -2.7626,1.2369 -2.7626 2.7626c -0.0000,1.5257 1.2369,2.7626 2.7626 2.7626c 1.5257,0.0000 2.7626,-1.2369 2.7626 -2.7626Z"/></g><defs></defs><g stroke-linejoin="miter" stroke-opacity="0.0" fill-opacity="0.1" stroke="rgb(0,0,0)" stroke-width="0.0" fill="rgb(85,85,85)" stroke-linecap="butt" stroke-miterlimit="10.0"><path d="M 73.5808,125.7506 c 0.0000,-1.5257 -1.2369,-2.7626 -2.7626 -2.7626c -1.5257,-0.0000 -2.7626,1.2369 -2.7626 2.7626c -0.0000,1.5257 1.2369,2.7626 2.7626 2.7626c 1.5257,0.0000 2.7626,-1.2369 2.7626 -2.7626Z"/></g><defs></defs><g stroke-linejoin="miter" stroke-opacity="0.0" fill-opacity="0.1" stroke="rgb(0,0,0)" stroke-width="0.0" fill="rgb(85,85,85)" stroke-linecap="butt" stroke-miterlimit="10.0"><path d="M 113.3621,101.1252 c 0.0000,-1.5257 -1.2369,-2.7626 -2.7626 -2.7626c -1.5257,-0.0000 -2.7626,1.2369 -2.7626 2.7626c -0.0000,1.5257 1.2369,2.7626 2.7626 2.7626c 1.5257,0.0000 2.7626,-1.2369 2.7626 -2.7626Z"/></g><defs></defs><g stroke-linejoin="miter" stroke-opacity="0.0" fill-opacity="0.1" stroke="rgb(0,0,0)" stroke-width="0.0" fill="rgb(85,85,85)" stroke-linecap="butt" stroke-miterlimit="10.0"><path d="M 120.7799,98.6039 c 0.0000,-1.5257 -1.2369,-2.7626 -2.7626 -2.7626c -1.5257,-0.0000 -2.7626,1.2369 -2.7626 2.7626c -0.0000,1.5257 1.2369,2.7626 2.7626 2.7626c 1.5257,0.0000 2.7626,-1.2369 2.7626 -2.7626Z"/></g><defs></defs><g stroke-linejoin="miter" stroke-opacity="0.0" fill-opacity="0.1" stroke="rgb(0,0,0)" stroke-width="0.0" fill="rgb(85,85,85)" stroke-linecap="butt" stroke-miterlimit="10.0"><path d="M 119.6778,92.5635 c 0.0000,-1.5257 -1.2369,-2.7626 -2.7626 -2.7626c -1.5257,-0.0000 -2.7626,1.2369 -2.7626 2.7626c -0.0000,1.5257 1.2369,2.7626 2.7626 2.7626c 1.5257,0.0000 2.7626,-1.2369 2.7626 -2.7626Z"/></g><defs></defs><g stroke-linejoin="miter" stroke-opacity="0.0" fill-opacity="0.1" stroke="rgb(0,0,0)" stroke-width="0.0" fill="rgb(85,85,85)" stroke-linecap="butt" stroke-miterlimit="10.0"><path d="M 83.0904,112.4748 c 0.0000,-1.5257 -1.2369,-2.7626 -2.7626 -2.7626c -1.5257,-0.0000 -2.7626,1.2369 -2.7626 2.7626c -0.0000,1.5257 1.2369,2.7626 2.7626 2.7626c 1.5257,0.0000 2.7626,-1.2369 2.7626 -2.7626Z"/></g><defs></defs><g stroke-linejoin="miter" stroke-opacity="0.0" fill-opacity="0.1" stroke="rgb(0,0,0)" stroke-width="0.0" fill="rgb(85,85,85)" stroke-linecap="butt" stroke-miterlimit="10.0"><path d="M 86.5213,127.1552 c 0.0000,-1.5257 -1.2369,-2.7626 -2.7626 -2.7626c -1.5257,-0.0000 -2.7626,1.2369 -2.7626 2.7626c -0.0000,1.5257 1.2369,2.7626 2.7626 2.7626c 1.5257,0.0000 2.7626,-1.2369 2.7626 -2.7626Z"/></g><defs></defs><g stroke-linejoin="miter" stroke-opacity="0.0" fill-opacity="0.1" stroke="rgb(0,0,0)" stroke-width="0.0" fill="rgb(85,85,85)" stroke-linecap="butt" stroke-miterlimit="10.0"><path d="M 106.5452,99.8198 c 0.0000,-1.5257 -1.2369,-2.7626 -2.7626 -2.7626c -1.5257,-0.0000 -2.7626,1.2369 -2.7626 2.7626c -0.0000,1.5257 1.2369,2.7626 2.7626 2.7626c 1.5257,0.0000 2.7626,-1.2369 2.7626 -2.7626Z"/></g><defs></defs><g stroke-linejoin="miter" stroke-opacity="0.0" fill-opacity="0.1" stroke="rgb(0,0,0)" stroke-width="0.0" fill="rgb(85,85,85)" stroke-linecap="butt" stroke-miterlimit="10.0"><path d="M 49.1760,139.6721 c 0.0000,-1.5257 -1.2369,-2.7626 -2.7626 -2.7626c -1.5257,-0.0000 -2.7626,1.2369 -2.7626 2.7626c -0.0000,1.5257 1.2369,2.7626 2.7626 2.7626c 1.5257,0.0000 2.7626,-1.2369 2.7626 -2.7626Z"/></g><defs></defs><g stroke-linejoin="miter" stroke-opacity="0.0" fill-opacity="0.1" stroke="rgb(0,0,0)" stroke-width="0.0" fill="rgb(85,85,85)" stroke-linecap="butt" stroke-miterlimit="10.0"><path d="M 86.9804,118.9589 c 0.0000,-1.5257 -1.2369,-2.7626 -2.7626 -2.7626c -1.5257,-0.0000 -2.7626,1.2369 -2.7626 2.7626c -0.0000,1.5257 1.2369,2.7626 2.7626 2.7626c 1.5257,0.0000 2.7626,-1.2369 2.7626 -2.7626Z"/></g><defs></defs><g stroke-linejoin="miter" stroke-opacity="0.0" fill-opacity="0.1" stroke="rgb(0,0,0)" stroke-width="0.0" fill="rgb(85,85,85)" stroke-linecap="butt" stroke-miterlimit="10.0"><path d="M 98.9626,94.0763 c 0.0000,-1.5257 -1.2369,-2.7626 -2.7626 -2.7626c -1.5257,-0.0000 -2.7626,1.2369 -2.7626 2.7626c -0.0000,1.5257 1.2369,2.7626 2.7626 2.7626c 1.5257,0.0000 2.7626,-1.2369 2.7626 -2.7626Z"/></g><defs></defs><g stroke-linejoin="miter" stroke-opacity="0.0" fill-opacity="0.1" stroke="rgb(0,0,0)" stroke-width="0.0" fill="rgb(85,85,85)" stroke-linecap="butt" stroke-miterlimit="10.0"><path d="M 135.3552,57.0043 c 0.0000,-1.5257 -1.2369,-2.7626 -2.7626 -2.7626c -1.5257,-0.0000 -2.7626,1.2369 -2.7626 2.7626c -0.0000,1.5257 1.2369,2.7626 2.7626 2.7626c 1.5257,0.0000 2.7626,-1.2369 2.7626 -2.7626Z"/></g><defs></defs><g stroke-linejoin="miter" stroke-opacity="0.0" fill-opacity="0.1" stroke="rgb(0,0,0)" stroke-width="0.0" fill="rgb(85,85,85)" stroke-linecap="butt" stroke-miterlimit="10.0"><path d="M 133.7462,79.3560 c 0.0000,-1.5257 -1.2369,-2.7626 -2.7626 -2.7626c -1.5257,-0.0000 -2.7626,1.2369 -2.7626 2.7626c -0.0000,1.5257 1.2369,2.7626 2.7626 2.7626c 1.5257,0.0000 2.7626,-1.2369 2.7626 -2.7626Z"/></g><defs></defs><g stroke-linejoin="miter" stroke-opacity="0.0" fill-opacity="0.1" stroke="rgb(0,0,0)" stroke-width="0.0" fill="rgb(85,85,85)" stroke-linecap="butt" stroke-miterlimit="10.0"><path d="M 174.6749,26.4456 c 0.0000,-1.5257 -1.2369,-2.7626 -2.7626 -2.7626c -1.5257,-0.0000 -2.7626,1.2369 -2.7626 2.7626c -0.0000,1.5257 1.2369,2.7626 2.7626 2.7626c 1.5257,0.0000 2.7626,-1.2369 2.7626 -2.7626Z"/></g><defs></defs><g stroke-linejoin="miter" stroke-opacity="0.0" fill-opacity="0.1" stroke="rgb(0,0,0)" stroke-width="0.0" fill="rgb(85,85,85)" stroke-linecap="butt" stroke-miterlimit="10.0"><path d="M 94.5404,91.3733 c 0.0000,-1.5257 -1.2369,-2.7626 -2.7626 -2.7626c -1.5257,-0.0000 -2.7626,1.2369 -2.7626 2.7626c -0.0000,1.5257 1.2369,2.7626 2.7626 2.7626c 1.5257,0.0000 2.7626,-1.2369 2.7626 -2.7626Z"/></g><defs></defs><g stroke-linejoin="miter" stroke-opacity="0.0" fill-opacity="0.1" stroke="rgb(0,0,0)" stroke-width="0.0" fill="rgb(85,85,85)" stroke-linecap="butt" stroke-miterlimit="10.0"><path d="M 116.5251,99.5046 c 0.0000,-1.5257 -1.2369,-2.7626 -2.7626 -2.7626c -1.5257,-0.0000 -2.7626,1.2369 -2.7626 2.7626c -0.0000,1.5257 1.2369,2.7626 2.7626 2.7626c 1.5257,0.0000 2.7626,-1.2369 2.7626 -2.7626Z"/></g><defs></defs><g stroke-linejoin="miter" stroke-opacity="0.0" fill-opacity="0.1" stroke="rgb(0,0,0)" stroke-width="0.0" fill="rgb(85,85,85)" stroke-linecap="butt" stroke-miterlimit="10.0"><path d="M 119.5109,82.2082 c 0.0000,-1.5257 -1.2369,-2.7626 -2.7626 -2.7626c -1.5257,-0.0000 -2.7626,1.2369 -2.7626 2.7626c -0.0000,1.5257 1.2369,2.7626 2.7626 2.7626c 1.5257,0.0000 2.7626,-1.2369 2.7626 -2.7626Z"/></g><defs></defs><g stroke-linejoin="miter" stroke-opacity="0.0" fill-opacity="0.1" stroke="rgb(0,0,0)" stroke-width="0.0" fill="rgb(85,85,85)" stroke-linecap="butt" stroke-miterlimit="10.0"><path d="M 76.4328,106.2710 c 0.0000,-1.5257 -1.2369,-2.7626 -2.7626 -2.7626c -1.5257,-0.0000 -2.7626,1.2369 -2.7626 2.7626c -0.0000,1.5257 1.2369,2.7626 2.7626 2.7626c 1.5257,0.0000 2.7626,-1.2369 2.7626 -2.7626Z"/></g><defs></defs><g stroke-linejoin="miter" stroke-opacity="0.0" fill-opacity="0.1" stroke="rgb(0,0,0)" stroke-width="0.0" fill="rgb(85,85,85)" stroke-linecap="butt" stroke-miterlimit="10.0"><path d="M 117.7163,87.7650 c 0.0000,-1.5257 -1.2369,-2.7626 -2.7626 -2.7626c -1.5257,-0.0000 -2.7626,1.2369 -2.7626 2.7626c -0.0000,1.5257 1.2369,2.7626 2.7626 2.7626c 1.5257,0.0000 2.7626,-1.2369 2.7626 -2.7626Z"/></g><defs></defs><g stroke-linejoin="miter" stroke-opacity="0.0" fill-opacity="0.1" stroke="rgb(0,0,0)" stroke-width="0.0" fill="rgb(85,85,85)" stroke-linecap="butt" stroke-miterlimit="10.0"><path d="M 101.2792,109.7333 c 0.0000,-1.5257 -1.2369,-2.7626 -2.7626 -2.7626c -1.5257,-0.0000 -2.7626,1.2369 -2.7626 2.7626c -0.0000,1.5257 1.2369,2.7626 2.7626 2.7626c 1.5257,0.0000 2.7626,-1.2369 2.7626 -2.7626Z"/></g><defs></defs><g stroke-linejoin="miter" stroke-opacity="0.0" fill-opacity="0.1" stroke="rgb(0,0,0)" stroke-width="0.0" fill="rgb(85,85,85)" stroke-linecap="butt" stroke-miterlimit="10.0"><path d="M 115.3519,78.3723 c 0.0000,-1.5257 -1.2369,-2.7626 -2.7626 -2.7626c -1.5257,-0.0000 -2.7626,1.2369 -2.7626 2.7626c -0.0000,1.5257 1.2369,2.7626 2.7626 2.7626c 1.5257,0.0000 2.7626,-1.2369 2.7626 -2.7626Z"/></g><defs></defs><g stroke-linejoin="miter" stroke-opacity="0.0" fill-opacity="0.1" stroke="rgb(0,0,0)" stroke-width="0.0" fill="rgb(85,85,85)" stroke-linecap="butt" stroke-miterlimit="10.0"><path d="M 145.9101,69.9158 c 0.0000,-1.5257 -1.2369,-2.7626 -2.7626 -2.7626c -1.5257,-0.0000 -2.7626,1.2369 -2.7626 2.7626c -0.0000,1.5257 1.2369,2.7626 2.7626 2.7626c 1.5257,0.0000 2.7626,-1.2369 2.7626 -2.7626Z"/></g><defs></defs><g stroke-linejoin="miter" stroke-opacity="0.0" fill-opacity="0.1" stroke="rgb(0,0,0)" stroke-width="0.0" fill="rgb(85,85,85)" stroke-linecap="butt" stroke-miterlimit="10.0"><path d="M 51.6923,137.1600 c 0.0000,-1.5257 -1.2369,-2.7626 -2.7626 -2.7626c -1.5257,-0.0000 -2.7626,1.2369 -2.7626 2.7626c -0.0000,1.5257 1.2369,2.7626 2.7626 2.7626c 1.5257,0.0000 2.7626,-1.2369 2.7626 -2.7626Z"/></g><defs></defs><g stroke-linejoin="miter" stroke-opacity="0.0" fill-opacity="0.1" stroke="rgb(0,0,0)" stroke-width="0.0" fill="rgb(85,85,85)" stroke-linecap="butt" stroke-miterlimit="10.0"><path d="M 121.6797,83.9922 c 0.0000,-1.5257 -1.2369,-2.7626 -2.7626 -2.7626c -1.5257,-0.0000 -2.7626,1.2369 -2.7626 2.7626c -0.0000,1.5257 1.2369,2.7626 2.7626 2.7626c 1.5257,0.0000 2.7626,-1.2369 2.7626 -2.7626Z"/></g><defs></defs><g stroke-linejoin="miter" stroke-opacity="0.0" fill-opacity="0.1" stroke="rgb(0,0,0)" stroke-width="0.0" fill="rgb(85,85,85)" stroke-linecap="butt" stroke-miterlimit="10.0"><path d="M 74.0096,133.5228 c 0.0000,-1.5257 -1.2369,-2.7626 -2.7626 -2.7626c -1.5257,-0.0000 -2.7626,1.2369 -2.7626 2.7626c -0.0000,1.5257 1.2369,2.7626 2.7626 2.7626c 1.5257,0.0000 2.7626,-1.2369 2.7626 -2.7626Z"/></g><defs></defs><g stroke-linejoin="miter" stroke-opacity="0.0" fill-opacity="0.1" stroke="rgb(0,0,0)" stroke-width="0.0" fill="rgb(85,85,85)" stroke-linecap="butt" stroke-miterlimit="10.0"><path d="M 99.2574,97.1806 c 0.0000,-1.5257 -1.2369,-2.7626 -2.7626 -2.7626c -1.5257,-0.0000 -2.7626,1.2369 -2.7626 2.7626c -0.0000,1.5257 1.2369,2.7626 2.7626 2.7626c 1.5257,0.0000 2.7626,-1.2369 2.7626 -2.7626Z"/></g><defs></defs><g stroke-linejoin="miter" stroke-opacity="0.0" fill-opacity="0.1" stroke="rgb(0,0,0)" stroke-width="0.0" fill="rgb(85,85,85)" stroke-linecap="butt" stroke-miterlimit="10.0"><path d="M 74.4878,102.8580 c 0.0000,-1.5257 -1.2369,-2.7626 -2.7626 -2.7626c -1.5257,-0.0000 -2.7626,1.2369 -2.7626 2.7626c -0.0000,1.5257 1.2369,2.7626 2.7626 2.7626c 1.5257,0.0000 2.7626,-1.2369 2.7626 -2.7626Z"/></g><defs></defs><g stroke-linejoin="miter" stroke-opacity="0.0" fill-opacity="0.1" stroke="rgb(0,0,0)" stroke-width="0.0" fill="rgb(85,85,85)" stroke-linecap="butt" stroke-miterlimit="10.0"><path d="M 67.1431,115.0139 c 0.0000,-1.5257 -1.2369,-2.7626 -2.7626 -2.7626c -1.5257,-0.0000 -2.7626,1.2369 -2.7626 2.7626c -0.0000,1.5257 1.2369,2.7626 2.7626 2.7626c 1.5257,0.0000 2.7626,-1.2369 2.7626 -2.7626Z"/></g><defs></defs><g stroke-linejoin="miter" stroke-opacity="0.0" fill-opacity="0.1" stroke="rgb(0,0,0)" stroke-width="0.0" fill="rgb(85,85,85)" stroke-linecap="butt" stroke-miterlimit="10.0"><path d="M 129.5522,75.3302 c 0.0000,-1.5257 -1.2369,-2.7626 -2.7626 -2.7626c -1.5257,-0.0000 -2.7626,1.2369 -2.7626 2.7626c -0.0000,1.5257 1.2369,2.7626 2.7626 2.7626c 1.5257,0.0000 2.7626,-1.2369 2.7626 -2.7626Z"/></g><defs></defs><g stroke-linejoin="miter" stroke-opacity="0.0" fill-opacity="0.1" stroke="rgb(0,0,0)" stroke-width="0.0" fill="rgb(85,85,85)" stroke-linecap="butt" stroke-miterlimit="10.0"><path d="M 99.7246,123.5052 c 0.0000,-1.5257 -1.2369,-2.7626 -2.7626 -2.7626c -1.5257,-0.0000 -2.7626,1.2369 -2.7626 2.7626c -0.0000,1.5257 1.2369,2.7626 2.7626 2.7626c 1.5257,0.0000 2.7626,-1.2369 2.7626 -2.7626Z"/></g><defs></defs><g stroke-linejoin="miter" stroke-opacity="0.0" fill-opacity="0.1" stroke="rgb(0,0,0)" stroke-width="0.0" fill="rgb(85,85,85)" stroke-linecap="butt" stroke-miterlimit="10.0"><path d="M 86.6374,92.3365 c 0.0000,-1.5257 -1.2369,-2.7626 -2.7626 -2.7626c -1.5257,-0.0000 -2.7626,1.2369 -2.7626 2.7626c -0.0000,1.5257 1.2369,2.7626 2.7626 2.7626c 1.5257,0.0000 2.7626,-1.2369 2.7626 -2.7626Z"/></g><defs></defs><g stroke-linejoin="miter" stroke-opacity="0.0" fill-opacity="0.1" stroke="rgb(0,0,0)" stroke-width="0.0" fill="rgb(85,85,85)" stroke-linecap="butt" stroke-miterlimit="10.0"><path d="M 131.9846,52.7781 c 0.0000,-1.5257 -1.2369,-2.7626 -2.7626 -2.7626c -1.5257,-0.0000 -2.7626,1.2369 -2.7626 2.7626c -0.0000,1.5257 1.2369,2.7626 2.7626 2.7626c 1.5257,0.0000 2.7626,-1.2369 2.7626 -2.7626Z"/></g><defs></defs><g stroke-linejoin="miter" stroke-opacity="0.0" fill-opacity="0.1" stroke="rgb(0,0,0)" stroke-width="0.0" fill="rgb(85,85,85)" stroke-linecap="butt" stroke-miterlimit="10.0"><path d="M 124.5480,69.5116 c 0.0000,-1.5257 -1.2369,-2.7626 -2.7626 -2.7626c -1.5257,-0.0000 -2.7626,1.2369 -2.7626 2.7626c -0.0000,1.5257 1.2369,2.7626 2.7626 2.7626c 1.5257,0.0000 2.7626,-1.2369 2.7626 -2.7626Z"/></g><defs></defs><g stroke-linejoin="miter" stroke-opacity="0.0" fill-opacity="0.1" stroke="rgb(0,0,0)" stroke-width="0.0" fill="rgb(85,85,85)" stroke-linecap="butt" stroke-miterlimit="10.0"><path d="M 106.4875,124.1499 c 0.0000,-1.5257 -1.2369,-2.7626 -2.7626 -2.7626c -1.5257,-0.0000 -2.7626,1.2369 -2.7626 2.7626c -0.0000,1.5257 1.2369,2.7626 2.7626 2.7626c 1.5257,0.0000 2.7626,-1.2369 2.7626 -2.7626Z"/></g><defs></defs><g stroke-linejoin="miter" stroke-opacity="0.0" fill-opacity="0.1" stroke="rgb(0,0,0)" stroke-width="0.0" fill="rgb(85,85,85)" stroke-linecap="butt" stroke-miterlimit="10.0"><path d="M 117.2887,87.6215 c 0.0000,-1.5257 -1.2369,-2.7626 -2.7626 -2.7626c -1.5257,-0.0000 -2.7626,1.2369 -2.7626 2.7626c -0.0000,1.5257 1.2369,2.7626 2.7626 2.7626c 1.5257,0.0000 2.7626,-1.2369 2.7626 -2.7626Z"/></g><defs></defs><g stroke-linejoin="miter" stroke-opacity="0.0" fill-opacity="0.1" stroke="rgb(0,0,0)" stroke-width="0.0" fill="rgb(85,85,85)" stroke-linecap="butt" stroke-miterlimit="10.0"><path d="M 49.9797,156.7908 c 0.0000,-1.5257 -1.2369,-2.7626 -2.7626 -2.7626c -1.5257,-0.0000 -2.7626,1.2369 -2.7626 2.7626c -0.0000,1.5257 1.2369,2.7626 2.7626 2.7626c 1.5257,0.0000 2.7626,-1.2369 2.7626 -2.7626Z"/></g><defs></defs><g stroke-linejoin="miter" stroke-opacity="0.0" fill-opacity="0.1" stroke="rgb(0,0,0)" stroke-width="0.0" fill="rgb(85,85,85)" stroke-linecap="butt" stroke-miterlimit="10.0"><path d="M 114.7637,63.6144 c 0.0000,-1.5257 -1.2369,-2.7626 -2.7626 -2.7626c -1.5257,-0.0000 -2.7626,1.2369 -2.7626 2.7626c -0.0000,1.5257 1.2369,2.7626 2.7626 2.7626c 1.5257,0.0000 2.7626,-1.2369 2.7626 -2.7626Z"/></g><defs></defs><g stroke-linejoin="miter" stroke-opacity="0.0" fill-opacity="0.1" stroke="rgb(0,0,0)" stroke-width="0.0" fill="rgb(85,85,85)" stroke-linecap="butt" stroke-miterlimit="10.0"><path d="M 88.6296,110.9603 c 0.0000,-1.5257 -1.2369,-2.7626 -2.7626 -2.7626c -1.5257,-0.0000 -2.7626,1.2369 -2.7626 2.7626c -0.0000,1.5257 1.2369,2.7626 2.7626 2.7626c 1.5257,0.0000 2.7626,-1.2369 2.7626 -2.7626Z"/></g><defs></defs><g stroke-linejoin="miter" stroke-opacity="0.0" fill-opacity="0.1" stroke="rgb(0,0,0)" stroke-width="0.0" fill="rgb(85,85,85)" stroke-linecap="butt" stroke-miterlimit="10.0"><path d="M 98.3607,76.0896 c 0.0000,-1.5257 -1.2369,-2.7626 -2.7626 -2.7626c -1.5257,-0.0000 -2.7626,1.2369 -2.7626 2.7626c -0.0000,1.5257 1.2369,2.7626 2.7626 2.7626c 1.5257,0.0000 2.7626,-1.2369 2.7626 -2.7626Z"/></g><defs></defs><g stroke-linejoin="miter" stroke-opacity="0.0" fill-opacity="0.1" stroke="rgb(0,0,0)" stroke-width="0.0" fill="rgb(85,85,85)" stroke-linecap="butt" stroke-miterlimit="10.0"><path d="M 134.7483,88.0179 c 0.0000,-1.5257 -1.2369,-2.7626 -2.7626 -2.7626c -1.5257,-0.0000 -2.7626,1.2369 -2.7626 2.7626c -0.0000,1.5257 1.2369,2.7626 2.7626 2.7626c 1.5257,0.0000 2.7626,-1.2369 2.7626 -2.7626Z"/></g><defs></defs><g stroke-linejoin="miter" stroke-opacity="0.0" fill-opacity="0.1" stroke="rgb(0,0,0)" stroke-width="0.0" fill="rgb(85,85,85)" stroke-linecap="butt" stroke-miterlimit="10.0"><path d="M 108.0197,95.6086 c 0.0000,-1.5257 -1.2369,-2.7626 -2.7626 -2.7626c -1.5257,-0.0000 -2.7626,1.2369 -2.7626 2.7626c -0.0000,1.5257 1.2369,2.7626 2.7626 2.7626c 1.5257,0.0000 2.7626,-1.2369 2.7626 -2.7626Z"/></g><defs></defs><g stroke-linejoin="miter" stroke-opacity="0.0" fill-opacity="0.1" stroke="rgb(0,0,0)" stroke-width="0.0" fill="rgb(85,85,85)" stroke-linecap="butt" stroke-miterlimit="10.0"><path d="M 102.1534,96.4943 c 0.0000,-1.5257 -1.2369,-2.7626 -2.7626 -2.7626c -1.5257,-0.0000 -2.7626,1.2369 -2.7626 2.7626c -0.0000,1.5257 1.2369,2.7626 2.7626 2.7626c 1.5257,0.0000 2.7626,-1.2369 2.7626 -2.7626Z"/></g><defs></defs><g stroke-linejoin="miter" stroke-opacity="0.0" fill-opacity="0.1" stroke="rgb(0,0,0)" stroke-width="0.0" fill="rgb(85,85,85)" stroke-linecap="butt" stroke-miterlimit="10.0"><path d="M 135.0161,68.8314 c 0.0000,-1.5257 -1.2369,-2.7626 -2.7626 -2.7626c -1.5257,-0.0000 -2.7626,1.2369 -2.7626 2.7626c -0.0000,1.5257 1.2369,2.7626 2.7626 2.7626c 1.5257,0.0000 2.7626,-1.2369 2.7626 -2.7626Z"/></g><defs></defs><g stroke-linejoin="miter" stroke-opacity="0.0" fill-opacity="0.1" stroke="rgb(0,0,0)" stroke-width="0.0" fill="rgb(85,85,85)" stroke-linecap="butt" stroke-miterlimit="10.0"><path d="M 123.5793,66.6713 c 0.0000,-1.5257 -1.2369,-2.7626 -2.7626 -2.7626c -1.5257,-0.0000 -2.7626,1.2369 -2.7626 2.7626c -0.0000,1.5257 1.2369,2.7626 2.7626 2.7626c 1.5257,0.0000 2.7626,-1.2369 2.7626 -2.7626Z"/></g><defs></defs><g stroke-linejoin="miter" stroke-opacity="0.0" fill-opacity="0.1" stroke="rgb(0,0,0)" stroke-width="0.0" fill="rgb(85,85,85)" stroke-linecap="butt" stroke-miterlimit="10.0"><path d="M 98.1859,87.4417 c 0.0000,-1.5257 -1.2369,-2.7626 -2.7626 -2.7626c -1.5257,-0.0000 -2.7626,1.2369 -2.7626 2.7626c -0.0000,1.5257 1.2369,2.7626 2.7626 2.7626c 1.5257,0.0000 2.7626,-1.2369 2.7626 -2.7626Z"/></g><defs></defs><g stroke-linejoin="miter" stroke-opacity="0.0" fill-opacity="0.1" stroke="rgb(0,0,0)" stroke-width="0.0" fill="rgb(85,85,85)" stroke-linecap="butt" stroke-miterlimit="10.0"><path d="M 84.1810,97.5998 c 0.0000,-1.5257 -1.2369,-2.7626 -2.7626 -2.7626c -1.5257,-0.0000 -2.7626,1.2369 -2.7626 2.7626c -0.0000,1.5257 1.2369,2.7626 2.7626 2.7626c 1.5257,0.0000 2.7626,-1.2369 2.7626 -2.7626Z"/></g><defs></defs><g stroke-linejoin="miter" stroke-opacity="0.0" fill-opacity="0.1" stroke="rgb(0,0,0)" stroke-width="0.0" fill="rgb(85,85,85)" stroke-linecap="butt" stroke-miterlimit="10.0"><path d="M 129.4391,70.8709 c 0.0000,-1.5257 -1.2369,-2.7626 -2.7626 -2.7626c -1.5257,-0.0000 -2.7626,1.2369 -2.7626 2.7626c -0.0000,1.5257 1.2369,2.7626 2.7626 2.7626c 1.5257,0.0000 2.7626,-1.2369 2.7626 -2.7626Z"/></g><defs></defs><g stroke-linejoin="miter" stroke-opacity="0.0" fill-opacity="0.1" stroke="rgb(0,0,0)" stroke-width="0.0" fill="rgb(85,85,85)" stroke-linecap="butt" stroke-miterlimit="10.0"><path d="M 96.2980,86.1295 c 0.0000,-1.5257 -1.2369,-2.7626 -2.7626 -2.7626c -1.5257,-0.0000 -2.7626,1.2369 -2.7626 2.7626c -0.0000,1.5257 1.2369,2.7626 2.7626 2.7626c 1.5257,0.0000 2.7626,-1.2369 2.7626 -2.7626Z"/></g><defs></defs><g stroke-linejoin="miter" stroke-opacity="0.0" fill-opacity="0.1" stroke="rgb(0,0,0)" stroke-width="0.0" fill="rgb(85,85,85)" stroke-linecap="butt" stroke-miterlimit="10.0"><path d="M 113.1559,63.4478 c 0.0000,-1.5257 -1.2369,-2.7626 -2.7626 -2.7626c -1.5257,-0.0000 -2.7626,1.2369 -2.7626 2.7626c -0.0000,1.5257 1.2369,2.7626 2.7626 2.7626c 1.5257,0.0000 2.7626,-1.2369 2.7626 -2.7626Z"/></g><defs></defs><g stroke-linejoin="miter" stroke-opacity="0.0" fill-opacity="0.1" stroke="rgb(0,0,0)" stroke-width="0.0" fill="rgb(85,85,85)" stroke-linecap="butt" stroke-miterlimit="10.0"><path d="M 82.1065,98.9961 c 0.0000,-1.5257 -1.2369,-2.7626 -2.7626 -2.7626c -1.5257,-0.0000 -2.7626,1.2369 -2.7626 2.7626c -0.0000,1.5257 1.2369,2.7626 2.7626 2.7626c 1.5257,0.0000 2.7626,-1.2369 2.7626 -2.7626Z"/></g><defs></defs><g stroke-linejoin="miter" stroke-opacity="0.0" fill-opacity="0.1" stroke="rgb(0,0,0)" stroke-width="0.0" fill="rgb(85,85,85)" stroke-linecap="butt" stroke-miterlimit="10.0"><path d="M 90.7536,99.7364 c 0.0000,-1.5257 -1.2369,-2.7626 -2.7626 -2.7626c -1.5257,-0.0000 -2.7626,1.2369 -2.7626 2.7626c -0.0000,1.5257 1.2369,2.7626 2.7626 2.7626c 1.5257,0.0000 2.7626,-1.2369 2.7626 -2.7626Z"/></g><defs></defs><g stroke-linejoin="miter" stroke-opacity="0.0" fill-opacity="0.1" stroke="rgb(0,0,0)" stroke-width="0.0" fill="rgb(85,85,85)" stroke-linecap="butt" stroke-miterlimit="10.0"><path d="M 122.2066,72.6025 c 0.0000,-1.5257 -1.2369,-2.7626 -2.7626 -2.7626c -1.5257,-0.0000 -2.7626,1.2369 -2.7626 2.7626c -0.0000,1.5257 1.2369,2.7626 2.7626 2.7626c 1.5257,0.0000 2.7626,-1.2369 2.7626 -2.7626Z"/></g><defs></defs><g stroke-linejoin="miter" stroke-opacity="0.0" fill-opacity="0.1" stroke="rgb(0,0,0)" stroke-width="0.0" fill="rgb(85,85,85)" stroke-linecap="butt" stroke-miterlimit="10.0"><path d="M 125.5753,87.7741 c 0.0000,-1.5257 -1.2369,-2.7626 -2.7626 -2.7626c -1.5257,-0.0000 -2.7626,1.2369 -2.7626 2.7626c -0.0000,1.5257 1.2369,2.7626 2.7626 2.7626c 1.5257,0.0000 2.7626,-1.2369 2.7626 -2.7626Z"/></g><defs></defs><g stroke-linejoin="miter" stroke-opacity="0.0" fill-opacity="0.1" stroke="rgb(0,0,0)" stroke-width="0.0" fill="rgb(85,85,85)" stroke-linecap="butt" stroke-miterlimit="10.0"><path d="M 102.3391,102.8119 c 0.0000,-1.5257 -1.2369,-2.7626 -2.7626 -2.7626c -1.5257,-0.0000 -2.7626,1.2369 -2.7626 2.7626c -0.0000,1.5257 1.2369,2.7626 2.7626 2.7626c 1.5257,0.0000 2.7626,-1.2369 2.7626 -2.7626Z"/></g><defs></defs><g stroke-linejoin="miter" stroke-opacity="0.0" fill-opacity="0.1" stroke="rgb(0,0,0)" stroke-width="0.0" fill="rgb(85,85,85)" stroke-linecap="butt" stroke-miterlimit="10.0"><path d="M 79.2790,108.4864 c 0.0000,-1.5257 -1.2369,-2.7626 -2.7626 -2.7626c -1.5257,-0.0000 -2.7626,1.2369 -2.7626 2.7626c -0.0000,1.5257 1.2369,2.7626 2.7626 2.7626c 1.5257,0.0000 2.7626,-1.2369 2.7626 -2.7626Z"/></g><defs></defs><g stroke-linejoin="miter" stroke-opacity="0.0" fill-opacity="0.1" stroke="rgb(0,0,0)" stroke-width="0.0" fill="rgb(85,85,85)" stroke-linecap="butt" stroke-miterlimit="10.0"><path d="M 156.6887,80.4487 c 0.0000,-1.5257 -1.2369,-2.7626 -2.7626 -2.7626c -1.5257,-0.0000 -2.7626,1.2369 -2.7626 2.7626c -0.0000,1.5257 1.2369,2.7626 2.7626 2.7626c 1.5257,0.0000 2.7626,-1.2369 2.7626 -2.7626Z"/></g><defs></defs><g stroke-linejoin="miter" stroke-opacity="0.0" fill-opacity="0.1" stroke="rgb(0,0,0)" stroke-width="0.0" fill="rgb(85,85,85)" stroke-linecap="butt" stroke-miterlimit="10.0"><path d="M 85.6725,91.5087 c 0.0000,-1.5257 -1.2369,-2.7626 -2.7626 -2.7626c -1.5257,-0.0000 -2.7626,1.2369 -2.7626 2.7626c -0.0000,1.5257 1.2369,2.7626 2.7626 2.7626c 1.5257,0.0000 2.7626,-1.2369 2.7626 -2.7626Z"/></g><defs></defs><g stroke-linejoin="miter" stroke-opacity="0.0" fill-opacity="0.1" stroke="rgb(0,0,0)" stroke-width="0.0" fill="rgb(85,85,85)" stroke-linecap="butt" stroke-miterlimit="10.0"><path d="M 117.5803,90.6819 c 0.0000,-1.5257 -1.2369,-2.7626 -2.7626 -2.7626c -1.5257,-0.0000 -2.7626,1.2369 -2.7626 2.7626c -0.0000,1.5257 1.2369,2.7626 2.7626 2.7626c 1.5257,0.0000 2.7626,-1.2369 2.7626 -2.7626Z"/></g><defs></defs><g stroke-linejoin="miter" stroke-opacity="0.0" fill-opacity="0.1" stroke="rgb(0,0,0)" stroke-width="0.0" fill="rgb(85,85,85)" stroke-linecap="butt" stroke-miterlimit="10.0"><path d="M 97.5171,132.6218 c 0.0000,-1.5257 -1.2369,-2.7626 -2.7626 -2.7626c -1.5257,-0.0000 -2.7626,1.2369 -2.7626 2.7626c -0.0000,1.5257 1.2369,2.7626 2.7626 2.7626c 1.5257,0.0000 2.7626,-1.2369 2.7626 -2.7626Z"/></g><defs></defs><g stroke-linejoin="miter" stroke-opacity="0.0" fill-opacity="0.1" stroke="rgb(0,0,0)" stroke-width="0.0" fill="rgb(85,85,85)" stroke-linecap="butt" stroke-miterlimit="10.0"><path d="M 86.4982,103.3943 c 0.0000,-1.5257 -1.2369,-2.7626 -2.7626 -2.7626c -1.5257,-0.0000 -2.7626,1.2369 -2.7626 2.7626c -0.0000,1.5257 1.2369,2.7626 2.7626 2.7626c 1.5257,0.0000 2.7626,-1.2369 2.7626 -2.7626Z"/></g><defs></defs><g stroke-linejoin="miter" stroke-opacity="0.0" fill-opacity="0.1" stroke="rgb(0,0,0)" stroke-width="0.0" fill="rgb(85,85,85)" stroke-linecap="butt" stroke-miterlimit="10.0"><path d="M 96.2235,106.0938 c 0.0000,-1.5257 -1.2369,-2.7626 -2.7626 -2.7626c -1.5257,-0.0000 -2.7626,1.2369 -2.7626 2.7626c -0.0000,1.5257 1.2369,2.7626 2.7626 2.7626c 1.5257,0.0000 2.7626,-1.2369 2.7626 -2.7626Z"/></g><defs></defs><g stroke-linejoin="miter" stroke-opacity="0.0" fill-opacity="0.1" stroke="rgb(0,0,0)" stroke-width="0.0" fill="rgb(85,85,85)" stroke-linecap="butt" stroke-miterlimit="10.0"><path d="M 158.6627,53.3856 c 0.0000,-1.5257 -1.2369,-2.7626 -2.7626 -2.7626c -1.5257,-0.0000 -2.7626,1.2369 -2.7626 2.7626c -0.0000,1.5257 1.2369,2.7626 2.7626 2.7626c 1.5257,0.0000 2.7626,-1.2369 2.7626 -2.7626Z"/></g><defs></defs><g stroke-linejoin="miter" stroke-opacity="0.0" fill-opacity="0.1" stroke="rgb(0,0,0)" stroke-width="0.0" fill="rgb(85,85,85)" stroke-linecap="butt" stroke-miterlimit="10.0"><path d="M 118.2330,82.9552 c 0.0000,-1.5257 -1.2369,-2.7626 -2.7626 -2.7626c -1.5257,-0.0000 -2.7626,1.2369 -2.7626 2.7626c -0.0000,1.5257 1.2369,2.7626 2.7626 2.7626c 1.5257,0.0000 2.7626,-1.2369 2.7626 -2.7626Z"/></g><defs></defs><g stroke-linejoin="miter" stroke-opacity="0.0" fill-opacity="0.1" stroke="rgb(0,0,0)" stroke-width="0.0" fill="rgb(85,85,85)" stroke-linecap="butt" stroke-miterlimit="10.0"><path d="M 105.1747,101.1469 c 0.0000,-1.5257 -1.2369,-2.7626 -2.7626 -2.7626c -1.5257,-0.0000 -2.7626,1.2369 -2.7626 2.7626c -0.0000,1.5257 1.2369,2.7626 2.7626 2.7626c 1.5257,0.0000 2.7626,-1.2369 2.7626 -2.7626Z"/></g><defs></defs><g stroke-linejoin="miter" stroke-opacity="0.0" fill-opacity="0.1" stroke="rgb(0,0,0)" stroke-width="0.0" fill="rgb(85,85,85)" stroke-linecap="butt" stroke-miterlimit="10.0"><path d="M 75.8830,128.2301 c 0.0000,-1.5257 -1.2369,-2.7626 -2.7626 -2.7626c -1.5257,-0.0000 -2.7626,1.2369 -2.7626 2.7626c -0.0000,1.5257 1.2369,2.7626 2.7626 2.7626c 1.5257,0.0000 2.7626,-1.2369 2.7626 -2.7626Z"/></g><defs></defs><g stroke-linejoin="miter" stroke-opacity="0.0" fill-opacity="0.1" stroke="rgb(0,0,0)" stroke-width="0.0" fill="rgb(85,85,85)" stroke-linecap="butt" stroke-miterlimit="10.0"><path d="M 112.2406,65.6214 c 0.0000,-1.5257 -1.2369,-2.7626 -2.7626 -2.7626c -1.5257,-0.0000 -2.7626,1.2369 -2.7626 2.7626c -0.0000,1.5257 1.2369,2.7626 2.7626 2.7626c 1.5257,0.0000 2.7626,-1.2369 2.7626 -2.7626Z"/></g><defs></defs><g stroke-linejoin="miter" stroke-opacity="0.0" fill-opacity="0.1" stroke="rgb(0,0,0)" stroke-width="0.0" fill="rgb(85,85,85)" stroke-linecap="butt" stroke-miterlimit="10.0"><path d="M 129.6849,105.6418 c 0.0000,-1.5257 -1.2369,-2.7626 -2.7626 -2.7626c -1.5257,-0.0000 -2.7626,1.2369 -2.7626 2.7626c -0.0000,1.5257 1.2369,2.7626 2.7626 2.7626c 1.5257,0.0000 2.7626,-1.2369 2.7626 -2.7626Z"/></g><defs></defs><g stroke-linejoin="miter" stroke-opacity="0.0" fill-opacity="0.1" stroke="rgb(0,0,0)" stroke-width="0.0" fill="rgb(85,85,85)" stroke-linecap="butt" stroke-miterlimit="10.0"><path d="M 114.3076,65.8752 c 0.0000,-1.5257 -1.2369,-2.7626 -2.7626 -2.7626c -1.5257,-0.0000 -2.7626,1.2369 -2.7626 2.7626c -0.0000,1.5257 1.2369,2.7626 2.7626 2.7626c 1.5257,0.0000 2.7626,-1.2369 2.7626 -2.7626Z"/></g><defs></defs><g stroke-linejoin="miter" stroke-opacity="0.0" fill-opacity="0.1" stroke="rgb(0,0,0)" stroke-width="0.0" fill="rgb(85,85,85)" stroke-linecap="butt" stroke-miterlimit="10.0"><path d="M 106.4394,79.4983 c 0.0000,-1.5257 -1.2369,-2.7626 -2.7626 -2.7626c -1.5257,-0.0000 -2.7626,1.2369 -2.7626 2.7626c -0.0000,1.5257 1.2369,2.7626 2.7626 2.7626c 1.5257,0.0000 2.7626,-1.2369 2.7626 -2.7626Z"/></g><defs></defs><g stroke-linejoin="miter" stroke-opacity="0.0" fill-opacity="0.1" stroke="rgb(0,0,0)" stroke-width="0.0" fill="rgb(85,85,85)" stroke-linecap="butt" stroke-miterlimit="10.0"><path d="M 102.3386,86.2396 c 0.0000,-1.5257 -1.2369,-2.7626 -2.7626 -2.7626c -1.5257,-0.0000 -2.7626,1.2369 -2.7626 2.7626c -0.0000,1.5257 1.2369,2.7626 2.7626 2.7626c 1.5257,0.0000 2.7626,-1.2369 2.7626 -2.7626Z"/></g><defs></defs><g stroke-linejoin="miter" stroke-opacity="0.0" fill-opacity="0.1" stroke="rgb(0,0,0)" stroke-width="0.0" fill="rgb(85,85,85)" stroke-linecap="butt" stroke-miterlimit="10.0"><path d="M 98.2908,89.4405 c 0.0000,-1.5257 -1.2369,-2.7626 -2.7626 -2.7626c -1.5257,-0.0000 -2.7626,1.2369 -2.7626 2.7626c -0.0000,1.5257 1.2369,2.7626 2.7626 2.7626c 1.5257,0.0000 2.7626,-1.2369 2.7626 -2.7626Z"/></g><defs></defs><g stroke-linejoin="miter" stroke-opacity="0.0" fill-opacity="0.1" stroke="rgb(0,0,0)" stroke-width="0.0" fill="rgb(85,85,85)" stroke-linecap="butt" stroke-miterlimit="10.0"><path d="M 102.2180,78.0821 c 0.0000,-1.5257 -1.2369,-2.7626 -2.7626 -2.7626c -1.5257,-0.0000 -2.7626,1.2369 -2.7626 2.7626c -0.0000,1.5257 1.2369,2.7626 2.7626 2.7626c 1.5257,0.0000 2.7626,-1.2369 2.7626 -2.7626Z"/></g><defs></defs><g stroke-linejoin="miter" stroke-opacity="0.0" fill-opacity="0.1" stroke="rgb(0,0,0)" stroke-width="0.0" fill="rgb(85,85,85)" stroke-linecap="butt" stroke-miterlimit="10.0"><path d="M 109.7550,90.9225 c 0.0000,-1.5257 -1.2369,-2.7626 -2.7626 -2.7626c -1.5257,-0.0000 -2.7626,1.2369 -2.7626 2.7626c -0.0000,1.5257 1.2369,2.7626 2.7626 2.7626c 1.5257,0.0000 2.7626,-1.2369 2.7626 -2.7626Z"/></g><defs></defs><g stroke-linejoin="miter" stroke-opacity="0.0" fill-opacity="0.1" stroke="rgb(0,0,0)" stroke-width="0.0" fill="rgb(85,85,85)" stroke-linecap="butt" stroke-miterlimit="10.0"><path d="M 101.9175,74.4113 c 0.0000,-1.5257 -1.2369,-2.7626 -2.7626 -2.7626c -1.5257,-0.0000 -2.7626,1.2369 -2.7626 2.7626c -0.0000,1.5257 1.2369,2.7626 2.7626 2.7626c 1.5257,0.0000 2.7626,-1.2369 2.7626 -2.7626Z"/></g><defs></defs><g stroke-linejoin="miter" stroke-opacity="0.0" fill-opacity="0.1" stroke="rgb(0,0,0)" stroke-width="0.0" fill="rgb(85,85,85)" stroke-linecap="butt" stroke-miterlimit="10.0"><path d="M 98.4282,103.2428 c 0.0000,-1.5257 -1.2369,-2.7626 -2.7626 -2.7626c -1.5257,-0.0000 -2.7626,1.2369 -2.7626 2.7626c -0.0000,1.5257 1.2369,2.7626 2.7626 2.7626c 1.5257,0.0000 2.7626,-1.2369 2.7626 -2.7626Z"/></g><defs></defs><g stroke-linejoin="miter" stroke-opacity="0.0" fill-opacity="0.1" stroke="rgb(0,0,0)" stroke-width="0.0" fill="rgb(85,85,85)" stroke-linecap="butt" stroke-miterlimit="10.0"><path d="M 123.6426,76.8631 c 0.0000,-1.5257 -1.2369,-2.7626 -2.7626 -2.7626c -1.5257,-0.0000 -2.7626,1.2369 -2.7626 2.7626c -0.0000,1.5257 1.2369,2.7626 2.7626 2.7626c 1.5257,0.0000 2.7626,-1.2369 2.7626 -2.7626Z"/></g><defs></defs><g stroke-linejoin="miter" stroke-opacity="0.0" fill-opacity="0.1" stroke="rgb(0,0,0)" stroke-width="0.0" fill="rgb(85,85,85)" stroke-linecap="butt" stroke-miterlimit="10.0"><path d="M 117.0307,60.5593 c 0.0000,-1.5257 -1.2369,-2.7626 -2.7626 -2.7626c -1.5257,-0.0000 -2.7626,1.2369 -2.7626 2.7626c -0.0000,1.5257 1.2369,2.7626 2.7626 2.7626c 1.5257,0.0000 2.7626,-1.2369 2.7626 -2.7626Z"/></g><defs></defs><g stroke-linejoin="miter" stroke-opacity="0.0" fill-opacity="0.1" stroke="rgb(0,0,0)" stroke-width="0.0" fill="rgb(85,85,85)" stroke-linecap="butt" stroke-miterlimit="10.0"><path d="M 95.4730,103.1698 c 0.0000,-1.5257 -1.2369,-2.7626 -2.7626 -2.7626c -1.5257,-0.0000 -2.7626,1.2369 -2.7626 2.7626c -0.0000,1.5257 1.2369,2.7626 2.7626 2.7626c 1.5257,0.0000 2.7626,-1.2369 2.7626 -2.7626Z"/></g><defs></defs><g stroke-linejoin="miter" stroke-opacity="0.0" fill-opacity="0.1" stroke="rgb(0,0,0)" stroke-width="0.0" fill="rgb(85,85,85)" stroke-linecap="butt" stroke-miterlimit="10.0"><path d="M 84.3377,117.7384 c 0.0000,-1.5257 -1.2369,-2.7626 -2.7626 -2.7626c -1.5257,-0.0000 -2.7626,1.2369 -2.7626 2.7626c -0.0000,1.5257 1.2369,2.7626 2.7626 2.7626c 1.5257,0.0000 2.7626,-1.2369 2.7626 -2.7626Z"/></g><defs></defs><g stroke-linejoin="miter" stroke-opacity="0.0" fill-opacity="0.1" stroke="rgb(0,0,0)" stroke-width="0.0" fill="rgb(85,85,85)" stroke-linecap="butt" stroke-miterlimit="10.0"><path d="M 79.2784,114.9347 c 0.0000,-1.5257 -1.2369,-2.7626 -2.7626 -2.7626c -1.5257,-0.0000 -2.7626,1.2369 -2.7626 2.7626c -0.0000,1.5257 1.2369,2.7626 2.7626 2.7626c 1.5257,0.0000 2.7626,-1.2369 2.7626 -2.7626Z"/></g><defs></defs><g stroke-linejoin="miter" stroke-opacity="0.0" fill-opacity="0.1" stroke="rgb(0,0,0)" stroke-width="0.0" fill="rgb(85,85,85)" stroke-linecap="butt" stroke-miterlimit="10.0"><path d="M 90.3802,90.8256 c 0.0000,-1.5257 -1.2369,-2.7626 -2.7626 -2.7626c -1.5257,-0.0000 -2.7626,1.2369 -2.7626 2.7626c -0.0000,1.5257 1.2369,2.7626 2.7626 2.7626c 1.5257,0.0000 2.7626,-1.2369 2.7626 -2.7626Z"/></g><defs></defs><g stroke-linejoin="miter" stroke-opacity="0.0" fill-opacity="0.1" stroke="rgb(0,0,0)" stroke-width="0.0" fill="rgb(85,85,85)" stroke-linecap="butt" stroke-miterlimit="10.0"><path d="M 93.0335,122.8538 c 0.0000,-1.5257 -1.2369,-2.7626 -2.7626 -2.7626c -1.5257,-0.0000 -2.7626,1.2369 -2.7626 2.7626c -0.0000,1.5257 1.2369,2.7626 2.7626 2.7626c 1.5257,0.0000 2.7626,-1.2369 2.7626 -2.7626Z"/></g><defs></defs><g stroke-linejoin="miter" stroke-opacity="0.0" fill-opacity="0.1" stroke="rgb(0,0,0)" stroke-width="0.0" fill="rgb(85,85,85)" stroke-linecap="butt" stroke-miterlimit="10.0"><path d="M 92.0513,91.0688 c 0.0000,-1.5257 -1.2369,-2.7626 -2.7626 -2.7626c -1.5257,-0.0000 -2.7626,1.2369 -2.7626 2.7626c -0.0000,1.5257 1.2369,2.7626 2.7626 2.7626c 1.5257,0.0000 2.7626,-1.2369 2.7626 -2.7626Z"/></g><defs></defs><g stroke-linejoin="miter" stroke-opacity="0.0" fill-opacity="0.1" stroke="rgb(0,0,0)" stroke-width="0.0" fill="rgb(85,85,85)" stroke-linecap="butt" stroke-miterlimit="10.0"><path d="M 84.8466,99.6083 c 0.0000,-1.5257 -1.2369,-2.7626 -2.7626 -2.7626c -1.5257,-0.0000 -2.7626,1.2369 -2.7626 2.7626c -0.0000,1.5257 1.2369,2.7626 2.7626 2.7626c 1.5257,0.0000 2.7626,-1.2369 2.7626 -2.7626Z"/></g><defs></defs><g stroke-linejoin="miter" stroke-opacity="0.0" fill-opacity="0.1" stroke="rgb(0,0,0)" stroke-width="0.0" fill="rgb(85,85,85)" stroke-linecap="butt" stroke-miterlimit="10.0"><path d="M 133.2990,83.7595 c 0.0000,-1.5257 -1.2369,-2.7626 -2.7626 -2.7626c -1.5257,-0.0000 -2.7626,1.2369 -2.7626 2.7626c -0.0000,1.5257 1.2369,2.7626 2.7626 2.7626c 1.5257,0.0000 2.7626,-1.2369 2.7626 -2.7626Z"/></g><defs></defs><g stroke-linejoin="miter" stroke-opacity="0.0" fill-opacity="0.1" stroke="rgb(0,0,0)" stroke-width="0.0" fill="rgb(85,85,85)" stroke-linecap="butt" stroke-miterlimit="10.0"><path d="M 117.6735,79.1300 c 0.0000,-1.5257 -1.2369,-2.7626 -2.7626 -2.7626c -1.5257,-0.0000 -2.7626,1.2369 -2.7626 2.7626c -0.0000,1.5257 1.2369,2.7626 2.7626 2.7626c 1.5257,0.0000 2.7626,-1.2369 2.7626 -2.7626Z"/></g><defs></defs><g stroke-linejoin="miter" stroke-opacity="0.0" fill-opacity="0.1" stroke="rgb(0,0,0)" stroke-width="0.0" fill="rgb(85,85,85)" stroke-linecap="butt" stroke-miterlimit="10.0"><path d="M 156.2540,77.0126 c 0.0000,-1.5257 -1.2369,-2.7626 -2.7626 -2.7626c -1.5257,-0.0000 -2.7626,1.2369 -2.7626 2.7626c -0.0000,1.5257 1.2369,2.7626 2.7626 2.7626c 1.5257,0.0000 2.7626,-1.2369 2.7626 -2.7626Z"/></g><defs></defs><g stroke-linejoin="miter" stroke-opacity="0.0" fill-opacity="0.1" stroke="rgb(0,0,0)" stroke-width="0.0" fill="rgb(85,85,85)" stroke-linecap="butt" stroke-miterlimit="10.0"><path d="M 86.2944,97.6613 c 0.0000,-1.5257 -1.2369,-2.7626 -2.7626 -2.7626c -1.5257,-0.0000 -2.7626,1.2369 -2.7626 2.7626c -0.0000,1.5257 1.2369,2.7626 2.7626 2.7626c 1.5257,0.0000 2.7626,-1.2369 2.7626 -2.7626Z"/></g><defs></defs><g stroke-linejoin="miter" stroke-opacity="0.0" fill-opacity="0.1" stroke="rgb(0,0,0)" stroke-width="0.0" fill="rgb(85,85,85)" stroke-linecap="butt" stroke-miterlimit="10.0"><path d="M 79.9648,107.8487 c 0.0000,-1.5257 -1.2369,-2.7626 -2.7626 -2.7626c -1.5257,-0.0000 -2.7626,1.2369 -2.7626 2.7626c -0.0000,1.5257 1.2369,2.7626 2.7626 2.7626c 1.5257,0.0000 2.7626,-1.2369 2.7626 -2.7626Z"/></g><defs></defs><g stroke-linejoin="miter" stroke-opacity="0.0" fill-opacity="0.1" stroke="rgb(0,0,0)" stroke-width="0.0" fill="rgb(85,85,85)" stroke-linecap="butt" stroke-miterlimit="10.0"><path d="M 72.5255,109.9477 c 0.0000,-1.5257 -1.2369,-2.7626 -2.7626 -2.7626c -1.5257,-0.0000 -2.7626,1.2369 -2.7626 2.7626c -0.0000,1.5257 1.2369,2.7626 2.7626 2.7626c 1.5257,0.0000 2.7626,-1.2369 2.7626 -2.7626Z"/></g><defs></defs><g stroke-linejoin="miter" stroke-opacity="0.0" fill-opacity="0.1" stroke="rgb(0,0,0)" stroke-width="0.0" fill="rgb(85,85,85)" stroke-linecap="butt" stroke-miterlimit="10.0"><path d="M 98.6444,85.2980 c 0.0000,-1.5257 -1.2369,-2.7626 -2.7626 -2.7626c -1.5257,-0.0000 -2.7626,1.2369 -2.7626 2.7626c -0.0000,1.5257 1.2369,2.7626 2.7626 2.7626c 1.5257,0.0000 2.7626,-1.2369 2.7626 -2.7626Z"/></g><defs></defs><g stroke-linejoin="miter" stroke-opacity="0.0" fill-opacity="0.1" stroke="rgb(0,0,0)" stroke-width="0.0" fill="rgb(85,85,85)" stroke-linecap="butt" stroke-miterlimit="10.0"><path d="M 121.4012,77.3921 c 0.0000,-1.5257 -1.2369,-2.7626 -2.7626 -2.7626c -1.5257,-0.0000 -2.7626,1.2369 -2.7626 2.7626c -0.0000,1.5257 1.2369,2.7626 2.7626 2.7626c 1.5257,0.0000 2.7626,-1.2369 2.7626 -2.7626Z"/></g><defs></defs><g stroke-linejoin="miter" stroke-opacity="0.0" fill-opacity="0.1" stroke="rgb(0,0,0)" stroke-width="0.0" fill="rgb(85,85,85)" stroke-linecap="butt" stroke-miterlimit="10.0"><path d="M 115.3306,73.2551 c 0.0000,-1.5257 -1.2369,-2.7626 -2.7626 -2.7626c -1.5257,-0.0000 -2.7626,1.2369 -2.7626 2.7626c -0.0000,1.5257 1.2369,2.7626 2.7626 2.7626c 1.5257,0.0000 2.7626,-1.2369 2.7626 -2.7626Z"/></g><defs></defs><g stroke-linejoin="miter" stroke-opacity="0.0" fill-opacity="0.1" stroke="rgb(0,0,0)" stroke-width="0.0" fill="rgb(85,85,85)" stroke-linecap="butt" stroke-miterlimit="10.0"><path d="M 123.3917,90.6339 c 0.0000,-1.5257 -1.2369,-2.7626 -2.7626 -2.7626c -1.5257,-0.0000 -2.7626,1.2369 -2.7626 2.7626c -0.0000,1.5257 1.2369,2.7626 2.7626 2.7626c 1.5257,0.0000 2.7626,-1.2369 2.7626 -2.7626Z"/></g><defs></defs><g stroke-linejoin="miter" stroke-opacity="0.0" fill-opacity="0.1" stroke="rgb(0,0,0)" stroke-width="0.0" fill="rgb(85,85,85)" stroke-linecap="butt" stroke-miterlimit="10.0"><path d="M 138.6389,31.3878 c 0.0000,-1.5257 -1.2369,-2.7626 -2.7626 -2.7626c -1.5257,-0.0000 -2.7626,1.2369 -2.7626 2.7626c -0.0000,1.5257 1.2369,2.7626 2.7626 2.7626c 1.5257,0.0000 2.7626,-1.2369 2.7626 -2.7626Z"/></g><defs></defs><g stroke-linejoin="miter" stroke-opacity="0.0" fill-opacity="0.1" stroke="rgb(0,0,0)" stroke-width="0.0" fill="rgb(85,85,85)" stroke-linecap="butt" stroke-miterlimit="10.0"><path d="M 112.2070,111.1584 c 0.0000,-1.5257 -1.2369,-2.7626 -2.7626 -2.7626c -1.5257,-0.0000 -2.7626,1.2369 -2.7626 2.7626c -0.0000,1.5257 1.2369,2.7626 2.7626 2.7626c 1.5257,0.0000 2.7626,-1.2369 2.7626 -2.7626Z"/></g><defs></defs><g stroke-linejoin="miter" stroke-opacity="0.0" fill-opacity="0.1" stroke="rgb(0,0,0)" stroke-width="0.0" fill="rgb(85,85,85)" stroke-linecap="butt" stroke-miterlimit="10.0"><path d="M 64.3146,132.3021 c 0.0000,-1.5257 -1.2369,-2.7626 -2.7626 -2.7626c -1.5257,-0.0000 -2.7626,1.2369 -2.7626 2.7626c -0.0000,1.5257 1.2369,2.7626 2.7626 2.7626c 1.5257,0.0000 2.7626,-1.2369 2.7626 -2.7626Z"/></g><defs></defs><g stroke-linejoin="miter" stroke-opacity="0.0" fill-opacity="0.1" stroke="rgb(0,0,0)" stroke-width="0.0" fill="rgb(85,85,85)" stroke-linecap="butt" stroke-miterlimit="10.0"><path d="M 103.0466,100.0967 c 0.0000,-1.5257 -1.2369,-2.7626 -2.7626 -2.7626c -1.5257,-0.0000 -2.7626,1.2369 -2.7626 2.7626c -0.0000,1.5257 1.2369,2.7626 2.7626 2.7626c 1.5257,0.0000 2.7626,-1.2369 2.7626 -2.7626Z"/></g><defs></defs><g stroke-linejoin="miter" stroke-opacity="0.0" fill-opacity="0.1" stroke="rgb(0,0,0)" stroke-width="0.0" fill="rgb(85,85,85)" stroke-linecap="butt" stroke-miterlimit="10.0"><path d="M 117.0095,96.2139 c 0.0000,-1.5257 -1.2369,-2.7626 -2.7626 -2.7626c -1.5257,-0.0000 -2.7626,1.2369 -2.7626 2.7626c -0.0000,1.5257 1.2369,2.7626 2.7626 2.7626c 1.5257,0.0000 2.7626,-1.2369 2.7626 -2.7626Z"/></g><defs></defs><g stroke-linejoin="miter" stroke-opacity="0.0" fill-opacity="0.1" stroke="rgb(0,0,0)" stroke-width="0.0" fill="rgb(85,85,85)" stroke-linecap="butt" stroke-miterlimit="10.0"><path d="M 47.9646,142.1937 c 0.0000,-1.5257 -1.2369,-2.7626 -2.7626 -2.7626c -1.5257,-0.0000 -2.7626,1.2369 -2.7626 2.7626c -0.0000,1.5257 1.2369,2.7626 2.7626 2.7626c 1.5257,0.0000 2.7626,-1.2369 2.7626 -2.7626Z"/></g><defs></defs><g stroke-linejoin="miter" stroke-opacity="0.0" fill-opacity="0.1" stroke="rgb(0,0,0)" stroke-width="0.0" fill="rgb(85,85,85)" stroke-linecap="butt" stroke-miterlimit="10.0"><path d="M 101.2947,87.9322 c 0.0000,-1.5257 -1.2369,-2.7626 -2.7626 -2.7626c -1.5257,-0.0000 -2.7626,1.2369 -2.7626 2.7626c -0.0000,1.5257 1.2369,2.7626 2.7626 2.7626c 1.5257,0.0000 2.7626,-1.2369 2.7626 -2.7626Z"/></g><defs></defs><g stroke-linejoin="miter" stroke-opacity="0.0" fill-opacity="0.1" stroke="rgb(0,0,0)" stroke-width="0.0" fill="rgb(85,85,85)" stroke-linecap="butt" stroke-miterlimit="10.0"><path d="M 134.0153,69.9055 c 0.0000,-1.5257 -1.2369,-2.7626 -2.7626 -2.7626c -1.5257,-0.0000 -2.7626,1.2369 -2.7626 2.7626c -0.0000,1.5257 1.2369,2.7626 2.7626 2.7626c 1.5257,0.0000 2.7626,-1.2369 2.7626 -2.7626Z"/></g><defs></defs><g stroke-linejoin="miter" stroke-opacity="0.0" fill-opacity="0.1" stroke="rgb(0,0,0)" stroke-width="0.0" fill="rgb(85,85,85)" stroke-linecap="butt" stroke-miterlimit="10.0"><path d="M 110.6765,78.8209 c 0.0000,-1.5257 -1.2369,-2.7626 -2.7626 -2.7626c -1.5257,-0.0000 -2.7626,1.2369 -2.7626 2.7626c -0.0000,1.5257 1.2369,2.7626 2.7626 2.7626c 1.5257,0.0000 2.7626,-1.2369 2.7626 -2.7626Z"/></g><defs></defs><g stroke-linejoin="miter" stroke-opacity="0.0" fill-opacity="0.1" stroke="rgb(0,0,0)" stroke-width="0.0" fill="rgb(85,85,85)" stroke-linecap="butt" stroke-miterlimit="10.0"><path d="M 71.0333,131.8673 c 0.0000,-1.5257 -1.2369,-2.7626 -2.7626 -2.7626c -1.5257,-0.0000 -2.7626,1.2369 -2.7626 2.7626c -0.0000,1.5257 1.2369,2.7626 2.7626 2.7626c 1.5257,0.0000 2.7626,-1.2369 2.7626 -2.7626Z"/></g><defs></defs><g stroke-linejoin="miter" stroke-opacity="0.0" fill-opacity="0.1" stroke="rgb(0,0,0)" stroke-width="0.0" fill="rgb(85,85,85)" stroke-linecap="butt" stroke-miterlimit="10.0"><path d="M 69.6799,98.9769 c 0.0000,-1.5257 -1.2369,-2.7626 -2.7626 -2.7626c -1.5257,-0.0000 -2.7626,1.2369 -2.7626 2.7626c -0.0000,1.5257 1.2369,2.7626 2.7626 2.7626c 1.5257,0.0000 2.7626,-1.2369 2.7626 -2.7626Z"/></g><defs></defs><g stroke-linejoin="miter" stroke-opacity="0.0" fill-opacity="0.1" stroke="rgb(0,0,0)" stroke-width="0.0" fill="rgb(85,85,85)" stroke-linecap="butt" stroke-miterlimit="10.0"><path d="M 96.9638,82.2849 c 0.0000,-1.5257 -1.2369,-2.7626 -2.7626 -2.7626c -1.5257,-0.0000 -2.7626,1.2369 -2.7626 2.7626c -0.0000,1.5257 1.2369,2.7626 2.7626 2.7626c 1.5257,0.0000 2.7626,-1.2369 2.7626 -2.7626Z"/></g><defs></defs><g stroke-linejoin="miter" stroke-opacity="0.0" fill-opacity="0.1" stroke="rgb(0,0,0)" stroke-width="0.0" fill="rgb(85,85,85)" stroke-linecap="butt" stroke-miterlimit="10.0"><path d="M 76.1741,114.7744 c 0.0000,-1.5257 -1.2369,-2.7626 -2.7626 -2.7626c -1.5257,-0.0000 -2.7626,1.2369 -2.7626 2.7626c -0.0000,1.5257 1.2369,2.7626 2.7626 2.7626c 1.5257,0.0000 2.7626,-1.2369 2.7626 -2.7626Z"/></g><defs></defs><g stroke-linejoin="miter" stroke-opacity="0.0" fill-opacity="0.1" stroke="rgb(0,0,0)" stroke-width="0.0" fill="rgb(85,85,85)" stroke-linecap="butt" stroke-miterlimit="10.0"><path d="M 68.5477,122.0650 c 0.0000,-1.5257 -1.2369,-2.7626 -2.7626 -2.7626c -1.5257,-0.0000 -2.7626,1.2369 -2.7626 2.7626c -0.0000,1.5257 1.2369,2.7626 2.7626 2.7626c 1.5257,0.0000 2.7626,-1.2369 2.7626 -2.7626Z"/></g><defs></defs><g stroke-linejoin="miter" stroke-opacity="0.0" fill-opacity="0.1" stroke="rgb(0,0,0)" stroke-width="0.0" fill="rgb(85,85,85)" stroke-linecap="butt" stroke-miterlimit="10.0"><path d="M 97.7068,93.9307 c 0.0000,-1.5257 -1.2369,-2.7626 -2.7626 -2.7626c -1.5257,-0.0000 -2.7626,1.2369 -2.7626 2.7626c -0.0000,1.5257 1.2369,2.7626 2.7626 2.7626c 1.5257,0.0000 2.7626,-1.2369 2.7626 -2.7626Z"/></g><defs></defs><g stroke-linejoin="miter" stroke-opacity="0.0" fill-opacity="0.1" stroke="rgb(0,0,0)" stroke-width="0.0" fill="rgb(85,85,85)" stroke-linecap="butt" stroke-miterlimit="10.0"><path d="M 73.9269,128.7444 c 0.0000,-1.5257 -1.2369,-2.7626 -2.7626 -2.7626c -1.5257,-0.0000 -2.7626,1.2369 -2.7626 2.7626c -0.0000,1.5257 1.2369,2.7626 2.7626 2.7626c 1.5257,0.0000 2.7626,-1.2369 2.7626 -2.7626Z"/></g><defs></defs><g stroke-linejoin="miter" stroke-opacity="0.0" fill-opacity="0.1" stroke="rgb(0,0,0)" stroke-width="0.0" fill="rgb(85,85,85)" stroke-linecap="butt" stroke-miterlimit="10.0"><path d="M 161.3398,45.4149 c 0.0000,-1.5257 -1.2369,-2.7626 -2.7626 -2.7626c -1.5257,-0.0000 -2.7626,1.2369 -2.7626 2.7626c -0.0000,1.5257 1.2369,2.7626 2.7626 2.7626c 1.5257,0.0000 2.7626,-1.2369 2.7626 -2.7626Z"/></g><defs></defs><g stroke-linejoin="miter" stroke-opacity="0.0" fill-opacity="0.1" stroke="rgb(0,0,0)" stroke-width="0.0" fill="rgb(85,85,85)" stroke-linecap="butt" stroke-miterlimit="10.0"><path d="M 105.4099,109.6118 c 0.0000,-1.5257 -1.2369,-2.7626 -2.7626 -2.7626c -1.5257,-0.0000 -2.7626,1.2369 -2.7626 2.7626c -0.0000,1.5257 1.2369,2.7626 2.7626 2.7626c 1.5257,0.0000 2.7626,-1.2369 2.7626 -2.7626Z"/></g><defs></defs><g stroke-linejoin="miter" stroke-opacity="0.0" fill-opacity="0.1" stroke="rgb(0,0,0)" stroke-width="0.0" fill="rgb(85,85,85)" stroke-linecap="butt" stroke-miterlimit="10.0"><path d="M 88.7173,114.9530 c 0.0000,-1.5257 -1.2369,-2.7626 -2.7626 -2.7626c -1.5257,-0.0000 -2.7626,1.2369 -2.7626 2.7626c -0.0000,1.5257 1.2369,2.7626 2.7626 2.7626c 1.5257,0.0000 2.7626,-1.2369 2.7626 -2.7626Z"/></g><defs></defs><g stroke-linejoin="miter" stroke-opacity="0.0" fill-opacity="0.1" stroke="rgb(0,0,0)" stroke-width="0.0" fill="rgb(85,85,85)" stroke-linecap="butt" stroke-miterlimit="10.0"><path d="M 131.4249,74.5715 c 0.0000,-1.5257 -1.2369,-2.7626 -2.7626 -2.7626c -1.5257,-0.0000 -2.7626,1.2369 -2.7626 2.7626c -0.0000,1.5257 1.2369,2.7626 2.7626 2.7626c 1.5257,0.0000 2.7626,-1.2369 2.7626 -2.7626Z"/></g><defs></defs><g stroke-linejoin="miter" stroke-opacity="0.0" fill-opacity="0.1" stroke="rgb(0,0,0)" stroke-width="0.0" fill="rgb(85,85,85)" stroke-linecap="butt" stroke-miterlimit="10.0"><path d="M 130.3643,81.3914 c 0.0000,-1.5257 -1.2369,-2.7626 -2.7626 -2.7626c -1.5257,-0.0000 -2.7626,1.2369 -2.7626 2.7626c -0.0000,1.5257 1.2369,2.7626 2.7626 2.7626c 1.5257,0.0000 2.7626,-1.2369 2.7626 -2.7626Z"/></g><defs></defs><g stroke-linejoin="miter" stroke-opacity="0.0" fill-opacity="0.1" stroke="rgb(0,0,0)" stroke-width="0.0" fill="rgb(85,85,85)" stroke-linecap="butt" stroke-miterlimit="10.0"><path d="M 81.2850,121.9619 c 0.0000,-1.5257 -1.2369,-2.7626 -2.7626 -2.7626c -1.5257,-0.0000 -2.7626,1.2369 -2.7626 2.7626c -0.0000,1.5257 1.2369,2.7626 2.7626 2.7626c 1.5257,0.0000 2.7626,-1.2369 2.7626 -2.7626Z"/></g><defs></defs><g stroke-linejoin="miter" stroke-opacity="0.0" fill-opacity="0.1" stroke="rgb(0,0,0)" stroke-width="0.0" fill="rgb(85,85,85)" stroke-linecap="butt" stroke-miterlimit="10.0"><path d="M 101.6513,79.0970 c 0.0000,-1.5257 -1.2369,-2.7626 -2.7626 -2.7626c -1.5257,-0.0000 -2.7626,1.2369 -2.7626 2.7626c -0.0000,1.5257 1.2369,2.7626 2.7626 2.7626c 1.5257,0.0000 2.7626,-1.2369 2.7626 -2.7626Z"/></g><defs></defs><g stroke-linejoin="miter" stroke-opacity="0.0" fill-opacity="0.1" stroke="rgb(0,0,0)" stroke-width="0.0" fill="rgb(85,85,85)" stroke-linecap="butt" stroke-miterlimit="10.0"><path d="M 106.2669,92.9247 c 0.0000,-1.5257 -1.2369,-2.7626 -2.7626 -2.7626c -1.5257,-0.0000 -2.7626,1.2369 -2.7626 2.7626c -0.0000,1.5257 1.2369,2.7626 2.7626 2.7626c 1.5257,0.0000 2.7626,-1.2369 2.7626 -2.7626Z"/></g><defs></defs><g stroke-linejoin="miter" stroke-opacity="0.0" fill-opacity="0.1" stroke="rgb(0,0,0)" stroke-width="0.0" fill="rgb(85,85,85)" stroke-linecap="butt" stroke-miterlimit="10.0"><path d="M 113.8934,78.6291 c 0.0000,-1.5257 -1.2369,-2.7626 -2.7626 -2.7626c -1.5257,-0.0000 -2.7626,1.2369 -2.7626 2.7626c -0.0000,1.5257 1.2369,2.7626 2.7626 2.7626c 1.5257,0.0000 2.7626,-1.2369 2.7626 -2.7626Z"/></g><defs></defs><g stroke-linejoin="miter" stroke-opacity="0.0" fill-opacity="0.1" stroke="rgb(0,0,0)" stroke-width="0.0" fill="rgb(85,85,85)" stroke-linecap="butt" stroke-miterlimit="10.0"><path d="M 106.1136,110.0921 c 0.0000,-1.5257 -1.2369,-2.7626 -2.7626 -2.7626c -1.5257,-0.0000 -2.7626,1.2369 -2.7626 2.7626c -0.0000,1.5257 1.2369,2.7626 2.7626 2.7626c 1.5257,0.0000 2.7626,-1.2369 2.7626 -2.7626Z"/></g><defs></defs><g stroke-linejoin="miter" stroke-opacity="0.0" fill-opacity="0.1" stroke="rgb(0,0,0)" stroke-width="0.0" fill="rgb(85,85,85)" stroke-linecap="butt" stroke-miterlimit="10.0"><path d="M 80.6680,112.6419 c 0.0000,-1.5257 -1.2369,-2.7626 -2.7626 -2.7626c -1.5257,-0.0000 -2.7626,1.2369 -2.7626 2.7626c -0.0000,1.5257 1.2369,2.7626 2.7626 2.7626c 1.5257,0.0000 2.7626,-1.2369 2.7626 -2.7626Z"/></g><defs></defs><g stroke-linejoin="miter" stroke-opacity="0.0" fill-opacity="0.1" stroke="rgb(0,0,0)" stroke-width="0.0" fill="rgb(85,85,85)" stroke-linecap="butt" stroke-miterlimit="10.0"><path d="M 145.5852,72.2196 c 0.0000,-1.5257 -1.2369,-2.7626 -2.7626 -2.7626c -1.5257,-0.0000 -2.7626,1.2369 -2.7626 2.7626c -0.0000,1.5257 1.2369,2.7626 2.7626 2.7626c 1.5257,0.0000 2.7626,-1.2369 2.7626 -2.7626Z"/></g><defs></defs><g stroke-linejoin="miter" stroke-opacity="0.0" fill-opacity="0.1" stroke="rgb(0,0,0)" stroke-width="0.0" fill="rgb(85,85,85)" stroke-linecap="butt" stroke-miterlimit="10.0"><path d="M 84.8812,104.6380 c 0.0000,-1.5257 -1.2369,-2.7626 -2.7626 -2.7626c -1.5257,-0.0000 -2.7626,1.2369 -2.7626 2.7626c -0.0000,1.5257 1.2369,2.7626 2.7626 2.7626c 1.5257,0.0000 2.7626,-1.2369 2.7626 -2.7626Z"/></g><defs></defs><g stroke-linejoin="miter" stroke-opacity="0.0" fill-opacity="0.1" stroke="rgb(0,0,0)" stroke-width="0.0" fill="rgb(85,85,85)" stroke-linecap="butt" stroke-miterlimit="10.0"><path d="M 130.0861,51.5905 c 0.0000,-1.5257 -1.2369,-2.7626 -2.7626 -2.7626c -1.5257,-0.0000 -2.7626,1.2369 -2.7626 2.7626c -0.0000,1.5257 1.2369,2.7626 2.7626 2.7626c 1.5257,0.0000 2.7626,-1.2369 2.7626 -2.7626Z"/></g><defs></defs><g stroke-linejoin="miter" stroke-opacity="0.0" fill-opacity="0.1" stroke="rgb(0,0,0)" stroke-width="0.0" fill="rgb(85,85,85)" stroke-linecap="butt" stroke-miterlimit="10.0"><path d="M 79.2284,116.3895 c 0.0000,-1.5257 -1.2369,-2.7626 -2.7626 -2.7626c -1.5257,-0.0000 -2.7626,1.2369 -2.7626 2.7626c -0.0000,1.5257 1.2369,2.7626 2.7626 2.7626c 1.5257,0.0000 2.7626,-1.2369 2.7626 -2.7626Z"/></g><defs></defs><g stroke-linejoin="miter" stroke-opacity="0.0" fill-opacity="0.1" stroke="rgb(0,0,0)" stroke-width="0.0" fill="rgb(85,85,85)" stroke-linecap="butt" stroke-miterlimit="10.0"><path d="M 82.3035,111.3312 c 0.0000,-1.5257 -1.2369,-2.7626 -2.7626 -2.7626c -1.5257,-0.0000 -2.7626,1.2369 -2.7626 2.7626c -0.0000,1.5257 1.2369,2.7626 2.7626 2.7626c 1.5257,0.0000 2.7626,-1.2369 2.7626 -2.7626Z"/></g><defs></defs><g stroke-linejoin="miter" stroke-opacity="0.0" fill-opacity="0.1" stroke="rgb(0,0,0)" stroke-width="0.0" fill="rgb(85,85,85)" stroke-linecap="butt" stroke-miterlimit="10.0"><path d="M 105.4665,82.7399 c 0.0000,-1.5257 -1.2369,-2.7626 -2.7626 -2.7626c -1.5257,-0.0000 -2.7626,1.2369 -2.7626 2.7626c -0.0000,1.5257 1.2369,2.7626 2.7626 2.7626c 1.5257,0.0000 2.7626,-1.2369 2.7626 -2.7626Z"/></g><defs></defs><g stroke-linejoin="miter" stroke-opacity="0.0" fill-opacity="0.1" stroke="rgb(0,0,0)" stroke-width="0.0" fill="rgb(85,85,85)" stroke-linecap="butt" stroke-miterlimit="10.0"><path d="M 68.2561,139.8362 c 0.0000,-1.5257 -1.2369,-2.7626 -2.7626 -2.7626c -1.5257,-0.0000 -2.7626,1.2369 -2.7626 2.7626c -0.0000,1.5257 1.2369,2.7626 2.7626 2.7626c 1.5257,0.0000 2.7626,-1.2369 2.7626 -2.7626Z"/></g><defs></defs><g stroke-linejoin="miter" stroke-opacity="0.0" fill-opacity="0.1" stroke="rgb(0,0,0)" stroke-width="0.0" fill="rgb(85,85,85)" stroke-linecap="butt" stroke-miterlimit="10.0"><path d="M 97.9938,59.6077 c 0.0000,-1.5257 -1.2369,-2.7626 -2.7626 -2.7626c -1.5257,-0.0000 -2.7626,1.2369 -2.7626 2.7626c -0.0000,1.5257 1.2369,2.7626 2.7626 2.7626c 1.5257,0.0000 2.7626,-1.2369 2.7626 -2.7626Z"/></g><defs></defs><g stroke-linejoin="miter" stroke-opacity="0.0" fill-opacity="0.1" stroke="rgb(0,0,0)" stroke-width="0.0" fill="rgb(85,85,85)" stroke-linecap="butt" stroke-miterlimit="10.0"><path d="M 95.0841,107.8189 c 0.0000,-1.5257 -1.2369,-2.7626 -2.7626 -2.7626c -1.5257,-0.0000 -2.7626,1.2369 -2.7626 2.7626c -0.0000,1.5257 1.2369,2.7626 2.7626 2.7626c 1.5257,0.0000 2.7626,-1.2369 2.7626 -2.7626Z"/></g><defs></defs><g stroke-linejoin="miter" stroke-opacity="0.0" fill-opacity="0.1" stroke="rgb(0,0,0)" stroke-width="0.0" fill="rgb(85,85,85)" stroke-linecap="butt" stroke-miterlimit="10.0"><path d="M 63.8836,132.0754 c 0.0000,-1.5257 -1.2369,-2.7626 -2.7626 -2.7626c -1.5257,-0.0000 -2.7626,1.2369 -2.7626 2.7626c -0.0000,1.5257 1.2369,2.7626 2.7626 2.7626c 1.5257,0.0000 2.7626,-1.2369 2.7626 -2.7626Z"/></g><defs></defs><g stroke-linejoin="miter" stroke-opacity="0.0" fill-opacity="0.1" stroke="rgb(0,0,0)" stroke-width="0.0" fill="rgb(85,85,85)" stroke-linecap="butt" stroke-miterlimit="10.0"><path d="M 97.6926,93.6851 c 0.0000,-1.5257 -1.2369,-2.7626 -2.7626 -2.7626c -1.5257,-0.0000 -2.7626,1.2369 -2.7626 2.7626c -0.0000,1.5257 1.2369,2.7626 2.7626 2.7626c 1.5257,0.0000 2.7626,-1.2369 2.7626 -2.7626Z"/></g><defs></defs><g stroke-linejoin="miter" stroke-opacity="0.0" fill-opacity="0.1" stroke="rgb(0,0,0)" stroke-width="0.0" fill="rgb(85,85,85)" stroke-linecap="butt" stroke-miterlimit="10.0"><path d="M 120.4069,82.6975 c 0.0000,-1.5257 -1.2369,-2.7626 -2.7626 -2.7626c -1.5257,-0.0000 -2.7626,1.2369 -2.7626 2.7626c -0.0000,1.5257 1.2369,2.7626 2.7626 2.7626c 1.5257,0.0000 2.7626,-1.2369 2.7626 -2.7626Z"/></g><defs></defs><g stroke-linejoin="miter" stroke-opacity="0.0" fill-opacity="0.1" stroke="rgb(0,0,0)" stroke-width="0.0" fill="rgb(85,85,85)" stroke-linecap="butt" stroke-miterlimit="10.0"><path d="M 109.7362,78.9175 c 0.0000,-1.5257 -1.2369,-2.7626 -2.7626 -2.7626c -1.5257,-0.0000 -2.7626,1.2369 -2.7626 2.7626c -0.0000,1.5257 1.2369,2.7626 2.7626 2.7626c 1.5257,0.0000 2.7626,-1.2369 2.7626 -2.7626Z"/></g><defs></defs><g stroke-linejoin="miter" stroke-opacity="0.0" fill-opacity="0.1" stroke="rgb(0,0,0)" stroke-width="0.0" fill="rgb(85,85,85)" stroke-linecap="butt" stroke-miterlimit="10.0"><path d="M 104.1570,97.7340 c 0.0000,-1.5257 -1.2369,-2.7626 -2.7626 -2.7626c -1.5257,-0.0000 -2.7626,1.2369 -2.7626 2.7626c -0.0000,1.5257 1.2369,2.7626 2.7626 2.7626c 1.5257,0.0000 2.7626,-1.2369 2.7626 -2.7626Z"/></g><defs></defs><g stroke-linejoin="miter" stroke-opacity="0.0" fill-opacity="0.1" stroke="rgb(0,0,0)" stroke-width="0.0" fill="rgb(85,85,85)" stroke-linecap="butt" stroke-miterlimit="10.0"><path d="M 87.7013,115.8603 c 0.0000,-1.5257 -1.2369,-2.7626 -2.7626 -2.7626c -1.5257,-0.0000 -2.7626,1.2369 -2.7626 2.7626c -0.0000,1.5257 1.2369,2.7626 2.7626 2.7626c 1.5257,0.0000 2.7626,-1.2369 2.7626 -2.7626Z"/></g><defs></defs><g stroke-linejoin="miter" stroke-opacity="0.0" fill-opacity="0.1" stroke="rgb(0,0,0)" stroke-width="0.0" fill="rgb(85,85,85)" stroke-linecap="butt" stroke-miterlimit="10.0"><path d="M 90.9405,123.5276 c 0.0000,-1.5257 -1.2369,-2.7626 -2.7626 -2.7626c -1.5257,-0.0000 -2.7626,1.2369 -2.7626 2.7626c -0.0000,1.5257 1.2369,2.7626 2.7626 2.7626c 1.5257,0.0000 2.7626,-1.2369 2.7626 -2.7626Z"/></g><defs></defs><g stroke-linejoin="miter" stroke-opacity="0.0" fill-opacity="0.1" stroke="rgb(0,0,0)" stroke-width="0.0" fill="rgb(85,85,85)" stroke-linecap="butt" stroke-miterlimit="10.0"><path d="M 73.6166,138.7140 c 0.0000,-1.5257 -1.2369,-2.7626 -2.7626 -2.7626c -1.5257,-0.0000 -2.7626,1.2369 -2.7626 2.7626c -0.0000,1.5257 1.2369,2.7626 2.7626 2.7626c 1.5257,0.0000 2.7626,-1.2369 2.7626 -2.7626Z"/></g><defs></defs><g stroke-linejoin="miter" stroke-opacity="0.0" fill-opacity="0.1" stroke="rgb(0,0,0)" stroke-width="0.0" fill="rgb(85,85,85)" stroke-linecap="butt" stroke-miterlimit="10.0"><path d="M 62.7243,117.4206 c 0.0000,-1.5257 -1.2369,-2.7626 -2.7626 -2.7626c -1.5257,-0.0000 -2.7626,1.2369 -2.7626 2.7626c -0.0000,1.5257 1.2369,2.7626 2.7626 2.7626c 1.5257,0.0000 2.7626,-1.2369 2.7626 -2.7626Z"/></g><defs></defs><g stroke-linejoin="miter" stroke-opacity="0.0" fill-opacity="0.1" stroke="rgb(0,0,0)" stroke-width="0.0" fill="rgb(85,85,85)" stroke-linecap="butt" stroke-miterlimit="10.0"><path d="M 114.5426,108.5825 c 0.0000,-1.5257 -1.2369,-2.7626 -2.7626 -2.7626c -1.5257,-0.0000 -2.7626,1.2369 -2.7626 2.7626c -0.0000,1.5257 1.2369,2.7626 2.7626 2.7626c 1.5257,0.0000 2.7626,-1.2369 2.7626 -2.7626Z"/></g><defs></defs><g stroke-linejoin="miter" stroke-opacity="0.0" fill-opacity="0.1" stroke="rgb(0,0,0)" stroke-width="0.0" fill="rgb(85,85,85)" stroke-linecap="butt" stroke-miterlimit="10.0"><path d="M 65.1308,136.0466 c 0.0000,-1.5257 -1.2369,-2.7626 -2.7626 -2.7626c -1.5257,-0.0000 -2.7626,1.2369 -2.7626 2.7626c -0.0000,1.5257 1.2369,2.7626 2.7626 2.7626c 1.5257,0.0000 2.7626,-1.2369 2.7626 -2.7626Z"/></g><defs></defs><g stroke-linejoin="miter" stroke-opacity="0.0" fill-opacity="0.1" stroke="rgb(0,0,0)" stroke-width="0.0" fill="rgb(85,85,85)" stroke-linecap="butt" stroke-miterlimit="10.0"><path d="M 94.7721,95.1843 c 0.0000,-1.5257 -1.2369,-2.7626 -2.7626 -2.7626c -1.5257,-0.0000 -2.7626,1.2369 -2.7626 2.7626c -0.0000,1.5257 1.2369,2.7626 2.7626 2.7626c 1.5257,0.0000 2.7626,-1.2369 2.7626 -2.7626Z"/></g><defs></defs><g stroke-linejoin="miter" stroke-opacity="0.0" fill-opacity="0.1" stroke="rgb(0,0,0)" stroke-width="0.0" fill="rgb(85,85,85)" stroke-linecap="butt" stroke-miterlimit="10.0"><path d="M 97.9774,91.5907 c 0.0000,-1.5257 -1.2369,-2.7626 -2.7626 -2.7626c -1.5257,-0.0000 -2.7626,1.2369 -2.7626 2.7626c -0.0000,1.5257 1.2369,2.7626 2.7626 2.7626c 1.5257,0.0000 2.7626,-1.2369 2.7626 -2.7626Z"/></g><defs></defs><g stroke-linejoin="miter" stroke-opacity="0.0" fill-opacity="0.1" stroke="rgb(0,0,0)" stroke-width="0.0" fill="rgb(85,85,85)" stroke-linecap="butt" stroke-miterlimit="10.0"><path d="M 110.4314,72.0125 c 0.0000,-1.5257 -1.2369,-2.7626 -2.7626 -2.7626c -1.5257,-0.0000 -2.7626,1.2369 -2.7626 2.7626c -0.0000,1.5257 1.2369,2.7626 2.7626 2.7626c 1.5257,0.0000 2.7626,-1.2369 2.7626 -2.7626Z"/></g><defs></defs><g stroke-linejoin="miter" stroke-opacity="0.0" fill-opacity="0.1" stroke="rgb(0,0,0)" stroke-width="0.0" fill="rgb(85,85,85)" stroke-linecap="butt" stroke-miterlimit="10.0"><path d="M 84.6183,113.4472 c 0.0000,-1.5257 -1.2369,-2.7626 -2.7626 -2.7626c -1.5257,-0.0000 -2.7626,1.2369 -2.7626 2.7626c -0.0000,1.5257 1.2369,2.7626 2.7626 2.7626c 1.5257,0.0000 2.7626,-1.2369 2.7626 -2.7626Z"/></g><defs></defs><g stroke-linejoin="miter" stroke-opacity="0.0" fill-opacity="0.1" stroke="rgb(0,0,0)" stroke-width="0.0" fill="rgb(85,85,85)" stroke-linecap="butt" stroke-miterlimit="10.0"><path d="M 110.5357,96.6116 c 0.0000,-1.5257 -1.2369,-2.7626 -2.7626 -2.7626c -1.5257,-0.0000 -2.7626,1.2369 -2.7626 2.7626c -0.0000,1.5257 1.2369,2.7626 2.7626 2.7626c 1.5257,0.0000 2.7626,-1.2369 2.7626 -2.7626Z"/></g><defs></defs><g stroke-linejoin="miter" stroke-opacity="0.0" fill-opacity="0.1" stroke="rgb(0,0,0)" stroke-width="0.0" fill="rgb(85,85,85)" stroke-linecap="butt" stroke-miterlimit="10.0"><path d="M 133.0013,67.2784 c 0.0000,-1.5257 -1.2369,-2.7626 -2.7626 -2.7626c -1.5257,-0.0000 -2.7626,1.2369 -2.7626 2.7626c -0.0000,1.5257 1.2369,2.7626 2.7626 2.7626c 1.5257,0.0000 2.7626,-1.2369 2.7626 -2.7626Z"/></g><defs></defs><g stroke-linejoin="miter" stroke-opacity="0.0" fill-opacity="0.1" stroke="rgb(0,0,0)" stroke-width="0.0" fill="rgb(85,85,85)" stroke-linecap="butt" stroke-miterlimit="10.0"><path d="M 132.0598,84.1204 c 0.0000,-1.5257 -1.2369,-2.7626 -2.7626 -2.7626c -1.5257,-0.0000 -2.7626,1.2369 -2.7626 2.7626c -0.0000,1.5257 1.2369,2.7626 2.7626 2.7626c 1.5257,0.0000 2.7626,-1.2369 2.7626 -2.7626Z"/></g><defs></defs><g stroke-linejoin="miter" stroke-opacity="1.0" fill-opacity="1.0" stroke="rgb(0,0,0)" stroke-width="0.0" fill="rgb(255,0,0)" stroke-linecap="butt" stroke-miterlimit="10.0"><path d="M 105.7203,95.5108 c 0.0000,-1.5868 -1.2863,-2.8731 -2.8731 -2.8731c -1.5868,-0.0000 -2.8731,1.2863 -2.8731 2.8731c -0.0000,1.5868 1.2863,2.8731 2.8731 2.8731c 1.5868,0.0000 2.8731,-1.2863 2.8731 -2.8731Z"/></g></svg>