<?xml version="1.0" encoding="UTF-8"?>
<!DOCTYPE svg PUBLIC "-//W3C//DTD SVG 1.1//EN"
    "http://www.w3.org/Graphics/SVG/1.1/DTD/svg11.dtd"><svg xmlns="http://www.w3.org/2000/svg" height="200.0000" stroke-opacity="1" viewBox="0 0 200 200" font-size="1" width="200.0000" xmlns:xlink="http://www.w3.org/1999/xlink" stroke="rgb(0,0,0)" version="1.1"><defs></defs><defs></defs><g stroke-linejoin="miter" stroke-opacity="0.0" fill-opacity="0.5" stroke="rgb(0,0,0)" stroke-width="0.0" fill="rgb(102,26,102)" stroke-linecap="butt" stroke-miterlimit="10.0"><path d="M 31.1927,165.9845 l -0.0000,-141.1433 h -2.8229 l -0.0000,141.1433 Z"/></g><defs></defs><g stroke-linejoin="miter" stroke-opacity="1.0" fill-opacity="0.7" font-size="5.645730416372617px" stroke="rgb(0,0,0)" stroke-width="0.7999999999999999" fill="rgb(51,51,51)" stroke-linecap="butt" stroke-miterlimit="10.0"><text dominant-baseline="middle" transform="matrix(1.0000,0.0000,0.0000,1.0000,24.1355,24.8412)" stroke="none" text-anchor="end">    2.0</text></g><defs></defs><g stroke-linejoin="miter" stroke-opacity="0.5" fill-opacity="0.0" stroke="rgb(26,102,204)" stroke-width="0.7999999999999999" fill="rgb(0,0,0)" stroke-linecap="butt" stroke-miterlimit="10.0"><path d="M 26.9584,24.8412 h 2.8229 "/></g><defs></defs><g stroke-linejoin="miter" stroke-opacity="1.0" fill-opacity="0.7" font-size="5.645730416372617px" stroke="rgb(0,0,0)" stroke-width="0.7999999999999999" fill="rgb(51,51,51)" stroke-linecap="butt" stroke-miterlimit="10.0"><text dominant-baseline="middle" transform="matrix(1.0000,0.0000,0.0000,1.0000,24.1355,53.0699)" stroke="none" text-anchor="end">    1.0</text></g><defs></defs><g stroke-linejoin="miter" stroke-opacity="0.5" fill-opacity="0.0" stroke="rgb(26,102,204)" stroke-width="0.7999999999999999" fill="rgb(0,0,0)" stroke-linecap="butt" stroke-miterlimit="10.0"><path d="M 26.9584,53.0699 h 2.8229 "/></g><defs></defs><g stroke-linejoin="miter" stroke-opacity="1.0" fill-opacity="0.7" font-size="5.645730416372617px" stroke="rgb(0,0,0)" stroke-width="0.7999999999999999" fill="rgb(51,51,51)" stroke-linecap="butt" stroke-miterlimit="10.0"><text dominant-baseline="middle" transform="matrix(1.0000,0.0000,0.0000,1.0000,24.1355,81.2985)" stroke="none" text-anchor="end">    0.0</text></g><defs></defs><g stroke-linejoin="miter" stroke-opacity="0.5" fill-opacity="0.0" stroke="rgb(26,102,204)" stroke-width="0.7999999999999999" fill="rgb(0,0,0)" stroke-linecap="butt" stroke-miterlimit="10.0"><path d="M 26.9584,81.2985 h 2.8229 "/></g><defs></defs><g stroke-linejoin="miter" stroke-opacity="1.0" fill-opacity="0.7" font-size="5.645730416372617px" stroke="rgb(0,0,0)" stroke-width="0.7999999999999999" fill="rgb(51,51,51)" stroke-linecap="butt" stroke-miterlimit="10.0"><text dominant-baseline="middle" transform="matrix(1.0000,0.0000,0.0000,1.0000,24.1355,109.5272)" stroke="none" text-anchor="end">   -1.0</text></g><defs></defs><g stroke-linejoin="miter" stroke-opacity="0.5" fill-opacity="0.0" stroke="rgb(26,102,204)" stroke-width="0.7999999999999999" fill="rgb(0,0,0)" stroke-linecap="butt" stroke-miterlimit="10.0"><path d="M 26.9584,109.5272 h 2.8229 "/></g><defs></defs><g stroke-linejoin="miter" stroke-opacity="1.0" fill-opacity="0.7" font-size="5.645730416372617px" stroke="rgb(0,0,0)" stroke-width="0.7999999999999999" fill="rgb(51,51,51)" stroke-linecap="butt" stroke-miterlimit="10.0"><text dominant-baseline="middle" transform="matrix(1.0000,0.0000,0.0000,1.0000,24.1355,137.7558)" stroke="none" text-anchor="end">   -2.0</text></g><defs></defs><g stroke-linejoin="miter" stroke-opacity="0.5" fill-opacity="0.0" stroke="rgb(26,102,204)" stroke-width="0.7999999999999999" fill="rgb(0,0,0)" stroke-linecap="butt" stroke-miterlimit="10.0"><path d="M 26.9584,137.7558 h 2.8229 "/></g><defs></defs><g stroke-linejoin="miter" stroke-opacity="1.0" fill-opacity="0.7" font-size="5.645730416372617px" stroke="rgb(0,0,0)" stroke-width="0.7999999999999999" fill="rgb(51,51,51)" stroke-linecap="butt" stroke-miterlimit="10.0"><text dominant-baseline="middle" transform="matrix(1.0000,0.0000,0.0000,1.0000,24.1355,165.9845)" stroke="none" text-anchor="end">   -3.0</text></g><defs></defs><g stroke-linejoin="miter" stroke-opacity="0.5" fill-opacity="0.0" stroke="rgb(26,102,204)" stroke-width="0.7999999999999999" fill="rgb(0,0,0)" stroke-linecap="butt" stroke-miterlimit="10.0"><path d="M 26.9584,165.9845 h 2.8229 "/></g><defs></defs><g stroke-linejoin="miter" stroke-opacity="0.0" fill-opacity="0.5" stroke="rgb(0,0,0)" stroke-width="0.0" fill="rgb(102,26,102)" stroke-linecap="butt" stroke-miterlimit="10.0"><path d="M 175.1588,171.6302 l -0.0000,-2.8229 h -141.1433 l -0.0000,2.8229 Z"/></g><defs></defs><g stroke-linejoin="miter" stroke-opacity="1.0" fill-opacity="0.7" font-size="5.645730416372617px" stroke="rgb(0,0,0)" stroke-width="0.7999999999999999" fill="rgb(51,51,51)" stroke-linecap="butt" stroke-miterlimit="10.0"><text dominant-baseline="text-before-edge" transform="matrix(1.0000,0.0000,0.0000,1.0000,175.1588,175.8645)" stroke="none" text-anchor="middle">    2.0</text></g><defs></defs><g stroke-linejoin="miter" stroke-opacity="0.5" fill-opacity="0.0" stroke="rgb(26,102,204)" stroke-width="0.7999999999999999" fill="rgb(0,0,0)" stroke-linecap="butt" stroke-miterlimit="10.0"><path d="M 175.1588,170.2188 v 2.8229 "/></g><defs></defs><g stroke-linejoin="miter" stroke-opacity="1.0" fill-opacity="0.7" font-size="5.645730416372617px" stroke="rgb(0,0,0)" stroke-width="0.7999999999999999" fill="rgb(51,51,51)" stroke-linecap="butt" stroke-miterlimit="10.0"><text dominant-baseline="text-before-edge" transform="matrix(1.0000,0.0000,0.0000,1.0000,146.9301,175.8645)" stroke="none" text-anchor="middle">    1.0</text></g><defs></defs><g stroke-linejoin="miter" stroke-opacity="0.5" fill-opacity="0.0" stroke="rgb(26,102,204)" stroke-width="0.7999999999999999" fill="rgb(0,0,0)" stroke-linecap="butt" stroke-miterlimit="10.0"><path d="M 146.9301,170.2188 v 2.8229 "/></g><defs></defs><g stroke-linejoin="miter" stroke-opacity="1.0" fill-opacity="0.7" font-size="5.645730416372617px" stroke="rgb(0,0,0)" stroke-width="0.7999999999999999" fill="rgb(51,51,51)" stroke-linecap="butt" stroke-miterlimit="10.0"><text dominant-baseline="text-before-edge" transform="matrix(1.0000,0.0000,0.0000,1.0000,118.7015,175.8645)" stroke="none" text-anchor="middle">    0.0</text></g><defs></defs><g stroke-linejoin="miter" stroke-opacity="0.5" fill-opacity="0.0" stroke="rgb(26,102,204)" stroke-width="0.7999999999999999" fill="rgb(0,0,0)" stroke-linecap="butt" stroke-miterlimit="10.0"><path d="M 118.7015,170.2188 v 2.8229 "/></g><defs></defs><g stroke-linejoin="miter" stroke-opacity="1.0" fill-opacity="0.7" font-size="5.645730416372617px" stroke="rgb(0,0,0)" stroke-width="0.7999999999999999" fill="rgb(51,51,51)" stroke-linecap="butt" stroke-miterlimit="10.0"><text dominant-baseline="text-before-edge" transform="matrix(1.0000,0.0000,0.0000,1.0000,90.4728,175.8645)" stroke="none" text-anchor="middle">   -1.0</text></g><defs></defs><g stroke-linejoin="miter" stroke-opacity="0.5" fill-opacity="0.0" stroke="rgb(26,102,204)" stroke-width="0.7999999999999999" fill="rgb(0,0,0)" stroke-linecap="butt" stroke-miterlimit="10.0"><path d="M 90.4728,170.2188 v 2.8229 "/></g><defs></defs><g stroke-linejoin="miter" stroke-opacity="1.0" fill-opacity="0.7" font-size="5.645730416372617px" stroke="rgb(0,0,0)" stroke-width="0.7999999999999999" fill="rgb(51,51,51)" stroke-linecap="butt" stroke-miterlimit="10.0"><text dominant-baseline="text-before-edge" transform="matrix(1.0000,0.0000,0.0000,1.0000,62.2442,175.8645)" stroke="none" text-anchor="middle">   -2.0</text></g><defs></defs><g stroke-linejoin="miter" stroke-opacity="0.5" fill-opacity="0.0" stroke="rgb(26,102,204)" stroke-width="0.7999999999999999" fill="rgb(0,0,0)" stroke-linecap="butt" stroke-miterlimit="10.0"><path d="M 62.2442,170.2188 v 2.8229 "/></g><defs></defs><g stroke-linejoin="miter" stroke-opacity="1.0" fill-opacity="0.7" font-size="5.645730416372617px" stroke="rgb(0,0,0)" stroke-width="0.7999999999999999" fill="rgb(51,51,51)" stroke-linecap="butt" stroke-miterlimit="10.0"><text dominant-baseline="text-before-edge" transform="matrix(1.0000,0.0000,0.0000,1.0000,34.0155,175.8645)" stroke="none" text-anchor="middle">   -3.0</text></g><defs></defs><g stroke-linejoin="miter" stroke-opacity="0.5" fill-opacity="0.0" stroke="rgb(26,102,204)" stroke-width="0.7999999999999999" fill="rgb(0,0,0)" stroke-linecap="butt" stroke-miterlimit="10.0"><path d="M 34.0155,170.2188 v 2.8229 "/></g><defs></defs><g stroke-linejoin="miter" stroke-opacity="0.0" fill-opacity="0.1" stroke="rgb(0,0,0)" stroke-width="0.0" fill="rgb(93,165,218)" stroke-linecap="butt" stroke-miterlimit="10.0"><path d="M 95.3994,93.4230 c 0.0000,-3.8976 -3.1596,-7.0572 -7.0572 -7.0572c -3.8976,-0.0000 -7.0572,3.1596 -7.0572 7.0572c -0.0000,3.8976 3.1596,7.0572 7.0572 7.0572c 3.8976,0.0000 7.0572,-3.1596 7.0572 -7.0572Z"/></g><defs></defs><g stroke-linejoin="miter" stroke-opacity="0.0" fill-opacity="0.1" stroke="rgb(0,0,0)" stroke-width="0.0" fill="rgb(93,165,218)" stroke-linecap="butt" stroke-miterlimit="10.0"><path d="M 87.0105,102.9871 c 0.0000,-3.8976 -3.1596,-7.0572 -7.0572 -7.0572c -3.8976,-0.0000 -7.0572,3.1596 -7.0572 7.0572c -0.0000,3.8976 3.1596,7.0572 7.0572 7.0572c 3.8976,0.0000 7.0572,-3.1596 7.0572 -7.0572Z"/></g><defs></defs><g stroke-linejoin="miter" stroke-opacity="0.0" fill-opacity="0.1" stroke="rgb(0,0,0)" stroke-width="0.0" fill="rgb(93,165,218)" stroke-linecap="butt" stroke-miterlimit="10.0"><path d="M 125.5159,79.8317 c 0.0000,-3.8976 -3.1596,-7.0572 -7.0572 -7.0572c -3.8976,-0.0000 -7.0572,3.1596 -7.0572 7.0572c -0.0000,3.8976 3.1596,7.0572 7.0572 7.0572c 3.8976,0.0000 7.0572,-3.1596 7.0572 -7.0572Z"/></g><defs></defs><g stroke-linejoin="miter" stroke-opacity="0.0" fill-opacity="0.1" stroke="rgb(0,0,0)" stroke-width="0.0" fill="rgb(93,165,218)" stroke-linecap="butt" stroke-miterlimit="10.0"><path d="M 114.8644,80.1153 c 0.0000,-3.8976 -3.1596,-7.0572 -7.0572 -7.0572c -3.8976,-0.0000 -7.0572,3.1596 -7.0572 7.0572c -0.0000,3.8976 3.1596,7.0572 7.0572 7.0572c 3.8976,0.0000 7.0572,-3.1596 7.0572 -7.0572Z"/></g><defs></defs><g stroke-linejoin="miter" stroke-opacity="0.0" fill-opacity="0.1" stroke="rgb(0,0,0)" stroke-width="0.0" fill="rgb(93,165,218)" stroke-linecap="butt" stroke-miterlimit="10.0"><path d="M 119.4551,103.5011 c 0.0000,-3.8976 -3.1596,-7.0572 -7.0572 -7.0572c -3.8976,-0.0000 -7.0572,3.1596 -7.0572 7.0572c -0.0000,3.8976 3.1596,7.0572 7.0572 7.0572c 3.8976,0.0000 7.0572,-3.1596 7.0572 -7.0572Z"/></g><defs></defs><g stroke-linejoin="miter" stroke-opacity="0.0" fill-opacity="0.1" stroke="rgb(0,0,0)" stroke-width="0.0" fill="rgb(93,165,218)" stroke-linecap="butt" stroke-miterlimit="10.0"><path d="M 116.2614,89.8076 c 0.0000,-3.8976 -3.1596,-7.0572 -7.0572 -7.0572c -3.8976,-0.0000 -7.0572,3.1596 -7.0572 7.0572c -0.0000,3.8976 3.1596,7.0572 7.0572 7.0572c 3.8976,0.0000 7.0572,-3.1596 7.0572 -7.0572Z"/></g><defs></defs><g stroke-linejoin="miter" stroke-opacity="0.0" fill-opacity="0.1" stroke="rgb(0,0,0)" stroke-width="0.0" fill="rgb(93,165,218)" stroke-linecap="butt" stroke-miterlimit="10.0"><path d="M 76.9395,123.7697 c 0.0000,-3.8976 -3.1596,-7.0572 -7.0572 -7.0572c -3.8976,-0.0000 -7.0572,3.1596 -7.0572 7.0572c -0.0000,3.8976 3.1596,7.0572 7.0572 7.0572c 3.8976,0.0000 7.0572,-3.1596 7.0572 -7.0572Z"/></g><defs></defs><g stroke-linejoin="miter" stroke-opacity="0.0" fill-opacity="0.1" stroke="rgb(0,0,0)" stroke-width="0.0" fill="rgb(93,165,218)" stroke-linecap="butt" stroke-miterlimit="10.0"><path d="M 103.4765,73.7587 c 0.0000,-3.8976 -3.1596,-7.0572 -7.0572 -7.0572c -3.8976,-0.0000 -7.0572,3.1596 -7.0572 7.0572c -0.0000,3.8976 3.1596,7.0572 7.0572 7.0572c 3.8976,0.0000 7.0572,-3.1596 7.0572 -7.0572Z"/></g><defs></defs><g stroke-linejoin="miter" stroke-opacity="0.0" fill-opacity="0.1" stroke="rgb(0,0,0)" stroke-width="0.0" fill="rgb(93,165,218)" stroke-linecap="butt" stroke-miterlimit="10.0"><path d="M 95.5214,85.4563 c 0.0000,-3.8976 -3.1596,-7.0572 -7.0572 -7.0572c -3.8976,-0.0000 -7.0572,3.1596 -7.0572 7.0572c -0.0000,3.8976 3.1596,7.0572 7.0572 7.0572c 3.8976,0.0000 7.0572,-3.1596 7.0572 -7.0572Z"/></g><defs></defs><g stroke-linejoin="miter" stroke-opacity="0.0" fill-opacity="0.1" stroke="rgb(0,0,0)" stroke-width="0.0" fill="rgb(93,165,218)" stroke-linecap="butt" stroke-miterlimit="10.0"><path d="M 101.3332,109.1938 c 0.0000,-3.8976 -3.1596,-7.0572 -7.0572 -7.0572c -3.8976,-0.0000 -7.0572,3.1596 -7.0572 7.0572c -0.0000,3.8976 3.1596,7.0572 7.0572 7.0572c 3.8976,0.0000 7.0572,-3.1596 7.0572 -7.0572Z"/></g><defs></defs><g stroke-linejoin="miter" stroke-opacity="0.0" fill-opacity="0.1" stroke="rgb(0,0,0)" stroke-width="0.0" fill="rgb(93,165,218)" stroke-linecap="butt" stroke-miterlimit="10.0"><path d="M 103.8440,74.3648 c 0.0000,-3.8976 -3.1596,-7.0572 -7.0572 -7.0572c -3.8976,-0.0000 -7.0572,3.1596 -7.0572 7.0572c -0.0000,3.8976 3.1596,7.0572 7.0572 7.0572c 3.8976,0.0000 7.0572,-3.1596 7.0572 -7.0572Z"/></g><defs></defs><g stroke-linejoin="miter" stroke-opacity="0.0" fill-opacity="0.1" stroke="rgb(0,0,0)" stroke-width="0.0" fill="rgb(93,165,218)" stroke-linecap="butt" stroke-miterlimit="10.0"><path d="M 102.5559,77.7375 c 0.0000,-3.8976 -3.1596,-7.0572 -7.0572 -7.0572c -3.8976,-0.0000 -7.0572,3.1596 -7.0572 7.0572c -0.0000,3.8976 3.1596,7.0572 7.0572 7.0572c 3.8976,0.0000 7.0572,-3.1596 7.0572 -7.0572Z"/></g><defs></defs><g stroke-linejoin="miter" stroke-opacity="0.0" fill-opacity="0.1" stroke="rgb(0,0,0)" stroke-width="0.0" fill="rgb(93,165,218)" stroke-linecap="butt" stroke-miterlimit="10.0"><path d="M 94.6837,95.4564 c 0.0000,-3.8976 -3.1596,-7.0572 -7.0572 -7.0572c -3.8976,-0.0000 -7.0572,3.1596 -7.0572 7.0572c -0.0000,3.8976 3.1596,7.0572 7.0572 7.0572c 3.8976,0.0000 7.0572,-3.1596 7.0572 -7.0572Z"/></g><defs></defs><g stroke-linejoin="miter" stroke-opacity="0.0" fill-opacity="0.1" stroke="rgb(0,0,0)" stroke-width="0.0" fill="rgb(93,165,218)" stroke-linecap="butt" stroke-miterlimit="10.0"><path d="M 130.1671,61.8421 c 0.0000,-3.8976 -3.1596,-7.0572 -7.0572 -7.0572c -3.8976,-0.0000 -7.0572,3.1596 -7.0572 7.0572c -0.0000,3.8976 3.1596,7.0572 7.0572 7.0572c 3.8976,0.0000 7.0572,-3.1596 7.0572 -7.0572Z"/></g><defs></defs><g stroke-linejoin="miter" stroke-opacity="0.0" fill-opacity="0.1" stroke="rgb(0,0,0)" stroke-width="0.0" fill="rgb(93,165,218)" stroke-linecap="butt" stroke-miterlimit="10.0"><path d="M 127.6650,82.7269 c 0.0000,-3.8976 -3.1596,-7.0572 -7.0572 -7.0572c -3.8976,-0.0000 -7.0572,3.1596 -7.0572 7.0572c -0.0000,3.8976 3.1596,7.0572 7.0572 7.0572c 3.8976,0.0000 7.0572,-3.1596 7.0572 -7.0572Z"/></g><defs></defs><g stroke-linejoin="miter" stroke-opacity="0.0" fill-opacity="0.1" stroke="rgb(0,0,0)" stroke-width="0.0" fill="rgb(93,165,218)" stroke-linecap="butt" stroke-miterlimit="10.0"><path d="M 94.1098,102.0130 c 0.0000,-3.8976 -3.1596,-7.0572 -7.0572 -7.0572c -3.8976,-0.0000 -7.0572,3.1596 -7.0572 7.0572c -0.0000,3.8976 3.1596,7.0572 7.0572 7.0572c 3.8976,0.0000 7.0572,-3.1596 7.0572 -7.0572Z"/></g><defs></defs><g stroke-linejoin="miter" stroke-opacity="0.0" fill-opacity="0.1" stroke="rgb(0,0,0)" stroke-width="0.0" fill="rgb(93,165,218)" stroke-linecap="butt" stroke-miterlimit="10.0"><path d="M 66.6936,128.8498 c 0.0000,-3.8976 -3.1596,-7.0572 -7.0572 -7.0572c -3.8976,-0.0000 -7.0572,3.1596 -7.0572 7.0572c -0.0000,3.8976 3.1596,7.0572 7.0572 7.0572c 3.8976,0.0000 7.0572,-3.1596 7.0572 -7.0572Z"/></g><defs></defs><g stroke-linejoin="miter" stroke-opacity="0.0" fill-opacity="0.1" stroke="rgb(0,0,0)" stroke-width="0.0" fill="rgb(93,165,218)" stroke-linecap="butt" stroke-miterlimit="10.0"><path d="M 108.1695,132.7502 c 0.0000,-3.8976 -3.1596,-7.0572 -7.0572 -7.0572c -3.8976,-0.0000 -7.0572,3.1596 -7.0572 7.0572c -0.0000,3.8976 3.1596,7.0572 7.0572 7.0572c 3.8976,0.0000 7.0572,-3.1596 7.0572 -7.0572Z"/></g><defs></defs><g stroke-linejoin="miter" stroke-opacity="0.0" fill-opacity="0.1" stroke="rgb(0,0,0)" stroke-width="0.0" fill="rgb(93,165,218)" stroke-linecap="butt" stroke-miterlimit="10.0"><path d="M 160.2432,40.9058 c 0.0000,-3.8976 -3.1596,-7.0572 -7.0572 -7.0572c -3.8976,-0.0000 -7.0572,3.1596 -7.0572 7.0572c -0.0000,3.8976 3.1596,7.0572 7.0572 7.0572c 3.8976,0.0000 7.0572,-3.1596 7.0572 -7.0572Z"/></g><defs></defs><g stroke-linejoin="miter" stroke-opacity="0.0" fill-opacity="0.1" stroke="rgb(0,0,0)" stroke-width="0.0" fill="rgb(93,165,218)" stroke-linecap="butt" stroke-miterlimit="10.0"><path d="M 113.9234,88.9113 c 0.0000,-3.8976 -3.1596,-7.0572 -7.0572 -7.0572c -3.8976,-0.0000 -7.0572,3.1596 -7.0572 7.0572c -0.0000,3.8976 3.1596,7.0572 7.0572 7.0572c 3.8976,0.0000 7.0572,-3.1596 7.0572 -7.0572Z"/></g><defs></defs><g stroke-linejoin="miter" stroke-opacity="1.0" fill-opacity="1.0" stroke="rgb(0,0,0)" stroke-width="0.0" fill="rgb(255,0,0)" stroke-linecap="butt" stroke-miterlimit="10.0"><path d="M 106.7404,95.4128 c 0.0000,-1.1892 -0.9641,-2.1533 -2.1533 -2.1533c -1.1892,-0.0000 -2.1533,0.9641 -2.1533 2.1533c -0.0000,1.1892 0.9641,2.1533 2.1533 2.1533c 1.1892,0.0000 2.1533,-0.9641 2.1533 -2.1533Z"/></g><defs></defs><g stroke-linejoin="miter" stroke-opacity="0.0" fill-opacity="0.1" stroke="rgb(0,0,0)" stroke-width="0.0" fill="rgb(85,85,85)" stroke-linecap="butt" stroke-miterlimit="10.0"><path d="M 66.0048,145.6457 c 0.0000,-1.5590 -1.2638,-2.8229 -2.8229 -2.8229c -1.5590,-0.0000 -2.8229,1.2638 -2.8229 2.8229c -0.0000,1.5590 1.2638,2.8229 2.8229 2.8229c 1.5590,0.0000 2.8229,-1.2638 2.8229 -2.8229Z"/></g><defs></defs><g stroke-linejoin="miter" stroke-opacity="0.0" fill-opacity="0.1" stroke="rgb(0,0,0)" stroke-width="0.0" fill="rgb(85,85,85)" stroke-linecap="butt" stroke-miterlimit="10.0"><path d="M 115.4165,108.0834 c 0.0000,-1.5590 -1.2638,-2.8229 -2.8229 -2.8229c -1.5590,-0.0000 -2.8229,1.2638 -2.8229 2.8229c -0.0000,1.5590 1.2638,2.8229 2.8229 2.8229c 1.5590,0.0000 2.8229,-1.2638 2.8229 -2.8229Z"/></g><defs></defs><g stroke-linejoin="miter" stroke-opacity="0.0" fill-opacity="0.1" stroke="rgb(0,0,0)" stroke-width="0.0" fill="rgb(85,85,85)" stroke-linecap="butt" stroke-miterlimit="10.0"><path d="M 112.9375,89.4695 c 0.0000,-1.5590 -1.2638,-2.8229 -2.8229 -2.8229c -1.5590,-0.0000 -2.8229,1.2638 -2.8229 2.8229c -0.0000,1.5590 1.2638,2.8229 2.8229 2.8229c 1.5590,0.0000 2.8229,-1.2638 2.8229 -2.8229Z"/></g><defs></defs><g stroke-linejoin="miter" stroke-opacity="0.0" fill-opacity="0.1" stroke="rgb(0,0,0)" stroke-width="0.0" fill="rgb(85,85,85)" stroke-linecap="butt" stroke-miterlimit="10.0"><path d="M 110.0764,100.1005 c 0.0000,-1.5590 -1.2638,-2.8229 -2.8229 -2.8229c -1.5590,-0.0000 -2.8229,1.2638 -2.8229 2.8229c -0.0000,1.5590 1.2638,2.8229 2.8229 2.8229c 1.5590,0.0000 2.8229,-1.2638 2.8229 -2.8229Z"/></g><defs></defs><g stroke-linejoin="miter" stroke-opacity="0.0" fill-opacity="0.1" stroke="rgb(0,0,0)" stroke-width="0.0" fill="rgb(85,85,85)" stroke-linecap="butt" stroke-miterlimit="10.0"><path d="M 66.0990,138.9826 c 0.0000,-1.5590 -1.2638,-2.8229 -2.8229 -2.8229c -1.5590,-0.0000 -2.8229,1.2638 -2.8229 2.8229c -0.0000,1.5590 1.2638,2.8229 2.8229 2.8229c 1.5590,0.0000 2.8229,-1.2638 2.8229 -2.8229Z"/></g><defs></defs><g stroke-linejoin="miter" stroke-opacity="0.0" fill-opacity="0.1" stroke="rgb(0,0,0)" stroke-width="0.0" fill="rgb(85,85,85)" stroke-linecap="butt" stroke-miterlimit="10.0"><path d="M 61.3574,125.3048 c 0.0000,-1.5590 -1.2638,-2.8229 -2.8229 -2.8229c -1.5590,-0.0000 -2.8229,1.2638 -2.8229 2.8229c -0.0000,1.5590 1.2638,2.8229 2.8229 2.8229c 1.5590,0.0000 2.8229,-1.2638 2.8229 -2.8229Z"/></g><defs></defs><g stroke-linejoin="miter" stroke-opacity="0.0" fill-opacity="0.1" stroke="rgb(0,0,0)" stroke-width="0.0" fill="rgb(85,85,85)" stroke-linecap="butt" stroke-miterlimit="10.0"><path d="M 98.0339,113.9799 c 0.0000,-1.5590 -1.2638,-2.8229 -2.8229 -2.8229c -1.5590,-0.0000 -2.8229,1.2638 -2.8229 2.8229c -0.0000,1.5590 1.2638,2.8229 2.8229 2.8229c 1.5590,0.0000 2.8229,-1.2638 2.8229 -2.8229Z"/></g><defs></defs><g stroke-linejoin="miter" stroke-opacity="0.0" fill-opacity="0.1" stroke="rgb(0,0,0)" stroke-width="0.0" fill="rgb(85,85,85)" stroke-linecap="butt" stroke-miterlimit="10.0"><path d="M 107.5802,103.6166 c 0.0000,-1.5590 -1.2638,-2.8229 -2.8229 -2.8229c -1.5590,-0.0000 -2.8229,1.2638 -2.8229 2.8229c -0.0000,1.5590 1.2638,2.8229 2.8229 2.8229c 1.5590,0.0000 2.8229,-1.2638 2.8229 -2.8229Z"/></g><defs></defs><g stroke-linejoin="miter" stroke-opacity="0.0" fill-opacity="0.1" stroke="rgb(0,0,0)" stroke-width="0.0" fill="rgb(85,85,85)" stroke-linecap="butt" stroke-miterlimit="10.0"><path d="M 101.0088,99.6047 c 0.0000,-1.5590 -1.2638,-2.8229 -2.8229 -2.8229c -1.5590,-0.0000 -2.8229,1.2638 -2.8229 2.8229c -0.0000,1.5590 1.2638,2.8229 2.8229 2.8229c 1.5590,0.0000 2.8229,-1.2638 2.8229 -2.8229Z"/></g><defs></defs><g stroke-linejoin="miter" stroke-opacity="0.0" fill-opacity="0.1" stroke="rgb(0,0,0)" stroke-width="0.0" fill="rgb(85,85,85)" stroke-linecap="butt" stroke-miterlimit="10.0"><path d="M 73.0622,134.3305 c 0.0000,-1.5590 -1.2638,-2.8229 -2.8229 -2.8229c -1.5590,-0.0000 -2.8229,1.2638 -2.8229 2.8229c -0.0000,1.5590 1.2638,2.8229 2.8229 2.8229c 1.5590,0.0000 2.8229,-1.2638 2.8229 -2.8229Z"/></g><defs></defs><g stroke-linejoin="miter" stroke-opacity="0.0" fill-opacity="0.1" stroke="rgb(0,0,0)" stroke-width="0.0" fill="rgb(85,85,85)" stroke-linecap="butt" stroke-miterlimit="10.0"><path d="M 121.5629,61.7189 c 0.0000,-1.5590 -1.2638,-2.8229 -2.8229 -2.8229c -1.5590,-0.0000 -2.8229,1.2638 -2.8229 2.8229c -0.0000,1.5590 1.2638,2.8229 2.8229 2.8229c 1.5590,0.0000 2.8229,-1.2638 2.8229 -2.8229Z"/></g><defs></defs><g stroke-linejoin="miter" stroke-opacity="0.0" fill-opacity="0.1" stroke="rgb(0,0,0)" stroke-width="0.0" fill="rgb(85,85,85)" stroke-linecap="butt" stroke-miterlimit="10.0"><path d="M 136.6146,91.1467 c 0.0000,-1.5590 -1.2638,-2.8229 -2.8229 -2.8229c -1.5590,-0.0000 -2.8229,1.2638 -2.8229 2.8229c -0.0000,1.5590 1.2638,2.8229 2.8229 2.8229c 1.5590,0.0000 2.8229,-1.2638 2.8229 -2.8229Z"/></g><defs></defs><g stroke-linejoin="miter" stroke-opacity="0.0" fill-opacity="0.1" stroke="rgb(0,0,0)" stroke-width="0.0" fill="rgb(85,85,85)" stroke-linecap="butt" stroke-miterlimit="10.0"><path d="M 106.4030,105.2357 c 0.0000,-1.5590 -1.2638,-2.8229 -2.8229 -2.8229c -1.5590,-0.0000 -2.8229,1.2638 -2.8229 2.8229c -0.0000,1.5590 1.2638,2.8229 2.8229 2.8229c 1.5590,0.0000 2.8229,-1.2638 2.8229 -2.8229Z"/></g><defs></defs><g stroke-linejoin="miter" stroke-opacity="0.0" fill-opacity="0.1" stroke="rgb(0,0,0)" stroke-width="0.0" fill="rgb(85,85,85)" stroke-linecap="butt" stroke-miterlimit="10.0"><path d="M 120.8112,81.2535 c 0.0000,-1.5590 -1.2638,-2.8229 -2.8229 -2.8229c -1.5590,-0.0000 -2.8229,1.2638 -2.8229 2.8229c -0.0000,1.5590 1.2638,2.8229 2.8229 2.8229c 1.5590,0.0000 2.8229,-1.2638 2.8229 -2.8229Z"/></g><defs></defs><g stroke-linejoin="miter" stroke-opacity="0.0" fill-opacity="0.1" stroke="rgb(0,0,0)" stroke-width="0.0" fill="rgb(85,85,85)" stroke-linecap="butt" stroke-miterlimit="10.0"><path d="M 115.7192,88.3775 c 0.0000,-1.5590 -1.2638,-2.8229 -2.8229 -2.8229c -1.5590,-0.0000 -2.8229,1.2638 -2.8229 2.8229c -0.0000,1.5590 1.2638,2.8229 2.8229 2.8229c 1.5590,0.0000 2.8229,-1.2638 2.8229 -2.8229Z"/></g><defs></defs><g stroke-linejoin="miter" stroke-opacity="0.0" fill-opacity="0.1" stroke="rgb(0,0,0)" stroke-width="0.0" fill="rgb(85,85,85)" stroke-linecap="butt" stroke-miterlimit="10.0"><path d="M 141.8366,66.1621 c 0.0000,-1.5590 -1.2638,-2.8229 -2.8229 -2.8229c -1.5590,-0.0000 -2.8229,1.2638 -2.8229 2.8229c -0.0000,1.5590 1.2638,2.8229 2.8229 2.8229c 1.5590,0.0000 2.8229,-1.2638 2.8229 -2.8229Z"/></g><defs></defs><g stroke-linejoin="miter" stroke-opacity="0.0" fill-opacity="0.1" stroke="rgb(0,0,0)" stroke-width="0.0" fill="rgb(85,85,85)" stroke-linecap="butt" stroke-miterlimit="10.0"><path d="M 81.3317,98.6756 c 0.0000,-1.5590 -1.2638,-2.8229 -2.8229 -2.8229c -1.5590,-0.0000 -2.8229,1.2638 -2.8229 2.8229c -0.0000,1.5590 1.2638,2.8229 2.8229 2.8229c 1.5590,0.0000 2.8229,-1.2638 2.8229 -2.8229Z"/></g><defs></defs><g stroke-linejoin="miter" stroke-opacity="0.0" fill-opacity="0.1" stroke="rgb(0,0,0)" stroke-width="0.0" fill="rgb(85,85,85)" stroke-linecap="butt" stroke-miterlimit="10.0"><path d="M 99.1195,104.4075 c 0.0000,-1.5590 -1.2638,-2.8229 -2.8229 -2.8229c -1.5590,-0.0000 -2.8229,1.2638 -2.8229 2.8229c -0.0000,1.5590 1.2638,2.8229 2.8229 2.8229c 1.5590,0.0000 2.8229,-1.2638 2.8229 -2.8229Z"/></g><defs></defs><g stroke-linejoin="miter" stroke-opacity="0.0" fill-opacity="0.1" stroke="rgb(0,0,0)" stroke-width="0.0" fill="rgb(85,85,85)" stroke-linecap="butt" stroke-miterlimit="10.0"><path d="M 95.1160,115.6479 c 0.0000,-1.5590 -1.2638,-2.8229 -2.8229 -2.8229c -1.5590,-0.0000 -2.8229,1.2638 -2.8229 2.8229c -0.0000,1.5590 1.2638,2.8229 2.8229 2.8229c 1.5590,0.0000 2.8229,-1.2638 2.8229 -2.8229Z"/></g><defs></defs><g stroke-linejoin="miter" stroke-opacity="0.0" fill-opacity="0.1" stroke="rgb(0,0,0)" stroke-width="0.0" fill="rgb(85,85,85)" stroke-linecap="butt" stroke-miterlimit="10.0"><path d="M 84.7021,94.6641 c 0.0000,-1.5590 -1.2638,-2.8229 -2.8229 -2.8229c -1.5590,-0.0000 -2.8229,1.2638 -2.8229 2.8229c -0.0000,1.5590 1.2638,2.8229 2.8229 2.8229c 1.5590,0.0000 2.8229,-1.2638 2.8229 -2.8229Z"/></g><defs></defs><g stroke-linejoin="miter" stroke-opacity="0.0" fill-opacity="0.1" stroke="rgb(0,0,0)" stroke-width="0.0" fill="rgb(85,85,85)" stroke-linecap="butt" stroke-miterlimit="10.0"><path d="M 129.4792,41.7335 c 0.0000,-1.5590 -1.2638,-2.8229 -2.8229 -2.8229c -1.5590,-0.0000 -2.8229,1.2638 -2.8229 2.8229c -0.0000,1.5590 1.2638,2.8229 2.8229 2.8229c 1.5590,0.0000 2.8229,-1.2638 2.8229 -2.8229Z"/></g><defs></defs><g stroke-linejoin="miter" stroke-opacity="0.0" fill-opacity="0.1" stroke="rgb(0,0,0)" stroke-width="0.0" fill="rgb(85,85,85)" stroke-linecap="butt" stroke-miterlimit="10.0"><path d="M 130.6767,54.2578 c 0.0000,-1.5590 -1.2638,-2.8229 -2.8229 -2.8229c -1.5590,-0.0000 -2.8229,1.2638 -2.8229 2.8229c -0.0000,1.5590 1.2638,2.8229 2.8229 2.8229c 1.5590,0.0000 2.8229,-1.2638 2.8229 -2.8229Z"/></g><defs></defs><g stroke-linejoin="miter" stroke-opacity="0.0" fill-opacity="0.1" stroke="rgb(0,0,0)" stroke-width="0.0" fill="rgb(85,85,85)" stroke-linecap="butt" stroke-miterlimit="10.0"><path d="M 57.3033,152.9570 c 0.0000,-1.5590 -1.2638,-2.8229 -2.8229 -2.8229c -1.5590,-0.0000 -2.8229,1.2638 -2.8229 2.8229c -0.0000,1.5590 1.2638,2.8229 2.8229 2.8229c 1.5590,0.0000 2.8229,-1.2638 2.8229 -2.8229Z"/></g><defs></defs><g stroke-linejoin="miter" stroke-opacity="0.0" fill-opacity="0.1" stroke="rgb(0,0,0)" stroke-width="0.0" fill="rgb(85,85,85)" stroke-linecap="butt" stroke-miterlimit="10.0"><path d="M 110.0383,99.7842 c 0.0000,-1.5590 -1.2638,-2.8229 -2.8229 -2.8229c -1.5590,-0.0000 -2.8229,1.2638 -2.8229 2.8229c -0.0000,1.5590 1.2638,2.8229 2.8229 2.8229c 1.5590,0.0000 2.8229,-1.2638 2.8229 -2.8229Z"/></g><defs></defs><g stroke-linejoin="miter" stroke-opacity="0.0" fill-opacity="0.1" stroke="rgb(0,0,0)" stroke-width="0.0" fill="rgb(85,85,85)" stroke-linecap="butt" stroke-miterlimit="10.0"><path d="M 146.0675,48.5756 c 0.0000,-1.5590 -1.2638,-2.8229 -2.8229 -2.8229c -1.5590,-0.0000 -2.8229,1.2638 -2.8229 2.8229c -0.0000,1.5590 1.2638,2.8229 2.8229 2.8229c 1.5590,0.0000 2.8229,-1.2638 2.8229 -2.8229Z"/></g><defs></defs><g stroke-linejoin="miter" stroke-opacity="0.0" fill-opacity="0.1" stroke="rgb(0,0,0)" stroke-width="0.0" fill="rgb(85,85,85)" stroke-linecap="butt" stroke-miterlimit="10.0"><path d="M 67.9034,152.4800 c 0.0000,-1.5590 -1.2638,-2.8229 -2.8229 -2.8229c -1.5590,-0.0000 -2.8229,1.2638 -2.8229 2.8229c -0.0000,1.5590 1.2638,2.8229 2.8229 2.8229c 1.5590,0.0000 2.8229,-1.2638 2.8229 -2.8229Z"/></g><defs></defs><g stroke-linejoin="miter" stroke-opacity="0.0" fill-opacity="0.1" stroke="rgb(0,0,0)" stroke-width="0.0" fill="rgb(85,85,85)" stroke-linecap="butt" stroke-miterlimit="10.0"><path d="M 72.4367,101.8551 c 0.0000,-1.5590 -1.2638,-2.8229 -2.8229 -2.8229c -1.5590,-0.0000 -2.8229,1.2638 -2.8229 2.8229c -0.0000,1.5590 1.2638,2.8229 2.8229 2.8229c 1.5590,0.0000 2.8229,-1.2638 2.8229 -2.8229Z"/></g><defs></defs><g stroke-linejoin="miter" stroke-opacity="0.0" fill-opacity="0.1" stroke="rgb(0,0,0)" stroke-width="0.0" fill="rgb(85,85,85)" stroke-linecap="butt" stroke-miterlimit="10.0"><path d="M 95.2482,119.0337 c 0.0000,-1.5590 -1.2638,-2.8229 -2.8229 -2.8229c -1.5590,-0.0000 -2.8229,1.2638 -2.8229 2.8229c -0.0000,1.5590 1.2638,2.8229 2.8229 2.8229c 1.5590,0.0000 2.8229,-1.2638 2.8229 -2.8229Z"/></g><defs></defs><g stroke-linejoin="miter" stroke-opacity="0.0" fill-opacity="0.1" stroke="rgb(0,0,0)" stroke-width="0.0" fill="rgb(85,85,85)" stroke-linecap="butt" stroke-miterlimit="10.0"><path d="M 94.4707,109.1415 c 0.0000,-1.5590 -1.2638,-2.8229 -2.8229 -2.8229c -1.5590,-0.0000 -2.8229,1.2638 -2.8229 2.8229c -0.0000,1.5590 1.2638,2.8229 2.8229 2.8229c 1.5590,0.0000 2.8229,-1.2638 2.8229 -2.8229Z"/></g><defs></defs><g stroke-linejoin="miter" stroke-opacity="0.0" fill-opacity="0.1" stroke="rgb(0,0,0)" stroke-width="0.0" fill="rgb(85,85,85)" stroke-linecap="butt" stroke-miterlimit="10.0"><path d="M 136.5305,47.9105 c 0.0000,-1.5590 -1.2638,-2.8229 -2.8229 -2.8229c -1.5590,-0.0000 -2.8229,1.2638 -2.8229 2.8229c -0.0000,1.5590 1.2638,2.8229 2.8229 2.8229c 1.5590,0.0000 2.8229,-1.2638 2.8229 -2.8229Z"/></g><defs></defs><g stroke-linejoin="miter" stroke-opacity="0.0" fill-opacity="0.1" stroke="rgb(0,0,0)" stroke-width="0.0" fill="rgb(85,85,85)" stroke-linecap="butt" stroke-miterlimit="10.0"><path d="M 116.7611,78.5497 c 0.0000,-1.5590 -1.2638,-2.8229 -2.8229 -2.8229c -1.5590,-0.0000 -2.8229,1.2638 -2.8229 2.8229c -0.0000,1.5590 1.2638,2.8229 2.8229 2.8229c 1.5590,0.0000 2.8229,-1.2638 2.8229 -2.8229Z"/></g><defs></defs><g stroke-linejoin="miter" stroke-opacity="0.0" fill-opacity="0.1" stroke="rgb(0,0,0)" stroke-width="0.0" fill="rgb(85,85,85)" stroke-linecap="butt" stroke-miterlimit="10.0"><path d="M 77.0316,99.8675 c 0.0000,-1.5590 -1.2638,-2.8229 -2.8229 -2.8229c -1.5590,-0.0000 -2.8229,1.2638 -2.8229 2.8229c -0.0000,1.5590 1.2638,2.8229 2.8229 2.8229c 1.5590,0.0000 2.8229,-1.2638 2.8229 -2.8229Z"/></g><defs></defs><g stroke-linejoin="miter" stroke-opacity="0.0" fill-opacity="0.1" stroke="rgb(0,0,0)" stroke-width="0.0" fill="rgb(85,85,85)" stroke-linecap="butt" stroke-miterlimit="10.0"><path d="M 122.6157,107.1903 c 0.0000,-1.5590 -1.2638,-2.8229 -2.8229 -2.8229c -1.5590,-0.0000 -2.8229,1.2638 -2.8229 2.8229c -0.0000,1.5590 1.2638,2.8229 2.8229 2.8229c 1.5590,0.0000 2.8229,-1.2638 2.8229 -2.8229Z"/></g><defs></defs><g stroke-linejoin="miter" stroke-opacity="0.0" fill-opacity="0.1" stroke="rgb(0,0,0)" stroke-width="0.0" fill="rgb(85,85,85)" stroke-linecap="butt" stroke-miterlimit="10.0"><path d="M 113.1330,87.5723 c 0.0000,-1.5590 -1.2638,-2.8229 -2.8229 -2.8229c -1.5590,-0.0000 -2.8229,1.2638 -2.8229 2.8229c -0.0000,1.5590 1.2638,2.8229 2.8229 2.8229c 1.5590,0.0000 2.8229,-1.2638 2.8229 -2.8229Z"/></g><defs></defs><g stroke-linejoin="miter" stroke-opacity="0.0" fill-opacity="0.1" stroke="rgb(0,0,0)" stroke-width="0.0" fill="rgb(85,85,85)" stroke-linecap="butt" stroke-miterlimit="10.0"><path d="M 127.8532,68.9126 c 0.0000,-1.5590 -1.2638,-2.8229 -2.8229 -2.8229c -1.5590,-0.0000 -2.8229,1.2638 -2.8229 2.8229c -0.0000,1.5590 1.2638,2.8229 2.8229 2.8229c 1.5590,0.0000 2.8229,-1.2638 2.8229 -2.8229Z"/></g><defs></defs><g stroke-linejoin="miter" stroke-opacity="0.0" fill-opacity="0.1" stroke="rgb(0,0,0)" stroke-width="0.0" fill="rgb(85,85,85)" stroke-linecap="butt" stroke-miterlimit="10.0"><path d="M 167.6338,52.3368 c 0.0000,-1.5590 -1.2638,-2.8229 -2.8229 -2.8229c -1.5590,-0.0000 -2.8229,1.2638 -2.8229 2.8229c -0.0000,1.5590 1.2638,2.8229 2.8229 2.8229c 1.5590,0.0000 2.8229,-1.2638 2.8229 -2.8229Z"/></g><defs></defs><g stroke-linejoin="miter" stroke-opacity="0.0" fill-opacity="0.1" stroke="rgb(0,0,0)" stroke-width="0.0" fill="rgb(85,85,85)" stroke-linecap="butt" stroke-miterlimit="10.0"><path d="M 121.0478,86.8816 c 0.0000,-1.5590 -1.2638,-2.8229 -2.8229 -2.8229c -1.5590,-0.0000 -2.8229,1.2638 -2.8229 2.8229c -0.0000,1.5590 1.2638,2.8229 2.8229 2.8229c 1.5590,0.0000 2.8229,-1.2638 2.8229 -2.8229Z"/></g><defs></defs><g stroke-linejoin="miter" stroke-opacity="0.0" fill-opacity="0.1" stroke="rgb(0,0,0)" stroke-width="0.0" fill="rgb(85,85,85)" stroke-linecap="butt" stroke-miterlimit="10.0"><path d="M 102.0347,84.2228 c 0.0000,-1.5590 -1.2638,-2.8229 -2.8229 -2.8229c -1.5590,-0.0000 -2.8229,1.2638 -2.8229 2.8229c -0.0000,1.5590 1.2638,2.8229 2.8229 2.8229c 1.5590,0.0000 2.8229,-1.2638 2.8229 -2.8229Z"/></g><defs></defs><g stroke-linejoin="miter" stroke-opacity="0.0" fill-opacity="0.1" stroke="rgb(0,0,0)" stroke-width="0.0" fill="rgb(85,85,85)" stroke-linecap="butt" stroke-miterlimit="10.0"><path d="M 177.9817,37.7610 c 0.0000,-1.5590 -1.2638,-2.8229 -2.8229 -2.8229c -1.5590,-0.0000 -2.8229,1.2638 -2.8229 2.8229c -0.0000,1.5590 1.2638,2.8229 2.8229 2.8229c 1.5590,0.0000 2.8229,-1.2638 2.8229 -2.8229Z"/></g><defs></defs><g stroke-linejoin="miter" stroke-opacity="0.0" fill-opacity="0.1" stroke="rgb(0,0,0)" stroke-width="0.0" fill="rgb(85,85,85)" stroke-linecap="butt" stroke-miterlimit="10.0"><path d="M 98.4841,91.3213 c 0.0000,-1.5590 -1.2638,-2.8229 -2.8229 -2.8229c -1.5590,-0.0000 -2.8229,1.2638 -2.8229 2.8229c -0.0000,1.5590 1.2638,2.8229 2.8229 2.8229c 1.5590,0.0000 2.8229,-1.2638 2.8229 -2.8229Z"/></g><defs></defs><g stroke-linejoin="miter" stroke-opacity="0.0" fill-opacity="0.1" stroke="rgb(0,0,0)" stroke-width="0.0" fill="rgb(85,85,85)" stroke-linecap="butt" stroke-miterlimit="10.0"><path d="M 122.4885,69.7204 c 0.0000,-1.5590 -1.2638,-2.8229 -2.8229 -2.8229c -1.5590,-0.0000 -2.8229,1.2638 -2.8229 2.8229c -0.0000,1.5590 1.2638,2.8229 2.8229 2.8229c 1.5590,0.0000 2.8229,-1.2638 2.8229 -2.8229Z"/></g><defs></defs><g stroke-linejoin="miter" stroke-opacity="0.0" fill-opacity="0.1" stroke="rgb(0,0,0)" stroke-width="0.0" fill="rgb(85,85,85)" stroke-linecap="butt" stroke-miterlimit="10.0"><path d="M 127.8992,59.7095 c 0.0000,-1.5590 -1.2638,-2.8229 -2.8229 -2.8229c -1.5590,-0.0000 -2.8229,1.2638 -2.8229 2.8229c -0.0000,1.5590 1.2638,2.8229 2.8229 2.8229c 1.5590,0.0000 2.8229,-1.2638 2.8229 -2.8229Z"/></g><defs></defs><g stroke-linejoin="miter" stroke-opacity="0.0" fill-opacity="0.1" stroke="rgb(0,0,0)" stroke-width="0.0" fill="rgb(85,85,85)" stroke-linecap="butt" stroke-miterlimit="10.0"><path d="M 148.1560,65.3003 c 0.0000,-1.5590 -1.2638,-2.8229 -2.8229 -2.8229c -1.5590,-0.0000 -2.8229,1.2638 -2.8229 2.8229c -0.0000,1.5590 1.2638,2.8229 2.8229 2.8229c 1.5590,0.0000 2.8229,-1.2638 2.8229 -2.8229Z"/></g><defs></defs><g stroke-linejoin="miter" stroke-opacity="0.0" fill-opacity="0.1" stroke="rgb(0,0,0)" stroke-width="0.0" fill="rgb(85,85,85)" stroke-linecap="butt" stroke-miterlimit="10.0"><path d="M 160.4900,24.8412 c 0.0000,-1.5590 -1.2638,-2.8229 -2.8229 -2.8229c -1.5590,-0.0000 -2.8229,1.2638 -2.8229 2.8229c -0.0000,1.5590 1.2638,2.8229 2.8229 2.8229c 1.5590,0.0000 2.8229,-1.2638 2.8229 -2.8229Z"/></g><defs></defs><g stroke-linejoin="miter" stroke-opacity="0.0" fill-opacity="0.1" stroke="rgb(0,0,0)" stroke-width="0.0" fill="rgb(85,85,85)" stroke-linecap="butt" stroke-miterlimit="10.0"><path d="M 88.8341,109.0150 c 0.0000,-1.5590 -1.2638,-2.8229 -2.8229 -2.8229c -1.5590,-0.0000 -2.8229,1.2638 -2.8229 2.8229c -0.0000,1.5590 1.2638,2.8229 2.8229 2.8229c 1.5590,0.0000 2.8229,-1.2638 2.8229 -2.8229Z"/></g><defs></defs><g stroke-linejoin="miter" stroke-opacity="0.0" fill-opacity="0.1" stroke="rgb(0,0,0)" stroke-width="0.0" fill="rgb(85,85,85)" stroke-linecap="butt" stroke-miterlimit="10.0"><path d="M 36.8384,165.9845 c 0.0000,-1.5590 -1.2638,-2.8229 -2.8229 -2.8229c -1.5590,-0.0000 -2.8229,1.2638 -2.8229 2.8229c -0.0000,1.5590 1.2638,2.8229 2.8229 2.8229c 1.5590,0.0000 2.8229,-1.2638 2.8229 -2.8229Z"/></g><defs></defs><g stroke-linejoin="miter" stroke-opacity="0.0" fill-opacity="0.1" stroke="rgb(0,0,0)" stroke-width="0.0" fill="rgb(85,85,85)" stroke-linecap="butt" stroke-miterlimit="10.0"><path d="M 131.7697,65.7405 c 0.0000,-1.5590 -1.2638,-2.8229 -2.8229 -2.8229c -1.5590,-0.0000 -2.8229,1.2638 -2.8229 2.8229c -0.0000,1.5590 1.2638,2.8229 2.8229 2.8229c 1.5590,0.0000 2.8229,-1.2638 2.8229 -2.8229Z"/></g><defs></defs><g stroke-linejoin="miter" stroke-opacity="0.0" fill-opacity="0.1" stroke="rgb(0,0,0)" stroke-width="0.0" fill="rgb(85,85,85)" stroke-linecap="butt" stroke-miterlimit="10.0"><path d="M 113.2321,81.5685 c 0.0000,-1.5590 -1.2638,-2.8229 -2.8229 -2.8229c -1.5590,-0.0000 -2.8229,1.2638 -2.8229 2.8229c -0.0000,1.5590 1.2638,2.8229 2.8229 2.8229c 1.5590,0.0000 2.8229,-1.2638 2.8229 -2.8229Z"/></g><defs></defs><g stroke-linejoin="miter" stroke-opacity="0.0" fill-opacity="0.1" stroke="rgb(0,0,0)" stroke-width="0.0" fill="rgb(85,85,85)" stroke-linecap="butt" stroke-miterlimit="10.0"><path d="M 144.2294,52.9012 c 0.0000,-1.5590 -1.2638,-2.8229 -2.8229 -2.8229c -1.5590,-0.0000 -2.8229,1.2638 -2.8229 2.8229c -0.0000,1.5590 1.2638,2.8229 2.8229 2.8229c 1.5590,0.0000 2.8229,-1.2638 2.8229 -2.8229Z"/></g><defs></defs><g stroke-linejoin="miter" stroke-opacity="0.0" fill-opacity="0.1" stroke="rgb(0,0,0)" stroke-width="0.0" fill="rgb(85,85,85)" stroke-linecap="butt" stroke-miterlimit="10.0"><path d="M 157.2567,75.3897 c 0.0000,-1.5590 -1.2638,-2.8229 -2.8229 -2.8229c -1.5590,-0.0000 -2.8229,1.2638 -2.8229 2.8229c -0.0000,1.5590 1.2638,2.8229 2.8229 2.8229c 1.5590,0.0000 2.8229,-1.2638 2.8229 -2.8229Z"/></g><defs></defs><g stroke-linejoin="miter" stroke-opacity="0.0" fill-opacity="0.1" stroke="rgb(0,0,0)" stroke-width="0.0" fill="rgb(85,85,85)" stroke-linecap="butt" stroke-miterlimit="10.0"><path d="M 116.0823,69.8326 c 0.0000,-1.5590 -1.2638,-2.8229 -2.8229 -2.8229c -1.5590,-0.0000 -2.8229,1.2638 -2.8229 2.8229c -0.0000,1.5590 1.2638,2.8229 2.8229 2.8229c 1.5590,0.0000 2.8229,-1.2638 2.8229 -2.8229Z"/></g><defs></defs><g stroke-linejoin="miter" stroke-opacity="0.0" fill-opacity="0.1" stroke="rgb(0,0,0)" stroke-width="0.0" fill="rgb(85,85,85)" stroke-linecap="butt" stroke-miterlimit="10.0"><path d="M 114.1523,74.8828 c 0.0000,-1.5590 -1.2638,-2.8229 -2.8229 -2.8229c -1.5590,-0.0000 -2.8229,1.2638 -2.8229 2.8229c -0.0000,1.5590 1.2638,2.8229 2.8229 2.8229c 1.5590,0.0000 2.8229,-1.2638 2.8229 -2.8229Z"/></g><defs></defs><g stroke-linejoin="miter" stroke-opacity="0.0" fill-opacity="0.1" stroke="rgb(0,0,0)" stroke-width="0.0" fill="rgb(85,85,85)" stroke-linecap="butt" stroke-miterlimit="10.0"><path d="M 133.7947,67.4426 c 0.0000,-1.5590 -1.2638,-2.8229 -2.8229 -2.8229c -1.5590,-0.0000 -2.8229,1.2638 -2.8229 2.8229c -0.0000,1.5590 1.2638,2.8229 2.8229 2.8229c 1.5590,0.0000 2.8229,-1.2638 2.8229 -2.8229Z"/></g><defs></defs><g stroke-linejoin="miter" stroke-opacity="0.0" fill-opacity="0.1" stroke="rgb(0,0,0)" stroke-width="0.0" fill="rgb(85,85,85)" stroke-linecap="butt" stroke-miterlimit="10.0"><path d="M 93.0892,99.4295 c 0.0000,-1.5590 -1.2638,-2.8229 -2.8229 -2.8229c -1.5590,-0.0000 -2.8229,1.2638 -2.8229 2.8229c -0.0000,1.5590 1.2638,2.8229 2.8229 2.8229c 1.5590,0.0000 2.8229,-1.2638 2.8229 -2.8229Z"/></g><defs></defs><g stroke-linejoin="miter" stroke-opacity="0.0" fill-opacity="0.1" stroke="rgb(0,0,0)" stroke-width="0.0" fill="rgb(85,85,85)" stroke-linecap="butt" stroke-miterlimit="10.0"><path d="M 105.4528,75.0358 c 0.0000,-1.5590 -1.2638,-2.8229 -2.8229 -2.8229c -1.5590,-0.0000 -2.8229,1.2638 -2.8229 2.8229c -0.0000,1.5590 1.2638,2.8229 2.8229 2.8229c 1.5590,0.0000 2.8229,-1.2638 2.8229 -2.8229Z"/></g><defs></defs><g stroke-linejoin="miter" stroke-opacity="0.0" fill-opacity="0.1" stroke="rgb(0,0,0)" stroke-width="0.0" fill="rgb(85,85,85)" stroke-linecap="butt" stroke-miterlimit="10.0"><path d="M 98.6245,75.6853 c 0.0000,-1.5590 -1.2638,-2.8229 -2.8229 -2.8229c -1.5590,-0.0000 -2.8229,1.2638 -2.8229 2.8229c -0.0000,1.5590 1.2638,2.8229 2.8229 2.8229c 1.5590,0.0000 2.8229,-1.2638 2.8229 -2.8229Z"/></g><defs></defs><g stroke-linejoin="miter" stroke-opacity="0.0" fill-opacity="0.1" stroke="rgb(0,0,0)" stroke-width="0.0" fill="rgb(85,85,85)" stroke-linecap="butt" stroke-miterlimit="10.0"><path d="M 68.4697,141.5061 c 0.0000,-1.5590 -1.2638,-2.8229 -2.8229 -2.8229c -1.5590,-0.0000 -2.8229,1.2638 -2.8229 2.8229c -0.0000,1.5590 1.2638,2.8229 2.8229 2.8229c 1.5590,0.0000 2.8229,-1.2638 2.8229 -2.8229Z"/></g><defs></defs><g stroke-linejoin="miter" stroke-opacity="0.0" fill-opacity="0.1" stroke="rgb(0,0,0)" stroke-width="0.0" fill="rgb(85,85,85)" stroke-linecap="butt" stroke-miterlimit="10.0"><path d="M 107.9971,87.8743 c 0.0000,-1.5590 -1.2638,-2.8229 -2.8229 -2.8229c -1.5590,-0.0000 -2.8229,1.2638 -2.8229 2.8229c -0.0000,1.5590 1.2638,2.8229 2.8229 2.8229c 1.5590,0.0000 2.8229,-1.2638 2.8229 -2.8229Z"/></g><defs></defs><g stroke-linejoin="miter" stroke-opacity="0.0" fill-opacity="0.1" stroke="rgb(0,0,0)" stroke-width="0.0" fill="rgb(85,85,85)" stroke-linecap="butt" stroke-miterlimit="10.0"><path d="M 65.4872,139.5998 c 0.0000,-1.5590 -1.2638,-2.8229 -2.8229 -2.8229c -1.5590,-0.0000 -2.8229,1.2638 -2.8229 2.8229c -0.0000,1.5590 1.2638,2.8229 2.8229 2.8229c 1.5590,0.0000 2.8229,-1.2638 2.8229 -2.8229Z"/></g><defs></defs><g stroke-linejoin="miter" stroke-opacity="0.0" fill-opacity="0.1" stroke="rgb(0,0,0)" stroke-width="0.0" fill="rgb(85,85,85)" stroke-linecap="butt" stroke-miterlimit="10.0"><path d="M 126.7021,81.0468 c 0.0000,-1.5590 -1.2638,-2.8229 -2.8229 -2.8229c -1.5590,-0.0000 -2.8229,1.2638 -2.8229 2.8229c -0.0000,1.5590 1.2638,2.8229 2.8229 2.8229c 1.5590,0.0000 2.8229,-1.2638 2.8229 -2.8229Z"/></g><defs></defs><g stroke-linejoin="miter" stroke-opacity="0.0" fill-opacity="0.1" stroke="rgb(0,0,0)" stroke-width="0.0" fill="rgb(85,85,85)" stroke-linecap="butt" stroke-miterlimit="10.0"><path d="M 108.7535,83.1123 c 0.0000,-1.5590 -1.2638,-2.8229 -2.8229 -2.8229c -1.5590,-0.0000 -2.8229,1.2638 -2.8229 2.8229c -0.0000,1.5590 1.2638,2.8229 2.8229 2.8229c 1.5590,0.0000 2.8229,-1.2638 2.8229 -2.8229Z"/></g><defs></defs><g stroke-linejoin="miter" stroke-opacity="0.0" fill-opacity="0.1" stroke="rgb(0,0,0)" stroke-width="0.0" fill="rgb(85,85,85)" stroke-linecap="butt" stroke-miterlimit="10.0"><path d="M 99.0598,79.7174 c 0.0000,-1.5590 -1.2638,-2.8229 -2.8229 -2.8229c -1.5590,-0.0000 -2.8229,1.2638 -2.8229 2.8229c -0.0000,1.5590 1.2638,2.8229 2.8229 2.8229c 1.5590,0.0000 2.8229,-1.2638 2.8229 -2.8229Z"/></g><defs></defs><g stroke-linejoin="miter" stroke-opacity="0.0" fill-opacity="0.1" stroke="rgb(0,0,0)" stroke-width="0.0" fill="rgb(85,85,85)" stroke-linecap="butt" stroke-miterlimit="10.0"><path d="M 117.3166,91.2300 c 0.0000,-1.5590 -1.2638,-2.8229 -2.8229 -2.8229c -1.5590,-0.0000 -2.8229,1.2638 -2.8229 2.8229c -0.0000,1.5590 1.2638,2.8229 2.8229 2.8229c 1.5590,0.0000 2.8229,-1.2638 2.8229 -2.8229Z"/></g><defs></defs><g stroke-linejoin="miter" stroke-opacity="0.0" fill-opacity="0.1" stroke="rgb(0,0,0)" stroke-width="0.0" fill="rgb(85,85,85)" stroke-linecap="butt" stroke-miterlimit="10.0"><path d="M 109.7176,105.4804 c 0.0000,-1.5590 -1.2638,-2.8229 -2.8229 -2.8229c -1.5590,-0.0000 -2.8229,1.2638 -2.8229 2.8229c -0.0000,1.5590 1.2638,2.8229 2.8229 2.8229c 1.5590,0.0000 2.8229,-1.2638 2.8229 -2.8229Z"/></g><defs></defs><g stroke-linejoin="miter" stroke-opacity="0.0" fill-opacity="0.1" stroke="rgb(0,0,0)" stroke-width="0.0" fill="rgb(85,85,85)" stroke-linecap="butt" stroke-miterlimit="10.0"><path d="M 131.2658,59.9120 c 0.0000,-1.5590 -1.2638,-2.8229 -2.8229 -2.8229c -1.5590,-0.0000 -2.8229,1.2638 -2.8229 2.8229c -0.0000,1.5590 1.2638,2.8229 2.8229 2.8229c 1.5590,0.0000 2.8229,-1.2638 2.8229 -2.8229Z"/></g><defs></defs><g stroke-linejoin="miter" stroke-opacity="0.0" fill-opacity="0.1" stroke="rgb(0,0,0)" stroke-width="0.0" fill="rgb(85,85,85)" stroke-linecap="butt" stroke-miterlimit="10.0"><path d="M 125.3555,74.0718 c 0.0000,-1.5590 -1.2638,-2.8229 -2.8229 -2.8229c -1.5590,-0.0000 -2.8229,1.2638 -2.8229 2.8229c -0.0000,1.5590 1.2638,2.8229 2.8229 2.8229c 1.5590,0.0000 2.8229,-1.2638 2.8229 -2.8229Z"/></g><defs></defs><g stroke-linejoin="miter" stroke-opacity="0.0" fill-opacity="0.1" stroke="rgb(0,0,0)" stroke-width="0.0" fill="rgb(85,85,85)" stroke-linecap="butt" stroke-miterlimit="10.0"><path d="M 115.8013,80.9162 c 0.0000,-1.5590 -1.2638,-2.8229 -2.8229 -2.8229c -1.5590,-0.0000 -2.8229,1.2638 -2.8229 2.8229c -0.0000,1.5590 1.2638,2.8229 2.8229 2.8229c 1.5590,0.0000 2.8229,-1.2638 2.8229 -2.8229Z"/></g><defs></defs><g stroke-linejoin="miter" stroke-opacity="0.0" fill-opacity="0.1" stroke="rgb(0,0,0)" stroke-width="0.0" fill="rgb(85,85,85)" stroke-linecap="butt" stroke-miterlimit="10.0"><path d="M 101.2226,94.8411 c 0.0000,-1.5590 -1.2638,-2.8229 -2.8229 -2.8229c -1.5590,-0.0000 -2.8229,1.2638 -2.8229 2.8229c -0.0000,1.5590 1.2638,2.8229 2.8229 2.8229c 1.5590,0.0000 2.8229,-1.2638 2.8229 -2.8229Z"/></g><defs></defs><g stroke-linejoin="miter" stroke-opacity="0.0" fill-opacity="0.1" stroke="rgb(0,0,0)" stroke-width="0.0" fill="rgb(85,85,85)" stroke-linecap="butt" stroke-miterlimit="10.0"><path d="M 62.4973,125.7943 c 0.0000,-1.5590 -1.2638,-2.8229 -2.8229 -2.8229c -1.5590,-0.0000 -2.8229,1.2638 -2.8229 2.8229c -0.0000,1.5590 1.2638,2.8229 2.8229 2.8229c 1.5590,0.0000 2.8229,-1.2638 2.8229 -2.8229Z"/></g><defs></defs><g stroke-linejoin="miter" stroke-opacity="0.0" fill-opacity="0.1" stroke="rgb(0,0,0)" stroke-width="0.0" fill="rgb(85,85,85)" stroke-linecap="butt" stroke-miterlimit="10.0"><path d="M 103.9307,92.5701 c 0.0000,-1.5590 -1.2638,-2.8229 -2.8229 -2.8229c -1.5590,-0.0000 -2.8229,1.2638 -2.8229 2.8229c -0.0000,1.5590 1.2638,2.8229 2.8229 2.8229c 1.5590,0.0000 2.8229,-1.2638 2.8229 -2.8229Z"/></g><defs></defs><g stroke-linejoin="miter" stroke-opacity="0.0" fill-opacity="0.1" stroke="rgb(0,0,0)" stroke-width="0.0" fill="rgb(85,85,85)" stroke-linecap="butt" stroke-miterlimit="10.0"><path d="M 98.2250,104.7116 c 0.0000,-1.5590 -1.2638,-2.8229 -2.8229 -2.8229c -1.5590,-0.0000 -2.8229,1.2638 -2.8229 2.8229c -0.0000,1.5590 1.2638,2.8229 2.8229 2.8229c 1.5590,0.0000 2.8229,-1.2638 2.8229 -2.8229Z"/></g><defs></defs><g stroke-linejoin="miter" stroke-opacity="0.0" fill-opacity="0.1" stroke="rgb(0,0,0)" stroke-width="0.0" fill="rgb(85,85,85)" stroke-linecap="butt" stroke-miterlimit="10.0"><path d="M 83.2619,112.8094 c 0.0000,-1.5590 -1.2638,-2.8229 -2.8229 -2.8229c -1.5590,-0.0000 -2.8229,1.2638 -2.8229 2.8229c -0.0000,1.5590 1.2638,2.8229 2.8229 2.8229c 1.5590,0.0000 2.8229,-1.2638 2.8229 -2.8229Z"/></g><defs></defs><g stroke-linejoin="miter" stroke-opacity="0.0" fill-opacity="0.1" stroke="rgb(0,0,0)" stroke-width="0.0" fill="rgb(85,85,85)" stroke-linecap="butt" stroke-miterlimit="10.0"><path d="M 121.7960,68.9631 c 0.0000,-1.5590 -1.2638,-2.8229 -2.8229 -2.8229c -1.5590,-0.0000 -2.8229,1.2638 -2.8229 2.8229c -0.0000,1.5590 1.2638,2.8229 2.8229 2.8229c 1.5590,0.0000 2.8229,-1.2638 2.8229 -2.8229Z"/></g><defs></defs><g stroke-linejoin="miter" stroke-opacity="0.0" fill-opacity="0.1" stroke="rgb(0,0,0)" stroke-width="0.0" fill="rgb(85,85,85)" stroke-linecap="butt" stroke-miterlimit="10.0"><path d="M 88.9511,99.5009 c 0.0000,-1.5590 -1.2638,-2.8229 -2.8229 -2.8229c -1.5590,-0.0000 -2.8229,1.2638 -2.8229 2.8229c -0.0000,1.5590 1.2638,2.8229 2.8229 2.8229c 1.5590,0.0000 2.8229,-1.2638 2.8229 -2.8229Z"/></g><defs></defs><g stroke-linejoin="miter" stroke-opacity="0.0" fill-opacity="0.1" stroke="rgb(0,0,0)" stroke-width="0.0" fill="rgb(85,85,85)" stroke-linecap="butt" stroke-miterlimit="10.0"><path d="M 135.1504,80.2534 c 0.0000,-1.5590 -1.2638,-2.8229 -2.8229 -2.8229c -1.5590,-0.0000 -2.8229,1.2638 -2.8229 2.8229c -0.0000,1.5590 1.2638,2.8229 2.8229 2.8229c 1.5590,0.0000 2.8229,-1.2638 2.8229 -2.8229Z"/></g><defs></defs><g stroke-linejoin="miter" stroke-opacity="0.0" fill-opacity="0.1" stroke="rgb(0,0,0)" stroke-width="0.0" fill="rgb(85,85,85)" stroke-linecap="butt" stroke-miterlimit="10.0"><path d="M 73.0346,97.2676 c 0.0000,-1.5590 -1.2638,-2.8229 -2.8229 -2.8229c -1.5590,-0.0000 -2.8229,1.2638 -2.8229 2.8229c -0.0000,1.5590 1.2638,2.8229 2.8229 2.8229c 1.5590,0.0000 2.8229,-1.2638 2.8229 -2.8229Z"/></g><defs></defs><g stroke-linejoin="miter" stroke-opacity="0.0" fill-opacity="0.1" stroke="rgb(0,0,0)" stroke-width="0.0" fill="rgb(85,85,85)" stroke-linecap="butt" stroke-miterlimit="10.0"><path d="M 87.3948,108.1237 c 0.0000,-1.5590 -1.2638,-2.8229 -2.8229 -2.8229c -1.5590,-0.0000 -2.8229,1.2638 -2.8229 2.8229c -0.0000,1.5590 1.2638,2.8229 2.8229 2.8229c 1.5590,0.0000 2.8229,-1.2638 2.8229 -2.8229Z"/></g><defs></defs><g stroke-linejoin="miter" stroke-opacity="0.0" fill-opacity="0.1" stroke="rgb(0,0,0)" stroke-width="0.0" fill="rgb(85,85,85)" stroke-linecap="butt" stroke-miterlimit="10.0"><path d="M 104.1345,80.3406 c 0.0000,-1.5590 -1.2638,-2.8229 -2.8229 -2.8229c -1.5590,-0.0000 -2.8229,1.2638 -2.8229 2.8229c -0.0000,1.5590 1.2638,2.8229 2.8229 2.8229c 1.5590,0.0000 2.8229,-1.2638 2.8229 -2.8229Z"/></g><defs></defs><g stroke-linejoin="miter" stroke-opacity="0.0" fill-opacity="0.1" stroke="rgb(0,0,0)" stroke-width="0.0" fill="rgb(85,85,85)" stroke-linecap="butt" stroke-miterlimit="10.0"><path d="M 125.5409,95.9165 c 0.0000,-1.5590 -1.2638,-2.8229 -2.8229 -2.8229c -1.5590,-0.0000 -2.8229,1.2638 -2.8229 2.8229c -0.0000,1.5590 1.2638,2.8229 2.8229 2.8229c 1.5590,0.0000 2.8229,-1.2638 2.8229 -2.8229Z"/></g><defs></defs><g stroke-linejoin="miter" stroke-opacity="0.0" fill-opacity="0.1" stroke="rgb(0,0,0)" stroke-width="0.0" fill="rgb(85,85,85)" stroke-linecap="butt" stroke-miterlimit="10.0"><path d="M 60.7622,120.0549 c 0.0000,-1.5590 -1.2638,-2.8229 -2.8229 -2.8229c -1.5590,-0.0000 -2.8229,1.2638 -2.8229 2.8229c -0.0000,1.5590 1.2638,2.8229 2.8229 2.8229c 1.5590,0.0000 2.8229,-1.2638 2.8229 -2.8229Z"/></g><defs></defs><g stroke-linejoin="miter" stroke-opacity="0.0" fill-opacity="0.1" stroke="rgb(0,0,0)" stroke-width="0.0" fill="rgb(85,85,85)" stroke-linecap="butt" stroke-miterlimit="10.0"><path d="M 38.4760,160.8660 c 0.0000,-1.5590 -1.2638,-2.8229 -2.8229 -2.8229c -1.5590,-0.0000 -2.8229,1.2638 -2.8229 2.8229c -0.0000,1.5590 1.2638,2.8229 2.8229 2.8229c 1.5590,0.0000 2.8229,-1.2638 2.8229 -2.8229Z"/></g><defs></defs><g stroke-linejoin="miter" stroke-opacity="0.0" fill-opacity="0.1" stroke="rgb(0,0,0)" stroke-width="0.0" fill="rgb(85,85,85)" stroke-linecap="butt" stroke-miterlimit="10.0"><path d="M 141.6760,58.0165 c 0.0000,-1.5590 -1.2638,-2.8229 -2.8229 -2.8229c -1.5590,-0.0000 -2.8229,1.2638 -2.8229 2.8229c -0.0000,1.5590 1.2638,2.8229 2.8229 2.8229c 1.5590,0.0000 2.8229,-1.2638 2.8229 -2.8229Z"/></g><defs></defs><g stroke-linejoin="miter" stroke-opacity="0.0" fill-opacity="0.1" stroke="rgb(0,0,0)" stroke-width="0.0" fill="rgb(85,85,85)" stroke-linecap="butt" stroke-miterlimit="10.0"><path d="M 99.2947,83.6190 c 0.0000,-1.5590 -1.2638,-2.8229 -2.8229 -2.8229c -1.5590,-0.0000 -2.8229,1.2638 -2.8229 2.8229c -0.0000,1.5590 1.2638,2.8229 2.8229 2.8229c 1.5590,0.0000 2.8229,-1.2638 2.8229 -2.8229Z"/></g><defs></defs><g stroke-linejoin="miter" stroke-opacity="0.0" fill-opacity="0.1" stroke="rgb(0,0,0)" stroke-width="0.0" fill="rgb(85,85,85)" stroke-linecap="butt" stroke-miterlimit="10.0"><path d="M 95.9487,115.2134 c 0.0000,-1.5590 -1.2638,-2.8229 -2.8229 -2.8229c -1.5590,-0.0000 -2.8229,1.2638 -2.8229 2.8229c -0.0000,1.5590 1.2638,2.8229 2.8229 2.8229c 1.5590,0.0000 2.8229,-1.2638 2.8229 -2.8229Z"/></g><defs></defs><g stroke-linejoin="miter" stroke-opacity="0.0" fill-opacity="0.1" stroke="rgb(0,0,0)" stroke-width="0.0" fill="rgb(85,85,85)" stroke-linecap="butt" stroke-miterlimit="10.0"><path d="M 116.7177,72.4052 c 0.0000,-1.5590 -1.2638,-2.8229 -2.8229 -2.8229c -1.5590,-0.0000 -2.8229,1.2638 -2.8229 2.8229c -0.0000,1.5590 1.2638,2.8229 2.8229 2.8229c 1.5590,0.0000 2.8229,-1.2638 2.8229 -2.8229Z"/></g><defs></defs><g stroke-linejoin="miter" stroke-opacity="0.0" fill-opacity="0.1" stroke="rgb(0,0,0)" stroke-width="0.0" fill="rgb(85,85,85)" stroke-linecap="butt" stroke-miterlimit="10.0"><path d="M 112.2843,78.5949 c 0.0000,-1.5590 -1.2638,-2.8229 -2.8229 -2.8229c -1.5590,-0.0000 -2.8229,1.2638 -2.8229 2.8229c -0.0000,1.5590 1.2638,2.8229 2.8229 2.8229c 1.5590,0.0000 2.8229,-1.2638 2.8229 -2.8229Z"/></g><defs></defs><g stroke-linejoin="miter" stroke-opacity="0.0" fill-opacity="0.1" stroke="rgb(0,0,0)" stroke-width="0.0" fill="rgb(85,85,85)" stroke-linecap="butt" stroke-miterlimit="10.0"><path d="M 76.7095,100.8114 c 0.0000,-1.5590 -1.2638,-2.8229 -2.8229 -2.8229c -1.5590,-0.0000 -2.8229,1.2638 -2.8229 2.8229c -0.0000,1.5590 1.2638,2.8229 2.8229 2.8229c 1.5590,0.0000 2.8229,-1.2638 2.8229 -2.8229Z"/></g><defs></defs><g stroke-linejoin="miter" stroke-opacity="0.0" fill-opacity="0.1" stroke="rgb(0,0,0)" stroke-width="0.0" fill="rgb(85,85,85)" stroke-linecap="butt" stroke-miterlimit="10.0"><path d="M 96.9002,102.4249 c 0.0000,-1.5590 -1.2638,-2.8229 -2.8229 -2.8229c -1.5590,-0.0000 -2.8229,1.2638 -2.8229 2.8229c -0.0000,1.5590 1.2638,2.8229 2.8229 2.8229c 1.5590,0.0000 2.8229,-1.2638 2.8229 -2.8229Z"/></g><defs></defs><g stroke-linejoin="miter" stroke-opacity="0.0" fill-opacity="0.1" stroke="rgb(0,0,0)" stroke-width="0.0" fill="rgb(85,85,85)" stroke-linecap="butt" stroke-miterlimit="10.0"><path d="M 62.6152,101.5787 c 0.0000,-1.5590 -1.2638,-2.8229 -2.8229 -2.8229c -1.5590,-0.0000 -2.8229,1.2638 -2.8229 2.8229c -0.0000,1.5590 1.2638,2.8229 2.8229 2.8229c 1.5590,0.0000 2.8229,-1.2638 2.8229 -2.8229Z"/></g><defs></defs><g stroke-linejoin="miter" stroke-opacity="0.0" fill-opacity="0.1" stroke="rgb(0,0,0)" stroke-width="0.0" fill="rgb(85,85,85)" stroke-linecap="butt" stroke-miterlimit="10.0"><path d="M 113.0559,102.5738 c 0.0000,-1.5590 -1.2638,-2.8229 -2.8229 -2.8229c -1.5590,-0.0000 -2.8229,1.2638 -2.8229 2.8229c -0.0000,1.5590 1.2638,2.8229 2.8229 2.8229c 1.5590,0.0000 2.8229,-1.2638 2.8229 -2.8229Z"/></g><defs></defs><g stroke-linejoin="miter" stroke-opacity="0.0" fill-opacity="0.1" stroke="rgb(0,0,0)" stroke-width="0.0" fill="rgb(85,85,85)" stroke-linecap="butt" stroke-miterlimit="10.0"><path d="M 108.5136,85.8209 c 0.0000,-1.5590 -1.2638,-2.8229 -2.8229 -2.8229c -1.5590,-0.0000 -2.8229,1.2638 -2.8229 2.8229c -0.0000,1.5590 1.2638,2.8229 2.8229 2.8229c 1.5590,0.0000 2.8229,-1.2638 2.8229 -2.8229Z"/></g><defs></defs><g stroke-linejoin="miter" stroke-opacity="0.0" fill-opacity="0.1" stroke="rgb(0,0,0)" stroke-width="0.0" fill="rgb(85,85,85)" stroke-linecap="butt" stroke-miterlimit="10.0"><path d="M 115.2244,68.3841 c 0.0000,-1.5590 -1.2638,-2.8229 -2.8229 -2.8229c -1.5590,-0.0000 -2.8229,1.2638 -2.8229 2.8229c -0.0000,1.5590 1.2638,2.8229 2.8229 2.8229c 1.5590,0.0000 2.8229,-1.2638 2.8229 -2.8229Z"/></g><defs></defs><g stroke-linejoin="miter" stroke-opacity="0.0" fill-opacity="0.1" stroke="rgb(0,0,0)" stroke-width="0.0" fill="rgb(85,85,85)" stroke-linecap="butt" stroke-miterlimit="10.0"><path d="M 96.4516,96.2641 c 0.0000,-1.5590 -1.2638,-2.8229 -2.8229 -2.8229c -1.5590,-0.0000 -2.8229,1.2638 -2.8229 2.8229c -0.0000,1.5590 1.2638,2.8229 2.8229 2.8229c 1.5590,0.0000 2.8229,-1.2638 2.8229 -2.8229Z"/></g><defs></defs><g stroke-linejoin="miter" stroke-opacity="0.0" fill-opacity="0.1" stroke="rgb(0,0,0)" stroke-width="0.0" fill="rgb(85,85,85)" stroke-linecap="butt" stroke-miterlimit="10.0"><path d="M 74.2046,110.9435 c 0.0000,-1.5590 -1.2638,-2.8229 -2.8229 -2.8229c -1.5590,-0.0000 -2.8229,1.2638 -2.8229 2.8229c -0.0000,1.5590 1.2638,2.8229 2.8229 2.8229c 1.5590,0.0000 2.8229,-1.2638 2.8229 -2.8229Z"/></g><defs></defs><g stroke-linejoin="miter" stroke-opacity="0.0" fill-opacity="0.1" stroke="rgb(0,0,0)" stroke-width="0.0" fill="rgb(85,85,85)" stroke-linecap="butt" stroke-miterlimit="10.0"><path d="M 85.2373,119.7754 c 0.0000,-1.5590 -1.2638,-2.8229 -2.8229 -2.8229c -1.5590,-0.0000 -2.8229,1.2638 -2.8229 2.8229c -0.0000,1.5590 1.2638,2.8229 2.8229 2.8229c 1.5590,0.0000 2.8229,-1.2638 2.8229 -2.8229Z"/></g><defs></defs><g stroke-linejoin="miter" stroke-opacity="0.0" fill-opacity="0.1" stroke="rgb(0,0,0)" stroke-width="0.0" fill="rgb(85,85,85)" stroke-linecap="butt" stroke-miterlimit="10.0"><path d="M 124.1574,64.2601 c 0.0000,-1.5590 -1.2638,-2.8229 -2.8229 -2.8229c -1.5590,-0.0000 -2.8229,1.2638 -2.8229 2.8229c -0.0000,1.5590 1.2638,2.8229 2.8229 2.8229c 1.5590,0.0000 2.8229,-1.2638 2.8229 -2.8229Z"/></g><defs></defs><g stroke-linejoin="miter" stroke-opacity="0.0" fill-opacity="0.1" stroke="rgb(0,0,0)" stroke-width="0.0" fill="rgb(85,85,85)" stroke-linecap="butt" stroke-miterlimit="10.0"><path d="M 111.0044,60.6043 c 0.0000,-1.5590 -1.2638,-2.8229 -2.8229 -2.8229c -1.5590,-0.0000 -2.8229,1.2638 -2.8229 2.8229c -0.0000,1.5590 1.2638,2.8229 2.8229 2.8229c 1.5590,0.0000 2.8229,-1.2638 2.8229 -2.8229Z"/></g><defs></defs><g stroke-linejoin="miter" stroke-opacity="0.0" fill-opacity="0.1" stroke="rgb(0,0,0)" stroke-width="0.0" fill="rgb(85,85,85)" stroke-linecap="butt" stroke-miterlimit="10.0"><path d="M 100.9221,115.8105 c 0.0000,-1.5590 -1.2638,-2.8229 -2.8229 -2.8229c -1.5590,-0.0000 -2.8229,1.2638 -2.8229 2.8229c -0.0000,1.5590 1.2638,2.8229 2.8229 2.8229c 1.5590,0.0000 2.8229,-1.2638 2.8229 -2.8229Z"/></g><defs></defs><g stroke-linejoin="miter" stroke-opacity="0.0" fill-opacity="0.1" stroke="rgb(0,0,0)" stroke-width="0.0" fill="rgb(85,85,85)" stroke-linecap="butt" stroke-miterlimit="10.0"><path d="M 99.2179,102.2121 c 0.0000,-1.5590 -1.2638,-2.8229 -2.8229 -2.8229c -1.5590,-0.0000 -2.8229,1.2638 -2.8229 2.8229c -0.0000,1.5590 1.2638,2.8229 2.8229 2.8229c 1.5590,0.0000 2.8229,-1.2638 2.8229 -2.8229Z"/></g><defs></defs><g stroke-linejoin="miter" stroke-opacity="0.0" fill-opacity="0.1" stroke="rgb(0,0,0)" stroke-width="0.0" fill="rgb(85,85,85)" stroke-linecap="butt" stroke-miterlimit="10.0"><path d="M 124.5127,66.2930 c 0.0000,-1.5590 -1.2638,-2.8229 -2.8229 -2.8229c -1.5590,-0.0000 -2.8229,1.2638 -2.8229 2.8229c -0.0000,1.5590 1.2638,2.8229 2.8229 2.8229c 1.5590,0.0000 2.8229,-1.2638 2.8229 -2.8229Z"/></g><defs></defs><g stroke-linejoin="miter" stroke-opacity="0.0" fill-opacity="0.1" stroke="rgb(0,0,0)" stroke-width="0.0" fill="rgb(85,85,85)" stroke-linecap="butt" stroke-miterlimit="10.0"><path d="M 104.0675,84.3244 c 0.0000,-1.5590 -1.2638,-2.8229 -2.8229 -2.8229c -1.5590,-0.0000 -2.8229,1.2638 -2.8229 2.8229c -0.0000,1.5590 1.2638,2.8229 2.8229 2.8229c 1.5590,0.0000 2.8229,-1.2638 2.8229 -2.8229Z"/></g><defs></defs><g stroke-linejoin="miter" stroke-opacity="0.0" fill-opacity="0.1" stroke="rgb(0,0,0)" stroke-width="0.0" fill="rgb(85,85,85)" stroke-linecap="butt" stroke-miterlimit="10.0"><path d="M 121.0041,80.2273 c 0.0000,-1.5590 -1.2638,-2.8229 -2.8229 -2.8229c -1.5590,-0.0000 -2.8229,1.2638 -2.8229 2.8229c -0.0000,1.5590 1.2638,2.8229 2.8229 2.8229c 1.5590,0.0000 2.8229,-1.2638 2.8229 -2.8229Z"/></g><defs></defs><g stroke-linejoin="miter" stroke-opacity="0.0" fill-opacity="0.1" stroke="rgb(0,0,0)" stroke-width="0.0" fill="rgb(85,85,85)" stroke-linecap="butt" stroke-miterlimit="10.0"><path d="M 108.2162,78.2977 c 0.0000,-1.5590 -1.2638,-2.8229 -2.8229 -2.8229c -1.5590,-0.0000 -2.8229,1.2638 -2.8229 2.8229c -0.0000,1.5590 1.2638,2.8229 2.8229 2.8229c 1.5590,0.0000 2.8229,-1.2638 2.8229 -2.8229Z"/></g><defs></defs><g stroke-linejoin="miter" stroke-opacity="0.0" fill-opacity="0.1" stroke="rgb(0,0,0)" stroke-width="0.0" fill="rgb(85,85,85)" stroke-linecap="butt" stroke-miterlimit="10.0"><path d="M 112.2090,99.1844 c 0.0000,-1.5590 -1.2638,-2.8229 -2.8229 -2.8229c -1.5590,-0.0000 -2.8229,1.2638 -2.8229 2.8229c -0.0000,1.5590 1.2638,2.8229 2.8229 2.8229c 1.5590,0.0000 2.8229,-1.2638 2.8229 -2.8229Z"/></g><defs></defs><g stroke-linejoin="miter" stroke-opacity="0.0" fill-opacity="0.1" stroke="rgb(0,0,0)" stroke-width="0.0" fill="rgb(85,85,85)" stroke-linecap="butt" stroke-miterlimit="10.0"><path d="M 112.7647,77.3950 c 0.0000,-1.5590 -1.2638,-2.8229 -2.8229 -2.8229c -1.5590,-0.0000 -2.8229,1.2638 -2.8229 2.8229c -0.0000,1.5590 1.2638,2.8229 2.8229 2.8229c 1.5590,0.0000 2.8229,-1.2638 2.8229 -2.8229Z"/></g><defs></defs><g stroke-linejoin="miter" stroke-opacity="0.0" fill-opacity="0.1" stroke="rgb(0,0,0)" stroke-width="0.0" fill="rgb(85,85,85)" stroke-linecap="butt" stroke-miterlimit="10.0"><path d="M 147.4524,28.9337 c 0.0000,-1.5590 -1.2638,-2.8229 -2.8229 -2.8229c -1.5590,-0.0000 -2.8229,1.2638 -2.8229 2.8229c -0.0000,1.5590 1.2638,2.8229 2.8229 2.8229c 1.5590,0.0000 2.8229,-1.2638 2.8229 -2.8229Z"/></g><defs></defs><g stroke-linejoin="miter" stroke-opacity="0.0" fill-opacity="0.1" stroke="rgb(0,0,0)" stroke-width="0.0" fill="rgb(85,85,85)" stroke-linecap="butt" stroke-miterlimit="10.0"><path d="M 101.4916,97.1229 c 0.0000,-1.5590 -1.2638,-2.8229 -2.8229 -2.8229c -1.5590,-0.0000 -2.8229,1.2638 -2.8229 2.8229c -0.0000,1.5590 1.2638,2.8229 2.8229 2.8229c 1.5590,0.0000 2.8229,-1.2638 2.8229 -2.8229Z"/></g><defs></defs><g stroke-linejoin="miter" stroke-opacity="0.0" fill-opacity="0.1" stroke="rgb(0,0,0)" stroke-width="0.0" fill="rgb(85,85,85)" stroke-linecap="butt" stroke-miterlimit="10.0"><path d="M 54.5210,149.2971 c 0.0000,-1.5590 -1.2638,-2.8229 -2.8229 -2.8229c -1.5590,-0.0000 -2.8229,1.2638 -2.8229 2.8229c -0.0000,1.5590 1.2638,2.8229 2.8229 2.8229c 1.5590,0.0000 2.8229,-1.2638 2.8229 -2.8229Z"/></g><defs></defs><g stroke-linejoin="miter" stroke-opacity="0.0" fill-opacity="0.1" stroke="rgb(0,0,0)" stroke-width="0.0" fill="rgb(85,85,85)" stroke-linecap="butt" stroke-miterlimit="10.0"><path d="M 107.2235,79.9405 c 0.0000,-1.5590 -1.2638,-2.8229 -2.8229 -2.8229c -1.5590,-0.0000 -2.8229,1.2638 -2.8229 2.8229c -0.0000,1.5590 1.2638,2.8229 2.8229 2.8229c 1.5590,0.0000 2.8229,-1.2638 2.8229 -2.8229Z"/></g><defs></defs><g stroke-linejoin="miter" stroke-opacity="0.0" fill-opacity="0.1" stroke="rgb(0,0,0)" stroke-width="0.0" fill="rgb(85,85,85)" stroke-linecap="butt" stroke-miterlimit="10.0"><path d="M 79.8052,135.1494 c 0.0000,-1.5590 -1.2638,-2.8229 -2.8229 -2.8229c -1.5590,-0.0000 -2.8229,1.2638 -2.8229 2.8229c -0.0000,1.5590 1.2638,2.8229 2.8229 2.8229c 1.5590,0.0000 2.8229,-1.2638 2.8229 -2.8229Z"/></g><defs></defs><g stroke-linejoin="miter" stroke-opacity="0.0" fill-opacity="0.1" stroke="rgb(0,0,0)" stroke-width="0.0" fill="rgb(85,85,85)" stroke-linecap="butt" stroke-miterlimit="10.0"><path d="M 78.4897,108.1930 c 0.0000,-1.5590 -1.2638,-2.8229 -2.8229 -2.8229c -1.5590,-0.0000 -2.8229,1.2638 -2.8229 2.8229c -0.0000,1.5590 1.2638,2.8229 2.8229 2.8229c 1.5590,0.0000 2.8229,-1.2638 2.8229 -2.8229Z"/></g><defs></defs><g stroke-linejoin="miter" stroke-opacity="0.0" fill-opacity="0.1" stroke="rgb(0,0,0)" stroke-width="0.0" fill="rgb(85,85,85)" stroke-linecap="butt" stroke-miterlimit="10.0"><path d="M 106.0327,83.9691 c 0.0000,-1.5590 -1.2638,-2.8229 -2.8229 -2.8229c -1.5590,-0.0000 -2.8229,1.2638 -2.8229 2.8229c -0.0000,1.5590 1.2638,2.8229 2.8229 2.8229c 1.5590,0.0000 2.8229,-1.2638 2.8229 -2.8229Z"/></g><defs></defs><g stroke-linejoin="miter" stroke-opacity="0.0" fill-opacity="0.1" stroke="rgb(0,0,0)" stroke-width="0.0" fill="rgb(85,85,85)" stroke-linecap="butt" stroke-miterlimit="10.0"><path d="M 145.9451,74.8809 c 0.0000,-1.5590 -1.2638,-2.8229 -2.8229 -2.8229c -1.5590,-0.0000 -2.8229,1.2638 -2.8229 2.8229c -0.0000,1.5590 1.2638,2.8229 2.8229 2.8229c 1.5590,0.0000 2.8229,-1.2638 2.8229 -2.8229Z"/></g><defs></defs><g stroke-linejoin="miter" stroke-opacity="0.0" fill-opacity="0.1" stroke="rgb(0,0,0)" stroke-width="0.0" fill="rgb(85,85,85)" stroke-linecap="butt" stroke-miterlimit="10.0"><path d="M 143.9878,51.9207 c 0.0000,-1.5590 -1.2638,-2.8229 -2.8229 -2.8229c -1.5590,-0.0000 -2.8229,1.2638 -2.8229 2.8229c -0.0000,1.5590 1.2638,2.8229 2.8229 2.8229c 1.5590,0.0000 2.8229,-1.2638 2.8229 -2.8229Z"/></g><defs></defs><g stroke-linejoin="miter" stroke-opacity="0.0" fill-opacity="0.1" stroke="rgb(0,0,0)" stroke-width="0.0" fill="rgb(85,85,85)" stroke-linecap="butt" stroke-miterlimit="10.0"><path d="M 138.1286,73.2814 c 0.0000,-1.5590 -1.2638,-2.8229 -2.8229 -2.8229c -1.5590,-0.0000 -2.8229,1.2638 -2.8229 2.8229c -0.0000,1.5590 1.2638,2.8229 2.8229 2.8229c 1.5590,0.0000 2.8229,-1.2638 2.8229 -2.8229Z"/></g><defs></defs><g stroke-linejoin="miter" stroke-opacity="0.0" fill-opacity="0.1" stroke="rgb(0,0,0)" stroke-width="0.0" fill="rgb(85,85,85)" stroke-linecap="butt" stroke-miterlimit="10.0"><path d="M 168.4249,42.7312 c 0.0000,-1.5590 -1.2638,-2.8229 -2.8229 -2.8229c -1.5590,-0.0000 -2.8229,1.2638 -2.8229 2.8229c -0.0000,1.5590 1.2638,2.8229 2.8229 2.8229c 1.5590,0.0000 2.8229,-1.2638 2.8229 -2.8229Z"/></g><defs></defs><g stroke-linejoin="miter" stroke-opacity="0.0" fill-opacity="0.1" stroke="rgb(0,0,0)" stroke-width="0.0" fill="rgb(85,85,85)" stroke-linecap="butt" stroke-miterlimit="10.0"><path d="M 60.4893,122.9341 c 0.0000,-1.5590 -1.2638,-2.8229 -2.8229 -2.8229c -1.5590,-0.0000 -2.8229,1.2638 -2.8229 2.8229c -0.0000,1.5590 1.2638,2.8229 2.8229 2.8229c 1.5590,0.0000 2.8229,-1.2638 2.8229 -2.8229Z"/></g><defs></defs><g stroke-linejoin="miter" stroke-opacity="0.0" fill-opacity="0.1" stroke="rgb(0,0,0)" stroke-width="0.0" fill="rgb(85,85,85)" stroke-linecap="butt" stroke-miterlimit="10.0"><path d="M 123.7157,88.0305 c 0.0000,-1.5590 -1.2638,-2.8229 -2.8229 -2.8229c -1.5590,-0.0000 -2.8229,1.2638 -2.8229 2.8229c -0.0000,1.5590 1.2638,2.8229 2.8229 2.8229c 1.5590,0.0000 2.8229,-1.2638 2.8229 -2.8229Z"/></g><defs></defs><g stroke-linejoin="miter" stroke-opacity="0.0" fill-opacity="0.1" stroke="rgb(0,0,0)" stroke-width="0.0" fill="rgb(85,85,85)" stroke-linecap="butt" stroke-miterlimit="10.0"><path d="M 125.9789,66.4603 c 0.0000,-1.5590 -1.2638,-2.8229 -2.8229 -2.8229c -1.5590,-0.0000 -2.8229,1.2638 -2.8229 2.8229c -0.0000,1.5590 1.2638,2.8229 2.8229 2.8229c 1.5590,0.0000 2.8229,-1.2638 2.8229 -2.8229Z"/></g><defs></defs><g stroke-linejoin="miter" stroke-opacity="0.0" fill-opacity="0.1" stroke="rgb(0,0,0)" stroke-width="0.0" fill="rgb(85,85,85)" stroke-linecap="butt" stroke-miterlimit="10.0"><path d="M 139.1600,82.7385 c 0.0000,-1.5590 -1.2638,-2.8229 -2.8229 -2.8229c -1.5590,-0.0000 -2.8229,1.2638 -2.8229 2.8229c -0.0000,1.5590 1.2638,2.8229 2.8229 2.8229c 1.5590,0.0000 2.8229,-1.2638 2.8229 -2.8229Z"/></g><defs></defs><g stroke-linejoin="miter" stroke-opacity="0.0" fill-opacity="0.1" stroke="rgb(0,0,0)" stroke-width="0.0" fill="rgb(85,85,85)" stroke-linecap="butt" stroke-miterlimit="10.0"><path d="M 88.8509,98.1244 c 0.0000,-1.5590 -1.2638,-2.8229 -2.8229 -2.8229c -1.5590,-0.0000 -2.8229,1.2638 -2.8229 2.8229c -0.0000,1.5590 1.2638,2.8229 2.8229 2.8229c 1.5590,0.0000 2.8229,-1.2638 2.8229 -2.8229Z"/></g><defs></defs><g stroke-linejoin="miter" stroke-opacity="0.0" fill-opacity="0.1" stroke="rgb(0,0,0)" stroke-width="0.0" fill="rgb(85,85,85)" stroke-linecap="butt" stroke-miterlimit="10.0"><path d="M 122.6297,61.5930 c 0.0000,-1.5590 -1.2638,-2.8229 -2.8229 -2.8229c -1.5590,-0.0000 -2.8229,1.2638 -2.8229 2.8229c -0.0000,1.5590 1.2638,2.8229 2.8229 2.8229c 1.5590,0.0000 2.8229,-1.2638 2.8229 -2.8229Z"/></g><defs></defs><g stroke-linejoin="miter" stroke-opacity="0.0" fill-opacity="0.1" stroke="rgb(0,0,0)" stroke-width="0.0" fill="rgb(85,85,85)" stroke-linecap="butt" stroke-miterlimit="10.0"><path d="M 80.9688,99.5093 c 0.0000,-1.5590 -1.2638,-2.8229 -2.8229 -2.8229c -1.5590,-0.0000 -2.8229,1.2638 -2.8229 2.8229c -0.0000,1.5590 1.2638,2.8229 2.8229 2.8229c 1.5590,0.0000 2.8229,-1.2638 2.8229 -2.8229Z"/></g><defs></defs><g stroke-linejoin="miter" stroke-opacity="0.0" fill-opacity="0.1" stroke="rgb(0,0,0)" stroke-width="0.0" fill="rgb(85,85,85)" stroke-linecap="butt" stroke-miterlimit="10.0"><path d="M 116.9321,97.6920 c 0.0000,-1.5590 -1.2638,-2.8229 -2.8229 -2.8229c -1.5590,-0.0000 -2.8229,1.2638 -2.8229 2.8229c -0.0000,1.5590 1.2638,2.8229 2.8229 2.8229c 1.5590,0.0000 2.8229,-1.2638 2.8229 -2.8229Z"/></g><defs></defs><g stroke-linejoin="miter" stroke-opacity="0.0" fill-opacity="0.1" stroke="rgb(0,0,0)" stroke-width="0.0" fill="rgb(85,85,85)" stroke-linecap="butt" stroke-miterlimit="10.0"><path d="M 162.6323,46.8675 c 0.0000,-1.5590 -1.2638,-2.8229 -2.8229 -2.8229c -1.5590,-0.0000 -2.8229,1.2638 -2.8229 2.8229c -0.0000,1.5590 1.2638,2.8229 2.8229 2.8229c 1.5590,0.0000 2.8229,-1.2638 2.8229 -2.8229Z"/></g><defs></defs><g stroke-linejoin="miter" stroke-opacity="0.0" fill-opacity="0.1" stroke="rgb(0,0,0)" stroke-width="0.0" fill="rgb(85,85,85)" stroke-linecap="butt" stroke-miterlimit="10.0"><path d="M 105.2207,95.2135 c 0.0000,-1.5590 -1.2638,-2.8229 -2.8229 -2.8229c -1.5590,-0.0000 -2.8229,1.2638 -2.8229 2.8229c -0.0000,1.5590 1.2638,2.8229 2.8229 2.8229c 1.5590,0.0000 2.8229,-1.2638 2.8229 -2.8229Z"/></g><defs></defs><g stroke-linejoin="miter" stroke-opacity="0.0" fill-opacity="0.1" stroke="rgb(0,0,0)" stroke-width="0.0" fill="rgb(85,85,85)" stroke-linecap="butt" stroke-miterlimit="10.0"><path d="M 112.8456,80.7737 c 0.0000,-1.5590 -1.2638,-2.8229 -2.8229 -2.8229c -1.5590,-0.0000 -2.8229,1.2638 -2.8229 2.8229c -0.0000,1.5590 1.2638,2.8229 2.8229 2.8229c 1.5590,0.0000 2.8229,-1.2638 2.8229 -2.8229Z"/></g><defs></defs><g stroke-linejoin="miter" stroke-opacity="0.0" fill-opacity="0.1" stroke="rgb(0,0,0)" stroke-width="0.0" fill="rgb(85,85,85)" stroke-linecap="butt" stroke-miterlimit="10.0"><path d="M 95.6353,118.3397 c 0.0000,-1.5590 -1.2638,-2.8229 -2.8229 -2.8229c -1.5590,-0.0000 -2.8229,1.2638 -2.8229 2.8229c -0.0000,1.5590 1.2638,2.8229 2.8229 2.8229c 1.5590,0.0000 2.8229,-1.2638 2.8229 -2.8229Z"/></g><defs></defs><g stroke-linejoin="miter" stroke-opacity="0.0" fill-opacity="0.1" stroke="rgb(0,0,0)" stroke-width="0.0" fill="rgb(85,85,85)" stroke-linecap="butt" stroke-miterlimit="10.0"><path d="M 101.8501,94.2838 c 0.0000,-1.5590 -1.2638,-2.8229 -2.8229 -2.8229c -1.5590,-0.0000 -2.8229,1.2638 -2.8229 2.8229c -0.0000,1.5590 1.2638,2.8229 2.8229 2.8229c 1.5590,0.0000 2.8229,-1.2638 2.8229 -2.8229Z"/></g><defs></defs><g stroke-linejoin="miter" stroke-opacity="0.0" fill-opacity="0.1" stroke="rgb(0,0,0)" stroke-width="0.0" fill="rgb(85,85,85)" stroke-linecap="butt" stroke-miterlimit="10.0"><path d="M 86.5724,123.2538 c 0.0000,-1.5590 -1.2638,-2.8229 -2.8229 -2.8229c -1.5590,-0.0000 -2.8229,1.2638 -2.8229 2.8229c -0.0000,1.5590 1.2638,2.8229 2.8229 2.8229c 1.5590,0.0000 2.8229,-1.2638 2.8229 -2.8229Z"/></g><defs></defs><g stroke-linejoin="miter" stroke-opacity="0.0" fill-opacity="0.1" stroke="rgb(0,0,0)" stroke-width="0.0" fill="rgb(85,85,85)" stroke-linecap="butt" stroke-miterlimit="10.0"><path d="M 95.4999,98.6858 c 0.0000,-1.5590 -1.2638,-2.8229 -2.8229 -2.8229c -1.5590,-0.0000 -2.8229,1.2638 -2.8229 2.8229c -0.0000,1.5590 1.2638,2.8229 2.8229 2.8229c 1.5590,0.0000 2.8229,-1.2638 2.8229 -2.8229Z"/></g><defs></defs><g stroke-linejoin="miter" stroke-opacity="0.0" fill-opacity="0.1" stroke="rgb(0,0,0)" stroke-width="0.0" fill="rgb(85,85,85)" stroke-linecap="butt" stroke-miterlimit="10.0"><path d="M 132.1733,66.5909 c 0.0000,-1.5590 -1.2638,-2.8229 -2.8229 -2.8229c -1.5590,-0.0000 -2.8229,1.2638 -2.8229 2.8229c -0.0000,1.5590 1.2638,2.8229 2.8229 2.8229c 1.5590,0.0000 2.8229,-1.2638 2.8229 -2.8229Z"/></g><defs></defs><g stroke-linejoin="miter" stroke-opacity="0.0" fill-opacity="0.1" stroke="rgb(0,0,0)" stroke-width="0.0" fill="rgb(85,85,85)" stroke-linecap="butt" stroke-miterlimit="10.0"><path d="M 146.7342,45.0331 c 0.0000,-1.5590 -1.2638,-2.8229 -2.8229 -2.8229c -1.5590,-0.0000 -2.8229,1.2638 -2.8229 2.8229c -0.0000,1.5590 1.2638,2.8229 2.8229 2.8229c 1.5590,0.0000 2.8229,-1.2638 2.8229 -2.8229Z"/></g><defs></defs><g stroke-linejoin="miter" stroke-opacity="0.0" fill-opacity="0.1" stroke="rgb(0,0,0)" stroke-width="0.0" fill="rgb(85,85,85)" stroke-linecap="butt" stroke-miterlimit="10.0"><path d="M 89.6203,94.7284 c 0.0000,-1.5590 -1.2638,-2.8229 -2.8229 -2.8229c -1.5590,-0.0000 -2.8229,1.2638 -2.8229 2.8229c -0.0000,1.5590 1.2638,2.8229 2.8229 2.8229c 1.5590,0.0000 2.8229,-1.2638 2.8229 -2.8229Z"/></g><defs></defs><g stroke-linejoin="miter" stroke-opacity="0.0" fill-opacity="0.1" stroke="rgb(0,0,0)" stroke-width="0.0" fill="rgb(85,85,85)" stroke-linecap="butt" stroke-miterlimit="10.0"><path d="M 127.9833,93.2959 c 0.0000,-1.5590 -1.2638,-2.8229 -2.8229 -2.8229c -1.5590,-0.0000 -2.8229,1.2638 -2.8229 2.8229c -0.0000,1.5590 1.2638,2.8229 2.8229 2.8229c 1.5590,0.0000 2.8229,-1.2638 2.8229 -2.8229Z"/></g><defs></defs><g stroke-linejoin="miter" stroke-opacity="0.0" fill-opacity="0.1" stroke="rgb(0,0,0)" stroke-width="0.0" fill="rgb(85,85,85)" stroke-linecap="butt" stroke-miterlimit="10.0"><path d="M 106.2706,118.0388 c 0.0000,-1.5590 -1.2638,-2.8229 -2.8229 -2.8229c -1.5590,-0.0000 -2.8229,1.2638 -2.8229 2.8229c -0.0000,1.5590 1.2638,2.8229 2.8229 2.8229c 1.5590,0.0000 2.8229,-1.2638 2.8229 -2.8229Z"/></g><defs></defs><g stroke-linejoin="miter" stroke-opacity="0.0" fill-opacity="0.1" stroke="rgb(0,0,0)" stroke-width="0.0" fill="rgb(85,85,85)" stroke-linecap="butt" stroke-miterlimit="10.0"><path d="M 130.9387,93.0084 c 0.0000,-1.5590 -1.2638,-2.8229 -2.8229 -2.8229c -1.5590,-0.0000 -2.8229,1.2638 -2.8229 2.8229c -0.0000,1.5590 1.2638,2.8229 2.8229 2.8229c 1.5590,0.0000 2.8229,-1.2638 2.8229 -2.8229Z"/></g><defs></defs><g stroke-linejoin="miter" stroke-opacity="0.0" fill-opacity="0.1" stroke="rgb(0,0,0)" stroke-width="0.0" fill="rgb(85,85,85)" stroke-linecap="butt" stroke-miterlimit="10.0"><path d="M 117.6937,85.3018 c 0.0000,-1.5590 -1.2638,-2.8229 -2.8229 -2.8229c -1.5590,-0.0000 -2.8229,1.2638 -2.8229 2.8229c -0.0000,1.5590 1.2638,2.8229 2.8229 2.8229c 1.5590,0.0000 2.8229,-1.2638 2.8229 -2.8229Z"/></g><defs></defs><g stroke-linejoin="miter" stroke-opacity="0.0" fill-opacity="0.1" stroke="rgb(0,0,0)" stroke-width="0.0" fill="rgb(85,85,85)" stroke-linecap="butt" stroke-miterlimit="10.0"><path d="M 139.6449,92.3472 c 0.0000,-1.5590 -1.2638,-2.8229 -2.8229 -2.8229c -1.5590,-0.0000 -2.8229,1.2638 -2.8229 2.8229c -0.0000,1.5590 1.2638,2.8229 2.8229 2.8229c 1.5590,0.0000 2.8229,-1.2638 2.8229 -2.8229Z"/></g><defs></defs><g stroke-linejoin="miter" stroke-opacity="0.0" fill-opacity="0.1" stroke="rgb(0,0,0)" stroke-width="0.0" fill="rgb(85,85,85)" stroke-linecap="butt" stroke-miterlimit="10.0"><path d="M 113.3600,100.4822 c 0.0000,-1.5590 -1.2638,-2.8229 -2.8229 -2.8229c -1.5590,-0.0000 -2.8229,1.2638 -2.8229 2.8229c -0.0000,1.5590 1.2638,2.8229 2.8229 2.8229c 1.5590,0.0000 2.8229,-1.2638 2.8229 -2.8229Z"/></g><defs></defs><g stroke-linejoin="miter" stroke-opacity="0.0" fill-opacity="0.1" stroke="rgb(0,0,0)" stroke-width="0.0" fill="rgb(85,85,85)" stroke-linecap="butt" stroke-miterlimit="10.0"><path d="M 137.0857,65.9042 c 0.0000,-1.5590 -1.2638,-2.8229 -2.8229 -2.8229c -1.5590,-0.0000 -2.8229,1.2638 -2.8229 2.8229c -0.0000,1.5590 1.2638,2.8229 2.8229 2.8229c 1.5590,0.0000 2.8229,-1.2638 2.8229 -2.8229Z"/></g><defs></defs><g stroke-linejoin="miter" stroke-opacity="0.0" fill-opacity="0.1" stroke="rgb(0,0,0)" stroke-width="0.0" fill="rgb(85,85,85)" stroke-linecap="butt" stroke-miterlimit="10.0"><path d="M 98.4794,95.6083 c 0.0000,-1.5590 -1.2638,-2.8229 -2.8229 -2.8229c -1.5590,-0.0000 -2.8229,1.2638 -2.8229 2.8229c -0.0000,1.5590 1.2638,2.8229 2.8229 2.8229c 1.5590,0.0000 2.8229,-1.2638 2.8229 -2.8229Z"/></g><defs></defs><g stroke-linejoin="miter" stroke-opacity="0.0" fill-opacity="0.1" stroke="rgb(0,0,0)" stroke-width="0.0" fill="rgb(85,85,85)" stroke-linecap="butt" stroke-miterlimit="10.0"><path d="M 99.5928,79.7854 c 0.0000,-1.5590 -1.2638,-2.8229 -2.8229 -2.8229c -1.5590,-0.0000 -2.8229,1.2638 -2.8229 2.8229c -0.0000,1.5590 1.2638,2.8229 2.8229 2.8229c 1.5590,0.0000 2.8229,-1.2638 2.8229 -2.8229Z"/></g><defs></defs><g stroke-linejoin="miter" stroke-opacity="0.0" fill-opacity="0.1" stroke="rgb(0,0,0)" stroke-width="0.0" fill="rgb(85,85,85)" stroke-linecap="butt" stroke-miterlimit="10.0"><path d="M 74.3697,139.7374 c 0.0000,-1.5590 -1.2638,-2.8229 -2.8229 -2.8229c -1.5590,-0.0000 -2.8229,1.2638 -2.8229 2.8229c -0.0000,1.5590 1.2638,2.8229 2.8229 2.8229c 1.5590,0.0000 2.8229,-1.2638 2.8229 -2.8229Z"/></g><defs></defs><g stroke-linejoin="miter" stroke-opacity="0.0" fill-opacity="0.1" stroke="rgb(0,0,0)" stroke-width="0.0" fill="rgb(85,85,85)" stroke-linecap="butt" stroke-miterlimit="10.0"><path d="M 138.6391,58.2856 c 0.0000,-1.5590 -1.2638,-2.8229 -2.8229 -2.8229c -1.5590,-0.0000 -2.8229,1.2638 -2.8229 2.8229c -0.0000,1.5590 1.2638,2.8229 2.8229 2.8229c 1.5590,0.0000 2.8229,-1.2638 2.8229 -2.8229Z"/></g><defs></defs><g stroke-linejoin="miter" stroke-opacity="0.0" fill-opacity="0.1" stroke="rgb(0,0,0)" stroke-width="0.0" fill="rgb(85,85,85)" stroke-linecap="butt" stroke-miterlimit="10.0"><path d="M 125.5651,54.6487 c 0.0000,-1.5590 -1.2638,-2.8229 -2.8229 -2.8229c -1.5590,-0.0000 -2.8229,1.2638 -2.8229 2.8229c -0.0000,1.5590 1.2638,2.8229 2.8229 2.8229c 1.5590,0.0000 2.8229,-1.2638 2.8229 -2.8229Z"/></g><defs></defs><g stroke-linejoin="miter" stroke-opacity="0.0" fill-opacity="0.1" stroke="rgb(0,0,0)" stroke-width="0.0" fill="rgb(85,85,85)" stroke-linecap="butt" stroke-miterlimit="10.0"><path d="M 111.8071,101.4520 c 0.0000,-1.5590 -1.2638,-2.8229 -2.8229 -2.8229c -1.5590,-0.0000 -2.8229,1.2638 -2.8229 2.8229c -0.0000,1.5590 1.2638,2.8229 2.8229 2.8229c 1.5590,0.0000 2.8229,-1.2638 2.8229 -2.8229Z"/></g><defs></defs><g stroke-linejoin="miter" stroke-opacity="0.0" fill-opacity="0.1" stroke="rgb(0,0,0)" stroke-width="0.0" fill="rgb(85,85,85)" stroke-linecap="butt" stroke-miterlimit="10.0"><path d="M 118.1460,61.2719 c 0.0000,-1.5590 -1.2638,-2.8229 -2.8229 -2.8229c -1.5590,-0.0000 -2.8229,1.2638 -2.8229 2.8229c -0.0000,1.5590 1.2638,2.8229 2.8229 2.8229c 1.5590,0.0000 2.8229,-1.2638 2.8229 -2.8229Z"/></g><defs></defs><g stroke-linejoin="miter" stroke-opacity="0.0" fill-opacity="0.1" stroke="rgb(0,0,0)" stroke-width="0.0" fill="rgb(85,85,85)" stroke-linecap="butt" stroke-miterlimit="10.0"><path d="M 103.8709,89.5997 c 0.0000,-1.5590 -1.2638,-2.8229 -2.8229 -2.8229c -1.5590,-0.0000 -2.8229,1.2638 -2.8229 2.8229c -0.0000,1.5590 1.2638,2.8229 2.8229 2.8229c 1.5590,0.0000 2.8229,-1.2638 2.8229 -2.8229Z"/></g><defs></defs><g stroke-linejoin="miter" stroke-opacity="0.0" fill-opacity="0.1" stroke="rgb(0,0,0)" stroke-width="0.0" fill="rgb(85,85,85)" stroke-linecap="butt" stroke-miterlimit="10.0"><path d="M 83.9219,74.7971 c 0.0000,-1.5590 -1.2638,-2.8229 -2.8229 -2.8229c -1.5590,-0.0000 -2.8229,1.2638 -2.8229 2.8229c -0.0000,1.5590 1.2638,2.8229 2.8229 2.8229c 1.5590,0.0000 2.8229,-1.2638 2.8229 -2.8229Z"/></g><defs></defs><g stroke-linejoin="miter" stroke-opacity="0.0" fill-opacity="0.1" stroke="rgb(0,0,0)" stroke-width="0.0" fill="rgb(85,85,85)" stroke-linecap="butt" stroke-miterlimit="10.0"><path d="M 110.2756,105.9746 c 0.0000,-1.5590 -1.2638,-2.8229 -2.8229 -2.8229c -1.5590,-0.0000 -2.8229,1.2638 -2.8229 2.8229c -0.0000,1.5590 1.2638,2.8229 2.8229 2.8229c 1.5590,0.0000 2.8229,-1.2638 2.8229 -2.8229Z"/></g><defs></defs><g stroke-linejoin="miter" stroke-opacity="0.0" fill-opacity="0.1" stroke="rgb(0,0,0)" stroke-width="0.0" fill="rgb(85,85,85)" stroke-linecap="butt" stroke-miterlimit="10.0"><path d="M 136.0147,67.9934 c 0.0000,-1.5590 -1.2638,-2.8229 -2.8229 -2.8229c -1.5590,-0.0000 -2.8229,1.2638 -2.8229 2.8229c -0.0000,1.5590 1.2638,2.8229 2.8229 2.8229c 1.5590,0.0000 2.8229,-1.2638 2.8229 -2.8229Z"/></g><defs></defs><g stroke-linejoin="miter" stroke-opacity="0.0" fill-opacity="0.1" stroke="rgb(0,0,0)" stroke-width="0.0" fill="rgb(85,85,85)" stroke-linecap="butt" stroke-miterlimit="10.0"><path d="M 107.3972,103.0538 c 0.0000,-1.5590 -1.2638,-2.8229 -2.8229 -2.8229c -1.5590,-0.0000 -2.8229,1.2638 -2.8229 2.8229c -0.0000,1.5590 1.2638,2.8229 2.8229 2.8229c 1.5590,0.0000 2.8229,-1.2638 2.8229 -2.8229Z"/></g><defs></defs><g stroke-linejoin="miter" stroke-opacity="0.0" fill-opacity="0.1" stroke="rgb(0,0,0)" stroke-width="0.0" fill="rgb(85,85,85)" stroke-linecap="butt" stroke-miterlimit="10.0"><path d="M 88.0231,100.3393 c 0.0000,-1.5590 -1.2638,-2.8229 -2.8229 -2.8229c -1.5590,-0.0000 -2.8229,1.2638 -2.8229 2.8229c -0.0000,1.5590 1.2638,2.8229 2.8229 2.8229c 1.5590,0.0000 2.8229,-1.2638 2.8229 -2.8229Z"/></g><defs></defs><g stroke-linejoin="miter" stroke-opacity="0.0" fill-opacity="0.1" stroke="rgb(0,0,0)" stroke-width="0.0" fill="rgb(85,85,85)" stroke-linecap="butt" stroke-miterlimit="10.0"><path d="M 119.3343,98.9976 c 0.0000,-1.5590 -1.2638,-2.8229 -2.8229 -2.8229c -1.5590,-0.0000 -2.8229,1.2638 -2.8229 2.8229c -0.0000,1.5590 1.2638,2.8229 2.8229 2.8229c 1.5590,0.0000 2.8229,-1.2638 2.8229 -2.8229Z"/></g><defs></defs><g stroke-linejoin="miter" stroke-opacity="0.0" fill-opacity="0.1" stroke="rgb(0,0,0)" stroke-width="0.0" fill="rgb(85,85,85)" stroke-linecap="butt" stroke-miterlimit="10.0"><path d="M 123.9529,55.7113 c 0.0000,-1.5590 -1.2638,-2.8229 -2.8229 -2.8229c -1.5590,-0.0000 -2.8229,1.2638 -2.8229 2.8229c -0.0000,1.5590 1.2638,2.8229 2.8229 2.8229c 1.5590,0.0000 2.8229,-1.2638 2.8229 -2.8229Z"/></g><defs></defs><g stroke-linejoin="miter" stroke-opacity="0.0" fill-opacity="0.1" stroke="rgb(0,0,0)" stroke-width="0.0" fill="rgb(85,85,85)" stroke-linecap="butt" stroke-miterlimit="10.0"><path d="M 125.8848,65.0907 c 0.0000,-1.5590 -1.2638,-2.8229 -2.8229 -2.8229c -1.5590,-0.0000 -2.8229,1.2638 -2.8229 2.8229c -0.0000,1.5590 1.2638,2.8229 2.8229 2.8229c 1.5590,0.0000 2.8229,-1.2638 2.8229 -2.8229Z"/></g><defs></defs><g stroke-linejoin="miter" stroke-opacity="0.0" fill-opacity="0.1" stroke="rgb(0,0,0)" stroke-width="0.0" fill="rgb(85,85,85)" stroke-linecap="butt" stroke-miterlimit="10.0"><path d="M 111.7643,74.9700 c 0.0000,-1.5590 -1.2638,-2.8229 -2.8229 -2.8229c -1.5590,-0.0000 -2.8229,1.2638 -2.8229 2.8229c -0.0000,1.5590 1.2638,2.8229 2.8229 2.8229c 1.5590,0.0000 2.8229,-1.2638 2.8229 -2.8229Z"/></g><defs></defs><g stroke-linejoin="miter" stroke-opacity="0.0" fill-opacity="0.1" stroke="rgb(0,0,0)" stroke-width="0.0" fill="rgb(85,85,85)" stroke-linecap="butt" stroke-miterlimit="10.0"><path d="M 144.6961,64.5176 c 0.0000,-1.5590 -1.2638,-2.8229 -2.8229 -2.8229c -1.5590,-0.0000 -2.8229,1.2638 -2.8229 2.8229c -0.0000,1.5590 1.2638,2.8229 2.8229 2.8229c 1.5590,0.0000 2.8229,-1.2638 2.8229 -2.8229Z"/></g><defs></defs><g stroke-linejoin="miter" stroke-opacity="0.0" fill-opacity="0.1" stroke="rgb(0,0,0)" stroke-width="0.0" fill="rgb(85,85,85)" stroke-linecap="butt" stroke-miterlimit="10.0"><path d="M 172.7954,25.1939 c 0.0000,-1.5590 -1.2638,-2.8229 -2.8229 -2.8229c -1.5590,-0.0000 -2.8229,1.2638 -2.8229 2.8229c -0.0000,1.5590 1.2638,2.8229 2.8229 2.8229c 1.5590,0.0000 2.8229,-1.2638 2.8229 -2.8229Z"/></g><defs></defs><g stroke-linejoin="miter" stroke-opacity="0.0" fill-opacity="0.1" stroke="rgb(0,0,0)" stroke-width="0.0" fill="rgb(85,85,85)" stroke-linecap="butt" stroke-miterlimit="10.0"><path d="M 123.0655,86.8654 c 0.0000,-1.5590 -1.2638,-2.8229 -2.8229 -2.8229c -1.5590,-0.0000 -2.8229,1.2638 -2.8229 2.8229c -0.0000,1.5590 1.2638,2.8229 2.8229 2.8229c 1.5590,0.0000 2.8229,-1.2638 2.8229 -2.8229Z"/></g><defs></defs><g stroke-linejoin="miter" stroke-opacity="0.0" fill-opacity="0.1" stroke="rgb(0,0,0)" stroke-width="0.0" fill="rgb(85,85,85)" stroke-linecap="butt" stroke-miterlimit="10.0"><path d="M 120.2162,73.8536 c 0.0000,-1.5590 -1.2638,-2.8229 -2.8229 -2.8229c -1.5590,-0.0000 -2.8229,1.2638 -2.8229 2.8229c -0.0000,1.5590 1.2638,2.8229 2.8229 2.8229c 1.5590,0.0000 2.8229,-1.2638 2.8229 -2.8229Z"/></g><defs></defs><g stroke-linejoin="miter" stroke-opacity="0.0" fill-opacity="0.1" stroke="rgb(0,0,0)" stroke-width="0.0" fill="rgb(85,85,85)" stroke-linecap="butt" stroke-miterlimit="10.0"><path d="M 116.0053,80.6288 c 0.0000,-1.5590 -1.2638,-2.8229 -2.8229 -2.8229c -1.5590,-0.0000 -2.8229,1.2638 -2.8229 2.8229c -0.0000,1.5590 1.2638,2.8229 2.8229 2.8229c 1.5590,0.0000 2.8229,-1.2638 2.8229 -2.8229Z"/></g><defs></defs><g stroke-linejoin="miter" stroke-opacity="0.0" fill-opacity="0.1" stroke="rgb(0,0,0)" stroke-width="0.0" fill="rgb(85,85,85)" stroke-linecap="butt" stroke-miterlimit="10.0"><path d="M 101.8519,82.8950 c 0.0000,-1.5590 -1.2638,-2.8229 -2.8229 -2.8229c -1.5590,-0.0000 -2.8229,1.2638 -2.8229 2.8229c -0.0000,1.5590 1.2638,2.8229 2.8229 2.8229c 1.5590,0.0000 2.8229,-1.2638 2.8229 -2.8229Z"/></g><defs></defs><g stroke-linejoin="miter" stroke-opacity="0.0" fill-opacity="0.1" stroke="rgb(0,0,0)" stroke-width="0.0" fill="rgb(85,85,85)" stroke-linecap="butt" stroke-miterlimit="10.0"><path d="M 95.8993,96.6780 c 0.0000,-1.5590 -1.2638,-2.8229 -2.8229 -2.8229c -1.5590,-0.0000 -2.8229,1.2638 -2.8229 2.8229c -0.0000,1.5590 1.2638,2.8229 2.8229 2.8229c 1.5590,0.0000 2.8229,-1.2638 2.8229 -2.8229Z"/></g><defs></defs><g stroke-linejoin="miter" stroke-opacity="0.0" fill-opacity="0.1" stroke="rgb(0,0,0)" stroke-width="0.0" fill="rgb(85,85,85)" stroke-linecap="butt" stroke-miterlimit="10.0"><path d="M 121.5662,57.9334 c 0.0000,-1.5590 -1.2638,-2.8229 -2.8229 -2.8229c -1.5590,-0.0000 -2.8229,1.2638 -2.8229 2.8229c -0.0000,1.5590 1.2638,2.8229 2.8229 2.8229c 1.5590,0.0000 2.8229,-1.2638 2.8229 -2.8229Z"/></g><defs></defs><g stroke-linejoin="miter" stroke-opacity="0.0" fill-opacity="0.1" stroke="rgb(0,0,0)" stroke-width="0.0" fill="rgb(85,85,85)" stroke-linecap="butt" stroke-miterlimit="10.0"><path d="M 133.9729,65.7029 c 0.0000,-1.5590 -1.2638,-2.8229 -2.8229 -2.8229c -1.5590,-0.0000 -2.8229,1.2638 -2.8229 2.8229c -0.0000,1.5590 1.2638,2.8229 2.8229 2.8229c 1.5590,0.0000 2.8229,-1.2638 2.8229 -2.8229Z"/></g><defs></defs><g stroke-linejoin="miter" stroke-opacity="0.0" fill-opacity="0.1" stroke="rgb(0,0,0)" stroke-width="0.0" fill="rgb(85,85,85)" stroke-linecap="butt" stroke-miterlimit="10.0"><path d="M 115.3435,63.2714 c 0.0000,-1.5590 -1.2638,-2.8229 -2.8229 -2.8229c -1.5590,-0.0000 -2.8229,1.2638 -2.8229 2.8229c -0.0000,1.5590 1.2638,2.8229 2.8229 2.8229c 1.5590,0.0000 2.8229,-1.2638 2.8229 -2.8229Z"/></g><defs></defs><g stroke-linejoin="miter" stroke-opacity="0.0" fill-opacity="0.1" stroke="rgb(0,0,0)" stroke-width="0.0" fill="rgb(85,85,85)" stroke-linecap="butt" stroke-miterlimit="10.0"><path d="M 110.5100,84.0020 c 0.0000,-1.5590 -1.2638,-2.8229 -2.8229 -2.8229c -1.5590,-0.0000 -2.8229,1.2638 -2.8229 2.8229c -0.0000,1.5590 1.2638,2.8229 2.8229 2.8229c 1.5590,0.0000 2.8229,-1.2638 2.8229 -2.8229Z"/></g><defs></defs><g stroke-linejoin="miter" stroke-opacity="0.0" fill-opacity="0.1" stroke="rgb(0,0,0)" stroke-width="0.0" fill="rgb(85,85,85)" stroke-linecap="butt" stroke-miterlimit="10.0"><path d="M 121.5257,84.8461 c 0.0000,-1.5590 -1.2638,-2.8229 -2.8229 -2.8229c -1.5590,-0.0000 -2.8229,1.2638 -2.8229 2.8229c -0.0000,1.5590 1.2638,2.8229 2.8229 2.8229c 1.5590,0.0000 2.8229,-1.2638 2.8229 -2.8229Z"/></g><defs></defs><g stroke-linejoin="miter" stroke-opacity="0.0" fill-opacity="0.1" stroke="rgb(0,0,0)" stroke-width="0.0" fill="rgb(85,85,85)" stroke-linecap="butt" stroke-miterlimit="10.0"><path d="M 135.9396,59.1837 c 0.0000,-1.5590 -1.2638,-2.8229 -2.8229 -2.8229c -1.5590,-0.0000 -2.8229,1.2638 -2.8229 2.8229c -0.0000,1.5590 1.2638,2.8229 2.8229 2.8229c 1.5590,0.0000 2.8229,-1.2638 2.8229 -2.8229Z"/></g><defs></defs><g stroke-linejoin="miter" stroke-opacity="0.0" fill-opacity="0.1" stroke="rgb(0,0,0)" stroke-width="0.0" fill="rgb(85,85,85)" stroke-linecap="butt" stroke-miterlimit="10.0"><path d="M 81.4323,118.8716 c 0.0000,-1.5590 -1.2638,-2.8229 -2.8229 -2.8229c -1.5590,-0.0000 -2.8229,1.2638 -2.8229 2.8229c -0.0000,1.5590 1.2638,2.8229 2.8229 2.8229c 1.5590,0.0000 2.8229,-1.2638 2.8229 -2.8229Z"/></g><defs></defs><g stroke-linejoin="miter" stroke-opacity="0.0" fill-opacity="0.1" stroke="rgb(0,0,0)" stroke-width="0.0" fill="rgb(85,85,85)" stroke-linecap="butt" stroke-miterlimit="10.0"><path d="M 80.8502,83.5066 c 0.0000,-1.5590 -1.2638,-2.8229 -2.8229 -2.8229c -1.5590,-0.0000 -2.8229,1.2638 -2.8229 2.8229c -0.0000,1.5590 1.2638,2.8229 2.8229 2.8229c 1.5590,0.0000 2.8229,-1.2638 2.8229 -2.8229Z"/></g><defs></defs><g stroke-linejoin="miter" stroke-opacity="0.0" fill-opacity="0.1" stroke="rgb(0,0,0)" stroke-width="0.0" fill="rgb(85,85,85)" stroke-linecap="butt" stroke-miterlimit="10.0"><path d="M 108.1238,70.7244 c 0.0000,-1.5590 -1.2638,-2.8229 -2.8229 -2.8229c -1.5590,-0.0000 -2.8229,1.2638 -2.8229 2.8229c -0.0000,1.5590 1.2638,2.8229 2.8229 2.8229c 1.5590,0.0000 2.8229,-1.2638 2.8229 -2.8229Z"/></g><defs></defs><g stroke-linejoin="miter" stroke-opacity="0.0" fill-opacity="0.1" stroke="rgb(0,0,0)" stroke-width="0.0" fill="rgb(85,85,85)" stroke-linecap="butt" stroke-miterlimit="10.0"><path d="M 120.5810,99.7615 c 0.0000,-1.5590 -1.2638,-2.8229 -2.8229 -2.8229c -1.5590,-0.0000 -2.8229,1.2638 -2.8229 2.8229c -0.0000,1.5590 1.2638,2.8229 2.8229 2.8229c 1.5590,0.0000 2.8229,-1.2638 2.8229 -2.8229Z"/></g><defs></defs><g stroke-linejoin="miter" stroke-opacity="0.0" fill-opacity="0.1" stroke="rgb(0,0,0)" stroke-width="0.0" fill="rgb(85,85,85)" stroke-linecap="butt" stroke-miterlimit="10.0"><path d="M 107.5978,114.3701 c 0.0000,-1.5590 -1.2638,-2.8229 -2.8229 -2.8229c -1.5590,-0.0000 -2.8229,1.2638 -2.8229 2.8229c -0.0000,1.5590 1.2638,2.8229 2.8229 2.8229c 1.5590,0.0000 2.8229,-1.2638 2.8229 -2.8229Z"/></g><defs></defs><g stroke-linejoin="miter" stroke-opacity="0.0" fill-opacity="0.1" stroke="rgb(0,0,0)" stroke-width="0.0" fill="rgb(85,85,85)" stroke-linecap="butt" stroke-miterlimit="10.0"><path d="M 155.6482,49.6782 c 0.0000,-1.5590 -1.2638,-2.8229 -2.8229 -2.8229c -1.5590,-0.0000 -2.8229,1.2638 -2.8229 2.8229c -0.0000,1.5590 1.2638,2.8229 2.8229 2.8229c 1.5590,0.0000 2.8229,-1.2638 2.8229 -2.8229Z"/></g><defs></defs><g stroke-linejoin="miter" stroke-opacity="0.0" fill-opacity="0.1" stroke="rgb(0,0,0)" stroke-width="0.0" fill="rgb(85,85,85)" stroke-linecap="butt" stroke-miterlimit="10.0"><path d="M 96.7795,100.4103 c 0.0000,-1.5590 -1.2638,-2.8229 -2.8229 -2.8229c -1.5590,-0.0000 -2.8229,1.2638 -2.8229 2.8229c -0.0000,1.5590 1.2638,2.8229 2.8229 2.8229c 1.5590,0.0000 2.8229,-1.2638 2.8229 -2.8229Z"/></g><defs></defs><g stroke-linejoin="miter" stroke-opacity="0.0" fill-opacity="0.1" stroke="rgb(0,0,0)" stroke-width="0.0" fill="rgb(85,85,85)" stroke-linecap="butt" stroke-miterlimit="10.0"><path d="M 125.7851,56.7834 c 0.0000,-1.5590 -1.2638,-2.8229 -2.8229 -2.8229c -1.5590,-0.0000 -2.8229,1.2638 -2.8229 2.8229c -0.0000,1.5590 1.2638,2.8229 2.8229 2.8229c 1.5590,0.0000 2.8229,-1.2638 2.8229 -2.8229Z"/></g><defs></defs><g stroke-linejoin="miter" stroke-opacity="0.0" fill-opacity="0.1" stroke="rgb(0,0,0)" stroke-width="0.0" fill="rgb(85,85,85)" stroke-linecap="butt" stroke-miterlimit="10.0"><path d="M 81.5734,104.1721 c 0.0000,-1.5590 -1.2638,-2.8229 -2.8229 -2.8229c -1.5590,-0.0000 -2.8229,1.2638 -2.8229 2.8229c -0.0000,1.5590 1.2638,2.8229 2.8229 2.8229c 1.5590,0.0000 2.8229,-1.2638 2.8229 -2.8229Z"/></g><defs></defs><g stroke-linejoin="miter" stroke-opacity="0.0" fill-opacity="0.1" stroke="rgb(0,0,0)" stroke-width="0.0" fill="rgb(85,85,85)" stroke-linecap="butt" stroke-miterlimit="10.0"><path d="M 96.6708,155.6465 c 0.0000,-1.5590 -1.2638,-2.8229 -2.8229 -2.8229c -1.5590,-0.0000 -2.8229,1.2638 -2.8229 2.8229c -0.0000,1.5590 1.2638,2.8229 2.8229 2.8229c 1.5590,0.0000 2.8229,-1.2638 2.8229 -2.8229Z"/></g><defs></defs><g stroke-linejoin="miter" stroke-opacity="0.0" fill-opacity="0.1" stroke="rgb(0,0,0)" stroke-width="0.0" fill="rgb(85,85,85)" stroke-linecap="butt" stroke-miterlimit="10.0"><path d="M 161.2629,52.9986 c 0.0000,-1.5590 -1.2638,-2.8229 -2.8229 -2.8229c -1.5590,-0.0000 -2.8229,1.2638 -2.8229 2.8229c -0.0000,1.5590 1.2638,2.8229 2.8229 2.8229c 1.5590,0.0000 2.8229,-1.2638 2.8229 -2.8229Z"/></g><defs></defs><g stroke-linejoin="miter" stroke-opacity="0.0" fill-opacity="0.1" stroke="rgb(0,0,0)" stroke-width="0.0" fill="rgb(85,85,85)" stroke-linecap="butt" stroke-miterlimit="10.0"><path d="M 121.2478,94.4047 c 0.0000,-1.5590 -1.2638,-2.8229 -2.8229 -2.8229c -1.5590,-0.0000 -2.8229,1.2638 -2.8229 2.8229c -0.0000,1.5590 1.2638,2.8229 2.8229 2.8229c 1.5590,0.0000 2.8229,-1.2638 2.8229 -2.8229Z"/></g><defs></defs><g stroke-linejoin="miter" stroke-opacity="0.0" fill-opacity="0.1" stroke="rgb(0,0,0)" stroke-width="0.0" fill="rgb(85,85,85)" stroke-linecap="butt" stroke-miterlimit="10.0"><path d="M 148.1594,40.5897 c 0.0000,-1.5590 -1.2638,-2.8229 -2.8229 -2.8229c -1.5590,-0.0000 -2.8229,1.2638 -2.8229 2.8229c -0.0000,1.5590 1.2638,2.8229 2.8229 2.8229c 1.5590,0.0000 2.8229,-1.2638 2.8229 -2.8229Z"/></g><defs></defs><g stroke-linejoin="miter" stroke-opacity="0.0" fill-opacity="0.1" stroke="rgb(0,0,0)" stroke-width="0.0" fill="rgb(85,85,85)" stroke-linecap="butt" stroke-miterlimit="10.0"><path d="M 87.8240,100.0494 c 0.0000,-1.5590 -1.2638,-2.8229 -2.8229 -2.8229c -1.5590,-0.0000 -2.8229,1.2638 -2.8229 2.8229c -0.0000,1.5590 1.2638,2.8229 2.8229 2.8229c 1.5590,0.0000 2.8229,-1.2638 2.8229 -2.8229Z"/></g><defs></defs><g stroke-linejoin="miter" stroke-opacity="0.0" fill-opacity="0.1" stroke="rgb(0,0,0)" stroke-width="0.0" fill="rgb(85,85,85)" stroke-linecap="butt" stroke-miterlimit="10.0"><path d="M 94.7243,116.0628 c 0.0000,-1.5590 -1.2638,-2.8229 -2.8229 -2.8229c -1.5590,-0.0000 -2.8229,1.2638 -2.8229 2.8229c -0.0000,1.5590 1.2638,2.8229 2.8229 2.8229c 1.5590,0.0000 2.8229,-1.2638 2.8229 -2.8229Z"/></g><defs></defs><g stroke-linejoin="miter" stroke-opacity="0.0" fill-opacity="0.1" stroke="rgb(0,0,0)" stroke-width="0.0" fill="rgb(85,85,85)" stroke-linecap="butt" stroke-miterlimit="10.0"><path d="M 122.1296,66.8135 c 0.0000,-1.5590 -1.2638,-2.8229 -2.8229 -2.8229c -1.5590,-0.0000 -2.8229,1.2638 -2.8229 2.8229c -0.0000,1.5590 1.2638,2.8229 2.8229 2.8229c 1.5590,0.0000 2.8229,-1.2638 2.8229 -2.8229Z"/></g><defs></defs><g stroke-linejoin="miter" stroke-opacity="0.0" fill-opacity="0.1" stroke="rgb(0,0,0)" stroke-width="0.0" fill="rgb(85,85,85)" stroke-linecap="butt" stroke-miterlimit="10.0"><path d="M 65.3449,143.1523 c 0.0000,-1.5590 -1.2638,-2.8229 -2.8229 -2.8229c -1.5590,-0.0000 -2.8229,1.2638 -2.8229 2.8229c -0.0000,1.5590 1.2638,2.8229 2.8229 2.8229c 1.5590,0.0000 2.8229,-1.2638 2.8229 -2.8229Z"/></g><defs></defs><g stroke-linejoin="miter" stroke-opacity="0.0" fill-opacity="0.1" stroke="rgb(0,0,0)" stroke-width="0.0" fill="rgb(85,85,85)" stroke-linecap="butt" stroke-miterlimit="10.0"><path d="M 118.9890,73.2263 c 0.0000,-1.5590 -1.2638,-2.8229 -2.8229 -2.8229c -1.5590,-0.0000 -2.8229,1.2638 -2.8229 2.8229c -0.0000,1.5590 1.2638,2.8229 2.8229 2.8229c 1.5590,0.0000 2.8229,-1.2638 2.8229 -2.8229Z"/></g><defs></defs><g stroke-linejoin="miter" stroke-opacity="0.0" fill-opacity="0.1" stroke="rgb(0,0,0)" stroke-width="0.0" fill="rgb(85,85,85)" stroke-linecap="butt" stroke-miterlimit="10.0"><path d="M 86.7331,81.8885 c 0.0000,-1.5590 -1.2638,-2.8229 -2.8229 -2.8229c -1.5590,-0.0000 -2.8229,1.2638 -2.8229 2.8229c -0.0000,1.5590 1.2638,2.8229 2.8229 2.8229c 1.5590,0.0000 2.8229,-1.2638 2.8229 -2.8229Z"/></g><defs></defs><g stroke-linejoin="miter" stroke-opacity="0.0" fill-opacity="0.1" stroke="rgb(0,0,0)" stroke-width="0.0" fill="rgb(85,85,85)" stroke-linecap="butt" stroke-miterlimit="10.0"><path d="M 75.3002,92.4039 c 0.0000,-1.5590 -1.2638,-2.8229 -2.8229 -2.8229c -1.5590,-0.0000 -2.8229,1.2638 -2.8229 2.8229c -0.0000,1.5590 1.2638,2.8229 2.8229 2.8229c 1.5590,0.0000 2.8229,-1.2638 2.8229 -2.8229Z"/></g><defs></defs><g stroke-linejoin="miter" stroke-opacity="0.0" fill-opacity="0.1" stroke="rgb(0,0,0)" stroke-width="0.0" fill="rgb(85,85,85)" stroke-linecap="butt" stroke-miterlimit="10.0"><path d="M 119.7295,97.2354 c 0.0000,-1.5590 -1.2638,-2.8229 -2.8229 -2.8229c -1.5590,-0.0000 -2.8229,1.2638 -2.8229 2.8229c -0.0000,1.5590 1.2638,2.8229 2.8229 2.8229c 1.5590,0.0000 2.8229,-1.2638 2.8229 -2.8229Z"/></g><defs></defs><g stroke-linejoin="miter" stroke-opacity="0.0" fill-opacity="0.1" stroke="rgb(0,0,0)" stroke-width="0.0" fill="rgb(85,85,85)" stroke-linecap="butt" stroke-miterlimit="10.0"><path d="M 92.3490,125.6181 c 0.0000,-1.5590 -1.2638,-2.8229 -2.8229 -2.8229c -1.5590,-0.0000 -2.8229,1.2638 -2.8229 2.8229c -0.0000,1.5590 1.2638,2.8229 2.8229 2.8229c 1.5590,0.0000 2.8229,-1.2638 2.8229 -2.8229Z"/></g><defs></defs><g stroke-linejoin="miter" stroke-opacity="0.0" fill-opacity="0.1" stroke="rgb(0,0,0)" stroke-width="0.0" fill="rgb(85,85,85)" stroke-linecap="butt" stroke-miterlimit="10.0"><path d="M 123.8594,62.1074 c 0.0000,-1.5590 -1.2638,-2.8229 -2.8229 -2.8229c -1.5590,-0.0000 -2.8229,1.2638 -2.8229 2.8229c -0.0000,1.5590 1.2638,2.8229 2.8229 2.8229c 1.5590,0.0000 2.8229,-1.2638 2.8229 -2.8229Z"/></g><defs></defs><g stroke-linejoin="miter" stroke-opacity="0.0" fill-opacity="0.1" stroke="rgb(0,0,0)" stroke-width="0.0" fill="rgb(85,85,85)" stroke-linecap="butt" stroke-miterlimit="10.0"><path d="M 108.3634,99.9871 c 0.0000,-1.5590 -1.2638,-2.8229 -2.8229 -2.8229c -1.5590,-0.0000 -2.8229,1.2638 -2.8229 2.8229c -0.0000,1.5590 1.2638,2.8229 2.8229 2.8229c 1.5590,0.0000 2.8229,-1.2638 2.8229 -2.8229Z"/></g><defs></defs><g stroke-linejoin="miter" stroke-opacity="0.0" fill-opacity="0.1" stroke="rgb(0,0,0)" stroke-width="0.0" fill="rgb(85,85,85)" stroke-linecap="butt" stroke-miterlimit="10.0"><path d="M 106.5499,87.1855 c 0.0000,-1.5590 -1.2638,-2.8229 -2.8229 -2.8229c -1.5590,-0.0000 -2.8229,1.2638 -2.8229 2.8229c -0.0000,1.5590 1.2638,2.8229 2.8229 2.8229c 1.5590,0.0000 2.8229,-1.2638 2.8229 -2.8229Z"/></g><defs></defs><g stroke-linejoin="miter" stroke-opacity="0.0" fill-opacity="0.1" stroke="rgb(0,0,0)" stroke-width="0.0" fill="rgb(85,85,85)" stroke-linecap="butt" stroke-miterlimit="10.0"><path d="M 118.1699,88.8799 c 0.0000,-1.5590 -1.2638,-2.8229 -2.8229 -2.8229c -1.5590,-0.0000 -2.8229,1.2638 -2.8229 2.8229c -0.0000,1.5590 1.2638,2.8229 2.8229 2.8229c 1.5590,0.0000 2.8229,-1.2638 2.8229 -2.8229Z"/></g><defs></defs><g stroke-linejoin="miter" stroke-opacity="0.0" fill-opacity="0.1" stroke="rgb(0,0,0)" stroke-width="0.0" fill="rgb(85,85,85)" stroke-linecap="butt" stroke-miterlimit="10.0"><path d="M 122.2483,77.0231 c 0.0000,-1.5590 -1.2638,-2.8229 -2.8229 -2.8229c -1.5590,-0.0000 -2.8229,1.2638 -2.8229 2.8229c -0.0000,1.5590 1.2638,2.8229 2.8229 2.8229c 1.5590,0.0000 2.8229,-1.2638 2.8229 -2.8229Z"/></g><defs></defs><g stroke-linejoin="miter" stroke-opacity="0.0" fill-opacity="0.1" stroke="rgb(0,0,0)" stroke-width="0.0" fill="rgb(85,85,85)" stroke-linecap="butt" stroke-miterlimit="10.0"><path d="M 124.6315,81.5318 c 0.0000,-1.5590 -1.2638,-2.8229 -2.8229 -2.8229c -1.5590,-0.0000 -2.8229,1.2638 -2.8229 2.8229c -0.0000,1.5590 1.2638,2.8229 2.8229 2.8229c 1.5590,0.0000 2.8229,-1.2638 2.8229 -2.8229Z"/></g><defs></defs><g stroke-linejoin="miter" stroke-opacity="0.0" fill-opacity="0.1" stroke="rgb(0,0,0)" stroke-width="0.0" fill="rgb(85,85,85)" stroke-linecap="butt" stroke-miterlimit="10.0"><path d="M 150.7171,79.2790 c 0.0000,-1.5590 -1.2638,-2.8229 -2.8229 -2.8229c -1.5590,-0.0000 -2.8229,1.2638 -2.8229 2.8229c -0.0000,1.5590 1.2638,2.8229 2.8229 2.8229c 1.5590,0.0000 2.8229,-1.2638 2.8229 -2.8229Z"/></g><defs></defs><g stroke-linejoin="miter" stroke-opacity="1.0" fill-opacity="1.0" stroke="rgb(0,0,0)" stroke-width="0.0" fill="rgb(255,0,0)" stroke-linecap="butt" stroke-miterlimit="10.0"><path d="M 107.5229,95.4128 c 0.0000,-1.6214 -1.3144,-2.9358 -2.9358 -2.9358c -1.6214,-0.0000 -2.9358,1.3144 -2.9358 2.9358c -0.0000,1.6214 1.3144,2.9358 2.9358 2.9358c 1.6214,0.0000 2.9358,-1.3144 2.9358 -2.9358Z"/></g></svg>