<?xml version="1.0" encoding="UTF-8"?>
<!DOCTYPE svg PUBLIC "-//W3C//DTD SVG 1.1//EN"
    "http://www.w3.org/Graphics/SVG/1.1/DTD/svg11.dtd"><svg xmlns="http://www.w3.org/2000/svg" height="400.0000" stroke-opacity="1" viewBox="0 0 400 400" font-size="1" width="400.0000" xmlns:xlink="http://www.w3.org/1999/xlink" stroke="rgb(0,0,0)" version="1.1"><defs></defs><g stroke-linejoin="miter" stroke-opacity="1.0" fill-opacity="0.33" stroke="rgb(0,0,0)" fill-rule="evenodd" stroke-width="0.0" fill="rgb(0,0,0)" stroke-linecap="butt" stroke-miterlimit="10.0"><path d="M 17.7702,272.2146 ZM 21.6733,264.5211 c 0.0000,0.0938 -0.1126,0.1501 -0.2064 0.1501c -0.5629,-0.0000 -0.8069,0.1126 -0.8069 0.4128c 0.0000,0.1126 0.0375,0.2627 0.1126 0.4316l 2.0641,4.8413 l 2.0829,-4.7663 c 0.0938,-0.1689 0.1314,-0.3190 0.1314 -0.4316c 0.0000,-0.3941 -0.3753,-0.4879 -0.7881 -0.4879h -0.0751 c -0.0938,-0.0000 -0.1876,-0.0751 -0.1876 -0.1314v -0.3565 l 0.0375,-0.0563 c 0.0000,-0.0000 1.1071,0.0375 1.7639 0.0375c 0.5254,-0.0000 1.2948,-0.0375 1.2948 -0.0375l 0.0563,0.0375 v 0.3565 c 0.0000,0.0938 -0.0751,0.1501 -0.2064 0.1501c -0.7131,-0.0000 -1.0696,0.7318 -1.3323 1.2760c -0.9945,2.1017 -1.8202,4.0344 -3.3214 7.6560c -0.5629,1.3511 -1.2385,2.9273 -2.5708 2.9273c -0.3565,-0.0000 -1.0884,-0.2064 -1.0884 -0.8819c 0.0000,-0.5629 0.4128,-0.7318 0.7131 -0.7318c 0.2815,-0.0000 0.4691,0.1126 0.5817 0.2627c 0.1876,0.1876 0.3190,0.3190 0.5066 0.3190c 0.2815,-0.0000 0.9382,-1.6138 1.4074 -2.7584c 0.1126,-0.2252 0.1501,-0.4128 0.1501 -0.5817c 0.0000,-0.1876 -0.1689,-0.6943 -0.3190 -1.0696l -2.3644,-5.4981 c -0.3002,-0.7131 -0.5066,-0.9195 -1.1447 -0.9195c -0.1126,-0.0000 -0.1876,-0.0563 -0.1876 -0.1314v -0.3753 l 0.0375,-0.0375 c 0.0000,-0.0000 0.8257,0.0375 1.3886 0.0375c 0.8819,-0.0000 2.2330,-0.0375 2.2330 -0.0375l 0.0375,0.0563 v 0.3378 ZM 32.0127,272.2146 ZM 40.6633,266.2474 v 0.9195 h -7.4121 v -0.9195 h 7.4121 ZM 40.6633,266.2474 ZM 40.6633,268.5930 v 0.9195 h -7.4121 v -0.9195 h 7.4121 ZM 46.5929,272.2146 ZM 51.7345,267.7861 h -4.2408 c -0.1689,-0.0000 -0.2815,-0.1501 -0.2815 -0.3190c 0.0000,-0.3002 0.2439,-0.6943 0.4691 -0.6943h 4.2971 c 0.1876,-0.0000 0.2627,0.1689 0.2627 0.3378c 0.0000,0.2064 -0.2627,0.6755 -0.5066 0.6755ZM 52.8416,272.2146 ZM 53.9300,263.9018 c 0.0000,-1.0696 1.0321,-2.5332 3.0024 -2.5332c 1.4449,-0.0000 3.1337,0.5442 3.1337 2.7021c 0.0000,1.4261 -0.7318,2.1392 -1.7451 3.1150l -1.7827,1.7264 c -0.0938,0.0938 -1.3511,1.3323 -1.3511 2.2142h 3.1900 c 0.6380,-0.0000 0.9758,-0.3190 1.2385 -1.3511l 0.4691,0.0751 l -0.3753,2.3644 h -5.7983 c 0.0000,-1.0508 0.1689,-1.8577 1.9140 -3.6404l 1.3135,-1.2948 c 1.0508,-1.0696 1.4824,-1.9891 1.4824 -3.1337c 0.0000,-1.7076 -1.1634,-2.1955 -1.8014 -2.1955c -1.2948,-0.0000 -1.6513,0.6755 -1.6513 1.1259c 0.0000,0.1501 0.0375,0.3002 0.0751 0.4316c 0.0375,0.1314 0.0751,0.2627 0.0751 0.4128c 0.0000,0.4879 -0.3753,0.6755 -0.6755 0.6755c -0.4128,-0.0000 -0.7131,-0.3190 -0.7131 -0.6943ZM 61.0606,272.2146 ZM 62.1302,271.4453 c 0.0000,-0.5442 0.4504,-0.9945 0.9945 -0.9945c 0.5442,-0.0000 0.9945,0.4504 0.9945 0.9945c 0.0000,0.5442 -0.4504,0.9945 -0.9945 0.9945c -0.5442,-0.0000 -0.9945,-0.4504 -0.9945 -0.9945ZM 65.1701,272.2146 ZM 69.2796,262.0253 c -0.8069,-0.0000 -1.9891,0.7881 -1.9891 5.1603c 0.0000,1.5387 0.2815,4.6349 1.9328 4.6349c 0.3190,-0.0000 1.2197,-0.2064 1.6138 -1.6701c 0.2439,-0.9007 0.3753,-2.0266 0.3753 -3.6591c 0.0000,-2.3831 -0.6005,-3.7154 -1.1447 -4.1845c -0.2064,-0.1876 -0.4879,-0.2815 -0.7881 -0.2815ZM 69.2796,262.0253 ZM 69.2045,272.4398 c -2.0078,-0.0000 -3.3589,-2.5708 -3.3589 -5.4418c 0.0000,-3.5090 1.6701,-5.6294 3.4340 -5.6294c 0.8069,-0.0000 1.6138,0.5066 2.1580 1.2385c 0.7881,1.0508 1.2009,2.4582 1.2009 4.2221c 0.0000,4.1658 -2.0641,5.6107 -3.4340 5.6107Z"/></g><g stroke-linejoin="miter" stroke-opacity="1.0" fill-opacity="0.33" stroke="rgb(0,0,0)" fill-rule="evenodd" stroke-width="0.0" fill="rgb(0,0,0)" stroke-linecap="butt" stroke-miterlimit="10.0"><path d="M 173.4664,385.3663 ZM 177.1630,377.8228 c -0.3753,-0.0000 -0.4504,0.0938 -0.4504 0.2252c 0.0000,0.0938 0.0751,0.2627 0.2815 0.6005l 1.1447,1.6888 c 0.0563,0.1126 0.1126,0.1689 0.1876 0.1689c 0.0563,-0.0000 0.0938,-0.0375 0.1689 -0.1314l 1.2197,-1.7076 c 0.2064,-0.2627 0.3190,-0.4691 0.3190 -0.6192c 0.0000,-0.1501 -0.1314,-0.2252 -0.3941 -0.2252h -0.3002 c -0.0563,-0.0000 -0.1126,-0.0375 -0.1126 -0.1314v -0.3565 l 0.0563,-0.0563 c 0.0000,-0.0000 0.8819,0.0375 1.4637 0.0375c 0.6005,-0.0000 1.5199,-0.0375 1.5199 -0.0375l 0.0188,0.0375 v 0.3565 c 0.0000,0.1314 -0.1126,0.1501 -0.2252 0.1501c -0.6943,-0.0000 -0.9758,0.2252 -1.6701 1.1071l -1.5762,2.0078 c -0.0375,0.0563 -0.0563,0.0938 -0.0563 0.1314c 0.0000,0.0375 0.0188,0.0938 0.0563 0.1501l 1.6888,2.3831 c 0.8632,1.2197 1.1071,1.2385 1.7076 1.2385c 0.1876,-0.0000 0.2627,0.0375 0.2627 0.1501v 0.3565 l -0.0188,0.0375 c 0.0000,-0.0000 -1.0133,-0.0375 -1.6513 -0.0375c -0.7694,-0.0000 -1.9515,0.0375 -1.9515 0.0375l -0.0375,-0.0375 v -0.3565 c 0.0000,-0.0938 0.0375,-0.1501 0.1314 -0.1501h 0.2252 c 0.3002,-0.0000 0.4316,-0.0563 0.4316 -0.2064c 0.0000,-0.1689 -0.2064,-0.4504 -0.5066 -0.8444l -1.0884,-1.5012 c -0.0751,-0.0938 -0.1126,-0.1314 -0.1689 -0.1314c -0.0375,-0.0000 -0.0938,0.0563 -0.1689 0.1689l -1.1822,1.7076 c -0.2815,0.3753 -0.3378,0.4691 -0.3378 0.6005c 0.0000,0.1314 0.1126,0.2064 0.3941 0.2064h 0.2627 c 0.0938,-0.0000 0.1314,0.0563 0.1314 0.1501v 0.3565 l -0.0375,0.0375 c 0.0000,-0.0000 -0.9758,-0.0375 -1.5762 -0.0375c -0.5442,-0.0000 -1.4074,0.0375 -1.4074 0.0375l -0.0375,-0.0375 v -0.3190 c 0.0000,-0.1126 0.0751,-0.1876 0.2439 -0.1876c 0.4504,-0.0000 0.8819,-0.0938 1.6701 -1.1071l 1.5762,-2.0266 c 0.0188,-0.0375 0.0375,-0.0751 0.0375 -0.1314c 0.0000,-0.0563 -0.0188,-0.0938 -0.0563 -0.1501l -1.6325,-2.3831 c -0.5254,-0.7694 -0.8632,-1.2197 -1.5199 -1.2197c -0.1314,-0.0000 -0.2627,-0.0563 -0.2627 -0.1314v -0.3565 l 0.0375,-0.0563 l 1.4824,0.0375 l 2.0829,-0.0375 l 0.0563,0.0563 v 0.3378 c 0.0000,0.0938 -0.0751,0.1501 -0.1501 0.1501h -0.2815 ZM 187.4837,385.3663 ZM 196.1342,379.3991 v 0.9195 h -7.4121 v -0.9195 h 7.4121 ZM 196.1342,379.3991 ZM 196.1342,381.7447 v 0.9195 h -7.4121 v -0.9195 h 7.4121 ZM 202.0639,385.3663 ZM 207.2054,380.9378 h -4.2408 c -0.1689,-0.0000 -0.2815,-0.1501 -0.2815 -0.3190c 0.0000,-0.3002 0.2439,-0.6943 0.4691 -0.6943h 4.2971 c 0.1876,-0.0000 0.2627,0.1689 0.2627 0.3378c 0.0000,0.2064 -0.2627,0.6755 -0.5066 0.6755ZM 208.3126,385.3663 ZM 211.8403,376.4155 c -0.3565,-0.0000 -1.1822,0.3378 -1.5950 0.5254l -0.2252,-0.5817 c 1.6513,-0.7694 2.2893,-1.1634 3.2275 -1.8389h 0.3565 v 9.4387 c 0.0000,0.6755 0.0938,0.8632 0.7131 0.8632h 0.9758 c 0.0563,-0.0000 0.1501,0.0375 0.1501 0.1501v 0.4128 l -2.5708,-0.0375 l -2.6083,0.0375 v -0.4128 c 0.0188,-0.0563 0.0375,-0.1501 0.1501 -0.1501h 1.1259 c 0.7131,-0.0000 0.7131,-0.3190 0.7131 -0.8632v -6.4551 c 0.0000,-0.6380 0.0000,-1.0884 -0.4128 -1.0884ZM 216.5315,385.3663 ZM 217.6011,384.5969 c 0.0000,-0.5442 0.4504,-0.9945 0.9945 -0.9945c 0.5442,-0.0000 0.9945,0.4504 0.9945 0.9945c 0.0000,0.5442 -0.4504,0.9945 -0.9945 0.9945c -0.5442,-0.0000 -0.9945,-0.4504 -0.9945 -0.9945ZM 220.6410,385.3663 ZM 224.7505,375.1770 c -0.8069,-0.0000 -1.9891,0.7881 -1.9891 5.1603c 0.0000,1.5387 0.2815,4.6349 1.9328 4.6349c 0.3190,-0.0000 1.2197,-0.2064 1.6138 -1.6701c 0.2439,-0.9007 0.3753,-2.0266 0.3753 -3.6591c 0.0000,-2.3831 -0.6005,-3.7154 -1.1447 -4.1845c -0.2064,-0.1876 -0.4879,-0.2815 -0.7881 -0.2815ZM 224.7505,375.1770 ZM 224.6755,385.5915 c -2.0078,-0.0000 -3.3589,-2.5708 -3.3589 -5.4418c 0.0000,-3.5090 1.6701,-5.6294 3.4340 -5.6294c 0.8069,-0.0000 1.6138,0.5066 2.1580 1.2385c 0.7881,1.0508 1.2009,2.4582 1.2009 4.2221c 0.0000,4.1658 -2.0641,5.6107 -3.4340 5.6107Z"/></g><g stroke-linejoin="miter" stroke-opacity="1.0" fill-opacity="0.5" stroke="rgb(102,102,102)" stroke-width="5.891221136784176" fill="rgb(255,0,0)" stroke-linecap="butt" stroke-miterlimit="10.0"><path d="M 209.6496,272.2146 c 0.0000,-4.6869 -3.7995,-8.4864 -8.4864 -8.4864c -4.6869,-0.0000 -8.4864,3.7995 -8.4864 8.4864c -0.0000,4.6869 3.7995,8.4864 8.4864 8.4864c 4.6869,0.0000 8.4864,-3.7995 8.4864 -8.4864Z"/></g><g stroke-linejoin="miter" stroke-opacity="1.0" fill-opacity="0.0" stroke="rgb(51,51,51)" stroke-width="1.9637403789280585" fill="rgb(0,0,0)" stroke-linecap="butt" stroke-miterlimit="10.0"><path d="M 201.1632,357.0784 v -84.8637 "/></g><g stroke-linejoin="miter" stroke-opacity="1.0" fill-opacity="0.0" stroke="rgb(51,51,51)" stroke-width="1.9637403789280585" fill="rgb(0,0,0)" stroke-linecap="butt" stroke-miterlimit="10.0"><path d="M 88.0115,272.2146 h 113.1517 "/></g><g stroke-linejoin="miter" stroke-opacity="1.0" fill-opacity="0.0" stroke="rgb(153,153,153)" stroke-width="3.927480757856117" fill="rgb(0,0,0)" stroke-linecap="butt" stroke-miterlimit="10.0"><path d="M 144.5874,45.9113 l 3.3945,19.9600 l 3.3945,19.1453 l 3.3945,18.3306 l 3.3945,17.5159 l 3.3945,16.7012 l 3.3945,15.8865 l 3.3945,15.0718 l 3.3945,14.2571 l 3.3945,13.4424 l 3.3945,12.6277 l 3.3945,11.8130 l 3.3945,10.9983 l 3.3945,10.1836 l 3.3945,9.3690 l 3.3945,8.5543 l 3.3945,7.7396 l 3.3945,6.9249 l 3.3945,6.1102 l 3.3945,5.2955 l 3.3945,4.4808 l 3.3945,3.6661 l 3.3945,2.8514 l 3.3945,2.0367 l 3.3945,1.2220 l 3.3945,0.4073 l 3.3945,-0.4073 l 3.3945,-1.2220 l 3.3945,-2.0367 l 3.3945,-2.8514 l 3.3945,-3.6661 l 3.3945,-4.4808 l 3.3945,-5.2955 l 3.3945,-6.1102 l 3.3945,-6.9249 l 3.3945,-7.7396 l 3.3945,-8.5543 l 3.3945,-9.3690 l 3.3945,-10.1836 l 3.3945,-10.9983 l 3.3945,-11.8130 l 3.3945,-12.6277 l 3.3945,-13.4424 l 3.3945,-14.2571 l 3.3945,-15.0718 l 3.3945,-15.8865 l 3.3945,-16.7012 l 3.3945,-17.5159 l 3.3945,-18.3306 l 3.3945,-19.1453 l 3.3945,-19.9600 "/></g><g stroke-linejoin="miter" stroke-opacity="1.0" fill-opacity="0.6" stroke="rgb(0,0,0)" fill-rule="evenodd" stroke-width="0.0" fill="rgb(0,0,0)" stroke-linecap="butt" stroke-miterlimit="10.0"><path d="M 178.6314,54.1021 ZM 184.4860,42.5618 c 0.0000,0.1407 -0.1689,0.2252 -0.3096 0.2252c -0.8444,-0.0000 -1.2103,0.1689 -1.2103 0.6192c 0.0000,0.1689 0.0563,0.3941 0.1689 0.6474l 3.0962,7.2620 l 3.1243,-7.1494 c 0.1407,-0.2533 0.1970,-0.4785 0.1970 -0.6474c 0.0000,-0.5911 -0.5629,-0.7318 -1.1822 -0.7318h -0.1126 c -0.1407,-0.0000 -0.2815,-0.1126 -0.2815 -0.1970v -0.5348 l 0.0563,-0.0844 c 0.0000,-0.0000 1.6607,0.0563 2.6458 0.0563c 0.7881,-0.0000 1.9422,-0.0563 1.9422 -0.0563l 0.0844,0.0563 v 0.5348 c 0.0000,0.1407 -0.1126,0.2252 -0.3096 0.2252c -1.0696,-0.0000 -1.6044,1.0977 -1.9984 1.9140c -1.4918,3.1525 -2.7303,6.0516 -4.9821 11.4840c -0.8444,2.0266 -1.8577,4.3910 -3.8562 4.3910c -0.5348,-0.0000 -1.6325,-0.3096 -1.6325 -1.3229c 0.0000,-0.8444 0.6192,-1.0977 1.0696 -1.0977c 0.4222,-0.0000 0.7037,0.1689 0.8726 0.3941c 0.2815,0.2815 0.4785,0.4785 0.7600 0.4785c 0.4222,-0.0000 1.4074,-2.4207 2.1110 -4.1376c 0.1689,-0.3378 0.2252,-0.6192 0.2252 -0.8726c 0.0000,-0.2815 -0.2533,-1.0414 -0.4785 -1.6044l -3.5465,-8.2471 c -0.4504,-1.0696 -0.7600,-1.3792 -1.7170 -1.3792c -0.1689,-0.0000 -0.2815,-0.0844 -0.2815 -0.1970v -0.5629 l 0.0563,-0.0563 c 0.0000,-0.0000 1.2385,0.0563 2.0829 0.0563c 1.3229,-0.0000 3.3495,-0.0563 3.3495 -0.0563l 0.0563,0.0844 v 0.5066 ZM 199.9951,54.1021 ZM 212.9709,45.1513 v 1.3792 h -11.1181 v -1.3792 h 11.1181 ZM 212.9709,45.1513 ZM 212.9709,48.6697 v 1.3792 h -11.1181 v -1.3792 h 11.1181 ZM 221.8654,54.1021 ZM 227.4104,42.7870 c -0.5629,-0.0000 -0.6755,0.1407 -0.6755 0.3378c 0.0000,0.1407 0.1126,0.3941 0.4222 0.9007l 1.7170,2.5332 c 0.0844,0.1689 0.1689,0.2533 0.2815 0.2533c 0.0844,-0.0000 0.1407,-0.0563 0.2533 -0.1970l 1.8296,-2.5614 c 0.3096,-0.3941 0.4785,-0.7037 0.4785 -0.9289c 0.0000,-0.2252 -0.1970,-0.3378 -0.5911 -0.3378h -0.4504 c -0.0844,-0.0000 -0.1689,-0.0563 -0.1689 -0.1970v -0.5348 l 0.0844,-0.0844 c 0.0000,-0.0000 1.3229,0.0563 2.1955 0.0563c 0.9007,-0.0000 2.2799,-0.0563 2.2799 -0.0563l 0.0281,0.0563 v 0.5348 c 0.0000,0.1970 -0.1689,0.2252 -0.3378 0.2252c -1.0414,-0.0000 -1.4637,0.3378 -2.5051 1.6607l -2.3644,3.0117 c -0.0563,0.0844 -0.0844,0.1407 -0.0844 0.1970c 0.0000,0.0563 0.0281,0.1407 0.0844 0.2252l 2.5332,3.5747 c 1.2948,1.8296 1.6607,1.8577 2.5614 1.8577c 0.2815,-0.0000 0.3941,0.0563 0.3941 0.2252v 0.5348 l -0.0281,0.0563 c 0.0000,-0.0000 -1.5199,-0.0563 -2.4770 -0.0563c -1.1540,-0.0000 -2.9273,0.0563 -2.9273 0.0563l -0.0563,-0.0563 v -0.5348 c 0.0000,-0.1407 0.0563,-0.2252 0.1970 -0.2252h 0.3378 c 0.4504,-0.0000 0.6474,-0.0844 0.6474 -0.3096c 0.0000,-0.2533 -0.3096,-0.6755 -0.7600 -1.2666l -1.6325,-2.2518 c -0.1126,-0.1407 -0.1689,-0.1970 -0.2533 -0.1970c -0.0563,-0.0000 -0.1407,0.0844 -0.2533 0.2533l -1.7733,2.5614 c -0.4222,0.5629 -0.5066,0.7037 -0.5066 0.9007c 0.0000,0.1970 0.1689,0.3096 0.5911 0.3096h 0.3941 c 0.1407,-0.0000 0.1970,0.0844 0.1970 0.2252v 0.5348 l -0.0563,0.0563 c 0.0000,-0.0000 -1.4637,-0.0563 -2.3644 -0.0563c -0.8163,-0.0000 -2.1110,0.0563 -2.1110 0.0563l -0.0563,-0.0563 v -0.4785 c 0.0000,-0.1689 0.1126,-0.2815 0.3659 -0.2815c 0.6755,-0.0000 1.3229,-0.1407 2.5051 -1.6607l 2.3644,-3.0399 c 0.0281,-0.0563 0.0563,-0.1126 0.0563 -0.1970c 0.0000,-0.0844 -0.0281,-0.1407 -0.0844 -0.2252l -2.4488,-3.5747 c -0.7881,-1.1540 -1.2948,-1.8296 -2.2799 -1.8296c -0.1970,-0.0000 -0.3941,-0.0844 -0.3941 -0.1970v -0.5348 l 0.0563,-0.0844 l 2.2236,0.0563 l 3.1243,-0.0563 l 0.0844,0.0844 v 0.5066 c 0.0000,0.1407 -0.1126,0.2252 -0.2252 0.2252h -0.4222 ZM 235.8546,54.1021 ZM 237.9093,37.5797 c -0.3378,-0.0000 -0.7318,-0.3096 -0.7318 -0.6755c 0.0000,-0.7318 0.7881,-2.1673 3.0117 -2.1673c 1.4074,-0.0000 3.0399,0.5348 3.0399 2.3362c 0.0000,1.2948 -0.9570,2.2236 -2.5051 3.3495c -1.1822,0.8444 -1.8577,1.6607 -1.8577 2.5332h 2.2799 c 0.8726,-0.0000 1.3229,-1.0977 1.6325 -1.8859l 0.6755,0.1407 c -0.2533,0.8444 -0.4504,1.8296 -0.5348 2.6458h -5.7983 c 0.0000,-1.3511 1.2385,-2.5332 2.5614 -3.5747c 1.2666,-1.0133 1.8859,-1.6607 1.8859 -3.1806c 0.0000,-1.3229 -0.9852,-1.6888 -1.4918 -1.6888c -1.2103,-0.0000 -1.5199,0.4504 -1.5199 0.8163c 0.0000,0.2533 0.1407,0.4504 0.1407 0.6755c 0.0000,0.4504 -0.5066,0.6755 -0.7881 0.6755ZM 251.5326,54.1021 ZM 259.2449,47.4594 h -6.3613 c -0.2533,-0.0000 -0.4222,-0.2252 -0.4222 -0.4785c 0.0000,-0.4504 0.3659,-1.0414 0.7037 -1.0414h 6.4457 c 0.2815,-0.0000 0.3941,0.2533 0.3941 0.5066c 0.0000,0.3096 -0.3941,1.0133 -0.7600 1.0133ZM 267.9424,54.1021 ZM 274.0222,38.7056 c -0.7037,-0.0000 -2.7584,0.3941 -2.7584 2.1110c 0.0000,0.5066 -0.1970,1.3792 -0.9570 1.3792c -0.7318,-0.0000 -0.7881,-0.8163 -0.7881 -0.9007c 0.0000,-0.8726 1.1540,-3.4621 5.0665 -3.4621c 2.7303,-0.0000 3.5465,1.7170 3.5465 2.8429c 0.0000,0.7037 -0.2252,2.1110 -2.7584 3.7154c 1.5762,0.2533 3.6591,1.4074 3.6591 4.3347c 0.0000,3.7154 -2.8147,5.7139 -5.9953 5.7139c -1.6044,-0.0000 -3.8562,-0.7037 -3.8562 -1.7733c 0.0000,-0.4222 0.4222,-0.9007 0.9852 -0.9007c 0.5348,-0.0000 0.7881,0.2815 1.0414 0.6474c 0.3096,0.4785 0.8163,1.1540 2.1673 1.1540c 0.9289,-0.0000 3.5747,-0.9289 3.5747 -4.4754c 0.0000,-3.0117 -2.1110,-3.4903 -3.6310 -3.4903c -0.2533,-0.0000 -0.5629,0.0563 -0.8726 0.1126l -0.1126,-0.8444 c 2.1673,-0.3659 3.9688,-2.4770 3.9688 -3.7717c 0.0000,-1.6044 -1.1259,-2.3925 -2.2799 -2.3925Z"/></g><g stroke-linejoin="miter" stroke-opacity="0.0" fill-opacity="0.0" stroke="rgb(0,0,0)" stroke-width="0.0" fill="rgb(0,0,0)" stroke-linecap="butt" stroke-miterlimit="10.0"><path d="M 370.8907,357.0784 l -0.0000,-282.8792 h -282.8792 l -0.0000,282.8792 Z"/></g><g stroke-linejoin="miter" stroke-opacity="0.7" fill-opacity="0.0" stroke="rgb(48,189,227)" stroke-width="0.7854961515712234" fill="rgb(0,0,0)" stroke-linecap="butt" stroke-miterlimit="10.0"><path d="M 88.0115,74.1992 h 282.8792 "/></g><g stroke-linejoin="miter" stroke-opacity="0.7" fill-opacity="0.0" stroke="rgb(48,189,227)" stroke-width="0.7854961515712234" fill="rgb(0,0,0)" stroke-linecap="butt" stroke-miterlimit="10.0"><path d="M 88.0115,79.8568 h 282.8792 "/></g><g stroke-linejoin="miter" stroke-opacity="0.7" fill-opacity="0.0" stroke="rgb(48,189,227)" stroke-width="0.7854961515712234" fill="rgb(0,0,0)" stroke-linecap="butt" stroke-miterlimit="10.0"><path d="M 88.0115,85.5144 h 282.8792 "/></g><g stroke-linejoin="miter" stroke-opacity="0.7" fill-opacity="0.0" stroke="rgb(48,189,227)" stroke-width="0.7854961515712234" fill="rgb(0,0,0)" stroke-linecap="butt" stroke-miterlimit="10.0"><path d="M 88.0115,91.1720 h 282.8792 "/></g><g stroke-linejoin="miter" stroke-opacity="0.7" fill-opacity="0.0" stroke="rgb(48,189,227)" stroke-width="0.7854961515712234" fill="rgb(0,0,0)" stroke-linecap="butt" stroke-miterlimit="10.0"><path d="M 88.0115,96.8295 h 282.8792 "/></g><g stroke-linejoin="miter" stroke-opacity="0.7" fill-opacity="0.0" stroke="rgb(48,189,227)" stroke-width="0.7854961515712234" fill="rgb(0,0,0)" stroke-linecap="butt" stroke-miterlimit="10.0"><path d="M 88.0115,102.4871 h 282.8792 "/></g><g stroke-linejoin="miter" stroke-opacity="0.7" fill-opacity="0.0" stroke="rgb(48,189,227)" stroke-width="0.7854961515712234" fill="rgb(0,0,0)" stroke-linecap="butt" stroke-miterlimit="10.0"><path d="M 88.0115,108.1447 h 282.8792 "/></g><g stroke-linejoin="miter" stroke-opacity="0.7" fill-opacity="0.0" stroke="rgb(48,189,227)" stroke-width="0.7854961515712234" fill="rgb(0,0,0)" stroke-linecap="butt" stroke-miterlimit="10.0"><path d="M 88.0115,113.8023 h 282.8792 "/></g><g stroke-linejoin="miter" stroke-opacity="0.7" fill-opacity="0.0" stroke="rgb(48,189,227)" stroke-width="0.7854961515712234" fill="rgb(0,0,0)" stroke-linecap="butt" stroke-miterlimit="10.0"><path d="M 88.0115,119.4599 h 282.8792 "/></g><g stroke-linejoin="miter" stroke-opacity="0.7" fill-opacity="0.0" stroke="rgb(48,189,227)" stroke-width="0.7854961515712234" fill="rgb(0,0,0)" stroke-linecap="butt" stroke-miterlimit="10.0"><path d="M 88.0115,125.1175 h 282.8792 "/></g><g stroke-linejoin="miter" stroke-opacity="0.7" fill-opacity="0.0" stroke="rgb(48,189,227)" stroke-width="0.7854961515712234" fill="rgb(0,0,0)" stroke-linecap="butt" stroke-miterlimit="10.0"><path d="M 88.0115,130.7750 h 282.8792 "/></g><g stroke-linejoin="miter" stroke-opacity="0.7" fill-opacity="0.0" stroke="rgb(48,189,227)" stroke-width="0.7854961515712234" fill="rgb(0,0,0)" stroke-linecap="butt" stroke-miterlimit="10.0"><path d="M 88.0115,136.4326 h 282.8792 "/></g><g stroke-linejoin="miter" stroke-opacity="0.7" fill-opacity="0.0" stroke="rgb(48,189,227)" stroke-width="0.7854961515712234" fill="rgb(0,0,0)" stroke-linecap="butt" stroke-miterlimit="10.0"><path d="M 88.0115,142.0902 h 282.8792 "/></g><g stroke-linejoin="miter" stroke-opacity="0.7" fill-opacity="0.0" stroke="rgb(48,189,227)" stroke-width="0.7854961515712234" fill="rgb(0,0,0)" stroke-linecap="butt" stroke-miterlimit="10.0"><path d="M 88.0115,147.7478 h 282.8792 "/></g><g stroke-linejoin="miter" stroke-opacity="0.7" fill-opacity="0.0" stroke="rgb(48,189,227)" stroke-width="0.7854961515712234" fill="rgb(0,0,0)" stroke-linecap="butt" stroke-miterlimit="10.0"><path d="M 88.0115,153.4054 h 282.8792 "/></g><g stroke-linejoin="miter" stroke-opacity="0.7" fill-opacity="0.0" stroke="rgb(48,189,227)" stroke-width="0.7854961515712234" fill="rgb(0,0,0)" stroke-linecap="butt" stroke-miterlimit="10.0"><path d="M 88.0115,159.0630 h 282.8792 "/></g><g stroke-linejoin="miter" stroke-opacity="0.7" fill-opacity="0.0" stroke="rgb(48,189,227)" stroke-width="0.7854961515712234" fill="rgb(0,0,0)" stroke-linecap="butt" stroke-miterlimit="10.0"><path d="M 88.0115,164.7205 h 282.8792 "/></g><g stroke-linejoin="miter" stroke-opacity="0.7" fill-opacity="0.0" stroke="rgb(48,189,227)" stroke-width="0.7854961515712234" fill="rgb(0,0,0)" stroke-linecap="butt" stroke-miterlimit="10.0"><path d="M 88.0115,170.3781 h 282.8792 "/></g><g stroke-linejoin="miter" stroke-opacity="0.7" fill-opacity="0.0" stroke="rgb(48,189,227)" stroke-width="0.7854961515712234" fill="rgb(0,0,0)" stroke-linecap="butt" stroke-miterlimit="10.0"><path d="M 88.0115,176.0357 h 282.8792 "/></g><g stroke-linejoin="miter" stroke-opacity="0.7" fill-opacity="0.0" stroke="rgb(48,189,227)" stroke-width="0.7854961515712234" fill="rgb(0,0,0)" stroke-linecap="butt" stroke-miterlimit="10.0"><path d="M 88.0115,181.6933 h 282.8792 "/></g><g stroke-linejoin="miter" stroke-opacity="0.7" fill-opacity="0.0" stroke="rgb(48,189,227)" stroke-width="0.7854961515712234" fill="rgb(0,0,0)" stroke-linecap="butt" stroke-miterlimit="10.0"><path d="M 88.0115,187.3509 h 282.8792 "/></g><g stroke-linejoin="miter" stroke-opacity="0.7" fill-opacity="0.0" stroke="rgb(48,189,227)" stroke-width="0.7854961515712234" fill="rgb(0,0,0)" stroke-linecap="butt" stroke-miterlimit="10.0"><path d="M 88.0115,193.0085 h 282.8792 "/></g><g stroke-linejoin="miter" stroke-opacity="0.7" fill-opacity="0.0" stroke="rgb(48,189,227)" stroke-width="0.7854961515712234" fill="rgb(0,0,0)" stroke-linecap="butt" stroke-miterlimit="10.0"><path d="M 88.0115,198.6660 h 282.8792 "/></g><g stroke-linejoin="miter" stroke-opacity="0.7" fill-opacity="0.0" stroke="rgb(48,189,227)" stroke-width="0.7854961515712234" fill="rgb(0,0,0)" stroke-linecap="butt" stroke-miterlimit="10.0"><path d="M 88.0115,204.3236 h 282.8792 "/></g><g stroke-linejoin="miter" stroke-opacity="0.7" fill-opacity="0.0" stroke="rgb(48,189,227)" stroke-width="0.7854961515712234" fill="rgb(0,0,0)" stroke-linecap="butt" stroke-miterlimit="10.0"><path d="M 88.0115,209.9812 h 282.8792 "/></g><g stroke-linejoin="miter" stroke-opacity="0.7" fill-opacity="0.0" stroke="rgb(48,189,227)" stroke-width="0.7854961515712234" fill="rgb(0,0,0)" stroke-linecap="butt" stroke-miterlimit="10.0"><path d="M 88.0115,215.6388 h 282.8792 "/></g><g stroke-linejoin="miter" stroke-opacity="0.7" fill-opacity="0.0" stroke="rgb(48,189,227)" stroke-width="0.7854961515712234" fill="rgb(0,0,0)" stroke-linecap="butt" stroke-miterlimit="10.0"><path d="M 88.0115,221.2964 h 282.8792 "/></g><g stroke-linejoin="miter" stroke-opacity="0.7" fill-opacity="0.0" stroke="rgb(48,189,227)" stroke-width="0.7854961515712234" fill="rgb(0,0,0)" stroke-linecap="butt" stroke-miterlimit="10.0"><path d="M 88.0115,226.9540 h 282.8792 "/></g><g stroke-linejoin="miter" stroke-opacity="0.7" fill-opacity="0.0" stroke="rgb(48,189,227)" stroke-width="0.7854961515712234" fill="rgb(0,0,0)" stroke-linecap="butt" stroke-miterlimit="10.0"><path d="M 88.0115,232.6115 h 282.8792 "/></g><g stroke-linejoin="miter" stroke-opacity="0.7" fill-opacity="0.0" stroke="rgb(48,189,227)" stroke-width="0.7854961515712234" fill="rgb(0,0,0)" stroke-linecap="butt" stroke-miterlimit="10.0"><path d="M 88.0115,238.2691 h 282.8792 "/></g><g stroke-linejoin="miter" stroke-opacity="0.7" fill-opacity="0.0" stroke="rgb(48,189,227)" stroke-width="0.7854961515712234" fill="rgb(0,0,0)" stroke-linecap="butt" stroke-miterlimit="10.0"><path d="M 88.0115,243.9267 h 282.8792 "/></g><g stroke-linejoin="miter" stroke-opacity="0.7" fill-opacity="0.0" stroke="rgb(48,189,227)" stroke-width="0.7854961515712234" fill="rgb(0,0,0)" stroke-linecap="butt" stroke-miterlimit="10.0"><path d="M 88.0115,249.5843 h 282.8792 "/></g><g stroke-linejoin="miter" stroke-opacity="0.7" fill-opacity="0.0" stroke="rgb(48,189,227)" stroke-width="0.7854961515712234" fill="rgb(0,0,0)" stroke-linecap="butt" stroke-miterlimit="10.0"><path d="M 88.0115,255.2419 h 282.8792 "/></g><g stroke-linejoin="miter" stroke-opacity="0.7" fill-opacity="0.0" stroke="rgb(48,189,227)" stroke-width="0.7854961515712234" fill="rgb(0,0,0)" stroke-linecap="butt" stroke-miterlimit="10.0"><path d="M 88.0115,260.8995 h 282.8792 "/></g><g stroke-linejoin="miter" stroke-opacity="0.7" fill-opacity="0.0" stroke="rgb(48,189,227)" stroke-width="0.7854961515712234" fill="rgb(0,0,0)" stroke-linecap="butt" stroke-miterlimit="10.0"><path d="M 88.0115,266.5570 h 282.8792 "/></g><g stroke-linejoin="miter" stroke-opacity="0.7" fill-opacity="0.0" stroke="rgb(48,189,227)" stroke-width="0.7854961515712234" fill="rgb(0,0,0)" stroke-linecap="butt" stroke-miterlimit="10.0"><path d="M 88.0115,272.2146 h 282.8792 "/></g><g stroke-linejoin="miter" stroke-opacity="0.7" fill-opacity="0.0" stroke="rgb(48,189,227)" stroke-width="0.7854961515712234" fill="rgb(0,0,0)" stroke-linecap="butt" stroke-miterlimit="10.0"><path d="M 88.0115,277.8722 h 282.8792 "/></g><g stroke-linejoin="miter" stroke-opacity="0.7" fill-opacity="0.0" stroke="rgb(48,189,227)" stroke-width="0.7854961515712234" fill="rgb(0,0,0)" stroke-linecap="butt" stroke-miterlimit="10.0"><path d="M 88.0115,283.5298 h 282.8792 "/></g><g stroke-linejoin="miter" stroke-opacity="0.7" fill-opacity="0.0" stroke="rgb(48,189,227)" stroke-width="0.7854961515712234" fill="rgb(0,0,0)" stroke-linecap="butt" stroke-miterlimit="10.0"><path d="M 88.0115,289.1874 h 282.8792 "/></g><g stroke-linejoin="miter" stroke-opacity="0.7" fill-opacity="0.0" stroke="rgb(48,189,227)" stroke-width="0.7854961515712234" fill="rgb(0,0,0)" stroke-linecap="butt" stroke-miterlimit="10.0"><path d="M 88.0115,294.8449 h 282.8792 "/></g><g stroke-linejoin="miter" stroke-opacity="0.7" fill-opacity="0.0" stroke="rgb(48,189,227)" stroke-width="0.7854961515712234" fill="rgb(0,0,0)" stroke-linecap="butt" stroke-miterlimit="10.0"><path d="M 88.0115,300.5025 h 282.8792 "/></g><g stroke-linejoin="miter" stroke-opacity="0.7" fill-opacity="0.0" stroke="rgb(48,189,227)" stroke-width="0.7854961515712234" fill="rgb(0,0,0)" stroke-linecap="butt" stroke-miterlimit="10.0"><path d="M 88.0115,306.1601 h 282.8792 "/></g><g stroke-linejoin="miter" stroke-opacity="0.7" fill-opacity="0.0" stroke="rgb(48,189,227)" stroke-width="0.7854961515712234" fill="rgb(0,0,0)" stroke-linecap="butt" stroke-miterlimit="10.0"><path d="M 88.0115,311.8177 h 282.8792 "/></g><g stroke-linejoin="miter" stroke-opacity="0.7" fill-opacity="0.0" stroke="rgb(48,189,227)" stroke-width="0.7854961515712234" fill="rgb(0,0,0)" stroke-linecap="butt" stroke-miterlimit="10.0"><path d="M 88.0115,317.4753 h 282.8792 "/></g><g stroke-linejoin="miter" stroke-opacity="0.7" fill-opacity="0.0" stroke="rgb(48,189,227)" stroke-width="0.7854961515712234" fill="rgb(0,0,0)" stroke-linecap="butt" stroke-miterlimit="10.0"><path d="M 88.0115,323.1329 h 282.8792 "/></g><g stroke-linejoin="miter" stroke-opacity="0.7" fill-opacity="0.0" stroke="rgb(48,189,227)" stroke-width="0.7854961515712234" fill="rgb(0,0,0)" stroke-linecap="butt" stroke-miterlimit="10.0"><path d="M 88.0115,328.7904 h 282.8792 "/></g><g stroke-linejoin="miter" stroke-opacity="0.7" fill-opacity="0.0" stroke="rgb(48,189,227)" stroke-width="0.7854961515712234" fill="rgb(0,0,0)" stroke-linecap="butt" stroke-miterlimit="10.0"><path d="M 88.0115,334.4480 h 282.8792 "/></g><g stroke-linejoin="miter" stroke-opacity="0.7" fill-opacity="0.0" stroke="rgb(48,189,227)" stroke-width="0.7854961515712234" fill="rgb(0,0,0)" stroke-linecap="butt" stroke-miterlimit="10.0"><path d="M 88.0115,340.1056 h 282.8792 "/></g><g stroke-linejoin="miter" stroke-opacity="0.7" fill-opacity="0.0" stroke="rgb(48,189,227)" stroke-width="0.7854961515712234" fill="rgb(0,0,0)" stroke-linecap="butt" stroke-miterlimit="10.0"><path d="M 88.0115,345.7632 h 282.8792 "/></g><g stroke-linejoin="miter" stroke-opacity="0.7" fill-opacity="0.0" stroke="rgb(48,189,227)" stroke-width="0.7854961515712234" fill="rgb(0,0,0)" stroke-linecap="butt" stroke-miterlimit="10.0"><path d="M 88.0115,351.4208 h 282.8792 "/></g><g stroke-linejoin="miter" stroke-opacity="0.7" fill-opacity="0.0" stroke="rgb(48,189,227)" stroke-width="0.7854961515712234" fill="rgb(0,0,0)" stroke-linecap="butt" stroke-miterlimit="10.0"><path d="M 88.0115,357.0784 h 282.8792 "/></g><g stroke-linejoin="miter" stroke-opacity="0.7" fill-opacity="0.0" stroke="rgb(48,189,227)" stroke-width="0.7854961515712234" fill="rgb(0,0,0)" stroke-linecap="butt" stroke-miterlimit="10.0"><path d="M 370.8907,357.0784 v -282.8792 "/></g><g stroke-linejoin="miter" stroke-opacity="0.7" fill-opacity="0.0" stroke="rgb(48,189,227)" stroke-width="0.7854961515712234" fill="rgb(0,0,0)" stroke-linecap="butt" stroke-miterlimit="10.0"><path d="M 365.2331,357.0784 v -282.8792 "/></g><g stroke-linejoin="miter" stroke-opacity="0.7" fill-opacity="0.0" stroke="rgb(48,189,227)" stroke-width="0.7854961515712234" fill="rgb(0,0,0)" stroke-linecap="butt" stroke-miterlimit="10.0"><path d="M 359.5755,357.0784 v -282.8792 "/></g><g stroke-linejoin="miter" stroke-opacity="0.7" fill-opacity="0.0" stroke="rgb(48,189,227)" stroke-width="0.7854961515712234" fill="rgb(0,0,0)" stroke-linecap="butt" stroke-miterlimit="10.0"><path d="M 353.9179,357.0784 v -282.8792 "/></g><g stroke-linejoin="miter" stroke-opacity="0.7" fill-opacity="0.0" stroke="rgb(48,189,227)" stroke-width="0.7854961515712234" fill="rgb(0,0,0)" stroke-linecap="butt" stroke-miterlimit="10.0"><path d="M 348.2603,357.0784 v -282.8792 "/></g><g stroke-linejoin="miter" stroke-opacity="0.7" fill-opacity="0.0" stroke="rgb(48,189,227)" stroke-width="0.7854961515712234" fill="rgb(0,0,0)" stroke-linecap="butt" stroke-miterlimit="10.0"><path d="M 342.6028,357.0784 v -282.8792 "/></g><g stroke-linejoin="miter" stroke-opacity="0.7" fill-opacity="0.0" stroke="rgb(48,189,227)" stroke-width="0.7854961515712234" fill="rgb(0,0,0)" stroke-linecap="butt" stroke-miterlimit="10.0"><path d="M 336.9452,357.0784 v -282.8792 "/></g><g stroke-linejoin="miter" stroke-opacity="0.7" fill-opacity="0.0" stroke="rgb(48,189,227)" stroke-width="0.7854961515712234" fill="rgb(0,0,0)" stroke-linecap="butt" stroke-miterlimit="10.0"><path d="M 331.2876,357.0784 v -282.8792 "/></g><g stroke-linejoin="miter" stroke-opacity="0.7" fill-opacity="0.0" stroke="rgb(48,189,227)" stroke-width="0.7854961515712234" fill="rgb(0,0,0)" stroke-linecap="butt" stroke-miterlimit="10.0"><path d="M 325.6300,357.0784 v -282.8792 "/></g><g stroke-linejoin="miter" stroke-opacity="0.7" fill-opacity="0.0" stroke="rgb(48,189,227)" stroke-width="0.7854961515712234" fill="rgb(0,0,0)" stroke-linecap="butt" stroke-miterlimit="10.0"><path d="M 319.9724,357.0784 v -282.8792 "/></g><g stroke-linejoin="miter" stroke-opacity="0.7" fill-opacity="0.0" stroke="rgb(48,189,227)" stroke-width="0.7854961515712234" fill="rgb(0,0,0)" stroke-linecap="butt" stroke-miterlimit="10.0"><path d="M 314.3148,357.0784 v -282.8792 "/></g><g stroke-linejoin="miter" stroke-opacity="0.7" fill-opacity="0.0" stroke="rgb(48,189,227)" stroke-width="0.7854961515712234" fill="rgb(0,0,0)" stroke-linecap="butt" stroke-miterlimit="10.0"><path d="M 308.6573,357.0784 v -282.8792 "/></g><g stroke-linejoin="miter" stroke-opacity="0.7" fill-opacity="0.0" stroke="rgb(48,189,227)" stroke-width="0.7854961515712234" fill="rgb(0,0,0)" stroke-linecap="butt" stroke-miterlimit="10.0"><path d="M 302.9997,357.0784 v -282.8792 "/></g><g stroke-linejoin="miter" stroke-opacity="0.7" fill-opacity="0.0" stroke="rgb(48,189,227)" stroke-width="0.7854961515712234" fill="rgb(0,0,0)" stroke-linecap="butt" stroke-miterlimit="10.0"><path d="M 297.3421,357.0784 v -282.8792 "/></g><g stroke-linejoin="miter" stroke-opacity="0.7" fill-opacity="0.0" stroke="rgb(48,189,227)" stroke-width="0.7854961515712234" fill="rgb(0,0,0)" stroke-linecap="butt" stroke-miterlimit="10.0"><path d="M 291.6845,357.0784 v -282.8792 "/></g><g stroke-linejoin="miter" stroke-opacity="0.7" fill-opacity="0.0" stroke="rgb(48,189,227)" stroke-width="0.7854961515712234" fill="rgb(0,0,0)" stroke-linecap="butt" stroke-miterlimit="10.0"><path d="M 286.0269,357.0784 v -282.8792 "/></g><g stroke-linejoin="miter" stroke-opacity="0.7" fill-opacity="0.0" stroke="rgb(48,189,227)" stroke-width="0.7854961515712234" fill="rgb(0,0,0)" stroke-linecap="butt" stroke-miterlimit="10.0"><path d="M 280.3693,357.0784 v -282.8792 "/></g><g stroke-linejoin="miter" stroke-opacity="0.7" fill-opacity="0.0" stroke="rgb(48,189,227)" stroke-width="0.7854961515712234" fill="rgb(0,0,0)" stroke-linecap="butt" stroke-miterlimit="10.0"><path d="M 274.7118,357.0784 v -282.8792 "/></g><g stroke-linejoin="miter" stroke-opacity="0.7" fill-opacity="0.0" stroke="rgb(48,189,227)" stroke-width="0.7854961515712234" fill="rgb(0,0,0)" stroke-linecap="butt" stroke-miterlimit="10.0"><path d="M 269.0542,357.0784 v -282.8792 "/></g><g stroke-linejoin="miter" stroke-opacity="0.7" fill-opacity="0.0" stroke="rgb(48,189,227)" stroke-width="0.7854961515712234" fill="rgb(0,0,0)" stroke-linecap="butt" stroke-miterlimit="10.0"><path d="M 263.3966,357.0784 v -282.8792 "/></g><g stroke-linejoin="miter" stroke-opacity="0.7" fill-opacity="0.0" stroke="rgb(48,189,227)" stroke-width="0.7854961515712234" fill="rgb(0,0,0)" stroke-linecap="butt" stroke-miterlimit="10.0"><path d="M 257.7390,357.0784 v -282.8792 "/></g><g stroke-linejoin="miter" stroke-opacity="0.7" fill-opacity="0.0" stroke="rgb(48,189,227)" stroke-width="0.7854961515712234" fill="rgb(0,0,0)" stroke-linecap="butt" stroke-miterlimit="10.0"><path d="M 252.0814,357.0784 v -282.8792 "/></g><g stroke-linejoin="miter" stroke-opacity="0.7" fill-opacity="0.0" stroke="rgb(48,189,227)" stroke-width="0.7854961515712234" fill="rgb(0,0,0)" stroke-linecap="butt" stroke-miterlimit="10.0"><path d="M 246.4238,357.0784 v -282.8792 "/></g><g stroke-linejoin="miter" stroke-opacity="0.7" fill-opacity="0.0" stroke="rgb(48,189,227)" stroke-width="0.7854961515712234" fill="rgb(0,0,0)" stroke-linecap="butt" stroke-miterlimit="10.0"><path d="M 240.7663,357.0784 v -282.8792 "/></g><g stroke-linejoin="miter" stroke-opacity="0.7" fill-opacity="0.0" stroke="rgb(48,189,227)" stroke-width="0.7854961515712234" fill="rgb(0,0,0)" stroke-linecap="butt" stroke-miterlimit="10.0"><path d="M 235.1087,357.0784 v -282.8792 "/></g><g stroke-linejoin="miter" stroke-opacity="0.7" fill-opacity="0.0" stroke="rgb(48,189,227)" stroke-width="0.7854961515712234" fill="rgb(0,0,0)" stroke-linecap="butt" stroke-miterlimit="10.0"><path d="M 229.4511,357.0784 v -282.8792 "/></g><g stroke-linejoin="miter" stroke-opacity="0.7" fill-opacity="0.0" stroke="rgb(48,189,227)" stroke-width="0.7854961515712234" fill="rgb(0,0,0)" stroke-linecap="butt" stroke-miterlimit="10.0"><path d="M 223.7935,357.0784 v -282.8792 "/></g><g stroke-linejoin="miter" stroke-opacity="0.7" fill-opacity="0.0" stroke="rgb(48,189,227)" stroke-width="0.7854961515712234" fill="rgb(0,0,0)" stroke-linecap="butt" stroke-miterlimit="10.0"><path d="M 218.1359,357.0784 v -282.8792 "/></g><g stroke-linejoin="miter" stroke-opacity="0.7" fill-opacity="0.0" stroke="rgb(48,189,227)" stroke-width="0.7854961515712234" fill="rgb(0,0,0)" stroke-linecap="butt" stroke-miterlimit="10.0"><path d="M 212.4783,357.0784 v -282.8792 "/></g><g stroke-linejoin="miter" stroke-opacity="0.7" fill-opacity="0.0" stroke="rgb(48,189,227)" stroke-width="0.7854961515712234" fill="rgb(0,0,0)" stroke-linecap="butt" stroke-miterlimit="10.0"><path d="M 206.8208,357.0784 v -282.8792 "/></g><g stroke-linejoin="miter" stroke-opacity="0.7" fill-opacity="0.0" stroke="rgb(48,189,227)" stroke-width="0.7854961515712234" fill="rgb(0,0,0)" stroke-linecap="butt" stroke-miterlimit="10.0"><path d="M 201.1632,357.0784 v -282.8792 "/></g><g stroke-linejoin="miter" stroke-opacity="0.7" fill-opacity="0.0" stroke="rgb(48,189,227)" stroke-width="0.7854961515712234" fill="rgb(0,0,0)" stroke-linecap="butt" stroke-miterlimit="10.0"><path d="M 195.5056,357.0784 v -282.8792 "/></g><g stroke-linejoin="miter" stroke-opacity="0.7" fill-opacity="0.0" stroke="rgb(48,189,227)" stroke-width="0.7854961515712234" fill="rgb(0,0,0)" stroke-linecap="butt" stroke-miterlimit="10.0"><path d="M 189.8480,357.0784 v -282.8792 "/></g><g stroke-linejoin="miter" stroke-opacity="0.7" fill-opacity="0.0" stroke="rgb(48,189,227)" stroke-width="0.7854961515712234" fill="rgb(0,0,0)" stroke-linecap="butt" stroke-miterlimit="10.0"><path d="M 184.1904,357.0784 v -282.8792 "/></g><g stroke-linejoin="miter" stroke-opacity="0.7" fill-opacity="0.0" stroke="rgb(48,189,227)" stroke-width="0.7854961515712234" fill="rgb(0,0,0)" stroke-linecap="butt" stroke-miterlimit="10.0"><path d="M 178.5328,357.0784 v -282.8792 "/></g><g stroke-linejoin="miter" stroke-opacity="0.7" fill-opacity="0.0" stroke="rgb(48,189,227)" stroke-width="0.7854961515712234" fill="rgb(0,0,0)" stroke-linecap="butt" stroke-miterlimit="10.0"><path d="M 172.8753,357.0784 v -282.8792 "/></g><g stroke-linejoin="miter" stroke-opacity="0.7" fill-opacity="0.0" stroke="rgb(48,189,227)" stroke-width="0.7854961515712234" fill="rgb(0,0,0)" stroke-linecap="butt" stroke-miterlimit="10.0"><path d="M 167.2177,357.0784 v -282.8792 "/></g><g stroke-linejoin="miter" stroke-opacity="0.7" fill-opacity="0.0" stroke="rgb(48,189,227)" stroke-width="0.7854961515712234" fill="rgb(0,0,0)" stroke-linecap="butt" stroke-miterlimit="10.0"><path d="M 161.5601,357.0784 v -282.8792 "/></g><g stroke-linejoin="miter" stroke-opacity="0.7" fill-opacity="0.0" stroke="rgb(48,189,227)" stroke-width="0.7854961515712234" fill="rgb(0,0,0)" stroke-linecap="butt" stroke-miterlimit="10.0"><path d="M 155.9025,357.0784 v -282.8792 "/></g><g stroke-linejoin="miter" stroke-opacity="0.7" fill-opacity="0.0" stroke="rgb(48,189,227)" stroke-width="0.7854961515712234" fill="rgb(0,0,0)" stroke-linecap="butt" stroke-miterlimit="10.0"><path d="M 150.2449,357.0784 v -282.8792 "/></g><g stroke-linejoin="miter" stroke-opacity="0.7" fill-opacity="0.0" stroke="rgb(48,189,227)" stroke-width="0.7854961515712234" fill="rgb(0,0,0)" stroke-linecap="butt" stroke-miterlimit="10.0"><path d="M 144.5874,357.0784 v -282.8792 "/></g><g stroke-linejoin="miter" stroke-opacity="0.7" fill-opacity="0.0" stroke="rgb(48,189,227)" stroke-width="0.7854961515712234" fill="rgb(0,0,0)" stroke-linecap="butt" stroke-miterlimit="10.0"><path d="M 138.9298,357.0784 v -282.8792 "/></g><g stroke-linejoin="miter" stroke-opacity="0.7" fill-opacity="0.0" stroke="rgb(48,189,227)" stroke-width="0.7854961515712234" fill="rgb(0,0,0)" stroke-linecap="butt" stroke-miterlimit="10.0"><path d="M 133.2722,357.0784 v -282.8792 "/></g><g stroke-linejoin="miter" stroke-opacity="0.7" fill-opacity="0.0" stroke="rgb(48,189,227)" stroke-width="0.7854961515712234" fill="rgb(0,0,0)" stroke-linecap="butt" stroke-miterlimit="10.0"><path d="M 127.6146,357.0784 v -282.8792 "/></g><g stroke-linejoin="miter" stroke-opacity="0.7" fill-opacity="0.0" stroke="rgb(48,189,227)" stroke-width="0.7854961515712234" fill="rgb(0,0,0)" stroke-linecap="butt" stroke-miterlimit="10.0"><path d="M 121.9570,357.0784 v -282.8792 "/></g><g stroke-linejoin="miter" stroke-opacity="0.7" fill-opacity="0.0" stroke="rgb(48,189,227)" stroke-width="0.7854961515712234" fill="rgb(0,0,0)" stroke-linecap="butt" stroke-miterlimit="10.0"><path d="M 116.2994,357.0784 v -282.8792 "/></g><g stroke-linejoin="miter" stroke-opacity="0.7" fill-opacity="0.0" stroke="rgb(48,189,227)" stroke-width="0.7854961515712234" fill="rgb(0,0,0)" stroke-linecap="butt" stroke-miterlimit="10.0"><path d="M 110.6419,357.0784 v -282.8792 "/></g><g stroke-linejoin="miter" stroke-opacity="0.7" fill-opacity="0.0" stroke="rgb(48,189,227)" stroke-width="0.7854961515712234" fill="rgb(0,0,0)" stroke-linecap="butt" stroke-miterlimit="10.0"><path d="M 104.9843,357.0784 v -282.8792 "/></g><g stroke-linejoin="miter" stroke-opacity="0.7" fill-opacity="0.0" stroke="rgb(48,189,227)" stroke-width="0.7854961515712234" fill="rgb(0,0,0)" stroke-linecap="butt" stroke-miterlimit="10.0"><path d="M 99.3267,357.0784 v -282.8792 "/></g><g stroke-linejoin="miter" stroke-opacity="0.7" fill-opacity="0.0" stroke="rgb(48,189,227)" stroke-width="0.7854961515712234" fill="rgb(0,0,0)" stroke-linecap="butt" stroke-miterlimit="10.0"><path d="M 93.6691,357.0784 v -282.8792 "/></g><g stroke-linejoin="miter" stroke-opacity="0.7" fill-opacity="0.0" stroke="rgb(48,189,227)" stroke-width="0.7854961515712234" fill="rgb(0,0,0)" stroke-linecap="butt" stroke-miterlimit="10.0"><path d="M 88.0115,357.0784 v -282.8792 "/></g><g stroke-linejoin="miter" stroke-opacity="0.7" fill-opacity="0.0" stroke="rgb(48,189,227)" stroke-width="1.9637403789280585" fill="rgb(0,0,0)" stroke-linecap="butt" stroke-miterlimit="10.0"><path d="M 88.0115,74.1992 h 282.8792 "/></g><g stroke-linejoin="miter" stroke-opacity="0.7" fill-opacity="0.0" stroke="rgb(48,189,227)" stroke-width="1.9637403789280585" fill="rgb(0,0,0)" stroke-linecap="butt" stroke-miterlimit="10.0"><path d="M 88.0115,102.4871 h 282.8792 "/></g><g stroke-linejoin="miter" stroke-opacity="0.7" fill-opacity="0.0" stroke="rgb(48,189,227)" stroke-width="1.9637403789280585" fill="rgb(0,0,0)" stroke-linecap="butt" stroke-miterlimit="10.0"><path d="M 88.0115,130.7750 h 282.8792 "/></g><g stroke-linejoin="miter" stroke-opacity="0.7" fill-opacity="0.0" stroke="rgb(48,189,227)" stroke-width="1.9637403789280585" fill="rgb(0,0,0)" stroke-linecap="butt" stroke-miterlimit="10.0"><path d="M 88.0115,159.0630 h 282.8792 "/></g><g stroke-linejoin="miter" stroke-opacity="0.7" fill-opacity="0.0" stroke="rgb(48,189,227)" stroke-width="1.9637403789280585" fill="rgb(0,0,0)" stroke-linecap="butt" stroke-miterlimit="10.0"><path d="M 88.0115,187.3509 h 282.8792 "/></g><g stroke-linejoin="miter" stroke-opacity="0.7" fill-opacity="0.0" stroke="rgb(48,189,227)" stroke-width="1.9637403789280585" fill="rgb(0,0,0)" stroke-linecap="butt" stroke-miterlimit="10.0"><path d="M 88.0115,215.6388 h 282.8792 "/></g><g stroke-linejoin="miter" stroke-opacity="0.7" fill-opacity="0.0" stroke="rgb(48,189,227)" stroke-width="1.9637403789280585" fill="rgb(0,0,0)" stroke-linecap="butt" stroke-miterlimit="10.0"><path d="M 88.0115,243.9267 h 282.8792 "/></g><g stroke-linejoin="miter" stroke-opacity="0.7" fill-opacity="0.0" stroke="rgb(48,189,227)" stroke-width="1.9637403789280585" fill="rgb(0,0,0)" stroke-linecap="butt" stroke-miterlimit="10.0"><path d="M 88.0115,272.2146 h 282.8792 "/></g><g stroke-linejoin="miter" stroke-opacity="0.7" fill-opacity="0.0" stroke="rgb(48,189,227)" stroke-width="1.9637403789280585" fill="rgb(0,0,0)" stroke-linecap="butt" stroke-miterlimit="10.0"><path d="M 88.0115,300.5025 h 282.8792 "/></g><g stroke-linejoin="miter" stroke-opacity="0.7" fill-opacity="0.0" stroke="rgb(48,189,227)" stroke-width="1.9637403789280585" fill="rgb(0,0,0)" stroke-linecap="butt" stroke-miterlimit="10.0"><path d="M 88.0115,328.7904 h 282.8792 "/></g><g stroke-linejoin="miter" stroke-opacity="0.7" fill-opacity="0.0" stroke="rgb(48,189,227)" stroke-width="1.9637403789280585" fill="rgb(0,0,0)" stroke-linecap="butt" stroke-miterlimit="10.0"><path d="M 88.0115,357.0784 h 282.8792 "/></g><g stroke-linejoin="miter" stroke-opacity="0.7" fill-opacity="0.0" stroke="rgb(48,189,227)" stroke-width="1.9637403789280585" fill="rgb(0,0,0)" stroke-linecap="butt" stroke-miterlimit="10.0"><path d="M 370.8907,357.0784 v -282.8792 "/></g><g stroke-linejoin="miter" stroke-opacity="0.7" fill-opacity="0.0" stroke="rgb(48,189,227)" stroke-width="1.9637403789280585" fill="rgb(0,0,0)" stroke-linecap="butt" stroke-miterlimit="10.0"><path d="M 342.6028,357.0784 v -282.8792 "/></g><g stroke-linejoin="miter" stroke-opacity="0.7" fill-opacity="0.0" stroke="rgb(48,189,227)" stroke-width="1.9637403789280585" fill="rgb(0,0,0)" stroke-linecap="butt" stroke-miterlimit="10.0"><path d="M 314.3148,357.0784 v -282.8792 "/></g><g stroke-linejoin="miter" stroke-opacity="0.7" fill-opacity="0.0" stroke="rgb(48,189,227)" stroke-width="1.9637403789280585" fill="rgb(0,0,0)" stroke-linecap="butt" stroke-miterlimit="10.0"><path d="M 286.0269,357.0784 v -282.8792 "/></g><g stroke-linejoin="miter" stroke-opacity="0.7" fill-opacity="0.0" stroke="rgb(48,189,227)" stroke-width="1.9637403789280585" fill="rgb(0,0,0)" stroke-linecap="butt" stroke-miterlimit="10.0"><path d="M 257.7390,357.0784 v -282.8792 "/></g><g stroke-linejoin="miter" stroke-opacity="0.7" fill-opacity="0.0" stroke="rgb(48,189,227)" stroke-width="1.9637403789280585" fill="rgb(0,0,0)" stroke-linecap="butt" stroke-miterlimit="10.0"><path d="M 229.4511,357.0784 v -282.8792 "/></g><g stroke-linejoin="miter" stroke-opacity="0.7" fill-opacity="0.0" stroke="rgb(48,189,227)" stroke-width="1.9637403789280585" fill="rgb(0,0,0)" stroke-linecap="butt" stroke-miterlimit="10.0"><path d="M 201.1632,357.0784 v -282.8792 "/></g><g stroke-linejoin="miter" stroke-opacity="0.7" fill-opacity="0.0" stroke="rgb(48,189,227)" stroke-width="1.9637403789280585" fill="rgb(0,0,0)" stroke-linecap="butt" stroke-miterlimit="10.0"><path d="M 172.8753,357.0784 v -282.8792 "/></g><g stroke-linejoin="miter" stroke-opacity="0.7" fill-opacity="0.0" stroke="rgb(48,189,227)" stroke-width="1.9637403789280585" fill="rgb(0,0,0)" stroke-linecap="butt" stroke-miterlimit="10.0"><path d="M 144.5874,357.0784 v -282.8792 "/></g><g stroke-linejoin="miter" stroke-opacity="0.7" fill-opacity="0.0" stroke="rgb(48,189,227)" stroke-width="1.9637403789280585" fill="rgb(0,0,0)" stroke-linecap="butt" stroke-miterlimit="10.0"><path d="M 116.2994,357.0784 v -282.8792 "/></g><g stroke-linejoin="miter" stroke-opacity="0.7" fill-opacity="0.0" stroke="rgb(48,189,227)" stroke-width="1.9637403789280585" fill="rgb(0,0,0)" stroke-linecap="butt" stroke-miterlimit="10.0"><path d="M 88.0115,357.0784 v -282.8792 "/></g><g stroke-linejoin="miter" stroke-opacity="1.0" fill-opacity="0.1" stroke="rgb(102,102,102)" stroke-width="1.9637403789280585" fill="rgb(255,255,255)" stroke-linecap="butt" stroke-miterlimit="10.0"><path d="M 392.8138,400.0000 l -0.0000,-400.0000 h -385.6276 l -0.0000,400.0000 Z"/></g></svg>