<?xml version="1.0" encoding="UTF-8"?>
<!DOCTYPE svg PUBLIC "-//W3C//DTD SVG 1.1//EN"
    "http://www.w3.org/Graphics/SVG/1.1/DTD/svg11.dtd"><svg xmlns="http://www.w3.org/2000/svg" height="400.0000" stroke-opacity="1" viewBox="0 0 400 400" font-size="1" width="400.0000" xmlns:xlink="http://www.w3.org/1999/xlink" stroke="rgb(0,0,0)" version="1.1"><defs></defs><defs></defs><g stroke-linejoin="miter" stroke-opacity="0.0" fill-opacity="0.5" stroke="rgb(0,0,0)" stroke-width="0.0" fill="rgb(102,26,102)" stroke-linecap="butt" stroke-miterlimit="10.0"><path d="M 62.0929,329.5911 l -0.0000,-277.2003 h -5.5440 l -0.0000,277.2003 Z"/></g><defs></defs><g stroke-linejoin="miter" stroke-opacity="1.0" fill-opacity="0.7" font-size="11.088011088011088px" stroke="rgb(0,0,0)" stroke-width="1.6" fill="rgb(51,51,51)" stroke-linecap="butt" stroke-miterlimit="10.0"><text dominant-baseline="middle" transform="matrix(1.0000,0.0000,0.0000,1.0000,48.2328,52.3909)" stroke="none" text-anchor="end">   10.0</text></g><defs></defs><g stroke-linejoin="miter" stroke-opacity="0.5" fill-opacity="0.0" stroke="rgb(26,102,204)" stroke-width="1.6" fill="rgb(0,0,0)" stroke-linecap="butt" stroke-miterlimit="10.0"><path d="M 53.7769,52.3909 h 5.5440 "/></g><defs></defs><g stroke-linejoin="miter" stroke-opacity="1.0" fill-opacity="0.7" font-size="11.088011088011088px" stroke="rgb(0,0,0)" stroke-width="1.6" fill="rgb(51,51,51)" stroke-linecap="butt" stroke-miterlimit="10.0"><text dominant-baseline="middle" transform="matrix(1.0000,0.0000,0.0000,1.0000,48.2328,80.1109)" stroke="none" text-anchor="end">    9.0</text></g><defs></defs><g stroke-linejoin="miter" stroke-opacity="0.5" fill-opacity="0.0" stroke="rgb(26,102,204)" stroke-width="1.6" fill="rgb(0,0,0)" stroke-linecap="butt" stroke-miterlimit="10.0"><path d="M 53.7769,80.1109 h 5.5440 "/></g><defs></defs><g stroke-linejoin="miter" stroke-opacity="1.0" fill-opacity="0.7" font-size="11.088011088011088px" stroke="rgb(0,0,0)" stroke-width="1.6" fill="rgb(51,51,51)" stroke-linecap="butt" stroke-miterlimit="10.0"><text dominant-baseline="middle" transform="matrix(1.0000,0.0000,0.0000,1.0000,48.2328,107.8309)" stroke="none" text-anchor="end">    8.0</text></g><defs></defs><g stroke-linejoin="miter" stroke-opacity="0.5" fill-opacity="0.0" stroke="rgb(26,102,204)" stroke-width="1.6" fill="rgb(0,0,0)" stroke-linecap="butt" stroke-miterlimit="10.0"><path d="M 53.7769,107.8309 h 5.5440 "/></g><defs></defs><g stroke-linejoin="miter" stroke-opacity="1.0" fill-opacity="0.7" font-size="11.088011088011088px" stroke="rgb(0,0,0)" stroke-width="1.6" fill="rgb(51,51,51)" stroke-linecap="butt" stroke-miterlimit="10.0"><text dominant-baseline="middle" transform="matrix(1.0000,0.0000,0.0000,1.0000,48.2328,135.5509)" stroke="none" text-anchor="end">    7.0</text></g><defs></defs><g stroke-linejoin="miter" stroke-opacity="0.5" fill-opacity="0.0" stroke="rgb(26,102,204)" stroke-width="1.6" fill="rgb(0,0,0)" stroke-linecap="butt" stroke-miterlimit="10.0"><path d="M 53.7769,135.5509 h 5.5440 "/></g><defs></defs><g stroke-linejoin="miter" stroke-opacity="1.0" fill-opacity="0.7" font-size="11.088011088011088px" stroke="rgb(0,0,0)" stroke-width="1.6" fill="rgb(51,51,51)" stroke-linecap="butt" stroke-miterlimit="10.0"><text dominant-baseline="middle" transform="matrix(1.0000,0.0000,0.0000,1.0000,48.2328,163.2710)" stroke="none" text-anchor="end">    6.0</text></g><defs></defs><g stroke-linejoin="miter" stroke-opacity="0.5" fill-opacity="0.0" stroke="rgb(26,102,204)" stroke-width="1.6" fill="rgb(0,0,0)" stroke-linecap="butt" stroke-miterlimit="10.0"><path d="M 53.7769,163.2710 h 5.5440 "/></g><defs></defs><g stroke-linejoin="miter" stroke-opacity="1.0" fill-opacity="0.7" font-size="11.088011088011088px" stroke="rgb(0,0,0)" stroke-width="1.6" fill="rgb(51,51,51)" stroke-linecap="butt" stroke-miterlimit="10.0"><text dominant-baseline="middle" transform="matrix(1.0000,0.0000,0.0000,1.0000,48.2328,190.9910)" stroke="none" text-anchor="end">    5.0</text></g><defs></defs><g stroke-linejoin="miter" stroke-opacity="0.5" fill-opacity="0.0" stroke="rgb(26,102,204)" stroke-width="1.6" fill="rgb(0,0,0)" stroke-linecap="butt" stroke-miterlimit="10.0"><path d="M 53.7769,190.9910 h 5.5440 "/></g><defs></defs><g stroke-linejoin="miter" stroke-opacity="1.0" fill-opacity="0.7" font-size="11.088011088011088px" stroke="rgb(0,0,0)" stroke-width="1.6" fill="rgb(51,51,51)" stroke-linecap="butt" stroke-miterlimit="10.0"><text dominant-baseline="middle" transform="matrix(1.0000,0.0000,0.0000,1.0000,48.2328,218.7110)" stroke="none" text-anchor="end">    4.0</text></g><defs></defs><g stroke-linejoin="miter" stroke-opacity="0.5" fill-opacity="0.0" stroke="rgb(26,102,204)" stroke-width="1.6" fill="rgb(0,0,0)" stroke-linecap="butt" stroke-miterlimit="10.0"><path d="M 53.7769,218.7110 h 5.5440 "/></g><defs></defs><g stroke-linejoin="miter" stroke-opacity="1.0" fill-opacity="0.7" font-size="11.088011088011088px" stroke="rgb(0,0,0)" stroke-width="1.6" fill="rgb(51,51,51)" stroke-linecap="butt" stroke-miterlimit="10.0"><text dominant-baseline="middle" transform="matrix(1.0000,0.0000,0.0000,1.0000,48.2328,246.4310)" stroke="none" text-anchor="end">    3.0</text></g><defs></defs><g stroke-linejoin="miter" stroke-opacity="0.5" fill-opacity="0.0" stroke="rgb(26,102,204)" stroke-width="1.6" fill="rgb(0,0,0)" stroke-linecap="butt" stroke-miterlimit="10.0"><path d="M 53.7769,246.4310 h 5.5440 "/></g><defs></defs><g stroke-linejoin="miter" stroke-opacity="1.0" fill-opacity="0.7" font-size="11.088011088011088px" stroke="rgb(0,0,0)" stroke-width="1.6" fill="rgb(51,51,51)" stroke-linecap="butt" stroke-miterlimit="10.0"><text dominant-baseline="middle" transform="matrix(1.0000,0.0000,0.0000,1.0000,48.2328,274.1511)" stroke="none" text-anchor="end">    2.0</text></g><defs></defs><g stroke-linejoin="miter" stroke-opacity="0.5" fill-opacity="0.0" stroke="rgb(26,102,204)" stroke-width="1.6" fill="rgb(0,0,0)" stroke-linecap="butt" stroke-miterlimit="10.0"><path d="M 53.7769,274.1511 h 5.5440 "/></g><defs></defs><g stroke-linejoin="miter" stroke-opacity="1.0" fill-opacity="0.7" font-size="11.088011088011088px" stroke="rgb(0,0,0)" stroke-width="1.6" fill="rgb(51,51,51)" stroke-linecap="butt" stroke-miterlimit="10.0"><text dominant-baseline="middle" transform="matrix(1.0000,0.0000,0.0000,1.0000,48.2328,301.8711)" stroke="none" text-anchor="end">    1.0</text></g><defs></defs><g stroke-linejoin="miter" stroke-opacity="0.5" fill-opacity="0.0" stroke="rgb(26,102,204)" stroke-width="1.6" fill="rgb(0,0,0)" stroke-linecap="butt" stroke-miterlimit="10.0"><path d="M 53.7769,301.8711 h 5.5440 "/></g><defs></defs><g stroke-linejoin="miter" stroke-opacity="1.0" fill-opacity="0.7" font-size="11.088011088011088px" stroke="rgb(0,0,0)" stroke-width="1.6" fill="rgb(51,51,51)" stroke-linecap="butt" stroke-miterlimit="10.0"><text dominant-baseline="middle" transform="matrix(1.0000,0.0000,0.0000,1.0000,48.2328,329.5911)" stroke="none" text-anchor="end">    0.0</text></g><defs></defs><g stroke-linejoin="miter" stroke-opacity="0.5" fill-opacity="0.0" stroke="rgb(26,102,204)" stroke-width="1.6" fill="rgb(0,0,0)" stroke-linecap="butt" stroke-miterlimit="10.0"><path d="M 53.7769,329.5911 h 5.5440 "/></g><defs></defs><g stroke-linejoin="miter" stroke-opacity="0.0" fill-opacity="0.5" stroke="rgb(0,0,0)" stroke-width="0.0" fill="rgb(102,26,102)" stroke-linecap="butt" stroke-miterlimit="10.0"><path d="M 347.6091,343.4511 l -0.0000,-5.5440 h -277.2003 l -0.0000,5.5440 Z"/></g><defs></defs><g stroke-linejoin="miter" stroke-opacity="1.0" fill-opacity="0.7" font-size="11.088011088011088px" stroke="rgb(0,0,0)" stroke-width="1.6" fill="rgb(51,51,51)" stroke-linecap="butt" stroke-miterlimit="10.0"><text dominant-baseline="text-before-edge" transform="matrix(1.0000,0.0000,0.0000,1.0000,347.6091,351.7672)" stroke="none" text-anchor="middle">   10.0</text></g><defs></defs><g stroke-linejoin="miter" stroke-opacity="0.5" fill-opacity="0.0" stroke="rgb(26,102,204)" stroke-width="1.6" fill="rgb(0,0,0)" stroke-linecap="butt" stroke-miterlimit="10.0"><path d="M 347.6091,340.6791 v 5.5440 "/></g><defs></defs><g stroke-linejoin="miter" stroke-opacity="1.0" fill-opacity="0.7" font-size="11.088011088011088px" stroke="rgb(0,0,0)" stroke-width="1.6" fill="rgb(51,51,51)" stroke-linecap="butt" stroke-miterlimit="10.0"><text dominant-baseline="text-before-edge" transform="matrix(1.0000,0.0000,0.0000,1.0000,319.8891,351.7672)" stroke="none" text-anchor="middle">    9.0</text></g><defs></defs><g stroke-linejoin="miter" stroke-opacity="0.5" fill-opacity="0.0" stroke="rgb(26,102,204)" stroke-width="1.6" fill="rgb(0,0,0)" stroke-linecap="butt" stroke-miterlimit="10.0"><path d="M 319.8891,340.6791 v 5.5440 "/></g><defs></defs><g stroke-linejoin="miter" stroke-opacity="1.0" fill-opacity="0.7" font-size="11.088011088011088px" stroke="rgb(0,0,0)" stroke-width="1.6" fill="rgb(51,51,51)" stroke-linecap="butt" stroke-miterlimit="10.0"><text dominant-baseline="text-before-edge" transform="matrix(1.0000,0.0000,0.0000,1.0000,292.1691,351.7672)" stroke="none" text-anchor="middle">    8.0</text></g><defs></defs><g stroke-linejoin="miter" stroke-opacity="0.5" fill-opacity="0.0" stroke="rgb(26,102,204)" stroke-width="1.6" fill="rgb(0,0,0)" stroke-linecap="butt" stroke-miterlimit="10.0"><path d="M 292.1691,340.6791 v 5.5440 "/></g><defs></defs><g stroke-linejoin="miter" stroke-opacity="1.0" fill-opacity="0.7" font-size="11.088011088011088px" stroke="rgb(0,0,0)" stroke-width="1.6" fill="rgb(51,51,51)" stroke-linecap="butt" stroke-miterlimit="10.0"><text dominant-baseline="text-before-edge" transform="matrix(1.0000,0.0000,0.0000,1.0000,264.4491,351.7672)" stroke="none" text-anchor="middle">    7.0</text></g><defs></defs><g stroke-linejoin="miter" stroke-opacity="0.5" fill-opacity="0.0" stroke="rgb(26,102,204)" stroke-width="1.6" fill="rgb(0,0,0)" stroke-linecap="butt" stroke-miterlimit="10.0"><path d="M 264.4491,340.6791 v 5.5440 "/></g><defs></defs><g stroke-linejoin="miter" stroke-opacity="1.0" fill-opacity="0.7" font-size="11.088011088011088px" stroke="rgb(0,0,0)" stroke-width="1.6" fill="rgb(51,51,51)" stroke-linecap="butt" stroke-miterlimit="10.0"><text dominant-baseline="text-before-edge" transform="matrix(1.0000,0.0000,0.0000,1.0000,236.7290,351.7672)" stroke="none" text-anchor="middle">    6.0</text></g><defs></defs><g stroke-linejoin="miter" stroke-opacity="0.5" fill-opacity="0.0" stroke="rgb(26,102,204)" stroke-width="1.6" fill="rgb(0,0,0)" stroke-linecap="butt" stroke-miterlimit="10.0"><path d="M 236.7290,340.6791 v 5.5440 "/></g><defs></defs><g stroke-linejoin="miter" stroke-opacity="1.0" fill-opacity="0.7" font-size="11.088011088011088px" stroke="rgb(0,0,0)" stroke-width="1.6" fill="rgb(51,51,51)" stroke-linecap="butt" stroke-miterlimit="10.0"><text dominant-baseline="text-before-edge" transform="matrix(1.0000,0.0000,0.0000,1.0000,209.0090,351.7672)" stroke="none" text-anchor="middle">    5.0</text></g><defs></defs><g stroke-linejoin="miter" stroke-opacity="0.5" fill-opacity="0.0" stroke="rgb(26,102,204)" stroke-width="1.6" fill="rgb(0,0,0)" stroke-linecap="butt" stroke-miterlimit="10.0"><path d="M 209.0090,340.6791 v 5.5440 "/></g><defs></defs><g stroke-linejoin="miter" stroke-opacity="1.0" fill-opacity="0.7" font-size="11.088011088011088px" stroke="rgb(0,0,0)" stroke-width="1.6" fill="rgb(51,51,51)" stroke-linecap="butt" stroke-miterlimit="10.0"><text dominant-baseline="text-before-edge" transform="matrix(1.0000,0.0000,0.0000,1.0000,181.2890,351.7672)" stroke="none" text-anchor="middle">    4.0</text></g><defs></defs><g stroke-linejoin="miter" stroke-opacity="0.5" fill-opacity="0.0" stroke="rgb(26,102,204)" stroke-width="1.6" fill="rgb(0,0,0)" stroke-linecap="butt" stroke-miterlimit="10.0"><path d="M 181.2890,340.6791 v 5.5440 "/></g><defs></defs><g stroke-linejoin="miter" stroke-opacity="1.0" fill-opacity="0.7" font-size="11.088011088011088px" stroke="rgb(0,0,0)" stroke-width="1.6" fill="rgb(51,51,51)" stroke-linecap="butt" stroke-miterlimit="10.0"><text dominant-baseline="text-before-edge" transform="matrix(1.0000,0.0000,0.0000,1.0000,153.5690,351.7672)" stroke="none" text-anchor="middle">    3.0</text></g><defs></defs><g stroke-linejoin="miter" stroke-opacity="0.5" fill-opacity="0.0" stroke="rgb(26,102,204)" stroke-width="1.6" fill="rgb(0,0,0)" stroke-linecap="butt" stroke-miterlimit="10.0"><path d="M 153.5690,340.6791 v 5.5440 "/></g><defs></defs><g stroke-linejoin="miter" stroke-opacity="1.0" fill-opacity="0.7" font-size="11.088011088011088px" stroke="rgb(0,0,0)" stroke-width="1.6" fill="rgb(51,51,51)" stroke-linecap="butt" stroke-miterlimit="10.0"><text dominant-baseline="text-before-edge" transform="matrix(1.0000,0.0000,0.0000,1.0000,125.8489,351.7672)" stroke="none" text-anchor="middle">    2.0</text></g><defs></defs><g stroke-linejoin="miter" stroke-opacity="0.5" fill-opacity="0.0" stroke="rgb(26,102,204)" stroke-width="1.6" fill="rgb(0,0,0)" stroke-linecap="butt" stroke-miterlimit="10.0"><path d="M 125.8489,340.6791 v 5.5440 "/></g><defs></defs><g stroke-linejoin="miter" stroke-opacity="1.0" fill-opacity="0.7" font-size="11.088011088011088px" stroke="rgb(0,0,0)" stroke-width="1.6" fill="rgb(51,51,51)" stroke-linecap="butt" stroke-miterlimit="10.0"><text dominant-baseline="text-before-edge" transform="matrix(1.0000,0.0000,0.0000,1.0000,98.1289,351.7672)" stroke="none" text-anchor="middle">    1.0</text></g><defs></defs><g stroke-linejoin="miter" stroke-opacity="0.5" fill-opacity="0.0" stroke="rgb(26,102,204)" stroke-width="1.6" fill="rgb(0,0,0)" stroke-linecap="butt" stroke-miterlimit="10.0"><path d="M 98.1289,340.6791 v 5.5440 "/></g><defs></defs><g stroke-linejoin="miter" stroke-opacity="1.0" fill-opacity="0.7" font-size="11.088011088011088px" stroke="rgb(0,0,0)" stroke-width="1.6" fill="rgb(51,51,51)" stroke-linecap="butt" stroke-miterlimit="10.0"><text dominant-baseline="text-before-edge" transform="matrix(1.0000,0.0000,0.0000,1.0000,70.4089,351.7672)" stroke="none" text-anchor="middle">    0.0</text></g><defs></defs><g stroke-linejoin="miter" stroke-opacity="0.5" fill-opacity="0.0" stroke="rgb(26,102,204)" stroke-width="1.6" fill="rgb(0,0,0)" stroke-linecap="butt" stroke-miterlimit="10.0"><path d="M 70.4089,340.6791 v 5.5440 "/></g><defs></defs><g stroke-linejoin="miter" stroke-opacity="0.0" fill-opacity="0.5" stroke="rgb(0,0,0)" stroke-width="0.0" fill="rgb(85,85,85)" stroke-linecap="butt" stroke-miterlimit="10.0"><path d="M 355.9252,52.3909 c 0.0000,-4.5928 -3.7232,-8.3160 -8.3160 -8.3160c -4.5928,-0.0000 -8.3160,3.7232 -8.3160 8.3160c -0.0000,4.5928 3.7232,8.3160 8.3160 8.3160c 4.5928,0.0000 8.3160,-3.7232 8.3160 -8.3160Z"/></g><defs></defs><g stroke-linejoin="miter" stroke-opacity="0.0" fill-opacity="0.5" stroke="rgb(0,0,0)" stroke-width="0.0" fill="rgb(85,85,85)" stroke-linecap="butt" stroke-miterlimit="10.0"><path d="M 355.9252,80.1109 c 0.0000,-4.5928 -3.7232,-8.3160 -8.3160 -8.3160c -4.5928,-0.0000 -8.3160,3.7232 -8.3160 8.3160c -0.0000,4.5928 3.7232,8.3160 8.3160 8.3160c 4.5928,0.0000 8.3160,-3.7232 8.3160 -8.3160Z"/></g><defs></defs><g stroke-linejoin="miter" stroke-opacity="0.0" fill-opacity="0.5" stroke="rgb(0,0,0)" stroke-width="0.0" fill="rgb(85,85,85)" stroke-linecap="butt" stroke-miterlimit="10.0"><path d="M 355.9252,107.8309 c 0.0000,-4.5928 -3.7232,-8.3160 -8.3160 -8.3160c -4.5928,-0.0000 -8.3160,3.7232 -8.3160 8.3160c -0.0000,4.5928 3.7232,8.3160 8.3160 8.3160c 4.5928,0.0000 8.3160,-3.7232 8.3160 -8.3160Z"/></g><defs></defs><g stroke-linejoin="miter" stroke-opacity="0.0" fill-opacity="0.5" stroke="rgb(0,0,0)" stroke-width="0.0" fill="rgb(85,85,85)" stroke-linecap="butt" stroke-miterlimit="10.0"><path d="M 355.9252,135.5509 c 0.0000,-4.5928 -3.7232,-8.3160 -8.3160 -8.3160c -4.5928,-0.0000 -8.3160,3.7232 -8.3160 8.3160c -0.0000,4.5928 3.7232,8.3160 8.3160 8.3160c 4.5928,0.0000 8.3160,-3.7232 8.3160 -8.3160Z"/></g><defs></defs><g stroke-linejoin="miter" stroke-opacity="0.0" fill-opacity="0.5" stroke="rgb(0,0,0)" stroke-width="0.0" fill="rgb(85,85,85)" stroke-linecap="butt" stroke-miterlimit="10.0"><path d="M 355.9252,163.2710 c 0.0000,-4.5928 -3.7232,-8.3160 -8.3160 -8.3160c -4.5928,-0.0000 -8.3160,3.7232 -8.3160 8.3160c -0.0000,4.5928 3.7232,8.3160 8.3160 8.3160c 4.5928,0.0000 8.3160,-3.7232 8.3160 -8.3160Z"/></g><defs></defs><g stroke-linejoin="miter" stroke-opacity="0.0" fill-opacity="0.5" stroke="rgb(0,0,0)" stroke-width="0.0" fill="rgb(85,85,85)" stroke-linecap="butt" stroke-miterlimit="10.0"><path d="M 355.9252,190.9910 c 0.0000,-4.5928 -3.7232,-8.3160 -8.3160 -8.3160c -4.5928,-0.0000 -8.3160,3.7232 -8.3160 8.3160c -0.0000,4.5928 3.7232,8.3160 8.3160 8.3160c 4.5928,0.0000 8.3160,-3.7232 8.3160 -8.3160Z"/></g><defs></defs><g stroke-linejoin="miter" stroke-opacity="0.0" fill-opacity="0.5" stroke="rgb(0,0,0)" stroke-width="0.0" fill="rgb(85,85,85)" stroke-linecap="butt" stroke-miterlimit="10.0"><path d="M 355.9252,218.7110 c 0.0000,-4.5928 -3.7232,-8.3160 -8.3160 -8.3160c -4.5928,-0.0000 -8.3160,3.7232 -8.3160 8.3160c -0.0000,4.5928 3.7232,8.3160 8.3160 8.3160c 4.5928,0.0000 8.3160,-3.7232 8.3160 -8.3160Z"/></g><defs></defs><g stroke-linejoin="miter" stroke-opacity="0.0" fill-opacity="0.5" stroke="rgb(0,0,0)" stroke-width="0.0" fill="rgb(85,85,85)" stroke-linecap="butt" stroke-miterlimit="10.0"><path d="M 355.9252,246.4310 c 0.0000,-4.5928 -3.7232,-8.3160 -8.3160 -8.3160c -4.5928,-0.0000 -8.3160,3.7232 -8.3160 8.3160c -0.0000,4.5928 3.7232,8.3160 8.3160 8.3160c 4.5928,0.0000 8.3160,-3.7232 8.3160 -8.3160Z"/></g><defs></defs><g stroke-linejoin="miter" stroke-opacity="0.0" fill-opacity="0.5" stroke="rgb(0,0,0)" stroke-width="0.0" fill="rgb(85,85,85)" stroke-linecap="butt" stroke-miterlimit="10.0"><path d="M 355.9252,274.1511 c 0.0000,-4.5928 -3.7232,-8.3160 -8.3160 -8.3160c -4.5928,-0.0000 -8.3160,3.7232 -8.3160 8.3160c -0.0000,4.5928 3.7232,8.3160 8.3160 8.3160c 4.5928,0.0000 8.3160,-3.7232 8.3160 -8.3160Z"/></g><defs></defs><g stroke-linejoin="miter" stroke-opacity="0.0" fill-opacity="0.5" stroke="rgb(0,0,0)" stroke-width="0.0" fill="rgb(85,85,85)" stroke-linecap="butt" stroke-miterlimit="10.0"><path d="M 355.9252,301.8711 c 0.0000,-4.5928 -3.7232,-8.3160 -8.3160 -8.3160c -4.5928,-0.0000 -8.3160,3.7232 -8.3160 8.3160c -0.0000,4.5928 3.7232,8.3160 8.3160 8.3160c 4.5928,0.0000 8.3160,-3.7232 8.3160 -8.3160Z"/></g><defs></defs><g stroke-linejoin="miter" stroke-opacity="0.0" fill-opacity="0.5" stroke="rgb(0,0,0)" stroke-width="0.0" fill="rgb(85,85,85)" stroke-linecap="butt" stroke-miterlimit="10.0"><path d="M 355.9252,329.5911 c 0.0000,-4.5928 -3.7232,-8.3160 -8.3160 -8.3160c -4.5928,-0.0000 -8.3160,3.7232 -8.3160 8.3160c -0.0000,4.5928 3.7232,8.3160 8.3160 8.3160c 4.5928,0.0000 8.3160,-3.7232 8.3160 -8.3160Z"/></g><defs></defs><g stroke-linejoin="miter" stroke-opacity="0.0" fill-opacity="0.5" stroke="rgb(0,0,0)" stroke-width="0.0" fill="rgb(85,85,85)" stroke-linecap="butt" stroke-miterlimit="10.0"><path d="M 328.2051,52.3909 c 0.0000,-4.5928 -3.7232,-8.3160 -8.3160 -8.3160c -4.5928,-0.0000 -8.3160,3.7232 -8.3160 8.3160c -0.0000,4.5928 3.7232,8.3160 8.3160 8.3160c 4.5928,0.0000 8.3160,-3.7232 8.3160 -8.3160Z"/></g><defs></defs><g stroke-linejoin="miter" stroke-opacity="0.0" fill-opacity="0.5" stroke="rgb(0,0,0)" stroke-width="0.0" fill="rgb(85,85,85)" stroke-linecap="butt" stroke-miterlimit="10.0"><path d="M 328.2051,80.1109 c 0.0000,-4.5928 -3.7232,-8.3160 -8.3160 -8.3160c -4.5928,-0.0000 -8.3160,3.7232 -8.3160 8.3160c -0.0000,4.5928 3.7232,8.3160 8.3160 8.3160c 4.5928,0.0000 8.3160,-3.7232 8.3160 -8.3160Z"/></g><defs></defs><g stroke-linejoin="miter" stroke-opacity="0.0" fill-opacity="0.5" stroke="rgb(0,0,0)" stroke-width="0.0" fill="rgb(85,85,85)" stroke-linecap="butt" stroke-miterlimit="10.0"><path d="M 328.2051,107.8309 c 0.0000,-4.5928 -3.7232,-8.3160 -8.3160 -8.3160c -4.5928,-0.0000 -8.3160,3.7232 -8.3160 8.3160c -0.0000,4.5928 3.7232,8.3160 8.3160 8.3160c 4.5928,0.0000 8.3160,-3.7232 8.3160 -8.3160Z"/></g><defs></defs><g stroke-linejoin="miter" stroke-opacity="0.0" fill-opacity="0.5" stroke="rgb(0,0,0)" stroke-width="0.0" fill="rgb(85,85,85)" stroke-linecap="butt" stroke-miterlimit="10.0"><path d="M 328.2051,135.5509 c 0.0000,-4.5928 -3.7232,-8.3160 -8.3160 -8.3160c -4.5928,-0.0000 -8.3160,3.7232 -8.3160 8.3160c -0.0000,4.5928 3.7232,8.3160 8.3160 8.3160c 4.5928,0.0000 8.3160,-3.7232 8.3160 -8.3160Z"/></g><defs></defs><g stroke-linejoin="miter" stroke-opacity="0.0" fill-opacity="0.5" stroke="rgb(0,0,0)" stroke-width="0.0" fill="rgb(85,85,85)" stroke-linecap="butt" stroke-miterlimit="10.0"><path d="M 328.2051,163.2710 c 0.0000,-4.5928 -3.7232,-8.3160 -8.3160 -8.3160c -4.5928,-0.0000 -8.3160,3.7232 -8.3160 8.3160c -0.0000,4.5928 3.7232,8.3160 8.3160 8.3160c 4.5928,0.0000 8.3160,-3.7232 8.3160 -8.3160Z"/></g><defs></defs><g stroke-linejoin="miter" stroke-opacity="0.0" fill-opacity="0.5" stroke="rgb(0,0,0)" stroke-width="0.0" fill="rgb(85,85,85)" stroke-linecap="butt" stroke-miterlimit="10.0"><path d="M 328.2051,190.9910 c 0.0000,-4.5928 -3.7232,-8.3160 -8.3160 -8.3160c -4.5928,-0.0000 -8.3160,3.7232 -8.3160 8.3160c -0.0000,4.5928 3.7232,8.3160 8.3160 8.3160c 4.5928,0.0000 8.3160,-3.7232 8.3160 -8.3160Z"/></g><defs></defs><g stroke-linejoin="miter" stroke-opacity="0.0" fill-opacity="0.5" stroke="rgb(0,0,0)" stroke-width="0.0" fill="rgb(85,85,85)" stroke-linecap="butt" stroke-miterlimit="10.0"><path d="M 328.2051,218.7110 c 0.0000,-4.5928 -3.7232,-8.3160 -8.3160 -8.3160c -4.5928,-0.0000 -8.3160,3.7232 -8.3160 8.3160c -0.0000,4.5928 3.7232,8.3160 8.3160 8.3160c 4.5928,0.0000 8.3160,-3.7232 8.3160 -8.3160Z"/></g><defs></defs><g stroke-linejoin="miter" stroke-opacity="0.0" fill-opacity="0.5" stroke="rgb(0,0,0)" stroke-width="0.0" fill="rgb(85,85,85)" stroke-linecap="butt" stroke-miterlimit="10.0"><path d="M 328.2051,246.4310 c 0.0000,-4.5928 -3.7232,-8.3160 -8.3160 -8.3160c -4.5928,-0.0000 -8.3160,3.7232 -8.3160 8.3160c -0.0000,4.5928 3.7232,8.3160 8.3160 8.3160c 4.5928,0.0000 8.3160,-3.7232 8.3160 -8.3160Z"/></g><defs></defs><g stroke-linejoin="miter" stroke-opacity="0.0" fill-opacity="0.5" stroke="rgb(0,0,0)" stroke-width="0.0" fill="rgb(85,85,85)" stroke-linecap="butt" stroke-miterlimit="10.0"><path d="M 328.2051,274.1511 c 0.0000,-4.5928 -3.7232,-8.3160 -8.3160 -8.3160c -4.5928,-0.0000 -8.3160,3.7232 -8.3160 8.3160c -0.0000,4.5928 3.7232,8.3160 8.3160 8.3160c 4.5928,0.0000 8.3160,-3.7232 8.3160 -8.3160Z"/></g><defs></defs><g stroke-linejoin="miter" stroke-opacity="0.0" fill-opacity="0.5" stroke="rgb(0,0,0)" stroke-width="0.0" fill="rgb(85,85,85)" stroke-linecap="butt" stroke-miterlimit="10.0"><path d="M 328.2051,301.8711 c 0.0000,-4.5928 -3.7232,-8.3160 -8.3160 -8.3160c -4.5928,-0.0000 -8.3160,3.7232 -8.3160 8.3160c -0.0000,4.5928 3.7232,8.3160 8.3160 8.3160c 4.5928,0.0000 8.3160,-3.7232 8.3160 -8.3160Z"/></g><defs></defs><g stroke-linejoin="miter" stroke-opacity="0.0" fill-opacity="0.5" stroke="rgb(0,0,0)" stroke-width="0.0" fill="rgb(85,85,85)" stroke-linecap="butt" stroke-miterlimit="10.0"><path d="M 328.2051,329.5911 c 0.0000,-4.5928 -3.7232,-8.3160 -8.3160 -8.3160c -4.5928,-0.0000 -8.3160,3.7232 -8.3160 8.3160c -0.0000,4.5928 3.7232,8.3160 8.3160 8.3160c 4.5928,0.0000 8.3160,-3.7232 8.3160 -8.3160Z"/></g><defs></defs><g stroke-linejoin="miter" stroke-opacity="0.0" fill-opacity="0.5" stroke="rgb(0,0,0)" stroke-width="0.0" fill="rgb(85,85,85)" stroke-linecap="butt" stroke-miterlimit="10.0"><path d="M 300.4851,52.3909 c 0.0000,-4.5928 -3.7232,-8.3160 -8.3160 -8.3160c -4.5928,-0.0000 -8.3160,3.7232 -8.3160 8.3160c -0.0000,4.5928 3.7232,8.3160 8.3160 8.3160c 4.5928,0.0000 8.3160,-3.7232 8.3160 -8.3160Z"/></g><defs></defs><g stroke-linejoin="miter" stroke-opacity="0.0" fill-opacity="0.5" stroke="rgb(0,0,0)" stroke-width="0.0" fill="rgb(85,85,85)" stroke-linecap="butt" stroke-miterlimit="10.0"><path d="M 300.4851,80.1109 c 0.0000,-4.5928 -3.7232,-8.3160 -8.3160 -8.3160c -4.5928,-0.0000 -8.3160,3.7232 -8.3160 8.3160c -0.0000,4.5928 3.7232,8.3160 8.3160 8.3160c 4.5928,0.0000 8.3160,-3.7232 8.3160 -8.3160Z"/></g><defs></defs><g stroke-linejoin="miter" stroke-opacity="0.0" fill-opacity="0.5" stroke="rgb(0,0,0)" stroke-width="0.0" fill="rgb(85,85,85)" stroke-linecap="butt" stroke-miterlimit="10.0"><path d="M 300.4851,107.8309 c 0.0000,-4.5928 -3.7232,-8.3160 -8.3160 -8.3160c -4.5928,-0.0000 -8.3160,3.7232 -8.3160 8.3160c -0.0000,4.5928 3.7232,8.3160 8.3160 8.3160c 4.5928,0.0000 8.3160,-3.7232 8.3160 -8.3160Z"/></g><defs></defs><g stroke-linejoin="miter" stroke-opacity="0.0" fill-opacity="0.5" stroke="rgb(0,0,0)" stroke-width="0.0" fill="rgb(85,85,85)" stroke-linecap="butt" stroke-miterlimit="10.0"><path d="M 300.4851,135.5509 c 0.0000,-4.5928 -3.7232,-8.3160 -8.3160 -8.3160c -4.5928,-0.0000 -8.3160,3.7232 -8.3160 8.3160c -0.0000,4.5928 3.7232,8.3160 8.3160 8.3160c 4.5928,0.0000 8.3160,-3.7232 8.3160 -8.3160Z"/></g><defs></defs><g stroke-linejoin="miter" stroke-opacity="0.0" fill-opacity="0.5" stroke="rgb(0,0,0)" stroke-width="0.0" fill="rgb(85,85,85)" stroke-linecap="butt" stroke-miterlimit="10.0"><path d="M 300.4851,163.2710 c 0.0000,-4.5928 -3.7232,-8.3160 -8.3160 -8.3160c -4.5928,-0.0000 -8.3160,3.7232 -8.3160 8.3160c -0.0000,4.5928 3.7232,8.3160 8.3160 8.3160c 4.5928,0.0000 8.3160,-3.7232 8.3160 -8.3160Z"/></g><defs></defs><g stroke-linejoin="miter" stroke-opacity="0.0" fill-opacity="0.5" stroke="rgb(0,0,0)" stroke-width="0.0" fill="rgb(85,85,85)" stroke-linecap="butt" stroke-miterlimit="10.0"><path d="M 300.4851,190.9910 c 0.0000,-4.5928 -3.7232,-8.3160 -8.3160 -8.3160c -4.5928,-0.0000 -8.3160,3.7232 -8.3160 8.3160c -0.0000,4.5928 3.7232,8.3160 8.3160 8.3160c 4.5928,0.0000 8.3160,-3.7232 8.3160 -8.3160Z"/></g><defs></defs><g stroke-linejoin="miter" stroke-opacity="0.0" fill-opacity="0.5" stroke="rgb(0,0,0)" stroke-width="0.0" fill="rgb(85,85,85)" stroke-linecap="butt" stroke-miterlimit="10.0"><path d="M 300.4851,218.7110 c 0.0000,-4.5928 -3.7232,-8.3160 -8.3160 -8.3160c -4.5928,-0.0000 -8.3160,3.7232 -8.3160 8.3160c -0.0000,4.5928 3.7232,8.3160 8.3160 8.3160c 4.5928,0.0000 8.3160,-3.7232 8.3160 -8.3160Z"/></g><defs></defs><g stroke-linejoin="miter" stroke-opacity="0.0" fill-opacity="0.5" stroke="rgb(0,0,0)" stroke-width="0.0" fill="rgb(85,85,85)" stroke-linecap="butt" stroke-miterlimit="10.0"><path d="M 300.4851,246.4310 c 0.0000,-4.5928 -3.7232,-8.3160 -8.3160 -8.3160c -4.5928,-0.0000 -8.3160,3.7232 -8.3160 8.3160c -0.0000,4.5928 3.7232,8.3160 8.3160 8.3160c 4.5928,0.0000 8.3160,-3.7232 8.3160 -8.3160Z"/></g><defs></defs><g stroke-linejoin="miter" stroke-opacity="0.0" fill-opacity="0.5" stroke="rgb(0,0,0)" stroke-width="0.0" fill="rgb(85,85,85)" stroke-linecap="butt" stroke-miterlimit="10.0"><path d="M 300.4851,274.1511 c 0.0000,-4.5928 -3.7232,-8.3160 -8.3160 -8.3160c -4.5928,-0.0000 -8.3160,3.7232 -8.3160 8.3160c -0.0000,4.5928 3.7232,8.3160 8.3160 8.3160c 4.5928,0.0000 8.3160,-3.7232 8.3160 -8.3160Z"/></g><defs></defs><g stroke-linejoin="miter" stroke-opacity="0.0" fill-opacity="0.5" stroke="rgb(0,0,0)" stroke-width="0.0" fill="rgb(85,85,85)" stroke-linecap="butt" stroke-miterlimit="10.0"><path d="M 300.4851,301.8711 c 0.0000,-4.5928 -3.7232,-8.3160 -8.3160 -8.3160c -4.5928,-0.0000 -8.3160,3.7232 -8.3160 8.3160c -0.0000,4.5928 3.7232,8.3160 8.3160 8.3160c 4.5928,0.0000 8.3160,-3.7232 8.3160 -8.3160Z"/></g><defs></defs><g stroke-linejoin="miter" stroke-opacity="0.0" fill-opacity="0.5" stroke="rgb(0,0,0)" stroke-width="0.0" fill="rgb(85,85,85)" stroke-linecap="butt" stroke-miterlimit="10.0"><path d="M 300.4851,329.5911 c 0.0000,-4.5928 -3.7232,-8.3160 -8.3160 -8.3160c -4.5928,-0.0000 -8.3160,3.7232 -8.3160 8.3160c -0.0000,4.5928 3.7232,8.3160 8.3160 8.3160c 4.5928,0.0000 8.3160,-3.7232 8.3160 -8.3160Z"/></g><defs></defs><g stroke-linejoin="miter" stroke-opacity="0.0" fill-opacity="0.5" stroke="rgb(0,0,0)" stroke-width="0.0" fill="rgb(85,85,85)" stroke-linecap="butt" stroke-miterlimit="10.0"><path d="M 272.7651,52.3909 c 0.0000,-4.5928 -3.7232,-8.3160 -8.3160 -8.3160c -4.5928,-0.0000 -8.3160,3.7232 -8.3160 8.3160c -0.0000,4.5928 3.7232,8.3160 8.3160 8.3160c 4.5928,0.0000 8.3160,-3.7232 8.3160 -8.3160Z"/></g><defs></defs><g stroke-linejoin="miter" stroke-opacity="0.0" fill-opacity="0.5" stroke="rgb(0,0,0)" stroke-width="0.0" fill="rgb(85,85,85)" stroke-linecap="butt" stroke-miterlimit="10.0"><path d="M 272.7651,80.1109 c 0.0000,-4.5928 -3.7232,-8.3160 -8.3160 -8.3160c -4.5928,-0.0000 -8.3160,3.7232 -8.3160 8.3160c -0.0000,4.5928 3.7232,8.3160 8.3160 8.3160c 4.5928,0.0000 8.3160,-3.7232 8.3160 -8.3160Z"/></g><defs></defs><g stroke-linejoin="miter" stroke-opacity="0.0" fill-opacity="0.5" stroke="rgb(0,0,0)" stroke-width="0.0" fill="rgb(85,85,85)" stroke-linecap="butt" stroke-miterlimit="10.0"><path d="M 272.7651,107.8309 c 0.0000,-4.5928 -3.7232,-8.3160 -8.3160 -8.3160c -4.5928,-0.0000 -8.3160,3.7232 -8.3160 8.3160c -0.0000,4.5928 3.7232,8.3160 8.3160 8.3160c 4.5928,0.0000 8.3160,-3.7232 8.3160 -8.3160Z"/></g><defs></defs><g stroke-linejoin="miter" stroke-opacity="0.0" fill-opacity="0.5" stroke="rgb(0,0,0)" stroke-width="0.0" fill="rgb(85,85,85)" stroke-linecap="butt" stroke-miterlimit="10.0"><path d="M 272.7651,135.5509 c 0.0000,-4.5928 -3.7232,-8.3160 -8.3160 -8.3160c -4.5928,-0.0000 -8.3160,3.7232 -8.3160 8.3160c -0.0000,4.5928 3.7232,8.3160 8.3160 8.3160c 4.5928,0.0000 8.3160,-3.7232 8.3160 -8.3160Z"/></g><defs></defs><g stroke-linejoin="miter" stroke-opacity="0.0" fill-opacity="0.5" stroke="rgb(0,0,0)" stroke-width="0.0" fill="rgb(85,85,85)" stroke-linecap="butt" stroke-miterlimit="10.0"><path d="M 272.7651,163.2710 c 0.0000,-4.5928 -3.7232,-8.3160 -8.3160 -8.3160c -4.5928,-0.0000 -8.3160,3.7232 -8.3160 8.3160c -0.0000,4.5928 3.7232,8.3160 8.3160 8.3160c 4.5928,0.0000 8.3160,-3.7232 8.3160 -8.3160Z"/></g><defs></defs><g stroke-linejoin="miter" stroke-opacity="0.0" fill-opacity="0.5" stroke="rgb(0,0,0)" stroke-width="0.0" fill="rgb(85,85,85)" stroke-linecap="butt" stroke-miterlimit="10.0"><path d="M 272.7651,190.9910 c 0.0000,-4.5928 -3.7232,-8.3160 -8.3160 -8.3160c -4.5928,-0.0000 -8.3160,3.7232 -8.3160 8.3160c -0.0000,4.5928 3.7232,8.3160 8.3160 8.3160c 4.5928,0.0000 8.3160,-3.7232 8.3160 -8.3160Z"/></g><defs></defs><g stroke-linejoin="miter" stroke-opacity="0.0" fill-opacity="0.5" stroke="rgb(0,0,0)" stroke-width="0.0" fill="rgb(85,85,85)" stroke-linecap="butt" stroke-miterlimit="10.0"><path d="M 272.7651,218.7110 c 0.0000,-4.5928 -3.7232,-8.3160 -8.3160 -8.3160c -4.5928,-0.0000 -8.3160,3.7232 -8.3160 8.3160c -0.0000,4.5928 3.7232,8.3160 8.3160 8.3160c 4.5928,0.0000 8.3160,-3.7232 8.3160 -8.3160Z"/></g><defs></defs><g stroke-linejoin="miter" stroke-opacity="0.0" fill-opacity="0.5" stroke="rgb(0,0,0)" stroke-width="0.0" fill="rgb(85,85,85)" stroke-linecap="butt" stroke-miterlimit="10.0"><path d="M 272.7651,246.4310 c 0.0000,-4.5928 -3.7232,-8.3160 -8.3160 -8.3160c -4.5928,-0.0000 -8.3160,3.7232 -8.3160 8.3160c -0.0000,4.5928 3.7232,8.3160 8.3160 8.3160c 4.5928,0.0000 8.3160,-3.7232 8.3160 -8.3160Z"/></g><defs></defs><g stroke-linejoin="miter" stroke-opacity="0.0" fill-opacity="0.5" stroke="rgb(0,0,0)" stroke-width="0.0" fill="rgb(85,85,85)" stroke-linecap="butt" stroke-miterlimit="10.0"><path d="M 272.7651,274.1511 c 0.0000,-4.5928 -3.7232,-8.3160 -8.3160 -8.3160c -4.5928,-0.0000 -8.3160,3.7232 -8.3160 8.3160c -0.0000,4.5928 3.7232,8.3160 8.3160 8.3160c 4.5928,0.0000 8.3160,-3.7232 8.3160 -8.3160Z"/></g><defs></defs><g stroke-linejoin="miter" stroke-opacity="0.0" fill-opacity="0.5" stroke="rgb(0,0,0)" stroke-width="0.0" fill="rgb(85,85,85)" stroke-linecap="butt" stroke-miterlimit="10.0"><path d="M 272.7651,301.8711 c 0.0000,-4.5928 -3.7232,-8.3160 -8.3160 -8.3160c -4.5928,-0.0000 -8.3160,3.7232 -8.3160 8.3160c -0.0000,4.5928 3.7232,8.3160 8.3160 8.3160c 4.5928,0.0000 8.3160,-3.7232 8.3160 -8.3160Z"/></g><defs></defs><g stroke-linejoin="miter" stroke-opacity="0.0" fill-opacity="0.5" stroke="rgb(0,0,0)" stroke-width="0.0" fill="rgb(85,85,85)" stroke-linecap="butt" stroke-miterlimit="10.0"><path d="M 272.7651,329.5911 c 0.0000,-4.5928 -3.7232,-8.3160 -8.3160 -8.3160c -4.5928,-0.0000 -8.3160,3.7232 -8.3160 8.3160c -0.0000,4.5928 3.7232,8.3160 8.3160 8.3160c 4.5928,0.0000 8.3160,-3.7232 8.3160 -8.3160Z"/></g><defs></defs><g stroke-linejoin="miter" stroke-opacity="0.0" fill-opacity="0.5" stroke="rgb(0,0,0)" stroke-width="0.0" fill="rgb(85,85,85)" stroke-linecap="butt" stroke-miterlimit="10.0"><path d="M 245.0450,52.3909 c 0.0000,-4.5928 -3.7232,-8.3160 -8.3160 -8.3160c -4.5928,-0.0000 -8.3160,3.7232 -8.3160 8.3160c -0.0000,4.5928 3.7232,8.3160 8.3160 8.3160c 4.5928,0.0000 8.3160,-3.7232 8.3160 -8.3160Z"/></g><defs></defs><g stroke-linejoin="miter" stroke-opacity="0.0" fill-opacity="0.5" stroke="rgb(0,0,0)" stroke-width="0.0" fill="rgb(85,85,85)" stroke-linecap="butt" stroke-miterlimit="10.0"><path d="M 245.0450,80.1109 c 0.0000,-4.5928 -3.7232,-8.3160 -8.3160 -8.3160c -4.5928,-0.0000 -8.3160,3.7232 -8.3160 8.3160c -0.0000,4.5928 3.7232,8.3160 8.3160 8.3160c 4.5928,0.0000 8.3160,-3.7232 8.3160 -8.3160Z"/></g><defs></defs><g stroke-linejoin="miter" stroke-opacity="0.0" fill-opacity="0.5" stroke="rgb(0,0,0)" stroke-width="0.0" fill="rgb(85,85,85)" stroke-linecap="butt" stroke-miterlimit="10.0"><path d="M 245.0450,107.8309 c 0.0000,-4.5928 -3.7232,-8.3160 -8.3160 -8.3160c -4.5928,-0.0000 -8.3160,3.7232 -8.3160 8.3160c -0.0000,4.5928 3.7232,8.3160 8.3160 8.3160c 4.5928,0.0000 8.3160,-3.7232 8.3160 -8.3160Z"/></g><defs></defs><g stroke-linejoin="miter" stroke-opacity="0.0" fill-opacity="0.5" stroke="rgb(0,0,0)" stroke-width="0.0" fill="rgb(85,85,85)" stroke-linecap="butt" stroke-miterlimit="10.0"><path d="M 245.0450,135.5509 c 0.0000,-4.5928 -3.7232,-8.3160 -8.3160 -8.3160c -4.5928,-0.0000 -8.3160,3.7232 -8.3160 8.3160c -0.0000,4.5928 3.7232,8.3160 8.3160 8.3160c 4.5928,0.0000 8.3160,-3.7232 8.3160 -8.3160Z"/></g><defs></defs><g stroke-linejoin="miter" stroke-opacity="0.0" fill-opacity="0.5" stroke="rgb(0,0,0)" stroke-width="0.0" fill="rgb(85,85,85)" stroke-linecap="butt" stroke-miterlimit="10.0"><path d="M 245.0450,163.2710 c 0.0000,-4.5928 -3.7232,-8.3160 -8.3160 -8.3160c -4.5928,-0.0000 -8.3160,3.7232 -8.3160 8.3160c -0.0000,4.5928 3.7232,8.3160 8.3160 8.3160c 4.5928,0.0000 8.3160,-3.7232 8.3160 -8.3160Z"/></g><defs></defs><g stroke-linejoin="miter" stroke-opacity="0.0" fill-opacity="0.5" stroke="rgb(0,0,0)" stroke-width="0.0" fill="rgb(85,85,85)" stroke-linecap="butt" stroke-miterlimit="10.0"><path d="M 245.0450,190.9910 c 0.0000,-4.5928 -3.7232,-8.3160 -8.3160 -8.3160c -4.5928,-0.0000 -8.3160,3.7232 -8.3160 8.3160c -0.0000,4.5928 3.7232,8.3160 8.3160 8.3160c 4.5928,0.0000 8.3160,-3.7232 8.3160 -8.3160Z"/></g><defs></defs><g stroke-linejoin="miter" stroke-opacity="0.0" fill-opacity="0.5" stroke="rgb(0,0,0)" stroke-width="0.0" fill="rgb(85,85,85)" stroke-linecap="butt" stroke-miterlimit="10.0"><path d="M 245.0450,218.7110 c 0.0000,-4.5928 -3.7232,-8.3160 -8.3160 -8.3160c -4.5928,-0.0000 -8.3160,3.7232 -8.3160 8.3160c -0.0000,4.5928 3.7232,8.3160 8.3160 8.3160c 4.5928,0.0000 8.3160,-3.7232 8.3160 -8.3160Z"/></g><defs></defs><g stroke-linejoin="miter" stroke-opacity="0.0" fill-opacity="0.5" stroke="rgb(0,0,0)" stroke-width="0.0" fill="rgb(85,85,85)" stroke-linecap="butt" stroke-miterlimit="10.0"><path d="M 245.0450,246.4310 c 0.0000,-4.5928 -3.7232,-8.3160 -8.3160 -8.3160c -4.5928,-0.0000 -8.3160,3.7232 -8.3160 8.3160c -0.0000,4.5928 3.7232,8.3160 8.3160 8.3160c 4.5928,0.0000 8.3160,-3.7232 8.3160 -8.3160Z"/></g><defs></defs><g stroke-linejoin="miter" stroke-opacity="0.0" fill-opacity="0.5" stroke="rgb(0,0,0)" stroke-width="0.0" fill="rgb(85,85,85)" stroke-linecap="butt" stroke-miterlimit="10.0"><path d="M 245.0450,274.1511 c 0.0000,-4.5928 -3.7232,-8.3160 -8.3160 -8.3160c -4.5928,-0.0000 -8.3160,3.7232 -8.3160 8.3160c -0.0000,4.5928 3.7232,8.3160 8.3160 8.3160c 4.5928,0.0000 8.3160,-3.7232 8.3160 -8.3160Z"/></g><defs></defs><g stroke-linejoin="miter" stroke-opacity="0.0" fill-opacity="0.5" stroke="rgb(0,0,0)" stroke-width="0.0" fill="rgb(85,85,85)" stroke-linecap="butt" stroke-miterlimit="10.0"><path d="M 245.0450,301.8711 c 0.0000,-4.5928 -3.7232,-8.3160 -8.3160 -8.3160c -4.5928,-0.0000 -8.3160,3.7232 -8.3160 8.3160c -0.0000,4.5928 3.7232,8.3160 8.3160 8.3160c 4.5928,0.0000 8.3160,-3.7232 8.3160 -8.3160Z"/></g><defs></defs><g stroke-linejoin="miter" stroke-opacity="0.0" fill-opacity="0.5" stroke="rgb(0,0,0)" stroke-width="0.0" fill="rgb(85,85,85)" stroke-linecap="butt" stroke-miterlimit="10.0"><path d="M 245.0450,329.5911 c 0.0000,-4.5928 -3.7232,-8.3160 -8.3160 -8.3160c -4.5928,-0.0000 -8.3160,3.7232 -8.3160 8.3160c -0.0000,4.5928 3.7232,8.3160 8.3160 8.3160c 4.5928,0.0000 8.3160,-3.7232 8.3160 -8.3160Z"/></g><defs></defs><g stroke-linejoin="miter" stroke-opacity="0.0" fill-opacity="0.5" stroke="rgb(0,0,0)" stroke-width="0.0" fill="rgb(85,85,85)" stroke-linecap="butt" stroke-miterlimit="10.0"><path d="M 217.3250,52.3909 c 0.0000,-4.5928 -3.7232,-8.3160 -8.3160 -8.3160c -4.5928,-0.0000 -8.3160,3.7232 -8.3160 8.3160c -0.0000,4.5928 3.7232,8.3160 8.3160 8.3160c 4.5928,0.0000 8.3160,-3.7232 8.3160 -8.3160Z"/></g><defs></defs><g stroke-linejoin="miter" stroke-opacity="0.0" fill-opacity="0.5" stroke="rgb(0,0,0)" stroke-width="0.0" fill="rgb(85,85,85)" stroke-linecap="butt" stroke-miterlimit="10.0"><path d="M 217.3250,80.1109 c 0.0000,-4.5928 -3.7232,-8.3160 -8.3160 -8.3160c -4.5928,-0.0000 -8.3160,3.7232 -8.3160 8.3160c -0.0000,4.5928 3.7232,8.3160 8.3160 8.3160c 4.5928,0.0000 8.3160,-3.7232 8.3160 -8.3160Z"/></g><defs></defs><g stroke-linejoin="miter" stroke-opacity="0.0" fill-opacity="0.5" stroke="rgb(0,0,0)" stroke-width="0.0" fill="rgb(85,85,85)" stroke-linecap="butt" stroke-miterlimit="10.0"><path d="M 217.3250,107.8309 c 0.0000,-4.5928 -3.7232,-8.3160 -8.3160 -8.3160c -4.5928,-0.0000 -8.3160,3.7232 -8.3160 8.3160c -0.0000,4.5928 3.7232,8.3160 8.3160 8.3160c 4.5928,0.0000 8.3160,-3.7232 8.3160 -8.3160Z"/></g><defs></defs><g stroke-linejoin="miter" stroke-opacity="0.0" fill-opacity="0.5" stroke="rgb(0,0,0)" stroke-width="0.0" fill="rgb(85,85,85)" stroke-linecap="butt" stroke-miterlimit="10.0"><path d="M 217.3250,135.5509 c 0.0000,-4.5928 -3.7232,-8.3160 -8.3160 -8.3160c -4.5928,-0.0000 -8.3160,3.7232 -8.3160 8.3160c -0.0000,4.5928 3.7232,8.3160 8.3160 8.3160c 4.5928,0.0000 8.3160,-3.7232 8.3160 -8.3160Z"/></g><defs></defs><g stroke-linejoin="miter" stroke-opacity="0.0" fill-opacity="0.5" stroke="rgb(0,0,0)" stroke-width="0.0" fill="rgb(85,85,85)" stroke-linecap="butt" stroke-miterlimit="10.0"><path d="M 217.3250,163.2710 c 0.0000,-4.5928 -3.7232,-8.3160 -8.3160 -8.3160c -4.5928,-0.0000 -8.3160,3.7232 -8.3160 8.3160c -0.0000,4.5928 3.7232,8.3160 8.3160 8.3160c 4.5928,0.0000 8.3160,-3.7232 8.3160 -8.3160Z"/></g><defs></defs><g stroke-linejoin="miter" stroke-opacity="0.0" fill-opacity="0.5" stroke="rgb(0,0,0)" stroke-width="0.0" fill="rgb(85,85,85)" stroke-linecap="butt" stroke-miterlimit="10.0"><path d="M 217.3250,190.9910 c 0.0000,-4.5928 -3.7232,-8.3160 -8.3160 -8.3160c -4.5928,-0.0000 -8.3160,3.7232 -8.3160 8.3160c -0.0000,4.5928 3.7232,8.3160 8.3160 8.3160c 4.5928,0.0000 8.3160,-3.7232 8.3160 -8.3160Z"/></g><defs></defs><g stroke-linejoin="miter" stroke-opacity="0.0" fill-opacity="0.5" stroke="rgb(0,0,0)" stroke-width="0.0" fill="rgb(85,85,85)" stroke-linecap="butt" stroke-miterlimit="10.0"><path d="M 217.3250,218.7110 c 0.0000,-4.5928 -3.7232,-8.3160 -8.3160 -8.3160c -4.5928,-0.0000 -8.3160,3.7232 -8.3160 8.3160c -0.0000,4.5928 3.7232,8.3160 8.3160 8.3160c 4.5928,0.0000 8.3160,-3.7232 8.3160 -8.3160Z"/></g><defs></defs><g stroke-linejoin="miter" stroke-opacity="0.0" fill-opacity="0.5" stroke="rgb(0,0,0)" stroke-width="0.0" fill="rgb(85,85,85)" stroke-linecap="butt" stroke-miterlimit="10.0"><path d="M 217.3250,246.4310 c 0.0000,-4.5928 -3.7232,-8.3160 -8.3160 -8.3160c -4.5928,-0.0000 -8.3160,3.7232 -8.3160 8.3160c -0.0000,4.5928 3.7232,8.3160 8.3160 8.3160c 4.5928,0.0000 8.3160,-3.7232 8.3160 -8.3160Z"/></g><defs></defs><g stroke-linejoin="miter" stroke-opacity="0.0" fill-opacity="0.5" stroke="rgb(0,0,0)" stroke-width="0.0" fill="rgb(85,85,85)" stroke-linecap="butt" stroke-miterlimit="10.0"><path d="M 217.3250,274.1511 c 0.0000,-4.5928 -3.7232,-8.3160 -8.3160 -8.3160c -4.5928,-0.0000 -8.3160,3.7232 -8.3160 8.3160c -0.0000,4.5928 3.7232,8.3160 8.3160 8.3160c 4.5928,0.0000 8.3160,-3.7232 8.3160 -8.3160Z"/></g><defs></defs><g stroke-linejoin="miter" stroke-opacity="0.0" fill-opacity="0.5" stroke="rgb(0,0,0)" stroke-width="0.0" fill="rgb(85,85,85)" stroke-linecap="butt" stroke-miterlimit="10.0"><path d="M 217.3250,301.8711 c 0.0000,-4.5928 -3.7232,-8.3160 -8.3160 -8.3160c -4.5928,-0.0000 -8.3160,3.7232 -8.3160 8.3160c -0.0000,4.5928 3.7232,8.3160 8.3160 8.3160c 4.5928,0.0000 8.3160,-3.7232 8.3160 -8.3160Z"/></g><defs></defs><g stroke-linejoin="miter" stroke-opacity="0.0" fill-opacity="0.5" stroke="rgb(0,0,0)" stroke-width="0.0" fill="rgb(85,85,85)" stroke-linecap="butt" stroke-miterlimit="10.0"><path d="M 217.3250,329.5911 c 0.0000,-4.5928 -3.7232,-8.3160 -8.3160 -8.3160c -4.5928,-0.0000 -8.3160,3.7232 -8.3160 8.3160c -0.0000,4.5928 3.7232,8.3160 8.3160 8.3160c 4.5928,0.0000 8.3160,-3.7232 8.3160 -8.3160Z"/></g><defs></defs><g stroke-linejoin="miter" stroke-opacity="0.0" fill-opacity="0.5" stroke="rgb(0,0,0)" stroke-width="0.0" fill="rgb(85,85,85)" stroke-linecap="butt" stroke-miterlimit="10.0"><path d="M 189.6050,52.3909 c 0.0000,-4.5928 -3.7232,-8.3160 -8.3160 -8.3160c -4.5928,-0.0000 -8.3160,3.7232 -8.3160 8.3160c -0.0000,4.5928 3.7232,8.3160 8.3160 8.3160c 4.5928,0.0000 8.3160,-3.7232 8.3160 -8.3160Z"/></g><defs></defs><g stroke-linejoin="miter" stroke-opacity="0.0" fill-opacity="0.5" stroke="rgb(0,0,0)" stroke-width="0.0" fill="rgb(85,85,85)" stroke-linecap="butt" stroke-miterlimit="10.0"><path d="M 189.6050,80.1109 c 0.0000,-4.5928 -3.7232,-8.3160 -8.3160 -8.3160c -4.5928,-0.0000 -8.3160,3.7232 -8.3160 8.3160c -0.0000,4.5928 3.7232,8.3160 8.3160 8.3160c 4.5928,0.0000 8.3160,-3.7232 8.3160 -8.3160Z"/></g><defs></defs><g stroke-linejoin="miter" stroke-opacity="0.0" fill-opacity="0.5" stroke="rgb(0,0,0)" stroke-width="0.0" fill="rgb(85,85,85)" stroke-linecap="butt" stroke-miterlimit="10.0"><path d="M 189.6050,107.8309 c 0.0000,-4.5928 -3.7232,-8.3160 -8.3160 -8.3160c -4.5928,-0.0000 -8.3160,3.7232 -8.3160 8.3160c -0.0000,4.5928 3.7232,8.3160 8.3160 8.3160c 4.5928,0.0000 8.3160,-3.7232 8.3160 -8.3160Z"/></g><defs></defs><g stroke-linejoin="miter" stroke-opacity="0.0" fill-opacity="0.5" stroke="rgb(0,0,0)" stroke-width="0.0" fill="rgb(85,85,85)" stroke-linecap="butt" stroke-miterlimit="10.0"><path d="M 189.6050,135.5509 c 0.0000,-4.5928 -3.7232,-8.3160 -8.3160 -8.3160c -4.5928,-0.0000 -8.3160,3.7232 -8.3160 8.3160c -0.0000,4.5928 3.7232,8.3160 8.3160 8.3160c 4.5928,0.0000 8.3160,-3.7232 8.3160 -8.3160Z"/></g><defs></defs><g stroke-linejoin="miter" stroke-opacity="0.0" fill-opacity="0.5" stroke="rgb(0,0,0)" stroke-width="0.0" fill="rgb(85,85,85)" stroke-linecap="butt" stroke-miterlimit="10.0"><path d="M 189.6050,163.2710 c 0.0000,-4.5928 -3.7232,-8.3160 -8.3160 -8.3160c -4.5928,-0.0000 -8.3160,3.7232 -8.3160 8.3160c -0.0000,4.5928 3.7232,8.3160 8.3160 8.3160c 4.5928,0.0000 8.3160,-3.7232 8.3160 -8.3160Z"/></g><defs></defs><g stroke-linejoin="miter" stroke-opacity="0.0" fill-opacity="0.5" stroke="rgb(0,0,0)" stroke-width="0.0" fill="rgb(85,85,85)" stroke-linecap="butt" stroke-miterlimit="10.0"><path d="M 189.6050,190.9910 c 0.0000,-4.5928 -3.7232,-8.3160 -8.3160 -8.3160c -4.5928,-0.0000 -8.3160,3.7232 -8.3160 8.3160c -0.0000,4.5928 3.7232,8.3160 8.3160 8.3160c 4.5928,0.0000 8.3160,-3.7232 8.3160 -8.3160Z"/></g><defs></defs><g stroke-linejoin="miter" stroke-opacity="0.0" fill-opacity="0.5" stroke="rgb(0,0,0)" stroke-width="0.0" fill="rgb(85,85,85)" stroke-linecap="butt" stroke-miterlimit="10.0"><path d="M 189.6050,218.7110 c 0.0000,-4.5928 -3.7232,-8.3160 -8.3160 -8.3160c -4.5928,-0.0000 -8.3160,3.7232 -8.3160 8.3160c -0.0000,4.5928 3.7232,8.3160 8.3160 8.3160c 4.5928,0.0000 8.3160,-3.7232 8.3160 -8.3160Z"/></g><defs></defs><g stroke-linejoin="miter" stroke-opacity="0.0" fill-opacity="0.5" stroke="rgb(0,0,0)" stroke-width="0.0" fill="rgb(85,85,85)" stroke-linecap="butt" stroke-miterlimit="10.0"><path d="M 189.6050,246.4310 c 0.0000,-4.5928 -3.7232,-8.3160 -8.3160 -8.3160c -4.5928,-0.0000 -8.3160,3.7232 -8.3160 8.3160c -0.0000,4.5928 3.7232,8.3160 8.3160 8.3160c 4.5928,0.0000 8.3160,-3.7232 8.3160 -8.3160Z"/></g><defs></defs><g stroke-linejoin="miter" stroke-opacity="0.0" fill-opacity="0.5" stroke="rgb(0,0,0)" stroke-width="0.0" fill="rgb(85,85,85)" stroke-linecap="butt" stroke-miterlimit="10.0"><path d="M 189.6050,274.1511 c 0.0000,-4.5928 -3.7232,-8.3160 -8.3160 -8.3160c -4.5928,-0.0000 -8.3160,3.7232 -8.3160 8.3160c -0.0000,4.5928 3.7232,8.3160 8.3160 8.3160c 4.5928,0.0000 8.3160,-3.7232 8.3160 -8.3160Z"/></g><defs></defs><g stroke-linejoin="miter" stroke-opacity="0.0" fill-opacity="0.5" stroke="rgb(0,0,0)" stroke-width="0.0" fill="rgb(85,85,85)" stroke-linecap="butt" stroke-miterlimit="10.0"><path d="M 189.6050,301.8711 c 0.0000,-4.5928 -3.7232,-8.3160 -8.3160 -8.3160c -4.5928,-0.0000 -8.3160,3.7232 -8.3160 8.3160c -0.0000,4.5928 3.7232,8.3160 8.3160 8.3160c 4.5928,0.0000 8.3160,-3.7232 8.3160 -8.3160Z"/></g><defs></defs><g stroke-linejoin="miter" stroke-opacity="0.0" fill-opacity="0.5" stroke="rgb(0,0,0)" stroke-width="0.0" fill="rgb(85,85,85)" stroke-linecap="butt" stroke-miterlimit="10.0"><path d="M 189.6050,329.5911 c 0.0000,-4.5928 -3.7232,-8.3160 -8.3160 -8.3160c -4.5928,-0.0000 -8.3160,3.7232 -8.3160 8.3160c -0.0000,4.5928 3.7232,8.3160 8.3160 8.3160c 4.5928,0.0000 8.3160,-3.7232 8.3160 -8.3160Z"/></g><defs></defs><g stroke-linejoin="miter" stroke-opacity="0.0" fill-opacity="0.5" stroke="rgb(0,0,0)" stroke-width="0.0" fill="rgb(85,85,85)" stroke-linecap="butt" stroke-miterlimit="10.0"><path d="M 161.8850,52.3909 c 0.0000,-4.5928 -3.7232,-8.3160 -8.3160 -8.3160c -4.5928,-0.0000 -8.3160,3.7232 -8.3160 8.3160c -0.0000,4.5928 3.7232,8.3160 8.3160 8.3160c 4.5928,0.0000 8.3160,-3.7232 8.3160 -8.3160Z"/></g><defs></defs><g stroke-linejoin="miter" stroke-opacity="0.0" fill-opacity="0.5" stroke="rgb(0,0,0)" stroke-width="0.0" fill="rgb(85,85,85)" stroke-linecap="butt" stroke-miterlimit="10.0"><path d="M 161.8850,80.1109 c 0.0000,-4.5928 -3.7232,-8.3160 -8.3160 -8.3160c -4.5928,-0.0000 -8.3160,3.7232 -8.3160 8.3160c -0.0000,4.5928 3.7232,8.3160 8.3160 8.3160c 4.5928,0.0000 8.3160,-3.7232 8.3160 -8.3160Z"/></g><defs></defs><g stroke-linejoin="miter" stroke-opacity="0.0" fill-opacity="0.5" stroke="rgb(0,0,0)" stroke-width="0.0" fill="rgb(85,85,85)" stroke-linecap="butt" stroke-miterlimit="10.0"><path d="M 161.8850,107.8309 c 0.0000,-4.5928 -3.7232,-8.3160 -8.3160 -8.3160c -4.5928,-0.0000 -8.3160,3.7232 -8.3160 8.3160c -0.0000,4.5928 3.7232,8.3160 8.3160 8.3160c 4.5928,0.0000 8.3160,-3.7232 8.3160 -8.3160Z"/></g><defs></defs><g stroke-linejoin="miter" stroke-opacity="0.0" fill-opacity="0.5" stroke="rgb(0,0,0)" stroke-width="0.0" fill="rgb(85,85,85)" stroke-linecap="butt" stroke-miterlimit="10.0"><path d="M 161.8850,135.5509 c 0.0000,-4.5928 -3.7232,-8.3160 -8.3160 -8.3160c -4.5928,-0.0000 -8.3160,3.7232 -8.3160 8.3160c -0.0000,4.5928 3.7232,8.3160 8.3160 8.3160c 4.5928,0.0000 8.3160,-3.7232 8.3160 -8.3160Z"/></g><defs></defs><g stroke-linejoin="miter" stroke-opacity="0.0" fill-opacity="0.5" stroke="rgb(0,0,0)" stroke-width="0.0" fill="rgb(85,85,85)" stroke-linecap="butt" stroke-miterlimit="10.0"><path d="M 161.8850,163.2710 c 0.0000,-4.5928 -3.7232,-8.3160 -8.3160 -8.3160c -4.5928,-0.0000 -8.3160,3.7232 -8.3160 8.3160c -0.0000,4.5928 3.7232,8.3160 8.3160 8.3160c 4.5928,0.0000 8.3160,-3.7232 8.3160 -8.3160Z"/></g><defs></defs><g stroke-linejoin="miter" stroke-opacity="0.0" fill-opacity="0.5" stroke="rgb(0,0,0)" stroke-width="0.0" fill="rgb(85,85,85)" stroke-linecap="butt" stroke-miterlimit="10.0"><path d="M 161.8850,190.9910 c 0.0000,-4.5928 -3.7232,-8.3160 -8.3160 -8.3160c -4.5928,-0.0000 -8.3160,3.7232 -8.3160 8.3160c -0.0000,4.5928 3.7232,8.3160 8.3160 8.3160c 4.5928,0.0000 8.3160,-3.7232 8.3160 -8.3160Z"/></g><defs></defs><g stroke-linejoin="miter" stroke-opacity="0.0" fill-opacity="0.5" stroke="rgb(0,0,0)" stroke-width="0.0" fill="rgb(85,85,85)" stroke-linecap="butt" stroke-miterlimit="10.0"><path d="M 161.8850,218.7110 c 0.0000,-4.5928 -3.7232,-8.3160 -8.3160 -8.3160c -4.5928,-0.0000 -8.3160,3.7232 -8.3160 8.3160c -0.0000,4.5928 3.7232,8.3160 8.3160 8.3160c 4.5928,0.0000 8.3160,-3.7232 8.3160 -8.3160Z"/></g><defs></defs><g stroke-linejoin="miter" stroke-opacity="0.0" fill-opacity="0.5" stroke="rgb(0,0,0)" stroke-width="0.0" fill="rgb(85,85,85)" stroke-linecap="butt" stroke-miterlimit="10.0"><path d="M 161.8850,246.4310 c 0.0000,-4.5928 -3.7232,-8.3160 -8.3160 -8.3160c -4.5928,-0.0000 -8.3160,3.7232 -8.3160 8.3160c -0.0000,4.5928 3.7232,8.3160 8.3160 8.3160c 4.5928,0.0000 8.3160,-3.7232 8.3160 -8.3160Z"/></g><defs></defs><g stroke-linejoin="miter" stroke-opacity="0.0" fill-opacity="0.5" stroke="rgb(0,0,0)" stroke-width="0.0" fill="rgb(85,85,85)" stroke-linecap="butt" stroke-miterlimit="10.0"><path d="M 161.8850,274.1511 c 0.0000,-4.5928 -3.7232,-8.3160 -8.3160 -8.3160c -4.5928,-0.0000 -8.3160,3.7232 -8.3160 8.3160c -0.0000,4.5928 3.7232,8.3160 8.3160 8.3160c 4.5928,0.0000 8.3160,-3.7232 8.3160 -8.3160Z"/></g><defs></defs><g stroke-linejoin="miter" stroke-opacity="0.0" fill-opacity="0.5" stroke="rgb(0,0,0)" stroke-width="0.0" fill="rgb(85,85,85)" stroke-linecap="butt" stroke-miterlimit="10.0"><path d="M 161.8850,301.8711 c 0.0000,-4.5928 -3.7232,-8.3160 -8.3160 -8.3160c -4.5928,-0.0000 -8.3160,3.7232 -8.3160 8.3160c -0.0000,4.5928 3.7232,8.3160 8.3160 8.3160c 4.5928,0.0000 8.3160,-3.7232 8.3160 -8.3160Z"/></g><defs></defs><g stroke-linejoin="miter" stroke-opacity="0.0" fill-opacity="0.5" stroke="rgb(0,0,0)" stroke-width="0.0" fill="rgb(85,85,85)" stroke-linecap="butt" stroke-miterlimit="10.0"><path d="M 161.8850,329.5911 c 0.0000,-4.5928 -3.7232,-8.3160 -8.3160 -8.3160c -4.5928,-0.0000 -8.3160,3.7232 -8.3160 8.3160c -0.0000,4.5928 3.7232,8.3160 8.3160 8.3160c 4.5928,0.0000 8.3160,-3.7232 8.3160 -8.3160Z"/></g><defs></defs><g stroke-linejoin="miter" stroke-opacity="0.0" fill-opacity="0.5" stroke="rgb(0,0,0)" stroke-width="0.0" fill="rgb(85,85,85)" stroke-linecap="butt" stroke-miterlimit="10.0"><path d="M 134.1649,52.3909 c 0.0000,-4.5928 -3.7232,-8.3160 -8.3160 -8.3160c -4.5928,-0.0000 -8.3160,3.7232 -8.3160 8.3160c -0.0000,4.5928 3.7232,8.3160 8.3160 8.3160c 4.5928,0.0000 8.3160,-3.7232 8.3160 -8.3160Z"/></g><defs></defs><g stroke-linejoin="miter" stroke-opacity="0.0" fill-opacity="0.5" stroke="rgb(0,0,0)" stroke-width="0.0" fill="rgb(85,85,85)" stroke-linecap="butt" stroke-miterlimit="10.0"><path d="M 134.1649,80.1109 c 0.0000,-4.5928 -3.7232,-8.3160 -8.3160 -8.3160c -4.5928,-0.0000 -8.3160,3.7232 -8.3160 8.3160c -0.0000,4.5928 3.7232,8.3160 8.3160 8.3160c 4.5928,0.0000 8.3160,-3.7232 8.3160 -8.3160Z"/></g><defs></defs><g stroke-linejoin="miter" stroke-opacity="0.0" fill-opacity="0.5" stroke="rgb(0,0,0)" stroke-width="0.0" fill="rgb(85,85,85)" stroke-linecap="butt" stroke-miterlimit="10.0"><path d="M 134.1649,107.8309 c 0.0000,-4.5928 -3.7232,-8.3160 -8.3160 -8.3160c -4.5928,-0.0000 -8.3160,3.7232 -8.3160 8.3160c -0.0000,4.5928 3.7232,8.3160 8.3160 8.3160c 4.5928,0.0000 8.3160,-3.7232 8.3160 -8.3160Z"/></g><defs></defs><g stroke-linejoin="miter" stroke-opacity="0.0" fill-opacity="0.5" stroke="rgb(0,0,0)" stroke-width="0.0" fill="rgb(85,85,85)" stroke-linecap="butt" stroke-miterlimit="10.0"><path d="M 134.1649,135.5509 c 0.0000,-4.5928 -3.7232,-8.3160 -8.3160 -8.3160c -4.5928,-0.0000 -8.3160,3.7232 -8.3160 8.3160c -0.0000,4.5928 3.7232,8.3160 8.3160 8.3160c 4.5928,0.0000 8.3160,-3.7232 8.3160 -8.3160Z"/></g><defs></defs><g stroke-linejoin="miter" stroke-opacity="0.0" fill-opacity="0.5" stroke="rgb(0,0,0)" stroke-width="0.0" fill="rgb(85,85,85)" stroke-linecap="butt" stroke-miterlimit="10.0"><path d="M 134.1649,163.2710 c 0.0000,-4.5928 -3.7232,-8.3160 -8.3160 -8.3160c -4.5928,-0.0000 -8.3160,3.7232 -8.3160 8.3160c -0.0000,4.5928 3.7232,8.3160 8.3160 8.3160c 4.5928,0.0000 8.3160,-3.7232 8.3160 -8.3160Z"/></g><defs></defs><g stroke-linejoin="miter" stroke-opacity="0.0" fill-opacity="0.5" stroke="rgb(0,0,0)" stroke-width="0.0" fill="rgb(85,85,85)" stroke-linecap="butt" stroke-miterlimit="10.0"><path d="M 134.1649,190.9910 c 0.0000,-4.5928 -3.7232,-8.3160 -8.3160 -8.3160c -4.5928,-0.0000 -8.3160,3.7232 -8.3160 8.3160c -0.0000,4.5928 3.7232,8.3160 8.3160 8.3160c 4.5928,0.0000 8.3160,-3.7232 8.3160 -8.3160Z"/></g><defs></defs><g stroke-linejoin="miter" stroke-opacity="0.0" fill-opacity="0.5" stroke="rgb(0,0,0)" stroke-width="0.0" fill="rgb(85,85,85)" stroke-linecap="butt" stroke-miterlimit="10.0"><path d="M 134.1649,218.7110 c 0.0000,-4.5928 -3.7232,-8.3160 -8.3160 -8.3160c -4.5928,-0.0000 -8.3160,3.7232 -8.3160 8.3160c -0.0000,4.5928 3.7232,8.3160 8.3160 8.3160c 4.5928,0.0000 8.3160,-3.7232 8.3160 -8.3160Z"/></g><defs></defs><g stroke-linejoin="miter" stroke-opacity="0.0" fill-opacity="0.5" stroke="rgb(0,0,0)" stroke-width="0.0" fill="rgb(85,85,85)" stroke-linecap="butt" stroke-miterlimit="10.0"><path d="M 134.1649,246.4310 c 0.0000,-4.5928 -3.7232,-8.3160 -8.3160 -8.3160c -4.5928,-0.0000 -8.3160,3.7232 -8.3160 8.3160c -0.0000,4.5928 3.7232,8.3160 8.3160 8.3160c 4.5928,0.0000 8.3160,-3.7232 8.3160 -8.3160Z"/></g><defs></defs><g stroke-linejoin="miter" stroke-opacity="0.0" fill-opacity="0.5" stroke="rgb(0,0,0)" stroke-width="0.0" fill="rgb(85,85,85)" stroke-linecap="butt" stroke-miterlimit="10.0"><path d="M 134.1649,274.1511 c 0.0000,-4.5928 -3.7232,-8.3160 -8.3160 -8.3160c -4.5928,-0.0000 -8.3160,3.7232 -8.3160 8.3160c -0.0000,4.5928 3.7232,8.3160 8.3160 8.3160c 4.5928,0.0000 8.3160,-3.7232 8.3160 -8.3160Z"/></g><defs></defs><g stroke-linejoin="miter" stroke-opacity="0.0" fill-opacity="0.5" stroke="rgb(0,0,0)" stroke-width="0.0" fill="rgb(85,85,85)" stroke-linecap="butt" stroke-miterlimit="10.0"><path d="M 134.1649,301.8711 c 0.0000,-4.5928 -3.7232,-8.3160 -8.3160 -8.3160c -4.5928,-0.0000 -8.3160,3.7232 -8.3160 8.3160c -0.0000,4.5928 3.7232,8.3160 8.3160 8.3160c 4.5928,0.0000 8.3160,-3.7232 8.3160 -8.3160Z"/></g><defs></defs><g stroke-linejoin="miter" stroke-opacity="0.0" fill-opacity="0.5" stroke="rgb(0,0,0)" stroke-width="0.0" fill="rgb(85,85,85)" stroke-linecap="butt" stroke-miterlimit="10.0"><path d="M 134.1649,329.5911 c 0.0000,-4.5928 -3.7232,-8.3160 -8.3160 -8.3160c -4.5928,-0.0000 -8.3160,3.7232 -8.3160 8.3160c -0.0000,4.5928 3.7232,8.3160 8.3160 8.3160c 4.5928,0.0000 8.3160,-3.7232 8.3160 -8.3160Z"/></g><defs></defs><g stroke-linejoin="miter" stroke-opacity="0.0" fill-opacity="0.5" stroke="rgb(0,0,0)" stroke-width="0.0" fill="rgb(85,85,85)" stroke-linecap="butt" stroke-miterlimit="10.0"><path d="M 106.4449,52.3909 c 0.0000,-4.5928 -3.7232,-8.3160 -8.3160 -8.3160c -4.5928,-0.0000 -8.3160,3.7232 -8.3160 8.3160c -0.0000,4.5928 3.7232,8.3160 8.3160 8.3160c 4.5928,0.0000 8.3160,-3.7232 8.3160 -8.3160Z"/></g><defs></defs><g stroke-linejoin="miter" stroke-opacity="0.0" fill-opacity="0.5" stroke="rgb(0,0,0)" stroke-width="0.0" fill="rgb(85,85,85)" stroke-linecap="butt" stroke-miterlimit="10.0"><path d="M 106.4449,80.1109 c 0.0000,-4.5928 -3.7232,-8.3160 -8.3160 -8.3160c -4.5928,-0.0000 -8.3160,3.7232 -8.3160 8.3160c -0.0000,4.5928 3.7232,8.3160 8.3160 8.3160c 4.5928,0.0000 8.3160,-3.7232 8.3160 -8.3160Z"/></g><defs></defs><g stroke-linejoin="miter" stroke-opacity="0.0" fill-opacity="0.5" stroke="rgb(0,0,0)" stroke-width="0.0" fill="rgb(85,85,85)" stroke-linecap="butt" stroke-miterlimit="10.0"><path d="M 106.4449,107.8309 c 0.0000,-4.5928 -3.7232,-8.3160 -8.3160 -8.3160c -4.5928,-0.0000 -8.3160,3.7232 -8.3160 8.3160c -0.0000,4.5928 3.7232,8.3160 8.3160 8.3160c 4.5928,0.0000 8.3160,-3.7232 8.3160 -8.3160Z"/></g><defs></defs><g stroke-linejoin="miter" stroke-opacity="0.0" fill-opacity="0.5" stroke="rgb(0,0,0)" stroke-width="0.0" fill="rgb(85,85,85)" stroke-linecap="butt" stroke-miterlimit="10.0"><path d="M 106.4449,135.5509 c 0.0000,-4.5928 -3.7232,-8.3160 -8.3160 -8.3160c -4.5928,-0.0000 -8.3160,3.7232 -8.3160 8.3160c -0.0000,4.5928 3.7232,8.3160 8.3160 8.3160c 4.5928,0.0000 8.3160,-3.7232 8.3160 -8.3160Z"/></g><defs></defs><g stroke-linejoin="miter" stroke-opacity="0.0" fill-opacity="0.5" stroke="rgb(0,0,0)" stroke-width="0.0" fill="rgb(85,85,85)" stroke-linecap="butt" stroke-miterlimit="10.0"><path d="M 106.4449,163.2710 c 0.0000,-4.5928 -3.7232,-8.3160 -8.3160 -8.3160c -4.5928,-0.0000 -8.3160,3.7232 -8.3160 8.3160c -0.0000,4.5928 3.7232,8.3160 8.3160 8.3160c 4.5928,0.0000 8.3160,-3.7232 8.3160 -8.3160Z"/></g><defs></defs><g stroke-linejoin="miter" stroke-opacity="0.0" fill-opacity="0.5" stroke="rgb(0,0,0)" stroke-width="0.0" fill="rgb(85,85,85)" stroke-linecap="butt" stroke-miterlimit="10.0"><path d="M 106.4449,190.9910 c 0.0000,-4.5928 -3.7232,-8.3160 -8.3160 -8.3160c -4.5928,-0.0000 -8.3160,3.7232 -8.3160 8.3160c -0.0000,4.5928 3.7232,8.3160 8.3160 8.3160c 4.5928,0.0000 8.3160,-3.7232 8.3160 -8.3160Z"/></g><defs></defs><g stroke-linejoin="miter" stroke-opacity="0.0" fill-opacity="0.5" stroke="rgb(0,0,0)" stroke-width="0.0" fill="rgb(85,85,85)" stroke-linecap="butt" stroke-miterlimit="10.0"><path d="M 106.4449,218.7110 c 0.0000,-4.5928 -3.7232,-8.3160 -8.3160 -8.3160c -4.5928,-0.0000 -8.3160,3.7232 -8.3160 8.3160c -0.0000,4.5928 3.7232,8.3160 8.3160 8.3160c 4.5928,0.0000 8.3160,-3.7232 8.3160 -8.3160Z"/></g><defs></defs><g stroke-linejoin="miter" stroke-opacity="0.0" fill-opacity="0.5" stroke="rgb(0,0,0)" stroke-width="0.0" fill="rgb(85,85,85)" stroke-linecap="butt" stroke-miterlimit="10.0"><path d="M 106.4449,246.4310 c 0.0000,-4.5928 -3.7232,-8.3160 -8.3160 -8.3160c -4.5928,-0.0000 -8.3160,3.7232 -8.3160 8.3160c -0.0000,4.5928 3.7232,8.3160 8.3160 8.3160c 4.5928,0.0000 8.3160,-3.7232 8.3160 -8.3160Z"/></g><defs></defs><g stroke-linejoin="miter" stroke-opacity="0.0" fill-opacity="0.5" stroke="rgb(0,0,0)" stroke-width="0.0" fill="rgb(85,85,85)" stroke-linecap="butt" stroke-miterlimit="10.0"><path d="M 106.4449,274.1511 c 0.0000,-4.5928 -3.7232,-8.3160 -8.3160 -8.3160c -4.5928,-0.0000 -8.3160,3.7232 -8.3160 8.3160c -0.0000,4.5928 3.7232,8.3160 8.3160 8.3160c 4.5928,0.0000 8.3160,-3.7232 8.3160 -8.3160Z"/></g><defs></defs><g stroke-linejoin="miter" stroke-opacity="0.0" fill-opacity="0.5" stroke="rgb(0,0,0)" stroke-width="0.0" fill="rgb(85,85,85)" stroke-linecap="butt" stroke-miterlimit="10.0"><path d="M 106.4449,301.8711 c 0.0000,-4.5928 -3.7232,-8.3160 -8.3160 -8.3160c -4.5928,-0.0000 -8.3160,3.7232 -8.3160 8.3160c -0.0000,4.5928 3.7232,8.3160 8.3160 8.3160c 4.5928,0.0000 8.3160,-3.7232 8.3160 -8.3160Z"/></g><defs></defs><g stroke-linejoin="miter" stroke-opacity="0.0" fill-opacity="0.5" stroke="rgb(0,0,0)" stroke-width="0.0" fill="rgb(85,85,85)" stroke-linecap="butt" stroke-miterlimit="10.0"><path d="M 106.4449,329.5911 c 0.0000,-4.5928 -3.7232,-8.3160 -8.3160 -8.3160c -4.5928,-0.0000 -8.3160,3.7232 -8.3160 8.3160c -0.0000,4.5928 3.7232,8.3160 8.3160 8.3160c 4.5928,0.0000 8.3160,-3.7232 8.3160 -8.3160Z"/></g><defs></defs><g stroke-linejoin="miter" stroke-opacity="0.0" fill-opacity="0.5" stroke="rgb(0,0,0)" stroke-width="0.0" fill="rgb(85,85,85)" stroke-linecap="butt" stroke-miterlimit="10.0"><path d="M 78.7249,52.3909 c 0.0000,-4.5928 -3.7232,-8.3160 -8.3160 -8.3160c -4.5928,-0.0000 -8.3160,3.7232 -8.3160 8.3160c -0.0000,4.5928 3.7232,8.3160 8.3160 8.3160c 4.5928,0.0000 8.3160,-3.7232 8.3160 -8.3160Z"/></g><defs></defs><g stroke-linejoin="miter" stroke-opacity="0.0" fill-opacity="0.5" stroke="rgb(0,0,0)" stroke-width="0.0" fill="rgb(85,85,85)" stroke-linecap="butt" stroke-miterlimit="10.0"><path d="M 78.7249,80.1109 c 0.0000,-4.5928 -3.7232,-8.3160 -8.3160 -8.3160c -4.5928,-0.0000 -8.3160,3.7232 -8.3160 8.3160c -0.0000,4.5928 3.7232,8.3160 8.3160 8.3160c 4.5928,0.0000 8.3160,-3.7232 8.3160 -8.3160Z"/></g><defs></defs><g stroke-linejoin="miter" stroke-opacity="0.0" fill-opacity="0.5" stroke="rgb(0,0,0)" stroke-width="0.0" fill="rgb(85,85,85)" stroke-linecap="butt" stroke-miterlimit="10.0"><path d="M 78.7249,107.8309 c 0.0000,-4.5928 -3.7232,-8.3160 -8.3160 -8.3160c -4.5928,-0.0000 -8.3160,3.7232 -8.3160 8.3160c -0.0000,4.5928 3.7232,8.3160 8.3160 8.3160c 4.5928,0.0000 8.3160,-3.7232 8.3160 -8.3160Z"/></g><defs></defs><g stroke-linejoin="miter" stroke-opacity="0.0" fill-opacity="0.5" stroke="rgb(0,0,0)" stroke-width="0.0" fill="rgb(85,85,85)" stroke-linecap="butt" stroke-miterlimit="10.0"><path d="M 78.7249,135.5509 c 0.0000,-4.5928 -3.7232,-8.3160 -8.3160 -8.3160c -4.5928,-0.0000 -8.3160,3.7232 -8.3160 8.3160c -0.0000,4.5928 3.7232,8.3160 8.3160 8.3160c 4.5928,0.0000 8.3160,-3.7232 8.3160 -8.3160Z"/></g><defs></defs><g stroke-linejoin="miter" stroke-opacity="0.0" fill-opacity="0.5" stroke="rgb(0,0,0)" stroke-width="0.0" fill="rgb(85,85,85)" stroke-linecap="butt" stroke-miterlimit="10.0"><path d="M 78.7249,163.2710 c 0.0000,-4.5928 -3.7232,-8.3160 -8.3160 -8.3160c -4.5928,-0.0000 -8.3160,3.7232 -8.3160 8.3160c -0.0000,4.5928 3.7232,8.3160 8.3160 8.3160c 4.5928,0.0000 8.3160,-3.7232 8.3160 -8.3160Z"/></g><defs></defs><g stroke-linejoin="miter" stroke-opacity="0.0" fill-opacity="0.5" stroke="rgb(0,0,0)" stroke-width="0.0" fill="rgb(85,85,85)" stroke-linecap="butt" stroke-miterlimit="10.0"><path d="M 78.7249,190.9910 c 0.0000,-4.5928 -3.7232,-8.3160 -8.3160 -8.3160c -4.5928,-0.0000 -8.3160,3.7232 -8.3160 8.3160c -0.0000,4.5928 3.7232,8.3160 8.3160 8.3160c 4.5928,0.0000 8.3160,-3.7232 8.3160 -8.3160Z"/></g><defs></defs><g stroke-linejoin="miter" stroke-opacity="0.0" fill-opacity="0.5" stroke="rgb(0,0,0)" stroke-width="0.0" fill="rgb(85,85,85)" stroke-linecap="butt" stroke-miterlimit="10.0"><path d="M 78.7249,218.7110 c 0.0000,-4.5928 -3.7232,-8.3160 -8.3160 -8.3160c -4.5928,-0.0000 -8.3160,3.7232 -8.3160 8.3160c -0.0000,4.5928 3.7232,8.3160 8.3160 8.3160c 4.5928,0.0000 8.3160,-3.7232 8.3160 -8.3160Z"/></g><defs></defs><g stroke-linejoin="miter" stroke-opacity="0.0" fill-opacity="0.5" stroke="rgb(0,0,0)" stroke-width="0.0" fill="rgb(85,85,85)" stroke-linecap="butt" stroke-miterlimit="10.0"><path d="M 78.7249,246.4310 c 0.0000,-4.5928 -3.7232,-8.3160 -8.3160 -8.3160c -4.5928,-0.0000 -8.3160,3.7232 -8.3160 8.3160c -0.0000,4.5928 3.7232,8.3160 8.3160 8.3160c 4.5928,0.0000 8.3160,-3.7232 8.3160 -8.3160Z"/></g><defs></defs><g stroke-linejoin="miter" stroke-opacity="0.0" fill-opacity="0.5" stroke="rgb(0,0,0)" stroke-width="0.0" fill="rgb(85,85,85)" stroke-linecap="butt" stroke-miterlimit="10.0"><path d="M 78.7249,274.1511 c 0.0000,-4.5928 -3.7232,-8.3160 -8.3160 -8.3160c -4.5928,-0.0000 -8.3160,3.7232 -8.3160 8.3160c -0.0000,4.5928 3.7232,8.3160 8.3160 8.3160c 4.5928,0.0000 8.3160,-3.7232 8.3160 -8.3160Z"/></g><defs></defs><g stroke-linejoin="miter" stroke-opacity="0.0" fill-opacity="0.5" stroke="rgb(0,0,0)" stroke-width="0.0" fill="rgb(85,85,85)" stroke-linecap="butt" stroke-miterlimit="10.0"><path d="M 78.7249,301.8711 c 0.0000,-4.5928 -3.7232,-8.3160 -8.3160 -8.3160c -4.5928,-0.0000 -8.3160,3.7232 -8.3160 8.3160c -0.0000,4.5928 3.7232,8.3160 8.3160 8.3160c 4.5928,0.0000 8.3160,-3.7232 8.3160 -8.3160Z"/></g><defs></defs><g stroke-linejoin="miter" stroke-opacity="0.0" fill-opacity="0.5" stroke="rgb(0,0,0)" stroke-width="0.0" fill="rgb(85,85,85)" stroke-linecap="butt" stroke-miterlimit="10.0"><path d="M 78.7249,329.5911 c 0.0000,-4.5928 -3.7232,-8.3160 -8.3160 -8.3160c -4.5928,-0.0000 -8.3160,3.7232 -8.3160 8.3160c -0.0000,4.5928 3.7232,8.3160 8.3160 8.3160c 4.5928,0.0000 8.3160,-3.7232 8.3160 -8.3160Z"/></g><defs></defs><g stroke-linejoin="miter" stroke-opacity="1.0" fill-opacity="1.0" stroke="rgb(0,0,0)" stroke-width="0.0" fill="rgb(255,0,0)" stroke-linecap="butt" stroke-miterlimit="10.0"><path d="M 214.8857,190.9910 c 0.0000,-3.2456 -2.6311,-5.8766 -5.8766 -5.8766c -3.2456,-0.0000 -5.8766,2.6311 -5.8766 5.8766c -0.0000,3.2456 2.6311,5.8766 5.8766 5.8766c 3.2456,0.0000 5.8766,-2.6311 5.8766 -5.8766Z"/></g></svg>