<?xml version="1.0" encoding="UTF-8"?>
<!DOCTYPE svg PUBLIC "-//W3C//DTD SVG 1.1//EN"
    "http://www.w3.org/Graphics/SVG/1.1/DTD/svg11.dtd"><svg xmlns="http://www.w3.org/2000/svg" height="400.0000" stroke-opacity="1" viewBox="0 0 600 400" font-size="1" width="600.0000" xmlns:xlink="http://www.w3.org/1999/xlink" stroke="rgb(0,0,0)" version="1.1"><defs></defs><g stroke-linejoin="miter" stroke-opacity="0.0" fill-opacity="0.1" stroke="rgb(0,0,0)" stroke-width="0.0" fill="rgb(0,0,0)" stroke-linecap="butt" stroke-miterlimit="10.0"><path d="M 53.6188,276.0791 l -0.0000,-168.8571 h -3.3771 l -0.0000,168.8571 Z"/></g><g stroke-linejoin="miter" stroke-opacity="1.0" fill-opacity="0.6" stroke="rgb(0,0,0)" fill-rule="evenodd" stroke-width="0.0" fill="rgb(0,0,0)" stroke-linecap="butt" stroke-miterlimit="10.0"><path d="M 28.8489,107.2221 ZM 31.3020,101.1399 c -0.4816,-0.0000 -1.1873,0.4704 -1.1873 3.0803c 0.0000,0.9185 0.1680,2.7667 1.1537 2.7667c 0.1904,-0.0000 0.7281,-0.1232 0.9633 -0.9969c 0.1456,-0.5377 0.2240,-1.2097 0.2240 -2.1842c 0.0000,-1.4225 -0.3584,-2.2178 -0.6833 -2.4979c -0.1232,-0.1120 -0.2912,-0.1680 -0.4704 -0.1680ZM 31.3020,101.1399 ZM 31.2572,107.3565 c -1.1985,-0.0000 -2.0050,-1.5346 -2.0050 -3.2483c 0.0000,-2.0946 0.9969,-3.3603 2.0498 -3.3603c 0.4816,-0.0000 0.9633,0.3024 1.2881 0.7393c 0.4704,0.6273 0.7169,1.4673 0.7169 2.5203c 0.0000,2.4867 -1.2321,3.3491 -2.0498 3.3491ZM 33.7550,107.2221 ZM 34.3935,106.7628 c 0.0000,-0.3248 0.2688,-0.5937 0.5937 -0.5937c 0.3248,-0.0000 0.5937,0.2688 0.5937 0.5937c 0.0000,0.3248 -0.2688,0.5937 -0.5937 0.5937c -0.3248,-0.0000 -0.5937,-0.2688 -0.5937 -0.5937ZM 36.2081,107.2221 ZM 36.8577,102.2600 c 0.0000,-0.6385 0.6161,-1.5122 1.7922 -1.5122c 0.8625,-0.0000 1.8706,0.3248 1.8706 1.6130c 0.0000,0.8513 -0.4368,1.2769 -1.0417 1.8594l -1.0641,1.0305 c -0.0560,0.0560 -0.8065,0.7953 -0.8065 1.3217h 1.9042 c 0.3808,-0.0000 0.5825,-0.1904 0.7393 -0.8065l 0.2800,0.0448 l -0.2240,1.4113 h -3.4611 c 0.0000,-0.6273 0.1008,-1.1089 1.1425 -2.1730l 0.7841,-0.7729 c 0.6273,-0.6385 0.8849,-1.1873 0.8849 -1.8706c 0.0000,-1.0193 -0.6945,-1.3105 -1.0753 -1.3105c -0.7729,-0.0000 -0.9857,0.4032 -0.9857 0.6721c 0.0000,0.0896 0.0224,0.1792 0.0448 0.2576c 0.0224,0.0784 0.0448,0.1568 0.0448 0.2464c 0.0000,0.2912 -0.2240,0.4032 -0.4032 0.4032c -0.2464,-0.0000 -0.4256,-0.1904 -0.4256 -0.4144ZM 41.1142,107.2221 ZM 43.5672,101.1399 c -0.4816,-0.0000 -1.1873,0.4704 -1.1873 3.0803c 0.0000,0.9185 0.1680,2.7667 1.1537 2.7667c 0.1904,-0.0000 0.7281,-0.1232 0.9633 -0.9969c 0.1456,-0.5377 0.2240,-1.2097 0.2240 -2.1842c 0.0000,-1.4225 -0.3584,-2.2178 -0.6833 -2.4979c -0.1232,-0.1120 -0.2912,-0.1680 -0.4704 -0.1680ZM 43.5672,101.1399 ZM 43.5224,107.3565 c -1.1985,-0.0000 -2.0050,-1.5346 -2.0050 -3.2483c 0.0000,-2.0946 0.9969,-3.3603 2.0498 -3.3603c 0.4816,-0.0000 0.9633,0.3024 1.2881 0.7393c 0.4704,0.6273 0.7169,1.4673 0.7169 2.5203c 0.0000,2.4867 -1.2321,3.3491 -2.0498 3.3491Z"/></g><g stroke-linejoin="miter" stroke-opacity="0.6" fill-opacity="0.0" stroke="rgb(0,0,0)" stroke-width="1.8322938419104906" fill="rgb(0,0,0)" stroke-linecap="butt" stroke-miterlimit="10.0"><path d="M 48.5531,107.2221 h 5.0657 "/></g><g stroke-linejoin="miter" stroke-opacity="1.0" fill-opacity="0.6" stroke="rgb(0,0,0)" fill-rule="evenodd" stroke-width="0.0" fill="rgb(0,0,0)" stroke-linecap="butt" stroke-miterlimit="10.0"><path d="M 28.8489,124.1078 ZM 31.3020,118.0256 c -0.4816,-0.0000 -1.1873,0.4704 -1.1873 3.0803c 0.0000,0.9185 0.1680,2.7667 1.1537 2.7667c 0.1904,-0.0000 0.7281,-0.1232 0.9633 -0.9969c 0.1456,-0.5377 0.2240,-1.2097 0.2240 -2.1842c 0.0000,-1.4225 -0.3584,-2.2178 -0.6833 -2.4979c -0.1232,-0.1120 -0.2912,-0.1680 -0.4704 -0.1680ZM 31.3020,118.0256 ZM 31.2572,124.2422 c -1.1985,-0.0000 -2.0050,-1.5346 -2.0050 -3.2483c 0.0000,-2.0946 0.9969,-3.3603 2.0498 -3.3603c 0.4816,-0.0000 0.9633,0.3024 1.2881 0.7393c 0.4704,0.6273 0.7169,1.4673 0.7169 2.5203c 0.0000,2.4867 -1.2321,3.3491 -2.0498 3.3491ZM 33.7550,124.1078 ZM 34.3935,123.6485 c 0.0000,-0.3248 0.2688,-0.5937 0.5937 -0.5937c 0.3248,-0.0000 0.5937,0.2688 0.5937 0.5937c 0.0000,0.3248 -0.2688,0.5937 -0.5937 0.5937c -0.3248,-0.0000 -0.5937,-0.2688 -0.5937 -0.5937ZM 36.2081,124.1078 ZM 38.3139,118.7648 c -0.2128,-0.0000 -0.7057,0.2016 -0.9521 0.3136l -0.1344,-0.3472 c 0.9857,-0.4592 1.3665,-0.6945 1.9266 -1.0977h 0.2128 v 5.6342 c 0.0000,0.4032 0.0560,0.5153 0.4256 0.5153h 0.5825 c 0.0336,-0.0000 0.0896,0.0224 0.0896 0.0896v 0.2464 l -1.5346,-0.0224 l -1.5570,0.0224 v -0.2464 c 0.0112,-0.0336 0.0224,-0.0896 0.0896 -0.0896h 0.6721 c 0.4256,-0.0000 0.4256,-0.1904 0.4256 -0.5153v -3.8532 c 0.0000,-0.3808 0.0000,-0.6497 -0.2464 -0.6497ZM 41.1142,124.1078 ZM 43.6008,117.9023 c -0.6385,-0.0000 -1.0529,0.5041 -1.0529 0.9969c 0.0000,0.3248 0.1344,0.7169 0.8065 1.1537l 0.3248,0.2016 c 0.2912,-0.2128 0.9745,-0.7281 0.9745 -1.2993c 0.0000,-0.4928 -0.3584,-1.0529 -1.0529 -1.0529ZM 43.6008,117.9023 ZM 45.3146,118.9665 c 0.0000,0.6833 -0.7729,1.2209 -1.2433 1.5346l 0.6497,0.4256 c 0.5489,0.3584 0.8289,0.8513 0.8289 1.4673c 0.0000,0.8065 -0.6609,1.8482 -2.0498 1.8482c -1.1201,-0.0000 -1.8930,-0.5937 -1.8930 -1.6802c 0.0000,-0.4144 0.1792,-0.8961 0.6161 -1.2769c 0.2688,-0.2352 0.5041,-0.4368 0.7729 -0.6385l -0.1904,-0.1120 c -0.6497,-0.4032 -0.9745,-0.8401 -0.9745 -1.4337c 0.0000,-0.8177 0.7393,-1.4673 1.8258 -1.4673c 1.0417,-0.0000 1.6578,0.5713 1.6578 1.3329ZM 45.3146,118.9665 ZM 43.5224,123.9286 c 0.4816,-0.0000 1.3217,-0.2576 1.3217 -1.3217c 0.0000,-0.5041 -0.3136,-1.0081 -0.9745 -1.4113l -0.4928,-0.3024 c -0.9073,0.6049 -1.1089,1.3553 -1.1089 1.6690c 0.0000,0.9521 0.7729,1.3665 1.2545 1.3665Z"/></g><g stroke-linejoin="miter" stroke-opacity="0.6" fill-opacity="0.0" stroke="rgb(0,0,0)" stroke-width="1.8322938419104906" fill="rgb(0,0,0)" stroke-linecap="butt" stroke-miterlimit="10.0"><path d="M 48.5531,124.1078 h 5.0657 "/></g><g stroke-linejoin="miter" stroke-opacity="1.0" fill-opacity="0.6" stroke="rgb(0,0,0)" fill-rule="evenodd" stroke-width="0.0" fill="rgb(0,0,0)" stroke-linecap="butt" stroke-miterlimit="10.0"><path d="M 28.8489,140.9935 ZM 31.3020,134.9113 c -0.4816,-0.0000 -1.1873,0.4704 -1.1873 3.0803c 0.0000,0.9185 0.1680,2.7667 1.1537 2.7667c 0.1904,-0.0000 0.7281,-0.1232 0.9633 -0.9969c 0.1456,-0.5377 0.2240,-1.2097 0.2240 -2.1842c 0.0000,-1.4225 -0.3584,-2.2178 -0.6833 -2.4979c -0.1232,-0.1120 -0.2912,-0.1680 -0.4704 -0.1680ZM 31.3020,134.9113 ZM 31.2572,141.1279 c -1.1985,-0.0000 -2.0050,-1.5346 -2.0050 -3.2483c 0.0000,-2.0946 0.9969,-3.3603 2.0498 -3.3603c 0.4816,-0.0000 0.9633,0.3024 1.2881 0.7393c 0.4704,0.6273 0.7169,1.4673 0.7169 2.5203c 0.0000,2.4867 -1.2321,3.3491 -2.0498 3.3491ZM 33.7550,140.9935 ZM 34.3935,140.5342 c 0.0000,-0.3248 0.2688,-0.5937 0.5937 -0.5937c 0.3248,-0.0000 0.5937,0.2688 0.5937 0.5937c 0.0000,0.3248 -0.2688,0.5937 -0.5937 0.5937c -0.3248,-0.0000 -0.5937,-0.2688 -0.5937 -0.5937ZM 36.2081,140.9935 ZM 38.3139,135.6505 c -0.2128,-0.0000 -0.7057,0.2016 -0.9521 0.3136l -0.1344,-0.3472 c 0.9857,-0.4592 1.3665,-0.6945 1.9266 -1.0977h 0.2128 v 5.6342 c 0.0000,0.4032 0.0560,0.5153 0.4256 0.5153h 0.5825 c 0.0336,-0.0000 0.0896,0.0224 0.0896 0.0896v 0.2464 l -1.5346,-0.0224 l -1.5570,0.0224 v -0.2464 c 0.0112,-0.0336 0.0224,-0.0896 0.0896 -0.0896h 0.6721 c 0.4256,-0.0000 0.4256,-0.1904 0.4256 -0.5153v -3.8532 c 0.0000,-0.3808 0.0000,-0.6497 -0.2464 -0.6497ZM 41.1142,140.9935 ZM 42.4135,138.0588 c -0.0112,0.1120 -0.0112,0.2800 -0.0112 0.3920c 0.0000,1.8818 0.8401,2.3522 1.4001 2.3522c 0.5153,-0.0000 1.0641,-0.4816 1.0641 -1.6466c 0.0000,-0.5265 -0.2688,-1.6018 -1.3441 -1.6018c -0.2352,-0.0000 -0.6609,0.0224 -1.1089 0.5041ZM 42.4135,138.0588 ZM 45.3482,134.8105 c -0.7281,0.0672 -1.3553,0.2576 -1.8930 0.7841c -0.5153,0.5041 -0.8849,1.2545 -1.0081 2.1506c 0.2576,-0.3136 0.8737,-0.5489 1.2993 -0.5489c 1.6578,-0.0000 1.8706,1.3665 1.8706 1.8818c 0.0000,0.7617 -0.3808,2.0498 -1.9266 2.0498c -0.8177,-0.0000 -2.0610,-0.4816 -2.0610 -2.7107c 0.0000,-1.0305 0.3472,-2.0386 1.1201 -2.8115c 0.7169,-0.7281 1.4673,-1.0305 2.5651 -1.0865Z"/></g><g stroke-linejoin="miter" stroke-opacity="0.6" fill-opacity="0.0" stroke="rgb(0,0,0)" stroke-width="1.8322938419104906" fill="rgb(0,0,0)" stroke-linecap="butt" stroke-miterlimit="10.0"><path d="M 48.5531,140.9935 h 5.0657 "/></g><g stroke-linejoin="miter" stroke-opacity="1.0" fill-opacity="0.6" stroke="rgb(0,0,0)" fill-rule="evenodd" stroke-width="0.0" fill="rgb(0,0,0)" stroke-linecap="butt" stroke-miterlimit="10.0"><path d="M 28.8489,157.8792 ZM 31.3020,151.7970 c -0.4816,-0.0000 -1.1873,0.4704 -1.1873 3.0803c 0.0000,0.9185 0.1680,2.7667 1.1537 2.7667c 0.1904,-0.0000 0.7281,-0.1232 0.9633 -0.9969c 0.1456,-0.5377 0.2240,-1.2097 0.2240 -2.1842c 0.0000,-1.4225 -0.3584,-2.2178 -0.6833 -2.4979c -0.1232,-0.1120 -0.2912,-0.1680 -0.4704 -0.1680ZM 31.3020,151.7970 ZM 31.2572,158.0136 c -1.1985,-0.0000 -2.0050,-1.5346 -2.0050 -3.2483c 0.0000,-2.0946 0.9969,-3.3603 2.0498 -3.3603c 0.4816,-0.0000 0.9633,0.3024 1.2881 0.7393c 0.4704,0.6273 0.7169,1.4673 0.7169 2.5203c 0.0000,2.4867 -1.2321,3.3491 -2.0498 3.3491ZM 33.7550,157.8792 ZM 34.3935,157.4199 c 0.0000,-0.3248 0.2688,-0.5937 0.5937 -0.5937c 0.3248,-0.0000 0.5937,0.2688 0.5937 0.5937c 0.0000,0.3248 -0.2688,0.5937 -0.5937 0.5937c -0.3248,-0.0000 -0.5937,-0.2688 -0.5937 -0.5937ZM 36.2081,157.8792 ZM 38.3139,152.5363 c -0.2128,-0.0000 -0.7057,0.2016 -0.9521 0.3136l -0.1344,-0.3472 c 0.9857,-0.4592 1.3665,-0.6945 1.9266 -1.0977h 0.2128 v 5.6342 c 0.0000,0.4032 0.0560,0.5153 0.4256 0.5153h 0.5825 c 0.0336,-0.0000 0.0896,0.0224 0.0896 0.0896v 0.2464 l -1.5346,-0.0224 l -1.5570,0.0224 v -0.2464 c 0.0112,-0.0336 0.0224,-0.0896 0.0896 -0.0896h 0.6721 c 0.4256,-0.0000 0.4256,-0.1904 0.4256 -0.5153v -3.8532 c 0.0000,-0.3808 0.0000,-0.6497 -0.2464 -0.6497ZM 41.1142,157.8792 ZM 44.0041,153.9028 c 0.0000,-0.0784 0.0112,-0.1680 0.1120 -0.2240c 0.1232,-0.0896 0.3248,-0.1904 0.4928 -0.1904c 0.1456,-0.0000 0.1568,0.1232 0.1568 0.3472v 1.8034 h 0.9073 l -0.0672,0.5265 h -0.8401 v 0.9297 c 0.0000,0.3136 0.0448,0.4704 0.3696 0.4704h 0.3024 c 0.0672,-0.0000 0.0784,0.0560 0.0784 0.0784v 0.2464 c 0.0000,-0.0000 -0.7169,-0.0224 -1.1873 -0.0224c -0.4256,-0.0000 -1.0865,0.0224 -1.0865 0.0224v -0.2464 c 0.0000,-0.0224 0.0112,-0.0784 0.0784 -0.0784h 0.3024 c 0.3472,-0.0000 0.3808,-0.1456 0.3808 -0.4704v -0.9297 h -2.1954 c -0.0448,-0.0000 -0.0672,-0.0224 -0.1008 -0.0672l -0.0896,-0.1232 l -0.1344,-0.2352 c -0.0112,-0.0000 -0.0112,-0.0112 -0.0112 -0.0224c 0.0000,-0.0112 0.0112,-0.0224 0.0224 -0.0336c 0.7281,-0.8065 2.0162,-3.3043 2.4194 -4.2228c 0.0112,-0.0448 0.0336,-0.0560 0.0784 -0.0560c 0.0112,-0.0000 0.2576,0.1008 0.3920 0.1232c -0.5041,1.3553 -1.3329,2.8115 -2.1506 4.1108h 1.7698 v -1.7362 Z"/></g><g stroke-linejoin="miter" stroke-opacity="0.6" fill-opacity="0.0" stroke="rgb(0,0,0)" stroke-width="1.8322938419104906" fill="rgb(0,0,0)" stroke-linecap="butt" stroke-miterlimit="10.0"><path d="M 48.5531,157.8792 h 5.0657 "/></g><g stroke-linejoin="miter" stroke-opacity="1.0" fill-opacity="0.6" stroke="rgb(0,0,0)" fill-rule="evenodd" stroke-width="0.0" fill="rgb(0,0,0)" stroke-linecap="butt" stroke-miterlimit="10.0"><path d="M 28.8489,174.7649 ZM 31.3020,168.6827 c -0.4816,-0.0000 -1.1873,0.4704 -1.1873 3.0803c 0.0000,0.9185 0.1680,2.7667 1.1537 2.7667c 0.1904,-0.0000 0.7281,-0.1232 0.9633 -0.9969c 0.1456,-0.5377 0.2240,-1.2097 0.2240 -2.1842c 0.0000,-1.4225 -0.3584,-2.2178 -0.6833 -2.4979c -0.1232,-0.1120 -0.2912,-0.1680 -0.4704 -0.1680ZM 31.3020,168.6827 ZM 31.2572,174.8993 c -1.1985,-0.0000 -2.0050,-1.5346 -2.0050 -3.2483c 0.0000,-2.0946 0.9969,-3.3603 2.0498 -3.3603c 0.4816,-0.0000 0.9633,0.3024 1.2881 0.7393c 0.4704,0.6273 0.7169,1.4673 0.7169 2.5203c 0.0000,2.4867 -1.2321,3.3491 -2.0498 3.3491ZM 33.7550,174.7649 ZM 34.3935,174.3057 c 0.0000,-0.3248 0.2688,-0.5937 0.5937 -0.5937c 0.3248,-0.0000 0.5937,0.2688 0.5937 0.5937c 0.0000,0.3248 -0.2688,0.5937 -0.5937 0.5937c -0.3248,-0.0000 -0.5937,-0.2688 -0.5937 -0.5937ZM 36.2081,174.7649 ZM 38.3139,169.4220 c -0.2128,-0.0000 -0.7057,0.2016 -0.9521 0.3136l -0.1344,-0.3472 c 0.9857,-0.4592 1.3665,-0.6945 1.9266 -1.0977h 0.2128 v 5.6342 c 0.0000,0.4032 0.0560,0.5153 0.4256 0.5153h 0.5825 c 0.0336,-0.0000 0.0896,0.0224 0.0896 0.0896v 0.2464 l -1.5346,-0.0224 l -1.5570,0.0224 v -0.2464 c 0.0112,-0.0336 0.0224,-0.0896 0.0896 -0.0896h 0.6721 c 0.4256,-0.0000 0.4256,-0.1904 0.4256 -0.5153v -3.8532 c 0.0000,-0.3808 0.0000,-0.6497 -0.2464 -0.6497ZM 41.1142,174.7649 ZM 41.7638,169.8028 c 0.0000,-0.6385 0.6161,-1.5122 1.7922 -1.5122c 0.8625,-0.0000 1.8706,0.3248 1.8706 1.6130c 0.0000,0.8513 -0.4368,1.2769 -1.0417 1.8594l -1.0641,1.0305 c -0.0560,0.0560 -0.8065,0.7953 -0.8065 1.3217h 1.9042 c 0.3808,-0.0000 0.5825,-0.1904 0.7393 -0.8065l 0.2800,0.0448 l -0.2240,1.4113 h -3.4611 c 0.0000,-0.6273 0.1008,-1.1089 1.1425 -2.1730l 0.7841,-0.7729 c 0.6273,-0.6385 0.8849,-1.1873 0.8849 -1.8706c 0.0000,-1.0193 -0.6945,-1.3105 -1.0753 -1.3105c -0.7729,-0.0000 -0.9857,0.4032 -0.9857 0.6721c 0.0000,0.0896 0.0224,0.1792 0.0448 0.2576c 0.0224,0.0784 0.0448,0.1568 0.0448 0.2464c 0.0000,0.2912 -0.2240,0.4032 -0.4032 0.4032c -0.2464,-0.0000 -0.4256,-0.1904 -0.4256 -0.4144Z"/></g><g stroke-linejoin="miter" stroke-opacity="0.6" fill-opacity="0.0" stroke="rgb(0,0,0)" stroke-width="1.8322938419104906" fill="rgb(0,0,0)" stroke-linecap="butt" stroke-miterlimit="10.0"><path d="M 48.5531,174.7649 h 5.0657 "/></g><g stroke-linejoin="miter" stroke-opacity="1.0" fill-opacity="0.6" stroke="rgb(0,0,0)" fill-rule="evenodd" stroke-width="0.0" fill="rgb(0,0,0)" stroke-linecap="butt" stroke-miterlimit="10.0"><path d="M 28.8489,191.6506 ZM 31.3020,185.5684 c -0.4816,-0.0000 -1.1873,0.4704 -1.1873 3.0803c 0.0000,0.9185 0.1680,2.7667 1.1537 2.7667c 0.1904,-0.0000 0.7281,-0.1232 0.9633 -0.9969c 0.1456,-0.5377 0.2240,-1.2097 0.2240 -2.1842c 0.0000,-1.4225 -0.3584,-2.2178 -0.6833 -2.4979c -0.1232,-0.1120 -0.2912,-0.1680 -0.4704 -0.1680ZM 31.3020,185.5684 ZM 31.2572,191.7850 c -1.1985,-0.0000 -2.0050,-1.5346 -2.0050 -3.2483c 0.0000,-2.0946 0.9969,-3.3603 2.0498 -3.3603c 0.4816,-0.0000 0.9633,0.3024 1.2881 0.7393c 0.4704,0.6273 0.7169,1.4673 0.7169 2.5203c 0.0000,2.4867 -1.2321,3.3491 -2.0498 3.3491ZM 33.7550,191.6506 ZM 34.3935,191.1914 c 0.0000,-0.3248 0.2688,-0.5937 0.5937 -0.5937c 0.3248,-0.0000 0.5937,0.2688 0.5937 0.5937c 0.0000,0.3248 -0.2688,0.5937 -0.5937 0.5937c -0.3248,-0.0000 -0.5937,-0.2688 -0.5937 -0.5937ZM 36.2081,191.6506 ZM 38.3139,186.3077 c -0.2128,-0.0000 -0.7057,0.2016 -0.9521 0.3136l -0.1344,-0.3472 c 0.9857,-0.4592 1.3665,-0.6945 1.9266 -1.0977h 0.2128 v 5.6342 c 0.0000,0.4032 0.0560,0.5153 0.4256 0.5153h 0.5825 c 0.0336,-0.0000 0.0896,0.0224 0.0896 0.0896v 0.2464 l -1.5346,-0.0224 l -1.5570,0.0224 v -0.2464 c 0.0112,-0.0336 0.0224,-0.0896 0.0896 -0.0896h 0.6721 c 0.4256,-0.0000 0.4256,-0.1904 0.4256 -0.5153v -3.8532 c 0.0000,-0.3808 0.0000,-0.6497 -0.2464 -0.6497ZM 41.1142,191.6506 ZM 43.5672,185.5684 c -0.4816,-0.0000 -1.1873,0.4704 -1.1873 3.0803c 0.0000,0.9185 0.1680,2.7667 1.1537 2.7667c 0.1904,-0.0000 0.7281,-0.1232 0.9633 -0.9969c 0.1456,-0.5377 0.2240,-1.2097 0.2240 -2.1842c 0.0000,-1.4225 -0.3584,-2.2178 -0.6833 -2.4979c -0.1232,-0.1120 -0.2912,-0.1680 -0.4704 -0.1680ZM 43.5672,185.5684 ZM 43.5224,191.7850 c -1.1985,-0.0000 -2.0050,-1.5346 -2.0050 -3.2483c 0.0000,-2.0946 0.9969,-3.3603 2.0498 -3.3603c 0.4816,-0.0000 0.9633,0.3024 1.2881 0.7393c 0.4704,0.6273 0.7169,1.4673 0.7169 2.5203c 0.0000,2.4867 -1.2321,3.3491 -2.0498 3.3491Z"/></g><g stroke-linejoin="miter" stroke-opacity="0.6" fill-opacity="0.0" stroke="rgb(0,0,0)" stroke-width="1.8322938419104906" fill="rgb(0,0,0)" stroke-linecap="butt" stroke-miterlimit="10.0"><path d="M 48.5531,191.6506 h 5.0657 "/></g><g stroke-linejoin="miter" stroke-opacity="1.0" fill-opacity="0.6" stroke="rgb(0,0,0)" fill-rule="evenodd" stroke-width="0.0" fill="rgb(0,0,0)" stroke-linecap="butt" stroke-miterlimit="10.0"><path d="M 28.8489,208.5363 ZM 31.3020,202.4541 c -0.4816,-0.0000 -1.1873,0.4704 -1.1873 3.0803c 0.0000,0.9185 0.1680,2.7667 1.1537 2.7667c 0.1904,-0.0000 0.7281,-0.1232 0.9633 -0.9969c 0.1456,-0.5377 0.2240,-1.2097 0.2240 -2.1842c 0.0000,-1.4225 -0.3584,-2.2178 -0.6833 -2.4979c -0.1232,-0.1120 -0.2912,-0.1680 -0.4704 -0.1680ZM 31.3020,202.4541 ZM 31.2572,208.6707 c -1.1985,-0.0000 -2.0050,-1.5346 -2.0050 -3.2483c 0.0000,-2.0946 0.9969,-3.3603 2.0498 -3.3603c 0.4816,-0.0000 0.9633,0.3024 1.2881 0.7393c 0.4704,0.6273 0.7169,1.4673 0.7169 2.5203c 0.0000,2.4867 -1.2321,3.3491 -2.0498 3.3491ZM 33.7550,208.5363 ZM 34.3935,208.0771 c 0.0000,-0.3248 0.2688,-0.5937 0.5937 -0.5937c 0.3248,-0.0000 0.5937,0.2688 0.5937 0.5937c 0.0000,0.3248 -0.2688,0.5937 -0.5937 0.5937c -0.3248,-0.0000 -0.5937,-0.2688 -0.5937 -0.5937ZM 36.2081,208.5363 ZM 38.6611,202.4541 c -0.4816,-0.0000 -1.1873,0.4704 -1.1873 3.0803c 0.0000,0.9185 0.1680,2.7667 1.1537 2.7667c 0.1904,-0.0000 0.7281,-0.1232 0.9633 -0.9969c 0.1456,-0.5377 0.2240,-1.2097 0.2240 -2.1842c 0.0000,-1.4225 -0.3584,-2.2178 -0.6833 -2.4979c -0.1232,-0.1120 -0.2912,-0.1680 -0.4704 -0.1680ZM 38.6611,202.4541 ZM 38.6163,208.6707 c -1.1985,-0.0000 -2.0050,-1.5346 -2.0050 -3.2483c 0.0000,-2.0946 0.9969,-3.3603 2.0498 -3.3603c 0.4816,-0.0000 0.9633,0.3024 1.2881 0.7393c 0.4704,0.6273 0.7169,1.4673 0.7169 2.5203c 0.0000,2.4867 -1.2321,3.3491 -2.0498 3.3491ZM 41.1142,208.5363 ZM 43.6008,202.3309 c -0.6385,-0.0000 -1.0529,0.5041 -1.0529 0.9969c 0.0000,0.3248 0.1344,0.7169 0.8065 1.1537l 0.3248,0.2016 c 0.2912,-0.2128 0.9745,-0.7281 0.9745 -1.2993c 0.0000,-0.4928 -0.3584,-1.0529 -1.0529 -1.0529ZM 43.6008,202.3309 ZM 45.3146,203.3950 c 0.0000,0.6833 -0.7729,1.2209 -1.2433 1.5346l 0.6497,0.4256 c 0.5489,0.3584 0.8289,0.8513 0.8289 1.4673c 0.0000,0.8065 -0.6609,1.8482 -2.0498 1.8482c -1.1201,-0.0000 -1.8930,-0.5937 -1.8930 -1.6802c 0.0000,-0.4144 0.1792,-0.8961 0.6161 -1.2769c 0.2688,-0.2352 0.5041,-0.4368 0.7729 -0.6385l -0.1904,-0.1120 c -0.6497,-0.4032 -0.9745,-0.8401 -0.9745 -1.4337c 0.0000,-0.8177 0.7393,-1.4673 1.8258 -1.4673c 1.0417,-0.0000 1.6578,0.5713 1.6578 1.3329ZM 45.3146,203.3950 ZM 43.5224,208.3571 c 0.4816,-0.0000 1.3217,-0.2576 1.3217 -1.3217c 0.0000,-0.5041 -0.3136,-1.0081 -0.9745 -1.4113l -0.4928,-0.3024 c -0.9073,0.6049 -1.1089,1.3553 -1.1089 1.6690c 0.0000,0.9521 0.7729,1.3665 1.2545 1.3665Z"/></g><g stroke-linejoin="miter" stroke-opacity="0.6" fill-opacity="0.0" stroke="rgb(0,0,0)" stroke-width="1.8322938419104906" fill="rgb(0,0,0)" stroke-linecap="butt" stroke-miterlimit="10.0"><path d="M 48.5531,208.5363 h 5.0657 "/></g><g stroke-linejoin="miter" stroke-opacity="1.0" fill-opacity="0.6" stroke="rgb(0,0,0)" fill-rule="evenodd" stroke-width="0.0" fill="rgb(0,0,0)" stroke-linecap="butt" stroke-miterlimit="10.0"><path d="M 28.8489,225.4220 ZM 31.3020,219.3398 c -0.4816,-0.0000 -1.1873,0.4704 -1.1873 3.0803c 0.0000,0.9185 0.1680,2.7667 1.1537 2.7667c 0.1904,-0.0000 0.7281,-0.1232 0.9633 -0.9969c 0.1456,-0.5377 0.2240,-1.2097 0.2240 -2.1842c 0.0000,-1.4225 -0.3584,-2.2178 -0.6833 -2.4979c -0.1232,-0.1120 -0.2912,-0.1680 -0.4704 -0.1680ZM 31.3020,219.3398 ZM 31.2572,225.5564 c -1.1985,-0.0000 -2.0050,-1.5346 -2.0050 -3.2483c 0.0000,-2.0946 0.9969,-3.3603 2.0498 -3.3603c 0.4816,-0.0000 0.9633,0.3024 1.2881 0.7393c 0.4704,0.6273 0.7169,1.4673 0.7169 2.5203c 0.0000,2.4867 -1.2321,3.3491 -2.0498 3.3491ZM 33.7550,225.4220 ZM 34.3935,224.9628 c 0.0000,-0.3248 0.2688,-0.5937 0.5937 -0.5937c 0.3248,-0.0000 0.5937,0.2688 0.5937 0.5937c 0.0000,0.3248 -0.2688,0.5937 -0.5937 0.5937c -0.3248,-0.0000 -0.5937,-0.2688 -0.5937 -0.5937ZM 36.2081,225.4220 ZM 38.6611,219.3398 c -0.4816,-0.0000 -1.1873,0.4704 -1.1873 3.0803c 0.0000,0.9185 0.1680,2.7667 1.1537 2.7667c 0.1904,-0.0000 0.7281,-0.1232 0.9633 -0.9969c 0.1456,-0.5377 0.2240,-1.2097 0.2240 -2.1842c 0.0000,-1.4225 -0.3584,-2.2178 -0.6833 -2.4979c -0.1232,-0.1120 -0.2912,-0.1680 -0.4704 -0.1680ZM 38.6611,219.3398 ZM 38.6163,225.5564 c -1.1985,-0.0000 -2.0050,-1.5346 -2.0050 -3.2483c 0.0000,-2.0946 0.9969,-3.3603 2.0498 -3.3603c 0.4816,-0.0000 0.9633,0.3024 1.2881 0.7393c 0.4704,0.6273 0.7169,1.4673 0.7169 2.5203c 0.0000,2.4867 -1.2321,3.3491 -2.0498 3.3491ZM 41.1142,225.4220 ZM 42.4135,222.4873 c -0.0112,0.1120 -0.0112,0.2800 -0.0112 0.3920c 0.0000,1.8818 0.8401,2.3522 1.4001 2.3522c 0.5153,-0.0000 1.0641,-0.4816 1.0641 -1.6466c 0.0000,-0.5265 -0.2688,-1.6018 -1.3441 -1.6018c -0.2352,-0.0000 -0.6609,0.0224 -1.1089 0.5041ZM 42.4135,222.4873 ZM 45.3482,219.2390 c -0.7281,0.0672 -1.3553,0.2576 -1.8930 0.7841c -0.5153,0.5041 -0.8849,1.2545 -1.0081 2.1506c 0.2576,-0.3136 0.8737,-0.5489 1.2993 -0.5489c 1.6578,-0.0000 1.8706,1.3665 1.8706 1.8818c 0.0000,0.7617 -0.3808,2.0498 -1.9266 2.0498c -0.8177,-0.0000 -2.0610,-0.4816 -2.0610 -2.7107c 0.0000,-1.0305 0.3472,-2.0386 1.1201 -2.8115c 0.7169,-0.7281 1.4673,-1.0305 2.5651 -1.0865Z"/></g><g stroke-linejoin="miter" stroke-opacity="0.6" fill-opacity="0.0" stroke="rgb(0,0,0)" stroke-width="1.8322938419104906" fill="rgb(0,0,0)" stroke-linecap="butt" stroke-miterlimit="10.0"><path d="M 48.5531,225.4220 h 5.0657 "/></g><g stroke-linejoin="miter" stroke-opacity="1.0" fill-opacity="0.6" stroke="rgb(0,0,0)" fill-rule="evenodd" stroke-width="0.0" fill="rgb(0,0,0)" stroke-linecap="butt" stroke-miterlimit="10.0"><path d="M 28.8489,242.3077 ZM 31.3020,236.2255 c -0.4816,-0.0000 -1.1873,0.4704 -1.1873 3.0803c 0.0000,0.9185 0.1680,2.7667 1.1537 2.7667c 0.1904,-0.0000 0.7281,-0.1232 0.9633 -0.9969c 0.1456,-0.5377 0.2240,-1.2097 0.2240 -2.1842c 0.0000,-1.4225 -0.3584,-2.2178 -0.6833 -2.4979c -0.1232,-0.1120 -0.2912,-0.1680 -0.4704 -0.1680ZM 31.3020,236.2255 ZM 31.2572,242.4421 c -1.1985,-0.0000 -2.0050,-1.5346 -2.0050 -3.2483c 0.0000,-2.0946 0.9969,-3.3603 2.0498 -3.3603c 0.4816,-0.0000 0.9633,0.3024 1.2881 0.7393c 0.4704,0.6273 0.7169,1.4673 0.7169 2.5203c 0.0000,2.4867 -1.2321,3.3491 -2.0498 3.3491ZM 33.7550,242.3077 ZM 34.3935,241.8485 c 0.0000,-0.3248 0.2688,-0.5937 0.5937 -0.5937c 0.3248,-0.0000 0.5937,0.2688 0.5937 0.5937c 0.0000,0.3248 -0.2688,0.5937 -0.5937 0.5937c -0.3248,-0.0000 -0.5937,-0.2688 -0.5937 -0.5937ZM 36.2081,242.3077 ZM 38.6611,236.2255 c -0.4816,-0.0000 -1.1873,0.4704 -1.1873 3.0803c 0.0000,0.9185 0.1680,2.7667 1.1537 2.7667c 0.1904,-0.0000 0.7281,-0.1232 0.9633 -0.9969c 0.1456,-0.5377 0.2240,-1.2097 0.2240 -2.1842c 0.0000,-1.4225 -0.3584,-2.2178 -0.6833 -2.4979c -0.1232,-0.1120 -0.2912,-0.1680 -0.4704 -0.1680ZM 38.6611,236.2255 ZM 38.6163,242.4421 c -1.1985,-0.0000 -2.0050,-1.5346 -2.0050 -3.2483c 0.0000,-2.0946 0.9969,-3.3603 2.0498 -3.3603c 0.4816,-0.0000 0.9633,0.3024 1.2881 0.7393c 0.4704,0.6273 0.7169,1.4673 0.7169 2.5203c 0.0000,2.4867 -1.2321,3.3491 -2.0498 3.3491ZM 41.1142,242.3077 ZM 44.0041,238.3313 c 0.0000,-0.0784 0.0112,-0.1680 0.1120 -0.2240c 0.1232,-0.0896 0.3248,-0.1904 0.4928 -0.1904c 0.1456,-0.0000 0.1568,0.1232 0.1568 0.3472v 1.8034 h 0.9073 l -0.0672,0.5265 h -0.8401 v 0.9297 c 0.0000,0.3136 0.0448,0.4704 0.3696 0.4704h 0.3024 c 0.0672,-0.0000 0.0784,0.0560 0.0784 0.0784v 0.2464 c 0.0000,-0.0000 -0.7169,-0.0224 -1.1873 -0.0224c -0.4256,-0.0000 -1.0865,0.0224 -1.0865 0.0224v -0.2464 c 0.0000,-0.0224 0.0112,-0.0784 0.0784 -0.0784h 0.3024 c 0.3472,-0.0000 0.3808,-0.1456 0.3808 -0.4704v -0.9297 h -2.1954 c -0.0448,-0.0000 -0.0672,-0.0224 -0.1008 -0.0672l -0.0896,-0.1232 l -0.1344,-0.2352 c -0.0112,-0.0000 -0.0112,-0.0112 -0.0112 -0.0224c 0.0000,-0.0112 0.0112,-0.0224 0.0224 -0.0336c 0.7281,-0.8065 2.0162,-3.3043 2.4194 -4.2228c 0.0112,-0.0448 0.0336,-0.0560 0.0784 -0.0560c 0.0112,-0.0000 0.2576,0.1008 0.3920 0.1232c -0.5041,1.3553 -1.3329,2.8115 -2.1506 4.1108h 1.7698 v -1.7362 Z"/></g><g stroke-linejoin="miter" stroke-opacity="0.6" fill-opacity="0.0" stroke="rgb(0,0,0)" stroke-width="1.8322938419104906" fill="rgb(0,0,0)" stroke-linecap="butt" stroke-miterlimit="10.0"><path d="M 48.5531,242.3077 h 5.0657 "/></g><g stroke-linejoin="miter" stroke-opacity="1.0" fill-opacity="0.6" stroke="rgb(0,0,0)" fill-rule="evenodd" stroke-width="0.0" fill="rgb(0,0,0)" stroke-linecap="butt" stroke-miterlimit="10.0"><path d="M 28.8489,259.1934 ZM 31.3020,253.1112 c -0.4816,-0.0000 -1.1873,0.4704 -1.1873 3.0803c 0.0000,0.9185 0.1680,2.7667 1.1537 2.7667c 0.1904,-0.0000 0.7281,-0.1232 0.9633 -0.9969c 0.1456,-0.5377 0.2240,-1.2097 0.2240 -2.1842c 0.0000,-1.4225 -0.3584,-2.2178 -0.6833 -2.4979c -0.1232,-0.1120 -0.2912,-0.1680 -0.4704 -0.1680ZM 31.3020,253.1112 ZM 31.2572,259.3278 c -1.1985,-0.0000 -2.0050,-1.5346 -2.0050 -3.2483c 0.0000,-2.0946 0.9969,-3.3603 2.0498 -3.3603c 0.4816,-0.0000 0.9633,0.3024 1.2881 0.7393c 0.4704,0.6273 0.7169,1.4673 0.7169 2.5203c 0.0000,2.4867 -1.2321,3.3491 -2.0498 3.3491ZM 33.7550,259.1934 ZM 34.3935,258.7342 c 0.0000,-0.3248 0.2688,-0.5937 0.5937 -0.5937c 0.3248,-0.0000 0.5937,0.2688 0.5937 0.5937c 0.0000,0.3248 -0.2688,0.5937 -0.5937 0.5937c -0.3248,-0.0000 -0.5937,-0.2688 -0.5937 -0.5937ZM 36.2081,259.1934 ZM 38.6611,253.1112 c -0.4816,-0.0000 -1.1873,0.4704 -1.1873 3.0803c 0.0000,0.9185 0.1680,2.7667 1.1537 2.7667c 0.1904,-0.0000 0.7281,-0.1232 0.9633 -0.9969c 0.1456,-0.5377 0.2240,-1.2097 0.2240 -2.1842c 0.0000,-1.4225 -0.3584,-2.2178 -0.6833 -2.4979c -0.1232,-0.1120 -0.2912,-0.1680 -0.4704 -0.1680ZM 38.6611,253.1112 ZM 38.6163,259.3278 c -1.1985,-0.0000 -2.0050,-1.5346 -2.0050 -3.2483c 0.0000,-2.0946 0.9969,-3.3603 2.0498 -3.3603c 0.4816,-0.0000 0.9633,0.3024 1.2881 0.7393c 0.4704,0.6273 0.7169,1.4673 0.7169 2.5203c 0.0000,2.4867 -1.2321,3.3491 -2.0498 3.3491ZM 41.1142,259.1934 ZM 41.7638,254.2313 c 0.0000,-0.6385 0.6161,-1.5122 1.7922 -1.5122c 0.8625,-0.0000 1.8706,0.3248 1.8706 1.6130c 0.0000,0.8513 -0.4368,1.2769 -1.0417 1.8594l -1.0641,1.0305 c -0.0560,0.0560 -0.8065,0.7953 -0.8065 1.3217h 1.9042 c 0.3808,-0.0000 0.5825,-0.1904 0.7393 -0.8065l 0.2800,0.0448 l -0.2240,1.4113 h -3.4611 c 0.0000,-0.6273 0.1008,-1.1089 1.1425 -2.1730l 0.7841,-0.7729 c 0.6273,-0.6385 0.8849,-1.1873 0.8849 -1.8706c 0.0000,-1.0193 -0.6945,-1.3105 -1.0753 -1.3105c -0.7729,-0.0000 -0.9857,0.4032 -0.9857 0.6721c 0.0000,0.0896 0.0224,0.1792 0.0448 0.2576c 0.0224,0.0784 0.0448,0.1568 0.0448 0.2464c 0.0000,0.2912 -0.2240,0.4032 -0.4032 0.4032c -0.2464,-0.0000 -0.4256,-0.1904 -0.4256 -0.4144Z"/></g><g stroke-linejoin="miter" stroke-opacity="0.6" fill-opacity="0.0" stroke="rgb(0,0,0)" stroke-width="1.8322938419104906" fill="rgb(0,0,0)" stroke-linecap="butt" stroke-miterlimit="10.0"><path d="M 48.5531,259.1934 h 5.0657 "/></g><g stroke-linejoin="miter" stroke-opacity="1.0" fill-opacity="0.6" stroke="rgb(0,0,0)" fill-rule="evenodd" stroke-width="0.0" fill="rgb(0,0,0)" stroke-linecap="butt" stroke-miterlimit="10.0"><path d="M 28.8489,276.0791 ZM 31.3020,269.9969 c -0.4816,-0.0000 -1.1873,0.4704 -1.1873 3.0803c 0.0000,0.9185 0.1680,2.7667 1.1537 2.7667c 0.1904,-0.0000 0.7281,-0.1232 0.9633 -0.9969c 0.1456,-0.5377 0.2240,-1.2097 0.2240 -2.1842c 0.0000,-1.4225 -0.3584,-2.2178 -0.6833 -2.4979c -0.1232,-0.1120 -0.2912,-0.1680 -0.4704 -0.1680ZM 31.3020,269.9969 ZM 31.2572,276.2136 c -1.1985,-0.0000 -2.0050,-1.5346 -2.0050 -3.2483c 0.0000,-2.0946 0.9969,-3.3603 2.0498 -3.3603c 0.4816,-0.0000 0.9633,0.3024 1.2881 0.7393c 0.4704,0.6273 0.7169,1.4673 0.7169 2.5203c 0.0000,2.4867 -1.2321,3.3491 -2.0498 3.3491ZM 33.7550,276.0791 ZM 34.3935,275.6199 c 0.0000,-0.3248 0.2688,-0.5937 0.5937 -0.5937c 0.3248,-0.0000 0.5937,0.2688 0.5937 0.5937c 0.0000,0.3248 -0.2688,0.5937 -0.5937 0.5937c -0.3248,-0.0000 -0.5937,-0.2688 -0.5937 -0.5937ZM 36.2081,276.0791 ZM 38.6611,269.9969 c -0.4816,-0.0000 -1.1873,0.4704 -1.1873 3.0803c 0.0000,0.9185 0.1680,2.7667 1.1537 2.7667c 0.1904,-0.0000 0.7281,-0.1232 0.9633 -0.9969c 0.1456,-0.5377 0.2240,-1.2097 0.2240 -2.1842c 0.0000,-1.4225 -0.3584,-2.2178 -0.6833 -2.4979c -0.1232,-0.1120 -0.2912,-0.1680 -0.4704 -0.1680ZM 38.6611,269.9969 ZM 38.6163,276.2136 c -1.1985,-0.0000 -2.0050,-1.5346 -2.0050 -3.2483c 0.0000,-2.0946 0.9969,-3.3603 2.0498 -3.3603c 0.4816,-0.0000 0.9633,0.3024 1.2881 0.7393c 0.4704,0.6273 0.7169,1.4673 0.7169 2.5203c 0.0000,2.4867 -1.2321,3.3491 -2.0498 3.3491ZM 41.1142,276.0791 ZM 43.5672,269.9969 c -0.4816,-0.0000 -1.1873,0.4704 -1.1873 3.0803c 0.0000,0.9185 0.1680,2.7667 1.1537 2.7667c 0.1904,-0.0000 0.7281,-0.1232 0.9633 -0.9969c 0.1456,-0.5377 0.2240,-1.2097 0.2240 -2.1842c 0.0000,-1.4225 -0.3584,-2.2178 -0.6833 -2.4979c -0.1232,-0.1120 -0.2912,-0.1680 -0.4704 -0.1680ZM 43.5672,269.9969 ZM 43.5224,276.2136 c -1.1985,-0.0000 -2.0050,-1.5346 -2.0050 -3.2483c 0.0000,-2.0946 0.9969,-3.3603 2.0498 -3.3603c 0.4816,-0.0000 0.9633,0.3024 1.2881 0.7393c 0.4704,0.6273 0.7169,1.4673 0.7169 2.5203c 0.0000,2.4867 -1.2321,3.3491 -2.0498 3.3491Z"/></g><g stroke-linejoin="miter" stroke-opacity="0.6" fill-opacity="0.0" stroke="rgb(0,0,0)" stroke-width="1.8322938419104906" fill="rgb(0,0,0)" stroke-linecap="butt" stroke-miterlimit="10.0"><path d="M 48.5531,276.0791 h 5.0657 "/></g><g stroke-linejoin="miter" stroke-opacity="0.0" fill-opacity="0.1" stroke="rgb(0,0,0)" stroke-width="0.0" fill="rgb(0,0,0)" stroke-linecap="butt" stroke-miterlimit="10.0"><path d="M 569.3974,282.9510 l -0.0000,-3.3771 h -506.5712 l -0.0000,3.3771 Z"/></g><g stroke-linejoin="miter" stroke-opacity="1.0" fill-opacity="0.6" stroke="rgb(0,0,0)" fill-rule="evenodd" stroke-width="0.0" fill="rgb(0,0,0)" stroke-linecap="butt" stroke-miterlimit="10.0"><path d="M 564.4913,297.1863 ZM 566.5971,291.8433 c -0.2128,-0.0000 -0.7057,0.2016 -0.9521 0.3136l -0.1344,-0.3472 c 0.9857,-0.4592 1.3665,-0.6945 1.9266 -1.0977h 0.2128 v 5.6342 c 0.0000,0.4032 0.0560,0.5153 0.4256 0.5153h 0.5825 c 0.0336,-0.0000 0.0896,0.0224 0.0896 0.0896v 0.2464 l -1.5346,-0.0224 l -1.5570,0.0224 v -0.2464 c 0.0112,-0.0336 0.0224,-0.0896 0.0896 -0.0896h 0.6721 c 0.4256,-0.0000 0.4256,-0.1904 0.4256 -0.5153v -3.8532 c 0.0000,-0.3808 0.0000,-0.6497 -0.2464 -0.6497ZM 569.3974,297.1863 ZM 570.0471,292.2242 c 0.0000,-0.6385 0.6161,-1.5122 1.7922 -1.5122c 0.8625,-0.0000 1.8706,0.3248 1.8706 1.6130c 0.0000,0.8513 -0.4368,1.2769 -1.0417 1.8594l -1.0641,1.0305 c -0.0560,0.0560 -0.8065,0.7953 -0.8065 1.3217h 1.9042 c 0.3808,-0.0000 0.5825,-0.1904 0.7393 -0.8065l 0.2800,0.0448 l -0.2240,1.4113 h -3.4611 c 0.0000,-0.6273 0.1008,-1.1089 1.1425 -2.1730l 0.7841,-0.7729 c 0.6273,-0.6385 0.8849,-1.1873 0.8849 -1.8706c 0.0000,-1.0193 -0.6945,-1.3105 -1.0753 -1.3105c -0.7729,-0.0000 -0.9857,0.4032 -0.9857 0.6721c 0.0000,0.0896 0.0224,0.1792 0.0448 0.2576c 0.0224,0.0784 0.0448,0.1568 0.0448 0.2464c 0.0000,0.2912 -0.2240,0.4032 -0.4032 0.4032c -0.2464,-0.0000 -0.4256,-0.1904 -0.4256 -0.4144Z"/></g><g stroke-linejoin="miter" stroke-opacity="0.6" fill-opacity="0.0" stroke="rgb(0,0,0)" stroke-width="1.8322938419104906" fill="rgb(0,0,0)" stroke-linecap="butt" stroke-miterlimit="10.0"><path d="M 569.3974,279.5739 v 5.0657 "/></g><g stroke-linejoin="miter" stroke-opacity="1.0" fill-opacity="0.6" stroke="rgb(0,0,0)" fill-rule="evenodd" stroke-width="0.0" fill="rgb(0,0,0)" stroke-linecap="butt" stroke-miterlimit="10.0"><path d="M 480.0628,297.1863 ZM 482.1686,291.8433 c -0.2128,-0.0000 -0.7057,0.2016 -0.9521 0.3136l -0.1344,-0.3472 c 0.9857,-0.4592 1.3665,-0.6945 1.9266 -1.0977h 0.2128 v 5.6342 c 0.0000,0.4032 0.0560,0.5153 0.4256 0.5153h 0.5825 c 0.0336,-0.0000 0.0896,0.0224 0.0896 0.0896v 0.2464 l -1.5346,-0.0224 l -1.5570,0.0224 v -0.2464 c 0.0112,-0.0336 0.0224,-0.0896 0.0896 -0.0896h 0.6721 c 0.4256,-0.0000 0.4256,-0.1904 0.4256 -0.5153v -3.8532 c 0.0000,-0.3808 0.0000,-0.6497 -0.2464 -0.6497ZM 484.9689,297.1863 ZM 487.4219,291.1041 c -0.4816,-0.0000 -1.1873,0.4704 -1.1873 3.0803c 0.0000,0.9185 0.1680,2.7667 1.1537 2.7667c 0.1904,-0.0000 0.7281,-0.1232 0.9633 -0.9969c 0.1456,-0.5377 0.2240,-1.2097 0.2240 -2.1842c 0.0000,-1.4225 -0.3584,-2.2178 -0.6833 -2.4979c -0.1232,-0.1120 -0.2912,-0.1680 -0.4704 -0.1680ZM 487.4219,291.1041 ZM 487.3771,297.3207 c -1.1985,-0.0000 -2.0050,-1.5346 -2.0050 -3.2483c 0.0000,-2.0946 0.9969,-3.3603 2.0498 -3.3603c 0.4816,-0.0000 0.9633,0.3024 1.2881 0.7393c 0.4704,0.6273 0.7169,1.4673 0.7169 2.5203c 0.0000,2.4867 -1.2321,3.3491 -2.0498 3.3491Z"/></g><g stroke-linejoin="miter" stroke-opacity="0.6" fill-opacity="0.0" stroke="rgb(0,0,0)" stroke-width="1.8322938419104906" fill="rgb(0,0,0)" stroke-linecap="butt" stroke-miterlimit="10.0"><path d="M 484.9689,279.5739 v 5.0657 "/></g><g stroke-linejoin="miter" stroke-opacity="1.0" fill-opacity="0.6" stroke="rgb(0,0,0)" fill-rule="evenodd" stroke-width="0.0" fill="rgb(0,0,0)" stroke-linecap="butt" stroke-miterlimit="10.0"><path d="M 398.0873,297.1863 ZM 400.5739,290.9808 c -0.6385,-0.0000 -1.0529,0.5041 -1.0529 0.9969c 0.0000,0.3248 0.1344,0.7169 0.8065 1.1537l 0.3248,0.2016 c 0.2912,-0.2128 0.9745,-0.7281 0.9745 -1.2993c 0.0000,-0.4928 -0.3584,-1.0529 -1.0529 -1.0529ZM 400.5739,290.9808 ZM 402.2877,292.0450 c 0.0000,0.6833 -0.7729,1.2209 -1.2433 1.5346l 0.6497,0.4256 c 0.5489,0.3584 0.8289,0.8513 0.8289 1.4673c 0.0000,0.8065 -0.6609,1.8482 -2.0498 1.8482c -1.1201,-0.0000 -1.8930,-0.5937 -1.8930 -1.6802c 0.0000,-0.4144 0.1792,-0.8961 0.6161 -1.2769c 0.2688,-0.2352 0.5041,-0.4368 0.7729 -0.6385l -0.1904,-0.1120 c -0.6497,-0.4032 -0.9745,-0.8401 -0.9745 -1.4337c 0.0000,-0.8177 0.7393,-1.4673 1.8258 -1.4673c 1.0417,-0.0000 1.6578,0.5713 1.6578 1.3329ZM 402.2877,292.0450 ZM 400.4955,297.0071 c 0.4816,-0.0000 1.3217,-0.2576 1.3217 -1.3217c 0.0000,-0.5041 -0.3136,-1.0081 -0.9745 -1.4113l -0.4928,-0.3024 c -0.9073,0.6049 -1.1089,1.3553 -1.1089 1.6690c 0.0000,0.9521 0.7729,1.3665 1.2545 1.3665Z"/></g><g stroke-linejoin="miter" stroke-opacity="0.6" fill-opacity="0.0" stroke="rgb(0,0,0)" stroke-width="1.8322938419104906" fill="rgb(0,0,0)" stroke-linecap="butt" stroke-miterlimit="10.0"><path d="M 400.5403,279.5739 v 5.0657 "/></g><g stroke-linejoin="miter" stroke-opacity="1.0" fill-opacity="0.6" stroke="rgb(0,0,0)" fill-rule="evenodd" stroke-width="0.0" fill="rgb(0,0,0)" stroke-linecap="butt" stroke-miterlimit="10.0"><path d="M 313.6587,297.1863 ZM 314.9581,294.2516 c -0.0112,0.1120 -0.0112,0.2800 -0.0112 0.3920c 0.0000,1.8818 0.8401,2.3522 1.4001 2.3522c 0.5153,-0.0000 1.0641,-0.4816 1.0641 -1.6466c 0.0000,-0.5265 -0.2688,-1.6018 -1.3441 -1.6018c -0.2352,-0.0000 -0.6609,0.0224 -1.1089 0.5041ZM 314.9581,294.2516 ZM 317.8928,291.0033 c -0.7281,0.0672 -1.3553,0.2576 -1.8930 0.7841c -0.5153,0.5041 -0.8849,1.2545 -1.0081 2.1506c 0.2576,-0.3136 0.8737,-0.5489 1.2993 -0.5489c 1.6578,-0.0000 1.8706,1.3665 1.8706 1.8818c 0.0000,0.7617 -0.3808,2.0498 -1.9266 2.0498c -0.8177,-0.0000 -2.0610,-0.4816 -2.0610 -2.7107c 0.0000,-1.0305 0.3472,-2.0386 1.1201 -2.8115c 0.7169,-0.7281 1.4673,-1.0305 2.5651 -1.0865Z"/></g><g stroke-linejoin="miter" stroke-opacity="0.6" fill-opacity="0.0" stroke="rgb(0,0,0)" stroke-width="1.8322938419104906" fill="rgb(0,0,0)" stroke-linecap="butt" stroke-miterlimit="10.0"><path d="M 316.1118,279.5739 v 5.0657 "/></g><g stroke-linejoin="miter" stroke-opacity="1.0" fill-opacity="0.6" stroke="rgb(0,0,0)" fill-rule="evenodd" stroke-width="0.0" fill="rgb(0,0,0)" stroke-linecap="butt" stroke-miterlimit="10.0"><path d="M 229.2302,297.1863 ZM 232.1201,293.2099 c 0.0000,-0.0784 0.0112,-0.1680 0.1120 -0.2240c 0.1232,-0.0896 0.3248,-0.1904 0.4928 -0.1904c 0.1456,-0.0000 0.1568,0.1232 0.1568 0.3472v 1.8034 h 0.9073 l -0.0672,0.5265 h -0.8401 v 0.9297 c 0.0000,0.3136 0.0448,0.4704 0.3696 0.4704h 0.3024 c 0.0672,-0.0000 0.0784,0.0560 0.0784 0.0784v 0.2464 c 0.0000,-0.0000 -0.7169,-0.0224 -1.1873 -0.0224c -0.4256,-0.0000 -1.0865,0.0224 -1.0865 0.0224v -0.2464 c 0.0000,-0.0224 0.0112,-0.0784 0.0784 -0.0784h 0.3024 c 0.3472,-0.0000 0.3808,-0.1456 0.3808 -0.4704v -0.9297 h -2.1954 c -0.0448,-0.0000 -0.0672,-0.0224 -0.1008 -0.0672l -0.0896,-0.1232 l -0.1344,-0.2352 c -0.0112,-0.0000 -0.0112,-0.0112 -0.0112 -0.0224c 0.0000,-0.0112 0.0112,-0.0224 0.0224 -0.0336c 0.7281,-0.8065 2.0162,-3.3043 2.4194 -4.2228c 0.0112,-0.0448 0.0336,-0.0560 0.0784 -0.0560c 0.0112,-0.0000 0.2576,0.1008 0.3920 0.1232c -0.5041,1.3553 -1.3329,2.8115 -2.1506 4.1108h 1.7698 v -1.7362 Z"/></g><g stroke-linejoin="miter" stroke-opacity="0.6" fill-opacity="0.0" stroke="rgb(0,0,0)" stroke-width="1.8322938419104906" fill="rgb(0,0,0)" stroke-linecap="butt" stroke-miterlimit="10.0"><path d="M 231.6832,279.5739 v 5.0657 "/></g><g stroke-linejoin="miter" stroke-opacity="1.0" fill-opacity="0.6" stroke="rgb(0,0,0)" fill-rule="evenodd" stroke-width="0.0" fill="rgb(0,0,0)" stroke-linecap="butt" stroke-miterlimit="10.0"><path d="M 144.8017,297.1863 ZM 145.4513,292.2242 c 0.0000,-0.6385 0.6161,-1.5122 1.7922 -1.5122c 0.8625,-0.0000 1.8706,0.3248 1.8706 1.6130c 0.0000,0.8513 -0.4368,1.2769 -1.0417 1.8594l -1.0641,1.0305 c -0.0560,0.0560 -0.8065,0.7953 -0.8065 1.3217h 1.9042 c 0.3808,-0.0000 0.5825,-0.1904 0.7393 -0.8065l 0.2800,0.0448 l -0.2240,1.4113 h -3.4611 c 0.0000,-0.6273 0.1008,-1.1089 1.1425 -2.1730l 0.7841,-0.7729 c 0.6273,-0.6385 0.8849,-1.1873 0.8849 -1.8706c 0.0000,-1.0193 -0.6945,-1.3105 -1.0753 -1.3105c -0.7729,-0.0000 -0.9857,0.4032 -0.9857 0.6721c 0.0000,0.0896 0.0224,0.1792 0.0448 0.2576c 0.0224,0.0784 0.0448,0.1568 0.0448 0.2464c 0.0000,0.2912 -0.2240,0.4032 -0.4032 0.4032c -0.2464,-0.0000 -0.4256,-0.1904 -0.4256 -0.4144Z"/></g><g stroke-linejoin="miter" stroke-opacity="0.6" fill-opacity="0.0" stroke="rgb(0,0,0)" stroke-width="1.8322938419104906" fill="rgb(0,0,0)" stroke-linecap="butt" stroke-miterlimit="10.0"><path d="M 147.2547,279.5739 v 5.0657 "/></g><g stroke-linejoin="miter" stroke-opacity="1.0" fill-opacity="0.6" stroke="rgb(0,0,0)" fill-rule="evenodd" stroke-width="0.0" fill="rgb(0,0,0)" stroke-linecap="butt" stroke-miterlimit="10.0"><path d="M 60.3731,297.1863 ZM 62.8262,291.1041 c -0.4816,-0.0000 -1.1873,0.4704 -1.1873 3.0803c 0.0000,0.9185 0.1680,2.7667 1.1537 2.7667c 0.1904,-0.0000 0.7281,-0.1232 0.9633 -0.9969c 0.1456,-0.5377 0.2240,-1.2097 0.2240 -2.1842c 0.0000,-1.4225 -0.3584,-2.2178 -0.6833 -2.4979c -0.1232,-0.1120 -0.2912,-0.1680 -0.4704 -0.1680ZM 62.8262,291.1041 ZM 62.7814,297.3207 c -1.1985,-0.0000 -2.0050,-1.5346 -2.0050 -3.2483c 0.0000,-2.0946 0.9969,-3.3603 2.0498 -3.3603c 0.4816,-0.0000 0.9633,0.3024 1.2881 0.7393c 0.4704,0.6273 0.7169,1.4673 0.7169 2.5203c 0.0000,2.4867 -1.2321,3.3491 -2.0498 3.3491Z"/></g><g stroke-linejoin="miter" stroke-opacity="0.6" fill-opacity="0.0" stroke="rgb(0,0,0)" stroke-width="1.8322938419104906" fill="rgb(0,0,0)" stroke-linecap="butt" stroke-miterlimit="10.0"><path d="M 62.8262,279.5739 v 5.0657 "/></g><g stroke-linejoin="miter" stroke-opacity="0.0" fill-opacity="0.0" stroke="rgb(0,0,0)" stroke-width="0.0" fill="rgb(0,0,0)" stroke-linecap="butt" stroke-miterlimit="10.0"><path d="M 570.6239,272.8196 l -0.0000,-168.8571 h -506.5712 l -0.0000,168.8571 Z"/></g><g stroke-linejoin="miter" stroke-opacity="0.5" fill-opacity="0.0" stroke="rgb(93,165,218)" stroke-width="7.329175367641962" fill="rgb(0,0,0)" stroke-linecap="butt" stroke-miterlimit="10.0"><path d="M 486.1954,272.8196 v -84.4285 "/></g><g stroke-linejoin="miter" stroke-opacity="0.5" fill-opacity="0.0" stroke="rgb(93,165,218)" stroke-width="7.329175367641962" fill="rgb(0,0,0)" stroke-linecap="butt" stroke-miterlimit="10.0"><path d="M 443.9811,272.8196 v -75.9857 "/></g><g stroke-linejoin="miter" stroke-opacity="0.5" fill-opacity="0.0" stroke="rgb(93,165,218)" stroke-width="7.329175367641962" fill="rgb(0,0,0)" stroke-linecap="butt" stroke-miterlimit="10.0"><path d="M 401.7668,272.8196 v -67.5428 "/></g><g stroke-linejoin="miter" stroke-opacity="0.5" fill-opacity="0.0" stroke="rgb(93,165,218)" stroke-width="7.329175367641962" fill="rgb(0,0,0)" stroke-linecap="butt" stroke-miterlimit="10.0"><path d="M 359.5526,272.8196 v -59.1000 "/></g><g stroke-linejoin="miter" stroke-opacity="0.5" fill-opacity="0.0" stroke="rgb(93,165,218)" stroke-width="7.329175367641962" fill="rgb(0,0,0)" stroke-linecap="butt" stroke-miterlimit="10.0"><path d="M 317.3383,272.8196 v -50.6571 "/></g><g stroke-linejoin="miter" stroke-opacity="0.5" fill-opacity="0.0" stroke="rgb(93,165,218)" stroke-width="7.329175367641962" fill="rgb(0,0,0)" stroke-linecap="butt" stroke-miterlimit="10.0"><path d="M 275.1240,272.8196 v -42.2143 "/></g><g stroke-linejoin="miter" stroke-opacity="0.5" fill-opacity="0.0" stroke="rgb(93,165,218)" stroke-width="7.329175367641962" fill="rgb(0,0,0)" stroke-linecap="butt" stroke-miterlimit="10.0"><path d="M 232.9098,272.8196 v -33.7714 "/></g><g stroke-linejoin="miter" stroke-opacity="0.5" fill-opacity="0.0" stroke="rgb(93,165,218)" stroke-width="7.329175367641962" fill="rgb(0,0,0)" stroke-linecap="butt" stroke-miterlimit="10.0"><path d="M 190.6955,272.8196 v -25.3286 "/></g><g stroke-linejoin="miter" stroke-opacity="0.5" fill-opacity="0.0" stroke="rgb(93,165,218)" stroke-width="7.329175367641962" fill="rgb(0,0,0)" stroke-linecap="butt" stroke-miterlimit="10.0"><path d="M 148.4812,272.8196 v -16.8857 "/></g><g stroke-linejoin="miter" stroke-opacity="0.5" fill-opacity="0.0" stroke="rgb(93,165,218)" stroke-width="7.329175367641962" fill="rgb(0,0,0)" stroke-linecap="butt" stroke-miterlimit="10.0"><path d="M 106.2670,272.8196 v -8.4429 "/></g><g stroke-linejoin="miter" stroke-opacity="0.5" fill-opacity="0.0" stroke="rgb(93,165,218)" stroke-width="7.329175367641962" fill="rgb(0,0,0)" stroke-linecap="butt" stroke-miterlimit="10.0"><path d="M 64.0527,272.8196 h 0.0000 "/></g></svg>