<?xml version="1.0" encoding="UTF-8"?>
<!DOCTYPE svg PUBLIC "-//W3C//DTD SVG 1.1//EN"
    "http://www.w3.org/Graphics/SVG/1.1/DTD/svg11.dtd">
<svg xmlns="http://www.w3.org/2000/svg" height="400.0000" stroke-opacity="1" viewBox="0 0 600 400" font-size="1" width="600.0000" xmlns:xlink="http://www.w3.org/1999/xlink" stroke="rgb(0,0,0)" version="1.1">
  <defs>
  </defs>
  <g stroke-linejoin="miter" stroke-opacity="0.0" fill-opacity="0.1" stroke="rgb(0,0,0)" stroke-width="0.0" fill="rgb(0,0,0)" stroke-linecap="butt" stroke-miterlimit="10.0">
    <path d="M 78.8419,330.0992 l -0.0000,-301.9474 h -6.0389 l -0.0000,301.9474 Z"/>
  </g>
  <g stroke-linejoin="miter" stroke-opacity="1.0" fill-opacity="0.6" stroke="rgb(0,0,0)" fill-rule="evenodd" stroke-width="0.0" fill="rgb(0,0,0)" stroke-linecap="butt" stroke-miterlimit="10.0">
    <path d="M 43.3218,34.1907 ZM 47.7083,23.3145 c -0.8613,-0.0000 -2.1231,0.8412 -2.1231 5.5082c 0.0000,1.6424 0.3004,4.9473 2.0631 4.9473c 0.3405,-0.0000 1.3019,-0.2203 1.7226 -1.7826c 0.2604,-0.9614 0.4006,-2.1632 0.4006 -3.9058c 0.0000,-2.5438 -0.6409,-3.9659 -1.2218 -4.4666c -0.2203,-0.2003 -0.5208,-0.3004 -0.8412 -0.3004ZM 47.7083,23.3145 ZM 47.6281,34.4310 c -2.1432,-0.0000 -3.5853,-2.7441 -3.5853 -5.8086c 0.0000,-3.7456 1.7826,-6.0089 3.6654 -6.0089c 0.8613,-0.0000 1.7226,0.5408 2.3034 1.3220c 0.8412,1.1217 1.2819,2.6239 1.2819 4.5067c 0.0000,4.4466 -2.2033,5.9889 -3.6654 5.9889ZM 52.0948,34.1907 ZM 53.2365,33.3694 c 0.0000,-0.5809 0.4807,-1.0616 1.0616 -1.0616c 0.5809,-0.0000 1.0616,0.4807 1.0616 1.0616c 0.0000,0.5809 -0.4807,1.0616 -1.0616 1.0616c -0.5809,-0.0000 -1.0616,-0.4807 -1.0616 -1.0616ZM 56.4813,34.1907 ZM 62.6704,30.8057 c 0.0000,-2.0631 -1.1217,-3.0846 -2.3635 -3.0846c -0.9214,-0.0000 -1.6224,0.1402 -2.4036 0.4607l 0.6409,-5.4681 c 0.6610,0.0601 1.3420,0.0801 2.0430 0.0801c 1.0015,-0.0000 2.0430,-0.0601 3.1246 -0.1803l 0.1202,0.0601 l -0.3004,1.3019 c -0.7812,0.0801 -1.4221,0.1001 -1.9829 0.1001c -0.9013,-0.0000 -1.5823,-0.0801 -2.2834 -0.1602l -0.3806,3.1647 c 0.4206,-0.1602 1.1417,-0.3004 1.9228 -0.3004c 2.1231,-0.0000 3.3049,1.8427 3.3049 3.6855c 0.0000,2.2433 -1.5623,3.9659 -3.8257 3.9659c -1.1417,-0.0000 -2.8042,-0.6409 -2.8042 -1.4221c 0.0000,-0.3806 0.3205,-0.6409 0.6810 -0.6409c 0.4006,-0.0000 0.6610,0.3004 0.9013 0.6209c 0.3004,0.3605 0.6209,0.7611 1.2619 0.7611c 1.2819,-0.0000 2.3435,-1.2018 2.3435 -2.9444Z"/>
  </g>
  <g stroke-linejoin="miter" stroke-opacity="0.6" fill-opacity="0.0" stroke="rgb(0,0,0)" stroke-width="2.4201284830128267" fill="rgb(0,0,0)" stroke-linecap="butt" stroke-miterlimit="10.0">
    <path d="M 69.7835,28.1517 h 9.0584 "/>
  </g>
  <g stroke-linejoin="miter" stroke-opacity="1.0" fill-opacity="0.6" stroke="rgb(0,0,0)" fill-rule="evenodd" stroke-width="0.0" fill="rgb(0,0,0)" stroke-linecap="butt" stroke-miterlimit="10.0">
    <path d="M 43.3218,64.3854 ZM 47.7083,53.5093 c -0.8613,-0.0000 -2.1231,0.8412 -2.1231 5.5082c 0.0000,1.6424 0.3004,4.9473 2.0631 4.9473c 0.3405,-0.0000 1.3019,-0.2203 1.7226 -1.7826c 0.2604,-0.9614 0.4006,-2.1632 0.4006 -3.9058c 0.0000,-2.5438 -0.6409,-3.9659 -1.2218 -4.4666c -0.2203,-0.2003 -0.5208,-0.3004 -0.8412 -0.3004ZM 47.7083,53.5093 ZM 47.6281,64.6258 c -2.1432,-0.0000 -3.5853,-2.7441 -3.5853 -5.8086c 0.0000,-3.7456 1.7826,-6.0089 3.6654 -6.0089c 0.8613,-0.0000 1.7226,0.5408 2.3034 1.3220c 0.8412,1.1217 1.2819,2.6239 1.2819 4.5067c 0.0000,4.4466 -2.2033,5.9889 -3.6654 5.9889ZM 52.0948,64.3854 ZM 53.2365,63.5642 c 0.0000,-0.5809 0.4807,-1.0616 1.0616 -1.0616c 0.5809,-0.0000 1.0616,0.4807 1.0616 1.0616c 0.0000,0.5809 -0.4807,1.0616 -1.0616 1.0616c -0.5809,-0.0000 -1.0616,-0.4807 -1.0616 -1.0616ZM 56.4813,64.3854 ZM 61.6489,57.2749 c 0.0000,-0.1402 0.0200,-0.3004 0.2003 -0.4006c 0.2203,-0.1602 0.5809,-0.3405 0.8813 -0.3405c 0.2604,-0.0000 0.2804,0.2203 0.2804 0.6209v 3.2248 h 1.6224 l -0.1202,0.9414 h -1.5022 v 1.6625 c 0.0000,0.5608 0.0801,0.8412 0.6610 0.8412h 0.5408 c 0.1202,-0.0000 0.1402,0.1001 0.1402 0.1402v 0.4407 c 0.0000,-0.0000 -1.2819,-0.0401 -2.1231 -0.0401c -0.7611,-0.0000 -1.9429,0.0401 -1.9429 0.0401v -0.4407 c 0.0000,-0.0401 0.0200,-0.1402 0.1402 -0.1402h 0.5408 c 0.6209,-0.0000 0.6810,-0.2604 0.6810 -0.8412v -1.6625 h -3.9258 c -0.0801,-0.0000 -0.1202,-0.0401 -0.1803 -0.1202l -0.1602,-0.2203 l -0.2404,-0.4206 c -0.0200,-0.0000 -0.0200,-0.0200 -0.0200 -0.0401c 0.0000,-0.0200 0.0200,-0.0401 0.0401 -0.0601c 1.3019,-1.4421 3.6053,-5.9088 4.3264 -7.5512c 0.0200,-0.0801 0.0601,-0.1001 0.1402 -0.1001c 0.0200,-0.0000 0.4607,0.1803 0.7010 0.2203c -0.9013,2.4236 -2.3835,5.0275 -3.8457 7.3509h 3.1647 v -3.1046 Z"/>
  </g>
  <g stroke-linejoin="miter" stroke-opacity="0.6" fill-opacity="0.0" stroke="rgb(0,0,0)" stroke-width="2.4201284830128267" fill="rgb(0,0,0)" stroke-linecap="butt" stroke-miterlimit="10.0">
    <path d="M 69.7835,58.3465 h 9.0584 "/>
  </g>
  <g stroke-linejoin="miter" stroke-opacity="1.0" fill-opacity="0.6" stroke="rgb(0,0,0)" fill-rule="evenodd" stroke-width="0.0" fill="rgb(0,0,0)" stroke-linecap="butt" stroke-miterlimit="10.0">
    <path d="M 43.3218,94.5802 ZM 47.7083,83.7040 c -0.8613,-0.0000 -2.1231,0.8412 -2.1231 5.5082c 0.0000,1.6424 0.3004,4.9473 2.0631 4.9473c 0.3405,-0.0000 1.3019,-0.2203 1.7226 -1.7826c 0.2604,-0.9614 0.4006,-2.1632 0.4006 -3.9058c 0.0000,-2.5438 -0.6409,-3.9659 -1.2218 -4.4666c -0.2203,-0.2003 -0.5208,-0.3004 -0.8412 -0.3004ZM 47.7083,83.7040 ZM 47.6281,94.8205 c -2.1432,-0.0000 -3.5853,-2.7441 -3.5853 -5.8086c 0.0000,-3.7456 1.7826,-6.0089 3.6654 -6.0089c 0.8613,-0.0000 1.7226,0.5408 2.3034 1.3220c 0.8412,1.1217 1.2819,2.6239 1.2819 4.5067c 0.0000,4.4466 -2.2033,5.9889 -3.6654 5.9889ZM 52.0948,94.5802 ZM 53.2365,93.7589 c 0.0000,-0.5809 0.4807,-1.0616 1.0616 -1.0616c 0.5809,-0.0000 1.0616,0.4807 1.0616 1.0616c 0.0000,0.5809 -0.4807,1.0616 -1.0616 1.0616c -0.5809,-0.0000 -1.0616,-0.4807 -1.0616 -1.0616ZM 56.4813,94.5802 ZM 60.8077,83.6239 c -0.5007,-0.0000 -1.9629,0.2804 -1.9629 1.5022c 0.0000,0.3605 -0.1402,0.9815 -0.6810 0.9815c -0.5208,-0.0000 -0.5608,-0.5809 -0.5608 -0.6409c 0.0000,-0.6209 0.8212,-2.4637 3.6053 -2.4637c 1.9429,-0.0000 2.5237,1.2218 2.5237 2.0230c 0.0000,0.5007 -0.1602,1.5022 -1.9629 2.6439c 1.1217,0.1803 2.6039,1.0015 2.6039 3.0846c 0.0000,2.6439 -2.0030,4.0660 -4.2663 4.0660c -1.1417,-0.0000 -2.7441,-0.5007 -2.7441 -1.2619c 0.0000,-0.3004 0.3004,-0.6409 0.7010 -0.6409c 0.3806,-0.0000 0.5608,0.2003 0.7411 0.4607c 0.2203,0.3405 0.5809,0.8212 1.5423 0.8212c 0.6610,-0.0000 2.5438,-0.6610 2.5438 -3.1847c 0.0000,-2.1432 -1.5022,-2.4837 -2.5838 -2.4837c -0.1803,-0.0000 -0.4006,0.0401 -0.6209 0.0801l -0.0801,-0.6009 c 1.5423,-0.2604 2.8242,-1.7626 2.8242 -2.6840c 0.0000,-1.1417 -0.8012,-1.7025 -1.6224 -1.7025Z"/>
  </g>
  <g stroke-linejoin="miter" stroke-opacity="0.6" fill-opacity="0.0" stroke="rgb(0,0,0)" stroke-width="2.4201284830128267" fill="rgb(0,0,0)" stroke-linecap="butt" stroke-miterlimit="10.0">
    <path d="M 69.7835,88.5412 h 9.0584 "/>
  </g>
  <g stroke-linejoin="miter" stroke-opacity="1.0" fill-opacity="0.6" stroke="rgb(0,0,0)" fill-rule="evenodd" stroke-width="0.0" fill="rgb(0,0,0)" stroke-linecap="butt" stroke-miterlimit="10.0">
    <path d="M 43.3218,124.7749 ZM 47.7083,113.8988 c -0.8613,-0.0000 -2.1231,0.8412 -2.1231 5.5082c 0.0000,1.6424 0.3004,4.9473 2.0631 4.9473c 0.3405,-0.0000 1.3019,-0.2203 1.7226 -1.7826c 0.2604,-0.9614 0.4006,-2.1632 0.4006 -3.9058c 0.0000,-2.5438 -0.6409,-3.9659 -1.2218 -4.4666c -0.2203,-0.2003 -0.5208,-0.3004 -0.8412 -0.3004ZM 47.7083,113.8988 ZM 47.6281,125.0153 c -2.1432,-0.0000 -3.5853,-2.7441 -3.5853 -5.8086c 0.0000,-3.7456 1.7826,-6.0089 3.6654 -6.0089c 0.8613,-0.0000 1.7226,0.5408 2.3034 1.3220c 0.8412,1.1217 1.2819,2.6239 1.2819 4.5067c 0.0000,4.4466 -2.2033,5.9889 -3.6654 5.9889ZM 52.0948,124.7749 ZM 53.2365,123.9537 c 0.0000,-0.5809 0.4807,-1.0616 1.0616 -1.0616c 0.5809,-0.0000 1.0616,0.4807 1.0616 1.0616c 0.0000,0.5809 -0.4807,1.0616 -1.0616 1.0616c -0.5809,-0.0000 -1.0616,-0.4807 -1.0616 -1.0616ZM 56.4813,124.7749 ZM 57.6430,115.9018 c 0.0000,-1.1417 1.1016,-2.7040 3.2047 -2.7040c 1.5423,-0.0000 3.3450,0.5809 3.3450 2.8843c 0.0000,1.5223 -0.7812,2.2834 -1.8628 3.3249l -1.9028,1.8427 c -0.1001,0.1001 -1.4421,1.4221 -1.4421 2.3635h 3.4050 c 0.6810,-0.0000 1.0415,-0.3405 1.3220 -1.4421l 0.5007,0.0801 l -0.4006,2.5237 h -6.1892 c 0.0000,-1.1217 0.1803,-1.9829 2.0430 -3.8858l 1.4021,-1.3820 c 1.1217,-1.1417 1.5823,-2.1231 1.5823 -3.3450c 0.0000,-1.8227 -1.2418,-2.3435 -1.9228 -2.3435c -1.3820,-0.0000 -1.7626,0.7211 -1.7626 1.2018c 0.0000,0.1602 0.0401,0.3205 0.0801 0.4607c 0.0401,0.1402 0.0801,0.2804 0.0801 0.4407c 0.0000,0.5208 -0.4006,0.7211 -0.7211 0.7211c -0.4407,-0.0000 -0.7611,-0.3405 -0.7611 -0.7411Z"/>
  </g>
  <g stroke-linejoin="miter" stroke-opacity="0.6" fill-opacity="0.0" stroke="rgb(0,0,0)" stroke-width="2.4201284830128267" fill="rgb(0,0,0)" stroke-linecap="butt" stroke-miterlimit="10.0">
    <path d="M 69.7835,118.7360 h 9.0584 "/>
  </g>
  <g stroke-linejoin="miter" stroke-opacity="1.0" fill-opacity="0.6" stroke="rgb(0,0,0)" fill-rule="evenodd" stroke-width="0.0" fill="rgb(0,0,0)" stroke-linecap="butt" stroke-miterlimit="10.0">
    <path d="M 43.3218,154.9696 ZM 47.7083,144.0935 c -0.8613,-0.0000 -2.1231,0.8412 -2.1231 5.5082c 0.0000,1.6424 0.3004,4.9473 2.0631 4.9473c 0.3405,-0.0000 1.3019,-0.2203 1.7226 -1.7826c 0.2604,-0.9614 0.4006,-2.1632 0.4006 -3.9058c 0.0000,-2.5438 -0.6409,-3.9659 -1.2218 -4.4666c -0.2203,-0.2003 -0.5208,-0.3004 -0.8412 -0.3004ZM 47.7083,144.0935 ZM 47.6281,155.2100 c -2.1432,-0.0000 -3.5853,-2.7441 -3.5853 -5.8086c 0.0000,-3.7456 1.7826,-6.0089 3.6654 -6.0089c 0.8613,-0.0000 1.7226,0.5408 2.3034 1.3220c 0.8412,1.1217 1.2819,2.6239 1.2819 4.5067c 0.0000,4.4466 -2.2033,5.9889 -3.6654 5.9889ZM 52.0948,154.9696 ZM 53.2365,154.1484 c 0.0000,-0.5809 0.4807,-1.0616 1.0616 -1.0616c 0.5809,-0.0000 1.0616,0.4807 1.0616 1.0616c 0.0000,0.5809 -0.4807,1.0616 -1.0616 1.0616c -0.5809,-0.0000 -1.0616,-0.4807 -1.0616 -1.0616ZM 56.4813,154.9696 ZM 60.2468,145.4155 c -0.3806,-0.0000 -1.2619,0.3605 -1.7025 0.5608l -0.2404,-0.6209 c 1.7626,-0.8212 2.4436,-1.2418 3.4451 -1.9629h 0.3806 v 10.0749 c 0.0000,0.7211 0.1001,0.9214 0.7611 0.9214h 1.0415 c 0.0601,-0.0000 0.1602,0.0401 0.1602 0.1602v 0.4407 l -2.7441,-0.0401 l -2.7841,0.0401 v -0.4407 c 0.0200,-0.0601 0.0401,-0.1602 0.1602 -0.1602h 1.2018 c 0.7611,-0.0000 0.7611,-0.3405 0.7611 -0.9214v -6.8902 c 0.0000,-0.6810 0.0000,-1.1617 -0.4407 -1.1617Z"/>
  </g>
  <g stroke-linejoin="miter" stroke-opacity="0.6" fill-opacity="0.0" stroke="rgb(0,0,0)" stroke-width="2.4201284830128267" fill="rgb(0,0,0)" stroke-linecap="butt" stroke-miterlimit="10.0">
    <path d="M 69.7835,148.9307 h 9.0584 "/>
  </g>
  <g stroke-linejoin="miter" stroke-opacity="1.0" fill-opacity="0.6" stroke="rgb(0,0,0)" fill-rule="evenodd" stroke-width="0.0" fill="rgb(0,0,0)" stroke-linecap="butt" stroke-miterlimit="10.0">
    <path d="M 43.3218,185.1644 ZM 47.7083,174.2883 c -0.8613,-0.0000 -2.1231,0.8412 -2.1231 5.5082c 0.0000,1.6424 0.3004,4.9473 2.0631 4.9473c 0.3405,-0.0000 1.3019,-0.2203 1.7226 -1.7826c 0.2604,-0.9614 0.4006,-2.1632 0.4006 -3.9058c 0.0000,-2.5438 -0.6409,-3.9659 -1.2218 -4.4666c -0.2203,-0.2003 -0.5208,-0.3004 -0.8412 -0.3004ZM 47.7083,174.2883 ZM 47.6281,185.4047 c -2.1432,-0.0000 -3.5853,-2.7441 -3.5853 -5.8086c 0.0000,-3.7456 1.7826,-6.0089 3.6654 -6.0089c 0.8613,-0.0000 1.7226,0.5408 2.3034 1.3220c 0.8412,1.1217 1.2819,2.6239 1.2819 4.5067c 0.0000,4.4466 -2.2033,5.9889 -3.6654 5.9889ZM 52.0948,185.1644 ZM 53.2365,184.3432 c 0.0000,-0.5809 0.4807,-1.0616 1.0616 -1.0616c 0.5809,-0.0000 1.0616,0.4807 1.0616 1.0616c 0.0000,0.5809 -0.4807,1.0616 -1.0616 1.0616c -0.5809,-0.0000 -1.0616,-0.4807 -1.0616 -1.0616ZM 56.4813,185.1644 ZM 60.8678,174.2883 c -0.8613,-0.0000 -2.1231,0.8412 -2.1231 5.5082c 0.0000,1.6424 0.3004,4.9473 2.0631 4.9473c 0.3405,-0.0000 1.3019,-0.2203 1.7226 -1.7826c 0.2604,-0.9614 0.4006,-2.1632 0.4006 -3.9058c 0.0000,-2.5438 -0.6409,-3.9659 -1.2218 -4.4666c -0.2203,-0.2003 -0.5208,-0.3004 -0.8412 -0.3004ZM 60.8678,174.2883 ZM 60.7876,185.4047 c -2.1432,-0.0000 -3.5853,-2.7441 -3.5853 -5.8086c 0.0000,-3.7456 1.7826,-6.0089 3.6654 -6.0089c 0.8613,-0.0000 1.7226,0.5408 2.3034 1.3220c 0.8412,1.1217 1.2819,2.6239 1.2819 4.5067c 0.0000,4.4466 -2.2033,5.9889 -3.6654 5.9889Z"/>
  </g>
  <g stroke-linejoin="miter" stroke-opacity="0.6" fill-opacity="0.0" stroke="rgb(0,0,0)" stroke-width="2.4201284830128267" fill="rgb(0,0,0)" stroke-linecap="butt" stroke-miterlimit="10.0">
    <path d="M 69.7835,179.1254 h 9.0584 "/>
  </g>
  <g stroke-linejoin="miter" stroke-opacity="1.0" fill-opacity="0.6" stroke="rgb(0,0,0)" fill-rule="evenodd" stroke-width="0.0" fill="rgb(0,0,0)" stroke-linecap="butt" stroke-miterlimit="10.0">
    <path d="M 36.6519,215.3591 ZM 42.1400,210.6321 h -4.5267 c -0.1803,-0.0000 -0.3004,-0.1602 -0.3004 -0.3405c 0.0000,-0.3205 0.2604,-0.7411 0.5007 -0.7411h 4.5868 c 0.2003,-0.0000 0.2804,0.1803 0.2804 0.3605c 0.0000,0.2203 -0.2804,0.7211 -0.5408 0.7211ZM 43.3218,215.3591 ZM 47.7083,204.4830 c -0.8613,-0.0000 -2.1231,0.8412 -2.1231 5.5082c 0.0000,1.6424 0.3004,4.9473 2.0631 4.9473c 0.3405,-0.0000 1.3019,-0.2203 1.7226 -1.7826c 0.2604,-0.9614 0.4006,-2.1632 0.4006 -3.9058c 0.0000,-2.5438 -0.6409,-3.9659 -1.2218 -4.4666c -0.2203,-0.2003 -0.5208,-0.3004 -0.8412 -0.3004ZM 47.7083,204.4830 ZM 47.6281,215.5995 c -2.1432,-0.0000 -3.5853,-2.7441 -3.5853 -5.8086c 0.0000,-3.7456 1.7826,-6.0089 3.6654 -6.0089c 0.8613,-0.0000 1.7226,0.5408 2.3034 1.3220c 0.8412,1.1217 1.2819,2.6239 1.2819 4.5067c 0.0000,4.4466 -2.2033,5.9889 -3.6654 5.9889ZM 52.0948,215.3591 ZM 53.2365,214.5379 c 0.0000,-0.5809 0.4807,-1.0616 1.0616 -1.0616c 0.5809,-0.0000 1.0616,0.4807 1.0616 1.0616c 0.0000,0.5809 -0.4807,1.0616 -1.0616 1.0616c -0.5809,-0.0000 -1.0616,-0.4807 -1.0616 -1.0616ZM 56.4813,215.3591 ZM 60.2468,205.8050 c -0.3806,-0.0000 -1.2619,0.3605 -1.7025 0.5608l -0.2404,-0.6209 c 1.7626,-0.8212 2.4436,-1.2418 3.4451 -1.9629h 0.3806 v 10.0749 c 0.0000,0.7211 0.1001,0.9214 0.7611 0.9214h 1.0415 c 0.0601,-0.0000 0.1602,0.0401 0.1602 0.1602v 0.4407 l -2.7441,-0.0401 l -2.7841,0.0401 v -0.4407 c 0.0200,-0.0601 0.0401,-0.1602 0.1602 -0.1602h 1.2018 c 0.7611,-0.0000 0.7611,-0.3405 0.7611 -0.9214v -6.8902 c 0.0000,-0.6810 0.0000,-1.1617 -0.4407 -1.1617Z"/>
  </g>
  <g stroke-linejoin="miter" stroke-opacity="0.6" fill-opacity="0.0" stroke="rgb(0,0,0)" stroke-width="2.4201284830128267" fill="rgb(0,0,0)" stroke-linecap="butt" stroke-miterlimit="10.0">
    <path d="M 69.7835,209.3202 h 9.0584 "/>
  </g>
  <g stroke-linejoin="miter" stroke-opacity="1.0" fill-opacity="0.6" stroke="rgb(0,0,0)" fill-rule="evenodd" stroke-width="0.0" fill="rgb(0,0,0)" stroke-linecap="butt" stroke-miterlimit="10.0">
    <path d="M 36.6519,245.5539 ZM 42.1400,240.8269 h -4.5267 c -0.1803,-0.0000 -0.3004,-0.1602 -0.3004 -0.3405c 0.0000,-0.3205 0.2604,-0.7411 0.5007 -0.7411h 4.5868 c 0.2003,-0.0000 0.2804,0.1803 0.2804 0.3605c 0.0000,0.2203 -0.2804,0.7211 -0.5408 0.7211ZM 43.3218,245.5539 ZM 47.7083,234.6778 c -0.8613,-0.0000 -2.1231,0.8412 -2.1231 5.5082c 0.0000,1.6424 0.3004,4.9473 2.0631 4.9473c 0.3405,-0.0000 1.3019,-0.2203 1.7226 -1.7826c 0.2604,-0.9614 0.4006,-2.1632 0.4006 -3.9058c 0.0000,-2.5438 -0.6409,-3.9659 -1.2218 -4.4666c -0.2203,-0.2003 -0.5208,-0.3004 -0.8412 -0.3004ZM 47.7083,234.6778 ZM 47.6281,245.7942 c -2.1432,-0.0000 -3.5853,-2.7441 -3.5853 -5.8086c 0.0000,-3.7456 1.7826,-6.0089 3.6654 -6.0089c 0.8613,-0.0000 1.7226,0.5408 2.3034 1.3220c 0.8412,1.1217 1.2819,2.6239 1.2819 4.5067c 0.0000,4.4466 -2.2033,5.9889 -3.6654 5.9889ZM 52.0948,245.5539 ZM 53.2365,244.7327 c 0.0000,-0.5809 0.4807,-1.0616 1.0616 -1.0616c 0.5809,-0.0000 1.0616,0.4807 1.0616 1.0616c 0.0000,0.5809 -0.4807,1.0616 -1.0616 1.0616c -0.5809,-0.0000 -1.0616,-0.4807 -1.0616 -1.0616ZM 56.4813,245.5539 ZM 57.6430,236.6807 c 0.0000,-1.1417 1.1016,-2.7040 3.2047 -2.7040c 1.5423,-0.0000 3.3450,0.5809 3.3450 2.8843c 0.0000,1.5223 -0.7812,2.2834 -1.8628 3.3249l -1.9028,1.8427 c -0.1001,0.1001 -1.4421,1.4221 -1.4421 2.3635h 3.4050 c 0.6810,-0.0000 1.0415,-0.3405 1.3220 -1.4421l 0.5007,0.0801 l -0.4006,2.5237 h -6.1892 c 0.0000,-1.1217 0.1803,-1.9829 2.0430 -3.8858l 1.4021,-1.3820 c 1.1217,-1.1417 1.5823,-2.1231 1.5823 -3.3450c 0.0000,-1.8227 -1.2418,-2.3435 -1.9228 -2.3435c -1.3820,-0.0000 -1.7626,0.7211 -1.7626 1.2018c 0.0000,0.1602 0.0401,0.3205 0.0801 0.4607c 0.0401,0.1402 0.0801,0.2804 0.0801 0.4407c 0.0000,0.5208 -0.4006,0.7211 -0.7211 0.7211c -0.4407,-0.0000 -0.7611,-0.3405 -0.7611 -0.7411Z"/>
  </g>
  <g stroke-linejoin="miter" stroke-opacity="0.6" fill-opacity="0.0" stroke="rgb(0,0,0)" stroke-width="2.4201284830128267" fill="rgb(0,0,0)" stroke-linecap="butt" stroke-miterlimit="10.0">
    <path d="M 69.7835,239.5149 h 9.0584 "/>
  </g>
  <g stroke-linejoin="miter" stroke-opacity="1.0" fill-opacity="0.6" stroke="rgb(0,0,0)" fill-rule="evenodd" stroke-width="0.0" fill="rgb(0,0,0)" stroke-linecap="butt" stroke-miterlimit="10.0">
    <path d="M 36.6519,275.7486 ZM 42.1400,271.0216 h -4.5267 c -0.1803,-0.0000 -0.3004,-0.1602 -0.3004 -0.3405c 0.0000,-0.3205 0.2604,-0.7411 0.5007 -0.7411h 4.5868 c 0.2003,-0.0000 0.2804,0.1803 0.2804 0.3605c 0.0000,0.2203 -0.2804,0.7211 -0.5408 0.7211ZM 43.3218,275.7486 ZM 47.7083,264.8725 c -0.8613,-0.0000 -2.1231,0.8412 -2.1231 5.5082c 0.0000,1.6424 0.3004,4.9473 2.0631 4.9473c 0.3405,-0.0000 1.3019,-0.2203 1.7226 -1.7826c 0.2604,-0.9614 0.4006,-2.1632 0.4006 -3.9058c 0.0000,-2.5438 -0.6409,-3.9659 -1.2218 -4.4666c -0.2203,-0.2003 -0.5208,-0.3004 -0.8412 -0.3004ZM 47.7083,264.8725 ZM 47.6281,275.9890 c -2.1432,-0.0000 -3.5853,-2.7441 -3.5853 -5.8086c 0.0000,-3.7456 1.7826,-6.0089 3.6654 -6.0089c 0.8613,-0.0000 1.7226,0.5408 2.3034 1.3220c 0.8412,1.1217 1.2819,2.6239 1.2819 4.5067c 0.0000,4.4466 -2.2033,5.9889 -3.6654 5.9889ZM 52.0948,275.7486 ZM 53.2365,274.9274 c 0.0000,-0.5809 0.4807,-1.0616 1.0616 -1.0616c 0.5809,-0.0000 1.0616,0.4807 1.0616 1.0616c 0.0000,0.5809 -0.4807,1.0616 -1.0616 1.0616c -0.5809,-0.0000 -1.0616,-0.4807 -1.0616 -1.0616ZM 56.4813,275.7486 ZM 60.8077,264.7924 c -0.5007,-0.0000 -1.9629,0.2804 -1.9629 1.5022c 0.0000,0.3605 -0.1402,0.9815 -0.6810 0.9815c -0.5208,-0.0000 -0.5608,-0.5809 -0.5608 -0.6409c 0.0000,-0.6209 0.8212,-2.4637 3.6053 -2.4637c 1.9429,-0.0000 2.5237,1.2218 2.5237 2.0230c 0.0000,0.5007 -0.1602,1.5022 -1.9629 2.6439c 1.1217,0.1803 2.6039,1.0015 2.6039 3.0846c 0.0000,2.6439 -2.0030,4.0660 -4.2663 4.0660c -1.1417,-0.0000 -2.7441,-0.5007 -2.7441 -1.2619c 0.0000,-0.3004 0.3004,-0.6409 0.7010 -0.6409c 0.3806,-0.0000 0.5608,0.2003 0.7411 0.4607c 0.2203,0.3405 0.5809,0.8212 1.5423 0.8212c 0.6610,-0.0000 2.5438,-0.6610 2.5438 -3.1847c 0.0000,-2.1432 -1.5022,-2.4837 -2.5838 -2.4837c -0.1803,-0.0000 -0.4006,0.0401 -0.6209 0.0801l -0.0801,-0.6009 c 1.5423,-0.2604 2.8242,-1.7626 2.8242 -2.6840c 0.0000,-1.1417 -0.8012,-1.7025 -1.6224 -1.7025Z"/>
  </g>
  <g stroke-linejoin="miter" stroke-opacity="0.6" fill-opacity="0.0" stroke="rgb(0,0,0)" stroke-width="2.4201284830128267" fill="rgb(0,0,0)" stroke-linecap="butt" stroke-miterlimit="10.0">
    <path d="M 69.7835,269.7097 h 9.0584 "/>
  </g>
  <g stroke-linejoin="miter" stroke-opacity="1.0" fill-opacity="0.6" stroke="rgb(0,0,0)" fill-rule="evenodd" stroke-width="0.0" fill="rgb(0,0,0)" stroke-linecap="butt" stroke-miterlimit="10.0">
    <path d="M 36.6519,305.9434 ZM 42.1400,301.2164 h -4.5267 c -0.1803,-0.0000 -0.3004,-0.1602 -0.3004 -0.3405c 0.0000,-0.3205 0.2604,-0.7411 0.5007 -0.7411h 4.5868 c 0.2003,-0.0000 0.2804,0.1803 0.2804 0.3605c 0.0000,0.2203 -0.2804,0.7211 -0.5408 0.7211ZM 43.3218,305.9434 ZM 47.7083,295.0673 c -0.8613,-0.0000 -2.1231,0.8412 -2.1231 5.5082c 0.0000,1.6424 0.3004,4.9473 2.0631 4.9473c 0.3405,-0.0000 1.3019,-0.2203 1.7226 -1.7826c 0.2604,-0.9614 0.4006,-2.1632 0.4006 -3.9058c 0.0000,-2.5438 -0.6409,-3.9659 -1.2218 -4.4666c -0.2203,-0.2003 -0.5208,-0.3004 -0.8412 -0.3004ZM 47.7083,295.0673 ZM 47.6281,306.1837 c -2.1432,-0.0000 -3.5853,-2.7441 -3.5853 -5.8086c 0.0000,-3.7456 1.7826,-6.0089 3.6654 -6.0089c 0.8613,-0.0000 1.7226,0.5408 2.3034 1.3220c 0.8412,1.1217 1.2819,2.6239 1.2819 4.5067c 0.0000,4.4466 -2.2033,5.9889 -3.6654 5.9889ZM 52.0948,305.9434 ZM 53.2365,305.1222 c 0.0000,-0.5809 0.4807,-1.0616 1.0616 -1.0616c 0.5809,-0.0000 1.0616,0.4807 1.0616 1.0616c 0.0000,0.5809 -0.4807,1.0616 -1.0616 1.0616c -0.5809,-0.0000 -1.0616,-0.4807 -1.0616 -1.0616ZM 56.4813,305.9434 ZM 61.6489,298.8328 c 0.0000,-0.1402 0.0200,-0.3004 0.2003 -0.4006c 0.2203,-0.1602 0.5809,-0.3405 0.8813 -0.3405c 0.2604,-0.0000 0.2804,0.2203 0.2804 0.6209v 3.2248 h 1.6224 l -0.1202,0.9414 h -1.5022 v 1.6625 c 0.0000,0.5608 0.0801,0.8412 0.6610 0.8412h 0.5408 c 0.1202,-0.0000 0.1402,0.1001 0.1402 0.1402v 0.4407 c 0.0000,-0.0000 -1.2819,-0.0401 -2.1231 -0.0401c -0.7611,-0.0000 -1.9429,0.0401 -1.9429 0.0401v -0.4407 c 0.0000,-0.0401 0.0200,-0.1402 0.1402 -0.1402h 0.5408 c 0.6209,-0.0000 0.6810,-0.2604 0.6810 -0.8412v -1.6625 h -3.9258 c -0.0801,-0.0000 -0.1202,-0.0401 -0.1803 -0.1202l -0.1602,-0.2203 l -0.2404,-0.4206 c -0.0200,-0.0000 -0.0200,-0.0200 -0.0200 -0.0401c 0.0000,-0.0200 0.0200,-0.0401 0.0401 -0.0601c 1.3019,-1.4421 3.6053,-5.9088 4.3264 -7.5512c 0.0200,-0.0801 0.0601,-0.1001 0.1402 -0.1001c 0.0200,-0.0000 0.4607,0.1803 0.7010 0.2203c -0.9013,2.4236 -2.3835,5.0275 -3.8457 7.3509h 3.1647 v -3.1046 Z"/>
  </g>
  <g stroke-linejoin="miter" stroke-opacity="0.6" fill-opacity="0.0" stroke="rgb(0,0,0)" stroke-width="2.4201284830128267" fill="rgb(0,0,0)" stroke-linecap="butt" stroke-miterlimit="10.0">
    <path d="M 69.7835,299.9044 h 9.0584 "/>
  </g>
  <g stroke-linejoin="miter" stroke-opacity="1.0" fill-opacity="0.6" stroke="rgb(0,0,0)" fill-rule="evenodd" stroke-width="0.0" fill="rgb(0,0,0)" stroke-linecap="butt" stroke-miterlimit="10.0">
    <path d="M 36.6519,336.1381 ZM 42.1400,331.4111 h -4.5267 c -0.1803,-0.0000 -0.3004,-0.1602 -0.3004 -0.3405c 0.0000,-0.3205 0.2604,-0.7411 0.5007 -0.7411h 4.5868 c 0.2003,-0.0000 0.2804,0.1803 0.2804 0.3605c 0.0000,0.2203 -0.2804,0.7211 -0.5408 0.7211ZM 43.3218,336.1381 ZM 47.7083,325.2620 c -0.8613,-0.0000 -2.1231,0.8412 -2.1231 5.5082c 0.0000,1.6424 0.3004,4.9473 2.0631 4.9473c 0.3405,-0.0000 1.3019,-0.2203 1.7226 -1.7826c 0.2604,-0.9614 0.4006,-2.1632 0.4006 -3.9058c 0.0000,-2.5438 -0.6409,-3.9659 -1.2218 -4.4666c -0.2203,-0.2003 -0.5208,-0.3004 -0.8412 -0.3004ZM 47.7083,325.2620 ZM 47.6281,336.3785 c -2.1432,-0.0000 -3.5853,-2.7441 -3.5853 -5.8086c 0.0000,-3.7456 1.7826,-6.0089 3.6654 -6.0089c 0.8613,-0.0000 1.7226,0.5408 2.3034 1.3220c 0.8412,1.1217 1.2819,2.6239 1.2819 4.5067c 0.0000,4.4466 -2.2033,5.9889 -3.6654 5.9889ZM 52.0948,336.1381 ZM 53.2365,335.3169 c 0.0000,-0.5809 0.4807,-1.0616 1.0616 -1.0616c 0.5809,-0.0000 1.0616,0.4807 1.0616 1.0616c 0.0000,0.5809 -0.4807,1.0616 -1.0616 1.0616c -0.5809,-0.0000 -1.0616,-0.4807 -1.0616 -1.0616ZM 56.4813,336.1381 ZM 62.6704,332.7531 c 0.0000,-2.0631 -1.1217,-3.0846 -2.3635 -3.0846c -0.9214,-0.0000 -1.6224,0.1402 -2.4036 0.4607l 0.6409,-5.4681 c 0.6610,0.0601 1.3420,0.0801 2.0430 0.0801c 1.0015,-0.0000 2.0430,-0.0601 3.1246 -0.1803l 0.1202,0.0601 l -0.3004,1.3019 c -0.7812,0.0801 -1.4221,0.1001 -1.9829 0.1001c -0.9013,-0.0000 -1.5823,-0.0801 -2.2834 -0.1602l -0.3806,3.1647 c 0.4206,-0.1602 1.1417,-0.3004 1.9228 -0.3004c 2.1231,-0.0000 3.3049,1.8427 3.3049 3.6855c 0.0000,2.2433 -1.5623,3.9659 -3.8257 3.9659c -1.1417,-0.0000 -2.8042,-0.6409 -2.8042 -1.4221c 0.0000,-0.3806 0.3205,-0.6409 0.6810 -0.6409c 0.4006,-0.0000 0.6610,0.3004 0.9013 0.6209c 0.3004,0.3605 0.6209,0.7611 1.2619 0.7611c 1.2819,-0.0000 2.3435,-1.2018 2.3435 -2.9444Z"/>
  </g>
  <g stroke-linejoin="miter" stroke-opacity="0.6" fill-opacity="0.0" stroke="rgb(0,0,0)" stroke-width="2.4201284830128267" fill="rgb(0,0,0)" stroke-linecap="butt" stroke-miterlimit="10.0">
    <path d="M 69.7835,330.0992 h 9.0584 "/>
  </g>
  <g stroke-linejoin="miter" stroke-opacity="0.0" fill-opacity="0.1" stroke="rgb(0,0,0)" stroke-width="0.0" fill="rgb(0,0,0)" stroke-linecap="butt" stroke-miterlimit="10.0">
    <path d="M 558.1422,348.2160 l -0.0000,-6.0389 h -452.9212 l -0.0000,6.0389 Z"/>
  </g>
  <g stroke-linejoin="miter" stroke-opacity="1.0" fill-opacity="0.6" stroke="rgb(0,0,0)" fill-rule="evenodd" stroke-width="0.0" fill="rgb(0,0,0)" stroke-linecap="butt" stroke-miterlimit="10.0">
    <path d="M 547.1759,373.6712 ZM 551.5624,362.7951 c -0.8613,-0.0000 -2.1231,0.8412 -2.1231 5.5082c 0.0000,1.6424 0.3004,4.9473 2.0631 4.9473c 0.3405,-0.0000 1.3019,-0.2203 1.7226 -1.7826c 0.2604,-0.9614 0.4006,-2.1632 0.4006 -3.9058c 0.0000,-2.5438 -0.6409,-3.9659 -1.2218 -4.4666c -0.2203,-0.2003 -0.5208,-0.3004 -0.8412 -0.3004ZM 551.5624,362.7951 ZM 551.4823,373.9116 c -2.1432,-0.0000 -3.5853,-2.7441 -3.5853 -5.8086c 0.0000,-3.7456 1.7826,-6.0089 3.6654 -6.0089c 0.8613,-0.0000 1.7226,0.5408 2.3034 1.3220c 0.8412,1.1217 1.2819,2.6239 1.2819 4.5067c 0.0000,4.4466 -2.2033,5.9889 -3.6654 5.9889ZM 555.9489,373.6712 ZM 557.0906,372.8500 c 0.0000,-0.5809 0.4807,-1.0616 1.0616 -1.0616c 0.5809,-0.0000 1.0616,0.4807 1.0616 1.0616c 0.0000,0.5809 -0.4807,1.0616 -1.0616 1.0616c -0.5809,-0.0000 -1.0616,-0.4807 -1.0616 -1.0616ZM 560.3354,373.6712 ZM 566.5246,370.2862 c 0.0000,-2.0631 -1.1217,-3.0846 -2.3635 -3.0846c -0.9214,-0.0000 -1.6224,0.1402 -2.4036 0.4607l 0.6409,-5.4681 c 0.6610,0.0601 1.3420,0.0801 2.0430 0.0801c 1.0015,-0.0000 2.0430,-0.0601 3.1246 -0.1803l 0.1202,0.0601 l -0.3004,1.3019 c -0.7812,0.0801 -1.4221,0.1001 -1.9829 0.1001c -0.9013,-0.0000 -1.5823,-0.0801 -2.2834 -0.1602l -0.3806,3.1647 c 0.4206,-0.1602 1.1417,-0.3004 1.9228 -0.3004c 2.1231,-0.0000 3.3049,1.8427 3.3049 3.6855c 0.0000,2.2433 -1.5623,3.9659 -3.8257 3.9659c -1.1417,-0.0000 -2.8042,-0.6409 -2.8042 -1.4221c 0.0000,-0.3806 0.3205,-0.6409 0.6810 -0.6409c 0.4006,-0.0000 0.6610,0.3004 0.9013 0.6209c 0.3004,0.3605 0.6209,0.7611 1.2619 0.7611c 1.2819,-0.0000 2.3435,-1.2018 2.3435 -2.9444Z"/>
  </g>
  <g stroke-linejoin="miter" stroke-opacity="0.6" fill-opacity="0.0" stroke="rgb(0,0,0)" stroke-width="2.4201284830128267" fill="rgb(0,0,0)" stroke-linecap="butt" stroke-miterlimit="10.0">
    <path d="M 558.1422,342.1771 v 9.0584 "/>
  </g>
  <g stroke-linejoin="miter" stroke-opacity="1.0" fill-opacity="0.6" stroke="rgb(0,0,0)" fill-rule="evenodd" stroke-width="0.0" fill="rgb(0,0,0)" stroke-linecap="butt" stroke-miterlimit="10.0">
    <path d="M 501.8838,373.6712 ZM 506.2703,362.7951 c -0.8613,-0.0000 -2.1231,0.8412 -2.1231 5.5082c 0.0000,1.6424 0.3004,4.9473 2.0631 4.9473c 0.3405,-0.0000 1.3019,-0.2203 1.7226 -1.7826c 0.2604,-0.9614 0.4006,-2.1632 0.4006 -3.9058c 0.0000,-2.5438 -0.6409,-3.9659 -1.2218 -4.4666c -0.2203,-0.2003 -0.5208,-0.3004 -0.8412 -0.3004ZM 506.2703,362.7951 ZM 506.1902,373.9116 c -2.1432,-0.0000 -3.5853,-2.7441 -3.5853 -5.8086c 0.0000,-3.7456 1.7826,-6.0089 3.6654 -6.0089c 0.8613,-0.0000 1.7226,0.5408 2.3034 1.3220c 0.8412,1.1217 1.2819,2.6239 1.2819 4.5067c 0.0000,4.4466 -2.2033,5.9889 -3.6654 5.9889ZM 510.6568,373.6712 ZM 511.7985,372.8500 c 0.0000,-0.5809 0.4807,-1.0616 1.0616 -1.0616c 0.5809,-0.0000 1.0616,0.4807 1.0616 1.0616c 0.0000,0.5809 -0.4807,1.0616 -1.0616 1.0616c -0.5809,-0.0000 -1.0616,-0.4807 -1.0616 -1.0616ZM 515.0433,373.6712 ZM 520.2110,366.5607 c 0.0000,-0.1402 0.0200,-0.3004 0.2003 -0.4006c 0.2203,-0.1602 0.5809,-0.3405 0.8813 -0.3405c 0.2604,-0.0000 0.2804,0.2203 0.2804 0.6209v 3.2248 h 1.6224 l -0.1202,0.9414 h -1.5022 v 1.6625 c 0.0000,0.5608 0.0801,0.8412 0.6610 0.8412h 0.5408 c 0.1202,-0.0000 0.1402,0.1001 0.1402 0.1402v 0.4407 c 0.0000,-0.0000 -1.2819,-0.0401 -2.1231 -0.0401c -0.7611,-0.0000 -1.9429,0.0401 -1.9429 0.0401v -0.4407 c 0.0000,-0.0401 0.0200,-0.1402 0.1402 -0.1402h 0.5408 c 0.6209,-0.0000 0.6810,-0.2604 0.6810 -0.8412v -1.6625 h -3.9258 c -0.0801,-0.0000 -0.1202,-0.0401 -0.1803 -0.1202l -0.1602,-0.2203 l -0.2404,-0.4206 c -0.0200,-0.0000 -0.0200,-0.0200 -0.0200 -0.0401c 0.0000,-0.0200 0.0200,-0.0401 0.0401 -0.0601c 1.3019,-1.4421 3.6053,-5.9088 4.3264 -7.5512c 0.0200,-0.0801 0.0601,-0.1001 0.1402 -0.1001c 0.0200,-0.0000 0.4607,0.1803 0.7010 0.2203c -0.9013,2.4236 -2.3835,5.0275 -3.8457 7.3509h 3.1647 v -3.1046 Z"/>
  </g>
  <g stroke-linejoin="miter" stroke-opacity="0.6" fill-opacity="0.0" stroke="rgb(0,0,0)" stroke-width="2.4201284830128267" fill="rgb(0,0,0)" stroke-linecap="butt" stroke-miterlimit="10.0">
    <path d="M 512.8500,342.1771 v 9.0584 "/>
  </g>
  <g stroke-linejoin="miter" stroke-opacity="1.0" fill-opacity="0.6" stroke="rgb(0,0,0)" fill-rule="evenodd" stroke-width="0.0" fill="rgb(0,0,0)" stroke-linecap="butt" stroke-miterlimit="10.0">
    <path d="M 456.5917,373.6712 ZM 460.9782,362.7951 c -0.8613,-0.0000 -2.1231,0.8412 -2.1231 5.5082c 0.0000,1.6424 0.3004,4.9473 2.0631 4.9473c 0.3405,-0.0000 1.3019,-0.2203 1.7226 -1.7826c 0.2604,-0.9614 0.4006,-2.1632 0.4006 -3.9058c 0.0000,-2.5438 -0.6409,-3.9659 -1.2218 -4.4666c -0.2203,-0.2003 -0.5208,-0.3004 -0.8412 -0.3004ZM 460.9782,362.7951 ZM 460.8981,373.9116 c -2.1432,-0.0000 -3.5853,-2.7441 -3.5853 -5.8086c 0.0000,-3.7456 1.7826,-6.0089 3.6654 -6.0089c 0.8613,-0.0000 1.7226,0.5408 2.3034 1.3220c 0.8412,1.1217 1.2819,2.6239 1.2819 4.5067c 0.0000,4.4466 -2.2033,5.9889 -3.6654 5.9889ZM 465.3647,373.6712 ZM 466.5064,372.8500 c 0.0000,-0.5809 0.4807,-1.0616 1.0616 -1.0616c 0.5809,-0.0000 1.0616,0.4807 1.0616 1.0616c 0.0000,0.5809 -0.4807,1.0616 -1.0616 1.0616c -0.5809,-0.0000 -1.0616,-0.4807 -1.0616 -1.0616ZM 469.7512,373.6712 ZM 474.0776,362.7150 c -0.5007,-0.0000 -1.9629,0.2804 -1.9629 1.5022c 0.0000,0.3605 -0.1402,0.9815 -0.6810 0.9815c -0.5208,-0.0000 -0.5608,-0.5809 -0.5608 -0.6409c 0.0000,-0.6209 0.8212,-2.4637 3.6053 -2.4637c 1.9429,-0.0000 2.5237,1.2218 2.5237 2.0230c 0.0000,0.5007 -0.1602,1.5022 -1.9629 2.6439c 1.1217,0.1803 2.6039,1.0015 2.6039 3.0846c 0.0000,2.6439 -2.0030,4.0660 -4.2663 4.0660c -1.1417,-0.0000 -2.7441,-0.5007 -2.7441 -1.2619c 0.0000,-0.3004 0.3004,-0.6409 0.7010 -0.6409c 0.3806,-0.0000 0.5608,0.2003 0.7411 0.4607c 0.2203,0.3405 0.5809,0.8212 1.5423 0.8212c 0.6610,-0.0000 2.5438,-0.6610 2.5438 -3.1847c 0.0000,-2.1432 -1.5022,-2.4837 -2.5838 -2.4837c -0.1803,-0.0000 -0.4006,0.0401 -0.6209 0.0801l -0.0801,-0.6009 c 1.5423,-0.2604 2.8242,-1.7626 2.8242 -2.6840c 0.0000,-1.1417 -0.8012,-1.7025 -1.6224 -1.7025Z"/>
  </g>
  <g stroke-linejoin="miter" stroke-opacity="0.6" fill-opacity="0.0" stroke="rgb(0,0,0)" stroke-width="2.4201284830128267" fill="rgb(0,0,0)" stroke-linecap="butt" stroke-miterlimit="10.0">
    <path d="M 467.5579,342.1771 v 9.0584 "/>
  </g>
  <g stroke-linejoin="miter" stroke-opacity="1.0" fill-opacity="0.6" stroke="rgb(0,0,0)" fill-rule="evenodd" stroke-width="0.0" fill="rgb(0,0,0)" stroke-linecap="butt" stroke-miterlimit="10.0">
    <path d="M 411.2996,373.6712 ZM 415.6861,362.7951 c -0.8613,-0.0000 -2.1231,0.8412 -2.1231 5.5082c 0.0000,1.6424 0.3004,4.9473 2.0631 4.9473c 0.3405,-0.0000 1.3019,-0.2203 1.7226 -1.7826c 0.2604,-0.9614 0.4006,-2.1632 0.4006 -3.9058c 0.0000,-2.5438 -0.6409,-3.9659 -1.2218 -4.4666c -0.2203,-0.2003 -0.5208,-0.3004 -0.8412 -0.3004ZM 415.6861,362.7951 ZM 415.6059,373.9116 c -2.1432,-0.0000 -3.5853,-2.7441 -3.5853 -5.8086c 0.0000,-3.7456 1.7826,-6.0089 3.6654 -6.0089c 0.8613,-0.0000 1.7226,0.5408 2.3034 1.3220c 0.8412,1.1217 1.2819,2.6239 1.2819 4.5067c 0.0000,4.4466 -2.2033,5.9889 -3.6654 5.9889ZM 420.0726,373.6712 ZM 421.2142,372.8500 c 0.0000,-0.5809 0.4807,-1.0616 1.0616 -1.0616c 0.5809,-0.0000 1.0616,0.4807 1.0616 1.0616c 0.0000,0.5809 -0.4807,1.0616 -1.0616 1.0616c -0.5809,-0.0000 -1.0616,-0.4807 -1.0616 -1.0616ZM 424.4591,373.6712 ZM 425.6208,364.7981 c 0.0000,-1.1417 1.1016,-2.7040 3.2047 -2.7040c 1.5423,-0.0000 3.3450,0.5809 3.3450 2.8843c 0.0000,1.5223 -0.7812,2.2834 -1.8628 3.3249l -1.9028,1.8427 c -0.1001,0.1001 -1.4421,1.4221 -1.4421 2.3635h 3.4050 c 0.6810,-0.0000 1.0415,-0.3405 1.3220 -1.4421l 0.5007,0.0801 l -0.4006,2.5237 h -6.1892 c 0.0000,-1.1217 0.1803,-1.9829 2.0430 -3.8858l 1.4021,-1.3820 c 1.1217,-1.1417 1.5823,-2.1231 1.5823 -3.3450c 0.0000,-1.8227 -1.2418,-2.3435 -1.9228 -2.3435c -1.3820,-0.0000 -1.7626,0.7211 -1.7626 1.2018c 0.0000,0.1602 0.0401,0.3205 0.0801 0.4607c 0.0401,0.1402 0.0801,0.2804 0.0801 0.4407c 0.0000,0.5208 -0.4006,0.7211 -0.7211 0.7211c -0.4407,-0.0000 -0.7611,-0.3405 -0.7611 -0.7411Z"/>
  </g>
  <g stroke-linejoin="miter" stroke-opacity="0.6" fill-opacity="0.0" stroke="rgb(0,0,0)" stroke-width="2.4201284830128267" fill="rgb(0,0,0)" stroke-linecap="butt" stroke-miterlimit="10.0">
    <path d="M 422.2658,342.1771 v 9.0584 "/>
  </g>
  <g stroke-linejoin="miter" stroke-opacity="1.0" fill-opacity="0.6" stroke="rgb(0,0,0)" fill-rule="evenodd" stroke-width="0.0" fill="rgb(0,0,0)" stroke-linecap="butt" stroke-miterlimit="10.0">
    <path d="M 366.0074,373.6712 ZM 370.3939,362.7951 c -0.8613,-0.0000 -2.1231,0.8412 -2.1231 5.5082c 0.0000,1.6424 0.3004,4.9473 2.0631 4.9473c 0.3405,-0.0000 1.3019,-0.2203 1.7226 -1.7826c 0.2604,-0.9614 0.4006,-2.1632 0.4006 -3.9058c 0.0000,-2.5438 -0.6409,-3.9659 -1.2218 -4.4666c -0.2203,-0.2003 -0.5208,-0.3004 -0.8412 -0.3004ZM 370.3939,362.7951 ZM 370.3138,373.9116 c -2.1432,-0.0000 -3.5853,-2.7441 -3.5853 -5.8086c 0.0000,-3.7456 1.7826,-6.0089 3.6654 -6.0089c 0.8613,-0.0000 1.7226,0.5408 2.3034 1.3220c 0.8412,1.1217 1.2819,2.6239 1.2819 4.5067c 0.0000,4.4466 -2.2033,5.9889 -3.6654 5.9889ZM 374.7804,373.6712 ZM 375.9221,372.8500 c 0.0000,-0.5809 0.4807,-1.0616 1.0616 -1.0616c 0.5809,-0.0000 1.0616,0.4807 1.0616 1.0616c 0.0000,0.5809 -0.4807,1.0616 -1.0616 1.0616c -0.5809,-0.0000 -1.0616,-0.4807 -1.0616 -1.0616ZM 379.1669,373.6712 ZM 382.9325,364.1171 c -0.3806,-0.0000 -1.2619,0.3605 -1.7025 0.5608l -0.2404,-0.6209 c 1.7626,-0.8212 2.4436,-1.2418 3.4451 -1.9629h 0.3806 v 10.0749 c 0.0000,0.7211 0.1001,0.9214 0.7611 0.9214h 1.0415 c 0.0601,-0.0000 0.1602,0.0401 0.1602 0.1602v 0.4407 l -2.7441,-0.0401 l -2.7841,0.0401 v -0.4407 c 0.0200,-0.0601 0.0401,-0.1602 0.1602 -0.1602h 1.2018 c 0.7611,-0.0000 0.7611,-0.3405 0.7611 -0.9214v -6.8902 c 0.0000,-0.6810 0.0000,-1.1617 -0.4407 -1.1617Z"/>
  </g>
  <g stroke-linejoin="miter" stroke-opacity="0.6" fill-opacity="0.0" stroke="rgb(0,0,0)" stroke-width="2.4201284830128267" fill="rgb(0,0,0)" stroke-linecap="butt" stroke-miterlimit="10.0">
    <path d="M 376.9737,342.1771 v 9.0584 "/>
  </g>
  <g stroke-linejoin="miter" stroke-opacity="1.0" fill-opacity="0.6" stroke="rgb(0,0,0)" fill-rule="evenodd" stroke-width="0.0" fill="rgb(0,0,0)" stroke-linecap="butt" stroke-miterlimit="10.0">
    <path d="M 320.7153,373.6712 ZM 325.1018,362.7951 c -0.8613,-0.0000 -2.1231,0.8412 -2.1231 5.5082c 0.0000,1.6424 0.3004,4.9473 2.0631 4.9473c 0.3405,-0.0000 1.3019,-0.2203 1.7226 -1.7826c 0.2604,-0.9614 0.4006,-2.1632 0.4006 -3.9058c 0.0000,-2.5438 -0.6409,-3.9659 -1.2218 -4.4666c -0.2203,-0.2003 -0.5208,-0.3004 -0.8412 -0.3004ZM 325.1018,362.7951 ZM 325.0217,373.9116 c -2.1432,-0.0000 -3.5853,-2.7441 -3.5853 -5.8086c 0.0000,-3.7456 1.7826,-6.0089 3.6654 -6.0089c 0.8613,-0.0000 1.7226,0.5408 2.3034 1.3220c 0.8412,1.1217 1.2819,2.6239 1.2819 4.5067c 0.0000,4.4466 -2.2033,5.9889 -3.6654 5.9889ZM 329.4883,373.6712 ZM 330.6300,372.8500 c 0.0000,-0.5809 0.4807,-1.0616 1.0616 -1.0616c 0.5809,-0.0000 1.0616,0.4807 1.0616 1.0616c 0.0000,0.5809 -0.4807,1.0616 -1.0616 1.0616c -0.5809,-0.0000 -1.0616,-0.4807 -1.0616 -1.0616ZM 333.8748,373.6712 ZM 338.2613,362.7951 c -0.8613,-0.0000 -2.1231,0.8412 -2.1231 5.5082c 0.0000,1.6424 0.3004,4.9473 2.0631 4.9473c 0.3405,-0.0000 1.3019,-0.2203 1.7226 -1.7826c 0.2604,-0.9614 0.4006,-2.1632 0.4006 -3.9058c 0.0000,-2.5438 -0.6409,-3.9659 -1.2218 -4.4666c -0.2203,-0.2003 -0.5208,-0.3004 -0.8412 -0.3004ZM 338.2613,362.7951 ZM 338.1812,373.9116 c -2.1432,-0.0000 -3.5853,-2.7441 -3.5853 -5.8086c 0.0000,-3.7456 1.7826,-6.0089 3.6654 -6.0089c 0.8613,-0.0000 1.7226,0.5408 2.3034 1.3220c 0.8412,1.1217 1.2819,2.6239 1.2819 4.5067c 0.0000,4.4466 -2.2033,5.9889 -3.6654 5.9889Z"/>
  </g>
  <g stroke-linejoin="miter" stroke-opacity="0.6" fill-opacity="0.0" stroke="rgb(0,0,0)" stroke-width="2.4201284830128267" fill="rgb(0,0,0)" stroke-linecap="butt" stroke-miterlimit="10.0">
    <path d="M 331.6816,342.1771 v 9.0584 "/>
  </g>
  <g stroke-linejoin="miter" stroke-opacity="1.0" fill-opacity="0.6" stroke="rgb(0,0,0)" fill-rule="evenodd" stroke-width="0.0" fill="rgb(0,0,0)" stroke-linecap="butt" stroke-miterlimit="10.0">
    <path d="M 272.0883,373.6712 ZM 277.5764,368.9442 h -4.5267 c -0.1803,-0.0000 -0.3004,-0.1602 -0.3004 -0.3405c 0.0000,-0.3205 0.2604,-0.7411 0.5007 -0.7411h 4.5868 c 0.2003,-0.0000 0.2804,0.1803 0.2804 0.3605c 0.0000,0.2203 -0.2804,0.7211 -0.5408 0.7211ZM 278.7581,373.6712 ZM 283.1446,362.7951 c -0.8613,-0.0000 -2.1231,0.8412 -2.1231 5.5082c 0.0000,1.6424 0.3004,4.9473 2.0631 4.9473c 0.3405,-0.0000 1.3019,-0.2203 1.7226 -1.7826c 0.2604,-0.9614 0.4006,-2.1632 0.4006 -3.9058c 0.0000,-2.5438 -0.6409,-3.9659 -1.2218 -4.4666c -0.2203,-0.2003 -0.5208,-0.3004 -0.8412 -0.3004ZM 283.1446,362.7951 ZM 283.0645,373.9116 c -2.1432,-0.0000 -3.5853,-2.7441 -3.5853 -5.8086c 0.0000,-3.7456 1.7826,-6.0089 3.6654 -6.0089c 0.8613,-0.0000 1.7226,0.5408 2.3034 1.3220c 0.8412,1.1217 1.2819,2.6239 1.2819 4.5067c 0.0000,4.4466 -2.2033,5.9889 -3.6654 5.9889ZM 287.5311,373.6712 ZM 288.6728,372.8500 c 0.0000,-0.5809 0.4807,-1.0616 1.0616 -1.0616c 0.5809,-0.0000 1.0616,0.4807 1.0616 1.0616c 0.0000,0.5809 -0.4807,1.0616 -1.0616 1.0616c -0.5809,-0.0000 -1.0616,-0.4807 -1.0616 -1.0616ZM 291.9176,373.6712 ZM 295.6832,364.1171 c -0.3806,-0.0000 -1.2619,0.3605 -1.7025 0.5608l -0.2404,-0.6209 c 1.7626,-0.8212 2.4436,-1.2418 3.4451 -1.9629h 0.3806 v 10.0749 c 0.0000,0.7211 0.1001,0.9214 0.7611 0.9214h 1.0415 c 0.0601,-0.0000 0.1602,0.0401 0.1602 0.1602v 0.4407 l -2.7441,-0.0401 l -2.7841,0.0401 v -0.4407 c 0.0200,-0.0601 0.0401,-0.1602 0.1602 -0.1602h 1.2018 c 0.7611,-0.0000 0.7611,-0.3405 0.7611 -0.9214v -6.8902 c 0.0000,-0.6810 0.0000,-1.1617 -0.4407 -1.1617Z"/>
  </g>
  <g stroke-linejoin="miter" stroke-opacity="0.6" fill-opacity="0.0" stroke="rgb(0,0,0)" stroke-width="2.4201284830128267" fill="rgb(0,0,0)" stroke-linecap="butt" stroke-miterlimit="10.0">
    <path d="M 286.3895,342.1771 v 9.0584 "/>
  </g>
  <g stroke-linejoin="miter" stroke-opacity="1.0" fill-opacity="0.6" stroke="rgb(0,0,0)" fill-rule="evenodd" stroke-width="0.0" fill="rgb(0,0,0)" stroke-linecap="butt" stroke-miterlimit="10.0">
    <path d="M 226.7961,373.6712 ZM 232.2843,368.9442 h -4.5267 c -0.1803,-0.0000 -0.3004,-0.1602 -0.3004 -0.3405c 0.0000,-0.3205 0.2604,-0.7411 0.5007 -0.7411h 4.5868 c 0.2003,-0.0000 0.2804,0.1803 0.2804 0.3605c 0.0000,0.2203 -0.2804,0.7211 -0.5408 0.7211ZM 233.4660,373.6712 ZM 237.8525,362.7951 c -0.8613,-0.0000 -2.1231,0.8412 -2.1231 5.5082c 0.0000,1.6424 0.3004,4.9473 2.0631 4.9473c 0.3405,-0.0000 1.3019,-0.2203 1.7226 -1.7826c 0.2604,-0.9614 0.4006,-2.1632 0.4006 -3.9058c 0.0000,-2.5438 -0.6409,-3.9659 -1.2218 -4.4666c -0.2203,-0.2003 -0.5208,-0.3004 -0.8412 -0.3004ZM 237.8525,362.7951 ZM 237.7724,373.9116 c -2.1432,-0.0000 -3.5853,-2.7441 -3.5853 -5.8086c 0.0000,-3.7456 1.7826,-6.0089 3.6654 -6.0089c 0.8613,-0.0000 1.7226,0.5408 2.3034 1.3220c 0.8412,1.1217 1.2819,2.6239 1.2819 4.5067c 0.0000,4.4466 -2.2033,5.9889 -3.6654 5.9889ZM 242.2390,373.6712 ZM 243.3807,372.8500 c 0.0000,-0.5809 0.4807,-1.0616 1.0616 -1.0616c 0.5809,-0.0000 1.0616,0.4807 1.0616 1.0616c 0.0000,0.5809 -0.4807,1.0616 -1.0616 1.0616c -0.5809,-0.0000 -1.0616,-0.4807 -1.0616 -1.0616ZM 246.6255,373.6712 ZM 247.7873,364.7981 c 0.0000,-1.1417 1.1016,-2.7040 3.2047 -2.7040c 1.5423,-0.0000 3.3450,0.5809 3.3450 2.8843c 0.0000,1.5223 -0.7812,2.2834 -1.8628 3.3249l -1.9028,1.8427 c -0.1001,0.1001 -1.4421,1.4221 -1.4421 2.3635h 3.4050 c 0.6810,-0.0000 1.0415,-0.3405 1.3220 -1.4421l 0.5007,0.0801 l -0.4006,2.5237 h -6.1892 c 0.0000,-1.1217 0.1803,-1.9829 2.0430 -3.8858l 1.4021,-1.3820 c 1.1217,-1.1417 1.5823,-2.1231 1.5823 -3.3450c 0.0000,-1.8227 -1.2418,-2.3435 -1.9228 -2.3435c -1.3820,-0.0000 -1.7626,0.7211 -1.7626 1.2018c 0.0000,0.1602 0.0401,0.3205 0.0801 0.4607c 0.0401,0.1402 0.0801,0.2804 0.0801 0.4407c 0.0000,0.5208 -0.4006,0.7211 -0.7211 0.7211c -0.4407,-0.0000 -0.7611,-0.3405 -0.7611 -0.7411Z"/>
  </g>
  <g stroke-linejoin="miter" stroke-opacity="0.6" fill-opacity="0.0" stroke="rgb(0,0,0)" stroke-width="2.4201284830128267" fill="rgb(0,0,0)" stroke-linecap="butt" stroke-miterlimit="10.0">
    <path d="M 241.0973,342.1771 v 9.0584 "/>
  </g>
  <g stroke-linejoin="miter" stroke-opacity="1.0" fill-opacity="0.6" stroke="rgb(0,0,0)" fill-rule="evenodd" stroke-width="0.0" fill="rgb(0,0,0)" stroke-linecap="butt" stroke-miterlimit="10.0">
    <path d="M 181.5040,373.6712 ZM 186.9922,368.9442 h -4.5267 c -0.1803,-0.0000 -0.3004,-0.1602 -0.3004 -0.3405c 0.0000,-0.3205 0.2604,-0.7411 0.5007 -0.7411h 4.5868 c 0.2003,-0.0000 0.2804,0.1803 0.2804 0.3605c 0.0000,0.2203 -0.2804,0.7211 -0.5408 0.7211ZM 188.1739,373.6712 ZM 192.5604,362.7951 c -0.8613,-0.0000 -2.1231,0.8412 -2.1231 5.5082c 0.0000,1.6424 0.3004,4.9473 2.0631 4.9473c 0.3405,-0.0000 1.3019,-0.2203 1.7226 -1.7826c 0.2604,-0.9614 0.4006,-2.1632 0.4006 -3.9058c 0.0000,-2.5438 -0.6409,-3.9659 -1.2218 -4.4666c -0.2203,-0.2003 -0.5208,-0.3004 -0.8412 -0.3004ZM 192.5604,362.7951 ZM 192.4803,373.9116 c -2.1432,-0.0000 -3.5853,-2.7441 -3.5853 -5.8086c 0.0000,-3.7456 1.7826,-6.0089 3.6654 -6.0089c 0.8613,-0.0000 1.7226,0.5408 2.3034 1.3220c 0.8412,1.1217 1.2819,2.6239 1.2819 4.5067c 0.0000,4.4466 -2.2033,5.9889 -3.6654 5.9889ZM 196.9469,373.6712 ZM 198.0886,372.8500 c 0.0000,-0.5809 0.4807,-1.0616 1.0616 -1.0616c 0.5809,-0.0000 1.0616,0.4807 1.0616 1.0616c 0.0000,0.5809 -0.4807,1.0616 -1.0616 1.0616c -0.5809,-0.0000 -1.0616,-0.4807 -1.0616 -1.0616ZM 201.3334,373.6712 ZM 205.6598,362.7150 c -0.5007,-0.0000 -1.9629,0.2804 -1.9629 1.5022c 0.0000,0.3605 -0.1402,0.9815 -0.6810 0.9815c -0.5208,-0.0000 -0.5608,-0.5809 -0.5608 -0.6409c 0.0000,-0.6209 0.8212,-2.4637 3.6053 -2.4637c 1.9429,-0.0000 2.5237,1.2218 2.5237 2.0230c 0.0000,0.5007 -0.1602,1.5022 -1.9629 2.6439c 1.1217,0.1803 2.6039,1.0015 2.6039 3.0846c 0.0000,2.6439 -2.0030,4.0660 -4.2663 4.0660c -1.1417,-0.0000 -2.7441,-0.5007 -2.7441 -1.2619c 0.0000,-0.3004 0.3004,-0.6409 0.7010 -0.6409c 0.3806,-0.0000 0.5608,0.2003 0.7411 0.4607c 0.2203,0.3405 0.5809,0.8212 1.5423 0.8212c 0.6610,-0.0000 2.5438,-0.6610 2.5438 -3.1847c 0.0000,-2.1432 -1.5022,-2.4837 -2.5838 -2.4837c -0.1803,-0.0000 -0.4006,0.0401 -0.6209 0.0801l -0.0801,-0.6009 c 1.5423,-0.2604 2.8242,-1.7626 2.8242 -2.6840c 0.0000,-1.1417 -0.8012,-1.7025 -1.6224 -1.7025Z"/>
  </g>
  <g stroke-linejoin="miter" stroke-opacity="0.6" fill-opacity="0.0" stroke="rgb(0,0,0)" stroke-width="2.4201284830128267" fill="rgb(0,0,0)" stroke-linecap="butt" stroke-miterlimit="10.0">
    <path d="M 195.8052,342.1771 v 9.0584 "/>
  </g>
  <g stroke-linejoin="miter" stroke-opacity="1.0" fill-opacity="0.6" stroke="rgb(0,0,0)" fill-rule="evenodd" stroke-width="0.0" fill="rgb(0,0,0)" stroke-linecap="butt" stroke-miterlimit="10.0">
    <path d="M 136.2119,373.6712 ZM 141.7000,368.9442 h -4.5267 c -0.1803,-0.0000 -0.3004,-0.1602 -0.3004 -0.3405c 0.0000,-0.3205 0.2604,-0.7411 0.5007 -0.7411h 4.5868 c 0.2003,-0.0000 0.2804,0.1803 0.2804 0.3605c 0.0000,0.2203 -0.2804,0.7211 -0.5408 0.7211ZM 142.8818,373.6712 ZM 147.2683,362.7951 c -0.8613,-0.0000 -2.1231,0.8412 -2.1231 5.5082c 0.0000,1.6424 0.3004,4.9473 2.0631 4.9473c 0.3405,-0.0000 1.3019,-0.2203 1.7226 -1.7826c 0.2604,-0.9614 0.4006,-2.1632 0.4006 -3.9058c 0.0000,-2.5438 -0.6409,-3.9659 -1.2218 -4.4666c -0.2203,-0.2003 -0.5208,-0.3004 -0.8412 -0.3004ZM 147.2683,362.7951 ZM 147.1882,373.9116 c -2.1432,-0.0000 -3.5853,-2.7441 -3.5853 -5.8086c 0.0000,-3.7456 1.7826,-6.0089 3.6654 -6.0089c 0.8613,-0.0000 1.7226,0.5408 2.3034 1.3220c 0.8412,1.1217 1.2819,2.6239 1.2819 4.5067c 0.0000,4.4466 -2.2033,5.9889 -3.6654 5.9889ZM 151.6548,373.6712 ZM 152.7965,372.8500 c 0.0000,-0.5809 0.4807,-1.0616 1.0616 -1.0616c 0.5809,-0.0000 1.0616,0.4807 1.0616 1.0616c 0.0000,0.5809 -0.4807,1.0616 -1.0616 1.0616c -0.5809,-0.0000 -1.0616,-0.4807 -1.0616 -1.0616ZM 156.0413,373.6712 ZM 161.2090,366.5607 c 0.0000,-0.1402 0.0200,-0.3004 0.2003 -0.4006c 0.2203,-0.1602 0.5809,-0.3405 0.8813 -0.3405c 0.2604,-0.0000 0.2804,0.2203 0.2804 0.6209v 3.2248 h 1.6224 l -0.1202,0.9414 h -1.5022 v 1.6625 c 0.0000,0.5608 0.0801,0.8412 0.6610 0.8412h 0.5408 c 0.1202,-0.0000 0.1402,0.1001 0.1402 0.1402v 0.4407 c 0.0000,-0.0000 -1.2819,-0.0401 -2.1231 -0.0401c -0.7611,-0.0000 -1.9429,0.0401 -1.9429 0.0401v -0.4407 c 0.0000,-0.0401 0.0200,-0.1402 0.1402 -0.1402h 0.5408 c 0.6209,-0.0000 0.6810,-0.2604 0.6810 -0.8412v -1.6625 h -3.9258 c -0.0801,-0.0000 -0.1202,-0.0401 -0.1803 -0.1202l -0.1602,-0.2203 l -0.2404,-0.4206 c -0.0200,-0.0000 -0.0200,-0.0200 -0.0200 -0.0401c 0.0000,-0.0200 0.0200,-0.0401 0.0401 -0.0601c 1.3019,-1.4421 3.6053,-5.9088 4.3264 -7.5512c 0.0200,-0.0801 0.0601,-0.1001 0.1402 -0.1001c 0.0200,-0.0000 0.4607,0.1803 0.7010 0.2203c -0.9013,2.4236 -2.3835,5.0275 -3.8457 7.3509h 3.1647 v -3.1046 Z"/>
  </g>
  <g stroke-linejoin="miter" stroke-opacity="0.6" fill-opacity="0.0" stroke="rgb(0,0,0)" stroke-width="2.4201284830128267" fill="rgb(0,0,0)" stroke-linecap="butt" stroke-miterlimit="10.0">
    <path d="M 150.5131,342.1771 v 9.0584 "/>
  </g>
  <g stroke-linejoin="miter" stroke-opacity="1.0" fill-opacity="0.6" stroke="rgb(0,0,0)" fill-rule="evenodd" stroke-width="0.0" fill="rgb(0,0,0)" stroke-linecap="butt" stroke-miterlimit="10.0">
    <path d="M 90.9198,373.6712 ZM 96.4079,368.9442 h -4.5267 c -0.1803,-0.0000 -0.3004,-0.1602 -0.3004 -0.3405c 0.0000,-0.3205 0.2604,-0.7411 0.5007 -0.7411h 4.5868 c 0.2003,-0.0000 0.2804,0.1803 0.2804 0.3605c 0.0000,0.2203 -0.2804,0.7211 -0.5408 0.7211ZM 97.5897,373.6712 ZM 101.9762,362.7951 c -0.8613,-0.0000 -2.1231,0.8412 -2.1231 5.5082c 0.0000,1.6424 0.3004,4.9473 2.0631 4.9473c 0.3405,-0.0000 1.3019,-0.2203 1.7226 -1.7826c 0.2604,-0.9614 0.4006,-2.1632 0.4006 -3.9058c 0.0000,-2.5438 -0.6409,-3.9659 -1.2218 -4.4666c -0.2203,-0.2003 -0.5208,-0.3004 -0.8412 -0.3004ZM 101.9762,362.7951 ZM 101.8961,373.9116 c -2.1432,-0.0000 -3.5853,-2.7441 -3.5853 -5.8086c 0.0000,-3.7456 1.7826,-6.0089 3.6654 -6.0089c 0.8613,-0.0000 1.7226,0.5408 2.3034 1.3220c 0.8412,1.1217 1.2819,2.6239 1.2819 4.5067c 0.0000,4.4466 -2.2033,5.9889 -3.6654 5.9889ZM 106.3627,373.6712 ZM 107.5044,372.8500 c 0.0000,-0.5809 0.4807,-1.0616 1.0616 -1.0616c 0.5809,-0.0000 1.0616,0.4807 1.0616 1.0616c 0.0000,0.5809 -0.4807,1.0616 -1.0616 1.0616c -0.5809,-0.0000 -1.0616,-0.4807 -1.0616 -1.0616ZM 110.7492,373.6712 ZM 116.9384,370.2862 c 0.0000,-2.0631 -1.1217,-3.0846 -2.3635 -3.0846c -0.9214,-0.0000 -1.6224,0.1402 -2.4036 0.4607l 0.6409,-5.4681 c 0.6610,0.0601 1.3420,0.0801 2.0430 0.0801c 1.0015,-0.0000 2.0430,-0.0601 3.1246 -0.1803l 0.1202,0.0601 l -0.3004,1.3019 c -0.7812,0.0801 -1.4221,0.1001 -1.9829 0.1001c -0.9013,-0.0000 -1.5823,-0.0801 -2.2834 -0.1602l -0.3806,3.1647 c 0.4206,-0.1602 1.1417,-0.3004 1.9228 -0.3004c 2.1231,-0.0000 3.3049,1.8427 3.3049 3.6855c 0.0000,2.2433 -1.5623,3.9659 -3.8257 3.9659c -1.1417,-0.0000 -2.8042,-0.6409 -2.8042 -1.4221c 0.0000,-0.3806 0.3205,-0.6409 0.6810 -0.6409c 0.4006,-0.0000 0.6610,0.3004 0.9013 0.6209c 0.3004,0.3605 0.6209,0.7611 1.2619 0.7611c 1.2819,-0.0000 2.3435,-1.2018 2.3435 -2.9444Z"/>
  </g>
  <g stroke-linejoin="miter" stroke-opacity="0.6" fill-opacity="0.0" stroke="rgb(0,0,0)" stroke-width="2.4201284830128267" fill="rgb(0,0,0)" stroke-linecap="butt" stroke-miterlimit="10.0">
    <path d="M 105.2210,342.1771 v 9.0584 "/>
  </g>
  <g stroke-linejoin="miter" stroke-opacity="0.0" fill-opacity="0.0" stroke="rgb(0,0,0)" stroke-width="0.0" fill="rgb(0,0,0)" stroke-linecap="butt" stroke-miterlimit="10.0">
    <path d="M 558.1422,330.0992 l -0.0000,-301.9474 h -452.9212 l -0.0000,301.9474 Z"/>
  </g>
</svg>