<?xml version="1.0" encoding="UTF-8"?>
<!DOCTYPE svg PUBLIC "-//W3C//DTD SVG 1.1//EN"
    "http://www.w3.org/Graphics/SVG/1.1/DTD/svg11.dtd"><svg xmlns="http://www.w3.org/2000/svg" height="400.0000" stroke-opacity="1" viewBox="0 0 600 400" font-size="1" width="600.0000" xmlns:xlink="http://www.w3.org/1999/xlink" stroke="rgb(0,0,0)" version="1.1"><defs></defs><g stroke-linejoin="miter" stroke-opacity="1.0" fill-opacity="0.33" stroke="rgb(0,0,0)" fill-rule="evenodd" stroke-width="0.0" fill="rgb(0,0,0)" stroke-linecap="butt" stroke-miterlimit="10.0"><path d="M 105.0287,268.8059 ZM 109.1269,260.7277 c 0.0000,0.0985 -0.1182,0.1576 -0.2167 0.1576c -0.5911,-0.0000 -0.8472,0.1182 -0.8472 0.4335c 0.0000,0.1182 0.0394,0.2758 0.1182 0.4532l 2.1673,5.0834 l 2.1870,-5.0046 c 0.0985,-0.1773 0.1379,-0.3350 0.1379 -0.4532c 0.0000,-0.4138 -0.3941,-0.5123 -0.8275 -0.5123h -0.0788 c -0.0985,-0.0000 -0.1970,-0.0788 -0.1970 -0.1379v -0.3744 l 0.0394,-0.0591 c 0.0000,-0.0000 1.1625,0.0394 1.8521 0.0394c 0.5517,-0.0000 1.3595,-0.0394 1.3595 -0.0394l 0.0591,0.0394 v 0.3744 c 0.0000,0.0985 -0.0788,0.1576 -0.2167 0.1576c -0.7487,-0.0000 -1.1231,0.7684 -1.3989 1.3398c -1.0443,2.2067 -1.9112,4.2362 -3.4874 8.0388c -0.5911,1.4186 -1.3004,3.0737 -2.6993 3.0737c -0.3744,-0.0000 -1.1428,-0.2167 -1.1428 -0.9260c 0.0000,-0.5911 0.4335,-0.7684 0.7487 -0.7684c 0.2955,-0.0000 0.4926,0.1182 0.6108 0.2758c 0.1970,0.1970 0.3350,0.3350 0.5320 0.3350c 0.2955,-0.0000 0.9852,-1.6945 1.4777 -2.8963c 0.1182,-0.2364 0.1576,-0.4335 0.1576 -0.6108c 0.0000,-0.1970 -0.1773,-0.7290 -0.3350 -1.1231l -2.4826,-5.7730 c -0.3152,-0.7487 -0.5320,-0.9654 -1.2019 -0.9654c -0.1182,-0.0000 -0.1970,-0.0591 -0.1970 -0.1379v -0.3941 l 0.0394,-0.0394 c 0.0000,-0.0000 0.8669,0.0394 1.4580 0.0394c 0.9260,-0.0000 2.3447,-0.0394 2.3447 -0.0394l 0.0394,0.0591 v 0.3547 ZM 119.9833,268.8059 ZM 129.0664,262.5404 v 0.9654 h -7.7827 v -0.9654 h 7.7827 ZM 129.0664,262.5404 ZM 129.0664,265.0032 v 0.9654 h -7.7827 v -0.9654 h 7.7827 ZM 135.2926,268.8059 ZM 140.6912,264.1560 h -4.4529 c -0.1773,-0.0000 -0.2955,-0.1576 -0.2955 -0.3350c 0.0000,-0.3152 0.2561,-0.7290 0.4926 -0.7290h 4.5120 c 0.1970,-0.0000 0.2758,0.1773 0.2758 0.3547c 0.0000,0.2167 -0.2758,0.7093 -0.5320 0.7093ZM 141.8537,268.8059 ZM 145.5578,259.4076 c -0.3744,-0.0000 -1.2413,0.3547 -1.6748 0.5517l -0.2364,-0.6108 c 1.7339,-0.8078 2.4038,-1.2216 3.3889 -1.9309h 0.3744 v 9.9106 c 0.0000,0.7093 0.0985,0.9063 0.7487 0.9063h 1.0246 c 0.0591,-0.0000 0.1576,0.0394 0.1576 0.1576v 0.4335 l -2.6993,-0.0394 l -2.7387,0.0394 v -0.4335 c 0.0197,-0.0591 0.0394,-0.1576 0.1576 -0.1576h 1.1822 c 0.7487,-0.0000 0.7487,-0.3350 0.7487 -0.9063v -6.7778 c 0.0000,-0.6699 0.0000,-1.1428 -0.4335 -1.1428ZM 150.4836,268.8059 ZM 151.6067,267.9981 c 0.0000,-0.5714 0.4729,-1.0443 1.0443 -1.0443c 0.5714,-0.0000 1.0443,0.4729 1.0443 1.0443c 0.0000,0.5714 -0.4729,1.0443 -1.0443 1.0443c -0.5714,-0.0000 -1.0443,-0.4729 -1.0443 -1.0443ZM 154.7985,268.8059 ZM 157.7540,258.7968 c -0.8669,-0.0000 -1.1625,0.3547 -1.5368 1.3595l -0.5123,-0.0788 c 0.2364,-0.8078 0.4335,-1.5565 0.4926 -2.6599h 0.4138 c 0.0788,0.1182 0.1379,0.2167 0.5911 0.2167h 3.7436 c 0.7093,-0.0000 1.1231,-0.0197 1.4383 -0.1182l 0.2955,0.1379 c -2.0885,5.0834 -3.1919,8.1571 -4.2559 11.3292l -1.2807,0.0591 l -0.0591,-0.1182 c 1.2610,-2.8372 2.7584,-6.5020 4.2164 -10.1274h -3.5465 ZM 163.4285,268.8059 ZM 169.7137,262.8162 c 0.0000,-0.1970 0.0197,-0.4926 0.0197 -0.6896c 0.0000,-3.3101 -1.4777,-4.1376 -2.4826 -4.1376c -0.9063,-0.0000 -1.8521,0.8472 -1.8521 2.8963c 0.0000,0.9457 0.4729,2.8175 2.3447 2.8175c 0.4138,-0.0000 1.1625,-0.0394 1.9703 -0.8866ZM 169.7137,262.8162 ZM 164.5318,268.5301 c 1.3004,-0.1182 2.3841,-0.4532 3.3495 -1.3792c 0.8866,-0.8866 1.5368,-2.2067 1.7733 -3.7830c -0.4532,0.5517 -1.5565,0.9654 -2.2856 0.9654c -2.9160,-0.0000 -3.3101,-2.4038 -3.3101 -3.3101c 0.0000,-1.3398 0.6699,-3.6057 3.3889 -3.6057c 1.4580,-0.0000 3.6451,0.8472 3.6451 4.7681c 0.0000,1.8127 -0.6305,3.5860 -1.9703 4.9455c -1.2610,1.2807 -2.6008,1.8127 -4.5317 1.9112Z"/></g><g stroke-linejoin="miter" stroke-opacity="1.0" fill-opacity="0.33" stroke="rgb(0,0,0)" fill-rule="evenodd" stroke-width="0.0" fill="rgb(0,0,0)" stroke-linecap="butt" stroke-miterlimit="10.0"><path d="M 265.5394,393.8527 ZM 269.4209,385.9320 c -0.3941,-0.0000 -0.4729,0.0985 -0.4729 0.2364c 0.0000,0.0985 0.0788,0.2758 0.2955 0.6305l 1.2019,1.7733 c 0.0591,0.1182 0.1182,0.1773 0.1970 0.1773c 0.0591,-0.0000 0.0985,-0.0394 0.1773 -0.1379l 1.2807,-1.7930 c 0.2167,-0.2758 0.3350,-0.4926 0.3350 -0.6502c 0.0000,-0.1576 -0.1379,-0.2364 -0.4138 -0.2364h -0.3152 c -0.0591,-0.0000 -0.1182,-0.0394 -0.1182 -0.1379v -0.3744 l 0.0591,-0.0591 c 0.0000,-0.0000 0.9260,0.0394 1.5368 0.0394c 0.6305,-0.0000 1.5959,-0.0394 1.5959 -0.0394l 0.0197,0.0394 v 0.3744 c 0.0000,0.1379 -0.1182,0.1576 -0.2364 0.1576c -0.7290,-0.0000 -1.0246,0.2364 -1.7536 1.1625l -1.6551,2.1082 c -0.0394,0.0591 -0.0591,0.0985 -0.0591 0.1379c 0.0000,0.0394 0.0197,0.0985 0.0591 0.1576l 1.7733,2.5023 c 0.9063,1.2807 1.1625,1.3004 1.7930 1.3004c 0.1970,-0.0000 0.2758,0.0394 0.2758 0.1576v 0.3744 l -0.0197,0.0394 c 0.0000,-0.0000 -1.0640,-0.0394 -1.7339 -0.0394c -0.8078,-0.0000 -2.0491,0.0394 -2.0491 0.0394l -0.0394,-0.0394 v -0.3744 c 0.0000,-0.0985 0.0394,-0.1576 0.1379 -0.1576h 0.2364 c 0.3152,-0.0000 0.4532,-0.0591 0.4532 -0.2167c 0.0000,-0.1773 -0.2167,-0.4729 -0.5320 -0.8866l -1.1428,-1.5762 c -0.0788,-0.0985 -0.1182,-0.1379 -0.1773 -0.1379c -0.0394,-0.0000 -0.0985,0.0591 -0.1773 0.1773l -1.2413,1.7930 c -0.2955,0.3941 -0.3547,0.4926 -0.3547 0.6305c 0.0000,0.1379 0.1182,0.2167 0.4138 0.2167h 0.2758 c 0.0985,-0.0000 0.1379,0.0591 0.1379 0.1576v 0.3744 l -0.0394,0.0394 c 0.0000,-0.0000 -1.0246,-0.0394 -1.6551 -0.0394c -0.5714,-0.0000 -1.4777,0.0394 -1.4777 0.0394l -0.0394,-0.0394 v -0.3350 c 0.0000,-0.1182 0.0788,-0.1970 0.2561 -0.1970c 0.4729,-0.0000 0.9260,-0.0985 1.7536 -1.1625l 1.6551,-2.1279 c 0.0197,-0.0394 0.0394,-0.0788 0.0394 -0.1379c 0.0000,-0.0591 -0.0197,-0.0985 -0.0591 -0.1576l -1.7142,-2.5023 c -0.5517,-0.8078 -0.9063,-1.2807 -1.5959 -1.2807c -0.1379,-0.0000 -0.2758,-0.0591 -0.2758 -0.1379v -0.3744 l 0.0394,-0.0591 l 1.5565,0.0394 l 2.1870,-0.0394 l 0.0591,0.0591 v 0.3547 c 0.0000,0.0985 -0.0788,0.1576 -0.1576 0.1576h -0.2955 ZM 280.2576,393.8527 ZM 289.3407,387.5871 v 0.9654 h -7.7827 v -0.9654 h 7.7827 ZM 289.3407,387.5871 ZM 289.3407,390.0500 v 0.9654 h -7.7827 v -0.9654 h 7.7827 ZM 295.5668,393.8527 ZM 300.9654,389.2027 h -4.4529 c -0.1773,-0.0000 -0.2955,-0.1576 -0.2955 -0.3350c 0.0000,-0.3152 0.2561,-0.7290 0.4926 -0.7290h 4.5120 c 0.1970,-0.0000 0.2758,0.1773 0.2758 0.3547c 0.0000,0.2167 -0.2758,0.7093 -0.5320 0.7093ZM 302.1279,393.8527 ZM 305.8321,384.4543 c -0.3744,-0.0000 -1.2413,0.3547 -1.6748 0.5517l -0.2364,-0.6108 c 1.7339,-0.8078 2.4038,-1.2216 3.3889 -1.9309h 0.3744 v 9.9106 c 0.0000,0.7093 0.0985,0.9063 0.7487 0.9063h 1.0246 c 0.0591,-0.0000 0.1576,0.0394 0.1576 0.1576v 0.4335 l -2.6993,-0.0394 l -2.7387,0.0394 v -0.4335 c 0.0197,-0.0591 0.0394,-0.1576 0.1576 -0.1576h 1.1822 c 0.7487,-0.0000 0.7487,-0.3350 0.7487 -0.9063v -6.7778 c 0.0000,-0.6699 0.0000,-1.1428 -0.4335 -1.1428ZM 310.7579,393.8527 ZM 311.8809,393.0448 c 0.0000,-0.5714 0.4729,-1.0443 1.0443 -1.0443c 0.5714,-0.0000 1.0443,0.4729 1.0443 1.0443c 0.0000,0.5714 -0.4729,1.0443 -1.0443 1.0443c -0.5714,-0.0000 -1.0443,-0.4729 -1.0443 -1.0443ZM 315.0728,393.8527 ZM 318.7770,384.4543 c -0.3744,-0.0000 -1.2413,0.3547 -1.6748 0.5517l -0.2364,-0.6108 c 1.7339,-0.8078 2.4038,-1.2216 3.3889 -1.9309h 0.3744 v 9.9106 c 0.0000,0.7093 0.0985,0.9063 0.7487 0.9063h 1.0246 c 0.0591,-0.0000 0.1576,0.0394 0.1576 0.1576v 0.4335 l -2.6993,-0.0394 l -2.7387,0.0394 v -0.4335 c 0.0197,-0.0591 0.0394,-0.1576 0.1576 -0.1576h 1.1822 c 0.7487,-0.0000 0.7487,-0.3350 0.7487 -0.9063v -6.7778 c 0.0000,-0.6699 0.0000,-1.1428 -0.4335 -1.1428ZM 323.7027,393.8527 ZM 328.0177,383.1539 c -0.8472,-0.0000 -2.0885,0.8275 -2.0885 5.4183c 0.0000,1.6156 0.2955,4.8666 2.0294 4.8666c 0.3350,-0.0000 1.2807,-0.2167 1.6945 -1.7536c 0.2561,-0.9457 0.3941,-2.1279 0.3941 -3.8421c 0.0000,-2.5023 -0.6305,-3.9012 -1.2019 -4.3938c -0.2167,-0.1970 -0.5123,-0.2955 -0.8275 -0.2955ZM 328.0177,383.1539 ZM 327.9389,394.0891 c -2.1082,-0.0000 -3.5268,-2.6993 -3.5268 -5.7139c 0.0000,-3.6845 1.7536,-5.9109 3.6057 -5.9109c 0.8472,-0.0000 1.6945,0.5320 2.2658 1.3004c 0.8275,1.1034 1.2610,2.5811 1.2610 4.4332c 0.0000,4.3741 -2.1673,5.8912 -3.6057 5.8912Z"/></g><g stroke-linejoin="miter" stroke-opacity="1.0" fill-opacity="0.5" stroke="rgb(102,102,102)" stroke-width="5.924089223474188" fill="rgb(255,0,0)" stroke-linecap="butt" stroke-miterlimit="10.0"><path d="M 307.8467,268.8059 c 0.0000,-4.9212 -3.9895,-8.9107 -8.9107 -8.9107c -4.9212,-0.0000 -8.9107,3.9895 -8.9107 8.9107c -0.0000,4.9212 3.9895,8.9107 8.9107 8.9107c 4.9212,0.0000 8.9107,-3.9895 8.9107 -8.9107Z"/></g><g stroke-linejoin="miter" stroke-opacity="1.0" fill-opacity="0.0" stroke="rgb(204,204,204)" stroke-width="1.9746964078247293" fill="rgb(0,0,0)" stroke-linecap="butt" stroke-miterlimit="10.0"><path d="M 298.9360,364.1503 v -95.3444 "/></g><g stroke-linejoin="miter" stroke-opacity="1.0" fill-opacity="0.0" stroke="rgb(204,204,204)" stroke-width="1.9746964078247293" fill="rgb(0,0,0)" stroke-linecap="butt" stroke-miterlimit="10.0"><path d="M 183.0970,268.8059 h 115.8390 "/></g><g stroke-linejoin="miter" stroke-opacity="0.6" fill-opacity="0.0" stroke="rgb(153,153,153)" stroke-width="3.9493928156494587" fill="rgb(0,0,0)" stroke-linecap="butt" stroke-miterlimit="10.0"><path d="M 242.5016,37.4249 l 3.5643,20.9580 l 3.5643,20.1025 l 3.5643,19.2471 l 3.5643,18.3917 l 3.5643,17.5362 l 3.5643,16.6808 l 3.5643,15.8254 l 3.5643,14.9700 l 3.5643,14.1145 l 3.5643,13.2591 l 3.5643,12.4037 l 3.5643,11.5483 l 3.5643,10.6928 l 3.5643,9.8374 l 3.5643,8.9820 l 3.5643,8.1266 l 3.5643,7.2711 l 3.5643,6.4157 l 3.5643,5.5603 l 3.5643,4.7048 l 3.5643,3.8494 l 3.5643,2.9940 l 3.5643,2.1386 l 3.5643,1.2831 l 3.5643,0.4277 l 3.5643,-0.4277 l 3.5643,-1.2831 l 3.5643,-2.1386 l 3.5643,-2.9940 l 3.5643,-3.8494 l 3.5643,-4.7048 l 3.5643,-5.5603 l 3.5643,-6.4157 l 3.5643,-7.2711 l 3.5643,-8.1266 l 3.5643,-8.9820 l 3.5643,-9.8374 l 3.5643,-10.6928 l 3.5643,-11.5483 l 3.5643,-12.4037 l 3.5643,-13.2591 l 3.5643,-14.1145 l 3.5643,-14.9700 l 3.5643,-15.8254 l 3.5643,-16.6808 l 3.5643,-17.5362 l 3.5643,-18.3917 l 3.5643,-19.2471 l 3.5643,-20.1025 l 3.5643,-20.9580 "/></g><g stroke-linejoin="miter" stroke-opacity="1.0" fill-opacity="0.6" stroke="rgb(0,0,0)" fill-rule="evenodd" stroke-width="0.0" fill="rgb(0,0,0)" stroke-linecap="butt" stroke-miterlimit="10.0"><path d="M 268.6574,46.0253 ZM 274.8048,33.9079 c 0.0000,0.1478 -0.1773,0.2364 -0.3251 0.2364c -0.8866,-0.0000 -1.2708,0.1773 -1.2708 0.6502c 0.0000,0.1773 0.0591,0.4138 0.1773 0.6798l 3.2510,7.6251 l 3.2806,-7.5069 c 0.1478,-0.2660 0.2069,-0.5024 0.2069 -0.6798c 0.0000,-0.6206 -0.5911,-0.7684 -1.2413 -0.7684h -0.1182 c -0.1478,-0.0000 -0.2955,-0.1182 -0.2955 -0.2069v -0.5615 l 0.0591,-0.0887 c 0.0000,-0.0000 1.7437,0.0591 2.7781 0.0591c 0.8275,-0.0000 2.0393,-0.0591 2.0393 -0.0591l 0.0887,0.0591 v 0.5615 c 0.0000,0.1478 -0.1182,0.2364 -0.3251 0.2364c -1.1231,-0.0000 -1.6846,1.1526 -2.0984 2.0097c -1.5664,3.3101 -2.8668,6.3542 -5.2312 12.0583c -0.8866,2.1279 -1.9506,4.6105 -4.0490 4.6105c -0.5615,-0.0000 -1.7142,-0.3251 -1.7142 -1.3891c 0.0000,-0.8866 0.6502,-1.1526 1.1231 -1.1526c 0.4433,-0.0000 0.7389,0.1773 0.9162 0.4138c 0.2955,0.2955 0.5024,0.5024 0.7980 0.5024c 0.4433,-0.0000 1.4777,-2.5417 2.2166 -4.3445c 0.1773,-0.3547 0.2364,-0.6502 0.2364 -0.9162c 0.0000,-0.2955 -0.2660,-1.0935 -0.5024 -1.6846l -3.7239,-8.6595 c -0.4729,-1.1231 -0.7980,-1.4482 -1.8028 -1.4482c -0.1773,-0.0000 -0.2955,-0.0887 -0.2955 -0.2069v -0.5911 l 0.0591,-0.0591 c 0.0000,-0.0000 1.3004,0.0591 2.1870 0.0591c 1.3891,-0.0000 3.5170,-0.0591 3.5170 -0.0591l 0.0591,0.0887 v 0.5320 ZM 291.0893,46.0253 ZM 304.7139,36.6269 v 1.4482 h -11.6740 v -1.4482 h 11.6740 ZM 304.7139,36.6269 ZM 304.7139,40.3213 v 1.4482 h -11.6740 v -1.4482 h 11.6740 ZM 314.0532,46.0253 ZM 319.8754,34.1444 c -0.5911,-0.0000 -0.7093,0.1478 -0.7093 0.3547c 0.0000,0.1478 0.1182,0.4138 0.4433 0.9457l 1.8028,2.6599 c 0.0887,0.1773 0.1773,0.2660 0.2955 0.2660c 0.0887,-0.0000 0.1478,-0.0591 0.2660 -0.2069l 1.9210,-2.6895 c 0.3251,-0.4138 0.5024,-0.7389 0.5024 -0.9753c 0.0000,-0.2364 -0.2069,-0.3547 -0.6206 -0.3547h -0.4729 c -0.0887,-0.0000 -0.1773,-0.0591 -0.1773 -0.2069v -0.5615 l 0.0887,-0.0887 c 0.0000,-0.0000 1.3891,0.0591 2.3053 0.0591c 0.9457,-0.0000 2.3939,-0.0591 2.3939 -0.0591l 0.0296,0.0591 v 0.5615 c 0.0000,0.2069 -0.1773,0.2364 -0.3547 0.2364c -1.0935,-0.0000 -1.5368,0.3547 -2.6304 1.7437l -2.4826,3.1623 c -0.0591,0.0887 -0.0887,0.1478 -0.0887 0.2069c 0.0000,0.0591 0.0296,0.1478 0.0887 0.2364l 2.6599,3.7534 c 1.3595,1.9210 1.7437,1.9506 2.6895 1.9506c 0.2955,-0.0000 0.4138,0.0591 0.4138 0.2364v 0.5615 l -0.0296,0.0591 c 0.0000,-0.0000 -1.5959,-0.0591 -2.6008 -0.0591c -1.2117,-0.0000 -3.0737,0.0591 -3.0737 0.0591l -0.0591,-0.0591 v -0.5615 c 0.0000,-0.1478 0.0591,-0.2364 0.2069 -0.2364h 0.3547 c 0.4729,-0.0000 0.6798,-0.0887 0.6798 -0.3251c 0.0000,-0.2660 -0.3251,-0.7093 -0.7980 -1.3300l -1.7142,-2.3644 c -0.1182,-0.1478 -0.1773,-0.2069 -0.2660 -0.2069c -0.0591,-0.0000 -0.1478,0.0887 -0.2660 0.2660l -1.8619,2.6895 c -0.4433,0.5911 -0.5320,0.7389 -0.5320 0.9457c 0.0000,0.2069 0.1773,0.3251 0.6206 0.3251h 0.4138 c 0.1478,-0.0000 0.2069,0.0887 0.2069 0.2364v 0.5615 l -0.0591,0.0591 c 0.0000,-0.0000 -1.5368,-0.0591 -2.4826 -0.0591c -0.8571,-0.0000 -2.2166,0.0591 -2.2166 0.0591l -0.0591,-0.0591 v -0.5024 c 0.0000,-0.1773 0.1182,-0.2955 0.3842 -0.2955c 0.7093,-0.0000 1.3891,-0.1478 2.6304 -1.7437l 2.4826,-3.1919 c 0.0296,-0.0591 0.0591,-0.1182 0.0591 -0.2069c 0.0000,-0.0887 -0.0296,-0.1478 -0.0887 -0.2364l -2.5712,-3.7534 c -0.8275,-1.2117 -1.3595,-1.9210 -2.3939 -1.9210c -0.2069,-0.0000 -0.4138,-0.0887 -0.4138 -0.2069v -0.5615 l 0.0591,-0.0887 l 2.3348,0.0591 l 3.2806,-0.0591 l 0.0887,0.0887 v 0.5320 c 0.0000,0.1478 -0.1182,0.2364 -0.2364 0.2364h -0.4433 ZM 328.7418,46.0253 ZM 336.3964,28.4994 l -3.0441,7.2704 h -1.3004 l 3.7239,-8.9550 h 1.2413 l 3.7239,8.9550 h -1.3004 ZM 344.0510,46.0253 ZM 345.7652,32.9326 c 0.0000,-1.6846 1.6255,-3.9899 4.7287 -3.9899c 2.2757,-0.0000 4.9356,0.8571 4.9356 4.2559c 0.0000,2.2461 -1.1526,3.3692 -2.7486 4.9061l -2.8077,2.7190 c -0.1478,0.1478 -2.1279,2.0984 -2.1279 3.4874h 5.0243 c 1.0049,-0.0000 1.5368,-0.5024 1.9506 -2.1279l 0.7389,0.1182 l -0.5911,3.7239 h -9.1324 c 0.0000,-1.6551 0.2660,-2.9259 3.0146 -5.7336l 2.0688,-2.0393 c 1.6551,-1.6846 2.3348,-3.1328 2.3348 -4.9356c 0.0000,-2.6895 -1.8324,-3.4579 -2.8372 -3.4579c -2.0393,-0.0000 -2.6008,1.0640 -2.6008 1.7733c 0.0000,0.2364 0.0591,0.4729 0.1182 0.6798c 0.0591,0.2069 0.1182,0.4138 0.1182 0.6502c 0.0000,0.7684 -0.5911,1.0640 -1.0640 1.0640c -0.6502,-0.0000 -1.1231,-0.5024 -1.1231 -1.0935ZM 364.3846,46.0253 ZM 372.4825,39.0504 h -6.6793 c -0.2660,-0.0000 -0.4433,-0.2364 -0.4433 -0.5024c 0.0000,-0.4729 0.3842,-1.0935 0.7389 -1.0935h 6.7680 c 0.2955,-0.0000 0.4138,0.2660 0.4138 0.5320c 0.0000,0.3251 -0.4138,1.0640 -0.7980 1.0640ZM 381.6149,46.0253 ZM 387.9986,29.8590 c -0.7389,-0.0000 -2.8963,0.4138 -2.8963 2.2166c 0.0000,0.5320 -0.2069,1.4482 -1.0049 1.4482c -0.7684,-0.0000 -0.8275,-0.8571 -0.8275 -0.9457c 0.0000,-0.9162 1.2117,-3.6352 5.3198 -3.6352c 2.8668,-0.0000 3.7239,1.8028 3.7239 2.9850c 0.0000,0.7389 -0.2364,2.2166 -2.8963 3.9012c 1.6551,0.2660 3.8421,1.4777 3.8421 4.5514c 0.0000,3.9012 -2.9555,5.9996 -6.2951 5.9996c -1.6846,-0.0000 -4.0490,-0.7389 -4.0490 -1.8619c 0.0000,-0.4433 0.4433,-0.9457 1.0344 -0.9457c 0.5615,-0.0000 0.8275,0.2955 1.0935 0.6798c 0.3251,0.5024 0.8571,1.2117 2.2757 1.2117c 0.9753,-0.0000 3.7534,-0.9753 3.7534 -4.6992c 0.0000,-3.1623 -2.2166,-3.6648 -3.8125 -3.6648c -0.2660,-0.0000 -0.5911,0.0591 -0.9162 0.1182l -0.1182,-0.8866 c 2.2757,-0.3842 4.1672,-2.6008 4.1672 -3.9603c 0.0000,-1.6846 -1.1822,-2.5121 -2.3939 -2.5121Z"/></g><g stroke-linejoin="miter" stroke-opacity="0.0" fill-opacity="0.0" stroke="rgb(0,0,0)" stroke-width="0.0" fill="rgb(0,0,0)" stroke-linecap="butt" stroke-miterlimit="10.0"><path d="M 480.1201,364.1503 l -0.0000,-297.0231 h -297.0231 l -0.0000,297.0231 Z"/></g><g stroke-linejoin="miter" stroke-opacity="0.7" fill-opacity="0.0" stroke="rgb(48,189,227)" stroke-width="0.7898785631298918" fill="rgb(0,0,0)" stroke-linecap="butt" stroke-miterlimit="10.0"><path d="M 183.0970,67.1272 h 297.0231 "/></g><g stroke-linejoin="miter" stroke-opacity="0.7" fill-opacity="0.0" stroke="rgb(48,189,227)" stroke-width="0.7898785631298918" fill="rgb(0,0,0)" stroke-linecap="butt" stroke-miterlimit="10.0"><path d="M 183.0970,73.0677 h 297.0231 "/></g><g stroke-linejoin="miter" stroke-opacity="0.7" fill-opacity="0.0" stroke="rgb(48,189,227)" stroke-width="0.7898785631298918" fill="rgb(0,0,0)" stroke-linecap="butt" stroke-miterlimit="10.0"><path d="M 183.0970,79.0081 h 297.0231 "/></g><g stroke-linejoin="miter" stroke-opacity="0.7" fill-opacity="0.0" stroke="rgb(48,189,227)" stroke-width="0.7898785631298918" fill="rgb(0,0,0)" stroke-linecap="butt" stroke-miterlimit="10.0"><path d="M 183.0970,84.9486 h 297.0231 "/></g><g stroke-linejoin="miter" stroke-opacity="0.7" fill-opacity="0.0" stroke="rgb(48,189,227)" stroke-width="0.7898785631298918" fill="rgb(0,0,0)" stroke-linecap="butt" stroke-miterlimit="10.0"><path d="M 183.0970,90.8891 h 297.0231 "/></g><g stroke-linejoin="miter" stroke-opacity="0.7" fill-opacity="0.0" stroke="rgb(48,189,227)" stroke-width="0.7898785631298918" fill="rgb(0,0,0)" stroke-linecap="butt" stroke-miterlimit="10.0"><path d="M 183.0970,96.8295 h 297.0231 "/></g><g stroke-linejoin="miter" stroke-opacity="0.7" fill-opacity="0.0" stroke="rgb(48,189,227)" stroke-width="0.7898785631298918" fill="rgb(0,0,0)" stroke-linecap="butt" stroke-miterlimit="10.0"><path d="M 183.0970,102.7700 h 297.0231 "/></g><g stroke-linejoin="miter" stroke-opacity="0.7" fill-opacity="0.0" stroke="rgb(48,189,227)" stroke-width="0.7898785631298918" fill="rgb(0,0,0)" stroke-linecap="butt" stroke-miterlimit="10.0"><path d="M 183.0970,108.7105 h 297.0231 "/></g><g stroke-linejoin="miter" stroke-opacity="0.7" fill-opacity="0.0" stroke="rgb(48,189,227)" stroke-width="0.7898785631298918" fill="rgb(0,0,0)" stroke-linecap="butt" stroke-miterlimit="10.0"><path d="M 183.0970,114.6509 h 297.0231 "/></g><g stroke-linejoin="miter" stroke-opacity="0.7" fill-opacity="0.0" stroke="rgb(48,189,227)" stroke-width="0.7898785631298918" fill="rgb(0,0,0)" stroke-linecap="butt" stroke-miterlimit="10.0"><path d="M 183.0970,120.5914 h 297.0231 "/></g><g stroke-linejoin="miter" stroke-opacity="0.7" fill-opacity="0.0" stroke="rgb(48,189,227)" stroke-width="0.7898785631298918" fill="rgb(0,0,0)" stroke-linecap="butt" stroke-miterlimit="10.0"><path d="M 183.0970,126.5318 h 297.0231 "/></g><g stroke-linejoin="miter" stroke-opacity="0.7" fill-opacity="0.0" stroke="rgb(48,189,227)" stroke-width="0.7898785631298918" fill="rgb(0,0,0)" stroke-linecap="butt" stroke-miterlimit="10.0"><path d="M 183.0970,132.4723 h 297.0231 "/></g><g stroke-linejoin="miter" stroke-opacity="0.7" fill-opacity="0.0" stroke="rgb(48,189,227)" stroke-width="0.7898785631298918" fill="rgb(0,0,0)" stroke-linecap="butt" stroke-miterlimit="10.0"><path d="M 183.0970,138.4128 h 297.0231 "/></g><g stroke-linejoin="miter" stroke-opacity="0.7" fill-opacity="0.0" stroke="rgb(48,189,227)" stroke-width="0.7898785631298918" fill="rgb(0,0,0)" stroke-linecap="butt" stroke-miterlimit="10.0"><path d="M 183.0970,144.3532 h 297.0231 "/></g><g stroke-linejoin="miter" stroke-opacity="0.7" fill-opacity="0.0" stroke="rgb(48,189,227)" stroke-width="0.7898785631298918" fill="rgb(0,0,0)" stroke-linecap="butt" stroke-miterlimit="10.0"><path d="M 183.0970,150.2937 h 297.0231 "/></g><g stroke-linejoin="miter" stroke-opacity="0.7" fill-opacity="0.0" stroke="rgb(48,189,227)" stroke-width="0.7898785631298918" fill="rgb(0,0,0)" stroke-linecap="butt" stroke-miterlimit="10.0"><path d="M 183.0970,156.2342 h 297.0231 "/></g><g stroke-linejoin="miter" stroke-opacity="0.7" fill-opacity="0.0" stroke="rgb(48,189,227)" stroke-width="0.7898785631298918" fill="rgb(0,0,0)" stroke-linecap="butt" stroke-miterlimit="10.0"><path d="M 183.0970,162.1746 h 297.0231 "/></g><g stroke-linejoin="miter" stroke-opacity="0.7" fill-opacity="0.0" stroke="rgb(48,189,227)" stroke-width="0.7898785631298918" fill="rgb(0,0,0)" stroke-linecap="butt" stroke-miterlimit="10.0"><path d="M 183.0970,168.1151 h 297.0231 "/></g><g stroke-linejoin="miter" stroke-opacity="0.7" fill-opacity="0.0" stroke="rgb(48,189,227)" stroke-width="0.7898785631298918" fill="rgb(0,0,0)" stroke-linecap="butt" stroke-miterlimit="10.0"><path d="M 183.0970,174.0555 h 297.0231 "/></g><g stroke-linejoin="miter" stroke-opacity="0.7" fill-opacity="0.0" stroke="rgb(48,189,227)" stroke-width="0.7898785631298918" fill="rgb(0,0,0)" stroke-linecap="butt" stroke-miterlimit="10.0"><path d="M 183.0970,179.9960 h 297.0231 "/></g><g stroke-linejoin="miter" stroke-opacity="0.7" fill-opacity="0.0" stroke="rgb(48,189,227)" stroke-width="0.7898785631298918" fill="rgb(0,0,0)" stroke-linecap="butt" stroke-miterlimit="10.0"><path d="M 183.0970,185.9365 h 297.0231 "/></g><g stroke-linejoin="miter" stroke-opacity="0.7" fill-opacity="0.0" stroke="rgb(48,189,227)" stroke-width="0.7898785631298918" fill="rgb(0,0,0)" stroke-linecap="butt" stroke-miterlimit="10.0"><path d="M 183.0970,191.8769 h 297.0231 "/></g><g stroke-linejoin="miter" stroke-opacity="0.7" fill-opacity="0.0" stroke="rgb(48,189,227)" stroke-width="0.7898785631298918" fill="rgb(0,0,0)" stroke-linecap="butt" stroke-miterlimit="10.0"><path d="M 183.0970,197.8174 h 297.0231 "/></g><g stroke-linejoin="miter" stroke-opacity="0.7" fill-opacity="0.0" stroke="rgb(48,189,227)" stroke-width="0.7898785631298918" fill="rgb(0,0,0)" stroke-linecap="butt" stroke-miterlimit="10.0"><path d="M 183.0970,203.7579 h 297.0231 "/></g><g stroke-linejoin="miter" stroke-opacity="0.7" fill-opacity="0.0" stroke="rgb(48,189,227)" stroke-width="0.7898785631298918" fill="rgb(0,0,0)" stroke-linecap="butt" stroke-miterlimit="10.0"><path d="M 183.0970,209.6983 h 297.0231 "/></g><g stroke-linejoin="miter" stroke-opacity="0.7" fill-opacity="0.0" stroke="rgb(48,189,227)" stroke-width="0.7898785631298918" fill="rgb(0,0,0)" stroke-linecap="butt" stroke-miterlimit="10.0"><path d="M 183.0970,215.6388 h 297.0231 "/></g><g stroke-linejoin="miter" stroke-opacity="0.7" fill-opacity="0.0" stroke="rgb(48,189,227)" stroke-width="0.7898785631298918" fill="rgb(0,0,0)" stroke-linecap="butt" stroke-miterlimit="10.0"><path d="M 183.0970,221.5792 h 297.0231 "/></g><g stroke-linejoin="miter" stroke-opacity="0.7" fill-opacity="0.0" stroke="rgb(48,189,227)" stroke-width="0.7898785631298918" fill="rgb(0,0,0)" stroke-linecap="butt" stroke-miterlimit="10.0"><path d="M 183.0970,227.5197 h 297.0231 "/></g><g stroke-linejoin="miter" stroke-opacity="0.7" fill-opacity="0.0" stroke="rgb(48,189,227)" stroke-width="0.7898785631298918" fill="rgb(0,0,0)" stroke-linecap="butt" stroke-miterlimit="10.0"><path d="M 183.0970,233.4602 h 297.0231 "/></g><g stroke-linejoin="miter" stroke-opacity="0.7" fill-opacity="0.0" stroke="rgb(48,189,227)" stroke-width="0.7898785631298918" fill="rgb(0,0,0)" stroke-linecap="butt" stroke-miterlimit="10.0"><path d="M 183.0970,239.4006 h 297.0231 "/></g><g stroke-linejoin="miter" stroke-opacity="0.7" fill-opacity="0.0" stroke="rgb(48,189,227)" stroke-width="0.7898785631298918" fill="rgb(0,0,0)" stroke-linecap="butt" stroke-miterlimit="10.0"><path d="M 183.0970,245.3411 h 297.0231 "/></g><g stroke-linejoin="miter" stroke-opacity="0.7" fill-opacity="0.0" stroke="rgb(48,189,227)" stroke-width="0.7898785631298918" fill="rgb(0,0,0)" stroke-linecap="butt" stroke-miterlimit="10.0"><path d="M 183.0970,251.2816 h 297.0231 "/></g><g stroke-linejoin="miter" stroke-opacity="0.7" fill-opacity="0.0" stroke="rgb(48,189,227)" stroke-width="0.7898785631298918" fill="rgb(0,0,0)" stroke-linecap="butt" stroke-miterlimit="10.0"><path d="M 183.0970,257.2220 h 297.0231 "/></g><g stroke-linejoin="miter" stroke-opacity="0.7" fill-opacity="0.0" stroke="rgb(48,189,227)" stroke-width="0.7898785631298918" fill="rgb(0,0,0)" stroke-linecap="butt" stroke-miterlimit="10.0"><path d="M 183.0970,263.1625 h 297.0231 "/></g><g stroke-linejoin="miter" stroke-opacity="0.7" fill-opacity="0.0" stroke="rgb(48,189,227)" stroke-width="0.7898785631298918" fill="rgb(0,0,0)" stroke-linecap="butt" stroke-miterlimit="10.0"><path d="M 183.0970,269.1029 h 297.0231 "/></g><g stroke-linejoin="miter" stroke-opacity="0.7" fill-opacity="0.0" stroke="rgb(48,189,227)" stroke-width="0.7898785631298918" fill="rgb(0,0,0)" stroke-linecap="butt" stroke-miterlimit="10.0"><path d="M 183.0970,275.0434 h 297.0231 "/></g><g stroke-linejoin="miter" stroke-opacity="0.7" fill-opacity="0.0" stroke="rgb(48,189,227)" stroke-width="0.7898785631298918" fill="rgb(0,0,0)" stroke-linecap="butt" stroke-miterlimit="10.0"><path d="M 183.0970,280.9839 h 297.0231 "/></g><g stroke-linejoin="miter" stroke-opacity="0.7" fill-opacity="0.0" stroke="rgb(48,189,227)" stroke-width="0.7898785631298918" fill="rgb(0,0,0)" stroke-linecap="butt" stroke-miterlimit="10.0"><path d="M 183.0970,286.9243 h 297.0231 "/></g><g stroke-linejoin="miter" stroke-opacity="0.7" fill-opacity="0.0" stroke="rgb(48,189,227)" stroke-width="0.7898785631298918" fill="rgb(0,0,0)" stroke-linecap="butt" stroke-miterlimit="10.0"><path d="M 183.0970,292.8648 h 297.0231 "/></g><g stroke-linejoin="miter" stroke-opacity="0.7" fill-opacity="0.0" stroke="rgb(48,189,227)" stroke-width="0.7898785631298918" fill="rgb(0,0,0)" stroke-linecap="butt" stroke-miterlimit="10.0"><path d="M 183.0970,298.8053 h 297.0231 "/></g><g stroke-linejoin="miter" stroke-opacity="0.7" fill-opacity="0.0" stroke="rgb(48,189,227)" stroke-width="0.7898785631298918" fill="rgb(0,0,0)" stroke-linecap="butt" stroke-miterlimit="10.0"><path d="M 183.0970,304.7457 h 297.0231 "/></g><g stroke-linejoin="miter" stroke-opacity="0.7" fill-opacity="0.0" stroke="rgb(48,189,227)" stroke-width="0.7898785631298918" fill="rgb(0,0,0)" stroke-linecap="butt" stroke-miterlimit="10.0"><path d="M 183.0970,310.6862 h 297.0231 "/></g><g stroke-linejoin="miter" stroke-opacity="0.7" fill-opacity="0.0" stroke="rgb(48,189,227)" stroke-width="0.7898785631298918" fill="rgb(0,0,0)" stroke-linecap="butt" stroke-miterlimit="10.0"><path d="M 183.0970,316.6266 h 297.0231 "/></g><g stroke-linejoin="miter" stroke-opacity="0.7" fill-opacity="0.0" stroke="rgb(48,189,227)" stroke-width="0.7898785631298918" fill="rgb(0,0,0)" stroke-linecap="butt" stroke-miterlimit="10.0"><path d="M 183.0970,322.5671 h 297.0231 "/></g><g stroke-linejoin="miter" stroke-opacity="0.7" fill-opacity="0.0" stroke="rgb(48,189,227)" stroke-width="0.7898785631298918" fill="rgb(0,0,0)" stroke-linecap="butt" stroke-miterlimit="10.0"><path d="M 183.0970,328.5076 h 297.0231 "/></g><g stroke-linejoin="miter" stroke-opacity="0.7" fill-opacity="0.0" stroke="rgb(48,189,227)" stroke-width="0.7898785631298918" fill="rgb(0,0,0)" stroke-linecap="butt" stroke-miterlimit="10.0"><path d="M 183.0970,334.4480 h 297.0231 "/></g><g stroke-linejoin="miter" stroke-opacity="0.7" fill-opacity="0.0" stroke="rgb(48,189,227)" stroke-width="0.7898785631298918" fill="rgb(0,0,0)" stroke-linecap="butt" stroke-miterlimit="10.0"><path d="M 183.0970,340.3885 h 297.0231 "/></g><g stroke-linejoin="miter" stroke-opacity="0.7" fill-opacity="0.0" stroke="rgb(48,189,227)" stroke-width="0.7898785631298918" fill="rgb(0,0,0)" stroke-linecap="butt" stroke-miterlimit="10.0"><path d="M 183.0970,346.3290 h 297.0231 "/></g><g stroke-linejoin="miter" stroke-opacity="0.7" fill-opacity="0.0" stroke="rgb(48,189,227)" stroke-width="0.7898785631298918" fill="rgb(0,0,0)" stroke-linecap="butt" stroke-miterlimit="10.0"><path d="M 183.0970,352.2694 h 297.0231 "/></g><g stroke-linejoin="miter" stroke-opacity="0.7" fill-opacity="0.0" stroke="rgb(48,189,227)" stroke-width="0.7898785631298918" fill="rgb(0,0,0)" stroke-linecap="butt" stroke-miterlimit="10.0"><path d="M 183.0970,358.2099 h 297.0231 "/></g><g stroke-linejoin="miter" stroke-opacity="0.7" fill-opacity="0.0" stroke="rgb(48,189,227)" stroke-width="0.7898785631298918" fill="rgb(0,0,0)" stroke-linecap="butt" stroke-miterlimit="10.0"><path d="M 183.0970,364.1503 h 297.0231 "/></g><g stroke-linejoin="miter" stroke-opacity="0.7" fill-opacity="0.0" stroke="rgb(48,189,227)" stroke-width="0.7898785631298918" fill="rgb(0,0,0)" stroke-linecap="butt" stroke-miterlimit="10.0"><path d="M 480.1201,364.1503 v -297.0231 "/></g><g stroke-linejoin="miter" stroke-opacity="0.7" fill-opacity="0.0" stroke="rgb(48,189,227)" stroke-width="0.7898785631298918" fill="rgb(0,0,0)" stroke-linecap="butt" stroke-miterlimit="10.0"><path d="M 474.1797,364.1503 v -297.0231 "/></g><g stroke-linejoin="miter" stroke-opacity="0.7" fill-opacity="0.0" stroke="rgb(48,189,227)" stroke-width="0.7898785631298918" fill="rgb(0,0,0)" stroke-linecap="butt" stroke-miterlimit="10.0"><path d="M 468.2392,364.1503 v -297.0231 "/></g><g stroke-linejoin="miter" stroke-opacity="0.7" fill-opacity="0.0" stroke="rgb(48,189,227)" stroke-width="0.7898785631298918" fill="rgb(0,0,0)" stroke-linecap="butt" stroke-miterlimit="10.0"><path d="M 462.2988,364.1503 v -297.0231 "/></g><g stroke-linejoin="miter" stroke-opacity="0.7" fill-opacity="0.0" stroke="rgb(48,189,227)" stroke-width="0.7898785631298918" fill="rgb(0,0,0)" stroke-linecap="butt" stroke-miterlimit="10.0"><path d="M 456.3583,364.1503 v -297.0231 "/></g><g stroke-linejoin="miter" stroke-opacity="0.7" fill-opacity="0.0" stroke="rgb(48,189,227)" stroke-width="0.7898785631298918" fill="rgb(0,0,0)" stroke-linecap="butt" stroke-miterlimit="10.0"><path d="M 450.4178,364.1503 v -297.0231 "/></g><g stroke-linejoin="miter" stroke-opacity="0.7" fill-opacity="0.0" stroke="rgb(48,189,227)" stroke-width="0.7898785631298918" fill="rgb(0,0,0)" stroke-linecap="butt" stroke-miterlimit="10.0"><path d="M 444.4774,364.1503 v -297.0231 "/></g><g stroke-linejoin="miter" stroke-opacity="0.7" fill-opacity="0.0" stroke="rgb(48,189,227)" stroke-width="0.7898785631298918" fill="rgb(0,0,0)" stroke-linecap="butt" stroke-miterlimit="10.0"><path d="M 438.5369,364.1503 v -297.0231 "/></g><g stroke-linejoin="miter" stroke-opacity="0.7" fill-opacity="0.0" stroke="rgb(48,189,227)" stroke-width="0.7898785631298918" fill="rgb(0,0,0)" stroke-linecap="butt" stroke-miterlimit="10.0"><path d="M 432.5964,364.1503 v -297.0231 "/></g><g stroke-linejoin="miter" stroke-opacity="0.7" fill-opacity="0.0" stroke="rgb(48,189,227)" stroke-width="0.7898785631298918" fill="rgb(0,0,0)" stroke-linecap="butt" stroke-miterlimit="10.0"><path d="M 426.6560,364.1503 v -297.0231 "/></g><g stroke-linejoin="miter" stroke-opacity="0.7" fill-opacity="0.0" stroke="rgb(48,189,227)" stroke-width="0.7898785631298918" fill="rgb(0,0,0)" stroke-linecap="butt" stroke-miterlimit="10.0"><path d="M 420.7155,364.1503 v -297.0231 "/></g><g stroke-linejoin="miter" stroke-opacity="0.7" fill-opacity="0.0" stroke="rgb(48,189,227)" stroke-width="0.7898785631298918" fill="rgb(0,0,0)" stroke-linecap="butt" stroke-miterlimit="10.0"><path d="M 414.7751,364.1503 v -297.0231 "/></g><g stroke-linejoin="miter" stroke-opacity="0.7" fill-opacity="0.0" stroke="rgb(48,189,227)" stroke-width="0.7898785631298918" fill="rgb(0,0,0)" stroke-linecap="butt" stroke-miterlimit="10.0"><path d="M 408.8346,364.1503 v -297.0231 "/></g><g stroke-linejoin="miter" stroke-opacity="0.7" fill-opacity="0.0" stroke="rgb(48,189,227)" stroke-width="0.7898785631298918" fill="rgb(0,0,0)" stroke-linecap="butt" stroke-miterlimit="10.0"><path d="M 402.8941,364.1503 v -297.0231 "/></g><g stroke-linejoin="miter" stroke-opacity="0.7" fill-opacity="0.0" stroke="rgb(48,189,227)" stroke-width="0.7898785631298918" fill="rgb(0,0,0)" stroke-linecap="butt" stroke-miterlimit="10.0"><path d="M 396.9537,364.1503 v -297.0231 "/></g><g stroke-linejoin="miter" stroke-opacity="0.7" fill-opacity="0.0" stroke="rgb(48,189,227)" stroke-width="0.7898785631298918" fill="rgb(0,0,0)" stroke-linecap="butt" stroke-miterlimit="10.0"><path d="M 391.0132,364.1503 v -297.0231 "/></g><g stroke-linejoin="miter" stroke-opacity="0.7" fill-opacity="0.0" stroke="rgb(48,189,227)" stroke-width="0.7898785631298918" fill="rgb(0,0,0)" stroke-linecap="butt" stroke-miterlimit="10.0"><path d="M 385.0727,364.1503 v -297.0231 "/></g><g stroke-linejoin="miter" stroke-opacity="0.7" fill-opacity="0.0" stroke="rgb(48,189,227)" stroke-width="0.7898785631298918" fill="rgb(0,0,0)" stroke-linecap="butt" stroke-miterlimit="10.0"><path d="M 379.1323,364.1503 v -297.0231 "/></g><g stroke-linejoin="miter" stroke-opacity="0.7" fill-opacity="0.0" stroke="rgb(48,189,227)" stroke-width="0.7898785631298918" fill="rgb(0,0,0)" stroke-linecap="butt" stroke-miterlimit="10.0"><path d="M 373.1918,364.1503 v -297.0231 "/></g><g stroke-linejoin="miter" stroke-opacity="0.7" fill-opacity="0.0" stroke="rgb(48,189,227)" stroke-width="0.7898785631298918" fill="rgb(0,0,0)" stroke-linecap="butt" stroke-miterlimit="10.0"><path d="M 367.2514,364.1503 v -297.0231 "/></g><g stroke-linejoin="miter" stroke-opacity="0.7" fill-opacity="0.0" stroke="rgb(48,189,227)" stroke-width="0.7898785631298918" fill="rgb(0,0,0)" stroke-linecap="butt" stroke-miterlimit="10.0"><path d="M 361.3109,364.1503 v -297.0231 "/></g><g stroke-linejoin="miter" stroke-opacity="0.7" fill-opacity="0.0" stroke="rgb(48,189,227)" stroke-width="0.7898785631298918" fill="rgb(0,0,0)" stroke-linecap="butt" stroke-miterlimit="10.0"><path d="M 355.3704,364.1503 v -297.0231 "/></g><g stroke-linejoin="miter" stroke-opacity="0.7" fill-opacity="0.0" stroke="rgb(48,189,227)" stroke-width="0.7898785631298918" fill="rgb(0,0,0)" stroke-linecap="butt" stroke-miterlimit="10.0"><path d="M 349.4300,364.1503 v -297.0231 "/></g><g stroke-linejoin="miter" stroke-opacity="0.7" fill-opacity="0.0" stroke="rgb(48,189,227)" stroke-width="0.7898785631298918" fill="rgb(0,0,0)" stroke-linecap="butt" stroke-miterlimit="10.0"><path d="M 343.4895,364.1503 v -297.0231 "/></g><g stroke-linejoin="miter" stroke-opacity="0.7" fill-opacity="0.0" stroke="rgb(48,189,227)" stroke-width="0.7898785631298918" fill="rgb(0,0,0)" stroke-linecap="butt" stroke-miterlimit="10.0"><path d="M 337.5490,364.1503 v -297.0231 "/></g><g stroke-linejoin="miter" stroke-opacity="0.7" fill-opacity="0.0" stroke="rgb(48,189,227)" stroke-width="0.7898785631298918" fill="rgb(0,0,0)" stroke-linecap="butt" stroke-miterlimit="10.0"><path d="M 331.6086,364.1503 v -297.0231 "/></g><g stroke-linejoin="miter" stroke-opacity="0.7" fill-opacity="0.0" stroke="rgb(48,189,227)" stroke-width="0.7898785631298918" fill="rgb(0,0,0)" stroke-linecap="butt" stroke-miterlimit="10.0"><path d="M 325.6681,364.1503 v -297.0231 "/></g><g stroke-linejoin="miter" stroke-opacity="0.7" fill-opacity="0.0" stroke="rgb(48,189,227)" stroke-width="0.7898785631298918" fill="rgb(0,0,0)" stroke-linecap="butt" stroke-miterlimit="10.0"><path d="M 319.7277,364.1503 v -297.0231 "/></g><g stroke-linejoin="miter" stroke-opacity="0.7" fill-opacity="0.0" stroke="rgb(48,189,227)" stroke-width="0.7898785631298918" fill="rgb(0,0,0)" stroke-linecap="butt" stroke-miterlimit="10.0"><path d="M 313.7872,364.1503 v -297.0231 "/></g><g stroke-linejoin="miter" stroke-opacity="0.7" fill-opacity="0.0" stroke="rgb(48,189,227)" stroke-width="0.7898785631298918" fill="rgb(0,0,0)" stroke-linecap="butt" stroke-miterlimit="10.0"><path d="M 307.8467,364.1503 v -297.0231 "/></g><g stroke-linejoin="miter" stroke-opacity="0.7" fill-opacity="0.0" stroke="rgb(48,189,227)" stroke-width="0.7898785631298918" fill="rgb(0,0,0)" stroke-linecap="butt" stroke-miterlimit="10.0"><path d="M 301.9063,364.1503 v -297.0231 "/></g><g stroke-linejoin="miter" stroke-opacity="0.7" fill-opacity="0.0" stroke="rgb(48,189,227)" stroke-width="0.7898785631298918" fill="rgb(0,0,0)" stroke-linecap="butt" stroke-miterlimit="10.0"><path d="M 295.9658,364.1503 v -297.0231 "/></g><g stroke-linejoin="miter" stroke-opacity="0.7" fill-opacity="0.0" stroke="rgb(48,189,227)" stroke-width="0.7898785631298918" fill="rgb(0,0,0)" stroke-linecap="butt" stroke-miterlimit="10.0"><path d="M 290.0253,364.1503 v -297.0231 "/></g><g stroke-linejoin="miter" stroke-opacity="0.7" fill-opacity="0.0" stroke="rgb(48,189,227)" stroke-width="0.7898785631298918" fill="rgb(0,0,0)" stroke-linecap="butt" stroke-miterlimit="10.0"><path d="M 284.0849,364.1503 v -297.0231 "/></g><g stroke-linejoin="miter" stroke-opacity="0.7" fill-opacity="0.0" stroke="rgb(48,189,227)" stroke-width="0.7898785631298918" fill="rgb(0,0,0)" stroke-linecap="butt" stroke-miterlimit="10.0"><path d="M 278.1444,364.1503 v -297.0231 "/></g><g stroke-linejoin="miter" stroke-opacity="0.7" fill-opacity="0.0" stroke="rgb(48,189,227)" stroke-width="0.7898785631298918" fill="rgb(0,0,0)" stroke-linecap="butt" stroke-miterlimit="10.0"><path d="M 272.2040,364.1503 v -297.0231 "/></g><g stroke-linejoin="miter" stroke-opacity="0.7" fill-opacity="0.0" stroke="rgb(48,189,227)" stroke-width="0.7898785631298918" fill="rgb(0,0,0)" stroke-linecap="butt" stroke-miterlimit="10.0"><path d="M 266.2635,364.1503 v -297.0231 "/></g><g stroke-linejoin="miter" stroke-opacity="0.7" fill-opacity="0.0" stroke="rgb(48,189,227)" stroke-width="0.7898785631298918" fill="rgb(0,0,0)" stroke-linecap="butt" stroke-miterlimit="10.0"><path d="M 260.3230,364.1503 v -297.0231 "/></g><g stroke-linejoin="miter" stroke-opacity="0.7" fill-opacity="0.0" stroke="rgb(48,189,227)" stroke-width="0.7898785631298918" fill="rgb(0,0,0)" stroke-linecap="butt" stroke-miterlimit="10.0"><path d="M 254.3826,364.1503 v -297.0231 "/></g><g stroke-linejoin="miter" stroke-opacity="0.7" fill-opacity="0.0" stroke="rgb(48,189,227)" stroke-width="0.7898785631298918" fill="rgb(0,0,0)" stroke-linecap="butt" stroke-miterlimit="10.0"><path d="M 248.4421,364.1503 v -297.0231 "/></g><g stroke-linejoin="miter" stroke-opacity="0.7" fill-opacity="0.0" stroke="rgb(48,189,227)" stroke-width="0.7898785631298918" fill="rgb(0,0,0)" stroke-linecap="butt" stroke-miterlimit="10.0"><path d="M 242.5016,364.1503 v -297.0231 "/></g><g stroke-linejoin="miter" stroke-opacity="0.7" fill-opacity="0.0" stroke="rgb(48,189,227)" stroke-width="0.7898785631298918" fill="rgb(0,0,0)" stroke-linecap="butt" stroke-miterlimit="10.0"><path d="M 236.5612,364.1503 v -297.0231 "/></g><g stroke-linejoin="miter" stroke-opacity="0.7" fill-opacity="0.0" stroke="rgb(48,189,227)" stroke-width="0.7898785631298918" fill="rgb(0,0,0)" stroke-linecap="butt" stroke-miterlimit="10.0"><path d="M 230.6207,364.1503 v -297.0231 "/></g><g stroke-linejoin="miter" stroke-opacity="0.7" fill-opacity="0.0" stroke="rgb(48,189,227)" stroke-width="0.7898785631298918" fill="rgb(0,0,0)" stroke-linecap="butt" stroke-miterlimit="10.0"><path d="M 224.6803,364.1503 v -297.0231 "/></g><g stroke-linejoin="miter" stroke-opacity="0.7" fill-opacity="0.0" stroke="rgb(48,189,227)" stroke-width="0.7898785631298918" fill="rgb(0,0,0)" stroke-linecap="butt" stroke-miterlimit="10.0"><path d="M 218.7398,364.1503 v -297.0231 "/></g><g stroke-linejoin="miter" stroke-opacity="0.7" fill-opacity="0.0" stroke="rgb(48,189,227)" stroke-width="0.7898785631298918" fill="rgb(0,0,0)" stroke-linecap="butt" stroke-miterlimit="10.0"><path d="M 212.7993,364.1503 v -297.0231 "/></g><g stroke-linejoin="miter" stroke-opacity="0.7" fill-opacity="0.0" stroke="rgb(48,189,227)" stroke-width="0.7898785631298918" fill="rgb(0,0,0)" stroke-linecap="butt" stroke-miterlimit="10.0"><path d="M 206.8589,364.1503 v -297.0231 "/></g><g stroke-linejoin="miter" stroke-opacity="0.7" fill-opacity="0.0" stroke="rgb(48,189,227)" stroke-width="0.7898785631298918" fill="rgb(0,0,0)" stroke-linecap="butt" stroke-miterlimit="10.0"><path d="M 200.9184,364.1503 v -297.0231 "/></g><g stroke-linejoin="miter" stroke-opacity="0.7" fill-opacity="0.0" stroke="rgb(48,189,227)" stroke-width="0.7898785631298918" fill="rgb(0,0,0)" stroke-linecap="butt" stroke-miterlimit="10.0"><path d="M 194.9779,364.1503 v -297.0231 "/></g><g stroke-linejoin="miter" stroke-opacity="0.7" fill-opacity="0.0" stroke="rgb(48,189,227)" stroke-width="0.7898785631298918" fill="rgb(0,0,0)" stroke-linecap="butt" stroke-miterlimit="10.0"><path d="M 189.0375,364.1503 v -297.0231 "/></g><g stroke-linejoin="miter" stroke-opacity="0.7" fill-opacity="0.0" stroke="rgb(48,189,227)" stroke-width="0.7898785631298918" fill="rgb(0,0,0)" stroke-linecap="butt" stroke-miterlimit="10.0"><path d="M 183.0970,364.1503 v -297.0231 "/></g><g stroke-linejoin="miter" stroke-opacity="0.7" fill-opacity="0.0" stroke="rgb(48,189,227)" stroke-width="1.9746964078247293" fill="rgb(0,0,0)" stroke-linecap="butt" stroke-miterlimit="10.0"><path d="M 183.0970,67.1272 h 297.0231 "/></g><g stroke-linejoin="miter" stroke-opacity="0.7" fill-opacity="0.0" stroke="rgb(48,189,227)" stroke-width="1.9746964078247293" fill="rgb(0,0,0)" stroke-linecap="butt" stroke-miterlimit="10.0"><path d="M 183.0970,96.8295 h 297.0231 "/></g><g stroke-linejoin="miter" stroke-opacity="0.7" fill-opacity="0.0" stroke="rgb(48,189,227)" stroke-width="1.9746964078247293" fill="rgb(0,0,0)" stroke-linecap="butt" stroke-miterlimit="10.0"><path d="M 183.0970,126.5318 h 297.0231 "/></g><g stroke-linejoin="miter" stroke-opacity="0.7" fill-opacity="0.0" stroke="rgb(48,189,227)" stroke-width="1.9746964078247293" fill="rgb(0,0,0)" stroke-linecap="butt" stroke-miterlimit="10.0"><path d="M 183.0970,156.2342 h 297.0231 "/></g><g stroke-linejoin="miter" stroke-opacity="0.7" fill-opacity="0.0" stroke="rgb(48,189,227)" stroke-width="1.9746964078247293" fill="rgb(0,0,0)" stroke-linecap="butt" stroke-miterlimit="10.0"><path d="M 183.0970,185.9365 h 297.0231 "/></g><g stroke-linejoin="miter" stroke-opacity="0.7" fill-opacity="0.0" stroke="rgb(48,189,227)" stroke-width="1.9746964078247293" fill="rgb(0,0,0)" stroke-linecap="butt" stroke-miterlimit="10.0"><path d="M 183.0970,215.6388 h 297.0231 "/></g><g stroke-linejoin="miter" stroke-opacity="0.7" fill-opacity="0.0" stroke="rgb(48,189,227)" stroke-width="1.9746964078247293" fill="rgb(0,0,0)" stroke-linecap="butt" stroke-miterlimit="10.0"><path d="M 183.0970,245.3411 h 297.0231 "/></g><g stroke-linejoin="miter" stroke-opacity="0.7" fill-opacity="0.0" stroke="rgb(48,189,227)" stroke-width="1.9746964078247293" fill="rgb(0,0,0)" stroke-linecap="butt" stroke-miterlimit="10.0"><path d="M 183.0970,275.0434 h 297.0231 "/></g><g stroke-linejoin="miter" stroke-opacity="0.7" fill-opacity="0.0" stroke="rgb(48,189,227)" stroke-width="1.9746964078247293" fill="rgb(0,0,0)" stroke-linecap="butt" stroke-miterlimit="10.0"><path d="M 183.0970,304.7457 h 297.0231 "/></g><g stroke-linejoin="miter" stroke-opacity="0.7" fill-opacity="0.0" stroke="rgb(48,189,227)" stroke-width="1.9746964078247293" fill="rgb(0,0,0)" stroke-linecap="butt" stroke-miterlimit="10.0"><path d="M 183.0970,334.4480 h 297.0231 "/></g><g stroke-linejoin="miter" stroke-opacity="0.7" fill-opacity="0.0" stroke="rgb(48,189,227)" stroke-width="1.9746964078247293" fill="rgb(0,0,0)" stroke-linecap="butt" stroke-miterlimit="10.0"><path d="M 183.0970,364.1503 h 297.0231 "/></g><g stroke-linejoin="miter" stroke-opacity="0.7" fill-opacity="0.0" stroke="rgb(48,189,227)" stroke-width="1.9746964078247293" fill="rgb(0,0,0)" stroke-linecap="butt" stroke-miterlimit="10.0"><path d="M 480.1201,364.1503 v -297.0231 "/></g><g stroke-linejoin="miter" stroke-opacity="0.7" fill-opacity="0.0" stroke="rgb(48,189,227)" stroke-width="1.9746964078247293" fill="rgb(0,0,0)" stroke-linecap="butt" stroke-miterlimit="10.0"><path d="M 450.4178,364.1503 v -297.0231 "/></g><g stroke-linejoin="miter" stroke-opacity="0.7" fill-opacity="0.0" stroke="rgb(48,189,227)" stroke-width="1.9746964078247293" fill="rgb(0,0,0)" stroke-linecap="butt" stroke-miterlimit="10.0"><path d="M 420.7155,364.1503 v -297.0231 "/></g><g stroke-linejoin="miter" stroke-opacity="0.7" fill-opacity="0.0" stroke="rgb(48,189,227)" stroke-width="1.9746964078247293" fill="rgb(0,0,0)" stroke-linecap="butt" stroke-miterlimit="10.0"><path d="M 391.0132,364.1503 v -297.0231 "/></g><g stroke-linejoin="miter" stroke-opacity="0.7" fill-opacity="0.0" stroke="rgb(48,189,227)" stroke-width="1.9746964078247293" fill="rgb(0,0,0)" stroke-linecap="butt" stroke-miterlimit="10.0"><path d="M 361.3109,364.1503 v -297.0231 "/></g><g stroke-linejoin="miter" stroke-opacity="0.7" fill-opacity="0.0" stroke="rgb(48,189,227)" stroke-width="1.9746964078247293" fill="rgb(0,0,0)" stroke-linecap="butt" stroke-miterlimit="10.0"><path d="M 331.6086,364.1503 v -297.0231 "/></g><g stroke-linejoin="miter" stroke-opacity="0.7" fill-opacity="0.0" stroke="rgb(48,189,227)" stroke-width="1.9746964078247293" fill="rgb(0,0,0)" stroke-linecap="butt" stroke-miterlimit="10.0"><path d="M 301.9063,364.1503 v -297.0231 "/></g><g stroke-linejoin="miter" stroke-opacity="0.7" fill-opacity="0.0" stroke="rgb(48,189,227)" stroke-width="1.9746964078247293" fill="rgb(0,0,0)" stroke-linecap="butt" stroke-miterlimit="10.0"><path d="M 272.2040,364.1503 v -297.0231 "/></g><g stroke-linejoin="miter" stroke-opacity="0.7" fill-opacity="0.0" stroke="rgb(48,189,227)" stroke-width="1.9746964078247293" fill="rgb(0,0,0)" stroke-linecap="butt" stroke-miterlimit="10.0"><path d="M 242.5016,364.1503 v -297.0231 "/></g><g stroke-linejoin="miter" stroke-opacity="0.7" fill-opacity="0.0" stroke="rgb(48,189,227)" stroke-width="1.9746964078247293" fill="rgb(0,0,0)" stroke-linecap="butt" stroke-miterlimit="10.0"><path d="M 212.7993,364.1503 v -297.0231 "/></g><g stroke-linejoin="miter" stroke-opacity="0.7" fill-opacity="0.0" stroke="rgb(48,189,227)" stroke-width="1.9746964078247293" fill="rgb(0,0,0)" stroke-linecap="butt" stroke-miterlimit="10.0"><path d="M 183.0970,364.1503 v -297.0231 "/></g></svg>