<?xml version="1.0" encoding="UTF-8"?>
<!DOCTYPE svg PUBLIC "-//W3C//DTD SVG 1.1//EN"
    "http://www.w3.org/Graphics/SVG/1.1/DTD/svg11.dtd"><svg xmlns="http://www.w3.org/2000/svg" height="150.0000" stroke-opacity="1" viewBox="0 0 600 150" font-size="1" width="600.0000" xmlns:xlink="http://www.w3.org/1999/xlink" stroke="rgb(0,0,0)" version="1.1"><defs></defs><g stroke-linejoin="miter" stroke-opacity="1.0" fill-opacity="0.33" stroke="rgb(0,0,0)" fill-rule="evenodd" stroke-width="0.0" fill="rgb(0,0,0)" stroke-linecap="butt" stroke-miterlimit="10.0"><path d="M 555.3626,81.7160 ZM 561.7229,73.6309 l -2.7549,-2.7549 c -0.8025,-0.8025 -1.4134,-0.7905 -1.8686 -0.3354c -0.4671,0.4671 -0.5989,1.0780 -0.5390 2.2878c 0.1677,0.1198 0.3354,0.2875 0.5031 0.4552l 2.5034,2.5034 c 0.3474,0.3474 0.6468,0.4073 1.0421 0.0120l 0.2036,-0.2036 c 0.0599,-0.0599 0.1437,-0.0719 0.2036 -0.0120l 0.2276,0.2276 l -0.0000,0.0479 c 0.0000,-0.0000 -0.8265,0.7786 -1.2936 1.2457c -0.4312,0.4312 -1.2337,1.2816 -1.2337 1.2816l -0.0479,0.0000 l -0.2276,-0.2276 c -0.0599,-0.0599 -0.0599,-0.1318 0.0000 -0.1916l 0.2396,-0.2396 c 0.4073,-0.4073 0.3354,-0.6947 -0.0120 -1.0421l -2.7310,-2.7310 c -0.8025,-0.8025 -1.4493,-0.8025 -1.9045 -0.3474c -0.4192,0.4192 -0.5151,1.1140 -0.4911 2.2638l 2.9705,2.9705 c 0.3474,0.3474 0.6468,0.4073 1.0421 0.0120l 0.2276,-0.2276 c 0.0479,-0.0479 0.1318,-0.0599 0.1916 -0.0000l 0.2276,0.2276 l -0.0000,0.0479 c 0.0000,-0.0000 -0.8385,0.7905 -1.3056 1.2577c -0.4312,0.4312 -1.2218,1.2697 -1.2218 1.2697l -0.0479,0.0000 l -0.2276,-0.2276 c -0.0599,-0.0599 -0.0599,-0.1318 0.0000 -0.1916l 0.2276,-0.2276 c 0.4073,-0.4073 0.3354,-0.6947 -0.0120 -1.0421l -2.9825,-2.9825 c -0.6827,-0.6827 -0.8385,-0.6229 -0.9942 -0.4671c -0.1557,0.1557 -0.2875,0.3114 -0.4432 0.5630l -0.3953,-0.2755 c 0.6229,-0.8864 0.7426,-1.1020 0.8984 -1.5931c 0.0599,-0.1797 0.1198,-0.3114 0.2036 -0.3953l 0.1797,-0.1797 l 1.0062,1.0780 l 0.0359,-0.0359 c -0.0359,-1.1619 0.0240,-2.1081 0.7666 -2.8508c 0.6708,-0.6708 1.5811,-0.5989 2.1920 -0.1318c -0.0240,-1.4134 0.2276,-2.2878 0.8744 -2.9346c 1.0541,-1.0541 2.1081,-0.3593 3.1742 0.7067l 2.4914,2.4914 c 0.3474,0.3474 0.6468,0.4073 1.0421 0.0120l 0.2276,-0.2276 c 0.0479,-0.0479 0.1318,-0.0599 0.1916 -0.0000l 0.2276,0.2276 l -0.0000,0.0479 c 0.0000,-0.0000 -0.8385,0.7905 -1.3056 1.2577c -0.4312,0.4312 -1.2218,1.2697 -1.2218 1.2697l -0.0479,0.0000 l -0.2276,-0.2276 c -0.0599,-0.0599 -0.0599,-0.1318 0.0000 -0.1916l 0.2276,-0.2276 c 0.3953,-0.3953 0.3354,-0.6947 -0.0120 -1.0421ZM 564.4659,72.6127 ZM 565.0169,66.1925 l -0.7067,1.1858 c -0.7307,1.3775 -0.3354,2.0842 0.2036 2.6232c 0.3713,0.3713 1.1140,0.7546 1.8686 -0.0000c 0.3593,-0.3593 0.5630,-1.2577 0.6109 -1.8326l -1.9764,-1.9764 ZM 565.0169,66.1925 ZM 568.8618,68.5043 c -0.4552,0.4552 -1.1140,0.2995 -1.4493 0.0599l -0.0838,0.4671 c -0.1677,0.9343 -0.2515,1.2577 -0.8025 1.8087c -0.8385,0.8385 -1.9285,0.9702 -2.8268 0.0719c -0.9103,-0.9103 -0.7546,-2.3118 0.0958 -3.7371l 0.8265,-1.3775 c -1.3535,-1.3535 -2.2279,-0.9822 -2.6352 -0.5749c -0.4552,0.4552 -0.7786,1.1858 -0.4073 1.5571c 0.1318,0.1318 0.2276,0.1797 0.2755 0.2036c 0.0719,0.0240 0.1677,0.0958 0.2515 0.1797c 0.1557,0.1557 0.2755,0.5151 -0.0719 0.8624c -0.2875,0.2875 -0.6708,0.2875 -0.9582 -0.0000c -0.6947,-0.6947 -0.1797,-2.4315 0.5869 -3.1981c 0.8744,-0.8744 2.2399,-1.5212 3.9408 0.1797l 1.7608,1.7608 c 0.7307,0.7307 1.0541,1.0301 1.3296 0.7546c 0.2635,-0.2635 0.0000,-0.6708 -0.2515 -0.9463l 0.3593,-0.2396 c 0.8025,0.9463 0.6708,1.5571 0.0599 2.1680ZM 569.8680,67.2107 ZM 567.4125,60.0358 c -0.2396,0.2396 -0.2276,0.3474 -0.1437 0.4312c 0.0599,0.0599 0.2156,0.1198 0.5630 0.2036l 1.8087,0.3474 c 0.1078,0.0359 0.1797,0.0359 0.2276 -0.0120c 0.0359,-0.0359 0.0359,-0.0838 0.0240 -0.1916l -0.3114,-1.8686 c -0.0359,-0.2995 -0.0958,-0.5031 -0.1916 -0.5989c -0.0958,-0.0958 -0.2276,-0.0599 -0.3953 0.1078l -0.1916,0.1916 c -0.0359,0.0359 -0.0958,0.0479 -0.1557 -0.0120l -0.2276,-0.2276 l 0.0000,-0.0719 c 0.0000,-0.0000 0.5869,-0.5390 0.9582 -0.9103c 0.3833,-0.3833 0.9463,-0.9942 0.9463 -0.9942l 0.0359,0.0120 l 0.2276,0.2276 c 0.0838,0.0838 0.0240,0.1677 -0.0479 0.2396c -0.4432,0.4432 -0.4791,0.7666 -0.3593 1.7727l 0.2755,2.2878 c 0.0120,0.0599 0.0240,0.0958 0.0479 0.1198c 0.0240,0.0240 0.0719,0.0479 0.1318 0.0599l 2.5992,0.4432 c 1.3296,0.2276 1.4973,0.0838 1.8805 -0.2995c 0.1198,-0.1198 0.1916,-0.1437 0.2635 -0.0719l 0.2276,0.2276 l 0.0120,0.0359 c 0.0000,-0.0000 -0.6708,0.6229 -1.0780 1.0301c -0.4911,0.4911 -1.2218,1.2697 -1.2218 1.2697l -0.0479,0.0000 l -0.2276,-0.2276 c -0.0599,-0.0599 -0.0719,-0.1198 -0.0120 -0.1797l 0.1437,-0.1437 c 0.1916,-0.1916 0.2396,-0.3114 0.1437 -0.4073c -0.1078,-0.1078 -0.4192,-0.1557 -0.8624 -0.2156l -1.6530,-0.2635 c -0.1078,-0.0120 -0.1557,-0.0120 -0.1916 0.0240c -0.0240,0.0240 -0.0240,0.0958 -0.0000 0.2156l 0.3354,1.8446 c 0.0599,0.4192 0.0838,0.5151 0.1677 0.5989c 0.0838,0.0838 0.2036,0.0599 0.3833 -0.1198l 0.1677,-0.1677 c 0.0599,-0.0599 0.1198,-0.0479 0.1797 0.0120l 0.2276,0.2276 l -0.0000,0.0479 c 0.0000,-0.0000 -0.6468,0.5989 -1.0301 0.9822c -0.3474,0.3474 -0.8744,0.9223 -0.8744 0.9223l -0.0479,0.0000 l -0.2036,-0.2036 c -0.0719,-0.0719 -0.0719,-0.1677 0.0359 -0.2755c 0.2875,-0.2875 0.5031,-0.6229 0.3593 -1.7727l -0.2875,-2.2998 c -0.0120,-0.0359 -0.0240,-0.0719 -0.0599 -0.1078c -0.0359,-0.0359 -0.0719,-0.0479 -0.1318 -0.0599l -2.5633,-0.4791 c -0.8265,-0.1557 -1.3296,-0.2276 -1.7488 0.1916c -0.0838,0.0838 -0.2036,0.1318 -0.2515 0.0838l -0.2276,-0.2276 l -0.0120,-0.0599 l 0.9702,-0.9223 l 1.3056,-1.3535 l 0.0719,-0.0000 l 0.2156,0.2156 c 0.0599,0.0599 0.0479,0.1437 -0.0000 0.1916l -0.1797,0.1797 Z"/></g><g stroke-linejoin="miter" stroke-opacity="1.0" fill-opacity="0.33" stroke="rgb(0,0,0)" fill-rule="evenodd" stroke-width="0.0" fill="rgb(0,0,0)" stroke-linecap="butt" stroke-miterlimit="10.0"><path d="M 337.1786,81.7160 ZM 333.7170,73.7507 c -0.2276,0.2276 -0.5390,0.9702 -0.6827 1.3535l -0.5151,-0.2276 c 0.5630,-1.5452 0.7187,-2.2040 0.8864 -3.2341l 0.2276,-0.2276 l 6.0249,6.0249 c 0.4312,0.4312 0.6109,0.4911 1.0062 0.0958l 0.6229,-0.6229 c 0.0359,-0.0359 0.1198,-0.0719 0.1916 -0.0000l 0.2635,0.2635 l -1.6649,1.6170 l -1.6410,1.6889 l -0.2635,-0.2635 c -0.0240,-0.0479 -0.0719,-0.1198 0.0000 -0.1916l 0.7187,-0.7187 c 0.4552,-0.4552 0.2515,-0.6588 -0.0958 -1.0062l -4.1204,-4.1204 c -0.4073,-0.4073 -0.6947,-0.6947 -0.9582 -0.4312ZM 342.4250,76.4697 ZM 341.2631,74.2777 l 0.3114,-0.3354 c 0.3354,0.2635 1.0421,0.7067 1.5811 0.7187c 0.2515,0.0120 0.7905,-0.0958 1.2337 -0.5390c 0.4192,-0.4192 0.7067,-1.3775 0.1198 -1.9644c -0.5151,-0.5151 -1.1499,-0.5749 -2.5034 -0.0359c -1.2577,0.4911 -1.9644,0.6947 -2.8627 -0.2036c -0.8025,-0.8025 -0.6708,-2.0842 0.2755 -3.0304c 0.5989,-0.5989 1.1499,-0.9343 1.7129 -1.1140c 0.4552,0.3114 0.8984,0.6827 1.3535 1.0900l -0.3114,0.3354 c -1.2337,-0.7307 -2.1441,-0.2036 -2.3956 0.0479c -0.4552,0.4552 -0.7426,1.1020 -0.0838 1.7608c 0.4791,0.4791 0.9463,0.4911 1.8446 0.0719c 1.3296,-0.6109 2.5393,-0.9582 3.4976 -0.0000c 1.1858,1.1858 0.2755,2.7909 -0.2875 3.3538c -0.4192,0.4192 -0.8145,0.7187 -1.2098 0.9463c -0.0958,0.0719 -0.1677,0.1198 -0.2515 0.2036c -0.0599,0.0599 -0.1437,0.1677 -0.2396 0.3114c -0.5031,-0.5031 -1.1499,-1.0780 -1.7847 -1.6170ZM 346.8689,72.0258 ZM 344.1498,65.3780 l 3.0664,3.0664 c 0.7426,0.7426 1.1738,1.0301 1.4973 0.7067c 0.3114,-0.3114 0.4552,-0.6468 0.5270 -1.1978l 0.4192,-0.0120 c 0.0599,0.9942 -0.1557,1.7368 -0.7067 2.2878c -0.5510,0.5510 -1.2098,0.5390 -2.0602 -0.3114l -3.6413,-3.6413 l -0.7786,0.7786 c -0.0359,0.0359 -0.0599,0.0359 -0.0958 0.0000l -0.3713,-0.3713 c -0.0359,-0.0359 -0.0359,-0.0599 -0.0120 -0.0838c 0.8025,-0.8025 0.5270,-1.4613 -0.3833 -2.3716l -0.2276,-0.2276 l 0.4552,-0.9343 l 1.8446,1.8446 l 1.3176,-1.3176 c 0.0599,-0.0599 0.1198,-0.0719 0.1677 -0.0240l 0.2396,0.2396 c 0.1078,0.1078 -0.0120,0.3234 -0.1318 0.4432l -1.1259,1.1259 ZM 353.4807,65.4140 ZM 350.0071,53.9390 c -1.1499,1.1499 -1.4254,3.5096 1.0900 6.0249c 2.2998,2.2998 5.0907,2.2159 6.5280 0.7786c 1.3655,-1.3655 1.1140,-3.7252 -1.0301 -5.8692c -2.4914,-2.4914 -4.8990,-2.6232 -6.5879 -0.9343ZM 350.0071,53.9390 ZM 357.4694,53.5437 c 2.3956,2.3956 2.6112,5.5578 0.3234 7.8456l -0.2036,0.2036 c -0.0479,0.1916 -0.0000,0.4073 0.0240 0.5031c 0.4312,-0.3593 1.1499,-0.7187 1.9884 -0.8624c 0.8864,-0.1437 1.9764,-0.4671 2.4555 -0.9463c 0.3474,-0.3474 0.6588,-0.8984 0.5869 -1.4733l 0.3593,-0.0719 c 0.2036,1.1379 0.0120,1.9524 -0.7546 2.7190c -0.6708,0.6708 -1.4733,0.9463 -2.5034 1.1140c -1.0900,0.1557 -1.8925,0.3114 -2.3956 0.8145c -0.1797,0.1797 -0.5031,0.7905 -0.1916 1.5811l -0.6947,0.2396 c -0.0599,-0.2515 -0.2036,-1.1619 0.3953 -2.1920c 0.0958,-0.1677 0.1797,-0.3474 0.1677 -0.4552c -0.0120,-0.1318 -0.0120,-0.3713 0.0120 -0.5390c -2.0243,1.4254 -4.7433,1.3176 -6.8275 -0.7666c -2.3477,-2.3477 -2.5992,-5.7375 -0.4552 -7.8815c 2.1560,-2.1560 5.3422,-2.2040 7.7138 0.1677Z"/></g><g stroke-linejoin="miter" stroke-opacity="1.0" fill-opacity="0.33" stroke="rgb(0,0,0)" fill-rule="evenodd" stroke-width="0.0" fill="rgb(0,0,0)" stroke-linecap="butt" stroke-miterlimit="10.0"><path d="M 299.7877,81.7160 ZM 306.1480,73.6309 l -2.7549,-2.7549 c -0.8025,-0.8025 -1.4134,-0.7905 -1.8686 -0.3354c -0.4671,0.4671 -0.5989,1.0780 -0.5390 2.2878c 0.1677,0.1198 0.3354,0.2875 0.5031 0.4552l 2.5034,2.5034 c 0.3474,0.3474 0.6468,0.4073 1.0421 0.0120l 0.2036,-0.2036 c 0.0599,-0.0599 0.1437,-0.0719 0.2036 -0.0120l 0.2276,0.2276 l -0.0000,0.0479 c 0.0000,-0.0000 -0.8265,0.7786 -1.2936 1.2457c -0.4312,0.4312 -1.2337,1.2816 -1.2337 1.2816l -0.0479,0.0000 l -0.2276,-0.2276 c -0.0599,-0.0599 -0.0599,-0.1318 0.0000 -0.1916l 0.2396,-0.2396 c 0.4073,-0.4073 0.3354,-0.6947 -0.0120 -1.0421l -2.7310,-2.7310 c -0.8025,-0.8025 -1.4493,-0.8025 -1.9045 -0.3474c -0.4192,0.4192 -0.5151,1.1140 -0.4911 2.2638l 2.9705,2.9705 c 0.3474,0.3474 0.6468,0.4073 1.0421 0.0120l 0.2276,-0.2276 c 0.0479,-0.0479 0.1318,-0.0599 0.1916 -0.0000l 0.2276,0.2276 l -0.0000,0.0479 c 0.0000,-0.0000 -0.8385,0.7905 -1.3056 1.2577c -0.4312,0.4312 -1.2218,1.2697 -1.2218 1.2697l -0.0479,0.0000 l -0.2276,-0.2276 c -0.0599,-0.0599 -0.0599,-0.1318 0.0000 -0.1916l 0.2276,-0.2276 c 0.4073,-0.4073 0.3354,-0.6947 -0.0120 -1.0421l -2.9825,-2.9825 c -0.6827,-0.6827 -0.8385,-0.6229 -0.9942 -0.4671c -0.1557,0.1557 -0.2875,0.3114 -0.4432 0.5630l -0.3953,-0.2755 c 0.6229,-0.8864 0.7426,-1.1020 0.8984 -1.5931c 0.0599,-0.1797 0.1198,-0.3114 0.2036 -0.3953l 0.1797,-0.1797 l 1.0062,1.0780 l 0.0359,-0.0359 c -0.0359,-1.1619 0.0240,-2.1081 0.7666 -2.8508c 0.6708,-0.6708 1.5811,-0.5989 2.1920 -0.1318c -0.0240,-1.4134 0.2276,-2.2878 0.8744 -2.9346c 1.0541,-1.0541 2.1081,-0.3593 3.1742 0.7067l 2.4914,2.4914 c 0.3474,0.3474 0.6468,0.4073 1.0421 0.0120l 0.2276,-0.2276 c 0.0479,-0.0479 0.1318,-0.0599 0.1916 -0.0000l 0.2276,0.2276 l -0.0000,0.0479 c 0.0000,-0.0000 -0.8385,0.7905 -1.3056 1.2577c -0.4312,0.4312 -1.2218,1.2697 -1.2218 1.2697l -0.0479,0.0000 l -0.2276,-0.2276 c -0.0599,-0.0599 -0.0599,-0.1318 0.0000 -0.1916l 0.2276,-0.2276 c 0.3953,-0.3953 0.3354,-0.6947 -0.0120 -1.0421ZM 308.8910,72.6127 ZM 306.9385,67.9293 l 2.2040,-2.2040 c 0.1198,-0.1198 0.1078,-0.2276 0.0000 -0.3354c -1.1140,-1.1140 -1.9644,-0.8385 -2.3956 -0.4073c -0.2755,0.2755 -1.0660,1.2816 0.1916 2.9466ZM 306.9385,67.9293 ZM 312.3047,66.9711 l 0.4312,-0.0479 c 0.1677,1.0780 -0.0958,2.2279 -0.9582 3.0903c -1.6410,1.6410 -3.5575,1.1140 -4.8631 -0.1916c -1.8207,-1.8207 -1.7129,-4.1085 -0.5749 -5.2464c 1.5811,-1.5811 3.1862,-0.7187 4.1923 0.2875c 0.1318,0.1318 0.1198,0.2875 -0.0120 0.4192l -3.1502,3.1502 c 0.0599,0.0838 0.1318,0.1557 0.2276 0.2515c 1.2218,1.2218 3.0185,1.3176 3.8809 0.4552c 0.6588,-0.6588 0.8624,-1.2936 0.8265 -2.1680ZM 313.4306,68.0731 ZM 316.3652,63.0064 l -3.1023,-3.1023 c -0.7426,-0.1677 -1.3176,-0.0958 -1.8805 0.4671c -0.2396,0.2396 -0.6947,0.7666 -0.5151 1.7129c 0.0838,0.4192 0.3953,1.1379 1.2577 2.0003c 1.5691,1.5691 3.1023,1.4733 3.7491 0.8265c 0.3953,-0.3953 0.4791,-0.9582 0.4911 -1.9045ZM 316.3652,63.0064 ZM 309.9690,54.8134 l 6.9233,6.9233 c 0.3593,0.3593 0.5749,0.5270 0.6827 0.5869c 0.1437,0.0719 0.3474,0.0120 0.4432 -0.0838c 0.1437,-0.1437 0.4073,-0.4073 0.5510 -0.6229l 0.3833,0.2875 c -0.5749,0.8145 -1.0660,1.5691 -1.1020 2.0363l -0.2875,0.2875 l -0.7905,-0.8624 c 0.0120,0.9223 -0.0958,1.7488 -0.7067 2.3597c -1.2936,1.2936 -3.1862,0.9822 -4.6594 -0.4911c -0.8864,-0.8864 -1.3895,-1.8686 -1.3895 -2.8987c 0.0240,-0.9343 0.2875,-1.7248 1.0780 -2.5154c 0.2396,-0.2396 0.8744,-0.6588 1.3056 -0.7786l -1.8326,-1.8326 c -0.6827,-0.6827 -0.9822,-0.7666 -1.2218 -0.5270l -0.3474,0.4432 c -0.0240,0.0240 -0.0838,0.0359 -0.1198 -0.0000l -0.3234,-0.2755 c 0.1916,-0.1916 0.5510,-0.6947 0.7187 -0.9343c 0.1797,-0.2755 0.2995,-0.4911 0.4312 -0.8385l 0.2635,-0.2635 ZM 319.3478,62.1559 ZM 313.4426,54.3822 c -0.3114,-0.3114 -0.3234,-0.8265 -0.0120 -1.1379c 0.3234,-0.3234 0.8385,-0.3114 1.1499 -0.0000c 0.3234,0.3234 0.3234,0.8265 -0.0000 1.1499c -0.3114,0.3114 -0.8145,0.3114 -1.1379 -0.0120ZM 313.4426,54.3822 ZM 320.5575,59.2213 c 0.3474,0.3474 0.6588,0.3953 1.0421 0.0120l 0.2276,-0.2276 c 0.0599,-0.0599 0.1437,-0.0719 0.2036 -0.0120l 0.2276,0.2276 l -0.0000,0.0479 c 0.0000,-0.0000 -0.8504,0.8025 -1.3176 1.2697c -0.4192,0.4192 -1.2098,1.2577 -1.2098 1.2577l -0.0479,0.0000 l -0.2276,-0.2276 c -0.0599,-0.0599 -0.0599,-0.1318 0.0000 -0.1916l 0.2276,-0.2276 c 0.3953,-0.3953 0.3354,-0.6947 -0.0120 -1.0421l -2.9825,-2.9825 c -0.6348,-0.6348 -0.8385,-0.6229 -1.0062 -0.4552c -0.1557,0.1557 -0.2875,0.3114 -0.4432 0.5630l -0.3953,-0.2755 c 0.6348,-0.8984 0.7187,-1.0780 0.8984 -1.5931c 0.0838,-0.1797 0.1198,-0.3114 0.2036 -0.3953l 0.1797,-0.1797 l 4.4319,4.4319 ZM 322.5100,58.9937 ZM 323.0610,52.5735 l -0.7067,1.1858 c -0.7307,1.3775 -0.3354,2.0842 0.2036 2.6232c 0.3713,0.3713 1.1140,0.7546 1.8686 -0.0000c 0.3593,-0.3593 0.5630,-1.2577 0.6109 -1.8326l -1.9764,-1.9764 ZM 323.0610,52.5735 ZM 326.9059,54.8853 c -0.4552,0.4552 -1.1140,0.2995 -1.4493 0.0599l -0.0838,0.4671 c -0.1677,0.9343 -0.2515,1.2577 -0.8025 1.8087c -0.8385,0.8385 -1.9285,0.9702 -2.8268 0.0719c -0.9103,-0.9103 -0.7546,-2.3118 0.0958 -3.7371l 0.8265,-1.3775 c -1.3535,-1.3535 -2.2279,-0.9822 -2.6352 -0.5749c -0.4552,0.4552 -0.7786,1.1858 -0.4073 1.5571c 0.1318,0.1318 0.2276,0.1797 0.2755 0.2036c 0.0719,0.0240 0.1677,0.0958 0.2515 0.1797c 0.1557,0.1557 0.2755,0.5151 -0.0719 0.8624c -0.2875,0.2875 -0.6708,0.2875 -0.9582 -0.0000c -0.6947,-0.6947 -0.1797,-2.4315 0.5869 -3.1981c 0.8744,-0.8744 2.2399,-1.5212 3.9408 0.1797l 1.7608,1.7608 c 0.7307,0.7307 1.0541,1.0301 1.3296 0.7546c 0.2635,-0.2635 0.0000,-0.6708 -0.2515 -0.9463l 0.3593,-0.2396 c 0.8025,0.9463 0.6708,1.5571 0.0599 2.1680ZM 327.9121,53.5916 ZM 331.4096,48.3692 l -2.6232,-2.6232 c -0.8385,-0.8385 -1.3775,-1.0900 -2.0123 -0.4552c -0.5270,0.5270 -0.7786,1.1858 -0.6708 2.5154l 2.9346,2.9346 c 0.3474,0.3474 0.6468,0.4073 1.0421 0.0120l 0.1677,-0.1677 c 0.0599,-0.0599 0.1318,-0.0599 0.1916 -0.0000l 0.2276,0.2276 l -0.0000,0.0479 c 0.0000,-0.0000 -0.7786,0.7307 -1.2457 1.1978c -0.4312,0.4312 -1.2218,1.2697 -1.2218 1.2697l -0.0479,0.0000 l -0.2276,-0.2276 c -0.0599,-0.0599 -0.0599,-0.1318 0.0000 -0.1916l 0.2276,-0.2276 c 0.4073,-0.4073 0.3354,-0.6947 -0.0120 -1.0421l -2.9825,-2.9825 c -0.6468,-0.6468 -0.8265,-0.6348 -0.9942 -0.4671c -0.1557,0.1557 -0.2875,0.3114 -0.4432 0.5630l -0.3953,-0.2755 c 0.4192,-0.5869 0.7187,-1.0062 0.8864 -1.5811c 0.0719,-0.1916 0.1318,-0.3234 0.2156 -0.4073l 0.1797,-0.1797 l 1.0301,1.1020 l 0.0359,-0.0359 c -0.1318,-1.6649 0.2755,-2.4076 0.8864 -3.0185c 1.0780,-1.0780 2.1321,-0.4791 3.1981 0.5869l 2.5393,2.5393 c 0.3474,0.3474 0.6588,0.3953 1.0421 0.0120l 0.2276,-0.2276 c 0.0599,-0.0599 0.1437,-0.0719 0.2036 -0.0120l 0.2276,0.2276 l -0.0000,0.0479 c 0.0000,-0.0000 -0.8504,0.8025 -1.3176 1.2697c -0.4192,0.4192 -1.1499,1.1978 -1.1499 1.1978l -0.0479,0.0000 l -0.2276,-0.2276 c -0.0599,-0.0599 -0.0599,-0.1318 0.0000 -0.1916l 0.1677,-0.1677 c 0.3953,-0.3953 0.3354,-0.6947 -0.0120 -1.0421Z"/></g><g stroke-linejoin="miter" stroke-opacity="1.0" fill-opacity="0.33" stroke="rgb(0,0,0)" fill-rule="evenodd" stroke-width="0.0" fill="rgb(0,0,0)" stroke-linecap="butt" stroke-miterlimit="10.0"><path d="M 262.1193,81.7160 ZM 258.1545,72.5768 c -0.2995,0.2995 -1.0062,1.3415 -0.2755 2.0722c 0.2156,0.2156 0.5031,0.6708 0.1797 0.9942c -0.3114,0.3114 -0.6827,-0.0120 -0.7187 -0.0479c -0.3713,-0.3713 -0.9822,-1.9644 0.6827 -3.6293c 1.1619,-1.1619 2.2399,-0.7786 2.7190 -0.2995c 0.2995,0.2995 0.8025,0.9942 0.4073 2.7549c 0.7786,-0.5630 2.1560,-0.9582 3.4018 0.2875c 1.5811,1.5811 1.2337,3.6293 -0.1198 4.9829c -0.6827,0.6827 -1.9404,1.3415 -2.3956 0.8864c -0.1797,-0.1797 -0.2036,-0.5630 0.0359 -0.8025c 0.2276,-0.2276 0.4552,-0.2156 0.7187 -0.1677c 0.3354,0.0719 0.8385,0.1437 1.4134 -0.4312c 0.3953,-0.3953 1.1259,-1.9165 -0.3833 -3.4257c -1.2816,-1.2816 -2.3836,-0.5869 -3.0304 0.0599c -0.1078,0.1078 -0.2156,0.2635 -0.3234 0.4192l -0.4073,-0.3114 c 0.7666,-1.0780 0.6348,-2.7430 0.0838 -3.2940c -0.6827,-0.6827 -1.4973,-0.5390 -1.9884 -0.0479ZM 267.3656,76.4697 ZM 267.5693,74.5412 l -2.9825,-2.9825 c -0.5989,-0.5989 -0.8145,-0.6468 -0.9942 -0.4671c -0.1557,0.1557 -0.2875,0.3114 -0.4432 0.5630l -0.3953,-0.2755 c 0.6229,-0.8864 0.7187,-1.0541 0.8984 -1.5931c 0.0599,-0.1797 0.1198,-0.3114 0.2036 -0.3953l 0.1797,-0.1797 l 1.0421,1.1140 l 0.0359,-0.0359 c -0.1557,-0.7786 -0.2396,-1.9165 0.3234 -2.4794c 0.4911,-0.4911 0.9103,-0.4312 1.2218 -0.1198c 0.3114,0.3114 0.2995,0.7067 -0.0120 1.0181c -0.2396,0.2396 -0.4671,0.2755 -0.7067 0.2755c -0.1437,0.0000 -0.2635,0.0479 -0.3474 0.1318c -0.1318,0.1318 -0.1797,0.6109 -0.0599 1.3056c 0.0240,0.1916 0.1198,0.4073 0.2755 0.5630l 2.6591,2.6591 c 0.3474,0.3474 0.6468,0.4073 1.0421 0.0120l 0.3474,-0.3474 c 0.0599,-0.0599 0.1437,-0.0719 0.2036 -0.0120l 0.2276,0.2276 l -0.0000,0.0479 c 0.0000,-0.0000 -0.9702,0.9223 -1.4374 1.3895c -0.4312,0.4312 -1.2218,1.2697 -1.2218 1.2697l -0.0359,-0.0120 l -0.2276,-0.2276 c -0.0599,-0.0599 -0.0719,-0.1198 -0.0120 -0.1797l 0.2276,-0.2276 c 0.4073,-0.4073 0.3354,-0.6947 -0.0120 -1.0421ZM 271.5220,72.3133 ZM 274.4566,67.2466 l -3.1023,-3.1023 c -0.7426,-0.1677 -1.3176,-0.0958 -1.8805 0.4671c -0.2396,0.2396 -0.6947,0.7666 -0.5151 1.7129c 0.0838,0.4192 0.3953,1.1379 1.2577 2.0003c 1.5691,1.5691 3.1023,1.4733 3.7491 0.8265c 0.3953,-0.3953 0.4791,-0.9582 0.4911 -1.9045ZM 274.4566,67.2466 ZM 268.0604,59.0536 l 6.9233,6.9233 c 0.3593,0.3593 0.5749,0.5270 0.6827 0.5869c 0.1437,0.0719 0.3474,0.0120 0.4432 -0.0838c 0.1437,-0.1437 0.4073,-0.4073 0.5510 -0.6229l 0.3833,0.2875 c -0.5749,0.8145 -1.0660,1.5691 -1.1020 2.0363l -0.2875,0.2875 l -0.7905,-0.8624 c 0.0120,0.9223 -0.0958,1.7488 -0.7067 2.3597c -1.2936,1.2936 -3.1862,0.9822 -4.6594 -0.4911c -0.8864,-0.8864 -1.3895,-1.8686 -1.3895 -2.8987c 0.0240,-0.9343 0.2875,-1.7248 1.0780 -2.5154c 0.2396,-0.2396 0.8744,-0.6588 1.3056 -0.7786l -1.8326,-1.8326 c -0.6827,-0.6827 -0.9822,-0.7666 -1.2218 -0.5270l -0.3474,0.4432 c -0.0240,0.0240 -0.0838,0.0359 -0.1198 -0.0000l -0.3234,-0.2755 c 0.1916,-0.1916 0.5510,-0.6947 0.7187 -0.9343c 0.1797,-0.2755 0.2995,-0.4911 0.4312 -0.8385l 0.2635,-0.2635 ZM 280.4336,63.4016 ZM 276.9600,51.9267 c -1.1499,1.1499 -1.4254,3.5096 1.0900 6.0249c 2.2998,2.2998 5.0907,2.2159 6.5280 0.7786c 1.3655,-1.3655 1.1140,-3.7252 -1.0301 -5.8692c -2.4914,-2.4914 -4.8990,-2.6232 -6.5879 -0.9343ZM 276.9600,51.9267 ZM 284.4223,51.5314 c 2.3956,2.3956 2.6112,5.5578 0.3234 7.8456l -0.2036,0.2036 c -0.0479,0.1916 -0.0000,0.4073 0.0240 0.5031c 0.4312,-0.3593 1.1499,-0.7187 1.9884 -0.8624c 0.8864,-0.1437 1.9764,-0.4671 2.4555 -0.9463c 0.3474,-0.3474 0.6588,-0.8984 0.5869 -1.4733l 0.3593,-0.0719 c 0.2036,1.1379 0.0120,1.9524 -0.7546 2.7190c -0.6708,0.6708 -1.4733,0.9463 -2.5034 1.1140c -1.0900,0.1557 -1.8925,0.3114 -2.3956 0.8145c -0.1797,0.1797 -0.5031,0.7905 -0.1916 1.5811l -0.6947,0.2396 c -0.0599,-0.2515 -0.2036,-1.1619 0.3953 -2.1920c 0.0958,-0.1677 0.1797,-0.3474 0.1677 -0.4552c -0.0120,-0.1318 -0.0120,-0.3713 0.0120 -0.5390c -2.0243,1.4254 -4.7433,1.3176 -6.8275 -0.7666c -2.3477,-2.3477 -2.5992,-5.7375 -0.4552 -7.8815c 2.1560,-2.1560 5.3422,-2.2040 7.7138 0.1677Z"/></g><g stroke-linejoin="miter" stroke-opacity="1.0" fill-opacity="0.33" stroke="rgb(0,0,0)" fill-rule="evenodd" stroke-width="0.0" fill="rgb(0,0,0)" stroke-linecap="butt" stroke-miterlimit="10.0"><path d="M 44.6374,81.7160 ZM 50.9977,73.6309 l -2.7549,-2.7549 c -0.8025,-0.8025 -1.4134,-0.7905 -1.8686 -0.3354c -0.4671,0.4671 -0.5989,1.0780 -0.5390 2.2878c 0.1677,0.1198 0.3354,0.2875 0.5031 0.4552l 2.5034,2.5034 c 0.3474,0.3474 0.6468,0.4073 1.0421 0.0120l 0.2036,-0.2036 c 0.0599,-0.0599 0.1437,-0.0719 0.2036 -0.0120l 0.2276,0.2276 l -0.0000,0.0479 c 0.0000,-0.0000 -0.8265,0.7786 -1.2936 1.2457c -0.4312,0.4312 -1.2337,1.2816 -1.2337 1.2816l -0.0479,0.0000 l -0.2276,-0.2276 c -0.0599,-0.0599 -0.0599,-0.1318 0.0000 -0.1916l 0.2396,-0.2396 c 0.4073,-0.4073 0.3354,-0.6947 -0.0120 -1.0421l -2.7310,-2.7310 c -0.8025,-0.8025 -1.4493,-0.8025 -1.9045 -0.3474c -0.4192,0.4192 -0.5151,1.1140 -0.4911 2.2638l 2.9705,2.9705 c 0.3474,0.3474 0.6468,0.4073 1.0421 0.0120l 0.2276,-0.2276 c 0.0479,-0.0479 0.1318,-0.0599 0.1916 -0.0000l 0.2276,0.2276 l -0.0000,0.0479 c 0.0000,-0.0000 -0.8385,0.7905 -1.3056 1.2577c -0.4312,0.4312 -1.2218,1.2697 -1.2218 1.2697l -0.0479,0.0000 l -0.2276,-0.2276 c -0.0599,-0.0599 -0.0599,-0.1318 0.0000 -0.1916l 0.2276,-0.2276 c 0.4073,-0.4073 0.3354,-0.6947 -0.0120 -1.0421l -2.9825,-2.9825 c -0.6827,-0.6827 -0.8385,-0.6229 -0.9942 -0.4671c -0.1557,0.1557 -0.2875,0.3114 -0.4432 0.5630l -0.3953,-0.2755 c 0.6229,-0.8864 0.7426,-1.1020 0.8984 -1.5931c 0.0599,-0.1797 0.1198,-0.3114 0.2036 -0.3953l 0.1797,-0.1797 l 1.0062,1.0780 l 0.0359,-0.0359 c -0.0359,-1.1619 0.0240,-2.1081 0.7666 -2.8508c 0.6708,-0.6708 1.5811,-0.5989 2.1920 -0.1318c -0.0240,-1.4134 0.2276,-2.2878 0.8744 -2.9346c 1.0541,-1.0541 2.1081,-0.3593 3.1742 0.7067l 2.4914,2.4914 c 0.3474,0.3474 0.6468,0.4073 1.0421 0.0120l 0.2276,-0.2276 c 0.0479,-0.0479 0.1318,-0.0599 0.1916 -0.0000l 0.2276,0.2276 l -0.0000,0.0479 c 0.0000,-0.0000 -0.8385,0.7905 -1.3056 1.2577c -0.4312,0.4312 -1.2218,1.2697 -1.2218 1.2697l -0.0479,0.0000 l -0.2276,-0.2276 c -0.0599,-0.0599 -0.0599,-0.1318 0.0000 -0.1916l 0.2276,-0.2276 c 0.3953,-0.3953 0.3354,-0.6947 -0.0120 -1.0421ZM 53.7407,72.6127 ZM 47.8355,64.8390 c -0.3114,-0.3114 -0.3234,-0.8265 -0.0120 -1.1379c 0.3234,-0.3234 0.8385,-0.3114 1.1499 -0.0000c 0.3234,0.3234 0.3234,0.8265 -0.0000 1.1499c -0.3114,0.3114 -0.8145,0.3114 -1.1379 -0.0120ZM 47.8355,64.8390 ZM 54.9505,69.6781 c 0.3474,0.3474 0.6588,0.3953 1.0421 0.0120l 0.2276,-0.2276 c 0.0599,-0.0599 0.1437,-0.0719 0.2036 -0.0120l 0.2276,0.2276 l -0.0000,0.0479 c 0.0000,-0.0000 -0.8504,0.8025 -1.3176 1.2697c -0.4192,0.4192 -1.2098,1.2577 -1.2098 1.2577l -0.0479,0.0000 l -0.2276,-0.2276 c -0.0599,-0.0599 -0.0599,-0.1318 0.0000 -0.1916l 0.2276,-0.2276 c 0.3953,-0.3953 0.3354,-0.6947 -0.0120 -1.0421l -2.9825,-2.9825 c -0.6348,-0.6348 -0.8385,-0.6229 -1.0062 -0.4552c -0.1557,0.1557 -0.2875,0.3114 -0.4432 0.5630l -0.3953,-0.2755 c 0.6348,-0.8984 0.7187,-1.0780 0.8984 -1.5931c 0.0838,-0.1797 0.1198,-0.3114 0.2036 -0.3953l 0.1797,-0.1797 l 4.4319,4.4319 ZM 56.9029,69.4505 ZM 60.4005,64.2281 l -2.6232,-2.6232 c -0.8385,-0.8385 -1.3775,-1.0900 -2.0123 -0.4552c -0.5270,0.5270 -0.7786,1.1858 -0.6708 2.5154l 2.9346,2.9346 c 0.3474,0.3474 0.6468,0.4073 1.0421 0.0120l 0.1677,-0.1677 c 0.0599,-0.0599 0.1318,-0.0599 0.1916 -0.0000l 0.2276,0.2276 l -0.0000,0.0479 c 0.0000,-0.0000 -0.7786,0.7307 -1.2457 1.1978c -0.4312,0.4312 -1.2218,1.2697 -1.2218 1.2697l -0.0479,0.0000 l -0.2276,-0.2276 c -0.0599,-0.0599 -0.0599,-0.1318 0.0000 -0.1916l 0.2276,-0.2276 c 0.4073,-0.4073 0.3354,-0.6947 -0.0120 -1.0421l -2.9825,-2.9825 c -0.6468,-0.6468 -0.8265,-0.6348 -0.9942 -0.4671c -0.1557,0.1557 -0.2875,0.3114 -0.4432 0.5630l -0.3953,-0.2755 c 0.4192,-0.5869 0.7187,-1.0062 0.8864 -1.5811c 0.0719,-0.1916 0.1318,-0.3234 0.2156 -0.4073l 0.1797,-0.1797 l 1.0301,1.1020 l 0.0359,-0.0359 c -0.1318,-1.6649 0.2755,-2.4076 0.8864 -3.0185c 1.0780,-1.0780 2.1321,-0.4791 3.1981 0.5869l 2.5393,2.5393 c 0.3474,0.3474 0.6588,0.3953 1.0421 0.0120l 0.2276,-0.2276 c 0.0599,-0.0599 0.1437,-0.0719 0.2036 -0.0120l 0.2276,0.2276 l -0.0000,0.0479 c 0.0000,-0.0000 -0.8504,0.8025 -1.3176 1.2697c -0.4192,0.4192 -1.1499,1.1978 -1.1499 1.1978l -0.0479,0.0000 l -0.2276,-0.2276 c -0.0599,-0.0599 -0.0599,-0.1318 0.0000 -0.1916l 0.1677,-0.1677 c 0.3953,-0.3953 0.3354,-0.6947 -0.0120 -1.0421Z"/></g><g stroke-linejoin="miter" stroke-opacity="0.5" fill-opacity="0.5" stroke="rgb(128,128,128)" stroke-width="4.354385623403532" fill="rgb(93,165,218)" stroke-linecap="butt" stroke-miterlimit="10.0"><path d="M 558.4270,97.0378 c 0.0000,-1.6924 -1.3720,-3.0644 -3.0644 -3.0644c -1.6924,-0.0000 -3.0644,1.3720 -3.0644 3.0644c -0.0000,1.6924 1.3720,3.0644 3.0644 3.0644c 1.6924,0.0000 3.0644,-1.3720 3.0644 -3.0644Z"/></g><g stroke-linejoin="miter" stroke-opacity="0.5" fill-opacity="0.5" stroke="rgb(128,128,128)" stroke-width="4.354385623403532" fill="rgb(93,165,218)" stroke-linecap="butt" stroke-miterlimit="10.0"><path d="M 394.4170,97.0378 c 0.0000,-1.6924 -1.3720,-3.0644 -3.0644 -3.0644c -1.6924,-0.0000 -3.0644,1.3720 -3.0644 3.0644c -0.0000,1.6924 1.3720,3.0644 3.0644 3.0644c 1.6924,0.0000 3.0644,-1.3720 3.0644 -3.0644Z"/></g><g stroke-linejoin="miter" stroke-opacity="0.5" fill-opacity="0.5" stroke="rgb(128,128,128)" stroke-width="4.354385623403532" fill="rgb(93,165,218)" stroke-linecap="butt" stroke-miterlimit="10.0"><path d="M 373.9455,97.0378 c 0.0000,-1.6924 -1.3720,-3.0644 -3.0644 -3.0644c -1.6924,-0.0000 -3.0644,1.3720 -3.0644 3.0644c -0.0000,1.6924 1.3720,3.0644 3.0644 3.0644c 1.6924,0.0000 3.0644,-1.3720 3.0644 -3.0644Z"/></g><g stroke-linejoin="miter" stroke-opacity="0.5" fill-opacity="0.5" stroke="rgb(128,128,128)" stroke-width="4.354385623403532" fill="rgb(93,165,218)" stroke-linecap="butt" stroke-miterlimit="10.0"><path d="M 360.3649,97.0378 c 0.0000,-1.6924 -1.3720,-3.0644 -3.0644 -3.0644c -1.6924,-0.0000 -3.0644,1.3720 -3.0644 3.0644c -0.0000,1.6924 1.3720,3.0644 3.0644 3.0644c 1.6924,0.0000 3.0644,-1.3720 3.0644 -3.0644Z"/></g><g stroke-linejoin="miter" stroke-opacity="0.5" fill-opacity="0.5" stroke="rgb(128,128,128)" stroke-width="4.354385623403532" fill="rgb(93,165,218)" stroke-linecap="butt" stroke-miterlimit="10.0"><path d="M 349.4548,97.0378 c 0.0000,-1.6924 -1.3720,-3.0644 -3.0644 -3.0644c -1.6924,-0.0000 -3.0644,1.3720 -3.0644 3.0644c -0.0000,1.6924 1.3720,3.0644 3.0644 3.0644c 1.6924,0.0000 3.0644,-1.3720 3.0644 -3.0644Z"/></g><g stroke-linejoin="miter" stroke-opacity="0.5" fill-opacity="0.5" stroke="rgb(128,128,128)" stroke-width="4.354385623403532" fill="rgb(93,165,218)" stroke-linecap="butt" stroke-miterlimit="10.0"><path d="M 340.2430,97.0378 c 0.0000,-1.6924 -1.3720,-3.0644 -3.0644 -3.0644c -1.6924,-0.0000 -3.0644,1.3720 -3.0644 3.0644c -0.0000,1.6924 1.3720,3.0644 3.0644 3.0644c 1.6924,0.0000 3.0644,-1.3720 3.0644 -3.0644Z"/></g><g stroke-linejoin="miter" stroke-opacity="0.5" fill-opacity="0.5" stroke="rgb(128,128,128)" stroke-width="4.354385623403532" fill="rgb(93,165,218)" stroke-linecap="butt" stroke-miterlimit="10.0"><path d="M 331.7830,97.0378 c 0.0000,-1.6924 -1.3720,-3.0644 -3.0644 -3.0644c -1.6924,-0.0000 -3.0644,1.3720 -3.0644 3.0644c -0.0000,1.6924 1.3720,3.0644 3.0644 3.0644c 1.6924,0.0000 3.0644,-1.3720 3.0644 -3.0644Z"/></g><g stroke-linejoin="miter" stroke-opacity="0.5" fill-opacity="0.5" stroke="rgb(128,128,128)" stroke-width="4.354385623403532" fill="rgb(93,165,218)" stroke-linecap="butt" stroke-miterlimit="10.0"><path d="M 324.2436,97.0378 c 0.0000,-1.6924 -1.3720,-3.0644 -3.0644 -3.0644c -1.6924,-0.0000 -3.0644,1.3720 -3.0644 3.0644c -0.0000,1.6924 1.3720,3.0644 3.0644 3.0644c 1.6924,0.0000 3.0644,-1.3720 3.0644 -3.0644Z"/></g><g stroke-linejoin="miter" stroke-opacity="0.5" fill-opacity="0.5" stroke="rgb(128,128,128)" stroke-width="4.354385623403532" fill="rgb(93,165,218)" stroke-linecap="butt" stroke-miterlimit="10.0"><path d="M 316.9766,97.0378 c 0.0000,-1.6924 -1.3720,-3.0644 -3.0644 -3.0644c -1.6924,-0.0000 -3.0644,1.3720 -3.0644 3.0644c -0.0000,1.6924 1.3720,3.0644 3.0644 3.0644c 1.6924,0.0000 3.0644,-1.3720 3.0644 -3.0644Z"/></g><g stroke-linejoin="miter" stroke-opacity="0.5" fill-opacity="0.5" stroke="rgb(128,128,128)" stroke-width="4.354385623403532" fill="rgb(93,165,218)" stroke-linecap="butt" stroke-miterlimit="10.0"><path d="M 309.8927,97.0378 c 0.0000,-1.6924 -1.3720,-3.0644 -3.0644 -3.0644c -1.6924,-0.0000 -3.0644,1.3720 -3.0644 3.0644c -0.0000,1.6924 1.3720,3.0644 3.0644 3.0644c 1.6924,0.0000 3.0644,-1.3720 3.0644 -3.0644Z"/></g><g stroke-linejoin="miter" stroke-opacity="0.5" fill-opacity="0.5" stroke="rgb(128,128,128)" stroke-width="4.354385623403532" fill="rgb(93,165,218)" stroke-linecap="butt" stroke-miterlimit="10.0"><path d="M 302.8520,97.0378 c 0.0000,-1.6924 -1.3720,-3.0644 -3.0644 -3.0644c -1.6924,-0.0000 -3.0644,1.3720 -3.0644 3.0644c -0.0000,1.6924 1.3720,3.0644 3.0644 3.0644c 1.6924,0.0000 3.0644,-1.3720 3.0644 -3.0644Z"/></g><g stroke-linejoin="miter" stroke-opacity="0.5" fill-opacity="0.5" stroke="rgb(128,128,128)" stroke-width="4.354385623403532" fill="rgb(93,165,218)" stroke-linecap="butt" stroke-miterlimit="10.0"><path d="M 295.8689,97.0378 c 0.0000,-1.6924 -1.3720,-3.0644 -3.0644 -3.0644c -1.6924,-0.0000 -3.0644,1.3720 -3.0644 3.0644c -0.0000,1.6924 1.3720,3.0644 3.0644 3.0644c 1.6924,0.0000 3.0644,-1.3720 3.0644 -3.0644Z"/></g><g stroke-linejoin="miter" stroke-opacity="0.5" fill-opacity="0.5" stroke="rgb(128,128,128)" stroke-width="4.354385623403532" fill="rgb(93,165,218)" stroke-linecap="butt" stroke-miterlimit="10.0"><path d="M 288.8309,97.0378 c 0.0000,-1.6924 -1.3720,-3.0644 -3.0644 -3.0644c -1.6924,-0.0000 -3.0644,1.3720 -3.0644 3.0644c -0.0000,1.6924 1.3720,3.0644 3.0644 3.0644c 1.6924,0.0000 3.0644,-1.3720 3.0644 -3.0644Z"/></g><g stroke-linejoin="miter" stroke-opacity="0.5" fill-opacity="0.5" stroke="rgb(128,128,128)" stroke-width="4.354385623403532" fill="rgb(93,165,218)" stroke-linecap="butt" stroke-miterlimit="10.0"><path d="M 281.3602,97.0378 c 0.0000,-1.6924 -1.3720,-3.0644 -3.0644 -3.0644c -1.6924,-0.0000 -3.0644,1.3720 -3.0644 3.0644c -0.0000,1.6924 1.3720,3.0644 3.0644 3.0644c 1.6924,0.0000 3.0644,-1.3720 3.0644 -3.0644Z"/></g><g stroke-linejoin="miter" stroke-opacity="0.5" fill-opacity="0.5" stroke="rgb(128,128,128)" stroke-width="4.354385623403532" fill="rgb(93,165,218)" stroke-linecap="butt" stroke-miterlimit="10.0"><path d="M 273.5684,97.0378 c 0.0000,-1.6924 -1.3720,-3.0644 -3.0644 -3.0644c -1.6924,-0.0000 -3.0644,1.3720 -3.0644 3.0644c -0.0000,1.6924 1.3720,3.0644 3.0644 3.0644c 1.6924,0.0000 3.0644,-1.3720 3.0644 -3.0644Z"/></g><g stroke-linejoin="miter" stroke-opacity="0.5" fill-opacity="0.5" stroke="rgb(128,128,128)" stroke-width="4.354385623403532" fill="rgb(93,165,218)" stroke-linecap="butt" stroke-miterlimit="10.0"><path d="M 265.1836,97.0378 c 0.0000,-1.6924 -1.3720,-3.0644 -3.0644 -3.0644c -1.6924,-0.0000 -3.0644,1.3720 -3.0644 3.0644c -0.0000,1.6924 1.3720,3.0644 3.0644 3.0644c 1.6924,0.0000 3.0644,-1.3720 3.0644 -3.0644Z"/></g><g stroke-linejoin="miter" stroke-opacity="0.5" fill-opacity="0.5" stroke="rgb(128,128,128)" stroke-width="4.354385623403532" fill="rgb(93,165,218)" stroke-linecap="butt" stroke-miterlimit="10.0"><path d="M 256.0084,97.0378 c 0.0000,-1.6924 -1.3720,-3.0644 -3.0644 -3.0644c -1.6924,-0.0000 -3.0644,1.3720 -3.0644 3.0644c -0.0000,1.6924 1.3720,3.0644 3.0644 3.0644c 1.6924,0.0000 3.0644,-1.3720 3.0644 -3.0644Z"/></g><g stroke-linejoin="miter" stroke-opacity="0.5" fill-opacity="0.5" stroke="rgb(128,128,128)" stroke-width="4.354385623403532" fill="rgb(93,165,218)" stroke-linecap="butt" stroke-miterlimit="10.0"><path d="M 245.2814,97.0378 c 0.0000,-1.6924 -1.3720,-3.0644 -3.0644 -3.0644c -1.6924,-0.0000 -3.0644,1.3720 -3.0644 3.0644c -0.0000,1.6924 1.3720,3.0644 3.0644 3.0644c 1.6924,0.0000 3.0644,-1.3720 3.0644 -3.0644Z"/></g><g stroke-linejoin="miter" stroke-opacity="0.5" fill-opacity="0.5" stroke="rgb(128,128,128)" stroke-width="4.354385623403532" fill="rgb(93,165,218)" stroke-linecap="butt" stroke-miterlimit="10.0"><path d="M 231.7821,97.0378 c 0.0000,-1.6924 -1.3720,-3.0644 -3.0644 -3.0644c -1.6924,-0.0000 -3.0644,1.3720 -3.0644 3.0644c -0.0000,1.6924 1.3720,3.0644 3.0644 3.0644c 1.6924,0.0000 3.0644,-1.3720 3.0644 -3.0644Z"/></g><g stroke-linejoin="miter" stroke-opacity="0.5" fill-opacity="0.5" stroke="rgb(128,128,128)" stroke-width="4.354385623403532" fill="rgb(93,165,218)" stroke-linecap="butt" stroke-miterlimit="10.0"><path d="M 211.6116,97.0378 c 0.0000,-1.6924 -1.3720,-3.0644 -3.0644 -3.0644c -1.6924,-0.0000 -3.0644,1.3720 -3.0644 3.0644c -0.0000,1.6924 1.3720,3.0644 3.0644 3.0644c 1.6924,0.0000 3.0644,-1.3720 3.0644 -3.0644Z"/></g><g stroke-linejoin="miter" stroke-opacity="0.5" fill-opacity="0.5" stroke="rgb(128,128,128)" stroke-width="4.354385623403532" fill="rgb(93,165,218)" stroke-linecap="butt" stroke-miterlimit="10.0"><path d="M 47.7017,97.0378 c 0.0000,-1.6924 -1.3720,-3.0644 -3.0644 -3.0644c -1.6924,-0.0000 -3.0644,1.3720 -3.0644 3.0644c -0.0000,1.6924 1.3720,3.0644 3.0644 3.0644c 1.6924,0.0000 3.0644,-1.3720 3.0644 -3.0644Z"/></g><g stroke-linejoin="miter" stroke-opacity="0.0" fill-opacity="0.1" stroke="rgb(0,0,0)" stroke-width="0.0" fill="rgb(0,0,0)" stroke-linecap="butt" stroke-miterlimit="10.0"><path d="M 555.3626,113.3810 l -0.0000,-2.0429 h -510.7252 l -0.0000,2.0429 Z"/></g><g stroke-linejoin="miter" stroke-opacity="1.0" fill-opacity="0.6" stroke="rgb(0,0,0)" fill-rule="evenodd" stroke-width="0.0" fill="rgb(0,0,0)" stroke-linecap="butt" stroke-miterlimit="10.0"><path d="M 517.3990,134.8645 ZM 522.8620,127.3476 c 0.0000,-0.1482 0.0212,-0.3176 0.2117 -0.4235c 0.2329,-0.1694 0.6141,-0.3600 0.9317 -0.3600c 0.2753,-0.0000 0.2964,0.2329 0.2964 0.6564v 3.4091 h 1.7151 l -0.1270,0.9952 h -1.5881 v 1.7575 c 0.0000,0.5929 0.0847,0.8893 0.6988 0.8893h 0.5717 c 0.1270,-0.0000 0.1482,0.1059 0.1482 0.1482v 0.4658 c 0.0000,-0.0000 -1.3552,-0.0423 -2.2445 -0.0423c -0.8046,-0.0000 -2.0539,0.0423 -2.0539 0.0423v -0.4658 c 0.0000,-0.0423 0.0212,-0.1482 0.1482 -0.1482h 0.5717 c 0.6564,-0.0000 0.7199,-0.2753 0.7199 -0.8893v -1.7575 h -4.1502 c -0.0847,-0.0000 -0.1270,-0.0423 -0.1906 -0.1270l -0.1694,-0.2329 l -0.2541,-0.4447 c -0.0212,-0.0000 -0.0212,-0.0212 -0.0212 -0.0423c 0.0000,-0.0212 0.0212,-0.0423 0.0423 -0.0635c 1.3763,-1.5246 3.8114,-6.2464 4.5737 -7.9827c 0.0212,-0.0847 0.0635,-0.1059 0.1482 -0.1059c 0.0212,-0.0000 0.4870,0.1906 0.7411 0.2329c -0.9528,2.5621 -2.5197,5.3148 -4.0655 7.7710h 3.3455 v -3.2820 Z"/></g><g stroke-linejoin="miter" stroke-opacity="0.6" fill-opacity="0.0" stroke="rgb(0,0,0)" stroke-width="1.451461874467844" fill="rgb(0,0,0)" stroke-linecap="butt" stroke-miterlimit="10.0"><path d="M 522.0362,111.3381 v 3.0644 "/></g><g stroke-linejoin="miter" stroke-opacity="1.0" fill-opacity="0.6" stroke="rgb(0,0,0)" fill-rule="evenodd" stroke-width="0.0" fill="rgb(0,0,0)" stroke-linecap="butt" stroke-miterlimit="10.0"><path d="M 461.8093,134.8645 ZM 466.3830,123.2821 c -0.5294,-0.0000 -2.0751,0.2964 -2.0751 1.5881c 0.0000,0.3811 -0.1482,1.0375 -0.7199 1.0375c -0.5505,-0.0000 -0.5929,-0.6141 -0.5929 -0.6776c 0.0000,-0.6564 0.8681,-2.6044 3.8114 -2.6044c 2.0539,-0.0000 2.6680,1.2916 2.6680 2.1386c 0.0000,0.5294 -0.1694,1.5881 -2.0751 2.7950c 1.1858,0.1906 2.7527,1.0587 2.7527 3.2608c 0.0000,2.7950 -2.1174,4.2984 -4.5101 4.2984c -1.2069,-0.0000 -2.9009,-0.5294 -2.9009 -1.3340c 0.0000,-0.3176 0.3176,-0.6776 0.7411 -0.6776c 0.4023,-0.0000 0.5929,0.2117 0.7835 0.4870c 0.2329,0.3600 0.6141,0.8681 1.6304 0.8681c 0.6988,-0.0000 2.6891,-0.6988 2.6891 -3.3667c 0.0000,-2.2657 -1.5881,-2.6256 -2.7315 -2.6256c -0.1906,-0.0000 -0.4235,0.0423 -0.6564 0.0847l -0.0847,-0.6352 c 1.6304,-0.2753 2.9856,-1.8633 2.9856 -2.8374c 0.0000,-1.2069 -0.8470,-1.7998 -1.7151 -1.7998Z"/></g><g stroke-linejoin="miter" stroke-opacity="0.6" fill-opacity="0.0" stroke="rgb(0,0,0)" stroke-width="1.451461874467844" fill="rgb(0,0,0)" stroke-linecap="butt" stroke-miterlimit="10.0"><path d="M 466.4465,111.3381 v 3.0644 "/></g><g stroke-linejoin="miter" stroke-opacity="1.0" fill-opacity="0.6" stroke="rgb(0,0,0)" fill-rule="evenodd" stroke-width="0.0" fill="rgb(0,0,0)" stroke-linecap="butt" stroke-miterlimit="10.0"><path d="M 406.2197,134.8645 ZM 407.4478,125.4843 c 0.0000,-1.2069 1.1646,-2.8585 3.3879 -2.8585c 1.6304,-0.0000 3.5361,0.6141 3.5361 3.0491c 0.0000,1.6093 -0.8258,2.4139 -1.9692 3.5149l -2.0116,1.9480 c -0.1059,0.1059 -1.5246,1.5034 -1.5246 2.4986h 3.5996 c 0.7199,-0.0000 1.1011,-0.3600 1.3975 -1.5246l 0.5294,0.0847 l -0.4235,2.6680 h -6.5429 c 0.0000,-1.1858 0.1906,-2.0963 2.1598 -4.1078l 1.4822,-1.4610 c 1.1858,-1.2069 1.6728,-2.2445 1.6728 -3.5361c 0.0000,-1.9269 -1.3128,-2.4774 -2.0327 -2.4774c -1.4610,-0.0000 -1.8633,0.7623 -1.8633 1.2705c 0.0000,0.1694 0.0423,0.3388 0.0847 0.4870c 0.0423,0.1482 0.0847,0.2964 0.0847 0.4658c 0.0000,0.5505 -0.4235,0.7623 -0.7623 0.7623c -0.4658,-0.0000 -0.8046,-0.3600 -0.8046 -0.7835Z"/></g><g stroke-linejoin="miter" stroke-opacity="0.6" fill-opacity="0.0" stroke="rgb(0,0,0)" stroke-width="1.451461874467844" fill="rgb(0,0,0)" stroke-linecap="butt" stroke-miterlimit="10.0"><path d="M 410.8568,111.3381 v 3.0644 "/></g><g stroke-linejoin="miter" stroke-opacity="1.0" fill-opacity="0.6" stroke="rgb(0,0,0)" fill-rule="evenodd" stroke-width="0.0" fill="rgb(0,0,0)" stroke-linecap="butt" stroke-miterlimit="10.0"><path d="M 350.6300,134.8645 ZM 354.6108,124.7643 c -0.4023,-0.0000 -1.3340,0.3811 -1.7998 0.5929l -0.2541,-0.6564 c 1.8633,-0.8681 2.5833,-1.3128 3.6420 -2.0751h 0.4023 v 10.6507 c 0.0000,0.7623 0.1059,0.9740 0.8046 0.9740h 1.1011 c 0.0635,-0.0000 0.1694,0.0423 0.1694 0.1694v 0.4658 l -2.9009,-0.0423 l -2.9432,0.0423 v -0.4658 c 0.0212,-0.0635 0.0423,-0.1694 0.1694 -0.1694h 1.2705 c 0.8046,-0.0000 0.8046,-0.3600 0.8046 -0.9740v -7.2840 c 0.0000,-0.7199 0.0000,-1.2281 -0.4658 -1.2281Z"/></g><g stroke-linejoin="miter" stroke-opacity="0.6" fill-opacity="0.0" stroke="rgb(0,0,0)" stroke-width="1.451461874467844" fill="rgb(0,0,0)" stroke-linecap="butt" stroke-miterlimit="10.0"><path d="M 355.2672,111.3381 v 3.0644 "/></g><g stroke-linejoin="miter" stroke-opacity="1.0" fill-opacity="0.6" stroke="rgb(0,0,0)" fill-rule="evenodd" stroke-width="0.0" fill="rgb(0,0,0)" stroke-linecap="butt" stroke-miterlimit="10.0"><path d="M 295.0403,134.8645 ZM 299.6775,123.3668 c -0.9105,-0.0000 -2.2445,0.8893 -2.2445 5.8229c 0.0000,1.7363 0.3176,5.2301 2.1810 5.2301c 0.3600,-0.0000 1.3763,-0.2329 1.8210 -1.8845c 0.2753,-1.0164 0.4235,-2.2868 0.4235 -4.1290c 0.0000,-2.6891 -0.6776,-4.1925 -1.2916 -4.7219c -0.2329,-0.2117 -0.5505,-0.3176 -0.8893 -0.3176ZM 299.6775,123.3668 ZM 299.5928,135.1186 c -2.2657,-0.0000 -3.7902,-2.9009 -3.7902 -6.1406c 0.0000,-3.9596 1.8845,-6.3523 3.8749 -6.3523c 0.9105,-0.0000 1.8210,0.5717 2.4350 1.3975c 0.8893,1.1858 1.3552,2.7738 1.3552 4.7642c 0.0000,4.7007 -2.3292,6.3311 -3.8749 6.3311Z"/></g><g stroke-linejoin="miter" stroke-opacity="0.6" fill-opacity="0.0" stroke="rgb(0,0,0)" stroke-width="1.451461874467844" fill="rgb(0,0,0)" stroke-linecap="butt" stroke-miterlimit="10.0"><path d="M 299.6775,111.3381 v 3.0644 "/></g><g stroke-linejoin="miter" stroke-opacity="1.0" fill-opacity="0.6" stroke="rgb(0,0,0)" fill-rule="evenodd" stroke-width="0.0" fill="rgb(0,0,0)" stroke-linecap="butt" stroke-miterlimit="10.0"><path d="M 235.9251,134.8645 ZM 241.7269,129.8673 h -4.7854 c -0.1906,-0.0000 -0.3176,-0.1694 -0.3176 -0.3600c 0.0000,-0.3388 0.2753,-0.7835 0.5294 -0.7835h 4.8489 c 0.2117,-0.0000 0.2964,0.1906 0.2964 0.3811c 0.0000,0.2329 -0.2964,0.7623 -0.5717 0.7623ZM 242.9762,134.8645 ZM 246.9569,124.7643 c -0.4023,-0.0000 -1.3340,0.3811 -1.7998 0.5929l -0.2541,-0.6564 c 1.8633,-0.8681 2.5833,-1.3128 3.6420 -2.0751h 0.4023 v 10.6507 c 0.0000,0.7623 0.1059,0.9740 0.8046 0.9740h 1.1011 c 0.0635,-0.0000 0.1694,0.0423 0.1694 0.1694v 0.4658 l -2.9009,-0.0423 l -2.9432,0.0423 v -0.4658 c 0.0212,-0.0635 0.0423,-0.1694 0.1694 -0.1694h 1.2705 c 0.8046,-0.0000 0.8046,-0.3600 0.8046 -0.9740v -7.2840 c 0.0000,-0.7199 0.0000,-1.2281 -0.4658 -1.2281Z"/></g><g stroke-linejoin="miter" stroke-opacity="0.6" fill-opacity="0.0" stroke="rgb(0,0,0)" stroke-width="1.451461874467844" fill="rgb(0,0,0)" stroke-linecap="butt" stroke-miterlimit="10.0"><path d="M 244.0878,111.3381 v 3.0644 "/></g><g stroke-linejoin="miter" stroke-opacity="1.0" fill-opacity="0.6" stroke="rgb(0,0,0)" fill-rule="evenodd" stroke-width="0.0" fill="rgb(0,0,0)" stroke-linecap="butt" stroke-miterlimit="10.0"><path d="M 180.3354,134.8645 ZM 186.1372,129.8673 h -4.7854 c -0.1906,-0.0000 -0.3176,-0.1694 -0.3176 -0.3600c 0.0000,-0.3388 0.2753,-0.7835 0.5294 -0.7835h 4.8489 c 0.2117,-0.0000 0.2964,0.1906 0.2964 0.3811c 0.0000,0.2329 -0.2964,0.7623 -0.5717 0.7623ZM 187.3865,134.8645 ZM 188.6146,125.4843 c 0.0000,-1.2069 1.1646,-2.8585 3.3879 -2.8585c 1.6304,-0.0000 3.5361,0.6141 3.5361 3.0491c 0.0000,1.6093 -0.8258,2.4139 -1.9692 3.5149l -2.0116,1.9480 c -0.1059,0.1059 -1.5246,1.5034 -1.5246 2.4986h 3.5996 c 0.7199,-0.0000 1.1011,-0.3600 1.3975 -1.5246l 0.5294,0.0847 l -0.4235,2.6680 h -6.5429 c 0.0000,-1.1858 0.1906,-2.0963 2.1598 -4.1078l 1.4822,-1.4610 c 1.1858,-1.2069 1.6728,-2.2445 1.6728 -3.5361c 0.0000,-1.9269 -1.3128,-2.4774 -2.0327 -2.4774c -1.4610,-0.0000 -1.8633,0.7623 -1.8633 1.2705c 0.0000,0.1694 0.0423,0.3388 0.0847 0.4870c 0.0423,0.1482 0.0847,0.2964 0.0847 0.4658c 0.0000,0.5505 -0.4235,0.7623 -0.7623 0.7623c -0.4658,-0.0000 -0.8046,-0.3600 -0.8046 -0.7835Z"/></g><g stroke-linejoin="miter" stroke-opacity="0.6" fill-opacity="0.0" stroke="rgb(0,0,0)" stroke-width="1.451461874467844" fill="rgb(0,0,0)" stroke-linecap="butt" stroke-miterlimit="10.0"><path d="M 188.4981,111.3381 v 3.0644 "/></g><g stroke-linejoin="miter" stroke-opacity="1.0" fill-opacity="0.6" stroke="rgb(0,0,0)" fill-rule="evenodd" stroke-width="0.0" fill="rgb(0,0,0)" stroke-linecap="butt" stroke-miterlimit="10.0"><path d="M 124.7457,134.8645 ZM 130.5475,129.8673 h -4.7854 c -0.1906,-0.0000 -0.3176,-0.1694 -0.3176 -0.3600c 0.0000,-0.3388 0.2753,-0.7835 0.5294 -0.7835h 4.8489 c 0.2117,-0.0000 0.2964,0.1906 0.2964 0.3811c 0.0000,0.2329 -0.2964,0.7623 -0.5717 0.7623ZM 131.7968,134.8645 ZM 136.3705,123.2821 c -0.5294,-0.0000 -2.0751,0.2964 -2.0751 1.5881c 0.0000,0.3811 -0.1482,1.0375 -0.7199 1.0375c -0.5505,-0.0000 -0.5929,-0.6141 -0.5929 -0.6776c 0.0000,-0.6564 0.8681,-2.6044 3.8114 -2.6044c 2.0539,-0.0000 2.6680,1.2916 2.6680 2.1386c 0.0000,0.5294 -0.1694,1.5881 -2.0751 2.7950c 1.1858,0.1906 2.7527,1.0587 2.7527 3.2608c 0.0000,2.7950 -2.1174,4.2984 -4.5101 4.2984c -1.2069,-0.0000 -2.9009,-0.5294 -2.9009 -1.3340c 0.0000,-0.3176 0.3176,-0.6776 0.7411 -0.6776c 0.4023,-0.0000 0.5929,0.2117 0.7835 0.4870c 0.2329,0.3600 0.6141,0.8681 1.6304 0.8681c 0.6988,-0.0000 2.6891,-0.6988 2.6891 -3.3667c 0.0000,-2.2657 -1.5881,-2.6256 -2.7315 -2.6256c -0.1906,-0.0000 -0.4235,0.0423 -0.6564 0.0847l -0.0847,-0.6352 c 1.6304,-0.2753 2.9856,-1.8633 2.9856 -2.8374c 0.0000,-1.2069 -0.8470,-1.7998 -1.7151 -1.7998Z"/></g><g stroke-linejoin="miter" stroke-opacity="0.6" fill-opacity="0.0" stroke="rgb(0,0,0)" stroke-width="1.451461874467844" fill="rgb(0,0,0)" stroke-linecap="butt" stroke-miterlimit="10.0"><path d="M 132.9085,111.3381 v 3.0644 "/></g><g stroke-linejoin="miter" stroke-opacity="1.0" fill-opacity="0.6" stroke="rgb(0,0,0)" fill-rule="evenodd" stroke-width="0.0" fill="rgb(0,0,0)" stroke-linecap="butt" stroke-miterlimit="10.0"><path d="M 69.1561,134.8645 ZM 74.9578,129.8673 h -4.7854 c -0.1906,-0.0000 -0.3176,-0.1694 -0.3176 -0.3600c 0.0000,-0.3388 0.2753,-0.7835 0.5294 -0.7835h 4.8489 c 0.2117,-0.0000 0.2964,0.1906 0.2964 0.3811c 0.0000,0.2329 -0.2964,0.7623 -0.5717 0.7623ZM 76.2071,134.8645 ZM 81.6701,127.3476 c 0.0000,-0.1482 0.0212,-0.3176 0.2117 -0.4235c 0.2329,-0.1694 0.6141,-0.3600 0.9317 -0.3600c 0.2753,-0.0000 0.2964,0.2329 0.2964 0.6564v 3.4091 h 1.7151 l -0.1270,0.9952 h -1.5881 v 1.7575 c 0.0000,0.5929 0.0847,0.8893 0.6988 0.8893h 0.5717 c 0.1270,-0.0000 0.1482,0.1059 0.1482 0.1482v 0.4658 c 0.0000,-0.0000 -1.3552,-0.0423 -2.2445 -0.0423c -0.8046,-0.0000 -2.0539,0.0423 -2.0539 0.0423v -0.4658 c 0.0000,-0.0423 0.0212,-0.1482 0.1482 -0.1482h 0.5717 c 0.6564,-0.0000 0.7199,-0.2753 0.7199 -0.8893v -1.7575 h -4.1502 c -0.0847,-0.0000 -0.1270,-0.0423 -0.1906 -0.1270l -0.1694,-0.2329 l -0.2541,-0.4447 c -0.0212,-0.0000 -0.0212,-0.0212 -0.0212 -0.0423c 0.0000,-0.0212 0.0212,-0.0423 0.0423 -0.0635c 1.3763,-1.5246 3.8114,-6.2464 4.5737 -7.9827c 0.0212,-0.0847 0.0635,-0.1059 0.1482 -0.1059c 0.0212,-0.0000 0.4870,0.1906 0.7411 0.2329c -0.9528,2.5621 -2.5197,5.3148 -4.0655 7.7710h 3.3455 v -3.2820 Z"/></g><g stroke-linejoin="miter" stroke-opacity="0.6" fill-opacity="0.0" stroke="rgb(0,0,0)" stroke-width="1.451461874467844" fill="rgb(0,0,0)" stroke-linecap="butt" stroke-miterlimit="10.0"><path d="M 77.3188,111.3381 v 3.0644 "/></g><g stroke-linejoin="miter" stroke-opacity="0.0" fill-opacity="0.0" stroke="rgb(0,0,0)" stroke-width="0.0" fill="rgb(0,0,0)" stroke-linecap="butt" stroke-miterlimit="10.0"><path d="M 555.3626,107.2523 l -0.0000,-102.1450 h -510.7252 l -0.0000,102.1450 Z"/></g></svg>