<?xml version="1.0" encoding="UTF-8"?>
<!DOCTYPE svg PUBLIC "-//W3C//DTD SVG 1.1//EN"
    "http://www.w3.org/Graphics/SVG/1.1/DTD/svg11.dtd">
<svg xmlns="http://www.w3.org/2000/svg" height="600.0000" stroke-opacity="1" viewBox="0 0 400 600" font-size="1" width="400.0000" xmlns:xlink="http://www.w3.org/1999/xlink" stroke="rgb(0,0,0)" version="1.1">
  <defs>
  </defs>
  <g stroke-linejoin="miter" stroke-opacity="0.0" fill-opacity="0.0" stroke="rgb(0,0,0)" fill-rule="evenodd" stroke-width="0.0" fill="rgb(0,0,0)" stroke-linecap="butt" font-family="san-serif" stroke-miterlimit="10.0">
    <path d="M 380.7444,485.3644 l -0.0000,-44.7393 h -357.9144 l -0.0000,44.7393 Z"/>
  </g>
  <g stroke-linejoin="miter" stroke-opacity="1.0" fill-opacity="0.33" font-size="40.672088837138496px" stroke="rgb(0,0,0)" fill-rule="evenodd" stroke-width="0.0" fill="rgb(0,0,0)" stroke-linecap="butt" font-family="san-serif" stroke-miterlimit="10.0">
    <text dominant-baseline="text-before-edge" transform="matrix(1.0000,-0.0000,0.0000,1.0000,380.7444,440.6251)" stroke="none" text-anchor="end">abcdefghij012345
    </text>
  </g>
  <g stroke-linejoin="miter" stroke-opacity="1.0" fill-opacity="1.0" stroke="rgb(0,0,0)" stroke-width="0.0" fill="rgb(0,0,255)" stroke-linecap="butt" stroke-miterlimit="10.0">
    <path d="M 381.8182,450.7931 c 0.0000,-0.5930 -0.4807,-1.0737 -1.0737 -1.0737c -0.5930,-0.0000 -1.0737,0.4807 -1.0737 1.0737c -0.0000,0.5930 0.4807,1.0737 1.0737 1.0737c 0.5930,0.0000 1.0737,-0.4807 1.0737 -1.0737Z"/>
  </g>
  <g stroke-linejoin="miter" stroke-opacity="0.0" fill-opacity="0.0" stroke="rgb(0,0,0)" fill-rule="evenodd" stroke-width="0.0" fill="rgb(0,0,0)" stroke-linecap="butt" stroke-miterlimit="10.0">
    <path d="M 380.7444,485.8133 l -0.0000,-45.3203 h -362.5626 l -0.0000,45.3203 Z"/>
  </g>
  <g stroke-linejoin="miter" stroke-opacity="1.0" fill-opacity="1.0" font-size="41.20029778307536px" stroke="rgb(0,0,0)" fill-rule="evenodd" stroke-width="0.0" fill="rgb(255,0,0)" stroke-linecap="butt" stroke-miterlimit="10.0">
    <text dominant-baseline="text-before-edge" transform="matrix(1.0000,-0.0000,0.0000,1.0000,380.7444,440.4930)" stroke="none" text-anchor="end">abcdefghij012345
    </text>
  </g>
  <g stroke-linejoin="miter" stroke-opacity="1.0" fill-opacity="1.0" stroke="rgb(0,0,0)" stroke-width="0.0" fill="rgb(255,0,0)" stroke-linecap="butt" stroke-miterlimit="10.0">
    <path d="M 381.1070,450.7931 c 0.0000,-0.2002 -0.1623,-0.3626 -0.3626 -0.3626c -0.2002,-0.0000 -0.3626,0.1623 -0.3626 0.3626c -0.0000,0.2002 0.1623,0.3626 0.3626 0.3626c 0.2002,0.0000 0.3626,-0.1623 0.3626 -0.3626Z"/>
  </g>
  <g stroke-linejoin="miter" stroke-opacity="0.0" fill-opacity="0.0" stroke="rgb(0,0,0)" fill-rule="evenodd" stroke-width="0.0" fill="rgb(0,0,0)" stroke-linecap="butt" font-family="san-serif" stroke-miterlimit="10.0">
    <path d="M 380.7444,440.1497 l -0.0000,-44.7393 h -357.9144 l -0.0000,44.7393 Z"/>
  </g>
  <g stroke-linejoin="miter" stroke-opacity="1.0" fill-opacity="0.33" font-size="40.672088837138496px" stroke="rgb(0,0,0)" fill-rule="evenodd" stroke-width="0.0" fill="rgb(0,0,0)" stroke-linecap="butt" font-family="san-serif" stroke-miterlimit="10.0">
    <text dominant-baseline="middle" transform="matrix(1.0000,-0.0000,0.0000,1.0000,380.7444,417.7800)" stroke="none" text-anchor="end">abcdefghij012345
    </text>
  </g>
  <g stroke-linejoin="miter" stroke-opacity="1.0" fill-opacity="1.0" stroke="rgb(0,0,0)" stroke-width="0.0" fill="rgb(0,0,255)" stroke-linecap="butt" stroke-miterlimit="10.0">
    <path d="M 381.8182,413.7128 c 0.0000,-0.5930 -0.4807,-1.0737 -1.0737 -1.0737c -0.5930,-0.0000 -1.0737,0.4807 -1.0737 1.0737c -0.0000,0.5930 0.4807,1.0737 1.0737 1.0737c 0.5930,0.0000 1.0737,-0.4807 1.0737 -1.0737Z"/>
  </g>
  <g stroke-linejoin="miter" stroke-opacity="0.0" fill-opacity="0.0" stroke="rgb(0,0,0)" fill-rule="evenodd" stroke-width="0.0" fill="rgb(0,0,0)" stroke-linecap="butt" stroke-miterlimit="10.0">
    <path d="M 380.7444,440.4930 l -0.0000,-45.3203 h -362.5626 l -0.0000,45.3203 Z"/>
  </g>
  <g stroke-linejoin="miter" stroke-opacity="1.0" fill-opacity="1.0" font-size="41.20029778307536px" stroke="rgb(0,0,0)" fill-rule="evenodd" stroke-width="0.0" fill="rgb(255,0,0)" stroke-linecap="butt" stroke-miterlimit="10.0">
    <text dominant-baseline="middle" transform="matrix(1.0000,-0.0000,0.0000,1.0000,380.7444,417.8329)" stroke="none" text-anchor="end">abcdefghij012345
    </text>
  </g>
  <g stroke-linejoin="miter" stroke-opacity="1.0" fill-opacity="1.0" stroke="rgb(0,0,0)" stroke-width="0.0" fill="rgb(255,0,0)" stroke-linecap="butt" stroke-miterlimit="10.0">
    <path d="M 381.1070,413.7128 c 0.0000,-0.2002 -0.1623,-0.3626 -0.3626 -0.3626c -0.2002,-0.0000 -0.3626,0.1623 -0.3626 0.3626c -0.0000,0.2002 0.1623,0.3626 0.3626 0.3626c 0.2002,0.0000 0.3626,-0.1623 0.3626 -0.3626Z"/>
  </g>
  <g stroke-linejoin="miter" stroke-opacity="0.0" fill-opacity="0.0" stroke="rgb(0,0,0)" fill-rule="evenodd" stroke-width="0.0" fill="rgb(0,0,0)" stroke-linecap="butt" font-family="san-serif" stroke-miterlimit="10.0">
    <path d="M 380.7444,395.0142 l -0.0000,-44.7393 h -357.9144 l -0.0000,44.7393 Z"/>
  </g>
  <g stroke-linejoin="miter" stroke-opacity="1.0" fill-opacity="0.33" font-size="40.672088837138496px" stroke="rgb(0,0,0)" fill-rule="evenodd" stroke-width="0.0" fill="rgb(0,0,0)" stroke-linecap="butt" font-family="san-serif" stroke-miterlimit="10.0">
    <text dominant-baseline="middle" transform="matrix(1.0000,-0.0000,0.0000,1.0000,380.7444,372.6446)" stroke="none" text-anchor="end">abcdefghij012345
    </text>
  </g>
  <g stroke-linejoin="miter" stroke-opacity="1.0" fill-opacity="1.0" stroke="rgb(0,0,0)" stroke-width="0.0" fill="rgb(0,0,255)" stroke-linecap="butt" stroke-miterlimit="10.0">
    <path d="M 381.8182,382.8126 c 0.0000,-0.5930 -0.4807,-1.0737 -1.0737 -1.0737c -0.5930,-0.0000 -1.0737,0.4807 -1.0737 1.0737c -0.0000,0.5930 0.4807,1.0737 1.0737 1.0737c 0.5930,0.0000 1.0737,-0.4807 1.0737 -1.0737Z"/>
  </g>
  <g stroke-linejoin="miter" stroke-opacity="0.0" fill-opacity="0.0" stroke="rgb(0,0,0)" fill-rule="evenodd" stroke-width="0.0" fill="rgb(0,0,0)" stroke-linecap="butt" stroke-miterlimit="10.0">
    <path d="M 380.7444,395.1727 l -0.0000,-45.3203 h -362.5626 l -0.0000,45.3203 Z"/>
  </g>
  <g stroke-linejoin="miter" stroke-opacity="1.0" fill-opacity="1.0" font-size="41.20029778307536px" stroke="rgb(0,0,0)" fill-rule="evenodd" stroke-width="0.0" fill="rgb(255,0,0)" stroke-linecap="butt" stroke-miterlimit="10.0">
    <text dominant-baseline="middle" transform="matrix(1.0000,-0.0000,0.0000,1.0000,380.7444,372.5125)" stroke="none" text-anchor="end">abcdefghij012345
    </text>
  </g>
  <g stroke-linejoin="miter" stroke-opacity="1.0" fill-opacity="1.0" stroke="rgb(0,0,0)" stroke-width="0.0" fill="rgb(255,0,0)" stroke-linecap="butt" stroke-miterlimit="10.0">
    <path d="M 381.1070,382.8126 c 0.0000,-0.2002 -0.1623,-0.3626 -0.3626 -0.3626c -0.2002,-0.0000 -0.3626,0.1623 -0.3626 0.3626c -0.0000,0.2002 0.1623,0.3626 0.3626 0.3626c 0.2002,0.0000 0.3626,-0.1623 0.3626 -0.3626Z"/>
  </g>
  <g stroke-linejoin="miter" stroke-opacity="0.0" fill-opacity="0.0" stroke="rgb(0,0,0)" fill-rule="evenodd" stroke-width="0.0" fill="rgb(0,0,0)" stroke-linecap="butt" font-family="san-serif" stroke-miterlimit="10.0">
    <path d="M 378.9572,349.4034 l -0.0000,-44.7393 h -357.9144 l -0.0000,44.7393 Z"/>
  </g>
  <g stroke-linejoin="miter" stroke-opacity="1.0" fill-opacity="0.33" font-size="40.672088837138496px" stroke="rgb(0,0,0)" fill-rule="evenodd" stroke-width="0.0" fill="rgb(0,0,0)" stroke-linecap="butt" font-family="san-serif" stroke-miterlimit="10.0">
    <text dominant-baseline="text-before-edge" transform="matrix(1.0000,-0.0000,0.0000,1.0000,200.0000,304.6641)" stroke="none" text-anchor="middle">abcdefghij012345
    </text>
  </g>
  <g stroke-linejoin="miter" stroke-opacity="1.0" fill-opacity="1.0" stroke="rgb(0,0,0)" stroke-width="0.0" fill="rgb(0,0,255)" stroke-linecap="butt" stroke-miterlimit="10.0">
    <path d="M 201.0737,314.8321 c 0.0000,-0.5930 -0.4807,-1.0737 -1.0737 -1.0737c -0.5930,-0.0000 -1.0737,0.4807 -1.0737 1.0737c -0.0000,0.5930 0.4807,1.0737 1.0737 1.0737c 0.5930,0.0000 1.0737,-0.4807 1.0737 -1.0737Z"/>
  </g>
  <g stroke-linejoin="miter" stroke-opacity="0.0" fill-opacity="0.0" stroke="rgb(0,0,0)" fill-rule="evenodd" stroke-width="0.0" fill="rgb(0,0,0)" stroke-linecap="butt" stroke-miterlimit="10.0">
    <path d="M 381.2813,349.8524 l -0.0000,-45.3203 h -362.5626 l -0.0000,45.3203 Z"/>
  </g>
  <g stroke-linejoin="miter" stroke-opacity="1.0" fill-opacity="1.0" font-size="41.20029778307536px" stroke="rgb(0,0,0)" fill-rule="evenodd" stroke-width="0.0" fill="rgb(255,0,0)" stroke-linecap="butt" stroke-miterlimit="10.0">
    <text dominant-baseline="text-before-edge" transform="matrix(1.0000,-0.0000,0.0000,1.0000,200.0000,304.5320)" stroke="none" text-anchor="middle">abcdefghij012345
    </text>
  </g>
  <g stroke-linejoin="miter" stroke-opacity="1.0" fill-opacity="1.0" stroke="rgb(0,0,0)" stroke-width="0.0" fill="rgb(255,0,0)" stroke-linecap="butt" stroke-miterlimit="10.0">
    <path d="M 200.3626,314.8321 c 0.0000,-0.2002 -0.1623,-0.3626 -0.3626 -0.3626c -0.2002,-0.0000 -0.3626,0.1623 -0.3626 0.3626c -0.0000,0.2002 0.1623,0.3626 0.3626 0.3626c 0.2002,0.0000 0.3626,-0.1623 0.3626 -0.3626Z"/>
  </g>
  <g stroke-linejoin="miter" stroke-opacity="0.0" fill-opacity="0.0" stroke="rgb(0,0,0)" fill-rule="evenodd" stroke-width="0.0" fill="rgb(0,0,0)" stroke-linecap="butt" font-family="san-serif" stroke-miterlimit="10.0">
    <path d="M 378.9572,304.1887 l -0.0000,-44.7393 h -357.9144 l -0.0000,44.7393 Z"/>
  </g>
  <g stroke-linejoin="miter" stroke-opacity="1.0" fill-opacity="0.33" font-size="40.672088837138496px" stroke="rgb(0,0,0)" fill-rule="evenodd" stroke-width="0.0" fill="rgb(0,0,0)" stroke-linecap="butt" font-family="san-serif" stroke-miterlimit="10.0">
    <text dominant-baseline="middle" transform="matrix(1.0000,-0.0000,0.0000,1.0000,200.0000,281.8190)" stroke="none" text-anchor="middle">abcdefghij012345
    </text>
  </g>
  <g stroke-linejoin="miter" stroke-opacity="1.0" fill-opacity="1.0" stroke="rgb(0,0,0)" stroke-width="0.0" fill="rgb(0,0,255)" stroke-linecap="butt" stroke-miterlimit="10.0">
    <path d="M 201.0737,277.7518 c 0.0000,-0.5930 -0.4807,-1.0737 -1.0737 -1.0737c -0.5930,-0.0000 -1.0737,0.4807 -1.0737 1.0737c -0.0000,0.5930 0.4807,1.0737 1.0737 1.0737c 0.5930,0.0000 1.0737,-0.4807 1.0737 -1.0737Z"/>
  </g>
  <g stroke-linejoin="miter" stroke-opacity="0.0" fill-opacity="0.0" stroke="rgb(0,0,0)" fill-rule="evenodd" stroke-width="0.0" fill="rgb(0,0,0)" stroke-linecap="butt" stroke-miterlimit="10.0">
    <path d="M 381.2813,304.5320 l -0.0000,-45.3203 h -362.5626 l -0.0000,45.3203 Z"/>
  </g>
  <g stroke-linejoin="miter" stroke-opacity="1.0" fill-opacity="1.0" font-size="41.20029778307536px" stroke="rgb(0,0,0)" fill-rule="evenodd" stroke-width="0.0" fill="rgb(255,0,0)" stroke-linecap="butt" stroke-miterlimit="10.0">
    <text dominant-baseline="middle" transform="matrix(1.0000,-0.0000,0.0000,1.0000,200.0000,281.8719)" stroke="none" text-anchor="middle">abcdefghij012345
    </text>
  </g>
  <g stroke-linejoin="miter" stroke-opacity="1.0" fill-opacity="1.0" stroke="rgb(0,0,0)" stroke-width="0.0" fill="rgb(255,0,0)" stroke-linecap="butt" stroke-miterlimit="10.0">
    <path d="M 200.3626,277.7518 c 0.0000,-0.2002 -0.1623,-0.3626 -0.3626 -0.3626c -0.2002,-0.0000 -0.3626,0.1623 -0.3626 0.3626c -0.0000,0.2002 0.1623,0.3626 0.3626 0.3626c 0.2002,0.0000 0.3626,-0.1623 0.3626 -0.3626Z"/>
  </g>
  <g stroke-linejoin="miter" stroke-opacity="0.0" fill-opacity="0.0" stroke="rgb(0,0,0)" fill-rule="evenodd" stroke-width="0.0" fill="rgb(0,0,0)" stroke-linecap="butt" font-family="san-serif" stroke-miterlimit="10.0">
    <path d="M 378.9572,259.0532 l -0.0000,-44.7393 h -357.9144 l -0.0000,44.7393 Z"/>
  </g>
  <g stroke-linejoin="miter" stroke-opacity="1.0" fill-opacity="0.33" font-size="40.672088837138496px" stroke="rgb(0,0,0)" fill-rule="evenodd" stroke-width="0.0" fill="rgb(0,0,0)" stroke-linecap="butt" font-family="san-serif" stroke-miterlimit="10.0">
    <text dominant-baseline="middle" transform="matrix(1.0000,-0.0000,0.0000,1.0000,200.0000,236.6836)" stroke="none" text-anchor="middle">abcdefghij012345
    </text>
  </g>
  <g stroke-linejoin="miter" stroke-opacity="1.0" fill-opacity="1.0" stroke="rgb(0,0,0)" stroke-width="0.0" fill="rgb(0,0,255)" stroke-linecap="butt" stroke-miterlimit="10.0">
    <path d="M 201.0737,246.8516 c 0.0000,-0.5930 -0.4807,-1.0737 -1.0737 -1.0737c -0.5930,-0.0000 -1.0737,0.4807 -1.0737 1.0737c -0.0000,0.5930 0.4807,1.0737 1.0737 1.0737c 0.5930,0.0000 1.0737,-0.4807 1.0737 -1.0737Z"/>
  </g>
  <g stroke-linejoin="miter" stroke-opacity="0.0" fill-opacity="0.0" stroke="rgb(0,0,0)" fill-rule="evenodd" stroke-width="0.0" fill="rgb(0,0,0)" stroke-linecap="butt" stroke-miterlimit="10.0">
    <path d="M 381.2813,259.2117 l -0.0000,-45.3203 h -362.5626 l -0.0000,45.3203 Z"/>
  </g>
  <g stroke-linejoin="miter" stroke-opacity="1.0" fill-opacity="1.0" font-size="41.20029778307536px" stroke="rgb(0,0,0)" fill-rule="evenodd" stroke-width="0.0" fill="rgb(255,0,0)" stroke-linecap="butt" stroke-miterlimit="10.0">
    <text dominant-baseline="middle" transform="matrix(1.0000,-0.0000,0.0000,1.0000,200.0000,236.5515)" stroke="none" text-anchor="middle">abcdefghij012345
    </text>
  </g>
  <g stroke-linejoin="miter" stroke-opacity="1.0" fill-opacity="1.0" stroke="rgb(0,0,0)" stroke-width="0.0" fill="rgb(255,0,0)" stroke-linecap="butt" stroke-miterlimit="10.0">
    <path d="M 200.3626,246.8516 c 0.0000,-0.2002 -0.1623,-0.3626 -0.3626 -0.3626c -0.2002,-0.0000 -0.3626,0.1623 -0.3626 0.3626c -0.0000,0.2002 0.1623,0.3626 0.3626 0.3626c 0.2002,0.0000 0.3626,-0.1623 0.3626 -0.3626Z"/>
  </g>
  <g stroke-linejoin="miter" stroke-opacity="0.0" fill-opacity="0.0" stroke="rgb(0,0,0)" fill-rule="evenodd" stroke-width="0.0" fill="rgb(0,0,0)" stroke-linecap="butt" font-family="san-serif" stroke-miterlimit="10.0">
    <path d="M 377.1699,213.4424 l -0.0000,-44.7393 h -357.9144 l -0.0000,44.7393 Z"/>
  </g>
  <g stroke-linejoin="miter" stroke-opacity="1.0" fill-opacity="0.33" font-size="40.672088837138496px" stroke="rgb(0,0,0)" fill-rule="evenodd" stroke-width="0.0" fill="rgb(0,0,0)" stroke-linecap="butt" font-family="san-serif" stroke-miterlimit="10.0">
    <text dominant-baseline="text-before-edge" transform="matrix(1.0000,-0.0000,0.0000,1.0000,19.2556,168.7031)" stroke="none" text-anchor="start">abcdefghij012345
    </text>
  </g>
  <g stroke-linejoin="miter" stroke-opacity="1.0" fill-opacity="1.0" stroke="rgb(0,0,0)" stroke-width="0.0" fill="rgb(0,0,255)" stroke-linecap="butt" stroke-miterlimit="10.0">
    <path d="M 20.3293,178.8711 c 0.0000,-0.5930 -0.4807,-1.0737 -1.0737 -1.0737c -0.5930,-0.0000 -1.0737,0.4807 -1.0737 1.0737c -0.0000,0.5930 0.4807,1.0737 1.0737 1.0737c 0.5930,0.0000 1.0737,-0.4807 1.0737 -1.0737Z"/>
  </g>
  <g stroke-linejoin="miter" stroke-opacity="0.0" fill-opacity="0.0" stroke="rgb(0,0,0)" fill-rule="evenodd" stroke-width="0.0" fill="rgb(0,0,0)" stroke-linecap="butt" stroke-miterlimit="10.0">
    <path d="M 381.8182,213.8914 l -0.0000,-45.3203 h -362.5626 l -0.0000,45.3203 Z"/>
  </g>
  <g stroke-linejoin="miter" stroke-opacity="1.0" fill-opacity="1.0" font-size="41.20029778307536px" stroke="rgb(0,0,0)" fill-rule="evenodd" stroke-width="0.0" fill="rgb(255,0,0)" stroke-linecap="butt" stroke-miterlimit="10.0">
    <text dominant-baseline="text-before-edge" transform="matrix(1.0000,-0.0000,0.0000,1.0000,19.2556,168.5711)" stroke="none" text-anchor="start">abcdefghij012345
    </text>
  </g>
  <g stroke-linejoin="miter" stroke-opacity="1.0" fill-opacity="1.0" stroke="rgb(0,0,0)" stroke-width="0.0" fill="rgb(255,0,0)" stroke-linecap="butt" stroke-miterlimit="10.0">
    <path d="M 19.6181,178.8711 c 0.0000,-0.2002 -0.1623,-0.3626 -0.3626 -0.3626c -0.2002,-0.0000 -0.3626,0.1623 -0.3626 0.3626c -0.0000,0.2002 0.1623,0.3626 0.3626 0.3626c 0.2002,0.0000 0.3626,-0.1623 0.3626 -0.3626Z"/>
  </g>
  <g stroke-linejoin="miter" stroke-opacity="0.0" fill-opacity="0.0" stroke="rgb(0,0,0)" fill-rule="evenodd" stroke-width="0.0" fill="rgb(0,0,0)" stroke-linecap="butt" font-family="san-serif" stroke-miterlimit="10.0">
    <path d="M 377.1699,168.2277 l -0.0000,-44.7393 h -357.9144 l -0.0000,44.7393 Z"/>
  </g>
  <g stroke-linejoin="miter" stroke-opacity="1.0" fill-opacity="0.33" font-size="40.672088837138496px" stroke="rgb(0,0,0)" fill-rule="evenodd" stroke-width="0.0" fill="rgb(0,0,0)" stroke-linecap="butt" font-family="san-serif" stroke-miterlimit="10.0">
    <text dominant-baseline="middle" transform="matrix(1.0000,-0.0000,0.0000,1.0000,19.2556,145.8581)" stroke="none" text-anchor="start">abcdefghij012345
    </text>
  </g>
  <g stroke-linejoin="miter" stroke-opacity="1.0" fill-opacity="1.0" stroke="rgb(0,0,0)" stroke-width="0.0" fill="rgb(0,0,255)" stroke-linecap="butt" stroke-miterlimit="10.0">
    <path d="M 20.3293,141.7909 c 0.0000,-0.5930 -0.4807,-1.0737 -1.0737 -1.0737c -0.5930,-0.0000 -1.0737,0.4807 -1.0737 1.0737c -0.0000,0.5930 0.4807,1.0737 1.0737 1.0737c 0.5930,0.0000 1.0737,-0.4807 1.0737 -1.0737Z"/>
  </g>
  <g stroke-linejoin="miter" stroke-opacity="0.0" fill-opacity="0.0" stroke="rgb(0,0,0)" fill-rule="evenodd" stroke-width="0.0" fill="rgb(0,0,0)" stroke-linecap="butt" stroke-miterlimit="10.0">
    <path d="M 381.8182,168.5711 l -0.0000,-45.3203 h -362.5626 l -0.0000,45.3203 Z"/>
  </g>
  <g stroke-linejoin="miter" stroke-opacity="1.0" fill-opacity="1.0" font-size="41.20029778307536px" stroke="rgb(0,0,0)" fill-rule="evenodd" stroke-width="0.0" fill="rgb(255,0,0)" stroke-linecap="butt" stroke-miterlimit="10.0">
    <text dominant-baseline="middle" transform="matrix(1.0000,-0.0000,0.0000,1.0000,19.2556,145.9109)" stroke="none" text-anchor="start">abcdefghij012345
    </text>
  </g>
  <g stroke-linejoin="miter" stroke-opacity="1.0" fill-opacity="1.0" stroke="rgb(0,0,0)" stroke-width="0.0" fill="rgb(255,0,0)" stroke-linecap="butt" stroke-miterlimit="10.0">
    <path d="M 19.6181,141.7909 c 0.0000,-0.2002 -0.1623,-0.3626 -0.3626 -0.3626c -0.2002,-0.0000 -0.3626,0.1623 -0.3626 0.3626c -0.0000,0.2002 0.1623,0.3626 0.3626 0.3626c 0.2002,0.0000 0.3626,-0.1623 0.3626 -0.3626Z"/>
  </g>
  <g stroke-linejoin="miter" stroke-opacity="0.0" fill-opacity="0.0" stroke="rgb(0,0,0)" fill-rule="evenodd" stroke-width="0.0" fill="rgb(0,0,0)" stroke-linecap="butt" font-family="san-serif" stroke-miterlimit="10.0">
    <path d="M 377.1699,123.0923 l -0.0000,-44.7393 h -357.9144 l -0.0000,44.7393 Z"/>
  </g>
  <g stroke-linejoin="miter" stroke-opacity="1.0" fill-opacity="0.33" font-size="40.672088837138496px" stroke="rgb(0,0,0)" fill-rule="evenodd" stroke-width="0.0" fill="rgb(0,0,0)" stroke-linecap="butt" font-family="san-serif" stroke-miterlimit="10.0">
    <text dominant-baseline="middle" transform="matrix(1.0000,-0.0000,0.0000,1.0000,19.2556,100.7226)" stroke="none" text-anchor="start">abcdefghij012345
    </text>
  </g>
  <g stroke-linejoin="miter" stroke-opacity="1.0" fill-opacity="1.0" stroke="rgb(0,0,0)" stroke-width="0.0" fill="rgb(0,0,255)" stroke-linecap="butt" stroke-miterlimit="10.0">
    <path d="M 20.3293,110.8906 c 0.0000,-0.5930 -0.4807,-1.0737 -1.0737 -1.0737c -0.5930,-0.0000 -1.0737,0.4807 -1.0737 1.0737c -0.0000,0.5930 0.4807,1.0737 1.0737 1.0737c 0.5930,0.0000 1.0737,-0.4807 1.0737 -1.0737Z"/>
  </g>
  <g stroke-linejoin="miter" stroke-opacity="0.0" fill-opacity="0.0" stroke="rgb(0,0,0)" fill-rule="evenodd" stroke-width="0.0" fill="rgb(0,0,0)" stroke-linecap="butt" stroke-miterlimit="10.0">
    <path d="M 381.8182,123.2507 l -0.0000,-45.3203 h -362.5626 l -0.0000,45.3203 Z"/>
  </g>
  <g stroke-linejoin="miter" stroke-opacity="1.0" fill-opacity="1.0" font-size="41.20029778307536px" stroke="rgb(0,0,0)" fill-rule="evenodd" stroke-width="0.0" fill="rgb(255,0,0)" stroke-linecap="butt" stroke-miterlimit="10.0">
    <text dominant-baseline="middle" transform="matrix(1.0000,-0.0000,0.0000,1.0000,19.2556,100.5906)" stroke="none" text-anchor="start">abcdefghij012345
    </text>
  </g>
  <g stroke-linejoin="miter" stroke-opacity="1.0" fill-opacity="1.0" stroke="rgb(0,0,0)" stroke-width="0.0" fill="rgb(255,0,0)" stroke-linecap="butt" stroke-miterlimit="10.0">
    <path d="M 19.6181,110.8906 c 0.0000,-0.2002 -0.1623,-0.3626 -0.3626 -0.3626c -0.2002,-0.0000 -0.3626,0.1623 -0.3626 0.3626c -0.0000,0.2002 0.1623,0.3626 0.3626 0.3626c 0.2002,0.0000 0.3626,-0.1623 0.3626 -0.3626Z"/>
  </g>
</svg>