<?xml version="1.0" encoding="UTF-8"?>
<!DOCTYPE svg PUBLIC "-//W3C//DTD SVG 1.1//EN"
    "http://www.w3.org/Graphics/SVG/1.1/DTD/svg11.dtd"><svg xmlns="http://www.w3.org/2000/svg" height="400.0000" stroke-opacity="1" viewBox="0 0 800 400" font-size="1" width="800.0000" xmlns:xlink="http://www.w3.org/1999/xlink" stroke="rgb(0,0,0)" version="1.1"><defs></defs><g stroke-linejoin="miter" stroke-opacity="0.0" fill-opacity="0.1" stroke="rgb(0,0,0)" stroke-width="0.0" fill="rgb(0,0,0)" stroke-linecap="butt" stroke-miterlimit="10.0"><path d="M 797.5145,255.9364 l -0.0000,-4.5280 h -679.2007 l -0.0000,4.5280 Z"/></g><g stroke-linejoin="miter" stroke-opacity="1.0" fill-opacity="1.0" stroke="rgb(0,0,0)" fill-rule="evenodd" stroke-width="0.0" fill="rgb(85,85,85)" stroke-linecap="butt" stroke-miterlimit="10.0"><path d="M 794.2780,277.0690 ZM 798.9187,274.5309 c 0.0000,-1.5469 -0.8410,-2.3128 -1.7722 -2.3128c -0.6908,-0.0000 -1.2165,0.1051 -1.8022 0.3454l 0.4806,-4.1000 c 0.4956,0.0451 1.0062,0.0601 1.5319 0.0601c 0.7509,-0.0000 1.5319,-0.0451 2.3428 -0.1352l 0.0901,0.0451 l -0.2253,0.9762 c -0.5857,0.0601 -1.0663,0.0751 -1.4868 0.0751c -0.6758,-0.0000 -1.1864,-0.0601 -1.7121 -0.1201l -0.2853,2.3729 c 0.3154,-0.1201 0.8560,-0.2253 1.4418 -0.2253c 1.5919,-0.0000 2.4780,1.3817 2.4780 2.7634c 0.0000,1.6820 -1.1714,2.9736 -2.8685 2.9736c -0.8560,-0.0000 -2.1026,-0.4806 -2.1026 -1.0663c 0.0000,-0.2853 0.2403,-0.4806 0.5106 -0.4806c 0.3004,-0.0000 0.4956,0.2253 0.6758 0.4656c 0.2253,0.2703 0.4656,0.5707 0.9462 0.5707c 0.9612,-0.0000 1.7571,-0.9011 1.7571 -2.2077Z"/></g><g stroke-linejoin="miter" stroke-opacity="1.0" fill-opacity="0.0" stroke="rgb(0,0,0)" stroke-width="1.4864097075414051" fill="rgb(0,0,0)" stroke-linecap="butt" stroke-miterlimit="10.0"><path d="M 797.5145,252.5404 v 6.7920 "/></g><g stroke-linejoin="miter" stroke-opacity="1.0" fill-opacity="1.0" stroke="rgb(0,0,0)" fill-rule="evenodd" stroke-width="0.0" fill="rgb(85,85,85)" stroke-linecap="butt" stroke-miterlimit="10.0"><path d="M 726.2979,277.0690 ZM 730.1726,271.7375 c 0.0000,-0.1051 0.0150,-0.2253 0.1502 -0.3004c 0.1652,-0.1201 0.4355,-0.2553 0.6608 -0.2553c 0.1952,-0.0000 0.2103,0.1652 0.2103 0.4656v 2.4179 h 1.2165 l -0.0901,0.7059 h -1.1264 v 1.2465 c 0.0000,0.4205 0.0601,0.6308 0.4956 0.6308h 0.4055 c 0.0901,-0.0000 0.1051,0.0751 0.1051 0.1051v 0.3304 c 0.0000,-0.0000 -0.9612,-0.0300 -1.5919 -0.0300c -0.5707,-0.0000 -1.4568,0.0300 -1.4568 0.0300v -0.3304 c 0.0000,-0.0300 0.0150,-0.1051 0.1051 -0.1051h 0.4055 c 0.4656,-0.0000 0.5106,-0.1952 0.5106 -0.6308v -1.2465 h -2.9436 c -0.0601,-0.0000 -0.0901,-0.0300 -0.1352 -0.0901l -0.1201,-0.1652 l -0.1802,-0.3154 c -0.0150,-0.0000 -0.0150,-0.0150 -0.0150 -0.0300c 0.0000,-0.0150 0.0150,-0.0300 0.0300 -0.0451c 0.9762,-1.0813 2.7033,-4.4304 3.2439 -5.6619c 0.0150,-0.0601 0.0451,-0.0751 0.1051 -0.0751c 0.0150,-0.0000 0.3454,0.1352 0.5256 0.1652c -0.6758,1.8172 -1.7872,3.7696 -2.8835 5.5117h 2.3729 v -2.3278 Z"/></g><g stroke-linejoin="miter" stroke-opacity="1.0" fill-opacity="0.0" stroke="rgb(0,0,0)" stroke-width="1.4864097075414051" fill="rgb(0,0,0)" stroke-linecap="butt" stroke-miterlimit="10.0"><path d="M 729.5944,252.5404 v 6.7920 "/></g><g stroke-linejoin="miter" stroke-opacity="1.0" fill-opacity="1.0" stroke="rgb(0,0,0)" fill-rule="evenodd" stroke-width="0.0" fill="rgb(85,85,85)" stroke-linecap="butt" stroke-miterlimit="10.0"><path d="M 658.3853,277.0690 ZM 661.6293,268.8540 c -0.3755,-0.0000 -1.4718,0.2103 -1.4718 1.1264c 0.0000,0.2703 -0.1051,0.7359 -0.5106 0.7359c -0.3905,-0.0000 -0.4205,-0.4355 -0.4205 -0.4806c 0.0000,-0.4656 0.6157,-1.8472 2.7033 -1.8472c 1.4568,-0.0000 1.8923,0.9161 1.8923 1.5168c 0.0000,0.3755 -0.1201,1.1264 -1.4718 1.9824c 0.8410,0.1352 1.9524,0.7509 1.9524 2.3128c 0.0000,1.9824 -1.5018,3.0487 -3.1989 3.0487c -0.8560,-0.0000 -2.0575,-0.3755 -2.0575 -0.9462c 0.0000,-0.2253 0.2253,-0.4806 0.5256 -0.4806c 0.2853,-0.0000 0.4205,0.1502 0.5557 0.3454c 0.1652,0.2553 0.4355,0.6157 1.1564 0.6157c 0.4956,-0.0000 1.9073,-0.4956 1.9073 -2.3879c 0.0000,-1.6070 -1.1264,-1.8623 -1.9374 -1.8623c -0.1352,-0.0000 -0.3004,0.0300 -0.4656 0.0601l -0.0601,-0.4505 c 1.1564,-0.1952 2.1176,-1.3216 2.1176 -2.0124c 0.0000,-0.8560 -0.6007,-1.2766 -1.2165 -1.2766Z"/></g><g stroke-linejoin="miter" stroke-opacity="1.0" fill-opacity="0.0" stroke="rgb(0,0,0)" stroke-width="1.4864097075414051" fill="rgb(0,0,0)" stroke-linecap="butt" stroke-miterlimit="10.0"><path d="M 661.6743,252.5404 v 6.7920 "/></g><g stroke-linejoin="miter" stroke-opacity="1.0" fill-opacity="1.0" stroke="rgb(0,0,0)" fill-rule="evenodd" stroke-width="0.0" fill="rgb(85,85,85)" stroke-linecap="butt" stroke-miterlimit="10.0"><path d="M 590.4277,277.0690 ZM 591.2988,270.4159 c 0.0000,-0.8560 0.8260,-2.0275 2.4029 -2.0275c 1.1564,-0.0000 2.5080,0.4355 2.5080 2.1626c 0.0000,1.1414 -0.5857,1.7121 -1.3967 2.4930l -1.4267,1.3817 c -0.0751,0.0751 -1.0813,1.0663 -1.0813 1.7722h 2.5531 c 0.5106,-0.0000 0.7809,-0.2553 0.9912 -1.0813l 0.3755,0.0601 l -0.3004,1.8923 h -4.6406 c 0.0000,-0.8410 0.1352,-1.4868 1.5319 -2.9135l 1.0513,-1.0363 c 0.8410,-0.8560 1.1864,-1.5919 1.1864 -2.5080c 0.0000,-1.3667 -0.9311,-1.7571 -1.4418 -1.7571c -1.0363,-0.0000 -1.3216,0.5407 -1.3216 0.9011c 0.0000,0.1201 0.0300,0.2403 0.0601 0.3454c 0.0300,0.1051 0.0601,0.2103 0.0601 0.3304c 0.0000,0.3905 -0.3004,0.5407 -0.5407 0.5407c -0.3304,-0.0000 -0.5707,-0.2553 -0.5707 -0.5557Z"/></g><g stroke-linejoin="miter" stroke-opacity="1.0" fill-opacity="0.0" stroke="rgb(0,0,0)" stroke-width="1.4864097075414051" fill="rgb(0,0,0)" stroke-linecap="butt" stroke-miterlimit="10.0"><path d="M 593.7543,252.5404 v 6.7920 "/></g><g stroke-linejoin="miter" stroke-opacity="1.0" fill-opacity="1.0" stroke="rgb(0,0,0)" fill-rule="evenodd" stroke-width="0.0" fill="rgb(85,85,85)" stroke-linecap="butt" stroke-miterlimit="10.0"><path d="M 522.2974,277.0690 ZM 525.1209,269.9053 c -0.2853,-0.0000 -0.9462,0.2703 -1.2766 0.4205l -0.1802,-0.4656 c 1.3216,-0.6157 1.8322,-0.9311 2.5831 -1.4718h 0.2853 v 7.5542 c 0.0000,0.5407 0.0751,0.6908 0.5707 0.6908h 0.7809 c 0.0451,-0.0000 0.1201,0.0300 0.1201 0.1201v 0.3304 l -2.0575,-0.0300 l -2.0875,0.0300 v -0.3304 c 0.0150,-0.0451 0.0300,-0.1201 0.1201 -0.1201h 0.9011 c 0.5707,-0.0000 0.5707,-0.2553 0.5707 -0.6908v -5.1663 c 0.0000,-0.5106 0.0000,-0.8711 -0.3304 -0.8711Z"/></g><g stroke-linejoin="miter" stroke-opacity="1.0" fill-opacity="0.0" stroke="rgb(0,0,0)" stroke-width="1.4864097075414051" fill="rgb(0,0,0)" stroke-linecap="butt" stroke-miterlimit="10.0"><path d="M 525.8342,252.5404 v 6.7920 "/></g><g stroke-linejoin="miter" stroke-opacity="1.0" fill-opacity="1.0" stroke="rgb(0,0,0)" fill-rule="evenodd" stroke-width="0.0" fill="rgb(85,85,85)" stroke-linecap="butt" stroke-miterlimit="10.0"><path d="M 454.6552,277.0690 ZM 457.9442,268.9141 c -0.6458,-0.0000 -1.5919,0.6308 -1.5919 4.1300c 0.0000,1.2315 0.2253,3.7095 1.5469 3.7095c 0.2553,-0.0000 0.9762,-0.1652 1.2916 -1.3366c 0.1952,-0.7209 0.3004,-1.6220 0.3004 -2.9286c 0.0000,-1.9073 -0.4806,-2.9736 -0.9161 -3.3491c -0.1652,-0.1502 -0.3905,-0.2253 -0.6308 -0.2253ZM 457.9442,268.9141 ZM 457.8841,277.2492 c -1.6070,-0.0000 -2.6883,-2.0575 -2.6883 -4.3553c 0.0000,-2.8084 1.3366,-4.5055 2.7483 -4.5055c 0.6458,-0.0000 1.2916,0.4055 1.7271 0.9912c 0.6308,0.8410 0.9612,1.9674 0.9612 3.3791c 0.0000,3.3341 -1.6520,4.4905 -2.7483 4.4905Z"/></g><g stroke-linejoin="miter" stroke-opacity="1.0" fill-opacity="0.0" stroke="rgb(0,0,0)" stroke-width="1.4864097075414051" fill="rgb(0,0,0)" stroke-linecap="butt" stroke-miterlimit="10.0"><path d="M 457.9142,252.5404 v 6.7920 "/></g><g stroke-linejoin="miter" stroke-opacity="1.0" fill-opacity="1.0" stroke="rgb(0,0,0)" fill-rule="evenodd" stroke-width="0.0" fill="rgb(85,85,85)" stroke-linecap="butt" stroke-miterlimit="10.0"><path d="M 384.3923,277.0690 ZM 388.5073,273.5247 h -3.3941 c -0.1352,-0.0000 -0.2253,-0.1201 -0.2253 -0.2553c 0.0000,-0.2403 0.1952,-0.5557 0.3755 -0.5557h 3.4392 c 0.1502,-0.0000 0.2103,0.1352 0.2103 0.2703c 0.0000,0.1652 -0.2103,0.5407 -0.4055 0.5407ZM 389.3934,277.0690 ZM 392.2168,269.9053 c -0.2853,-0.0000 -0.9462,0.2703 -1.2766 0.4205l -0.1802,-0.4656 c 1.3216,-0.6157 1.8322,-0.9311 2.5831 -1.4718h 0.2853 v 7.5542 c 0.0000,0.5407 0.0751,0.6908 0.5707 0.6908h 0.7809 c 0.0451,-0.0000 0.1201,0.0300 0.1201 0.1201v 0.3304 l -2.0575,-0.0300 l -2.0875,0.0300 v -0.3304 c 0.0150,-0.0451 0.0300,-0.1201 0.1201 -0.1201h 0.9011 c 0.5707,-0.0000 0.5707,-0.2553 0.5707 -0.6908v -5.1663 c 0.0000,-0.5106 0.0000,-0.8711 -0.3304 -0.8711Z"/></g><g stroke-linejoin="miter" stroke-opacity="1.0" fill-opacity="0.0" stroke="rgb(0,0,0)" stroke-width="1.4864097075414051" fill="rgb(0,0,0)" stroke-linecap="butt" stroke-miterlimit="10.0"><path d="M 389.9941,252.5404 v 6.7920 "/></g><g stroke-linejoin="miter" stroke-opacity="1.0" fill-opacity="1.0" stroke="rgb(0,0,0)" fill-rule="evenodd" stroke-width="0.0" fill="rgb(85,85,85)" stroke-linecap="butt" stroke-miterlimit="10.0"><path d="M 316.4272,277.0690 ZM 320.5422,273.5247 h -3.3941 c -0.1352,-0.0000 -0.2253,-0.1201 -0.2253 -0.2553c 0.0000,-0.2403 0.1952,-0.5557 0.3755 -0.5557h 3.4392 c 0.1502,-0.0000 0.2103,0.1352 0.2103 0.2703c 0.0000,0.1652 -0.2103,0.5407 -0.4055 0.5407ZM 321.4282,277.0690 ZM 322.2993,270.4159 c 0.0000,-0.8560 0.8260,-2.0275 2.4029 -2.0275c 1.1564,-0.0000 2.5080,0.4355 2.5080 2.1626c 0.0000,1.1414 -0.5857,1.7121 -1.3967 2.4930l -1.4267,1.3817 c -0.0751,0.0751 -1.0813,1.0663 -1.0813 1.7722h 2.5531 c 0.5106,-0.0000 0.7809,-0.2553 0.9912 -1.0813l 0.3755,0.0601 l -0.3004,1.8923 h -4.6406 c 0.0000,-0.8410 0.1352,-1.4868 1.5319 -2.9135l 1.0513,-1.0363 c 0.8410,-0.8560 1.1864,-1.5919 1.1864 -2.5080c 0.0000,-1.3667 -0.9311,-1.7571 -1.4418 -1.7571c -1.0363,-0.0000 -1.3216,0.5407 -1.3216 0.9011c 0.0000,0.1201 0.0300,0.2403 0.0601 0.3454c 0.0300,0.1051 0.0601,0.2103 0.0601 0.3304c 0.0000,0.3905 -0.3004,0.5407 -0.5407 0.5407c -0.3304,-0.0000 -0.5707,-0.2553 -0.5707 -0.5557Z"/></g><g stroke-linejoin="miter" stroke-opacity="1.0" fill-opacity="0.0" stroke="rgb(0,0,0)" stroke-width="1.4864097075414051" fill="rgb(0,0,0)" stroke-linecap="butt" stroke-miterlimit="10.0"><path d="M 322.0740,252.5404 v 6.7920 "/></g><g stroke-linejoin="miter" stroke-opacity="1.0" fill-opacity="1.0" stroke="rgb(0,0,0)" fill-rule="evenodd" stroke-width="0.0" fill="rgb(85,85,85)" stroke-linecap="butt" stroke-miterlimit="10.0"><path d="M 248.4470,277.0690 ZM 252.5620,273.5247 h -3.3941 c -0.1352,-0.0000 -0.2253,-0.1201 -0.2253 -0.2553c 0.0000,-0.2403 0.1952,-0.5557 0.3755 -0.5557h 3.4392 c 0.1502,-0.0000 0.2103,0.1352 0.2103 0.2703c 0.0000,0.1652 -0.2103,0.5407 -0.4055 0.5407ZM 253.4481,277.0690 ZM 256.6920,268.8540 c -0.3755,-0.0000 -1.4718,0.2103 -1.4718 1.1264c 0.0000,0.2703 -0.1051,0.7359 -0.5106 0.7359c -0.3905,-0.0000 -0.4205,-0.4355 -0.4205 -0.4806c 0.0000,-0.4656 0.6157,-1.8472 2.7033 -1.8472c 1.4568,-0.0000 1.8923,0.9161 1.8923 1.5168c 0.0000,0.3755 -0.1201,1.1264 -1.4718 1.9824c 0.8410,0.1352 1.9524,0.7509 1.9524 2.3128c 0.0000,1.9824 -1.5018,3.0487 -3.1989 3.0487c -0.8560,-0.0000 -2.0575,-0.3755 -2.0575 -0.9462c 0.0000,-0.2253 0.2253,-0.4806 0.5256 -0.4806c 0.2853,-0.0000 0.4205,0.1502 0.5557 0.3454c 0.1652,0.2553 0.4355,0.6157 1.1564 0.6157c 0.4956,-0.0000 1.9073,-0.4956 1.9073 -2.3879c 0.0000,-1.6070 -1.1264,-1.8623 -1.9374 -1.8623c -0.1352,-0.0000 -0.3004,0.0300 -0.4656 0.0601l -0.0601,-0.4505 c 1.1564,-0.1952 2.1176,-1.3216 2.1176 -2.0124c 0.0000,-0.8560 -0.6007,-1.2766 -1.2165 -1.2766Z"/></g><g stroke-linejoin="miter" stroke-opacity="1.0" fill-opacity="0.0" stroke="rgb(0,0,0)" stroke-width="1.4864097075414051" fill="rgb(0,0,0)" stroke-linecap="butt" stroke-miterlimit="10.0"><path d="M 254.1540,252.5404 v 6.7920 "/></g><g stroke-linejoin="miter" stroke-opacity="1.0" fill-opacity="1.0" stroke="rgb(0,0,0)" fill-rule="evenodd" stroke-width="0.0" fill="rgb(85,85,85)" stroke-linecap="butt" stroke-miterlimit="10.0"><path d="M 180.4293,277.0690 ZM 184.5443,273.5247 h -3.3941 c -0.1352,-0.0000 -0.2253,-0.1201 -0.2253 -0.2553c 0.0000,-0.2403 0.1952,-0.5557 0.3755 -0.5557h 3.4392 c 0.1502,-0.0000 0.2103,0.1352 0.2103 0.2703c 0.0000,0.1652 -0.2103,0.5407 -0.4055 0.5407ZM 185.4304,277.0690 ZM 189.3051,271.7375 c 0.0000,-0.1051 0.0150,-0.2253 0.1502 -0.3004c 0.1652,-0.1201 0.4355,-0.2553 0.6608 -0.2553c 0.1952,-0.0000 0.2103,0.1652 0.2103 0.4656v 2.4179 h 1.2165 l -0.0901,0.7059 h -1.1264 v 1.2465 c 0.0000,0.4205 0.0601,0.6308 0.4956 0.6308h 0.4055 c 0.0901,-0.0000 0.1051,0.0751 0.1051 0.1051v 0.3304 c 0.0000,-0.0000 -0.9612,-0.0300 -1.5919 -0.0300c -0.5707,-0.0000 -1.4568,0.0300 -1.4568 0.0300v -0.3304 c 0.0000,-0.0300 0.0150,-0.1051 0.1051 -0.1051h 0.4055 c 0.4656,-0.0000 0.5106,-0.1952 0.5106 -0.6308v -1.2465 h -2.9436 c -0.0601,-0.0000 -0.0901,-0.0300 -0.1352 -0.0901l -0.1201,-0.1652 l -0.1802,-0.3154 c -0.0150,-0.0000 -0.0150,-0.0150 -0.0150 -0.0300c 0.0000,-0.0150 0.0150,-0.0300 0.0300 -0.0451c 0.9762,-1.0813 2.7033,-4.4304 3.2439 -5.6619c 0.0150,-0.0601 0.0451,-0.0751 0.1051 -0.0751c 0.0150,-0.0000 0.3454,0.1352 0.5256 0.1652c -0.6758,1.8172 -1.7872,3.7696 -2.8835 5.5117h 2.3729 v -2.3278 Z"/></g><g stroke-linejoin="miter" stroke-opacity="1.0" fill-opacity="0.0" stroke="rgb(0,0,0)" stroke-width="1.4864097075414051" fill="rgb(0,0,0)" stroke-linecap="butt" stroke-miterlimit="10.0"><path d="M 186.2339,252.5404 v 6.7920 "/></g><g stroke-linejoin="miter" stroke-opacity="1.0" fill-opacity="1.0" stroke="rgb(0,0,0)" fill-rule="evenodd" stroke-width="0.0" fill="rgb(85,85,85)" stroke-linecap="butt" stroke-miterlimit="10.0"><path d="M 112.7045,277.0690 ZM 116.8195,273.5247 h -3.3941 c -0.1352,-0.0000 -0.2253,-0.1201 -0.2253 -0.2553c 0.0000,-0.2403 0.1952,-0.5557 0.3755 -0.5557h 3.4392 c 0.1502,-0.0000 0.2103,0.1352 0.2103 0.2703c 0.0000,0.1652 -0.2103,0.5407 -0.4055 0.5407ZM 117.7056,277.0690 ZM 122.3462,274.5309 c 0.0000,-1.5469 -0.8410,-2.3128 -1.7722 -2.3128c -0.6908,-0.0000 -1.2165,0.1051 -1.8022 0.3454l 0.4806,-4.1000 c 0.4956,0.0451 1.0062,0.0601 1.5319 0.0601c 0.7509,-0.0000 1.5319,-0.0451 2.3428 -0.1352l 0.0901,0.0451 l -0.2253,0.9762 c -0.5857,0.0601 -1.0663,0.0751 -1.4868 0.0751c -0.6758,-0.0000 -1.1864,-0.0601 -1.7121 -0.1201l -0.2853,2.3729 c 0.3154,-0.1201 0.8560,-0.2253 1.4418 -0.2253c 1.5919,-0.0000 2.4780,1.3817 2.4780 2.7634c 0.0000,1.6820 -1.1714,2.9736 -2.8685 2.9736c -0.8560,-0.0000 -2.1026,-0.4806 -2.1026 -1.0663c 0.0000,-0.2853 0.2403,-0.4806 0.5106 -0.4806c 0.3004,-0.0000 0.4956,0.2253 0.6758 0.4656c 0.2253,0.2703 0.4656,0.5707 0.9462 0.5707c 0.9612,-0.0000 1.7571,-0.9011 1.7571 -2.2077Z"/></g><g stroke-linejoin="miter" stroke-opacity="1.0" fill-opacity="0.0" stroke="rgb(0,0,0)" stroke-width="1.4864097075414051" fill="rgb(0,0,0)" stroke-linecap="butt" stroke-miterlimit="10.0"><path d="M 118.3138,252.5404 v 6.7920 "/></g><g stroke-linejoin="miter" stroke-opacity="0.0" fill-opacity="0.0" stroke="rgb(0,0,0)" stroke-width="0.0" fill="rgb(0,0,0)" stroke-linecap="butt" stroke-miterlimit="10.0"><path d="M 796.2004,251.4084 l -0.0000,-22.6400 h -679.2007 l -0.0000,22.6400 Z"/></g><g stroke-linejoin="miter" stroke-opacity="0.2" fill-opacity="0.0" stroke="rgb(128,128,51)" stroke-width="1.4864097075414051" fill="rgb(0,0,0)" stroke-linecap="butt" stroke-miterlimit="10.0"><path d="M 800.0000,286.3052 l -0.0000,-57.5368 h -686.7999 l -0.0000,57.5368 Z"/></g><g stroke-linejoin="miter" stroke-opacity="1.0" fill-opacity="1.0" stroke="rgb(0,0,0)" fill-rule="evenodd" stroke-width="0.0" fill="rgb(85,85,85)" stroke-linecap="butt" stroke-miterlimit="10.0"><path d="M 13.8450,260.8502 ZM 19.3078,256.2509 l -1.4831,0.3755 c -1.6520,0.5069 -1.8961,1.3704 -1.8961 2.2152c 0.0000,0.5820 0.2816,1.4643 1.4643 1.4643c 0.5632,-0.0000 1.4267,-0.5444 1.9148 -0.9574v -3.0975 ZM 19.3078,256.2509 ZM 20.5093,261.0755 c -0.7134,-0.0000 -1.1076,-0.6383 -1.1827 -1.0888l -0.4318,0.3004 c -0.8635,0.6007 -1.1827,0.7885 -2.0462 0.7885c -1.3141,-0.0000 -2.2715,-0.7509 -2.2715 -2.1589c 0.0000,-1.4267 1.2202,-2.4029 3.0037 -2.8535l 1.7271,-0.4318 c 0.0000,-2.1213 -0.9762,-2.5156 -1.6145 -2.5156c -0.7134,-0.0000 -1.5394,0.3191 -1.5394 0.9011c 0.0000,0.2065 0.0375,0.3191 0.0563 0.3755c 0.0375,0.0751 0.0563,0.2065 0.0563 0.3379c 0.0000,0.2440 -0.1877,0.6195 -0.7321 0.6195c -0.4505,-0.0000 -0.7509,-0.3004 -0.7509 -0.7509c 0.0000,-1.0888 1.7646,-2.0462 2.9661 -2.0462c 1.3704,-0.0000 2.9473,0.5632 2.9473 3.2289v 2.7596 c 0.0000,1.1451 0.0188,1.6332 0.4505 1.6332c 0.4130,-0.0000 0.5256,-0.5256 0.5444 -0.9386l 0.4693,0.0939 c -0.1126,1.3704 -0.6946,1.7459 -1.6520 1.7459ZM 22.3115,260.8502 ZM 23.1187,258.2220 l 0.5069,-0.0188 c 0.0563,0.4693 0.2628,1.3704 0.6758 1.8022c 0.1877,0.2065 0.6946,0.5444 1.3892 0.5444c 0.6570,-0.0000 1.6332,-0.5256 1.6332 -1.4455c 0.0000,-0.8072 -0.4505,-1.3516 -1.9336 -1.9899c -1.3704,-0.6007 -2.0838,-0.9950 -2.0838 -2.4029c 0.0000,-1.2578 1.1076,-2.1589 2.5906 -2.1589c 0.9386,-0.0000 1.6332,0.1690 2.2152 0.4693c 0.1126,0.6007 0.1690,1.2390 0.2065 1.9148l -0.5069,0.0188 c -0.3942,-1.5394 -1.5206,-1.8397 -1.9148 -1.8397c -0.7134,-0.0000 -1.4455,0.2816 -1.4455 1.3141c 0.0000,0.7509 0.3567,1.1264 1.3892 1.5018c 1.5206,0.5632 2.7408,1.2390 2.7408 2.7408c 0.0000,1.8585 -1.9711,2.4029 -2.8535 2.4029c -0.6570,-0.0000 -1.2015,-0.0751 -1.6896 -0.2065c -0.1314,-0.0188 -0.2253,-0.0375 -0.3567 -0.0375c -0.0939,-0.0000 -0.2440,0.0188 -0.4318 0.0563c 0.0000,-0.7885 -0.0563,-1.7459 -0.1314 -2.6657ZM 29.2762,260.8502 ZM 32.0734,254.9556 v 4.6744 c 0.6570,0.7697 1.2766,0.8072 1.5769 0.8072c 2.0087,-0.0000 2.4592,-1.8773 2.4592 -3.4917c 0.0000,-2.2715 -0.9199,-3.5293 -2.0650 -3.5293c -0.6383,-0.0000 -1.5581,0.5444 -1.9711 1.5394ZM 32.0734,254.9556 ZM 30.6842,263.8163 v -9.2925 c 0.0000,-0.7134 -0.1690,-0.8448 -0.4318 -0.8448c -0.2440,-0.0000 -0.4693,0.0188 -0.7885 0.0939l -0.0939,-0.5256 c 1.2015,-0.2065 1.4267,-0.2816 1.9524 -0.5444c 0.2065,-0.0939 0.3379,-0.1502 0.4693 -0.1502h 0.2816 l -0.0563,1.5018 h 0.0563 c 0.8635,-1.3141 1.8773,-1.5018 2.4780 -1.5018c 1.8210,-0.0000 3.0224,1.8961 3.0224 3.8860c 0.0000,1.5206 -0.4693,2.6845 -1.3141 3.5481c -0.7321,0.7321 -1.5018,1.0888 -2.4968 1.0888c -0.6758,-0.0000 -1.2015,-0.1502 -1.6896 -0.4130v 3.1538 c 0.0000,0.5444 0.2065,0.8260 0.8072 0.8260h 0.3567 c 0.0939,-0.0000 0.1690,0.0563 0.1690 0.1502v 0.3567 l -0.0375,0.0375 c 0.0000,-0.0000 -1.2953,-0.0375 -2.0275 -0.0375c -0.6570,-0.0000 -1.9336,0.0375 -1.9336 0.0375l -0.0375,-0.0375 v -0.3567 c 0.0000,-0.0939 0.0563,-0.1502 0.1502 -0.1502h 0.3567 c 0.6195,-0.0000 0.8072,-0.2816 0.8072 -0.8260ZM 38.2684,260.8502 ZM 40.4085,255.6501 h 3.4542 c 0.1877,-0.0000 0.2628,-0.0939 0.2628 -0.2628c 0.0000,-1.7459 -0.8823,-2.1964 -1.5581 -2.1964c -0.4318,-0.0000 -1.8397,0.1690 -2.1589 2.4592ZM 40.4085,255.6501 ZM 45.3645,259.1043 l 0.3755,0.3004 c -0.7134,0.9762 -1.8210,1.6708 -3.1726 1.6708c -2.5719,-0.0000 -3.6607,-1.9148 -3.6607 -3.9611c 0.0000,-2.8535 1.8773,-4.5618 3.6607 -4.5618c 2.4780,-0.0000 3.0600,1.9336 3.0600 3.5105c 0.0000,0.2065 -0.1314,0.3191 -0.3379 0.3191h -4.9373 c -0.0188,0.1126 -0.0188,0.2253 -0.0188 0.3755c 0.0000,1.9148 1.3329,3.3979 2.6845 3.3979c 1.0325,-0.0000 1.6896,-0.3379 2.3466 -1.0513ZM 46.3032,260.8502 ZM 53.5119,259.1419 c -0.8260,1.4267 -1.7271,1.9336 -2.8535 1.9336c -2.2527,-0.0000 -3.6607,-1.7083 -3.6607 -4.1300c 0.0000,-2.6657 1.6708,-4.3928 3.6982 -4.3928c 1.8022,-0.0000 2.7596,0.9199 2.7596 1.9148c 0.0000,0.5444 -0.3379,0.8260 -0.7321 0.8260c -0.3942,-0.0000 -0.7697,-0.2065 -0.8260 -0.6758c -0.0751,-0.6195 -0.1877,-1.4267 -1.2953 -1.4267c -1.2390,-0.0000 -2.1589,1.3141 -2.1589 3.3416c 0.0000,2.1964 1.1827,3.7170 2.6282 3.7170c 0.8072,-0.0000 1.5206,-0.5256 2.1026 -1.3704ZM 53.8686,260.8502 ZM 56.9474,253.5100 v 4.8058 c 0.0000,1.1639 0.1126,1.7271 0.6195 1.7271c 0.4881,-0.0000 0.8635,-0.1502 1.3516 -0.5256l 0.3379,0.3191 c -0.7321,0.8260 -1.4831,1.2390 -2.3466 1.2390c -0.8635,-0.0000 -1.3704,-0.5256 -1.3704 -1.8585v -5.7069 h -1.2202 c -0.0563,-0.0000 -0.0751,-0.0188 -0.0751 -0.0751v -0.5820 c 0.0000,-0.0563 0.0188,-0.0751 0.0563 -0.0751c 1.2578,-0.0000 1.5581,-0.7321 1.5581 -2.1589v -0.3567 l 1.0888,-0.3755 v 2.8910 h 2.0650 c 0.0939,-0.0000 0.1502,0.0375 0.1502 0.1126v 0.3755 c 0.0000,0.1690 -0.2628,0.2440 -0.4505 0.2440h -1.7646 ZM 64.2312,260.8502 ZM 72.8855,254.8805 v 0.9199 h -7.4153 v -0.9199 h 7.4153 ZM 72.8855,254.8805 ZM 72.8855,257.2271 v 0.9199 h -7.4153 v -0.9199 h 7.4153 ZM 78.8177,260.8502 ZM 82.8726,250.5815 c -0.4693,-0.0000 -1.8397,0.2628 -1.8397 1.4080c 0.0000,0.3379 -0.1314,0.9199 -0.6383 0.9199c -0.4881,-0.0000 -0.5256,-0.5444 -0.5256 -0.6007c 0.0000,-0.5820 0.7697,-2.3091 3.3791 -2.3091c 1.8210,-0.0000 2.3654,1.1451 2.3654 1.8961c 0.0000,0.4693 -0.1502,1.4080 -1.8397 2.4780c 1.0513,0.1690 2.4405,0.9386 2.4405 2.8910c 0.0000,2.4780 -1.8773,3.8109 -3.9986 3.8109c -1.0701,-0.0000 -2.5719,-0.4693 -2.5719 -1.1827c 0.0000,-0.2816 0.2816,-0.6007 0.6570 -0.6007c 0.3567,-0.0000 0.5256,0.1877 0.6946 0.4318c 0.2065,0.3191 0.5444,0.7697 1.4455 0.7697c 0.6195,-0.0000 2.3841,-0.6195 2.3841 -2.9849c 0.0000,-2.0087 -1.4080,-2.3278 -2.4217 -2.3278c -0.1690,-0.0000 -0.3755,0.0375 -0.5820 0.0751l -0.0751,-0.5632 c 1.4455,-0.2440 2.6470,-1.6520 2.6470 -2.5156c 0.0000,-1.0701 -0.7509,-1.5957 -1.5206 -1.5957ZM 87.0402,260.8502 ZM 88.1102,260.0805 c 0.0000,-0.5444 0.4505,-0.9950 0.9950 -0.9950c 0.5444,-0.0000 0.9950,0.4505 0.9950 0.9950c 0.0000,0.5444 -0.4505,0.9950 -0.9950 0.9950c -0.5444,-0.0000 -0.9950,-0.4505 -0.9950 -0.9950ZM 91.1514,260.8502 ZM 95.2627,250.6566 c -0.8072,-0.0000 -1.9899,0.7885 -1.9899 5.1625c 0.0000,1.5394 0.2816,4.6369 1.9336 4.6369c 0.3191,-0.0000 1.2202,-0.2065 1.6145 -1.6708c 0.2440,-0.9011 0.3755,-2.0275 0.3755 -3.6607c 0.0000,-2.3841 -0.6007,-3.7170 -1.1451 -4.1863c -0.2065,-0.1877 -0.4881,-0.2816 -0.7885 -0.2816ZM 95.2627,250.6566 ZM 95.1876,261.0755 c -2.0087,-0.0000 -3.3603,-2.5719 -3.3603 -5.4441c 0.0000,-3.5105 1.6708,-5.6318 3.4354 -5.6318c 0.8072,-0.0000 1.6145,0.5069 2.1589 1.2390c 0.7885,1.0513 1.2015,2.4592 1.2015 4.2239c 0.0000,4.1676 -2.0650,5.6131 -3.4354 5.6131Z"/></g><g stroke-linejoin="miter" stroke-opacity="0.0" fill-opacity="0.1" stroke="rgb(0,0,0)" stroke-width="0.0" fill="rgb(51,51,51)" stroke-linecap="butt" stroke-miterlimit="10.0"><path d="M 113.2001,268.8568 l -0.0000,-22.6400 h -113.2001 l -0.0000,22.6400 Z"/></g><g stroke-linejoin="miter" stroke-opacity="0.2" fill-opacity="0.0" stroke="rgb(128,128,51)" stroke-width="1.4864097075414051" fill="rgb(0,0,0)" stroke-linecap="butt" stroke-miterlimit="10.0"><path d="M 113.2001,268.8568 l -0.0000,-22.6400 h -113.2001 l -0.0000,22.6400 Z"/></g><g stroke-linejoin="miter" stroke-opacity="0.0" fill-opacity="0.1" stroke="rgb(0,0,0)" stroke-width="0.0" fill="rgb(0,0,0)" stroke-linecap="butt" stroke-miterlimit="10.0"><path d="M 571.1143,198.3996 l -0.0000,-4.5280 h -452.8004 l -0.0000,4.5280 Z"/></g><g stroke-linejoin="miter" stroke-opacity="1.0" fill-opacity="1.0" stroke="rgb(0,0,0)" fill-rule="evenodd" stroke-width="0.0" fill="rgb(85,85,85)" stroke-linecap="butt" stroke-miterlimit="10.0"><path d="M 567.8778,219.5322 ZM 572.5185,216.9941 c 0.0000,-1.5469 -0.8410,-2.3128 -1.7722 -2.3128c -0.6908,-0.0000 -1.2165,0.1051 -1.8022 0.3454l 0.4806,-4.1000 c 0.4956,0.0451 1.0062,0.0601 1.5319 0.0601c 0.7509,-0.0000 1.5319,-0.0451 2.3428 -0.1352l 0.0901,0.0451 l -0.2253,0.9762 c -0.5857,0.0601 -1.0663,0.0751 -1.4868 0.0751c -0.6758,-0.0000 -1.1864,-0.0601 -1.7121 -0.1201l -0.2853,2.3729 c 0.3154,-0.1201 0.8560,-0.2253 1.4418 -0.2253c 1.5919,-0.0000 2.4780,1.3817 2.4780 2.7634c 0.0000,1.6820 -1.1714,2.9736 -2.8685 2.9736c -0.8560,-0.0000 -2.1026,-0.4806 -2.1026 -1.0663c 0.0000,-0.2853 0.2403,-0.4806 0.5106 -0.4806c 0.3004,-0.0000 0.4956,0.2253 0.6758 0.4656c 0.2253,0.2703 0.4656,0.5707 0.9462 0.5707c 0.9612,-0.0000 1.7571,-0.9011 1.7571 -2.2077Z"/></g><g stroke-linejoin="miter" stroke-opacity="1.0" fill-opacity="0.0" stroke="rgb(0,0,0)" stroke-width="1.4864097075414051" fill="rgb(0,0,0)" stroke-linecap="butt" stroke-miterlimit="10.0"><path d="M 571.1143,195.0036 v 6.7920 "/></g><g stroke-linejoin="miter" stroke-opacity="1.0" fill-opacity="1.0" stroke="rgb(0,0,0)" fill-rule="evenodd" stroke-width="0.0" fill="rgb(85,85,85)" stroke-linecap="butt" stroke-miterlimit="10.0"><path d="M 522.5377,219.5322 ZM 526.4124,214.2007 c 0.0000,-0.1051 0.0150,-0.2253 0.1502 -0.3004c 0.1652,-0.1201 0.4355,-0.2553 0.6608 -0.2553c 0.1952,-0.0000 0.2103,0.1652 0.2103 0.4656v 2.4179 h 1.2165 l -0.0901,0.7059 h -1.1264 v 1.2465 c 0.0000,0.4205 0.0601,0.6308 0.4956 0.6308h 0.4055 c 0.0901,-0.0000 0.1051,0.0751 0.1051 0.1051v 0.3304 c 0.0000,-0.0000 -0.9612,-0.0300 -1.5919 -0.0300c -0.5707,-0.0000 -1.4568,0.0300 -1.4568 0.0300v -0.3304 c 0.0000,-0.0300 0.0150,-0.1051 0.1051 -0.1051h 0.4055 c 0.4656,-0.0000 0.5106,-0.1952 0.5106 -0.6308v -1.2465 h -2.9436 c -0.0601,-0.0000 -0.0901,-0.0300 -0.1352 -0.0901l -0.1201,-0.1652 l -0.1802,-0.3154 c -0.0150,-0.0000 -0.0150,-0.0150 -0.0150 -0.0300c 0.0000,-0.0150 0.0150,-0.0300 0.0300 -0.0451c 0.9762,-1.0813 2.7033,-4.4304 3.2439 -5.6619c 0.0150,-0.0601 0.0451,-0.0751 0.1051 -0.0751c 0.0150,-0.0000 0.3454,0.1352 0.5256 0.1652c -0.6758,1.8172 -1.7872,3.7696 -2.8835 5.5117h 2.3729 v -2.3278 Z"/></g><g stroke-linejoin="miter" stroke-opacity="1.0" fill-opacity="0.0" stroke="rgb(0,0,0)" stroke-width="1.4864097075414051" fill="rgb(0,0,0)" stroke-linecap="butt" stroke-miterlimit="10.0"><path d="M 525.8342,195.0036 v 6.7920 "/></g><g stroke-linejoin="miter" stroke-opacity="1.0" fill-opacity="1.0" stroke="rgb(0,0,0)" fill-rule="evenodd" stroke-width="0.0" fill="rgb(85,85,85)" stroke-linecap="butt" stroke-miterlimit="10.0"><path d="M 477.2652,219.5322 ZM 480.5091,211.3172 c -0.3755,-0.0000 -1.4718,0.2103 -1.4718 1.1264c 0.0000,0.2703 -0.1051,0.7359 -0.5106 0.7359c -0.3905,-0.0000 -0.4205,-0.4355 -0.4205 -0.4806c 0.0000,-0.4656 0.6157,-1.8472 2.7033 -1.8472c 1.4568,-0.0000 1.8923,0.9161 1.8923 1.5168c 0.0000,0.3755 -0.1201,1.1264 -1.4718 1.9824c 0.8410,0.1352 1.9524,0.7509 1.9524 2.3128c 0.0000,1.9824 -1.5018,3.0487 -3.1989 3.0487c -0.8560,-0.0000 -2.0575,-0.3755 -2.0575 -0.9462c 0.0000,-0.2253 0.2253,-0.4806 0.5256 -0.4806c 0.2853,-0.0000 0.4205,0.1502 0.5557 0.3454c 0.1652,0.2553 0.4355,0.6157 1.1564 0.6157c 0.4956,-0.0000 1.9073,-0.4956 1.9073 -2.3879c 0.0000,-1.6070 -1.1264,-1.8623 -1.9374 -1.8623c -0.1352,-0.0000 -0.3004,0.0300 -0.4656 0.0601l -0.0601,-0.4505 c 1.1564,-0.1952 2.1176,-1.3216 2.1176 -2.0124c 0.0000,-0.8560 -0.6007,-1.2766 -1.2165 -1.2766Z"/></g><g stroke-linejoin="miter" stroke-opacity="1.0" fill-opacity="0.0" stroke="rgb(0,0,0)" stroke-width="1.4864097075414051" fill="rgb(0,0,0)" stroke-linecap="butt" stroke-miterlimit="10.0"><path d="M 480.5542,195.0036 v 6.7920 "/></g><g stroke-linejoin="miter" stroke-opacity="1.0" fill-opacity="1.0" stroke="rgb(0,0,0)" fill-rule="evenodd" stroke-width="0.0" fill="rgb(85,85,85)" stroke-linecap="butt" stroke-miterlimit="10.0"><path d="M 431.9476,219.5322 ZM 432.8186,212.8791 c 0.0000,-0.8560 0.8260,-2.0275 2.4029 -2.0275c 1.1564,-0.0000 2.5080,0.4355 2.5080 2.1626c 0.0000,1.1414 -0.5857,1.7121 -1.3967 2.4930l -1.4267,1.3817 c -0.0751,0.0751 -1.0813,1.0663 -1.0813 1.7722h 2.5531 c 0.5106,-0.0000 0.7809,-0.2553 0.9912 -1.0813l 0.3755,0.0601 l -0.3004,1.8923 h -4.6406 c 0.0000,-0.8410 0.1352,-1.4868 1.5319 -2.9135l 1.0513,-1.0363 c 0.8410,-0.8560 1.1864,-1.5919 1.1864 -2.5080c 0.0000,-1.3667 -0.9311,-1.7571 -1.4418 -1.7571c -1.0363,-0.0000 -1.3216,0.5407 -1.3216 0.9011c 0.0000,0.1201 0.0300,0.2403 0.0601 0.3454c 0.0300,0.1051 0.0601,0.2103 0.0601 0.3304c 0.0000,0.3905 -0.3004,0.5407 -0.5407 0.5407c -0.3304,-0.0000 -0.5707,-0.2553 -0.5707 -0.5557Z"/></g><g stroke-linejoin="miter" stroke-opacity="1.0" fill-opacity="0.0" stroke="rgb(0,0,0)" stroke-width="1.4864097075414051" fill="rgb(0,0,0)" stroke-linecap="butt" stroke-miterlimit="10.0"><path d="M 435.2741,195.0036 v 6.7920 "/></g><g stroke-linejoin="miter" stroke-opacity="1.0" fill-opacity="1.0" stroke="rgb(0,0,0)" fill-rule="evenodd" stroke-width="0.0" fill="rgb(85,85,85)" stroke-linecap="butt" stroke-miterlimit="10.0"><path d="M 386.4573,219.5322 ZM 389.2807,212.3685 c -0.2853,-0.0000 -0.9462,0.2703 -1.2766 0.4205l -0.1802,-0.4656 c 1.3216,-0.6157 1.8322,-0.9311 2.5831 -1.4718h 0.2853 v 7.5542 c 0.0000,0.5407 0.0751,0.6908 0.5707 0.6908h 0.7809 c 0.0451,-0.0000 0.1201,0.0300 0.1201 0.1201v 0.3304 l -2.0575,-0.0300 l -2.0875,0.0300 v -0.3304 c 0.0150,-0.0451 0.0300,-0.1201 0.1201 -0.1201h 0.9011 c 0.5707,-0.0000 0.5707,-0.2553 0.5707 -0.6908v -5.1663 c 0.0000,-0.5106 0.0000,-0.8711 -0.3304 -0.8711Z"/></g><g stroke-linejoin="miter" stroke-opacity="1.0" fill-opacity="0.0" stroke="rgb(0,0,0)" stroke-width="1.4864097075414051" fill="rgb(0,0,0)" stroke-linecap="butt" stroke-miterlimit="10.0"><path d="M 389.9941,195.0036 v 6.7920 "/></g><g stroke-linejoin="miter" stroke-opacity="1.0" fill-opacity="1.0" stroke="rgb(0,0,0)" fill-rule="evenodd" stroke-width="0.0" fill="rgb(85,85,85)" stroke-linecap="butt" stroke-miterlimit="10.0"><path d="M 341.4551,219.5322 ZM 344.7441,211.3773 c -0.6458,-0.0000 -1.5919,0.6308 -1.5919 4.1300c 0.0000,1.2315 0.2253,3.7095 1.5469 3.7095c 0.2553,-0.0000 0.9762,-0.1652 1.2916 -1.3366c 0.1952,-0.7209 0.3004,-1.6220 0.3004 -2.9286c 0.0000,-1.9073 -0.4806,-2.9736 -0.9161 -3.3491c -0.1652,-0.1502 -0.3905,-0.2253 -0.6308 -0.2253ZM 344.7441,211.3773 ZM 344.6840,219.7124 c -1.6070,-0.0000 -2.6883,-2.0575 -2.6883 -4.3553c 0.0000,-2.8084 1.3366,-4.5055 2.7483 -4.5055c 0.6458,-0.0000 1.2916,0.4055 1.7271 0.9912c 0.6308,0.8410 0.9612,1.9674 0.9612 3.3791c 0.0000,3.3341 -1.6520,4.4905 -2.7483 4.4905Z"/></g><g stroke-linejoin="miter" stroke-opacity="1.0" fill-opacity="0.0" stroke="rgb(0,0,0)" stroke-width="1.4864097075414051" fill="rgb(0,0,0)" stroke-linecap="butt" stroke-miterlimit="10.0"><path d="M 344.7140,195.0036 v 6.7920 "/></g><g stroke-linejoin="miter" stroke-opacity="1.0" fill-opacity="1.0" stroke="rgb(0,0,0)" fill-rule="evenodd" stroke-width="0.0" fill="rgb(85,85,85)" stroke-linecap="butt" stroke-miterlimit="10.0"><path d="M 293.8322,219.5322 ZM 297.9472,215.9879 h -3.3941 c -0.1352,-0.0000 -0.2253,-0.1201 -0.2253 -0.2553c 0.0000,-0.2403 0.1952,-0.5557 0.3755 -0.5557h 3.4392 c 0.1502,-0.0000 0.2103,0.1352 0.2103 0.2703c 0.0000,0.1652 -0.2103,0.5407 -0.4055 0.5407ZM 298.8333,219.5322 ZM 301.6567,212.3685 c -0.2853,-0.0000 -0.9462,0.2703 -1.2766 0.4205l -0.1802,-0.4656 c 1.3216,-0.6157 1.8322,-0.9311 2.5831 -1.4718h 0.2853 v 7.5542 c 0.0000,0.5407 0.0751,0.6908 0.5707 0.6908h 0.7809 c 0.0451,-0.0000 0.1201,0.0300 0.1201 0.1201v 0.3304 l -2.0575,-0.0300 l -2.0875,0.0300 v -0.3304 c 0.0150,-0.0451 0.0300,-0.1201 0.1201 -0.1201h 0.9011 c 0.5707,-0.0000 0.5707,-0.2553 0.5707 -0.6908v -5.1663 c 0.0000,-0.5106 0.0000,-0.8711 -0.3304 -0.8711Z"/></g><g stroke-linejoin="miter" stroke-opacity="1.0" fill-opacity="0.0" stroke="rgb(0,0,0)" stroke-width="1.4864097075414051" fill="rgb(0,0,0)" stroke-linecap="butt" stroke-miterlimit="10.0"><path d="M 299.4340,195.0036 v 6.7920 "/></g><g stroke-linejoin="miter" stroke-opacity="1.0" fill-opacity="1.0" stroke="rgb(0,0,0)" fill-rule="evenodd" stroke-width="0.0" fill="rgb(85,85,85)" stroke-linecap="butt" stroke-miterlimit="10.0"><path d="M 248.5071,219.5322 ZM 252.6221,215.9879 h -3.3941 c -0.1352,-0.0000 -0.2253,-0.1201 -0.2253 -0.2553c 0.0000,-0.2403 0.1952,-0.5557 0.3755 -0.5557h 3.4392 c 0.1502,-0.0000 0.2103,0.1352 0.2103 0.2703c 0.0000,0.1652 -0.2103,0.5407 -0.4055 0.5407ZM 253.5082,219.5322 ZM 254.3792,212.8791 c 0.0000,-0.8560 0.8260,-2.0275 2.4029 -2.0275c 1.1564,-0.0000 2.5080,0.4355 2.5080 2.1626c 0.0000,1.1414 -0.5857,1.7121 -1.3967 2.4930l -1.4267,1.3817 c -0.0751,0.0751 -1.0813,1.0663 -1.0813 1.7722h 2.5531 c 0.5106,-0.0000 0.7809,-0.2553 0.9912 -1.0813l 0.3755,0.0601 l -0.3004,1.8923 h -4.6406 c 0.0000,-0.8410 0.1352,-1.4868 1.5319 -2.9135l 1.0513,-1.0363 c 0.8410,-0.8560 1.1864,-1.5919 1.1864 -2.5080c 0.0000,-1.3667 -0.9311,-1.7571 -1.4418 -1.7571c -1.0363,-0.0000 -1.3216,0.5407 -1.3216 0.9011c 0.0000,0.1201 0.0300,0.2403 0.0601 0.3454c 0.0300,0.1051 0.0601,0.2103 0.0601 0.3304c 0.0000,0.3905 -0.3004,0.5407 -0.5407 0.5407c -0.3304,-0.0000 -0.5707,-0.2553 -0.5707 -0.5557Z"/></g><g stroke-linejoin="miter" stroke-opacity="1.0" fill-opacity="0.0" stroke="rgb(0,0,0)" stroke-width="1.4864097075414051" fill="rgb(0,0,0)" stroke-linecap="butt" stroke-miterlimit="10.0"><path d="M 254.1540,195.0036 v 6.7920 "/></g><g stroke-linejoin="miter" stroke-opacity="1.0" fill-opacity="1.0" stroke="rgb(0,0,0)" fill-rule="evenodd" stroke-width="0.0" fill="rgb(85,85,85)" stroke-linecap="butt" stroke-miterlimit="10.0"><path d="M 203.1670,219.5322 ZM 207.2820,215.9879 h -3.3941 c -0.1352,-0.0000 -0.2253,-0.1201 -0.2253 -0.2553c 0.0000,-0.2403 0.1952,-0.5557 0.3755 -0.5557h 3.4392 c 0.1502,-0.0000 0.2103,0.1352 0.2103 0.2703c 0.0000,0.1652 -0.2103,0.5407 -0.4055 0.5407ZM 208.1681,219.5322 ZM 211.4120,211.3172 c -0.3755,-0.0000 -1.4718,0.2103 -1.4718 1.1264c 0.0000,0.2703 -0.1051,0.7359 -0.5106 0.7359c -0.3905,-0.0000 -0.4205,-0.4355 -0.4205 -0.4806c 0.0000,-0.4656 0.6157,-1.8472 2.7033 -1.8472c 1.4568,-0.0000 1.8923,0.9161 1.8923 1.5168c 0.0000,0.3755 -0.1201,1.1264 -1.4718 1.9824c 0.8410,0.1352 1.9524,0.7509 1.9524 2.3128c 0.0000,1.9824 -1.5018,3.0487 -3.1989 3.0487c -0.8560,-0.0000 -2.0575,-0.3755 -2.0575 -0.9462c 0.0000,-0.2253 0.2253,-0.4806 0.5256 -0.4806c 0.2853,-0.0000 0.4205,0.1502 0.5557 0.3454c 0.1652,0.2553 0.4355,0.6157 1.1564 0.6157c 0.4956,-0.0000 1.9073,-0.4956 1.9073 -2.3879c 0.0000,-1.6070 -1.1264,-1.8623 -1.9374 -1.8623c -0.1352,-0.0000 -0.3004,0.0300 -0.4656 0.0601l -0.0601,-0.4505 c 1.1564,-0.1952 2.1176,-1.3216 2.1176 -2.0124c 0.0000,-0.8560 -0.6007,-1.2766 -1.2165 -1.2766Z"/></g><g stroke-linejoin="miter" stroke-opacity="1.0" fill-opacity="0.0" stroke="rgb(0,0,0)" stroke-width="1.4864097075414051" fill="rgb(0,0,0)" stroke-linecap="butt" stroke-miterlimit="10.0"><path d="M 208.8739,195.0036 v 6.7920 "/></g><g stroke-linejoin="miter" stroke-opacity="1.0" fill-opacity="1.0" stroke="rgb(0,0,0)" fill-rule="evenodd" stroke-width="0.0" fill="rgb(85,85,85)" stroke-linecap="butt" stroke-miterlimit="10.0"><path d="M 157.7893,219.5322 ZM 161.9043,215.9879 h -3.3941 c -0.1352,-0.0000 -0.2253,-0.1201 -0.2253 -0.2553c 0.0000,-0.2403 0.1952,-0.5557 0.3755 -0.5557h 3.4392 c 0.1502,-0.0000 0.2103,0.1352 0.2103 0.2703c 0.0000,0.1652 -0.2103,0.5407 -0.4055 0.5407ZM 162.7904,219.5322 ZM 166.6651,214.2007 c 0.0000,-0.1051 0.0150,-0.2253 0.1502 -0.3004c 0.1652,-0.1201 0.4355,-0.2553 0.6608 -0.2553c 0.1952,-0.0000 0.2103,0.1652 0.2103 0.4656v 2.4179 h 1.2165 l -0.0901,0.7059 h -1.1264 v 1.2465 c 0.0000,0.4205 0.0601,0.6308 0.4956 0.6308h 0.4055 c 0.0901,-0.0000 0.1051,0.0751 0.1051 0.1051v 0.3304 c 0.0000,-0.0000 -0.9612,-0.0300 -1.5919 -0.0300c -0.5707,-0.0000 -1.4568,0.0300 -1.4568 0.0300v -0.3304 c 0.0000,-0.0300 0.0150,-0.1051 0.1051 -0.1051h 0.4055 c 0.4656,-0.0000 0.5106,-0.1952 0.5106 -0.6308v -1.2465 h -2.9436 c -0.0601,-0.0000 -0.0901,-0.0300 -0.1352 -0.0901l -0.1201,-0.1652 l -0.1802,-0.3154 c -0.0150,-0.0000 -0.0150,-0.0150 -0.0150 -0.0300c 0.0000,-0.0150 0.0150,-0.0300 0.0300 -0.0451c 0.9762,-1.0813 2.7033,-4.4304 3.2439 -5.6619c 0.0150,-0.0601 0.0451,-0.0751 0.1051 -0.0751c 0.0150,-0.0000 0.3454,0.1352 0.5256 0.1652c -0.6758,1.8172 -1.7872,3.7696 -2.8835 5.5117h 2.3729 v -2.3278 Z"/></g><g stroke-linejoin="miter" stroke-opacity="1.0" fill-opacity="0.0" stroke="rgb(0,0,0)" stroke-width="1.4864097075414051" fill="rgb(0,0,0)" stroke-linecap="butt" stroke-miterlimit="10.0"><path d="M 163.5939,195.0036 v 6.7920 "/></g><g stroke-linejoin="miter" stroke-opacity="1.0" fill-opacity="1.0" stroke="rgb(0,0,0)" fill-rule="evenodd" stroke-width="0.0" fill="rgb(85,85,85)" stroke-linecap="butt" stroke-miterlimit="10.0"><path d="M 112.7045,219.5322 ZM 116.8195,215.9879 h -3.3941 c -0.1352,-0.0000 -0.2253,-0.1201 -0.2253 -0.2553c 0.0000,-0.2403 0.1952,-0.5557 0.3755 -0.5557h 3.4392 c 0.1502,-0.0000 0.2103,0.1352 0.2103 0.2703c 0.0000,0.1652 -0.2103,0.5407 -0.4055 0.5407ZM 117.7056,219.5322 ZM 122.3462,216.9941 c 0.0000,-1.5469 -0.8410,-2.3128 -1.7722 -2.3128c -0.6908,-0.0000 -1.2165,0.1051 -1.8022 0.3454l 0.4806,-4.1000 c 0.4956,0.0451 1.0062,0.0601 1.5319 0.0601c 0.7509,-0.0000 1.5319,-0.0451 2.3428 -0.1352l 0.0901,0.0451 l -0.2253,0.9762 c -0.5857,0.0601 -1.0663,0.0751 -1.4868 0.0751c -0.6758,-0.0000 -1.1864,-0.0601 -1.7121 -0.1201l -0.2853,2.3729 c 0.3154,-0.1201 0.8560,-0.2253 1.4418 -0.2253c 1.5919,-0.0000 2.4780,1.3817 2.4780 2.7634c 0.0000,1.6820 -1.1714,2.9736 -2.8685 2.9736c -0.8560,-0.0000 -2.1026,-0.4806 -2.1026 -1.0663c 0.0000,-0.2853 0.2403,-0.4806 0.5106 -0.4806c 0.3004,-0.0000 0.4956,0.2253 0.6758 0.4656c 0.2253,0.2703 0.4656,0.5707 0.9462 0.5707c 0.9612,-0.0000 1.7571,-0.9011 1.7571 -2.2077Z"/></g><g stroke-linejoin="miter" stroke-opacity="1.0" fill-opacity="0.0" stroke="rgb(0,0,0)" stroke-width="1.4864097075414051" fill="rgb(0,0,0)" stroke-linecap="butt" stroke-miterlimit="10.0"><path d="M 118.3138,195.0036 v 6.7920 "/></g><g stroke-linejoin="miter" stroke-opacity="0.0" fill-opacity="0.0" stroke="rgb(0,0,0)" stroke-width="0.0" fill="rgb(0,0,0)" stroke-linecap="butt" stroke-miterlimit="10.0"><path d="M 569.8002,193.8716 l -0.0000,-22.6400 h -452.8004 l -0.0000,22.6400 Z"/></g><g stroke-linejoin="miter" stroke-opacity="0.2" fill-opacity="0.0" stroke="rgb(128,128,51)" stroke-width="1.4864097075414051" fill="rgb(0,0,0)" stroke-linecap="butt" stroke-miterlimit="10.0"><path d="M 573.5998,228.7684 l -0.0000,-57.5368 h -460.3997 l -0.0000,57.5368 Z"/></g><g stroke-linejoin="miter" stroke-opacity="1.0" fill-opacity="1.0" stroke="rgb(0,0,0)" fill-rule="evenodd" stroke-width="0.0" fill="rgb(85,85,85)" stroke-linecap="butt" stroke-miterlimit="10.0"><path d="M 13.8450,203.3134 ZM 19.3078,198.7141 l -1.4831,0.3755 c -1.6520,0.5069 -1.8961,1.3704 -1.8961 2.2152c 0.0000,0.5820 0.2816,1.4643 1.4643 1.4643c 0.5632,-0.0000 1.4267,-0.5444 1.9148 -0.9574v -3.0975 ZM 19.3078,198.7141 ZM 20.5093,203.5387 c -0.7134,-0.0000 -1.1076,-0.6383 -1.1827 -1.0888l -0.4318,0.3004 c -0.8635,0.6007 -1.1827,0.7885 -2.0462 0.7885c -1.3141,-0.0000 -2.2715,-0.7509 -2.2715 -2.1589c 0.0000,-1.4267 1.2202,-2.4029 3.0037 -2.8535l 1.7271,-0.4318 c 0.0000,-2.1213 -0.9762,-2.5156 -1.6145 -2.5156c -0.7134,-0.0000 -1.5394,0.3191 -1.5394 0.9011c 0.0000,0.2065 0.0375,0.3191 0.0563 0.3755c 0.0375,0.0751 0.0563,0.2065 0.0563 0.3379c 0.0000,0.2440 -0.1877,0.6195 -0.7321 0.6195c -0.4505,-0.0000 -0.7509,-0.3004 -0.7509 -0.7509c 0.0000,-1.0888 1.7646,-2.0462 2.9661 -2.0462c 1.3704,-0.0000 2.9473,0.5632 2.9473 3.2289v 2.7596 c 0.0000,1.1451 0.0188,1.6332 0.4505 1.6332c 0.4130,-0.0000 0.5256,-0.5256 0.5444 -0.9386l 0.4693,0.0939 c -0.1126,1.3704 -0.6946,1.7459 -1.6520 1.7459ZM 22.3115,203.3134 ZM 23.1187,200.6852 l 0.5069,-0.0188 c 0.0563,0.4693 0.2628,1.3704 0.6758 1.8022c 0.1877,0.2065 0.6946,0.5444 1.3892 0.5444c 0.6570,-0.0000 1.6332,-0.5256 1.6332 -1.4455c 0.0000,-0.8072 -0.4505,-1.3516 -1.9336 -1.9899c -1.3704,-0.6007 -2.0838,-0.9950 -2.0838 -2.4029c 0.0000,-1.2578 1.1076,-2.1589 2.5906 -2.1589c 0.9386,-0.0000 1.6332,0.1690 2.2152 0.4693c 0.1126,0.6007 0.1690,1.2390 0.2065 1.9148l -0.5069,0.0188 c -0.3942,-1.5394 -1.5206,-1.8397 -1.9148 -1.8397c -0.7134,-0.0000 -1.4455,0.2816 -1.4455 1.3141c 0.0000,0.7509 0.3567,1.1264 1.3892 1.5018c 1.5206,0.5632 2.7408,1.2390 2.7408 2.7408c 0.0000,1.8585 -1.9711,2.4029 -2.8535 2.4029c -0.6570,-0.0000 -1.2015,-0.0751 -1.6896 -0.2065c -0.1314,-0.0188 -0.2253,-0.0375 -0.3567 -0.0375c -0.0939,-0.0000 -0.2440,0.0188 -0.4318 0.0563c 0.0000,-0.7885 -0.0563,-1.7459 -0.1314 -2.6657ZM 29.2762,203.3134 ZM 32.0734,197.4187 v 4.6744 c 0.6570,0.7697 1.2766,0.8072 1.5769 0.8072c 2.0087,-0.0000 2.4592,-1.8773 2.4592 -3.4917c 0.0000,-2.2715 -0.9199,-3.5293 -2.0650 -3.5293c -0.6383,-0.0000 -1.5581,0.5444 -1.9711 1.5394ZM 32.0734,197.4187 ZM 30.6842,206.2795 v -9.2925 c 0.0000,-0.7134 -0.1690,-0.8448 -0.4318 -0.8448c -0.2440,-0.0000 -0.4693,0.0188 -0.7885 0.0939l -0.0939,-0.5256 c 1.2015,-0.2065 1.4267,-0.2816 1.9524 -0.5444c 0.2065,-0.0939 0.3379,-0.1502 0.4693 -0.1502h 0.2816 l -0.0563,1.5018 h 0.0563 c 0.8635,-1.3141 1.8773,-1.5018 2.4780 -1.5018c 1.8210,-0.0000 3.0224,1.8961 3.0224 3.8860c 0.0000,1.5206 -0.4693,2.6845 -1.3141 3.5481c -0.7321,0.7321 -1.5018,1.0888 -2.4968 1.0888c -0.6758,-0.0000 -1.2015,-0.1502 -1.6896 -0.4130v 3.1538 c 0.0000,0.5444 0.2065,0.8260 0.8072 0.8260h 0.3567 c 0.0939,-0.0000 0.1690,0.0563 0.1690 0.1502v 0.3567 l -0.0375,0.0375 c 0.0000,-0.0000 -1.2953,-0.0375 -2.0275 -0.0375c -0.6570,-0.0000 -1.9336,0.0375 -1.9336 0.0375l -0.0375,-0.0375 v -0.3567 c 0.0000,-0.0939 0.0563,-0.1502 0.1502 -0.1502h 0.3567 c 0.6195,-0.0000 0.8072,-0.2816 0.8072 -0.8260ZM 38.2684,203.3134 ZM 40.4085,198.1133 h 3.4542 c 0.1877,-0.0000 0.2628,-0.0939 0.2628 -0.2628c 0.0000,-1.7459 -0.8823,-2.1964 -1.5581 -2.1964c -0.4318,-0.0000 -1.8397,0.1690 -2.1589 2.4592ZM 40.4085,198.1133 ZM 45.3645,201.5675 l 0.3755,0.3004 c -0.7134,0.9762 -1.8210,1.6708 -3.1726 1.6708c -2.5719,-0.0000 -3.6607,-1.9148 -3.6607 -3.9611c 0.0000,-2.8535 1.8773,-4.5618 3.6607 -4.5618c 2.4780,-0.0000 3.0600,1.9336 3.0600 3.5105c 0.0000,0.2065 -0.1314,0.3191 -0.3379 0.3191h -4.9373 c -0.0188,0.1126 -0.0188,0.2253 -0.0188 0.3755c 0.0000,1.9148 1.3329,3.3979 2.6845 3.3979c 1.0325,-0.0000 1.6896,-0.3379 2.3466 -1.0513ZM 46.3032,203.3134 ZM 53.5119,201.6051 c -0.8260,1.4267 -1.7271,1.9336 -2.8535 1.9336c -2.2527,-0.0000 -3.6607,-1.7083 -3.6607 -4.1300c 0.0000,-2.6657 1.6708,-4.3928 3.6982 -4.3928c 1.8022,-0.0000 2.7596,0.9199 2.7596 1.9148c 0.0000,0.5444 -0.3379,0.8260 -0.7321 0.8260c -0.3942,-0.0000 -0.7697,-0.2065 -0.8260 -0.6758c -0.0751,-0.6195 -0.1877,-1.4267 -1.2953 -1.4267c -1.2390,-0.0000 -2.1589,1.3141 -2.1589 3.3416c 0.0000,2.1964 1.1827,3.7170 2.6282 3.7170c 0.8072,-0.0000 1.5206,-0.5256 2.1026 -1.3704ZM 53.8686,203.3134 ZM 56.9474,195.9732 v 4.8058 c 0.0000,1.1639 0.1126,1.7271 0.6195 1.7271c 0.4881,-0.0000 0.8635,-0.1502 1.3516 -0.5256l 0.3379,0.3191 c -0.7321,0.8260 -1.4831,1.2390 -2.3466 1.2390c -0.8635,-0.0000 -1.3704,-0.5256 -1.3704 -1.8585v -5.7069 h -1.2202 c -0.0563,-0.0000 -0.0751,-0.0188 -0.0751 -0.0751v -0.5820 c 0.0000,-0.0563 0.0188,-0.0751 0.0563 -0.0751c 1.2578,-0.0000 1.5581,-0.7321 1.5581 -2.1589v -0.3567 l 1.0888,-0.3755 v 2.8910 h 2.0650 c 0.0939,-0.0000 0.1502,0.0375 0.1502 0.1126v 0.3755 c 0.0000,0.1690 -0.2628,0.2440 -0.4505 0.2440h -1.7646 ZM 64.2312,203.3134 ZM 72.8855,197.3436 v 0.9199 h -7.4153 v -0.9199 h 7.4153 ZM 72.8855,197.3436 ZM 72.8855,199.6902 v 0.9199 h -7.4153 v -0.9199 h 7.4153 ZM 78.8177,203.3134 ZM 79.9065,194.9970 c 0.0000,-1.0701 1.0325,-2.5343 3.0037 -2.5343c 1.4455,-0.0000 3.1351,0.5444 3.1351 2.7033c 0.0000,1.4267 -0.7321,2.1401 -1.7459 3.1163l -1.7834,1.7271 c -0.0939,0.0939 -1.3516,1.3329 -1.3516 2.2152h 3.1914 c 0.6383,-0.0000 0.9762,-0.3191 1.2390 -1.3516l 0.4693,0.0751 l -0.3755,2.3654 h -5.8008 c 0.0000,-1.0513 0.1690,-1.8585 1.9148 -3.6419l 1.3141,-1.2953 c 1.0513,-1.0701 1.4831,-1.9899 1.4831 -3.1351c 0.0000,-1.7083 -1.1639,-2.1964 -1.8022 -2.1964c -1.2953,-0.0000 -1.6520,0.6758 -1.6520 1.1264c 0.0000,0.1502 0.0375,0.3004 0.0751 0.4318c 0.0375,0.1314 0.0751,0.2628 0.0751 0.4130c 0.0000,0.4881 -0.3755,0.6758 -0.6758 0.6758c -0.4130,-0.0000 -0.7134,-0.3191 -0.7134 -0.6946ZM 87.0402,203.3134 ZM 88.1102,202.5437 c 0.0000,-0.5444 0.4505,-0.9950 0.9950 -0.9950c 0.5444,-0.0000 0.9950,0.4505 0.9950 0.9950c 0.0000,0.5444 -0.4505,0.9950 -0.9950 0.9950c -0.5444,-0.0000 -0.9950,-0.4505 -0.9950 -0.9950ZM 91.1514,203.3134 ZM 95.2627,193.1198 c -0.8072,-0.0000 -1.9899,0.7885 -1.9899 5.1625c 0.0000,1.5394 0.2816,4.6369 1.9336 4.6369c 0.3191,-0.0000 1.2202,-0.2065 1.6145 -1.6708c 0.2440,-0.9011 0.3755,-2.0275 0.3755 -3.6607c 0.0000,-2.3841 -0.6007,-3.7170 -1.1451 -4.1863c -0.2065,-0.1877 -0.4881,-0.2816 -0.7885 -0.2816ZM 95.2627,193.1198 ZM 95.1876,203.5387 c -2.0087,-0.0000 -3.3603,-2.5719 -3.3603 -5.4441c 0.0000,-3.5105 1.6708,-5.6318 3.4354 -5.6318c 0.8072,-0.0000 1.6145,0.5069 2.1589 1.2390c 0.7885,1.0513 1.2015,2.4592 1.2015 4.2239c 0.0000,4.1676 -2.0650,5.6131 -3.4354 5.6131Z"/></g><g stroke-linejoin="miter" stroke-opacity="0.0" fill-opacity="0.1" stroke="rgb(0,0,0)" stroke-width="0.0" fill="rgb(51,51,51)" stroke-linecap="butt" stroke-miterlimit="10.0"><path d="M 113.2001,211.3200 l -0.0000,-22.6400 h -113.2001 l -0.0000,22.6400 Z"/></g><g stroke-linejoin="miter" stroke-opacity="0.2" fill-opacity="0.0" stroke="rgb(128,128,51)" stroke-width="1.4864097075414051" fill="rgb(0,0,0)" stroke-linecap="butt" stroke-miterlimit="10.0"><path d="M 113.2001,211.3200 l -0.0000,-22.6400 h -113.2001 l -0.0000,22.6400 Z"/></g><g stroke-linejoin="miter" stroke-opacity="0.0" fill-opacity="0.1" stroke="rgb(0,0,0)" stroke-width="0.0" fill="rgb(0,0,0)" stroke-linecap="butt" stroke-miterlimit="10.0"><path d="M 344.7140,140.8628 l -0.0000,-4.5280 h -226.4002 l -0.0000,4.5280 Z"/></g><g stroke-linejoin="miter" stroke-opacity="1.0" fill-opacity="1.0" stroke="rgb(0,0,0)" fill-rule="evenodd" stroke-width="0.0" fill="rgb(85,85,85)" stroke-linecap="butt" stroke-miterlimit="10.0"><path d="M 341.4776,161.9954 ZM 346.1182,159.4573 c 0.0000,-1.5469 -0.8410,-2.3128 -1.7722 -2.3128c -0.6908,-0.0000 -1.2165,0.1051 -1.8022 0.3454l 0.4806,-4.1000 c 0.4956,0.0451 1.0062,0.0601 1.5319 0.0601c 0.7509,-0.0000 1.5319,-0.0451 2.3428 -0.1352l 0.0901,0.0451 l -0.2253,0.9762 c -0.5857,0.0601 -1.0663,0.0751 -1.4868 0.0751c -0.6758,-0.0000 -1.1864,-0.0601 -1.7121 -0.1201l -0.2853,2.3729 c 0.3154,-0.1201 0.8560,-0.2253 1.4418 -0.2253c 1.5919,-0.0000 2.4780,1.3817 2.4780 2.7634c 0.0000,1.6820 -1.1714,2.9736 -2.8685 2.9736c -0.8560,-0.0000 -2.1026,-0.4806 -2.1026 -1.0663c 0.0000,-0.2853 0.2403,-0.4806 0.5106 -0.4806c 0.3004,-0.0000 0.4956,0.2253 0.6758 0.4656c 0.2253,0.2703 0.4656,0.5707 0.9462 0.5707c 0.9612,-0.0000 1.7571,-0.9011 1.7571 -2.2077Z"/></g><g stroke-linejoin="miter" stroke-opacity="1.0" fill-opacity="0.0" stroke="rgb(0,0,0)" stroke-width="1.4864097075414051" fill="rgb(0,0,0)" stroke-linecap="butt" stroke-miterlimit="10.0"><path d="M 344.7140,137.4668 v 6.7920 "/></g><g stroke-linejoin="miter" stroke-opacity="1.0" fill-opacity="1.0" stroke="rgb(0,0,0)" fill-rule="evenodd" stroke-width="0.0" fill="rgb(85,85,85)" stroke-linecap="butt" stroke-miterlimit="10.0"><path d="M 318.7775,161.9954 ZM 322.6522,156.6639 c 0.0000,-0.1051 0.0150,-0.2253 0.1502 -0.3004c 0.1652,-0.1201 0.4355,-0.2553 0.6608 -0.2553c 0.1952,-0.0000 0.2103,0.1652 0.2103 0.4656v 2.4179 h 1.2165 l -0.0901,0.7059 h -1.1264 v 1.2465 c 0.0000,0.4205 0.0601,0.6308 0.4956 0.6308h 0.4055 c 0.0901,-0.0000 0.1051,0.0751 0.1051 0.1051v 0.3304 c 0.0000,-0.0000 -0.9612,-0.0300 -1.5919 -0.0300c -0.5707,-0.0000 -1.4568,0.0300 -1.4568 0.0300v -0.3304 c 0.0000,-0.0300 0.0150,-0.1051 0.1051 -0.1051h 0.4055 c 0.4656,-0.0000 0.5106,-0.1952 0.5106 -0.6308v -1.2465 h -2.9436 c -0.0601,-0.0000 -0.0901,-0.0300 -0.1352 -0.0901l -0.1201,-0.1652 l -0.1802,-0.3154 c -0.0150,-0.0000 -0.0150,-0.0150 -0.0150 -0.0300c 0.0000,-0.0150 0.0150,-0.0300 0.0300 -0.0451c 0.9762,-1.0813 2.7033,-4.4304 3.2439 -5.6619c 0.0150,-0.0601 0.0451,-0.0751 0.1051 -0.0751c 0.0150,-0.0000 0.3454,0.1352 0.5256 0.1652c -0.6758,1.8172 -1.7872,3.7696 -2.8835 5.5117h 2.3729 v -2.3278 Z"/></g><g stroke-linejoin="miter" stroke-opacity="1.0" fill-opacity="0.0" stroke="rgb(0,0,0)" stroke-width="1.4864097075414051" fill="rgb(0,0,0)" stroke-linecap="butt" stroke-miterlimit="10.0"><path d="M 322.0740,137.4668 v 6.7920 "/></g><g stroke-linejoin="miter" stroke-opacity="1.0" fill-opacity="1.0" stroke="rgb(0,0,0)" fill-rule="evenodd" stroke-width="0.0" fill="rgb(85,85,85)" stroke-linecap="butt" stroke-miterlimit="10.0"><path d="M 296.1450,161.9954 ZM 299.3889,153.7804 c -0.3755,-0.0000 -1.4718,0.2103 -1.4718 1.1264c 0.0000,0.2703 -0.1051,0.7359 -0.5106 0.7359c -0.3905,-0.0000 -0.4205,-0.4355 -0.4205 -0.4806c 0.0000,-0.4656 0.6157,-1.8472 2.7033 -1.8472c 1.4568,-0.0000 1.8923,0.9161 1.8923 1.5168c 0.0000,0.3755 -0.1201,1.1264 -1.4718 1.9824c 0.8410,0.1352 1.9524,0.7509 1.9524 2.3128c 0.0000,1.9824 -1.5018,3.0487 -3.1989 3.0487c -0.8560,-0.0000 -2.0575,-0.3755 -2.0575 -0.9462c 0.0000,-0.2253 0.2253,-0.4806 0.5256 -0.4806c 0.2853,-0.0000 0.4205,0.1502 0.5557 0.3454c 0.1652,0.2553 0.4355,0.6157 1.1564 0.6157c 0.4956,-0.0000 1.9073,-0.4956 1.9073 -2.3879c 0.0000,-1.6070 -1.1264,-1.8623 -1.9374 -1.8623c -0.1352,-0.0000 -0.3004,0.0300 -0.4656 0.0601l -0.0601,-0.4505 c 1.1564,-0.1952 2.1176,-1.3216 2.1176 -2.0124c 0.0000,-0.8560 -0.6007,-1.2766 -1.2165 -1.2766Z"/></g><g stroke-linejoin="miter" stroke-opacity="1.0" fill-opacity="0.0" stroke="rgb(0,0,0)" stroke-width="1.4864097075414051" fill="rgb(0,0,0)" stroke-linecap="butt" stroke-miterlimit="10.0"><path d="M 299.4340,137.4668 v 6.7920 "/></g><g stroke-linejoin="miter" stroke-opacity="1.0" fill-opacity="1.0" stroke="rgb(0,0,0)" fill-rule="evenodd" stroke-width="0.0" fill="rgb(85,85,85)" stroke-linecap="butt" stroke-miterlimit="10.0"><path d="M 273.4674,161.9954 ZM 274.3385,155.3423 c 0.0000,-0.8560 0.8260,-2.0275 2.4029 -2.0275c 1.1564,-0.0000 2.5080,0.4355 2.5080 2.1626c 0.0000,1.1414 -0.5857,1.7121 -1.3967 2.4930l -1.4267,1.3817 c -0.0751,0.0751 -1.0813,1.0663 -1.0813 1.7722h 2.5531 c 0.5106,-0.0000 0.7809,-0.2553 0.9912 -1.0813l 0.3755,0.0601 l -0.3004,1.8923 h -4.6406 c 0.0000,-0.8410 0.1352,-1.4868 1.5319 -2.9135l 1.0513,-1.0363 c 0.8410,-0.8560 1.1864,-1.5919 1.1864 -2.5080c 0.0000,-1.3667 -0.9311,-1.7571 -1.4418 -1.7571c -1.0363,-0.0000 -1.3216,0.5407 -1.3216 0.9011c 0.0000,0.1201 0.0300,0.2403 0.0601 0.3454c 0.0300,0.1051 0.0601,0.2103 0.0601 0.3304c 0.0000,0.3905 -0.3004,0.5407 -0.5407 0.5407c -0.3304,-0.0000 -0.5707,-0.2553 -0.5707 -0.5557Z"/></g><g stroke-linejoin="miter" stroke-opacity="1.0" fill-opacity="0.0" stroke="rgb(0,0,0)" stroke-width="1.4864097075414051" fill="rgb(0,0,0)" stroke-linecap="butt" stroke-miterlimit="10.0"><path d="M 276.7940,137.4668 v 6.7920 "/></g><g stroke-linejoin="miter" stroke-opacity="1.0" fill-opacity="1.0" stroke="rgb(0,0,0)" fill-rule="evenodd" stroke-width="0.0" fill="rgb(85,85,85)" stroke-linecap="butt" stroke-miterlimit="10.0"><path d="M 250.6172,161.9954 ZM 253.4406,154.8317 c -0.2853,-0.0000 -0.9462,0.2703 -1.2766 0.4205l -0.1802,-0.4656 c 1.3216,-0.6157 1.8322,-0.9311 2.5831 -1.4718h 0.2853 v 7.5542 c 0.0000,0.5407 0.0751,0.6908 0.5707 0.6908h 0.7809 c 0.0451,-0.0000 0.1201,0.0300 0.1201 0.1201v 0.3304 l -2.0575,-0.0300 l -2.0875,0.0300 v -0.3304 c 0.0150,-0.0451 0.0300,-0.1201 0.1201 -0.1201h 0.9011 c 0.5707,-0.0000 0.5707,-0.2553 0.5707 -0.6908v -5.1663 c 0.0000,-0.5106 0.0000,-0.8711 -0.3304 -0.8711Z"/></g><g stroke-linejoin="miter" stroke-opacity="1.0" fill-opacity="0.0" stroke="rgb(0,0,0)" stroke-width="1.4864097075414051" fill="rgb(0,0,0)" stroke-linecap="butt" stroke-miterlimit="10.0"><path d="M 254.1540,137.4668 v 6.7920 "/></g><g stroke-linejoin="miter" stroke-opacity="1.0" fill-opacity="1.0" stroke="rgb(0,0,0)" fill-rule="evenodd" stroke-width="0.0" fill="rgb(85,85,85)" stroke-linecap="butt" stroke-miterlimit="10.0"><path d="M 228.2550,161.9954 ZM 231.5440,153.8404 c -0.6458,-0.0000 -1.5919,0.6308 -1.5919 4.1300c 0.0000,1.2315 0.2253,3.7095 1.5469 3.7095c 0.2553,-0.0000 0.9762,-0.1652 1.2916 -1.3366c 0.1952,-0.7209 0.3004,-1.6220 0.3004 -2.9286c 0.0000,-1.9073 -0.4806,-2.9736 -0.9161 -3.3491c -0.1652,-0.1502 -0.3905,-0.2253 -0.6308 -0.2253ZM 231.5440,153.8404 ZM 231.4839,162.1756 c -1.6070,-0.0000 -2.6883,-2.0575 -2.6883 -4.3553c 0.0000,-2.8084 1.3366,-4.5055 2.7483 -4.5055c 0.6458,-0.0000 1.2916,0.4055 1.7271 0.9912c 0.6308,0.8410 0.9612,1.9674 0.9612 3.3791c 0.0000,3.3341 -1.6520,4.4905 -2.7483 4.4905Z"/></g><g stroke-linejoin="miter" stroke-opacity="1.0" fill-opacity="0.0" stroke="rgb(0,0,0)" stroke-width="1.4864097075414051" fill="rgb(0,0,0)" stroke-linecap="butt" stroke-miterlimit="10.0"><path d="M 231.5139,137.4668 v 6.7920 "/></g><g stroke-linejoin="miter" stroke-opacity="1.0" fill-opacity="1.0" stroke="rgb(0,0,0)" fill-rule="evenodd" stroke-width="0.0" fill="rgb(85,85,85)" stroke-linecap="butt" stroke-miterlimit="10.0"><path d="M 203.2721,161.9954 ZM 207.3871,158.4511 h -3.3941 c -0.1352,-0.0000 -0.2253,-0.1201 -0.2253 -0.2553c 0.0000,-0.2403 0.1952,-0.5557 0.3755 -0.5557h 3.4392 c 0.1502,-0.0000 0.2103,0.1352 0.2103 0.2703c 0.0000,0.1652 -0.2103,0.5407 -0.4055 0.5407ZM 208.2732,161.9954 ZM 211.0966,154.8317 c -0.2853,-0.0000 -0.9462,0.2703 -1.2766 0.4205l -0.1802,-0.4656 c 1.3216,-0.6157 1.8322,-0.9311 2.5831 -1.4718h 0.2853 v 7.5542 c 0.0000,0.5407 0.0751,0.6908 0.5707 0.6908h 0.7809 c 0.0451,-0.0000 0.1201,0.0300 0.1201 0.1201v 0.3304 l -2.0575,-0.0300 l -2.0875,0.0300 v -0.3304 c 0.0150,-0.0451 0.0300,-0.1201 0.1201 -0.1201h 0.9011 c 0.5707,-0.0000 0.5707,-0.2553 0.5707 -0.6908v -5.1663 c 0.0000,-0.5106 0.0000,-0.8711 -0.3304 -0.8711Z"/></g><g stroke-linejoin="miter" stroke-opacity="1.0" fill-opacity="0.0" stroke="rgb(0,0,0)" stroke-width="1.4864097075414051" fill="rgb(0,0,0)" stroke-linecap="butt" stroke-miterlimit="10.0"><path d="M 208.8739,137.4668 v 6.7920 "/></g><g stroke-linejoin="miter" stroke-opacity="1.0" fill-opacity="1.0" stroke="rgb(0,0,0)" fill-rule="evenodd" stroke-width="0.0" fill="rgb(85,85,85)" stroke-linecap="butt" stroke-miterlimit="10.0"><path d="M 180.5870,161.9954 ZM 184.7020,158.4511 h -3.3941 c -0.1352,-0.0000 -0.2253,-0.1201 -0.2253 -0.2553c 0.0000,-0.2403 0.1952,-0.5557 0.3755 -0.5557h 3.4392 c 0.1502,-0.0000 0.2103,0.1352 0.2103 0.2703c 0.0000,0.1652 -0.2103,0.5407 -0.4055 0.5407ZM 185.5881,161.9954 ZM 186.4592,155.3423 c 0.0000,-0.8560 0.8260,-2.0275 2.4029 -2.0275c 1.1564,-0.0000 2.5080,0.4355 2.5080 2.1626c 0.0000,1.1414 -0.5857,1.7121 -1.3967 2.4930l -1.4267,1.3817 c -0.0751,0.0751 -1.0813,1.0663 -1.0813 1.7722h 2.5531 c 0.5106,-0.0000 0.7809,-0.2553 0.9912 -1.0813l 0.3755,0.0601 l -0.3004,1.8923 h -4.6406 c 0.0000,-0.8410 0.1352,-1.4868 1.5319 -2.9135l 1.0513,-1.0363 c 0.8410,-0.8560 1.1864,-1.5919 1.1864 -2.5080c 0.0000,-1.3667 -0.9311,-1.7571 -1.4418 -1.7571c -1.0363,-0.0000 -1.3216,0.5407 -1.3216 0.9011c 0.0000,0.1201 0.0300,0.2403 0.0601 0.3454c 0.0300,0.1051 0.0601,0.2103 0.0601 0.3304c 0.0000,0.3905 -0.3004,0.5407 -0.5407 0.5407c -0.3304,-0.0000 -0.5707,-0.2553 -0.5707 -0.5557Z"/></g><g stroke-linejoin="miter" stroke-opacity="1.0" fill-opacity="0.0" stroke="rgb(0,0,0)" stroke-width="1.4864097075414051" fill="rgb(0,0,0)" stroke-linecap="butt" stroke-miterlimit="10.0"><path d="M 186.2339,137.4668 v 6.7920 "/></g><g stroke-linejoin="miter" stroke-opacity="1.0" fill-opacity="1.0" stroke="rgb(0,0,0)" fill-rule="evenodd" stroke-width="0.0" fill="rgb(85,85,85)" stroke-linecap="butt" stroke-miterlimit="10.0"><path d="M 157.8869,161.9954 ZM 162.0019,158.4511 h -3.3941 c -0.1352,-0.0000 -0.2253,-0.1201 -0.2253 -0.2553c 0.0000,-0.2403 0.1952,-0.5557 0.3755 -0.5557h 3.4392 c 0.1502,-0.0000 0.2103,0.1352 0.2103 0.2703c 0.0000,0.1652 -0.2103,0.5407 -0.4055 0.5407ZM 162.8880,161.9954 ZM 166.1320,153.7804 c -0.3755,-0.0000 -1.4718,0.2103 -1.4718 1.1264c 0.0000,0.2703 -0.1051,0.7359 -0.5106 0.7359c -0.3905,-0.0000 -0.4205,-0.4355 -0.4205 -0.4806c 0.0000,-0.4656 0.6157,-1.8472 2.7033 -1.8472c 1.4568,-0.0000 1.8923,0.9161 1.8923 1.5168c 0.0000,0.3755 -0.1201,1.1264 -1.4718 1.9824c 0.8410,0.1352 1.9524,0.7509 1.9524 2.3128c 0.0000,1.9824 -1.5018,3.0487 -3.1989 3.0487c -0.8560,-0.0000 -2.0575,-0.3755 -2.0575 -0.9462c 0.0000,-0.2253 0.2253,-0.4806 0.5256 -0.4806c 0.2853,-0.0000 0.4205,0.1502 0.5557 0.3454c 0.1652,0.2553 0.4355,0.6157 1.1564 0.6157c 0.4956,-0.0000 1.9073,-0.4956 1.9073 -2.3879c 0.0000,-1.6070 -1.1264,-1.8623 -1.9374 -1.8623c -0.1352,-0.0000 -0.3004,0.0300 -0.4656 0.0601l -0.0601,-0.4505 c 1.1564,-0.1952 2.1176,-1.3216 2.1176 -2.0124c 0.0000,-0.8560 -0.6007,-1.2766 -1.2165 -1.2766Z"/></g><g stroke-linejoin="miter" stroke-opacity="1.0" fill-opacity="0.0" stroke="rgb(0,0,0)" stroke-width="1.4864097075414051" fill="rgb(0,0,0)" stroke-linecap="butt" stroke-miterlimit="10.0"><path d="M 163.5939,137.4668 v 6.7920 "/></g><g stroke-linejoin="miter" stroke-opacity="1.0" fill-opacity="1.0" stroke="rgb(0,0,0)" fill-rule="evenodd" stroke-width="0.0" fill="rgb(85,85,85)" stroke-linecap="butt" stroke-miterlimit="10.0"><path d="M 135.1493,161.9954 ZM 139.2643,158.4511 h -3.3941 c -0.1352,-0.0000 -0.2253,-0.1201 -0.2253 -0.2553c 0.0000,-0.2403 0.1952,-0.5557 0.3755 -0.5557h 3.4392 c 0.1502,-0.0000 0.2103,0.1352 0.2103 0.2703c 0.0000,0.1652 -0.2103,0.5407 -0.4055 0.5407ZM 140.1504,161.9954 ZM 144.0251,156.6639 c 0.0000,-0.1051 0.0150,-0.2253 0.1502 -0.3004c 0.1652,-0.1201 0.4355,-0.2553 0.6608 -0.2553c 0.1952,-0.0000 0.2103,0.1652 0.2103 0.4656v 2.4179 h 1.2165 l -0.0901,0.7059 h -1.1264 v 1.2465 c 0.0000,0.4205 0.0601,0.6308 0.4956 0.6308h 0.4055 c 0.0901,-0.0000 0.1051,0.0751 0.1051 0.1051v 0.3304 c 0.0000,-0.0000 -0.9612,-0.0300 -1.5919 -0.0300c -0.5707,-0.0000 -1.4568,0.0300 -1.4568 0.0300v -0.3304 c 0.0000,-0.0300 0.0150,-0.1051 0.1051 -0.1051h 0.4055 c 0.4656,-0.0000 0.5106,-0.1952 0.5106 -0.6308v -1.2465 h -2.9436 c -0.0601,-0.0000 -0.0901,-0.0300 -0.1352 -0.0901l -0.1201,-0.1652 l -0.1802,-0.3154 c -0.0150,-0.0000 -0.0150,-0.0150 -0.0150 -0.0300c 0.0000,-0.0150 0.0150,-0.0300 0.0300 -0.0451c 0.9762,-1.0813 2.7033,-4.4304 3.2439 -5.6619c 0.0150,-0.0601 0.0451,-0.0751 0.1051 -0.0751c 0.0150,-0.0000 0.3454,0.1352 0.5256 0.1652c -0.6758,1.8172 -1.7872,3.7696 -2.8835 5.5117h 2.3729 v -2.3278 Z"/></g><g stroke-linejoin="miter" stroke-opacity="1.0" fill-opacity="0.0" stroke="rgb(0,0,0)" stroke-width="1.4864097075414051" fill="rgb(0,0,0)" stroke-linecap="butt" stroke-miterlimit="10.0"><path d="M 140.9538,137.4668 v 6.7920 "/></g><g stroke-linejoin="miter" stroke-opacity="1.0" fill-opacity="1.0" stroke="rgb(0,0,0)" fill-rule="evenodd" stroke-width="0.0" fill="rgb(85,85,85)" stroke-linecap="butt" stroke-miterlimit="10.0"><path d="M 112.7045,161.9954 ZM 116.8195,158.4511 h -3.3941 c -0.1352,-0.0000 -0.2253,-0.1201 -0.2253 -0.2553c 0.0000,-0.2403 0.1952,-0.5557 0.3755 -0.5557h 3.4392 c 0.1502,-0.0000 0.2103,0.1352 0.2103 0.2703c 0.0000,0.1652 -0.2103,0.5407 -0.4055 0.5407ZM 117.7056,161.9954 ZM 122.3462,159.4573 c 0.0000,-1.5469 -0.8410,-2.3128 -1.7722 -2.3128c -0.6908,-0.0000 -1.2165,0.1051 -1.8022 0.3454l 0.4806,-4.1000 c 0.4956,0.0451 1.0062,0.0601 1.5319 0.0601c 0.7509,-0.0000 1.5319,-0.0451 2.3428 -0.1352l 0.0901,0.0451 l -0.2253,0.9762 c -0.5857,0.0601 -1.0663,0.0751 -1.4868 0.0751c -0.6758,-0.0000 -1.1864,-0.0601 -1.7121 -0.1201l -0.2853,2.3729 c 0.3154,-0.1201 0.8560,-0.2253 1.4418 -0.2253c 1.5919,-0.0000 2.4780,1.3817 2.4780 2.7634c 0.0000,1.6820 -1.1714,2.9736 -2.8685 2.9736c -0.8560,-0.0000 -2.1026,-0.4806 -2.1026 -1.0663c 0.0000,-0.2853 0.2403,-0.4806 0.5106 -0.4806c 0.3004,-0.0000 0.4956,0.2253 0.6758 0.4656c 0.2253,0.2703 0.4656,0.5707 0.9462 0.5707c 0.9612,-0.0000 1.7571,-0.9011 1.7571 -2.2077Z"/></g><g stroke-linejoin="miter" stroke-opacity="1.0" fill-opacity="0.0" stroke="rgb(0,0,0)" stroke-width="1.4864097075414051" fill="rgb(0,0,0)" stroke-linecap="butt" stroke-miterlimit="10.0"><path d="M 118.3138,137.4668 v 6.7920 "/></g><g stroke-linejoin="miter" stroke-opacity="0.0" fill-opacity="0.0" stroke="rgb(0,0,0)" stroke-width="0.0" fill="rgb(0,0,0)" stroke-linecap="butt" stroke-miterlimit="10.0"><path d="M 343.3999,136.3348 l -0.0000,-22.6400 h -226.4002 l -0.0000,22.6400 Z"/></g><g stroke-linejoin="miter" stroke-opacity="0.2" fill-opacity="0.0" stroke="rgb(128,128,51)" stroke-width="1.4864097075414051" fill="rgb(0,0,0)" stroke-linecap="butt" stroke-miterlimit="10.0"><path d="M 347.1996,171.2316 l -0.0000,-57.5368 h -233.9995 l -0.0000,57.5368 Z"/></g><g stroke-linejoin="miter" stroke-opacity="1.0" fill-opacity="1.0" stroke="rgb(0,0,0)" fill-rule="evenodd" stroke-width="0.0" fill="rgb(85,85,85)" stroke-linecap="butt" stroke-miterlimit="10.0"><path d="M 13.8450,145.7766 ZM 19.3078,141.1772 l -1.4831,0.3755 c -1.6520,0.5069 -1.8961,1.3704 -1.8961 2.2152c 0.0000,0.5820 0.2816,1.4643 1.4643 1.4643c 0.5632,-0.0000 1.4267,-0.5444 1.9148 -0.9574v -3.0975 ZM 19.3078,141.1772 ZM 20.5093,146.0019 c -0.7134,-0.0000 -1.1076,-0.6383 -1.1827 -1.0888l -0.4318,0.3004 c -0.8635,0.6007 -1.1827,0.7885 -2.0462 0.7885c -1.3141,-0.0000 -2.2715,-0.7509 -2.2715 -2.1589c 0.0000,-1.4267 1.2202,-2.4029 3.0037 -2.8535l 1.7271,-0.4318 c 0.0000,-2.1213 -0.9762,-2.5156 -1.6145 -2.5156c -0.7134,-0.0000 -1.5394,0.3191 -1.5394 0.9011c 0.0000,0.2065 0.0375,0.3191 0.0563 0.3755c 0.0375,0.0751 0.0563,0.2065 0.0563 0.3379c 0.0000,0.2440 -0.1877,0.6195 -0.7321 0.6195c -0.4505,-0.0000 -0.7509,-0.3004 -0.7509 -0.7509c 0.0000,-1.0888 1.7646,-2.0462 2.9661 -2.0462c 1.3704,-0.0000 2.9473,0.5632 2.9473 3.2289v 2.7596 c 0.0000,1.1451 0.0188,1.6332 0.4505 1.6332c 0.4130,-0.0000 0.5256,-0.5256 0.5444 -0.9386l 0.4693,0.0939 c -0.1126,1.3704 -0.6946,1.7459 -1.6520 1.7459ZM 22.3115,145.7766 ZM 23.1187,143.1484 l 0.5069,-0.0188 c 0.0563,0.4693 0.2628,1.3704 0.6758 1.8022c 0.1877,0.2065 0.6946,0.5444 1.3892 0.5444c 0.6570,-0.0000 1.6332,-0.5256 1.6332 -1.4455c 0.0000,-0.8072 -0.4505,-1.3516 -1.9336 -1.9899c -1.3704,-0.6007 -2.0838,-0.9950 -2.0838 -2.4029c 0.0000,-1.2578 1.1076,-2.1589 2.5906 -2.1589c 0.9386,-0.0000 1.6332,0.1690 2.2152 0.4693c 0.1126,0.6007 0.1690,1.2390 0.2065 1.9148l -0.5069,0.0188 c -0.3942,-1.5394 -1.5206,-1.8397 -1.9148 -1.8397c -0.7134,-0.0000 -1.4455,0.2816 -1.4455 1.3141c 0.0000,0.7509 0.3567,1.1264 1.3892 1.5018c 1.5206,0.5632 2.7408,1.2390 2.7408 2.7408c 0.0000,1.8585 -1.9711,2.4029 -2.8535 2.4029c -0.6570,-0.0000 -1.2015,-0.0751 -1.6896 -0.2065c -0.1314,-0.0188 -0.2253,-0.0375 -0.3567 -0.0375c -0.0939,-0.0000 -0.2440,0.0188 -0.4318 0.0563c 0.0000,-0.7885 -0.0563,-1.7459 -0.1314 -2.6657ZM 29.2762,145.7766 ZM 32.0734,139.8819 v 4.6744 c 0.6570,0.7697 1.2766,0.8072 1.5769 0.8072c 2.0087,-0.0000 2.4592,-1.8773 2.4592 -3.4917c 0.0000,-2.2715 -0.9199,-3.5293 -2.0650 -3.5293c -0.6383,-0.0000 -1.5581,0.5444 -1.9711 1.5394ZM 32.0734,139.8819 ZM 30.6842,148.7427 v -9.2925 c 0.0000,-0.7134 -0.1690,-0.8448 -0.4318 -0.8448c -0.2440,-0.0000 -0.4693,0.0188 -0.7885 0.0939l -0.0939,-0.5256 c 1.2015,-0.2065 1.4267,-0.2816 1.9524 -0.5444c 0.2065,-0.0939 0.3379,-0.1502 0.4693 -0.1502h 0.2816 l -0.0563,1.5018 h 0.0563 c 0.8635,-1.3141 1.8773,-1.5018 2.4780 -1.5018c 1.8210,-0.0000 3.0224,1.8961 3.0224 3.8860c 0.0000,1.5206 -0.4693,2.6845 -1.3141 3.5481c -0.7321,0.7321 -1.5018,1.0888 -2.4968 1.0888c -0.6758,-0.0000 -1.2015,-0.1502 -1.6896 -0.4130v 3.1538 c 0.0000,0.5444 0.2065,0.8260 0.8072 0.8260h 0.3567 c 0.0939,-0.0000 0.1690,0.0563 0.1690 0.1502v 0.3567 l -0.0375,0.0375 c 0.0000,-0.0000 -1.2953,-0.0375 -2.0275 -0.0375c -0.6570,-0.0000 -1.9336,0.0375 -1.9336 0.0375l -0.0375,-0.0375 v -0.3567 c 0.0000,-0.0939 0.0563,-0.1502 0.1502 -0.1502h 0.3567 c 0.6195,-0.0000 0.8072,-0.2816 0.8072 -0.8260ZM 38.2684,145.7766 ZM 40.4085,140.5765 h 3.4542 c 0.1877,-0.0000 0.2628,-0.0939 0.2628 -0.2628c 0.0000,-1.7459 -0.8823,-2.1964 -1.5581 -2.1964c -0.4318,-0.0000 -1.8397,0.1690 -2.1589 2.4592ZM 40.4085,140.5765 ZM 45.3645,144.0307 l 0.3755,0.3004 c -0.7134,0.9762 -1.8210,1.6708 -3.1726 1.6708c -2.5719,-0.0000 -3.6607,-1.9148 -3.6607 -3.9611c 0.0000,-2.8535 1.8773,-4.5618 3.6607 -4.5618c 2.4780,-0.0000 3.0600,1.9336 3.0600 3.5105c 0.0000,0.2065 -0.1314,0.3191 -0.3379 0.3191h -4.9373 c -0.0188,0.1126 -0.0188,0.2253 -0.0188 0.3755c 0.0000,1.9148 1.3329,3.3979 2.6845 3.3979c 1.0325,-0.0000 1.6896,-0.3379 2.3466 -1.0513ZM 46.3032,145.7766 ZM 53.5119,144.0683 c -0.8260,1.4267 -1.7271,1.9336 -2.8535 1.9336c -2.2527,-0.0000 -3.6607,-1.7083 -3.6607 -4.1300c 0.0000,-2.6657 1.6708,-4.3928 3.6982 -4.3928c 1.8022,-0.0000 2.7596,0.9199 2.7596 1.9148c 0.0000,0.5444 -0.3379,0.8260 -0.7321 0.8260c -0.3942,-0.0000 -0.7697,-0.2065 -0.8260 -0.6758c -0.0751,-0.6195 -0.1877,-1.4267 -1.2953 -1.4267c -1.2390,-0.0000 -2.1589,1.3141 -2.1589 3.3416c 0.0000,2.1964 1.1827,3.7170 2.6282 3.7170c 0.8072,-0.0000 1.5206,-0.5256 2.1026 -1.3704ZM 53.8686,145.7766 ZM 56.9474,138.4364 v 4.8058 c 0.0000,1.1639 0.1126,1.7271 0.6195 1.7271c 0.4881,-0.0000 0.8635,-0.1502 1.3516 -0.5256l 0.3379,0.3191 c -0.7321,0.8260 -1.4831,1.2390 -2.3466 1.2390c -0.8635,-0.0000 -1.3704,-0.5256 -1.3704 -1.8585v -5.7069 h -1.2202 c -0.0563,-0.0000 -0.0751,-0.0188 -0.0751 -0.0751v -0.5820 c 0.0000,-0.0563 0.0188,-0.0751 0.0563 -0.0751c 1.2578,-0.0000 1.5581,-0.7321 1.5581 -2.1589v -0.3567 l 1.0888,-0.3755 v 2.8910 h 2.0650 c 0.0939,-0.0000 0.1502,0.0375 0.1502 0.1126v 0.3755 c 0.0000,0.1690 -0.2628,0.2440 -0.4505 0.2440h -1.7646 ZM 64.2312,145.7766 ZM 72.8855,139.8068 v 0.9199 h -7.4153 v -0.9199 h 7.4153 ZM 72.8855,139.8068 ZM 72.8855,142.1534 v 0.9199 h -7.4153 v -0.9199 h 7.4153 ZM 78.8177,145.7766 ZM 82.3470,136.8219 c -0.3567,-0.0000 -1.1827,0.3379 -1.5957 0.5256l -0.2253,-0.5820 c 1.6520,-0.7697 2.2903,-1.1639 3.2289 -1.8397h 0.3567 v 9.4427 c 0.0000,0.6758 0.0939,0.8635 0.7134 0.8635h 0.9762 c 0.0563,-0.0000 0.1502,0.0375 0.1502 0.1502v 0.4130 l -2.5719,-0.0375 l -2.6094,0.0375 v -0.4130 c 0.0188,-0.0563 0.0375,-0.1502 0.1502 -0.1502h 1.1264 c 0.7134,-0.0000 0.7134,-0.3191 0.7134 -0.8635v -6.4579 c 0.0000,-0.6383 0.0000,-1.0888 -0.4130 -1.0888ZM 87.0402,145.7766 ZM 88.1102,145.0069 c 0.0000,-0.5444 0.4505,-0.9950 0.9950 -0.9950c 0.5444,-0.0000 0.9950,0.4505 0.9950 0.9950c 0.0000,0.5444 -0.4505,0.9950 -0.9950 0.9950c -0.5444,-0.0000 -0.9950,-0.4505 -0.9950 -0.9950ZM 91.1514,145.7766 ZM 95.2627,135.5829 c -0.8072,-0.0000 -1.9899,0.7885 -1.9899 5.1625c 0.0000,1.5394 0.2816,4.6369 1.9336 4.6369c 0.3191,-0.0000 1.2202,-0.2065 1.6145 -1.6708c 0.2440,-0.9011 0.3755,-2.0275 0.3755 -3.6607c 0.0000,-2.3841 -0.6007,-3.7170 -1.1451 -4.1863c -0.2065,-0.1877 -0.4881,-0.2816 -0.7885 -0.2816ZM 95.2627,135.5829 ZM 95.1876,146.0019 c -2.0087,-0.0000 -3.3603,-2.5719 -3.3603 -5.4441c 0.0000,-3.5105 1.6708,-5.6318 3.4354 -5.6318c 0.8072,-0.0000 1.6145,0.5069 2.1589 1.2390c 0.7885,1.0513 1.2015,2.4592 1.2015 4.2239c 0.0000,4.1676 -2.0650,5.6131 -3.4354 5.6131Z"/></g><g stroke-linejoin="miter" stroke-opacity="0.0" fill-opacity="0.1" stroke="rgb(0,0,0)" stroke-width="0.0" fill="rgb(51,51,51)" stroke-linecap="butt" stroke-miterlimit="10.0"><path d="M 113.2001,153.7832 l -0.0000,-22.6400 h -113.2001 l -0.0000,22.6400 Z"/></g><g stroke-linejoin="miter" stroke-opacity="0.2" fill-opacity="0.0" stroke="rgb(128,128,51)" stroke-width="1.4864097075414051" fill="rgb(0,0,0)" stroke-linecap="butt" stroke-miterlimit="10.0"><path d="M 113.2001,153.7832 l -0.0000,-22.6400 h -113.2001 l -0.0000,22.6400 Z"/></g></svg>