<?xml version="1.0" encoding="UTF-8"?>
<!DOCTYPE svg PUBLIC "-//W3C//DTD SVG 1.1//EN"
    "http://www.w3.org/Graphics/SVG/1.1/DTD/svg11.dtd"><svg xmlns="http://www.w3.org/2000/svg" height="100.0000" stroke-opacity="1" viewBox="0 0 400 100" font-size="1" width="400.0000" xmlns:xlink="http://www.w3.org/1999/xlink" stroke="rgb(0,0,0)" version="1.1"><defs></defs><g stroke-linejoin="miter" stroke-opacity="1.0" fill-opacity="0.33" stroke="rgb(0,0,0)" fill-rule="evenodd" stroke-width="0.0" fill="rgb(0,0,0)" stroke-linecap="butt" stroke-miterlimit="10.0"><path d="M 346.6936,74.1294 ZM 354.3221,68.1592 v -26.4511 h -5.7214 c -0.3317,-0.0000 -0.4146,-0.0829 -0.4146 -0.4146v -1.1609 c 0.0000,-0.6633 0.4146,-1.6584 1.9071 -1.6584h 4.2289 v -3.2338 c 0.0000,-12.9353 6.7164,-18.9884 13.6816 -18.9884c 3.1509,-0.0000 5.3068,0.8292 7.3798 2.2388c 1.6584,1.2438 2.4046,2.6534 2.4046 3.9801c 0.0000,1.7413 -1.2438,2.9851 -2.8192 2.9851c -1.6584,-0.0000 -2.7363,-0.9121 -3.3997 -2.3217c -1.0779,-2.7363 -2.6534,-4.0630 -5.1410 -4.0630c -2.7363,-0.0000 -5.8872,1.9900 -5.8872 14.7595v 4.6434 h 9.1211 c 0.4146,-0.0000 0.6633,0.1658 0.6633 0.4975v 1.6584 c 0.0000,0.7463 -1.1609,1.0779 -1.9071 1.0779h -7.8773 v 26.4511 c 0.0000,2.4046 0.8292,3.6484 3.5655 3.6484h 2.7363 c 0.3317,-0.0000 0.6633,0.2488 0.6633 0.6633v 1.5755 l -0.1658,0.1658 c 0.0000,-0.0000 -6.7993,-0.1658 -10.0332 -0.1658c -2.9851,-0.0000 -8.6235,0.1658 -8.6235 0.1658l -0.1658,-0.1658 v -1.5755 c 0.0000,-0.4146 0.2488,-0.6633 0.6633 -0.6633h 1.5755 c 2.8192,-0.0000 3.5655,-1.2438 3.5655 -3.6484Z"/></g><g stroke-linejoin="miter" stroke-opacity="1.0" fill-opacity="0.33" stroke="rgb(0,0,0)" fill-rule="evenodd" stroke-width="0.0" fill="rgb(0,0,0)" stroke-linecap="butt" stroke-miterlimit="10.0"><path d="M 279.0527,74.1294 ZM 288.5054,51.1609 h 15.2570 c 0.8292,-0.0000 1.1609,-0.4146 1.1609 -1.1609c 0.0000,-7.7114 -3.8972,-9.7015 -6.8823 -9.7015c -1.9071,-0.0000 -8.1260,0.7463 -9.5357 10.8624ZM 288.5054,51.1609 ZM 310.3959,66.4179 l 1.6584,1.3267 c -3.1509,4.3118 -8.0431,7.3798 -14.0133 7.3798c -11.3599,-0.0000 -16.1692,-8.4577 -16.1692 -17.4959c 0.0000,-12.6036 8.2919,-20.1493 16.1692 -20.1493c 10.9453,-0.0000 13.5158,8.5406 13.5158 15.5058c 0.0000,0.9121 -0.5804,1.4096 -1.4925 1.4096h -21.8076 c -0.0829,0.4975 -0.0829,0.9950 -0.0829 1.6584c 0.0000,8.4577 5.8872,15.0083 11.8574 15.0083c 4.5605,-0.0000 7.4627,-1.4925 10.3648 -4.6434Z"/></g><g stroke-linejoin="miter" stroke-opacity="1.0" fill-opacity="0.33" stroke="rgb(0,0,0)" fill-rule="evenodd" stroke-width="0.0" fill="rgb(0,0,0)" stroke-linecap="butt" stroke-miterlimit="10.0"><path d="M 213.8163,74.1294 ZM 241.5112,66.7496 v -21.4760 c -1.9900,-3.1509 -4.2289,-4.8922 -8.1260 -4.8922c -1.6584,-0.0000 -5.0580,0.2488 -7.7114 4.1459c -1.1609,1.7413 -2.5705,5.3068 -2.5705 11.2769c 0.0000,10.8624 5.6385,15.8375 10.1161 15.8375c 2.7363,-0.0000 4.9751,-1.6584 8.2919 -4.8922ZM 241.5112,66.7496 ZM 247.7301,16.2521 v 47.9270 c 0.0000,2.4876 0.1658,3.8143 0.3317 4.3947c 0.2488,0.7463 1.1609,1.2438 1.8242 1.2438c 0.9950,-0.0000 2.8192,-0.0000 4.0630 -0.2488l 0.3317,2.3217 c -4.8093,0.8292 -9.1211,1.7413 -10.8624 3.2338h -1.9900 l 0.2488,-5.7214 c -3.1509,3.2338 -6.3847,5.7214 -10.6136 5.7214c -8.9552,-0.0000 -14.4279,-7.6285 -14.4279 -17.8275c 0.0000,-6.1360 1.6584,-11.2769 5.2239 -14.8425c 3.3167,-3.1509 6.9652,-4.9751 12.4378 -4.9751c 1.6584,-0.0000 5.3068,0.7463 7.2139 1.8242v -12.6866 c 0.0000,-4.7264 -0.7463,-6.0531 -2.4046 -6.0531l -2.7363,0.3317 c -0.1658,-0.0000 -0.4146,-0.1658 -0.4146 -0.4146l -0.1658,-2.0730 c 1.3267,-0.0000 4.3118,-0.4975 5.7214 -0.7463c 1.5755,-0.3317 2.7363,-0.6633 4.3947 -1.4096h 1.8242 Z"/></g><g stroke-linejoin="miter" stroke-opacity="1.0" fill-opacity="0.33" stroke="rgb(0,0,0)" fill-rule="evenodd" stroke-width="0.0" fill="rgb(0,0,0)" stroke-linecap="butt" stroke-miterlimit="10.0"><path d="M 155.0891,74.1294 ZM 186.9299,66.5837 c -3.6484,6.3018 -7.6285,8.5406 -12.6036 8.5406c -9.9502,-0.0000 -16.1692,-7.5456 -16.1692 -18.2421c 0.0000,-11.7745 7.3798,-19.4030 16.3350 -19.4030c 7.9602,-0.0000 12.1891,4.0630 12.1891 8.4577c 0.0000,2.4046 -1.4925,3.6484 -3.2338 3.6484c -1.7413,-0.0000 -3.3997,-0.9121 -3.6484 -2.9851c -0.3317,-2.7363 -0.8292,-6.3018 -5.7214 -6.3018c -5.4726,-0.0000 -9.5357,5.8043 -9.5357 14.7595c 0.0000,9.7015 5.2239,16.4179 11.6086 16.4179c 3.5655,-0.0000 6.7164,-2.3217 9.2869 -6.0531Z"/></g><g stroke-linejoin="miter" stroke-opacity="1.0" fill-opacity="0.33" stroke="rgb(0,0,0)" fill-rule="evenodd" stroke-width="0.0" fill="rgb(0,0,0)" stroke-linecap="butt" stroke-miterlimit="10.0"><path d="M 89.4797,74.1294 ZM 101.8346,69.5688 c 1.6584,1.9900 3.3997,2.6534 5.9701 2.6534c 7.8773,-0.0000 11.8574,-7.2968 11.8574 -16.7496c 0.0000,-8.4577 -4.3118,-14.5108 -9.3698 -14.5108c -0.9121,-0.0000 -5.2239,0.1658 -8.4577 3.5655v 25.0415 ZM 101.8346,69.5688 ZM 95.6157,26.6169 c 0.0000,-4.7264 -0.8292,-6.0531 -2.4876 -6.0531l -2.6534,0.3317 c -0.2488,-0.0000 -0.4146,-0.1658 -0.4146 -0.4146l -0.1658,-2.0730 c 1.3267,-0.0000 4.3118,-0.4975 5.7214 -0.7463c 1.4925,-0.3317 2.7363,-0.6633 4.3947 -1.4096h 1.8242 v 25.7048 c 2.8192,-3.0680 6.1360,-4.5605 10.1161 -4.5605c 7.2139,-0.0000 14.0962,6.8823 14.0962 16.9983c 0.0000,13.1841 -9.2869,20.6468 -17.7446 20.6468c -3.5655,-0.0000 -6.2189,-0.9950 -8.6235 -3.0680c -0.7463,0.9950 -1.8242,2.2388 -2.5705 3.0680l -1.7413,-0.4146 c 0.2488,-1.9900 0.2488,-3.3167 0.2488 -6.5506v -41.4594 Z"/></g><g stroke-linejoin="miter" stroke-opacity="1.0" fill-opacity="0.33" stroke="rgb(0,0,0)" fill-rule="evenodd" stroke-width="0.0" fill="rgb(0,0,0)" stroke-linecap="butt" stroke-miterlimit="10.0"><path d="M 28.0991,74.1294 ZM 52.2284,53.8143 l -6.5506,1.6584 c -7.2968,2.2388 -8.3748,6.0531 -8.3748 9.7844c 0.0000,2.5705 1.2438,6.4677 6.4677 6.4677c 2.4876,-0.0000 6.3018,-2.4046 8.4577 -4.2289v -13.6816 ZM 52.2284,53.8143 ZM 57.5352,75.1244 c -3.1509,-0.0000 -4.8922,-2.8192 -5.2239 -4.8093l -1.9071,1.3267 c -3.8143,2.6534 -5.2239,3.4826 -9.0381 3.4826c -5.8043,-0.0000 -10.0332,-3.3167 -10.0332 -9.5357c 0.0000,-6.3018 5.3897,-10.6136 13.2670 -12.6036l 7.6285,-1.9071 c 0.0000,-9.3698 -4.3118,-11.1111 -7.1310 -11.1111c -3.1509,-0.0000 -6.7993,1.4096 -6.7993 3.9801c 0.0000,0.9121 0.1658,1.4096 0.2488 1.6584c 0.1658,0.3317 0.2488,0.9121 0.2488 1.4925c 0.0000,1.0779 -0.8292,2.7363 -3.2338 2.7363c -1.9900,-0.0000 -3.3167,-1.3267 -3.3167 -3.3167c 0.0000,-4.8093 7.7944,-9.0381 13.1012 -9.0381c 6.0531,-0.0000 13.0182,2.4876 13.0182 14.2620v 12.1891 c 0.0000,5.0580 0.0829,7.2139 1.9900 7.2139c 1.8242,-0.0000 2.3217,-2.3217 2.4046 -4.1459l 2.0730,0.4146 c -0.4975,6.0531 -3.0680,7.7114 -7.2968 7.7114Z"/></g></svg>