<?xml version="1.0" encoding="UTF-8"?>
<!DOCTYPE svg PUBLIC "-//W3C//DTD SVG 1.1//EN"
    "http://www.w3.org/Graphics/SVG/1.1/DTD/svg11.dtd">
<svg xmlns="http://www.w3.org/2000/svg" height="100.0000" stroke-opacity="1" viewBox="0 0 400 100" font-size="1" width="400.0000" xmlns:xlink="http://www.w3.org/1999/xlink" stroke="rgb(0,0,0)" version="1.1">
  <defs>
  </defs>
  <g stroke-linejoin="miter" stroke-opacity="1.0" fill-opacity="0.33" stroke="rgb(0,0,0)" fill-rule="evenodd" stroke-width="0.0" fill="rgb(255,255,255)" stroke-linecap="butt" stroke-miterlimit="10.0">
    <path d="M 0.0000,56.1212 ZM 6.0606,56.3636 c -2.8687,-0.0000 -4.6263,-2.4444 -4.6263 -6.7273c 0.0000,-4.3232 1.7576,-6.6465 4.6263 -6.6465c 2.8687,-0.0000 4.6263,2.3232 4.6263 6.6465c 0.0000,4.2828 -1.7576,6.7273 -4.6263 6.7273ZM 6.0606,56.3636 ZM 6.0606,55.0303 c 1.7980,-0.0000 3.0707,-1.6970 3.0707 -5.3939c 0.0000,-3.7172 -1.2727,-5.3131 -3.0707 -5.3131c -1.7980,-0.0000 -3.0707,1.5960 -3.0707 5.3131c 0.0000,3.6970 1.2727,5.3939 3.0707 5.3939ZM 6.0606,55.0303 ZM 6.0606,50.8485 c -0.6667,-0.0000 -1.2525,-0.5051 -1.2525 -1.3535c 0.0000,-0.8283 0.5859,-1.3333 1.2525 -1.3333c 0.6667,-0.0000 1.2525,0.5051 1.2525 1.3333c 0.0000,0.8485 -0.5859,1.3535 -1.2525 1.3535ZM 12.1212,56.1212 ZM 14.0808,56.1212 v -1.3737 h 3.7172 v -9.4949 h -2.8889 v -1.0707 c 1.5152,-0.2020 2.4848,-0.5051 3.3131 -0.9495h 1.2323 v 11.5152 h 3.3737 v 1.3737 h -8.7475 ZM 24.2424,56.1212 ZM 25.7172,56.1212 v -0.9899 c 4.3636,-3.8586 6.7677,-6.1212 6.7677 -8.2626c 0.0000,-1.4747 -0.9091,-2.5253 -2.8081 -2.5253c -1.2121,-0.0000 -2.2626,0.6869 -3.0909 1.5556l -0.9495,-0.9495 c 1.1515,-1.1717 2.4242,-1.9596 4.2424 -1.9596c 2.5859,-0.0000 4.2020,1.5152 4.2020 3.7980c 0.0000,2.4242 -2.4242,4.8283 -5.9394 8.0202c 0.8081,-0.0606 1.6364,-0.1212 2.4040 -0.1212h 4.2424 v 1.4343 h -9.0707 ZM 36.3636,56.1212 ZM 42.1616,56.3636 c -2.2222,-0.0000 -3.6970,-0.8687 -4.6465 -1.8182l 0.8485,-1.0909 c 0.8485,0.8081 2.0404,1.5354 3.6970 1.5354c 1.7576,-0.0000 3.0909,-0.9293 3.0909 -2.3636c 0.0000,-1.5354 -1.2929,-2.5657 -4.6869 -2.5657v -1.2727 c 3.0505,-0.0000 4.2222,-1.0505 4.2222 -2.4040c 0.0000,-1.2525 -1.0505,-2.0404 -2.6263 -2.0404c -1.2121,-0.0000 -2.3232,0.5455 -3.1717 1.3131l -0.8889,-1.0505 c 1.0707,-0.9293 2.4646,-1.6162 4.1212 -1.6162c 2.4242,-0.0000 4.2626,1.1919 4.2626 3.2727c 0.0000,1.5556 -1.1515,2.5455 -2.7475 3.0707v 0.0808 c 1.7172,0.3636 3.1919,1.4949 3.1919 3.2727c 0.0000,2.2828 -2.1010,3.6768 -4.6667 3.6768ZM 60.6061,56.1212 ZM 70.5657,55.1515 l -7.5354,-5.1111 v -1.2525 l 7.5354,-5.1111 v 1.5960 l -6.0808,4.1010 v 0.0808 l 6.0808,4.1010 v 1.5960 ZM 72.7273,56.1212 ZM 76.3636,53.8788 l -0.8485,-0.6061 l 2.1818,-3.3333 l -3.2727,-1.4141 l 0.3232,-0.9293 l 3.3737,1.1111 l 0.1818,-3.8182 h 0.9697 l 0.1818,3.8182 l 3.3737,-1.1111 l 0.3232,0.9293 l -3.2727,1.4141 l 2.1818,3.3333 l -0.8485,0.6061 l -2.4242,-3.2121 ZM 84.8485,56.1212 ZM 87.0101,55.1515 v -1.5960 l 6.0808,-4.1010 v -0.0808 l -6.0808,-4.1010 v -1.5960 l 7.5354,5.1111 v 1.2525 ZM 109.0909,56.1212 ZM 119.0505,55.1515 l -7.5354,-5.1111 v -1.2525 l 7.5354,-5.1111 v 1.5960 l -6.0808,4.1010 v 0.0808 l 6.0808,4.1010 v 1.5960 ZM 121.2121,56.1212 ZM 122.9293,53.8384 l 0.7879,-1.1515 c 1.0101,0.7273 2.2424,1.3737 3.7576 1.3737c 1.5960,-0.0000 2.4444,-0.7273 2.4444 -1.7576c 0.0000,-2.5051 -6.4040,-2.0606 -6.4040 -5.5758c 0.0000,-1.6970 1.3131,-2.8485 3.2727 -3.0505v -2.6667 h 1.2121 v 2.6465 c 1.4747,0.1212 2.4040,0.7475 3.2121 1.5354l -0.8889,0.9697 c -0.9091,-0.7071 -1.6162,-1.1515 -2.9697 -1.1515c -1.3535,-0.0000 -2.2222,0.6465 -2.2222 1.6768c 0.0000,2.2222 6.4242,1.7980 6.4242 5.4949c 0.0000,1.7374 -1.4343,2.9899 -3.5556 3.2121v 2.9495 h -1.2121 v -2.9293 c -1.4949,-0.1212 -2.9293,-0.7879 -3.8586 -1.5758ZM 133.3333,56.1212 ZM 135.4949,55.1515 v -1.5960 l 6.0808,-4.1010 v -0.0808 l -6.0808,-4.1010 v -1.5960 l 7.5354,5.1111 v 1.2525 ZM 157.5758,56.1212 ZM 167.5354,55.1515 l -7.5354,-5.1111 v -1.2525 l 7.5354,-5.1111 v 1.5960 l -6.0808,4.1010 v 0.0808 l 6.0808,4.1010 v 1.5960 ZM 169.6970,56.1212 ZM 175.0101,61.1717 v -20.2020 h 1.4949 v 20.2020 h -1.4949 ZM 193.9394,56.1212 ZM 199.2525,61.1717 v -20.2020 h 1.4949 v 20.2020 h -1.4949 ZM 206.0606,56.1212 ZM 208.2222,55.1515 v -1.5960 l 6.0808,-4.1010 v -0.0808 l -6.0808,-4.1010 v -1.5960 l 7.5354,5.1111 v 1.2525 ZM 230.3030,56.1212 ZM 240.2626,55.1515 l -7.5354,-5.1111 v -1.2525 l 7.5354,-5.1111 v 1.5960 l -6.0808,4.1010 v 0.0808 l 6.0808,4.1010 v 1.5960 ZM 242.4242,56.1212 ZM 244.5859,55.1515 v -1.5960 l 6.0808,-4.1010 v -0.0808 l -6.0808,-4.1010 v -1.5960 l 7.5354,5.1111 v 1.2525 ZM 266.6667,56.1212 ZM 276.6263,55.1515 l -7.5354,-5.1111 v -1.2525 l 7.5354,-5.1111 v 1.5960 l -6.0808,4.1010 v 0.0808 l 6.0808,4.1010 v 1.5960 ZM 278.7879,56.1212 ZM 280.5051,50.0808 v -1.2525 h 8.6869 v 1.2525 h -8.6869 ZM 303.0303,56.1212 ZM 304.7475,50.0808 v -1.2525 h 8.6869 v 1.2525 h -8.6869 ZM 315.1515,56.1212 ZM 317.3131,55.1515 v -1.5960 l 6.0808,-4.1010 v -0.0808 l -6.0808,-4.1010 v -1.5960 l 7.5354,5.1111 v 1.2525 ZM 339.3939,56.1212 ZM 341.1111,47.9192 v -1.2525 h 8.6869 v 1.2525 h -8.6869 ZM 341.1111,47.9192 ZM 341.1111,52.2424 v -1.2525 h 8.6869 v 1.2525 h -8.6869 ZM 351.5152,56.1212 ZM 353.6768,55.1515 v -1.5960 l 6.0808,-4.1010 v -0.0808 l -6.0808,-4.1010 v -1.5960 l 7.5354,5.1111 v 1.2525 ZM 375.7576,56.1212 ZM 381.8182,49.1313 c -0.9091,-0.0000 -1.6364,-0.6869 -1.6364 -1.6970c 0.0000,-1.0303 0.7273,-1.7172 1.6364 -1.7172c 0.9091,-0.0000 1.6364,0.6869 1.6364 1.7172c 0.0000,1.0101 -0.7273,1.6970 -1.6364 1.6970ZM 381.8182,49.1313 ZM 381.8182,56.3636 c -0.9091,-0.0000 -1.6364,-0.6869 -1.6364 -1.6970c 0.0000,-1.0303 0.7273,-1.7172 1.6364 -1.7172c 0.9091,-0.0000 1.6364,0.6869 1.6364 1.7172c 0.0000,1.0101 -0.7273,1.6970 -1.6364 1.6970ZM 387.8788,56.1212 ZM 393.9394,49.1313 c -0.9091,-0.0000 -1.6364,-0.6869 -1.6364 -1.6970c 0.0000,-1.0303 0.7273,-1.7172 1.6364 -1.7172c 0.9091,-0.0000 1.6364,0.6869 1.6364 1.7172c 0.0000,1.0101 -0.7273,1.6970 -1.6364 1.6970ZM 393.9394,49.1313 ZM 393.9394,56.3636 c -0.9091,-0.0000 -1.6364,-0.6869 -1.6364 -1.6970c 0.0000,-1.0303 0.7273,-1.7172 1.6364 -1.7172c 0.9091,-0.0000 1.6364,0.6869 1.6364 1.7172c 0.0000,1.0101 -0.7273,1.6970 -1.6364 1.6970Z"/>
  </g>
</svg>