<?xml version="1.0" encoding="UTF-8"?>
<!DOCTYPE svg PUBLIC "-//W3C//DTD SVG 1.1//EN"
    "http://www.w3.org/Graphics/SVG/1.1/DTD/svg11.dtd">
<svg xmlns="http://www.w3.org/2000/svg" height="100.0000" stroke-opacity="1" viewBox="0 0 400 100" font-size="1" width="400.0000" xmlns:xlink="http://www.w3.org/1999/xlink" stroke="rgb(0,0,0)" version="1.1">
  <defs>
  </defs>
  <g stroke-linejoin="miter" stroke-opacity="1.0" fill-opacity="0.33" stroke="rgb(0,0,0)" fill-rule="evenodd" stroke-width="0.0" fill="rgb(0,0,0)" stroke-linecap="butt" stroke-miterlimit="10.0">
    <path d="M 217.8254,18.3930 ZM 220.0062,9.5463 h 4.0325 c 0.5966,-0.0000 1.3167,-0.1029 1.3784 -0.1029c 0.1440,-0.0000 0.2675,0.0411 0.2675 0.1234c 0.0000,0.0823 -0.1029,0.3292 -0.4526 0.8641l -4.8554,7.1597 h 2.6540 c 1.2139,-0.0000 1.5430,-0.4526 2.0368 -1.5430l 0.2675,-0.5966 l 0.5555,0.1440 c -0.3498,1.1933 -0.5761,2.1603 -0.6789 2.7980h -6.2339 c -0.3086,-0.0000 -0.4732,-0.1029 -0.4732 -0.2469c 0.0000,-0.1029 0.0206,-0.1646 0.1852 -0.4115l 4.9994,-7.3860 h -2.7775 c -0.6172,-0.0000 -1.3167,0.3498 -1.7282 1.8516l -0.5349,-0.0617 c 0.1646,-1.0081 0.2880,-1.9134 0.3086 -2.8392h 0.5143 c 0.0411,0.1234 0.2263,0.2469 0.5349 0.2469Z"/>
  </g>
  <g stroke-linejoin="miter" stroke-opacity="1.0" fill-opacity="0.33" stroke="rgb(0,0,0)" fill-rule="evenodd" stroke-width="0.0" fill="rgb(0,0,0)" stroke-linecap="butt" stroke-miterlimit="10.0">
    <path d="M 234.1911,21.4005 ZM 238.4704,12.9652 c 0.0000,0.1029 -0.1234,0.1646 -0.2263 0.1646c -0.6172,-0.0000 -0.8847,0.1234 -0.8847 0.4526c 0.0000,0.1234 0.0411,0.2880 0.1234 0.4732l 2.2631,5.3080 l 2.2837,-5.2258 c 0.1029,-0.1852 0.1440,-0.3498 0.1440 -0.4732c 0.0000,-0.4321 -0.4115,-0.5349 -0.8641 -0.5349h -0.0823 c -0.1029,-0.0000 -0.2057,-0.0823 -0.2057 -0.1440v -0.3909 l 0.0411,-0.0617 c 0.0000,-0.0000 1.2139,0.0411 1.9339 0.0411c 0.5761,-0.0000 1.4196,-0.0411 1.4196 -0.0411l 0.0617,0.0411 v 0.3909 c 0.0000,0.1029 -0.0823,0.1646 -0.2263 0.1646c -0.7818,-0.0000 -1.1727,0.8024 -1.4607 1.3990c -1.0904,2.3043 -1.9957,4.4234 -3.6416 8.3941c -0.6172,1.4813 -1.3579,3.2095 -2.8186 3.2095c -0.3909,-0.0000 -1.1933,-0.2263 -1.1933 -0.9670c 0.0000,-0.6172 0.4526,-0.8024 0.7818 -0.8024c 0.3086,-0.0000 0.5143,0.1234 0.6378 0.2880c 0.2057,0.2057 0.3498,0.3498 0.5555 0.3498c 0.3086,-0.0000 1.0287,-1.7693 1.5430 -3.0244c 0.1234,-0.2469 0.1646,-0.4526 0.1646 -0.6378c 0.0000,-0.2057 -0.1852,-0.7612 -0.3498 -1.1727l -2.5923,-6.0281 c -0.3292,-0.7818 -0.5555,-1.0081 -1.2550 -1.0081c -0.1234,-0.0000 -0.2057,-0.0617 -0.2057 -0.1440v -0.4115 l 0.0411,-0.0411 c 0.0000,-0.0000 0.9052,0.0411 1.5225 0.0411c 0.9670,-0.0000 2.4483,-0.0411 2.4483 -0.0411l 0.0411,0.0617 v 0.3703 Z"/>
  </g>
  <g stroke-linejoin="miter" stroke-opacity="1.0" fill-opacity="0.33" stroke="rgb(0,0,0)" fill-rule="evenodd" stroke-width="0.0" fill="rgb(0,0,0)" stroke-linecap="butt" stroke-miterlimit="10.0">
    <path d="M 250.1654,24.4080 ZM 254.2184,16.1374 c -0.4115,-0.0000 -0.4938,0.1029 -0.4938 0.2469c 0.0000,0.1029 0.0823,0.2880 0.3086 0.6584l 1.2550,1.8516 c 0.0617,0.1234 0.1234,0.1852 0.2057 0.1852c 0.0617,-0.0000 0.1029,-0.0411 0.1852 -0.1440l 1.3373,-1.8722 c 0.2263,-0.2880 0.3498,-0.5143 0.3498 -0.6789c 0.0000,-0.1646 -0.1440,-0.2469 -0.4321 -0.2469h -0.3292 c -0.0617,-0.0000 -0.1234,-0.0411 -0.1234 -0.1440v -0.3909 l 0.0617,-0.0617 c 0.0000,-0.0000 0.9670,0.0411 1.6048 0.0411c 0.6584,-0.0000 1.6665,-0.0411 1.6665 -0.0411l 0.0206,0.0411 v 0.3909 c 0.0000,0.1440 -0.1234,0.1646 -0.2469 0.1646c -0.7612,-0.0000 -1.0698,0.2469 -1.8311 1.2139l -1.7282,2.2014 c -0.0411,0.0617 -0.0617,0.1029 -0.0617 0.1440c 0.0000,0.0411 0.0206,0.1029 0.0617 0.1646l 1.8516,2.6129 c 0.9464,1.3373 1.2139,1.3579 1.8722 1.3579c 0.2057,-0.0000 0.2880,0.0411 0.2880 0.1646v 0.3909 l -0.0206,0.0411 c 0.0000,-0.0000 -1.1110,-0.0411 -1.8105 -0.0411c -0.8435,-0.0000 -2.1397,0.0411 -2.1397 0.0411l -0.0411,-0.0411 v -0.3909 c 0.0000,-0.1029 0.0411,-0.1646 0.1440 -0.1646h 0.2469 c 0.3292,-0.0000 0.4732,-0.0617 0.4732 -0.2263c 0.0000,-0.1852 -0.2263,-0.4938 -0.5555 -0.9258l -1.1933,-1.6459 c -0.0823,-0.1029 -0.1234,-0.1440 -0.1852 -0.1440c -0.0411,-0.0000 -0.1029,0.0617 -0.1852 0.1852l -1.2962,1.8722 c -0.3086,0.4115 -0.3703,0.5143 -0.3703 0.6584c 0.0000,0.1440 0.1234,0.2263 0.4321 0.2263h 0.2880 c 0.1029,-0.0000 0.1440,0.0617 0.1440 0.1646v 0.3909 l -0.0411,0.0411 c 0.0000,-0.0000 -1.0698,-0.0411 -1.7282 -0.0411c -0.5966,-0.0000 -1.5430,0.0411 -1.5430 0.0411l -0.0411,-0.0411 v -0.3498 c 0.0000,-0.1234 0.0823,-0.2057 0.2675 -0.2057c 0.4938,-0.0000 0.9670,-0.1029 1.8311 -1.2139l 1.7282,-2.2220 c 0.0206,-0.0411 0.0411,-0.0823 0.0411 -0.1440c 0.0000,-0.0617 -0.0206,-0.1029 -0.0617 -0.1646l -1.7899,-2.6129 c -0.5761,-0.8435 -0.9464,-1.3373 -1.6665 -1.3373c -0.1440,-0.0000 -0.2880,-0.0617 -0.2880 -0.1440v -0.3909 l 0.0411,-0.0617 l 1.6253,0.0411 l 2.2837,-0.0411 l 0.0617,0.0617 v 0.3703 c 0.0000,0.1029 -0.0823,0.1646 -0.1646 0.1646h -0.3086 Z"/>
  </g>
  <g stroke-linejoin="miter" stroke-opacity="1.0" fill-opacity="0.33" stroke="rgb(0,0,0)" fill-rule="evenodd" stroke-width="0.0" fill="rgb(0,0,0)" stroke-linecap="butt" stroke-miterlimit="10.0">
    <path d="M 261.7940,27.4156 ZM 265.9499,18.9803 c 0.0000,0.1029 -0.0823,0.1646 -0.1852 0.1646h -0.3086 c -0.4526,-0.0000 -0.5966,0.1234 -0.5966 0.3292c 0.0000,0.1440 0.0823,0.3292 0.1852 0.6172l 2.1603,5.4315 l 1.7899,-4.4645 l -0.3703,-0.9258 c -0.2675,-0.6995 -0.6995,-0.9875 -1.3167 -0.9875c -0.1029,-0.0000 -0.2057,-0.0411 -0.2057 -0.1440v -0.4115 l 0.0411,-0.0411 c 0.0000,-0.0000 1.1521,0.0411 1.8722 0.0411l 2.0574,-0.0411 l 0.0617,0.0411 v 0.3909 c 0.0000,0.1029 -0.1029,0.1646 -0.2057 0.1646h -0.3703 c -0.4115,-0.0000 -0.5966,0.0823 -0.5966 0.2880c 0.0000,0.1646 0.0823,0.3703 0.2057 0.6584l 2.1397,5.4315 l 2.1397,-5.3286 c 0.0617,-0.1234 0.1029,-0.2880 0.1029 -0.4526c 0.0000,-0.3498 -0.2263,-0.5966 -0.9258 -0.5966h -0.3086 c -0.1029,-0.0000 -0.1852,-0.0823 -0.1852 -0.1440v -0.4115 l 0.0617,-0.0411 c 0.0000,-0.0000 1.3579,0.0411 2.1191 0.0411c 0.6995,-0.0000 1.5225,-0.0411 1.5225 -0.0411l 0.0206,0.0411 v 0.3909 c 0.0000,0.1234 -0.1234,0.1646 -0.2469 0.1646c -0.5143,-0.0000 -1.0493,0.2263 -1.4196 1.1316l -2.7980,6.9540 c -0.1234,0.3086 -0.2880,0.4321 -0.4732 0.4321c -0.2057,-0.0000 -0.3703,-0.1234 -0.4938 -0.4115l -2.0574,-5.1435 l -2.0574,5.1023 c -0.1440,0.3292 -0.3086,0.4526 -0.4938 0.4526c -0.2057,-0.0000 -0.3703,-0.1234 -0.4938 -0.4115l -2.8186,-7.1185 c -0.3086,-0.8024 -0.6789,-0.9875 -1.2962 -0.9875c -0.1029,-0.0000 -0.2469,-0.0411 -0.2469 -0.1440v -0.4115 l 0.0411,-0.0411 c 0.0000,-0.0000 0.9670,0.0411 1.8722 0.0411c 0.9464,-0.0000 2.0368,-0.0411 2.0368 -0.0411l 0.0411,0.0617 v 0.3703 Z"/>
  </g>
  <g stroke-linejoin="miter" stroke-opacity="1.0" fill-opacity="0.33" stroke="rgb(0,0,0)" fill-rule="evenodd" stroke-width="0.0" fill="rgb(0,0,0)" stroke-linecap="butt" stroke-miterlimit="10.0">
    <path d="M 276.6814,30.4231 ZM 283.4707,22.1524 h -0.1029 c -0.1029,-0.0000 -0.1646,-0.0823 -0.1646 -0.1440v -0.4115 l 0.0823,-0.0411 c 0.0000,-0.0000 1.1727,0.0411 1.9339 0.0411c 0.5349,-0.0000 1.3990,-0.0411 1.3990 -0.0411l 0.0411,0.0411 v 0.3703 c 0.0000,0.1029 -0.1029,0.1852 -0.2263 0.1852c -0.5966,-0.0000 -1.0698,0.2675 -1.3990 1.0698l -2.8392,6.9745 c -0.1440,0.3498 -0.2880,0.4732 -0.4938 0.4732c -0.2675,-0.0000 -0.3909,-0.1234 -0.5143 -0.4321l -2.7980,-7.0980 c -0.2880,-0.7407 -0.7201,-0.9875 -1.3167 -0.9875c -0.1029,-0.0000 -0.2057,-0.0411 -0.2057 -0.1440v -0.4115 l 0.0617,-0.0411 c 0.0000,-0.0000 1.0904,0.0411 1.7899 0.0411c 0.8024,-0.0000 2.0574,-0.0411 2.0574 -0.0411l 0.0823,0.0411 v 0.3909 c 0.0000,0.1440 -0.1234,0.1646 -0.1852 0.1646h -0.3498 c -0.4115,0.0206 -0.5966,0.1440 -0.5966 0.3498c 0.0000,0.1440 0.0823,0.3086 0.2057 0.5966l 1.7693,4.4851 l 0.3498,0.9464 l 0.3498,-0.8847 l 1.8311,-4.5057 c 0.1029,-0.2263 0.1646,-0.4115 0.1646 -0.5555c 0.0000,-0.3086 -0.2263,-0.4321 -0.9258 -0.4321Z"/>
  </g>
  <g stroke-linejoin="miter" stroke-opacity="1.0" fill-opacity="0.33" stroke="rgb(0,0,0)" fill-rule="evenodd" stroke-width="0.0" fill="rgb(0,0,0)" stroke-linecap="butt" stroke-miterlimit="10.0">
    <path d="M 286.8759,33.4306 ZM 295.7020,31.0440 c 0.0000,1.0287 0.1029,1.3579 0.5143 1.3579c 0.2469,-0.0000 0.6995,-0.0411 1.0493 -0.1029l 0.0823,0.5761 c -1.2550,0.2263 -2.2631,0.4321 -2.7363 0.8024h -0.4526 l 0.0617,-1.5225 h -0.0617 c -1.1316,1.2344 -2.0574,1.5225 -2.9009 1.5225c -2.0368,-0.0000 -2.5717,-1.3784 -2.5717 -2.7980v -4.6908 c 0.0000,-0.6789 -0.1440,-1.0287 -0.9052 -1.0287c -0.0823,-0.0000 -0.2263,0.0206 -0.3498 0.0206l -0.0617,-0.0206 v -0.5349 l 0.0617,-0.0617 c 0.0000,-0.0000 1.3990,0.0411 2.0574 0.0411c 0.2880,-0.0000 0.7612,-0.0411 0.7612 -0.0411l -0.0206,1.6459 v 4.3822 c 0.0000,1.8311 0.9464,2.1603 1.5636 2.1603c 0.4732,-0.0000 0.9052,-0.1852 1.3373 -0.4938c 0.4938,-0.3703 0.8230,-0.6584 1.0287 -0.9258v -5.0817 c 0.0000,-0.7407 -0.1029,-1.0904 -0.8641 -1.0904c -0.1234,-0.0000 -0.3498,0.0206 -0.4115 0.0206l -0.0411,-0.0411 v -0.5143 l 0.0411,-0.0617 c 0.0000,-0.0000 1.4607,0.0411 2.0368 0.0411c 0.4732,-0.0000 0.8024,-0.0411 0.8024 -0.0411l -0.0206,1.6253 v 4.8554 Z"/>
  </g>
  <g stroke-linejoin="miter" stroke-opacity="1.0" fill-opacity="0.33" stroke="rgb(0,0,0)" fill-rule="evenodd" stroke-width="0.0" fill="rgb(0,0,0)" stroke-linecap="butt" stroke-miterlimit="10.0">
    <path d="M 297.4376,36.4381 ZM 300.8117,28.3937 v 5.2669 c 0.0000,1.2756 0.1234,1.8928 0.6789 1.8928c 0.5349,-0.0000 0.9464,-0.1646 1.4813 -0.5761l 0.3703,0.3498 c -0.8024,0.9052 -1.6253,1.3579 -2.5717 1.3579c -0.9464,-0.0000 -1.5019,-0.5761 -1.5019 -2.0368v -6.2544 h -1.3373 c -0.0617,-0.0000 -0.0823,-0.0206 -0.0823 -0.0823v -0.6378 c 0.0000,-0.0617 0.0206,-0.0823 0.0617 -0.0823c 1.3784,-0.0000 1.7076,-0.8024 1.7076 -2.3660v -0.3909 l 1.1933,-0.4115 v 3.1684 h 2.2631 c 0.1029,-0.0000 0.1646,0.0411 0.1646 0.1234v 0.4115 c 0.0000,0.1852 -0.2880,0.2675 -0.4938 0.2675h -1.9339 Z"/>
  </g>
  <g stroke-linejoin="miter" stroke-opacity="1.0" fill-opacity="0.33" stroke="rgb(0,0,0)" fill-rule="evenodd" stroke-width="0.0" fill="rgb(0,0,0)" stroke-linecap="butt" stroke-miterlimit="10.0">
    <path d="M 302.9442,39.4456 ZM 303.8288,36.5653 l 0.5555,-0.0206 c 0.0617,0.5143 0.2880,1.5019 0.7407 1.9751c 0.2057,0.2263 0.7612,0.5966 1.5225 0.5966c 0.7201,-0.0000 1.7899,-0.5761 1.7899 -1.5842c 0.0000,-0.8847 -0.4938,-1.4813 -2.1191 -2.1808c -1.5019,-0.6584 -2.2837,-1.0904 -2.2837 -2.6334c 0.0000,-1.3784 1.2139,-2.3660 2.8392 -2.3660c 1.0287,-0.0000 1.7899,0.1852 2.4277 0.5143c 0.1234,0.6584 0.1852,1.3579 0.2263 2.0985l -0.5555,0.0206 c -0.4321,-1.6871 -1.6665,-2.0162 -2.0985 -2.0162c -0.7818,-0.0000 -1.5842,0.3086 -1.5842 1.4402c 0.0000,0.8230 0.3909,1.2344 1.5225 1.6459c 1.6665,0.6172 3.0038,1.3579 3.0038 3.0038c 0.0000,2.0368 -2.1603,2.6334 -3.1272 2.6334c -0.7201,-0.0000 -1.3167,-0.0823 -1.8516 -0.2263c -0.1440,-0.0206 -0.2469,-0.0411 -0.3909 -0.0411c -0.1029,-0.0000 -0.2675,0.0206 -0.4732 0.0617c 0.0000,-0.8641 -0.0617,-1.9134 -0.1440 -2.9215Z"/>
  </g>
  <g stroke-linejoin="miter" stroke-opacity="1.0" fill-opacity="0.33" stroke="rgb(0,0,0)" fill-rule="evenodd" stroke-width="0.0" fill="rgb(0,0,0)" stroke-linecap="butt" stroke-miterlimit="10.0">
    <path d="M 307.2117,42.4531 ZM 309.0427,40.9718 v -5.1229 c 0.0000,-1.0287 -0.1440,-1.2550 -0.4526 -1.2550c -0.2675,-0.0000 -0.5143,0.0206 -0.8641 0.1029l -0.1029,-0.5761 c 1.2962,-0.2263 1.5225,-0.2880 2.1397 -0.5966c 0.2057,-0.1029 0.3703,-0.1646 0.5143 -0.1646h 0.3086 l -0.0617,1.8516 h 0.0617 c 0.5349,-0.8024 1.4402,-1.8516 2.4071 -1.8516c 0.8435,-0.0000 1.1521,0.4115 1.1521 0.9464c 0.0000,0.5349 -0.3498,0.8641 -0.8847 0.8641c -0.4115,-0.0000 -0.6378,-0.1646 -0.8435 -0.3703c -0.1234,-0.1234 -0.2675,-0.1852 -0.4115 -0.1852c -0.2263,-0.0000 -0.6789,0.3703 -1.1727 1.0698c -0.1440,0.1852 -0.2469,0.4526 -0.2469 0.7201v 4.5674 c 0.0000,0.5966 0.2057,0.9052 0.8847 0.9052h 0.5966 c 0.1029,-0.0000 0.1852,0.0617 0.1852 0.1646v 0.3909 l -0.0411,0.0411 c 0.0000,-0.0000 -1.6253,-0.0411 -2.4277 -0.0411c -0.7407,-0.0000 -2.1397,0.0411 -2.1397 0.0411l -0.0206,-0.0411 v -0.3909 c 0.0000,-0.1029 0.0411,-0.1646 0.1440 -0.1646h 0.3909 c 0.6995,-0.0000 0.8847,-0.3086 0.8847 -0.9052Z"/>
  </g>
  <g stroke-linejoin="miter" stroke-opacity="1.0" fill-opacity="0.33" stroke="rgb(0,0,0)" fill-rule="evenodd" stroke-width="0.0" fill="rgb(0,0,0)" stroke-linecap="butt" stroke-miterlimit="10.0">
    <path d="M 307.4945,45.4607 ZM 314.4484,38.5479 c -0.5555,-0.9258 -1.2550,-1.4813 -2.1191 -1.4813c -1.6459,-0.0000 -2.5306,1.5842 -2.5306 3.7239c 0.0000,3.1066 1.8105,4.0119 3.0038 4.0119c 0.3909,-0.0000 1.1110,-0.0411 1.6459 -0.4526v -5.8018 ZM 314.4484,38.5479 ZM 314.4484,48.7113 v -3.6827 c -0.3086,0.2675 -0.9670,0.6789 -2.1397 0.6789c -2.9626,-0.0000 -4.0736,-2.5923 -4.0736 -4.5057c 0.0000,-2.7157 1.6665,-4.8348 4.1765 -4.8348c 1.0081,-0.0000 1.8928,0.2880 2.5717 0.8847l 0.3086,-0.4938 c 0.1440,-0.2469 0.2880,-0.3909 0.4321 -0.3909c 0.2263,-0.0000 0.2675,0.2263 0.2675 0.5143v 11.8299 c 0.0000,0.5966 0.2057,0.9052 0.8847 0.9052h 0.3909 c 0.0823,-0.0000 0.1646,0.0617 0.1646 0.1646v 0.3909 l -0.0411,0.0411 c 0.0000,-0.0000 -1.3990,-0.0411 -2.2014 -0.0411c -0.7407,-0.0000 -2.3454,0.0411 -2.3454 0.0411l -0.0411,-0.0411 v -0.3909 c 0.0000,-0.1029 0.0617,-0.1646 0.1646 -0.1646h 0.5966 c 0.6995,-0.0000 0.8847,-0.3086 0.8847 -0.9052Z"/>
  </g>
  <g stroke-linejoin="miter" stroke-opacity="1.0" fill-opacity="0.33" stroke="rgb(0,0,0)" fill-rule="evenodd" stroke-width="0.0" fill="rgb(0,0,0)" stroke-linecap="butt" stroke-miterlimit="10.0">
    <path d="M 307.1694,48.4682 ZM 310.2349,42.0080 v 5.1229 c 0.7201,0.8435 1.3990,0.8847 1.7282 0.8847c 2.2014,-0.0000 2.6952,-2.0574 2.6952 -3.8267c 0.0000,-2.4894 -1.0081,-3.8679 -2.2631 -3.8679c -0.6995,-0.0000 -1.7076,0.5966 -2.1603 1.6871ZM 310.2349,42.0080 ZM 308.7125,51.7188 v -10.1840 c 0.0000,-0.7818 -0.1852,-0.9258 -0.4732 -0.9258c -0.2675,-0.0000 -0.5143,0.0206 -0.8641 0.1029l -0.1029,-0.5761 c 1.3167,-0.2263 1.5636,-0.3086 2.1397 -0.5966c 0.2263,-0.1029 0.3703,-0.1646 0.5143 -0.1646h 0.3086 l -0.0617,1.6459 h 0.0617 c 0.9464,-1.4402 2.0574,-1.6459 2.7157 -1.6459c 1.9957,-0.0000 3.3124,2.0780 3.3124 4.2588c 0.0000,1.6665 -0.5143,2.9421 -1.4402 3.8885c -0.8024,0.8024 -1.6459,1.1933 -2.7363 1.1933c -0.7407,-0.0000 -1.3167,-0.1646 -1.8516 -0.4526v 3.4564 c 0.0000,0.5966 0.2263,0.9052 0.8847 0.9052h 0.3909 c 0.1029,-0.0000 0.1852,0.0617 0.1852 0.1646v 0.3909 l -0.0411,0.0411 c 0.0000,-0.0000 -1.4196,-0.0411 -2.2220 -0.0411c -0.7201,-0.0000 -2.1191,0.0411 -2.1191 0.0411l -0.0411,-0.0411 v -0.3909 c 0.0000,-0.1029 0.0617,-0.1646 0.1646 -0.1646h 0.3909 c 0.6789,-0.0000 0.8847,-0.3086 0.8847 -0.9052Z"/>
  </g>
  <g stroke-linejoin="miter" stroke-opacity="1.0" fill-opacity="0.33" stroke="rgb(0,0,0)" fill-rule="evenodd" stroke-width="0.0" fill="rgb(0,0,0)" stroke-linecap="butt" stroke-miterlimit="10.0">
    <path d="M 304.4513,51.4757 ZM 305.1508,47.2581 c 0.0000,-2.8186 1.5225,-4.8760 4.2588 -4.8760c 3.0449,-0.0000 4.2176,2.5512 4.2176 4.6908c 0.0000,2.0574 -1.3373,4.6497 -4.2588 4.6497c -2.7569,-0.0000 -4.2176,-2.3660 -4.2176 -4.4645ZM 305.1508,47.2581 ZM 309.1833,43.0610 c -1.6459,-0.0000 -2.4071,1.9339 -2.4071 3.7239c 0.0000,1.5842 0.9052,4.2176 2.9421 4.2176c 0.9258,-0.0000 2.2837,-0.5555 2.2837 -3.2712c 0.0000,-3.0244 -1.1316,-4.6703 -2.8186 -4.6703Z"/>
  </g>
  <g stroke-linejoin="miter" stroke-opacity="1.0" fill-opacity="0.33" stroke="rgb(0,0,0)" fill-rule="evenodd" stroke-width="0.0" fill="rgb(0,0,0)" stroke-linecap="butt" stroke-miterlimit="10.0">
    <path d="M 299.0895,54.4832 ZM 306.5784,53.0019 v -4.5057 c 0.0000,-1.4402 -0.2469,-2.1191 -1.3373 -2.1191c -0.9052,-0.0000 -1.6871,0.3498 -2.7363 1.5842v 5.0406 c 0.0000,0.5966 0.2057,0.9052 0.8847 0.9052h 0.2880 c 0.1029,-0.0000 0.1646,0.0617 0.1646 0.1646v 0.3909 l -0.0411,0.0411 c 0.0000,-0.0000 -1.2962,-0.0411 -2.0985 -0.0411c -0.7407,-0.0000 -2.1397,0.0411 -2.1397 0.0411l -0.0411,-0.0411 v -0.3909 c 0.0000,-0.1029 0.0617,-0.1646 0.1646 -0.1646h 0.3909 c 0.6995,-0.0000 0.8847,-0.3086 0.8847 -0.9052v -5.1229 c 0.0000,-1.1110 -0.1646,-1.2550 -0.4526 -1.2550c -0.2675,-0.0000 -0.5143,0.0206 -0.8641 0.1029l -0.1029,-0.5761 c 0.8641,-0.1440 1.4813,-0.2469 2.1191 -0.5966c 0.2263,-0.1029 0.3909,-0.1646 0.5349 -0.1646h 0.3086 l -0.0617,1.8311 h 0.0617 c 1.3167,-1.5430 2.3043,-1.8311 3.3535 -1.8311c 1.8516,-0.0000 2.2425,1.4196 2.2425 3.2507v 4.3617 c 0.0000,0.5966 0.2263,0.9052 0.8847 0.9052h 0.3909 c 0.1029,-0.0000 0.1852,0.0617 0.1852 0.1646v 0.3909 l -0.0411,0.0411 c 0.0000,-0.0000 -1.4196,-0.0411 -2.2220 -0.0411c -0.7201,-0.0000 -2.0162,0.0411 -2.0162 0.0411l -0.0411,-0.0411 v -0.3909 c 0.0000,-0.1029 0.0617,-0.1646 0.1646 -0.1646h 0.2880 c 0.6789,-0.0000 0.8847,-0.3086 0.8847 -0.9052Z"/>
  </g>
  <g stroke-linejoin="miter" stroke-opacity="1.0" fill-opacity="0.33" stroke="rgb(0,0,0)" fill-rule="evenodd" stroke-width="0.0" fill="rgb(0,0,0)" stroke-linecap="butt" stroke-miterlimit="10.0">
    <path d="M 289.5080,57.4907 ZM 301.9140,56.0094 v -4.7320 c 0.0000,-1.3784 -0.5349,-1.8928 -1.3167 -1.8928c -0.8024,-0.0000 -1.4402,0.4115 -2.4277 1.5019c 0.0411,0.2469 0.0411,0.5349 0.0411 0.8230v 4.2999 c 0.0000,0.5966 0.2057,0.9052 0.8847 0.9052h 0.3498 c 0.1029,-0.0000 0.1852,0.0617 0.1852 0.1646v 0.3909 l -0.0411,0.0411 c 0.0000,-0.0000 -1.3784,-0.0411 -2.1808 -0.0411c -0.7407,-0.0000 -2.1603,0.0411 -2.1603 0.0411l -0.0411,-0.0411 v -0.3909 c 0.0000,-0.1029 0.0617,-0.1646 0.1646 -0.1646h 0.4115 c 0.6995,-0.0000 0.8847,-0.3086 0.8847 -0.9052v -4.6908 c 0.0000,-1.3784 -0.5555,-1.9339 -1.3373 -1.9339c -0.7201,-0.0000 -1.3990,0.5143 -2.3660 1.5225v 5.1023 c 0.0000,0.5966 0.2057,0.9052 0.8847 0.9052h 0.3909 c 0.0823,-0.0000 0.1646,0.0617 0.1646 0.1646v 0.3909 l -0.0411,0.0411 c 0.0000,-0.0000 -1.3990,-0.0411 -2.2014 -0.0411c -0.7407,-0.0000 -2.1397,0.0411 -2.1397 0.0411l -0.0411,-0.0411 v -0.3909 c 0.0000,-0.1029 0.0617,-0.1646 0.1646 -0.1646h 0.3909 c 0.6995,-0.0000 0.8847,-0.3086 0.8847 -0.9052v -5.1229 c 0.0000,-1.1727 -0.1852,-1.2550 -0.4526 -1.2550c -0.2675,-0.0000 -0.5143,0.0206 -0.8641 0.1029l -0.1029,-0.5761 c 1.2962,-0.2263 1.5842,-0.3086 2.1397 -0.5966c 0.2057,-0.1029 0.3703,-0.1646 0.5143 -0.1646h 0.3086 l -0.0617,1.7899 h 0.0617 c 0.9670,-1.0287 1.8311,-1.7899 3.1066 -1.7899c 1.1521,-0.0000 1.8722,0.8435 1.9957 1.7693c 1.1933,-1.2344 2.1603,-1.7693 3.2712 -1.7693c 1.8105,-0.0000 2.1191,1.5019 2.1191 3.3330v 4.2794 c 0.0000,0.5966 0.2057,0.9052 0.8847 0.9052h 0.3909 c 0.0823,-0.0000 0.1646,0.0617 0.1646 0.1646v 0.3909 l -0.0411,0.0411 c 0.0000,-0.0000 -1.3990,-0.0411 -2.2014 -0.0411c -0.7407,-0.0000 -2.1397,0.0411 -2.1397 0.0411l -0.0411,-0.0411 v -0.3909 c 0.0000,-0.1029 0.0617,-0.1646 0.1646 -0.1646h 0.3909 c 0.6789,-0.0000 0.8847,-0.3086 0.8847 -0.9052Z"/>
  </g>
  <g stroke-linejoin="miter" stroke-opacity="1.0" fill-opacity="0.33" stroke="rgb(0,0,0)" fill-rule="evenodd" stroke-width="0.0" fill="rgb(0,0,0)" stroke-linecap="butt" stroke-miterlimit="10.0">
    <path d="M 285.4374,60.4983 ZM 287.3919,59.0169 v -10.3075 c 0.0000,-1.1727 -0.2057,-1.5019 -0.6172 -1.5019l -0.6584,0.0823 c -0.0617,-0.0000 -0.1234,-0.0411 -0.1234 -0.1029l -0.0411,-0.5143 c 0.3292,-0.0000 1.0904,-0.1234 1.4402 -0.1852c 0.3703,-0.0823 0.6584,-0.1646 1.0698 -0.3498h 0.4526 v 12.8792 c 0.0000,0.5966 0.2263,0.9052 0.8847 0.9052h 0.4938 c 0.0823,-0.0000 0.1646,0.0617 0.1646 0.1646v 0.3909 l -0.0411,0.0411 c 0.0000,-0.0000 -1.5019,-0.0411 -2.3043 -0.0411c -0.7201,-0.0000 -2.2220,0.0411 -2.2220 0.0411l -0.0206,-0.0411 v -0.3909 c 0.0000,-0.1029 0.0411,-0.1646 0.1440 -0.1646h 0.4938 c 0.6789,-0.0000 0.8847,-0.3086 0.8847 -0.9052Z"/>
  </g>
  <g stroke-linejoin="miter" stroke-opacity="1.0" fill-opacity="0.33" stroke="rgb(0,0,0)" fill-rule="evenodd" stroke-width="0.0" fill="rgb(0,0,0)" stroke-linecap="butt" stroke-miterlimit="10.0">
    <path d="M 271.9610,63.5058 ZM 275.3146,59.1441 v 2.8803 c 0.0000,0.5966 0.2057,0.9052 0.8847 0.9052h 0.0411 c 0.0823,-0.0000 0.1646,0.0617 0.1646 0.1646v 0.3909 l -0.0411,0.0411 c 0.0000,-0.0000 -1.0493,-0.0411 -1.8516 -0.0411c -0.7407,-0.0000 -2.1191,0.0411 -2.1191 0.0411l -0.0411,-0.0411 v -0.3909 c 0.0000,-0.1029 0.0411,-0.1646 0.1440 -0.1646h 0.3909 c 0.6995,-0.0000 0.8847,-0.3086 0.8847 -0.9052v -10.3075 c 0.0000,-1.1727 -0.1852,-1.5019 -0.5966 -1.5019l -0.6789,0.0823 c -0.0617,-0.0000 -0.1029,-0.0411 -0.1029 -0.1029l -0.0411,-0.5143 c 0.3292,-0.0000 1.0698,-0.1234 1.4196 -0.1852c 0.3703,-0.0823 0.6789,-0.1646 1.0904 -0.3498h 0.4526 v 9.4845 c 0.5349,-0.1234 1.5842,-1.0493 2.6952 -2.2631c 0.3292,-0.3292 0.4115,-0.5966 0.4115 -0.8024c 0.0000,-0.1646 -0.1029,-0.3292 -0.5966 -0.3292h -0.0823 c -0.1029,-0.0000 -0.1646,-0.0823 -0.1646 -0.1646v -0.3909 l 0.0617,-0.0411 c 0.0000,-0.0000 0.9875,0.0411 1.7076 0.0411c 0.8024,-0.0000 1.9134,-0.0411 1.9134 -0.0411l 0.0823,0.0411 v 0.3909 c 0.0000,0.1029 -0.1234,0.1646 -0.2263 0.1646h -0.1440 c -0.5555,-0.0000 -1.4607,0.4526 -1.9751 0.9875l -1.5636,1.7282 c -0.0617,0.0617 -0.0823,0.1234 -0.0823 0.2057c 0.0000,0.1029 0.0411,0.2057 0.1029 0.2880l 2.4071,3.5593 c 0.3703,0.5555 1.0287,0.9258 1.5430 0.9258h 0.1440 c 0.1440,-0.0000 0.1852,0.0617 0.1852 0.1646v 0.3909 l -0.0411,0.0411 c 0.0000,-0.0000 -1.0493,-0.0411 -1.8516 -0.0411c -0.7201,-0.0000 -1.2756,0.0411 -1.2756 0.0411l -0.0617,-0.0411 v -0.3909 c 0.0000,-0.2675 -0.0617,-0.4938 -0.4732 -1.0904l -1.5019,-2.1191 c -0.4115,-0.5966 -0.6995,-0.7407 -1.2139 -0.7407Z"/>
  </g>
  <g stroke-linejoin="miter" stroke-opacity="1.0" fill-opacity="0.33" stroke="rgb(0,0,0)" fill-rule="evenodd" stroke-width="0.0" fill="rgb(0,0,0)" stroke-linecap="butt" stroke-miterlimit="10.0">
    <path d="M 260.9182,66.5133 ZM 263.0579,54.7656 c 0.0000,-0.5349 0.4321,-0.9875 0.9875 -0.9875c 0.5349,-0.0000 0.9875,0.4526 0.9875 0.9875c 0.0000,0.5555 -0.4526,0.9875 -0.9875 0.9875c -0.5555,-0.0000 -0.9875,-0.4321 -0.9875 -0.9875ZM 263.0579,54.7656 ZM 261.9675,70.5046 c 0.9052,-0.0000 1.5225,-1.6253 1.5225 -4.5262v -6.0693 c 0.0000,-1.0904 -0.1852,-1.2550 -0.4526 -1.2550c -0.2880,-0.0000 -0.5143,0.0206 -0.8641 0.1029l -0.1029,-0.5761 c 1.5019,-0.2469 1.9545,-0.4938 2.2220 -0.6378c 0.1440,-0.0617 0.2263,-0.1234 0.4321 -0.1234h 0.3086 v 7.9209 c 0.0000,2.6952 -0.2057,3.8267 -1.3373 4.9789c -0.5555,0.5349 -1.1521,0.7818 -1.6459 0.7818c -0.8435,-0.0000 -1.9339,-0.4321 -1.9339 -1.0493c 0.0000,-0.5143 0.3086,-0.7818 0.6584 -0.7818c 0.4938,-0.0000 0.7612,0.4732 0.8641 0.9052c 0.0617,0.2057 0.1646,0.3292 0.3292 0.3292Z"/>
  </g>
  <g stroke-linejoin="miter" stroke-opacity="1.0" fill-opacity="0.33" stroke="rgb(0,0,0)" fill-rule="evenodd" stroke-width="0.0" fill="rgb(0,0,0)" stroke-linecap="butt" stroke-miterlimit="10.0">
    <path d="M 246.1649,69.5208 ZM 247.7697,57.7732 c 0.0000,-0.5349 0.4321,-0.9875 0.9670 -0.9875c 0.5555,-0.0000 0.9875,0.4526 0.9875 0.9875c 0.0000,0.5555 -0.4321,0.9875 -0.9875 0.9875c -0.5349,-0.0000 -0.9670,-0.4321 -0.9670 -0.9875ZM 247.7697,57.7732 ZM 249.7242,68.0395 c 0.0000,0.5966 0.2263,0.9052 0.8847 0.9052h 0.3909 c 0.1029,-0.0000 0.1852,0.0617 0.1852 0.1646v 0.3909 l -0.0411,0.0411 c 0.0000,-0.0000 -1.4196,-0.0411 -2.2220 -0.0411c -0.7201,-0.0000 -2.1191,0.0411 -2.1191 0.0411l -0.0411,-0.0411 v -0.3909 c 0.0000,-0.1029 0.0617,-0.1646 0.1646 -0.1646h 0.3909 c 0.6789,-0.0000 0.8847,-0.3086 0.8847 -0.9052v -5.1229 c 0.0000,-1.0904 -0.1852,-1.2550 -0.4732 -1.2550c -0.2675,-0.0000 -0.5143,0.0206 -0.8641 0.1029l -0.1029,-0.5761 c 1.3167,-0.2263 1.5430,-0.3086 2.1397 -0.5966c 0.2263,-0.0823 0.3703,-0.1646 0.5143 -0.1646h 0.3086 v 7.6123 Z"/>
  </g>
  <g stroke-linejoin="miter" stroke-opacity="1.0" fill-opacity="0.33" stroke="rgb(0,0,0)" fill-rule="evenodd" stroke-width="0.0" fill="rgb(0,0,0)" stroke-linecap="butt" stroke-miterlimit="10.0">
    <path d="M 227.0476,72.5283 ZM 230.4012,58.1678 v 6.9745 c 1.3784,-1.3784 2.5923,-1.7076 3.3947 -1.7076c 1.4813,-0.0000 2.2220,1.1316 2.2220 3.2507v 4.3617 c 0.0000,0.5966 0.2057,0.9052 0.8847 0.9052h 0.3909 c 0.0823,-0.0000 0.1646,0.0617 0.1646 0.1646v 0.3909 l -0.0411,0.0411 c 0.0000,-0.0000 -1.3990,-0.0411 -2.2220 -0.0411c -0.7201,-0.0000 -2.1191,0.0411 -2.1191 0.0411l -0.0411,-0.0411 v -0.3909 c 0.0000,-0.1029 0.0617,-0.1646 0.1646 -0.1646h 0.3909 c 0.6995,-0.0000 0.8847,-0.3086 0.8847 -0.9052v -4.5880 c 0.0000,-1.6665 -0.4526,-2.0574 -1.6048 -2.0574c -0.5966,-0.0000 -1.4813,0.5349 -2.4689 1.5019v 5.1435 c 0.0000,0.5966 0.2057,0.9052 0.8847 0.9052h 0.3909 c 0.0823,-0.0000 0.1646,0.0617 0.1646 0.1646v 0.3909 l -0.0411,0.0411 c 0.0000,-0.0000 -1.3990,-0.0411 -2.2014 -0.0411c -0.7407,-0.0000 -2.1191,0.0411 -2.1191 0.0411l -0.0411,-0.0411 v -0.3909 c 0.0000,-0.1029 0.0411,-0.1646 0.1440 -0.1646h 0.3909 c 0.6995,-0.0000 0.8847,-0.3086 0.8847 -0.9052v -10.3075 c 0.0000,-1.1727 -0.1852,-1.5019 -0.5966 -1.5019l -0.6789,0.0823 c -0.0617,-0.0000 -0.1029,-0.0411 -0.1029 -0.1029l -0.0411,-0.5143 c 0.3292,-0.0000 1.0698,-0.1234 1.4196 -0.1852c 0.3703,-0.0823 0.6789,-0.1646 1.0904 -0.3498h 0.4526 Z"/>
  </g>
  <g stroke-linejoin="miter" stroke-opacity="1.0" fill-opacity="0.33" stroke="rgb(0,0,0)" fill-rule="evenodd" stroke-width="0.0" fill="rgb(0,0,0)" stroke-linecap="butt" stroke-miterlimit="10.0">
    <path d="M 209.4404,75.5359 ZM 215.9418,69.7135 c 0.0000,-1.7076 -0.8024,-2.6952 -2.0368 -2.6952c -1.0698,-0.0000 -1.7899,0.7407 -1.7899 2.3454c 0.0000,1.0698 0.4115,2.7569 2.0574 2.7569c 0.7201,-0.0000 1.7693,-0.3498 1.7693 -2.4071ZM 215.9418,69.7135 ZM 212.0945,75.6799 c -0.6378,0.5966 -0.7818,1.2344 -0.7818 1.9339c 0.0000,1.5430 1.8516,1.9957 2.5512 1.9957c 1.7693,-0.0000 4.0119,-0.6172 4.0119 -2.0985c 0.0000,-0.5349 -0.2880,-0.8847 -1.0904 -1.2756c -0.5761,-0.2880 -1.4196,-0.5143 -2.4071 -0.5143c -0.1646,-0.0000 -0.3909,0.0206 -0.6789 0.0411c -0.2880,0.0206 -0.5966,0.0206 -0.8230 0.0206c -0.3292,-0.0000 -0.4938,-0.0411 -0.7818 -0.1029ZM 212.0945,75.6799 ZM 218.3489,67.5532 c -0.3292,-0.0000 -0.5349,-0.1852 -0.6172 -0.3498c -0.1234,-0.1852 -0.2057,-0.2469 -0.3498 -0.2469c -0.2469,-0.0000 -0.6378,0.2880 -0.7818 0.4938c 0.5761,0.6172 0.8435,1.2139 0.8435 2.1808c 0.0000,2.0162 -1.6459,3.1066 -3.3741 3.1066c -0.7612,-0.0000 -1.3784,-0.1440 -1.8516 -0.4321c -0.2263,0.3498 -0.3498,0.7818 -0.3498 1.1933c 0.0000,0.8847 0.6789,1.1110 1.2550 1.1110c 0.1029,-0.0000 0.3498,-0.0206 0.6378 -0.0411c 0.4732,-0.0617 0.9875,-0.1029 1.3373 -0.1029c 0.7201,-0.0000 2.0780,0.1440 2.9009 0.8435c 0.5555,0.5143 0.8641,1.0081 0.8641 1.6665c 0.0000,2.2220 -2.9215,3.3947 -5.5755 3.3947c -1.5019,-0.0000 -3.1684,-0.5555 -3.1684 -2.3454c 0.0000,-0.8847 0.5555,-1.8311 1.6048 -2.4894c -0.5143,-0.2675 -0.8847,-0.7818 -0.8847 -1.5225c 0.0000,-0.6995 0.3086,-1.5842 0.8641 -2.0780c -0.5555,-0.5555 -1.0287,-1.2550 -1.0287 -2.3866c 0.0000,-1.8928 1.6665,-3.1066 3.4153 -3.1066c 1.1521,-0.0000 1.8722,0.4732 2.0985 0.6378c 0.5143,-0.6995 1.4402,-1.0493 1.9545 -1.0493c 0.5349,-0.0000 0.9052,0.3498 0.9052 0.7818c 0.0000,0.4526 -0.2880,0.7407 -0.6995 0.7407Z"/>
  </g>
  <g stroke-linejoin="miter" stroke-opacity="1.0" fill-opacity="0.33" stroke="rgb(0,0,0)" fill-rule="evenodd" stroke-width="0.0" fill="rgb(0,0,0)" stroke-linecap="butt" stroke-miterlimit="10.0">
    <path d="M 192.0620,78.5434 ZM 193.9548,77.0621 v -6.5630 h -1.4196 c -0.0823,-0.0000 -0.1029,-0.0206 -0.1029 -0.1029v -0.2880 c 0.0000,-0.1646 0.1029,-0.4115 0.4732 -0.4115h 1.0493 v -0.8024 c 0.0000,-3.2095 1.6665,-4.7114 3.3947 -4.7114c 0.7818,-0.0000 1.3167,0.2057 1.8311 0.5555c 0.4115,0.3086 0.5966,0.6584 0.5966 0.9875c 0.0000,0.4321 -0.3086,0.7407 -0.6995 0.7407c -0.4115,-0.0000 -0.6789,-0.2263 -0.8435 -0.5761c -0.2675,-0.6789 -0.6584,-1.0081 -1.2756 -1.0081c -0.6789,-0.0000 -1.4607,0.4938 -1.4607 3.6621v 1.1521 h 2.2631 c 0.1029,-0.0000 0.1646,0.0411 0.1646 0.1234v 0.4115 c 0.0000,0.1852 -0.2880,0.2675 -0.4732 0.2675h -1.9545 v 6.5630 c 0.0000,0.5966 0.2057,0.9052 0.8847 0.9052h 0.6789 c 0.0823,-0.0000 0.1646,0.0617 0.1646 0.1646v 0.3909 l -0.0411,0.0411 c 0.0000,-0.0000 -1.6871,-0.0411 -2.4894 -0.0411c -0.7407,-0.0000 -2.1397,0.0411 -2.1397 0.0411l -0.0411,-0.0411 v -0.3909 c 0.0000,-0.1029 0.0617,-0.1646 0.1646 -0.1646h 0.3909 c 0.6995,-0.0000 0.8847,-0.3086 0.8847 -0.9052Z"/>
  </g>
  <g stroke-linejoin="miter" stroke-opacity="1.0" fill-opacity="0.33" stroke="rgb(0,0,0)" fill-rule="evenodd" stroke-width="0.0" fill="rgb(0,0,0)" stroke-linecap="butt" stroke-miterlimit="10.0">
    <path d="M 170.4754,81.5509 ZM 172.8208,75.8519 h 3.7856 c 0.2057,-0.0000 0.2880,-0.1029 0.2880 -0.2880c 0.0000,-1.9134 -0.9670,-2.4071 -1.7076 -2.4071c -0.4732,-0.0000 -2.0162,0.1852 -2.3660 2.6952ZM 172.8208,75.8519 ZM 178.2523,79.6375 l 0.4115,0.3292 c -0.7818,1.0698 -1.9957,1.8311 -3.4770 1.8311c -2.8186,-0.0000 -4.0119,-2.0985 -4.0119 -4.3411c 0.0000,-3.1272 2.0574,-4.9994 4.0119 -4.9994c 2.7157,-0.0000 3.3535,2.1191 3.3535 3.8473c 0.0000,0.2263 -0.1440,0.3498 -0.3703 0.3498h -5.4109 c -0.0206,0.1234 -0.0206,0.2469 -0.0206 0.4115c 0.0000,2.0985 1.4607,3.7239 2.9421 3.7239c 1.1316,-0.0000 1.8516,-0.3703 2.5717 -1.1521Z"/>
  </g>
  <g stroke-linejoin="miter" stroke-opacity="1.0" fill-opacity="0.33" stroke="rgb(0,0,0)" fill-rule="evenodd" stroke-width="0.0" fill="rgb(0,0,0)" stroke-linecap="butt" stroke-miterlimit="10.0">
    <path d="M 148.6074,84.5584 ZM 155.4791,82.7273 v -5.3286 c -0.4938,-0.7818 -1.0493,-1.2139 -2.0162 -1.2139c -0.4115,-0.0000 -1.2550,0.0617 -1.9134 1.0287c -0.2880,0.4321 -0.6378,1.3167 -0.6378 2.7980c 0.0000,2.6952 1.3990,3.9296 2.5100 3.9296c 0.6789,-0.0000 1.2344,-0.4115 2.0574 -1.2139ZM 155.4791,82.7273 ZM 157.0221,70.1979 v 11.8917 c 0.0000,0.6172 0.0411,0.9464 0.0823 1.0904c 0.0617,0.1852 0.2880,0.3086 0.4526 0.3086c 0.2469,-0.0000 0.6995,-0.0000 1.0081 -0.0617l 0.0823,0.5761 c -1.1933,0.2057 -2.2631,0.4321 -2.6952 0.8024h -0.4938 l 0.0617,-1.4196 c -0.7818,0.8024 -1.5842,1.4196 -2.6334 1.4196c -2.2220,-0.0000 -3.5798,-1.8928 -3.5798 -4.4234c 0.0000,-1.5225 0.4115,-2.7980 1.2962 -3.6827c 0.8230,-0.7818 1.7282,-1.2344 3.0861 -1.2344c 0.4115,-0.0000 1.3167,0.1852 1.7899 0.4526v -3.1478 c 0.0000,-1.1727 -0.1852,-1.5019 -0.5966 -1.5019l -0.6789,0.0823 c -0.0411,-0.0000 -0.1029,-0.0411 -0.1029 -0.1029l -0.0411,-0.5143 c 0.3292,-0.0000 1.0698,-0.1234 1.4196 -0.1852c 0.3909,-0.0823 0.6789,-0.1646 1.0904 -0.3498h 0.4526 Z"/>
  </g>
  <g stroke-linejoin="miter" stroke-opacity="1.0" fill-opacity="0.33" stroke="rgb(0,0,0)" fill-rule="evenodd" stroke-width="0.0" fill="rgb(0,0,0)" stroke-linecap="butt" stroke-miterlimit="10.0">
    <path d="M 127.6881,87.5659 ZM 135.5885,85.6937 c -0.9052,1.5636 -1.8928,2.1191 -3.1272 2.1191c -2.4689,-0.0000 -4.0119,-1.8722 -4.0119 -4.5262c 0.0000,-2.9215 1.8311,-4.8143 4.0530 -4.8143c 1.9751,-0.0000 3.0244,1.0081 3.0244 2.0985c 0.0000,0.5966 -0.3703,0.9052 -0.8024 0.9052c -0.4321,-0.0000 -0.8435,-0.2263 -0.9052 -0.7407c -0.0823,-0.6789 -0.2057,-1.5636 -1.4196 -1.5636c -1.3579,-0.0000 -2.3660,1.4402 -2.3660 3.6621c 0.0000,2.4071 1.2962,4.0736 2.8803 4.0736c 0.8847,-0.0000 1.6665,-0.5761 2.3043 -1.5019Z"/>
  </g>
  <g stroke-linejoin="miter" stroke-opacity="1.0" fill-opacity="0.33" stroke="rgb(0,0,0)" fill-rule="evenodd" stroke-width="0.0" fill="rgb(0,0,0)" stroke-linecap="butt" stroke-miterlimit="10.0">
    <path d="M 104.6133,90.5734 ZM 107.6788,89.4419 c 0.4115,0.4938 0.8435,0.6584 1.4813 0.6584c 1.9545,-0.0000 2.9421,-1.8105 2.9421 -4.1559c 0.0000,-2.0985 -1.0698,-3.6004 -2.3248 -3.6004c -0.2263,-0.0000 -1.2962,0.0411 -2.0985 0.8847v 6.2133 ZM 107.6788,89.4419 ZM 106.1358,78.7846 c 0.0000,-1.1727 -0.2057,-1.5019 -0.6172 -1.5019l -0.6584,0.0823 c -0.0617,-0.0000 -0.1029,-0.0411 -0.1029 -0.1029l -0.0411,-0.5143 c 0.3292,-0.0000 1.0698,-0.1234 1.4196 -0.1852c 0.3703,-0.0823 0.6789,-0.1646 1.0904 -0.3498h 0.4526 v 6.3779 c 0.6995,-0.7612 1.5225,-1.1316 2.5100 -1.1316c 1.7899,-0.0000 3.4975,1.7076 3.4975 4.2176c 0.0000,3.2712 -2.3043,5.1229 -4.4028 5.1229c -0.8847,-0.0000 -1.5430,-0.2469 -2.1397 -0.7612c -0.1852,0.2469 -0.4526,0.5555 -0.6378 0.7612l -0.4321,-0.1029 c 0.0617,-0.4938 0.0617,-0.8230 0.0617 -1.6253v -10.2869 Z"/>
  </g>
  <g stroke-linejoin="miter" stroke-opacity="1.0" fill-opacity="0.33" stroke="rgb(0,0,0)" fill-rule="evenodd" stroke-width="0.0" fill="rgb(0,0,0)" stroke-linecap="butt" stroke-miterlimit="10.0">
    <path d="M 82.3626,93.5810 ZM 88.3496,88.5404 l -1.6253,0.4115 c -1.8105,0.5555 -2.0780,1.5019 -2.0780 2.4277c 0.0000,0.6378 0.3086,1.6048 1.6048 1.6048c 0.6172,-0.0000 1.5636,-0.5966 2.0985 -1.0493v -3.3947 ZM 88.3496,88.5404 ZM 89.6663,93.8279 c -0.7818,-0.0000 -1.2139,-0.6995 -1.2962 -1.1933l -0.4732,0.3292 c -0.9464,0.6584 -1.2962,0.8641 -2.2425 0.8641c -1.4402,-0.0000 -2.4894,-0.8230 -2.4894 -2.3660c 0.0000,-1.5636 1.3373,-2.6334 3.2918 -3.1272l 1.8928,-0.4732 c 0.0000,-2.3248 -1.0698,-2.7569 -1.7693 -2.7569c -0.7818,-0.0000 -1.6871,0.3498 -1.6871 0.9875c 0.0000,0.2263 0.0411,0.3498 0.0617 0.4115c 0.0411,0.0823 0.0617,0.2263 0.0617 0.3703c 0.0000,0.2675 -0.2057,0.6789 -0.8024 0.6789c -0.4938,-0.0000 -0.8230,-0.3292 -0.8230 -0.8230c 0.0000,-1.1933 1.9339,-2.2425 3.2507 -2.2425c 1.5019,-0.0000 3.2301,0.6172 3.2301 3.5387v 3.0244 c 0.0000,1.2550 0.0206,1.7899 0.4938 1.7899c 0.4526,-0.0000 0.5761,-0.5761 0.5966 -1.0287l 0.5143,0.1029 c -0.1234,1.5019 -0.7612,1.9134 -1.8105 1.9134Z"/>
  </g>
</svg>