<?xml version="1.0" encoding="UTF-8"?>
<!DOCTYPE svg PUBLIC "-//W3C//DTD SVG 1.1//EN"
    "http://www.w3.org/Graphics/SVG/1.1/DTD/svg11.dtd"><svg xmlns="http://www.w3.org/2000/svg" height="100.0000" stroke-opacity="1" viewBox="0 0 400 100" font-size="1" width="400.0000" xmlns:xlink="http://www.w3.org/1999/xlink" stroke="rgb(0,0,0)" version="1.1"><defs></defs><g stroke-linejoin="miter" stroke-opacity="1.0" fill-opacity="0.33" stroke="rgb(0,0,0)" fill-rule="evenodd" stroke-width="0.0" fill="rgb(0,0,0)" stroke-linecap="butt" stroke-miterlimit="10.0"><path d="M 200.3364,0.2365 ZM 200.3644,0.1227 h 0.0518 c 0.0077,-0.0000 0.0169,-0.0013 0.0177 -0.0013c 0.0019,-0.0000 0.0034,0.0005 0.0034 0.0016c 0.0000,0.0011 -0.0013,0.0042 -0.0058 0.0111l -0.0624,0.0920 h 0.0341 c 0.0156,-0.0000 0.0198,-0.0058 0.0262 -0.0198l 0.0034,-0.0077 l 0.0071,0.0019 c -0.0045,0.0153 -0.0074,0.0278 -0.0087 0.0360h -0.0801 c -0.0040,-0.0000 -0.0061,-0.0013 -0.0061 -0.0032c 0.0000,-0.0013 0.0003,-0.0021 0.0024 -0.0053l 0.0643,-0.0950 h -0.0357 c -0.0079,-0.0000 -0.0169,0.0045 -0.0222 0.0238l -0.0069,-0.0008 c 0.0021,-0.0130 0.0037,-0.0246 0.0040 -0.0365h 0.0066 c 0.0005,0.0016 0.0029,0.0032 0.0069 0.0032Z"/></g><g stroke-linejoin="miter" stroke-opacity="1.0" fill-opacity="0.33" stroke="rgb(0,0,0)" fill-rule="evenodd" stroke-width="0.0" fill="rgb(0,0,0)" stroke-linecap="butt" stroke-miterlimit="10.0"><path d="M 200.6304,4.2237 ZM 200.6854,4.1153 c 0.0000,0.0013 -0.0016,0.0021 -0.0029 0.0021c -0.0079,-0.0000 -0.0114,0.0016 -0.0114 0.0058c 0.0000,0.0016 0.0005,0.0037 0.0016 0.0061l 0.0291,0.0682 l 0.0294,-0.0672 c 0.0013,-0.0024 0.0019,-0.0045 0.0019 -0.0061c 0.0000,-0.0056 -0.0053,-0.0069 -0.0111 -0.0069h -0.0011 c -0.0013,-0.0000 -0.0026,-0.0011 -0.0026 -0.0019v -0.0050 l 0.0005,-0.0008 c 0.0000,-0.0000 0.0156,0.0005 0.0249 0.0005c 0.0074,-0.0000 0.0183,-0.0005 0.0183 -0.0005l 0.0008,0.0005 v 0.0050 c 0.0000,0.0013 -0.0011,0.0021 -0.0029 0.0021c -0.0101,-0.0000 -0.0151,0.0103 -0.0188 0.0180c -0.0140,0.0296 -0.0257,0.0569 -0.0468 0.1079c -0.0079,0.0190 -0.0175,0.0413 -0.0362 0.0413c -0.0050,-0.0000 -0.0153,-0.0029 -0.0153 -0.0124c 0.0000,-0.0079 0.0058,-0.0103 0.0101 -0.0103c 0.0040,-0.0000 0.0066,0.0016 0.0082 0.0037c 0.0026,0.0026 0.0045,0.0045 0.0071 0.0045c 0.0040,-0.0000 0.0132,-0.0227 0.0198 -0.0389c 0.0016,-0.0032 0.0021,-0.0058 0.0021 -0.0082c 0.0000,-0.0026 -0.0024,-0.0098 -0.0045 -0.0151l -0.0333,-0.0775 c -0.0042,-0.0101 -0.0071,-0.0130 -0.0161 -0.0130c -0.0016,-0.0000 -0.0026,-0.0008 -0.0026 -0.0019v -0.0053 l 0.0005,-0.0005 c 0.0000,-0.0000 0.0116,0.0005 0.0196 0.0005c 0.0124,-0.0000 0.0315,-0.0005 0.0315 -0.0005l 0.0005,0.0008 v 0.0048 Z"/></g><g stroke-linejoin="miter" stroke-opacity="1.0" fill-opacity="0.33" stroke="rgb(0,0,0)" fill-rule="evenodd" stroke-width="0.0" fill="rgb(0,0,0)" stroke-linecap="butt" stroke-miterlimit="10.0"><path d="M 200.9120,8.2109 ZM 200.9641,8.1046 c -0.0053,-0.0000 -0.0063,0.0013 -0.0063 0.0032c 0.0000,0.0013 0.0011,0.0037 0.0040 0.0085l 0.0161,0.0238 c 0.0008,0.0016 0.0016,0.0024 0.0026 0.0024c 0.0008,-0.0000 0.0013,-0.0005 0.0024 -0.0019l 0.0172,-0.0241 c 0.0029,-0.0037 0.0045,-0.0066 0.0045 -0.0087c 0.0000,-0.0021 -0.0019,-0.0032 -0.0056 -0.0032h -0.0042 c -0.0008,-0.0000 -0.0016,-0.0005 -0.0016 -0.0019v -0.0050 l 0.0008,-0.0008 c 0.0000,-0.0000 0.0124,0.0005 0.0206 0.0005c 0.0085,-0.0000 0.0214,-0.0005 0.0214 -0.0005l 0.0003,0.0005 v 0.0050 c 0.0000,0.0019 -0.0016,0.0021 -0.0032 0.0021c -0.0098,-0.0000 -0.0138,0.0032 -0.0235 0.0156l -0.0222,0.0283 c -0.0005,0.0008 -0.0008,0.0013 -0.0008 0.0019c 0.0000,0.0005 0.0003,0.0013 0.0008 0.0021l 0.0238,0.0336 c 0.0122,0.0172 0.0156,0.0175 0.0241 0.0175c 0.0026,-0.0000 0.0037,0.0005 0.0037 0.0021v 0.0050 l -0.0003,0.0005 c 0.0000,-0.0000 -0.0143,-0.0005 -0.0233 -0.0005c -0.0108,-0.0000 -0.0275,0.0005 -0.0275 0.0005l -0.0005,-0.0005 v -0.0050 c 0.0000,-0.0013 0.0005,-0.0021 0.0019 -0.0021h 0.0032 c 0.0042,-0.0000 0.0061,-0.0008 0.0061 -0.0029c 0.0000,-0.0024 -0.0029,-0.0063 -0.0071 -0.0119l -0.0153,-0.0212 c -0.0011,-0.0013 -0.0016,-0.0019 -0.0024 -0.0019c -0.0005,-0.0000 -0.0013,0.0008 -0.0024 0.0024l -0.0167,0.0241 c -0.0040,0.0053 -0.0048,0.0066 -0.0048 0.0085c 0.0000,0.0019 0.0016,0.0029 0.0056 0.0029h 0.0037 c 0.0013,-0.0000 0.0019,0.0008 0.0019 0.0021v 0.0050 l -0.0005,0.0005 c 0.0000,-0.0000 -0.0138,-0.0005 -0.0222 -0.0005c -0.0077,-0.0000 -0.0198,0.0005 -0.0198 0.0005l -0.0005,-0.0005 v -0.0045 c 0.0000,-0.0016 0.0011,-0.0026 0.0034 -0.0026c 0.0063,-0.0000 0.0124,-0.0013 0.0235 -0.0156l 0.0222,-0.0286 c 0.0003,-0.0005 0.0005,-0.0011 0.0005 -0.0019c 0.0000,-0.0008 -0.0003,-0.0013 -0.0008 -0.0021l -0.0230,-0.0336 c -0.0074,-0.0108 -0.0122,-0.0172 -0.0214 -0.0172c -0.0019,-0.0000 -0.0037,-0.0008 -0.0037 -0.0019v -0.0050 l 0.0005,-0.0008 l 0.0209,0.0005 l 0.0294,-0.0005 l 0.0008,0.0008 v 0.0048 c 0.0000,0.0013 -0.0011,0.0021 -0.0021 0.0021h -0.0040 Z"/></g><g stroke-linejoin="miter" stroke-opacity="1.0" fill-opacity="0.33" stroke="rgb(0,0,0)" fill-rule="evenodd" stroke-width="0.0" fill="rgb(0,0,0)" stroke-linecap="butt" stroke-miterlimit="10.0"><path d="M 201.1297,12.1982 ZM 201.1832,12.0897 c 0.0000,0.0013 -0.0011,0.0021 -0.0024 0.0021h -0.0040 c -0.0058,-0.0000 -0.0077,0.0016 -0.0077 0.0042c 0.0000,0.0019 0.0011,0.0042 0.0024 0.0079l 0.0278,0.0698 l 0.0230,-0.0574 l -0.0048,-0.0119 c -0.0034,-0.0090 -0.0090,-0.0127 -0.0169 -0.0127c -0.0013,-0.0000 -0.0026,-0.0005 -0.0026 -0.0019v -0.0053 l 0.0005,-0.0005 c 0.0000,-0.0000 0.0148,0.0005 0.0241 0.0005l 0.0264,-0.0005 l 0.0008,0.0005 v 0.0050 c 0.0000,0.0013 -0.0013,0.0021 -0.0026 0.0021h -0.0048 c -0.0053,-0.0000 -0.0077,0.0011 -0.0077 0.0037c 0.0000,0.0021 0.0011,0.0048 0.0026 0.0085l 0.0275,0.0698 l 0.0275,-0.0685 c 0.0008,-0.0016 0.0013,-0.0037 0.0013 -0.0058c 0.0000,-0.0045 -0.0029,-0.0077 -0.0119 -0.0077h -0.0040 c -0.0013,-0.0000 -0.0024,-0.0011 -0.0024 -0.0019v -0.0053 l 0.0008,-0.0005 c 0.0000,-0.0000 0.0175,0.0005 0.0272 0.0005c 0.0090,-0.0000 0.0196,-0.0005 0.0196 -0.0005l 0.0003,0.0005 v 0.0050 c 0.0000,0.0016 -0.0016,0.0021 -0.0032 0.0021c -0.0066,-0.0000 -0.0135,0.0029 -0.0183 0.0145l -0.0360,0.0894 c -0.0016,0.0040 -0.0037,0.0056 -0.0061 0.0056c -0.0026,-0.0000 -0.0048,-0.0016 -0.0063 -0.0053l -0.0264,-0.0661 l -0.0264,0.0656 c -0.0019,0.0042 -0.0040,0.0058 -0.0063 0.0058c -0.0026,-0.0000 -0.0048,-0.0016 -0.0063 -0.0053l -0.0362,-0.0915 c -0.0040,-0.0103 -0.0087,-0.0127 -0.0167 -0.0127c -0.0013,-0.0000 -0.0032,-0.0005 -0.0032 -0.0019v -0.0053 l 0.0005,-0.0005 c 0.0000,-0.0000 0.0124,0.0005 0.0241 0.0005c 0.0122,-0.0000 0.0262,-0.0005 0.0262 -0.0005l 0.0005,0.0008 v 0.0048 Z"/></g><g stroke-linejoin="miter" stroke-opacity="1.0" fill-opacity="0.33" stroke="rgb(0,0,0)" fill-rule="evenodd" stroke-width="0.0" fill="rgb(0,0,0)" stroke-linecap="butt" stroke-miterlimit="10.0"><path d="M 201.3805,16.1854 ZM 201.4678,16.0791 h -0.0013 c -0.0013,-0.0000 -0.0021,-0.0011 -0.0021 -0.0019v -0.0053 l 0.0011,-0.0005 c 0.0000,-0.0000 0.0151,0.0005 0.0249 0.0005c 0.0069,-0.0000 0.0180,-0.0005 0.0180 -0.0005l 0.0005,0.0005 v 0.0048 c 0.0000,0.0013 -0.0013,0.0024 -0.0029 0.0024c -0.0077,-0.0000 -0.0138,0.0034 -0.0180 0.0138l -0.0365,0.0897 c -0.0019,0.0045 -0.0037,0.0061 -0.0063 0.0061c -0.0034,-0.0000 -0.0050,-0.0016 -0.0066 -0.0056l -0.0360,-0.0913 c -0.0037,-0.0095 -0.0093,-0.0127 -0.0169 -0.0127c -0.0013,-0.0000 -0.0026,-0.0005 -0.0026 -0.0019v -0.0053 l 0.0008,-0.0005 c 0.0000,-0.0000 0.0140,0.0005 0.0230 0.0005c 0.0103,-0.0000 0.0264,-0.0005 0.0264 -0.0005l 0.0011,0.0005 v 0.0050 c 0.0000,0.0019 -0.0016,0.0021 -0.0024 0.0021h -0.0045 c -0.0053,0.0003 -0.0077,0.0019 -0.0077 0.0045c 0.0000,0.0019 0.0011,0.0040 0.0026 0.0077l 0.0227,0.0577 l 0.0045,0.0122 l 0.0045,-0.0114 l 0.0235,-0.0579 c 0.0013,-0.0029 0.0021,-0.0053 0.0021 -0.0071c 0.0000,-0.0040 -0.0029,-0.0056 -0.0119 -0.0056Z"/></g><g stroke-linejoin="miter" stroke-opacity="1.0" fill-opacity="0.33" stroke="rgb(0,0,0)" fill-rule="evenodd" stroke-width="0.0" fill="rgb(0,0,0)" stroke-linecap="butt" stroke-miterlimit="10.0"><path d="M 201.5617,20.1727 ZM 201.6751,20.1420 c 0.0000,0.0132 0.0013,0.0175 0.0066 0.0175c 0.0032,-0.0000 0.0090,-0.0005 0.0135 -0.0013l 0.0011,0.0074 c -0.0161,0.0029 -0.0291,0.0056 -0.0352 0.0103h -0.0058 l 0.0008,-0.0196 h -0.0008 c -0.0145,0.0159 -0.0264,0.0196 -0.0373 0.0196c -0.0262,-0.0000 -0.0331,-0.0177 -0.0331 -0.0360v -0.0603 c 0.0000,-0.0087 -0.0019,-0.0132 -0.0116 -0.0132c -0.0011,-0.0000 -0.0029,0.0003 -0.0045 0.0003l -0.0008,-0.0003 v -0.0069 l 0.0008,-0.0008 c 0.0000,-0.0000 0.0180,0.0005 0.0264 0.0005c 0.0037,-0.0000 0.0098,-0.0005 0.0098 -0.0005l -0.0003,0.0212 v 0.0563 c 0.0000,0.0235 0.0122,0.0278 0.0201 0.0278c 0.0061,-0.0000 0.0116,-0.0024 0.0172 -0.0063c 0.0063,-0.0048 0.0106,-0.0085 0.0132 -0.0119v -0.0653 c 0.0000,-0.0095 -0.0013,-0.0140 -0.0111 -0.0140c -0.0016,-0.0000 -0.0045,0.0003 -0.0053 0.0003l -0.0005,-0.0005 v -0.0066 l 0.0005,-0.0008 c 0.0000,-0.0000 0.0188,0.0005 0.0262 0.0005c 0.0061,-0.0000 0.0103,-0.0005 0.0103 -0.0005l -0.0003,0.0209 v 0.0624 Z"/></g><g stroke-linejoin="miter" stroke-opacity="1.0" fill-opacity="0.33" stroke="rgb(0,0,0)" fill-rule="evenodd" stroke-width="0.0" fill="rgb(0,0,0)" stroke-linecap="butt" stroke-miterlimit="10.0"><path d="M 201.7376,24.1599 ZM 201.7810,24.0565 v 0.0677 c 0.0000,0.0164 0.0016,0.0243 0.0087 0.0243c 0.0069,-0.0000 0.0122,-0.0021 0.0190 -0.0074l 0.0048,0.0045 c -0.0103,0.0116 -0.0209,0.0175 -0.0331 0.0175c -0.0122,-0.0000 -0.0193,-0.0074 -0.0193 -0.0262v -0.0804 h -0.0172 c -0.0008,-0.0000 -0.0011,-0.0003 -0.0011 -0.0011v -0.0082 c 0.0000,-0.0008 0.0003,-0.0011 0.0008 -0.0011c 0.0177,-0.0000 0.0220,-0.0103 0.0220 -0.0304v -0.0050 l 0.0153,-0.0053 v 0.0407 h 0.0291 c 0.0013,-0.0000 0.0021,0.0005 0.0021 0.0016v 0.0053 c 0.0000,0.0024 -0.0037,0.0034 -0.0063 0.0034h -0.0249 Z"/></g><g stroke-linejoin="miter" stroke-opacity="1.0" fill-opacity="0.33" stroke="rgb(0,0,0)" fill-rule="evenodd" stroke-width="0.0" fill="rgb(0,0,0)" stroke-linecap="butt" stroke-miterlimit="10.0"><path d="M 201.8384,28.1471 ZM 201.8497,28.1101 l 0.0071,-0.0003 c 0.0008,0.0066 0.0037,0.0193 0.0095 0.0254c 0.0026,0.0029 0.0098,0.0077 0.0196 0.0077c 0.0093,-0.0000 0.0230,-0.0074 0.0230 -0.0204c 0.0000,-0.0114 -0.0063,-0.0190 -0.0272 -0.0280c -0.0193,-0.0085 -0.0294,-0.0140 -0.0294 -0.0339c 0.0000,-0.0177 0.0156,-0.0304 0.0365 -0.0304c 0.0132,-0.0000 0.0230,0.0024 0.0312 0.0066c 0.0016,0.0085 0.0024,0.0175 0.0029 0.0270l -0.0071,0.0003 c -0.0056,-0.0217 -0.0214,-0.0259 -0.0270 -0.0259c -0.0101,-0.0000 -0.0204,0.0040 -0.0204 0.0185c 0.0000,0.0106 0.0050,0.0159 0.0196 0.0212c 0.0214,0.0079 0.0386,0.0175 0.0386 0.0386c 0.0000,0.0262 -0.0278,0.0339 -0.0402 0.0339c -0.0093,-0.0000 -0.0169,-0.0011 -0.0238 -0.0029c -0.0019,-0.0003 -0.0032,-0.0005 -0.0050 -0.0005c -0.0013,-0.0000 -0.0034,0.0003 -0.0061 0.0008c 0.0000,-0.0111 -0.0008,-0.0246 -0.0019 -0.0376Z"/></g><g stroke-linejoin="miter" stroke-opacity="1.0" fill-opacity="0.33" stroke="rgb(0,0,0)" fill-rule="evenodd" stroke-width="0.0" fill="rgb(0,0,0)" stroke-linecap="butt" stroke-miterlimit="10.0"><path d="M 201.9126,32.1344 ZM 201.9361,32.1153 v -0.0659 c 0.0000,-0.0132 -0.0019,-0.0161 -0.0058 -0.0161c -0.0034,-0.0000 -0.0066,0.0003 -0.0111 0.0013l -0.0013,-0.0074 c 0.0167,-0.0029 0.0196,-0.0037 0.0275 -0.0077c 0.0026,-0.0013 0.0048,-0.0021 0.0066 -0.0021h 0.0040 l -0.0008,0.0238 h 0.0008 c 0.0069,-0.0103 0.0185,-0.0238 0.0309 -0.0238c 0.0108,-0.0000 0.0148,0.0053 0.0148 0.0122c 0.0000,0.0069 -0.0045,0.0111 -0.0114 0.0111c -0.0053,-0.0000 -0.0082,-0.0021 -0.0108 -0.0048c -0.0016,-0.0016 -0.0034,-0.0024 -0.0053 -0.0024c -0.0029,-0.0000 -0.0087,0.0048 -0.0151 0.0138c -0.0019,0.0024 -0.0032,0.0058 -0.0032 0.0093v 0.0587 c 0.0000,0.0077 0.0026,0.0116 0.0114 0.0116h 0.0077 c 0.0013,-0.0000 0.0024,0.0008 0.0024 0.0021v 0.0050 l -0.0005,0.0005 c 0.0000,-0.0000 -0.0209,-0.0005 -0.0312 -0.0005c -0.0095,-0.0000 -0.0275,0.0005 -0.0275 0.0005l -0.0003,-0.0005 v -0.0050 c 0.0000,-0.0013 0.0005,-0.0021 0.0019 -0.0021h 0.0050 c 0.0090,-0.0000 0.0114,-0.0040 0.0114 -0.0116Z"/></g><g stroke-linejoin="miter" stroke-opacity="1.0" fill-opacity="0.33" stroke="rgb(0,0,0)" fill-rule="evenodd" stroke-width="0.0" fill="rgb(0,0,0)" stroke-linecap="butt" stroke-miterlimit="10.0"><path d="M 201.9248,36.1216 ZM 202.0142,36.0328 c -0.0071,-0.0119 -0.0161,-0.0190 -0.0272 -0.0190c -0.0212,-0.0000 -0.0325,0.0204 -0.0325 0.0479c 0.0000,0.0399 0.0233,0.0516 0.0386 0.0516c 0.0050,-0.0000 0.0143,-0.0005 0.0212 -0.0058v -0.0746 ZM 202.0142,36.0328 ZM 202.0142,36.1634 v -0.0473 c -0.0040,0.0034 -0.0124,0.0087 -0.0275 0.0087c -0.0381,-0.0000 -0.0524,-0.0333 -0.0524 -0.0579c 0.0000,-0.0349 0.0214,-0.0622 0.0537 -0.0622c 0.0130,-0.0000 0.0243,0.0037 0.0331 0.0114l 0.0040,-0.0063 c 0.0019,-0.0032 0.0037,-0.0050 0.0056 -0.0050c 0.0029,-0.0000 0.0034,0.0029 0.0034 0.0066v 0.1521 c 0.0000,0.0077 0.0026,0.0116 0.0114 0.0116h 0.0050 c 0.0011,-0.0000 0.0021,0.0008 0.0021 0.0021v 0.0050 l -0.0005,0.0005 c 0.0000,-0.0000 -0.0180,-0.0005 -0.0283 -0.0005c -0.0095,-0.0000 -0.0302,0.0005 -0.0302 0.0005l -0.0005,-0.0005 v -0.0050 c 0.0000,-0.0013 0.0008,-0.0021 0.0021 -0.0021h 0.0077 c 0.0090,-0.0000 0.0114,-0.0040 0.0114 -0.0116Z"/></g><g stroke-linejoin="miter" stroke-opacity="1.0" fill-opacity="0.33" stroke="rgb(0,0,0)" fill-rule="evenodd" stroke-width="0.0" fill="rgb(0,0,0)" stroke-linecap="butt" stroke-miterlimit="10.0"><path d="M 201.9184,40.1089 ZM 201.9578,40.0258 v 0.0659 c 0.0093,0.0108 0.0180,0.0114 0.0222 0.0114c 0.0283,-0.0000 0.0346,-0.0264 0.0346 -0.0492c 0.0000,-0.0320 -0.0130,-0.0497 -0.0291 -0.0497c -0.0090,-0.0000 -0.0220,0.0077 -0.0278 0.0217ZM 201.9578,40.0258 ZM 201.9382,40.1507 v -0.1309 c 0.0000,-0.0101 -0.0024,-0.0119 -0.0061 -0.0119c -0.0034,-0.0000 -0.0066,0.0003 -0.0111 0.0013l -0.0013,-0.0074 c 0.0169,-0.0029 0.0201,-0.0040 0.0275 -0.0077c 0.0029,-0.0013 0.0048,-0.0021 0.0066 -0.0021h 0.0040 l -0.0008,0.0212 h 0.0008 c 0.0122,-0.0185 0.0264,-0.0212 0.0349 -0.0212c 0.0257,-0.0000 0.0426,0.0267 0.0426 0.0548c 0.0000,0.0214 -0.0066,0.0378 -0.0185 0.0500c -0.0103,0.0103 -0.0212,0.0153 -0.0352 0.0153c -0.0095,-0.0000 -0.0169,-0.0021 -0.0238 -0.0058v 0.0444 c 0.0000,0.0077 0.0029,0.0116 0.0114 0.0116h 0.0050 c 0.0013,-0.0000 0.0024,0.0008 0.0024 0.0021v 0.0050 l -0.0005,0.0005 c 0.0000,-0.0000 -0.0183,-0.0005 -0.0286 -0.0005c -0.0093,-0.0000 -0.0272,0.0005 -0.0272 0.0005l -0.0005,-0.0005 v -0.0050 c 0.0000,-0.0013 0.0008,-0.0021 0.0021 -0.0021h 0.0050 c 0.0087,-0.0000 0.0114,-0.0040 0.0114 -0.0116Z"/></g><g stroke-linejoin="miter" stroke-opacity="1.0" fill-opacity="0.33" stroke="rgb(0,0,0)" fill-rule="evenodd" stroke-width="0.0" fill="rgb(0,0,0)" stroke-linecap="butt" stroke-miterlimit="10.0"><path d="M 201.8703,44.0961 ZM 201.8793,44.0419 c 0.0000,-0.0362 0.0196,-0.0627 0.0548 -0.0627c 0.0391,-0.0000 0.0542,0.0328 0.0542 0.0603c 0.0000,0.0264 -0.0172,0.0598 -0.0548 0.0598c -0.0354,-0.0000 -0.0542,-0.0304 -0.0542 -0.0574ZM 201.8793,44.0419 ZM 201.9312,43.9879 c -0.0212,-0.0000 -0.0309,0.0249 -0.0309 0.0479c 0.0000,0.0204 0.0116,0.0542 0.0378 0.0542c 0.0119,-0.0000 0.0294,-0.0071 0.0294 -0.0421c 0.0000,-0.0389 -0.0145,-0.0600 -0.0362 -0.0600Z"/></g><g stroke-linejoin="miter" stroke-opacity="1.0" fill-opacity="0.33" stroke="rgb(0,0,0)" fill-rule="evenodd" stroke-width="0.0" fill="rgb(0,0,0)" stroke-linecap="butt" stroke-miterlimit="10.0"><path d="M 201.7776,48.0833 ZM 201.8739,48.0643 v -0.0579 c 0.0000,-0.0185 -0.0032,-0.0272 -0.0172 -0.0272c -0.0116,-0.0000 -0.0217,0.0045 -0.0352 0.0204v 0.0648 c 0.0000,0.0077 0.0026,0.0116 0.0114 0.0116h 0.0037 c 0.0013,-0.0000 0.0021,0.0008 0.0021 0.0021v 0.0050 l -0.0005,0.0005 c 0.0000,-0.0000 -0.0167,-0.0005 -0.0270 -0.0005c -0.0095,-0.0000 -0.0275,0.0005 -0.0275 0.0005l -0.0005,-0.0005 v -0.0050 c 0.0000,-0.0013 0.0008,-0.0021 0.0021 -0.0021h 0.0050 c 0.0090,-0.0000 0.0114,-0.0040 0.0114 -0.0116v -0.0659 c 0.0000,-0.0143 -0.0021,-0.0161 -0.0058 -0.0161c -0.0034,-0.0000 -0.0066,0.0003 -0.0111 0.0013l -0.0013,-0.0074 c 0.0111,-0.0019 0.0190,-0.0032 0.0272 -0.0077c 0.0029,-0.0013 0.0050,-0.0021 0.0069 -0.0021h 0.0040 l -0.0008,0.0235 h 0.0008 c 0.0169,-0.0198 0.0296,-0.0235 0.0431 -0.0235c 0.0238,-0.0000 0.0288,0.0183 0.0288 0.0418v 0.0561 c 0.0000,0.0077 0.0029,0.0116 0.0114 0.0116h 0.0050 c 0.0013,-0.0000 0.0024,0.0008 0.0024 0.0021v 0.0050 l -0.0005,0.0005 c 0.0000,-0.0000 -0.0183,-0.0005 -0.0286 -0.0005c -0.0093,-0.0000 -0.0259,0.0005 -0.0259 0.0005l -0.0005,-0.0005 v -0.0050 c 0.0000,-0.0013 0.0008,-0.0021 0.0021 -0.0021h 0.0037 c 0.0087,-0.0000 0.0114,-0.0040 0.0114 -0.0116Z"/></g><g stroke-linejoin="miter" stroke-opacity="1.0" fill-opacity="0.33" stroke="rgb(0,0,0)" fill-rule="evenodd" stroke-width="0.0" fill="rgb(0,0,0)" stroke-linecap="butt" stroke-miterlimit="10.0"><path d="M 201.6202,52.0706 ZM 201.7797,52.0515 v -0.0608 c 0.0000,-0.0177 -0.0069,-0.0243 -0.0169 -0.0243c -0.0103,-0.0000 -0.0185,0.0053 -0.0312 0.0193c 0.0005,0.0032 0.0005,0.0069 0.0005 0.0106v 0.0553 c 0.0000,0.0077 0.0026,0.0116 0.0114 0.0116h 0.0045 c 0.0013,-0.0000 0.0024,0.0008 0.0024 0.0021v 0.0050 l -0.0005,0.0005 c 0.0000,-0.0000 -0.0177,-0.0005 -0.0280 -0.0005c -0.0095,-0.0000 -0.0278,0.0005 -0.0278 0.0005l -0.0005,-0.0005 v -0.0050 c 0.0000,-0.0013 0.0008,-0.0021 0.0021 -0.0021h 0.0053 c 0.0090,-0.0000 0.0114,-0.0040 0.0114 -0.0116v -0.0603 c 0.0000,-0.0177 -0.0071,-0.0249 -0.0172 -0.0249c -0.0093,-0.0000 -0.0180,0.0066 -0.0304 0.0196v 0.0656 c 0.0000,0.0077 0.0026,0.0116 0.0114 0.0116h 0.0050 c 0.0011,-0.0000 0.0021,0.0008 0.0021 0.0021v 0.0050 l -0.0005,0.0005 c 0.0000,-0.0000 -0.0180,-0.0005 -0.0283 -0.0005c -0.0095,-0.0000 -0.0275,0.0005 -0.0275 0.0005l -0.0005,-0.0005 v -0.0050 c 0.0000,-0.0013 0.0008,-0.0021 0.0021 -0.0021h 0.0050 c 0.0090,-0.0000 0.0114,-0.0040 0.0114 -0.0116v -0.0659 c 0.0000,-0.0151 -0.0024,-0.0161 -0.0058 -0.0161c -0.0034,-0.0000 -0.0066,0.0003 -0.0111 0.0013l -0.0013,-0.0074 c 0.0167,-0.0029 0.0204,-0.0040 0.0275 -0.0077c 0.0026,-0.0013 0.0048,-0.0021 0.0066 -0.0021h 0.0040 l -0.0008,0.0230 h 0.0008 c 0.0124,-0.0132 0.0235,-0.0230 0.0399 -0.0230c 0.0148,-0.0000 0.0241,0.0108 0.0257 0.0227c 0.0153,-0.0159 0.0278,-0.0227 0.0421 -0.0227c 0.0233,-0.0000 0.0272,0.0193 0.0272 0.0428v 0.0550 c 0.0000,0.0077 0.0026,0.0116 0.0114 0.0116h 0.0050 c 0.0011,-0.0000 0.0021,0.0008 0.0021 0.0021v 0.0050 l -0.0005,0.0005 c 0.0000,-0.0000 -0.0180,-0.0005 -0.0283 -0.0005c -0.0095,-0.0000 -0.0275,0.0005 -0.0275 0.0005l -0.0005,-0.0005 v -0.0050 c 0.0000,-0.0013 0.0008,-0.0021 0.0021 -0.0021h 0.0050 c 0.0087,-0.0000 0.0114,-0.0040 0.0114 -0.0116Z"/></g><g stroke-linejoin="miter" stroke-opacity="1.0" fill-opacity="0.33" stroke="rgb(0,0,0)" fill-rule="evenodd" stroke-width="0.0" fill="rgb(0,0,0)" stroke-linecap="butt" stroke-miterlimit="10.0"><path d="M 201.5235,56.0578 ZM 201.5487,56.0388 v -0.1325 c 0.0000,-0.0151 -0.0026,-0.0193 -0.0079 -0.0193l -0.0085,0.0011 c -0.0008,-0.0000 -0.0016,-0.0005 -0.0016 -0.0013l -0.0005,-0.0066 c 0.0042,-0.0000 0.0140,-0.0016 0.0185 -0.0024c 0.0048,-0.0011 0.0085,-0.0021 0.0138 -0.0045h 0.0058 v 0.1656 c 0.0000,0.0077 0.0029,0.0116 0.0114 0.0116h 0.0063 c 0.0011,-0.0000 0.0021,0.0008 0.0021 0.0021v 0.0050 l -0.0005,0.0005 c 0.0000,-0.0000 -0.0193,-0.0005 -0.0296 -0.0005c -0.0093,-0.0000 -0.0286,0.0005 -0.0286 0.0005l -0.0003,-0.0005 v -0.0050 c 0.0000,-0.0013 0.0005,-0.0021 0.0019 -0.0021h 0.0063 c 0.0087,-0.0000 0.0114,-0.0040 0.0114 -0.0116Z"/></g><g stroke-linejoin="miter" stroke-opacity="1.0" fill-opacity="0.33" stroke="rgb(0,0,0)" fill-rule="evenodd" stroke-width="0.0" fill="rgb(0,0,0)" stroke-linecap="butt" stroke-miterlimit="10.0"><path d="M 201.2963,60.0451 ZM 201.3394,59.9890 v 0.0370 c 0.0000,0.0077 0.0026,0.0116 0.0114 0.0116h 0.0005 c 0.0011,-0.0000 0.0021,0.0008 0.0021 0.0021v 0.0050 l -0.0005,0.0005 c 0.0000,-0.0000 -0.0135,-0.0005 -0.0238 -0.0005c -0.0095,-0.0000 -0.0272,0.0005 -0.0272 0.0005l -0.0005,-0.0005 v -0.0050 c 0.0000,-0.0013 0.0005,-0.0021 0.0019 -0.0021h 0.0050 c 0.0090,-0.0000 0.0114,-0.0040 0.0114 -0.0116v -0.1325 c 0.0000,-0.0151 -0.0024,-0.0193 -0.0077 -0.0193l -0.0087,0.0011 c -0.0008,-0.0000 -0.0013,-0.0005 -0.0013 -0.0013l -0.0005,-0.0066 c 0.0042,-0.0000 0.0138,-0.0016 0.0183 -0.0024c 0.0048,-0.0011 0.0087,-0.0021 0.0140 -0.0045h 0.0058 v 0.1219 c 0.0069,-0.0016 0.0204,-0.0135 0.0346 -0.0291c 0.0042,-0.0042 0.0053,-0.0077 0.0053 -0.0103c 0.0000,-0.0021 -0.0013,-0.0042 -0.0077 -0.0042h -0.0011 c -0.0013,-0.0000 -0.0021,-0.0011 -0.0021 -0.0021v -0.0050 l 0.0008,-0.0005 c 0.0000,-0.0000 0.0127,0.0005 0.0220 0.0005c 0.0103,-0.0000 0.0246,-0.0005 0.0246 -0.0005l 0.0011,0.0005 v 0.0050 c 0.0000,0.0013 -0.0016,0.0021 -0.0029 0.0021h -0.0019 c -0.0071,-0.0000 -0.0188,0.0058 -0.0254 0.0127l -0.0201,0.0222 c -0.0008,0.0008 -0.0011,0.0016 -0.0011 0.0026c 0.0000,0.0013 0.0005,0.0026 0.0013 0.0037l 0.0309,0.0458 c 0.0048,0.0071 0.0132,0.0119 0.0198 0.0119h 0.0019 c 0.0019,-0.0000 0.0024,0.0008 0.0024 0.0021v 0.0050 l -0.0005,0.0005 c 0.0000,-0.0000 -0.0135,-0.0005 -0.0238 -0.0005c -0.0093,-0.0000 -0.0164,0.0005 -0.0164 0.0005l -0.0008,-0.0005 v -0.0050 c 0.0000,-0.0034 -0.0008,-0.0063 -0.0061 -0.0140l -0.0193,-0.0272 c -0.0053,-0.0077 -0.0090,-0.0095 -0.0156 -0.0095Z"/></g><g stroke-linejoin="miter" stroke-opacity="1.0" fill-opacity="0.33" stroke="rgb(0,0,0)" fill-rule="evenodd" stroke-width="0.0" fill="rgb(0,0,0)" stroke-linecap="butt" stroke-miterlimit="10.0"><path d="M 201.0911,64.0323 ZM 201.1186,63.8813 c 0.0000,-0.0069 0.0056,-0.0127 0.0127 -0.0127c 0.0069,-0.0000 0.0127,0.0058 0.0127 0.0127c 0.0000,0.0071 -0.0058,0.0127 -0.0127 0.0127c -0.0071,-0.0000 -0.0127,-0.0056 -0.0127 -0.0127ZM 201.1186,63.8813 ZM 201.1046,64.0836 c 0.0116,-0.0000 0.0196,-0.0209 0.0196 -0.0582v -0.0780 c 0.0000,-0.0140 -0.0024,-0.0161 -0.0058 -0.0161c -0.0037,-0.0000 -0.0066,0.0003 -0.0111 0.0013l -0.0013,-0.0074 c 0.0193,-0.0032 0.0251,-0.0063 0.0286 -0.0082c 0.0019,-0.0008 0.0029,-0.0016 0.0056 -0.0016h 0.0040 v 0.1018 c 0.0000,0.0346 -0.0026,0.0492 -0.0172 0.0640c -0.0071,0.0069 -0.0148,0.0101 -0.0212 0.0101c -0.0108,-0.0000 -0.0249,-0.0056 -0.0249 -0.0135c 0.0000,-0.0066 0.0040,-0.0101 0.0085 -0.0101c 0.0063,-0.0000 0.0098,0.0061 0.0111 0.0116c 0.0008,0.0026 0.0021,0.0042 0.0042 0.0042Z"/></g><g stroke-linejoin="miter" stroke-opacity="1.0" fill-opacity="0.33" stroke="rgb(0,0,0)" fill-rule="evenodd" stroke-width="0.0" fill="rgb(0,0,0)" stroke-linecap="butt" stroke-miterlimit="10.0"><path d="M 200.8298,68.0196 ZM 200.8504,67.8685 c 0.0000,-0.0069 0.0056,-0.0127 0.0124 -0.0127c 0.0071,-0.0000 0.0127,0.0058 0.0127 0.0127c 0.0000,0.0071 -0.0056,0.0127 -0.0127 0.0127c -0.0069,-0.0000 -0.0124,-0.0056 -0.0124 -0.0127ZM 200.8504,67.8685 ZM 200.8756,68.0005 c 0.0000,0.0077 0.0029,0.0116 0.0114 0.0116h 0.0050 c 0.0013,-0.0000 0.0024,0.0008 0.0024 0.0021v 0.0050 l -0.0005,0.0005 c 0.0000,-0.0000 -0.0183,-0.0005 -0.0286 -0.0005c -0.0093,-0.0000 -0.0272,0.0005 -0.0272 0.0005l -0.0005,-0.0005 v -0.0050 c 0.0000,-0.0013 0.0008,-0.0021 0.0021 -0.0021h 0.0050 c 0.0087,-0.0000 0.0114,-0.0040 0.0114 -0.0116v -0.0659 c 0.0000,-0.0140 -0.0024,-0.0161 -0.0061 -0.0161c -0.0034,-0.0000 -0.0066,0.0003 -0.0111 0.0013l -0.0013,-0.0074 c 0.0169,-0.0029 0.0198,-0.0040 0.0275 -0.0077c 0.0029,-0.0011 0.0048,-0.0021 0.0066 -0.0021h 0.0040 v 0.0979 Z"/></g><g stroke-linejoin="miter" stroke-opacity="1.0" fill-opacity="0.33" stroke="rgb(0,0,0)" fill-rule="evenodd" stroke-width="0.0" fill="rgb(0,0,0)" stroke-linecap="butt" stroke-miterlimit="10.0"><path d="M 200.5046,72.0068 ZM 200.5477,71.8222 v 0.0897 c 0.0177,-0.0177 0.0333,-0.0220 0.0436 -0.0220c 0.0190,-0.0000 0.0286,0.0145 0.0286 0.0418v 0.0561 c 0.0000,0.0077 0.0026,0.0116 0.0114 0.0116h 0.0050 c 0.0011,-0.0000 0.0021,0.0008 0.0021 0.0021v 0.0050 l -0.0005,0.0005 c 0.0000,-0.0000 -0.0180,-0.0005 -0.0286 -0.0005c -0.0093,-0.0000 -0.0272,0.0005 -0.0272 0.0005l -0.0005,-0.0005 v -0.0050 c 0.0000,-0.0013 0.0008,-0.0021 0.0021 -0.0021h 0.0050 c 0.0090,-0.0000 0.0114,-0.0040 0.0114 -0.0116v -0.0590 c 0.0000,-0.0214 -0.0058,-0.0264 -0.0206 -0.0264c -0.0077,-0.0000 -0.0190,0.0069 -0.0317 0.0193v 0.0661 c 0.0000,0.0077 0.0026,0.0116 0.0114 0.0116h 0.0050 c 0.0011,-0.0000 0.0021,0.0008 0.0021 0.0021v 0.0050 l -0.0005,0.0005 c 0.0000,-0.0000 -0.0180,-0.0005 -0.0283 -0.0005c -0.0095,-0.0000 -0.0272,0.0005 -0.0272 0.0005l -0.0005,-0.0005 v -0.0050 c 0.0000,-0.0013 0.0005,-0.0021 0.0019 -0.0021h 0.0050 c 0.0090,-0.0000 0.0114,-0.0040 0.0114 -0.0116v -0.1325 c 0.0000,-0.0151 -0.0024,-0.0193 -0.0077 -0.0193l -0.0087,0.0011 c -0.0008,-0.0000 -0.0013,-0.0005 -0.0013 -0.0013l -0.0005,-0.0066 c 0.0042,-0.0000 0.0138,-0.0016 0.0183 -0.0024c 0.0048,-0.0011 0.0087,-0.0021 0.0140 -0.0045h 0.0058 Z"/></g><g stroke-linejoin="miter" stroke-opacity="1.0" fill-opacity="0.33" stroke="rgb(0,0,0)" fill-rule="evenodd" stroke-width="0.0" fill="rgb(0,0,0)" stroke-linecap="butt" stroke-miterlimit="10.0"><path d="M 200.1918,75.9940 ZM 200.2754,75.9192 c 0.0000,-0.0220 -0.0103,-0.0346 -0.0262 -0.0346c -0.0138,-0.0000 -0.0230,0.0095 -0.0230 0.0302c 0.0000,0.0138 0.0053,0.0354 0.0264 0.0354c 0.0093,-0.0000 0.0227,-0.0045 0.0227 -0.0309ZM 200.2754,75.9192 ZM 200.2259,75.9959 c -0.0082,0.0077 -0.0101,0.0159 -0.0101 0.0249c 0.0000,0.0198 0.0238,0.0257 0.0328 0.0257c 0.0227,-0.0000 0.0516,-0.0079 0.0516 -0.0270c 0.0000,-0.0069 -0.0037,-0.0114 -0.0140 -0.0164c -0.0074,-0.0037 -0.0183,-0.0066 -0.0309 -0.0066c -0.0021,-0.0000 -0.0050,0.0003 -0.0087 0.0005c -0.0037,0.0003 -0.0077,0.0003 -0.0106 0.0003c -0.0042,-0.0000 -0.0063,-0.0005 -0.0101 -0.0013ZM 200.2259,75.9959 ZM 200.3063,75.8914 c -0.0042,-0.0000 -0.0069,-0.0024 -0.0079 -0.0045c -0.0016,-0.0024 -0.0026,-0.0032 -0.0045 -0.0032c -0.0032,-0.0000 -0.0082,0.0037 -0.0101 0.0063c 0.0074,0.0079 0.0108,0.0156 0.0108 0.0280c 0.0000,0.0259 -0.0212,0.0399 -0.0434 0.0399c -0.0098,-0.0000 -0.0177,-0.0019 -0.0238 -0.0056c -0.0029,0.0045 -0.0045,0.0101 -0.0045 0.0153c 0.0000,0.0114 0.0087,0.0143 0.0161 0.0143c 0.0013,-0.0000 0.0045,-0.0003 0.0082 -0.0005c 0.0061,-0.0008 0.0127,-0.0013 0.0172 -0.0013c 0.0093,-0.0000 0.0267,0.0019 0.0373 0.0108c 0.0071,0.0066 0.0111,0.0130 0.0111 0.0214c 0.0000,0.0286 -0.0376,0.0436 -0.0717 0.0436c -0.0193,-0.0000 -0.0407,-0.0071 -0.0407 -0.0302c 0.0000,-0.0114 0.0071,-0.0235 0.0206 -0.0320c -0.0066,-0.0034 -0.0114,-0.0101 -0.0114 -0.0196c 0.0000,-0.0090 0.0040,-0.0204 0.0111 -0.0267c -0.0071,-0.0071 -0.0132,-0.0161 -0.0132 -0.0307c 0.0000,-0.0243 0.0214,-0.0399 0.0439 -0.0399c 0.0148,-0.0000 0.0241,0.0061 0.0270 0.0082c 0.0066,-0.0090 0.0185,-0.0135 0.0251 -0.0135c 0.0069,-0.0000 0.0116,0.0045 0.0116 0.0101c 0.0000,0.0058 -0.0037,0.0095 -0.0090 0.0095Z"/></g><g stroke-linejoin="miter" stroke-opacity="1.0" fill-opacity="0.33" stroke="rgb(0,0,0)" fill-rule="evenodd" stroke-width="0.0" fill="rgb(0,0,0)" stroke-linecap="butt" stroke-miterlimit="10.0"><path d="M 199.8758,79.9813 ZM 199.9002,79.9622 v -0.0844 h -0.0183 c -0.0011,-0.0000 -0.0013,-0.0003 -0.0013 -0.0013v -0.0037 c 0.0000,-0.0021 0.0013,-0.0053 0.0061 -0.0053h 0.0135 v -0.0103 c 0.0000,-0.0413 0.0214,-0.0606 0.0436 -0.0606c 0.0101,-0.0000 0.0169,0.0026 0.0235 0.0071c 0.0053,0.0040 0.0077,0.0085 0.0077 0.0127c 0.0000,0.0056 -0.0040,0.0095 -0.0090 0.0095c -0.0053,-0.0000 -0.0087,-0.0029 -0.0108 -0.0074c -0.0034,-0.0087 -0.0085,-0.0130 -0.0164 -0.0130c -0.0087,-0.0000 -0.0188,0.0063 -0.0188 0.0471v 0.0148 h 0.0291 c 0.0013,-0.0000 0.0021,0.0005 0.0021 0.0016v 0.0053 c 0.0000,0.0024 -0.0037,0.0034 -0.0061 0.0034h -0.0251 v 0.0844 c 0.0000,0.0077 0.0026,0.0116 0.0114 0.0116h 0.0087 c 0.0011,-0.0000 0.0021,0.0008 0.0021 0.0021v 0.0050 l -0.0005,0.0005 c 0.0000,-0.0000 -0.0217,-0.0005 -0.0320 -0.0005c -0.0095,-0.0000 -0.0275,0.0005 -0.0275 0.0005l -0.0005,-0.0005 v -0.0050 c 0.0000,-0.0013 0.0008,-0.0021 0.0021 -0.0021h 0.0050 c 0.0090,-0.0000 0.0114,-0.0040 0.0114 -0.0116Z"/></g><g stroke-linejoin="miter" stroke-opacity="1.0" fill-opacity="0.33" stroke="rgb(0,0,0)" fill-rule="evenodd" stroke-width="0.0" fill="rgb(0,0,0)" stroke-linecap="butt" stroke-miterlimit="10.0"><path d="M 199.5006,83.9685 ZM 199.5307,83.8952 h 0.0487 c 0.0026,-0.0000 0.0037,-0.0013 0.0037 -0.0037c 0.0000,-0.0246 -0.0124,-0.0309 -0.0220 -0.0309c -0.0061,-0.0000 -0.0259,0.0024 -0.0304 0.0346ZM 199.5307,83.8952 ZM 199.6005,83.9439 l 0.0053,0.0042 c -0.0101,0.0138 -0.0257,0.0235 -0.0447 0.0235c -0.0362,-0.0000 -0.0516,-0.0270 -0.0516 -0.0558c 0.0000,-0.0402 0.0264,-0.0643 0.0516 -0.0643c 0.0349,-0.0000 0.0431,0.0272 0.0431 0.0495c 0.0000,0.0029 -0.0019,0.0045 -0.0048 0.0045h -0.0696 c -0.0003,0.0016 -0.0003,0.0032 -0.0003 0.0053c 0.0000,0.0270 0.0188,0.0479 0.0378 0.0479c 0.0145,-0.0000 0.0238,-0.0048 0.0331 -0.0148Z"/></g><g stroke-linejoin="miter" stroke-opacity="1.0" fill-opacity="0.33" stroke="rgb(0,0,0)" fill-rule="evenodd" stroke-width="0.0" fill="rgb(0,0,0)" stroke-linecap="butt" stroke-miterlimit="10.0"><path d="M 199.1174,87.9558 ZM 199.2058,87.9322 v -0.0685 c -0.0063,-0.0101 -0.0135,-0.0156 -0.0259 -0.0156c -0.0053,-0.0000 -0.0161,0.0008 -0.0246 0.0132c -0.0037,0.0056 -0.0082,0.0169 -0.0082 0.0360c 0.0000,0.0346 0.0180,0.0505 0.0323 0.0505c 0.0087,-0.0000 0.0159,-0.0053 0.0264 -0.0156ZM 199.2058,87.9322 ZM 199.2256,87.7711 v 0.1529 c 0.0000,0.0079 0.0005,0.0122 0.0011 0.0140c 0.0008,0.0024 0.0037,0.0040 0.0058 0.0040c 0.0032,-0.0000 0.0090,-0.0000 0.0130 -0.0008l 0.0011,0.0074 c -0.0153,0.0026 -0.0291,0.0056 -0.0346 0.0103h -0.0063 l 0.0008,-0.0183 c -0.0101,0.0103 -0.0204,0.0183 -0.0339 0.0183c -0.0286,-0.0000 -0.0460,-0.0243 -0.0460 -0.0569c 0.0000,-0.0196 0.0053,-0.0360 0.0167 -0.0473c 0.0106,-0.0101 0.0222,-0.0159 0.0397 -0.0159c 0.0053,-0.0000 0.0169,0.0024 0.0230 0.0058v -0.0405 c 0.0000,-0.0151 -0.0024,-0.0193 -0.0077 -0.0193l -0.0087,0.0011 c -0.0005,-0.0000 -0.0013,-0.0005 -0.0013 -0.0013l -0.0005,-0.0066 c 0.0042,-0.0000 0.0138,-0.0016 0.0183 -0.0024c 0.0050,-0.0011 0.0087,-0.0021 0.0140 -0.0045h 0.0058 Z"/></g><g stroke-linejoin="miter" stroke-opacity="1.0" fill-opacity="0.33" stroke="rgb(0,0,0)" fill-rule="evenodd" stroke-width="0.0" fill="rgb(0,0,0)" stroke-linecap="butt" stroke-miterlimit="10.0"><path d="M 198.7433,91.9430 ZM 198.8449,91.9189 c -0.0116,0.0201 -0.0243,0.0272 -0.0402 0.0272c -0.0317,-0.0000 -0.0516,-0.0241 -0.0516 -0.0582c 0.0000,-0.0376 0.0235,-0.0619 0.0521 -0.0619c 0.0254,-0.0000 0.0389,0.0130 0.0389 0.0270c 0.0000,0.0077 -0.0048,0.0116 -0.0103 0.0116c -0.0056,-0.0000 -0.0108,-0.0029 -0.0116 -0.0095c -0.0011,-0.0087 -0.0026,-0.0201 -0.0183 -0.0201c -0.0175,-0.0000 -0.0304,0.0185 -0.0304 0.0471c 0.0000,0.0309 0.0167,0.0524 0.0370 0.0524c 0.0114,-0.0000 0.0214,-0.0074 0.0296 -0.0193Z"/></g><g stroke-linejoin="miter" stroke-opacity="1.0" fill-opacity="0.33" stroke="rgb(0,0,0)" fill-rule="evenodd" stroke-width="0.0" fill="rgb(0,0,0)" stroke-linecap="butt" stroke-miterlimit="10.0"><path d="M 198.3393,95.9302 ZM 198.3787,95.9157 c 0.0053,0.0063 0.0108,0.0085 0.0190 0.0085c 0.0251,-0.0000 0.0378,-0.0233 0.0378 -0.0534c 0.0000,-0.0270 -0.0138,-0.0463 -0.0299 -0.0463c -0.0029,-0.0000 -0.0167,0.0005 -0.0270 0.0114v 0.0799 ZM 198.3787,95.9157 ZM 198.3589,95.7787 c 0.0000,-0.0151 -0.0026,-0.0193 -0.0079 -0.0193l -0.0085,0.0011 c -0.0008,-0.0000 -0.0013,-0.0005 -0.0013 -0.0013l -0.0005,-0.0066 c 0.0042,-0.0000 0.0138,-0.0016 0.0183 -0.0024c 0.0048,-0.0011 0.0087,-0.0021 0.0140 -0.0045h 0.0058 v 0.0820 c 0.0090,-0.0098 0.0196,-0.0145 0.0323 -0.0145c 0.0230,-0.0000 0.0450,0.0220 0.0450 0.0542c 0.0000,0.0421 -0.0296,0.0659 -0.0566 0.0659c -0.0114,-0.0000 -0.0198,-0.0032 -0.0275 -0.0098c -0.0024,0.0032 -0.0058,0.0071 -0.0082 0.0098l -0.0056,-0.0013 c 0.0008,-0.0063 0.0008,-0.0106 0.0008 -0.0209v -0.1322 Z"/></g><g stroke-linejoin="miter" stroke-opacity="1.0" fill-opacity="0.33" stroke="rgb(0,0,0)" fill-rule="evenodd" stroke-width="0.0" fill="rgb(0,0,0)" stroke-linecap="butt" stroke-miterlimit="10.0"><path d="M 197.9448,99.9175 ZM 198.0218,99.8527 l -0.0209,0.0053 c -0.0233,0.0071 -0.0267,0.0193 -0.0267 0.0312c 0.0000,0.0082 0.0040,0.0206 0.0206 0.0206c 0.0079,-0.0000 0.0201,-0.0077 0.0270 -0.0135v -0.0436 ZM 198.0218,99.8527 ZM 198.0387,99.9207 c -0.0101,-0.0000 -0.0156,-0.0090 -0.0167 -0.0153l -0.0061,0.0042 c -0.0122,0.0085 -0.0167,0.0111 -0.0288 0.0111c -0.0185,-0.0000 -0.0320,-0.0106 -0.0320 -0.0304c 0.0000,-0.0201 0.0172,-0.0339 0.0423 -0.0402l 0.0243,-0.0061 c 0.0000,-0.0299 -0.0138,-0.0354 -0.0227 -0.0354c -0.0101,-0.0000 -0.0217,0.0045 -0.0217 0.0127c 0.0000,0.0029 0.0005,0.0045 0.0008 0.0053c 0.0005,0.0011 0.0008,0.0029 0.0008 0.0048c 0.0000,0.0034 -0.0026,0.0087 -0.0103 0.0087c -0.0063,-0.0000 -0.0106,-0.0042 -0.0106 -0.0106c 0.0000,-0.0153 0.0249,-0.0288 0.0418 -0.0288c 0.0193,-0.0000 0.0415,0.0079 0.0415 0.0455v 0.0389 c 0.0000,0.0161 0.0003,0.0230 0.0063 0.0230c 0.0058,-0.0000 0.0074,-0.0074 0.0077 -0.0132l 0.0066,0.0013 c -0.0016,0.0193 -0.0098,0.0246 -0.0233 0.0246Z"/></g></svg>