<?xml version="1.0" encoding="UTF-8"?>
<!DOCTYPE svg PUBLIC "-//W3C//DTD SVG 1.1//EN"
    "http://www.w3.org/Graphics/SVG/1.1/DTD/svg11.dtd">
<svg xmlns="http://www.w3.org/2000/svg" height="100.0000" stroke-opacity="1" viewBox="0 0 400 100" font-size="1" width="400.0000" xmlns:xlink="http://www.w3.org/1999/xlink" stroke="rgb(0,0,0)" version="1.1">
  <defs>
  </defs>
  <g stroke-linejoin="miter" stroke-opacity="1.0" fill-opacity="0.33" stroke="rgb(0,0,0)" fill-rule="evenodd" stroke-width="0.0" fill="rgb(255,255,255)" stroke-linecap="butt" stroke-miterlimit="10.0">
    <path d="M 0.0000,62.8039 ZM 14.2119,62.2759 c -0.1760,0.6160 -0.6160,1.0560 -1.2320 1.0560c -0.6600,-0.0000 -1.1880,-0.3520 -1.4520 -1.0560l -8.0079,-24.1998 c -0.3960,-1.1000 -1.1880,-2.4640 -2.4200 -2.4640h -0.5720 c -0.3080,-0.0000 -0.5280,-0.1320 -0.5280 -0.3080v -0.8360 l 0.0880,-0.0880 c 0.0000,-0.0000 2.2880,0.0440 3.9600 0.0440c 2.2440,-0.0000 5.3239,-0.0440 5.3239 -0.0440l 0.0880,0.0880 v 0.7920 c 0.0000,0.2200 -0.1320,0.3520 -0.3960 0.3520h -0.9680 c -0.8360,-0.0000 -1.2320,0.3080 -1.2320 0.8800c 0.0000,0.3080 0.0880,0.6600 0.2640 1.1440l 6.6879,20.2838 l 4.6640,-14.5639 c 0.1760,-0.5280 0.3080,-1.1000 0.3080 -1.6720c 0.0000,-0.3960 -0.0440,-0.7920 -0.2200 -1.2320l -0.9240,-2.8160 c -0.3520,-1.1880 -1.1440,-2.0240 -2.8600 -2.0240h -0.1320 c -0.3080,-0.0000 -0.5280,-0.1320 -0.5280 -0.3080v -0.8360 l 0.0880,-0.0880 c 0.0000,-0.0000 2.4640,0.0440 4.2240 0.0440c 2.1560,-0.0000 5.6319,-0.0440 5.6319 -0.0440l 0.1320,0.0880 v 0.8360 c 0.0000,0.2200 -0.2200,0.3080 -0.3960 0.3080h -1.2760 c -0.8800,-0.0000 -1.2320,0.6160 -1.2320 1.3640c 0.0000,0.4400 0.0880,0.9240 0.2640 1.4520l 6.4679,19.5798 l 6.7319,-20.2398 c 0.0880,-0.3520 0.1760,-0.7040 0.1760 -1.0120c 0.0000,-0.6600 -0.3960,-1.1440 -1.4960 -1.1440h -1.1880 c -0.2200,-0.0000 -0.3520,-0.1760 -0.3520 -0.3080v -0.8360 l 0.0880,-0.0880 c 0.0000,-0.0000 2.6400,0.0440 4.4880 0.0440c 1.4080,-0.0000 3.7400,-0.0440 3.7400 -0.0440l 0.0440,0.0440 v 0.8360 c 0.0000,0.3520 -0.4840,0.3520 -0.4840 0.3520h -0.4840 c -1.2760,-0.0000 -2.1560,0.4840 -2.7280 2.2000l -8.0959,24.5078 c -0.2200,0.6600 -0.7040,1.0120 -1.3200 1.0120c -0.5720,-0.0000 -1.1440,-0.3080 -1.4080 -1.0560l -5.1479,-15.6198 c -0.2200,-0.6160 -0.4400,-1.2320 -0.6160 -1.2320c -0.2200,-0.0000 -0.4400,0.5720 -0.6160 1.1000ZM 40.2596,62.8039 ZM 45.2755,50.6160 h 8.0959 c 0.4400,-0.0000 0.6160,-0.2200 0.6160 -0.6160c 0.0000,-4.0920 -2.0680,-5.1479 -3.6520 -5.1479c -1.0120,-0.0000 -4.3120,0.3960 -5.0599 5.7639ZM 45.2755,50.6160 ZM 56.8914,58.7119 l 0.8800,0.7040 c -1.6720,2.2880 -4.2680,3.9160 -7.4359 3.9160c -6.0279,-0.0000 -8.5799,-4.4880 -8.5799 -9.2839c 0.0000,-6.6879 4.4000,-10.6919 8.5799 -10.6919c 5.8079,-0.0000 7.1719,4.5320 7.1719 8.2279c 0.0000,0.4840 -0.3080,0.7480 -0.7920 0.7480h -11.5719 c -0.0440,0.2640 -0.0440,0.5280 -0.0440 0.8800c 0.0000,4.4880 3.1240,7.9639 6.2919 7.9639c 2.4200,-0.0000 3.9600,-0.7920 5.4999 -2.4640ZM 59.0914,62.8039 ZM 63.2714,59.6359 v -22.0438 c 0.0000,-2.5080 -0.4400,-3.2120 -1.3200 -3.2120l -1.4080,0.1760 c -0.1320,-0.0000 -0.2640,-0.0880 -0.2640 -0.2200l -0.0880,-1.1000 c 0.7040,-0.0000 2.3320,-0.2640 3.0800 -0.3960c 0.7920,-0.1760 1.4080,-0.3520 2.2880 -0.7480h 0.9680 v 27.5437 c 0.0000,1.2760 0.4840,1.9360 1.8920 1.9360h 1.0560 c 0.1760,-0.0000 0.3520,0.1320 0.3520 0.3520v 0.8360 l -0.0880,0.0880 c 0.0000,-0.0000 -3.2120,-0.0880 -4.9280 -0.0880c -1.5400,-0.0000 -4.7520,0.0880 -4.7520 0.0880l -0.0440,-0.0880 v -0.8360 c 0.0000,-0.2200 0.0880,-0.3520 0.3080 -0.3520h 1.0560 c 1.4520,-0.0000 1.8920,-0.6600 1.8920 -1.9360ZM 70.5313,62.8039 ZM 87.4271,58.7999 c -1.9360,3.3440 -4.0480,4.5320 -6.6879 4.5320c -5.2799,-0.0000 -8.5799,-4.0040 -8.5799 -9.6799c 0.0000,-6.2479 3.9160,-10.2959 8.6679 -10.2959c 4.2240,-0.0000 6.4679,2.1560 6.4679 4.4880c 0.0000,1.2760 -0.7920,1.9360 -1.7160 1.9360c -0.9240,-0.0000 -1.8040,-0.4840 -1.9360 -1.5840c -0.1760,-1.4520 -0.4400,-3.3440 -3.0360 -3.3440c -2.9040,-0.0000 -5.0599,3.0800 -5.0599 7.8319c 0.0000,5.1479 2.7720,8.7119 6.1599 8.7119c 1.8920,-0.0000 3.5640,-1.2320 4.9280 -3.2120ZM 88.2631,62.8039 ZM 89.7591,53.7840 c 0.0000,-6.0279 3.2560,-10.4279 9.1079 -10.4279c 6.5119,-0.0000 9.0199,5.4559 9.0199 10.0319c 0.0000,4.4000 -2.8600,9.9439 -9.1079 9.9439c -5.8959,-0.0000 -9.0199,-5.0599 -9.0199 -9.5479ZM 89.7591,53.7840 ZM 98.3830,44.8081 c -3.5200,-0.0000 -5.1479,4.1360 -5.1479 7.9639c 0.0000,3.3880 1.9360,9.0199 6.2919 9.0199c 1.9800,-0.0000 4.8840,-1.1880 4.8840 -6.9959c 0.0000,-6.4679 -2.4200,-9.9879 -6.0279 -9.9879ZM 109.3389,62.8039 ZM 135.8706,59.6359 v -10.1199 c 0.0000,-2.9480 -1.1440,-4.0480 -2.8160 -4.0480c -1.7160,-0.0000 -3.0800,0.8800 -5.1919 3.2120c 0.0880,0.5280 0.0880,1.1440 0.0880 1.7600v 9.1959 c 0.0000,1.2760 0.4400,1.9360 1.8920 1.9360h 0.7480 c 0.2200,-0.0000 0.3960,0.1320 0.3960 0.3520v 0.8360 l -0.0880,0.0880 c 0.0000,-0.0000 -2.9480,-0.0880 -4.6640 -0.0880c -1.5840,-0.0000 -4.6200,0.0880 -4.6200 0.0880l -0.0880,-0.0880 v -0.8360 c 0.0000,-0.2200 0.1320,-0.3520 0.3520 -0.3520h 0.8800 c 1.4960,-0.0000 1.8920,-0.6600 1.8920 -1.9360v -10.0319 c 0.0000,-2.9480 -1.1880,-4.1360 -2.8600 -4.1360c -1.5400,-0.0000 -2.9920,1.1000 -5.0599 3.2560v 10.9119 c 0.0000,1.2760 0.4400,1.9360 1.8920 1.9360h 0.8360 c 0.1760,-0.0000 0.3520,0.1320 0.3520 0.3520v 0.8360 l -0.0880,0.0880 c 0.0000,-0.0000 -2.9920,-0.0880 -4.7080 -0.0880c -1.5840,-0.0000 -4.5760,0.0880 -4.5760 0.0880l -0.0880,-0.0880 v -0.8360 c 0.0000,-0.2200 0.1320,-0.3520 0.3520 -0.3520h 0.8360 c 1.4960,-0.0000 1.8920,-0.6600 1.8920 -1.9360v -10.9559 c 0.0000,-2.5080 -0.3960,-2.6840 -0.9680 -2.6840c -0.5720,-0.0000 -1.1000,0.0440 -1.8480 0.2200l -0.2200,-1.2320 c 2.7720,-0.4840 3.3880,-0.6600 4.5760 -1.2760c 0.4400,-0.2200 0.7920,-0.3520 1.1000 -0.3520h 0.6600 l -0.1320,3.8280 h 0.1320 c 2.0680,-2.2000 3.9160,-3.8280 6.6439 -3.8280c 2.4640,-0.0000 4.0040,1.8040 4.2680 3.7840c 2.5520,-2.6400 4.6200,-3.7840 6.9959 -3.7840c 3.8720,-0.0000 4.5320,3.2120 4.5320 7.1279v 9.1519 c 0.0000,1.2760 0.4400,1.9360 1.8920 1.9360h 0.8360 c 0.1760,-0.0000 0.3520,0.1320 0.3520 0.3520v 0.8360 l -0.0880,0.0880 c 0.0000,-0.0000 -2.9920,-0.0880 -4.7080 -0.0880c -1.5840,-0.0000 -4.5760,0.0880 -4.5760 0.0880l -0.0880,-0.0880 v -0.8360 c 0.0000,-0.2200 0.1320,-0.3520 0.3520 -0.3520h 0.8360 c 1.4520,-0.0000 1.8920,-0.6600 1.8920 -1.9360ZM 142.7786,62.8039 ZM 147.7945,50.6160 h 8.0959 c 0.4400,-0.0000 0.6160,-0.2200 0.6160 -0.6160c 0.0000,-4.0920 -2.0680,-5.1479 -3.6520 -5.1479c -1.0120,-0.0000 -4.3120,0.3960 -5.0599 5.7639ZM 147.7945,50.6160 ZM 159.4104,58.7119 l 0.8800,0.7040 c -1.6720,2.2880 -4.2680,3.9160 -7.4359 3.9160c -6.0279,-0.0000 -8.5799,-4.4880 -8.5799 -9.2839c 0.0000,-6.6879 4.4000,-10.6919 8.5799 -10.6919c 5.8079,-0.0000 7.1719,4.5320 7.1719 8.2279c 0.0000,0.4840 -0.3080,0.7480 -0.7920 0.7480h -11.5719 c -0.0440,0.2640 -0.0440,0.5280 -0.0440 0.8800c 0.0000,4.4880 3.1240,7.9639 6.2919 7.9639c 2.4200,-0.0000 3.9600,-0.7920 5.4999 -2.4640ZM 172.6103,62.8039 ZM 179.8262,45.6000 v 11.2639 c 0.0000,2.7280 0.2640,4.0480 1.4520 4.0480c 1.1440,-0.0000 2.0240,-0.3520 3.1680 -1.2320l 0.7920,0.7480 c -1.7160,1.9360 -3.4760,2.9040 -5.4999 2.9040c -2.0240,-0.0000 -3.2120,-1.2320 -3.2120 -4.3560v -13.3759 h -2.8600 c -0.1320,-0.0000 -0.1760,-0.0440 -0.1760 -0.1760v -1.3640 c 0.0000,-0.1320 0.0440,-0.1760 0.1320 -0.1760c 2.9480,-0.0000 3.6520,-1.7160 3.6520 -5.0599v -0.8360 l 2.5520,-0.8800 v 6.7759 h 4.8400 c 0.2200,-0.0000 0.3520,0.0880 0.3520 0.2640v 0.8800 c 0.0000,0.3960 -0.6160,0.5720 -1.0560 0.5720h -4.1360 ZM 185.8981,62.8039 ZM 187.3941,53.7840 c 0.0000,-6.0279 3.2560,-10.4279 9.1079 -10.4279c 6.5119,-0.0000 9.0199,5.4559 9.0199 10.0319c 0.0000,4.4000 -2.8600,9.9439 -9.1079 9.9439c -5.8959,-0.0000 -9.0199,-5.0599 -9.0199 -9.5479ZM 187.3941,53.7840 ZM 196.0180,44.8081 c -3.5200,-0.0000 -5.1479,4.1360 -5.1479 7.9639c 0.0000,3.3880 1.9360,9.0199 6.2919 9.0199c 1.9800,-0.0000 4.8840,-1.1880 4.8840 -6.9959c 0.0000,-6.4679 -2.4200,-9.9879 -6.0279 -9.9879ZM 217.9738,62.8039 ZM 249.5215,59.6359 v -8.9759 c 0.0000,-3.5640 -0.9240,-5.2359 -2.9480 -5.2359c -1.2760,-0.0000 -3.1680,0.7480 -5.7639 3.2120v 10.9999 c 0.0000,1.2760 0.4400,1.9360 1.8920 1.9360h 0.8360 c 0.1760,-0.0000 0.3520,0.1320 0.3520 0.3520v 0.8360 l -0.0880,0.0880 c 0.0000,-0.0000 -2.9920,-0.0880 -4.7080 -0.0880c -1.5840,-0.0000 -3.3440,0.0880 -3.3440 0.0880l -0.0880,-0.0880 v -0.8360 c 0.0000,-0.2200 0.1320,-0.3520 0.3520 -0.3520h 0.0880 c 1.1440,-0.0000 1.4080,-0.6600 1.4080 -1.9360v -22.2638 c 0.0000,-2.0680 -0.3960,-2.9920 -1.2760 -2.9920l -1.4520,0.1760 c -0.1320,-0.0000 -0.2200,-0.0880 -0.2200 -0.2200l -0.0880,-1.1000 c 0.7040,-0.0000 2.2880,-0.2640 3.0360 -0.3960c 0.7920,-0.1760 1.4520,-0.3520 2.3320 -0.7480h 0.9680 v 14.9159 c 2.9480,-2.9480 5.9839,-3.6520 7.6999 -3.6520c 3.2120,-0.0000 4.3120,2.4200 4.3120 6.9519v 9.3279 c 0.0000,1.2760 0.4400,1.9360 1.8480 1.9360h 0.8800 c 0.1760,-0.0000 0.3520,0.1320 0.3520 0.3520v 0.8360 l -0.0880,0.0880 c 0.0000,-0.0000 -2.9920,-0.0880 -4.7520 -0.0880c -1.5400,-0.0000 -4.5320,0.0880 -4.5320 0.0880l -0.0880,-0.0880 v -0.8360 c 0.0000,-0.2200 0.1320,-0.3520 0.3520 -0.3520h 0.8360 c 1.4960,-0.0000 1.8920,-0.6600 1.8920 -1.9360ZM 249.5215,59.6359 ZM 234.4297,58.6679 c -1.9360,3.3440 -4.0480,4.5320 -6.6439 4.5320c -5.2799,-0.0000 -8.1839,-4.0480 -8.1839 -9.7239c 0.0000,-6.2479 3.5200,-10.2079 8.2279 -10.2079c 4.2240,-0.0000 6.4679,2.1560 6.4679 4.4880c 0.0000,1.3200 -0.7920,1.9360 -1.6720 1.9360c -0.9680,-0.0000 -1.8480,-0.4840 -1.9800 -1.5400c -0.1320,-1.4960 -0.4400,-3.3880 -3.0360 -3.3880c -2.9040,-0.0000 -4.6200,2.9920 -4.6200 7.7439c 0.0000,5.1479 2.3320,8.7559 5.7639 8.7559c 1.8920,-0.0000 3.5200,-1.2320 4.8840 -3.2120ZM 256.4294,62.8039 ZM 269.2333,52.0240 l -3.4760,0.8800 c -3.8720,1.1880 -4.4440,3.2120 -4.4440 5.1919c 0.0000,1.3640 0.6600,3.4320 3.4320 3.4320c 1.3200,-0.0000 3.3440,-1.2760 4.4880 -2.2440v -7.2599 ZM 269.2333,52.0240 ZM 272.0493,63.3319 c -1.6720,-0.0000 -2.5960,-1.4960 -2.7720 -2.5520l -1.0120,0.7040 c -2.0240,1.4080 -2.7720,1.8480 -4.7960 1.8480c -3.0800,-0.0000 -5.3239,-1.7600 -5.3239 -5.0599c 0.0000,-3.3440 2.8600,-5.6319 7.0399 -6.6879l 4.0480,-1.0120 c 0.0000,-4.9720 -2.2880,-5.8959 -3.7840 -5.8959c -1.6720,-0.0000 -3.6080,0.7480 -3.6080 2.1120c 0.0000,0.4840 0.0880,0.7480 0.1320 0.8800c 0.0880,0.1760 0.1320,0.4840 0.1320 0.7920c 0.0000,0.5720 -0.4400,1.4520 -1.7160 1.4520c -1.0560,-0.0000 -1.7600,-0.7040 -1.7600 -1.7600c 0.0000,-2.5520 4.1360,-4.7960 6.9519 -4.7960c 3.2120,-0.0000 6.9079,1.3200 6.9079 7.5679v 6.4679 c 0.0000,2.6840 0.0440,3.8280 1.0560 3.8280c 0.9680,-0.0000 1.2320,-1.2320 1.2760 -2.2000l 1.1000,0.2200 c -0.2640,3.2120 -1.6280,4.0920 -3.8720 4.0920ZM 276.2732,62.8039 ZM 280.1892,59.6359 v -10.9559 c 0.0000,-2.2000 -0.3080,-2.6840 -0.9680 -2.6840c -0.5720,-0.0000 -1.1000,0.0440 -1.8480 0.2200l -0.2200,-1.2320 c 2.7720,-0.4840 3.2560,-0.6160 4.5760 -1.2760c 0.4400,-0.2200 0.7920,-0.3520 1.1000 -0.3520h 0.6600 l -0.1320,3.9600 h 0.1320 c 1.1440,-1.7160 3.0800,-3.9600 5.1479 -3.9600c 1.8040,-0.0000 2.4640,0.8800 2.4640 2.0240c 0.0000,1.1440 -0.7480,1.8480 -1.8920 1.8480c -0.8800,-0.0000 -1.3640,-0.3520 -1.8040 -0.7920c -0.2640,-0.2640 -0.5720,-0.3960 -0.8800 -0.3960c -0.4840,-0.0000 -1.4520,0.7920 -2.5080 2.2880c -0.3080,0.3960 -0.5280,0.9680 -0.5280 1.5400v 9.7679 c 0.0000,1.2760 0.4400,1.9360 1.8920 1.9360h 1.2760 c 0.2200,-0.0000 0.3960,0.1320 0.3960 0.3520v 0.8360 l -0.0880,0.0880 c 0.0000,-0.0000 -3.4760,-0.0880 -5.1919 -0.0880c -1.5840,-0.0000 -4.5760,0.0880 -4.5760 0.0880l -0.0440,-0.0880 v -0.8360 c 0.0000,-0.2200 0.0880,-0.3520 0.3080 -0.3520h 0.8360 c 1.4960,-0.0000 1.8920,-0.6600 1.8920 -1.9360ZM 291.5411,62.8039 ZM 298.7570,45.6000 v 11.2639 c 0.0000,2.7280 0.2640,4.0480 1.4520 4.0480c 1.1440,-0.0000 2.0240,-0.3520 3.1680 -1.2320l 0.7920,0.7480 c -1.7160,1.9360 -3.4760,2.9040 -5.4999 2.9040c -2.0240,-0.0000 -3.2120,-1.2320 -3.2120 -4.3560v -13.3759 h -2.8600 c -0.1320,-0.0000 -0.1760,-0.0440 -0.1760 -0.1760v -1.3640 c 0.0000,-0.1320 0.0440,-0.1760 0.1320 -0.1760c 2.9480,-0.0000 3.6520,-1.7160 3.6520 -5.0599v -0.8360 l 2.5520,-0.8800 v 6.7759 h 4.8400 c 0.2200,-0.0000 0.3520,0.0880 0.3520 0.2640v 0.8800 c 0.0000,0.3960 -0.6160,0.5720 -1.0560 0.5720h -4.1360 ZM 304.8290,62.8039 ZM 316.8848,52.4200 h -9.9439 c -0.3960,-0.0000 -0.6600,-0.3520 -0.6600 -0.7480c 0.0000,-0.7040 0.5720,-1.6280 1.1000 -1.6280h 10.0759 c 0.4400,-0.0000 0.6160,0.3960 0.6160 0.7920c 0.0000,0.4840 -0.6160,1.5840 -1.1880 1.5840ZM 319.4808,62.8039 ZM 338.3566,57.6999 c 0.0000,2.2000 0.2200,2.9040 1.1000 2.9040c 0.5280,-0.0000 1.4960,-0.0880 2.2440 -0.2200l 0.1760,1.2320 c -2.6840,0.4840 -4.8400,0.9240 -5.8519 1.7160h -0.9680 l 0.1320,-3.2560 h -0.1320 c -2.4200,2.6400 -4.4000,3.2560 -6.2039 3.2560c -4.3560,-0.0000 -5.4999,-2.9480 -5.4999 -5.9839v -10.0319 c 0.0000,-1.4520 -0.3080,-2.2000 -1.9360 -2.2000c -0.1760,-0.0000 -0.4840,0.0440 -0.7480 0.0440l -0.1320,-0.0440 v -1.1440 l 0.1320,-0.1320 c 0.0000,-0.0000 2.9920,0.0880 4.4000 0.0880c 0.6160,-0.0000 1.6280,-0.0880 1.6280 -0.0880l -0.0440,3.5200 v 9.3719 c 0.0000,3.9160 2.0240,4.6200 3.3440 4.6200c 1.0120,-0.0000 1.9360,-0.3960 2.8600 -1.0560c 1.0560,-0.7920 1.7600,-1.4080 2.2000 -1.9800v -10.8679 c 0.0000,-1.5840 -0.2200,-2.3320 -1.8480 -2.3320c -0.2640,-0.0000 -0.7480,0.0440 -0.8800 0.0440l -0.0880,-0.0880 v -1.1000 l 0.0880,-0.1320 c 0.0000,-0.0000 3.1240,0.0880 4.3560 0.0880c 1.0120,-0.0000 1.7160,-0.0880 1.7160 -0.0880l -0.0440,3.4760 v 10.3839 ZM 342.2286,62.8039 ZM 358.2444,59.6359 v -9.6359 c 0.0000,-3.0800 -0.5280,-4.5320 -2.8600 -4.5320c -1.9360,-0.0000 -3.6080,0.7480 -5.8519 3.3880v 10.7799 c 0.0000,1.2760 0.4400,1.9360 1.8920 1.9360h 0.6160 c 0.2200,-0.0000 0.3520,0.1320 0.3520 0.3520v 0.8360 l -0.0880,0.0880 c 0.0000,-0.0000 -2.7720,-0.0880 -4.4880 -0.0880c -1.5840,-0.0000 -4.5760,0.0880 -4.5760 0.0880l -0.0880,-0.0880 v -0.8360 c 0.0000,-0.2200 0.1320,-0.3520 0.3520 -0.3520h 0.8360 c 1.4960,-0.0000 1.8920,-0.6600 1.8920 -1.9360v -10.9559 c 0.0000,-2.3760 -0.3520,-2.6840 -0.9680 -2.6840c -0.5720,-0.0000 -1.1000,0.0440 -1.8480 0.2200l -0.2200,-1.2320 c 1.8480,-0.3080 3.1680,-0.5280 4.5320 -1.2760c 0.4840,-0.2200 0.8360,-0.3520 1.1440 -0.3520h 0.6600 l -0.1320,3.9160 h 0.1320 c 2.8160,-3.3000 4.9280,-3.9160 7.1719 -3.9160c 3.9600,-0.0000 4.7960,3.0360 4.7960 6.9519v 9.3279 c 0.0000,1.2760 0.4840,1.9360 1.8920 1.9360h 0.8360 c 0.2200,-0.0000 0.3960,0.1320 0.3960 0.3520v 0.8360 l -0.0880,0.0880 c 0.0000,-0.0000 -3.0360,-0.0880 -4.7520 -0.0880c -1.5400,-0.0000 -4.3120,0.0880 -4.3120 0.0880l -0.0880,-0.0880 v -0.8360 c 0.0000,-0.2200 0.1320,-0.3520 0.3520 -0.3520h 0.6160 c 1.4520,-0.0000 1.8920,-0.6600 1.8920 -1.9360ZM 365.1083,62.8039 ZM 368.5403,37.6801 c 0.0000,-1.1440 0.9240,-2.1120 2.0680 -2.1120c 1.1880,-0.0000 2.1120,0.9680 2.1120 2.1120c 0.0000,1.1880 -0.9240,2.1120 -2.1120 2.1120c -1.1440,-0.0000 -2.0680,-0.9240 -2.0680 -2.1120ZM 368.5403,37.6801 ZM 372.7203,59.6359 c 0.0000,1.2760 0.4840,1.9360 1.8920 1.9360h 0.8360 c 0.2200,-0.0000 0.3960,0.1320 0.3960 0.3520v 0.8360 l -0.0880,0.0880 c 0.0000,-0.0000 -3.0360,-0.0880 -4.7520 -0.0880c -1.5400,-0.0000 -4.5320,0.0880 -4.5320 0.0880l -0.0880,-0.0880 v -0.8360 c 0.0000,-0.2200 0.1320,-0.3520 0.3520 -0.3520h 0.8360 c 1.4520,-0.0000 1.8920,-0.6600 1.8920 -1.9360v -10.9559 c 0.0000,-2.3320 -0.3960,-2.6840 -1.0120 -2.6840c -0.5720,-0.0000 -1.1000,0.0440 -1.8480 0.2200l -0.2200,-1.2320 c 2.8160,-0.4840 3.3000,-0.6600 4.5760 -1.2760c 0.4840,-0.1760 0.7920,-0.3520 1.1000 -0.3520h 0.6600 v 16.2798 ZM 376.7242,62.8039 ZM 383.9402,45.6000 v 11.2639 c 0.0000,2.7280 0.2640,4.0480 1.4520 4.0480c 1.1440,-0.0000 2.0240,-0.3520 3.1680 -1.2320l 0.7920,0.7480 c -1.7160,1.9360 -3.4760,2.9040 -5.4999 2.9040c -2.0240,-0.0000 -3.2120,-1.2320 -3.2120 -4.3560v -13.3759 h -2.8600 c -0.1320,-0.0000 -0.1760,-0.0440 -0.1760 -0.1760v -1.3640 c 0.0000,-0.1320 0.0440,-0.1760 0.1320 -0.1760c 2.9480,-0.0000 3.6520,-1.7160 3.6520 -5.0599v -0.8360 l 2.5520,-0.8800 v 6.7759 h 4.8400 c 0.2200,-0.0000 0.3520,0.0880 0.3520 0.2640v 0.8800 c 0.0000,0.3960 -0.6160,0.5720 -1.0560 0.5720h -4.1360 ZM 390.0121,62.8039 ZM 394.9841,33.8522 c 1.1880,-0.0000 2.4640,1.0120 2.4640 3.2120c 0.0000,2.8600 -0.7040,4.7080 -1.1440 8.4919c -0.5720,4.7520 -0.6160,7.3919 -0.7040 8.0079c -0.0440,0.4840 -0.1760,0.8800 -0.6160 0.8800c -0.4840,-0.0000 -0.5720,-0.3080 -0.6160 -0.5720c -0.0880,-0.9240 -0.3080,-4.8840 -0.6600 -8.3159c -0.3960,-3.8720 -1.1000,-5.4119 -1.1000 -8.4919c 0.0000,-2.3760 1.4080,-3.2120 2.3760 -3.2120ZM 394.9841,33.8522 ZM 392.6521,60.9999 c 0.0000,-1.2760 1.0120,-2.3320 2.3320 -2.3320c 1.2760,-0.0000 2.3320,1.0560 2.3320 2.3320c 0.0000,1.2760 -1.0560,2.3320 -2.3320 2.3320c -1.3200,-0.0000 -2.3320,-1.0560 -2.3320 -2.3320Z"/>
  </g>
</svg>