<?xml version="1.0" encoding="UTF-8"?>
<!DOCTYPE svg PUBLIC "-//W3C//DTD SVG 1.1//EN"
    "http://www.w3.org/Graphics/SVG/1.1/DTD/svg11.dtd">
<svg xmlns="http://www.w3.org/2000/svg" height="400.0000" stroke-opacity="1" viewBox="0 0 600 400" font-size="1" width="600.0000" xmlns:xlink="http://www.w3.org/1999/xlink" stroke="rgb(0,0,0)" version="1.1">
  <defs>
  </defs>
  <g stroke-linejoin="miter" stroke-opacity="0.0" fill-opacity="0.0" stroke="rgb(0,0,0)" fill-rule="evenodd" stroke-width="0.0" fill="rgb(0,0,0)" stroke-linecap="butt" stroke-miterlimit="10.0">
    <path d="M 517.3622,17.4508 l -0.0000,-17.4508 h -95.9797 l -0.0000,17.4508 Z"/>
  </g>
  <g stroke-linejoin="miter" stroke-opacity="1.0" fill-opacity="0.33" font-size="15.864405359341319px" stroke="rgb(0,0,0)" fill-rule="evenodd" stroke-width="0.0" fill="rgb(0,0,0)" stroke-linecap="butt" stroke-miterlimit="10.0">
    <text dominant-baseline="middle" transform="matrix(1.0000,-0.0000,0.0000,1.0000,469.3724,8.7254)" stroke="none" text-anchor="middle">Fri, 31 Aug
    </text>
  </g>
  <g stroke-linejoin="miter" stroke-opacity="1.0" fill-opacity="1.0" stroke="rgb(102,102,102)" stroke-width="0.0" fill="rgb(0,0,255)" stroke-linecap="butt" stroke-miterlimit="10.0">
    <path d="M 474.4571,40.3322 l -0.0000,-10.1695 h -10.1695 l -0.0000,10.1695 Z"/>
  </g>
  <g stroke-linejoin="miter" stroke-opacity="0.0" fill-opacity="0.0" stroke="rgb(0,0,0)" fill-rule="evenodd" stroke-width="0.0" fill="rgb(0,0,0)" stroke-linecap="butt" stroke-miterlimit="10.0">
    <path d="M 455.1552,57.4577 l -0.0000,-17.4508 h -95.9797 l -0.0000,17.4508 Z"/>
  </g>
  <g stroke-linejoin="miter" stroke-opacity="1.0" fill-opacity="0.33" font-size="15.864405359341319px" stroke="rgb(0,0,0)" fill-rule="evenodd" stroke-width="0.0" fill="rgb(0,0,0)" stroke-linecap="butt" stroke-miterlimit="10.0">
    <text dominant-baseline="middle" transform="matrix(1.0000,-0.0000,0.0000,1.0000,407.1654,48.7323)" stroke="none" text-anchor="middle">Tue, 31 Jul
    </text>
  </g>
  <g stroke-linejoin="miter" stroke-opacity="1.0" fill-opacity="1.0" stroke="rgb(102,102,102)" stroke-width="0.0" fill="rgb(0,0,255)" stroke-linecap="butt" stroke-miterlimit="10.0">
    <path d="M 412.2501,80.3391 l -0.0000,-10.1695 h -10.1695 l -0.0000,10.1695 Z"/>
  </g>
  <g stroke-linejoin="miter" stroke-opacity="0.0" fill-opacity="0.0" stroke="rgb(0,0,0)" fill-rule="evenodd" stroke-width="0.0" fill="rgb(0,0,0)" stroke-linecap="butt" stroke-miterlimit="10.0">
    <path d="M 395.6529,98.7551 l -0.0000,-17.4508 h -95.9797 l -0.0000,17.4508 Z"/>
  </g>
  <g stroke-linejoin="miter" stroke-opacity="1.0" fill-opacity="0.33" font-size="15.864405359341319px" stroke="rgb(0,0,0)" fill-rule="evenodd" stroke-width="0.0" fill="rgb(0,0,0)" stroke-linecap="butt" stroke-miterlimit="10.0">
    <text dominant-baseline="middle" transform="matrix(1.0000,-0.0000,0.0000,1.0000,347.6630,90.0297)" stroke="none" text-anchor="middle">Fri, 29 Jun
    </text>
  </g>
  <g stroke-linejoin="miter" stroke-opacity="1.0" fill-opacity="1.0" stroke="rgb(102,102,102)" stroke-width="0.0" fill="rgb(0,0,255)" stroke-linecap="butt" stroke-miterlimit="10.0">
    <path d="M 352.7478,121.6365 l -0.0000,-10.1695 h -10.1695 l -0.0000,10.1695 Z"/>
  </g>
  <g stroke-linejoin="miter" stroke-opacity="0.0" fill-opacity="0.0" stroke="rgb(0,0,0)" fill-rule="evenodd" stroke-width="0.0" fill="rgb(0,0,0)" stroke-linecap="butt" stroke-miterlimit="10.0">
    <path d="M 338.8552,136.1809 l -0.0000,-17.4508 h -95.9797 l -0.0000,17.4508 Z"/>
  </g>
  <g stroke-linejoin="miter" stroke-opacity="1.0" fill-opacity="0.33" font-size="15.864405359341319px" stroke="rgb(0,0,0)" fill-rule="evenodd" stroke-width="0.0" fill="rgb(0,0,0)" stroke-linecap="butt" stroke-miterlimit="10.0">
    <text dominant-baseline="middle" transform="matrix(1.0000,-0.0000,0.0000,1.0000,290.8653,127.4555)" stroke="none" text-anchor="middle">Thu, 31 May
    </text>
  </g>
  <g stroke-linejoin="miter" stroke-opacity="1.0" fill-opacity="1.0" stroke="rgb(102,102,102)" stroke-width="0.0" fill="rgb(0,0,255)" stroke-linecap="butt" stroke-miterlimit="10.0">
    <path d="M 295.9501,159.0623 l -0.0000,-10.1695 h -10.1695 l -0.0000,10.1695 Z"/>
  </g>
  <g stroke-linejoin="miter" stroke-opacity="0.0" fill-opacity="0.0" stroke="rgb(0,0,0)" fill-rule="evenodd" stroke-width="0.0" fill="rgb(0,0,0)" stroke-linecap="butt" stroke-miterlimit="10.0">
    <path d="M 276.6482,176.1878 l -0.0000,-17.4508 h -95.9797 l -0.0000,17.4508 Z"/>
  </g>
  <g stroke-linejoin="miter" stroke-opacity="1.0" fill-opacity="0.33" font-size="15.864405359341319px" stroke="rgb(0,0,0)" fill-rule="evenodd" stroke-width="0.0" fill="rgb(0,0,0)" stroke-linecap="butt" stroke-miterlimit="10.0">
    <text dominant-baseline="middle" transform="matrix(1.0000,-0.0000,0.0000,1.0000,228.6583,167.4624)" stroke="none" text-anchor="middle">Mon, 30 Apr
    </text>
  </g>
  <g stroke-linejoin="miter" stroke-opacity="1.0" fill-opacity="1.0" stroke="rgb(102,102,102)" stroke-width="0.0" fill="rgb(0,0,255)" stroke-linecap="butt" stroke-miterlimit="10.0">
    <path d="M 233.7431,199.0692 l -0.0000,-10.1695 h -10.1695 l -0.0000,10.1695 Z"/>
  </g>
  <g stroke-linejoin="miter" stroke-opacity="0.0" fill-opacity="0.0" stroke="rgb(0,0,0)" fill-rule="evenodd" stroke-width="0.0" fill="rgb(0,0,0)" stroke-linecap="butt" stroke-miterlimit="10.0">
    <path d="M 219.8505,216.1947 l -0.0000,-17.4508 h -95.9797 l -0.0000,17.4508 Z"/>
  </g>
  <g stroke-linejoin="miter" stroke-opacity="1.0" fill-opacity="0.33" font-size="15.864405359341319px" stroke="rgb(0,0,0)" fill-rule="evenodd" stroke-width="0.0" fill="rgb(0,0,0)" stroke-linecap="butt" stroke-miterlimit="10.0">
    <text dominant-baseline="middle" transform="matrix(1.0000,-0.0000,0.0000,1.0000,171.8607,207.4693)" stroke="none" text-anchor="middle">Fri, 30 Mar
    </text>
  </g>
  <g stroke-linejoin="miter" stroke-opacity="1.0" fill-opacity="1.0" stroke="rgb(102,102,102)" stroke-width="0.0" fill="rgb(0,0,255)" stroke-linecap="butt" stroke-miterlimit="10.0">
    <path d="M 176.9454,239.0761 l -0.0000,-10.1695 h -10.1695 l -0.0000,10.1695 Z"/>
  </g>
  <g stroke-linejoin="miter" stroke-opacity="0.0" fill-opacity="0.0" stroke="rgb(0,0,0)" fill-rule="evenodd" stroke-width="0.0" fill="rgb(0,0,0)" stroke-linecap="butt" stroke-miterlimit="10.0">
    <path d="M 160.3481,254.9110 l -0.0000,-17.4508 h -95.9797 l -0.0000,17.4508 Z"/>
  </g>
  <g stroke-linejoin="miter" stroke-opacity="1.0" fill-opacity="0.33" font-size="15.864405359341319px" stroke="rgb(0,0,0)" fill-rule="evenodd" stroke-width="0.0" fill="rgb(0,0,0)" stroke-linecap="butt" stroke-miterlimit="10.0">
    <text dominant-baseline="middle" transform="matrix(1.0000,-0.0000,0.0000,1.0000,112.3583,246.1856)" stroke="none" text-anchor="middle">Wed, 28 Feb
    </text>
  </g>
  <g stroke-linejoin="miter" stroke-opacity="1.0" fill-opacity="1.0" stroke="rgb(102,102,102)" stroke-width="0.0" fill="rgb(0,0,255)" stroke-linecap="butt" stroke-miterlimit="10.0">
    <path d="M 117.4431,277.7924 l -0.0000,-10.1695 h -10.1695 l -0.0000,10.1695 Z"/>
  </g>
  <g stroke-linejoin="miter" stroke-opacity="1.0" fill-opacity="1.0" stroke="rgb(102,102,102)" stroke-width="0.0" fill="rgb(255,0,0)" stroke-linecap="butt" stroke-miterlimit="10.0">
    <path d="M 489.5761,21.0515 c 0.0000,-0.7021 -0.5691,-1.2712 -1.2712 -1.2712c -0.7021,-0.0000 -1.2712,0.5691 -1.2712 1.2712c -0.0000,0.7021 0.5691,1.2712 1.2712 1.2712c 0.7021,0.0000 1.2712,-0.5691 1.2712 -1.2712Z"/>
  </g>
  <g stroke-linejoin="miter" stroke-opacity="1.0" fill-opacity="1.0" stroke="rgb(102,102,102)" stroke-width="0.0" fill="rgb(255,0,0)" stroke-linecap="butt" stroke-miterlimit="10.0">
    <path d="M 486.8715,22.3420 c 0.0000,-0.7021 -0.5691,-1.2712 -1.2712 -1.2712c -0.7021,-0.0000 -1.2712,0.5691 -1.2712 1.2712c -0.0000,0.7021 0.5691,1.2712 1.2712 1.2712c 0.7021,0.0000 1.2712,-0.5691 1.2712 -1.2712Z"/>
  </g>
  <g stroke-linejoin="miter" stroke-opacity="1.0" fill-opacity="1.0" stroke="rgb(102,102,102)" stroke-width="0.0" fill="rgb(255,0,0)" stroke-linecap="butt" stroke-miterlimit="10.0">
    <path d="M 484.1668,26.2136 c 0.0000,-0.7021 -0.5691,-1.2712 -1.2712 -1.2712c -0.7021,-0.0000 -1.2712,0.5691 -1.2712 1.2712c -0.0000,0.7021 0.5691,1.2712 1.2712 1.2712c 0.7021,0.0000 1.2712,-0.5691 1.2712 -1.2712Z"/>
  </g>
  <g stroke-linejoin="miter" stroke-opacity="1.0" fill-opacity="1.0" stroke="rgb(102,102,102)" stroke-width="0.0" fill="rgb(255,0,0)" stroke-linecap="butt" stroke-miterlimit="10.0">
    <path d="M 481.4621,27.5042 c 0.0000,-0.7021 -0.5691,-1.2712 -1.2712 -1.2712c -0.7021,-0.0000 -1.2712,0.5691 -1.2712 1.2712c -0.0000,0.7021 0.5691,1.2712 1.2712 1.2712c 0.7021,0.0000 1.2712,-0.5691 1.2712 -1.2712Z"/>
  </g>
  <g stroke-linejoin="miter" stroke-opacity="1.0" fill-opacity="1.0" stroke="rgb(102,102,102)" stroke-width="0.0" fill="rgb(255,0,0)" stroke-linecap="butt" stroke-miterlimit="10.0">
    <path d="M 478.7575,28.7947 c 0.0000,-0.7021 -0.5691,-1.2712 -1.2712 -1.2712c -0.7021,-0.0000 -1.2712,0.5691 -1.2712 1.2712c -0.0000,0.7021 0.5691,1.2712 1.2712 1.2712c 0.7021,0.0000 1.2712,-0.5691 1.2712 -1.2712Z"/>
  </g>
  <g stroke-linejoin="miter" stroke-opacity="1.0" fill-opacity="1.0" stroke="rgb(102,102,102)" stroke-width="0.0" fill="rgb(255,0,0)" stroke-linecap="butt" stroke-miterlimit="10.0">
    <path d="M 476.0528,30.0853 c 0.0000,-0.7021 -0.5691,-1.2712 -1.2712 -1.2712c -0.7021,-0.0000 -1.2712,0.5691 -1.2712 1.2712c -0.0000,0.7021 0.5691,1.2712 1.2712 1.2712c 0.7021,0.0000 1.2712,-0.5691 1.2712 -1.2712Z"/>
  </g>
  <g stroke-linejoin="miter" stroke-opacity="1.0" fill-opacity="1.0" stroke="rgb(102,102,102)" stroke-width="0.0" fill="rgb(255,0,0)" stroke-linecap="butt" stroke-miterlimit="10.0">
    <path d="M 473.3482,31.3758 c 0.0000,-0.7021 -0.5691,-1.2712 -1.2712 -1.2712c -0.7021,-0.0000 -1.2712,0.5691 -1.2712 1.2712c -0.0000,0.7021 0.5691,1.2712 1.2712 1.2712c 0.7021,0.0000 1.2712,-0.5691 1.2712 -1.2712Z"/>
  </g>
  <g stroke-linejoin="miter" stroke-opacity="1.0" fill-opacity="1.0" stroke="rgb(102,102,102)" stroke-width="0.0" fill="rgb(255,0,0)" stroke-linecap="butt" stroke-miterlimit="10.0">
    <path d="M 470.6435,35.2475 c 0.0000,-0.7021 -0.5691,-1.2712 -1.2712 -1.2712c -0.7021,-0.0000 -1.2712,0.5691 -1.2712 1.2712c -0.0000,0.7021 0.5691,1.2712 1.2712 1.2712c 0.7021,0.0000 1.2712,-0.5691 1.2712 -1.2712Z"/>
  </g>
  <g stroke-linejoin="miter" stroke-opacity="1.0" fill-opacity="1.0" stroke="rgb(102,102,102)" stroke-width="0.0" fill="rgb(255,0,0)" stroke-linecap="butt" stroke-miterlimit="10.0">
    <path d="M 467.9389,36.5380 c 0.0000,-0.7021 -0.5691,-1.2712 -1.2712 -1.2712c -0.7021,-0.0000 -1.2712,0.5691 -1.2712 1.2712c -0.0000,0.7021 0.5691,1.2712 1.2712 1.2712c 0.7021,0.0000 1.2712,-0.5691 1.2712 -1.2712Z"/>
  </g>
  <g stroke-linejoin="miter" stroke-opacity="1.0" fill-opacity="1.0" stroke="rgb(102,102,102)" stroke-width="0.0" fill="rgb(255,0,0)" stroke-linecap="butt" stroke-miterlimit="10.0">
    <path d="M 465.2342,37.8285 c 0.0000,-0.7021 -0.5691,-1.2712 -1.2712 -1.2712c -0.7021,-0.0000 -1.2712,0.5691 -1.2712 1.2712c -0.0000,0.7021 0.5691,1.2712 1.2712 1.2712c 0.7021,0.0000 1.2712,-0.5691 1.2712 -1.2712Z"/>
  </g>
  <g stroke-linejoin="miter" stroke-opacity="1.0" fill-opacity="1.0" stroke="rgb(102,102,102)" stroke-width="0.0" fill="rgb(255,0,0)" stroke-linecap="butt" stroke-miterlimit="10.0">
    <path d="M 462.5296,39.1191 c 0.0000,-0.7021 -0.5691,-1.2712 -1.2712 -1.2712c -0.7021,-0.0000 -1.2712,0.5691 -1.2712 1.2712c -0.0000,0.7021 0.5691,1.2712 1.2712 1.2712c 0.7021,0.0000 1.2712,-0.5691 1.2712 -1.2712Z"/>
  </g>
  <g stroke-linejoin="miter" stroke-opacity="1.0" fill-opacity="1.0" stroke="rgb(102,102,102)" stroke-width="0.0" fill="rgb(255,0,0)" stroke-linecap="butt" stroke-miterlimit="10.0">
    <path d="M 459.8249,40.4096 c 0.0000,-0.7021 -0.5691,-1.2712 -1.2712 -1.2712c -0.7021,-0.0000 -1.2712,0.5691 -1.2712 1.2712c -0.0000,0.7021 0.5691,1.2712 1.2712 1.2712c 0.7021,0.0000 1.2712,-0.5691 1.2712 -1.2712Z"/>
  </g>
  <g stroke-linejoin="miter" stroke-opacity="1.0" fill-opacity="1.0" stroke="rgb(102,102,102)" stroke-width="0.0" fill="rgb(255,0,0)" stroke-linecap="butt" stroke-miterlimit="10.0">
    <path d="M 457.1203,44.2813 c 0.0000,-0.7021 -0.5691,-1.2712 -1.2712 -1.2712c -0.7021,-0.0000 -1.2712,0.5691 -1.2712 1.2712c -0.0000,0.7021 0.5691,1.2712 1.2712 1.2712c 0.7021,0.0000 1.2712,-0.5691 1.2712 -1.2712Z"/>
  </g>
  <g stroke-linejoin="miter" stroke-opacity="1.0" fill-opacity="1.0" stroke="rgb(102,102,102)" stroke-width="0.0" fill="rgb(255,0,0)" stroke-linecap="butt" stroke-miterlimit="10.0">
    <path d="M 454.4156,45.5718 c 0.0000,-0.7021 -0.5691,-1.2712 -1.2712 -1.2712c -0.7021,-0.0000 -1.2712,0.5691 -1.2712 1.2712c -0.0000,0.7021 0.5691,1.2712 1.2712 1.2712c 0.7021,0.0000 1.2712,-0.5691 1.2712 -1.2712Z"/>
  </g>
  <g stroke-linejoin="miter" stroke-opacity="1.0" fill-opacity="1.0" stroke="rgb(102,102,102)" stroke-width="0.0" fill="rgb(255,0,0)" stroke-linecap="butt" stroke-miterlimit="10.0">
    <path d="M 451.7110,46.8624 c 0.0000,-0.7021 -0.5691,-1.2712 -1.2712 -1.2712c -0.7021,-0.0000 -1.2712,0.5691 -1.2712 1.2712c -0.0000,0.7021 0.5691,1.2712 1.2712 1.2712c 0.7021,0.0000 1.2712,-0.5691 1.2712 -1.2712Z"/>
  </g>
  <g stroke-linejoin="miter" stroke-opacity="1.0" fill-opacity="1.0" stroke="rgb(102,102,102)" stroke-width="0.0" fill="rgb(255,0,0)" stroke-linecap="butt" stroke-miterlimit="10.0">
    <path d="M 449.0063,48.1529 c 0.0000,-0.7021 -0.5691,-1.2712 -1.2712 -1.2712c -0.7021,-0.0000 -1.2712,0.5691 -1.2712 1.2712c -0.0000,0.7021 0.5691,1.2712 1.2712 1.2712c 0.7021,0.0000 1.2712,-0.5691 1.2712 -1.2712Z"/>
  </g>
  <g stroke-linejoin="miter" stroke-opacity="1.0" fill-opacity="1.0" stroke="rgb(102,102,102)" stroke-width="0.0" fill="rgb(255,0,0)" stroke-linecap="butt" stroke-miterlimit="10.0">
    <path d="M 446.3017,49.4434 c 0.0000,-0.7021 -0.5691,-1.2712 -1.2712 -1.2712c -0.7021,-0.0000 -1.2712,0.5691 -1.2712 1.2712c -0.0000,0.7021 0.5691,1.2712 1.2712 1.2712c 0.7021,0.0000 1.2712,-0.5691 1.2712 -1.2712Z"/>
  </g>
  <g stroke-linejoin="miter" stroke-opacity="1.0" fill-opacity="1.0" stroke="rgb(102,102,102)" stroke-width="0.0" fill="rgb(255,0,0)" stroke-linecap="butt" stroke-miterlimit="10.0">
    <path d="M 443.5970,53.3151 c 0.0000,-0.7021 -0.5691,-1.2712 -1.2712 -1.2712c -0.7021,-0.0000 -1.2712,0.5691 -1.2712 1.2712c -0.0000,0.7021 0.5691,1.2712 1.2712 1.2712c 0.7021,0.0000 1.2712,-0.5691 1.2712 -1.2712Z"/>
  </g>
  <g stroke-linejoin="miter" stroke-opacity="1.0" fill-opacity="1.0" stroke="rgb(102,102,102)" stroke-width="0.0" fill="rgb(255,0,0)" stroke-linecap="butt" stroke-miterlimit="10.0">
    <path d="M 440.8924,54.6056 c 0.0000,-0.7021 -0.5691,-1.2712 -1.2712 -1.2712c -0.7021,-0.0000 -1.2712,0.5691 -1.2712 1.2712c -0.0000,0.7021 0.5691,1.2712 1.2712 1.2712c 0.7021,0.0000 1.2712,-0.5691 1.2712 -1.2712Z"/>
  </g>
  <g stroke-linejoin="miter" stroke-opacity="1.0" fill-opacity="1.0" stroke="rgb(102,102,102)" stroke-width="0.0" fill="rgb(255,0,0)" stroke-linecap="butt" stroke-miterlimit="10.0">
    <path d="M 438.1877,55.8962 c 0.0000,-0.7021 -0.5691,-1.2712 -1.2712 -1.2712c -0.7021,-0.0000 -1.2712,0.5691 -1.2712 1.2712c -0.0000,0.7021 0.5691,1.2712 1.2712 1.2712c 0.7021,0.0000 1.2712,-0.5691 1.2712 -1.2712Z"/>
  </g>
  <g stroke-linejoin="miter" stroke-opacity="1.0" fill-opacity="1.0" stroke="rgb(102,102,102)" stroke-width="0.0" fill="rgb(255,0,0)" stroke-linecap="butt" stroke-miterlimit="10.0">
    <path d="M 435.4831,57.1867 c 0.0000,-0.7021 -0.5691,-1.2712 -1.2712 -1.2712c -0.7021,-0.0000 -1.2712,0.5691 -1.2712 1.2712c -0.0000,0.7021 0.5691,1.2712 1.2712 1.2712c 0.7021,0.0000 1.2712,-0.5691 1.2712 -1.2712Z"/>
  </g>
  <g stroke-linejoin="miter" stroke-opacity="1.0" fill-opacity="1.0" stroke="rgb(102,102,102)" stroke-width="0.0" fill="rgb(255,0,0)" stroke-linecap="butt" stroke-miterlimit="10.0">
    <path d="M 432.7784,58.4773 c 0.0000,-0.7021 -0.5691,-1.2712 -1.2712 -1.2712c -0.7021,-0.0000 -1.2712,0.5691 -1.2712 1.2712c -0.0000,0.7021 0.5691,1.2712 1.2712 1.2712c 0.7021,0.0000 1.2712,-0.5691 1.2712 -1.2712Z"/>
  </g>
  <g stroke-linejoin="miter" stroke-opacity="1.0" fill-opacity="1.0" stroke="rgb(102,102,102)" stroke-width="0.0" fill="rgb(255,0,0)" stroke-linecap="butt" stroke-miterlimit="10.0">
    <path d="M 430.0738,62.3489 c 0.0000,-0.7021 -0.5691,-1.2712 -1.2712 -1.2712c -0.7021,-0.0000 -1.2712,0.5691 -1.2712 1.2712c -0.0000,0.7021 0.5691,1.2712 1.2712 1.2712c 0.7021,0.0000 1.2712,-0.5691 1.2712 -1.2712Z"/>
  </g>
  <g stroke-linejoin="miter" stroke-opacity="1.0" fill-opacity="1.0" stroke="rgb(102,102,102)" stroke-width="0.0" fill="rgb(255,0,0)" stroke-linecap="butt" stroke-miterlimit="10.0">
    <path d="M 427.3691,63.6394 c 0.0000,-0.7021 -0.5691,-1.2712 -1.2712 -1.2712c -0.7021,-0.0000 -1.2712,0.5691 -1.2712 1.2712c -0.0000,0.7021 0.5691,1.2712 1.2712 1.2712c 0.7021,0.0000 1.2712,-0.5691 1.2712 -1.2712Z"/>
  </g>
  <g stroke-linejoin="miter" stroke-opacity="1.0" fill-opacity="1.0" stroke="rgb(102,102,102)" stroke-width="0.0" fill="rgb(255,0,0)" stroke-linecap="butt" stroke-miterlimit="10.0">
    <path d="M 424.6645,64.9300 c 0.0000,-0.7021 -0.5691,-1.2712 -1.2712 -1.2712c -0.7021,-0.0000 -1.2712,0.5691 -1.2712 1.2712c -0.0000,0.7021 0.5691,1.2712 1.2712 1.2712c 0.7021,0.0000 1.2712,-0.5691 1.2712 -1.2712Z"/>
  </g>
  <g stroke-linejoin="miter" stroke-opacity="1.0" fill-opacity="1.0" stroke="rgb(102,102,102)" stroke-width="0.0" fill="rgb(255,0,0)" stroke-linecap="butt" stroke-miterlimit="10.0">
    <path d="M 421.9598,66.2205 c 0.0000,-0.7021 -0.5691,-1.2712 -1.2712 -1.2712c -0.7021,-0.0000 -1.2712,0.5691 -1.2712 1.2712c -0.0000,0.7021 0.5691,1.2712 1.2712 1.2712c 0.7021,0.0000 1.2712,-0.5691 1.2712 -1.2712Z"/>
  </g>
  <g stroke-linejoin="miter" stroke-opacity="1.0" fill-opacity="1.0" stroke="rgb(102,102,102)" stroke-width="0.0" fill="rgb(255,0,0)" stroke-linecap="butt" stroke-miterlimit="10.0">
    <path d="M 419.2552,67.5111 c 0.0000,-0.7021 -0.5691,-1.2712 -1.2712 -1.2712c -0.7021,-0.0000 -1.2712,0.5691 -1.2712 1.2712c -0.0000,0.7021 0.5691,1.2712 1.2712 1.2712c 0.7021,0.0000 1.2712,-0.5691 1.2712 -1.2712Z"/>
  </g>
  <g stroke-linejoin="miter" stroke-opacity="1.0" fill-opacity="1.0" stroke="rgb(102,102,102)" stroke-width="0.0" fill="rgb(255,0,0)" stroke-linecap="butt" stroke-miterlimit="10.0">
    <path d="M 416.5505,71.3827 c 0.0000,-0.7021 -0.5691,-1.2712 -1.2712 -1.2712c -0.7021,-0.0000 -1.2712,0.5691 -1.2712 1.2712c -0.0000,0.7021 0.5691,1.2712 1.2712 1.2712c 0.7021,0.0000 1.2712,-0.5691 1.2712 -1.2712Z"/>
  </g>
  <g stroke-linejoin="miter" stroke-opacity="1.0" fill-opacity="1.0" stroke="rgb(102,102,102)" stroke-width="0.0" fill="rgb(255,0,0)" stroke-linecap="butt" stroke-miterlimit="10.0">
    <path d="M 413.8459,72.6732 c 0.0000,-0.7021 -0.5691,-1.2712 -1.2712 -1.2712c -0.7021,-0.0000 -1.2712,0.5691 -1.2712 1.2712c -0.0000,0.7021 0.5691,1.2712 1.2712 1.2712c 0.7021,0.0000 1.2712,-0.5691 1.2712 -1.2712Z"/>
  </g>
  <g stroke-linejoin="miter" stroke-opacity="1.0" fill-opacity="1.0" stroke="rgb(102,102,102)" stroke-width="0.0" fill="rgb(255,0,0)" stroke-linecap="butt" stroke-miterlimit="10.0">
    <path d="M 411.1412,73.9638 c 0.0000,-0.7021 -0.5691,-1.2712 -1.2712 -1.2712c -0.7021,-0.0000 -1.2712,0.5691 -1.2712 1.2712c -0.0000,0.7021 0.5691,1.2712 1.2712 1.2712c 0.7021,0.0000 1.2712,-0.5691 1.2712 -1.2712Z"/>
  </g>
  <g stroke-linejoin="miter" stroke-opacity="1.0" fill-opacity="1.0" stroke="rgb(102,102,102)" stroke-width="0.0" fill="rgb(255,0,0)" stroke-linecap="butt" stroke-miterlimit="10.0">
    <path d="M 408.4366,75.2543 c 0.0000,-0.7021 -0.5691,-1.2712 -1.2712 -1.2712c -0.7021,-0.0000 -1.2712,0.5691 -1.2712 1.2712c -0.0000,0.7021 0.5691,1.2712 1.2712 1.2712c 0.7021,0.0000 1.2712,-0.5691 1.2712 -1.2712Z"/>
  </g>
  <g stroke-linejoin="miter" stroke-opacity="1.0" fill-opacity="1.0" stroke="rgb(102,102,102)" stroke-width="0.0" fill="rgb(255,0,0)" stroke-linecap="butt" stroke-miterlimit="10.0">
    <path d="M 405.7319,76.5449 c 0.0000,-0.7021 -0.5691,-1.2712 -1.2712 -1.2712c -0.7021,-0.0000 -1.2712,0.5691 -1.2712 1.2712c -0.0000,0.7021 0.5691,1.2712 1.2712 1.2712c 0.7021,0.0000 1.2712,-0.5691 1.2712 -1.2712Z"/>
  </g>
  <g stroke-linejoin="miter" stroke-opacity="1.0" fill-opacity="1.0" stroke="rgb(102,102,102)" stroke-width="0.0" fill="rgb(255,0,0)" stroke-linecap="butt" stroke-miterlimit="10.0">
    <path d="M 403.0272,80.4165 c 0.0000,-0.7021 -0.5691,-1.2712 -1.2712 -1.2712c -0.7021,-0.0000 -1.2712,0.5691 -1.2712 1.2712c -0.0000,0.7021 0.5691,1.2712 1.2712 1.2712c 0.7021,0.0000 1.2712,-0.5691 1.2712 -1.2712Z"/>
  </g>
  <g stroke-linejoin="miter" stroke-opacity="1.0" fill-opacity="1.0" stroke="rgb(102,102,102)" stroke-width="0.0" fill="rgb(255,0,0)" stroke-linecap="butt" stroke-miterlimit="10.0">
    <path d="M 400.3226,81.7071 c 0.0000,-0.7021 -0.5691,-1.2712 -1.2712 -1.2712c -0.7021,-0.0000 -1.2712,0.5691 -1.2712 1.2712c -0.0000,0.7021 0.5691,1.2712 1.2712 1.2712c 0.7021,0.0000 1.2712,-0.5691 1.2712 -1.2712Z"/>
  </g>
  <g stroke-linejoin="miter" stroke-opacity="1.0" fill-opacity="1.0" stroke="rgb(102,102,102)" stroke-width="0.0" fill="rgb(255,0,0)" stroke-linecap="butt" stroke-miterlimit="10.0">
    <path d="M 397.6179,82.9976 c 0.0000,-0.7021 -0.5691,-1.2712 -1.2712 -1.2712c -0.7021,-0.0000 -1.2712,0.5691 -1.2712 1.2712c -0.0000,0.7021 0.5691,1.2712 1.2712 1.2712c 0.7021,0.0000 1.2712,-0.5691 1.2712 -1.2712Z"/>
  </g>
  <g stroke-linejoin="miter" stroke-opacity="1.0" fill-opacity="1.0" stroke="rgb(102,102,102)" stroke-width="0.0" fill="rgb(255,0,0)" stroke-linecap="butt" stroke-miterlimit="10.0">
    <path d="M 394.9133,84.2881 c 0.0000,-0.7021 -0.5691,-1.2712 -1.2712 -1.2712c -0.7021,-0.0000 -1.2712,0.5691 -1.2712 1.2712c -0.0000,0.7021 0.5691,1.2712 1.2712 1.2712c 0.7021,0.0000 1.2712,-0.5691 1.2712 -1.2712Z"/>
  </g>
  <g stroke-linejoin="miter" stroke-opacity="1.0" fill-opacity="1.0" stroke="rgb(102,102,102)" stroke-width="0.0" fill="rgb(255,0,0)" stroke-linecap="butt" stroke-miterlimit="10.0">
    <path d="M 392.2086,85.5787 c 0.0000,-0.7021 -0.5691,-1.2712 -1.2712 -1.2712c -0.7021,-0.0000 -1.2712,0.5691 -1.2712 1.2712c -0.0000,0.7021 0.5691,1.2712 1.2712 1.2712c 0.7021,0.0000 1.2712,-0.5691 1.2712 -1.2712Z"/>
  </g>
  <g stroke-linejoin="miter" stroke-opacity="1.0" fill-opacity="1.0" stroke="rgb(102,102,102)" stroke-width="0.0" fill="rgb(255,0,0)" stroke-linecap="butt" stroke-miterlimit="10.0">
    <path d="M 389.5040,89.4503 c 0.0000,-0.7021 -0.5691,-1.2712 -1.2712 -1.2712c -0.7021,-0.0000 -1.2712,0.5691 -1.2712 1.2712c -0.0000,0.7021 0.5691,1.2712 1.2712 1.2712c 0.7021,0.0000 1.2712,-0.5691 1.2712 -1.2712Z"/>
  </g>
  <g stroke-linejoin="miter" stroke-opacity="1.0" fill-opacity="1.0" stroke="rgb(102,102,102)" stroke-width="0.0" fill="rgb(255,0,0)" stroke-linecap="butt" stroke-miterlimit="10.0">
    <path d="M 386.7993,90.7409 c 0.0000,-0.7021 -0.5691,-1.2712 -1.2712 -1.2712c -0.7021,-0.0000 -1.2712,0.5691 -1.2712 1.2712c -0.0000,0.7021 0.5691,1.2712 1.2712 1.2712c 0.7021,0.0000 1.2712,-0.5691 1.2712 -1.2712Z"/>
  </g>
  <g stroke-linejoin="miter" stroke-opacity="1.0" fill-opacity="1.0" stroke="rgb(102,102,102)" stroke-width="0.0" fill="rgb(255,0,0)" stroke-linecap="butt" stroke-miterlimit="10.0">
    <path d="M 384.0947,92.0314 c 0.0000,-0.7021 -0.5691,-1.2712 -1.2712 -1.2712c -0.7021,-0.0000 -1.2712,0.5691 -1.2712 1.2712c -0.0000,0.7021 0.5691,1.2712 1.2712 1.2712c 0.7021,0.0000 1.2712,-0.5691 1.2712 -1.2712Z"/>
  </g>
  <g stroke-linejoin="miter" stroke-opacity="1.0" fill-opacity="1.0" stroke="rgb(102,102,102)" stroke-width="0.0" fill="rgb(255,0,0)" stroke-linecap="butt" stroke-miterlimit="10.0">
    <path d="M 381.3900,93.3220 c 0.0000,-0.7021 -0.5691,-1.2712 -1.2712 -1.2712c -0.7021,-0.0000 -1.2712,0.5691 -1.2712 1.2712c -0.0000,0.7021 0.5691,1.2712 1.2712 1.2712c 0.7021,0.0000 1.2712,-0.5691 1.2712 -1.2712Z"/>
  </g>
  <g stroke-linejoin="miter" stroke-opacity="1.0" fill-opacity="1.0" stroke="rgb(102,102,102)" stroke-width="0.0" fill="rgb(255,0,0)" stroke-linecap="butt" stroke-miterlimit="10.0">
    <path d="M 378.6854,94.6125 c 0.0000,-0.7021 -0.5691,-1.2712 -1.2712 -1.2712c -0.7021,-0.0000 -1.2712,0.5691 -1.2712 1.2712c -0.0000,0.7021 0.5691,1.2712 1.2712 1.2712c 0.7021,0.0000 1.2712,-0.5691 1.2712 -1.2712Z"/>
  </g>
  <g stroke-linejoin="miter" stroke-opacity="1.0" fill-opacity="1.0" stroke="rgb(102,102,102)" stroke-width="0.0" fill="rgb(255,0,0)" stroke-linecap="butt" stroke-miterlimit="10.0">
    <path d="M 375.9807,98.4841 c 0.0000,-0.7021 -0.5691,-1.2712 -1.2712 -1.2712c -0.7021,-0.0000 -1.2712,0.5691 -1.2712 1.2712c -0.0000,0.7021 0.5691,1.2712 1.2712 1.2712c 0.7021,0.0000 1.2712,-0.5691 1.2712 -1.2712Z"/>
  </g>
  <g stroke-linejoin="miter" stroke-opacity="1.0" fill-opacity="1.0" stroke="rgb(102,102,102)" stroke-width="0.0" fill="rgb(255,0,0)" stroke-linecap="butt" stroke-miterlimit="10.0">
    <path d="M 373.2761,99.7747 c 0.0000,-0.7021 -0.5691,-1.2712 -1.2712 -1.2712c -0.7021,-0.0000 -1.2712,0.5691 -1.2712 1.2712c -0.0000,0.7021 0.5691,1.2712 1.2712 1.2712c 0.7021,0.0000 1.2712,-0.5691 1.2712 -1.2712Z"/>
  </g>
  <g stroke-linejoin="miter" stroke-opacity="1.0" fill-opacity="1.0" stroke="rgb(102,102,102)" stroke-width="0.0" fill="rgb(255,0,0)" stroke-linecap="butt" stroke-miterlimit="10.0">
    <path d="M 370.5714,101.0652 c 0.0000,-0.7021 -0.5691,-1.2712 -1.2712 -1.2712c -0.7021,-0.0000 -1.2712,0.5691 -1.2712 1.2712c -0.0000,0.7021 0.5691,1.2712 1.2712 1.2712c 0.7021,0.0000 1.2712,-0.5691 1.2712 -1.2712Z"/>
  </g>
  <g stroke-linejoin="miter" stroke-opacity="1.0" fill-opacity="1.0" stroke="rgb(102,102,102)" stroke-width="0.0" fill="rgb(255,0,0)" stroke-linecap="butt" stroke-miterlimit="10.0">
    <path d="M 367.8668,102.3558 c 0.0000,-0.7021 -0.5691,-1.2712 -1.2712 -1.2712c -0.7021,-0.0000 -1.2712,0.5691 -1.2712 1.2712c -0.0000,0.7021 0.5691,1.2712 1.2712 1.2712c 0.7021,0.0000 1.2712,-0.5691 1.2712 -1.2712Z"/>
  </g>
  <g stroke-linejoin="miter" stroke-opacity="1.0" fill-opacity="1.0" stroke="rgb(102,102,102)" stroke-width="0.0" fill="rgb(255,0,0)" stroke-linecap="butt" stroke-miterlimit="10.0">
    <path d="M 365.1621,103.6463 c 0.0000,-0.7021 -0.5691,-1.2712 -1.2712 -1.2712c -0.7021,-0.0000 -1.2712,0.5691 -1.2712 1.2712c -0.0000,0.7021 0.5691,1.2712 1.2712 1.2712c 0.7021,0.0000 1.2712,-0.5691 1.2712 -1.2712Z"/>
  </g>
  <g stroke-linejoin="miter" stroke-opacity="1.0" fill-opacity="1.0" stroke="rgb(102,102,102)" stroke-width="0.0" fill="rgb(255,0,0)" stroke-linecap="butt" stroke-miterlimit="10.0">
    <path d="M 362.4575,107.5179 c 0.0000,-0.7021 -0.5691,-1.2712 -1.2712 -1.2712c -0.7021,-0.0000 -1.2712,0.5691 -1.2712 1.2712c -0.0000,0.7021 0.5691,1.2712 1.2712 1.2712c 0.7021,0.0000 1.2712,-0.5691 1.2712 -1.2712Z"/>
  </g>
  <g stroke-linejoin="miter" stroke-opacity="1.0" fill-opacity="1.0" stroke="rgb(102,102,102)" stroke-width="0.0" fill="rgb(255,0,0)" stroke-linecap="butt" stroke-miterlimit="10.0">
    <path d="M 359.7528,108.8085 c 0.0000,-0.7021 -0.5691,-1.2712 -1.2712 -1.2712c -0.7021,-0.0000 -1.2712,0.5691 -1.2712 1.2712c -0.0000,0.7021 0.5691,1.2712 1.2712 1.2712c 0.7021,0.0000 1.2712,-0.5691 1.2712 -1.2712Z"/>
  </g>
  <g stroke-linejoin="miter" stroke-opacity="1.0" fill-opacity="1.0" stroke="rgb(102,102,102)" stroke-width="0.0" fill="rgb(255,0,0)" stroke-linecap="butt" stroke-miterlimit="10.0">
    <path d="M 357.0482,110.0990 c 0.0000,-0.7021 -0.5691,-1.2712 -1.2712 -1.2712c -0.7021,-0.0000 -1.2712,0.5691 -1.2712 1.2712c -0.0000,0.7021 0.5691,1.2712 1.2712 1.2712c 0.7021,0.0000 1.2712,-0.5691 1.2712 -1.2712Z"/>
  </g>
  <g stroke-linejoin="miter" stroke-opacity="1.0" fill-opacity="1.0" stroke="rgb(102,102,102)" stroke-width="0.0" fill="rgb(255,0,0)" stroke-linecap="butt" stroke-miterlimit="10.0">
    <path d="M 354.3435,111.3896 c 0.0000,-0.7021 -0.5691,-1.2712 -1.2712 -1.2712c -0.7021,-0.0000 -1.2712,0.5691 -1.2712 1.2712c -0.0000,0.7021 0.5691,1.2712 1.2712 1.2712c 0.7021,0.0000 1.2712,-0.5691 1.2712 -1.2712Z"/>
  </g>
  <g stroke-linejoin="miter" stroke-opacity="1.0" fill-opacity="1.0" stroke="rgb(102,102,102)" stroke-width="0.0" fill="rgb(255,0,0)" stroke-linecap="butt" stroke-miterlimit="10.0">
    <path d="M 351.6389,112.6801 c 0.0000,-0.7021 -0.5691,-1.2712 -1.2712 -1.2712c -0.7021,-0.0000 -1.2712,0.5691 -1.2712 1.2712c -0.0000,0.7021 0.5691,1.2712 1.2712 1.2712c 0.7021,0.0000 1.2712,-0.5691 1.2712 -1.2712Z"/>
  </g>
  <g stroke-linejoin="miter" stroke-opacity="1.0" fill-opacity="1.0" stroke="rgb(102,102,102)" stroke-width="0.0" fill="rgb(255,0,0)" stroke-linecap="butt" stroke-miterlimit="10.0">
    <path d="M 348.9342,116.5518 c 0.0000,-0.7021 -0.5691,-1.2712 -1.2712 -1.2712c -0.7021,-0.0000 -1.2712,0.5691 -1.2712 1.2712c -0.0000,0.7021 0.5691,1.2712 1.2712 1.2712c 0.7021,0.0000 1.2712,-0.5691 1.2712 -1.2712Z"/>
  </g>
  <g stroke-linejoin="miter" stroke-opacity="1.0" fill-opacity="1.0" stroke="rgb(102,102,102)" stroke-width="0.0" fill="rgb(255,0,0)" stroke-linecap="butt" stroke-miterlimit="10.0">
    <path d="M 346.2296,117.8423 c 0.0000,-0.7021 -0.5691,-1.2712 -1.2712 -1.2712c -0.7021,-0.0000 -1.2712,0.5691 -1.2712 1.2712c -0.0000,0.7021 0.5691,1.2712 1.2712 1.2712c 0.7021,0.0000 1.2712,-0.5691 1.2712 -1.2712Z"/>
  </g>
  <g stroke-linejoin="miter" stroke-opacity="1.0" fill-opacity="1.0" stroke="rgb(102,102,102)" stroke-width="0.0" fill="rgb(255,0,0)" stroke-linecap="butt" stroke-miterlimit="10.0">
    <path d="M 343.5249,119.1328 c 0.0000,-0.7021 -0.5691,-1.2712 -1.2712 -1.2712c -0.7021,-0.0000 -1.2712,0.5691 -1.2712 1.2712c -0.0000,0.7021 0.5691,1.2712 1.2712 1.2712c 0.7021,0.0000 1.2712,-0.5691 1.2712 -1.2712Z"/>
  </g>
  <g stroke-linejoin="miter" stroke-opacity="1.0" fill-opacity="1.0" stroke="rgb(102,102,102)" stroke-width="0.0" fill="rgb(255,0,0)" stroke-linecap="butt" stroke-miterlimit="10.0">
    <path d="M 340.8203,120.4234 c 0.0000,-0.7021 -0.5691,-1.2712 -1.2712 -1.2712c -0.7021,-0.0000 -1.2712,0.5691 -1.2712 1.2712c -0.0000,0.7021 0.5691,1.2712 1.2712 1.2712c 0.7021,0.0000 1.2712,-0.5691 1.2712 -1.2712Z"/>
  </g>
  <g stroke-linejoin="miter" stroke-opacity="1.0" fill-opacity="1.0" stroke="rgb(102,102,102)" stroke-width="0.0" fill="rgb(255,0,0)" stroke-linecap="butt" stroke-miterlimit="10.0">
    <path d="M 338.1156,121.7139 c 0.0000,-0.7021 -0.5691,-1.2712 -1.2712 -1.2712c -0.7021,-0.0000 -1.2712,0.5691 -1.2712 1.2712c -0.0000,0.7021 0.5691,1.2712 1.2712 1.2712c 0.7021,0.0000 1.2712,-0.5691 1.2712 -1.2712Z"/>
  </g>
  <g stroke-linejoin="miter" stroke-opacity="1.0" fill-opacity="1.0" stroke="rgb(102,102,102)" stroke-width="0.0" fill="rgb(255,0,0)" stroke-linecap="butt" stroke-miterlimit="10.0">
    <path d="M 335.4110,125.5856 c 0.0000,-0.7021 -0.5691,-1.2712 -1.2712 -1.2712c -0.7021,-0.0000 -1.2712,0.5691 -1.2712 1.2712c -0.0000,0.7021 0.5691,1.2712 1.2712 1.2712c 0.7021,0.0000 1.2712,-0.5691 1.2712 -1.2712Z"/>
  </g>
  <g stroke-linejoin="miter" stroke-opacity="1.0" fill-opacity="1.0" stroke="rgb(102,102,102)" stroke-width="0.0" fill="rgb(255,0,0)" stroke-linecap="butt" stroke-miterlimit="10.0">
    <path d="M 332.7063,126.8761 c 0.0000,-0.7021 -0.5691,-1.2712 -1.2712 -1.2712c -0.7021,-0.0000 -1.2712,0.5691 -1.2712 1.2712c -0.0000,0.7021 0.5691,1.2712 1.2712 1.2712c 0.7021,0.0000 1.2712,-0.5691 1.2712 -1.2712Z"/>
  </g>
  <g stroke-linejoin="miter" stroke-opacity="1.0" fill-opacity="1.0" stroke="rgb(102,102,102)" stroke-width="0.0" fill="rgb(255,0,0)" stroke-linecap="butt" stroke-miterlimit="10.0">
    <path d="M 330.0017,128.1667 c 0.0000,-0.7021 -0.5691,-1.2712 -1.2712 -1.2712c -0.7021,-0.0000 -1.2712,0.5691 -1.2712 1.2712c -0.0000,0.7021 0.5691,1.2712 1.2712 1.2712c 0.7021,0.0000 1.2712,-0.5691 1.2712 -1.2712Z"/>
  </g>
  <g stroke-linejoin="miter" stroke-opacity="1.0" fill-opacity="1.0" stroke="rgb(102,102,102)" stroke-width="0.0" fill="rgb(255,0,0)" stroke-linecap="butt" stroke-miterlimit="10.0">
    <path d="M 327.2970,129.4572 c 0.0000,-0.7021 -0.5691,-1.2712 -1.2712 -1.2712c -0.7021,-0.0000 -1.2712,0.5691 -1.2712 1.2712c -0.0000,0.7021 0.5691,1.2712 1.2712 1.2712c 0.7021,0.0000 1.2712,-0.5691 1.2712 -1.2712Z"/>
  </g>
  <g stroke-linejoin="miter" stroke-opacity="1.0" fill-opacity="1.0" stroke="rgb(102,102,102)" stroke-width="0.0" fill="rgb(255,0,0)" stroke-linecap="butt" stroke-miterlimit="10.0">
    <path d="M 324.5923,130.7477 c 0.0000,-0.7021 -0.5691,-1.2712 -1.2712 -1.2712c -0.7021,-0.0000 -1.2712,0.5691 -1.2712 1.2712c -0.0000,0.7021 0.5691,1.2712 1.2712 1.2712c 0.7021,0.0000 1.2712,-0.5691 1.2712 -1.2712Z"/>
  </g>
  <g stroke-linejoin="miter" stroke-opacity="1.0" fill-opacity="1.0" stroke="rgb(102,102,102)" stroke-width="0.0" fill="rgb(255,0,0)" stroke-linecap="butt" stroke-miterlimit="10.0">
    <path d="M 321.8877,134.6194 c 0.0000,-0.7021 -0.5691,-1.2712 -1.2712 -1.2712c -0.7021,-0.0000 -1.2712,0.5691 -1.2712 1.2712c -0.0000,0.7021 0.5691,1.2712 1.2712 1.2712c 0.7021,0.0000 1.2712,-0.5691 1.2712 -1.2712Z"/>
  </g>
  <g stroke-linejoin="miter" stroke-opacity="1.0" fill-opacity="1.0" stroke="rgb(102,102,102)" stroke-width="0.0" fill="rgb(255,0,0)" stroke-linecap="butt" stroke-miterlimit="10.0">
    <path d="M 319.1830,135.9099 c 0.0000,-0.7021 -0.5691,-1.2712 -1.2712 -1.2712c -0.7021,-0.0000 -1.2712,0.5691 -1.2712 1.2712c -0.0000,0.7021 0.5691,1.2712 1.2712 1.2712c 0.7021,0.0000 1.2712,-0.5691 1.2712 -1.2712Z"/>
  </g>
  <g stroke-linejoin="miter" stroke-opacity="1.0" fill-opacity="1.0" stroke="rgb(102,102,102)" stroke-width="0.0" fill="rgb(255,0,0)" stroke-linecap="butt" stroke-miterlimit="10.0">
    <path d="M 316.4784,137.2005 c 0.0000,-0.7021 -0.5691,-1.2712 -1.2712 -1.2712c -0.7021,-0.0000 -1.2712,0.5691 -1.2712 1.2712c -0.0000,0.7021 0.5691,1.2712 1.2712 1.2712c 0.7021,0.0000 1.2712,-0.5691 1.2712 -1.2712Z"/>
  </g>
  <g stroke-linejoin="miter" stroke-opacity="1.0" fill-opacity="1.0" stroke="rgb(102,102,102)" stroke-width="0.0" fill="rgb(255,0,0)" stroke-linecap="butt" stroke-miterlimit="10.0">
    <path d="M 313.7737,138.4910 c 0.0000,-0.7021 -0.5691,-1.2712 -1.2712 -1.2712c -0.7021,-0.0000 -1.2712,0.5691 -1.2712 1.2712c -0.0000,0.7021 0.5691,1.2712 1.2712 1.2712c 0.7021,0.0000 1.2712,-0.5691 1.2712 -1.2712Z"/>
  </g>
  <g stroke-linejoin="miter" stroke-opacity="1.0" fill-opacity="1.0" stroke="rgb(102,102,102)" stroke-width="0.0" fill="rgb(255,0,0)" stroke-linecap="butt" stroke-miterlimit="10.0">
    <path d="M 311.0691,139.7816 c 0.0000,-0.7021 -0.5691,-1.2712 -1.2712 -1.2712c -0.7021,-0.0000 -1.2712,0.5691 -1.2712 1.2712c -0.0000,0.7021 0.5691,1.2712 1.2712 1.2712c 0.7021,0.0000 1.2712,-0.5691 1.2712 -1.2712Z"/>
  </g>
  <g stroke-linejoin="miter" stroke-opacity="1.0" fill-opacity="1.0" stroke="rgb(102,102,102)" stroke-width="0.0" fill="rgb(255,0,0)" stroke-linecap="butt" stroke-miterlimit="10.0">
    <path d="M 308.3644,143.6532 c 0.0000,-0.7021 -0.5691,-1.2712 -1.2712 -1.2712c -0.7021,-0.0000 -1.2712,0.5691 -1.2712 1.2712c -0.0000,0.7021 0.5691,1.2712 1.2712 1.2712c 0.7021,0.0000 1.2712,-0.5691 1.2712 -1.2712Z"/>
  </g>
  <g stroke-linejoin="miter" stroke-opacity="1.0" fill-opacity="1.0" stroke="rgb(102,102,102)" stroke-width="0.0" fill="rgb(255,0,0)" stroke-linecap="butt" stroke-miterlimit="10.0">
    <path d="M 305.6598,144.9437 c 0.0000,-0.7021 -0.5691,-1.2712 -1.2712 -1.2712c -0.7021,-0.0000 -1.2712,0.5691 -1.2712 1.2712c -0.0000,0.7021 0.5691,1.2712 1.2712 1.2712c 0.7021,0.0000 1.2712,-0.5691 1.2712 -1.2712Z"/>
  </g>
  <g stroke-linejoin="miter" stroke-opacity="1.0" fill-opacity="1.0" stroke="rgb(102,102,102)" stroke-width="0.0" fill="rgb(255,0,0)" stroke-linecap="butt" stroke-miterlimit="10.0">
    <path d="M 302.9551,146.2343 c 0.0000,-0.7021 -0.5691,-1.2712 -1.2712 -1.2712c -0.7021,-0.0000 -1.2712,0.5691 -1.2712 1.2712c -0.0000,0.7021 0.5691,1.2712 1.2712 1.2712c 0.7021,0.0000 1.2712,-0.5691 1.2712 -1.2712Z"/>
  </g>
  <g stroke-linejoin="miter" stroke-opacity="1.0" fill-opacity="1.0" stroke="rgb(102,102,102)" stroke-width="0.0" fill="rgb(255,0,0)" stroke-linecap="butt" stroke-miterlimit="10.0">
    <path d="M 300.2505,147.5248 c 0.0000,-0.7021 -0.5691,-1.2712 -1.2712 -1.2712c -0.7021,-0.0000 -1.2712,0.5691 -1.2712 1.2712c -0.0000,0.7021 0.5691,1.2712 1.2712 1.2712c 0.7021,0.0000 1.2712,-0.5691 1.2712 -1.2712Z"/>
  </g>
  <g stroke-linejoin="miter" stroke-opacity="1.0" fill-opacity="1.0" stroke="rgb(102,102,102)" stroke-width="0.0" fill="rgb(255,0,0)" stroke-linecap="butt" stroke-miterlimit="10.0">
    <path d="M 297.5458,148.8154 c 0.0000,-0.7021 -0.5691,-1.2712 -1.2712 -1.2712c -0.7021,-0.0000 -1.2712,0.5691 -1.2712 1.2712c -0.0000,0.7021 0.5691,1.2712 1.2712 1.2712c 0.7021,0.0000 1.2712,-0.5691 1.2712 -1.2712Z"/>
  </g>
  <g stroke-linejoin="miter" stroke-opacity="1.0" fill-opacity="1.0" stroke="rgb(102,102,102)" stroke-width="0.0" fill="rgb(255,0,0)" stroke-linecap="butt" stroke-miterlimit="10.0">
    <path d="M 294.8412,152.6870 c 0.0000,-0.7021 -0.5691,-1.2712 -1.2712 -1.2712c -0.7021,-0.0000 -1.2712,0.5691 -1.2712 1.2712c -0.0000,0.7021 0.5691,1.2712 1.2712 1.2712c 0.7021,0.0000 1.2712,-0.5691 1.2712 -1.2712Z"/>
  </g>
  <g stroke-linejoin="miter" stroke-opacity="1.0" fill-opacity="1.0" stroke="rgb(102,102,102)" stroke-width="0.0" fill="rgb(255,0,0)" stroke-linecap="butt" stroke-miterlimit="10.0">
    <path d="M 292.1365,153.9775 c 0.0000,-0.7021 -0.5691,-1.2712 -1.2712 -1.2712c -0.7021,-0.0000 -1.2712,0.5691 -1.2712 1.2712c -0.0000,0.7021 0.5691,1.2712 1.2712 1.2712c 0.7021,0.0000 1.2712,-0.5691 1.2712 -1.2712Z"/>
  </g>
  <g stroke-linejoin="miter" stroke-opacity="1.0" fill-opacity="1.0" stroke="rgb(102,102,102)" stroke-width="0.0" fill="rgb(255,0,0)" stroke-linecap="butt" stroke-miterlimit="10.0">
    <path d="M 289.4319,155.2681 c 0.0000,-0.7021 -0.5691,-1.2712 -1.2712 -1.2712c -0.7021,-0.0000 -1.2712,0.5691 -1.2712 1.2712c -0.0000,0.7021 0.5691,1.2712 1.2712 1.2712c 0.7021,0.0000 1.2712,-0.5691 1.2712 -1.2712Z"/>
  </g>
  <g stroke-linejoin="miter" stroke-opacity="1.0" fill-opacity="1.0" stroke="rgb(102,102,102)" stroke-width="0.0" fill="rgb(255,0,0)" stroke-linecap="butt" stroke-miterlimit="10.0">
    <path d="M 286.7272,156.5586 c 0.0000,-0.7021 -0.5691,-1.2712 -1.2712 -1.2712c -0.7021,-0.0000 -1.2712,0.5691 -1.2712 1.2712c -0.0000,0.7021 0.5691,1.2712 1.2712 1.2712c 0.7021,0.0000 1.2712,-0.5691 1.2712 -1.2712Z"/>
  </g>
  <g stroke-linejoin="miter" stroke-opacity="1.0" fill-opacity="1.0" stroke="rgb(102,102,102)" stroke-width="0.0" fill="rgb(255,0,0)" stroke-linecap="butt" stroke-miterlimit="10.0">
    <path d="M 284.0226,157.8492 c 0.0000,-0.7021 -0.5691,-1.2712 -1.2712 -1.2712c -0.7021,-0.0000 -1.2712,0.5691 -1.2712 1.2712c -0.0000,0.7021 0.5691,1.2712 1.2712 1.2712c 0.7021,0.0000 1.2712,-0.5691 1.2712 -1.2712Z"/>
  </g>
  <g stroke-linejoin="miter" stroke-opacity="1.0" fill-opacity="1.0" stroke="rgb(102,102,102)" stroke-width="0.0" fill="rgb(255,0,0)" stroke-linecap="butt" stroke-miterlimit="10.0">
    <path d="M 281.3179,161.7208 c 0.0000,-0.7021 -0.5691,-1.2712 -1.2712 -1.2712c -0.7021,-0.0000 -1.2712,0.5691 -1.2712 1.2712c -0.0000,0.7021 0.5691,1.2712 1.2712 1.2712c 0.7021,0.0000 1.2712,-0.5691 1.2712 -1.2712Z"/>
  </g>
  <g stroke-linejoin="miter" stroke-opacity="1.0" fill-opacity="1.0" stroke="rgb(102,102,102)" stroke-width="0.0" fill="rgb(255,0,0)" stroke-linecap="butt" stroke-miterlimit="10.0">
    <path d="M 278.6133,163.0114 c 0.0000,-0.7021 -0.5691,-1.2712 -1.2712 -1.2712c -0.7021,-0.0000 -1.2712,0.5691 -1.2712 1.2712c -0.0000,0.7021 0.5691,1.2712 1.2712 1.2712c 0.7021,0.0000 1.2712,-0.5691 1.2712 -1.2712Z"/>
  </g>
  <g stroke-linejoin="miter" stroke-opacity="1.0" fill-opacity="1.0" stroke="rgb(102,102,102)" stroke-width="0.0" fill="rgb(255,0,0)" stroke-linecap="butt" stroke-miterlimit="10.0">
    <path d="M 275.9086,164.3019 c 0.0000,-0.7021 -0.5691,-1.2712 -1.2712 -1.2712c -0.7021,-0.0000 -1.2712,0.5691 -1.2712 1.2712c -0.0000,0.7021 0.5691,1.2712 1.2712 1.2712c 0.7021,0.0000 1.2712,-0.5691 1.2712 -1.2712Z"/>
  </g>
  <g stroke-linejoin="miter" stroke-opacity="1.0" fill-opacity="1.0" stroke="rgb(102,102,102)" stroke-width="0.0" fill="rgb(255,0,0)" stroke-linecap="butt" stroke-miterlimit="10.0">
    <path d="M 273.2040,165.5924 c 0.0000,-0.7021 -0.5691,-1.2712 -1.2712 -1.2712c -0.7021,-0.0000 -1.2712,0.5691 -1.2712 1.2712c -0.0000,0.7021 0.5691,1.2712 1.2712 1.2712c 0.7021,0.0000 1.2712,-0.5691 1.2712 -1.2712Z"/>
  </g>
  <g stroke-linejoin="miter" stroke-opacity="1.0" fill-opacity="1.0" stroke="rgb(102,102,102)" stroke-width="0.0" fill="rgb(255,0,0)" stroke-linecap="butt" stroke-miterlimit="10.0">
    <path d="M 270.4993,166.8830 c 0.0000,-0.7021 -0.5691,-1.2712 -1.2712 -1.2712c -0.7021,-0.0000 -1.2712,0.5691 -1.2712 1.2712c -0.0000,0.7021 0.5691,1.2712 1.2712 1.2712c 0.7021,0.0000 1.2712,-0.5691 1.2712 -1.2712Z"/>
  </g>
  <g stroke-linejoin="miter" stroke-opacity="1.0" fill-opacity="1.0" stroke="rgb(102,102,102)" stroke-width="0.0" fill="rgb(255,0,0)" stroke-linecap="butt" stroke-miterlimit="10.0">
    <path d="M 267.7947,170.7546 c 0.0000,-0.7021 -0.5691,-1.2712 -1.2712 -1.2712c -0.7021,-0.0000 -1.2712,0.5691 -1.2712 1.2712c -0.0000,0.7021 0.5691,1.2712 1.2712 1.2712c 0.7021,0.0000 1.2712,-0.5691 1.2712 -1.2712Z"/>
  </g>
  <g stroke-linejoin="miter" stroke-opacity="1.0" fill-opacity="1.0" stroke="rgb(102,102,102)" stroke-width="0.0" fill="rgb(255,0,0)" stroke-linecap="butt" stroke-miterlimit="10.0">
    <path d="M 265.0900,172.0452 c 0.0000,-0.7021 -0.5691,-1.2712 -1.2712 -1.2712c -0.7021,-0.0000 -1.2712,0.5691 -1.2712 1.2712c -0.0000,0.7021 0.5691,1.2712 1.2712 1.2712c 0.7021,0.0000 1.2712,-0.5691 1.2712 -1.2712Z"/>
  </g>
  <g stroke-linejoin="miter" stroke-opacity="1.0" fill-opacity="1.0" stroke="rgb(102,102,102)" stroke-width="0.0" fill="rgb(255,0,0)" stroke-linecap="butt" stroke-miterlimit="10.0">
    <path d="M 262.3854,173.3357 c 0.0000,-0.7021 -0.5691,-1.2712 -1.2712 -1.2712c -0.7021,-0.0000 -1.2712,0.5691 -1.2712 1.2712c -0.0000,0.7021 0.5691,1.2712 1.2712 1.2712c 0.7021,0.0000 1.2712,-0.5691 1.2712 -1.2712Z"/>
  </g>
  <g stroke-linejoin="miter" stroke-opacity="1.0" fill-opacity="1.0" stroke="rgb(102,102,102)" stroke-width="0.0" fill="rgb(255,0,0)" stroke-linecap="butt" stroke-miterlimit="10.0">
    <path d="M 259.6807,174.6263 c 0.0000,-0.7021 -0.5691,-1.2712 -1.2712 -1.2712c -0.7021,-0.0000 -1.2712,0.5691 -1.2712 1.2712c -0.0000,0.7021 0.5691,1.2712 1.2712 1.2712c 0.7021,0.0000 1.2712,-0.5691 1.2712 -1.2712Z"/>
  </g>
  <g stroke-linejoin="miter" stroke-opacity="1.0" fill-opacity="1.0" stroke="rgb(102,102,102)" stroke-width="0.0" fill="rgb(255,0,0)" stroke-linecap="butt" stroke-miterlimit="10.0">
    <path d="M 256.9761,175.9168 c 0.0000,-0.7021 -0.5691,-1.2712 -1.2712 -1.2712c -0.7021,-0.0000 -1.2712,0.5691 -1.2712 1.2712c -0.0000,0.7021 0.5691,1.2712 1.2712 1.2712c 0.7021,0.0000 1.2712,-0.5691 1.2712 -1.2712Z"/>
  </g>
  <g stroke-linejoin="miter" stroke-opacity="1.0" fill-opacity="1.0" stroke="rgb(102,102,102)" stroke-width="0.0" fill="rgb(255,0,0)" stroke-linecap="butt" stroke-miterlimit="10.0">
    <path d="M 254.2714,179.7884 c 0.0000,-0.7021 -0.5691,-1.2712 -1.2712 -1.2712c -0.7021,-0.0000 -1.2712,0.5691 -1.2712 1.2712c -0.0000,0.7021 0.5691,1.2712 1.2712 1.2712c 0.7021,0.0000 1.2712,-0.5691 1.2712 -1.2712Z"/>
  </g>
  <g stroke-linejoin="miter" stroke-opacity="1.0" fill-opacity="1.0" stroke="rgb(102,102,102)" stroke-width="0.0" fill="rgb(255,0,0)" stroke-linecap="butt" stroke-miterlimit="10.0">
    <path d="M 251.5667,181.0790 c 0.0000,-0.7021 -0.5691,-1.2712 -1.2712 -1.2712c -0.7021,-0.0000 -1.2712,0.5691 -1.2712 1.2712c -0.0000,0.7021 0.5691,1.2712 1.2712 1.2712c 0.7021,0.0000 1.2712,-0.5691 1.2712 -1.2712Z"/>
  </g>
  <g stroke-linejoin="miter" stroke-opacity="1.0" fill-opacity="1.0" stroke="rgb(102,102,102)" stroke-width="0.0" fill="rgb(255,0,0)" stroke-linecap="butt" stroke-miterlimit="10.0">
    <path d="M 248.8621,182.3695 c 0.0000,-0.7021 -0.5691,-1.2712 -1.2712 -1.2712c -0.7021,-0.0000 -1.2712,0.5691 -1.2712 1.2712c -0.0000,0.7021 0.5691,1.2712 1.2712 1.2712c 0.7021,0.0000 1.2712,-0.5691 1.2712 -1.2712Z"/>
  </g>
  <g stroke-linejoin="miter" stroke-opacity="1.0" fill-opacity="1.0" stroke="rgb(102,102,102)" stroke-width="0.0" fill="rgb(255,0,0)" stroke-linecap="butt" stroke-miterlimit="10.0">
    <path d="M 246.1574,183.6601 c 0.0000,-0.7021 -0.5691,-1.2712 -1.2712 -1.2712c -0.7021,-0.0000 -1.2712,0.5691 -1.2712 1.2712c -0.0000,0.7021 0.5691,1.2712 1.2712 1.2712c 0.7021,0.0000 1.2712,-0.5691 1.2712 -1.2712Z"/>
  </g>
  <g stroke-linejoin="miter" stroke-opacity="1.0" fill-opacity="1.0" stroke="rgb(102,102,102)" stroke-width="0.0" fill="rgb(255,0,0)" stroke-linecap="butt" stroke-miterlimit="10.0">
    <path d="M 243.4528,184.9506 c 0.0000,-0.7021 -0.5691,-1.2712 -1.2712 -1.2712c -0.7021,-0.0000 -1.2712,0.5691 -1.2712 1.2712c -0.0000,0.7021 0.5691,1.2712 1.2712 1.2712c 0.7021,0.0000 1.2712,-0.5691 1.2712 -1.2712Z"/>
  </g>
  <g stroke-linejoin="miter" stroke-opacity="1.0" fill-opacity="1.0" stroke="rgb(102,102,102)" stroke-width="0.0" fill="rgb(255,0,0)" stroke-linecap="butt" stroke-miterlimit="10.0">
    <path d="M 240.7481,188.8222 c 0.0000,-0.7021 -0.5691,-1.2712 -1.2712 -1.2712c -0.7021,-0.0000 -1.2712,0.5691 -1.2712 1.2712c -0.0000,0.7021 0.5691,1.2712 1.2712 1.2712c 0.7021,0.0000 1.2712,-0.5691 1.2712 -1.2712Z"/>
  </g>
  <g stroke-linejoin="miter" stroke-opacity="1.0" fill-opacity="1.0" stroke="rgb(102,102,102)" stroke-width="0.0" fill="rgb(255,0,0)" stroke-linecap="butt" stroke-miterlimit="10.0">
    <path d="M 238.0435,190.1128 c 0.0000,-0.7021 -0.5691,-1.2712 -1.2712 -1.2712c -0.7021,-0.0000 -1.2712,0.5691 -1.2712 1.2712c -0.0000,0.7021 0.5691,1.2712 1.2712 1.2712c 0.7021,0.0000 1.2712,-0.5691 1.2712 -1.2712Z"/>
  </g>
  <g stroke-linejoin="miter" stroke-opacity="1.0" fill-opacity="1.0" stroke="rgb(102,102,102)" stroke-width="0.0" fill="rgb(255,0,0)" stroke-linecap="butt" stroke-miterlimit="10.0">
    <path d="M 235.3388,191.4033 c 0.0000,-0.7021 -0.5691,-1.2712 -1.2712 -1.2712c -0.7021,-0.0000 -1.2712,0.5691 -1.2712 1.2712c -0.0000,0.7021 0.5691,1.2712 1.2712 1.2712c 0.7021,0.0000 1.2712,-0.5691 1.2712 -1.2712Z"/>
  </g>
  <g stroke-linejoin="miter" stroke-opacity="1.0" fill-opacity="1.0" stroke="rgb(102,102,102)" stroke-width="0.0" fill="rgb(255,0,0)" stroke-linecap="butt" stroke-miterlimit="10.0">
    <path d="M 232.6342,192.6939 c 0.0000,-0.7021 -0.5691,-1.2712 -1.2712 -1.2712c -0.7021,-0.0000 -1.2712,0.5691 -1.2712 1.2712c -0.0000,0.7021 0.5691,1.2712 1.2712 1.2712c 0.7021,0.0000 1.2712,-0.5691 1.2712 -1.2712Z"/>
  </g>
  <g stroke-linejoin="miter" stroke-opacity="1.0" fill-opacity="1.0" stroke="rgb(102,102,102)" stroke-width="0.0" fill="rgb(255,0,0)" stroke-linecap="butt" stroke-miterlimit="10.0">
    <path d="M 229.9295,193.9844 c 0.0000,-0.7021 -0.5691,-1.2712 -1.2712 -1.2712c -0.7021,-0.0000 -1.2712,0.5691 -1.2712 1.2712c -0.0000,0.7021 0.5691,1.2712 1.2712 1.2712c 0.7021,0.0000 1.2712,-0.5691 1.2712 -1.2712Z"/>
  </g>
  <g stroke-linejoin="miter" stroke-opacity="1.0" fill-opacity="1.0" stroke="rgb(102,102,102)" stroke-width="0.0" fill="rgb(255,0,0)" stroke-linecap="butt" stroke-miterlimit="10.0">
    <path d="M 227.2249,197.8561 c 0.0000,-0.7021 -0.5691,-1.2712 -1.2712 -1.2712c -0.7021,-0.0000 -1.2712,0.5691 -1.2712 1.2712c -0.0000,0.7021 0.5691,1.2712 1.2712 1.2712c 0.7021,0.0000 1.2712,-0.5691 1.2712 -1.2712Z"/>
  </g>
  <g stroke-linejoin="miter" stroke-opacity="1.0" fill-opacity="1.0" stroke="rgb(102,102,102)" stroke-width="0.0" fill="rgb(255,0,0)" stroke-linecap="butt" stroke-miterlimit="10.0">
    <path d="M 224.5202,199.1466 c 0.0000,-0.7021 -0.5691,-1.2712 -1.2712 -1.2712c -0.7021,-0.0000 -1.2712,0.5691 -1.2712 1.2712c -0.0000,0.7021 0.5691,1.2712 1.2712 1.2712c 0.7021,0.0000 1.2712,-0.5691 1.2712 -1.2712Z"/>
  </g>
  <g stroke-linejoin="miter" stroke-opacity="1.0" fill-opacity="1.0" stroke="rgb(102,102,102)" stroke-width="0.0" fill="rgb(255,0,0)" stroke-linecap="butt" stroke-miterlimit="10.0">
    <path d="M 221.8156,200.4371 c 0.0000,-0.7021 -0.5691,-1.2712 -1.2712 -1.2712c -0.7021,-0.0000 -1.2712,0.5691 -1.2712 1.2712c -0.0000,0.7021 0.5691,1.2712 1.2712 1.2712c 0.7021,0.0000 1.2712,-0.5691 1.2712 -1.2712Z"/>
  </g>
  <g stroke-linejoin="miter" stroke-opacity="1.0" fill-opacity="1.0" stroke="rgb(102,102,102)" stroke-width="0.0" fill="rgb(255,0,0)" stroke-linecap="butt" stroke-miterlimit="10.0">
    <path d="M 219.1109,201.7277 c 0.0000,-0.7021 -0.5691,-1.2712 -1.2712 -1.2712c -0.7021,-0.0000 -1.2712,0.5691 -1.2712 1.2712c -0.0000,0.7021 0.5691,1.2712 1.2712 1.2712c 0.7021,0.0000 1.2712,-0.5691 1.2712 -1.2712Z"/>
  </g>
  <g stroke-linejoin="miter" stroke-opacity="1.0" fill-opacity="1.0" stroke="rgb(102,102,102)" stroke-width="0.0" fill="rgb(255,0,0)" stroke-linecap="butt" stroke-miterlimit="10.0">
    <path d="M 216.4063,203.0182 c 0.0000,-0.7021 -0.5691,-1.2712 -1.2712 -1.2712c -0.7021,-0.0000 -1.2712,0.5691 -1.2712 1.2712c -0.0000,0.7021 0.5691,1.2712 1.2712 1.2712c 0.7021,0.0000 1.2712,-0.5691 1.2712 -1.2712Z"/>
  </g>
  <g stroke-linejoin="miter" stroke-opacity="1.0" fill-opacity="1.0" stroke="rgb(102,102,102)" stroke-width="0.0" fill="rgb(255,0,0)" stroke-linecap="butt" stroke-miterlimit="10.0">
    <path d="M 213.7016,206.8899 c 0.0000,-0.7021 -0.5691,-1.2712 -1.2712 -1.2712c -0.7021,-0.0000 -1.2712,0.5691 -1.2712 1.2712c -0.0000,0.7021 0.5691,1.2712 1.2712 1.2712c 0.7021,0.0000 1.2712,-0.5691 1.2712 -1.2712Z"/>
  </g>
  <g stroke-linejoin="miter" stroke-opacity="1.0" fill-opacity="1.0" stroke="rgb(102,102,102)" stroke-width="0.0" fill="rgb(255,0,0)" stroke-linecap="butt" stroke-miterlimit="10.0">
    <path d="M 210.9970,208.1804 c 0.0000,-0.7021 -0.5691,-1.2712 -1.2712 -1.2712c -0.7021,-0.0000 -1.2712,0.5691 -1.2712 1.2712c -0.0000,0.7021 0.5691,1.2712 1.2712 1.2712c 0.7021,0.0000 1.2712,-0.5691 1.2712 -1.2712Z"/>
  </g>
  <g stroke-linejoin="miter" stroke-opacity="1.0" fill-opacity="1.0" stroke="rgb(102,102,102)" stroke-width="0.0" fill="rgb(255,0,0)" stroke-linecap="butt" stroke-miterlimit="10.0">
    <path d="M 208.2923,209.4710 c 0.0000,-0.7021 -0.5691,-1.2712 -1.2712 -1.2712c -0.7021,-0.0000 -1.2712,0.5691 -1.2712 1.2712c -0.0000,0.7021 0.5691,1.2712 1.2712 1.2712c 0.7021,0.0000 1.2712,-0.5691 1.2712 -1.2712Z"/>
  </g>
  <g stroke-linejoin="miter" stroke-opacity="1.0" fill-opacity="1.0" stroke="rgb(102,102,102)" stroke-width="0.0" fill="rgb(255,0,0)" stroke-linecap="butt" stroke-miterlimit="10.0">
    <path d="M 205.5877,210.7615 c 0.0000,-0.7021 -0.5691,-1.2712 -1.2712 -1.2712c -0.7021,-0.0000 -1.2712,0.5691 -1.2712 1.2712c -0.0000,0.7021 0.5691,1.2712 1.2712 1.2712c 0.7021,0.0000 1.2712,-0.5691 1.2712 -1.2712Z"/>
  </g>
  <g stroke-linejoin="miter" stroke-opacity="1.0" fill-opacity="1.0" stroke="rgb(102,102,102)" stroke-width="0.0" fill="rgb(255,0,0)" stroke-linecap="butt" stroke-miterlimit="10.0">
    <path d="M 202.8830,212.0521 c 0.0000,-0.7021 -0.5691,-1.2712 -1.2712 -1.2712c -0.7021,-0.0000 -1.2712,0.5691 -1.2712 1.2712c -0.0000,0.7021 0.5691,1.2712 1.2712 1.2712c 0.7021,0.0000 1.2712,-0.5691 1.2712 -1.2712Z"/>
  </g>
  <g stroke-linejoin="miter" stroke-opacity="1.0" fill-opacity="1.0" stroke="rgb(102,102,102)" stroke-width="0.0" fill="rgb(255,0,0)" stroke-linecap="butt" stroke-miterlimit="10.0">
    <path d="M 200.1784,215.9237 c 0.0000,-0.7021 -0.5691,-1.2712 -1.2712 -1.2712c -0.7021,-0.0000 -1.2712,0.5691 -1.2712 1.2712c -0.0000,0.7021 0.5691,1.2712 1.2712 1.2712c 0.7021,0.0000 1.2712,-0.5691 1.2712 -1.2712Z"/>
  </g>
  <g stroke-linejoin="miter" stroke-opacity="1.0" fill-opacity="1.0" stroke="rgb(102,102,102)" stroke-width="0.0" fill="rgb(255,0,0)" stroke-linecap="butt" stroke-miterlimit="10.0">
    <path d="M 197.4737,217.2142 c 0.0000,-0.7021 -0.5691,-1.2712 -1.2712 -1.2712c -0.7021,-0.0000 -1.2712,0.5691 -1.2712 1.2712c -0.0000,0.7021 0.5691,1.2712 1.2712 1.2712c 0.7021,0.0000 1.2712,-0.5691 1.2712 -1.2712Z"/>
  </g>
  <g stroke-linejoin="miter" stroke-opacity="1.0" fill-opacity="1.0" stroke="rgb(102,102,102)" stroke-width="0.0" fill="rgb(255,0,0)" stroke-linecap="butt" stroke-miterlimit="10.0">
    <path d="M 194.7691,218.5048 c 0.0000,-0.7021 -0.5691,-1.2712 -1.2712 -1.2712c -0.7021,-0.0000 -1.2712,0.5691 -1.2712 1.2712c -0.0000,0.7021 0.5691,1.2712 1.2712 1.2712c 0.7021,0.0000 1.2712,-0.5691 1.2712 -1.2712Z"/>
  </g>
  <g stroke-linejoin="miter" stroke-opacity="1.0" fill-opacity="1.0" stroke="rgb(102,102,102)" stroke-width="0.0" fill="rgb(255,0,0)" stroke-linecap="butt" stroke-miterlimit="10.0">
    <path d="M 192.0644,219.7953 c 0.0000,-0.7021 -0.5691,-1.2712 -1.2712 -1.2712c -0.7021,-0.0000 -1.2712,0.5691 -1.2712 1.2712c -0.0000,0.7021 0.5691,1.2712 1.2712 1.2712c 0.7021,0.0000 1.2712,-0.5691 1.2712 -1.2712Z"/>
  </g>
  <g stroke-linejoin="miter" stroke-opacity="1.0" fill-opacity="1.0" stroke="rgb(102,102,102)" stroke-width="0.0" fill="rgb(255,0,0)" stroke-linecap="butt" stroke-miterlimit="10.0">
    <path d="M 189.3598,221.0859 c 0.0000,-0.7021 -0.5691,-1.2712 -1.2712 -1.2712c -0.7021,-0.0000 -1.2712,0.5691 -1.2712 1.2712c -0.0000,0.7021 0.5691,1.2712 1.2712 1.2712c 0.7021,0.0000 1.2712,-0.5691 1.2712 -1.2712Z"/>
  </g>
  <g stroke-linejoin="miter" stroke-opacity="1.0" fill-opacity="1.0" stroke="rgb(102,102,102)" stroke-width="0.0" fill="rgb(255,0,0)" stroke-linecap="butt" stroke-miterlimit="10.0">
    <path d="M 186.6551,224.9575 c 0.0000,-0.7021 -0.5691,-1.2712 -1.2712 -1.2712c -0.7021,-0.0000 -1.2712,0.5691 -1.2712 1.2712c -0.0000,0.7021 0.5691,1.2712 1.2712 1.2712c 0.7021,0.0000 1.2712,-0.5691 1.2712 -1.2712Z"/>
  </g>
  <g stroke-linejoin="miter" stroke-opacity="1.0" fill-opacity="1.0" stroke="rgb(102,102,102)" stroke-width="0.0" fill="rgb(255,0,0)" stroke-linecap="butt" stroke-miterlimit="10.0">
    <path d="M 183.9505,226.2480 c 0.0000,-0.7021 -0.5691,-1.2712 -1.2712 -1.2712c -0.7021,-0.0000 -1.2712,0.5691 -1.2712 1.2712c -0.0000,0.7021 0.5691,1.2712 1.2712 1.2712c 0.7021,0.0000 1.2712,-0.5691 1.2712 -1.2712Z"/>
  </g>
  <g stroke-linejoin="miter" stroke-opacity="1.0" fill-opacity="1.0" stroke="rgb(102,102,102)" stroke-width="0.0" fill="rgb(255,0,0)" stroke-linecap="butt" stroke-miterlimit="10.0">
    <path d="M 181.2458,227.5386 c 0.0000,-0.7021 -0.5691,-1.2712 -1.2712 -1.2712c -0.7021,-0.0000 -1.2712,0.5691 -1.2712 1.2712c -0.0000,0.7021 0.5691,1.2712 1.2712 1.2712c 0.7021,0.0000 1.2712,-0.5691 1.2712 -1.2712Z"/>
  </g>
  <g stroke-linejoin="miter" stroke-opacity="1.0" fill-opacity="1.0" stroke="rgb(102,102,102)" stroke-width="0.0" fill="rgb(255,0,0)" stroke-linecap="butt" stroke-miterlimit="10.0">
    <path d="M 178.5412,228.8291 c 0.0000,-0.7021 -0.5691,-1.2712 -1.2712 -1.2712c -0.7021,-0.0000 -1.2712,0.5691 -1.2712 1.2712c -0.0000,0.7021 0.5691,1.2712 1.2712 1.2712c 0.7021,0.0000 1.2712,-0.5691 1.2712 -1.2712Z"/>
  </g>
  <g stroke-linejoin="miter" stroke-opacity="1.0" fill-opacity="1.0" stroke="rgb(102,102,102)" stroke-width="0.0" fill="rgb(255,0,0)" stroke-linecap="butt" stroke-miterlimit="10.0">
    <path d="M 175.8365,230.1197 c 0.0000,-0.7021 -0.5691,-1.2712 -1.2712 -1.2712c -0.7021,-0.0000 -1.2712,0.5691 -1.2712 1.2712c -0.0000,0.7021 0.5691,1.2712 1.2712 1.2712c 0.7021,0.0000 1.2712,-0.5691 1.2712 -1.2712Z"/>
  </g>
  <g stroke-linejoin="miter" stroke-opacity="1.0" fill-opacity="1.0" stroke="rgb(102,102,102)" stroke-width="0.0" fill="rgb(255,0,0)" stroke-linecap="butt" stroke-miterlimit="10.0">
    <path d="M 173.1318,233.9913 c 0.0000,-0.7021 -0.5691,-1.2712 -1.2712 -1.2712c -0.7021,-0.0000 -1.2712,0.5691 -1.2712 1.2712c -0.0000,0.7021 0.5691,1.2712 1.2712 1.2712c 0.7021,0.0000 1.2712,-0.5691 1.2712 -1.2712Z"/>
  </g>
  <g stroke-linejoin="miter" stroke-opacity="1.0" fill-opacity="1.0" stroke="rgb(102,102,102)" stroke-width="0.0" fill="rgb(255,0,0)" stroke-linecap="butt" stroke-miterlimit="10.0">
    <path d="M 170.4272,235.2819 c 0.0000,-0.7021 -0.5691,-1.2712 -1.2712 -1.2712c -0.7021,-0.0000 -1.2712,0.5691 -1.2712 1.2712c -0.0000,0.7021 0.5691,1.2712 1.2712 1.2712c 0.7021,0.0000 1.2712,-0.5691 1.2712 -1.2712Z"/>
  </g>
  <g stroke-linejoin="miter" stroke-opacity="1.0" fill-opacity="1.0" stroke="rgb(102,102,102)" stroke-width="0.0" fill="rgb(255,0,0)" stroke-linecap="butt" stroke-miterlimit="10.0">
    <path d="M 167.7225,236.5724 c 0.0000,-0.7021 -0.5691,-1.2712 -1.2712 -1.2712c -0.7021,-0.0000 -1.2712,0.5691 -1.2712 1.2712c -0.0000,0.7021 0.5691,1.2712 1.2712 1.2712c 0.7021,0.0000 1.2712,-0.5691 1.2712 -1.2712Z"/>
  </g>
  <g stroke-linejoin="miter" stroke-opacity="1.0" fill-opacity="1.0" stroke="rgb(102,102,102)" stroke-width="0.0" fill="rgb(255,0,0)" stroke-linecap="butt" stroke-miterlimit="10.0">
    <path d="M 165.0179,237.8629 c 0.0000,-0.7021 -0.5691,-1.2712 -1.2712 -1.2712c -0.7021,-0.0000 -1.2712,0.5691 -1.2712 1.2712c -0.0000,0.7021 0.5691,1.2712 1.2712 1.2712c 0.7021,0.0000 1.2712,-0.5691 1.2712 -1.2712Z"/>
  </g>
  <g stroke-linejoin="miter" stroke-opacity="1.0" fill-opacity="1.0" stroke="rgb(102,102,102)" stroke-width="0.0" fill="rgb(255,0,0)" stroke-linecap="butt" stroke-miterlimit="10.0">
    <path d="M 162.3132,239.1535 c 0.0000,-0.7021 -0.5691,-1.2712 -1.2712 -1.2712c -0.7021,-0.0000 -1.2712,0.5691 -1.2712 1.2712c -0.0000,0.7021 0.5691,1.2712 1.2712 1.2712c 0.7021,0.0000 1.2712,-0.5691 1.2712 -1.2712Z"/>
  </g>
  <g stroke-linejoin="miter" stroke-opacity="1.0" fill-opacity="1.0" stroke="rgb(102,102,102)" stroke-width="0.0" fill="rgb(255,0,0)" stroke-linecap="butt" stroke-miterlimit="10.0">
    <path d="M 159.6086,243.0251 c 0.0000,-0.7021 -0.5691,-1.2712 -1.2712 -1.2712c -0.7021,-0.0000 -1.2712,0.5691 -1.2712 1.2712c -0.0000,0.7021 0.5691,1.2712 1.2712 1.2712c 0.7021,0.0000 1.2712,-0.5691 1.2712 -1.2712Z"/>
  </g>
  <g stroke-linejoin="miter" stroke-opacity="1.0" fill-opacity="1.0" stroke="rgb(102,102,102)" stroke-width="0.0" fill="rgb(255,0,0)" stroke-linecap="butt" stroke-miterlimit="10.0">
    <path d="M 156.9039,244.3157 c 0.0000,-0.7021 -0.5691,-1.2712 -1.2712 -1.2712c -0.7021,-0.0000 -1.2712,0.5691 -1.2712 1.2712c -0.0000,0.7021 0.5691,1.2712 1.2712 1.2712c 0.7021,0.0000 1.2712,-0.5691 1.2712 -1.2712Z"/>
  </g>
  <g stroke-linejoin="miter" stroke-opacity="1.0" fill-opacity="1.0" stroke="rgb(102,102,102)" stroke-width="0.0" fill="rgb(255,0,0)" stroke-linecap="butt" stroke-miterlimit="10.0">
    <path d="M 154.1993,245.6062 c 0.0000,-0.7021 -0.5691,-1.2712 -1.2712 -1.2712c -0.7021,-0.0000 -1.2712,0.5691 -1.2712 1.2712c -0.0000,0.7021 0.5691,1.2712 1.2712 1.2712c 0.7021,0.0000 1.2712,-0.5691 1.2712 -1.2712Z"/>
  </g>
  <g stroke-linejoin="miter" stroke-opacity="1.0" fill-opacity="1.0" stroke="rgb(102,102,102)" stroke-width="0.0" fill="rgb(255,0,0)" stroke-linecap="butt" stroke-miterlimit="10.0">
    <path d="M 151.4946,246.8968 c 0.0000,-0.7021 -0.5691,-1.2712 -1.2712 -1.2712c -0.7021,-0.0000 -1.2712,0.5691 -1.2712 1.2712c -0.0000,0.7021 0.5691,1.2712 1.2712 1.2712c 0.7021,0.0000 1.2712,-0.5691 1.2712 -1.2712Z"/>
  </g>
  <g stroke-linejoin="miter" stroke-opacity="1.0" fill-opacity="1.0" stroke="rgb(102,102,102)" stroke-width="0.0" fill="rgb(255,0,0)" stroke-linecap="butt" stroke-miterlimit="10.0">
    <path d="M 148.7900,248.1873 c 0.0000,-0.7021 -0.5691,-1.2712 -1.2712 -1.2712c -0.7021,-0.0000 -1.2712,0.5691 -1.2712 1.2712c -0.0000,0.7021 0.5691,1.2712 1.2712 1.2712c 0.7021,0.0000 1.2712,-0.5691 1.2712 -1.2712Z"/>
  </g>
  <g stroke-linejoin="miter" stroke-opacity="1.0" fill-opacity="1.0" stroke="rgb(102,102,102)" stroke-width="0.0" fill="rgb(255,0,0)" stroke-linecap="butt" stroke-miterlimit="10.0">
    <path d="M 146.0853,252.0589 c 0.0000,-0.7021 -0.5691,-1.2712 -1.2712 -1.2712c -0.7021,-0.0000 -1.2712,0.5691 -1.2712 1.2712c -0.0000,0.7021 0.5691,1.2712 1.2712 1.2712c 0.7021,0.0000 1.2712,-0.5691 1.2712 -1.2712Z"/>
  </g>
  <g stroke-linejoin="miter" stroke-opacity="1.0" fill-opacity="1.0" stroke="rgb(102,102,102)" stroke-width="0.0" fill="rgb(255,0,0)" stroke-linecap="butt" stroke-miterlimit="10.0">
    <path d="M 143.3807,253.3495 c 0.0000,-0.7021 -0.5691,-1.2712 -1.2712 -1.2712c -0.7021,-0.0000 -1.2712,0.5691 -1.2712 1.2712c -0.0000,0.7021 0.5691,1.2712 1.2712 1.2712c 0.7021,0.0000 1.2712,-0.5691 1.2712 -1.2712Z"/>
  </g>
  <g stroke-linejoin="miter" stroke-opacity="1.0" fill-opacity="1.0" stroke="rgb(102,102,102)" stroke-width="0.0" fill="rgb(255,0,0)" stroke-linecap="butt" stroke-miterlimit="10.0">
    <path d="M 140.6760,254.6400 c 0.0000,-0.7021 -0.5691,-1.2712 -1.2712 -1.2712c -0.7021,-0.0000 -1.2712,0.5691 -1.2712 1.2712c -0.0000,0.7021 0.5691,1.2712 1.2712 1.2712c 0.7021,0.0000 1.2712,-0.5691 1.2712 -1.2712Z"/>
  </g>
  <g stroke-linejoin="miter" stroke-opacity="1.0" fill-opacity="1.0" stroke="rgb(102,102,102)" stroke-width="0.0" fill="rgb(255,0,0)" stroke-linecap="butt" stroke-miterlimit="10.0">
    <path d="M 137.9714,255.9306 c 0.0000,-0.7021 -0.5691,-1.2712 -1.2712 -1.2712c -0.7021,-0.0000 -1.2712,0.5691 -1.2712 1.2712c -0.0000,0.7021 0.5691,1.2712 1.2712 1.2712c 0.7021,0.0000 1.2712,-0.5691 1.2712 -1.2712Z"/>
  </g>
  <g stroke-linejoin="miter" stroke-opacity="1.0" fill-opacity="1.0" stroke="rgb(102,102,102)" stroke-width="0.0" fill="rgb(255,0,0)" stroke-linecap="butt" stroke-miterlimit="10.0">
    <path d="M 135.2667,257.2211 c 0.0000,-0.7021 -0.5691,-1.2712 -1.2712 -1.2712c -0.7021,-0.0000 -1.2712,0.5691 -1.2712 1.2712c -0.0000,0.7021 0.5691,1.2712 1.2712 1.2712c 0.7021,0.0000 1.2712,-0.5691 1.2712 -1.2712Z"/>
  </g>
  <g stroke-linejoin="miter" stroke-opacity="1.0" fill-opacity="1.0" stroke="rgb(102,102,102)" stroke-width="0.0" fill="rgb(255,0,0)" stroke-linecap="butt" stroke-miterlimit="10.0">
    <path d="M 132.5621,261.0927 c 0.0000,-0.7021 -0.5691,-1.2712 -1.2712 -1.2712c -0.7021,-0.0000 -1.2712,0.5691 -1.2712 1.2712c -0.0000,0.7021 0.5691,1.2712 1.2712 1.2712c 0.7021,0.0000 1.2712,-0.5691 1.2712 -1.2712Z"/>
  </g>
  <g stroke-linejoin="miter" stroke-opacity="1.0" fill-opacity="1.0" stroke="rgb(102,102,102)" stroke-width="0.0" fill="rgb(255,0,0)" stroke-linecap="butt" stroke-miterlimit="10.0">
    <path d="M 129.8574,262.3833 c 0.0000,-0.7021 -0.5691,-1.2712 -1.2712 -1.2712c -0.7021,-0.0000 -1.2712,0.5691 -1.2712 1.2712c -0.0000,0.7021 0.5691,1.2712 1.2712 1.2712c 0.7021,0.0000 1.2712,-0.5691 1.2712 -1.2712Z"/>
  </g>
  <g stroke-linejoin="miter" stroke-opacity="1.0" fill-opacity="1.0" stroke="rgb(102,102,102)" stroke-width="0.0" fill="rgb(255,0,0)" stroke-linecap="butt" stroke-miterlimit="10.0">
    <path d="M 127.1528,263.6738 c 0.0000,-0.7021 -0.5691,-1.2712 -1.2712 -1.2712c -0.7021,-0.0000 -1.2712,0.5691 -1.2712 1.2712c -0.0000,0.7021 0.5691,1.2712 1.2712 1.2712c 0.7021,0.0000 1.2712,-0.5691 1.2712 -1.2712Z"/>
  </g>
  <g stroke-linejoin="miter" stroke-opacity="1.0" fill-opacity="1.0" stroke="rgb(102,102,102)" stroke-width="0.0" fill="rgb(255,0,0)" stroke-linecap="butt" stroke-miterlimit="10.0">
    <path d="M 124.4481,264.9644 c 0.0000,-0.7021 -0.5691,-1.2712 -1.2712 -1.2712c -0.7021,-0.0000 -1.2712,0.5691 -1.2712 1.2712c -0.0000,0.7021 0.5691,1.2712 1.2712 1.2712c 0.7021,0.0000 1.2712,-0.5691 1.2712 -1.2712Z"/>
  </g>
  <g stroke-linejoin="miter" stroke-opacity="1.0" fill-opacity="1.0" stroke="rgb(102,102,102)" stroke-width="0.0" fill="rgb(255,0,0)" stroke-linecap="butt" stroke-miterlimit="10.0">
    <path d="M 121.7435,266.2549 c 0.0000,-0.7021 -0.5691,-1.2712 -1.2712 -1.2712c -0.7021,-0.0000 -1.2712,0.5691 -1.2712 1.2712c -0.0000,0.7021 0.5691,1.2712 1.2712 1.2712c 0.7021,0.0000 1.2712,-0.5691 1.2712 -1.2712Z"/>
  </g>
  <g stroke-linejoin="miter" stroke-opacity="1.0" fill-opacity="1.0" stroke="rgb(102,102,102)" stroke-width="0.0" fill="rgb(255,0,0)" stroke-linecap="butt" stroke-miterlimit="10.0">
    <path d="M 119.0388,270.1266 c 0.0000,-0.7021 -0.5691,-1.2712 -1.2712 -1.2712c -0.7021,-0.0000 -1.2712,0.5691 -1.2712 1.2712c -0.0000,0.7021 0.5691,1.2712 1.2712 1.2712c 0.7021,0.0000 1.2712,-0.5691 1.2712 -1.2712Z"/>
  </g>
  <g stroke-linejoin="miter" stroke-opacity="1.0" fill-opacity="1.0" stroke="rgb(102,102,102)" stroke-width="0.0" fill="rgb(255,0,0)" stroke-linecap="butt" stroke-miterlimit="10.0">
    <path d="M 116.3342,271.4171 c 0.0000,-0.7021 -0.5691,-1.2712 -1.2712 -1.2712c -0.7021,-0.0000 -1.2712,0.5691 -1.2712 1.2712c -0.0000,0.7021 0.5691,1.2712 1.2712 1.2712c 0.7021,0.0000 1.2712,-0.5691 1.2712 -1.2712Z"/>
  </g>
  <g stroke-linejoin="miter" stroke-opacity="1.0" fill-opacity="1.0" stroke="rgb(102,102,102)" stroke-width="0.0" fill="rgb(255,0,0)" stroke-linecap="butt" stroke-miterlimit="10.0">
    <path d="M 113.6295,272.7076 c 0.0000,-0.7021 -0.5691,-1.2712 -1.2712 -1.2712c -0.7021,-0.0000 -1.2712,0.5691 -1.2712 1.2712c -0.0000,0.7021 0.5691,1.2712 1.2712 1.2712c 0.7021,0.0000 1.2712,-0.5691 1.2712 -1.2712Z"/>
  </g>
  <g stroke-linejoin="miter" stroke-opacity="1.0" fill-opacity="1.0" stroke="rgb(102,102,102)" stroke-width="0.0" fill="rgb(255,0,0)" stroke-linecap="butt" stroke-miterlimit="10.0">
    <path d="M 110.9249,273.9982 c 0.0000,-0.7021 -0.5691,-1.2712 -1.2712 -1.2712c -0.7021,-0.0000 -1.2712,0.5691 -1.2712 1.2712c -0.0000,0.7021 0.5691,1.2712 1.2712 1.2712c 0.7021,0.0000 1.2712,-0.5691 1.2712 -1.2712Z"/>
  </g>
  <g stroke-linejoin="miter" stroke-opacity="1.0" fill-opacity="1.0" stroke="rgb(102,102,102)" stroke-width="0.0" fill="rgb(255,0,0)" stroke-linecap="butt" stroke-miterlimit="10.0">
    <path d="M 108.2202,275.2887 c 0.0000,-0.7021 -0.5691,-1.2712 -1.2712 -1.2712c -0.7021,-0.0000 -1.2712,0.5691 -1.2712 1.2712c -0.0000,0.7021 0.5691,1.2712 1.2712 1.2712c 0.7021,0.0000 1.2712,-0.5691 1.2712 -1.2712Z"/>
  </g>
  <g stroke-linejoin="miter" stroke-opacity="0.0" fill-opacity="0.1" stroke="rgb(0,0,0)" stroke-width="0.0" fill="rgb(0,0,0)" stroke-linecap="butt" stroke-miterlimit="10.0">
    <path d="M 94.8972,275.2887 l -0.0000,-254.2373 h -5.0847 l -0.0000,254.2373 Z"/>
  </g>
  <g stroke-linejoin="miter" stroke-opacity="0.0" fill-opacity="0.0" stroke="rgb(0,0,0)" fill-rule="evenodd" stroke-width="0.0" fill="rgb(0,0,0)" stroke-linecap="butt" stroke-miterlimit="10.0">
    <path d="M 83.4566,53.3026 l -0.0000,-17.4508 h -26.1763 l -0.0000,17.4508 Z"/>
  </g>
  <g stroke-linejoin="miter" stroke-opacity="1.0" fill-opacity="0.6" font-size="15.864405359341319px" stroke="rgb(0,0,0)" fill-rule="evenodd" stroke-width="0.0" fill="rgb(0,0,0)" stroke-linecap="butt" stroke-miterlimit="10.0">
    <text dominant-baseline="middle" transform="matrix(1.0000,-0.0000,0.0000,1.0000,70.3684,44.5772)" stroke="none" text-anchor="middle">180
    </text>
  </g>
  <g stroke-linejoin="miter" stroke-opacity="0.6" fill-opacity="0.0" stroke="rgb(0,0,0)" stroke-width="2.3097808067006182" fill="rgb(0,0,0)" stroke-linecap="butt" stroke-miterlimit="10.0">
    <path d="M 87.2701,42.9907 h 7.6271 "/>
  </g>
  <g stroke-linejoin="miter" stroke-opacity="0.0" fill-opacity="0.0" stroke="rgb(0,0,0)" fill-rule="evenodd" stroke-width="0.0" fill="rgb(0,0,0)" stroke-linecap="butt" stroke-miterlimit="10.0">
    <path d="M 83.4566,79.1135 l -0.0000,-17.4508 h -26.1763 l -0.0000,17.4508 Z"/>
  </g>
  <g stroke-linejoin="miter" stroke-opacity="1.0" fill-opacity="0.6" font-size="15.864405359341319px" stroke="rgb(0,0,0)" fill-rule="evenodd" stroke-width="0.0" fill="rgb(0,0,0)" stroke-linecap="butt" stroke-miterlimit="10.0">
    <text dominant-baseline="middle" transform="matrix(1.0000,-0.0000,0.0000,1.0000,70.3684,70.3881)" stroke="none" text-anchor="middle">160
    </text>
  </g>
  <g stroke-linejoin="miter" stroke-opacity="0.6" fill-opacity="0.0" stroke="rgb(0,0,0)" stroke-width="2.3097808067006182" fill="rgb(0,0,0)" stroke-linecap="butt" stroke-miterlimit="10.0">
    <path d="M 87.2701,68.8016 h 7.6271 "/>
  </g>
  <g stroke-linejoin="miter" stroke-opacity="0.0" fill-opacity="0.0" stroke="rgb(0,0,0)" fill-rule="evenodd" stroke-width="0.0" fill="rgb(0,0,0)" stroke-linecap="butt" stroke-miterlimit="10.0">
    <path d="M 83.4566,104.9244 l -0.0000,-17.4508 h -26.1763 l -0.0000,17.4508 Z"/>
  </g>
  <g stroke-linejoin="miter" stroke-opacity="1.0" fill-opacity="0.6" font-size="15.864405359341319px" stroke="rgb(0,0,0)" fill-rule="evenodd" stroke-width="0.0" fill="rgb(0,0,0)" stroke-linecap="butt" stroke-miterlimit="10.0">
    <text dominant-baseline="middle" transform="matrix(1.0000,-0.0000,0.0000,1.0000,70.3684,96.1989)" stroke="none" text-anchor="middle">140
    </text>
  </g>
  <g stroke-linejoin="miter" stroke-opacity="0.6" fill-opacity="0.0" stroke="rgb(0,0,0)" stroke-width="2.3097808067006182" fill="rgb(0,0,0)" stroke-linecap="butt" stroke-miterlimit="10.0">
    <path d="M 87.2701,94.6125 h 7.6271 "/>
  </g>
  <g stroke-linejoin="miter" stroke-opacity="0.0" fill-opacity="0.0" stroke="rgb(0,0,0)" fill-rule="evenodd" stroke-width="0.0" fill="rgb(0,0,0)" stroke-linecap="butt" stroke-miterlimit="10.0">
    <path d="M 83.4566,130.7353 l -0.0000,-17.4508 h -26.1763 l -0.0000,17.4508 Z"/>
  </g>
  <g stroke-linejoin="miter" stroke-opacity="1.0" fill-opacity="0.6" font-size="15.864405359341319px" stroke="rgb(0,0,0)" fill-rule="evenodd" stroke-width="0.0" fill="rgb(0,0,0)" stroke-linecap="butt" stroke-miterlimit="10.0">
    <text dominant-baseline="middle" transform="matrix(1.0000,-0.0000,0.0000,1.0000,70.3684,122.0098)" stroke="none" text-anchor="middle">120
    </text>
  </g>
  <g stroke-linejoin="miter" stroke-opacity="0.6" fill-opacity="0.0" stroke="rgb(0,0,0)" stroke-width="2.3097808067006182" fill="rgb(0,0,0)" stroke-linecap="butt" stroke-miterlimit="10.0">
    <path d="M 87.2701,120.4234 h 7.6271 "/>
  </g>
  <g stroke-linejoin="miter" stroke-opacity="0.0" fill-opacity="0.0" stroke="rgb(0,0,0)" fill-rule="evenodd" stroke-width="0.0" fill="rgb(0,0,0)" stroke-linecap="butt" stroke-miterlimit="10.0">
    <path d="M 83.4566,156.5461 l -0.0000,-17.4508 h -26.1763 l -0.0000,17.4508 Z"/>
  </g>
  <g stroke-linejoin="miter" stroke-opacity="1.0" fill-opacity="0.6" font-size="15.864405359341319px" stroke="rgb(0,0,0)" fill-rule="evenodd" stroke-width="0.0" fill="rgb(0,0,0)" stroke-linecap="butt" stroke-miterlimit="10.0">
    <text dominant-baseline="middle" transform="matrix(1.0000,-0.0000,0.0000,1.0000,70.3684,147.8207)" stroke="none" text-anchor="middle">100
    </text>
  </g>
  <g stroke-linejoin="miter" stroke-opacity="0.6" fill-opacity="0.0" stroke="rgb(0,0,0)" stroke-width="2.3097808067006182" fill="rgb(0,0,0)" stroke-linecap="butt" stroke-miterlimit="10.0">
    <path d="M 87.2701,146.2343 h 7.6271 "/>
  </g>
  <g stroke-linejoin="miter" stroke-opacity="0.0" fill-opacity="0.0" stroke="rgb(0,0,0)" fill-rule="evenodd" stroke-width="0.0" fill="rgb(0,0,0)" stroke-linecap="butt" stroke-miterlimit="10.0">
    <path d="M 83.4566,182.3570 l -0.0000,-17.4508 h -17.4508 l -0.0000,17.4508 Z"/>
  </g>
  <g stroke-linejoin="miter" stroke-opacity="1.0" fill-opacity="0.6" font-size="15.864405359341319px" stroke="rgb(0,0,0)" fill-rule="evenodd" stroke-width="0.0" fill="rgb(0,0,0)" stroke-linecap="butt" stroke-miterlimit="10.0">
    <text dominant-baseline="middle" transform="matrix(1.0000,-0.0000,0.0000,1.0000,74.7311,173.6316)" stroke="none" text-anchor="middle">80
    </text>
  </g>
  <g stroke-linejoin="miter" stroke-opacity="0.6" fill-opacity="0.0" stroke="rgb(0,0,0)" stroke-width="2.3097808067006182" fill="rgb(0,0,0)" stroke-linecap="butt" stroke-miterlimit="10.0">
    <path d="M 87.2701,172.0452 h 7.6271 "/>
  </g>
  <g stroke-linejoin="miter" stroke-opacity="0.0" fill-opacity="0.0" stroke="rgb(0,0,0)" fill-rule="evenodd" stroke-width="0.0" fill="rgb(0,0,0)" stroke-linecap="butt" stroke-miterlimit="10.0">
    <path d="M 83.4566,208.1679 l -0.0000,-17.4508 h -17.4508 l -0.0000,17.4508 Z"/>
  </g>
  <g stroke-linejoin="miter" stroke-opacity="1.0" fill-opacity="0.6" font-size="15.864405359341319px" stroke="rgb(0,0,0)" fill-rule="evenodd" stroke-width="0.0" fill="rgb(0,0,0)" stroke-linecap="butt" stroke-miterlimit="10.0">
    <text dominant-baseline="middle" transform="matrix(1.0000,-0.0000,0.0000,1.0000,74.7311,199.4425)" stroke="none" text-anchor="middle">60
    </text>
  </g>
  <g stroke-linejoin="miter" stroke-opacity="0.6" fill-opacity="0.0" stroke="rgb(0,0,0)" stroke-width="2.3097808067006182" fill="rgb(0,0,0)" stroke-linecap="butt" stroke-miterlimit="10.0">
    <path d="M 87.2701,197.8561 h 7.6271 "/>
  </g>
  <g stroke-linejoin="miter" stroke-opacity="0.0" fill-opacity="0.0" stroke="rgb(0,0,0)" fill-rule="evenodd" stroke-width="0.0" fill="rgb(0,0,0)" stroke-linecap="butt" stroke-miterlimit="10.0">
    <path d="M 83.4566,233.9788 l -0.0000,-17.4508 h -17.4508 l -0.0000,17.4508 Z"/>
  </g>
  <g stroke-linejoin="miter" stroke-opacity="1.0" fill-opacity="0.6" font-size="15.864405359341319px" stroke="rgb(0,0,0)" fill-rule="evenodd" stroke-width="0.0" fill="rgb(0,0,0)" stroke-linecap="butt" stroke-miterlimit="10.0">
    <text dominant-baseline="middle" transform="matrix(1.0000,-0.0000,0.0000,1.0000,74.7311,225.2534)" stroke="none" text-anchor="middle">40
    </text>
  </g>
  <g stroke-linejoin="miter" stroke-opacity="0.6" fill-opacity="0.0" stroke="rgb(0,0,0)" stroke-width="2.3097808067006182" fill="rgb(0,0,0)" stroke-linecap="butt" stroke-miterlimit="10.0">
    <path d="M 87.2701,223.6670 h 7.6271 "/>
  </g>
  <g stroke-linejoin="miter" stroke-opacity="0.0" fill-opacity="0.0" stroke="rgb(0,0,0)" fill-rule="evenodd" stroke-width="0.0" fill="rgb(0,0,0)" stroke-linecap="butt" stroke-miterlimit="10.0">
    <path d="M 83.4566,259.7897 l -0.0000,-17.4508 h -17.4508 l -0.0000,17.4508 Z"/>
  </g>
  <g stroke-linejoin="miter" stroke-opacity="1.0" fill-opacity="0.6" font-size="15.864405359341319px" stroke="rgb(0,0,0)" fill-rule="evenodd" stroke-width="0.0" fill="rgb(0,0,0)" stroke-linecap="butt" stroke-miterlimit="10.0">
    <text dominant-baseline="middle" transform="matrix(1.0000,-0.0000,0.0000,1.0000,74.7311,251.0643)" stroke="none" text-anchor="middle">20
    </text>
  </g>
  <g stroke-linejoin="miter" stroke-opacity="0.6" fill-opacity="0.0" stroke="rgb(0,0,0)" stroke-width="2.3097808067006182" fill="rgb(0,0,0)" stroke-linecap="butt" stroke-miterlimit="10.0">
    <path d="M 87.2701,249.4778 h 7.6271 "/>
  </g>
  <g stroke-linejoin="miter" stroke-opacity="0.0" fill-opacity="0.0" stroke="rgb(0,0,0)" fill-rule="evenodd" stroke-width="0.0" fill="rgb(0,0,0)" stroke-linecap="butt" stroke-miterlimit="10.0">
    <path d="M 83.4566,285.6006 l -0.0000,-17.4508 h -8.7254 l -0.0000,17.4508 Z"/>
  </g>
  <g stroke-linejoin="miter" stroke-opacity="1.0" fill-opacity="0.6" font-size="15.864405359341319px" stroke="rgb(0,0,0)" fill-rule="evenodd" stroke-width="0.0" fill="rgb(0,0,0)" stroke-linecap="butt" stroke-miterlimit="10.0">
    <text dominant-baseline="middle" transform="matrix(1.0000,-0.0000,0.0000,1.0000,79.0939,276.8752)" stroke="none" text-anchor="middle">0
    </text>
  </g>
  <g stroke-linejoin="miter" stroke-opacity="0.6" fill-opacity="0.0" stroke="rgb(0,0,0)" stroke-width="2.3097808067006182" fill="rgb(0,0,0)" stroke-linecap="butt" stroke-miterlimit="10.0">
    <path d="M 87.2701,275.2887 h 7.6271 "/>
  </g>
  <g stroke-linejoin="miter" stroke-opacity="0.0" fill-opacity="0.1" stroke="rgb(0,0,0)" stroke-width="0.0" fill="rgb(0,0,0)" stroke-linecap="butt" stroke-miterlimit="10.0">
    <path d="M 488.3049,290.5430 l -0.0000,-5.0847 h -381.3559 l -0.0000,5.0847 Z"/>
  </g>
  <g stroke-linejoin="miter" stroke-opacity="0.0" fill-opacity="0.0" stroke="rgb(0,0,0)" fill-rule="evenodd" stroke-width="0.0" fill="rgb(0,0,0)" stroke-linecap="butt" stroke-miterlimit="10.0">
    <path d="M 529.9486,377.1064 l 12.3396,-12.3396 l -67.8679,-67.8679 l -12.3396,12.3396 Z"/>
  </g>
  <g stroke-linejoin="miter" stroke-opacity="1.0" fill-opacity="0.6" font-size="15.864405359341319px" stroke="rgb(0,0,0)" fill-rule="evenodd" stroke-width="0.0" fill="rgb(0,0,0)" stroke-linecap="butt" stroke-miterlimit="10.0">
    <text dominant-baseline="middle" transform="matrix(0.7071,0.7071,-0.7071,0.7071,468.2506,303.0687)" stroke="none" text-anchor="start">31 Aug 2018
    </text>
  </g>
  <g stroke-linejoin="miter" stroke-opacity="0.6" fill-opacity="0.0" stroke="rgb(0,0,0)" stroke-width="2.3097808067006182" fill="rgb(0,0,0)" stroke-linecap="butt" stroke-miterlimit="10.0">
    <path d="M 469.3724,285.4582 v 7.6271 "/>
  </g>
  <g stroke-linejoin="miter" stroke-opacity="0.0" fill-opacity="0.0" stroke="rgb(0,0,0)" fill-rule="evenodd" stroke-width="0.0" fill="rgb(0,0,0)" stroke-linecap="butt" stroke-miterlimit="10.0">
    <path d="M 467.7416,377.1064 l 12.3396,-12.3396 l -67.8679,-67.8679 l -12.3396,12.3396 Z"/>
  </g>
  <g stroke-linejoin="miter" stroke-opacity="1.0" fill-opacity="0.6" font-size="15.864405359341319px" stroke="rgb(0,0,0)" fill-rule="evenodd" stroke-width="0.0" fill="rgb(0,0,0)" stroke-linecap="butt" stroke-miterlimit="10.0">
    <text dominant-baseline="middle" transform="matrix(0.7071,0.7071,-0.7071,0.7071,406.0436,303.0687)" stroke="none" text-anchor="start">31 Jul 2018
    </text>
  </g>
  <g stroke-linejoin="miter" stroke-opacity="0.6" fill-opacity="0.0" stroke="rgb(0,0,0)" stroke-width="2.3097808067006182" fill="rgb(0,0,0)" stroke-linecap="butt" stroke-miterlimit="10.0">
    <path d="M 407.1654,285.4582 v 7.6271 "/>
  </g>
  <g stroke-linejoin="miter" stroke-opacity="0.0" fill-opacity="0.0" stroke="rgb(0,0,0)" fill-rule="evenodd" stroke-width="0.0" fill="rgb(0,0,0)" stroke-linecap="butt" stroke-miterlimit="10.0">
    <path d="M 408.2393,377.1064 l 12.3396,-12.3396 l -67.8679,-67.8679 l -12.3396,12.3396 Z"/>
  </g>
  <g stroke-linejoin="miter" stroke-opacity="1.0" fill-opacity="0.6" font-size="15.864405359341319px" stroke="rgb(0,0,0)" fill-rule="evenodd" stroke-width="0.0" fill="rgb(0,0,0)" stroke-linecap="butt" stroke-miterlimit="10.0">
    <text dominant-baseline="middle" transform="matrix(0.7071,0.7071,-0.7071,0.7071,346.5412,303.0687)" stroke="none" text-anchor="start">30 Jun 2018
    </text>
  </g>
  <g stroke-linejoin="miter" stroke-opacity="0.6" fill-opacity="0.0" stroke="rgb(0,0,0)" stroke-width="2.3097808067006182" fill="rgb(0,0,0)" stroke-linecap="butt" stroke-miterlimit="10.0">
    <path d="M 347.6630,285.4582 v 7.6271 "/>
  </g>
  <g stroke-linejoin="miter" stroke-opacity="0.0" fill-opacity="0.0" stroke="rgb(0,0,0)" fill-rule="evenodd" stroke-width="0.0" fill="rgb(0,0,0)" stroke-linecap="butt" stroke-miterlimit="10.0">
    <path d="M 351.4416,377.1064 l 12.3396,-12.3396 l -67.8679,-67.8679 l -12.3396,12.3396 Z"/>
  </g>
  <g stroke-linejoin="miter" stroke-opacity="1.0" fill-opacity="0.6" font-size="15.864405359341319px" stroke="rgb(0,0,0)" fill-rule="evenodd" stroke-width="0.0" fill="rgb(0,0,0)" stroke-linecap="butt" stroke-miterlimit="10.0">
    <text dominant-baseline="middle" transform="matrix(0.7071,0.7071,-0.7071,0.7071,289.7436,303.0687)" stroke="none" text-anchor="start">31 May 2018
    </text>
  </g>
  <g stroke-linejoin="miter" stroke-opacity="0.6" fill-opacity="0.0" stroke="rgb(0,0,0)" stroke-width="2.3097808067006182" fill="rgb(0,0,0)" stroke-linecap="butt" stroke-miterlimit="10.0">
    <path d="M 290.8653,285.4582 v 7.6271 "/>
  </g>
  <g stroke-linejoin="miter" stroke-opacity="0.0" fill-opacity="0.0" stroke="rgb(0,0,0)" fill-rule="evenodd" stroke-width="0.0" fill="rgb(0,0,0)" stroke-linecap="butt" stroke-miterlimit="10.0">
    <path d="M 289.2346,377.1064 l 12.3396,-12.3396 l -67.8679,-67.8679 l -12.3396,12.3396 Z"/>
  </g>
  <g stroke-linejoin="miter" stroke-opacity="1.0" fill-opacity="0.6" font-size="15.864405359341319px" stroke="rgb(0,0,0)" fill-rule="evenodd" stroke-width="0.0" fill="rgb(0,0,0)" stroke-linecap="butt" stroke-miterlimit="10.0">
    <text dominant-baseline="middle" transform="matrix(0.7071,0.7071,-0.7071,0.7071,227.5366,303.0687)" stroke="none" text-anchor="start">30 Apr 2018
    </text>
  </g>
  <g stroke-linejoin="miter" stroke-opacity="0.6" fill-opacity="0.0" stroke="rgb(0,0,0)" stroke-width="2.3097808067006182" fill="rgb(0,0,0)" stroke-linecap="butt" stroke-miterlimit="10.0">
    <path d="M 228.6583,285.4582 v 7.6271 "/>
  </g>
  <g stroke-linejoin="miter" stroke-opacity="0.0" fill-opacity="0.0" stroke="rgb(0,0,0)" fill-rule="evenodd" stroke-width="0.0" fill="rgb(0,0,0)" stroke-linecap="butt" stroke-miterlimit="10.0">
    <path d="M 232.4369,377.1064 l 12.3396,-12.3396 l -67.8679,-67.8679 l -12.3396,12.3396 Z"/>
  </g>
  <g stroke-linejoin="miter" stroke-opacity="1.0" fill-opacity="0.6" font-size="15.864405359341319px" stroke="rgb(0,0,0)" fill-rule="evenodd" stroke-width="0.0" fill="rgb(0,0,0)" stroke-linecap="butt" stroke-miterlimit="10.0">
    <text dominant-baseline="middle" transform="matrix(0.7071,0.7071,-0.7071,0.7071,170.7389,303.0687)" stroke="none" text-anchor="start">31 Mar 2018
    </text>
  </g>
  <g stroke-linejoin="miter" stroke-opacity="0.6" fill-opacity="0.0" stroke="rgb(0,0,0)" stroke-width="2.3097808067006182" fill="rgb(0,0,0)" stroke-linecap="butt" stroke-miterlimit="10.0">
    <path d="M 171.8607,285.4582 v 7.6271 "/>
  </g>
  <g stroke-linejoin="miter" stroke-opacity="0.0" fill-opacity="0.0" stroke="rgb(0,0,0)" fill-rule="evenodd" stroke-width="0.0" fill="rgb(0,0,0)" stroke-linecap="butt" stroke-miterlimit="10.0">
    <path d="M 172.9346,377.1064 l 12.3396,-12.3396 l -67.8679,-67.8679 l -12.3396,12.3396 Z"/>
  </g>
  <g stroke-linejoin="miter" stroke-opacity="1.0" fill-opacity="0.6" font-size="15.864405359341319px" stroke="rgb(0,0,0)" fill-rule="evenodd" stroke-width="0.0" fill="rgb(0,0,0)" stroke-linecap="butt" stroke-miterlimit="10.0">
    <text dominant-baseline="middle" transform="matrix(0.7071,0.7071,-0.7071,0.7071,111.2365,303.0687)" stroke="none" text-anchor="start">28 Feb 2018
    </text>
  </g>
  <g stroke-linejoin="miter" stroke-opacity="0.6" fill-opacity="0.0" stroke="rgb(0,0,0)" stroke-width="2.3097808067006182" fill="rgb(0,0,0)" stroke-linecap="butt" stroke-miterlimit="10.0">
    <path d="M 112.3583,285.4582 v 7.6271 "/>
  </g>
  <g stroke-linejoin="miter" stroke-opacity="0.0" fill-opacity="0.0" stroke="rgb(0,0,0)" stroke-width="0.0" fill="rgb(0,0,0)" stroke-linecap="butt" stroke-miterlimit="10.0">
    <path d="M 488.3049,275.2887 l -0.0000,-254.2373 h -381.3559 l -0.0000,254.2373 Z"/>
  </g>
</svg>