<?xml version="1.0" encoding="UTF-8"?>
<!DOCTYPE svg PUBLIC "-//W3C//DTD SVG 1.1//EN"
    "http://www.w3.org/Graphics/SVG/1.1/DTD/svg11.dtd">
<svg xmlns="http://www.w3.org/2000/svg" height="400.0000" stroke-opacity="1" viewBox="0 0 600 400" font-size="1" width="600.0000" xmlns:xlink="http://www.w3.org/1999/xlink" stroke="rgb(0,0,0)" version="1.1">
  <defs>
  </defs>
  <g stroke-linejoin="miter" stroke-opacity="0.0" fill-opacity="0.0" stroke="rgb(0,0,0)" fill-rule="evenodd" stroke-width="0.0" fill="rgb(0,0,0)" stroke-linecap="butt" stroke-miterlimit="10.0">
    <path d="M 511.1204,22.3457 l -0.0000,-17.8224 h -98.0233 l -0.0000,17.8224 Z"/>
  </g>
  <g stroke-linejoin="miter" stroke-opacity="1.0" fill-opacity="0.33" font-size="16.202205207224342px" stroke="rgb(0,0,0)" fill-rule="evenodd" stroke-width="0.0" fill="rgb(0,0,0)" stroke-linecap="butt" stroke-miterlimit="10.0">
    <text dominant-baseline="middle" transform="matrix(1.0000,-0.0000,0.0000,1.0000,462.1087,13.4345)" stroke="none" text-anchor="middle">Fri, 30 Nov
    </text>
  </g>
  <g stroke-linejoin="miter" stroke-opacity="1.0" fill-opacity="1.0" stroke="rgb(102,102,102)" stroke-width="0.0" fill="rgb(0,0,255)" stroke-linecap="butt" stroke-miterlimit="10.0">
    <path d="M 467.3017,45.7143 l -0.0000,-10.3860 h -10.3860 l -0.0000,10.3860 Z"/>
  </g>
  <g stroke-linejoin="miter" stroke-opacity="0.0" fill-opacity="0.0" stroke="rgb(0,0,0)" fill-rule="evenodd" stroke-width="0.0" fill="rgb(0,0,0)" stroke-linecap="butt" stroke-miterlimit="10.0">
    <path d="M 450.7790,61.6867 l -0.0000,-17.8224 h -98.0233 l -0.0000,17.8224 Z"/>
  </g>
  <g stroke-linejoin="miter" stroke-opacity="1.0" fill-opacity="0.33" font-size="16.202205207224342px" stroke="rgb(0,0,0)" fill-rule="evenodd" stroke-width="0.0" fill="rgb(0,0,0)" stroke-linecap="butt" stroke-miterlimit="10.0">
    <text dominant-baseline="middle" transform="matrix(1.0000,-0.0000,0.0000,1.0000,401.7674,52.7755)" stroke="none" text-anchor="middle">Wed, 31 Oct
    </text>
  </g>
  <g stroke-linejoin="miter" stroke-opacity="1.0" fill-opacity="1.0" stroke="rgb(102,102,102)" stroke-width="0.0" fill="rgb(0,0,255)" stroke-linecap="butt" stroke-miterlimit="10.0">
    <path d="M 406.9604,85.0553 l -0.0000,-10.3860 h -10.3860 l -0.0000,10.3860 Z"/>
  </g>
  <g stroke-linejoin="miter" stroke-opacity="0.0" fill-opacity="0.0" stroke="rgb(0,0,0)" fill-rule="evenodd" stroke-width="0.0" fill="rgb(0,0,0)" stroke-linecap="butt" stroke-miterlimit="10.0">
    <path d="M 387.6949,104.9618 l -0.0000,-17.8224 h -98.0233 l -0.0000,17.8224 Z"/>
  </g>
  <g stroke-linejoin="miter" stroke-opacity="1.0" fill-opacity="0.33" font-size="16.202205207224342px" stroke="rgb(0,0,0)" fill-rule="evenodd" stroke-width="0.0" fill="rgb(0,0,0)" stroke-linecap="butt" stroke-miterlimit="10.0">
    <text dominant-baseline="middle" transform="matrix(1.0000,-0.0000,0.0000,1.0000,338.6832,96.0506)" stroke="none" text-anchor="middle">Fri, 28 Sep
    </text>
  </g>
  <g stroke-linejoin="miter" stroke-opacity="1.0" fill-opacity="1.0" stroke="rgb(102,102,102)" stroke-width="0.0" fill="rgb(0,0,255)" stroke-linecap="butt" stroke-miterlimit="10.0">
    <path d="M 343.8762,128.3304 l -0.0000,-10.3860 h -10.3860 l -0.0000,10.3860 Z"/>
  </g>
  <g stroke-linejoin="miter" stroke-opacity="0.0" fill-opacity="0.0" stroke="rgb(0,0,0)" fill-rule="evenodd" stroke-width="0.0" fill="rgb(0,0,0)" stroke-linecap="butt" stroke-miterlimit="10.0">
    <path d="M 332.8391,141.6801 l -0.0000,-17.8224 h -98.0233 l -0.0000,17.8224 Z"/>
  </g>
  <g stroke-linejoin="miter" stroke-opacity="1.0" fill-opacity="0.33" font-size="16.202205207224342px" stroke="rgb(0,0,0)" fill-rule="evenodd" stroke-width="0.0" fill="rgb(0,0,0)" stroke-linecap="butt" stroke-miterlimit="10.0">
    <text dominant-baseline="middle" transform="matrix(1.0000,-0.0000,0.0000,1.0000,283.8274,132.7689)" stroke="none" text-anchor="middle">Fri, 31 Aug
    </text>
  </g>
  <g stroke-linejoin="miter" stroke-opacity="1.0" fill-opacity="1.0" stroke="rgb(102,102,102)" stroke-width="0.0" fill="rgb(0,0,255)" stroke-linecap="butt" stroke-miterlimit="10.0">
    <path d="M 289.0204,165.0487 l -0.0000,-10.3860 h -10.3860 l -0.0000,10.3860 Z"/>
  </g>
  <g stroke-linejoin="miter" stroke-opacity="0.0" fill-opacity="0.0" stroke="rgb(0,0,0)" fill-rule="evenodd" stroke-width="0.0" fill="rgb(0,0,0)" stroke-linecap="butt" stroke-miterlimit="10.0">
    <path d="M 269.7549,182.3325 l -0.0000,-17.8224 h -98.0233 l -0.0000,17.8224 Z"/>
  </g>
  <g stroke-linejoin="miter" stroke-opacity="1.0" fill-opacity="0.33" font-size="16.202205207224342px" stroke="rgb(0,0,0)" fill-rule="evenodd" stroke-width="0.0" fill="rgb(0,0,0)" stroke-linecap="butt" stroke-miterlimit="10.0">
    <text dominant-baseline="middle" transform="matrix(1.0000,-0.0000,0.0000,1.0000,220.7433,173.4213)" stroke="none" text-anchor="middle">Tue, 31 Jul
    </text>
  </g>
  <g stroke-linejoin="miter" stroke-opacity="1.0" fill-opacity="1.0" stroke="rgb(102,102,102)" stroke-width="0.0" fill="rgb(0,0,255)" stroke-linecap="butt" stroke-miterlimit="10.0">
    <path d="M 225.9363,205.7011 l -0.0000,-10.3860 h -10.3860 l -0.0000,10.3860 Z"/>
  </g>
  <g stroke-linejoin="miter" stroke-opacity="0.0" fill-opacity="0.0" stroke="rgb(0,0,0)" fill-rule="evenodd" stroke-width="0.0" fill="rgb(0,0,0)" stroke-linecap="butt" stroke-miterlimit="10.0">
    <path d="M 209.4136,224.2963 l -0.0000,-17.8224 h -98.0233 l -0.0000,17.8224 Z"/>
  </g>
  <g stroke-linejoin="miter" stroke-opacity="1.0" fill-opacity="0.33" font-size="16.202205207224342px" stroke="rgb(0,0,0)" fill-rule="evenodd" stroke-width="0.0" fill="rgb(0,0,0)" stroke-linecap="butt" stroke-miterlimit="10.0">
    <text dominant-baseline="middle" transform="matrix(1.0000,-0.0000,0.0000,1.0000,160.4019,215.3850)" stroke="none" text-anchor="middle">Fri, 29 Jun
    </text>
  </g>
  <g stroke-linejoin="miter" stroke-opacity="1.0" fill-opacity="1.0" stroke="rgb(102,102,102)" stroke-width="0.0" fill="rgb(0,0,255)" stroke-linecap="butt" stroke-miterlimit="10.0">
    <path d="M 165.5949,247.6648 l -0.0000,-10.3860 h -10.3860 l -0.0000,10.3860 Z"/>
  </g>
  <g stroke-linejoin="miter" stroke-opacity="1.0" fill-opacity="1.0" stroke="rgb(102,102,102)" stroke-width="0.0" fill="rgb(255,0,0)" stroke-linecap="butt" stroke-miterlimit="10.0">
    <path d="M 504.5488,12.9825 c 0.0000,-0.7170 -0.5812,-1.2983 -1.2983 -1.2983c -0.7170,-0.0000 -1.2983,0.5812 -1.2983 1.2983c -0.0000,0.7170 0.5812,1.2983 1.2983 1.2983c 0.7170,0.0000 1.2983,-0.5812 1.2983 -1.2983Z"/>
  </g>
  <g stroke-linejoin="miter" stroke-opacity="1.0" fill-opacity="1.0" stroke="rgb(102,102,102)" stroke-width="0.0" fill="rgb(255,0,0)" stroke-linecap="butt" stroke-miterlimit="10.0">
    <path d="M 501.8060,14.2939 c 0.0000,-0.7170 -0.5812,-1.2983 -1.2983 -1.2983c -0.7170,-0.0000 -1.2983,0.5812 -1.2983 1.2983c -0.0000,0.7170 0.5812,1.2983 1.2983 1.2983c 0.7170,0.0000 1.2983,-0.5812 1.2983 -1.2983Z"/>
  </g>
  <g stroke-linejoin="miter" stroke-opacity="1.0" fill-opacity="1.0" stroke="rgb(102,102,102)" stroke-width="0.0" fill="rgb(255,0,0)" stroke-linecap="butt" stroke-miterlimit="10.0">
    <path d="M 499.0632,15.6053 c 0.0000,-0.7170 -0.5812,-1.2983 -1.2983 -1.2983c -0.7170,-0.0000 -1.2983,0.5812 -1.2983 1.2983c -0.0000,0.7170 0.5812,1.2983 1.2983 1.2983c 0.7170,0.0000 1.2983,-0.5812 1.2983 -1.2983Z"/>
  </g>
  <g stroke-linejoin="miter" stroke-opacity="1.0" fill-opacity="1.0" stroke="rgb(102,102,102)" stroke-width="0.0" fill="rgb(255,0,0)" stroke-linecap="butt" stroke-miterlimit="10.0">
    <path d="M 496.3204,16.9166 c 0.0000,-0.7170 -0.5812,-1.2983 -1.2983 -1.2983c -0.7170,-0.0000 -1.2983,0.5812 -1.2983 1.2983c -0.0000,0.7170 0.5812,1.2983 1.2983 1.2983c 0.7170,0.0000 1.2983,-0.5812 1.2983 -1.2983Z"/>
  </g>
  <g stroke-linejoin="miter" stroke-opacity="1.0" fill-opacity="1.0" stroke="rgb(102,102,102)" stroke-width="0.0" fill="rgb(255,0,0)" stroke-linecap="butt" stroke-miterlimit="10.0">
    <path d="M 493.5777,18.2280 c 0.0000,-0.7170 -0.5812,-1.2983 -1.2983 -1.2983c -0.7170,-0.0000 -1.2983,0.5812 -1.2983 1.2983c -0.0000,0.7170 0.5812,1.2983 1.2983 1.2983c 0.7170,0.0000 1.2983,-0.5812 1.2983 -1.2983Z"/>
  </g>
  <g stroke-linejoin="miter" stroke-opacity="1.0" fill-opacity="1.0" stroke="rgb(102,102,102)" stroke-width="0.0" fill="rgb(255,0,0)" stroke-linecap="butt" stroke-miterlimit="10.0">
    <path d="M 490.8349,22.1621 c 0.0000,-0.7170 -0.5812,-1.2983 -1.2983 -1.2983c -0.7170,-0.0000 -1.2983,0.5812 -1.2983 1.2983c -0.0000,0.7170 0.5812,1.2983 1.2983 1.2983c 0.7170,0.0000 1.2983,-0.5812 1.2983 -1.2983Z"/>
  </g>
  <g stroke-linejoin="miter" stroke-opacity="1.0" fill-opacity="1.0" stroke="rgb(102,102,102)" stroke-width="0.0" fill="rgb(255,0,0)" stroke-linecap="butt" stroke-miterlimit="10.0">
    <path d="M 488.0921,23.4735 c 0.0000,-0.7170 -0.5812,-1.2983 -1.2983 -1.2983c -0.7170,-0.0000 -1.2983,0.5812 -1.2983 1.2983c -0.0000,0.7170 0.5812,1.2983 1.2983 1.2983c 0.7170,0.0000 1.2983,-0.5812 1.2983 -1.2983Z"/>
  </g>
  <g stroke-linejoin="miter" stroke-opacity="1.0" fill-opacity="1.0" stroke="rgb(102,102,102)" stroke-width="0.0" fill="rgb(255,0,0)" stroke-linecap="butt" stroke-miterlimit="10.0">
    <path d="M 485.3493,24.7848 c 0.0000,-0.7170 -0.5812,-1.2983 -1.2983 -1.2983c -0.7170,-0.0000 -1.2983,0.5812 -1.2983 1.2983c -0.0000,0.7170 0.5812,1.2983 1.2983 1.2983c 0.7170,0.0000 1.2983,-0.5812 1.2983 -1.2983Z"/>
  </g>
  <g stroke-linejoin="miter" stroke-opacity="1.0" fill-opacity="1.0" stroke="rgb(102,102,102)" stroke-width="0.0" fill="rgb(255,0,0)" stroke-linecap="butt" stroke-miterlimit="10.0">
    <path d="M 482.6065,26.0962 c 0.0000,-0.7170 -0.5812,-1.2983 -1.2983 -1.2983c -0.7170,-0.0000 -1.2983,0.5812 -1.2983 1.2983c -0.0000,0.7170 0.5812,1.2983 1.2983 1.2983c 0.7170,0.0000 1.2983,-0.5812 1.2983 -1.2983Z"/>
  </g>
  <g stroke-linejoin="miter" stroke-opacity="1.0" fill-opacity="1.0" stroke="rgb(102,102,102)" stroke-width="0.0" fill="rgb(255,0,0)" stroke-linecap="butt" stroke-miterlimit="10.0">
    <path d="M 479.8637,27.4076 c 0.0000,-0.7170 -0.5812,-1.2983 -1.2983 -1.2983c -0.7170,-0.0000 -1.2983,0.5812 -1.2983 1.2983c -0.0000,0.7170 0.5812,1.2983 1.2983 1.2983c 0.7170,0.0000 1.2983,-0.5812 1.2983 -1.2983Z"/>
  </g>
  <g stroke-linejoin="miter" stroke-opacity="1.0" fill-opacity="1.0" stroke="rgb(102,102,102)" stroke-width="0.0" fill="rgb(255,0,0)" stroke-linecap="butt" stroke-miterlimit="10.0">
    <path d="M 477.1209,31.3417 c 0.0000,-0.7170 -0.5812,-1.2983 -1.2983 -1.2983c -0.7170,-0.0000 -1.2983,0.5812 -1.2983 1.2983c -0.0000,0.7170 0.5812,1.2983 1.2983 1.2983c 0.7170,0.0000 1.2983,-0.5812 1.2983 -1.2983Z"/>
  </g>
  <g stroke-linejoin="miter" stroke-opacity="1.0" fill-opacity="1.0" stroke="rgb(102,102,102)" stroke-width="0.0" fill="rgb(255,0,0)" stroke-linecap="butt" stroke-miterlimit="10.0">
    <path d="M 474.3781,32.6530 c 0.0000,-0.7170 -0.5812,-1.2983 -1.2983 -1.2983c -0.7170,-0.0000 -1.2983,0.5812 -1.2983 1.2983c -0.0000,0.7170 0.5812,1.2983 1.2983 1.2983c 0.7170,0.0000 1.2983,-0.5812 1.2983 -1.2983Z"/>
  </g>
  <g stroke-linejoin="miter" stroke-opacity="1.0" fill-opacity="1.0" stroke="rgb(102,102,102)" stroke-width="0.0" fill="rgb(255,0,0)" stroke-linecap="butt" stroke-miterlimit="10.0">
    <path d="M 471.6353,33.9644 c 0.0000,-0.7170 -0.5812,-1.2983 -1.2983 -1.2983c -0.7170,-0.0000 -1.2983,0.5812 -1.2983 1.2983c -0.0000,0.7170 0.5812,1.2983 1.2983 1.2983c 0.7170,0.0000 1.2983,-0.5812 1.2983 -1.2983Z"/>
  </g>
  <g stroke-linejoin="miter" stroke-opacity="1.0" fill-opacity="1.0" stroke="rgb(102,102,102)" stroke-width="0.0" fill="rgb(255,0,0)" stroke-linecap="butt" stroke-miterlimit="10.0">
    <path d="M 468.8926,35.2758 c 0.0000,-0.7170 -0.5812,-1.2983 -1.2983 -1.2983c -0.7170,-0.0000 -1.2983,0.5812 -1.2983 1.2983c -0.0000,0.7170 0.5812,1.2983 1.2983 1.2983c 0.7170,0.0000 1.2983,-0.5812 1.2983 -1.2983Z"/>
  </g>
  <g stroke-linejoin="miter" stroke-opacity="1.0" fill-opacity="1.0" stroke="rgb(102,102,102)" stroke-width="0.0" fill="rgb(255,0,0)" stroke-linecap="butt" stroke-miterlimit="10.0">
    <path d="M 466.1498,36.5871 c 0.0000,-0.7170 -0.5812,-1.2983 -1.2983 -1.2983c -0.7170,-0.0000 -1.2983,0.5812 -1.2983 1.2983c -0.0000,0.7170 0.5812,1.2983 1.2983 1.2983c 0.7170,0.0000 1.2983,-0.5812 1.2983 -1.2983Z"/>
  </g>
  <g stroke-linejoin="miter" stroke-opacity="1.0" fill-opacity="1.0" stroke="rgb(102,102,102)" stroke-width="0.0" fill="rgb(255,0,0)" stroke-linecap="butt" stroke-miterlimit="10.0">
    <path d="M 463.4070,40.5212 c 0.0000,-0.7170 -0.5812,-1.2983 -1.2983 -1.2983c -0.7170,-0.0000 -1.2983,0.5812 -1.2983 1.2983c -0.0000,0.7170 0.5812,1.2983 1.2983 1.2983c 0.7170,0.0000 1.2983,-0.5812 1.2983 -1.2983Z"/>
  </g>
  <g stroke-linejoin="miter" stroke-opacity="1.0" fill-opacity="1.0" stroke="rgb(102,102,102)" stroke-width="0.0" fill="rgb(255,0,0)" stroke-linecap="butt" stroke-miterlimit="10.0">
    <path d="M 460.6642,41.8326 c 0.0000,-0.7170 -0.5812,-1.2983 -1.2983 -1.2983c -0.7170,-0.0000 -1.2983,0.5812 -1.2983 1.2983c -0.0000,0.7170 0.5812,1.2983 1.2983 1.2983c 0.7170,0.0000 1.2983,-0.5812 1.2983 -1.2983Z"/>
  </g>
  <g stroke-linejoin="miter" stroke-opacity="1.0" fill-opacity="1.0" stroke="rgb(102,102,102)" stroke-width="0.0" fill="rgb(255,0,0)" stroke-linecap="butt" stroke-miterlimit="10.0">
    <path d="M 457.9214,43.1440 c 0.0000,-0.7170 -0.5812,-1.2983 -1.2983 -1.2983c -0.7170,-0.0000 -1.2983,0.5812 -1.2983 1.2983c -0.0000,0.7170 0.5812,1.2983 1.2983 1.2983c 0.7170,0.0000 1.2983,-0.5812 1.2983 -1.2983Z"/>
  </g>
  <g stroke-linejoin="miter" stroke-opacity="1.0" fill-opacity="1.0" stroke="rgb(102,102,102)" stroke-width="0.0" fill="rgb(255,0,0)" stroke-linecap="butt" stroke-miterlimit="10.0">
    <path d="M 455.1786,44.4554 c 0.0000,-0.7170 -0.5812,-1.2983 -1.2983 -1.2983c -0.7170,-0.0000 -1.2983,0.5812 -1.2983 1.2983c -0.0000,0.7170 0.5812,1.2983 1.2983 1.2983c 0.7170,0.0000 1.2983,-0.5812 1.2983 -1.2983Z"/>
  </g>
  <g stroke-linejoin="miter" stroke-opacity="1.0" fill-opacity="1.0" stroke="rgb(102,102,102)" stroke-width="0.0" fill="rgb(255,0,0)" stroke-linecap="butt" stroke-miterlimit="10.0">
    <path d="M 452.4358,45.7667 c 0.0000,-0.7170 -0.5812,-1.2983 -1.2983 -1.2983c -0.7170,-0.0000 -1.2983,0.5812 -1.2983 1.2983c -0.0000,0.7170 0.5812,1.2983 1.2983 1.2983c 0.7170,0.0000 1.2983,-0.5812 1.2983 -1.2983Z"/>
  </g>
  <g stroke-linejoin="miter" stroke-opacity="1.0" fill-opacity="1.0" stroke="rgb(102,102,102)" stroke-width="0.0" fill="rgb(255,0,0)" stroke-linecap="butt" stroke-miterlimit="10.0">
    <path d="M 449.6930,49.7008 c 0.0000,-0.7170 -0.5812,-1.2983 -1.2983 -1.2983c -0.7170,-0.0000 -1.2983,0.5812 -1.2983 1.2983c -0.0000,0.7170 0.5812,1.2983 1.2983 1.2983c 0.7170,0.0000 1.2983,-0.5812 1.2983 -1.2983Z"/>
  </g>
  <g stroke-linejoin="miter" stroke-opacity="1.0" fill-opacity="1.0" stroke="rgb(102,102,102)" stroke-width="0.0" fill="rgb(255,0,0)" stroke-linecap="butt" stroke-miterlimit="10.0">
    <path d="M 446.9502,51.0122 c 0.0000,-0.7170 -0.5812,-1.2983 -1.2983 -1.2983c -0.7170,-0.0000 -1.2983,0.5812 -1.2983 1.2983c -0.0000,0.7170 0.5812,1.2983 1.2983 1.2983c 0.7170,0.0000 1.2983,-0.5812 1.2983 -1.2983Z"/>
  </g>
  <g stroke-linejoin="miter" stroke-opacity="1.0" fill-opacity="1.0" stroke="rgb(102,102,102)" stroke-width="0.0" fill="rgb(255,0,0)" stroke-linecap="butt" stroke-miterlimit="10.0">
    <path d="M 444.2075,52.3236 c 0.0000,-0.7170 -0.5812,-1.2983 -1.2983 -1.2983c -0.7170,-0.0000 -1.2983,0.5812 -1.2983 1.2983c -0.0000,0.7170 0.5812,1.2983 1.2983 1.2983c 0.7170,0.0000 1.2983,-0.5812 1.2983 -1.2983Z"/>
  </g>
  <g stroke-linejoin="miter" stroke-opacity="1.0" fill-opacity="1.0" stroke="rgb(102,102,102)" stroke-width="0.0" fill="rgb(255,0,0)" stroke-linecap="butt" stroke-miterlimit="10.0">
    <path d="M 441.4647,53.6349 c 0.0000,-0.7170 -0.5812,-1.2983 -1.2983 -1.2983c -0.7170,-0.0000 -1.2983,0.5812 -1.2983 1.2983c -0.0000,0.7170 0.5812,1.2983 1.2983 1.2983c 0.7170,0.0000 1.2983,-0.5812 1.2983 -1.2983Z"/>
  </g>
  <g stroke-linejoin="miter" stroke-opacity="1.0" fill-opacity="1.0" stroke="rgb(102,102,102)" stroke-width="0.0" fill="rgb(255,0,0)" stroke-linecap="butt" stroke-miterlimit="10.0">
    <path d="M 438.7219,54.9463 c 0.0000,-0.7170 -0.5812,-1.2983 -1.2983 -1.2983c -0.7170,-0.0000 -1.2983,0.5812 -1.2983 1.2983c -0.0000,0.7170 0.5812,1.2983 1.2983 1.2983c 0.7170,0.0000 1.2983,-0.5812 1.2983 -1.2983Z"/>
  </g>
  <g stroke-linejoin="miter" stroke-opacity="1.0" fill-opacity="1.0" stroke="rgb(102,102,102)" stroke-width="0.0" fill="rgb(255,0,0)" stroke-linecap="butt" stroke-miterlimit="10.0">
    <path d="M 435.9791,58.8804 c 0.0000,-0.7170 -0.5812,-1.2983 -1.2983 -1.2983c -0.7170,-0.0000 -1.2983,0.5812 -1.2983 1.2983c -0.0000,0.7170 0.5812,1.2983 1.2983 1.2983c 0.7170,0.0000 1.2983,-0.5812 1.2983 -1.2983Z"/>
  </g>
  <g stroke-linejoin="miter" stroke-opacity="1.0" fill-opacity="1.0" stroke="rgb(102,102,102)" stroke-width="0.0" fill="rgb(255,0,0)" stroke-linecap="butt" stroke-miterlimit="10.0">
    <path d="M 433.2363,60.1918 c 0.0000,-0.7170 -0.5812,-1.2983 -1.2983 -1.2983c -0.7170,-0.0000 -1.2983,0.5812 -1.2983 1.2983c -0.0000,0.7170 0.5812,1.2983 1.2983 1.2983c 0.7170,0.0000 1.2983,-0.5812 1.2983 -1.2983Z"/>
  </g>
  <g stroke-linejoin="miter" stroke-opacity="1.0" fill-opacity="1.0" stroke="rgb(102,102,102)" stroke-width="0.0" fill="rgb(255,0,0)" stroke-linecap="butt" stroke-miterlimit="10.0">
    <path d="M 430.4935,61.5031 c 0.0000,-0.7170 -0.5812,-1.2983 -1.2983 -1.2983c -0.7170,-0.0000 -1.2983,0.5812 -1.2983 1.2983c -0.0000,0.7170 0.5812,1.2983 1.2983 1.2983c 0.7170,0.0000 1.2983,-0.5812 1.2983 -1.2983Z"/>
  </g>
  <g stroke-linejoin="miter" stroke-opacity="1.0" fill-opacity="1.0" stroke="rgb(102,102,102)" stroke-width="0.0" fill="rgb(255,0,0)" stroke-linecap="butt" stroke-miterlimit="10.0">
    <path d="M 427.7507,62.8145 c 0.0000,-0.7170 -0.5812,-1.2983 -1.2983 -1.2983c -0.7170,-0.0000 -1.2983,0.5812 -1.2983 1.2983c -0.0000,0.7170 0.5812,1.2983 1.2983 1.2983c 0.7170,0.0000 1.2983,-0.5812 1.2983 -1.2983Z"/>
  </g>
  <g stroke-linejoin="miter" stroke-opacity="1.0" fill-opacity="1.0" stroke="rgb(102,102,102)" stroke-width="0.0" fill="rgb(255,0,0)" stroke-linecap="butt" stroke-miterlimit="10.0">
    <path d="M 425.0079,64.1259 c 0.0000,-0.7170 -0.5812,-1.2983 -1.2983 -1.2983c -0.7170,-0.0000 -1.2983,0.5812 -1.2983 1.2983c -0.0000,0.7170 0.5812,1.2983 1.2983 1.2983c 0.7170,0.0000 1.2983,-0.5812 1.2983 -1.2983Z"/>
  </g>
  <g stroke-linejoin="miter" stroke-opacity="1.0" fill-opacity="1.0" stroke="rgb(102,102,102)" stroke-width="0.0" fill="rgb(255,0,0)" stroke-linecap="butt" stroke-miterlimit="10.0">
    <path d="M 422.2651,68.0600 c 0.0000,-0.7170 -0.5812,-1.2983 -1.2983 -1.2983c -0.7170,-0.0000 -1.2983,0.5812 -1.2983 1.2983c -0.0000,0.7170 0.5812,1.2983 1.2983 1.2983c 0.7170,0.0000 1.2983,-0.5812 1.2983 -1.2983Z"/>
  </g>
  <g stroke-linejoin="miter" stroke-opacity="1.0" fill-opacity="1.0" stroke="rgb(102,102,102)" stroke-width="0.0" fill="rgb(255,0,0)" stroke-linecap="butt" stroke-miterlimit="10.0">
    <path d="M 419.5223,69.3713 c 0.0000,-0.7170 -0.5812,-1.2983 -1.2983 -1.2983c -0.7170,-0.0000 -1.2983,0.5812 -1.2983 1.2983c -0.0000,0.7170 0.5812,1.2983 1.2983 1.2983c 0.7170,0.0000 1.2983,-0.5812 1.2983 -1.2983Z"/>
  </g>
  <g stroke-linejoin="miter" stroke-opacity="1.0" fill-opacity="1.0" stroke="rgb(102,102,102)" stroke-width="0.0" fill="rgb(255,0,0)" stroke-linecap="butt" stroke-miterlimit="10.0">
    <path d="M 416.7796,70.6827 c 0.0000,-0.7170 -0.5812,-1.2983 -1.2983 -1.2983c -0.7170,-0.0000 -1.2983,0.5812 -1.2983 1.2983c -0.0000,0.7170 0.5812,1.2983 1.2983 1.2983c 0.7170,0.0000 1.2983,-0.5812 1.2983 -1.2983Z"/>
  </g>
  <g stroke-linejoin="miter" stroke-opacity="1.0" fill-opacity="1.0" stroke="rgb(102,102,102)" stroke-width="0.0" fill="rgb(255,0,0)" stroke-linecap="butt" stroke-miterlimit="10.0">
    <path d="M 414.0368,71.9941 c 0.0000,-0.7170 -0.5812,-1.2983 -1.2983 -1.2983c -0.7170,-0.0000 -1.2983,0.5812 -1.2983 1.2983c -0.0000,0.7170 0.5812,1.2983 1.2983 1.2983c 0.7170,0.0000 1.2983,-0.5812 1.2983 -1.2983Z"/>
  </g>
  <g stroke-linejoin="miter" stroke-opacity="1.0" fill-opacity="1.0" stroke="rgb(102,102,102)" stroke-width="0.0" fill="rgb(255,0,0)" stroke-linecap="butt" stroke-miterlimit="10.0">
    <path d="M 411.2940,73.3054 c 0.0000,-0.7170 -0.5812,-1.2983 -1.2983 -1.2983c -0.7170,-0.0000 -1.2983,0.5812 -1.2983 1.2983c -0.0000,0.7170 0.5812,1.2983 1.2983 1.2983c 0.7170,0.0000 1.2983,-0.5812 1.2983 -1.2983Z"/>
  </g>
  <g stroke-linejoin="miter" stroke-opacity="1.0" fill-opacity="1.0" stroke="rgb(102,102,102)" stroke-width="0.0" fill="rgb(255,0,0)" stroke-linecap="butt" stroke-miterlimit="10.0">
    <path d="M 408.5512,77.2395 c 0.0000,-0.7170 -0.5812,-1.2983 -1.2983 -1.2983c -0.7170,-0.0000 -1.2983,0.5812 -1.2983 1.2983c -0.0000,0.7170 0.5812,1.2983 1.2983 1.2983c 0.7170,0.0000 1.2983,-0.5812 1.2983 -1.2983Z"/>
  </g>
  <g stroke-linejoin="miter" stroke-opacity="1.0" fill-opacity="1.0" stroke="rgb(102,102,102)" stroke-width="0.0" fill="rgb(255,0,0)" stroke-linecap="butt" stroke-miterlimit="10.0">
    <path d="M 405.8084,78.5509 c 0.0000,-0.7170 -0.5812,-1.2983 -1.2983 -1.2983c -0.7170,-0.0000 -1.2983,0.5812 -1.2983 1.2983c -0.0000,0.7170 0.5812,1.2983 1.2983 1.2983c 0.7170,0.0000 1.2983,-0.5812 1.2983 -1.2983Z"/>
  </g>
  <g stroke-linejoin="miter" stroke-opacity="1.0" fill-opacity="1.0" stroke="rgb(102,102,102)" stroke-width="0.0" fill="rgb(255,0,0)" stroke-linecap="butt" stroke-miterlimit="10.0">
    <path d="M 403.0656,79.8623 c 0.0000,-0.7170 -0.5812,-1.2983 -1.2983 -1.2983c -0.7170,-0.0000 -1.2983,0.5812 -1.2983 1.2983c -0.0000,0.7170 0.5812,1.2983 1.2983 1.2983c 0.7170,0.0000 1.2983,-0.5812 1.2983 -1.2983Z"/>
  </g>
  <g stroke-linejoin="miter" stroke-opacity="1.0" fill-opacity="1.0" stroke="rgb(102,102,102)" stroke-width="0.0" fill="rgb(255,0,0)" stroke-linecap="butt" stroke-miterlimit="10.0">
    <path d="M 400.3228,81.1736 c 0.0000,-0.7170 -0.5812,-1.2983 -1.2983 -1.2983c -0.7170,-0.0000 -1.2983,0.5812 -1.2983 1.2983c -0.0000,0.7170 0.5812,1.2983 1.2983 1.2983c 0.7170,0.0000 1.2983,-0.5812 1.2983 -1.2983Z"/>
  </g>
  <g stroke-linejoin="miter" stroke-opacity="1.0" fill-opacity="1.0" stroke="rgb(102,102,102)" stroke-width="0.0" fill="rgb(255,0,0)" stroke-linecap="butt" stroke-miterlimit="10.0">
    <path d="M 397.5800,82.4850 c 0.0000,-0.7170 -0.5812,-1.2983 -1.2983 -1.2983c -0.7170,-0.0000 -1.2983,0.5812 -1.2983 1.2983c -0.0000,0.7170 0.5812,1.2983 1.2983 1.2983c 0.7170,0.0000 1.2983,-0.5812 1.2983 -1.2983Z"/>
  </g>
  <g stroke-linejoin="miter" stroke-opacity="1.0" fill-opacity="1.0" stroke="rgb(102,102,102)" stroke-width="0.0" fill="rgb(255,0,0)" stroke-linecap="butt" stroke-miterlimit="10.0">
    <path d="M 394.8372,86.4191 c 0.0000,-0.7170 -0.5812,-1.2983 -1.2983 -1.2983c -0.7170,-0.0000 -1.2983,0.5812 -1.2983 1.2983c -0.0000,0.7170 0.5812,1.2983 1.2983 1.2983c 0.7170,0.0000 1.2983,-0.5812 1.2983 -1.2983Z"/>
  </g>
  <g stroke-linejoin="miter" stroke-opacity="1.0" fill-opacity="1.0" stroke="rgb(102,102,102)" stroke-width="0.0" fill="rgb(255,0,0)" stroke-linecap="butt" stroke-miterlimit="10.0">
    <path d="M 392.0945,87.7305 c 0.0000,-0.7170 -0.5812,-1.2983 -1.2983 -1.2983c -0.7170,-0.0000 -1.2983,0.5812 -1.2983 1.2983c -0.0000,0.7170 0.5812,1.2983 1.2983 1.2983c 0.7170,0.0000 1.2983,-0.5812 1.2983 -1.2983Z"/>
  </g>
  <g stroke-linejoin="miter" stroke-opacity="1.0" fill-opacity="1.0" stroke="rgb(102,102,102)" stroke-width="0.0" fill="rgb(255,0,0)" stroke-linecap="butt" stroke-miterlimit="10.0">
    <path d="M 389.3517,89.0418 c 0.0000,-0.7170 -0.5812,-1.2983 -1.2983 -1.2983c -0.7170,-0.0000 -1.2983,0.5812 -1.2983 1.2983c -0.0000,0.7170 0.5812,1.2983 1.2983 1.2983c 0.7170,0.0000 1.2983,-0.5812 1.2983 -1.2983Z"/>
  </g>
  <g stroke-linejoin="miter" stroke-opacity="1.0" fill-opacity="1.0" stroke="rgb(102,102,102)" stroke-width="0.0" fill="rgb(255,0,0)" stroke-linecap="butt" stroke-miterlimit="10.0">
    <path d="M 386.6089,90.3532 c 0.0000,-0.7170 -0.5812,-1.2983 -1.2983 -1.2983c -0.7170,-0.0000 -1.2983,0.5812 -1.2983 1.2983c -0.0000,0.7170 0.5812,1.2983 1.2983 1.2983c 0.7170,0.0000 1.2983,-0.5812 1.2983 -1.2983Z"/>
  </g>
  <g stroke-linejoin="miter" stroke-opacity="1.0" fill-opacity="1.0" stroke="rgb(102,102,102)" stroke-width="0.0" fill="rgb(255,0,0)" stroke-linecap="butt" stroke-miterlimit="10.0">
    <path d="M 383.8661,91.6646 c 0.0000,-0.7170 -0.5812,-1.2983 -1.2983 -1.2983c -0.7170,-0.0000 -1.2983,0.5812 -1.2983 1.2983c -0.0000,0.7170 0.5812,1.2983 1.2983 1.2983c 0.7170,0.0000 1.2983,-0.5812 1.2983 -1.2983Z"/>
  </g>
  <g stroke-linejoin="miter" stroke-opacity="1.0" fill-opacity="1.0" stroke="rgb(102,102,102)" stroke-width="0.0" fill="rgb(255,0,0)" stroke-linecap="butt" stroke-miterlimit="10.0">
    <path d="M 381.1233,95.5987 c 0.0000,-0.7170 -0.5812,-1.2983 -1.2983 -1.2983c -0.7170,-0.0000 -1.2983,0.5812 -1.2983 1.2983c -0.0000,0.7170 0.5812,1.2983 1.2983 1.2983c 0.7170,0.0000 1.2983,-0.5812 1.2983 -1.2983Z"/>
  </g>
  <g stroke-linejoin="miter" stroke-opacity="1.0" fill-opacity="1.0" stroke="rgb(102,102,102)" stroke-width="0.0" fill="rgb(255,0,0)" stroke-linecap="butt" stroke-miterlimit="10.0">
    <path d="M 378.3805,96.9100 c 0.0000,-0.7170 -0.5812,-1.2983 -1.2983 -1.2983c -0.7170,-0.0000 -1.2983,0.5812 -1.2983 1.2983c -0.0000,0.7170 0.5812,1.2983 1.2983 1.2983c 0.7170,0.0000 1.2983,-0.5812 1.2983 -1.2983Z"/>
  </g>
  <g stroke-linejoin="miter" stroke-opacity="1.0" fill-opacity="1.0" stroke="rgb(102,102,102)" stroke-width="0.0" fill="rgb(255,0,0)" stroke-linecap="butt" stroke-miterlimit="10.0">
    <path d="M 375.6377,98.2214 c 0.0000,-0.7170 -0.5812,-1.2983 -1.2983 -1.2983c -0.7170,-0.0000 -1.2983,0.5812 -1.2983 1.2983c -0.0000,0.7170 0.5812,1.2983 1.2983 1.2983c 0.7170,0.0000 1.2983,-0.5812 1.2983 -1.2983Z"/>
  </g>
  <g stroke-linejoin="miter" stroke-opacity="1.0" fill-opacity="1.0" stroke="rgb(102,102,102)" stroke-width="0.0" fill="rgb(255,0,0)" stroke-linecap="butt" stroke-miterlimit="10.0">
    <path d="M 372.8949,99.5328 c 0.0000,-0.7170 -0.5812,-1.2983 -1.2983 -1.2983c -0.7170,-0.0000 -1.2983,0.5812 -1.2983 1.2983c -0.0000,0.7170 0.5812,1.2983 1.2983 1.2983c 0.7170,0.0000 1.2983,-0.5812 1.2983 -1.2983Z"/>
  </g>
  <g stroke-linejoin="miter" stroke-opacity="1.0" fill-opacity="1.0" stroke="rgb(102,102,102)" stroke-width="0.0" fill="rgb(255,0,0)" stroke-linecap="butt" stroke-miterlimit="10.0">
    <path d="M 370.1521,100.8441 c 0.0000,-0.7170 -0.5812,-1.2983 -1.2983 -1.2983c -0.7170,-0.0000 -1.2983,0.5812 -1.2983 1.2983c -0.0000,0.7170 0.5812,1.2983 1.2983 1.2983c 0.7170,0.0000 1.2983,-0.5812 1.2983 -1.2983Z"/>
  </g>
  <g stroke-linejoin="miter" stroke-opacity="1.0" fill-opacity="1.0" stroke="rgb(102,102,102)" stroke-width="0.0" fill="rgb(255,0,0)" stroke-linecap="butt" stroke-miterlimit="10.0">
    <path d="M 367.4094,104.7782 c 0.0000,-0.7170 -0.5812,-1.2983 -1.2983 -1.2983c -0.7170,-0.0000 -1.2983,0.5812 -1.2983 1.2983c -0.0000,0.7170 0.5812,1.2983 1.2983 1.2983c 0.7170,0.0000 1.2983,-0.5812 1.2983 -1.2983Z"/>
  </g>
  <g stroke-linejoin="miter" stroke-opacity="1.0" fill-opacity="1.0" stroke="rgb(102,102,102)" stroke-width="0.0" fill="rgb(255,0,0)" stroke-linecap="butt" stroke-miterlimit="10.0">
    <path d="M 364.6666,106.0896 c 0.0000,-0.7170 -0.5812,-1.2983 -1.2983 -1.2983c -0.7170,-0.0000 -1.2983,0.5812 -1.2983 1.2983c -0.0000,0.7170 0.5812,1.2983 1.2983 1.2983c 0.7170,0.0000 1.2983,-0.5812 1.2983 -1.2983Z"/>
  </g>
  <g stroke-linejoin="miter" stroke-opacity="1.0" fill-opacity="1.0" stroke="rgb(102,102,102)" stroke-width="0.0" fill="rgb(255,0,0)" stroke-linecap="butt" stroke-miterlimit="10.0">
    <path d="M 361.9238,107.4010 c 0.0000,-0.7170 -0.5812,-1.2983 -1.2983 -1.2983c -0.7170,-0.0000 -1.2983,0.5812 -1.2983 1.2983c -0.0000,0.7170 0.5812,1.2983 1.2983 1.2983c 0.7170,0.0000 1.2983,-0.5812 1.2983 -1.2983Z"/>
  </g>
  <g stroke-linejoin="miter" stroke-opacity="1.0" fill-opacity="1.0" stroke="rgb(102,102,102)" stroke-width="0.0" fill="rgb(255,0,0)" stroke-linecap="butt" stroke-miterlimit="10.0">
    <path d="M 359.1810,108.7123 c 0.0000,-0.7170 -0.5812,-1.2983 -1.2983 -1.2983c -0.7170,-0.0000 -1.2983,0.5812 -1.2983 1.2983c -0.0000,0.7170 0.5812,1.2983 1.2983 1.2983c 0.7170,0.0000 1.2983,-0.5812 1.2983 -1.2983Z"/>
  </g>
  <g stroke-linejoin="miter" stroke-opacity="1.0" fill-opacity="1.0" stroke="rgb(102,102,102)" stroke-width="0.0" fill="rgb(255,0,0)" stroke-linecap="butt" stroke-miterlimit="10.0">
    <path d="M 356.4382,110.0237 c 0.0000,-0.7170 -0.5812,-1.2983 -1.2983 -1.2983c -0.7170,-0.0000 -1.2983,0.5812 -1.2983 1.2983c -0.0000,0.7170 0.5812,1.2983 1.2983 1.2983c 0.7170,0.0000 1.2983,-0.5812 1.2983 -1.2983Z"/>
  </g>
  <g stroke-linejoin="miter" stroke-opacity="1.0" fill-opacity="1.0" stroke="rgb(102,102,102)" stroke-width="0.0" fill="rgb(255,0,0)" stroke-linecap="butt" stroke-miterlimit="10.0">
    <path d="M 353.6954,113.9578 c 0.0000,-0.7170 -0.5812,-1.2983 -1.2983 -1.2983c -0.7170,-0.0000 -1.2983,0.5812 -1.2983 1.2983c -0.0000,0.7170 0.5812,1.2983 1.2983 1.2983c 0.7170,0.0000 1.2983,-0.5812 1.2983 -1.2983Z"/>
  </g>
  <g stroke-linejoin="miter" stroke-opacity="1.0" fill-opacity="1.0" stroke="rgb(102,102,102)" stroke-width="0.0" fill="rgb(255,0,0)" stroke-linecap="butt" stroke-miterlimit="10.0">
    <path d="M 350.9526,115.2692 c 0.0000,-0.7170 -0.5812,-1.2983 -1.2983 -1.2983c -0.7170,-0.0000 -1.2983,0.5812 -1.2983 1.2983c -0.0000,0.7170 0.5812,1.2983 1.2983 1.2983c 0.7170,0.0000 1.2983,-0.5812 1.2983 -1.2983Z"/>
  </g>
  <g stroke-linejoin="miter" stroke-opacity="1.0" fill-opacity="1.0" stroke="rgb(102,102,102)" stroke-width="0.0" fill="rgb(255,0,0)" stroke-linecap="butt" stroke-miterlimit="10.0">
    <path d="M 348.2098,116.5806 c 0.0000,-0.7170 -0.5812,-1.2983 -1.2983 -1.2983c -0.7170,-0.0000 -1.2983,0.5812 -1.2983 1.2983c -0.0000,0.7170 0.5812,1.2983 1.2983 1.2983c 0.7170,0.0000 1.2983,-0.5812 1.2983 -1.2983Z"/>
  </g>
  <g stroke-linejoin="miter" stroke-opacity="1.0" fill-opacity="1.0" stroke="rgb(102,102,102)" stroke-width="0.0" fill="rgb(255,0,0)" stroke-linecap="butt" stroke-miterlimit="10.0">
    <path d="M 345.4670,117.8919 c 0.0000,-0.7170 -0.5812,-1.2983 -1.2983 -1.2983c -0.7170,-0.0000 -1.2983,0.5812 -1.2983 1.2983c -0.0000,0.7170 0.5812,1.2983 1.2983 1.2983c 0.7170,0.0000 1.2983,-0.5812 1.2983 -1.2983Z"/>
  </g>
  <g stroke-linejoin="miter" stroke-opacity="1.0" fill-opacity="1.0" stroke="rgb(102,102,102)" stroke-width="0.0" fill="rgb(255,0,0)" stroke-linecap="butt" stroke-miterlimit="10.0">
    <path d="M 342.7242,119.2033 c 0.0000,-0.7170 -0.5812,-1.2983 -1.2983 -1.2983c -0.7170,-0.0000 -1.2983,0.5812 -1.2983 1.2983c -0.0000,0.7170 0.5812,1.2983 1.2983 1.2983c 0.7170,0.0000 1.2983,-0.5812 1.2983 -1.2983Z"/>
  </g>
  <g stroke-linejoin="miter" stroke-opacity="1.0" fill-opacity="1.0" stroke="rgb(102,102,102)" stroke-width="0.0" fill="rgb(255,0,0)" stroke-linecap="butt" stroke-miterlimit="10.0">
    <path d="M 339.9815,123.1374 c 0.0000,-0.7170 -0.5812,-1.2983 -1.2983 -1.2983c -0.7170,-0.0000 -1.2983,0.5812 -1.2983 1.2983c -0.0000,0.7170 0.5812,1.2983 1.2983 1.2983c 0.7170,0.0000 1.2983,-0.5812 1.2983 -1.2983Z"/>
  </g>
  <g stroke-linejoin="miter" stroke-opacity="1.0" fill-opacity="1.0" stroke="rgb(102,102,102)" stroke-width="0.0" fill="rgb(255,0,0)" stroke-linecap="butt" stroke-miterlimit="10.0">
    <path d="M 337.2387,124.4488 c 0.0000,-0.7170 -0.5812,-1.2983 -1.2983 -1.2983c -0.7170,-0.0000 -1.2983,0.5812 -1.2983 1.2983c -0.0000,0.7170 0.5812,1.2983 1.2983 1.2983c 0.7170,0.0000 1.2983,-0.5812 1.2983 -1.2983Z"/>
  </g>
  <g stroke-linejoin="miter" stroke-opacity="1.0" fill-opacity="1.0" stroke="rgb(102,102,102)" stroke-width="0.0" fill="rgb(255,0,0)" stroke-linecap="butt" stroke-miterlimit="10.0">
    <path d="M 334.4959,125.7601 c 0.0000,-0.7170 -0.5812,-1.2983 -1.2983 -1.2983c -0.7170,-0.0000 -1.2983,0.5812 -1.2983 1.2983c -0.0000,0.7170 0.5812,1.2983 1.2983 1.2983c 0.7170,0.0000 1.2983,-0.5812 1.2983 -1.2983Z"/>
  </g>
  <g stroke-linejoin="miter" stroke-opacity="1.0" fill-opacity="1.0" stroke="rgb(102,102,102)" stroke-width="0.0" fill="rgb(255,0,0)" stroke-linecap="butt" stroke-miterlimit="10.0">
    <path d="M 331.7531,127.0715 c 0.0000,-0.7170 -0.5812,-1.2983 -1.2983 -1.2983c -0.7170,-0.0000 -1.2983,0.5812 -1.2983 1.2983c -0.0000,0.7170 0.5812,1.2983 1.2983 1.2983c 0.7170,0.0000 1.2983,-0.5812 1.2983 -1.2983Z"/>
  </g>
  <g stroke-linejoin="miter" stroke-opacity="1.0" fill-opacity="1.0" stroke="rgb(102,102,102)" stroke-width="0.0" fill="rgb(255,0,0)" stroke-linecap="butt" stroke-miterlimit="10.0">
    <path d="M 329.0103,128.3829 c 0.0000,-0.7170 -0.5812,-1.2983 -1.2983 -1.2983c -0.7170,-0.0000 -1.2983,0.5812 -1.2983 1.2983c -0.0000,0.7170 0.5812,1.2983 1.2983 1.2983c 0.7170,0.0000 1.2983,-0.5812 1.2983 -1.2983Z"/>
  </g>
  <g stroke-linejoin="miter" stroke-opacity="1.0" fill-opacity="1.0" stroke="rgb(102,102,102)" stroke-width="0.0" fill="rgb(255,0,0)" stroke-linecap="butt" stroke-miterlimit="10.0">
    <path d="M 326.2675,132.3170 c 0.0000,-0.7170 -0.5812,-1.2983 -1.2983 -1.2983c -0.7170,-0.0000 -1.2983,0.5812 -1.2983 1.2983c -0.0000,0.7170 0.5812,1.2983 1.2983 1.2983c 0.7170,0.0000 1.2983,-0.5812 1.2983 -1.2983Z"/>
  </g>
  <g stroke-linejoin="miter" stroke-opacity="1.0" fill-opacity="1.0" stroke="rgb(102,102,102)" stroke-width="0.0" fill="rgb(255,0,0)" stroke-linecap="butt" stroke-miterlimit="10.0">
    <path d="M 323.5247,133.6283 c 0.0000,-0.7170 -0.5812,-1.2983 -1.2983 -1.2983c -0.7170,-0.0000 -1.2983,0.5812 -1.2983 1.2983c -0.0000,0.7170 0.5812,1.2983 1.2983 1.2983c 0.7170,0.0000 1.2983,-0.5812 1.2983 -1.2983Z"/>
  </g>
  <g stroke-linejoin="miter" stroke-opacity="1.0" fill-opacity="1.0" stroke="rgb(102,102,102)" stroke-width="0.0" fill="rgb(255,0,0)" stroke-linecap="butt" stroke-miterlimit="10.0">
    <path d="M 320.7819,134.9397 c 0.0000,-0.7170 -0.5812,-1.2983 -1.2983 -1.2983c -0.7170,-0.0000 -1.2983,0.5812 -1.2983 1.2983c -0.0000,0.7170 0.5812,1.2983 1.2983 1.2983c 0.7170,0.0000 1.2983,-0.5812 1.2983 -1.2983Z"/>
  </g>
  <g stroke-linejoin="miter" stroke-opacity="1.0" fill-opacity="1.0" stroke="rgb(102,102,102)" stroke-width="0.0" fill="rgb(255,0,0)" stroke-linecap="butt" stroke-miterlimit="10.0">
    <path d="M 318.0391,136.2511 c 0.0000,-0.7170 -0.5812,-1.2983 -1.2983 -1.2983c -0.7170,-0.0000 -1.2983,0.5812 -1.2983 1.2983c -0.0000,0.7170 0.5812,1.2983 1.2983 1.2983c 0.7170,0.0000 1.2983,-0.5812 1.2983 -1.2983Z"/>
  </g>
  <g stroke-linejoin="miter" stroke-opacity="1.0" fill-opacity="1.0" stroke="rgb(102,102,102)" stroke-width="0.0" fill="rgb(255,0,0)" stroke-linecap="butt" stroke-miterlimit="10.0">
    <path d="M 315.2964,137.5624 c 0.0000,-0.7170 -0.5812,-1.2983 -1.2983 -1.2983c -0.7170,-0.0000 -1.2983,0.5812 -1.2983 1.2983c -0.0000,0.7170 0.5812,1.2983 1.2983 1.2983c 0.7170,0.0000 1.2983,-0.5812 1.2983 -1.2983Z"/>
  </g>
  <g stroke-linejoin="miter" stroke-opacity="1.0" fill-opacity="1.0" stroke="rgb(102,102,102)" stroke-width="0.0" fill="rgb(255,0,0)" stroke-linecap="butt" stroke-miterlimit="10.0">
    <path d="M 312.5536,141.4965 c 0.0000,-0.7170 -0.5812,-1.2983 -1.2983 -1.2983c -0.7170,-0.0000 -1.2983,0.5812 -1.2983 1.2983c -0.0000,0.7170 0.5812,1.2983 1.2983 1.2983c 0.7170,0.0000 1.2983,-0.5812 1.2983 -1.2983Z"/>
  </g>
  <g stroke-linejoin="miter" stroke-opacity="1.0" fill-opacity="1.0" stroke="rgb(102,102,102)" stroke-width="0.0" fill="rgb(255,0,0)" stroke-linecap="butt" stroke-miterlimit="10.0">
    <path d="M 309.8108,142.8079 c 0.0000,-0.7170 -0.5812,-1.2983 -1.2983 -1.2983c -0.7170,-0.0000 -1.2983,0.5812 -1.2983 1.2983c -0.0000,0.7170 0.5812,1.2983 1.2983 1.2983c 0.7170,0.0000 1.2983,-0.5812 1.2983 -1.2983Z"/>
  </g>
  <g stroke-linejoin="miter" stroke-opacity="1.0" fill-opacity="1.0" stroke="rgb(102,102,102)" stroke-width="0.0" fill="rgb(255,0,0)" stroke-linecap="butt" stroke-miterlimit="10.0">
    <path d="M 307.0680,144.1193 c 0.0000,-0.7170 -0.5812,-1.2983 -1.2983 -1.2983c -0.7170,-0.0000 -1.2983,0.5812 -1.2983 1.2983c -0.0000,0.7170 0.5812,1.2983 1.2983 1.2983c 0.7170,0.0000 1.2983,-0.5812 1.2983 -1.2983Z"/>
  </g>
  <g stroke-linejoin="miter" stroke-opacity="1.0" fill-opacity="1.0" stroke="rgb(102,102,102)" stroke-width="0.0" fill="rgb(255,0,0)" stroke-linecap="butt" stroke-miterlimit="10.0">
    <path d="M 304.3252,145.4306 c 0.0000,-0.7170 -0.5812,-1.2983 -1.2983 -1.2983c -0.7170,-0.0000 -1.2983,0.5812 -1.2983 1.2983c -0.0000,0.7170 0.5812,1.2983 1.2983 1.2983c 0.7170,0.0000 1.2983,-0.5812 1.2983 -1.2983Z"/>
  </g>
  <g stroke-linejoin="miter" stroke-opacity="1.0" fill-opacity="1.0" stroke="rgb(102,102,102)" stroke-width="0.0" fill="rgb(255,0,0)" stroke-linecap="butt" stroke-miterlimit="10.0">
    <path d="M 301.5824,146.7420 c 0.0000,-0.7170 -0.5812,-1.2983 -1.2983 -1.2983c -0.7170,-0.0000 -1.2983,0.5812 -1.2983 1.2983c -0.0000,0.7170 0.5812,1.2983 1.2983 1.2983c 0.7170,0.0000 1.2983,-0.5812 1.2983 -1.2983Z"/>
  </g>
  <g stroke-linejoin="miter" stroke-opacity="1.0" fill-opacity="1.0" stroke="rgb(102,102,102)" stroke-width="0.0" fill="rgb(255,0,0)" stroke-linecap="butt" stroke-miterlimit="10.0">
    <path d="M 298.8396,150.6761 c 0.0000,-0.7170 -0.5812,-1.2983 -1.2983 -1.2983c -0.7170,-0.0000 -1.2983,0.5812 -1.2983 1.2983c -0.0000,0.7170 0.5812,1.2983 1.2983 1.2983c 0.7170,0.0000 1.2983,-0.5812 1.2983 -1.2983Z"/>
  </g>
  <g stroke-linejoin="miter" stroke-opacity="1.0" fill-opacity="1.0" stroke="rgb(102,102,102)" stroke-width="0.0" fill="rgb(255,0,0)" stroke-linecap="butt" stroke-miterlimit="10.0">
    <path d="M 296.0968,151.9875 c 0.0000,-0.7170 -0.5812,-1.2983 -1.2983 -1.2983c -0.7170,-0.0000 -1.2983,0.5812 -1.2983 1.2983c -0.0000,0.7170 0.5812,1.2983 1.2983 1.2983c 0.7170,0.0000 1.2983,-0.5812 1.2983 -1.2983Z"/>
  </g>
  <g stroke-linejoin="miter" stroke-opacity="1.0" fill-opacity="1.0" stroke="rgb(102,102,102)" stroke-width="0.0" fill="rgb(255,0,0)" stroke-linecap="butt" stroke-miterlimit="10.0">
    <path d="M 293.3540,153.2988 c 0.0000,-0.7170 -0.5812,-1.2983 -1.2983 -1.2983c -0.7170,-0.0000 -1.2983,0.5812 -1.2983 1.2983c -0.0000,0.7170 0.5812,1.2983 1.2983 1.2983c 0.7170,0.0000 1.2983,-0.5812 1.2983 -1.2983Z"/>
  </g>
  <g stroke-linejoin="miter" stroke-opacity="1.0" fill-opacity="1.0" stroke="rgb(102,102,102)" stroke-width="0.0" fill="rgb(255,0,0)" stroke-linecap="butt" stroke-miterlimit="10.0">
    <path d="M 290.6112,154.6102 c 0.0000,-0.7170 -0.5812,-1.2983 -1.2983 -1.2983c -0.7170,-0.0000 -1.2983,0.5812 -1.2983 1.2983c -0.0000,0.7170 0.5812,1.2983 1.2983 1.2983c 0.7170,0.0000 1.2983,-0.5812 1.2983 -1.2983Z"/>
  </g>
  <g stroke-linejoin="miter" stroke-opacity="1.0" fill-opacity="1.0" stroke="rgb(102,102,102)" stroke-width="0.0" fill="rgb(255,0,0)" stroke-linecap="butt" stroke-miterlimit="10.0">
    <path d="M 287.8685,155.9216 c 0.0000,-0.7170 -0.5812,-1.2983 -1.2983 -1.2983c -0.7170,-0.0000 -1.2983,0.5812 -1.2983 1.2983c -0.0000,0.7170 0.5812,1.2983 1.2983 1.2983c 0.7170,0.0000 1.2983,-0.5812 1.2983 -1.2983Z"/>
  </g>
  <g stroke-linejoin="miter" stroke-opacity="1.0" fill-opacity="1.0" stroke="rgb(102,102,102)" stroke-width="0.0" fill="rgb(255,0,0)" stroke-linecap="butt" stroke-miterlimit="10.0">
    <path d="M 285.1257,159.8557 c 0.0000,-0.7170 -0.5812,-1.2983 -1.2983 -1.2983c -0.7170,-0.0000 -1.2983,0.5812 -1.2983 1.2983c -0.0000,0.7170 0.5812,1.2983 1.2983 1.2983c 0.7170,0.0000 1.2983,-0.5812 1.2983 -1.2983Z"/>
  </g>
  <g stroke-linejoin="miter" stroke-opacity="1.0" fill-opacity="1.0" stroke="rgb(102,102,102)" stroke-width="0.0" fill="rgb(255,0,0)" stroke-linecap="butt" stroke-miterlimit="10.0">
    <path d="M 282.3829,161.1670 c 0.0000,-0.7170 -0.5812,-1.2983 -1.2983 -1.2983c -0.7170,-0.0000 -1.2983,0.5812 -1.2983 1.2983c -0.0000,0.7170 0.5812,1.2983 1.2983 1.2983c 0.7170,0.0000 1.2983,-0.5812 1.2983 -1.2983Z"/>
  </g>
  <g stroke-linejoin="miter" stroke-opacity="1.0" fill-opacity="1.0" stroke="rgb(102,102,102)" stroke-width="0.0" fill="rgb(255,0,0)" stroke-linecap="butt" stroke-miterlimit="10.0">
    <path d="M 279.6401,162.4784 c 0.0000,-0.7170 -0.5812,-1.2983 -1.2983 -1.2983c -0.7170,-0.0000 -1.2983,0.5812 -1.2983 1.2983c -0.0000,0.7170 0.5812,1.2983 1.2983 1.2983c 0.7170,0.0000 1.2983,-0.5812 1.2983 -1.2983Z"/>
  </g>
  <g stroke-linejoin="miter" stroke-opacity="1.0" fill-opacity="1.0" stroke="rgb(102,102,102)" stroke-width="0.0" fill="rgb(255,0,0)" stroke-linecap="butt" stroke-miterlimit="10.0">
    <path d="M 276.8973,163.7898 c 0.0000,-0.7170 -0.5812,-1.2983 -1.2983 -1.2983c -0.7170,-0.0000 -1.2983,0.5812 -1.2983 1.2983c -0.0000,0.7170 0.5812,1.2983 1.2983 1.2983c 0.7170,0.0000 1.2983,-0.5812 1.2983 -1.2983Z"/>
  </g>
  <g stroke-linejoin="miter" stroke-opacity="1.0" fill-opacity="1.0" stroke="rgb(102,102,102)" stroke-width="0.0" fill="rgb(255,0,0)" stroke-linecap="butt" stroke-miterlimit="10.0">
    <path d="M 274.1545,165.1011 c 0.0000,-0.7170 -0.5812,-1.2983 -1.2983 -1.2983c -0.7170,-0.0000 -1.2983,0.5812 -1.2983 1.2983c -0.0000,0.7170 0.5812,1.2983 1.2983 1.2983c 0.7170,0.0000 1.2983,-0.5812 1.2983 -1.2983Z"/>
  </g>
  <g stroke-linejoin="miter" stroke-opacity="1.0" fill-opacity="1.0" stroke="rgb(102,102,102)" stroke-width="0.0" fill="rgb(255,0,0)" stroke-linecap="butt" stroke-miterlimit="10.0">
    <path d="M 271.4117,169.0352 c 0.0000,-0.7170 -0.5812,-1.2983 -1.2983 -1.2983c -0.7170,-0.0000 -1.2983,0.5812 -1.2983 1.2983c -0.0000,0.7170 0.5812,1.2983 1.2983 1.2983c 0.7170,0.0000 1.2983,-0.5812 1.2983 -1.2983Z"/>
  </g>
  <g stroke-linejoin="miter" stroke-opacity="1.0" fill-opacity="1.0" stroke="rgb(102,102,102)" stroke-width="0.0" fill="rgb(255,0,0)" stroke-linecap="butt" stroke-miterlimit="10.0">
    <path d="M 268.6689,170.3466 c 0.0000,-0.7170 -0.5812,-1.2983 -1.2983 -1.2983c -0.7170,-0.0000 -1.2983,0.5812 -1.2983 1.2983c -0.0000,0.7170 0.5812,1.2983 1.2983 1.2983c 0.7170,0.0000 1.2983,-0.5812 1.2983 -1.2983Z"/>
  </g>
  <g stroke-linejoin="miter" stroke-opacity="1.0" fill-opacity="1.0" stroke="rgb(102,102,102)" stroke-width="0.0" fill="rgb(255,0,0)" stroke-linecap="butt" stroke-miterlimit="10.0">
    <path d="M 265.9261,171.6580 c 0.0000,-0.7170 -0.5812,-1.2983 -1.2983 -1.2983c -0.7170,-0.0000 -1.2983,0.5812 -1.2983 1.2983c -0.0000,0.7170 0.5812,1.2983 1.2983 1.2983c 0.7170,0.0000 1.2983,-0.5812 1.2983 -1.2983Z"/>
  </g>
  <g stroke-linejoin="miter" stroke-opacity="1.0" fill-opacity="1.0" stroke="rgb(102,102,102)" stroke-width="0.0" fill="rgb(255,0,0)" stroke-linecap="butt" stroke-miterlimit="10.0">
    <path d="M 263.1834,172.9693 c 0.0000,-0.7170 -0.5812,-1.2983 -1.2983 -1.2983c -0.7170,-0.0000 -1.2983,0.5812 -1.2983 1.2983c -0.0000,0.7170 0.5812,1.2983 1.2983 1.2983c 0.7170,0.0000 1.2983,-0.5812 1.2983 -1.2983Z"/>
  </g>
  <g stroke-linejoin="miter" stroke-opacity="1.0" fill-opacity="1.0" stroke="rgb(102,102,102)" stroke-width="0.0" fill="rgb(255,0,0)" stroke-linecap="butt" stroke-miterlimit="10.0">
    <path d="M 260.4406,174.2807 c 0.0000,-0.7170 -0.5812,-1.2983 -1.2983 -1.2983c -0.7170,-0.0000 -1.2983,0.5812 -1.2983 1.2983c -0.0000,0.7170 0.5812,1.2983 1.2983 1.2983c 0.7170,0.0000 1.2983,-0.5812 1.2983 -1.2983Z"/>
  </g>
  <g stroke-linejoin="miter" stroke-opacity="1.0" fill-opacity="1.0" stroke="rgb(102,102,102)" stroke-width="0.0" fill="rgb(255,0,0)" stroke-linecap="butt" stroke-miterlimit="10.0">
    <path d="M 257.6978,178.2148 c 0.0000,-0.7170 -0.5812,-1.2983 -1.2983 -1.2983c -0.7170,-0.0000 -1.2983,0.5812 -1.2983 1.2983c -0.0000,0.7170 0.5812,1.2983 1.2983 1.2983c 0.7170,0.0000 1.2983,-0.5812 1.2983 -1.2983Z"/>
  </g>
  <g stroke-linejoin="miter" stroke-opacity="1.0" fill-opacity="1.0" stroke="rgb(102,102,102)" stroke-width="0.0" fill="rgb(255,0,0)" stroke-linecap="butt" stroke-miterlimit="10.0">
    <path d="M 254.9550,179.5262 c 0.0000,-0.7170 -0.5812,-1.2983 -1.2983 -1.2983c -0.7170,-0.0000 -1.2983,0.5812 -1.2983 1.2983c -0.0000,0.7170 0.5812,1.2983 1.2983 1.2983c 0.7170,0.0000 1.2983,-0.5812 1.2983 -1.2983Z"/>
  </g>
  <g stroke-linejoin="miter" stroke-opacity="1.0" fill-opacity="1.0" stroke="rgb(102,102,102)" stroke-width="0.0" fill="rgb(255,0,0)" stroke-linecap="butt" stroke-miterlimit="10.0">
    <path d="M 252.2122,180.8376 c 0.0000,-0.7170 -0.5812,-1.2983 -1.2983 -1.2983c -0.7170,-0.0000 -1.2983,0.5812 -1.2983 1.2983c -0.0000,0.7170 0.5812,1.2983 1.2983 1.2983c 0.7170,0.0000 1.2983,-0.5812 1.2983 -1.2983Z"/>
  </g>
  <g stroke-linejoin="miter" stroke-opacity="1.0" fill-opacity="1.0" stroke="rgb(102,102,102)" stroke-width="0.0" fill="rgb(255,0,0)" stroke-linecap="butt" stroke-miterlimit="10.0">
    <path d="M 249.4694,182.1489 c 0.0000,-0.7170 -0.5812,-1.2983 -1.2983 -1.2983c -0.7170,-0.0000 -1.2983,0.5812 -1.2983 1.2983c -0.0000,0.7170 0.5812,1.2983 1.2983 1.2983c 0.7170,0.0000 1.2983,-0.5812 1.2983 -1.2983Z"/>
  </g>
  <g stroke-linejoin="miter" stroke-opacity="1.0" fill-opacity="1.0" stroke="rgb(102,102,102)" stroke-width="0.0" fill="rgb(255,0,0)" stroke-linecap="butt" stroke-miterlimit="10.0">
    <path d="M 246.7266,183.4603 c 0.0000,-0.7170 -0.5812,-1.2983 -1.2983 -1.2983c -0.7170,-0.0000 -1.2983,0.5812 -1.2983 1.2983c -0.0000,0.7170 0.5812,1.2983 1.2983 1.2983c 0.7170,0.0000 1.2983,-0.5812 1.2983 -1.2983Z"/>
  </g>
  <g stroke-linejoin="miter" stroke-opacity="1.0" fill-opacity="1.0" stroke="rgb(102,102,102)" stroke-width="0.0" fill="rgb(255,0,0)" stroke-linecap="butt" stroke-miterlimit="10.0">
    <path d="M 243.9838,187.3944 c 0.0000,-0.7170 -0.5812,-1.2983 -1.2983 -1.2983c -0.7170,-0.0000 -1.2983,0.5812 -1.2983 1.2983c -0.0000,0.7170 0.5812,1.2983 1.2983 1.2983c 0.7170,0.0000 1.2983,-0.5812 1.2983 -1.2983Z"/>
  </g>
  <g stroke-linejoin="miter" stroke-opacity="1.0" fill-opacity="1.0" stroke="rgb(102,102,102)" stroke-width="0.0" fill="rgb(255,0,0)" stroke-linecap="butt" stroke-miterlimit="10.0">
    <path d="M 241.2410,188.7058 c 0.0000,-0.7170 -0.5812,-1.2983 -1.2983 -1.2983c -0.7170,-0.0000 -1.2983,0.5812 -1.2983 1.2983c -0.0000,0.7170 0.5812,1.2983 1.2983 1.2983c 0.7170,0.0000 1.2983,-0.5812 1.2983 -1.2983Z"/>
  </g>
  <g stroke-linejoin="miter" stroke-opacity="1.0" fill-opacity="1.0" stroke="rgb(102,102,102)" stroke-width="0.0" fill="rgb(255,0,0)" stroke-linecap="butt" stroke-miterlimit="10.0">
    <path d="M 238.4983,190.0171 c 0.0000,-0.7170 -0.5812,-1.2983 -1.2983 -1.2983c -0.7170,-0.0000 -1.2983,0.5812 -1.2983 1.2983c -0.0000,0.7170 0.5812,1.2983 1.2983 1.2983c 0.7170,0.0000 1.2983,-0.5812 1.2983 -1.2983Z"/>
  </g>
  <g stroke-linejoin="miter" stroke-opacity="1.0" fill-opacity="1.0" stroke="rgb(102,102,102)" stroke-width="0.0" fill="rgb(255,0,0)" stroke-linecap="butt" stroke-miterlimit="10.0">
    <path d="M 235.7555,191.3285 c 0.0000,-0.7170 -0.5812,-1.2983 -1.2983 -1.2983c -0.7170,-0.0000 -1.2983,0.5812 -1.2983 1.2983c -0.0000,0.7170 0.5812,1.2983 1.2983 1.2983c 0.7170,0.0000 1.2983,-0.5812 1.2983 -1.2983Z"/>
  </g>
  <g stroke-linejoin="miter" stroke-opacity="1.0" fill-opacity="1.0" stroke="rgb(102,102,102)" stroke-width="0.0" fill="rgb(255,0,0)" stroke-linecap="butt" stroke-miterlimit="10.0">
    <path d="M 233.0127,192.6399 c 0.0000,-0.7170 -0.5812,-1.2983 -1.2983 -1.2983c -0.7170,-0.0000 -1.2983,0.5812 -1.2983 1.2983c -0.0000,0.7170 0.5812,1.2983 1.2983 1.2983c 0.7170,0.0000 1.2983,-0.5812 1.2983 -1.2983Z"/>
  </g>
  <g stroke-linejoin="miter" stroke-opacity="1.0" fill-opacity="1.0" stroke="rgb(102,102,102)" stroke-width="0.0" fill="rgb(255,0,0)" stroke-linecap="butt" stroke-miterlimit="10.0">
    <path d="M 230.2699,196.5740 c 0.0000,-0.7170 -0.5812,-1.2983 -1.2983 -1.2983c -0.7170,-0.0000 -1.2983,0.5812 -1.2983 1.2983c -0.0000,0.7170 0.5812,1.2983 1.2983 1.2983c 0.7170,0.0000 1.2983,-0.5812 1.2983 -1.2983Z"/>
  </g>
  <g stroke-linejoin="miter" stroke-opacity="1.0" fill-opacity="1.0" stroke="rgb(102,102,102)" stroke-width="0.0" fill="rgb(255,0,0)" stroke-linecap="butt" stroke-miterlimit="10.0">
    <path d="M 227.5271,197.8853 c 0.0000,-0.7170 -0.5812,-1.2983 -1.2983 -1.2983c -0.7170,-0.0000 -1.2983,0.5812 -1.2983 1.2983c -0.0000,0.7170 0.5812,1.2983 1.2983 1.2983c 0.7170,0.0000 1.2983,-0.5812 1.2983 -1.2983Z"/>
  </g>
  <g stroke-linejoin="miter" stroke-opacity="1.0" fill-opacity="1.0" stroke="rgb(102,102,102)" stroke-width="0.0" fill="rgb(255,0,0)" stroke-linecap="butt" stroke-miterlimit="10.0">
    <path d="M 224.7843,199.1967 c 0.0000,-0.7170 -0.5812,-1.2983 -1.2983 -1.2983c -0.7170,-0.0000 -1.2983,0.5812 -1.2983 1.2983c -0.0000,0.7170 0.5812,1.2983 1.2983 1.2983c 0.7170,0.0000 1.2983,-0.5812 1.2983 -1.2983Z"/>
  </g>
  <g stroke-linejoin="miter" stroke-opacity="1.0" fill-opacity="1.0" stroke="rgb(102,102,102)" stroke-width="0.0" fill="rgb(255,0,0)" stroke-linecap="butt" stroke-miterlimit="10.0">
    <path d="M 222.0415,200.5081 c 0.0000,-0.7170 -0.5812,-1.2983 -1.2983 -1.2983c -0.7170,-0.0000 -1.2983,0.5812 -1.2983 1.2983c -0.0000,0.7170 0.5812,1.2983 1.2983 1.2983c 0.7170,0.0000 1.2983,-0.5812 1.2983 -1.2983Z"/>
  </g>
  <g stroke-linejoin="miter" stroke-opacity="1.0" fill-opacity="1.0" stroke="rgb(102,102,102)" stroke-width="0.0" fill="rgb(255,0,0)" stroke-linecap="butt" stroke-miterlimit="10.0">
    <path d="M 219.2987,201.8194 c 0.0000,-0.7170 -0.5812,-1.2983 -1.2983 -1.2983c -0.7170,-0.0000 -1.2983,0.5812 -1.2983 1.2983c -0.0000,0.7170 0.5812,1.2983 1.2983 1.2983c 0.7170,0.0000 1.2983,-0.5812 1.2983 -1.2983Z"/>
  </g>
  <g stroke-linejoin="miter" stroke-opacity="1.0" fill-opacity="1.0" stroke="rgb(102,102,102)" stroke-width="0.0" fill="rgb(255,0,0)" stroke-linecap="butt" stroke-miterlimit="10.0">
    <path d="M 216.5559,205.7535 c 0.0000,-0.7170 -0.5812,-1.2983 -1.2983 -1.2983c -0.7170,-0.0000 -1.2983,0.5812 -1.2983 1.2983c -0.0000,0.7170 0.5812,1.2983 1.2983 1.2983c 0.7170,0.0000 1.2983,-0.5812 1.2983 -1.2983Z"/>
  </g>
  <g stroke-linejoin="miter" stroke-opacity="1.0" fill-opacity="1.0" stroke="rgb(102,102,102)" stroke-width="0.0" fill="rgb(255,0,0)" stroke-linecap="butt" stroke-miterlimit="10.0">
    <path d="M 213.8131,207.0649 c 0.0000,-0.7170 -0.5812,-1.2983 -1.2983 -1.2983c -0.7170,-0.0000 -1.2983,0.5812 -1.2983 1.2983c -0.0000,0.7170 0.5812,1.2983 1.2983 1.2983c 0.7170,0.0000 1.2983,-0.5812 1.2983 -1.2983Z"/>
  </g>
  <g stroke-linejoin="miter" stroke-opacity="1.0" fill-opacity="1.0" stroke="rgb(102,102,102)" stroke-width="0.0" fill="rgb(255,0,0)" stroke-linecap="butt" stroke-miterlimit="10.0">
    <path d="M 211.0704,208.3763 c 0.0000,-0.7170 -0.5812,-1.2983 -1.2983 -1.2983c -0.7170,-0.0000 -1.2983,0.5812 -1.2983 1.2983c -0.0000,0.7170 0.5812,1.2983 1.2983 1.2983c 0.7170,0.0000 1.2983,-0.5812 1.2983 -1.2983Z"/>
  </g>
  <g stroke-linejoin="miter" stroke-opacity="1.0" fill-opacity="1.0" stroke="rgb(102,102,102)" stroke-width="0.0" fill="rgb(255,0,0)" stroke-linecap="butt" stroke-miterlimit="10.0">
    <path d="M 208.3276,209.6876 c 0.0000,-0.7170 -0.5812,-1.2983 -1.2983 -1.2983c -0.7170,-0.0000 -1.2983,0.5812 -1.2983 1.2983c -0.0000,0.7170 0.5812,1.2983 1.2983 1.2983c 0.7170,0.0000 1.2983,-0.5812 1.2983 -1.2983Z"/>
  </g>
  <g stroke-linejoin="miter" stroke-opacity="1.0" fill-opacity="1.0" stroke="rgb(102,102,102)" stroke-width="0.0" fill="rgb(255,0,0)" stroke-linecap="butt" stroke-miterlimit="10.0">
    <path d="M 205.5848,210.9990 c 0.0000,-0.7170 -0.5812,-1.2983 -1.2983 -1.2983c -0.7170,-0.0000 -1.2983,0.5812 -1.2983 1.2983c -0.0000,0.7170 0.5812,1.2983 1.2983 1.2983c 0.7170,0.0000 1.2983,-0.5812 1.2983 -1.2983Z"/>
  </g>
  <g stroke-linejoin="miter" stroke-opacity="1.0" fill-opacity="1.0" stroke="rgb(102,102,102)" stroke-width="0.0" fill="rgb(255,0,0)" stroke-linecap="butt" stroke-miterlimit="10.0">
    <path d="M 202.8420,214.9331 c 0.0000,-0.7170 -0.5812,-1.2983 -1.2983 -1.2983c -0.7170,-0.0000 -1.2983,0.5812 -1.2983 1.2983c -0.0000,0.7170 0.5812,1.2983 1.2983 1.2983c 0.7170,0.0000 1.2983,-0.5812 1.2983 -1.2983Z"/>
  </g>
  <g stroke-linejoin="miter" stroke-opacity="1.0" fill-opacity="1.0" stroke="rgb(102,102,102)" stroke-width="0.0" fill="rgb(255,0,0)" stroke-linecap="butt" stroke-miterlimit="10.0">
    <path d="M 200.0992,216.2445 c 0.0000,-0.7170 -0.5812,-1.2983 -1.2983 -1.2983c -0.7170,-0.0000 -1.2983,0.5812 -1.2983 1.2983c -0.0000,0.7170 0.5812,1.2983 1.2983 1.2983c 0.7170,0.0000 1.2983,-0.5812 1.2983 -1.2983Z"/>
  </g>
  <g stroke-linejoin="miter" stroke-opacity="1.0" fill-opacity="1.0" stroke="rgb(102,102,102)" stroke-width="0.0" fill="rgb(255,0,0)" stroke-linecap="butt" stroke-miterlimit="10.0">
    <path d="M 197.3564,217.5558 c 0.0000,-0.7170 -0.5812,-1.2983 -1.2983 -1.2983c -0.7170,-0.0000 -1.2983,0.5812 -1.2983 1.2983c -0.0000,0.7170 0.5812,1.2983 1.2983 1.2983c 0.7170,0.0000 1.2983,-0.5812 1.2983 -1.2983Z"/>
  </g>
  <g stroke-linejoin="miter" stroke-opacity="1.0" fill-opacity="1.0" stroke="rgb(102,102,102)" stroke-width="0.0" fill="rgb(255,0,0)" stroke-linecap="butt" stroke-miterlimit="10.0">
    <path d="M 194.6136,218.8672 c 0.0000,-0.7170 -0.5812,-1.2983 -1.2983 -1.2983c -0.7170,-0.0000 -1.2983,0.5812 -1.2983 1.2983c -0.0000,0.7170 0.5812,1.2983 1.2983 1.2983c 0.7170,0.0000 1.2983,-0.5812 1.2983 -1.2983Z"/>
  </g>
  <g stroke-linejoin="miter" stroke-opacity="1.0" fill-opacity="1.0" stroke="rgb(102,102,102)" stroke-width="0.0" fill="rgb(255,0,0)" stroke-linecap="butt" stroke-miterlimit="10.0">
    <path d="M 191.8708,220.1786 c 0.0000,-0.7170 -0.5812,-1.2983 -1.2983 -1.2983c -0.7170,-0.0000 -1.2983,0.5812 -1.2983 1.2983c -0.0000,0.7170 0.5812,1.2983 1.2983 1.2983c 0.7170,0.0000 1.2983,-0.5812 1.2983 -1.2983Z"/>
  </g>
  <g stroke-linejoin="miter" stroke-opacity="1.0" fill-opacity="1.0" stroke="rgb(102,102,102)" stroke-width="0.0" fill="rgb(255,0,0)" stroke-linecap="butt" stroke-miterlimit="10.0">
    <path d="M 189.1280,224.1127 c 0.0000,-0.7170 -0.5812,-1.2983 -1.2983 -1.2983c -0.7170,-0.0000 -1.2983,0.5812 -1.2983 1.2983c -0.0000,0.7170 0.5812,1.2983 1.2983 1.2983c 0.7170,0.0000 1.2983,-0.5812 1.2983 -1.2983Z"/>
  </g>
  <g stroke-linejoin="miter" stroke-opacity="1.0" fill-opacity="1.0" stroke="rgb(102,102,102)" stroke-width="0.0" fill="rgb(255,0,0)" stroke-linecap="butt" stroke-miterlimit="10.0">
    <path d="M 186.3853,225.4240 c 0.0000,-0.7170 -0.5812,-1.2983 -1.2983 -1.2983c -0.7170,-0.0000 -1.2983,0.5812 -1.2983 1.2983c -0.0000,0.7170 0.5812,1.2983 1.2983 1.2983c 0.7170,0.0000 1.2983,-0.5812 1.2983 -1.2983Z"/>
  </g>
  <g stroke-linejoin="miter" stroke-opacity="1.0" fill-opacity="1.0" stroke="rgb(102,102,102)" stroke-width="0.0" fill="rgb(255,0,0)" stroke-linecap="butt" stroke-miterlimit="10.0">
    <path d="M 183.6425,226.7354 c 0.0000,-0.7170 -0.5812,-1.2983 -1.2983 -1.2983c -0.7170,-0.0000 -1.2983,0.5812 -1.2983 1.2983c -0.0000,0.7170 0.5812,1.2983 1.2983 1.2983c 0.7170,0.0000 1.2983,-0.5812 1.2983 -1.2983Z"/>
  </g>
  <g stroke-linejoin="miter" stroke-opacity="1.0" fill-opacity="1.0" stroke="rgb(102,102,102)" stroke-width="0.0" fill="rgb(255,0,0)" stroke-linecap="butt" stroke-miterlimit="10.0">
    <path d="M 180.8997,228.0468 c 0.0000,-0.7170 -0.5812,-1.2983 -1.2983 -1.2983c -0.7170,-0.0000 -1.2983,0.5812 -1.2983 1.2983c -0.0000,0.7170 0.5812,1.2983 1.2983 1.2983c 0.7170,0.0000 1.2983,-0.5812 1.2983 -1.2983Z"/>
  </g>
  <g stroke-linejoin="miter" stroke-opacity="1.0" fill-opacity="1.0" stroke="rgb(102,102,102)" stroke-width="0.0" fill="rgb(255,0,0)" stroke-linecap="butt" stroke-miterlimit="10.0">
    <path d="M 178.1569,229.3581 c 0.0000,-0.7170 -0.5812,-1.2983 -1.2983 -1.2983c -0.7170,-0.0000 -1.2983,0.5812 -1.2983 1.2983c -0.0000,0.7170 0.5812,1.2983 1.2983 1.2983c 0.7170,0.0000 1.2983,-0.5812 1.2983 -1.2983Z"/>
  </g>
  <g stroke-linejoin="miter" stroke-opacity="1.0" fill-opacity="1.0" stroke="rgb(102,102,102)" stroke-width="0.0" fill="rgb(255,0,0)" stroke-linecap="butt" stroke-miterlimit="10.0">
    <path d="M 175.4141,233.2922 c 0.0000,-0.7170 -0.5812,-1.2983 -1.2983 -1.2983c -0.7170,-0.0000 -1.2983,0.5812 -1.2983 1.2983c -0.0000,0.7170 0.5812,1.2983 1.2983 1.2983c 0.7170,0.0000 1.2983,-0.5812 1.2983 -1.2983Z"/>
  </g>
  <g stroke-linejoin="miter" stroke-opacity="1.0" fill-opacity="1.0" stroke="rgb(102,102,102)" stroke-width="0.0" fill="rgb(255,0,0)" stroke-linecap="butt" stroke-miterlimit="10.0">
    <path d="M 172.6713,234.6036 c 0.0000,-0.7170 -0.5812,-1.2983 -1.2983 -1.2983c -0.7170,-0.0000 -1.2983,0.5812 -1.2983 1.2983c -0.0000,0.7170 0.5812,1.2983 1.2983 1.2983c 0.7170,0.0000 1.2983,-0.5812 1.2983 -1.2983Z"/>
  </g>
  <g stroke-linejoin="miter" stroke-opacity="1.0" fill-opacity="1.0" stroke="rgb(102,102,102)" stroke-width="0.0" fill="rgb(255,0,0)" stroke-linecap="butt" stroke-miterlimit="10.0">
    <path d="M 169.9285,235.9150 c 0.0000,-0.7170 -0.5812,-1.2983 -1.2983 -1.2983c -0.7170,-0.0000 -1.2983,0.5812 -1.2983 1.2983c -0.0000,0.7170 0.5812,1.2983 1.2983 1.2983c 0.7170,0.0000 1.2983,-0.5812 1.2983 -1.2983Z"/>
  </g>
  <g stroke-linejoin="miter" stroke-opacity="1.0" fill-opacity="1.0" stroke="rgb(102,102,102)" stroke-width="0.0" fill="rgb(255,0,0)" stroke-linecap="butt" stroke-miterlimit="10.0">
    <path d="M 167.1857,237.2263 c 0.0000,-0.7170 -0.5812,-1.2983 -1.2983 -1.2983c -0.7170,-0.0000 -1.2983,0.5812 -1.2983 1.2983c -0.0000,0.7170 0.5812,1.2983 1.2983 1.2983c 0.7170,0.0000 1.2983,-0.5812 1.2983 -1.2983Z"/>
  </g>
  <g stroke-linejoin="miter" stroke-opacity="1.0" fill-opacity="1.0" stroke="rgb(102,102,102)" stroke-width="0.0" fill="rgb(255,0,0)" stroke-linecap="butt" stroke-miterlimit="10.0">
    <path d="M 164.4429,238.5377 c 0.0000,-0.7170 -0.5812,-1.2983 -1.2983 -1.2983c -0.7170,-0.0000 -1.2983,0.5812 -1.2983 1.2983c -0.0000,0.7170 0.5812,1.2983 1.2983 1.2983c 0.7170,0.0000 1.2983,-0.5812 1.2983 -1.2983Z"/>
  </g>
  <g stroke-linejoin="miter" stroke-opacity="1.0" fill-opacity="1.0" stroke="rgb(102,102,102)" stroke-width="0.0" fill="rgb(255,0,0)" stroke-linecap="butt" stroke-miterlimit="10.0">
    <path d="M 161.7001,242.4718 c 0.0000,-0.7170 -0.5812,-1.2983 -1.2983 -1.2983c -0.7170,-0.0000 -1.2983,0.5812 -1.2983 1.2983c -0.0000,0.7170 0.5812,1.2983 1.2983 1.2983c 0.7170,0.0000 1.2983,-0.5812 1.2983 -1.2983Z"/>
  </g>
  <g stroke-linejoin="miter" stroke-opacity="1.0" fill-opacity="1.0" stroke="rgb(102,102,102)" stroke-width="0.0" fill="rgb(255,0,0)" stroke-linecap="butt" stroke-miterlimit="10.0">
    <path d="M 158.9574,243.7832 c 0.0000,-0.7170 -0.5812,-1.2983 -1.2983 -1.2983c -0.7170,-0.0000 -1.2983,0.5812 -1.2983 1.2983c -0.0000,0.7170 0.5812,1.2983 1.2983 1.2983c 0.7170,0.0000 1.2983,-0.5812 1.2983 -1.2983Z"/>
  </g>
  <g stroke-linejoin="miter" stroke-opacity="1.0" fill-opacity="1.0" stroke="rgb(102,102,102)" stroke-width="0.0" fill="rgb(255,0,0)" stroke-linecap="butt" stroke-miterlimit="10.0">
    <path d="M 156.2146,245.0945 c 0.0000,-0.7170 -0.5812,-1.2983 -1.2983 -1.2983c -0.7170,-0.0000 -1.2983,0.5812 -1.2983 1.2983c -0.0000,0.7170 0.5812,1.2983 1.2983 1.2983c 0.7170,0.0000 1.2983,-0.5812 1.2983 -1.2983Z"/>
  </g>
  <g stroke-linejoin="miter" stroke-opacity="1.0" fill-opacity="1.0" stroke="rgb(102,102,102)" stroke-width="0.0" fill="rgb(255,0,0)" stroke-linecap="butt" stroke-miterlimit="10.0">
    <path d="M 153.4718,246.4059 c 0.0000,-0.7170 -0.5812,-1.2983 -1.2983 -1.2983c -0.7170,-0.0000 -1.2983,0.5812 -1.2983 1.2983c -0.0000,0.7170 0.5812,1.2983 1.2983 1.2983c 0.7170,0.0000 1.2983,-0.5812 1.2983 -1.2983Z"/>
  </g>
  <g stroke-linejoin="miter" stroke-opacity="1.0" fill-opacity="1.0" stroke="rgb(102,102,102)" stroke-width="0.0" fill="rgb(255,0,0)" stroke-linecap="butt" stroke-miterlimit="10.0">
    <path d="M 150.7290,247.7173 c 0.0000,-0.7170 -0.5812,-1.2983 -1.2983 -1.2983c -0.7170,-0.0000 -1.2983,0.5812 -1.2983 1.2983c -0.0000,0.7170 0.5812,1.2983 1.2983 1.2983c 0.7170,0.0000 1.2983,-0.5812 1.2983 -1.2983Z"/>
  </g>
  <g stroke-linejoin="miter" stroke-opacity="1.0" fill-opacity="1.0" stroke="rgb(102,102,102)" stroke-width="0.0" fill="rgb(255,0,0)" stroke-linecap="butt" stroke-miterlimit="10.0">
    <path d="M 147.9862,251.6514 c 0.0000,-0.7170 -0.5812,-1.2983 -1.2983 -1.2983c -0.7170,-0.0000 -1.2983,0.5812 -1.2983 1.2983c -0.0000,0.7170 0.5812,1.2983 1.2983 1.2983c 0.7170,0.0000 1.2983,-0.5812 1.2983 -1.2983Z"/>
  </g>
  <g stroke-linejoin="miter" stroke-opacity="1.0" fill-opacity="1.0" stroke="rgb(102,102,102)" stroke-width="0.0" fill="rgb(255,0,0)" stroke-linecap="butt" stroke-miterlimit="10.0">
    <path d="M 145.2434,252.9628 c 0.0000,-0.7170 -0.5812,-1.2983 -1.2983 -1.2983c -0.7170,-0.0000 -1.2983,0.5812 -1.2983 1.2983c -0.0000,0.7170 0.5812,1.2983 1.2983 1.2983c 0.7170,0.0000 1.2983,-0.5812 1.2983 -1.2983Z"/>
  </g>
  <g stroke-linejoin="miter" stroke-opacity="1.0" fill-opacity="1.0" stroke="rgb(102,102,102)" stroke-width="0.0" fill="rgb(255,0,0)" stroke-linecap="butt" stroke-miterlimit="10.0">
    <path d="M 142.5006,254.2741 c 0.0000,-0.7170 -0.5812,-1.2983 -1.2983 -1.2983c -0.7170,-0.0000 -1.2983,0.5812 -1.2983 1.2983c -0.0000,0.7170 0.5812,1.2983 1.2983 1.2983c 0.7170,0.0000 1.2983,-0.5812 1.2983 -1.2983Z"/>
  </g>
  <g stroke-linejoin="miter" stroke-opacity="1.0" fill-opacity="1.0" stroke="rgb(102,102,102)" stroke-width="0.0" fill="rgb(255,0,0)" stroke-linecap="butt" stroke-miterlimit="10.0">
    <path d="M 139.7578,255.5855 c 0.0000,-0.7170 -0.5812,-1.2983 -1.2983 -1.2983c -0.7170,-0.0000 -1.2983,0.5812 -1.2983 1.2983c -0.0000,0.7170 0.5812,1.2983 1.2983 1.2983c 0.7170,0.0000 1.2983,-0.5812 1.2983 -1.2983Z"/>
  </g>
  <g stroke-linejoin="miter" stroke-opacity="1.0" fill-opacity="1.0" stroke="rgb(102,102,102)" stroke-width="0.0" fill="rgb(255,0,0)" stroke-linecap="butt" stroke-miterlimit="10.0">
    <path d="M 137.0150,256.8969 c 0.0000,-0.7170 -0.5812,-1.2983 -1.2983 -1.2983c -0.7170,-0.0000 -1.2983,0.5812 -1.2983 1.2983c -0.0000,0.7170 0.5812,1.2983 1.2983 1.2983c 0.7170,0.0000 1.2983,-0.5812 1.2983 -1.2983Z"/>
  </g>
  <g stroke-linejoin="miter" stroke-opacity="1.0" fill-opacity="1.0" stroke="rgb(102,102,102)" stroke-width="0.0" fill="rgb(255,0,0)" stroke-linecap="butt" stroke-miterlimit="10.0">
    <path d="M 134.2723,260.8310 c 0.0000,-0.7170 -0.5812,-1.2983 -1.2983 -1.2983c -0.7170,-0.0000 -1.2983,0.5812 -1.2983 1.2983c -0.0000,0.7170 0.5812,1.2983 1.2983 1.2983c 0.7170,0.0000 1.2983,-0.5812 1.2983 -1.2983Z"/>
  </g>
  <g stroke-linejoin="miter" stroke-opacity="1.0" fill-opacity="1.0" stroke="rgb(102,102,102)" stroke-width="0.0" fill="rgb(255,0,0)" stroke-linecap="butt" stroke-miterlimit="10.0">
    <path d="M 131.5295,262.1423 c 0.0000,-0.7170 -0.5812,-1.2983 -1.2983 -1.2983c -0.7170,-0.0000 -1.2983,0.5812 -1.2983 1.2983c -0.0000,0.7170 0.5812,1.2983 1.2983 1.2983c 0.7170,0.0000 1.2983,-0.5812 1.2983 -1.2983Z"/>
  </g>
  <g stroke-linejoin="miter" stroke-opacity="1.0" fill-opacity="1.0" stroke="rgb(102,102,102)" stroke-width="0.0" fill="rgb(255,0,0)" stroke-linecap="butt" stroke-miterlimit="10.0">
    <path d="M 128.7867,263.4537 c 0.0000,-0.7170 -0.5812,-1.2983 -1.2983 -1.2983c -0.7170,-0.0000 -1.2983,0.5812 -1.2983 1.2983c -0.0000,0.7170 0.5812,1.2983 1.2983 1.2983c 0.7170,0.0000 1.2983,-0.5812 1.2983 -1.2983Z"/>
  </g>
  <g stroke-linejoin="miter" stroke-opacity="1.0" fill-opacity="1.0" stroke="rgb(102,102,102)" stroke-width="0.0" fill="rgb(255,0,0)" stroke-linecap="butt" stroke-miterlimit="10.0">
    <path d="M 126.0439,264.7651 c 0.0000,-0.7170 -0.5812,-1.2983 -1.2983 -1.2983c -0.7170,-0.0000 -1.2983,0.5812 -1.2983 1.2983c -0.0000,0.7170 0.5812,1.2983 1.2983 1.2983c 0.7170,0.0000 1.2983,-0.5812 1.2983 -1.2983Z"/>
  </g>
  <g stroke-linejoin="miter" stroke-opacity="1.0" fill-opacity="1.0" stroke="rgb(102,102,102)" stroke-width="0.0" fill="rgb(255,0,0)" stroke-linecap="butt" stroke-miterlimit="10.0">
    <path d="M 123.3011,266.0764 c 0.0000,-0.7170 -0.5812,-1.2983 -1.2983 -1.2983c -0.7170,-0.0000 -1.2983,0.5812 -1.2983 1.2983c -0.0000,0.7170 0.5812,1.2983 1.2983 1.2983c 0.7170,0.0000 1.2983,-0.5812 1.2983 -1.2983Z"/>
  </g>
  <g stroke-linejoin="miter" stroke-opacity="1.0" fill-opacity="1.0" stroke="rgb(102,102,102)" stroke-width="0.0" fill="rgb(255,0,0)" stroke-linecap="butt" stroke-miterlimit="10.0">
    <path d="M 120.5583,270.0105 c 0.0000,-0.7170 -0.5812,-1.2983 -1.2983 -1.2983c -0.7170,-0.0000 -1.2983,0.5812 -1.2983 1.2983c -0.0000,0.7170 0.5812,1.2983 1.2983 1.2983c 0.7170,0.0000 1.2983,-0.5812 1.2983 -1.2983Z"/>
  </g>
  <g stroke-linejoin="miter" stroke-opacity="1.0" fill-opacity="1.0" stroke="rgb(102,102,102)" stroke-width="0.0" fill="rgb(255,0,0)" stroke-linecap="butt" stroke-miterlimit="10.0">
    <path d="M 117.8155,271.3219 c 0.0000,-0.7170 -0.5812,-1.2983 -1.2983 -1.2983c -0.7170,-0.0000 -1.2983,0.5812 -1.2983 1.2983c -0.0000,0.7170 0.5812,1.2983 1.2983 1.2983c 0.7170,0.0000 1.2983,-0.5812 1.2983 -1.2983Z"/>
  </g>
  <g stroke-linejoin="miter" stroke-opacity="1.0" fill-opacity="1.0" stroke="rgb(102,102,102)" stroke-width="0.0" fill="rgb(255,0,0)" stroke-linecap="butt" stroke-miterlimit="10.0">
    <path d="M 115.0727,272.6333 c 0.0000,-0.7170 -0.5812,-1.2983 -1.2983 -1.2983c -0.7170,-0.0000 -1.2983,0.5812 -1.2983 1.2983c -0.0000,0.7170 0.5812,1.2983 1.2983 1.2983c 0.7170,0.0000 1.2983,-0.5812 1.2983 -1.2983Z"/>
  </g>
  <g stroke-linejoin="miter" stroke-opacity="0.0" fill-opacity="0.1" stroke="rgb(0,0,0)" stroke-width="0.0" fill="rgb(0,0,0)" stroke-linecap="butt" stroke-miterlimit="10.0">
    <path d="M 103.3884,272.6333 l -0.0000,-259.6507 h -5.1930 l -0.0000,259.6507 Z"/>
  </g>
  <g stroke-linejoin="miter" stroke-opacity="0.0" fill-opacity="0.0" stroke="rgb(0,0,0)" fill-rule="evenodd" stroke-width="0.0" fill="rgb(0,0,0)" stroke-linecap="butt" stroke-miterlimit="10.0">
    <path d="M 91.7042,47.1186 l -0.0000,-17.8224 h -26.7336 l -0.0000,17.8224 Z"/>
  </g>
  <g stroke-linejoin="miter" stroke-opacity="1.0" fill-opacity="0.6" font-size="16.202205207224342px" stroke="rgb(0,0,0)" fill-rule="evenodd" stroke-width="0.0" fill="rgb(0,0,0)" stroke-linecap="butt" stroke-miterlimit="10.0">
    <text dominant-baseline="middle" transform="matrix(1.0000,-0.0000,0.0000,1.0000,78.3373,38.2074)" stroke="none" text-anchor="middle">180
    </text>
  </g>
  <g stroke-linejoin="miter" stroke-opacity="0.6" fill-opacity="0.0" stroke="rgb(0,0,0)" stroke-width="2.277646469480913" fill="rgb(0,0,0)" stroke-linecap="butt" stroke-miterlimit="10.0">
    <path d="M 95.5989,36.5871 h 7.7895 "/>
  </g>
  <g stroke-linejoin="miter" stroke-opacity="0.0" fill-opacity="0.0" stroke="rgb(0,0,0)" fill-rule="evenodd" stroke-width="0.0" fill="rgb(0,0,0)" stroke-linecap="butt" stroke-miterlimit="10.0">
    <path d="M 91.7042,73.3459 l -0.0000,-17.8224 h -26.7336 l -0.0000,17.8224 Z"/>
  </g>
  <g stroke-linejoin="miter" stroke-opacity="1.0" fill-opacity="0.6" font-size="16.202205207224342px" stroke="rgb(0,0,0)" fill-rule="evenodd" stroke-width="0.0" fill="rgb(0,0,0)" stroke-linecap="butt" stroke-miterlimit="10.0">
    <text dominant-baseline="middle" transform="matrix(1.0000,-0.0000,0.0000,1.0000,78.3373,64.4347)" stroke="none" text-anchor="middle">160
    </text>
  </g>
  <g stroke-linejoin="miter" stroke-opacity="0.6" fill-opacity="0.0" stroke="rgb(0,0,0)" stroke-width="2.277646469480913" fill="rgb(0,0,0)" stroke-linecap="butt" stroke-miterlimit="10.0">
    <path d="M 95.5989,62.8145 h 7.7895 "/>
  </g>
  <g stroke-linejoin="miter" stroke-opacity="0.0" fill-opacity="0.0" stroke="rgb(0,0,0)" fill-rule="evenodd" stroke-width="0.0" fill="rgb(0,0,0)" stroke-linecap="butt" stroke-miterlimit="10.0">
    <path d="M 91.7042,99.5733 l -0.0000,-17.8224 h -26.7336 l -0.0000,17.8224 Z"/>
  </g>
  <g stroke-linejoin="miter" stroke-opacity="1.0" fill-opacity="0.6" font-size="16.202205207224342px" stroke="rgb(0,0,0)" fill-rule="evenodd" stroke-width="0.0" fill="rgb(0,0,0)" stroke-linecap="butt" stroke-miterlimit="10.0">
    <text dominant-baseline="middle" transform="matrix(1.0000,-0.0000,0.0000,1.0000,78.3373,90.6621)" stroke="none" text-anchor="middle">140
    </text>
  </g>
  <g stroke-linejoin="miter" stroke-opacity="0.6" fill-opacity="0.0" stroke="rgb(0,0,0)" stroke-width="2.277646469480913" fill="rgb(0,0,0)" stroke-linecap="butt" stroke-miterlimit="10.0">
    <path d="M 95.5989,89.0418 h 7.7895 "/>
  </g>
  <g stroke-linejoin="miter" stroke-opacity="0.0" fill-opacity="0.0" stroke="rgb(0,0,0)" fill-rule="evenodd" stroke-width="0.0" fill="rgb(0,0,0)" stroke-linecap="butt" stroke-miterlimit="10.0">
    <path d="M 91.7042,125.8006 l -0.0000,-17.8224 h -26.7336 l -0.0000,17.8224 Z"/>
  </g>
  <g stroke-linejoin="miter" stroke-opacity="1.0" fill-opacity="0.6" font-size="16.202205207224342px" stroke="rgb(0,0,0)" fill-rule="evenodd" stroke-width="0.0" fill="rgb(0,0,0)" stroke-linecap="butt" stroke-miterlimit="10.0">
    <text dominant-baseline="middle" transform="matrix(1.0000,-0.0000,0.0000,1.0000,78.3373,116.8894)" stroke="none" text-anchor="middle">120
    </text>
  </g>
  <g stroke-linejoin="miter" stroke-opacity="0.6" fill-opacity="0.0" stroke="rgb(0,0,0)" stroke-width="2.277646469480913" fill="rgb(0,0,0)" stroke-linecap="butt" stroke-miterlimit="10.0">
    <path d="M 95.5989,115.2692 h 7.7895 "/>
  </g>
  <g stroke-linejoin="miter" stroke-opacity="0.0" fill-opacity="0.0" stroke="rgb(0,0,0)" fill-rule="evenodd" stroke-width="0.0" fill="rgb(0,0,0)" stroke-linecap="butt" stroke-miterlimit="10.0">
    <path d="M 91.7042,152.0280 l -0.0000,-17.8224 h -26.7336 l -0.0000,17.8224 Z"/>
  </g>
  <g stroke-linejoin="miter" stroke-opacity="1.0" fill-opacity="0.6" font-size="16.202205207224342px" stroke="rgb(0,0,0)" fill-rule="evenodd" stroke-width="0.0" fill="rgb(0,0,0)" stroke-linecap="butt" stroke-miterlimit="10.0">
    <text dominant-baseline="middle" transform="matrix(1.0000,-0.0000,0.0000,1.0000,78.3373,143.1168)" stroke="none" text-anchor="middle">100
    </text>
  </g>
  <g stroke-linejoin="miter" stroke-opacity="0.6" fill-opacity="0.0" stroke="rgb(0,0,0)" stroke-width="2.277646469480913" fill="rgb(0,0,0)" stroke-linecap="butt" stroke-miterlimit="10.0">
    <path d="M 95.5989,141.4965 h 7.7895 "/>
  </g>
  <g stroke-linejoin="miter" stroke-opacity="0.0" fill-opacity="0.0" stroke="rgb(0,0,0)" fill-rule="evenodd" stroke-width="0.0" fill="rgb(0,0,0)" stroke-linecap="butt" stroke-miterlimit="10.0">
    <path d="M 91.7042,178.2553 l -0.0000,-17.8224 h -17.8224 l -0.0000,17.8224 Z"/>
  </g>
  <g stroke-linejoin="miter" stroke-opacity="1.0" fill-opacity="0.6" font-size="16.202205207224342px" stroke="rgb(0,0,0)" fill-rule="evenodd" stroke-width="0.0" fill="rgb(0,0,0)" stroke-linecap="butt" stroke-miterlimit="10.0">
    <text dominant-baseline="middle" transform="matrix(1.0000,-0.0000,0.0000,1.0000,82.7930,169.3441)" stroke="none" text-anchor="middle">80
    </text>
  </g>
  <g stroke-linejoin="miter" stroke-opacity="0.6" fill-opacity="0.0" stroke="rgb(0,0,0)" stroke-width="2.277646469480913" fill="rgb(0,0,0)" stroke-linecap="butt" stroke-miterlimit="10.0">
    <path d="M 95.5989,167.7239 h 7.7895 "/>
  </g>
  <g stroke-linejoin="miter" stroke-opacity="0.0" fill-opacity="0.0" stroke="rgb(0,0,0)" fill-rule="evenodd" stroke-width="0.0" fill="rgb(0,0,0)" stroke-linecap="butt" stroke-miterlimit="10.0">
    <path d="M 91.7042,204.4827 l -0.0000,-17.8224 h -17.8224 l -0.0000,17.8224 Z"/>
  </g>
  <g stroke-linejoin="miter" stroke-opacity="1.0" fill-opacity="0.6" font-size="16.202205207224342px" stroke="rgb(0,0,0)" fill-rule="evenodd" stroke-width="0.0" fill="rgb(0,0,0)" stroke-linecap="butt" stroke-miterlimit="10.0">
    <text dominant-baseline="middle" transform="matrix(1.0000,-0.0000,0.0000,1.0000,82.7930,195.5714)" stroke="none" text-anchor="middle">60
    </text>
  </g>
  <g stroke-linejoin="miter" stroke-opacity="0.6" fill-opacity="0.0" stroke="rgb(0,0,0)" stroke-width="2.277646469480913" fill="rgb(0,0,0)" stroke-linecap="butt" stroke-miterlimit="10.0">
    <path d="M 95.5989,193.9512 h 7.7895 "/>
  </g>
  <g stroke-linejoin="miter" stroke-opacity="0.0" fill-opacity="0.0" stroke="rgb(0,0,0)" fill-rule="evenodd" stroke-width="0.0" fill="rgb(0,0,0)" stroke-linecap="butt" stroke-miterlimit="10.0">
    <path d="M 91.7042,230.7100 l -0.0000,-17.8224 h -17.8224 l -0.0000,17.8224 Z"/>
  </g>
  <g stroke-linejoin="miter" stroke-opacity="1.0" fill-opacity="0.6" font-size="16.202205207224342px" stroke="rgb(0,0,0)" fill-rule="evenodd" stroke-width="0.0" fill="rgb(0,0,0)" stroke-linecap="butt" stroke-miterlimit="10.0">
    <text dominant-baseline="middle" transform="matrix(1.0000,-0.0000,0.0000,1.0000,82.7930,221.7988)" stroke="none" text-anchor="middle">40
    </text>
  </g>
  <g stroke-linejoin="miter" stroke-opacity="0.6" fill-opacity="0.0" stroke="rgb(0,0,0)" stroke-width="2.277646469480913" fill="rgb(0,0,0)" stroke-linecap="butt" stroke-miterlimit="10.0">
    <path d="M 95.5989,220.1786 h 7.7895 "/>
  </g>
  <g stroke-linejoin="miter" stroke-opacity="0.0" fill-opacity="0.0" stroke="rgb(0,0,0)" fill-rule="evenodd" stroke-width="0.0" fill="rgb(0,0,0)" stroke-linecap="butt" stroke-miterlimit="10.0">
    <path d="M 91.7042,256.9373 l -0.0000,-17.8224 h -17.8224 l -0.0000,17.8224 Z"/>
  </g>
  <g stroke-linejoin="miter" stroke-opacity="1.0" fill-opacity="0.6" font-size="16.202205207224342px" stroke="rgb(0,0,0)" fill-rule="evenodd" stroke-width="0.0" fill="rgb(0,0,0)" stroke-linecap="butt" stroke-miterlimit="10.0">
    <text dominant-baseline="middle" transform="matrix(1.0000,-0.0000,0.0000,1.0000,82.7930,248.0261)" stroke="none" text-anchor="middle">20
    </text>
  </g>
  <g stroke-linejoin="miter" stroke-opacity="0.6" fill-opacity="0.0" stroke="rgb(0,0,0)" stroke-width="2.277646469480913" fill="rgb(0,0,0)" stroke-linecap="butt" stroke-miterlimit="10.0">
    <path d="M 95.5989,246.4059 h 7.7895 "/>
  </g>
  <g stroke-linejoin="miter" stroke-opacity="0.0" fill-opacity="0.0" stroke="rgb(0,0,0)" fill-rule="evenodd" stroke-width="0.0" fill="rgb(0,0,0)" stroke-linecap="butt" stroke-miterlimit="10.0">
    <path d="M 91.7042,283.1647 l -0.0000,-17.8224 h -8.9112 l -0.0000,17.8224 Z"/>
  </g>
  <g stroke-linejoin="miter" stroke-opacity="1.0" fill-opacity="0.6" font-size="16.202205207224342px" stroke="rgb(0,0,0)" fill-rule="evenodd" stroke-width="0.0" fill="rgb(0,0,0)" stroke-linecap="butt" stroke-miterlimit="10.0">
    <text dominant-baseline="middle" transform="matrix(1.0000,-0.0000,0.0000,1.0000,87.2486,274.2535)" stroke="none" text-anchor="middle">0
    </text>
  </g>
  <g stroke-linejoin="miter" stroke-opacity="0.6" fill-opacity="0.0" stroke="rgb(0,0,0)" stroke-width="2.277646469480913" fill="rgb(0,0,0)" stroke-linecap="butt" stroke-miterlimit="10.0">
    <path d="M 95.5989,272.6333 h 7.7895 "/>
  </g>
  <g stroke-linejoin="miter" stroke-opacity="0.0" fill-opacity="0.1" stroke="rgb(0,0,0)" stroke-width="0.0" fill="rgb(0,0,0)" stroke-linecap="butt" stroke-miterlimit="10.0">
    <path d="M 503.2506,288.2123 l -0.0000,-5.1930 h -389.4761 l -0.0000,5.1930 Z"/>
  </g>
  <g stroke-linejoin="miter" stroke-opacity="0.0" fill-opacity="0.0" stroke="rgb(0,0,0)" fill-rule="evenodd" stroke-width="0.0" fill="rgb(0,0,0)" stroke-linecap="butt" stroke-miterlimit="10.0">
    <path d="M 523.9748,376.6189 l 12.6024,-12.6024 l -69.3130,-69.3130 l -12.6024,12.6024 Z"/>
  </g>
  <g stroke-linejoin="miter" stroke-opacity="1.0" fill-opacity="0.6" font-size="16.20220520722434px" stroke="rgb(0,0,0)" fill-rule="evenodd" stroke-width="0.0" fill="rgb(0,0,0)" stroke-linecap="butt" stroke-miterlimit="10.0">
    <text dominant-baseline="middle" transform="matrix(0.7071,0.7071,-0.7071,0.7071,460.9631,301.0048)" stroke="none" text-anchor="start">30 Nov 2018
    </text>
  </g>
  <g stroke-linejoin="miter" stroke-opacity="0.6" fill-opacity="0.0" stroke="rgb(0,0,0)" stroke-width="2.277646469480913" fill="rgb(0,0,0)" stroke-linecap="butt" stroke-miterlimit="10.0">
    <path d="M 462.1087,283.0193 v 7.7895 "/>
  </g>
  <g stroke-linejoin="miter" stroke-opacity="0.0" fill-opacity="0.0" stroke="rgb(0,0,0)" fill-rule="evenodd" stroke-width="0.0" fill="rgb(0,0,0)" stroke-linecap="butt" stroke-miterlimit="10.0">
    <path d="M 463.6335,376.6189 l 12.6024,-12.6024 l -69.3130,-69.3130 l -12.6024,12.6024 Z"/>
  </g>
  <g stroke-linejoin="miter" stroke-opacity="1.0" fill-opacity="0.6" font-size="16.20220520722434px" stroke="rgb(0,0,0)" fill-rule="evenodd" stroke-width="0.0" fill="rgb(0,0,0)" stroke-linecap="butt" stroke-miterlimit="10.0">
    <text dominant-baseline="middle" transform="matrix(0.7071,0.7071,-0.7071,0.7071,400.6217,301.0048)" stroke="none" text-anchor="start">31 Oct 2018
    </text>
  </g>
  <g stroke-linejoin="miter" stroke-opacity="0.6" fill-opacity="0.0" stroke="rgb(0,0,0)" stroke-width="2.277646469480913" fill="rgb(0,0,0)" stroke-linecap="butt" stroke-miterlimit="10.0">
    <path d="M 401.7674,283.0193 v 7.7895 "/>
  </g>
  <g stroke-linejoin="miter" stroke-opacity="0.0" fill-opacity="0.0" stroke="rgb(0,0,0)" fill-rule="evenodd" stroke-width="0.0" fill="rgb(0,0,0)" stroke-linecap="butt" stroke-miterlimit="10.0">
    <path d="M 400.5493,376.6189 l 12.6024,-12.6024 l -69.3130,-69.3130 l -12.6024,12.6024 Z"/>
  </g>
  <g stroke-linejoin="miter" stroke-opacity="1.0" fill-opacity="0.6" font-size="16.20220520722434px" stroke="rgb(0,0,0)" fill-rule="evenodd" stroke-width="0.0" fill="rgb(0,0,0)" stroke-linecap="butt" stroke-miterlimit="10.0">
    <text dominant-baseline="middle" transform="matrix(0.7071,0.7071,-0.7071,0.7071,337.5375,301.0048)" stroke="none" text-anchor="start">30 Sep 2018
    </text>
  </g>
  <g stroke-linejoin="miter" stroke-opacity="0.6" fill-opacity="0.0" stroke="rgb(0,0,0)" stroke-width="2.277646469480913" fill="rgb(0,0,0)" stroke-linecap="butt" stroke-miterlimit="10.0">
    <path d="M 338.6832,283.0193 v 7.7895 "/>
  </g>
  <g stroke-linejoin="miter" stroke-opacity="0.0" fill-opacity="0.0" stroke="rgb(0,0,0)" fill-rule="evenodd" stroke-width="0.0" fill="rgb(0,0,0)" stroke-linecap="butt" stroke-miterlimit="10.0">
    <path d="M 345.6935,376.6189 l 12.6024,-12.6024 l -69.3130,-69.3130 l -12.6024,12.6024 Z"/>
  </g>
  <g stroke-linejoin="miter" stroke-opacity="1.0" fill-opacity="0.6" font-size="16.20220520722434px" stroke="rgb(0,0,0)" fill-rule="evenodd" stroke-width="0.0" fill="rgb(0,0,0)" stroke-linecap="butt" stroke-miterlimit="10.0">
    <text dominant-baseline="middle" transform="matrix(0.7071,0.7071,-0.7071,0.7071,282.6817,301.0048)" stroke="none" text-anchor="start">31 Aug 2018
    </text>
  </g>
  <g stroke-linejoin="miter" stroke-opacity="0.6" fill-opacity="0.0" stroke="rgb(0,0,0)" stroke-width="2.277646469480913" fill="rgb(0,0,0)" stroke-linecap="butt" stroke-miterlimit="10.0">
    <path d="M 283.8274,283.0193 v 7.7895 "/>
  </g>
  <g stroke-linejoin="miter" stroke-opacity="0.0" fill-opacity="0.0" stroke="rgb(0,0,0)" fill-rule="evenodd" stroke-width="0.0" fill="rgb(0,0,0)" stroke-linecap="butt" stroke-miterlimit="10.0">
    <path d="M 282.6094,376.6189 l 12.6024,-12.6024 l -69.3130,-69.3130 l -12.6024,12.6024 Z"/>
  </g>
  <g stroke-linejoin="miter" stroke-opacity="1.0" fill-opacity="0.6" font-size="16.20220520722434px" stroke="rgb(0,0,0)" fill-rule="evenodd" stroke-width="0.0" fill="rgb(0,0,0)" stroke-linecap="butt" stroke-miterlimit="10.0">
    <text dominant-baseline="middle" transform="matrix(0.7071,0.7071,-0.7071,0.7071,219.5976,301.0048)" stroke="none" text-anchor="start">31 Jul 2018
    </text>
  </g>
  <g stroke-linejoin="miter" stroke-opacity="0.6" fill-opacity="0.0" stroke="rgb(0,0,0)" stroke-width="2.277646469480913" fill="rgb(0,0,0)" stroke-linecap="butt" stroke-miterlimit="10.0">
    <path d="M 220.7433,283.0193 v 7.7895 "/>
  </g>
  <g stroke-linejoin="miter" stroke-opacity="0.0" fill-opacity="0.0" stroke="rgb(0,0,0)" fill-rule="evenodd" stroke-width="0.0" fill="rgb(0,0,0)" stroke-linecap="butt" stroke-miterlimit="10.0">
    <path d="M 222.2680,376.6189 l 12.6024,-12.6024 l -69.3130,-69.3130 l -12.6024,12.6024 Z"/>
  </g>
  <g stroke-linejoin="miter" stroke-opacity="1.0" fill-opacity="0.6" font-size="16.20220520722434px" stroke="rgb(0,0,0)" fill-rule="evenodd" stroke-width="0.0" fill="rgb(0,0,0)" stroke-linecap="butt" stroke-miterlimit="10.0">
    <text dominant-baseline="middle" transform="matrix(0.7071,0.7071,-0.7071,0.7071,159.2562,301.0048)" stroke="none" text-anchor="start">30 Jun 2018
    </text>
  </g>
  <g stroke-linejoin="miter" stroke-opacity="0.6" fill-opacity="0.0" stroke="rgb(0,0,0)" stroke-width="2.277646469480913" fill="rgb(0,0,0)" stroke-linecap="butt" stroke-miterlimit="10.0">
    <path d="M 160.4019,283.0193 v 7.7895 "/>
  </g>
  <g stroke-linejoin="miter" stroke-opacity="0.0" fill-opacity="0.0" stroke="rgb(0,0,0)" stroke-width="0.0" fill="rgb(0,0,0)" stroke-linecap="butt" stroke-miterlimit="10.0">
    <path d="M 503.2506,272.6333 l -0.0000,-259.6507 h -389.4761 l -0.0000,259.6507 Z"/>
  </g>
</svg>