<?xml version="1.0" encoding="UTF-8"?>
<!DOCTYPE svg PUBLIC "-//W3C//DTD SVG 1.1//EN"
    "http://www.w3.org/Graphics/SVG/1.1/DTD/svg11.dtd"><svg xmlns="http://www.w3.org/2000/svg" height="200.0000" stroke-opacity="1" viewBox="0 0 300 200" font-size="1" width="300.0000" xmlns:xlink="http://www.w3.org/1999/xlink" stroke="rgb(0,0,0)" version="1.1"><defs></defs><g stroke-linejoin="miter" stroke-opacity="1.0" fill-opacity="0.6" stroke="rgb(0,0,0)" fill-rule="evenodd" stroke-width="0.0" fill="rgb(0,0,0)" stroke-linecap="butt" stroke-miterlimit="10.0"><path d="M 95.3783,21.1729 ZM 98.0556,15.7388 c 0.0000,0.0663 -0.0530,0.1060 -0.1193 0.1060h -0.1988 c -0.2916,-0.0000 -0.3844,0.0795 -0.3844 0.2121c 0.0000,0.0928 0.0530,0.2121 0.1193 0.3976l 1.3916,3.4990 l 1.1531,-2.8761 l -0.2386,-0.5964 c -0.1723,-0.4506 -0.4506,-0.6362 -0.8482 -0.6362c -0.0663,-0.0000 -0.1325,-0.0265 -0.1325 -0.0928v -0.2651 l 0.0265,-0.0265 c 0.0000,-0.0000 0.7422,0.0265 1.2061 0.0265l 1.3254,-0.0265 l 0.0398,0.0265 v 0.2518 c 0.0000,0.0663 -0.0663,0.1060 -0.1325 0.1060h -0.2386 c -0.2651,-0.0000 -0.3844,0.0530 -0.3844 0.1856c 0.0000,0.1060 0.0530,0.2386 0.1325 0.4241l 1.3784,3.4990 l 1.3784,-3.4327 c 0.0398,-0.0795 0.0663,-0.1856 0.0663 -0.2916c 0.0000,-0.2253 -0.1458,-0.3844 -0.5964 -0.3844h -0.1988 c -0.0663,-0.0000 -0.1193,-0.0530 -0.1193 -0.0928v -0.2651 l 0.0398,-0.0265 c 0.0000,-0.0000 0.8747,0.0265 1.3651 0.0265c 0.4506,-0.0000 0.9808,-0.0265 0.9808 -0.0265l 0.0133,0.0265 v 0.2518 c 0.0000,0.0795 -0.0795,0.1060 -0.1590 0.1060c -0.3313,-0.0000 -0.6759,0.1458 -0.9145 0.7290l -1.8025,4.4798 c -0.0795,0.1988 -0.1856,0.2783 -0.3048 0.2783c -0.1325,-0.0000 -0.2386,-0.0795 -0.3181 -0.2651l -1.3254,-3.3134 l -1.3254,3.2869 c -0.0928,0.2121 -0.1988,0.2916 -0.3181 0.2916c -0.1325,-0.0000 -0.2386,-0.0795 -0.3181 -0.2651l -1.8158,-4.5858 c -0.1988,-0.5169 -0.4374,-0.6362 -0.8350 -0.6362c -0.0663,-0.0000 -0.1590,-0.0265 -0.1590 -0.0928v -0.2651 l 0.0265,-0.0265 c 0.0000,-0.0000 0.6229,0.0265 1.2061 0.0265c 0.6097,-0.0000 1.3121,-0.0265 1.3121 -0.0265l 0.0265,0.0398 v 0.2386 ZM 105.2391,21.1729 ZM 106.2729,13.6050 c 0.0000,-0.3446 0.2783,-0.6362 0.6229 -0.6362c 0.3579,-0.0000 0.6362,0.2916 0.6362 0.6362c 0.0000,0.3579 -0.2783,0.6362 -0.6362 0.6362c -0.3446,-0.0000 -0.6229,-0.2783 -0.6229 -0.6362ZM 106.2729,13.6050 ZM 107.5320,20.2186 c 0.0000,0.3844 0.1458,0.5832 0.5699 0.5832h 0.2518 c 0.0663,-0.0000 0.1193,0.0398 0.1193 0.1060v 0.2518 l -0.0265,0.0265 c 0.0000,-0.0000 -0.9145,-0.0265 -1.4314 -0.0265c -0.4639,-0.0000 -1.3651,0.0265 -1.3651 0.0265l -0.0265,-0.0265 v -0.2518 c 0.0000,-0.0663 0.0398,-0.1060 0.1060 -0.1060h 0.2518 c 0.4374,-0.0000 0.5699,-0.1988 0.5699 -0.5832v -3.3002 c 0.0000,-0.7024 -0.1193,-0.8085 -0.3048 -0.8085c -0.1723,-0.0000 -0.3313,0.0133 -0.5567 0.0663l -0.0663,-0.3711 c 0.8482,-0.1458 0.9940,-0.1988 1.3784 -0.3844c 0.1458,-0.0530 0.2386,-0.1060 0.3313 -0.1060h 0.1988 v 4.9039 ZM 108.7381,21.1729 ZM 110.9117,15.9906 v 3.3930 c 0.0000,0.8217 0.0795,1.2193 0.4374 1.2193c 0.3446,-0.0000 0.6097,-0.1060 0.9543 -0.3711l 0.2386,0.2253 c -0.5169,0.5832 -1.0470,0.8747 -1.6567 0.8747c -0.6097,-0.0000 -0.9675,-0.3711 -0.9675 -1.3121v -4.0291 h -0.8615 c -0.0398,-0.0000 -0.0530,-0.0133 -0.0530 -0.0530v -0.4109 c 0.0000,-0.0398 0.0133,-0.0530 0.0398 -0.0530c 0.8880,-0.0000 1.1001,-0.5169 1.1001 -1.5242v -0.2518 l 0.7687,-0.2651 v 2.0411 h 1.4579 c 0.0663,-0.0000 0.1060,0.0265 0.1060 0.0795v 0.2651 c 0.0000,0.1193 -0.1856,0.1723 -0.3181 0.1723h -1.2459 ZM 112.7407,21.1729 ZM 114.9011,11.9217 v 4.4930 c 0.8880,-0.8880 1.6700,-1.1001 2.1869 -1.1001c 0.9543,-0.0000 1.4314,0.7290 1.4314 2.0941v 2.8098 c 0.0000,0.3844 0.1325,0.5832 0.5699 0.5832h 0.2518 c 0.0530,-0.0000 0.1060,0.0398 0.1060 0.1060v 0.2518 l -0.0265,0.0265 c 0.0000,-0.0000 -0.9013,-0.0265 -1.4314 -0.0265c -0.4639,-0.0000 -1.3651,0.0265 -1.3651 0.0265l -0.0265,-0.0265 v -0.2518 c 0.0000,-0.0663 0.0398,-0.1060 0.1060 -0.1060h 0.2518 c 0.4506,-0.0000 0.5699,-0.1988 0.5699 -0.5832v -2.9556 c 0.0000,-1.0736 -0.2916,-1.3254 -1.0338 -1.3254c -0.3844,-0.0000 -0.9543,0.3446 -1.5904 0.9675v 3.3134 c 0.0000,0.3844 0.1325,0.5832 0.5699 0.5832h 0.2518 c 0.0530,-0.0000 0.1060,0.0398 0.1060 0.1060v 0.2518 l -0.0265,0.0265 c 0.0000,-0.0000 -0.9013,-0.0265 -1.4182 -0.0265c -0.4771,-0.0000 -1.3651,0.0265 -1.3651 0.0265l -0.0265,-0.0265 v -0.2518 c 0.0000,-0.0663 0.0265,-0.1060 0.0928 -0.1060h 0.2518 c 0.4506,-0.0000 0.5699,-0.1988 0.5699 -0.5832v -6.6401 c 0.0000,-0.7555 -0.1193,-0.9675 -0.3844 -0.9675l -0.4374,0.0530 c -0.0398,-0.0000 -0.0663,-0.0265 -0.0663 -0.0663l -0.0265,-0.3313 c 0.2121,-0.0000 0.6892,-0.0795 0.9145 -0.1193c 0.2386,-0.0530 0.4374,-0.1060 0.7024 -0.2253h 0.2916 ZM 119.6062,21.1729 ZM 126.4186,20.2186 v -3.3399 h -4.3340 v 3.3399 c 0.0000,0.4109 0.1988,0.5832 0.7290 0.5832h 0.3446 c 0.0530,-0.0000 0.1060,0.0398 0.1060 0.1060v 0.2518 l -0.0265,0.0265 c 0.0000,-0.0000 -1.1398,-0.0265 -1.6700 -0.0265c -0.4639,-0.0000 -1.6965,0.0265 -1.6965 0.0265l -0.0265,-0.0265 v -0.2518 c 0.0000,-0.0663 0.0398,-0.1060 0.0928 -0.1060h 0.3579 c 0.5434,-0.0000 0.7157,-0.2121 0.7157 -0.5832v -6.6534 c 0.0000,-0.3976 -0.1988,-0.5832 -0.7157 -0.5832h -0.3579 c -0.0530,-0.0000 -0.1060,-0.0398 -0.1060 -0.1060v -0.2518 l 0.0265,-0.0133 c 0.0000,-0.0000 1.1531,0.0133 1.6700 0.0133c 0.4771,-0.0000 1.7097,-0.0133 1.7097 -0.0133l 0.0265,0.0133 v 0.2518 c 0.0000,0.0663 -0.0398,0.1060 -0.1060 0.1060h -0.3446 c -0.5434,-0.0000 -0.7290,0.2121 -0.7290 0.5832v 2.7965 h 4.3340 v -2.7965 c 0.0000,-0.3976 -0.1988,-0.5832 -0.7290 -0.5832h -0.3446 c -0.0663,-0.0000 -0.1193,-0.0398 -0.1193 -0.1060v -0.2518 l 0.0265,-0.0133 c 0.0000,-0.0000 1.1531,0.0133 1.6700 0.0133c 0.4771,-0.0000 1.7097,-0.0133 1.7097 -0.0133l 0.0265,0.0133 v 0.2518 c 0.0000,0.0663 -0.0398,0.1060 -0.1060 0.1060h -0.3446 c -0.5434,-0.0000 -0.7290,0.2121 -0.7290 0.5832v 6.6534 c 0.0000,0.4109 0.1988,0.5832 0.7290 0.5832h 0.3446 c 0.0663,-0.0000 0.1193,0.0398 0.1193 0.1060v 0.2518 l -0.0265,0.0265 c 0.0000,-0.0000 -1.1531,-0.0265 -1.6700 -0.0265c -0.4771,-0.0000 -1.7097,0.0265 -1.7097 0.0265l -0.0265,-0.0265 v -0.2518 c 0.0000,-0.0663 0.0398,-0.1060 0.1060 -0.1060h 0.3446 c 0.5434,-0.0000 0.7290,-0.2121 0.7290 -0.5832ZM 128.8838,21.1729 ZM 134.5696,19.6354 c 0.0000,0.6627 0.0663,0.8747 0.3313 0.8747c 0.1590,-0.0000 0.4506,-0.0265 0.6759 -0.0663l 0.0530,0.3711 c -0.8085,0.1458 -1.4579,0.2783 -1.7627 0.5169h -0.2916 l 0.0398,-0.9808 h -0.0398 c -0.7290,0.7952 -1.3254,0.9808 -1.8688 0.9808c -1.3121,-0.0000 -1.6567,-0.8880 -1.6567 -1.8025v -3.0219 c 0.0000,-0.4374 -0.0928,-0.6627 -0.5832 -0.6627c -0.0530,-0.0000 -0.1458,0.0133 -0.2253 0.0133l -0.0398,-0.0133 v -0.3446 l 0.0398,-0.0398 c 0.0000,-0.0000 0.9013,0.0265 1.3254 0.0265c 0.1856,-0.0000 0.4904,-0.0265 0.4904 -0.0265l -0.0133,1.0603 v 2.8230 c 0.0000,1.1796 0.6097,1.3916 1.0073 1.3916c 0.3048,-0.0000 0.5832,-0.1193 0.8615 -0.3181c 0.3181,-0.2386 0.5301,-0.4241 0.6627 -0.5964v -3.2737 c 0.0000,-0.4771 -0.0663,-0.7024 -0.5567 -0.7024c -0.0795,-0.0000 -0.2253,0.0133 -0.2651 0.0133l -0.0265,-0.0265 v -0.3313 l 0.0265,-0.0398 c 0.0000,-0.0000 0.9410,0.0265 1.3121 0.0265c 0.3048,-0.0000 0.5169,-0.0265 0.5169 -0.0265l -0.0133,1.0470 v 3.1279 ZM 135.7360,21.1729 ZM 140.1627,19.9933 v -3.4327 c -0.3181,-0.5036 -0.6759,-0.7820 -1.2989 -0.7820c -0.2651,-0.0000 -0.8085,0.0398 -1.2326 0.6627c -0.1856,0.2783 -0.4109,0.8482 -0.4109 1.8025c 0.0000,1.7362 0.9013,2.5315 1.6170 2.5315c 0.4374,-0.0000 0.7952,-0.2651 1.3254 -0.7820ZM 140.1627,19.9933 ZM 141.1568,11.9217 v 7.6607 c 0.0000,0.3976 0.0265,0.6097 0.0530 0.7024c 0.0398,0.1193 0.1856,0.1988 0.2916 0.1988c 0.1590,-0.0000 0.4506,-0.0000 0.6494 -0.0398l 0.0530,0.3711 c -0.7687,0.1325 -1.4579,0.2783 -1.7362 0.5169h -0.3181 l 0.0398,-0.9145 c -0.5036,0.5169 -1.0205,0.9145 -1.6965 0.9145c -1.4314,-0.0000 -2.3062,-1.2193 -2.3062 -2.8496c 0.0000,-0.9808 0.2651,-1.8025 0.8350 -2.3724c 0.5301,-0.5036 1.1133,-0.7952 1.9881 -0.7952c 0.2651,-0.0000 0.8482,0.1193 1.1531 0.2916v -2.0278 c 0.0000,-0.7555 -0.1193,-0.9675 -0.3844 -0.9675l -0.4374,0.0530 c -0.0265,-0.0000 -0.0663,-0.0265 -0.0663 -0.0663l -0.0265,-0.3313 c 0.2121,-0.0000 0.6892,-0.0795 0.9145 -0.1193c 0.2518,-0.0530 0.4374,-0.1060 0.7024 -0.2253h 0.2916 ZM 145.5968,21.1729 ZM 150.2753,13.1411 h -1.7893 c -0.3181,-0.0000 -0.4771,0.1060 -0.4771 0.4241v 2.8230 h 1.8158 c 0.4639,-0.0000 0.5832,-0.2121 0.6627 -0.5832l 0.0928,-0.3976 c 0.0000,-0.0530 0.0398,-0.1060 0.0928 -0.1060h 0.2916 c 0.0398,-0.0000 0.0530,0.0265 0.0530 0.0530c -0.0530,0.3313 -0.1060,0.8217 -0.1060 1.2591c 0.0000,0.4506 0.0663,1.0470 0.1060 1.2724l -0.0398,0.0398 h -0.3048 c -0.0663,-0.0000 -0.1060,-0.0530 -0.1060 -0.0928l -0.0795,-0.4109 c -0.0663,-0.3844 -0.2121,-0.5832 -0.6627 -0.5832h -1.8158 v 3.3797 c 0.0000,0.3579 0.1856,0.4374 0.4771 0.4374h 2.2001 c 1.0073,-0.0000 1.3916,-0.7820 1.6567 -1.7362l 0.4109,0.0663 c -0.1590,0.6892 -0.2916,1.4447 -0.3579 2.1869h -3.8966 l -1.0205,-0.0133 l -1.6965,0.0265 l -0.0265,-0.0265 v -0.2651 c 0.0000,-0.0398 0.0265,-0.0928 0.1060 -0.0928h 0.3976 c 0.5301,-0.0000 0.6892,-0.2121 0.6892 -0.5832v -6.6401 c 0.0000,-0.4109 -0.1856,-0.5964 -0.6892 -0.5964h -0.3976 c -0.0928,-0.0000 -0.1060,-0.0530 -0.1060 -0.0928v -0.2651 l 0.0265,-0.0133 l 1.6965,0.0133 l 1.0338,-0.0133 h 3.3930 c 0.0530,0.7024 0.1723,1.5109 0.2783 2.0543l -0.3844,0.0663 c -0.2916,-0.9145 -0.5301,-1.5904 -1.5242 -1.5904ZM 153.1381,21.1729 ZM 155.7491,15.8449 c -0.2651,-0.0000 -0.3181,0.0663 -0.3181 0.1590c 0.0000,0.0663 0.0530,0.1856 0.1988 0.4241l 0.8085,1.1928 c 0.0398,0.0795 0.0795,0.1193 0.1325 0.1193c 0.0398,-0.0000 0.0663,-0.0265 0.1193 -0.0928l 0.8615,-1.2061 c 0.1458,-0.1856 0.2253,-0.3313 0.2253 -0.4374c 0.0000,-0.1060 -0.0928,-0.1590 -0.2783 -0.1590h -0.2121 c -0.0398,-0.0000 -0.0795,-0.0265 -0.0795 -0.0928v -0.2518 l 0.0398,-0.0398 c 0.0000,-0.0000 0.6229,0.0265 1.0338 0.0265c 0.4241,-0.0000 1.0736,-0.0265 1.0736 -0.0265l 0.0133,0.0265 v 0.2518 c 0.0000,0.0928 -0.0795,0.1060 -0.1590 0.1060c -0.4904,-0.0000 -0.6892,0.1590 -1.1796 0.7820l -1.1133,1.4182 c -0.0265,0.0398 -0.0398,0.0663 -0.0398 0.0928c 0.0000,0.0265 0.0133,0.0663 0.0398 0.1060l 1.1928,1.6832 c 0.6097,0.8615 0.7820,0.8747 1.2061 0.8747c 0.1325,-0.0000 0.1856,0.0265 0.1856 0.1060v 0.2518 l -0.0133,0.0265 c 0.0000,-0.0000 -0.7157,-0.0265 -1.1663 -0.0265c -0.5434,-0.0000 -1.3784,0.0265 -1.3784 0.0265l -0.0265,-0.0265 v -0.2518 c 0.0000,-0.0663 0.0265,-0.1060 0.0928 -0.1060h 0.1590 c 0.2121,-0.0000 0.3048,-0.0398 0.3048 -0.1458c 0.0000,-0.1193 -0.1458,-0.3181 -0.3579 -0.5964l -0.7687,-1.0603 c -0.0530,-0.0663 -0.0795,-0.0928 -0.1193 -0.0928c -0.0265,-0.0000 -0.0663,0.0398 -0.1193 0.1193l -0.8350,1.2061 c -0.1988,0.2651 -0.2386,0.3313 -0.2386 0.4241c 0.0000,0.0928 0.0795,0.1458 0.2783 0.1458h 0.1856 c 0.0663,-0.0000 0.0928,0.0398 0.0928 0.1060v 0.2518 l -0.0265,0.0265 c 0.0000,-0.0000 -0.6892,-0.0265 -1.1133 -0.0265c -0.3844,-0.0000 -0.9940,0.0265 -0.9940 0.0265l -0.0265,-0.0265 v -0.2253 c 0.0000,-0.0795 0.0530,-0.1325 0.1723 -0.1325c 0.3181,-0.0000 0.6229,-0.0663 1.1796 -0.7820l 1.1133,-1.4314 c 0.0133,-0.0265 0.0265,-0.0530 0.0265 -0.0928c 0.0000,-0.0398 -0.0133,-0.0663 -0.0398 -0.1060l -1.1531,-1.6832 c -0.3711,-0.5434 -0.6097,-0.8615 -1.0736 -0.8615c -0.0928,-0.0000 -0.1856,-0.0398 -0.1856 -0.0928v -0.2518 l 0.0265,-0.0398 l 1.0470,0.0265 l 1.4712,-0.0265 l 0.0398,0.0398 v 0.2386 c 0.0000,0.0663 -0.0530,0.1060 -0.1060 0.1060h -0.1988 ZM 159.7253,21.1729 ZM 163.5821,17.9257 l -1.0470,0.2651 c -1.1663,0.3579 -1.3386,0.9675 -1.3386 1.5639c 0.0000,0.4109 0.1988,1.0338 1.0338 1.0338c 0.3976,-0.0000 1.0073,-0.3844 1.3519 -0.6759v -2.1869 ZM 163.5821,17.9257 ZM 164.4303,21.3319 c -0.5036,-0.0000 -0.7820,-0.4506 -0.8350 -0.7687l -0.3048,0.2121 c -0.6097,0.4241 -0.8350,0.5567 -1.4447 0.5567c -0.9278,-0.0000 -1.6037,-0.5301 -1.6037 -1.5242c 0.0000,-1.0073 0.8615,-1.6965 2.1206 -2.0146l 1.2193,-0.3048 c 0.0000,-1.4977 -0.6892,-1.7760 -1.1398 -1.7760c -0.5036,-0.0000 -1.0868,0.2253 -1.0868 0.6362c 0.0000,0.1458 0.0265,0.2253 0.0398 0.2651c 0.0265,0.0530 0.0398,0.1458 0.0398 0.2386c 0.0000,0.1723 -0.1325,0.4374 -0.5169 0.4374c -0.3181,-0.0000 -0.5301,-0.2121 -0.5301 -0.5301c 0.0000,-0.7687 1.2459,-1.4447 2.0941 -1.4447c 0.9675,-0.0000 2.0808,0.3976 2.0808 2.2796v 1.9483 c 0.0000,0.8085 0.0133,1.1531 0.3181 1.1531c 0.2916,-0.0000 0.3711,-0.3711 0.3844 -0.6627l 0.3313,0.0663 c -0.0795,0.9675 -0.4904,1.2326 -1.1663 1.2326ZM 165.7027,21.1729 ZM 173.6947,20.2186 v -3.0484 c 0.0000,-0.8880 -0.3446,-1.2193 -0.8482 -1.2193c -0.5169,-0.0000 -0.9278,0.2651 -1.5639 0.9675c 0.0265,0.1590 0.0265,0.3446 0.0265 0.5301v 2.7700 c 0.0000,0.3844 0.1325,0.5832 0.5699 0.5832h 0.2253 c 0.0663,-0.0000 0.1193,0.0398 0.1193 0.1060v 0.2518 l -0.0265,0.0265 c 0.0000,-0.0000 -0.8880,-0.0265 -1.4049 -0.0265c -0.4771,-0.0000 -1.3916,0.0265 -1.3916 0.0265l -0.0265,-0.0265 v -0.2518 c 0.0000,-0.0663 0.0398,-0.1060 0.1060 -0.1060h 0.2651 c 0.4506,-0.0000 0.5699,-0.1988 0.5699 -0.5832v -3.0219 c 0.0000,-0.8880 -0.3579,-1.2459 -0.8615 -1.2459c -0.4639,-0.0000 -0.9013,0.3313 -1.5242 0.9808v 3.2869 c 0.0000,0.3844 0.1325,0.5832 0.5699 0.5832h 0.2518 c 0.0530,-0.0000 0.1060,0.0398 0.1060 0.1060v 0.2518 l -0.0265,0.0265 c 0.0000,-0.0000 -0.9013,-0.0265 -1.4182 -0.0265c -0.4771,-0.0000 -1.3784,0.0265 -1.3784 0.0265l -0.0265,-0.0265 v -0.2518 c 0.0000,-0.0663 0.0398,-0.1060 0.1060 -0.1060h 0.2518 c 0.4506,-0.0000 0.5699,-0.1988 0.5699 -0.5832v -3.3002 c 0.0000,-0.7555 -0.1193,-0.8085 -0.2916 -0.8085c -0.1723,-0.0000 -0.3313,0.0133 -0.5567 0.0663l -0.0663,-0.3711 c 0.8350,-0.1458 1.0205,-0.1988 1.3784 -0.3844c 0.1325,-0.0663 0.2386,-0.1060 0.3313 -0.1060h 0.1988 l -0.0398,1.1531 h 0.0398 c 0.6229,-0.6627 1.1796,-1.1531 2.0013 -1.1531c 0.7422,-0.0000 1.2061,0.5434 1.2856 1.1398c 0.7687,-0.7952 1.3916,-1.1398 2.1073 -1.1398c 1.1663,-0.0000 1.3651,0.9675 1.3651 2.1471v 2.7568 c 0.0000,0.3844 0.1325,0.5832 0.5699 0.5832h 0.2518 c 0.0530,-0.0000 0.1060,0.0398 0.1060 0.1060v 0.2518 l -0.0265,0.0265 c 0.0000,-0.0000 -0.9013,-0.0265 -1.4182 -0.0265c -0.4771,-0.0000 -1.3784,0.0265 -1.3784 0.0265l -0.0265,-0.0265 v -0.2518 c 0.0000,-0.0663 0.0398,-0.1060 0.1060 -0.1060h 0.2518 c 0.4374,-0.0000 0.5699,-0.1988 0.5699 -0.5832ZM 175.7755,21.1729 ZM 177.7503,17.0112 v 3.3002 c 0.4639,0.5434 0.9013,0.5699 1.1133 0.5699c 1.4182,-0.0000 1.7362,-1.3254 1.7362 -2.4652c 0.0000,-1.6037 -0.6494,-2.4917 -1.4579 -2.4917c -0.4506,-0.0000 -1.1001,0.3844 -1.3916 1.0868ZM 177.7503,17.0112 ZM 176.7696,23.2669 v -6.5606 c 0.0000,-0.5036 -0.1193,-0.5964 -0.3048 -0.5964c -0.1723,-0.0000 -0.3313,0.0133 -0.5567 0.0663l -0.0663,-0.3711 c 0.8482,-0.1458 1.0073,-0.1988 1.3784 -0.3844c 0.1458,-0.0663 0.2386,-0.1060 0.3313 -0.1060h 0.1988 l -0.0398,1.0603 h 0.0398 c 0.6097,-0.9278 1.3254,-1.0603 1.7495 -1.0603c 1.2856,-0.0000 2.1339,1.3386 2.1339 2.7435c 0.0000,1.0736 -0.3313,1.8953 -0.9278 2.5050c -0.5169,0.5169 -1.0603,0.7687 -1.7627 0.7687c -0.4771,-0.0000 -0.8482,-0.1060 -1.1928 -0.2916v 2.2266 c 0.0000,0.3844 0.1458,0.5832 0.5699 0.5832h 0.2518 c 0.0663,-0.0000 0.1193,0.0398 0.1193 0.1060v 0.2518 l -0.0265,0.0265 c 0.0000,-0.0000 -0.9145,-0.0265 -1.4314 -0.0265c -0.4639,-0.0000 -1.3651,0.0265 -1.3651 0.0265l -0.0265,-0.0265 v -0.2518 c 0.0000,-0.0663 0.0398,-0.1060 0.1060 -0.1060h 0.2518 c 0.4374,-0.0000 0.5699,-0.1988 0.5699 -0.5832ZM 182.1241,21.1729 ZM 183.3832,20.2186 v -6.6401 c 0.0000,-0.7555 -0.1325,-0.9675 -0.3976 -0.9675l -0.4241,0.0530 c -0.0398,-0.0000 -0.0795,-0.0265 -0.0795 -0.0663l -0.0265,-0.3313 c 0.2121,-0.0000 0.7024,-0.0795 0.9278 -0.1193c 0.2386,-0.0530 0.4241,-0.1060 0.6892 -0.2253h 0.2916 v 8.2968 c 0.0000,0.3844 0.1458,0.5832 0.5699 0.5832h 0.3181 c 0.0530,-0.0000 0.1060,0.0398 0.1060 0.1060v 0.2518 l -0.0265,0.0265 c 0.0000,-0.0000 -0.9675,-0.0265 -1.4844 -0.0265c -0.4639,-0.0000 -1.4314,0.0265 -1.4314 0.0265l -0.0133,-0.0265 v -0.2518 c 0.0000,-0.0663 0.0265,-0.1060 0.0928 -0.1060h 0.3181 c 0.4374,-0.0000 0.5699,-0.1988 0.5699 -0.5832ZM 185.5701,21.1729 ZM 187.0810,17.5016 h 2.4387 c 0.1325,-0.0000 0.1856,-0.0663 0.1856 -0.1856c 0.0000,-1.2326 -0.6229,-1.5507 -1.1001 -1.5507c -0.3048,-0.0000 -1.2989,0.1193 -1.5242 1.7362ZM 187.0810,17.5016 ZM 190.5800,19.9403 l 0.2651,0.2121 c -0.5036,0.6892 -1.2856,1.1796 -2.2399 1.1796c -1.8158,-0.0000 -2.5845,-1.3519 -2.5845 -2.7965c 0.0000,-2.0146 1.3254,-3.2207 2.5845 -3.2207c 1.7495,-0.0000 2.1604,1.3651 2.1604 2.4785c 0.0000,0.1458 -0.0928,0.2253 -0.2386 0.2253h -3.4857 c -0.0133,0.0795 -0.0133,0.1590 -0.0133 0.2651c 0.0000,1.3519 0.9410,2.3989 1.8953 2.3989c 0.7290,-0.0000 1.1928,-0.2386 1.6567 -0.7422Z"/></g><g stroke-linejoin="miter" stroke-opacity="1.0" fill-opacity="0.63" stroke="rgb(0,0,0)" fill-rule="evenodd" stroke-width="0.0" fill="rgb(0,0,0)" stroke-linecap="butt" stroke-miterlimit="10.0"><path d="M 265.2368,164.9538 ZM 265.9712,164.3971 v -3.8734 c 0.0000,-0.4407 -0.0773,-0.5644 -0.2319 -0.5644l -0.2474,0.0309 c -0.0232,-0.0000 -0.0464,-0.0155 -0.0464 -0.0387l -0.0155,-0.1933 c 0.1237,-0.0000 0.4098,-0.0464 0.5412 -0.0696c 0.1392,-0.0309 0.2474,-0.0619 0.4020 -0.1314h 0.1701 v 4.8398 c 0.0000,0.2242 0.0850,0.3402 0.3324 0.3402h 0.1856 c 0.0309,-0.0000 0.0619,0.0232 0.0619 0.0619v 0.1469 l -0.0155,0.0155 c 0.0000,-0.0000 -0.5644,-0.0155 -0.8659 -0.0155c -0.2706,-0.0000 -0.8350,0.0155 -0.8350 0.0155l -0.0077,-0.0155 v -0.1469 c 0.0000,-0.0387 0.0155,-0.0619 0.0541 -0.0619h 0.1856 c 0.2551,-0.0000 0.3324,-0.1160 0.3324 -0.3402ZM 267.2469,164.9538 ZM 267.8500,160.5392 c 0.0000,-0.2010 0.1624,-0.3711 0.3634 -0.3711c 0.2087,-0.0000 0.3711,0.1701 0.3711 0.3711c 0.0000,0.2087 -0.1624,0.3711 -0.3711 0.3711c -0.2010,-0.0000 -0.3634,-0.1624 -0.3634 -0.3711ZM 267.8500,160.5392 ZM 268.5844,164.3971 c 0.0000,0.2242 0.0850,0.3402 0.3324 0.3402h 0.1469 c 0.0387,-0.0000 0.0696,0.0232 0.0696 0.0619v 0.1469 l -0.0155,0.0155 c 0.0000,-0.0000 -0.5335,-0.0155 -0.8350 -0.0155c -0.2706,-0.0000 -0.7963,0.0155 -0.7963 0.0155l -0.0155,-0.0155 v -0.1469 c 0.0000,-0.0387 0.0232,-0.0619 0.0619 -0.0619h 0.1469 c 0.2551,-0.0000 0.3324,-0.1160 0.3324 -0.3402v -1.9251 c 0.0000,-0.4098 -0.0696,-0.4716 -0.1778 -0.4716c -0.1005,-0.0000 -0.1933,0.0077 -0.3247 0.0387l -0.0387,-0.2165 c 0.4948,-0.0850 0.5799,-0.1160 0.8041 -0.2242c 0.0850,-0.0309 0.1392,-0.0619 0.1933 -0.0619h 0.1160 v 2.8606 ZM 269.2880,164.9538 ZM 272.1022,164.3971 v -1.6932 c 0.0000,-0.5412 -0.0928,-0.7963 -0.5025 -0.7963c -0.3402,-0.0000 -0.6340,0.1314 -1.0283 0.5953v 1.8942 c 0.0000,0.2242 0.0773,0.3402 0.3324 0.3402h 0.1082 c 0.0387,-0.0000 0.0619,0.0232 0.0619 0.0619v 0.1469 l -0.0155,0.0155 c 0.0000,-0.0000 -0.4871,-0.0155 -0.7886 -0.0155c -0.2783,-0.0000 -0.8041,0.0155 -0.8041 0.0155l -0.0155,-0.0155 v -0.1469 c 0.0000,-0.0387 0.0232,-0.0619 0.0619 -0.0619h 0.1469 c 0.2629,-0.0000 0.3324,-0.1160 0.3324 -0.3402v -1.9251 c 0.0000,-0.4175 -0.0619,-0.4716 -0.1701 -0.4716c -0.1005,-0.0000 -0.1933,0.0077 -0.3247 0.0387l -0.0387,-0.2165 c 0.3247,-0.0541 0.5567,-0.0928 0.7963 -0.2242c 0.0850,-0.0387 0.1469,-0.0619 0.2010 -0.0619h 0.1160 l -0.0232,0.6881 h 0.0232 c 0.4948,-0.5799 0.8659,-0.6881 1.2602 -0.6881c 0.6958,-0.0000 0.8427,0.5335 0.8427 1.2216v 1.6390 c 0.0000,0.2242 0.0850,0.3402 0.3324 0.3402h 0.1469 c 0.0387,-0.0000 0.0696,0.0232 0.0696 0.0619v 0.1469 l -0.0155,0.0155 c 0.0000,-0.0000 -0.5335,-0.0155 -0.8350 -0.0155c -0.2706,-0.0000 -0.7577,0.0155 -0.7577 0.0155l -0.0155,-0.0155 v -0.1469 c 0.0000,-0.0387 0.0232,-0.0619 0.0619 -0.0619h 0.1082 c 0.2551,-0.0000 0.3324,-0.1160 0.3324 -0.3402ZM 273.3083,164.9538 ZM 274.1897,162.8122 h 1.4226 c 0.0773,-0.0000 0.1082,-0.0387 0.1082 -0.1082c 0.0000,-0.7190 -0.3634,-0.9046 -0.6417 -0.9046c -0.1778,-0.0000 -0.7577,0.0696 -0.8891 1.0128ZM 274.1897,162.8122 ZM 276.2308,164.2348 l 0.1546,0.1237 c -0.2938,0.4020 -0.7499,0.6881 -1.3066 0.6881c -1.0592,-0.0000 -1.5076,-0.7886 -1.5076 -1.6313c 0.0000,-1.1752 0.7731,-1.8787 1.5076 -1.8787c 1.0205,-0.0000 1.2602,0.7963 1.2602 1.4458c 0.0000,0.0850 -0.0541,0.1314 -0.1392 0.1314h -2.0333 c -0.0077,0.0464 -0.0077,0.0928 -0.0077 0.1546c 0.0000,0.7886 0.5489,1.3994 1.1056 1.3994c 0.4252,-0.0000 0.6958,-0.1392 0.9664 -0.4330ZM 276.6173,164.9538 ZM 278.2873,160.7247 c -0.1933,-0.0000 -0.7577,0.1082 -0.7577 0.5799c 0.0000,0.1392 -0.0541,0.3788 -0.2629 0.3788c -0.2010,-0.0000 -0.2165,-0.2242 -0.2165 -0.2474c 0.0000,-0.2397 0.3170,-0.9510 1.3916 -0.9510c 0.7499,-0.0000 0.9742,0.4716 0.9742 0.7809c 0.0000,0.1933 -0.0619,0.5799 -0.7577 1.0205c 0.4330,0.0696 1.0051,0.3866 1.0051 1.1906c 0.0000,1.0205 -0.7731,1.5695 -1.6468 1.5695c -0.4407,-0.0000 -1.0592,-0.1933 -1.0592 -0.4871c 0.0000,-0.1160 0.1160,-0.2474 0.2706 -0.2474c 0.1469,-0.0000 0.2165,0.0773 0.2861 0.1778c 0.0850,0.1314 0.2242,0.3170 0.5953 0.3170c 0.2551,-0.0000 0.9819,-0.2551 0.9819 -1.2293c 0.0000,-0.8273 -0.5799,-0.9587 -0.9973 -0.9587c -0.0696,-0.0000 -0.1546,0.0155 -0.2397 0.0309l -0.0309,-0.2319 c 0.5953,-0.1005 1.0901,-0.6804 1.0901 -1.0360c 0.0000,-0.4407 -0.3093,-0.6572 -0.6262 -0.6572Z"/></g><g stroke-linejoin="miter" stroke-opacity="0.6" fill-opacity="0.0" stroke="rgb(44,160,44)" stroke-width="1.2041510079635571" fill="rgb(0,0,0)" stroke-linecap="butt" stroke-miterlimit="10.0"><path d="M 255.9128,164.9538 h 6.6600 "/></g><g stroke-linejoin="miter" stroke-opacity="1.0" fill-opacity="0.63" stroke="rgb(0,0,0)" fill-rule="evenodd" stroke-width="0.0" fill="rgb(0,0,0)" stroke-linecap="butt" stroke-miterlimit="10.0"><path d="M 265.2368,151.6338 ZM 265.9712,151.0771 v -3.8734 c 0.0000,-0.4407 -0.0773,-0.5644 -0.2319 -0.5644l -0.2474,0.0309 c -0.0232,-0.0000 -0.0464,-0.0155 -0.0464 -0.0387l -0.0155,-0.1933 c 0.1237,-0.0000 0.4098,-0.0464 0.5412 -0.0696c 0.1392,-0.0309 0.2474,-0.0619 0.4020 -0.1314h 0.1701 v 4.8398 c 0.0000,0.2242 0.0850,0.3402 0.3324 0.3402h 0.1856 c 0.0309,-0.0000 0.0619,0.0232 0.0619 0.0619v 0.1469 l -0.0155,0.0155 c 0.0000,-0.0000 -0.5644,-0.0155 -0.8659 -0.0155c -0.2706,-0.0000 -0.8350,0.0155 -0.8350 0.0155l -0.0077,-0.0155 v -0.1469 c 0.0000,-0.0387 0.0155,-0.0619 0.0541 -0.0619h 0.1856 c 0.2551,-0.0000 0.3324,-0.1160 0.3324 -0.3402ZM 267.2469,151.6338 ZM 267.8500,147.2192 c 0.0000,-0.2010 0.1624,-0.3711 0.3634 -0.3711c 0.2087,-0.0000 0.3711,0.1701 0.3711 0.3711c 0.0000,0.2087 -0.1624,0.3711 -0.3711 0.3711c -0.2010,-0.0000 -0.3634,-0.1624 -0.3634 -0.3711ZM 267.8500,147.2192 ZM 268.5844,151.0771 c 0.0000,0.2242 0.0850,0.3402 0.3324 0.3402h 0.1469 c 0.0387,-0.0000 0.0696,0.0232 0.0696 0.0619v 0.1469 l -0.0155,0.0155 c 0.0000,-0.0000 -0.5335,-0.0155 -0.8350 -0.0155c -0.2706,-0.0000 -0.7963,0.0155 -0.7963 0.0155l -0.0155,-0.0155 v -0.1469 c 0.0000,-0.0387 0.0232,-0.0619 0.0619 -0.0619h 0.1469 c 0.2551,-0.0000 0.3324,-0.1160 0.3324 -0.3402v -1.9251 c 0.0000,-0.4098 -0.0696,-0.4716 -0.1778 -0.4716c -0.1005,-0.0000 -0.1933,0.0077 -0.3247 0.0387l -0.0387,-0.2165 c 0.4948,-0.0850 0.5799,-0.1160 0.8041 -0.2242c 0.0850,-0.0309 0.1392,-0.0619 0.1933 -0.0619h 0.1160 v 2.8606 ZM 269.2880,151.6338 ZM 272.1022,151.0771 v -1.6932 c 0.0000,-0.5412 -0.0928,-0.7963 -0.5025 -0.7963c -0.3402,-0.0000 -0.6340,0.1314 -1.0283 0.5953v 1.8942 c 0.0000,0.2242 0.0773,0.3402 0.3324 0.3402h 0.1082 c 0.0387,-0.0000 0.0619,0.0232 0.0619 0.0619v 0.1469 l -0.0155,0.0155 c 0.0000,-0.0000 -0.4871,-0.0155 -0.7886 -0.0155c -0.2783,-0.0000 -0.8041,0.0155 -0.8041 0.0155l -0.0155,-0.0155 v -0.1469 c 0.0000,-0.0387 0.0232,-0.0619 0.0619 -0.0619h 0.1469 c 0.2629,-0.0000 0.3324,-0.1160 0.3324 -0.3402v -1.9251 c 0.0000,-0.4175 -0.0619,-0.4716 -0.1701 -0.4716c -0.1005,-0.0000 -0.1933,0.0077 -0.3247 0.0387l -0.0387,-0.2165 c 0.3247,-0.0541 0.5567,-0.0928 0.7963 -0.2242c 0.0850,-0.0387 0.1469,-0.0619 0.2010 -0.0619h 0.1160 l -0.0232,0.6881 h 0.0232 c 0.4948,-0.5799 0.8659,-0.6881 1.2602 -0.6881c 0.6958,-0.0000 0.8427,0.5335 0.8427 1.2216v 1.6390 c 0.0000,0.2242 0.0850,0.3402 0.3324 0.3402h 0.1469 c 0.0387,-0.0000 0.0696,0.0232 0.0696 0.0619v 0.1469 l -0.0155,0.0155 c 0.0000,-0.0000 -0.5335,-0.0155 -0.8350 -0.0155c -0.2706,-0.0000 -0.7577,0.0155 -0.7577 0.0155l -0.0155,-0.0155 v -0.1469 c 0.0000,-0.0387 0.0232,-0.0619 0.0619 -0.0619h 0.1082 c 0.2551,-0.0000 0.3324,-0.1160 0.3324 -0.3402ZM 273.3083,151.6338 ZM 274.1897,149.4922 h 1.4226 c 0.0773,-0.0000 0.1082,-0.0387 0.1082 -0.1082c 0.0000,-0.7190 -0.3634,-0.9046 -0.6417 -0.9046c -0.1778,-0.0000 -0.7577,0.0696 -0.8891 1.0128ZM 274.1897,149.4922 ZM 276.2308,150.9148 l 0.1546,0.1237 c -0.2938,0.4020 -0.7499,0.6881 -1.3066 0.6881c -1.0592,-0.0000 -1.5076,-0.7886 -1.5076 -1.6313c 0.0000,-1.1752 0.7731,-1.8787 1.5076 -1.8787c 1.0205,-0.0000 1.2602,0.7963 1.2602 1.4458c 0.0000,0.0850 -0.0541,0.1314 -0.1392 0.1314h -2.0333 c -0.0077,0.0464 -0.0077,0.0928 -0.0077 0.1546c 0.0000,0.7886 0.5489,1.3994 1.1056 1.3994c 0.4252,-0.0000 0.6958,-0.1392 0.9664 -0.4330ZM 276.6173,151.6338 ZM 277.0657,148.2088 c 0.0000,-0.4407 0.4252,-1.0437 1.2370 -1.0437c 0.5953,-0.0000 1.2911,0.2242 1.2911 1.1133c 0.0000,0.5876 -0.3015,0.8814 -0.7190 1.2834l -0.7345,0.7113 c -0.0387,0.0387 -0.5567,0.5489 -0.5567 0.9123h 1.3143 c 0.2629,-0.0000 0.4020,-0.1314 0.5103 -0.5567l 0.1933,0.0309 l -0.1546,0.9742 h -2.3890 c 0.0000,-0.4330 0.0696,-0.7654 0.7886 -1.4999l 0.5412,-0.5335 c 0.4330,-0.4407 0.6108,-0.8195 0.6108 -1.2911c 0.0000,-0.7036 -0.4793,-0.9046 -0.7422 -0.9046c -0.5335,-0.0000 -0.6804,0.2783 -0.6804 0.4639c 0.0000,0.0619 0.0155,0.1237 0.0309 0.1778c 0.0155,0.0541 0.0309,0.1082 0.0309 0.1701c 0.0000,0.2010 -0.1546,0.2783 -0.2783 0.2783c -0.1701,-0.0000 -0.2938,-0.1314 -0.2938 -0.2861Z"/></g><g stroke-linejoin="miter" stroke-opacity="0.6" fill-opacity="0.0" stroke="rgb(255,127,14)" stroke-width="4.8166040318542285" fill="rgb(0,0,0)" stroke-linecap="butt" stroke-miterlimit="10.0"><path d="M 255.9128,151.6338 h 6.6600 "/></g><g stroke-linejoin="miter" stroke-opacity="1.0" fill-opacity="0.63" stroke="rgb(0,0,0)" fill-rule="evenodd" stroke-width="0.0" fill="rgb(0,0,0)" stroke-linecap="butt" stroke-miterlimit="10.0"><path d="M 265.2368,138.3138 ZM 265.9712,137.7571 v -3.8734 c 0.0000,-0.4407 -0.0773,-0.5644 -0.2319 -0.5644l -0.2474,0.0309 c -0.0232,-0.0000 -0.0464,-0.0155 -0.0464 -0.0387l -0.0155,-0.1933 c 0.1237,-0.0000 0.4098,-0.0464 0.5412 -0.0696c 0.1392,-0.0309 0.2474,-0.0619 0.4020 -0.1314h 0.1701 v 4.8398 c 0.0000,0.2242 0.0850,0.3402 0.3324 0.3402h 0.1856 c 0.0309,-0.0000 0.0619,0.0232 0.0619 0.0619v 0.1469 l -0.0155,0.0155 c 0.0000,-0.0000 -0.5644,-0.0155 -0.8659 -0.0155c -0.2706,-0.0000 -0.8350,0.0155 -0.8350 0.0155l -0.0077,-0.0155 v -0.1469 c 0.0000,-0.0387 0.0155,-0.0619 0.0541 -0.0619h 0.1856 c 0.2551,-0.0000 0.3324,-0.1160 0.3324 -0.3402ZM 267.2469,138.3138 ZM 267.8500,133.8992 c 0.0000,-0.2010 0.1624,-0.3711 0.3634 -0.3711c 0.2087,-0.0000 0.3711,0.1701 0.3711 0.3711c 0.0000,0.2087 -0.1624,0.3711 -0.3711 0.3711c -0.2010,-0.0000 -0.3634,-0.1624 -0.3634 -0.3711ZM 267.8500,133.8992 ZM 268.5844,137.7571 c 0.0000,0.2242 0.0850,0.3402 0.3324 0.3402h 0.1469 c 0.0387,-0.0000 0.0696,0.0232 0.0696 0.0619v 0.1469 l -0.0155,0.0155 c 0.0000,-0.0000 -0.5335,-0.0155 -0.8350 -0.0155c -0.2706,-0.0000 -0.7963,0.0155 -0.7963 0.0155l -0.0155,-0.0155 v -0.1469 c 0.0000,-0.0387 0.0232,-0.0619 0.0619 -0.0619h 0.1469 c 0.2551,-0.0000 0.3324,-0.1160 0.3324 -0.3402v -1.9251 c 0.0000,-0.4098 -0.0696,-0.4716 -0.1778 -0.4716c -0.1005,-0.0000 -0.1933,0.0077 -0.3247 0.0387l -0.0387,-0.2165 c 0.4948,-0.0850 0.5799,-0.1160 0.8041 -0.2242c 0.0850,-0.0309 0.1392,-0.0619 0.1933 -0.0619h 0.1160 v 2.8606 ZM 269.2880,138.3138 ZM 272.1022,137.7571 v -1.6932 c 0.0000,-0.5412 -0.0928,-0.7963 -0.5025 -0.7963c -0.3402,-0.0000 -0.6340,0.1314 -1.0283 0.5953v 1.8942 c 0.0000,0.2242 0.0773,0.3402 0.3324 0.3402h 0.1082 c 0.0387,-0.0000 0.0619,0.0232 0.0619 0.0619v 0.1469 l -0.0155,0.0155 c 0.0000,-0.0000 -0.4871,-0.0155 -0.7886 -0.0155c -0.2783,-0.0000 -0.8041,0.0155 -0.8041 0.0155l -0.0155,-0.0155 v -0.1469 c 0.0000,-0.0387 0.0232,-0.0619 0.0619 -0.0619h 0.1469 c 0.2629,-0.0000 0.3324,-0.1160 0.3324 -0.3402v -1.9251 c 0.0000,-0.4175 -0.0619,-0.4716 -0.1701 -0.4716c -0.1005,-0.0000 -0.1933,0.0077 -0.3247 0.0387l -0.0387,-0.2165 c 0.3247,-0.0541 0.5567,-0.0928 0.7963 -0.2242c 0.0850,-0.0387 0.1469,-0.0619 0.2010 -0.0619h 0.1160 l -0.0232,0.6881 h 0.0232 c 0.4948,-0.5799 0.8659,-0.6881 1.2602 -0.6881c 0.6958,-0.0000 0.8427,0.5335 0.8427 1.2216v 1.6390 c 0.0000,0.2242 0.0850,0.3402 0.3324 0.3402h 0.1469 c 0.0387,-0.0000 0.0696,0.0232 0.0696 0.0619v 0.1469 l -0.0155,0.0155 c 0.0000,-0.0000 -0.5335,-0.0155 -0.8350 -0.0155c -0.2706,-0.0000 -0.7577,0.0155 -0.7577 0.0155l -0.0155,-0.0155 v -0.1469 c 0.0000,-0.0387 0.0232,-0.0619 0.0619 -0.0619h 0.1082 c 0.2551,-0.0000 0.3324,-0.1160 0.3324 -0.3402ZM 273.3083,138.3138 ZM 274.1897,136.1722 h 1.4226 c 0.0773,-0.0000 0.1082,-0.0387 0.1082 -0.1082c 0.0000,-0.7190 -0.3634,-0.9046 -0.6417 -0.9046c -0.1778,-0.0000 -0.7577,0.0696 -0.8891 1.0128ZM 274.1897,136.1722 ZM 276.2308,137.5947 l 0.1546,0.1237 c -0.2938,0.4020 -0.7499,0.6881 -1.3066 0.6881c -1.0592,-0.0000 -1.5076,-0.7886 -1.5076 -1.6313c 0.0000,-1.1752 0.7731,-1.8787 1.5076 -1.8787c 1.0205,-0.0000 1.2602,0.7963 1.2602 1.4458c 0.0000,0.0850 -0.0541,0.1314 -0.1392 0.1314h -2.0333 c -0.0077,0.0464 -0.0077,0.0928 -0.0077 0.1546c 0.0000,0.7886 0.5489,1.3994 1.1056 1.3994c 0.4252,-0.0000 0.6958,-0.1392 0.9664 -0.4330ZM 276.6173,138.3138 ZM 278.0708,134.6259 c -0.1469,-0.0000 -0.4871,0.1392 -0.6572 0.2165l -0.0928,-0.2397 c 0.6804,-0.3170 0.9432,-0.4793 1.3298 -0.7577h 0.1469 v 3.8889 c 0.0000,0.2783 0.0387,0.3556 0.2938 0.3556h 0.4020 c 0.0232,-0.0000 0.0619,0.0155 0.0619 0.0619v 0.1701 l -1.0592,-0.0155 l -1.0747,0.0155 v -0.1701 c 0.0077,-0.0232 0.0155,-0.0619 0.0619 -0.0619h 0.4639 c 0.2938,-0.0000 0.2938,-0.1314 0.2938 -0.3556v -2.6596 c 0.0000,-0.2629 0.0000,-0.4484 -0.1701 -0.4484Z"/></g><g stroke-linejoin="miter" stroke-opacity="0.6" fill-opacity="0.0" stroke="rgb(31,119,180)" stroke-width="2.4083020159271142" fill="rgb(0,0,0)" stroke-linecap="butt" stroke-miterlimit="10.0"><path d="M 255.9128,138.3138 h 6.6600 "/></g><g stroke-linejoin="miter" stroke-opacity="0.2" fill-opacity="0.0" stroke="rgb(0,0,0)" stroke-width="0.4816604031854228" fill="rgb(0,0,0)" stroke-linecap="butt" stroke-miterlimit="10.0"><path d="M 281.2082,169.1642 l -0.0000,-39.5604 h -26.5000 l -0.0000,39.5604 Z"/></g><g stroke-linejoin="miter" stroke-opacity="0.0" fill-opacity="0.1" stroke="rgb(0,0,0)" stroke-width="0.0" fill="rgb(0,0,0)" stroke-linecap="butt" stroke-miterlimit="10.0"><path d="M 33.2448,171.7354 l -0.0000,-133.2001 h -2.6640 l -0.0000,133.2001 Z"/></g><g stroke-linejoin="miter" stroke-opacity="1.0" fill-opacity="0.6" stroke="rgb(0,0,0)" fill-rule="evenodd" stroke-width="0.0" fill="rgb(0,0,0)" stroke-linecap="butt" stroke-miterlimit="10.0"><path d="M 17.5755,38.5353 ZM 20.3058,37.0420 c 0.0000,-0.9101 -0.4948,-1.3607 -1.0426 -1.3607c -0.4064,-0.0000 -0.7157,0.0619 -1.0603 0.2032l 0.2827,-2.4122 c 0.2916,0.0265 0.5920,0.0353 0.9013 0.0353c 0.4418,-0.0000 0.9013,-0.0265 1.3784 -0.0795l 0.0530,0.0265 l -0.1325,0.5743 c -0.3446,0.0353 -0.6273,0.0442 -0.8747 0.0442c -0.3976,-0.0000 -0.6980,-0.0353 -1.0073 -0.0707l -0.1679,1.3961 c 0.1856,-0.0707 0.5036,-0.1325 0.8482 -0.1325c 0.9366,-0.0000 1.4579,0.8129 1.4579 1.6258c 0.0000,0.9896 -0.6892,1.7495 -1.6876 1.7495c -0.5036,-0.0000 -1.2370,-0.2827 -1.2370 -0.6273c 0.0000,-0.1679 0.1414,-0.2827 0.3004 -0.2827c 0.1767,-0.0000 0.2916,0.1325 0.3976 0.2739c 0.1325,0.1590 0.2739,0.3358 0.5567 0.3358c 0.5655,-0.0000 1.0338,-0.5301 1.0338 -1.2989ZM 21.4456,38.5353 ZM 21.9493,38.1730 c 0.0000,-0.2562 0.2121,-0.4683 0.4683 -0.4683c 0.2562,-0.0000 0.4683,0.2121 0.4683 0.4683c 0.0000,0.2562 -0.2121,0.4683 -0.4683 0.4683c -0.2562,-0.0000 -0.4683,-0.2121 -0.4683 -0.4683ZM 23.3807,38.5353 ZM 25.3157,33.7374 c -0.3799,-0.0000 -0.9366,0.3711 -0.9366 2.4299c 0.0000,0.7245 0.1325,2.1824 0.9101 2.1824c 0.1502,-0.0000 0.5743,-0.0972 0.7599 -0.7864c 0.1149,-0.4241 0.1767,-0.9543 0.1767 -1.7230c 0.0000,-1.1222 -0.2827,-1.7495 -0.5390 -1.9704c -0.0972,-0.0884 -0.2297,-0.1325 -0.3711 -0.1325ZM 25.3157,33.7374 ZM 25.2804,38.6413 c -0.9454,-0.0000 -1.5816,-1.2105 -1.5816 -2.5624c 0.0000,-1.6523 0.7864,-2.6507 1.6170 -2.6507c 0.3799,-0.0000 0.7599,0.2386 1.0161 0.5832c 0.3711,0.4948 0.5655,1.1575 0.5655 1.9881c 0.0000,1.9616 -0.9719,2.6419 -1.6170 2.6419Z"/></g><g stroke-linejoin="miter" stroke-opacity="0.6" fill-opacity="0.0" stroke="rgb(0,0,0)" stroke-width="1.2041510079635571" fill="rgb(0,0,0)" stroke-linecap="butt" stroke-miterlimit="10.0"><path d="M 29.2488,38.5353 h 3.9960 "/></g><g stroke-linejoin="miter" stroke-opacity="1.0" fill-opacity="0.6" stroke="rgb(0,0,0)" fill-rule="evenodd" stroke-width="0.0" fill="rgb(0,0,0)" stroke-linecap="butt" stroke-miterlimit="10.0"><path d="M 17.5755,51.8553 ZM 19.8552,48.7186 c 0.0000,-0.0619 0.0088,-0.1325 0.0884 -0.1767c 0.0972,-0.0707 0.2562,-0.1502 0.3888 -0.1502c 0.1149,-0.0000 0.1237,0.0972 0.1237 0.2739v 1.4226 h 0.7157 l -0.0530,0.4153 h -0.6627 v 0.7334 c 0.0000,0.2474 0.0353,0.3711 0.2916 0.3711h 0.2386 c 0.0530,-0.0000 0.0619,0.0442 0.0619 0.0619v 0.1944 c 0.0000,-0.0000 -0.5655,-0.0177 -0.9366 -0.0177c -0.3358,-0.0000 -0.8571,0.0177 -0.8571 0.0177v -0.1944 c 0.0000,-0.0177 0.0088,-0.0619 0.0619 -0.0619h 0.2386 c 0.2739,-0.0000 0.3004,-0.1149 0.3004 -0.3711v -0.7334 h -1.7318 c -0.0353,-0.0000 -0.0530,-0.0177 -0.0795 -0.0530l -0.0707,-0.0972 l -0.1060,-0.1856 c -0.0088,-0.0000 -0.0088,-0.0088 -0.0088 -0.0177c 0.0000,-0.0088 0.0088,-0.0177 0.0177 -0.0265c 0.5743,-0.6362 1.5904,-2.6066 1.9085 -3.3311c 0.0088,-0.0353 0.0265,-0.0442 0.0619 -0.0442c 0.0088,-0.0000 0.2032,0.0795 0.3093 0.0972c -0.3976,1.0691 -1.0515,2.2178 -1.6965 3.2427h 1.3961 v -1.3696 ZM 21.4456,51.8553 ZM 21.9493,51.4930 c 0.0000,-0.2562 0.2121,-0.4683 0.4683 -0.4683c 0.2562,-0.0000 0.4683,0.2121 0.4683 0.4683c 0.0000,0.2562 -0.2121,0.4683 -0.4683 0.4683c -0.2562,-0.0000 -0.4683,-0.2121 -0.4683 -0.4683ZM 23.3807,51.8553 ZM 26.1109,50.3620 c 0.0000,-0.9101 -0.4948,-1.3607 -1.0426 -1.3607c -0.4064,-0.0000 -0.7157,0.0619 -1.0603 0.2032l 0.2827,-2.4122 c 0.2916,0.0265 0.5920,0.0353 0.9013 0.0353c 0.4418,-0.0000 0.9013,-0.0265 1.3784 -0.0795l 0.0530,0.0265 l -0.1325,0.5743 c -0.3446,0.0353 -0.6273,0.0442 -0.8747 0.0442c -0.3976,-0.0000 -0.6980,-0.0353 -1.0073 -0.0707l -0.1679,1.3961 c 0.1856,-0.0707 0.5036,-0.1325 0.8482 -0.1325c 0.9366,-0.0000 1.4579,0.8129 1.4579 1.6258c 0.0000,0.9896 -0.6892,1.7495 -1.6876 1.7495c -0.5036,-0.0000 -1.2370,-0.2827 -1.2370 -0.6273c 0.0000,-0.1679 0.1414,-0.2827 0.3004 -0.2827c 0.1767,-0.0000 0.2916,0.1325 0.3976 0.2739c 0.1325,0.1590 0.2739,0.3358 0.5567 0.3358c 0.5655,-0.0000 1.0338,-0.5301 1.0338 -1.2989Z"/></g><g stroke-linejoin="miter" stroke-opacity="0.6" fill-opacity="0.0" stroke="rgb(0,0,0)" stroke-width="1.2041510079635571" fill="rgb(0,0,0)" stroke-linecap="butt" stroke-miterlimit="10.0"><path d="M 29.2488,51.8553 h 3.9960 "/></g><g stroke-linejoin="miter" stroke-opacity="1.0" fill-opacity="0.6" stroke="rgb(0,0,0)" fill-rule="evenodd" stroke-width="0.0" fill="rgb(0,0,0)" stroke-linecap="butt" stroke-miterlimit="10.0"><path d="M 17.5755,65.1753 ZM 19.8552,62.0386 c 0.0000,-0.0619 0.0088,-0.1325 0.0884 -0.1767c 0.0972,-0.0707 0.2562,-0.1502 0.3888 -0.1502c 0.1149,-0.0000 0.1237,0.0972 0.1237 0.2739v 1.4226 h 0.7157 l -0.0530,0.4153 h -0.6627 v 0.7334 c 0.0000,0.2474 0.0353,0.3711 0.2916 0.3711h 0.2386 c 0.0530,-0.0000 0.0619,0.0442 0.0619 0.0619v 0.1944 c 0.0000,-0.0000 -0.5655,-0.0177 -0.9366 -0.0177c -0.3358,-0.0000 -0.8571,0.0177 -0.8571 0.0177v -0.1944 c 0.0000,-0.0177 0.0088,-0.0619 0.0619 -0.0619h 0.2386 c 0.2739,-0.0000 0.3004,-0.1149 0.3004 -0.3711v -0.7334 h -1.7318 c -0.0353,-0.0000 -0.0530,-0.0177 -0.0795 -0.0530l -0.0707,-0.0972 l -0.1060,-0.1856 c -0.0088,-0.0000 -0.0088,-0.0088 -0.0088 -0.0177c 0.0000,-0.0088 0.0088,-0.0177 0.0177 -0.0265c 0.5743,-0.6362 1.5904,-2.6066 1.9085 -3.3311c 0.0088,-0.0353 0.0265,-0.0442 0.0619 -0.0442c 0.0088,-0.0000 0.2032,0.0795 0.3093 0.0972c -0.3976,1.0691 -1.0515,2.2178 -1.6965 3.2427h 1.3961 v -1.3696 ZM 21.4456,65.1753 ZM 21.9493,64.8130 c 0.0000,-0.2562 0.2121,-0.4683 0.4683 -0.4683c 0.2562,-0.0000 0.4683,0.2121 0.4683 0.4683c 0.0000,0.2562 -0.2121,0.4683 -0.4683 0.4683c -0.2562,-0.0000 -0.4683,-0.2121 -0.4683 -0.4683ZM 23.3807,65.1753 ZM 25.3157,60.3774 c -0.3799,-0.0000 -0.9366,0.3711 -0.9366 2.4299c 0.0000,0.7245 0.1325,2.1824 0.9101 2.1824c 0.1502,-0.0000 0.5743,-0.0972 0.7599 -0.7864c 0.1149,-0.4241 0.1767,-0.9543 0.1767 -1.7230c 0.0000,-1.1222 -0.2827,-1.7495 -0.5390 -1.9704c -0.0972,-0.0884 -0.2297,-0.1325 -0.3711 -0.1325ZM 25.3157,60.3774 ZM 25.2804,65.2813 c -0.9454,-0.0000 -1.5816,-1.2105 -1.5816 -2.5624c 0.0000,-1.6523 0.7864,-2.6507 1.6170 -2.6507c 0.3799,-0.0000 0.7599,0.2386 1.0161 0.5832c 0.3711,0.4948 0.5655,1.1575 0.5655 1.9881c 0.0000,1.9616 -0.9719,2.6419 -1.6170 2.6419Z"/></g><g stroke-linejoin="miter" stroke-opacity="0.6" fill-opacity="0.0" stroke="rgb(0,0,0)" stroke-width="1.2041510079635571" fill="rgb(0,0,0)" stroke-linecap="butt" stroke-miterlimit="10.0"><path d="M 29.2488,65.1753 h 3.9960 "/></g><g stroke-linejoin="miter" stroke-opacity="1.0" fill-opacity="0.6" stroke="rgb(0,0,0)" fill-rule="evenodd" stroke-width="0.0" fill="rgb(0,0,0)" stroke-linecap="butt" stroke-miterlimit="10.0"><path d="M 17.5755,78.4953 ZM 19.4841,73.6621 c -0.2209,-0.0000 -0.8659,0.1237 -0.8659 0.6627c 0.0000,0.1590 -0.0619,0.4330 -0.3004 0.4330c -0.2297,-0.0000 -0.2474,-0.2562 -0.2474 -0.2827c 0.0000,-0.2739 0.3623,-1.0868 1.5904 -1.0868c 0.8571,-0.0000 1.1133,0.5390 1.1133 0.8924c 0.0000,0.2209 -0.0707,0.6627 -0.8659 1.1663c 0.4948,0.0795 1.1487,0.4418 1.1487 1.3607c 0.0000,1.1663 -0.8836,1.7937 -1.8820 1.7937c -0.5036,-0.0000 -1.2105,-0.2209 -1.2105 -0.5567c 0.0000,-0.1325 0.1325,-0.2827 0.3093 -0.2827c 0.1679,-0.0000 0.2474,0.0884 0.3269 0.2032c 0.0972,0.1502 0.2562,0.3623 0.6804 0.3623c 0.2916,-0.0000 1.1222,-0.2916 1.1222 -1.4049c 0.0000,-0.9454 -0.6627,-1.0956 -1.1398 -1.0956c -0.0795,-0.0000 -0.1767,0.0177 -0.2739 0.0353l -0.0353,-0.2651 c 0.6804,-0.1149 1.2459,-0.7776 1.2459 -1.1840c 0.0000,-0.5036 -0.3534,-0.7510 -0.7157 -0.7510ZM 21.4456,78.4953 ZM 21.9493,78.1330 c 0.0000,-0.2562 0.2121,-0.4683 0.4683 -0.4683c 0.2562,-0.0000 0.4683,0.2121 0.4683 0.4683c 0.0000,0.2562 -0.2121,0.4683 -0.4683 0.4683c -0.2562,-0.0000 -0.4683,-0.2121 -0.4683 -0.4683ZM 23.3807,78.4953 ZM 26.1109,77.0020 c 0.0000,-0.9101 -0.4948,-1.3607 -1.0426 -1.3607c -0.4064,-0.0000 -0.7157,0.0619 -1.0603 0.2032l 0.2827,-2.4122 c 0.2916,0.0265 0.5920,0.0353 0.9013 0.0353c 0.4418,-0.0000 0.9013,-0.0265 1.3784 -0.0795l 0.0530,0.0265 l -0.1325,0.5743 c -0.3446,0.0353 -0.6273,0.0442 -0.8747 0.0442c -0.3976,-0.0000 -0.6980,-0.0353 -1.0073 -0.0707l -0.1679,1.3961 c 0.1856,-0.0707 0.5036,-0.1325 0.8482 -0.1325c 0.9366,-0.0000 1.4579,0.8129 1.4579 1.6258c 0.0000,0.9896 -0.6892,1.7495 -1.6876 1.7495c -0.5036,-0.0000 -1.2370,-0.2827 -1.2370 -0.6273c 0.0000,-0.1679 0.1414,-0.2827 0.3004 -0.2827c 0.1767,-0.0000 0.2916,0.1325 0.3976 0.2739c 0.1325,0.1590 0.2739,0.3358 0.5567 0.3358c 0.5655,-0.0000 1.0338,-0.5301 1.0338 -1.2989Z"/></g><g stroke-linejoin="miter" stroke-opacity="0.6" fill-opacity="0.0" stroke="rgb(0,0,0)" stroke-width="1.2041510079635571" fill="rgb(0,0,0)" stroke-linecap="butt" stroke-miterlimit="10.0"><path d="M 29.2488,78.4953 h 3.9960 "/></g><g stroke-linejoin="miter" stroke-opacity="1.0" fill-opacity="0.6" stroke="rgb(0,0,0)" fill-rule="evenodd" stroke-width="0.0" fill="rgb(0,0,0)" stroke-linecap="butt" stroke-miterlimit="10.0"><path d="M 17.5755,91.8153 ZM 19.4841,86.9821 c -0.2209,-0.0000 -0.8659,0.1237 -0.8659 0.6627c 0.0000,0.1590 -0.0619,0.4330 -0.3004 0.4330c -0.2297,-0.0000 -0.2474,-0.2562 -0.2474 -0.2827c 0.0000,-0.2739 0.3623,-1.0868 1.5904 -1.0868c 0.8571,-0.0000 1.1133,0.5390 1.1133 0.8924c 0.0000,0.2209 -0.0707,0.6627 -0.8659 1.1663c 0.4948,0.0795 1.1487,0.4418 1.1487 1.3607c 0.0000,1.1663 -0.8836,1.7937 -1.8820 1.7937c -0.5036,-0.0000 -1.2105,-0.2209 -1.2105 -0.5567c 0.0000,-0.1325 0.1325,-0.2827 0.3093 -0.2827c 0.1679,-0.0000 0.2474,0.0884 0.3269 0.2032c 0.0972,0.1502 0.2562,0.3623 0.6804 0.3623c 0.2916,-0.0000 1.1222,-0.2916 1.1222 -1.4049c 0.0000,-0.9454 -0.6627,-1.0956 -1.1398 -1.0956c -0.0795,-0.0000 -0.1767,0.0177 -0.2739 0.0353l -0.0353,-0.2651 c 0.6804,-0.1149 1.2459,-0.7776 1.2459 -1.1840c 0.0000,-0.5036 -0.3534,-0.7510 -0.7157 -0.7510ZM 21.4456,91.8153 ZM 21.9493,91.4530 c 0.0000,-0.2562 0.2121,-0.4683 0.4683 -0.4683c 0.2562,-0.0000 0.4683,0.2121 0.4683 0.4683c 0.0000,0.2562 -0.2121,0.4683 -0.4683 0.4683c -0.2562,-0.0000 -0.4683,-0.2121 -0.4683 -0.4683ZM 23.3807,91.8153 ZM 25.3157,87.0175 c -0.3799,-0.0000 -0.9366,0.3711 -0.9366 2.4299c 0.0000,0.7245 0.1325,2.1824 0.9101 2.1824c 0.1502,-0.0000 0.5743,-0.0972 0.7599 -0.7864c 0.1149,-0.4241 0.1767,-0.9543 0.1767 -1.7230c 0.0000,-1.1222 -0.2827,-1.7495 -0.5390 -1.9704c -0.0972,-0.0884 -0.2297,-0.1325 -0.3711 -0.1325ZM 25.3157,87.0175 ZM 25.2804,91.9213 c -0.9454,-0.0000 -1.5816,-1.2105 -1.5816 -2.5624c 0.0000,-1.6523 0.7864,-2.6507 1.6170 -2.6507c 0.3799,-0.0000 0.7599,0.2386 1.0161 0.5832c 0.3711,0.4948 0.5655,1.1575 0.5655 1.9881c 0.0000,1.9616 -0.9719,2.6419 -1.6170 2.6419Z"/></g><g stroke-linejoin="miter" stroke-opacity="0.6" fill-opacity="0.0" stroke="rgb(0,0,0)" stroke-width="1.2041510079635571" fill="rgb(0,0,0)" stroke-linecap="butt" stroke-miterlimit="10.0"><path d="M 29.2488,91.8153 h 3.9960 "/></g><g stroke-linejoin="miter" stroke-opacity="1.0" fill-opacity="0.6" stroke="rgb(0,0,0)" fill-rule="evenodd" stroke-width="0.0" fill="rgb(0,0,0)" stroke-linecap="butt" stroke-miterlimit="10.0"><path d="M 17.5755,105.1353 ZM 18.0880,101.2211 c 0.0000,-0.5036 0.4860,-1.1928 1.4137 -1.1928c 0.6804,-0.0000 1.4756,0.2562 1.4756 1.2724c 0.0000,0.6715 -0.3446,1.0073 -0.8217 1.4667l -0.8394,0.8129 c -0.0442,0.0442 -0.6362,0.6273 -0.6362 1.0426h 1.5021 c 0.3004,-0.0000 0.4595,-0.1502 0.5832 -0.6362l 0.2209,0.0353 l -0.1767,1.1133 h -2.7303 c 0.0000,-0.4948 0.0795,-0.8747 0.9013 -1.7142l 0.6185,-0.6097 c 0.4948,-0.5036 0.6980,-0.9366 0.6980 -1.4756c 0.0000,-0.8041 -0.5478,-1.0338 -0.8482 -1.0338c -0.6097,-0.0000 -0.7776,0.3181 -0.7776 0.5301c 0.0000,0.0707 0.0177,0.1414 0.0353 0.2032c 0.0177,0.0619 0.0353,0.1237 0.0353 0.1944c 0.0000,0.2297 -0.1767,0.3181 -0.3181 0.3181c -0.1944,-0.0000 -0.3358,-0.1502 -0.3358 -0.3269ZM 21.4456,105.1353 ZM 21.9493,104.7731 c 0.0000,-0.2562 0.2121,-0.4683 0.4683 -0.4683c 0.2562,-0.0000 0.4683,0.2121 0.4683 0.4683c 0.0000,0.2562 -0.2121,0.4683 -0.4683 0.4683c -0.2562,-0.0000 -0.4683,-0.2121 -0.4683 -0.4683ZM 23.3807,105.1353 ZM 26.1109,103.6421 c 0.0000,-0.9101 -0.4948,-1.3607 -1.0426 -1.3607c -0.4064,-0.0000 -0.7157,0.0619 -1.0603 0.2032l 0.2827,-2.4122 c 0.2916,0.0265 0.5920,0.0353 0.9013 0.0353c 0.4418,-0.0000 0.9013,-0.0265 1.3784 -0.0795l 0.0530,0.0265 l -0.1325,0.5743 c -0.3446,0.0353 -0.6273,0.0442 -0.8747 0.0442c -0.3976,-0.0000 -0.6980,-0.0353 -1.0073 -0.0707l -0.1679,1.3961 c 0.1856,-0.0707 0.5036,-0.1325 0.8482 -0.1325c 0.9366,-0.0000 1.4579,0.8129 1.4579 1.6258c 0.0000,0.9896 -0.6892,1.7495 -1.6876 1.7495c -0.5036,-0.0000 -1.2370,-0.2827 -1.2370 -0.6273c 0.0000,-0.1679 0.1414,-0.2827 0.3004 -0.2827c 0.1767,-0.0000 0.2916,0.1325 0.3976 0.2739c 0.1325,0.1590 0.2739,0.3358 0.5567 0.3358c 0.5655,-0.0000 1.0338,-0.5301 1.0338 -1.2989Z"/></g><g stroke-linejoin="miter" stroke-opacity="0.6" fill-opacity="0.0" stroke="rgb(0,0,0)" stroke-width="1.2041510079635571" fill="rgb(0,0,0)" stroke-linecap="butt" stroke-miterlimit="10.0"><path d="M 29.2488,105.1353 h 3.9960 "/></g><g stroke-linejoin="miter" stroke-opacity="1.0" fill-opacity="0.6" stroke="rgb(0,0,0)" fill-rule="evenodd" stroke-width="0.0" fill="rgb(0,0,0)" stroke-linecap="butt" stroke-miterlimit="10.0"><path d="M 17.5755,118.4553 ZM 18.0880,114.5411 c 0.0000,-0.5036 0.4860,-1.1928 1.4137 -1.1928c 0.6804,-0.0000 1.4756,0.2562 1.4756 1.2724c 0.0000,0.6715 -0.3446,1.0073 -0.8217 1.4667l -0.8394,0.8129 c -0.0442,0.0442 -0.6362,0.6273 -0.6362 1.0426h 1.5021 c 0.3004,-0.0000 0.4595,-0.1502 0.5832 -0.6362l 0.2209,0.0353 l -0.1767,1.1133 h -2.7303 c 0.0000,-0.4948 0.0795,-0.8747 0.9013 -1.7142l 0.6185,-0.6097 c 0.4948,-0.5036 0.6980,-0.9366 0.6980 -1.4756c 0.0000,-0.8041 -0.5478,-1.0338 -0.8482 -1.0338c -0.6097,-0.0000 -0.7776,0.3181 -0.7776 0.5301c 0.0000,0.0707 0.0177,0.1414 0.0353 0.2032c 0.0177,0.0619 0.0353,0.1237 0.0353 0.1944c 0.0000,0.2297 -0.1767,0.3181 -0.3181 0.3181c -0.1944,-0.0000 -0.3358,-0.1502 -0.3358 -0.3269ZM 21.4456,118.4553 ZM 21.9493,118.0931 c 0.0000,-0.2562 0.2121,-0.4683 0.4683 -0.4683c 0.2562,-0.0000 0.4683,0.2121 0.4683 0.4683c 0.0000,0.2562 -0.2121,0.4683 -0.4683 0.4683c -0.2562,-0.0000 -0.4683,-0.2121 -0.4683 -0.4683ZM 23.3807,118.4553 ZM 25.3157,113.6575 c -0.3799,-0.0000 -0.9366,0.3711 -0.9366 2.4299c 0.0000,0.7245 0.1325,2.1824 0.9101 2.1824c 0.1502,-0.0000 0.5743,-0.0972 0.7599 -0.7864c 0.1149,-0.4241 0.1767,-0.9543 0.1767 -1.7230c 0.0000,-1.1222 -0.2827,-1.7495 -0.5390 -1.9704c -0.0972,-0.0884 -0.2297,-0.1325 -0.3711 -0.1325ZM 25.3157,113.6575 ZM 25.2804,118.5614 c -0.9454,-0.0000 -1.5816,-1.2105 -1.5816 -2.5624c 0.0000,-1.6523 0.7864,-2.6507 1.6170 -2.6507c 0.3799,-0.0000 0.7599,0.2386 1.0161 0.5832c 0.3711,0.4948 0.5655,1.1575 0.5655 1.9881c 0.0000,1.9616 -0.9719,2.6419 -1.6170 2.6419Z"/></g><g stroke-linejoin="miter" stroke-opacity="0.6" fill-opacity="0.0" stroke="rgb(0,0,0)" stroke-width="1.2041510079635571" fill="rgb(0,0,0)" stroke-linecap="butt" stroke-miterlimit="10.0"><path d="M 29.2488,118.4553 h 3.9960 "/></g><g stroke-linejoin="miter" stroke-opacity="1.0" fill-opacity="0.6" stroke="rgb(0,0,0)" fill-rule="evenodd" stroke-width="0.0" fill="rgb(0,0,0)" stroke-linecap="butt" stroke-miterlimit="10.0"><path d="M 17.5755,131.7754 ZM 19.2367,127.5607 c -0.1679,-0.0000 -0.5567,0.1590 -0.7510 0.2474l -0.1060,-0.2739 c 0.7776,-0.3623 1.0780,-0.5478 1.5198 -0.8659h 0.1679 v 4.4444 c 0.0000,0.3181 0.0442,0.4064 0.3358 0.4064h 0.4595 c 0.0265,-0.0000 0.0707,0.0177 0.0707 0.0707v 0.1944 l -1.2105,-0.0177 l -1.2282,0.0177 v -0.1944 c 0.0088,-0.0265 0.0177,-0.0707 0.0707 -0.0707h 0.5301 c 0.3358,-0.0000 0.3358,-0.1502 0.3358 -0.4064v -3.0395 c 0.0000,-0.3004 0.0000,-0.5125 -0.1944 -0.5125ZM 21.4456,131.7754 ZM 21.9493,131.4131 c 0.0000,-0.2562 0.2121,-0.4683 0.4683 -0.4683c 0.2562,-0.0000 0.4683,0.2121 0.4683 0.4683c 0.0000,0.2562 -0.2121,0.4683 -0.4683 0.4683c -0.2562,-0.0000 -0.4683,-0.2121 -0.4683 -0.4683ZM 23.3807,131.7754 ZM 26.1109,130.2821 c 0.0000,-0.9101 -0.4948,-1.3607 -1.0426 -1.3607c -0.4064,-0.0000 -0.7157,0.0619 -1.0603 0.2032l 0.2827,-2.4122 c 0.2916,0.0265 0.5920,0.0353 0.9013 0.0353c 0.4418,-0.0000 0.9013,-0.0265 1.3784 -0.0795l 0.0530,0.0265 l -0.1325,0.5743 c -0.3446,0.0353 -0.6273,0.0442 -0.8747 0.0442c -0.3976,-0.0000 -0.6980,-0.0353 -1.0073 -0.0707l -0.1679,1.3961 c 0.1856,-0.0707 0.5036,-0.1325 0.8482 -0.1325c 0.9366,-0.0000 1.4579,0.8129 1.4579 1.6258c 0.0000,0.9896 -0.6892,1.7495 -1.6876 1.7495c -0.5036,-0.0000 -1.2370,-0.2827 -1.2370 -0.6273c 0.0000,-0.1679 0.1414,-0.2827 0.3004 -0.2827c 0.1767,-0.0000 0.2916,0.1325 0.3976 0.2739c 0.1325,0.1590 0.2739,0.3358 0.5567 0.3358c 0.5655,-0.0000 1.0338,-0.5301 1.0338 -1.2989Z"/></g><g stroke-linejoin="miter" stroke-opacity="0.6" fill-opacity="0.0" stroke="rgb(0,0,0)" stroke-width="1.2041510079635571" fill="rgb(0,0,0)" stroke-linecap="butt" stroke-miterlimit="10.0"><path d="M 29.2488,131.7754 h 3.9960 "/></g><g stroke-linejoin="miter" stroke-opacity="1.0" fill-opacity="0.6" stroke="rgb(0,0,0)" fill-rule="evenodd" stroke-width="0.0" fill="rgb(0,0,0)" stroke-linecap="butt" stroke-miterlimit="10.0"><path d="M 17.5755,145.0954 ZM 19.2367,140.8807 c -0.1679,-0.0000 -0.5567,0.1590 -0.7510 0.2474l -0.1060,-0.2739 c 0.7776,-0.3623 1.0780,-0.5478 1.5198 -0.8659h 0.1679 v 4.4444 c 0.0000,0.3181 0.0442,0.4064 0.3358 0.4064h 0.4595 c 0.0265,-0.0000 0.0707,0.0177 0.0707 0.0707v 0.1944 l -1.2105,-0.0177 l -1.2282,0.0177 v -0.1944 c 0.0088,-0.0265 0.0177,-0.0707 0.0707 -0.0707h 0.5301 c 0.3358,-0.0000 0.3358,-0.1502 0.3358 -0.4064v -3.0395 c 0.0000,-0.3004 0.0000,-0.5125 -0.1944 -0.5125ZM 21.4456,145.0954 ZM 21.9493,144.7331 c 0.0000,-0.2562 0.2121,-0.4683 0.4683 -0.4683c 0.2562,-0.0000 0.4683,0.2121 0.4683 0.4683c 0.0000,0.2562 -0.2121,0.4683 -0.4683 0.4683c -0.2562,-0.0000 -0.4683,-0.2121 -0.4683 -0.4683ZM 23.3807,145.0954 ZM 25.3157,140.2975 c -0.3799,-0.0000 -0.9366,0.3711 -0.9366 2.4299c 0.0000,0.7245 0.1325,2.1824 0.9101 2.1824c 0.1502,-0.0000 0.5743,-0.0972 0.7599 -0.7864c 0.1149,-0.4241 0.1767,-0.9543 0.1767 -1.7230c 0.0000,-1.1222 -0.2827,-1.7495 -0.5390 -1.9704c -0.0972,-0.0884 -0.2297,-0.1325 -0.3711 -0.1325ZM 25.3157,140.2975 ZM 25.2804,145.2014 c -0.9454,-0.0000 -1.5816,-1.2105 -1.5816 -2.5624c 0.0000,-1.6523 0.7864,-2.6507 1.6170 -2.6507c 0.3799,-0.0000 0.7599,0.2386 1.0161 0.5832c 0.3711,0.4948 0.5655,1.1575 0.5655 1.9881c 0.0000,1.9616 -0.9719,2.6419 -1.6170 2.6419Z"/></g><g stroke-linejoin="miter" stroke-opacity="0.6" fill-opacity="0.0" stroke="rgb(0,0,0)" stroke-width="1.2041510079635571" fill="rgb(0,0,0)" stroke-linecap="butt" stroke-miterlimit="10.0"><path d="M 29.2488,145.0954 h 3.9960 "/></g><g stroke-linejoin="miter" stroke-opacity="1.0" fill-opacity="0.6" stroke="rgb(0,0,0)" fill-rule="evenodd" stroke-width="0.0" fill="rgb(0,0,0)" stroke-linecap="butt" stroke-miterlimit="10.0"><path d="M 17.5755,158.4154 ZM 19.5106,153.6175 c -0.3799,-0.0000 -0.9366,0.3711 -0.9366 2.4299c 0.0000,0.7245 0.1325,2.1824 0.9101 2.1824c 0.1502,-0.0000 0.5743,-0.0972 0.7599 -0.7864c 0.1149,-0.4241 0.1767,-0.9543 0.1767 -1.7230c 0.0000,-1.1222 -0.2827,-1.7495 -0.5390 -1.9704c -0.0972,-0.0884 -0.2297,-0.1325 -0.3711 -0.1325ZM 19.5106,153.6175 ZM 19.4752,158.5214 c -0.9454,-0.0000 -1.5816,-1.2105 -1.5816 -2.5624c 0.0000,-1.6523 0.7864,-2.6507 1.6170 -2.6507c 0.3799,-0.0000 0.7599,0.2386 1.0161 0.5832c 0.3711,0.4948 0.5655,1.1575 0.5655 1.9881c 0.0000,1.9616 -0.9719,2.6419 -1.6170 2.6419ZM 21.4456,158.4154 ZM 21.9493,158.0531 c 0.0000,-0.2562 0.2121,-0.4683 0.4683 -0.4683c 0.2562,-0.0000 0.4683,0.2121 0.4683 0.4683c 0.0000,0.2562 -0.2121,0.4683 -0.4683 0.4683c -0.2562,-0.0000 -0.4683,-0.2121 -0.4683 -0.4683ZM 23.3807,158.4154 ZM 26.1109,156.9221 c 0.0000,-0.9101 -0.4948,-1.3607 -1.0426 -1.3607c -0.4064,-0.0000 -0.7157,0.0619 -1.0603 0.2032l 0.2827,-2.4122 c 0.2916,0.0265 0.5920,0.0353 0.9013 0.0353c 0.4418,-0.0000 0.9013,-0.0265 1.3784 -0.0795l 0.0530,0.0265 l -0.1325,0.5743 c -0.3446,0.0353 -0.6273,0.0442 -0.8747 0.0442c -0.3976,-0.0000 -0.6980,-0.0353 -1.0073 -0.0707l -0.1679,1.3961 c 0.1856,-0.0707 0.5036,-0.1325 0.8482 -0.1325c 0.9366,-0.0000 1.4579,0.8129 1.4579 1.6258c 0.0000,0.9896 -0.6892,1.7495 -1.6876 1.7495c -0.5036,-0.0000 -1.2370,-0.2827 -1.2370 -0.6273c 0.0000,-0.1679 0.1414,-0.2827 0.3004 -0.2827c 0.1767,-0.0000 0.2916,0.1325 0.3976 0.2739c 0.1325,0.1590 0.2739,0.3358 0.5567 0.3358c 0.5655,-0.0000 1.0338,-0.5301 1.0338 -1.2989Z"/></g><g stroke-linejoin="miter" stroke-opacity="0.6" fill-opacity="0.0" stroke="rgb(0,0,0)" stroke-width="1.2041510079635571" fill="rgb(0,0,0)" stroke-linecap="butt" stroke-miterlimit="10.0"><path d="M 29.2488,158.4154 h 3.9960 "/></g><g stroke-linejoin="miter" stroke-opacity="1.0" fill-opacity="0.6" stroke="rgb(0,0,0)" fill-rule="evenodd" stroke-width="0.0" fill="rgb(0,0,0)" stroke-linecap="butt" stroke-miterlimit="10.0"><path d="M 17.5755,171.7354 ZM 19.5106,166.9375 c -0.3799,-0.0000 -0.9366,0.3711 -0.9366 2.4299c 0.0000,0.7245 0.1325,2.1824 0.9101 2.1824c 0.1502,-0.0000 0.5743,-0.0972 0.7599 -0.7864c 0.1149,-0.4241 0.1767,-0.9543 0.1767 -1.7230c 0.0000,-1.1222 -0.2827,-1.7495 -0.5390 -1.9704c -0.0972,-0.0884 -0.2297,-0.1325 -0.3711 -0.1325ZM 19.5106,166.9375 ZM 19.4752,171.8414 c -0.9454,-0.0000 -1.5816,-1.2105 -1.5816 -2.5624c 0.0000,-1.6523 0.7864,-2.6507 1.6170 -2.6507c 0.3799,-0.0000 0.7599,0.2386 1.0161 0.5832c 0.3711,0.4948 0.5655,1.1575 0.5655 1.9881c 0.0000,1.9616 -0.9719,2.6419 -1.6170 2.6419ZM 21.4456,171.7354 ZM 21.9493,171.3731 c 0.0000,-0.2562 0.2121,-0.4683 0.4683 -0.4683c 0.2562,-0.0000 0.4683,0.2121 0.4683 0.4683c 0.0000,0.2562 -0.2121,0.4683 -0.4683 0.4683c -0.2562,-0.0000 -0.4683,-0.2121 -0.4683 -0.4683ZM 23.3807,171.7354 ZM 25.3157,166.9375 c -0.3799,-0.0000 -0.9366,0.3711 -0.9366 2.4299c 0.0000,0.7245 0.1325,2.1824 0.9101 2.1824c 0.1502,-0.0000 0.5743,-0.0972 0.7599 -0.7864c 0.1149,-0.4241 0.1767,-0.9543 0.1767 -1.7230c 0.0000,-1.1222 -0.2827,-1.7495 -0.5390 -1.9704c -0.0972,-0.0884 -0.2297,-0.1325 -0.3711 -0.1325ZM 25.3157,166.9375 ZM 25.2804,171.8414 c -0.9454,-0.0000 -1.5816,-1.2105 -1.5816 -2.5624c 0.0000,-1.6523 0.7864,-2.6507 1.6170 -2.6507c 0.3799,-0.0000 0.7599,0.2386 1.0161 0.5832c 0.3711,0.4948 0.5655,1.1575 0.5655 1.9881c 0.0000,1.9616 -0.9719,2.6419 -1.6170 2.6419Z"/></g><g stroke-linejoin="miter" stroke-opacity="0.6" fill-opacity="0.0" stroke="rgb(0,0,0)" stroke-width="1.2041510079635571" fill="rgb(0,0,0)" stroke-linecap="butt" stroke-miterlimit="10.0"><path d="M 29.2488,171.7354 h 3.9960 "/></g><g stroke-linejoin="miter" stroke-opacity="0.0" fill-opacity="0.1" stroke="rgb(0,0,0)" stroke-width="0.0" fill="rgb(0,0,0)" stroke-linecap="butt" stroke-miterlimit="10.0"><path d="M 243.2106,177.1562 l -0.0000,-2.6640 h -199.8002 l -0.0000,2.6640 Z"/></g><g stroke-linejoin="miter" stroke-opacity="1.0" fill-opacity="0.6" stroke="rgb(0,0,0)" fill-rule="evenodd" stroke-width="0.0" fill="rgb(0,0,0)" stroke-linecap="butt" stroke-miterlimit="10.0"><path d="M 238.3730,188.3854 ZM 240.2815,183.5522 c -0.2209,-0.0000 -0.8659,0.1237 -0.8659 0.6627c 0.0000,0.1590 -0.0619,0.4330 -0.3004 0.4330c -0.2297,-0.0000 -0.2474,-0.2562 -0.2474 -0.2827c 0.0000,-0.2739 0.3623,-1.0868 1.5904 -1.0868c 0.8571,-0.0000 1.1133,0.5390 1.1133 0.8924c 0.0000,0.2209 -0.0707,0.6627 -0.8659 1.1663c 0.4948,0.0795 1.1487,0.4418 1.1487 1.3607c 0.0000,1.1663 -0.8836,1.7937 -1.8820 1.7937c -0.5036,-0.0000 -1.2105,-0.2209 -1.2105 -0.5567c 0.0000,-0.1325 0.1325,-0.2827 0.3093 -0.2827c 0.1679,-0.0000 0.2474,0.0884 0.3269 0.2032c 0.0972,0.1502 0.2562,0.3623 0.6804 0.3623c 0.2916,-0.0000 1.1222,-0.2916 1.1222 -1.4049c 0.0000,-0.9454 -0.6627,-1.0956 -1.1398 -1.0956c -0.0795,-0.0000 -0.1767,0.0177 -0.2739 0.0353l -0.0353,-0.2651 c 0.6804,-0.1149 1.2459,-0.7776 1.2459 -1.1840c 0.0000,-0.5036 -0.3534,-0.7510 -0.7157 -0.7510ZM 242.2431,188.3854 ZM 242.7467,188.0231 c 0.0000,-0.2562 0.2121,-0.4683 0.4683 -0.4683c 0.2562,-0.0000 0.4683,0.2121 0.4683 0.4683c 0.0000,0.2562 -0.2121,0.4683 -0.4683 0.4683c -0.2562,-0.0000 -0.4683,-0.2121 -0.4683 -0.4683ZM 244.1781,188.3854 ZM 246.1132,183.5876 c -0.3799,-0.0000 -0.9366,0.3711 -0.9366 2.4299c 0.0000,0.7245 0.1325,2.1824 0.9101 2.1824c 0.1502,-0.0000 0.5743,-0.0972 0.7599 -0.7864c 0.1149,-0.4241 0.1767,-0.9543 0.1767 -1.7230c 0.0000,-1.1222 -0.2827,-1.7495 -0.5390 -1.9704c -0.0972,-0.0884 -0.2297,-0.1325 -0.3711 -0.1325ZM 246.1132,183.5876 ZM 246.0778,188.4914 c -0.9454,-0.0000 -1.5816,-1.2105 -1.5816 -2.5624c 0.0000,-1.6523 0.7864,-2.6507 1.6170 -2.6507c 0.3799,-0.0000 0.7599,0.2386 1.0161 0.5832c 0.3711,0.4948 0.5655,1.1575 0.5655 1.9881c 0.0000,1.9616 -0.9719,2.6419 -1.6170 2.6419Z"/></g><g stroke-linejoin="miter" stroke-opacity="0.6" fill-opacity="0.0" stroke="rgb(0,0,0)" stroke-width="1.2041510079635571" fill="rgb(0,0,0)" stroke-linecap="butt" stroke-miterlimit="10.0"><path d="M 243.2106,174.4922 v 3.9960 "/></g><g stroke-linejoin="miter" stroke-opacity="1.0" fill-opacity="0.6" stroke="rgb(0,0,0)" fill-rule="evenodd" stroke-width="0.0" fill="rgb(0,0,0)" stroke-linecap="butt" stroke-miterlimit="10.0"><path d="M 205.0729,188.3854 ZM 205.5854,184.4711 c 0.0000,-0.5036 0.4860,-1.1928 1.4137 -1.1928c 0.6804,-0.0000 1.4756,0.2562 1.4756 1.2724c 0.0000,0.6715 -0.3446,1.0073 -0.8217 1.4667l -0.8394,0.8129 c -0.0442,0.0442 -0.6362,0.6273 -0.6362 1.0426h 1.5021 c 0.3004,-0.0000 0.4595,-0.1502 0.5832 -0.6362l 0.2209,0.0353 l -0.1767,1.1133 h -2.7303 c 0.0000,-0.4948 0.0795,-0.8747 0.9013 -1.7142l 0.6185,-0.6097 c 0.4948,-0.5036 0.6980,-0.9366 0.6980 -1.4756c 0.0000,-0.8041 -0.5478,-1.0338 -0.8482 -1.0338c -0.6097,-0.0000 -0.7776,0.3181 -0.7776 0.5301c 0.0000,0.0707 0.0177,0.1414 0.0353 0.2032c 0.0177,0.0619 0.0353,0.1237 0.0353 0.1944c 0.0000,0.2297 -0.1767,0.3181 -0.3181 0.3181c -0.1944,-0.0000 -0.3358,-0.1502 -0.3358 -0.3269ZM 208.9430,188.3854 ZM 209.4467,188.0231 c 0.0000,-0.2562 0.2121,-0.4683 0.4683 -0.4683c 0.2562,-0.0000 0.4683,0.2121 0.4683 0.4683c 0.0000,0.2562 -0.2121,0.4683 -0.4683 0.4683c -0.2562,-0.0000 -0.4683,-0.2121 -0.4683 -0.4683ZM 210.8781,188.3854 ZM 213.6084,186.8922 c 0.0000,-0.9101 -0.4948,-1.3607 -1.0426 -1.3607c -0.4064,-0.0000 -0.7157,0.0619 -1.0603 0.2032l 0.2827,-2.4122 c 0.2916,0.0265 0.5920,0.0353 0.9013 0.0353c 0.4418,-0.0000 0.9013,-0.0265 1.3784 -0.0795l 0.0530,0.0265 l -0.1325,0.5743 c -0.3446,0.0353 -0.6273,0.0442 -0.8747 0.0442c -0.3976,-0.0000 -0.6980,-0.0353 -1.0073 -0.0707l -0.1679,1.3961 c 0.1856,-0.0707 0.5036,-0.1325 0.8482 -0.1325c 0.9366,-0.0000 1.4579,0.8129 1.4579 1.6258c 0.0000,0.9896 -0.6892,1.7495 -1.6876 1.7495c -0.5036,-0.0000 -1.2370,-0.2827 -1.2370 -0.6273c 0.0000,-0.1679 0.1414,-0.2827 0.3004 -0.2827c 0.1767,-0.0000 0.2916,0.1325 0.3976 0.2739c 0.1325,0.1590 0.2739,0.3358 0.5567 0.3358c 0.5655,-0.0000 1.0338,-0.5301 1.0338 -1.2989Z"/></g><g stroke-linejoin="miter" stroke-opacity="0.6" fill-opacity="0.0" stroke="rgb(0,0,0)" stroke-width="1.2041510079635571" fill="rgb(0,0,0)" stroke-linecap="butt" stroke-miterlimit="10.0"><path d="M 209.9106,174.4922 v 3.9960 "/></g><g stroke-linejoin="miter" stroke-opacity="1.0" fill-opacity="0.6" stroke="rgb(0,0,0)" fill-rule="evenodd" stroke-width="0.0" fill="rgb(0,0,0)" stroke-linecap="butt" stroke-miterlimit="10.0"><path d="M 171.7729,188.3854 ZM 172.2854,184.4711 c 0.0000,-0.5036 0.4860,-1.1928 1.4137 -1.1928c 0.6804,-0.0000 1.4756,0.2562 1.4756 1.2724c 0.0000,0.6715 -0.3446,1.0073 -0.8217 1.4667l -0.8394,0.8129 c -0.0442,0.0442 -0.6362,0.6273 -0.6362 1.0426h 1.5021 c 0.3004,-0.0000 0.4595,-0.1502 0.5832 -0.6362l 0.2209,0.0353 l -0.1767,1.1133 h -2.7303 c 0.0000,-0.4948 0.0795,-0.8747 0.9013 -1.7142l 0.6185,-0.6097 c 0.4948,-0.5036 0.6980,-0.9366 0.6980 -1.4756c 0.0000,-0.8041 -0.5478,-1.0338 -0.8482 -1.0338c -0.6097,-0.0000 -0.7776,0.3181 -0.7776 0.5301c 0.0000,0.0707 0.0177,0.1414 0.0353 0.2032c 0.0177,0.0619 0.0353,0.1237 0.0353 0.1944c 0.0000,0.2297 -0.1767,0.3181 -0.3181 0.3181c -0.1944,-0.0000 -0.3358,-0.1502 -0.3358 -0.3269ZM 175.6430,188.3854 ZM 176.1466,188.0231 c 0.0000,-0.2562 0.2121,-0.4683 0.4683 -0.4683c 0.2562,-0.0000 0.4683,0.2121 0.4683 0.4683c 0.0000,0.2562 -0.2121,0.4683 -0.4683 0.4683c -0.2562,-0.0000 -0.4683,-0.2121 -0.4683 -0.4683ZM 177.5780,188.3854 ZM 179.5131,183.5876 c -0.3799,-0.0000 -0.9366,0.3711 -0.9366 2.4299c 0.0000,0.7245 0.1325,2.1824 0.9101 2.1824c 0.1502,-0.0000 0.5743,-0.0972 0.7599 -0.7864c 0.1149,-0.4241 0.1767,-0.9543 0.1767 -1.7230c 0.0000,-1.1222 -0.2827,-1.7495 -0.5390 -1.9704c -0.0972,-0.0884 -0.2297,-0.1325 -0.3711 -0.1325ZM 179.5131,183.5876 ZM 179.4778,188.4914 c -0.9454,-0.0000 -1.5816,-1.2105 -1.5816 -2.5624c 0.0000,-1.6523 0.7864,-2.6507 1.6170 -2.6507c 0.3799,-0.0000 0.7599,0.2386 1.0161 0.5832c 0.3711,0.4948 0.5655,1.1575 0.5655 1.9881c 0.0000,1.9616 -0.9719,2.6419 -1.6170 2.6419Z"/></g><g stroke-linejoin="miter" stroke-opacity="0.6" fill-opacity="0.0" stroke="rgb(0,0,0)" stroke-width="1.2041510079635571" fill="rgb(0,0,0)" stroke-linecap="butt" stroke-miterlimit="10.0"><path d="M 176.6105,174.4922 v 3.9960 "/></g><g stroke-linejoin="miter" stroke-opacity="1.0" fill-opacity="0.6" stroke="rgb(0,0,0)" fill-rule="evenodd" stroke-width="0.0" fill="rgb(0,0,0)" stroke-linecap="butt" stroke-miterlimit="10.0"><path d="M 138.4729,188.3854 ZM 140.1340,184.1707 c -0.1679,-0.0000 -0.5567,0.1590 -0.7510 0.2474l -0.1060,-0.2739 c 0.7776,-0.3623 1.0780,-0.5478 1.5198 -0.8659h 0.1679 v 4.4444 c 0.0000,0.3181 0.0442,0.4064 0.3358 0.4064h 0.4595 c 0.0265,-0.0000 0.0707,0.0177 0.0707 0.0707v 0.1944 l -1.2105,-0.0177 l -1.2282,0.0177 v -0.1944 c 0.0088,-0.0265 0.0177,-0.0707 0.0707 -0.0707h 0.5301 c 0.3358,-0.0000 0.3358,-0.1502 0.3358 -0.4064v -3.0395 c 0.0000,-0.3004 0.0000,-0.5125 -0.1944 -0.5125ZM 142.3430,188.3854 ZM 142.8466,188.0231 c 0.0000,-0.2562 0.2121,-0.4683 0.4683 -0.4683c 0.2562,-0.0000 0.4683,0.2121 0.4683 0.4683c 0.0000,0.2562 -0.2121,0.4683 -0.4683 0.4683c -0.2562,-0.0000 -0.4683,-0.2121 -0.4683 -0.4683ZM 144.2780,188.3854 ZM 147.0083,186.8922 c 0.0000,-0.9101 -0.4948,-1.3607 -1.0426 -1.3607c -0.4064,-0.0000 -0.7157,0.0619 -1.0603 0.2032l 0.2827,-2.4122 c 0.2916,0.0265 0.5920,0.0353 0.9013 0.0353c 0.4418,-0.0000 0.9013,-0.0265 1.3784 -0.0795l 0.0530,0.0265 l -0.1325,0.5743 c -0.3446,0.0353 -0.6273,0.0442 -0.8747 0.0442c -0.3976,-0.0000 -0.6980,-0.0353 -1.0073 -0.0707l -0.1679,1.3961 c 0.1856,-0.0707 0.5036,-0.1325 0.8482 -0.1325c 0.9366,-0.0000 1.4579,0.8129 1.4579 1.6258c 0.0000,0.9896 -0.6892,1.7495 -1.6876 1.7495c -0.5036,-0.0000 -1.2370,-0.2827 -1.2370 -0.6273c 0.0000,-0.1679 0.1414,-0.2827 0.3004 -0.2827c 0.1767,-0.0000 0.2916,0.1325 0.3976 0.2739c 0.1325,0.1590 0.2739,0.3358 0.5567 0.3358c 0.5655,-0.0000 1.0338,-0.5301 1.0338 -1.2989Z"/></g><g stroke-linejoin="miter" stroke-opacity="0.6" fill-opacity="0.0" stroke="rgb(0,0,0)" stroke-width="1.2041510079635571" fill="rgb(0,0,0)" stroke-linecap="butt" stroke-miterlimit="10.0"><path d="M 143.3105,174.4922 v 3.9960 "/></g><g stroke-linejoin="miter" stroke-opacity="1.0" fill-opacity="0.6" stroke="rgb(0,0,0)" fill-rule="evenodd" stroke-width="0.0" fill="rgb(0,0,0)" stroke-linecap="butt" stroke-miterlimit="10.0"><path d="M 105.1728,188.3854 ZM 106.8340,184.1707 c -0.1679,-0.0000 -0.5567,0.1590 -0.7510 0.2474l -0.1060,-0.2739 c 0.7776,-0.3623 1.0780,-0.5478 1.5198 -0.8659h 0.1679 v 4.4444 c 0.0000,0.3181 0.0442,0.4064 0.3358 0.4064h 0.4595 c 0.0265,-0.0000 0.0707,0.0177 0.0707 0.0707v 0.1944 l -1.2105,-0.0177 l -1.2282,0.0177 v -0.1944 c 0.0088,-0.0265 0.0177,-0.0707 0.0707 -0.0707h 0.5301 c 0.3358,-0.0000 0.3358,-0.1502 0.3358 -0.4064v -3.0395 c 0.0000,-0.3004 0.0000,-0.5125 -0.1944 -0.5125ZM 109.0429,188.3854 ZM 109.5466,188.0231 c 0.0000,-0.2562 0.2121,-0.4683 0.4683 -0.4683c 0.2562,-0.0000 0.4683,0.2121 0.4683 0.4683c 0.0000,0.2562 -0.2121,0.4683 -0.4683 0.4683c -0.2562,-0.0000 -0.4683,-0.2121 -0.4683 -0.4683ZM 110.9780,188.3854 ZM 112.9130,183.5876 c -0.3799,-0.0000 -0.9366,0.3711 -0.9366 2.4299c 0.0000,0.7245 0.1325,2.1824 0.9101 2.1824c 0.1502,-0.0000 0.5743,-0.0972 0.7599 -0.7864c 0.1149,-0.4241 0.1767,-0.9543 0.1767 -1.7230c 0.0000,-1.1222 -0.2827,-1.7495 -0.5390 -1.9704c -0.0972,-0.0884 -0.2297,-0.1325 -0.3711 -0.1325ZM 112.9130,183.5876 ZM 112.8777,188.4914 c -0.9454,-0.0000 -1.5816,-1.2105 -1.5816 -2.5624c 0.0000,-1.6523 0.7864,-2.6507 1.6170 -2.6507c 0.3799,-0.0000 0.7599,0.2386 1.0161 0.5832c 0.3711,0.4948 0.5655,1.1575 0.5655 1.9881c 0.0000,1.9616 -0.9719,2.6419 -1.6170 2.6419Z"/></g><g stroke-linejoin="miter" stroke-opacity="0.6" fill-opacity="0.0" stroke="rgb(0,0,0)" stroke-width="1.2041510079635571" fill="rgb(0,0,0)" stroke-linecap="butt" stroke-miterlimit="10.0"><path d="M 110.0105,174.4922 v 3.9960 "/></g><g stroke-linejoin="miter" stroke-opacity="1.0" fill-opacity="0.6" stroke="rgb(0,0,0)" fill-rule="evenodd" stroke-width="0.0" fill="rgb(0,0,0)" stroke-linecap="butt" stroke-miterlimit="10.0"><path d="M 71.8728,188.3854 ZM 73.8079,183.5876 c -0.3799,-0.0000 -0.9366,0.3711 -0.9366 2.4299c 0.0000,0.7245 0.1325,2.1824 0.9101 2.1824c 0.1502,-0.0000 0.5743,-0.0972 0.7599 -0.7864c 0.1149,-0.4241 0.1767,-0.9543 0.1767 -1.7230c 0.0000,-1.1222 -0.2827,-1.7495 -0.5390 -1.9704c -0.0972,-0.0884 -0.2297,-0.1325 -0.3711 -0.1325ZM 73.8079,183.5876 ZM 73.7725,188.4914 c -0.9454,-0.0000 -1.5816,-1.2105 -1.5816 -2.5624c 0.0000,-1.6523 0.7864,-2.6507 1.6170 -2.6507c 0.3799,-0.0000 0.7599,0.2386 1.0161 0.5832c 0.3711,0.4948 0.5655,1.1575 0.5655 1.9881c 0.0000,1.9616 -0.9719,2.6419 -1.6170 2.6419ZM 75.7429,188.3854 ZM 76.2465,188.0231 c 0.0000,-0.2562 0.2121,-0.4683 0.4683 -0.4683c 0.2562,-0.0000 0.4683,0.2121 0.4683 0.4683c 0.0000,0.2562 -0.2121,0.4683 -0.4683 0.4683c -0.2562,-0.0000 -0.4683,-0.2121 -0.4683 -0.4683ZM 77.6779,188.3854 ZM 80.4082,186.8922 c 0.0000,-0.9101 -0.4948,-1.3607 -1.0426 -1.3607c -0.4064,-0.0000 -0.7157,0.0619 -1.0603 0.2032l 0.2827,-2.4122 c 0.2916,0.0265 0.5920,0.0353 0.9013 0.0353c 0.4418,-0.0000 0.9013,-0.0265 1.3784 -0.0795l 0.0530,0.0265 l -0.1325,0.5743 c -0.3446,0.0353 -0.6273,0.0442 -0.8747 0.0442c -0.3976,-0.0000 -0.6980,-0.0353 -1.0073 -0.0707l -0.1679,1.3961 c 0.1856,-0.0707 0.5036,-0.1325 0.8482 -0.1325c 0.9366,-0.0000 1.4579,0.8129 1.4579 1.6258c 0.0000,0.9896 -0.6892,1.7495 -1.6876 1.7495c -0.5036,-0.0000 -1.2370,-0.2827 -1.2370 -0.6273c 0.0000,-0.1679 0.1414,-0.2827 0.3004 -0.2827c 0.1767,-0.0000 0.2916,0.1325 0.3976 0.2739c 0.1325,0.1590 0.2739,0.3358 0.5567 0.3358c 0.5655,-0.0000 1.0338,-0.5301 1.0338 -1.2989Z"/></g><g stroke-linejoin="miter" stroke-opacity="0.6" fill-opacity="0.0" stroke="rgb(0,0,0)" stroke-width="1.2041510079635571" fill="rgb(0,0,0)" stroke-linecap="butt" stroke-miterlimit="10.0"><path d="M 76.7104,174.4922 v 3.9960 "/></g><g stroke-linejoin="miter" stroke-opacity="1.0" fill-opacity="0.6" stroke="rgb(0,0,0)" fill-rule="evenodd" stroke-width="0.0" fill="rgb(0,0,0)" stroke-linecap="butt" stroke-miterlimit="10.0"><path d="M 38.5728,188.3854 ZM 40.5078,183.5876 c -0.3799,-0.0000 -0.9366,0.3711 -0.9366 2.4299c 0.0000,0.7245 0.1325,2.1824 0.9101 2.1824c 0.1502,-0.0000 0.5743,-0.0972 0.7599 -0.7864c 0.1149,-0.4241 0.1767,-0.9543 0.1767 -1.7230c 0.0000,-1.1222 -0.2827,-1.7495 -0.5390 -1.9704c -0.0972,-0.0884 -0.2297,-0.1325 -0.3711 -0.1325ZM 40.5078,183.5876 ZM 40.4725,188.4914 c -0.9454,-0.0000 -1.5816,-1.2105 -1.5816 -2.5624c 0.0000,-1.6523 0.7864,-2.6507 1.6170 -2.6507c 0.3799,-0.0000 0.7599,0.2386 1.0161 0.5832c 0.3711,0.4948 0.5655,1.1575 0.5655 1.9881c 0.0000,1.9616 -0.9719,2.6419 -1.6170 2.6419ZM 42.4429,188.3854 ZM 42.9465,188.0231 c 0.0000,-0.2562 0.2121,-0.4683 0.4683 -0.4683c 0.2562,-0.0000 0.4683,0.2121 0.4683 0.4683c 0.0000,0.2562 -0.2121,0.4683 -0.4683 0.4683c -0.2562,-0.0000 -0.4683,-0.2121 -0.4683 -0.4683ZM 44.3779,188.3854 ZM 46.3130,183.5876 c -0.3799,-0.0000 -0.9366,0.3711 -0.9366 2.4299c 0.0000,0.7245 0.1325,2.1824 0.9101 2.1824c 0.1502,-0.0000 0.5743,-0.0972 0.7599 -0.7864c 0.1149,-0.4241 0.1767,-0.9543 0.1767 -1.7230c 0.0000,-1.1222 -0.2827,-1.7495 -0.5390 -1.9704c -0.0972,-0.0884 -0.2297,-0.1325 -0.3711 -0.1325ZM 46.3130,183.5876 ZM 46.2776,188.4914 c -0.9454,-0.0000 -1.5816,-1.2105 -1.5816 -2.5624c 0.0000,-1.6523 0.7864,-2.6507 1.6170 -2.6507c 0.3799,-0.0000 0.7599,0.2386 1.0161 0.5832c 0.3711,0.4948 0.5655,1.1575 0.5655 1.9881c 0.0000,1.9616 -0.9719,2.6419 -1.6170 2.6419Z"/></g><g stroke-linejoin="miter" stroke-opacity="0.6" fill-opacity="0.0" stroke="rgb(0,0,0)" stroke-width="1.2041510079635571" fill="rgb(0,0,0)" stroke-linecap="butt" stroke-miterlimit="10.0"><path d="M 43.4104,174.4922 v 3.9960 "/></g><g stroke-linejoin="miter" stroke-opacity="0.0" fill-opacity="0.0" stroke="rgb(0,0,0)" stroke-width="0.0" fill="rgb(0,0,0)" stroke-linecap="butt" stroke-miterlimit="10.0"><path d="M 243.2106,169.1642 l -0.0000,-133.2001 h -199.8002 l -0.0000,133.2001 Z"/></g><g stroke-linejoin="miter" stroke-opacity="0.5" fill-opacity="0.0" stroke="rgb(93,165,218)" stroke-width="0.4816604031854228" fill="rgb(0,0,0)" stroke-linecap="butt" stroke-miterlimit="10.0"><path d="M 243.2106,169.1642 v -133.2001 "/></g><g stroke-linejoin="miter" stroke-opacity="0.5" fill-opacity="0.0" stroke="rgb(93,165,218)" stroke-width="0.4816604031854228" fill="rgb(0,0,0)" stroke-linecap="butt" stroke-miterlimit="10.0"><path d="M 209.9106,169.1642 v -133.2001 "/></g><g stroke-linejoin="miter" stroke-opacity="0.5" fill-opacity="0.0" stroke="rgb(93,165,218)" stroke-width="0.4816604031854228" fill="rgb(0,0,0)" stroke-linecap="butt" stroke-miterlimit="10.0"><path d="M 176.6105,169.1642 v -133.2001 "/></g><g stroke-linejoin="miter" stroke-opacity="0.5" fill-opacity="0.0" stroke="rgb(93,165,218)" stroke-width="0.4816604031854228" fill="rgb(0,0,0)" stroke-linecap="butt" stroke-miterlimit="10.0"><path d="M 143.3105,169.1642 v -133.2001 "/></g><g stroke-linejoin="miter" stroke-opacity="0.5" fill-opacity="0.0" stroke="rgb(93,165,218)" stroke-width="0.4816604031854228" fill="rgb(0,0,0)" stroke-linecap="butt" stroke-miterlimit="10.0"><path d="M 110.0105,169.1642 v -133.2001 "/></g><g stroke-linejoin="miter" stroke-opacity="0.5" fill-opacity="0.0" stroke="rgb(93,165,218)" stroke-width="0.4816604031854228" fill="rgb(0,0,0)" stroke-linecap="butt" stroke-miterlimit="10.0"><path d="M 76.7104,169.1642 v -133.2001 "/></g><g stroke-linejoin="miter" stroke-opacity="0.5" fill-opacity="0.0" stroke="rgb(93,165,218)" stroke-width="0.4816604031854228" fill="rgb(0,0,0)" stroke-linecap="butt" stroke-miterlimit="10.0"><path d="M 43.4104,169.1642 v -133.2001 "/></g><g stroke-linejoin="miter" stroke-opacity="0.5" fill-opacity="0.0" stroke="rgb(93,165,218)" stroke-width="0.4816604031854228" fill="rgb(0,0,0)" stroke-linecap="butt" stroke-miterlimit="10.0"><path d="M 43.4104,35.9640 h 199.8002 "/></g><g stroke-linejoin="miter" stroke-opacity="0.5" fill-opacity="0.0" stroke="rgb(93,165,218)" stroke-width="0.4816604031854228" fill="rgb(0,0,0)" stroke-linecap="butt" stroke-miterlimit="10.0"><path d="M 43.4104,49.2840 h 199.8002 "/></g><g stroke-linejoin="miter" stroke-opacity="0.5" fill-opacity="0.0" stroke="rgb(93,165,218)" stroke-width="0.4816604031854228" fill="rgb(0,0,0)" stroke-linecap="butt" stroke-miterlimit="10.0"><path d="M 43.4104,62.6041 h 199.8002 "/></g><g stroke-linejoin="miter" stroke-opacity="0.5" fill-opacity="0.0" stroke="rgb(93,165,218)" stroke-width="0.4816604031854228" fill="rgb(0,0,0)" stroke-linecap="butt" stroke-miterlimit="10.0"><path d="M 43.4104,75.9241 h 199.8002 "/></g><g stroke-linejoin="miter" stroke-opacity="0.5" fill-opacity="0.0" stroke="rgb(93,165,218)" stroke-width="0.4816604031854228" fill="rgb(0,0,0)" stroke-linecap="butt" stroke-miterlimit="10.0"><path d="M 43.4104,89.2441 h 199.8002 "/></g><g stroke-linejoin="miter" stroke-opacity="0.5" fill-opacity="0.0" stroke="rgb(93,165,218)" stroke-width="0.4816604031854228" fill="rgb(0,0,0)" stroke-linecap="butt" stroke-miterlimit="10.0"><path d="M 43.4104,102.5641 h 199.8002 "/></g><g stroke-linejoin="miter" stroke-opacity="0.5" fill-opacity="0.0" stroke="rgb(93,165,218)" stroke-width="0.4816604031854228" fill="rgb(0,0,0)" stroke-linecap="butt" stroke-miterlimit="10.0"><path d="M 43.4104,115.8841 h 199.8002 "/></g><g stroke-linejoin="miter" stroke-opacity="0.5" fill-opacity="0.0" stroke="rgb(93,165,218)" stroke-width="0.4816604031854228" fill="rgb(0,0,0)" stroke-linecap="butt" stroke-miterlimit="10.0"><path d="M 43.4104,129.2041 h 199.8002 "/></g><g stroke-linejoin="miter" stroke-opacity="0.5" fill-opacity="0.0" stroke="rgb(93,165,218)" stroke-width="0.4816604031854228" fill="rgb(0,0,0)" stroke-linecap="butt" stroke-miterlimit="10.0"><path d="M 43.4104,142.5241 h 199.8002 "/></g><g stroke-linejoin="miter" stroke-opacity="0.5" fill-opacity="0.0" stroke="rgb(93,165,218)" stroke-width="0.4816604031854228" fill="rgb(0,0,0)" stroke-linecap="butt" stroke-miterlimit="10.0"><path d="M 43.4104,155.8442 h 199.8002 "/></g><g stroke-linejoin="miter" stroke-opacity="0.5" fill-opacity="0.0" stroke="rgb(93,165,218)" stroke-width="0.4816604031854228" fill="rgb(0,0,0)" stroke-linecap="butt" stroke-miterlimit="10.0"><path d="M 43.4104,169.1642 h 199.8002 "/></g><g stroke-linejoin="miter" stroke-opacity="0.6" fill-opacity="0.0" stroke="rgb(44,160,44)" stroke-width="1.2041510079635571" fill="rgb(0,0,0)" stroke-linecap="butt" stroke-miterlimit="10.0"><path d="M 76.7104,62.6041 v 106.5601 "/></g><g stroke-linejoin="miter" stroke-opacity="0.6" fill-opacity="0.0" stroke="rgb(255,127,14)" stroke-width="4.8166040318542285" fill="rgb(0,0,0)" stroke-linecap="butt" stroke-miterlimit="10.0"><path d="M 43.4104,169.1642 l 199.8002,-79.9201 "/></g><g stroke-linejoin="miter" stroke-opacity="0.6" fill-opacity="0.0" stroke="rgb(31,119,180)" stroke-width="2.4083020159271142" fill="rgb(0,0,0)" stroke-linecap="butt" stroke-miterlimit="10.0"><path d="M 43.4104,142.5241 h 66.6001 l 66.6001,-106.5601 "/></g></svg>