<?xml version="1.0" encoding="UTF-8"?>
<!DOCTYPE svg PUBLIC "-//W3C//DTD SVG 1.1//EN"
    "http://www.w3.org/Graphics/SVG/1.1/DTD/svg11.dtd"><svg xmlns="http://www.w3.org/2000/svg" height="200.0000" stroke-opacity="1" viewBox="0 0 300 200" font-size="1" width="300.0000" xmlns:xlink="http://www.w3.org/1999/xlink" stroke="rgb(0,0,0)" version="1.1"><defs></defs><g stroke-linejoin="miter" stroke-opacity="1.0" fill-opacity="0.6" stroke="rgb(0,0,0)" fill-rule="evenodd" stroke-width="0.0" fill="rgb(0,0,0)" stroke-linecap="butt" stroke-miterlimit="10.0"><path d="M 96.1400,21.1311 ZM 98.7799,15.7729 c 0.0000,0.0653 -0.0523,0.1046 -0.1176 0.1046h -0.1960 c -0.2875,-0.0000 -0.3790,0.0784 -0.3790 0.2091c 0.0000,0.0915 0.0523,0.2091 0.1176 0.3921l 1.3722,3.4502 l 1.1370,-2.8360 l -0.2352,-0.5881 c -0.1699,-0.4443 -0.4443,-0.6273 -0.8364 -0.6273c -0.0653,-0.0000 -0.1307,-0.0261 -0.1307 -0.0915v -0.2614 l 0.0261,-0.0261 c 0.0000,-0.0000 0.7319,0.0261 1.1893 0.0261l 1.3069,-0.0261 l 0.0392,0.0261 v 0.2483 c 0.0000,0.0653 -0.0653,0.1046 -0.1307 0.1046h -0.2352 c -0.2614,-0.0000 -0.3790,0.0523 -0.3790 0.1830c 0.0000,0.1046 0.0523,0.2352 0.1307 0.4182l 1.3592,3.4502 l 1.3592,-3.3849 c 0.0392,-0.0784 0.0653,-0.1830 0.0653 -0.2875c 0.0000,-0.2222 -0.1438,-0.3790 -0.5881 -0.3790h -0.1960 c -0.0653,-0.0000 -0.1176,-0.0523 -0.1176 -0.0915v -0.2614 l 0.0392,-0.0261 c 0.0000,-0.0000 0.8625,0.0261 1.3461 0.0261c 0.4443,-0.0000 0.9671,-0.0261 0.9671 -0.0261l 0.0131,0.0261 v 0.2483 c 0.0000,0.0784 -0.0784,0.1046 -0.1568 0.1046c -0.3267,-0.0000 -0.6665,0.1438 -0.9018 0.7188l -1.7774,4.4173 c -0.0784,0.1960 -0.1830,0.2744 -0.3006 0.2744c -0.1307,-0.0000 -0.2352,-0.0784 -0.3137 -0.2614l -1.3069,-3.2672 l -1.3069,3.2411 c -0.0915,0.2091 -0.1960,0.2875 -0.3137 0.2875c -0.1307,-0.0000 -0.2352,-0.0784 -0.3137 -0.2614l -1.7904,-4.5218 c -0.1960,-0.5097 -0.4313,-0.6273 -0.8233 -0.6273c -0.0653,-0.0000 -0.1568,-0.0261 -0.1568 -0.0915v -0.2614 l 0.0261,-0.0261 c 0.0000,-0.0000 0.6142,0.0261 1.1893 0.0261c 0.6012,-0.0000 1.2938,-0.0261 1.2938 -0.0261l 0.0261,0.0392 v 0.2352 ZM 105.8633,21.1311 ZM 106.8827,13.6688 c 0.0000,-0.3398 0.2744,-0.6273 0.6142 -0.6273c 0.3529,-0.0000 0.6273,0.2875 0.6273 0.6273c 0.0000,0.3529 -0.2744,0.6273 -0.6273 0.6273c -0.3398,-0.0000 -0.6142,-0.2744 -0.6142 -0.6273ZM 106.8827,13.6688 ZM 108.1242,20.1902 c 0.0000,0.3790 0.1438,0.5750 0.5620 0.5750h 0.2483 c 0.0653,-0.0000 0.1176,0.0392 0.1176 0.1046v 0.2483 l -0.0261,0.0261 c 0.0000,-0.0000 -0.9018,-0.0261 -1.4114 -0.0261c -0.4574,-0.0000 -1.3461,0.0261 -1.3461 0.0261l -0.0261,-0.0261 v -0.2483 c 0.0000,-0.0653 0.0392,-0.1046 0.1046 -0.1046h 0.2483 c 0.4313,-0.0000 0.5620,-0.1960 0.5620 -0.5750v -3.2542 c 0.0000,-0.6927 -0.1176,-0.7972 -0.3006 -0.7972c -0.1699,-0.0000 -0.3267,0.0131 -0.5489 0.0653l -0.0653,-0.3659 c 0.8364,-0.1438 0.9802,-0.1960 1.3592 -0.3790c 0.1438,-0.0523 0.2352,-0.1046 0.3267 -0.1046h 0.1960 v 4.8355 ZM 109.3135,21.1311 ZM 111.4568,16.0212 v 3.3456 c 0.0000,0.8103 0.0784,1.2023 0.4313 1.2023c 0.3398,-0.0000 0.6012,-0.1046 0.9410 -0.3659l 0.2352,0.2222 c -0.5097,0.5750 -1.0324,0.8625 -1.6336 0.8625c -0.6012,-0.0000 -0.9540,-0.3659 -0.9540 -1.2938v -3.9730 h -0.8495 c -0.0392,-0.0000 -0.0523,-0.0131 -0.0523 -0.0523v -0.4051 c 0.0000,-0.0392 0.0131,-0.0523 0.0392 -0.0523c 0.8756,-0.0000 1.0847,-0.5097 1.0847 -1.5029v -0.2483 l 0.7580,-0.2614 v 2.0126 h 1.4376 c 0.0653,-0.0000 0.1046,0.0261 0.1046 0.0784v 0.2614 c 0.0000,0.1176 -0.1830,0.1699 -0.3137 0.1699h -1.2285 ZM 113.2603,21.1311 ZM 115.3905,12.0090 v 4.4304 c 0.8756,-0.8756 1.6467,-1.0847 2.1564 -1.0847c 0.9410,-0.0000 1.4114,0.7188 1.4114 2.0649v 2.7706 c 0.0000,0.3790 0.1307,0.5750 0.5620 0.5750h 0.2483 c 0.0523,-0.0000 0.1046,0.0392 0.1046 0.1046v 0.2483 l -0.0261,0.0261 c 0.0000,-0.0000 -0.8887,-0.0261 -1.4114 -0.0261c -0.4574,-0.0000 -1.3461,0.0261 -1.3461 0.0261l -0.0261,-0.0261 v -0.2483 c 0.0000,-0.0653 0.0392,-0.1046 0.1046 -0.1046h 0.2483 c 0.4443,-0.0000 0.5620,-0.1960 0.5620 -0.5750v -2.9144 c 0.0000,-1.0586 -0.2875,-1.3069 -1.0194 -1.3069c -0.3790,-0.0000 -0.9410,0.3398 -1.5683 0.9540v 3.2672 c 0.0000,0.3790 0.1307,0.5750 0.5620 0.5750h 0.2483 c 0.0523,-0.0000 0.1046,0.0392 0.1046 0.1046v 0.2483 l -0.0261,0.0261 c 0.0000,-0.0000 -0.8887,-0.0261 -1.3984 -0.0261c -0.4705,-0.0000 -1.3461,0.0261 -1.3461 0.0261l -0.0261,-0.0261 v -0.2483 c 0.0000,-0.0653 0.0261,-0.1046 0.0915 -0.1046h 0.2483 c 0.4443,-0.0000 0.5620,-0.1960 0.5620 -0.5750v -6.5475 c 0.0000,-0.7449 -0.1176,-0.9540 -0.3790 -0.9540l -0.4313,0.0523 c -0.0392,-0.0000 -0.0653,-0.0261 -0.0653 -0.0653l -0.0261,-0.3267 c 0.2091,-0.0000 0.6796,-0.0784 0.9018 -0.1176c 0.2352,-0.0523 0.4313,-0.1046 0.6927 -0.2222h 0.2875 ZM 120.0300,21.1311 ZM 126.7474,20.1902 v -3.2934 h -4.2735 v 3.2934 c 0.0000,0.4051 0.1960,0.5750 0.7188 0.5750h 0.3398 c 0.0523,-0.0000 0.1046,0.0392 0.1046 0.1046v 0.2483 l -0.0261,0.0261 c 0.0000,-0.0000 -1.1239,-0.0261 -1.6467 -0.0261c -0.4574,-0.0000 -1.6728,0.0261 -1.6728 0.0261l -0.0261,-0.0261 v -0.2483 c 0.0000,-0.0653 0.0392,-0.1046 0.0915 -0.1046h 0.3529 c 0.5358,-0.0000 0.7057,-0.2091 0.7057 -0.5750v -6.5606 c 0.0000,-0.3921 -0.1960,-0.5750 -0.7057 -0.5750h -0.3529 c -0.0523,-0.0000 -0.1046,-0.0392 -0.1046 -0.1046v -0.2483 l 0.0261,-0.0131 c 0.0000,-0.0000 1.1370,0.0131 1.6467 0.0131c 0.4705,-0.0000 1.6859,-0.0131 1.6859 -0.0131l 0.0261,0.0131 v 0.2483 c 0.0000,0.0653 -0.0392,0.1046 -0.1046 0.1046h -0.3398 c -0.5358,-0.0000 -0.7188,0.2091 -0.7188 0.5750v 2.7575 h 4.2735 v -2.7575 c 0.0000,-0.3921 -0.1960,-0.5750 -0.7188 -0.5750h -0.3398 c -0.0653,-0.0000 -0.1176,-0.0392 -0.1176 -0.1046v -0.2483 l 0.0261,-0.0131 c 0.0000,-0.0000 1.1370,0.0131 1.6467 0.0131c 0.4705,-0.0000 1.6859,-0.0131 1.6859 -0.0131l 0.0261,0.0131 v 0.2483 c 0.0000,0.0653 -0.0392,0.1046 -0.1046 0.1046h -0.3398 c -0.5358,-0.0000 -0.7188,0.2091 -0.7188 0.5750v 6.5606 c 0.0000,0.4051 0.1960,0.5750 0.7188 0.5750h 0.3398 c 0.0653,-0.0000 0.1176,0.0392 0.1176 0.1046v 0.2483 l -0.0261,0.0261 c 0.0000,-0.0000 -1.1370,-0.0261 -1.6467 -0.0261c -0.4705,-0.0000 -1.6859,0.0261 -1.6859 0.0261l -0.0261,-0.0261 v -0.2483 c 0.0000,-0.0653 0.0392,-0.1046 0.1046 -0.1046h 0.3398 c 0.5358,-0.0000 0.7188,-0.2091 0.7188 -0.5750ZM 129.1782,21.1311 ZM 134.7848,19.6152 c 0.0000,0.6534 0.0653,0.8625 0.3267 0.8625c 0.1568,-0.0000 0.4443,-0.0261 0.6665 -0.0653l 0.0523,0.3659 c -0.7972,0.1438 -1.4376,0.2744 -1.7382 0.5097h -0.2875 l 0.0392,-0.9671 h -0.0392 c -0.7188,0.7841 -1.3069,0.9671 -1.8427 0.9671c -1.2938,-0.0000 -1.6336,-0.8756 -1.6336 -1.7774v -2.9797 c 0.0000,-0.4313 -0.0915,-0.6534 -0.5750 -0.6534c -0.0523,-0.0000 -0.1438,0.0131 -0.2222 0.0131l -0.0392,-0.0131 v -0.3398 l 0.0392,-0.0392 c 0.0000,-0.0000 0.8887,0.0261 1.3069 0.0261c 0.1830,-0.0000 0.4836,-0.0261 0.4836 -0.0261l -0.0131,1.0455 v 2.7837 c 0.0000,1.1631 0.6012,1.3722 0.9932 1.3722c 0.3006,-0.0000 0.5750,-0.1176 0.8495 -0.3137c 0.3137,-0.2352 0.5228,-0.4182 0.6534 -0.5881v -3.2280 c 0.0000,-0.4705 -0.0653,-0.6927 -0.5489 -0.6927c -0.0784,-0.0000 -0.2222,0.0131 -0.2614 0.0131l -0.0261,-0.0261 v -0.3267 l 0.0261,-0.0392 c 0.0000,-0.0000 0.9279,0.0261 1.2938 0.0261c 0.3006,-0.0000 0.5097,-0.0261 0.5097 -0.0261l -0.0131,1.0324 v 3.0843 ZM 135.9349,21.1311 ZM 140.2999,19.9680 v -3.3849 c -0.3137,-0.4966 -0.6665,-0.7711 -1.2808 -0.7711c -0.2614,-0.0000 -0.7972,0.0392 -1.2154 0.6534c -0.1830,0.2744 -0.4051,0.8364 -0.4051 1.7774c 0.0000,1.7120 0.8887,2.4962 1.5944 2.4962c 0.4313,-0.0000 0.7841,-0.2614 1.3069 -0.7711ZM 140.2999,19.9680 ZM 141.2801,12.0090 v 7.5538 c 0.0000,0.3921 0.0261,0.6012 0.0523 0.6927c 0.0392,0.1176 0.1830,0.1960 0.2875 0.1960c 0.1568,-0.0000 0.4443,-0.0000 0.6404 -0.0392l 0.0523,0.3659 c -0.7580,0.1307 -1.4376,0.2744 -1.7120 0.5097h -0.3137 l 0.0392,-0.9018 c -0.4966,0.5097 -1.0063,0.9018 -1.6728 0.9018c -1.4114,-0.0000 -2.2740,-1.2023 -2.2740 -2.8098c 0.0000,-0.9671 0.2614,-1.7774 0.8233 -2.3393c 0.5228,-0.4966 1.0978,-0.7841 1.9603 -0.7841c 0.2614,-0.0000 0.8364,0.1176 1.1370 0.2875v -1.9995 c 0.0000,-0.7449 -0.1176,-0.9540 -0.3790 -0.9540l -0.4313,0.0523 c -0.0261,-0.0000 -0.0653,-0.0261 -0.0653 -0.0653l -0.0261,-0.3267 c 0.2091,-0.0000 0.6796,-0.0784 0.9018 -0.1176c 0.2483,-0.0523 0.4313,-0.1046 0.6927 -0.2222h 0.2875 ZM 145.6582,21.1311 ZM 150.2715,13.2114 h -1.7643 c -0.3137,-0.0000 -0.4705,0.1046 -0.4705 0.4182v 2.7837 h 1.7904 c 0.4574,-0.0000 0.5750,-0.2091 0.6534 -0.5750l 0.0915,-0.3921 c 0.0000,-0.0523 0.0392,-0.1046 0.0915 -0.1046h 0.2875 c 0.0392,-0.0000 0.0523,0.0261 0.0523 0.0523c -0.0523,0.3267 -0.1046,0.8103 -0.1046 1.2415c 0.0000,0.4443 0.0653,1.0324 0.1046 1.2546l -0.0392,0.0392 h -0.3006 c -0.0653,-0.0000 -0.1046,-0.0523 -0.1046 -0.0915l -0.0784,-0.4051 c -0.0653,-0.3790 -0.2091,-0.5750 -0.6534 -0.5750h -1.7904 v 3.3326 c 0.0000,0.3529 0.1830,0.4313 0.4705 0.4313h 2.1694 c 0.9932,-0.0000 1.3722,-0.7711 1.6336 -1.7120l 0.4051,0.0653 c -0.1568,0.6796 -0.2875,1.4245 -0.3529 2.1564h -3.8423 l -1.0063,-0.0131 l -1.6728,0.0261 l -0.0261,-0.0261 v -0.2614 c 0.0000,-0.0392 0.0261,-0.0915 0.1046 -0.0915h 0.3921 c 0.5228,-0.0000 0.6796,-0.2091 0.6796 -0.5750v -6.5475 c 0.0000,-0.4051 -0.1830,-0.5881 -0.6796 -0.5881h -0.3921 c -0.0915,-0.0000 -0.1046,-0.0523 -0.1046 -0.0915v -0.2614 l 0.0261,-0.0131 l 1.6728,0.0131 l 1.0194,-0.0131 h 3.3456 c 0.0523,0.6927 0.1699,1.4899 0.2744 2.0257l -0.3790,0.0653 c -0.2875,-0.9018 -0.5228,-1.5683 -1.5029 -1.5683ZM 153.0944,21.1311 ZM 155.6690,15.8774 c -0.2614,-0.0000 -0.3137,0.0653 -0.3137 0.1568c 0.0000,0.0653 0.0523,0.1830 0.1960 0.4182l 0.7972,1.1762 c 0.0392,0.0784 0.0784,0.1176 0.1307 0.1176c 0.0392,-0.0000 0.0653,-0.0261 0.1176 -0.0915l 0.8495,-1.1893 c 0.1438,-0.1830 0.2222,-0.3267 0.2222 -0.4313c 0.0000,-0.1046 -0.0915,-0.1568 -0.2744 -0.1568h -0.2091 c -0.0392,-0.0000 -0.0784,-0.0261 -0.0784 -0.0915v -0.2483 l 0.0392,-0.0392 c 0.0000,-0.0000 0.6142,0.0261 1.0194 0.0261c 0.4182,-0.0000 1.0586,-0.0261 1.0586 -0.0261l 0.0131,0.0261 v 0.2483 c 0.0000,0.0915 -0.0784,0.1046 -0.1568 0.1046c -0.4836,-0.0000 -0.6796,0.1568 -1.1631 0.7711l -1.0978,1.3984 c -0.0261,0.0392 -0.0392,0.0653 -0.0392 0.0915c 0.0000,0.0261 0.0131,0.0653 0.0392 0.1046l 1.1762,1.6598 c 0.6012,0.8495 0.7711,0.8625 1.1893 0.8625c 0.1307,-0.0000 0.1830,0.0261 0.1830 0.1046v 0.2483 l -0.0131,0.0261 c 0.0000,-0.0000 -0.7057,-0.0261 -1.1501 -0.0261c -0.5358,-0.0000 -1.3592,0.0261 -1.3592 0.0261l -0.0261,-0.0261 v -0.2483 c 0.0000,-0.0653 0.0261,-0.1046 0.0915 -0.1046h 0.1568 c 0.2091,-0.0000 0.3006,-0.0392 0.3006 -0.1438c 0.0000,-0.1176 -0.1438,-0.3137 -0.3529 -0.5881l -0.7580,-1.0455 c -0.0523,-0.0653 -0.0784,-0.0915 -0.1176 -0.0915c -0.0261,-0.0000 -0.0653,0.0392 -0.1176 0.1176l -0.8233,1.1893 c -0.1960,0.2614 -0.2352,0.3267 -0.2352 0.4182c 0.0000,0.0915 0.0784,0.1438 0.2744 0.1438h 0.1830 c 0.0653,-0.0000 0.0915,0.0392 0.0915 0.1046v 0.2483 l -0.0261,0.0261 c 0.0000,-0.0000 -0.6796,-0.0261 -1.0978 -0.0261c -0.3790,-0.0000 -0.9802,0.0261 -0.9802 0.0261l -0.0261,-0.0261 v -0.2222 c 0.0000,-0.0784 0.0523,-0.1307 0.1699 -0.1307c 0.3137,-0.0000 0.6142,-0.0653 1.1631 -0.7711l 1.0978,-1.4114 c 0.0131,-0.0261 0.0261,-0.0523 0.0261 -0.0915c 0.0000,-0.0392 -0.0131,-0.0653 -0.0392 -0.1046l -1.1370,-1.6598 c -0.3659,-0.5358 -0.6012,-0.8495 -1.0586 -0.8495c -0.0915,-0.0000 -0.1830,-0.0392 -0.1830 -0.0915v -0.2483 l 0.0261,-0.0392 l 1.0324,0.0261 l 1.4507,-0.0261 l 0.0392,0.0392 v 0.2352 c 0.0000,0.0653 -0.0523,0.1046 -0.1046 0.1046h -0.1960 ZM 159.5896,21.1311 ZM 163.3927,17.9293 l -1.0324,0.2614 c -1.1501,0.3529 -1.3200,0.9540 -1.3200 1.5421c 0.0000,0.4051 0.1960,1.0194 1.0194 1.0194c 0.3921,-0.0000 0.9932,-0.3790 1.3330 -0.6665v -2.1564 ZM 163.3927,17.9293 ZM 164.2291,21.2880 c -0.4966,-0.0000 -0.7711,-0.4443 -0.8233 -0.7580l -0.3006,0.2091 c -0.6012,0.4182 -0.8233,0.5489 -1.4245 0.5489c -0.9148,-0.0000 -1.5813,-0.5228 -1.5813 -1.5029c 0.0000,-0.9932 0.8495,-1.6728 2.0910 -1.9865l 1.2023,-0.3006 c 0.0000,-1.4768 -0.6796,-1.7512 -1.1239 -1.7512c -0.4966,-0.0000 -1.0717,0.2222 -1.0717 0.6273c 0.0000,0.1438 0.0261,0.2222 0.0392 0.2614c 0.0261,0.0523 0.0392,0.1438 0.0392 0.2352c 0.0000,0.1699 -0.1307,0.4313 -0.5097 0.4313c -0.3137,-0.0000 -0.5228,-0.2091 -0.5228 -0.5228c 0.0000,-0.7580 1.2285,-1.4245 2.0649 -1.4245c 0.9540,-0.0000 2.0518,0.3921 2.0518 2.2479v 1.9211 c 0.0000,0.7972 0.0131,1.1370 0.3137 1.1370c 0.2875,-0.0000 0.3659,-0.3659 0.3790 -0.6534l 0.3267,0.0653 c -0.0784,0.9540 -0.4836,1.2154 -1.1501 1.2154ZM 165.4837,21.1311 ZM 173.3643,20.1902 v -3.0059 c 0.0000,-0.8756 -0.3398,-1.2023 -0.8364 -1.2023c -0.5097,-0.0000 -0.9148,0.2614 -1.5421 0.9540c 0.0261,0.1568 0.0261,0.3398 0.0261 0.5228v 2.7314 c 0.0000,0.3790 0.1307,0.5750 0.5620 0.5750h 0.2222 c 0.0653,-0.0000 0.1176,0.0392 0.1176 0.1046v 0.2483 l -0.0261,0.0261 c 0.0000,-0.0000 -0.8756,-0.0261 -1.3853 -0.0261c -0.4705,-0.0000 -1.3722,0.0261 -1.3722 0.0261l -0.0261,-0.0261 v -0.2483 c 0.0000,-0.0653 0.0392,-0.1046 0.1046 -0.1046h 0.2614 c 0.4443,-0.0000 0.5620,-0.1960 0.5620 -0.5750v -2.9797 c 0.0000,-0.8756 -0.3529,-1.2285 -0.8495 -1.2285c -0.4574,-0.0000 -0.8887,0.3267 -1.5029 0.9671v 3.2411 c 0.0000,0.3790 0.1307,0.5750 0.5620 0.5750h 0.2483 c 0.0523,-0.0000 0.1046,0.0392 0.1046 0.1046v 0.2483 l -0.0261,0.0261 c 0.0000,-0.0000 -0.8887,-0.0261 -1.3984 -0.0261c -0.4705,-0.0000 -1.3592,0.0261 -1.3592 0.0261l -0.0261,-0.0261 v -0.2483 c 0.0000,-0.0653 0.0392,-0.1046 0.1046 -0.1046h 0.2483 c 0.4443,-0.0000 0.5620,-0.1960 0.5620 -0.5750v -3.2542 c 0.0000,-0.7449 -0.1176,-0.7972 -0.2875 -0.7972c -0.1699,-0.0000 -0.3267,0.0131 -0.5489 0.0653l -0.0653,-0.3659 c 0.8233,-0.1438 1.0063,-0.1960 1.3592 -0.3790c 0.1307,-0.0653 0.2352,-0.1046 0.3267 -0.1046h 0.1960 l -0.0392,1.1370 h 0.0392 c 0.6142,-0.6534 1.1631,-1.1370 1.9734 -1.1370c 0.7319,-0.0000 1.1893,0.5358 1.2677 1.1239c 0.7580,-0.7841 1.3722,-1.1239 2.0780 -1.1239c 1.1501,-0.0000 1.3461,0.9540 1.3461 2.1172v 2.7183 c 0.0000,0.3790 0.1307,0.5750 0.5620 0.5750h 0.2483 c 0.0523,-0.0000 0.1046,0.0392 0.1046 0.1046v 0.2483 l -0.0261,0.0261 c 0.0000,-0.0000 -0.8887,-0.0261 -1.3984 -0.0261c -0.4705,-0.0000 -1.3592,0.0261 -1.3592 0.0261l -0.0261,-0.0261 v -0.2483 c 0.0000,-0.0653 0.0392,-0.1046 0.1046 -0.1046h 0.2483 c 0.4313,-0.0000 0.5620,-0.1960 0.5620 -0.5750ZM 175.4161,21.1311 ZM 177.3634,17.0275 v 3.2542 c 0.4574,0.5358 0.8887,0.5620 1.0978 0.5620c 1.3984,-0.0000 1.7120,-1.3069 1.7120 -2.4308c 0.0000,-1.5813 -0.6404,-2.4570 -1.4376 -2.4570c -0.4443,-0.0000 -1.0847,0.3790 -1.3722 1.0717ZM 177.3634,17.0275 ZM 176.3963,23.1960 v -6.4691 c 0.0000,-0.4966 -0.1176,-0.5881 -0.3006 -0.5881c -0.1699,-0.0000 -0.3267,0.0131 -0.5489 0.0653l -0.0653,-0.3659 c 0.8364,-0.1438 0.9932,-0.1960 1.3592 -0.3790c 0.1438,-0.0653 0.2352,-0.1046 0.3267 -0.1046h 0.1960 l -0.0392,1.0455 h 0.0392 c 0.6012,-0.9148 1.3069,-1.0455 1.7251 -1.0455c 1.2677,-0.0000 2.1041,1.3200 2.1041 2.7053c 0.0000,1.0586 -0.3267,1.8689 -0.9148 2.4700c -0.5097,0.5097 -1.0455,0.7580 -1.7382 0.7580c -0.4705,-0.0000 -0.8364,-0.1046 -1.1762 -0.2875v 2.1956 c 0.0000,0.3790 0.1438,0.5750 0.5620 0.5750h 0.2483 c 0.0653,-0.0000 0.1176,0.0392 0.1176 0.1046v 0.2483 l -0.0261,0.0261 c 0.0000,-0.0000 -0.9018,-0.0261 -1.4114 -0.0261c -0.4574,-0.0000 -1.3461,0.0261 -1.3461 0.0261l -0.0261,-0.0261 v -0.2483 c 0.0000,-0.0653 0.0392,-0.1046 0.1046 -0.1046h 0.2483 c 0.4313,-0.0000 0.5620,-0.1960 0.5620 -0.5750ZM 181.6761,21.1311 ZM 182.9177,20.1902 v -6.5475 c 0.0000,-0.7449 -0.1307,-0.9540 -0.3921 -0.9540l -0.4182,0.0523 c -0.0392,-0.0000 -0.0784,-0.0261 -0.0784 -0.0653l -0.0261,-0.3267 c 0.2091,-0.0000 0.6927,-0.0784 0.9148 -0.1176c 0.2352,-0.0523 0.4182,-0.1046 0.6796 -0.2222h 0.2875 v 8.1811 c 0.0000,0.3790 0.1438,0.5750 0.5620 0.5750h 0.3137 c 0.0523,-0.0000 0.1046,0.0392 0.1046 0.1046v 0.2483 l -0.0261,0.0261 c 0.0000,-0.0000 -0.9540,-0.0261 -1.4637 -0.0261c -0.4574,-0.0000 -1.4114,0.0261 -1.4114 0.0261l -0.0131,-0.0261 v -0.2483 c 0.0000,-0.0653 0.0261,-0.1046 0.0915 -0.1046h 0.3137 c 0.4313,-0.0000 0.5620,-0.1960 0.5620 -0.5750ZM 185.0740,21.1311 ZM 186.5639,17.5111 h 2.4047 c 0.1307,-0.0000 0.1830,-0.0653 0.1830 -0.1830c 0.0000,-1.2154 -0.6142,-1.5291 -1.0847 -1.5291c -0.3006,-0.0000 -1.2808,0.1176 -1.5029 1.7120ZM 186.5639,17.5111 ZM 190.0141,19.9157 l 0.2614,0.2091 c -0.4966,0.6796 -1.2677,1.1631 -2.2086 1.1631c -1.7904,-0.0000 -2.5484,-1.3330 -2.5484 -2.7575c 0.0000,-1.9865 1.3069,-3.1757 2.5484 -3.1757c 1.7251,-0.0000 2.1302,1.3461 2.1302 2.4439c 0.0000,0.1438 -0.0915,0.2222 -0.2352 0.2222h -3.4371 c -0.0131,0.0784 -0.0131,0.1568 -0.0131 0.2614c 0.0000,1.3330 0.9279,2.3655 1.8689 2.3655c 0.7188,-0.0000 1.1762,-0.2352 1.6336 -0.7319Z"/></g><g stroke-linejoin="miter" stroke-opacity="1.0" fill-opacity="0.63" stroke="rgb(0,0,0)" fill-rule="evenodd" stroke-width="0.0" fill="rgb(0,0,0)" stroke-linecap="butt" stroke-miterlimit="10.0"><path d="M 263.6298,165.4425 ZM 264.3541,164.8936 v -3.8194 c 0.0000,-0.4345 -0.0762,-0.5565 -0.2287 -0.5565l -0.2440,0.0305 c -0.0229,-0.0000 -0.0457,-0.0152 -0.0457 -0.0381l -0.0152,-0.1906 c 0.1220,-0.0000 0.4040,-0.0457 0.5336 -0.0686c 0.1372,-0.0305 0.2440,-0.0610 0.3964 -0.1296h 0.1677 v 4.7723 c 0.0000,0.2211 0.0839,0.3354 0.3278 0.3354h 0.1830 c 0.0305,-0.0000 0.0610,0.0229 0.0610 0.0610v 0.1448 l -0.0152,0.0152 c 0.0000,-0.0000 -0.5565,-0.0152 -0.8538 -0.0152c -0.2668,-0.0000 -0.8233,0.0152 -0.8233 0.0152l -0.0076,-0.0152 v -0.1448 c 0.0000,-0.0381 0.0152,-0.0610 0.0534 -0.0610h 0.1830 c 0.2516,-0.0000 0.3278,-0.1144 0.3278 -0.3354ZM 265.6120,165.4425 ZM 266.2066,161.0894 c 0.0000,-0.1982 0.1601,-0.3659 0.3583 -0.3659c 0.2058,-0.0000 0.3659,0.1677 0.3659 0.3659c 0.0000,0.2058 -0.1601,0.3659 -0.3659 0.3659c -0.1982,-0.0000 -0.3583,-0.1601 -0.3583 -0.3659ZM 266.2066,161.0894 ZM 266.9308,164.8936 c 0.0000,0.2211 0.0839,0.3354 0.3278 0.3354h 0.1448 c 0.0381,-0.0000 0.0686,0.0229 0.0686 0.0610v 0.1448 l -0.0152,0.0152 c 0.0000,-0.0000 -0.5260,-0.0152 -0.8233 -0.0152c -0.2668,-0.0000 -0.7852,0.0152 -0.7852 0.0152l -0.0152,-0.0152 v -0.1448 c 0.0000,-0.0381 0.0229,-0.0610 0.0610 -0.0610h 0.1448 c 0.2516,-0.0000 0.3278,-0.1144 0.3278 -0.3354v -1.8983 c 0.0000,-0.4040 -0.0686,-0.4650 -0.1753 -0.4650c -0.0991,-0.0000 -0.1906,0.0076 -0.3202 0.0381l -0.0381,-0.2135 c 0.4879,-0.0839 0.5718,-0.1144 0.7928 -0.2211c 0.0839,-0.0305 0.1372,-0.0610 0.1906 -0.0610h 0.1144 v 2.8207 ZM 267.6246,165.4425 ZM 270.3995,164.8936 v -1.6696 c 0.0000,-0.5336 -0.0915,-0.7852 -0.4955 -0.7852c -0.3354,-0.0000 -0.6251,0.1296 -1.0139 0.5870v 1.8678 c 0.0000,0.2211 0.0762,0.3354 0.3278 0.3354h 0.1067 c 0.0381,-0.0000 0.0610,0.0229 0.0610 0.0610v 0.1448 l -0.0152,0.0152 c 0.0000,-0.0000 -0.4803,-0.0152 -0.7776 -0.0152c -0.2744,-0.0000 -0.7928,0.0152 -0.7928 0.0152l -0.0152,-0.0152 v -0.1448 c 0.0000,-0.0381 0.0229,-0.0610 0.0610 -0.0610h 0.1448 c 0.2592,-0.0000 0.3278,-0.1144 0.3278 -0.3354v -1.8983 c 0.0000,-0.4117 -0.0610,-0.4650 -0.1677 -0.4650c -0.0991,-0.0000 -0.1906,0.0076 -0.3202 0.0381l -0.0381,-0.2135 c 0.3202,-0.0534 0.5489,-0.0915 0.7852 -0.2211c 0.0839,-0.0381 0.1448,-0.0610 0.1982 -0.0610h 0.1144 l -0.0229,0.6785 h 0.0229 c 0.4879,-0.5718 0.8538,-0.6785 1.2426 -0.6785c 0.6861,-0.0000 0.8310,0.5260 0.8310 1.2045v 1.6162 c 0.0000,0.2211 0.0839,0.3354 0.3278 0.3354h 0.1448 c 0.0381,-0.0000 0.0686,0.0229 0.0686 0.0610v 0.1448 l -0.0152,0.0152 c 0.0000,-0.0000 -0.5260,-0.0152 -0.8233 -0.0152c -0.2668,-0.0000 -0.7471,0.0152 -0.7471 0.0152l -0.0152,-0.0152 v -0.1448 c 0.0000,-0.0381 0.0229,-0.0610 0.0610 -0.0610h 0.1067 c 0.2516,-0.0000 0.3278,-0.1144 0.3278 -0.3354ZM 271.5888,165.4425 ZM 272.4579,163.3308 h 1.4027 c 0.0762,-0.0000 0.1067,-0.0381 0.1067 -0.1067c 0.0000,-0.7090 -0.3583,-0.8920 -0.6328 -0.8920c -0.1753,-0.0000 -0.7471,0.0686 -0.8767 0.9987ZM 272.4579,163.3308 ZM 274.4705,164.7335 l 0.1525,0.1220 c -0.2897,0.3964 -0.7395,0.6785 -1.2884 0.6785c -1.0444,-0.0000 -1.4866,-0.7776 -1.4866 -1.6086c 0.0000,-1.1588 0.7624,-1.8525 1.4866 -1.8525c 1.0063,-0.0000 1.2426,0.7852 1.2426 1.4256c 0.0000,0.0839 -0.0534,0.1296 -0.1372 0.1296h -2.0050 c -0.0076,0.0457 -0.0076,0.0915 -0.0076 0.1525c 0.0000,0.7776 0.5413,1.3799 1.0902 1.3799c 0.4193,-0.0000 0.6861,-0.1372 0.9529 -0.4269ZM 274.8517,165.4425 ZM 276.4984,161.2724 c -0.1906,-0.0000 -0.7471,0.1067 -0.7471 0.5718c 0.0000,0.1372 -0.0534,0.3736 -0.2592 0.3736c -0.1982,-0.0000 -0.2135,-0.2211 -0.2135 -0.2440c 0.0000,-0.2363 0.3126,-0.9377 1.3722 -0.9377c 0.7395,-0.0000 0.9606,0.4650 0.9606 0.7700c 0.0000,0.1906 -0.0610,0.5718 -0.7471 1.0063c 0.4269,0.0686 0.9911,0.3812 0.9911 1.1740c 0.0000,1.0063 -0.7624,1.5476 -1.6238 1.5476c -0.4345,-0.0000 -1.0444,-0.1906 -1.0444 -0.4803c 0.0000,-0.1144 0.1144,-0.2440 0.2668 -0.2440c 0.1448,-0.0000 0.2135,0.0762 0.2821 0.1753c 0.0839,0.1296 0.2211,0.3126 0.5870 0.3126c 0.2516,-0.0000 0.9682,-0.2516 0.9682 -1.2121c 0.0000,-0.8157 -0.5718,-0.9453 -0.9834 -0.9453c -0.0686,-0.0000 -0.1525,0.0152 -0.2363 0.0305l -0.0305,-0.2287 c 0.5870,-0.0991 1.0749,-0.6709 1.0749 -1.0216c 0.0000,-0.4345 -0.3049,-0.6480 -0.6175 -0.6480Z"/></g><g stroke-linejoin="miter" stroke-opacity="0.6" fill-opacity="0.0" stroke="rgb(44,160,44)" stroke-width="1.1957258645286974" fill="rgb(0,0,0)" stroke-linecap="butt" stroke-miterlimit="10.0"><path d="M 254.4359,165.4425 h 6.5671 "/></g><g stroke-linejoin="miter" stroke-opacity="1.0" fill-opacity="0.63" stroke="rgb(0,0,0)" fill-rule="evenodd" stroke-width="0.0" fill="rgb(0,0,0)" stroke-linecap="butt" stroke-miterlimit="10.0"><path d="M 263.6298,152.3082 ZM 264.3541,151.7593 v -3.8194 c 0.0000,-0.4345 -0.0762,-0.5565 -0.2287 -0.5565l -0.2440,0.0305 c -0.0229,-0.0000 -0.0457,-0.0152 -0.0457 -0.0381l -0.0152,-0.1906 c 0.1220,-0.0000 0.4040,-0.0457 0.5336 -0.0686c 0.1372,-0.0305 0.2440,-0.0610 0.3964 -0.1296h 0.1677 v 4.7723 c 0.0000,0.2211 0.0839,0.3354 0.3278 0.3354h 0.1830 c 0.0305,-0.0000 0.0610,0.0229 0.0610 0.0610v 0.1448 l -0.0152,0.0152 c 0.0000,-0.0000 -0.5565,-0.0152 -0.8538 -0.0152c -0.2668,-0.0000 -0.8233,0.0152 -0.8233 0.0152l -0.0076,-0.0152 v -0.1448 c 0.0000,-0.0381 0.0152,-0.0610 0.0534 -0.0610h 0.1830 c 0.2516,-0.0000 0.3278,-0.1144 0.3278 -0.3354ZM 265.6120,152.3082 ZM 266.2066,147.9552 c 0.0000,-0.1982 0.1601,-0.3659 0.3583 -0.3659c 0.2058,-0.0000 0.3659,0.1677 0.3659 0.3659c 0.0000,0.2058 -0.1601,0.3659 -0.3659 0.3659c -0.1982,-0.0000 -0.3583,-0.1601 -0.3583 -0.3659ZM 266.2066,147.9552 ZM 266.9308,151.7593 c 0.0000,0.2211 0.0839,0.3354 0.3278 0.3354h 0.1448 c 0.0381,-0.0000 0.0686,0.0229 0.0686 0.0610v 0.1448 l -0.0152,0.0152 c 0.0000,-0.0000 -0.5260,-0.0152 -0.8233 -0.0152c -0.2668,-0.0000 -0.7852,0.0152 -0.7852 0.0152l -0.0152,-0.0152 v -0.1448 c 0.0000,-0.0381 0.0229,-0.0610 0.0610 -0.0610h 0.1448 c 0.2516,-0.0000 0.3278,-0.1144 0.3278 -0.3354v -1.8983 c 0.0000,-0.4040 -0.0686,-0.4650 -0.1753 -0.4650c -0.0991,-0.0000 -0.1906,0.0076 -0.3202 0.0381l -0.0381,-0.2135 c 0.4879,-0.0839 0.5718,-0.1144 0.7928 -0.2211c 0.0839,-0.0305 0.1372,-0.0610 0.1906 -0.0610h 0.1144 v 2.8207 ZM 267.6246,152.3082 ZM 270.3995,151.7593 v -1.6696 c 0.0000,-0.5336 -0.0915,-0.7852 -0.4955 -0.7852c -0.3354,-0.0000 -0.6251,0.1296 -1.0139 0.5870v 1.8678 c 0.0000,0.2211 0.0762,0.3354 0.3278 0.3354h 0.1067 c 0.0381,-0.0000 0.0610,0.0229 0.0610 0.0610v 0.1448 l -0.0152,0.0152 c 0.0000,-0.0000 -0.4803,-0.0152 -0.7776 -0.0152c -0.2744,-0.0000 -0.7928,0.0152 -0.7928 0.0152l -0.0152,-0.0152 v -0.1448 c 0.0000,-0.0381 0.0229,-0.0610 0.0610 -0.0610h 0.1448 c 0.2592,-0.0000 0.3278,-0.1144 0.3278 -0.3354v -1.8983 c 0.0000,-0.4117 -0.0610,-0.4650 -0.1677 -0.4650c -0.0991,-0.0000 -0.1906,0.0076 -0.3202 0.0381l -0.0381,-0.2135 c 0.3202,-0.0534 0.5489,-0.0915 0.7852 -0.2211c 0.0839,-0.0381 0.1448,-0.0610 0.1982 -0.0610h 0.1144 l -0.0229,0.6785 h 0.0229 c 0.4879,-0.5718 0.8538,-0.6785 1.2426 -0.6785c 0.6861,-0.0000 0.8310,0.5260 0.8310 1.2045v 1.6162 c 0.0000,0.2211 0.0839,0.3354 0.3278 0.3354h 0.1448 c 0.0381,-0.0000 0.0686,0.0229 0.0686 0.0610v 0.1448 l -0.0152,0.0152 c 0.0000,-0.0000 -0.5260,-0.0152 -0.8233 -0.0152c -0.2668,-0.0000 -0.7471,0.0152 -0.7471 0.0152l -0.0152,-0.0152 v -0.1448 c 0.0000,-0.0381 0.0229,-0.0610 0.0610 -0.0610h 0.1067 c 0.2516,-0.0000 0.3278,-0.1144 0.3278 -0.3354ZM 271.5888,152.3082 ZM 272.4579,150.1965 h 1.4027 c 0.0762,-0.0000 0.1067,-0.0381 0.1067 -0.1067c 0.0000,-0.7090 -0.3583,-0.8920 -0.6328 -0.8920c -0.1753,-0.0000 -0.7471,0.0686 -0.8767 0.9987ZM 272.4579,150.1965 ZM 274.4705,151.5992 l 0.1525,0.1220 c -0.2897,0.3964 -0.7395,0.6785 -1.2884 0.6785c -1.0444,-0.0000 -1.4866,-0.7776 -1.4866 -1.6086c 0.0000,-1.1588 0.7624,-1.8525 1.4866 -1.8525c 1.0063,-0.0000 1.2426,0.7852 1.2426 1.4256c 0.0000,0.0839 -0.0534,0.1296 -0.1372 0.1296h -2.0050 c -0.0076,0.0457 -0.0076,0.0915 -0.0076 0.1525c 0.0000,0.7776 0.5413,1.3799 1.0902 1.3799c 0.4193,-0.0000 0.6861,-0.1372 0.9529 -0.4269ZM 274.8517,152.3082 ZM 275.2939,148.9310 c 0.0000,-0.4345 0.4193,-1.0292 1.2198 -1.0292c 0.5870,-0.0000 1.2731,0.2211 1.2731 1.0978c 0.0000,0.5794 -0.2973,0.8691 -0.7090 1.2655l -0.7242,0.7014 c -0.0381,0.0381 -0.5489,0.5413 -0.5489 0.8996h 1.2960 c 0.2592,-0.0000 0.3964,-0.1296 0.5032 -0.5489l 0.1906,0.0305 l -0.1525,0.9606 h -2.3557 c 0.0000,-0.4269 0.0686,-0.7547 0.7776 -1.4790l 0.5336,-0.5260 c 0.4269,-0.4345 0.6023,-0.8081 0.6023 -1.2731c 0.0000,-0.6937 -0.4727,-0.8920 -0.7319 -0.8920c -0.5260,-0.0000 -0.6709,0.2744 -0.6709 0.4574c 0.0000,0.0610 0.0152,0.1220 0.0305 0.1753c 0.0152,0.0534 0.0305,0.1067 0.0305 0.1677c 0.0000,0.1982 -0.1525,0.2744 -0.2744 0.2744c -0.1677,-0.0000 -0.2897,-0.1296 -0.2897 -0.2821Z"/></g><g stroke-linejoin="miter" stroke-opacity="0.6" fill-opacity="0.0" stroke="rgb(255,127,14)" stroke-width="4.78290345811479" fill="rgb(0,0,0)" stroke-linecap="butt" stroke-miterlimit="10.0"><path d="M 254.4359,152.3082 h 6.5671 "/></g><g stroke-linejoin="miter" stroke-opacity="1.0" fill-opacity="0.63" stroke="rgb(0,0,0)" fill-rule="evenodd" stroke-width="0.0" fill="rgb(0,0,0)" stroke-linecap="butt" stroke-miterlimit="10.0"><path d="M 263.6298,139.1739 ZM 264.3541,138.6251 v -3.8194 c 0.0000,-0.4345 -0.0762,-0.5565 -0.2287 -0.5565l -0.2440,0.0305 c -0.0229,-0.0000 -0.0457,-0.0152 -0.0457 -0.0381l -0.0152,-0.1906 c 0.1220,-0.0000 0.4040,-0.0457 0.5336 -0.0686c 0.1372,-0.0305 0.2440,-0.0610 0.3964 -0.1296h 0.1677 v 4.7723 c 0.0000,0.2211 0.0839,0.3354 0.3278 0.3354h 0.1830 c 0.0305,-0.0000 0.0610,0.0229 0.0610 0.0610v 0.1448 l -0.0152,0.0152 c 0.0000,-0.0000 -0.5565,-0.0152 -0.8538 -0.0152c -0.2668,-0.0000 -0.8233,0.0152 -0.8233 0.0152l -0.0076,-0.0152 v -0.1448 c 0.0000,-0.0381 0.0152,-0.0610 0.0534 -0.0610h 0.1830 c 0.2516,-0.0000 0.3278,-0.1144 0.3278 -0.3354ZM 265.6120,139.1739 ZM 266.2066,134.8209 c 0.0000,-0.1982 0.1601,-0.3659 0.3583 -0.3659c 0.2058,-0.0000 0.3659,0.1677 0.3659 0.3659c 0.0000,0.2058 -0.1601,0.3659 -0.3659 0.3659c -0.1982,-0.0000 -0.3583,-0.1601 -0.3583 -0.3659ZM 266.2066,134.8209 ZM 266.9308,138.6251 c 0.0000,0.2211 0.0839,0.3354 0.3278 0.3354h 0.1448 c 0.0381,-0.0000 0.0686,0.0229 0.0686 0.0610v 0.1448 l -0.0152,0.0152 c 0.0000,-0.0000 -0.5260,-0.0152 -0.8233 -0.0152c -0.2668,-0.0000 -0.7852,0.0152 -0.7852 0.0152l -0.0152,-0.0152 v -0.1448 c 0.0000,-0.0381 0.0229,-0.0610 0.0610 -0.0610h 0.1448 c 0.2516,-0.0000 0.3278,-0.1144 0.3278 -0.3354v -1.8983 c 0.0000,-0.4040 -0.0686,-0.4650 -0.1753 -0.4650c -0.0991,-0.0000 -0.1906,0.0076 -0.3202 0.0381l -0.0381,-0.2135 c 0.4879,-0.0839 0.5718,-0.1144 0.7928 -0.2211c 0.0839,-0.0305 0.1372,-0.0610 0.1906 -0.0610h 0.1144 v 2.8207 ZM 267.6246,139.1739 ZM 270.3995,138.6251 v -1.6696 c 0.0000,-0.5336 -0.0915,-0.7852 -0.4955 -0.7852c -0.3354,-0.0000 -0.6251,0.1296 -1.0139 0.5870v 1.8678 c 0.0000,0.2211 0.0762,0.3354 0.3278 0.3354h 0.1067 c 0.0381,-0.0000 0.0610,0.0229 0.0610 0.0610v 0.1448 l -0.0152,0.0152 c 0.0000,-0.0000 -0.4803,-0.0152 -0.7776 -0.0152c -0.2744,-0.0000 -0.7928,0.0152 -0.7928 0.0152l -0.0152,-0.0152 v -0.1448 c 0.0000,-0.0381 0.0229,-0.0610 0.0610 -0.0610h 0.1448 c 0.2592,-0.0000 0.3278,-0.1144 0.3278 -0.3354v -1.8983 c 0.0000,-0.4117 -0.0610,-0.4650 -0.1677 -0.4650c -0.0991,-0.0000 -0.1906,0.0076 -0.3202 0.0381l -0.0381,-0.2135 c 0.3202,-0.0534 0.5489,-0.0915 0.7852 -0.2211c 0.0839,-0.0381 0.1448,-0.0610 0.1982 -0.0610h 0.1144 l -0.0229,0.6785 h 0.0229 c 0.4879,-0.5718 0.8538,-0.6785 1.2426 -0.6785c 0.6861,-0.0000 0.8310,0.5260 0.8310 1.2045v 1.6162 c 0.0000,0.2211 0.0839,0.3354 0.3278 0.3354h 0.1448 c 0.0381,-0.0000 0.0686,0.0229 0.0686 0.0610v 0.1448 l -0.0152,0.0152 c 0.0000,-0.0000 -0.5260,-0.0152 -0.8233 -0.0152c -0.2668,-0.0000 -0.7471,0.0152 -0.7471 0.0152l -0.0152,-0.0152 v -0.1448 c 0.0000,-0.0381 0.0229,-0.0610 0.0610 -0.0610h 0.1067 c 0.2516,-0.0000 0.3278,-0.1144 0.3278 -0.3354ZM 271.5888,139.1739 ZM 272.4579,137.0622 h 1.4027 c 0.0762,-0.0000 0.1067,-0.0381 0.1067 -0.1067c 0.0000,-0.7090 -0.3583,-0.8920 -0.6328 -0.8920c -0.1753,-0.0000 -0.7471,0.0686 -0.8767 0.9987ZM 272.4579,137.0622 ZM 274.4705,138.4650 l 0.1525,0.1220 c -0.2897,0.3964 -0.7395,0.6785 -1.2884 0.6785c -1.0444,-0.0000 -1.4866,-0.7776 -1.4866 -1.6086c 0.0000,-1.1588 0.7624,-1.8525 1.4866 -1.8525c 1.0063,-0.0000 1.2426,0.7852 1.2426 1.4256c 0.0000,0.0839 -0.0534,0.1296 -0.1372 0.1296h -2.0050 c -0.0076,0.0457 -0.0076,0.0915 -0.0076 0.1525c 0.0000,0.7776 0.5413,1.3799 1.0902 1.3799c 0.4193,-0.0000 0.6861,-0.1372 0.9529 -0.4269ZM 274.8517,139.1739 ZM 276.2849,135.5375 c -0.1448,-0.0000 -0.4803,0.1372 -0.6480 0.2135l -0.0915,-0.2363 c 0.6709,-0.3126 0.9301,-0.4727 1.3112 -0.7471h 0.1448 v 3.8346 c 0.0000,0.2744 0.0381,0.3507 0.2897 0.3507h 0.3964 c 0.0229,-0.0000 0.0610,0.0152 0.0610 0.0610v 0.1677 l -1.0444,-0.0152 l -1.0597,0.0152 v -0.1677 c 0.0076,-0.0229 0.0152,-0.0610 0.0610 -0.0610h 0.4574 c 0.2897,-0.0000 0.2897,-0.1296 0.2897 -0.3507v -2.6225 c 0.0000,-0.2592 0.0000,-0.4422 -0.1677 -0.4422Z"/></g><g stroke-linejoin="miter" stroke-opacity="0.6" fill-opacity="0.0" stroke="rgb(31,119,180)" stroke-width="2.391451729057395" fill="rgb(0,0,0)" stroke-linecap="butt" stroke-miterlimit="10.0"><path d="M 254.4359,139.1739 h 6.5671 "/></g><g stroke-linejoin="miter" stroke-opacity="0.2" fill-opacity="0.0" stroke="rgb(0,0,0)" stroke-width="0.478290345811479" fill="rgb(0,0,0)" stroke-linecap="butt" stroke-miterlimit="10.0"><path d="M 279.3786,169.5942 l -0.0000,-39.0088 h -26.1304 l -0.0000,39.0088 Z"/></g><g stroke-linejoin="miter" stroke-opacity="0.0" fill-opacity="0.1" stroke="rgb(0,0,0)" stroke-width="0.0" fill="rgb(0,0,0)" stroke-linecap="butt" stroke-miterlimit="10.0"><path d="M 34.8729,169.5942 l -0.0000,-131.3427 h -2.6269 l -0.0000,131.3427 Z"/></g><g stroke-linejoin="miter" stroke-opacity="1.0" fill-opacity="0.6" stroke="rgb(0,0,0)" fill-rule="evenodd" stroke-width="0.0" fill="rgb(0,0,0)" stroke-linecap="butt" stroke-miterlimit="10.0"><path d="M 19.4221,38.2514 ZM 22.1143,36.7790 c 0.0000,-0.8974 -0.4879,-1.3417 -1.0281 -1.3417c -0.4008,-0.0000 -0.7057,0.0610 -1.0455 0.2004l 0.2788,-2.3785 c 0.2875,0.0261 0.5837,0.0349 0.8887 0.0349c 0.4356,-0.0000 0.8887,-0.0261 1.3592 -0.0784l 0.0523,0.0261 l -0.1307,0.5663 c -0.3398,0.0349 -0.6186,0.0436 -0.8625 0.0436c -0.3921,-0.0000 -0.6883,-0.0349 -0.9932 -0.0697l -0.1655,1.3766 c 0.1830,-0.0697 0.4966,-0.1307 0.8364 -0.1307c 0.9235,-0.0000 1.4376,0.8016 1.4376 1.6031c 0.0000,0.9758 -0.6796,1.7251 -1.6641 1.7251c -0.4966,-0.0000 -1.2198,-0.2788 -1.2198 -0.6186c 0.0000,-0.1655 0.1394,-0.2788 0.2962 -0.2788c 0.1743,-0.0000 0.2875,0.1307 0.3921 0.2701c 0.1307,0.1568 0.2701,0.3311 0.5489 0.3311c 0.5576,-0.0000 1.0194,-0.5228 1.0194 -1.2808ZM 23.2383,38.2514 ZM 23.7349,37.8942 c 0.0000,-0.2527 0.2091,-0.4618 0.4618 -0.4618c 0.2527,-0.0000 0.4618,0.2091 0.4618 0.4618c 0.0000,0.2527 -0.2091,0.4618 -0.4618 0.4618c -0.2527,-0.0000 -0.4618,-0.2091 -0.4618 -0.4618ZM 25.1463,38.2514 ZM 27.0544,33.5205 c -0.3746,-0.0000 -0.9235,0.3659 -0.9235 2.3960c 0.0000,0.7144 0.1307,2.1520 0.8974 2.1520c 0.1481,-0.0000 0.5663,-0.0958 0.7493 -0.7754c 0.1133,-0.4182 0.1743,-0.9410 0.1743 -1.6990c 0.0000,-1.1065 -0.2788,-1.7251 -0.5315 -1.9429c -0.0958,-0.0871 -0.2265,-0.1307 -0.3659 -0.1307ZM 27.0544,33.5205 ZM 27.0195,38.3560 c -0.9323,-0.0000 -1.5596,-1.1936 -1.5596 -2.5267c 0.0000,-1.6293 0.7754,-2.6138 1.5944 -2.6138c 0.3746,-0.0000 0.7493,0.2352 1.0020 0.5750c 0.3659,0.4879 0.5576,1.1414 0.5576 1.9603c 0.0000,1.9342 -0.9584,2.6051 -1.5944 2.6051Z"/></g><g stroke-linejoin="miter" stroke-opacity="0.6" fill-opacity="0.0" stroke="rgb(0,0,0)" stroke-width="1.1957258645286974" fill="rgb(0,0,0)" stroke-linecap="butt" stroke-miterlimit="10.0"><path d="M 30.9326,38.2514 h 3.9403 "/></g><g stroke-linejoin="miter" stroke-opacity="1.0" fill-opacity="0.6" stroke="rgb(0,0,0)" fill-rule="evenodd" stroke-width="0.0" fill="rgb(0,0,0)" stroke-linecap="butt" stroke-miterlimit="10.0"><path d="M 19.4221,51.3857 ZM 21.6700,48.2927 c 0.0000,-0.0610 0.0087,-0.1307 0.0871 -0.1743c 0.0958,-0.0697 0.2527,-0.1481 0.3834 -0.1481c 0.1133,-0.0000 0.1220,0.0958 0.1220 0.2701v 1.4027 h 0.7057 l -0.0523,0.4095 h -0.6534 v 0.7231 c 0.0000,0.2440 0.0349,0.3659 0.2875 0.3659h 0.2352 c 0.0523,-0.0000 0.0610,0.0436 0.0610 0.0610v 0.1917 c 0.0000,-0.0000 -0.5576,-0.0174 -0.9235 -0.0174c -0.3311,-0.0000 -0.8451,0.0174 -0.8451 0.0174v -0.1917 c 0.0000,-0.0174 0.0087,-0.0610 0.0610 -0.0610h 0.2352 c 0.2701,-0.0000 0.2962,-0.1133 0.2962 -0.3659v -0.7231 h -1.7077 c -0.0349,-0.0000 -0.0523,-0.0174 -0.0784 -0.0523l -0.0697,-0.0958 l -0.1046,-0.1830 c -0.0087,-0.0000 -0.0087,-0.0087 -0.0087 -0.0174c 0.0000,-0.0087 0.0087,-0.0174 0.0174 -0.0261c 0.5663,-0.6273 1.5683,-2.5702 1.8819 -3.2847c 0.0087,-0.0349 0.0261,-0.0436 0.0610 -0.0436c 0.0087,-0.0000 0.2004,0.0784 0.3049 0.0958c -0.3921,1.0542 -1.0368,2.1869 -1.6728 3.1975h 1.3766 v -1.3505 ZM 23.2383,51.3857 ZM 23.7349,51.0285 c 0.0000,-0.2527 0.2091,-0.4618 0.4618 -0.4618c 0.2527,-0.0000 0.4618,0.2091 0.4618 0.4618c 0.0000,0.2527 -0.2091,0.4618 -0.4618 0.4618c -0.2527,-0.0000 -0.4618,-0.2091 -0.4618 -0.4618ZM 25.1463,51.3857 ZM 27.8385,49.9133 c 0.0000,-0.8974 -0.4879,-1.3417 -1.0281 -1.3417c -0.4008,-0.0000 -0.7057,0.0610 -1.0455 0.2004l 0.2788,-2.3785 c 0.2875,0.0261 0.5837,0.0349 0.8887 0.0349c 0.4356,-0.0000 0.8887,-0.0261 1.3592 -0.0784l 0.0523,0.0261 l -0.1307,0.5663 c -0.3398,0.0349 -0.6186,0.0436 -0.8625 0.0436c -0.3921,-0.0000 -0.6883,-0.0349 -0.9932 -0.0697l -0.1655,1.3766 c 0.1830,-0.0697 0.4966,-0.1307 0.8364 -0.1307c 0.9235,-0.0000 1.4376,0.8016 1.4376 1.6031c 0.0000,0.9758 -0.6796,1.7251 -1.6641 1.7251c -0.4966,-0.0000 -1.2198,-0.2788 -1.2198 -0.6186c 0.0000,-0.1655 0.1394,-0.2788 0.2962 -0.2788c 0.1743,-0.0000 0.2875,0.1307 0.3921 0.2701c 0.1307,0.1568 0.2701,0.3311 0.5489 0.3311c 0.5576,-0.0000 1.0194,-0.5228 1.0194 -1.2808Z"/></g><g stroke-linejoin="miter" stroke-opacity="0.6" fill-opacity="0.0" stroke="rgb(0,0,0)" stroke-width="1.1957258645286974" fill="rgb(0,0,0)" stroke-linecap="butt" stroke-miterlimit="10.0"><path d="M 30.9326,51.3857 h 3.9403 "/></g><g stroke-linejoin="miter" stroke-opacity="1.0" fill-opacity="0.6" stroke="rgb(0,0,0)" fill-rule="evenodd" stroke-width="0.0" fill="rgb(0,0,0)" stroke-linecap="butt" stroke-miterlimit="10.0"><path d="M 19.4221,64.5200 ZM 21.6700,61.4270 c 0.0000,-0.0610 0.0087,-0.1307 0.0871 -0.1743c 0.0958,-0.0697 0.2527,-0.1481 0.3834 -0.1481c 0.1133,-0.0000 0.1220,0.0958 0.1220 0.2701v 1.4027 h 0.7057 l -0.0523,0.4095 h -0.6534 v 0.7231 c 0.0000,0.2440 0.0349,0.3659 0.2875 0.3659h 0.2352 c 0.0523,-0.0000 0.0610,0.0436 0.0610 0.0610v 0.1917 c 0.0000,-0.0000 -0.5576,-0.0174 -0.9235 -0.0174c -0.3311,-0.0000 -0.8451,0.0174 -0.8451 0.0174v -0.1917 c 0.0000,-0.0174 0.0087,-0.0610 0.0610 -0.0610h 0.2352 c 0.2701,-0.0000 0.2962,-0.1133 0.2962 -0.3659v -0.7231 h -1.7077 c -0.0349,-0.0000 -0.0523,-0.0174 -0.0784 -0.0523l -0.0697,-0.0958 l -0.1046,-0.1830 c -0.0087,-0.0000 -0.0087,-0.0087 -0.0087 -0.0174c 0.0000,-0.0087 0.0087,-0.0174 0.0174 -0.0261c 0.5663,-0.6273 1.5683,-2.5702 1.8819 -3.2847c 0.0087,-0.0349 0.0261,-0.0436 0.0610 -0.0436c 0.0087,-0.0000 0.2004,0.0784 0.3049 0.0958c -0.3921,1.0542 -1.0368,2.1869 -1.6728 3.1975h 1.3766 v -1.3505 ZM 23.2383,64.5200 ZM 23.7349,64.1628 c 0.0000,-0.2527 0.2091,-0.4618 0.4618 -0.4618c 0.2527,-0.0000 0.4618,0.2091 0.4618 0.4618c 0.0000,0.2527 -0.2091,0.4618 -0.4618 0.4618c -0.2527,-0.0000 -0.4618,-0.2091 -0.4618 -0.4618ZM 25.1463,64.5200 ZM 27.0544,59.7890 c -0.3746,-0.0000 -0.9235,0.3659 -0.9235 2.3960c 0.0000,0.7144 0.1307,2.1520 0.8974 2.1520c 0.1481,-0.0000 0.5663,-0.0958 0.7493 -0.7754c 0.1133,-0.4182 0.1743,-0.9410 0.1743 -1.6990c 0.0000,-1.1065 -0.2788,-1.7251 -0.5315 -1.9429c -0.0958,-0.0871 -0.2265,-0.1307 -0.3659 -0.1307ZM 27.0544,59.7890 ZM 27.0195,64.6245 c -0.9323,-0.0000 -1.5596,-1.1936 -1.5596 -2.5267c 0.0000,-1.6293 0.7754,-2.6138 1.5944 -2.6138c 0.3746,-0.0000 0.7493,0.2352 1.0020 0.5750c 0.3659,0.4879 0.5576,1.1414 0.5576 1.9603c 0.0000,1.9342 -0.9584,2.6051 -1.5944 2.6051Z"/></g><g stroke-linejoin="miter" stroke-opacity="0.6" fill-opacity="0.0" stroke="rgb(0,0,0)" stroke-width="1.1957258645286974" fill="rgb(0,0,0)" stroke-linecap="butt" stroke-miterlimit="10.0"><path d="M 30.9326,64.5200 h 3.9403 "/></g><g stroke-linejoin="miter" stroke-opacity="1.0" fill-opacity="0.6" stroke="rgb(0,0,0)" fill-rule="evenodd" stroke-width="0.0" fill="rgb(0,0,0)" stroke-linecap="butt" stroke-miterlimit="10.0"><path d="M 19.4221,77.6543 ZM 21.3041,72.8885 c -0.2178,-0.0000 -0.8538,0.1220 -0.8538 0.6534c 0.0000,0.1568 -0.0610,0.4269 -0.2962 0.4269c -0.2265,-0.0000 -0.2440,-0.2527 -0.2440 -0.2788c 0.0000,-0.2701 0.3572,-1.0717 1.5683 -1.0717c 0.8451,-0.0000 1.0978,0.5315 1.0978 0.8800c 0.0000,0.2178 -0.0697,0.6534 -0.8538 1.1501c 0.4879,0.0784 1.1326,0.4356 1.1326 1.3417c 0.0000,1.1501 -0.8713,1.7687 -1.8558 1.7687c -0.4966,-0.0000 -1.1936,-0.2178 -1.1936 -0.5489c 0.0000,-0.1307 0.1307,-0.2788 0.3049 -0.2788c 0.1655,-0.0000 0.2440,0.0871 0.3224 0.2004c 0.0958,0.1481 0.2527,0.3572 0.6709 0.3572c 0.2875,-0.0000 1.1065,-0.2875 1.1065 -1.3853c 0.0000,-0.9323 -0.6534,-1.0804 -1.1239 -1.0804c -0.0784,-0.0000 -0.1743,0.0174 -0.2701 0.0349l -0.0349,-0.2614 c 0.6709,-0.1133 1.2285,-0.7667 1.2285 -1.1675c 0.0000,-0.4966 -0.3485,-0.7406 -0.7057 -0.7406ZM 23.2383,77.6543 ZM 23.7349,77.2970 c 0.0000,-0.2527 0.2091,-0.4618 0.4618 -0.4618c 0.2527,-0.0000 0.4618,0.2091 0.4618 0.4618c 0.0000,0.2527 -0.2091,0.4618 -0.4618 0.4618c -0.2527,-0.0000 -0.4618,-0.2091 -0.4618 -0.4618ZM 25.1463,77.6543 ZM 27.8385,76.1818 c 0.0000,-0.8974 -0.4879,-1.3417 -1.0281 -1.3417c -0.4008,-0.0000 -0.7057,0.0610 -1.0455 0.2004l 0.2788,-2.3785 c 0.2875,0.0261 0.5837,0.0349 0.8887 0.0349c 0.4356,-0.0000 0.8887,-0.0261 1.3592 -0.0784l 0.0523,0.0261 l -0.1307,0.5663 c -0.3398,0.0349 -0.6186,0.0436 -0.8625 0.0436c -0.3921,-0.0000 -0.6883,-0.0349 -0.9932 -0.0697l -0.1655,1.3766 c 0.1830,-0.0697 0.4966,-0.1307 0.8364 -0.1307c 0.9235,-0.0000 1.4376,0.8016 1.4376 1.6031c 0.0000,0.9758 -0.6796,1.7251 -1.6641 1.7251c -0.4966,-0.0000 -1.2198,-0.2788 -1.2198 -0.6186c 0.0000,-0.1655 0.1394,-0.2788 0.2962 -0.2788c 0.1743,-0.0000 0.2875,0.1307 0.3921 0.2701c 0.1307,0.1568 0.2701,0.3311 0.5489 0.3311c 0.5576,-0.0000 1.0194,-0.5228 1.0194 -1.2808Z"/></g><g stroke-linejoin="miter" stroke-opacity="0.6" fill-opacity="0.0" stroke="rgb(0,0,0)" stroke-width="1.1957258645286974" fill="rgb(0,0,0)" stroke-linecap="butt" stroke-miterlimit="10.0"><path d="M 30.9326,77.6543 h 3.9403 "/></g><g stroke-linejoin="miter" stroke-opacity="1.0" fill-opacity="0.6" stroke="rgb(0,0,0)" fill-rule="evenodd" stroke-width="0.0" fill="rgb(0,0,0)" stroke-linecap="butt" stroke-miterlimit="10.0"><path d="M 19.4221,90.7885 ZM 21.3041,86.0227 c -0.2178,-0.0000 -0.8538,0.1220 -0.8538 0.6534c 0.0000,0.1568 -0.0610,0.4269 -0.2962 0.4269c -0.2265,-0.0000 -0.2440,-0.2527 -0.2440 -0.2788c 0.0000,-0.2701 0.3572,-1.0717 1.5683 -1.0717c 0.8451,-0.0000 1.0978,0.5315 1.0978 0.8800c 0.0000,0.2178 -0.0697,0.6534 -0.8538 1.1501c 0.4879,0.0784 1.1326,0.4356 1.1326 1.3417c 0.0000,1.1501 -0.8713,1.7687 -1.8558 1.7687c -0.4966,-0.0000 -1.1936,-0.2178 -1.1936 -0.5489c 0.0000,-0.1307 0.1307,-0.2788 0.3049 -0.2788c 0.1655,-0.0000 0.2440,0.0871 0.3224 0.2004c 0.0958,0.1481 0.2527,0.3572 0.6709 0.3572c 0.2875,-0.0000 1.1065,-0.2875 1.1065 -1.3853c 0.0000,-0.9323 -0.6534,-1.0804 -1.1239 -1.0804c -0.0784,-0.0000 -0.1743,0.0174 -0.2701 0.0349l -0.0349,-0.2614 c 0.6709,-0.1133 1.2285,-0.7667 1.2285 -1.1675c 0.0000,-0.4966 -0.3485,-0.7406 -0.7057 -0.7406ZM 23.2383,90.7885 ZM 23.7349,90.4313 c 0.0000,-0.2527 0.2091,-0.4618 0.4618 -0.4618c 0.2527,-0.0000 0.4618,0.2091 0.4618 0.4618c 0.0000,0.2527 -0.2091,0.4618 -0.4618 0.4618c -0.2527,-0.0000 -0.4618,-0.2091 -0.4618 -0.4618ZM 25.1463,90.7885 ZM 27.0544,86.0576 c -0.3746,-0.0000 -0.9235,0.3659 -0.9235 2.3960c 0.0000,0.7144 0.1307,2.1520 0.8974 2.1520c 0.1481,-0.0000 0.5663,-0.0958 0.7493 -0.7754c 0.1133,-0.4182 0.1743,-0.9410 0.1743 -1.6990c 0.0000,-1.1065 -0.2788,-1.7251 -0.5315 -1.9429c -0.0958,-0.0871 -0.2265,-0.1307 -0.3659 -0.1307ZM 27.0544,86.0576 ZM 27.0195,90.8931 c -0.9323,-0.0000 -1.5596,-1.1936 -1.5596 -2.5267c 0.0000,-1.6293 0.7754,-2.6138 1.5944 -2.6138c 0.3746,-0.0000 0.7493,0.2352 1.0020 0.5750c 0.3659,0.4879 0.5576,1.1414 0.5576 1.9603c 0.0000,1.9342 -0.9584,2.6051 -1.5944 2.6051Z"/></g><g stroke-linejoin="miter" stroke-opacity="0.6" fill-opacity="0.0" stroke="rgb(0,0,0)" stroke-width="1.1957258645286974" fill="rgb(0,0,0)" stroke-linecap="butt" stroke-miterlimit="10.0"><path d="M 30.9326,90.7885 h 3.9403 "/></g><g stroke-linejoin="miter" stroke-opacity="1.0" fill-opacity="0.6" stroke="rgb(0,0,0)" fill-rule="evenodd" stroke-width="0.0" fill="rgb(0,0,0)" stroke-linecap="butt" stroke-miterlimit="10.0"><path d="M 19.4221,103.9228 ZM 19.9275,100.0631 c 0.0000,-0.4966 0.4792,-1.1762 1.3940 -1.1762c 0.6709,-0.0000 1.4550,0.2527 1.4550 1.2546c 0.0000,0.6622 -0.3398,0.9932 -0.8103 1.4463l -0.8277,0.8016 c -0.0436,0.0436 -0.6273,0.6186 -0.6273 1.0281h 1.4811 c 0.2962,-0.0000 0.4531,-0.1481 0.5750 -0.6273l 0.2178,0.0349 l -0.1743,1.0978 h -2.6922 c 0.0000,-0.4879 0.0784,-0.8625 0.8887 -1.6902l 0.6099,-0.6012 c 0.4879,-0.4966 0.6883,-0.9235 0.6883 -1.4550c 0.0000,-0.7928 -0.5402,-1.0194 -0.8364 -1.0194c -0.6012,-0.0000 -0.7667,0.3137 -0.7667 0.5228c 0.0000,0.0697 0.0174,0.1394 0.0349 0.2004c 0.0174,0.0610 0.0349,0.1220 0.0349 0.1917c 0.0000,0.2265 -0.1743,0.3137 -0.3137 0.3137c -0.1917,-0.0000 -0.3311,-0.1481 -0.3311 -0.3224ZM 23.2383,103.9228 ZM 23.7349,103.5656 c 0.0000,-0.2527 0.2091,-0.4618 0.4618 -0.4618c 0.2527,-0.0000 0.4618,0.2091 0.4618 0.4618c 0.0000,0.2527 -0.2091,0.4618 -0.4618 0.4618c -0.2527,-0.0000 -0.4618,-0.2091 -0.4618 -0.4618ZM 25.1463,103.9228 ZM 27.8385,102.4504 c 0.0000,-0.8974 -0.4879,-1.3417 -1.0281 -1.3417c -0.4008,-0.0000 -0.7057,0.0610 -1.0455 0.2004l 0.2788,-2.3785 c 0.2875,0.0261 0.5837,0.0349 0.8887 0.0349c 0.4356,-0.0000 0.8887,-0.0261 1.3592 -0.0784l 0.0523,0.0261 l -0.1307,0.5663 c -0.3398,0.0349 -0.6186,0.0436 -0.8625 0.0436c -0.3921,-0.0000 -0.6883,-0.0349 -0.9932 -0.0697l -0.1655,1.3766 c 0.1830,-0.0697 0.4966,-0.1307 0.8364 -0.1307c 0.9235,-0.0000 1.4376,0.8016 1.4376 1.6031c 0.0000,0.9758 -0.6796,1.7251 -1.6641 1.7251c -0.4966,-0.0000 -1.2198,-0.2788 -1.2198 -0.6186c 0.0000,-0.1655 0.1394,-0.2788 0.2962 -0.2788c 0.1743,-0.0000 0.2875,0.1307 0.3921 0.2701c 0.1307,0.1568 0.2701,0.3311 0.5489 0.3311c 0.5576,-0.0000 1.0194,-0.5228 1.0194 -1.2808Z"/></g><g stroke-linejoin="miter" stroke-opacity="0.6" fill-opacity="0.0" stroke="rgb(0,0,0)" stroke-width="1.1957258645286974" fill="rgb(0,0,0)" stroke-linecap="butt" stroke-miterlimit="10.0"><path d="M 30.9326,103.9228 h 3.9403 "/></g><g stroke-linejoin="miter" stroke-opacity="1.0" fill-opacity="0.6" stroke="rgb(0,0,0)" fill-rule="evenodd" stroke-width="0.0" fill="rgb(0,0,0)" stroke-linecap="butt" stroke-miterlimit="10.0"><path d="M 19.4221,117.0571 ZM 19.9275,113.1974 c 0.0000,-0.4966 0.4792,-1.1762 1.3940 -1.1762c 0.6709,-0.0000 1.4550,0.2527 1.4550 1.2546c 0.0000,0.6622 -0.3398,0.9932 -0.8103 1.4463l -0.8277,0.8016 c -0.0436,0.0436 -0.6273,0.6186 -0.6273 1.0281h 1.4811 c 0.2962,-0.0000 0.4531,-0.1481 0.5750 -0.6273l 0.2178,0.0349 l -0.1743,1.0978 h -2.6922 c 0.0000,-0.4879 0.0784,-0.8625 0.8887 -1.6902l 0.6099,-0.6012 c 0.4879,-0.4966 0.6883,-0.9235 0.6883 -1.4550c 0.0000,-0.7928 -0.5402,-1.0194 -0.8364 -1.0194c -0.6012,-0.0000 -0.7667,0.3137 -0.7667 0.5228c 0.0000,0.0697 0.0174,0.1394 0.0349 0.2004c 0.0174,0.0610 0.0349,0.1220 0.0349 0.1917c 0.0000,0.2265 -0.1743,0.3137 -0.3137 0.3137c -0.1917,-0.0000 -0.3311,-0.1481 -0.3311 -0.3224ZM 23.2383,117.0571 ZM 23.7349,116.6999 c 0.0000,-0.2527 0.2091,-0.4618 0.4618 -0.4618c 0.2527,-0.0000 0.4618,0.2091 0.4618 0.4618c 0.0000,0.2527 -0.2091,0.4618 -0.4618 0.4618c -0.2527,-0.0000 -0.4618,-0.2091 -0.4618 -0.4618ZM 25.1463,117.0571 ZM 27.0544,112.3261 c -0.3746,-0.0000 -0.9235,0.3659 -0.9235 2.3960c 0.0000,0.7144 0.1307,2.1520 0.8974 2.1520c 0.1481,-0.0000 0.5663,-0.0958 0.7493 -0.7754c 0.1133,-0.4182 0.1743,-0.9410 0.1743 -1.6990c 0.0000,-1.1065 -0.2788,-1.7251 -0.5315 -1.9429c -0.0958,-0.0871 -0.2265,-0.1307 -0.3659 -0.1307ZM 27.0544,112.3261 ZM 27.0195,117.1616 c -0.9323,-0.0000 -1.5596,-1.1936 -1.5596 -2.5267c 0.0000,-1.6293 0.7754,-2.6138 1.5944 -2.6138c 0.3746,-0.0000 0.7493,0.2352 1.0020 0.5750c 0.3659,0.4879 0.5576,1.1414 0.5576 1.9603c 0.0000,1.9342 -0.9584,2.6051 -1.5944 2.6051Z"/></g><g stroke-linejoin="miter" stroke-opacity="0.6" fill-opacity="0.0" stroke="rgb(0,0,0)" stroke-width="1.1957258645286974" fill="rgb(0,0,0)" stroke-linecap="butt" stroke-miterlimit="10.0"><path d="M 30.9326,117.0571 h 3.9403 "/></g><g stroke-linejoin="miter" stroke-opacity="1.0" fill-opacity="0.6" stroke="rgb(0,0,0)" fill-rule="evenodd" stroke-width="0.0" fill="rgb(0,0,0)" stroke-linecap="butt" stroke-miterlimit="10.0"><path d="M 19.4221,130.1913 ZM 21.0601,126.0354 c -0.1655,-0.0000 -0.5489,0.1568 -0.7406 0.2440l -0.1046,-0.2701 c 0.7667,-0.3572 1.0629,-0.5402 1.4986 -0.8538h 0.1655 v 4.3824 c 0.0000,0.3137 0.0436,0.4008 0.3311 0.4008h 0.4531 c 0.0261,-0.0000 0.0697,0.0174 0.0697 0.0697v 0.1917 l -1.1936,-0.0174 l -1.2111,0.0174 v -0.1917 c 0.0087,-0.0261 0.0174,-0.0697 0.0697 -0.0697h 0.5228 c 0.3311,-0.0000 0.3311,-0.1481 0.3311 -0.4008v -2.9971 c 0.0000,-0.2962 0.0000,-0.5053 -0.1917 -0.5053ZM 23.2383,130.1913 ZM 23.7349,129.8341 c 0.0000,-0.2527 0.2091,-0.4618 0.4618 -0.4618c 0.2527,-0.0000 0.4618,0.2091 0.4618 0.4618c 0.0000,0.2527 -0.2091,0.4618 -0.4618 0.4618c -0.2527,-0.0000 -0.4618,-0.2091 -0.4618 -0.4618ZM 25.1463,130.1913 ZM 27.8385,128.7189 c 0.0000,-0.8974 -0.4879,-1.3417 -1.0281 -1.3417c -0.4008,-0.0000 -0.7057,0.0610 -1.0455 0.2004l 0.2788,-2.3785 c 0.2875,0.0261 0.5837,0.0349 0.8887 0.0349c 0.4356,-0.0000 0.8887,-0.0261 1.3592 -0.0784l 0.0523,0.0261 l -0.1307,0.5663 c -0.3398,0.0349 -0.6186,0.0436 -0.8625 0.0436c -0.3921,-0.0000 -0.6883,-0.0349 -0.9932 -0.0697l -0.1655,1.3766 c 0.1830,-0.0697 0.4966,-0.1307 0.8364 -0.1307c 0.9235,-0.0000 1.4376,0.8016 1.4376 1.6031c 0.0000,0.9758 -0.6796,1.7251 -1.6641 1.7251c -0.4966,-0.0000 -1.2198,-0.2788 -1.2198 -0.6186c 0.0000,-0.1655 0.1394,-0.2788 0.2962 -0.2788c 0.1743,-0.0000 0.2875,0.1307 0.3921 0.2701c 0.1307,0.1568 0.2701,0.3311 0.5489 0.3311c 0.5576,-0.0000 1.0194,-0.5228 1.0194 -1.2808Z"/></g><g stroke-linejoin="miter" stroke-opacity="0.6" fill-opacity="0.0" stroke="rgb(0,0,0)" stroke-width="1.1957258645286974" fill="rgb(0,0,0)" stroke-linecap="butt" stroke-miterlimit="10.0"><path d="M 30.9326,130.1913 h 3.9403 "/></g><g stroke-linejoin="miter" stroke-opacity="1.0" fill-opacity="0.6" stroke="rgb(0,0,0)" fill-rule="evenodd" stroke-width="0.0" fill="rgb(0,0,0)" stroke-linecap="butt" stroke-miterlimit="10.0"><path d="M 19.4221,143.3256 ZM 21.0601,139.1697 c -0.1655,-0.0000 -0.5489,0.1568 -0.7406 0.2440l -0.1046,-0.2701 c 0.7667,-0.3572 1.0629,-0.5402 1.4986 -0.8538h 0.1655 v 4.3824 c 0.0000,0.3137 0.0436,0.4008 0.3311 0.4008h 0.4531 c 0.0261,-0.0000 0.0697,0.0174 0.0697 0.0697v 0.1917 l -1.1936,-0.0174 l -1.2111,0.0174 v -0.1917 c 0.0087,-0.0261 0.0174,-0.0697 0.0697 -0.0697h 0.5228 c 0.3311,-0.0000 0.3311,-0.1481 0.3311 -0.4008v -2.9971 c 0.0000,-0.2962 0.0000,-0.5053 -0.1917 -0.5053ZM 23.2383,143.3256 ZM 23.7349,142.9684 c 0.0000,-0.2527 0.2091,-0.4618 0.4618 -0.4618c 0.2527,-0.0000 0.4618,0.2091 0.4618 0.4618c 0.0000,0.2527 -0.2091,0.4618 -0.4618 0.4618c -0.2527,-0.0000 -0.4618,-0.2091 -0.4618 -0.4618ZM 25.1463,143.3256 ZM 27.0544,138.5947 c -0.3746,-0.0000 -0.9235,0.3659 -0.9235 2.3960c 0.0000,0.7144 0.1307,2.1520 0.8974 2.1520c 0.1481,-0.0000 0.5663,-0.0958 0.7493 -0.7754c 0.1133,-0.4182 0.1743,-0.9410 0.1743 -1.6990c 0.0000,-1.1065 -0.2788,-1.7251 -0.5315 -1.9429c -0.0958,-0.0871 -0.2265,-0.1307 -0.3659 -0.1307ZM 27.0544,138.5947 ZM 27.0195,143.4302 c -0.9323,-0.0000 -1.5596,-1.1936 -1.5596 -2.5267c 0.0000,-1.6293 0.7754,-2.6138 1.5944 -2.6138c 0.3746,-0.0000 0.7493,0.2352 1.0020 0.5750c 0.3659,0.4879 0.5576,1.1414 0.5576 1.9603c 0.0000,1.9342 -0.9584,2.6051 -1.5944 2.6051Z"/></g><g stroke-linejoin="miter" stroke-opacity="0.6" fill-opacity="0.0" stroke="rgb(0,0,0)" stroke-width="1.1957258645286974" fill="rgb(0,0,0)" stroke-linecap="butt" stroke-miterlimit="10.0"><path d="M 30.9326,143.3256 h 3.9403 "/></g><g stroke-linejoin="miter" stroke-opacity="1.0" fill-opacity="0.6" stroke="rgb(0,0,0)" fill-rule="evenodd" stroke-width="0.0" fill="rgb(0,0,0)" stroke-linecap="butt" stroke-miterlimit="10.0"><path d="M 19.4221,156.4599 ZM 21.3302,151.7289 c -0.3746,-0.0000 -0.9235,0.3659 -0.9235 2.3960c 0.0000,0.7144 0.1307,2.1520 0.8974 2.1520c 0.1481,-0.0000 0.5663,-0.0958 0.7493 -0.7754c 0.1133,-0.4182 0.1743,-0.9410 0.1743 -1.6990c 0.0000,-1.1065 -0.2788,-1.7251 -0.5315 -1.9429c -0.0958,-0.0871 -0.2265,-0.1307 -0.3659 -0.1307ZM 21.3302,151.7289 ZM 21.2953,156.5644 c -0.9323,-0.0000 -1.5596,-1.1936 -1.5596 -2.5267c 0.0000,-1.6293 0.7754,-2.6138 1.5944 -2.6138c 0.3746,-0.0000 0.7493,0.2352 1.0020 0.5750c 0.3659,0.4879 0.5576,1.1414 0.5576 1.9603c 0.0000,1.9342 -0.9584,2.6051 -1.5944 2.6051ZM 23.2383,156.4599 ZM 23.7349,156.1027 c 0.0000,-0.2527 0.2091,-0.4618 0.4618 -0.4618c 0.2527,-0.0000 0.4618,0.2091 0.4618 0.4618c 0.0000,0.2527 -0.2091,0.4618 -0.4618 0.4618c -0.2527,-0.0000 -0.4618,-0.2091 -0.4618 -0.4618ZM 25.1463,156.4599 ZM 27.8385,154.9875 c 0.0000,-0.8974 -0.4879,-1.3417 -1.0281 -1.3417c -0.4008,-0.0000 -0.7057,0.0610 -1.0455 0.2004l 0.2788,-2.3785 c 0.2875,0.0261 0.5837,0.0349 0.8887 0.0349c 0.4356,-0.0000 0.8887,-0.0261 1.3592 -0.0784l 0.0523,0.0261 l -0.1307,0.5663 c -0.3398,0.0349 -0.6186,0.0436 -0.8625 0.0436c -0.3921,-0.0000 -0.6883,-0.0349 -0.9932 -0.0697l -0.1655,1.3766 c 0.1830,-0.0697 0.4966,-0.1307 0.8364 -0.1307c 0.9235,-0.0000 1.4376,0.8016 1.4376 1.6031c 0.0000,0.9758 -0.6796,1.7251 -1.6641 1.7251c -0.4966,-0.0000 -1.2198,-0.2788 -1.2198 -0.6186c 0.0000,-0.1655 0.1394,-0.2788 0.2962 -0.2788c 0.1743,-0.0000 0.2875,0.1307 0.3921 0.2701c 0.1307,0.1568 0.2701,0.3311 0.5489 0.3311c 0.5576,-0.0000 1.0194,-0.5228 1.0194 -1.2808Z"/></g><g stroke-linejoin="miter" stroke-opacity="0.6" fill-opacity="0.0" stroke="rgb(0,0,0)" stroke-width="1.1957258645286974" fill="rgb(0,0,0)" stroke-linecap="butt" stroke-miterlimit="10.0"><path d="M 30.9326,156.4599 h 3.9403 "/></g><g stroke-linejoin="miter" stroke-opacity="1.0" fill-opacity="0.6" stroke="rgb(0,0,0)" fill-rule="evenodd" stroke-width="0.0" fill="rgb(0,0,0)" stroke-linecap="butt" stroke-miterlimit="10.0"><path d="M 19.4221,169.5942 ZM 21.3302,164.8632 c -0.3746,-0.0000 -0.9235,0.3659 -0.9235 2.3960c 0.0000,0.7144 0.1307,2.1520 0.8974 2.1520c 0.1481,-0.0000 0.5663,-0.0958 0.7493 -0.7754c 0.1133,-0.4182 0.1743,-0.9410 0.1743 -1.6990c 0.0000,-1.1065 -0.2788,-1.7251 -0.5315 -1.9429c -0.0958,-0.0871 -0.2265,-0.1307 -0.3659 -0.1307ZM 21.3302,164.8632 ZM 21.2953,169.6987 c -0.9323,-0.0000 -1.5596,-1.1936 -1.5596 -2.5267c 0.0000,-1.6293 0.7754,-2.6138 1.5944 -2.6138c 0.3746,-0.0000 0.7493,0.2352 1.0020 0.5750c 0.3659,0.4879 0.5576,1.1414 0.5576 1.9603c 0.0000,1.9342 -0.9584,2.6051 -1.5944 2.6051ZM 23.2383,169.5942 ZM 23.7349,169.2369 c 0.0000,-0.2527 0.2091,-0.4618 0.4618 -0.4618c 0.2527,-0.0000 0.4618,0.2091 0.4618 0.4618c 0.0000,0.2527 -0.2091,0.4618 -0.4618 0.4618c -0.2527,-0.0000 -0.4618,-0.2091 -0.4618 -0.4618ZM 25.1463,169.5942 ZM 27.0544,164.8632 c -0.3746,-0.0000 -0.9235,0.3659 -0.9235 2.3960c 0.0000,0.7144 0.1307,2.1520 0.8974 2.1520c 0.1481,-0.0000 0.5663,-0.0958 0.7493 -0.7754c 0.1133,-0.4182 0.1743,-0.9410 0.1743 -1.6990c 0.0000,-1.1065 -0.2788,-1.7251 -0.5315 -1.9429c -0.0958,-0.0871 -0.2265,-0.1307 -0.3659 -0.1307ZM 27.0544,164.8632 ZM 27.0195,169.6987 c -0.9323,-0.0000 -1.5596,-1.1936 -1.5596 -2.5267c 0.0000,-1.6293 0.7754,-2.6138 1.5944 -2.6138c 0.3746,-0.0000 0.7493,0.2352 1.0020 0.5750c 0.3659,0.4879 0.5576,1.1414 0.5576 1.9603c 0.0000,1.9342 -0.9584,2.6051 -1.5944 2.6051Z"/></g><g stroke-linejoin="miter" stroke-opacity="0.6" fill-opacity="0.0" stroke="rgb(0,0,0)" stroke-width="1.1957258645286974" fill="rgb(0,0,0)" stroke-linecap="butt" stroke-miterlimit="10.0"><path d="M 30.9326,169.5942 h 3.9403 "/></g><g stroke-linejoin="miter" stroke-opacity="0.0" fill-opacity="0.1" stroke="rgb(0,0,0)" stroke-width="0.0" fill="rgb(0,0,0)" stroke-linecap="butt" stroke-miterlimit="10.0"><path d="M 241.9108,177.4747 l -0.0000,-2.6269 h -197.0141 l -0.0000,2.6269 Z"/></g><g stroke-linejoin="miter" stroke-opacity="1.0" fill-opacity="0.6" stroke="rgb(0,0,0)" fill-rule="evenodd" stroke-width="0.0" fill="rgb(0,0,0)" stroke-linecap="butt" stroke-miterlimit="10.0"><path d="M 237.1407,188.5474 ZM 239.0226,183.7816 c -0.2178,-0.0000 -0.8538,0.1220 -0.8538 0.6534c 0.0000,0.1568 -0.0610,0.4269 -0.2962 0.4269c -0.2265,-0.0000 -0.2440,-0.2527 -0.2440 -0.2788c 0.0000,-0.2701 0.3572,-1.0717 1.5683 -1.0717c 0.8451,-0.0000 1.0978,0.5315 1.0978 0.8800c 0.0000,0.2178 -0.0697,0.6534 -0.8538 1.1501c 0.4879,0.0784 1.1326,0.4356 1.1326 1.3417c 0.0000,1.1501 -0.8713,1.7687 -1.8558 1.7687c -0.4966,-0.0000 -1.1936,-0.2178 -1.1936 -0.5489c 0.0000,-0.1307 0.1307,-0.2788 0.3049 -0.2788c 0.1655,-0.0000 0.2440,0.0871 0.3224 0.2004c 0.0958,0.1481 0.2527,0.3572 0.6709 0.3572c 0.2875,-0.0000 1.1065,-0.2875 1.1065 -1.3853c 0.0000,-0.9323 -0.6534,-1.0804 -1.1239 -1.0804c -0.0784,-0.0000 -0.1743,0.0174 -0.2701 0.0349l -0.0349,-0.2614 c 0.6709,-0.1133 1.2285,-0.7667 1.2285 -1.1675c 0.0000,-0.4966 -0.3485,-0.7406 -0.7057 -0.7406ZM 240.9568,188.5474 ZM 241.4534,188.1902 c 0.0000,-0.2527 0.2091,-0.4618 0.4618 -0.4618c 0.2527,-0.0000 0.4618,0.2091 0.4618 0.4618c 0.0000,0.2527 -0.2091,0.4618 -0.4618 0.4618c -0.2527,-0.0000 -0.4618,-0.2091 -0.4618 -0.4618ZM 242.8648,188.5474 ZM 244.7729,183.8164 c -0.3746,-0.0000 -0.9235,0.3659 -0.9235 2.3960c 0.0000,0.7144 0.1307,2.1520 0.8974 2.1520c 0.1481,-0.0000 0.5663,-0.0958 0.7493 -0.7754c 0.1133,-0.4182 0.1743,-0.9410 0.1743 -1.6990c 0.0000,-1.1065 -0.2788,-1.7251 -0.5315 -1.9429c -0.0958,-0.0871 -0.2265,-0.1307 -0.3659 -0.1307ZM 244.7729,183.8164 ZM 244.7381,188.6519 c -0.9323,-0.0000 -1.5596,-1.1936 -1.5596 -2.5267c 0.0000,-1.6293 0.7754,-2.6138 1.5944 -2.6138c 0.3746,-0.0000 0.7493,0.2352 1.0020 0.5750c 0.3659,0.4879 0.5576,1.1414 0.5576 1.9603c 0.0000,1.9342 -0.9584,2.6051 -1.5944 2.6051Z"/></g><g stroke-linejoin="miter" stroke-opacity="0.6" fill-opacity="0.0" stroke="rgb(0,0,0)" stroke-width="1.1957258645286974" fill="rgb(0,0,0)" stroke-linecap="butt" stroke-miterlimit="10.0"><path d="M 241.9108,174.8479 v 3.9403 "/></g><g stroke-linejoin="miter" stroke-opacity="1.0" fill-opacity="0.6" stroke="rgb(0,0,0)" fill-rule="evenodd" stroke-width="0.0" fill="rgb(0,0,0)" stroke-linecap="butt" stroke-miterlimit="10.0"><path d="M 204.3050,188.5474 ZM 204.8103,184.6877 c 0.0000,-0.4966 0.4792,-1.1762 1.3940 -1.1762c 0.6709,-0.0000 1.4550,0.2527 1.4550 1.2546c 0.0000,0.6622 -0.3398,0.9932 -0.8103 1.4463l -0.8277,0.8016 c -0.0436,0.0436 -0.6273,0.6186 -0.6273 1.0281h 1.4811 c 0.2962,-0.0000 0.4531,-0.1481 0.5750 -0.6273l 0.2178,0.0349 l -0.1743,1.0978 h -2.6922 c 0.0000,-0.4879 0.0784,-0.8625 0.8887 -1.6902l 0.6099,-0.6012 c 0.4879,-0.4966 0.6883,-0.9235 0.6883 -1.4550c 0.0000,-0.7928 -0.5402,-1.0194 -0.8364 -1.0194c -0.6012,-0.0000 -0.7667,0.3137 -0.7667 0.5228c 0.0000,0.0697 0.0174,0.1394 0.0349 0.2004c 0.0174,0.0610 0.0349,0.1220 0.0349 0.1917c 0.0000,0.2265 -0.1743,0.3137 -0.3137 0.3137c -0.1917,-0.0000 -0.3311,-0.1481 -0.3311 -0.3224ZM 208.1211,188.5474 ZM 208.6177,188.1902 c 0.0000,-0.2527 0.2091,-0.4618 0.4618 -0.4618c 0.2527,-0.0000 0.4618,0.2091 0.4618 0.4618c 0.0000,0.2527 -0.2091,0.4618 -0.4618 0.4618c -0.2527,-0.0000 -0.4618,-0.2091 -0.4618 -0.4618ZM 210.0292,188.5474 ZM 212.7214,187.0749 c 0.0000,-0.8974 -0.4879,-1.3417 -1.0281 -1.3417c -0.4008,-0.0000 -0.7057,0.0610 -1.0455 0.2004l 0.2788,-2.3785 c 0.2875,0.0261 0.5837,0.0349 0.8887 0.0349c 0.4356,-0.0000 0.8887,-0.0261 1.3592 -0.0784l 0.0523,0.0261 l -0.1307,0.5663 c -0.3398,0.0349 -0.6186,0.0436 -0.8625 0.0436c -0.3921,-0.0000 -0.6883,-0.0349 -0.9932 -0.0697l -0.1655,1.3766 c 0.1830,-0.0697 0.4966,-0.1307 0.8364 -0.1307c 0.9235,-0.0000 1.4376,0.8016 1.4376 1.6031c 0.0000,0.9758 -0.6796,1.7251 -1.6641 1.7251c -0.4966,-0.0000 -1.2198,-0.2788 -1.2198 -0.6186c 0.0000,-0.1655 0.1394,-0.2788 0.2962 -0.2788c 0.1743,-0.0000 0.2875,0.1307 0.3921 0.2701c 0.1307,0.1568 0.2701,0.3311 0.5489 0.3311c 0.5576,-0.0000 1.0194,-0.5228 1.0194 -1.2808Z"/></g><g stroke-linejoin="miter" stroke-opacity="0.6" fill-opacity="0.0" stroke="rgb(0,0,0)" stroke-width="1.1957258645286974" fill="rgb(0,0,0)" stroke-linecap="butt" stroke-miterlimit="10.0"><path d="M 209.0751,174.8479 v 3.9403 "/></g><g stroke-linejoin="miter" stroke-opacity="1.0" fill-opacity="0.6" stroke="rgb(0,0,0)" fill-rule="evenodd" stroke-width="0.0" fill="rgb(0,0,0)" stroke-linecap="butt" stroke-miterlimit="10.0"><path d="M 171.4693,188.5474 ZM 171.9746,184.6877 c 0.0000,-0.4966 0.4792,-1.1762 1.3940 -1.1762c 0.6709,-0.0000 1.4550,0.2527 1.4550 1.2546c 0.0000,0.6622 -0.3398,0.9932 -0.8103 1.4463l -0.8277,0.8016 c -0.0436,0.0436 -0.6273,0.6186 -0.6273 1.0281h 1.4811 c 0.2962,-0.0000 0.4531,-0.1481 0.5750 -0.6273l 0.2178,0.0349 l -0.1743,1.0978 h -2.6922 c 0.0000,-0.4879 0.0784,-0.8625 0.8887 -1.6902l 0.6099,-0.6012 c 0.4879,-0.4966 0.6883,-0.9235 0.6883 -1.4550c 0.0000,-0.7928 -0.5402,-1.0194 -0.8364 -1.0194c -0.6012,-0.0000 -0.7667,0.3137 -0.7667 0.5228c 0.0000,0.0697 0.0174,0.1394 0.0349 0.2004c 0.0174,0.0610 0.0349,0.1220 0.0349 0.1917c 0.0000,0.2265 -0.1743,0.3137 -0.3137 0.3137c -0.1917,-0.0000 -0.3311,-0.1481 -0.3311 -0.3224ZM 175.2854,188.5474 ZM 175.7820,188.1902 c 0.0000,-0.2527 0.2091,-0.4618 0.4618 -0.4618c 0.2527,-0.0000 0.4618,0.2091 0.4618 0.4618c 0.0000,0.2527 -0.2091,0.4618 -0.4618 0.4618c -0.2527,-0.0000 -0.4618,-0.2091 -0.4618 -0.4618ZM 177.1935,188.5474 ZM 179.1015,183.8164 c -0.3746,-0.0000 -0.9235,0.3659 -0.9235 2.3960c 0.0000,0.7144 0.1307,2.1520 0.8974 2.1520c 0.1481,-0.0000 0.5663,-0.0958 0.7493 -0.7754c 0.1133,-0.4182 0.1743,-0.9410 0.1743 -1.6990c 0.0000,-1.1065 -0.2788,-1.7251 -0.5315 -1.9429c -0.0958,-0.0871 -0.2265,-0.1307 -0.3659 -0.1307ZM 179.1015,183.8164 ZM 179.0667,188.6519 c -0.9323,-0.0000 -1.5596,-1.1936 -1.5596 -2.5267c 0.0000,-1.6293 0.7754,-2.6138 1.5944 -2.6138c 0.3746,-0.0000 0.7493,0.2352 1.0020 0.5750c 0.3659,0.4879 0.5576,1.1414 0.5576 1.9603c 0.0000,1.9342 -0.9584,2.6051 -1.5944 2.6051Z"/></g><g stroke-linejoin="miter" stroke-opacity="0.6" fill-opacity="0.0" stroke="rgb(0,0,0)" stroke-width="1.1957258645286974" fill="rgb(0,0,0)" stroke-linecap="butt" stroke-miterlimit="10.0"><path d="M 176.2395,174.8479 v 3.9403 "/></g><g stroke-linejoin="miter" stroke-opacity="1.0" fill-opacity="0.6" stroke="rgb(0,0,0)" fill-rule="evenodd" stroke-width="0.0" fill="rgb(0,0,0)" stroke-linecap="butt" stroke-miterlimit="10.0"><path d="M 138.6336,188.5474 ZM 140.2716,184.3915 c -0.1655,-0.0000 -0.5489,0.1568 -0.7406 0.2440l -0.1046,-0.2701 c 0.7667,-0.3572 1.0629,-0.5402 1.4986 -0.8538h 0.1655 v 4.3824 c 0.0000,0.3137 0.0436,0.4008 0.3311 0.4008h 0.4531 c 0.0261,-0.0000 0.0697,0.0174 0.0697 0.0697v 0.1917 l -1.1936,-0.0174 l -1.2111,0.0174 v -0.1917 c 0.0087,-0.0261 0.0174,-0.0697 0.0697 -0.0697h 0.5228 c 0.3311,-0.0000 0.3311,-0.1481 0.3311 -0.4008v -2.9971 c 0.0000,-0.2962 0.0000,-0.5053 -0.1917 -0.5053ZM 142.4497,188.5474 ZM 142.9464,188.1902 c 0.0000,-0.2527 0.2091,-0.4618 0.4618 -0.4618c 0.2527,-0.0000 0.4618,0.2091 0.4618 0.4618c 0.0000,0.2527 -0.2091,0.4618 -0.4618 0.4618c -0.2527,-0.0000 -0.4618,-0.2091 -0.4618 -0.4618ZM 144.3578,188.5474 ZM 147.0500,187.0749 c 0.0000,-0.8974 -0.4879,-1.3417 -1.0281 -1.3417c -0.4008,-0.0000 -0.7057,0.0610 -1.0455 0.2004l 0.2788,-2.3785 c 0.2875,0.0261 0.5837,0.0349 0.8887 0.0349c 0.4356,-0.0000 0.8887,-0.0261 1.3592 -0.0784l 0.0523,0.0261 l -0.1307,0.5663 c -0.3398,0.0349 -0.6186,0.0436 -0.8625 0.0436c -0.3921,-0.0000 -0.6883,-0.0349 -0.9932 -0.0697l -0.1655,1.3766 c 0.1830,-0.0697 0.4966,-0.1307 0.8364 -0.1307c 0.9235,-0.0000 1.4376,0.8016 1.4376 1.6031c 0.0000,0.9758 -0.6796,1.7251 -1.6641 1.7251c -0.4966,-0.0000 -1.2198,-0.2788 -1.2198 -0.6186c 0.0000,-0.1655 0.1394,-0.2788 0.2962 -0.2788c 0.1743,-0.0000 0.2875,0.1307 0.3921 0.2701c 0.1307,0.1568 0.2701,0.3311 0.5489 0.3311c 0.5576,-0.0000 1.0194,-0.5228 1.0194 -1.2808Z"/></g><g stroke-linejoin="miter" stroke-opacity="0.6" fill-opacity="0.0" stroke="rgb(0,0,0)" stroke-width="1.1957258645286974" fill="rgb(0,0,0)" stroke-linecap="butt" stroke-miterlimit="10.0"><path d="M 143.4038,174.8479 v 3.9403 "/></g><g stroke-linejoin="miter" stroke-opacity="1.0" fill-opacity="0.6" stroke="rgb(0,0,0)" fill-rule="evenodd" stroke-width="0.0" fill="rgb(0,0,0)" stroke-linecap="butt" stroke-miterlimit="10.0"><path d="M 105.7979,188.5474 ZM 107.4359,184.3915 c -0.1655,-0.0000 -0.5489,0.1568 -0.7406 0.2440l -0.1046,-0.2701 c 0.7667,-0.3572 1.0629,-0.5402 1.4986 -0.8538h 0.1655 v 4.3824 c 0.0000,0.3137 0.0436,0.4008 0.3311 0.4008h 0.4531 c 0.0261,-0.0000 0.0697,0.0174 0.0697 0.0697v 0.1917 l -1.1936,-0.0174 l -1.2111,0.0174 v -0.1917 c 0.0087,-0.0261 0.0174,-0.0697 0.0697 -0.0697h 0.5228 c 0.3311,-0.0000 0.3311,-0.1481 0.3311 -0.4008v -2.9971 c 0.0000,-0.2962 0.0000,-0.5053 -0.1917 -0.5053ZM 109.6141,188.5474 ZM 110.1107,188.1902 c 0.0000,-0.2527 0.2091,-0.4618 0.4618 -0.4618c 0.2527,-0.0000 0.4618,0.2091 0.4618 0.4618c 0.0000,0.2527 -0.2091,0.4618 -0.4618 0.4618c -0.2527,-0.0000 -0.4618,-0.2091 -0.4618 -0.4618ZM 111.5221,188.5474 ZM 113.4302,183.8164 c -0.3746,-0.0000 -0.9235,0.3659 -0.9235 2.3960c 0.0000,0.7144 0.1307,2.1520 0.8974 2.1520c 0.1481,-0.0000 0.5663,-0.0958 0.7493 -0.7754c 0.1133,-0.4182 0.1743,-0.9410 0.1743 -1.6990c 0.0000,-1.1065 -0.2788,-1.7251 -0.5315 -1.9429c -0.0958,-0.0871 -0.2265,-0.1307 -0.3659 -0.1307ZM 113.4302,183.8164 ZM 113.3953,188.6519 c -0.9323,-0.0000 -1.5596,-1.1936 -1.5596 -2.5267c 0.0000,-1.6293 0.7754,-2.6138 1.5944 -2.6138c 0.3746,-0.0000 0.7493,0.2352 1.0020 0.5750c 0.3659,0.4879 0.5576,1.1414 0.5576 1.9603c 0.0000,1.9342 -0.9584,2.6051 -1.5944 2.6051Z"/></g><g stroke-linejoin="miter" stroke-opacity="0.6" fill-opacity="0.0" stroke="rgb(0,0,0)" stroke-width="1.1957258645286974" fill="rgb(0,0,0)" stroke-linecap="butt" stroke-miterlimit="10.0"><path d="M 110.5681,174.8479 v 3.9403 "/></g><g stroke-linejoin="miter" stroke-opacity="1.0" fill-opacity="0.6" stroke="rgb(0,0,0)" fill-rule="evenodd" stroke-width="0.0" fill="rgb(0,0,0)" stroke-linecap="butt" stroke-miterlimit="10.0"><path d="M 72.9623,188.5474 ZM 74.8703,183.8164 c -0.3746,-0.0000 -0.9235,0.3659 -0.9235 2.3960c 0.0000,0.7144 0.1307,2.1520 0.8974 2.1520c 0.1481,-0.0000 0.5663,-0.0958 0.7493 -0.7754c 0.1133,-0.4182 0.1743,-0.9410 0.1743 -1.6990c 0.0000,-1.1065 -0.2788,-1.7251 -0.5315 -1.9429c -0.0958,-0.0871 -0.2265,-0.1307 -0.3659 -0.1307ZM 74.8703,183.8164 ZM 74.8355,188.6519 c -0.9323,-0.0000 -1.5596,-1.1936 -1.5596 -2.5267c 0.0000,-1.6293 0.7754,-2.6138 1.5944 -2.6138c 0.3746,-0.0000 0.7493,0.2352 1.0020 0.5750c 0.3659,0.4879 0.5576,1.1414 0.5576 1.9603c 0.0000,1.9342 -0.9584,2.6051 -1.5944 2.6051ZM 76.7784,188.5474 ZM 77.2750,188.1902 c 0.0000,-0.2527 0.2091,-0.4618 0.4618 -0.4618c 0.2527,-0.0000 0.4618,0.2091 0.4618 0.4618c 0.0000,0.2527 -0.2091,0.4618 -0.4618 0.4618c -0.2527,-0.0000 -0.4618,-0.2091 -0.4618 -0.4618ZM 78.6864,188.5474 ZM 81.3786,187.0749 c 0.0000,-0.8974 -0.4879,-1.3417 -1.0281 -1.3417c -0.4008,-0.0000 -0.7057,0.0610 -1.0455 0.2004l 0.2788,-2.3785 c 0.2875,0.0261 0.5837,0.0349 0.8887 0.0349c 0.4356,-0.0000 0.8887,-0.0261 1.3592 -0.0784l 0.0523,0.0261 l -0.1307,0.5663 c -0.3398,0.0349 -0.6186,0.0436 -0.8625 0.0436c -0.3921,-0.0000 -0.6883,-0.0349 -0.9932 -0.0697l -0.1655,1.3766 c 0.1830,-0.0697 0.4966,-0.1307 0.8364 -0.1307c 0.9235,-0.0000 1.4376,0.8016 1.4376 1.6031c 0.0000,0.9758 -0.6796,1.7251 -1.6641 1.7251c -0.4966,-0.0000 -1.2198,-0.2788 -1.2198 -0.6186c 0.0000,-0.1655 0.1394,-0.2788 0.2962 -0.2788c 0.1743,-0.0000 0.2875,0.1307 0.3921 0.2701c 0.1307,0.1568 0.2701,0.3311 0.5489 0.3311c 0.5576,-0.0000 1.0194,-0.5228 1.0194 -1.2808Z"/></g><g stroke-linejoin="miter" stroke-opacity="0.6" fill-opacity="0.0" stroke="rgb(0,0,0)" stroke-width="1.1957258645286974" fill="rgb(0,0,0)" stroke-linecap="butt" stroke-miterlimit="10.0"><path d="M 77.7324,174.8479 v 3.9403 "/></g><g stroke-linejoin="miter" stroke-opacity="1.0" fill-opacity="0.6" stroke="rgb(0,0,0)" fill-rule="evenodd" stroke-width="0.0" fill="rgb(0,0,0)" stroke-linecap="butt" stroke-miterlimit="10.0"><path d="M 40.1266,188.5474 ZM 42.0346,183.8164 c -0.3746,-0.0000 -0.9235,0.3659 -0.9235 2.3960c 0.0000,0.7144 0.1307,2.1520 0.8974 2.1520c 0.1481,-0.0000 0.5663,-0.0958 0.7493 -0.7754c 0.1133,-0.4182 0.1743,-0.9410 0.1743 -1.6990c 0.0000,-1.1065 -0.2788,-1.7251 -0.5315 -1.9429c -0.0958,-0.0871 -0.2265,-0.1307 -0.3659 -0.1307ZM 42.0346,183.8164 ZM 41.9998,188.6519 c -0.9323,-0.0000 -1.5596,-1.1936 -1.5596 -2.5267c 0.0000,-1.6293 0.7754,-2.6138 1.5944 -2.6138c 0.3746,-0.0000 0.7493,0.2352 1.0020 0.5750c 0.3659,0.4879 0.5576,1.1414 0.5576 1.9603c 0.0000,1.9342 -0.9584,2.6051 -1.5944 2.6051ZM 43.9427,188.5474 ZM 44.4393,188.1902 c 0.0000,-0.2527 0.2091,-0.4618 0.4618 -0.4618c 0.2527,-0.0000 0.4618,0.2091 0.4618 0.4618c 0.0000,0.2527 -0.2091,0.4618 -0.4618 0.4618c -0.2527,-0.0000 -0.4618,-0.2091 -0.4618 -0.4618ZM 45.8508,188.5474 ZM 47.7588,183.8164 c -0.3746,-0.0000 -0.9235,0.3659 -0.9235 2.3960c 0.0000,0.7144 0.1307,2.1520 0.8974 2.1520c 0.1481,-0.0000 0.5663,-0.0958 0.7493 -0.7754c 0.1133,-0.4182 0.1743,-0.9410 0.1743 -1.6990c 0.0000,-1.1065 -0.2788,-1.7251 -0.5315 -1.9429c -0.0958,-0.0871 -0.2265,-0.1307 -0.3659 -0.1307ZM 47.7588,183.8164 ZM 47.7240,188.6519 c -0.9323,-0.0000 -1.5596,-1.1936 -1.5596 -2.5267c 0.0000,-1.6293 0.7754,-2.6138 1.5944 -2.6138c 0.3746,-0.0000 0.7493,0.2352 1.0020 0.5750c 0.3659,0.4879 0.5576,1.1414 0.5576 1.9603c 0.0000,1.9342 -0.9584,2.6051 -1.5944 2.6051Z"/></g><g stroke-linejoin="miter" stroke-opacity="0.6" fill-opacity="0.0" stroke="rgb(0,0,0)" stroke-width="1.1957258645286974" fill="rgb(0,0,0)" stroke-linecap="butt" stroke-miterlimit="10.0"><path d="M 44.8967,174.8479 v 3.9403 "/></g><g stroke-linejoin="miter" stroke-opacity="0.0" fill-opacity="0.0" stroke="rgb(0,0,0)" stroke-width="0.0" fill="rgb(0,0,0)" stroke-linecap="butt" stroke-miterlimit="10.0"><path d="M 241.9108,169.5942 l -0.0000,-131.3427 h -197.0141 l -0.0000,131.3427 Z"/></g><g stroke-linejoin="miter" stroke-opacity="0.6" fill-opacity="0.0" stroke="rgb(44,160,44)" stroke-width="1.1957258645286974" fill="rgb(0,0,0)" stroke-linecap="butt" stroke-miterlimit="10.0"><path d="M 77.7324,64.5200 v 105.0742 "/></g><g stroke-linejoin="miter" stroke-opacity="0.6" fill-opacity="0.0" stroke="rgb(255,127,14)" stroke-width="4.78290345811479" fill="rgb(0,0,0)" stroke-linecap="butt" stroke-miterlimit="10.0"><path d="M 44.8967,169.5942 l 197.0141,-78.8056 "/></g><g stroke-linejoin="miter" stroke-opacity="0.6" fill-opacity="0.0" stroke="rgb(31,119,180)" stroke-width="2.391451729057395" fill="rgb(0,0,0)" stroke-linecap="butt" stroke-miterlimit="10.0"><path d="M 44.8967,143.3256 h 65.6714 l 65.6714,-105.0742 "/></g></svg>