<?xml version="1.0" encoding="UTF-8"?>
<!DOCTYPE svg PUBLIC "-//W3C//DTD SVG 1.1//EN"
    "http://www.w3.org/Graphics/SVG/1.1/DTD/svg11.dtd">
<svg xmlns="http://www.w3.org/2000/svg" height="200.0000" stroke-opacity="1" viewBox="0 0 300 200" font-size="1" width="300.0000" xmlns:xlink="http://www.w3.org/1999/xlink" stroke="rgb(0,0,0)" version="1.1">
  <defs>
  </defs>
  <g stroke-linejoin="miter" stroke-opacity="0.6" fill-opacity="0.0" stroke="rgb(44,160,44)" stroke-width="1.2044583461533405" fill="rgb(0,0,0)" stroke-linecap="butt" stroke-miterlimit="10.0">
    <path d="M 76.6730,62.5339 v 106.6145 "/>
  </g>
  <g stroke-linejoin="miter" stroke-opacity="0.6" fill-opacity="0.0" stroke="rgb(255,127,14)" stroke-width="4.817833384613362" fill="rgb(0,0,0)" stroke-linecap="butt" stroke-miterlimit="10.0">
    <path d="M 43.3560,169.1484 l 199.9022,-79.9609 "/>
  </g>
  <g stroke-linejoin="miter" stroke-opacity="0.6" fill-opacity="0.0" stroke="rgb(31,119,180)" stroke-width="2.408916692306681" fill="rgb(0,0,0)" stroke-linecap="butt" stroke-miterlimit="10.0">
    <path d="M 43.3560,142.4948 h 66.6341 l 66.6341,-106.6145 "/>
  </g>
  <g stroke-linejoin="miter" stroke-opacity="1.0" fill-opacity="0.6" stroke="rgb(0,0,0)" fill-rule="evenodd" stroke-width="0.0" fill="rgb(0,0,0)" stroke-linecap="butt" stroke-miterlimit="10.0">
    <path d="M 95.3504,21.1744 ZM 98.0291,15.7376 c 0.0000,0.0663 -0.0530,0.1061 -0.1193 0.1061h -0.1989 c -0.2917,-0.0000 -0.3846,0.0796 -0.3846 0.2122c 0.0000,0.0928 0.0530,0.2122 0.1193 0.3978l 1.3924,3.5008 l 1.1537,-2.8775 l -0.2387,-0.5967 c -0.1724,-0.4509 -0.4509,-0.6365 -0.8487 -0.6365c -0.0663,-0.0000 -0.1326,-0.0265 -0.1326 -0.0928v -0.2652 l 0.0265,-0.0265 c 0.0000,-0.0000 0.7426,0.0265 1.2067 0.0265l 1.3261,-0.0265 l 0.0398,0.0265 v 0.2519 c 0.0000,0.0663 -0.0663,0.1061 -0.1326 0.1061h -0.2387 c -0.2652,-0.0000 -0.3846,0.0530 -0.3846 0.1856c 0.0000,0.1061 0.0530,0.2387 0.1326 0.4243l 1.3791,3.5008 l 1.3791,-3.4345 c 0.0398,-0.0796 0.0663,-0.1856 0.0663 -0.2917c 0.0000,-0.2254 -0.1459,-0.3846 -0.5967 -0.3846h -0.1989 c -0.0663,-0.0000 -0.1193,-0.0530 -0.1193 -0.0928v -0.2652 l 0.0398,-0.0265 c 0.0000,-0.0000 0.8752,0.0265 1.3658 0.0265c 0.4509,-0.0000 0.9813,-0.0265 0.9813 -0.0265l 0.0133,0.0265 v 0.2519 c 0.0000,0.0796 -0.0796,0.1061 -0.1591 0.1061c -0.3315,-0.0000 -0.6763,0.1459 -0.9150 0.7293l -1.8034,4.4821 c -0.0796,0.1989 -0.1856,0.2785 -0.3050 0.2785c -0.1326,-0.0000 -0.2387,-0.0796 -0.3183 -0.2652l -1.3261,-3.3151 l -1.3261,3.2886 c -0.0928,0.2122 -0.1989,0.2917 -0.3183 0.2917c -0.1326,-0.0000 -0.2387,-0.0796 -0.3183 -0.2652l -1.8167,-4.5881 c -0.1989,-0.5172 -0.4376,-0.6365 -0.8354 -0.6365c -0.0663,-0.0000 -0.1591,-0.0265 -0.1591 -0.0928v -0.2652 l 0.0265,-0.0265 c 0.0000,-0.0000 0.6232,0.0265 1.2067 0.0265c 0.6100,-0.0000 1.3128,-0.0265 1.3128 -0.0265l 0.0265,0.0398 v 0.2387 ZM 105.2163,21.1744 ZM 106.2506,13.6026 c 0.0000,-0.3448 0.2785,-0.6365 0.6232 -0.6365c 0.3580,-0.0000 0.6365,0.2917 0.6365 0.6365c 0.0000,0.3580 -0.2785,0.6365 -0.6365 0.6365c -0.3448,-0.0000 -0.6232,-0.2785 -0.6232 -0.6365ZM 106.2506,13.6026 ZM 107.5103,20.2196 c 0.0000,0.3846 0.1459,0.5835 0.5702 0.5835h 0.2519 c 0.0663,-0.0000 0.1193,0.0398 0.1193 0.1061v 0.2519 l -0.0265,0.0265 c 0.0000,-0.0000 -0.9150,-0.0265 -1.4321 -0.0265c -0.4641,-0.0000 -1.3658,0.0265 -1.3658 0.0265l -0.0265,-0.0265 v -0.2519 c 0.0000,-0.0663 0.0398,-0.1061 0.1061 -0.1061h 0.2519 c 0.4376,-0.0000 0.5702,-0.1989 0.5702 -0.5835v -3.3019 c 0.0000,-0.7028 -0.1193,-0.8089 -0.3050 -0.8089c -0.1724,-0.0000 -0.3315,0.0133 -0.5569 0.0663l -0.0663,-0.3713 c 0.8487,-0.1459 0.9945,-0.1989 1.3791 -0.3846c 0.1459,-0.0530 0.2387,-0.1061 0.3315 -0.1061h 0.1989 v 4.9064 ZM 108.7170,21.1744 ZM 110.8918,15.9895 v 3.3947 c 0.0000,0.8222 0.0796,1.2200 0.4376 1.2200c 0.3448,-0.0000 0.6100,-0.1061 0.9548 -0.3713l 0.2387,0.2254 c -0.5172,0.5835 -1.0476,0.8752 -1.6576 0.8752c -0.6100,-0.0000 -0.9680,-0.3713 -0.9680 -1.3128v -4.0312 h -0.8619 c -0.0398,-0.0000 -0.0530,-0.0133 -0.0530 -0.0530v -0.4111 c 0.0000,-0.0398 0.0133,-0.0530 0.0398 -0.0530c 0.8885,-0.0000 1.1006,-0.5172 1.1006 -1.5250v -0.2519 l 0.7691,-0.2652 v 2.0421 h 1.4587 c 0.0663,-0.0000 0.1061,0.0265 0.1061 0.0796v 0.2652 c 0.0000,0.1193 -0.1856,0.1724 -0.3183 0.1724h -1.2465 ZM 112.7217,21.1744 ZM 114.8832,11.9185 v 4.4953 c 0.8885,-0.8885 1.6708,-1.1006 2.1880 -1.1006c 0.9548,-0.0000 1.4321,0.7293 1.4321 2.0952v 2.8112 c 0.0000,0.3846 0.1326,0.5835 0.5702 0.5835h 0.2519 c 0.0530,-0.0000 0.1061,0.0398 0.1061 0.1061v 0.2519 l -0.0265,0.0265 c 0.0000,-0.0000 -0.9017,-0.0265 -1.4321 -0.0265c -0.4641,-0.0000 -1.3658,0.0265 -1.3658 0.0265l -0.0265,-0.0265 v -0.2519 c 0.0000,-0.0663 0.0398,-0.1061 0.1061 -0.1061h 0.2519 c 0.4509,-0.0000 0.5702,-0.1989 0.5702 -0.5835v -2.9571 c 0.0000,-1.0741 -0.2917,-1.3261 -1.0343 -1.3261c -0.3846,-0.0000 -0.9548,0.3448 -1.5913 0.9680v 3.3151 c 0.0000,0.3846 0.1326,0.5835 0.5702 0.5835h 0.2519 c 0.0530,-0.0000 0.1061,0.0398 0.1061 0.1061v 0.2519 l -0.0265,0.0265 c 0.0000,-0.0000 -0.9017,-0.0265 -1.4189 -0.0265c -0.4774,-0.0000 -1.3658,0.0265 -1.3658 0.0265l -0.0265,-0.0265 v -0.2519 c 0.0000,-0.0663 0.0265,-0.1061 0.0928 -0.1061h 0.2519 c 0.4509,-0.0000 0.5702,-0.1989 0.5702 -0.5835v -6.6435 c 0.0000,-0.7558 -0.1193,-0.9680 -0.3846 -0.9680l -0.4376,0.0530 c -0.0398,-0.0000 -0.0663,-0.0265 -0.0663 -0.0663l -0.0265,-0.3315 c 0.2122,-0.0000 0.6895,-0.0796 0.9150 -0.1193c 0.2387,-0.0530 0.4376,-0.1061 0.7028 -0.2254h 0.2917 ZM 119.5907,21.1744 ZM 126.4066,20.2196 v -3.3416 h -4.3362 v 3.3416 c 0.0000,0.4111 0.1989,0.5835 0.7293 0.5835h 0.3448 c 0.0530,-0.0000 0.1061,0.0398 0.1061 0.1061v 0.2519 l -0.0265,0.0265 c 0.0000,-0.0000 -1.1404,-0.0265 -1.6708 -0.0265c -0.4641,-0.0000 -1.6973,0.0265 -1.6973 0.0265l -0.0265,-0.0265 v -0.2519 c 0.0000,-0.0663 0.0398,-0.1061 0.0928 -0.1061h 0.3580 c 0.5437,-0.0000 0.7161,-0.2122 0.7161 -0.5835v -6.6568 c 0.0000,-0.3978 -0.1989,-0.5835 -0.7161 -0.5835h -0.3580 c -0.0530,-0.0000 -0.1061,-0.0398 -0.1061 -0.1061v -0.2519 l 0.0265,-0.0133 c 0.0000,-0.0000 1.1537,0.0133 1.6708 0.0133c 0.4774,-0.0000 1.7106,-0.0133 1.7106 -0.0133l 0.0265,0.0133 v 0.2519 c 0.0000,0.0663 -0.0398,0.1061 -0.1061 0.1061h -0.3448 c -0.5437,-0.0000 -0.7293,0.2122 -0.7293 0.5835v 2.7980 h 4.3362 v -2.7980 c 0.0000,-0.3978 -0.1989,-0.5835 -0.7293 -0.5835h -0.3448 c -0.0663,-0.0000 -0.1193,-0.0398 -0.1193 -0.1061v -0.2519 l 0.0265,-0.0133 c 0.0000,-0.0000 1.1537,0.0133 1.6708 0.0133c 0.4774,-0.0000 1.7106,-0.0133 1.7106 -0.0133l 0.0265,0.0133 v 0.2519 c 0.0000,0.0663 -0.0398,0.1061 -0.1061 0.1061h -0.3448 c -0.5437,-0.0000 -0.7293,0.2122 -0.7293 0.5835v 6.6568 c 0.0000,0.4111 0.1989,0.5835 0.7293 0.5835h 0.3448 c 0.0663,-0.0000 0.1193,0.0398 0.1193 0.1061v 0.2519 l -0.0265,0.0265 c 0.0000,-0.0000 -1.1537,-0.0265 -1.6708 -0.0265c -0.4774,-0.0000 -1.7106,0.0265 -1.7106 0.0265l -0.0265,-0.0265 v -0.2519 c 0.0000,-0.0663 0.0398,-0.1061 0.1061 -0.1061h 0.3448 c 0.5437,-0.0000 0.7293,-0.2122 0.7293 -0.5835ZM 128.8730,21.1744 ZM 134.5618,19.6362 c 0.0000,0.6630 0.0663,0.8752 0.3315 0.8752c 0.1591,-0.0000 0.4509,-0.0265 0.6763 -0.0663l 0.0530,0.3713 c -0.8089,0.1459 -1.4587,0.2785 -1.7636 0.5172h -0.2917 l 0.0398,-0.9813 h -0.0398 c -0.7293,0.7956 -1.3261,0.9813 -1.8697 0.9813c -1.3128,-0.0000 -1.6576,-0.8885 -1.6576 -1.8034v -3.0234 c 0.0000,-0.4376 -0.0928,-0.6630 -0.5835 -0.6630c -0.0530,-0.0000 -0.1459,0.0133 -0.2254 0.0133l -0.0398,-0.0133 v -0.3448 l 0.0398,-0.0398 c 0.0000,-0.0000 0.9017,0.0265 1.3261 0.0265c 0.1856,-0.0000 0.4906,-0.0265 0.4906 -0.0265l -0.0133,1.0608 v 2.8245 c 0.0000,1.1802 0.6100,1.3924 1.0078 1.3924c 0.3050,-0.0000 0.5835,-0.1193 0.8619 -0.3183c 0.3183,-0.2387 0.5304,-0.4243 0.6630 -0.5967v -3.2753 c 0.0000,-0.4774 -0.0663,-0.7028 -0.5569 -0.7028c -0.0796,-0.0000 -0.2254,0.0133 -0.2652 0.0133l -0.0265,-0.0265 v -0.3315 l 0.0265,-0.0398 c 0.0000,-0.0000 0.9415,0.0265 1.3128 0.0265c 0.3050,-0.0000 0.5172,-0.0265 0.5172 -0.0265l -0.0133,1.0476 v 3.1295 ZM 135.7287,21.1744 ZM 140.1577,19.9942 v -3.4345 c -0.3183,-0.5039 -0.6763,-0.7824 -1.2995 -0.7824c -0.2652,-0.0000 -0.8089,0.0398 -1.2332 0.6630c -0.1856,0.2785 -0.4111,0.8487 -0.4111 1.8034c 0.0000,1.7371 0.9017,2.5328 1.6178 2.5328c 0.4376,-0.0000 0.7956,-0.2652 1.3261 -0.7824ZM 140.1577,19.9942 ZM 141.1522,11.9185 v 7.6646 c 0.0000,0.3978 0.0265,0.6100 0.0530 0.7028c 0.0398,0.1193 0.1856,0.1989 0.2917 0.1989c 0.1591,-0.0000 0.4509,-0.0000 0.6498 -0.0398l 0.0530,0.3713 c -0.7691,0.1326 -1.4587,0.2785 -1.7371 0.5172h -0.3183 l 0.0398,-0.9150 c -0.5039,0.5172 -1.0211,0.9150 -1.6973 0.9150c -1.4321,-0.0000 -2.3073,-1.2200 -2.3073 -2.8510c 0.0000,-0.9813 0.2652,-1.8034 0.8354 -2.3736c 0.5304,-0.5039 1.1139,-0.7956 1.9891 -0.7956c 0.2652,-0.0000 0.8487,0.1193 1.1537 0.2917v -2.0289 c 0.0000,-0.7558 -0.1193,-0.9680 -0.3846 -0.9680l -0.4376,0.0530 c -0.0265,-0.0000 -0.0663,-0.0265 -0.0663 -0.0663l -0.0265,-0.3315 c 0.2122,-0.0000 0.6895,-0.0796 0.9150 -0.1193c 0.2519,-0.0530 0.4376,-0.1061 0.7028 -0.2254h 0.2917 ZM 145.5945,21.1744 ZM 150.2755,13.1385 h -1.7902 c -0.3183,-0.0000 -0.4774,0.1061 -0.4774 0.4243v 2.8245 h 1.8167 c 0.4641,-0.0000 0.5835,-0.2122 0.6630 -0.5835l 0.0928,-0.3978 c 0.0000,-0.0530 0.0398,-0.1061 0.0928 -0.1061h 0.2917 c 0.0398,-0.0000 0.0530,0.0265 0.0530 0.0530c -0.0530,0.3315 -0.1061,0.8222 -0.1061 1.2597c 0.0000,0.4509 0.0663,1.0476 0.1061 1.2730l -0.0398,0.0398 h -0.3050 c -0.0663,-0.0000 -0.1061,-0.0530 -0.1061 -0.0928l -0.0796,-0.4111 c -0.0663,-0.3846 -0.2122,-0.5835 -0.6630 -0.5835h -1.8167 v 3.3814 c 0.0000,0.3580 0.1856,0.4376 0.4774 0.4376h 2.2012 c 1.0078,-0.0000 1.3924,-0.7824 1.6576 -1.7371l 0.4111,0.0663 c -0.1591,0.6895 -0.2917,1.4454 -0.3580 2.1880h -3.8986 l -1.0211,-0.0133 l -1.6973,0.0265 l -0.0265,-0.0265 v -0.2652 c 0.0000,-0.0398 0.0265,-0.0928 0.1061 -0.0928h 0.3978 c 0.5304,-0.0000 0.6895,-0.2122 0.6895 -0.5835v -6.6435 c 0.0000,-0.4111 -0.1856,-0.5967 -0.6895 -0.5967h -0.3978 c -0.0928,-0.0000 -0.1061,-0.0530 -0.1061 -0.0928v -0.2652 l 0.0265,-0.0133 l 1.6973,0.0133 l 1.0343,-0.0133 h 3.3947 c 0.0530,0.7028 0.1724,1.5117 0.2785 2.0554l -0.3846,0.0663 c -0.2917,-0.9150 -0.5304,-1.5913 -1.5250 -1.5913ZM 153.1397,21.1744 ZM 155.7521,15.8437 c -0.2652,-0.0000 -0.3183,0.0663 -0.3183 0.1591c 0.0000,0.0663 0.0530,0.1856 0.1989 0.4243l 0.8089,1.1934 c 0.0398,0.0796 0.0796,0.1193 0.1326 0.1193c 0.0398,-0.0000 0.0663,-0.0265 0.1193 -0.0928l 0.8619,-1.2067 c 0.1459,-0.1856 0.2254,-0.3315 0.2254 -0.4376c 0.0000,-0.1061 -0.0928,-0.1591 -0.2785 -0.1591h -0.2122 c -0.0398,-0.0000 -0.0796,-0.0265 -0.0796 -0.0928v -0.2519 l 0.0398,-0.0398 c 0.0000,-0.0000 0.6232,0.0265 1.0343 0.0265c 0.4243,-0.0000 1.0741,-0.0265 1.0741 -0.0265l 0.0133,0.0265 v 0.2519 c 0.0000,0.0928 -0.0796,0.1061 -0.1591 0.1061c -0.4906,-0.0000 -0.6895,0.1591 -1.1802 0.7824l -1.1139,1.4189 c -0.0265,0.0398 -0.0398,0.0663 -0.0398 0.0928c 0.0000,0.0265 0.0133,0.0663 0.0398 0.1061l 1.1934,1.6841 c 0.6100,0.8619 0.7824,0.8752 1.2067 0.8752c 0.1326,-0.0000 0.1856,0.0265 0.1856 0.1061v 0.2519 l -0.0133,0.0265 c 0.0000,-0.0000 -0.7161,-0.0265 -1.1669 -0.0265c -0.5437,-0.0000 -1.3791,0.0265 -1.3791 0.0265l -0.0265,-0.0265 v -0.2519 c 0.0000,-0.0663 0.0265,-0.1061 0.0928 -0.1061h 0.1591 c 0.2122,-0.0000 0.3050,-0.0398 0.3050 -0.1459c 0.0000,-0.1193 -0.1459,-0.3183 -0.3580 -0.5967l -0.7691,-1.0608 c -0.0530,-0.0663 -0.0796,-0.0928 -0.1193 -0.0928c -0.0265,-0.0000 -0.0663,0.0398 -0.1193 0.1193l -0.8354,1.2067 c -0.1989,0.2652 -0.2387,0.3315 -0.2387 0.4243c 0.0000,0.0928 0.0796,0.1459 0.2785 0.1459h 0.1856 c 0.0663,-0.0000 0.0928,0.0398 0.0928 0.1061v 0.2519 l -0.0265,0.0265 c 0.0000,-0.0000 -0.6895,-0.0265 -1.1139 -0.0265c -0.3846,-0.0000 -0.9945,0.0265 -0.9945 0.0265l -0.0265,-0.0265 v -0.2254 c 0.0000,-0.0796 0.0530,-0.1326 0.1724 -0.1326c 0.3183,-0.0000 0.6232,-0.0663 1.1802 -0.7824l 1.1139,-1.4321 c 0.0133,-0.0265 0.0265,-0.0530 0.0265 -0.0928c 0.0000,-0.0398 -0.0133,-0.0663 -0.0398 -0.1061l -1.1537,-1.6841 c -0.3713,-0.5437 -0.6100,-0.8619 -1.0741 -0.8619c -0.0928,-0.0000 -0.1856,-0.0398 -0.1856 -0.0928v -0.2519 l 0.0265,-0.0398 l 1.0476,0.0265 l 1.4719,-0.0265 l 0.0398,0.0398 v 0.2387 c 0.0000,0.0663 -0.0530,0.1061 -0.1061 0.1061h -0.1989 ZM 159.7302,21.1744 ZM 163.5890,17.9256 l -1.0476,0.2652 c -1.1669,0.3580 -1.3393,0.9680 -1.3393 1.5647c 0.0000,0.4111 0.1989,1.0343 1.0343 1.0343c 0.3978,-0.0000 1.0078,-0.3846 1.3526 -0.6763v -2.1880 ZM 163.5890,17.9256 ZM 164.4377,21.3335 c -0.5039,-0.0000 -0.7824,-0.4509 -0.8354 -0.7691l -0.3050,0.2122 c -0.6100,0.4243 -0.8354,0.5569 -1.4454 0.5569c -0.9282,-0.0000 -1.6045,-0.5304 -1.6045 -1.5250c 0.0000,-1.0078 0.8619,-1.6973 2.1217 -2.0156l 1.2200,-0.3050 c 0.0000,-1.4984 -0.6895,-1.7769 -1.1404 -1.7769c -0.5039,-0.0000 -1.0874,0.2254 -1.0874 0.6365c 0.0000,0.1459 0.0265,0.2254 0.0398 0.2652c 0.0265,0.0530 0.0398,0.1459 0.0398 0.2387c 0.0000,0.1724 -0.1326,0.4376 -0.5172 0.4376c -0.3183,-0.0000 -0.5304,-0.2122 -0.5304 -0.5304c 0.0000,-0.7691 1.2465,-1.4454 2.0952 -1.4454c 0.9680,-0.0000 2.0819,0.3978 2.0819 2.2808v 1.9493 c 0.0000,0.8089 0.0133,1.1537 0.3183 1.1537c 0.2917,-0.0000 0.3713,-0.3713 0.3846 -0.6630l 0.3315,0.0663 c -0.0796,0.9680 -0.4906,1.2332 -1.1669 1.2332ZM 165.7107,21.1744 ZM 173.7068,20.2196 v -3.0499 c 0.0000,-0.8885 -0.3448,-1.2200 -0.8487 -1.2200c -0.5172,-0.0000 -0.9282,0.2652 -1.5647 0.9680c 0.0265,0.1591 0.0265,0.3448 0.0265 0.5304v 2.7714 c 0.0000,0.3846 0.1326,0.5835 0.5702 0.5835h 0.2254 c 0.0663,-0.0000 0.1193,0.0398 0.1193 0.1061v 0.2519 l -0.0265,0.0265 c 0.0000,-0.0000 -0.8885,-0.0265 -1.4056 -0.0265c -0.4774,-0.0000 -1.3924,0.0265 -1.3924 0.0265l -0.0265,-0.0265 v -0.2519 c 0.0000,-0.0663 0.0398,-0.1061 0.1061 -0.1061h 0.2652 c 0.4509,-0.0000 0.5702,-0.1989 0.5702 -0.5835v -3.0234 c 0.0000,-0.8885 -0.3580,-1.2465 -0.8619 -1.2465c -0.4641,-0.0000 -0.9017,0.3315 -1.5250 0.9813v 3.2886 c 0.0000,0.3846 0.1326,0.5835 0.5702 0.5835h 0.2519 c 0.0530,-0.0000 0.1061,0.0398 0.1061 0.1061v 0.2519 l -0.0265,0.0265 c 0.0000,-0.0000 -0.9017,-0.0265 -1.4189 -0.0265c -0.4774,-0.0000 -1.3791,0.0265 -1.3791 0.0265l -0.0265,-0.0265 v -0.2519 c 0.0000,-0.0663 0.0398,-0.1061 0.1061 -0.1061h 0.2519 c 0.4509,-0.0000 0.5702,-0.1989 0.5702 -0.5835v -3.3019 c 0.0000,-0.7558 -0.1193,-0.8089 -0.2917 -0.8089c -0.1724,-0.0000 -0.3315,0.0133 -0.5569 0.0663l -0.0663,-0.3713 c 0.8354,-0.1459 1.0211,-0.1989 1.3791 -0.3846c 0.1326,-0.0663 0.2387,-0.1061 0.3315 -0.1061h 0.1989 l -0.0398,1.1537 h 0.0398 c 0.6232,-0.6630 1.1802,-1.1537 2.0023 -1.1537c 0.7426,-0.0000 1.2067,0.5437 1.2863 1.1404c 0.7691,-0.7956 1.3924,-1.1404 2.1084 -1.1404c 1.1669,-0.0000 1.3658,0.9680 1.3658 2.1482v 2.7582 c 0.0000,0.3846 0.1326,0.5835 0.5702 0.5835h 0.2519 c 0.0530,-0.0000 0.1061,0.0398 0.1061 0.1061v 0.2519 l -0.0265,0.0265 c 0.0000,-0.0000 -0.9017,-0.0265 -1.4189 -0.0265c -0.4774,-0.0000 -1.3791,0.0265 -1.3791 0.0265l -0.0265,-0.0265 v -0.2519 c 0.0000,-0.0663 0.0398,-0.1061 0.1061 -0.1061h 0.2519 c 0.4376,-0.0000 0.5702,-0.1989 0.5702 -0.5835ZM 175.7887,21.1744 ZM 177.7645,17.0106 v 3.3019 c 0.4641,0.5437 0.9017,0.5702 1.1139 0.5702c 1.4189,-0.0000 1.7371,-1.3261 1.7371 -2.4665c 0.0000,-1.6045 -0.6498,-2.4930 -1.4587 -2.4930c -0.4509,-0.0000 -1.1006,0.3846 -1.3924 1.0874ZM 177.7645,17.0106 ZM 176.7832,23.2695 v -6.5640 c 0.0000,-0.5039 -0.1193,-0.5967 -0.3050 -0.5967c -0.1724,-0.0000 -0.3315,0.0133 -0.5569 0.0663l -0.0663,-0.3713 c 0.8487,-0.1459 1.0078,-0.1989 1.3791 -0.3846c 0.1459,-0.0663 0.2387,-0.1061 0.3315 -0.1061h 0.1989 l -0.0398,1.0608 h 0.0398 c 0.6100,-0.9282 1.3261,-1.0608 1.7504 -1.0608c 1.2863,-0.0000 2.1349,1.3393 2.1349 2.7449c 0.0000,1.0741 -0.3315,1.8963 -0.9282 2.5062c -0.5172,0.5172 -1.0608,0.7691 -1.7636 0.7691c -0.4774,-0.0000 -0.8487,-0.1061 -1.1934 -0.2917v 2.2278 c 0.0000,0.3846 0.1459,0.5835 0.5702 0.5835h 0.2519 c 0.0663,-0.0000 0.1193,0.0398 0.1193 0.1061v 0.2519 l -0.0265,0.0265 c 0.0000,-0.0000 -0.9150,-0.0265 -1.4321 -0.0265c -0.4641,-0.0000 -1.3658,0.0265 -1.3658 0.0265l -0.0265,-0.0265 v -0.2519 c 0.0000,-0.0663 0.0398,-0.1061 0.1061 -0.1061h 0.2519 c 0.4376,-0.0000 0.5702,-0.1989 0.5702 -0.5835ZM 182.1405,21.1744 ZM 183.4002,20.2196 v -6.6435 c 0.0000,-0.7558 -0.1326,-0.9680 -0.3978 -0.9680l -0.4243,0.0530 c -0.0398,-0.0000 -0.0796,-0.0265 -0.0796 -0.0663l -0.0265,-0.3315 c 0.2122,-0.0000 0.7028,-0.0796 0.9282 -0.1193c 0.2387,-0.0530 0.4243,-0.1061 0.6895 -0.2254h 0.2917 v 8.3011 c 0.0000,0.3846 0.1459,0.5835 0.5702 0.5835h 0.3183 c 0.0530,-0.0000 0.1061,0.0398 0.1061 0.1061v 0.2519 l -0.0265,0.0265 c 0.0000,-0.0000 -0.9680,-0.0265 -1.4852 -0.0265c -0.4641,-0.0000 -1.4321,0.0265 -1.4321 0.0265l -0.0133,-0.0265 v -0.2519 c 0.0000,-0.0663 0.0265,-0.1061 0.0928 -0.1061h 0.3183 c 0.4376,-0.0000 0.5702,-0.1989 0.5702 -0.5835ZM 185.5882,21.1744 ZM 187.0999,17.5012 h 2.4399 c 0.1326,-0.0000 0.1856,-0.0663 0.1856 -0.1856c 0.0000,-1.2332 -0.6232,-1.5515 -1.1006 -1.5515c -0.3050,-0.0000 -1.2995,0.1193 -1.5250 1.7371ZM 187.0999,17.5012 ZM 190.6007,19.9412 l 0.2652,0.2122 c -0.5039,0.6895 -1.2863,1.1802 -2.2410 1.1802c -1.8167,-0.0000 -2.5858,-1.3526 -2.5858 -2.7980c 0.0000,-2.0156 1.3261,-3.2223 2.5858 -3.2223c 1.7504,-0.0000 2.1615,1.3658 2.1615 2.4797c 0.0000,0.1459 -0.0928,0.2254 -0.2387 0.2254h -3.4875 c -0.0133,0.0796 -0.0133,0.1591 -0.0133 0.2652c 0.0000,1.3526 0.9415,2.4002 1.8963 2.4002c 0.7293,-0.0000 1.1934,-0.2387 1.6576 -0.7426Z"/>
  </g>
  <g stroke-linejoin="miter" stroke-opacity="1.0" fill-opacity="0.63" stroke="rgb(0,0,0)" fill-rule="evenodd" stroke-width="0.0" fill="rgb(0,0,0)" stroke-linecap="butt" stroke-miterlimit="10.0">
    <path d="M 265.2956,164.9359 ZM 266.0305,164.3790 v -3.8754 c 0.0000,-0.4409 -0.0774,-0.5647 -0.2321 -0.5647l -0.2475,0.0309 c -0.0232,-0.0000 -0.0464,-0.0155 -0.0464 -0.0387l -0.0155,-0.1934 c 0.1238,-0.0000 0.4100,-0.0464 0.5415 -0.0696c 0.1392,-0.0309 0.2475,-0.0619 0.4022 -0.1315h 0.1702 v 4.8423 c 0.0000,0.2243 0.0851,0.3404 0.3326 0.3404h 0.1856 c 0.0309,-0.0000 0.0619,0.0232 0.0619 0.0619v 0.1470 l -0.0155,0.0155 c 0.0000,-0.0000 -0.5647,-0.0155 -0.8664 -0.0155c -0.2707,-0.0000 -0.8354,0.0155 -0.8354 0.0155l -0.0077,-0.0155 v -0.1470 c 0.0000,-0.0387 0.0155,-0.0619 0.0541 -0.0619h 0.1856 c 0.2553,-0.0000 0.3326,-0.1160 0.3326 -0.3404ZM 267.3068,164.9359 ZM 267.9101,160.5190 c 0.0000,-0.2011 0.1624,-0.3713 0.3636 -0.3713c 0.2089,-0.0000 0.3713,0.1702 0.3713 0.3713c 0.0000,0.2089 -0.1624,0.3713 -0.3713 0.3713c -0.2011,-0.0000 -0.3636,-0.1624 -0.3636 -0.3713ZM 267.9101,160.5190 ZM 268.6450,164.3790 c 0.0000,0.2243 0.0851,0.3404 0.3326 0.3404h 0.1470 c 0.0387,-0.0000 0.0696,0.0232 0.0696 0.0619v 0.1470 l -0.0155,0.0155 c 0.0000,-0.0000 -0.5337,-0.0155 -0.8354 -0.0155c -0.2707,-0.0000 -0.7967,0.0155 -0.7967 0.0155l -0.0155,-0.0155 v -0.1470 c 0.0000,-0.0387 0.0232,-0.0619 0.0619 -0.0619h 0.1470 c 0.2553,-0.0000 0.3326,-0.1160 0.3326 -0.3404v -1.9261 c 0.0000,-0.4100 -0.0696,-0.4719 -0.1779 -0.4719c -0.1006,-0.0000 -0.1934,0.0077 -0.3249 0.0387l -0.0387,-0.2166 c 0.4951,-0.0851 0.5801,-0.1160 0.8045 -0.2243c 0.0851,-0.0309 0.1392,-0.0619 0.1934 -0.0619h 0.1160 v 2.8621 ZM 269.3489,164.9359 ZM 272.1645,164.3790 v -1.6940 c 0.0000,-0.5415 -0.0928,-0.7967 -0.5028 -0.7967c -0.3404,-0.0000 -0.6343,0.1315 -1.0288 0.5956v 1.8951 c 0.0000,0.2243 0.0774,0.3404 0.3326 0.3404h 0.1083 c 0.0387,-0.0000 0.0619,0.0232 0.0619 0.0619v 0.1470 l -0.0155,0.0155 c 0.0000,-0.0000 -0.4873,-0.0155 -0.7890 -0.0155c -0.2785,-0.0000 -0.8045,0.0155 -0.8045 0.0155l -0.0155,-0.0155 v -0.1470 c 0.0000,-0.0387 0.0232,-0.0619 0.0619 -0.0619h 0.1470 c 0.2630,-0.0000 0.3326,-0.1160 0.3326 -0.3404v -1.9261 c 0.0000,-0.4177 -0.0619,-0.4719 -0.1702 -0.4719c -0.1006,-0.0000 -0.1934,0.0077 -0.3249 0.0387l -0.0387,-0.2166 c 0.3249,-0.0541 0.5569,-0.0928 0.7967 -0.2243c 0.0851,-0.0387 0.1470,-0.0619 0.2011 -0.0619h 0.1160 l -0.0232,0.6884 h 0.0232 c 0.4951,-0.5801 0.8664,-0.6884 1.2609 -0.6884c 0.6962,-0.0000 0.8431,0.5337 0.8431 1.2222v 1.6399 c 0.0000,0.2243 0.0851,0.3404 0.3326 0.3404h 0.1470 c 0.0387,-0.0000 0.0696,0.0232 0.0696 0.0619v 0.1470 l -0.0155,0.0155 c 0.0000,-0.0000 -0.5337,-0.0155 -0.8354 -0.0155c -0.2707,-0.0000 -0.7581,0.0155 -0.7581 0.0155l -0.0155,-0.0155 v -0.1470 c 0.0000,-0.0387 0.0232,-0.0619 0.0619 -0.0619h 0.1083 c 0.2553,-0.0000 0.3326,-0.1160 0.3326 -0.3404ZM 273.3713,164.9359 ZM 274.2531,162.7932 h 1.4233 c 0.0774,-0.0000 0.1083,-0.0387 0.1083 -0.1083c 0.0000,-0.7194 -0.3636,-0.9050 -0.6420 -0.9050c -0.1779,-0.0000 -0.7581,0.0696 -0.8896 1.0133ZM 274.2531,162.7932 ZM 276.2952,164.2165 l 0.1547,0.1238 c -0.2939,0.4022 -0.7503,0.6884 -1.3073 0.6884c -1.0597,-0.0000 -1.5084,-0.7890 -1.5084 -1.6321c 0.0000,-1.1758 0.7735,-1.8797 1.5084 -1.8797c 1.0211,-0.0000 1.2609,0.7967 1.2609 1.4465c 0.0000,0.0851 -0.0541,0.1315 -0.1392 0.1315h -2.0344 c -0.0077,0.0464 -0.0077,0.0928 -0.0077 0.1547c 0.0000,0.7890 0.5492,1.4001 1.1061 1.4001c 0.4254,-0.0000 0.6962,-0.1392 0.9669 -0.4332ZM 276.6820,164.9359 ZM 278.3528,160.7047 c -0.1934,-0.0000 -0.7581,0.1083 -0.7581 0.5801c 0.0000,0.1392 -0.0541,0.3790 -0.2630 0.3790c -0.2011,-0.0000 -0.2166,-0.2243 -0.2166 -0.2475c 0.0000,-0.2398 0.3171,-0.9514 1.3924 -0.9514c 0.7503,-0.0000 0.9746,0.4719 0.9746 0.7813c 0.0000,0.1934 -0.0619,0.5801 -0.7581 1.0211c 0.4332,0.0696 1.0056,0.3868 1.0056 1.1912c 0.0000,1.0211 -0.7735,1.5703 -1.6476 1.5703c -0.4409,-0.0000 -1.0597,-0.1934 -1.0597 -0.4873c 0.0000,-0.1160 0.1160,-0.2475 0.2707 -0.2475c 0.1470,-0.0000 0.2166,0.0774 0.2862 0.1779c 0.0851,0.1315 0.2243,0.3171 0.5956 0.3171c 0.2553,-0.0000 0.9824,-0.2553 0.9824 -1.2299c 0.0000,-0.8277 -0.5801,-0.9592 -0.9979 -0.9592c -0.0696,-0.0000 -0.1547,0.0155 -0.2398 0.0309l -0.0309,-0.2321 c 0.5956,-0.1006 1.0907,-0.6807 1.0907 -1.0365c 0.0000,-0.4409 -0.3094,-0.6575 -0.6266 -0.6575Z"/>
  </g>
  <g stroke-linejoin="miter" stroke-opacity="0.6" fill-opacity="0.0" stroke="rgb(44,160,44)" stroke-width="1.2044583461533405" fill="rgb(0,0,0)" stroke-linecap="butt" stroke-miterlimit="10.0">
    <path d="M 255.9668,162.6037 h 6.6634 "/>
  </g>
  <g stroke-linejoin="miter" stroke-opacity="1.0" fill-opacity="0.63" stroke="rgb(0,0,0)" fill-rule="evenodd" stroke-width="0.0" fill="rgb(0,0,0)" stroke-linecap="butt" stroke-miterlimit="10.0">
    <path d="M 265.2956,151.6091 ZM 266.0305,151.0521 v -3.8754 c 0.0000,-0.4409 -0.0774,-0.5647 -0.2321 -0.5647l -0.2475,0.0309 c -0.0232,-0.0000 -0.0464,-0.0155 -0.0464 -0.0387l -0.0155,-0.1934 c 0.1238,-0.0000 0.4100,-0.0464 0.5415 -0.0696c 0.1392,-0.0309 0.2475,-0.0619 0.4022 -0.1315h 0.1702 v 4.8423 c 0.0000,0.2243 0.0851,0.3404 0.3326 0.3404h 0.1856 c 0.0309,-0.0000 0.0619,0.0232 0.0619 0.0619v 0.1470 l -0.0155,0.0155 c 0.0000,-0.0000 -0.5647,-0.0155 -0.8664 -0.0155c -0.2707,-0.0000 -0.8354,0.0155 -0.8354 0.0155l -0.0077,-0.0155 v -0.1470 c 0.0000,-0.0387 0.0155,-0.0619 0.0541 -0.0619h 0.1856 c 0.2553,-0.0000 0.3326,-0.1160 0.3326 -0.3404ZM 267.3068,151.6091 ZM 267.9101,147.1922 c 0.0000,-0.2011 0.1624,-0.3713 0.3636 -0.3713c 0.2089,-0.0000 0.3713,0.1702 0.3713 0.3713c 0.0000,0.2089 -0.1624,0.3713 -0.3713 0.3713c -0.2011,-0.0000 -0.3636,-0.1624 -0.3636 -0.3713ZM 267.9101,147.1922 ZM 268.6450,151.0521 c 0.0000,0.2243 0.0851,0.3404 0.3326 0.3404h 0.1470 c 0.0387,-0.0000 0.0696,0.0232 0.0696 0.0619v 0.1470 l -0.0155,0.0155 c 0.0000,-0.0000 -0.5337,-0.0155 -0.8354 -0.0155c -0.2707,-0.0000 -0.7967,0.0155 -0.7967 0.0155l -0.0155,-0.0155 v -0.1470 c 0.0000,-0.0387 0.0232,-0.0619 0.0619 -0.0619h 0.1470 c 0.2553,-0.0000 0.3326,-0.1160 0.3326 -0.3404v -1.9261 c 0.0000,-0.4100 -0.0696,-0.4719 -0.1779 -0.4719c -0.1006,-0.0000 -0.1934,0.0077 -0.3249 0.0387l -0.0387,-0.2166 c 0.4951,-0.0851 0.5801,-0.1160 0.8045 -0.2243c 0.0851,-0.0309 0.1392,-0.0619 0.1934 -0.0619h 0.1160 v 2.8621 ZM 269.3489,151.6091 ZM 272.1645,151.0521 v -1.6940 c 0.0000,-0.5415 -0.0928,-0.7967 -0.5028 -0.7967c -0.3404,-0.0000 -0.6343,0.1315 -1.0288 0.5956v 1.8951 c 0.0000,0.2243 0.0774,0.3404 0.3326 0.3404h 0.1083 c 0.0387,-0.0000 0.0619,0.0232 0.0619 0.0619v 0.1470 l -0.0155,0.0155 c 0.0000,-0.0000 -0.4873,-0.0155 -0.7890 -0.0155c -0.2785,-0.0000 -0.8045,0.0155 -0.8045 0.0155l -0.0155,-0.0155 v -0.1470 c 0.0000,-0.0387 0.0232,-0.0619 0.0619 -0.0619h 0.1470 c 0.2630,-0.0000 0.3326,-0.1160 0.3326 -0.3404v -1.9261 c 0.0000,-0.4177 -0.0619,-0.4719 -0.1702 -0.4719c -0.1006,-0.0000 -0.1934,0.0077 -0.3249 0.0387l -0.0387,-0.2166 c 0.3249,-0.0541 0.5569,-0.0928 0.7967 -0.2243c 0.0851,-0.0387 0.1470,-0.0619 0.2011 -0.0619h 0.1160 l -0.0232,0.6884 h 0.0232 c 0.4951,-0.5801 0.8664,-0.6884 1.2609 -0.6884c 0.6962,-0.0000 0.8431,0.5337 0.8431 1.2222v 1.6399 c 0.0000,0.2243 0.0851,0.3404 0.3326 0.3404h 0.1470 c 0.0387,-0.0000 0.0696,0.0232 0.0696 0.0619v 0.1470 l -0.0155,0.0155 c 0.0000,-0.0000 -0.5337,-0.0155 -0.8354 -0.0155c -0.2707,-0.0000 -0.7581,0.0155 -0.7581 0.0155l -0.0155,-0.0155 v -0.1470 c 0.0000,-0.0387 0.0232,-0.0619 0.0619 -0.0619h 0.1083 c 0.2553,-0.0000 0.3326,-0.1160 0.3326 -0.3404ZM 273.3713,151.6091 ZM 274.2531,149.4664 h 1.4233 c 0.0774,-0.0000 0.1083,-0.0387 0.1083 -0.1083c 0.0000,-0.7194 -0.3636,-0.9050 -0.6420 -0.9050c -0.1779,-0.0000 -0.7581,0.0696 -0.8896 1.0133ZM 274.2531,149.4664 ZM 276.2952,150.8897 l 0.1547,0.1238 c -0.2939,0.4022 -0.7503,0.6884 -1.3073 0.6884c -1.0597,-0.0000 -1.5084,-0.7890 -1.5084 -1.6321c 0.0000,-1.1758 0.7735,-1.8797 1.5084 -1.8797c 1.0211,-0.0000 1.2609,0.7967 1.2609 1.4465c 0.0000,0.0851 -0.0541,0.1315 -0.1392 0.1315h -2.0344 c -0.0077,0.0464 -0.0077,0.0928 -0.0077 0.1547c 0.0000,0.7890 0.5492,1.4001 1.1061 1.4001c 0.4254,-0.0000 0.6962,-0.1392 0.9669 -0.4332ZM 276.6820,151.6091 ZM 277.1306,148.1823 c 0.0000,-0.4409 0.4254,-1.0443 1.2376 -1.0443c 0.5956,-0.0000 1.2918,0.2243 1.2918 1.1139c 0.0000,0.5879 -0.3017,0.8818 -0.7194 1.2841l -0.7349,0.7116 c -0.0387,0.0387 -0.5569,0.5492 -0.5569 0.9128h 1.3150 c 0.2630,-0.0000 0.4022,-0.1315 0.5105 -0.5569l 0.1934,0.0309 l -0.1547,0.9746 h -2.3902 c 0.0000,-0.4332 0.0696,-0.7658 0.7890 -1.5006l 0.5415,-0.5337 c 0.4332,-0.4409 0.6111,-0.8199 0.6111 -1.2918c 0.0000,-0.7039 -0.4796,-0.9050 -0.7426 -0.9050c -0.5337,-0.0000 -0.6807,0.2785 -0.6807 0.4641c 0.0000,0.0619 0.0155,0.1238 0.0309 0.1779c 0.0155,0.0541 0.0309,0.1083 0.0309 0.1702c 0.0000,0.2011 -0.1547,0.2785 -0.2785 0.2785c -0.1702,-0.0000 -0.2939,-0.1315 -0.2939 -0.2862Z"/>
  </g>
  <g stroke-linejoin="miter" stroke-opacity="0.6" fill-opacity="0.0" stroke="rgb(255,127,14)" stroke-width="4.817833384613362" fill="rgb(0,0,0)" stroke-linecap="butt" stroke-miterlimit="10.0">
    <path d="M 255.9668,149.2769 h 6.6634 "/>
  </g>
  <g stroke-linejoin="miter" stroke-opacity="1.0" fill-opacity="0.63" stroke="rgb(0,0,0)" fill-rule="evenodd" stroke-width="0.0" fill="rgb(0,0,0)" stroke-linecap="butt" stroke-miterlimit="10.0">
    <path d="M 265.2956,138.2823 ZM 266.0305,137.7253 v -3.8754 c 0.0000,-0.4409 -0.0774,-0.5647 -0.2321 -0.5647l -0.2475,0.0309 c -0.0232,-0.0000 -0.0464,-0.0155 -0.0464 -0.0387l -0.0155,-0.1934 c 0.1238,-0.0000 0.4100,-0.0464 0.5415 -0.0696c 0.1392,-0.0309 0.2475,-0.0619 0.4022 -0.1315h 0.1702 v 4.8423 c 0.0000,0.2243 0.0851,0.3404 0.3326 0.3404h 0.1856 c 0.0309,-0.0000 0.0619,0.0232 0.0619 0.0619v 0.1470 l -0.0155,0.0155 c 0.0000,-0.0000 -0.5647,-0.0155 -0.8664 -0.0155c -0.2707,-0.0000 -0.8354,0.0155 -0.8354 0.0155l -0.0077,-0.0155 v -0.1470 c 0.0000,-0.0387 0.0155,-0.0619 0.0541 -0.0619h 0.1856 c 0.2553,-0.0000 0.3326,-0.1160 0.3326 -0.3404ZM 267.3068,138.2823 ZM 267.9101,133.8654 c 0.0000,-0.2011 0.1624,-0.3713 0.3636 -0.3713c 0.2089,-0.0000 0.3713,0.1702 0.3713 0.3713c 0.0000,0.2089 -0.1624,0.3713 -0.3713 0.3713c -0.2011,-0.0000 -0.3636,-0.1624 -0.3636 -0.3713ZM 267.9101,133.8654 ZM 268.6450,137.7253 c 0.0000,0.2243 0.0851,0.3404 0.3326 0.3404h 0.1470 c 0.0387,-0.0000 0.0696,0.0232 0.0696 0.0619v 0.1470 l -0.0155,0.0155 c 0.0000,-0.0000 -0.5337,-0.0155 -0.8354 -0.0155c -0.2707,-0.0000 -0.7967,0.0155 -0.7967 0.0155l -0.0155,-0.0155 v -0.1470 c 0.0000,-0.0387 0.0232,-0.0619 0.0619 -0.0619h 0.1470 c 0.2553,-0.0000 0.3326,-0.1160 0.3326 -0.3404v -1.9261 c 0.0000,-0.4100 -0.0696,-0.4719 -0.1779 -0.4719c -0.1006,-0.0000 -0.1934,0.0077 -0.3249 0.0387l -0.0387,-0.2166 c 0.4951,-0.0851 0.5801,-0.1160 0.8045 -0.2243c 0.0851,-0.0309 0.1392,-0.0619 0.1934 -0.0619h 0.1160 v 2.8621 ZM 269.3489,138.2823 ZM 272.1645,137.7253 v -1.6940 c 0.0000,-0.5415 -0.0928,-0.7967 -0.5028 -0.7967c -0.3404,-0.0000 -0.6343,0.1315 -1.0288 0.5956v 1.8951 c 0.0000,0.2243 0.0774,0.3404 0.3326 0.3404h 0.1083 c 0.0387,-0.0000 0.0619,0.0232 0.0619 0.0619v 0.1470 l -0.0155,0.0155 c 0.0000,-0.0000 -0.4873,-0.0155 -0.7890 -0.0155c -0.2785,-0.0000 -0.8045,0.0155 -0.8045 0.0155l -0.0155,-0.0155 v -0.1470 c 0.0000,-0.0387 0.0232,-0.0619 0.0619 -0.0619h 0.1470 c 0.2630,-0.0000 0.3326,-0.1160 0.3326 -0.3404v -1.9261 c 0.0000,-0.4177 -0.0619,-0.4719 -0.1702 -0.4719c -0.1006,-0.0000 -0.1934,0.0077 -0.3249 0.0387l -0.0387,-0.2166 c 0.3249,-0.0541 0.5569,-0.0928 0.7967 -0.2243c 0.0851,-0.0387 0.1470,-0.0619 0.2011 -0.0619h 0.1160 l -0.0232,0.6884 h 0.0232 c 0.4951,-0.5801 0.8664,-0.6884 1.2609 -0.6884c 0.6962,-0.0000 0.8431,0.5337 0.8431 1.2222v 1.6399 c 0.0000,0.2243 0.0851,0.3404 0.3326 0.3404h 0.1470 c 0.0387,-0.0000 0.0696,0.0232 0.0696 0.0619v 0.1470 l -0.0155,0.0155 c 0.0000,-0.0000 -0.5337,-0.0155 -0.8354 -0.0155c -0.2707,-0.0000 -0.7581,0.0155 -0.7581 0.0155l -0.0155,-0.0155 v -0.1470 c 0.0000,-0.0387 0.0232,-0.0619 0.0619 -0.0619h 0.1083 c 0.2553,-0.0000 0.3326,-0.1160 0.3326 -0.3404ZM 273.3713,138.2823 ZM 274.2531,136.1396 h 1.4233 c 0.0774,-0.0000 0.1083,-0.0387 0.1083 -0.1083c 0.0000,-0.7194 -0.3636,-0.9050 -0.6420 -0.9050c -0.1779,-0.0000 -0.7581,0.0696 -0.8896 1.0133ZM 274.2531,136.1396 ZM 276.2952,137.5629 l 0.1547,0.1238 c -0.2939,0.4022 -0.7503,0.6884 -1.3073 0.6884c -1.0597,-0.0000 -1.5084,-0.7890 -1.5084 -1.6321c 0.0000,-1.1758 0.7735,-1.8797 1.5084 -1.8797c 1.0211,-0.0000 1.2609,0.7967 1.2609 1.4465c 0.0000,0.0851 -0.0541,0.1315 -0.1392 0.1315h -2.0344 c -0.0077,0.0464 -0.0077,0.0928 -0.0077 0.1547c 0.0000,0.7890 0.5492,1.4001 1.1061 1.4001c 0.4254,-0.0000 0.6962,-0.1392 0.9669 -0.4332ZM 276.6820,138.2823 ZM 278.1362,134.5925 c -0.1470,-0.0000 -0.4873,0.1392 -0.6575 0.2166l -0.0928,-0.2398 c 0.6807,-0.3171 0.9437,-0.4796 1.3305 -0.7581h 0.1470 v 3.8909 c 0.0000,0.2785 0.0387,0.3558 0.2939 0.3558h 0.4022 c 0.0232,-0.0000 0.0619,0.0155 0.0619 0.0619v 0.1702 l -1.0597,-0.0155 l -1.0752,0.0155 v -0.1702 c 0.0077,-0.0232 0.0155,-0.0619 0.0619 -0.0619h 0.4641 c 0.2939,-0.0000 0.2939,-0.1315 0.2939 -0.3558v -2.6609 c 0.0000,-0.2630 0.0000,-0.4486 -0.1702 -0.4486Z"/>
  </g>
  <g stroke-linejoin="miter" stroke-opacity="0.6" fill-opacity="0.0" stroke="rgb(31,119,180)" stroke-width="2.408916692306681" fill="rgb(0,0,0)" stroke-linecap="butt" stroke-miterlimit="10.0">
    <path d="M 255.9668,135.9501 h 6.6634 "/>
  </g>
  <g stroke-linejoin="miter" stroke-opacity="0.2" fill-opacity="0.0" stroke="rgb(0,0,0)" stroke-width="0.48178333846133614" fill="rgb(0,0,0)" stroke-linecap="butt" stroke-miterlimit="10.0">
    <path d="M 281.2752,169.1484 l -0.0000,-39.5806 h -26.5135 l -0.0000,39.5806 Z"/>
  </g>
  <g stroke-linejoin="miter" stroke-opacity="0.0" fill-opacity="0.1" stroke="rgb(0,0,0)" stroke-width="0.0" fill="rgb(0,0,0)" stroke-linecap="butt" stroke-miterlimit="10.0">
    <path d="M 33.1852,169.1484 l -0.0000,-133.2681 h -2.6654 l -0.0000,133.2681 Z"/>
  </g>
  <g stroke-linejoin="miter" stroke-opacity="1.0" fill-opacity="0.6" stroke="rgb(0,0,0)" fill-rule="evenodd" stroke-width="0.0" fill="rgb(0,0,0)" stroke-linecap="butt" stroke-miterlimit="10.0">
    <path d="M 17.5079,38.5457 ZM 20.2396,37.0516 c 0.0000,-0.9106 -0.4951,-1.3614 -1.0432 -1.3614c -0.4067,-0.0000 -0.7161,0.0619 -1.0608 0.2033l 0.2829,-2.4134 c 0.2917,0.0265 0.5923,0.0354 0.9017 0.0354c 0.4420,-0.0000 0.9017,-0.0265 1.3791 -0.0796l 0.0530,0.0265 l -0.1326,0.5746 c -0.3448,0.0354 -0.6277,0.0442 -0.8752 0.0442c -0.3978,-0.0000 -0.6984,-0.0354 -1.0078 -0.0707l -0.1680,1.3968 c 0.1856,-0.0707 0.5039,-0.1326 0.8487 -0.1326c 0.9371,-0.0000 1.4587,0.8133 1.4587 1.6266c 0.0000,0.9901 -0.6895,1.7504 -1.6885 1.7504c -0.5039,-0.0000 -1.2376,-0.2829 -1.2376 -0.6277c 0.0000,-0.1680 0.1414,-0.2829 0.3006 -0.2829c 0.1768,-0.0000 0.2917,0.1326 0.3978 0.2741c 0.1326,0.1591 0.2741,0.3359 0.5569 0.3359c 0.5658,-0.0000 1.0343,-0.5304 1.0343 -1.2995ZM 21.3800,38.5457 ZM 21.8839,38.1832 c 0.0000,-0.2564 0.2122,-0.4685 0.4685 -0.4685c 0.2564,-0.0000 0.4685,0.2122 0.4685 0.4685c 0.0000,0.2564 -0.2122,0.4685 -0.4685 0.4685c -0.2564,-0.0000 -0.4685,-0.2122 -0.4685 -0.4685ZM 23.3160,38.5457 ZM 25.2521,33.7453 c -0.3801,-0.0000 -0.9371,0.3713 -0.9371 2.4311c 0.0000,0.7249 0.1326,2.1836 0.9106 2.1836c 0.1503,-0.0000 0.5746,-0.0972 0.7603 -0.7868c 0.1149,-0.4243 0.1768,-0.9548 0.1768 -1.7239c 0.0000,-1.1227 -0.2829,-1.7504 -0.5393 -1.9714c -0.0972,-0.0884 -0.2298,-0.1326 -0.3713 -0.1326ZM 25.2521,33.7453 ZM 25.2167,38.6517 c -0.9459,-0.0000 -1.5824,-1.2111 -1.5824 -2.5637c 0.0000,-1.6531 0.7868,-2.6521 1.6178 -2.6521c 0.3801,-0.0000 0.7603,0.2387 1.0166 0.5835c 0.3713,0.4951 0.5658,1.1581 0.5658 1.9891c 0.0000,1.9626 -0.9724,2.6433 -1.6178 2.6433Z"/>
  </g>
  <g stroke-linejoin="miter" stroke-opacity="0.6" fill-opacity="0.0" stroke="rgb(0,0,0)" stroke-width="1.2044583461533405" fill="rgb(0,0,0)" stroke-linecap="butt" stroke-miterlimit="10.0">
    <path d="M 29.1871,35.8803 h 3.9980 "/>
  </g>
  <g stroke-linejoin="miter" stroke-opacity="1.0" fill-opacity="0.6" stroke="rgb(0,0,0)" fill-rule="evenodd" stroke-width="0.0" fill="rgb(0,0,0)" stroke-linecap="butt" stroke-miterlimit="10.0">
    <path d="M 17.5079,51.8725 ZM 19.7887,48.7341 c 0.0000,-0.0619 0.0088,-0.1326 0.0884 -0.1768c 0.0972,-0.0707 0.2564,-0.1503 0.3890 -0.1503c 0.1149,-0.0000 0.1238,0.0972 0.1238 0.2741v 1.4233 h 0.7161 l -0.0530,0.4155 h -0.6630 v 0.7337 c 0.0000,0.2475 0.0354,0.3713 0.2917 0.3713h 0.2387 c 0.0530,-0.0000 0.0619,0.0442 0.0619 0.0619v 0.1945 c 0.0000,-0.0000 -0.5658,-0.0177 -0.9371 -0.0177c -0.3359,-0.0000 -0.8575,0.0177 -0.8575 0.0177v -0.1945 c 0.0000,-0.0177 0.0088,-0.0619 0.0619 -0.0619h 0.2387 c 0.2741,-0.0000 0.3006,-0.1149 0.3006 -0.3713v -0.7337 h -1.7327 c -0.0354,-0.0000 -0.0530,-0.0177 -0.0796 -0.0530l -0.0707,-0.0972 l -0.1061,-0.1856 c -0.0088,-0.0000 -0.0088,-0.0088 -0.0088 -0.0177c 0.0000,-0.0088 0.0088,-0.0177 0.0177 -0.0265c 0.5746,-0.6365 1.5913,-2.6079 1.9095 -3.3328c 0.0088,-0.0354 0.0265,-0.0442 0.0619 -0.0442c 0.0088,-0.0000 0.2033,0.0796 0.3094 0.0972c -0.3978,1.0697 -1.0520,2.2189 -1.6973 3.2444h 1.3968 v -1.3703 ZM 21.3800,51.8725 ZM 21.8839,51.5100 c 0.0000,-0.2564 0.2122,-0.4685 0.4685 -0.4685c 0.2564,-0.0000 0.4685,0.2122 0.4685 0.4685c 0.0000,0.2564 -0.2122,0.4685 -0.4685 0.4685c -0.2564,-0.0000 -0.4685,-0.2122 -0.4685 -0.4685ZM 23.3160,51.8725 ZM 26.0477,50.3784 c 0.0000,-0.9106 -0.4951,-1.3614 -1.0432 -1.3614c -0.4067,-0.0000 -0.7161,0.0619 -1.0608 0.2033l 0.2829,-2.4134 c 0.2917,0.0265 0.5923,0.0354 0.9017 0.0354c 0.4420,-0.0000 0.9017,-0.0265 1.3791 -0.0796l 0.0530,0.0265 l -0.1326,0.5746 c -0.3448,0.0354 -0.6277,0.0442 -0.8752 0.0442c -0.3978,-0.0000 -0.6984,-0.0354 -1.0078 -0.0707l -0.1680,1.3968 c 0.1856,-0.0707 0.5039,-0.1326 0.8487 -0.1326c 0.9371,-0.0000 1.4587,0.8133 1.4587 1.6266c 0.0000,0.9901 -0.6895,1.7504 -1.6885 1.7504c -0.5039,-0.0000 -1.2376,-0.2829 -1.2376 -0.6277c 0.0000,-0.1680 0.1414,-0.2829 0.3006 -0.2829c 0.1768,-0.0000 0.2917,0.1326 0.3978 0.2741c 0.1326,0.1591 0.2741,0.3359 0.5569 0.3359c 0.5658,-0.0000 1.0343,-0.5304 1.0343 -1.2995Z"/>
  </g>
  <g stroke-linejoin="miter" stroke-opacity="0.6" fill-opacity="0.0" stroke="rgb(0,0,0)" stroke-width="1.2044583461533405" fill="rgb(0,0,0)" stroke-linecap="butt" stroke-miterlimit="10.0">
    <path d="M 29.1871,49.2071 h 3.9980 "/>
  </g>
  <g stroke-linejoin="miter" stroke-opacity="1.0" fill-opacity="0.6" stroke="rgb(0,0,0)" fill-rule="evenodd" stroke-width="0.0" fill="rgb(0,0,0)" stroke-linecap="butt" stroke-miterlimit="10.0">
    <path d="M 17.5079,65.1993 ZM 19.7887,62.0610 c 0.0000,-0.0619 0.0088,-0.1326 0.0884 -0.1768c 0.0972,-0.0707 0.2564,-0.1503 0.3890 -0.1503c 0.1149,-0.0000 0.1238,0.0972 0.1238 0.2741v 1.4233 h 0.7161 l -0.0530,0.4155 h -0.6630 v 0.7337 c 0.0000,0.2475 0.0354,0.3713 0.2917 0.3713h 0.2387 c 0.0530,-0.0000 0.0619,0.0442 0.0619 0.0619v 0.1945 c 0.0000,-0.0000 -0.5658,-0.0177 -0.9371 -0.0177c -0.3359,-0.0000 -0.8575,0.0177 -0.8575 0.0177v -0.1945 c 0.0000,-0.0177 0.0088,-0.0619 0.0619 -0.0619h 0.2387 c 0.2741,-0.0000 0.3006,-0.1149 0.3006 -0.3713v -0.7337 h -1.7327 c -0.0354,-0.0000 -0.0530,-0.0177 -0.0796 -0.0530l -0.0707,-0.0972 l -0.1061,-0.1856 c -0.0088,-0.0000 -0.0088,-0.0088 -0.0088 -0.0177c 0.0000,-0.0088 0.0088,-0.0177 0.0177 -0.0265c 0.5746,-0.6365 1.5913,-2.6079 1.9095 -3.3328c 0.0088,-0.0354 0.0265,-0.0442 0.0619 -0.0442c 0.0088,-0.0000 0.2033,0.0796 0.3094 0.0972c -0.3978,1.0697 -1.0520,2.2189 -1.6973 3.2444h 1.3968 v -1.3703 ZM 21.3800,65.1993 ZM 21.8839,64.8368 c 0.0000,-0.2564 0.2122,-0.4685 0.4685 -0.4685c 0.2564,-0.0000 0.4685,0.2122 0.4685 0.4685c 0.0000,0.2564 -0.2122,0.4685 -0.4685 0.4685c -0.2564,-0.0000 -0.4685,-0.2122 -0.4685 -0.4685ZM 23.3160,65.1993 ZM 25.2521,60.3990 c -0.3801,-0.0000 -0.9371,0.3713 -0.9371 2.4311c 0.0000,0.7249 0.1326,2.1836 0.9106 2.1836c 0.1503,-0.0000 0.5746,-0.0972 0.7603 -0.7868c 0.1149,-0.4243 0.1768,-0.9548 0.1768 -1.7239c 0.0000,-1.1227 -0.2829,-1.7504 -0.5393 -1.9714c -0.0972,-0.0884 -0.2298,-0.1326 -0.3713 -0.1326ZM 25.2521,60.3990 ZM 25.2167,65.3054 c -0.9459,-0.0000 -1.5824,-1.2111 -1.5824 -2.5637c 0.0000,-1.6531 0.7868,-2.6521 1.6178 -2.6521c 0.3801,-0.0000 0.7603,0.2387 1.0166 0.5835c 0.3713,0.4951 0.5658,1.1581 0.5658 1.9891c 0.0000,1.9626 -0.9724,2.6433 -1.6178 2.6433Z"/>
  </g>
  <g stroke-linejoin="miter" stroke-opacity="0.6" fill-opacity="0.0" stroke="rgb(0,0,0)" stroke-width="1.2044583461533405" fill="rgb(0,0,0)" stroke-linecap="butt" stroke-miterlimit="10.0">
    <path d="M 29.1871,62.5339 h 3.9980 "/>
  </g>
  <g stroke-linejoin="miter" stroke-opacity="1.0" fill-opacity="0.6" stroke="rgb(0,0,0)" fill-rule="evenodd" stroke-width="0.0" fill="rgb(0,0,0)" stroke-linecap="butt" stroke-miterlimit="10.0">
    <path d="M 17.5079,78.5261 ZM 19.4174,73.6904 c -0.2210,-0.0000 -0.8664,0.1238 -0.8664 0.6630c 0.0000,0.1591 -0.0619,0.4332 -0.3006 0.4332c -0.2298,-0.0000 -0.2475,-0.2564 -0.2475 -0.2829c 0.0000,-0.2741 0.3625,-1.0874 1.5913 -1.0874c 0.8575,-0.0000 1.1139,0.5393 1.1139 0.8929c 0.0000,0.2210 -0.0707,0.6630 -0.8664 1.1669c 0.4951,0.0796 1.1492,0.4420 1.1492 1.3614c 0.0000,1.1669 -0.8840,1.7946 -1.8830 1.7946c -0.5039,-0.0000 -1.2111,-0.2210 -1.2111 -0.5569c 0.0000,-0.1326 0.1326,-0.2829 0.3094 -0.2829c 0.1680,-0.0000 0.2475,0.0884 0.3271 0.2033c 0.0972,0.1503 0.2564,0.3625 0.6807 0.3625c 0.2917,-0.0000 1.1227,-0.2917 1.1227 -1.4056c 0.0000,-0.9459 -0.6630,-1.0962 -1.1404 -1.0962c -0.0796,-0.0000 -0.1768,0.0177 -0.2741 0.0354l -0.0354,-0.2652 c 0.6807,-0.1149 1.2465,-0.7779 1.2465 -1.1846c 0.0000,-0.5039 -0.3536,-0.7514 -0.7161 -0.7514ZM 21.3800,78.5261 ZM 21.8839,78.1636 c 0.0000,-0.2564 0.2122,-0.4685 0.4685 -0.4685c 0.2564,-0.0000 0.4685,0.2122 0.4685 0.4685c 0.0000,0.2564 -0.2122,0.4685 -0.4685 0.4685c -0.2564,-0.0000 -0.4685,-0.2122 -0.4685 -0.4685ZM 23.3160,78.5261 ZM 26.0477,77.0321 c 0.0000,-0.9106 -0.4951,-1.3614 -1.0432 -1.3614c -0.4067,-0.0000 -0.7161,0.0619 -1.0608 0.2033l 0.2829,-2.4134 c 0.2917,0.0265 0.5923,0.0354 0.9017 0.0354c 0.4420,-0.0000 0.9017,-0.0265 1.3791 -0.0796l 0.0530,0.0265 l -0.1326,0.5746 c -0.3448,0.0354 -0.6277,0.0442 -0.8752 0.0442c -0.3978,-0.0000 -0.6984,-0.0354 -1.0078 -0.0707l -0.1680,1.3968 c 0.1856,-0.0707 0.5039,-0.1326 0.8487 -0.1326c 0.9371,-0.0000 1.4587,0.8133 1.4587 1.6266c 0.0000,0.9901 -0.6895,1.7504 -1.6885 1.7504c -0.5039,-0.0000 -1.2376,-0.2829 -1.2376 -0.6277c 0.0000,-0.1680 0.1414,-0.2829 0.3006 -0.2829c 0.1768,-0.0000 0.2917,0.1326 0.3978 0.2741c 0.1326,0.1591 0.2741,0.3359 0.5569 0.3359c 0.5658,-0.0000 1.0343,-0.5304 1.0343 -1.2995Z"/>
  </g>
  <g stroke-linejoin="miter" stroke-opacity="0.6" fill-opacity="0.0" stroke="rgb(0,0,0)" stroke-width="1.2044583461533405" fill="rgb(0,0,0)" stroke-linecap="butt" stroke-miterlimit="10.0">
    <path d="M 29.1871,75.8607 h 3.9980 "/>
  </g>
  <g stroke-linejoin="miter" stroke-opacity="1.0" fill-opacity="0.6" stroke="rgb(0,0,0)" fill-rule="evenodd" stroke-width="0.0" fill="rgb(0,0,0)" stroke-linecap="butt" stroke-miterlimit="10.0">
    <path d="M 17.5079,91.8529 ZM 19.4174,87.0172 c -0.2210,-0.0000 -0.8664,0.1238 -0.8664 0.6630c 0.0000,0.1591 -0.0619,0.4332 -0.3006 0.4332c -0.2298,-0.0000 -0.2475,-0.2564 -0.2475 -0.2829c 0.0000,-0.2741 0.3625,-1.0874 1.5913 -1.0874c 0.8575,-0.0000 1.1139,0.5393 1.1139 0.8929c 0.0000,0.2210 -0.0707,0.6630 -0.8664 1.1669c 0.4951,0.0796 1.1492,0.4420 1.1492 1.3614c 0.0000,1.1669 -0.8840,1.7946 -1.8830 1.7946c -0.5039,-0.0000 -1.2111,-0.2210 -1.2111 -0.5569c 0.0000,-0.1326 0.1326,-0.2829 0.3094 -0.2829c 0.1680,-0.0000 0.2475,0.0884 0.3271 0.2033c 0.0972,0.1503 0.2564,0.3625 0.6807 0.3625c 0.2917,-0.0000 1.1227,-0.2917 1.1227 -1.4056c 0.0000,-0.9459 -0.6630,-1.0962 -1.1404 -1.0962c -0.0796,-0.0000 -0.1768,0.0177 -0.2741 0.0354l -0.0354,-0.2652 c 0.6807,-0.1149 1.2465,-0.7779 1.2465 -1.1846c 0.0000,-0.5039 -0.3536,-0.7514 -0.7161 -0.7514ZM 21.3800,91.8529 ZM 21.8839,91.4905 c 0.0000,-0.2564 0.2122,-0.4685 0.4685 -0.4685c 0.2564,-0.0000 0.4685,0.2122 0.4685 0.4685c 0.0000,0.2564 -0.2122,0.4685 -0.4685 0.4685c -0.2564,-0.0000 -0.4685,-0.2122 -0.4685 -0.4685ZM 23.3160,91.8529 ZM 25.2521,87.0526 c -0.3801,-0.0000 -0.9371,0.3713 -0.9371 2.4311c 0.0000,0.7249 0.1326,2.1836 0.9106 2.1836c 0.1503,-0.0000 0.5746,-0.0972 0.7603 -0.7868c 0.1149,-0.4243 0.1768,-0.9548 0.1768 -1.7239c 0.0000,-1.1227 -0.2829,-1.7504 -0.5393 -1.9714c -0.0972,-0.0884 -0.2298,-0.1326 -0.3713 -0.1326ZM 25.2521,87.0526 ZM 25.2167,91.9590 c -0.9459,-0.0000 -1.5824,-1.2111 -1.5824 -2.5637c 0.0000,-1.6531 0.7868,-2.6521 1.6178 -2.6521c 0.3801,-0.0000 0.7603,0.2387 1.0166 0.5835c 0.3713,0.4951 0.5658,1.1581 0.5658 1.9891c 0.0000,1.9626 -0.9724,2.6433 -1.6178 2.6433Z"/>
  </g>
  <g stroke-linejoin="miter" stroke-opacity="0.6" fill-opacity="0.0" stroke="rgb(0,0,0)" stroke-width="1.2044583461533405" fill="rgb(0,0,0)" stroke-linecap="butt" stroke-miterlimit="10.0">
    <path d="M 29.1871,89.1875 h 3.9980 "/>
  </g>
  <g stroke-linejoin="miter" stroke-opacity="1.0" fill-opacity="0.6" stroke="rgb(0,0,0)" fill-rule="evenodd" stroke-width="0.0" fill="rgb(0,0,0)" stroke-linecap="butt" stroke-miterlimit="10.0">
    <path d="M 17.5079,105.1797 ZM 18.0207,101.2635 c 0.0000,-0.5039 0.4862,-1.1934 1.4145 -1.1934c 0.6807,-0.0000 1.4763,0.2564 1.4763 1.2730c 0.0000,0.6719 -0.3448,1.0078 -0.8222 1.4675l -0.8398,0.8133 c -0.0442,0.0442 -0.6365,0.6277 -0.6365 1.0432h 1.5029 c 0.3006,-0.0000 0.4597,-0.1503 0.5835 -0.6365l 0.2210,0.0354 l -0.1768,1.1139 h -2.7317 c 0.0000,-0.4951 0.0796,-0.8752 0.9017 -1.7150l 0.6188,-0.6100 c 0.4951,-0.5039 0.6984,-0.9371 0.6984 -1.4763c 0.0000,-0.8045 -0.5481,-1.0343 -0.8487 -1.0343c -0.6100,-0.0000 -0.7779,0.3183 -0.7779 0.5304c 0.0000,0.0707 0.0177,0.1414 0.0354 0.2033c 0.0177,0.0619 0.0354,0.1238 0.0354 0.1945c 0.0000,0.2298 -0.1768,0.3183 -0.3183 0.3183c -0.1945,-0.0000 -0.3359,-0.1503 -0.3359 -0.3271ZM 21.3800,105.1797 ZM 21.8839,104.8173 c 0.0000,-0.2564 0.2122,-0.4685 0.4685 -0.4685c 0.2564,-0.0000 0.4685,0.2122 0.4685 0.4685c 0.0000,0.2564 -0.2122,0.4685 -0.4685 0.4685c -0.2564,-0.0000 -0.4685,-0.2122 -0.4685 -0.4685ZM 23.3160,105.1797 ZM 26.0477,103.6857 c 0.0000,-0.9106 -0.4951,-1.3614 -1.0432 -1.3614c -0.4067,-0.0000 -0.7161,0.0619 -1.0608 0.2033l 0.2829,-2.4134 c 0.2917,0.0265 0.5923,0.0354 0.9017 0.0354c 0.4420,-0.0000 0.9017,-0.0265 1.3791 -0.0796l 0.0530,0.0265 l -0.1326,0.5746 c -0.3448,0.0354 -0.6277,0.0442 -0.8752 0.0442c -0.3978,-0.0000 -0.6984,-0.0354 -1.0078 -0.0707l -0.1680,1.3968 c 0.1856,-0.0707 0.5039,-0.1326 0.8487 -0.1326c 0.9371,-0.0000 1.4587,0.8133 1.4587 1.6266c 0.0000,0.9901 -0.6895,1.7504 -1.6885 1.7504c -0.5039,-0.0000 -1.2376,-0.2829 -1.2376 -0.6277c 0.0000,-0.1680 0.1414,-0.2829 0.3006 -0.2829c 0.1768,-0.0000 0.2917,0.1326 0.3978 0.2741c 0.1326,0.1591 0.2741,0.3359 0.5569 0.3359c 0.5658,-0.0000 1.0343,-0.5304 1.0343 -1.2995Z"/>
  </g>
  <g stroke-linejoin="miter" stroke-opacity="0.6" fill-opacity="0.0" stroke="rgb(0,0,0)" stroke-width="1.2044583461533405" fill="rgb(0,0,0)" stroke-linecap="butt" stroke-miterlimit="10.0">
    <path d="M 29.1871,102.5144 h 3.9980 "/>
  </g>
  <g stroke-linejoin="miter" stroke-opacity="1.0" fill-opacity="0.6" stroke="rgb(0,0,0)" fill-rule="evenodd" stroke-width="0.0" fill="rgb(0,0,0)" stroke-linecap="butt" stroke-miterlimit="10.0">
    <path d="M 17.5079,118.5065 ZM 18.0207,114.5903 c 0.0000,-0.5039 0.4862,-1.1934 1.4145 -1.1934c 0.6807,-0.0000 1.4763,0.2564 1.4763 1.2730c 0.0000,0.6719 -0.3448,1.0078 -0.8222 1.4675l -0.8398,0.8133 c -0.0442,0.0442 -0.6365,0.6277 -0.6365 1.0432h 1.5029 c 0.3006,-0.0000 0.4597,-0.1503 0.5835 -0.6365l 0.2210,0.0354 l -0.1768,1.1139 h -2.7317 c 0.0000,-0.4951 0.0796,-0.8752 0.9017 -1.7150l 0.6188,-0.6100 c 0.4951,-0.5039 0.6984,-0.9371 0.6984 -1.4763c 0.0000,-0.8045 -0.5481,-1.0343 -0.8487 -1.0343c -0.6100,-0.0000 -0.7779,0.3183 -0.7779 0.5304c 0.0000,0.0707 0.0177,0.1414 0.0354 0.2033c 0.0177,0.0619 0.0354,0.1238 0.0354 0.1945c 0.0000,0.2298 -0.1768,0.3183 -0.3183 0.3183c -0.1945,-0.0000 -0.3359,-0.1503 -0.3359 -0.3271ZM 21.3800,118.5065 ZM 21.8839,118.1441 c 0.0000,-0.2564 0.2122,-0.4685 0.4685 -0.4685c 0.2564,-0.0000 0.4685,0.2122 0.4685 0.4685c 0.0000,0.2564 -0.2122,0.4685 -0.4685 0.4685c -0.2564,-0.0000 -0.4685,-0.2122 -0.4685 -0.4685ZM 23.3160,118.5065 ZM 25.2521,113.7062 c -0.3801,-0.0000 -0.9371,0.3713 -0.9371 2.4311c 0.0000,0.7249 0.1326,2.1836 0.9106 2.1836c 0.1503,-0.0000 0.5746,-0.0972 0.7603 -0.7868c 0.1149,-0.4243 0.1768,-0.9548 0.1768 -1.7239c 0.0000,-1.1227 -0.2829,-1.7504 -0.5393 -1.9714c -0.0972,-0.0884 -0.2298,-0.1326 -0.3713 -0.1326ZM 25.2521,113.7062 ZM 25.2167,118.6126 c -0.9459,-0.0000 -1.5824,-1.2111 -1.5824 -2.5637c 0.0000,-1.6531 0.7868,-2.6521 1.6178 -2.6521c 0.3801,-0.0000 0.7603,0.2387 1.0166 0.5835c 0.3713,0.4951 0.5658,1.1581 0.5658 1.9891c 0.0000,1.9626 -0.9724,2.6433 -1.6178 2.6433Z"/>
  </g>
  <g stroke-linejoin="miter" stroke-opacity="0.6" fill-opacity="0.0" stroke="rgb(0,0,0)" stroke-width="1.2044583461533405" fill="rgb(0,0,0)" stroke-linecap="butt" stroke-miterlimit="10.0">
    <path d="M 29.1871,115.8412 h 3.9980 "/>
  </g>
  <g stroke-linejoin="miter" stroke-opacity="1.0" fill-opacity="0.6" stroke="rgb(0,0,0)" fill-rule="evenodd" stroke-width="0.0" fill="rgb(0,0,0)" stroke-linecap="butt" stroke-miterlimit="10.0">
    <path d="M 17.5079,131.8333 ZM 19.1699,127.6165 c -0.1680,-0.0000 -0.5569,0.1591 -0.7514 0.2475l -0.1061,-0.2741 c 0.7779,-0.3625 1.0785,-0.5481 1.5205 -0.8664h 0.1680 v 4.4467 c 0.0000,0.3183 0.0442,0.4067 0.3359 0.4067h 0.4597 c 0.0265,-0.0000 0.0707,0.0177 0.0707 0.0707v 0.1945 l -1.2111,-0.0177 l -1.2288,0.0177 v -0.1945 c 0.0088,-0.0265 0.0177,-0.0707 0.0707 -0.0707h 0.5304 c 0.3359,-0.0000 0.3359,-0.1503 0.3359 -0.4067v -3.0411 c 0.0000,-0.3006 0.0000,-0.5127 -0.1945 -0.5127ZM 21.3800,131.8333 ZM 21.8839,131.4709 c 0.0000,-0.2564 0.2122,-0.4685 0.4685 -0.4685c 0.2564,-0.0000 0.4685,0.2122 0.4685 0.4685c 0.0000,0.2564 -0.2122,0.4685 -0.4685 0.4685c -0.2564,-0.0000 -0.4685,-0.2122 -0.4685 -0.4685ZM 23.3160,131.8333 ZM 26.0477,130.3393 c 0.0000,-0.9106 -0.4951,-1.3614 -1.0432 -1.3614c -0.4067,-0.0000 -0.7161,0.0619 -1.0608 0.2033l 0.2829,-2.4134 c 0.2917,0.0265 0.5923,0.0354 0.9017 0.0354c 0.4420,-0.0000 0.9017,-0.0265 1.3791 -0.0796l 0.0530,0.0265 l -0.1326,0.5746 c -0.3448,0.0354 -0.6277,0.0442 -0.8752 0.0442c -0.3978,-0.0000 -0.6984,-0.0354 -1.0078 -0.0707l -0.1680,1.3968 c 0.1856,-0.0707 0.5039,-0.1326 0.8487 -0.1326c 0.9371,-0.0000 1.4587,0.8133 1.4587 1.6266c 0.0000,0.9901 -0.6895,1.7504 -1.6885 1.7504c -0.5039,-0.0000 -1.2376,-0.2829 -1.2376 -0.6277c 0.0000,-0.1680 0.1414,-0.2829 0.3006 -0.2829c 0.1768,-0.0000 0.2917,0.1326 0.3978 0.2741c 0.1326,0.1591 0.2741,0.3359 0.5569 0.3359c 0.5658,-0.0000 1.0343,-0.5304 1.0343 -1.2995Z"/>
  </g>
  <g stroke-linejoin="miter" stroke-opacity="0.6" fill-opacity="0.0" stroke="rgb(0,0,0)" stroke-width="1.2044583461533405" fill="rgb(0,0,0)" stroke-linecap="butt" stroke-miterlimit="10.0">
    <path d="M 29.1871,129.1680 h 3.9980 "/>
  </g>
  <g stroke-linejoin="miter" stroke-opacity="1.0" fill-opacity="0.6" stroke="rgb(0,0,0)" fill-rule="evenodd" stroke-width="0.0" fill="rgb(0,0,0)" stroke-linecap="butt" stroke-miterlimit="10.0">
    <path d="M 17.5079,145.1602 ZM 19.1699,140.9433 c -0.1680,-0.0000 -0.5569,0.1591 -0.7514 0.2475l -0.1061,-0.2741 c 0.7779,-0.3625 1.0785,-0.5481 1.5205 -0.8664h 0.1680 v 4.4467 c 0.0000,0.3183 0.0442,0.4067 0.3359 0.4067h 0.4597 c 0.0265,-0.0000 0.0707,0.0177 0.0707 0.0707v 0.1945 l -1.2111,-0.0177 l -1.2288,0.0177 v -0.1945 c 0.0088,-0.0265 0.0177,-0.0707 0.0707 -0.0707h 0.5304 c 0.3359,-0.0000 0.3359,-0.1503 0.3359 -0.4067v -3.0411 c 0.0000,-0.3006 0.0000,-0.5127 -0.1945 -0.5127ZM 21.3800,145.1602 ZM 21.8839,144.7977 c 0.0000,-0.2564 0.2122,-0.4685 0.4685 -0.4685c 0.2564,-0.0000 0.4685,0.2122 0.4685 0.4685c 0.0000,0.2564 -0.2122,0.4685 -0.4685 0.4685c -0.2564,-0.0000 -0.4685,-0.2122 -0.4685 -0.4685ZM 23.3160,145.1602 ZM 25.2521,140.3599 c -0.3801,-0.0000 -0.9371,0.3713 -0.9371 2.4311c 0.0000,0.7249 0.1326,2.1836 0.9106 2.1836c 0.1503,-0.0000 0.5746,-0.0972 0.7603 -0.7868c 0.1149,-0.4243 0.1768,-0.9548 0.1768 -1.7239c 0.0000,-1.1227 -0.2829,-1.7504 -0.5393 -1.9714c -0.0972,-0.0884 -0.2298,-0.1326 -0.3713 -0.1326ZM 25.2521,140.3599 ZM 25.2167,145.2662 c -0.9459,-0.0000 -1.5824,-1.2111 -1.5824 -2.5637c 0.0000,-1.6531 0.7868,-2.6521 1.6178 -2.6521c 0.3801,-0.0000 0.7603,0.2387 1.0166 0.5835c 0.3713,0.4951 0.5658,1.1581 0.5658 1.9891c 0.0000,1.9626 -0.9724,2.6433 -1.6178 2.6433Z"/>
  </g>
  <g stroke-linejoin="miter" stroke-opacity="0.6" fill-opacity="0.0" stroke="rgb(0,0,0)" stroke-width="1.2044583461533405" fill="rgb(0,0,0)" stroke-linecap="butt" stroke-miterlimit="10.0">
    <path d="M 29.1871,142.4948 h 3.9980 "/>
  </g>
  <g stroke-linejoin="miter" stroke-opacity="1.0" fill-opacity="0.6" stroke="rgb(0,0,0)" fill-rule="evenodd" stroke-width="0.0" fill="rgb(0,0,0)" stroke-linecap="butt" stroke-miterlimit="10.0">
    <path d="M 17.5079,158.4870 ZM 19.4440,153.6867 c -0.3801,-0.0000 -0.9371,0.3713 -0.9371 2.4311c 0.0000,0.7249 0.1326,2.1836 0.9106 2.1836c 0.1503,-0.0000 0.5746,-0.0972 0.7603 -0.7868c 0.1149,-0.4243 0.1768,-0.9548 0.1768 -1.7239c 0.0000,-1.1227 -0.2829,-1.7504 -0.5393 -1.9714c -0.0972,-0.0884 -0.2298,-0.1326 -0.3713 -0.1326ZM 19.4440,153.6867 ZM 19.4086,158.5931 c -0.9459,-0.0000 -1.5824,-1.2111 -1.5824 -2.5637c 0.0000,-1.6531 0.7868,-2.6521 1.6178 -2.6521c 0.3801,-0.0000 0.7603,0.2387 1.0166 0.5835c 0.3713,0.4951 0.5658,1.1581 0.5658 1.9891c 0.0000,1.9626 -0.9724,2.6433 -1.6178 2.6433ZM 21.3800,158.4870 ZM 21.8839,158.1245 c 0.0000,-0.2564 0.2122,-0.4685 0.4685 -0.4685c 0.2564,-0.0000 0.4685,0.2122 0.4685 0.4685c 0.0000,0.2564 -0.2122,0.4685 -0.4685 0.4685c -0.2564,-0.0000 -0.4685,-0.2122 -0.4685 -0.4685ZM 23.3160,158.4870 ZM 26.0477,156.9930 c 0.0000,-0.9106 -0.4951,-1.3614 -1.0432 -1.3614c -0.4067,-0.0000 -0.7161,0.0619 -1.0608 0.2033l 0.2829,-2.4134 c 0.2917,0.0265 0.5923,0.0354 0.9017 0.0354c 0.4420,-0.0000 0.9017,-0.0265 1.3791 -0.0796l 0.0530,0.0265 l -0.1326,0.5746 c -0.3448,0.0354 -0.6277,0.0442 -0.8752 0.0442c -0.3978,-0.0000 -0.6984,-0.0354 -1.0078 -0.0707l -0.1680,1.3968 c 0.1856,-0.0707 0.5039,-0.1326 0.8487 -0.1326c 0.9371,-0.0000 1.4587,0.8133 1.4587 1.6266c 0.0000,0.9901 -0.6895,1.7504 -1.6885 1.7504c -0.5039,-0.0000 -1.2376,-0.2829 -1.2376 -0.6277c 0.0000,-0.1680 0.1414,-0.2829 0.3006 -0.2829c 0.1768,-0.0000 0.2917,0.1326 0.3978 0.2741c 0.1326,0.1591 0.2741,0.3359 0.5569 0.3359c 0.5658,-0.0000 1.0343,-0.5304 1.0343 -1.2995Z"/>
  </g>
  <g stroke-linejoin="miter" stroke-opacity="0.6" fill-opacity="0.0" stroke="rgb(0,0,0)" stroke-width="1.2044583461533405" fill="rgb(0,0,0)" stroke-linecap="butt" stroke-miterlimit="10.0">
    <path d="M 29.1871,155.8216 h 3.9980 "/>
  </g>
  <g stroke-linejoin="miter" stroke-opacity="1.0" fill-opacity="0.6" stroke="rgb(0,0,0)" fill-rule="evenodd" stroke-width="0.0" fill="rgb(0,0,0)" stroke-linecap="butt" stroke-miterlimit="10.0">
    <path d="M 17.5079,171.8138 ZM 19.4440,167.0135 c -0.3801,-0.0000 -0.9371,0.3713 -0.9371 2.4311c 0.0000,0.7249 0.1326,2.1836 0.9106 2.1836c 0.1503,-0.0000 0.5746,-0.0972 0.7603 -0.7868c 0.1149,-0.4243 0.1768,-0.9548 0.1768 -1.7239c 0.0000,-1.1227 -0.2829,-1.7504 -0.5393 -1.9714c -0.0972,-0.0884 -0.2298,-0.1326 -0.3713 -0.1326ZM 19.4440,167.0135 ZM 19.4086,171.9199 c -0.9459,-0.0000 -1.5824,-1.2111 -1.5824 -2.5637c 0.0000,-1.6531 0.7868,-2.6521 1.6178 -2.6521c 0.3801,-0.0000 0.7603,0.2387 1.0166 0.5835c 0.3713,0.4951 0.5658,1.1581 0.5658 1.9891c 0.0000,1.9626 -0.9724,2.6433 -1.6178 2.6433ZM 21.3800,171.8138 ZM 21.8839,171.4513 c 0.0000,-0.2564 0.2122,-0.4685 0.4685 -0.4685c 0.2564,-0.0000 0.4685,0.2122 0.4685 0.4685c 0.0000,0.2564 -0.2122,0.4685 -0.4685 0.4685c -0.2564,-0.0000 -0.4685,-0.2122 -0.4685 -0.4685ZM 23.3160,171.8138 ZM 25.2521,167.0135 c -0.3801,-0.0000 -0.9371,0.3713 -0.9371 2.4311c 0.0000,0.7249 0.1326,2.1836 0.9106 2.1836c 0.1503,-0.0000 0.5746,-0.0972 0.7603 -0.7868c 0.1149,-0.4243 0.1768,-0.9548 0.1768 -1.7239c 0.0000,-1.1227 -0.2829,-1.7504 -0.5393 -1.9714c -0.0972,-0.0884 -0.2298,-0.1326 -0.3713 -0.1326ZM 25.2521,167.0135 ZM 25.2167,171.9199 c -0.9459,-0.0000 -1.5824,-1.2111 -1.5824 -2.5637c 0.0000,-1.6531 0.7868,-2.6521 1.6178 -2.6521c 0.3801,-0.0000 0.7603,0.2387 1.0166 0.5835c 0.3713,0.4951 0.5658,1.1581 0.5658 1.9891c 0.0000,1.9626 -0.9724,2.6433 -1.6178 2.6433Z"/>
  </g>
  <g stroke-linejoin="miter" stroke-opacity="0.6" fill-opacity="0.0" stroke="rgb(0,0,0)" stroke-width="1.2044583461533405" fill="rgb(0,0,0)" stroke-linecap="butt" stroke-miterlimit="10.0">
    <path d="M 29.1871,169.1484 h 3.9980 "/>
  </g>
  <g stroke-linejoin="miter" stroke-opacity="0.0" fill-opacity="0.1" stroke="rgb(0,0,0)" stroke-width="0.0" fill="rgb(0,0,0)" stroke-linecap="butt" stroke-miterlimit="10.0">
    <path d="M 243.2582,177.1445 l -0.0000,-2.6654 h -199.9022 l -0.0000,2.6654 Z"/>
  </g>
  <g stroke-linejoin="miter" stroke-opacity="1.0" fill-opacity="0.6" stroke="rgb(0,0,0)" fill-rule="evenodd" stroke-width="0.0" fill="rgb(0,0,0)" stroke-linecap="butt" stroke-miterlimit="10.0">
    <path d="M 238.4181,188.3795 ZM 240.3276,183.5438 c -0.2210,-0.0000 -0.8664,0.1238 -0.8664 0.6630c 0.0000,0.1591 -0.0619,0.4332 -0.3006 0.4332c -0.2298,-0.0000 -0.2475,-0.2564 -0.2475 -0.2829c 0.0000,-0.2741 0.3625,-1.0874 1.5913 -1.0874c 0.8575,-0.0000 1.1139,0.5393 1.1139 0.8929c 0.0000,0.2210 -0.0707,0.6630 -0.8664 1.1669c 0.4951,0.0796 1.1492,0.4420 1.1492 1.3614c 0.0000,1.1669 -0.8840,1.7946 -1.8830 1.7946c -0.5039,-0.0000 -1.2111,-0.2210 -1.2111 -0.5569c 0.0000,-0.1326 0.1326,-0.2829 0.3094 -0.2829c 0.1680,-0.0000 0.2475,0.0884 0.3271 0.2033c 0.0972,0.1503 0.2564,0.3625 0.6807 0.3625c 0.2917,-0.0000 1.1227,-0.2917 1.1227 -1.4056c 0.0000,-0.9459 -0.6630,-1.0962 -1.1404 -1.0962c -0.0796,-0.0000 -0.1768,0.0177 -0.2741 0.0354l -0.0354,-0.2652 c 0.6807,-0.1149 1.2465,-0.7779 1.2465 -1.1846c 0.0000,-0.5039 -0.3536,-0.7514 -0.7161 -0.7514ZM 242.2902,188.3795 ZM 242.7941,188.0170 c 0.0000,-0.2564 0.2122,-0.4685 0.4685 -0.4685c 0.2564,-0.0000 0.4685,0.2122 0.4685 0.4685c 0.0000,0.2564 -0.2122,0.4685 -0.4685 0.4685c -0.2564,-0.0000 -0.4685,-0.2122 -0.4685 -0.4685ZM 244.2262,188.3795 ZM 246.1622,183.5792 c -0.3801,-0.0000 -0.9371,0.3713 -0.9371 2.4311c 0.0000,0.7249 0.1326,2.1836 0.9106 2.1836c 0.1503,-0.0000 0.5746,-0.0972 0.7603 -0.7868c 0.1149,-0.4243 0.1768,-0.9548 0.1768 -1.7239c 0.0000,-1.1227 -0.2829,-1.7504 -0.5393 -1.9714c -0.0972,-0.0884 -0.2298,-0.1326 -0.3713 -0.1326ZM 246.1622,183.5792 ZM 246.1269,188.4856 c -0.9459,-0.0000 -1.5824,-1.2111 -1.5824 -2.5637c 0.0000,-1.6531 0.7868,-2.6521 1.6178 -2.6521c 0.3801,-0.0000 0.7603,0.2387 1.0166 0.5835c 0.3713,0.4951 0.5658,1.1581 0.5658 1.9891c 0.0000,1.9626 -0.9724,2.6433 -1.6178 2.6433Z"/>
  </g>
  <g stroke-linejoin="miter" stroke-opacity="0.6" fill-opacity="0.0" stroke="rgb(0,0,0)" stroke-width="1.2044583461533405" fill="rgb(0,0,0)" stroke-linecap="butt" stroke-miterlimit="10.0">
    <path d="M 243.2582,174.4792 v 3.9980 "/>
  </g>
  <g stroke-linejoin="miter" stroke-opacity="1.0" fill-opacity="0.6" stroke="rgb(0,0,0)" fill-rule="evenodd" stroke-width="0.0" fill="rgb(0,0,0)" stroke-linecap="butt" stroke-miterlimit="10.0">
    <path d="M 205.1011,188.3795 ZM 205.6138,184.4632 c 0.0000,-0.5039 0.4862,-1.1934 1.4145 -1.1934c 0.6807,-0.0000 1.4763,0.2564 1.4763 1.2730c 0.0000,0.6719 -0.3448,1.0078 -0.8222 1.4675l -0.8398,0.8133 c -0.0442,0.0442 -0.6365,0.6277 -0.6365 1.0432h 1.5029 c 0.3006,-0.0000 0.4597,-0.1503 0.5835 -0.6365l 0.2210,0.0354 l -0.1768,1.1139 h -2.7317 c 0.0000,-0.4951 0.0796,-0.8752 0.9017 -1.7150l 0.6188,-0.6100 c 0.4951,-0.5039 0.6984,-0.9371 0.6984 -1.4763c 0.0000,-0.8045 -0.5481,-1.0343 -0.8487 -1.0343c -0.6100,-0.0000 -0.7779,0.3183 -0.7779 0.5304c 0.0000,0.0707 0.0177,0.1414 0.0354 0.2033c 0.0177,0.0619 0.0354,0.1238 0.0354 0.1945c 0.0000,0.2298 -0.1768,0.3183 -0.3183 0.3183c -0.1945,-0.0000 -0.3359,-0.1503 -0.3359 -0.3271ZM 208.9731,188.3795 ZM 209.4770,188.0170 c 0.0000,-0.2564 0.2122,-0.4685 0.4685 -0.4685c 0.2564,-0.0000 0.4685,0.2122 0.4685 0.4685c 0.0000,0.2564 -0.2122,0.4685 -0.4685 0.4685c -0.2564,-0.0000 -0.4685,-0.2122 -0.4685 -0.4685ZM 210.9092,188.3795 ZM 213.6408,186.8855 c 0.0000,-0.9106 -0.4951,-1.3614 -1.0432 -1.3614c -0.4067,-0.0000 -0.7161,0.0619 -1.0608 0.2033l 0.2829,-2.4134 c 0.2917,0.0265 0.5923,0.0354 0.9017 0.0354c 0.4420,-0.0000 0.9017,-0.0265 1.3791 -0.0796l 0.0530,0.0265 l -0.1326,0.5746 c -0.3448,0.0354 -0.6277,0.0442 -0.8752 0.0442c -0.3978,-0.0000 -0.6984,-0.0354 -1.0078 -0.0707l -0.1680,1.3968 c 0.1856,-0.0707 0.5039,-0.1326 0.8487 -0.1326c 0.9371,-0.0000 1.4587,0.8133 1.4587 1.6266c 0.0000,0.9901 -0.6895,1.7504 -1.6885 1.7504c -0.5039,-0.0000 -1.2376,-0.2829 -1.2376 -0.6277c 0.0000,-0.1680 0.1414,-0.2829 0.3006 -0.2829c 0.1768,-0.0000 0.2917,0.1326 0.3978 0.2741c 0.1326,0.1591 0.2741,0.3359 0.5569 0.3359c 0.5658,-0.0000 1.0343,-0.5304 1.0343 -1.2995Z"/>
  </g>
  <g stroke-linejoin="miter" stroke-opacity="0.6" fill-opacity="0.0" stroke="rgb(0,0,0)" stroke-width="1.2044583461533405" fill="rgb(0,0,0)" stroke-linecap="butt" stroke-miterlimit="10.0">
    <path d="M 209.9411,174.4792 v 3.9980 "/>
  </g>
  <g stroke-linejoin="miter" stroke-opacity="1.0" fill-opacity="0.6" stroke="rgb(0,0,0)" fill-rule="evenodd" stroke-width="0.0" fill="rgb(0,0,0)" stroke-linecap="butt" stroke-miterlimit="10.0">
    <path d="M 171.7840,188.3795 ZM 172.2968,184.4632 c 0.0000,-0.5039 0.4862,-1.1934 1.4145 -1.1934c 0.6807,-0.0000 1.4763,0.2564 1.4763 1.2730c 0.0000,0.6719 -0.3448,1.0078 -0.8222 1.4675l -0.8398,0.8133 c -0.0442,0.0442 -0.6365,0.6277 -0.6365 1.0432h 1.5029 c 0.3006,-0.0000 0.4597,-0.1503 0.5835 -0.6365l 0.2210,0.0354 l -0.1768,1.1139 h -2.7317 c 0.0000,-0.4951 0.0796,-0.8752 0.9017 -1.7150l 0.6188,-0.6100 c 0.4951,-0.5039 0.6984,-0.9371 0.6984 -1.4763c 0.0000,-0.8045 -0.5481,-1.0343 -0.8487 -1.0343c -0.6100,-0.0000 -0.7779,0.3183 -0.7779 0.5304c 0.0000,0.0707 0.0177,0.1414 0.0354 0.2033c 0.0177,0.0619 0.0354,0.1238 0.0354 0.1945c 0.0000,0.2298 -0.1768,0.3183 -0.3183 0.3183c -0.1945,-0.0000 -0.3359,-0.1503 -0.3359 -0.3271ZM 175.6561,188.3795 ZM 176.1600,188.0170 c 0.0000,-0.2564 0.2122,-0.4685 0.4685 -0.4685c 0.2564,-0.0000 0.4685,0.2122 0.4685 0.4685c 0.0000,0.2564 -0.2122,0.4685 -0.4685 0.4685c -0.2564,-0.0000 -0.4685,-0.2122 -0.4685 -0.4685ZM 177.5921,188.3795 ZM 179.5282,183.5792 c -0.3801,-0.0000 -0.9371,0.3713 -0.9371 2.4311c 0.0000,0.7249 0.1326,2.1836 0.9106 2.1836c 0.1503,-0.0000 0.5746,-0.0972 0.7603 -0.7868c 0.1149,-0.4243 0.1768,-0.9548 0.1768 -1.7239c 0.0000,-1.1227 -0.2829,-1.7504 -0.5393 -1.9714c -0.0972,-0.0884 -0.2298,-0.1326 -0.3713 -0.1326ZM 179.5282,183.5792 ZM 179.4928,188.4856 c -0.9459,-0.0000 -1.5824,-1.2111 -1.5824 -2.5637c 0.0000,-1.6531 0.7868,-2.6521 1.6178 -2.6521c 0.3801,-0.0000 0.7603,0.2387 1.0166 0.5835c 0.3713,0.4951 0.5658,1.1581 0.5658 1.9891c 0.0000,1.9626 -0.9724,2.6433 -1.6178 2.6433Z"/>
  </g>
  <g stroke-linejoin="miter" stroke-opacity="0.6" fill-opacity="0.0" stroke="rgb(0,0,0)" stroke-width="1.2044583461533405" fill="rgb(0,0,0)" stroke-linecap="butt" stroke-miterlimit="10.0">
    <path d="M 176.6241,174.4792 v 3.9980 "/>
  </g>
  <g stroke-linejoin="miter" stroke-opacity="1.0" fill-opacity="0.6" stroke="rgb(0,0,0)" fill-rule="evenodd" stroke-width="0.0" fill="rgb(0,0,0)" stroke-linecap="butt" stroke-miterlimit="10.0">
    <path d="M 138.4670,188.3795 ZM 140.1290,184.1626 c -0.1680,-0.0000 -0.5569,0.1591 -0.7514 0.2475l -0.1061,-0.2741 c 0.7779,-0.3625 1.0785,-0.5481 1.5205 -0.8664h 0.1680 v 4.4467 c 0.0000,0.3183 0.0442,0.4067 0.3359 0.4067h 0.4597 c 0.0265,-0.0000 0.0707,0.0177 0.0707 0.0707v 0.1945 l -1.2111,-0.0177 l -1.2288,0.0177 v -0.1945 c 0.0088,-0.0265 0.0177,-0.0707 0.0707 -0.0707h 0.5304 c 0.3359,-0.0000 0.3359,-0.1503 0.3359 -0.4067v -3.0411 c 0.0000,-0.3006 0.0000,-0.5127 -0.1945 -0.5127ZM 142.3391,188.3795 ZM 142.8430,188.0170 c 0.0000,-0.2564 0.2122,-0.4685 0.4685 -0.4685c 0.2564,-0.0000 0.4685,0.2122 0.4685 0.4685c 0.0000,0.2564 -0.2122,0.4685 -0.4685 0.4685c -0.2564,-0.0000 -0.4685,-0.2122 -0.4685 -0.4685ZM 144.2751,188.3795 ZM 147.0068,186.8855 c 0.0000,-0.9106 -0.4951,-1.3614 -1.0432 -1.3614c -0.4067,-0.0000 -0.7161,0.0619 -1.0608 0.2033l 0.2829,-2.4134 c 0.2917,0.0265 0.5923,0.0354 0.9017 0.0354c 0.4420,-0.0000 0.9017,-0.0265 1.3791 -0.0796l 0.0530,0.0265 l -0.1326,0.5746 c -0.3448,0.0354 -0.6277,0.0442 -0.8752 0.0442c -0.3978,-0.0000 -0.6984,-0.0354 -1.0078 -0.0707l -0.1680,1.3968 c 0.1856,-0.0707 0.5039,-0.1326 0.8487 -0.1326c 0.9371,-0.0000 1.4587,0.8133 1.4587 1.6266c 0.0000,0.9901 -0.6895,1.7504 -1.6885 1.7504c -0.5039,-0.0000 -1.2376,-0.2829 -1.2376 -0.6277c 0.0000,-0.1680 0.1414,-0.2829 0.3006 -0.2829c 0.1768,-0.0000 0.2917,0.1326 0.3978 0.2741c 0.1326,0.1591 0.2741,0.3359 0.5569 0.3359c 0.5658,-0.0000 1.0343,-0.5304 1.0343 -1.2995Z"/>
  </g>
  <g stroke-linejoin="miter" stroke-opacity="0.6" fill-opacity="0.0" stroke="rgb(0,0,0)" stroke-width="1.2044583461533405" fill="rgb(0,0,0)" stroke-linecap="butt" stroke-miterlimit="10.0">
    <path d="M 143.3071,174.4792 v 3.9980 "/>
  </g>
  <g stroke-linejoin="miter" stroke-opacity="1.0" fill-opacity="0.6" stroke="rgb(0,0,0)" fill-rule="evenodd" stroke-width="0.0" fill="rgb(0,0,0)" stroke-linecap="butt" stroke-miterlimit="10.0">
    <path d="M 105.1500,188.3795 ZM 106.8119,184.1626 c -0.1680,-0.0000 -0.5569,0.1591 -0.7514 0.2475l -0.1061,-0.2741 c 0.7779,-0.3625 1.0785,-0.5481 1.5205 -0.8664h 0.1680 v 4.4467 c 0.0000,0.3183 0.0442,0.4067 0.3359 0.4067h 0.4597 c 0.0265,-0.0000 0.0707,0.0177 0.0707 0.0707v 0.1945 l -1.2111,-0.0177 l -1.2288,0.0177 v -0.1945 c 0.0088,-0.0265 0.0177,-0.0707 0.0707 -0.0707h 0.5304 c 0.3359,-0.0000 0.3359,-0.1503 0.3359 -0.4067v -3.0411 c 0.0000,-0.3006 0.0000,-0.5127 -0.1945 -0.5127ZM 109.0220,188.3795 ZM 109.5259,188.0170 c 0.0000,-0.2564 0.2122,-0.4685 0.4685 -0.4685c 0.2564,-0.0000 0.4685,0.2122 0.4685 0.4685c 0.0000,0.2564 -0.2122,0.4685 -0.4685 0.4685c -0.2564,-0.0000 -0.4685,-0.2122 -0.4685 -0.4685ZM 110.9581,188.3795 ZM 112.8941,183.5792 c -0.3801,-0.0000 -0.9371,0.3713 -0.9371 2.4311c 0.0000,0.7249 0.1326,2.1836 0.9106 2.1836c 0.1503,-0.0000 0.5746,-0.0972 0.7603 -0.7868c 0.1149,-0.4243 0.1768,-0.9548 0.1768 -1.7239c 0.0000,-1.1227 -0.2829,-1.7504 -0.5393 -1.9714c -0.0972,-0.0884 -0.2298,-0.1326 -0.3713 -0.1326ZM 112.8941,183.5792 ZM 112.8587,188.4856 c -0.9459,-0.0000 -1.5824,-1.2111 -1.5824 -2.5637c 0.0000,-1.6531 0.7868,-2.6521 1.6178 -2.6521c 0.3801,-0.0000 0.7603,0.2387 1.0166 0.5835c 0.3713,0.4951 0.5658,1.1581 0.5658 1.9891c 0.0000,1.9626 -0.9724,2.6433 -1.6178 2.6433Z"/>
  </g>
  <g stroke-linejoin="miter" stroke-opacity="0.6" fill-opacity="0.0" stroke="rgb(0,0,0)" stroke-width="1.2044583461533405" fill="rgb(0,0,0)" stroke-linecap="butt" stroke-miterlimit="10.0">
    <path d="M 109.9900,174.4792 v 3.9980 "/>
  </g>
  <g stroke-linejoin="miter" stroke-opacity="1.0" fill-opacity="0.6" stroke="rgb(0,0,0)" fill-rule="evenodd" stroke-width="0.0" fill="rgb(0,0,0)" stroke-linecap="butt" stroke-miterlimit="10.0">
    <path d="M 71.8329,188.3795 ZM 73.7690,183.5792 c -0.3801,-0.0000 -0.9371,0.3713 -0.9371 2.4311c 0.0000,0.7249 0.1326,2.1836 0.9106 2.1836c 0.1503,-0.0000 0.5746,-0.0972 0.7603 -0.7868c 0.1149,-0.4243 0.1768,-0.9548 0.1768 -1.7239c 0.0000,-1.1227 -0.2829,-1.7504 -0.5393 -1.9714c -0.0972,-0.0884 -0.2298,-0.1326 -0.3713 -0.1326ZM 73.7690,183.5792 ZM 73.7336,188.4856 c -0.9459,-0.0000 -1.5824,-1.2111 -1.5824 -2.5637c 0.0000,-1.6531 0.7868,-2.6521 1.6178 -2.6521c 0.3801,-0.0000 0.7603,0.2387 1.0166 0.5835c 0.3713,0.4951 0.5658,1.1581 0.5658 1.9891c 0.0000,1.9626 -0.9724,2.6433 -1.6178 2.6433ZM 75.7050,188.3795 ZM 76.2089,188.0170 c 0.0000,-0.2564 0.2122,-0.4685 0.4685 -0.4685c 0.2564,-0.0000 0.4685,0.2122 0.4685 0.4685c 0.0000,0.2564 -0.2122,0.4685 -0.4685 0.4685c -0.2564,-0.0000 -0.4685,-0.2122 -0.4685 -0.4685ZM 77.6410,188.3795 ZM 80.3727,186.8855 c 0.0000,-0.9106 -0.4951,-1.3614 -1.0432 -1.3614c -0.4067,-0.0000 -0.7161,0.0619 -1.0608 0.2033l 0.2829,-2.4134 c 0.2917,0.0265 0.5923,0.0354 0.9017 0.0354c 0.4420,-0.0000 0.9017,-0.0265 1.3791 -0.0796l 0.0530,0.0265 l -0.1326,0.5746 c -0.3448,0.0354 -0.6277,0.0442 -0.8752 0.0442c -0.3978,-0.0000 -0.6984,-0.0354 -1.0078 -0.0707l -0.1680,1.3968 c 0.1856,-0.0707 0.5039,-0.1326 0.8487 -0.1326c 0.9371,-0.0000 1.4587,0.8133 1.4587 1.6266c 0.0000,0.9901 -0.6895,1.7504 -1.6885 1.7504c -0.5039,-0.0000 -1.2376,-0.2829 -1.2376 -0.6277c 0.0000,-0.1680 0.1414,-0.2829 0.3006 -0.2829c 0.1768,-0.0000 0.2917,0.1326 0.3978 0.2741c 0.1326,0.1591 0.2741,0.3359 0.5569 0.3359c 0.5658,-0.0000 1.0343,-0.5304 1.0343 -1.2995Z"/>
  </g>
  <g stroke-linejoin="miter" stroke-opacity="0.6" fill-opacity="0.0" stroke="rgb(0,0,0)" stroke-width="1.2044583461533405" fill="rgb(0,0,0)" stroke-linecap="butt" stroke-miterlimit="10.0">
    <path d="M 76.6730,174.4792 v 3.9980 "/>
  </g>
  <g stroke-linejoin="miter" stroke-opacity="1.0" fill-opacity="0.6" stroke="rgb(0,0,0)" fill-rule="evenodd" stroke-width="0.0" fill="rgb(0,0,0)" stroke-linecap="butt" stroke-miterlimit="10.0">
    <path d="M 38.5159,188.3795 ZM 40.4519,183.5792 c -0.3801,-0.0000 -0.9371,0.3713 -0.9371 2.4311c 0.0000,0.7249 0.1326,2.1836 0.9106 2.1836c 0.1503,-0.0000 0.5746,-0.0972 0.7603 -0.7868c 0.1149,-0.4243 0.1768,-0.9548 0.1768 -1.7239c 0.0000,-1.1227 -0.2829,-1.7504 -0.5393 -1.9714c -0.0972,-0.0884 -0.2298,-0.1326 -0.3713 -0.1326ZM 40.4519,183.5792 ZM 40.4166,188.4856 c -0.9459,-0.0000 -1.5824,-1.2111 -1.5824 -2.5637c 0.0000,-1.6531 0.7868,-2.6521 1.6178 -2.6521c 0.3801,-0.0000 0.7603,0.2387 1.0166 0.5835c 0.3713,0.4951 0.5658,1.1581 0.5658 1.9891c 0.0000,1.9626 -0.9724,2.6433 -1.6178 2.6433ZM 42.3880,188.3795 ZM 42.8919,188.0170 c 0.0000,-0.2564 0.2122,-0.4685 0.4685 -0.4685c 0.2564,-0.0000 0.4685,0.2122 0.4685 0.4685c 0.0000,0.2564 -0.2122,0.4685 -0.4685 0.4685c -0.2564,-0.0000 -0.4685,-0.2122 -0.4685 -0.4685ZM 44.3240,188.3795 ZM 46.2600,183.5792 c -0.3801,-0.0000 -0.9371,0.3713 -0.9371 2.4311c 0.0000,0.7249 0.1326,2.1836 0.9106 2.1836c 0.1503,-0.0000 0.5746,-0.0972 0.7603 -0.7868c 0.1149,-0.4243 0.1768,-0.9548 0.1768 -1.7239c 0.0000,-1.1227 -0.2829,-1.7504 -0.5393 -1.9714c -0.0972,-0.0884 -0.2298,-0.1326 -0.3713 -0.1326ZM 46.2600,183.5792 ZM 46.2247,188.4856 c -0.9459,-0.0000 -1.5824,-1.2111 -1.5824 -2.5637c 0.0000,-1.6531 0.7868,-2.6521 1.6178 -2.6521c 0.3801,-0.0000 0.7603,0.2387 1.0166 0.5835c 0.3713,0.4951 0.5658,1.1581 0.5658 1.9891c 0.0000,1.9626 -0.9724,2.6433 -1.6178 2.6433Z"/>
  </g>
  <g stroke-linejoin="miter" stroke-opacity="0.6" fill-opacity="0.0" stroke="rgb(0,0,0)" stroke-width="1.2044583461533405" fill="rgb(0,0,0)" stroke-linecap="butt" stroke-miterlimit="10.0">
    <path d="M 43.3560,174.4792 v 3.9980 "/>
  </g>
  <g stroke-linejoin="miter" stroke-opacity="0.0" fill-opacity="0.0" stroke="rgb(0,0,0)" stroke-width="0.0" fill="rgb(0,0,0)" stroke-linecap="butt" stroke-miterlimit="10.0">
    <path d="M 243.2582,169.1484 l -0.0000,-133.2681 h -199.9022 l -0.0000,133.2681 Z"/>
  </g>
</svg>