<?xml version="1.0" encoding="UTF-8"?>
<!DOCTYPE svg PUBLIC "-//W3C//DTD SVG 1.1//EN"
    "http://www.w3.org/Graphics/SVG/1.1/DTD/svg11.dtd">
<svg xmlns="http://www.w3.org/2000/svg" height="400.0000" stroke-opacity="1" viewBox="0 0 600 400" font-size="1" width="600.0000" xmlns:xlink="http://www.w3.org/1999/xlink" stroke="rgb(0,0,0)" version="1.1">
  <defs>
  </defs>
  <g stroke-linejoin="miter" stroke-opacity="1.0" fill-opacity="0.0" stroke="rgb(52,41,137)" stroke-width="4.824319146459295" fill="rgb(0,0,0)" stroke-linecap="butt" stroke-miterlimit="10.0">
    <path d="M 115.8698,90.6613 v 294.6083 "/>
  </g>
  <g stroke-linejoin="miter" stroke-opacity="1.0" fill-opacity="0.2" stroke="rgb(44,160,44)" stroke-width="2.4121595732296477" fill="rgb(16,75,16)" stroke-linecap="butt" stroke-miterlimit="10.0">
    <path d="M 130.6002,385.2696 c 0.0000,-8.1354 -6.5950,-14.7304 -14.7304 -14.7304c -8.1354,-0.0000 -14.7304,6.5950 -14.7304 14.7304c -0.0000,8.1354 6.5950,14.7304 14.7304 14.7304c 8.1354,0.0000 14.7304,-6.5950 14.7304 -14.7304Z"/>
  </g>
  <g stroke-linejoin="miter" stroke-opacity="1.0" fill-opacity="0.2" stroke="rgb(44,160,44)" stroke-width="2.4121595732296477" fill="rgb(16,75,16)" stroke-linecap="butt" stroke-miterlimit="10.0">
    <path d="M 130.6002,90.6613 c 0.0000,-8.1354 -6.5950,-14.7304 -14.7304 -14.7304c -8.1354,-0.0000 -14.7304,6.5950 -14.7304 14.7304c -0.0000,8.1354 6.5950,14.7304 14.7304 14.7304c 8.1354,0.0000 14.7304,-6.5950 14.7304 -14.7304Z"/>
  </g>
  <g stroke-linejoin="miter" stroke-opacity="0.6" fill-opacity="0.0" stroke="rgb(60,127,43)" stroke-width="14.472957439377884" fill="rgb(0,0,0)" stroke-linecap="butt" stroke-miterlimit="10.0">
    <path d="M 23.8047,385.2696 l 552.3906,-220.9562 "/>
  </g>
  <g stroke-linejoin="miter" stroke-opacity="1.0" fill-opacity="0.2" stroke="rgb(188,189,34)" stroke-width="2.4121595732296477" fill="rgb(89,90,11)" stroke-linecap="butt" stroke-miterlimit="10.0">
    <path d="M 590.9257,179.0438 l -0.0000,-29.4608 h -29.4608 l -0.0000,29.4608 Z"/>
  </g>
  <g stroke-linejoin="miter" stroke-opacity="1.0" fill-opacity="0.2" stroke="rgb(188,189,34)" stroke-width="2.4121595732296477" fill="rgb(89,90,11)" stroke-linecap="butt" stroke-miterlimit="10.0">
    <path d="M 38.5351,400.0000 l -0.0000,-29.4608 h -29.4608 l -0.0000,29.4608 Z"/>
  </g>
  <g stroke-linejoin="miter" stroke-opacity="0.6" fill-opacity="0.0" stroke="rgb(197,130,75)" stroke-width="7.236478719688942" fill="rgb(0,0,0)" stroke-linecap="butt" stroke-miterlimit="10.0">
    <path d="M 23.8047,311.6175 h 184.1302 l 184.1302,-294.6083 "/>
  </g>
  <g stroke-linejoin="miter" stroke-opacity="1.0" fill-opacity="0.2" stroke="rgb(227,119,194)" stroke-width="2.4121595732296477" fill="rgb(109,54,92)" stroke-linecap="butt" stroke-miterlimit="10.0">
    <path d="M 406.7955,25.5138 l -14.7304,-25.5138 l -14.7304,25.5138 Z"/>
  </g>
  <g stroke-linejoin="miter" stroke-opacity="1.0" fill-opacity="0.2" stroke="rgb(227,119,194)" stroke-width="2.4121595732296477" fill="rgb(109,54,92)" stroke-linecap="butt" stroke-miterlimit="10.0">
    <path d="M 222.6653,320.1221 l -14.7304,-25.5138 l -14.7304,25.5138 Z"/>
  </g>
  <g stroke-linejoin="miter" stroke-opacity="1.0" fill-opacity="0.2" stroke="rgb(227,119,194)" stroke-width="2.4121595732296477" fill="rgb(109,54,92)" stroke-linecap="butt" stroke-miterlimit="10.0">
    <path d="M 38.5351,320.1221 l -14.7304,-25.5138 l -14.7304,25.5138 Z"/>
  </g>
</svg>