<?xml version="1.0" encoding="UTF-8"?>
<!DOCTYPE svg PUBLIC "-//W3C//DTD SVG 1.1//EN"
    "http://www.w3.org/Graphics/SVG/1.1/DTD/svg11.dtd">
<svg xmlns="http://www.w3.org/2000/svg" height="150.0000" stroke-opacity="1" viewBox="0 0 450 150" font-size="1" width="450.0000" xmlns:xlink="http://www.w3.org/1999/xlink" stroke="rgb(0,0,0)" version="1.1">
  <defs>
  </defs>
  <g stroke-linejoin="miter" stroke-opacity="1.0" fill-opacity="0.4" stroke="rgb(102,102,102)" stroke-width="0.25124172005036327" fill="rgb(170,154,0)" stroke-linecap="butt" stroke-miterlimit="10.0">
    <path d="M 435.4080,11.7560 l -6.7874,-11.7560 l -6.7874,11.7560 Z"/>
  </g>
  <g stroke-linejoin="miter" stroke-opacity="1.0" fill-opacity="0.4" stroke="rgb(102,102,102)" stroke-width="0.25124172005036327" fill="rgb(170,154,0)" stroke-linecap="butt" stroke-miterlimit="10.0">
    <path d="M 421.8333,13.2392 l -6.7874,-11.7560 l -6.7874,11.7560 Z"/>
  </g>
  <g stroke-linejoin="miter" stroke-opacity="1.0" fill-opacity="0.4" stroke="rgb(102,102,102)" stroke-width="0.25124172005036327" fill="rgb(170,154,0)" stroke-linecap="butt" stroke-miterlimit="10.0">
    <path d="M 408.2586,17.6240 l -6.7874,-11.7560 l -6.7874,11.7560 Z"/>
  </g>
  <g stroke-linejoin="miter" stroke-opacity="1.0" fill-opacity="0.4" stroke="rgb(102,102,102)" stroke-width="0.25124172005036327" fill="rgb(170,154,0)" stroke-linecap="butt" stroke-miterlimit="10.0">
    <path d="M 394.6839,24.7187 l -6.7874,-11.7560 l -6.7874,11.7560 Z"/>
  </g>
  <g stroke-linejoin="miter" stroke-opacity="1.0" fill-opacity="0.4" stroke="rgb(102,102,102)" stroke-width="0.25124172005036327" fill="rgb(170,154,0)" stroke-linecap="butt" stroke-miterlimit="10.0">
    <path d="M 381.1092,34.2133 l -6.7874,-11.7560 l -6.7874,11.7560 Z"/>
  </g>
  <g stroke-linejoin="miter" stroke-opacity="1.0" fill-opacity="0.4" stroke="rgb(102,102,102)" stroke-width="0.25124172005036327" fill="rgb(170,154,0)" stroke-linecap="butt" stroke-miterlimit="10.0">
    <path d="M 367.5345,45.6928 l -6.7874,-11.7560 l -6.7874,11.7560 Z"/>
  </g>
  <g stroke-linejoin="miter" stroke-opacity="1.0" fill-opacity="0.4" stroke="rgb(102,102,102)" stroke-width="0.25124172005036327" fill="rgb(170,154,0)" stroke-linecap="butt" stroke-miterlimit="10.0">
    <path d="M 353.9597,58.6555 l -6.7874,-11.7560 l -6.7874,11.7560 Z"/>
  </g>
  <g stroke-linejoin="miter" stroke-opacity="1.0" fill-opacity="0.4" stroke="rgb(102,102,102)" stroke-width="0.25124172005036327" fill="rgb(170,154,0)" stroke-linecap="butt" stroke-miterlimit="10.0">
    <path d="M 340.3850,72.5349 l -6.7874,-11.7560 l -6.7874,11.7560 Z"/>
  </g>
  <g stroke-linejoin="miter" stroke-opacity="1.0" fill-opacity="0.4" stroke="rgb(102,102,102)" stroke-width="0.25124172005036327" fill="rgb(170,154,0)" stroke-linecap="butt" stroke-miterlimit="10.0">
    <path d="M 326.8103,86.7243 l -6.7874,-11.7560 l -6.7874,11.7560 Z"/>
  </g>
  <g stroke-linejoin="miter" stroke-opacity="1.0" fill-opacity="0.4" stroke="rgb(102,102,102)" stroke-width="0.25124172005036327" fill="rgb(170,154,0)" stroke-linecap="butt" stroke-miterlimit="10.0">
    <path d="M 313.2356,100.6037 l -6.7874,-11.7560 l -6.7874,11.7560 Z"/>
  </g>
  <g stroke-linejoin="miter" stroke-opacity="1.0" fill-opacity="0.4" stroke="rgb(102,102,102)" stroke-width="0.25124172005036327" fill="rgb(170,154,0)" stroke-linecap="butt" stroke-miterlimit="10.0">
    <path d="M 299.6609,113.5664 l -6.7874,-11.7560 l -6.7874,11.7560 Z"/>
  </g>
  <g stroke-linejoin="miter" stroke-opacity="1.0" fill-opacity="0.4" stroke="rgb(102,102,102)" stroke-width="0.25124172005036327" fill="rgb(170,154,0)" stroke-linecap="butt" stroke-miterlimit="10.0">
    <path d="M 286.0862,125.0459 l -6.7874,-11.7560 l -6.7874,11.7560 Z"/>
  </g>
  <g stroke-linejoin="miter" stroke-opacity="1.0" fill-opacity="0.4" stroke="rgb(102,102,102)" stroke-width="0.25124172005036327" fill="rgb(170,154,0)" stroke-linecap="butt" stroke-miterlimit="10.0">
    <path d="M 272.5115,134.5404 l -6.7874,-11.7560 l -6.7874,11.7560 Z"/>
  </g>
  <g stroke-linejoin="miter" stroke-opacity="1.0" fill-opacity="0.4" stroke="rgb(102,102,102)" stroke-width="0.25124172005036327" fill="rgb(170,154,0)" stroke-linecap="butt" stroke-miterlimit="10.0">
    <path d="M 258.9368,141.6352 l -6.7874,-11.7560 l -6.7874,11.7560 Z"/>
  </g>
  <g stroke-linejoin="miter" stroke-opacity="1.0" fill-opacity="0.4" stroke="rgb(102,102,102)" stroke-width="0.25124172005036327" fill="rgb(170,154,0)" stroke-linecap="butt" stroke-miterlimit="10.0">
    <path d="M 245.3621,146.0199 l -6.7874,-11.7560 l -6.7874,11.7560 Z"/>
  </g>
  <g stroke-linejoin="miter" stroke-opacity="1.0" fill-opacity="0.4" stroke="rgb(102,102,102)" stroke-width="0.25124172005036327" fill="rgb(170,154,0)" stroke-linecap="butt" stroke-miterlimit="10.0">
    <path d="M 231.7874,147.5031 l -6.7874,-11.7560 l -6.7874,11.7560 Z"/>
  </g>
  <g stroke-linejoin="miter" stroke-opacity="1.0" fill-opacity="0.4" stroke="rgb(102,102,102)" stroke-width="0.25124172005036327" fill="rgb(170,154,0)" stroke-linecap="butt" stroke-miterlimit="10.0">
    <path d="M 218.2126,146.0199 l -6.7874,-11.7560 l -6.7874,11.7560 Z"/>
  </g>
  <g stroke-linejoin="miter" stroke-opacity="1.0" fill-opacity="0.4" stroke="rgb(102,102,102)" stroke-width="0.25124172005036327" fill="rgb(170,154,0)" stroke-linecap="butt" stroke-miterlimit="10.0">
    <path d="M 204.6379,141.6352 l -6.7874,-11.7560 l -6.7874,11.7560 Z"/>
  </g>
  <g stroke-linejoin="miter" stroke-opacity="1.0" fill-opacity="0.4" stroke="rgb(102,102,102)" stroke-width="0.25124172005036327" fill="rgb(170,154,0)" stroke-linecap="butt" stroke-miterlimit="10.0">
    <path d="M 191.0632,134.5404 l -6.7874,-11.7560 l -6.7874,11.7560 Z"/>
  </g>
  <g stroke-linejoin="miter" stroke-opacity="1.0" fill-opacity="0.4" stroke="rgb(102,102,102)" stroke-width="0.25124172005036327" fill="rgb(170,154,0)" stroke-linecap="butt" stroke-miterlimit="10.0">
    <path d="M 177.4885,125.0459 l -6.7874,-11.7560 l -6.7874,11.7560 Z"/>
  </g>
  <g stroke-linejoin="miter" stroke-opacity="1.0" fill-opacity="0.4" stroke="rgb(102,102,102)" stroke-width="0.25124172005036327" fill="rgb(170,154,0)" stroke-linecap="butt" stroke-miterlimit="10.0">
    <path d="M 163.9138,113.5664 l -6.7874,-11.7560 l -6.7874,11.7560 Z"/>
  </g>
  <g stroke-linejoin="miter" stroke-opacity="1.0" fill-opacity="0.4" stroke="rgb(102,102,102)" stroke-width="0.25124172005036327" fill="rgb(170,154,0)" stroke-linecap="butt" stroke-miterlimit="10.0">
    <path d="M 150.3391,100.6037 l -6.7874,-11.7560 l -6.7874,11.7560 Z"/>
  </g>
  <g stroke-linejoin="miter" stroke-opacity="1.0" fill-opacity="0.4" stroke="rgb(102,102,102)" stroke-width="0.25124172005036327" fill="rgb(170,154,0)" stroke-linecap="butt" stroke-miterlimit="10.0">
    <path d="M 136.7644,86.7243 l -6.7874,-11.7560 l -6.7874,11.7560 Z"/>
  </g>
  <g stroke-linejoin="miter" stroke-opacity="1.0" fill-opacity="0.4" stroke="rgb(102,102,102)" stroke-width="0.25124172005036327" fill="rgb(170,154,0)" stroke-linecap="butt" stroke-miterlimit="10.0">
    <path d="M 123.1897,72.5349 l -6.7874,-11.7560 l -6.7874,11.7560 Z"/>
  </g>
  <g stroke-linejoin="miter" stroke-opacity="1.0" fill-opacity="0.4" stroke="rgb(102,102,102)" stroke-width="0.25124172005036327" fill="rgb(170,154,0)" stroke-linecap="butt" stroke-miterlimit="10.0">
    <path d="M 109.6150,58.6555 l -6.7874,-11.7560 l -6.7874,11.7560 Z"/>
  </g>
  <g stroke-linejoin="miter" stroke-opacity="1.0" fill-opacity="0.4" stroke="rgb(102,102,102)" stroke-width="0.25124172005036327" fill="rgb(170,154,0)" stroke-linecap="butt" stroke-miterlimit="10.0">
    <path d="M 96.0403,45.6928 l -6.7874,-11.7560 l -6.7874,11.7560 Z"/>
  </g>
  <g stroke-linejoin="miter" stroke-opacity="1.0" fill-opacity="0.4" stroke="rgb(102,102,102)" stroke-width="0.25124172005036327" fill="rgb(170,154,0)" stroke-linecap="butt" stroke-miterlimit="10.0">
    <path d="M 82.4655,34.2133 l -6.7874,-11.7560 l -6.7874,11.7560 Z"/>
  </g>
  <g stroke-linejoin="miter" stroke-opacity="1.0" fill-opacity="0.4" stroke="rgb(102,102,102)" stroke-width="0.25124172005036327" fill="rgb(170,154,0)" stroke-linecap="butt" stroke-miterlimit="10.0">
    <path d="M 68.8908,24.7187 l -6.7874,-11.7560 l -6.7874,11.7560 Z"/>
  </g>
  <g stroke-linejoin="miter" stroke-opacity="1.0" fill-opacity="0.4" stroke="rgb(102,102,102)" stroke-width="0.25124172005036327" fill="rgb(170,154,0)" stroke-linecap="butt" stroke-miterlimit="10.0">
    <path d="M 55.3161,17.6240 l -6.7874,-11.7560 l -6.7874,11.7560 Z"/>
  </g>
  <g stroke-linejoin="miter" stroke-opacity="1.0" fill-opacity="0.4" stroke="rgb(102,102,102)" stroke-width="0.25124172005036327" fill="rgb(170,154,0)" stroke-linecap="butt" stroke-miterlimit="10.0">
    <path d="M 41.7414,13.2392 l -6.7874,-11.7560 l -6.7874,11.7560 Z"/>
  </g>
  <g stroke-linejoin="miter" stroke-opacity="1.0" fill-opacity="0.4" stroke="rgb(102,102,102)" stroke-width="0.25124172005036327" fill="rgb(170,154,0)" stroke-linecap="butt" stroke-miterlimit="10.0">
    <path d="M 28.1667,11.7560 l -6.7874,-11.7560 l -6.7874,11.7560 Z"/>
  </g>
  <g stroke-linejoin="miter" stroke-opacity="1.0" fill-opacity="0.5" stroke="rgb(102,102,102)" stroke-width="0.25124172005036327" fill="rgb(93,165,218)" stroke-linecap="butt" stroke-miterlimit="10.0">
    <path d="M 435.4080,75.7109 c 0.0000,-3.7486 -3.0388,-6.7874 -6.7874 -6.7874c -3.7486,-0.0000 -6.7874,3.0388 -6.7874 6.7874c -0.0000,3.7486 3.0388,6.7874 6.7874 6.7874c 3.7486,0.0000 6.7874,-3.0388 6.7874 -6.7874Z"/>
  </g>
  <g stroke-linejoin="miter" stroke-opacity="1.0" fill-opacity="0.5" stroke="rgb(102,102,102)" stroke-width="0.25124172005036327" fill="rgb(93,165,218)" stroke-linecap="butt" stroke-miterlimit="10.0">
    <path d="M 421.8333,89.8226 c 0.0000,-3.7486 -3.0388,-6.7874 -6.7874 -6.7874c -3.7486,-0.0000 -6.7874,3.0388 -6.7874 6.7874c -0.0000,3.7486 3.0388,6.7874 6.7874 6.7874c 3.7486,0.0000 6.7874,-3.0388 6.7874 -6.7874Z"/>
  </g>
  <g stroke-linejoin="miter" stroke-opacity="1.0" fill-opacity="0.5" stroke="rgb(102,102,102)" stroke-width="0.25124172005036327" fill="rgb(93,165,218)" stroke-linecap="butt" stroke-miterlimit="10.0">
    <path d="M 408.2586,103.3176 c 0.0000,-3.7486 -3.0388,-6.7874 -6.7874 -6.7874c -3.7486,-0.0000 -6.7874,3.0388 -6.7874 6.7874c -0.0000,3.7486 3.0388,6.7874 6.7874 6.7874c 3.7486,0.0000 6.7874,-3.0388 6.7874 -6.7874Z"/>
  </g>
  <g stroke-linejoin="miter" stroke-opacity="1.0" fill-opacity="0.5" stroke="rgb(102,102,102)" stroke-width="0.25124172005036327" fill="rgb(93,165,218)" stroke-linecap="butt" stroke-miterlimit="10.0">
    <path d="M 394.6839,115.6060 c 0.0000,-3.7486 -3.0388,-6.7874 -6.7874 -6.7874c -3.7486,-0.0000 -6.7874,3.0388 -6.7874 6.7874c -0.0000,3.7486 3.0388,6.7874 6.7874 6.7874c 3.7486,0.0000 6.7874,-3.0388 6.7874 -6.7874Z"/>
  </g>
  <g stroke-linejoin="miter" stroke-opacity="1.0" fill-opacity="0.5" stroke="rgb(102,102,102)" stroke-width="0.25124172005036327" fill="rgb(93,165,218)" stroke-linecap="butt" stroke-miterlimit="10.0">
    <path d="M 381.1092,126.1508 c 0.0000,-3.7486 -3.0388,-6.7874 -6.7874 -6.7874c -3.7486,-0.0000 -6.7874,3.0388 -6.7874 6.7874c -0.0000,3.7486 3.0388,6.7874 6.7874 6.7874c 3.7486,0.0000 6.7874,-3.0388 6.7874 -6.7874Z"/>
  </g>
  <g stroke-linejoin="miter" stroke-opacity="1.0" fill-opacity="0.5" stroke="rgb(102,102,102)" stroke-width="0.25124172005036327" fill="rgb(93,165,218)" stroke-linecap="butt" stroke-miterlimit="10.0">
    <path d="M 367.5345,134.4911 c 0.0000,-3.7486 -3.0388,-6.7874 -6.7874 -6.7874c -3.7486,-0.0000 -6.7874,3.0388 -6.7874 6.7874c -0.0000,3.7486 3.0388,6.7874 6.7874 6.7874c 3.7486,0.0000 6.7874,-3.0388 6.7874 -6.7874Z"/>
  </g>
  <g stroke-linejoin="miter" stroke-opacity="1.0" fill-opacity="0.5" stroke="rgb(102,102,102)" stroke-width="0.25124172005036327" fill="rgb(93,165,218)" stroke-linecap="butt" stroke-miterlimit="10.0">
    <path d="M 353.9597,140.2625 c 0.0000,-3.7486 -3.0388,-6.7874 -6.7874 -6.7874c -3.7486,-0.0000 -6.7874,3.0388 -6.7874 6.7874c -0.0000,3.7486 3.0388,6.7874 6.7874 6.7874c 3.7486,0.0000 6.7874,-3.0388 6.7874 -6.7874Z"/>
  </g>
  <g stroke-linejoin="miter" stroke-opacity="1.0" fill-opacity="0.5" stroke="rgb(102,102,102)" stroke-width="0.25124172005036327" fill="rgb(93,165,218)" stroke-linecap="butt" stroke-miterlimit="10.0">
    <path d="M 340.3850,143.2126 c 0.0000,-3.7486 -3.0388,-6.7874 -6.7874 -6.7874c -3.7486,-0.0000 -6.7874,3.0388 -6.7874 6.7874c -0.0000,3.7486 3.0388,6.7874 6.7874 6.7874c 3.7486,0.0000 6.7874,-3.0388 6.7874 -6.7874Z"/>
  </g>
  <g stroke-linejoin="miter" stroke-opacity="1.0" fill-opacity="0.5" stroke="rgb(102,102,102)" stroke-width="0.25124172005036327" fill="rgb(93,165,218)" stroke-linecap="butt" stroke-miterlimit="10.0">
    <path d="M 326.8103,143.2126 c 0.0000,-3.7486 -3.0388,-6.7874 -6.7874 -6.7874c -3.7486,-0.0000 -6.7874,3.0388 -6.7874 6.7874c -0.0000,3.7486 3.0388,6.7874 6.7874 6.7874c 3.7486,0.0000 6.7874,-3.0388 6.7874 -6.7874Z"/>
  </g>
  <g stroke-linejoin="miter" stroke-opacity="1.0" fill-opacity="0.5" stroke="rgb(102,102,102)" stroke-width="0.25124172005036327" fill="rgb(93,165,218)" stroke-linecap="butt" stroke-miterlimit="10.0">
    <path d="M 313.2356,140.2625 c 0.0000,-3.7486 -3.0388,-6.7874 -6.7874 -6.7874c -3.7486,-0.0000 -6.7874,3.0388 -6.7874 6.7874c -0.0000,3.7486 3.0388,6.7874 6.7874 6.7874c 3.7486,0.0000 6.7874,-3.0388 6.7874 -6.7874Z"/>
  </g>
  <g stroke-linejoin="miter" stroke-opacity="1.0" fill-opacity="0.5" stroke="rgb(102,102,102)" stroke-width="0.25124172005036327" fill="rgb(93,165,218)" stroke-linecap="butt" stroke-miterlimit="10.0">
    <path d="M 299.6609,134.4911 c 0.0000,-3.7486 -3.0388,-6.7874 -6.7874 -6.7874c -3.7486,-0.0000 -6.7874,3.0388 -6.7874 6.7874c -0.0000,3.7486 3.0388,6.7874 6.7874 6.7874c 3.7486,0.0000 6.7874,-3.0388 6.7874 -6.7874Z"/>
  </g>
  <g stroke-linejoin="miter" stroke-opacity="1.0" fill-opacity="0.5" stroke="rgb(102,102,102)" stroke-width="0.25124172005036327" fill="rgb(93,165,218)" stroke-linecap="butt" stroke-miterlimit="10.0">
    <path d="M 286.0862,126.1508 c 0.0000,-3.7486 -3.0388,-6.7874 -6.7874 -6.7874c -3.7486,-0.0000 -6.7874,3.0388 -6.7874 6.7874c -0.0000,3.7486 3.0388,6.7874 6.7874 6.7874c 3.7486,0.0000 6.7874,-3.0388 6.7874 -6.7874Z"/>
  </g>
  <g stroke-linejoin="miter" stroke-opacity="1.0" fill-opacity="0.5" stroke="rgb(102,102,102)" stroke-width="0.25124172005036327" fill="rgb(93,165,218)" stroke-linecap="butt" stroke-miterlimit="10.0">
    <path d="M 272.5115,115.6060 c 0.0000,-3.7486 -3.0388,-6.7874 -6.7874 -6.7874c -3.7486,-0.0000 -6.7874,3.0388 -6.7874 6.7874c -0.0000,3.7486 3.0388,6.7874 6.7874 6.7874c 3.7486,0.0000 6.7874,-3.0388 6.7874 -6.7874Z"/>
  </g>
  <g stroke-linejoin="miter" stroke-opacity="1.0" fill-opacity="0.5" stroke="rgb(102,102,102)" stroke-width="0.25124172005036327" fill="rgb(93,165,218)" stroke-linecap="butt" stroke-miterlimit="10.0">
    <path d="M 258.9368,103.3176 c 0.0000,-3.7486 -3.0388,-6.7874 -6.7874 -6.7874c -3.7486,-0.0000 -6.7874,3.0388 -6.7874 6.7874c -0.0000,3.7486 3.0388,6.7874 6.7874 6.7874c 3.7486,0.0000 6.7874,-3.0388 6.7874 -6.7874Z"/>
  </g>
  <g stroke-linejoin="miter" stroke-opacity="1.0" fill-opacity="0.5" stroke="rgb(102,102,102)" stroke-width="0.25124172005036327" fill="rgb(93,165,218)" stroke-linecap="butt" stroke-miterlimit="10.0">
    <path d="M 245.3621,89.8226 c 0.0000,-3.7486 -3.0388,-6.7874 -6.7874 -6.7874c -3.7486,-0.0000 -6.7874,3.0388 -6.7874 6.7874c -0.0000,3.7486 3.0388,6.7874 6.7874 6.7874c 3.7486,0.0000 6.7874,-3.0388 6.7874 -6.7874Z"/>
  </g>
  <g stroke-linejoin="miter" stroke-opacity="1.0" fill-opacity="0.5" stroke="rgb(102,102,102)" stroke-width="0.25124172005036327" fill="rgb(93,165,218)" stroke-linecap="butt" stroke-miterlimit="10.0">
    <path d="M 231.7874,75.7109 c 0.0000,-3.7486 -3.0388,-6.7874 -6.7874 -6.7874c -3.7486,-0.0000 -6.7874,3.0388 -6.7874 6.7874c -0.0000,3.7486 3.0388,6.7874 6.7874 6.7874c 3.7486,0.0000 6.7874,-3.0388 6.7874 -6.7874Z"/>
  </g>
  <g stroke-linejoin="miter" stroke-opacity="1.0" fill-opacity="0.5" stroke="rgb(102,102,102)" stroke-width="0.25124172005036327" fill="rgb(93,165,218)" stroke-linecap="butt" stroke-miterlimit="10.0">
    <path d="M 218.2126,61.5992 c 0.0000,-3.7486 -3.0388,-6.7874 -6.7874 -6.7874c -3.7486,-0.0000 -6.7874,3.0388 -6.7874 6.7874c -0.0000,3.7486 3.0388,6.7874 6.7874 6.7874c 3.7486,0.0000 6.7874,-3.0388 6.7874 -6.7874Z"/>
  </g>
  <g stroke-linejoin="miter" stroke-opacity="1.0" fill-opacity="0.5" stroke="rgb(102,102,102)" stroke-width="0.25124172005036327" fill="rgb(93,165,218)" stroke-linecap="butt" stroke-miterlimit="10.0">
    <path d="M 204.6379,48.1043 c 0.0000,-3.7486 -3.0388,-6.7874 -6.7874 -6.7874c -3.7486,-0.0000 -6.7874,3.0388 -6.7874 6.7874c -0.0000,3.7486 3.0388,6.7874 6.7874 6.7874c 3.7486,0.0000 6.7874,-3.0388 6.7874 -6.7874Z"/>
  </g>
  <g stroke-linejoin="miter" stroke-opacity="1.0" fill-opacity="0.5" stroke="rgb(102,102,102)" stroke-width="0.25124172005036327" fill="rgb(93,165,218)" stroke-linecap="butt" stroke-miterlimit="10.0">
    <path d="M 191.0632,35.8158 c 0.0000,-3.7486 -3.0388,-6.7874 -6.7874 -6.7874c -3.7486,-0.0000 -6.7874,3.0388 -6.7874 6.7874c -0.0000,3.7486 3.0388,6.7874 6.7874 6.7874c 3.7486,0.0000 6.7874,-3.0388 6.7874 -6.7874Z"/>
  </g>
  <g stroke-linejoin="miter" stroke-opacity="1.0" fill-opacity="0.5" stroke="rgb(102,102,102)" stroke-width="0.25124172005036327" fill="rgb(93,165,218)" stroke-linecap="butt" stroke-miterlimit="10.0">
    <path d="M 177.4885,25.2710 c 0.0000,-3.7486 -3.0388,-6.7874 -6.7874 -6.7874c -3.7486,-0.0000 -6.7874,3.0388 -6.7874 6.7874c -0.0000,3.7486 3.0388,6.7874 6.7874 6.7874c 3.7486,0.0000 6.7874,-3.0388 6.7874 -6.7874Z"/>
  </g>
  <g stroke-linejoin="miter" stroke-opacity="1.0" fill-opacity="0.5" stroke="rgb(102,102,102)" stroke-width="0.25124172005036327" fill="rgb(93,165,218)" stroke-linecap="butt" stroke-miterlimit="10.0">
    <path d="M 163.9138,16.9307 c 0.0000,-3.7486 -3.0388,-6.7874 -6.7874 -6.7874c -3.7486,-0.0000 -6.7874,3.0388 -6.7874 6.7874c -0.0000,3.7486 3.0388,6.7874 6.7874 6.7874c 3.7486,0.0000 6.7874,-3.0388 6.7874 -6.7874Z"/>
  </g>
  <g stroke-linejoin="miter" stroke-opacity="1.0" fill-opacity="0.5" stroke="rgb(102,102,102)" stroke-width="0.25124172005036327" fill="rgb(93,165,218)" stroke-linecap="butt" stroke-miterlimit="10.0">
    <path d="M 150.3391,11.1593 c 0.0000,-3.7486 -3.0388,-6.7874 -6.7874 -6.7874c -3.7486,-0.0000 -6.7874,3.0388 -6.7874 6.7874c -0.0000,3.7486 3.0388,6.7874 6.7874 6.7874c 3.7486,0.0000 6.7874,-3.0388 6.7874 -6.7874Z"/>
  </g>
  <g stroke-linejoin="miter" stroke-opacity="1.0" fill-opacity="0.5" stroke="rgb(102,102,102)" stroke-width="0.25124172005036327" fill="rgb(93,165,218)" stroke-linecap="butt" stroke-miterlimit="10.0">
    <path d="M 136.7644,8.2092 c 0.0000,-3.7486 -3.0388,-6.7874 -6.7874 -6.7874c -3.7486,-0.0000 -6.7874,3.0388 -6.7874 6.7874c -0.0000,3.7486 3.0388,6.7874 6.7874 6.7874c 3.7486,0.0000 6.7874,-3.0388 6.7874 -6.7874Z"/>
  </g>
  <g stroke-linejoin="miter" stroke-opacity="1.0" fill-opacity="0.5" stroke="rgb(102,102,102)" stroke-width="0.25124172005036327" fill="rgb(93,165,218)" stroke-linecap="butt" stroke-miterlimit="10.0">
    <path d="M 123.1897,8.2092 c 0.0000,-3.7486 -3.0388,-6.7874 -6.7874 -6.7874c -3.7486,-0.0000 -6.7874,3.0388 -6.7874 6.7874c -0.0000,3.7486 3.0388,6.7874 6.7874 6.7874c 3.7486,0.0000 6.7874,-3.0388 6.7874 -6.7874Z"/>
  </g>
  <g stroke-linejoin="miter" stroke-opacity="1.0" fill-opacity="0.5" stroke="rgb(102,102,102)" stroke-width="0.25124172005036327" fill="rgb(93,165,218)" stroke-linecap="butt" stroke-miterlimit="10.0">
    <path d="M 109.6150,11.1593 c 0.0000,-3.7486 -3.0388,-6.7874 -6.7874 -6.7874c -3.7486,-0.0000 -6.7874,3.0388 -6.7874 6.7874c -0.0000,3.7486 3.0388,6.7874 6.7874 6.7874c 3.7486,0.0000 6.7874,-3.0388 6.7874 -6.7874Z"/>
  </g>
  <g stroke-linejoin="miter" stroke-opacity="1.0" fill-opacity="0.5" stroke="rgb(102,102,102)" stroke-width="0.25124172005036327" fill="rgb(93,165,218)" stroke-linecap="butt" stroke-miterlimit="10.0">
    <path d="M 96.0403,16.9307 c 0.0000,-3.7486 -3.0388,-6.7874 -6.7874 -6.7874c -3.7486,-0.0000 -6.7874,3.0388 -6.7874 6.7874c -0.0000,3.7486 3.0388,6.7874 6.7874 6.7874c 3.7486,0.0000 6.7874,-3.0388 6.7874 -6.7874Z"/>
  </g>
  <g stroke-linejoin="miter" stroke-opacity="1.0" fill-opacity="0.5" stroke="rgb(102,102,102)" stroke-width="0.25124172005036327" fill="rgb(93,165,218)" stroke-linecap="butt" stroke-miterlimit="10.0">
    <path d="M 82.4655,25.2710 c 0.0000,-3.7486 -3.0388,-6.7874 -6.7874 -6.7874c -3.7486,-0.0000 -6.7874,3.0388 -6.7874 6.7874c -0.0000,3.7486 3.0388,6.7874 6.7874 6.7874c 3.7486,0.0000 6.7874,-3.0388 6.7874 -6.7874Z"/>
  </g>
  <g stroke-linejoin="miter" stroke-opacity="1.0" fill-opacity="0.5" stroke="rgb(102,102,102)" stroke-width="0.25124172005036327" fill="rgb(93,165,218)" stroke-linecap="butt" stroke-miterlimit="10.0">
    <path d="M 68.8908,35.8158 c 0.0000,-3.7486 -3.0388,-6.7874 -6.7874 -6.7874c -3.7486,-0.0000 -6.7874,3.0388 -6.7874 6.7874c -0.0000,3.7486 3.0388,6.7874 6.7874 6.7874c 3.7486,0.0000 6.7874,-3.0388 6.7874 -6.7874Z"/>
  </g>
  <g stroke-linejoin="miter" stroke-opacity="1.0" fill-opacity="0.5" stroke="rgb(102,102,102)" stroke-width="0.25124172005036327" fill="rgb(93,165,218)" stroke-linecap="butt" stroke-miterlimit="10.0">
    <path d="M 55.3161,48.1043 c 0.0000,-3.7486 -3.0388,-6.7874 -6.7874 -6.7874c -3.7486,-0.0000 -6.7874,3.0388 -6.7874 6.7874c -0.0000,3.7486 3.0388,6.7874 6.7874 6.7874c 3.7486,0.0000 6.7874,-3.0388 6.7874 -6.7874Z"/>
  </g>
  <g stroke-linejoin="miter" stroke-opacity="1.0" fill-opacity="0.5" stroke="rgb(102,102,102)" stroke-width="0.25124172005036327" fill="rgb(93,165,218)" stroke-linecap="butt" stroke-miterlimit="10.0">
    <path d="M 41.7414,61.5992 c 0.0000,-3.7486 -3.0388,-6.7874 -6.7874 -6.7874c -3.7486,-0.0000 -6.7874,3.0388 -6.7874 6.7874c -0.0000,3.7486 3.0388,6.7874 6.7874 6.7874c 3.7486,0.0000 6.7874,-3.0388 6.7874 -6.7874Z"/>
  </g>
  <g stroke-linejoin="miter" stroke-opacity="1.0" fill-opacity="0.5" stroke="rgb(102,102,102)" stroke-width="0.25124172005036327" fill="rgb(93,165,218)" stroke-linecap="butt" stroke-miterlimit="10.0">
    <path d="M 28.1667,75.7109 c 0.0000,-3.7486 -3.0388,-6.7874 -6.7874 -6.7874c -3.7486,-0.0000 -6.7874,3.0388 -6.7874 6.7874c -0.0000,3.7486 3.0388,6.7874 6.7874 6.7874c 3.7486,0.0000 6.7874,-3.0388 6.7874 -6.7874Z"/>
  </g>
</svg>