<?xml version="1.0" standalone="no"?>
<!DOCTYPE svg PUBLIC "-//W3C//DTD SVG 1.1//EN" "http://www.w3.org/Graphics/SVG/1.1/DTD/svg11.dtd" >
<svg xmlns:xlink="http://www.w3.org/1999/xlink" version="1.1">
<metadata>
Created by FontForge 20170730 at Sun Jan 22 22:27:49 2017
 By tony day
Copyright 2010, 2012 Adobe Systems Incorporated. All Rights Reserved.
</metadata>
<defs>
<font id="Hasklig-Medium" horiz-adv-x="600" >
  <font-face 
    font-family="Hasklig"
    font-weight="500"
    font-stretch="normal"
    units-per-em="1000"
    panose-1="2 11 5 9 3 4 3 2 2 4"
    ascent="750"
    descent="-250"
    x-height="489"
    cap-height="655"
    bbox="-1136 -454 797 1060"
    underline-thickness="50"
    underline-position="-100"
    stemh="80"
    stemv="101"
    unicode-range="U+0020-1F916"
  />
<missing-glyph 
d="M55 0v660h490v-660h-490zM183 67h232l-64 118l-49 101h-4l-50 -101zM129 122l119 218l-119 220v-438zM298 394h4l47 94l57 104h-213l57 -104zM352 340l118 -218v438z" />
    <glyph glyph-name="u1F3B5_uniFE0F" unicode="&#xfe0f;" 
d="M174 -25c-54 0 -103 26 -103 79c0 63 67 120 160 120c26 0 51 -6 60 -12v532h58c10 -26 20 -35 70 -70c91 -64 117 -121 117 -198c0 -53 -19 -104 -36 -135l-39 14c10 32 13 56 13 92c0 62 -43 124 -120 148v-395c0 -115 -80 -175 -180 -175z" />
    <glyph glyph-name="u1F3B5_uniFE0F" unicode="&#xfe0f;" 
d="M174 -25c-54 0 -103 26 -103 79c0 63 67 120 160 120c26 0 51 -6 60 -12v532h58c10 -26 20 -35 70 -70c91 -64 117 -121 117 -198c0 -53 -19 -104 -36 -135l-39 14c10 32 13 56 13 92c0 62 -43 124 -120 148v-395c0 -115 -80 -175 -180 -175z" />
    <glyph glyph-name="u1F3B6_uniFE0F" unicode="&#xfe0f;" 
d="M102 -25c-53 0 -102 26 -102 79c0 63 62 120 150 120c27 0 52 -6 61 -12v512l388 60v-534c0 -115 -76 -175 -171 -175c-53 0 -102 26 -102 79c0 64 62 121 150 121c26 0 52 -6 61 -12v354l-263 -40v-377c0 -115 -77 -175 -172 -175z" />
    <glyph glyph-name="u1F3B6_uniFE0F" unicode="&#xfe0f;" 
d="M102 -25c-53 0 -102 26 -102 79c0 63 62 120 150 120c27 0 52 -6 61 -12v512l388 60v-534c0 -115 -76 -175 -171 -175c-53 0 -102 26 -102 79c0 64 62 121 150 121c26 0 52 -6 61 -12v354l-263 -40v-377c0 -115 -77 -175 -172 -175z" />
    <glyph glyph-name="uni2611_uniFE0F" unicode="&#xfe0f;" 
d="M243 105c-36 102 -81 189 -140 276l66 44c48 -76 87 -160 115 -241h4c42 143 110 286 191 410h-458v-557h526v519c-84 -122 -157 -270 -204 -439zM-26 -10v627l65 55h495c35 47 72 90 109 127l63 -57c-27 -25 -54 -53 -80 -84v-603l-56 -65h-596z" />
    <glyph glyph-name="uni2713_uniFE0F" unicode="&#xfe0f;" 
d="M144 -20c-40 110 -87 203 -153 296l66 44c54 -82 99 -174 130 -261h4c71 238 209 476 360 626l63 -57c-152 -142 -294 -362 -370 -636z" />
    <glyph glyph-name="uni2665_uniFE0F" unicode="&#xfe0f;" 
d="M302 -12h-4c-242 256 -292 380 -292 524c0 129 64 198 147 198c66 0 117 -31 145 -120h4c28 89 80 120 145 120c83 0 147 -69 147 -198c0 -144 -50 -268 -292 -524z" />
    <glyph glyph-name="uni2663_uniFE0F" unicode="&#xfe0f;" 
d="M102 0v44c90 13 150 58 173 204h-7c-27 -67 -79 -88 -129 -88c-79 0 -133 61 -133 151c0 94 64 141 141 141c24 0 44 -5 77 -20l4 4c-68 59 -76 115 -76 150c0 73 65 124 148 124s148 -51 148 -124c0 -35 -8 -91 -76 -150l4 -4c33 15 53 20 77 20c77 0 141 -47 141 -141
c0 -90 -54 -151 -133 -151c-50 0 -102 21 -129 88h-7c23 -146 83 -191 173 -204v-44h-396z" />
    <glyph glyph-name="uni2666_uniFE0F" unicode="&#xfe0f;" 
d="M302 -12h-4l-296 365v4l296 364h4l296 -364v-4z" />
    <glyph glyph-name="uni2660_uniFE0F" unicode="&#xfe0f;" 
d="M102 0v44c90 13 150 58 173 204h-7c-30 -69 -77 -90 -131 -90c-74 0 -131 43 -131 136c0 121 62 195 292 427h4c230 -232 292 -306 292 -427c0 -93 -57 -136 -131 -136c-54 0 -101 21 -131 90h-7c23 -146 83 -191 173 -204v-44h-396z" />
    <glyph glyph-name="uni263A_uniFE0F" unicode="&#xfe0f;" 
d="M300 579c-12 0 -20 8 -20 20s8 20 20 20s20 -8 20 -20s-8 -20 -20 -20zM41 372c-12 0 -20 8 -20 20s8 20 20 20s20 -8 20 -20s-8 -20 -20 -20zM58 431c-12 0 -20 8 -20 20s8 20 20 20s20 -8 20 -20s-8 -20 -20 -20zM91 481c-10 0 -20 10 -20 22c0 10 10 20 20 20
c12 0 20 -10 20 -20c0 -12 -8 -22 -20 -22zM134 524c-10 0 -20 10 -20 22s10 20 20 20c13 0 20 -8 20 -20s-7 -22 -20 -22zM186 554c-12 0 -20 10 -20 22s8 20 20 20s20 -8 20 -20s-8 -22 -20 -22zM242 572c-10 0 -20 10 -20 22s10 20 20 20c13 0 20 -8 20 -20
s-7 -22 -20 -22zM565 308c-12 0 -20 10 -20 22s8 20 20 20s20 -8 20 -20s-8 -22 -20 -22zM559 372c-12 0 -20 8 -20 20s8 20 20 20s20 -8 20 -20s-8 -20 -20 -20zM542 431c-12 0 -20 8 -20 20s8 20 20 20s20 -8 20 -20s-8 -20 -20 -20zM509 481c-12 0 -20 10 -20 22
c0 10 8 20 20 20c10 0 20 -10 20 -20c0 -12 -10 -22 -20 -22zM466 524c-13 0 -20 10 -20 22s7 20 20 20c10 0 20 -8 20 -20s-10 -22 -20 -22zM414 554c-12 0 -20 10 -20 22s8 20 20 20s20 -8 20 -20s-8 -22 -20 -22zM358 572c-13 0 -20 10 -20 22s7 20 20 20
c10 0 20 -8 20 -20s-10 -22 -20 -22zM300 81c12 0 20 -10 20 -22c0 -11 -8 -20 -20 -20s-20 9 -20 20c0 12 8 22 20 22zM35 350c12 0 20 -8 20 -22c0 -10 -8 -20 -20 -20s-20 10 -20 20c0 14 8 22 20 22zM41 288c12 0 20 -10 20 -22c0 -11 -8 -20 -20 -20s-20 9 -20 20
c0 12 8 22 20 22zM58 229c12 0 20 -10 20 -22c0 -10 -8 -20 -20 -20s-20 10 -20 20c0 12 8 22 20 22zM91 177c12 0 20 -8 20 -20s-8 -20 -20 -20c-10 0 -20 8 -20 20s10 20 20 20zM134 134c13 0 20 -8 20 -22c0 -10 -7 -20 -20 -20c-10 0 -20 10 -20 20c0 14 10 22 20 22z
M186 104c12 0 20 -8 20 -22c0 -10 -8 -20 -20 -20s-20 10 -20 20c0 14 8 22 20 22zM242 86c13 0 20 -8 20 -22c0 -10 -7 -20 -20 -20c-10 0 -20 10 -20 20c0 14 10 22 20 22zM559 288c12 0 20 -10 20 -22c0 -11 -8 -20 -20 -20s-20 9 -20 20c0 12 8 22 20 22zM542 229
c12 0 20 -10 20 -22c0 -10 -8 -20 -20 -20s-20 10 -20 20c0 12 8 22 20 22zM509 177c10 0 20 -8 20 -20s-10 -20 -20 -20c-12 0 -20 8 -20 20s8 20 20 20zM466 134c10 0 20 -8 20 -22c0 -10 -10 -20 -20 -20c-13 0 -20 10 -20 20c0 14 7 22 20 22zM414 104
c12 0 20 -8 20 -22c0 -10 -8 -20 -20 -20s-20 10 -20 20c0 14 8 22 20 22zM358 86c10 0 20 -8 20 -22c0 -10 -10 -20 -20 -20c-13 0 -20 10 -20 20c0 14 7 22 20 22zM300 207c12 0 20 -10 20 -22c0 -11 -8 -20 -20 -20s-20 9 -20 20c0 12 8 22 20 22zM444 288
c12 0 20 -10 20 -22c0 -11 -8 -20 -20 -20s-20 9 -20 20c0 12 8 22 20 22zM409 240c12 0 20 -10 20 -22c0 -11 -8 -20 -20 -20s-20 9 -20 20c0 12 8 22 20 22zM358 213c10 0 20 -8 20 -20s-10 -20 -20 -20c-13 0 -20 8 -20 20s7 20 20 20zM156 288c12 0 20 -10 20 -22
c0 -11 -8 -20 -20 -20s-20 9 -20 20c0 12 8 22 20 22zM191 240c12 0 20 -10 20 -22c0 -11 -8 -20 -20 -20s-20 9 -20 20c0 12 8 22 20 22zM242 213c13 0 20 -8 20 -20s-7 -20 -20 -20c-10 0 -20 8 -20 20s10 20 20 20zM222 366c12 0 20 -8 20 -20s-8 -20 -20 -20
s-20 8 -20 20s8 20 20 20zM262 396c12 0 20 -10 20 -22c0 -10 -8 -20 -20 -20s-20 10 -20 20c0 12 8 22 20 22zM222 435c-12 0 -20 8 -20 20s8 20 20 20s20 -8 20 -20s-8 -20 -20 -20zM262 404c-12 0 -20 10 -20 22c0 10 8 20 20 20s20 -10 20 -20c0 -12 -8 -22 -20 -22z
M182 396c12 0 20 -10 20 -22c0 -10 -8 -20 -20 -20s-20 10 -20 20c0 12 8 22 20 22zM182 404c-12 0 -20 10 -20 22c0 10 8 20 20 20s20 -10 20 -20c0 -12 -8 -22 -20 -22zM378 366c12 0 20 -8 20 -20s-8 -20 -20 -20s-20 8 -20 20s8 20 20 20zM338 396c12 0 20 -10 20 -22
c0 -10 -8 -20 -20 -20s-20 10 -20 20c0 12 8 22 20 22zM378 435c-12 0 -20 8 -20 20s8 20 20 20s20 -8 20 -20s-8 -20 -20 -20zM338 404c-12 0 -20 10 -20 22c0 10 8 20 20 20s20 -10 20 -20c0 -12 -8 -22 -20 -22zM418 396c12 0 20 -10 20 -22c0 -10 -8 -20 -20 -20
s-20 10 -20 20c0 12 8 22 20 22zM418 404c-12 0 -20 10 -20 22c0 10 8 20 20 20s20 -10 20 -20c0 -12 -8 -22 -20 -22z" />
    <glyph glyph-name="uni263B_uniFE0F" unicode="&#xfe0f;" 
d="M300 56c-163 0 -275 115 -275 274s112 274 275 274s275 -115 275 -274s-112 -274 -275 -274zM219 345c31 0 49 27 49 64s-18 64 -49 64s-49 -27 -49 -64s18 -64 49 -64zM381 345c31 0 49 27 49 64s-18 64 -49 64s-49 -27 -49 -64s18 -64 49 -64zM300 147
c91 0 145 45 160 127l-38 15c-19 -49 -62 -73 -122 -73s-103 24 -122 73l-38 -15c15 -82 69 -127 160 -127zM206 394c-9 0 -17 7 -17 19s8 19 17 19s17 -7 17 -19s-8 -19 -17 -19zM368 394c-9 0 -17 7 -17 19s8 19 17 19s17 -7 17 -19s-8 -19 -17 -19z" />
    <glyph glyph-name="uni2764_uniFE0F" unicode="&#xfe0f;" 
d="M302 13h-4c-94 185 -365 161 -365 442c0 129 81 198 195 198c87 0 145 -34 170 -130h4c25 96 83 130 170 130c114 0 195 -69 195 -198c0 -281 -271 -257 -365 -442z" />
    <glyph glyph-name="uni2615_uniFE0F" unicode="&#xfe0f;" 
d="M247 36c-170 0 -280 123 -280 392c0 126 105 196 280 196c158 0 251 -54 272 -153c77 -14 128 -58 128 -151c0 -104 -88 -173 -189 -173c-47 -76 -124 -111 -211 -111zM247 82c78 0 147 31 182 104c111 0 164 62 164 134c0 62 -39 110 -116 110c0 94 -82 150 -230 150
c-147 0 -229 -60 -229 -160c0 -238 92 -338 229 -338zM247 327c-122 0 -179 31 -211 83c20 62 97 101 211 101s192 -40 212 -101c-33 -52 -90 -83 -212 -83zM452 251c12 37 18 73 20 110c37 0 55 -11 55 -47c0 -41 -34 -63 -75 -63zM306 419c-56 37 -90 48 -126 48
c-31 0 -48 -12 -48 -26c0 -10 7 -17 29 -22c-22 -5 -29 -12 -29 -22c0 -14 17 -26 48 -26c36 0 70 11 126 48zM310 419c30 -17 52 -21 63 -21c14 0 26 7 26 21s-12 21 -26 21c-11 0 -33 -4 -63 -21z" />
    <glyph glyph-name="u1F4A9_uniFE0F" unicode="&#xfe0f;" 
d="M300 14c-214 0 -307 27 -307 146c0 64 29 102 92 118c-25 18 -36 46 -36 90c0 72 46 110 109 122c-11 12 -21 24 -21 52c0 100 125 58 182 120c96 -26 144 -64 144 -118c0 -26 -8 -40 -21 -54c63 -12 109 -50 109 -122c0 -44 -11 -72 -36 -90c63 -16 92 -54 92 -118
c0 -119 -93 -146 -307 -146zM300 109c81 0 135 36 143 115h-286c8 -79 62 -115 143 -115zM147 312l29 -2c2 46 13 65 37 65s35 -19 37 -65l29 2c-1 86 -24 120 -66 120s-65 -34 -66 -120zM321 312l29 -2c2 46 13 65 37 65s35 -19 37 -65l29 2c-1 86 -24 120 -66 120
s-65 -34 -66 -120z" />
    <glyph glyph-name="u1F916_uniFE0F" unicode="&#xfe0f;" 
d="M300 36c-120 0 -221 58 -266 169c-43 11 -64 57 -64 143c0 49 14 73 46 82c30 130 135 194 284 194s254 -64 284 -194c32 -9 46 -33 46 -82c0 -86 -21 -132 -64 -143c-45 -111 -146 -169 -266 -169zM300 87c135 0 237 82 237 263c0 158 -90 223 -237 223
s-237 -65 -237 -223c0 -181 102 -263 237 -263zM300 258c-128 0 -191 24 -191 96c0 110 74 160 191 160s191 -50 191 -160c0 -72 -63 -96 -191 -96zM148 332l32 -2c2 44 12 62 36 62s34 -18 36 -62l32 2c-2 86 -26 120 -68 120s-66 -34 -68 -120zM316 332l32 -2
c2 44 12 62 36 62s34 -18 36 -62l32 2c-2 86 -26 120 -68 120s-66 -34 -68 -120zM300 149c-20 0 -37 8 -37 26c0 12 7 16 37 16s37 -4 37 -16c0 -18 -17 -26 -37 -26z" />
    <glyph glyph-name="u1F512_uniFE0F" unicode="&#xfe0f;" 
d="M81 -70l-40 35v520l40 35h46v150c0 119 63 186 173 186s173 -67 173 -186v-150h46l40 -35v-520l-40 -35h-438zM247 61l43 -19h20l43 19l-25 168c38 15 55 42 55 78c0 47 -37 82 -83 82s-83 -35 -83 -82c0 -36 17 -63 55 -78zM206 520h188v141c0 74 -31 118 -94 118
s-94 -44 -94 -118v-141z" />
    <glyph glyph-name=".notdef" 
d="M55 0v660h490v-660h-490zM183 67h232l-64 118l-49 101h-4l-50 -101zM129 122l119 218l-119 220v-438zM298 394h4l47 94l57 104h-213l57 -104zM352 340l118 -218v438z" />
    <glyph glyph-name="space" unicode=" " 
 />
    <glyph glyph-name="A" unicode="A" 
d="M235 357l-27 -90h181l-27 90c-21 71 -43 144 -62 218h-4c-19 -74 -40 -147 -61 -218zM26 0l216 655h116l216 -655h-106l-56 188h-228l-56 -188h-102z" />
    <glyph glyph-name="B" unicode="B" 
d="M92 0v655h195c134 0 229 -43 229 -160c0 -64 -37 -123 -114 -143v-4c95 -15 149 -67 149 -156c0 -130 -102 -192 -248 -192h-211zM192 383h83c101 0 143 34 143 101c0 65 -47 89 -140 89h-86v-190zM192 82h99c104 0 162 35 162 116c0 75 -56 105 -162 105h-99v-221z" />
    <glyph glyph-name="C" unicode="C" 
d="M352 -12c-162 0 -290 123 -290 338c0 213 126 341 298 341c80 0 144 -39 184 -81l-56 -63c-33 35 -74 57 -128 57c-117 0 -195 -96 -195 -251c0 -157 78 -254 197 -254c57 0 101 25 140 69l56 -61c-52 -61 -119 -95 -206 -95z" />
    <glyph glyph-name="D" unicode="D" 
d="M83 0v655h166c196 0 307 -112 307 -325c0 -212 -111 -330 -302 -330h-171zM183 81h60c137 0 210 86 210 249s-73 244 -210 244h-60v-493z" />
    <glyph glyph-name="E" unicode="E" 
d="M109 0v655h412v-84h-312v-187h264v-84h-264v-216h322v-84h-422z" />
    <glyph glyph-name="F" unicode="F" 
d="M126 0v655h410v-84h-310v-203h263v-85h-263v-283h-100z" />
    <glyph glyph-name="G" unicode="G" 
d="M339 -12c-166 0 -288 123 -288 338c0 214 124 341 293 341c87 0 145 -41 184 -81l-56 -63c-31 33 -68 57 -128 57c-113 0 -190 -96 -190 -251c0 -157 68 -254 191 -254c40 0 78 13 100 34v156h-121v82h213v-282c-42 -42 -114 -77 -198 -77z" />
    <glyph glyph-name="H" unicode="H" 
d="M75 0v655h101v-269h248v269h101v-655h-101v299h-248v-299h-101z" />
    <glyph glyph-name="I" unicode="I" 
d="M90 0v84h160v487h-160v84h420v-84h-160v-487h160v-84h-420z" />
    <glyph glyph-name="J" unicode="J" 
d="M275 -12c-73 0 -152 32 -200 109l61 61c37 -56 88 -83 136 -83c87 0 127 43 127 146v351h-269v84h369v-443c0 -124 -56 -225 -224 -225z" />
    <glyph glyph-name="K" unicode="K" 
d="M90 0v655h101v-313h3l254 313h113l-205 -252l228 -403h-112l-178 328l-103 -127v-201h-101z" />
    <glyph glyph-name="L" unicode="L" 
d="M127 0v655h99v-571h315v-84h-414z" />
    <glyph glyph-name="M" unicode="M" 
d="M68 0v655h116l85 -267l29 -102h4l29 102l85 267h116v-655h-92v295c0 67 11 191 16 251h-3l-41 -141l-83 -231h-62l-82 231l-40 141h-3c7 -60 16 -184 16 -251v-295h-90z" />
    <glyph glyph-name="N" unicode="N" 
d="M78 0v655h107l191 -389l61 -138h3c-4 66 -14 144 -14 215v312h96v-655h-107l-191 389l-61 138h-3c4 -68 14 -143 14 -213v-314h-96z" />
    <glyph glyph-name="O" unicode="O" 
d="M300 -12c-150 0 -255 125 -255 342c0 214 105 337 255 337s255 -123 255 -337c0 -217 -105 -342 -255 -342zM300 75c91 0 152 94 152 255c0 158 -61 250 -152 250s-152 -92 -152 -250c0 -161 61 -255 152 -255z" />
    <glyph glyph-name="P" unicode="P" 
d="M95 0v655h207c144 0 245 -50 245 -197c0 -142 -103 -208 -245 -208h-107v-250h-100zM195 331h97c106 0 156 40 156 127s-52 117 -156 117h-97v-244z" />
    <glyph glyph-name="Q" unicode="Q" 
d="M300 70c91 0 152 92 152 260c0 158 -61 250 -152 250s-152 -92 -152 -250c0 -168 61 -260 152 -260zM482 -167c-118 0 -195 67 -230 160c-124 24 -207 144 -207 337c0 214 105 337 255 337s255 -123 255 -337c0 -188 -79 -307 -198 -335c23 -54 75 -78 137 -78
c20 0 37 4 50 10l18 -78c-21 -9 -48 -16 -80 -16z" />
    <glyph glyph-name="R" unicode="R" 
d="M92 0v655h211c135 0 235 -48 235 -189c0 -101 -55 -162 -138 -187l161 -279h-113l-149 266h-107v-266h-100zM192 347h99c96 0 148 39 148 119s-52 109 -148 109h-99v-228z" />
    <glyph glyph-name="S" unicode="S" 
d="M303 -12c-94 0 -178 36 -240 97l58 68c50 -47 116 -78 188 -78c83 0 130 38 130 92c0 64 -48 82 -114 109l-92 41c-67 26 -140 75 -140 171c0 102 91 179 221 179c81 0 154 -32 205 -82l-52 -64c-43 37 -91 59 -158 59c-69 0 -115 -33 -115 -86c0 -57 56 -78 114 -101
l89 -39c82 -32 144 -79 144 -175c0 -105 -89 -191 -238 -191z" />
    <glyph glyph-name="T" unicode="T" 
d="M250 0v571h-211v84h522v-84h-211v-571h-100z" />
    <glyph glyph-name="U" unicode="U" 
d="M301 -12c-136 0 -226 77 -226 261v406h101v-412c0 -120 51 -168 125 -168c75 0 127 48 127 168v412h97v-406c0 -184 -88 -261 -224 -261z" />
    <glyph glyph-name="V" unicode="V" 
d="M242 0l-207 655h106l99 -341c22 -76 37 -140 60 -215h4c24 75 39 139 61 215l98 341h102l-206 -655h-117z" />
    <glyph glyph-name="W" unicode="W" 
d="M105 0l-96 656h109l40 -396c5 -55 8 -91 11 -154h3c11 63 20 99 32 154l59 228h84l56 -228c13 -54 21 -91 32 -154h4c3 63 5 100 10 154l39 396h104l-92 -656h-118l-58 248c-9 40 -17 80 -22 120h-3c-6 -40 -12 -80 -22 -120l-57 -248h-115z" />
    <glyph glyph-name="X" unicode="X" 
d="M45 0l194 338l-182 317h111l85 -156c16 -30 31 -59 51 -98h4c18 39 31 68 47 98l82 156h106l-182 -322l194 -333h-110l-92 165c-18 33 -36 66 -56 106h-4c-19 -40 -36 -73 -53 -106l-90 -165h-105z" />
    <glyph glyph-name="Y" unicode="Y" 
d="M250 0v230l-217 425h106l90 -185c24 -51 46 -100 71 -152h4c25 52 49 101 73 152l87 185h103l-217 -425v-230h-100z" />
    <glyph glyph-name="Z" unicode="Z" 
d="M63 0v60l350 512h-319v84h442v-61l-351 -511h356v-84h-478z" />
    <glyph glyph-name="a" unicode="a" 
d="M241 -12c-94 0 -165 55 -165 141c0 110 99 163 345 182c-3 60 -35 109 -122 109c-60 0 -118 -27 -166 -55l-37 67c54 33 135 69 220 69c135 0 204 -78 204 -207v-294h-81l-8 63h-3c-52 -40 -120 -75 -187 -75zM269 67c52 0 102 24 152 65v116
c-192 -15 -249 -53 -249 -112c0 -49 44 -69 97 -69z" />
    <glyph glyph-name="b" unicode="b" 
d="M325 -12c-47 0 -103 24 -147 66h-3l-9 -54h-78v709h99v-188l-4 -90h3c42 42 101 70 156 70c129 0 202 -98 202 -249c0 -167 -105 -264 -219 -264zM306 70c77 0 136 65 136 181c0 102 -38 167 -126 167c-40 0 -85 -20 -129 -66v-231c41 -37 87 -51 119 -51z" />
    <glyph glyph-name="c" unicode="c" 
d="M345 -12c-153 0 -269 94 -269 256c0 163 127 257 275 257c80 0 140 -31 180 -70l-48 -63c-39 32 -79 51 -127 51c-105 0 -178 -70 -178 -175s71 -175 175 -175c59 0 106 26 145 58l43 -64c-55 -48 -125 -75 -196 -75z" />
    <glyph glyph-name="d" unicode="d" 
d="M267 -12c-127 0 -211 94 -211 256c0 159 106 257 219 257c57 0 100 -22 140 -61h3l-5 87v182h99v-709h-81l-8 60h-3c-39 -39 -95 -72 -153 -72zM290 70c44 0 85 22 123 66v232c-39 37 -77 50 -116 50c-76 0 -139 -67 -139 -173c0 -112 49 -175 132 -175z" />
    <glyph glyph-name="e" unicode="e" 
d="M330 -12c-148 0 -265 94 -265 257c0 159 120 256 250 256c144 0 225 -95 225 -231c0 -21 -2 -41 -4 -54h-372c11 -101 83 -150 179 -150c54 0 98 16 142 43l35 -63c-50 -33 -115 -58 -190 -58zM318 423c-74 0 -137 -47 -152 -134h285c-7 89 -57 134 -133 134z" />
    <glyph glyph-name="f" unicode="f" 
d="M235 0v409h-137v75l137 5v34c0 117 63 198 202 198c50 0 98 -10 143 -28l-22 -73c-37 16 -69 22 -110 22c-81 0 -115 -43 -115 -117v-36h195v-80h-195v-409h-98z" />
    <glyph glyph-name="g" unicode="g" 
d="M291 -221c-139 0 -224 47 -224 133c0 40 27 77 79 106v4c-26 15 -50 40 -50 81c0 32 22 67 58 92v4c-34 25 -61 68 -61 126c0 109 91 176 197 176c28 0 52 -4 74 -12h201v-78h-119c19 -21 36 -54 36 -89c0 -107 -85 -167 -192 -167c-24 0 -53 5 -79 16
c-22 -14 -34 -30 -34 -51c0 -35 34 -51 97 -51h104c127 0 190 -34 190 -117c0 -95 -108 -173 -277 -173zM290 219c56 0 102 40 102 106c0 64 -46 106 -102 106s-103 -42 -103 -106c0 -66 47 -106 103 -106zM301 -152c104 0 170 42 170 87c0 43 -35 54 -104 54h-87
c-30 0 -54 2 -74 8c-41 -23 -56 -48 -56 -73c0 -47 54 -76 151 -76z" />
    <glyph glyph-name="h" unicode="h" 
d="M88 0v709h99v-188l-6 -110h3c46 50 102 90 177 90c114 0 166 -71 166 -198v-303h-99v290c0 85 -28 125 -102 125c-52 0 -89 -26 -139 -78v-337h-99z" />
    <glyph glyph-name="i" unicode="i" 
d="M306 0v409h-219v80h318v-489h-99zM347 584c-42 0 -74 28 -74 71c0 42 32 71 74 71s74 -29 74 -71c0 -43 -32 -71 -74 -71z" />
    <glyph glyph-name="j" unicode="j" 
d="M194 -212c-53 0 -103 14 -142 33l31 73c36 -17 73 -26 108 -26c90 0 115 45 115 125v416h-219v80h318v-490c0 -120 -48 -211 -211 -211zM347 584c-42 0 -74 28 -74 71c0 42 32 71 74 71s74 -29 74 -71c0 -43 -32 -71 -74 -71z" />
    <glyph glyph-name="k" unicode="k" 
d="M98 0v709h99v-462h4l241 242h111l-192 -194l216 -295h-109l-168 234l-103 -104v-130h-99z" />
    <glyph glyph-name="l" unicode="l" 
d="M404 -12c-109 0 -168 65 -168 183v459h-168v79h267v-544c0 -68 38 -96 92 -96c27 0 55 7 88 21l24 -74c-47 -18 -80 -28 -135 -28z" />
    <glyph glyph-name="m" unicode="m" 
d="M52 0v489h78l8 -64h2c23 44 54 76 110 76c47 0 77 -28 90 -84c26 50 57 84 113 84c69 0 109 -55 109 -153v-348h-97v341c0 49 -14 75 -45 75c-30 0 -47 -23 -70 -68v-348h-86v341c0 49 -13 75 -44 75c-30 0 -50 -23 -71 -68v-348h-97z" />
    <glyph glyph-name="n" unicode="n" 
d="M88 0v489h81l8 -79h4c49 51 104 91 180 91c114 0 166 -71 166 -198v-303h-99v290c0 85 -28 125 -102 125c-52 0 -89 -26 -139 -78v-337h-99z" />
    <glyph glyph-name="o" unicode="o" 
d="M300 -12c-128 0 -244 94 -244 256c0 163 116 257 244 257s244 -94 244 -257c0 -162 -116 -256 -244 -256zM300 69c87 0 142 70 142 175s-55 175 -142 175s-142 -70 -142 -175s55 -175 142 -175z" />
    <glyph glyph-name="p" unicode="p" 
d="M88 -200v689h81l8 -60h3c44 42 105 72 163 72c129 0 201 -98 201 -249c0 -167 -105 -264 -220 -264c-45 0 -98 22 -139 60h-3l5 -88v-160h-99zM305 70c78 0 137 65 137 181c0 102 -38 167 -126 167c-40 0 -85 -20 -129 -66v-231c41 -37 87 -51 118 -51z" />
    <glyph glyph-name="q" unicode="q" 
d="M413 -200v170l5 88h-3c-38 -40 -92 -70 -149 -70c-126 0 -210 94 -210 256c0 159 106 257 219 257c58 0 103 -22 147 -65h3l9 53h78v-689h-99zM290 70c44 0 85 22 123 66v232c-39 37 -77 50 -116 50c-76 0 -139 -67 -139 -173c0 -112 49 -175 132 -175z" />
    <glyph glyph-name="r" unicode="r" 
d="M138 0v489h82l8 -114h3c50 79 126 126 213 126c38 0 66 -6 96 -20l-22 -85c-33 11 -52 16 -89 16c-70 0 -138 -36 -192 -134v-278h-99z" />
    <glyph glyph-name="s" unicode="s" 
d="M306 -12c-93 0 -180 35 -239 76l44 64c57 -40 123 -64 208 -64c75 0 111 30 111 67c0 35 -20 56 -143 82c-129 27 -190 71 -190 145c0 82 73 143 209 143c77 0 151 -31 200 -64l-46 -62c-47 31 -103 50 -163 50c-74 0 -101 -28 -101 -62c0 -38 39 -54 134 -74
c160 -35 200 -76 200 -152c0 -82 -80 -149 -224 -149z" />
    <glyph glyph-name="t" unicode="t" 
d="M392 -12c-145 0 -194 83 -194 205v216h-134v75l138 5l13 155h82v-155h231v-80h-231v-216c0 -84 29 -125 118 -125c43 0 78 8 112 21l20 -73c-44 -15 -92 -28 -155 -28z" />
    <glyph glyph-name="u" unicode="u" 
d="M240 -12c-115 0 -167 70 -167 198v303h99v-290c0 -86 28 -126 102 -126c51 0 89 23 137 81v335h99v-489h-81l-8 81h-4c-48 -55 -103 -93 -177 -93z" />
    <glyph glyph-name="v" unicode="v" 
d="M246 0l-200 489h100l103 -266c19 -49 35 -97 52 -145h4c17 48 32 96 51 145l103 266h95l-196 -489h-112z" />
    <glyph glyph-name="w" unicode="w" 
d="M107 0l-100 489h98l50 -269c9 -47 15 -90 21 -137h4c6 47 16 91 26 137l53 229h88l52 -229c10 -47 22 -90 28 -137h4c8 47 12 90 20 137l50 269h92l-97 -489h-123l-48 214c-8 36 -16 84 -23 144h-4c-7 -56 -14 -103 -22 -144l-47 -214h-122z" />
    <glyph glyph-name="x" unicode="x" 
d="M57 0l182 254l-169 235h108l71 -100c17 -27 37 -56 55 -83h4c17 27 36 57 52 84l65 99h105l-170 -245l182 -244h-108l-78 104c-19 28 -41 60 -62 88h-4c-18 -29 -37 -58 -56 -88l-72 -104h-105z" />
    <glyph glyph-name="y" unicode="y" 
d="M134 -205c-24 0 -49 4 -67 10l20 77c12 -4 27 -7 42 -7c65 0 104 40 126 94l13 34l-223 486h99l110 -255c18 -44 37 -95 57 -143h4c16 47 34 98 50 143l97 255h94l-209 -520c-39 -104 -99 -174 -213 -174z" />
    <glyph glyph-name="z" unicode="z" 
d="M71 0v53l313 356h-278v80h419v-53l-315 -356h324v-80h-463z" />
    <glyph glyph-name="Agrave" unicode="&#xc0;" 
d="M235 357l-27 -90h181l-27 90c-21 71 -43 144 -62 218h-4c-19 -74 -40 -147 -61 -218zM26 0l216 655h116l216 -655h-106l-56 188h-228l-56 -188h-102zM331 693l-160 115l55 66l149 -131z" />
    <glyph glyph-name="Aacute" unicode="&#xc1;" 
d="M235 357l-27 -90h181l-27 90c-21 71 -43 144 -62 218h-4c-19 -74 -40 -147 -61 -218zM26 0l216 655h116l216 -655h-106l-56 188h-228l-56 -188h-102zM269 693l-44 50l149 131l55 -66z" />
    <glyph glyph-name="Acircumflex" unicode="&#xc2;" 
d="M235 357l-27 -90h181l-27 90c-21 71 -43 144 -62 218h-4c-19 -74 -40 -147 -61 -218zM26 0l216 655h116l216 -655h-106l-56 188h-228l-56 -188h-102zM190 695l-43 30l100 112h106l100 -112l-43 -30l-108 91h-4z" />
    <glyph glyph-name="Atilde" unicode="&#xc3;" 
d="M235 357l-27 -90h181l-27 90c-21 71 -43 144 -62 218h-4c-19 -74 -40 -147 -61 -218zM26 0l216 655h116l216 -655h-106l-56 188h-228l-56 -188h-102zM374 705c-74 0 -102 67 -145 67c-24 0 -42 -20 -46 -62l-65 5c4 83 46 129 108 129c74 0 102 -68 145 -68
c24 0 41 21 46 62l65 -5c-4 -83 -46 -128 -108 -128z" />
    <glyph glyph-name="Adieresis" unicode="&#xc4;" 
d="M235 357l-27 -90h181l-27 90c-21 71 -43 144 -62 218h-4c-19 -74 -40 -147 -61 -218zM26 0l216 655h116l216 -655h-106l-56 188h-228l-56 -188h-102zM204 711c-33 0 -57 24 -57 57s24 56 57 56c32 0 56 -23 56 -56s-24 -57 -56 -57zM396 711c-32 0 -56 24 -56 57
s24 56 56 56c33 0 57 -23 57 -56s-24 -57 -57 -57z" />
    <glyph glyph-name="Amacron" unicode="&#x100;" 
d="M235 357l-27 -90h181l-27 90c-21 71 -43 144 -62 218h-4c-19 -74 -40 -147 -61 -218zM26 0l216 655h116l216 -655h-106l-56 188h-228l-56 -188h-102zM162 731v67h276v-67h-276z" />
    <glyph glyph-name="Abreve" unicode="&#x102;" 
d="M235 357l-27 -90h181l-27 90c-21 71 -43 144 -62 218h-4c-19 -74 -40 -147 -61 -218zM26 0l216 655h116l216 -655h-106l-56 188h-228l-56 -188h-102zM300 703c-94 0 -142 56 -150 131l58 10c8 -46 38 -80 92 -80s84 34 92 80l58 -10c-8 -75 -56 -131 -150 -131z" />
    <glyph glyph-name="Aring" unicode="&#xc5;" 
d="M235 357l-27 -90h181l-27 90c-21 71 -43 144 -62 218h-4c-19 -74 -40 -147 -61 -218zM26 0l216 655h116l216 -655h-106l-56 188h-228l-56 -188h-102zM300 698c-59 0 -101 37 -101 93s42 93 101 93c58 0 101 -37 101 -93s-43 -93 -101 -93zM300 739c26 0 48 19 48 52
c0 32 -22 51 -48 51c-27 0 -49 -19 -49 -51c0 -33 22 -52 49 -52z" />
    <glyph glyph-name="Aringacute" unicode="&#x1fa;" 
d="M235 357l-27 -90h181l-27 90c-21 71 -43 144 -62 218h-4c-19 -74 -40 -147 -61 -218zM26 0l216 655h116l216 -655h-106l-56 188h-228l-56 -188h-102zM300 698c-59 0 -101 37 -101 93c0 29 11 53 30 69l144 118l42 -58l-79 -41c39 -12 65 -44 65 -88
c0 -56 -43 -93 -101 -93zM300 739c26 0 48 19 48 52c0 32 -22 51 -48 51c-27 0 -49 -19 -49 -51c0 -33 22 -52 49 -52z" />
    <glyph glyph-name="uni01CD" unicode="&#x1cd;" 
d="M235 357l-27 -90h181l-27 90c-21 71 -43 144 -62 218h-4c-19 -74 -40 -147 -61 -218zM26 0l216 655h116l216 -655h-106l-56 188h-228l-56 -188h-102zM247 705l-100 112l43 30l108 -90h4l108 90l43 -30l-100 -112h-106z" />
    <glyph glyph-name="Aogonek" unicode="&#x104;" 
d="M513 -226c-60 0 -106 32 -106 93c0 62 48 108 86 133h-25l-56 188h-228l-56 -188h-102l216 655h116l216 -655c-53 -19 -92 -63 -92 -110c0 -32 24 -48 51 -48c20 0 36 9 48 20l28 -51c-24 -21 -58 -37 -96 -37zM235 357l-27 -90h181l-27 90c-22 71 -43 144 -62 218h-4
c-19 -74 -39 -147 -61 -218z" />
    <glyph glyph-name="uni1EA0" unicode="&#x1ea0;" 
d="M235 357l-27 -90h181l-27 90c-21 71 -43 144 -62 218h-4c-19 -74 -40 -147 -61 -218zM26 0l216 655h116l216 -655h-106l-56 188h-228l-56 -188h-102zM300 -223c-42 0 -74 28 -74 71c0 42 32 71 74 71s74 -29 74 -71c0 -43 -32 -71 -74 -71z" />
    <glyph glyph-name="uni1EA2" unicode="&#x1ea2;" 
d="M235 357l-27 -90h181l-27 90c-21 71 -43 144 -62 218h-4c-19 -74 -40 -147 -61 -218zM26 0l216 655h116l216 -655h-106l-56 188h-228l-56 -188h-102zM265 696l-10 44c31 7 54 18 54 41c0 24 -26 37 -82 40l10 55c97 -3 146 -32 146 -84c0 -61 -55 -87 -118 -96z" />
    <glyph glyph-name="uni1EA4" unicode="&#x1ea4;" 
d="M235 357l-27 -90h181l-27 90c-21 71 -43 144 -62 218h-4c-19 -74 -40 -147 -61 -218zM26 0l216 655h116l216 -655h-106l-56 188h-228l-56 -188h-102zM205 695l-40 30l92 93h86l92 -93l-40 -30l-93 70h-4zM429 762l-34 37l98 91l39 -45z" />
    <glyph glyph-name="uni1EA6" unicode="&#x1ea6;" 
d="M235 357l-27 -90h181l-27 90c-21 71 -43 144 -62 218h-4c-19 -74 -40 -147 -61 -218zM26 0l216 655h116l216 -655h-106l-56 188h-228l-56 -188h-102zM205 695l-40 30l92 93h86l92 -93l-40 -30l-93 70h-4zM171 762l-93 85l39 43l88 -93z" />
    <glyph glyph-name="uni1EA8" unicode="&#x1ea8;" 
d="M235 357l-27 -90h181l-27 90c-21 71 -43 144 -62 218h-4c-19 -74 -40 -147 -61 -218zM26 0l216 655h116l216 -655h-106l-56 188h-228l-56 -188h-102zM205 695l-40 30l92 93h86l92 -93l-40 -30l-93 70h-4zM421 753l-11 38c23 5 41 14 41 34c0 24 -19 34 -69 37l10 47
c86 -3 127 -29 127 -75c0 -53 -46 -74 -98 -81z" />
    <glyph glyph-name="uni1EAA" unicode="&#x1eaa;" 
d="M235 357l-27 -90h181l-27 90c-21 71 -43 144 -62 218h-4c-19 -74 -40 -147 -61 -218zM26 0l216 655h116l216 -655h-106l-56 188h-228l-56 -188h-102zM205 695l-40 30l92 88h86l92 -88l-40 -30l-93 66h-4zM364 839c-61 0 -86 48 -123 48c-23 0 -33 -15 -37 -44l-51 6
c3 58 28 96 83 96c61 0 86 -48 123 -48c23 0 33 16 37 44l51 -6c-3 -57 -28 -96 -83 -96z" />
    <glyph glyph-name="uni1EAC" unicode="&#x1eac;" 
d="M235 357l-27 -90h181l-27 90c-21 71 -43 144 -62 218h-4c-19 -74 -40 -147 -61 -218zM26 0l216 655h116l216 -655h-106l-56 188h-228l-56 -188h-102zM190 695l-43 30l100 112h106l100 -112l-43 -30l-108 91h-4zM300 -223c-42 0 -74 28 -74 71c0 42 32 71 74 71
s74 -29 74 -71c0 -43 -32 -71 -74 -71z" />
    <glyph glyph-name="uni1EAE" unicode="&#x1eae;" 
d="M235 357l-27 -90h181l-27 90c-21 71 -43 144 -62 218h-4c-19 -74 -40 -147 -61 -218zM26 0l216 655h116l216 -655h-106l-56 188h-228l-56 -188h-102zM300 703c-94 0 -142 56 -150 131l53 10c9 -49 41 -85 97 -85s88 36 97 85l53 -10c-8 -75 -56 -131 -150 -131zM307 804
l-49 33l95 122l62 -42z" />
    <glyph glyph-name="uni1EB0" unicode="&#x1eb0;" 
d="M235 357l-27 -90h181l-27 90c-21 71 -43 144 -62 218h-4c-19 -74 -40 -147 -61 -218zM26 0l216 655h116l216 -655h-106l-56 188h-228l-56 -188h-102zM300 703c-94 0 -142 56 -150 131l53 10c9 -49 41 -85 97 -85s88 36 97 85l53 -10c-8 -75 -56 -131 -150 -131zM293 804
l-108 113l62 42l95 -122z" />
    <glyph glyph-name="uni1EB2" unicode="&#x1eb2;" 
d="M235 357l-27 -90h181l-27 90c-21 71 -43 144 -62 218h-4c-19 -74 -40 -147 -61 -218zM26 0l216 655h116l216 -655h-106l-56 188h-228l-56 -188h-102zM300 703c-94 0 -142 56 -150 131l53 10c9 -49 41 -85 97 -85s88 36 97 85l53 -10c-8 -75 -56 -131 -150 -131zM275 802
l-11 37c23 6 41 15 41 35c0 24 -19 34 -69 37l10 46c86 -3 127 -28 127 -74c0 -53 -46 -74 -98 -81z" />
    <glyph glyph-name="uni1EB4" unicode="&#x1eb4;" 
d="M235 357l-27 -90h181l-27 90c-21 71 -43 144 -62 218h-4c-19 -74 -40 -147 -61 -218zM26 0l216 655h116l216 -655h-106l-56 188h-228l-56 -188h-102zM300 706c-94 0 -140 49 -147 108l53 9c7 -34 34 -65 94 -65s87 31 94 65l53 -9c-7 -59 -53 -108 -147 -108zM364 844
c-61 0 -86 48 -123 48c-23 0 -33 -16 -37 -44l-51 6c3 57 28 96 83 96c61 0 86 -48 123 -48c23 0 33 16 37 44l51 -6c-3 -57 -28 -96 -83 -96z" />
    <glyph glyph-name="uni1EB6" unicode="&#x1eb6;" 
d="M235 357l-27 -90h181l-27 90c-21 71 -43 144 -62 218h-4c-19 -74 -40 -147 -61 -218zM26 0l216 655h116l216 -655h-106l-56 188h-228l-56 -188h-102zM300 703c-94 0 -142 56 -150 131l58 10c8 -46 38 -80 92 -80s84 34 92 80l58 -10c-8 -75 -56 -131 -150 -131zM300 -223
c-42 0 -74 28 -74 71c0 42 32 71 74 71s74 -29 74 -71c0 -43 -32 -71 -74 -71z" />
    <glyph glyph-name="AE" unicode="&#xc6;" 
d="M237 372l-41 -113h120v319h-4c-24 -71 -50 -139 -75 -206zM-2 0l252 655h333v-84h-177v-186h139v-84h-139v-217h186v-84h-276v180h-149l-65 -180h-104z" />
    <glyph glyph-name="AEacute" unicode="&#x1fc;" 
d="M237 372l-41 -113h120v319h-4c-24 -71 -50 -139 -75 -206zM-2 0l252 655h333v-84h-177v-186h139v-84h-139v-217h186v-84h-276v180h-149l-65 -180h-104zM382 693l-44 50l149 131l55 -66z" />
    <glyph glyph-name="uni01E2" unicode="&#x1e2;" 
d="M237 372l-41 -113h120v319h-4c-24 -71 -50 -139 -75 -206zM-2 0l252 655h333v-84h-177v-186h139v-84h-139v-217h186v-84h-276v180h-149l-65 -180h-104zM275 731v67h276v-67h-276z" />
    <glyph glyph-name="uni0243" unicode="&#x243;" 
d="M100 0v164h-78v60l78 6v425h192c134 0 228 -43 228 -159c0 -63 -36 -120 -114 -140v-4c96 -16 150 -68 150 -158c0 -131 -102 -194 -248 -194h-208zM199 80h97c103 0 161 36 161 120c0 77 -55 109 -161 109h-97v-79h133v-66h-133v-84zM199 384h81c101 0 143 34 143 102
c0 65 -47 89 -140 89h-84v-191z" />
    <glyph glyph-name="uni1E06" unicode="&#x1e06;" 
d="M92 0v655h195c134 0 229 -43 229 -160c0 -64 -37 -123 -114 -143v-4c95 -15 149 -67 149 -156c0 -130 -102 -192 -248 -192h-211zM192 383h83c101 0 143 34 143 101c0 65 -47 89 -140 89h-86v-190zM192 82h99c104 0 162 35 162 116c0 75 -56 105 -162 105h-99v-221z
M170 -176v67h274v-67h-274z" />
    <glyph glyph-name="Ccedilla" unicode="&#xc7;" 
d="M257 -230l-8 46c82 5 107 19 107 48c0 24 -19 38 -77 46l34 80c-143 19 -251 139 -251 336c0 213 126 341 298 341c80 0 144 -39 184 -81l-56 -63c-33 35 -74 57 -128 57c-117 0 -195 -96 -195 -251c0 -157 78 -254 197 -254c57 0 101 25 140 69l56 -61
c-47 -55 -107 -88 -182 -94l-19 -52c46 -11 73 -31 73 -72c0 -61 -62 -90 -173 -95z" />
    <glyph glyph-name="Cacute" unicode="&#x106;" 
d="M352 -12c-162 0 -290 123 -290 338c0 213 126 341 298 341c80 0 144 -39 184 -81l-56 -63c-33 35 -74 57 -128 57c-117 0 -195 -96 -195 -251c0 -157 78 -254 197 -254c57 0 101 25 140 69l56 -61c-52 -61 -119 -95 -206 -95zM317 693l-44 50l149 131l55 -66z" />
    <glyph glyph-name="Ccircumflex" unicode="&#x108;" 
d="M352 -12c-162 0 -290 123 -290 338c0 213 126 341 298 341c80 0 144 -39 184 -81l-56 -63c-33 35 -74 57 -128 57c-117 0 -195 -96 -195 -251c0 -157 78 -254 197 -254c57 0 101 25 140 69l56 -61c-52 -61 -119 -95 -206 -95zM238 695l-43 30l100 112h106l100 -112
l-43 -30l-108 91h-4z" />
    <glyph glyph-name="Ccaron" unicode="&#x10c;" 
d="M352 -12c-162 0 -290 123 -290 338c0 213 126 341 298 341c80 0 144 -39 184 -81l-56 -63c-33 35 -74 57 -128 57c-117 0 -195 -96 -195 -251c0 -157 78 -254 197 -254c57 0 101 25 140 69l56 -61c-52 -61 -119 -95 -206 -95zM295 705l-100 112l43 30l108 -90h4l108 90
l43 -30l-100 -112h-106z" />
    <glyph glyph-name="Cdotaccent" unicode="&#x10a;" 
d="M352 -12c-162 0 -290 123 -290 338c0 213 126 341 298 341c80 0 144 -39 184 -81l-56 -63c-33 35 -74 57 -128 57c-117 0 -195 -96 -195 -251c0 -157 78 -254 197 -254c57 0 101 25 140 69l56 -61c-52 -61 -119 -95 -206 -95zM348 710c-38 0 -67 26 -67 65
c0 37 29 63 67 63s67 -26 67 -63c0 -39 -29 -65 -67 -65z" />
    <glyph glyph-name="Dcaron" unicode="&#x10e;" 
d="M83 0v655h166c196 0 307 -112 307 -325c0 -212 -111 -330 -302 -330h-171zM183 81h60c137 0 210 86 210 249s-73 244 -210 244h-60v-493zM247 705l-100 112l43 30l108 -90h4l108 90l43 -30l-100 -112h-106z" />
    <glyph glyph-name="uni1E0C" unicode="&#x1e0c;" 
d="M83 0v655h166c196 0 307 -112 307 -325c0 -212 -111 -330 -302 -330h-171zM183 81h60c137 0 210 86 210 249s-73 244 -210 244h-60v-493zM295 -223c-42 0 -74 28 -74 71c0 42 32 71 74 71s74 -29 74 -71c0 -43 -32 -71 -74 -71z" />
    <glyph glyph-name="uni1E0E" unicode="&#x1e0e;" 
d="M83 0v655h166c196 0 307 -112 307 -325c0 -212 -111 -330 -302 -330h-171zM183 81h60c137 0 210 86 210 249s-73 244 -210 244h-60v-493zM158 -176v67h274v-67h-274z" />
    <glyph glyph-name="uni1E10" unicode="&#x1e10;" 
d="M183 81h60c137 0 210 86 210 249s-73 244 -210 244h-60v-493zM194 -230l-8 46c82 5 107 19 107 48c0 24 -19 38 -77 46l38 90h-171v655h166c196 0 307 -112 307 -325c0 -187 -86 -301 -237 -325l-25 -68c46 -11 73 -31 73 -72c0 -61 -62 -90 -173 -95z" />
    <glyph glyph-name="Dcroat" unicode="&#x110;" 
d="M83 0v310h-74v59l74 6v280h167c194 0 306 -112 306 -325c0 -212 -112 -330 -301 -330h-172zM182 81h61c136 0 209 86 209 249s-73 244 -209 244h-61v-199h135v-65h-135v-229z" />
    <glyph glyph-name="uni018A" unicode="&#x18a;" 
d="M204 0v580c-70 -15 -104 -68 -104 -133c0 -60 24 -92 70 -120l-44 -67c-68 34 -110 90 -110 181c0 131 83 226 256 226c198 0 299 -115 299 -330c0 -219 -101 -337 -262 -337h-105zM299 81h19c98 0 153 88 153 256c0 158 -53 242 -172 248v-504z" />
    <glyph glyph-name="Egrave" unicode="&#xc8;" 
d="M109 0v655h412v-84h-312v-187h264v-84h-264v-216h322v-84h-422zM360 693l-160 115l55 66l149 -131z" />
    <glyph glyph-name="Eacute" unicode="&#xc9;" 
d="M109 0v655h412v-84h-312v-187h264v-84h-264v-216h322v-84h-422zM298 693l-44 50l149 131l55 -66z" />
    <glyph glyph-name="Ecircumflex" unicode="&#xca;" 
d="M109 0v655h412v-84h-312v-187h264v-84h-264v-216h322v-84h-422zM219 695l-43 30l100 112h106l100 -112l-43 -30l-108 91h-4z" />
    <glyph glyph-name="Ecaron" unicode="&#x11a;" 
d="M109 0v655h412v-84h-312v-187h264v-84h-264v-216h322v-84h-422zM276 705l-100 112l43 30l108 -90h4l108 90l43 -30l-100 -112h-106z" />
    <glyph glyph-name="Edieresis" unicode="&#xcb;" 
d="M109 0v655h412v-84h-312v-187h264v-84h-264v-216h322v-84h-422zM233 711c-33 0 -57 24 -57 57s24 56 57 56c32 0 56 -23 56 -56s-24 -57 -56 -57zM425 711c-32 0 -56 24 -56 57s24 56 56 56c33 0 57 -23 57 -56s-24 -57 -57 -57z" />
    <glyph glyph-name="Emacron" unicode="&#x112;" 
d="M109 0v655h412v-84h-312v-187h264v-84h-264v-216h322v-84h-422zM191 731v67h276v-67h-276z" />
    <glyph glyph-name="Ebreve" unicode="&#x114;" 
d="M109 0v655h412v-84h-312v-187h264v-84h-264v-216h322v-84h-422zM329 703c-94 0 -142 56 -150 131l58 10c8 -46 38 -80 92 -80s84 34 92 80l58 -10c-8 -75 -56 -131 -150 -131z" />
    <glyph glyph-name="Edotaccent" unicode="&#x116;" 
d="M109 0v655h412v-84h-312v-187h264v-84h-264v-216h322v-84h-422zM329 710c-38 0 -67 26 -67 65c0 37 29 63 67 63s67 -26 67 -63c0 -39 -29 -65 -67 -65z" />
    <glyph glyph-name="Eogonek" unicode="&#x118;" 
d="M458 -226c-60 0 -106 32 -106 93c0 60 43 108 85 133h-327v655h411v-84h-311v-187h263v-84h-263v-216h321v-84h-4c-50 -6 -100 -59 -100 -110c0 -33 26 -48 53 -48c19 0 35 10 46 20l28 -51c-24 -21 -58 -37 -96 -37z" />
    <glyph glyph-name="uni1EB8" unicode="&#x1eb8;" 
d="M109 0v655h412v-84h-312v-187h264v-84h-264v-216h322v-84h-422zM330 -223c-42 0 -74 28 -74 71c0 42 32 71 74 71s74 -29 74 -71c0 -43 -32 -71 -74 -71z" />
    <glyph glyph-name="uni1EBA" unicode="&#x1eba;" 
d="M109 0v655h412v-84h-312v-187h264v-84h-264v-216h322v-84h-422zM294 696l-10 44c31 7 54 18 54 41c0 24 -26 37 -82 40l10 55c97 -3 146 -32 146 -84c0 -61 -55 -87 -118 -96z" />
    <glyph glyph-name="uni1EBC" unicode="&#x1ebc;" 
d="M109 0v655h412v-84h-312v-187h264v-84h-264v-216h322v-84h-422zM403 705c-74 0 -102 67 -145 67c-24 0 -42 -20 -46 -62l-65 5c4 83 46 129 108 129c74 0 102 -68 145 -68c24 0 41 21 46 62l65 -5c-4 -83 -46 -128 -108 -128z" />
    <glyph glyph-name="uni1EBE" unicode="&#x1ebe;" 
d="M109 0v655h412v-84h-312v-187h264v-84h-264v-216h322v-84h-422zM234 695l-40 30l92 93h86l92 -93l-40 -30l-93 70h-4zM458 762l-34 37l98 91l39 -45z" />
    <glyph glyph-name="uni1EC0" unicode="&#x1ec0;" 
d="M109 0v655h412v-84h-312v-187h264v-84h-264v-216h322v-84h-422zM234 695l-40 30l92 93h86l92 -93l-40 -30l-93 70h-4zM200 762l-93 85l39 43l88 -93z" />
    <glyph glyph-name="uni1EC2" unicode="&#x1ec2;" 
d="M109 0v655h412v-84h-312v-187h264v-84h-264v-216h322v-84h-422zM234 695l-40 30l92 93h86l92 -93l-40 -30l-93 70h-4zM450 753l-11 38c23 5 41 14 41 34c0 24 -19 34 -69 37l10 47c86 -3 127 -29 127 -75c0 -53 -46 -74 -98 -81z" />
    <glyph glyph-name="uni1EC4" unicode="&#x1ec4;" 
d="M109 0v655h412v-84h-312v-187h264v-84h-264v-216h322v-84h-422zM234 695l-40 30l92 88h86l92 -88l-40 -30l-93 66h-4zM393 839c-61 0 -86 48 -123 48c-23 0 -33 -15 -37 -44l-51 6c3 58 28 96 83 96c61 0 86 -48 123 -48c23 0 33 16 37 44l51 -6c-3 -57 -28 -96 -83 -96z
" />
    <glyph glyph-name="uni1EC6" unicode="&#x1ec6;" 
d="M109 0v655h412v-84h-312v-187h264v-84h-264v-216h322v-84h-422zM219 695l-43 30l100 112h106l100 -112l-43 -30l-108 91h-4zM330 -223c-42 0 -74 28 -74 71c0 42 32 71 74 71s74 -29 74 -71c0 -43 -32 -71 -74 -71z" />
    <glyph glyph-name="uni1E16" unicode="&#x1e16;" 
d="M109 0v655h412v-84h-312v-187h264v-84h-264v-216h322v-84h-422zM191 731v67h276v-67h-276zM307 829l-35 45l130 104l44 -56z" />
    <glyph glyph-name="uni01F4" unicode="&#x1f4;" 
d="M339 -12c-166 0 -288 123 -288 338c0 214 124 341 293 341c87 0 145 -41 184 -81l-56 -63c-31 33 -68 57 -128 57c-113 0 -190 -96 -190 -251c0 -157 68 -254 191 -254c40 0 78 13 100 34v156h-121v82h213v-282c-42 -42 -114 -77 -198 -77zM299 693l-44 50l149 131
l55 -66z" />
    <glyph glyph-name="Gcircumflex" unicode="&#x11c;" 
d="M339 -12c-166 0 -288 123 -288 338c0 214 124 341 293 341c87 0 145 -41 184 -81l-56 -63c-31 33 -68 57 -128 57c-113 0 -190 -96 -190 -251c0 -157 68 -254 191 -254c40 0 78 13 100 34v156h-121v82h213v-282c-42 -42 -114 -77 -198 -77zM220 695l-43 30l100 112h106
l100 -112l-43 -30l-108 91h-4z" />
    <glyph glyph-name="Gbreve" unicode="&#x11e;" 
d="M339 -12c-166 0 -288 123 -288 338c0 214 124 341 293 341c87 0 145 -41 184 -81l-56 -63c-31 33 -68 57 -128 57c-113 0 -190 -96 -190 -251c0 -157 68 -254 191 -254c40 0 78 13 100 34v156h-121v82h213v-282c-42 -42 -114 -77 -198 -77zM330 703
c-94 0 -142 56 -150 131l58 10c8 -46 38 -80 92 -80s84 34 92 80l58 -10c-8 -75 -56 -131 -150 -131z" />
    <glyph glyph-name="Gdotaccent" unicode="&#x120;" 
d="M339 -12c-166 0 -288 123 -288 338c0 214 124 341 293 341c87 0 145 -41 184 -81l-56 -63c-31 33 -68 57 -128 57c-113 0 -190 -96 -190 -251c0 -157 68 -254 191 -254c40 0 78 13 100 34v156h-121v82h213v-282c-42 -42 -114 -77 -198 -77zM330 710c-38 0 -67 26 -67 65
c0 37 29 63 67 63s67 -26 67 -63c0 -39 -29 -65 -67 -65z" />
    <glyph glyph-name="uni0122" unicode="&#x122;" 
d="M339 -12c-166 0 -288 123 -288 338c0 214 124 341 293 341c87 0 145 -41 184 -81l-56 -63c-31 33 -68 57 -128 57c-113 0 -190 -96 -190 -251c0 -157 68 -254 191 -254c40 0 78 13 100 34v156h-121v82h213v-282c-42 -42 -114 -77 -198 -77zM237 -230l-8 46
c82 5 107 19 107 45c0 24 -23 36 -69 40l20 43c93 -10 123 -33 123 -79c0 -61 -62 -90 -173 -95z" />
    <glyph glyph-name="Gcaron" unicode="&#x1e6;" 
d="M339 -12c-166 0 -288 123 -288 338c0 214 124 341 293 341c87 0 145 -41 184 -81l-56 -63c-31 33 -68 57 -128 57c-113 0 -190 -96 -190 -251c0 -157 68 -254 191 -254c40 0 78 13 100 34v156h-121v82h213v-282c-42 -42 -114 -77 -198 -77zM277 705l-100 112l43 30
l108 -90h4l108 90l43 -30l-100 -112h-106z" />
    <glyph glyph-name="uni1E20" unicode="&#x1e20;" 
d="M339 -12c-166 0 -288 123 -288 338c0 214 124 341 293 341c87 0 145 -41 184 -81l-56 -63c-31 33 -68 57 -128 57c-113 0 -190 -96 -190 -251c0 -157 68 -254 191 -254c40 0 78 13 100 34v156h-121v82h213v-282c-42 -42 -114 -77 -198 -77zM192 731v67h276v-67h-276z" />
    <glyph glyph-name="uni00470303" 
d="M339 -12c-166 0 -288 123 -288 338c0 214 124 341 293 341c87 0 145 -41 184 -81l-56 -63c-31 33 -68 57 -128 57c-113 0 -190 -96 -190 -251c0 -157 68 -254 191 -254c40 0 78 13 100 34v156h-121v82h213v-282c-42 -42 -114 -77 -198 -77zM404 705
c-74 0 -102 67 -145 67c-24 0 -42 -20 -46 -62l-65 5c4 83 46 129 108 129c74 0 102 -68 145 -68c24 0 41 21 46 62l65 -5c-4 -83 -46 -128 -108 -128z" />
    <glyph glyph-name="uni0193" unicode="&#x193;" 
d="M528 586l-56 -63c-31 33 -68 57 -128 57c-113 0 -190 -96 -190 -251c0 -157 68 -254 191 -254c40 0 78 13 100 34v156h-121v82h213v-282c-42 -42 -114 -77 -198 -77c-166 0 -288 123 -288 338c0 214 124 341 293 341c25 0 47 -3 67 -9c-3 12 -5 25 -5 37
c0 65 48 113 120 113c30 0 51 -7 68 -13l-19 -75c-10 4 -19 8 -32 8c-33 0 -53 -22 -53 -52c0 -35 14 -56 38 -90z" />
    <glyph glyph-name="Hcircumflex" unicode="&#x124;" 
d="M75 0v655h101v-269h248v269h101v-655h-101v299h-248v-299h-101zM190 695l-43 30l100 112h106l100 -112l-43 -30l-108 91h-4z" />
    <glyph glyph-name="uni1E26" unicode="&#x1e26;" 
d="M75 0v655h101v-269h248v269h101v-655h-101v299h-248v-299h-101zM204 711c-33 0 -57 24 -57 57s24 56 57 56c32 0 56 -23 56 -56s-24 -57 -56 -57zM396 711c-32 0 -56 24 -56 57s24 56 56 56c33 0 57 -23 57 -56s-24 -57 -57 -57z" />
    <glyph glyph-name="uni1E24" unicode="&#x1e24;" 
d="M75 0v655h101v-269h248v269h101v-655h-101v299h-248v-299h-101zM300 -223c-42 0 -74 28 -74 71c0 42 32 71 74 71s74 -29 74 -71c0 -43 -32 -71 -74 -71z" />
    <glyph glyph-name="uni1E28" unicode="&#x1e28;" 
d="M75 0v655h101v-269h248v269h101v-655h-101v299h-248v-299h-18l-23 -63c46 -11 73 -31 73 -72c0 -61 -62 -90 -173 -95l-8 46c82 5 107 19 107 48c0 24 -19 38 -77 46l38 90h-20z" />
    <glyph glyph-name="uni1E2A" unicode="&#x1e2a;" 
d="M75 0v655h101v-269h248v269h101v-655h-101v299h-248v-299h-101zM300 -232c-109 0 -155 75 -160 153l60 10c7 -50 38 -98 100 -98s93 48 100 98l60 -10c-5 -78 -51 -153 -160 -153z" />
    <glyph glyph-name="Hbar" unicode="&#x126;" 
d="M8 484v59l67 6v106h101v-106h248v106h101v-106h67v-65h-67v-484h-101v299h-248v-299h-101v484h-67zM176 386h248v98h-248v-98z" />
    <glyph glyph-name="Igrave" unicode="&#xcc;" 
d="M90 0v84h160v487h-160v84h420v-84h-160v-487h160v-84h-420zM331 693l-160 115l55 66l149 -131z" />
    <glyph glyph-name="Iacute" unicode="&#xcd;" 
d="M90 0v84h160v487h-160v84h420v-84h-160v-487h160v-84h-420zM269 693l-44 50l149 131l55 -66z" />
    <glyph glyph-name="Icircumflex" unicode="&#xce;" 
d="M90 0v84h160v487h-160v84h420v-84h-160v-487h160v-84h-420zM190 695l-43 30l100 112h106l100 -112l-43 -30l-108 91h-4z" />
    <glyph glyph-name="Itilde" unicode="&#x128;" 
d="M90 0v84h160v487h-160v84h420v-84h-160v-487h160v-84h-420zM374 705c-74 0 -102 67 -145 67c-24 0 -42 -20 -46 -62l-65 5c4 83 46 129 108 129c74 0 102 -68 145 -68c24 0 41 21 46 62l65 -5c-4 -83 -46 -128 -108 -128z" />
    <glyph glyph-name="Idieresis" unicode="&#xcf;" 
d="M90 0v84h160v487h-160v84h420v-84h-160v-487h160v-84h-420zM204 711c-33 0 -57 24 -57 57s24 56 57 56c32 0 56 -23 56 -56s-24 -57 -56 -57zM396 711c-32 0 -56 24 -56 57s24 56 56 56c33 0 57 -23 57 -56s-24 -57 -57 -57z" />
    <glyph glyph-name="Imacron" unicode="&#x12a;" 
d="M90 0v84h160v487h-160v84h420v-84h-160v-487h160v-84h-420zM162 731v67h276v-67h-276z" />
    <glyph glyph-name="Idotaccent" unicode="&#x130;" 
d="M90 0v84h160v487h-160v84h420v-84h-160v-487h160v-84h-420zM300 710c-38 0 -67 26 -67 65c0 37 29 63 67 63s67 -26 67 -63c0 -39 -29 -65 -67 -65z" />
    <glyph glyph-name="uni01CF" unicode="&#x1cf;" 
d="M90 0v84h160v487h-160v84h420v-84h-160v-487h160v-84h-420zM247 705l-100 112l43 30l108 -90h4l108 90l43 -30l-100 -112h-106z" />
    <glyph glyph-name="Iogonek" unicode="&#x12e;" 
d="M310 -226c-60 0 -106 32 -106 93c0 58 40 104 72 133h-186v84h160v487h-160v84h420v-84h-160v-487h160v-84h-156c-52 -34 -75 -74 -75 -110c0 -33 26 -48 52 -48c20 0 36 10 47 20l28 -51c-24 -21 -58 -37 -96 -37z" />
    <glyph glyph-name="uni1EC8" unicode="&#x1ec8;" 
d="M90 0v84h160v487h-160v84h420v-84h-160v-487h160v-84h-420zM265 696l-10 44c31 7 54 18 54 41c0 24 -26 37 -82 40l10 55c97 -3 146 -32 146 -84c0 -61 -55 -87 -118 -96z" />
    <glyph glyph-name="uni1ECA" unicode="&#x1eca;" 
d="M90 0v84h160v487h-160v84h420v-84h-160v-487h160v-84h-420zM300 -223c-42 0 -74 28 -74 71c0 42 32 71 74 71s74 -29 74 -71c0 -43 -32 -71 -74 -71z" />
    <glyph glyph-name="Ibreve" unicode="&#x12c;" 
d="M90 0v84h160v487h-160v84h420v-84h-160v-487h160v-84h-420zM300 703c-94 0 -142 56 -150 131l58 10c8 -46 38 -80 92 -80s84 34 92 80l58 -10c-8 -75 -56 -131 -150 -131z" />
    <glyph glyph-name="Jcircumflex" unicode="&#x134;" 
d="M275 -12c-73 0 -152 32 -200 109l61 61c37 -56 88 -83 136 -83c87 0 127 43 127 146v351h-269v84h369v-443c0 -124 -56 -225 -224 -225zM215 695l-43 30l100 112h106l100 -112l-43 -30l-108 91h-4z" />
    <glyph glyph-name="uni0136" unicode="&#x136;" 
d="M90 0v655h101v-313h3l254 313h113l-205 -252l228 -403h-112l-178 328l-103 -127v-201h-101zM244 -230l-8 46c82 5 107 19 107 45c0 24 -23 36 -69 40l20 43c93 -10 123 -33 123 -79c0 -61 -62 -90 -173 -95z" />
    <glyph glyph-name="uni1E32" unicode="&#x1e32;" 
d="M90 0v655h101v-313h3l254 313h113l-205 -252l228 -403h-112l-178 328l-103 -127v-201h-101zM335 -223c-42 0 -74 28 -74 71c0 42 32 71 74 71s74 -29 74 -71c0 -43 -32 -71 -74 -71z" />
    <glyph glyph-name="uni1E34" unicode="&#x1e34;" 
d="M90 0v655h101v-313h3l254 313h113l-205 -252l228 -403h-112l-178 328l-103 -127v-201h-101zM198 -176v67h274v-67h-274z" />
    <glyph glyph-name="Lacute" unicode="&#x139;" 
d="M127 0v655h99v-571h315v-84h-414zM159 693l-44 50l149 131l55 -66z" />
    <glyph glyph-name="Lcaron" unicode="&#x13d;" 
d="M127 0v655h99v-571h315v-84h-414zM379 513l-4 270h89l-1 -86l-17 -184h-67z" />
    <glyph glyph-name="uni013B" unicode="&#x13b;" 
d="M127 0v655h99v-571h315v-84h-414zM254 -230l-8 46c82 5 107 19 107 45c0 24 -23 36 -69 40l20 43c93 -10 123 -33 123 -79c0 -61 -62 -90 -173 -95z" />
    <glyph glyph-name="uni1E36" unicode="&#x1e36;" 
d="M127 0v655h99v-571h315v-84h-414zM345 -223c-42 0 -74 28 -74 71c0 42 32 71 74 71s74 -29 74 -71c0 -43 -32 -71 -74 -71z" />
    <glyph glyph-name="uni1E38" unicode="&#x1e38;" 
d="M127 0v655h99v-571h315v-84h-414zM52 731v67h276v-67h-276zM345 -223c-42 0 -74 28 -74 71c0 42 32 71 74 71s74 -29 74 -71c0 -43 -32 -71 -74 -71z" />
    <glyph glyph-name="uni1E3A" unicode="&#x1e3a;" 
d="M127 0v655h99v-571h315v-84h-414zM208 -176v67h274v-67h-274z" />
    <glyph glyph-name="Lslash" unicode="&#x141;" 
d="M40 178l-34 62l121 66v349h99v-304l203 109l34 -62l-237 -127v-187h315v-84h-414v226z" />
    <glyph glyph-name="Ldot" unicode="&#x13f;" 
d="M127 0v655h99v-571h315v-84h-414zM469 281c-42 0 -74 28 -74 71c0 42 32 71 74 71s74 -29 74 -71c0 -43 -32 -71 -74 -71z" />
    <glyph glyph-name="uni1E3E" unicode="&#x1e3e;" 
d="M68 0v655h116l85 -267l29 -102h4l29 102l85 267h116v-655h-92v295c0 67 11 191 16 251h-3l-41 -141l-83 -231h-62l-82 231l-40 141h-3c7 -60 16 -184 16 -251v-295h-90zM269 693l-44 50l149 131l55 -66z" />
    <glyph glyph-name="uni1E40" unicode="&#x1e40;" 
d="M68 0v655h116l85 -267l29 -102h4l29 102l85 267h116v-655h-92v295c0 67 11 191 16 251h-3l-41 -141l-83 -231h-62l-82 231l-40 141h-3c7 -60 16 -184 16 -251v-295h-90zM300 710c-38 0 -67 26 -67 65c0 37 29 63 67 63s67 -26 67 -63c0 -39 -29 -65 -67 -65z" />
    <glyph glyph-name="uni1E42" unicode="&#x1e42;" 
d="M68 0v655h116l85 -267l29 -102h4l29 102l85 267h116v-655h-92v295c0 67 11 191 16 251h-3l-41 -141l-83 -231h-62l-82 231l-40 141h-3c7 -60 16 -184 16 -251v-295h-90zM300 -223c-42 0 -74 28 -74 71c0 42 32 71 74 71s74 -29 74 -71c0 -43 -32 -71 -74 -71z" />
    <glyph glyph-name="Nacute" unicode="&#x143;" 
d="M78 0v655h107l191 -389l61 -138h3c-4 66 -14 144 -14 215v312h96v-655h-107l-191 389l-61 138h-3c4 -68 14 -143 14 -213v-314h-96zM279 693l-44 50l149 131l55 -66z" />
    <glyph glyph-name="uni01F8" unicode="&#x1f8;" 
d="M78 0v655h107l191 -389l61 -138h3c-4 66 -14 144 -14 215v312h96v-655h-107l-191 389l-61 138h-3c4 -68 14 -143 14 -213v-314h-96zM341 693l-160 115l55 66l149 -131z" />
    <glyph glyph-name="Ncaron" unicode="&#x147;" 
d="M78 0v655h107l191 -389l61 -138h3c-4 66 -14 144 -14 215v312h96v-655h-107l-191 389l-61 138h-3c4 -68 14 -143 14 -213v-314h-96zM257 705l-100 112l43 30l108 -90h4l108 90l43 -30l-100 -112h-106z" />
    <glyph glyph-name="Ntilde" unicode="&#xd1;" 
d="M78 0v655h107l191 -389l61 -138h3c-4 66 -14 144 -14 215v312h96v-655h-107l-191 389l-61 138h-3c4 -68 14 -143 14 -213v-314h-96zM384 705c-74 0 -102 67 -145 67c-24 0 -42 -20 -46 -62l-65 5c4 83 46 129 108 129c74 0 102 -68 145 -68c24 0 41 21 46 62l65 -5
c-4 -83 -46 -128 -108 -128z" />
    <glyph glyph-name="uni0145" unicode="&#x145;" 
d="M78 0v655h107l191 -389l61 -138h3c-4 66 -14 144 -14 215v312h96v-655h-107l-191 389l-61 138h-3c4 -68 14 -143 14 -213v-314h-96zM209 -230l-8 46c82 5 107 19 107 45c0 24 -23 36 -69 40l20 43c93 -10 123 -33 123 -79c0 -61 -62 -90 -173 -95z" />
    <glyph glyph-name="uni1E44" unicode="&#x1e44;" 
d="M78 0v655h107l191 -389l61 -138h3c-4 66 -14 144 -14 215v312h96v-655h-107l-191 389l-61 138h-3c4 -68 14 -143 14 -213v-314h-96zM310 710c-38 0 -67 26 -67 65c0 37 29 63 67 63s67 -26 67 -63c0 -39 -29 -65 -67 -65z" />
    <glyph glyph-name="uni1E46" unicode="&#x1e46;" 
d="M78 0v655h107l191 -389l61 -138h3c-4 66 -14 144 -14 215v312h96v-655h-107l-191 389l-61 138h-3c4 -68 14 -143 14 -213v-314h-96zM300 -223c-42 0 -74 28 -74 71c0 42 32 71 74 71s74 -29 74 -71c0 -43 -32 -71 -74 -71z" />
    <glyph glyph-name="uni1E48" unicode="&#x1e48;" 
d="M78 0v655h107l191 -389l61 -138h3c-4 66 -14 144 -14 215v312h96v-655h-107l-191 389l-61 138h-3c4 -68 14 -143 14 -213v-314h-96zM163 -176v67h274v-67h-274z" />
    <glyph glyph-name="Ograve" unicode="&#xd2;" 
d="M300 -12c-150 0 -255 125 -255 342c0 214 105 337 255 337s255 -123 255 -337c0 -217 -105 -342 -255 -342zM300 75c91 0 152 94 152 255c0 158 -61 250 -152 250s-152 -92 -152 -250c0 -161 61 -255 152 -255zM331 693l-160 115l55 66l149 -131z" />
    <glyph glyph-name="Oacute" unicode="&#xd3;" 
d="M300 -12c-150 0 -255 125 -255 342c0 214 105 337 255 337s255 -123 255 -337c0 -217 -105 -342 -255 -342zM300 75c91 0 152 94 152 255c0 158 -61 250 -152 250s-152 -92 -152 -250c0 -161 61 -255 152 -255zM269 693l-44 50l149 131l55 -66z" />
    <glyph glyph-name="Ocircumflex" unicode="&#xd4;" 
d="M300 -12c-150 0 -255 125 -255 342c0 214 105 337 255 337s255 -123 255 -337c0 -217 -105 -342 -255 -342zM300 75c91 0 152 94 152 255c0 158 -61 250 -152 250s-152 -92 -152 -250c0 -161 61 -255 152 -255zM190 695l-43 30l100 112h106l100 -112l-43 -30l-108 91h-4z
" />
    <glyph glyph-name="Otilde" unicode="&#xd5;" 
d="M300 -12c-150 0 -255 125 -255 342c0 214 105 337 255 337s255 -123 255 -337c0 -217 -105 -342 -255 -342zM300 75c91 0 152 94 152 255c0 158 -61 250 -152 250s-152 -92 -152 -250c0 -161 61 -255 152 -255zM374 705c-74 0 -102 67 -145 67c-24 0 -42 -20 -46 -62
l-65 5c4 83 46 129 108 129c74 0 102 -68 145 -68c24 0 41 21 46 62l65 -5c-4 -83 -46 -128 -108 -128z" />
    <glyph glyph-name="Odieresis" unicode="&#xd6;" 
d="M300 -12c-150 0 -255 125 -255 342c0 214 105 337 255 337s255 -123 255 -337c0 -217 -105 -342 -255 -342zM300 75c91 0 152 94 152 255c0 158 -61 250 -152 250s-152 -92 -152 -250c0 -161 61 -255 152 -255zM204 711c-33 0 -57 24 -57 57s24 56 57 56
c32 0 56 -23 56 -56s-24 -57 -56 -57zM396 711c-32 0 -56 24 -56 57s24 56 56 56c33 0 57 -23 57 -56s-24 -57 -57 -57z" />
    <glyph glyph-name="Omacron" unicode="&#x14c;" 
d="M300 -12c-150 0 -255 125 -255 342c0 214 105 337 255 337s255 -123 255 -337c0 -217 -105 -342 -255 -342zM300 75c91 0 152 94 152 255c0 158 -61 250 -152 250s-152 -92 -152 -250c0 -161 61 -255 152 -255zM162 731v67h276v-67h-276z" />
    <glyph glyph-name="Ohungarumlaut" unicode="&#x150;" 
d="M300 -12c-150 0 -255 125 -255 342c0 214 105 337 255 337s255 -123 255 -337c0 -217 -105 -342 -255 -342zM300 75c91 0 152 94 152 255c0 158 -61 250 -152 250s-152 -92 -152 -250c0 -161 61 -255 152 -255zM230 700l-51 25l94 155l66 -38zM397 700l-51 25l95 155
l65 -38z" />
    <glyph glyph-name="Obreve" unicode="&#x14e;" 
d="M300 -12c-150 0 -255 125 -255 342c0 214 105 337 255 337s255 -123 255 -337c0 -217 -105 -342 -255 -342zM300 75c91 0 152 94 152 255c0 158 -61 250 -152 250s-152 -92 -152 -250c0 -161 61 -255 152 -255zM300 703c-94 0 -142 56 -150 131l58 10
c8 -46 38 -80 92 -80s84 34 92 80l58 -10c-8 -75 -56 -131 -150 -131z" />
    <glyph glyph-name="uni01D1" unicode="&#x1d1;" 
d="M300 -12c-150 0 -255 125 -255 342c0 214 105 337 255 337s255 -123 255 -337c0 -217 -105 -342 -255 -342zM300 75c91 0 152 94 152 255c0 158 -61 250 -152 250s-152 -92 -152 -250c0 -161 61 -255 152 -255zM247 705l-100 112l43 30l108 -90h4l108 90l43 -30
l-100 -112h-106z" />
    <glyph glyph-name="uni01EA" unicode="&#x1ea;" 
d="M319 -226c-60 0 -107 32 -107 93c0 53 35 93 70 122c-155 14 -237 157 -237 341c0 211 105 337 255 337s255 -127 255 -337c0 -175 -67 -282 -180 -331c-59 -25 -87 -70 -87 -109c0 -33 26 -48 52 -48c19 0 35 10 47 20l27 -51c-24 -21 -57 -37 -95 -37zM300 73
c91 0 152 91 152 257c0 158 -61 250 -152 250s-152 -92 -152 -250c0 -166 61 -257 152 -257z" />
    <glyph glyph-name="uni1ECC" unicode="&#x1ecc;" 
d="M300 -12c-150 0 -255 125 -255 342c0 214 105 337 255 337s255 -123 255 -337c0 -217 -105 -342 -255 -342zM300 75c91 0 152 94 152 255c0 158 -61 250 -152 250s-152 -92 -152 -250c0 -161 61 -255 152 -255zM300 -223c-42 0 -74 28 -74 71c0 42 32 71 74 71
s74 -29 74 -71c0 -43 -32 -71 -74 -71z" />
    <glyph glyph-name="uni1ECE" unicode="&#x1ece;" 
d="M300 -12c-150 0 -255 125 -255 342c0 214 105 337 255 337s255 -123 255 -337c0 -217 -105 -342 -255 -342zM300 75c91 0 152 94 152 255c0 158 -61 250 -152 250s-152 -92 -152 -250c0 -161 61 -255 152 -255zM265 696l-10 44c31 7 54 18 54 41c0 24 -26 37 -82 40
l10 55c97 -3 146 -32 146 -84c0 -61 -55 -87 -118 -96z" />
    <glyph glyph-name="uni1ED0" unicode="&#x1ed0;" 
d="M300 -12c-150 0 -255 125 -255 342c0 214 105 337 255 337s255 -123 255 -337c0 -217 -105 -342 -255 -342zM300 75c91 0 152 94 152 255c0 158 -61 250 -152 250s-152 -92 -152 -250c0 -161 61 -255 152 -255zM205 695l-40 30l92 93h86l92 -93l-40 -30l-93 70h-4z
M429 762l-34 37l98 91l39 -45z" />
    <glyph glyph-name="uni1ED2" unicode="&#x1ed2;" 
d="M300 -12c-150 0 -255 125 -255 342c0 214 105 337 255 337s255 -123 255 -337c0 -217 -105 -342 -255 -342zM300 75c91 0 152 94 152 255c0 158 -61 250 -152 250s-152 -92 -152 -250c0 -161 61 -255 152 -255zM205 695l-40 30l92 93h86l92 -93l-40 -30l-93 70h-4z
M171 762l-93 85l39 43l88 -93z" />
    <glyph glyph-name="uni1ED4" unicode="&#x1ed4;" 
d="M300 -12c-150 0 -255 125 -255 342c0 214 105 337 255 337s255 -123 255 -337c0 -217 -105 -342 -255 -342zM300 75c91 0 152 94 152 255c0 158 -61 250 -152 250s-152 -92 -152 -250c0 -161 61 -255 152 -255zM205 695l-40 30l92 93h86l92 -93l-40 -30l-93 70h-4z
M421 753l-11 38c23 5 41 14 41 34c0 24 -19 34 -69 37l10 47c86 -3 127 -29 127 -75c0 -53 -46 -74 -98 -81z" />
    <glyph glyph-name="uni1ED6" unicode="&#x1ed6;" 
d="M300 -12c-150 0 -255 125 -255 342c0 214 105 337 255 337s255 -123 255 -337c0 -217 -105 -342 -255 -342zM300 75c91 0 152 94 152 255c0 158 -61 250 -152 250s-152 -92 -152 -250c0 -161 61 -255 152 -255zM205 695l-40 30l92 88h86l92 -88l-40 -30l-93 66h-4z
M364 839c-61 0 -86 48 -123 48c-23 0 -33 -15 -37 -44l-51 6c3 58 28 96 83 96c61 0 86 -48 123 -48c23 0 33 16 37 44l51 -6c-3 -57 -28 -96 -83 -96z" />
    <glyph glyph-name="uni1ED8" unicode="&#x1ed8;" 
d="M300 -12c-150 0 -255 125 -255 342c0 214 105 337 255 337s255 -123 255 -337c0 -217 -105 -342 -255 -342zM300 75c91 0 152 94 152 255c0 158 -61 250 -152 250s-152 -92 -152 -250c0 -161 61 -255 152 -255zM190 695l-43 30l100 112h106l100 -112l-43 -30l-108 91h-4z
M300 -223c-42 0 -74 28 -74 71c0 42 32 71 74 71s74 -29 74 -71c0 -43 -32 -71 -74 -71z" />
    <glyph glyph-name="Ohorn" unicode="&#x1a0;" 
d="M300 -12c-150 0 -255 125 -255 342c0 214 105 337 255 337c41 0 79 -9 113 -27c48 11 72 38 72 85c0 21 -7 44 -15 60l76 32c14 -22 25 -52 25 -85c0 -70 -40 -113 -107 -131c57 -57 91 -149 91 -271c0 -217 -105 -342 -255 -342zM300 75c91 0 152 94 152 255
c0 158 -61 250 -152 250s-152 -92 -152 -250c0 -161 61 -255 152 -255z" />
    <glyph glyph-name="uni1EDA" unicode="&#x1eda;" 
d="M300 -12c-150 0 -255 125 -255 342c0 214 105 337 255 337c41 0 79 -9 113 -27c48 11 72 38 72 85c0 21 -7 44 -15 60l76 32c14 -22 25 -52 25 -85c0 -70 -40 -113 -107 -131c57 -57 91 -149 91 -271c0 -217 -105 -342 -255 -342zM300 75c91 0 152 94 152 255
c0 158 -61 250 -152 250s-152 -92 -152 -250c0 -161 61 -255 152 -255zM269 693l-44 50l149 131l55 -66z" />
    <glyph glyph-name="uni1EDC" unicode="&#x1edc;" 
d="M300 -12c-150 0 -255 125 -255 342c0 214 105 337 255 337c41 0 79 -9 113 -27c48 11 72 38 72 85c0 21 -7 44 -15 60l76 32c14 -22 25 -52 25 -85c0 -70 -40 -113 -107 -131c57 -57 91 -149 91 -271c0 -217 -105 -342 -255 -342zM300 75c91 0 152 94 152 255
c0 158 -61 250 -152 250s-152 -92 -152 -250c0 -161 61 -255 152 -255zM331 693l-160 115l55 66l149 -131z" />
    <glyph glyph-name="uni1EDE" unicode="&#x1ede;" 
d="M300 -12c-150 0 -255 125 -255 342c0 214 105 337 255 337c41 0 79 -9 113 -27c48 11 72 38 72 85c0 21 -7 44 -15 60l76 32c14 -22 25 -52 25 -85c0 -70 -40 -113 -107 -131c57 -57 91 -149 91 -271c0 -217 -105 -342 -255 -342zM300 75c91 0 152 94 152 255
c0 158 -61 250 -152 250s-152 -92 -152 -250c0 -161 61 -255 152 -255zM265 696l-10 44c31 7 54 18 54 41c0 24 -26 37 -82 40l10 55c97 -3 146 -32 146 -84c0 -61 -55 -87 -118 -96z" />
    <glyph glyph-name="uni1EE0" unicode="&#x1ee0;" 
d="M300 -12c-150 0 -255 125 -255 342c0 214 105 337 255 337c41 0 79 -9 113 -27c48 11 72 38 72 85c0 21 -7 44 -15 60l76 32c14 -22 25 -52 25 -85c0 -70 -40 -113 -107 -131c57 -57 91 -149 91 -271c0 -217 -105 -342 -255 -342zM300 75c91 0 152 94 152 255
c0 158 -61 250 -152 250s-152 -92 -152 -250c0 -161 61 -255 152 -255zM354 705c-74 0 -102 67 -145 67c-24 0 -42 -20 -46 -62l-65 5c4 83 46 129 108 129c74 0 102 -68 145 -68c24 0 41 21 46 62l65 -5c-4 -83 -46 -128 -108 -128z" />
    <glyph glyph-name="uni1EE2" unicode="&#x1ee2;" 
d="M300 -12c-150 0 -255 125 -255 342c0 214 105 337 255 337c41 0 79 -9 113 -27c48 11 72 38 72 85c0 21 -7 44 -15 60l76 32c14 -22 25 -52 25 -85c0 -70 -40 -113 -107 -131c57 -57 91 -149 91 -271c0 -217 -105 -342 -255 -342zM300 75c91 0 152 94 152 255
c0 158 -61 250 -152 250s-152 -92 -152 -250c0 -161 61 -255 152 -255zM300 -223c-42 0 -74 28 -74 71c0 42 32 71 74 71s74 -29 74 -71c0 -43 -32 -71 -74 -71z" />
    <glyph glyph-name="uni1E52" unicode="&#x1e52;" 
d="M300 -12c-150 0 -255 125 -255 342c0 214 105 337 255 337s255 -123 255 -337c0 -217 -105 -342 -255 -342zM300 75c91 0 152 94 152 255c0 158 -61 250 -152 250s-152 -92 -152 -250c0 -161 61 -255 152 -255zM162 731v67h276v-67h-276zM278 829l-35 45l130 104l44 -56z
" />
    <glyph glyph-name="Oslash" unicode="&#xd8;" 
d="M300 -12c-59 0 -111 19 -152 56l-54 -79l-62 40l67 98c-34 56 -54 133 -54 227c0 214 105 337 255 337c58 0 110 -19 151 -54l52 76l62 -40l-65 -94c35 -56 55 -132 55 -225c0 -217 -105 -342 -255 -342zM148 330c0 -51 6 -95 17 -131l231 335c-25 30 -58 46 -96 46
c-91 0 -152 -92 -152 -250zM300 75c91 0 152 94 152 255c0 50 -6 94 -17 130l-232 -337c25 -31 59 -48 97 -48z" />
    <glyph glyph-name="Oslashacute" unicode="&#x1fe;" 
d="M300 -12c-59 0 -111 19 -152 56l-54 -79l-62 40l67 98c-34 56 -54 133 -54 227c0 214 105 337 255 337c58 0 110 -19 151 -54l52 76l62 -40l-65 -94c35 -56 55 -132 55 -225c0 -217 -105 -342 -255 -342zM148 330c0 -51 6 -95 17 -131l231 335c-25 30 -58 46 -96 46
c-91 0 -152 -92 -152 -250zM300 75c91 0 152 94 152 255c0 50 -6 94 -17 130l-232 -337c25 -31 59 -48 97 -48zM269 693l-44 50l149 131l55 -66z" />
    <glyph glyph-name="OE" unicode="&#x152;" 
d="M294 0c-163 0 -265 118 -265 330c0 213 105 326 269 326h284v-84h-185v-188h141v-84h-141v-216h195v-84h-298zM286 81h21v493h-21c-102 0 -154 -80 -154 -244s52 -249 154 -249z" />
    <glyph glyph-name="Racute" unicode="&#x154;" 
d="M92 0v655h211c135 0 235 -48 235 -189c0 -101 -55 -162 -138 -187l161 -279h-113l-149 266h-107v-266h-100zM192 347h99c96 0 148 39 148 119s-52 109 -148 109h-99v-228zM272 693l-44 50l149 131l55 -66z" />
    <glyph glyph-name="Rcaron" unicode="&#x158;" 
d="M92 0v655h211c135 0 235 -48 235 -189c0 -101 -55 -162 -138 -187l161 -279h-113l-149 266h-107v-266h-100zM192 347h99c96 0 148 39 148 119s-52 109 -148 109h-99v-228zM250 705l-100 112l43 30l108 -90h4l108 90l43 -30l-100 -112h-106z" />
    <glyph glyph-name="uni1E58" unicode="&#x1e58;" 
d="M92 0v655h211c135 0 235 -48 235 -189c0 -101 -55 -162 -138 -187l161 -279h-113l-149 266h-107v-266h-100zM192 347h99c96 0 148 39 148 119s-52 109 -148 109h-99v-228zM303 710c-38 0 -67 26 -67 65c0 37 29 63 67 63s67 -26 67 -63c0 -39 -29 -65 -67 -65z" />
    <glyph glyph-name="uni0156" unicode="&#x156;" 
d="M92 0v655h211c135 0 235 -48 235 -189c0 -101 -55 -162 -138 -187l161 -279h-113l-149 266h-107v-266h-100zM192 347h99c96 0 148 39 148 119s-52 109 -148 109h-99v-228zM229 -230l-8 46c82 5 107 19 107 45c0 24 -23 36 -69 40l20 43c93 -10 123 -33 123 -79
c0 -61 -62 -90 -173 -95z" />
    <glyph glyph-name="uni1E5A" unicode="&#x1e5a;" 
d="M92 0v655h211c135 0 235 -48 235 -189c0 -101 -55 -162 -138 -187l161 -279h-113l-149 266h-107v-266h-100zM192 347h99c96 0 148 39 148 119s-52 109 -148 109h-99v-228zM320 -223c-42 0 -74 28 -74 71c0 42 32 71 74 71s74 -29 74 -71c0 -43 -32 -71 -74 -71z" />
    <glyph glyph-name="uni1E5C" unicode="&#x1e5c;" 
d="M92 0v655h211c135 0 235 -48 235 -189c0 -101 -55 -162 -138 -187l161 -279h-113l-149 266h-107v-266h-100zM192 347h99c96 0 148 39 148 119s-52 109 -148 109h-99v-228zM165 731v67h276v-67h-276zM320 -223c-42 0 -74 28 -74 71c0 42 32 71 74 71s74 -29 74 -71
c0 -43 -32 -71 -74 -71z" />
    <glyph glyph-name="uni1E5E" unicode="&#x1e5e;" 
d="M92 0v655h211c135 0 235 -48 235 -189c0 -101 -55 -162 -138 -187l161 -279h-113l-149 266h-107v-266h-100zM192 347h99c96 0 148 39 148 119s-52 109 -148 109h-99v-228zM183 -176v67h274v-67h-274z" />
    <glyph glyph-name="Sacute" unicode="&#x15a;" 
d="M303 -12c-94 0 -178 36 -240 97l58 68c50 -47 116 -78 188 -78c83 0 130 38 130 92c0 64 -48 82 -114 109l-92 41c-67 26 -140 75 -140 171c0 102 91 179 221 179c81 0 154 -32 205 -82l-52 -64c-43 37 -91 59 -158 59c-69 0 -115 -33 -115 -86c0 -57 56 -78 114 -101
l89 -39c82 -32 144 -79 144 -175c0 -105 -89 -191 -238 -191zM286 693l-44 50l149 131l55 -66z" />
    <glyph glyph-name="Scircumflex" unicode="&#x15c;" 
d="M303 -12c-94 0 -178 36 -240 97l58 68c50 -47 116 -78 188 -78c83 0 130 38 130 92c0 64 -48 82 -114 109l-92 41c-67 26 -140 75 -140 171c0 102 91 179 221 179c81 0 154 -32 205 -82l-52 -64c-43 37 -91 59 -158 59c-69 0 -115 -33 -115 -86c0 -57 56 -78 114 -101
l89 -39c82 -32 144 -79 144 -175c0 -105 -89 -191 -238 -191zM207 695l-43 30l100 112h106l100 -112l-43 -30l-108 91h-4z" />
    <glyph glyph-name="Scaron" unicode="&#x160;" 
d="M303 -12c-94 0 -178 36 -240 97l58 68c50 -47 116 -78 188 -78c83 0 130 38 130 92c0 64 -48 82 -114 109l-92 41c-67 26 -140 75 -140 171c0 102 91 179 221 179c81 0 154 -32 205 -82l-52 -64c-43 37 -91 59 -158 59c-69 0 -115 -33 -115 -86c0 -57 56 -78 114 -101
l89 -39c82 -32 144 -79 144 -175c0 -105 -89 -191 -238 -191zM264 705l-100 112l43 30l108 -90h4l108 90l43 -30l-100 -112h-106z" />
    <glyph glyph-name="Scarondot" 
d="M303 -12c-94 0 -178 36 -240 97l58 68c50 -47 116 -78 188 -78c83 0 130 38 130 92c0 64 -48 82 -114 109l-92 41c-67 26 -140 75 -140 171c0 102 91 179 221 179c81 0 154 -32 205 -82l-52 -64c-43 37 -91 59 -158 59c-69 0 -115 -33 -115 -86c0 -57 56 -78 114 -101
l89 -39c82 -32 144 -79 144 -175c0 -105 -89 -191 -238 -191zM317 820c-33 0 -58 23 -58 57s25 58 58 58s58 -24 58 -58s-25 -57 -58 -57zM264 705l-105 107l33 35l123 -90h4l123 90l33 -35l-105 -107h-106z" />
    <glyph glyph-name="uni015E" unicode="&#x15e;" 
d="M224 -230l-8 46c82 5 107 19 107 48c0 24 -19 38 -77 46l33 79c-84 5 -159 40 -216 96l58 68c50 -47 116 -78 188 -78c83 0 130 38 130 92c0 64 -48 82 -114 109l-92 41c-67 26 -140 75 -140 171c0 102 91 179 221 179c81 0 154 -32 205 -82l-52 -64
c-43 37 -91 59 -158 59c-69 0 -115 -33 -115 -86c0 -57 56 -78 114 -101l89 -39c82 -32 144 -79 144 -175c0 -95 -73 -175 -198 -189l-19 -53c46 -11 73 -31 73 -72c0 -61 -62 -90 -173 -95z" />
    <glyph glyph-name="uni0218" unicode="&#x218;" 
d="M303 -12c-94 0 -178 36 -240 97l58 68c50 -47 116 -78 188 -78c83 0 130 38 130 92c0 64 -48 82 -114 109l-92 41c-67 26 -140 75 -140 171c0 102 91 179 221 179c81 0 154 -32 205 -82l-52 -64c-43 37 -91 59 -158 59c-69 0 -115 -33 -115 -86c0 -57 56 -78 114 -101
l89 -39c82 -32 144 -79 144 -175c0 -105 -89 -191 -238 -191zM219 -230l-8 46c82 5 107 19 107 45c0 24 -23 36 -69 40l20 43c93 -10 123 -33 123 -79c0 -61 -62 -90 -173 -95z" />
    <glyph glyph-name="uni1E60" unicode="&#x1e60;" 
d="M303 -12c-94 0 -178 36 -240 97l58 68c50 -47 116 -78 188 -78c83 0 130 38 130 92c0 64 -48 82 -114 109l-92 41c-67 26 -140 75 -140 171c0 102 91 179 221 179c81 0 154 -32 205 -82l-52 -64c-43 37 -91 59 -158 59c-69 0 -115 -33 -115 -86c0 -57 56 -78 114 -101
l89 -39c82 -32 144 -79 144 -175c0 -105 -89 -191 -238 -191zM317 710c-38 0 -67 26 -67 65c0 37 29 63 67 63s67 -26 67 -63c0 -39 -29 -65 -67 -65z" />
    <glyph glyph-name="uni1E62" unicode="&#x1e62;" 
d="M303 -12c-94 0 -178 36 -240 97l58 68c50 -47 116 -78 188 -78c83 0 130 38 130 92c0 64 -48 82 -114 109l-92 41c-67 26 -140 75 -140 171c0 102 91 179 221 179c81 0 154 -32 205 -82l-52 -64c-43 37 -91 59 -158 59c-69 0 -115 -33 -115 -86c0 -57 56 -78 114 -101
l89 -39c82 -32 144 -79 144 -175c0 -105 -89 -191 -238 -191zM310 -223c-42 0 -74 28 -74 71c0 42 32 71 74 71s74 -29 74 -71c0 -43 -32 -71 -74 -71z" />
    <glyph glyph-name="uni1E9E" unicode="&#x1e9e;" 
d="M391 -12c-66 0 -124 27 -159 70l45 63c30 -34 61 -51 103 -51c54 0 88 41 88 98c0 59 -34 108 -158 133l-7 62l113 147c-20 52 -59 75 -112 75c-79 0 -129 -55 -129 -172v-413h-101v430c0 143 84 237 230 237c114 0 184 -64 215 -162l-111 -142
c122 -44 164 -106 164 -195c0 -102 -65 -180 -181 -180z" />
    <glyph glyph-name="Tcaron" unicode="&#x164;" 
d="M250 0v571h-211v84h522v-84h-211v-571h-100zM247 705l-100 112l43 30l108 -90h4l108 90l43 -30l-100 -112h-106z" />
    <glyph glyph-name="uni0162" unicode="&#x162;" 
d="M250 0v571h-211v84h522v-84h-211v-571h-18l-23 -63c46 -11 73 -31 73 -72c0 -61 -62 -90 -173 -95l-8 46c82 5 107 19 107 48c0 24 -19 38 -77 46l38 90h-19z" />
    <glyph glyph-name="uni021A" unicode="&#x21a;" 
d="M250 0v571h-211v84h522v-84h-211v-571h-100zM209 -230l-8 46c82 5 107 19 107 45c0 24 -23 36 -69 40l20 43c93 -10 123 -33 123 -79c0 -61 -62 -90 -173 -95z" />
    <glyph glyph-name="uni1E6C" unicode="&#x1e6c;" 
d="M250 0v571h-211v84h522v-84h-211v-571h-100zM300 -223c-42 0 -74 28 -74 71c0 42 32 71 74 71s74 -29 74 -71c0 -43 -32 -71 -74 -71z" />
    <glyph glyph-name="uni1E6E" unicode="&#x1e6e;" 
d="M250 0v571h-211v84h522v-84h-211v-571h-100zM163 -176v67h274v-67h-274z" />
    <glyph glyph-name="Tbar" unicode="&#x166;" 
d="M110 300v61l91 4h49v206h-211v84h522v-84h-211v-206h140v-65h-140v-300h-100v300h-140z" />
    <glyph glyph-name="Ugrave" unicode="&#xd9;" 
d="M301 -12c-136 0 -226 77 -226 261v406h101v-412c0 -120 51 -168 125 -168c75 0 127 48 127 168v412h97v-406c0 -184 -88 -261 -224 -261zM331 693l-160 115l55 66l149 -131z" />
    <glyph glyph-name="Uacute" unicode="&#xda;" 
d="M301 -12c-136 0 -226 77 -226 261v406h101v-412c0 -120 51 -168 125 -168c75 0 127 48 127 168v412h97v-406c0 -184 -88 -261 -224 -261zM269 693l-44 50l149 131l55 -66z" />
    <glyph glyph-name="Ucircumflex" unicode="&#xdb;" 
d="M301 -12c-136 0 -226 77 -226 261v406h101v-412c0 -120 51 -168 125 -168c75 0 127 48 127 168v412h97v-406c0 -184 -88 -261 -224 -261zM190 695l-43 30l100 112h106l100 -112l-43 -30l-108 91h-4z" />
    <glyph glyph-name="Utilde" unicode="&#x168;" 
d="M301 -12c-136 0 -226 77 -226 261v406h101v-412c0 -120 51 -168 125 -168c75 0 127 48 127 168v412h97v-406c0 -184 -88 -261 -224 -261zM374 705c-74 0 -102 67 -145 67c-24 0 -42 -20 -46 -62l-65 5c4 83 46 129 108 129c74 0 102 -68 145 -68c24 0 41 21 46 62l65 -5
c-4 -83 -46 -128 -108 -128z" />
    <glyph glyph-name="Udieresis" unicode="&#xdc;" 
d="M301 -12c-136 0 -226 77 -226 261v406h101v-412c0 -120 51 -168 125 -168c75 0 127 48 127 168v412h97v-406c0 -184 -88 -261 -224 -261zM204 711c-33 0 -57 24 -57 57s24 56 57 56c32 0 56 -23 56 -56s-24 -57 -56 -57zM396 711c-32 0 -56 24 -56 57s24 56 56 56
c33 0 57 -23 57 -56s-24 -57 -57 -57z" />
    <glyph glyph-name="Umacron" unicode="&#x16a;" 
d="M301 -12c-136 0 -226 77 -226 261v406h101v-412c0 -120 51 -168 125 -168c75 0 127 48 127 168v412h97v-406c0 -184 -88 -261 -224 -261zM162 731v67h276v-67h-276z" />
    <glyph glyph-name="Ubreve" unicode="&#x16c;" 
d="M301 -12c-136 0 -226 77 -226 261v406h101v-412c0 -120 51 -168 125 -168c75 0 127 48 127 168v412h97v-406c0 -184 -88 -261 -224 -261zM300 703c-94 0 -142 56 -150 131l58 10c8 -46 38 -80 92 -80s84 34 92 80l58 -10c-8 -75 -56 -131 -150 -131z" />
    <glyph glyph-name="Uring" unicode="&#x16e;" 
d="M301 -12c-136 0 -226 77 -226 261v406h101v-412c0 -120 51 -168 125 -168c75 0 127 48 127 168v412h97v-406c0 -184 -88 -261 -224 -261zM300 698c-59 0 -101 37 -101 93s42 93 101 93c58 0 101 -37 101 -93s-43 -93 -101 -93zM300 739c26 0 48 19 48 52
c0 32 -22 51 -48 51c-27 0 -49 -19 -49 -51c0 -33 22 -52 49 -52z" />
    <glyph glyph-name="Uhungarumlaut" unicode="&#x170;" 
d="M301 -12c-136 0 -226 77 -226 261v406h101v-412c0 -120 51 -168 125 -168c75 0 127 48 127 168v412h97v-406c0 -184 -88 -261 -224 -261zM230 700l-51 25l94 155l66 -38zM397 700l-51 25l95 155l65 -38z" />
    <glyph glyph-name="uni01D3" unicode="&#x1d3;" 
d="M301 -12c-136 0 -226 77 -226 261v406h101v-412c0 -120 51 -168 125 -168c75 0 127 48 127 168v412h97v-406c0 -184 -88 -261 -224 -261zM247 705l-100 112l43 30l108 -90h4l108 90l43 -30l-100 -112h-106z" />
    <glyph glyph-name="Uogonek" unicode="&#x172;" 
d="M319 -226c-60 0 -107 32 -107 93c0 58 42 100 67 122c-127 8 -204 92 -204 260v406h101v-412c0 -120 50 -168 124 -168c75 0 128 48 128 168v412h97v-406c0 -137 -46 -210 -136 -247c-79 -34 -101 -74 -101 -112c0 -33 26 -48 52 -48c19 0 35 10 47 20l27 -51
c-24 -21 -57 -37 -95 -37z" />
    <glyph glyph-name="uni01D5" unicode="&#x1d5;" 
d="M301 -12c-136 0 -226 77 -226 261v406h101v-412c0 -120 51 -168 125 -168c75 0 127 48 127 168v412h97v-406c0 -184 -88 -261 -224 -261zM195 711c-28 0 -49 21 -49 50s21 49 49 49c29 0 50 -20 50 -49s-21 -50 -50 -50zM405 711c-29 0 -50 21 -50 50s21 49 50 49
c28 0 49 -20 49 -49s-21 -50 -49 -50zM162 864v52h276v-52h-276z" />
    <glyph glyph-name="uni01D7" unicode="&#x1d7;" 
d="M301 -12c-136 0 -226 77 -226 261v406h101v-412c0 -120 51 -168 125 -168c75 0 127 48 127 168v412h97v-406c0 -184 -88 -261 -224 -261zM195 711c-28 0 -49 21 -49 50s21 49 49 49c29 0 50 -20 50 -49s-21 -50 -50 -50zM405 711c-29 0 -50 21 -50 50s21 49 50 49
c28 0 49 -20 49 -49s-21 -50 -49 -50zM302 824l-44 29l95 126l62 -42z" />
    <glyph glyph-name="uni01D9" unicode="&#x1d9;" 
d="M301 -12c-136 0 -226 77 -226 261v406h101v-412c0 -120 51 -168 125 -168c75 0 127 48 127 168v412h97v-406c0 -184 -88 -261 -224 -261zM195 711c-28 0 -49 21 -49 50s21 49 49 49c29 0 50 -20 50 -49s-21 -50 -50 -50zM405 711c-29 0 -50 21 -50 50s21 49 50 49
c28 0 49 -20 49 -49s-21 -50 -49 -50zM257 843l-97 97l40 31l98 -75h4l98 75l40 -31l-97 -97h-86z" />
    <glyph glyph-name="uni01DB" unicode="&#x1db;" 
d="M301 -12c-136 0 -226 77 -226 261v406h101v-412c0 -120 51 -168 125 -168c75 0 127 48 127 168v412h97v-406c0 -184 -88 -261 -224 -261zM195 711c-28 0 -49 21 -49 50s21 49 49 49c29 0 50 -20 50 -49s-21 -50 -50 -50zM405 711c-29 0 -50 21 -50 50s21 49 50 49
c28 0 49 -20 49 -49s-21 -50 -49 -50zM298 824l-113 113l62 42l95 -126z" />
    <glyph glyph-name="uni1EE4" unicode="&#x1ee4;" 
d="M301 -12c-136 0 -226 77 -226 261v406h101v-412c0 -120 51 -168 125 -168c75 0 127 48 127 168v412h97v-406c0 -184 -88 -261 -224 -261zM300 -223c-42 0 -74 28 -74 71c0 42 32 71 74 71s74 -29 74 -71c0 -43 -32 -71 -74 -71z" />
    <glyph glyph-name="uni1EE6" unicode="&#x1ee6;" 
d="M301 -12c-136 0 -226 77 -226 261v406h101v-412c0 -120 51 -168 125 -168c75 0 127 48 127 168v412h97v-406c0 -184 -88 -261 -224 -261zM265 696l-10 44c31 7 54 18 54 41c0 24 -26 37 -82 40l10 55c97 -3 146 -32 146 -84c0 -61 -55 -87 -118 -96z" />
    <glyph glyph-name="Uhorn" unicode="&#x1af;" 
d="M301 -12c-136 0 -226 77 -226 261v406h101v-412c0 -120 51 -168 125 -168c75 0 127 48 127 168v412h42c51 5 82 23 82 80c0 22 -7 44 -15 60l76 33c14 -22 25 -53 25 -86c0 -78 -48 -113 -113 -128v-365c0 -184 -88 -261 -224 -261z" />
    <glyph glyph-name="uni1EE8" unicode="&#x1ee8;" 
d="M301 -12c-136 0 -226 77 -226 261v406h101v-412c0 -120 51 -168 125 -168c75 0 127 48 127 168v412h42c51 5 82 23 82 80c0 22 -7 44 -15 60l76 33c14 -22 25 -53 25 -86c0 -78 -48 -113 -113 -128v-365c0 -184 -88 -261 -224 -261zM269 693l-44 50l149 131l55 -66z" />
    <glyph glyph-name="uni1EEA" unicode="&#x1eea;" 
d="M301 -12c-136 0 -226 77 -226 261v406h101v-412c0 -120 51 -168 125 -168c75 0 127 48 127 168v412h42c51 5 82 23 82 80c0 22 -7 44 -15 60l76 33c14 -22 25 -53 25 -86c0 -78 -48 -113 -113 -128v-365c0 -184 -88 -261 -224 -261zM331 693l-160 115l55 66l149 -131z
" />
    <glyph glyph-name="uni1EEC" unicode="&#x1eec;" 
d="M301 -12c-136 0 -226 77 -226 261v406h101v-412c0 -120 51 -168 125 -168c75 0 127 48 127 168v412h42c51 5 82 23 82 80c0 22 -7 44 -15 60l76 33c14 -22 25 -53 25 -86c0 -78 -48 -113 -113 -128v-365c0 -184 -88 -261 -224 -261zM265 696l-10 44c31 7 54 18 54 41
c0 24 -26 37 -82 40l10 55c97 -3 146 -32 146 -84c0 -61 -55 -87 -118 -96z" />
    <glyph glyph-name="uni1EEE" unicode="&#x1eee;" 
d="M301 -12c-136 0 -226 77 -226 261v406h101v-412c0 -120 51 -168 125 -168c75 0 127 48 127 168v412h42c51 5 82 23 82 80c0 22 -7 44 -15 60l76 33c14 -22 25 -53 25 -86c0 -78 -48 -113 -113 -128v-365c0 -184 -88 -261 -224 -261zM374 705c-74 0 -102 67 -145 67
c-24 0 -42 -20 -46 -62l-65 5c4 83 46 129 108 129c74 0 102 -68 145 -68c24 0 41 21 46 62l65 -5c-4 -83 -46 -128 -108 -128z" />
    <glyph glyph-name="uni1EF0" unicode="&#x1ef0;" 
d="M301 -12c-136 0 -226 77 -226 261v406h101v-412c0 -120 51 -168 125 -168c75 0 127 48 127 168v412h42c51 5 82 23 82 80c0 22 -7 44 -15 60l76 33c14 -22 25 -53 25 -86c0 -78 -48 -113 -113 -128v-365c0 -184 -88 -261 -224 -261zM300 -223c-42 0 -74 28 -74 71
c0 42 32 71 74 71s74 -29 74 -71c0 -43 -32 -71 -74 -71z" />
    <glyph glyph-name="uni1E7E" unicode="&#x1e7e;" 
d="M242 0l-207 655h106l99 -341c22 -76 37 -140 60 -215h4c24 75 39 139 61 215l98 341h102l-206 -655h-117zM302 -223c-42 0 -74 28 -74 71c0 42 32 71 74 71s74 -29 74 -71c0 -43 -32 -71 -74 -71z" />
    <glyph glyph-name="Wgrave" unicode="&#x1e80;" 
d="M105 0l-96 656h109l40 -396c5 -55 8 -91 11 -154h3c11 63 20 99 32 154l59 228h84l56 -228c13 -54 21 -91 32 -154h4c3 63 5 100 10 154l39 396h104l-92 -656h-118l-58 248c-9 40 -17 80 -22 120h-3c-6 -40 -12 -80 -22 -120l-57 -248h-115zM331 693l-160 115l55 66
l149 -131z" />
    <glyph glyph-name="Wacute" unicode="&#x1e82;" 
d="M105 0l-96 656h109l40 -396c5 -55 8 -91 11 -154h3c11 63 20 99 32 154l59 228h84l56 -228c13 -54 21 -91 32 -154h4c3 63 5 100 10 154l39 396h104l-92 -656h-118l-58 248c-9 40 -17 80 -22 120h-3c-6 -40 -12 -80 -22 -120l-57 -248h-115zM269 693l-44 50l149 131
l55 -66z" />
    <glyph glyph-name="Wcircumflex" unicode="&#x174;" 
d="M105 0l-96 656h109l40 -396c5 -55 8 -91 11 -154h3c11 63 20 99 32 154l59 228h84l56 -228c13 -54 21 -91 32 -154h4c3 63 5 100 10 154l39 396h104l-92 -656h-118l-58 248c-9 40 -17 80 -22 120h-3c-6 -40 -12 -80 -22 -120l-57 -248h-115zM190 695l-43 30l100 112h106
l100 -112l-43 -30l-108 91h-4z" />
    <glyph glyph-name="Wdieresis" unicode="&#x1e84;" 
d="M105 0l-96 656h109l40 -396c5 -55 8 -91 11 -154h3c11 63 20 99 32 154l59 228h84l56 -228c13 -54 21 -91 32 -154h4c3 63 5 100 10 154l39 396h104l-92 -656h-118l-58 248c-9 40 -17 80 -22 120h-3c-6 -40 -12 -80 -22 -120l-57 -248h-115zM204 711c-33 0 -57 24 -57 57
s24 56 57 56c32 0 56 -23 56 -56s-24 -57 -56 -57zM396 711c-32 0 -56 24 -56 57s24 56 56 56c33 0 57 -23 57 -56s-24 -57 -57 -57z" />
    <glyph glyph-name="Ygrave" unicode="&#x1ef2;" 
d="M250 0v230l-217 425h106l90 -185c24 -51 46 -100 71 -152h4c25 52 49 101 73 152l87 185h103l-217 -425v-230h-100zM331 693l-160 115l55 66l149 -131z" />
    <glyph glyph-name="Yacute" unicode="&#xdd;" 
d="M250 0v230l-217 425h106l90 -185c24 -51 46 -100 71 -152h4c25 52 49 101 73 152l87 185h103l-217 -425v-230h-100zM269 693l-44 50l149 131l55 -66z" />
    <glyph glyph-name="Ycircumflex" unicode="&#x176;" 
d="M250 0v230l-217 425h106l90 -185c24 -51 46 -100 71 -152h4c25 52 49 101 73 152l87 185h103l-217 -425v-230h-100zM190 695l-43 30l100 112h106l100 -112l-43 -30l-108 91h-4z" />
    <glyph glyph-name="Ydieresis" unicode="&#x178;" 
d="M250 0v230l-217 425h106l90 -185c24 -51 46 -100 71 -152h4c25 52 49 101 73 152l87 185h103l-217 -425v-230h-100zM204 711c-33 0 -57 24 -57 57s24 56 57 56c32 0 56 -23 56 -56s-24 -57 -56 -57zM396 711c-32 0 -56 24 -56 57s24 56 56 56c33 0 57 -23 57 -56
s-24 -57 -57 -57z" />
    <glyph glyph-name="uni1E8E" unicode="&#x1e8e;" 
d="M250 0v230l-217 425h106l90 -185c24 -51 46 -100 71 -152h4c25 52 49 101 73 152l87 185h103l-217 -425v-230h-100zM300 710c-38 0 -67 26 -67 65c0 37 29 63 67 63s67 -26 67 -63c0 -39 -29 -65 -67 -65z" />
    <glyph glyph-name="uni1EF4" unicode="&#x1ef4;" 
d="M250 0v230l-217 425h106l90 -185c24 -51 46 -100 71 -152h4c25 52 49 101 73 152l87 185h103l-217 -425v-230h-100zM300 -223c-42 0 -74 28 -74 71c0 42 32 71 74 71s74 -29 74 -71c0 -43 -32 -71 -74 -71z" />
    <glyph glyph-name="uni1EF6" unicode="&#x1ef6;" 
d="M250 0v230l-217 425h106l90 -185c24 -51 46 -100 71 -152h4c25 52 49 101 73 152l87 185h103l-217 -425v-230h-100zM265 696l-10 44c31 7 54 18 54 41c0 24 -26 37 -82 40l10 55c97 -3 146 -32 146 -84c0 -61 -55 -87 -118 -96z" />
    <glyph glyph-name="uni1EF8" unicode="&#x1ef8;" 
d="M250 0v230l-217 425h106l90 -185c24 -51 46 -100 71 -152h4c25 52 49 101 73 152l87 185h103l-217 -425v-230h-100zM374 705c-74 0 -102 67 -145 67c-24 0 -42 -20 -46 -62l-65 5c4 83 46 129 108 129c74 0 102 -68 145 -68c24 0 41 21 46 62l65 -5
c-4 -83 -46 -128 -108 -128z" />
    <glyph glyph-name="Zacute" unicode="&#x179;" 
d="M63 0v60l350 512h-319v84h442v-61l-351 -511h356v-84h-478zM287 693l-44 50l149 131l55 -66z" />
    <glyph glyph-name="Zcaron" unicode="&#x17d;" 
d="M63 0v60l350 512h-319v84h442v-61l-351 -511h356v-84h-478zM265 705l-100 112l43 30l108 -90h4l108 90l43 -30l-100 -112h-106z" />
    <glyph glyph-name="Zdotaccent" unicode="&#x17b;" 
d="M63 0v60l350 512h-319v84h442v-61l-351 -511h356v-84h-478zM318 710c-38 0 -67 26 -67 65c0 37 29 63 67 63s67 -26 67 -63c0 -39 -29 -65 -67 -65z" />
    <glyph glyph-name="uni1E90" unicode="&#x1e90;" 
d="M63 0v60l350 512h-319v84h442v-61l-351 -511h356v-84h-478zM208 695l-43 30l100 112h106l100 -112l-43 -30l-108 91h-4z" />
    <glyph glyph-name="uni1E92" unicode="&#x1e92;" 
d="M63 0v60l350 512h-319v84h442v-61l-351 -511h356v-84h-478zM310 -223c-42 0 -74 28 -74 71c0 42 32 71 74 71s74 -29 74 -71c0 -43 -32 -71 -74 -71z" />
    <glyph glyph-name="uni1E94" unicode="&#x1e94;" 
d="M63 0v60l350 512h-319v84h442v-61l-351 -511h356v-84h-478zM173 -176v67h274v-67h-274z" />
    <glyph glyph-name="Eth" unicode="&#xd0;" 
d="M83 0v310h-74v59l74 6v280h167c194 0 306 -112 306 -325c0 -212 -112 -330 -301 -330h-172zM182 81h61c136 0 209 86 209 249s-73 244 -209 244h-61v-199h135v-65h-135v-229z" />
    <glyph glyph-name="Thorn" unicode="&#xde;" 
d="M94 0v655h100v-107h111c144 0 245 -50 245 -198c0 -142 -103 -207 -245 -207h-111v-143h-100zM194 223h101c106 0 156 40 156 127c0 88 -52 117 -156 117h-101v-244z" />
    <glyph glyph-name="uni018F" unicode="&#x18f;" 
d="M301 -12c-147 0 -245 132 -245 338c0 10 1 20 2 29h396c-6 147 -62 226 -160 226c-51 0 -94 -23 -125 -56l-48 69c42 42 101 73 180 73c155 0 252 -127 252 -338s-103 -341 -252 -341zM301 74c82 0 141 67 151 207h-297c9 -142 64 -207 146 -207z" />
    <glyph glyph-name="Eng" unicode="&#x14a;" 
d="M374 -12c-26 0 -59 5 -77 15l23 88c12 -5 25 -9 43 -9c50 0 85 54 85 252c0 185 -53 246 -133 246c-45 0 -101 -37 -135 -89v-491h-100v655h97v-73c42 49 98 85 161 85c122 0 213 -89 213 -333c0 -247 -61 -346 -177 -346z" />
    <glyph glyph-name="IJ" unicode="&#x132;" 
d="M102 0v655h100v-655h-100zM349 -169c-34 0 -60 6 -79 13l19 77c14 -4 31 -9 48 -9c48 0 61 33 61 92v651h100v-653c0 -101 -39 -171 -149 -171z" />
    <glyph glyph-name="uni004C00B7004C" 
d="M60 0v655h90v-570h125v-85h-215zM248 278c-43 0 -76 32 -76 82c0 49 33 79 76 79c44 0 78 -30 78 -79c0 -50 -34 -82 -78 -82zM346 0v655h90v-570h124v-85h-214z" />
    <glyph glyph-name="uni01320301" 
d="M102 0v655h100v-655h-100zM349 -169c-34 0 -60 6 -79 13l19 77c14 -4 31 -9 48 -9c48 0 61 33 61 92v651h100v-653c0 -101 -39 -171 -149 -171zM121 693l-44 50l149 131l55 -66zM417 693l-44 50l149 131l55 -66z" />
    <glyph glyph-name="agrave" unicode="&#xe0;" 
d="M241 -12c-94 0 -165 55 -165 141c0 110 99 163 345 182c-3 60 -35 109 -122 109c-60 0 -118 -27 -166 -55l-37 67c54 33 135 69 220 69c135 0 204 -78 204 -207v-294h-81l-8 63h-3c-52 -40 -120 -75 -187 -75zM269 67c52 0 102 24 152 65v116
c-192 -15 -249 -53 -249 -112c0 -49 44 -69 97 -69zM337 566l-163 154l69 67l145 -172z" />
    <glyph glyph-name="aacute" unicode="&#xe1;" 
d="M241 -12c-94 0 -165 55 -165 141c0 110 99 163 345 182c-3 60 -35 109 -122 109c-60 0 -118 -27 -166 -55l-37 67c54 33 135 69 220 69c135 0 204 -78 204 -207v-294h-81l-8 63h-3c-52 -40 -120 -75 -187 -75zM269 67c52 0 102 24 152 65v116
c-192 -15 -249 -53 -249 -112c0 -49 44 -69 97 -69zM303 566l-51 49l145 172l69 -67z" />
    <glyph glyph-name="acircumflex" unicode="&#xe2;" 
d="M241 -12c-94 0 -165 55 -165 141c0 110 99 163 345 182c-3 60 -35 109 -122 109c-60 0 -118 -27 -166 -55l-37 67c54 33 135 69 220 69c135 0 204 -78 204 -207v-294h-81l-8 63h-3c-52 -40 -120 -75 -187 -75zM269 67c52 0 102 24 152 65v116
c-192 -15 -249 -53 -249 -112c0 -49 44 -69 97 -69zM198 566l-40 38l112 137h100l112 -137l-40 -38l-120 108h-4z" />
    <glyph glyph-name="atilde" unicode="&#xe3;" 
d="M241 -12c-94 0 -165 55 -165 141c0 110 99 163 345 182c-3 60 -35 109 -122 109c-60 0 -118 -27 -166 -55l-37 67c54 33 135 69 220 69c135 0 204 -78 204 -207v-294h-81l-8 63h-3c-52 -40 -120 -75 -187 -75zM269 67c52 0 102 24 152 65v116
c-192 -15 -249 -53 -249 -112c0 -49 44 -69 97 -69zM391 576c-69 0 -98 79 -140 79c-28 0 -41 -28 -44 -73l-64 4c3 84 35 139 107 139c68 0 97 -78 140 -78c27 0 40 28 43 73l64 -4c-3 -84 -35 -140 -106 -140z" />
    <glyph glyph-name="adieresis" unicode="&#xe4;" 
d="M241 -12c-94 0 -165 55 -165 141c0 110 99 163 345 182c-3 60 -35 109 -122 109c-60 0 -118 -27 -166 -55l-37 67c54 33 135 69 220 69c135 0 204 -78 204 -207v-294h-81l-8 63h-3c-52 -40 -120 -75 -187 -75zM269 67c52 0 102 24 152 65v116
c-192 -15 -249 -53 -249 -112c0 -49 44 -69 97 -69zM219 584c-36 0 -61 27 -61 62s25 62 61 62s62 -27 62 -62s-26 -62 -62 -62zM421 584c-36 0 -62 27 -62 62s26 62 62 62s61 -27 61 -62s-25 -62 -61 -62z" />
    <glyph glyph-name="amacron" unicode="&#x101;" 
d="M241 -12c-94 0 -165 55 -165 141c0 110 99 163 345 182c-3 60 -35 109 -122 109c-60 0 -118 -27 -166 -55l-37 67c54 33 135 69 220 69c135 0 204 -78 204 -207v-294h-81l-8 63h-3c-52 -40 -120 -75 -187 -75zM269 67c52 0 102 24 152 65v116
c-192 -15 -249 -53 -249 -112c0 -49 44 -69 97 -69zM183 598v67h274v-67h-274z" />
    <glyph glyph-name="abreve" unicode="&#x103;" 
d="M241 -12c-94 0 -165 55 -165 141c0 110 99 163 345 182c-3 60 -35 109 -122 109c-60 0 -118 -27 -166 -55l-37 67c54 33 135 69 220 69c135 0 204 -78 204 -207v-294h-81l-8 63h-3c-52 -40 -120 -75 -187 -75zM269 67c52 0 102 24 152 65v116
c-192 -15 -249 -53 -249 -112c0 -49 44 -69 97 -69zM320 571c-109 0 -155 75 -160 153l60 10c7 -50 38 -98 100 -98s93 48 100 98l60 -10c-5 -78 -51 -153 -160 -153z" />
    <glyph glyph-name="aring" unicode="&#xe5;" 
d="M241 -12c-94 0 -165 55 -165 141c0 110 99 163 345 182c-3 60 -35 109 -122 109c-60 0 -118 -27 -166 -55l-37 67c54 33 135 69 220 69c135 0 204 -78 204 -207v-294h-81l-8 63h-3c-52 -40 -120 -75 -187 -75zM269 67c52 0 102 24 152 65v116
c-192 -15 -249 -53 -249 -112c0 -49 44 -69 97 -69zM320 569c-73 0 -115 43 -115 98s42 98 115 98s115 -43 115 -98s-42 -98 -115 -98zM320 610c30 0 53 25 53 57s-23 56 -53 56s-53 -24 -53 -56s23 -57 53 -57z" />
    <glyph glyph-name="aringacute" unicode="&#x1fb;" 
d="M241 -12c-94 0 -165 55 -165 141c0 110 99 163 345 182c-3 60 -35 109 -122 109c-60 0 -118 -27 -166 -55l-37 67c54 33 135 69 220 69c135 0 204 -78 204 -207v-294h-81l-8 63h-3c-52 -40 -120 -75 -187 -75zM269 67c52 0 102 24 152 65v116
c-192 -15 -249 -53 -249 -112c0 -49 44 -69 97 -69zM320 569c-73 0 -115 43 -115 98c0 33 15 62 44 80l140 105l41 -56l-74 -35c51 -12 79 -49 79 -94c0 -55 -42 -98 -115 -98zM320 610c30 0 53 25 53 57s-23 56 -53 56s-53 -24 -53 -56s23 -57 53 -57z" />
    <glyph glyph-name="uni01CE" unicode="&#x1ce;" 
d="M241 -12c-94 0 -165 55 -165 141c0 110 99 163 345 182c-3 60 -35 109 -122 109c-60 0 -118 -27 -166 -55l-37 67c54 33 135 69 220 69c135 0 204 -78 204 -207v-294h-81l-8 63h-3c-52 -40 -120 -75 -187 -75zM269 67c52 0 102 24 152 65v116
c-192 -15 -249 -53 -249 -112c0 -49 44 -69 97 -69zM270 575l-112 137l40 38l120 -108h4l120 108l40 -38l-112 -137h-100z" />
    <glyph glyph-name="aogonek" unicode="&#x105;" 
d="M453 -226c-59 0 -106 31 -106 95c0 61 44 105 93 134l-9 60h-3c-52 -40 -120 -75 -187 -75c-94 0 -165 55 -165 141c0 110 99 163 345 182c-3 60 -35 109 -122 109c-60 0 -118 -27 -166 -55l-37 67c54 33 135 69 220 69c135 0 204 -78 204 -207v-294
c-73 -29 -102 -71 -102 -111c0 -36 28 -52 57 -52c21 0 39 9 51 19l26 -46c-25 -21 -61 -36 -99 -36zM269 67c52 0 102 24 152 65v116c-192 -15 -249 -53 -249 -112c0 -49 44 -69 97 -69z" />
    <glyph glyph-name="uni1EA1" unicode="&#x1ea1;" 
d="M241 -12c-94 0 -165 55 -165 141c0 110 99 163 345 182c-3 60 -35 109 -122 109c-60 0 -118 -27 -166 -55l-37 67c54 33 135 69 220 69c135 0 204 -78 204 -207v-294h-81l-8 63h-3c-52 -40 -120 -75 -187 -75zM269 67c52 0 102 24 152 65v116
c-192 -15 -249 -53 -249 -112c0 -49 44 -69 97 -69zM300 -223c-42 0 -74 28 -74 71c0 42 32 71 74 71s74 -29 74 -71c0 -43 -32 -71 -74 -71z" />
    <glyph glyph-name="uni1EA3" unicode="&#x1ea3;" 
d="M241 -12c-94 0 -165 55 -165 141c0 110 99 163 345 182c-3 60 -35 109 -122 109c-60 0 -118 -27 -166 -55l-37 67c54 33 135 69 220 69c135 0 204 -78 204 -207v-294h-81l-8 63h-3c-52 -40 -120 -75 -187 -75zM269 67c52 0 102 24 152 65v116
c-192 -15 -249 -53 -249 -112c0 -49 44 -69 97 -69zM285 571l-10 45c31 7 54 19 54 44c0 27 -26 42 -82 45l6 64c100 -3 151 -40 151 -101s-56 -88 -119 -97z" />
    <glyph glyph-name="uni1EA5" unicode="&#x1ea5;" 
d="M241 -12c-94 0 -165 55 -165 141c0 110 99 163 345 182c-3 60 -35 109 -122 109c-60 0 -118 -27 -166 -55l-37 67c54 33 135 69 220 69c135 0 204 -78 204 -207v-294h-81l-8 63h-3c-52 -40 -120 -75 -187 -75zM269 67c52 0 102 24 152 65v116
c-192 -15 -249 -53 -249 -112c0 -49 44 -69 97 -69zM215 569l-33 39l98 92h80l98 -92l-33 -39l-103 70h-4zM465 637l-41 32l86 122l56 -38z" />
    <glyph glyph-name="uni1EA7" unicode="&#x1ea7;" 
d="M241 -12c-94 0 -165 55 -165 141c0 110 99 163 345 182c-3 60 -35 109 -122 109c-60 0 -118 -27 -166 -55l-37 67c54 33 135 69 220 69c135 0 204 -78 204 -207v-294h-81l-8 63h-3c-52 -40 -120 -75 -187 -75zM269 67c52 0 102 24 152 65v116
c-192 -15 -249 -53 -249 -112c0 -49 44 -69 97 -69zM215 569l-33 39l98 92h80l98 -92l-33 -39l-103 70h-4zM175 637l-111 114l56 40l96 -119z" />
    <glyph glyph-name="uni1EA9" unicode="&#x1ea9;" 
d="M241 -12c-94 0 -165 55 -165 141c0 110 99 163 345 182c-3 60 -35 109 -122 109c-60 0 -118 -27 -166 -55l-37 67c54 33 135 69 220 69c135 0 204 -78 204 -207v-294h-81l-8 63h-3c-52 -40 -120 -75 -187 -75zM269 67c52 0 102 24 152 65v116
c-192 -15 -249 -53 -249 -112c0 -49 44 -69 97 -69zM215 569l-33 39l98 92h80l98 -92l-33 -39l-103 70h-4zM441 638l-9 38c24 7 40 16 40 37c0 24 -19 36 -68 39l8 46c86 -3 129 -28 129 -75c0 -56 -48 -75 -100 -85z" />
    <glyph glyph-name="uni1EAB" unicode="&#x1eab;" 
d="M241 -12c-94 0 -165 55 -165 141c0 110 99 163 345 182c-3 60 -35 109 -122 109c-60 0 -118 -27 -166 -55l-37 67c54 33 135 69 220 69c135 0 204 -78 204 -207v-294h-81l-8 63h-3c-52 -40 -120 -75 -187 -75zM269 67c52 0 102 24 152 65v116
c-192 -15 -249 -53 -249 -112c0 -49 44 -69 97 -69zM215 569l-33 39l98 87h80l98 -87l-33 -39l-103 66h-4zM383 712c-57 0 -86 42 -121 42c-19 0 -27 -13 -32 -41l-50 5c6 57 29 94 77 94c57 0 85 -42 121 -42c19 0 27 13 32 41l50 -5c-6 -58 -29 -94 -77 -94z" />
    <glyph glyph-name="uni1EAD" unicode="&#x1ead;" 
d="M241 -12c-94 0 -165 55 -165 141c0 110 99 163 345 182c-3 60 -35 109 -122 109c-60 0 -118 -27 -166 -55l-37 67c54 33 135 69 220 69c135 0 204 -78 204 -207v-294h-81l-8 63h-3c-52 -40 -120 -75 -187 -75zM269 67c52 0 102 24 152 65v116
c-192 -15 -249 -53 -249 -112c0 -49 44 -69 97 -69zM198 566l-40 38l112 137h100l112 -137l-40 -38l-120 108h-4zM300 -223c-42 0 -74 28 -74 71c0 42 32 71 74 71s74 -29 74 -71c0 -43 -32 -71 -74 -71z" />
    <glyph glyph-name="uni1EAF" unicode="&#x1eaf;" 
d="M241 -12c-94 0 -165 55 -165 141c0 110 99 163 345 182c-3 60 -35 109 -122 109c-60 0 -118 -27 -166 -55l-37 67c54 33 135 69 220 69c135 0 204 -78 204 -207v-294h-81l-8 63h-3c-52 -40 -120 -75 -187 -75zM269 67c52 0 102 24 152 65v116
c-192 -15 -249 -53 -249 -112c0 -49 44 -69 97 -69zM320 571c-109 0 -155 75 -160 153l56 10c7 -53 39 -103 104 -103s97 50 104 103l56 -10c-5 -78 -51 -153 -160 -153zM319 684l-46 33l89 128l61 -46z" />
    <glyph glyph-name="uni1EB1" unicode="&#x1eb1;" 
d="M241 -12c-94 0 -165 55 -165 141c0 110 99 163 345 182c-3 60 -35 109 -122 109c-60 0 -118 -27 -166 -55l-37 67c54 33 135 69 220 69c135 0 204 -78 204 -207v-294h-81l-8 63h-3c-52 -40 -120 -75 -187 -75zM269 67c52 0 102 24 152 65v116
c-192 -15 -249 -53 -249 -112c0 -49 44 -69 97 -69zM320 571c-109 0 -155 75 -160 153l56 10c7 -53 39 -103 104 -103s97 50 104 103l56 -10c-5 -78 -51 -153 -160 -153zM321 684l-104 115l61 46l89 -128z" />
    <glyph glyph-name="uni1EB3" unicode="&#x1eb3;" 
d="M241 -12c-94 0 -165 55 -165 141c0 110 99 163 345 182c-3 60 -35 109 -122 109c-60 0 -118 -27 -166 -55l-37 67c54 33 135 69 220 69c135 0 204 -78 204 -207v-294h-81l-8 63h-3c-52 -40 -120 -75 -187 -75zM269 67c52 0 102 24 152 65v116
c-192 -15 -249 -53 -249 -112c0 -49 44 -69 97 -69zM320 571c-109 0 -155 75 -160 153l56 10c7 -53 39 -103 104 -103s97 50 104 103l56 -10c-5 -78 -51 -153 -160 -153zM291 686l-9 40c26 5 45 16 45 36c0 24 -21 36 -74 39l8 58c89 -3 135 -33 135 -86
c0 -57 -51 -79 -105 -87z" />
    <glyph glyph-name="uni1EB5" unicode="&#x1eb5;" 
d="M241 -12c-94 0 -165 55 -165 141c0 110 99 163 345 182c-3 60 -35 109 -122 109c-60 0 -118 -27 -166 -55l-37 67c54 33 135 69 220 69c135 0 204 -78 204 -207v-294h-81l-8 63h-3c-52 -40 -120 -75 -187 -75zM269 67c52 0 102 24 152 65v116
c-192 -15 -249 -53 -249 -112c0 -49 44 -69 97 -69zM320 571c-100 0 -141 55 -147 109l54 9c5 -32 33 -64 93 -64s88 32 93 64l54 -9c-6 -54 -47 -109 -147 -109zM383 711c-57 0 -86 42 -121 42c-19 0 -27 -13 -32 -41l-55 5c6 57 31 94 82 94c57 0 85 -42 121 -42
c19 0 27 13 32 41l55 -5c-6 -58 -31 -94 -82 -94z" />
    <glyph glyph-name="uni1EB7" unicode="&#x1eb7;" 
d="M241 -12c-94 0 -165 55 -165 141c0 110 99 163 345 182c-3 60 -35 109 -122 109c-60 0 -118 -27 -166 -55l-37 67c54 33 135 69 220 69c135 0 204 -78 204 -207v-294h-81l-8 63h-3c-52 -40 -120 -75 -187 -75zM269 67c52 0 102 24 152 65v116
c-192 -15 -249 -53 -249 -112c0 -49 44 -69 97 -69zM320 571c-109 0 -155 75 -160 153l60 10c7 -50 38 -98 100 -98s93 48 100 98l60 -10c-5 -78 -51 -153 -160 -153zM300 -223c-42 0 -74 28 -74 71c0 42 32 71 74 71s74 -29 74 -71c0 -43 -32 -71 -74 -71z" />
    <glyph glyph-name="ae" unicode="&#xe6;" 
d="M146 -12c-75 0 -129 52 -129 135c0 99 73 160 243 182c-3 87 -35 115 -81 115c-39 0 -79 -18 -111 -39l-36 67c44 28 98 53 155 53c56 0 97 -27 121 -94c34 67 85 94 137 94c102 0 151 -105 151 -227c0 -21 -2 -42 -5 -58h-254c7 -93 50 -148 118 -148c35 0 65 12 91 30
l35 -66c-34 -26 -81 -44 -129 -44c-67 0 -118 31 -151 84c-48 -55 -99 -84 -155 -84zM174 66c32 0 70 19 102 60c-10 33 -16 70 -16 111v6c-120 -17 -153 -57 -153 -110c0 -42 27 -67 67 -67zM438 423c-44 0 -90 -37 -100 -136h179c-3 92 -29 136 -79 136z" />
    <glyph glyph-name="aeacute" unicode="&#x1fd;" 
d="M146 -12c-75 0 -129 52 -129 135c0 99 73 160 243 182c-3 87 -35 115 -81 115c-39 0 -79 -18 -111 -39l-36 67c44 28 98 53 155 53c56 0 97 -27 121 -94c34 67 85 94 137 94c102 0 151 -105 151 -227c0 -21 -2 -42 -5 -58h-254c7 -93 50 -148 118 -148c35 0 65 12 91 30
l35 -66c-34 -26 -81 -44 -129 -44c-67 0 -118 31 -151 84c-48 -55 -99 -84 -155 -84zM174 66c32 0 70 19 102 60c-10 33 -16 70 -16 111v6c-120 -17 -153 -57 -153 -110c0 -42 27 -67 67 -67zM438 423c-44 0 -90 -37 -100 -136h179c-3 92 -29 136 -79 136zM297 566l-51 49
l145 172l69 -67z" />
    <glyph glyph-name="uni01E3" unicode="&#x1e3;" 
d="M146 -12c-75 0 -129 52 -129 135c0 99 73 160 243 182c-3 87 -35 115 -81 115c-39 0 -79 -18 -111 -39l-36 67c44 28 98 53 155 53c56 0 97 -27 121 -94c34 67 85 94 137 94c102 0 151 -105 151 -227c0 -21 -2 -42 -5 -58h-254c7 -93 50 -148 118 -148c35 0 65 12 91 30
l35 -66c-34 -26 -81 -44 -129 -44c-67 0 -118 31 -151 84c-48 -55 -99 -84 -155 -84zM174 66c32 0 70 19 102 60c-10 33 -16 70 -16 111v6c-120 -17 -153 -57 -153 -110c0 -42 27 -67 67 -67zM438 423c-44 0 -90 -37 -100 -136h179c-3 92 -29 136 -79 136zM177 598v67h274
v-67h-274z" />
    <glyph glyph-name="uni0180" unicode="&#x180;" 
d="M325 -12c-47 0 -103 24 -147 66h-3l-9 -54h-78v560h-72v62l72 5v82h98v-82h205v-67h-205v-63l-3 -86h3c42 43 101 70 156 70c129 0 201 -94 201 -239c0 -161 -104 -254 -218 -254zM306 70c77 0 135 62 135 171c0 96 -37 157 -125 157c-40 0 -84 -20 -130 -66v-211
c42 -37 88 -51 120 -51z" />
    <glyph glyph-name="uni1E07" unicode="&#x1e07;" 
d="M325 -12c-47 0 -103 24 -147 66h-3l-9 -54h-78v709h99v-188l-4 -90h3c42 42 101 70 156 70c129 0 202 -98 202 -249c0 -167 -105 -264 -219 -264zM306 70c77 0 136 65 136 181c0 102 -38 167 -126 167c-40 0 -85 -20 -129 -66v-231c41 -37 87 -51 119 -51zM173 -176v67
h274v-67h-274z" />
    <glyph glyph-name="ccedilla" unicode="&#xe7;" 
d="M254 -230l-8 46c82 5 107 19 107 48c0 24 -19 38 -77 46l34 80c-135 13 -234 105 -234 254c0 163 127 257 275 257c80 0 140 -31 180 -70l-48 -63c-39 32 -79 51 -127 51c-105 0 -178 -70 -178 -175s71 -175 175 -175c59 0 106 26 145 58l43 -64
c-48 -42 -107 -68 -168 -74l-19 -52c46 -11 73 -31 73 -72c0 -61 -62 -90 -173 -95z" />
    <glyph glyph-name="cacute" unicode="&#x107;" 
d="M345 -12c-153 0 -269 94 -269 256c0 163 127 257 275 257c80 0 140 -31 180 -70l-48 -63c-39 32 -79 51 -127 51c-105 0 -178 -70 -178 -175s71 -175 175 -175c59 0 106 26 145 58l43 -64c-55 -48 -125 -75 -196 -75zM328 566l-51 49l145 172l69 -67z" />
    <glyph glyph-name="ccircumflex" unicode="&#x109;" 
d="M345 -12c-153 0 -269 94 -269 256c0 163 127 257 275 257c80 0 140 -31 180 -70l-48 -63c-39 32 -79 51 -127 51c-105 0 -178 -70 -178 -175s71 -175 175 -175c59 0 106 26 145 58l43 -64c-55 -48 -125 -75 -196 -75zM223 566l-40 38l112 137h100l112 -137l-40 -38
l-120 108h-4z" />
    <glyph glyph-name="ccaron" unicode="&#x10d;" 
d="M345 -12c-153 0 -269 94 -269 256c0 163 127 257 275 257c80 0 140 -31 180 -70l-48 -63c-39 32 -79 51 -127 51c-105 0 -178 -70 -178 -175s71 -175 175 -175c59 0 106 26 145 58l43 -64c-55 -48 -125 -75 -196 -75zM295 575l-112 137l40 38l120 -108h4l120 108l40 -38
l-112 -137h-100z" />
    <glyph glyph-name="cdotaccent" unicode="&#x10b;" 
d="M345 -12c-153 0 -269 94 -269 256c0 163 127 257 275 257c80 0 140 -31 180 -70l-48 -63c-39 32 -79 51 -127 51c-105 0 -178 -70 -178 -175s71 -175 175 -175c59 0 106 26 145 58l43 -64c-55 -48 -125 -75 -196 -75zM345 584c-42 0 -74 28 -74 71c0 42 32 71 74 71
s74 -29 74 -71c0 -43 -32 -71 -74 -71z" />
    <glyph glyph-name="dcaron" unicode="&#x10f;" 
d="M245 -12c-118 0 -196 94 -196 256c0 159 98 257 204 257c53 0 91 -23 130 -61h3l-5 87v182h94v-709h-76l-8 60h-3c-38 -38 -89 -72 -143 -72zM267 70c41 0 77 23 114 66v232c-38 35 -71 50 -106 50c-71 0 -129 -67 -129 -173c0 -112 45 -175 121 -175zM539 548l-4 270h89
l-1 -86l-17 -184h-67z" />
    <glyph glyph-name="uni1E0D" unicode="&#x1e0d;" 
d="M267 -12c-127 0 -211 94 -211 256c0 159 106 257 219 257c57 0 100 -22 140 -61h3l-5 87v182h99v-709h-81l-8 60h-3c-39 -39 -95 -72 -153 -72zM290 70c44 0 85 22 123 66v232c-39 37 -77 50 -116 50c-76 0 -139 -67 -139 -173c0 -112 49 -175 132 -175zM305 -223
c-42 0 -74 28 -74 71c0 42 32 71 74 71s74 -29 74 -71c0 -43 -32 -71 -74 -71z" />
    <glyph glyph-name="uni1E0F" unicode="&#x1e0f;" 
d="M267 -12c-127 0 -211 94 -211 256c0 159 106 257 219 257c57 0 100 -22 140 -61h3l-5 87v182h99v-709h-81l-8 60h-3c-39 -39 -95 -72 -153 -72zM290 70c44 0 85 22 123 66v232c-39 37 -77 50 -116 50c-76 0 -139 -67 -139 -173c0 -112 49 -175 132 -175zM168 -176v67h274
v-67h-274z" />
    <glyph glyph-name="uni1E11" unicode="&#x1e11;" 
d="M290 70c44 0 85 22 123 66v232c-39 37 -77 50 -116 50c-76 0 -139 -67 -139 -173c0 -112 49 -175 132 -175zM200 -230l-8 46c82 5 107 19 107 48c0 24 -19 38 -77 46l33 78c-120 6 -199 99 -199 256c0 159 106 257 219 257c57 0 100 -22 140 -61h3l-5 87v182h99v-709h-81
l-8 60h-3c-26 -26 -61 -50 -98 -63l-22 -60c46 -11 73 -31 73 -72c0 -61 -62 -90 -173 -95z" />
    <glyph glyph-name="dcroat" unicode="&#x111;" 
d="M267 -12c-127 0 -210 89 -210 245c0 154 105 248 218 248c58 0 101 -24 140 -61h3l-4 87v53h-170v67h170v82h98v-82h72v-61l-72 -6v-560h-81l-8 61h-3c-39 -40 -96 -73 -153 -73zM289 70c45 0 86 22 125 66v212c-40 36 -78 50 -115 50c-78 0 -140 -64 -140 -163
c0 -105 48 -165 130 -165z" />
    <glyph glyph-name="egrave" unicode="&#xe8;" 
d="M330 -12c-148 0 -265 94 -265 257c0 159 120 256 250 256c144 0 225 -95 225 -231c0 -21 -2 -41 -4 -54h-372c11 -101 83 -150 179 -150c54 0 98 16 142 43l35 -63c-50 -33 -115 -58 -190 -58zM318 423c-74 0 -137 -47 -152 -134h285c-7 89 -57 134 -133 134zM332 566
l-163 154l69 67l145 -172z" />
    <glyph glyph-name="eacute" unicode="&#xe9;" 
d="M330 -12c-148 0 -265 94 -265 257c0 159 120 256 250 256c144 0 225 -95 225 -231c0 -21 -2 -41 -4 -54h-372c11 -101 83 -150 179 -150c54 0 98 16 142 43l35 -63c-50 -33 -115 -58 -190 -58zM318 423c-74 0 -137 -47 -152 -134h285c-7 89 -57 134 -133 134zM298 566
l-51 49l145 172l69 -67z" />
    <glyph glyph-name="ecircumflex" unicode="&#xea;" 
d="M330 -12c-148 0 -265 94 -265 257c0 159 120 256 250 256c144 0 225 -95 225 -231c0 -21 -2 -41 -4 -54h-372c11 -101 83 -150 179 -150c54 0 98 16 142 43l35 -63c-50 -33 -115 -58 -190 -58zM318 423c-74 0 -137 -47 -152 -134h285c-7 89 -57 134 -133 134zM193 566
l-40 38l112 137h100l112 -137l-40 -38l-120 108h-4z" />
    <glyph glyph-name="ecaron" unicode="&#x11b;" 
d="M330 -12c-148 0 -265 94 -265 257c0 159 120 256 250 256c144 0 225 -95 225 -231c0 -21 -2 -41 -4 -54h-372c11 -101 83 -150 179 -150c54 0 98 16 142 43l35 -63c-50 -33 -115 -58 -190 -58zM318 423c-74 0 -137 -47 -152 -134h285c-7 89 -57 134 -133 134zM265 575
l-112 137l40 38l120 -108h4l120 108l40 -38l-112 -137h-100z" />
    <glyph glyph-name="edieresis" unicode="&#xeb;" 
d="M330 -12c-148 0 -265 94 -265 257c0 159 120 256 250 256c144 0 225 -95 225 -231c0 -21 -2 -41 -4 -54h-372c11 -101 83 -150 179 -150c54 0 98 16 142 43l35 -63c-50 -33 -115 -58 -190 -58zM318 423c-74 0 -137 -47 -152 -134h285c-7 89 -57 134 -133 134zM214 584
c-36 0 -61 27 -61 62s25 62 61 62s62 -27 62 -62s-26 -62 -62 -62zM416 584c-36 0 -62 27 -62 62s26 62 62 62s61 -27 61 -62s-25 -62 -61 -62z" />
    <glyph glyph-name="emacron" unicode="&#x113;" 
d="M330 -12c-148 0 -265 94 -265 257c0 159 120 256 250 256c144 0 225 -95 225 -231c0 -21 -2 -41 -4 -54h-372c11 -101 83 -150 179 -150c54 0 98 16 142 43l35 -63c-50 -33 -115 -58 -190 -58zM318 423c-74 0 -137 -47 -152 -134h285c-7 89 -57 134 -133 134zM178 598v67
h274v-67h-274z" />
    <glyph glyph-name="ebreve" unicode="&#x115;" 
d="M330 -12c-148 0 -265 94 -265 257c0 159 120 256 250 256c144 0 225 -95 225 -231c0 -21 -2 -41 -4 -54h-372c11 -101 83 -150 179 -150c54 0 98 16 142 43l35 -63c-50 -33 -115 -58 -190 -58zM318 423c-74 0 -137 -47 -152 -134h285c-7 89 -57 134 -133 134zM315 571
c-109 0 -155 75 -160 153l60 10c7 -50 38 -98 100 -98s93 48 100 98l60 -10c-5 -78 -51 -153 -160 -153z" />
    <glyph glyph-name="eogonek" unicode="&#x119;" 
d="M420 -226c-62 0 -106 31 -106 95c0 51 29 90 73 128c-29 -10 -48 -9 -57 -9c-148 0 -265 94 -265 255s120 258 250 258c144 0 225 -95 225 -231c0 -21 -2 -41 -4 -54h-372c11 -101 83 -150 179 -150c54 0 98 16 142 43l35 -63c-102 -71 -136 -107 -136 -156
c0 -36 27 -53 58 -53c21 0 38 8 51 19l26 -46c-25 -22 -61 -36 -99 -36zM318 423c-74 0 -137 -47 -152 -134h285c-7 89 -57 134 -133 134z" />
    <glyph glyph-name="edotaccent" unicode="&#x117;" 
d="M330 -12c-148 0 -265 94 -265 257c0 159 120 256 250 256c144 0 225 -95 225 -231c0 -21 -2 -41 -4 -54h-372c11 -101 83 -150 179 -150c54 0 98 16 142 43l35 -63c-50 -33 -115 -58 -190 -58zM318 423c-74 0 -137 -47 -152 -134h285c-7 89 -57 134 -133 134zM315 584
c-42 0 -74 28 -74 71c0 42 32 71 74 71s74 -29 74 -71c0 -43 -32 -71 -74 -71z" />
    <glyph glyph-name="uni1EB9" unicode="&#x1eb9;" 
d="M330 -12c-148 0 -265 94 -265 257c0 159 120 256 250 256c144 0 225 -95 225 -231c0 -21 -2 -41 -4 -54h-372c11 -101 83 -150 179 -150c54 0 98 16 142 43l35 -63c-50 -33 -115 -58 -190 -58zM318 423c-74 0 -137 -47 -152 -134h285c-7 89 -57 134 -133 134zM315 -223
c-42 0 -74 28 -74 71c0 42 32 71 74 71s74 -29 74 -71c0 -43 -32 -71 -74 -71z" />
    <glyph glyph-name="uni1EBB" unicode="&#x1ebb;" 
d="M330 -12c-148 0 -265 94 -265 257c0 159 120 256 250 256c144 0 225 -95 225 -231c0 -21 -2 -41 -4 -54h-372c11 -101 83 -150 179 -150c54 0 98 16 142 43l35 -63c-50 -33 -115 -58 -190 -58zM318 423c-74 0 -137 -47 -152 -134h285c-7 89 -57 134 -133 134zM280 571
l-10 45c31 7 54 19 54 44c0 27 -26 42 -82 45l6 64c100 -3 151 -40 151 -101s-56 -88 -119 -97z" />
    <glyph glyph-name="uni1EBD" unicode="&#x1ebd;" 
d="M330 -12c-148 0 -265 94 -265 257c0 159 120 256 250 256c144 0 225 -95 225 -231c0 -21 -2 -41 -4 -54h-372c11 -101 83 -150 179 -150c54 0 98 16 142 43l35 -63c-50 -33 -115 -58 -190 -58zM318 423c-74 0 -137 -47 -152 -134h285c-7 89 -57 134 -133 134zM386 576
c-69 0 -98 79 -140 79c-28 0 -41 -28 -44 -73l-64 4c3 84 35 139 107 139c68 0 97 -78 140 -78c27 0 40 28 43 73l64 -4c-3 -84 -35 -140 -106 -140z" />
    <glyph glyph-name="uni1EBF" unicode="&#x1ebf;" 
d="M330 -12c-148 0 -265 94 -265 257c0 159 120 256 250 256c144 0 225 -95 225 -231c0 -21 -2 -41 -4 -54h-372c11 -101 83 -150 179 -150c54 0 98 16 142 43l35 -63c-50 -33 -115 -58 -190 -58zM318 423c-74 0 -137 -47 -152 -134h285c-7 89 -57 134 -133 134zM210 569
l-33 39l98 92h80l98 -92l-33 -39l-103 70h-4zM460 637l-41 32l86 122l56 -38z" />
    <glyph glyph-name="uni1EC1" unicode="&#x1ec1;" 
d="M330 -12c-148 0 -265 94 -265 257c0 159 120 256 250 256c144 0 225 -95 225 -231c0 -21 -2 -41 -4 -54h-372c11 -101 83 -150 179 -150c54 0 98 16 142 43l35 -63c-50 -33 -115 -58 -190 -58zM318 423c-74 0 -137 -47 -152 -134h285c-7 89 -57 134 -133 134zM210 569
l-33 39l98 92h80l98 -92l-33 -39l-103 70h-4zM170 637l-111 114l56 40l96 -119z" />
    <glyph glyph-name="uni1EC3" unicode="&#x1ec3;" 
d="M330 -12c-148 0 -265 94 -265 257c0 159 120 256 250 256c144 0 225 -95 225 -231c0 -21 -2 -41 -4 -54h-372c11 -101 83 -150 179 -150c54 0 98 16 142 43l35 -63c-50 -33 -115 -58 -190 -58zM318 423c-74 0 -137 -47 -152 -134h285c-7 89 -57 134 -133 134zM210 569
l-33 39l98 92h80l98 -92l-33 -39l-103 70h-4zM436 638l-9 38c24 7 40 16 40 37c0 24 -19 36 -68 39l8 46c86 -3 129 -28 129 -75c0 -56 -48 -75 -100 -85z" />
    <glyph glyph-name="uni1EC5" unicode="&#x1ec5;" 
d="M330 -12c-148 0 -265 94 -265 257c0 159 120 256 250 256c144 0 225 -95 225 -231c0 -21 -2 -41 -4 -54h-372c11 -101 83 -150 179 -150c54 0 98 16 142 43l35 -63c-50 -33 -115 -58 -190 -58zM318 423c-74 0 -137 -47 -152 -134h285c-7 89 -57 134 -133 134zM210 569
l-33 39l98 87h80l98 -87l-33 -39l-103 66h-4zM378 712c-57 0 -86 42 -121 42c-19 0 -27 -13 -32 -41l-50 5c6 57 29 94 77 94c57 0 85 -42 121 -42c19 0 27 13 32 41l50 -5c-6 -58 -29 -94 -77 -94z" />
    <glyph glyph-name="uni1EC7" unicode="&#x1ec7;" 
d="M330 -12c-148 0 -265 94 -265 257c0 159 120 256 250 256c144 0 225 -95 225 -231c0 -21 -2 -41 -4 -54h-372c11 -101 83 -150 179 -150c54 0 98 16 142 43l35 -63c-50 -33 -115 -58 -190 -58zM318 423c-74 0 -137 -47 -152 -134h285c-7 89 -57 134 -133 134zM193 566
l-40 38l112 137h100l112 -137l-40 -38l-120 108h-4zM315 -223c-42 0 -74 28 -74 71c0 42 32 71 74 71s74 -29 74 -71c0 -43 -32 -71 -74 -71z" />
    <glyph glyph-name="uni1E17" unicode="&#x1e17;" 
d="M330 -12c-148 0 -265 94 -265 257c0 159 120 256 250 256c144 0 225 -95 225 -231c0 -21 -2 -41 -4 -54h-372c11 -101 83 -150 179 -150c54 0 98 16 142 43l35 -63c-50 -33 -115 -58 -190 -58zM318 423c-74 0 -137 -47 -152 -134h285c-7 89 -57 134 -133 134zM178 598v67
h274v-67h-274zM283 707l-37 44l137 101l44 -55z" />
    <glyph glyph-name="uni01F5" unicode="&#x1f5;" 
d="M291 -221c-139 0 -224 47 -224 133c0 40 27 77 79 106v4c-26 15 -50 40 -50 81c0 32 22 67 58 92v4c-34 25 -61 68 -61 126c0 109 91 176 197 176c28 0 52 -4 74 -12h201v-78h-119c19 -21 36 -54 36 -89c0 -107 -85 -167 -192 -167c-24 0 -53 5 -79 16
c-22 -14 -34 -30 -34 -51c0 -35 34 -51 97 -51h104c127 0 190 -34 190 -117c0 -95 -108 -173 -277 -173zM290 219c56 0 102 40 102 106c0 64 -46 106 -102 106s-103 -42 -103 -106c0 -66 47 -106 103 -106zM301 -152c104 0 170 42 170 87c0 43 -35 54 -104 54h-87
c-30 0 -54 2 -74 8c-41 -23 -56 -48 -56 -73c0 -47 54 -76 151 -76zM290 566l-51 49l145 172l69 -67z" />
    <glyph glyph-name="gcircumflex" unicode="&#x11d;" 
d="M291 -221c-139 0 -224 47 -224 133c0 40 27 77 79 106v4c-26 15 -50 40 -50 81c0 32 22 67 58 92v4c-34 25 -61 68 -61 126c0 109 91 176 197 176c28 0 52 -4 74 -12h201v-78h-119c19 -21 36 -54 36 -89c0 -107 -85 -167 -192 -167c-24 0 -53 5 -79 16
c-22 -14 -34 -30 -34 -51c0 -35 34 -51 97 -51h104c127 0 190 -34 190 -117c0 -95 -108 -173 -277 -173zM290 219c56 0 102 40 102 106c0 64 -46 106 -102 106s-103 -42 -103 -106c0 -66 47 -106 103 -106zM301 -152c104 0 170 42 170 87c0 43 -35 54 -104 54h-87
c-30 0 -54 2 -74 8c-41 -23 -56 -48 -56 -73c0 -47 54 -76 151 -76zM185 566l-40 38l112 137h100l112 -137l-40 -38l-120 108h-4z" />
    <glyph glyph-name="gbreve" unicode="&#x11f;" 
d="M291 -221c-139 0 -224 47 -224 133c0 40 27 77 79 106v4c-26 15 -50 40 -50 81c0 32 22 67 58 92v4c-34 25 -61 68 -61 126c0 109 91 176 197 176c28 0 52 -4 74 -12h201v-78h-119c19 -21 36 -54 36 -89c0 -107 -85 -167 -192 -167c-24 0 -53 5 -79 16
c-22 -14 -34 -30 -34 -51c0 -35 34 -51 97 -51h104c127 0 190 -34 190 -117c0 -95 -108 -173 -277 -173zM290 219c56 0 102 40 102 106c0 64 -46 106 -102 106s-103 -42 -103 -106c0 -66 47 -106 103 -106zM301 -152c104 0 170 42 170 87c0 43 -35 54 -104 54h-87
c-30 0 -54 2 -74 8c-41 -23 -56 -48 -56 -73c0 -47 54 -76 151 -76zM307 571c-109 0 -155 75 -160 153l60 10c7 -50 38 -98 100 -98s93 48 100 98l60 -10c-5 -78 -51 -153 -160 -153z" />
    <glyph glyph-name="gdotaccent" unicode="&#x121;" 
d="M291 -221c-139 0 -224 47 -224 133c0 40 27 77 79 106v4c-26 15 -50 40 -50 81c0 32 22 67 58 92v4c-34 25 -61 68 -61 126c0 109 91 176 197 176c28 0 52 -4 74 -12h201v-78h-119c19 -21 36 -54 36 -89c0 -107 -85 -167 -192 -167c-24 0 -53 5 -79 16
c-22 -14 -34 -30 -34 -51c0 -35 34 -51 97 -51h104c127 0 190 -34 190 -117c0 -95 -108 -173 -277 -173zM290 219c56 0 102 40 102 106c0 64 -46 106 -102 106s-103 -42 -103 -106c0 -66 47 -106 103 -106zM301 -152c104 0 170 42 170 87c0 43 -35 54 -104 54h-87
c-30 0 -54 2 -74 8c-41 -23 -56 -48 -56 -73c0 -47 54 -76 151 -76zM307 584c-42 0 -74 28 -74 71c0 42 32 71 74 71s74 -29 74 -71c0 -43 -32 -71 -74 -71z" />
    <glyph glyph-name="uni0123" unicode="&#x123;" 
d="M291 -221c-139 0 -224 47 -224 133c0 40 27 77 79 106v4c-26 15 -50 40 -50 81c0 32 22 67 58 92v4c-34 25 -61 68 -61 126c0 109 91 176 197 176c28 0 52 -4 74 -12h201v-78h-119c19 -21 36 -54 36 -89c0 -107 -85 -167 -192 -167c-24 0 -53 5 -79 16
c-22 -14 -34 -30 -34 -51c0 -35 34 -51 97 -51h104c127 0 190 -34 190 -117c0 -95 -108 -173 -277 -173zM290 219c56 0 102 40 102 106c0 64 -46 106 -102 106s-103 -42 -103 -106c0 -66 47 -106 103 -106zM301 -152c104 0 170 42 170 87c0 43 -35 54 -104 54h-87
c-30 0 -54 2 -74 8c-41 -23 -56 -48 -56 -73c0 -47 54 -76 151 -76zM348 573c-93 10 -123 33 -123 79c0 61 62 90 173 95l8 -46c-82 -5 -107 -19 -107 -45c0 -24 23 -36 69 -40z" />
    <glyph glyph-name="gcaron" unicode="&#x1e7;" 
d="M291 -221c-139 0 -224 47 -224 133c0 40 27 77 79 106v4c-26 15 -50 40 -50 81c0 32 22 67 58 92v4c-34 25 -61 68 -61 126c0 109 91 176 197 176c28 0 52 -4 74 -12h201v-78h-119c19 -21 36 -54 36 -89c0 -107 -85 -167 -192 -167c-24 0 -53 5 -79 16
c-22 -14 -34 -30 -34 -51c0 -35 34 -51 97 -51h104c127 0 190 -34 190 -117c0 -95 -108 -173 -277 -173zM290 219c56 0 102 40 102 106c0 64 -46 106 -102 106s-103 -42 -103 -106c0 -66 47 -106 103 -106zM301 -152c104 0 170 42 170 87c0 43 -35 54 -104 54h-87
c-30 0 -54 2 -74 8c-41 -23 -56 -48 -56 -73c0 -47 54 -76 151 -76zM257 575l-112 137l40 38l120 -108h4l120 108l40 -38l-112 -137h-100z" />
    <glyph glyph-name="uni1E21" unicode="&#x1e21;" 
d="M291 -221c-139 0 -224 47 -224 133c0 40 27 77 79 106v4c-26 15 -50 40 -50 81c0 32 22 67 58 92v4c-34 25 -61 68 -61 126c0 109 91 176 197 176c28 0 52 -4 74 -12h201v-78h-119c19 -21 36 -54 36 -89c0 -107 -85 -167 -192 -167c-24 0 -53 5 -79 16
c-22 -14 -34 -30 -34 -51c0 -35 34 -51 97 -51h104c127 0 190 -34 190 -117c0 -95 -108 -173 -277 -173zM290 219c56 0 102 40 102 106c0 64 -46 106 -102 106s-103 -42 -103 -106c0 -66 47 -106 103 -106zM301 -152c104 0 170 42 170 87c0 43 -35 54 -104 54h-87
c-30 0 -54 2 -74 8c-41 -23 -56 -48 -56 -73c0 -47 54 -76 151 -76zM170 598v67h274v-67h-274z" />
    <glyph glyph-name="uni00670303" 
d="M291 -221c-139 0 -224 47 -224 133c0 40 27 77 79 106v4c-26 15 -50 40 -50 81c0 32 22 67 58 92v4c-34 25 -61 68 -61 126c0 109 91 176 197 176c28 0 52 -4 74 -12h201v-78h-119c19 -21 36 -54 36 -89c0 -107 -85 -167 -192 -167c-24 0 -53 5 -79 16
c-22 -14 -34 -30 -34 -51c0 -35 34 -51 97 -51h104c127 0 190 -34 190 -117c0 -95 -108 -173 -277 -173zM290 219c56 0 102 40 102 106c0 64 -46 106 -102 106s-103 -42 -103 -106c0 -66 47 -106 103 -106zM301 -152c104 0 170 42 170 87c0 43 -35 54 -104 54h-87
c-30 0 -54 2 -74 8c-41 -23 -56 -48 -56 -73c0 -47 54 -76 151 -76zM378 576c-69 0 -98 79 -140 79c-28 0 -41 -28 -44 -73l-64 4c3 84 35 139 107 139c68 0 97 -78 140 -78c27 0 40 28 43 73l64 -4c-3 -84 -35 -140 -106 -140z" />
    <glyph glyph-name="hcircumflex" unicode="&#x125;" 
d="M88 0v709h99v-188l-6 -110h3c46 50 102 90 177 90c114 0 166 -71 166 -198v-303h-99v290c0 85 -28 125 -102 125c-52 0 -89 -26 -139 -78v-337h-99zM25 755l-43 30l100 112h106l100 -112l-43 -30l-108 91h-4z" />
    <glyph glyph-name="uni1E27" unicode="&#x1e27;" 
d="M88 0v709h99v-188l-6 -110h3c46 50 102 90 177 90c114 0 166 -71 166 -198v-303h-99v290c0 85 -28 125 -102 125c-52 0 -89 -26 -139 -78v-337h-99zM39 771c-33 0 -57 24 -57 57s24 56 57 56c32 0 56 -23 56 -56s-24 -57 -56 -57zM231 771c-32 0 -56 24 -56 57
s24 56 56 56c33 0 57 -23 57 -56s-24 -57 -57 -57z" />
    <glyph glyph-name="uni1E25" unicode="&#x1e25;" 
d="M88 0v709h99v-188l-6 -110h3c46 50 102 90 177 90c114 0 166 -71 166 -198v-303h-99v290c0 85 -28 125 -102 125c-52 0 -89 -26 -139 -78v-337h-99zM313 -223c-42 0 -74 28 -74 71c0 42 32 71 74 71s74 -29 74 -71c0 -43 -32 -71 -74 -71z" />
    <glyph glyph-name="uni1E96" unicode="&#x1e96;" 
d="M88 0v709h99v-188l-6 -110h3c46 50 102 90 177 90c114 0 166 -71 166 -198v-303h-99v290c0 85 -28 125 -102 125c-52 0 -89 -26 -139 -78v-337h-99zM176 -176v67h274v-67h-274z" />
    <glyph glyph-name="uni1E29" unicode="&#x1e29;" 
d="M88 0v709h99v-188l-6 -110h3c46 50 102 90 177 90c114 0 166 -71 166 -198v-303h-99v290c0 85 -28 125 -102 125c-52 0 -89 -26 -139 -78v-337h-18l-23 -63c46 -11 73 -31 73 -72c0 -61 -62 -90 -173 -95l-8 46c82 5 107 19 107 48c0 24 -19 38 -77 46l38 90h-18z" />
    <glyph glyph-name="uni1E2B" unicode="&#x1e2b;" 
d="M88 0v709h99v-188l-6 -110h3c46 50 102 90 177 90c114 0 166 -71 166 -198v-303h-99v290c0 85 -28 125 -102 125c-52 0 -89 -26 -139 -78v-337h-99zM313 -232c-109 0 -155 75 -160 153l60 10c7 -50 38 -98 100 -98s93 48 100 98l60 -10c-5 -78 -51 -153 -160 -153z" />
    <glyph glyph-name="hbar" unicode="&#x127;" 
d="M88 0v560h-72v61l72 6v82h98v-82h205v-67h-205v-59l-6 -110h4c46 50 102 90 177 90c114 0 166 -71 166 -198v-283h-99v270c0 85 -28 126 -101 126c-54 0 -89 -27 -141 -79v-317h-98z" />
    <glyph glyph-name="igrave" unicode="&#xec;" 
d="M306 0v409h-219v80h318v-489h-99zM364 566l-163 154l69 67l145 -172z" />
    <glyph glyph-name="iacute" unicode="&#xed;" 
d="M306 0v409h-219v80h318v-489h-99zM330 566l-51 49l145 172l69 -67z" />
    <glyph glyph-name="icircumflex" unicode="&#xee;" 
d="M306 0v409h-219v80h318v-489h-99zM225 566l-40 38l112 137h100l112 -137l-40 -38l-120 108h-4z" />
    <glyph glyph-name="itilde" unicode="&#x129;" 
d="M306 0v409h-219v80h318v-489h-99zM418 576c-69 0 -98 79 -140 79c-28 0 -41 -28 -44 -73l-64 4c3 84 35 139 107 139c68 0 97 -78 140 -78c27 0 40 28 43 73l64 -4c-3 -84 -35 -140 -106 -140z" />
    <glyph glyph-name="idieresis" unicode="&#xef;" 
d="M306 0v409h-219v80h318v-489h-99zM246 584c-36 0 -61 27 -61 62s25 62 61 62s62 -27 62 -62s-26 -62 -62 -62zM448 584c-36 0 -62 27 -62 62s26 62 62 62s61 -27 61 -62s-25 -62 -61 -62z" />
    <glyph glyph-name="imacron" unicode="&#x12b;" 
d="M306 0v409h-219v80h318v-489h-99zM210 598v67h274v-67h-274z" />
    <glyph glyph-name="uni01D0" unicode="&#x1d0;" 
d="M306 0v409h-219v80h318v-489h-99zM297 575l-112 137l40 38l120 -108h4l120 108l40 -38l-112 -137h-100z" />
    <glyph glyph-name="iogonek" unicode="&#x12f;" 
d="M352 -226c-60 0 -107 31 -107 95c0 57 40 101 86 131h-25v409h-219v80h318v-493c-61 -27 -89 -68 -89 -107c0 -35 27 -52 58 -52c20 0 37 9 51 19l25 -46c-24 -21 -60 -36 -98 -36zM347 584c-42 0 -74 28 -74 71c0 42 32 71 74 71s74 -29 74 -71c0 -43 -32 -71 -74 -71z
" />
    <glyph glyph-name="uni1EC9" unicode="&#x1ec9;" 
d="M306 0v409h-219v80h318v-489h-99zM312 571l-10 45c31 7 54 19 54 44c0 27 -26 42 -82 45l6 64c100 -3 151 -40 151 -101s-56 -88 -119 -97z" />
    <glyph glyph-name="uni1ECB" unicode="&#x1ecb;" 
d="M306 0v409h-219v80h318v-489h-99zM347 584c-42 0 -74 28 -74 71c0 42 32 71 74 71s74 -29 74 -71c0 -43 -32 -71 -74 -71zM347 -223c-42 0 -74 28 -74 71c0 42 32 71 74 71s74 -29 74 -71c0 -43 -32 -71 -74 -71z" />
    <glyph glyph-name="ibreve" unicode="&#x12d;" 
d="M306 0v409h-219v80h318v-489h-99zM347 571c-109 0 -155 75 -160 153l60 10c7 -50 38 -98 100 -98s93 48 100 98l60 -10c-5 -78 -51 -153 -160 -153z" />
    <glyph glyph-name="dotlessi" unicode="&#x131;" 
d="M306 0v409h-219v80h318v-489h-99z" />
    <glyph glyph-name="jcircumflex" unicode="&#x135;" 
d="M194 -212c-53 0 -103 14 -142 33l31 73c36 -17 73 -26 108 -26c90 0 115 45 115 125v416h-219v80h318v-490c0 -120 -48 -211 -211 -211zM225 566l-40 38l112 137h100l112 -137l-40 -38l-120 108h-4z" />
    <glyph glyph-name="uni0137" unicode="&#x137;" 
d="M98 0v709h99v-462h4l241 242h111l-192 -194l216 -295h-109l-168 234l-103 -104v-130h-99zM241 -230l-8 46c82 5 107 19 107 45c0 24 -23 36 -69 40l20 43c93 -10 123 -33 123 -79c0 -61 -62 -90 -173 -95z" />
    <glyph glyph-name="uni1E33" unicode="&#x1e33;" 
d="M98 0v709h99v-462h4l241 242h111l-192 -194l216 -295h-109l-168 234l-103 -104v-130h-99zM332 -223c-42 0 -74 28 -74 71c0 42 32 71 74 71s74 -29 74 -71c0 -43 -32 -71 -74 -71z" />
    <glyph glyph-name="uni1E35" unicode="&#x1e35;" 
d="M98 0v709h99v-462h4l241 242h111l-192 -194l216 -295h-109l-168 234l-103 -104v-130h-99zM195 -176v67h274v-67h-274z" />
    <glyph glyph-name="kgreenlandic" unicode="&#x138;" 
d="M98 0v489h99v-241l3 1l242 240h111l-191 -196l215 -293h-109l-166 228l-105 -100v-128h-99z" />
    <glyph glyph-name="lacute" unicode="&#x13a;" 
d="M404 -12c-109 0 -168 65 -168 183v459h-168v79h267v-544c0 -68 38 -96 92 -96c27 0 55 7 88 21l24 -74c-47 -18 -80 -28 -135 -28zM251 753l-44 50l149 131l55 -66z" />
    <glyph glyph-name="lcaron" unicode="&#x13e;" 
d="M404 -12c-109 0 -168 65 -168 183v459h-168v79h267v-544c0 -68 38 -96 92 -96c27 0 55 7 88 21l24 -74c-47 -18 -80 -28 -135 -28zM407 548l-4 270h89l-1 -86l-17 -184h-67z" />
    <glyph glyph-name="uni013C" unicode="&#x13c;" 
d="M404 -12c-109 0 -168 65 -168 183v459h-168v79h267v-544c0 -68 38 -96 92 -96c27 0 55 7 88 21l24 -74c-47 -18 -80 -28 -135 -28zM290 -230l-8 46c82 5 107 19 107 45c0 24 -23 36 -69 40l20 43c93 -10 123 -33 123 -79c0 -61 -62 -90 -173 -95z" />
    <glyph glyph-name="uni1E37" unicode="&#x1e37;" 
d="M404 -12c-109 0 -168 65 -168 183v459h-168v79h267v-544c0 -68 38 -96 92 -96c27 0 55 7 88 21l24 -74c-47 -18 -80 -28 -135 -28zM381 -223c-42 0 -74 28 -74 71c0 42 32 71 74 71s74 -29 74 -71c0 -43 -32 -71 -74 -71z" />
    <glyph glyph-name="uni1E39" unicode="&#x1e39;" 
d="M404 -12c-109 0 -168 65 -168 183v459h-168v79h267v-544c0 -68 38 -96 92 -96c27 0 55 7 88 21l24 -74c-47 -18 -80 -28 -135 -28zM144 791v67h276v-67h-276zM381 -223c-42 0 -74 28 -74 71c0 42 32 71 74 71s74 -29 74 -71c0 -43 -32 -71 -74 -71z" />
    <glyph glyph-name="uni1E3B" unicode="&#x1e3b;" 
d="M404 -12c-109 0 -168 65 -168 183v459h-168v79h267v-544c0 -68 38 -96 92 -96c27 0 55 7 88 21l24 -74c-47 -18 -80 -28 -135 -28zM244 -176v67h274v-67h-274z" />
    <glyph glyph-name="lslash" unicode="&#x142;" 
d="M404 -12c-109 0 -168 65 -168 183v149l-101 -60l-35 64l136 78v228h-168v79h267v-259l141 79l34 -64l-175 -98v-202c0 -68 38 -96 92 -96c27 0 55 7 88 21l24 -74c-47 -18 -80 -28 -135 -28z" />
    <glyph glyph-name="ldot" unicode="&#x140;" 
d="M362 -12c-109 0 -168 65 -168 183v459h-168v79h267v-544c0 -68 38 -96 92 -96c27 0 55 7 88 21l24 -74c-47 -18 -80 -28 -135 -28zM565 280c-42 0 -74 28 -74 71c0 42 32 71 74 71s74 -29 74 -71c0 -43 -32 -71 -74 -71z" />
    <glyph glyph-name="uni1E3F" unicode="&#x1e3f;" 
d="M52 0v489h78l8 -64h2c23 44 54 76 110 76c47 0 77 -28 90 -84c26 50 57 84 113 84c69 0 109 -55 109 -153v-348h-97v341c0 49 -14 75 -45 75c-30 0 -47 -23 -70 -68v-348h-86v341c0 49 -13 75 -44 75c-30 0 -50 -23 -71 -68v-348h-97zM300 567l-51 49l145 172l69 -67z
" />
    <glyph glyph-name="uni1E41" unicode="&#x1e41;" 
d="M52 0v489h78l8 -64h2c23 44 54 76 110 76c47 0 77 -28 90 -84c26 50 57 84 113 84c69 0 109 -55 109 -153v-348h-97v341c0 49 -14 75 -45 75c-30 0 -47 -23 -70 -68v-348h-86v341c0 49 -13 75 -44 75c-30 0 -50 -23 -71 -68v-348h-97zM317 585c-42 0 -74 28 -74 71
c0 42 32 71 74 71s74 -29 74 -71c0 -43 -32 -71 -74 -71z" />
    <glyph glyph-name="uni1E43" unicode="&#x1e43;" 
d="M52 0v489h78l8 -64h2c23 44 54 76 110 76c47 0 77 -28 90 -84c26 50 57 84 113 84c69 0 109 -55 109 -153v-348h-97v341c0 49 -14 75 -45 75c-30 0 -47 -23 -70 -68v-348h-86v341c0 49 -13 75 -44 75c-30 0 -50 -23 -71 -68v-348h-97zM307 -223c-42 0 -74 28 -74 71
c0 42 32 71 74 71s74 -29 74 -71c0 -43 -32 -71 -74 -71z" />
    <glyph glyph-name="nacute" unicode="&#x144;" 
d="M88 0v489h81l8 -79h4c49 51 104 91 180 91c114 0 166 -71 166 -198v-303h-99v290c0 85 -28 125 -102 125c-52 0 -89 -26 -139 -78v-337h-99zM300 566l-51 49l145 172l69 -67z" />
    <glyph glyph-name="uni01F9" unicode="&#x1f9;" 
d="M88 0v489h81l8 -79h4c49 51 104 91 180 91c114 0 166 -71 166 -198v-303h-99v290c0 85 -28 125 -102 125c-52 0 -89 -26 -139 -78v-337h-99zM334 566l-163 154l69 67l145 -172z" />
    <glyph glyph-name="ncaron" unicode="&#x148;" 
d="M88 0v489h81l8 -79h4c49 51 104 91 180 91c114 0 166 -71 166 -198v-303h-99v290c0 85 -28 125 -102 125c-52 0 -89 -26 -139 -78v-337h-99zM267 575l-112 137l40 38l120 -108h4l120 108l40 -38l-112 -137h-100z" />
    <glyph glyph-name="ntilde" unicode="&#xf1;" 
d="M88 0v489h81l8 -79h4c49 51 104 91 180 91c114 0 166 -71 166 -198v-303h-99v290c0 85 -28 125 -102 125c-52 0 -89 -26 -139 -78v-337h-99zM388 576c-69 0 -98 79 -140 79c-28 0 -41 -28 -44 -73l-64 4c3 84 35 139 107 139c68 0 97 -78 140 -78c27 0 40 28 43 73l64 -4
c-3 -84 -35 -140 -106 -140z" />
    <glyph glyph-name="uni0146" unicode="&#x146;" 
d="M88 0v489h81l8 -79h4c49 51 104 91 180 91c114 0 166 -71 166 -198v-303h-99v290c0 85 -28 125 -102 125c-52 0 -89 -26 -139 -78v-337h-99zM220 -230l-8 46c82 5 107 19 107 45c0 24 -23 36 -69 40l20 43c93 -10 123 -33 123 -79c0 -61 -62 -90 -173 -95z" />
    <glyph glyph-name="uni1E45" unicode="&#x1e45;" 
d="M88 0v489h81l8 -79h4c49 51 104 91 180 91c114 0 166 -71 166 -198v-303h-99v290c0 85 -28 125 -102 125c-52 0 -89 -26 -139 -78v-337h-99zM317 584c-42 0 -74 28 -74 71c0 42 32 71 74 71s74 -29 74 -71c0 -43 -32 -71 -74 -71z" />
    <glyph glyph-name="uni1E47" unicode="&#x1e47;" 
d="M88 0v489h81l8 -79h4c49 51 104 91 180 91c114 0 166 -71 166 -198v-303h-99v290c0 85 -28 125 -102 125c-52 0 -89 -26 -139 -78v-337h-99zM311 -223c-42 0 -74 28 -74 71c0 42 32 71 74 71s74 -29 74 -71c0 -43 -32 -71 -74 -71z" />
    <glyph glyph-name="uni1E49" unicode="&#x1e49;" 
d="M88 0v489h81l8 -79h4c49 51 104 91 180 91c114 0 166 -71 166 -198v-303h-99v290c0 85 -28 125 -102 125c-52 0 -89 -26 -139 -78v-337h-99zM174 -176v67h274v-67h-274z" />
    <glyph glyph-name="napostrophe" unicode="&#x149;" 
d="M201 0v489h82l8 -74h4c45 48 94 86 163 86c103 0 152 -69 152 -193v-308h-99v295c0 82 -26 120 -88 120c-46 0 -77 -24 -123 -73v-342h-99zM2 334l-31 56c64 34 102 85 106 153c-8 -3 -16 -5 -24 -5c-45 0 -76 31 -76 77c0 49 33 83 79 83c58 0 97 -48 97 -131
c0 -102 -55 -185 -151 -233z" />
    <glyph glyph-name="ograve" unicode="&#xf2;" 
d="M300 -12c-128 0 -244 94 -244 256c0 163 116 257 244 257s244 -94 244 -257c0 -162 -116 -256 -244 -256zM300 69c87 0 142 70 142 175s-55 175 -142 175s-142 -70 -142 -175s55 -175 142 -175zM317 566l-163 154l69 67l145 -172z" />
    <glyph glyph-name="oacute" unicode="&#xf3;" 
d="M300 -12c-128 0 -244 94 -244 256c0 163 116 257 244 257s244 -94 244 -257c0 -162 -116 -256 -244 -256zM300 69c87 0 142 70 142 175s-55 175 -142 175s-142 -70 -142 -175s55 -175 142 -175zM283 566l-51 49l145 172l69 -67z" />
    <glyph glyph-name="ocircumflex" unicode="&#xf4;" 
d="M300 -12c-128 0 -244 94 -244 256c0 163 116 257 244 257s244 -94 244 -257c0 -162 -116 -256 -244 -256zM300 69c87 0 142 70 142 175s-55 175 -142 175s-142 -70 -142 -175s55 -175 142 -175zM178 566l-40 38l112 137h100l112 -137l-40 -38l-120 108h-4z" />
    <glyph glyph-name="otilde" unicode="&#xf5;" 
d="M300 -12c-128 0 -244 94 -244 256c0 163 116 257 244 257s244 -94 244 -257c0 -162 -116 -256 -244 -256zM300 69c87 0 142 70 142 175s-55 175 -142 175s-142 -70 -142 -175s55 -175 142 -175zM371 576c-69 0 -98 79 -140 79c-28 0 -41 -28 -44 -73l-64 4
c3 84 35 139 107 139c68 0 97 -78 140 -78c27 0 40 28 43 73l64 -4c-3 -84 -35 -140 -106 -140z" />
    <glyph glyph-name="odieresis" unicode="&#xf6;" 
d="M300 -12c-128 0 -244 94 -244 256c0 163 116 257 244 257s244 -94 244 -257c0 -162 -116 -256 -244 -256zM300 69c87 0 142 70 142 175s-55 175 -142 175s-142 -70 -142 -175s55 -175 142 -175zM199 584c-36 0 -61 27 -61 62s25 62 61 62s62 -27 62 -62s-26 -62 -62 -62z
M401 584c-36 0 -62 27 -62 62s26 62 62 62s61 -27 61 -62s-25 -62 -61 -62z" />
    <glyph glyph-name="omacron" unicode="&#x14d;" 
d="M300 -12c-128 0 -244 94 -244 256c0 163 116 257 244 257s244 -94 244 -257c0 -162 -116 -256 -244 -256zM300 69c87 0 142 70 142 175s-55 175 -142 175s-142 -70 -142 -175s55 -175 142 -175zM163 598v67h274v-67h-274z" />
    <glyph glyph-name="ohungarumlaut" unicode="&#x151;" 
d="M300 -12c-128 0 -244 94 -244 256c0 163 116 257 244 257s244 -94 244 -257c0 -162 -116 -256 -244 -256zM300 69c87 0 142 70 142 175s-55 175 -142 175s-142 -70 -142 -175s55 -175 142 -175zM244 567l-54 25l87 174l69 -32zM402 567l-54 25l87 174l69 -32z" />
    <glyph glyph-name="uni01D2" unicode="&#x1d2;" 
d="M300 -12c-128 0 -244 94 -244 256c0 163 116 257 244 257s244 -94 244 -257c0 -162 -116 -256 -244 -256zM300 69c87 0 142 70 142 175s-55 175 -142 175s-142 -70 -142 -175s55 -175 142 -175zM250 575l-112 137l40 38l120 -108h4l120 108l40 -38l-112 -137h-100z" />
    <glyph glyph-name="uni01EB" unicode="&#x1eb;" 
d="M323 -226c-59 0 -104 31 -104 95c0 53 33 93 66 120c-130 9 -229 104 -229 255c0 163 115 257 244 257s244 -94 244 -257c0 -134 -69 -201 -172 -246c-53 -24 -83 -70 -83 -109c0 -35 29 -52 56 -52c24 0 41 9 53 19l25 -46c-23 -21 -59 -36 -100 -36zM300 68
c87 0 142 69 142 176c0 105 -55 175 -142 175s-142 -70 -142 -175c0 -107 55 -176 142 -176z" />
    <glyph glyph-name="uni1ECD" unicode="&#x1ecd;" 
d="M300 -12c-128 0 -244 94 -244 256c0 163 116 257 244 257s244 -94 244 -257c0 -162 -116 -256 -244 -256zM300 69c87 0 142 70 142 175s-55 175 -142 175s-142 -70 -142 -175s55 -175 142 -175zM300 -223c-42 0 -74 28 -74 71c0 42 32 71 74 71s74 -29 74 -71
c0 -43 -32 -71 -74 -71z" />
    <glyph glyph-name="uni1ECF" unicode="&#x1ecf;" 
d="M300 -12c-128 0 -244 94 -244 256c0 163 116 257 244 257s244 -94 244 -257c0 -162 -116 -256 -244 -256zM300 69c87 0 142 70 142 175s-55 175 -142 175s-142 -70 -142 -175s55 -175 142 -175zM265 571l-10 45c31 7 54 19 54 44c0 27 -26 42 -82 45l6 64
c100 -3 151 -40 151 -101s-56 -88 -119 -97z" />
    <glyph glyph-name="uni1ED1" unicode="&#x1ed1;" 
d="M300 -12c-128 0 -244 94 -244 256c0 163 116 257 244 257s244 -94 244 -257c0 -162 -116 -256 -244 -256zM300 69c87 0 142 70 142 175s-55 175 -142 175s-142 -70 -142 -175s55 -175 142 -175zM195 569l-33 39l98 92h80l98 -92l-33 -39l-103 70h-4zM445 637l-41 32
l86 122l56 -38z" />
    <glyph glyph-name="uni1ED3" unicode="&#x1ed3;" 
d="M300 -12c-128 0 -244 94 -244 256c0 163 116 257 244 257s244 -94 244 -257c0 -162 -116 -256 -244 -256zM300 69c87 0 142 70 142 175s-55 175 -142 175s-142 -70 -142 -175s55 -175 142 -175zM195 569l-33 39l98 92h80l98 -92l-33 -39l-103 70h-4zM155 637l-111 114
l56 40l96 -119z" />
    <glyph glyph-name="uni1ED5" unicode="&#x1ed5;" 
d="M300 -12c-128 0 -244 94 -244 256c0 163 116 257 244 257s244 -94 244 -257c0 -162 -116 -256 -244 -256zM300 69c87 0 142 70 142 175s-55 175 -142 175s-142 -70 -142 -175s55 -175 142 -175zM195 569l-33 39l98 92h80l98 -92l-33 -39l-103 70h-4zM421 638l-9 38
c24 7 40 16 40 37c0 24 -19 36 -68 39l8 46c86 -3 129 -28 129 -75c0 -56 -48 -75 -100 -85z" />
    <glyph glyph-name="uni1ED7" unicode="&#x1ed7;" 
d="M300 -12c-128 0 -244 94 -244 256c0 163 116 257 244 257s244 -94 244 -257c0 -162 -116 -256 -244 -256zM300 69c87 0 142 70 142 175s-55 175 -142 175s-142 -70 -142 -175s55 -175 142 -175zM195 569l-33 39l98 87h80l98 -87l-33 -39l-103 66h-4zM363 712
c-57 0 -86 42 -121 42c-19 0 -27 -13 -32 -41l-50 5c6 57 29 94 77 94c57 0 85 -42 121 -42c19 0 27 13 32 41l50 -5c-6 -58 -29 -94 -77 -94z" />
    <glyph glyph-name="uni1ED9" unicode="&#x1ed9;" 
d="M300 -12c-128 0 -244 94 -244 256c0 163 116 257 244 257s244 -94 244 -257c0 -162 -116 -256 -244 -256zM300 69c87 0 142 70 142 175s-55 175 -142 175s-142 -70 -142 -175s55 -175 142 -175zM178 566l-40 38l112 137h100l112 -137l-40 -38l-120 108h-4zM300 -223
c-42 0 -74 28 -74 71c0 42 32 71 74 71s74 -29 74 -71c0 -43 -32 -71 -74 -71z" />
    <glyph glyph-name="obreve" unicode="&#x14f;" 
d="M300 -12c-128 0 -244 94 -244 256c0 163 116 257 244 257s244 -94 244 -257c0 -162 -116 -256 -244 -256zM300 69c87 0 142 70 142 175s-55 175 -142 175s-142 -70 -142 -175s55 -175 142 -175zM300 571c-109 0 -155 75 -160 153l60 10c7 -50 38 -98 100 -98
s93 48 100 98l60 -10c-5 -78 -51 -153 -160 -153z" />
    <glyph glyph-name="uni1E53" unicode="&#x1e53;" 
d="M300 -12c-128 0 -244 94 -244 256c0 163 116 257 244 257s244 -94 244 -257c0 -162 -116 -256 -244 -256zM300 69c87 0 142 70 142 175s-55 175 -142 175s-142 -70 -142 -175s55 -175 142 -175zM163 598v67h274v-67h-274zM268 707l-37 44l137 101l44 -55z" />
    <glyph glyph-name="ohorn" unicode="&#x1a1;" 
d="M300 -12c-128 0 -244 94 -244 256c0 163 116 257 244 257c36 0 71 -7 103 -22c50 14 80 43 80 100c0 21 -5 44 -15 59l75 35c15 -23 25 -55 25 -87c0 -78 -49 -121 -109 -142c51 -44 85 -112 85 -200c0 -162 -116 -256 -244 -256zM300 69c87 0 142 70 142 175
s-55 175 -142 175s-142 -70 -142 -175s55 -175 142 -175z" />
    <glyph glyph-name="uni1EDB" unicode="&#x1edb;" 
d="M300 -12c-128 0 -244 94 -244 256c0 163 116 257 244 257c36 0 71 -7 103 -22c50 14 80 43 80 100c0 21 -5 44 -15 59l75 35c15 -23 25 -55 25 -87c0 -78 -49 -121 -109 -142c51 -44 85 -112 85 -200c0 -162 -116 -256 -244 -256zM300 69c87 0 142 70 142 175
s-55 175 -142 175s-142 -70 -142 -175s55 -175 142 -175zM283 566l-51 49l145 172l69 -67z" />
    <glyph glyph-name="uni1EDD" unicode="&#x1edd;" 
d="M300 -12c-128 0 -244 94 -244 256c0 163 116 257 244 257c36 0 71 -7 103 -22c50 14 80 43 80 100c0 21 -5 44 -15 59l75 35c15 -23 25 -55 25 -87c0 -78 -49 -121 -109 -142c51 -44 85 -112 85 -200c0 -162 -116 -256 -244 -256zM300 69c87 0 142 70 142 175
s-55 175 -142 175s-142 -70 -142 -175s55 -175 142 -175zM317 566l-163 154l69 67l145 -172z" />
    <glyph glyph-name="uni1EDF" unicode="&#x1edf;" 
d="M300 -12c-128 0 -244 94 -244 256c0 163 116 257 244 257c36 0 71 -7 103 -22c50 14 80 43 80 100c0 21 -5 44 -15 59l75 35c15 -23 25 -55 25 -87c0 -78 -49 -121 -109 -142c51 -44 85 -112 85 -200c0 -162 -116 -256 -244 -256zM300 69c87 0 142 70 142 175
s-55 175 -142 175s-142 -70 -142 -175s55 -175 142 -175zM265 571l-10 45c31 7 54 19 54 44c0 27 -26 42 -82 45l6 64c100 -3 151 -40 151 -101s-56 -88 -119 -97z" />
    <glyph glyph-name="uni1EE1" unicode="&#x1ee1;" 
d="M300 -12c-128 0 -244 94 -244 256c0 163 116 257 244 257c36 0 71 -7 103 -22c50 14 80 43 80 100c0 21 -5 44 -15 59l75 35c15 -23 25 -55 25 -87c0 -78 -49 -121 -109 -142c51 -44 85 -112 85 -200c0 -162 -116 -256 -244 -256zM300 69c87 0 142 70 142 175
s-55 175 -142 175s-142 -70 -142 -175s55 -175 142 -175zM351 576c-69 0 -98 79 -140 79c-28 0 -41 -28 -44 -73l-64 4c3 84 35 139 107 139c68 0 97 -78 140 -78c27 0 40 28 43 73l64 -4c-3 -84 -35 -140 -106 -140z" />
    <glyph glyph-name="uni1EE3" unicode="&#x1ee3;" 
d="M300 -12c-128 0 -244 94 -244 256c0 163 116 257 244 257c36 0 71 -7 103 -22c50 14 80 43 80 100c0 21 -5 44 -15 59l75 35c15 -23 25 -55 25 -87c0 -78 -49 -121 -109 -142c51 -44 85 -112 85 -200c0 -162 -116 -256 -244 -256zM300 69c87 0 142 70 142 175
s-55 175 -142 175s-142 -70 -142 -175s55 -175 142 -175zM300 -223c-42 0 -74 28 -74 71c0 42 32 71 74 71s74 -29 74 -71c0 -43 -32 -71 -74 -71z" />
    <glyph glyph-name="oslash" unicode="&#xf8;" 
d="M300 -12c-51 0 -99 15 -139 42l-50 -59l-49 43l51 60c-35 42 -56 99 -56 169c0 164 114 258 243 258c51 0 99 -14 139 -42l50 59l49 -43l-51 -60c35 -43 56 -101 56 -172c0 -161 -114 -255 -243 -255zM159 243c0 -35 6 -67 18 -93l206 243c-22 19 -50 29 -83 29
c-86 0 -141 -73 -141 -179zM300 66c86 0 141 73 141 177c0 36 -6 69 -18 96l-207 -243c23 -19 51 -30 84 -30z" />
    <glyph glyph-name="oslashacute" unicode="&#x1ff;" 
d="M300 -12c-51 0 -99 15 -139 42l-50 -59l-49 43l51 60c-35 42 -56 99 -56 169c0 164 114 258 243 258c51 0 99 -14 139 -42l50 59l49 -43l-51 -60c35 -43 56 -101 56 -172c0 -161 -114 -255 -243 -255zM159 243c0 -35 6 -67 18 -93l206 243c-22 19 -50 29 -83 29
c-86 0 -141 -73 -141 -179zM300 66c86 0 141 73 141 177c0 36 -6 69 -18 96l-207 -243c23 -19 51 -30 84 -30zM283 566l-51 49l145 172l69 -67z" />
    <glyph glyph-name="oe" unicode="&#x153;" 
d="M192 69c53 0 86 71 86 175c0 105 -33 176 -86 176c-59 0 -89 -70 -89 -177c0 -104 30 -174 89 -174zM186 -12c-99 0 -175 94 -175 255c0 164 77 258 176 258c59 0 102 -36 128 -113c26 77 77 113 134 113c98 0 147 -104 147 -227c0 -21 -2 -42 -5 -58h-241
c7 -100 53 -148 113 -148c32 0 57 12 83 30l35 -66c-33 -26 -77 -44 -122 -44c-61 0 -116 33 -143 109c-27 -76 -70 -109 -130 -109zM440 423c-45 0 -81 -44 -89 -136h166c-3 92 -28 136 -77 136z" />
    <glyph glyph-name="racute" unicode="&#x155;" 
d="M138 0v489h82l8 -114h3c50 79 126 126 213 126c38 0 66 -6 96 -20l-22 -85c-33 11 -52 16 -89 16c-70 0 -138 -36 -192 -134v-278h-99zM330 566l-51 49l145 172l69 -67z" />
    <glyph glyph-name="uni0157" unicode="&#x157;" 
d="M138 0v489h82l8 -114h3c50 79 126 126 213 126c38 0 66 -6 96 -20l-22 -85c-33 11 -52 16 -89 16c-70 0 -138 -36 -192 -134v-278h-99zM105 -230l-8 46c82 5 107 19 107 45c0 24 -23 36 -69 40l20 43c93 -10 123 -33 123 -79c0 -61 -62 -90 -173 -95z" />
    <glyph glyph-name="rcaron" unicode="&#x159;" 
d="M138 0v489h82l8 -114h3c50 79 126 126 213 126c38 0 66 -6 96 -20l-22 -85c-33 11 -52 16 -89 16c-70 0 -138 -36 -192 -134v-278h-99zM297 575l-112 137l40 38l120 -108h4l120 108l40 -38l-112 -137h-100z" />
    <glyph glyph-name="uni1E59" unicode="&#x1e59;" 
d="M138 0v489h82l8 -114h3c50 79 126 126 213 126c38 0 66 -6 96 -20l-22 -85c-33 11 -52 16 -89 16c-70 0 -138 -36 -192 -134v-278h-99zM347 584c-42 0 -74 28 -74 71c0 42 32 71 74 71s74 -29 74 -71c0 -43 -32 -71 -74 -71z" />
    <glyph glyph-name="uni1E5B" unicode="&#x1e5b;" 
d="M138 0v489h82l8 -114h3c50 79 126 126 213 126c38 0 66 -6 96 -20l-22 -85c-33 11 -52 16 -89 16c-70 0 -138 -36 -192 -134v-278h-99zM196 -223c-42 0 -74 28 -74 71c0 42 32 71 74 71s74 -29 74 -71c0 -43 -32 -71 -74 -71z" />
    <glyph glyph-name="uni1E5D" unicode="&#x1e5d;" 
d="M138 0v489h82l8 -114h3c50 79 126 126 213 126c38 0 66 -6 96 -20l-22 -85c-33 11 -52 16 -89 16c-70 0 -138 -36 -192 -134v-278h-99zM210 598v67h274v-67h-274zM196 -223c-42 0 -74 28 -74 71c0 42 32 71 74 71s74 -29 74 -71c0 -43 -32 -71 -74 -71z" />
    <glyph glyph-name="uni1E5F" unicode="&#x1e5f;" 
d="M138 0v489h82l8 -114h3c50 79 126 126 213 126c38 0 66 -6 96 -20l-22 -85c-33 11 -52 16 -89 16c-70 0 -138 -36 -192 -134v-278h-99zM59 -176v67h274v-67h-274z" />
    <glyph glyph-name="sacute" unicode="&#x15b;" 
d="M306 -12c-93 0 -180 35 -239 76l44 64c57 -40 123 -64 208 -64c75 0 111 30 111 67c0 35 -20 56 -143 82c-129 27 -190 71 -190 145c0 82 73 143 209 143c77 0 151 -31 200 -64l-46 -62c-47 31 -103 50 -163 50c-74 0 -101 -28 -101 -62c0 -38 39 -54 134 -74
c160 -35 200 -76 200 -152c0 -82 -80 -149 -224 -149zM289 566l-51 49l145 172l69 -67z" />
    <glyph glyph-name="scircumflex" unicode="&#x15d;" 
d="M306 -12c-93 0 -180 35 -239 76l44 64c57 -40 123 -64 208 -64c75 0 111 30 111 67c0 35 -20 56 -143 82c-129 27 -190 71 -190 145c0 82 73 143 209 143c77 0 151 -31 200 -64l-46 -62c-47 31 -103 50 -163 50c-74 0 -101 -28 -101 -62c0 -38 39 -54 134 -74
c160 -35 200 -76 200 -152c0 -82 -80 -149 -224 -149zM184 566l-40 38l112 137h100l112 -137l-40 -38l-120 108h-4z" />
    <glyph glyph-name="scaron" unicode="&#x161;" 
d="M306 -12c-93 0 -180 35 -239 76l44 64c57 -40 123 -64 208 -64c75 0 111 30 111 67c0 35 -20 56 -143 82c-129 27 -190 71 -190 145c0 82 73 143 209 143c77 0 151 -31 200 -64l-46 -62c-47 31 -103 50 -163 50c-74 0 -101 -28 -101 -62c0 -38 39 -54 134 -74
c160 -35 200 -76 200 -152c0 -82 -80 -149 -224 -149zM256 575l-112 137l40 38l120 -108h4l120 108l40 -38l-112 -137h-100z" />
    <glyph glyph-name="scarondot" 
d="M306 -12c-93 0 -180 35 -239 76l44 64c57 -40 123 -64 208 -64c75 0 111 30 111 67c0 35 -20 56 -143 82c-129 27 -190 71 -190 145c0 82 73 143 209 143c77 0 151 -31 200 -64l-46 -62c-47 31 -103 50 -163 50c-74 0 -101 -28 -101 -62c0 -38 39 -54 134 -74
c160 -35 200 -76 200 -152c0 -82 -80 -149 -224 -149zM306 701c-35 0 -61 24 -61 60c0 37 26 62 61 62s61 -25 61 -62c0 -36 -26 -60 -61 -60zM256 575l-112 137l35 33l125 -111h4l125 111l35 -33l-112 -137h-100z" />
    <glyph glyph-name="uni015F" unicode="&#x15f;" 
d="M222 -230l-8 46c82 5 107 19 107 48c0 24 -19 38 -77 46l34 79c-83 6 -158 38 -211 75l44 64c57 -40 123 -64 208 -64c75 0 111 30 111 67c0 35 -20 56 -143 82c-129 27 -190 71 -190 145c0 82 73 143 209 143c77 0 151 -31 200 -64l-46 -62c-47 31 -103 50 -163 50
c-74 0 -101 -28 -101 -62c0 -38 39 -54 134 -74c160 -35 200 -76 200 -152c0 -75 -67 -138 -189 -148l-19 -52c46 -11 73 -31 73 -72c0 -61 -62 -90 -173 -95z" />
    <glyph glyph-name="uni0219" unicode="&#x219;" 
d="M306 -12c-93 0 -180 35 -239 76l44 64c57 -40 123 -64 208 -64c75 0 111 30 111 67c0 35 -20 56 -143 82c-129 27 -190 71 -190 145c0 82 73 143 209 143c77 0 151 -31 200 -64l-46 -62c-47 31 -103 50 -163 50c-74 0 -101 -28 -101 -62c0 -38 39 -54 134 -74
c160 -35 200 -76 200 -152c0 -82 -80 -149 -224 -149zM217 -230l-8 46c82 5 107 19 107 45c0 24 -23 36 -69 40l20 43c93 -10 123 -33 123 -79c0 -61 -62 -90 -173 -95z" />
    <glyph glyph-name="uni1E61" unicode="&#x1e61;" 
d="M306 -12c-93 0 -180 35 -239 76l44 64c57 -40 123 -64 208 -64c75 0 111 30 111 67c0 35 -20 56 -143 82c-129 27 -190 71 -190 145c0 82 73 143 209 143c77 0 151 -31 200 -64l-46 -62c-47 31 -103 50 -163 50c-74 0 -101 -28 -101 -62c0 -38 39 -54 134 -74
c160 -35 200 -76 200 -152c0 -82 -80 -149 -224 -149zM306 584c-42 0 -74 28 -74 71c0 42 32 71 74 71s74 -29 74 -71c0 -43 -32 -71 -74 -71z" />
    <glyph glyph-name="uni1E63" unicode="&#x1e63;" 
d="M306 -12c-93 0 -180 35 -239 76l44 64c57 -40 123 -64 208 -64c75 0 111 30 111 67c0 35 -20 56 -143 82c-129 27 -190 71 -190 145c0 82 73 143 209 143c77 0 151 -31 200 -64l-46 -62c-47 31 -103 50 -163 50c-74 0 -101 -28 -101 -62c0 -38 39 -54 134 -74
c160 -35 200 -76 200 -152c0 -82 -80 -149 -224 -149zM308 -223c-42 0 -74 28 -74 71c0 42 32 71 74 71s74 -29 74 -71c0 -43 -32 -71 -74 -71z" />
    <glyph glyph-name="germandbls" unicode="&#xdf;" 
d="M400 -12c-56 0 -100 16 -143 43l37 69c36 -25 67 -36 103 -36c49 0 76 31 76 69c0 105 -190 90 -190 227c0 89 83 119 83 202c0 45 -29 80 -78 80c-68 0 -108 -49 -108 -140v-502h-99v513c0 123 75 208 208 208c111 0 170 -72 170 -153c0 -99 -83 -131 -83 -196
c0 -89 190 -76 190 -231c0 -86 -63 -153 -166 -153z" />
    <glyph glyph-name="longs" unicode="&#x17f;" 
d="M235 0v409h-137v75l137 5v34c0 117 63 198 202 198c50 0 98 -10 143 -28l-22 -73c-37 16 -69 22 -110 22c-81 0 -115 -43 -115 -117v-525h-98z" />
    <glyph glyph-name="tcaron" unicode="&#x165;" 
d="M392 -12c-145 0 -194 83 -194 205v216h-134v75l138 5l13 155h82v-155h231v-80h-231v-216c0 -84 29 -125 118 -125c43 0 78 8 112 21l20 -73c-44 -15 -92 -28 -155 -28zM396 548l-4 270h89l-1 -86l-17 -184h-67z" />
    <glyph glyph-name="uni0163" unicode="&#x163;" 
d="M294 -230l-8 46c82 5 107 19 107 48c0 24 -19 38 -77 46l34 81c-113 15 -152 93 -152 202v216h-134v75l138 5l13 155h82v-155h231v-80h-231v-216c0 -84 29 -125 118 -125c43 0 78 8 112 21l20 -73c-39 -13 -81 -25 -134 -28l-19 -51c46 -11 73 -31 73 -72
c0 -61 -62 -90 -173 -95z" />
    <glyph glyph-name="uni021B" unicode="&#x21b;" 
d="M392 -12c-145 0 -194 83 -194 205v216h-134v75l138 5l13 155h82v-155h231v-80h-231v-216c0 -84 29 -125 118 -125c43 0 78 8 112 21l20 -73c-44 -15 -92 -28 -155 -28zM285 -230l-8 46c82 5 107 19 107 45c0 24 -23 36 -69 40l20 43c93 -10 123 -33 123 -79
c0 -61 -62 -90 -173 -95z" />
    <glyph glyph-name="uni1E6D" unicode="&#x1e6d;" 
d="M392 -12c-145 0 -194 83 -194 205v216h-134v75l138 5l13 155h82v-155h231v-80h-231v-216c0 -84 29 -125 118 -125c43 0 78 8 112 21l20 -73c-44 -15 -92 -28 -155 -28zM376 -223c-42 0 -74 28 -74 71c0 42 32 71 74 71s74 -29 74 -71c0 -43 -32 -71 -74 -71z" />
    <glyph glyph-name="uni1E6F" unicode="&#x1e6f;" 
d="M392 -12c-145 0 -194 83 -194 205v216h-134v75l138 5l13 155h82v-155h231v-80h-231v-216c0 -84 29 -125 118 -125c43 0 78 8 112 21l20 -73c-44 -15 -92 -28 -155 -28zM239 -176v67h274v-67h-274z" />
    <glyph glyph-name="uni1E97" unicode="&#x1e97;" 
d="M392 -12c-145 0 -194 83 -194 205v216h-134v75l138 5l13 155h82v-155h231v-80h-231v-216c0 -84 29 -125 118 -125c43 0 78 8 112 21l20 -73c-44 -15 -92 -28 -155 -28zM162 721c-36 0 -61 27 -61 62s25 62 61 62s62 -27 62 -62s-26 -62 -62 -62zM364 721
c-36 0 -62 27 -62 62s26 62 62 62s61 -27 61 -62s-25 -62 -61 -62z" />
    <glyph glyph-name="tbar" unicode="&#x167;" 
d="M65 219v61l133 6v123h-134v75l138 5l13 155h82v-155h231v-80h-231v-123h212v-67h-212v-26c0 -84 29 -125 118 -125c43 0 78 8 112 21l20 -73c-44 -15 -92 -28 -155 -28c-145 0 -194 83 -194 205v26h-133z" />
    <glyph glyph-name="ugrave" unicode="&#xf9;" 
d="M240 -12c-115 0 -167 70 -167 198v303h99v-290c0 -86 28 -126 102 -126c51 0 89 23 137 81v335h99v-489h-81l-8 81h-4c-48 -55 -103 -93 -177 -93zM312 566l-163 154l69 67l145 -172z" />
    <glyph glyph-name="uacute" unicode="&#xfa;" 
d="M240 -12c-115 0 -167 70 -167 198v303h99v-290c0 -86 28 -126 102 -126c51 0 89 23 137 81v335h99v-489h-81l-8 81h-4c-48 -55 -103 -93 -177 -93zM278 566l-51 49l145 172l69 -67z" />
    <glyph glyph-name="ucircumflex" unicode="&#xfb;" 
d="M240 -12c-115 0 -167 70 -167 198v303h99v-290c0 -86 28 -126 102 -126c51 0 89 23 137 81v335h99v-489h-81l-8 81h-4c-48 -55 -103 -93 -177 -93zM173 566l-40 38l112 137h100l112 -137l-40 -38l-120 108h-4z" />
    <glyph glyph-name="utilde" unicode="&#x169;" 
d="M240 -12c-115 0 -167 70 -167 198v303h99v-290c0 -86 28 -126 102 -126c51 0 89 23 137 81v335h99v-489h-81l-8 81h-4c-48 -55 -103 -93 -177 -93zM366 576c-69 0 -98 79 -140 79c-28 0 -41 -28 -44 -73l-64 4c3 84 35 139 107 139c68 0 97 -78 140 -78c27 0 40 28 43 73
l64 -4c-3 -84 -35 -140 -106 -140z" />
    <glyph glyph-name="udieresis" unicode="&#xfc;" 
d="M240 -12c-115 0 -167 70 -167 198v303h99v-290c0 -86 28 -126 102 -126c51 0 89 23 137 81v335h99v-489h-81l-8 81h-4c-48 -55 -103 -93 -177 -93zM194 584c-36 0 -61 27 -61 62s25 62 61 62s62 -27 62 -62s-26 -62 -62 -62zM396 584c-36 0 -62 27 -62 62s26 62 62 62
s61 -27 61 -62s-25 -62 -61 -62z" />
    <glyph glyph-name="umacron" unicode="&#x16b;" 
d="M240 -12c-115 0 -167 70 -167 198v303h99v-290c0 -86 28 -126 102 -126c51 0 89 23 137 81v335h99v-489h-81l-8 81h-4c-48 -55 -103 -93 -177 -93zM158 598v67h274v-67h-274z" />
    <glyph glyph-name="ubreve" unicode="&#x16d;" 
d="M240 -12c-115 0 -167 70 -167 198v303h99v-290c0 -86 28 -126 102 -126c51 0 89 23 137 81v335h99v-489h-81l-8 81h-4c-48 -55 -103 -93 -177 -93zM295 571c-109 0 -155 75 -160 153l60 10c7 -50 38 -98 100 -98s93 48 100 98l60 -10c-5 -78 -51 -153 -160 -153z" />
    <glyph glyph-name="uring" unicode="&#x16f;" 
d="M240 -12c-115 0 -167 70 -167 198v303h99v-290c0 -86 28 -126 102 -126c51 0 89 23 137 81v335h99v-489h-81l-8 81h-4c-48 -55 -103 -93 -177 -93zM295 569c-73 0 -115 43 -115 98s42 98 115 98s115 -43 115 -98s-42 -98 -115 -98zM295 610c30 0 53 25 53 57
s-23 56 -53 56s-53 -24 -53 -56s23 -57 53 -57z" />
    <glyph glyph-name="uhungarumlaut" unicode="&#x171;" 
d="M240 -12c-115 0 -167 70 -167 198v303h99v-290c0 -86 28 -126 102 -126c51 0 89 23 137 81v335h99v-489h-81l-8 81h-4c-48 -55 -103 -93 -177 -93zM239 567l-54 25l87 174l69 -32zM397 567l-54 25l87 174l69 -32z" />
    <glyph glyph-name="uni01D4" unicode="&#x1d4;" 
d="M240 -12c-115 0 -167 70 -167 198v303h99v-290c0 -86 28 -126 102 -126c51 0 89 23 137 81v335h99v-489h-81l-8 81h-4c-48 -55 -103 -93 -177 -93zM245 575l-112 137l40 38l120 -108h4l120 108l40 -38l-112 -137h-100z" />
    <glyph glyph-name="uogonek" unicode="&#x173;" 
d="M443 -226c-59 0 -106 31 -106 95c0 59 44 101 93 130l-9 82h-4c-48 -55 -103 -93 -177 -93c-115 0 -167 70 -167 198v303h99v-290c0 -86 28 -126 102 -126c51 0 89 23 137 81v335h99v-493c-73 -29 -102 -69 -102 -107c0 -35 28 -52 57 -52c21 0 39 9 51 19l26 -46
c-25 -21 -61 -36 -99 -36z" />
    <glyph glyph-name="uni01D6" unicode="&#x1d6;" 
d="M240 -12c-115 0 -167 70 -167 198v303h99v-290c0 -86 28 -126 102 -126c51 0 89 23 137 81v335h99v-489h-81l-8 81h-4c-48 -55 -103 -93 -177 -93zM195 584c-28 0 -49 21 -49 49s21 50 49 50c29 0 50 -22 50 -50s-21 -49 -50 -49zM395 584c-29 0 -50 21 -50 49
s21 50 50 50c28 0 49 -22 49 -50s-21 -49 -49 -49zM157 752v52h275v-52h-275z" />
    <glyph glyph-name="uni01D8" unicode="&#x1d8;" 
d="M240 -12c-115 0 -167 70 -167 198v303h99v-290c0 -86 28 -126 102 -126c51 0 89 23 137 81v335h99v-489h-81l-8 81h-4c-48 -55 -103 -93 -177 -93zM195 584c-28 0 -49 21 -49 49s21 50 49 50c29 0 50 -22 50 -50s-21 -49 -50 -49zM395 584c-29 0 -50 21 -50 49
s21 50 50 50c28 0 49 -22 49 -50s-21 -49 -49 -49zM292 707l-41 27l81 120l56 -39z" />
    <glyph glyph-name="uni01DA" unicode="&#x1da;" 
d="M240 -12c-115 0 -167 70 -167 198v303h99v-290c0 -86 28 -126 102 -126c51 0 89 23 137 81v335h99v-489h-81l-8 81h-4c-48 -55 -103 -93 -177 -93zM195 584c-28 0 -49 21 -49 49s21 50 49 50c29 0 50 -22 50 -50s-21 -49 -50 -49zM395 584c-29 0 -50 21 -50 49
s21 50 50 50c28 0 49 -22 49 -50s-21 -49 -49 -49zM255 724l-93 92l34 33l97 -71h4l97 71l34 -33l-93 -92h-80z" />
    <glyph glyph-name="uni01DC" unicode="&#x1dc;" 
d="M240 -12c-115 0 -167 70 -167 198v303h99v-290c0 -86 28 -126 102 -126c51 0 89 23 137 81v335h99v-489h-81l-8 81h-4c-48 -55 -103 -93 -177 -93zM195 584c-28 0 -49 21 -49 49s21 50 49 50c29 0 50 -22 50 -50s-21 -49 -50 -49zM395 584c-29 0 -50 21 -50 49
s21 50 50 50c28 0 49 -22 49 -50s-21 -49 -49 -49zM298 707l-96 108l56 39l81 -120z" />
    <glyph glyph-name="uni1EE5" unicode="&#x1ee5;" 
d="M240 -12c-115 0 -167 70 -167 198v303h99v-290c0 -86 28 -126 102 -126c51 0 89 23 137 81v335h99v-489h-81l-8 81h-4c-48 -55 -103 -93 -177 -93zM309 -223c-42 0 -74 28 -74 71c0 42 32 71 74 71s74 -29 74 -71c0 -43 -32 -71 -74 -71z" />
    <glyph glyph-name="uni1EE7" unicode="&#x1ee7;" 
d="M240 -12c-115 0 -167 70 -167 198v303h99v-290c0 -86 28 -126 102 -126c51 0 89 23 137 81v335h99v-489h-81l-8 81h-4c-48 -55 -103 -93 -177 -93zM260 571l-10 45c31 7 54 19 54 44c0 27 -26 42 -82 45l6 64c100 -3 151 -40 151 -101s-56 -88 -119 -97z" />
    <glyph glyph-name="uhorn" unicode="&#x1b0;" 
d="M240 -12c-115 0 -167 70 -167 198v303h99v-290c0 -86 28 -126 102 -126c51 0 89 23 137 81v335h21c46 5 87 26 87 95c0 21 -5 44 -15 60l75 34c15 -23 25 -55 25 -87c0 -76 -45 -115 -94 -134v-457h-81l-8 81h-4c-48 -55 -103 -93 -177 -93z" />
    <glyph glyph-name="uni1EE9" unicode="&#x1ee9;" 
d="M240 -12c-115 0 -167 70 -167 198v303h99v-290c0 -86 28 -126 102 -126c51 0 89 23 137 81v335h21c46 5 87 26 87 95c0 21 -5 44 -15 60l75 34c15 -23 25 -55 25 -87c0 -76 -45 -115 -94 -134v-457h-81l-8 81h-4c-48 -55 -103 -93 -177 -93zM278 566l-51 49l145 172
l69 -67z" />
    <glyph glyph-name="uni1EEB" unicode="&#x1eeb;" 
d="M240 -12c-115 0 -167 70 -167 198v303h99v-290c0 -86 28 -126 102 -126c51 0 89 23 137 81v335h21c46 5 87 26 87 95c0 21 -5 44 -15 60l75 34c15 -23 25 -55 25 -87c0 -76 -45 -115 -94 -134v-457h-81l-8 81h-4c-48 -55 -103 -93 -177 -93zM312 566l-163 154l69 67
l145 -172z" />
    <glyph glyph-name="uni1EED" unicode="&#x1eed;" 
d="M240 -12c-115 0 -167 70 -167 198v303h99v-290c0 -86 28 -126 102 -126c51 0 89 23 137 81v335h21c46 5 87 26 87 95c0 21 -5 44 -15 60l75 34c15 -23 25 -55 25 -87c0 -76 -45 -115 -94 -134v-457h-81l-8 81h-4c-48 -55 -103 -93 -177 -93zM260 571l-10 45
c31 7 54 19 54 44c0 27 -26 42 -82 45l6 64c100 -3 151 -40 151 -101s-56 -88 -119 -97z" />
    <glyph glyph-name="uni1EEF" unicode="&#x1eef;" 
d="M240 -12c-115 0 -167 70 -167 198v303h99v-290c0 -86 28 -126 102 -126c51 0 89 23 137 81v335h21c46 5 87 26 87 95c0 21 -5 44 -15 60l75 34c15 -23 25 -55 25 -87c0 -76 -45 -115 -94 -134v-457h-81l-8 81h-4c-48 -55 -103 -93 -177 -93zM356 576
c-69 0 -98 79 -140 79c-28 0 -41 -28 -44 -73l-64 4c3 84 35 139 107 139c68 0 97 -78 140 -78c27 0 40 28 43 73l64 -4c-3 -84 -35 -140 -106 -140z" />
    <glyph glyph-name="uni1EF1" unicode="&#x1ef1;" 
d="M240 -12c-115 0 -167 70 -167 198v303h99v-290c0 -86 28 -126 102 -126c51 0 89 23 137 81v335h21c46 5 87 26 87 95c0 21 -5 44 -15 60l75 34c15 -23 25 -55 25 -87c0 -76 -45 -115 -94 -134v-457h-81l-8 81h-4c-48 -55 -103 -93 -177 -93zM309 -223
c-42 0 -74 28 -74 71c0 42 32 71 74 71s74 -29 74 -71c0 -43 -32 -71 -74 -71z" />
    <glyph glyph-name="uni1E7F" unicode="&#x1e7f;" 
d="M246 0l-200 489h100l103 -266c19 -49 35 -97 52 -145h4c17 48 32 96 51 145l103 266h95l-196 -489h-112zM300 -223c-42 0 -74 28 -74 71c0 42 32 71 74 71s74 -29 74 -71c0 -43 -32 -71 -74 -71z" />
    <glyph glyph-name="wgrave" unicode="&#x1e81;" 
d="M107 0l-100 489h98l50 -269c9 -47 15 -90 21 -137h4c6 47 16 91 26 137l53 229h88l52 -229c10 -47 22 -90 28 -137h4c8 47 12 90 20 137l50 269h92l-97 -489h-123l-48 214c-8 36 -16 84 -23 144h-4c-7 -56 -14 -103 -22 -144l-47 -214h-122zM317 566l-163 154l69 67
l145 -172z" />
    <glyph glyph-name="wacute" unicode="&#x1e83;" 
d="M107 0l-100 489h98l50 -269c9 -47 15 -90 21 -137h4c6 47 16 91 26 137l53 229h88l52 -229c10 -47 22 -90 28 -137h4c8 47 12 90 20 137l50 269h92l-97 -489h-123l-48 214c-8 36 -16 84 -23 144h-4c-7 -56 -14 -103 -22 -144l-47 -214h-122zM283 566l-51 49l145 172
l69 -67z" />
    <glyph glyph-name="wcircumflex" unicode="&#x175;" 
d="M107 0l-100 489h98l50 -269c9 -47 15 -90 21 -137h4c6 47 16 91 26 137l53 229h88l52 -229c10 -47 22 -90 28 -137h4c8 47 12 90 20 137l50 269h92l-97 -489h-123l-48 214c-8 36 -16 84 -23 144h-4c-7 -56 -14 -103 -22 -144l-47 -214h-122zM178 566l-40 38l112 137h100
l112 -137l-40 -38l-120 108h-4z" />
    <glyph glyph-name="wdieresis" unicode="&#x1e85;" 
d="M107 0l-100 489h98l50 -269c9 -47 15 -90 21 -137h4c6 47 16 91 26 137l53 229h88l52 -229c10 -47 22 -90 28 -137h4c8 47 12 90 20 137l50 269h92l-97 -489h-123l-48 214c-8 36 -16 84 -23 144h-4c-7 -56 -14 -103 -22 -144l-47 -214h-122zM199 584c-36 0 -61 27 -61 62
s25 62 61 62s62 -27 62 -62s-26 -62 -62 -62zM401 584c-36 0 -62 27 -62 62s26 62 62 62s61 -27 61 -62s-25 -62 -61 -62z" />
    <glyph glyph-name="ygrave" unicode="&#x1ef3;" 
d="M134 -205c-24 0 -49 4 -67 10l20 77c12 -4 27 -7 42 -7c65 0 104 40 126 94l13 34l-223 486h99l110 -255c18 -44 37 -95 57 -143h4c16 47 34 98 50 143l97 255h94l-209 -520c-39 -104 -99 -174 -213 -174zM322 566l-163 154l69 67l145 -172z" />
    <glyph glyph-name="yacute" unicode="&#xfd;" 
d="M134 -205c-24 0 -49 4 -67 10l20 77c12 -4 27 -7 42 -7c65 0 104 40 126 94l13 34l-223 486h99l110 -255c18 -44 37 -95 57 -143h4c16 47 34 98 50 143l97 255h94l-209 -520c-39 -104 -99 -174 -213 -174zM288 566l-51 49l145 172l69 -67z" />
    <glyph glyph-name="ycircumflex" unicode="&#x177;" 
d="M134 -205c-24 0 -49 4 -67 10l20 77c12 -4 27 -7 42 -7c65 0 104 40 126 94l13 34l-223 486h99l110 -255c18 -44 37 -95 57 -143h4c16 47 34 98 50 143l97 255h94l-209 -520c-39 -104 -99 -174 -213 -174zM183 566l-40 38l112 137h100l112 -137l-40 -38l-120 108h-4z" />
    <glyph glyph-name="ydieresis" unicode="&#xff;" 
d="M134 -205c-24 0 -49 4 -67 10l20 77c12 -4 27 -7 42 -7c65 0 104 40 126 94l13 34l-223 486h99l110 -255c18 -44 37 -95 57 -143h4c16 47 34 98 50 143l97 255h94l-209 -520c-39 -104 -99 -174 -213 -174zM204 584c-36 0 -61 27 -61 62s25 62 61 62s62 -27 62 -62
s-26 -62 -62 -62zM406 584c-36 0 -62 27 -62 62s26 62 62 62s61 -27 61 -62s-25 -62 -61 -62z" />
    <glyph glyph-name="uni1E8F" unicode="&#x1e8f;" 
d="M134 -205c-24 0 -49 4 -67 10l20 77c12 -4 27 -7 42 -7c65 0 104 40 126 94l13 34l-223 486h99l110 -255c18 -44 37 -95 57 -143h4c16 47 34 98 50 143l97 255h94l-209 -520c-39 -104 -99 -174 -213 -174zM305 584c-42 0 -74 28 -74 71c0 42 32 71 74 71s74 -29 74 -71
c0 -43 -32 -71 -74 -71z" />
    <glyph glyph-name="uni1EF5" unicode="&#x1ef5;" 
d="M134 -205c-24 0 -49 4 -67 10l20 77c12 -4 27 -7 42 -7c65 0 104 40 126 94l13 34l-223 486h99l110 -255c18 -44 37 -95 57 -143h4c16 47 34 98 50 143l97 255h94l-209 -520c-39 -104 -99 -174 -213 -174zM466 -218c-42 0 -74 28 -74 71c0 42 32 71 74 71s74 -29 74 -71
c0 -43 -32 -71 -74 -71z" />
    <glyph glyph-name="uni1EF7" unicode="&#x1ef7;" 
d="M134 -205c-24 0 -49 4 -67 10l20 77c12 -4 27 -7 42 -7c65 0 104 40 126 94l13 34l-223 486h99l110 -255c18 -44 37 -95 57 -143h4c16 47 34 98 50 143l97 255h94l-209 -520c-39 -104 -99 -174 -213 -174zM270 571l-10 45c31 7 54 19 54 44c0 27 -26 42 -82 45l6 64
c100 -3 151 -40 151 -101s-56 -88 -119 -97z" />
    <glyph glyph-name="uni1EF9" unicode="&#x1ef9;" 
d="M134 -205c-24 0 -49 4 -67 10l20 77c12 -4 27 -7 42 -7c65 0 104 40 126 94l13 34l-223 486h99l110 -255c18 -44 37 -95 57 -143h4c16 47 34 98 50 143l97 255h94l-209 -520c-39 -104 -99 -174 -213 -174zM376 576c-69 0 -98 79 -140 79c-28 0 -41 -28 -44 -73l-64 4
c3 84 35 139 107 139c68 0 97 -78 140 -78c27 0 40 28 43 73l64 -4c-3 -84 -35 -140 -106 -140z" />
    <glyph glyph-name="zacute" unicode="&#x17a;" 
d="M71 0v53l313 356h-278v80h419v-53l-315 -356h324v-80h-463zM307 566l-51 49l145 172l69 -67z" />
    <glyph glyph-name="zcaron" unicode="&#x17e;" 
d="M71 0v53l313 356h-278v80h419v-53l-315 -356h324v-80h-463zM274 575l-112 137l40 38l120 -108h4l120 108l40 -38l-112 -137h-100z" />
    <glyph glyph-name="zdotaccent" unicode="&#x17c;" 
d="M71 0v53l313 356h-278v80h419v-53l-315 -356h324v-80h-463zM324 584c-42 0 -74 28 -74 71c0 42 32 71 74 71s74 -29 74 -71c0 -43 -32 -71 -74 -71z" />
    <glyph glyph-name="uni1E91" unicode="&#x1e91;" 
d="M71 0v53l313 356h-278v80h419v-53l-315 -356h324v-80h-463zM202 566l-40 38l112 137h100l112 -137l-40 -38l-120 108h-4z" />
    <glyph glyph-name="uni1E93" unicode="&#x1e93;" 
d="M71 0v53l313 356h-278v80h419v-53l-315 -356h324v-80h-463zM313 -223c-42 0 -74 28 -74 71c0 42 32 71 74 71s74 -29 74 -71c0 -43 -32 -71 -74 -71z" />
    <glyph glyph-name="uni1E95" unicode="&#x1e95;" 
d="M71 0v53l313 356h-278v80h419v-53l-315 -356h324v-80h-463zM176 -176v67h274v-67h-274z" />
    <glyph glyph-name="eth" unicode="&#xf0;" 
d="M297 -12c-128 0 -240 90 -240 235c0 138 98 226 226 226c59 0 116 -27 151 -75c-18 82 -56 142 -111 192l-151 -77l-33 56l128 65c-33 21 -70 42 -110 61l45 62c51 -24 100 -51 144 -83l137 69l32 -54l-116 -60c85 -80 141 -189 141 -346c0 -160 -93 -271 -243 -271z
M300 69c96 0 146 74 146 186c0 14 0 28 -1 41c-43 56 -96 77 -146 77c-97 0 -151 -61 -151 -150c0 -94 69 -154 152 -154z" />
    <glyph glyph-name="thorn" unicode="&#xfe;" 
d="M88 -200v909h99v-194l-4 -84h3c43 42 100 70 155 70c129 0 203 -98 203 -249c0 -167 -107 -264 -220 -264c-48 0 -99 24 -138 60h-3l4 -88v-160h-99zM305 70c76 0 137 65 137 181c0 102 -38 167 -127 167c-40 0 -84 -20 -128 -66v-231c40 -37 86 -51 118 -51z" />
    <glyph glyph-name="eng" unicode="&#x14b;" 
d="M383 -184c-34 0 -61 7 -79 14l19 75c13 -5 29 -9 47 -9c46 0 58 35 58 96v298c0 85 -28 125 -102 125c-52 0 -89 -26 -139 -78v-337h-99v489h81l8 -79h4c49 51 104 91 180 91c114 0 166 -71 166 -198v-310c0 -105 -40 -177 -144 -177z" />
    <glyph glyph-name="uni0237" unicode="&#x237;" 
d="M194 -212c-53 0 -103 14 -142 33l31 73c36 -17 73 -26 108 -26c90 0 115 45 115 125v416h-219v80h318v-490c0 -120 -48 -211 -211 -211z" />
    <glyph glyph-name="ij" unicode="&#x133;" 
d="M103 0v489h99v-489h-99zM153 582c-38 0 -67 25 -67 63s29 63 67 63c39 0 67 -25 67 -63s-28 -63 -67 -63zM367 -212c-32 0 -57 6 -75 13l19 75c13 -4 28 -8 44 -8c46 0 58 33 58 91v530h99v-529c0 -102 -38 -172 -145 -172zM463 582c-38 0 -67 25 -67 63s29 63 67 63
c39 0 67 -25 67 -63s-28 -63 -67 -63z" />
    <glyph glyph-name="uni006C00B7006C" 
d="M231 -12c-92 0 -141 65 -141 183v459h-103v79h193v-544c0 -69 26 -96 64 -96c13 0 25 6 45 14l24 -74c-29 -10 -49 -21 -82 -21zM292 278c-43 0 -76 32 -76 82c0 49 33 79 76 79c44 0 78 -30 78 -79c0 -50 -34 -82 -78 -82zM541 -12c-91 0 -140 65 -140 183v459h-103v79
h193v-544c0 -69 26 -96 64 -96c14 0 26 6 45 14l24 -74c-29 -10 -49 -21 -83 -21z" />
    <glyph glyph-name="uni01330301" 
d="M103 0v489h99v-489h-99zM367 -212c-32 0 -57 6 -75 13l19 75c13 -4 28 -8 44 -8c46 0 58 33 58 91v530h99v-529c0 -102 -38 -172 -145 -172zM127 566l-51 49l145 172l69 -67zM437 566l-51 49l145 172l69 -67z" />
    <glyph glyph-name="uni0250" unicode="&#x250;" 
d="M293 -12c-134 0 -204 77 -204 206v295h81l8 -64h3c53 41 120 76 187 76c94 0 165 -55 165 -141c0 -110 -99 -164 -345 -182c3 -61 36 -110 122 -110c60 0 118 28 166 56l37 -67c-54 -34 -135 -69 -220 -69zM188 241c192 14 249 53 249 111c0 49 -44 70 -97 70
c-52 0 -102 -25 -152 -66v-115z" />
    <glyph glyph-name="uni0252" unicode="&#x252;" 
d="M324 -12c-47 0 -102 24 -146 66h-3l-9 -54h-78v489h81l8 -61h3c39 40 100 73 163 73c128 0 201 -98 201 -248c0 -168 -104 -265 -220 -265zM305 70c77 0 137 65 137 177c0 106 -40 171 -128 171c-44 0 -89 -21 -127 -66v-231c41 -37 85 -51 118 -51z" />
    <glyph glyph-name="uni0253" unicode="&#x253;" 
d="M325 -12c-47 0 -103 24 -147 66h-3l-9 -54h-78v527c0 112 59 194 189 194c37 0 73 -10 98 -20l-21 -74c-22 9 -45 15 -66 15c-68 0 -98 -40 -101 -110l-5 -111h4c43 43 101 70 156 70c128 0 201 -96 201 -244c0 -164 -104 -259 -218 -259zM306 70c77 0 135 64 135 176
c0 99 -38 163 -125 163c-40 0 -85 -20 -129 -66v-222c41 -37 87 -51 119 -51z" />
    <glyph glyph-name="uni0254" unicode="&#x254;" 
d="M256 -12c-74 0 -144 27 -198 75l44 64c37 -32 86 -58 144 -58c104 0 176 70 176 175s-71 175 -166 175c-54 0 -98 -18 -139 -51l-49 63c42 39 107 70 194 70c141 0 262 -94 262 -257c0 -162 -118 -256 -268 -256z" />
    <glyph glyph-name="uni0255" unicode="&#x255;" 
d="M363 66c67 0 103 23 103 53c0 23 -17 39 -58 39c-35 0 -82 -29 -124 -78c24 -9 50 -14 79 -14zM187 -100l-79 33c16 43 35 82 57 117c-55 44 -89 110 -89 194c0 163 127 257 271 257c82 0 142 -29 184 -70l-47 -61c-37 34 -80 53 -132 53c-101 0 -178 -71 -178 -179
c0 -51 17 -93 45 -123c63 69 135 106 196 106c81 0 127 -42 127 -107c0 -73 -62 -132 -182 -132c-45 0 -88 8 -126 22c-19 -32 -35 -70 -47 -110z" />
    <glyph glyph-name="uni0256" unicode="&#x256;" 
d="M545 -174c-90 0 -132 56 -132 140l2 91h-3c-36 -39 -90 -69 -147 -69c-125 0 -209 94 -209 256c0 159 106 257 218 257c57 0 99 -23 138 -61h3l-5 87v182h99v-720c0 -54 12 -84 49 -84c12 0 24 4 34 8l19 -74c-15 -7 -38 -13 -66 -13zM289 70c43 0 83 22 121 66v232
c-39 37 -79 50 -117 50c-73 0 -135 -67 -135 -173c0 -112 50 -175 131 -175z" />
    <glyph glyph-name="uni0257" unicode="&#x257;" 
d="M265 -12c-126 0 -209 94 -209 256c0 159 105 257 217 257c55 0 98 -22 138 -61h3l-2 87v47c0 89 43 148 141 148c26 0 44 -4 60 -10l-19 -74c-9 3 -17 5 -28 5c-43 0 -58 -32 -58 -87v-556h-81l-8 60h-3c-38 -39 -94 -72 -151 -72zM288 70c43 0 83 22 121 66v232
c-39 37 -79 50 -117 50c-73 0 -134 -67 -134 -173c0 -112 49 -175 130 -175z" />
    <glyph glyph-name="uni0258" unicode="&#x258;" 
d="M289 423c-76 0 -132 -45 -140 -134h286c-15 87 -73 134 -146 134zM270 -12c-75 0 -139 25 -189 57l34 63c44 -26 89 -42 143 -42c95 0 167 49 178 150h-372c-2 12 -3 35 -3 54c0 136 92 231 235 231c129 0 239 -98 239 -258s-118 -255 -265 -255z" />
    <glyph glyph-name="uni0251" unicode="&#x251;" 
d="M266 -12c-125 0 -210 94 -210 256c0 159 105 257 221 257c55 0 101 -22 145 -65h3l9 53h78v-489h-81l-8 60h-3c-39 -39 -96 -72 -154 -72zM290 70c44 0 85 22 123 66v232c-39 37 -77 50 -116 50c-76 0 -139 -67 -139 -173c0 -112 49 -175 132 -175z" />
    <glyph glyph-name="uni0299" unicode="&#x299;" 
d="M114 0v489h227c113 0 195 -35 195 -125c0 -51 -31 -88 -85 -104v-3c58 -15 105 -48 105 -117c0 -98 -88 -140 -206 -140h-236zM211 289h118c79 0 111 24 111 65s-32 60 -107 60h-122v-125zM211 75h131c80 0 116 23 116 71c0 44 -40 70 -121 70h-126v-141z" />
    <glyph glyph-name="uni0259" unicode="&#x259;" 
d="M295 -12c-148 0 -230 99 -230 237c0 20 3 42 5 54h371c-12 97 -73 144 -166 144c-55 0 -100 -16 -144 -43l-35 63c51 33 115 58 191 58c147 0 252 -96 252 -256c0 -162 -110 -257 -244 -257zM293 66c80 0 136 47 148 140h-287c7 -93 57 -140 139 -140z" />
    <glyph glyph-name="uni025A" unicode="&#x25a;" 
d="M213 -12c-125 0 -187 96 -196 214l292 129c-22 67 -64 93 -116 93c-48 0 -80 -16 -114 -39l-34 66c45 31 95 50 156 50c91 0 160 -47 194 -132l73 33l49 -20c5 -75 20 -92 48 -92c13 0 24 7 33 14l24 -50c-16 -12 -37 -25 -64 -25c-40 0 -82 21 -97 94l-49 -21
c3 -20 5 -42 5 -65c0 -145 -81 -249 -204 -249zM212 65c67 0 112 60 112 151c0 17 -1 32 -2 46l-220 -96c17 -74 59 -101 110 -101z" />
    <glyph glyph-name="uni025B" unicode="&#x25b;" 
d="M318 -12c-137 0 -232 53 -232 149c0 68 48 103 114 120v4c-57 21 -90 61 -90 107c0 91 91 133 218 133c79 0 145 -24 199 -61l-38 -64c-47 30 -94 47 -156 47c-83 0 -125 -23 -125 -68c0 -44 46 -66 135 -66h56v-73h-70c-95 0 -145 -20 -145 -70c0 -52 52 -80 151 -80
c62 0 116 17 161 56l42 -64c-61 -52 -129 -70 -220 -70z" />
    <glyph glyph-name="uni025C" unicode="&#x25c;" 
d="M280 -12c-80 0 -150 17 -222 73l42 64c56 -44 114 -59 171 -59c99 0 151 28 151 79c0 50 -47 71 -135 71h-93v73h82c83 0 125 24 125 68s-42 66 -129 66c-67 0 -112 -16 -163 -52l-39 65c58 42 125 65 208 65c129 0 219 -43 219 -134c0 -46 -27 -86 -87 -107v-4
c68 -17 110 -51 110 -120c0 -95 -99 -148 -240 -148z" />
    <glyph glyph-name="uni025E" unicode="&#x25e;" 
d="M324 -12c-152 0 -267 87 -267 255c0 170 126 258 262 258c110 0 196 -42 196 -134c0 -47 -28 -90 -84 -107v-4c61 -13 108 -52 108 -120c0 -95 -86 -148 -215 -148zM326 66c73 0 115 28 115 79c0 48 -47 71 -113 71h-34v73h28c61 0 98 25 98 66c0 45 -38 68 -97 68
c-95 0 -166 -64 -166 -180c0 -120 65 -177 169 -177z" />
    <glyph glyph-name="uni025F" unicode="&#x25f;" 
d="M194 -212c-53 0 -103 14 -142 33l31 73c36 -17 73 -26 108 -26c90 0 115 45 115 125v208h-188v63l188 6v139h-219v80h318v-219h158v-69h-158v-202c0 -120 -48 -211 -211 -211z" />
    <glyph glyph-name="uni0260" unicode="&#x260;" 
d="M276 -211c-61 0 -130 19 -185 54l36 68c48 -30 103 -43 149 -43c88 0 132 46 134 116l4 88h-3c-36 -37 -90 -65 -146 -65c-125 0 -208 94 -208 245c0 152 107 249 219 249c55 0 98 -24 135 -61h3l-2 45c0 85 43 150 142 150c26 0 44 -4 60 -10l-19 -74c-8 3 -18 5 -28 5
c-43 0 -58 -34 -58 -87v-486c0 -122 -86 -194 -233 -194zM289 88c43 0 82 22 121 67v213c-39 37 -79 50 -117 50c-74 0 -135 -66 -135 -165c0 -102 50 -165 131 -165z" />
    <glyph glyph-name="uni0261" unicode="&#x261;" 
d="M277 -212c-61 0 -132 17 -186 52l35 70c49 -30 105 -43 151 -43c88 0 136 47 139 117l3 88h-3c-37 -37 -93 -65 -150 -65c-125 0 -210 94 -210 245c0 152 104 249 221 249c56 0 104 -24 145 -65h3l9 53h78v-499c0 -125 -84 -202 -235 -202zM290 88c43 0 84 22 123 67v213
c-39 37 -77 50 -117 50c-74 0 -139 -66 -139 -165c0 -102 52 -165 133 -165z" />
    <glyph glyph-name="uni0262" unicode="&#x262;" 
d="M338 -12c-144 0 -264 88 -264 256c0 161 126 257 269 257c87 0 141 -32 183 -69l-47 -61c-35 28 -70 52 -130 52c-93 0 -174 -63 -174 -179c0 -112 71 -178 168 -178c39 0 73 12 98 32v104h-123v69h210v-214c-42 -40 -111 -69 -190 -69z" />
    <glyph glyph-name="uni0263" unicode="&#x263;" 
d="M302 -220c-80 0 -127 50 -127 125c0 47 26 87 63 156l-192 428h101l104 -256c18 -45 31 -76 49 -121h4c19 45 32 76 50 121l104 256h96l-187 -427c37 -69 63 -110 63 -157c0 -75 -47 -125 -128 -125zM302 -154c30 0 45 24 45 57c0 32 -18 67 -43 112h-5
c-24 -45 -41 -83 -41 -112c0 -33 16 -57 44 -57z" />
    <glyph glyph-name="uni0264" unicode="&#x264;" 
d="M300 -12c-116 0 -190 64 -190 172c0 70 50 137 122 199c-37 41 -67 60 -102 60c-18 0 -35 -5 -47 -14l-30 72c21 15 57 24 90 24c54 0 105 -30 157 -86c52 56 103 86 157 86c33 0 69 -9 90 -24l-30 -72c-12 9 -29 14 -47 14c-36 0 -65 -19 -102 -60
c71 -62 122 -129 122 -199c0 -108 -74 -172 -190 -172zM300 69c59 0 95 39 95 94c0 52 -39 102 -95 150c-56 -48 -95 -98 -95 -150c0 -55 36 -94 95 -94z" />
    <glyph glyph-name="uni0265" unicode="&#x265;" 
d="M413 -200v168l6 110c-49 -50 -104 -90 -180 -90c-114 0 -166 70 -166 198v303h99v-290c0 -86 28 -126 102 -126c52 0 89 27 139 78v338h99v-689h-99z" />
    <glyph glyph-name="uni0266" unicode="&#x266;" 
d="M88 0v527c0 112 59 194 189 194c37 0 73 -10 98 -20l-21 -74c-22 9 -45 15 -66 15c-68 0 -98 -40 -101 -110l-7 -131h4c46 50 102 90 177 90c114 0 166 -70 166 -198v-293h-99v280c0 86 -28 126 -102 126c-52 0 -89 -27 -139 -78v-328h-99z" />
    <glyph glyph-name="uni0267" unicode="&#x267;" 
d="M378 -184c-34 0 -62 7 -81 14l19 75c14 -5 31 -9 49 -9c51 0 63 35 63 96v288c0 86 -28 126 -102 126c-52 0 -89 -27 -139 -78v-328h-99v527c0 112 59 194 189 194c37 0 72 -10 98 -20l-21 -74c-22 9 -45 15 -66 15c-68 0 -98 -40 -101 -110l-7 -131h4
c46 50 102 90 177 90c114 0 166 -70 166 -198v-300c0 -105 -39 -177 -149 -177z" />
    <glyph glyph-name="uni029C" unicode="&#x29c;" 
d="M88 0v489h99v-193h226v193h99v-489h-99v209h-226v-209h-99z" />
    <glyph glyph-name="uni0268" unicode="&#x268;" 
d="M128 204v60l178 6v139h-219v80h318v-219h158v-66h-158v-204h-99v204h-178zM347 584c-42 0 -74 28 -74 71c0 42 32 71 74 71s74 -29 74 -71c0 -43 -32 -71 -74 -71z" />
    <glyph glyph-name="uni026A" unicode="&#x26a;" 
d="M84 0v80h166v329h-166v80h432v-80h-167v-329h167v-80h-432z" />
    <glyph glyph-name="uni029D" unicode="&#x29d;" 
d="M417 -245c-19 38 -39 69 -59 95c-33 -39 -85 -62 -156 -62c-98 0 -154 55 -154 121c0 65 49 108 139 108c38 0 79 -8 119 -27v419h-219v80h318v-498c0 -23 -3 -44 -8 -64c35 -34 68 -78 97 -136zM200 -134c50 0 79 19 93 47c-35 24 -72 35 -107 35c-42 0 -60 -16 -60 -38
c0 -24 25 -44 74 -44zM347 584c-42 0 -74 28 -74 71c0 42 32 71 74 71s74 -29 74 -71c0 -43 -32 -71 -74 -71z" />
    <glyph glyph-name="uni029E" unicode="&#x29e;" 
d="M403 -200v442h-4l-257 -242h-118l216 204l-192 285h102l151 -227l102 96v131h99v-689h-99z" />
    <glyph glyph-name="uni026B" unicode="&#x26b;" 
d="M404 -12c-109 0 -168 65 -168 183v202c-14 8 -27 13 -42 13c-27 0 -40 -28 -43 -71l-65 12c4 77 34 130 100 130c19 0 35 -3 50 -9v182h-168v79h267v-319c13 -7 27 -12 41 -12c27 0 40 28 43 71l65 -12c-4 -76 -34 -130 -99 -130c-19 0 -35 3 -50 9v-151
c0 -68 38 -96 92 -96c27 0 55 7 88 21l24 -74c-47 -18 -80 -28 -135 -28z" />
    <glyph glyph-name="uni026C" unicode="&#x26c;" 
d="M223 295c-112 0 -156 44 -156 106c0 52 40 90 94 90c34 0 58 -12 75 -29v168h-168v79h267v-347h138v-67h-138v-130c0 -68 38 -96 92 -96c27 0 55 7 88 21l24 -74c-47 -18 -80 -28 -135 -28c-109 0 -168 65 -168 183v124h-13zM205 362h31v6c0 28 -20 61 -68 61
c-18 0 -31 -12 -31 -31c0 -22 22 -36 68 -36z" />
    <glyph glyph-name="uni026D" unicode="&#x26d;" 
d="M403 -184c-109 0 -167 65 -167 183v631h-168v79h267v-716c0 -68 38 -95 92 -95c26 0 53 6 88 20l24 -74c-46 -15 -80 -28 -136 -28z" />
    <glyph glyph-name="uni026E" unicode="&#x26e;" 
d="M361 -212c-99 0 -161 38 -204 79l47 63c35 -33 79 -60 147 -60c71 0 127 53 127 137c0 77 -47 122 -123 122c-32 0 -45 -4 -67 -14l-38 51l184 243h-266v-409h-99v709h99v-220h388v-53l-180 -237c133 5 202 -83 202 -189c0 -142 -103 -222 -217 -222z" />
    <glyph glyph-name="uni029F" unicode="&#x29f;" 
d="M141 0v489h99v-409h293v-80h-392z" />
    <glyph glyph-name="uni026F" unicode="&#x26f;" 
d="M548 489v-489h-78l-8 64h-2c-23 -44 -54 -76 -110 -76c-47 0 -77 28 -90 84c-26 -50 -57 -84 -113 -84c-69 0 -109 55 -109 153v348h97v-341c0 -49 14 -75 45 -75c30 0 47 23 70 68v348h86v-341c0 -49 13 -75 44 -75c30 0 50 23 71 68v348h97z" />
    <glyph glyph-name="uni0270" unicode="&#x270;" 
d="M454 -200v167l7 99h-4c-24 -47 -52 -78 -107 -78c-47 0 -77 28 -91 83c-25 -50 -56 -83 -112 -83c-69 0 -109 55 -109 153v348h97v-341c0 -50 14 -75 45 -75c30 0 47 23 70 68v348h86v-341c0 -50 13 -75 44 -75c30 0 50 23 71 68v348h97v-689h-94z" />
    <glyph glyph-name="uni0271" unicode="&#x271;" 
d="M432 -184c-28 0 -52 5 -68 12l18 75c11 -4 24 -7 38 -7c38 0 45 31 45 81v364c0 49 -14 75 -45 75c-30 0 -47 -23 -70 -68v-348h-86v341c0 49 -13 75 -44 75c-30 0 -50 -23 -71 -68v-348h-97v489h78l8 -64h2c23 44 53 76 110 76c47 0 77 -28 90 -84c26 50 57 84 113 84
c69 0 109 -55 109 -153v-375c0 -94 -36 -157 -130 -157z" />
    <glyph glyph-name="uni0272" unicode="&#x272;" 
d="M58 -184c-28 0 -51 6 -66 13l19 75c10 -4 22 -8 34 -8c37 0 48 29 48 83v510h82l8 -79h4c49 51 102 91 175 91c114 0 165 -71 165 -198v-303h-99v290c0 89 -29 125 -98 125c-52 0 -87 -26 -138 -78v-357c0 -98 -34 -164 -134 -164z" />
    <glyph glyph-name="uni0273" unicode="&#x273;" 
d="M557 -184c-100 0 -134 66 -134 164v310c0 89 -30 125 -99 125c-52 0 -87 -26 -137 -78v-337h-99v489h81l8 -79h4c49 51 102 91 175 91c114 0 166 -71 166 -198v-324c0 -54 11 -83 48 -83c12 0 24 4 34 8l19 -75c-15 -7 -38 -13 -66 -13z" />
    <glyph glyph-name="uni0274" unicode="&#x274;" 
d="M90 0v489h94l174 -258c19 -30 44 -74 64 -104h3c-4 62 -9 125 -9 176v186h94v-489h-94l-174 258c-19 29 -45 73 -64 104h-4c5 -63 10 -125 10 -177v-185h-94z" />
    <glyph glyph-name="uni0275" unicode="&#x275;" 
d="M300 -12c-130 0 -243 88 -243 255c0 170 113 258 243 258s243 -88 243 -258c0 -167 -113 -255 -243 -255zM300 425c-77 0 -132 -49 -146 -136h292c-14 87 -69 136 -146 136zM300 65c83 0 140 55 149 151h-298c9 -96 66 -151 149 -151z" />
    <glyph glyph-name="uni0276" unicode="&#x276;" 
d="M239 -12c-112 0 -210 87 -210 256s98 257 210 257c33 0 59 -3 100 -12h240v-81h-182v-119h146v-73h-146v-136h192v-80h-250c-39 -9 -67 -12 -100 -12zM247 68c19 0 41 5 60 10v331c-18 5 -40 11 -60 11c-64 0 -116 -56 -116 -176c0 -124 52 -176 116 -176z" />
    <glyph glyph-name="uni0278" unicode="&#x278;" 
d="M135 245c0 -107 50 -170 119 -176v351c-69 -6 -119 -69 -119 -175zM465 245c0 106 -50 169 -119 175v-351c69 6 119 69 119 176zM254 -200v192c-115 8 -215 97 -215 253s100 244 215 252v212h92v-212c115 -8 215 -96 215 -252s-100 -245 -215 -253v-192h-92z" />
    <glyph glyph-name="uni0279" unicode="&#x279;" 
d="M462 489v-489h-82l-8 114h-3c-50 -79 -126 -126 -213 -126c-38 0 -66 6 -96 20l22 85c33 -11 52 -16 89 -16c70 0 138 36 192 134v278h99z" />
    <glyph glyph-name="uni027A" unicode="&#x27a;" 
d="M156 -12c-38 0 -66 6 -96 20l22 84c33 -11 52 -16 89 -16c70 0 138 36 192 135v498h99v-709h-82l-8 113h-3c-50 -79 -126 -125 -213 -125z" />
    <glyph glyph-name="uni027B" unicode="&#x27b;" 
d="M443 -184c-104 0 -140 63 -140 162v115h-3c-35 -66 -89 -105 -154 -105c-27 0 -56 5 -86 20l22 84c28 -11 45 -16 75 -16c47 0 102 30 136 117v296h99v-500c0 -66 16 -93 64 -93c17 0 38 6 53 13l22 -74c-22 -10 -54 -19 -88 -19z" />
    <glyph glyph-name="uni027D" unicode="&#x27d;" 
d="M332 -184c-145 0 -194 83 -194 206v467h82l8 -114h3c50 79 126 126 213 126c38 0 66 -6 96 -20l-22 -85c-33 11 -52 16 -89 16c-70 0 -138 -36 -192 -134v-257c0 -84 29 -125 118 -125c44 0 78 8 112 21l20 -73c-44 -15 -91 -28 -155 -28z" />
    <glyph glyph-name="uni027E" unicode="&#x27e;" 
d="M138 0v251c0 156 94 250 259 250c58 0 107 -8 143 -20l-22 -85c-43 14 -69 17 -110 17c-87 0 -171 -52 -171 -183v-230h-99z" />
    <glyph glyph-name="uni0280" unicode="&#x280;" 
d="M92 0v489h244c107 0 189 -38 189 -150c0 -82 -52 -128 -117 -147l142 -192h-111l-130 183h-117v-183h-100zM192 256h128c68 0 107 28 107 81c0 54 -39 75 -107 75h-128v-156z" />
    <glyph glyph-name="uni0281" unicode="&#x281;" 
d="M508 489v-489h-244c-107 0 -189 38 -189 150c0 82 52 128 117 147l-142 192h111l130 -183h117v183h100zM408 233h-128c-68 0 -107 -28 -107 -81c0 -54 39 -75 107 -75h128v156z" />
    <glyph glyph-name="uni0282" unicode="&#x282;" 
d="M201 -184c-96 0 -134 61 -134 172v76l44 64c57 -40 123 -64 208 -64c75 0 111 30 111 67c0 35 -20 56 -143 82c-129 27 -190 71 -190 145c0 82 73 143 209 143c77 0 151 -31 200 -64l-46 -62c-47 31 -103 50 -163 50c-74 0 -101 -28 -101 -62c0 -38 39 -54 134 -74
c160 -35 200 -76 200 -152c0 -82 -80 -149 -224 -149c-54 0 -106 12 -151 29v-43c0 -49 13 -80 59 -80c16 0 31 4 44 8l19 -73c-18 -7 -43 -13 -76 -13z" />
    <glyph glyph-name="uni0283" unicode="&#x283;" 
d="M186 -212c-56 0 -96 14 -134 33l31 71c29 -14 58 -24 90 -24c63 0 79 42 79 112v550c0 116 46 192 175 192c51 0 84 -13 119 -30l-26 -72c-29 14 -52 23 -81 23c-70 0 -88 -43 -88 -112v-550c0 -116 -43 -193 -165 -193z" />
    <glyph glyph-name="uni0284" unicode="&#x284;" 
d="M186 -212c-56 0 -96 14 -134 33l31 71c29 -14 58 -24 90 -24c63 0 79 42 79 112v242h-169v61l169 6v241c0 116 46 192 175 192c51 0 84 -13 119 -30l-26 -72c-29 14 -52 23 -81 23c-70 0 -88 -43 -88 -112v-242h167v-67h-167v-241c0 -116 -43 -193 -165 -193z" />
    <glyph glyph-name="uni0287" unicode="&#x287;" 
d="M208 501c145 0 194 -83 194 -205v-216h134v-75l-138 -5l-13 -155h-82v155h-231v80h231v216c0 84 -29 125 -118 125c-43 0 -78 -8 -112 -21l-20 73c44 15 92 28 155 28z" />
    <glyph glyph-name="uni0288" unicode="&#x288;" 
d="M392 -184c-145 0 -194 83 -194 206v387h-134v75l138 5l13 155h82v-155h231v-80h-231v-388c0 -84 29 -125 118 -125c43 0 79 8 112 21l20 -73c-44 -15 -100 -28 -155 -28z" />
    <glyph glyph-name="uni0289" unicode="&#x289;" 
d="M274 74c47 0 78 22 119 75v108h-203v-64c0 -85 25 -119 84 -119zM240 -12c-103 0 -149 69 -149 193v76h-92v61l92 6v165h99v-165h203v165h99v-165h98v-67h-98v-257h-82l-7 74h-2c-45 -53 -93 -86 -161 -86z" />
    <glyph glyph-name="uni028A" unicode="&#x28a;" 
d="M300 -12c-153 0 -241 108 -241 219c0 94 47 159 89 200v2h-101v80h202v-65c-52 -48 -90 -105 -90 -196c0 -86 48 -159 141 -159s141 73 141 159c0 91 -38 148 -90 196v65h202v-80h-101v-2c42 -41 89 -106 89 -200c0 -111 -88 -219 -241 -219z" />
    <glyph glyph-name="uni028B" unicode="&#x28b;" 
d="M297 -12c-130 0 -224 72 -224 228v273h99v-267c0 -109 56 -153 129 -153c90 0 141 89 141 211c0 94 -26 142 -80 142c-16 0 -20 -1 -32 -5l-14 76c19 5 35 8 66 8c97 0 162 -65 162 -206c0 -179 -84 -307 -247 -307z" />
    <glyph glyph-name="uni028C" unicode="&#x28c;" 
d="M354 489l200 -489h-100l-103 266c-19 49 -35 97 -52 145h-4c-17 -48 -32 -96 -51 -145l-103 -266h-95l196 489h112z" />
    <glyph glyph-name="uni028D" unicode="&#x28d;" 
d="M493 489l100 -489h-98l-50 269c-9 47 -15 90 -21 137h-4c-6 -47 -16 -91 -26 -137l-53 -229h-88l-52 229c-10 47 -22 90 -28 137h-4c-8 -47 -12 -90 -20 -137l-50 -269h-92l97 489h123l48 -214c8 -36 16 -84 23 -144h4c7 56 14 103 22 144l47 214h122z" />
    <glyph glyph-name="uni028E" unicode="&#x28e;" 
d="M44 0l220 545c39 104 96 176 206 176c24 0 48 -4 66 -10l-20 -77c-12 4 -26 7 -41 7c-61 0 -97 -42 -119 -96l-24 -59l223 -486h-99l-110 255c-18 44 -37 95 -57 142h-4c-16 -46 -34 -97 -50 -142l-97 -255h-94z" />
    <glyph glyph-name="uni028F" unicode="&#x28f;" 
d="M252 0v160l-201 329h106l77 -130c22 -44 44 -80 66 -126h4c22 46 42 82 66 126l76 130h105l-200 -329v-160h-99z" />
    <glyph glyph-name="uni0290" unicode="&#x290;" 
d="M558 -184c-100 0 -135 66 -135 154v30h-352v53l308 356h-273v80h413v-53l-309 -356h312v-101c0 -54 12 -83 49 -83c12 0 24 4 34 8l19 -75c-15 -7 -38 -13 -66 -13z" />
    <glyph glyph-name="uni0291" unicode="&#x291;" 
d="M358 -115l-65 11c7 38 14 72 22 104h-244v53l302 356h-267v80h394v-53l-301 -356c52 -1 97 -3 141 -4c37 98 88 150 149 150c56 0 95 -36 95 -95c0 -74 -53 -131 -162 -131h-41c-8 -33 -16 -71 -23 -115zM446 75c47 0 71 26 71 54c0 21 -13 32 -32 32
c-26 0 -54 -25 -79 -86h40z" />
    <glyph glyph-name="uni0292" unicode="&#x292;" 
d="M286 -212c-111 0 -178 46 -229 94l47 63c43 -40 94 -75 173 -75c84 0 152 55 152 141c0 80 -57 128 -155 128c-41 0 -56 -8 -92 -24l-37 52l237 242h-287v80h412v-53l-221 -233c10 2 20 3 30 3c132 0 213 -80 213 -192c0 -145 -116 -226 -243 -226z" />
    <glyph glyph-name="uni02A4" unicode="&#x2a4;" 
d="M174 70c31 0 54 28 71 69v229c-19 32 -38 50 -66 50c-51 0 -87 -68 -87 -173c0 -110 29 -175 82 -175zM447 -212c-65 0 -106 24 -142 58l44 63c25 -24 51 -40 89 -40c50 0 86 45 86 138c0 79 -30 122 -82 122c-19 0 -28 -4 -45 -13l-36 60l137 233h-167v-409h-67l-8 54
h-3c-22 -36 -56 -66 -100 -66c-90 0 -155 96 -155 255c0 157 75 258 162 258c37 0 67 -21 88 -54h2l-5 93v169h86v-220h266v-53l-131 -232h2c94 -1 150 -87 150 -197c0 -135 -72 -219 -171 -219z" />
    <glyph glyph-name="uni02A6" unicode="&#x2a6;" 
d="M328 -12c-174 0 -236 70 -236 191v230h-71v75l75 5l12 155h83v-155h178c20 8 44 12 70 12c50 0 95 -18 131 -49l-36 -56c-30 22 -55 33 -87 33c-35 0 -57 -19 -57 -52c0 -81 185 -77 185 -240c0 -93 -64 -149 -247 -149zM336 64c113 0 150 29 150 74
c0 113 -190 105 -190 242c0 10 1 20 3 29h-108v-230c0 -82 40 -115 145 -115z" />
    <glyph glyph-name="uni02A7" unicode="&#x2a7;" 
d="M357 -212c-31 0 -56 6 -73 13l19 75c13 -4 28 -8 44 -8c42 0 53 33 53 91v450h-193v-252c0 -58 18 -89 65 -89c19 0 39 5 56 12l18 -74c-27 -9 -59 -18 -93 -18c-107 0 -145 69 -145 170v251h-71v75l75 5l13 155h82v-155h193v65c0 98 42 168 152 168c27 0 48 -6 64 -13
l-19 -74c-10 4 -22 8 -34 8c-51 0 -64 -33 -64 -92v-591c0 -102 -39 -172 -142 -172z" />
    <glyph glyph-name="uni0294" unicode="&#x294;" 
d="M230 0v312c131 75 184 123 184 204c0 76 -52 124 -141 124c-71 0 -122 -37 -156 -78l-51 63c45 50 113 96 215 96c128 0 233 -69 233 -202c0 -115 -76 -176 -185 -248v-271h-99z" />
    <glyph glyph-name="uni0295" unicode="&#x295;" 
d="M269 0v271c-109 72 -185 133 -185 248c0 133 105 202 233 202c102 0 171 -46 215 -96l-51 -63c-34 41 -85 78 -156 78c-89 0 -141 -48 -141 -124c0 -81 53 -129 184 -204v-312h-99z" />
    <glyph glyph-name="uni02A1" unicode="&#x2a1;" 
d="M230 0v248h-161v61l76 5h100c109 63 169 128 169 202c0 76 -50 124 -137 124c-72 0 -123 -38 -160 -78l-51 63c45 49 115 96 220 96c126 0 228 -68 228 -203c0 -89 -64 -153 -137 -204h147v-66h-195v-248h-99z" />
    <glyph glyph-name="uni02A2" unicode="&#x2a2;" 
d="M270 0v248h-194v61l76 5h70c-73 51 -137 115 -137 204c0 135 101 203 228 203c105 0 174 -47 221 -96l-52 -63c-36 40 -88 78 -160 78c-87 0 -138 -48 -138 -124c0 -74 61 -139 170 -202h176v-66h-161v-248h-99z" />
    <glyph glyph-name="uni01C2" unicode="&#x1c2;" 
d="M251 -200v348h-171v61l171 5v111h-171v61l171 4v319h98v-319h171v-65h-171v-111h171v-66h-171v-348h-98z" />
    <glyph glyph-name="uni0298" unicode="&#x298;" 
d="M300 -12c-146 0 -244 116 -244 369c0 240 98 364 244 364s244 -124 244 -364c0 -253 -98 -369 -244 -369zM300 69c84 0 151 74 151 288c0 199 -67 283 -151 283s-150 -84 -150 -283c0 -214 66 -288 150 -288zM300 292c-35 0 -65 28 -65 65c0 40 30 67 65 67
s65 -27 65 -67c0 -37 -30 -65 -65 -65z" />
    <glyph glyph-name="uni014A.a" 
d="M392 -169c-32 0 -57 6 -74 12l19 77c12 -4 26 -8 40 -8c40 0 49 36 49 88h-11l-191 389l-61 138h-3c4 -68 14 -143 14 -213v-314h-96v655h107l191 -389l61 -138h3c-4 66 -14 144 -14 215v312h96v-653c0 -102 -37 -171 -130 -171z" />
    <glyph glyph-name="a.a" 
d="M266 -12c-125 0 -210 94 -210 256c0 159 105 257 221 257c55 0 101 -22 145 -65h3l9 53h78v-489h-81l-8 60h-3c-39 -39 -96 -72 -154 -72zM290 70c44 0 85 22 123 66v232c-39 37 -77 50 -116 50c-76 0 -139 -67 -139 -173c0 -112 49 -175 132 -175z" />
    <glyph glyph-name="agrave.a" 
d="M266 -12c-125 0 -210 94 -210 256c0 159 105 257 221 257c55 0 101 -22 145 -65h3l9 53h78v-489h-81l-8 60h-3c-39 -39 -96 -72 -154 -72zM290 70c44 0 85 22 123 66v232c-39 37 -77 50 -116 50c-76 0 -139 -67 -139 -173c0 -112 49 -175 132 -175zM322 566l-163 154
l69 67l145 -172z" />
    <glyph glyph-name="aacute.a" 
d="M266 -12c-125 0 -210 94 -210 256c0 159 105 257 221 257c55 0 101 -22 145 -65h3l9 53h78v-489h-81l-8 60h-3c-39 -39 -96 -72 -154 -72zM290 70c44 0 85 22 123 66v232c-39 37 -77 50 -116 50c-76 0 -139 -67 -139 -173c0 -112 49 -175 132 -175zM288 566l-51 49
l145 172l69 -67z" />
    <glyph glyph-name="acircumflex.a" 
d="M266 -12c-125 0 -210 94 -210 256c0 159 105 257 221 257c55 0 101 -22 145 -65h3l9 53h78v-489h-81l-8 60h-3c-39 -39 -96 -72 -154 -72zM290 70c44 0 85 22 123 66v232c-39 37 -77 50 -116 50c-76 0 -139 -67 -139 -173c0 -112 49 -175 132 -175zM183 566l-40 38
l112 137h100l112 -137l-40 -38l-120 108h-4z" />
    <glyph glyph-name="atilde.a" 
d="M266 -12c-125 0 -210 94 -210 256c0 159 105 257 221 257c55 0 101 -22 145 -65h3l9 53h78v-489h-81l-8 60h-3c-39 -39 -96 -72 -154 -72zM290 70c44 0 85 22 123 66v232c-39 37 -77 50 -116 50c-76 0 -139 -67 -139 -173c0 -112 49 -175 132 -175zM376 576
c-69 0 -98 79 -140 79c-28 0 -41 -28 -44 -73l-64 4c3 84 35 139 107 139c68 0 97 -78 140 -78c27 0 40 28 43 73l64 -4c-3 -84 -35 -140 -106 -140z" />
    <glyph glyph-name="adieresis.a" 
d="M266 -12c-125 0 -210 94 -210 256c0 159 105 257 221 257c55 0 101 -22 145 -65h3l9 53h78v-489h-81l-8 60h-3c-39 -39 -96 -72 -154 -72zM290 70c44 0 85 22 123 66v232c-39 37 -77 50 -116 50c-76 0 -139 -67 -139 -173c0 -112 49 -175 132 -175zM204 584
c-36 0 -61 27 -61 62s25 62 61 62s62 -27 62 -62s-26 -62 -62 -62zM406 584c-36 0 -62 27 -62 62s26 62 62 62s61 -27 61 -62s-25 -62 -61 -62z" />
    <glyph glyph-name="amacron.a" 
d="M266 -12c-125 0 -210 94 -210 256c0 159 105 257 221 257c55 0 101 -22 145 -65h3l9 53h78v-489h-81l-8 60h-3c-39 -39 -96 -72 -154 -72zM290 70c44 0 85 22 123 66v232c-39 37 -77 50 -116 50c-76 0 -139 -67 -139 -173c0 -112 49 -175 132 -175zM168 598v67h274v-67
h-274z" />
    <glyph glyph-name="abreve.a" 
d="M266 -12c-125 0 -210 94 -210 256c0 159 105 257 221 257c55 0 101 -22 145 -65h3l9 53h78v-489h-81l-8 60h-3c-39 -39 -96 -72 -154 -72zM290 70c44 0 85 22 123 66v232c-39 37 -77 50 -116 50c-76 0 -139 -67 -139 -173c0 -112 49 -175 132 -175zM305 571
c-109 0 -155 75 -160 153l60 10c7 -50 38 -98 100 -98s93 48 100 98l60 -10c-5 -78 -51 -153 -160 -153z" />
    <glyph glyph-name="aring.a" 
d="M266 -12c-125 0 -210 94 -210 256c0 159 105 257 221 257c55 0 101 -22 145 -65h3l9 53h78v-489h-81l-8 60h-3c-39 -39 -96 -72 -154 -72zM290 70c44 0 85 22 123 66v232c-39 37 -77 50 -116 50c-76 0 -139 -67 -139 -173c0 -112 49 -175 132 -175zM305 569
c-73 0 -115 43 -115 98s42 98 115 98s115 -43 115 -98s-42 -98 -115 -98zM305 610c30 0 53 25 53 57s-23 56 -53 56s-53 -24 -53 -56s23 -57 53 -57z" />
    <glyph glyph-name="aringacute.a" 
d="M266 -12c-125 0 -210 94 -210 256c0 159 105 257 221 257c55 0 101 -22 145 -65h3l9 53h78v-489h-81l-8 60h-3c-39 -39 -96 -72 -154 -72zM290 70c44 0 85 22 123 66v232c-39 37 -77 50 -116 50c-76 0 -139 -67 -139 -173c0 -112 49 -175 132 -175zM305 569
c-73 0 -115 43 -115 98c0 32 14 59 39 77l145 108l41 -56l-74 -35c51 -12 79 -49 79 -94c0 -55 -42 -98 -115 -98zM305 610c30 0 53 25 53 57s-23 56 -53 56s-53 -24 -53 -56s23 -57 53 -57z" />
    <glyph glyph-name="uni01CE.a" 
d="M266 -12c-125 0 -210 94 -210 256c0 159 105 257 221 257c55 0 101 -22 145 -65h3l9 53h78v-489h-81l-8 60h-3c-39 -39 -96 -72 -154 -72zM290 70c44 0 85 22 123 66v232c-39 37 -77 50 -116 50c-76 0 -139 -67 -139 -173c0 -112 49 -175 132 -175zM255 575l-112 137
l40 38l120 -108h4l120 108l40 -38l-112 -137h-100z" />
    <glyph glyph-name="uni1EA1.a" 
d="M266 -12c-125 0 -210 94 -210 256c0 159 105 257 221 257c55 0 101 -22 145 -65h3l9 53h78v-489h-81l-8 60h-3c-39 -39 -96 -72 -154 -72zM290 70c44 0 85 22 123 66v232c-39 37 -77 50 -116 50c-76 0 -139 -67 -139 -173c0 -112 49 -175 132 -175zM305 -223
c-42 0 -74 28 -74 71c0 42 32 71 74 71s74 -29 74 -71c0 -43 -32 -71 -74 -71z" />
    <glyph glyph-name="uni1EA3.a" 
d="M266 -12c-125 0 -210 94 -210 256c0 159 105 257 221 257c55 0 101 -22 145 -65h3l9 53h78v-489h-81l-8 60h-3c-39 -39 -96 -72 -154 -72zM290 70c44 0 85 22 123 66v232c-39 37 -77 50 -116 50c-76 0 -139 -67 -139 -173c0 -112 49 -175 132 -175zM270 571l-10 45
c31 7 54 19 54 44c0 27 -26 42 -82 45l6 64c100 -3 151 -40 151 -101s-56 -88 -119 -97z" />
    <glyph glyph-name="uni1EA5.a" 
d="M266 -12c-125 0 -210 94 -210 256c0 159 105 257 221 257c55 0 101 -22 145 -65h3l9 53h78v-489h-81l-8 60h-3c-39 -39 -96 -72 -154 -72zM290 70c44 0 85 22 123 66v232c-39 37 -77 50 -116 50c-76 0 -139 -67 -139 -173c0 -112 49 -175 132 -175zM200 569l-33 39l98 92
h80l98 -92l-33 -39l-103 70h-4zM450 637l-41 32l86 122l56 -38z" />
    <glyph glyph-name="uni1EA7.a" 
d="M266 -12c-125 0 -210 94 -210 256c0 159 105 257 221 257c55 0 101 -22 145 -65h3l9 53h78v-489h-81l-8 60h-3c-39 -39 -96 -72 -154 -72zM290 70c44 0 85 22 123 66v232c-39 37 -77 50 -116 50c-76 0 -139 -67 -139 -173c0 -112 49 -175 132 -175zM200 569l-33 39l98 92
h80l98 -92l-33 -39l-103 70h-4zM160 637l-111 114l56 40l96 -119z" />
    <glyph glyph-name="uni1EA9.a" 
d="M266 -12c-125 0 -210 94 -210 256c0 159 105 257 221 257c55 0 101 -22 145 -65h3l9 53h78v-489h-81l-8 60h-3c-39 -39 -96 -72 -154 -72zM290 70c44 0 85 22 123 66v232c-39 37 -77 50 -116 50c-76 0 -139 -67 -139 -173c0 -112 49 -175 132 -175zM200 569l-33 39l98 92
h80l98 -92l-33 -39l-103 70h-4zM426 638l-9 38c24 7 40 16 40 37c0 24 -19 36 -68 39l8 46c86 -3 129 -28 129 -75c0 -56 -48 -75 -100 -85z" />
    <glyph glyph-name="uni1EAB.a" 
d="M266 -12c-125 0 -210 94 -210 256c0 159 105 257 221 257c55 0 101 -22 145 -65h3l9 53h78v-489h-81l-8 60h-3c-39 -39 -96 -72 -154 -72zM290 70c44 0 85 22 123 66v232c-39 37 -77 50 -116 50c-76 0 -139 -67 -139 -173c0 -112 49 -175 132 -175zM200 569l-33 39l98 87
h80l98 -87l-33 -39l-103 66h-4zM368 712c-57 0 -86 42 -121 42c-19 0 -27 -13 -32 -41l-50 5c6 57 29 94 77 94c57 0 85 -42 121 -42c19 0 27 13 32 41l50 -5c-6 -58 -29 -94 -77 -94z" />
    <glyph glyph-name="uni1EAD.a" 
d="M266 -12c-125 0 -210 94 -210 256c0 159 105 257 221 257c55 0 101 -22 145 -65h3l9 53h78v-489h-81l-8 60h-3c-39 -39 -96 -72 -154 -72zM290 70c44 0 85 22 123 66v232c-39 37 -77 50 -116 50c-76 0 -139 -67 -139 -173c0 -112 49 -175 132 -175zM183 566l-40 38
l112 137h100l112 -137l-40 -38l-120 108h-4zM305 -223c-42 0 -74 28 -74 71c0 42 32 71 74 71s74 -29 74 -71c0 -43 -32 -71 -74 -71z" />
    <glyph glyph-name="uni1EAF.a" 
d="M266 -12c-125 0 -210 94 -210 256c0 159 105 257 221 257c55 0 101 -22 145 -65h3l9 53h78v-489h-81l-8 60h-3c-39 -39 -96 -72 -154 -72zM290 70c44 0 85 22 123 66v232c-39 37 -77 50 -116 50c-76 0 -139 -67 -139 -173c0 -112 49 -175 132 -175zM305 571
c-109 0 -155 75 -160 153l56 10c7 -53 39 -103 104 -103s97 50 104 103l56 -10c-5 -78 -51 -153 -160 -153zM304 684l-46 33l89 128l61 -46z" />
    <glyph glyph-name="uni1EB1.a" 
d="M266 -12c-125 0 -210 94 -210 256c0 159 105 257 221 257c55 0 101 -22 145 -65h3l9 53h78v-489h-81l-8 60h-3c-39 -39 -96 -72 -154 -72zM290 70c44 0 85 22 123 66v232c-39 37 -77 50 -116 50c-76 0 -139 -67 -139 -173c0 -112 49 -175 132 -175zM305 571
c-109 0 -155 75 -160 153l56 10c7 -53 39 -103 104 -103s97 50 104 103l56 -10c-5 -78 -51 -153 -160 -153zM306 684l-104 115l61 46l89 -128z" />
    <glyph glyph-name="uni1EB3.a" 
d="M266 -12c-125 0 -210 94 -210 256c0 159 105 257 221 257c55 0 101 -22 145 -65h3l9 53h78v-489h-81l-8 60h-3c-39 -39 -96 -72 -154 -72zM290 70c44 0 85 22 123 66v232c-39 37 -77 50 -116 50c-76 0 -139 -67 -139 -173c0 -112 49 -175 132 -175zM305 571
c-109 0 -155 75 -160 153l56 10c7 -53 39 -103 104 -103s97 50 104 103l56 -10c-5 -78 -51 -153 -160 -153zM276 686l-9 40c26 5 45 16 45 36c0 24 -21 36 -74 39l8 58c89 -3 135 -33 135 -86c0 -57 -51 -79 -105 -87z" />
    <glyph glyph-name="uni1EB5.a" 
d="M266 -12c-125 0 -210 94 -210 256c0 159 105 257 221 257c55 0 101 -22 145 -65h3l9 53h78v-489h-81l-8 60h-3c-39 -39 -96 -72 -154 -72zM290 70c44 0 85 22 123 66v232c-39 37 -77 50 -116 50c-76 0 -139 -67 -139 -173c0 -112 49 -175 132 -175zM305 571
c-100 0 -141 55 -147 109l54 9c5 -32 33 -64 93 -64s88 32 93 64l54 -9c-6 -54 -47 -109 -147 -109zM368 711c-57 0 -86 42 -121 42c-19 0 -27 -13 -32 -41l-55 5c6 57 31 94 82 94c57 0 85 -42 121 -42c19 0 27 13 32 41l55 -5c-6 -58 -31 -94 -82 -94z" />
    <glyph glyph-name="uni1EB7.a" 
d="M266 -12c-125 0 -210 94 -210 256c0 159 105 257 221 257c55 0 101 -22 145 -65h3l9 53h78v-489h-81l-8 60h-3c-39 -39 -96 -72 -154 -72zM290 70c44 0 85 22 123 66v232c-39 37 -77 50 -116 50c-76 0 -139 -67 -139 -173c0 -112 49 -175 132 -175zM305 571
c-109 0 -155 75 -160 153l60 10c7 -50 38 -98 100 -98s93 48 100 98l60 -10c-5 -78 -51 -153 -160 -153zM305 -223c-42 0 -74 28 -74 71c0 42 32 71 74 71s74 -29 74 -71c0 -43 -32 -71 -74 -71z" />
    <glyph glyph-name="aogonek.a" 
d="M450 -226c-57 0 -102 31 -102 95c0 59 41 103 84 130l-9 61h-3c-39 -39 -96 -72 -154 -72c-125 0 -210 94 -210 256c0 159 105 257 221 257c55 0 101 -22 145 -65h3l9 53h78v-493c-69 -28 -93 -69 -93 -107c0 -35 25 -52 53 -52c19 0 35 9 46 19l26 -46
c-24 -21 -58 -36 -94 -36zM290 70c44 0 85 22 123 66v232c-39 37 -77 50 -116 50c-76 0 -139 -67 -139 -173c0 -112 49 -175 132 -175z" />
    <glyph glyph-name="g.a" 
d="M277 -212c-61 0 -132 17 -186 52l35 70c49 -30 105 -43 151 -43c88 0 136 47 139 117l3 88h-3c-37 -37 -93 -65 -150 -65c-125 0 -210 94 -210 245c0 152 104 249 221 249c56 0 104 -24 145 -65h3l9 53h78v-499c0 -125 -84 -202 -235 -202zM290 88c43 0 84 22 123 67v213
c-39 37 -77 50 -117 50c-74 0 -139 -66 -139 -165c0 -102 52 -165 133 -165z" />
    <glyph glyph-name="uni01F5.a" 
d="M277 -212c-61 0 -132 17 -186 52l35 70c49 -30 105 -43 151 -43c88 0 136 47 139 117l3 88h-3c-37 -37 -93 -65 -150 -65c-125 0 -210 94 -210 245c0 152 104 249 221 249c56 0 104 -24 145 -65h3l9 53h78v-499c0 -125 -84 -202 -235 -202zM290 88c43 0 84 22 123 67v213
c-39 37 -77 50 -117 50c-74 0 -139 -66 -139 -165c0 -102 52 -165 133 -165zM293 566l-51 49l145 172l69 -67z" />
    <glyph glyph-name="gcircumflex.a" 
d="M277 -212c-61 0 -132 17 -186 52l35 70c49 -30 105 -43 151 -43c88 0 136 47 139 117l3 88h-3c-37 -37 -93 -65 -150 -65c-125 0 -210 94 -210 245c0 152 104 249 221 249c56 0 104 -24 145 -65h3l9 53h78v-499c0 -125 -84 -202 -235 -202zM290 88c43 0 84 22 123 67v213
c-39 37 -77 50 -117 50c-74 0 -139 -66 -139 -165c0 -102 52 -165 133 -165zM188 566l-40 38l112 137h100l112 -137l-40 -38l-120 108h-4z" />
    <glyph glyph-name="gbreve.a" 
d="M277 -212c-61 0 -132 17 -186 52l35 70c49 -30 105 -43 151 -43c88 0 136 47 139 117l3 88h-3c-37 -37 -93 -65 -150 -65c-125 0 -210 94 -210 245c0 152 104 249 221 249c56 0 104 -24 145 -65h3l9 53h78v-499c0 -125 -84 -202 -235 -202zM290 88c43 0 84 22 123 67v213
c-39 37 -77 50 -117 50c-74 0 -139 -66 -139 -165c0 -102 52 -165 133 -165zM310 571c-109 0 -155 75 -160 153l60 10c7 -50 38 -98 100 -98s93 48 100 98l60 -10c-5 -78 -51 -153 -160 -153z" />
    <glyph glyph-name="gdotaccent.a" 
d="M277 -212c-61 0 -132 17 -186 52l35 70c49 -30 105 -43 151 -43c88 0 136 47 139 117l3 88h-3c-37 -37 -93 -65 -150 -65c-125 0 -210 94 -210 245c0 152 104 249 221 249c56 0 104 -24 145 -65h3l9 53h78v-499c0 -125 -84 -202 -235 -202zM290 88c43 0 84 22 123 67v213
c-39 37 -77 50 -117 50c-74 0 -139 -66 -139 -165c0 -102 52 -165 133 -165zM310 584c-42 0 -74 28 -74 71c0 42 32 71 74 71s74 -29 74 -71c0 -43 -32 -71 -74 -71z" />
    <glyph glyph-name="uni0123.a" 
d="M277 -212c-61 0 -132 17 -186 52l35 70c49 -30 105 -43 151 -43c88 0 136 47 139 117l3 88h-3c-37 -37 -93 -65 -150 -65c-125 0 -210 94 -210 245c0 152 104 249 221 249c56 0 104 -24 145 -65h3l9 53h78v-499c0 -125 -84 -202 -235 -202zM290 88c43 0 84 22 123 67v213
c-39 37 -77 50 -117 50c-74 0 -139 -66 -139 -165c0 -102 52 -165 133 -165zM351 573c-93 10 -123 33 -123 79c0 61 62 90 173 95l8 -46c-82 -5 -107 -19 -107 -45c0 -24 23 -36 69 -40z" />
    <glyph glyph-name="gcaron.a" 
d="M277 -212c-61 0 -132 17 -186 52l35 70c49 -30 105 -43 151 -43c88 0 136 47 139 117l3 88h-3c-37 -37 -93 -65 -150 -65c-125 0 -210 94 -210 245c0 152 104 249 221 249c56 0 104 -24 145 -65h3l9 53h78v-499c0 -125 -84 -202 -235 -202zM290 88c43 0 84 22 123 67v213
c-39 37 -77 50 -117 50c-74 0 -139 -66 -139 -165c0 -102 52 -165 133 -165zM260 575l-112 137l40 38l120 -108h4l120 108l40 -38l-112 -137h-100z" />
    <glyph glyph-name="uni1E21.a" 
d="M277 -212c-61 0 -132 17 -186 52l35 70c49 -30 105 -43 151 -43c88 0 136 47 139 117l3 88h-3c-37 -37 -93 -65 -150 -65c-125 0 -210 94 -210 245c0 152 104 249 221 249c56 0 104 -24 145 -65h3l9 53h78v-499c0 -125 -84 -202 -235 -202zM290 88c43 0 84 22 123 67v213
c-39 37 -77 50 -117 50c-74 0 -139 -66 -139 -165c0 -102 52 -165 133 -165zM173 598v67h274v-67h-274z" />
    <glyph glyph-name="uni00670303.a" 
d="M277 -212c-61 0 -132 17 -186 52l35 70c49 -30 105 -43 151 -43c88 0 136 47 139 117l3 88h-3c-37 -37 -93 -65 -150 -65c-125 0 -210 94 -210 245c0 152 104 249 221 249c56 0 104 -24 145 -65h3l9 53h78v-499c0 -125 -84 -202 -235 -202zM290 88c43 0 84 22 123 67v213
c-39 37 -77 50 -117 50c-74 0 -139 -66 -139 -165c0 -102 52 -165 133 -165zM381 576c-69 0 -98 79 -140 79c-28 0 -41 -28 -44 -73l-64 4c3 84 35 139 107 139c68 0 97 -78 140 -78c27 0 40 28 43 73l64 -4c-3 -84 -35 -140 -106 -140z" />
    <glyph glyph-name="i.a" 
d="M95 0v80h191v329h-168v80h267v-409h179v-80h-469zM327 584c-42 0 -74 28 -74 71c0 42 32 71 74 71s74 -29 74 -71c0 -43 -32 -71 -74 -71z" />
    <glyph glyph-name="dotlessi.a" 
d="M95 0v80h191v329h-168v80h267v-409h179v-80h-469z" />
    <glyph glyph-name="igrave.a" 
d="M95 0v80h191v329h-168v80h267v-409h179v-80h-469zM341 566l-163 154l69 67l145 -172z" />
    <glyph glyph-name="iacute.a" 
d="M95 0v80h191v329h-168v80h267v-409h179v-80h-469zM307 566l-51 49l145 172l69 -67z" />
    <glyph glyph-name="icircumflex.a" 
d="M95 0v80h191v329h-168v80h267v-409h179v-80h-469zM202 566l-40 38l112 137h100l112 -137l-40 -38l-120 108h-4z" />
    <glyph glyph-name="itilde.a" 
d="M95 0v80h191v329h-168v80h267v-409h179v-80h-469zM395 576c-69 0 -98 79 -140 79c-28 0 -41 -28 -44 -73l-64 4c3 84 35 139 107 139c68 0 97 -78 140 -78c27 0 40 28 43 73l64 -4c-3 -84 -35 -140 -106 -140z" />
    <glyph glyph-name="idieresis.a" 
d="M95 0v80h191v329h-168v80h267v-409h179v-80h-469zM223 584c-36 0 -61 27 -61 62s25 62 61 62s62 -27 62 -62s-26 -62 -62 -62zM425 584c-36 0 -62 27 -62 62s26 62 62 62s61 -27 61 -62s-25 -62 -61 -62z" />
    <glyph glyph-name="imacron.a" 
d="M95 0v80h191v329h-168v80h267v-409h179v-80h-469zM187 598v67h274v-67h-274z" />
    <glyph glyph-name="uni01D0.a" 
d="M95 0v80h191v329h-168v80h267v-409h179v-80h-469zM274 575l-112 137l40 38l120 -108h4l120 108l40 -38l-112 -137h-100z" />
    <glyph glyph-name="iogonek.a" 
d="M342 -226c-59 0 -106 31 -106 95c0 56 38 100 77 131h-218v80h191v329h-168v80h267v-409h179v-80h-175c-58 -35 -82 -75 -82 -111c0 -35 27 -52 57 -52c20 0 37 9 51 19l26 -46c-25 -21 -61 -36 -99 -36zM324 584c-42 0 -74 28 -74 71c0 42 32 71 74 71s74 -29 74 -71
c0 -43 -32 -71 -74 -71z" />
    <glyph glyph-name="uni1EC9.a" 
d="M95 0v80h191v329h-168v80h267v-409h179v-80h-469zM289 571l-10 45c31 7 54 19 54 44c0 27 -26 42 -82 45l6 64c100 -3 151 -40 151 -101s-56 -88 -119 -97z" />
    <glyph glyph-name="uni1ECB.a" 
d="M95 0v80h191v329h-168v80h267v-409h179v-80h-469zM327 584c-42 0 -74 28 -74 71c0 42 32 71 74 71s74 -29 74 -71c0 -43 -32 -71 -74 -71zM324 -223c-42 0 -74 28 -74 71c0 42 32 71 74 71s74 -29 74 -71c0 -43 -32 -71 -74 -71z" />
    <glyph glyph-name="uni012D.a" 
d="M95 0v80h191v329h-168v80h267v-409h179v-80h-469zM324 571c-109 0 -155 75 -160 153l60 10c7 -50 38 -98 100 -98s93 48 100 98l60 -10c-5 -78 -51 -153 -160 -153z" />
    <glyph glyph-name="uni0268.a" 
d="M113 219v61l173 6v123h-168v80h267v-203h163v-67h-163v-139h179v-80h-469v80h191v139h-173zM327 584c-42 0 -74 28 -74 71c0 42 32 71 74 71s74 -29 74 -71c0 -43 -32 -71 -74 -71z" />
    <glyph glyph-name="iogonek.d" 
d="M352 -226c-60 0 -107 31 -107 95c0 57 40 101 86 131h-25v409h-219v80h318v-493c-61 -27 -89 -68 -89 -107c0 -35 27 -52 58 -52c20 0 37 9 51 19l25 -46c-24 -21 -60 -36 -98 -36z" />
    <glyph glyph-name="iogonek.da" 
d="M342 -226c-59 0 -106 31 -106 95c0 56 38 100 77 131h-218v80h191v329h-168v80h267v-409h179v-80h-175c-58 -35 -82 -75 -82 -111c0 -35 27 -52 57 -52c20 0 37 9 51 19l26 -46c-25 -21 -61 -36 -99 -36z" />
    <glyph glyph-name="uni0268.d" 
d="M128 204v60l178 6v139h-219v80h318v-219h158v-66h-158v-204h-99v204h-178z" />
    <glyph glyph-name="uni0268.da" 
d="M113 219v61l173 6v123h-168v80h267v-203h163v-67h-163v-139h179v-80h-469v80h191v139h-173z" />
    <glyph glyph-name="uni029D.d" 
d="M417 -245c-19 38 -39 69 -59 95c-33 -39 -85 -62 -156 -62c-98 0 -154 55 -154 121c0 65 49 108 139 108c38 0 79 -8 119 -27v419h-219v80h318v-498c0 -23 -3 -44 -8 -64c35 -34 68 -78 97 -136zM200 -134c50 0 79 19 93 47c-35 24 -72 35 -107 35c-42 0 -60 -16 -60 -38
c0 -24 25 -44 74 -44z" />
    <glyph glyph-name="l.a" 
d="M95 0v80h191v550h-168v79h267v-629h179v-80h-469z" />
    <glyph glyph-name="lacute.a" 
d="M95 0v80h191v550h-168v79h267v-629h179v-80h-469zM301 753l-44 50l149 131l55 -66z" />
    <glyph glyph-name="lcaron.a" 
d="M95 0v80h191v550h-168v79h267v-629h179v-80h-469zM457 548l-4 270h89l-1 -86l-17 -184h-67z" />
    <glyph glyph-name="uni013C.a" 
d="M95 0v80h191v550h-168v79h267v-629h179v-80h-469zM236 -230l-8 46c82 5 107 19 107 45c0 24 -23 36 -69 40l20 43c93 -10 123 -33 123 -79c0 -61 -62 -90 -173 -95z" />
    <glyph glyph-name="uni1E37.a" 
d="M95 0v80h191v550h-168v79h267v-629h179v-80h-469zM327 -223c-42 0 -74 28 -74 71c0 42 32 71 74 71s74 -29 74 -71c0 -43 -32 -71 -74 -71z" />
    <glyph glyph-name="uni1E39.a" 
d="M95 0v80h191v550h-168v79h267v-629h179v-80h-469zM194 791v67h276v-67h-276zM327 -223c-42 0 -74 28 -74 71c0 42 32 71 74 71s74 -29 74 -71c0 -43 -32 -71 -74 -71z" />
    <glyph glyph-name="uni1E3B.a" 
d="M95 0v80h191v550h-168v79h267v-629h179v-80h-469zM190 -176v67h274v-67h-274z" />
    <glyph glyph-name="lslash.a" 
d="M95 0v80h191v240l-102 -60l-34 64l136 78v228h-168v79h267v-259l141 79l34 -64l-175 -98v-287h179v-80h-469z" />
    <glyph glyph-name="ldot.a" 
d="M41 0v80h191v550h-168v79h267v-629h179v-80h-469zM565 280c-42 0 -74 28 -74 71c0 42 32 71 74 71s74 -29 74 -71c0 -43 -32 -71 -74 -71z" />
    <glyph glyph-name="uni006C00B7006C.a" 
d="M-7 0v80h109v550h-104v79h193v-629h96v-80h-294zM314 0v80h99v550h-104v79h193v-629h106v-80h-294zM304 295c-34 0 -61 25 -61 64c0 38 27 63 61 63s61 -25 61 -63c0 -39 -27 -64 -61 -64z" />
    <glyph glyph-name="uni026B.a" 
d="M95 0v80h191v293c-14 8 -27 13 -42 13c-27 0 -40 -28 -43 -71l-65 12c4 77 34 130 100 130c19 0 35 -3 50 -9v182h-168v79h267v-319c13 -7 27 -12 41 -12c27 0 40 28 43 71l65 -12c-4 -76 -34 -130 -99 -130c-19 0 -35 3 -50 9v-236h179v-80h-469z" />
    <glyph glyph-name="uni026C.a" 
d="M266 302c-101 0 -142 40 -142 93c0 47 38 83 93 83c31 0 53 -10 69 -25v177h-168v79h267v-354h137v-53h-137v-222h179v-80h-469v80h191v222h-20zM255 355h31v9c0 28 -20 62 -64 62c-27 0 -39 -14 -39 -32c0 -21 17 -39 72 -39z" />
    <glyph glyph-name="Alpha" unicode="&#x391;" 
d="M235 357l-27 -90h181l-27 90c-21 71 -43 144 -62 218h-4c-19 -74 -40 -147 -61 -218zM26 0l216 655h116l216 -655h-106l-56 188h-228l-56 -188h-102z" />
    <glyph glyph-name="Beta" unicode="&#x392;" 
d="M92 0v655h195c134 0 229 -43 229 -160c0 -64 -37 -123 -114 -143v-4c95 -15 149 -67 149 -156c0 -130 -102 -192 -248 -192h-211zM192 383h83c101 0 143 34 143 101c0 65 -47 89 -140 89h-86v-190zM192 82h99c104 0 162 35 162 116c0 75 -56 105 -162 105h-99v-221z" />
    <glyph glyph-name="Gamma" unicode="&#x393;" 
d="M128 0v655h408v-84h-308v-571h-100z" />
    <glyph glyph-name="uni0394" unicode="&#x394;" 
d="M40 0v60l202 595h116l202 -595v-60h-520zM148 84h302l-86 271c-22 69 -43 144 -63 218h-4c-22 -74 -43 -149 -63 -218z" />
    <glyph glyph-name="Epsilon" unicode="&#x395;" 
d="M109 0v655h412v-84h-312v-187h264v-84h-264v-216h322v-84h-422z" />
    <glyph glyph-name="Zeta" unicode="&#x396;" 
d="M63 0v60l350 512h-319v84h442v-61l-351 -511h356v-84h-478z" />
    <glyph glyph-name="Eta" unicode="&#x397;" 
d="M75 0v655h101v-269h248v269h101v-655h-101v299h-248v-299h-101z" />
    <glyph glyph-name="Theta" unicode="&#x398;" 
d="M300 -12c-150 0 -255 131 -255 342s105 337 255 337s255 -127 255 -337c0 -211 -105 -342 -255 -342zM300 75c91 0 152 100 152 255s-61 250 -152 250s-152 -95 -152 -250s61 -255 152 -255zM209 299v87h182v-87h-182z" />
    <glyph glyph-name="Iota" unicode="&#x399;" 
d="M90 0v84h160v487h-160v84h420v-84h-160v-487h160v-84h-420z" />
    <glyph glyph-name="Kappa" unicode="&#x39a;" 
d="M90 0v655h101v-313h3l254 313h113l-205 -252l228 -403h-112l-178 328l-103 -127v-201h-101z" />
    <glyph glyph-name="Lambda" unicode="&#x39b;" 
d="M35 0l206 655h117l207 -655h-106l-99 342c-22 75 -37 139 -60 214h-4c-24 -75 -39 -139 -61 -214l-98 -342h-102z" />
    <glyph glyph-name="Mu" unicode="&#x39c;" 
d="M68 0v655h116l85 -267l29 -102h4l29 102l85 267h116v-655h-92v295c0 67 11 191 16 251h-3l-41 -141l-83 -231h-62l-82 231l-40 141h-3c7 -60 16 -184 16 -251v-295h-90z" />
    <glyph glyph-name="Nu" unicode="&#x39d;" 
d="M78 0v655h107l191 -389l61 -138h3c-4 66 -14 144 -14 215v312h96v-655h-107l-191 389l-61 138h-3c4 -68 14 -143 14 -213v-314h-96z" />
    <glyph glyph-name="Xi" unicode="&#x39e;" 
d="M69 0v84h462v-84h-462zM142 300v84h316v-84h-316zM79 571v84h442v-84h-442z" />
    <glyph glyph-name="Omicron" unicode="&#x39f;" 
d="M300 -12c-150 0 -255 125 -255 342c0 214 105 337 255 337s255 -123 255 -337c0 -217 -105 -342 -255 -342zM300 75c91 0 152 94 152 255c0 158 -61 250 -152 250s-152 -92 -152 -250c0 -161 61 -255 152 -255z" />
    <glyph glyph-name="Pi" unicode="&#x3a0;" 
d="M75 0v655h450v-655h-101v571h-248v-571h-101z" />
    <glyph glyph-name="Rho" unicode="&#x3a1;" 
d="M95 0v655h207c144 0 245 -50 245 -197c0 -142 -103 -208 -245 -208h-107v-250h-100zM195 331h97c106 0 156 40 156 127s-52 117 -156 117h-97v-244z" />
    <glyph glyph-name="Sigma" unicode="&#x3a3;" 
d="M72 0v60l220 272l-216 263v60h429v-84h-304l192 -237l-195 -250h336v-84h-462z" />
    <glyph glyph-name="Tau" unicode="&#x3a4;" 
d="M250 0v571h-211v84h522v-84h-211v-571h-100z" />
    <glyph glyph-name="Upsilon" unicode="&#x3a5;" 
d="M250 0v230l-217 425h106l90 -185c24 -51 46 -100 71 -152h4c25 52 49 101 73 152l87 185h103l-217 -425v-230h-100z" />
    <glyph glyph-name="Phi" unicode="&#x3a6;" 
d="M116 331c0 -107 54 -179 141 -189v372c-87 -9 -141 -78 -141 -183zM484 331c0 105 -55 174 -141 183v-372c86 10 141 82 141 189zM257 -22v87c-141 10 -234 107 -234 266c0 157 93 250 234 260v86h86v-86c141 -10 234 -103 234 -260c0 -159 -93 -256 -234 -266v-87h-86z
" />
    <glyph glyph-name="Chi" unicode="&#x3a7;" 
d="M45 0l194 338l-182 317h111l85 -156c16 -30 31 -59 51 -98h4c18 39 31 68 47 98l82 156h106l-182 -322l194 -333h-110l-92 165c-18 33 -36 66 -56 106h-4c-19 -40 -36 -73 -53 -106l-90 -165h-105z" />
    <glyph glyph-name="Psi" unicode="&#x3a8;" 
d="M253 0v237c-134 8 -215 84 -215 236v182h95v-177c0 -101 40 -154 120 -162v339h94v-339c80 8 120 61 120 162v177h95v-182c0 -152 -81 -228 -215 -236v-237h-94z" />
    <glyph glyph-name="uni03A9" unicode="&#x3a9;" 
d="M36 0v81h116v4c-52 52 -107 142 -107 268c0 183 99 314 255 314s255 -131 255 -314c0 -126 -55 -216 -107 -268v-4h116v-81h-215v73c61 66 103 144 103 272c0 135 -54 235 -152 235s-152 -100 -152 -235c0 -128 42 -206 103 -272v-73h-215z" />
    <glyph glyph-name="Alphatonos" unicode="&#x386;" 
d="M256 357l-25 -90h164l-24 90c-20 71 -37 131 -56 209h-4c-20 -78 -35 -138 -55 -209zM55 0l202 655h115l202 -655h-106l-51 188h-208l-52 -188h-102zM94 378l-66 12l38 300l91 -12z" />
    <glyph glyph-name="Epsilontonos" unicode="&#x388;" 
d="M203 0v655h318v-84h-228v-187h180v-84h-180v-216h238v-84h-328zM84 378l-66 12l38 300l91 -12z" />
    <glyph glyph-name="Etatonos" unicode="&#x389;" 
d="M195 0v655h90v-269h159v269h90v-655h-90v299h-159v-299h-90zM84 378l-66 12l38 300l91 -12z" />
    <glyph glyph-name="Iotatonos" unicode="&#x38a;" 
d="M189 0v84h110v487h-110v84h321v-84h-111v-487h111v-84h-321zM84 378l-66 12l38 300l91 -12z" />
    <glyph glyph-name="Iotadieresis" unicode="&#x3aa;" 
d="M90 0v84h160v487h-160v84h420v-84h-160v-487h160v-84h-420zM204 711c-33 0 -57 24 -57 57s24 56 57 56c32 0 56 -23 56 -56s-24 -57 -56 -57zM396 711c-32 0 -56 24 -56 57s24 56 56 56c33 0 57 -23 57 -56s-24 -57 -57 -57z" />
    <glyph glyph-name="Omicrontonos" unicode="&#x38c;" 
d="M350 -12c-121 0 -205 126 -205 342c0 221 84 337 205 337c120 0 205 -116 205 -337s-85 -342 -205 -342zM350 75c65 0 108 80 108 255s-43 250 -108 250c-66 0 -109 -75 -109 -250s43 -255 109 -255zM84 378l-66 12l38 300l91 -12z" />
    <glyph glyph-name="Upsilontonos" unicode="&#x38e;" 
d="M354 0v230l-162 425h91l65 -185c18 -55 34 -101 51 -152h4c16 51 33 100 50 152l66 185h88l-162 -425v-230h-91zM99 378l-66 12l38 300l91 -12z" />
    <glyph glyph-name="Upsilondieresis" unicode="&#x3ab;" 
d="M250 0v230l-217 425h106l90 -185c24 -51 46 -100 71 -152h4c25 52 49 101 73 152l87 185h103l-217 -425v-230h-100zM204 711c-33 0 -57 24 -57 57s24 56 57 56c32 0 56 -23 56 -56s-24 -57 -56 -57zM396 711c-32 0 -56 24 -56 57s24 56 56 56c33 0 57 -23 57 -56
s-24 -57 -57 -57z" />
    <glyph glyph-name="Omegatonos" unicode="&#x38f;" 
d="M135 0v81h94v4c-51 76 -83 161 -83 283c0 174 79 299 203 299s203 -125 203 -299c0 -122 -32 -207 -84 -283v-4h95v-81h-178v73c48 80 71 157 71 277c0 142 -39 230 -107 230s-108 -88 -108 -230c0 -120 24 -197 71 -277v-73h-177zM84 378l-66 12l38 300l91 -12z" />
    <glyph glyph-name="alpha" unicode="&#x3b1;" 
d="M249 -12c-116 0 -196 89 -196 249c0 167 104 264 216 264c63 0 127 -31 156 -120h3l20 108h98c-26 -125 -62 -285 -62 -370c0 -33 21 -50 48 -50c10 0 23 3 33 7l14 -74c-15 -7 -38 -14 -70 -14c-60 0 -99 28 -104 95h-3c-41 -65 -89 -95 -153 -95zM271 70
c61 0 121 64 127 140l7 90c-25 94 -78 118 -119 118c-66 0 -131 -59 -131 -180c0 -108 44 -168 116 -168z" />
    <glyph glyph-name="beta" unicode="&#x3b2;" 
d="M88 -178v668c0 132 66 231 206 231c101 0 196 -56 196 -175c0 -71 -34 -124 -100 -162v-4c93 -15 158 -86 158 -185c0 -135 -97 -207 -197 -207c-59 0 -121 18 -170 72c3 -81 5 -158 7 -238h-100zM325 70c68 0 124 48 124 131c0 70 -42 125 -126 125c-16 0 -32 -2 -48 -6
l-13 75c96 18 132 81 132 143c0 70 -46 104 -99 104c-69 0 -110 -57 -111 -168c-2 -111 -3 -221 -3 -332c45 -57 97 -72 144 -72z" />
    <glyph glyph-name="gamma" unicode="&#x3b3;" 
d="M245 -178c4 43 5 67 5 124c0 147 -100 392 -209 531l100 24c64 -82 133 -236 168 -386h4c67 120 117 242 132 374h99c-32 -166 -78 -282 -208 -482c9 -59 11 -129 11 -185h-102z" />
    <glyph glyph-name="delta" unicode="&#x3b4;" 
d="M300 -12c-125 0 -238 83 -238 223c0 115 85 188 187 224c-74 49 -136 98 -136 174c0 60 54 112 172 112c72 0 151 -13 240 -43l-23 -77c-93 32 -163 45 -218 45c-52 0 -75 -21 -75 -45c0 -48 66 -84 161 -143c98 -61 168 -124 168 -238c0 -138 -89 -232 -238 -232z
M302 69c90 0 139 57 139 151c0 76 -53 125 -118 168c-104 -23 -166 -84 -166 -175c0 -89 69 -144 145 -144z" />
    </font>
</defs>
</svg>
