<?xml version="1.0" encoding="UTF-8"?>
<!DOCTYPE svg PUBLIC "-//W3C//DTD SVG 1.1//EN"
    "http://www.w3.org/Graphics/SVG/1.1/DTD/svg11.dtd">
<svg xmlns="http://www.w3.org/2000/svg" height="100.0000" stroke-opacity="1" viewBox="0 0 400 100" font-size="1" width="400.0000" xmlns:xlink="http://www.w3.org/1999/xlink" stroke="rgb(0,0,0)" version="1.1">
  <defs>
  </defs>
  <g stroke-linejoin="miter" stroke-opacity="0.5" fill-opacity="0.0" stroke="rgb(188,0,0)" stroke-width="3.1915382432114643" fill="rgb(0,0,0)" stroke-linecap="butt" stroke-miterlimit="10.0">
    <path d="M 0.0000,18.1690 l 4.0000,0.2510 l 4.0000,0.7490 l 4.0000,1.2353 l 4.0000,1.7020 l 4.0000,2.1419 l 4.0000,2.5480 l 4.0000,2.9140 l 4.0000,3.2339 l 4.0000,3.5029 l 4.0000,3.7167 l 4.0000,3.8718 l 4.0000,3.9658 l 4.0000,3.9974 l 4.0000,3.9658 l 4.0000,3.8718 l 4.0000,3.7167 l 4.0000,3.5029 l 4.0000,3.2339 l 4.0000,2.9140 l 4.0000,2.5480 l 4.0000,2.1419 l 4.0000,1.7020 l 4.0000,1.2353 l 4.0000,0.7490 l 4.0000,0.2510 l 4.0000,-0.2510 l 4.0000,-0.7490 l 4.0000,-1.2353 l 4.0000,-1.7020 l 4.0000,-2.1419 l 4.0000,-2.5480 l 4.0000,-2.9140 l 4.0000,-3.2339 l 4.0000,-3.5029 l 4.0000,-3.7167 l 4.0000,-3.8718 l 4.0000,-3.9658 l 4.0000,-3.9974 l 4.0000,-3.9658 l 4.0000,-3.8718 l 4.0000,-3.7167 l 4.0000,-3.5029 l 4.0000,-3.2339 l 4.0000,-2.9140 l 4.0000,-2.5480 l 4.0000,-2.1419 l 4.0000,-1.7020 l 4.0000,-1.2353 l 4.0000,-0.7490 l 4.0000,-0.2510 l 4.0000,0.2510 l 4.0000,0.7490 l 4.0000,1.2353 l 4.0000,1.7020 l 4.0000,2.1419 l 4.0000,2.5480 l 4.0000,2.9140 l 4.0000,3.2339 l 4.0000,3.5029 l 4.0000,3.7167 l 4.0000,3.8718 l 4.0000,3.9658 l 4.0000,3.9974 l 4.0000,3.9658 l 4.0000,3.8718 l 4.0000,3.7167 l 4.0000,3.5029 l 4.0000,3.2339 l 4.0000,2.9140 l 4.0000,2.5480 l 4.0000,2.1419 l 4.0000,1.7020 l 4.0000,1.2353 l 4.0000,0.7490 l 4.0000,0.2510 l 4.0000,-0.2510 l 4.0000,-0.7490 l 4.0000,-1.2353 l 4.0000,-1.7020 l 4.0000,-2.1419 l 4.0000,-2.5480 l 4.0000,-2.9140 l 4.0000,-3.2339 l 4.0000,-3.5029 l 4.0000,-3.7167 l 4.0000,-3.8718 l 4.0000,-3.9658 l 4.0000,-3.9974 l 4.0000,-3.9658 l 4.0000,-3.8718 l 4.0000,-3.7167 l 4.0000,-3.5029 l 4.0000,-3.2339 l 4.0000,-2.9140 l 4.0000,-2.5480 l 4.0000,-2.1419 l 4.0000,-1.7020 l 4.0000,-1.2353 l 4.0000,-0.7490 l 4.0000,-0.2510 "/>
  </g>
</svg>